<?xml version="1.0" encoding="utf-8"?>
<!-- Generator: Adobe Illustrator 22.1.0, SVG Export Plug-In . SVG Version: 6.00 Build 0)  -->
<svg version="1.1" id="Layer_1" xmlns="http://www.w3.org/2000/svg" xmlns:xlink="http://www.w3.org/1999/xlink" x="0px" y="0px"
	 viewBox="0 0 1285.5 725.2" style="enable-background:new 0 0 1285.5 725.2;" xml:space="preserve">
<style type="text/css">
	.st0{fill:#FEF1DD;}
	.st1{fill:none;stroke:#35423E;stroke-linecap:round;stroke-miterlimit:10;}
	.st2{fill:none;stroke:#5B5B4B;stroke-linecap:round;stroke-miterlimit:10;}
</style>
<g>
	<g>
		<path class="st0" d="M1280.5,4.4H6.8C24,14,106.8,60,113.4,63.2c5.5,2.6,29.8,16.6,42.5,24.4h975.5c12.8-7.7,37-21.7,42.5-24.4
			C1180.5,60,1263.3,14,1280.5,4.4z"/>
		<path class="st1" d="M320.2,1c0,0,6.3,2.4,10.8,8.4s27.9,42.9,41.4,54.4c13.4,11.5,32.3,31.4,32.3,31.4"/>
		<path class="st1" d="M486.8,4.4c0,0,15.7,31.8,21.7,47.3S523,95.2,523,95.2"/>
		<path class="st1" d="M641.8,0.9c0,0,2.1,17.2,2.1,34.3s-2.1,58.9-2.1,58.9"/>
		<path class="st1" d="M168.7,4.2c0,0,34.4,23.3,41.1,30.8c6.6,7.5,79.2,60.2,79.2,60.2"/>
		<path class="st1" d="M963.4,0.2c0,0-6.3,2.5-10.8,8.4c-4.5,6-27.9,42.9-41.4,54.4c-13.4,11.5-32.3,31.4-32.3,31.4"/>
		<path class="st1" d="M796.8,3.6c0,0-15.7,31.8-21.7,47.3s-14.5,43.5-14.5,43.5"/>
		<path class="st1" d="M1114.9,3.4c0,0-34.4,23.3-41.1,30.8c-6.6,7.5-79.2,60.2-79.2,60.2"/>
		<path class="st1" d="M1283.5,3.3c-1.7,0-2.7,0-2.7,0s-319.6-5.1-525.1,0S48,5.6,10.3,3.3C7.4,3.1,4.8,3.2,2.5,3.6"/>
	</g>
</g>
<path class="st2" d="M686,236.7"/>
</svg>
