<?xml version="1.0" encoding="utf-8"?>
<!-- Generator: Adobe Illustrator 22.1.0, SVG Export Plug-In . SVG Version: 6.00 Build 0)  -->
<svg version="1.1" id="Layer_1" xmlns="http://www.w3.org/2000/svg" xmlns:xlink="http://www.w3.org/1999/xlink" x="0px" y="0px"
	 viewBox="0 0 259.2 642.9" style="enable-background:new 0 0 259.2 642.9;" xml:space="preserve">
<style type="text/css">
	.st0{fill:#A36B78;stroke:#584C4F;stroke-width:2;stroke-linecap:round;stroke-miterlimit:10;}
	.st1{fill:#A36B78;stroke:#584C4F;stroke-width:2;stroke-linecap:round;stroke-linejoin:round;stroke-miterlimit:10;}
	.st2{fill:#FFD767;stroke:#584C4F;stroke-width:2;stroke-miterlimit:10;}
	.st3{fill:#A36B78;}
	.st4{fill:none;stroke:#584C4F;stroke-width:2;stroke-linecap:round;stroke-miterlimit:10;}
	.st5{fill:#BEAB72;}
	.st6{fill:#584C4F;stroke:#584C4F;stroke-width:2;stroke-linecap:round;stroke-miterlimit:10;}
	.st7{opacity:0.1;fill:#231F20;stroke:#231F20;stroke-miterlimit:10;enable-background:new    ;}
	.st8{fill:#FFFFFF;stroke:#584C4F;stroke-width:2;stroke-linecap:round;stroke-miterlimit:10;}
</style>
<g id="Layer_5">
</g>
<g id="Layer_3">
</g>
<g>
	<g>
		<g>
			<g id="XMLID_12099_">
				<path id="XMLID_12100_" class="st0" d="M145.6,482.6c8.7-2.5,8.8,10.6,1.2,8.5"/>
			</g>
			<path id="XMLID_12060_" class="st0" d="M135.5,359.4c-1.4,34-5.6,92.2-3.2,107.9c3.4,21.9,0,126.3,0,126.3l16.9,1.5
				c0,0-3.3-59.2-1.2-99.4c1.1-22.2,2.5-65,4.2-99.8"/>
			<g id="XMLID_12058_">
				<path id="XMLID_12059_" class="st0" d="M147.6,591.9c3.3-1.1,4.1,12.1,4.1,12.1s1.9,42.3-1.7,24.3c-3.5-18-5.3-16.1-3.6,5.4
					c1.6,21.6-7.5-22-8.8-15.1c-1.4,6.8-5.8,50.8-5.8-4.2c0,0,4.1-25.6-6.4,14.5c-10.5,40.2,2.3-25.1,3.1-28.5
					c0.8-3.4-12.9,19.5-9.1,10.1s5.9-11.8,12.8-19"/>
			</g>
			<path id="XMLID_12057_" class="st0" d="M138.7,484.3c0.2-0.6,3-1.2,3-1.2"/>
			<path id="XMLID_12056_" class="st0" d="M144.9,488.4c-0.6,1.8-2.8,1.4-2.8,1.4"/>
			<path id="XMLID_12055_" class="st1" d="M145.5,589.8c13.6-0.7,0-9.9,0-9.9"/>
		</g>
		<path id="XMLID_12054_" class="st2" d="M130.1,358.9c9.1,2.4,16.7,5.1,18.7,8c5.5,8.2,12.2,98-1.5,98.5c-13.7,0.5-15.6-0.1-15.3-5
			s-6-61.4-3.8-65.6"/>
		<path class="st0" d="M38.5,564c0,0,0.1,0,0.2,0c0.5,4.1,2,8.5,4.4,13c0,0,1.3,15.3,51.4,14.5c30.7-0.5,50.1-15.5,53.2-32.5h0.1
			c0.1-0.2,0.1-0.5,0.2-0.9c0.1-1,0.1-2.1,0.2-3.1c0.8-11.2,1.3-40.7,1.3-40.7l-111,4.2C36.7,527.4,38.5,564,38.5,564z"/>
		<g>
			<path class="st2" d="M47.6,545.4c2.3-0.5,5.2-1,8.4-1.5l77.2-4c4-0.1,9.4,1.2,9.4,1.2c4.4,2.4,7.1,1.5,8.7-1.3
				c0.1-0.1,0.1-0.2,0.2-0.3c4.1-8,0.2-29.4-3-37.9c-0.2-0.5-0.4-1.2-0.6-2c-3.7-15.6-3.7-74.4-2.3-110.6c0.1-3.9,0.1-7.4-0.1-10.4
				c-1.3-26.9-28.7-27.1-46.5-27.9c-18.8-0.9-32.5,2.9-39.2,8.5c-3.5,1-8.8,3-13,6.2c-3.1,2.3-5.6,5.3-6.4,9
				c-0.1,0.4-0.1,0.8-0.2,1.3c-1.5,13.2-4.5,93.7-5.9,101c-0.3,1.4-1,5.9-1.9,11.9c-0.1,0.7-0.2,1.4-0.3,2.2
				C28.8,515.7,25.3,561.9,47.6,545.4z"/>
			<path class="st2" d="M142.5,541c4.4,2.3,7.1,1.4,8.7-1.4c0.1-0.1,0.1-0.2,0.2-0.3c4.1-7.9,0.2-29.3-3-37.8
				c-0.2-0.5-0.4-1.2-0.6-2c-3.7-15.6-3.7-74.4-2.3-110.6c0-0.9,0.1-1.7,0.1-2.6"/>
			<path class="st2" d="M144.7,372.6c-4.9-20.9-29.4-21.2-45.7-21.9c-18.8-0.9-32.5,2.9-39.2,8.5c-3.5,1-8.8,3-13,6.2
				c-3.1,2.3-5.6,5.3-6.4,9c-0.1,0.4-0.1,0.8-0.2,1.3c-1.5,13.2-4.5,93.7-5.9,101c-0.3,1.4-1,5.9-1.9,11.9c-0.1,0.7-0.2,1.4-0.3,2.2
				c-3.3,24.8-6.7,71,15.6,54.5c2.3-0.5,5.2-1,8.4-1.5l77.1-4"/>
		</g>
		<path id="XMLID_12053_" class="st0" d="M42.3,540.5c3.6-13.7-5.1-107.3-5.1-107.3"/>
		<g>
			<path id="XMLID_12052_" class="st3" d="M80.4,358.4c9.6,21.2,33.7,8.3,33.8-8c0-2.9,0.1-14.1,0.2-17.5c0.1-2.6,0.5-17.7-3-25.5
				c-11.2-25-42.7-2.7-31.3,16.8c-0.6,2.1-1,4.6-1.2,7.5c-0.2,3.2-1.3,13.2-1.1,16.6"/>
			<path id="XMLID_12051_" class="st4" d="M82.2,361.5c-0.5-0.9-1.1-2-1.6-3.1l-2.8-10c-0.3-3.5,0.9-13.4,1.1-16.6
				c0.1-3,0.6-5.5,1.2-7.6c-11.4-19.5,20.1-41.8,31.3-16.8c3.5,7.8,3.1,22.9,3,25.5c0,3.4-0.1,14.6-0.1,17.5
				c0,13.7-17.3,25.1-28.4,15.5"/>
		</g>
		<g>
			<g id="XMLID_12049_">
				<path id="XMLID_12050_" class="st0" d="M43.1,491.4c-9-1.1-3.9-13.2,2.2-8.2"/>
			</g>
			<path id="XMLID_12048_" class="st0" d="M55.4,382c1.7,32.7,4.1,72.6,2.1,85.2c-3.4,22,0,126.4,0,126.4l-16.9,1.5
				c0,0,3.2-59.2,1.1-99.4c-1-18.4-2.1-51-3.4-81.5"/>
			<path id="XMLID_12047_" class="st0" d="M46,485.4c0-1.9,2.3-2,2.3-2"/>
			<path id="XMLID_12046_" class="st0" d="M51.9,488.4c-0.2,0.6-2.9,1.5-2.9,1.5"/>
			<g id="XMLID_12033_">
				<path id="XMLID_12045_" class="st3" d="M57.4,592.8L41.2,589c0,0-21.4,34.9-14.1,35.1c3.9,0.1,5.3-0.9,5.9-1.9
					c-0.5,3.3-0.8,9.4,4.8,6.5l0.1-1.5c1.3,2.2,5.5,8.4,8.9,2l1.1-0.5c2.5,2.1,7.7,5.3,6.9-5.5c1.5,0.1,3.5,0,6.4-0.8
					C76,618.6,57.4,592.7,57.4,592.8z"/>
				<path id="XMLID_12044_" class="st0" d="M41.2,588.9c0,0-21.4,34.9-14.1,35.1c3.9,0.1,5.3-0.9,5.9-1.9c-0.5,3.3-0.8,9.4,4.8,6.5
					l0.1-1.5c1.3,2.2,5.5,8.4,8.9,2l1.1-0.5c2.5,2.1,7.7,5.3,6.9-5.5c1.5,0.1,3.5,0,6.4-0.8c14.8-3.7-3.8-29.6-3.8-29.6"/>
				<g id="XMLID_12037_">
					<g id="XMLID_12039_">
						<path id="XMLID_12043_" class="st1" d="M37.7,628.7c-7.5,3.8-4.4-8.4-4.4-8.4c-0.1,0.3,1.1,4-6.2,3.8
							C19.8,624,41.2,589,41.2,589"/>
						<path id="XMLID_12042_" class="st1" d="M47.1,628.6c-4.2,8.4-9.4-2.1-9.4-2.1"/>
						<path id="XMLID_12041_" class="st1" d="M58,616.1c-4.2-0.4-11.6,9.9,3.2,6.2s-3.8-29.6-3.8-29.6"/>
						<path id="XMLID_12040_" class="st1" d="M54.2,613.9l0.5,8c1.7,15.9-8.1,5.5-8.1,5.5"/>
					</g>
					<path id="XMLID_12038_" class="st1" d="M43.8,577.1c-10,0.7,0,10.9,0,10.9"/>
				</g>
				<path id="XMLID_12036_" class="st0" d="M47.1,620.9c0.8-2.6,0.4-7.5,0.4-7.5"/>
				<path id="XMLID_12035_" class="st0" d="M38.7,622.7c0.8,0,0.9-3.5,0.9-3.5"/>
				<path id="XMLID_12034_" class="st1" d="M35.1,612.2c0,0,2.9-4.8,3.6-7"/>
			</g>
		</g>
		<path id="XMLID_12032_" class="st2" d="M61.2,361.8c-9.1,2.4-16.8,5.1-18.7,8c-5.6,8.2-12.3,98,1.4,98.5s15.6-0.1,15.3-5
			s6-61.3,3.8-65.5"/>
		<g>
			<path class="st5" d="M68,399c0.3,6.9,4,7.1,12.1,6.1c8.1-1.1,3.7-16.3,2.8-21.1c-0.9-4.7-14.6,0.4-14.6,0.4S67.7,392.1,68,399z"
				/>
			<g>
				<path id="XMLID_12031_" class="st0" d="M68.1,387.7c-1-1.5,0.8-2.9,0.8-2.9"/>
				<path id="XMLID_12030_" class="st0" d="M84.5,386.5c-0.7-1.2-3.2-2.4-3.2-2.4"/>
				<path id="XMLID_12029_" class="st0" d="M68.2,391.8c-0.5,1.4,0.3,4,0.3,4"/>
				<path id="XMLID_12028_" class="st0" d="M78.1,405.1c1.3,0.3,3.9-0.8,3.9-0.8"/>
				<path id="XMLID_12024_" class="st0" d="M72.7,403.7c-1.7,0.6-2.6-1.4-2.6-1.4"/>
				<path id="XMLID_12023_" class="st0" d="M85,393.8c-0.5-0.5-0.9-2.4-0.9-2.4"/>
				<line id="XMLID_12022_" class="st4" x1="77" y1="383.5" x2="74.3" y2="383.6"/>
				<path id="XMLID_12021_" class="st0" d="M85.1,402.5c0.5-1.3-0.1-4-0.1-4"/>
			</g>
			<g>
				<path id="XMLID_12020_" class="st0" d="M115.5,568.2c1.2,1.7-0.4,4.6-0.4,4.6"/>
				<path id="XMLID_12019_" class="st0" d="M113.5,563.8c-0.3-1.4-2.2-3.4-2.2-3.4"/>
				<path id="XMLID_12018_" class="st0" d="M110.5,581c1.1-0.9,1.9-3.5,1.9-3.5"/>
			</g>
		</g>
		<g id="XMLID_11962_">
			<g id="XMLID_12014_">
				<path id="XMLID_12017_" class="st0" d="M135.1,289.2c0,0,0.1,5.4,6.6,7.9s11.4-17,11-35.1c-0.5-18.1-18,5.1-18,5.1"/>
				<path id="XMLID_12016_" class="st0" d="M149.1,262.7c-1.8-5-8.6,5.6-8.6,5.6"/>
				<path id="XMLID_12015_" class="st0" d="M139.7,282.1c1.7,6.5,5.4,2.6,6.8-3.2c1.5-5.8-8.6-3.2-8.6-3.2"/>
			</g>
			<path id="XMLID_12013_" class="st6" d="M80.6,194.1c8.2-2.6,1.6-8.4,1.6-8.4C75.1,182.8,72.5,196.8,80.6,194.1z"/>
			<path id="XMLID_12012_" class="st0" d="M134.9,313.2c-3.2,16.5-19.4,38.2-49,31.9s-27.8-17.7-35-79.6s45.2-65.7,45.2-65.7
				C161.9,207.9,138.1,296.7,134.9,313.2z"/>
			<path class="st7" d="M51,265.7c7.3,61.9,5.3,73.2,34.9,79.5c20.9,4.5,35.1-5.1,42.8-16.9c-7.8,4.9-18,7.3-30.6,4.6
				c-29.5-6.3-27.5-17.7-34.9-79.6c-2.4-20.5,1.7-34.6,8.3-44.4C59,217.5,47.2,233.9,51,265.7z"/>
			<path id="XMLID_12011_" class="st2" d="M53.4,232.1c0,0,18.5-8.8,38.1-16.7c15.5,3.9,32.4,5.3,32.4,4
				c-0.1-13.4-3.9-49.1-41.5-32.2c-8.8,2.7-18.3,8-24.2,17.2c-0.5,0.8-0.9,1.5-1.3,2.2l0,0c0,0-0.1,0-0.1,0.1
				c-1.8,3.2-2.7,5.8-2.9,7.9C52.1,220.7,53.4,232.1,53.4,232.1z"/>
			<path id="XMLID_12010_" class="st0" d="M80.1,273.5c12.1,4.3,21.4-2.7,21.4-2.7"/>
			<path id="XMLID_12009_" class="st0" d="M142.7,273c-3.2,1.3-18.3-1.9-18.3-1.9"/>
			<path id="XMLID_12008_" class="st0" d="M88.9,342.3c-2.6,4.8,5.9,8.3,18.8,5.7c12.9-2.5,6.7-8.3,6.7-8.3"/>
			<path id="XMLID_12007_" class="st2" d="M146.8,217.6c0,0,6.2-8.8-16.9-10.3c-23-1.4-68.6-1.3-76.2,24.7c0,0,12.2-5.5,35.8-10.6
				c23.7-5.2,43.7,3,43.7,3C143.4,221.9,146.8,217.6,146.8,217.6z"/>
			<path id="XMLID_12006_" class="st0" d="M53.7,232c0,0,9.1-23.6,64.2-21.1c55.1,2.4,15.3,13.5,15.3,13.5
				C104.6,210.1,53.7,232,53.7,232z"/>
			<g>
				<path id="XMLID_12005_" class="st0" d="M114,257.1c0.3,6.5-9.1,18.3-9.1,18.3"/>
				<g id="XMLID_12002_">
					<path id="XMLID_12004_" class="st0" d="M113.5,281.7c0.4,0.2,0.9,0.5,1.6,0.6c0.7,0.2,1.7,0.2,2.8,0c2-0.4,3-2.5,3.4-5.6"/>
					<path id="XMLID_12003_" class="st0" d="M120.3,272.2c-2-13.7-9.2-32.9-9.2-32.9"/>
				</g>
				<g id="XMLID_11996_">
					<path id="XMLID_12001_" class="st0" d="M120.5,288.7c11.1-2.3,4.2-10.4,4.2-10.4"/>
					<path id="XMLID_12000_" class="st0" d="M108.6,288.7c-10.5-4.3-3.1-10.4-3.1-10.4"/>
					<path id="XMLID_11999_" class="st0" d="M108.9,285.2c-1.5-0.4-2.9,0.1-1.7-1.8s2.7,0.3,3.8,0
						C112.1,283.1,110.5,285.6,108.9,285.2z"/>
					<path id="XMLID_11998_" class="st0" d="M120.3,284.4c1.2-0.7,2.4-1.2,2.8-0.9c1.1,0.9,0.6,2.6-1.5,2.7
						C121.6,286.2,119.5,284.9,120.3,284.4z"/>
					<path id="XMLID_11997_" class="st0" d="M111.4,274.8c0.5-0.7,2.7-0.7,2.7-0.7"/>
				</g>
				<path id="XMLID_11995_" class="st0" d="M136.6,287c-1.7-0.6-7.8-3.7-7.8-3.7"/>
				<path id="XMLID_11994_" class="st0" d="M93.3,285.1c0.7,0,7.8-3.4,7.8-3.4"/>
			</g>
			<path id="XMLID_11993_" class="st0" d="M71.5,254.3c-1.6-0.9-0.6-3-0.6-3"/>
			<path id="XMLID_11992_" class="st0" d="M77.4,274.8c-0.6-0.6-1-2.5-1-2.5"/>
			<path id="XMLID_11991_" class="st0" d="M75.8,232.3c-0.8,0,0,3.5,0,3.5"/>
			<path id="XMLID_11990_" class="st0" d="M124,224.9c-0.4-0.6,2.9-1,2.9-1"/>
			<path id="XMLID_11989_" class="st0" d="M102.6,228.8c0.2,0.7,4.1,1.3,4.1,1.3"/>
			<path id="XMLID_11988_" class="st0" d="M122.5,325.6c0.2-0.6,3-1.2,3-1.2"/>
			<path id="XMLID_11987_" class="st0" d="M105.4,328c-0.7-1.2-3.3-2.4-3.3-2.4"/>
			<path id="XMLID_11986_" class="st0" d="M128.1,264"/>
			<path id="XMLID_11985_" class="st0" d="M109.8,266.1"/>
			<line id="XMLID_11984_" class="st4" x1="80.9" y1="285.8" x2="83.6" y2="286.5"/>
			<path id="XMLID_11983_" class="st0" d="M59.7,295.8c0,0,0.3,5.4-5.9,8.4s-12.8-16-13.9-34.1c-1-18,18.4,3.6,18.4,3.6"/>
			<path id="XMLID_11982_" class="st0" d="M43.7,270.5c1.3-5.1,9,4.9,9,4.9"/>
			<path id="XMLID_11981_" class="st0" d="M54.7,289c-1.2,6.6-5.2,3.1-7.1-2.6s8.3-3.9,8.3-3.9"/>
			<g>
				<path id="XMLID_11980_" class="st8" d="M117.8,257.6c-12.9-28.8,22.8-25.4,22.8-25.4C170.6,252.3,130.7,286.4,117.8,257.6z"/>
				<path id="XMLID_11979_" class="st6" d="M134.2,250.5c-0.5-5.5,4.8-3.4,4.8-3.4C142.7,251.9,134.7,256,134.2,250.5z"/>
				<path id="XMLID_11978_" class="st8" d="M94.4,269.9c32.6-10.6,6.4-33.7,6.4-33.7C72.3,224.5,61.7,280.4,94.4,269.9z"/>
				<path id="XMLID_11977_" class="st6" d="M77.8,253.7c-0.6-5.5,4.8-3.4,4.8-3.4C86.3,255.1,78.4,259.2,77.8,253.7z"/>
				<path id="XMLID_11976_" class="st6" d="M77.8,238.8c-0.9,3,15.6,11.2,24.3,2.7s-3.4-9.9-3.4-9.9
					C80.3,230.7,78.7,235.8,77.8,238.8z"/>
				<path id="XMLID_11975_" class="st6" d="M118.7,231.2c1.2,4.4,16.5,15,25.1,4.6c8.6-10.3-10-9.3-10-9.3S117.5,226.7,118.7,231.2z
					"/>
				<g id="XMLID_11972_">
					<path id="XMLID_11974_" class="st0" d="M84.2,270.8c0.7,0.3,1.3,0.4,2.1,0.4c6.4,0.4,16.9-5.2,16.9-5.2
						c-7.1-1.9-19.2-1.1-19.2-1.1l-5.6,0.4c0,0-5.1,0.7-2.9,3.2c1,1,1.9,0.8,2.8,0.6c0.3,0,0.5-0.1,0.7-0.2
						C80.1,268.6,83.7,270.5,84.2,270.8z"/>
					<path id="XMLID_11973_" class="st0" d="M142.5,263.1c0,0,5.1,0.6,2.9,3.1c-2.3,2.4-3.1,0.2-7.2,1.4
						c-12.6,3.8-16.4-4.6-16.4-4.6c7.8-2.4,14.9-1.1,14.9-1.1L142.5,263.1z"/>
				</g>
			</g>
			<g id="XMLID_11967_">
				<path id="XMLID_11971_" class="st6" d="M136.9,312.4c10.7-7-8.5-9.5-8.5-9.5S126.2,319.3,136.9,312.4z"/>
				<path id="XMLID_11970_" class="st6" d="M118.4,300.9c1.1,3.5,14.1,11.9,21.4,3.7c7.2-8.2-8.6-7.3-8.6-7.3
					S117.3,297.4,118.4,300.9z"/>
				<path id="XMLID_11969_" class="st6" d="M90.4,313.8c0.8,2.8,14.2,4.5,15.5-5.3c1.3-9.8-6.4-7.2-6.4-7.2
					C88.3,306.3,89.6,311,90.4,313.8z"/>
				<path id="XMLID_11968_" class="st6" d="M106.4,306.7c22.2-10.8-0.3-8-0.3-8C80.5,302.1,84.2,317.5,106.4,306.7z"/>
			</g>
			<g id="XMLID_11963_">
				<path id="XMLID_11966_" class="st0" d="M107.9,312.3c6.5,11.6,18.3,0,18.3,0"/>
				<path id="XMLID_11965_" class="st0" d="M117.9,310.5c2.4-3.4,5.6,0,5.6,0"/>
				<path id="XMLID_11964_" class="st0" d="M117.9,310.5c-2.5-3.4-5.7,0-5.7,0"/>
			</g>
		</g>
		<path id="XMLID_11961_" class="st0" d="M80.9,366.6c0.7,1.3,1.5,1.9,2.4,2.2"/>
		<path id="XMLID_11960_" class="st0" d="M114,364c0.8-1,1-2.1,1-2.1"/>
		<path id="XMLID_11959_" class="st0" d="M107,371.8c0.3-0.1,0.7-0.3,0.9-0.4"/>
		<path id="XMLID_11958_" class="st2" d="M136.5,406.9c-4.5,13.5-1.7,107.4-1.7,107.4"/>
	</g>
	<g>
		<path class="st0" d="M173.7,600.5c-0.1,1.2,0.2,2.4,1.3,3.4c0.2,0.3,0.6,0.6,0.9,0.8c1.2,0.9,3.1,1.5,5.4,2
			c1.9,0.3,3.9,0.6,6.2,0.8c1.5,0.1,3,0.3,4.6,0.3c1.2,0.2,2.5,0.2,3.7,0.2c1.3-0.1,2.5-0.2,3.7-0.2c1.7-0.1,3.2-0.2,4.6-0.3
			c2.4-0.1,4.4-0.5,6.2-0.8c2.3-0.5,4.2-1.2,5.4-2c0.3-0.3,0.7-0.6,0.9-0.8c0.8-0.7,1.2-1.6,1.3-2.5c-8.9-3.7-16.3-10-18.2-20.8
			c-1-1-1.7-1.6-1.7-1.6s-0.3-0.3-0.6-0.7c0-0.1-0.1-0.2-0.2-0.3l-0.1-0.2c-0.1-0.5-0.2-1.3-0.3-2.4H196h-0.8l-15.2,1.3
			c-0.1,3.9-0.2,6.4-0.2,6.9c0,0.1,0,0.1,0,0.1s0.1,0,0.2,0c-0.8,3.4-1.9,6.2-2.9,8.5c-1,2.5-2,4.5-2.6,6.3
			C174.3,599.3,174.1,600,173.7,600.5z"/>
		<g>
			<g id="XMLID_11932_">
				<path id="XMLID_11933_" class="st0" d="M228,607.5c-2.2-4.9,3.8-4.3,3.8-4.3C236.8,606.6,230.1,612.3,228,607.5z"/>
			</g>
			<g id="XMLID_11930_">
				<path id="XMLID_11931_" class="st0" d="M224,607.3c-2.4-5.5,4.3-4.8,4.3-4.8C233.9,606.3,226.4,612.7,224,607.3z"/>
			</g>
			<g id="XMLID_11928_">
				<path id="XMLID_11929_" class="st0" d="M219,606.9c-2.8-6.3,5-5.5,5-5.5C230.6,605.8,221.9,613.2,219,606.9z"/>
			</g>
			<g id="XMLID_11926_">
				<path id="XMLID_11927_" class="st0" d="M212.9,606.5c-3.2-7.1,5.7-6.3,5.7-6.3C226.1,605.3,216.1,613.8,212.9,606.5z"/>
			</g>
			<path id="XMLID_11925_" class="st0" d="M199.5,606.2c0.7-2.9,9.4-10,14.3-3.1s-5.7,6.2-5.7,6.2S198.8,609.2,199.5,606.2z"/>
		</g>
		<g id="XMLID_11923_">
			<path id="XMLID_11924_" class="st0" d="M196.9,575.4c9,1.1,3.9,13.2-2.2,8.2"/>
		</g>
		<path class="st0" d="M127.6,583.9c0.9-3.9,27.7-33.2,54.8-62.7c-0.2,31.1-1.8,60-1.8,60l16.9-1.4c0,0-1.3-38.2-1.5-73.3
			c0-9.3,0-18.3,0.1-26.4c-2,1.8-4.6,4.4-8,8l0,0c-1.8,1.9-3.8,3.9-5.8,6c-1.4,1.5-2.8,3-4.3,4.5c-31.3,31.7-74.8,70-74.8,70
			L127.6,583.9z"/>
		<path id="XMLID_11922_" class="st0" d="M185.1,481.9c0-1.9,2.3-2,2.3-2"/>
		<path id="XMLID_11921_" class="st0" d="M193.8,495c-0.1,0.7-2.8,1.5-2.8,1.5"/>
		<g id="XMLID_11916_">
			<path id="XMLID_11920_" class="st0" d="M194.3,479.4c8.6-2.5,8.8,10.6,1.2,8.5"/>
		</g>
	</g>
	<g>
		<path class="st0" d="M123.3,601.9c-0.1,1.2,0.2,2.4,1.3,3.4c0.2,0.3,0.5,0.6,0.9,0.8c1.2,0.9,3.1,1.5,5.4,2
			c1.9,0.3,3.9,0.6,6.2,0.8c1.5,0.1,3,0.3,4.6,0.3c1.2,0.2,2.5,0.2,3.7,0.2c1.3-0.1,2.5-0.2,3.7-0.2c1.7-0.1,3.2-0.2,4.6-0.3
			c2.4-0.1,4.4-0.5,6.2-0.8c2.3-0.5,4.2-1.2,5.4-2c0.3-0.3,0.7-0.6,0.9-0.8c0.8-0.7,1.2-1.6,1.3-2.5c-8.9-3.7-16.3-10-18.2-20.8
			c-1-1-1.7-1.6-1.7-1.6s-0.3-0.3-0.6-0.7c0-0.1-0.1-0.2-0.2-0.3l-0.1-0.2c-0.1-0.5-0.2-1.3-0.3-2.4h-0.8h-0.8l-15.3,1.3
			c0,3.9-0.1,6.4-0.1,6.9c0,0.1,0,0.1,0,0.1s0,0,0.1,0c-0.8,3.4-1.9,6.2-2.9,8.5c-1,2.5-2,4.5-2.6,6.3
			C123.8,600.6,123.6,601.3,123.3,601.9z"/>
		<g>
			<g id="XMLID_11956_">
				<path id="XMLID_11957_" class="st0" d="M177.5,608.9c-2.2-4.9,3.8-4.3,3.8-4.3C186.3,607.9,179.6,613.7,177.5,608.9z"/>
			</g>
			<g id="XMLID_11954_">
				<path id="XMLID_11955_" class="st0" d="M173.5,608.7c-2.4-5.5,4.3-4.8,4.3-4.8C183.4,607.6,175.9,614,173.5,608.7z"/>
			</g>
			<g id="XMLID_11952_">
				<path id="XMLID_11953_" class="st0" d="M168.5,608.2c-2.8-6.3,5-5.5,5-5.5C180.1,607.1,171.4,614.6,168.5,608.2z"/>
			</g>
			<g id="XMLID_11950_">
				<path id="XMLID_11951_" class="st0" d="M162.4,607.9c-3.2-7.1,5.7-6.3,5.7-6.3C175.6,606.6,165.6,615.1,162.4,607.9z"/>
			</g>
			<path id="XMLID_11946_" class="st0" d="M149,607.6c0.7-2.9,9.4-10,14.3-3.1c4.9,6.9-5.7,6.2-5.7,6.2S148.3,610.6,149,607.6z"/>
		</g>
		<g id="XMLID_11944_">
			<path id="XMLID_11945_" class="st0" d="M146.4,576.7c9,1.1,3.9,13.2-2.2,8.2"/>
		</g>
		<path class="st0" d="M77.1,585.3c0.9-3.9,27.7-33.2,54.8-62.7c-0.2,31.1-1.8,60-1.8,60l16.9-1.4c0,0-1.3-38.2-1.5-73.3
			c0-9.3,0-18.3,0.1-26.4c-2,1.8-4.6,4.4-8,8l0,0c-1.8,1.9-3.8,3.9-5.8,6c-1.4,1.5-2.8,3-4.3,4.5c-31.3,31.7-74.8,70-74.8,70
			L77.1,585.3z"/>
		<path id="XMLID_11937_" class="st0" d="M134.6,483.2c0-1.9,2.3-2,2.3-2"/>
		<path id="XMLID_11936_" class="st0" d="M143.3,496.4c-0.1,0.7-2.8,1.5-2.8,1.5"/>
		<g id="XMLID_11934_">
			<path id="XMLID_11935_" class="st0" d="M143.8,480.8c8.6-2.5,8.8,10.6,1.2,8.5"/>
		</g>
	</g>
</g>
</svg>
