<?xml version="1.0" encoding="utf-8"?>
<!-- Generator: Adobe Illustrator 22.1.0, SVG Export Plug-In . SVG Version: 6.00 Build 0)  -->
<svg version="1.1" id="Layer_1" xmlns="http://www.w3.org/2000/svg" xmlns:xlink="http://www.w3.org/1999/xlink" x="0px" y="0px"
	 viewBox="0 0 347.2 675.2" style="enable-background:new 0 0 347.2 675.2;" xml:space="preserve">
<style type="text/css">
	.st0{fill:#A36B78;stroke:#584C4F;stroke-width:2;stroke-linecap:round;stroke-miterlimit:10;}
	.st1{fill:#A36B78;stroke:#584C4F;stroke-width:2;stroke-linecap:round;stroke-linejoin:round;stroke-miterlimit:10;}
	.st2{fill:#FFD767;stroke:#584C4F;stroke-width:2;stroke-miterlimit:10;}
	.st3{fill:#A36B78;}
	.st4{fill:none;stroke:#584C4F;stroke-width:2;stroke-linecap:round;stroke-miterlimit:10;}
	.st5{fill:#BEAB72;}
	.st6{fill:#584C4F;stroke:#584C4F;stroke-width:2;stroke-linecap:round;stroke-miterlimit:10;}
	.st7{opacity:0.1;fill:#231F20;stroke:#231F20;stroke-miterlimit:10;enable-background:new    ;}
	.st8{fill:#FFFFFF;stroke:#584C4F;stroke-width:2;stroke-linecap:round;stroke-miterlimit:10;}
</style>
<g id="Layer_5">
</g>
<g id="Layer_3">
</g>
<g>
	<g>
		<path class="st0" d="M75.3,644.3c-0.6,1.2-0.7,2.3-0.1,3.7c0.1,0.3,0.3,0.6,0.5,1c0.7,1.3,2.2,2.5,4.2,3.9c1.6,1,3.4,2,5.4,3.1
			c1.3,0.7,2.6,1.3,4.1,2c1.1,0.6,2.3,1.1,3.4,1.6c1.2,0.5,2.4,0.9,3.5,1.3c1.5,0.6,2.9,1,4.3,1.5c2.2,0.7,4.2,1.2,6,1.6
			c2.3,0.5,4.3,0.6,5.7,0.3c0.4,0,0.8-0.2,1.1-0.3c1.1-0.5,1.8-1.1,2.2-1.9c-6.8-6.8-11.3-15.5-8.9-26.2c-0.6-1.3-1-2.1-1-2.1
			s0-0.4-0.2-0.9c0-0.1,0-0.3-0.1-0.4v-0.2c0.1-0.6,0.3-1.3,0.6-2.4l-0.8-0.4l-0.8-0.3l-14.6-4.6c-1.6,3.5-2.6,5.8-2.8,6.3
			c0,0.1,0,0.1,0,0.1s0,0.1,0.1,0.1c-2.1,2.8-4.1,4.9-5.9,6.7c-1.9,1.9-3.6,3.4-4.8,4.8C75.9,643.2,75.5,643.8,75.3,644.3z"/>
		<path class="st0" d="M178.7,392.5c1.1,6.5-37.4,107.2-50.9,145.2s-39.1,91.4-39.1,91.4l16.2,5.1c0,0,34.7-92.2,47.3-114.9
			c1.2-0.7,3.5-5,7.4-15.2l0,0c1.6-4,3.4-8.6,5.3-13.5c16.8-41.4,42.3-93.4,42.3-93.4"/>
		<g>
			<g id="XMLID_8268_">
				<path id="XMLID_8269_" class="st0" d="M122.3,671.3c-0.2-5.4,5.2-2.5,5.2-2.5C130.9,673.9,122.5,676.6,122.3,671.3z"/>
			</g>
			<g id="XMLID_8266_">
				<path id="XMLID_8267_" class="st0" d="M118.7,669.6c-0.1-5.9,5.8-2.7,5.8-2.7C128.3,672.5,119,675.5,118.7,669.6z"/>
			</g>
			<g id="XMLID_8264_">
				<path id="XMLID_8265_" class="st0" d="M114.4,667.4c-0.2-6.9,6.7-3.2,6.7-3.2C125.4,670.7,114.5,674.3,114.4,667.4z"/>
			</g>
			<g id="XMLID_8262_">
				<path id="XMLID_8263_" class="st0" d="M108.8,664.7c-0.2-7.9,7.7-3.7,7.7-3.7C121.5,668.6,109,672.6,108.8,664.7z"/>
			</g>
			<path id="XMLID_8261_" class="st0" d="M96.5,659.3c1.8-2.5,12.5-5.6,14.4,2.6s-7.6,3.5-7.6,3.5S94.8,661.8,96.5,659.3z"/>
		</g>
		<path id="XMLID_8260_" class="st0" d="M143.4,508.4c0.7-1.7,2.9-1,2.9-1"/>
		<path id="XMLID_8259_" class="st0" d="M146.5,523.9c-0.4,0.5-3.2,0.3-3.2,0.3"/>
		<g id="XMLID_8257_">
			<path id="XMLID_8258_" class="st0" d="M106,629.8c7.9,4.4-1.5,13.7-5.2,6.7"/>
		</g>
		<g id="XMLID_8255_">
			<path id="XMLID_8256_" class="st0" d="M151.3,513.4c9,1,4.1,13.1-2.1,8.3"/>
		</g>
	</g>
	<g>
		<g>
			<g id="XMLID_8253_">
				<path id="XMLID_8254_" class="st0" d="M208.1,329c8.6-2.5,8.8,10.6,1.2,8.5"/>
			</g>
			<path id="XMLID_8252_" class="st0" d="M197.9,205.7c-1.4,34-5.6,92.2-3.2,107.9c3.4,22,0,126.4,0,126.4l16.9,1.5
				c0,0-3.2-59.2-1.1-99.4c1.1-22.2,2.6-65,4.2-99.8"/>
			<g id="XMLID_8250_">
				<path id="XMLID_8251_" class="st0" d="M210.1,438.2c3.3-1.1,4.1,12.1,4.1,12.1s1.9,42.3-1.7,24.3c-3.5-18-5.3-16.1-3.6,5.4
					c1.6,21.6-7.4-22-8.8-15.1s-5.8,50.9-5.8-4.1c0,0,4.1-25.6-6.4,14.5s2.3-25.1,3.1-28.5s-12.9,19.5-9.1,10.1s5.9-11.8,12.8-19"/>
			</g>
			<path id="XMLID_8249_" class="st0" d="M201.2,330.7c0.2-0.6,3-1.2,3-1.2"/>
			<path id="XMLID_8248_" class="st0" d="M207.4,334.8c-0.6,1.8-2.8,1.4-2.8,1.4"/>
			<path id="XMLID_8247_" class="st1" d="M208,436.2c13.6-0.8,0-9.9,0-9.9"/>
		</g>
		<path id="XMLID_8246_" class="st2" d="M192.6,205.3c9.1,2.5,16.7,5.2,18.7,8.1c5.5,8.1,12.2,97.9-1.5,98.4s-15.6-0.1-15.3-5
			s-6-61.4-3.8-65.6"/>
		<path class="st0" d="M101.1,410.4c0,0,0.1,0,0.2,0c0.5,4.1,2,8.5,4.4,13c0,0,1.3,15.3,51.4,14.5c30.7-0.5,50.1-15.5,53.2-32.5h0.1
			c0.1-0.2,0.1-0.5,0.2-0.9c0.1-1,0.1-2.1,0.2-3.1c0.8-11.1,1.3-40.6,1.3-40.6L101,364.9C99.2,373.8,101.1,410.4,101.1,410.4z"/>
		<g>
			<path class="st2" d="M110.4,391.8c2.3-0.5,5.2-1,8.4-1.5l77.2-4c4-0.1,9.4,1.2,9.4,1.2c4.3,2.3,7,1.4,8.6-1.4
				c0.1-0.1,0.1-0.2,0.2-0.3c4.1-8,0.2-29.4-3-37.9c-0.2-0.5-0.4-1.2-0.6-2c-3.8-15.6-3.8-74.4-2.4-110.6c0.1-3.9,0.1-7.3-0.1-10.4
				c-1.4-26.8-28.8-27.1-46.6-27.9c-18.8-0.8-32.5,3-39.2,8.6c-3.5,1-8.8,3-13,6.2c-3.1,2.3-5.6,5.3-6.4,9c-0.1,0.4-0.1,0.9-0.2,1.3
				c-1.5,13.2-4.5,93.7-5.9,101c-0.3,1.4-1,5.9-1.9,11.9c-0.1,0.7-0.2,1.4-0.3,2.2C91.3,362.1,87.8,408.3,110.4,391.8z"/>
			<path class="st2" d="M204.9,387.5c4.3,2.3,7.1,1.4,8.7-1.4c0.1-0.1,0.1-0.2,0.2-0.3c4.2-8,0.2-29.4-2.9-37.9
				c-0.2-0.5-0.4-1.2-0.6-2c-3.7-15.6-3.7-74.4-2.3-110.6c0-0.9,0.1-1.7,0.1-2.6"/>
			<path class="st2" d="M207.2,218.9c-5-20.9-29.4-21.2-45.8-21.9c-18.8-0.8-32.5,3-39.2,8.6c-3.5,1-8.8,3-13,6.2
				c-3.1,2.3-5.6,5.3-6.4,9c-0.1,0.4-0.1,0.9-0.2,1.3c-1.5,13.2-4.5,93.7-5.9,101c-0.3,1.4-1,5.9-1.9,11.9c-0.1,0.7-0.2,1.4-0.3,2.2
				c-3.3,24.8-6.7,71,15.6,54.5c2.3-0.5,5.2-1,8.4-1.5l77.2-4"/>
		</g>
		<path id="XMLID_8245_" class="st0" d="M104.8,386.9c3.6-13.7-5.1-107.3-5.1-107.3"/>
		<g>
			<path id="XMLID_8244_" class="st3" d="M143,204.7c9.6,21.2,33.7,8.3,33.8-8c0-2.9,0-14.1,0.1-17.5c0.1-2.6,0.5-17.7-3-25.5
				c-11.2-25-42.7-2.6-31.3,16.8c-0.6,2.2-1,4.7-1.2,7.6c-0.2,3.2-1.3,13.2-1.1,16.6"/>
			<path id="XMLID_8243_" class="st4" d="M144.8,208c-0.5-0.9-1.1-2-1.6-3.1l-2.8-10.1c-0.3-3.5,0.9-13.4,1.1-16.6
				c0.1-3,0.6-5.5,1.2-7.6c-11.4-19.5,20.1-41.8,31.3-16.8c3.5,7.8,3.1,22.9,3,25.5c-0.1,3.4-0.2,14.6-0.2,17.5
				c0,13.7-17.3,25.1-28.4,15.5"/>
		</g>
		<g>
			<g id="XMLID_8241_">
				<path id="XMLID_8242_" class="st0" d="M105.6,337.8c-9-1.1-3.9-13.2,2.2-8.2"/>
			</g>
			<path id="XMLID_8240_" class="st0" d="M117.9,228.4c1.7,32.7,4.1,72.6,2.1,85.2c-3.4,22,0,126.4,0,126.4l-16.9,1.5
				c0,0,3.2-59.2,1.1-99.4c-1-18.4-2.1-51-3.4-81.5"/>
			<path id="XMLID_8239_" class="st0" d="M108.5,331.8c0-1.9,2.3-2,2.3-2"/>
			<path id="XMLID_8238_" class="st0" d="M114.4,334.8c-0.2,0.6-2.9,1.5-2.9,1.5"/>
			<g id="XMLID_8225_">
				<path id="XMLID_8237_" class="st3" d="M119.8,439.2l-16.2-3.8c0,0-21.3,35-14,35.1c3.9,0.1,5.3-0.9,5.9-1.9
					c-0.5,3.3-0.8,9.4,4.8,6.5l0.1-1.5c1.3,2.1,5.5,8.4,8.9,2l1.1-0.5c2.5,2.1,7.7,5.3,6.9-5.5c1.5,0.1,3.5,0,6.4-0.8
					C138.5,465,119.9,439.1,119.8,439.2z"/>
				<path id="XMLID_8236_" class="st0" d="M103.6,435.3c0,0-21.3,35-14,35.1c3.9,0.1,5.3-0.9,5.9-1.9c-0.5,3.3-0.8,9.4,4.8,6.5
					l0.1-1.5c1.3,2.1,5.5,8.4,8.9,2l1.1-0.5c2.5,2.1,7.7,5.3,6.9-5.5c1.5,0.1,3.5,0,6.4-0.8c14.8-3.7-3.8-29.6-3.8-29.6"/>
				<g id="XMLID_8229_">
					<g id="XMLID_8231_">
						<path id="XMLID_8235_" class="st1" d="M100.3,475.1c-7.5,3.8-4.4-8.4-4.4-8.4c-0.2,0.3,1.1,3.9-6.2,3.8
							c-7.4-0.1,14-35.1,14-35.1"/>
						<path id="XMLID_8234_" class="st1" d="M109.6,475c-4.2,8.4-9.4-2.1-9.4-2.1"/>
						<path id="XMLID_8233_" class="st1" d="M120.5,462.5c-4.2-0.4-11.6,9.9,3.2,6.2s-3.8-29.6-3.8-29.6"/>
						<path id="XMLID_8232_" class="st1" d="M116.7,460.3l0.5,8c1.7,15.9-8.1,5.5-8.1,5.5"/>
					</g>
					<path id="XMLID_8230_" class="st1" d="M106.3,423.5c-10,0.8,0,10.9,0,10.9"/>
				</g>
				<path id="XMLID_8228_" class="st0" d="M109.6,467.3c0.8-2.6,0.4-7.5,0.4-7.5"/>
				<path id="XMLID_8227_" class="st0" d="M101.2,469.1c0.8,0,0.9-3.5,0.9-3.5"/>
				<path id="XMLID_8226_" class="st1" d="M97.6,458.6c0,0,2.9-4.8,3.6-7"/>
			</g>
		</g>
		<path id="XMLID_8224_" class="st2" d="M123.7,208.2c-9.1,2.5-16.8,5.2-18.7,8.1c-5.6,8.1-12.3,97.9,1.4,98.4s15.6-0.1,15.3-5
			c-0.3-4.9,6-61.3,3.8-65.5"/>
		<g>
			<path class="st5" d="M130.5,245.4c0.3,6.9,4,7.2,12.1,6.1c8.2-1,3.7-16.3,2.8-21.1c-0.9-4.7-14.6,0.4-14.6,0.4
				S130.2,238.5,130.5,245.4z"/>
			<g>
				<path id="XMLID_8223_" class="st0" d="M130.6,234.1c-1-1.5,0.8-2.9,0.8-2.9"/>
				<path id="XMLID_8222_" class="st0" d="M147,232.9c-0.7-1.2-3.2-2.4-3.2-2.4"/>
				<path id="XMLID_8221_" class="st0" d="M130.7,238.2c-0.5,1.4,0.3,4,0.3,4"/>
				<path id="XMLID_8213_" class="st0" d="M140.6,251.5c1.3,0.3,3.9-0.8,3.9-0.8"/>
				<path id="XMLID_8209_" class="st0" d="M135.2,250.1c-1.7,0.7-2.6-1.4-2.6-1.4"/>
				<path id="XMLID_8208_" class="st0" d="M147.5,240.2c-0.5-0.5-0.9-2.4-0.9-2.4"/>
				<line id="XMLID_8207_" class="st4" x1="139.5" y1="229.9" x2="136.8" y2="230"/>
				<path id="XMLID_8206_" class="st0" d="M147.6,248.9c0.5-1.3-0.1-4-0.1-4"/>
			</g>
			<g>
				<path id="XMLID_8205_" class="st0" d="M178,414.6c1.3,1.7-0.4,4.6-0.4,4.6"/>
				<path id="XMLID_8204_" class="st0" d="M176,410.2c-0.3-1.4-2.2-3.4-2.2-3.4"/>
				<path id="XMLID_8203_" class="st0" d="M173.1,427.4c1-0.9,1.8-3.5,1.8-3.5"/>
			</g>
		</g>
		<g id="XMLID_8140_">
			<g id="XMLID_8199_">
				<path id="XMLID_8202_" class="st0" d="M197.6,135.7c0,0,0.1,5.4,6.6,7.8c6.4,2.5,11.3-17,10.9-35.1s-17.9,5.1-17.9,5.1"/>
				<path id="XMLID_8201_" class="st0" d="M211.6,109.1c-1.8-5-8.6,5.6-8.6,5.6"/>
				<path id="XMLID_8200_" class="st0" d="M202.2,128.5c1.7,6.5,5.4,2.6,6.8-3.2c1.5-5.9-8.6-3.2-8.6-3.2"/>
			</g>
			<path id="XMLID_8198_" class="st6" d="M143.1,40.5c8.2-2.6,1.6-8.4,1.6-8.4C137.6,29.2,135,43.2,143.1,40.5z"/>
			<path id="XMLID_8197_" class="st0" d="M197.5,159.6c-3.3,16.5-19.5,38.2-49.1,31.9s-27.8-17.7-35-79.6s45.2-65.7,45.2-65.7
				C224.4,54.3,200.8,143.1,197.5,159.6z"/>
			<path class="st7" d="M113.5,112c7.3,62,5.3,73.3,34.9,79.6c21,4.5,35.2-5.1,42.9-16.9c-7.8,4.9-18,7.3-30.7,4.6
				c-29.5-6.3-27.5-17.7-34.9-79.6c-2.4-20.5,1.7-34.6,8.3-44.4C121.5,63.9,109.7,80.3,113.5,112z"/>
			<path id="XMLID_8196_" class="st2" d="M115.9,78.5c0,0,18.5-8.8,38.1-16.7c15.5,3.8,32.4,5.3,32.4,4
				c-0.1-13.4-3.9-49.1-41.5-32.2c-8.8,2.7-18.3,8-24.2,17.2c-0.5,0.8-0.9,1.5-1.3,2.2l0,0h-0.1c-1.8,3.3-2.7,6-2.9,8
				C114.6,67.1,115.9,78.5,115.9,78.5z"/>
			<path id="XMLID_8195_" class="st0" d="M142.5,119.9c12.1,4.3,21.5-2.7,21.5-2.7"/>
			<path id="XMLID_8194_" class="st0" d="M205.2,119.3c-3.2,1.4-18.3-1.8-18.3-1.8"/>
			<path id="XMLID_8193_" class="st0" d="M151.4,188.7c-2.5,4.8,5.9,8.2,18.8,5.7s6.7-8.3,6.7-8.3"/>
			<path id="XMLID_8192_" class="st2" d="M209.3,64.1c0,0,6.2-8.8-16.9-10.3c-23-1.5-68.6-1.3-76.2,24.7c0,0,12.4-5.5,35.9-10.7
				s43.6,3,43.6,3C205.9,68.3,209.3,64.1,209.3,64.1z"/>
			<path id="XMLID_8191_" class="st0" d="M116.2,78.5c0,0,9.1-23.7,64.2-21.2s15.3,13.5,15.3,13.5C167.1,56.5,116.2,78.5,116.2,78.5
				z"/>
			<g>
				<path id="XMLID_8190_" class="st0" d="M176.6,103.5c0.2,6.5-9.2,18.3-9.2,18.3"/>
				<g id="XMLID_8187_">
					<path id="XMLID_8189_" class="st0" d="M176,128c0.5,0.2,1,0.5,1.6,0.6c0.8,0.3,1.8,0.3,2.9,0.1c2-0.4,3-2.5,3.3-5.6"/>
					<path id="XMLID_8188_" class="st0" d="M182.8,118.5c-2-13.5-9.2-32.8-9.2-32.8"/>
				</g>
				<g id="XMLID_8181_">
					<path id="XMLID_8186_" class="st0" d="M183,135.1c11.1-2.3,4.2-10.4,4.2-10.4"/>
					<path id="XMLID_8185_" class="st0" d="M171.1,135.1c-10.5-4.3-3.1-10.4-3.1-10.4"/>
					<path id="XMLID_8184_" class="st0" d="M171.4,131.6c-1.6-0.4-2.9,0.1-1.7-1.8c1.2-1.9,2.7,0.3,3.8,0S173,132,171.4,131.6z"/>
					<path id="XMLID_8183_" class="st0" d="M182.8,130.8c1.2-0.7,2.4-1.2,2.8-0.9c1.1,0.9,0.6,2.6-1.5,2.7
						C184.1,132.6,182,131.3,182.8,130.8z"/>
					<path id="XMLID_8182_" class="st0" d="M173.9,121.2c0.5-0.8,2.7-0.7,2.7-0.7"/>
				</g>
				<path id="XMLID_8180_" class="st0" d="M199.2,133.4c-1.8-0.6-7.9-3.7-7.9-3.7"/>
				<path id="XMLID_8179_" class="st0" d="M155.8,131.5c0.7,0,7.8-3.4,7.8-3.4"/>
			</g>
			<path id="XMLID_8178_" class="st0" d="M134,100.7c-1.6-0.9-0.6-3-0.6-3"/>
			<path id="XMLID_8177_" class="st0" d="M139.9,121.2c-0.6-0.7-1-2.5-1-2.5"/>
			<path id="XMLID_8176_" class="st0" d="M138.3,78.7c-0.8,0,0,3.5,0,3.5"/>
			<path id="XMLID_8175_" class="st0" d="M186.5,71.3c-0.4-0.6,2.9-1,2.9-1"/>
			<path id="XMLID_8174_" class="st0" d="M165.1,75.2c0.3,0.7,4.1,1.3,4.1,1.3"/>
			<path id="XMLID_8173_" class="st0" d="M185,172c0.2-0.6,3-1.2,3-1.2"/>
			<path id="XMLID_8172_" class="st0" d="M167.9,174.4c-0.7-1.2-3.3-2.4-3.3-2.4"/>
			<path id="XMLID_8171_" class="st0" d="M190.6,110.4"/>
			<path id="XMLID_8170_" class="st0" d="M172.3,112.5"/>
			<line id="XMLID_8169_" class="st4" x1="143.4" y1="132.2" x2="146.1" y2="132.9"/>
			<path id="XMLID_8168_" class="st0" d="M122.2,142.2c0,0,0.3,5.4-5.9,8.4s-12.8-16.1-13.9-34.1c-1-18,18.4,3.6,18.4,3.6"/>
			<path id="XMLID_8167_" class="st0" d="M106.2,117c1.3-5.2,9,4.8,9,4.8"/>
			<path id="XMLID_8166_" class="st0" d="M117.2,135.5c-1.2,6.5-5.2,3-7.1-2.7s8.3-3.9,8.3-3.9"/>
			<g>
				<path id="XMLID_8165_" class="st8" d="M180.3,104c-13-28.8,22.8-25.4,22.8-25.4C233.1,98.7,193.3,132.8,180.3,104z"/>
				<path id="XMLID_8164_" class="st6" d="M196.7,96.9c-0.6-5.6,4.8-3.4,4.8-3.4C205.2,98.3,197.3,102.4,196.7,96.9z"/>
				<path id="XMLID_8163_" class="st8" d="M156.9,116.3c32.6-10.6,6.4-33.7,6.4-33.7C134.8,70.9,124.3,126.9,156.9,116.3z"/>
				<path id="XMLID_8162_" class="st6" d="M140.3,100.1c-0.6-5.6,4.8-3.4,4.8-3.4C148.8,101.5,140.9,105.7,140.3,100.1z"/>
				<path id="XMLID_8161_" class="st6" d="M140.3,85.2c-0.9,3,15.6,11.2,24.3,2.7s-3.4-9.9-3.4-9.9
					C142.8,77.1,141.2,82.2,140.3,85.2z"/>
				<path id="XMLID_8160_" class="st6" d="M181.2,77.5c1.2,4.5,16.5,15,25.1,4.7s-10-9.3-10-9.3S180,73,181.2,77.5z"/>
				<g id="XMLID_8157_">
					<path id="XMLID_8159_" class="st0" d="M146.7,117.1c0.7,0.2,1.3,0.3,2.1,0.4c6.4,0.4,16.9-5.2,16.9-5.2
						c-7-1.9-19.1-1.1-19.1-1.1l-5.7,0.4c0,0-5.1,0.8-2.9,3.2c1,1,1.9,0.9,2.8,0.7c0.3,0,0.5-0.1,0.7-0.2
						C142.6,115,146.2,116.9,146.7,117.1z"/>
					<path id="XMLID_8158_" class="st0" d="M205,109.5c0,0,5.1,0.8,2.9,3.2c-2.3,2.4-3.1,0.1-7.2,1.3c-12.5,3.8-16.4-4.6-16.4-4.6
						c7.8-2.4,14.9-1.1,14.9-1.1L205,109.5z"/>
				</g>
			</g>
			<g id="XMLID_8145_">
				<path id="XMLID_8156_" class="st6" d="M199.4,158.8c10.7-7-8.5-9.5-8.5-9.5S188.7,165.7,199.4,158.8z"/>
				<path id="XMLID_8148_" class="st6" d="M180.9,147.3c1,3.5,14,11.9,21.4,3.7c7.2-8.2-8.6-7.3-8.6-7.3S179.9,143.8,180.9,147.3z"
					/>
				<path id="XMLID_8147_" class="st6" d="M152.9,160.2c0.8,2.8,14.2,4.5,15.5-5.3s-6.4-7.2-6.4-7.2
					C150.8,152.7,152.1,157.4,152.9,160.2z"/>
				<path id="XMLID_8146_" class="st6" d="M168.9,153.1c22.2-10.8-0.3-8-0.3-8C143,148.5,146.7,163.9,168.9,153.1z"/>
			</g>
			<g id="XMLID_8141_">
				<path id="XMLID_8144_" class="st0" d="M170.4,158.7c6.5,11.6,18.3,0,18.3,0"/>
				<path id="XMLID_8143_" class="st0" d="M180.3,156.9c2.5-3.4,5.7,0,5.7,0"/>
				<path id="XMLID_8142_" class="st0" d="M180.3,156.9c-2.4-3.4-5.6,0-5.6,0"/>
			</g>
		</g>
		<path id="XMLID_8139_" class="st0" d="M143.4,213c0.7,1.3,1.5,1.9,2.4,2.2"/>
		<path id="XMLID_8138_" class="st0" d="M176.5,210.4c0.8-1,1-2.1,1-2.1"/>
		<path id="XMLID_8137_" class="st0" d="M169.5,218.2c0.3-0.1,0.7-0.3,0.9-0.4"/>
		<path id="XMLID_8136_" class="st2" d="M199,253.3c-4.5,13.5-1.7,107.4-1.7,107.4"/>
	</g>
	<g>
		<path class="st0" d="M212.7,654.9c0.2,1.3,0.8,2.3,2,3.1c0.3,0.2,0.6,0.4,1,0.6c1.3,0.7,3.3,0.9,5.7,0.9c1.8,0,3.9-0.1,6.2-0.4
			c1.4-0.1,2.9-0.3,4.5-0.6c1.2-0.2,2.5-0.4,3.7-0.6c1.2-0.3,2.4-0.6,3.6-0.9c1.5-0.4,3-0.8,4.4-1.2c2.3-0.6,4.2-1.3,5.9-2
			c2.2-0.9,3.9-1.9,4.9-3c0.3-0.3,0.5-0.6,0.7-0.9c0.7-1,0.9-1.9,0.8-2.8c-9.4-1.9-17.9-6.6-21.9-16.8c-1.2-0.7-2-1.2-2-1.2
			s-0.3-0.3-0.7-0.6c-0.1,0-0.2-0.1-0.3-0.2c0-0.1-0.1-0.2-0.1-0.2c-0.2-0.5-0.5-1.2-0.8-2.3l-0.8,0.1l-0.8,0.2l-14.7,4.3
			c0.7,3.8,1.1,6.3,1.2,6.8c0,0.1,0,0.1,0,0.1s0,0,0.1,0c-0.2,3.5-0.7,6.4-1.2,8.9c-0.5,2.7-1.1,4.9-1.3,6.7
			C212.7,653.7,212.7,654.4,212.7,654.9z"/>
		<path class="st0" d="M215.4,634.6l16.3-4.7c0,0-9.8-42.1-17.1-78.1c-2.8-14.2-5.3-27.5-6.6-36.8c-0.2-0.4-0.4-0.7-0.6-1.1
			c0.2-1.4-2.2-5.7-8.5-14.6l0,0c-2.5-3.6-5.3-7.6-8.3-11.9c-2.8-4.2-5.7-8.6-8.6-13c-22.6-34.7-45.5-74.1-45.5-74.1l-19.8,21.1
			c5,2.3,48.6,62.9,77.1,102.1c1.3,5.1,2.4,9.7,3.4,13.6C207.1,576.2,215.5,634.8,215.4,634.6z"/>
		<g>
			<g id="XMLID_8134_">
				<path id="XMLID_8135_" class="st0" d="M267,651.3c-3.2-4.4,2.9-5,2.9-5C275.5,648.7,270,655.6,267,651.3z"/>
			</g>
			<g id="XMLID_8132_">
				<path id="XMLID_8133_" class="st0" d="M263,651.8c-3.4-4.8,3.3-5.5,3.3-5.5C272.6,648.9,266.5,656.7,263,651.8z"/>
			</g>
			<g id="XMLID_8130_">
				<path id="XMLID_8131_" class="st0" d="M258.1,652.4c-4-5.6,3.8-6.4,3.8-6.4C269.2,649.1,262.1,658.1,258.1,652.4z"/>
			</g>
			<g id="XMLID_8128_">
				<path id="XMLID_8129_" class="st0" d="M252,653.3c-4.5-6.4,4.4-7.3,4.4-7.3C264.7,649.5,256.6,659.8,252,653.3z"/>
			</g>
			<path id="XMLID_8127_" class="st0" d="M238.9,655.5c0.1-3,7.3-11.6,13.4-5.8c6.1,5.8-4.4,7.2-4.4,7.2S238.7,658.7,238.9,655.5z"
				/>
		</g>
		<path id="XMLID_8126_" class="st0" d="M193.9,504.1c-0.3-1.8,1.9-2.4,1.9-2.4"/>
		<path id="XMLID_8125_" class="st0" d="M205.1,515.3c0,0.6-2.5,2-2.5,2"/>
		<g id="XMLID_8123_">
			<path id="XMLID_8124_" class="st0" d="M230.3,625.8c9-0.6,6.4,12.2-0.6,8.5"/>
		</g>
		<g id="XMLID_8121_">
			<path id="XMLID_8122_" class="st0" d="M203.4,503.8c8-4.1,10.7,8.7,2.8,8.1"/>
		</g>
	</g>
</g>
</svg>
