<?xml version="1.0" encoding="utf-8"?>
<!-- Generator: Adobe Illustrator 22.1.0, SVG Export Plug-In . SVG Version: 6.00 Build 0)  -->
<svg version="1.1" id="Layer_1" xmlns="http://www.w3.org/2000/svg" xmlns:xlink="http://www.w3.org/1999/xlink" x="0px" y="0px"
	 viewBox="0 0 337.3 180.1" style="enable-background:new 0 0 337.3 180.1;" xml:space="preserve">
<style type="text/css">
	.st0{fill:#FDF5EA;stroke:#5B5B4B;stroke-linecap:round;stroke-miterlimit:10;}
</style>
<g id="Layer_5">
</g>
<g id="Layer_3">
</g>
<path class="st0" d="M4.4,174.1c0,0-8.9-0.8,4.5-0.8s223.2,0.2,250,0.2s75.9-0.5,75.9,0s0,5,0,5s4.5,1,0,1s-325.9,0-325.9,0
	s-4.5,0-4.5-0.5S4.4,174.4,4.4,174.1z"/>
<path class="st0" d="M4.4,162.4c0,0-8.9-1.5,4.5-1.5s223.2,0.5,250,0.5s75.9-1,75.9,0s0,10.1,0,10.1s4.5,2,0,2s-325.9,0-325.9,0
	s-4.5,0-4.5-1C4.4,171.5,4.4,162.9,4.4,162.4z"/>
<path class="st0" d="M165.9,71c0,0-0.6,20-0.6,35.5c0,1.8,0,3.5,0,5l0,0c0.1,3.8,0,5.5-0.2,5.9c-0.5,8.9,0,43.1,0,43.1l-2.9,0.5
	c0,0,0.5-20.5,0.2-34.5s-0.9-51.3-1.5-53.3"/>
<path class="st0" d="M191.9,138.5c0,0-0.6,5-0.6,8.9c0,0.5,0,0.9,0,1.3l0,0c0.1,0.9,0,1.4-0.2,1.5c-0.5,2.2,0,10.8,0,10.8l-2.9,0.1
	c0,0,0.5-5.1,0.2-8.6s-0.9-12.8-1.5-13.3"/>
<g>
	<path class="st0" d="M173.5,70.5c-0.1-1.4-0.8-3.1-1.7-4.5c-0.8-1.2-1.9-1.4-2.9-1.1c-0.5-0.5-1.5-1-3.6-1.4
		c-1.2-0.2-2-0.1-2.5,0.3c-0.7-1.9-2.2-4.9-3.9-0.3c-4.1-0.1-6.3,5.5-5.8,9.8c0.3,3,4.3,3.8,6.9,4c-1.4,2.7,1.9,3.2,3.9,3.2
		c0.4,0.9,1.2,1.5,2.4,1.3c0.8-0.1,1.3-0.5,1.6-1c0.9,1.1,2.2,1.5,3.7-0.3C174.4,76.9,177.9,71.8,173.5,70.5z"/>
	<g>
		<path class="st0" d="M162.3,77.2c0,0-8.8,0.5-9.2-4s2-10.5,6.5-9.8"/>
		<path class="st0" d="M163.1,65.1c0,0-2.2-9-4.8-0.2"/>
		<path class="st0" d="M162.3,69.7c0,0-2.8-7.2,3-6.2c5.8,1,3.5,3.2,3.5,3.2"/>
		<path class="st0" d="M166,66.5c0,0,3.8-3.5,5.8-0.5s2.8,7.2-0.2,6.8"/>
		<path class="st0" d="M165.1,80.4c0,0-8.5,0.8-4.5-4.2"/>
		<path class="st0" d="M163.3,77.2c0,0-0.2,5,3,4.5s1.5-5,1.5-5"/>
		<path class="st0" d="M166,77.2c0,0,2.2,7.2,5.5,3.2s7.2-10,0-10.2"/>
	</g>
</g>
<g>
	<path class="st0" d="M207.4,143.1c-0.1-1.4-0.6-2.1-1.2-2.4c0.5-1.1,0.5-2.4-1.1-3.3c-0.6-0.4-1.2-0.7-1.6-0.9
		c0.3-0.7,0.6-1.7,0.8-3.3c0.1-0.9,0.1-1.5-0.1-2h0.1c0,0,0-2-2.5-2.2h-0.1c-0.9-2.1-3.2-2.3-4.9-2.1c0.1-2-2-2.1-3.3-2
		c-0.1-0.9-0.5-1.8-1.9-1.6c-0.8,0.1-1.3,0.4-1.6,0.7c-0.9-0.6-2.2-0.8-4.2-0.2c-0.5-0.3-1.5-0.6-3.4-0.6c-3.1,0-3.4,2.5-3.2,4.1
		c-1.5,0-2.9,0.7-2,3.7c-0.4,0.5-0.6,1.1-0.3,1.9c-2.2,0.8-1.7,2-1,2.9c-1.3,1-1.2,2.1-0.9,3c-1.3,0.2-2.4,1-1.1,3
		c0,0,0.4,0.9,1.2,1.7c-0.6,1.2-1,3,0.1,4.2c-0.6,1.9-1,4.4,1.7,4.9c1.1,0.2,2,0.2,2.7,0.1c0.6,0.5,1.6,0.8,3,0.9
		c1.3,0.1,2.2-0.3,2.7-0.8c0.4,0.7,1.2,1.3,2.8,1.1c1.4-0.2,2.2-0.8,2.7-1.3c0.9,0.8,2.3,1.4,4.6,0.5c2.3,0.9,5.7,1.6,6.7-1.2
		c4.2-1.2,4.7-4,4.6-5.7C207.3,145.4,207.5,144.6,207.4,143.1z"/>
	<g>
		<path class="st0" d="M175.9,139.9c0,0-3.2-3,1.5-5"/>
		<path class="st0" d="M179.4,128.4c0,0-1.5-5.2,3-5.2s4,1.5,4,1.5"/>
		<path class="st0" d="M181.6,127.6c0,0-6.5-2.2-4.2,3.8"/>
		<path class="st0" d="M191.6,126.4c0,0-0.8-5.2-7.5-2"/>
		<path class="st0" d="M184.9,150.9c0,0,0,3.2,3.2,2.8s3.5-2.8,3.5-2.8"/>
		<path class="st0" d="M189.6,150.1c0,0,1.2,5.8,7.8,1.8"/>
		<path class="st0" d="M175.9,141.9c0,0-3.2,4.5,0.2,6.2"/>
		<path class="st0" d="M194.9,127.1c0,0,7.5-2.5,7.2,4.2"/>
		<path class="st0" d="M204.4,143.1c0,0,4.2-3.8,0.8-5.8s-3-2-3-2"/>
		<path class="st0" d="M199.9,131.1c0,0,5.2-3.5,4.5,2s-2.2,4.2-2.2,4.2"/>
		<path class="st0" d="M206.6,144.6c0,0,2,5.8-5.5,7.2"/>
		<path class="st0" d="M179.9,129.4c0,0-4.8,1.2-2.5,4.2"/>
	</g>
</g>
<path class="st0" d="M145.2,72.2c0,0-0.6,20-0.6,35.5c0,1.8,0,3.5,0,5l0,0c0.1,3.8,0,5.5-0.2,5.9c-0.5,8.9,0,43.1,0,43.1l-2.9,0.5
	c0,0,0.5-20.5,0.2-34.5s-0.9-51.3-1.5-53.3"/>
<g>
	<path class="st0" d="M160.6,77.9c-0.1-1.4-0.6-2.1-1.2-2.4c0.5-1.1,0.5-2.4-1.1-3.3c-0.6-0.4-1.2-0.7-1.6-0.9
		c0.3-0.7,0.6-1.7,0.8-3.3c0.1-0.9,0.1-1.5-0.1-2h0.1c0,0,0-2-2.5-2.2h-0.1c-0.9-2.1-3.2-2.3-4.9-2.1c0.1-2-2-2.1-3.3-2
		c-0.1-0.9-0.5-1.8-1.9-1.6c-0.8,0.1-1.3,0.4-1.6,0.7c-0.9-0.6-2.2-0.8-4.2-0.2c-0.5-0.3-1.5-0.6-3.4-0.6c-3.1,0-3.4,2.5-3.2,4.1
		c-1.5,0-2.9,0.7-2,3.7c-0.4,0.5-0.6,1.1-0.3,1.9c-2.2,0.8-1.7,2-1,2.9c-1.3,1-1.2,2.1-0.9,3c-1.3,0.2-2.4,1-1.1,3
		c0,0,0.4,0.9,1.2,1.7c-0.6,1.2-1,3,0.1,4.2c-0.6,1.9-1,4.4,1.7,4.9c1.1,0.2,2,0.2,2.7,0.1c0.6,0.5,1.6,0.8,3,0.9
		c1.3,0.1,2.2-0.3,2.7-0.8c0.4,0.7,1.2,1.3,2.8,1.1c1.4-0.2,2.2-0.8,2.7-1.3c0.9,0.8,2.3,1.4,4.6,0.5c2.3,0.9,5.7,1.6,6.7-1.2
		c4.2-1.2,4.7-4,4.6-5.7C160.5,80.2,160.8,79.3,160.6,77.9z"/>
	<g>
		<path class="st0" d="M129.1,74.6c0,0-3.2-3,1.5-5"/>
		<path class="st0" d="M132.6,63.1c0,0-1.5-5.2,3-5.2s4,1.5,4,1.5"/>
		<path class="st0" d="M134.9,62.4c0,0-6.5-2.2-4.2,3.8"/>
		<path class="st0" d="M144.9,61.1c0,0-0.8-5.2-7.5-2"/>
		<path class="st0" d="M138.1,85.6c0,0,0,3.2,3.2,2.8s3.5-2.8,3.5-2.8"/>
		<path class="st0" d="M142.9,84.9c0,0,1.2,5.8,7.8,1.8"/>
		<path class="st0" d="M129.1,76.6c0,0-3.2,4.5,0.2,6.2"/>
		<path class="st0" d="M148.1,61.9c0,0,7.5-2.5,7.2,4.2"/>
		<path class="st0" d="M157.6,77.9c0,0,4.2-3.8,0.8-5.8s-3-2-3-2"/>
		<path class="st0" d="M153.1,65.9c0,0,5.2-3.5,4.5,2s-2.2,4.2-2.2,4.2"/>
		<path class="st0" d="M159.9,79.4c0,0,2,5.8-5.5,7.2"/>
		<path class="st0" d="M133.1,64.1c0,0-4.8,1.2-2.5,4.2"/>
	</g>
</g>
</svg>
