<?xml version="1.0" encoding="utf-8"?>
<!-- Generator: Adobe Illustrator 22.1.0, SVG Export Plug-In . SVG Version: 6.00 Build 0)  -->
<svg version="1.1" id="Layer_1" xmlns="http://www.w3.org/2000/svg" xmlns:xlink="http://www.w3.org/1999/xlink" x="0px" y="0px"
	 viewBox="0 0 74.4 122" style="enable-background:new 0 0 74.4 122;" xml:space="preserve">
<style type="text/css">
	.st0{fill:#FFFFFF;stroke:#584C4F;stroke-width:4;stroke-linecap:round;stroke-miterlimit:10;}
</style>
<g id="Layer_5">
</g>
<g id="Layer_3">
</g>
<g>
	<path class="st0" d="M10.7,52c0,0-9.4,25.4,4.3,25.9s58.4,4.9,58.4-9.7s-2.2-21.1-21.6-20S10.7,52,10.7,52z"/>
	<path class="st0" d="M10.7,94.1c0,0-9.4,25.4,4.3,25.9s58.4,4.9,58.4-9.7s-2.2-21.1-21.6-20S10.7,94.1,10.7,94.1z"/>
	<path class="st0" d="M9.1,9.9c0,0-9.4,25.4,4.3,25.9s58.4,4.9,58.4-9.7S69.6,5,50.2,6.1S9.1,9.9,9.1,9.9z"/>
</g>
</svg>
