<?xml version="1.0" encoding="utf-8"?>
<!-- Generator: Adobe Illustrator 22.1.0, SVG Export Plug-In . SVG Version: 6.00 Build 0)  -->
<svg version="1.1" id="Layer_1" xmlns="http://www.w3.org/2000/svg" xmlns:xlink="http://www.w3.org/1999/xlink" x="0px" y="0px"
	 viewBox="0 0 359.2 297.4" style="enable-background:new 0 0 359.2 297.4;" xml:space="preserve">
<style type="text/css">
	.st0{opacity:0.1;fill:#584C4F;stroke:#584C4F;stroke-width:2;stroke-linecap:round;stroke-miterlimit:10;}
	.st1{fill:#FFD767;stroke:#584C4F;stroke-width:2;stroke-miterlimit:10;}
	.st2{fill:none;stroke:#584C4F;stroke-width:2;stroke-linecap:round;stroke-miterlimit:10;}
	.st3{fill:#FFFFFF;stroke:#584C4F;stroke-width:2;stroke-linecap:round;stroke-miterlimit:10;}
	.st4{fill:#FFFFFF;}
	.st5{opacity:0.1;fill:#231F20;stroke:#231F20;stroke-width:2;stroke-miterlimit:10;}
	.st6{opacity:0.1;}
	.st7{fill:#584C4F;stroke:#584C4F;stroke-width:2;stroke-linecap:round;stroke-miterlimit:10;}
	.st8{fill:#FFF0C2;stroke:#584C4F;stroke-width:2;stroke-miterlimit:10;}
	.st9{fill:#FBE391;stroke:#584C4F;stroke-width:2;stroke-miterlimit:10;}
	.st10{fill:#FDF7E0;stroke:#584C4F;stroke-width:2;stroke-miterlimit:10;}
	.st11{fill:#FFF5D0;stroke:#584C4F;stroke-width:2;stroke-miterlimit:10;}
	.st12{fill:#FBE7A0;stroke:#584C4F;stroke-width:2;stroke-miterlimit:10;}
	.st13{fill:#FFFAF2;stroke:#584C4F;stroke-width:2;stroke-miterlimit:10;}
</style>
<g id="Layer_5">
</g>
<g id="Layer_3">
</g>
<g>
	<g>
		<path class="st0" d="M133.2,99.9c5.4-5.8,11.4-12.3,18-19.6c1.7,0.4,3.5,0.7,5.5,0.9c21.3,2.4,24-14.5,17.7-28.4
			c3.9-6.6,7.8-16.4-2.6-17.4c-2.1-0.2-5.2,1.1-8.9,3.5c-6.7-4.4-15.1-5.3-23.6,1.1c0,0-9.2,14-6.4,25.8c-4.7,4.9-9.4,10.1-14,15.3
			c-4.3-4.3-9.2-8.5-15-12.6C87.4,56.8,69.8,53.8,53.3,56.9c-1.6-2-3.4-3.5-5.5-4.3C20,40.9,14.2,74.1,14.2,74.1
			C12,104.8,11,129.2,11,148.5c0,0.5,0,0.9,0,1.4c0,0.2,0,0.3,0,0.5c0.1,63.7,10.9,70.3,21.5,64.3c0.1,0.1,0.1,0.2,0.2,0.3l0,0
			c20.4,21.6,90.9-15.6,97.2-29.2C130,185.8,156.5,142,133.2,99.9z M67.8,162.2c0,0-1.1-0.3-3-0.5c-1.2-0.2-2.6-0.4-4.2-0.5
			c2.1-14.4,3.4-31.1,3.5-47c0.5-0.2,1-0.4,1.4-0.6c0.2-0.1,0.4-0.2,0.5-0.3c3.3-1.6,6.3-1.6,8.7-0.6c2.5,1,4.5,2.8,6,4.7
			c-11.1-5.4-11,8.5-4.9,15.5c3.2,3.7,8.6,11.1,14.1,15.7C90.1,160.3,79.4,163.9,67.8,162.2z"/>
	</g>
	<g>
		<path class="st1" d="M128.2,94.9c5.4-5.8,11.4-12.3,18-19.6c1.7,0.4,3.5,0.7,5.5,0.9c21.3,2.4,24-14.5,17.7-28.4
			c3.9-6.6,7.8-16.4-2.6-17.4c-2.1-0.2-5.2,1.1-8.9,3.5c-6.7-4.4-15.1-5.3-23.6,1.1c0,0-9.2,14-6.4,25.8c-4.7,4.9-9.4,10.1-14,15.3
			c-4.3-4.3-9.2-8.5-15-12.6C82.4,51.8,64.8,48.8,48.3,51.9c-1.6-2-3.4-3.5-5.5-4.3C15,35.9,9.2,69.1,9.2,69.1
			C7,99.8,6,124.2,6,143.5c0,0.5,0,0.9,0,1.4c0,0.2,0,0.3,0,0.5c0.1,63.7,10.9,70.3,21.5,64.3c0.1,0.1,0.1,0.2,0.2,0.3l0,0
			c20.4,21.6,90.9-15.6,97.2-29.2C125,180.8,151.5,137,128.2,94.9z M62.8,157.2c0,0-1.1-0.3-3-0.5c-1.2-0.2-2.6-0.4-4.2-0.5
			c2.1-14.4,3.4-31.1,3.5-47c0.5-0.2,1-0.4,1.4-0.6c0.2-0.1,0.4-0.2,0.5-0.3c3.3-1.6,6.3-1.6,8.7-0.6c2.5,1,4.5,2.8,6,4.7
			c-11.1-5.4-11,8.5-4.9,15.5c3.2,3.7,8.6,11.1,14.1,15.7C85.1,155.3,74.4,158.9,62.8,157.2z"/>
	</g>
	<g>
		<path id="XMLID_15454_" class="st0" d="M171.5,95.8c0,0,36.8-28.3,37.6,24.9c0.8,53.3,13.2,101.9-57.5,101.6c0,0-38.4-12.9,0-26.6
			c18.8-6.7,22.5-20.6,22.1-38C173.7,157.6,166.1,99.1,171.5,95.8z"/>
		<path id="XMLID_15453_" class="st1" d="M166.3,90.8c0,0,36.8-28.3,37.6,24.9c0.8,53.3,13.2,101.9-57.5,101.6c0,0-38.4-12.9,0-26.6
			c18.8-6.7,22.5-20.6,22.1-38C168.5,152.6,160.9,94.1,166.3,90.8z"/>
		<g id="XMLID_15449_">
			<path id="XMLID_15452_" class="st2" d="M196.4,93.9c0,0-2.4-2.8-3.2-2.7"/>
			<path id="XMLID_15451_" class="st2" d="M143.3,208c0,0,3,0.5,3.2,1.1"/>
			<line id="XMLID_15450_" class="st2" x1="189.6" y1="182.9" x2="192.5" y2="182.3"/>
		</g>
		<path id="XMLID_15472_" class="st3" d="M159.3,83.8c0,0,36.8-28.3,37.6,24.9c0.8,53.3,13.2,101.9-57.5,101.6c0,0-38.4-12.9,0-26.6
			c18.8-6.7,22.5-20.6,22.1-38C161.5,145.6,153.9,87.1,159.3,83.8z"/>
		<g id="XMLID_36955_">
			<path id="XMLID_36961_" class="st2" d="M189.4,86.9c0,0-2.4-2.8-3.2-2.7"/>
			<path id="XMLID_36960_" class="st2" d="M136.3,201c0,0,3,0.5,3.2,1.1"/>
			<line id="XMLID_36956_" class="st2" x1="182.6" y1="175.9" x2="185.5" y2="175.3"/>
		</g>
		<g>
			<g id="XMLID_15469_">
				<path id="XMLID_15471_" class="st3" d="M93.9,53.4c68.1,48,26.1,117.4,26.1,117.4c-6.3,13.6-76.8,50.8-97.2,29.2l0,0
					c-20.4-21.6-5-38.3,3.9-48.1c6.9-7.6,21.8-6.3,28.2-5.3c1.8,0.3,3,0.5,3,0.5c12.9,1.9,24.6-2.7,21.7-18c0,0-0.5-11.8-5.1-20.9
					l0,0c0,0-3.3-8.2-9.6-10.7c-2.5-1-5.4-1-8.7,0.6c-0.2,0.1-0.4,0.2-0.5,0.3c-1.5,0.7-3.4,1.4-5.4,2.1c-14.2,4.4-38.4,5.7-43-13.6
					C1.7,64.5,6.8,62,9.6,57.6c0,0,0,0,0,0c2.8-4.5,11.9-7.9,11.9-7.9l0,0C43.4,37.8,69.9,36.5,93.9,53.4z"/>
				<path id="XMLID_15470_" class="st4" d="M4.2,59.6c0,0,5.8-33.1,33.7-21.5S52,175.5,39.1,185.3S-9.8,254.9,4.2,59.6z"/>
			</g>
			<path id="XMLID_15468_" class="st3" d="M29.2,194.1C13.8,208.2-7,215.3,4.2,59.1c0,0,5.8-33.1,33.7-21.5
				c4.5,1.9,7.9,6.7,10.4,13.6"/>
			<path id="XMLID_15467_" class="st3" d="M53.9,87.3c0.8,21.1-1.1,45.1-4.2,64.1"/>
		</g>
		<g id="XMLID_36944_">
			<path id="XMLID_36954_" class="st2" d="M44.9,202.1c0,0-2.5-0.3-2.4-2.2"/>
			<path id="XMLID_36953_" class="st2" d="M120.1,156.4c0,0-0.5,2-1.1,2.7"/>
			<path id="XMLID_36952_" class="st2" d="M89.8,129.9c0,0,0.9-3.8,0-3.8"/>
			<path id="XMLID_36951_" class="st2" d="M34.9,45.6c0,0,3.6,0.5,3.2,1.1"/>
			<path id="XMLID_36950_" class="st2" d="M56.8,52.3c0,0,4.2-0.6,4.4-1.4"/>
			<path id="XMLID_36949_" class="st2" d="M63.7,151.9c0,0,3,0.7,3.2,1.3"/>
			<path id="XMLID_36948_" class="st2" d="M59.9,89.9c0,0-2.8,1.3-3.6,2.6"/>
			<path id="XMLID_36947_" class="st2" d="M43.7,108.9"/>
			<path id="XMLID_36946_" class="st2" d="M63.5,111.3"/>
			<line id="XMLID_36945_" class="st2" x1="22.2" y1="191" x2="25.1" y2="190.3"/>
		</g>
		<path class="st5" d="M196.5,108.7c-0.3-21.4-6.5-29.6-13.7-31.8c2.1,5,3.5,12,3.7,21.8c0.8,53.3,13.2,101.9-57.5,101.6
			c0,0-3.3-1.1-7-3c0.8,7.6,17,13,17,13C209.7,210.6,197.4,162,196.5,108.7z"/>
		<path class="st5" d="M119.6,170.8c0,0,37.9-62.6-16.6-110c39.5,45.7,6.6,100,6.6,100c-6.3,13.6-76.8,50.8-97.2,29.2l0,0
			c-0.1-0.1-0.1-0.2-0.2-0.3c-1.9,1.1-3.8,1.7-5.6,1.7c4.1,11,9.9,11.5,15.6,8.3c0.1,0.1,0.1,0.2,0.2,0.3l0,0
			C42.9,221.6,113.4,184.4,119.6,170.8z"/>
	</g>
	<path id="XMLID_15448_" class="st3" d="M129.2,24.9c0,0-24,36.6,17.5,41.3S159.3,2.1,129.2,24.9z"/>
	<path id="XMLID_15447_" class="st3" d="M160.3,43.7c0,0,17.1-21.8,1.4-23.4C146,18.7,78.3,99,76.9,108.9
		C75.5,118.7,52.9,166,160.3,43.7z"/>
	<path id="XMLID_15446_" class="st3" d="M96.4,128c0,0-1.1-5.9-18.8-21s-18.8,2.7-11.7,10.8S90.3,151.3,96.4,128z"/>
	<path id="XMLID_36965_" class="st2" d="M87.1,132.1c0,0-2.5-0.3-2.4-2.2"/>
	<path id="XMLID_36964_" class="st2" d="M162,26.5c0,0-0.5,2-1.1,2.7"/>
	<path id="XMLID_36963_" class="st2" d="M161.1,55.6c0,0,0.9-3.8,0-3.8"/>
	<path id="XMLID_36959_" class="st2" d="M136,23.9c0,0-2.8,1.3-3.6,2.6"/>
	<path id="XMLID_36958_" class="st2" d="M154.4,96.1"/>
	<path id="XMLID_36957_" class="st2" d="M134.2,108.5"/>
</g>
<path id="XMLID_37121_" class="st2" d="M41.2,211.1c0,0-2.1,1.3-3.3-0.3"/>
<path id="XMLID_37122_" class="st2" d="M146,70.9c0,0-2.5-0.3-2.4-2.2"/>
<path id="XMLID_37123_" class="st2" d="M171.6,243.6c0,0-1.2,2.2-3,1.4"/>
<g>
	<g class="st6">
		<g id="XMLID_37126_">
			<path id="XMLID_37131_" class="st7" d="M150,291.2c0,0,1.7,6.6,12.3,4.9s4.2-50.7,4.9-56.6s5.1-11.7,12.3-7.4s2.7,44.6,2.5,49.2
				c-0.2,4.6,1,17,9.8,14.8c8.9-2.2,9.5-6.2,9.8-9.8c0.3-3.6-2-50.9-2.5-54.1c-0.5-3.2-7.3-21.3-27.1-19.7s-21.4,14.6-22.1,19.7
				C149.2,237.2,148.1,285.8,150,291.2z"/>
			<path id="XMLID_37130_" class="st7" d="M163.9,246.7c13.7-0.1,31.4-0.4,33.1-0.4c3-0.2,9.4-0.5,10.3,3.9s2.9,15-5.7,13.2
				c-4.5-1-20.6,1.4-35.2,1.4"/>
			<path id="XMLID_37129_" class="st7" d="M156.9,264.4c-9.2-1-16.2-3.7-16.8-10.1c0,0,0.2-7.1,7.4-7.4c0,0,1.7,0,4.5,0"/>
			<path id="XMLID_37128_" class="st7" d="M188.2,263.7c-6.5,0.5-14.3,1.1-21.7,1.1"/>
			<path id="XMLID_37127_" class="st7" d="M163.9,246.7c8.3-0.1,18-0.2,24.8-0.3"/>
		</g>
		<g id="XMLID_37054_">
			<path id="XMLID_37056_" class="st7" d="M293.3,249.9c0,0-2.6-8.8,0.9-13.1c2.5-3.1,8.4-5.7,23.3-3.9c0,0,12.3-5.6,7.2-16.5
				c-4.5-9.6-53.3-12-53.5,22.9v28c0.2,34.9,49,32.5,53.5,22.9c5.1-10.9-7.2-16.5-7.2-16.5c-14.9,1.8-20.7-0.7-23.3-3.9
				c-3.5-4.3-0.9-13.1-0.9-13.1"/>
			<path id="XMLID_37055_" class="st7" d="M284.2,263.7c12.7-1,22.5-3.7,23.3-10.1c0,0-0.3-7.1-10.2-7.4c0,0-2.4,0-6.3,0"/>
		</g>
		<g id="XMLID_37051_">
			<path id="XMLID_37053_" class="st7" d="M26.3,290c-34.5-24.3-13.2-59.5-13.2-59.5c3.2-6.9,38.9-25.7,49.2-14.8l0,0
				c10.4,10.9,2.5,19.4-2,24.4c-3.5,3.9-11.1,3.2-14.3,2.7c-0.9-0.1-1.5-0.3-1.5-0.3c-6.5-1-12.5,1.4-11,9.1c0,0,0.3,6,2.6,10.6l0,0
				c0,0,1.7,4.2,4.9,5.4c1.2,0.5,2.7,0.5,4.4-0.3c0.1,0,0.2-0.1,0.3-0.1c0.8-0.4,1.7-0.7,2.8-1c7.2-2.3,19.5-2.9,21.8,6.9
				c2.7,11.4,0.1,12.6-1.3,14.9c0,0,0,0,0,0c-1.4,2.3-6.1,4-6.1,4l0,0C51.8,297.9,38.5,298.6,26.3,290z"/>
			<path id="XMLID_37052_" class="st7" d="M48.3,275.2c0,0-11.3-8.3,1-15.8C61.5,251.9,66,269,66,269"/>
		</g>
		<g id="XMLID_37048_">
			<path id="XMLID_37050_" class="st7" d="M113.7,284.3c0,0,2.6,16.1,15.2,10.5c12.5-5.7,6.4-67,0.6-71.7
				C123.7,218.3,107.4,189.2,113.7,284.3z"/>
			<path id="XMLID_37049_" class="st7" d="M115.3,255c0,0-24.7,31.5-19.7-27.3c0,0-5.9-18.2-17.3-10.6S65,318,120.3,291.8"/>
		</g>
		<g id="XMLID_37045_">
			<path id="XMLID_37047_" class="st7" d="M245.7,226.9c0,0-2.6-16.2-15.1-10.5c-12.5,5.7-6.3,67.3-0.6,72.1
				C235.8,293.2,251.9,322.5,245.7,226.9z"/>
			<path id="XMLID_37046_" class="st7" d="M243.5,238c11.7-0.9,21.7-3.6,22.9-8.2c5-17.8-12.6-13.7-12.6-13.7
				c-8.3-0.9-29.1-0.9-37.4,0c0,0-17.6-4-12.6,13.7c1.3,4.5,11,7.2,22.5,8.1"/>
		</g>
	</g>
	<g>
		<g id="XMLID_37039_">
			<path id="XMLID_37044_" class="st1" d="M150,281.2c0,0,1.7,6.6,12.3,4.9s4.2-50.7,4.9-56.6s5.1-11.7,12.3-7.4s2.7,44.6,2.5,49.2
				c-0.2,4.6,1,17,9.8,14.8c8.9-2.2,9.5-6.2,9.8-9.8c0.3-3.6-2-50.9-2.5-54.1c-0.5-3.2-7.3-21.3-27.1-19.7s-21.4,14.6-22.1,19.7
				C149.2,227.2,148.1,275.8,150,281.2z"/>
			<path id="XMLID_37043_" class="st1" d="M163.9,236.7c13.7-0.1,31.4-0.4,33.1-0.4c3-0.2,9.4-0.5,10.3,3.9s2.9,15-5.7,13.2
				c-4.5-1-20.6,1.4-35.2,1.4"/>
			<path id="XMLID_37042_" class="st1" d="M156.9,254.4c-9.2-1-16.2-3.7-16.8-10.1c0,0,0.2-7.1,7.4-7.4c0,0,1.7,0,4.5,0"/>
			<path id="XMLID_37041_" class="st1" d="M188.2,253.7c-6.5,0.5-14.3,1.1-21.7,1.1"/>
			<path id="XMLID_37040_" class="st1" d="M163.9,236.7c8.3-0.1,18-0.2,24.8-0.3"/>
		</g>
		<g id="XMLID_37036_">
			<path id="XMLID_37038_" class="st1" d="M293.3,239.9c0,0-2.6-8.8,0.9-13.1c2.5-3.1,8.4-5.7,23.3-3.9c0,0,12.3-5.6,7.2-16.5
				c-4.5-9.6-53.3-12-53.5,22.9v28c0.2,34.9,49,32.5,53.5,22.9c5.1-10.9-7.2-16.5-7.2-16.5c-14.9,1.8-20.7-0.7-23.3-3.9
				c-3.5-4.3-0.9-13.1-0.9-13.1"/>
			<path id="XMLID_37037_" class="st1" d="M284.2,253.7c12.7-1,22.5-3.7,23.3-10.1c0,0-0.3-7.1-10.2-7.4c0,0-2.4,0-6.3,0"/>
		</g>
		<g id="XMLID_37033_">
			<path id="XMLID_37035_" class="st1" d="M26.3,280c-34.5-24.3-13.2-59.5-13.2-59.5c3.2-6.9,38.9-25.7,49.2-14.8l0,0
				c10.4,10.9,2.5,19.4-2,24.4c-3.5,3.9-11.1,3.2-14.3,2.7c-0.9-0.1-1.5-0.3-1.5-0.3c-6.5-1-12.5,1.4-11,9.1c0,0,0.3,6,2.6,10.6l0,0
				c0,0,1.7,4.2,4.9,5.4c1.2,0.5,2.7,0.5,4.4-0.3c0.1,0,0.2-0.1,0.3-0.1c0.8-0.4,1.7-0.7,2.8-1c7.2-2.3,19.5-2.9,21.8,6.9
				c2.7,11.4,0.1,12.6-1.3,14.9c0,0,0,0,0,0c-1.4,2.3-6.1,4-6.1,4l0,0C51.8,287.9,38.5,288.6,26.3,280z"/>
			<path id="XMLID_37034_" class="st1" d="M48.3,265.2c0,0-11.3-8.3,1-15.8C61.5,241.9,66,259,66,259"/>
		</g>
		<g id="XMLID_37030_">
			<path id="XMLID_37032_" class="st1" d="M113.7,274.3c0,0,2.6,16.1,15.2,10.5c12.5-5.7,6.4-67,0.6-71.7
				C123.7,208.3,107.4,179.2,113.7,274.3z"/>
			<path id="XMLID_37031_" class="st1" d="M115.3,245c0,0-24.7,31.5-19.7-27.3c0,0-5.9-18.2-17.3-10.6S65,308,120.3,281.8"/>
		</g>
		<g id="XMLID_37027_">
			<path id="XMLID_37029_" class="st1" d="M245.7,216.9c0,0-2.6-16.2-15.1-10.5c-12.5,5.7-6.3,67.3-0.6,72.1
				C235.8,283.2,251.9,312.5,245.7,216.9z"/>
			<path id="XMLID_37028_" class="st1" d="M243.5,228c11.7-0.9,21.7-3.6,22.9-8.2c5-17.8-12.6-13.7-12.6-13.7
				c-8.3-0.9-29.1-0.9-37.4,0c0,0-17.6-4-12.6,13.7c1.3,4.5,11,7.2,22.5,8.1"/>
		</g>
	</g>
	<g>
		<g id="XMLID_37021_">
			<path id="XMLID_37026_" class="st8" d="M150,271.2c0,0,1.7,6.6,12.3,4.9s4.2-50.7,4.9-56.6s5.1-11.7,12.3-7.4s2.7,44.6,2.5,49.2
				c-0.2,4.6,1,17,9.8,14.8c8.9-2.2,9.5-6.2,9.8-9.8c0.3-3.6-2-50.9-2.5-54.1c-0.5-3.2-7.3-21.3-27.1-19.7s-21.4,14.6-22.1,19.7
				C149.2,217.2,148.1,265.8,150,271.2z"/>
			<path id="XMLID_37025_" class="st8" d="M163.9,226.7c13.7-0.1,31.4-0.4,33.1-0.4c3-0.2,9.4-0.5,10.3,3.9s2.9,15-5.7,13.2
				c-4.5-1-20.6,1.4-35.2,1.4"/>
			<path id="XMLID_37024_" class="st8" d="M156.9,244.4c-9.2-1-16.2-3.7-16.8-10.1c0,0,0.2-7.1,7.4-7.4c0,0,1.7,0,4.5,0"/>
			<path id="XMLID_37023_" class="st8" d="M188.2,243.7c-6.5,0.5-14.3,1.1-21.7,1.1"/>
			<path id="XMLID_37022_" class="st8" d="M163.9,226.7c8.3-0.1,18-0.2,24.8-0.3"/>
		</g>
		<g id="XMLID_37018_">
			<path id="XMLID_37020_" class="st9" d="M293.3,229.9c0,0-2.6-8.8,0.9-13.1c2.5-3.1,8.4-5.7,23.3-3.9c0,0,12.3-5.6,7.2-16.5
				c-4.5-9.6-53.3-12-53.5,22.9v28c0.2,34.9,49,32.5,53.5,22.9c5.1-10.9-7.2-16.5-7.2-16.5c-14.9,1.8-20.7-0.7-23.3-3.9
				c-3.5-4.3-0.9-13.1-0.9-13.1"/>
			<path id="XMLID_37019_" class="st9" d="M284.2,243.7c12.7-1,22.5-3.7,23.3-10.1c0,0-0.3-7.1-10.2-7.4c0,0-2.4,0-6.3,0"/>
		</g>
		<g id="XMLID_37015_">
			<path id="XMLID_37017_" class="st10" d="M26.3,270c-34.5-24.3-13.2-59.5-13.2-59.5c3.2-6.9,38.9-25.7,49.2-14.8l0,0
				c10.4,10.9,2.5,19.4-2,24.4c-3.5,3.9-11.1,3.2-14.3,2.7c-0.9-0.1-1.5-0.3-1.5-0.3c-6.5-1-12.5,1.4-11,9.1c0,0,0.3,6,2.6,10.6l0,0
				c0,0,1.7,4.2,4.9,5.4c1.2,0.5,2.7,0.5,4.4-0.3c0.1,0,0.2-0.1,0.3-0.1c0.8-0.4,1.7-0.7,2.8-1c7.2-2.3,19.5-2.9,21.8,6.9
				c2.7,11.4,0.1,12.6-1.3,14.9c0,0,0,0,0,0c-1.4,2.3-6.1,4-6.1,4l0,0C51.8,277.9,38.5,278.6,26.3,270z"/>
			<path id="XMLID_37016_" class="st10" d="M48.3,255.2c0,0-11.3-8.3,1-15.8S66,249,66,249"/>
		</g>
		<g id="XMLID_37012_">
			<path id="XMLID_37014_" class="st11" d="M113.7,264.3c0,0,2.6,16.1,15.2,10.5c12.5-5.7,6.4-67,0.6-71.7
				C123.7,198.3,107.4,169.2,113.7,264.3z"/>
			<path id="XMLID_37013_" class="st11" d="M115.3,235c0,0-24.7,31.5-19.7-27.3c0,0-5.9-18.2-17.3-10.6S65,298,120.3,271.8"/>
		</g>
		<g id="XMLID_37009_">
			<path id="XMLID_37011_" class="st12" d="M245.7,206.9c0,0-2.6-16.2-15.1-10.5c-12.5,5.7-6.3,67.3-0.6,72.1
				C235.8,273.2,251.9,302.5,245.7,206.9z"/>
			<path id="XMLID_37010_" class="st12" d="M243.5,218c11.7-0.9,21.7-3.6,22.9-8.2c5-17.8-12.6-13.7-12.6-13.7
				c-8.3-0.9-29.1-0.9-37.4,0c0,0-17.6-4-12.6,13.7c1.3,4.5,11,7.2,22.5,8.1"/>
		</g>
		<path id="XMLID_37008_" class="st2" d="M87.6,218.2c0,0-0.5,2-1.1,2.7"/>
		<path id="XMLID_37007_" class="st2" d="M58.8,265.9c0,0-2.8,1.3-3.6,2.6"/>
		<path id="XMLID_37006_" class="st2" d="M70.7,189.2"/>
		<path id="XMLID_37005_" class="st2" d="M50.5,201.5"/>
		<path id="XMLID_37004_" class="st2" d="M159.3,270c0,0-2.5-0.3-2.4-2.2"/>
		<path id="XMLID_37003_" class="st2" d="M241.7,267.5c0,0-0.5,2-1.1,2.7"/>
		<path id="XMLID_37002_" class="st2" d="M189.7,214.1c0,0,0.9-3.8,0-3.8"/>
		<path id="XMLID_37001_" class="st2" d="M210,199c0,0-2.8,1.3-3.6,2.6"/>
		<path id="XMLID_37000_" class="st2" d="M183.1,254.6"/>
		<path id="XMLID_36999_" class="st2" d="M162.9,266.9"/>
		<path id="XMLID_36998_" class="st2" d="M292.3,268.9c0,0-2.5-0.3-2.4-2.2"/>
		<path id="XMLID_36997_" class="st2" d="M259.1,208.9c0,0-0.5,2-1.1,2.7"/>
		<path id="XMLID_36996_" class="st2" d="M317,207.1c0,0,0.9-3.8,0-3.8"/>
		<path id="XMLID_36995_" class="st2" d="M317,257.3c0,0-2.8,1.3-3.6,2.6"/>
		<path id="XMLID_36994_" class="st2" d="M258,228.5"/>
		<path id="XMLID_36993_" class="st2" d="M237.8,240.9"/>
		<path class="st5" d="M191.3,243.5c0.2,6.3,0.4,11.2,0.3,12.2c-0.3,3.6-1,7.5-9.5,9.7c0.7,5.3,3,11.7,9.6,10.1
			c8.9-2.2,9.5-6.2,9.8-9.8c0.1-1.6-0.2-11.8-0.7-23"/>
		<path class="st5" d="M152.2,265.5c-1.1,0.2-2,0.2-2.9,0.3c0.2,2.3,0.4,4,0.6,4.8c0,0,1.7,6.6,12.3,4.9c5.9-1,6.5-16.6,6-31.3"/>
		<path class="st5" d="M317.4,253.1c-0.6,0.1-1.1,0.1-1.7,0.2c0.2,1.9-0.1,4-1.2,6.3c-3,6.3-25.3,9.5-40.2,0.9
			c11.1,20.2,46.4,17.2,50.2,9.1C329.7,258.7,317.4,253.1,317.4,253.1z"/>
		<path class="st5" d="M70.2,252.4c-0.8-3.3-2.7-5.4-5.2-6.7c-1.2-3-3.8-7.5-7.9-8.6c1.5,1.3,2.6,3,3.1,5.3
			c2.7,11.4,0.1,12.6-1.3,14.9c0,0,0,0,0,0c-1.4,2.3-6.1,4-6.1,4l0,0c-11.1,6-24.5,6.7-36.6-1.9c-0.7-0.5-1.3-1-2-1.4
			c2.9,4,6.8,7.8,12,11.4c12.2,8.6,25.5,7.9,36.6,1.9l0,0c0,0,4.6-1.7,6.1-4c0,0,0,0,0,0C70.4,265,72.9,263.8,70.2,252.4z"/>
		<path class="st5" d="M129.4,202.5c-2-1.7-5.3-6.3-8.5-7.6c5.2,12.5,9.4,64.1-2.1,69.3c-5.4,2.4-9,0.8-11.3-1.8
			c-11.3,4.7-20.1,4.2-26.9,0.4c7,11.3,18.7,17.2,36.9,9.6c2.3,2.6,5.9,4.3,11.3,1.8C141.4,268.6,135.2,207.3,129.4,202.5z"/>
		<path class="st5" d="M246.2,217.2c10.4-1.1,19-3.7,20.2-7.9c3.6-12.6-4.3-14.2-9.2-14.1c-0.1,1.2-0.4,2.6-0.8,4.1
			c-1.2,4.2-9.7,6.8-20.2,7.9c2.7,52.2-2.3,60.5-7.8,58.3c0.5,1.1,1,2,1.5,2.4C235.5,272.5,250.6,299.7,246.2,217.2"/>
	</g>
</g>
<path id="XMLID_6172_" class="st0" d="M347.8,224c-9.1,1.2-12.8,3.3-14.4,6.1c0,0-5.4,14.6,8.4,18.6s16.5-8.3,16.4-9.9
	C358.1,237.1,356.9,222.8,347.8,224z M346.9,233.4c0.8,0.4,1.4,1.3,2,3.7c0.5,2.4-3.3,3.1-3.7,3.1c-0.4,0.1-3.8-0.4-3-4.2
	C342.9,232.3,346.9,233.4,346.9,233.4z"/>
<g class="st6">
	<g id="XMLID_6160_">
		<path id="XMLID_6163_" class="st7" d="M352,202.7"/>
		<path id="XMLID_6162_" class="st7" d="M351.5,194.2c-3.6,0-8.6,0.3-9.7-1.1c-1.5-1.8-0.9-7.9,2.9-7c2.2,0.5,4.7,0.5,6.4,0.5
			c1.2,0,2.2-0.1,2.5-0.1c1,0,3-0.4,3.3-3.7c0.5-4.4-0.9-5-4-5s-18-3.6-20.6,9.1c-1.8,8.9,3.2,13.6,7.3,15.6"/>
		<path id="XMLID_6161_" class="st7" d="M341.2,193.8"/>
	</g>
	<g id="XMLID_6155_">
		<path id="XMLID_6159_" class="st7" d="M337.6,195.5c-2.4,1.4-4.4,3.8-5.2,7.7c-2.6,12.7,8.8,16.8,11.5,16.8c1.5,0,5.1-0.3,8.1-0.9
			"/>
		<path id="XMLID_6158_" class="st7" d="M352,219c2.6-0.5,0.6-8.5-0.5-8.5c-3.6,0-8.6,0.3-9.7-1.1c-1.2-1.5-1-5.8,1.1-6.9
			c0.5-0.2,1.1-0.3,1.8-0.2c2.2,0.5,4.7,0.5,6.4,0.5c1.2,0,2.2-0.1,2.5-0.1c1,0,3-0.4,3.3-3.7c0.5-4.4-0.9-5-4-5
			c-1.6,0-6.1-0.9-10.6-0.2"/>
		<path id="XMLID_6157_" class="st7" d="M341.2,210"/>
		<path id="XMLID_6156_" class="st7" d="M341.2,210c5.1-0.2,11,0.1,13.2,0.7c0,0,4.3,2.4,2.3,6.1s-22.7,4-23.6,1.7
			c-0.9-2.3-3-6.7,1.8-7.8"/>
	</g>
</g>
<path id="XMLID_6154_" class="st0" d="M346.6,257.3c0.2,0.6,1,1.2,1.7,1.8c0.2,0.2,0.4,0.3,0.6,0.5c0.2,0.1,0.6,0.6,0.6,0.7
	c0.9,1.9,1.9,5.5-1.9,7c-0.3,0.1-1.4,0.3-1.7,0.3c-0.5,0-1.1,0-1.5-0.1c-4-0.4-5.8-1.7-6-3c-0.2-1.5,0.9-4.4,2.8-5.2
	c0,0,3.6-0.8,3.1-2.8s-2.6-5.8-6.5-2.8s-8,6-5.1,14.3c2.9,8.4,13.5,6.8,14.3,6.5c0.7-0.3,15.5-4.7,8.9-16
	C349.5,247,346.2,256.1,346.6,257.3z"/>
<path id="XMLID_3926_" class="st0" d="M356.1,277.5c0.8,0.4,1.4,1.3,2,3.7c0.6,2.4-3.3,3.1-3.7,3.1c-0.4,0.1-3.8-0.4-3-4.2
	C352.1,276.4,356.1,277.5,356.1,277.5z"/>
<path id="XMLID_12_" class="st1" d="M347.8,220c-9.1,1.2-12.8,3.3-14.4,6.1c0,0-5.4,14.6,8.4,18.6s16.5-8.3,16.4-9.9
	C358.1,233.1,356.9,218.8,347.8,220z M346.9,229.4c0.8,0.4,1.4,1.3,2,3.7c0.5,2.4-3.3,3.1-3.7,3.1c-0.4,0.1-3.8-0.4-3-4.2
	C342.9,228.3,346.9,229.4,346.9,229.4z"/>
<g>
	<g id="XMLID_8_">
		<path id="XMLID_11_" class="st1" d="M352,198.7"/>
		<path id="XMLID_10_" class="st1" d="M351.5,190.2c-3.6,0-8.6,0.3-9.7-1.1c-1.5-1.8-0.9-7.9,2.9-7c2.2,0.5,4.7,0.5,6.4,0.5
			c1.2,0,2.2-0.1,2.5-0.1c1,0,3-0.4,3.3-3.7c0.5-4.4-0.9-5-4-5s-18-3.6-20.6,9.1c-1.8,8.9,3.2,13.6,7.3,15.6"/>
		<path id="XMLID_9_" class="st1" d="M341.2,189.8"/>
	</g>
	<g id="XMLID_3_">
		<path id="XMLID_7_" class="st1" d="M337.6,191.5c-2.4,1.4-4.4,3.8-5.2,7.7c-2.6,12.7,8.8,16.8,11.5,16.8c1.5,0,5.1-0.3,8.1-0.9"/>
		<path id="XMLID_6_" class="st1" d="M352,215c2.6-0.5,0.6-8.5-0.5-8.5c-3.6,0-8.6,0.3-9.7-1.1c-1.2-1.5-1-5.8,1.1-6.9
			c0.5-0.2,1.1-0.3,1.8-0.2c2.2,0.5,4.7,0.5,6.4,0.5c1.2,0,2.2-0.1,2.5-0.1c1,0,3-0.4,3.3-3.7c0.5-4.4-0.9-5-4-5
			c-1.6,0-6.1-0.9-10.6-0.2"/>
		<path id="XMLID_5_" class="st1" d="M341.2,206"/>
		<path id="XMLID_4_" class="st1" d="M341.2,206c5.1-0.2,11,0.1,13.2,0.7c0,0,4.3,2.4,2.3,6.1s-22.7,4-23.6,1.7
			c-0.9-2.3-3-6.7,1.8-7.8"/>
	</g>
</g>
<path id="XMLID_2_" class="st1" d="M346.6,253.3c0.2,0.6,1,1.2,1.7,1.8c0.2,0.2,0.4,0.3,0.6,0.5c0.2,0.1,0.6,0.6,0.6,0.7
	c0.9,1.9,1.9,5.5-1.9,7c-0.3,0.1-1.4,0.3-1.7,0.3c-0.5,0-1.1,0-1.5-0.1c-4-0.4-5.8-1.7-6-3c-0.2-1.5,0.9-4.4,2.8-5.2
	c0,0,3.6-0.8,3.1-2.8s-2.6-5.8-6.5-2.8s-8,6-5.1,14.3c2.9,8.4,13.5,6.8,14.3,6.5c0.7-0.3,15.5-4.7,8.9-16
	C349.5,243,346.2,252.1,346.6,253.3z"/>
<path id="XMLID_1_" class="st1" d="M356.1,274.5c0.8,0.4,1.4,1.3,2,3.7c0.6,2.4-3.3,3.1-3.7,3.1c-0.4,0.1-3.8-0.4-3-4.2
	C352.1,273.4,356.1,274.5,356.1,274.5z"/>
<path id="XMLID_24_" class="st13" d="M347.8,215c-9.1,1.2-12.8,3.3-14.4,6.1c0,0-5.4,14.6,8.4,18.6s16.5-8.3,16.4-9.9
	C358.1,228.1,356.9,213.8,347.8,215z M346.9,224.4c0.8,0.4,1.4,1.3,2,3.7c0.5,2.4-3.3,3.1-3.7,3.1c-0.4,0.1-3.8-0.4-3-4.2
	C342.9,223.3,346.9,224.4,346.9,224.4z"/>
<g>
	<g id="XMLID_20_">
		<path id="XMLID_23_" class="st13" d="M352,193.7"/>
		<path id="XMLID_22_" class="st13" d="M351.5,185.2c-3.6,0-8.6,0.3-9.7-1.1c-1.5-1.8-0.9-7.9,2.9-7c2.2,0.5,4.7,0.5,6.4,0.5
			c1.2,0,2.2-0.1,2.5-0.1c1,0,3-0.4,3.3-3.7c0.5-4.4-0.9-5-4-5s-18-3.6-20.6,9.1c-1.8,8.9,3.2,13.6,7.3,15.6"/>
		<path id="XMLID_21_" class="st13" d="M341.2,184.8"/>
	</g>
	<g id="XMLID_15_">
		<path id="XMLID_19_" class="st13" d="M337.6,186.5c-2.4,1.4-4.4,3.8-5.2,7.7c-2.6,12.7,8.8,16.8,11.5,16.8c1.5,0,5.1-0.3,8.1-0.9"
			/>
		<path id="XMLID_18_" class="st13" d="M352,210c2.6-0.5,0.6-8.5-0.5-8.5c-3.6,0-8.6,0.3-9.7-1.1c-1.2-1.5-1-5.8,1.1-6.9
			c0.5-0.2,1.1-0.3,1.8-0.2c2.2,0.5,4.7,0.5,6.4,0.5c1.2,0,2.2-0.1,2.5-0.1c1,0,3-0.4,3.3-3.7c0.5-4.4-0.9-5-4-5
			c-1.6,0-6.1-0.9-10.6-0.2"/>
		<path id="XMLID_17_" class="st13" d="M341.2,201"/>
		<path id="XMLID_16_" class="st13" d="M341.2,201c5.1-0.2,11,0.1,13.2,0.7c0,0,4.3,2.4,2.3,6.1s-22.7,4-23.6,1.7
			c-0.9-2.3-3-6.7,1.8-7.8"/>
	</g>
</g>
<path id="XMLID_14_" class="st13" d="M346.6,248.3c0.2,0.6,1,1.2,1.7,1.8c0.2,0.2,0.4,0.3,0.6,0.5c0.2,0.1,0.6,0.6,0.6,0.7
	c0.9,1.9,1.9,5.5-1.9,7c-0.3,0.1-1.4,0.3-1.7,0.3c-0.5,0-1.1,0-1.5-0.1c-4-0.4-5.8-1.7-6-3c-0.2-1.5,0.9-4.4,2.8-5.2
	c0,0,3.6-0.8,3.1-2.8s-2.6-5.8-6.5-2.8s-8,6-5.1,14.3c2.9,8.4,13.5,6.8,14.3,6.5c0.7-0.3,15.5-4.7,8.9-16
	C349.5,238,346.2,247.1,346.6,248.3z"/>
<path id="XMLID_13_" class="st13" d="M356.1,271.5c0.8,0.4,1.4,1.3,2,3.7c0.6,2.4-3.3,3.1-3.7,3.1c-0.4,0.1-3.8-0.4-3-4.2
	C352.1,270.4,356.1,271.5,356.1,271.5z"/>
</svg>
