<?xml version="1.0" encoding="utf-8"?>
<!-- Generator: Adobe Illustrator 22.1.0, SVG Export Plug-In . SVG Version: 6.00 Build 0)  -->
<svg version="1.1" id="Layer_1" xmlns="http://www.w3.org/2000/svg" xmlns:xlink="http://www.w3.org/1999/xlink" x="0px" y="0px"
	 viewBox="0 0 233.3 131" style="enable-background:new 0 0 233.3 131;" xml:space="preserve">
<style type="text/css">
	.st0{fill:#A36B78;stroke:#584C4F;stroke-linecap:round;stroke-miterlimit:10;}
	.st1{fill:#FFD767;stroke:#584C4F;stroke-miterlimit:10;}
	.st2{fill:#584C4F;stroke:#584C4F;stroke-linecap:round;stroke-miterlimit:10;}
	.st3{fill:#5C5B4B;stroke:#5C5B4B;stroke-linecap:round;stroke-miterlimit:10;}
	.st4{fill:#FCF4E9;stroke:#5C5B4B;stroke-linecap:round;stroke-miterlimit:10;}
</style>
<g id="XMLID_31361_">
	<path id="XMLID_31448_" class="st0" d="M8.4,0.5C3.1,0.1,0.5,5,0.5,5S0.3,120.5,2.9,125.2c0,0,2.6,4.7,7.9,4.5
		c0,0,194.2,1.9,211.5-0.1c5.2-0.6,7.9-4.5,7.9-4.5s3.7-106.5,2.4-120c0,0-2.6-4.7-7.9-4.5C224.7,0.6,14.5,1,8.4,0.5z"/>
	<path id="XMLID_31447_" class="st1" d="M6.9,74.5c-0.3-0.2-0.4,1.9-0.4,1.9s0,49.8,0.1,51.8c0,0,0.1,2,0.4,1.9c0,0,10.3,0.8,11.2,0
		c0.3-0.3,0.4-1.9,0.4-1.9s0.2-45.9,0.1-51.7c0,0-0.1-2-0.4-1.9C18.4,74.6,7.2,74.7,6.9,74.5z"/>
	<path id="XMLID_31446_" class="st1" d="M22.9,74.5c-0.3-0.2-0.4,1.9-0.4,1.9s0,49.8,0.1,51.8c0,0,0.1,2,0.4,1.9
		c0,0,10.3,0.8,11.2,0c0.3-0.3,0.4-1.9,0.4-1.9s0.2-45.9,0.1-51.7c0,0-0.1-2-0.4-1.9C34.4,74.6,23.2,74.7,22.9,74.5z"/>
	<path id="XMLID_31445_" class="st2" d="M16.8,74.5c-0.2-0.1-0.3,1-0.3,1s0,24.9,0.1,25.9c0,0,0.1,1,0.3,1c0,0,7,0.4,7.6,0
		c0.2-0.1,0.3-1,0.3-1s0.1-22.9,0.1-25.8c0,0-0.1-1-0.3-1C24.5,74.5,17,74.6,16.8,74.5z"/>
	<path id="XMLID_31444_" class="st1" d="M38.9,74.5c-0.3-0.2-0.4,1.9-0.4,1.9s0,49.8,0.1,51.8c0,0,0.1,2,0.4,1.9
		c0,0,10.3,0.8,11.2,0c0.3-0.3,0.4-1.9,0.4-1.9s0.2-45.9,0.1-51.7c0,0-0.1-2-0.4-1.9C50.4,74.6,39.2,74.7,38.9,74.5z"/>
	<path id="XMLID_31443_" class="st2" d="M32.8,74.5c-0.2-0.1-0.3,1-0.3,1s0,24.9,0.1,25.9c0,0,0.1,1,0.3,1c0,0,7,0.4,7.6,0
		c0.2-0.1,0.3-1,0.3-1s0.1-22.9,0.1-25.8c0,0-0.1-1-0.3-1C40.5,74.5,33,74.6,32.8,74.5z"/>
	<path id="XMLID_31442_" class="st1" d="M54.9,74.5c-0.3-0.2-0.4,1.9-0.4,1.9s0,49.8,0.1,51.8c0,0,0.1,2,0.4,1.9
		c0,0,10.3,0.8,11.2,0c0.3-0.3,0.4-1.9,0.4-1.9s0.2-45.9,0.1-51.7c0,0-0.1-2-0.4-1.9C66.4,74.6,55.2,74.7,54.9,74.5z"/>
	<path id="XMLID_31441_" class="st1" d="M70.9,74.5c-0.3-0.2-0.4,1.9-0.4,1.9s0,49.8,0.1,51.8c0,0,0.1,2,0.4,1.9
		c0,0,10.3,0.8,11.2,0c0.3-0.3,0.4-1.9,0.4-1.9s0.2-45.9,0.1-51.7c0,0-0.1-2-0.4-1.9C82.4,74.6,71.2,74.7,70.9,74.5z"/>
	<path id="XMLID_31440_" class="st2" d="M64.8,74.5c-0.2-0.1-0.3,1-0.3,1s0,24.9,0.1,25.9c0,0,0.1,1,0.3,1c0,0,7,0.4,7.6,0
		c0.2-0.1,0.3-1,0.3-1s0.1-22.9,0.1-25.8c0,0-0.1-1-0.3-1C72.5,74.5,65,74.6,64.8,74.5z"/>
	<path id="XMLID_31439_" class="st1" d="M86.9,74.5c-0.3-0.2-0.4,1.9-0.4,1.9s0,49.8,0.1,51.8c0,0,0.1,2,0.4,1.9
		c0,0,10.3,0.8,11.2,0c0.3-0.3,0.4-1.9,0.4-1.9s0.2-45.9,0.1-51.7c0,0-0.1-2-0.4-1.9C98.4,74.6,87.2,74.7,86.9,74.5z"/>
	<path id="XMLID_31438_" class="st2" d="M80.8,74.5c-0.2-0.1-0.3,1-0.3,1s0,24.9,0.1,25.9c0,0,0.1,1,0.3,1c0,0,7,0.4,7.6,0
		c0.2-0.1,0.3-1,0.3-1s0.1-22.9,0.1-25.8c0,0-0.1-1-0.3-1C88.5,74.5,81,74.6,80.8,74.5z"/>
	<path id="XMLID_31437_" class="st1" d="M102.9,74.5c-0.3-0.2-0.4,1.9-0.4,1.9s0,49.8,0.1,51.8c0,0,0.1,2,0.4,1.9
		c0,0,10.3,0.8,11.2,0c0.3-0.3,0.4-1.9,0.4-1.9s0.2-45.9,0.1-51.7c0,0-0.1-2-0.4-1.9C114.4,74.6,103.2,74.7,102.9,74.5z"/>
	<path id="XMLID_31436_" class="st2" d="M96.8,74.5c-0.2-0.1-0.3,1-0.3,1s0,24.9,0.1,25.9c0,0,0.1,1,0.3,1c0,0,7,0.4,7.6,0
		c0.2-0.1,0.3-1,0.3-1s0.1-22.9,0.1-25.8c0,0-0.1-1-0.3-1C104.5,74.5,97,74.6,96.8,74.5z"/>
	<path id="XMLID_31435_" class="st1" d="M118.9,74.5c-0.3-0.2-0.4,1.9-0.4,1.9s0,49.8,0.1,51.8c0,0,0.1,2,0.4,1.9
		c0,0,10.3,0.8,11.2,0c0.3-0.3,0.4-1.9,0.4-1.9s0.2-45.9,0.1-51.7c0,0-0.1-2-0.4-1.9C130.4,74.6,119.2,74.7,118.9,74.5z"/>
	<path id="XMLID_31434_" class="st1" d="M134.9,74.5c-0.3-0.2-0.4,1.9-0.4,1.9s0,49.8,0.1,51.8c0,0,0.1,2,0.4,1.9
		c0,0,10.3,0.8,11.2,0c0.3-0.3,0.4-1.9,0.4-1.9s0.2-45.9,0.1-51.7c0,0-0.1-2-0.4-1.9C146.4,74.6,135.2,74.7,134.9,74.5z"/>
	<path id="XMLID_31433_" class="st2" d="M128.8,74.5c-0.2-0.1-0.3,1-0.3,1s0,24.9,0.1,25.9c0,0,0.1,1,0.3,1c0,0,7,0.4,7.6,0
		c0.2-0.1,0.3-1,0.3-1s0.1-22.9,0.1-25.8c0,0-0.1-1-0.3-1C136.5,74.5,129,74.6,128.8,74.5z"/>
	<path id="XMLID_31432_" class="st1" d="M150.9,74.5c-0.3-0.2-0.4,1.9-0.4,1.9s0,49.8,0.1,51.8c0,0,0.1,2,0.4,1.9
		c0,0,10.3,0.8,11.2,0c0.3-0.3,0.4-1.9,0.4-1.9s0.2-45.9,0.1-51.7c0,0-0.1-2-0.4-1.9C162.4,74.6,151.2,74.7,150.9,74.5z"/>
	<path id="XMLID_31431_" class="st2" d="M144.8,74.5c-0.2-0.1-0.3,1-0.3,1s0,24.9,0.1,25.9c0,0,0.1,1,0.3,1c0,0,7,0.4,7.6,0
		c0.2-0.1,0.3-1,0.3-1s0.1-22.9,0.1-25.8c0,0-0.1-1-0.3-1C152.5,74.5,145,74.6,144.8,74.5z"/>
	<path id="XMLID_31430_" class="st1" d="M166.9,74.5c-0.3-0.2-0.4,1.9-0.4,1.9s0,49.8,0.1,51.8c0,0,0.1,2,0.4,1.9
		c0,0,10.3,0.8,11.2,0c0.3-0.3,0.4-1.9,0.4-1.9s0.2-45.9,0.1-51.7c0,0-0.1-2-0.4-1.9C178.4,74.6,167.2,74.7,166.9,74.5z"/>
	<path id="XMLID_31429_" class="st1" d="M182.9,74.5c-0.3-0.2-0.4,1.9-0.4,1.9s0,49.8,0.1,51.8c0,0,0.1,2,0.4,1.9
		c0,0,10.3,0.8,11.2,0c0.3-0.3,0.4-1.9,0.4-1.9s0.2-45.9,0.1-51.7c0,0-0.1-2-0.4-1.9C194.4,74.6,183.2,74.7,182.9,74.5z"/>
	<path id="XMLID_31428_" class="st2" d="M176.8,74.5c-0.2-0.1-0.3,1-0.3,1s0,24.9,0.1,25.9c0,0,0.1,1,0.3,1c0,0,7,0.4,7.6,0
		c0.2-0.1,0.3-1,0.3-1s0.1-22.9,0.1-25.8c0,0-0.1-1-0.3-1C184.5,74.5,177,74.6,176.8,74.5z"/>
	<path id="XMLID_31427_" class="st1" d="M198.9,74.5c-0.3-0.2-0.4,1.9-0.4,1.9s0,49.8,0.1,51.8c0,0,0.1,2,0.4,1.9
		c0,0,10.3,0.8,11.2,0c0.3-0.3,0.4-1.9,0.4-1.9s0.2-45.9,0.1-51.7c0,0-0.1-2-0.4-1.9C210.4,74.6,199.2,74.7,198.9,74.5z"/>
	<path id="XMLID_31426_" class="st2" d="M192.8,74.5c-0.2-0.1-0.3,1-0.3,1s0,24.9,0.1,25.9c0,0,0.1,1,0.3,1c0,0,7,0.4,7.6,0
		c0.2-0.1,0.3-1,0.3-1s0.1-22.9,0.1-25.8c0,0-0.1-1-0.3-1C200.5,74.5,193,74.6,192.8,74.5z"/>
	<path id="XMLID_31425_" class="st1" d="M214.9,74.5c-0.3-0.2-0.4,1.9-0.4,1.9s0,49.8,0.1,51.8c0,0,0.1,2,0.4,1.9
		c0,0,10.3,0.8,11.2,0c0.3-0.3,0.4-1.9,0.4-1.9s0.2-45.9,0.1-51.7c0,0-0.1-2-0.4-1.9C226.4,74.6,215.2,74.7,214.9,74.5z"/>
	<path id="XMLID_31424_" class="st2" d="M208.8,74.5c-0.2-0.1-0.3,1-0.3,1s0,24.9,0.1,25.9c0,0,0.1,1,0.3,1c0,0,7,0.4,7.6,0
		c0.2-0.1,0.3-1,0.3-1s0.1-22.9,0.1-25.8c0,0-0.1-1-0.3-1C216.5,74.5,209,74.6,208.8,74.5z"/>
	<g id="XMLID_31420_">
		<path id="XMLID_31423_" class="st3" d="M32.1,18.5c0-0.2,0-0.4,0-0.6c0-0.8-0.1-1.6-0.3-2.4c-0.2-0.9-0.5-1.8-0.8-2.7
			c0,0-0.1-0.1-0.2-0.2c-0.5-1.5-1.2-2.7-2.3-3.6c-0.9-1-2.1-1.8-3.5-2.3c-0.7-0.4-1.4-0.8-2.2-1.2c0,0-0.5,0-1.4,0
			c-0.9-0.3-1.8-0.4-2.7-0.4c-0.2,0-0.4,0-0.6,0c-0.8,0-1.6,0.1-2.4,0.3c-0.9,0.2-1.8,0.5-2.7,0.8c0,0-0.1,0.1-0.2,0.2
			c-1.5,0.5-2.7,1.2-3.6,2.3c-1.1,0.9-1.9,2.1-2.4,3.5c-0.4,0.7-0.8,1.4-1.2,2.2c0,0,0,0.5,0,1.4c-0.3,0.9-0.4,1.8-0.4,2.7
			c0,0.2,0,0.4,0,0.6c0,0.8,0.1,1.6,0.3,2.4c0.2,0.9,0.5,1.8,0.8,2.7c0,0,0.1,0.1,0.2,0.2C7,26,7.8,27.1,8.9,28
			c0.9,1.1,2.1,1.9,3.5,2.4c0.7,0.4,1.4,0.8,2.2,1.2c0,0,0.5,0,1.4,0c0.9,0.3,1.8,0.4,2.7,0.4c0.2,0,0.4,0,0.6,0
			c0.8,0,1.6-0.1,2.4-0.3c0.9-0.2,1.8-0.5,2.7-0.8c0,0,0.1-0.1,0.2-0.2c1.5-0.5,2.7-1.2,3.6-2.3c1.1-0.9,1.9-2.1,2.4-3.5
			c0.4-0.7,0.8-1.4,1.2-2.2c0,0,0-0.5,0-1.4C32.1,20.3,32.2,19.4,32.1,18.5z"/>
		<g id="XMLID_31421_">
			<path id="XMLID_31422_" class="st4" d="M25,18.5c0-0.1,0-0.2,0-0.3c0-0.4,0-0.7-0.1-1.1s-0.2-0.8-0.4-1.3c0,0,0,0-0.1-0.1
				c-0.2-0.7-0.6-1.2-1.1-1.7c-0.4-0.5-1-0.9-1.6-1.1c-0.3-0.2-0.7-0.4-1-0.5c0,0-0.2,0-0.6,0c-0.4-0.1-0.9-0.2-1.3-0.2
				c-0.1,0-0.2,0-0.3,0c-0.4,0-0.7,0-1.1,0.1s-0.8,0.2-1.3,0.4c0,0,0,0-0.1,0.1c-0.7,0.2-1.2,0.6-1.7,1.1c-0.5,0.4-0.9,1-1.1,1.6
				c-0.2,0.3-0.4,0.7-0.5,1c0,0,0,0.2,0,0.6c-0.1,0.4-0.2,0.9-0.2,1.3c0,0.1,0,0.2,0,0.3c0,0.4,0,0.7,0.1,1.1s0.2,0.8,0.4,1.3
				c0,0,0,0,0.1,0.1c0.2,0.7,0.6,1.2,1.1,1.7c0.4,0.5,1,0.9,1.6,1.1c0.3,0.2,0.7,0.4,1,0.5c0,0,0.2,0,0.6,0c0.4,0.1,0.9,0.2,1.3,0.2
				c0.1,0,0.2,0,0.3,0c0.4,0,0.7,0,1.1-0.1s0.8-0.2,1.3-0.4c0,0,0,0,0.1-0.1c0.7-0.2,1.2-0.6,1.7-1.1c0.5-0.4,0.9-1,1.1-1.6
				c0.2-0.3,0.4-0.7,0.5-1c0,0,0-0.2,0-0.6C24.9,19.4,25,18.9,25,18.5z"/>
		</g>
	</g>
	<path id="XMLID_31419_" class="st2" d="M39,10.5c-0.6-0.1-0.8,0.9-0.8,0.9s0,22.2,0.3,23.1c0,0,0.3,0.9,0.8,0.9
		c0,0,20.9,0.4,22.8,0c0.6-0.1,0.8-0.9,0.8-0.9s0.4-20.5,0.3-23.1c0,0-0.3-0.9-0.8-0.9C62.3,10.5,39.7,10.6,39,10.5z"/>
	<path id="XMLID_31418_" class="st2" d="M39,40.5c-0.6-0.1-0.8,0.9-0.8,0.9s0,22.2,0.3,23.1c0,0,0.3,0.9,0.8,0.9
		c0,0,20.9,0.4,22.8,0c0.6-0.1,0.8-0.9,0.8-0.9s0.4-20.5,0.3-23.1c0,0-0.3-0.9-0.8-0.9C62.3,40.5,39.7,40.6,39,40.5z"/>
	<path id="XMLID_31417_" class="st2" d="M69,10.5c-0.6-0.1-0.8,0.9-0.8,0.9s0,22.2,0.3,23.1c0,0,0.3,0.9,0.8,0.9
		c0,0,20.9,0.4,22.8,0c0.6-0.1,0.8-0.9,0.8-0.9s0.4-20.5,0.3-23.1c0,0-0.3-0.9-0.8-0.9C92.3,10.5,69.7,10.6,69,10.5z"/>
	<path id="XMLID_31416_" class="st2" d="M69,40.5c-0.6-0.1-0.8,0.9-0.8,0.9s0,22.2,0.3,23.1c0,0,0.3,0.9,0.8,0.9
		c0,0,20.9,0.4,22.8,0c0.6-0.1,0.8-0.9,0.8-0.9s0.4-20.5,0.3-23.1c0,0-0.3-0.9-0.8-0.9C92.3,40.5,69.7,40.6,69,40.5z"/>
	<path id="XMLID_31415_" class="st2" d="M99,10.5c-0.6-0.1-0.8,0.9-0.8,0.9s0,22.2,0.3,23.1c0,0,0.3,0.9,0.8,0.9
		c0,0,20.9,0.4,22.8,0c0.6-0.1,0.8-0.9,0.8-0.9s0.4-20.5,0.3-23.1c0,0-0.3-0.9-0.8-0.9C122.3,10.5,99.7,10.6,99,10.5z"/>
	<path id="XMLID_31414_" class="st2" d="M99,40.5c-0.6-0.1-0.8,0.9-0.8,0.9s0,22.2,0.3,23.1c0,0,0.3,0.9,0.8,0.9
		c0,0,20.9,0.4,22.8,0c0.6-0.1,0.8-0.9,0.8-0.9s0.4-20.5,0.3-23.1c0,0-0.3-0.9-0.8-0.9C122.3,40.5,99.7,40.6,99,40.5z"/>
	<path id="XMLID_31413_" class="st2" d="M129,10.5c-0.6-0.1-0.8,0.9-0.8,0.9s0,22.2,0.3,23.1c0,0,0.3,0.9,0.8,0.9
		c0,0,20.9,0.4,22.8,0c0.6-0.1,0.8-0.9,0.8-0.9s0.4-20.5,0.3-23.1c0,0-0.3-0.9-0.8-0.9C152.3,10.5,129.7,10.6,129,10.5z"/>
	<path id="XMLID_31412_" class="st2" d="M129,40.5c-0.6-0.1-0.8,0.9-0.8,0.9s0,22.2,0.3,23.1c0,0,0.3,0.9,0.8,0.9
		c0,0,20.9,0.4,22.8,0c0.6-0.1,0.8-0.9,0.8-0.9s0.4-20.5,0.3-23.1c0,0-0.3-0.9-0.8-0.9C152.3,40.5,129.7,40.6,129,40.5z"/>
	<path id="XMLID_31411_" class="st4" d="M195.4,58.5c-0.3,0-0.4,0.2-0.4,0.2s0,6.2,0.1,6.5c0,0,0.1,0.3,0.4,0.2c0,0,10.9,0.1,11.9,0
		c0.3,0,0.4-0.2,0.4-0.2s0.2-5.7,0.1-6.5c0,0-0.1-0.3-0.4-0.2C207.6,58.5,195.8,58.5,195.4,58.5z"/>
	<path id="XMLID_31410_" class="st4" d="M211.5,58.5c-0.3,0-0.4,0.2-0.4,0.2s0,6.2,0.1,6.5c0,0,0.1,0.3,0.4,0.2c0,0,10.9,0.1,11.9,0
		c0.3,0,0.4-0.2,0.4-0.2s0.2-5.7,0.1-6.5c0,0-0.1-0.3-0.4-0.2C223.7,58.5,211.9,58.5,211.5,58.5z"/>
	<path id="XMLID_31409_" class="st4" d="M163.3,58.5c-0.3,0-0.4,0.2-0.4,0.2s0,6.2,0.1,6.5c0,0,0.1,0.3,0.4,0.2c0,0,10.9,0.1,11.9,0
		c0.3,0,0.4-0.2,0.4-0.2s0.2-5.7,0.1-6.5c0,0-0.1-0.3-0.4-0.2C175.5,58.5,163.6,58.5,163.3,58.5z"/>
	<path id="XMLID_31408_" class="st4" d="M179.4,58.5c-0.3,0-0.4,0.2-0.4,0.2s0,6.2,0.1,6.5c0,0,0.1,0.3,0.4,0.2c0,0,10.9,0.1,11.9,0
		c0.3,0,0.4-0.2,0.4-0.2s0.2-5.7,0.1-6.5c0,0-0.1-0.3-0.4-0.2C191.5,58.5,179.7,58.5,179.4,58.5z"/>
	<g id="XMLID_31403_">
		<path id="XMLID_31407_" class="st3" d="M175.9,17.5c0-0.1,0-0.2,0-0.3c0-0.4,0-0.8-0.1-1.2c-0.1-0.5-0.2-0.9-0.4-1.4
			c0,0,0,0-0.1-0.1c-0.2-0.8-0.7-1.4-1.2-1.9c-0.5-0.6-1.1-1-1.8-1.2c-0.4-0.2-0.7-0.4-1.2-0.6c0,0-0.3,0-0.7,0
			c-0.5-0.2-1-0.2-1.4-0.2c-0.1,0-0.2,0-0.3,0c-0.4,0-0.8,0-1.2,0.1c-0.5,0.1-0.9,0.2-1.4,0.4c0,0,0,0-0.1,0.1
			c-0.8,0.2-1.4,0.7-1.9,1.2c-0.6,0.5-1,1.1-1.2,1.8c-0.2,0.4-0.4,0.7-0.6,1.2c0,0,0,0.3,0,0.7c-0.2,0.5-0.2,1-0.2,1.4
			c0,0.1,0,0.2,0,0.3c0,0.4,0,0.8,0.1,1.2c0.1,0.5,0.2,0.9,0.4,1.4c0,0,0,0,0.1,0.1c0.2,0.8,0.7,1.4,1.2,1.9c0.5,0.6,1.1,1,1.8,1.2
			c0.4,0.2,0.7,0.4,1.2,0.6c0,0,0.3,0,0.7,0c0.5,0.2,1,0.2,1.4,0.2c0.1,0,0.2,0,0.3,0c0.4,0,0.8,0,1.2-0.1c0.5-0.1,0.9-0.2,1.4-0.4
			c0,0,0,0,0.1-0.1c0.8-0.2,1.4-0.7,1.9-1.2c0.6-0.5,1-1.1,1.2-1.8c0.2-0.4,0.4-0.7,0.6-1.2c0,0,0-0.3,0-0.7
			C175.8,18.5,175.9,18,175.9,17.5z"/>
		<g id="XMLID_31405_">
			<path id="XMLID_31406_" class="st4" d="M173.5,17.5c0-0.1,0-0.1,0-0.2c0-0.3,0-0.6-0.1-0.8c-0.1-0.3-0.2-0.6-0.3-0.9
				c0,0,0,0-0.1-0.1c-0.2-0.5-0.4-0.9-0.8-1.2c-0.3-0.4-0.7-0.7-1.2-0.8c-0.2-0.1-0.5-0.3-0.8-0.4c0,0-0.2,0-0.5,0
				c-0.3-0.1-0.6-0.2-1-0.1c-0.1,0-0.1,0-0.2,0c-0.3,0-0.6,0-0.8,0.1c-0.3,0.1-0.6,0.2-0.9,0.3c0,0,0,0-0.1,0.1
				c-0.5,0.2-0.9,0.4-1.2,0.8c-0.4,0.3-0.7,0.7-0.8,1.2c-0.1,0.2-0.3,0.5-0.4,0.8c0,0,0,0.2,0,0.5c-0.1,0.3-0.2,0.6-0.1,1
				c0,0.1,0,0.1,0,0.2c0,0.3,0,0.6,0.1,0.8c0.1,0.3,0.2,0.6,0.3,0.9c0,0,0,0,0.1,0.1c0.2,0.5,0.4,0.9,0.8,1.2
				c0.3,0.4,0.7,0.7,1.2,0.8c0.2,0.1,0.5,0.3,0.8,0.4c0,0,0.2,0,0.5,0c0.3,0.1,0.6,0.2,1,0.1c0.1,0,0.1,0,0.2,0c0.3,0,0.6,0,0.8-0.1
				c0.3-0.1,0.6-0.2,0.9-0.3c0,0,0,0,0.1-0.1c0.5-0.2,0.9-0.4,1.2-0.8c0.4-0.3,0.7-0.7,0.8-1.2c0.1-0.2,0.3-0.5,0.4-0.8
				c0,0,0-0.2,0-0.5C173.5,18.2,173.5,17.8,173.5,17.5z"/>
		</g>
		<path id="XMLID_31404_" class="st4" d="M168.3,13v0.2c0,0,0,4.7,0,4.9v0.2c0,0,1.1,0.1,1.2,0v-0.2c0,0,0-4.3,0-4.8v-0.2
			C169.6,13,168.4,13,168.3,13z"/>
	</g>
	<g id="XMLID_31398_">
		<path id="XMLID_31402_" class="st3" d="M192.1,17.5c0-0.1,0-0.2,0-0.3c0-0.4,0-0.8-0.1-1.2c-0.1-0.5-0.2-0.9-0.4-1.4
			c0,0,0,0-0.1-0.1c-0.2-0.8-0.7-1.4-1.2-1.9c-0.5-0.6-1.1-1-1.8-1.2c-0.4-0.2-0.7-0.4-1.2-0.6c0,0-0.3,0-0.7,0
			c-0.5-0.2-1-0.2-1.4-0.2c-0.1,0-0.2,0-0.3,0c-0.4,0-0.8,0-1.2,0.1c-0.5,0.1-0.9,0.2-1.4,0.4c0,0,0,0-0.1,0.1
			c-0.8,0.2-1.4,0.7-1.9,1.2c-0.6,0.5-1,1.1-1.2,1.8c-0.2,0.4-0.4,0.7-0.6,1.2c0,0,0,0.3,0,0.7c-0.2,0.5-0.2,1-0.2,1.4
			c0,0.1,0,0.2,0,0.3c0,0.4,0,0.8,0.1,1.2c0.1,0.5,0.2,0.9,0.4,1.4c0,0,0,0,0.1,0.1c0.2,0.8,0.7,1.4,1.2,1.9c0.5,0.6,1.1,1,1.8,1.2
			c0.4,0.2,0.7,0.4,1.2,0.6c0,0,0.3,0,0.7,0c0.5,0.2,1,0.2,1.4,0.2c0.1,0,0.2,0,0.3,0c0.4,0,0.8,0,1.2-0.1c0.5-0.1,0.9-0.2,1.4-0.4
			c0,0,0,0,0.1-0.1c0.8-0.2,1.4-0.7,1.9-1.2c0.6-0.5,1-1.1,1.2-1.8c0.2-0.4,0.4-0.7,0.6-1.2c0,0,0-0.3,0-0.7
			C192.1,18.5,192.1,18,192.1,17.5z"/>
		<g id="XMLID_31400_">
			<path id="XMLID_31401_" class="st4" d="M189.8,17.5c0-0.1,0-0.1,0-0.2c0-0.3,0-0.6-0.1-0.8c-0.1-0.3-0.2-0.6-0.3-0.9
				c0,0,0,0-0.1-0.1c-0.2-0.5-0.4-0.9-0.8-1.2c-0.3-0.4-0.7-0.7-1.2-0.8c-0.2-0.1-0.5-0.3-0.8-0.4c0,0-0.2,0-0.5,0
				c-0.3-0.1-0.6-0.2-1-0.1c-0.1,0-0.1,0-0.2,0c-0.3,0-0.6,0-0.8,0.1c-0.3,0.1-0.6,0.2-0.9,0.3c0,0,0,0-0.1,0.1
				c-0.5,0.2-0.9,0.4-1.2,0.8c-0.4,0.3-0.7,0.7-0.8,1.2c-0.1,0.2-0.3,0.5-0.4,0.8c0,0,0,0.2,0,0.5c-0.1,0.3-0.2,0.6-0.1,1
				c0,0.1,0,0.1,0,0.2c0,0.3,0,0.6,0.1,0.8c0.1,0.3,0.2,0.6,0.3,0.9c0,0,0,0,0.1,0.1c0.2,0.5,0.4,0.9,0.8,1.2
				c0.3,0.4,0.7,0.7,1.2,0.8c0.2,0.1,0.5,0.3,0.8,0.4c0,0,0.2,0,0.5,0c0.3,0.1,0.6,0.2,1,0.1c0.1,0,0.1,0,0.2,0c0.3,0,0.6,0,0.8-0.1
				c0.3-0.1,0.6-0.2,0.9-0.3c0,0,0,0,0.1-0.1c0.5-0.2,0.9-0.4,1.2-0.8c0.4-0.3,0.7-0.7,0.8-1.2c0.1-0.2,0.3-0.5,0.4-0.8
				c0,0,0-0.2,0-0.5C189.7,18.2,189.8,17.8,189.8,17.5z"/>
		</g>
		<path id="XMLID_31399_" class="st4" d="M184.6,13v0.2c0,0,0,4.7,0,4.9v0.2c0,0,1.1,0.1,1.2,0v-0.2c0,0,0-4.3,0-4.8v-0.2
			C185.8,13,184.6,13,184.6,13z"/>
	</g>
	<g id="XMLID_31393_">
		<path id="XMLID_31397_" class="st3" d="M208.4,17.5c0-0.1,0-0.2,0-0.3c0-0.4,0-0.8-0.1-1.2c-0.1-0.5-0.2-0.9-0.4-1.4
			c0,0,0,0-0.1-0.1c-0.2-0.8-0.7-1.4-1.2-1.9c-0.5-0.6-1.1-1-1.8-1.2c-0.4-0.2-0.7-0.4-1.2-0.6c0,0-0.3,0-0.7,0
			c-0.5-0.2-1-0.2-1.4-0.2c-0.1,0-0.2,0-0.3,0c-0.4,0-0.8,0-1.2,0.1c-0.5,0.1-0.9,0.2-1.4,0.4c0,0,0,0-0.1,0.1
			c-0.8,0.2-1.4,0.7-1.9,1.2c-0.6,0.5-1,1.1-1.2,1.8c-0.2,0.4-0.4,0.7-0.6,1.2c0,0,0,0.3,0,0.7c-0.2,0.5-0.2,1-0.2,1.4
			c0,0.1,0,0.2,0,0.3c0,0.4,0,0.8,0.1,1.2c0.1,0.5,0.2,0.9,0.4,1.4c0,0,0,0,0.1,0.1c0.2,0.8,0.7,1.4,1.2,1.9c0.5,0.6,1.1,1,1.8,1.2
			c0.4,0.2,0.7,0.4,1.2,0.6c0,0,0.3,0,0.7,0c0.5,0.2,1,0.2,1.4,0.2c0.1,0,0.2,0,0.3,0c0.4,0,0.8,0,1.2-0.1c0.5-0.1,0.9-0.2,1.4-0.4
			c0,0,0,0,0.1-0.1c0.8-0.2,1.4-0.7,1.9-1.2c0.6-0.5,1-1.1,1.2-1.8c0.2-0.4,0.4-0.7,0.6-1.2c0,0,0-0.3,0-0.7
			C208.3,18.5,208.4,18,208.4,17.5z"/>
		<g id="XMLID_31395_">
			<path id="XMLID_31396_" class="st4" d="M206,17.5c0-0.1,0-0.1,0-0.2c0-0.3,0-0.6-0.1-0.8c-0.1-0.3-0.2-0.6-0.3-0.9
				c0,0,0,0-0.1-0.1c-0.2-0.5-0.4-0.9-0.8-1.2c-0.3-0.4-0.7-0.7-1.2-0.8c-0.2-0.1-0.5-0.3-0.8-0.4c0,0-0.2,0-0.5,0
				c-0.3-0.1-0.6-0.2-1-0.1c-0.1,0-0.1,0-0.2,0c-0.3,0-0.6,0-0.8,0.1c-0.3,0.1-0.6,0.2-0.9,0.3c0,0,0,0-0.1,0.1
				c-0.5,0.2-0.9,0.4-1.2,0.8c-0.4,0.3-0.7,0.7-0.8,1.2c-0.1,0.2-0.3,0.5-0.4,0.8c0,0,0,0.2,0,0.5c-0.1,0.3-0.2,0.6-0.1,1
				c0,0.1,0,0.1,0,0.2c0,0.3,0,0.6,0.1,0.8c0.1,0.3,0.2,0.6,0.3,0.9c0,0,0,0,0.1,0.1c0.2,0.5,0.4,0.9,0.8,1.2
				c0.3,0.4,0.7,0.7,1.2,0.8c0.2,0.1,0.5,0.3,0.8,0.4c0,0,0.2,0,0.5,0c0.3,0.1,0.6,0.2,1,0.1c0.1,0,0.1,0,0.2,0c0.3,0,0.6,0,0.8-0.1
				c0.3-0.1,0.6-0.2,0.9-0.3c0,0,0,0,0.1-0.1c0.5-0.2,0.9-0.4,1.2-0.8c0.4-0.3,0.7-0.7,0.8-1.2c0.1-0.2,0.3-0.5,0.4-0.8
				c0,0,0-0.2,0-0.5C206,18.2,206,17.8,206,17.5z"/>
		</g>
		<path id="XMLID_31394_" class="st4" d="M200.8,13v0.2c0,0,0,4.7,0,4.9v0.2c0,0,1.1,0.1,1.2,0v-0.2c0,0,0-4.3,0-4.8v-0.2
			C202.1,13,200.9,13,200.8,13z"/>
	</g>
	<g id="XMLID_31388_">
		<path id="XMLID_31392_" class="st3" d="M224.6,17.5c0-0.1,0-0.2,0-0.3c0-0.4,0-0.8-0.1-1.2c-0.1-0.5-0.2-0.9-0.4-1.4
			c0,0,0,0-0.1-0.1c-0.2-0.8-0.7-1.4-1.2-1.9c-0.5-0.6-1.1-1-1.8-1.2c-0.4-0.2-0.7-0.4-1.2-0.6c0,0-0.3,0-0.7,0
			c-0.5-0.2-1-0.2-1.4-0.2c-0.1,0-0.2,0-0.3,0c-0.4,0-0.8,0-1.2,0.1c-0.5,0.1-0.9,0.2-1.4,0.4c0,0,0,0-0.1,0.1
			c-0.8,0.2-1.4,0.7-1.9,1.2c-0.6,0.5-1,1.1-1.2,1.8c-0.2,0.4-0.4,0.7-0.6,1.2c0,0,0,0.3,0,0.7c-0.2,0.5-0.2,1-0.2,1.4
			c0,0.1,0,0.2,0,0.3c0,0.4,0,0.8,0.1,1.2c0.1,0.5,0.2,0.9,0.4,1.4c0,0,0,0,0.1,0.1c0.2,0.8,0.7,1.4,1.2,1.9c0.5,0.6,1.1,1,1.8,1.2
			c0.4,0.2,0.7,0.4,1.2,0.6c0,0,0.3,0,0.7,0c0.5,0.2,1,0.2,1.4,0.2c0.1,0,0.2,0,0.3,0c0.4,0,0.8,0,1.2-0.1c0.5-0.1,0.9-0.2,1.4-0.4
			c0,0,0,0,0.1-0.1c0.8-0.2,1.4-0.7,1.9-1.2c0.6-0.5,1-1.1,1.2-1.8c0.2-0.4,0.4-0.7,0.6-1.2c0,0,0-0.3,0-0.7
			C224.6,18.5,224.6,18,224.6,17.5z"/>
		<g id="XMLID_31390_">
			<path id="XMLID_31391_" class="st4" d="M222.3,17.5c0-0.1,0-0.1,0-0.2c0-0.3,0-0.6-0.1-0.8c-0.1-0.3-0.2-0.6-0.3-0.9
				c0,0,0,0-0.1-0.1c-0.2-0.5-0.4-0.9-0.8-1.2c-0.3-0.4-0.7-0.7-1.2-0.8c-0.2-0.1-0.5-0.3-0.8-0.4c0,0-0.2,0-0.5,0
				c-0.3-0.1-0.6-0.2-1-0.1c-0.1,0-0.1,0-0.2,0c-0.3,0-0.6,0-0.8,0.1c-0.3,0.1-0.6,0.2-0.9,0.3c0,0,0,0-0.1,0.1
				c-0.5,0.2-0.9,0.4-1.2,0.8c-0.4,0.3-0.7,0.7-0.8,1.2c-0.1,0.2-0.3,0.5-0.4,0.8c0,0,0,0.2,0,0.5c-0.1,0.3-0.2,0.6-0.1,1
				c0,0.1,0,0.1,0,0.2c0,0.3,0,0.6,0.1,0.8c0.1,0.3,0.2,0.6,0.3,0.9c0,0,0,0,0.1,0.1c0.2,0.5,0.4,0.9,0.8,1.2
				c0.3,0.4,0.7,0.7,1.2,0.8c0.2,0.1,0.5,0.3,0.8,0.4c0,0,0.2,0,0.5,0c0.3,0.1,0.6,0.2,1,0.1c0.1,0,0.1,0,0.2,0c0.3,0,0.6,0,0.8-0.1
				c0.3-0.1,0.6-0.2,0.9-0.3c0,0,0,0,0.1-0.1c0.5-0.2,0.9-0.4,1.2-0.8c0.4-0.3,0.7-0.7,0.8-1.2c0.1-0.2,0.3-0.5,0.4-0.8
				c0,0,0-0.2,0-0.5C222.2,18.2,222.3,17.8,222.3,17.5z"/>
		</g>
		<path id="XMLID_31389_" class="st4" d="M217.1,13v0.2c0,0,0,4.7,0,4.9v0.2c0,0,1.1,0.1,1.2,0v-0.2c0,0,0-4.3,0-4.8v-0.2
			C218.3,13,217.1,13,217.1,13z"/>
	</g>
	<g id="XMLID_31383_">
		<path id="XMLID_31387_" class="st3" d="M175.9,34.5c0-0.1,0-0.2,0-0.3c0-0.4,0-0.8-0.1-1.2c-0.1-0.5-0.2-0.9-0.4-1.4
			c0,0,0,0-0.1-0.1c-0.2-0.8-0.7-1.4-1.2-1.9c-0.5-0.6-1.1-1-1.8-1.2c-0.4-0.2-0.7-0.4-1.2-0.6c0,0-0.3,0-0.7,0
			c-0.5-0.2-1-0.2-1.4-0.2c-0.1,0-0.2,0-0.3,0c-0.4,0-0.8,0-1.2,0.1c-0.5,0.1-0.9,0.2-1.4,0.4c0,0,0,0-0.1,0.1
			c-0.8,0.2-1.4,0.7-1.9,1.2c-0.6,0.5-1,1.1-1.2,1.8c-0.2,0.4-0.4,0.7-0.6,1.2c0,0,0,0.3,0,0.7c-0.2,0.5-0.2,1-0.2,1.4
			c0,0.1,0,0.2,0,0.3c0,0.4,0,0.8,0.1,1.2c0.1,0.5,0.2,0.9,0.4,1.4c0,0,0,0,0.1,0.1c0.2,0.8,0.7,1.4,1.2,1.9c0.5,0.6,1.1,1,1.8,1.2
			c0.4,0.2,0.7,0.4,1.2,0.6c0,0,0.3,0,0.7,0c0.5,0.2,1,0.2,1.4,0.2c0.1,0,0.2,0,0.3,0c0.4,0,0.8,0,1.2-0.1c0.5-0.1,0.9-0.2,1.4-0.4
			c0,0,0,0,0.1-0.1c0.8-0.2,1.4-0.7,1.9-1.2c0.6-0.5,1-1.1,1.2-1.8c0.2-0.4,0.4-0.7,0.6-1.2c0,0,0-0.3,0-0.7
			C175.8,35.5,175.9,35,175.9,34.5z"/>
		<g id="XMLID_31385_">
			<path id="XMLID_31386_" class="st4" d="M173.5,34.5c0-0.1,0-0.1,0-0.2c0-0.3,0-0.6-0.1-0.8c-0.1-0.3-0.2-0.6-0.3-0.9
				c0,0,0,0-0.1-0.1c-0.2-0.5-0.4-0.9-0.8-1.2c-0.3-0.4-0.7-0.7-1.2-0.8c-0.2-0.1-0.5-0.3-0.8-0.4c0,0-0.2,0-0.5,0
				c-0.3-0.1-0.6-0.2-1-0.1c-0.1,0-0.1,0-0.2,0c-0.3,0-0.6,0-0.8,0.1c-0.3,0.1-0.6,0.2-0.9,0.3c0,0,0,0-0.1,0.1
				c-0.5,0.2-0.9,0.4-1.2,0.8c-0.4,0.3-0.7,0.7-0.8,1.2c-0.1,0.2-0.3,0.5-0.4,0.8c0,0,0,0.2,0,0.5c-0.1,0.3-0.2,0.6-0.1,1
				c0,0.1,0,0.1,0,0.2c0,0.3,0,0.6,0.1,0.8c0.1,0.3,0.2,0.6,0.3,0.9c0,0,0,0,0.1,0.1c0.2,0.5,0.4,0.9,0.8,1.2
				c0.3,0.4,0.7,0.7,1.2,0.8c0.2,0.1,0.5,0.3,0.8,0.4c0,0,0.2,0,0.5,0c0.3,0.1,0.6,0.2,1,0.1c0.1,0,0.1,0,0.2,0c0.3,0,0.6,0,0.8-0.1
				c0.3-0.1,0.6-0.2,0.9-0.3c0,0,0,0,0.1-0.1c0.5-0.2,0.9-0.4,1.2-0.8c0.4-0.3,0.7-0.7,0.8-1.2c0.1-0.2,0.3-0.5,0.4-0.8
				c0,0,0-0.2,0-0.5C173.5,35.2,173.5,34.8,173.5,34.5z"/>
		</g>
		<path id="XMLID_31384_" class="st4" d="M168.3,30v0.2c0,0,0,4.7,0,4.9v0.2c0,0,1.1,0.1,1.2,0v-0.2c0,0,0-4.3,0-4.8v-0.2
			C169.6,30,168.4,30,168.3,30z"/>
	</g>
	<g id="XMLID_31378_">
		<path id="XMLID_31382_" class="st3" d="M192.1,34.5c0-0.1,0-0.2,0-0.3c0-0.4,0-0.8-0.1-1.2c-0.1-0.5-0.2-0.9-0.4-1.4
			c0,0,0,0-0.1-0.1c-0.2-0.8-0.7-1.4-1.2-1.9c-0.5-0.6-1.1-1-1.8-1.2c-0.4-0.2-0.7-0.4-1.2-0.6c0,0-0.3,0-0.7,0
			c-0.5-0.2-1-0.2-1.4-0.2c-0.1,0-0.2,0-0.3,0c-0.4,0-0.8,0-1.2,0.1c-0.5,0.1-0.9,0.2-1.4,0.4c0,0,0,0-0.1,0.1
			c-0.8,0.2-1.4,0.7-1.9,1.2c-0.6,0.5-1,1.1-1.2,1.8c-0.2,0.4-0.4,0.7-0.6,1.2c0,0,0,0.3,0,0.7c-0.2,0.5-0.2,1-0.2,1.4
			c0,0.1,0,0.2,0,0.3c0,0.4,0,0.8,0.1,1.2c0.1,0.5,0.2,0.9,0.4,1.4c0,0,0,0,0.1,0.1c0.2,0.8,0.7,1.4,1.2,1.9c0.5,0.6,1.1,1,1.8,1.2
			c0.4,0.2,0.7,0.4,1.2,0.6c0,0,0.3,0,0.7,0c0.5,0.2,1,0.2,1.4,0.2c0.1,0,0.2,0,0.3,0c0.4,0,0.8,0,1.2-0.1c0.5-0.1,0.9-0.2,1.4-0.4
			c0,0,0,0,0.1-0.1c0.8-0.2,1.4-0.7,1.9-1.2c0.6-0.5,1-1.1,1.2-1.8c0.2-0.4,0.4-0.7,0.6-1.2c0,0,0-0.3,0-0.7
			C192.1,35.5,192.1,35,192.1,34.5z"/>
		<g id="XMLID_31380_">
			<path id="XMLID_31381_" class="st4" d="M189.8,34.5c0-0.1,0-0.1,0-0.2c0-0.3,0-0.6-0.1-0.8c-0.1-0.3-0.2-0.6-0.3-0.9
				c0,0,0,0-0.1-0.1c-0.2-0.5-0.4-0.9-0.8-1.2c-0.3-0.4-0.7-0.7-1.2-0.8c-0.2-0.1-0.5-0.3-0.8-0.4c0,0-0.2,0-0.5,0
				c-0.3-0.1-0.6-0.2-1-0.1c-0.1,0-0.1,0-0.2,0c-0.3,0-0.6,0-0.8,0.1c-0.3,0.1-0.6,0.2-0.9,0.3c0,0,0,0-0.1,0.1
				c-0.5,0.2-0.9,0.4-1.2,0.8c-0.4,0.3-0.7,0.7-0.8,1.2c-0.1,0.2-0.3,0.5-0.4,0.8c0,0,0,0.2,0,0.5c-0.1,0.3-0.2,0.6-0.1,1
				c0,0.1,0,0.1,0,0.2c0,0.3,0,0.6,0.1,0.8c0.1,0.3,0.2,0.6,0.3,0.9c0,0,0,0,0.1,0.1c0.2,0.5,0.4,0.9,0.8,1.2
				c0.3,0.4,0.7,0.7,1.2,0.8c0.2,0.1,0.5,0.3,0.8,0.4c0,0,0.2,0,0.5,0c0.3,0.1,0.6,0.2,1,0.1c0.1,0,0.1,0,0.2,0c0.3,0,0.6,0,0.8-0.1
				c0.3-0.1,0.6-0.2,0.9-0.3c0,0,0,0,0.1-0.1c0.5-0.2,0.9-0.4,1.2-0.8c0.4-0.3,0.7-0.7,0.8-1.2c0.1-0.2,0.3-0.5,0.4-0.8
				c0,0,0-0.2,0-0.5C189.7,35.2,189.8,34.8,189.8,34.5z"/>
		</g>
		<path id="XMLID_31379_" class="st4" d="M184.6,30v0.2c0,0,0,4.7,0,4.9v0.2c0,0,1.1,0.1,1.2,0v-0.2c0,0,0-4.3,0-4.8v-0.2
			C185.8,30,184.6,30,184.6,30z"/>
	</g>
	<g id="XMLID_31373_">
		<path id="XMLID_31377_" class="st3" d="M208.4,34.5c0-0.1,0-0.2,0-0.3c0-0.4,0-0.8-0.1-1.2c-0.1-0.5-0.2-0.9-0.4-1.4
			c0,0,0,0-0.1-0.1c-0.2-0.8-0.7-1.4-1.2-1.9c-0.5-0.6-1.1-1-1.8-1.2c-0.4-0.2-0.7-0.4-1.2-0.6c0,0-0.3,0-0.7,0
			c-0.5-0.2-1-0.2-1.4-0.2c-0.1,0-0.2,0-0.3,0c-0.4,0-0.8,0-1.2,0.1c-0.5,0.1-0.9,0.2-1.4,0.4c0,0,0,0-0.1,0.1
			c-0.8,0.2-1.4,0.7-1.9,1.2c-0.6,0.5-1,1.1-1.2,1.8c-0.2,0.4-0.4,0.7-0.6,1.2c0,0,0,0.3,0,0.7c-0.2,0.5-0.2,1-0.2,1.4
			c0,0.1,0,0.2,0,0.3c0,0.4,0,0.8,0.1,1.2c0.1,0.5,0.2,0.9,0.4,1.4c0,0,0,0,0.1,0.1c0.2,0.8,0.7,1.4,1.2,1.9c0.5,0.6,1.1,1,1.8,1.2
			c0.4,0.2,0.7,0.4,1.2,0.6c0,0,0.3,0,0.7,0c0.5,0.2,1,0.2,1.4,0.2c0.1,0,0.2,0,0.3,0c0.4,0,0.8,0,1.2-0.1c0.5-0.1,0.9-0.2,1.4-0.4
			c0,0,0,0,0.1-0.1c0.8-0.2,1.4-0.7,1.9-1.2c0.6-0.5,1-1.1,1.2-1.8c0.2-0.4,0.4-0.7,0.6-1.2c0,0,0-0.3,0-0.7
			C208.3,35.5,208.4,35,208.4,34.5z"/>
		<g id="XMLID_31375_">
			<path id="XMLID_31376_" class="st4" d="M206,34.5c0-0.1,0-0.1,0-0.2c0-0.3,0-0.6-0.1-0.8c-0.1-0.3-0.2-0.6-0.3-0.9
				c0,0,0,0-0.1-0.1c-0.2-0.5-0.4-0.9-0.8-1.2c-0.3-0.4-0.7-0.7-1.2-0.8c-0.2-0.1-0.5-0.3-0.8-0.4c0,0-0.2,0-0.5,0
				c-0.3-0.1-0.6-0.2-1-0.1c-0.1,0-0.1,0-0.2,0c-0.3,0-0.6,0-0.8,0.1c-0.3,0.1-0.6,0.2-0.9,0.3c0,0,0,0-0.1,0.1
				c-0.5,0.2-0.9,0.4-1.2,0.8c-0.4,0.3-0.7,0.7-0.8,1.2c-0.1,0.2-0.3,0.5-0.4,0.8c0,0,0,0.2,0,0.5c-0.1,0.3-0.2,0.6-0.1,1
				c0,0.1,0,0.1,0,0.2c0,0.3,0,0.6,0.1,0.8c0.1,0.3,0.2,0.6,0.3,0.9c0,0,0,0,0.1,0.1c0.2,0.5,0.4,0.9,0.8,1.2
				c0.3,0.4,0.7,0.7,1.2,0.8c0.2,0.1,0.5,0.3,0.8,0.4c0,0,0.2,0,0.5,0c0.3,0.1,0.6,0.2,1,0.1c0.1,0,0.1,0,0.2,0c0.3,0,0.6,0,0.8-0.1
				c0.3-0.1,0.6-0.2,0.9-0.3c0,0,0,0,0.1-0.1c0.5-0.2,0.9-0.4,1.2-0.8c0.4-0.3,0.7-0.7,0.8-1.2c0.1-0.2,0.3-0.5,0.4-0.8
				c0,0,0-0.2,0-0.5C206,35.2,206,34.8,206,34.5z"/>
		</g>
		<path id="XMLID_31374_" class="st4" d="M200.8,30v0.2c0,0,0,4.7,0,4.9v0.2c0,0,1.1,0.1,1.2,0v-0.2c0,0,0-4.3,0-4.8v-0.2
			C202.1,30,200.9,30,200.8,30z"/>
	</g>
	<g id="XMLID_31368_">
		<path id="XMLID_31372_" class="st3" d="M224.6,34.5c0-0.1,0-0.2,0-0.3c0-0.4,0-0.8-0.1-1.2c-0.1-0.5-0.2-0.9-0.4-1.4
			c0,0,0,0-0.1-0.1c-0.2-0.8-0.7-1.4-1.2-1.9c-0.5-0.6-1.1-1-1.8-1.2c-0.4-0.2-0.7-0.4-1.2-0.6c0,0-0.3,0-0.7,0
			c-0.5-0.2-1-0.2-1.4-0.2c-0.1,0-0.2,0-0.3,0c-0.4,0-0.8,0-1.2,0.1c-0.5,0.1-0.9,0.2-1.4,0.4c0,0,0,0-0.1,0.1
			c-0.8,0.2-1.4,0.7-1.9,1.2c-0.6,0.5-1,1.1-1.2,1.8c-0.2,0.4-0.4,0.7-0.6,1.2c0,0,0,0.3,0,0.7c-0.2,0.5-0.2,1-0.2,1.4
			c0,0.1,0,0.2,0,0.3c0,0.4,0,0.8,0.1,1.2c0.1,0.5,0.2,0.9,0.4,1.4c0,0,0,0,0.1,0.1c0.2,0.8,0.7,1.4,1.2,1.9c0.5,0.6,1.1,1,1.8,1.2
			c0.4,0.2,0.7,0.4,1.2,0.6c0,0,0.3,0,0.7,0c0.5,0.2,1,0.2,1.4,0.2c0.1,0,0.2,0,0.3,0c0.4,0,0.8,0,1.2-0.1c0.5-0.1,0.9-0.2,1.4-0.4
			c0,0,0,0,0.1-0.1c0.8-0.2,1.4-0.7,1.9-1.2c0.6-0.5,1-1.1,1.2-1.8c0.2-0.4,0.4-0.7,0.6-1.2c0,0,0-0.3,0-0.7
			C224.6,35.5,224.6,35,224.6,34.5z"/>
		<g id="XMLID_31370_">
			<path id="XMLID_31371_" class="st4" d="M222.3,34.5c0-0.1,0-0.1,0-0.2c0-0.3,0-0.6-0.1-0.8c-0.1-0.3-0.2-0.6-0.3-0.9
				c0,0,0,0-0.1-0.1c-0.2-0.5-0.4-0.9-0.8-1.2c-0.3-0.4-0.7-0.7-1.2-0.8c-0.2-0.1-0.5-0.3-0.8-0.4c0,0-0.2,0-0.5,0
				c-0.3-0.1-0.6-0.2-1-0.1c-0.1,0-0.1,0-0.2,0c-0.3,0-0.6,0-0.8,0.1c-0.3,0.1-0.6,0.2-0.9,0.3c0,0,0,0-0.1,0.1
				c-0.5,0.2-0.9,0.4-1.2,0.8c-0.4,0.3-0.7,0.7-0.8,1.2c-0.1,0.2-0.3,0.5-0.4,0.8c0,0,0,0.2,0,0.5c-0.1,0.3-0.2,0.6-0.1,1
				c0,0.1,0,0.1,0,0.2c0,0.3,0,0.6,0.1,0.8c0.1,0.3,0.2,0.6,0.3,0.9c0,0,0,0,0.1,0.1c0.2,0.5,0.4,0.9,0.8,1.2
				c0.3,0.4,0.7,0.7,1.2,0.8c0.2,0.1,0.5,0.3,0.8,0.4c0,0,0.2,0,0.5,0c0.3,0.1,0.6,0.2,1,0.1c0.1,0,0.1,0,0.2,0c0.3,0,0.6,0,0.8-0.1
				c0.3-0.1,0.6-0.2,0.9-0.3c0,0,0,0,0.1-0.1c0.5-0.2,0.9-0.4,1.2-0.8c0.4-0.3,0.7-0.7,0.8-1.2c0.1-0.2,0.3-0.5,0.4-0.8
				c0,0,0-0.2,0-0.5C222.2,35.2,222.3,34.8,222.3,34.5z"/>
		</g>
		<path id="XMLID_31369_" class="st4" d="M217.1,30v0.2c0,0,0,4.7,0,4.9v0.2c0,0,1.1,0.1,1.2,0v-0.2c0,0,0-4.3,0-4.8v-0.2
			C218.3,30,217.1,30,217.1,30z"/>
	</g>
	<path id="XMLID_31367_" class="st4" d="M5.3,38.5c-0.3,0-0.4,0.2-0.4,0.2s0,6.2,0.1,6.5c0,0,0.1,0.3,0.4,0.2c0,0,10.9,0.1,11.9,0
		c0.3,0,0.4-0.2,0.4-0.2s0.2-5.7,0.1-6.5c0,0-0.1-0.3-0.4-0.2C17.5,38.5,5.6,38.5,5.3,38.5z"/>
	<path id="XMLID_31366_" class="st4" d="M21.4,38.5c-0.3,0-0.4,0.2-0.4,0.2s0,6.2,0.1,6.5c0,0,0.1,0.3,0.4,0.2c0,0,10.9,0.1,11.9,0
		c0.3,0,0.4-0.2,0.4-0.2s0.2-5.7,0.1-6.5c0,0-0.1-0.3-0.4-0.2C33.5,38.5,21.7,38.5,21.4,38.5z"/>
	<path id="XMLID_31365_" class="st4" d="M5.3,48.5c-0.3,0-0.4,0.2-0.4,0.2s0,6.2,0.1,6.5c0,0,0.1,0.3,0.4,0.2c0,0,10.9,0.1,11.9,0
		c0.3,0,0.4-0.2,0.4-0.2s0.2-5.7,0.1-6.5c0,0-0.1-0.3-0.4-0.2C17.5,48.5,5.6,48.5,5.3,48.5z"/>
	<path id="XMLID_31364_" class="st4" d="M21.4,48.5c-0.3,0-0.4,0.2-0.4,0.2s0,6.2,0.1,6.5c0,0,0.1,0.3,0.4,0.2c0,0,10.9,0.1,11.9,0
		c0.3,0,0.4-0.2,0.4-0.2s0.2-5.7,0.1-6.5c0,0-0.1-0.3-0.4-0.2C33.5,48.5,21.7,48.5,21.4,48.5z"/>
	<path id="XMLID_31363_" class="st4" d="M5.3,58.5c-0.3,0-0.4,0.2-0.4,0.2s0,6.2,0.1,6.5c0,0,0.1,0.3,0.4,0.2c0,0,10.9,0.1,11.9,0
		c0.3,0,0.4-0.2,0.4-0.2s0.2-5.7,0.1-6.5c0,0-0.1-0.3-0.4-0.2C17.5,58.5,5.6,58.5,5.3,58.5z"/>
	<path id="XMLID_31362_" class="st4" d="M21.4,58.5c-0.3,0-0.4,0.2-0.4,0.2s0,6.2,0.1,6.5c0,0,0.1,0.3,0.4,0.2c0,0,10.9,0.1,11.9,0
		c0.3,0,0.4-0.2,0.4-0.2s0.2-5.7,0.1-6.5c0,0-0.1-0.3-0.4-0.2C33.5,58.5,21.7,58.5,21.4,58.5z"/>
</g>
</svg>
