<?xml version="1.0" encoding="utf-8"?>
<!-- Generator: Adobe Illustrator 22.1.0, SVG Export Plug-In . SVG Version: 6.00 Build 0)  -->
<svg version="1.1" id="Layer_1" xmlns="http://www.w3.org/2000/svg" xmlns:xlink="http://www.w3.org/1999/xlink" x="0px" y="0px"
	 viewBox="0 0 432.1 191.3" style="enable-background:new 0 0 432.1 191.3;" xml:space="preserve">
<style type="text/css">
	.st0{opacity:0.1;fill:#584C4F;stroke:#584C4F;stroke-linecap:round;stroke-miterlimit:10;enable-background:new    ;}
	.st1{fill:#FFD767;stroke:#584C4F;stroke-miterlimit:10;}
	.st2{fill:#A36B78;stroke:#584C4F;stroke-linecap:round;stroke-miterlimit:10;}
	.st3{fill:#FFFFFF;stroke:#584C4F;stroke-linecap:round;stroke-miterlimit:10;}
	.st4{fill:#584C4F;stroke:#584C4F;stroke-linecap:round;stroke-miterlimit:10;}
</style>
<path class="st0" d="M430.1,24.3c0,0,0.8-1.8-1.8-1.9C304,18.2,2.4,22.3,2.4,22.3c-2.6,0.2-1.8,1.9-1.8,1.9S0.4,113.9,2.1,188
	c0,0-0.8,1.8,1.8,1.9c75.1,2,210.8,0,211,0c82.3,2.2,213.3-0.1,213.3-0.1c2.6-0.2,1.8-1.9,1.8-1.9
	C433.4,130.7,430.1,24.3,430.1,24.3z"/>
<path class="st1" d="M430.1,14.3c0,0,0.8-1.8-1.8-1.9C304,8.2,2.4,12.3,2.4,12.3c-2.6,0.2-1.8,1.9-1.8,1.9S0.4,103.9,2.1,178
	c0,0-0.8,1.8,1.8,1.9c75.1,2,210.8,0,211,0c82.3,2.2,213.3-0.1,213.3-0.1c2.6-0.2,1.8-1.9,1.8-1.9
	C433.4,120.7,430.1,14.3,430.1,14.3z"/>
<g>
	<path class="st2" d="M430.1,4.3c0,0,0.8-1.8-1.8-1.9C304-1.8,2.4,2.3,2.4,2.3c-2.6,0.2-1.8,1.9-1.8,1.9S0.4,93.9,2.1,168
		c0,0-0.8,1.8,1.8,1.9c75.1,2,210.8,0,211,0c82.3,2.2,213.3-0.1,213.3-0.1c2.6-0.2,1.8-1.9,1.8-1.9C433.4,110.7,430.1,4.3,430.1,4.3
		z"/>
	<path id="XMLID_36908_" class="st3" d="M9,18.9c0,0-2-6.1,8.2-6.3c0,0,177.4-7.1,395.7,0.1c10.2,0.3,8.2,6.3,8.2,6.3
		s1.9,79-3.6,134.2c0,0,2,6.1-8.2,6.3c0,0-169.1,4.9-388.4,0.1c-10.2-0.2-8.2-6.3-8.2-6.3L9,18.9z"/>
</g>
<path id="XMLID_36907_" class="st4" d="M141.1,50.7c0,0,28,75.4-43.3,96.3s-85.6-42.8-85.1-51.5s6.6-82.6,54-76.5
	S133,36.5,141.1,50.7z"/>
<path id="XMLID_36906_" class="st1" d="M110.4,67.9c0,0,14,37.7-21.7,48.2S45.9,94.7,46.1,90.4s3.3-41.3,27-38.2
	C96.8,55.1,106.3,60.7,110.4,67.9z"/>
<g>
	<g>
		<path id="XMLID_36905_" class="st3" d="M219.9,18.1c0,0,6.9-2.5,8.8,3.9s-3.9,7.8-4.7,7.7c-0.8,0-7.5-0.6-6.9-4.9
			S218.6,18.8,219.9,18.1z"/>
		<path id="XMLID_36904_" class="st3" d="M221.5,20.9c0,0,3.4-1.3,4.4,2s-1.9,3.9-2.3,3.9c-0.4,0-3.8-0.3-3.5-2.5
			S220.8,21.2,221.5,20.9z"/>
	</g>
	<g>
		<path id="XMLID_36903_" class="st3" d="M201.7,18.1c0,0,6.9-2.5,8.8,3.9c1.9,6.5-3.9,7.8-4.7,7.7c-0.8,0-7.5-0.6-7-4.9
			S200.4,18.8,201.7,18.1z"/>
		<path id="XMLID_36902_" class="st3" d="M203.3,20.9c0,0,3.4-1.3,4.4,2s-1.9,3.9-2.3,3.9s-3.8-0.3-3.5-2.5S202.6,21.2,203.3,20.9z"
			/>
	</g>
	<g>
		<path id="XMLID_36901_" class="st3" d="M183.5,18.1c0,0,6.9-2.5,8.8,3.9c1.9,6.5-3.9,7.8-4.7,7.7c-0.8,0-7.5-0.6-6.9-4.9
			S182.2,18.8,183.5,18.1z"/>
		<path id="XMLID_36900_" class="st3" d="M185.1,20.9c0,0,3.4-1.3,4.4,2c0.9,3.2-1.9,3.9-2.3,3.9c-0.4,0-3.8-0.3-3.5-2.5
			S184.5,21.2,185.1,20.9z"/>
	</g>
	<g>
		<path id="XMLID_36899_" class="st1" d="M165.4,18.1c0,0,6.9-2.5,8.8,3.9c1.9,6.5-3.9,7.8-4.7,7.7c-0.8,0-7.5-0.6-6.9-4.9
			S164.1,18.8,165.4,18.1z"/>
		<path id="XMLID_36898_" class="st3" d="M166.9,20.9c0,0,3.4-1.3,4.4,2s-1.9,3.9-2.3,3.9c-0.4,0-3.8-0.3-3.5-2.5
			S166.3,21.2,166.9,20.9z"/>
	</g>
</g>
<path id="XMLID_36897_" class="st4" d="M371.8,155.9c0,0,73.1-33.5,37.5-98.7S318.5,27,312.7,33.5s-53.7,63.1-15.9,92.3
	S355.9,160.3,371.8,155.9z"/>
<path id="XMLID_36896_" class="st1" d="M362.1,122.1c0,0,36.6-16.8,18.7-49.4s-45.4-15.1-48.3-12c-2.9,3.2-26.9,31.5-7.9,46.1
	C343.6,121.5,354.2,124.2,362.1,122.1z"/>
<g>
	<g>
		<path id="XMLID_36895_" class="st3" d="M220.6,37c0,0,6.9-2.5,8.8,3.9c1.9,6.5-3.9,7.8-4.7,7.7c-0.8,0-7.5-0.6-7-4.9
			S219.3,37.7,220.6,37z"/>
		<path id="XMLID_36894_" class="st3" d="M222.2,39.8c0,0,3.4-1.3,4.4,2c0.9,3.2-1.9,3.9-2.3,3.9s-3.8-0.3-3.5-2.5
			S221.5,40.1,222.2,39.8z"/>
	</g>
	<g>
		<path id="XMLID_36893_" class="st3" d="M202.4,37c0,0,6.9-2.5,8.8,3.9c1.9,6.5-3.9,7.8-4.7,7.7c-0.8,0-7.5-0.6-6.9-4.9
			S201.2,37.7,202.4,37z"/>
		<path id="XMLID_36892_" class="st3" d="M204,39.8c0,0,3.4-1.3,4.4,2c0.9,3.2-1.9,3.9-2.3,3.9c-0.4,0-3.8-0.3-3.5-2.5
			S203.4,40.1,204,39.8z"/>
	</g>
	<g>
		<path id="XMLID_36891_" class="st3" d="M184.3,37c0,0,6.9-2.5,8.8,3.9c1.9,6.5-3.9,7.8-4.7,7.7c-0.8,0-7.5-0.6-6.9-4.9
			S183,37.7,184.3,37z"/>
		<path id="XMLID_36890_" class="st3" d="M185.8,39.8c0,0,3.4-1.3,4.4,2c0.9,3.2-1.9,3.9-2.3,3.9c-0.4,0-3.8-0.3-3.5-2.5
			S185.2,40.1,185.8,39.8z"/>
	</g>
	<g>
		<path id="XMLID_36889_" class="st3" d="M166.1,37c0,0,6.9-2.5,8.8,3.9c1.9,6.5-3.9,7.8-4.7,7.7c-0.8,0-7.5-0.6-6.9-4.9
			S164.8,37.7,166.1,37z"/>
		<path id="XMLID_36888_" class="st3" d="M167.6,39.8c0,0,3.4-1.3,4.4,2c0.9,3.2-1.9,3.9-2.3,3.9s-3.8-0.3-3.5-2.5
			S167,40.1,167.6,39.8z"/>
	</g>
</g>
<g>
	<g>
		<path id="XMLID_36887_" class="st3" d="M220.6,55.9c0,0,6.9-2.5,8.8,3.9c1.9,6.5-3.9,7.8-4.7,7.7c-0.8,0-7.5-0.6-7-4.9
			S219.3,56.6,220.6,55.9z"/>
		<path id="XMLID_36886_" class="st3" d="M222.2,58.7c0,0,3.4-1.3,4.4,2c0.9,3.2-1.9,3.9-2.3,3.9c-0.4,0-3.8-0.3-3.5-2.5
			S221.5,59.1,222.2,58.7z"/>
	</g>
	<g>
		<path id="XMLID_36885_" class="st3" d="M202.4,55.9c0,0,6.9-2.5,8.8,3.9c1.9,6.5-3.9,7.8-4.7,7.7c-0.8,0-7.5-0.6-6.9-4.9
			S201.2,56.6,202.4,55.9z"/>
		<path id="XMLID_36884_" class="st3" d="M204,58.7c0,0,3.4-1.3,4.4,2c0.9,3.2-1.9,3.9-2.3,3.9c-0.4,0-3.8-0.3-3.5-2.5
			S203.4,59.1,204,58.7z"/>
	</g>
	<g>
		<path id="XMLID_36883_" class="st3" d="M184.3,55.9c0,0,6.9-2.5,8.8,3.9c1.9,6.5-3.9,7.8-4.7,7.7c-0.8,0-7.5-0.6-6.9-4.9
			S183,56.6,184.3,55.9z"/>
		<path id="XMLID_36882_" class="st3" d="M185.8,58.7c0,0,3.4-1.3,4.4,2c0.9,3.2-1.9,3.9-2.3,3.9c-0.4,0-3.8-0.3-3.5-2.5
			S185.2,59.1,185.8,58.7z"/>
	</g>
	<g>
		<path id="XMLID_36881_" class="st3" d="M166.1,55.9c0,0,6.9-2.5,8.8,3.9c1.9,6.5-3.9,7.8-4.7,7.7c-0.8,0-7.5-0.6-6.9-4.9
			S164.8,56.6,166.1,55.9z"/>
		<path id="XMLID_36880_" class="st3" d="M167.6,58.7c0,0,3.4-1.3,4.4,2c0.9,3.2-1.9,3.9-2.3,3.9c-0.4,0-3.8-0.3-3.5-2.5
			S167,59.1,167.6,58.7z"/>
	</g>
</g>
<g>
	<g>
		<path id="XMLID_36879_" class="st3" d="M221.4,74.8c0,0,6.9-2.5,8.8,3.9c1.9,6.5-3.9,7.8-4.7,7.7c-0.8,0-7.5-0.6-6.9-4.9
			C219,77.3,220.1,75.5,221.4,74.8z"/>
		<path id="XMLID_36878_" class="st3" d="M222.9,77.6c0,0,3.4-1.3,4.4,2c0.9,3.2-1.9,3.9-2.3,3.9c-0.4,0-3.8-0.3-3.5-2.5
			C221.8,78.8,222.3,78,222.9,77.6z"/>
	</g>
	<g>
		<path id="XMLID_36877_" class="st3" d="M203.2,74.8c0,0,6.9-2.5,8.8,3.9c1.9,6.5-3.9,7.8-4.7,7.7c-0.8,0-7.5-0.6-7-4.9
			C200.9,77.3,201.9,75.5,203.2,74.8z"/>
		<path id="XMLID_36876_" class="st3" d="M204.7,77.6c0,0,3.4-1.3,4.4,2s-1.9,3.9-2.3,3.9c-0.4,0-3.8-0.3-3.5-2.5
			C203.6,78.8,204.1,78,204.7,77.6z"/>
	</g>
	<g>
		<path id="XMLID_36875_" class="st3" d="M185,74.8c0,0,6.9-2.5,8.8,3.9c1.9,6.5-3.9,7.8-4.7,7.7c-0.8,0-7.5-0.6-6.9-4.9
			C182.7,77.3,183.7,75.5,185,74.8z"/>
		<path id="XMLID_36874_" class="st3" d="M186.6,77.6c0,0,3.4-1.3,4.4,2c0.9,3.2-1.9,3.9-2.3,3.9c-0.4,0-3.8-0.3-3.5-2.5
			C185.4,78.8,185.9,78,186.6,77.6z"/>
	</g>
	<g>
		<path id="XMLID_36873_" class="st3" d="M166.8,74.8c0,0,6.9-2.5,8.8,3.9c1.9,6.5-3.9,7.8-4.7,7.7c-0.8,0-7.5-0.6-6.9-4.9
			C164.5,77.3,165.5,75.5,166.8,74.8z"/>
		<path id="XMLID_36872_" class="st3" d="M168.4,77.6c0,0,3.4-1.3,4.4,2s-1.9,3.9-2.3,3.9c-0.4,0-3.8-0.3-3.5-2.5
			C167.2,78.8,167.7,78,168.4,77.6z"/>
	</g>
</g>
<path id="XMLID_36871_" class="st4" d="M180.3,118.6c0,0-0.4-2,1.6-2.1c0,0,35.4-2.4,79,0c2,0.1,1.6,2.1,1.6,2.1s0.4,26.1-0.7,44.3
	c0,0,0.4,2-1.6,2.1c0,0-33.7,1.6-77.5,0c-2-0.1-1.6-2.1-1.6-2.1L180.3,118.6z"/>
<path id="XMLID_36870_" class="st1" d="M186.4,122.1c0,0-0.3-1.7,1.4-1.7c0,0,29.8-2,66.4,0c1.7,0.1,1.4,1.7,1.4,1.7
	s0.3,21.9-0.6,37.2c0,0,0.3,1.7-1.4,1.7c0,0-28.4,1.4-65.2,0c-1.7-0.1-1.4-1.7-1.4-1.7L186.4,122.1z"/>
<g>
	<path id="XMLID_36869_" class="st1" d="M176,98.7c0,0-0.4-0.2,1.7-0.2c0,0,37.5-0.2,83.6,0c2.2,0,1.7,0.2,1.7,0.2s0.4,2.1-0.8,3.5
		c0,0,0.4,0.2-1.7,0.2c0,0-35.7,0.1-82,0c-2.2,0-1.7-0.2-1.7-0.2L176,98.7z"/>
	<path id="XMLID_36868_" class="st4" d="M223,91.7c0,0,0-0.8,0.1-0.8c0,0,2.6-0.9,5.9,0c0.2,0,0.1,0.8,0.1,0.8s0,9.9-0.1,16.7
		c0,0,0,0.8-0.1,0.8c0,0-2.5,0.6-5.8,0c-0.2,0-0.1-0.8-0.1-0.8L223,91.7z"/>
</g>
<g>
	<path id="XMLID_36867_" class="st2" d="M244.1,84.8c0,0-0.1,0.3-0.1-1.3c0,0-0.1-27.8,0-62.1c0-1.6,0.1-1.3,0.1-1.3
		s1.5-0.3,2.6,0.6c0,0,0.1-0.3,0.1,1.3c0,0,0.1,26.5,0,61c0,1.6-0.1,1.3-0.1,1.3L244.1,84.8z"/>
	<path id="XMLID_36866_" class="st4" d="M238.9,47c0,0-0.6,0-0.6-0.1c0,0-0.7-2,0-4.4c0-0.1,0.6-0.1,0.6-0.1s7.3,0,12.4,0
		c0,0,0.6,0,0.6,0.1c0,0,0.5,1.9,0,4.3c0,0.1-0.6,0.1-0.6,0.1L238.9,47z"/>
</g>
<g>
	<path id="XMLID_36865_" class="st2" d="M265.1,84.8c0,0-0.1,0.3-0.1-1.3c0,0-0.1-27.8,0-62.1c0-1.6,0.1-1.3,0.1-1.3
		s1.5-0.3,2.6,0.6c0,0,0.1-0.3,0.1,1.3c0,0,0.1,26.5,0,61c0,1.6-0.1,1.3-0.1,1.3L265.1,84.8z"/>
	<path id="XMLID_36864_" class="st4" d="M259.9,37c0,0-0.6,0-0.6-0.1c0,0-0.7-2,0-4.4c0-0.1,0.6-0.1,0.6-0.1s7.3,0,12.4,0
		c0,0,0.6,0,0.6,0.1c0,0,0.5,1.9,0,4.3c0,0.1-0.6,0.1-0.6,0.1L259.9,37z"/>
</g>
<g>
	<g>
		<path class="st0" d="M56.8,86.1c0.2,14.2,8.1,6.7,8.1,6.7c1.2-0.9-0.5-16.5-0.5-16.5c-0.1-4.6,0.7-8.3,4.8-10.1
			c8.3-3.6,0-7.1,0-7.1C54,58.9,56.6,71.9,56.8,86.1z"/>
		<path class="st0" d="M72.7,92.9c-1.2,1.2-2.4,2.6-3.9,4.2C68.4,97,68,97,67.6,96.9c-4.6-0.5-5.2,3.1-3.8,6.1
			c-0.8,1.4-1.7,3.5,0.6,3.8c0.5,0,1.1-0.2,1.9-0.7c1.5,1,3.3,1.1,5.1-0.2c0,0,2-3,1.4-5.6c1-1.1,2-2.2,3-3.3c0.9,0.9,2,1.8,3.2,2.7
			c3.5,2.5,7.3,3.1,10.9,2.5c0.3,0.4,0.7,0.7,1.2,0.9c6,2.5,7.3-4.6,7.3-4.6c0.5-6.6,0.7-11.9,0.7-16c0-0.1,0-0.2,0-0.3v-0.1
			c0-13.7-2.3-15.1-4.6-13.9c0,0,0,0,0-0.1l0,0c-4.4-4.6-19.6,3.4-20.9,6.3C73.4,74.4,67.7,83.8,72.7,92.9z M86.8,79.5
			c0,0,0.2,0.1,0.6,0.1c0.2,0,0.6,0.1,0.9,0.1c-0.4,3.1-0.7,6.7-0.8,10.1c-0.1,0-0.2,0.1-0.3,0.1c0,0-0.1,0-0.1,0.1
			c-0.7,0.4-1.4,0.3-1.9,0.1c-0.5-0.2-1-0.6-1.3-1c2.4,1.2,2.4-1.8,1.1-3.3c-0.7-0.8-1.9-2.4-3-3.4C82,79.9,84.3,79.1,86.8,79.5z"/>
	</g>
	<g>
		<path class="st1" d="M56.8,88.3c0.2,14.2,8.1,6.7,8.1,6.7c1.2-0.9-0.5-16.5-0.5-16.5c-0.1-4.6,0.7-8.3,4.8-10.1
			c8.3-3.6,0-7.1,0-7.1C54,61.1,56.6,74.1,56.8,88.3z"/>
		<path class="st1" d="M72.7,95.1c-1.2,1.2-2.4,2.6-3.9,4.2c-0.4-0.1-0.8-0.1-1.2-0.2c-4.6-0.5-5.2,3.1-3.8,6.1
			c-0.8,1.4-1.7,3.5,0.6,3.8c0.5,0,1.1-0.2,1.9-0.7c1.5,1,3.3,1.1,5.1-0.2c0,0,2-3,1.4-5.6c1-1.1,2-2.2,3-3.3c0.9,0.9,2,1.8,3.2,2.7
			c3.5,2.5,7.3,3.1,10.9,2.5c0.3,0.4,0.7,0.7,1.2,0.9c6,2.5,7.3-4.6,7.3-4.6c0.5-6.6,0.7-11.9,0.7-16c0-0.1,0-0.2,0-0.3v-0.1
			c0-13.7-2.3-15.1-4.6-13.9c0,0,0,0,0-0.1l0,0c-4.4-4.6-19.6,3.4-20.9,6.3C73.4,76.5,67.7,86,72.7,95.1z M86.8,81.6
			c0,0,0.2,0.1,0.6,0.1c0.2,0,0.6,0.1,0.9,0.1c-0.4,3.1-0.7,6.7-0.8,10.1c-0.1,0-0.2,0.1-0.3,0.1c0,0-0.1,0-0.1,0.1
			c-0.7,0.4-1.4,0.3-1.9,0.1c-0.5-0.2-1-0.6-1.3-1c2.4,1.2,2.4-1.8,1.1-3.3c-0.7-0.8-1.9-2.4-3-3.4C82,82,84.3,81.3,86.8,81.6z"/>
	</g>
	<g>
		<path id="XMLID_36845_" class="st3" d="M64.9,97c0,0-7.9,7.6-8.1-6.7S54,63.1,69.2,63.2c0,0,8.3,3.5,0,7.1
			c-4.1,1.8-4.9,5.5-4.8,10.1C64.4,80.5,66.1,96.1,64.9,97z"/>
		<g>
			<g id="XMLID_36842_">
				<path id="XMLID_36844_" class="st3" d="M79,103.9c-14.7-10.3-5.6-25.3-5.6-25.3c1.4-2.9,16.5-10.9,20.9-6.3l0,0
					c4.4,4.6,1.1,8.3-0.8,10.4c-1.5,1.6-4.7,1.3-6.1,1.1c-0.4-0.1-0.6-0.1-0.6-0.1c-2.8-0.4-5.3,0.6-4.7,3.9c0,0,0.1,2.5,1.1,4.5
					l0,0c0,0,0.7,1.8,2.1,2.3c0.5,0.2,1.2,0.2,1.9-0.1c0,0,0.1,0,0.1-0.1c0.3-0.2,0.7-0.3,1.2-0.4c3.1-1,8.3-1.2,9.3,2.9
					c1.2,4.8,0.1,5.4-0.5,6.3l0,0c-0.6,1-2.6,1.7-2.6,1.7l0,0C89.9,107.3,84.2,107.6,79,103.9z"/>
				<path id="XMLID_36843_" class="st3" d="M98.3,102.6c0,0-1.3,7.1-7.3,4.6s-3-29.6-0.3-31.7C93.6,73.4,101.3,60.5,98.3,102.6z"/>
			</g>
			<path id="XMLID_36841_" class="st3" d="M92.9,73.6c3.3-3,7.8-4.6,5.4,29.1c0,0-1.3,7.1-7.3,4.6c-1-0.4-1.7-1.4-2.2-2.9"/>
			<path id="XMLID_36840_" class="st3" d="M87.6,96.6c-0.2-4.6,0.2-9.7,0.9-13.8"/>
		</g>
	</g>
	<path id="XMLID_36821_" class="st3" d="M71.4,110.1c0,0,5.2-7.9-3.8-8.9S64.9,115,71.4,110.1z"/>
	<path id="XMLID_36820_" class="st3" d="M64.7,106c0,0-3.7,4.7-0.3,5c3.4,0.3,18-17,18.3-19.1S87.8,79.6,64.7,106z"/>
	<path id="XMLID_36819_" class="st3" d="M78.5,87.8c0,0,0.2,1.3,4.1,4.5c3.8,3.3,4-0.6,2.5-2.3C83.5,88.3,79.8,82.8,78.5,87.8z"/>
</g>
<g>
	<g>
		<path class="st0" d="M336.2,73.3c-9.9,10.2,1,10.5,1,10.5c1.5,0.2,11.3-12,11.3-12c3.2-3.3,6.4-5.4,10.5-3.7c8.4,3.3,5-5,5-5
			C353.5,52.1,346.2,63.2,336.2,73.3z"/>
		<path class="st0" d="M342.7,89.3c-1.7,0-3.5,0.1-5.7,0.2c-0.2-0.4-0.5-0.6-0.7-1c-2.9-3.6-5.9-1.5-7,1.6c-1.6,0.4-3.7,1.3-2.3,3.1
			c0.4,0.4,0.9,0.6,1.8,0.8c0.4,1.8,1.6,3.1,3.7,3.5c0,0,3.5-0.7,4.9-3c1.5-0.1,3-0.1,4.5-0.2c0,1.3,0.1,2.7,0.4,4.2
			c0.7,4.2,3,7.4,5.9,9.5c-0.1,0.5,0,1,0.2,1.5c2.5,6,8.4,1.9,8.4,1.9c5-4.3,8.9-7.9,11.8-10.8c0.1-0.1,0.1-0.1,0.2-0.2l0.1-0.1
			c9.7-9.7,9.1-12.3,6.6-13.1c0,0,0,0,0.1-0.1l0,0c0.1-6.4-16.3-11.5-19.2-10.3C356.2,76.7,345.6,79.4,342.7,89.3z M362.1,89.8
			c0,0,0.1,0.2,0.4,0.5c0.1,0.1,0.4,0.5,0.6,0.7c-2.5,1.9-5.2,4.2-7.7,6.6c-0.1-0.1-0.2-0.1-0.3-0.1c0,0-0.1-0.1-0.1,0
			c-0.8-0.2-1.2-0.8-1.4-1.3c-0.2-0.5-0.3-1.1-0.2-1.6c0.8,2.5,3,0.4,3.1-1.6c0.1-1.1,0.4-3,0.3-4.5
			C358.4,86.7,360.6,87.8,362.1,89.8z"/>
	</g>
	<g>
		<path class="st1" d="M334.7,74.8c-9.9,10.2,1,10.5,1,10.5c1.5,0.2,11.3-12,11.3-12c3.2-3.3,6.4-5.4,10.5-3.7c8.4,3.3,5-5,5-5
			C351.9,53.6,344.7,64.7,334.7,74.8z"/>
		<path class="st1" d="M341.2,90.8c-1.7,0-3.5,0.1-5.7,0.2c-0.2-0.4-0.5-0.6-0.7-1c-2.9-3.6-5.9-1.5-7,1.6c-1.6,0.4-3.7,1.3-2.3,3.1
			c0.4,0.4,0.9,0.6,1.8,0.8c0.4,1.8,1.6,3.1,3.7,3.5c0,0,3.5-0.7,4.9-3c1.5-0.1,3-0.1,4.5-0.2c0,1.3,0.1,2.7,0.4,4.2
			c0.7,4.2,3,7.4,5.9,9.5c-0.1,0.5,0,1,0.2,1.5c2.5,6,8.4,1.9,8.4,1.9c5-4.3,8.9-7.9,11.8-10.8c0.1-0.1,0.1-0.1,0.2-0.2l0.1-0.1
			c9.7-9.7,9.1-12.3,6.6-13.1c0,0,0,0,0.1-0.1l0,0c0.1-6.4-16.3-11.5-19.2-10.3C354.7,78.2,344,80.9,341.2,90.8z M360.6,91.3
			c0,0,0.1,0.2,0.4,0.5c0.1,0.1,0.4,0.5,0.6,0.7c-2.5,1.9-5.2,4.2-7.7,6.6c-0.1-0.1-0.2-0.1-0.3-0.1c0,0-0.1-0.1-0.1,0
			c-0.8-0.2-1.2-0.8-1.4-1.3c-0.2-0.5-0.3-1.1-0.2-1.6c0.8,2.5,3,0.4,3.1-1.6c0.1-1.1,0.4-3,0.3-4.5
			C356.9,88.2,359.1,89.3,360.6,91.3z"/>
	</g>
	<g>
		<path id="XMLID_36830_" class="st3" d="M334.2,86.7c0,0-11-0.2-1-10.5s17.3-21.2,27.9-10.4c0,0,3.4,8.3-5,5
			c-4.2-1.6-7.4,0.4-10.5,3.7C345.6,74.7,335.7,86.9,334.2,86.7z"/>
		<g>
			<g id="XMLID_36827_">
				<path id="XMLID_36829_" class="st3" d="M339.3,101.6c-3.1-17.7,13.9-21.8,13.9-21.8c3-1.1,19.4,4,19.2,10.3l0,0
					c-0.1,6.4-5.1,6.6-7.9,6.8c-2.2,0.1-4.2-2.4-5.1-3.5c-0.2-0.4-0.4-0.5-0.4-0.5c-1.7-2.3-4.2-3.3-6.1-0.6c0,0-1.7,1.8-2.4,4l0,0
					c0,0-0.8,1.8-0.1,3.1c0.2,0.5,0.7,1,1.4,1.3c0,0,0.1,0.1,0.1,0c0.4,0.1,0.7,0.3,1.1,0.6c2.9,1.5,6.7,5,4.5,8.6
					c-2.5,4.2-3.7,3.9-4.8,4.1l0,0c-1.1,0.3-3-0.6-3-0.6l0,0C344.6,111.7,340.5,107.8,339.3,101.6z"/>
				<path id="XMLID_36828_" class="st3" d="M353.9,114.3c0,0-5.9,4.1-8.4-1.9s18.8-23.1,22.2-22.6
					C371.2,90.3,385.8,86.6,353.9,114.3z"/>
			</g>
			<path id="XMLID_36826_" class="st3" d="M370.6,90c4.5,0.2,8.8,2.3-16.8,24.4c0,0-5.9,4.1-8.4-1.9c-0.4-1-0.2-2.2,0.5-3.6"/>
			<path id="XMLID_36825_" class="st3" d="M350.6,102.5c3.1-3.4,7-6.7,10.4-9.1"/>
		</g>
	</g>
	<path id="XMLID_36824_" class="st3" d="M329.6,100.5c0,0,9.3-1.9,3.6-9C327.6,84.6,321.6,99.4,329.6,100.5z"/>
	<path id="XMLID_36823_" class="st3" d="M327.7,92.9c0,0-5.9,0.7-3.7,3.3c2.2,2.6,24.7,0.7,26.4-0.6
		C352.1,94.4,362.7,90.6,327.7,92.9z"/>
	<path id="XMLID_36822_" class="st3" d="M350.4,89.8c0,0-0.8,1.1-0.3,6.1c0.4,5,3.3,2.4,3.4,0.1C353.5,93.7,354.8,87.2,350.4,89.8z"
		/>
</g>
</svg>
