<?xml version="1.0" encoding="utf-8"?>
<!-- Generator: Adobe Illustrator 22.1.0, SVG Export Plug-In . SVG Version: 6.00 Build 0)  -->
<svg version="1.1" id="Layer_1" xmlns="http://www.w3.org/2000/svg" xmlns:xlink="http://www.w3.org/1999/xlink" x="0px" y="0px"
	 viewBox="0 0 74.2 69.5" style="enable-background:new 0 0 74.2 69.5;" xml:space="preserve">
<style type="text/css">
	.st0{fill:#584C4F;stroke:#584C4F;stroke-linecap:round;stroke-miterlimit:10;}
	.st1{fill:#A36B78;stroke:#584C4F;stroke-linecap:round;stroke-miterlimit:10;}
	.st2{fill:#FFD767;stroke:#584C4F;stroke-miterlimit:10;}
	.st3{fill:#FFFFFF;stroke:#584C4F;stroke-linecap:round;stroke-miterlimit:10;}
</style>
<g id="XMLID_15609_">
	<path id="XMLID_36836_" class="st0" d="M1,63.3c0,0-0.3,0.5,0.6,0.5c27.4,0.5,71,0,71,0c0.8-0.1,0.6-0.5,0.6-0.5
		c1.1-14.1,0-40.4,0-40.4s0.2-0.4-0.6-0.5c-42.6-1.1-71.5,0-71.5,0c-0.8,0.1-0.6,0.5-0.6,0.5S0.5,45,1,63.3z"/>
	<path id="XMLID_36831_" class="st1" d="M51.5,21.1c0,0-0.1-2,0.4-2.1c0,0,8.3-2.4,18.5,0c0.5,0.1,0.4,2.1,0.4,2.1
		s0.1,26.2-0.2,44.5c0,0,0.1,2-0.4,2.1c0,0-7.9,1.6-18.1,0c-0.5-0.1-0.4-2.1-0.4-2.1L51.5,21.1z"/>
	<path id="XMLID_36834_" class="st0" d="M27.8,64.4c0,0-0.1-0.2,0.2-0.2c0,0,4.8-0.2,10.8,0c0.3,0,0.2,0.2,0.2,0.2s0.1,2.6-0.1,4.4
		c0,0,0.1,0.2-0.2,0.2c0,0-4.6,0.2-10.6,0c-0.3,0-0.2-0.2-0.2-0.2L27.8,64.4z"/>
	<path id="XMLID_36838_" class="st0" d="M17.6,16.7c0,0-0.1-0.2,0.6-0.2c0,0,13.3-0.3,29.6,0c0.8,0,0.6,0.2,0.6,0.2s0.1,3.1-0.3,5.2
		c0,0,0.1,0.2-0.6,0.2c0,0-12.7,0.2-29.1,0c-0.8,0-0.6-0.2-0.6-0.2L17.6,16.7z"/>
	<path id="XMLID_36832_" class="st2" d="M30.9,16.4c0,0-0.2,0.1-0.2-0.2c0,0-0.2-4.8,0-10.8c0-0.3,0.2-0.2,0.2-0.2s2.6-0.1,4.4,0.1
		c0,0,0.2-0.1,0.2,0.2c0,0,0.2,4.6,0,10.6c0,0.3-0.2,0.2-0.2,0.2L30.9,16.4z"/>
	<path id="XMLID_36835_" class="st3" d="M22.4,1.2c0,0-0.1-0.4,0.4-0.4c0,0,9.1-0.5,20.4,0c0.5,0,0.4,0.4,0.4,0.4s0.1,5.4-0.2,9.2
		c0,0,0.1,0.4-0.4,0.4c0,0-8.7,0.3-20,0c-0.5,0-0.4-0.4-0.4-0.4L22.4,1.2z"/>
</g>
<path id="XMLID_36837_" class="st1" d="M7.3,53.9c0,0-8.9-24,13.8-30.7s27.2,13.6,27.1,16.3s-2.1,26.3-17.2,24.3
	C16,62.1,9.9,58.5,7.3,53.9z"/>
<path id="XMLID_36839_" class="st3" d="M17.5,27.6c0,0,18.9-8,25.1,10S32.6,60,30.4,60S9.2,59.2,10.3,47
	C11.2,34.9,13.9,29.9,17.5,27.6z"/>
</svg>
