<?xml version="1.0" encoding="utf-8"?>
<!-- Generator: Adobe Illustrator 22.1.0, SVG Export Plug-In . SVG Version: 6.00 Build 0)  -->
<svg version="1.1" id="Layer_1" xmlns="http://www.w3.org/2000/svg" xmlns:xlink="http://www.w3.org/1999/xlink" x="0px" y="0px"
	 viewBox="0 0 401 401" style="enable-background:new 0 0 401 401;" xml:space="preserve">
<style type="text/css">
	.st0{fill:#FCF4E9;stroke:#221F1F;stroke-miterlimit:10;}
	.st1{fill:none;stroke:#221F1F;stroke-miterlimit:10;}
</style>
<g>
	<path class="st0" d="M164.7,182.9c-1-2.8-1.9-5.8-2.5-8.9c-0.9-4.2-1.5-8.6-1.6-13.3c0-0.4-0.5-2.1-0.7-2.6
		c-1.4-3.6-1-8.1,1.6-11.2c1.1-1.3,2.5-2.3,4.3-2.9c7.4-2.5,11,3.7,12.5,7.3c0.5,1.4,0.7,3.9-0.1,5.8c-0.1,0.3-0.5,2-0.5,2.5
		c0.1,6.4,1.2,12.2,3,17.4c0.8,2.4,2.7,5.9,4.3,8.7c1.5,2.6,4.4,5.7,5.1,6.3c1.9,2,3.1,4.7,3.6,6.2c0.3,0.8,0.4,1.3,0.4,1.3
		s-0.6,10.1-11.1,10.2c-1,0-1.9-0.1-2.7-0.4c-2.9-0.9-4.8-3.2-5.6-6C174.6,202.6,167.2,189.9,164.7,182.9z"/>
</g>
<path class="st0" d="M191,143.1c-1.2-0.7-6.8-4.5-8.9-5.7c-9.3-5.7-53.7,31-39.6,47.7c8.2,9.7,43.8-0.9,56.1-4.8
	c2.6-0.8,6.2-6.4,6.3-13.1C204.9,159.6,202.2,150,191,143.1z"/>
<g id="XMLID_2159_">
	<g id="XMLID_2161_">
		<path id="XMLID_2163_" class="st0" d="M81,225.5c0,0-1.4-8.2-8.3-5.3c-6.9,2.9-3.5,34-0.3,36.4C75.6,258.9,84.5,273.7,81,225.5z"
			/>
		<path id="XMLID_2162_" class="st0" d="M79.5,243.3c0,0,9.1-9,9.9,3.3c0.1,1.8,2.6,13.9,8.2,11c5.6-2.9,6.5-38.2-20.5-28.3"/>
	</g>
	<path id="XMLID_2160_" class="st0" d="M87.8,238c0.3,8.6,2,17.3,3.6,18.5c3.2,2.4,12.1,17.2,8.6-31c0,0-1.4-8.2-8.3-5.3
		c-2.3,1-3.5,5.2-3.9,10.4"/>
</g>
<g id="XMLID_2091_">
	<path id="XMLID_2093_" class="st0" d="M202.5,261.1c-17.7-12.5-6.8-30.5-6.8-30.5c1.6-3.5,19.9-13.2,25.3-7.6l0,0
		c5.3,5.6,1.3,9.9-1,12.5c-1.8,2-5.7,1.6-7.3,1.4c-0.5-0.1-0.8-0.1-0.8-0.1c-3.3-0.5-6.4,0.7-5.6,4.7c0,0,0.1,3.1,1.3,5.4l0,0
		c0,0,0.9,2.1,2.5,2.8c0.6,0.3,1.4,0.3,2.3-0.2c0,0,0.1,0,0.1-0.1c0.4-0.2,0.9-0.4,1.4-0.5c3.7-1.2,10-1.5,11.2,3.5
		c1.4,5.8,0.1,6.5-0.7,7.6c0,0,0,0,0,0c-0.7,1.2-3.1,2-3.1,2l0,0C215.6,265.1,208.7,265.5,202.5,261.1z"/>
	<path id="XMLID_2092_" class="st0" d="M213.8,253.5c0,0-5.8-4.2,0.5-8.1c6.3-3.9,8.6,4.9,8.6,4.9"/>
</g>
<g id="XMLID_2085_">
	<path id="XMLID_2090_" class="st0" d="M26.5,237.9c0,0-1.2,23.5,6.4,18.7s2.7-37.5-0.8-39.2S26.5,237.9,26.5,237.9z"/>
	<path id="XMLID_2086_" class="st0" d="M34.6,244.9c0.5,0.2,1.1,0.4,1.7,0.6c16.3,5,29.3-16.8,16-26.3c-13.3-9.4-23.7,2.4-23.7,2.4
		s-4.8,10.6-0.3,18 M44,235.2c-9.3,5.9-10-14.4-2.1-10.1C41.9,225.1,53.3,229.4,44,235.2z"/>
</g>
<g id="XMLID_2082_">
	<path id="XMLID_2084_" class="st0" d="M136.6,254.7c0,0,1.3,8.3,7.8,5.4c6.4-2.9,3.3-34.3,0.3-36.8S133.4,205.9,136.6,254.7z"/>
	<path id="XMLID_2083_" class="st0" d="M137.4,239.6c0,0-12.7,16.1-10.1-14c0,0-3-9.3-8.9-5.4c-5.9,3.9-6.8,51.7,21.5,38.3"/>
</g>
<g id="XMLID_2164_">
	<path id="XMLID_2166_" class="st0" d="M167.5,234.5c0,0-1.4-6.6-7.9-4.3s-3.3,27.4-0.3,29.4C162.4,261.5,170.8,273.5,167.5,234.5z"
		/>
	<path id="XMLID_2165_" class="st0" d="M166,246.5c0,0,11.4-11.3,9.1,9.8c0,0,2.7,6.5,8,3.8c5.3-2.7,6.1-36.1-19.4-26.7"/>
</g>
<g id="XMLID_2167_">
	<path id="XMLID_2169_" class="st0" d="M250.3,230.9c0,0-2.9-2.1-4.2-0.5c-1.3,1.6-3.4,4.3-0.9,9.7c2.6,5.4,12.3,0.9,13.2-1.6"/>
	<path id="XMLID_2168_" class="st0" d="M261.2,235.5L261.2,235.5c-1.8-4.8-5.7-8.5-11.7-9.1c-11.9-1.2-16.8,6.5-18.7,11.2
		c0,0-0.4,0.7-0.7,2.1c-0.2,0.8-0.3,1.5-0.2,1.8c-0.2,2.6,0.3,6.4,2.7,11.5c2,4.1,7,5.6,10.3,6.1c0.9,0.2,1.9,0.3,3,0.3
		c0.1,0,0.1,0,0.1,0l0,0c1.2,0,2.4-0.2,3.7-0.5c5.2-1.2,8.8-4.5,10.8-8.6c-0.3-4.8-4.4-5.3-6.9-5.7c-1.3-0.2-2.7,0.6-3.7,1.5
		c-0.1,0.1-0.2,0.2-0.3,0.3c-3.5,2.6-12.8-2.5-7.9-6.3c0,0,1.7-1.7,3.6-2.5h0c0,0,1.6-0.8,2.9-0.4c0.5,0.2,1,0.6,1.3,1.3
		c0,0,0,0.1,0.1,0.1c0.1,0.3,0.3,0.7,0.6,1c1.6,2.6,5.2,6,8.5,3.6c3.8-2.7,3.4-3.8,3.5-4.9l0,0C262.1,237.3,261.2,235.5,261.2,235.5
		z"/>
</g>
<g id="XMLID_2170_">
	<path id="XMLID_2172_" class="st0" d="M296.5,249.6c0,0,1.3,8.3,7.8,5.4c6.4-2.9,3.3-34.3,0.3-36.8
		C301.6,215.8,293.3,200.9,296.5,249.6z"/>
	<path id="XMLID_2171_" class="st0" d="M297.3,234.6c0,0-12.7,16.1-10.1-14c0,0-3-9.3-8.9-5.4c-5.9,3.9-6.8,51.7,21.5,38.3"/>
</g>
<g id="XMLID_2176_">
	<path id="XMLID_2180_" class="st0" d="M369.1,236.7c0,0,5.7-0.3,5.1-5.1c-0.5-3.8-16.5-10.8-23.1-2.5c-1.7,2.2-2.8,5.4-2.8,10
		c0,0,0,0,0,0c0.5,1.6,1.3,2.9,2.3,4c0.4,0.4,0.8,0.8,1.2,1.1c3,2.3,7.1,3.2,10.7,3.3c-0.5,2.1-3,3.2-10.8-0.6c0,0-5.7,0.3-5.1,5.1
		c0.5,3.8,16.6,10.8,23.1,2.4c1.7-2.2,2.8-5.4,2.7-10c0,0,0,0,0,0c-0.5-1.6-1.3-2.9-2.4-4c-0.4-0.4-0.8-0.8-1.2-1.1
		c-3-2.3-7.1-3.2-10.7-3.3C358.8,234.1,361.3,232.9,369.1,236.7z"/>
	<path id="XMLID_2179_" class="st1" d="M361.9,242.7c0,0,5.5,11.8-10,4.3c0,0-5.7,0.3-5.1,5.1c0.6,4.8,26,14.6,25.9-7.5"/>
	<path id="XMLID_2177_" class="st0" d="M359.1,241c0,0-5.5-11.8,10-4.3c0,0,5.7-0.3,5.1-5.1c-0.6-4.8-26-14.6-25.9,7.5"/>
</g>
<g id="XMLID_2173_">
	<path id="XMLID_2175_" class="st0" d="M331.2,229.9c0,0-2.9-2.1-4.2-0.5c-1.3,1.6-3.4,4.3-0.9,9.7c2.6,5.4,12.3,0.9,13.2-1.6"/>
	<path id="XMLID_2174_" class="st0" d="M342,234.5L342,234.5c-1.8-4.8-5.7-8.5-11.7-9.1c-11.9-1.2-16.8,6.5-18.7,11.2
		c0,0-0.4,0.7-0.7,2.1c-0.2,0.8-0.3,1.5-0.2,1.8c-0.2,2.6,0.3,6.4,2.7,11.5c2,4.1,7,5.6,10.3,6.1c0.9,0.2,1.9,0.3,3,0.3
		c0.1,0,0.1,0,0.1,0l0,0c1.2,0,2.4-0.2,3.7-0.5c5.2-1.2,8.8-4.5,10.8-8.6c-0.3-4.8-4.4-5.3-6.9-5.7c-1.3-0.2-2.7,0.6-3.7,1.5
		c-0.1,0.1-0.2,0.2-0.3,0.3c-3.5,2.6-12.8-2.5-7.9-6.3c0,0,1.7-1.7,3.6-2.5h0c0,0,1.6-0.8,2.9-0.4c0.5,0.2,1,0.6,1.3,1.3
		c0,0,0,0.1,0.1,0.1c0.1,0.3,0.3,0.7,0.6,1c1.6,2.6,5.2,6,8.5,3.6c3.8-2.7,3.4-3.8,3.5-4.9l0,0C343,236.2,342,234.5,342,234.5z"/>
</g>
</svg>
