<?xml version="1.0" encoding="utf-8"?>
<!-- Generator: Adobe Illustrator 22.1.0, SVG Export Plug-In . SVG Version: 6.00 Build 0)  -->
<svg version="1.1" id="Layer_1" xmlns="http://www.w3.org/2000/svg" xmlns:xlink="http://www.w3.org/1999/xlink" x="0px" y="0px"
	 viewBox="0 0 121.6 60.5" style="enable-background:new 0 0 121.6 60.5;" xml:space="preserve">
<style type="text/css">
	.st0{opacity:0.1;fill:#5D5C4C;stroke:#5D5C4C;stroke-linecap:round;stroke-miterlimit:10;enable-background:new    ;}
	.st1{fill:#FFD767;stroke:#584C4F;stroke-width:2;stroke-miterlimit:10;}
	.st2{fill:#FFFAF2;stroke:#584C4F;stroke-width:2;stroke-miterlimit:10;}
</style>
<g id="Layer_5">
</g>
<g id="Layer_3">
</g>
<path id="XMLID_2388_" class="st0" d="M108.8,21.1c-1.9-0.1-72.8,0.2-79,1.4c-0.8,0.2-3,1.4-4.2,2.8c-1.7,2-3.9,5-4.5,8.3
	C21,34,20.9,47.3,21,47.7c-0.3,4.1,2.2,8.4,11.2,11.3c6.6,2.1,79.1,0.1,80.8,0c4.9-0.3,7.4-3.7,7.9-8c0.3-2.8,0.2-12.9,0.1-15.5
	C120.4,28.9,116,21.6,108.8,21.1z"/>
<path class="st1" d="M110.8,25.5c-0.3-4.6-2.6-9.7-6.4-12.4c-1.3-0.9-6.9-7.4-9.1-9.3c-1.8-1.6-4-2.6-6.5-2.8
	C86.9,0.9,16,1.2,9.8,2.4C9,2.6,6.8,3.8,5.6,5.2c-1.7,2-3.9,5-4.5,8.3C1,13.9,0.9,27.2,1,27.6c-0.1,2,0.4,3.9,1.9,5.8
	s8.9,8.9,10.6,10.7s4.5,3.4,8.7,4.8c6.6,2.1,79.1,0.1,80.8,0c4.9-0.3,7.4-3.7,7.9-8C111.1,38.2,111,28,110.8,25.5z"/>
<g id="XMLID_2366_">
	<g>
		<path id="XMLID_2369_" class="st2" d="M88.8,1.1C86.9,1,16,1.3,9.8,2.5C9,2.7,6.8,3.9,5.6,5.3c-1.7,2-3.9,5-4.5,8.3
			C1,14,0.9,27.3,1,27.7C0.7,31.8,3.2,36.1,12.2,39c6.6,2.1,79.1,0.1,80.8,0c4.9-0.3,7.4-3.7,7.9-8c0.3-2.8,0.2-12.9,0.1-15.5
			C100.4,8.9,96,1.6,88.8,1.1z"/>
		<path id="XMLID_2368_" class="st2" d="M95,31.2c0,0,1.1,2.2-0.7,3.2"/>
		<path id="XMLID_2367_" class="st2" d="M11.8,5.7c0,0-2.7,1.3-3.6,2.6"/>
	</g>
</g>
<path id="XMLID_2365_" class="st1" d="M104.6,45.1c0,0-3.1-4.4-5.4-5.4"/>
<g>
	<path id="XMLID_4277_" class="st1" d="M14,27.6c-6.3-4.4-2.4-10.9-2.4-10.9c0.6-1.3,7.1-4.7,9-2.7l0,0c1.9,2,0.5,3.5-0.4,4.5
		c-0.6,0.7-2,0.6-2.6,0.5c-0.2,0-0.3-0.1-0.3-0.1c-1.2-0.2-2.3,0.3-2,1.7c0,0,0,1.1,0.5,1.9l0,0c0,0,0.3,0.8,0.9,1
		c0.2,0.1,0.5,0.1,0.8-0.1c0,0,0,0,0.1,0c0.1-0.1,0.3-0.1,0.5-0.2c1.3-0.4,3.6-0.5,4,1.3c0.5,2.1,0,2.3-0.2,2.7c0,0,0,0,0,0
		c-0.3,0.4-1.1,0.7-1.1,0.7l0,0C18.6,29,16.2,29.1,14,27.6z"/>
	<path id="XMLID_4286_" class="st1" d="M25.8,13.8c-7.8,2.5-3.7,11.9-3.7,11.9s5,5.9,11.4,1.2C39.9,22.2,33.6,11.3,25.8,13.8z
		 M26.9,23.7c-4.3-0.6,1.7-8.6,3.7-3.5C32.5,25.3,26.9,23.7,26.9,23.7z"/>
	<g id="XMLID_4600_">
		<g id="XMLID_4329_">
			<path id="XMLID_4335_" class="st1" d="M65.7,16"/>
			<path id="XMLID_4332_" class="st1" d="M69.8,15c-6.5-4.8-11.7,1.2-11.7,1.2s-4.2,9.6,3.8,12.2C69.9,30.9,76.3,19.8,69.8,15z
				 M66.8,19.8c2.3,5.1-7.8,3.7-5.2,0.1C61.6,20,64.5,14.8,66.8,19.8z"/>
			<path id="XMLID_4331_" class="st1" d="M67.2,14.4"/>
		</g>
		<path id="XMLID_4330_" class="st1" d="M66.9,26.3c0,0,0.6,3.9,4.1,1.8s-0.2-5.4-0.2-5.4"/>
	</g>
	<g id="XMLID_4355_">
		<path id="XMLID_4361_" class="st1" d="M40.3,15.6c0,0-0.6-3.1-3.6-2c-3,1.1-1.5,12.7-0.1,13.6C38,28.2,41.8,33.7,40.3,15.6z"/>
		<path id="XMLID_4360_" class="st1" d="M39.6,21.2c0,0,5.3-5.2,4.2,4.5c0,0,1.3,3,3.7,1.8c2.4-1.3,2.8-16.7-9-12.4"/>
	</g>
	<g id="XMLID_4556_">
		<path id="XMLID_4377_" class="st1" d="M53.1,7c0,0-5.1-4.9-5.2,4.3c-0.1,9.1-1.8,17.5,8,17.4c0,0,5.3-2.2,0-4.6
			c-2.6-1.1-3.1-3.5-3.1-6.5"/>
		<path id="XMLID_4378_" class="st1" d="M51.9,17.5c0,0,3.8,1.1,3.3-3s-5.1-2-5.1-2"/>
	</g>
	<path id="XMLID_1_" class="st1" d="M74.9,27.6c-6.3-4.4-2.4-10.9-2.4-10.9c0.6-1.3,7.1-4.7,9-2.7l0,0c1.9,2,0.5,3.5-0.4,4.5
		c-0.6,0.7-2,0.6-2.6,0.5c-0.2,0-0.3-0.1-0.3-0.1c-1.2-0.2-2.3,0.3-2,1.7c0,0,0,1.1,0.5,1.9l0,0c0,0,0.3,0.8,0.9,1
		c0.2,0.1,0.5,0.1,0.8-0.1c0,0,0,0,0.1,0c0.1-0.1,0.3-0.1,0.5-0.2c1.3-0.4,3.6-0.5,4,1.3c0.5,2.1,0,2.3-0.2,2.7c0,0,0,0,0,0
		c-0.3,0.4-1.1,0.7-1.1,0.7l0,0C79.5,29,77.1,29.1,74.9,27.6z"/>
	<g id="XMLID_2_">
		<path id="XMLID_4_" class="st1" d="M87.3,7c0,0-5.1-4.9-5.2,4.3s-1.8,17.5,8,17.4c0,0,5.3-2.2,0-4.6c-2.6-1.1-3.1-3.5-3.1-6.5"/>
		<path id="XMLID_3_" class="st1" d="M86.1,17.5c0,0,3.8,1.1,3.3-3s-5.1-2-5.1-2"/>
	</g>
</g>
</svg>
