<?xml version="1.0" encoding="utf-8"?>
<!-- Generator: Adobe Illustrator 22.1.0, SVG Export Plug-In . SVG Version: 6.00 Build 0)  -->
<svg version="1.1" id="Layer_1" xmlns="http://www.w3.org/2000/svg" xmlns:xlink="http://www.w3.org/1999/xlink" x="0px" y="0px"
	 viewBox="0 0 68.8 27.3" style="enable-background:new 0 0 68.8 27.3;" xml:space="preserve">
<style type="text/css">
	.st0{fill:#FCF4E9;stroke:#5C5B4B;stroke-linecap:round;stroke-miterlimit:10;}
	.st1{fill:#A36B78;stroke:#584C4F;stroke-linecap:round;stroke-miterlimit:10;}
	.st2{fill:#5C5B4B;stroke:#5C5B4B;stroke-linecap:round;stroke-miterlimit:10;}
</style>
<g id="XMLID_31788_">
	<path id="XMLID_31832_" class="st0" d="M2.8,16.8c5.2,0.2,36.5-0.1,52.8-0.3c5.9-0.1,9.9-0.1,9.9-0.1s2-0.4,2.4-1.2
		c0.1-0.4,0.3-1.3,0.3-2.6C68.1,6.7,68,2.1,68,2.1c0.1-0.8-2.4-1.2-2.4-1.2c-0.6-0.1-4.4-0.2-9.9-0.2C38,0.5,2.8,0.5,2.8,0.5
		S1,0.8,0.5,1.4c0,1.6,0,3.1,0,4.5c0,2.6,0,6.2,0,10C0.9,16.5,2.8,16.8,2.8,16.8z"/>
	<path id="XMLID_31831_" class="st1" d="M2.8,26.8c5.2,0.2,36.5-0.1,52.8-0.3c5.9-0.1,9.9-0.1,9.9-0.1s2-0.4,2.4-1.2
		c0.1-0.4,0.3-1.3,0.3-2.6C68.1,16.7,68,12.1,68,12.1c0.1-0.8-2.4-1.2-2.4-1.2c-0.6-0.1-4.4-0.2-9.9-0.2c-17.7-0.2-53-0.2-53-0.2
		S1,10.8,0.5,11.4c0,1.6,0,3.1,0,4.5c0,2.6,0,6.2,0,10C0.9,26.5,2.8,26.8,2.8,26.8z"/>
	<g id="XMLID_31826_">
		<g id="XMLID_31827_">
			<path id="XMLID_31830_" class="st0" d="M48.5,22.1c0,0,8.2,3.8,7.5-4.1C55.3,10.1,43,14.9,48.5,22.1z"/>
			<g id="XMLID_31828_">
				<path id="XMLID_31829_" class="st2" d="M50.9,21.3c0,0,5.3,0.1,3.1-4C51.7,13.2,46.2,18.7,50.9,21.3z"/>
			</g>
		</g>
	</g>
	<g id="XMLID_31821_">
		<g id="XMLID_31822_">
			<path id="XMLID_31825_" class="st0" d="M4.2,20c0,0,5.2,7.4,8.6,0.2S3.1,11,4.2,20z"/>
			<g id="XMLID_31823_">
				<path id="XMLID_31824_" class="st2" d="M6.1,19.5c0,0,3.1,4.4,5.1,0.1S5.4,14.2,6.1,19.5z"/>
			</g>
		</g>
	</g>
	<g id="XMLID_31816_">
		<g id="XMLID_31817_">
			<path id="XMLID_31820_" class="st0" d="M17.2,20c0,0,5.2,7.4,8.6,0.2S16.1,11,17.2,20z"/>
			<g id="XMLID_31818_">
				<path id="XMLID_31819_" class="st2" d="M19.1,19.5c0,0,3.1,4.4,5.1,0.1S18.4,14.2,19.1,19.5z"/>
			</g>
		</g>
	</g>
	<g id="XMLID_31811_">
		<g id="XMLID_31812_">
			<path id="XMLID_31815_" class="st0" d="M59.2,17.3c0,0,3.4,4.8,5.6,0.1C67,12.8,58.5,11.4,59.2,17.3z"/>
			<g id="XMLID_31813_">
				<path id="XMLID_31814_" class="st2" d="M60.8,16.9c0,0,1.6,2.2,2.6,0.1C64.3,14.8,60.5,14.2,60.8,16.9z"/>
			</g>
		</g>
	</g>
	<g id="XMLID_31807_">
		<g id="XMLID_31808_">
			<g id="XMLID_31809_">
				<path id="XMLID_31810_" class="st0" d="M60.8,23.9c0,0,1.6,2.2,2.6,0.1C64.3,21.8,60.5,21.2,60.8,23.9z"/>
			</g>
		</g>
	</g>
	<g id="XMLID_31801_">
		<path id="XMLID_31806_" class="st0" d="M33,13.1c-1.2,0.1-2.4,1-2.1,3c0,0,1.1,1.6,2.4,1.7c0.6,0,7.2,0.2,8.3,0
			c0.6-0.1,1.1-0.5,1.6-1.6c0.9-1.9-0.5-3-1.9-3.1C40.5,13.1,33.9,13.1,33,13.1z"/>
		<g id="XMLID_31804_">
			<path id="XMLID_31805_" class="st2" d="M31.8,15.9c0,0,1.6,2.2,2.6,0.1S31.5,13.2,31.8,15.9z"/>
		</g>
		<g id="XMLID_31802_">
			<path id="XMLID_31803_" class="st2" d="M39.8,15.9c0,0,1.6,2.2,2.6,0.1S39.5,13.2,39.8,15.9z"/>
		</g>
	</g>
	<g id="XMLID_31795_">
		<path id="XMLID_31800_" class="st0" d="M30,21.2c-0.6,0-1.3,0.5-1.1,1.6c0,0,0.6,0.9,1.3,0.9c0.3,0,3.9,0.1,4.4,0
			c0.3,0,0.6-0.3,0.9-0.8c0.5-1-0.2-1.6-1-1.7C34,21.2,30.4,21.2,30,21.2z"/>
		<g id="XMLID_31798_">
			<path id="XMLID_31799_" class="st2" d="M29.3,22.7c0,0,0.8,1.2,1.4,0C31.2,21.6,29.2,21.2,29.3,22.7z"/>
		</g>
		<g id="XMLID_31796_">
			<path id="XMLID_31797_" class="st2" d="M33.6,22.7c0,0,0.8,1.2,1.4,0S33.4,21.2,33.6,22.7z"/>
		</g>
	</g>
	<g id="XMLID_31789_">
		<path id="XMLID_31794_" class="st0" d="M40,21.2c-0.6,0-1.3,0.5-1.1,1.6c0,0,0.6,0.9,1.3,0.9c0.3,0,3.9,0.1,4.4,0
			c0.3,0,0.6-0.3,0.9-0.8c0.5-1-0.2-1.6-1-1.7C44,21.2,40.4,21.2,40,21.2z"/>
		<g id="XMLID_31792_">
			<path id="XMLID_31793_" class="st2" d="M39.3,22.7c0,0,0.8,1.2,1.4,0C41.2,21.6,39.2,21.2,39.3,22.7z"/>
		</g>
		<g id="XMLID_31790_">
			<path id="XMLID_31791_" class="st2" d="M43.6,22.7c0,0,0.8,1.2,1.4,0S43.4,21.2,43.6,22.7z"/>
		</g>
	</g>
</g>
</svg>
