<?xml version="1.0" encoding="utf-8"?>
<!-- Generator: Adobe Illustrator 22.1.0, SVG Export Plug-In . SVG Version: 6.00 Build 0)  -->
<svg version="1.1" id="Layer_1" xmlns="http://www.w3.org/2000/svg" xmlns:xlink="http://www.w3.org/1999/xlink" x="0px" y="0px"
	 viewBox="0 0 485.1 377.3" style="enable-background:new 0 0 485.1 377.3;" xml:space="preserve">
<style type="text/css">
	.st0{opacity:0.1;fill:#231F20;stroke:#231F20;stroke-miterlimit:10;enable-background:new    ;}
	.st1{fill:#E6C86B;stroke:#584C4F;stroke-width:2;stroke-miterlimit:10;}
	.st2{fill:#FCDE82;stroke:#584C4F;stroke-width:2;stroke-miterlimit:10;}
	.st3{fill:none;stroke:#584C4F;stroke-width:2;stroke-miterlimit:10;}
	.st4{fill:#FCDB77;stroke:#584C4F;stroke-width:2;stroke-miterlimit:10;}
	.st5{fill:#FFD767;stroke:#584C4F;stroke-width:2;stroke-miterlimit:10;}
	.st6{fill:#FFFAF2;stroke:#584C4F;stroke-width:2;stroke-miterlimit:10;}
	.st7{fill:#FFF5D0;stroke:#584C4F;stroke-width:2;stroke-miterlimit:10;}
	.st8{fill:#FBE391;stroke:#584C4F;stroke-width:2;stroke-miterlimit:10;}
	.st9{fill:#FBE7A0;stroke:#584C4F;stroke-width:2;stroke-miterlimit:10;}
	.st10{fill:#FDEBB0;stroke:#584C4F;stroke-width:2;stroke-miterlimit:10;}
	.st11{fill:#FFF0C2;stroke:#584C4F;stroke-width:2;stroke-miterlimit:10;}
	.st12{fill:#FDF7E0;stroke:#584C4F;stroke-width:2;stroke-miterlimit:10;}
</style>
<g id="Layer_5">
</g>
<g id="Layer_3">
</g>
<g>
	<g>
		<g>
			<path class="st0" d="M380.7,22.6c0,0-19.6-17.7-27.8,4.4c-6,0.8-11.7,6.4-13.8,23.2c0,0-0.5,9.7-3.7,17.9
				c-11.5,0.9-18.1-17-16.9-23.4c0,0-1.9-36.2-26.4-25.6c-3.6,1.6-6.3,5.1-8.2,10c-0.9,0.3-1.8,0.6-2.8,1c-10.3,4.5-13.9,25.4-10,47
				c-11.1,3.7-23.2-1.7-18-47.1c0,0-10.1-24.4-29.9-14.4c-2.5,1.3-4.8,4.5-6.6,9c-0.9-0.8-1.9-1.5-2.9-2.3
				c-49.1-36.3-87.6,8.9-87.6,8.9s-0.1,0.2-0.2,0.6C115.2,13.8,95.9,2.5,64.2,10.4C60.5,3.9,52.8-3.5,37.7,1.9
				c-4,1.4-7,5.2-9.2,10.4c-0.6,0.2-1.2,0.4-1.8,0.6c-24.4,8.6-12.8,103.1-1.5,110.4c3.3,2.1,8.4,7.5,13.6,10.4
				c-1.7,30.5,5.6,69.6,12.6,74.2c7.1,4.6,22.3,24.4,29.5,1.2c8.5,1,16-10.2,14.9-61.2c10-1.5,19.4,7,14.7,47.9
				c0,0,9.9,23.9,29.3,14.7c2.9,4.4,6.1,6.8,9.3,6.2c5.8-1.2,10.5-3.7,14-8.3c4.9,5.3,11.8,9.8,21.2,12.9c13.4,4.3,26.1,2.8,37-2.3
				c-0.6,9.4-2.5,17.7-6.5,24.4c-0.9,0.5-1.8,1-2.7,1.5c-9.3,4.6-13.7,9.1-15.1,13.1c-28.4,16.5,4,31.7,4,31.7
				c22,0.3,35.2-6.7,43.2-18.5c14.2-9.3,19.7-26.1,21.5-47.4c2.3,0.6,4.5,1,6.5,1.3c3,0.6,6.2,1,9.6,0.9c0.2,0,0.3,0,0.3,0l0,0
				c3.7-0.1,7.6-0.5,11.8-1.5c10.5-2.4,19-7.4,25.4-14.2c1.3,3.4,2.6,5.8,3.9,6.8c7,5.3,21.6,27.4,29,3.2
				c10.5,2.1,19.7-16.3,13.7-113.3C398.6,80.7,380.7,22.6,380.7,22.6z M196,156.6c7.2-1.4,26.4-3.2,18.6,18.9
				C206.3,175.7,197.1,165.1,196,156.6z M69.6,63.3c7.9-1.1,15.4,3.9,15.9,25.9c-3.6-3.1-8.8-5.2-16-4.1
				C69.8,78.8,69.8,71.5,69.6,63.3z M176.2,81.3c-4.5-6.5-12.7-11.3-12.7-11.3c-2-1.6-3.9-2.5-5.7-2.9c-0.7-1.7-1.2-3.4-1.4-5.1
				C163.6,60.6,184.3,58.2,176.2,81.3z M275.4,158.4c0.7-0.4,1.4-0.9,2.1-1.2c0.6,2.4,1.5,4.9,2.9,7.7c4,8.3,13.6,9,22.4,6.7
				c0.7,0.6,1.4,1.2,2.1,1.7c-0.1,0.1-0.2,0.1-0.2,0.2C294.9,180.6,271.7,169.4,275.4,158.4z"/>
			<path class="st0" d="M285.6,77.5c-1.2,6.6,5.8,25.3,18,23.3c4.8-0.8,7.9-5.5,9.9-10.9c-11.5,0.9-18.1-17-16.9-23.4
				c0,0-1.9-36.2-26.4-25.6c-3.6,1.6-6.3,5.1-8.3,10C283.8,44.2,285.6,77.5,285.6,77.5z"/>
			<g>
				<g id="XMLID_10821_">
					<path id="XMLID_10829_" class="st1" d="M307.6,55.6c0,0-1.9-36.2-26.4-25.6s-11.1,113.1,51.1,98.5s37.3-95.1,37.3-95.1
						S343.9,10.3,339.2,50c0,0-1.5,26.7-13.6,28.8C313.4,80.8,306.4,62.3,307.6,55.6z"/>
					<g id="XMLID_10827_">
						<path id="XMLID_10828_" class="st1" d="M276.3,77.7c0,0-42.9,42.2-34-36.8c0,0-10.1-24.4-29.9-14.4S189,161.9,284.8,127
							c0,0,25.8-9.7,32.8-14.8"/>
					</g>
					<path id="XMLID_10826_" class="st2" d="M237.7,43c0,0-4,1.9-5.2,3.8"/>
					<path id="XMLID_10825_" class="st2" d="M299.7,43.2c0,0-4,1.9-5.2,3.8"/>
					<path id="XMLID_10824_" class="st2" d="M242.5,87c0,0-4,1.9-5.2,3.8"/>
					<path id="XMLID_10823_" class="st2" d="M310.6,76.2c0,0-4,1.9-5.2,3.8"/>
					<path id="XMLID_10822_" class="st2" d="M363.7,34.4c0,0-4,1.9-5.2,3.8"/>
				</g>
				<g id="XMLID_10753_">
					<path id="XMLID_10820_" class="st2" d="M296.6,66.6c0,0-1.9-36.2-26.4-25.6s-11.1,113.1,51.1,98.5s37.3-95.1,37.3-95.1
						S332.9,21.3,328.1,61c0,0-1.5,26.7-13.6,28.8C302.4,91.8,295.4,73.3,296.6,66.6z"/>
					<g id="XMLID_10818_">
						<path id="XMLID_10819_" class="st2" d="M265.2,88.7c0,0-42.9,42.2-34-36.8c0,0-10.1-24.4-29.9-14.4S177.9,172.8,273.7,138
							c0,0,25.8-9.7,32.8-14.8"/>
					</g>
					<line id="XMLID_10817_" class="st3" x1="221.4" y1="134" x2="225.4" y2="135.7"/>
					<path id="XMLID_10816_" class="st2" d="M314.7,107.5c0,0,1.6,3.3-1,4.7"/>
					<path id="XMLID_10815_" class="st2" d="M357.3,100.9c0,0-0.7,3-1.6,4"/>
					<path id="XMLID_10814_" class="st2" d="M333.5,59.6c0,0,1.3-5.6,0-5.6"/>
					<path id="XMLID_10813_" class="st2" d="M211.1,40.8c0,0,5.2,0.7,4.7,1.6"/>
					<path id="XMLID_10807_" class="st2" d="M244.6,107.6c0,0,6.1-0.9,6.5-2"/>
					<path id="XMLID_10806_" class="st2" d="M275.7,46.1c0,0-4,1.9-5.2,3.8"/>
					<line id="XMLID_10791_" class="st3" x1="314.5" y1="93.2" x2="318.7" y2="92.1"/>
					<line id="XMLID_10790_" class="st3" x1="323.5" y1="133" x2="327.7" y2="131.9"/>
					<path class="st0" d="M285.6,77.5c-1.2,6.6,5.8,25.3,18,23.3c4.8-0.8,7.9-5.5,9.9-10.9c-11.5,0.9-18.1-17-16.9-23.4
						c0,0-1.9-36.2-26.4-25.6c-3.6,1.6-6.3,5.1-8.3,10C283.8,44.2,285.6,77.5,285.6,77.5z"/>
				</g>
			</g>
			<path class="st0" d="M220.1,62.8c-7.2,63.9,19.5,48.5,30,40.3c-0.3-1.4-0.6-2.8-0.9-4.1c-11.1,3.7-23.2-1.7-18-47.1
				c0,0-10.1-24.4-29.9-14.4c-2.6,1.3-4.9,4.6-6.8,9.3C211.5,41.9,220.1,62.8,220.1,62.8z"/>
			<path class="st0" d="M358.7,44.5c0,0-19.6-17.7-27.8,4.4c8.2-1.2,16.8,6.6,16.8,6.6s14.3,46.7-6.2,75.3
				C377.4,105.3,358.7,44.5,358.7,44.5z"/>
			<g>
				<g id="XMLID_10643_">
					<path id="XMLID_10738_" class="st1" d="M202.7,33.2c-49.1-36.3-87.6,8.9-87.6,8.9s-31.9,72.2,28.2,91.5
						C203.2,152.9,251.8,69.5,202.7,33.2z M175.6,82.9c-11.5,29.7-46.4-17.1-21.4-20.4C154.2,62.6,187.1,53.3,175.6,82.9z"/>
					<path id="XMLID_10658_" class="st2" d="M194.7,33.8c0,0-4,1.9-5.2,3.8"/>
					<path id="XMLID_10657_" class="st2" d="M174.7,24.7c0,0-4,1.9-5.2,3.8"/>
				</g>
			</g>
			<g id="XMLID_10269_">
				<path id="XMLID_10642_" class="st4" d="M160.7,51.2"/>
				<path id="XMLID_10614_" class="st4" d="M191.7,44.2C142.6,7.9,104,53.1,104,53.1s-31.9,72.2,28.2,91.5
					C192.2,163.9,240.7,80.5,191.7,44.2z M164.6,93.9c-11.5,29.7-46.4-17.1-21.4-20.4C143.2,73.5,176.1,64.2,164.6,93.9z"/>
				<path id="XMLID_10613_" class="st4" d="M172.4,39.5"/>
				<line id="XMLID_10612_" class="st3" x1="115.9" y1="129.9" x2="119.9" y2="131.7"/>
				<path id="XMLID_10611_" class="st4" d="M176.3,133.8c0,0-0.7,3.6-3.6,3.2"/>
				<path id="XMLID_10610_" class="st4" d="M169.1,94.5c0,0-0.7,3-1.6,4"/>
				<path id="XMLID_10274_" class="st4" d="M205.2,92.3c0,0,1.3-5.6,0-5.6"/>
				<path id="XMLID_10273_" class="st4" d="M169.5,38.7c0,0,5.2,0.7,4.7,1.6"/>
				<path id="XMLID_10272_" class="st4" d="M135.5,103.2c0,0,5.1,3.5,6.1,2.9"/>
				<path id="XMLID_10271_" class="st4" d="M112.9,54.1c0,0-4,1.9-5.2,3.8"/>
				<line id="XMLID_10270_" class="st3" x1="136.6" y1="69.8" x2="140.8" y2="68.7"/>
				<path class="st0" d="M191.7,44.2C142.6,7.9,104,53.1,104,53.1s-0.3,0.6-0.7,1.6c14.6-10.9,43.5-24.6,77.3,0.4
					c27.6,20.4,24.3,55.8,5.4,79.4C213.9,112.6,224,68.1,191.7,44.2z"/>
			</g>
			<g>
				<g id="XMLID_10262_">
					<path id="XMLID_10268_" class="st1" d="M56.1,29c0,0-5-24.9-29.4-16.2s-12.8,103.1-1.5,110.4C36.4,130.6,67.8,175.7,56.1,29z"
						/>
					<path id="XMLID_10267_" class="st1" d="M50.4,74.3c0,0,42.9-42.2,34,36.8c0,0,10.1,24.4,29.9,14.4S137.8-9.9,41.8,24.9"/>
					<path id="XMLID_10266_" class="st2" d="M101.7,33.5c0,0-4,1.9-5.2,3.8"/>
					<path id="XMLID_10265_" class="st2" d="M39.8,15.3c0,0-4,1.9-5.2,3.8"/>
					<path id="XMLID_10264_" class="st2" d="M52.7,114.9c-1,0.7-2,1.5-2.5,2.3"/>
					<path id="XMLID_10263_" class="st2" d="M121.5,91.5c0,0-1.3,0.6-2.7,1.5"/>
				</g>
				<g id="XMLID_6178_">
					<path id="XMLID_10261_" class="st5" d="M45.1,40c0,0-5-24.9-29.4-16.2S2.9,126.8,14.2,134.2C25.4,141.5,56.8,186.6,45.1,40z"/>
					<path id="XMLID_10260_" class="st5" d="M39.3,85.3c0,0,42.9-42.2,34,36.8c0,0,10.1,24.4,29.9,14.4
						c19.8-10,23.5-135.4-72.4-100.7"/>
					<line id="XMLID_10259_" class="st3" x1="25.5" y1="133.3" x2="29.5" y2="135"/>
					<path id="XMLID_10258_" class="st5" d="M98.6,123c0,0,1.6,3.3-1,4.7"/>
					<path id="XMLID_10257_" class="st5" d="M108.2,82.4c0,0-0.7,3-1.6,4"/>
					<path id="XMLID_10256_" class="st5" d="M40.2,107.4c0,0,1.3-5.6,0-5.6"/>
					<path id="XMLID_10255_" class="st5" d="M70.4,69.1c0,0,5.2,0.7,4.7,1.6"/>
					<path id="XMLID_10254_" class="st5" d="M19.4,95.2c0,0,6.1-0.9,6.5-2"/>
					<path id="XMLID_6180_" class="st5" d="M50.5,37.2c0,0-4,1.9-5.2,3.8"/>
					<line id="XMLID_6179_" class="st3" x1="13.8" y1="43.6" x2="18.1" y2="42.5"/>
					<path class="st0" d="M42.1,32.4c-3.7-6.5-11.4-13.9-26.5-8.6c-4,1.4-7,5.2-9.2,10.4c13.9-4.2,21.2,3,24.7,9.2
						c72.9-18.4,79.8,65.4,68.1,94.7c1.4-0.4,2.8-0.9,4.3-1.7C122.4,126.8,126.4,11.1,42.1,32.4z"/>
				</g>
			</g>
			<path class="st0" d="M360.2,101.2c0,0-5-29-29.4-18.9c-3.5,1.5-6.3,5-8.4,10c-0.8,0.3-1.7,0.6-2.6,1c-0.4,0.2-0.8,0.4-1.2,0.6
				c-0.1,0.1-0.2,0.2-0.3,0.2c-0.3,0.2-0.5,0.4-0.8,0.6c-0.1,0.1-0.2,0.2-0.4,0.3c-0.3,0.2-0.5,0.4-0.7,0.7
				c-0.1,0.1-0.2,0.2-0.3,0.3c-0.3,0.3-0.5,0.5-0.7,0.8c-0.1,0.1-0.2,0.2-0.3,0.3c-0.3,0.3-0.5,0.7-0.8,1.1c0,0.1-0.1,0.1-0.1,0.2
				c-1,1.4-1.8,3.1-2.6,4.9l0,0l0,0c-1.5,3.6-2.7,8-3.6,12.9c-2.4-0.6-5-1.1-7.6-1.4c-19.7-2.1-33.5,3.6-42.9,11.7
				c-6.4-20.4-20.3-12.9-27.2-7.5c-26-11.6-47.2,0.7-57.5,9.1c-3.3-4.8-9.5-7.4-20.9-3.7c-0.8,0.3-1.5,0.6-2.3,0.9
				c-0.8-1.5-1.6-3-2.5-4.5c0.4-0.2,0.9-0.3,1.3-0.5c7-3,11.1-6.2,13.2-9.5c19.3-13.7-8.6-29.9-8.6-29.9c-7.3-5.7-13.3-2.9-17,2.9
				c-5.1,2.8-8.4,10.4-9.2,18.1c-10.5-4.9-23.9-6.2-41-1.9c-3.7-6.5-11.4-13.9-26.5-8.6c-4,1.4-7,5.2-9.2,10.4
				c-0.6,0.2-1.2,0.4-1.8,0.6c-24.8,8.9-13.2,103.4-1.9,110.7c7.1,4.6,22.3,24.4,29.5,1.2c8.5,1,16-10.2,14.9-61.2
				c10-1.5,19.4,7,14.7,47.9c0,0,9.9,23.9,29.3,14.7c2.9,4.4,6.1,6.8,9.3,6.2c5.8-1.2,10.5-3.7,14-8.3c4.9,5.3,11.8,9.8,21.2,12.9
				c13.4,4.3,26.1,2.8,37-2.3c-0.6,9.4-2.5,17.7-6.5,24.4c-0.9,0.5-1.8,1-2.7,1.5c-9.3,4.6-13.7,9.1-15.1,13.1
				c-28.4,16.5,4,31.7,4,31.7c19.9,0.2,32.6-5.5,40.8-15.4l0,0c0.9-1,1.7-2.1,2.4-3.3c14.2-9.3,19.7-26.1,21.5-47.4
				c2.3,0.6,4.5,1,6.5,1.3c3,0.6,6.2,1,9.6,0.9c0.2,0,0.3,0,0.3,0l0,0c3.7-0.1,7.6-0.5,11.8-1.5c10.5-2.4,19-7.4,25.4-14.2
				c1.3,3.4,2.6,5.8,3.9,6.8c4.4,3.3,11.8,13.2,18.5,14.2l0,0c0.5,0.1,1,0.1,1.5,0l0,0c0.2,0,0.3,0,0.5-0.1l0,0
				c0.5-0.1,1-0.2,1.4-0.4l0,0c0.1-0.1,0.3-0.1,0.4-0.2c0,0,0,0,0.1,0c0.5-0.2,0.9-0.6,1.4-0.9l0,0c0.1-0.1,0.3-0.2,0.4-0.4
				c0,0,0,0,0.1-0.1c0.1-0.1,0.3-0.3,0.4-0.4l0,0c0.3-0.3,0.6-0.7,0.8-1.1c0,0,0-0.1,0.1-0.1c0.1-0.2,0.2-0.3,0.3-0.5l0.1-0.1
				c0.1-0.2,0.2-0.4,0.3-0.6c0,0,0-0.1,0.1-0.1c0.3-0.5,0.5-1,0.8-1.5c0,0,0-0.1,0.1-0.1c0.1-0.2,0.2-0.4,0.3-0.7
				c0-0.1,0.1-0.1,0.1-0.2c0.1-0.2,0.2-0.5,0.3-0.7c0-0.1,0-0.1,0.1-0.2c0.2-0.6,0.5-1.3,0.7-2c0-0.1,0-0.1,0.1-0.2
				c0.1-0.2,0.1-0.4,0.2-0.6C357.9,227.6,367.4,207.6,360.2,101.2z M270.4,163.4c1.4-0.9,2.9-1.8,4.5-2.4l0,0c0,0,5.1-2.6,9.3-1.1
				c1.6,0.6,3.1,1.8,4.1,4c0,0.1,0.1,0.2,0.2,0.4c0.5,1,1.1,2.2,1.8,3.3c2.2,3.6,5.7,7.7,9.7,10.6c-0.1,0.1-0.2,0.1-0.2,0.2
				C289.9,185.5,266.7,174.4,270.4,163.4z M191,161.6c7.2-1.4,26.4-3.2,18.6,18.9C201.3,180.7,192.1,170.1,191,161.6z"/>
			<g>
				<g id="XMLID_6176_">
					<path id="XMLID_6177_" class="st1" d="M169,156.3c0,0,7.1-36.2-23.6-26.1s-12.4,89.7,3.8,86.3
						C165.4,213.3,172.8,200.6,169,156.3z"/>
				</g>
			</g>
			<path id="XMLID_6175_" class="st1" d="M296,136.5c0,0-9-6.3-12.9-1.4c-3.9,5-10.6,13.4-2.7,29.8c7.8,16.5,37.7,3,40.6-4.7"/>
			<path id="XMLID_6172_" class="st6" d="M315.6,266.3c-1.2-9.1-3.3-12.8-6-14.4c0,0-14.6-5.5-18.6,8.3c-4,13.8,8.2,16.5,9.8,16.4
				C302.5,276.6,316.8,275.4,315.6,266.3z M306.2,265.4c-0.4,0.8-1.3,1.4-3.7,2c-2.4,0.5-3.1-3.3-3.1-3.7c-0.1-0.4,0.4-3.8,4.2-3
				C307.3,261.4,306.2,265.4,306.2,265.4z"/>
			<g>
				<g id="XMLID_6160_">
					<path id="XMLID_6163_" class="st6" d="M337.9,270.6"/>
					<path id="XMLID_6162_" class="st6" d="M346.4,270.1c0-3.6-0.3-8.6,1.1-9.7c1.8-1.5,7.9-0.9,7,2.9c-0.5,2.2-0.5,4.7-0.5,6.4
						c0,1.2,0.1,2.2,0.1,2.5c0,1,0.4,3,3.7,3.3c4.4,0.5,5-0.9,5-4c0-3.1,3.7-18-9-20.6c-8.9-1.8-13.6,3.2-15.6,7.2"/>
					<path id="XMLID_6161_" class="st6" d="M346.8,259.8"/>
				</g>
				<g id="XMLID_6155_">
					<path id="XMLID_6159_" class="st6" d="M345.1,256.2c-1.4-2.4-3.8-4.4-7.7-5.2c-12.7-2.6-16.8,8.7-16.8,11.4
						c0,1.5,0.3,5.1,0.9,8.1"/>
					<path id="XMLID_6158_" class="st6" d="M321.6,270.5c0.5,2.6,8.5,0.6,8.5-0.5c0-3.6-0.3-8.6,1.1-9.7c1.5-1.2,5.8-1,6.9,1.1
						c0.2,0.5,0.3,1.1,0.2,1.8c-0.5,2.2-0.5,4.7-0.5,6.4c0,1.2,0.1,2.2,0.1,2.5c0,1,0.4,3,3.7,3.3c4.4,0.5,5-0.9,5-4
						c0-1.6,0.9-6.1,0.2-10.6"/>
					<path id="XMLID_6157_" class="st6" d="M330.6,259.8"/>
					<path id="XMLID_6156_" class="st6" d="M330.6,259.8c0.2,5.1-0.1,11-0.7,13.2c0,0-2.4,4.3-6.1,2.3c-3.7-2-3.9-22.7-1.6-23.6
						c2.3-0.9,6.7-3,7.8,1.8"/>
				</g>
			</g>
			<path id="XMLID_6154_" class="st6" d="M281.3,265c-0.6,0.2-1.2,1-1.8,1.7c-0.2,0.2-0.3,0.4-0.5,0.6c-0.1,0.2-0.6,0.6-0.7,0.6
				c-1.9,0.9-5.5,1.9-7-1.9c-0.1-0.3-0.3-1.4-0.3-1.7c0-0.5,0-1.1,0.1-1.5c0.4-4,1.7-5.8,3-6c1.5-0.2,4.4,0.9,5.2,2.8
				c0,0,0.8,3.6,2.8,3.1c2-0.5,5.8-2.6,2.8-6.5c-3-3.9-6-8-14.3-5.1c-8.4,2.9-6.8,13.5-6.5,14.3c0.3,0.7,4.6,15.5,16,9
				C291.6,267.9,282.5,264.6,281.3,265z"/>
			<path class="st0" d="M68.2,117c-3.7-6.5-11.4-13.9-26.5-8.6c-4,1.4-7,5.2-9.2,10.4c13.9-4.2,21.2,3,24.7,9.2
				c72.9-18.4,79.8,65.4,68.1,94.7c1.4-0.4,2.8-0.9,4.3-1.7C148.6,211.3,152.6,95.7,68.2,117z"/>
			<path id="XMLID_6153_" class="st7" d="M284.9,147.4c0,0-9-6.3-12.9-1.4c-3.9,5-10.6,13.4-2.7,29.8c7.8,16.5,37.7,3,40.6-4.7"/>
			<path class="st0" d="M282.7,195.2c-0.1,0.1-0.2,0.1-0.2,0.2c-9.7,7.2-32.9-4-29.2-15c-4,2.6-7,5.7-7,5.7
				c-15.5,12.1,13.9,28.6,25.1,20.3c0.3-0.3,0.7-0.6,1-0.9c3.3-2.8,7.7-5.4,12-4.7c7.8,1.2,20.9,3.1,21.8,18.3
				c-1.4,2.9-3.1,5.6-5,8.2c7-5.1,12.3-11.7,16.1-19.1c-0.7-9.6-6.1-13.8-11.9-16c-1.4,1.3-3.2,2.7-5.4,4.3
				C294.1,200.6,287.9,198.9,282.7,195.2z"/>
			<g>
				<g id="XMLID_6147_">
					<path id="XMLID_6152_" class="st1" d="M82.3,113.7c0,0-5-24.9-29.4-16.2S40,200.6,51.3,207.9S94,260.3,82.3,113.7z"/>
					<path id="XMLID_6151_" class="st1" d="M76.6,159c0,0,42.9-42.2,34,36.8c0,0,10.1,24.4,29.9,14.4
						c19.9-10.1,23.4-135.4-72.4-100.6"/>
					<path id="XMLID_6150_" class="st2" d="M122.4,112.6c0,0-4,1.9-5.2,3.8"/>
					<path id="XMLID_6149_" class="st2" d="M138.4,127.6c0,0-4,1.9-5.2,3.8"/>
					<path id="XMLID_6148_" class="st2" d="M64.5,100.4c0,0-2.3,1.1-3.9,2.5"/>
				</g>
				<g id="XMLID_6136_">
					<path id="XMLID_6146_" class="st8" d="M71.3,124.7c0,0-5-24.9-29.4-16.2S29,211.5,40.3,218.9S83,271.2,71.3,124.7z"/>
					<path id="XMLID_6145_" class="st8" d="M65.5,170c0,0,42.9-42.2,34,36.8c0,0,10.1,24.4,29.9,14.4C149.4,211,152.8,85.8,57,120.6
						"/>
					<line id="XMLID_6144_" class="st3" x1="53.1" y1="221.3" x2="57" y2="223.1"/>
					<path id="XMLID_6143_" class="st8" d="M126.2,211.1c0,0,1.6,3.3-1,4.7"/>
					<path id="XMLID_6142_" class="st8" d="M135.8,170.5c0,0-0.7,3-1.6,4"/>
					<path id="XMLID_6141_" class="st8" d="M67.7,195.5c0,0,1.3-5.6,0-5.6"/>
					<path id="XMLID_6140_" class="st8" d="M98,157.1c0,0,5.2,0.7,4.7,1.6"/>
					<path id="XMLID_6139_" class="st8" d="M47,183.3c0,0,6.1-0.9,6.5-2"/>
					<path id="XMLID_6138_" class="st8" d="M78.1,125.2c0,0-4,1.9-5.2,3.8"/>
					<line id="XMLID_6137_" class="st3" x1="41.4" y1="131.7" x2="45.7" y2="130.6"/>
					<path class="st0" d="M67.8,116.5c-3.7-6.5-11.4-13.9-26.5-8.6c-4,1.4-7,5.2-9.2,10.4c13.9-4.2,21.2,3,24.7,9.2
						c72.9-18.4,79.8,65.4,68.1,94.7c1.4-0.4,2.8-0.9,4.3-1.7C148.1,210.8,152.1,95.2,67.8,116.5z"/>
				</g>
				<path id="XMLID_6135_" class="st2" d="M146.5,193.2c-1,0.7-2,1.5-2.5,2.3"/>
				<path id="XMLID_6134_" class="st2" d="M79.1,199.4c0,0-1.3,0.6-2.7,1.5"/>
			</g>
			<g>
				<g>
					<g id="XMLID_6132_">
						<path id="XMLID_6133_" class="st1" d="M169,156.3c0,0,7.1-36.2-23.6-26.1s-12.4,89.7,3.8,86.3
							C165.4,213.3,172.8,200.6,169,156.3z"/>
					</g>
				</g>
				<g>
					<g id="XMLID_6130_">
						<path id="XMLID_6131_" class="st9" d="M157.9,167.3c0,0,7.1-36.2-23.6-26.1s-12.4,89.7,3.8,86.3
							C154.3,224.3,161.8,211.6,157.9,167.3z"/>
					</g>
					<line id="XMLID_6129_" class="st3" x1="131.9" y1="217.6" x2="135.9" y2="219.4"/>
					<path id="XMLID_6128_" class="st9" d="M152.1,205.1c0,0,1.6,3.3-1,4.7"/>
					<path id="XMLID_6127_" class="st9" d="M127.6,158c0,0-0.7,3-1.6,4"/>
					<path id="XMLID_6126_" class="st9" d="M153.2,160.1c0,0,1.3-5.6,0-5.6"/>
					<path id="XMLID_6125_" class="st9" d="M139.3,144c0,0,5.2,0.7,4.7,1.6"/>
				</g>
				<g>
					<path id="XMLID_6124_" class="st1" d="M146.5,86.9c0,0,34.4,19.8,0.4,34.3S123.5,68.8,146.5,86.9z"/>
					<path id="XMLID_6123_" class="st2" d="M155.5,100.7c0,0-4,1.9-5.2,3.8"/>
				</g>
				<g>
					<path id="XMLID_6122_" class="st10" d="M141.5,91.9c0,0,34.4,19.8,0.4,34.3S118.5,73.7,141.5,91.9z"/>
					<path id="XMLID_6121_" class="st10" d="M135.3,124.1c0,0,6.1-0.9,6.5-2"/>
					<path id="XMLID_6120_" class="st10" d="M132.2,94.3c0,0-4,1.9-5.2,3.8"/>
				</g>
				<path id="XMLID_6119_" class="st2" d="M156,134.5c-1.3,0.7-3.1,1.9-3.8,3.1"/>
				<path id="XMLID_6118_" class="st2" d="M164.1,199.7c0,0-1,0.5-2.2,1.2"/>
				<path class="st0" d="M157.9,167.3c0,0,7.1-36.2-23.6-26.1c-5.5,1.9-9.4,6-12.1,11.4c0.4-0.1,0.7-0.3,1.1-0.4
					c30.6-10.2,23.6,26.1,23.6,26.1c2.1,24,0.9,38.7-3.3,47.7C156,220.7,161.3,206.2,157.9,167.3z"/>
				<path class="st0" d="M136.5,96.9c0,0,21.7,12.5,13.6,24.9c19.3-13.7-8.6-29.9-8.6-29.9c-7.3-5.7-13.3-2.9-17,2.9
					C127.8,93.1,131.9,93.3,136.5,96.9z"/>
			</g>
			<g>
				<g id="XMLID_6113_">
					<path id="XMLID_6115_" class="st1" d="M236.8,132.6c-43.4-32.1-77.4,7.8-77.4,7.8s-28,63.7,24.9,80.8
						C237.3,238.4,280.2,164.6,236.8,132.6z M214.1,177c-11.1,28.8-44.9-16.6-20.7-19.8C193.4,157.2,225.2,148.2,214.1,177z"/>
					<path id="XMLID_6114_" class="st1" d="M219.8,128.4c0,0,34-36.1,34.5,31.9c0.5,68,11.6,130-53.5,129.4c0,0-35.3-16.6,0.1-34
						c17.3-8.4,20.9-26.2,20.6-48.4"/>
				</g>
				<g id="XMLID_5195_">
					<path id="XMLID_6112_" class="st11" d="M198.4,149.7"/>
					<path id="XMLID_6109_" class="st11" d="M225.7,143.5c-43.4-32.1-77.4,7.8-77.4,7.8s-28,63.7,24.9,80.8
						C226.3,249.3,269.1,175.6,225.7,143.5z M203.1,187.9c-11.1,28.8-44.9-16.6-20.7-19.8C182.3,168.2,214.2,159.2,203.1,187.9z"/>
					<path id="XMLID_6108_" class="st11" d="M208.7,139.4"/>
					<path id="XMLID_6107_" class="st11" d="M208.7,139.4c0,0,34-36.1,34.5,31.9c0.5,68,11.6,130-53.5,129.4c0,0-35.3-16.6,0.1-34
						c17.3-8.4,20.9-26.2,20.6-48.4"/>
					<line id="XMLID_6106_" class="st3" x1="186.7" y1="291.9" x2="190.8" y2="293.6"/>
					<path id="XMLID_6105_" class="st11" d="M221.7,285.2c0,0,1.6,3.3-1,4.7"/>
					<path id="XMLID_6104_" class="st11" d="M239.3,251.2c0,0-0.7,3-1.6,4"/>
					<path id="XMLID_6103_" class="st11" d="M236.3,207.8c0,0,1.3-5.6,0-5.6"/>
					<path id="XMLID_5199_" class="st11" d="M161.6,221.8c0,0,5.2,0.7,4.7,1.6"/>
					<path id="XMLID_5198_" class="st11" d="M225.4,166c0,0,6.1-0.9,6.5-2"/>
					<path id="XMLID_5197_" class="st11" d="M162.3,149.1c0,0-4,1.9-5.2,3.8"/>
					<line id="XMLID_5196_" class="st3" x1="205.9" y1="196.3" x2="202.1" y2="198.5"/>
				</g>
				<path class="st0" d="M243.4,182.4c0.2-3.2,0.2-6.3-0.2-9.4c0-0.5,0-1.1,0-1.6c-0.4-53.4-21.6-42.6-30.5-35.5
					c-36.9-16.5-64.5,15.6-64.5,15.6s-0.3,0.7-0.8,1.9c11.2-8.1,30.8-17,54.1-6.6c9-7.1,30.1-17.9,30.5,35.5c0,0.5,0,1.1,0,1.6
					c0.4,3.1,0.4,6.3,0.2,9.4c0.9,40.8,3.9,78.3-10.3,99.7C248.7,275.8,244.4,231.5,243.4,182.4z"/>
				<path id="XMLID_5194_" class="st2" d="M244.4,128c0,0-4,1.9-5.2,3.8"/>
				<path id="XMLID_5193_" class="st2" d="M198.4,123.8c0,0-4,1.9-5.2,3.8"/>
				<path id="XMLID_5192_" class="st2" d="M192.2,187.8c0,0-4,1.9-5.2,3.8"/>
				<path id="XMLID_5191_" class="st2" d="M251.4,215.9c-1.2,0.7-2.8,1.8-3.5,2.9"/>
				<path id="XMLID_5190_" class="st2" d="M250,239c0,0-0.7,0.4-1.7,0.9"/>
			</g>
			<g>
				<g>
					<path id="XMLID_5189_" class="st1" d="M331,149.9L331,149.9c-5.6-15.2-18.1-27.2-37.2-29.2c-38-3.9-53.8,20.7-59.8,35.6
						c0,0-1.3,2.2-2.3,6.6c-0.8,2.6-1,4.8-0.8,5.8c-0.5,8.2,0.7,20.4,8.4,36.6c6.3,13.2,22.1,18,32.7,19.7c3,0.6,6.2,1,9.6,0.9
						c0.2,0,0.3,0,0.3,0l0,0c3.7-0.1,7.6-0.5,11.8-1.5c16.7-3.7,28.3-14.4,34.7-27.5c-1-15.2-14-17-21.8-18.3c-4.3-0.6-8.6,2-12,4.7
						c-0.4,0.3-0.7,0.6-1,0.9c-11.3,8.3-40.8-8.1-25.1-20.3c0,0,5.3-5.6,11.5-8.1l0,0c0,0,5.1-2.6,9.3-1.1c1.6,0.6,3.1,1.8,4.1,4
						c0,0.1,0.1,0.2,0.2,0.4c0.5,1,1.1,2.2,1.8,3.3c5.1,8.3,16.4,19.3,27,11.7c12.2-8.8,10.8-12.1,11.4-15.5l0,0
						C334.1,155.4,331,149.9,331,149.9z"/>
				</g>
				<g>
					<path id="XMLID_5188_" class="st7" d="M320,160.8L320,160.8c-5.6-15.2-18.1-27.2-37.2-29.2c-38-3.9-53.8,20.7-59.8,35.6
						c0,0-1.3,2.2-2.3,6.6c-0.8,2.6-1,4.8-0.8,5.8c-0.5,8.2,0.7,20.4,8.4,36.6c6.3,13.2,22.1,18,32.7,19.7c3,0.6,6.2,1,9.6,0.9
						c0.2,0,0.3,0,0.3,0l0,0c3.7-0.1,7.6-0.5,11.8-1.5c16.7-3.7,28.3-14.4,34.7-27.5c-1-15.2-14-17-21.8-18.3c-4.3-0.6-8.6,2-12,4.7
						c-0.4,0.3-0.7,0.6-1,0.9c-11.3,8.3-40.8-8.1-25.1-20.3c0,0,5.3-5.6,11.5-8.1l0,0c0,0,5.1-2.6,9.3-1.1c1.6,0.6,3.1,1.8,4.1,4
						c0,0.1,0.1,0.2,0.2,0.4c0.5,1,1.1,2.2,1.8,3.3c5.1,8.3,16.4,19.3,27,11.7c12.2-8.8,10.8-12.1,11.4-15.5l0,0
						C323,166.4,320,160.8,320,160.8z"/>
					<line id="XMLID_5187_" class="st3" x1="234.5" y1="215.3" x2="237.1" y2="218.9"/>
					<path id="XMLID_5186_" class="st7" d="M306.9,211.7c0,0,1.6,3.3-1,4.7"/>
					<path id="XMLID_5185_" class="st7" d="M319.4,169.7c0,0-0.7,3-1.6,4"/>
					<path id="XMLID_5184_" class="st7" d="M250.2,174.3c0,0,1.3-5.6,0-5.6"/>
					<path id="XMLID_5183_" class="st7" d="M278.7,157.8c0,0,5.2,0.7,4.7,1.6"/>
					<path id="XMLID_5182_" class="st7" d="M272.7,231.4c0,0,6.1-0.9,6.5-2"/>
					<path id="XMLID_5181_" class="st7" d="M241.5,149.9c0,0-4,1.9-5.2,3.8"/>
					<line id="XMLID_5180_" class="st3" x1="301.7" y1="183.7" x2="305.9" y2="182.5"/>
				</g>
				<path class="st0" d="M320,160.8L320,160.8c-5.6-15.2-18.1-27.2-37.2-29.2c-26.5-2.8-42.2,8.4-51.3,20.4
					c9.3-6.9,22.3-11.3,40.2-9.5c19.1,2,31.5,14,37.1,29.2l0,0c0,0,3.1,5.6,2.5,9l0,0c-0.2,1.5-0.1,3-0.9,4.9
					c0.2-0.1,0.4-0.2,0.6-0.4c12.2-8.8,10.8-12.1,11.4-15.5l0,0C323,166.4,320,160.8,320,160.8z"/>
				<path id="XMLID_5179_" class="st2" d="M329.3,155.3c0,0-4,1.9-5.2,3.8"/>
				<path id="XMLID_5178_" class="st2" d="M296.4,125.2c0,0-4,1.9-5.2,3.8"/>
				<path id="XMLID_5177_" class="st2" d="M269.2,186.1c0,0-4,1.9-5.2,3.8"/>
				<path id="XMLID_5176_" class="st2" d="M324.1,197.3c0,0-4,1.9-5.2,3.8"/>
			</g>
			<g>
				<g>
					<path id="XMLID_5175_" class="st1" d="M354.2,107.2c0,0-5-29-29.4-18.9s-12.8,120.4-1.6,129
						C334.4,225.9,365.8,278.3,354.2,107.2z"/>
				</g>
				<g>
					<path id="XMLID_5174_" class="st12" d="M343.1,118.1c0,0-5-29-29.4-18.9s-12.8,120.4-1.6,129
						C323.4,236.9,354.7,289.3,343.1,118.1z"/>
					<path id="XMLID_5173_" class="st12" d="M332.7,225.3c0,0,1.6,3.3-1,4.7"/>
					<path id="XMLID_5172_" class="st12" d="M340.8,173.1c0,0,0.4,3,0.1,4.3"/>
					<path id="XMLID_5171_" class="st12" d="M309.3,193.5c0,0,1.3-5.6,0-5.6"/>
					<path id="XMLID_5153_" class="st12" d="M316.6,105.2c0,0-4,1.9-5.2,3.8"/>
				</g>
				<path class="st0" d="M343.1,118.1c0,0-5-29-29.4-18.9c-3.5,1.5-6.3,5-8.4,10c22.2-7,26.8,19.9,26.8,19.9
					c4.5,65.4,2.6,98.2-2,113.2C340.9,244.5,350.3,224.5,343.1,118.1z"/>
				<path id="XMLID_5152_" class="st2" d="M348.5,190.1c1.3,0.1,2.7,0,3.7-0.4"/>
				<path id="XMLID_5145_" class="st2" d="M347.5,213c0,0,1.3,0.1,2.8,0.1"/>
				<path id="XMLID_5144_" class="st2" d="M348.9,103.1c0,0-4.4,0.7-6,2.3"/>
			</g>
		</g>
	</g>
	<path id="XMLID_3926_" class="st5" d="M258.1,274.4c-0.4,0.8-1.3,1.4-3.7,2c-2.4,0.6-3.1-3.3-3.1-3.7c-0.1-0.4,0.4-3.8,4.2-3
		C259.2,270.4,258.1,274.4,258.1,274.4z"/>
</g>
</svg>
