<?xml version="1.0" encoding="utf-8"?>
<!-- Generator: Adobe Illustrator 22.1.0, SVG Export Plug-In . SVG Version: 6.00 Build 0)  -->
<svg version="1.1" id="Layer_1" xmlns="http://www.w3.org/2000/svg" xmlns:xlink="http://www.w3.org/1999/xlink" x="0px" y="0px"
	 viewBox="0 0 326.8 681.4" style="enable-background:new 0 0 326.8 681.4;" xml:space="preserve">
<style type="text/css">
	.st0{fill:#A36B78;stroke:#584C4F;stroke-width:2;stroke-linecap:round;stroke-miterlimit:10;}
	.st1{fill:#A36B78;stroke:#584C4F;stroke-width:2;stroke-linecap:round;stroke-linejoin:round;stroke-miterlimit:10;}
	.st2{fill:#FFD767;stroke:#584C4F;stroke-width:2;stroke-miterlimit:10;}
	.st3{fill:#A36B78;}
	.st4{fill:none;stroke:#584C4F;stroke-width:2;stroke-linecap:round;stroke-miterlimit:10;}
	.st5{fill:#BEAB72;}
	.st6{fill:#584C4F;stroke:#584C4F;stroke-width:2;stroke-linecap:round;stroke-miterlimit:10;}
	.st7{opacity:0.1;fill:#231F20;stroke:#231F20;stroke-miterlimit:10;enable-background:new    ;}
	.st8{fill:#FFFFFF;stroke:#584C4F;stroke-width:2;stroke-linecap:round;stroke-miterlimit:10;}
</style>
<g>
	<g>
		<g>
			<path class="st0" d="M266.1,646.8c-0.1,1.2,0.2,2.4,1.3,3.4c0.2,0.3,0.6,0.6,0.9,0.8c1.2,0.9,3.1,1.5,5.4,2
				c1.9,0.3,3.9,0.6,6.2,0.8c1.5,0.1,3,0.3,4.6,0.3c1.2,0.2,2.5,0.2,3.7,0.2c1.3-0.1,2.5-0.2,3.7-0.2c1.7-0.1,3.2-0.2,4.6-0.3
				c2.4-0.1,4.4-0.5,6.2-0.8c2.3-0.5,4.2-1.2,5.4-2c0.3-0.3,0.7-0.6,0.9-0.8c0.8-0.7,1.2-1.6,1.3-2.5c-8.9-3.7-16.3-10-18.2-20.8
				c-1-1-1.7-1.6-1.7-1.6s-0.3-0.3-0.6-0.7c0-0.1-0.1-0.2-0.2-0.3l-0.1-0.2c-0.1-0.5-0.2-1.3-0.3-2.4h-0.8h-0.8l-15.2,1.3
				c-0.1,3.9-0.2,6.4-0.2,6.9c0,0.1,0,0.1,0,0.1s0.1,0,0.2,0c-0.8,3.4-1.9,6.2-2.9,8.5c-1,2.5-2,4.5-2.6,6.3
				C266.7,645.5,266.5,646.2,266.1,646.8z"/>
			<path class="st0" d="M273,627.6l16.9-1.5c0,0-1.8-54.9-1.5-93.4c0-6,0.1-11.6,0.3-16.5c-3-1.5-5.6-2.8-7.6-3.9
				c-0.4-0.9-2.8-2.3-7.8-4.5c-2-0.9-4.5-1.9-7.4-3l0,0c-4-1.6-8.6-3.4-13.5-5.3C211,482.7,159,457.2,159,457.2l-4.7,28.5
				c5.4-0.9,74.4,25,119.9,41.7c0,0.3,0,0.5,0,0.7C276.3,568.4,273.1,627.5,273,627.6z"/>
			<g>
				<g id="XMLID_11505_">
					<path id="XMLID_11506_" class="st0" d="M320.4,653.8c-2.2-4.9,3.8-4.3,3.8-4.3C329.2,652.8,322.5,658.6,320.4,653.8z"/>
				</g>
				<g id="XMLID_11503_">
					<path id="XMLID_11504_" class="st0" d="M316.4,653.6c-2.4-5.5,4.3-4.8,4.3-4.8C326.3,652.5,318.8,658.9,316.4,653.6z"/>
				</g>
				<g id="XMLID_11501_">
					<path id="XMLID_11502_" class="st0" d="M311.4,653.1c-2.8-6.3,5-5.5,5-5.5C323,652,314.3,659.5,311.4,653.1z"/>
				</g>
				<g id="XMLID_11499_">
					<path id="XMLID_11500_" class="st0" d="M305.3,652.8c-3.2-7.1,5.7-6.3,5.7-6.3C318.5,651.5,308.5,660,305.3,652.8z"/>
				</g>
				<path id="XMLID_11498_" class="st0" d="M291.9,652.5c0.7-2.9,9.4-10,14.3-3.1s-5.7,6.2-5.7,6.2S291.2,655.5,291.9,652.5z"/>
			</g>
			<path id="XMLID_11497_" class="st0" d="M275,514.1c0-1.8,2.3-2,2.3-2"/>
			<path id="XMLID_11496_" class="st0" d="M283.7,527.3c-0.1,0.7-2.8,1.5-2.8,1.5"/>
			<g id="XMLID_11494_">
				<path id="XMLID_11495_" class="st0" d="M289.3,621.6c9,1.1,3.9,13.2-2.2,8.2"/>
			</g>
			<g id="XMLID_11492_">
				<path id="XMLID_11493_" class="st0" d="M284.3,515.7c8.6-2.5,8.8,10.6,1.2,8.5"/>
			</g>
		</g>
		<g>
			<g>
				<g id="XMLID_11759_">
					<path id="XMLID_11760_" class="st0" d="M189.5,384.5c8.6-2.5,8.8,10.6,1.2,8.5"/>
				</g>
				<path id="XMLID_11758_" class="st0" d="M179.3,261.2c-1.4,34-5.6,92.2-3.2,107.9c3.4,22,0,126.4,0,126.4L193,497
					c0,0-3.2-59.2-1.1-99.4c1.1-22.2,2.5-65,4.2-99.8"/>
				<g id="XMLID_11753_">
					<path id="XMLID_11754_" class="st0" d="M191.5,493.8c3.3-1.1,4.1,12.1,4.1,12.1s1.9,42.3-1.7,24.3c-3.5-18-5.3-16.1-3.6,5.4
						c1.6,21.6-7.5-22-8.8-15.1c-1.4,6.8-5.8,50.8-5.8-4.2c0,0,4.1-25.6-6.4,14.5s2.3-25.1,3.1-28.5s-12.9,19.5-9.1,10.1
						s5.9-11.8,12.8-19"/>
				</g>
				<path id="XMLID_11752_" class="st0" d="M182.6,386.2c0.2-0.6,3-1.2,3-1.2"/>
				<path id="XMLID_11748_" class="st0" d="M188.8,390.3c-0.6,1.8-2.8,1.4-2.8,1.4"/>
				<path id="XMLID_11747_" class="st1" d="M189.4,491.7c13.6-0.8,0-9.9,0-9.9"/>
			</g>
			<path id="XMLID_11746_" class="st2" d="M173.9,260.8c9.1,2.4,16.8,5.1,18.7,8c5.6,8.2,12.3,98-1.4,98.5s-15.6-0.1-15.3-5
				s-6-61.4-3.8-65.6"/>
			<path class="st0" d="M82.6,465.9c0,0,0.1,0,0.2,0c0.5,4.1,2,8.5,4.4,13c0,0,1.3,15.3,51.4,14.5c30.7-0.5,50.1-15.5,53.2-32.5h0.1
				c0-0.2,0.1-0.5,0.1-0.9c0.1-1,0.2-2.1,0.2-3.1c0.7-11.1,1.3-40.6,1.3-40.6l-111.1,4.1C80.6,429.3,82.6,465.9,82.6,465.9z"/>
			<g>
				<path class="st2" d="M91.7,447.4c2.3-0.5,5.2-1,8.4-1.5l77.2-4c4-0.1,9.4,1.2,9.4,1.2c4.3,2.3,7,1.4,8.6-1.4
					c0.1-0.1,0.2-0.2,0.2-0.3c4.2-8,0.3-29.4-2.9-37.9c-0.2-0.5-0.4-1.2-0.6-2c-3.8-15.6-3.8-74.4-2.4-110.6
					c0.1-3.9,0.1-7.4-0.1-10.4c-1.4-26.8-28.8-27.1-46.6-27.9c-18.8-0.8-32.5,2.9-39.2,8.5c-3.5,1-8.8,3-13,6.2
					c-3.1,2.3-5.6,5.3-6.4,9c-0.1,0.4-0.1,0.8-0.2,1.3c-1.5,13.2-4.5,93.7-5.9,101c-0.3,1.4-1,5.9-1.9,11.9
					c-0.1,0.7-0.2,1.4-0.3,2.2C72.7,417.6,69.2,463.8,91.7,447.4z"/>
				<path class="st2" d="M186.3,443c4.3,2.3,7.1,1.4,8.7-1.4c0.1-0.1,0.1-0.2,0.2-0.3c4.2-8,0.2-29.4-2.9-37.9
					c-0.2-0.5-0.4-1.2-0.6-2c-3.7-15.6-3.7-74.4-2.3-110.6c0-0.9,0.1-1.7,0.1-2.6"/>
				<path class="st2" d="M188.6,274.5c-5-20.9-29.4-21.2-45.8-21.9c-18.8-0.8-32.5,2.9-39.2,8.5c-3.5,1-8.8,3-13,6.2
					c-3.1,2.3-5.6,5.3-6.4,9c-0.1,0.4-0.1,0.8-0.2,1.3c-1.5,13.2-4.5,93.7-5.9,101c-0.3,1.4-1,5.9-1.9,11.9
					c-0.1,0.7-0.2,1.4-0.3,2.2c-3.3,24.8-6.7,71,15.6,54.5c2.3-0.5,5.2-1,8.4-1.5l77.2-4"/>
			</g>
			<path id="XMLID_11745_" class="st0" d="M86.2,442.4c3.6-13.7-5.1-107.3-5.1-107.3"/>
			<g>
				<path id="XMLID_11744_" class="st3" d="M124.4,260.2c9.6,21.2,33.7,8.3,33.8-8c0-2.9,0-14.1,0.1-17.5c0.1-2.6,0.5-17.7-3-25.5
					c-11.2-25-42.7-2.6-31.3,16.8c-0.6,2.2-1,4.7-1.2,7.6c-0.2,3.2-1.3,13.2-1.1,16.6"/>
				<path id="XMLID_11743_" class="st4" d="M126.2,263.4c-0.5-0.9-1.1-2-1.6-3.1l-2.8-10c-0.3-3.5,0.9-13.4,1.1-16.6
					c0.1-3,0.6-5.5,1.2-7.6c-11.4-19.5,20.1-41.8,31.3-16.8c3.5,7.8,3.1,22.9,3,25.5c-0.1,3.4-0.2,14.6-0.2,17.5
					c0,13.7-17.3,25.1-28.4,15.5"/>
			</g>
			<g>
				<g id="XMLID_11741_">
					<path id="XMLID_11742_" class="st0" d="M87,393.3c-9-1.1-3.9-13.2,2.2-8.2"/>
				</g>
				<path id="XMLID_11740_" class="st0" d="M99.3,283.9c1.7,32.7,4.1,72.6,2.1,85.2c-3.4,22,0,126.4,0,126.4L84.5,497
					c0,0,3.2-59.2,1.1-99.4c-1-18.4-2.1-51-3.4-81.5"/>
				<path id="XMLID_11739_" class="st0" d="M89.9,387.3c0-1.9,2.3-2,2.3-2"/>
				<path id="XMLID_11738_" class="st0" d="M95.8,390.3c-0.2,0.6-2.9,1.5-2.9,1.5"/>
				<g id="XMLID_11725_">
					<path id="XMLID_11737_" class="st3" d="M101.3,494.7l-16.2-3.8c0,0-21.4,34.9-14.1,35.1c3.9,0.1,5.3-0.9,5.9-1.9
						c-0.5,3.3-0.8,9.4,4.8,6.5l0.1-1.5c1.3,2.2,5.5,8.4,8.9,2l1.1-0.5c2.5,2.1,7.7,5.3,6.9-5.5c1.5,0.1,3.5,0,6.4-0.8
						C119.9,520.5,101.3,494.6,101.3,494.7z"/>
					<path id="XMLID_11736_" class="st0" d="M85.1,490.8c0,0-21.4,34.9-14.1,35.1c3.9,0.1,5.3-0.9,5.9-1.9c-0.5,3.3-0.8,9.4,4.8,6.5
						l0.1-1.5c1.3,2.2,5.5,8.4,8.9,2l1.1-0.5c2.5,2.1,7.7,5.3,6.9-5.5c1.5,0.1,3.5,0,6.4-0.8c14.8-3.7-3.8-29.6-3.8-29.6"/>
					<g id="XMLID_11729_">
						<g id="XMLID_11731_">
							<path id="XMLID_11735_" class="st1" d="M81.6,530.6c-7.5,3.8-4.4-8.4-4.4-8.4c-0.1,0.3,1.1,4-6.2,3.8
								c-7.3-0.1,14.1-35.1,14.1-35.1"/>
							<path id="XMLID_11734_" class="st1" d="M91,530.5c-4.2,8.4-9.4-2.1-9.4-2.1"/>
							<path id="XMLID_11733_" class="st1" d="M101.9,518c-4.2-0.4-11.6,9.9,3.2,6.2s-3.8-29.6-3.8-29.6"/>
							<path id="XMLID_11732_" class="st1" d="M98.1,515.8l0.5,8c1.7,15.9-8.1,5.5-8.1,5.5"/>
						</g>
						<path id="XMLID_11730_" class="st1" d="M87.7,479c-10,0.8,0,10.9,0,10.9"/>
					</g>
					<path id="XMLID_11728_" class="st0" d="M91,522.8c0.8-2.6,0.4-7.5,0.4-7.5"/>
					<path id="XMLID_11727_" class="st0" d="M82.6,524.6c0.8,0,0.9-3.5,0.9-3.5"/>
					<path id="XMLID_11726_" class="st1" d="M79,514c0,0,2.9-4.7,3.6-6.9"/>
				</g>
			</g>
			<path id="XMLID_11721_" class="st2" d="M105.1,263.7c-9.1,2.4-16.8,5.1-18.7,8c-5.6,8.2-12.3,98,1.4,98.5s15.6-0.1,15.3-5
				s6-61.3,3.8-65.5"/>
			<g>
				<path class="st5" d="M111.9,300.9c0.3,6.9,4,7.1,12.1,6.1c8.2-1.1,3.7-16.3,2.8-21.1c-0.9-4.7-14.6,0.4-14.6,0.4
					S111.6,294,111.9,300.9z"/>
				<g>
					<path id="XMLID_11720_" class="st0" d="M112,289.6c-1-1.5,0.8-2.9,0.8-2.9"/>
					<path id="XMLID_11719_" class="st0" d="M128.4,288.4c-0.7-1.2-3.2-2.4-3.2-2.4"/>
					<path id="XMLID_11715_" class="st0" d="M112.1,293.7c-0.5,1.4,0.3,4,0.3,4"/>
					<path id="XMLID_11714_" class="st0" d="M122,307c1.3,0.3,3.9-0.8,3.9-0.8"/>
					<path id="XMLID_11713_" class="st0" d="M116.6,305.6c-1.7,0.6-2.6-1.4-2.6-1.4"/>
					<path id="XMLID_11712_" class="st0" d="M128.9,295.7c-0.5-0.5-0.9-2.4-0.9-2.4"/>
					<line id="XMLID_11711_" class="st4" x1="120.9" y1="285.4" x2="118.2" y2="285.5"/>
					<path id="XMLID_11710_" class="st0" d="M129,304.4c0.5-1.3-0.1-4-0.1-4"/>
				</g>
				<g>
					<path id="XMLID_11709_" class="st0" d="M159.4,470.1c1.3,1.7-0.4,4.6-0.4,4.6"/>
					<path id="XMLID_11708_" class="st0" d="M157.4,465.7c-0.3-1.4-2.2-3.4-2.2-3.4"/>
					<path id="XMLID_11707_" class="st0" d="M154.5,482.9c1-0.9,1.8-3.5,1.8-3.5"/>
				</g>
			</g>
			<g id="XMLID_11651_">
				<g id="XMLID_11703_">
					<path id="XMLID_11706_" class="st0" d="M179,191.2c0,0,0.1,5.4,6.6,7.8c6.4,2.5,11.3-17,10.9-35.1s-17.9,5.1-17.9,5.1"/>
					<path id="XMLID_11705_" class="st0" d="M192.9,164.6c-1.7-5-8.5,5.6-8.5,5.6"/>
					<path id="XMLID_11704_" class="st0" d="M183.6,184c1.7,6.5,5.4,2.6,6.8-3.2c1.5-5.9-8.6-3.2-8.6-3.2"/>
				</g>
				<path id="XMLID_11702_" class="st6" d="M124.5,96c8.2-2.6,1.6-8.4,1.6-8.4C119,84.7,116.3,98.6,124.5,96z"/>
				<path id="XMLID_11701_" class="st0" d="M178.9,215.1c-3.3,16.5-19.5,38.2-49.1,31.9s-27.8-17.7-35-79.6s45.2-65.7,45.2-65.7
					C205.8,109.8,182.2,198.6,178.9,215.1z"/>
				<path class="st7" d="M94.9,167.4c7.3,62,5.3,73.3,34.9,79.6c21,4.5,35.2-5.1,42.9-16.9c-7.8,4.9-18,7.3-30.7,4.6
					c-29.5-6.3-27.5-17.7-34.9-79.6c-2.4-20.5,1.7-34.5,8.3-44.3C102.9,119.4,91.1,135.8,94.9,167.4z"/>
				<path id="XMLID_11700_" class="st2" d="M97.3,134.1c0,0,18.5-8.8,38.1-16.7c15.5,3.8,32.4,5.3,32.4,4
					c-0.1-13.4-3.9-49.1-41.5-32.2c-8.8,2.7-18.3,8-24.2,17.2c-0.5,0.7-0.9,1.4-1.3,2.1l0,0c0,0-0.1,0-0.1,0.1
					c-1.8,3.3-2.7,5.9-2.9,7.9C96,122.6,97.3,134.1,97.3,134.1z"/>
				<path id="XMLID_11699_" class="st0" d="M123.9,175.4c12.1,4.3,21.5-2.7,21.5-2.7"/>
				<path id="XMLID_11698_" class="st0" d="M186.6,174.9c-3.2,1.3-18.3-1.9-18.3-1.9"/>
				<path id="XMLID_11697_" class="st0" d="M132.8,244.2c-2.5,4.8,5.9,8.2,18.8,5.7s6.7-8.3,6.7-8.3"/>
				<path id="XMLID_11696_" class="st2" d="M190.7,119.6c0,0,6.2-8.8-16.9-10.3c-23-1.5-68.6-1.3-76.2,24.7c0,0,12.4-5.5,35.9-10.7
					s43.6,3,43.6,3C187.3,123.8,190.7,119.6,190.7,119.6z"/>
				<path id="XMLID_11695_" class="st0" d="M97.6,134c0,0,9.1-23.7,64.2-21.2c55.1,2.4,15.3,13.5,15.3,13.5
					C148.5,112,97.6,134,97.6,134z"/>
				<g>
					<path id="XMLID_11694_" class="st0" d="M158,159c0.2,6.5-9.2,18.3-9.2,18.3"/>
					<g id="XMLID_11691_">
						<path id="XMLID_11693_" class="st0" d="M157.4,183.5c0.5,0.2,1,0.5,1.6,0.6c0.8,0.3,1.8,0.3,2.9,0.1c2-0.4,3-2.5,3.3-5.6"/>
						<path id="XMLID_11692_" class="st0" d="M164.2,174c-2-13.6-9.2-32.8-9.2-32.8"/>
					</g>
					<g id="XMLID_11685_">
						<path id="XMLID_11690_" class="st0" d="M164.4,190.6c11.1-2.3,4.2-10.4,4.2-10.4"/>
						<path id="XMLID_11689_" class="st0" d="M152.5,190.6c-10.5-4.3-3.1-10.4-3.1-10.4"/>
						<path id="XMLID_11688_" class="st0" d="M152.8,187.1c-1.6-0.4-2.9,0.1-1.7-1.8s2.7,0.3,3.8,0S154.4,187.5,152.8,187.1z"/>
						<path id="XMLID_11687_" class="st0" d="M164.2,186.3c1.2-0.7,2.4-1.2,2.8-0.9c1.1,0.9,0.6,2.6-1.5,2.7
							C165.5,188.1,163.4,186.8,164.2,186.3z"/>
						<path id="XMLID_11686_" class="st0" d="M155.3,176.7c0.5-0.8,2.7-0.7,2.7-0.7"/>
					</g>
					<path id="XMLID_11684_" class="st0" d="M180.6,188.9c-1.8-0.6-7.9-3.7-7.9-3.7"/>
					<path id="XMLID_11683_" class="st0" d="M137.2,187c0.7,0,7.8-3.4,7.8-3.4"/>
				</g>
				<path id="XMLID_11682_" class="st0" d="M115.4,156.2c-1.6-0.9-0.6-3-0.6-3"/>
				<path id="XMLID_11681_" class="st0" d="M121.3,176.7c-0.6-0.7-1-2.5-1-2.5"/>
				<path id="XMLID_11680_" class="st0" d="M119.7,134.2c-0.8,0,0,3.5,0,3.5"/>
				<path id="XMLID_11679_" class="st0" d="M167.9,126.8c-0.4-0.6,2.9-1,2.9-1"/>
				<path id="XMLID_11678_" class="st0" d="M146.5,130.7c0.3,0.8,4.1,1.3,4.1,1.3"/>
				<path id="XMLID_11677_" class="st0" d="M166.4,227.5c0.2-0.6,3-1.2,3-1.2"/>
				<path id="XMLID_11676_" class="st0" d="M149.3,229.9c-0.7-1.2-3.3-2.4-3.3-2.4"/>
				<path id="XMLID_11675_" class="st0" d="M172,165.9"/>
				<path id="XMLID_11674_" class="st0" d="M153.7,168"/>
				<line id="XMLID_11673_" class="st4" x1="124.8" y1="187.7" x2="127.5" y2="188.4"/>
				<path id="XMLID_11672_" class="st0" d="M103.6,197.7c0,0,0.3,5.4-5.9,8.4s-12.8-16-13.9-34.1c-1-18,18.4,3.6,18.4,3.6"/>
				<path id="XMLID_11671_" class="st0" d="M87.6,172.5c1.3-5.2,9,4.8,9,4.8"/>
				<path id="XMLID_11670_" class="st0" d="M98.6,191c-1.2,6.5-5.2,3-7.1-2.7s8.3-3.9,8.3-3.9"/>
				<g>
					<path id="XMLID_11669_" class="st8" d="M161.7,159.5c-13-28.8,22.8-25.4,22.8-25.4C214.5,154.2,174.7,188.3,161.7,159.5z"/>
					<path id="XMLID_11668_" class="st6" d="M178.1,152.4c-0.6-5.6,4.8-3.4,4.8-3.4C186.6,153.8,178.7,157.9,178.1,152.4z"/>
					<path id="XMLID_11667_" class="st8" d="M138.3,171.8c32.6-10.6,6.4-33.7,6.4-33.7C116.2,126.4,105.7,182.4,138.3,171.8z"/>
					<path id="XMLID_11666_" class="st6" d="M121.7,155.6c-0.6-5.6,4.8-3.4,4.8-3.4C130.2,157,122.3,161.2,121.7,155.6z"/>
					<path id="XMLID_11665_" class="st6" d="M121.7,140.7c-0.9,3,15.6,11.2,24.3,2.7s-3.4-9.9-3.4-9.9
						C124.2,132.6,122.6,137.7,121.7,140.7z"/>
					<path id="XMLID_11664_" class="st6" d="M162.6,133c1.2,4.5,16.5,15,25.1,4.7s-10-9.3-10-9.3S161.4,128.6,162.6,133z"/>
					<g id="XMLID_11661_">
						<path id="XMLID_11663_" class="st0" d="M128.1,172.7c0.7,0.2,1.3,0.3,2.1,0.4c6.4,0.4,16.9-5.2,16.9-5.2
							c-7-1.9-19.1-1.1-19.1-1.1l-5.7,0.4c0,0-5.1,0.8-2.9,3.2c1,1,1.9,0.8,2.8,0.6c0.3,0,0.5-0.1,0.7-0.2
							C124,170.5,127.6,172.4,128.1,172.7z"/>
						<path id="XMLID_11662_" class="st0" d="M186.4,165c0,0,5.1,0.7,2.9,3.1c-2.3,2.5-3.1,0.2-7.2,1.4c-12.5,3.8-16.4-4.6-16.4-4.6
							c7.8-2.4,14.9-1.1,14.9-1.1L186.4,165z"/>
					</g>
				</g>
				<g id="XMLID_11656_">
					<path id="XMLID_11660_" class="st6" d="M180.8,214.3c10.7-7-8.5-9.5-8.5-9.5S170.1,221.2,180.8,214.3z"/>
					<path id="XMLID_11659_" class="st6" d="M162.3,202.8c1,3.5,14,11.9,21.4,3.7c7.2-8.2-8.6-7.3-8.6-7.3S161.3,199.3,162.3,202.8z
						"/>
					<path id="XMLID_11658_" class="st6" d="M134.3,215.7c0.8,2.8,14.2,4.5,15.5-5.3s-6.4-7.2-6.4-7.2
						C132.2,208.2,133.5,212.9,134.3,215.7z"/>
					<path id="XMLID_11657_" class="st6" d="M150.3,208.6c22.2-10.8-0.3-8-0.3-8C124.4,204,128.1,219.4,150.3,208.6z"/>
				</g>
				<g id="XMLID_11652_">
					<path id="XMLID_11655_" class="st0" d="M151.8,214.2c6.5,11.6,18.3,0,18.3,0"/>
					<path id="XMLID_11654_" class="st0" d="M161.7,212.4c2.5-3.4,5.7,0,5.7,0"/>
					<path id="XMLID_11653_" class="st0" d="M161.7,212.4c-2.4-3.4-5.6,0-5.6,0"/>
				</g>
			</g>
			<path id="XMLID_11650_" class="st0" d="M124.8,268.5c0.7,1.3,1.5,1.9,2.4,2.2"/>
			<path id="XMLID_11649_" class="st0" d="M157.9,265.9c0.8-1,1-2.1,1-2.1"/>
			<path id="XMLID_11648_" class="st0" d="M150.9,273.7c0.3-0.1,0.7-0.3,0.9-0.4"/>
			<path id="XMLID_11647_" class="st2" d="M180.4,308.8c-4.5,13.5-1.7,107.4-1.7,107.4"/>
		</g>
	</g>
	<g>
		<path class="st0" d="M4,623.2c-1.1,0.4-2,1.1-2.6,2.5c-0.1,0.3-0.2,0.7-0.3,1.1c-0.3,1.4-0.1,3.3,0.3,5.7c0.4,1.8,0.9,3.8,1.6,6
			c0.5,1.4,0.9,2.8,1.5,4.3c0.4,1.2,0.9,2.3,1.3,3.5c0.6,1.2,1.1,2.3,1.6,3.4c0.7,1.5,1.4,2.8,2,4.1c1,2.1,2.1,3.9,3.1,5.4
			c1.3,2,2.7,3.5,3.9,4.2c0.3,0.2,0.7,0.4,1,0.5c1.1,0.4,2,0.5,2.9,0.2c0.1-9.6,3.1-18.9,12.3-24.8c0.5-1.4,0.8-2.2,0.8-2.2
			s0.2-0.3,0.4-0.8c0.1,0,0.1-0.2,0.2-0.3c0.1,0,0.2-0.1,0.2-0.1c0.4-0.3,1.1-0.7,2.1-1.2l-0.3-0.8l-0.4-0.8l-7.1-13.6
			c-3.6,1.4-5.9,2.3-6.4,2.5c-0.1,0-0.1,0-0.1,0s0.1,0,0.1,0.1c-3.4,0.5-6.3,0.6-8.9,0.6c-2.7,0-5-0.2-6.8,0
			C5.6,622.7,4.9,622.9,4,623.2z"/>
		<path class="st0" d="M24.8,621.7l7.8,15.1c0,0,50-22.6,85.7-37.1c5.5-2.2,10.7-4.3,15.3-6c0.1-3.3,0.3-6.2,0.6-8.5
			c0.6-0.7,1-3.5,1.1-8.9c0-2.2,0-4.9-0.1-8l0,0c0-4.4-0.1-9.3-0.2-14.5c-0.2-44.7,3.4-102.5,3.4-102.5l-28.1,6.5
			c2.8,4.6,5.3,78.3,7.3,126.7c-0.2,0.1-0.4,0.2-0.6,0.3C80.6,602.1,24.7,621.8,24.8,621.7z"/>
		<g>
			<g id="XMLID_12232_">
				<path id="XMLID_12233_" class="st0" d="M18.6,675.5c3.6-3.9,5.4,1.9,5.4,1.9C22.8,683.3,14.9,679.3,18.6,675.5z"/>
			</g>
			<g id="XMLID_12230_">
				<path id="XMLID_12231_" class="st0" d="M17.3,671.7c4-4.2,6,2.2,6,2.2C22,680.5,13.2,676,17.3,671.7z"/>
			</g>
			<g id="XMLID_12228_">
				<path id="XMLID_12229_" class="st0" d="M15.7,667c4.7-5,7,2.5,7,2.5C21.2,677.2,11,672.1,15.7,667z"/>
			</g>
			<g id="XMLID_12226_">
				<path id="XMLID_12227_" class="st0" d="M13.7,661.3c5.4-5.8,8,2.8,8,2.8C19.9,672.9,8.3,667,13.7,661.3z"/>
			</g>
			<path id="XMLID_12225_" class="st0" d="M8.9,648.8c3-0.5,12.8,4.8,8.3,12c-4.5,7.2-7.9-2.9-7.9-2.9S5.8,649.2,8.9,648.8z"/>
		</g>
		<path id="XMLID_12224_" class="st0" d="M130.2,580.1c1.7-0.7,2.7,1.4,2.7,1.4"/>
		<path id="XMLID_12223_" class="st0" d="M121.4,593.3c-0.7,0.1-2.5-2.1-2.5-2.1"/>
		<g id="XMLID_12221_">
			<path id="XMLID_12222_" class="st0" d="M36.4,634.5c2.4,8.7-10.7,8.6-8.4,1.1"/>
		</g>
		<g id="XMLID_11370_">
			<path id="XMLID_12220_" class="st0" d="M132.2,589.4c5.7,7-6.3,12.1-7.3,4.3"/>
		</g>
	</g>
</g>
</svg>
