<?xml version="1.0" encoding="utf-8"?>
<!-- Generator: Adobe Illustrator 22.1.0, SVG Export Plug-In . SVG Version: 6.00 Build 0)  -->
<svg version="1.1" id="Layer_1" xmlns="http://www.w3.org/2000/svg" xmlns:xlink="http://www.w3.org/1999/xlink" x="0px" y="0px"
	 viewBox="0 0 123.1 62" style="enable-background:new 0 0 123.1 62;" xml:space="preserve">
<style type="text/css">
	.st0{opacity:0.1;fill:#5D5C4C;stroke:#5D5C4C;stroke-linecap:round;stroke-miterlimit:10;enable-background:new    ;}
	.st1{fill:#FFD767;stroke:#584C4F;stroke-width:2;stroke-miterlimit:10;}
	.st2{fill:#FFFAF2;stroke:#584C4F;stroke-width:2;stroke-miterlimit:10;}
</style>
<g id="Layer_5">
</g>
<g id="Layer_3">
</g>
<path id="XMLID_2388_" class="st0" d="M110.4,20.7c-1.9-0.1-72.8,0.2-79,1.4c-0.8,0.2-3,1.4-4.2,2.8c-1.7,2-3.9,5-4.5,8.3
	c-0.1,0.4-0.2,13.7-0.1,14.1c-0.3,4.1,2.2,8.4,11.2,11.3c6.6,2.1,79.1,0.1,80.8,0c4.9-0.3,7.4-3.7,7.9-8c0.3-2.8,0.2-12.9,0.1-15.5
	C122,28.5,117.6,21.2,110.4,20.7z"/>
<path class="st1" d="M112.4,25.1c-0.3-4.6-2.6-9.7-6.4-12.4c-1.3-0.9-6.9-7.4-9.1-9.3c-1.8-1.6-4-2.6-6.5-2.8
	c-1.9-0.1-72.8,0.2-79,1.4c-0.8,0.2-3,1.4-4.2,2.8c-1.7,2-3.9,5-4.5,8.3c-0.1,0.4-0.2,13.7-0.1,14.1c-0.1,2,0.4,3.9,1.9,5.8
	c1.5,1.9,8.9,8.9,10.6,10.7s4.5,3.4,8.7,4.8c6.6,2.1,79.1,0.1,80.8,0c4.9-0.3,7.4-3.7,7.9-8C112.7,37.8,112.6,27.6,112.4,25.1z"/>
<g id="XMLID_2366_">
	<g>
		<path id="XMLID_2369_" class="st2" d="M90.4,0.7c-1.9-0.1-72.8,0.2-79,1.4c-0.8,0.2-3,1.4-4.2,2.8c-1.7,2-3.9,5-4.5,8.3
			c-0.1,0.4-0.2,13.7-0.1,14.1c-0.3,4.1,2.2,8.4,11.2,11.3c6.6,2.1,79.1,0.1,80.8,0c4.9-0.3,7.4-3.7,7.9-8
			c0.3-2.8,0.2-12.9,0.1-15.5C102,8.5,97.6,1.2,90.4,0.7z"/>
		<path id="XMLID_2368_" class="st2" d="M96.6,30.8c0,0,1.1,2.2-0.7,3.2"/>
		<path id="XMLID_2367_" class="st2" d="M13.4,5.3c0,0-2.7,1.3-3.6,2.6"/>
	</g>
</g>
<path id="XMLID_2365_" class="st1" d="M106.2,44.7c0,0-3.1-4.4-5.4-5.4"/>
<path id="XMLID_4419_" class="st1" d="M73,15.7c-2.7-2-5.1-1.9-6.9-1.3c-0.2-0.2-0.4-0.3-0.6-0.4c-3.5-1.7-4,3.9-3.9,7.4
	c0,0.2,0,0.5,0,0.7c0,1.1,0.1,1.8,0.1,1.8s1.7,11.7,3.9,10.7c0.9-0.4,1.8-3.2,2.3-6.6C74.1,28.1,78.3,19.6,73,15.7z M70.3,21.8
	c-0.5,1.3-1.2,1.6-2,1.5C66.3,23,64.1,19,67,18.7c0,0,0.5-0.1,1-0.2C69.4,18.3,71.6,18.6,70.3,21.8z"/>
<path id="XMLID_30_" class="st1" d="M56.7,25.5c0,0,0.7,4.2,4.1,2.7c3.4-1.5,1.7-17.4,0.2-18.6C59.3,8.4,55,0.8,56.7,25.5z"/>
<g id="XMLID_31_">
	<path id="XMLID_33_" class="st1" d="M52.8,16.2c0,0-1.2-0.9-1.8-0.2c-0.5,0.7-1.5,1.8-0.4,4.1c1.1,2.3,5.2,0.4,5.6-0.7"/>
	<path id="XMLID_32_" class="st1" d="M57.4,18.1L57.4,18.1c-0.8-2-2.4-3.6-4.9-3.8c-5-0.5-7.1,2.8-7.9,4.7c0,0-0.2,0.3-0.3,0.9
		c-0.1,0.3-0.1,0.6-0.1,0.8c-0.1,1.1,0.1,2.7,1.1,4.8c0.8,1.7,2.9,2.4,4.3,2.6c0.4,0.1,0.8,0.1,1.3,0.1c0,0,0,0,0,0l0,0
		c0.5,0,1-0.1,1.6-0.2c2.2-0.5,3.7-1.9,4.6-3.7c-0.1-2-1.9-2.3-2.9-2.4c-0.6-0.1-1.1,0.3-1.6,0.6c0,0-0.1,0.1-0.1,0.1
		c-1.5,1.1-5.4-1.1-3.3-2.7c0,0,0.7-0.7,1.5-1.1h0c0,0,0.7-0.3,1.2-0.2c0.2,0.1,0.4,0.2,0.5,0.5c0,0,0,0,0,0
		c0.1,0.1,0.1,0.3,0.2,0.4c0.7,1.1,2.2,2.5,3.6,1.5c1.6-1.2,1.4-1.6,1.5-2.1l0,0C57.8,18.9,57.4,18.1,57.4,18.1z"/>
</g>
<g id="XMLID_4341_">
	<path id="XMLID_4343_" class="st1" d="M36.4,11.3c0,0-0.7-4.2-4.3-2.7S30.3,26,31.9,27.2C33.6,28.4,38.1,36,36.4,11.3z"/>
	<path id="XMLID_4342_" class="st1" d="M35.5,20.3c0,0,5.9-5.8,4.7,5c0,0,1.4,3.4,4.1,2c2.7-1.4,3.1-18.6-10-13.8"/>
</g>
</svg>
