<?xml version="1.0" encoding="utf-8"?>
<!-- Generator: Adobe Illustrator 22.1.0, SVG Export Plug-In . SVG Version: 6.00 Build 0)  -->
<svg version="1.1" id="Layer_1" xmlns="http://www.w3.org/2000/svg" xmlns:xlink="http://www.w3.org/1999/xlink" x="0px" y="0px"
	 viewBox="0 0 347.2 675.2" style="enable-background:new 0 0 347.2 675.2;" xml:space="preserve">
<style type="text/css">
	.st0{fill:#A36B78;stroke:#584C4F;stroke-width:2;stroke-linecap:round;stroke-miterlimit:10;}
	.st1{fill:#A36B78;stroke:#584C4F;stroke-width:2;stroke-linecap:round;stroke-linejoin:round;stroke-miterlimit:10;}
	.st2{fill:#FFD767;stroke:#584C4F;stroke-width:2;stroke-miterlimit:10;}
	.st3{fill:#A36B78;}
	.st4{fill:none;stroke:#584C4F;stroke-width:2;stroke-linecap:round;stroke-miterlimit:10;}
	.st5{fill:#BEAB72;}
	.st6{fill:#584C4F;stroke:#584C4F;stroke-width:2;stroke-linecap:round;stroke-miterlimit:10;}
	.st7{opacity:0.1;fill:#231F20;stroke:#231F20;stroke-miterlimit:10;enable-background:new    ;}
	.st8{fill:#FFFFFF;stroke:#584C4F;stroke-width:2;stroke-linecap:round;stroke-miterlimit:10;}
</style>
<g id="Layer_5">
</g>
<g id="Layer_3">
</g>
<g>
	<g>
		<path class="st0" d="M215.9,650.9c-0.1,1.2,0.2,2.4,1.3,3.4c0.2,0.3,0.5,0.6,0.9,0.8c1.2,0.9,3.1,1.5,5.4,2
			c1.9,0.3,3.9,0.6,6.2,0.8c1.5,0.1,3,0.3,4.6,0.3c1.2,0.2,2.5,0.2,3.7,0.2c1.3-0.1,2.5-0.2,3.7-0.2c1.7-0.1,3.2-0.2,4.6-0.3
			c2.4-0.1,4.4-0.5,6.2-0.8c2.3-0.5,4.2-1.2,5.4-2c0.3-0.3,0.7-0.6,0.9-0.8c0.8-0.7,1.2-1.6,1.3-2.5c-8.9-3.7-16.3-10-18.2-20.8
			c-1-1-1.7-1.6-1.7-1.6s-0.3-0.3-0.6-0.7c0-0.1-0.1-0.2-0.2-0.3l-0.1-0.2c-0.1-0.5-0.2-1.3-0.3-2.4h-0.8h-0.8l-15.2,1.3
			c-0.1,3.9-0.2,6.4-0.2,6.9c0,0.1,0,0.1,0,0.1s0.1,0,0.2,0c-0.8,3.4-1.9,6.2-2.9,8.5c-1,2.5-2,4.5-2.6,6.3
			C216.4,649.6,216.3,650.3,215.9,650.9z"/>
		<path class="st0" d="M222.9,631.6l16.9-1.5c0,0-1.4-43.3-1.5-80c0-14.5,0.2-28,0.7-37.4c-0.2-0.4-0.3-0.8-0.4-1.2
			c0.4-1.3-1.1-6-5.5-16l0,0c-1.7-4-3.7-8.5-5.8-13.3c-2-4.6-3.9-9.5-5.9-14.4c-15.5-38.4-30.2-81.5-30.2-81.5L167.7,403
			c4.4,3.2,35.4,71.2,55.7,115.2c0.2,5.3,0.4,10,0.6,14C226,572.5,222.8,631.6,222.9,631.6z"/>
		<g>
			<g id="XMLID_7966_">
				<path id="XMLID_7967_" class="st0" d="M270.1,657.9c-2.3-4.9,3.8-4.3,3.8-4.3C279,656.9,272.2,662.7,270.1,657.9z"/>
			</g>
			<g id="XMLID_7964_">
				<path id="XMLID_7965_" class="st0" d="M266.1,657.7c-2.4-5.5,4.3-4.8,4.3-4.8C276.1,656.6,268.6,663,266.1,657.7z"/>
			</g>
			<g id="XMLID_7962_">
				<path id="XMLID_7963_" class="st0" d="M261.2,657.2c-2.8-6.3,5-5.5,5-5.5C272.7,656.1,264,663.6,261.2,657.2z"/>
			</g>
			<g id="XMLID_7960_">
				<path id="XMLID_7961_" class="st0" d="M255.1,656.9c-3.2-7.1,5.7-6.3,5.7-6.3C268.3,655.6,258.3,664.1,255.1,656.9z"/>
			</g>
			<path id="XMLID_7959_" class="st0" d="M241.7,656.6c0.7-2.9,9.4-10,14.3-3.1c4.9,6.9-5.7,6.2-5.7,6.2S241,659.6,241.7,656.6z"/>
		</g>
		<path id="XMLID_7958_" class="st0" d="M227.2,499.2c0-1.9,2.3-2,2.3-2"/>
		<path id="XMLID_7957_" class="st0" d="M235.9,512.4c-0.1,0.7-2.8,1.5-2.8,1.5"/>
		<g id="XMLID_7955_">
			<path id="XMLID_7956_" class="st0" d="M239.1,625.7c9,1.1,3.9,13.2-2.2,8.2"/>
		</g>
		<g id="XMLID_7953_">
			<path id="XMLID_7954_" class="st0" d="M236.5,500.8c8.6-2.5,8.8,10.6,1.2,8.5"/>
		</g>
	</g>
	<g>
		<g>
			<g id="XMLID_7951_">
				<path id="XMLID_7952_" class="st0" d="M209.2,311.2c8.6-2.5,8.8,10.6,1.2,8.5"/>
			</g>
			<path id="XMLID_7950_" class="st0" d="M199,187.9c-1.4,34-5.6,92.2-3.2,107.9c3.4,22,0,126.4,0,126.4l16.9,1.5
				c0,0-3.2-59.2-1.1-99.4c1.1-22.2,2.6-65,4.2-99.8"/>
			<g id="XMLID_7948_">
				<path id="XMLID_7949_" class="st0" d="M211.2,420.4c3.3-1.1,4.1,12.1,4.1,12.1s1.9,42.3-1.7,24.3c-3.5-18-5.3-16.1-3.6,5.4
					c1.6,21.6-7.4-22-8.8-15.1s-5.8,50.9-5.8-4.1c0,0,4.1-25.6-6.4,14.5s2.3-25.1,3.1-28.5s-12.9,19.5-9.1,10.1s5.9-11.8,12.8-19"/>
			</g>
			<path id="XMLID_7947_" class="st0" d="M202.3,312.9c0.2-0.6,3-1.2,3-1.2"/>
			<path id="XMLID_7946_" class="st0" d="M208.5,317c-0.6,1.8-2.8,1.4-2.8,1.4"/>
			<path id="XMLID_7945_" class="st1" d="M209.1,418.4c13.6-0.8,0-9.9,0-9.9"/>
		</g>
		<path id="XMLID_7944_" class="st2" d="M193.7,187.5c9.1,2.5,16.7,5.2,18.7,8.1c5.5,8.1,12.2,97.9-1.5,98.4s-15.6-0.1-15.3-5
			s-6-61.4-3.8-65.6"/>
		<path class="st0" d="M102.2,392.6c0,0,0.1,0,0.2,0c0.5,4.1,2,8.5,4.4,13c0,0,1.3,15.3,51.4,14.5c30.7-0.5,50.1-15.5,53.2-32.5h0.1
			c0.1-0.2,0.1-0.5,0.2-0.9c0.1-1,0.1-2.1,0.2-3.1c0.8-11.1,1.3-40.6,1.3-40.6l-111.1,4.1C100.3,356,102.2,392.6,102.2,392.6z"/>
		<g>
			<path class="st2" d="M111.5,374c2.3-0.5,5.2-1,8.4-1.5l77.2-4c4-0.1,9.4,1.2,9.4,1.2c4.3,2.3,7,1.4,8.6-1.4
				c0.1-0.1,0.1-0.2,0.2-0.3c4.1-8,0.2-29.4-3-37.9c-0.2-0.5-0.4-1.2-0.6-2c-3.8-15.6-3.8-74.4-2.4-110.6c0.1-3.9,0.1-7.3-0.1-10.4
				c-1.4-26.8-28.8-27.1-46.6-27.9c-18.8-0.8-32.5,3-39.2,8.6c-3.5,1-8.8,3-13,6.2c-3.1,2.3-5.6,5.3-6.4,9c-0.1,0.4-0.1,0.9-0.2,1.3
				c-1.5,13.2-4.5,93.7-5.9,101c-0.3,1.4-1,5.9-1.9,11.9c-0.1,0.7-0.2,1.4-0.3,2.2C92.4,344.3,88.9,390.5,111.5,374z"/>
			<path class="st2" d="M206,369.7c4.3,2.3,7.1,1.4,8.7-1.4c0.1-0.1,0.1-0.2,0.2-0.3c4.2-8,0.2-29.4-2.9-37.9
				c-0.2-0.5-0.4-1.2-0.6-2c-3.7-15.6-3.7-74.4-2.3-110.6c0-0.9,0.1-1.7,0.1-2.6"/>
			<path class="st2" d="M208.3,201.1c-5-20.9-29.4-21.2-45.8-21.9c-18.8-0.8-32.5,3-39.2,8.6c-3.5,1-8.8,3-13,6.2
				c-3.1,2.3-5.6,5.3-6.4,9c-0.1,0.4-0.1,0.9-0.2,1.3c-1.5,13.2-4.5,93.7-5.9,101c-0.3,1.4-1,5.9-1.9,11.9c-0.1,0.7-0.2,1.4-0.3,2.2
				c-3.3,24.8-6.7,71,15.6,54.5c2.3-0.5,5.2-1,8.4-1.5l77.2-4"/>
		</g>
		<path id="XMLID_7943_" class="st0" d="M105.9,369.1c3.6-13.7-5.1-107.3-5.1-107.3"/>
		<g>
			<path id="XMLID_7942_" class="st3" d="M144.1,186.9c9.6,21.2,33.7,8.3,33.8-8c0-2.9,0-14.1,0.1-17.5c0.1-2.6,0.5-17.7-3-25.5
				c-11.2-25-42.7-2.6-31.3,16.8c-0.6,2.2-1,4.7-1.2,7.6c-0.2,3.2-1.3,13.2-1.1,16.6"/>
			<path id="XMLID_7941_" class="st4" d="M145.8,190.1c-0.5-0.9-1.1-2-1.6-3.1l-2.7-10c-0.3-3.5,0.9-13.4,1.1-16.6
				c0.1-3,0.6-5.5,1.2-7.6c-11.4-19.4,20.1-41.8,31.3-16.8c3.5,7.8,3.1,22.9,3,25.5c-0.1,3.4-0.2,14.6-0.2,17.5
				c0,13.7-17.3,25.1-28.4,15.5"/>
		</g>
		<g>
			<g id="XMLID_7939_">
				<path id="XMLID_7940_" class="st0" d="M106.7,320c-9-1.1-3.9-13.2,2.2-8.2"/>
			</g>
			<path id="XMLID_7938_" class="st0" d="M119,210.5c1.7,32.8,4.1,72.6,2.1,85.2c-3.4,22,0,126.4,0,126.4l-16.9,1.5
				c0,0,3.2-59.2,1.1-99.4c-1-18.3-2.1-51-3.4-81.4"/>
			<path id="XMLID_7937_" class="st0" d="M109.6,314c0-1.9,2.3-2,2.3-2"/>
			<path id="XMLID_7936_" class="st0" d="M115.5,317c-0.2,0.6-2.9,1.5-2.9,1.5"/>
			<g id="XMLID_7923_">
				<path id="XMLID_7935_" class="st3" d="M121,421.4l-16.2-3.8c0,0-21.4,35-14.1,35.1c3.9,0.1,5.3-0.9,5.9-1.9
					c-0.5,3.3-0.8,9.4,4.8,6.5l0.1-1.5c1.3,2.1,5.5,8.4,8.9,2l1.1-0.5c2.5,2.1,7.7,5.3,6.9-5.5c1.5,0.1,3.5,0,6.4-0.8
					C139.6,447.2,121,421.3,121,421.4z"/>
				<path id="XMLID_7934_" class="st0" d="M104.8,417.5c0,0-21.4,35-14.1,35.1c3.9,0.1,5.3-0.9,5.9-1.9c-0.5,3.3-0.8,9.4,4.8,6.5
					l0.1-1.5c1.3,2.1,5.5,8.4,8.9,2l1.1-0.5c2.5,2.1,7.7,5.3,6.9-5.5c1.5,0.1,3.5,0,6.4-0.8c14.8-3.7-3.8-29.6-3.8-29.6"/>
				<g id="XMLID_7927_">
					<g id="XMLID_7929_">
						<path id="XMLID_7933_" class="st1" d="M101.3,457.3c-7.5,3.8-4.4-8.4-4.4-8.4c-0.1,0.3,1.1,3.9-6.2,3.8
							c-7.3-0.1,14.1-35.1,14.1-35.1"/>
						<path id="XMLID_7932_" class="st1" d="M110.7,457.2c-4.2,8.4-9.4-2.1-9.4-2.1"/>
						<path id="XMLID_7931_" class="st1" d="M121.6,444.7c-4.2-0.4-11.6,9.9,3.2,6.2s-3.8-29.6-3.8-29.6"/>
						<path id="XMLID_7930_" class="st1" d="M117.8,442.5l0.5,8c1.7,15.9-8.1,5.5-8.1,5.5"/>
					</g>
					<path id="XMLID_7928_" class="st1" d="M107.4,405.7c-10,0.8,0,10.9,0,10.9"/>
				</g>
				<path id="XMLID_7926_" class="st0" d="M110.7,449.5c0.8-2.6,0.4-7.5,0.4-7.5"/>
				<path id="XMLID_7925_" class="st0" d="M102.3,451.3c0.8,0,0.9-3.5,0.9-3.5"/>
				<path id="XMLID_7924_" class="st1" d="M98.7,440.8c0,0,2.9-4.8,3.6-7"/>
			</g>
		</g>
		<path id="XMLID_7922_" class="st2" d="M124.8,190.4c-9.1,2.5-16.8,5.2-18.7,8.1c-5.6,8.1-12.3,97.9,1.4,98.4s15.6-0.1,15.3-5
			s6-61.3,3.8-65.5"/>
		<g>
			<path class="st5" d="M131.6,227.6c0.3,6.9,4,7.2,12.1,6.1c8.2-1,3.7-16.3,2.8-21.1c-0.9-4.7-14.6,0.4-14.6,0.4
				S131.3,220.7,131.6,227.6z"/>
			<g>
				<path id="XMLID_7921_" class="st0" d="M131.7,216.3c-1-1.5,0.8-2.9,0.8-2.9"/>
				<path id="XMLID_7920_" class="st0" d="M148.1,215.1c-0.7-1.2-3.2-2.4-3.2-2.4"/>
				<path id="XMLID_7919_" class="st0" d="M131.8,220.4c-0.5,1.4,0.3,4,0.3,4"/>
				<path id="XMLID_7918_" class="st0" d="M141.7,233.7c1.3,0.3,3.9-0.8,3.9-0.8"/>
				<path id="XMLID_7917_" class="st0" d="M136.3,232.3c-1.7,0.7-2.6-1.4-2.6-1.4"/>
				<path id="XMLID_7916_" class="st0" d="M148.6,222.4c-0.5-0.5-0.9-2.4-0.9-2.4"/>
				<line id="XMLID_7915_" class="st4" x1="140.6" y1="212.1" x2="137.9" y2="212.2"/>
				<path id="XMLID_7914_" class="st0" d="M148.7,231.1c0.5-1.3-0.1-4-0.1-4"/>
			</g>
			<g>
				<path id="XMLID_7913_" class="st0" d="M179.1,396.8c1.3,1.7-0.4,4.6-0.4,4.6"/>
				<path id="XMLID_7912_" class="st0" d="M177.1,392.4c-0.3-1.4-2.2-3.4-2.2-3.4"/>
				<path id="XMLID_7911_" class="st0" d="M174.2,409.6c1-0.9,1.8-3.5,1.8-3.5"/>
			</g>
		</g>
		<g id="XMLID_7753_">
			<g id="XMLID_7907_">
				<path id="XMLID_7910_" class="st0" d="M198.7,118c0,0,0.1,5.4,6.6,7.8c6.4,2.4,11.3-17.1,10.9-35.2s-17.9,5.1-17.9,5.1"/>
				<path id="XMLID_7909_" class="st0" d="M212.7,91.3c-1.8-5-8.6,5.6-8.6,5.6"/>
				<path id="XMLID_7908_" class="st0" d="M203.3,110.7c1.7,6.5,5.4,2.6,6.8-3.2c1.5-5.9-8.6-3.2-8.6-3.2"/>
			</g>
			<path id="XMLID_7906_" class="st6" d="M144.2,22.7c8.2-2.6,1.6-8.4,1.6-8.4C138.7,11.4,136,25.3,144.2,22.7z"/>
			<path id="XMLID_7905_" class="st0" d="M198.6,141.8c-3.3,16.5-19.5,38.2-49.1,31.9s-27.8-17.7-35-79.6s45.2-65.7,45.2-65.7
				C225.5,36.5,201.9,125.3,198.6,141.8z"/>
			<path class="st7" d="M114.6,94.2c7.3,61.9,5.3,73.2,34.9,79.5c21,4.5,35.2-5.1,42.9-16.9c-7.8,4.9-18,7.3-30.7,4.6
				c-29.5-6.2-27.5-17.6-34.9-79.5c-2.4-20.6,1.7-34.6,8.3-44.4C122.6,46.1,110.8,62.5,114.6,94.2z"/>
			<path id="XMLID_7904_" class="st2" d="M117,60.8c0,0,18.5-8.8,38.1-16.7c15.5,3.8,32.4,5.3,32.4,4C187.4,34.7,183.6-1,146,15.9
				c-8.8,2.7-18.3,8-24.2,17.2c-0.5,0.7-0.9,1.4-1.3,2.1l0,0h-0.1c-1.8,3.4-2.7,6-2.9,8C115.7,49.3,117,60.8,117,60.8z"/>
			<path id="XMLID_7903_" class="st0" d="M143.6,102.1c12.1,4.3,21.5-2.7,21.5-2.7"/>
			<path id="XMLID_7902_" class="st0" d="M206.3,101.5c-3.2,1.4-18.3-1.8-18.3-1.8"/>
			<path id="XMLID_7901_" class="st0" d="M152.5,170.9c-2.5,4.8,5.9,8.2,18.8,5.7s6.7-8.3,6.7-8.3"/>
			<path id="XMLID_7900_" class="st2" d="M210.4,46.3c0,0,6.2-8.8-16.9-10.3c-23-1.4-68.6-1.3-76.2,24.7c0,0,12.4-5.5,35.9-10.7
				s43.6,3,43.6,3C207,50.5,210.4,46.3,210.4,46.3z"/>
			<path id="XMLID_7899_" class="st0" d="M117.3,60.7c0,0,9.1-23.7,64.2-21.2S196.8,53,196.8,53C168.2,38.7,117.3,60.7,117.3,60.7z"
				/>
			<g>
				<path id="XMLID_7898_" class="st0" d="M177.7,85.7c0.2,6.5-9.2,18.3-9.2,18.3"/>
				<g id="XMLID_7895_">
					<path id="XMLID_7897_" class="st0" d="M177.1,110.3c0.5,0.2,1,0.4,1.6,0.6c0.8,0.3,1.8,0.3,2.9,0.1c2-0.5,3-2.6,3.3-5.7"/>
					<path id="XMLID_7896_" class="st0" d="M183.9,100.7c-2-13.5-9.2-32.8-9.2-32.8"/>
				</g>
				<g id="XMLID_7889_">
					<path id="XMLID_7894_" class="st0" d="M184.1,117.3c11.1-2.3,4.2-10.4,4.2-10.4"/>
					<path id="XMLID_7893_" class="st0" d="M172.2,117.3c-10.5-4.2-3.1-10.4-3.1-10.4"/>
					<path id="XMLID_7892_" class="st0" d="M172.5,113.8c-1.6-0.5-2.9,0.1-1.7-1.8s2.7,0.3,3.8,0S174.1,114.2,172.5,113.8z"/>
					<path id="XMLID_7891_" class="st0" d="M183.9,113c1.2-0.7,2.4-1.2,2.8-0.9c1.1,0.9,0.6,2.6-1.5,2.7
						C185.2,114.8,183.1,113.5,183.9,113z"/>
					<path id="XMLID_7890_" class="st0" d="M175,103.4c0.5-0.8,2.7-0.7,2.7-0.7"/>
				</g>
				<path id="XMLID_7888_" class="st0" d="M200.3,115.6c-1.8-0.6-7.9-3.7-7.9-3.7"/>
				<path id="XMLID_7887_" class="st0" d="M156.9,113.6c0.7,0.1,7.8-3.3,7.8-3.3"/>
			</g>
			<path id="XMLID_7886_" class="st0" d="M135.1,82.9c-1.6-0.9-0.6-3-0.6-3"/>
			<path id="XMLID_7885_" class="st0" d="M141,103.4c-0.6-0.7-1-2.5-1-2.5"/>
			<path id="XMLID_7884_" class="st0" d="M139.4,60.9c-0.8,0,0,3.5,0,3.5"/>
			<path id="XMLID_7883_" class="st0" d="M187.6,53.5c-0.4-0.5,2.9-1,2.9-1"/>
			<path id="XMLID_7882_" class="st0" d="M166.2,57.4c0.3,0.8,4.1,1.3,4.1,1.3"/>
			<path id="XMLID_7881_" class="st0" d="M186.1,154.2c0.2-0.6,3-1.2,3-1.2"/>
			<path id="XMLID_7880_" class="st0" d="M169,156.6c-0.7-1.2-3.3-2.4-3.3-2.4"/>
			<path id="XMLID_7790_" class="st0" d="M191.7,92.6"/>
			<path id="XMLID_7789_" class="st0" d="M173.4,94.7"/>
			<line id="XMLID_7788_" class="st4" x1="144.5" y1="114.4" x2="147.2" y2="115.1"/>
			<path id="XMLID_7787_" class="st0" d="M123.3,124.5c0,0,0.3,5.3-5.9,8.3s-12.8-16.1-13.9-34.1c-1-18,18.4,3.6,18.4,3.6"/>
			<path id="XMLID_7786_" class="st0" d="M107.3,99.2c1.3-5.2,9,4.8,9,4.8"/>
			<path id="XMLID_7785_" class="st0" d="M118.3,117.7c-1.2,6.5-5.2,3-7.1-2.7s8.3-3.9,8.3-3.9"/>
			<g>
				<path id="XMLID_7784_" class="st8" d="M181.4,86.2c-13-28.9,22.8-25.4,22.8-25.4C234.2,80.9,194.4,115.1,181.4,86.2z"/>
				<path id="XMLID_7783_" class="st6" d="M197.8,79.1c-0.6-5.6,4.8-3.4,4.8-3.4C206.3,80.5,198.4,84.6,197.8,79.1z"/>
				<path id="XMLID_7782_" class="st8" d="M158,98.5c32.6-10.6,6.4-33.7,6.4-33.7C135.9,53.1,125.4,109.1,158,98.5z"/>
				<path id="XMLID_7781_" class="st6" d="M141.4,82.3c-0.6-5.6,4.8-3.4,4.8-3.4C149.9,83.7,142,87.9,141.4,82.3z"/>
				<path id="XMLID_7780_" class="st6" d="M141.4,67.4c-0.9,3,15.6,11.2,24.3,2.7s-3.4-9.9-3.4-9.9
					C143.9,59.3,142.3,64.4,141.4,67.4z"/>
				<path id="XMLID_7779_" class="st6" d="M182.3,59.7c1.2,4.5,16.5,15,25.1,4.7s-10-9.3-10-9.3S181.1,55.2,182.3,59.7z"/>
				<g id="XMLID_7776_">
					<path id="XMLID_7778_" class="st0" d="M147.8,99.3c0.7,0.2,1.3,0.3,2.1,0.4c6.4,0.4,16.9-5.2,16.9-5.2
						c-7-1.9-19.1-1.1-19.1-1.1l-5.7,0.4c0,0-5.1,0.8-2.9,3.2c1,1,1.9,0.9,2.8,0.7c0.3,0,0.5-0.1,0.7-0.2
						C143.7,97.2,147.3,99.1,147.8,99.3z"/>
					<path id="XMLID_7777_" class="st0" d="M206.1,91.7c0,0,5.1,0.8,2.9,3.2c-2.3,2.4-3.1,0.1-7.2,1.3c-12.5,3.8-16.4-4.6-16.4-4.6
						c7.8-2.4,14.9-1.1,14.9-1.1L206.1,91.7z"/>
				</g>
			</g>
			<g id="XMLID_7758_">
				<path id="XMLID_7775_" class="st6" d="M200.5,140.9c10.7-6.9-8.5-9.4-8.5-9.4S189.8,147.9,200.5,140.9z"/>
				<path id="XMLID_7774_" class="st6" d="M182,129.5c1,3.5,14,11.9,21.4,3.7c7.2-8.1-8.6-7.3-8.6-7.3S181,126,182,129.5z"/>
				<path id="XMLID_7773_" class="st6" d="M154,142.4c0.8,2.8,14.2,4.5,15.5-5.3s-6.4-7.2-6.4-7.2
					C151.9,134.9,153.2,139.6,154,142.4z"/>
				<path id="XMLID_7772_" class="st6" d="M170,135.3c22.2-10.8-0.3-8-0.3-8C144.1,130.7,147.8,146.1,170,135.3z"/>
			</g>
			<g id="XMLID_7754_">
				<path id="XMLID_7757_" class="st0" d="M171.5,140.9c6.5,11.6,18.3,0,18.3,0"/>
				<path id="XMLID_7756_" class="st0" d="M181.4,139.1c2.5-3.4,5.7,0,5.7,0"/>
				<path id="XMLID_7755_" class="st0" d="M181.4,139.1c-2.4-3.4-5.6,0-5.6,0"/>
			</g>
		</g>
		<path id="XMLID_7752_" class="st0" d="M144.5,195.2c0.7,1.3,1.5,1.9,2.4,2.2"/>
		<path id="XMLID_7751_" class="st0" d="M177.6,192.6c0.8-1,1-2.1,1-2.1"/>
		<path id="XMLID_7750_" class="st0" d="M170.6,200.4c0.3-0.1,0.7-0.3,0.9-0.4"/>
		<path id="XMLID_7749_" class="st2" d="M200.1,235.5c-4.5,13.5-1.7,107.4-1.7,107.4"/>
	</g>
	<g>
		<path class="st0" d="M71.6,654.5c-0.3,1.2-0.1,2.4,0.7,3.6c0.2,0.3,0.4,0.6,0.7,0.9c0.9,1.1,2.7,2.1,4.9,3c1.7,0.7,3.7,1.4,5.9,2
			c1.4,0.4,2.8,0.8,4.4,1.2c1.2,0.4,2.4,0.6,3.6,0.9c1.3,0.2,2.5,0.4,3.7,0.6c1.6,0.2,3.1,0.4,4.5,0.6c2.3,0.3,4.4,0.4,6.2,0.4
			c2.4,0,4.4-0.3,5.7-0.9c0.4-0.2,0.7-0.4,1-0.6c1-0.6,1.5-1.3,1.8-2.2c-8-5.4-14-13.1-13.8-24c-0.9-1.2-1.4-1.9-1.4-1.9
			s-0.1-0.3-0.4-0.8c0-0.1-0.1-0.2-0.2-0.3v-0.2c-0.1-0.5,0-1.3,0.1-2.4l-0.8-0.2l-0.8-0.1l-15.2-1.7c-0.9,3.8-1.4,6.2-1.5,6.7
			c0,0.1,0,0.1,0,0.1s0,0,0.1,0c-1.5,3.1-3.1,5.6-4.5,7.7c-1.5,2.3-2.9,4.1-3.8,5.7C72.1,653.3,71.8,654,71.6,654.5z"/>
		<path class="st0" d="M124,387.3c2.3,6.2-15.8,112.4-21.6,152.3s-20.5,97.3-20.5,97.3l16.9,1.9c0,0,16-97.2,23.9-121.9
			c1.1-0.9,2.5-5.7,4.3-16.4l0,0c0.9-4.3,1.7-9.1,2.6-14.3c8.4-43.8,23.3-99.8,23.3-99.8"/>
		<g>
			<g id="XMLID_7747_">
				<path id="XMLID_7748_" class="st0" d="M123.1,671.9c-1.2-5.3,4.6-3.5,4.6-3.5C132,672.7,124.3,677,123.1,671.9z"/>
			</g>
			<g id="XMLID_7745_">
				<path id="XMLID_7746_" class="st0" d="M119.3,670.8c-1.3-5.7,5.1-3.8,5.1-3.8C129.2,671.8,120.6,676.6,119.3,670.8z"/>
			</g>
			<g id="XMLID_7743_">
				<path id="XMLID_7744_" class="st0" d="M114.5,669.6c-1.5-6.8,6-4.5,6-4.5C126.1,670.7,116.1,676.3,114.5,669.6z"/>
			</g>
			<g id="XMLID_7741_">
				<path id="XMLID_7742_" class="st0" d="M108.6,668c-1.8-7.7,6.8-5.1,6.8-5.1C121.8,669.3,110.3,675.7,108.6,668z"/>
			</g>
			<path id="XMLID_7740_" class="st0" d="M95.5,665.1c1.2-2.8,11.1-8,14.6-0.3c3.5,7.8-6.8,5-6.8,5S94.2,667.8,95.5,665.1z"/>
		</g>
		<path id="XMLID_7739_" class="st0" d="M112.1,507.9c0.3-1.8,2.6-1.5,2.6-1.5"/>
		<path id="XMLID_7738_" class="st0" d="M118.1,522.5c-0.3,0.6-3.1,0.9-3.1,0.9"/>
		<g id="XMLID_7736_">
			<path id="XMLID_7737_" class="st0" d="M99,634.3c8.6,2.8,1.2,13.7-3.8,7.6"/>
		</g>
		<g id="XMLID_7734_">
			<path id="XMLID_7735_" class="st0" d="M120.8,511.3c9-0.8,6.5,12-0.5,8.5"/>
		</g>
	</g>
</g>
</svg>
