<?xml version="1.0" encoding="utf-8"?>
<!-- Generator: Adobe Illustrator 22.1.0, SVG Export Plug-In . SVG Version: 6.00 Build 0)  -->
<svg version="1.1" id="Layer_1" xmlns="http://www.w3.org/2000/svg" xmlns:xlink="http://www.w3.org/1999/xlink" x="0px" y="0px"
	 viewBox="0 0 513 385" style="enable-background:new 0 0 513 385;" xml:space="preserve">
<style type="text/css">
	.st0{fill:#A36B78;stroke:#584C4F;stroke-linecap:round;stroke-miterlimit:10;}
	.st1{fill:#E6C86B;stroke:#584C4F;stroke-miterlimit:10;}
	.st2{fill:#FCDE82;stroke:#584C4F;stroke-miterlimit:10;}
	.st3{fill:#FFD767;stroke:#584C4F;stroke-miterlimit:10;}
	.st4{opacity:0.1;fill:#231F20;stroke:#231F20;stroke-miterlimit:10;}
</style>
<g id="Layer_5">
</g>
<g id="Layer_3">
</g>
<g>
	<g>
		<path class="st0" d="M253.3,203.3c0,0-1.2,8.5-0.3,10.6c0.9,2.1,4.4,0.9,4-0.4s0.1-10-1.1-10.3S253.5,202.7,253.3,203.3z"/>
		<path id="XMLID_17837_" class="st0" d="M256.9,452.9c-1.8-38.4-3.4-85.6-4.6-110.1c-2.3-44.4,1.3-109.6,1.3-109.6l-18.7,1.6
			c0,0,3.8,115.2,0,139.4c-2.7,17.3,2.1,81.5,3.6,119"/>
		<path id="XMLID_17836_" class="st0" d="M249.6,250c0,0,15-10.1,0-10.9"/>
		<g>
			<path class="st0" d="M245.2,206.4c0,0,8.5,1.2,10.6,0.3c2.1-0.9,0.9-4.4-0.4-4c-1.3,0.4-10-0.1-10.3,1.1
				C244.9,205.1,244.6,206.3,245.2,206.4z"/>
			<path class="st0" d="M248.3,206.4c0,0-3,1-3-1s-1-4,2-4s3,2,3,2S251.3,205.4,248.3,206.4z"/>
		</g>
		<path class="st0" d="M231.6,234.3c0,0-3.3-8.6,3.3-8.6s13.1-2.9,13.1,5.8s-6.6,8.6-6.6,8.6S234.9,242.9,231.6,234.3z"/>
		<path class="st0" d="M242.7,228.2c0,0-2.8-17.1,2.8-17.1c5.6,0,11.3-5.7,11.3,11.4s-5.6,17.1-5.6,17.1S245.5,245.3,242.7,228.2z"
			/>
		<path class="st0" d="M250.9,199.9c0,0-3.9,9.6-3.4,12.4s5.4,2.7,5.3,1c-0.1-1.7,3-11.7,1.5-12.5
			C252.7,200,251.2,199.2,250.9,199.9z"/>
		<g>
			<path class="st0" d="M240.2,202c0,0,9.6,3.9,12.4,3.4c2.8-0.5,2.7-5.4,1-5.3c-1.7,0.1-11.7-3-12.5-1.5S239.6,201.7,240.2,202z"/>
			<path class="st0" d="M243.4,203.4c0,0-3,1-3-1s-1-4,2-4s3,2,3,2S246.4,202.4,243.4,203.4z"/>
		</g>
		<path class="st0" d="M245.5,199.2c0,0-1.5,11.3-0.1,14.1c1.3,2.8,6.4,1.4,5.8-0.4c-0.6-1.8,0-13.3-1.9-13.7
			S245.7,198.4,245.5,199.2z"/>
		<g>
			<path class="st0" d="M234.4,204.5c0,0,11.3,1.5,14.1,0.1c2.8-1.3,1.4-6.4-0.4-5.8c-1.8,0.6-13.3,0-13.7,1.9
				C234,202.5,233.7,204.4,234.4,204.5z"/>
			<path class="st0" d="M237.2,205.2c0,0-3,1-3-1s-1-4,2-4s3,2,3,2S240.2,204.2,237.2,205.2z"/>
		</g>
		<g>
			<path class="st0" d="M230.1,221.3c0,0,7.3-8.5,7.8-11.4c0.5-2.9-4.1-4.1-4.7-2.4c-0.5,1.7-7.3,10.8-6.1,12
				C228.3,220.7,229.5,221.9,230.1,221.3z"/>
			<path class="st0" d="M231.7,219.6c0,0-1.4,2.8-2.8,1.4s-3.5-2.1-1.4-4.2s3.5-0.7,3.5-0.7S233.1,216.8,231.7,219.6z"/>
		</g>
		<path class="st0" d="M232.9,209.6c0,0,8.5,7.3,11.4,7.8c2.9,0.5,4.1-4.1,2.4-4.7c-1.7-0.5-10.8-7.3-12-6.1
			C233.5,207.8,232.3,209,232.9,209.6z"/>
		<g>
			<g id="XMLID_17829_">
				<path id="XMLID_17835_" class="st1" d="M220.3,196.7c0,0-1.3-6.2-7.4-4s-3.1,25.8-0.3,27.6C215.4,222.1,223.3,233.3,220.3,196.7
					z"/>
				<path id="XMLID_17834_" class="st1" d="M218.9,208c0,0,10.7-10.6,8.5,9.2c0,0,2.5,6.1,7.5,3.6c5-2.5,5.7-33.9-18.2-25.1"/>
				<path id="XMLID_17833_" class="st2" d="M231.7,197.8c0,0-1,0.5-1.3,1"/>
				<path id="XMLID_17832_" class="st2" d="M216.2,193.3c0,0-1,0.5-1.3,1"/>
				<path id="XMLID_17831_" class="st2" d="M219.5,218.1c-0.3,0.2-0.5,0.4-0.6,0.6"/>
				<path id="XMLID_17830_" class="st2" d="M236.7,212.3c0,0-0.3,0.2-0.7,0.4"/>
			</g>
			<g id="XMLID_17818_">
				<path id="XMLID_17828_" class="st3" d="M217.5,199.4c0,0-1.3-6.2-7.4-4s-3.1,25.8-0.3,27.6C212.7,224.8,220.6,236.1,217.5,199.4
					z"/>
				<path id="XMLID_17827_" class="st3" d="M216.1,210.8c0,0,10.7-10.6,8.5,9.2c0,0,2.5,6.1,7.5,3.6c5-2.5,5.7-33.9-18.2-25.1"/>
				<line id="XMLID_17826_" class="st3" x1="212.7" y1="222.8" x2="213.7" y2="223.2"/>
				<path id="XMLID_17825_" class="st3" d="M231,220.1c0,0,0.4,0.8-0.2,1.2"/>
				<path id="XMLID_17824_" class="st3" d="M233.3,210c0,0-0.2,0.7-0.4,1"/>
				<path id="XMLID_17823_" class="st3" d="M216.3,216.3c0,0,0.3-1.4,0-1.4"/>
				<path id="XMLID_17822_" class="st3" d="M223.9,206.7c0,0,1.3,0.2,1.2,0.4"/>
				<path id="XMLID_17821_" class="st3" d="M211.1,213.3c0,0,1.5-0.2,1.6-0.5"/>
				<path id="XMLID_17820_" class="st3" d="M218.9,198.7c0,0-1,0.5-1.3,1"/>
				<line id="XMLID_17819_" class="st3" x1="209.7" y1="200.4" x2="210.8" y2="200.1"/>
				<path class="st4" d="M216.8,197.5c-0.9-1.6-2.9-3.5-6.6-2.1c-1,0.4-1.8,1.3-2.3,2.6c3.5-1.1,5.3,0.7,6.2,2.3
					c18.2-4.7,20,16.3,17.1,23.6c0.3-0.1,0.7-0.2,1.1-0.4C236.9,221,237.8,192.1,216.8,197.5z"/>
			</g>
		</g>
		<path class="st0" d="M226.8,230.9c0,0,9.4,3,11.9,2.3c2.6-0.7,2.3-5.4,0.6-5.2c-1.6,0.2-11.3-2-11.9-0.5
			C226.8,229,226.2,230.6,226.8,230.9z"/>
		<g>
			<path class="st0" d="M228.8,217.5c0,0-3,9.4-2.3,11.9c0.7,2.6,5.4,2.3,5.2,0.6c-0.2-1.6,2-11.3,0.5-11.9
				C230.6,217.5,229,216.9,228.8,217.5z"/>
			<path class="st0" d="M228.6,217.7c0,0,1.4-2.8,2.8-1.4c1.4,1.4,3.5,2.1,1.4,4.2c-2.1,2.1-3.5,0.7-3.5,0.7
				S227.2,220.5,228.6,217.7z"/>
		</g>
	</g>
</g>
</svg>
