<?xml version="1.0" encoding="utf-8"?>
<!-- Generator: Adobe Illustrator 22.1.0, SVG Export Plug-In . SVG Version: 6.00 Build 0)  -->
<svg version="1.1" id="Layer_1" xmlns="http://www.w3.org/2000/svg" xmlns:xlink="http://www.w3.org/1999/xlink" x="0px" y="0px"
	 viewBox="0 0 259.2 642.9" style="enable-background:new 0 0 259.2 642.9;" xml:space="preserve">
<style type="text/css">
	.st0{fill:#A36B78;stroke:#584C4F;stroke-width:2;stroke-linecap:round;stroke-miterlimit:10;}
	.st1{fill:#A36B78;stroke:#584C4F;stroke-width:2;stroke-linecap:round;stroke-linejoin:round;stroke-miterlimit:10;}
	.st2{fill:#FFD767;stroke:#584C4F;stroke-width:2;stroke-miterlimit:10;}
	.st3{fill:#A36B78;}
	.st4{fill:none;stroke:#584C4F;stroke-width:2;stroke-linecap:round;stroke-miterlimit:10;}
	.st5{fill:#BEAB72;}
	.st6{fill:#584C4F;stroke:#584C4F;stroke-width:2;stroke-linecap:round;stroke-miterlimit:10;}
	.st7{opacity:0.1;fill:#231F20;stroke:#231F20;stroke-miterlimit:10;enable-background:new    ;}
	.st8{fill:#FFFFFF;stroke:#584C4F;stroke-width:2;stroke-linecap:round;stroke-miterlimit:10;}
</style>
<g id="Layer_5">
</g>
<g id="Layer_3">
</g>
<g>
	<g>
		<path class="st0" d="M92.2,626.3c-0.6-1.8-1.6-3.8-2.6-6.3c-1-2.3-2.1-5.1-2.9-8.5c0.1,0,0.2,0,0.2,0s0,0,0-0.1
			c0-0.5-0.1-3-0.2-6.9l-15.2-1.3l-0.8,0l-0.8,0c-0.1,1.1-0.2,1.9-0.3,2.4c0,0-0.1,0.2-0.1,0.2c-0.1,0.1-0.2,0.2-0.2,0.3
			c-0.3,0.4-0.6,0.7-0.6,0.7s-0.7,0.6-1.7,1.6c-1.9,10.8-9.3,17.1-18.2,20.8c0.1,0.9,0.5,1.8,1.3,2.5c0.2,0.2,0.6,0.5,0.9,0.8
			c1.2,0.8,3.1,1.5,5.4,2c1.8,0.3,3.8,0.7,6.2,0.8c1.4,0.1,2.9,0.2,4.6,0.3c1.2,0,2.4,0.1,3.7,0.2c1.2,0,2.5,0,3.7-0.2
			c1.6,0,3.1-0.2,4.6-0.3c2.3-0.2,4.3-0.5,6.2-0.8c2.3-0.5,4.2-1.1,5.4-2c0.3-0.2,0.7-0.5,0.9-0.8c1.1-1,1.4-2.2,1.3-3.4
			C92.6,627.8,92.4,627.1,92.2,626.3z"/>
		<path class="st0" d="M84.9,509.7c0.2-4,0.4-8.7,0.6-14c20.3-44,51.3-112,55.7-115.2l-23.5-16.8c0,0-14.7,43.1-30.2,81.5
			c-2,4.9-3.9,9.8-5.9,14.4c-2.1,4.8-4.1,9.3-5.8,13.3l0,0c-4.4,10-5.9,14.7-5.5,16c-0.1,0.4-0.2,0.8-0.4,1.2
			c0.5,9.4,0.7,22.9,0.7,37.4c-0.1,36.7-1.5,80-1.5,80l16.9,1.5C86,609.1,82.8,549.9,84.9,509.7z"/>
		<g>
			<g id="XMLID_11522_">
				<path id="XMLID_11529_" class="st0" d="M34.9,631c0,0,6-0.6,3.8,4.3C36.6,640.1,29.9,634.4,34.9,631z"/>
			</g>
			<g id="XMLID_11520_">
				<path id="XMLID_11521_" class="st0" d="M38.4,630.3c0,0,6.7-0.7,4.3,4.8C40.3,640.5,32.8,634.1,38.4,630.3z"/>
			</g>
			<g id="XMLID_11518_">
				<path id="XMLID_11519_" class="st0" d="M42.7,629.2c0,0,7.8-0.8,5,5.5C44.8,641,36.1,633.6,42.7,629.2z"/>
			</g>
			<g id="XMLID_11516_">
				<path id="XMLID_11517_" class="st0" d="M48.1,628c0,0,8.9-0.8,5.7,6.3C50.6,641.6,40.6,633.1,48.1,628z"/>
			</g>
			<path id="XMLID_11515_" class="st0" d="M58.6,637.1c0,0-10.6,0.7-5.7-6.2s13.6,0.2,14.3,3.1C67.9,637,58.6,637.1,58.6,637.1z"/>
		</g>
		<path id="XMLID_11514_" class="st0" d="M79.3,474.7c0,0,2.3,0.1,2.3,2"/>
		<path id="XMLID_11513_" class="st0" d="M75.7,491.3c0,0-2.7-0.8-2.8-1.5"/>
		<g id="XMLID_11511_">
			<path id="XMLID_11512_" class="st0" d="M72,611.4c-6.1,5-11.2-7.1-2.2-8.2"/>
		</g>
		<g id="XMLID_11507_">
			<path id="XMLID_11508_" class="st0" d="M71.2,486.7c-7.6,2.1-7.4-11,1.2-8.5"/>
		</g>
	</g>
	<g>
		<g>
			<g id="XMLID_11630_">
				<path id="XMLID_11631_" class="st0" d="M104.9,309.4c-7.6,2.1-7.4-11,1.2-8.5"/>
			</g>
			<path id="XMLID_11629_" class="st0" d="M99.5,214.1c1.7,34.8,3,77.6,4.2,99.8c2.1,40.2-1.2,99.4-1.2,99.4l16.9-1.5
				c0,0-3.4-104.4,0-126.4c2.4-15.7-1.8-73.9-3.2-107.8"/>
			<g id="XMLID_11627_">
				<path id="XMLID_11628_" class="st0" d="M119.5,409.7c6.9,7.2,9,9.6,12.8,19s-9.9-13.5-9.1-10.1s13.6,68.6,3.1,28.5
					s-6.4-14.5-6.4-14.5c0,55-4.4,11-5.8,4.1s-10.4,36.7-8.8,15.1c1.7-21.5-0.1-23.4-3.6-5.4c-3.5,18-1.7-24.3-1.7-24.3
					s0.8-13.2,4.1-12.1"/>
			</g>
			<path id="XMLID_11626_" class="st0" d="M110,301.4c0,0,2.8,0.6,3,1.2"/>
			<path id="XMLID_11625_" class="st0" d="M109.6,308c0,0-2.2,0.4-2.8-1.4"/>
			<path id="XMLID_11624_" class="st1" d="M106.2,398.1c0,0-13.6,9.1,0,9.9"/>
		</g>
		<path id="XMLID_11623_" class="st2" d="M123.5,213.1c2.2,4.2-4.1,60.6-3.8,65.5c0.3,4.9-1.6,5.5-15.3,5s-7-90.3-1.4-98.4
			c1.9-2.9,9.6-5.6,18.7-8.1"/>
		<path class="st0" d="M213.2,336.8l-111.1-4.1c0,0,0.6,29.5,1.3,40.6c0,1,0.1,2.1,0.2,3.1c0,0.4,0.1,0.7,0.2,0.9l0,0
			c3.1,17,22.5,32,53.2,32.5c50.1,0.8,51.4-14.5,51.4-14.5c2.4-4.5,3.9-8.9,4.4-13c0.1,0,0.2,0,0.2,0S215,345.7,213.2,336.8z"/>
		<g>
			<path class="st2" d="M219.6,309.1c-0.1-0.8-0.2-1.5-0.3-2.2c-0.9-6-1.6-10.5-1.9-11.9c-1.4-7.3-4.4-87.8-5.9-101
				c-0.1-0.4-0.1-0.9-0.2-1.3c-0.8-3.7-3.3-6.7-6.4-9c-4.2-3.2-9.5-5.2-13-6.2c-6.7-5.6-20.4-9.4-39.2-8.6
				c-17.8,0.8-45.2,1.1-46.6,27.9c-0.2,3.1-0.2,6.5-0.1,10.4c1.4,36.2,1.4,95-2.3,110.6c-0.2,0.8-0.4,1.5-0.6,2
				c-3.2,8.5-7.1,29.9-2.9,37.9c0,0.1,0.1,0.2,0.2,0.3c1.6,2.8,4.3,3.7,8.7,1.4c0,0,5.4-1.3,9.4-1.2l77.2,4c3.2,0.5,6.1,1,8.4,1.5
				C226.4,380.2,222.9,334,219.6,309.1z"/>
			<path class="st2" d="M106.1,204.5c0,0.9,0.1,1.7,0.1,2.6c1.4,36.2,1.4,95-2.3,110.6c-0.2,0.8-0.4,1.5-0.6,2
				c-3.2,8.5-7.1,29.9-2.9,37.9c0,0.1,0.1,0.2,0.2,0.3c1.6,2.8,4.3,3.7,8.7,1.4"/>
			<path class="st2" d="M118.5,358.1l77.2,4c3.2,0.5,6.1,1,8.4,1.5c22.3,16.5,18.9-29.7,15.6-54.5c-0.1-0.8-0.2-1.5-0.3-2.2
				c-0.9-6-1.6-10.5-1.9-11.9c-1.4-7.3-4.4-87.8-5.9-101c-0.1-0.4-0.1-0.9-0.2-1.3c-0.8-3.7-3.3-6.7-6.4-9c-4.2-3.2-9.5-5.2-13-6.2
				c-6.7-5.6-20.4-9.4-39.2-8.6c-16.4,0.7-40.8,1-45.8,21.9"/>
		</g>
		<path id="XMLID_11622_" class="st0" d="M214.5,251.4c0,0-8.7,93.6-5.1,107.3"/>
		<g>
			<path id="XMLID_11621_" class="st3" d="M173.9,166.6c0.2-3.4-0.9-13.4-1.1-16.6c-0.2-2.9-0.6-5.4-1.2-7.6
				c11.4-19.5-20.1-41.8-31.3-16.8c-3.5,7.8-3.1,22.9-3,25.5c0.1,3.4,0.1,14.6,0.1,17.5c0.1,16.3,24.2,29.2,33.8,8"/>
			<path id="XMLID_11620_" class="st4" d="M165.8,184.2c-11.1,9.6-28.4-1.8-28.4-15.5c0-2.9-0.1-14.1-0.2-17.5
				c-0.1-2.6-0.5-17.7,3-25.5c11.2-25,42.7-2.7,31.3,16.8c0.6,2.1,1.1,4.6,1.2,7.6c0.2,3.2,1.4,13.1,1.1,16.6l-2.8,10.1
				c-0.5,1.1-1.1,2.2-1.6,3.1"/>
		</g>
		<g>
			<g id="XMLID_11618_">
				<path id="XMLID_11619_" class="st0" d="M206.4,301.4c6.1-5,11.2,7.1,2.2,8.2"/>
			</g>
			<path id="XMLID_11617_" class="st0" d="M213.4,232.5c-1.3,30.4-2.4,63-3.4,81.4c-2.1,40.2,1.1,99.4,1.1,99.4l-16.9-1.5
				c0,0,3.4-104.4,0-126.4c-2-12.6,0.4-52.4,2.1-85.2"/>
			<path id="XMLID_11616_" class="st0" d="M203.4,301.7c0,0,2.3,0.1,2.3,2"/>
			<path id="XMLID_11615_" class="st0" d="M202.7,308.1c0,0-2.7-0.9-2.9-1.5"/>
			<g id="XMLID_11602_">
				<path id="XMLID_11614_" class="st3" d="M190.5,440.6c2.9,0.8,4.9,0.9,6.4,0.8c-0.8,10.8,4.4,7.6,6.9,5.5l1.1,0.5
					c3.4,6.4,7.6,0.1,8.9-2l0.1,1.5c5.6,2.9,5.3-3.2,4.8-6.5c0.6,1,2,2,5.9,1.9c7.3-0.1-14.1-35.1-14.1-35.1l-16.2,3.8
					C194.3,411,175.7,436.9,190.5,440.6z"/>
				<path id="XMLID_11613_" class="st0" d="M194.3,411c0,0-18.6,25.9-3.8,29.6c2.9,0.8,4.9,0.9,6.4,0.8c-0.8,10.8,4.4,7.6,6.9,5.5
					l1.1,0.5c3.4,6.4,7.6,0.1,8.9-2l0.1,1.5c5.6,2.9,5.3-3.2,4.8-6.5c0.6,1,2,2,5.9,1.9c7.3-0.1-14.1-35.1-14.1-35.1"/>
				<g id="XMLID_11606_">
					<g id="XMLID_11608_">
						<path id="XMLID_11612_" class="st1" d="M210.5,407.2c0,0,21.4,35,14.1,35.1c-7.3,0.1-6.1-3.5-6.2-3.8c0,0,3.1,12.2-4.4,8.4"/>
						<path id="XMLID_11611_" class="st1" d="M214,444.8c0,0-5.2,10.5-9.4,2.1"/>
						<path id="XMLID_11610_" class="st1" d="M194.3,411c0,0-18.6,25.9-3.8,29.6s7.4-6.6,3.2-6.2"/>
						<path id="XMLID_11609_" class="st1" d="M205.1,445.6c0,0-9.8,10.4-8.1-5.5l0.5-8"/>
					</g>
					<path id="XMLID_11607_" class="st1" d="M207.9,406.2c0,0,10-10.1,0-10.9"/>
				</g>
				<path id="XMLID_11605_" class="st0" d="M204.2,431.6c0,0-0.4,4.9,0.4,7.5"/>
				<path id="XMLID_11604_" class="st0" d="M212.1,437.5c0,0,0.1,3.5,0.9,3.5"/>
				<path id="XMLID_11603_" class="st1" d="M213,423.4c0.7,2.2,3.6,7,3.6,7"/>
			</g>
		</g>
		<path id="XMLID_11601_" class="st2" d="M188.7,216c-2.2,4.2,4.1,60.6,3.8,65.5c-0.3,4.9,1.6,5.5,15.3,5c13.7-0.5,7-90.3,1.4-98.4
			c-1.9-2.9-9.6-5.6-18.7-8.1"/>
		<g>
			<path class="st5" d="M183.4,202.7c0,0-13.7-5.1-14.6-0.4c-0.9,4.8-5.4,20.1,2.8,21.1c8.1,1.1,11.8,0.8,12.1-6.1
				S183.4,202.7,183.4,202.7z"/>
			<g>
				<path id="XMLID_11600_" class="st0" d="M182.8,203c0,0,1.8,1.4,0.8,2.9"/>
				<path id="XMLID_11599_" class="st0" d="M170.4,202.4c0,0-2.5,1.2-3.2,2.4"/>
				<path id="XMLID_11598_" class="st0" d="M183.2,214.1c0,0,0.8-2.6,0.3-4"/>
				<path id="XMLID_11597_" class="st0" d="M169.7,222.6c0,0,2.6,1.1,3.9,0.8"/>
				<path id="XMLID_11596_" class="st0" d="M181.6,220.5c0,0-0.9,2.1-2.6,1.4"/>
				<path id="XMLID_11595_" class="st0" d="M167.6,209.7c0,0-0.4,1.9-0.9,2.4"/>
				<line id="XMLID_11594_" class="st4" x1="177.4" y1="201.8" x2="174.7" y2="201.7"/>
				<path id="XMLID_11593_" class="st0" d="M166.7,216.8c0,0-0.6,2.7-0.1,4"/>
			</g>
			<g>
				<path id="XMLID_11592_" class="st0" d="M136.6,391c0,0-1.7-2.9-0.4-4.6"/>
				<path id="XMLID_11591_" class="st0" d="M140.4,378.7c0,0-1.9,2-2.2,3.4"/>
				<path id="XMLID_11590_" class="st0" d="M139.3,395.8c0,0,0.8,2.6,1.8,3.5"/>
			</g>
		</g>
		<g id="XMLID_11534_">
			<g id="XMLID_11586_">
				<path id="XMLID_11589_" class="st0" d="M117,85.4c0,0-17.5-23.2-17.9-5.1c-0.5,18.1,4.5,37.6,10.9,35.2c6.5-2.4,6.6-7.8,6.6-7.8
					"/>
				<path id="XMLID_11588_" class="st0" d="M111.2,86.6c0,0-6.8-10.6-8.5-5.6"/>
				<path id="XMLID_11587_" class="st0" d="M113.8,94c0,0-10-2.7-8.6,3.2c1.4,5.8,5.1,9.7,6.8,3.2"/>
			</g>
			<path id="XMLID_11585_" class="st6" d="M169.5,4c0,0-6.6,5.8,1.6,8.4S176.6,1,169.5,4z"/>
			<path id="XMLID_11584_" class="st0" d="M155.6,18c0,0,52.4,3.8,45.2,65.7s-5.4,73.3-35,79.6S120,148,116.7,131.5
				S89.8,26.2,155.6,18z"/>
			<path class="st7" d="M180.2,27.2c6.6,9.8,10.7,23.9,8.3,44.3c-7.4,61.9-5.4,73.3-34.9,79.6c-12.7,2.7-22.9,0.3-30.7-4.6
				c7.7,11.8,21.9,21.4,42.9,16.9c29.6-6.3,27.6-17.6,34.9-79.6C204.5,52.2,192.7,35.7,180.2,27.2z"/>
			<path id="XMLID_11583_" class="st2" d="M197.8,32.8c-0.2-2-1.1-4.6-2.9-8c0,0-0.1,0-0.1,0l0,0c-0.4-0.7-0.8-1.4-1.3-2.1
				c-5.9-9.2-15.4-14.5-24.2-17.2c-37.6-16.9-41.4,18.8-41.5,32.2c0,1.3,17-0.2,32.4-4c19.6,7.9,38.1,16.7,38.1,16.7
				S199.6,38.9,197.8,32.8z"/>
			<path id="XMLID_11582_" class="st0" d="M150.2,89.1c0,0,9.4,7,21.5,2.7"/>
			<path id="XMLID_11581_" class="st0" d="M127.3,89.4c0,0-15.1,3.2-18.3,1.8"/>
			<path id="XMLID_11580_" class="st0" d="M137.3,157.9c0,0-6.2,5.8,6.7,8.3s21.3-0.9,18.8-5.7"/>
			<path id="XMLID_11579_" class="st2" d="M118.5,42.7c0,0,20.1-8.2,43.7-3S198,50.3,198,50.3c-7.6-26-53.2-26.1-76.3-24.7
				c-23.1,1.5-16.9,10.3-16.9,10.3S108.3,40.2,118.5,42.7z"/>
			<path id="XMLID_11578_" class="st0" d="M118.5,42.7c0,0-39.8-11,15.3-13.5S198,50.3,198,50.3S147.1,28.3,118.5,42.7z"/>
			<g>
				<path id="XMLID_11577_" class="st0" d="M146.8,93.7c0,0-9.4-11.8-9.2-18.3"/>
				<g id="XMLID_11574_">
					<path id="XMLID_11576_" class="st0" d="M130.4,95c0.3,3.1,1.3,5.2,3.3,5.7c1.1,0.2,2.1,0.2,2.9-0.1c0.6-0.2,1.1-0.4,1.6-0.6"/>
					<path id="XMLID_11575_" class="st0" d="M140.6,57.6c0,0-7.2,19.3-9.2,32.8"/>
				</g>
				<g id="XMLID_11568_">
					<path id="XMLID_11573_" class="st0" d="M127,96.6c0,0-6.9,8.1,4.2,10.4"/>
					<path id="XMLID_11572_" class="st0" d="M146.2,96.6c0,0,7.4,6.2-3.1,10.4"/>
					<path id="XMLID_11571_" class="st0" d="M140.7,101.7c1.1,0.3,2.6-1.9,3.8,0c1.2,1.9-0.1,1.3-1.7,1.8
						C141.2,103.8,139.6,101.3,140.7,101.7z"/>
					<path id="XMLID_11570_" class="st0" d="M130.1,104.4c-2.1-0.1-2.6-1.8-1.5-2.7c0.4-0.3,1.6,0.2,2.8,0.9
						C132.2,103.2,130.1,104.4,130.1,104.4z"/>
					<path id="XMLID_11569_" class="st0" d="M137.6,92.4c0,0,2.2-0.1,2.7,0.7"/>
				</g>
				<path id="XMLID_11567_" class="st0" d="M122.9,101.6c0,0-6.1,3.1-7.8,3.7"/>
				<path id="XMLID_11566_" class="st0" d="M150.6,99.9c0,0,7.1,3.4,7.8,3.3"/>
			</g>
			<path id="XMLID_11565_" class="st0" d="M180.8,69.5c0,0,1,2.1-0.6,3"/>
			<path id="XMLID_11564_" class="st0" d="M175.3,90.6c0,0-0.4,1.8-1,2.5"/>
			<path id="XMLID_11563_" class="st0" d="M175.9,54c0,0,0.8-3.5,0-3.5"/>
			<path id="XMLID_11562_" class="st0" d="M124.8,42.2c0,0,3.3,0.5,2.9,1"/>
			<path id="XMLID_11561_" class="st0" d="M145,48.4c0,0,3.8-0.5,4.1-1.3"/>
			<path id="XMLID_11560_" class="st0" d="M126.2,142.7c0,0,2.8,0.6,3,1.2"/>
			<path id="XMLID_11559_" class="st0" d="M149.6,143.9c0,0-2.6,1.2-3.3,2.4"/>
			<path id="XMLID_11558_" class="st0" d="M123.6,82.2"/>
			<path id="XMLID_11557_" class="st0" d="M141.9,84.4"/>
			<line id="XMLID_11556_" class="st4" x1="168.1" y1="104.8" x2="170.8" y2="104.1"/>
			<path id="XMLID_11555_" class="st0" d="M193.4,91.9c0,0,19.4-21.6,18.4-3.6c-1.1,18-7.7,37.1-13.9,34.1s-5.9-8.3-5.9-8.3"/>
			<path id="XMLID_11554_" class="st0" d="M199,93.7c0,0,7.7-10,9-4.8"/>
			<path id="XMLID_11553_" class="st0" d="M195.8,100.8c0,0,10.2-1.8,8.3,3.9s-5.9,9.2-7.1,2.7"/>
			<g>
				<path id="XMLID_11552_" class="st8" d="M111.1,50.5c0,0,35.8-3.5,22.8,25.4S81.1,70.5,111.1,50.5z"/>
				<path id="XMLID_11551_" class="st6" d="M112.7,65.3c0,0,5.3-2.2,4.8,3.4S109,70.1,112.7,65.3z"/>
				<path id="XMLID_11550_" class="st8" d="M150.9,54.5c0,0-26.3,23.1,6.4,33.7S179.4,42.7,150.9,54.5z"/>
				<path id="XMLID_11549_" class="st6" d="M169.1,68.6c0,0,5.4-2.2,4.8,3.4S165.4,73.3,169.1,68.6z"/>
				<path id="XMLID_11548_" class="st6" d="M153,49.8c0,0-12.1,1.4-3.4,9.9s25.2,0.3,24.3-2.7S171.4,48.9,153,49.8z"/>
				<path id="XMLID_11547_" class="st6" d="M117.9,44.7c0,0-18.6-1-10,9.3s23.9-0.2,25.1-4.7S117.9,44.7,117.9,44.7z"/>
				<g id="XMLID_11544_">
					<path id="XMLID_11546_" class="st0" d="M172.7,87.1c0.2,0.1,0.4,0.2,0.7,0.2c0.9,0.2,1.8,0.3,2.8-0.7c2.2-2.4-2.9-3.2-2.9-3.2
						l-5.7-0.4c0,0-12.1-0.8-19.1,1.1c0,0,10.5,5.6,16.9,5.2c0.8-0.1,1.4-0.2,2.1-0.4C168,88.7,171.6,86.8,172.7,87.1z"/>
					<path id="XMLID_11545_" class="st0" d="M115,80.1c0,0,7.1-1.3,14.9,1.1c0,0-3.9,8.4-16.4,4.6c-4.1-1.2-4.9,1.1-7.2-1.3
						c-2.2-2.4,2.9-3.2,2.9-3.2L115,80.1z"/>
				</g>
			</g>
			<g id="XMLID_11539_">
				<path id="XMLID_11543_" class="st6" d="M123.3,121.2c0,0-19.2,2.5-8.5,9.5C125.5,137.6,123.3,121.2,123.3,121.2z"/>
				<path id="XMLID_11542_" class="st6" d="M120.5,115.5c0,0-15.8-0.8-8.6,7.3c7.3,8.2,20.4-0.2,21.4-3.7S120.5,115.5,120.5,115.5z"
					/>
				<path id="XMLID_11541_" class="st6" d="M152.2,119.6c0,0-7.7-2.6-6.4,7.2c1.3,9.8,14.7,8.1,15.5,5.3S163.4,124.6,152.2,119.6z"
					/>
				<path id="XMLID_11540_" class="st6" d="M145.6,117c0,0-22.5-2.8-0.3,8S171.2,120.4,145.6,117z"/>
			</g>
			<g id="XMLID_11535_">
				<path id="XMLID_11538_" class="st0" d="M125.5,130.6c0,0,11.8,11.6,18.3,0"/>
				<path id="XMLID_11537_" class="st0" d="M128.2,128.7c0,0,3.2-3.5,5.7,0"/>
				<path id="XMLID_11536_" class="st0" d="M139.5,128.7c0,0-3.2-3.5-5.6,0"/>
			</g>
		</g>
		<path id="XMLID_11533_" class="st0" d="M168.4,187.1c0.9-0.3,1.7-0.9,2.4-2.2"/>
		<path id="XMLID_11532_" class="st0" d="M136.7,180.1c0,0,0.2,1.1,1,2.1"/>
		<path id="XMLID_11531_" class="st0" d="M143.8,189.6c0.2,0.1,0.6,0.3,0.9,0.4"/>
		<path id="XMLID_11530_" class="st2" d="M116.9,332.5c0,0,2.8-93.9-1.7-107.4"/>
	</g>
	<g>
		<path class="st0" d="M140.7,631.1c-0.6-1.8-1.6-3.8-2.6-6.3c-1-2.3-2.1-5.1-2.9-8.5c0.1,0,0.1,0,0.1,0s0,0,0-0.1
			c0-0.5-0.1-3-0.1-6.9l-15.2-1.3l-0.8,0l-0.8,0c-0.1,1.1-0.2,1.9-0.3,2.4c0,0-0.1,0.2-0.1,0.2c-0.1,0.1-0.2,0.2-0.2,0.3
			c-0.3,0.4-0.6,0.7-0.6,0.7s-0.7,0.6-1.7,1.6c-1.9,10.8-9.3,17.1-18.2,20.8c0.1,0.9,0.5,1.8,1.3,2.5c0.2,0.2,0.6,0.5,0.9,0.8
			c1.2,0.8,3.1,1.5,5.4,2c1.8,0.3,3.8,0.7,6.2,0.8c1.4,0.1,2.9,0.2,4.6,0.3c1.2,0,2.4,0.1,3.7,0.2c1.2,0,2.5,0,3.7-0.2
			c1.6,0,3.1-0.2,4.6-0.3c2.3-0.2,4.3-0.5,6.2-0.8c2.3-0.5,4.2-1.1,5.4-2c0.4-0.2,0.7-0.5,0.9-0.8c1.1-1,1.4-2.2,1.3-3.4
			C141.1,632.6,140.9,631.9,140.7,631.1z"/>
		<path class="st0" d="M133.4,514.5c0.2-4,0.4-8.7,0.6-14c20.3-44,51.3-112,55.7-115.2l-23.5-16.8c0,0-14.7,43.1-30.2,81.5
			c-2,4.9-3.9,9.8-5.9,14.4c-2.1,4.8-4.1,9.3-5.8,13.3l0,0c-4.4,10-5.9,14.7-5.5,16c-0.1,0.4-0.2,0.8-0.4,1.2
			c0.5,9.4,0.7,22.9,0.7,37.4c-0.1,36.7-1.5,80-1.5,80l16.9,1.5C134.5,613.9,131.3,554.7,133.4,514.5z"/>
		<g>
			<g id="XMLID_11645_">
				<path id="XMLID_11646_" class="st0" d="M83.4,635.8c0,0,6.1-0.6,3.8,4.3C85.1,644.9,78.4,639.2,83.4,635.8z"/>
			</g>
			<g id="XMLID_11643_">
				<path id="XMLID_11644_" class="st0" d="M86.9,635.1c0,0,6.7-0.7,4.3,4.8C88.8,645.3,81.3,638.9,86.9,635.1z"/>
			</g>
			<g id="XMLID_11641_">
				<path id="XMLID_11642_" class="st0" d="M91.2,634c0,0,7.8-0.8,5,5.5C93.3,645.8,84.6,638.4,91.2,634z"/>
			</g>
			<g id="XMLID_11639_">
				<path id="XMLID_11640_" class="st0" d="M96.6,632.8c0,0,8.9-0.8,5.7,6.3C99.1,646.4,89.1,637.9,96.6,632.8z"/>
			</g>
			<path id="XMLID_11638_" class="st0" d="M107.1,641.9c0,0-10.6,0.7-5.7-6.2s13.6,0.2,14.3,3.1
				C116.4,641.8,107.1,641.9,107.1,641.9z"/>
		</g>
		<path id="XMLID_11637_" class="st0" d="M127.8,479.5c0,0,2.3,0.1,2.3,2"/>
		<path id="XMLID_11636_" class="st0" d="M124.2,496.1c0,0-2.7-0.8-2.8-1.5"/>
		<g id="XMLID_11634_">
			<path id="XMLID_11635_" class="st0" d="M120.5,616.2c-6.1,5-11.2-7.1-2.2-8.2"/>
		</g>
		<g id="XMLID_11632_">
			<path id="XMLID_11633_" class="st0" d="M119.7,491.5c-7.6,2.1-7.4-11,1.2-8.5"/>
		</g>
	</g>
</g>
</svg>
