<?xml version="1.0" encoding="utf-8"?>
<!-- Generator: Adobe Illustrator 22.1.0, SVG Export Plug-In . SVG Version: 6.00 Build 0)  -->
<svg version="1.1" id="Layer_1" xmlns="http://www.w3.org/2000/svg" xmlns:xlink="http://www.w3.org/1999/xlink" x="0px" y="0px"
	 viewBox="0 0 961 541" style="enable-background:new 0 0 961 541;" xml:space="preserve">
<style type="text/css">
	.st0{fill:none;stroke:#584C4F;stroke-width:0.5;stroke-linecap:round;stroke-miterlimit:10;}
</style>
<g>
	<g id="XMLID_37727_">
		<g id="XMLID_37737_">
			<rect id="XMLID_37745_" x="0.5" y="472.9" class="st0" width="960" height="67.5"/>
			<rect id="XMLID_37744_" x="0.5" y="405.4" class="st0" width="960" height="67.5"/>
			<rect id="XMLID_37743_" x="0.5" y="337.9" class="st0" width="960" height="67.5"/>
			<rect id="XMLID_37742_" x="0.5" y="270.4" class="st0" width="960" height="67.5"/>
			<rect id="XMLID_37741_" x="0.5" y="202.9" class="st0" width="960" height="67.5"/>
			<rect id="XMLID_37740_" x="0.5" y="135.4" class="st0" width="960" height="67.5"/>
			<rect id="XMLID_37739_" x="0.5" y="67.9" class="st0" width="960" height="67.5"/>
			<rect id="XMLID_37738_" x="0.5" y="0.5" class="st0" width="960" height="67.5"/>
		</g>
		<g id="XMLID_37728_">
			<rect id="XMLID_37736_" x="0.5" y="0.5" class="st0" width="120" height="540"/>
			<rect id="XMLID_37735_" x="120.5" y="0.5" class="st0" width="120" height="540"/>
			<rect id="XMLID_37734_" x="240.5" y="0.5" class="st0" width="120" height="540"/>
			<rect id="XMLID_37733_" x="360.5" y="0.5" class="st0" width="120" height="540"/>
			<rect id="XMLID_37732_" x="480.5" y="0.5" class="st0" width="120" height="540"/>
			<rect id="XMLID_37731_" x="600.5" y="0.5" class="st0" width="120" height="540"/>
			<rect id="XMLID_37730_" x="720.5" y="0.5" class="st0" width="120" height="540"/>
			<rect id="XMLID_37729_" x="840.5" y="0.5" class="st0" width="120" height="540"/>
		</g>
	</g>
</g>
</svg>
