<?xml version="1.0" encoding="utf-8"?>
<!-- Generator: Adobe Illustrator 22.1.0, SVG Export Plug-In . SVG Version: 6.00 Build 0)  -->
<svg version="1.1" id="Layer_1" xmlns="http://www.w3.org/2000/svg" xmlns:xlink="http://www.w3.org/1999/xlink" x="0px" y="0px"
	 viewBox="0 0 48.2 282.3" style="enable-background:new 0 0 48.2 282.3;" xml:space="preserve">
<style type="text/css">
	.st0{fill:#FDF7E0;stroke:#584C4F;stroke-miterlimit:10;}
	.st1{fill:#FFD767;stroke:#584C4F;stroke-miterlimit:10;}
</style>
<g id="Layer_5">
</g>
<g id="Layer_3">
</g>
<g>
	<g>
		<path id="XMLID_220_" class="st0" d="M37.5,169.7c0,0,0.1,0.2-0.2,0.2c-9.3,0.2-24.1,0-24.1,0c-0.3,0-0.2-0.2-0.2-0.2
			c-0.4-5.3,0-15.1,0-15.1s-0.1-0.2,0.2-0.2c14.5-0.4,24.3,0,24.3,0c0.3,0,0.2,0.2,0.2,0.2S37.7,162.9,37.5,169.7z"/>
		<path id="XMLID_219_" class="st0" d="M34.7,157.4c0,0,0.1-0.4-0.3-0.4c0,0-6.1-0.5-13.6,0c-0.4,0-0.3,0.4-0.3,0.4
			s-0.1,5.5,0.1,9.4c0,0-0.1,0.4,0.3,0.4c0,0,5.8,0.3,13.4,0c0.4,0,0.3-0.4,0.3-0.4L34.7,157.4z"/>
		<g>
			<path class="st0" d="M32,148.9c-1.5,1.6-3.3,3.4-5,5c-0.1-0.1-0.1-0.1-0.2-0.2C32.8,147.8,32,148.9,32,148.9z"/>
			<path class="st0" d="M21.8,148.7c1.6,1.5,3.4,3.3,5,5c-0.1,0.1-0.1,0.1-0.2,0.2C20.7,147.9,21.8,148.7,21.8,148.7z"/>
			<path class="st0" d="M26.8,153.7c0.1,0.1,0.1,0.1,0.2,0.2c-0.1,0.1-0.1,0.1-0.2,0.2c-0.1-0.1-0.1-0.1-0.2-0.2
				C26.6,153.8,26.7,153.8,26.8,153.7z"/>
		</g>
	</g>
	<g>
		<g>
			<path class="st0" d="M10,82.1c0,0,0.3-0.6,0.9-0.5c0,0,23.9,0,24.6,0c0.6,0,0.9,0.5,0.9,0.5s0,13.5-0.3,14c0,0-0.3,0.6-0.9,0.5
				c0,0-3.6,0-8,0.1c0,0,0-0.1,0-0.1c-0.1-0.1-3.9-3.8-3.9-3.8c-0.1-0.1-0.3,0-0.3,0c-0.5,0.4-3.8,3.9-3.8,3.9s0,0.1,0,0.1
				c-4,0-7.3,0-8-0.1c-0.6-0.1-0.9-0.5-0.9-0.5S9.9,83.7,10,82.1z"/>
			<path class="st0" d="M23,92.8c0,0,0.2-0.1,0.3,0c0,0,3.7,3.7,3.9,3.8c0,0,0,0.1,0,0.1c-2.6,0-5.4,0-8,0c0-0.1,0-0.1,0-0.1
				S22.6,93.2,23,92.8z"/>
		</g>
		<g>
			<path class="st0" d="M25.8,89.1c0-0.1,0-0.1,0-0.2c0-0.2,0-0.5,0.1-0.7c0.1-0.3,0.1-0.5,0.2-0.8c0,0,0,0,0.1-0.1
				c0.1-0.4,0.4-0.8,0.7-1c0.3-0.3,0.6-0.5,1-0.7c0.2-0.1,0.4-0.2,0.7-0.3c0,0,0.2,0,0.4,0c0.3-0.1,0.5-0.1,0.8-0.1
				c0.1,0,0.1,0,0.2,0c0.2,0,0.5,0,0.7,0.1c0.3,0.1,0.5,0.1,0.8,0.2c0,0,0,0,0.1,0.1c0.4,0.1,0.8,0.4,1,0.7c0.3,0.3,0.5,0.6,0.7,1
				c0.1,0.2,0.2,0.4,0.3,0.7c0,0,0,0.2,0,0.4c0.1,0.3,0.1,0.5,0.1,0.8c0,0.1,0,0.1,0,0.2c0,0.2,0,0.5-0.1,0.7
				c-0.1,0.3-0.1,0.5-0.2,0.8c0,0,0,0-0.1,0.1c-0.1,0.4-0.4,0.8-0.7,1c-0.3,0.3-0.6,0.5-1,0.7c-0.2,0.1-0.4,0.2-0.7,0.3
				c0,0-0.2,0-0.4,0c-0.3,0.1-0.5,0.1-0.8,0.1c-0.1,0-0.1,0-0.2,0c-0.2,0-0.5,0-0.7-0.1c-0.3-0.1-0.5-0.1-0.8-0.2c0,0,0,0-0.1-0.1
				c-0.4-0.1-0.8-0.4-1-0.7c-0.3-0.3-0.5-0.6-0.7-1c-0.1-0.2-0.2-0.4-0.3-0.7c0,0,0-0.2,0-0.4C25.8,89.7,25.7,89.4,25.8,89.1z"/>
			<path class="st0" d="M12.5,89.1c0-0.1,0-0.1,0-0.2c0-0.2,0-0.5,0.1-0.7c0.1-0.3,0.1-0.5,0.2-0.8c0,0,0,0,0.1-0.1
				c0.1-0.4,0.4-0.8,0.7-1c0.3-0.3,0.6-0.5,1-0.7c0.2-0.1,0.4-0.2,0.7-0.3c0,0,0.2,0,0.4,0c0.3-0.1,0.5-0.1,0.8-0.1
				c0.1,0,0.1,0,0.2,0c0.2,0,0.5,0,0.7,0.1c0.3,0.1,0.5,0.1,0.8,0.2c0,0,0,0,0.1,0.1c0.4,0.1,0.8,0.4,1,0.7c0.3,0.3,0.5,0.6,0.7,1
				c0.1,0.2,0.2,0.4,0.3,0.7c0,0,0,0.2,0,0.4c0.1,0.3,0.1,0.5,0.1,0.8c0,0.1,0,0.1,0,0.2c0,0.2,0,0.5-0.1,0.7
				c-0.1,0.3-0.1,0.5-0.2,0.8c0,0,0,0-0.1,0.1c-0.1,0.4-0.4,0.8-0.7,1c-0.3,0.3-0.6,0.5-1,0.7c-0.2,0.1-0.4,0.2-0.7,0.3
				c0,0-0.2,0-0.4,0c-0.3,0.1-0.5,0.1-0.8,0.1c-0.1,0-0.1,0-0.2,0c-0.2,0-0.5,0-0.7-0.1c-0.3-0.1-0.5-0.1-0.8-0.2c0,0,0,0-0.1-0.1
				c-0.4-0.1-0.8-0.4-1-0.7c-0.3-0.3-0.5-0.6-0.7-1c-0.1-0.2-0.2-0.4-0.3-0.7c0,0,0-0.2,0-0.4C12.6,89.7,12.5,89.4,12.5,89.1z"/>
		</g>
	</g>
	<path id="XMLID_218_" class="st0" d="M37.5,204.2c0,0,0.1,0.2-0.2,0.2c-10.1,0.2-26.2,0-26.2,0c-0.3,0-0.2-0.2-0.2-0.2
		c-0.4-5.6,0-16,0-16S10.7,188,11,188c15.7-0.4,26.4,0,26.4,0c0.3,0,0.2,0.2,0.2,0.2S37.7,197,37.5,204.2z"/>
	<g>
		<path class="st0" d="M16.9,63.4c0.6-3.5,1.6-5,2.8-5.7c0,0,7.2-2.7,9.3,4.2c0.2,0.6,0.3,1.1,0.3,1.6H16.9z"/>
		<path class="st0" d="M11.7,41.7c0,0-0.1-0.2,0.2-0.2c13.5-0.6,22.7,0,22.7,0c0.3,0,0.2,0.2,0.2,0.2s0,7.7-0.1,15.7H11.6L11.7,41.7
			z"/>
		<path class="st0" d="M34.4,61.1c-8.7,0.2-22.5,0-22.5,0c-0.3,0-0.2-0.2-0.2-0.2c-0.1-0.7-0.1-1.5-0.1-2.4v-1.4h23.1
			c0,1.3,0,2.5-0.1,3.7C34.6,60.9,34.7,61.1,34.4,61.1z"/>
		<path class="st0" d="M14.7,44.2c0,0-0.1-0.2,0.1-0.2c9.9-0.4,16.6,0,16.6,0c0.2,0,0.1,0.2,0.1,0.2s0,5-0.1,10.3H14.6L14.7,44.2z"
			/>
	</g>
	<path class="st1" d="M23.4,176.6c0,0,1.2-0.1,2.2,0c2.2-0.3,9.7-0.2,13.6,0c0,0,4.3-0.4,3.1,1.2c-0.5,0.6-2.2,0.8-4,0.8
		c-1.9,0-7.8,0.1-11.7-0.1c0,0-1.2,0.1-2.2,0c-2.2,0.3-9.7,0.2-13.6,0c0,0-4.3,0.4-3.1-1.2c0.4-0.5,1.8-0.8,3.4-0.8
		C13.1,176.5,19.6,176.4,23.4,176.6z"/>
	<path class="st1" d="M23.4,211.7c0,0,1.2-0.1,2.2,0c2.2-0.3,9.7-0.2,13.6,0c0,0,4.3-0.4,3.1,1.2c-0.5,0.6-2.2,0.8-4,0.8
		c-1.9,0-7.8,0.1-11.7-0.1c0,0-1.2,0.1-2.2,0c-2.2,0.3-9.7,0.2-13.6,0c0,0-4.3,0.4-3.1-1.2c0.4-0.5,1.8-0.8,3.4-0.8
		C13.1,211.6,19.6,211.6,23.4,211.7z"/>
	<g>
		<path id="XMLID_216_" class="st0" d="M37.9,226.9c0,0,0.1-0.3-0.5-0.3c0,0-11.3-0.4-25.3,0c-0.7,0-0.5,0.3-0.5,0.3
			s-0.1,4.2,0.2,7.2c0,0-0.1,0.3,0.5,0.3c0,0,10.8,0.3,24.8,0c0.7,0,0.5-0.3,0.5-0.3L37.9,226.9z"/>
		<path id="XMLID_214_" class="st0" d="M32.4,226.1c0,0,3.5,9.5-5.5,12.2c-9,2.6-10.8-5.4-10.8-6.5c0.1-1.1,0.8-10.4,6.8-9.7
			S31.4,224.3,32.4,226.1z"/>
		<path id="XMLID_213_" class="st0" d="M29.6,234.7c0,0-5.6,5-9.8-0.5s0.8-8.9,1.6-9.1c0.8-0.2,7.4-2.2,8.4,2.1
			S30.5,233.5,29.6,234.7z"/>
	</g>
	<path id="XMLID_212_" class="st0" d="M34.4,202.7c0,0,0.9,0.1,1-0.3c0,0,1.1-5.5,0-12.3c-0.1-0.3-1-0.3-1-0.3s-12.2-0.1-20.7,0.1
		c0,0-0.9-0.1-1,0.3c0,0-0.8,5.3,0,12.1c0,0.3,1,0.3,1,0.3L34.4,202.7z"/>
	<g>
		<path id="XMLID_211_" class="st0" d="M30.7,111.2c0,0,0.2-0.1,0.2,0.2c0.2,9.9,0,25.6,0,25.6c0,0.3-0.2,0.2-0.2,0.2
			c-5.6,0.4-16,0-16,0s-0.2,0.1-0.2-0.2c-0.4-15.3,0-25.8,0-25.8c0-0.3,0.2-0.2,0.2-0.2S23.5,111,30.7,111.2z"/>
		<path id="XMLID_208_" class="st0" d="M16.7,113c0,0-0.5-0.1-0.6,0.4c0,0-0.6,8.3,0,18.5c0,0.5,0.6,0.4,0.6,0.4s7,0.1,12-0.2
			c0,0,0.5,0.1,0.6-0.4c0,0,0.4-7.9,0-18.2c0-0.5-0.6-0.4-0.6-0.4L16.7,113z"/>
		<path id="XMLID_207_" class="st0" d="M22.3,134.1c0,0,1.1-0.4,1.4,0.6c0.3,1-0.6,1.2-0.7,1.2c-0.1,0-1.2-0.1-1.1-0.8
			C21.9,134.5,22.1,134.2,22.3,134.1z"/>
	</g>
	<path class="st1" d="M23.4,105.6c0,0,1.2-0.1,2.2,0c2.2-0.3,9.7-0.2,13.6,0c0,0,4.3-0.4,3.1,1.2c-0.5,0.6-2.2,0.8-4,0.8
		c-1.9,0-7.8,0.1-11.7-0.1c0,0-1.2,0.1-2.2,0c-2.2,0.3-9.7,0.2-13.6,0c0,0-4.3,0.4-3.1-1.2c0.4-0.5,1.8-0.8,3.4-0.8
		C13.1,105.5,19.6,105.4,23.4,105.6z"/>
	<path class="st1" d="M23.4,140.7c0,0,1.2-0.1,2.2,0c2.2-0.3,9.7-0.2,13.6,0c0,0,4.3-0.4,3.1,1.2c-0.5,0.6-2.2,0.8-4,0.8
		c-1.9,0-7.8,0.1-11.7-0.1c0,0-1.2,0.1-2.2,0c-2.2,0.3-9.7,0.2-13.6,0c0,0-4.3,0.4-3.1-1.2c0.4-0.5,1.8-0.8,3.4-0.8
		C13.1,140.6,19.6,140.6,23.4,140.7z"/>
	<path class="st1" d="M23.4,69.7c0,0,1.2-0.1,2.2,0c2.2-0.3,9.7-0.2,13.6,0c0,0,4.3-0.4,3.1,1.2c-0.5,0.6-2.2,0.8-4,0.8
		c-1.9,0-7.8,0.1-11.7-0.1c0,0-1.2,0.1-2.2,0c-2.2,0.3-9.7,0.2-13.6,0c0,0-4.3,0.4-3.1-1.2c0.4-0.5,1.8-0.8,3.4-0.8
		C13.1,69.6,19.6,69.6,23.4,69.7z"/>
</g>
</svg>
