<?xml version="1.0" encoding="utf-8"?>
<!-- Generator: Adobe Illustrator 22.1.0, SVG Export Plug-In . SVG Version: 6.00 Build 0)  -->
<svg version="1.1" id="Layer_1" xmlns="http://www.w3.org/2000/svg" xmlns:xlink="http://www.w3.org/1999/xlink" x="0px" y="0px"
	 viewBox="0 0 513 385" style="enable-background:new 0 0 513 385;" xml:space="preserve">
<style type="text/css">
	.st0{opacity:0.1;fill:#231F20;stroke:#231F20;stroke-miterlimit:10;enable-background:new    ;}
	.st1{fill:#E6C86B;stroke:#584C4F;stroke-miterlimit:10;}
	.st2{fill:#FCDE82;stroke:#584C4F;stroke-miterlimit:10;}
	.st3{fill:none;stroke:#584C4F;stroke-miterlimit:10;}
	.st4{fill:#FCDB77;stroke:#584C4F;stroke-miterlimit:10;}
	.st5{fill:#FFD767;stroke:#584C4F;stroke-miterlimit:10;}
	.st6{fill:#FFFAF2;stroke:#584C4F;stroke-miterlimit:10;}
	.st7{fill:#FFF5D0;stroke:#584C4F;stroke-miterlimit:10;}
	.st8{fill:#FFF0C2;stroke:#584C4F;stroke-miterlimit:10;}
	.st9{fill:#FDF7E0;stroke:#584C4F;stroke-miterlimit:10;}
	.st10{fill:#FBE391;stroke:#584C4F;stroke-miterlimit:10;}
	.st11{fill:#FBE7A0;stroke:#584C4F;stroke-miterlimit:10;}
	.st12{fill:#FDEBB0;stroke:#584C4F;stroke-miterlimit:10;}
	.st13{fill:#584C4F;stroke:#584C4F;stroke-miterlimit:10;}
</style>
<g>
	<path class="st0" d="M270.4,174.8c-0.3,1.6,1.5,6.3,4.5,5.8c1.2-0.2,2-1.4,2.5-2.7c-2.9,0.2-4.5-4.2-4.2-5.8c0,0-0.5-9.1-6.6-6.4
		c-0.9,0.4-1.6,1.3-2.1,2.5C269.9,166.5,270.4,174.8,270.4,174.8z"/>
	<g>
		<g id="XMLID_44504_">
			<path id="XMLID_44512_" class="st1" d="M275.9,169.3c0,0-0.5-9.1-6.6-6.4s-2.6,28.3,12.9,24.6c15.5-3.7,9.2-23.8,9.2-23.8
				s-6.5-5.8-7.6,4.2c0,0-0.4,6.7-3.4,7.2C277.4,175.6,275.6,171,275.9,169.3z"/>
			<g id="XMLID_44510_">
				<path id="XMLID_44511_" class="st1" d="M268.1,174.9c0,0-10.7,10.6-8.6-9.1c0,0-2.5-6.1-7.5-3.6c-5,2.6-5.7,33.9,18.2,25.1
					c0,0,6.5-2.4,8.2-3.8"/>
			</g>
			<path id="XMLID_44509_" class="st2" d="M258.4,166.2c0,0-1,0.5-1.3,0.9"/>
			<path id="XMLID_44508_" class="st2" d="M273.9,166.2c0,0-1,0.5-1.3,1"/>
			<path id="XMLID_44507_" class="st2" d="M259.6,177.2c0,0-1,0.5-1.3,0.9"/>
			<path id="XMLID_44506_" class="st2" d="M276.6,174.5c0,0-1,0.5-1.3,1"/>
			<path id="XMLID_44505_" class="st2" d="M289.9,163.9c0,0-1,0.5-1.3,0.9"/>
		</g>
		<g id="XMLID_44491_">
			<path id="XMLID_44503_" class="st2" d="M273.1,172.1c0,0-0.5-9.1-6.6-6.4c-6.1,2.7-2.6,28.3,12.9,24.6
				c15.5-3.7,9.2-23.8,9.2-23.8s-6.5-5.8-7.6,4.2c0,0-0.4,6.7-3.4,7.2C274.6,178.4,272.8,173.7,273.1,172.1z"/>
			<g id="XMLID_44501_">
				<path id="XMLID_44502_" class="st2" d="M265.3,177.6c0,0-10.7,10.6-8.6-9.1c0,0-2.5-6.1-7.5-3.6c-5,2.6-5.7,33.9,18.2,25.1
					c0,0,6.5-2.4,8.2-3.8"/>
			</g>
			<line id="XMLID_44500_" class="st3" x1="254.4" y1="189" x2="255.4" y2="189.4"/>
			<path id="XMLID_44499_" class="st2" d="M277.7,182.3c0,0,0.4,0.8-0.2,1.2"/>
			<path id="XMLID_44498_" class="st2" d="M288.3,180.6c0,0-0.2,0.8-0.4,1"/>
			<path id="XMLID_44497_" class="st2" d="M282.3,170.3c0,0,0.3-1.4,0-1.4"/>
			<path id="XMLID_44496_" class="st2" d="M251.7,165.7c0,0,1.3,0.2,1.2,0.4"/>
			<path id="XMLID_44495_" class="st2" d="M260.2,182.4c0,0,1.5-0.2,1.6-0.5"/>
			<path id="XMLID_44494_" class="st2" d="M267.9,167c0,0-1,0.5-1.3,0.9"/>
			<line id="XMLID_44493_" class="st3" x1="277.6" y1="178.7" x2="278.7" y2="178.4"/>
			<line id="XMLID_44492_" class="st3" x1="279.9" y1="188.6" x2="281" y2="188.4"/>
			<path class="st0" d="M270.4,174.8c-0.3,1.6,1.5,6.3,4.5,5.8c1.2-0.2,2-1.4,2.5-2.7c-2.9,0.2-4.5-4.2-4.2-5.8c0,0-0.5-9.1-6.6-6.4
				c-0.9,0.4-1.6,1.3-2.1,2.5C269.9,166.5,270.4,174.8,270.4,174.8z"/>
		</g>
	</g>
	<path class="st0" d="M254,171.2c-1.7,16,5,12.1,7.6,10c-0.1-0.3-0.2-0.7-0.2-1c-2.8,0.9-5.8-0.4-4.6-11.8c0,0-2.5-6.1-7.5-3.6
		c-0.6,0.3-1.2,1.2-1.7,2.3C251.8,166,254,171.2,254,171.2z"/>
	<path class="st0" d="M288.6,166.5c0,0-4.9-4.4-6.9,1.1c2-0.3,4.2,1.6,4.2,1.6s3.6,11.7-1.4,18.8
		C293.4,181.7,288.6,166.5,288.6,166.5z"/>
</g>
<g>
	<g>
		<g id="XMLID_44487_">
			<path id="XMLID_44490_" class="st1" d="M249.6,163.9c-12.3-9-21.9,2.3-21.9,2.3s-7.9,18.1,7.2,22.9
				C249.9,193.8,261.9,172.9,249.6,163.9z M242.9,176.3c-2.8,7.4-11.6-4.2-5.4-5.1C237.5,171.3,245.7,168.9,242.9,176.3z"/>
			<path id="XMLID_44489_" class="st2" d="M247.6,164c0,0-1,0.5-1.3,0.9"/>
			<path id="XMLID_44488_" class="st2" d="M242.6,161.8c0,0-1,0.5-1.3,0.9"/>
		</g>
	</g>
	<g id="XMLID_44475_">
		<path id="XMLID_44486_" class="st4" d="M239.1,168.4"/>
		<path id="XMLID_44485_" class="st4" d="M246.9,166.6c-12.3-9-21.9,2.3-21.9,2.3s-7.9,18.1,7.2,22.9
			C247.1,196.5,259.2,175.6,246.9,166.6z M240.2,179.1c-2.8,7.4-11.6-4.2-5.4-5.1C234.8,174,243,171.6,240.2,179.1z"/>
		<path id="XMLID_44484_" class="st4" d="M242,165.5"/>
		<line id="XMLID_44483_" class="st3" x1="228" y1="188.1" x2="229" y2="188.6"/>
		<path id="XMLID_44482_" class="st4" d="M243.1,189c0,0-0.2,0.9-0.9,0.8"/>
		<path id="XMLID_44481_" class="st4" d="M241.3,179.2c0,0-0.2,0.8-0.4,1"/>
		<path id="XMLID_44480_" class="st4" d="M250.3,178.6c0,0,0.3-1.4,0-1.4"/>
		<path id="XMLID_44479_" class="st4" d="M241.3,165.3c0,0,1.3,0.2,1.2,0.4"/>
		<path id="XMLID_44478_" class="st4" d="M232.9,181.4c0,0,1.3,0.9,1.5,0.7"/>
		<path id="XMLID_44477_" class="st4" d="M227.2,169.2c0,0-1,0.5-1.3,0.9"/>
		<line id="XMLID_44476_" class="st3" x1="233.1" y1="173.1" x2="234.2" y2="172.8"/>
		<path class="st0" d="M246.9,166.6c-12.3-9-21.9,2.3-21.9,2.3s-0.1,0.2-0.2,0.4c3.7-2.8,10.9-6.2,19.3,0c6.9,5.1,6.2,13.9,1.5,19.9
			C252.5,183.7,255,172.5,246.9,166.6z"/>
	</g>
</g>
<g>
	<g id="XMLID_44468_">
		<path id="XMLID_44474_" class="st1" d="M213,163c0,0-1.3-6.2-7.4-4c-6.1,2.2-3.1,25.8-0.2,27.6C208.2,188.4,216.1,199.6,213,163z"
			/>
		<path id="XMLID_44473_" class="st1" d="M211.6,174.3c0,0,10.7-10.6,8.6,9.1c0,0,2.5,6.1,7.5,3.6c4.9-2.6,5.7-33.9-18.2-25.1"/>
		<path id="XMLID_44472_" class="st2" d="M224.4,164.1c0,0-1,0.5-1.3,0.9"/>
		<path id="XMLID_44471_" class="st2" d="M208.9,159.6c0,0-1,0.5-1.3,1"/>
		<path id="XMLID_44470_" class="st2" d="M212.2,184.5c-0.2,0.2-0.5,0.4-0.6,0.6"/>
		<path id="XMLID_44469_" class="st2" d="M229.4,178.5c0,0-0.3,0.1-0.7,0.4"/>
	</g>
	<g id="XMLID_44457_">
		<path id="XMLID_44467_" class="st5" d="M210.2,165.8c0,0-1.3-6.2-7.4-4c-6.1,2.2-3.1,25.8-0.2,27.6
			C205.4,191.2,213.3,202.4,210.2,165.8z"/>
		<path id="XMLID_44466_" class="st5" d="M208.8,177.1c0,0,10.7-10.6,8.6,9.2c0,0,2.5,6.1,7.5,3.6c4.9-2.6,5.7-33.9-18.2-25.1"/>
		<line id="XMLID_44465_" class="st3" x1="205.4" y1="189.1" x2="206.4" y2="189.5"/>
		<path id="XMLID_44464_" class="st5" d="M223.7,186.4c0,0,0.4,0.8-0.2,1.2"/>
		<path id="XMLID_44463_" class="st5" d="M226.1,176.3c0,0-0.2,0.8-0.4,1"/>
		<path id="XMLID_44462_" class="st5" d="M209.1,182.6c0,0,0.3-1.4,0-1.4"/>
		<path id="XMLID_44461_" class="st5" d="M216.6,173c0,0,1.3,0.2,1.2,0.4"/>
		<path id="XMLID_44460_" class="st5" d="M203.9,179.6c0,0,1.5-0.2,1.6-0.5"/>
		<path id="XMLID_44459_" class="st5" d="M211.6,165c0,0-1,0.5-1.3,0.9"/>
		<line id="XMLID_44458_" class="st3" x1="202.4" y1="166.7" x2="203.5" y2="166.4"/>
		<path class="st0" d="M209.5,163.9c-0.9-1.6-2.9-3.5-6.6-2.1c-1,0.3-1.8,1.3-2.3,2.6c3.5-1,5.3,0.7,6.2,2.3
			c18.2-4.7,20,16.2,17.1,23.6c0.4-0.1,0.7-0.2,1.1-0.4C229.7,187.3,230.5,158.4,209.5,163.9z"/>
	</g>
</g>
<path id="XMLID_44456_" class="st1" d="M273.1,189.5c0,0-2.2-1.6-3.2-0.4c-1,1.2-2.6,3.4-0.6,7.4c2,4.1,9.4,0.7,10.1-1.2"/>
<path id="XMLID_44455_" class="st6" d="M278.1,222c-0.3-2.3-0.8-3.2-1.5-3.6c0,0-3.6-1.4-4.6,2.1s2.1,4.1,2.5,4.1
	C274.9,224.6,278.4,224.3,278.1,222z M275.8,221.8c-0.1,0.2-0.3,0.4-0.9,0.5c-0.6,0.1-0.8-0.8-0.8-0.9c0-0.1,0.1-0.9,1-0.8
	C276.1,220.8,275.8,221.8,275.8,221.8z"/>
<g>
	<g id="XMLID_44451_">
		<path id="XMLID_44454_" class="st6" d="M283.7,223"/>
		<path id="XMLID_44453_" class="st6" d="M285.8,222.9c0-0.9-0.1-2.1,0.3-2.4c0.5-0.4,2-0.2,1.8,0.7c-0.1,0.6-0.1,1.2-0.1,1.6
			c0,0.3,0,0.6,0,0.6c0,0.2,0.1,0.8,0.9,0.8c1.1,0.1,1.2-0.2,1.2-1c0-0.8,0.9-4.5-2.3-5.1c-2.2-0.5-3.4,0.8-3.9,1.8"/>
		<path id="XMLID_44452_" class="st6" d="M285.9,220.3"/>
	</g>
	<g id="XMLID_44446_">
		<path id="XMLID_44450_" class="st6" d="M285.5,219.4c-0.3-0.6-0.9-1.1-1.9-1.3c-3.2-0.7-4.2,2.2-4.2,2.9c0,0.4,0.1,1.3,0.2,2"/>
		<path id="XMLID_44449_" class="st6" d="M279.6,223c0.1,0.6,2.1,0.1,2.1-0.1c0-0.9-0.1-2.2,0.3-2.4c0.4-0.3,1.4-0.2,1.7,0.3
			c0.1,0.1,0.1,0.3,0.1,0.4c-0.1,0.6-0.1,1.2-0.1,1.6c0,0.3,0,0.6,0,0.6c0,0.2,0.1,0.8,0.9,0.8c1.1,0.1,1.2-0.2,1.2-1
			c0-0.4,0.2-1.5,0-2.7"/>
		<path id="XMLID_44448_" class="st6" d="M281.9,220.3"/>
		<path id="XMLID_44447_" class="st6" d="M281.9,220.3c0.1,1.3,0,2.8-0.2,3.3c0,0-0.6,1.1-1.5,0.6c-0.9-0.5-1-5.7-0.4-5.9
			c0.6-0.2,1.7-0.8,2,0.4"/>
	</g>
</g>
<path id="XMLID_44445_" class="st6" d="M269.6,221.7c-0.2,0.1-0.3,0.2-0.5,0.4c0,0.1-0.1,0.1-0.1,0.2c0,0.1-0.1,0.1-0.2,0.1
	c-0.5,0.2-1.4,0.5-1.8-0.5c0-0.1-0.1-0.4-0.1-0.4c0-0.1,0-0.3,0-0.4c0.1-1,0.4-1.4,0.8-1.5c0.4-0.1,1.1,0.2,1.3,0.7
	c0,0,0.2,0.9,0.7,0.8s1.5-0.6,0.7-1.6c-0.8-1-1.5-2-3.6-1.3c-2.1,0.7-1.7,3.4-1.6,3.6c0.1,0.2,1.2,3.9,4,2.2
	C272.1,222.4,269.9,221.6,269.6,221.7z"/>
<path id="XMLID_44444_" class="st7" d="M270.3,192.3c0,0-2.2-1.6-3.2-0.4c-1,1.2-2.6,3.4-0.6,7.4c2,4.1,9.4,0.7,10.1-1.2"/>
<g>
	<g id="XMLID_44441_">
		<path id="XMLID_44443_" class="st1" d="M258.3,188.6c-10.9-7.9-19.3,2.1-19.3,2.1s-6.9,15.9,6.3,20.2
			C258.5,215.1,269.1,196.6,258.3,188.6z M252.6,199.8c-2.7,7.2-11.2-4.1-5.2-4.9C247.4,194.9,255.4,192.6,252.6,199.8z"/>
		<path id="XMLID_44442_" class="st1" d="M254,187.6c0,0,8.4-9.1,8.7,7.9c0.2,17,3.1,32.5-13.2,32.4c0,0-8.9-4.1,0-8.5
			c4.3-2.1,5.2-6.6,5.1-12.1"/>
	</g>
	<g id="XMLID_44428_">
		<path id="XMLID_44440_" class="st8" d="M248.7,193"/>
		<path id="XMLID_44439_" class="st8" d="M255.5,191.4c-10.9-7.9-19.4,2.1-19.4,2.1s-6.9,15.9,6.3,20.2
			C255.8,217.8,266.4,199.4,255.5,191.4z M249.9,202.5c-2.7,7.2-11.2-4.1-5.2-4.9C244.7,197.6,252.6,195.3,249.9,202.5z"/>
		<path id="XMLID_44438_" class="st8" d="M251.3,190.4"/>
		<path id="XMLID_44437_" class="st8" d="M251.3,190.4c0,0,8.4-9.1,8.7,7.9c0.2,17,3.1,32.5-13.2,32.4c0,0-8.9-4.1,0-8.5
			c4.3-2.1,5.2-6.6,5.1-12.1"/>
		<line id="XMLID_44436_" class="st3" x1="245.9" y1="228.5" x2="247" y2="229"/>
		<path id="XMLID_44435_" class="st8" d="M254.7,226.8c0,0,0.4,0.8-0.2,1.2"/>
		<path id="XMLID_44434_" class="st8" d="M259.1,218.3c0,0-0.2,0.8-0.4,1"/>
		<path id="XMLID_44433_" class="st8" d="M258.2,207.4c0,0,0.3-1.4,0-1.4"/>
		<path id="XMLID_44432_" class="st8" d="M239.6,211.1c0,0,1.3,0.2,1.2,0.4"/>
		<path id="XMLID_44431_" class="st8" d="M255.5,197c0,0,1.5-0.2,1.6-0.5"/>
		<path id="XMLID_44430_" class="st8" d="M239.7,192.9c0,0-1,0.5-1.3,1"/>
		<line id="XMLID_44429_" class="st3" x1="250.6" y1="204.6" x2="249.7" y2="205.2"/>
	</g>
	<path class="st0" d="M260,201.1c0.1-0.8,0.1-1.6,0-2.4c0-0.1,0-0.3,0-0.4c-0.2-13.4-5.5-10.6-7.7-8.8c-9.2-4.1-16.1,4-16.1,4
		s-0.1,0.2-0.2,0.5c2.8-2,7.7-4.3,13.5-1.7c2.2-1.8,7.5-4.5,7.7,8.8c0,0.1,0,0.3,0,0.4c0.1,0.8,0.1,1.6,0,2.3
		c0.3,10.2,1.1,19.6-2.4,24.9C261.4,224.4,260.3,213.4,260,201.1z"/>
	<path id="XMLID_44427_" class="st2" d="M260.2,187.5c0,0-1,0.5-1.3,0.9"/>
	<path id="XMLID_44426_" class="st2" d="M248.7,186.5c0,0-1,0.5-1.3,1"/>
	<path id="XMLID_44425_" class="st2" d="M247.2,202.5c0,0-1,0.5-1.3,1"/>
	<path id="XMLID_44424_" class="st2" d="M262,209.5c-0.3,0.2-0.7,0.4-0.9,0.7"/>
	<path id="XMLID_44423_" class="st2" d="M261.7,215.2c0,0-0.2,0.1-0.4,0.2"/>
</g>
<g>
	<g>
		<path id="XMLID_44422_" class="st1" d="M281.8,192.9L281.8,192.9c-1.4-3.8-4.6-6.8-9.4-7.2c-9.5-0.9-13.4,5.2-14.9,9
			c0,0-0.3,0.5-0.6,1.6c-0.2,0.7-0.2,1.2-0.2,1.4c-0.1,2.1,0.2,5.1,2.1,9.2c1.6,3.3,5.5,4.5,8.2,4.9c0.8,0.1,1.6,0.2,2.4,0.2
			c0,0,0.1,0,0.1,0l0,0c0.9,0,1.9-0.1,3-0.4c4.2-0.9,7-3.6,8.6-6.9c-0.3-3.8-3.5-4.2-5.5-4.5c-1.1-0.2-2.1,0.5-3,1.2
			c-0.1,0.1-0.2,0.2-0.2,0.2c-2.8,2.1-10.2-2-6.3-5.1c0,0,1.3-1.4,2.9-2l0,0c0,0,1.3-0.7,2.3-0.3c0.4,0.2,0.8,0.4,1,1
			c0,0,0,0.1,0.1,0.1c0.1,0.2,0.3,0.5,0.4,0.8c1.3,2.1,4.1,4.8,6.8,2.9c3.1-2.2,2.7-3,2.8-3.9l0,0
			C282.6,194.2,281.8,192.9,281.8,192.9z"/>
	</g>
	<g>
		<path id="XMLID_44421_" class="st7" d="M279.1,195.6L279.1,195.6c-1.4-3.8-4.6-6.8-9.4-7.2c-9.5-0.9-13.4,5.2-14.9,9
			c0,0-0.3,0.5-0.6,1.6c-0.2,0.7-0.2,1.2-0.2,1.4c-0.1,2.1,0.2,5.1,2.2,9.2c1.6,3.3,5.5,4.5,8.2,4.9c0.8,0.1,1.6,0.2,2.4,0.2
			c0,0,0.1,0,0.1,0l0,0c0.9,0,1.9-0.1,3-0.4c4.2-0.9,7-3.6,8.6-6.9c-0.3-3.8-3.5-4.2-5.5-4.5c-1.1-0.2-2.1,0.5-3,1.2
			c-0.1,0.1-0.2,0.2-0.2,0.2c-2.8,2.1-10.2-2-6.3-5.1c0,0,1.3-1.4,2.9-2l0,0c0,0,1.3-0.7,2.3-0.3c0.4,0.2,0.8,0.4,1,1
			c0,0,0,0.1,0.1,0.1c0.1,0.2,0.3,0.5,0.4,0.8c1.3,2.1,4.1,4.8,6.8,2.9c3.1-2.2,2.7-3,2.8-3.9l0,0
			C279.9,197,279.1,195.6,279.1,195.6z"/>
		<line id="XMLID_44420_" class="st3" x1="257.8" y1="209.3" x2="258.4" y2="210.2"/>
		<path id="XMLID_44418_" class="st7" d="M275.9,208.3c0,0,0.4,0.8-0.2,1.2"/>
		<path id="XMLID_44417_" class="st7" d="M279,197.8c0,0-0.2,0.8-0.4,1"/>
		<path id="XMLID_44416_" class="st7" d="M261.7,199.1c0,0,0.3-1.4,0-1.4"/>
		<path id="XMLID_44415_" class="st7" d="M268.8,194.9c0,0,1.3,0.2,1.2,0.4"/>
		<path id="XMLID_44414_" class="st7" d="M267.4,213.3c0,0,1.5-0.2,1.6-0.5"/>
		<path id="XMLID_44413_" class="st7" d="M259.5,193c0,0-1,0.5-1.3,0.9"/>
		<line id="XMLID_44412_" class="st3" x1="274.6" y1="201.3" x2="275.6" y2="201"/>
	</g>
	<path class="st0" d="M279.1,195.6L279.1,195.6c-1.4-3.8-4.6-6.8-9.4-7.2c-6.6-0.7-10.5,2.1-12.8,5.2c2.3-1.7,5.6-2.9,10-2.4
		c4.8,0.5,7.9,3.4,9.3,7.2l0,0c0,0,0.8,1.4,0.6,2.2l0,0c-0.1,0.4,0,0.8-0.2,1.2c0,0,0.1,0,0.1-0.1c3.1-2.2,2.7-3,2.8-3.9l0,0
		C279.9,197,279.1,195.6,279.1,195.6z"/>
	<path id="XMLID_44411_" class="st2" d="M281.4,194.2c0,0-1,0.5-1.3,0.9"/>
	<path id="XMLID_44410_" class="st2" d="M273.2,186.7c0,0-1,0.5-1.3,1"/>
	<path id="XMLID_44409_" class="st2" d="M266.4,202c0,0-1,0.5-1.3,0.9"/>
	<path id="XMLID_44408_" class="st2" d="M280.2,204.7c0,0-1,0.5-1.3,0.9"/>
</g>
<g>
	<g>
		<path id="XMLID_44407_" class="st1" d="M287.6,182.1c0,0-1.3-7.2-7.4-4.7c-6.1,2.5-3.1,30.1-0.2,32.2
			C282.8,211.9,290.7,224.9,287.6,182.1z"/>
	</g>
	<g>
		<path id="XMLID_44406_" class="st9" d="M284.8,184.9c0,0-1.3-7.2-7.4-4.7c-6.1,2.5-3.1,30.1-0.2,32.2
			C280,214.6,287.9,227.7,284.8,184.9z"/>
		<path id="XMLID_44405_" class="st9" d="M282.4,211.7c0,0,0.4,0.8-0.2,1.2"/>
		<path id="XMLID_43774_" class="st9" d="M284.3,198.6c0,0,0.1,0.8,0,1.1"/>
		<path id="XMLID_43773_" class="st9" d="M276.5,203.8c0,0,0.3-1.4,0-1.4"/>
		<path id="XMLID_43772_" class="st9" d="M278.2,181.7c0,0-1,0.5-1.3,1"/>
	</g>
	<path class="st0" d="M284.8,184.9c0,0-1.3-7.2-7.4-4.7c-0.9,0.4-1.6,1.2-2.1,2.5c5.5-1.8,6.7,4.9,6.7,4.9
		c1.2,16.4,0.8,24.6-0.4,28.3C284.4,216.5,286.8,211.5,284.8,184.9z"/>
	<path id="XMLID_43771_" class="st2" d="M286.3,202.9c0.3,0,0.7,0,0.9-0.1"/>
	<path id="XMLID_43770_" class="st2" d="M286,208.6c0,0,0.3,0,0.7,0"/>
	<path id="XMLID_43769_" class="st2" d="M286.2,181.1c0,0-1.1,0.2-1.5,0.6"/>
</g>
<path id="XMLID_43768_" class="st5" d="M263.8,224.1c-0.1,0.2-0.3,0.3-0.9,0.5c-0.6,0.1-0.8-0.8-0.8-0.9c0-0.1,0.1-0.9,1-0.8
	C264,223.1,263.8,224.1,263.8,224.1z"/>
<g>
	<g id="XMLID_43762_">
		<path id="XMLID_43767_" class="st1" d="M217.1,184.1c0,0-1.3-6.2-7.4-4c-6.1,2.2-3.1,25.8-0.2,27.6
			C212.3,209.6,220.2,220.8,217.1,184.1z"/>
		<path id="XMLID_43766_" class="st1" d="M215.7,195.5c0,0,10.7-10.6,8.6,9.1c0,0,2.6,6.1,7.5,3.6c5-2.6,5.7-33.9-18.2-25.1"/>
		<path id="XMLID_43765_" class="st2" d="M227.1,183.8c0,0-1,0.5-1.3,0.9"/>
		<path id="XMLID_43764_" class="st2" d="M231.2,187.5c0,0-1,0.5-1.3,0.9"/>
		<path id="XMLID_43763_" class="st2" d="M212.6,180.8c0,0-0.6,0.3-1,0.6"/>
	</g>
	<g id="XMLID_43751_">
		<path id="XMLID_43761_" class="st10" d="M214.4,186.9c0,0-1.3-6.2-7.4-4c-6.1,2.2-3.1,25.8-0.2,27.6
			C209.6,212.3,217.5,223.5,214.4,186.9z"/>
		<path id="XMLID_43760_" class="st10" d="M213,198.2c0,0,10.7-10.6,8.6,9.1c0,0,2.6,6.1,7.5,3.6c5-2.6,5.7-33.9-18.2-25.1"/>
		<line id="XMLID_43759_" class="st3" x1="209.9" y1="211.1" x2="210.9" y2="211.5"/>
		<path id="XMLID_43758_" class="st10" d="M228.2,208.4c0,0,0.4,0.8-0.2,1.2"/>
		<path id="XMLID_43757_" class="st10" d="M230.6,198.3c0,0-0.2,0.8-0.4,1"/>
		<path id="XMLID_43756_" class="st10" d="M213.6,204.6c0,0,0.3-1.4,0-1.4"/>
		<path id="XMLID_43755_" class="st10" d="M221.1,195c0,0,1.3,0.2,1.2,0.4"/>
		<path id="XMLID_43754_" class="st10" d="M208.4,201.6c0,0,1.5-0.2,1.6-0.5"/>
		<path id="XMLID_43753_" class="st10" d="M216.1,187c0,0-1,0.5-1.3,1"/>
		<line id="XMLID_43752_" class="st3" x1="206.9" y1="188.7" x2="208" y2="188.4"/>
		<path class="st0" d="M213.5,184.8c-0.9-1.6-2.8-3.5-6.6-2.1c-1,0.4-1.8,1.3-2.3,2.6c3.5-1.1,5.3,0.7,6.2,2.3
			c18.2-4.7,20,16.2,17.2,23.6c0.3-0.1,0.7-0.2,1.1-0.4C233.7,208.3,234.5,179.4,213.5,184.8z"/>
	</g>
	<path id="XMLID_43750_" class="st2" d="M233.3,203.9c-0.2,0.2-0.5,0.4-0.6,0.6"/>
	<path id="XMLID_43749_" class="st2" d="M216.4,205.6c0,0-0.3,0.2-0.7,0.4"/>
</g>
<g>
	<g>
		<g id="XMLID_43747_">
			<path id="XMLID_43748_" class="st1" d="M238.8,194.7c0,0,1.7-9.1-5.9-6.5c-7.6,2.5-3,22.4,1.1,21.6
				C238,208.9,239.9,205.7,238.8,194.7z"/>
		</g>
	</g>
	<g>
		<g id="XMLID_43745_">
			<path id="XMLID_43746_" class="st11" d="M236.1,197.4c0,0,1.7-9.1-5.9-6.5c-7.7,2.6-3,22.4,1.1,21.6
				C235.3,211.7,237.1,208.5,236.1,197.4z"/>
		</g>
		<line id="XMLID_43744_" class="st3" x1="229.6" y1="210" x2="230.6" y2="210.5"/>
		<path id="XMLID_43743_" class="st11" d="M234.7,206.9c0,0,0.4,0.8-0.2,1.2"/>
		<path id="XMLID_43742_" class="st11" d="M228.5,195.1c0,0-0.2,0.8-0.4,1"/>
		<path id="XMLID_43740_" class="st11" d="M234.9,195.6c0,0,0.3-1.4,0-1.4"/>
		<path id="XMLID_43739_" class="st11" d="M231.4,191.6c0,0,1.3,0.2,1.2,0.4"/>
	</g>
	<g>
		<path id="XMLID_43738_" class="st1" d="M233.1,177.4c0,0,8.6,4.9,0.1,8.6C224.8,189.6,227.4,172.8,233.1,177.4z"/>
		<path id="XMLID_43737_" class="st2" d="M235.4,180.8c0,0-1,0.5-1.3,0.9"/>
	</g>
	<g>
		<path id="XMLID_43736_" class="st12" d="M231.9,178.6c0,0,8.6,4.9,0.1,8.6C223.6,190.9,226.1,174.1,231.9,178.6z"/>
		<path id="XMLID_43735_" class="st12" d="M230.4,186.7c0,0,1.5-0.2,1.6-0.5"/>
		<path id="XMLID_43734_" class="st12" d="M229.6,179.2c0,0-1,0.5-1.3,1"/>
	</g>
	<path id="XMLID_43482_" class="st2" d="M235.6,189.2c-0.3,0.2-0.8,0.5-0.9,0.8"/>
	<path id="XMLID_42896_" class="st2" d="M237.7,205.5c0,0-0.2,0.1-0.5,0.3"/>
	<path class="st0" d="M236.1,197.4c0,0,1.7-9.1-5.9-6.5c-1.4,0.5-2.3,1.5-3,2.9c0.1,0,0.2-0.1,0.3-0.1c7.7-2.6,5.9,6.5,5.9,6.5
		c0.6,6,0.3,9.7-0.8,11.9C235.7,210.8,237,207.2,236.1,197.4z"/>
	<path class="st0" d="M230.6,179.9c0,0,5.4,3.1,3.4,6.2c4.8-3.4-2.2-7.5-2.2-7.5c-1.8-1.4-3.3-0.7-4.2,0.8
		C228.5,178.9,229.5,179,230.6,179.9z"/>
</g>
<g>
	<g id="XMLID_29350_">
		<g id="XMLID_29352_">
			<path id="XMLID_29356_" class="st7" d="M189.6,130.6"/>
			<path id="XMLID_29354_" class="st7" d="M198.8,128.5c-14.7-10.8-26.1,2.7-26.1,2.7s-9.4,21.5,8.5,27.2
				C199.1,164.2,213.4,139.3,198.8,128.5z"/>
			<path id="XMLID_29353_" class="st7" d="M193,127.1"/>
		</g>
		<path id="XMLID_29351_" class="st7" d="M192.4,153.8c0,0,1.3,8.7,9.1,4.1s-0.4-12.2-0.4-12.2"/>
	</g>
	<g>
		<path id="XMLID_29347_" class="st2" d="M190.1,138.3c-1.4-1-2.7-1-3.6-0.7c-0.1-0.1-0.2-0.2-0.3-0.2c-1.8-0.9-2.1,2-2.1,3.9
			c0,0.1,0,0.2,0,0.4c0,0.6,0.1,1,0.1,1s0.9,6.1,2.1,5.6c0.5-0.2,0.9-1.7,1.2-3.5C190.7,144.9,192.9,140.4,190.1,138.3z
			 M188.7,141.6c-0.3,0.7-0.6,0.9-1,0.8c-1.1-0.2-2.2-2.3-0.7-2.5c0,0,0.2-0.1,0.5-0.1C188.3,139.7,189.4,139.8,188.7,141.6z"/>
		<g id="XMLID_29339_">
			<g id="XMLID_29341_">
				<path id="XMLID_29346_" class="st2" d="M179.1,138.6"/>
				<path id="XMLID_29343_" class="st2" d="M181.1,138.2c-3.1-2.3-5.6,0.6-5.6,0.6s-2,4.6,1.8,5.8S184.2,140.5,181.1,138.2z
					 M179.7,140.5c1.1,2.4-3.7,1.7-2.5,0.1C177.2,140.6,178.6,138.1,179.7,140.5z"/>
				<path id="XMLID_29342_" class="st2" d="M179.9,137.9"/>
			</g>
			<path id="XMLID_29340_" class="st2" d="M179.7,143.6c0,0,0.3,1.9,1.9,0.9s-0.1-2.6-0.1-2.6"/>
		</g>
		<path id="XMLID_22_" class="st2" d="M198.9,138.3c-1.4-1-2.7-1-3.6-0.7c-0.1-0.1-0.2-0.2-0.3-0.2c-1.8-0.9-2.1,2-2.1,3.9
			c0,0.1,0,0.2,0,0.4c0,0.6,0.1,1,0.1,1s0.9,6.1,2.1,5.6c0.5-0.2,0.9-1.7,1.2-3.5C199.4,144.9,201.6,140.4,198.9,138.3z
			 M197.4,141.6c-0.3,0.7-0.6,0.9-1,0.8c-1.1-0.2-2.2-2.3-0.7-2.5c0,0,0.2-0.1,0.5-0.1C197,139.7,198.1,139.8,197.4,141.6z"/>
	</g>
	<line id="XMLID_29361_" class="st3" x1="181" y1="156.1" x2="182" y2="156.6"/>
	<path id="XMLID_29360_" class="st4" d="M202.1,154c0,0-0.2,0.9-0.9,0.8"/>
	<path id="XMLID_29357_" class="st4" d="M176.2,131.2c0,0-1,0.5-1.3,0.9"/>
</g>
<g>
	<g>
		<g>
			<path class="st5" d="M191.7,189.8c-0.1-1.4-0.3-2.7-1.7-2.7c-0.3,0-1.6,0-1.9,0c-0.9-0.1-2.5,0.5-5,2c-6,3.6,0.7,6.7,0.7,6.7
				c1.3,1.1,2.5,1.4,3.5,1.3c0.2,0,1.3,0,1.7,0c2.1,0,3.1-2.2,1.2-3.8C187.4,191.2,191.8,192.2,191.7,189.8z"/>
			<g id="XMLID_785_">
				<path id="XMLID_786_" class="st9" d="M183.8,195.8c0,0-6.7-3.1-0.7-6.7c6-3.6,6.4-1.7,6.6,0.7c0.1,2.4-4.3,1.4-1.6,3.6
					C190.8,195.5,187.9,199.1,183.8,195.8z"/>
			</g>
		</g>
		<line id="XMLID_784_" class="st9" x1="185.6" y1="196" x2="186.3" y2="196.3"/>
		<path id="XMLID_783_" class="st9" d="M189.5,196.2c0,0,0.9-0.1,1-0.3"/>
		<path id="XMLID_782_" class="st9" d="M188,192.3c0,0,0.5,0,0.6-0.1"/>
	</g>
	<g>
		<path id="XMLID_781_" class="st9" d="M133.8,179.2c0,0-0.1,0.2,0.2,0.2c10.6,0.2,27.5,0,27.5,0c0.3,0,0.2-0.2,0.2-0.2
			c0.4-6,0-17.2,0-17.2s0.1-0.2-0.2-0.2c-16.5-0.5-27.7,0-27.7,0c-0.3,0-0.2,0.2-0.2,0.2S133.6,171.5,133.8,179.2z"/>
		<path id="XMLID_780_" class="st9" d="M136.9,165.3c0,0-0.1-0.5,0.3-0.5c0,0,7-0.6,15.5,0c0.4,0,0.3,0.5,0.3,0.5s0.1,6.3-0.1,10.7
			c0,0,0.1,0.5-0.3,0.5c0,0-6.6,0.4-15.3,0c-0.4,0-0.3-0.5-0.3-0.5L136.9,165.3z"/>
		<g>
			<path class="st9" d="M140.1,155.6c1.7,1.8,3.8,3.8,5.7,5.7c0.1-0.1,0.1-0.1,0.2-0.2C139.1,154.3,140.1,155.6,140.1,155.6z"/>
			<path class="st9" d="M151.7,155.3c-1.8,1.7-3.8,3.8-5.7,5.7c0.1,0.1,0.1,0.1,0.2,0.2C152.9,154.4,151.7,155.3,151.7,155.3z"/>
			<path class="st9" d="M146,161c-0.1,0.1-0.1,0.1-0.2,0.2c0.1,0.1,0.1,0.1,0.2,0.2c0.1-0.1,0.1-0.1,0.2-0.2
				C146.1,161.2,146.1,161.1,146,161z"/>
		</g>
	</g>
	<g>
		<g>
			<path class="st9" d="M120.8,200.4c0,0-0.3-0.6-1-0.6c0,0-27.2,0-28,0c-0.7-0.1-1,0.6-1,0.6s0,15.4,0.3,16c0,0,0.3,0.6,1,0.6
				c0,0,4.1,0,9.2,0.1c0,0,0-0.1,0.1-0.1c0.1-0.1,4.4-4.4,4.4-4.4c0.1-0.1,0.3,0,0.3,0c0.5,0.5,4.3,4.4,4.3,4.4s0,0.1,0,0.1
				c4.5,0,8.3,0,9.1-0.1c0.7-0.1,1-0.6,1-0.6S121,202.2,120.8,200.4z"/>
			<path class="st9" d="M106,212.5c0,0-0.2-0.1-0.3,0c0,0-4.2,4.3-4.4,4.4c0,0-0.1,0.1-0.1,0.1c2.9,0,6.2,0,9.1,0c0-0.1,0-0.1,0-0.1
				S106.5,213,106,212.5z"/>
		</g>
		<g>
			<path class="st9" d="M102.9,208.4c0-0.1,0-0.1,0-0.2c0-0.3,0-0.5-0.1-0.8c-0.1-0.3-0.2-0.6-0.3-0.9c0,0,0,0-0.1-0.1
				c-0.2-0.5-0.4-0.9-0.8-1.2c-0.3-0.4-0.7-0.6-1.2-0.8c-0.2-0.1-0.5-0.3-0.7-0.4c0,0-0.2,0-0.5,0c-0.3-0.1-0.6-0.1-0.9-0.1
				c-0.1,0-0.1,0-0.2,0c-0.3,0-0.5,0-0.8,0.1c-0.3,0.1-0.6,0.2-0.9,0.3c0,0,0,0-0.1,0.1c-0.5,0.2-0.9,0.4-1.2,0.8
				c-0.4,0.3-0.6,0.7-0.8,1.2c-0.1,0.2-0.3,0.5-0.4,0.7c0,0,0,0.2,0,0.5c-0.1,0.3-0.1,0.6-0.1,0.9c0,0.1,0,0.1,0,0.2
				c0,0.3,0,0.5,0.1,0.8c0.1,0.3,0.2,0.6,0.3,0.9c0,0,0,0,0.1,0.1c0.2,0.5,0.4,0.9,0.8,1.2c0.3,0.4,0.7,0.6,1.2,0.8
				c0.2,0.1,0.5,0.3,0.7,0.4c0,0,0.2,0,0.5,0c0.3,0.1,0.6,0.1,0.9,0.1c0.1,0,0.1,0,0.2,0c0.3,0,0.5,0,0.8-0.1
				c0.3-0.1,0.6-0.2,0.9-0.3c0,0,0,0,0.1-0.1c0.5-0.2,0.9-0.4,1.2-0.8c0.4-0.3,0.6-0.7,0.8-1.2c0.1-0.2,0.3-0.5,0.4-0.7
				c0,0,0-0.2,0-0.5C102.9,209,102.9,208.7,102.9,208.4z"/>
			<path class="st9" d="M117.9,208.4c0-0.1,0-0.1,0-0.2c0-0.3,0-0.5-0.1-0.8c-0.1-0.3-0.2-0.6-0.3-0.9c0,0,0,0-0.1-0.1
				c-0.2-0.5-0.4-0.9-0.8-1.2c-0.3-0.4-0.7-0.6-1.2-0.8c-0.2-0.1-0.5-0.3-0.7-0.4c0,0-0.2,0-0.5,0c-0.3-0.1-0.6-0.1-0.9-0.1
				c-0.1,0-0.1,0-0.2,0c-0.3,0-0.5,0-0.8,0.1c-0.3,0.1-0.6,0.2-0.9,0.3c0,0,0,0-0.1,0.1c-0.5,0.2-0.9,0.4-1.2,0.8
				c-0.4,0.3-0.6,0.7-0.8,1.2c-0.1,0.2-0.3,0.5-0.4,0.7c0,0,0,0.2,0,0.5c-0.1,0.3-0.1,0.6-0.1,0.9c0,0.1,0,0.1,0,0.2
				c0,0.3,0,0.5,0.1,0.8c0.1,0.3,0.2,0.6,0.3,0.9c0,0,0,0,0.1,0.1c0.2,0.5,0.4,0.9,0.8,1.2c0.3,0.4,0.7,0.6,1.2,0.8
				c0.2,0.1,0.5,0.3,0.7,0.4c0,0,0.2,0,0.5,0c0.3,0.1,0.6,0.1,0.9,0.1c0.1,0,0.1,0,0.2,0c0.3,0,0.5,0,0.8-0.1
				c0.3-0.1,0.6-0.2,0.9-0.3c0,0,0,0,0.1-0.1c0.5-0.2,0.9-0.4,1.2-0.8c0.4-0.3,0.6-0.7,0.8-1.2c0.1-0.2,0.3-0.5,0.4-0.7
				c0,0,0-0.2,0-0.5C117.9,209,117.9,208.7,117.9,208.4z"/>
		</g>
	</g>
	<path id="XMLID_779_" class="st9" d="M96.6,154.2c0,0-0.2-0.1-0.2,0.2c-0.2,11.2,0,29.1,0,29.1c0,0.3,0.2,0.2,0.2,0.2
		c6.4,0.5,18.2,0,18.2,0s0.2,0.1,0.2-0.2c0.5-17.5,0-29.3,0-29.3c0-0.3-0.2-0.2-0.2-0.2S104.9,154,96.6,154.2z"/>
	<g>
		<path class="st9" d="M154.9,221.1c-0.7-4-1.8-5.7-3.2-6.5c0,0-8.3-3.1-10.5,4.7c-0.2,0.6-0.3,1.2-0.4,1.8H154.9z"/>
		<path class="st9" d="M160.8,196.3c0,0,0.1-0.3-0.2-0.3c-15.4-0.6-25.8,0-25.8,0c-0.3,0-0.2,0.3-0.2,0.3s0,8.7,0.1,17.9H161
			L160.8,196.3z"/>
		<path class="st9" d="M134.9,218.5c9.9,0.2,25.7,0,25.7,0c0.3,0,0.2-0.2,0.2-0.2c0.1-0.8,0.1-1.7,0.1-2.7V214h-26.3
			c0,1.4,0.1,2.9,0.1,4.3C134.7,218.3,134.6,218.4,134.9,218.5z"/>
		<path class="st9" d="M157.5,199.2c0,0,0.1-0.2-0.2-0.2c-11.3-0.4-18.9,0-18.9,0c-0.2,0-0.2,0.2-0.2,0.2s0,5.7,0.1,11.7h19.3
			L157.5,199.2z"/>
	</g>
	<g>
		<path class="st9" d="M128.1,193.4c0,0,0.1-2.8-0.1-5c0.3-5,0.2-22.2,0.1-31c0,0,0.4-9.8-1.4-7c-0.7,1.1-0.9,4.9-0.9,9.2
			c0,4.3-0.1,17.9,0.1,26.7c0,0-0.1,2.8,0.1,5c-0.3,5-0.2,22.2-0.1,31c0,0-0.4,9.8,1.4,7c0.6-0.9,0.9-4,0.9-7.7
			C128.2,216.9,128.2,202.2,128.1,193.4z"/>
		<path class="st9" d="M130.5,188.7c0,0-2.8-0.1-5,0.1c-5-0.3-22.2-0.2-31-0.1c0,0-9.8-0.4-7,1.4c1.1,0.7,4.9,0.9,9.2,0.9
			c4.3,0,17.9,0.1,26.7-0.1c0,0,2.8,0.1,5-0.1c5,0.3,22.2,0.2,31,0.1c0,0,9.8,0.4,7-1.4c-0.9-0.6-4-0.9-7.7-0.9
			C154.1,188.5,139.3,188.5,130.5,188.7z"/>
	</g>
	<g>
		<path class="st9" d="M88.1,193.4c0,0,0.1-2.8-0.1-5c0.3-5,0.2-22.2,0.1-31c0,0,0.4-9.8-1.4-7c-0.7,1.1-0.9,4.9-0.9,9.2
			c0,4.3-0.1,17.9,0.1,26.7c0,0-0.1,2.8,0.1,5c-0.3,5-0.2,22.2-0.1,31c0,0-0.4,9.8,1.4,7c0.6-0.9,0.9-4,0.9-7.7
			C88.2,216.9,88.2,202.2,88.1,193.4z"/>
		<path class="st9" d="M90.5,188.7c0,0-2.8-0.1-5,0.1c-5-0.3-22.2-0.2-31-0.1c0,0-9.8-0.4-7,1.4c1.1,0.7,4.9,0.9,9.2,0.9
			c4.3,0,17.9,0.1,26.7-0.1c0,0,2.8,0.1,5-0.1c5,0.3,22.2,0.2,31,0.1c0,0,9.8,0.4,7-1.4c-0.9-0.6-4-0.9-7.7-0.9
			C114.1,188.5,99.3,188.5,90.5,188.7z"/>
	</g>
	<g>
		<path id="XMLID_792_" class="st9" d="M70.7,153c0,0,0.4-0.1,0.4,0.6c0,0,0.4,12.9,0,28.8c0,0.7-0.4,0.6-0.4,0.6s-4.8,0.1-8.2-0.3
			c0,0-0.4,0.1-0.4-0.6c0,0-0.3-12.3,0-28.2c0-0.7,0.4-0.6,0.4-0.6L70.7,153z"/>
		<path id="XMLID_787_" class="st9" d="M71.6,159.2c0,0-10.9-4-13.9,6.2c-3,10.3,6.2,12.3,7.4,12.3c1.2-0.1,11.9-1,11-7.8
			C75.3,163.1,73.7,160.4,71.6,159.2z"/>
		<path id="XMLID_790_" class="st9" d="M61.9,162.5c0,0-5.7,6.4,0.6,11.2c6.2,4.8,10.1-0.9,10.4-1.8s2.5-8.4-2.4-9.6
			C65.6,161,63.3,161.4,61.9,162.5z"/>
	</g>
	<path id="XMLID_20_" class="st9" d="M98.4,156.9c0,0-0.1-1.1,0.3-1.1c0,0,6.3-1.3,14,0c0.4,0.1,0.3,1.1,0.3,1.1s0.1,13.9-0.1,23.6
		c0,0,0.1,1.1-0.3,1.1c0,0-6,0.9-13.8,0c-0.4,0-0.3-1.1-0.3-1.1L98.4,156.9z"/>
	<path class="st13" d="M99.5,154.6c0.8,2.8,3,2.5,3,2.5s4.5,0,6,0c1.5,0,2.3-2.3,2.3-2.3l0.2-0.4L99.5,154.6z"/>
</g>
<g>
	<path id="XMLID_794_" class="st9" d="M51,218.2c0,0-0.1,0.2,0.2,0.2c11.2,0.2,29.1,0,29.1,0c0.3,0,0.2-0.2,0.2-0.2
		c0.5-6.4,0-18.2,0-18.2s0.1-0.2-0.2-0.2c-17.5-0.5-29.3,0-29.3,0c-0.3,0-0.2,0.2-0.2,0.2S50.8,209.9,51,218.2z"/>
	<path id="XMLID_793_" class="st9" d="M53,202.2c0,0-0.1-0.6,0.4-0.6c0,0,9.5-0.7,21.1,0c0.5,0,0.4,0.6,0.4,0.6s0.1,8-0.2,13.6
		c0,0,0.1,0.6-0.4,0.6c0,0-9,0.5-20.7,0c-0.5,0-0.4-0.6-0.4-0.6L53,202.2z"/>
	<path id="XMLID_791_" class="st9" d="M77.1,208.5c0,0-0.5,1.2,0.7,1.6s1.4-0.7,1.4-0.9s-0.1-1.4-0.9-1.3
		C77.5,208.1,77.2,208.3,77.1,208.5z"/>
</g>
</svg>
