<?xml version="1.0" encoding="utf-8"?>
<!-- Generator: Adobe Illustrator 22.1.0, SVG Export Plug-In . SVG Version: 6.00 Build 0)  -->
<svg version="1.1" id="Layer_1" xmlns="http://www.w3.org/2000/svg" xmlns:xlink="http://www.w3.org/1999/xlink" x="0px" y="0px"
	 viewBox="0 0 513 385" style="enable-background:new 0 0 513 385;" xml:space="preserve">
<style type="text/css">
	.st0{fill:#FFFAF2;stroke:#584C4F;stroke-miterlimit:10;}
	.st1{fill:#FFD767;stroke:#584C4F;stroke-miterlimit:10;}
	.st2{fill:#A36B78;stroke:#584C4F;stroke-linecap:round;stroke-miterlimit:10;}
	.st3{fill:#A36B78;}
	.st4{fill:#A36B78;stroke:#584C4F;stroke-linecap:round;stroke-linejoin:round;stroke-miterlimit:10;}
	.st5{fill:#584C4F;stroke:#584C4F;stroke-linecap:round;stroke-miterlimit:10;}
</style>
<g id="Layer_5">
</g>
<g id="Layer_3">
</g>
<g>
	<polygon class="st0" points="23.3,174.5 12.2,174 17.1,165.7 	"/>
	<g>
		<path class="st1" d="M21.7,218.4c-0.2,6.2-1.2,11.9-4.7,11.9c-5.3,0-8.2-0.7-8.8-5.6c0,0.5-0.1,0.9-0.1,1.4
			c-0.5,8.6,2.4,9.6,8.9,9.6C21.4,235.7,21.9,226.3,21.7,218.4z"/>
		<path class="st1" d="M21.8,218.2c0-1.7-0.1-3.3-0.2-4.7c1.2-3.5,1.3-8.9,1.2-13.8c0-0.2,0-0.5,0-0.7c1.4-3.4,1.5-9.3,1.4-14.5
			c-0.1-3.5-0.3-6.8-0.4-8.7c-0.3-6.1-11.6-1.9-11.6-1.9s-1.1,8.4-1.6,16.6c-0.3,2.8-1,9.3-1.4,15.6c0,0.5-0.1,0.9-0.1,1.4
			c-0.1,2,0,3.6,0.2,4.8c-0.4,3.3-0.8,7.9-1.1,12.4c0.6,5,3.5,5.6,8.8,5.6C20.4,230.3,21.5,224.6,21.8,218.2z"/>
	</g>
	<g>
		<path id="XMLID_810_" class="st2" d="M187.8,384c-27.4-24.7-61-54.4-69.4-66C103.7,297.8,18,217.6,18,217.6l12.3-14.5
			c0,0,44.4,49.6,78,79.9c15.4,13.9,42.2,38.8,67.4,62"/>
		<g id="XMLID_798_">
			<path id="XMLID_809_" class="st3" d="M28.6,228.1L43,216.2c0,0-12.9-39.9-18.2-33.6c-2.8,3.3-3,5.2-2.6,6.3
				c-2.3-2.4-6.9-6.3-8.6,0.3l1.1,1c-2.5-0.2-10.5-0.4-7.8,6.5L6.5,198c-3.4,0.9-9.7,3.5-0.5,9.4c-1.1,1.1-2.4,3-3.9,6
				C-5.4,228.6,28.4,228.1,28.6,228.1z"/>
			<path id="XMLID_808_" class="st2" d="M43,216.2c0,0-12.9-39.9-18.2-33.6c-2.8,3.3-3,5.2-2.6,6.3c-2.3-2.4-6.9-6.3-8.6,0.3l1.1,1
				c-2.5-0.2-10.5-0.4-7.8,6.5L6.5,198c-3.4,0.9-9.7,3.5-0.5,9.4c-1.1,1.1-2.4,3-3.9,6c-7.5,15.2,26.3,14.7,26.3,14.7"/>
			<g id="XMLID_803_">
				<path id="XMLID_807_" class="st4" d="M13.3,189.2c2.3-8.9,9.9,1.2,9.9,1.2c-0.1-0.4-3.9-1.5,1.4-7.8s18.2,33.6,18.2,33.6"/>
				<path id="XMLID_806_" class="st4" d="M7,197.1c-3.8-8.7,8.3-6.9,8.3-6.9"/>
				<path id="XMLID_805_" class="st4" d="M9.3,214.4c3.3-3.5,0.2-16.2-7.2-1c-7.5,15.2,26.3,14.7,26.3,14.7"/>
				<path id="XMLID_804_" class="st4" d="M13.7,212.4L7,208c-13.9-8.1,1.3-10.4,1.3-10.4"/>
			</g>
			<path id="XMLID_802_" class="st4" d="M41.9,219.9c7.4-8.5-8.6-8.6-8.6-8.6"/>
			<path id="XMLID_801_" class="st2" d="M13.2,201.9c1.5,2.3,5.7,4.9,5.7,4.9"/>
			<path id="XMLID_800_" class="st2" d="M17.5,193.4c-0.4,0.6,2.3,2.9,2.3,2.9"/>
			<path id="XMLID_799_" class="st4" d="M28.6,196.7c0,0,1.7,5.4,3,7.4"/>
		</g>
		<g id="XMLID_796_">
			<path id="XMLID_797_" class="st2" d="M110.7,287.4c8-6.3,13.5,7.4,4.7,8.3"/>
		</g>
		<path id="XMLID_795_" class="st2" d="M115.7,292.4c-0.2,1.5-2.2,1.4-2.2,1.4"/>
		<path id="XMLID_794_" class="st2" d="M111.1,289.1c0.2-0.5,2.6-0.9,2.6-0.9"/>
	</g>
	<polygon class="st5" points="17.1,165.7 18.4,167.5 17.4,167.2 17.1,167.6 16.5,167.4 15.6,168.2 	"/>
</g>
</svg>
