<?xml version="1.0" encoding="utf-8"?>
<!-- Generator: Adobe Illustrator 22.1.0, SVG Export Plug-In . SVG Version: 6.00 Build 0)  -->
<svg version="1.1" id="Layer_1" xmlns="http://www.w3.org/2000/svg" xmlns:xlink="http://www.w3.org/1999/xlink" x="0px" y="0px"
	 viewBox="0 0 513 385" style="enable-background:new 0 0 513 385;" xml:space="preserve">
<style type="text/css">
	.st0{fill:#FFFAF2;stroke:#584C4F;stroke-miterlimit:10;}
	.st1{fill:#FFD767;stroke:#584C4F;stroke-miterlimit:10;}
	.st2{fill:#584C4F;stroke:#584C4F;stroke-linecap:round;stroke-miterlimit:10;}
	.st3{fill:#A36B78;stroke:#584C4F;stroke-linecap:round;stroke-miterlimit:10;}
	.st4{fill:#A36B78;}
	.st5{fill:#A36B78;stroke:#584C4F;stroke-linecap:round;stroke-linejoin:round;stroke-miterlimit:10;}
</style>
<g>
	<polygon class="st0" points="3.1,40.2 10.6,48.4 1.3,50.8 	"/>
	<g>
		<path class="st1" d="M35.3,10.3c4.5-4.2,9.3-7.6,11.7-5.1c3.7,3.7,5.3,6.3,2.3,10.2c0.4-0.4,0.7-0.6,1.1-0.9
			c6.4-5.7,5.1-8.5,0.5-13.1C47.7-1.7,40.7,4.6,35.3,10.3z"/>
		<path class="st1" d="M35.1,10.4c-1.2,1.2-2.3,2.4-3.2,3.5c-3.3,1.6-7.2,5.4-10.6,8.9c-0.1,0.1-0.4,0.4-0.5,0.5
			c-3.4,1.4-7.6,5.5-11.2,9.3c-2.4,2.5-4.6,5-5.9,6.4c-4.1,4.5,6.9,9.5,6.9,9.5s6.7-5.2,12.9-10.6c2.2-1.8,7.3-5.9,12-10
			c0.4-0.4,0.7-0.6,1.1-0.9c1.5-1.3,2.5-2.5,3.3-3.5c2.6-2.1,6.2-5,9.5-8c3.1-4,1.5-6.4-2.3-10.2C44.6,2.8,39.8,6.1,35.1,10.4z"/>
	</g>
	<polygon class="st2" points="1.3,50.8 1.6,48.6 2.1,49.6 2.6,49.5 2.9,50 4.1,50.1 	"/>
</g>
<g id="Layer_5">
</g>
<g id="Layer_3">
</g>
<g>
	<path id="XMLID_810_" class="st3" d="M197.8,209.3c-27.4-24.7-61-54.4-69.4-66C113.7,123.1,28,42.9,28,42.9l12.3-14.5
		c0,0,44.4,49.6,78,79.9c15.4,13.9,42.2,38.8,67.4,62"/>
	<g id="XMLID_798_">
		<path id="XMLID_809_" class="st4" d="M38.6,53.4L53,41.5c0,0-12.9-39.9-18.2-33.6c-2.8,3.3-3,5.2-2.6,6.3
			c-2.3-2.4-6.9-6.3-8.6,0.3l1.1,1c-2.5-0.2-10.5-0.4-7.8,6.5l-0.4,1.3c-3.4,0.9-9.7,3.5-0.5,9.4c-1.1,1.1-2.4,3-3.9,6
			C4.6,53.9,38.4,53.4,38.6,53.4z"/>
		<path id="XMLID_808_" class="st3" d="M53,41.5c0,0-12.9-39.9-18.2-33.6c-2.8,3.3-3,5.2-2.6,6.3c-2.3-2.4-6.9-6.3-8.6,0.3l1.1,1
			c-2.5-0.2-10.5-0.4-7.8,6.5l-0.4,1.3c-3.4,0.9-9.7,3.5-0.5,9.4c-1.1,1.1-2.4,3-3.9,6C4.6,53.9,38.4,53.4,38.4,53.4"/>
		<g id="XMLID_803_">
			<path id="XMLID_805_" class="st5" d="M19.3,39.7c3.3-3.5,0.2-16.2-7.2-1C4.6,53.9,38.4,53.4,38.4,53.4"/>
			<path id="XMLID_807_" class="st5" d="M23.3,14.5c2.3-8.9,9.9,1.2,9.9,1.2c-0.1-0.4-3.9-1.5,1.4-7.8s18.2,33.6,18.2,33.6"/>
			<path id="XMLID_806_" class="st5" d="M17,22.4c-3.8-8.7,8.3-6.9,8.3-6.9"/>
			<path id="XMLID_804_" class="st5" d="M23.7,37.7L17,33.3c-13.9-8.1,1.3-10.4,1.3-10.4"/>
		</g>
		<path id="XMLID_802_" class="st5" d="M51.9,45.2c7.4-8.5-8.6-8.6-8.6-8.6"/>
		<path id="XMLID_801_" class="st3" d="M23.2,27.2c1.5,2.3,5.7,4.9,5.7,4.9"/>
		<path id="XMLID_800_" class="st3" d="M27.5,18.7c-0.4,0.6,2.3,2.9,2.3,2.9"/>
		<path id="XMLID_799_" class="st5" d="M38.6,22c0,0,1.7,5.4,3,7.4"/>
	</g>
	<g id="XMLID_796_">
		<path id="XMLID_797_" class="st3" d="M120.7,112.7c8-6.3,13.5,7.4,4.7,8.3"/>
	</g>
	<path id="XMLID_795_" class="st3" d="M125.7,117.7c-0.2,1.5-2.2,1.4-2.2,1.4"/>
	<path id="XMLID_794_" class="st3" d="M121.1,114.4c0.2-0.5,2.6-0.9,2.6-0.9"/>
</g>
</svg>
