<?xml version="1.0" encoding="utf-8"?>
<!-- Generator: Adobe Illustrator 22.1.0, SVG Export Plug-In . SVG Version: 6.00 Build 0)  -->
<svg version="1.1" id="Layer_1" xmlns="http://www.w3.org/2000/svg" xmlns:xlink="http://www.w3.org/1999/xlink" x="0px" y="0px"
	 viewBox="0 0 48.3 562" style="enable-background:new 0 0 48.3 562;" xml:space="preserve">
<style type="text/css">
	.st0{fill:#FDF7E0;stroke:#584C4F;stroke-miterlimit:10;}
	.st1{fill:#FFD767;stroke:#584C4F;stroke-miterlimit:10;}
</style>
<g id="Layer_5">
</g>
<g id="Layer_3">
</g>
<g>
	<path id="XMLID_220_" class="st0" d="M17.6,442.8c0,0-0.1-0.2,0.2-0.2c0,0,9.8-0.4,24.3,0c0.3,0,0.2,0.2,0.2,0.2s0.4,9.8,0,15.1
		c0,0,0.1,0.2-0.2,0.2c0,0-14.8,0.2-24.1,0c-0.3,0-0.2-0.2-0.2-0.2C17.6,451.1,17.6,442.8,17.6,442.8z"/>
	<path id="XMLID_219_" class="st0" d="M20.7,455c0,0-0.1,0.4,0.3,0.4c7.6,0.3,13.4,0,13.4,0c0.4,0,0.3-0.4,0.3-0.4
		c0.2-3.9,0.1-9.4,0.1-9.4s0.1-0.4-0.3-0.4c-7.5-0.5-13.6,0-13.6,0c-0.4,0-0.3,0.4-0.3,0.4L20.7,455z"/>
	<g>
		<path class="st0" d="M28.5,441.9c-0.1,0.1-0.1,0.1-0.2,0.2c-1.7-1.6-3.5-3.4-5-5C23.3,437.1,22.5,436,28.5,441.9z"/>
		<path class="st0" d="M28.7,442.1c-0.1-0.1-0.1-0.1-0.2-0.2c1.6-1.7,3.4-3.5,5-5C33.5,436.9,34.6,436.1,28.7,442.1z"/>
		<path class="st0" d="M28.7,442.1c-0.1,0.1-0.1,0.1-0.2,0.2c-0.1-0.1-0.1-0.1-0.2-0.2c0.1-0.1,0.1-0.1,0.2-0.2
			C28.6,442,28.7,442,28.7,442.1z"/>
	</g>
</g>
<g>
	<g>
		<path class="st0" d="M45,365.4c0,0-0.3,0.4-0.9,0.5c-0.7,0.1-4,0.1-8,0.1v-0.1c0,0-3.3-3.5-3.8-3.9c0,0-0.2-0.1-0.3,0
			c0,0-3.8,3.7-3.9,3.8v0.1c-4.4-0.1-8-0.1-8-0.1c-0.6,0.1-0.9-0.5-0.9-0.5c-0.3-0.5-0.3-14-0.3-14s0.3-0.5,0.9-0.5
			c0.7,0,24.6,0,24.6,0c0.6-0.1,0.9,0.5,0.9,0.5C45.4,352.9,45,365.4,45,365.4z"/>
		<path class="st0" d="M36.1,365.8C36.1,365.8,36.1,365.8,36.1,365.8c-2.6,0.1-5.4,0.1-8,0.1v-0.1c0.2-0.1,3.9-3.8,3.9-3.8
			c0.1-0.1,0.3,0,0.3,0C32.7,362.4,36.1,365.8,36.1,365.8z"/>
	</g>
	<g>
		<path class="st0" d="M29.4,359.1c0,0.2,0,0.4,0,0.4c-0.1,0.3-0.2,0.5-0.3,0.7c-0.2,0.4-0.4,0.7-0.7,1c-0.2,0.3-0.6,0.6-1,0.7
			c-0.1,0.1-0.1,0.1-0.1,0.1c-0.3,0.1-0.5,0.1-0.8,0.2c-0.2,0.1-0.5,0.1-0.7,0.1c-0.1,0-0.1,0-0.2,0c-0.3,0-0.5,0-0.8-0.1
			c-0.2,0-0.4,0-0.4,0c-0.3-0.1-0.5-0.2-0.7-0.3c-0.4-0.2-0.7-0.4-1-0.7c-0.3-0.2-0.6-0.6-0.7-1c-0.1-0.1-0.1-0.1-0.1-0.1
			c-0.1-0.3-0.1-0.5-0.2-0.8c-0.1-0.2-0.1-0.5-0.1-0.7c0-0.1,0-0.1,0-0.2c0-0.3,0-0.5,0.1-0.8c0-0.2,0-0.4,0-0.4
			c0.1-0.3,0.2-0.5,0.3-0.7c0.2-0.4,0.4-0.7,0.7-1c0.2-0.3,0.6-0.6,1-0.7c0.1-0.1,0.1-0.1,0.1-0.1c0.3-0.1,0.5-0.1,0.8-0.2
			c0.2-0.1,0.5-0.1,0.7-0.1c0.1,0,0.1,0,0.2,0c0.3,0,0.5,0,0.8,0.1c0.2,0,0.4,0,0.4,0c0.3,0.1,0.5,0.2,0.7,0.3
			c0.4,0.2,0.7,0.4,1,0.7c0.3,0.2,0.6,0.6,0.7,1c0.1,0.1,0.1,0.1,0.1,0.1c0.1,0.3,0.1,0.5,0.2,0.8c0.1,0.2,0.1,0.5,0.1,0.7
			c0,0.1,0,0.1,0,0.2C29.6,358.6,29.5,358.9,29.4,359.1z"/>
		<path class="st0" d="M42.7,359.1c0,0.2,0,0.4,0,0.4c-0.1,0.3-0.2,0.5-0.3,0.7c-0.2,0.4-0.4,0.7-0.7,1c-0.2,0.3-0.6,0.6-1,0.7
			c-0.1,0.1-0.1,0.1-0.1,0.1c-0.3,0.1-0.5,0.1-0.8,0.2c-0.2,0.1-0.5,0.1-0.7,0.1c-0.1,0-0.1,0-0.2,0c-0.3,0-0.5,0-0.8-0.1
			c-0.2,0-0.4,0-0.4,0c-0.3-0.1-0.5-0.2-0.7-0.3c-0.4-0.2-0.7-0.4-1-0.7c-0.3-0.2-0.6-0.6-0.7-1c-0.1-0.1-0.1-0.1-0.1-0.1
			c-0.1-0.3-0.1-0.5-0.2-0.8c-0.1-0.2-0.1-0.5-0.1-0.7c0-0.1,0-0.1,0-0.2c0-0.3,0-0.5,0.1-0.8c0-0.2,0-0.4,0-0.4
			c0.1-0.3,0.2-0.5,0.3-0.7c0.2-0.4,0.4-0.7,0.7-1c0.2-0.3,0.6-0.6,1-0.7c0.1-0.1,0.1-0.1,0.1-0.1c0.3-0.1,0.5-0.1,0.8-0.2
			c0.2-0.1,0.5-0.1,0.7-0.1c0.1,0,0.1,0,0.2,0c0.3,0,0.5,0,0.8,0.1c0.2,0,0.4,0,0.4,0c0.3,0.1,0.5,0.2,0.7,0.3
			c0.4,0.2,0.7,0.4,1,0.7c0.3,0.2,0.6,0.6,0.7,1c0.1,0.1,0.1,0.1,0.1,0.1c0.1,0.3,0.1,0.5,0.2,0.8c0.1,0.2,0.1,0.5,0.1,0.7
			c0,0.1,0,0.1,0,0.2C42.8,358.6,42.7,358.9,42.7,359.1z"/>
	</g>
</g>
<path id="XMLID_218_" class="st0" d="M17.7,487.4c0,0-0.1-0.2,0.2-0.2c0,0,10.7-0.4,26.4,0c0.3,0,0.1,0.2,0.1,0.2s0.4,10.4,0,16
	c0,0,0.1,0.2-0.2,0.2c0,0-16.1,0.2-26.2,0c-0.3,0-0.2-0.2-0.2-0.2C17.6,496.2,17.7,487.4,17.7,487.4z"/>
<g>
	<path class="st0" d="M38.4,318.6L26,318.7c0-0.5,0.1-1,0.3-1.6c2.1-6.9,9.3-4.2,9.3-4.2C36.8,313.6,37.8,315.1,38.4,318.6
		L38.4,318.6z"/>
	<path class="st0" d="M43.7,312.6H20.6c-0.1-8-0.1-15.7-0.1-15.7s-0.1-0.2,0.2-0.2c0,0,9.2-0.6,22.7,0c0.3,0,0.2,0.2,0.2,0.2
		L43.7,312.6z"/>
	<path class="st0" d="M20.7,316c-0.1-1.2-0.1-2.4-0.1-3.7h23.1v1.4c0,0.9,0,1.7-0.1,2.4c0,0,0.1,0.2-0.2,0.2c0,0-13.8,0.2-22.5,0
		C20.6,316.3,20.7,316.1,20.7,316z"/>
	<path class="st0" d="M40.7,309.7H23.9c-0.1-5.3-0.1-10.3-0.1-10.3s-0.1-0.2,0.1-0.2c0,0,6.7-0.4,16.6,0c0.2,0,0.1,0.2,0.1,0.2
		L40.7,309.7z"/>
</g>
<path class="st1" d="M44.2,471.7c1.6,0,3,0.3,3.4,0.8c1.2,1.6-3.1,1.2-3.1,1.2c-3.9,0.2-11.4,0.3-13.6,0c-1,0.1-2.2,0-2.2,0
	c-3.9,0.2-9.8,0.1-11.7,0.1c-1.8,0-3.5-0.2-4-0.8c-1.2-1.6,3.1-1.2,3.1-1.2c3.9-0.2,11.4-0.3,13.6,0c1-0.1,2.2,0,2.2,0
	C35.7,471.6,42.2,471.7,44.2,471.7z"/>
<path class="st1" d="M44.2,516.8c1.6,0,3,0.3,3.4,0.8c1.2,1.6-3.1,1.2-3.1,1.2c-3.9,0.2-11.4,0.3-13.6,0c-1,0.1-2.2,0-2.2,0
	c-3.9,0.2-9.8,0.1-11.7,0.1c-1.8,0-3.5-0.2-4-0.8c-1.2-1.6,3.1-1.2,3.1-1.2c3.9-0.2,11.4-0.3,13.6,0c1-0.1,2.2,0,2.2,0
	C35.7,516.8,42.2,516.8,44.2,516.8z"/>
<g>
	<path id="XMLID_216_" class="st0" d="M17.7,543.3c0,0-0.2,0.3,0.5,0.3c14,0.3,24.8,0,24.8,0c0.6,0,0.5-0.3,0.5-0.3
		c0.3-3,0.2-7.2,0.2-7.2s0.2-0.3-0.5-0.3c-14-0.4-25.3,0-25.3,0c-0.6,0-0.5,0.3-0.5,0.3L17.7,543.3z"/>
	<path id="XMLID_214_" class="st0" d="M32.4,531.3c6-0.7,6.7,8.6,6.8,9.7c0,1.1-1.8,9.1-10.8,6.5c-9-2.7-5.5-12.2-5.5-12.2
		C23.9,533.5,26.4,532,32.4,531.3z"/>
	<path id="XMLID_213_" class="st0" d="M25.5,536.4c1-4.3,7.6-2.3,8.4-2.1c0.8,0.2,5.8,3.6,1.6,9.1s-9.8,0.5-9.8,0.5
		C24.8,542.7,24.5,540.7,25.5,536.4z"/>
</g>
<path id="XMLID_212_" class="st0" d="M41.6,501.8c0,0,1,0,1-0.3c0.8-6.8,0-12.1,0-12.1c-0.1-0.4-1-0.3-1-0.3
	c-8.5-0.2-20.7-0.1-20.7-0.1s-0.9,0-1,0.3c-1.1,6.8,0,12.3,0,12.3c0.1,0.4,1,0.3,1,0.3L41.6,501.8z"/>
<g>
	<path id="XMLID_211_" class="st0" d="M39.6,390.2c0,0,0.2-0.1,0.2,0.2c0,0,0.4,10.5,0,25.8c0,0.3-0.2,0.2-0.2,0.2s-10.4,0.4-16,0
		c0,0-0.2,0.1-0.2-0.2c0,0-0.2-15.7,0-25.6c0-0.3,0.2-0.2,0.2-0.2C30.8,390.2,39.6,390.2,39.6,390.2z"/>
	<path id="XMLID_208_" class="st0" d="M25.6,392.3c0,0-0.6-0.1-0.6,0.4c-0.4,10.3,0,18.2,0,18.2c0.1,0.5,0.6,0.4,0.6,0.4
		c5,0.3,12,0.2,12,0.2s0.6,0.1,0.6-0.4c0.6-10.2,0-18.5,0-18.5c-0.1-0.5-0.6-0.4-0.6-0.4L25.6,392.3z"/>
	<path id="XMLID_207_" class="st0" d="M32.4,414.3c0.1,0.7-1,0.8-1.1,0.8s-1-0.2-0.7-1.2s1.4-0.6,1.4-0.6
		C32.2,413.4,32.4,413.7,32.4,414.3z"/>
</g>
<path class="st1" d="M44.2,380.7c1.6,0,3,0.3,3.4,0.8c1.2,1.6-3.1,1.2-3.1,1.2c-3.9,0.2-11.4,0.3-13.6,0c-1,0.1-2.2,0-2.2,0
	c-3.9,0.2-9.8,0.1-11.7,0.1c-1.8,0-3.5-0.2-4-0.8c-1.2-1.6,3.1-1.2,3.1-1.2c3.9-0.2,11.4-0.3,13.6,0c1-0.1,2.2,0,2.2,0
	C35.7,380.6,42.2,380.7,44.2,380.7z"/>
<path class="st1" d="M44.2,425.8c1.6,0,3,0.3,3.4,0.8c1.2,1.6-3.1,1.2-3.1,1.2c-3.9,0.2-11.4,0.3-13.6,0c-1,0.1-2.2,0-2.2,0
	c-3.9,0.2-9.8,0.1-11.7,0.1c-1.8,0-3.5-0.2-4-0.8c-1.2-1.6,3.1-1.2,3.1-1.2c3.9-0.2,11.4-0.3,13.6,0c1-0.1,2.2,0,2.2,0
	C35.7,425.8,42.2,425.8,44.2,425.8z"/>
<path class="st1" d="M44.2,334.8c1.6,0,3,0.3,3.4,0.8c1.2,1.6-3.1,1.2-3.1,1.2c-3.9,0.2-11.4,0.3-13.6,0c-1,0.1-2.2,0-2.2,0
	c-3.9,0.2-9.8,0.1-11.7,0.1c-1.8,0-3.5-0.2-4-0.8c-1.2-1.6,3.1-1.2,3.1-1.2c3.9-0.2,11.4-0.3,13.6,0c1-0.1,2.2,0,2.2,0
	C35.7,334.8,42.2,334.8,44.2,334.8z"/>
<g>
	<path id="XMLID_10_" class="st0" d="M17.6,162.6c0,0-0.1-0.2,0.2-0.2c0,0,9.8-0.4,24.3,0c0.3,0,0.2,0.2,0.2,0.2s0.4,9.8,0,15.1
		c0,0,0.1,0.2-0.2,0.2c0,0-14.8,0.2-24.1,0c-0.3,0-0.2-0.2-0.2-0.2C17.6,170.9,17.6,162.6,17.6,162.6z"/>
	<path id="XMLID_9_" class="st0" d="M20.7,174.8c0,0-0.1,0.4,0.3,0.4c7.6,0.3,13.4,0,13.4,0c0.4,0,0.3-0.4,0.3-0.4
		c0.2-3.9,0.1-9.4,0.1-9.4s0.1-0.4-0.3-0.4c-7.5-0.5-13.6,0-13.6,0c-0.4,0-0.3,0.4-0.3,0.4L20.7,174.8z"/>
	<g>
		<path class="st0" d="M28.5,161.7c-0.1,0.1-0.1,0.1-0.2,0.2c-1.7-1.6-3.5-3.4-5-5C23.3,156.9,22.5,155.8,28.5,161.7z"/>
		<path class="st0" d="M28.7,161.9c-0.1-0.1-0.1-0.1-0.2-0.2c1.6-1.7,3.4-3.5,5-5C33.5,156.7,34.6,155.9,28.7,161.9z"/>
		<path class="st0" d="M28.7,161.9c-0.1,0.1-0.1,0.1-0.2,0.2c-0.1-0.1-0.1-0.1-0.2-0.2c0.1-0.1,0.1-0.1,0.2-0.2
			C28.6,161.8,28.7,161.8,28.7,161.9z"/>
	</g>
</g>
<g>
	<g>
		<path class="st0" d="M45,85.2c0,0-0.3,0.4-0.9,0.5c-0.7,0.1-4,0.1-8,0.1v-0.1c0,0-3.3-3.5-3.8-3.9c0,0-0.2-0.1-0.3,0
			c0,0-3.8,3.7-3.9,3.8v0.1c-4.4-0.1-8-0.1-8-0.1c-0.6,0.1-0.9-0.5-0.9-0.5c-0.3-0.5-0.3-14-0.3-14s0.3-0.5,0.9-0.5
			c0.7,0,24.6,0,24.6,0c0.6-0.1,0.9,0.5,0.9,0.5C45.4,72.7,45,85.2,45,85.2z"/>
		<path class="st0" d="M36.1,85.6C36.1,85.6,36.1,85.6,36.1,85.6c-2.6,0.1-5.4,0.1-8,0.1v-0.1c0.2-0.1,3.9-3.8,3.9-3.8
			c0.1-0.1,0.3,0,0.3,0C32.7,82.2,36.1,85.6,36.1,85.6z"/>
	</g>
	<g>
		<path class="st0" d="M29.4,78.9c0,0.2,0,0.4,0,0.4c-0.1,0.3-0.2,0.5-0.3,0.7c-0.2,0.4-0.4,0.7-0.7,1c-0.2,0.3-0.6,0.6-1,0.7
			c-0.1,0.1-0.1,0.1-0.1,0.1c-0.3,0.1-0.5,0.1-0.8,0.2c-0.2,0.1-0.5,0.1-0.7,0.1c-0.1,0-0.1,0-0.2,0c-0.3,0-0.5,0-0.8-0.1
			c-0.2,0-0.4,0-0.4,0c-0.3-0.1-0.5-0.2-0.7-0.3c-0.4-0.2-0.7-0.4-1-0.7c-0.3-0.2-0.6-0.6-0.7-1c-0.1-0.1-0.1-0.1-0.1-0.1
			c-0.1-0.3-0.1-0.5-0.2-0.8c-0.1-0.2-0.1-0.5-0.1-0.7c0-0.1,0-0.1,0-0.2c0-0.3,0-0.5,0.1-0.8c0-0.2,0-0.4,0-0.4
			c0.1-0.3,0.2-0.5,0.3-0.7c0.2-0.4,0.4-0.7,0.7-1c0.2-0.3,0.6-0.6,1-0.7c0.1-0.1,0.1-0.1,0.1-0.1c0.3-0.1,0.5-0.1,0.8-0.2
			c0.2-0.1,0.5-0.1,0.7-0.1c0.1,0,0.1,0,0.2,0c0.3,0,0.5,0,0.8,0.1c0.2,0,0.4,0,0.4,0c0.3,0.1,0.5,0.2,0.7,0.3
			c0.4,0.2,0.7,0.4,1,0.7c0.3,0.2,0.6,0.6,0.7,1c0.1,0.1,0.1,0.1,0.1,0.1c0.1,0.3,0.1,0.5,0.2,0.8c0.1,0.2,0.1,0.5,0.1,0.7
			c0,0.1,0,0.1,0,0.2C29.6,78.4,29.5,78.7,29.4,78.9z"/>
		<path class="st0" d="M42.7,78.9c0,0.2,0,0.4,0,0.4c-0.1,0.3-0.2,0.5-0.3,0.7c-0.2,0.4-0.4,0.7-0.7,1c-0.2,0.3-0.6,0.6-1,0.7
			c-0.1,0.1-0.1,0.1-0.1,0.1c-0.3,0.1-0.5,0.1-0.8,0.2c-0.2,0.1-0.5,0.1-0.7,0.1c-0.1,0-0.1,0-0.2,0c-0.3,0-0.5,0-0.8-0.1
			c-0.2,0-0.4,0-0.4,0c-0.3-0.1-0.5-0.2-0.7-0.3c-0.4-0.2-0.7-0.4-1-0.7c-0.3-0.2-0.6-0.6-0.7-1c-0.1-0.1-0.1-0.1-0.1-0.1
			c-0.1-0.3-0.1-0.5-0.2-0.8c-0.1-0.2-0.1-0.5-0.1-0.7c0-0.1,0-0.1,0-0.2c0-0.3,0-0.5,0.1-0.8c0-0.2,0-0.4,0-0.4
			c0.1-0.3,0.2-0.5,0.3-0.7c0.2-0.4,0.4-0.7,0.7-1c0.2-0.3,0.6-0.6,1-0.7c0.1-0.1,0.1-0.1,0.1-0.1c0.3-0.1,0.5-0.1,0.8-0.2
			c0.2-0.1,0.5-0.1,0.7-0.1c0.1,0,0.1,0,0.2,0c0.3,0,0.5,0,0.8,0.1c0.2,0,0.4,0,0.4,0c0.3,0.1,0.5,0.2,0.7,0.3
			c0.4,0.2,0.7,0.4,1,0.7c0.3,0.2,0.6,0.6,0.7,1c0.1,0.1,0.1,0.1,0.1,0.1c0.1,0.3,0.1,0.5,0.2,0.8c0.1,0.2,0.1,0.5,0.1,0.7
			c0,0.1,0,0.1,0,0.2C42.8,78.4,42.7,78.7,42.7,78.9z"/>
	</g>
</g>
<path id="XMLID_8_" class="st0" d="M17.7,207.2c0,0-0.1-0.2,0.2-0.2c0,0,10.7-0.4,26.4,0c0.3,0,0.1,0.2,0.1,0.2s0.4,10.4,0,16
	c0,0,0.1,0.2-0.2,0.2c0,0-16.1,0.2-26.2,0c-0.3,0-0.2-0.2-0.2-0.2C17.6,216,17.7,207.2,17.7,207.2z"/>
<g>
	<path class="st0" d="M38.4,38.4L26,38.5c0-0.5,0.1-1,0.3-1.6c2.1-6.9,9.3-4.2,9.3-4.2C36.8,33.4,37.8,34.9,38.4,38.4L38.4,38.4z"/>
	<path class="st0" d="M43.7,32.4H20.6c-0.1-8-0.1-15.7-0.1-15.7s-0.1-0.2,0.2-0.2c0,0,9.2-0.6,22.7,0c0.3,0,0.2,0.2,0.2,0.2
		L43.7,32.4z"/>
	<path class="st0" d="M20.7,35.8c-0.1-1.2-0.1-2.4-0.1-3.7h23.1v1.4c0,0.9,0,1.7-0.1,2.4c0,0,0.1,0.2-0.2,0.2c0,0-13.8,0.2-22.5,0
		C20.6,36.1,20.7,35.9,20.7,35.8z"/>
	<path class="st0" d="M40.7,29.5H23.9c-0.1-5.3-0.1-10.3-0.1-10.3S23.7,19,23.9,19c0,0,6.7-0.4,16.6,0c0.2,0,0.1,0.2,0.1,0.2
		L40.7,29.5z"/>
</g>
<path class="st1" d="M44.2,191.5c1.6,0,3,0.3,3.4,0.8c1.2,1.6-3.1,1.2-3.1,1.2c-3.9,0.2-11.4,0.3-13.6,0c-1,0.1-2.2,0-2.2,0
	c-3.9,0.2-9.8,0.1-11.7,0.1c-1.8,0-3.5-0.2-4-0.8c-1.2-1.6,3.1-1.2,3.1-1.2c3.9-0.2,11.4-0.3,13.6,0c1-0.1,2.2,0,2.2,0
	C35.7,191.4,42.2,191.5,44.2,191.5z"/>
<path class="st1" d="M44.2,236.6c1.6,0,3,0.3,3.4,0.8c1.2,1.6-3.1,1.2-3.1,1.2c-3.9,0.2-11.4,0.3-13.6,0c-1,0.1-2.2,0-2.2,0
	c-3.9,0.2-9.8,0.1-11.7,0.1c-1.8,0-3.5-0.2-4-0.8c-1.2-1.6,3.1-1.2,3.1-1.2c3.9-0.2,11.4-0.3,13.6,0c1-0.1,2.2,0,2.2,0
	C35.7,236.6,42.2,236.6,44.2,236.6z"/>
<g>
	<path id="XMLID_7_" class="st0" d="M17.7,263.1c0,0-0.2,0.3,0.5,0.3c14,0.3,24.8,0,24.8,0c0.6,0,0.5-0.3,0.5-0.3
		c0.3-3,0.2-7.2,0.2-7.2s0.2-0.3-0.5-0.3c-14-0.4-25.3,0-25.3,0c-0.6,0-0.5,0.3-0.5,0.3L17.7,263.1z"/>
	<path id="XMLID_6_" class="st0" d="M32.4,251.1c6-0.7,6.7,8.6,6.8,9.7c0,1.1-1.8,9.1-10.8,6.5c-9-2.7-5.5-12.2-5.5-12.2
		C23.9,253.3,26.4,251.8,32.4,251.1z"/>
	<path id="XMLID_5_" class="st0" d="M25.5,256.2c1-4.3,7.6-2.3,8.4-2.1c0.8,0.2,5.8,3.6,1.6,9.1s-9.8,0.5-9.8,0.5
		C24.8,262.5,24.5,260.5,25.5,256.2z"/>
</g>
<path id="XMLID_4_" class="st0" d="M41.6,221.6c0,0,1,0,1-0.3c0.8-6.8,0-12.1,0-12.1c-0.1-0.4-1-0.3-1-0.3
	c-8.5-0.2-20.7-0.1-20.7-0.1s-0.9,0-1,0.3c-1.1,6.8,0,12.3,0,12.3c0.1,0.4,1,0.3,1,0.3L41.6,221.6z"/>
<g>
	<path id="XMLID_3_" class="st0" d="M39.6,110c0,0,0.2-0.1,0.2,0.2c0,0,0.4,10.5,0,25.8c0,0.3-0.2,0.2-0.2,0.2s-10.4,0.4-16,0
		c0,0-0.2,0.1-0.2-0.2c0,0-0.2-15.7,0-25.6c0-0.3,0.2-0.2,0.2-0.2C30.8,110,39.6,110,39.6,110z"/>
	<path id="XMLID_2_" class="st0" d="M25.6,112.1c0,0-0.6-0.1-0.6,0.4c-0.4,10.3,0,18.2,0,18.2c0.1,0.5,0.6,0.4,0.6,0.4
		c5,0.3,12,0.2,12,0.2s0.6,0.1,0.6-0.4c0.6-10.2,0-18.5,0-18.5c-0.1-0.5-0.6-0.4-0.6-0.4L25.6,112.1z"/>
	<path id="XMLID_1_" class="st0" d="M32.4,134.1c0.1,0.7-1,0.8-1.1,0.8s-1-0.2-0.7-1.2s1.4-0.6,1.4-0.6
		C32.2,133.2,32.4,133.5,32.4,134.1z"/>
</g>
<path class="st1" d="M44.2,100.5c1.6,0,3,0.3,3.4,0.8c1.2,1.6-3.1,1.2-3.1,1.2c-3.9,0.2-11.4,0.3-13.6,0c-1,0.1-2.2,0-2.2,0
	c-3.9,0.2-9.8,0.1-11.7,0.1c-1.8,0-3.5-0.2-4-0.8c-1.2-1.6,3.1-1.2,3.1-1.2c3.9-0.2,11.4-0.3,13.6,0c1-0.1,2.2,0,2.2,0
	C35.7,100.4,42.2,100.5,44.2,100.5z"/>
<path class="st1" d="M44.2,145.6c1.6,0,3,0.3,3.4,0.8c1.2,1.6-3.1,1.2-3.1,1.2c-3.9,0.2-11.4,0.3-13.6,0c-1,0.1-2.2,0-2.2,0
	c-3.9,0.2-9.8,0.1-11.7,0.1c-1.8,0-3.5-0.2-4-0.8c-1.2-1.6,3.1-1.2,3.1-1.2c3.9-0.2,11.4-0.3,13.6,0c1-0.1,2.2,0,2.2,0
	C35.7,145.6,42.2,145.6,44.2,145.6z"/>
<path class="st1" d="M44.2,54.6c1.6,0,3,0.3,3.4,0.8c1.2,1.6-3.1,1.2-3.1,1.2c-3.9,0.2-11.4,0.3-13.6,0c-1,0.1-2.2,0-2.2,0
	c-3.9,0.2-9.8,0.1-11.7,0.1c-1.8,0-3.5-0.2-4-0.8c-1.2-1.6,3.1-1.2,3.1-1.2c3.9-0.2,11.4-0.3,13.6,0c1-0.1,2.2,0,2.2,0
	C35.7,54.6,42.2,54.6,44.2,54.6z"/>
<path class="st1" d="M2.8,328c0-2.6,0-5.2-0.1-7.6c0-0.6,0-1.4,0-2.1c0-0.4,0.1-2.6,0-4.3c0.3-4.4,0.2-19.5,0-27.2
	c0,0.4,0.1-10.4,0.1-14c0-3.8,0.1-15.7-0.1-23.4c0,0,0.1-2.5,0-4.4c0.2-3.4,0.2-13.2,0.1-21.1c0-2.6,0-5.2-0.1-7.6c0-0.4,0-1,0-1.5
	s0-1.1,0-1.9c0-0.7,0-1.7,0-2.6c0.1-2.4,0.1-6.9,0.1-11.8c0-3.4,0-7,0-10.3c0-2.1,0-4.1,0-6c0-0.3,0-0.6,0-1c0-0.5,0-1.1,0-1.7
	c0-0.9,0-2.4-0.1-3.7c0.2-3.4,0.2-13.1,0.1-21c0-2.9,0-5.8-0.1-8.4c0-0.3,0-0.6,0-0.9c0-0.4,0-0.8,0-1.2c0,0,0.1-2.5,0-4.4
	c0.2-3.4,0.2-13.2,0.1-21.1c0-2.6,0-5.2-0.1-7.6c0-0.6,0-1.4,0-2.1c0-0.4,0.1-2.6,0-4.3c0.2-3.4,0.2-13.1,0.1-21
	c0-2.9,0-5.8-0.1-8.4c0-0.3,0-0.6,0-0.9c0-0.4,0-0.8,0-1.2c0,0,0.1-2.5,0-4.4c0.2-3.4,0.2-13.2,0.1-21.1c0-2.6,0-5.2-0.1-7.6
	c0-0.6,0-1.4,0-2.1c0-0.4,0.1-2.6,0-4.3c0.3-4.4,0.2-19.5,0-27.2c0,0.5,0.4-8.1-1.2-5.7C1,1.7,0.7,4.4,0.7,7.6
	c-0.1,4.1-0.1,17,0,24.7c0,0-0.1,2.5,0,4.4c-0.2,3.1-0.2,11.7-0.1,19.1c0,3.3,0,6.7,0.1,9.6c0,0.6,0,1.3,0,2.1c0,0.4-0.1,2.6,0,4.3
	c-0.2,3.1-0.2,11.5-0.1,18.9c0,3.6,0,7.3,0.1,10.5c0,0.3,0,0.5,0,0.8c0,0.4,0,0.8,0,1.2c0,0-0.1,2.5,0,4.4
	c-0.2,3.1-0.2,11.7-0.1,19.1c0,3.3,0,6.7,0.1,9.6c0,0.6,0,1.3,0,2.1c0,0.4-0.1,2.6,0,4.3c-0.2,3.1-0.2,11.5-0.1,18.9
	c0,3.6,0,7.3,0.1,10.5c0,0.3,0,0.5,0,0.8c0,0.4,0,0.8,0,1.2c0,0-0.1,2.5,0,4.4c-0.2,3.1-0.2,11.7-0.1,19.1c0,3.3,0,6.7,0.1,9.6
	c0,0.4,0,0.9,0,1.5c0,0.5,0,1.1,0,1.9c0,0.7,0,1.7,0,2.6c-0.1,2.4-0.1,7-0.1,11.9c0,2.7,0,5.6,0,8.3s0,5.4,0.1,7.8
	c0,0.3,0,0.6,0,0.9c0,0.5,0,1.1,0,1.7c0,0.9,0,2.4,0.1,3.7c-0.3,4.4-0.2,19.5,0,27.2c0,0-0.1,10.1-0.1,13.1c-0.1,4.1-0.1,17,0,24.7
	c0,0-0.1,2.5,0,4.4C0.5,320,0.5,328.6,0.6,336c0,3.3,0,6.7,0.1,9.6c0,0.6,0,1.3,0,2.1c0,0.4-0.1,2.6,0,4.3
	c-0.2,3.1-0.2,11.5-0.1,18.9c0,3.6,0,7.3,0.1,10.5c0,0.3,0,0.5,0,0.8c0,0.4,0,0.8,0,1.2c0,0-0.1,2.5,0,4.4
	c-0.2,3.1-0.2,11.7-0.1,19.1c0,3.3,0,6.7,0.1,9.6c0,0.6,0,1.3,0,2.1c0,0.4-0.1,2.6,0,4.3c-0.2,3.1-0.2,11.5-0.1,18.9
	c0,3.6,0,7.3,0.1,10.5c0,0.3,0,0.5,0,0.8c0,0.4,0,0.8,0,1.2c0,0-0.1,2.5,0,4.4c-0.2,3.1-0.2,11.7-0.1,19.1c0,3.3,0,6.7,0.1,9.6
	c0,0.4,0,0.9,0,1.5c0,0.5,0,1.1,0,1.9c0,0.7,0,1.7,0,2.6c-0.1,2.4-0.1,7-0.1,11.9c0,2.7,0,5.6,0,8.3c0,2.7,0,5.4,0.1,7.8
	c0,0.3,0,0.6,0,0.9c0,0.5,0,1.1,0,1.7c0,0.9,0,2.4,0.1,3.7c-0.3,4.4-0.2,19.5,0,27.2c0,0-0.4,8.6,1.2,6.2c0.6-0.9,0.8-4.3,0.8-8.1
	c0-3.8,0.1-15.7-0.1-23.4c0,0,0.1-2.5,0-4.4c0.2-3.4,0.2-13.2,0.1-21.1c0-2.6,0-5.2-0.1-7.6c0-0.4,0-1,0-1.5s0-1.1,0-1.9
	c0-0.7,0-1.7,0-2.6c0.1-2.4,0.1-6.9,0.1-11.8c0-3.4,0-7,0-10.3c0-2.1,0-4.1,0-6c0-0.3,0-0.6,0-1c0-0.5,0-1.1,0-1.7
	c0-0.9,0-2.4-0.1-3.7c0.2-3.4,0.2-13.1,0.1-21c0-2.9,0-5.8-0.1-8.4c0-0.3,0-0.6,0-0.9c0-0.4,0-0.8,0-1.2c0,0,0.1-2.5,0-4.4
	c0.2-3.4,0.2-13.2,0.1-21.1c0-2.6,0-5.2-0.1-7.6c0-0.6,0-1.4,0-2.1c0-0.4,0.1-2.6,0-4.3c0.2-3.4,0.2-13.1,0.1-21
	c0-2.9,0-5.8-0.1-8.4c0-0.3,0-0.6,0-0.9c0-0.4,0-0.8,0-1.2c0,0,0.1-2.5,0-4.4C2.9,345.7,2.9,335.9,2.8,328z"/>
<path class="st1" d="M43.8,279.2c1.6,0,3,0.3,3.4,0.8c1.2,1.6-3.1,1.2-3.1,1.2c-3.9,0.2-11.4,0.3-13.6,0c-1,0.1-2.2,0-2.2,0
	c-3.9,0.2-9.8,0.1-11.7,0.1c-1.8,0-3.5-0.2-4-0.8c-1.2-1.6,3.1-1.2,3.1-1.2c3.9-0.2,11.4-0.3,13.6,0c1-0.1,2.2,0,2.2,0
	C35.3,279.2,41.8,279.2,43.8,279.2z"/>
</svg>
