<?xml version="1.0" encoding="utf-8"?>
<!-- Generator: Adobe Illustrator 22.1.0, SVG Export Plug-In . SVG Version: 6.00 Build 0)  -->
<svg version="1.1" id="Layer_1" xmlns="http://www.w3.org/2000/svg" xmlns:xlink="http://www.w3.org/1999/xlink" x="0px" y="0px"
	 viewBox="0 0 326.8 681.4" style="enable-background:new 0 0 326.8 681.4;" xml:space="preserve">
<style type="text/css">
	.st0{fill:#A36B78;stroke:#584C4F;stroke-width:2;stroke-linecap:round;stroke-miterlimit:10;}
	.st1{fill:#A36B78;stroke:#584C4F;stroke-width:2;stroke-linecap:round;stroke-linejoin:round;stroke-miterlimit:10;}
	.st2{fill:#FFD767;stroke:#584C4F;stroke-width:2;stroke-miterlimit:10;}
	.st3{fill:#A36B78;}
	.st4{fill:none;stroke:#584C4F;stroke-width:2;stroke-linecap:round;stroke-miterlimit:10;}
	.st5{fill:#BEAB72;}
	.st6{fill:#584C4F;stroke:#584C4F;stroke-width:2;stroke-linecap:round;stroke-miterlimit:10;}
	.st7{opacity:0.1;fill:#231F20;stroke:#231F20;stroke-miterlimit:10;enable-background:new    ;}
	.st8{fill:#FFFFFF;stroke:#584C4F;stroke-width:2;stroke-linecap:round;stroke-miterlimit:10;}
</style>
<g id="Layer_5">
</g>
<g id="Layer_3">
</g>
<g>
	<g>
		<g id="XMLID_9651_">
			<path id="XMLID_9652_" class="st0" d="M218.5,306.1c8.7-2.5,8.8,10.6,1.2,8.5"/>
		</g>
		<path id="XMLID_9650_" class="st0" d="M208.4,182.8c-1.4,34-5.6,92.2-3.2,107.9c3.4,22,0,126.4,0,126.4l16.9,1.5
			c0,0-3.3-59.2-1.2-99.4c1.1-22.2,2.5-65,4.2-99.8"/>
		<g id="XMLID_9648_">
			<path id="XMLID_9649_" class="st0" d="M220.6,415.3c3.3-1.1,4.1,12.1,4.1,12.1s1.9,42.3-1.7,24.3c-3.5-18-5.3-16.1-3.6,5.4
				c1.6,21.6-7.4-22-8.8-15.1c-1.4,6.9-5.8,50.9-5.8-4.1c0,0,4.1-25.6-6.4,14.5s2.3-25.1,3.1-28.5s-12.8,19.5-9.1,10.1
				s5.8-11.8,12.7-19"/>
		</g>
		<path id="XMLID_9647_" class="st0" d="M211.6,307.8c0.2-0.6,3-1.2,3-1.2"/>
		<path id="XMLID_9646_" class="st0" d="M217.8,311.9c-0.6,1.8-2.8,1.4-2.8,1.4"/>
		<path id="XMLID_9645_" class="st1" d="M218.4,413.3c13.6-0.8,0-9.9,0-9.9"/>
	</g>
	<path id="XMLID_9644_" class="st2" d="M203,182.4c9.1,2.5,16.7,5.2,18.7,8.1c5.5,8.1,12.2,97.9-1.5,98.4c-13.7,0.5-15.6-0.1-15.3-5
		c0.3-4.9-6-61.4-3.8-65.6"/>
	<g>
		<path class="st0" d="M168.5,647.7c-0.6,1.2-0.7,2.3-0.1,3.7c0.1,0.3,0.3,0.6,0.5,1c0.7,1.3,2.2,2.5,4.2,3.9c1.6,1,3.4,2,5.4,3.1
			c1.3,0.7,2.6,1.3,4.1,2c1.1,0.6,2.3,1.1,3.4,1.6c1.2,0.5,2.4,0.9,3.5,1.3c1.5,0.6,2.9,1,4.3,1.5c2.2,0.7,4.2,1.2,6,1.6
			c2.3,0.5,4.3,0.6,5.7,0.3c0.4,0,0.8-0.2,1.1-0.3c1.1-0.5,1.8-1.1,2.2-1.9c-6.8-6.8-11.3-15.5-8.9-26.2c-0.6-1.3-1-2.1-1-2.1
			s0-0.4-0.2-0.9c0-0.1,0-0.3-0.1-0.4v-0.2c0.1-0.6,0.3-1.3,0.6-2.4l-0.8-0.4l-0.8-0.3L183,628c-1.6,3.5-2.6,5.8-2.8,6.3
			c0,0.1,0,0.1,0,0.1s0,0.1,0.1,0.1c-2.1,2.8-4.1,4.9-5.9,6.7c-1.9,1.9-3.6,3.4-4.8,4.8C169.1,646.6,168.7,647.2,168.5,647.7z"/>
		<path class="st0" d="M168.5,387.5c3.4,5.6,6.4,113.4,8.5,153.6s-1.1,99.4-1.1,99.4l16.9-1.5c0,0-3.3-98.4-0.4-124.3
			c1-1.1,1.4-6,1.1-16.9l0,0c0-4.4,0-9.3-0.2-14.5c-0.3-44.6,3.4-102.4,3.4-102.4"/>
		<g>
			<g id="XMLID_9642_">
				<path id="XMLID_9643_" class="st0" d="M215.5,674.8c-0.2-5.4,5.2-2.5,5.2-2.5C224.1,677.3,215.7,680,215.5,674.8z"/>
			</g>
			<g id="XMLID_9640_">
				<path id="XMLID_9641_" class="st0" d="M212,673c-0.1-5.9,5.8-2.7,5.8-2.7C221.5,675.9,212.2,679,212,673z"/>
			</g>
			<g id="XMLID_9638_">
				<path id="XMLID_9639_" class="st0" d="M207.6,670.8c-0.2-6.9,6.7-3.2,6.7-3.2C218.6,674.2,207.7,677.7,207.6,670.8z"/>
			</g>
			<g id="XMLID_9636_">
				<path id="XMLID_9637_" class="st0" d="M202,668.2c-0.2-7.9,7.7-3.7,7.7-3.7C214.7,672,202.2,676,202,668.2z"/>
			</g>
			<path id="XMLID_9635_" class="st0" d="M189.7,662.8c1.8-2.5,12.5-5.6,14.4,2.6c1.9,8.2-7.6,3.5-7.6,3.5S188,665.2,189.7,662.8z"
				/>
		</g>
		<path id="XMLID_9634_" class="st0" d="M180.3,508c0-1.9,2.3-2,2.3-2"/>
		<path id="XMLID_9633_" class="st0" d="M189,521.2c-0.1,0.7-2.8,1.5-2.8,1.5"/>
		<g id="XMLID_9631_">
			<path id="XMLID_9632_" class="st0" d="M199.2,633.2c7.9,4.4-1.5,13.7-5.2,6.7"/>
		</g>
		<g id="XMLID_9629_">
			<path id="XMLID_9630_" class="st0" d="M189.5,509.6c8.6-2.5,8.8,10.6,1.2,8.5"/>
		</g>
	</g>
	<path class="st0" d="M111.5,387.5c0,0,0.1,0,0.2,0c0.5,4.1,2,8.5,4.4,13c0,0,1.3,15.3,51.4,14.5c30.7-0.5,50.1-15.5,53.2-32.5h0.1
		c0.1-0.2,0.1-0.5,0.2-0.9c0.1-1,0.1-2.1,0.2-3.1c0.8-11.1,1.3-40.6,1.3-40.6L111.4,342C109.6,350.9,111.5,387.5,111.5,387.5z"/>
	<g>
		<path class="st2" d="M120.6,368.9c2.3-0.5,5.2-1,8.4-1.5l77.2-4c4-0.1,9.4,1.2,9.4,1.2c4.4,2.3,7.1,1.4,8.7-1.4
			c0.1-0.1,0.1-0.2,0.2-0.3c4.1-8,0.2-29.4-3-37.9c-0.2-0.5-0.4-1.2-0.6-2c-3.7-15.6-3.7-74.4-2.3-110.6c0.1-3.9,0.1-7.3-0.1-10.4
			c-1.4-26.8-28.8-27.1-46.6-27.9c-18.8-0.8-32.5,3-39.2,8.6c-3.5,1-8.8,3-13,6.2c-3.1,2.3-5.6,5.3-6.4,9c-0.1,0.4-0.1,0.9-0.2,1.3
			c-1.5,13.2-4.5,93.7-5.9,101c-0.3,1.4-1,5.9-1.9,11.9c-0.1,0.7-0.2,1.4-0.3,2.2C101.7,339.2,98.2,385.4,120.6,368.9z"/>
		<path class="st2" d="M215.4,364.6c4.4,2.3,7.1,1.4,8.7-1.4c0.1-0.1,0.1-0.2,0.2-0.3c4.1-8,0.2-29.4-3-37.9c-0.2-0.5-0.4-1.2-0.6-2
			c-3.7-15.6-3.7-74.4-2.3-110.6c0-0.9,0.1-1.7,0.1-2.6"/>
		<path class="st2" d="M217.6,196c-5-20.9-29.4-21.2-45.8-21.9c-18.8-0.8-32.5,3-39.2,8.6c-3.5,1-8.8,3-13,6.2
			c-3.1,2.3-5.6,5.3-6.4,9c-0.1,0.4-0.1,0.9-0.2,1.3c-1.5,13.2-4.5,93.7-5.9,101c-0.3,1.4-1,5.9-1.9,11.9c-0.1,0.7-0.2,1.4-0.3,2.2
			c-3.3,24.8-6.7,71,15.6,54.5c2.3-0.5,5.2-1,8.4-1.5l77.2-4"/>
	</g>
	<path id="XMLID_9628_" class="st0" d="M115.2,364c3.6-13.7-5.1-107.3-5.1-107.3"/>
	<g>
		<path id="XMLID_9627_" class="st3" d="M153.4,181.8c9.6,21.2,33.7,8.3,33.8-8c0-2.9,0-14.1,0.1-17.5c0.1-2.6,0.5-17.7-3-25.5
			c-11.2-25-42.7-2.6-31.3,16.8c-0.6,2.2-1,4.7-1.2,7.6c-0.2,3.2-1.3,13.2-1.1,16.6"/>
		<path id="XMLID_9626_" class="st4" d="M155.2,185.1c-0.5-0.9-1.1-2-1.6-3.1l-2.8-10.1c-0.3-3.5,0.9-13.4,1.1-16.6
			c0.1-3,0.6-5.5,1.2-7.6c-11.4-19.5,20.1-41.8,31.3-16.8c3.5,7.8,3.1,22.9,3,25.5c-0.1,3.4-0.2,14.6-0.2,17.5
			c0,13.7-17.3,25.1-28.4,15.5"/>
	</g>
	<g>
		<path class="st0" d="M161.3,387.4c-3.4,5.6-6.4,113.4-8.5,153.6s1.1,99.4,1.1,99.4l-16.9-1.5c0,0,3.2-98.4,0.3-124.2
			c-1-1.1-1.4-6-1.1-16.9l0,0c0-4.4,0.1-9.3,0.2-14.5c0.2-44.6-3.4-102.4-3.4-102.4"/>
		<path id="XMLID_9625_" class="st0" d="M145,507c-1.7-1-2.9,1-2.9,1"/>
		<path id="XMLID_9624_" class="st0" d="M146,521.6c0.2,0.7,2.9,1.5,2.9,1.5"/>
		<g id="XMLID_9622_">
			<path id="XMLID_9623_" class="st0" d="M142.7,635.7c-7.9-4.4,1.5-13.7,5.2-6.7"/>
		</g>
		<g id="XMLID_9620_">
			<path id="XMLID_9621_" class="st0" d="M151.8,520.3c9-1.1,3.9-13.2-2.2-8.2"/>
		</g>
		<g>
			<path class="st0" d="M129.7,650.5c-0.6,1.2-0.7,2.3-0.1,3.7c0.1,0.3,0.3,0.6,0.5,1c0.7,1.3,2.2,2.5,4.2,3.9c1.6,1,3.4,2,5.4,3.1
				c1.3,0.7,2.6,1.3,4.1,2c1.1,0.6,2.3,1.1,3.4,1.6c1.2,0.5,2.4,0.9,3.5,1.3c1.5,0.6,2.9,1,4.3,1.5c2.2,0.7,4.2,1.2,6,1.6
				c2.3,0.5,4.3,0.6,5.7,0.3c0.4,0,0.8-0.2,1.1-0.3c1.1-0.5,1.8-1.1,2.2-1.9c-6.8-6.8-11.3-15.5-8.9-26.2c-0.6-1.3-1-2.1-1-2.1
				s0-0.4-0.2-0.9c0-0.1,0-0.3-0.1-0.4v-0.2c0.1-0.6,0.3-1.3,0.6-2.4l-0.8-0.4l-0.8-0.3l-14.6-4.6c-1.6,3.5-2.6,5.8-2.8,6.3
				c0,0.1,0,0.1,0,0.1s0,0.1,0.1,0.1c-2.1,2.8-4.1,4.9-5.9,6.7c-1.9,1.9-3.6,3.4-4.8,4.8C130.3,649.4,129.9,650,129.7,650.5z"/>
			<g>
				<g id="XMLID_9618_">
					<path id="XMLID_9619_" class="st0" d="M176.7,677.5c-0.2-5.4,5.2-2.5,5.2-2.5C185.3,680.1,176.9,682.8,176.7,677.5z"/>
				</g>
				<g id="XMLID_9616_">
					<path id="XMLID_9617_" class="st0" d="M173.1,675.8c-0.1-5.9,5.8-2.7,5.8-2.7C182.7,678.7,173.3,681.7,173.1,675.8z"/>
				</g>
				<g id="XMLID_9614_">
					<path id="XMLID_9615_" class="st0" d="M168.8,673.6c-0.2-6.9,6.7-3.2,6.7-3.2C179.8,677,168.9,680.5,168.8,673.6z"/>
				</g>
				<g id="XMLID_9612_">
					<path id="XMLID_9613_" class="st0" d="M163.2,671c-0.2-7.9,7.7-3.7,7.7-3.7C175.9,674.7,163.4,678.8,163.2,671z"/>
				</g>
				<path id="XMLID_9611_" class="st0" d="M150.9,665.5c1.8-2.5,12.5-5.6,14.4,2.6s-7.6,3.5-7.6,3.5S149.2,667.9,150.9,665.5z"/>
			</g>
		</g>
	</g>
	<g>
		<g id="XMLID_9609_">
			<path id="XMLID_9610_" class="st0" d="M116,314.9c-9-1.1-3.9-13.2,2.2-8.2"/>
		</g>
		<path id="XMLID_9608_" class="st0" d="M128.3,205.4c1.7,32.8,4.1,72.6,2.1,85.2c-3.4,22,0,126.4,0,126.4l-16.9,1.5
			c0,0,3.2-59.2,1.1-99.4c-1-18.3-2.1-51-3.4-81.4"/>
		<path id="XMLID_9607_" class="st0" d="M118.9,308.9c0-1.9,2.3-2,2.3-2"/>
		<path id="XMLID_9606_" class="st0" d="M124.8,311.9c-0.2,0.6-2.9,1.5-2.9,1.5"/>
		<g id="XMLID_9593_">
			<path id="XMLID_9605_" class="st3" d="M130.3,416.3l-16.2-3.8c0,0-21.4,35-14.1,35.1c3.9,0.1,5.3-0.9,5.9-1.9
				c-0.5,3.3-0.8,9.4,4.8,6.5l0.1-1.5c1.3,2.1,5.5,8.4,8.9,2l1.1-0.5c2.5,2.1,7.7,5.3,6.9-5.5c1.5,0.1,3.5,0,6.4-0.8
				C148.9,442.1,130.3,416.2,130.3,416.3z"/>
			<path id="XMLID_9604_" class="st0" d="M114.1,412.4c0,0-21.4,35-14.1,35.1c3.9,0.1,5.3-0.9,5.9-1.9c-0.5,3.3-0.8,9.4,4.8,6.5
				l0.1-1.5c1.3,2.1,5.5,8.4,8.9,2l1.1-0.5c2.5,2.1,7.7,5.3,6.9-5.5c1.5,0.1,3.5,0,6.4-0.8c14.8-3.7-3.8-29.6-3.8-29.6"/>
			<g id="XMLID_9597_">
				<g id="XMLID_9599_">
					<path id="XMLID_9603_" class="st1" d="M110.6,452.2c-7.5,3.8-4.4-8.4-4.4-8.4c-0.1,0.3,1.1,3.9-6.2,3.8
						c-7.3-0.1,14.1-35.1,14.1-35.1"/>
					<path id="XMLID_9602_" class="st1" d="M120,452.1c-4.2,8.4-9.4-2.1-9.4-2.1"/>
					<path id="XMLID_9601_" class="st1" d="M130.9,439.6c-4.2-0.4-11.6,9.9,3.2,6.2s-3.8-29.6-3.8-29.6"/>
					<path id="XMLID_9600_" class="st1" d="M127.1,437.4l0.5,8c1.7,15.9-8.1,5.5-8.1,5.5"/>
				</g>
				<path id="XMLID_9598_" class="st1" d="M116.7,400.6c-10,0.8,0,10.9,0,10.9"/>
			</g>
			<path id="XMLID_9596_" class="st0" d="M120,444.4c0.8-2.6,0.4-7.5,0.4-7.5"/>
			<path id="XMLID_9595_" class="st0" d="M111.6,446.2c0.8,0,0.9-3.5,0.9-3.5"/>
			<path id="XMLID_9594_" class="st1" d="M108,435.7c0,0,2.9-4.8,3.6-7"/>
		</g>
	</g>
	<path id="XMLID_9592_" class="st2" d="M134.1,185.3c-9.1,2.5-16.8,5.2-18.7,8.1c-5.6,8.1-12.3,97.9,1.4,98.4s15.6-0.1,15.3-5
		s6-61.3,3.8-65.5"/>
	<g>
		<path class="st5" d="M140.9,222.5c0.3,6.9,4,7.2,12.1,6.1c8.2-1,3.7-16.3,2.8-21.1c-0.9-4.7-14.6,0.4-14.6,0.4
			S140.6,215.6,140.9,222.5z"/>
		<g>
			<path id="XMLID_9591_" class="st0" d="M141,211.2c-1-1.5,0.8-2.9,0.8-2.9"/>
			<path id="XMLID_9590_" class="st0" d="M157.4,210c-0.7-1.2-3.2-2.4-3.2-2.4"/>
			<path id="XMLID_9589_" class="st0" d="M141.1,215.3c-0.5,1.4,0.3,4,0.3,4"/>
			<path id="XMLID_9588_" class="st0" d="M151,228.6c1.3,0.3,3.9-0.8,3.9-0.8"/>
			<path id="XMLID_9587_" class="st0" d="M145.6,227.2c-1.7,0.7-2.6-1.4-2.6-1.4"/>
			<path id="XMLID_9586_" class="st0" d="M157.9,217.3c-0.5-0.5-0.9-2.4-0.9-2.4"/>
			<line id="XMLID_9585_" class="st4" x1="149.9" y1="207" x2="147.2" y2="207.1"/>
			<path id="XMLID_9584_" class="st0" d="M158,226c0.5-1.3-0.1-4-0.1-4"/>
		</g>
		<g>
			<path id="XMLID_9583_" class="st0" d="M188.4,391.7c1.3,1.7-0.4,4.6-0.4,4.6"/>
			<path id="XMLID_9582_" class="st0" d="M186.4,387.3c-0.3-1.4-2.2-3.4-2.2-3.4"/>
			<path id="XMLID_9581_" class="st0" d="M183.5,404.5c1-0.9,1.8-3.5,1.8-3.5"/>
		</g>
	</g>
	<g id="XMLID_9525_">
		<g id="XMLID_9577_">
			<path id="XMLID_9580_" class="st0" d="M208,112.9c0,0,0.1,5.4,6.6,7.8s11.4-17.1,11-35.2c-0.5-18.1-18,5.1-18,5.1"/>
			<path id="XMLID_9579_" class="st0" d="M222,86.2c-1.8-5-8.6,5.6-8.6,5.6"/>
			<path id="XMLID_9578_" class="st0" d="M212.6,105.6c1.7,6.5,5.4,2.6,6.8-3.2c1.5-5.9-8.6-3.2-8.6-3.2"/>
		</g>
		<path id="XMLID_9576_" class="st6" d="M153.5,17.6c8.2-2.6,1.6-8.4,1.6-8.4C148,6.3,145.3,20.2,153.5,17.6z"/>
		<path id="XMLID_9575_" class="st0" d="M207.9,136.7c-3.3,16.5-19.5,38.2-49.1,31.9s-27.8-17.7-35-79.6S169,23.3,169,23.3
			C234.8,31.4,211.2,120.2,207.9,136.7z"/>
		<path class="st7" d="M124,89c7.3,62,5.3,73.3,34.9,79.6c20.9,4.5,35.1-5.1,42.8-16.9c-7.8,4.9-18,7.3-30.7,4.6
			c-29.5-6.3-27.5-17.7-34.9-79.6c-2.4-20.5,1.7-34.5,8.3-44.3C131.9,41,120.1,57.4,124,89z"/>
		<path id="XMLID_9574_" class="st2" d="M126.3,55.7c0,0,18.5-8.8,38.1-16.7c15.5,3.8,32.4,5.3,32.4,4c-0.1-13.5-3.9-49.2-41.5-32.2
			c-8.8,2.7-18.3,8-24.2,17.2c-0.5,0.7-0.9,1.4-1.3,2.1l0,0h-0.1c-1.8,3.4-2.7,6-2.9,8C125,44.2,126.3,55.7,126.3,55.7z"/>
		<path id="XMLID_9573_" class="st0" d="M152.9,97c12.1,4.3,21.5-2.7,21.5-2.7"/>
		<path id="XMLID_9572_" class="st0" d="M215.6,96.4c-3.2,1.4-18.3-1.8-18.3-1.8"/>
		<path id="XMLID_9571_" class="st0" d="M161.8,165.8c-2.5,4.8,5.9,8.2,18.8,5.7s6.7-8.3,6.7-8.3"/>
		<path id="XMLID_9570_" class="st2" d="M219.8,41.2c0,0,6.1-8.8-17-10.3c-23-1.4-68.6-1.3-76.2,24.7c0,0,12.4-5.5,35.9-10.7
			s43.6,3,43.6,3C216.3,45.4,219.8,41.2,219.8,41.2z"/>
		<path id="XMLID_9569_" class="st0" d="M126.6,55.6c0,0,9.1-23.7,64.2-21.2s15.3,13.5,15.3,13.5C177.5,33.6,126.6,55.6,126.6,55.6z
			"/>
		<g>
			<path id="XMLID_9568_" class="st0" d="M187,80.6c0.2,6.5-9.2,18.3-9.2,18.3"/>
			<g id="XMLID_9565_">
				<path id="XMLID_9567_" class="st0" d="M186.4,105.2c0.5,0.2,1,0.4,1.6,0.6c0.8,0.3,1.8,0.3,2.9,0.1c2-0.5,3-2.6,3.3-5.7"/>
				<path id="XMLID_9566_" class="st0" d="M193.2,95.6c-2-13.5-9.2-32.8-9.2-32.8"/>
			</g>
			<g id="XMLID_9559_">
				<path id="XMLID_9564_" class="st0" d="M193.4,112.2c11.1-2.3,4.2-10.4,4.2-10.4"/>
				<path id="XMLID_9563_" class="st0" d="M181.5,112.2c-10.5-4.2-3.1-10.4-3.1-10.4"/>
				<path id="XMLID_9562_" class="st0" d="M181.8,108.7c-1.6-0.5-2.9,0.1-1.7-1.8s2.7,0.3,3.8,0C185,106.6,183.4,109.1,181.8,108.7z
					"/>
				<path id="XMLID_9561_" class="st0" d="M193.2,107.9c1.2-0.7,2.4-1.2,2.8-0.9c1.1,0.9,0.6,2.6-1.5,2.7
					C194.5,109.7,192.4,108.4,193.2,107.9z"/>
				<path id="XMLID_9560_" class="st0" d="M184.3,98.3c0.5-0.8,2.7-0.7,2.7-0.7"/>
			</g>
			<path id="XMLID_9558_" class="st0" d="M209.5,110.5c-1.7-0.6-7.8-3.7-7.8-3.7"/>
			<path id="XMLID_9557_" class="st0" d="M166.2,108.5c0.7,0.1,7.8-3.3,7.8-3.3"/>
		</g>
		<path id="XMLID_9556_" class="st0" d="M144.4,77.8c-1.6-0.9-0.6-3-0.6-3"/>
		<path id="XMLID_9555_" class="st0" d="M150.3,98.3c-0.6-0.7-1-2.5-1-2.5"/>
		<path id="XMLID_9554_" class="st0" d="M148.7,55.8c-0.8,0,0,3.5,0,3.5"/>
		<path id="XMLID_9553_" class="st0" d="M196.9,48.4c-0.4-0.5,2.9-1,2.9-1"/>
		<path id="XMLID_9552_" class="st0" d="M175.5,52.3c0.3,0.8,4.1,1.3,4.1,1.3"/>
		<path id="XMLID_9551_" class="st0" d="M195.4,149.1c0.2-0.6,3-1.2,3-1.2"/>
		<path id="XMLID_9550_" class="st0" d="M178.3,151.5c-0.7-1.2-3.3-2.4-3.3-2.4"/>
		<path id="XMLID_9549_" class="st0" d="M201,87.5"/>
		<path id="XMLID_9548_" class="st0" d="M182.7,89.6"/>
		<line id="XMLID_9547_" class="st4" x1="153.8" y1="109.3" x2="156.5" y2="110"/>
		<path id="XMLID_9546_" class="st0" d="M132.6,119.4c0,0,0.3,5.3-5.9,8.3s-12.8-16.1-13.9-34.1c-1-18,18.4,3.6,18.4,3.6"/>
		<path id="XMLID_9545_" class="st0" d="M116.6,94.1c1.3-5.2,9,4.8,9,4.8"/>
		<path id="XMLID_9544_" class="st0" d="M127.6,112.6c-1.2,6.5-5.2,3-7.1-2.7s8.3-3.9,8.3-3.9"/>
		<g>
			<path id="XMLID_9543_" class="st8" d="M190.7,81.1c-13-28.9,22.8-25.4,22.8-25.4C243.5,75.8,203.7,110,190.7,81.1z"/>
			<path id="XMLID_9542_" class="st6" d="M207.1,74c-0.5-5.6,4.8-3.4,4.8-3.4C215.6,75.4,207.6,79.6,207.1,74z"/>
			<path id="XMLID_9541_" class="st8" d="M167.3,93.4c32.6-10.6,6.4-33.7,6.4-33.7C145.2,48,134.7,104,167.3,93.4z"/>
			<path id="XMLID_9540_" class="st6" d="M150.7,77.2c-0.6-5.6,4.8-3.4,4.8-3.4C159.2,78.6,151.3,82.8,150.7,77.2z"/>
			<path id="XMLID_9539_" class="st6" d="M150.7,62.3c-0.9,3,15.6,11.2,24.3,2.7s-3.4-9.9-3.4-9.9C153.2,54.2,151.7,59.3,150.7,62.3
				z"/>
			<path id="XMLID_9538_" class="st6" d="M191.6,54.6c1.2,4.5,16.5,15,25.1,4.7c8.6-10.3-10-9.3-10-9.3S190.4,50.1,191.6,54.6z"/>
			<g id="XMLID_9535_">
				<path id="XMLID_9537_" class="st0" d="M157.1,94.2c0.7,0.2,1.3,0.3,2.1,0.4c6.4,0.4,16.9-5.2,16.9-5.2c-7-1.9-19.1-1.1-19.1-1.1
					l-5.7,0.4c0,0-5.1,0.8-2.9,3.2c1,1,1.9,0.9,2.8,0.7c0.3,0,0.5-0.1,0.7-0.2C153,92.1,156.6,94,157.1,94.2z"/>
				<path id="XMLID_9536_" class="st0" d="M215.4,86.6c0,0,5.1,0.8,2.9,3.2c-2.3,2.4-3.1,0.1-7.2,1.3c-12.5,3.8-16.4-4.6-16.4-4.6
					c7.8-2.4,14.9-1.1,14.9-1.1L215.4,86.6z"/>
			</g>
		</g>
		<g id="XMLID_9530_">
			<path id="XMLID_9534_" class="st6" d="M209.8,135.9c10.7-7-8.5-9.5-8.5-9.5S199.1,142.8,209.8,135.9z"/>
			<path id="XMLID_9533_" class="st6" d="M191.3,124.4c1.1,3.5,14.1,11.9,21.4,3.7c7.2-8.1-8.6-7.3-8.6-7.3S190.2,120.9,191.3,124.4
				z"/>
			<path id="XMLID_9532_" class="st6" d="M163.3,137.3c0.8,2.8,14.2,4.5,15.5-5.3s-6.4-7.2-6.4-7.2
				C161.2,129.8,162.5,134.5,163.3,137.3z"/>
			<path id="XMLID_9531_" class="st6" d="M179.3,130.2c22.2-10.8-0.3-8-0.3-8C153.4,125.6,157.1,141,179.3,130.2z"/>
		</g>
		<g id="XMLID_9526_">
			<path id="XMLID_9529_" class="st0" d="M180.8,135.8c6.5,11.6,18.3,0,18.3,0"/>
			<path id="XMLID_9528_" class="st0" d="M190.7,134c2.5-3.4,5.7,0,5.7,0"/>
			<path id="XMLID_9527_" class="st0" d="M190.7,134c-2.4-3.4-5.6,0-5.6,0"/>
		</g>
	</g>
	<path id="XMLID_9524_" class="st0" d="M153.8,190.1c0.7,1.3,1.5,1.9,2.4,2.2"/>
	<path id="XMLID_9523_" class="st0" d="M186.9,187.5c0.8-1,1-2.1,1-2.1"/>
	<path id="XMLID_9522_" class="st0" d="M179.9,195.3c0.3-0.1,0.7-0.3,0.9-0.4"/>
	<path id="XMLID_9521_" class="st2" d="M209.4,230.4c-4.5,13.5-1.7,107.4-1.7,107.4"/>
</g>
</svg>
