<?xml version="1.0" encoding="utf-8"?>
<!-- Generator: Adobe Illustrator 22.1.0, SVG Export Plug-In . SVG Version: 6.00 Build 0)  -->
<svg version="1.1" id="Layer_1" xmlns="http://www.w3.org/2000/svg" xmlns:xlink="http://www.w3.org/1999/xlink" x="0px" y="0px"
	 viewBox="0 0 464.1 1401.5" style="enable-background:new 0 0 464.1 1401.5;" xml:space="preserve">
<style type="text/css">
	.st0{opacity:0.1;fill:#231F20;stroke:#231F20;stroke-miterlimit:10;enable-background:new    ;}
	.st1{fill:#A36B78;stroke:#584C4F;stroke-width:2;stroke-linecap:round;stroke-miterlimit:10;}
	.st2{fill:#A36B78;stroke:#584C4F;stroke-width:2;stroke-linecap:round;stroke-linejoin:round;stroke-miterlimit:10;}
	.st3{fill:#FFD767;stroke:#584C4F;stroke-width:2;stroke-miterlimit:10;}
	.st4{fill:#A36B78;}
	.st5{fill:none;stroke:#584C4F;stroke-width:2;stroke-linecap:round;stroke-miterlimit:10;}
	.st6{fill:#BEAB72;}
	.st7{fill:#584C4F;stroke:#584C4F;stroke-width:2;stroke-linecap:round;stroke-miterlimit:10;}
	.st8{fill:#FFFFFF;stroke:#584C4F;stroke-width:2;stroke-linecap:round;stroke-miterlimit:10;}
</style>
<g id="Layer_5">
</g>
<g id="Layer_3">
</g>
<g>
	<path class="st0" d="M256.8,1401.4c30.3,1.3,253.4-15.7,182.1-121.2c-35.8-53-120.4-70.2-195.7-74.2c-0.4-56.4-0.4-144.7,3.4-183
		c9.9,0.6,11.2-13.4,3-16.8c0.5-5.2,0.6-12.7,0.5-22.8l0-0.1c0.1-8.3,0.1-17.8,0-28c0.4-30.8,1.8-64.9,3.5-96
		c6.2-8,16.1-22.5,15-18.6c-1.8,6.4-29.5,132.4-7.1,55.1c22.4-77.3,13.3-28,13.3-28c-1.8,106.6,8.5,21.6,11.4,8.2
		c2.8-13.4,19.6,71.4,17,29.6c-2.7-41.8,0.9-45.3,7.4-10.4c6.5,34.8,4.2-47,4.2-47s-0.9-18.2-5.1-22.7c-0.1-1.7-0.1-3.6-0.2-5.9
		c9.6-2.2,4.7-8.9-0.4-13.5c-0.3-11.9-0.6-27.3-0.8-44.6c0.1-0.1,0.1-0.2,0.1-0.3l0.1-0.1c0.1-0.4,0.2-1,0.3-1.7
		c0.3-2,0.5-4.1,0.6-6.1c0.6-6.2,1.2-15.3,1.6-25.2c2-0.8,3.6-2.3,5-4.4c0.2-0.2,0.3-0.4,0.4-0.6c8.6-15.3,1.4-56.9-4.6-73.4
		c-0.4-1.1-0.8-2.5-1.1-4c0-0.1-0.1-0.3-0.1-0.4c0.1-2.4,0.3-4.7,0.4-7c0.1-2.7,0.4-5.5,0.5-8.4c10.5,0.5,11.3-15.4,1.1-17.3
		c0.7-10.6,1.4-22.4,2.1-34.9c22-17.7,12.2-173.8,2-188.9c-2.4-3.6-9.7-7.3-19.4-10.7c-0.7-0.7-1.4-1.3-2.1-2
		c-0.1-0.1-0.1-0.1-0.2-0.2c-0.8-0.7-1.5-1.3-2.3-1.9c-0.1-0.1-0.2-0.2-0.3-0.3c-0.7-0.6-1.5-1.2-2.3-1.7c-0.1-0.1-0.3-0.2-0.4-0.3
		c-0.8-0.5-1.6-1-2.4-1.5c-0.1,0-0.3-0.1-0.4-0.2c-0.8-0.5-1.6-1-2.5-1.4c-0.1-0.1-0.2-0.1-0.3-0.2c-0.9-0.4-1.8-0.9-2.7-1.3
		c-0.1-0.1-0.1-0.1-0.2-0.1c-0.9-0.4-1.8-0.8-2.8-1.2c-0.1,0-0.1-0.1-0.2-0.1c-1-0.4-1.9-0.8-2.9-1.2c-0.1,0-0.3-0.1-0.4-0.1
		c-1-0.3-1.9-0.6-2.9-1c-0.2,0-0.3-0.1-0.5-0.1c-1-0.3-1.9-0.5-2.9-0.9c-0.2,0-0.3-0.1-0.5-0.1c-1-0.2-2-0.5-3-0.8
		c-0.1,0-0.3-0.1-0.4-0.1c-1-0.3-2.1-0.5-3.1-0.8c0,0-0.1,0-0.2,0c-1.1-0.2-2.1-0.4-3.2-0.7l-0.1,0c-1.1-0.2-2.1-0.3-3.2-0.6
		c-0.1-0.1-0.3-0.1-0.4-0.1c-1-0.1-2.1-0.3-3.1-0.5c-0.2-0.1-0.3-0.1-0.5-0.1c-1-0.1-1.9-0.2-2.9-0.4l0,0c0.1-0.7,0.1-1.4,0.1-2.2
		c0.1-1.9,0.2-5.4,0.3-9.6c4.1-2.9,3.5-6.2,2.3-8.5c0.5-0.3,0.9-0.5,1.4-0.8c0.1,0,0.1,0,0.1,0c0.8-0.4,1.6-0.9,2.3-1.4
		c0.1-0.1,0.2-0.1,0.3-0.2c0.6-0.4,1.3-0.9,1.9-1.3c0.1-0.1,0.2-0.1,0.3-0.2c0.8-0.5,1.5-1.1,2.2-1.6l0,0c0.7-0.5,1.3-1.1,2-1.6
		c0.1,0,0.2-0.1,0.3-0.2c1.3-1.1,2.6-2.2,4-3.3c0.1-0.1,0.1-0.1,0.2-0.2c0.6-0.6,1.2-1.2,1.8-1.8l0,0c0.7-0.6,1.3-1.3,1.9-1.9l0,0
		c0.6-0.6,1.1-1.3,1.7-1.9l0.1-0.1c1.1-1.3,2.2-2.7,3.3-3.9l0.1-0.1c1.1-1.4,2.1-2.8,3.1-4.1l0,0l0,0c6.4-9.2,10.6-19.1,12.7-28.3
		c1.2-0.5,2.5-1.2,3.9-2c8.9-5.3,7.7-9.5,3.1-12.4c1-0.7,2-1.6,2.9-2.5c7.6-7.9,3.1-11.5-3.1-13.2c0.3-1.5,0.7-3.1,1-4.7
		c1.7,1.3,3.8,2.6,6.3,3.6c12.8,4.9,23.4-32.7,23.1-67.7c-0.1-7.4-1.7-11.2-4.3-12.8c4.8-12,2.9-26.7-11.6-39.6
		c12.5-15.5-10.9-17-18.5-17c-0.7-1.5-1.3-2.9-2.1-4.3c6.8-1.5,12.2-3.5,16.1-5.4c4.6-2,8.9-4.3,10.1-6.8
		c0.5-0.6,11.7-16.9-33.4-20.5c-4.4-0.4-9.2-0.7-14.4-1c-4.9-29-22.1-62.9-78.3-40.5c-1.1-1.3-2.1-2.2-2.1-2.2c-7-3-12,2.3-13.2,7.7
		c-13.4,5.7-26.6,14.5-35.4,27.8c-1,1.5-1.9,2.9-2.7,4.2l0,0c0,0-0.1,0-0.1,0.1c-3.7,6.3-5.6,11.3-6.1,15.3
		c-3.9,11.8-1.6,34.2-1.6,34.2s0.2-0.1,0.6-0.3c0,0.1,0,0.1,0,0.1s0,0,0.1,0c-0.1,0.2-0.1,0.4-0.2,0.6c-0.2,0.7-0.5,1.4-0.7,2.1
		c-0.2,0.6-0.3,1.1-0.5,1.6c-0.2,0.7-0.4,1.4-0.6,2.1c-0.2,0.5-0.3,1-0.5,1.6c-0.2,0.7-0.4,1.5-0.6,2.2c-0.1,0.5-0.3,1.1-0.4,1.7
		c-0.2,0.7-0.3,1.5-0.5,2.2c-0.1,0.6-0.3,1.2-0.4,1.8c-0.1,0.8-0.3,1.5-0.4,2.3c-0.1,0.6-0.2,1.3-0.3,1.9c-0.2,0.8-0.3,1.6-0.4,2.4
		c-0.1,0.7-0.2,1.3-0.3,2c-0.1,0.8-0.2,1.6-0.3,2.4c-0.1,0.7-0.1,1.4-0.2,2.1c-0.1,0.8-0.1,1.7-0.2,2.5c-0.1,0.7-0.2,1.4-0.2,2.1
		c0,0.8-0.1,1.7-0.1,2.6c0,0.7-0.1,1.5-0.1,2.2c0,0.9,0,1.8,0,2.7c0,0.7,0,1.5,0,2.2c0,1,0.1,1.9,0,2.9c0,0.7,0,1.5,0,2.2
		c0.1,1,0.1,2.1,0.1,3.1c0,0.8,0.1,1.5,0.1,2.2c0.1,1.2,0.2,2.4,0.2,3.6c0,0.7,0,1.3,0.1,1.9c0.2,1.8,0.3,3.6,0.5,5.5
		c0,0.1,0,0.1,0,0.1c0.1,0.9,0.2,1.9,0.3,2.8c-10.7-8.6-23.3-14.7-22.4,5.8c1.6,34.9,14.1,72.1,26.6,66.5c1.1-0.6,2.1-1.1,3-1.6
		c0.3,2.2,0.5,4.3,0.8,6.4c0.3,2.2,0.6,4.4,0.9,6.5c0.7,5.2,1.5,10.1,2.4,14.5c0.7,3.5,1.5,6.8,2.3,9.9c0.2,0.8,0.5,1.6,0.7,2.3
		c1.4,4.4,3,8.5,4.7,12c0.3,0.6,0.6,1.1,0.9,1.7c0.6,1.2,1.3,2.3,1.9,3.3c0.4,0.5,0.7,1,1.1,1.5c1.3,1.8,2.6,3.4,4.1,5
		c5.9,6.2,13.6,10.5,24,14c-0.5,4.2-0.6,8.1-0.6,10.4l1.8,6.4c-17,2.5-30.1,7.5-38.1,13.7c-7,2-17.7,5.6-26.2,11.6
		c-6.2,4.4-11.3,10-13,17.2c-0.2,0.8-0.3,1.7-0.4,2.5c-0.2,1.6-0.5,3.7-0.7,6.2c-6.1,29.9-11.7,89.3-9.3,130.2
		c-2.1,29.7-3.9,53.7-5.1,58.9c-0.5,2.8-2.3,11.5-4.2,23c-0.2,1.5-0.5,2.9-0.7,4.4c-6.1,39.3-12.9,106.4,9.7,112.2
		c0.2,16.6,0.7,30,0.7,30s0.2,0,0.5,0c0.7,5.9,2.4,12.1,5.1,18.5c-0.1,2.7-0.3,5.2-0.4,7.7c-6.2,2.4-4,8.4-0.8,13.3
		c-0.3,3.8-0.5,7.2-0.7,10c-0.7,1.1-1.7,2.8-3.1,4.8C80,838.3,53.2,882.6,65.1,883c0.1,0,0.3,0,0.4,0c0.3,0,0.6,0,0.9,0
		c0.1,0,0.3,0,0.5,0s0.5,0,0.7,0s0.3,0,0.5,0s0.4,0,0.6,0c0.2,0,0.3,0,0.5,0c0.2-0.1,0.4-0.1,0.6-0.1c0.1-0.1,0.3-0.1,0.4-0.1
		c0.2,0,0.4-0.1,0.6-0.1c0.1-0.1,0.2-0.1,0.3-0.1c0.2,0,0.4-0.1,0.6-0.1c0.1-0.1,0.2-0.1,0.3-0.1c0.2-0.1,0.4-0.1,0.6-0.2
		c0.1-0.1,0.1-0.1,0.2-0.1c0.2-0.1,0.4-0.1,0.6-0.2l0.1,0c0.2,0,0.4-0.1,0.6-0.2l0,0c1.4-0.7,2.2-1.5,2.7-2.3
		c-0.1,0.3-0.1,0.7-0.2,1.1l0,0.1c-0.1,0.1-0.1,0.3-0.1,0.5c0,0,0,0.1,0,0.2c-0.1,0.2-0.1,0.5-0.1,0.7c0,0.2,0,0.3,0,0.5
		c0,0.1,0,0.3,0,0.4c0,0.1,0,0.3,0,0.4c0,0.1,0,0.3,0,0.4c0,0.1,0,0.3,0,0.5c0,0.1,0,0.2,0,0.3c0,0.3,0,0.5,0,0.8c0,0.1,0,0.2,0,0.3
		c0,0.2,0,0.4,0,0.6c0,0.1,0,0.2,0,0.3c0.1,0.2,0.1,0.5,0.1,0.7c0,0.1,0,0.1,0,0.2c0,0.3,0.1,0.5,0.1,0.8c0,0.1,0,0.1,0,0.2
		c0,0.2,0,0.4,0.1,0.6c0.1,0.1,0.1,0.1,0.1,0.2c0.1,0.3,0.1,0.5,0.2,0.7c0,0.1,0,0.1,0,0.1c0.1,0.3,0.2,0.5,0.3,0.7
		c0.1,0,0.1,0.1,0.1,0.1c0.1,0.2,0.2,0.3,0.3,0.5l0.1,0.1c0.1,0.2,0.3,0.3,0.4,0.5l0,0c0.2,0.2,0.3,0.4,0.5,0.5l0.1,0.1
		c0.2,0.1,0.3,0.2,0.5,0.3c0.1,0,0.1,0.1,0.2,0.1c0.2,0.1,0.4,0.1,0.6,0.2l0,0c0.2,0,0.4,0.1,0.7,0.1c0.1,0,0.1,0,0.2,0
		c0.2,0,0.4,0,0.6,0c0,0,0.1,0,0.2,0c0.3,0,0.6,0,0.9-0.1l0,0c0.3,0,0.7-0.1,1-0.2c0.1,0,0.2-0.1,0.3-0.1c0.2-0.1,0.5-0.2,0.8-0.3
		c0.1,0,0.2-0.1,0.3-0.1c0.4-0.1,0.8-0.3,1.2-0.5l0,0l0.4-3l0,0c0,0,0.1,0.1,0.1,0.2s0.1,0.1,0.1,0.2c0.1,0.1,0.1,0.2,0.2,0.3
		c0,0.1,0.1,0.1,0.1,0.2c0.1,0.1,0.1,0.2,0.2,0.3c0,0.1,0.1,0.1,0.1,0.2c3.1,4.9,10.4,13.7,16.8,2.6l2.2-0.9
		c4.9,4.2,15.3,10.6,14.1-10.4c1.8,0.2,4,0.2,6.9-0.2l0,0c0.5-0.1,1.1-0.2,1.7-0.3l0.1,0c0.6-0.2,1.2-0.3,1.8-0.4
		c0.1,0,0.3-0.1,0.4-0.1c0.6-0.1,1.3-0.2,1.9-0.4l0,0c1.3-0.3,2.4-0.7,3.5-1.1c0.3,24.7,0.2,50.2-0.3,73.8c-0.5,10.2-0.8,19.6-1,28
		l0,0.1c-1,21.1-0.2,30.5,1.5,32.7c3.5,34.2,0,133.8-2.6,193.6c-19.2,1.6-31.1,3.2-31.1,3.2c-50.1,11-89.8,37.9-112.4,106.9
		C-31.6,1386.8,226.5,1400.2,256.8,1401.4z M135.9,838.7c-4.6-8.8-9.4-15.5-9.4-15.5l-0.1,0c-0.1-1.9-0.1-5.2-0.1-9.6
		c2.8,0.8,5.8,1.7,9.1,2.6C135.5,823.3,135.7,830.8,135.9,838.7z M254,851.2c0.7-13.5,1.5-26.2,2.3-37.8c7.8-2.9,14.8-6.4,21-10.4
		c-0.4,9.2-0.8,16.3-1,20.5l-0.2,0C264.5,834.7,259.6,839.8,254,851.2z M213.2,1205.1c-17.4-0.2-33.8,0.2-48.4,0.9
		c-0.7-40.2-0.7-96.1,2.3-140.3c0.8-11.3,1.6-25.3,2.6-41c9.4-3.1,7.2-14.2,1-16.9c3.4-59,7.7-135.3,11.7-185.7
		c5.7,0.3,11.9,0.4,18.5,0.4c2.6,0,5.2-0.1,7.7-0.2c3.2,69.9,4.9,189.3,6.8,244.2C217.1,1110.1,215.1,1165.1,213.2,1205.1z"/>
	<g>
		<g>
			<g id="XMLID_4075_">
				<path id="XMLID_4076_" class="st1" d="M334.2,602.6c17.4-4.8,17.2,21.4,2.1,16.9"/>
			</g>
			<path id="XMLID_4074_" class="st1" d="M318.3,355.8c-4,67.8-14.6,184.1-10.3,215.6c6.1,44-4.4,252.7-4.4,252.7l33.7,3.5
				c0,0-4.3-118.4,1.2-198.8c3.1-44.4,7.4-129.9,11.9-199.4"/>
			<g id="XMLID_4072_">
				<path id="XMLID_4073_" class="st1" d="M334.5,821.1c6.6-2.2,7.8,24.3,7.8,24.3s2.2,84.6-4.2,48.5c-6.5-36.1-9.9-32.5-7.4,10.7
					c2.5,43.2-14.1-44.3-17-30.6c-2.8,13.7-13.3,101.6-11.4-8.5c0,0,9.1-50.9-13.3,28.9s5.4-50.3,7.1-57
					c1.7-6.7-26.4,38.6-18.5,19.9c7.8-18.8,12-23.4,26.2-37.6"/>
			</g>
			<path id="XMLID_4071_" class="st1" d="M320.5,605.6c0.4-1.2,6-2.3,6-2.3"/>
			<path id="XMLID_4070_" class="st1" d="M332.6,614c-1.1,3.5-5.5,2.6-5.5,2.6"/>
			<path id="XMLID_4069_" class="st2" d="M330.4,816.6c27.2-0.9,0.3-19.7,0.3-19.7"/>
		</g>
		<path id="XMLID_4068_" class="st3" d="M307.5,354.4c18.1,5.1,33.3,11,37.1,16.8c10.8,16.5,21.1,196.3-6.3,196.8
			s-31.2-0.7-30.4-10.4c0.8-9.8-9.9-122.8-5.3-131.2"/>
		<g>
			<path class="st1" d="M223.4,1307.8c-0.1,2.5,0.5,4.7,2.6,6.8c0.5,0.5,1.1,1,1.8,1.5c2.3,1.7,6,3,10.7,4.1
				c3.6,0.8,7.7,1.3,12.3,1.8c2.9,0.4,5.9,0.6,9.1,0.8c2.4,0.2,4.9,0.3,7.4,0.4c2.5-0.1,5-0.1,7.4-0.2c3.2-0.1,6.2-0.3,9.1-0.4
				c4.6-0.2,8.7-0.7,12.3-1.4c4.7-0.8,8.5-2.1,10.9-3.7c0.7-0.5,1.3-1,1.8-1.5c1.6-1.6,2.5-3.3,2.7-5.1
				c-17.6-7.7-32.2-20.7-35.7-42.2c-2.1-2-3.3-3.3-3.3-3.3s-0.4-0.6-1.1-1.4c-0.1-0.2-0.3-0.4-0.5-0.6c0-0.1-0.1-0.3-0.1-0.4
				c-0.3-1-0.5-2.6-0.6-4.8l-1.7-0.1l-1.7,0.1l-30.5,2.2c-0.3,7.8-0.5,12.7-0.5,13.8c0,0.1,0,0.2,0,0.2s0.1,0,0.3,0
				c-1.8,6.7-4,12.1-6.1,16.8c-2.2,5-4.3,9-5.4,12.5C224,1305.3,223.6,1306.6,223.4,1307.8z"/>
			<path class="st1" d="M231.5,763.3c6.7,11.3,8.9,226.9,11.6,307.4c2.7,80.6-5.8,198.7-5.8,198.7l33.8-2.3c0,0-3.1-196.9,3.7-248.4
				c1.8-2.2,2.9-12,2.7-33.8l0-0.1c0.2-8.7,0.1-18.5,0-29c1.1-89.3,10.4-204.8,10.4-204.8"/>
			<g>
				<g id="XMLID_4066_">
					<path id="XMLID_4067_" class="st1" d="M330.9,1323.6c-4.2-9.9,7.8-8.5,7.8-8.5C348.8,1322,335.1,1333.3,330.9,1323.6z"/>
				</g>
				<g id="XMLID_4064_">
					<path id="XMLID_4065_" class="st1" d="M323.1,1323c-4.6-10.9,8.8-9.3,8.8-9.3C343,1321.3,327.8,1333.9,323.1,1323z"/>
				</g>
				<g id="XMLID_4062_">
					<path id="XMLID_4063_" class="st1" d="M313.2,1322.1c-5.4-12.7,10.2-10.9,10.2-10.9C336.3,1320.2,318.7,1334.8,313.2,1322.1z"
						/>
				</g>
				<g id="XMLID_4060_">
					<path id="XMLID_4061_" class="st1" d="M301,1321.2c-6.2-14.5,11.6-12.5,11.6-12.5C327.4,1319.1,307.1,1335.7,301,1321.2z"/>
				</g>
				<path id="XMLID_4059_" class="st1" d="M274.2,1320c1.5-5.9,19.1-19.7,28.7-5.7c9.6,14-11.6,12.2-11.6,12.2
					S272.7,1326,274.2,1320z"/>
			</g>
			<path id="XMLID_4058_" class="st1" d="M250.8,1004.9c0.1-3.7,4.7-3.9,4.7-3.9"/>
			<path id="XMLID_4057_" class="st1" d="M267.8,1031.5c-0.3,1.3-5.8,2.9-5.8,2.9"/>
			<g id="XMLID_4055_">
				<path id="XMLID_4056_" class="st1" d="M270.2,1258.3c17.9,2.5,7.2,26.5-4.8,16.3"/>
			</g>
			<g id="XMLID_4053_">
				<path id="XMLID_4054_" class="st1" d="M269.2,1008.4c17.4-4.8,17.2,21.4,2.1,16.9"/>
			</g>
		</g>
		<path class="st1" d="M117.3,761.7c0,0,0.2,0,0.5,0c1,8.3,3.6,17.1,8.3,26.2c0,0,2.2,30.5,102.4,30.7
			c61.4,0.1,100.7-29.2,107.5-63.2l0.1-0.1c0.1-0.3,0.2-1,0.3-1.7c0.3-2.1,0.5-4.2,0.6-6.3c1.9-22.4,4-81.2,4-81.2l-222.2,4.4
			C114.9,688.3,117.3,761.7,117.3,761.7z"/>
		<g>
			<path class="st3" d="M136.1,724.5c4.7-1,10.4-2,17-2.8l154.4-5.4c8,0,18.8,2.8,18.8,2.8c8.5,4.8,14,3.1,17.3-2.4
				c0.2-0.2,0.3-0.4,0.4-0.6c8.6-15.8,1.4-58.8-4.6-75.8c-0.4-1.1-0.8-2.5-1.1-4.1c-7.1-31.4-4.9-148.9-0.8-221.3
				c0.4-7.8,0.5-14.7,0.3-20.8c-1.8-53.6-56.6-55.2-92.1-57.3c-37.6-2.3-65.2,4.8-78.8,15.7c-7,2-17.7,5.8-26.2,12
				c-6.2,4.5-11.3,10.4-13,17.8c-0.2,0.9-0.3,1.7-0.4,2.6c-3.4,26.3-12.1,187.2-15.2,201.8c-0.6,2.9-2.3,11.8-4.2,23.7
				c-0.2,1.5-0.5,3-0.7,4.5C99.5,664.6,91,756.8,136.1,724.5z"/>
			<path class="st3" d="M326.2,719.2c8.5,4.8,14,3.1,17.3-2.4c0.2-0.2,0.3-0.4,0.4-0.6c8.6-15.8,1.4-58.8-4.6-75.8
				c-0.4-1.1-0.8-2.5-1.1-4.1c-7.1-31.4-4.9-148.9-0.8-221.3c0.1-1.8,0.3-3.5,0.3-5.2"/>
			<path class="st3" d="M336.3,382.2c-9.2-41.9-58.1-43.3-90.7-45.3c-37.6-2.3-65.2,4.8-78.8,15.7c-7,2-17.7,5.8-26.2,12
				c-6.2,4.5-11.3,10.4-13,17.8c-0.2,0.9-0.3,1.7-0.4,2.6c-3.4,26.3-12.1,187.2-15.2,201.8c-0.6,2.9-2.3,11.8-4.2,23.7
				c-0.2,1.5-0.5,3-0.7,4.5c-7.5,49.6-16,141.8,29.2,109.6c4.7-1,10.4-2,17-2.8l154.4-5.4"/>
		</g>
		<path id="XMLID_4052_" class="st1" d="M125.6,714.5c7.7-27.4-6.5-214.7-6.5-214.7"/>
		<g>
			<path id="XMLID_4051_" class="st4" d="M208.6,351.7c18.3,42.8,67.1,17.8,67.8-14.8c0.1-5.8,0.6-28.3,0.9-35
				c0.2-5.2,1.6-35.4-5.1-51.1c-21.5-50.4-85.3-6.8-63.2,32.5c-1.4,4.2-2.3,9.2-2.8,15.1c-0.5,6.5-3.2,26.2-2.9,33.2"/>
			<path id="XMLID_4050_" class="st5" d="M211.8,358.1c-1.2-1.8-2.2-3.9-3.2-6.3l-5.2-20.2c-0.4-7,2.4-26.8,2.9-33.2
				c0.5-5.9,1.4-10.9,2.8-15.1c-22.1-39.3,41.6-82.9,63.2-32.5c6.7,15.7,5.3,45.9,5.1,51.1c-0.2,6.7-0.8,29.2-0.9,35
				c-0.6,27.5-35.6,49.7-57.4,30"/>
		</g>
		<g>
			<path class="st1" d="M216.8,763c-7.1,11.1-16.9,226.4-22.4,306.9c-5.5,80.4-1.2,198.8-1.2,198.8l-33.7-3.5
				c0,0,9.9-196.7,4.9-248.4c-1.8-2.2-2.5-12-1.5-33.8l0-0.1c0.2-8.7,0.5-18.5,1-29c2.1-89.3-3.2-205-3.2-205"/>
			<path id="XMLID_4049_" class="st1" d="M180.1,1001.4c-3.2-1.9-5.7,2-5.7,2"/>
			<path id="XMLID_4048_" class="st1" d="M181.8,1030.9c0.3,1.3,5.6,3.1,5.6,3.1"/>
			<g id="XMLID_4046_">
				<path id="XMLID_4047_" class="st1" d="M160.5,1275.1c-17.9-2.5-7.2-26.5,4.8-16.3"/>
			</g>
			<g id="XMLID_4044_">
				<path id="XMLID_4045_" class="st1" d="M193.6,1028.4c17.9-1.9,8.2-26.3-4.2-16.5"/>
			</g>
			<g>
				<path class="st1" d="M146.8,1312.3c-0.1,2.5,0.5,4.7,2.6,6.8c0.5,0.5,1.1,1,1.8,1.5c2.3,1.7,6,3,10.7,4.1
					c3.6,0.8,7.7,1.3,12.3,1.8c2.9,0.4,5.9,0.6,9.1,0.8c2.4,0.2,4.9,0.3,7.4,0.4c2.5-0.1,5-0.1,7.4-0.2c3.2-0.1,6.2-0.3,9.1-0.4
					c4.6-0.2,8.7-0.7,12.3-1.4c4.7-0.8,8.5-2.1,10.9-3.7c0.7-0.5,1.3-1,1.8-1.5c1.6-1.6,2.5-3.3,2.7-5.1
					c-17.6-7.7-32.2-20.7-35.7-42.2c-2.1-2-3.3-3.3-3.3-3.3s-0.4-0.6-1.1-1.4c-0.1-0.2-0.3-0.4-0.5-0.6c0-0.1-0.1-0.3-0.1-0.4
					c-0.3-1-0.5-2.6-0.6-4.8l-1.7-0.1l-1.7,0.1l-30.5,2.2c-0.3,7.8-0.5,12.7-0.5,13.8c0,0.1,0,0.2,0,0.2s0.1,0,0.3,0
					c-1.8,6.7-4,12.1-6.1,16.8c-2.2,5-4.3,9-5.4,12.5C147.4,1309.7,147,1311,146.8,1312.3z"/>
				<g>
					<g id="XMLID_4042_">
						<path id="XMLID_4043_" class="st1" d="M254.4,1328c-4.2-9.9,7.8-8.5,7.8-8.5C272.2,1326.5,258.5,1337.8,254.4,1328z"/>
					</g>
					<g id="XMLID_4040_">
						<path id="XMLID_4041_" class="st1" d="M246.5,1327.4c-4.6-10.9,8.8-9.3,8.8-9.3C266.4,1325.8,251.2,1338.3,246.5,1327.4z"/>
					</g>
					<g id="XMLID_4038_">
						<path id="XMLID_4039_" class="st1" d="M236.6,1326.6c-5.4-12.7,10.2-10.9,10.2-10.9C259.7,1324.7,242.1,1339.3,236.6,1326.6z"
							/>
					</g>
					<g id="XMLID_4036_">
						<path id="XMLID_4037_" class="st1" d="M224.4,1325.7c-6.2-14.5,11.6-12.5,11.6-12.5C250.8,1323.4,230.5,1340.2,224.4,1325.7z"
							/>
					</g>
					<path id="XMLID_4035_" class="st1" d="M197.6,1324.5c1.5-5.9,19.1-19.7,28.7-5.7c9.6,14-11.6,12.2-11.6,12.2
						S196.1,1330.4,197.6,1324.5z"/>
				</g>
			</g>
		</g>
		<g>
			<g id="XMLID_4033_">
				<path id="XMLID_4034_" class="st1" d="M128.9,616.4c-17.9-2.5-7.2-26.5,4.8-16.3"/>
			</g>
			<path id="XMLID_4032_" class="st1" d="M157.1,398.1c2.4,65.7,5.8,145.4,1.3,170.5c-7.7,43.8-4.4,252.7-4.4,252.7l-33.8,2.3
				c0,0,8.5-118.2,5.8-198.7c-1.2-36.8-2.3-102.1-3.9-163"/>
			<path id="XMLID_4031_" class="st1" d="M135.1,604.6c0.1-3.7,4.7-3.9,4.7-3.9"/>
			<path id="XMLID_4030_" class="st1" d="M146.7,610.7c-0.3,1.3-5.8,2.9-5.8,2.9"/>
			<g id="XMLID_4017_">
				<path id="XMLID_4029_" class="st4" d="M154.1,819.6l-32.4-8.1c0,0-43.9,69.1-29.3,69.7c7.8,0.2,10.7-1.6,11.9-3.6
					c-1.1,6.6-1.9,18.7,9.4,13.2l0.4-3.1c2.3,4.2,10.5,16.8,17.6,4.2l2.2-1c4.9,4.4,15.3,11,14.1-10.7c2.8,0.3,6.9,0.1,12.7-1.3
					C190.4,872,154.1,819.6,154.1,819.6z"/>
				<path id="XMLID_4028_" class="st1" d="M121.8,811.5c0,0-43.9,69.1-29.3,69.7c7.8,0.2,10.7-1.6,11.9-3.6
					c-1.1,6.6-1.9,18.7,9.4,13.2l0.4-3.1c2.3,4.2,10.5,16.8,17.6,4.2l2.2-1c4.9,4.4,15.3,11,14.1-10.7c2.8,0.3,6.9,0.1,12.7-1.3
					c29.7-7-6.6-59.4-6.6-59.4"/>
				<g id="XMLID_4021_">
					<g id="XMLID_4023_">
						<path id="XMLID_4027_" class="st2" d="M113.7,890.8c-15.1,7.4-8.6-17-8.6-17c-0.4,0.6,2,7.9-12.6,7.4
							c-14.7-0.6,29.3-69.7,29.3-69.7"/>
						<path id="XMLID_4026_" class="st2" d="M132.2,891.1c-8.6,16.5-18.7-4.6-18.7-4.6"/>
						<path id="XMLID_4025_" class="st2" d="M154.5,866.5c-8.5-0.9-23.5,19.5,6.2,12.5c29.7-7-6.6-59.4-6.6-59.4"/>
						<path id="XMLID_4024_" class="st2" d="M147.1,861.9l0.7,15.9c2.7,31.8-16.5,10.6-16.5,10.6"/>
					</g>
					<path id="XMLID_4022_" class="st2" d="M127.5,787.8c-20,1.2-0.4,21.8-0.4,21.8"/>
				</g>
				<path id="XMLID_4020_" class="st1" d="M132.4,875.5c1.8-5.3,1.1-15,1.1-15"/>
				<path id="XMLID_4019_" class="st1" d="M115.7,879c1.4-0.1,1.8-7.1,1.8-7.1"/>
				<path id="XMLID_4018_" class="st2" d="M108.8,857.6c0,0,6-9.3,7.4-13.8"/>
			</g>
		</g>
		<path id="XMLID_4016_" class="st3" d="M169.6,357.9c-18.3,4.5-33.7,9.8-37.7,15.4c-11.4,16.1-27.9,195.3-0.5,196.9
			c27.4,1.5,31.2,0.3,30.8-9.4c-0.4-9.8,14.1-122.4,9.9-130.9"/>
		<g>
			<path class="st6" d="M182.2,432.6c0.4,13.8,7.7,14.5,24,12.7c16.3-1.8,8-32.6,6.3-42.1c-1.7-9.5-29.3,0.2-29.3,0.2
				S181.8,418.8,182.2,432.6z"/>
			<g>
				<path id="XMLID_4015_" class="st1" d="M182.6,409.9c-1.8-3,1.7-5.8,1.7-5.8"/>
				<path id="XMLID_4014_" class="st1" d="M215.6,408.1c-1.5-2.3-6.4-4.8-6.4-4.8"/>
				<path id="XMLID_4013_" class="st1" d="M182.6,418.2c-0.9,2.7,0.5,8,0.5,8"/>
				<path id="XMLID_4012_" class="st1" d="M202,445c2.8,0.6,7.9-1.4,7.9-1.4"/>
				<path id="XMLID_4011_" class="st1" d="M191.3,442c-3.4,1.2-5.3-2.9-5.3-2.9"/>
				<path id="XMLID_4010_" class="st1" d="M216.3,422.9c-1-1.2-1.8-4.9-1.8-4.9"/>
				<line id="XMLID_4009_" class="st5" x1="200.5" y1="401.8" x2="195.1" y2="401.9"/>
				<path id="XMLID_4008_" class="st1" d="M216,440.2c1-2.6-0.1-8-0.1-8"/>
			</g>
			<g>
				<path id="XMLID_4007_" class="st1" d="M271.2,772.5c2.4,3.4-1,9.2-1,9.2"/>
				<path id="XMLID_4006_" class="st1" d="M267.3,763.6c-0.6-2.8-4.4-6.8-4.4-6.8"/>
				<path id="XMLID_4005_" class="st1" d="M260.8,798.1c2.1-1.8,3.8-7,3.8-7"/>
			</g>
		</g>
		<g id="XMLID_3715_">
			<g id="XMLID_4001_">
				<path id="XMLID_4004_" class="st1" d="M320.2,215.6c0,0,0,10.8,12.8,15.9c12.8,5.1,23.4-33.7,23.1-69.9
					c-0.3-36.2-36.1,9.6-36.1,9.6"/>
				<path id="XMLID_4003_" class="st1" d="M348.8,162.9c-3.2-10.1-17.3,10.9-17.3,10.9"/>
				<path id="XMLID_4002_" class="st1" d="M329.4,201.4c3.3,13,10.6,5.3,13.7-6.3c3.1-11.6-17.1-6.7-17.1-6.7"/>
			</g>
			<path id="XMLID_4000_" class="st7" d="M214.4,23.3c16.4-5,3.5-16.7,3.5-16.7C203.7,0.4,198,28.3,214.4,23.3z"/>
			<path id="XMLID_3999_" class="st1" d="M319,263.4c-7.1,32.9-40.2,75.6-99.2,62c-59-13.6-54.8-36.4-67.2-160.4
				c-12.4-124,92.6-129.8,92.6-129.8C376.4,53.7,326,230.5,319,263.4z"/>
			<path class="st0" d="M152.6,165c12.5,124,8.1,146.7,67.1,160.3c41.7,9.6,70.5-9,86.3-32.3c-15.8,9.6-36.3,14.1-61.5,8.2
				c-59-13.5-54.6-36.3-67.1-160.3c-4.1-41.1,4.6-69.1,18.1-88.4C170.4,69.2,146.2,101.7,152.6,165z"/>
			<path id="XMLID_3998_" class="st3" d="M158.6,98.4c0,0,37.3-17,76.8-32.1c30.8,8.2,64.6,11.7,64.7,9.1c0.3-27-6.1-98.4-81.9-65.9
				c-17.6,5.1-37,15.4-49,33.6c-1,1.5-1.9,2.9-2.7,4.3l0,0c0,0-0.1,0-0.1,0.1c-3.7,6.5-5.6,11.7-6.1,15.8
				C156.4,75.4,158.6,98.4,158.6,98.4z"/>
			<path id="XMLID_3997_" class="st1" d="M210.6,182c24,9,43-4.7,43-4.7"/>
			<path id="XMLID_3996_" class="st1" d="M335.9,183.1c-6.4,2.7-36.5-4.3-36.5-4.3"/>
			<path id="XMLID_3995_" class="st1" d="M225.8,319.8c-5.3,9.6,11.5,16.7,37.4,12.1s13.7-16.4,13.7-16.4"/>
			<path id="XMLID_3994_" class="st3" d="M346.1,72.7c0,0,12.6-17.4-33.5-21.2c-46-3.7-137.3-5-153.3,46.7c0,0,24.7-10.6,72.1-20
				s87.2,7.5,87.2,7.5C339,81.1,346.1,72.7,346.1,72.7z"/>
			<path id="XMLID_3993_" class="st1" d="M159.2,98.2c0,0,19-46.9,129.1-40.1s30.1,27.5,30.1,27.5C261.9,56,159.2,98.2,159.2,98.2z"
				/>
			<g>
				<path id="XMLID_3992_" class="st1" d="M279,150.4c0.4,13.1-18.9,36.3-18.9,36.3"/>
				<g id="XMLID_3989_">
					<path id="XMLID_3991_" class="st1" d="M277.3,199.6c0.8,0.4,1.8,0.9,3.1,1.3c1.5,0.4,3.5,0.6,5.7,0.2c4-0.7,6.1-5,6.9-11.2"/>
					<path id="XMLID_3990_" class="st1" d="M291.2,180.8c-3.6-27.3-17.4-66-17.4-66"/>
				</g>
				<g id="XMLID_3983_">
					<path id="XMLID_3988_" class="st1" d="M290.8,213.9c22.5-4.2,8.9-20.6,8.9-20.6"/>
					<path id="XMLID_3987_" class="st1" d="M267,213.4c-20.7-8.9-5.7-20.9-5.7-20.9"/>
					<path id="XMLID_3986_" class="st1" d="M267.8,206.3c-3.1-0.9-5.8,0.2-3.3-3.6c2.5-3.8,5.5,0.7,7.6,0.1
						C274.2,202.3,270.9,207.2,267.8,206.3z"/>
					<path id="XMLID_3985_" class="st1" d="M290.8,205.1c2.3-1.3,4.7-2.3,5.5-1.7c2.2,1.8,1.1,5.2-3.1,5.3
						C293.2,208.8,288.9,206.2,290.8,205.1z"/>
					<path id="XMLID_3984_" class="st1" d="M273.1,185.7c1-1.5,5.4-1.3,5.4-1.3"/>
				</g>
				<path id="XMLID_3982_" class="st1" d="M323.3,211c-3.5-1.4-15.6-7.7-15.6-7.7"/>
				<path id="XMLID_3981_" class="st1" d="M236.6,205.5c1.4,0.1,15.7-6.4,15.7-6.4"/>
			</g>
			<path id="XMLID_3980_" class="st1" d="M194,143.3c-3.2-1.9-1.1-6-1.1-6"/>
			<path id="XMLID_3979_" class="st1" d="M205.2,184.6c-1.1-1.3-1.9-5-1.9-5"/>
			<path id="XMLID_3978_" class="st1" d="M203.5,99.4c-1.6,0-0.1,7-0.1,7"/>
			<path id="XMLID_3977_" class="st1" d="M300,86.4c-0.7-1.1,5.9-1.9,5.9-1.9"/>
			<path id="XMLID_3976_" class="st1" d="M257.1,93.4c0.5,1.5,8.2,2.7,8.2,2.7"/>
			<path id="XMLID_3975_" class="st1" d="M293.5,287.7c0.4-1.2,6-2.3,6-2.3"/>
			<path id="XMLID_3974_" class="st1" d="M259.3,291.9c-1.5-2.4-6.5-4.9-6.5-4.9"/>
			<path id="XMLID_3973_" class="st1" d="M307,164.6"/>
			<path id="XMLID_3972_" class="st1" d="M270.3,168.3"/>
			<line id="XMLID_3971_" class="st5" x1="211.8" y1="206.7" x2="217.2" y2="208.2"/>
			<path id="XMLID_3970_" class="st1" d="M169.1,226c0,0,0.5,10.7-12,16.5c-12.5,5.8-25-32.5-26.6-68.7c-1.6-36.1,36.6,7.7,36.6,7.7
				"/>
			<path id="XMLID_3969_" class="st1" d="M138,174.9c2.8-10.3,17.8,10,17.8,10"/>
			<path id="XMLID_3968_" class="st1" d="M159.2,212.3c-2.6,13.1-10.3,5.8-14-5.5c-3.7-11.4,16.7-7.5,16.7-7.5"/>
			<g>
				<path id="XMLID_3967_" class="st8" d="M286.6,151.5c-24.9-58,46.5-49.9,46.5-49.9C392.4,142.7,311.5,209.5,286.6,151.5z"/>
				<path id="XMLID_3966_" class="st7" d="M319.6,137.8c-1-11.1,9.6-6.6,9.6-6.6C336.5,140.9,320.6,149,319.6,137.8z"/>
				<path id="XMLID_3965_" class="st8" d="M239.3,175.2c65.8-20,14.1-67.1,14.1-67.1C196.7,83.7,173.5,195.2,239.3,175.2z"/>
				<path id="XMLID_3964_" class="st7" d="M206.8,142.4c-1-11.1,9.6-6.6,9.6-6.6C223.7,145.4,207.9,153.5,206.8,142.4z"/>
				<path id="XMLID_3963_" class="st7" d="M207.4,112.5c-1.9,6,31,22.9,48.5,6.2s-6.6-19.9-6.6-19.9
					C212.5,96.4,209.3,106.5,207.4,112.5z"/>
				<path id="XMLID_3962_" class="st7" d="M289.3,98.6c2.2,8.8,32.5,30.6,50,10.2s-19.7-18.9-19.7-18.9S287.1,89.8,289.3,98.6z"/>
				<g id="XMLID_3957_">
					<path id="XMLID_3959_" class="st1" d="M218.8,176.6c1.3,0.5,2.7,0.7,4.2,0.9c12.9,1,34.1-9.8,34.1-9.8
						c-14.1-3.9-38.3-2.8-38.3-2.8l-11.3,0.6c0,0-10.3,1.2-5.9,6.2c1.9,2,3.7,1.9,5.5,1.4c0.5-0.1,0.9-0.3,1.4-0.4
						C210.7,172.1,218,176.1,218.8,176.6z"/>
					<path id="XMLID_3958_" class="st1" d="M335.8,163.2c0,0,10.3,1.6,5.7,6.4c-4.6,4.7-6.2,0.1-14.4,2.4
						c-25.2,7.3-32.6-9.7-32.6-9.7c15.8-4.6,29.8-1.7,29.8-1.7L335.8,163.2z"/>
				</g>
			</g>
			<g id="XMLID_3952_">
				<path id="XMLID_3956_" class="st7" d="M322.8,261.7c21.6-13.5-16.7-19.2-16.7-19.2S301.1,275.2,322.8,261.7z"/>
				<path id="XMLID_3955_" class="st7" d="M286.2,238.2c2,7,27.7,24.3,42.7,8.1c14.9-16.1-16.8-15-16.8-15S284.2,231.1,286.2,238.2z
					"/>
				<path id="XMLID_3954_" class="st7" d="M229.8,263c1.5,5.6,28.2,9.5,31.2-10.1s-12.5-14.6-12.5-14.6
					C225.9,247.9,228.3,257.4,229.8,263z"/>
				<path id="XMLID_3953_" class="st7" d="M262.1,249.4c44.8-20.8-0.3-16-0.3-16C210.4,239.3,217.3,270.2,262.1,249.4z"/>
			</g>
			<g id="XMLID_3716_">
				<path id="XMLID_3951_" class="st1" d="M264.9,260.6c12.6,23.5,36.6,0.6,36.6,0.6"/>
				<path id="XMLID_3718_" class="st1" d="M284.9,257.3c4.9-6.8,11.3,0.2,11.3,0.2"/>
				<path id="XMLID_3717_" class="st1" d="M284.9,257.3c-4.7-7-11.3-0.2-11.3-0.2"/>
			</g>
		</g>
		<path id="XMLID_3714_" class="st1" d="M208.9,368.2c1.5,2.5,3.1,3.9,4.8,4.5"/>
		<path id="XMLID_3713_" class="st1" d="M275.2,364.2c1.5-2,2.1-4.3,2.1-4.3"/>
		<path id="XMLID_3712_" class="st1" d="M261,379.5c0.7-0.2,1.3-0.5,1.8-0.8"/>
		<path id="XMLID_3695_" class="st3" d="M318.8,450.7c-9.4,26.8-7.1,214.7-7.1,214.7"/>
	</g>
</g>
</svg>
