<?xml version="1.0" encoding="utf-8"?>
<!-- Generator: Adobe Illustrator 22.1.0, SVG Export Plug-In . SVG Version: 6.00 Build 0)  -->
<svg version="1.1" id="Layer_1" xmlns="http://www.w3.org/2000/svg" xmlns:xlink="http://www.w3.org/1999/xlink" x="0px" y="0px"
	 viewBox="0 0 347.2 675.2" style="enable-background:new 0 0 347.2 675.2;" xml:space="preserve">
<style type="text/css">
	.st0{fill:#A36B78;stroke:#584C4F;stroke-width:2;stroke-linecap:round;stroke-miterlimit:10;}
	.st1{fill:#A36B78;stroke:#584C4F;stroke-width:2;stroke-linecap:round;stroke-linejoin:round;stroke-miterlimit:10;}
	.st2{fill:#FFD767;stroke:#584C4F;stroke-width:2;stroke-miterlimit:10;}
	.st3{fill:#A36B78;}
	.st4{fill:none;stroke:#584C4F;stroke-width:2;stroke-linecap:round;stroke-miterlimit:10;}
	.st5{fill:#BEAB72;}
	.st6{fill:#584C4F;stroke:#584C4F;stroke-width:2;stroke-linecap:round;stroke-miterlimit:10;}
	.st7{opacity:0.1;fill:#231F20;stroke:#231F20;stroke-miterlimit:10;enable-background:new    ;}
	.st8{fill:#FFFFFF;stroke:#584C4F;stroke-width:2;stroke-linecap:round;stroke-miterlimit:10;}
</style>
<g id="Layer_5">
</g>
<g id="Layer_3">
</g>
<g>
	<path class="st0" d="M60.7,662.6c-0.6-1.8-1.6-3.8-2.6-6.3c-1-2.3-2.1-5.1-2.9-8.5c0.1,0,0.2,0,0.2,0s0,0,0-0.1
		c0-0.5-0.1-3-0.2-6.9L40,639.5l-0.8,0l-0.8,0c-0.1,1.1-0.2,1.9-0.3,2.4c0,0-0.1,0.2-0.1,0.2c-0.1,0.1-0.2,0.2-0.2,0.3
		c-0.3,0.4-0.6,0.7-0.6,0.7s-0.7,0.6-1.7,1.6c-1.9,10.8-9.4,17.1-18.2,20.8c0.1,0.9,0.5,1.8,1.3,2.5c0.2,0.2,0.6,0.5,0.9,0.8
		c1.2,0.8,3.1,1.5,5.4,2c1.8,0.3,3.8,0.7,6.2,0.8c1.4,0.1,2.9,0.2,4.6,0.3c1.2,0,2.4,0.1,3.7,0.2c1.2,0,2.5,0,3.7-0.2
		c1.6,0,3.1-0.2,4.6-0.3c2.3-0.2,4.3-0.5,6.2-0.8c2.3-0.5,4.2-1.1,5.4-2c0.3-0.2,0.7-0.5,0.9-0.8c1.1-1,1.4-2.2,1.3-3.4
		C61.1,664.1,61,663.4,60.7,662.6z"/>
	<path class="st0" d="M53.1,552.7c48.3,1.9,116.4,4.4,120.8,7.1l6.5-28.1c0,0-57.8,3.6-102.4,3.4c-5.2-0.1-10.1-0.2-14.5-0.2h0
		c-3.9-0.1-7.1-0.1-9.5,0c-4.4,0.1-6.7,0.5-7.4,1.1c-2.1,0.2-4.7,0.4-7.6,0.6c0.1,4.8,0.2,10.1,0.3,15.7c0.2,38.4-1.5,91.8-1.5,91.8
		l16.9,1.5C54.6,645.4,51.7,592.5,53.1,552.7z"/>
	<g>
		<g id="XMLID_11251_">
			<path id="XMLID_11252_" class="st0" d="M3.5,667.3c0,0,6-0.6,3.8,4.3C5.2,676.4-1.6,670.7,3.5,667.3z"/>
		</g>
		<g id="XMLID_11249_">
			<path id="XMLID_11250_" class="st0" d="M7,666.6c0,0,6.7-0.7,4.3,4.8C8.8,676.8,1.3,670.4,7,666.6z"/>
		</g>
		<g id="XMLID_11247_">
			<path id="XMLID_11248_" class="st0" d="M11.2,665.5c0,0,7.8-0.8,5,5.5C13.4,677.3,4.7,669.9,11.2,665.5z"/>
		</g>
		<g id="XMLID_11245_">
			<path id="XMLID_11246_" class="st0" d="M16.6,664.3c0,0,8.9-0.8,5.7,6.3C19.1,677.9,9.1,669.4,16.6,664.3z"/>
		</g>
		<path id="XMLID_11244_" class="st0" d="M27.1,673.4c0,0-10.6,0.7-5.7-6.2s13.6,0.2,14.3,3.1C36.4,673.3,27.1,673.4,27.1,673.4z"/>
	</g>
	<path id="XMLID_11243_" class="st0" d="M47.9,536c0,0,2.3,0.1,2.3,2"/>
	<path id="XMLID_11242_" class="st0" d="M44.3,552.6c0,0-2.7-0.8-2.8-1.5"/>
	<g id="XMLID_11240_">
		<path id="XMLID_11241_" class="st0" d="M40.5,647.7c-6.1,5-11.2-7.1-2.2-8.2"/>
	</g>
	<g id="XMLID_11238_">
		<path id="XMLID_11239_" class="st0" d="M39.7,548c-7.6,2.1-7.4-11,1.2-8.5"/>
	</g>
</g>
<g>
	<g>
		<g id="XMLID_101_">
			<path id="XMLID_102_" class="st0" d="M146.8,465.6c-7.6,2.1-7.4-11,1.2-8.5"/>
		</g>
		<path id="XMLID_100_" class="st0" d="M141.4,370.3c1.6,34.8,3.1,77.6,4.2,99.8c2.1,40.2-1.1,99.4-1.1,99.4l16.9-1.5
			c0,0-3.4-104.4,0-126.4c2.4-15.7-1.8-73.9-3.2-107.9"/>
		<g id="XMLID_98_">
			<path id="XMLID_99_" class="st0" d="M161.4,565.9c6.9,7.2,9,9.6,12.8,19c3.8,9.5-9.9-13.5-9.1-10.1c0.8,3.3,13.6,68.6,3.1,28.5
				c-10.5-40.1-6.4-14.5-6.4-14.5c0,55-4.4,11-5.8,4.1c-1.3-6.8-10.4,36.7-8.8,15.2c1.7-21.5-0.1-23.4-3.6-5.4
				c-3.6,18-1.7-24.3-1.7-24.3s0.8-13.2,4.1-12.1"/>
		</g>
		<path id="XMLID_97_" class="st0" d="M151.9,457.6c0,0,2.8,0.6,3,1.2"/>
		<path id="XMLID_96_" class="st0" d="M151.5,464.2c0,0-2.2,0.4-2.8-1.4"/>
		<path id="XMLID_95_" class="st1" d="M148.1,554.3c0,0-13.6,9.1,0,9.8"/>
	</g>
	<path id="XMLID_94_" class="st2" d="M165.4,369.3c2.2,4.2-4.1,60.7-3.8,65.6c0.3,4.9-1.6,5.5-15.3,5c-13.7-0.5-7-90.3-1.5-98.5
		c2-2.9,9.6-5.6,18.7-8"/>
	<path class="st0" d="M255.1,493L144,488.8c0,0,0.5,29.5,1.3,40.6c0.1,1,0.1,2.1,0.2,3.2c0.1,0.3,0.1,0.7,0.2,0.8l0.1,0
		c3.1,17,22.5,32,53.2,32.5c50.1,0.8,51.4-14.5,51.4-14.5c2.4-4.5,3.9-8.9,4.4-13c0.1,0,0.2,0,0.2,0S256.9,501.9,255.1,493z"/>
	<g>
		<path class="st2" d="M261.5,465.3c-0.1-0.8-0.2-1.5-0.3-2.2c-0.9-6-1.6-10.5-1.9-11.9c-1.5-7.3-4.4-87.8-5.9-101
			c-0.1-0.5-0.1-0.9-0.2-1.3c-0.8-3.7-3.3-6.7-6.4-9c-4.2-3.2-9.5-5.2-13-6.2c-6.7-5.6-20.4-9.4-39.2-8.5
			c-17.8,0.8-45.2,1-46.6,27.9c-0.2,3-0.2,6.5-0.1,10.4c1.4,36.2,1.4,95-2.4,110.6c-0.2,0.8-0.4,1.5-0.6,2c-3.2,8.5-7.1,29.9-3,37.8
			c0.1,0.1,0.1,0.2,0.2,0.3c1.6,2.8,4.3,3.7,8.6,1.4c0,0,5.4-1.3,9.4-1.2l77.2,4c3.2,0.5,6.1,1,8.4,1.5
			C268.3,536.4,264.8,490.2,261.5,465.3z"/>
		<path class="st2" d="M148,360.7c0,0.9,0.1,1.7,0.1,2.6c1.4,36.2,1.4,95-2.3,110.6c-0.2,0.8-0.4,1.5-0.6,2
			c-3.1,8.5-7.1,29.9-2.9,37.9c0.1,0.1,0.1,0.2,0.2,0.3c1.6,2.8,4.4,3.7,8.7,1.3"/>
		<path class="st2" d="M160.4,514.3l77.2,4c3.2,0.5,6.1,1,8.4,1.5c22.3,16.5,18.9-29.7,15.5-54.5c-0.1-0.8-0.2-1.5-0.3-2.2
			c-0.9-6-1.6-10.5-1.9-11.9c-1.5-7.3-4.4-87.8-5.9-101c-0.1-0.5-0.1-0.9-0.2-1.3c-0.8-3.7-3.3-6.7-6.4-9c-4.2-3.2-9.5-5.2-13-6.2
			c-6.7-5.6-20.4-9.4-39.2-8.5c-16.4,0.7-40.8,1-45.8,21.9"/>
	</g>
	<path id="XMLID_93_" class="st0" d="M256.4,407.6c0,0-8.7,93.6-5.1,107.3"/>
	<g>
		<path id="XMLID_92_" class="st3" d="M215.8,322.8c0.2-3.4-0.9-13.4-1.1-16.6c-0.2-2.9-0.6-5.4-1.2-7.5
			c11.4-19.5-20.1-41.8-31.3-16.8c-3.5,7.8-3.1,22.9-3,25.5c0.1,3.4,0.1,14.6,0.1,17.5c0.1,16.3,24.2,29.2,33.8,8"/>
		<path id="XMLID_91_" class="st4" d="M207.7,340.4c-11.1,9.6-28.4-1.8-28.4-15.5c0-2.9-0.1-14.1-0.2-17.5c-0.1-2.6-0.5-17.7,3-25.5
			c11.2-25,42.7-2.6,31.3,16.8c0.6,2.1,1.1,4.6,1.2,7.6c0.2,3.2,1.4,13.1,1.1,16.6l-2.8,10c-0.5,1.1-1.1,2.2-1.6,3.1"/>
	</g>
	<g>
		<g id="XMLID_89_">
			<path id="XMLID_90_" class="st0" d="M248.3,457.6c6.1-5,11.2,7.1,2.2,8.2"/>
		</g>
		<path id="XMLID_88_" class="st0" d="M255.3,388.7c-1.3,30.5-2.4,63.1-3.4,81.5c-2.1,40.2,1.1,99.4,1.1,99.4l-16.9-1.5
			c0,0,3.4-104.4,0-126.3c-2-12.6,0.4-52.5,2.1-85.2"/>
		<path id="XMLID_87_" class="st0" d="M245.3,457.9c0,0,2.3,0.1,2.3,2"/>
		<path id="XMLID_86_" class="st0" d="M244.6,464.3c0,0-2.7-0.9-2.9-1.5"/>
		<g id="XMLID_73_">
			<path id="XMLID_85_" class="st3" d="M232.4,596.8c2.9,0.8,4.9,0.9,6.4,0.8c-0.8,10.8,4.4,7.6,6.9,5.5l1.1,0.5
				c3.4,6.3,7.6,0.1,8.9-2l0.1,1.5c5.6,2.8,5.3-3.2,4.8-6.5c0.5,1,2,2,5.9,1.9c7.3-0.1-14.1-35.1-14.1-35.1l-16.2,3.8
				C236.2,567.2,217.6,593.1,232.4,596.8z"/>
			<path id="XMLID_84_" class="st0" d="M236.2,567.2c0,0-18.6,25.9-3.8,29.7c2.9,0.8,4.9,0.9,6.4,0.8c-0.8,10.8,4.4,7.6,6.9,5.5
				l1.1,0.5c3.4,6.3,7.6,0.1,8.9-2l0.1,1.5c5.6,2.8,5.3-3.2,4.8-6.5c0.5,1,2,2,5.9,1.9c7.3-0.1-14.1-35.1-14.1-35.1"/>
			<g id="XMLID_77_">
				<g id="XMLID_79_">
					<path id="XMLID_83_" class="st1" d="M252.4,563.4c0,0,21.4,35,14.1,35.1c-7.3,0.1-6.1-3.5-6.2-3.8c0,0,3,12.2-4.4,8.4"/>
					<path id="XMLID_82_" class="st1" d="M255.9,601c0,0-5.2,10.5-9.4,2.2"/>
					<path id="XMLID_81_" class="st1" d="M236.2,567.2c0,0-18.6,25.9-3.8,29.7s7.4-6.6,3.2-6.2"/>
					<path id="XMLID_80_" class="st1" d="M247,601.8c0,0-9.8,10.4-8.1-5.5l0.5-8"/>
				</g>
				<path id="XMLID_78_" class="st1" d="M249.8,562.4c0,0,10-10.1,0-10.9"/>
			</g>
			<path id="XMLID_76_" class="st0" d="M246.1,587.8c0,0-0.4,4.8,0.4,7.5"/>
			<path id="XMLID_75_" class="st0" d="M254,593.7c0,0,0.1,3.5,0.9,3.5"/>
			<path id="XMLID_74_" class="st1" d="M254.9,579.6c0.7,2.2,3.6,7,3.6,7"/>
		</g>
	</g>
	<path id="XMLID_72_" class="st2" d="M230.6,372.2c-2.2,4.2,4.1,60.6,3.8,65.5c-0.3,4.9,1.6,5.5,15.3,5c13.7-0.5,7-90.3,1.4-98.5
		c-1.9-2.9-9.6-5.6-18.7-8"/>
	<g>
		<path class="st5" d="M225.3,358.9c0,0-13.7-5.1-14.6-0.4c-0.9,4.8-5.4,20,2.8,21.1c8.1,1,11.8,0.8,12.1-6.1
			S225.3,358.9,225.3,358.9z"/>
		<g>
			<path id="XMLID_71_" class="st0" d="M224.7,359.2c0,0,1.8,1.4,0.8,2.9"/>
			<path id="XMLID_70_" class="st0" d="M212.3,358.6c0,0-2.5,1.2-3.2,2.4"/>
			<path id="XMLID_69_" class="st0" d="M225.1,370.3c0,0,0.8-2.6,0.3-4"/>
			<path id="XMLID_68_" class="st0" d="M211.6,378.8c0,0,2.6,1.1,3.9,0.8"/>
			<path id="XMLID_67_" class="st0" d="M223.5,376.7c0,0-0.9,2-2.6,1.4"/>
			<path id="XMLID_66_" class="st0" d="M209.5,365.9c0,0-0.4,1.9-0.9,2.4"/>
			<line id="XMLID_65_" class="st4" x1="219.3" y1="358" x2="216.6" y2="357.9"/>
			<path id="XMLID_64_" class="st0" d="M208.6,373c0,0-0.6,2.7-0.1,4"/>
		</g>
		<g>
			<path id="XMLID_63_" class="st0" d="M178.5,547.2c0,0-1.7-2.9-0.4-4.6"/>
			<path id="XMLID_62_" class="st0" d="M182.3,534.9c0,0-1.9,2-2.2,3.3"/>
			<path id="XMLID_61_" class="st0" d="M181.2,552c0,0,0.8,2.7,1.8,3.5"/>
		</g>
	</g>
	<g id="XMLID_5_">
		<g id="XMLID_57_">
			<path id="XMLID_60_" class="st0" d="M158.9,241.6c0,0-17.5-23.2-17.9-5.1s4.5,37.6,10.9,35.1c6.5-2.4,6.6-7.9,6.6-7.9"/>
			<path id="XMLID_59_" class="st0" d="M153.1,242.8c0,0-6.8-10.6-8.6-5.6"/>
			<path id="XMLID_58_" class="st0" d="M155.7,250.2c0,0-10.1-2.7-8.6,3.2c1.4,5.8,5.1,9.7,6.8,3.2"/>
		</g>
		<path id="XMLID_56_" class="st6" d="M211.4,160.2c0,0-6.6,5.8,1.6,8.4C221.1,171.2,218.5,157.2,211.4,160.2z"/>
		<path id="XMLID_55_" class="st0" d="M197.5,174.2c0,0,52.4,3.8,45.2,65.7s-5.4,73.3-35,79.6s-45.8-15.4-49.1-31.9
			S131.7,182.4,197.5,174.2z"/>
		<path class="st7" d="M222.1,183.4c6.6,9.8,10.7,23.9,8.3,44.4c-7.4,61.9-5.4,73.3-34.9,79.5c-12.7,2.7-22.9,0.3-30.7-4.6
			c7.7,11.8,21.9,21.4,42.9,16.9c29.6-6.3,27.6-17.6,34.9-79.5C246.4,208.4,234.6,191.9,222.1,183.4z"/>
		<path id="XMLID_54_" class="st2" d="M239.7,189c-0.2-2-1.1-4.6-2.9-7.9c0-0.1-0.1-0.1-0.1-0.1l0,0c-0.4-0.7-0.8-1.4-1.3-2.1
			c-5.9-9.2-15.4-14.5-24.2-17.2c-37.6-16.9-41.4,18.8-41.5,32.2c0,1.3,16.9-0.2,32.4-4c19.6,7.9,38.1,16.7,38.1,16.7
			S241.5,195.1,239.7,189z"/>
		<path id="XMLID_53_" class="st0" d="M192.1,245.3c0,0,9.4,7,21.5,2.7"/>
		<path id="XMLID_52_" class="st0" d="M169.2,245.6c0,0-15.1,3.2-18.3,1.9"/>
		<path id="XMLID_51_" class="st0" d="M179.2,314.1c0,0-6.2,5.8,6.7,8.3c12.9,2.6,21.3-0.9,18.8-5.7"/>
		<path id="XMLID_50_" class="st2" d="M160.4,198.9c0,0,20.1-8.1,43.6-3c23.6,5.2,35.9,10.7,35.9,10.7c-7.6-26-53.2-26.2-76.2-24.7
			c-23.1,1.5-16.9,10.3-16.9,10.3S150.2,196.4,160.4,198.9z"/>
		<path id="XMLID_49_" class="st0" d="M160.4,198.9c0,0-39.8-11.1,15.3-13.5s64.2,21.2,64.2,21.2S189,184.5,160.4,198.9z"/>
		<g>
			<path id="XMLID_48_" class="st0" d="M188.7,249.9c0,0-9.4-11.8-9.2-18.3"/>
			<g id="XMLID_45_">
				<path id="XMLID_47_" class="st0" d="M172.3,251.2c0.3,3.1,1.3,5.2,3.3,5.7c1.1,0.2,2.1,0.1,2.9-0.1c0.6-0.1,1.1-0.4,1.6-0.6"/>
				<path id="XMLID_46_" class="st0" d="M182.5,213.8c0,0-7.2,19.3-9.2,32.9"/>
			</g>
			<g id="XMLID_39_">
				<path id="XMLID_44_" class="st0" d="M168.9,252.8c0,0-6.9,8.1,4.2,10.4"/>
				<path id="XMLID_43_" class="st0" d="M188.1,252.8c0,0,7.4,6.2-3.1,10.4"/>
				<path id="XMLID_42_" class="st0" d="M182.6,257.9c1.1,0.3,2.6-1.9,3.8,0c1.2,1.9-0.1,1.4-1.7,1.8
					C183.1,260,181.5,257.5,182.6,257.9z"/>
				<path id="XMLID_41_" class="st0" d="M172,260.6c-2.1-0.1-2.6-1.8-1.5-2.7c0.4-0.3,1.6,0.2,2.8,0.9
					C174.1,259.4,172,260.6,172,260.6z"/>
				<path id="XMLID_40_" class="st0" d="M179.5,248.6c0,0,2.2-0.1,2.7,0.7"/>
			</g>
			<path id="XMLID_38_" class="st0" d="M164.8,257.8c0,0-6.1,3.1-7.9,3.7"/>
			<path id="XMLID_37_" class="st0" d="M192.5,256.1c0,0,7.1,3.4,7.8,3.4"/>
		</g>
		<path id="XMLID_36_" class="st0" d="M222.7,225.7c0,0,1,2.1-0.6,3"/>
		<path id="XMLID_35_" class="st0" d="M217.2,246.8c0,0-0.4,1.8-1,2.5"/>
		<path id="XMLID_34_" class="st0" d="M217.8,210.2c0,0,0.8-3.5,0-3.5"/>
		<path id="XMLID_33_" class="st0" d="M166.7,198.4c0,0,3.3,0.4,2.9,1"/>
		<path id="XMLID_32_" class="st0" d="M186.9,204.6c0,0,3.8-0.6,4.1-1.3"/>
		<path id="XMLID_31_" class="st0" d="M168.1,298.9c0,0,2.8,0.6,3,1.2"/>
		<path id="XMLID_30_" class="st0" d="M191.5,300.1c0,0-2.6,1.2-3.3,2.4"/>
		<path id="XMLID_29_" class="st0" d="M165.5,238.4"/>
		<path id="XMLID_28_" class="st0" d="M183.8,240.6"/>
		<line id="XMLID_27_" class="st4" x1="210" y1="261" x2="212.7" y2="260.3"/>
		<path id="XMLID_26_" class="st0" d="M235.3,248.1c0,0,19.4-21.6,18.4-3.6c-1.1,18.1-7.7,37.1-13.9,34.1s-5.9-8.3-5.9-8.3"/>
		<path id="XMLID_25_" class="st0" d="M240.9,249.9c0,0,7.7-10,9-4.8"/>
		<path id="XMLID_24_" class="st0" d="M237.7,257c0,0,10.2-1.8,8.3,3.9s-5.9,9.2-7.1,2.6"/>
		<g>
			<path id="XMLID_23_" class="st8" d="M153,206.7c0,0,35.8-3.4,22.8,25.4S123,226.7,153,206.7z"/>
			<path id="XMLID_22_" class="st6" d="M154.6,221.5c0,0,5.4-2.2,4.8,3.4C158.8,230.5,150.9,226.3,154.6,221.5z"/>
			<path id="XMLID_21_" class="st8" d="M192.8,210.7c0,0-26.2,23.1,6.4,33.7S221.3,198.9,192.8,210.7z"/>
			<path id="XMLID_20_" class="st6" d="M211,224.8c0,0,5.4-2.2,4.8,3.4S207.3,229.5,211,224.8z"/>
			<path id="XMLID_19_" class="st6" d="M194.9,206c0,0-12.1,1.4-3.4,9.9s25.2,0.3,24.3-2.7S213.3,205.1,194.9,206z"/>
			<path id="XMLID_18_" class="st6" d="M159.8,200.9c0,0-18.6-1.1-10,9.3c8.6,10.3,23.9-0.2,25.1-4.7
				C176.1,201.2,159.8,200.9,159.8,200.9z"/>
			<g id="XMLID_15_">
				<path id="XMLID_17_" class="st0" d="M214.6,243.3c0.2,0.1,0.4,0.2,0.7,0.2c0.9,0.2,1.8,0.4,2.8-0.6c2.2-2.4-2.9-3.2-2.9-3.2
					l-5.7-0.4c0,0-12.1-0.8-19.1,1.1c0,0,10.5,5.6,16.9,5.2c0.8-0.1,1.4-0.2,2.1-0.4C209.9,244.9,213.5,243,214.6,243.3z"/>
				<path id="XMLID_16_" class="st0" d="M156.9,236.3c0,0,7.1-1.3,14.9,1.1c0,0-3.9,8.4-16.4,4.6c-4.1-1.2-4.9,1.1-7.2-1.4
					c-2.2-2.4,2.9-3.1,2.9-3.1L156.9,236.3z"/>
			</g>
		</g>
		<g id="XMLID_10_">
			<path id="XMLID_14_" class="st6" d="M165.2,277.4c0,0-19.2,2.5-8.5,9.5C167.4,293.8,165.2,277.4,165.2,277.4z"/>
			<path id="XMLID_13_" class="st6" d="M162.4,271.7c0,0-15.8-0.9-8.6,7.4c7.4,8.2,20.4-0.2,21.4-3.7S162.4,271.7,162.4,271.7z"/>
			<path id="XMLID_12_" class="st6" d="M194.1,275.8c0,0-7.7-2.6-6.4,7.2c1.3,9.8,14.7,8.1,15.5,5.3
				C204,285.5,205.3,280.8,194.1,275.8z"/>
			<path id="XMLID_11_" class="st6" d="M187.5,273.2c0,0-22.5-2.8-0.3,8C209.4,292,213.1,276.6,187.5,273.2z"/>
		</g>
		<g id="XMLID_6_">
			<path id="XMLID_9_" class="st0" d="M167.4,286.8c0,0,11.8,11.6,18.3,0"/>
			<path id="XMLID_8_" class="st0" d="M170.1,284.9c0,0,3.2-3.4,5.7,0"/>
			<path id="XMLID_7_" class="st0" d="M181.4,284.9c0,0-3.2-3.4-5.6,0"/>
		</g>
	</g>
	<path id="XMLID_4_" class="st0" d="M210.3,343.3c0.9-0.3,1.7-0.9,2.4-2.2"/>
	<path id="XMLID_3_" class="st0" d="M178.6,336.3c0,0,0.2,1.1,1,2.1"/>
	<path id="XMLID_2_" class="st0" d="M185.7,345.8c0.2,0.1,0.6,0.3,0.9,0.4"/>
	<path id="XMLID_1_" class="st2" d="M158.8,488.7c0,0,2.8-93.9-1.7-107.4"/>
</g>
<g>
	<path class="st0" d="M108.7,661.6c-0.6-1.8-1.6-3.8-2.6-6.3c-1-2.3-2.1-5.1-2.9-8.5c0.1,0,0.2,0,0.2,0s0,0,0-0.1
		c0-0.5-0.1-3-0.2-6.9L88,638.5l-0.8,0l-0.8,0c-0.1,1.1-0.2,1.9-0.3,2.4c0,0-0.1,0.2-0.1,0.2c-0.1,0.1-0.2,0.2-0.2,0.3
		c-0.3,0.4-0.6,0.7-0.6,0.7s-0.7,0.6-1.7,1.6c-1.9,10.8-9.3,17.1-18.2,20.8c0.1,0.9,0.5,1.8,1.3,2.5c0.2,0.2,0.6,0.5,0.9,0.8
		c1.2,0.8,3.1,1.5,5.4,2c1.8,0.3,3.8,0.7,6.2,0.8c1.4,0.1,2.9,0.2,4.6,0.3c1.2,0,2.4,0.1,3.7,0.2c1.2,0,2.5,0,3.7-0.2
		c1.6,0,3.1-0.2,4.6-0.3c2.3-0.2,4.3-0.5,6.2-0.8c2.3-0.5,4.2-1.1,5.4-2c0.3-0.2,0.7-0.5,0.9-0.8c1.1-1,1.4-2.2,1.3-3.4
		C109.1,663.1,109,662.4,108.7,661.6z"/>
	<path class="st0" d="M101.1,551.7c48.3,1.9,116.4,4.4,120.8,7.1l6.5-28.1c0,0-57.8,3.6-102.4,3.4c-5.2-0.1-10.1-0.2-14.5-0.2h0
		c-3.9-0.1-7.1-0.1-9.5,0c-4.4,0.1-6.7,0.5-7.4,1.1c-2.1,0.2-4.7,0.4-7.6,0.6c0.1,4.8,0.2,10.1,0.3,15.7c0.2,38.4-1.5,91.8-1.5,91.8
		l16.9,1.5C102.6,644.4,99.7,591.5,101.1,551.7z"/>
	<g>
		<g id="XMLID_11266_">
			<path id="XMLID_11267_" class="st0" d="M51.5,666.3c0,0,6-0.6,3.8,4.3C53.2,675.4,46.4,669.7,51.5,666.3z"/>
		</g>
		<g id="XMLID_11264_">
			<path id="XMLID_11265_" class="st0" d="M55,665.6c0,0,6.7-0.7,4.3,4.8C56.8,675.8,49.3,669.4,55,665.6z"/>
		</g>
		<g id="XMLID_11262_">
			<path id="XMLID_11263_" class="st0" d="M59.2,664.5c0,0,7.8-0.8,5,5.5C61.4,676.3,52.7,668.9,59.2,664.5z"/>
		</g>
		<g id="XMLID_11260_">
			<path id="XMLID_11261_" class="st0" d="M64.6,663.3c0,0,8.9-0.8,5.7,6.3C67.1,676.9,57.1,668.4,64.6,663.3z"/>
		</g>
		<path id="XMLID_11259_" class="st0" d="M75.1,672.4c0,0-10.6,0.7-5.7-6.2s13.6,0.2,14.3,3.1C84.4,672.3,75.1,672.4,75.1,672.4z"/>
	</g>
	<path id="XMLID_11258_" class="st0" d="M95.9,535c0,0,2.3,0.1,2.3,2"/>
	<path id="XMLID_11257_" class="st0" d="M92.3,551.6c0,0-2.7-0.8-2.8-1.5"/>
	<g id="XMLID_11255_">
		<path id="XMLID_11256_" class="st0" d="M88.5,646.7c-6.1,5-11.2-7.1-2.2-8.2"/>
	</g>
	<g id="XMLID_11253_">
		<path id="XMLID_11254_" class="st0" d="M87.7,547c-7.6,2.1-7.4-11,1.2-8.5"/>
	</g>
</g>
</svg>
