<?xml version="1.0" encoding="utf-8"?>
<!-- Generator: Adobe Illustrator 22.1.0, SVG Export Plug-In . SVG Version: 6.00 Build 0)  -->
<svg version="1.1" id="Layer_1" xmlns="http://www.w3.org/2000/svg" xmlns:xlink="http://www.w3.org/1999/xlink" x="0px" y="0px"
	 viewBox="0 0 414.2 538.7" style="enable-background:new 0 0 414.2 538.7;" xml:space="preserve">
<style type="text/css">
	.st0{opacity:0.1;fill:#231F20;stroke:#231F20;stroke-miterlimit:10;enable-background:new    ;}
	.st1{fill:#FFFFFF;stroke:#584C4F;stroke-linecap:round;stroke-miterlimit:10;}
</style>
<g id="Layer_5">
</g>
<g id="Layer_3">
</g>
<path class="st0" d="M-4.1-6.9v0.2l-0.2,548.9h1.7H301v-0.9h0.6c3.9-5.3,9.8-6.2,15.9-6.6c11.7-0.5,23.4-0.7,35.1-1.1
	c4.4-0.1,7.7-2.7,7.7-6c0-3.1-3.3-5.4-7.6-5.2c-5.1,0.3-10.1,1.1-15.3,1.4c-2.5,0.1-4.9-0.4-7.5-0.8c-3.1-0.5-5.7-1.6-5.2-5.4
	c0.5-3.4,3.3-4.4,6.2-5.5c4.6-1.6,9.2-3.7,13.7-6c5.6-3,10.8-7.2,16.6-9.4c10.2-4,21.1-4.3,32.1-3.2c4.1,0.4,8.4,0.8,12.4,0.4
	c0.4-0.1,0.8-0.2,1.2-0.4c2.3-1.5,2.4-4.7,0.4-6.6c-0.5-0.4-1-0.9-1.6-1.1c-1.7-0.7-4.1-0.1-6.1,0c-8.7,0.2-17.5,0.6-26.2,0.7
	c-5.9,0-10.9-3.1-15.1-7c-7.7-7.4-3.2-20.7,6.8-22.3c3.7-0.6,7.3-1.1,11.1-1.4c2.9-0.3,7.6-0.1,10.4,0.4c4.1,0.6,9.1,0.4,9.1-5.2
	c0-3.9-3.1-4.4-6-4.3c-1.6,0.1-3.2,0.4-4.8,0.4c-13.8,0.4-27.8,2-41.3-2.7c-8.3-2.9-11-7.6-9.9-15.3c1.1-8.5,6.8-13.7,15.4-14.8
	c7.8-0.9,15.6-1.7,23.3-2.8c3.6-0.4,6.6-4.1,6.2-7.7c-0.3-4.2-2.9-5.5-6.8-5.6c-14.3-0.6-28.8-1.6-43.1-1.7
	c-8.4-0.1-13.2-5.8-14.1-13c-1.7-12.4,23.1-16.6,32.1-18.7c2.3-0.5,4.4-0.9,6.7-1.4c6.2-1.1,12.5-1.7,18.7-1.8
	c4.4-0.1,8.9-0.1,13.3,0.3c4,0.4,7.9,2.3,11.9,1.8c3.3-0.3,9.9-4.9,5.9-8.5c-1.1-0.9-2.6-1.4-4.1-1.4c-24.5,0.9-49.7,0.6-73.7-5.5
	c-1.1-0.3-2.3-0.6-3.1-1.3c-0.9-0.8-1.2-1.9-1.5-3.1c-0.8-3.4-0.9-8.3,0.8-11.4c1.7-2.9,5-4.4,6.6-7.6c0.5-1.1,0.9-2.4,1.1-3.5
	c6.5-1.2,11-4.3,11-7.9c0-4.2-6.2-7.7-14.5-8.4c2.8-2.9,4.5-6.7,4.5-11c0-2.3-0.5-4.4-1.3-6.5c8.2-2.9,14.3-7.5,15.5-17.4
	c0.1-1.7,1.8-3.7,3.3-4.9c10.3-8.8,24.1-11.4,37.3-8.6c2.8,0.6,5.5,1.4,8.3,0.8c2.8-0.6,4.6-3.3,4.8-5.9c0.1-1.1-0.1-2.3-0.7-3.2
	c-1.4-1.9-3.6-1.8-5.6-1.6c-9.7,0.9-20,3-29.7,2c-7.5-0.6-14.8-2.9-22.2-4.4c-6.8-1.4-13.7-2.5-20.4-4.3c-2.3-0.6-4.1-1.7-5.4-3.4
	c-0.5-5.4-2.8-10,2-13.6c3.9-2.9,9-4.1,13-7.1c3.9-2.9,6.6-7.1,7.8-11.6c2.4-1.5,4.7-3.1,7.3-4.1c7.5-2.9,15.4-3.2,23.3-2.4
	c3.1,0.3,6,0.6,9.1,0.3c0.6-0.1,1.1-0.4,1.6-1c0.9-1,1-2.6,0.1-3.6c-0.5-0.6-1.1-1.1-1.7-1.3c-1.2-0.5-3-0.1-4.5,0
	c-6.4,0.2-12.7,0.5-19.1,0.5c-4.4,0-7.9-2.2-11-5.1c-4.1-3.9-3.1-14.2,1.9-15.6c5-1.3,10.4-1.6,15.7-2c1.6-0.1,3.4,1.1,5,1
	c2.4-0.2,4.5-1.4,4.5-4.2c0-2.9-2.3-3.2-4.4-3.2c-1.2,0-2.3,0.3-3.5,0.4c-10,0.3-20.2,1.4-30-1.9c-6-2.2-7.9-5.4-7.3-11.2
	c0.8-6.1,4.9-9.9,11.2-10.8c5.6-0.6,11.3-1.3,16.9-2c2.7-0.4,4.7-3,4.6-5.5c-0.2-3-2-4-4.9-4.2c-10.4-0.4-20.9-1.2-31.3-1.3
	c-6,0-9.5-4.2-10.2-9.4c-0.5-3.9,1.8-7.5,6-8c3.2-0.4,6.7-2.4,10.2-3.7c2.8-0.9,5.7-1.8,8.5-2.5c17.9-4.2,37.8-0.2,48-0.3
	c2,0,4.4,0.6,6.2-0.1c1.4-0.4,2.9-2.2,3.2-3.7c0.4-1.9-0.9-3.5-3.3-3.4c-1.4,0-3.1,0.2-4.5,0.2c-10.6-0.1-25.7,3.1-49.1-0.4
	c-6.4-0.9-12.6-3.2-19.1-4.4c-3.1-0.6-4.5-2.4-4-4.9c0.5-2.4,1.6-5.2,3.5-6.7c7.4-5.9,6.8-13-1.9-16.9c-3.1-1.4-4.1-3.9-3.3-7
	c1.1-3.9,4-6.1,7.6-7.2c7.1-2,12.6-5.3,13.4-13.4c0.1-1.2,1.3-2.7,2.5-3.6c8.7-7.5,19.1-8.3,29.7-5.6c2.6,0.6,4.2,0,5.7-1.1
	c1-0.7,1.7-2.9,1.4-4.2c-0.3-1.1-2-2.7-3.3-2.7c-2.9-0.1-5.7,0.6-8.6,0.8c-4.8,0.4-9.7,1.1-14.4,0.7c-5.4-0.5-10.8-2-16.1-3.2
	c-4.9-1-9.9-1.8-14.9-3.2c-3-0.8-5.2-2.9-5.7-6.1c-1.4-10.2-3.9-12.1-13.3-15.1C285.4-10.1-4.1-6.9-4.1-6.9z M342.3,483.5
	c2.2,0.1,5,2.6,5.7,4.6c0.6,1.6-1.2,4.7-2.8,6.1c-7.3,7-16.7,9-26.5,9.2c-4.6,0.1-6.5-2.5-6.4-7.5c0.1-6,3.9-11.5,10.1-12.3
	C329,482.7,335.7,483,342.3,483.5z M326.6,469.1l1,0.1c3.4,0.9,6.8,1.3,10.2,2.4c0.7,0.2,1.6,1.3,1.6,1.9s-0.9,1.8-1.6,1.8
	c-4.1,0.3-7.9,2.5-12.3,0.7c-2.5-1-4.1-2-3.8-4.6C322.1,468.9,324.4,469,326.6,469.1z"/>
<path class="st1" d="M-14.4-6.9v0.2l-0.2,548.9h1.7h303.6v-0.9h0.6c3.9-5.3,9.8-6.2,15.9-6.6c11.7-0.5,23.4-0.7,35.1-1.1
	c4.4-0.1,7.7-2.7,7.7-6c0-3.1-3.3-5.4-7.6-5.2c-5.1,0.3-10.1,1.1-15.3,1.4c-2.5,0.1-4.9-0.4-7.5-0.8c-3.1-0.5-5.7-1.6-5.2-5.4
	c0.5-3.4,3.3-4.4,6.2-5.5c4.6-1.6,9.2-3.7,13.7-6c5.6-3,10.8-7.2,16.6-9.4c10.2-4,21.1-4.3,32.1-3.2c4.1,0.4,8.4,0.8,12.4,0.4
	c0.4-0.1,0.8-0.2,1.2-0.4c2.3-1.5,2.4-4.7,0.4-6.6c-0.5-0.4-1-0.9-1.6-1.1c-1.7-0.7-4.1-0.1-6.1,0c-8.7,0.2-17.5,0.6-26.2,0.7
	c-5.9,0-10.9-3.1-15.1-7c-7.7-7.4-3.2-20.7,6.8-22.3c3.7-0.6,7.3-1.1,11.1-1.4c2.9-0.3,7.6-0.1,10.5,0.4c4.1,0.6,9.1,0.4,9.1-5.2
	c0-3.9-3.1-4.4-6-4.3c-1.6,0.1-3.2,0.4-4.8,0.4c-13.8,0.4-27.8,2-41.3-2.7c-8.3-2.9-11-7.6-9.9-15.3c1.1-8.5,6.8-13.7,15.4-14.8
	c7.8-0.9,15.6-1.7,23.3-2.8c3.6-0.4,6.6-4.1,6.2-7.7c-0.3-4.2-2.9-5.5-6.8-5.6c-14.3-0.6-28.8-1.6-43.1-1.7
	c-8.4-0.1-13.2-5.8-14.1-13c-1.7-12.4,23.1-16.6,32.1-18.7c2.3-0.5,4.4-0.9,6.7-1.4c6.2-1.1,12.5-1.7,18.7-1.8
	c4.4-0.1,8.9-0.1,13.3,0.3c4,0.4,7.9,2.3,11.9,1.8c3.3-0.3,9.9-4.9,5.9-8.5c-1.1-0.9-2.6-1.4-4.1-1.4c-24.5,0.9-49.7,0.6-73.7-5.5
	c-1.1-0.3-2.3-0.6-3.1-1.3c-0.9-0.8-1.2-1.9-1.5-3.1c-0.8-3.4-0.9-8.3,0.8-11.4c1.7-2.9,5-4.4,6.6-7.6c0.5-1.1,0.9-2.4,1.1-3.5
	c6.5-1.2,11-4.3,11-7.9c0-4.2-6.2-7.7-14.5-8.4c2.8-2.9,4.5-6.7,4.5-11c0-2.3-0.5-4.4-1.3-6.5c8.2-2.9,14.3-7.5,15.5-17.4
	c0.1-1.7,1.8-3.7,3.3-4.9c10.3-8.8,24.1-11.4,37.3-8.6c2.8,0.6,5.5,1.4,8.3,0.8s4.6-3.3,4.8-5.9c0.1-1.1-0.1-2.3-0.7-3.2
	c-1.4-1.9-3.6-1.8-5.6-1.6c-9.7,0.9-20,3-29.7,2c-7.5-0.6-14.8-2.9-22.2-4.4c-6.8-1.4-13.7-2.5-20.4-4.3c-2.3-0.6-4.1-1.7-5.4-3.4
	c-0.5-5.4-2.8-10,2-13.6c3.9-2.9,9-4.1,13-7.1c3.9-2.9,6.6-7.1,7.8-11.6c2.4-1.5,4.7-3.1,7.3-4.1c7.5-2.9,15.4-3.2,23.3-2.4
	c3.1,0.3,6,0.6,9.1,0.3c0.6-0.1,1.1-0.4,1.6-1c0.9-1,1-2.6,0.1-3.6c-0.5-0.6-1.1-1.1-1.7-1.3c-1.2-0.5-3-0.1-4.5,0
	c-6.4,0.2-12.7,0.5-19.1,0.5c-4.4,0-7.9-2.2-11-5.1c-4.1-3.9-3.1-14.2,1.9-15.6c5-1.3,10.4-1.6,15.7-2c1.6-0.1,3.4,1.1,5,1
	c2.4-0.2,4.5-1.4,4.5-4.2c0-2.9-2.3-3.2-4.4-3.2c-1.2,0-2.3,0.3-3.5,0.4c-10,0.3-20.2,1.4-30-1.9c-6-2.2-7.9-5.4-7.3-11.2
	c0.8-6.1,4.9-9.9,11.2-10.8c5.6-0.6,11.3-1.3,16.9-2c2.7-0.4,4.7-3,4.6-5.5c-0.2-3-2-4-4.9-4.2c-10.4-0.4-20.9-1.2-31.3-1.3
	c-6,0-9.5-4.2-10.2-9.4c-0.5-3.9,1.8-7.5,6-8c3.2-0.4,6.7-2.4,10.2-3.7c2.8-0.9,5.7-1.8,8.5-2.5c17.9-4.2,37.8-0.2,48-0.3
	c2,0,4.4,0.6,6.2-0.1c1.4-0.4,2.9-2.2,3.2-3.7c0.4-1.9-0.9-3.5-3.3-3.4c-1.4,0-3.1,0.2-4.5,0.2c-10.6-0.1-25.7,3.1-49.1-0.4
	c-6.4-0.9-12.6-3.2-19.1-4.4c-3.1-0.6-4.5-2.4-4-4.9c0.5-2.4,1.6-5.2,3.5-6.7c7.4-5.9,6.8-13-1.9-16.9c-3.1-1.4-4.1-3.9-3.3-7
	c1.1-3.9,4-6.1,7.6-7.2c7.1-2,12.6-5.3,13.4-13.4c0.1-1.2,1.3-2.7,2.5-3.6c8.7-7.5,19.1-8.3,29.7-5.6c2.6,0.6,4.2,0,5.7-1.1
	c1-0.7,1.7-2.9,1.4-4.2c-0.3-1.1-2-2.7-3.3-2.7c-2.9-0.1-5.7,0.6-8.6,0.8c-4.8,0.4-9.7,1.1-14.4,0.7c-5.4-0.5-10.8-2-16.1-3.2
	c-4.9-1-9.9-1.8-14.9-3.2c-3-0.8-5.2-2.9-5.7-6.1c-1.4-10.2-3.9-12.1-13.3-15.1C275.2-10.1-14.4-6.9-14.4-6.9z M332,483.5
	c2.2,0.1,5,2.6,5.7,4.6c0.6,1.6-1.2,4.7-2.8,6.1c-7.3,7-16.7,9-26.5,9.2c-4.6,0.1-6.5-2.5-6.4-7.5c0.1-6,3.9-11.5,10.1-12.3
	C318.7,482.7,325.5,483,332,483.5z M316.4,469.1l1,0.1c3.4,0.9,6.8,1.3,10.2,2.4c0.7,0.2,1.6,1.3,1.6,1.9s-0.9,1.8-1.6,1.8
	c-4.1,0.3-7.9,2.5-12.3,0.7c-2.5-1-4.1-2-3.8-4.6C311.8,468.9,314.2,469,316.4,469.1z"/>
</svg>
