<?xml version="1.0" encoding="utf-8"?>
<!-- Generator: Adobe Illustrator 22.1.0, SVG Export Plug-In . SVG Version: 6.00 Build 0)  -->
<svg version="1.1" id="Layer_1" xmlns="http://www.w3.org/2000/svg" xmlns:xlink="http://www.w3.org/1999/xlink" x="0px" y="0px"
	 viewBox="0 0 94.3 73.2" style="enable-background:new 0 0 94.3 73.2;" xml:space="preserve">
<style type="text/css">
	.st0{fill:#FFF5D0;stroke:#584C4F;stroke-miterlimit:10;}
	.st1{fill:#FCDE82;stroke:#584C4F;stroke-miterlimit:10;}
	.st2{fill:none;stroke:#584C4F;stroke-miterlimit:10;}
	.st3{fill:#FCDB77;stroke:#584C4F;stroke-miterlimit:10;}
</style>
<g id="Layer_5">
</g>
<g id="Layer_3">
</g>
<g>
	<g id="XMLID_29350_">
		<g id="XMLID_29352_">
			<path id="XMLID_29356_" class="st0" d="M15.6,51"/>
			<path id="XMLID_29354_" class="st0" d="M22.5,49.4c-11-8.1-19.6,2.1-19.6,2.1s-7,16.1,6.4,20.4C22.7,76.2,33.5,57.5,22.5,49.4z"
				/>
			<path id="XMLID_29353_" class="st0" d="M18.2,48.4"/>
		</g>
		<path id="XMLID_29351_" class="st0" d="M17.7,68.4c0,0,1,6.5,6.8,3.1c5.9-3.5-0.3-9.1-0.3-9.1"/>
	</g>
	<g>
		<path id="XMLID_29347_" class="st1" d="M16,56.8c-1-0.8-2-0.8-2.7-0.5c-0.1-0.1-0.2-0.1-0.2-0.2c-1.4-0.7-1.6,1.5-1.5,2.9
			c0,0.1,0,0.2,0,0.3c0,0.4,0,0.7,0,0.7s0.7,4.6,1.5,4.2c0.3-0.1,0.7-1.2,0.9-2.6C16.4,61.7,18.1,58.4,16,56.8z M15,59.2
			c-0.2,0.5-0.5,0.6-0.8,0.6c-0.8-0.1-1.7-1.7-0.5-1.8c0,0,0.2-0.1,0.4-0.1C14.6,57.9,15.5,57.9,15,59.2z"/>
		<g id="XMLID_29339_">
			<g id="XMLID_29341_">
				<path id="XMLID_29346_" class="st1" d="M7.8,57"/>
				<path id="XMLID_29343_" class="st1" d="M9.2,56.7c-2.3-1.7-4.2,0.4-4.2,0.4s-1.5,3.4,1.4,4.4C9.3,62.4,11.6,58.4,9.2,56.7z
					 M8.2,58.4c0.8,1.8-2.8,1.3-1.9,0.1C6.3,58.5,7.4,56.6,8.2,58.4z"/>
				<path id="XMLID_29342_" class="st1" d="M8.3,56.5"/>
			</g>
			<path id="XMLID_29340_" class="st1" d="M8.2,60.8c0,0,0.2,1.4,1.5,0.7s-0.1-2-0.1-2"/>
		</g>
		<path id="XMLID_22_" class="st1" d="M22.5,56.8c-1-0.8-2-0.8-2.7-0.5c-0.1-0.1-0.2-0.1-0.2-0.2c-1.4-0.7-1.6,1.5-1.5,2.9
			c0,0.1,0,0.2,0,0.3c0,0.4,0,0.7,0,0.7s0.7,4.6,1.5,4.2c0.3-0.1,0.7-1.2,0.9-2.6C23,61.7,24.6,58.4,22.5,56.8z M21.5,59.2
			c-0.2,0.5-0.5,0.6-0.8,0.6c-0.8-0.1-1.7-1.7-0.5-1.8c0,0,0.2-0.1,0.4-0.1C21.1,57.9,22,57.9,21.5,59.2z"/>
	</g>
	<line id="XMLID_29361_" class="st2" x1="9.2" y1="70.2" x2="9.9" y2="70.5"/>
	<path id="XMLID_29360_" class="st3" d="M25,68.6c0,0-0.1,0.7-0.7,0.6"/>
	<path id="XMLID_29357_" class="st3" d="M5.5,51.5c0,0-0.8,0.4-1,0.7"/>
</g>
</svg>
