<?xml version="1.0" encoding="utf-8"?>
<!-- Generator: Adobe Illustrator 22.1.0, SVG Export Plug-In . SVG Version: 6.00 Build 0)  -->
<svg version="1.1" id="Layer_1" xmlns="http://www.w3.org/2000/svg" xmlns:xlink="http://www.w3.org/1999/xlink" x="0px" y="0px"
	 viewBox="0 0 513 385" style="enable-background:new 0 0 513 385;" xml:space="preserve">
<style type="text/css">
	.st0{fill:#FFFAF2;stroke:#584C4F;stroke-miterlimit:10;}
	.st1{fill:#FFD767;stroke:#584C4F;stroke-miterlimit:10;}
	.st2{fill:#A36B78;stroke:#584C4F;stroke-linecap:round;stroke-miterlimit:10;}
	.st3{fill:#A36B78;}
	.st4{fill:#A36B78;stroke:#584C4F;stroke-linecap:round;stroke-linejoin:round;stroke-miterlimit:10;}
	.st5{fill:#584C4F;stroke:#584C4F;stroke-linecap:round;stroke-miterlimit:10;}
</style>
<g id="Layer_5">
</g>
<g id="Layer_3">
</g>
<g>
	<polygon class="st0" points="1,17.1 9.3,12.2 9.8,23.3 	"/>
	<g>
		<path class="st1" d="M71,17c0-6.5-1-9.4-9.6-8.9c-0.5,0-0.9,0.1-1.4,0.1c4.9,0.6,5.6,3.5,5.6,8.8c0,3.5-5.7,4.5-11.9,4.7
			C61.6,21.9,71,21.4,71,17z"/>
		<path class="st1" d="M65.6,17c0-5.3-0.6-8.2-5.6-8.8c-4.5,0.3-9.1,0.7-12.4,1.1C46.4,9,44.8,8.9,42.9,9c-0.5,0-0.9,0.1-1.4,0.1
			c-6.3,0.4-12.8,1.1-15.6,1.4c-8.2,0.5-16.6,1.6-16.6,1.6s-4.2,11.3,1.9,11.6c1.9,0.1,5.2,0.3,8.7,0.4c5.2,0.1,11.1,0,14.5-1.4
			c0.2,0,0.5,0,0.7,0c4.9,0.1,10.3,0,13.8-1.2c1.4,0.1,3,0.2,4.7,0.2C59.9,21.5,65.6,20.4,65.6,17z"/>
	</g>
	<g>
		<path id="XMLID_810_" class="st2" d="M180.3,175.7c-23.2-25.2-48.1-52-62-67.4c-30.3-33.6-79.9-78-79.9-78L52.9,18
			c0,0,80.2,85.7,100.4,100.4c11.6,8.4,41.3,42,66,69.4"/>
		<g id="XMLID_798_">
			<path id="XMLID_809_" class="st3" d="M48.7,2.1c-3,1.5-4.9,2.8-6,3.9c-5.9-9.2-8.5-2.9-9.4,0.5L32,6.8c-6.9-2.7-6.7,5.3-6.5,7.8
				l-1-1.1c-6.6,1.7-2.7,6.3-0.3,8.6c-1.1-0.4-3-0.2-6.3,2.6c-6.3,5.3,33.6,18.2,33.6,18.2l11.9-14.4C63.4,28.4,63.9-5.4,48.7,2.1z"
				/>
			<path id="XMLID_808_" class="st2" d="M63.4,28.4c0,0,0.5-33.8-14.7-26.3c-3,1.5-4.9,2.8-6,3.9c-5.9-9.2-8.5-2.9-9.4,0.5L32,6.8
				c-6.9-2.7-6.7,5.3-6.5,7.8l-1-1.1c-6.6,1.7-2.7,6.3-0.3,8.6c-1.1-0.4-3-0.2-6.3,2.6c-6.3,5.3,33.6,18.2,33.6,18.2"/>
			<g id="XMLID_803_">
				<path id="XMLID_807_" class="st4" d="M51.5,42.8c0,0-39.9-12.9-33.6-18.2s7.4-1.5,7.8-1.4c0,0-10.1-7.6-1.2-9.9"/>
				<path id="XMLID_806_" class="st4" d="M25.5,15.3c0,0-1.8-12.1,6.9-8.3"/>
				<path id="XMLID_805_" class="st4" d="M63.4,28.4c0,0,0.5-33.8-14.7-26.3s-2.5,10.5,1,7.2"/>
				<path id="XMLID_804_" class="st4" d="M32.9,8.3c0,0,2.3-15.2,10.4-1.3l4.4,6.7"/>
			</g>
			<path id="XMLID_802_" class="st4" d="M46.6,33.3c0,0,0.1,16,8.6,8.6"/>
			<path id="XMLID_801_" class="st2" d="M42.1,18.9c0,0-2.6-4.2-4.9-5.7"/>
			<path id="XMLID_800_" class="st2" d="M31.6,19.8c0,0-2.3-2.7-2.9-2.3"/>
			<path id="XMLID_799_" class="st4" d="M39.4,31.6c-2-1.3-7.4-3-7.4-3"/>
		</g>
		<g id="XMLID_796_">
			<path id="XMLID_797_" class="st2" d="M131,115.4c-0.9,8.8-14.6,3.3-8.3-4.7"/>
		</g>
		<path id="XMLID_795_" class="st2" d="M129.1,113.5c0,0,0.1,2-1.4,2.2"/>
		<path id="XMLID_794_" class="st2" d="M123.5,113.7c0,0,0.4-2.4,0.9-2.6"/>
	</g>
	<polygon class="st5" points="3.5,15.6 2.7,16.5 2.9,17.1 2.5,17.4 2.8,18.4 1,17.1 	"/>
</g>
</svg>
