<?xml version="1.0" encoding="utf-8"?>
<!-- Generator: Adobe Illustrator 22.1.0, SVG Export Plug-In . SVG Version: 6.00 Build 0)  -->
<svg version="1.1" id="Layer_1" xmlns="http://www.w3.org/2000/svg" xmlns:xlink="http://www.w3.org/1999/xlink" x="0px" y="0px"
	 viewBox="0 0 48.3 842.1" style="enable-background:new 0 0 48.3 842.1;" xml:space="preserve">
<style type="text/css">
	.st0{fill:#FDF7E0;stroke:#584C4F;stroke-miterlimit:10;}
	.st1{fill:#FFD767;stroke:#584C4F;stroke-miterlimit:10;}
</style>
<g id="Layer_5">
</g>
<g id="Layer_3">
</g>
<g>
	<path id="XMLID_220_" class="st0" d="M30.5,738c0,0,0.1,0.2-0.2,0.2c-9.3,0.2-24.1,0-24.1,0C5.9,738.2,6,738,6,738
		c-0.4-5.3,0-15.1,0-15.1s-0.1-0.2,0.2-0.2c14.5-0.4,24.3,0,24.3,0c0.3,0,0.2,0.2,0.2,0.2S30.7,731.2,30.5,738z"/>
	<path id="XMLID_219_" class="st0" d="M27.7,725.7c0,0,0.1-0.4-0.3-0.4c0,0-6.1-0.5-13.6,0c-0.4,0-0.3,0.4-0.3,0.4s-0.1,5.5,0.1,9.4
		c0,0-0.1,0.4,0.3,0.4c0,0,5.8,0.3,13.4,0c0.4,0,0.3-0.4,0.3-0.4L27.7,725.7z"/>
	<g>
		<path class="st0" d="M25,717.2c-1.5,1.6-3.3,3.4-5,5c-0.1-0.1-0.1-0.1-0.2-0.2C25.8,716.1,25,717.2,25,717.2z"/>
		<path class="st0" d="M14.8,717c1.6,1.5,3.4,3.3,5,5c-0.1,0.1-0.1,0.1-0.2,0.2C13.7,716.2,14.8,717,14.8,717z"/>
		<path class="st0" d="M19.8,722c0.1,0.1,0.1,0.1,0.2,0.2c-0.1,0.1-0.1,0.1-0.2,0.2c-0.1-0.1-0.1-0.1-0.2-0.2
			C19.6,722.1,19.7,722.1,19.8,722z"/>
	</g>
</g>
<g>
	<g>
		<path class="st0" d="M3,631.4c0,0,0.3-0.6,0.9-0.5c0,0,23.9,0,24.6,0c0.6,0,0.9,0.5,0.9,0.5s0,13.5-0.3,14c0,0-0.3,0.6-0.9,0.5
			c0,0-3.6,0-8,0.1v-0.1c-0.1-0.1-3.9-3.8-3.9-3.8c-0.1-0.1-0.3,0-0.3,0c-0.5,0.4-3.8,3.9-3.8,3.9v0.1c-4,0-7.3,0-8-0.1
			c-0.6-0.1-0.9-0.5-0.9-0.5S2.9,633,3,631.4z"/>
		<path class="st0" d="M16,642.1c0,0,0.2-0.1,0.3,0c0,0,3.7,3.7,3.9,3.8v0.1c-2.6,0-5.4,0-8,0c0-0.1,0-0.1,0-0.1
			S15.6,642.5,16,642.1z"/>
	</g>
	<g>
		<path class="st0" d="M18.8,638.4c0-0.1,0-0.1,0-0.2c0-0.2,0-0.5,0.1-0.7c0.1-0.3,0.1-0.5,0.2-0.8c0,0,0,0,0.1-0.1
			c0.1-0.4,0.4-0.8,0.7-1c0.3-0.3,0.6-0.5,1-0.7c0.2-0.1,0.4-0.2,0.7-0.3c0,0,0.2,0,0.4,0c0.3-0.1,0.5-0.1,0.8-0.1
			c0.1,0,0.1,0,0.2,0c0.2,0,0.5,0,0.7,0.1c0.3,0.1,0.5,0.1,0.8,0.2c0,0,0,0,0.1,0.1c0.4,0.1,0.8,0.4,1,0.7c0.3,0.3,0.5,0.6,0.7,1
			c0.1,0.2,0.2,0.4,0.3,0.7c0,0,0,0.2,0,0.4c0.1,0.3,0.1,0.5,0.1,0.8c0,0.1,0,0.1,0,0.2c0,0.2,0,0.5-0.1,0.7
			c-0.1,0.3-0.1,0.5-0.2,0.8c0,0,0,0-0.1,0.1c-0.1,0.4-0.4,0.8-0.7,1c-0.3,0.3-0.6,0.5-1,0.7c-0.2,0.1-0.4,0.2-0.7,0.3
			c0,0-0.2,0-0.4,0c-0.3,0.1-0.5,0.1-0.8,0.1c-0.1,0-0.1,0-0.2,0c-0.2,0-0.5,0-0.7-0.1c-0.3-0.1-0.5-0.1-0.8-0.2c0,0,0,0-0.1-0.1
			c-0.4-0.1-0.8-0.4-1-0.7c-0.3-0.3-0.5-0.6-0.7-1c-0.1-0.2-0.2-0.4-0.3-0.7c0,0,0-0.2,0-0.4C18.8,639,18.7,638.7,18.8,638.4z"/>
		<path class="st0" d="M5.5,638.4c0-0.1,0-0.1,0-0.2c0-0.2,0-0.5,0.1-0.7c0.1-0.3,0.1-0.5,0.2-0.8c0,0,0,0,0.1-0.1
			c0.1-0.4,0.4-0.8,0.7-1c0.3-0.3,0.6-0.5,1-0.7c0.2-0.1,0.4-0.2,0.7-0.3c0,0,0.2,0,0.4,0c0.3-0.1,0.5-0.1,0.8-0.1
			c0.1,0,0.1,0,0.2,0c0.2,0,0.5,0,0.7,0.1c0.3,0.1,0.5,0.1,0.8,0.2c0,0,0,0,0.1,0.1c0.4,0.1,0.8,0.4,1,0.7c0.3,0.3,0.5,0.6,0.7,1
			c0.1,0.2,0.2,0.4,0.3,0.7c0,0,0,0.2,0,0.4c0.1,0.3,0.1,0.5,0.1,0.8c0,0.1,0,0.1,0,0.2c0,0.2,0,0.5-0.1,0.7
			c-0.1,0.3-0.1,0.5-0.2,0.8c0,0,0,0-0.1,0.1c-0.1,0.4-0.4,0.8-0.7,1c-0.3,0.3-0.6,0.5-1,0.7c-0.2,0.1-0.4,0.2-0.7,0.3
			c0,0-0.2,0-0.4,0c-0.3,0.1-0.5,0.1-0.8,0.1c-0.1,0-0.1,0-0.2,0c-0.2,0-0.5,0-0.7-0.1c-0.3-0.1-0.5-0.1-0.8-0.2c0,0,0,0-0.1-0.1
			c-0.4-0.1-0.8-0.4-1-0.7c-0.3-0.3-0.5-0.6-0.7-1c-0.1-0.2-0.2-0.4-0.3-0.7c0,0,0-0.2,0-0.4C5.6,639,5.5,638.7,5.5,638.4z"/>
	</g>
</g>
<path id="XMLID_218_" class="st0" d="M30.5,783.5c0,0,0.1,0.2-0.2,0.2c-10.1,0.2-26.2,0-26.2,0c-0.3,0-0.2-0.2-0.2-0.2
	c-0.4-5.6,0-16,0-16s-0.2-0.2,0.1-0.2c15.7-0.4,26.4,0,26.4,0c0.3,0,0.2,0.2,0.2,0.2S30.7,776.3,30.5,783.5z"/>
<g>
	<path class="st0" d="M9.9,598.7c0.6-3.5,1.6-5,2.8-5.7c0,0,7.2-2.7,9.3,4.2c0.2,0.6,0.3,1.1,0.3,1.6L9.9,598.7L9.9,598.7z"/>
	<path class="st0" d="M4.7,577c0,0-0.1-0.2,0.2-0.2c13.5-0.6,22.7,0,22.7,0c0.3,0,0.2,0.2,0.2,0.2s0,7.7-0.1,15.7H4.6L4.7,577z"/>
	<path class="st0" d="M27.4,596.4c-8.7,0.2-22.5,0-22.5,0c-0.3,0-0.2-0.2-0.2-0.2c-0.1-0.7-0.1-1.5-0.1-2.4v-1.4h23.1
		c0,1.3,0,2.5-0.1,3.7C27.6,596.2,27.7,596.4,27.4,596.4z"/>
	<path class="st0" d="M7.7,579.5c0,0-0.1-0.2,0.1-0.2c9.9-0.4,16.6,0,16.6,0c0.2,0,0.1,0.2,0.1,0.2s0,5-0.1,10.3H7.6L7.7,579.5z"/>
</g>
<path class="st1" d="M16.4,751.9c0,0,1.2-0.1,2.2,0c2.2-0.3,9.7-0.2,13.6,0c0,0,4.3-0.4,3.1,1.2c-0.5,0.6-2.2,0.8-4,0.8
	c-1.9,0-7.8,0.1-11.7-0.1c0,0-1.2,0.1-2.2,0c-2.2,0.3-9.7,0.2-13.6,0c0,0-4.3,0.4-3.1-1.2c0.4-0.5,1.8-0.8,3.4-0.8
	C6.1,751.8,12.6,751.7,16.4,751.9z"/>
<path class="st1" d="M16.4,797c0,0,1.2-0.1,2.2,0c2.2-0.3,9.7-0.2,13.6,0c0,0,4.3-0.4,3.1,1.2c-0.5,0.6-2.2,0.8-4,0.8
	c-1.9,0-7.8,0.1-11.7-0.1c0,0-1.2,0.1-2.2,0c-2.2,0.3-9.7,0.2-13.6,0c0,0-4.3,0.4-3.1-1.2c0.4-0.5,1.8-0.8,3.4-0.8
	C6.1,796.9,12.6,796.9,16.4,797z"/>
<g>
	<path id="XMLID_216_" class="st0" d="M30.9,816.2c0,0,0.1-0.3-0.5-0.3c0,0-11.3-0.4-25.3,0c-0.7,0-0.5,0.3-0.5,0.3
		s-0.1,4.2,0.2,7.2c0,0-0.1,0.3,0.5,0.3c0,0,10.8,0.3,24.8,0c0.7,0,0.5-0.3,0.5-0.3L30.9,816.2z"/>
	<path id="XMLID_214_" class="st0" d="M25.4,815.4c0,0,3.5,9.5-5.5,12.2c-9,2.6-10.8-5.4-10.8-6.5c0.1-1.1,0.8-10.4,6.8-9.7
		C21.9,812.1,24.4,813.6,25.4,815.4z"/>
	<path id="XMLID_213_" class="st0" d="M22.6,824c0,0-5.6,5-9.8-0.5s0.8-8.9,1.6-9.1c0.8-0.2,7.4-2.2,8.4,2.1
		C23.8,820.8,23.5,822.8,22.6,824z"/>
</g>
<path id="XMLID_212_" class="st0" d="M27.4,782c0,0,0.9,0.1,1-0.3c0,0,1.1-5.5,0-12.3c-0.1-0.3-1-0.3-1-0.3s-12.2-0.1-20.7,0.1
	c0,0-0.9-0.1-1,0.3c0,0-0.8,5.3,0,12.1c0,0.3,1,0.3,1,0.3L27.4,782z"/>
<g>
	<path id="XMLID_211_" class="st0" d="M24.7,670.5c0,0,0.2-0.1,0.2,0.2c0.2,9.9,0,25.6,0,25.6c0,0.3-0.2,0.2-0.2,0.2
		c-5.6,0.4-16,0-16,0s-0.2,0.1-0.2-0.2c-0.4-15.3,0-25.8,0-25.8c0-0.3,0.2-0.2,0.2-0.2S17.5,670.3,24.7,670.5z"/>
	<path id="XMLID_208_" class="st0" d="M10.7,672.3c0,0-0.5-0.1-0.6,0.4c0,0-0.6,8.3,0,18.5c0,0.5,0.6,0.4,0.6,0.4s7,0.1,12-0.2
		c0,0,0.5,0.1,0.6-0.4c0,0,0.4-7.9,0-18.2c0-0.5-0.6-0.4-0.6-0.4L10.7,672.3z"/>
	<path id="XMLID_207_" class="st0" d="M16.3,693.4c0,0,1.1-0.4,1.4,0.6s-0.6,1.2-0.7,1.2s-1.2-0.1-1.1-0.8
		C15.9,693.8,16.1,693.5,16.3,693.4z"/>
</g>
<path class="st1" d="M16.4,660.9c0,0,1.2-0.1,2.2,0c2.2-0.3,9.7-0.2,13.6,0c0,0,4.3-0.4,3.1,1.2c-0.5,0.6-2.2,0.8-4,0.8
	c-1.9,0-7.8,0.1-11.7-0.1c0,0-1.2,0.1-2.2,0c-2.2,0.3-9.7,0.2-13.6,0c0,0-4.3,0.4-3.1-1.2c0.4-0.5,1.8-0.8,3.4-0.8
	C6.1,660.8,12.6,660.7,16.4,660.9z"/>
<path class="st1" d="M16.4,706c0,0,1.2-0.1,2.2,0c2.2-0.3,9.7-0.2,13.6,0c0,0,4.3-0.4,3.1,1.2c-0.5,0.6-2.2,0.8-4,0.8
	c-1.9,0-7.8,0.1-11.7-0.1c0,0-1.2,0.1-2.2,0c-2.2,0.3-9.7,0.2-13.6,0c0,0-4.3,0.4-3.1-1.2c0.4-0.5,1.8-0.8,3.4-0.8
	C6.1,705.9,12.6,705.9,16.4,706z"/>
<path class="st1" d="M16.4,615c0,0,1.2-0.1,2.2,0c2.2-0.3,9.7-0.2,13.6,0c0,0,4.3-0.4,3.1,1.2c-0.5,0.6-2.2,0.8-4,0.8
	c-1.9,0-7.8,0.1-11.7-0.1c0,0-1.2,0.1-2.2,0c-2.2,0.3-9.7,0.2-13.6,0c0,0-4.3,0.4-3.1-1.2c0.4-0.5,1.8-0.8,3.4-0.8
	C6.1,614.9,12.6,614.9,16.4,615z"/>
<g>
	<path id="XMLID_10_" class="st0" d="M30.5,457.8c0,0,0.1,0.2-0.2,0.2c-9.3,0.2-24.1,0-24.1,0c-0.3,0-0.2-0.2-0.2-0.2
		c-0.4-5.3,0-15.1,0-15.1s-0.1-0.2,0.2-0.2c14.5-0.4,24.3,0,24.3,0c0.3,0,0.2,0.2,0.2,0.2S30.7,451,30.5,457.8z"/>
	<path id="XMLID_9_" class="st0" d="M27.7,445.5c0,0,0.1-0.4-0.3-0.4c0,0-6.1-0.5-13.6,0c-0.4,0-0.3,0.4-0.3,0.4s-0.1,5.5,0.1,9.4
		c0,0-0.1,0.4,0.3,0.4c0,0,5.8,0.3,13.4,0c0.4,0,0.3-0.4,0.3-0.4L27.7,445.5z"/>
	<g>
		<path class="st0" d="M25,437c-1.5,1.6-3.3,3.4-5,5c-0.1-0.1-0.1-0.1-0.2-0.2C25.8,435.9,25,437,25,437z"/>
		<path class="st0" d="M14.8,436.8c1.6,1.5,3.4,3.3,5,5c-0.1,0.1-0.1,0.1-0.2,0.2C13.7,436,14.8,436.8,14.8,436.8z"/>
		<path class="st0" d="M19.8,441.8c0.1,0.1,0.1,0.1,0.2,0.2c-0.1,0.1-0.1,0.1-0.2,0.2c-0.1-0.1-0.1-0.1-0.2-0.2
			C19.6,441.9,19.7,441.9,19.8,441.8z"/>
	</g>
</g>
<g>
	<g>
		<path class="st0" d="M3,351.2c0,0,0.3-0.6,0.9-0.5c0,0,23.9,0,24.6,0c0.6,0,0.9,0.5,0.9,0.5s0,13.5-0.3,14c0,0-0.3,0.6-0.9,0.5
			c0,0-3.6,0-8,0.1v-0.1c-0.1-0.1-3.9-3.8-3.9-3.8c-0.1-0.1-0.3,0-0.3,0c-0.5,0.4-3.8,3.9-3.8,3.9v0.1c-4,0-7.3,0-8-0.1
			c-0.6-0.1-0.9-0.5-0.9-0.5S2.9,352.8,3,351.2z"/>
		<path class="st0" d="M16,361.9c0,0,0.2-0.1,0.3,0c0,0,3.7,3.7,3.9,3.8v0.1c-2.6,0-5.4,0-8,0c0-0.1,0-0.1,0-0.1
			S15.6,362.3,16,361.9z"/>
	</g>
	<g>
		<path class="st0" d="M18.8,358.2c0-0.1,0-0.1,0-0.2c0-0.2,0-0.5,0.1-0.7c0.1-0.3,0.1-0.5,0.2-0.8c0,0,0,0,0.1-0.1
			c0.1-0.4,0.4-0.8,0.7-1c0.3-0.3,0.6-0.5,1-0.7c0.2-0.1,0.4-0.2,0.7-0.3c0,0,0.2,0,0.4,0c0.3-0.1,0.5-0.1,0.8-0.1
			c0.1,0,0.1,0,0.2,0c0.2,0,0.5,0,0.7,0.1c0.3,0.1,0.5,0.1,0.8,0.2c0,0,0,0,0.1,0.1c0.4,0.1,0.8,0.4,1,0.7c0.3,0.3,0.5,0.6,0.7,1
			c0.1,0.2,0.2,0.4,0.3,0.7c0,0,0,0.2,0,0.4c0.1,0.3,0.1,0.5,0.1,0.8c0,0.1,0,0.1,0,0.2c0,0.2,0,0.5-0.1,0.7
			c-0.1,0.3-0.1,0.5-0.2,0.8c0,0,0,0-0.1,0.1c-0.1,0.4-0.4,0.8-0.7,1c-0.3,0.3-0.6,0.5-1,0.7c-0.2,0.1-0.4,0.2-0.7,0.3
			c0,0-0.2,0-0.4,0c-0.3,0.1-0.5,0.1-0.8,0.1c-0.1,0-0.1,0-0.2,0c-0.2,0-0.5,0-0.7-0.1c-0.3-0.1-0.5-0.1-0.8-0.2c0,0,0,0-0.1-0.1
			c-0.4-0.1-0.8-0.4-1-0.7c-0.3-0.3-0.5-0.6-0.7-1c-0.1-0.2-0.2-0.4-0.3-0.7c0,0,0-0.2,0-0.4C18.8,358.8,18.7,358.5,18.8,358.2z"/>
		<path class="st0" d="M5.5,358.2c0-0.1,0-0.1,0-0.2c0-0.2,0-0.5,0.1-0.7c0.1-0.3,0.1-0.5,0.2-0.8c0,0,0,0,0.1-0.1
			c0.1-0.4,0.4-0.8,0.7-1c0.3-0.3,0.6-0.5,1-0.7c0.2-0.1,0.4-0.2,0.7-0.3c0,0,0.2,0,0.4,0c0.3-0.1,0.5-0.1,0.8-0.1
			c0.1,0,0.1,0,0.2,0c0.2,0,0.5,0,0.7,0.1c0.3,0.1,0.5,0.1,0.8,0.2c0,0,0,0,0.1,0.1c0.4,0.1,0.8,0.4,1,0.7c0.3,0.3,0.5,0.6,0.7,1
			c0.1,0.2,0.2,0.4,0.3,0.7c0,0,0,0.2,0,0.4c0.1,0.3,0.1,0.5,0.1,0.8c0,0.1,0,0.1,0,0.2c0,0.2,0,0.5-0.1,0.7
			c-0.1,0.3-0.1,0.5-0.2,0.8c0,0,0,0-0.1,0.1c-0.1,0.4-0.4,0.8-0.7,1c-0.3,0.3-0.6,0.5-1,0.7c-0.2,0.1-0.4,0.2-0.7,0.3
			c0,0-0.2,0-0.4,0c-0.3,0.1-0.5,0.1-0.8,0.1c-0.1,0-0.1,0-0.2,0c-0.2,0-0.5,0-0.7-0.1C8.2,362,8,362,7.7,361.9c0,0,0,0-0.1-0.1
			c-0.4-0.1-0.8-0.4-1-0.7c-0.3-0.3-0.5-0.6-0.7-1c-0.1-0.2-0.2-0.4-0.3-0.7c0,0,0-0.2,0-0.4C5.6,358.8,5.5,358.5,5.5,358.2z"/>
	</g>
</g>
<path id="XMLID_8_" class="st0" d="M30.5,503.3c0,0,0.1,0.2-0.2,0.2c-10.1,0.2-26.2,0-26.2,0c-0.3,0-0.2-0.2-0.2-0.2
	c-0.4-5.6,0-16,0-16s-0.2-0.2,0.1-0.2c15.7-0.4,26.4,0,26.4,0c0.3,0,0.2,0.2,0.2,0.2S30.7,496.1,30.5,503.3z"/>
<g>
	<path class="st0" d="M9.9,318.5c0.6-3.5,1.6-5,2.8-5.7c0,0,7.2-2.7,9.3,4.2c0.2,0.6,0.3,1.1,0.3,1.6L9.9,318.5L9.9,318.5z"/>
	<path class="st0" d="M4.7,296.8c0,0-0.1-0.2,0.2-0.2c13.5-0.6,22.7,0,22.7,0c0.3,0,0.2,0.2,0.2,0.2s0,7.7-0.1,15.7H4.6L4.7,296.8z"
		/>
	<path class="st0" d="M27.4,316.2c-8.7,0.2-22.5,0-22.5,0c-0.3,0-0.2-0.2-0.2-0.2c-0.1-0.7-0.1-1.5-0.1-2.4v-1.4h23.1
		c0,1.3,0,2.5-0.1,3.7C27.6,316,27.7,316.2,27.4,316.2z"/>
	<path class="st0" d="M7.7,299.3c0,0-0.1-0.2,0.1-0.2c9.9-0.4,16.6,0,16.6,0c0.2,0,0.1,0.2,0.1,0.2s0,5-0.1,10.3H7.6L7.7,299.3z"/>
</g>
<path class="st1" d="M16.4,471.7c0,0,1.2-0.1,2.2,0c2.2-0.3,9.7-0.2,13.6,0c0,0,4.3-0.4,3.1,1.2c-0.5,0.6-2.2,0.8-4,0.8
	c-1.9,0-7.8,0.1-11.7-0.1c0,0-1.2,0.1-2.2,0c-2.2,0.3-9.7,0.2-13.6,0c0,0-4.3,0.4-3.1-1.2c0.4-0.5,1.8-0.8,3.4-0.8
	C6.1,471.6,12.6,471.5,16.4,471.7z"/>
<path class="st1" d="M16.4,516.8c0,0,1.2-0.1,2.2,0c2.2-0.3,9.7-0.2,13.6,0c0,0,4.3-0.4,3.1,1.2c-0.5,0.6-2.2,0.8-4,0.8
	c-1.9,0-7.8,0.1-11.7-0.1c0,0-1.2,0.1-2.2,0c-2.2,0.3-9.7,0.2-13.6,0c0,0-4.3,0.4-3.1-1.2c0.4-0.5,1.8-0.8,3.4-0.8
	C6.1,516.7,12.6,516.7,16.4,516.8z"/>
<g>
	<path id="XMLID_7_" class="st0" d="M30.9,536c0,0,0.1-0.3-0.5-0.3c0,0-11.3-0.4-25.3,0c-0.7,0-0.5,0.3-0.5,0.3s-0.1,4.2,0.2,7.2
		c0,0-0.1,0.3,0.5,0.3c0,0,10.8,0.3,24.8,0c0.7,0,0.5-0.3,0.5-0.3L30.9,536z"/>
	<path id="XMLID_6_" class="st0" d="M25.4,535.2c0,0,3.5,9.5-5.5,12.2c-9,2.6-10.8-5.4-10.8-6.5c0.1-1.1,0.8-10.4,6.8-9.7
		S24.4,533.4,25.4,535.2z"/>
	<path id="XMLID_5_" class="st0" d="M22.6,543.8c0,0-5.6,5-9.8-0.5s0.8-8.9,1.6-9.1s7.4-2.2,8.4,2.1
		C23.8,540.6,23.5,542.6,22.6,543.8z"/>
</g>
<path id="XMLID_4_" class="st0" d="M27.4,501.8c0,0,0.9,0.1,1-0.3c0,0,1.1-5.5,0-12.3c-0.1-0.3-1-0.3-1-0.3s-12.2-0.1-20.7,0.1
	c0,0-0.9-0.1-1,0.3c0,0-0.8,5.3,0,12.1c0,0.3,1,0.3,1,0.3L27.4,501.8z"/>
<g>
	<path id="XMLID_3_" class="st0" d="M24.7,390.3c0,0,0.2-0.1,0.2,0.2c0.2,9.9,0,25.6,0,25.6c0,0.3-0.2,0.2-0.2,0.2
		c-5.6,0.4-16,0-16,0s-0.2,0.1-0.2-0.2c-0.4-15.3,0-25.8,0-25.8c0-0.3,0.2-0.2,0.2-0.2S17.5,390.1,24.7,390.3z"/>
	<path id="XMLID_2_" class="st0" d="M10.7,392.1c0,0-0.5-0.1-0.6,0.4c0,0-0.6,8.3,0,18.5c0,0.5,0.6,0.4,0.6,0.4s7,0.1,12-0.2
		c0,0,0.5,0.1,0.6-0.4c0,0,0.4-7.9,0-18.2c0-0.5-0.6-0.4-0.6-0.4L10.7,392.1z"/>
	<path id="XMLID_1_" class="st0" d="M16.3,413.2c0,0,1.1-0.4,1.4,0.6S17.1,415,17,415s-1.2-0.1-1.1-0.8
		C15.9,413.6,16.1,413.3,16.3,413.2z"/>
</g>
<path class="st1" d="M16.4,380.7c0,0,1.2-0.1,2.2,0c2.2-0.3,9.7-0.2,13.6,0c0,0,4.3-0.4,3.1,1.2c-0.5,0.6-2.2,0.8-4,0.8
	c-1.9,0-7.8,0.1-11.7-0.1c0,0-1.2,0.1-2.2,0c-2.2,0.3-9.7,0.2-13.6,0c0,0-4.3,0.4-3.1-1.2c0.4-0.5,1.8-0.8,3.4-0.8
	C6.1,380.6,12.6,380.5,16.4,380.7z"/>
<path class="st1" d="M16.4,425.8c0,0,1.2-0.1,2.2,0c2.2-0.3,9.7-0.2,13.6,0c0,0,4.3-0.4,3.1,1.2c-0.5,0.6-2.2,0.8-4,0.8
	c-1.9,0-7.8,0.1-11.7-0.1c0,0-1.2,0.1-2.2,0c-2.2,0.3-9.7,0.2-13.6,0c0,0-4.3,0.4-3.1-1.2c0.4-0.5,1.8-0.8,3.4-0.8
	C6.1,425.7,12.6,425.7,16.4,425.8z"/>
<path class="st1" d="M16.4,334.8c0,0,1.2-0.1,2.2,0c2.2-0.3,9.7-0.2,13.6,0c0,0,4.3-0.4,3.1,1.2c-0.5,0.6-2.2,0.8-4,0.8
	c-1.9,0-7.8,0.1-11.7-0.1c0,0-1.2,0.1-2.2,0c-2.2,0.3-9.7,0.2-13.6,0c0,0-4.3,0.4-3.1-1.2c0.4-0.5,1.8-0.8,3.4-0.8
	C6.1,334.7,12.6,334.7,16.4,334.8z"/>
<path class="st1" d="M16.8,559.4c0,0,1.2-0.1,2.2,0c2.2-0.3,9.7-0.2,13.6,0c0,0,4.3-0.4,3.1,1.2c-0.5,0.6-2.2,0.8-4,0.8
	c-1.9,0-7.8,0.1-11.7-0.1c0,0-1.2,0.1-2.2,0c-2.2,0.3-9.7,0.2-13.6,0c0,0-4.3,0.4-3.1-1.2c0.4-0.5,1.8-0.8,3.4-0.8
	C6.5,559.3,13,559.3,16.8,559.4z"/>
<g>
	<path id="XMLID_20_" class="st0" d="M30.5,177.7c0,0,0.1,0.2-0.2,0.2c-9.3,0.2-24.1,0-24.1,0c-0.3,0-0.2-0.2-0.2-0.2
		c-0.4-5.3,0-15.1,0-15.1s-0.1-0.2,0.2-0.2c14.5-0.4,24.3,0,24.3,0c0.3,0,0.2,0.2,0.2,0.2S30.7,170.9,30.5,177.7z"/>
	<path id="XMLID_19_" class="st0" d="M27.7,165.4c0,0,0.1-0.4-0.3-0.4c0,0-6.1-0.5-13.6,0c-0.4,0-0.3,0.4-0.3,0.4s-0.1,5.5,0.1,9.4
		c0,0-0.1,0.4,0.3,0.4c0,0,5.8,0.3,13.4,0c0.4,0,0.3-0.4,0.3-0.4L27.7,165.4z"/>
	<g>
		<path class="st0" d="M25,156.9c-1.5,1.6-3.3,3.4-5,5c-0.1-0.1-0.1-0.1-0.2-0.2C25.8,155.8,25,156.9,25,156.9z"/>
		<path class="st0" d="M14.8,156.7c1.6,1.5,3.4,3.3,5,5c-0.1,0.1-0.1,0.1-0.2,0.2C13.7,155.9,14.8,156.7,14.8,156.7z"/>
		<path class="st0" d="M19.8,161.7c0.1,0.1,0.1,0.1,0.2,0.2c-0.1,0.1-0.1,0.1-0.2,0.2c-0.1-0.1-0.1-0.1-0.2-0.2
			C19.6,161.8,19.7,161.8,19.8,161.7z"/>
	</g>
</g>
<g>
	<g>
		<path class="st0" d="M3,71.1c0,0,0.3-0.6,0.9-0.5c0,0,23.9,0,24.6,0c0.6,0,0.9,0.5,0.9,0.5s0,13.5-0.3,14c0,0-0.3,0.6-0.9,0.5
			c0,0-3.6,0-8,0.1v-0.1c-0.1-0.1-3.9-3.8-3.9-3.8c-0.1-0.1-0.3,0-0.3,0c-0.5,0.4-3.8,3.9-3.8,3.9v0.1c-4,0-7.3,0-8-0.1
			c-0.6-0.1-0.9-0.5-0.9-0.5S2.9,72.7,3,71.1z"/>
		<path class="st0" d="M16,81.8c0,0,0.2-0.1,0.3,0c0,0,3.7,3.7,3.9,3.8v0.1c-2.6,0-5.4,0-8,0c0-0.1,0-0.1,0-0.1S15.6,82.2,16,81.8z"
			/>
	</g>
	<g>
		<path class="st0" d="M18.8,78.1c0-0.1,0-0.1,0-0.2c0-0.2,0-0.5,0.1-0.7c0.1-0.3,0.1-0.5,0.2-0.8c0,0,0,0,0.1-0.1
			c0.1-0.4,0.4-0.8,0.7-1c0.3-0.3,0.6-0.5,1-0.7c0.2-0.1,0.4-0.2,0.7-0.3c0,0,0.2,0,0.4,0c0.3-0.1,0.5-0.1,0.8-0.1
			c0.1,0,0.1,0,0.2,0c0.2,0,0.5,0,0.7,0.1c0.3,0.1,0.5,0.1,0.8,0.2c0,0,0,0,0.1,0.1c0.4,0.1,0.8,0.4,1,0.7c0.3,0.3,0.5,0.6,0.7,1
			c0.1,0.2,0.2,0.4,0.3,0.7c0,0,0,0.2,0,0.4c0.1,0.3,0.1,0.5,0.1,0.8c0,0.1,0,0.1,0,0.2c0,0.2,0,0.5-0.1,0.7
			c-0.1,0.3-0.1,0.5-0.2,0.8c0,0,0,0-0.1,0.1c-0.1,0.4-0.4,0.8-0.7,1c-0.3,0.3-0.6,0.5-1,0.7c-0.2,0.1-0.4,0.2-0.7,0.3
			c0,0-0.2,0-0.4,0c-0.3,0.1-0.5,0.1-0.8,0.1c-0.1,0-0.1,0-0.2,0c-0.2,0-0.5,0-0.7-0.1c-0.3-0.1-0.5-0.1-0.8-0.2c0,0,0,0-0.1-0.1
			c-0.4-0.1-0.8-0.4-1-0.7c-0.3-0.3-0.5-0.6-0.7-1c-0.1-0.2-0.2-0.4-0.3-0.7c0,0,0-0.2,0-0.4C18.8,78.7,18.7,78.4,18.8,78.1z"/>
		<path class="st0" d="M5.5,78.1c0-0.1,0-0.1,0-0.2c0-0.2,0-0.5,0.1-0.7c0.1-0.3,0.1-0.5,0.2-0.8c0,0,0,0,0.1-0.1
			c0.1-0.4,0.4-0.8,0.7-1c0.3-0.3,0.6-0.5,1-0.7c0.2-0.1,0.4-0.2,0.7-0.3c0,0,0.2,0,0.4,0c0.3-0.1,0.5-0.1,0.8-0.1
			c0.1,0,0.1,0,0.2,0c0.2,0,0.5,0,0.7,0.1c0.3,0.1,0.5,0.1,0.8,0.2c0,0,0,0,0.1,0.1c0.4,0.1,0.8,0.4,1,0.7c0.3,0.3,0.5,0.6,0.7,1
			c0.1,0.2,0.2,0.4,0.3,0.7c0,0,0,0.2,0,0.4c0.1,0.3,0.1,0.5,0.1,0.8c0,0.1,0,0.1,0,0.2c0,0.2,0,0.5-0.1,0.7
			c-0.1,0.3-0.1,0.5-0.2,0.8c0,0,0,0-0.1,0.1c-0.1,0.4-0.4,0.8-0.7,1c-0.3,0.3-0.6,0.5-1,0.7c-0.2,0.1-0.4,0.2-0.7,0.3
			c0,0-0.2,0-0.4,0c-0.3,0.1-0.5,0.1-0.8,0.1c-0.1,0-0.1,0-0.2,0c-0.2,0-0.5,0-0.7-0.1c-0.3-0.1-0.5-0.1-0.8-0.2c0,0,0,0-0.1-0.1
			c-0.4-0.1-0.8-0.4-1-0.7c-0.3-0.3-0.5-0.6-0.7-1c-0.1-0.2-0.2-0.4-0.3-0.7c0,0,0-0.2,0-0.4S5.5,78.4,5.5,78.1z"/>
	</g>
</g>
<path id="XMLID_18_" class="st0" d="M30.5,223.2c0,0,0.1,0.2-0.2,0.2c-10.1,0.2-26.2,0-26.2,0c-0.3,0-0.2-0.2-0.2-0.2
	c-0.4-5.6,0-16,0-16S3.7,207,4,207c15.7-0.4,26.4,0,26.4,0c0.3,0,0.2,0.2,0.2,0.2S30.7,216,30.5,223.2z"/>
<g>
	<path class="st0" d="M9.9,38.4c0.6-3.5,1.6-5,2.8-5.7c0,0,7.2-2.7,9.3,4.2c0.2,0.6,0.3,1.1,0.3,1.6L9.9,38.4L9.9,38.4z"/>
	<path class="st0" d="M4.7,16.7c0,0-0.1-0.2,0.2-0.2c13.5-0.6,22.7,0,22.7,0c0.3,0,0.2,0.2,0.2,0.2s0,7.7-0.1,15.7H4.6L4.7,16.7z"/>
	<path class="st0" d="M27.4,36.1c-8.7,0.2-22.5,0-22.5,0c-0.3,0-0.2-0.2-0.2-0.2c-0.1-0.7-0.1-1.5-0.1-2.4v-1.4h23.1
		c0,1.3,0,2.5-0.1,3.7C27.6,35.9,27.7,36.1,27.4,36.1z"/>
	<path class="st0" d="M7.7,19.2c0,0-0.1-0.2,0.1-0.2c9.9-0.4,16.6,0,16.6,0c0.2,0,0.1,0.2,0.1,0.2s0,5-0.1,10.3H7.6L7.7,19.2z"/>
</g>
<path class="st1" d="M16.4,191.6c0,0,1.2-0.1,2.2,0c2.2-0.3,9.7-0.2,13.6,0c0,0,4.3-0.4,3.1,1.2c-0.5,0.6-2.2,0.8-4,0.8
	c-1.9,0-7.8,0.1-11.7-0.1c0,0-1.2,0.1-2.2,0c-2.2,0.3-9.7,0.2-13.6,0c0,0-4.3,0.4-3.1-1.2c0.4-0.5,1.8-0.8,3.4-0.8
	C6.1,191.5,12.6,191.4,16.4,191.6z"/>
<path class="st1" d="M16.4,236.7c0,0,1.2-0.1,2.2,0c2.2-0.3,9.7-0.2,13.6,0c0,0,4.3-0.4,3.1,1.2c-0.5,0.6-2.2,0.8-4,0.8
	c-1.9,0-7.8,0.1-11.7-0.1c0,0-1.2,0.1-2.2,0c-2.2,0.3-9.7,0.2-13.6,0c0,0-4.3,0.4-3.1-1.2c0.4-0.5,1.8-0.8,3.4-0.8
	C6.1,236.6,12.6,236.6,16.4,236.7z"/>
<g>
	<path id="XMLID_17_" class="st0" d="M30.9,255.9c0,0,0.1-0.3-0.5-0.3c0,0-11.3-0.4-25.3,0c-0.7,0-0.5,0.3-0.5,0.3s-0.1,4.2,0.2,7.2
		c0,0-0.1,0.3,0.5,0.3c0,0,10.8,0.3,24.8,0c0.7,0,0.5-0.3,0.5-0.3L30.9,255.9z"/>
	<path id="XMLID_16_" class="st0" d="M25.4,255.1c0,0,3.5,9.5-5.5,12.2c-9,2.6-10.8-5.4-10.8-6.5c0.1-1.1,0.8-10.4,6.8-9.7
		S24.4,253.3,25.4,255.1z"/>
	<path id="XMLID_15_" class="st0" d="M22.6,263.7c0,0-5.6,5-9.8-0.5s0.8-8.9,1.6-9.1c0.8-0.2,7.4-2.2,8.4,2.1
		C23.8,260.5,23.5,262.5,22.6,263.7z"/>
</g>
<path id="XMLID_14_" class="st0" d="M27.4,221.7c0,0,0.9,0.1,1-0.3c0,0,1.1-5.5,0-12.3c-0.1-0.3-1-0.3-1-0.3s-12.2-0.1-20.7,0.1
	c0,0-0.9-0.1-1,0.3c0,0-0.8,5.3,0,12.1c0,0.3,1,0.3,1,0.3L27.4,221.7z"/>
<g>
	<path id="XMLID_13_" class="st0" d="M24.7,110.2c0,0,0.2-0.1,0.2,0.2c0.2,9.9,0,25.6,0,25.6c0,0.3-0.2,0.2-0.2,0.2
		c-5.6,0.4-16,0-16,0s-0.2,0.1-0.2-0.2c-0.4-15.3,0-25.8,0-25.8c0-0.3,0.2-0.2,0.2-0.2S17.5,110,24.7,110.2z"/>
	<path id="XMLID_12_" class="st0" d="M10.7,112c0,0-0.5-0.1-0.6,0.4c0,0-0.6,8.3,0,18.5c0,0.5,0.6,0.4,0.6,0.4s7,0.1,12-0.2
		c0,0,0.5,0.1,0.6-0.4c0,0,0.4-7.9,0-18.2c0-0.5-0.6-0.4-0.6-0.4L10.7,112z"/>
	<path id="XMLID_11_" class="st0" d="M16.3,133.1c0,0,1.1-0.4,1.4,0.6s-0.6,1.2-0.7,1.2s-1.2-0.1-1.1-0.8
		C15.9,133.5,16.1,133.2,16.3,133.1z"/>
</g>
<path class="st1" d="M16.4,100.6c0,0,1.2-0.1,2.2,0c2.2-0.3,9.7-0.2,13.6,0c0,0,4.3-0.4,3.1,1.2c-0.5,0.6-2.2,0.8-4,0.8
	c-1.9,0-7.8,0.1-11.7-0.1c0,0-1.2,0.1-2.2,0c-2.2,0.3-9.7,0.2-13.6,0c0,0-4.3,0.4-3.1-1.2c0.4-0.5,1.8-0.8,3.4-0.8
	C6.1,100.5,12.6,100.4,16.4,100.6z"/>
<path class="st1" d="M16.4,145.7c0,0,1.2-0.1,2.2,0c2.2-0.3,9.7-0.2,13.6,0c0,0,4.3-0.4,3.1,1.2c-0.5,0.6-2.2,0.8-4,0.8
	c-1.9,0-7.8,0.1-11.7-0.1c0,0-1.2,0.1-2.2,0c-2.2,0.3-9.7,0.2-13.6,0c0,0-4.3,0.4-3.1-1.2c0.4-0.5,1.8-0.8,3.4-0.8
	C6.1,145.6,12.6,145.6,16.4,145.7z"/>
<path class="st1" d="M16.4,54.7c0,0,1.2-0.1,2.2,0c2.2-0.3,9.7-0.2,13.6,0c0,0,4.3-0.4,3.1,1.2c-0.5,0.6-2.2,0.8-4,0.8
	c-1.9,0-7.8,0.1-11.7-0.1c0,0-1.2,0.1-2.2,0c-2.2,0.3-9.7,0.2-13.6,0c0,0-4.3,0.4-3.1-1.2c0.4-0.5,1.8-0.8,3.4-0.8
	C6.1,54.6,12.6,54.6,16.4,54.7z"/>
<path class="st1" d="M45.5,608.1c0-2.6,0-5.2,0.1-7.6c0-0.6,0-1.4,0-2.1c0-0.4-0.1-2.6,0-4.3c-0.3-4.4-0.2-19.5,0-27.2
	c0,0.4-0.1-10.4-0.1-14c0-3.8-0.1-15.7,0.1-23.4c0,0-0.1-2.5,0-4.4c-0.2-3.4-0.2-13.2-0.1-21.1c0-2.6,0-5.2,0.1-7.6c0-0.4,0-1,0-1.5
	s0-1.1,0-1.9c0-0.7,0-1.7,0-2.6c-0.1-2.4-0.1-6.9-0.1-11.8c0-3.4,0-7,0-10.3c0-2.1,0-4.1,0-6c0-0.3,0-0.6,0-1c0-0.5,0-1.1,0-1.7
	c0-0.9,0-2.4,0.1-3.7c-0.2-3.4-0.2-13.1-0.1-21c0-2.9,0-5.8,0.1-8.4c0-0.3,0-0.6,0-0.9c0-0.4,0-0.8,0-1.2c0,0-0.1-2.5,0-4.4
	c-0.2-3.4-0.2-13.2-0.1-21.1c0-2.6,0-5.2,0.1-7.6c0-0.6,0-1.4,0-2.1c0-0.4-0.1-2.6,0-4.3c-0.2-3.4-0.2-13.1-0.1-21
	c0-2.9,0-5.8,0.1-8.4c0-0.3,0-0.6,0-0.9c0-0.4,0-0.8,0-1.2c0,0-0.1-2.5,0-4.4c-0.2-3.4-0.2-13.2-0.1-21.1c0-2.6,0-5.2,0.1-7.6
	c0-0.6,0-1.4,0-2.1c0-0.4-0.1-2.6,0-4.3c-0.3-4.4-0.2-19.5,0-27.2c0,0.4-0.1-10.4-0.1-13.9c0-3.8-0.1-15.7,0.1-23.4
	c0,0-0.1-2.5,0-4.4c-0.2-3.4-0.2-13.2-0.1-21.1c0-2.6,0-5.2,0.1-7.6c0-0.4,0-1,0-1.5s0-1.1,0-1.9c0-0.7,0-1.7,0-2.6
	c-0.1-2.4-0.1-6.9-0.1-11.8c0-3.4,0-7,0-10.3c0-2.1,0-4.1,0-6c0-0.3,0-0.6,0-1c0-0.5,0-1.1,0-1.7c0-0.9,0-2.4,0.1-3.7
	c-0.2-3.4-0.2-13.1-0.1-21c0-2.9,0-5.8,0.1-8.4c0-0.3,0-0.6,0-0.9c0-0.4,0-0.8,0-1.2c0,0-0.1-2.5,0-4.4c-0.2-3.4-0.2-13.2-0.1-21.1
	c0-2.6,0-5.2,0.1-7.6c0-0.6,0-1.4,0-2.1c0-0.4-0.1-2.6,0-4.3c-0.2-3.4-0.2-13.1-0.1-21c0-2.9,0-5.8,0.1-8.4c0-0.3,0-0.6,0-0.9
	c0-0.4,0-0.8,0-1.2c0,0-0.1-2.5,0-4.4c-0.2-3.4-0.2-13.2-0.1-21.1c0-2.6,0-5.2,0.1-7.6c0-0.6,0-1.4,0-2.1c0-0.4-0.1-2.6,0-4.3
	c-0.3-4.4-0.2-19.5,0-27.2c0,0.5-0.4-8.1,1.2-5.7c0.5,0.8,0.8,3.5,0.8,6.7c0.1,4.1,0.1,17,0,24.7c0,0,0.1,2.5,0,4.4
	c0.2,3.1,0.2,11.7,0.1,19.1c0,3.3,0,6.7-0.1,9.6c0,0.6,0,1.3,0,2.1c0,0.4,0.1,2.6,0,4.3c0.2,3.1,0.2,11.5,0.1,18.9
	c0,3.6,0,7.3-0.1,10.5c0,0.3,0,0.5,0,0.8c0,0.4,0,0.8,0,1.2c0,0,0.1,2.5,0,4.4c0.2,3.1,0.2,11.7,0.1,19.1c0,3.3,0,6.7-0.1,9.6
	c0,0.6,0,1.3,0,2.1c0,0.4,0.1,2.6,0,4.3c0.2,3.1,0.2,11.5,0.1,18.9c0,3.6,0,7.3-0.1,10.5c0,0.3,0,0.5,0,0.8c0,0.4,0,0.8,0,1.2
	c0,0,0.1,2.5,0,4.4c0.2,3.1,0.2,11.7,0.1,19.1c0,3.3,0,6.7-0.1,9.6c0,0.4,0,0.9,0,1.5c0,0.5,0,1.1,0,1.9c0,0.7,0,1.7,0,2.6
	c0.1,2.4,0.1,7,0.1,11.9c0,2.7,0,5.6,0,8.3s0,5.4-0.1,7.8c0,0.3,0,0.6,0,0.9c0,0.5,0,1.1,0,1.7c0,0.9,0,2.4-0.1,3.7
	c0.3,4.4,0.1,37.3,0.1,40.2c0.1,4.1,0.1,17,0,24.7c0,0,0.1,2.5,0,4.4c0.2,3.1,0.2,11.7,0.1,19.1c0,3.3,0,6.7-0.1,9.6
	c0,0.6,0,1.3,0,2.1c0,0.4,0.1,2.6,0,4.3c0.2,3.1,0.2,11.5,0.1,18.9c0,3.6,0,7.3-0.1,10.5c0,0.3,0,0.5,0,0.8c0,0.4,0,0.8,0,1.2
	c0,0,0.1,2.5,0,4.4c0.2,3.1,0.2,11.7,0.1,19.1c0,3.3,0,6.7-0.1,9.6c0,0.6,0,1.3,0,2.1c0,0.4,0.1,2.6,0,4.3
	c0.2,3.1,0.2,11.5,0.1,18.9c0,3.6,0,7.3-0.1,10.5c0,0.3,0,0.5,0,0.8c0,0.4,0,0.8,0,1.2c0,0,0.1,2.5,0,4.4c0.2,3.1,0.2,11.7,0.1,19.1
	c0,3.3,0,6.7-0.1,9.6c0,0.4,0,0.9,0,1.5c0,0.5,0,1.1,0,1.9c0,0.7,0,1.7,0,2.6c0.1,2.4,0.1,7,0.1,11.9c0,2.7,0,5.6,0,8.3
	s0,5.4-0.1,7.8c0,0.3,0,0.6,0,0.9c0,0.5,0,1.1,0,1.7c0,0.9,0,2.4-0.1,3.7c0.3,4.4,0.2,19.5,0,27.2c0,0,0.1,10.1,0.1,13.1
	c0.1,4.1,0.1,17,0,24.7c0,0,0.1,2.5,0,4.4c0.2,3.1,0.2,11.7,0.1,19.1c0,3.3,0,6.7-0.1,9.6c0,0.6,0,1.3,0,2.1c0,0.4,0.1,2.6,0,4.3
	c0.2,3.1,0.2,11.5,0.1,18.9c0,3.6,0,7.3-0.1,10.5c0,0.3,0,0.5,0,0.8c0,0.4,0,0.8,0,1.2c0,0,0.1,2.5,0,4.4c0.2,3.1,0.2,11.7,0.1,19.1
	c0,3.3,0,6.7-0.1,9.6c0,0.6,0,1.3,0,2.1c0,0.4,0.1,2.6,0,4.3c0.2,3.1,0.2,11.5,0.1,18.9c0,3.6,0,7.3-0.1,10.5c0,0.3,0,0.5,0,0.8
	c0,0.4,0,0.8,0,1.2c0,0,0.1,2.5,0,4.4c0.2,3.1,0.2,11.7,0.1,19.1c0,3.3,0,6.7-0.1,9.6c0,0.4,0,0.9,0,1.5c0,0.5,0,1.1,0,1.9
	c0,0.7,0,1.7,0,2.6c0.1,2.4,0.1,7,0.1,11.9c0,2.7,0,5.6,0,8.3c0,2.7,0,5.4-0.1,7.8c0,0.3,0,0.6,0,0.9c0,0.5,0,1.1,0,1.7
	c0,0.9,0,2.4-0.1,3.7c0.3,4.4,0.2,19.5,0,27.2c0,0,0.4,8.6-1.2,6.2c-0.6-0.9-0.8-4.3-0.8-8.1c0-3.8-0.1-15.7,0.1-23.4
	c0,0-0.1-2.5,0-4.4c-0.2-3.4-0.2-13.2-0.1-21.1c0-2.6,0-5.2,0.1-7.6c0-0.4,0-1,0-1.5s0-1.1,0-1.9c0-0.7,0-1.7,0-2.6
	c-0.1-2.4-0.1-6.9-0.1-11.8c0-3.4,0-7,0-10.3c0-2.1,0-4.1,0-6c0-0.3,0-0.6,0-1c0-0.5,0-1.1,0-1.7c0-0.9,0-2.4,0.1-3.7
	c-0.2-3.4-0.2-13.1-0.1-21c0-2.9,0-5.8,0.1-8.4c0-0.3,0-0.6,0-0.9c0-0.4,0-0.8,0-1.2c0,0-0.1-2.5,0-4.4c-0.2-3.4-0.2-13.2-0.1-21.1
	c0-2.6,0-5.2,0.1-7.6c0-0.6,0-1.4,0-2.1c0-0.4-0.1-2.6,0-4.3c-0.2-3.4-0.2-13.1-0.1-21c0-2.9,0-5.8,0.1-8.4c0-0.3,0-0.6,0-0.9
	c0-0.4,0-0.8,0-1.2c0,0-0.1-2.5,0-4.4C45.4,625.8,45.4,616,45.5,608.1z"/>
<path class="st1" d="M16.8,279.3c0,0,1.2-0.1,2.2,0c2.2-0.3,9.7-0.2,13.6,0c0,0,4.3-0.4,3.1,1.2c-0.5,0.6-2.2,0.8-4,0.8
	c-1.9,0-7.8,0.1-11.7-0.1c0,0-1.2,0.1-2.2,0c-2.2,0.3-9.7,0.2-13.6,0c0,0-4.3,0.4-3.1-1.2c0.4-0.5,1.8-0.8,3.4-0.8
	C6.5,279.2,13,279.2,16.8,279.3z"/>
</svg>
