<?xml version="1.0" encoding="utf-8"?>
<!-- Generator: Adobe Illustrator 22.1.0, SVG Export Plug-In . SVG Version: 6.00 Build 0)  -->
<svg version="1.1" id="Layer_1" xmlns="http://www.w3.org/2000/svg" xmlns:xlink="http://www.w3.org/1999/xlink" x="0px" y="0px"
	 viewBox="0 0 212.9 291.7" style="enable-background:new 0 0 212.9 291.7;" xml:space="preserve">
<style type="text/css">
	.st0{fill:#FFF5DC;stroke:#584C4F;stroke-linecap:round;stroke-miterlimit:10;}
	.st1{fill:#A36B78;stroke:#584C4F;stroke-linecap:round;stroke-miterlimit:10;}
	.st2{fill:#FFD767;stroke:#584C4F;stroke-miterlimit:10;}
	.st3{fill:#FFFFFF;stroke:#584C4F;stroke-linecap:round;stroke-miterlimit:10;}
	.st4{fill:#584C4F;stroke:#584C4F;stroke-linecap:round;stroke-miterlimit:10;}
	.st5{fill:#FFFAF2;stroke:#584C4F;stroke-miterlimit:10;}
</style>
<g id="Layer_5">
</g>
<g id="Layer_3">
</g>
<g>
	<g>
		<g>
			<path id="XMLID_17068_" class="st0" d="M64.1,257.3c0,0-0.6-6-3.2-3.8c-2.6,2.2-1.2,25.1,0.1,26.8
				C62.2,282,65.7,292.8,64.1,257.3z"/>
			<path id="XMLID_17067_" class="st0" d="M63.2,279.6c0,0,0.2,0.7-0.1,1"/>
			<path id="XMLID_17061_" class="st0" d="M63.9,268.7c0,0,0,0.6,0,0.9"/>
			<path id="XMLID_17060_" class="st0" d="M60.6,273.1c0,0,0.1-1.2,0-1.2"/>
			<path id="XMLID_17059_" class="st0" d="M61.2,254.7c0,0-0.4,0.4-0.6,0.8"/>
		</g>
	</g>
	<g>
		<g>
			<path id="XMLID_17073_" class="st0" d="M73.6,257.3c0,0-0.7-7.2-3.9-4.6c-3.2,2.6-1.4,30.1,0.1,32.3
				C71.3,287.1,75.5,300,73.6,257.3z"/>
			<path id="XMLID_17072_" class="st0" d="M72.5,284.1c0,0,0.2,0.8-0.1,1.2"/>
			<path id="XMLID_17071_" class="st0" d="M73.4,271c0,0,0.1,0.7,0,1.1"/>
			<path id="XMLID_17070_" class="st0" d="M69.4,276.3c0,0,0.2-1.4,0-1.4"/>
			<path id="XMLID_17069_" class="st0" d="M70.1,254.2c0,0-0.5,0.5-0.7,1"/>
		</g>
	</g>
	<g>
		<g>
			<path id="XMLID_17083_" class="st0" d="M79.2,256.4c0,0,0.6-6,3.2-3.8c2.6,2.2,1.2,25.1-0.1,26.8C81.2,281.2,77.7,292,79.2,256.4
				z"/>
			<path id="XMLID_17082_" class="st0" d="M80.2,278.8c0,0-0.2,0.7,0.1,1"/>
			<path id="XMLID_17081_" class="st0" d="M79.4,267.9c0,0,0,0.6,0,0.9"/>
			<path id="XMLID_17080_" class="st0" d="M82.8,272.2c0,0-0.1-1.2,0-1.2"/>
			<path id="XMLID_17079_" class="st0" d="M82.1,253.8c0,0,0.4,0.4,0.6,0.8"/>
		</g>
	</g>
	<g>
		<g>
			<path id="XMLID_17078_" class="st0" d="M87.9,256.3c0,0,0.7-7.2,3.9-4.6c3.2,2.6,1.4,30.1-0.1,32.3C90.2,286.1,86,299,87.9,256.3
				z"/>
			<path id="XMLID_17077_" class="st0" d="M89,283.1c0,0-0.2,0.8,0.1,1.2"/>
			<path id="XMLID_17076_" class="st0" d="M88.1,270c0,0-0.1,0.7,0,1.1"/>
			<path id="XMLID_17075_" class="st0" d="M92.1,275.3c0,0-0.2-1.4,0-1.4"/>
			<path id="XMLID_17074_" class="st0" d="M91.4,253.2c0,0,0.5,0.5,0.7,1"/>
		</g>
	</g>
	<g>
		<path id="XMLID_17066_" class="st0" d="M88.2,257.2c0,0,7.2-1.4,4.6-7.4c-2.6-6.1-30.1-2.7-32.3,0.2
			C58.5,252.8,45.5,260.9,88.2,257.2z"/>
		<path id="XMLID_17065_" class="st0" d="M61.4,255.1c0,0-0.8,0.4-1.2-0.2"/>
		<path id="XMLID_17064_" class="st0" d="M74.5,256.9c0,0-0.7,0.1-1.1,0"/>
		<path id="XMLID_17063_" class="st0" d="M69.3,249.1c0,0,1.4,0.3,1.4,0"/>
		<path id="XMLID_17062_" class="st0" d="M91.3,250.5c0,0-0.5-1-1-1.3"/>
	</g>
</g>
<g>
	<path class="st1" d="M68.8,248.1c0.2-0.6,0.5-1.3,0.9-2.1c0.3-0.8,0.7-1.7,1-2.8c0,0-0.1,0-0.1,0s0,0,0,0c0-0.2,0-1,0.1-2.3
		l5.1-0.5l0.3,0l0.3,0c0,0.4,0.1,0.6,0.1,0.8c0,0,0,0.1,0,0.1c0,0,0.1,0.1,0.1,0.1c0.1,0.1,0.2,0.2,0.2,0.2s0.2,0.2,0.6,0.5
		c0.6,3.6,3.1,5.7,6.1,7c0,0.3-0.2,0.6-0.4,0.9c-0.1,0.1-0.2,0.2-0.3,0.3c-0.4,0.3-1,0.5-1.8,0.7c-0.6,0.1-1.3,0.2-2.1,0.3
		c-0.5,0-1,0.1-1.5,0.1c-0.4,0-0.8,0-1.2,0.1c-0.4,0-0.8,0-1.2-0.1c-0.5,0-1-0.1-1.5-0.1c-0.8-0.1-1.5-0.2-2.1-0.3
		c-0.8-0.2-1.4-0.4-1.8-0.7c-0.1-0.1-0.2-0.2-0.3-0.3c-0.4-0.4-0.5-0.7-0.5-1.1C68.6,248.6,68.7,248.4,68.8,248.1z"/>
	<path class="st1" d="M71.2,208.9c-0.1-1.4-0.1-2.9-0.2-4.7c-6.8-14.8-17.2-37.6-18.7-38.7l7.9-5.7c0,0,5,14.5,10.1,27.4
		c0.7,1.7,1.3,3.3,2,4.8c0.7,1.6,1.4,3.1,1.9,4.5l0,0c1.5,3.3,2,4.9,1.8,5.4c0,0.1,0.1,0.3,0.1,0.4C76,205.6,76,210.1,76,215
		c0,12.3,0.5,26.9,0.5,26.9l-5.7,0.5C70.8,242.3,71.9,222.5,71.2,208.9z"/>
	<g>
		<g id="XMLID_16922_">
			<path id="XMLID_16923_" class="st1" d="M88,249.7c0,0-2-0.2-1.3,1.4C87.4,252.8,89.7,250.9,88,249.7z"/>
		</g>
		<g id="XMLID_16919_">
			<path id="XMLID_16920_" class="st1" d="M86.8,249.5c0,0-2.3-0.2-1.4,1.6C86.2,252.9,88.7,250.7,86.8,249.5z"/>
		</g>
		<g id="XMLID_16917_">
			<path id="XMLID_16918_" class="st1" d="M85.4,249.1c0,0-2.6-0.3-1.7,1.9C84.7,253.1,87.6,250.6,85.4,249.1z"/>
		</g>
		<g id="XMLID_16915_">
			<path id="XMLID_16916_" class="st1" d="M83.6,248.7c0,0-3-0.3-1.9,2.1C82.7,253.3,86.1,250.4,83.6,248.7z"/>
		</g>
		<path id="XMLID_16914_" class="st1" d="M80,251.8c0,0,3.6,0.2,1.9-2.1c-1.6-2.3-4.6,0.1-4.8,1C76.9,251.7,80,251.8,80,251.8z"/>
	</g>
	<path id="XMLID_16913_" class="st1" d="M73.1,197.2c0,0-0.8,0.1-0.8,0.7"/>
	<path id="XMLID_16912_" class="st1" d="M74.3,202.8c0,0,0.9-0.3,1-0.5"/>
	<g id="XMLID_16910_">
		<path id="XMLID_16911_" class="st1" d="M75.5,243.1c2.1,1.7,3.8-2.4,0.8-2.8"/>
	</g>
	<g id="XMLID_16908_">
		<path id="XMLID_16909_" class="st1" d="M75.8,201.2c2.6,0.7,2.5-3.7-0.4-2.8"/>
	</g>
</g>
<g>
	<path class="st1" d="M37,240.2c0.5-0.4,1.1-0.8,1.9-1.3c0.7-0.5,1.5-1,2.4-1.8c0,0,0,0,0,0s0,0,0,0c0.1-0.2,0.6-0.8,1.3-1.9
		l4.5,2.5l0.2,0.1l0.2,0.2c-0.2,0.3-0.3,0.6-0.4,0.7c0,0,0,0.1,0,0.1c0,0,0,0.1,0,0.1c0,0.2,0,0.3,0,0.3s0.1,0.3,0.2,0.8
		c-1.5,3.4-0.6,6.5,1.2,9.2c-0.2,0.2-0.5,0.4-0.8,0.5c-0.1,0-0.2,0-0.4,0c-0.5,0-1.1-0.2-1.9-0.5c-0.6-0.2-1.2-0.5-1.9-0.9
		c-0.4-0.2-0.9-0.5-1.3-0.8c-0.3-0.2-0.7-0.4-1.1-0.6c-0.3-0.2-0.7-0.5-1-0.7c-0.4-0.3-0.8-0.6-1.2-0.9c-0.6-0.5-1.1-0.9-1.6-1.4
		c-0.6-0.6-1-1.1-1.1-1.6c-0.1-0.1-0.1-0.3-0.1-0.4c-0.1-0.5,0-0.9,0.3-1.2C36.6,240.5,36.8,240.3,37,240.2z"/>
	<path class="st1" d="M60.8,208.9c0.7-1.2,1.5-2.5,2.4-4c2.5-16.1,6.6-40.9,5.9-42.6l9.7-0.3c0,0-3.9,14.8-6.8,28.4
		c-0.4,1.7-0.7,3.5-1,5.1c-0.3,1.7-0.6,3.4-0.9,4.8l0,0c-0.6,3.6-1.1,5.2-1.5,5.5c0,0.1-0.1,0.3-0.1,0.4c-1.9,2.5-4.5,6.3-7.2,10.3
		c-6.8,10.3-14.5,22.6-14.5,22.6l-5-2.8C42,236.5,53.9,220.6,60.8,208.9z"/>
	<g>
		<g id="XMLID_16937_">
			<path id="XMLID_16938_" class="st1" d="M52.1,252.2c0,0-1.6-1.3-1.9,0.5C50,254.4,52.9,254,52.1,252.2z"/>
		</g>
		<g id="XMLID_16935_">
			<path id="XMLID_16936_" class="st1" d="M51.3,251.3c0,0-1.8-1.4-2.1,0.5C48.9,253.8,52.2,253.4,51.3,251.3z"/>
		</g>
		<g id="XMLID_16933_">
			<path id="XMLID_16934_" class="st1" d="M50.3,250.2c0,0-2-1.7-2.4,0.6C47.5,253.1,51.3,252.7,50.3,250.2z"/>
		</g>
		<g id="XMLID_16931_">
			<path id="XMLID_16932_" class="st1" d="M49,248.9c0,0-2.3-1.9-2.8,0.7C45.8,252.2,50.2,251.7,49,248.9z"/>
		</g>
		<path id="XMLID_16930_" class="st1" d="M44.4,249.5c0,0,2.8,2.2,2.8-0.7s-3.8-2.5-4.6-1.8C41.8,247.7,44.4,249.5,44.4,249.5z"/>
	</g>
	<path id="XMLID_16929_" class="st1" d="M68.9,200.2c0,0-0.7-0.4-1,0.1"/>
	<path id="XMLID_16928_" class="st1" d="M66.8,205.5c0,0,0.9,0.3,1.1,0.1"/>
	<g id="XMLID_16926_">
		<path id="XMLID_16927_" class="st1" d="M45.4,239.8c0.8,2.5,4.5,0.1,2.2-1.9"/>
	</g>
	<g id="XMLID_16924_">
		<path id="XMLID_16925_" class="st1" d="M68.9,205.1c1.7,2,4.1-1.7,1.2-2.6"/>
	</g>
</g>
<g>
	<g>
		<path id="XMLID_16829_" class="st1" d="M87.1,47.7c0,0,4.4-3,0-3.2"/>
		<g>
			<path class="st1" d="M82.8,43.3c0,0,0.4,12.2,0.5,23.5c-4.8,4.8-9.3,9.1-11.4,10.7c-3.4,2.5-12.4,12.7-19.7,20.7l7.9,0.2
				c7.6-8.4,17.1-18.5,22-23.9c0.4-0.4,0.8-0.9,1.3-1.4c1.4-1.5,2.9-3.1,4.4-4.6c0-2.1,0-4.2,0-6.3c0.1-10.1,0.6-19.4,0.6-19.4
				L82.8,43.3z"/>
			<g>
				<path id="XMLID_16828_" class="st1" d="M84.7,68c0,0-0.5-0.8-0.4-1"/>
				<path id="XMLID_16827_" class="st1" d="M86.3,66.5c0,0,0.6,0.4,0.3,0.9"/>
				<g id="XMLID_16825_">
					<path id="XMLID_16826_" class="st1" d="M87.7,67.3c2.2,1.3-0.8,4.2-2.2,1.7"/>
				</g>
			</g>
			<path id="XMLID_16824_" class="st2" d="M60.9,98.9c1.5-0.5,13-14.9,14.2-15.9s0.9-1.6-2.4-4.6c-3.3-3-22.3,19.1-22.9,22.3
				c-0.2,1.1,0.9,3.5,2.4,6.1"/>
			<g id="XMLID_16822_">
				<path id="XMLID_16823_" class="st1" d="M82.7,46c-2.3-2.3-2.9-3.1-4.1-6.2c-1.2-3.1,3.2,4.4,3,3.3c-0.3-1.1-4.4-22.3-1-9.3
					c3.4,13,2.1,4.7,2.1,4.7c0-17.9,1.4-3.6,1.9-1.3c0.4,2.2,3.4-11.9,2.8-4.9c-0.5,7,0,7.6,1.2,1.8c1.2-5.8,0.5,7.9,0.5,7.9
					s-0.3,4.3-1.3,3.9"/>
			</g>
		</g>
	</g>
	<path class="st1" d="M84.7,49.3c0,0,1.8-2.9-4.8-3.3c-6.6-0.5-19.7-0.4-21.8,8c0,0,0.4-0.2,1-0.5c1.4-0.6,4.4-1.8,8.7-2.9
		c1.5-0.3,3.1-0.6,4.6-0.7c4.8-0.1,8.3,1.5,8.3,1.5c1.1-0.3,1.9-0.7,2.5-1C84,50.1,84.6,49.7,84.7,49.3z"/>
	<path class="st1" d="M50.6,149.1l36.1-1.3c0,0-0.2,9.6-0.4,13.2c0,0.3,0,0.7-0.1,1c0,0.1,0,0.2,0,0.3c0,0,0,0,0,0
		c-1,5.5-7.3,10.4-17.3,10.6c-16.3,0.3-16.7-4.7-16.7-4.7c-0.8-1.5-1.3-2.9-1.4-4.2c-0.1,0-0.1,0-0.1,0S50.1,152,50.6,149.1z"/>
	<g>
		<path class="st2" d="M87.1,139.6c0-0.3-0.1-0.5-0.1-0.7c-0.3-2-0.5-3.4-0.6-3.9c-0.5-2.4-1.4-28.5-1.9-32.8c0-0.1,0-0.3-0.1-0.4
			c-0.3-1.2-1.1-2.2-2.1-2.9c-1.4-1-3.1-1.7-4.2-2c-2.2-1.8-6.6-3-12.7-2.8c-5.8,0.2-14.7,0.3-15.1,9c-0.1,1-0.1,2.1,0,3.4
			c0.5,11.8,0.5,30.9-0.8,35.9c-0.1,0.3-0.1,0.5-0.2,0.7c-1,2.7-2.3,9.7-1,12.3c0,0,0,0.1,0.1,0.1c0.5,0.9,1.4,1.2,2.8,0.4
			c0,0,1.8-0.4,3.1-0.4l25.1,1.3c1.1,0.2,2,0.3,2.7,0.5C89.3,162.6,88.2,147.6,87.1,139.6z"/>
		<path class="st2" d="M54.3,155.5l25.1,1.3c1.1,0.2,2,0.3,2.7,0.5c7.2,5.4,6.1-9.6,5-17.7c0-0.3-0.1-0.5-0.1-0.7
			c-0.3-2-0.5-3.4-0.6-3.9c-0.5-2.4-1.4-28.5-1.9-32.8c0-0.1,0-0.3-0.1-0.4c-0.3-1.2-1.1-2.2-2.1-2.9c-1.4-1-3.1-1.7-4.2-2
			c-2.2-1.8-6.6-3-12.7-2.8c-5.8,0.2-14.7,0.3-15.1,9c-0.1,1-0.1,2.1,0,3.4c0.5,11.8,0.5,30.9-0.8,35.9c-0.1,0.3-0.1,0.5-0.2,0.7
			c-1,2.7-2.3,9.7-1,12.3c0,0,0,0.1,0.1,0.1c0.5,0.9,1.4,1.2,2.8,0.4"/>
	</g>
	<path id="XMLID_16831_" class="st1" d="M86.9,135.9c0,0-0.9-30.5,0.5-34.9"/>
	<g id="XMLID_16767_">
		<g id="XMLID_16768_">
			<path id="XMLID_16806_" class="st1" d="M75.4,90.8c0,0,2,1.9-2.2,2.7c-4.2,0.8-6.9-0.3-6.1-1.9"/>
			<g id="XMLID_16801_">
				<path id="XMLID_16805_" class="st1" d="M79.9,78.9c0,0,6.2,0.8,2.8,3.1C79.2,84.2,79.9,78.9,79.9,78.9z"/>
				<path id="XMLID_16804_" class="st1" d="M80.9,77c0,0,5.1-0.3,2.8,2.4c-2.4,2.7-6.6-0.1-7-1.2C76.4,77.1,80.9,77,80.9,77z"/>
				<path id="XMLID_16803_" class="st1" d="M70.6,78.4c0,0,2.5-0.8,2.1,2.3s-4.8,2.6-5,1.7C67.4,81.5,66.9,80,70.6,78.4z"/>
				<path id="XMLID_16802_" class="st1" d="M72.7,77.5c0,0,7.3-0.9,0.1,2.6C65.6,83.6,64.4,78.6,72.7,77.5z"/>
			</g>
			<g id="XMLID_16797_">
				<path id="XMLID_16800_" class="st1" d="M79.2,81.9c0,0-3.8,3.8-5.9,0"/>
				<path id="XMLID_16799_" class="st1" d="M78.4,81.3c0,0-1.1-1.1-1.8,0"/>
				<path id="XMLID_16798_" class="st1" d="M74.7,81.3c0,0,1.1-1.1,1.8,0"/>
			</g>
			<g>
				<path id="XMLID_16796_" class="st3" d="M83.9,55.9c0,0-11.6-1.1-7.4,8.2S93.7,62.4,83.9,55.9z"/>
				<path id="XMLID_16795_" class="st4" d="M85,62.4c0,0-1.7-0.7-1.5,1.1S86.2,63.9,85,62.4z"/>
				<path id="XMLID_16794_" class="st3" d="M71,57.2c0,0,8.5,7.5-2.1,10.9C58.3,71.6,61.7,53.4,71,57.2z"/>
				<path id="XMLID_16793_" class="st4" d="M65.1,63.4c0,0-1.7-0.7-1.5,1.1S66.3,65,65.1,63.4z"/>
				<path id="XMLID_16792_" class="st4" d="M70.3,55.7c0,0,3.9,0.5,1.1,3.2c-2.8,2.8-8.2,0.1-7.9-0.9C63.8,57.1,64.3,55.4,70.3,55.7
					z"/>
				<path id="XMLID_16791_" class="st4" d="M81.7,54c0,0,6-0.3,3.2,3c-2.8,3.4-7.8-0.1-8.2-1.5C76.4,54.1,81.7,54,81.7,54z"/>
				<g id="XMLID_16786_">
					<path id="XMLID_16790_" class="st1" d="M84.6,65.9c0,0,1.7,0.2,0.9,1c-0.7,0.8-1.1-0.2-2.3,0.4"/>
					<path id="XMLID_16789_" class="st1" d="M63.7,66.6c0,0-1.7,0.2-0.9,1c0.7,0.8,1.1-0.2,2.3,0.4"/>
					<path id="XMLID_16788_" class="st1" d="M65.6,66.5c0,0,3.9-0.3,6.2,0.3"/>
					<path id="XMLID_16787_" class="st1" d="M82.7,65.5c0,0-2.3-0.4-4.8,0.4"/>
				</g>
			</g>
			<path id="XMLID_16785_" class="st2" d="M66.4,39.9c0,0,2.1,1.9-0.5,2.7C63.2,43.4,64.1,38.9,66.4,39.9z"/>
			<path id="XMLID_16784_" class="st1" d="M61.3,62.1c0,0-0.3,0.7,0.2,1"/>
			<path id="XMLID_16783_" class="st1" d="M63.1,68.9c0,0,0.1,0.6,0.3,0.8"/>
			<path id="XMLID_16782_" class="st1" d="M62.9,57.1c0,0-0.3-1.1,0-1.1"/>
			<path id="XMLID_16781_" class="st1" d="M79.5,53.2c0,0-1.1,0.1-1,0.3"/>
			<path id="XMLID_16780_" class="st2" d="M72.9,55.2c0,0-1.3-0.2-1.3-0.4"/>
			<path id="XMLID_16779_" class="st1" d="M79,85.9c0,0-0.9,0.2-1,0.4"/>
			<path id="XMLID_16778_" class="st1" d="M71.4,86.3c0,0,0.8,0.4,1.1,0.8"/>
			<path id="XMLID_16777_" class="st1" d="M79.9,66.2"/>
			<path id="XMLID_16776_" class="st1" d="M73.9,66.9"/>
			<line id="XMLID_16775_" class="st1" x1="65.4" y1="73.6" x2="64.5" y2="73.3"/>
			<g>
				<path id="XMLID_16774_" class="st1" d="M57.2,69.4c0,0-6.3-7-6-1.2c0.4,5.9,2.5,12,4.5,11.1s1.9-2.7,1.9-2.7"/>
			</g>
			<path id="XMLID_16773_" class="st1" d="M74.4,91.9c4.4-1.9,7-6.2,7.7-9.7c1-5.4,8.7-34.2-12.6-36.8c0,0-17,1.2-14.7,21.3
				s1.7,23.8,11.3,25.8c1.2,0.2,2.3,0.4,3.3,0.4"/>
			<g>
				<path id="XMLID_16772_" class="st1" d="M76.2,69.4c0,0-6.3-7-6-1.2c0.4,5.9,2.5,12,4.5,11.1s1.9-2.7,1.9-2.7"/>
				<path id="XMLID_16771_" class="st1" d="M74.4,69.9c0,0-2.5-3.2-2.9-1.6"/>
				<path id="XMLID_16770_" class="st1" d="M75.4,72.3c0,0-3.3-0.6-2.7,1.3c0.6,1.8,1.9,3,2.3,0.9"/>
			</g>
			<path class="st2" d="M80.9,51.8c0-4.4-1.4-16-14.9-10.5c-3.1,0.9-6.6,2.6-8.7,5.6c-0.2,0.2-0.3,0.5-0.5,0.7l0,0c0,0,0,0,0,0
				c-0.7,1.1-1,1.9-1,2.6c-0.7,2-0.2,5.7-0.2,5.7s0.9,8.8,25.1-4.1C80.8,51.8,80.9,51.8,80.9,51.8z"/>
		</g>
	</g>
	<g>
		<path class="st1" d="M59.3,80.6h-0.3c0,0,3.3,15.7,2.8,17.4l11.1,0.4c-0.9-2.2,1.3-17.8,1.3-17.8"/>
		<path class="st1" d="M59.1,80.6c0,0,3.3,15.7,2.8,17.4"/>
		<path class="st1" d="M74.2,80.6c0,0-2.2,15.6-1.3,17.8"/>
	</g>
	<path id="XMLID_16766_" class="st1" d="M73,98.1c0.3-0.1,0.5-0.3,0.8-0.7"/>
	<path id="XMLID_16765_" class="st1" d="M67.3,98c-2.1,1.2-4.6,0.6-6.3-1"/>
	<path id="XMLID_16764_" class="st1" d="M60.9,98.9c0.1,0.1,0.2,0.1,0.3,0.1"/>
	<path id="XMLID_16763_" class="st2" d="M54.5,150.5c0,0,0.9-30.5-0.5-34.9"/>
	<g>
		<path id="XMLID_17087_" class="st1" d="M136.9,135.8c0,0,3,4.4,3.2,0"/>
		<g>
			<path class="st1" d="M141.4,131.5c0,0-12.2,0.4-23.5,0.5c-4.8-4.8-9.1-9.3-10.7-11.4c-2.5-3.4-12.7-12.4-20.7-19.7l-0.2,7.9
				c8.4,7.6,18.5,17.1,23.9,22c0.4,0.4,0.9,0.8,1.4,1.3c1.5,1.4,3.1,2.9,4.6,4.4c2.1,0,4.2,0,6.3,0c10.1,0.1,19.4,0.6,19.4,0.6
				L141.4,131.5z"/>
			<g>
				<path id="XMLID_17098_" class="st1" d="M116.7,133.4c0,0,0.8-0.5,1-0.4"/>
				<path id="XMLID_17097_" class="st1" d="M118.1,135c0,0-0.4,0.6-0.9,0.3"/>
				<g id="XMLID_17094_">
					<path id="XMLID_17095_" class="st1" d="M117.4,136.4c-1.3,2.2-4.2-0.8-1.7-2.2"/>
				</g>
			</g>
			<path id="XMLID_17093_" class="st2" d="M85.7,109.6c0.5,1.5,14.9,13,15.9,14.2c1,1.2,1.6,0.9,4.6-2.4c3-3.3-19.1-22.3-22.3-22.9
				c-1.1-0.2-3.5,0.9-6.1,2.4"/>
			<g id="XMLID_17090_">
				<path id="XMLID_17091_" class="st1" d="M138.7,131.5c2.3-2.3,3.1-2.9,6.2-4.1c3.1-1.2-4.4,3.2-3.3,3c1.1-0.3,22.3-4.4,9.3-1
					c-13,3.4-4.7,2.1-4.7,2.1c17.9,0,3.6,1.4,1.3,1.9c-2.2,0.4,11.9,3.4,4.9,2.8s-7.6,0-1.8,1.2c5.8,1.2-7.9,0.5-7.9,0.5
					s-4.3-0.3-3.9-1.3"/>
			</g>
		</g>
	</g>
</g>
<g>
	<g>
		<g>
			<path id="XMLID_17222_" class="st0" d="M192.1,185.1c0,0,0.8-23.7,3.4-15.1c2.6,8.5,0.3,98.6-1,105.6
				C193.2,282.6,189.3,325.1,192.1,185.1z"/>
			<path id="XMLID_17221_" class="st0" d="M192.2,273c0,0-0.2,2.7,0.1,3.9"/>
			<path id="XMLID_17220_" class="st0" d="M191.8,230.2c0,0-0.1,2.5,0,3.5"/>
			<path id="XMLID_17219_" class="st0" d="M195.1,247.2c0,0-0.1-4.6,0-4.6"/>
			<path id="XMLID_17218_" class="st0" d="M195.1,174.9c0,0,0.4,1.6,0.5,3.1"/>
		</g>
	</g>
	<g>
		<path id="XMLID_17212_" class="st0" d="M207.2,178.2c0,0,7.2-1.4,4.6-7.4c-2.6-6.1-30.1-2.7-32.3,0.2
			C177.5,173.8,164.5,181.9,207.2,178.2z"/>
		<path id="XMLID_17211_" class="st0" d="M180.4,176.1c0,0-0.8,0.4-1.2-0.2"/>
		<path id="XMLID_17210_" class="st0" d="M193.5,177.9c0,0-0.7,0.1-1.1,0"/>
		<path id="XMLID_17209_" class="st0" d="M188.3,170.1c0,0,1.4,0.3,1.4,0"/>
		<path id="XMLID_17208_" class="st0" d="M210.3,171.5c0,0-0.5-1-1-1.3"/>
	</g>
	<g>
		<path id="XMLID_17217_" class="st0" d="M205.2,290.2c0,0,7.2-1.4,4.6-7.4c-2.6-6.1-30.1-2.7-32.3,0.2
			C175.5,285.8,162.5,293.9,205.2,290.2z"/>
		<path id="XMLID_17216_" class="st0" d="M178.4,288.1c0,0-0.8,0.4-1.2-0.2"/>
		<path id="XMLID_17215_" class="st0" d="M191.5,289.9c0,0-0.7,0.1-1.1,0"/>
		<path id="XMLID_17214_" class="st0" d="M186.3,282.1c0,0,1.4,0.3,1.4,0"/>
		<path id="XMLID_17213_" class="st0" d="M208.3,283.5c0,0-0.5-1-1-1.3"/>
	</g>
</g>
<g>
	<g>
		<path class="st5" d="M188,157.8c9.9,7.3,17.6-1.9,17.6-1.9s6.3-14.5-5.7-18.4C187.8,133.7,178.1,150.5,188,157.8z M199.5,138.7
			c10.9,3.5,5.2,16.5,5.2,16.5s-7,8.2-15.9,1.7C179.9,150.3,188.6,135.2,199.5,138.7z"/>
		<g id="XMLID_17206_">
			<path id="XMLID_17207_" class="st5" d="M182.9,159.6c0,0.1,0,0.1,0,0.1c0,0,0,0.2,0,0.5c0,0,0,0.1,0,0.1c0,0.1,0,0.2,0,0.3
				c0,0.1,0,0.1,0,0.2c0,0,0,0,0,0c0,0.1,0,1.3,0,1.3c0,0.1,0,0.3,0,0.4c0,0.1,0,0.1,0,0.1c0,0.1,0,1.7,0,2.3c0,0.2,0,0.5,0,0.8
				c0,0,0,0.1,0,0.1c0,0.3-0.1,2-0.1,2.1c0,0.1,0,0.6,0,0.8c0,0.1,0,0.1,0,0.2c0,0.1,0,0.2,0,0.4c0,0.1,0,0.2,0,0.2c0,0,0,0.1,0,0.1
				c0,0.6,0,1.3,0,1.3c0,0.1,0,0.6,0,0.8c0,0.1,0,0.1,0,0.2c0,0.1,0,0.2,0,0.4c0,0.1,0,0.2,0,0.2c0,0.1,0.2,0.3,0.8,0.4
				c0.4,0.1,4.1,0,5.4,0c1.9,0,11.6,0,13.5,0c1.3,0,5,0.1,5.4,0c0.6-0.1,0.8-0.3,0.8-0.4c0,0,0-0.1,0-0.2c0-0.1,0-1,0-1.1
				c0,0,0-0.1,0-0.2c0-0.1,0-0.8,0-1.3c0,0,0-0.1,0-0.1c0,0,0-0.1,0-0.2c0-0.1,0-1,0-1.1c0,0,0-0.1,0-0.2c0-0.1,0-1.9-0.1-2.1
				c0,0,0,0,0-0.1c0-0.3,0-0.6,0-0.8c0-0.6,0-1.7,0-2.2c0-0.1,0.1-0.1,0.1-0.1c0,0,0-0.1,0-0.1c0-0.1,0-0.4,0-0.4c0-0.1,0-0.1,0-0.2
				c0-0.2,0-0.5,0-0.5c0,0,0-1.1,0-1.1c0,0,0-0.3,0-0.6c0,0,0-0.1,0-0.1c0-0.1,0-0.2,0-0.2c0-0.3,0-0.5,0-0.6c0,0,0-0.1,0-0.2
				s0-0.2,0-0.2c0,0,0-1.1,0-1.1c0,0,0-1.4,0-1.5c0-0.1,0-1.8-0.1-2.1c0,0,0,0,0,0c0-0.3,0-0.6,0-0.8c0-0.6,0-2.2,0-2.3
				c0,0,0-1.4,0-1.5c0-0.1,0-0.3,0-0.3c0,0,0,0,0,0c0-0.6,0-1.1,0-1.1c0,0,0-1.4,0-1.5c0-0.1,0-0.3,0-0.3c0-0.2-0.4-0.5-0.9-0.5
				c-0.1,0-1,0-2.1,0c-0.1,0-0.1,0-0.2,0c-0.2,0-19.3,0-19.5,0c-0.1,0-0.1,0-0.2,0c-1.1,0-2.1,0-2.1,0c-0.5,0-0.8,0.3-0.9,0.5
				c0,0.1,0,1.9,0,1.9c0,0.2,0,0.6,0,0.9c0,0,0,0,0,0.1c0,0.1,0,1.9,0,1.9c0,0.4,0,1.5,0,2.1c0,0.2,0,0.5,0,0.8c0,0,0,0,0,0
				c0,0.3-0.1,2-0.1,2.1c0,0.1,0,0.5,0,0.7c0,0.1,0,0.7,0,0.7c0,0.1,0,0.5,0,0.6c0,0,0,0.2,0,0.5c0,0.2,0,0.4,0,0.4
				c0,0.1,0,0.2,0,0.4c0,0,0,0,0,0C182.9,159.2,182.9,159.5,182.9,159.6z"/>
		</g>
	</g>
</g>
</svg>
