<?xml version="1.0" encoding="utf-8"?>
<!-- Generator: Adobe Illustrator 22.1.0, SVG Export Plug-In . SVG Version: 6.00 Build 0)  -->
<svg version="1.1" id="Layer_1" xmlns="http://www.w3.org/2000/svg" xmlns:xlink="http://www.w3.org/1999/xlink" x="0px" y="0px"
	 viewBox="0 0 347.2 675.2" style="enable-background:new 0 0 347.2 675.2;" xml:space="preserve">
<style type="text/css">
	.st0{fill:#A36B78;stroke:#584C4F;stroke-width:2;stroke-linecap:round;stroke-miterlimit:10;}
	.st1{fill:#A36B78;stroke:#584C4F;stroke-width:2;stroke-linecap:round;stroke-linejoin:round;stroke-miterlimit:10;}
	.st2{fill:#FFD767;stroke:#584C4F;stroke-width:2;stroke-miterlimit:10;}
	.st3{fill:#A36B78;}
	.st4{fill:none;stroke:#584C4F;stroke-width:2;stroke-linecap:round;stroke-miterlimit:10;}
	.st5{fill:#BEAB72;}
	.st6{fill:#584C4F;stroke:#584C4F;stroke-width:2;stroke-linecap:round;stroke-miterlimit:10;}
	.st7{opacity:0.1;fill:#231F20;stroke:#231F20;stroke-miterlimit:10;enable-background:new    ;}
	.st8{fill:#FFFFFF;stroke:#584C4F;stroke-width:2;stroke-linecap:round;stroke-miterlimit:10;}
</style>
<g id="Layer_5">
</g>
<g id="Layer_3">
</g>
<g>
	<g>
		<path class="st0" d="M251.2,633.7c-1.4-1.1-3.4-2.3-5.7-3.8c-2.1-1.4-4.5-3.1-7.1-5.4c0.1-0.1,0.1-0.1,0.1-0.1s0,0-0.1-0.1
			c-0.3-0.5-1.7-2.5-4-5.7l-13.4,7.4l-0.7,0.4l-0.7,0.5c0.5,1,0.9,1.7,1,2.2c0,0,0,0.2,0.1,0.2c0,0.1-0.1,0.3,0,0.4
			c-0.1,0.5-0.1,0.9-0.1,0.9s-0.2,0.9-0.5,2.3c4.4,10,1.7,19.4-3.6,27.4c0.6,0.7,1.4,1.2,2.5,1.4c0.3,0.1,0.7,0.1,1.2,0.1
			c1.4,0.1,3.4-0.4,5.6-1.4c1.7-0.7,3.6-1.6,5.6-2.8c1.3-0.7,2.6-1.5,3.9-2.3c1-0.6,2.1-1.3,3.2-1.9c1-0.7,2.1-1.4,3-2.2
			c1.3-0.9,2.5-1.8,3.6-2.8c1.8-1.4,3.4-2.8,4.7-4.1c1.7-1.7,2.9-3.3,3.4-4.6c0.2-0.4,0.3-0.8,0.3-1.1c0.3-1.5,0-2.6-0.8-3.6
			C252.3,634.6,251.8,634.1,251.2,633.7z"/>
		<path class="st0" d="M180.3,540.7c-2.1-3.5-4.5-7.5-7.2-12c-7.5-47.8-19.6-121.6-17.7-126.7l-28.9-0.9c0,0,11.7,44,20.2,84.6
			c1.1,5.2,2.1,10.3,3.1,15.3c0.9,5.2,1.7,10,2.6,14.3l0,0c1.8,10.7,3.2,15.5,4.3,16.4c0.1,0.4,0.2,0.8,0.4,1.2
			c5.7,7.5,13.3,18.6,21.3,30.7c20.3,30.6,43.2,67.4,43.2,67.4l14.9-8.2C236.5,622.7,200.9,575.3,180.3,540.7z"/>
		<g>
			<g id="XMLID_8119_">
				<path id="XMLID_8120_" class="st0" d="M206.2,669.4c0,0,4.7-3.9,5.6,1.4C212.6,676,203.8,675,206.2,669.4z"/>
			</g>
			<g id="XMLID_8117_">
				<path id="XMLID_8118_" class="st0" d="M208.7,666.8c0,0,5.2-4.3,6.2,1.6C215.9,674.3,206.1,673.1,208.7,666.8z"/>
			</g>
			<g id="XMLID_8115_">
				<path id="XMLID_8116_" class="st0" d="M211.6,663.5c0,0,6.1-5,7.2,1.8C220,672.2,208.6,670.8,211.6,663.5z"/>
			</g>
			<g id="XMLID_8113_">
				<path id="XMLID_8114_" class="st0" d="M215.4,659.6c0,0,7-5.7,8.3,2.1C225,669.5,212,667.9,215.4,659.6z"/>
			</g>
			<path id="XMLID_8112_" class="st0" d="M229.2,661.3c0,0-8.4,6.5-8.2-2c0.2-8.5,11.4-7.4,13.6-5.4
				C236.9,656.1,229.2,661.3,229.2,661.3z"/>
		</g>
		<path id="XMLID_8111_" class="st0" d="M156.2,514.7c0,0,2-1.2,3,0.4"/>
		<path id="XMLID_8110_" class="st0" d="M162.5,530.6c0,0-2.7,0.8-3.2,0.3"/>
		<g id="XMLID_8108_">
			<path id="XMLID_8109_" class="st0" d="M226.1,632.5c-2.3,7.5-13.3,0.3-6.4-5.6"/>
		</g>
		<g id="XMLID_8106_">
			<path id="XMLID_8107_" class="st0" d="M156.1,529.3c-5.2,6-12.3-5-3.7-7.7"/>
		</g>
	</g>
	<g>
		<g>
			<g id="XMLID_8104_">
				<path id="XMLID_8105_" class="st0" d="M112.4,334.8c-7.6,2.1-7.5-11,1.2-8.5"/>
			</g>
			<path id="XMLID_8103_" class="st0" d="M107,239.6c1.7,34.8,3.1,77.6,4.2,99.8c2.1,40.2-1.2,99.4-1.2,99.4l16.9-1.5
				c0,0-3.4-104.4,0-126.4c2.4-15.7-1.8-73.9-3.2-107.9"/>
			<g id="XMLID_8101_">
				<path id="XMLID_8102_" class="st0" d="M127,435.2c6.9,7.2,9,9.6,12.7,19s-9.9-13.5-9.1-10.1s13.6,68.6,3.1,28.5
					s-6.4-14.5-6.4-14.5c0,55.1-4.4,11-5.8,4.1s-10.4,36.7-8.8,15.1c1.7-21.5-0.1-23.4-3.6-5.4c-3.6,18-1.7-24.3-1.7-24.3
					s0.8-13.2,4.1-12.1"/>
			</g>
			<path id="XMLID_8100_" class="st0" d="M117.5,326.8c0,0,2.8,0.6,3,1.2"/>
			<path id="XMLID_8099_" class="st0" d="M117.1,333.5c0,0-2.2,0.4-2.8-1.4"/>
			<path id="XMLID_8098_" class="st1" d="M113.7,423.6c0,0-13.6,9.1,0,9.9"/>
		</g>
		<path id="XMLID_8097_" class="st2" d="M131,238.5c2.2,4.2-4.1,60.7-3.8,65.6c0.3,4.9-1.6,5.5-15.3,5s-7-90.3-1.5-98.4
			c2-2.9,9.6-5.6,18.7-8.1"/>
		<path class="st0" d="M220.7,362.2l-111.1-4.1c0,0,0.5,29.5,1.3,40.6c0.1,1,0.1,2.1,0.2,3.1c0.1,0.4,0.1,0.7,0.2,0.9l0.1,0
			c3.1,17,22.5,32,53.2,32.5c50.1,0.8,51.4-14.5,51.4-14.5c2.4-4.5,3.9-8.9,4.4-13c0.1,0,0.2,0,0.2,0S222.5,371.1,220.7,362.2z"/>
		<g>
			<path class="st2" d="M227.1,334.5c-0.1-0.8-0.2-1.5-0.3-2.2c-0.9-6-1.6-10.5-1.9-11.9c-1.4-7.3-4.4-87.8-5.9-101
				c-0.1-0.4-0.1-0.9-0.2-1.3c-0.8-3.7-3.3-6.7-6.4-9c-4.2-3.2-9.5-5.2-13-6.2c-6.7-5.6-20.4-9.4-39.2-8.6
				c-17.8,0.8-45.2,1.1-46.6,27.9c-0.2,3.1-0.2,6.5-0.1,10.4c1.4,36.2,1.4,95-2.3,110.6c-0.2,0.8-0.4,1.5-0.6,2
				c-3.2,8.5-7.1,29.9-3,37.9c0.1,0.1,0.1,0.2,0.2,0.3c1.6,2.8,4.3,3.7,8.7,1.4c0,0,5.4-1.3,9.4-1.2l77.2,4c3.2,0.5,6.1,1,8.4,1.5
				C233.9,405.6,230.4,359.4,227.1,334.5z"/>
			<path class="st2" d="M113.6,230c0,0.9,0.1,1.7,0.1,2.6c1.4,36.2,1.4,95-2.3,110.6c-0.2,0.8-0.4,1.5-0.6,2
				c-3.2,8.5-7.1,29.9-3,37.9c0.1,0.1,0.1,0.2,0.2,0.3c1.6,2.8,4.3,3.7,8.7,1.4"/>
			<path class="st2" d="M126,383.5l77.2,4c3.2,0.5,6.1,1,8.4,1.5c22.3,16.5,18.9-29.7,15.6-54.5c-0.1-0.8-0.2-1.5-0.3-2.2
				c-0.9-6-1.6-10.5-1.9-11.9c-1.4-7.3-4.4-87.8-5.9-101c-0.1-0.4-0.1-0.9-0.2-1.3c-0.8-3.7-3.3-6.7-6.4-9c-4.2-3.2-9.5-5.2-13-6.2
				c-6.7-5.6-20.4-9.4-39.2-8.6c-16.4,0.7-40.8,1-45.8,21.9"/>
		</g>
		<path id="XMLID_8089_" class="st0" d="M222,276.9c0,0-8.7,93.6-5.1,107.3"/>
		<g>
			<path id="XMLID_8088_" class="st3" d="M181.4,192c0.2-3.4-0.9-13.4-1.1-16.6c-0.2-2.9-0.6-5.4-1.2-7.6
				c11.4-19.4-20.1-41.8-31.3-16.8c-3.5,7.8-3.1,22.9-3,25.5c0.1,3.4,0.1,14.6,0.1,17.5c0.1,16.3,24.2,29.2,33.8,8"/>
			<path id="XMLID_8087_" class="st4" d="M173.3,209.6c-11.1,9.6-28.4-1.8-28.4-15.5c0-2.9-0.1-14.1-0.2-17.5
				c-0.1-2.6-0.5-17.7,3-25.5c11.2-25,42.7-2.6,31.3,16.8c0.6,2.1,1.1,4.6,1.2,7.6c0.2,3.2,1.4,13.1,1.1,16.6l-2.8,10.1
				c-0.5,1.1-1.1,2.2-1.6,3.1"/>
		</g>
		<g>
			<g id="XMLID_8085_">
				<path id="XMLID_8086_" class="st0" d="M213.9,326.9c6.1-5,11.2,7.1,2.2,8.2"/>
			</g>
			<path id="XMLID_8084_" class="st0" d="M220.9,257.9c-1.3,30.4-2.4,63-3.4,81.4c-2.1,40.2,1.1,99.4,1.1,99.4l-16.9-1.5
				c0,0,3.4-104.4,0-126.4c-2-12.6,0.4-52.4,2.1-85.2"/>
			<path id="XMLID_8083_" class="st0" d="M210.9,327.1c0,0,2.3,0.1,2.3,2"/>
			<path id="XMLID_8082_" class="st0" d="M210.2,333.6c0,0-2.7-0.9-2.9-1.5"/>
			<g id="XMLID_8069_">
				<path id="XMLID_8081_" class="st3" d="M198,466.1c2.9,0.8,4.9,0.9,6.4,0.8c-0.8,10.8,4.4,7.6,6.9,5.5l1.1,0.5
					c3.4,6.4,7.6,0.1,8.9-2l0.1,1.5c5.6,2.9,5.3-3.2,4.8-6.5c0.6,1,2,2,5.9,1.9c7.3-0.1-14.1-35.1-14.1-35.1l-16.2,3.8
					C201.8,436.4,183.2,462.3,198,466.1z"/>
				<path id="XMLID_8080_" class="st0" d="M201.8,436.4c0,0-18.6,25.9-3.8,29.6c2.9,0.8,4.9,0.9,6.4,0.8c-0.8,10.8,4.4,7.6,6.9,5.5
					l1.1,0.5c3.4,6.4,7.6,0.1,8.9-2l0.1,1.5c5.6,2.9,5.3-3.2,4.8-6.5c0.6,1,2,2,5.9,1.9c7.3-0.1-14.1-35.1-14.1-35.1"/>
				<g id="XMLID_8073_">
					<g id="XMLID_8075_">
						<path id="XMLID_8079_" class="st1" d="M218,432.7c0,0,21.4,35,14.1,35.1c-7.3,0.1-6.1-3.5-6.2-3.8c0,0,3.1,12.2-4.4,8.4"/>
						<path id="XMLID_8078_" class="st1" d="M221.5,470.2c0,0-5.2,10.5-9.4,2.1"/>
						<path id="XMLID_8077_" class="st1" d="M201.8,436.4c0,0-18.6,25.9-3.8,29.6s7.4-6.6,3.2-6.2"/>
						<path id="XMLID_8076_" class="st1" d="M212.6,471.1c0,0-9.8,10.4-8.1-5.5l0.5-8"/>
					</g>
					<path id="XMLID_8074_" class="st1" d="M215.4,431.7c0,0,10-10.1,0-10.9"/>
				</g>
				<path id="XMLID_8072_" class="st0" d="M211.7,457.1c0,0-0.4,4.9,0.4,7.5"/>
				<path id="XMLID_8071_" class="st0" d="M219.6,462.9c0,0,0.1,3.5,0.9,3.5"/>
				<path id="XMLID_8070_" class="st1" d="M220.5,448.9c0.7,2.2,3.6,7,3.6,7"/>
			</g>
		</g>
		<path id="XMLID_8068_" class="st2" d="M196.2,241.5c-2.2,4.2,4.1,60.6,3.8,65.5c-0.3,4.9,1.6,5.5,15.3,5c13.7-0.5,7-90.3,1.4-98.4
			c-1.9-2.9-9.6-5.6-18.7-8.1"/>
		<g>
			<path class="st5" d="M190.9,228.1c0,0-13.7-5.1-14.6-0.4c-0.9,4.8-5.4,20.1,2.8,21.1c8.1,1.1,11.8,0.8,12.1-6.1
				S190.9,228.1,190.9,228.1z"/>
			<g>
				<path id="XMLID_8067_" class="st0" d="M190.3,228.5c0,0,1.8,1.4,0.8,2.9"/>
				<path id="XMLID_8066_" class="st0" d="M177.9,227.8c0,0-2.5,1.2-3.2,2.4"/>
				<path id="XMLID_8065_" class="st0" d="M190.7,239.5c0,0,0.8-2.6,0.3-4"/>
				<path id="XMLID_8064_" class="st0" d="M177.2,248c0,0,2.6,1.1,3.9,0.8"/>
				<path id="XMLID_8063_" class="st0" d="M189.1,246c0,0-0.9,2.1-2.6,1.4"/>
				<path id="XMLID_8062_" class="st0" d="M175.1,235.1c0,0-0.4,1.9-0.9,2.4"/>
				<line id="XMLID_8061_" class="st4" x1="184.9" y1="227.3" x2="182.2" y2="227.2"/>
				<path id="XMLID_8060_" class="st0" d="M174.2,242.2c0,0-0.6,2.7-0.1,4"/>
			</g>
			<g>
				<path id="XMLID_8059_" class="st0" d="M144.1,416.5c0,0-1.7-2.9-0.4-4.6"/>
				<path id="XMLID_8058_" class="st0" d="M147.9,404.1c0,0-1.9,2-2.2,3.4"/>
				<path id="XMLID_8057_" class="st0" d="M146.8,421.2c0,0,0.8,2.6,1.8,3.5"/>
			</g>
		</g>
		<g id="XMLID_7994_">
			<g id="XMLID_8053_">
				<path id="XMLID_8056_" class="st0" d="M124.5,110.8c0,0-17.5-23.2-18-5.1c-0.4,18.1,4.5,37.6,11,35.2s6.6-7.9,6.6-7.9"/>
				<path id="XMLID_8055_" class="st0" d="M118.7,112c0,0-6.8-10.6-8.6-5.6"/>
				<path id="XMLID_8054_" class="st0" d="M121.3,119.4c0,0-10.1-2.7-8.6,3.2c1.4,5.8,5.1,9.7,6.8,3.2"/>
			</g>
			<path id="XMLID_8052_" class="st6" d="M177,29.4c0,0-6.6,5.8,1.6,8.4C186.7,40.5,184.1,26.5,177,29.4z"/>
			<path id="XMLID_8051_" class="st0" d="M163.1,43.5c0,0,52.4,3.8,45.2,65.7s-5.4,73.3-35,79.6s-45.8-15.4-49.1-31.9
				S97.3,51.6,163.1,43.5z"/>
			<path class="st7" d="M187.7,52.6c6.6,9.8,10.7,23.8,8.3,44.3c-7.4,61.9-5.4,73.3-34.9,79.6c-12.7,2.7-22.9,0.3-30.7-4.6
				c7.7,11.8,21.9,21.4,42.9,16.9c29.6-6.3,27.6-17.6,34.9-79.6C212,77.6,200.2,61.2,187.7,52.6z"/>
			<path id="XMLID_8050_" class="st2" d="M205.3,58.3c-0.2-2-1.1-4.6-2.9-8c0,0-0.1,0-0.1,0l0,0c-0.4-0.7-0.8-1.4-1.3-2.1
				c-5.9-9.2-15.4-14.5-24.2-17.2c-37.6-16.9-41.4,18.8-41.5,32.2c0,1.3,16.9-0.2,32.4-4c19.6,7.9,38.1,16.7,38.1,16.7
				S207.1,64.4,205.3,58.3z"/>
			<path id="XMLID_8049_" class="st0" d="M157.7,114.5c0,0,9.4,7,21.5,2.7"/>
			<path id="XMLID_8048_" class="st0" d="M134.8,114.8c0,0-15.1,3.2-18.3,1.8"/>
			<path id="XMLID_8047_" class="st0" d="M144.8,183.4c0,0-6.2,5.8,6.7,8.3s21.3-0.9,18.8-5.7"/>
			<path id="XMLID_8046_" class="st2" d="M126,68.1c0,0,20.1-8.2,43.6-3s35.9,10.7,35.9,10.7c-7.6-26-53.2-26.1-76.2-24.7
				c-23.1,1.5-16.9,10.3-16.9,10.3S115.8,65.6,126,68.1z"/>
			<path id="XMLID_8045_" class="st0" d="M126,68.1c0,0-39.8-11,15.3-13.5s64.2,21.2,64.2,21.2S154.6,53.8,126,68.1z"/>
			<g>
				<path id="XMLID_8044_" class="st0" d="M154.3,119.1c0,0-9.4-11.8-9.2-18.3"/>
				<g id="XMLID_8041_">
					<path id="XMLID_8043_" class="st0" d="M137.9,120.4c0.3,3.1,1.3,5.2,3.3,5.7c1.1,0.2,2.1,0.2,2.9-0.1c0.6-0.2,1.1-0.4,1.6-0.6"
						/>
					<path id="XMLID_8042_" class="st0" d="M148.1,83c0,0-7.2,19.2-9.2,32.8"/>
				</g>
				<g id="XMLID_8028_">
					<path id="XMLID_8040_" class="st0" d="M134.5,122c0,0-6.9,8.1,4.2,10.4"/>
					<path id="XMLID_8039_" class="st0" d="M153.7,122c0,0,7.4,6.2-3.1,10.4"/>
					<path id="XMLID_8038_" class="st0" d="M148.2,127.1c1.1,0.3,2.6-1.9,3.8,0c1.2,1.9-0.1,1.3-1.7,1.8
						C148.7,129.3,147.1,126.8,148.2,127.1z"/>
					<path id="XMLID_8030_" class="st0" d="M137.6,129.9c-2.1-0.1-2.6-1.8-1.5-2.7c0.4-0.3,1.6,0.2,2.8,0.9
						C139.7,128.6,137.6,129.9,137.6,129.9z"/>
					<path id="XMLID_8029_" class="st0" d="M145.1,117.8c0,0,2.2-0.1,2.7,0.7"/>
				</g>
				<path id="XMLID_8027_" class="st0" d="M130.4,127c0,0-6.1,3.1-7.8,3.7"/>
				<path id="XMLID_8026_" class="st0" d="M158.1,125.4c0,0,7.1,3.4,7.8,3.3"/>
			</g>
			<path id="XMLID_8025_" class="st0" d="M188.3,95c0,0,1,2.1-0.6,3"/>
			<path id="XMLID_8024_" class="st0" d="M182.8,116c0,0-0.4,1.8-1,2.5"/>
			<path id="XMLID_8023_" class="st0" d="M183.4,79.5c0,0,0.8-3.5,0-3.5"/>
			<path id="XMLID_8022_" class="st0" d="M132.3,67.6c0,0,3.3,0.5,2.9,1"/>
			<path id="XMLID_8021_" class="st0" d="M152.5,73.8c0,0,3.8-0.5,4.1-1.3"/>
			<path id="XMLID_8020_" class="st0" d="M133.7,168.1c0,0,2.8,0.6,3,1.2"/>
			<path id="XMLID_8019_" class="st0" d="M157.1,169.3c0,0-2.6,1.2-3.3,2.4"/>
			<path id="XMLID_8018_" class="st0" d="M131.1,107.7"/>
			<path id="XMLID_8017_" class="st0" d="M149.4,109.8"/>
			<line id="XMLID_8016_" class="st4" x1="175.6" y1="130.2" x2="178.3" y2="129.5"/>
			<path id="XMLID_8015_" class="st0" d="M200.9,117.4c0,0,19.4-21.6,18.4-3.6c-1.1,18-7.7,37.1-13.9,34.1s-5.9-8.3-5.9-8.3"/>
			<path id="XMLID_8014_" class="st0" d="M206.5,119.1c0,0,7.7-10,9-4.8"/>
			<path id="XMLID_8013_" class="st0" d="M203.3,126.2c0,0,10.2-1.8,8.3,3.9c-1.9,5.6-5.9,9.2-7.1,2.6"/>
			<g>
				<path id="XMLID_8012_" class="st8" d="M118.6,75.9c0,0,35.8-3.5,22.8,25.3S88.6,96,118.6,75.9z"/>
				<path id="XMLID_8011_" class="st6" d="M120.2,90.8c0,0,5.3-2.2,4.8,3.4S116.5,95.6,120.2,90.8z"/>
				<path id="XMLID_8010_" class="st8" d="M158.4,79.9c0,0-26.2,23.1,6.4,33.7S186.9,68.2,158.4,79.9z"/>
				<path id="XMLID_8009_" class="st6" d="M176.6,94c0,0,5.4-2.2,4.8,3.4S172.9,98.8,176.6,94z"/>
				<path id="XMLID_8008_" class="st6" d="M160.5,75.3c0,0-12.1,1.4-3.4,9.9s25.2,0.3,24.3-2.7S178.9,74.4,160.5,75.3z"/>
				<path id="XMLID_8007_" class="st6" d="M125.4,70.2c0,0-18.6-1.1-10,9.3s23.9-0.2,25.1-4.7S125.4,70.2,125.4,70.2z"/>
				<g id="XMLID_8004_">
					<path id="XMLID_8006_" class="st0" d="M180.2,112.6c0.2,0.1,0.4,0.2,0.7,0.2c0.9,0.2,1.8,0.3,2.8-0.7c2.2-2.4-2.9-3.2-2.9-3.2
						l-5.7-0.4c0,0-12.1-0.8-19.1,1.1c0,0,10.5,5.6,16.9,5.2c0.8-0.1,1.4-0.2,2.1-0.4C175.5,114.2,179.1,112.3,180.2,112.6z"/>
					<path id="XMLID_8005_" class="st0" d="M122.5,105.6c0,0,7-1.3,14.9,1.1c0,0-3.9,8.4-16.4,4.6c-4.1-1.2-4.9,1.1-7.2-1.3
						c-2.2-2.4,2.9-3.2,2.9-3.2L122.5,105.6z"/>
				</g>
			</g>
			<g id="XMLID_7999_">
				<path id="XMLID_8003_" class="st6" d="M130.8,146.6c0,0-19.2,2.5-8.5,9.4S130.8,146.6,130.8,146.6z"/>
				<path id="XMLID_8002_" class="st6" d="M128,141c0,0-15.8-0.8-8.6,7.4c7.3,8.2,20.3-0.2,21.4-3.7S128,141,128,141z"/>
				<path id="XMLID_8001_" class="st6" d="M159.7,145c0,0-7.7-2.6-6.4,7.2c1.3,9.8,14.7,8.1,15.5,5.3S170.9,150,159.7,145z"/>
				<path id="XMLID_8000_" class="st6" d="M153.1,142.4c0,0-22.5-2.8-0.3,8S178.7,145.8,153.1,142.4z"/>
			</g>
			<g id="XMLID_7995_">
				<path id="XMLID_7998_" class="st0" d="M133,156c0,0,11.8,11.6,18.3,0"/>
				<path id="XMLID_7997_" class="st0" d="M135.7,154.2c0,0,3.2-3.4,5.7,0"/>
				<path id="XMLID_7996_" class="st0" d="M147,154.2c0,0-3.2-3.4-5.6,0"/>
			</g>
		</g>
		<path id="XMLID_7993_" class="st0" d="M175.9,212.5c0.9-0.3,1.7-0.9,2.4-2.2"/>
		<path id="XMLID_7992_" class="st0" d="M144.2,205.6c0,0,0.2,1.1,1,2.1"/>
		<path id="XMLID_7991_" class="st0" d="M151.3,215.1c0.2,0.1,0.6,0.3,0.9,0.4"/>
		<path id="XMLID_7990_" class="st2" d="M124.4,358c0,0,2.8-93.9-1.7-107.4"/>
	</g>
	<g>
		<path class="st0" d="M152.7,663c-0.6-1.8-1.6-3.8-2.6-6.3c-1-2.3-2.1-5.1-2.9-8.5c0.1,0,0.1,0,0.1,0s0,0,0-0.1
			c0-0.5-0.1-3-0.1-6.9l-15.2-1.3l-0.9,0l-0.8,0c-0.1,1.1-0.2,1.9-0.4,2.4c0,0-0.1,0.2-0.1,0.2c-0.1,0.1-0.2,0.2-0.2,0.3
			c-0.3,0.4-0.6,0.7-0.6,0.7s-0.6,0.6-1.7,1.6c-1.9,10.8-9.3,17.1-18.2,20.8c0.1,0.9,0.5,1.8,1.3,2.5c0.2,0.2,0.6,0.5,0.9,0.8
			c1.2,0.8,3.1,1.5,5.4,2c1.8,0.3,3.8,0.7,6.2,0.8c1.4,0.1,2.9,0.2,4.6,0.3c1.2,0,2.4,0.1,3.7,0.2c1.2,0,2.5,0,3.7-0.2
			c1.6,0,3.1-0.2,4.6-0.3c2.3-0.2,4.4-0.5,6.2-0.8c2.3-0.5,4.2-1.1,5.4-2c0.4-0.2,0.7-0.5,0.9-0.8c1.1-1,1.4-2.2,1.3-3.4
			C153.1,664.4,152.9,663.7,152.7,663z"/>
		<path class="st0" d="M145.4,546.3c0.2-4,0.4-8.7,0.6-14c20.3-44,51.3-112,55.7-115.2l-23.5-16.8c0,0-14.7,43.1-30.2,81.5
			c-2,4.9-3.9,9.8-5.9,14.4c-2.1,4.8-4.1,9.3-5.8,13.3l0,0c-4.4,10-5.9,14.7-5.5,16c-0.1,0.4-0.2,0.8-0.4,1.2
			c0.5,9.4,0.7,22.9,0.7,37.4c-0.1,36.7-1.5,80-1.5,80l16.9,1.5C146.5,645.7,143.3,586.6,145.4,546.3z"/>
		<g>
			<g id="XMLID_7988_">
				<path id="XMLID_7989_" class="st0" d="M95.4,667.7c0,0,6.1-0.6,3.8,4.3C97.1,676.8,90.4,671,95.4,667.7z"/>
			</g>
			<g id="XMLID_7986_">
				<path id="XMLID_7987_" class="st0" d="M98.9,667c0,0,6.7-0.7,4.3,4.8C100.8,677.1,93.3,670.7,98.9,667z"/>
			</g>
			<g id="XMLID_7984_">
				<path id="XMLID_7985_" class="st0" d="M103.2,665.8c0,0,7.8-0.8,5,5.5C105.3,677.7,96.6,670.2,103.2,665.8z"/>
			</g>
			<g id="XMLID_7982_">
				<path id="XMLID_7983_" class="st0" d="M108.6,664.7c0,0,8.9-0.8,5.7,6.3C111.1,678.2,101.1,669.7,108.6,664.7z"/>
			</g>
			<path id="XMLID_7981_" class="st0" d="M119.1,673.8c0,0-10.6,0.7-5.7-6.2s13.6,0.2,14.3,3.1C128.4,673.7,119.1,673.8,119.1,673.8
				z"/>
		</g>
		<path id="XMLID_7980_" class="st0" d="M139.8,511.3c0,0,2.3,0.1,2.3,2"/>
		<path id="XMLID_7979_" class="st0" d="M136.2,528c0,0-2.7-0.8-2.8-1.5"/>
		<g id="XMLID_7970_">
			<path id="XMLID_7971_" class="st0" d="M132.5,648c-6.1,5-11.2-7.1-2.2-8.2"/>
		</g>
		<g id="XMLID_7968_">
			<path id="XMLID_7969_" class="st0" d="M131.7,523.4c-7.6,2.1-7.4-11,1.2-8.5"/>
		</g>
	</g>
</g>
</svg>
