<?xml version="1.0" encoding="utf-8"?>
<!-- Generator: Adobe Illustrator 22.1.0, SVG Export Plug-In . SVG Version: 6.00 Build 0)  -->
<svg version="1.1" id="Layer_1" xmlns="http://www.w3.org/2000/svg" xmlns:xlink="http://www.w3.org/1999/xlink" x="0px" y="0px"
	 viewBox="0 0 663.6 1040.4" style="enable-background:new 0 0 663.6 1040.4;" xml:space="preserve">
<style type="text/css">
	.st0{fill:#221F1F;}
</style>
<path class="st0" d="M314.7,424.9c0-0.6-1.1-0.6-1.1,0.1c0.5,28.8-1.8,57.2-8.6,85.2c-5.6,23.2-12.6,48.2-30.4,65.1
	c-0.8,0.8,0.2,2.3,1.2,1.6c10.2-7.2,16.6-19,21-30.4c4.7-11.9,8.1-24.4,11-36.8C314.2,482.2,316.9,453.2,314.7,424.9z"/>
<path class="st0" d="M376.5,528.7c-10.1-31.7-16.9-63.3-17.4-96.7c0-0.4-0.7-0.5-0.7-0.1c-1.2,32.8,3.5,67,16.6,97.3
	C375.3,530.1,376.7,529.6,376.5,528.7z"/>
<path class="st0" d="M362.2,603.8c-8.3,2.8-16.8,5.7-25.4,7.4c-4.7,0.9-9.6,1.4-14.4,0.5c-8.2-1.5-14.4-7.8-19.5-14.1
	c-0.4-0.5-1.2,0.1-0.8,0.6c6.3,8.9,13.6,15.6,25,16.1c12.2,0.5,24.7-4.4,35.7-9.3C363.6,604.7,363.1,603.5,362.2,603.8z"/>
<path class="st0" d="M398.8,565.7c-3.1,5-6.1,9.9-9,15c-0.4,0.7,0.7,1.3,1.1,0.6c3.1-5,6-10,9-15
	C400.2,565.7,399.2,565.1,398.8,565.7z"/>
<path class="st0" d="M284.6,598.6c-2.3-1.4-4.6-2.8-6.9-4.1c-0.7-0.4-1.3,0.6-0.6,1c2.3,1.4,4.7,2.6,7.1,3.9
	C284.7,599.6,285.1,598.9,284.6,598.6z"/>
<path class="st0" d="M249.1,446.9c-0.1-0.5-0.8-0.3-0.8,0.2c2.7,22-2.7,44-19.3,59.6c-16.7,15.7-40.1,19.6-61.9,14.6
	c-1-0.2-1.5,1.3-0.5,1.7c20.7,7.9,45.8,2,62.4-12.2C246.5,495.7,255.9,469.3,249.1,446.9z"/>
<path class="st0" d="M210.6,426.8c-1.6-19.6-4-39.6-11.1-58.1c-0.4-1.1-2-0.5-1.7,0.6c5,17,7.8,34.4,9.3,52.1
	c0.7,8.6,1.3,17.2,1.8,25.8c0.5,8.4,0.7,17.3-2.8,25.1c-2.9,6.6-8.2,8.7-13.3,7.4c0.6-5.2,1-10.4,2-15.5c0.1-0.4-0.6-0.6-0.7-0.1
	c-1.1,5-2.2,10.1-2.7,15.2c-0.2-0.1-0.5-0.2-0.7-0.3c0.4-1.6,0.6-3.2,0.9-4.8c0.1-0.8-1.2-1.2-1.4-0.3c-0.4,1.4-0.7,2.8-1.1,4.2
	c-0.5-0.3-1.1-0.7-1.6-1.1c1.5-6.2,2.9-12.3,4.5-18.4c0.3-1.1-1.4-1.3-1.8-0.5c-1.6,3.1-3.2,6.1-4.9,9.2c2.6-7.4,4.4-15.1,5.5-22.9
	c0.1-0.8-1.1-1.1-1.4-0.5c-2.6,4.7-4.6,9.7-6.2,14.8c-1,2.7-1.8,5.4-2.6,8.1c-0.6-1.4-1-2.8-1.5-4.1c-0.4-1.1-0.8-2.3-1.1-3.5
	c0.7-2.3,1.3-4.5,2-6.7c0.2-0.6-0.7-1-0.9-0.4c-0.6,1.7-1.1,3.4-1.7,5.1c-0.6-2.1-1.1-4.2-1.6-6.3c0-0.1,0.1-0.3,0.1-0.4
	c0-0.1,0-0.2,0-0.3c0.3-1.3,0.6-2.5,1-3.8c0.2-0.6-0.8-0.8-1-0.2c-0.2,0.7-0.4,1.5-0.7,2.3c-0.3-1.4-0.5-2.8-0.8-4.3
	c1-4,2-7.9,3.2-11.9c0.1-0.3-0.4-0.5-0.5-0.2c-1.1,3.3-2.1,6.5-3,9.8c-0.2-1.7-0.5-3.3-0.6-5c0.1-0.6,0.2-1.1,0.3-1.7
	c0.1-0.4-0.3-0.6-0.5-0.5c-0.1-1.2-0.2-2.5-0.3-3.7c-1.2-17,0.3-34,1.7-50.9c0-0.5-0.7-0.5-0.7,0c-1.8,17.6-3.6,35.3-2.4,53
	c0.1,2,0.3,4.1,0.5,6.2c-0.9,4.9-1.3,9.8-1.2,14.7c-0.8,3.2-1.5,6.4-2.2,9.6c-0.2,0.8,0.9,1.5,1.4,0.7c0.7-1.2,1.3-2.4,1.9-3.6
	c-0.5,2.2-1,4.3-1.5,6.5c-0.1,0.6,0.4,1.2,1,1c1.1-0.3,2.1-0.7,2.9-1.2c-1.4,5-2.7,10-3.8,15c-0.2,0.9,0.9,1.3,1.5,0.8
	c3.7-3.4,5.9-7.5,6.8-12.5c0.1-0.6-0.8-0.8-1-0.3c-1.1,3.5-2.7,6.5-4.9,9.2c1-4.7,2.1-9.4,3.4-14.1c0.3-0.5,0.6-0.9,0.8-1.5
	c0.8,2.1,1.6,4.2,2.6,6.2c-0.9,3.5-1.7,7-2.2,10.6c-0.1,1,1.2,1.4,1.7,0.5c0.5-1,1.1-2,1.6-3c0.5,0.3,1.1,0.3,1.4-0.3
	c0.3-0.7,0.7-1.3,1-2c0.7,0.8,1.4,1.5,2.1,2.2c-1,4.1-2.1,8.3-3.1,12.4c-0.2,1,0.9,1.7,1.7,1c3.3-2.8,5.1-6.3,6.2-10.1
	c0.3,0.2,0.7,0.3,1.1,0.5c-0.1,0.8-0.1,1.7-0.1,2.5c0,0.7,1.2,0.9,1.3,0.1c0.1-0.7,0.2-1.4,0.2-2.1c5.5,1.7,11.3,0.2,15.1-6.4
	C215.7,461.5,211.8,442,210.6,426.8z M172.6,443.5c0.1,0.8,0.2,1.7,0.4,2.5c-0.3,1-0.6,2-0.8,3C172.2,447.2,172.4,445.3,172.6,443.5
	z M171.2,458.3c0.7-3.3,1.4-6.6,2.1-9.8c0.2,1.2,0.4,2.3,0.7,3.5C173.1,454.1,172.2,456.2,171.2,458.3z M175.2,463.7
	c-0.7,1-1.7,1.8-3,2.3c0.7-3.7,1.5-7.4,2.3-11.1c0.4,1.9,1,3.8,1.5,5.7C175.8,461.6,175.5,462.7,175.2,463.7z M180.4,474.1
	c-0.1,0.3-0.2,0.5-0.4,0.8c0.2-0.9,0.3-1.9,0.5-2.8C180.5,472.8,180.4,473.5,180.4,474.1z M183.1,467.6c0.9-6.3,2.7-12.4,5.2-18.2
	C187.2,455.6,185.4,461.7,183.1,467.6z M184.2,473.5c1.3-2.6,2.7-5.2,4-7.7c-0.8,3.2-1.6,6.4-2.4,9.6
	C185.3,474.8,184.7,474.2,184.2,473.5z M185.1,486.9c0.6-2.6,1.2-5.2,1.9-7.8c0.5,0.4,1,0.7,1.5,1
	C187.6,482.5,186.6,484.8,185.1,486.9z"/>
<path class="st0" d="M479.5,489.6c-6.8,10.8-20.5,9.6-31.4,8c-8.3-1.2-16.7-2.6-24.4-6c-10.4-4.5-17.5-12.1-21.4-22.8
	c-3.3-8.8-4.1-18.5-5-27.8c0-0.5-0.9-0.5-0.9,0c0.7,20.9,4.2,42.6,25,52.6c10.4,5,22.6,7.1,34.1,8c10.1,0.7,20.9-1.3,26-11
	C482.2,489.3,480.3,488.4,479.5,489.6z"/>
<path class="st0" d="M486.1,387.9c-0.2-1.2-2.1-0.9-1.9,0.4c2.6,19.6,3.3,39.4,1.4,59.1c-0.8,8.6-3.5,19.6-14.7,16.4
	c-7.3-2.1-14.1-7.5-19.5-13c2-4.2,4.2-8.4,6.8-12.4c0.7-1.2-0.6-3-1.8-1.9c-3.6,3-5.2,7.6-7.4,11.7c-0.2-0.3-0.5-0.5-0.7-0.8
	c2-5.2,4-10.3,6-15.5c0.6-1.6-1.7-2.7-2.3-1.2c-1.8,4.7-4,9.1-6.5,13.3c-0.1-0.1-0.1-0.2-0.2-0.3c1.5-2.8,3-5.6,4.7-8.4
	c0.4-0.6-0.5-1.2-0.9-0.6c-1.3,2-2.6,4.1-3.9,6.1c1.9-6.9,3.9-13.8,6.9-20.5c0.3-0.7-0.7-1.4-1.1-0.6c-3.1,6.4-6.2,13.4-8.2,20.5
	c-4.8-7-8.2-14.6-10.4-22.5c0.1-0.9,0.2-1.8,0.4-2.7c0.1-0.4-0.5-0.5-0.7-0.2c-0.1-0.3-0.4-0.5-0.7-0.6c0,0,0,0,0-0.1
	c0.5-1.8,1-3.7,1.5-5.5c2.1-4.9,4.4-9.7,6.8-14.5c0.2-0.5-0.5-0.9-0.7-0.4c-3,5.4-5.8,11-8.4,16.6c-4-20.7-0.8-43.2,6.2-63.2
	c0.1-0.4-0.4-0.6-0.5-0.2c-8.1,21.3-12.2,45.2-7.5,67.4c-1.8,4-3.5,8.1-5.1,12.2c-0.3,0.8,0.8,1.8,1.5,1.1c2.2-2.1,3.9-4.4,5.1-7.1
	c0.1,0.3,0.2,0.6,0.3,0.9c-0.3,1.5-0.5,2.9-0.7,4.4c0,0.6,0.8,0.8,0.9,0.2c0.2-0.7,0.4-1.4,0.5-2.2c1.7,5,3.9,9.9,6.7,14.6
	c1.1,1.9,2.4,3.8,3.7,5.7c-0.3,1.3-0.6,2.6-0.8,4c-1.8,3.1-3.5,6.3-5.1,9.5c-0.6,1.2,0.9,2.6,1.9,1.5c2-2.2,3.8-4.4,5.6-6.8
	c-0.6,1.4-1.1,2.8-1.7,4.1c-0.5,1.2,1.1,2.2,2.1,1.7c0.6-0.3,1.2-0.7,1.7-1.1c-1.1,2.6-2.1,5.3-3,8c-0.2,0.7,0.2,1.9,1.1,1.9
	c2.5,0,4-0.5,5.5-2.6c0.5-0.7-0.5-1.5-1.2-1.1c-0.8,0.4-1.4,0.7-2.1,0.9c1.3-3.4,2.7-6.8,4.1-10.1c5.1,5.2,11.1,9.5,17.6,12.1
	c5.1,2,11,2.6,15.3-1.3c4.3-3.8,5.3-10.1,5.9-15.5C490.9,428.9,489.9,408.1,486.1,387.9z M447.1,451.2c-0.2,0.4-0.5,0.7-0.8,1.1
	c0.2-0.5,0.4-0.9,0.5-1.4C447,451,447,451.1,447.1,451.2z"/>
<path class="st0" d="M344.2,646.8c-1.1,0.7-2,1.8-2.8,2.8c-0.6,0.7-1.1,1.6-1.6,2.3c-2,2.7-1.7,2.5-5.7,1.7
	c-4.2-0.8-4.8-1.7-5.6-5.8c-0.3-1.4-0.3-2.8-0.4-4.3c-0.1-2.2-0.3-4.3-0.8-6.5c-0.3-1.5-2.3-1-2.4,0.3c-1.1,7.5-3,14.7-6,21.7
	c-1.2,2.8-2.5,6.7-4.5,9c-1.5,1.7-2.7,2.3-3.6,2.2c0.1-1.5-0.2-3-0.8-4.5c-0.2-0.5-1-0.3-0.8,0.2c0.4,1.2,0.5,2.4,0.5,3.5
	c-0.9-1.1-1.1-3.4-1-5.5c0-0.2-0.3-0.2-0.3,0c-0.5,2.9-0.3,5.4,0.6,8.1c0,0.1,0.1,0.2,0.3,0.3c-1.6,5.8-7.1,10.9-11.1,14.8
	c-4.9,4.8-10.4,9-16.2,12.5c-5.8,3.5-12.3,7.2-19,8.2c-8.2,1.3-19.9-4.5-15.7-14.5c0-0.1-0.1-0.1-0.1-0.1
	c-2.5,5.6,0.9,11.7,6.2,14.2c8,3.7,17.7-0.8,24.8-4.5c8.4-4.4,16.1-10.1,22.7-16.8c3.6-3.7,8.4-8.5,9.7-13.8
	c5.5-0.2,8.1-7.6,10.1-11.8c2.3-4.9,4-9.9,5.2-15c0.5,5.1,1.6,10.2,6.9,12.1c2.3,0.8,4.6,0.4,6.5-1c2.3-1.7,8.9-13,11.5-6.5
	c0.4,1,1.9,0.6,1.8-0.5C351.8,645.8,347.4,644.8,344.2,646.8z"/>
<path class="st0" d="M390.4,753c-0.7-0.3-1.3-0.7-2-1c0,0-0.1,0,0,0.1C389,752.4,389.6,752.7,390.4,753
	C390.4,753.1,390.4,753,390.4,753z"/>
<path class="st0" d="M419.1,769.1c-2-7.3-4-14.6-6.3-21.8c-0.1-0.5-0.9-0.3-0.8,0.2c0.7,3.1,1.4,6.2,2.1,9.4c-1.6-3-3.5-5.8-5.7-8.5
	c-0.3-0.4-1-0.7-1.5-0.3c-1,0.9-1.9,1.8-2.5,2.8c-0.5-2.8-2.2-5.8-3.4-7.9c-1.7-3-3.9-5.7-6.3-8.2c-0.2-0.2-0.6,0.1-0.4,0.4
	c2.9,3.8,6.2,8.7,6.8,13.5c0.5,1.1,0.2,2.2-0.8,3.3c0.2,2-0.5,2.9-1.9,2.6c-1.1,0.2-2.3-0.3-3.4-0.5c-2.1-0.4-3.9-0.6-6-0.3
	c-0.7,0.1-0.8,1.2-0.2,1.5c2.8,1.6,9.7,3.6,13.4,1.6c-1.1,5.6-0.7,12-4.2,16.8c-0.5,0.7,0.4,1.6,1.1,1c7.5-6,2.1-17.7,8.3-24.1
	c4.5,5.7,7.7,11.9,9.7,18.9C417.6,770.6,419.5,770.3,419.1,769.1z"/>
<path class="st0" d="M476.7,394.6c-0.7-3.2-1.9-6.4-2.6-9.6c-0.6-2.5-0.7-5.2-1.6-7.7c-0.4-1-1-2.1-1.3-3.1c-1.7-6.3-0.3-4.8,1-8.3
	c0.4-0.9,0.9-2,0.5-3c-1.5-3.6-9.7-1.7-12.4-1.7c-1.1,0-1.1,1.6,0,1.6c2,0,6.1-0.6,7.9,0.2c2.7,1.2,1.2,3.1,0.4,5.2
	c-1.1,3.1,0.4,5.6,1.5,8.4c1.6,4.1,1.8,8.6,3.1,12.8c1.5,5,3.4,10.4,1.6,15.6c-2.5,7.3-12,8-16,1.4c-3.8-6.2-0.3-12.3,1.5-18.3
	c2-6.6-1.1-11.7-7.6-13.9c-0.6-0.2-1,0.5-0.5,0.9c4.2,3.1,8.4,5.7,6.7,11.8c-0.9,3.2-2.7,6.2-3.4,9.5c-0.9,4.2-0.1,9,2.6,12.4
	c5,6.1,14.6,5.4,17.9-1.8C477.9,403.1,477.7,398.7,476.7,394.6z"/>
<path class="st0" d="M198.5,397.8c-0.4-0.6-1.3,0.2-1,0.8c3.5,6.3,8.6,17.7,3.7,24.5c-2.1,3-7.1,5.1-8.5-1c-0.3-1.2,0-2.5,0.1-3.7
	c0.2-2.1,0.7-4.1,0.5-6.2c-0.3-4.2-2.6-5.7-5.9-7.7c-4.4-2.6-5.2-6.7-4.2-11.5c0.5-2.6,2.5-11,6.6-10c0.4,0.1,0.7-0.5,0.3-0.7
	c-5.9-4.1-9,11.3-9,14.6c0,3.6,1.5,6.4,4.4,8.5c3.2,2.2,6.1,3.4,6,8.1c-0.1,2.4-0.7,4.7-0.7,7.1c-0.2,6.7,6.7,10.2,11.5,4.8
	C208.5,418,203.4,404.1,198.5,397.8z"/>
<path class="st0" d="M93.7,545c-3.2-13.5-4.9-27-3.8-40.9c0-0.4-0.6-0.5-0.6-0.1c-1.6,13.8-1,27.9,3.3,41.2
	C92.7,546,93.8,545.7,93.7,545z"/>
<path class="st0" d="M87,610.2c-7.2,2.7-15.3-0.2-18.1-7.7c-2.4-6.5-0.4-13.9,0.7-20.5c1.3-7.5,1.9-15.1,1.8-22.7
	c0.7,1,1.4,2.1,2.1,3.1c0.6,0.9,2,0.1,1.4-0.8c-1.2-2.2-2.4-4.4-3.6-6.5c-0.1-4.1-0.4-8.1-0.9-12.2c0-0.2-0.4-0.2-0.4,0
	c0.4,3.7,0.7,7.4,0.8,11.1c-6.5-12.5-11.8-25.5-15.2-39.3c-0.8-3.4-1.6-6.9-2.2-10.3c0.1-0.2,0.2-0.5-0.1-0.6c0,0,0,0,0,0
	c-0.9-5.4-1.6-10.9-1.9-16.4c-0.3-5.6-0.2-11.2-2.2-16.3c11,8.4,22,18,25.4,32c0.1,0.5,0.9,0.3,0.8-0.2
	c-2.8-15.9-15.9-26.3-28.1-35.4c-0.7-0.6-1.9,0.2-1.3,1.1c4.9,7.6,3.3,18.3,4.2,27c0.2,2,0.4,4,0.7,5.9c-6.1-6.2-9.8-14.3-11.3-22.9
	c-0.9-5.5-1.1-11.1-0.9-16.7c0.1-2.5,0.3-5.1,0.5-7.6c0.2-2.5-0.7-6.3,2.1-3.5c7.1,7,13.1,15.1,20.2,22.2c3,3,6.4,5.2,9.8,7.6
	c4.5,3.1,7.9,6.9,10.4,11.7c0.1,0.2,0.5,0,0.4-0.2c-4.4-8.7-11.8-12.1-18.6-18.5c-8.5-8.1-16-17.5-23.9-26.3c-0.3-0.4-1-0.1-1,0.4
	c-1.9,19-3.3,42,12.5,55.7c0.7,4.9,1.7,9.7,2.8,14.5c3.5,14.3,9.1,28.2,16.9,40.7c0,4.3-0.2,8.6-0.6,13c-0.8,7.7-3,15.3-3.3,23.1
	c-0.2,5.5,1,11.3,5.6,14.8c4.3,3.4,10,3.9,14.8,1.5C87.8,610.8,87.5,610,87,610.2z"/>
<path class="st0" d="M563,466.6c0-5.2,0.9-10.5,0.4-15.7c-0.1-0.9-1.5-1.1-1.8-0.2c-1.7,5.3-1.6,11.4-1.5,16.9
	c0.1,6.2,0.7,12.4,1.9,18.6c0.3,1.4,2.4,1.2,2.2-0.2C563.4,479.6,563,473.1,563,466.6z"/>
<path class="st0" d="M73.1,600.4c-2.8-4.2-2.2-8.1-1-12.7c0.1-0.3-0.3-0.4-0.5-0.2c-3.6,3.7-2.5,10.2,0.3,13.9
	C72.5,602.2,73.6,601.2,73.1,600.4z"/>
<path class="st0" d="M89.5,587c-1.1-3.4-2.6-6.7-4-10c-0.2-0.5-1-0.3-0.8,0.2c1.2,3.4,2.3,6.9,3.9,10.1
	C88.9,587.9,89.7,587.6,89.5,587z"/>
<path class="st0" d="M572.2,529.3c0,1.1-0.4,2.1-1.4,3.3c-0.4,0.5,0.4,1.2,0.8,0.7c2.1-1.8,3.1-4,2.7-6.8c-0.1-1-1.2-1.5-2.1-1
	c-6.3,4.1-7.7,15.1-0.4,19.1c0.9,0.5,2.1-0.6,1.3-1.5C569.7,539.4,568.8,533.3,572.2,529.3z"/>
<path class="st0" d="M605,540.2c-2-4.1-4-8.3-5.1-12.8c-0.7-2.8-0.3-3.5-3.1-4.4c-4.6-1.5-9.8-0.8-13.7,2.2c-0.4,0.3-0.5,1-0.1,1.4
	c1.3,1.6,2.6,3.1,3.9,4.7c0.5,0.6,1.2-0.1,0.8-0.7c-0.9-1.4-1.8-2.8-2.6-4.3c2.5-1.2,5.1-2,8.1-1.8c3.7,0.3,3.9,1.4,4.7,4.5
	c1.2,4.3,2.9,8.3,5.4,12C604,542,605.5,541.1,605,540.2z"/>
<path class="st0" d="M122.2,218.7c-3.6,1.2-7.2,2.4-10.8,3.6c-0.1,0,0,0.2,0.1,0.2c3.6-1.1,7.2-2.3,10.8-3.4
	C122.5,219,122.5,218.7,122.2,218.7z"/>
<path class="st0" d="M385.6,176.4c-34-13.7-72-15.5-108.2-12.7c-36.7,2.8-72.8,13.5-107.6,25c-20.3,6.7-40.4,14.1-60.5,21.4
	c-0.5,0.2-0.3,0.9,0.2,0.8c28.7-10.3,57.7-20.4,87.1-28.3c-44.8,22.4-84.3,56.1-115.8,94.9c-0.1,0.2,0.1,0.3,0.3,0.2
	c33.4-40,74.4-71.2,120-96c0.2-0.1,0.3-0.3,0.3-0.4c39.5-10.2,79.7-16.4,121.1-13.9c21.2,1.3,41.7,6.1,61.9,12.2
	C386.4,180.2,387.4,177.1,385.6,176.4z"/>
<path class="st0" d="M270.3,494C270.3,494,270.3,494.1,270.3,494C270.4,494.1,270.4,494,270.3,494z"/>
<path class="st0" d="M270.6,439.8c-3.7,16.1-8.7,31.9-11.7,48.1c-0.2,1.1,1.3,1.4,1.7,0.4c5.6-15.6,8.1-32,11.2-48.2
	C271.8,439.5,270.7,439.1,270.6,439.8z"/>
<path class="st0" d="M387.9,471.6c-4.8-6.1-8.5-12.9-10-20.7c-1.1-6-0.3-11.7,0.1-17.7c0-0.6-0.7-0.8-1-0.3
	c-6.3,12.7-0.4,30.9,9.6,40C387.4,473.7,388.6,472.4,387.9,471.6z"/>
<path class="st0" d="M232.5,363.9c-6.1-13.6-14.1-26.7-24.6-37.4c-0.5-0.5-1.3,0.2-0.9,0.8c9.4,11.7,18,23.6,24.7,37.1
	C232,364.8,232.8,364.4,232.5,363.9z"/>
<path class="st0" d="M452.2,311.2c-24.7,2.1-43.8,24.6-51,46.9c-0.2,0.5,0.6,0.7,0.8,0.3c6-9.7,11.2-19.6,19.2-27.8
	c8.4-8.8,19.3-15.1,31.3-17.5C453.7,312.8,453.4,311.1,452.2,311.2z"/>
<path class="st0" d="M226.5,686.5c-1,1.3-1.9,2.7-2.9,4.1c-0.2,0.2-0.2,0.5,0,0.7c-1.5,2.4-3.2,4.7-5,6.9c-0.8,0.9-3.8,4.9-4.6,5
	c-6.4,1.1-0.9-6-0.1-7.4c4.6-7.7,9.1-15.4,13.7-23.1c0.5-0.9-0.6-2.1-1.5-1.4c-2.1,1.6-4.2,3.2-6.3,4.9c-1,0.8-3.7,3.7-4.8,3.7
	c-4.6-0.1-0.1-7.3,3.5-12.2c1.1-1.2,2.1-2.5,3.1-4c0.6-1-0.7-2.1-1.4-1.2c-0.9,1.2-1.8,2.3-2.7,3.6c-2.4,2.7-5.3,4.9-8.6,6.5
	c0.5-1.2,1.1-2.4,1.7-3.5c3.2-1.6,5.7-4.2,7.3-7.7c0.3-0.7-0.5-1.7-1.2-1.1c-3,2.1-5.4,4.6-7.3,7.5c-1.2,0.5-2.5,0.9-3.9,1.1
	c1.5-7.5,4.9-14.2,10.2-19.9c0.8-0.8-0.5-2-1.2-1.2c-0.8,0.8-4.3,4.8-5.6,4.5c-1.5-0.4-1.7-1.5-1.2-2.7c1.3-2,2.3-3.7,2.8-4.5
	c0.5-0.8-0.8-1.8-1.4-1c-0.7,0.9-2.1,2.7-3.1,4.5c-0.6,0.9-1.3,1.7-2,2.6c-0.7,0.9-3.5,5.1-4.7,5.2c-1.4,0.1-1.9-0.4-2-1.1
	c3-3,5.3-6.5,6.8-10.7c0.3-0.9-0.7-1.8-1.4-1c-1.3,1.5-6.2,7.2-7.8,11.5c-0.3,0.3-0.6,0.5-0.9,0.8c0.8-4.4,2.2-8.6,4.3-12.5
	c1.7-1.9,3.1-4,4.2-6.4c0.3-0.6-0.6-1.4-1-0.7c-1.6,2-2.9,4-4.2,6.1c-1,1-2,2-3.2,2.8c0.2-2.2,0.7-4.2,1.7-6.4
	c0.4-0.9-0.7-1.7-1.3-0.9c-1.6,2.2-3.3,4.3-4.9,6.5c-0.2-1.9,0.5-3.9,2-5.2c0.5-0.4,0.2-1.1-0.2-1.3c0.8-1.3,1.6-2.6,2.3-4
	c0.4-0.8-0.7-1.7-1.3-1c-2,2.1-3.4,4.2-4.5,7c-0.1,0.1-0.1,0.3-0.1,0.4c-1.6,2.1-3.4,4.1-5.3,6c1.3-2.6,2.7-5.2,4-7.8
	c0.1-0.2-0.2-0.4-0.3-0.2c-2.2,3.5-4.4,7-6.5,10.6c-0.3,0.5,0.4,1.3,0.9,0.9c2.7-2.1,5.1-4.4,7.2-7c-0.2,1.3,0,2.7,0.6,4.1
	c0.3,0.7,1.1,0.4,1.4,0c1-1.3,2-2.6,3-4c-0.2,1.2-0.4,2.5-0.3,3.8c0,0.7,0.7,1,1.2,0.7c0.5-0.4,1.1-0.7,1.6-1.1
	c-1.7,3.7-2.8,7.5-3.4,11.7c-0.1,0.7,0.7,1.4,1.3,0.9c0.4-0.3,0.8-0.6,1.1-0.9c0.1,0.8,0.4,1.5,1.1,1.9c2.5,1.6,6.3-2.3,9.5-6.6
	c0.2,0.4,0.4,0.7,0.8,1c1.1,0.8,2.4,0.6,3.8-0.2c-3,4.7-5.1,10-6.1,15.7c-0.1,0.5,0.3,1.1,0.9,1c1.3-0.1,2.5-0.3,3.6-0.6
	c-0.6,1.3-1.2,2.6-1.6,4c-0.2,0.6,0.6,1.2,1.2,1c2.3-0.9,4.3-2,6.2-3.3c-0.6,1-1.1,2-1.6,3c-0.9,1.7-2.6,4.4-1.9,6.4
	c0.6,1.7,2,2,3.6,1.7c2-0.4,3.8-2.3,5.3-3.5c1.2-0.9,2.3-1.8,3.5-2.7c-3.3,5.5-6.6,11.1-10,16.6c-1.6,2.7-6.9,8.8-4.5,12.4
	c5.1,7.8,18.3-15,19.8-17.9C228.8,686.7,227.2,685.5,226.5,686.5z"/>
<path class="st0" d="M518.6,608.9c-2-2.1-4.2-4.1-6.4-6c-0.7-0.6-1.5,0.2-1.5,0.9c0,1,0.1,1.9,0.2,2.8c-0.3-0.6-0.6-1.2-0.9-1.7
	c-0.5-1-2-0.9-2.2,0.3c-0.5,3.8-1,7.6-1.6,11.5c-0.7-2.8-1.4-5.6-2.1-8.4c-0.3-1.3-2.2-1.2-2.4,0.1c-0.2,1.9-0.5,3.8-0.7,5.7
	l-1.1-9.2c-0.2-1.3-2.3-1.2-2.3,0.1c-0.5,8.7-0.7,17.4-0.6,26.1c-2.6-7.7-2.9-16.4-9.4-22c-0.7-0.6-1.9-0.3-2.1,0.6
	c-0.9,3.7-1.6,7.4-2.1,11.2c-0.2-0.2-0.4-0.3-0.7-0.3c-3.5-0.3-5,2.4-5.8,5.5c-0.9,3.1-1.4,6.3-1.9,9.6c-0.2-0.7-0.5-1.3-0.8-2
	c-0.5-1.2-2.2-1.1-2.9-0.1c-5.2,8.3-7.5,17.7-6.5,27.5c0.2,1.9,3.1,1.8,3-0.2c-0.6-8,1-15.6,4.6-22.7c1.1,3.3,1.4,6.7,1.1,10.4
	c-0.2,2.1,3,2.3,3.2,0.3c0.2-2.7,1.4-21.3,4.3-24.8c0.5,4.3,1,8.6,1.5,12.8c0.2,1.6,2.9,1.3,2.8-0.3c-0.3-8.1,0.3-16.2,2-24.1
	c5.8,6.8,5.1,17.2,9.7,24.8c0.6,0.9,2.3,0.8,2.3-0.5c-0.1-5.4-0.1-10.8,0-16.2c0.1,1.1,0.2,2.2,0.4,3.3c0.2,1.4,2.2,1.1,2.3-0.1
	c0.4-3,0.8-6,1.2-9c0.7,2.8,1.4,5.5,2,8.3c0.3,1.3,2.1,1.3,2.3-0.1c0.6-4.6,1.2-9.3,1.9-13.9c1.2,2.4,2.4,4.7,3.6,7.1
	c0.6,1.2,2.7,0.6,2.1-0.8c-1.3-3.1-2.1-6.2-2.6-9.5c1.6,1.4,3.3,2.7,5,3.9C518.4,610.2,519,609.4,518.6,608.9z"/>
<path class="st0" d="M174.3,651c-9.7,20.5-18.9,41.2-27.4,62.2c-2.8-5-6.2-9.8-9.2-14.3c-0.5-0.7-1.5-0.1-1.1,0.7
	c2.9,5.3,5.8,11.1,9.3,16.3c-0.2,0.4-0.4,0.9-0.5,1.3c-0.1,0.3,0.3,0.4,0.4,0.1c0.1-0.3,0.3-0.6,0.4-1c1.2,1.8,2.5,3.5,3.9,5.1
	c0.3,0.3,0.7,0,0.6-0.3c-0.9-2.5-2.1-4.9-3.4-7.3c6.4-15.7,13.1-31.2,20.2-46.5c1.9-4.1,4.1-8.2,5.8-12.4c1.9-4.7-0.1,1.1-0.4,2.1
	c-0.5,1.9-1,3.8-1.5,5.7c-2.3,9.2-4.6,18.4-6.9,27.7c-4.5,18.5-9,37.1-13.3,55.6c-6.5-15.3-12.3-30.8-17.2-46.7c1.1-3,2.2-6,3.4-9
	c0.1-0.1-0.2-0.2-0.2-0.1c-1.1,2.9-2.2,5.8-3.3,8.7c-1.1-3.6-2.1-7.2-3.1-10.8c-0.2-0.6-1.1-0.3-0.9,0.3c1.1,4.1,2.2,8.2,3.4,12.3
	c-3.4,9.4-6.4,18.9-9,28.5c0,0.1,0.2,0.2,0.2,0.1c2.7-9.5,5.7-18.8,9-28.1c4.7,16.2,10.4,32,17.2,47.4c0,0,0,0,0,0
	c-3.8,16.8-7.5,33.6-11,50.5c-0.1,0.5,0.6,0.7,0.7,0.2c3.7-16.8,7.5-33.6,11.3-50.4c0.3-0.2,0.6-0.5,0.4-1c0-0.1-0.1-0.2-0.1-0.3
	c7.3-32.2,14.9-64.3,23-96.3C175,650.8,174.5,650.7,174.3,651z"/>
<path class="st0" d="M257.2,510.6c0-0.4-0.6-0.6-0.7-0.1c-3,9-5.4,18.2-7.1,27.5c-0.3,1.5-0.4,3.1-0.8,4.6c-0.5,2.2,0,2.6-1.3,0.6
	c-2.7-4.2-3.1-10.9-2.9-15.6c0-0.4-0.7-0.6-0.8-0.1c-0.3,1.8-2.6,14.4-3.7,21.7c-0.3-6.3-1.6-16.3-2-17.9c-0.1-0.5-0.8-0.4-0.9,0
	c-2.1,6.5-5.1,13.4-6.3,20.1c-0.2,0.9-0.1,3-0.2,1.1c-0.1-1.4-0.2-2.9-0.4-4.3c-0.4-2.9-1.1-5.7-2-8.5c-0.1-0.4-0.6-0.4-0.9-0.1
	c-4.1,4.8-7.3,10.2-9.7,15.9c0.3-3.7,0.3-7.3-0.4-11c-0.6-3.5-3.3-3.3-5.6-0.9c-2.3,2.4-3.1,6.3-4.1,9.3c-1.5,4.3-3,8.7-4.5,13
	c-2.5,7.4-5.1,14.7-7.6,22.1c0.1-9.5,0.3-19.1,0.4-28.6c0.1-3.5,1.9-14.6-4.1-15c-2.4-0.2-3.9,2-5.1,3.7c-2.5,3.8-4.5,8.1-6.3,12.2
	c-2.8,6.4-5,13-7.1,19.6c0.9-6.4,1.7-12.9,2.1-19.4c0.3-4.1,2.6-14.8-1.8-17.8c-4.2-2.9-7.4,5.2-8.9,7.5c-5.5,9-10.9,17.9-16.4,26.9
	c-0.4,0.7,0.6,1.3,1,0.6c3.6-5.9,7.2-11.8,10.8-17.7c1.7-2.8,3.4-5.6,5.1-8.4c0.8-1.3,1.5-3.2,2.6-4.2c0.5-1.9,1.7-2.4,3.7-1.7
	c1.9-0.8,2.9-0.5,2.9,1.1c1,2.5,0.1,7-0.1,9.7c-0.2,3.2-0.4,6.4-0.7,9.5c-0.7,7.6-1.7,15.1-3.1,22.6c-0.1,0.8,1,1.1,1.2,0.3
	c2.3-7.5,4.6-15,7.4-22.3c1.2-3.1,2.5-6.2,3.9-9.2c0.8-1.6,1.6-3.3,2.5-4.9c0.4-0.8,0.9-1.6,1.3-2.4c0.6-2.5,2-3.3,4.4-2.3
	c3.7,0.2,3.1,0.6,3.3,3.7c0.1,1.9,0,3.8-0.1,5.8c0,3.8-0.1,7.7-0.1,11.5c-0.1,7.7-0.2,15.3-0.3,23c0,0.8,1.1,0.8,1.3,0.1
	c3.8-11.1,7.7-22.2,11.5-33.4c0.8-2.5,1.7-4.9,2.5-7.4c0.5-1.5,0.9-3.6,1.9-4.9c0.3-1.4,1.2-1.9,2.7-1.5c1.6-1,2.4-0.7,2.2,0.6
	c1.2,1.3,0.4,7.7,0.2,9.8c-0.2,2-0.5,4-0.9,6c-0.4,1.5-0.8,3-1.1,4.6c0,0,0,0,0,0c0,0,0,0,0,0c0,0,0,0.1,0,0.1
	c-0.1,0.6,0.9,0.8,1.1,0.2c0.5-1.8,1-3.7,1.3-5.5c1.5-5.2,3.8-10.2,6.8-14.8c1.7-2.5,3.5-7,4.7-2c0.9,3.7,1.3,7.2,1.3,11
	c0,0.5,0.8,0.6,0.9,0.2c1.1-3.7,2.3-7.4,3.5-11.1l1.7-5.5c0.3-1.1,1-4.6,1.7-5.5c-0.4,0.4,1.6,9.9,1.7,12.3c0.2,3.6,0,7.2-0.3,10.7
	c0,0.5,0.7,0.6,0.8,0.1c0.7-4.5,1.5-8.9,2.2-13.4c0.4-2.2,0.7-4.5,1.1-6.7c0.1-0.6,0.5-1.9,0.8-3.2c0.2,1.4,0.4,2.8,0.7,4.2
	c0.8,3.2,2,6.2,3.6,9.1c0.2,0.4,0.7,0.2,0.7-0.2c1.3-9,3.2-18,5.7-26.8c0.5-1.7,0.9-3.6,1.6-5.3c1.2-3,0.3-1.4,0.6,0.1
	c0.9,4,0.6,8.7,0.9,12.7c0,0.3,0.5,0.3,0.5,0C257.8,521.5,257.5,516.1,257.2,510.6z"/>
<path class="st0" d="M502,535.6c-8.5,0.9-19.3,1.4-24.7-6.5c-0.3-0.4-0.8-0.4-1.1,0c-2.6,3.5-5.6,6.5-9.1,9.2
	c-1.1,0.8-4,3.6-5.4,3.6c-1.4-0.6-2.7-1.3-4.1-1.9c0.1-1.7,0.3-3.3,0.6-4.9c0.6-3.5,1.5-6.9,2.7-10.2c2.2-3.9,4.2-7.9,5.9-11.9
	c0.3-0.7-0.6-1.3-1.1-0.6c-2.3,3.6-4.3,7.4-5.8,11.4c-2.4,4.3-5.1,8.4-8,12.3c-1.4,1.8-2.8,3.7-4.3,5.4c-0.9,1.2-2,2.3-3.2,3.2
	c-3.7-2.1-5-4.7-3.9-7.9c1-5.1,1.9-10.2,2.9-15.3c0.1-0.5-0.6-0.7-0.9-0.4c-2.5,2.7-5.3,5.6-8.6,7.4c-3.2,1.8-8.5,1.8-9-2.5
	c-0.2-1.9,0.2-3.7,0.8-5.5c0.2-0.6-0.7-1-1-0.4c-1.3,3.1-2.8,6.1-4.6,8.9c-1.3,2.1-1.7,2.7-4.3,3.3c-3.2,0.7-2.5-0.1-2.8-3
	c-0.6-5.5-0.1-11.1,1.4-16.4c1.5-2.8,2.6-5.7,3.4-8.8c0.2-0.6-0.7-0.8-1-0.3c-1.4,2.8-2.6,5.8-3.4,8.8c-1.2,2.5-2.7,5.2-3.1,4.9
	c-1-0.5-0.7-7.2-0.8-8.3c-0.2-3.3-0.3-6.6-0.4-9.9c0-0.5-0.8-0.6-1-0.1c-1.6,5.3-3.3,10.5-5.3,15.6c-1,2.6-2.1,5.1-3.2,7.6
	c-1.6,3.7-1.5,2.1-2-1.3c-0.4-2.5-0.6-5-0.6-7.6c-0.1-2.8,0.6-5.9,0.9-8.9c0.3,1,0.8,1.9,1.4,2.9c0.1,0.2,0.5,0.1,0.4-0.2
	c-1.2-2.9-1.6-5.7-1.1-8.8c0.1-0.6-0.8-0.8-0.9-0.2c-2.1,9.5-2.1,18.9,0,28.4c0.1,0.5,0.8,0.6,1,0.1c3.2-6.9,6.1-14,8.5-21.3
	c0.2-0.5,0.8-2.2,1.1-3.3c0,1.3,0.1,3.6,0.1,4c0.2,4.3,0.5,8.6,0.8,12.9c0,0.5,0.6,0.6,0.9,0.3c0.9-1.2,1.8-2.3,2.6-3.6
	c-0.3,1.3-0.5,2.5-0.6,3.8c-0.4,3.5-1.4,11.6,0.8,14.6c3.4,4.8,8.5-4.2,11.2-9.9c-0.1,3.9,1.5,8,6.2,7.1c4.1-0.8,7.8-4.7,10.8-7.4
	c1.3-1.1,0.8-1.6,0.8,0.1c0,1.6-0.7,3.3-1,4.8c-0.7,3.5-1.4,7-2.1,10.5c-0.5,2.5-1.2,6.2,1.9,7.3c2.9,1.1,5.7-1.9,7.4-3.8
	c3.7-4.2,7-8.7,10-13.5c-0.7,2.8-1.3,5.7-1.5,8.6c-0.7,8.1,5.3,5.4,10,2.1c1.4-1,2.7-2,4-3.2c1.7-1.5,3.3-4.1,5.1-5.3
	c1.7-1.1,0.6-1,2.2,0.1c1.3,0.9,2.2,2,3.5,2.8c6.2,3.5,14,2.9,20.8,2.1C502.9,536.6,502.7,535.5,502,535.6z"/>
<g>
	<path class="st0" d="M179.6,231.8c-0.7-0.7-1.4-1.4-2.1-2c-0.1-0.1-0.3-0.2-0.5-0.1c-6.1,3.4-11.6,7.4-16.6,12.3
		c-0.1,0.1,0,0.3,0.1,0.2c1.9-0.6,10.2-2.7,10.4-4.1c0,0.2-0.2,0.5-0.4,0.8c1-0.9,1.7-1.5,2-1.7c0.1-0.1,0-0.3-0.2-0.3
		c-2.1,1.2-4.3,2.3-6.5,3.2c-0.9,0.4-2.1,1.1-3.1,0.8c-1.4-0.4,0.7-1.4,1.7-2.3c3-2.5,10.8-9.9,14.6-6.5
		C179.4,232.6,179.9,232.1,179.6,231.8z"/>
	<path class="st0" d="M143.6,268.1c3.5-2.1,7.1-4.2,10.6-6.2c0.1-0.1,0-0.3-0.1-0.2c-2.5,1.4-7.3,3.4-9,5.3c0.5-0.6,1.1-1.2,1.8-1.7
		c-1.1,0.9-2.3,1.8-3.4,2.7C143.4,267.9,143.5,268.1,143.6,268.1z"/>
	<path class="st0" d="M159.4,248.8c-0.1,0.1,0,0.4,0.2,0.3c3.9-1.4,7.9-3.1,12-4.2c3.6-0.9,0.8,0.4-0.7,1.5
		c-1.8,1.4-3.7,2.8-5.5,4.3c-5.4,4.2-10.8,8.4-16.2,12.6c1.8-1.3,3.8-2.6,5.4-3.8c6.8-5.3,13.6-10.5,20.4-15.8
		c0.1-0.1,0-0.4-0.2-0.3c-1.5,0.5-13.4,5.2-13.8,4.6c-0.2-0.4,3.2-3.6,6.4-6.3c-0.7,0.5-1.3,1-1.6,1.3
		C163.7,244.9,161.6,246.9,159.4,248.8z"/>
	<path class="st0" d="M170.6,239c-0.9,0.8-1.9,1.7-3.1,2.7C168.6,240.8,169.9,239.8,170.6,239z"/>
	<path class="st0" d="M149.2,263.4c-0.8,0.6-1.6,1.2-2.3,1.8C147.7,264.6,148.5,264,149.2,263.4z"/>
</g>
<path class="st0" d="M290,335.4c-9.8,3-19.8,5.4-29.9,7.4c5.3-2.7,10.6-5.4,15.9-8.1c0.6-0.3,0.2-1.2-0.4-1c-3.5,1.2-7,2.1-10.7,2.5
	c-1.8,0.2-3.7,0.4-5.6,0.4c-2.2,0-4,0.7-3.2-1.5c0.8-2.4,5.3-5.5,7.1-7.3c2.7-2.6,5.4-5,8.3-7.4c0.3-0.3,0.2-1-0.3-0.9
	c-9.4,2-18.8,3.9-28.3,5c-0.9,0.1-1.8,0.2-2.8,0.3c0.6-1.6,1.5-3,2.7-4.1c1.4-1.6,3.2-3.1,4.9-4.5c3.4-2.8,7.1-5.1,11.1-7.2
	c0.3-0.1,0.1-0.5-0.2-0.5c7.4-3,14.8-8.1,14.7-16.6c0-0.5-0.8-0.6-0.9-0.1c-2.3,9.8-12.1,14.2-20.9,16.7c-2.6,0.7-5.1,1.3-7.7,1.8
	c1.2-1,2.4-2,3.5-3c0.2-0.1,0-0.4-0.2-0.3c-2.8,1.3-5.6,2.7-8.4,4c-7.4,0.8-14.8,0.5-22.3-0.3c-0.9-0.1-1.2,1.3-0.3,1.5
	c4.9,1.2,10,1.7,15,1.7c-0.8,0.7-1.7,1.3-2.5,2c-0.1,0.1,0,0.2,0.1,0.2c1.6-0.7,3.1-1.5,4.7-2.2c2.3-0.1,4.5-0.3,6.8-0.6
	c-0.6,0.5-1.2,1-1.8,1.6c-0.2,0.1,0,0.4,0.2,0.4c4.3-1.3,8.5-2.6,12.8-3.9c1.4-0.4,4-1.7,5.5-1.7c-0.3,0-2.5,1.2-3.5,1.8
	c-5.9,3.7-11,8.3-15.4,13.6c-0.2,0.2-0.1,0.7,0.2,0.7c9.6-0.7,19.1-2.3,28.5-4.3c2.7-0.6,3.1-1.8,1.4,0.6c-1.4,1.9-3.8,3.4-5.5,5
	c-3.2,3-6.2,6.2-9.2,9.5c-0.3,0.3,0,0.8,0.3,0.8c5.7,0.5,11.3,0.1,16.9-1.2c-5.1,2.5-10.1,5-15.2,7.5c-0.6,0.3-0.2,1.3,0.4,1.2
	c7-1.1,13.9-2.5,20.7-4.2c-6.5,3.3-12.6,7.4-18.2,12.4c-0.4,0.4-0.3,1.2,0.3,1.4c6.2,1.4,12.3,1.8,18.6,1.1
	c-5.4,2.9-10.9,5.9-16.3,8.8c-2.7,1.4-7.4,3.1-6.1,6.9c0.1,0.3,0.4,0.5,0.7,0.5c4.2,0,8.2-0.4,12.2-1.2c-5.6,3.1-10.2,7.2-7.2,11.2
	c0.3,0.4,1.2,0.7,1.5,1.1c2.8,4.1,2.9,5.6,1.1,9.4c-1.2,2.6-2.6,5.1-3.7,7.8c-2.8,6.7-4.3,13.8-4.8,21c0,0.5,0.8,0.6,0.9,0.1
	c0.7-6.5,2-12.9,4.4-19.1c1.8-4.6,5.7-9.5,6.1-14.6c0.3-4.2-5.8-7-3.2-11.2c1.4-2.3,5.4-4.3,7.7-5.6c1-0.6,2.1-1.1,3.2-1.6
	c2.5-0.7,5.1-1.6,7.5-2.7c0.8-0.3,0.4-1.5-0.5-1.3c-1.3,0.3-4,1.3-7.1,2.6c-2,0.6-4,1.1-6,1.5c-2,0.4-4,0.7-6,0.8
	c-1.7,0.1-6.2,1.5-4.1-2.1c0.6-1.1,3.2-1.8,4.4-2.4c2.7-1.5,5.5-2.9,8.2-4.4c4-2.1,7.9-4.1,11.9-6.2c0.8-0.4,0.4-1.6-0.5-1.5
	c-7,1.2-13.7,1.2-20.6-0.2c8.7-7.5,18.7-13,29.7-16.3C291.3,336.7,291,335.1,290,335.4z M231.9,314.4c-1.1,0.4-3.3,1.8-0.6-0.4
	c0.5,0,1.1,0,1.6,0C232.5,314.1,232.2,314.3,231.9,314.4z M239.5,311.1c0.9-0.4,1.8-0.8,2.6-1.2c1.4-0.7,5.2-3.3,2-0.1
	c-0.3,0.3-0.5,0.5-0.8,0.8C242,310.7,240.7,310.9,239.5,311.1z M241,313.3c2.3-0.3,4.5-0.7,6.7-1.3c-1.3,0.4-2.5,0.8-3.8,1.2
	C241.9,313.8,239.3,315.4,241,313.3z"/>
<g>
	<path class="st0" d="M397.7,293.9c0.8,0,1.7,0.1,2.5,0.2C399.3,294,398.5,293.9,397.7,293.9z"/>
	<path class="st0" d="M446.9,304.8c-9.1,3.1-20.1,5.4-29.4,1.8c0.5-0.2,0.9-0.4,1.4-0.6c1.2-0.5,0.7-2.6-0.6-2.2
		c-1.4,0.4-2.7,0.8-4.1,1.2c-2.4-1.4-4.5-3.3-6.3-5.5c-0.9-1.1-1.7-2.3-2.4-3.6c0,0,0,0,0,0c0,0,0,0,0,0c-0.9-1.7-1.5-3.5-1.8-5.3
		c-0.2-1.3-0.5-6.8,0.4-8.2c-0.1,0.3,0.1,0.6,0.4,0.7c0.1,0,0.3,0.1,0.4,0.1c0.3,0.1,0.5-0.2,0.6-0.4c0.3-0.7,0.3-0.8-0.1-1.5
		c-0.2-0.3-0.5-0.3-0.8-0.3c-3.5,0.9-3.4,7-3.1,9.8c0.1,1.3,0.4,2.5,0.8,3.8c-0.7-0.2-1.3-0.4-2-0.5c0.7,0.1,1.4,0.3,2,0.5
		c0.5,1.7,1.3,3.3,2.2,4.8c-2.9-1-5.8-2.1-8.4-3.5c-2-1.1-2.7-1.1-0.2-1.9c0.6-0.2,1.2-0.2,1.8-0.2c-1.7,0-3.4,0.2-5.1,0.7
		c-0.2,0-0.2,0.2,0,0.3c3.4,1.4,6.7,2.8,10.1,4.3c0.6,0.3,1.4,0.4,2,0.7c0.4,0.6,0.8,1.2,1.2,1.7c-1.1,0.5-5.4,1.1-6.4,1.2
		c-0.2,0-0.5,0.1-0.8,0.1c-2.6-0.1-5.2-0.3-7.7-0.4c-0.4,0-0.5,0.5-0.1,0.6c2.7,0.4,5.3,0.5,7.9,0.3c1.2,0,2.5,0.1,2.7,0.9
		c0.2,0.7-4.5,3.4-5.1,3.8c-1.9,1.1-3.7,1.9-5.6,2.6c-2.3,0.2-4.6,0.7-6.8,1.5c-10.5,1.3-20.9,0.4-30.6-5.2c-0.6-0.4-1.3,0.6-0.6,1
		c14.4,9.2,30.6,9,46.2,5c-0.1,0.2-0.3,0.5-0.5,0.8c-1,1.2-3.6,2.1-5,2.9c-3.6,2-7.3,4-10.9,5.8c-0.3,0.2-0.3,0.7,0.1,0.8
		c2,0.3,10.5,1.3,10,3.6c-0.2,0.8-4,2.5-5,3.1c-1.9,1.2-3.9,2.4-5.8,3.6c-6.9,4.2-13.8,8.5-20.7,12.7c-0.3,0.2-0.3,0.8,0.1,0.9
		c5,1.5,10,2.3,15.1,2.4c-2.9,1.6-5.9,3.2-8.5,5.1c-1.1,0.7-2.5,1.6-2.8,3c-0.2,1.1,0.2,1.8,0.9,2.6c0.7,0.5,1.5,0.9,2.2,1.3
		c1.9,1.5,2.8,3.5,2.6,5.8c0,2.2-1,4.3-2.2,6.1c-3.2,4.9-7.4,8.6-9.5,14.3c-2,5.4-2.2,11-0.1,16.4c0.2,0.5,1,0.3,0.8-0.2
		c-2.1-6.7-1.1-13.7,2.3-19.9c2.5-4.6,7.1-8,9.1-12.9c1.1-2.8,1.3-6.3-0.6-8.9c-0.4-0.5-1-0.9-1.4-1.4c-0.5-0.4-1-0.7-1.6-1
		c0.7-1.7,1.4-3.4,2.1-5.1c1.9-2.2,6.4-3.8,8.9-5.3c0.4-0.3,0.4-1.1-0.2-1.1c-3.9,0.1-8.2,0.1-12-1c-1.2,0-2.3-0.5-3.1-1.4
		c0.8-0.5,1.6-1,2.5-1.5c1.9-1.2,3.8-2.4,5.8-3.6c7.7-4.8,15.4-9.5,23.1-14.3c0.3-0.2,0.3-0.6,0-0.8c-1.9-0.9-3.8-1.6-5.8-2.2
		c-2.2-0.6-6-0.2-2.5-2.2c5-2.8,10-5.5,14.9-8.4c0.3-0.2,0.2-0.5,0-0.7c4.2-1.2,8.3-2.6,12.4-4.2c10.3,5.6,23.6,3.1,34.2-1.3
		C449,306.3,448.2,304.3,446.9,304.8z M392.9,310.7c-0.2,0-0.4,0-0.5,0c3.9-1.6,7.4-3.9,10.6-6.9c0.2-0.2,0.1-0.5-0.1-0.6
		c-0.5,0-1,0-1.5-0.1c1.6-0.3,3.2-0.6,4.8-1.1c0.5,0.6,0.9,1.2,1.5,1.7c0.9,0.9,1.8,1.7,2.7,2.4
		C404.6,307.7,398.7,309.4,392.9,310.7z"/>
</g>
<path class="st0" d="M392.2,829.6c-16.6,5.7-40.3,10.2-50.2-8.9c-0.1-0.3-0.6,0-0.5,0.2c9.6,19.5,34.4,14.6,50.8,8.9
	C392.5,829.7,392.4,829.5,392.2,829.6z"/>
<path class="st0" d="M153.2,651c0,1.7,0,3.3,0,5c0,0.1,0.2,0.2,0.2,0c0-1.7,0-3.3,0-5C153.5,650.9,153.2,650.9,153.2,651z"/>
<path class="st0" d="M249.7,677.9c-3.7,13.1-7.7,26.7-16,37.8c-9,11.9-22.3,17.9-36.9,18c2.9-14.3,6.3-28.4,9.8-42.5
	c0-0.2-0.2-0.3-0.3-0.1c-3.5,14.1-7.1,28.3-10.1,42.6c-0.7,0-1.3,0-2,0c-0.5,0-0.5,0.7-0.1,0.7c0.6,0,1.3,0.1,1.9,0.1
	c-3.3,16.1-5.8,32.4-6.6,48.8c-0.1,3-1.8,11,1.8,12.9c1.8,1,3.2-0.3,4.3-1.7c4-5.2,6.5-13,8.9-19.1c2.9-7.2,5.2-14.6,7.2-22.2
	c0.1-0.2-0.1-0.4-0.2-0.4c3.1-6,6.3-11.9,9.8-17.7c0.2-0.3-0.3-0.5-0.4-0.2c-8.2,13.3-15,27.6-20.6,42.2c-0.1,0.2,0.2,0.3,0.3,0.1
	c3-7.8,6.5-15.5,10.2-22.9c-3.2,11.7-7.4,23-12.8,33.9c-0.5,1.1-1.1,2.1-1.6,3.2c-1.3,2.5-0.7,2.8-3.7,2.2c-3.3-0.6-2.5-1.8-2.5-4.6
	c0-1.6,0.1-3.2,0.1-4.8c0.2-6.4,0.8-12.7,1.5-19c1.2-10.3,2.9-20.6,4.9-30.8c14.1,0.3,27.4-5.1,36.4-16.4
	c9.1-11.5,13.2-26.1,16.9-40C250,677.8,249.8,677.8,249.7,677.9z"/>
<path class="st0" d="M187,716.3c-12.7,26.2-18.5,55.7-15.8,84.7c0,0.4,0.6,0.3,0.6-0.1c-1.4-21.9,0.9-43.8,7.8-64.6
	c1.6-4.8,3.4-9.5,5.4-14.1c0.3-0.6,1.2-2,1.5-3.1c-0.2,0.9-0.6,2.1-0.7,2.6c-0.6,2.7-1.2,5.4-1.7,8.1c-2.5,11.6-5.1,23.3-4.5,35.2
	c0,0.2,0.4,0.3,0.4,0c-0.8-16.3,4.2-32.6,7.7-48.4C187.8,716.3,187.2,715.9,187,716.3z"/>
<path class="st0" d="M258,846.5c-8.8,3.7-15.6-4.7-16.6-12.8c-0.9-7.4,1.7-14.9,2.5-22.2c0-0.4-0.4-0.7-0.8-0.4
	c-1.6,1.6-3.1,3.6-4.8,5c-0.8,0.6-1,1.6-2.2,1.1c-0.6-0.3-0.6-4.1-0.6-4.9c-0.2-5.7,1.1-11.4,1.9-17c1.6-10.7,3.2-21.4,4.9-32.1
	c0.1-0.5-0.7-0.7-0.8-0.2c-4.2,14-8.8,27.9-13.8,41.6c-2.2,6.1-4.3,12.4-7.1,18.3c-0.7,1.4-4.4,9.9-5.9,9.8
	c-2.8-0.1-3.1-9.3-3.2-10.5c-0.6-13.2,2.5-27.2,4.8-40.1c2.5-14.1,5.7-28.1,9.4-41.9c0.1-0.2-0.3-0.4-0.4-0.1
	c-4.6,16.9-8.4,34.1-11.2,51.4c-2.2,13.6-6.5,29.9-0.5,43.1c0.1,0.3,0.5,0.3,0.7,0.1c6.7-7.7,9.9-17.4,13.3-26.8
	c4.1-11.1,7.9-22.3,11.4-33.6c0.4-1.2,0.9-2.6,1.4-3.9c0,0.2,0,0.4-0.1,0.5c-0.9,5.8-1.8,11.7-2.6,17.5c-1.5,9.8-4.7,21-1.9,30.8
	c0.1,0.3,0.5,0.4,0.7,0.2c1.1-1.2,5.1-6.4,6.3-6.2c0.2,0-1.4,8.1-1.6,8.8c-1,5.5-1.7,11.3,0.1,16.7c2.4,6.9,9.8,12.1,17,8.5
	C258.8,846.9,258.5,846.3,258,846.5z"/>
<path class="st0" d="M527.2,756c-2.2,3-2.5,6.4-2.8,10c-0.6,6.3-2.6,11.1-6.5,16c-7.4,9.4-16.4,17.3-25.1,25.3
	c-0.3,0.2,0,0.7,0.3,0.4c8.3-7.4,16.6-14.9,23.8-23.4c2.9-3.5,5.8-7.3,7.1-11.8c1.6-5.5,0.1-11.5,3.6-16.4
	C527.6,756,527.3,755.8,527.2,756z"/>
<path class="st0" d="M300.4,622.1c-2.6-2.1-7.5,0-5.5,3.5c0,0,0.1,0,0.1,0c2.4-0.2,4.7-0.4,7.1-0.6c0.4,1.1,0.7,2.2,0.9,3.3
	c0.2,1.3,0.4,2.6,0.5,3.8c0.1,2.3,0.1,4.6-0.2,6.8c-0.7,5.4-2.5,10.5-5,15.3c-5.4,10.1-16.2,23.8-28.9,22.8c-0.3,0-0.3,0.5,0,0.5
	c8.7,1.5,16-5.4,21.3-11.4c6-6.8,10.8-15.1,12.5-24.1C304.1,636.7,305.3,626,300.4,622.1z"/>
<path class="st0" d="M382.4,683.7c-10.9-0.2-19-9.4-21.2-19.6c-2.5-11.9,2.3-24.1,6.6-35c0-0.1-0.1-0.2-0.1-0.1
	c-4.8,11.7-10.3,25.2-6.3,38c2.9,9.4,10.8,17.5,21.1,17.3C382.8,684.4,382.8,683.8,382.4,683.7z"/>
<g>
	<path class="st0" d="M277.9,626.4c-1.2-1.1-2.5-1.9-3.8-2.5C275.3,624.5,276.6,625.3,277.9,626.4
		C277.9,626.5,277.9,626.4,277.9,626.4z"/>
	<path class="st0" d="M266.3,623.8c2.6-0.8,5.2-0.8,7.7,0.1C271.5,622.8,268.8,622.9,266.3,623.8z"/>
	<path class="st0" d="M251.2,638.4c3.3-5.1,8.9-12.3,15.2-14.6c-3.2,1-6.3,3-8.7,5.5c-7.4,7.7-12.9,18.2-17.5,27.7
		c-4,8.2-7.2,16.7-9.7,25.4c-20.8-1.7-31.1,26.6-33.1,43.2c-1.7,13.6,3.1,29,14.2,36.7c-5.4,0.4-9.9-1.7-11.8-8.3
		c0-0.1-0.2,0-0.1,0.1c1.8,7,6.7,9.1,12.4,8.6c3.3,2.2,7,3.7,11.3,4.3c0.3,0,0.4-0.4,0.1-0.5c-4-0.6-7.5-2-10.5-3.9
		c8.5-1,18.5-7.1,23.1-10.9c9.8-8.1,25.1-27.2,14.9-40c-0.4-0.5-1.2,0.1-0.8,0.6c8.9,11.6-3.9,28.6-12.4,36.6
		c-4.8,4.6-16.1,12.3-25.3,13.4c-11.4-7.5-16.2-22.8-14.6-36.5c1.9-16.5,11.9-44.7,32.6-43.1c-3.8,13.2-5.8,26.8-6.1,40.6
		c0,0.4,0.5,0.3,0.5,0c0.4-13.7,2.5-27.3,6.2-40.5c0.1,0,0.1,0,0.2,0c0.1,0,0.1-0.1,0-0.2c0,0-0.1,0-0.1,0c1.8-6.4,4-12.7,6.7-18.9
		C241.5,654.8,246,646.3,251.2,638.4z"/>
</g>
<path class="st0" d="M492.3,690.4c-12.3,0.8-24.6,0.9-36.9-0.2c0.6-9.4,0.5-18.9-0.3-28.3c-1.1-13.1-2.2-28.5-10.7-39.2
	c-6.6-8.5-16.8-11.8-27.1-8.6c-11.7,3.6-19.3,13.7-25.1,23.9c-0.1,0.2,0.1,0.3,0.2,0.2c5.5-9.3,12.4-18.6,22.8-22.6
	c13.6-5.2,26.3,1.4,32.2,14.1c5.1,11,5.9,24.3,6.6,36.2c0.5,8.1,0.4,16.2,0.1,24.3c-1.7-0.2-3.5-0.3-5.2-0.5
	c-11.3-1.3-23.1-3.9-30.3-13.4c-0.1-0.2-0.5-0.1-0.5,0.2c0,1.9,0.6,2.8,2.2,3.7c0.1,0,0.2-0.1,0.1-0.1c-1.7-2.6-1.9-3-0.5-1.2
	c0.3,0.3,0.6,0.7,0.9,1c0.8,0.9,1.7,1.6,2.7,2.4c1.9,1.5,3.9,2.6,6.1,3.6c5.5,2.5,11.6,3.8,17.6,4.6c2.3,0.3,4.5,0.5,6.8,0.7
	c-0.3,5.7-0.8,11.3-1.4,16.9c-0.1,0.6,0.9,0.8,1,0.1c0.8-5.6,1.4-11.3,1.8-17c12.3,1.1,24.7,1.1,36.9,0
	C492.8,691.1,492.8,690.3,492.3,690.4z"/>
<path class="st0" d="M588,610.9c-5.2,2.8-6.4,8.5-7.1,14c-4.9,10.1-9.6,20.2-14.2,30.4c-0.3-0.1-0.6-0.2-0.9-0.3
	c-7.6-2.6-15.6-2.9-23.4-1.3c-0.4,0.1-0.4,0.6-0.1,0.7c6.5,2.6,12.5,6,17.8,10.5c0.6,0.5,1.1,0.9,1.6,1.4c-1.6,3.7-3.3,7.4-4.9,11.1
	c-0.5,1.2-1,2.3-1.5,3.5c-5.9,3.3-11.9,6.3-18.1,9.1c-0.2,0.1-0.3,0.5-0.1,0.6c3,3.3,7.1,4.9,11,6.8c-5.2,12-10.2,24.2-14.7,36.5
	c-1.7,1.1-3.4,2.2-5.1,3.3c-1.8,1.2-5.6,3.1-6.3,5.6c-4.3,1-8.6,1.9-12.9,2.7c1.6-1.9,3-3.9,4.2-6.2c5.6-10.6,4.8-23.3,1.1-34.5
	c-7.2-21.9-28.2-48.2-54.2-40.7c-0.1,0,0,0.1,0,0.1c26.1-7.2,46.9,19.5,53.6,41.5c3.5,11.5,3.9,24.6-2.7,35.1
	c-1.1,1.8-2.3,3.4-3.7,4.9c-7.4,1.3-14.8,2.4-22.2,3c-7.5,0.7-15.4,0.1-17.2-8.8c-0.9-4.6,0.2-9.7,1.3-14.1c0.4-1.6,0.8-4.2,1.8-5.5
	c1.8-2.5,1.8,2,1.8,3.6c0,0.3,0.5,0.3,0.5,0c0-2.4-0.4-4.2-1.4-6.3c-0.1-0.3-0.6-0.3-0.7,0c-4.9,10.4-10.1,30.7,6.3,33.1
	c8.7,1.3,18.3-0.7,26.8-2.1c0.1,0,0.1,0,0.2,0c-5.7,5.3-12.8,9.3-19.6,13c-0.4,0.2-0.1,0.8,0.3,0.6c7.4-3.9,15.1-8.1,21.1-14
	c5.3-0.9,10.5-2,15.6-3.3c1.7,4.4,12.5,2,15.2,1.2c0.3-0.1,0.2-0.5-0.1-0.4c-2.3,0.5-4.6,0.9-7,1c-1.2,0-2.3,0-3.5-0.1
	c-0.7-0.9-1.2-1.7-1.6-2.5c1.7-0.5,3.5-1,5.2-1.5c-0.3,0.8-0.5,1.6-0.8,2.3c-0.3,0.9,1.1,1.5,1.5,0.6c0.5-1.2,1.1-2.4,1.6-3.7
	c0.5-0.2,0.7-0.7,0.5-1.1c1.2-2.7,2.3-5.5,3.5-8.2c1-0.5,1.9-1.1,2.8-1.7c6.4-4,13.8-8.7,17.7-15.4c2.7-4.7,2.9-10.2-1.1-14.2
	c-1.6-1.6-3.4-2.7-5.4-3.7c2.3-5.9,4.7-11.7,7.2-17.5c0.7-0.4,1.5-0.8,2.2-1.3c2.5-1.5,5.9-3.1,8.8-5.2c0.9,1.2,1.8,2.3,2.6,3.5
	c0.4,0.6,0.9,1.3,1.3,1.9c1.2,1.5,1.1,1.7-0.2,0.8c0-0.2-0.3-0.1-0.3,0.1c0.3,1.5,0.7,1.9,2.2,1.9c0.1,0,0.2-0.1,0.2-0.3
	c-1.6-2.9-3.4-5.6-5.4-8.2c2.9-2.1,5.3-4.5,6.2-7.6c1.4-5.3-2.6-8.1-6.8-9.9c6.7-14.7,13.6-29.3,20.5-44
	C589.4,611.4,588.8,610.5,588,610.9z M531.1,740.7c-2.2,0.5-4.3,1.1-6.5,1.6c-0.1-1.3,0.6-2.3,2.1-3.1c1.8-1.7,4.1-3.2,6.5-4.5
	C532.5,736.6,531.8,738.6,531.1,740.7z M554.7,701.5c11.5,10.2-6.2,22.9-14.2,28c-1.1,0.7-2.3,1.5-3.4,2.2
	c4.5-11,8.8-22.1,13.3-33.1C551.9,699.4,553.3,700.3,554.7,701.5z M548.5,696.7c-2.9-1.3-5.8-2.5-8.3-4.4c-2.3-1.7-1.5-1.8,0.7-3.1
	c2-1.2,4.4-2.1,6.5-3.2c2.5-1.3,5-2.7,7.5-4C552.8,686.9,550.6,691.8,548.5,696.7z M559.3,663.4c-3.4-2.8-7.1-5.2-11.1-7.2
	c-0.7-0.4-4.3-1.8-4.1-2.2c0.4-1,9-0.7,9.1-0.7c4.5,0.1,9,1,13.2,2.5c-1.5,3.3-2.9,6.5-4.4,9.8C561.2,664.9,560.3,664.2,559.3,663.4
	z M567.4,673.7c-3,1.9-6,3.8-9.1,5.6c0.3-0.7,0.6-1.4,0.9-2.1c1.4-3.2,2.8-6.3,4.2-9.5c1.8,1.7,3.4,3.5,5,5.4
	C568,673.3,567.7,673.5,567.4,673.7z M568.6,656.8c4.9,2.2,8,6.4,4.9,11.4c-1.2,2-3,3.4-4.9,4.6c-1.6-2-3.3-3.9-5.1-5.7
	c1.6-3.5,3.1-7,4.7-10.5C568.4,656.7,568.5,656.8,568.6,656.8z M582.8,621c0.6-2.5,1.6-4.9,3.3-6.7C585,616.6,583.9,618.8,582.8,621
	z"/>
<path class="st0" d="M451.2,706.3c-13.1,2.6-30.3,5.4-39.7-6.7c-8.1-10.5-4-25.2,7.5-31.2c0.1,0,0-0.1-0.1-0.1
	c-11.2,5.5-15.9,19-9.5,30c8.6,14.8,28.1,12.6,42,8.9C452,707,451.7,706.2,451.2,706.3z"/>
<path class="st0" d="M331.7,853.8c-1.6,6-3.5,12.6-7.1,17.7c-1.4,2-1.2,1.8-1.8-0.6c-0.5-1.7-0.7-3.6-1-5.4c-0.6-3.4-1-6.8-1.3-10.2
	c-0.6-6.7-0.6-13.4-0.3-20.1c0.1-3.8,0.1-7.3-2.4-10.5c-0.3-0.3-0.9-0.2-0.9,0.2c-2.7,20.6-6.4,41.1-11.2,61.3
	c-1,4.1-1.5,3.9-2.5-0.3c-0.6-2.6-0.5-5.3-0.4-8c0.2-5.7,0.4-11.4,0.6-17.1c0.2-5.3,0.4-10.6,0.6-16c0.1-3.2,0.4-7.8-1.6-10.6
	c-3.4-4.6-6.2,1.8-7.6,4.9c-3.2,6.9-4.2,14.5-4.7,22.1c-0.7,9.6-0.7,19.2-1.8,28.8c-0.5,4.7-1.2,9.3-2,13.9
	c-0.4,2.4,0.2,2.6-2.3,2.9c-2.6,0.3-2.8-1.1-3.6-3.2c-1.1-2.7-1.6-5.8-2.3-8.6c-3.7-16-6.1-32.2-7.3-48.5c4.2,7.5,8.4,15,12.6,22.4
	c0.2,0.4,0.9,0.1,0.6-0.3c-4.4-7.9-8.9-15.8-13.4-23.6c-0.5-7.4-0.7-14.7-0.7-22.1c0-0.1-0.1-0.1-0.1,0c-0.1,7.1,0,14.2,0.4,21.3
	c-1.9-3.4-3.9-6.7-5.8-10.1c-0.2-0.3-0.5,0-0.4,0.3c2.1,3.8,4.2,7.5,6.3,11.3c0.6,10.3,1.7,20.5,3.4,30.7c1.4,8.7,2.9,17.8,5.5,26.2
	c1,3.3,2.7,7.1,6.7,6.4c0.2,0,0.3-0.2,0.3-0.3c2.2-11.6,3.6-23.4,4.1-35.2c0.5-11.1,0.4-22.8,4.9-33.2c0.4-0.9,0.8-2.1,1.4-2.9
	c0.4-1.6,1.4-2.1,3.2-1.4c1.6-0.8,2.5-0.6,2.6,0.7c1.3,2,0.7,5.9,0.7,8.3c-0.2,6.3-0.5,12.6-0.7,18.9c-0.2,5.5-0.6,11-0.6,16.5
	c0,4.1,0.4,7.7,3,10.9c0.3,0.4,0.8,0.2,0.9-0.2c4.7-18.9,8.4-38.1,11.2-57.4c0.1-0.6,0.6-6.6,0.9-6.6c1.7-0.3,1.6,4.9,1.6,6
	c0.1,4.4-0.3,8.7-0.2,13.1c0.2,9.7,1.6,19.2,3.8,28.6c0.1,0.4,0.6,0.4,0.8,0.1c4.1-6.5,7-13.4,8.8-20.9
	C332.4,853.6,331.7,853.5,331.7,853.8z"/>
<path class="st0" d="M357.5,868.2c0-0.3-0.5-0.3-0.5,0c-3.7,1.9-5.6,1.3-5.9-1.9c-0.2-0.8-0.3-1.6-0.5-2.5c-0.3-1.5-0.5-2.9-0.6-4.4
	c-0.3-4.3,0.3-8.3,3.4-11.4c0.2-0.2-0.1-0.5-0.3-0.3c-4.9,4.8-4.6,13.9-2.4,20c0.7,1.9,1.9,3.8,4.2,3.6
	C356.6,871.1,357.7,869.9,357.5,868.2z"/>
<path class="st0" d="M483.4,814c-1.9,34.1-3.9,68.2-5.8,102.2c-0.1,2-0.2,4-0.3,6c-0.1,2.1,0.7,4.5-1.2,2.1c-2.1-2.8-3.1-6.8-4-10.2
	c-2-7.3-2.7-14.9-3.7-22.3c-2.2-18.1-3.5-36.3-4.1-54.5c0-0.4-0.6-0.3-0.7,0c-1.5,7.5-2.8,15.1-4,22.6c0-0.3,0-0.6-0.1-0.9
	c-0.4-4.2-0.7-14-5.2-16.5c-4.3-2.4-9.9,2.7-12.2,5.8c-0.7,1-1.3,2-1.8,3.1c-0.4-1.3-0.9-2.5-1.6-3.8c-0.2-0.3-0.7-0.5-0.9-0.1
	c-5.5,9.6-10.6,19.5-15.2,29.6c0.7-3.5,0.9-7,0.7-10.7c0-0.5-0.6-0.6-0.9-0.3c-1.9,2.1-10.4,13.7-12.6,12.8c-1.2-0.5-1.9-8.6-2.1-10
	c-0.5-3.4-0.7-6.9-0.8-10.3c0-0.6-0.7-0.5-1-0.1c-3,5.5-6.1,11-9.1,16.4c-0.3,0.5,0.5,0.9,0.8,0.4c1.7-3,3.4-6,5-9
	c0.7-1.3,1.3-3.1,2.3-4.1c0.4-0.4,0.6-0.8,0.8-1c0,0.3,0,0.8,0.2,1.4c0.9,2.8,0.6,6.4,1.1,9.4c0.6,3.2,1.4,6.2,2.3,9.3
	c0.1,0.4,0.7,0.4,0.9,0.1c1.9-2.2,3.9-4.3,5.8-6.5c0.9-1,4.8-6.4,6.1-6.5c2.2-0.1-3.3,17.3-3.8,18.5c-0.3,0.6,0.6,1,0.9,0.4
	c0.4-0.9,0.8-1.8,1.1-2.6c3.2-7.6,6.7-15,10.5-22.3c1-2,2.1-3.9,3.1-5.9c0.9-1.6,1.8-4.5,3.2-5.7c0.2-0.7,0.6-1.1,1.2-1.1
	c0.5,1.1,0.9,2.2,1.2,3.4c-1.3,3.4-1.6,7.1-0.7,10.8c0.1,0.6,0.9,0.6,1.1,0.1c1.2-3.7,1.4-7.2,0.6-10.7c0.2-0.6,0.5-1.3,0.8-1.9
	c2.3-4.4,9.5-12.2,14.7-5.3c2.2,2.9,2.4,9.9,2.7,13.3c0.1,1.3,0.2,2.5,0.2,3.8c-1.1,7.2-2,14.5-2.8,21.8c0,0.3,0.5,0.5,0.6,0.2
	c2-7.1,3-14.4,2.8-21.8c1.2-7.3,2.9-14.6,3.8-21.9c0.5-3.9,0.2-1.1,0.2,0.1c-0.1,2.6,0.2,5.2,0.3,7.8c0.1,3.3,0.3,6.5,0.5,9.8
	c0.5,7.8,1.1,15.6,2,23.4c1.5,14.8,1.9,32.4,10.5,45.1c0.2,0.4,0.8,0.2,0.8-0.2c2-37.7,3.8-75.4,5.7-113.2
	C483.5,813.9,483.4,813.9,483.4,814z M439.7,860.8c-0.2-1.9-0.1-3.8,0.4-5.6C440.2,857.1,440.1,858.9,439.7,860.8z M458.6,873.8
	c-0.2,1.8-0.6,3.7-0.9,5.5c-0.1,0.4-0.2,0.9-0.3,1.3c0-0.2,0-0.4,0.1-0.6c0.5-4.1,1-8.3,1.6-12.4c0-0.3,0.1-0.5,0.1-0.8
	C459.1,869.2,458.9,871.5,458.6,873.8z"/>
<path class="st0" d="M321.5,898c0-0.2-0.3-0.1-0.3,0l1,7c0,0.2,0.3,0.1,0.3-0.1C322.1,902.7,321.8,900.4,321.5,898z"/>
<path class="st0" d="M368.8,912.9c-3.5-11.3-7-22.5-10.6-33.8c-0.1-0.2-0.5-0.1-0.4,0.1c3.4,11.3,6.9,22.6,10.4,33.9
	C368.4,913.5,368.9,913.2,368.8,912.9z"/>
<path class="st0" d="M412.2,889.1v6c0,0.1,0.2,0.1,0.2,0v-6C412.4,888.9,412.2,888.9,412.2,889.1z"/>
<path class="st0" d="M428.1,890c-3.3,7.6-6.7,15.3-10,22.9c-0.1,0.3,0.3,0.5,0.4,0.2c3.3-7.7,6.7-15.4,10-23.1
	C428.6,889.9,428.2,889.8,428.1,890z"/>
<path class="st0" d="M264.5,895.6c-34.3-15.8-63.4-41.4-83.1-73.6c-0.1-0.1-0.3,0-0.2,0.1c19.6,32.3,48.7,58.3,83.2,73.8
	C264.6,896,264.7,895.7,264.5,895.6z"/>
<path class="st0" d="M570.3,756c-19.8,21.6-35.4,46.7-46,74.1c-0.2,0.4,0.5,0.7,0.7,0.2c10.5-27.2,25.9-52.4,45.5-74.1
	C570.6,756.1,570.4,755.8,570.3,756z"/>
<path class="st0" d="M613.7,540.1c-2.5-12.8-5.3-25.5-7.1-38.4c-0.9-6.3-1.7-12.7-2.3-19c-0.3-3.5-0.7-7-0.9-10.5
	c-0.1-0.8-0.6-2.9,0.2-3.3c0.3-0.2,3.5,3.1,3.7,3.3c0.2,0.2,0.4-0.1,0.3-0.2c-1.6-1.6-3.1-3.2-4.6-4.9c-0.3-0.3-0.8,0-0.8,0.4
	c1.2,22.1,4.4,44,9,65.6c4,18.7,7.8,47.4-16,54.6c-0.5,0.1-0.3,0.9,0.2,0.8C616.6,583.2,617,557.2,613.7,540.1z"/>
<path class="st0" d="M151.9,367.8c-11.5,19-17.6,41-16.8,63.3c0,0.4,0.6,0.3,0.6-0.1c-0.3-22.2,5-43.9,16.3-63.1
	C152.1,367.8,152,367.7,151.9,367.8z"/>
<path class="st0" d="M510.6,351c0-0.1-0.3-0.1-0.2,0c5.1,21.5,4.4,43.6-1.6,64.8c-0.1,0.3,0.3,0.4,0.4,0.1
	C515.5,394.8,515.8,372.4,510.6,351z"/>
<path class="st0" d="M364.4,547.6c-1.3-1-3.8-1.4-5.4-1.9c-2.5-0.9-5.1-1.8-7.7-2.5c-0.4-0.1-0.6,0.4-0.2,0.6
	c3.4,1.3,7.6,1.9,10.7,3.7c2,0.1,2.5,1.4,1.5,3.7c-0.8,0.7-1.7,1.3-2.7,1.8c-2.1,1.1-4.5,1.7-6.8,1.6c-4.4-0.2-8.6-3.1-10.1-7.4
	c-2.1-5.9,2.4-12.1,8.6-12.3c0.2,0,0.2-0.4,0-0.4c-12.6,0-12.2,17.2-1.2,20.2c2.8,0.8,5.9,0.5,8.6-0.6c1.6-0.7,5.1-2.2,5.7-4.1
	C365.8,548.8,365.4,548.4,364.4,547.6z"/>
<path class="st0" d="M406.2,609.5c-1,0.3-1.8,1.2-2.7,1.9c7.5-12.6,8.2-28.2,5-42.3c0-0.1,0-0.1,0-0.2c0,0,0,0,0,0
	c-0.2-0.9-0.4-1.8-0.7-2.7c-0.1-0.3-0.6-0.2-0.6,0.1c-0.1,0.9,0,1.5,0.3,2c-0.1,0.5,0.6,2.4,0.8,3.1c0.3,1.7,0.5,3.3,0.7,5
	c0.4,3.4,0.5,6.8,0.4,10.3c-0.3,8.2-2.3,16.5-6.4,23.6c-0.5,0.8-1,1.6-1.5,2.4c-0.1,0-0.3,0-0.4,0.1c-0.2,0.1-0.3,0.2-0.5,0.2
	c-0.1-0.2-0.3-0.2-0.5-0.1c-0.2,0.2-0.5,0.5-0.7,0.7c-1.7,0.8-3.4,1.6-5.1,2.2c1.1-1.9,2.5-3.4,4.4-4.5c0.4-0.2,0.8-0.4,1.1-0.6
	c1.1-0.7,0.5-2.1-0.5-2.3c0-0.1,0-0.2,0-0.3c0,0,0-0.1,0-0.1c0.8-0.6,1.5-1.2,2.2-1.9c0.5-0.5,0.4-1.1,0.2-1.5
	c0.1-0.1,0.2-0.1,0.3-0.2c1.6-1,0-3.5-1.6-2.5c-2,1-4,1.9-6.1,2.8c-1,0.3-2.1,0.6-3.1,1c2.1-2,4.1-3.9,6.4-5.7
	c0.2-0.2,0.1-0.6-0.2-0.6c-3.1,0.6-6,1.9-8.6,3.6c0-0.6-0.4-1.1-1.1-0.9c-0.6,0.3-1,0.1-1.4-0.1c0.4-1-0.2-2.7-1.6-2.3
	c-1.4,0.4-0.9,2.1-0.3,3c0.4,0.6,1,1,1.7,1.2c0,0.1-0.1,0.1-0.1,0.2c-0.2-0.2-0.5-0.3-0.8-0.2c-4.6,0.7-9.8,3.3-12.1,7.5
	c-0.4,0.7,0.5,1.7,1.2,1c2.6-2.8,5.1-5,8.5-6.2c-3.3,3.5-6.5,7-9.7,10.5c-0.3,0.4,0.2,0.9,0.5,0.6c2.2-2.1,4.4-4.3,6.7-6.4
	c-0.1,1,0.7,2.2,1.9,1.9c2.9-0.8,5.8-1.7,8.6-2.8c-0.4,0.3-0.7,0.5-1.1,0.8c-1,0.8-0.6,2.2,0.7,2.3c1,0.1,1.9,0.1,2.8,0
	c-1,1.3-1.8,2.8-2.4,4.4c-0.3,0.9,0.6,1.7,1.5,1.6c2.2-0.5,4.4-1.2,6.3-2.4c-6.8,8-16.6,13.3-27.3,13.7c-0.6,0-0.5,0.9,0,0.9
	c12.1-0.2,22.8-6.6,29.9-16.1c0.7-0.3,1.3-0.6,1.9-0.9c1.4-0.8,3.4-2.1,3.8-3.7C407.1,609.8,406.7,609.3,406.2,609.5z M386.2,607.2
	c-0.3,0.1-0.6,0.2-0.9,0.3c1.2-1.3,2.4-2.4,3.8-3.4C388.4,605.5,387.4,606.5,386.2,607.2z M390.1,605.8c0.4-0.6,0.8-1.3,1-2
	c0.1-0.3,0-0.6-0.2-0.8c1.7-1,3.4-1.9,5.3-2.7c-1.7,1.8-3.4,3.5-5.2,5.2C390.7,605.6,390.4,605.7,390.1,605.8z"/>
<path class="st0" d="M193.2,851.1c0-0.1-0.3-0.1-0.2,0c7.3,30.6,7.9,62,2.5,93c0,0.2,0.3,0.4,0.4,0.1
	C201.7,913.4,200.6,881.5,193.2,851.1z"/>
<path class="st0" d="M573.7,872.8C551.1,841.6,557,802,569.3,768c0.1-0.1-0.2-0.2-0.2-0.1c-12.5,33.6-19.5,74.7,4.1,105.3
	C573.5,873.5,573.9,873.1,573.7,872.8z"/>
<path class="st0" d="M389.3,926c-5.8-6.2-12.9-11.2-21.4-6.8c-4,2-7.2,5.4-10.2,8.7c-2.5,2.8-9.7,15.4-13.8,14.3
	c-0.1,0-0.2,0.2-0.1,0.2c2,0.6,3.4-0.2,4.8-1.7c3.3-3.6,5.7-8.1,9-11.8c3.9-4.4,8.8-9.6,15-10.6c6.7-1.1,11.8,3.8,16.3,8.1
	C389.2,926.7,389.6,926.2,389.3,926z"/>
<path class="st0" d="M203.6,257.4c-19.1-3.8-34.2,10.8-46.5,23.4c-0.5,0.5,0.2,1.3,0.7,0.8c12.5-12.4,26.7-25.3,45.6-23
	C204.1,258.7,204.3,257.6,203.6,257.4z"/>
<path class="st0" d="M248.3,258.1c-11.3-4.5-22.3,0.6-30.8,8.2c-4.3,0.6-8.5,2.1-12.4,4.5c-3.2,2-10.3,6.7-9.1,11.2
	c0.1,0.2,0.4,0.4,0.6,0.4c0.3,0,0.5,0,0.8,0c0.4,0,0.6-0.6,0.3-0.8c-2.1-2,10.5-9.9,12-10.6c1.7-0.8,3.4-1.4,5.2-1.9
	c0.1,0.3,0.5,0.6,0.8,0.3c0.3-0.2,0.5-0.5,0.8-0.7c2.6-0.6,5.2-0.9,7.8-0.8c1.2,0,1.4-1.9,0.1-1.9c-1.5-0.1-3.1-0.1-4.6,0.1
	c7.7-5.6,17.5-9.1,26.6-5.2c4.7,2,9,5.7,10.5,10.7c1.8,6.1-0.2,12.6-2.3,18.4c-0.3,0.9,1.1,1.5,1.5,0.6
	C262.4,278.8,262.3,263.7,248.3,258.1z"/>
<path class="st0" d="M446.8,266.6c-14.6-17.7-41.9-15.4-55.3,2.5c-0.3,0.5,0.3,1.1,0.7,0.6c13.8-17.3,38.3-17.3,53.7-2.2
	C446.5,268.1,447.3,267.2,446.8,266.6z"/>
<path class="st0" d="M509.9,283c-6.1-7-15.1-11.2-24.2-12.9c-15.9-8.5-35.6-5.6-49.5,5.7c-0.5,0.4,0.1,1.2,0.6,0.8
	c14.5-10.9,34.1-11.3,50.2-3.6c0.8,0.4,1.4-0.5,1.3-1.2c6.5,1.9,12.5,5.2,17.5,9.9c3.6,3.4,6.7,7.8,6,13c-0.6,4.4-3.8,8-6.2,11.6
	c-0.5,0.7,0.5,1.6,1.2,1C514.1,300.4,517.2,291.4,509.9,283z"/>
<path class="st0" d="M531.7,314.1c0.1-0.8-0.9-1-1.3-0.5c-1.1-7.3-4.5-14.3-9.9-19.8c-0.4-0.4-0.9,0.2-0.6,0.6
	c5.8,6.2,9,14.1,9.4,22.2c-5.8,15.6-24.2,20.4-38.6,12.6c-0.9-0.5-2.2,0.7-1.3,1.5c7,6.1,16.8,7.9,25.6,4.5
	c6.5-2.5,11.4-7.6,14.3-13.7c-0.4,4.5-1.6,9-3.7,13.3c-0.3,0.6,0.7,1.1,1,0.5c3-5.5,4.3-11.5,4.1-17.5
	C531.2,316.6,531.5,315.4,531.7,314.1z"/>
<path class="st0" d="M460.3,275.8c-0.6,0.2-0.3,1.1,0.3,0.9c14.6-5,28.5,8,24.6,23c-0.3,1,1.3,1.4,1.6,0.4
	C491.7,283.9,476.1,269.5,460.3,275.8z"/>
<path class="st0" d="M555.5,332c-0.2-0.6-1.3-0.2-1.1,0.4c2.4,7.2,5.5,17.7-2,23c-8.7,6.2-18.2-0.9-23.3-8c-0.7-0.9-2.2,0.1-1.6,1.1
	c4.5,8.6,14.4,15.5,24.3,10.7C562.4,354,558.8,340.8,555.5,332z"/>
<path class="st0" d="M185.6,293c-0.5-1.3-1-2.5-1.4-3.8c-0.2-0.7-1.2-0.9-1.5-0.2c-8.4,16.4-20.7,27.4-38.3,33.1
	c-0.9,0.3-0.7,1.7,0.3,1.5c16.7-3.5,32.5-16.3,38.9-32.3c0.4,0.7,0.8,1.4,1.2,2C185.1,293.8,185.8,293.5,185.6,293z"/>
<path class="st0" d="M214.5,308c-5.7,3.4-11.9,7.2-18.7,7.6c-7.4,0.4-13.7-3.6-15.2-10.9c-0.1-0.5-0.9-0.3-0.9,0.1
	c0,6.7,5,11.7,11.5,13c9.1,1.8,17.2-3.4,24.4-8.3C216.7,308.8,215.5,307.4,214.5,308z"/>
<path class="st0" d="M380.2,264.2c0-0.6-0.6-1.3-1.2-1c-17.5,6.3-19.4,31.2-3.2,40.1c1.2,0.6,2.1-1.1,1.2-1.9
	c-11.8-10-11.1-26.6,1.2-35.3c-0.1,0.9-0.1,1.8-0.2,2.7c-0.3,0.5,0.5,0.9,0.8,0.5C379.9,267.7,380.3,266.3,380.2,264.2z"/>
<path class="st0" d="M518.4,325.7c-11.4,0-23.2-1.6-34.1-5.1c-1.6-0.5-3.1-1.1-4.6-1.7c7.7-6.6,15.4-13.2,23-19.9
	c0.4-0.3-0.1-0.9-0.5-0.6c-7.8,6.6-15.5,13.4-23.1,20.2c-4.7-2.1-8.9-5-11.8-9.4c-1.8-2.7-5-9.9-0.7-12.2c0.3-0.2,0.2-0.7-0.2-0.7
	c-5.8,0.9-4.7,8.2-3.2,12.2c2,5.2,5.8,9.2,10.4,12.1c0.6,0.4,1.2,0.7,1.9,1.1c-2.6,2.3-5.1,4.5-7.7,6.8c-0.2,0.1,0.1,0.4,0.2,0.2
	c2.7-2.2,5.3-4.5,8-6.8c12.7,7,28.8,8.3,42.8,6.5C520.3,328.4,520,325.7,518.4,325.7z"/>
<path class="st0" d="M281.8,277.4c-11.5-7.2-22.1-15.8-32.2-24.8c-0.6-0.5-1.6,0.4-1,1c9.6,9.9,20.6,17.8,32.3,24.9
	C281.7,279,282.6,277.9,281.8,277.4z"/>
<path class="st0" d="M167.4,329.3c-13.6,0.1-26.8-0.6-39.8-5c-0.9-0.3-1.4,1-0.5,1.4c12.9,4.8,26.8,7.8,40.5,6
	C169,331.5,168.8,329.3,167.4,329.3z"/>
<path class="st0" d="M168.2,259.2c0.2-0.2,0.1-0.7-0.3-0.6c-17.6,5.5-34,14.1-48.6,25.2c-0.7-0.7-1.3-2.1-1.7-3.9
	c0.1,0,0-0.2-0.1-0.1c-1.8,0.9-1.8,3.2-0.2,4.5c2.1,1.7,6.3,0.6,9.8-0.6c3-0.5,6-1.2,9-2c2.7-0.7,5.5-1.4,8.2-2.3
	c2.2-0.8-0.4,0.1-1,0.5c-1.5,0.7-2.9,1.7-4.3,2.5c-2.2,1.3-4.5,2.6-6.7,4c-2.9-0.3-5.8-0.4-8.8-0.1c-13.7,1.3-26.8,9-32.7,21.6
	c-0.5,1,0.9,1.8,1.5,0.8c6.8-11.4,19.1-18.5,32.2-19.4c1-0.1,2-0.1,3-0.1c-7.3,4.3-14.7,8.7-22,13c-0.2,0.1-0.3,0.4-0.1,0.6
	c2.4,2.8,6.3,0.6,9.1-0.6l8.6-3.6c-5.3,3.2-10.2,6.8-14.8,11.1c-0.3,0.3,0.1,0.8,0.4,0.7c0.6-0.1,1.2-0.3,1.8-0.4
	c-4.7,3.3-9.1,7.3-9.6,13.3c0,0.2,0.2,0.4,0.4,0.4c2.5-0.1,5-0.7,7.4-1.6c-4.6,9.2-7.2,19.1-7.6,29.3c-7.9,3.5-18.7,4-23.2-3.4
	c0.1,0.1,0.2,0.1,0.3,0.2c0.4,0.2,0.8-0.4,0.4-0.7c-0.6-0.3-1.1-0.7-1.6-1.1c-0.4-1-0.8-2.2-1-3.4c-0.1-0.7-1.3-0.5-1.2,0.2
	c0,0.4,0.1,0.8,0.2,1.2c-4.1-5.2-3.8-12.7-3.2-19.2c0-0.4-0.5-0.5-0.6-0.1c-0.9,7.3-1.4,16.1,4.3,21.2c2.5,7.2,11.4,10.5,18.7,9.4
	c2.3-0.3,4.6-1,6.8-1.8c0,0.8,0,1.7,0,2.5c-0.4,0.1-0.8,0.3-1.2,0.4c-1,0.4-0.9,2.2,0.3,2.1c0.3,0,0.7-0.1,1-0.2
	c0.1,1.1,0.2,2.2,0.3,3.3c0.1,0.6,1,0.5,1-0.1c-0.1-1.1-0.2-2.2-0.2-3.4c10-1.8,19.4-6.6,27.8-12.3c2.8-1.9,16.7-10.5,10.4-15.2
	c-0.4-0.3-1.1,0.3-0.7,0.7c4.1,4.6-15,14.6-17.7,16c-6.4,3.4-13.1,5.7-19.9,8.2c0-0.9,0-1.7,0-2.6c8.9-3.7,17.2-10.9,22.9-17.8
	c0.5-0.6-0.4-1.6-1.1-1c-6.6,5.9-13.4,11.9-21.3,16c-0.1,0.1-0.3,0.1-0.4,0.2c0.5-10.1,3-20.1,7.6-29.2c4-1.6,7.9-3.7,11.7-5.5
	c1.8-0.8,3.6-1.7,5.3-2.5c1.1-0.5,3.3-1.2,5-1.9c-0.7,0.5-1.2,0.9-1.2,0.9c-1.8,1.5-3.6,2.9-5.4,4.4c-3.4,2.7-6.8,5.4-10.1,8.1
	c-1.9,1.5-4,3.2-5,5.5c-1.5,3.4,0,7.6,4,7.9c0.4,0,0.5-0.5,0.1-0.6c-4-0.4-3.9-5.5-2.7-8.2c0.6-1.3,2.4-2.6,3.5-3.5
	c2.2-1.9,4.5-3.6,6.8-5.5c4.7-3.7,9.3-7.5,14-11.2c0.4-0.3-0.1-0.8-0.5-0.6c-8.3,3.9-16.5,8.1-24.9,11.7c0.3-0.6,0.6-1.1,0.9-1.7
	c0.3-0.5-0.4-0.9-0.7-0.4c-0.5,0.9-1,1.8-1.4,2.6c0,0,0,0,0,0c-2.7,1.1-9.2,2.8-6.1-2.7c1.1-2,2.9-3.7,4.6-5.2
	c1.6-1.3,3.3-2.6,5-3.7c11.4-3,21.7-8.5,30.6-16.3c0.3-0.3-0.1-0.9-0.5-0.7c-9.9,4.1-19.5,9-28.5,14.9c-0.8,0.5-1.5,1-2.3,1.5
	c-1.1,0.3-2.1,0.5-2.1,0.4c-0.1-0.1,3.6-3,3.9-3.3c3.5-2.8,7.2-5.3,11.1-7.6c1.9-1.1,3.9-2.2,6-3.1c0.7-0.4,3-0.9,3.8-1.7
	c0.7-0.3,1.5-0.6,2.2-0.9c0.5-0.2,0.3-1-0.2-0.8c-0.6,0.2-1.2,0.5-1.8,0.8c-0.8-0.5-13.2,5.7-14.6,6.3c-1.9,0.8-12.4,6.5-12.9,3.1
	c-0.1-1,12.4-7.3,13.8-8.1c2.6-1.5,5.1-3,7.7-4.5c13.6,0.4,26.7,6.7,36.9,15.6c0.4,0.4,1-0.3,0.6-0.7c-9-9-20.4-15.9-32.9-17.6
	c4.5-2.7,9-5.3,13.5-8c0.4-0.2,0.1-0.9-0.3-0.8c-5,1.5-9.9,2.9-15,4.1c0.1,0,0.3-0.1,0.4-0.1C145.7,276.8,157.9,269.1,168.2,259.2z
	 M118.9,305.4c4.2-2.6,8.5-4.9,12.8-7.1c2.2-1.1,4.3-2.1,6.5-3.1c1.1-0.5,2.2-1,3.4-1.4c-0.9,0.4-1.7,0.9-2.4,1.6
	c-7.2,5-14.3,9.3-22.8,12c-0.2,0-0.7,0.2-1.3,0.4C116.3,307,117.6,306.2,118.9,305.4z M128.4,282.6c-2.3,0.6-6.5,1.8-7.5,1
	c0.1,0.1,5.5-4,6.3-4.5c9-6.1,18.6-11.3,28.7-15.4c2.7-1.1,5.9-2.8,8.8-3.3c0.1,0,1.8-0.6,1.8-0.6c0,0.4-2.5,2.4-3,2.8
	c-3.9,3.4-8,6.6-12.4,9.3c-4.1,2.6-8.5,5-13,7C135,280.3,131.7,281.5,128.4,282.6z"/>
<path class="st0" d="M116.9,602c-0.1-0.7-1.1-0.5-1,0.1c0.6,9.7,0.8,19.4,1.9,29.1c0.1,0.7,1.2,0.6,1.2-0.1
	C118.8,621.4,117.7,611.6,116.9,602z"/>
<path class="st0" d="M129.7,602c-0.3,3.3-0.7,6.6-1,9.9c-0.1,0.8,1.2,1.1,1.3,0.3c0.3-3.4,0.6-6.8,1-10.1
	C131,601.2,129.8,601.3,129.7,602z"/>
<path class="st0" d="M143.8,611c-0.3,4.3-0.7,8.7-1,13c-0.1,0.7,1.1,0.8,1.1,0.1c0.3-4.3,0.6-8.7,1-13
	C144.9,610.4,143.9,610.3,143.8,611z"/>
<path class="st0" d="M164.6,586.8c-4.1,12.9-7.3,25.7-8.1,39.3c-0.1,1.1,1.8,1.5,2,0.3c2.5-13.1,4.4-26.3,7.5-39.2
	C166.2,586.3,164.9,586,164.6,586.8z"/>
<path class="st0" d="M558.7,575c-0.1-0.5-0.9-0.3-0.8,0.2c1.5,8.4,3,16.7,4.8,25c0.2,0.7,1.2,0.5,1.1-0.2
	C562.4,591.6,560.5,583.3,558.7,575z"/>
<path class="st0" d="M537.9,544.9c-3.8,15.2-4.6,30.9-1.2,46.3c0.2,0.7,1.2,0.5,1.1-0.2c-2.4-15.3-2.3-30.7,1.1-45.8
	C539.1,544.5,538.1,544.3,537.9,544.9z"/>
<path class="st0" d="M503.9,558c-6,15.1-8.1,32.8-2.8,48.4c0.4,1.1,1.8,0.6,1.6-0.5c-3.1-16.4-3.6-31.7,2.3-47.6
	C505.4,557.6,504.2,557.2,503.9,558z"/>
<path class="st0" d="M439.3,398c-0.1,0-0.1,0.2,0,0.2C439.4,398.1,439.4,398,439.3,398z"/>
<path class="st0" d="M434.1,436c-0.7,2-1.3,4-2,6c-0.1,0.3,0.3,0.4,0.4,0.1c0.7-2,1.3-4,2-6C434.6,435.9,434.2,435.8,434.1,436z"/>
<path class="st0" d="M504,467.9c-15.4,2.2-30.8,3.5-46.4,2.9c-0.3-1-0.5-2-0.8-3c-0.2-0.6-1-0.3-0.9,0.3c0.3,1.3,0.6,2.6,0.9,3.9
	c0.2,0.7,1.2,0.5,1-0.1l0,0c15.5,0.7,31-0.1,46.3-3.1C504.6,468.7,504.5,467.9,504,467.9z"/>
<path class="st0" d="M288.7,382c-0.1-0.6-1-0.5-0.9,0.1c1.9,18.3,2.4,36.7,1.5,55.1c-0.9,17.8-3.7,35.2-6.6,52.7
	c-0.1,0.8,1.1,1.1,1.3,0.3C293.2,455.4,293.5,417.5,288.7,382z"/>
<path class="st0" d="M307.9,395c-0.1-0.7-1.1-0.5-1,0.1c2.5,21.8,0.4,43.6-5.5,64.7c-0.3,1.1,1.4,1.4,1.7,0.3
	C309.5,439,310.9,416.9,307.9,395z"/>
<path class="st0" d="M332.2,444c-0.9,36.7-5.2,72.8-11.2,108.9c-0.1,0.9,1.3,1.2,1.5,0.3c7.9-35.7,10.8-72.7,10.7-109.2
	C333.2,443.4,332.2,443.4,332.2,444z"/>
<path class="st0" d="M279.9,541.9c-3.7,11.6-7.6,23.2-11,35c-0.2,0.6,0.7,1,0.9,0.4c3.8-11.6,7.3-23.4,10.8-35.1
	C280.8,541.7,280.1,541.4,279.9,541.9z"/>
<path class="st0" d="M387.6,744.6c-8.8-2-17.7-2.1-26.4-5c-1.3-0.4-6.5-1.6-7.1-2.9c0.5-1.4,0.9-2.9,1.4-4.3
	c1.6-0.7,3.2-0.9,4.9-0.7c3.8,0.3,7.1,2.5,10.5,4c0.5,0.2,0.9-0.4,0.5-0.8c-0.1-0.1-0.3-0.3-0.4-0.4c5.8-2.4,6.3-7.8,5.5-13.2
	c0.6,0,1.1,0.1,1.7,0.1c1,0,1.5-1.6,0.4-1.9c-0.8-0.2-1.7-0.5-2.6-0.7c-0.1-0.6-0.2-1.2-0.4-1.7c-0.6-2.8-1.4-5.6-2.3-8.4
	c-0.6-1.9-1.2-3.8-1.8-5.7c-0.2-0.6-0.4-1.3-0.6-1.9c-0.3-0.7-0.8-0.7-1-0.9c0.2,0.3,0.7,0,0.6-0.3c-0.1-0.2-0.1-0.3-0.3-0.4
	c-0.2-0.2-0.5-0.2-0.6,0.1c-0.1,0.2-0.2,0.5-0.3,0.7c-0.7-1.3-1.6-2.5-2.7-3.6c-0.3-0.3-0.7-0.3-1-0.1c-1.4-2.9-3-5.8-5-8.2
	c-0.2-0.2-0.5-0.1-0.5,0.2c1.6,7.3,6,14.5,9.1,21.3c0.5,1.1,1.9,0.3,2-0.6c0,0,0,0,0-0.1c0.3,0.8,0.5,1.4,0.7,1.9
	c0.6,2.3,1.4,4.7,1.9,7.1c-4.9-1.2-9.8-2.3-14.4-4.3c-2.4-1.1-4.8-2.4-6.8-4.2c-2.3-2.1-3.7-4.9-5.9-7c-1.7-1.6-3.5-2-5.1-1.5
	c0.2-0.2,0.2-0.6-0.1-0.8c-0.6-0.9-1.2-1.9-1.7-2.8c0-1.2-1.9-1.8-2.4-0.6c-1.4,3.2-2,6.7-2.1,10.1c-3.1,4.1-5.7,8.7-8.6,12.7
	c-0.4,0.6,0.5,1.2,1,0.6c1.9-2.4,3.9-4.8,5.8-7.2c0.5-0.7,1.2-1.7,2-2.8c0.4,3.4,1.3,6.8,2.7,9.9c0.7,1.5,3.1,0.9,3.1-0.7
	c0.1-4,0.1-8,0.1-12.1c0.2-1.5-2.1-1.8-2.3-0.3c-0.1,1.1-0.2,2.3-0.3,3.4c-0.2-1.4-0.2-2.8-0.2-4.2c0.3-0.3,0.6-0.5,0.9-0.6
	c2-0.1,4-0.2,6-0.3c0.3,0.5,0.7,1,1,1.5c0.8,0.9,1.3,2,2.1,2.9c1,1.2,2.1,2.3,3.3,3.3c6.2,5.1,14.5,7.3,22.4,8
	c0.6,4.7-0.2,9.1-4.6,12.2c-3.8-3.4-8.7-5.9-13.9-4.5c-3.4,0.9-7.5,4.1-5.8,8.1c2.1,4.8,11.9,6.3,16.2,7.3c2.1,0.5,4.3,1,6.5,1.4
	c0,0.1,0,0.1,0,0.2c0.2,4.7-1.5,8.9-5.1,11.8c-2.2-2.6-3.6-5.6-4.2-9c-0.1-0.7-1.1-0.5-1,0.1c0.5,4,2,7.5,4.6,10.5
	c0.2,0.2,0.7,0.4,0.9,0.2c4.4-2.9,7.1-8.4,5.9-13.7c4.6,0.8,9.3,1.1,13.7,0.3C388.5,746.1,388.3,744.8,387.6,744.6z M339,702.9
	c0.1-0.7,0.2-1.4,0.3-2.2c0.5,0.3,1.2,0.5,1.9,0.6C340.5,701.7,339.8,702.2,339,702.9z"/>
<path class="st0" d="M324.1,740.2c-2.3-2.2-4.6-3-7.7-2.8c-1.1,0.1-1.1,1.5,0,1.6c1.7,0.2,3.1,0.8,4.4,1.7c-2.4,0.8-4.8,1.4-7.3,1.6
	c-2.9,0.2-12.5-0.6-9.9-5.8c0.8,0.7,1.7,1.3,2.5,2c0.5,0.4,1.2-0.4,0.7-0.9c-0.9-1.1-1.9-2.2-2.8-3.4c-0.4-0.4-1.1-0.4-1.5,0
	c-3,2.8-1.5,7.3,1.8,9.2c5.6,3.2,13.8,1.5,19.3-1.1C324.5,741.9,324.8,740.9,324.1,740.2z"/>
<path class="st0" d="M327.3,714.5c-6.2,0.1-12.4,0.9-18.4,2.4c-1.9-4.8-1.8-11.6-4.3-15.4c-0.2-0.3-0.6-0.1-0.6,0.2
	c0.5,3.7,0.7,10.6,2.6,15.7c-6.8,1.9-13.4,4.6-19.6,8.1c-11.4,6.4-23.6,15.7-28.9,28c-0.2,0.5,0.5,0.9,0.8,0.4
	c11-17,30-27.3,49.6-32.9c1.7,2.3,4.2,3.5,7.9,2.7c0.8-0.2,0.4-1.3-0.3-1.3c-2.3-0.1-4-0.8-5.2-2c5.5-1.5,11.1-2.6,16.5-3.4
	C329,716.7,328.7,714.4,327.3,714.5z"/>
<path class="st0" d="M85.5,372.1c-0.2-0.7-1.3-0.5-1.1,0.2c9.2,33.1,12.1,66.6,11.9,100.8c0,0.8,1.2,0.8,1.2,0
	C100.4,439.2,95.1,404.5,85.5,372.1z"/>
<path class="st0" d="M79,430c-1.1,17-2.5,34-3.1,51c0,0.5,0.7,0.5,0.8,0c1.4-17,2.1-34,3.1-51C79.8,429.6,79,429.5,79,430z"/>
<path class="st0" d="M520.1,149.8c-1.4,0.2-3.8,0.2-4.9,0.8c-0.8,0.5-1,1.1-1.4,2c-1.2,2.5-2.5,4.9-3.7,7.3
	c-0.2,0.4,0.3,0.8,0.6,0.4c1.8-2.6,3.7-5.1,5.4-7.7c0.9-0.1,1.9-0.3,2.8-0.4c-0.3,2.9-0.6,5.9-0.9,8.8c-0.1,1.3,1.9,1.3,2.1,0
	c0.4-3.3,0.8-6.6,1.2-9.9C521.4,150.5,520.9,149.7,520.1,149.8z"/>
<path class="st0" d="M47.4,415.9c-0.6-0.4-1.2,0.4-0.6,0.9c1.3,1.1,1.1,3.2,0,4.3c-0.4-0.7-0.7-1.4-1.1-2.2
	c-0.2-0.4-0.8-0.1-0.7,0.3c0.4,0.9,0.8,1.9,1.1,2.8c0.1,0.2,0.4,0.4,0.7,0.3C49.3,421.1,49.7,417.6,47.4,415.9z"/>
<path class="st0" d="M33.6,362c-0.3-1-0.6-2-1-3c-0.1-0.4-0.7-0.1-0.6,0.2c0.3,1,0.7,2,1,3C33.2,362.5,33.7,362.3,33.6,362z"/>
<path class="st0" d="M39.6,331.8c-0.2-0.3-0.7,0-0.5,0.3c0.9,1.6,1.1,3.5,0.8,5.3c-1-0.1-1.8-0.6-2.2-1.5c-0.1-0.2-0.5-0.1-0.4,0.2
	c0.5,1.3,1.5,2.1,2.9,2.2c0.2,0,0.3-0.1,0.4-0.3C41.2,335.8,40.8,333.7,39.6,331.8z"/>
<path class="st0" d="M49.3,183.8c-0.4,0-0.3,0.6,0.1,0.6C49.7,184.3,49.7,183.8,49.3,183.8z"/>
<path class="st0" d="M91.6,144.9c-1-2.3-2-4.6-3-7c-0.1-0.3-0.7-0.1-0.5,0.2c1,2.3,2,4.7,3,7C91.2,145.6,91.8,145.3,91.6,144.9z"/>
<path class="st0" d="M117.5,211.9c-0.7-0.6-1.3-1.1-2-1.7c-0.1-0.1-0.2-0.1-0.2,0c-2.4,1.8-4.8,3.7-7.2,5.6
	c-0.2,0.1,0.1,0.5,0.3,0.3c1.5-1.1,3-2.3,4.4-3.4c0.6-0.5,1.5-1.6,2.2-1.8c1-0.3,1.7,0.6,2.4,1.1C117.4,212.1,117.5,212,117.5,211.9
	z"/>
<path class="st0" d="M226.4,117.2c-37.3,7.9-74.7,16.1-111.2,27.3c11-6.1,22.3-11.8,33.7-17.2c0.7-0.3,0.2-1.4-0.5-1
	c-13.6,6.2-27,13-40,20.4c-8.7,2.8-17.3,5.7-25.9,8.9c0-0.1,0.1-0.3,0.1-0.4c0.1-0.4-0.5-0.5-0.6-0.1c0,0.3-0.1,0.5-0.2,0.8
	c-0.1,0-0.2,0.1-0.3,0.1c0.9-3.9,2-7.8,3.2-11.7c0.1-0.4-0.5-0.6-0.6-0.2c-1.6,4-2.9,8.1-3.7,12.3c-19.1,7.1-37.9,15.3-56,25
	c-0.3-0.9-0.6-1.9-0.9-2.8c8.7-5.7,19.2-9.3,29.2-12.7c0.5-0.2,0.3-1-0.2-0.8c-9.5,2.7-20.5,6.3-29.5,12c-0.3-1-0.6-1.9-0.9-2.9
	c-0.1-0.4-0.7-0.1-0.5,0.2c0.3,1,0.6,2,0.9,3c-8.7,5.6-15.6,13.3-17.7,24.1c-0.1,0.3,0.5,0.5,0.6,0.2c3.2-10.3,9.7-17.4,17.7-22.7
	c0.3,0.9,0.6,1.8,0.9,2.8c-1.9,1-3.9,2.1-5.8,3.1c-0.4,0.2-0.1,0.9,0.3,0.6c1.9-1,3.8-2.1,5.7-3.1c1.9,6.3,3.9,12.5,5.8,18.8
	c-5.1,4.3-10.2,8.7-15.2,13.3c-0.3,0.2,0.1,0.7,0.3,0.5c5-4.3,10-8.6,15.1-12.7c2,6.5,4,13,6.1,19.5c-1.7-1-3.2-2.2-4.5-3.8
	c-0.3-0.4-0.9,0.1-0.6,0.5c1.4,1.9,3.1,3.4,5.1,4.5c0.1,0.1,0.3,0.1,0.4,0c2.1,6.6,4.1,13.2,6.2,19.8c-1,1.5-2,3-3,4.4
	c-9.1-10.4-17.7-21.1-26-32.2c-0.3-0.4-0.8,0.1-0.5,0.5c8.2,11.2,16.9,22.1,26,32.5c-4.7,7.4-8.9,15.1-12.4,23.2
	c-0.3,0.6,0.6,1,0.9,0.4c3.6-7.8,7.8-15.3,12.5-22.5c2.3,2.6,4.6,5.2,7,7.7c0.1,0.3,0.2,0.5,0.2,0.8c-11.7,8-22.8,17-32.8,27.1
	c-0.8,0.8,0.4,1.9,1.2,1.2c10.3-9.3,21.1-18,32.4-25.9c0.1,0.2,0.1,0.4,0.2,0.6c0.2,0.7,1.4,0.5,1.1-0.2c-0.1-0.3-0.2-0.7-0.3-1
	c0.1-0.1,0.2-0.1,0.2-0.2c0.2,0,0.3-0.1,0.4-0.3c5.7-4,11.6-7.7,17.5-11.3c-2.3,3.9-4.9,7.6-7.7,11.2c-0.5,0.6,0.3,1.5,0.9,0.9
	c4-4.1,7.2-8.9,10-14c10.8-6.2,22-11.8,33.7-16.5c0.7-0.3,0.2-1.3-0.5-1c-11.5,4.4-22.7,9.6-33.5,15.5c-0.1,0-0.2,0-0.3,0
	c-5.4,0.4-10.8,0.8-16.2,1.4c4.5-4.4,9.3-8.6,14.4-12.3c0.6-0.4,0.1-1.5-0.6-1.3c-4.1,1-8.2,1.5-12.4,1.5c2-3.8,5.2-6,9.3-7.2
	c0.4-0.1,0.4-0.9-0.1-0.8c-5.1,0.6-8.9,3.7-10.9,8.3c-0.2,0.5,0.2,1,0.7,1c3.5,0.1,6.9-0.1,10.4-0.7c-5,3.7-9.8,7.7-14.3,12.1
	c-0.6,0.6-0.2,1.9,0.8,1.8c5.1-0.4,10.1-0.9,15.2-1.4c-6,3.4-11.9,7.1-17.6,11c-1.4-4.6-2.9-9.1-4.3-13.7c6.5-9,13.8-17.5,21.8-25.3
	c0.7-0.6-0.4-1.5-1.1-0.9c-7.9,7.4-15,15.6-21.3,24.4c-2.1-6.6-4.2-13.1-6.3-19.7c0.3-0.7,0.5-1.5,0.4-2.4c-0.1-0.6-0.9-0.6-0.9,0
	c0,0.2,0,0.5,0,0.7c-2-6.1-4-12.3-5.9-18.4c9.8-7.9,19.8-15.5,30.1-22.8c-2,3.4-3.9,6.9-5.7,10.4c-0.2,0.4,0.4,0.6,0.6,0.2
	c2.1-4,4.3-8,6.7-11.8c2.3-1.6,4.6-3.2,6.9-4.8c-1.9,2.8-3.8,5.5-5.5,8.3c-3.5,5.7-6.9,11.4-10.1,17.2c-1.3,2.4-4.4,6.3-2.2,9.1
	c1.6,2,4.7,1.4,6.8,0.6c4-1.6,7.8-4.5,11.3-7.2c0.2,0.5,0.4,0.9,0.6,1.4c-5.1,2.6-9.8,5.9-12.7,10.5c-0.4,0.6,0.5,1.3,1,0.8
	c3.4-4.1,7.7-7.3,12.3-9.9c1.1,2.1,2.5,4.1,4.2,5.8c0.5,0.5,1.5,0.1,1.5-0.6c0.1-2.4-0.4-4.1-2-5.8c-0.5-0.5-1.2,0.1-0.8,0.7
	c0.1,0.4,0.2,0.9,0.3,1.3c-0.5-0.8-1-1.6-1.4-2.3c0.5-0.3,1.1-0.5,1.6-0.8c0.3,0.6,0.7,1.2,1,1.7c0.5,0.8,1.8,0.3,1.4-0.6
	c-0.3-0.6-0.6-1.2-0.9-1.8c4.5-2.1,9.2-4,13.7-5.9c10.2-4.3,20.5-8,31-11.4c0.5-0.2,0.3-0.9-0.2-0.8c-12.4,3.8-24.7,8.2-36.7,13.3
	c-2.6,1.1-5.5,2.2-8.4,3.5c-0.4-0.8-0.7-1.7-1-2.5c4.8-3.7,9.3-7.6,13.6-11.8c0.6-0.6-0.3-1.4-0.9-0.9c-4.3,3.8-8.7,7.5-13.3,11
	c-0.1-0.2-0.2-0.5-0.3-0.7c-0.4-1.1-1.2-2.7-1.1-3.9c0.1-1.8,1.5-1.4,3.2-1.6c0.3,0,0.4-0.6,0-0.6c-1.4-0.1-2.7-0.2-4.1-0.2
	c-0.3,0-0.7,0.3-0.6,0.6c0.3,1.6,0.7,3.2,1.1,4.8c-0.7-1.4-1.4-2.8-2.1-4.2c-0.4-0.8-1.5-0.3-1.6,0.4c-0.1,2.9,0.2,5.8,1,8.5
	c-0.2,0.2-0.5,0.3-0.7,0.5c-3,2.1-6,4.3-9.1,6.1c-1.3,0.8-2.7,1.3-4.1,1.4l-1.7-4.5c0-1.5,2.4-4.4,3.1-5.8
	c4.1-7.5,8.5-14.9,13.1-22.1c0.7-1.1,1.6-2.3,2.4-3.5c8.8-5.9,17.7-11.6,26.7-17c3.6-1.1,7.3-2.2,10.9-3.2c0.6-0.2,0.3-1.2-0.3-1
	c-2.2,0.6-4.4,1.2-6.6,1.8c1.9-1.1,3.9-2.2,5.8-3.3c38.8-12,78.8-20.6,118.3-29.4C228,118.6,227.5,117,226.4,117.2z M46.6,254.7
	c-2-2.2-4-4.4-5.9-6.6c0.8-1.3,1.7-2.5,2.6-3.8C44.4,247.7,45.5,251.2,46.6,254.7z M72.3,198.6c0,0,0.1-0.1,0.1-0.1
	c0.4,0.6,0.7,1.3,1.1,1.9c-0.5,0.2-1,0.5-1.5,0.7c-0.3-0.6-0.5-1.2-0.7-1.8C71.6,199.2,72,198.9,72.3,198.6z M71.6,197
	c-0.3,0.2-0.6,0.4-0.9,0.6c-0.3-1.1-0.6-2.3-0.7-3.5C70.5,195.1,71,196.1,71.6,197z M30.5,200.4c-2-6.1-4-12.3-6-18.4
	c16-8.4,32.5-15.6,49.4-22c-0.7,0.9-1.4,1.7-2.1,2.6c-10.8,4.6-21.3,10-31.5,16c-0.5,0.3-0.1,1,0.4,0.7c9.6-5.6,19.6-10.6,29.7-14.9
	c-2.7,3.6-5.3,7.3-7.6,11.1C51.7,183.3,41,191.7,30.5,200.4z M71.5,169.5c-2.3,1.6-4.6,3.1-6.8,4.7c0.2-0.2,0.3-0.5,0.5-0.7
	c1.8-2.7,3.7-5.3,5.7-7.8c0.4-0.5,0.8-1.3,1.3-2c0.8-0.3,1.5-0.7,2.3-1c0,0.3-0.1,0.7-0.1,1.2c-0.4,0.9-0.7,1.7-1.1,2.6
	C72.7,167.5,72.1,168.5,71.5,169.5z M73.9,167.8c1-1.8,1.6-3.6,1.7-5.6c5.5-2.2,11.1-4.3,16.8-6.2C86.1,159.8,80,163.8,73.9,167.8z
	 M96.8,153.4c-7.2,2.3-14.3,4.8-21.3,7.7c0-0.4-0.1-0.8-0.2-1.3c0-0.1-0.1-0.2-0.1-0.2c1.6-0.6,3.3-1.2,4.9-1.8c0,0.1,0,0.1,0,0.2
	c-0.1,0.5,0.4,0.7,0.8,0.4c0.4-0.4,0.8-0.8,1-1.2c6.7-2.4,13.4-4.7,20.2-6.8C100.3,151.3,98.6,152.3,96.8,153.4z"/>
<path class="st0" d="M34.9,247.8c-0.3,0.7-0.7,1.3-1,2c-0.3,0.5,0.6,1,0.8,0.4c0.3-0.7,0.7-1.3,1-2C36,247.7,35.2,247.3,34.9,247.8z
	"/>
<path class="st0" d="M48.1,232.9c-1.3,1.7-2.6,3.4-3.9,5c-0.2,0.2,0.1,0.5,0.3,0.3c1.4-1.7,2.7-3.3,4.1-5
	C48.8,232.9,48.3,232.6,48.1,232.9z"/>
<path class="st0" d="M638.6,143.6c-9.1,4.5-13,14.1-16.6,23.1c-1.5,3.7-2.9,7.5-4.2,11.3c-0.2,0.1-0.3,0.2-0.5,0.4
	c-9.5,12.6-14.1,31.4-10.9,47.6c-0.3,4.7-0.3,9.4-0.1,14.1c0,0.9,1.3,0.8,1.3-0.1c0-2.9,0.1-5.8,0.2-8.7c0.4,1.1,0.8,2.3,1.3,3.3
	c0.4,0.9,2,0.5,1.9-0.5c-0.6-5.6-1.5-11-1.9-16.4c1.9-13,5.4-25.8,10.5-38c0.3-0.7,0-1.3-0.5-1.6c0.6-1.9,1.3-3.7,2-5.6
	c3.8-10.2,7.5-22.6,17.7-28.4C639.2,144,639,143.4,638.6,143.6z"/>
<path class="st0" d="M56.2,312.2c0.1-0.5-0.4-0.7-0.7-0.4c-0.3-18.2,0.1-36.5,1.3-54.7c0-0.6-0.9-0.5-0.9,0
	c-1.3,18.3-1.7,36.7-1.2,55.1c-2.2,0.4-3.4-0.2-3.8-1.9c-0.2-0.7-0.4-1.4-0.6-2.1c-0.4-1.2-0.7-2.4-1.1-3.6
	c-0.1-0.2-0.1-0.4-0.2-0.6c0.2-2.9,0.5-5.8,0.9-8.7c0.1-0.5-0.8-0.8-0.8-0.2c-0.3,2.1-0.6,4.2-0.8,6.3c-0.5-1.8-1-3.6-1.6-5.3
	c-0.1-0.4-0.7-0.2-0.6,0.2c0.7,2.5,1.3,4.9,2,7.4c-1.6,17-0.5,34.1,3.7,50.8c0.2,0.9,1.5,0.4,1.3-0.4c-3.5-15.6-5-31.5-4.2-47.3
	c0.5,2.1,0.9,4.6,2.2,6.3c0.9,1.2,2.5,1.8,3.8,1.3c0.2,9,0.7,18,1.3,27c0,0.4,0.7,0.3,0.7-0.1c-0.6-9.1-0.9-18.3-1.1-27.4
	C55.9,313.2,56.1,312.8,56.2,312.2z"/>
<path class="st0" d="M55.3,334.8c-0.3,0-0.3,0.5,0,0.5C55.6,335.3,55.6,334.8,55.3,334.8z"/>
<path class="st0" d="M61.9,298.1c0-0.6-0.9-0.8-1-0.2c-1.1,15.8-0.3,31.7,2.8,47.2c0.2,0.8,1.4,0.5,1.2-0.3
	C62.2,329.4,61,313.8,61.9,298.1z"/>
<path class="st0" d="M177.8,0.6c-2.7,2-6.2,3-9.1,4.6c-2.8,1.5-5.7,3-8.4,4.7c-5.6,3.5-10.8,8.2-15.7,12.6
	c-9.5,8.5-17.6,18.9-24.4,29.7c-15.9,25.4-24,54.8-29.5,84.1c-0.1,0.4,0.6,0.5,0.7,0.1c5.4-28.6,13.4-57.3,28.9-82.2
	c6.9-11.1,15.1-20.8,24.8-29.6c4.8-4.4,10-7.8,15.5-11.2c5.6-3.4,12.3-8.3,19-8.9C183,4.2,181-1.9,177.8,0.6z"/>
<path class="st0" d="M245.3,85.9l-28,4c-0.2,0-0.1,0.3,0.1,0.3c9.3-1.3,18.7-2.7,28-4C245.5,86.2,245.5,85.9,245.3,85.9z"/>
<path class="st0" d="M649.4,138.7c-33.2-8.2-66.8-14.7-100.6-19.6c0-0.6-0.1-1.2-0.1-1.8c-0.1-0.8-0.2-1.6-0.2-2.4
	c4.6,0.4,9.1,1.2,13.6,3c0.9,0.3,1.4-1,0.6-1.5c-4.5-2.7-9.5-3.8-14.5-4.3c-3-25.4-14-48.8-27.8-70.1c-0.2-0.3-0.6,0-0.4,0.3
	c2.5,4,4.9,8.2,7.2,12.4c-0.2,0.1-0.3,0.3-0.2,0.6c1.3,2.3,2.7,4.6,4,7c0,0.1,0.1,0.1,0.1,0.1c7.7,15.7,13.4,32.5,15.5,49.6
	c-2.9-0.2-5.9-0.2-8.8-0.2c-1.3-6.6-3.2-13.1-5.6-19.4c-7.8-20.6-20.2-39.8-33.7-57.1c-0.9-1.1-2.5,0.1-1.8,1.3
	c12.5,21.2,27.2,40.9,35.2,64.4c1.2,3.5,2.3,7.1,3.2,10.8c-1,0-2,0-3,0c-2.8,0-5.6-0.1-8.3-0.4c-1.8-0.2-7.4-2-10-0.6
	c-1.4,0.7-2.4,2.1-3.3,3.4c-25.1-2.7-50.3-4.6-75.5-5.6c-20.5-0.8-40.9-1-61.4-0.6c-0.5,0-0.5,0.8,0,0.8c45.2,0,90.3,2.6,135.2,7.6
	c-2.6,3.1-5.2,6.2-7.9,9.3c-0.5,0.5,0.4,1.1,0.9,0.6c2.2-2.4,4.3-4.7,6.6-7c0.8-0.8,1.5-1.7,2.4-2.6c8.7,1,17.4,2.1,26.2,3.2
	c0.8,4.8,1.3,9.7,1.3,14.6c-49.8-3.4-99.6-5.9-149.4-7.7c-23.5-0.8-47.1-1.5-70.6-2c-0.5,0-0.5,0.7,0,0.7
	c73.4,1.7,146.8,5.1,220.1,10.3c0,1.1-0.1,2.1-0.1,3.2c-0.7,12.4-5.4,23.8-7.9,35.9c-0.1,0.4,0.1,0.7,0.4,0.9
	c7.3,5.2,13.2-16.4,14.5-20.7c1.8-6.1,3-12.3,3.6-18.6c5.4,0.4,10.7,0.8,16.1,1.2c1.5,0.1,3.1,0.2,4.6,0.4c2.3,4.4,4.3,8.9,6.1,13.4
	c-1.2,2.7-1.8,5.6-1.6,8.6c0,0.8,1.2,0.8,1.2,0c0.2-2.2,0.6-4.3,1.3-6.4c3.9,9.9,7,20,9.9,30.4c-1.8,0.7-3.5,1.5-5.2,2.3
	c-6.6-8.2-13.8-16.1-21.9-23c-0.8-0.7-2,0.4-1.2,1.2c7.1,7.4,14,14.9,20.4,22.8c-0.1,0-0.1,0-0.2,0.1c-0.6,0.2-0.3,1.1,0.3,0.9
	c0.2-0.1,0.3-0.1,0.5-0.2c2.1,2.6,4.1,5.3,6.1,8c3.6,5.1,6.7,10.9,10.8,15.6c1.6,1.8,3.3,3.2,5.3,3.6c-0.1,1.2-0.6,2.4-1,3.9
	c-0.6,2.1-1.4,4.3-2.2,6.3c-0.7,2-1.5,4-2.3,6.1c-13.3-7.3-27.7-13.1-42.7-17.4c1.5-1,3.1-2,4.6-3c0.5-0.3,0.1-1-0.4-0.8
	c-3.1,0.9-6.3,1.7-9.4,2.5c-4.8-1.2-9.6-2.3-14.5-3.2c0,0,0,0,0.1,0c1.8-1.2,3.7-2.4,5.6-3.5c2-1.2,3.6-2.9,2.4,0.7
	c-0.1,0.2,0.2,0.3,0.3,0.1c0.6-1.1,1.2-2.2,1.8-3.3c0.2-0.3-0.2-0.7-0.5-0.6c-3.6,2-7.3,4-10.6,6.4c-15.9-2.9-32.1-4.1-47.9-3.4
	c-1.3,0.1-1.9,1.6-1,2.5c5.3,5.1,10.9,10,16.8,14.6c0.6,0.5,1.5-0.4,0.9-0.9c-4.8-4.1-9.1-8.4-13.2-13.1c13.4,0.6,26.7,1.7,39.9,4
	c-1.5,1.4-2.9,2.9-4.1,4.6c-0.3,0.3,0,0.8,0.4,0.7c5.4-0.8,11.2-1.6,16.9-2.7c1.9,0.5,3.9,0.9,5.8,1.4c-0.3,0.2-0.6,0.4-0.9,0.6
	c-4.3,2.8-8.7,5.6-13,8.4c-0.2,0.1-0.3,0.5-0.1,0.7c7.1,7.3,17.9,1.3,26.5,3.6c0.7,0.2,3.6,0.9,3.8,1.7c0.2,0.7-3.9,2.9-4.4,3.2
	c-2.8,1.9-6,3.5-8.5,5.7c-2.6,2.1-2.9,4.6,0.4,6.2c5.5,2.7,13.6,0.8,19.6,1.8c1.1,0.2,3.8,0.4,4.7,1.2c0.9,0.8,2.6,5.2,2.4,6.1
	c-0.3,1.3-2,2.7-2.9,3.6c-1.8,2-3.9,3.7-5.9,5.5c-3.4,3.1-6.9,6.5-7.8,11.2c-1.2,6.5,3.1,13.1,5.8,18.7c6.3,13,11.7,29.2,22.6,39.3
	c-0.2,1.5-0.4,3-0.6,4.5c-2,2.7-2.4,6.6-2.7,10.1c-0.7,9.5-0.9,19.1-0.7,28.7c0.3,12,1.2,23.9,3,35.7c-2.4,3.1-4.8,6.2-7.1,9.4
	c-0.2,0.2,0.2,0.6,0.3,0.3c2.3-2.9,4.6-5.8,6.9-8.7c0.2,1.6,0.5,3.2,0.8,4.8c-4.2,3.2-8.2,7.1-11.5,11.4c1.7-13.8,1.9-27.7,1.4-41.5
	c-0.3-7.2-0.9-14.4-1.7-21.5c-0.6-5.6-1-11.6-2.6-17.1c0.3,0.1,0.6,0.3,0.9,0.4c0.5,0.3,0.9-0.4,0.5-0.8c-0.9-0.6-1.7-1.4-2.3-2.2
	c-0.6-0.7-1.7-0.2-1.8,0.6c-0.3,7.1,1.4,14.4,2,21.4c0.6,7,1.1,13.9,1.4,20.9c0.6,14.2,0.1,28.4-0.2,42.7c0,0.2,0.1,0.3,0.1,0.5
	c-1.8,2.9-3.3,6.1-4.2,9.3c-0.2,0.5,0.6,0.7,0.9,0.3c5-8.3,9.9-15.9,17.6-22c0.9,5,2,10.1,3.2,15.1c0.4,1.5,2.6,1.1,2.3-0.5
	c-0.9-5.6-1.8-11.2-2.6-16.8c1.7-1.1,3.4-2.2,5.1-3.1c0.9-0.5,3-1.8,4-1.5c1.2,1.4,2.5,2.8,3.7,4.2c-0.2,0.4-0.3,0.9-0.5,1.3
	c-0.4,2.7-2.5,6.1-3.6,8.7c-1.1,2.6-2.2,5.2-3.2,7.9c-8.6,22.4-6.3,46.3-11.4,69.4c-0.3,1.2,1.5,1.4,1.8,0.3c4-14.2,4.3-28.9,6-43.4
	c0.9-7.8,2.4-15.5,5-23c2.4-6.9,6.6-13.9,8.2-21c0.7-3.2-0.5-6-3.9-6.7c-4.1-0.8-8.5,2.2-11.8,4.5c-0.3-2.1-0.5-4.2-0.8-6.3
	c3.4-4.2,7-8.2,10.7-12.1c3.8-4,7.9-7.8,12.2-11.2c2-1.5,4.3-3.9,6.6-4.7c1.2-1.2,2.6-1.2,4.2,0c2.1-0.3,3.2,0.4,3.3,2.1
	c0.8,1.7,0.8,4.7,0.8,6.3c0.4,22.6-17.8,39.5-26.2,59c-0.2,0.6,0.6,1,0.8,0.4c5.8-12.7,14.7-23.6,20.7-36.2
	c2.7-5.6,4.8-11.7,5.5-17.9c0.5-4.1,1.1-11.1-1.7-14.7c-2.3-2.9-5.2-1.8-7.9-0.1c-5.2,3.1-10,7.3-14.3,11.5
	c-5.4,5.1-10.2,10.7-14.8,16.4c-0.9-7.5-1.6-15-2.1-22.5c-0.6-8.8-0.8-17.7-0.9-26.5c0-3.4-0.7-9.8,0-15.1c0.3,0.3,0.8,0.4,1.2,0.1
	c0.3-0.3,0.6-0.6,0.9-0.9c-0.5,1.5-1,3.1-1.5,4.6c-0.4,1.2,1.5,1.8,2,0.7c7.9-17.3,13.7-35.6,19.4-53.8c5.6-18,10.9-36.2,15.1-54.6
	c0.3-1.2-1.3-2.3-2.1-1.1c-4.3,6.8-6.5,14.4-8.8,22c-2.7,9.2-5.4,18.3-8,27.5c-2.7,9.2-5.4,18.5-8.1,27.7c-1.3,4.4-2.6,8.9-4,13.3
	c-0.5,1.6-0.9,3.3-1.4,5c-0.1,0-0.3-0.1-0.4,0c-0.1,0-0.1,0-0.2,0.1c0.4-0.3,0.5-0.9,0-1.4c-0.4-0.4-0.8-0.7-1.2-1.1
	c3.1-24.2,6.3-48.4,9.8-72.6c23.5-17.3,40.5-42.3,48.1-70.6c0.1-0.5-0.6-0.7-0.8-0.2c-7.6,27.5-24.4,51.8-47,69.1
	c0.3-2.3,0.7-4.5,1-6.8c0.1-0.6-0.8-0.8-0.9-0.2c-0.4,2.6-0.9,5.2-1.3,7.8c-2,1.5-4,2.9-6.1,4.3c-0.6,0.4-0.1,1.5,0.5,1
	c1.8-1.2,3.6-2.4,5.3-3.6c-3.8,23.3-7.3,46.6-10.3,70c-8.8-9.2-13.5-22.4-19-33.5c-2.9-6-9-14.4-8-21.3c0.7-5.1,5.1-8.7,8.7-12
	c3.8-3.5,13.9-11.8,5.9-15.9c-5.1-2.6-11.5-2.3-17-2.4c-1.6,0-7.1,0.1-7.8-0.6c-3.9-3.7,1.4-6.2,3.3-7.5c3-2,6.1-4.1,9.1-6.1
	c0.4-0.3,0.4-0.7,0.1-1c-6.1-5-14.3-2.4-21.4-2.4c-1.9,0-4.6,0-6.3-1c-1.7-1.1-2.3-1.4-0.9-3.2c0.9-1.1,2.8-1.8,4-2.6
	c2.7-1.8,5.4-3.5,8.1-5.3c16,4.2,31.7,9.9,46.8,16.6c-0.3,0.9-0.7,1.9-1,2.8c-2.5,7.1-4.4,14.7-2.1,22.1c0.3,1,2.1,1,2-0.2
	c-0.6-12.1,3.5-22.2,7.5-33.3c1-2.8,2.7-6.7,3.2-10.3c0.3-0.1,0.6-0.2,0.9-0.3c0.6-0.2,0.3-1.2-0.3-1.1c-0.2,0-0.3,0-0.5,0.1
	c0.2-3-0.7-5.6-3.6-7.3c-0.7-0.4-1.8-0.5-2.4-1c-1.6-1.5-2.5-4.9-1.9-7c0.6-2,1.6-3.8,2.3-5.7c0.9-2.7,1.3-5.6-0.2-8.2
	c-1.2-2-3.1-3-5.4-2.8c-2,0.2-4,0.8-6,1.6c-2.1-10.9-5.7-21.6-10.2-31.8c1.1-2.7,2.6-5.3,4.7-7.5c0.4-0.4-0.2-0.9-0.6-0.6
	c-2,1.8-3.7,4-5,6.3c-1.8-4-3.8-8-5.8-11.9c21.9,1.7,43.8,3.5,65.7,5.4c0.7,0.1,0.8-1,0.1-1c-29.1-2.8-58.2-5.2-87.4-7.3
	c0.4-4.5,0.5-9.1,0.3-13.7c13.4,1.9,26.8,4.1,40.1,6.5c20.1,3.6,40.1,7.6,60,12.1C650,140.2,650.2,138.9,649.4,138.7z M528.3,217.1
	c-3.2,0.5-3.3,0.3-1.2-2.3c0.4-0.5,0.8-0.9,1.3-1.4c3.1,0.5,6.2,1.2,9.3,1.8C534.5,216,531.4,216.6,528.3,217.1z M605.8,298
	c2.8-9.5,5.7-19,8.5-28.6c1.7-5.7,3.2-11.6,5.4-17.2c-4,14.7-8.2,29.4-12.9,44c-1.4,4.5-2.9,8.9-4.5,13.3
	C603.5,305.7,604.7,301.8,605.8,298z M590.5,336.5c0.1,0.1,0.2,0.2,0.3,0.3c0.2,0.1,0.3,0.2,0.5,0.2c-0.3,0.1-0.7,0.3-0.9,0.5
	C590.4,337.1,590.4,336.8,590.5,336.5z M590.1,339.5c0.6-0.7,1.2-1.3,2-1.7c-0.6,1.7-1.4,3.3-2.4,4.7
	C589.8,341.5,590,340.5,590.1,339.5z M551.7,214.1c-0.5-0.1-1-0.3-1.4-0.4c1.2-0.4,2.4-0.8,3.5-1.2c4.4-1.7-0.6,0.6-1.6,1.3
	C552,213.9,551.8,214,551.7,214.1z M599.9,211.3c0.5,0.7,0.8,1.4,1,2c-1.9-1.1-3.6-3.3-5-5.5C598,209.4,598.1,208.6,599.9,211.3z
	 M591.9,184c9.9-0.3,3.3,9.5,1.9,13.9c-0.6,1.7-0.9,3.5-0.6,5.3c-0.3-0.5-0.5-0.9-0.8-1.3c-3.1-4.7-6.4-9.3-9.9-13.7
	c-0.2-0.3-0.5-0.6-0.8-0.9c1.2-0.4,2.3-0.8,3.5-1.1C587.2,185.5,589.9,184.1,591.9,184z M546.9,114.8c0.1,1.3,0.2,2.7,0.3,4
	c-2.8-0.4-5.6-0.8-8.4-1.2c-0.1-1-0.3-2-0.5-3.1C541.2,114.6,544,114.6,546.9,114.8z M512.9,114.5c1.2-0.9,2.4-1.4,3.9-1.4
	c4.2,0.1,8.4,1.4,12.7,1.5c2.1,0,4.2,0,6.3,0c0.2,0.9,0.4,1.8,0.6,2.7C528.5,116.3,520.7,115.4,512.9,114.5z M544.2,151.4
	c-1.3,4.9-2.9,9.7-5,14.4c-0.8,1.7-1.5,3.9-2.7,5.4c-1.2,1.6-4,4-4.3,1.4c-0.1-1.1,0.9-3.5,1.1-4.4c2.4-8.8,5.2-17.4,6.1-26.5
	c0.2-1.9,0.3-3.8,0.3-5.8c2.4,0.2,4.7,0.3,7.1,0.5C546.4,141.4,545.5,146.4,544.2,151.4z M547,135c-2.4-0.2-4.8-0.3-7.2-0.5
	c0.1-4.8-0.2-9.6-0.7-14.4c2.7,0.4,5.5,0.7,8.2,1.1C547.5,125.8,547.4,130.4,547,135z"/>
<path class="st0" d="M376.9,100.8c-5.7-14.5-25.1-13.4-37.9-12.3c-4.4,0.4-8.8,1-13.2,1.8c-3,0.6-8.8,0.9-11.3,2.8
	c-1.5,1.2-1.7,3.7,0.8,3.4c0.7-0.1,0.6-1.1-0.1-1.2c1-1.4,2.6-2.1,4.5-1.8c1.2-0.3,2.5-0.5,3.7-0.7c3-0.6,6-1.1,9-1.5
	c4.4-0.5,8.8-0.9,13.2-1c10.8-0.3,24.2-0.1,29.8,11C376,102.2,377.3,101.7,376.9,100.8z"/>
<path class="st0" d="M385.4,775.2c-17,3.4-34.2,4.3-51.2,2c0.1-3.7-0.3-7.5-0.3-8.9c0-1.1-1.7-1-1.7,0.1c0,2.8-0.1,5.6-0.1,8.5
	c-2.8-0.4-5.5-0.9-8.3-1.5c-0.6-1.4-1.1-2.8-1.5-4.3c5.2-2.8,10.6-4.1,16.5-5.2c1.4,5,5.2,9.1,10.5,10.2c0.6,0.1,0.8-0.8,0.3-1
	c-4.6-1.6-8.2-5-9.6-9.4c0.2,0,0.5-0.1,0.7-0.1c0.9-0.1,0.8-1.5-0.1-1.5c-0.3,0-0.7,0-1,0c-0.2-1-0.3-2-0.2-3c0-0.6-1-0.8-1-0.1
	c-0.1,1.1,0,2.1,0.1,3.1c-5.9,0.2-11.6,2.2-16.6,5.3c-1.3-4.3-2.2-8.8-3-13.1c-0.1-0.8-1.3-0.5-1.2,0.3c0.7,4.6,1.7,9.1,3,13.6
	c-1.2,0.8-2.4,1.6-3.5,2.5c-0.8,0.6,0.2,1.7,1,1.2c1-0.7,2-1.3,3-1.9c0,0,0,0,0,0.1c0.3,1.1,0.7,2.4,1.1,3.8c0,0.2,0,0.3,0.1,0.5
	c1.1,3.5,2.5,7.1,5.3,8.9c5,3.2,6.4-1.3,6.7-6.6c17.1,2.5,34.6,2,51.6-2C386.5,776.3,386.2,775,385.4,775.2z M332,781.9
	c-1.7,0-3.4,0-5.2,0c-0.6-0.7-1.1-1.5-1.4-2.4c-0.4-0.9-0.9-1.8-1.3-2.8c2.6,0.6,5.2,1.1,7.9,1.5C332.2,779.4,332.3,781.5,332,781.9
	z"/>
<path class="st0" d="M21.4,162.7C7.9,181.8-7.9,206.3,4.5,230c0.3,0.6,1.4,0.2,1-0.5c-12.1-23.4,3.1-47.6,16.3-66.7
	C22,162.6,21.6,162.4,21.4,162.7z"/>
<path class="st0" d="M360.1,753.2c-1.4-1.1-2.5-2.6-2.7-4.4c-0.1-0.5-0.7-0.3-0.7,0.1c0.1,2,1.1,3.9,3,4.9
	C360.1,754,360.5,753.5,360.1,753.2z"/>
<path class="st0" d="M385.8,768.2c-4.3-6.5-7.3-13.1-8.6-20.9c-0.1-0.6-1-0.5-0.9,0.1c1.1,7.7,3.8,15.2,8.5,21.5
	C385.2,769.5,386.3,768.9,385.8,768.2z"/>
<path class="st0" d="M310,765c-1.3,4-6.7,2.6-8.6-0.2c-1.8-2.7-1.3-6.8-1.1-9.8c0.1-1-1.3-1.4-1.9-0.6c-1.6,2.4-3.3,4.8-4.9,7.2
	c-1.1-1.2-1.9-2.6-2.4-4.1c1.4-4.1,2.3-8.3,2.5-12.8c0-0.9-1-1.4-1.7-0.7c-3.4,3.9-4.3,9-2.9,13.6c-1.7,4.4-4.1,8.5-7.3,12.1
	c-0.7-2.2-1.1-4.5-1.1-6.7c2-4.2,3-8.6,3.5-13.4c0.1-0.6-0.8-1.2-1.2-0.6c-2.9,4.3-4.3,9.3-4.2,14.3c-0.1,0.3-0.3,0.5-0.4,0.8
	c-1.8-4.9-2.4-10-1.7-15.3c0.1-0.4-0.6-0.5-0.7-0.1c-1.1,6-0.5,11.7,1.5,17.5c0.2,0.5,1,0.6,1.3,0.1c0-0.1,0.1-0.1,0.1-0.2
	c0.3,1.9,0.7,3.8,1.4,5.7c0.2,0.6,1.1,1.1,1.7,0.5c3.4-3.7,6.1-7.8,8-12.3c0.7,1.4,1.7,2.7,2.9,3.8c0.5,0.5,1.3,0.3,1.7-0.2
	c1.2-1.8,2.4-3.6,3.6-5.3c0,4.4,0.9,9.1,5.4,10.7c3.3,1.2,7.2-0.1,8-3.7C311.7,764.4,310.3,764,310,765z M291.3,748.5
	c-0.2,1.6-0.5,3.2-1,4.7C290.3,751.7,290.7,750,291.3,748.5z"/>
<path class="st0" d="M116.7,882.8c-2.3-0.1-4.3,3.8-5.4,5.3c-5.9,7.8-11.8,15.7-17.1,24c-9.9,15.5-18.3,32.6-20.1,51.2
	c-0.1,0.9,1.3,1.1,1.4,0.2c2.3-14.8,7.5-28.7,14.9-41.7c3.7-6.5,7.7-12.7,12-18.8c2.1-3.1,4.3-6.1,6.4-9.1c1-1.4,2-2.8,3-4.1
	c0.7-0.9,1.3-1.8,2-2.7c0.7-1.8,2.1-2.4,4.2-1.9c0,0.4,0.6,0.5,0.6,0.1C118.7,883.8,118.2,882.8,116.7,882.8z"/>
<path class="st0" d="M213.2,1039.3c-21.5-6.1-42.5-13.5-63-22.4c-0.6-0.3-1,0.6-0.4,0.9c20.4,9.1,41.4,16.8,63,22.6
	C213.5,1040.6,213.9,1039.5,213.2,1039.3z"/>
<path class="st0" d="M642.3,852.2c-1-2.4-2.1-4.7-3.1-7.1c-0.2-0.4-0.8-0.4-1,0c-19.4,33.8-33.7,71.4-43.1,109.2
	c-0.2,0.9,1.1,1.1,1.3,0.2c5.3-19.4,11.5-38.6,18.9-57.3c3.8-9.7,8-19.3,12.4-28.7c2.2-4.7,4.5-9.3,6.8-13.9
	c0.8-1.6,1.9-5.4,3.4-6.5c1.4-1,0.1-1,1.5,0.1c0.8,0.6,1.8,3.5,2.2,4.3C641.9,853,642.5,852.6,642.3,852.2z"/>
<path class="st0" d="M659.1,790.9c-8.6-3.6-17.9-2.9-26,1.6c-0.4,0.2-0.1,0.9,0.4,0.7c8.1-4.1,16.8-4.3,25.3-1.3
	C659.3,792.1,659.7,791.2,659.1,790.9z"/>
<path class="st0" d="M627.7,505.7c-3.6-13.9-6.7-27.6-8-41.9c0-0.5-0.8-0.3-0.7,0.1c1,14.1,3,28.5,7.5,42
	C626.8,506.7,627.9,506.5,627.7,505.7z"/>
<path class="st0" d="M61.1,394.4c-3.6,3-7.2,5.9-11,8.7c-1.4,1-2.9,2-4.3,3c-1.7,1.1-7.4,6-5.3-1.1c1-3.6,6.2-7.8,8.7-10.7
	c3.2-3.8,6.5-7.7,9.7-11.5c0.3-0.4-0.1-1-0.6-0.8c-4,1.7-7.9,3.4-11.8,5.2c-0.3,0.2-0.1,0.7,0.2,0.5c2.3-0.9,4.6-1.7,6.8-2.7
	c0.8-0.3,1.6-0.7,2.4-1c-0.1,0.2-0.2,0.6-0.3,1c-2.7,4.6-7.4,8.6-10.9,12.7c-2.7,3.2-9,8.8-5,13.1c0.2,0.2,0.6,0.2,0.8,0.1
	c7.7-4.4,14.8-9.5,21.3-15.6C62.2,394.8,61.6,394,61.1,394.4z"/>
<path class="st0" d="M48,400.5c-0.5,0-0.5,0.8,0,0.8S48.5,400.5,48,400.5z"/>
<path class="st0" d="M61.1,433.8c-1,3.4-2.6,7-3,10.6c-0.1,0.4,0.5,0.5,0.7,0.1c1.5-3.2,2.1-7.1,3-10.5
	C61.9,433.6,61.2,433.3,61.1,433.8z"/>
<path class="st0" d="M622.7,351.2c-0.8-2.5-3.9-2-5.9-1.9c-5.1,0.3-10.3,0.7-15.4,1.6c-0.4,0.1-0.4,0.7,0,0.7c2.6,0,5.2-0.2,7.8-0.4
	c2.4-0.2,6.6-1.3,8.8-0.7c1.7-0.6,2.1,0.2,1.1,2.3c0.6,1.8,0,2.8-1.6,3.1c-0.9,0.7-2.3,1.2-3.3,1.7c-2.5,1.3-4.9,2.5-7.4,3.8
	c-0.5,0.3-0.8,1-0.3,1.5c2.5,2.5,5,5,7.9,7.1c0.6,0.5,1.4-0.3,0.9-0.9c-2-2.4-4.1-4.6-6.4-6.7c3.9-2.1,8.2-4.2,11.6-6.9
	C621.8,354.5,623.3,353,622.7,351.2z"/>
<path class="st0" d="M539,306.5c-5.4,13.2-5.3,28.6-1,42.1c0.2,0.8,1.6,0.4,1.4-0.4c-3.4-14-2.7-27.4,1.2-41.3
	C540.9,306,539.4,305.6,539,306.5z"/>
<path class="st0" d="M270,202.8c-10.7-4.3-22.6-2.7-31.9,4c-0.3,0.2,0,0.7,0.3,0.5c9.3-6.5,20.8-7.7,31.3-3.8
	C270.2,203.8,270.4,203,270,202.8z"/>
<path class="st0" d="M418.5,198.3c-15.9-2.7-32,4.6-41,17.8c-0.3,0.4,0.4,0.8,0.7,0.4c9.1-12.9,24.6-19.4,40.3-17.6
	C418.8,199,418.9,198.4,418.5,198.3z"/>
<path class="st0" d="M329.8,247.1c-7.6,1.7-15.2,0.2-21-5.1c-0.3-0.3-0.7,0.2-0.4,0.5c5.7,5.6,13.9,8,21.6,5.6
	C330.7,247.9,330.4,247,329.8,247.1z"/>
<path class="st0" d="M488.7,959c-0.2-0.9-1.4-0.8-1.4,0.1c0.2,4.6-5.6,9.2-8.6,3.8c-0.6-1-1.9-0.4-2,0.6c-0.2,3.2-1.1,5.9-2.7,8.5
	c-1.9-2.1-3.9-4.2-5.8-6.3c-0.6-0.6-1.6-0.2-1.8,0.5c-0.6,2.6-1.1,5.3-1.7,7.9c-0.3,1.2-0.3,3.4-1,4.4c-1.4,1-2.8,2.1-4.2,3.1
	c-1.5-0.6-2.6-1.5-3.4-2.9c-2.2-3-3-6.2-6.4-8.3c-0.7-0.4-1.9-0.1-1.9,0.9c0,5.9-1.2,11.4-3.8,16.7c-2.8-2.1-5.6-4.3-8.4-6.4
	c-0.9-0.7-2,0.4-1.8,1.3c0.8,5.3,1.5,10.7,2.3,16c-0.5-0.6-1.1-1.3-1.6-1.9c-0.8-1.7-2-3.2-3.6-4.6c-0.2-0.2-0.4-0.3-0.6-0.3
	c-0.8-0.8-1.6-1.7-2.4-2.5c-0.8-0.9-2.5-0.1-2,1.1c0.5,1.2,1.1,2.3,1.6,3.4c-1.3,2.1-1,4.9,1.2,6.5c0.5,0.4,1.2-0.3,0.7-0.7
	c-0.9-1-1.1-2.5-0.7-3.6c1.4,2.4,3,4.6,4.9,6.7c0.7,0.8,2,0.5,2-0.7c0.4,0.5,0.8,1.1,1.2,1.6c0.8,1,2.2,0.1,2.1-1
	c-0.8-5.9-1.6-11.7-2.5-17.6l5.9,4.5c1.3,2.5,2.5,5.1,3.8,7.6c0.3,0.5,1,0.3,1.1-0.2c0.2-2.2-0.3-4.3-1.8-5.9
	c-0.3-0.4-0.9,0.1-0.7,0.5c0.7,1,1.1,2.1,1.3,3.2c-0.8-1.4-1.6-2.8-2.5-4.2c0,0,0,0,0,0c0.5,0.4,1.4,0.2,1.7-0.4
	c2.8-5.3,4.3-10.7,4.7-16.5c3.3,3.8,5.1,10.9,11.2,10.2c2.3-0.3,3.5-2,4.2-4.1c1.2-3.6,1.7-7.6,2.4-11.5c1.8,1.9,3.5,3.8,5.2,5.7
	c0.5,0.5,1.3,0.3,1.7-0.2c1.8-2.6,2.9-5.2,3.5-8.2C482.9,970,490.1,965.6,488.7,959z"/>
<path class="st0" d="M498.3,956.9c-1.5-1.1-3-2-4.5-2.9c-0.6-0.4-1.2,0.5-0.6,0.9c1.5,1.1,2.9,2.1,4.5,3.1
	C498.3,958.3,498.9,957.3,498.3,956.9z"/>
<path class="st0" d="M189.8,942.5c-12.7-7.8-21.3-20.4-20.6-35.7c0-1-1.2-1.7-2-1c-1.4,1.6-3.2,2.4-5.4,2.2c1.1-2.6,1.7-5.3,1.5-8.3
	c-0.2-2.7-0.6-3.7,0-6.4c0.3-1.3,0.7-2.4,0.5-3.8c-0.5-3.2-4.9-3.9-4.2-6.9c0.6-2.8,3-4.3,3-7.5c0-0.8-1.2-1.3-1.8-0.8
	c-0.9,0.9-1.9,1.6-3.1,2c1-3.1,2.1-6.3,3.1-9.4c0.3-0.9-0.5-1.4-1.1-1.2c1.4-2.9,2.9-5.8,4.2-8.7c0.3-0.6-0.6-1-1-0.5
	c-4.3,7.2-8,14.8-12,22.3c-0.5,0.9,0.9,1.7,1.5,1c1.2-1.4,2.3-2.9,3.3-4.4c-0.2,0.7-0.5,1.3-0.7,2c-0.3,0.7,0.1,1.7,1,1.6
	c1.3-0.2,2.4-0.5,3.5-1c-1.5,2.9-4.5,6.1-1.9,8.8c0.5,0.5,1.3,0.6,1.8,1c4.5,4.3,0.8,4.3,0.5,7.5c-0.1,0.9,0.9,3.6,0.8,3.3
	c0.6,3.4-0.2,6.7-1.7,9.7c-0.3,0.6-0.2,1.6,0.6,1.8c2.7,0.6,5,0.3,7.1-0.9c0.2,14.5,8.5,29.1,22.3,34.6
	C189.8,944.1,190.5,943,189.8,942.5z"/>
<path class="st0" d="M191.2,981.9c-4.8,3-10.4,7-16.2,4.8c-2.7-1-5.8-3.6-8.9-2.2c-1.5,0.7-3,3.3-5.1,2.1c-1.7-0.9-2.2-6.4-2.7-8.3
	c-1.4-5.5-2.8-11-4.4-16.4c-0.3-0.9-1.6-0.7-1.6,0.2c-0.4,1.3-0.8,2.6-1.2,3.9c-0.2,0.4,0.3,0.8,0.6,0.5c0.5-0.5,0.9-1,1.2-1.5
	c1.4,6.5,2.8,13.1,4.7,19.4c0.8,2.5,2.2,5.8,5.3,5.3c5-0.8,0.4-4.4,8.7-1.9c2.3,0.7,3.9,1.9,6.5,1.9c5.3-0.1,10-3.4,13.9-6.6
	C192.8,982.6,192,981.4,191.2,981.9z"/>
<path class="st0" d="M499.1,784.4c-0.9,0.5-1.9,1.1-2.8,1.6c-0.8,0.4-1.9,0.8-1.9,1.9c0,0.2,0.2,0.3,0.3,0.4
	c0.9,0.4,1.6-0.4,2.2-0.9c0.9-0.7,1.9-1.4,2.8-2.1C500.3,784.8,499.7,784.1,499.1,784.4z"/>
<path class="st0" d="M496.3,789.1c-20.4,16.1-26.3,43.4-30.3,67.7c-0.2,1.1,1.5,1.5,1.7,0.3c5-24.2,10.1-49.9,28.9-67.5
	C497,789.3,496.7,788.9,496.3,789.1z"/>
<path class="st0" d="M219.6,859.6c-5.6-14-11.2-28.7-18.6-41.9c-0.4-0.7-1.5-0.1-1.2,0.6c4.8,14.3,11.8,28.3,18.4,41.8
	C218.6,861,219.9,860.5,219.6,859.6z"/>
<path class="st0" d="M203.7,482.9c-8,5.5-16.1,10.8-24.1,16.5c-0.5,0.3,0,1.1,0.5,0.8c8.1-5.4,16-11,23.9-16.5
	C204.5,483.3,204.1,482.6,203.7,482.9z"/>
<path class="st0" d="M506.6,341.8c-4,2.5-7.9,5.1-11.9,7.6c-0.5,0.3,0,1.1,0.5,0.8c4-2.5,8-5,12-7.5
	C507.8,342.3,507.1,341.5,506.6,341.8z"/>
<path class="st0" d="M178.8,350.8c-6.2-3.9-12.8-6.7-19.9-8.5c-0.6-0.2-0.8,0.8-0.2,1c6.9,1.8,13.5,4.6,19.6,8.2
	C178.9,351.8,179.3,351.1,178.8,350.8z"/>
<path class="st0" d="M195.3,343.5c-9.4-7.1-19-14.1-28.9-20.6c-0.4-0.3-0.9,0.5-0.5,0.8c9.4,7.1,19.2,13.8,29,20.4
	C195.3,344.2,195.7,343.7,195.3,343.5z"/>
<path class="st0" d="M300.4,602.8c-1.9,1.3-3.8,2-5.9,2.3c0,0,0,0,0,0c1.6-0.9,3.2-1.5,5.2-2c1.1-0.2,1-1.8-0.2-1.8
	c-3.8,0-7.6,0.1-11.4,0.1c-0.4,0-0.5,0.7-0.1,0.7c2.3,0.2,4.5,0.4,6.8,0.6c-1.1,0.5-2.1,1.2-3.1,1.9c-0.1,0-0.1,0-0.2,0
	c-1,0.3-5.1,1.4-5-1c0-1.1-1.4-1.3-2-0.5c-0.9,1.3-1.8,2.5-2.5,3.8c-3.1,0.5-6,0.5-8.8-0.5c-0.8-0.4-1.6-0.8-2.5-1.1
	c-0.2-0.1-0.4-0.1-0.6,0c-0.1-0.2-0.2-0.4-0.3-0.6c-2.6-5.6-0.5-28.1,9.5-26.5c0.1,0,0.1-0.1,0-0.2c-9.6-1.8-12.6,18.6-11,24.6
	c0.3,1.1,0.7,2.1,1.1,3c-0.4,0.5-0.5,1.4,0.2,1.8c0.5,0.3,1,0.6,1.6,0.8c1.3,1.6,3,2.8,4.8,3.8c-0.9-0.4-2,0.3-1.8,1.5
	c0.2,0.8,0.5,1.5,0.8,2.1c-3.2,0.7-6.3,2-9,4.1c-1,0.8-0.8,2.3,0.5,2.7c1.5,0.4,3.1,0.7,4.7,0.8c0.2,0.4,0.6,0.8,1,0.8
	c1.4,0,2.8-0.5,4.2-1.2c2.2-0.5,4.3-1.3,6.3-2.5c1-0.6,1-1.9,0.1-2.4c0.1-0.1,0.1-0.2,0.2-0.3c1.2-0.6,2.1-1.6,2.4-2.9
	c1.3,0.1,2.7,0.2,4,0.2c0.4,0,0.5-0.7,0.1-0.7c-1.3,0-2.6-0.1-3.9-0.3c0-0.1,0-0.2,0-0.4c-0.1-0.9-0.5-1.6-1.2-2.2
	c0.3-0.6-0.1-1.3-0.7-1.5c-0.6-0.2-1.1-0.3-1.7-0.3c0.1,0,0.2-0.1,0.3-0.2c0.5-0.5,0.9-1,1.3-1.5c0,0,0,0,0,0
	c0.2-0.1,0.3-0.3,0.4-0.5c0.4-0.6,0.9-1.1,1.3-1.7c1,1.1,3,1.4,4.8,1.2c-0.5,0.8-1.1,1.6-1.8,2.3c-0.7,0.5-1.4,1-2,1.7
	c-0.9,0.8,0.3,2.3,1.3,1.6c0.1-0.1,0.2-0.2,0.4-0.3c0.2,0.4,0.6,0.7,1.1,0.7c0.2,0,0.5,0,0.7-0.1c0.1,0,0.3,0.1,0.4,0
	c3.8-0.8,6.8-2.9,8.9-6.1c0.2-0.3,0.2-0.6,0.1-0.9c0.9-0.6,1.8-1.3,2.7-1.9C302.7,603.6,301.4,602.1,300.4,602.8z M283.5,613
	c0.1,0.3,0.2,0.6,0.2,1c-0.2,0-0.5-0.1-0.7-0.1L283.5,613z M275.4,619.5c-0.6,0.3-1.1,0.6-1.7,1c-0.9,0.1-1.8,0.1-2.8,0
	c1.8-0.8,3.6-1.4,5.6-1.6C276.2,619,275.8,619.3,275.4,619.5z M277.3,613c0,0.2-0.1,0.4-0.1,0.6c-0.2-0.3-0.5-0.6-0.7-0.9
	c-0.1-0.1-0.2-0.2-0.3-0.3C276.6,612.5,277,612.7,277.3,613C277.4,612.9,277.3,612.9,277.3,613z M277.7,612.1
	c-1.7-0.8-3.3-1.8-4.7-3c0.5,0.2,1.1,0.3,1.6,0.4c1.2,0.6,2.4,1.3,3.5,2C277.9,611.7,277.8,611.9,277.7,612.1z M279.6,615.4
	c-0.3-0.5-0.4-1.1-0.3-1.7c0.4,0.1,0.8,0.2,1.2,0.4c0,0.1-0.1,0.1-0.1,0.2c-0.2,0.4-0.1,0.9,0.2,1.2
	C280.2,615.4,279.9,615.4,279.6,615.4z M281.5,609.9c-0.8,0-1.5,0.2-2.2,0.5c-0.3-0.2-0.5-0.4-0.8-0.7c0.8-0.1,1.6-0.2,2.4-0.4
	C281,609.6,281.2,609.8,281.5,609.9z"/>
<path class="st0" d="M155.8,838.7c-14.6,10.4-29.2,20.8-43.7,31.3c-0.4,0.3,0.1,0.8,0.5,0.6c14.6-10.4,29.1-20.8,43.6-31.3
	C156.6,838.9,156.2,838.4,155.8,838.7z"/>
<path class="st0" d="M662.9,764.5c-16.5,0.3-33.1-1.8-49-6.3c-3.6-1-7.1-2.2-10.5-3.4c-2.5-0.9-6.8-3.9-9.6-3
	c-2.1,0.7-1.6,2.5,0.2,2.8c0.2,0,0.3-0.1,0.4-0.2c0.1-0.2,0.2-0.3,0.2-0.5c0.1-0.3-0.3-0.6-0.5-0.3c1-1.4,17.1,5.3,19.3,5.9
	c5.1,1.5,10.3,2.7,15.5,3.7c11.3,2.1,22.7,2.9,34.2,2.6C663.8,765.8,663.8,764.5,662.9,764.5z"/>
<path class="st0" d="M318,97.9c-62.3,3.4-124.2,11.4-185.3,23.9c15.1-9.7,30.9-18.2,47.3-25.4c-6.1,3.8-12.1,7.7-18.1,11.8
	c-0.3,0.2,0,0.7,0.3,0.5c7.3-4.8,14.7-9.6,22.2-14.1c13.6-5.7,27.5-10.5,41.7-14.3c-3,2.2-6,4.4-9,6.6c-0.3,0.2,0.1,0.7,0.4,0.5
	c3.5-2.5,7-5,10.5-7.6c13.4-3.5,27-6.3,40.7-8.1c0.6-0.1,0.5-1.1-0.1-1c-13,1.7-25.9,4.3-38.5,7.6c14.3-10.6,28.3-21.6,42-33
	c0.2-0.2-0.1-0.4-0.3-0.3c-0.6,0.5-1.2,1-1.8,1.4c-1.8,0.6-4.3,3.4-5.7,4.5c-5.3,4.2-10.5,8.3-15.8,12.4
	c-6.7,5.2-13.5,10.3-20.4,15.4c-13.3,3.5-26.3,7.9-39.1,13c10.9-6.6,22-12.8,33.2-18.8c0.4-0.2,0.1-0.8-0.3-0.6
	c-12.8,6.7-25.3,13.8-37.5,21.4c-18.6,7.8-36.5,17.4-53.4,28.5c-7.7,1.6-15.5,3.3-23.2,5c-0.7,0.2-0.5,1.3,0.2,1.1
	c6.8-1.5,13.6-3,20.4-4.4c-1.9,1.3-3.8,2.5-5.6,3.8c-0.3,0.2,0,0.6,0.3,0.4c2.3-1.6,4.5-3.1,6.8-4.6c62-12.8,124.9-21,188.1-24.7
	C318.7,98.8,318.6,97.8,318,97.9z"/>
<path class="st0" d="M439.7,79.5c-6-4-12-7.9-18-11.9c-0.2-0.1-0.3,0.1-0.2,0.3c6,4,12,8,18,12C439.7,80.1,440,79.7,439.7,79.5z"/>
<path class="st0" d="M459.1,94.8c-21.9-14.5-44.8-27.3-68.9-37.9c-0.4-0.2-0.7,0.5-0.2,0.7c23.8,10.9,46.9,23.3,68.9,37.6
	C459.1,95.3,459.3,94.9,459.1,94.8z"/>
<path class="st0" d="M314.9,22.3c-53.8,12.6-105.4,33.8-152.8,62.3c-0.2,0.1,0,0.5,0.2,0.3c47.4-28.4,98.9-49.1,152.7-62
	C315.3,22.8,315.3,22.2,314.9,22.3z"/>
<path class="st0" d="M466.5,49.8c-13.5-4.5-27-9-40.5-13.5c-0.3-0.1-0.4,0.3-0.1,0.4c13.5,4.5,27,9,40.5,13.5
	C466.7,50.5,466.8,50,466.5,49.8z"/>
<path class="st0" d="M517.8,97.8c-17-25.2-43-43.1-72.3-50.9c-0.3-0.1-0.4,0.4-0.1,0.5c29,8.1,54.1,26.4,71.7,50.8
	C517.4,98.6,518.1,98.2,517.8,97.8z"/>
</svg>
