<?xml version="1.0" encoding="utf-8"?>
<!-- Generator: Adobe Illustrator 22.1.0, SVG Export Plug-In . SVG Version: 6.00 Build 0)  -->
<svg version="1.1" id="Layer_1" xmlns="http://www.w3.org/2000/svg" xmlns:xlink="http://www.w3.org/1999/xlink" x="0px" y="0px"
	 viewBox="0 0 500 402.4" style="enable-background:new 0 0 500 402.4;" xml:space="preserve">
<style type="text/css">
	.st0{opacity:0.1;}
	.st1{fill:#5C5B4B;stroke:#5C5B4B;stroke-linecap:round;stroke-miterlimit:10;}
	.st2{fill:#FCF4E9;stroke:#5C5B4B;stroke-linecap:round;stroke-miterlimit:10;}
	.st3{fill:#FCF4E9;}
	.st4{fill:none;stroke:#5C5B4B;stroke-linecap:round;stroke-miterlimit:10;}
</style>
<g class="st0">
	<g id="XMLID_7707_">
		<path id="XMLID_7712_" class="st1" d="M422.3,241.2c-0.1,0-0.1,0-0.1,0s-0.6,1.6-1.7,4.5l10.3,5.4c0.4-0.8,0.7-1.3,1-1.6
			c0.5-0.3,0.8-0.4,0.8-0.4s10.5-4.9,18.1-3.8c6.8,1,28,5.7,14.2,0.7c2.8,0.2,3.8-0.4-1.7-3.2c0-0.4-0.2-1.1-0.9-2.1
			c0.5-0.3-0.3-1-3.9-2.4c-10.3-4-27.5-12.5-32.8-11.2C420.9,228.1,423.5,232.6,422.3,241.2z"/>
		<path id="XMLID_7711_" class="st1" d="M459.3,244c23.8,7.8-1.2,2.3-8.7,1.1c-7.5-1.1-18.1,3.8-18.1,3.8s-0.3,0.2-0.8,0.4
			c-0.2,0.3-0.6,0.8-1,1.6l-10.3-5.4c1.1-2.8,1.7-4.5,1.7-4.5s0,0,0.1,0c1.2-8.6-1.4-13.1,3.2-14.2c5.3-1.3,22.4,7.2,32.8,11.2"/>
		<path id="XMLID_7710_" class="st1" d="M455.7,244.3c0,0,21.1,5,5.7-2.4"/>
		<path id="XMLID_7709_" class="st1" d="M462,240.4c3.9,5.5-4,1.9-4,1.9"/>
		<path id="XMLID_7708_" class="st1" d="M456,240.4c0,0,12.5,1.8,2.2-2.2"/>
	</g>
	<path id="XMLID_7706_" class="st1" d="M368.5,314.1c1.1,1.2,2.2,2.3,3.3,3.3c9,9.2,15.1,13.7,19.2,15c-0.2-0.1-0.4-0.3-0.7-0.4
		c0.3,0.2,0.5,0.3,0.8,0.5c0.1,0,0.2,0,0.2,0.1c0,0,0,0,0,0c0,0,0,0,0,0c0.6,0.2,1.2,0.3,1.8,0.3c2.7-0.5,4-2,4.5-4.2
		c0.2-1.1,1.6-4.4,3.5-9.2c0.1-0.2,0.3-0.3,0.4-0.5c13.2-30.7,30.7-70.8,30.7-70.8s-12.6-4.1-11.7-2.7c0.5,0.9-12.7,30.7-23.5,56.1
		c0-0.1,0-0.1,0-0.2c-0.8,2-1.6,3.9-2.3,5.7c-1.1,2.6-2.2,5.2-3.2,7.6c0,0.2,0,0.5,0,0.7c-0.1,0.2-0.3,0.3-0.4,0.5
		c-1.7-0.6-3.5-1.6-5.4-2.9c-3.1-2-6.5-4.8-9.9-7.9c-9.3-8.4-19.3-19.3-26-25.4c-13.7-12.5-19.1-21.7-19.1-21.7l-10.1,10.1
		C327.4,271.7,352.1,297.3,368.5,314.1z"/>
	<path id="XMLID_7864_" class="st1" d="M198.7,208.4c0,0,7.1,6.2,18.1,30.2c11.1,23.9,21.6,42.5,14.3,57.3s-25.6,67.9-27.7,69
		l9.1,3.8c0,0,28.7-70.6,33.1-74.2c4.4-3.6,4.8-28.5-30.8-92.2"/>
	<g id="XMLID_7862_">
		<path id="XMLID_7863_" class="st1" d="M214.4,367.3c2.5,6.4,3.2,8.4,3.1,15.4s-2.7-11.1-3.1-8.8c-0.4,2.3-9.4,46.9-5.5,18.8
			c3.8-28.1-0.2-10.9-0.2-10.9c-14.4,34.7-5.7,5.8-4.7,1.1c1-4.7-16.2,20.4-9.5,7.3s6.1-14.8-0.9-4.4c-6.9,10.4,5.3-15.8,5.3-15.8
			s4-8.1,5.8-6.6"/>
	</g>
	<path id="XMLID_7858_" class="st1" d="M226.4,224.7c2.7,1.9,16.3,38.2,18,41.1c1.7,2.9,0.7,3.8-7.8,7.7
		c-8.5,3.9-32.2-52.8-31.3-59.5c0.3-2.3,4.1-6.4,8.9-10.7"/>
	<g>
		<path class="st1" d="M321.8,194.1l-31.6,69c0,0,18.7,7.3,26,9.8c0.7,0.3,1.4,0.5,2.1,0.7c0.2,0.1,0.5,0.1,0.6,0.1c0,0,0,0,0,0
			c11.6,2.5,26.1-5.8,34.5-25.1c13.6-31.4,4.3-36.3,4.3-36.3c-2.2-2.7-4.6-4.8-7.1-6.2c0-0.1,0.1-0.2,0.1-0.2
			S327.9,195.3,321.8,194.1z"/>
		<g>
			<path class="st1" d="M306,182.8c-0.5-0.1-1-0.3-1.5-0.4c-4-1-7-1.7-8-1.9c-5-1-56.6-20.2-65.3-22.7c-0.3-0.1-0.6-0.1-0.9-0.2
				c-2.6-0.5-5.1,0.3-7.4,1.7c-3.1,1.8-18.6,17-23,29.1c-4.2,11.4-11.1,28.8,5.4,36.7c1.9,0.9,4.1,1.8,6.6,2.7
				c23.2,8.6,60.4,23.9,69.2,30.4c0.4,0.3,0.8,0.6,1.1,0.9c4.5,4.2,17,12.3,23.1,11.8c0.1,0,0.2,0,0.2,0c2.2-0.3,3.5-1.8,3.1-5.1
				c0,0,0.6-3.7,1.7-6.3l22.7-47.6c1.1-1.9,2.2-3.6,3.2-4.9C352.7,197.1,322.6,187.2,306,182.8z"/>
			<path class="st1" d="M310.5,259.5l22.7-47.6c1.1-1.9,2.2-3.6,3.2-4.9c16.3-9.8-13.8-19.7-30.4-24.1c-0.5-0.1-1-0.3-1.5-0.4
				c-4-1-7-1.7-8-1.9c-5-1-56.6-20.2-65.3-22.7c-0.3-0.1-0.6-0.1-0.9-0.2c-2.6-0.5-5.1,0.3-7.4,1.7c-3.1,1.8-18.6,17-23,29.1
				c-4.2,11.4-11.1,28.8,5.4,36.7c1.9,0.9,4.1,1.8,6.6,2.7c23.2,8.6,60.4,23.9,69.2,30.4c0.4,0.3,0.8,0.6,1.1,0.9
				c4.5,4.2,17,12.3,23.1,11.8c0.1,0,0.2,0,0.2,0c2.2-0.3,3.5-1.8,3.1-5.1"/>
		</g>
		<path id="XMLID_7834_" class="st1" d="M268.3,170.9c0,0,56.8,29.9,66.4,31.3"/>
		<g>
			<g>
				<path id="XMLID_7833_" class="st1" d="M221,214c0,0,1.3-0.8,2,0.3"/>
				<path id="XMLID_7832_" class="st1" d="M217.4,221.7c0,0,0.1,1.9,0.7,2.7"/>
				<path id="XMLID_7831_" class="st1" d="M228.1,216.6c0,0-1.5-1.2-2.4-1.2"/>
				<path id="XMLID_7830_" class="st1" d="M229.9,227.4c0,0,1.3-1.3,1.5-2.3"/>
				<path id="XMLID_7829_" class="st1" d="M231.7,219.3c0,0,1,1.1,0.2,2"/>
				<path id="XMLID_7828_" class="st1" d="M221.2,225.3c0,0,1,0.8,1.3,1.3"/>
				<line id="XMLID_7827_" class="st1" x1="218.9" y1="217.1" x2="218.1" y2="218.7"/>
				<path id="XMLID_7826_" class="st1" d="M225.5,227.7c0,0,1.5,1.1,2.5,1.1"/>
			</g>
			<g>
				<path id="XMLID_7825_" class="st1" d="M335.7,254.6c0,0-2.3,0.3-3-0.9"/>
				<path id="XMLID_7824_" class="st1" d="M329,249c0,0,0.7,1.7,1.5,2.3"/>
				<path id="XMLID_7823_" class="st1" d="M339.4,254.2c0,0,1.9,0.2,2.7-0.2"/>
			</g>
		</g>
		<g>
			<path id="XMLID_7822_" class="st1" d="M195.7,198.4c-2.2-0.8-8.2-4.1-10.2-5.1c-1.8-0.9-3.3-1.8-4.4-2.8
				c-15.3,2.1-21.1-23.6-2.4-24.2c5.8-0.2,15.3,4.1,16.9,4.8c2.1,0.9,9.2,3.9,11,4.7c10.3,4.3,12.1,22.9-3.8,23.4"/>
			<path id="XMLID_7821_" class="st1" d="M208.4,176.8c-0.6-0.4-1.2-0.7-1.8-1c-1.8-0.8-8.9-3.8-11-4.7c-1.6-0.7-11-5-16.9-4.8
				c-18.7,0.6-12.8,26.3,2.4,24.2c1.2,0.9,2.6,1.9,4.4,2.8c2,1,7.9,4.3,10.2,5.1l7.1,0.9c12.5-0.4,14-12,9.1-19"/>
		</g>
		<g id="XMLID_7743_">
			<g id="XMLID_7809_">
				<path id="XMLID_7812_" class="st1" d="M139.5,185.4c0,0-19.2,5-7.9,10s24.9,7,25.1,2.3c0.1-4.7-3.2-6.2-3.2-6.2"/>
				<path id="XMLID_7811_" class="st1" d="M138.8,189.4c0,0-8.5,1.5-5.8,3.9"/>
				<path id="XMLID_7810_" class="st1" d="M144.1,189.6c0,0-4.3,5.6-0.2,6.2c4.1,0.6,7.4-0.6,3.8-3.4"/>
			</g>
			<path id="XMLID_7808_" class="st1" d="M100.3,134.7c0,0,1.9,5.7,5.7,1.2S100.4,129.4,100.3,134.7z"/>
			<path id="XMLID_7807_" class="st1" d="M105.6,147.1c0,0,16.1-32.1,53.3-11.3s44.9,22.5,41.1,42.9s-21.7,24.9-32.9,22.6
				C155.8,199,93.6,190.8,105.6,147.1z"/>
			<path id="XMLID_7806_" class="st1" d="M126,124.4c-1.4-0.4-3.2-0.5-5.8-0.2c0,0-0.1,0-0.1,0l0,0c-0.5,0.1-1.1,0.1-1.7,0.2
				c-7.3,1.3-13.2,6-17.2,10.8c-20.5,19.3,1,31,9.5,34.6c0.8,0.3,4.3-10.7,5.9-21.5c10.1-10.3,20.5-19.7,20.5-19.7
				S130.3,124.8,126,124.4z"/>
			<path id="XMLID_7805_" class="st1" d="M149,169.1c0,0,6.9-4.1,7.3-12.8"/>
			<path id="XMLID_7804_" class="st1" d="M143.2,183.7c0,0-1.9,10.4-3.6,12"/>
			<path id="XMLID_7803_" class="st1" d="M189.1,195.2c0,0,2,5.4,7-2.1c5-7.5,5-13.7,1.3-13.4"/>
			<path id="XMLID_7802_" class="st1" d="M111.5,177c0,0,0.1-14.8,9.5-28.3s16.1-19.8,16.1-19.8c-18.4-2-30.4,26.7-35.5,41.7
				c-5.1,14.9,2.1,13.4,2.1,13.4S107.2,182.8,111.5,177z"/>
			<path id="XMLID_7801_" class="st1" d="M111.5,177c0,0-17.4,22.2-4.5-13.2s30.1-35,30.1-35S109.9,155.2,111.5,177z"/>
			<g>
				<path id="XMLID_7800_" class="st1" d="M151.1,172.4c0,0-9.9,2.9-13.9,1"/>
				<g id="XMLID_7797_">
					<path id="XMLID_7799_" class="st1" d="M147.6,183.2c2.1,0.6,3.7,0.5,4.4-0.7c0.4-0.7,0.6-1.3,0.7-1.8c0.1-0.4,0.1-0.8,0-1.1"/>
					<path id="XMLID_7798_" class="st1" d="M126.6,167c0,0,10.3,9.6,18.3,14.4"/>
				</g>
				<g id="XMLID_7791_">
					<path id="XMLID_7796_" class="st1" d="M147.7,185.7c0,0,3.3,6.5,7.7,0"/>
					<path id="XMLID_7795_" class="st1" d="M152.7,173.6c0,0,5.8-3.1,5.8,4.6"/>
					<path id="XMLID_7794_" class="st1" d="M154.5,178.4c0.5-0.6-0.5-2.1,1-2.4c1.5-0.3,0.8,0.4,0.7,1.5
						C156,178.6,154,179,154.5,178.4z"/>
					<path id="XMLID_7793_" class="st1" d="M153.5,185.8c-0.6,1.3-1.8,1.2-2.1,0.2c-0.1-0.3,0.6-0.9,1.3-1.5
						C153.2,184.1,153.5,185.8,153.5,185.8z"/>
					<path id="XMLID_7792_" class="st1" d="M147.8,177.9c0,0,0.5-1.4,1.1-1.5"/>
				</g>
				<path id="XMLID_7790_" class="st1" d="M149.8,189.6c0,0,0.3,4.6,0.3,5.9"/>
				<path id="XMLID_7789_" class="st1" d="M156,171.7c0,0,4-3.6,4.1-4"/>
			</g>
			<path id="XMLID_7788_" class="st1" d="M144.7,144.7c0,0,1.6-0.1,1.7,1.2"/>
			<path id="XMLID_7787_" class="st1" d="M156.5,153.7c0,0,1.1,0.8,1.3,1.3"/>
			<path id="XMLID_7786_" class="st1" d="M133.6,143.7c0,0-2-1.4-2.2-0.9"/>
			<path id="XMLID_7785_" class="st1" d="M112.8,172.9c0,0,1.1-2,1.4-1.6"/>
			<path id="XMLID_7784_" class="st1" d="M122,161.7c0,0,0.7-2.6,0.3-2.9"/>
			<path id="XMLID_7783_" class="st1" d="M176.6,198.2c0,0,1.1-1.6,1.5-1.6"/>
			<path id="XMLID_7782_" class="st1" d="M183.5,183.9c0,0,0.1,1.9,0.7,2.7"/>
			<path id="XMLID_7781_" class="st1" d="M137.7,184.1"/>
			<path id="XMLID_7780_" class="st1" d="M143.9,173.1"/>
			<line id="XMLID_7779_" class="st1" x1="163.6" y1="161.9" x2="163.9" y2="160"/>
			<path id="XMLID_7778_" class="st1" d="M160.2,147.2c0,0-8.6-17.9,2.6-12.5c11.1,5.4,21.4,14.6,17.9,17.7s-6.8,1.5-6.8,1.5"/>
			<path id="XMLID_7777_" class="st1" d="M162.8,144.1c0,0-4.3-7.5-0.7-6.9"/>
			<path id="XMLID_7776_" class="st1" d="M166.4,148c0,0,1.6-6.9,4.6-4.2c3.1,2.7,4.3,6.1-0.2,5.1"/>
			<path id="XMLID_7775_" class="st1" d="M127.4,159.6c0,0,7.7,22.6,22.9,4.7C165.5,146.5,127.4,138.6,127.4,159.6z"/>
			<path id="XMLID_7774_" class="st1" d="M144.2,153.1c0,0,0-4,3.4-2.1C150.9,152.9,146.2,156.7,144.2,153.1z"/>
			<path id="XMLID_7773_" class="st1" d="M125,157.1c0,0-2.3,8,5.3,4.8c7.6-3.2,6.8-15.8,4.6-16.1
				C132.8,145.6,129.2,145.2,125,157.1z"/>
			<path id="XMLID_7772_" class="st1" d="M151.5,153.1c0,0,1.8-3.1,2.8-1c0.9,2.1-1.2,2-1,4.9"/>
			<path id="XMLID_7758_" class="st1" d="M149.8,156.6c0,0-3.7,7.4-4.4,12.4"/>
			<g id="XMLID_7753_">
				<path id="XMLID_7757_" class="st1" d="M162.3,194.5c0,0-3.4,12.8,3.7,7.8C173.2,197.3,162.3,194.5,162.3,194.5z"/>
				<path id="XMLID_7756_" class="st1" d="M157.9,194.8c0,0-4.7,9.8,2.4,7.3c7.1-2.5,5.2-12.9,3.3-14.5
					C161.7,186,157.9,194.8,157.9,194.8z"/>
				<path id="XMLID_7755_" class="st1" d="M168.8,175.9c0,0-3.6,4.2,2.9,5.9c6.5,1.7,9-7.2,7.4-8.4
					C177.5,172.1,174.9,170.1,168.8,175.9z"/>
				<path id="XMLID_7754_" class="st1" d="M165.4,179.3c0,0-7.7,13.5,5,2.3C183,170.5,174.3,164,165.4,179.3z"/>
			</g>
			<g id="XMLID_7749_">
				<path id="XMLID_7752_" class="st1" d="M168.8,195.6c0,0,10.4-4.4,4.8-11.5"/>
				<path id="XMLID_7751_" class="st1" d="M168.3,193.4c0,0-1.3-3,1.5-3.6"/>
				<path id="XMLID_7750_" class="st1" d="M171.3,186.2c0,0-3,1.2-1.5,3.6"/>
			</g>
			<g>
				<path id="XMLID_7748_" class="st1" d="M114.4,183.7c0,0,7.2-23.5,22-7.8S119.3,207.9,114.4,183.7z"/>
				<path id="XMLID_7747_" class="st1" d="M126.1,191c0,0,0-4,3.4-2.1C132.8,190.7,128.1,194.6,126.1,191z"/>
				<path id="XMLID_7746_" class="st1" d="M112.6,177.9c0,0-5.5,11.5,3.2,8.7s6.1-15.1,3.6-17.1C117,167.6,112.6,177.9,112.6,177.9z
					"/>
				<path id="XMLID_7745_" class="st1" d="M133.3,193c0,0-0.9,3.5,1.2,2.7s0.5-2.3,2.8-4.2"/>
				<path id="XMLID_7744_" class="st1" d="M134.2,189c0,0,1-4.8,4.6-9.1"/>
			</g>
		</g>
		<path id="XMLID_7742_" class="st1" d="M208,200.7c-0.4,0.4-1,0.8-2,1"/>
		<path id="XMLID_7741_" class="st1" d="M213.7,175.2c0,0,0.7,0.4,1.1,1.2"/>
		<path id="XMLID_7740_" class="st1" d="M211.2,200.5c4-3,4.8-8.4,3.1-13.1"/>
		<path id="XMLID_7739_" class="st1" d="M217.8,182.1c0,0.2,0,0.4,0,0.7"/>
		<path id="XMLID_7738_" class="st1" d="M323.7,217.2c0,0-60-22.8-67.3-29.1"/>
		<path id="XMLID_7722_" class="st1" d="M282.3,253.5c0,0,19.8,7.1,20.5,10.6"/>
	</g>
	<path id="XMLID_7721_" class="st1" d="M340.2,224.4c0,0,7.4,1.7,13.5,1.4s62.3,6.8,66.8-8.5s31.1-75.1,31.1-75.1l11.6,3
		c0,0-37,84.1-36.9,90.6c0.1,6.5-59.6,0.3-85.3,4.9"/>
	<g id="XMLID_7714_">
		<path id="XMLID_7719_" class="st1" d="M452.4,139c-0.1,0-0.1,0-0.1,0s-0.6,1.6-1.7,4.5l10.3,5.4c0.4-0.8,0.7-1.3,1-1.6
			c0.5-0.3,0.8-0.4,0.8-0.4s10.5-4.9,18.1-3.8c6.8,1,28,5.7,14.2,0.7c2.8,0.2,3.8-0.4-1.7-3.2c0-0.4-0.2-1.1-0.9-2.1
			c0.5-0.3-0.3-1-3.9-2.4c-10.3-4-27.5-12.5-32.8-11.2C451,125.9,453.7,130.4,452.4,139z"/>
		<path id="XMLID_7718_" class="st1" d="M489.4,141.8c23.8,7.8-1.2,2.3-8.7,1.1c-7.5-1.1-18.1,3.8-18.1,3.8s-0.3,0.2-0.8,0.4
			c-0.2,0.3-0.6,0.8-1,1.6l-10.3-5.4c1.1-2.8,1.7-4.5,1.7-4.5s0,0,0.1,0c1.2-8.6-1.4-13.1,3.2-14.2c5.3-1.3,22.4,7.2,32.8,11.2"/>
		<path id="XMLID_7717_" class="st1" d="M485.8,142c0,0,21.1,5,5.7-2.4"/>
		<path id="XMLID_7716_" class="st1" d="M492.1,138.1c3.9,5.5-4,1.9-4,1.9"/>
		<path id="XMLID_7715_" class="st1" d="M486.2,138.2c0,0,12.5,1.8,2.2-2.2"/>
	</g>
	<path id="XMLID_7861_" class="st1" d="M232.6,165.8c0,0-66.3,44.9-79.5,49.2c-13.2,4.3-76.5,24.6-76.5,24.6l4.5,9.8
		c0,0,70.4-25.2,74.2-24.8c3.8,0.4,35.7-18,87.3-44.3"/>
	<g id="XMLID_7859_">
		<path id="XMLID_7860_" class="st1" d="M82.4,248.3c-2.7,6.3-3.7,8.2-8.7,13c-5,4.8,5.9-9.8,4-8.4c-1.9,1.4-39.8,26.5-17.2,9.4
			c22.6-17.1,7.5-7.9,7.5-7.9c-34.7,14.4-8.1,0.1-4.1-2.5c4-2.6-25.9,3-11.8-1.6c14-4.6,14.7-6.2,2.5-3.7
			c-12.3,2.5,14.9-7.4,14.9-7.4s8.6-2.9,8.7-0.6"/>
	</g>
	<path id="XMLID_7857_" class="st1" d="M216.5,174.6c-3.3,0-35.2,22-38.2,23.4c-3,1.4-2.8,2.7,2,10.8c4.7,8.1,56.6-24.9,59.8-30.9
		c1.1-2.1,0.3-7.6-1.2-13.9"/>
</g>
<g>
	<g id="XMLID_398_">
		<path id="XMLID_403_" class="st2" d="M412.3,232.2c-0.1,0-0.1,0-0.1,0s-0.6,1.6-1.7,4.5l10.3,5.4c0.4-0.8,0.7-1.3,1-1.6
			c0.5-0.3,0.8-0.4,0.8-0.4s10.5-4.9,18.1-3.8c6.8,1,28,5.7,14.2,0.7c2.8,0.2,3.8-0.4-1.7-3.2c0-0.4-0.2-1.1-0.9-2.1
			c0.5-0.3-0.3-1-3.9-2.4c-10.3-4-27.5-12.5-32.8-11.2C410.9,219.1,413.5,223.6,412.3,232.2z"/>
		<path id="XMLID_402_" class="st2" d="M449.3,235c23.8,7.8-1.2,2.3-8.7,1.1c-7.5-1.1-18.1,3.8-18.1,3.8s-0.3,0.2-0.8,0.4
			c-0.2,0.3-0.6,0.8-1,1.6l-10.3-5.4c1.1-2.8,1.7-4.5,1.7-4.5s0,0,0.1,0c1.2-8.6-1.4-13.1,3.2-14.2c5.3-1.3,22.4,7.2,32.8,11.2"/>
		<path id="XMLID_401_" class="st2" d="M445.7,235.3c0,0,21.1,5,5.7-2.4"/>
		<path id="XMLID_400_" class="st2" d="M452,231.4c3.9,5.5-4,1.9-4,1.9"/>
		<path id="XMLID_399_" class="st2" d="M446,231.4c0,0,12.5,1.8,2.2-2.2"/>
	</g>
	<path id="XMLID_397_" class="st2" d="M358.5,305.1c1.1,1.2,2.2,2.3,3.3,3.3c9,9.2,15.1,13.7,19.2,15c-0.2-0.1-0.4-0.3-0.7-0.4
		c0.3,0.2,0.5,0.3,0.8,0.5c0.1,0,0.2,0,0.2,0.1c0,0,0,0,0,0c0,0,0,0,0,0c0.6,0.2,1.2,0.3,1.8,0.3c2.7-0.5,4-2,4.5-4.2
		c0.2-1.1,1.6-4.4,3.5-9.2c0.1-0.2,0.3-0.3,0.4-0.5c13.2-30.7,30.7-70.8,30.7-70.8s-12.6-4.1-11.7-2.7c0.5,0.9-12.7,30.7-23.5,56.1
		c0-0.1,0-0.1,0-0.2c-0.8,2-1.6,3.9-2.3,5.7c-1.1,2.6-2.2,5.2-3.2,7.6c0,0.2,0,0.5,0,0.7c-0.1,0.2-0.3,0.3-0.4,0.5
		c-1.7-0.6-3.5-1.6-5.4-2.9c-3.1-2-6.5-4.8-9.9-7.9c-9.3-8.4-19.3-19.3-26-25.4c-13.7-12.5-19.1-21.7-19.1-21.7l-10.1,10.1
		C317.4,262.7,342.1,288.3,358.5,305.1z"/>
	<path id="XMLID_396_" class="st2" d="M188.7,199.4c0,0,7.1,6.2,18.1,30.2c11.1,23.9,21.6,42.5,14.3,57.3s-25.6,67.9-27.7,69
		l9.1,3.8c0,0,28.7-70.6,33.1-74.2c4.4-3.6,4.8-28.5-30.8-92.2"/>
	<g id="XMLID_394_">
		<path id="XMLID_395_" class="st2" d="M204.4,358.3c2.5,6.4,3.2,8.4,3.1,15.4s-2.7-11.1-3.1-8.8c-0.4,2.3-9.4,46.9-5.5,18.8
			c3.8-28.1-0.2-10.9-0.2-10.9c-14.4,34.7-5.7,5.8-4.7,1.1c1-4.7-16.2,20.4-9.5,7.3s6.1-14.8-0.9-4.4c-6.9,10.4,5.3-15.8,5.3-15.8
			s4-8.1,5.8-6.6"/>
	</g>
	<path id="XMLID_393_" class="st2" d="M216.4,215.7c2.7,1.9,16.3,38.2,18,41.1c1.7,2.9,0.7,3.8-7.8,7.7
		c-8.5,3.9-32.2-52.8-31.3-59.5c0.3-2.3,4.1-6.4,8.9-10.7"/>
	<g>
		<path class="st2" d="M311.8,185.1l-31.6,69c0,0,18.7,7.3,26,9.8c0.7,0.3,1.4,0.5,2.1,0.7c0.2,0.1,0.5,0.1,0.6,0.1c0,0,0,0,0,0
			c11.6,2.5,26.1-5.8,34.5-25.1c13.6-31.4,4.3-36.3,4.3-36.3c-2.2-2.7-4.6-4.8-7.1-6.2c0-0.1,0.1-0.2,0.1-0.2
			S317.9,186.3,311.8,185.1z"/>
		<g>
			<path class="st3" d="M296,173.8c-0.5-0.1-1-0.3-1.5-0.4c-4-1-7-1.7-8-1.9c-5-1-56.6-20.2-65.3-22.7c-0.3-0.1-0.6-0.1-0.9-0.2
				c-2.6-0.5-5.1,0.3-7.4,1.7c-3.1,1.8-18.6,17-23,29.1c-4.2,11.4-11.1,28.8,5.4,36.7c1.9,0.9,4.1,1.8,6.6,2.7
				c23.2,8.6,60.4,23.9,69.2,30.4c0.4,0.3,0.8,0.6,1.1,0.9c4.5,4.2,17,12.3,23.1,11.8c0.1,0,0.2,0,0.2,0c2.2-0.3,3.5-1.8,3.1-5.1
				c0,0,0.6-3.7,1.7-6.3l22.7-47.6c1.1-1.9,2.2-3.6,3.2-4.9C342.7,188.1,312.6,178.2,296,173.8z"/>
			<path class="st2" d="M300.5,250.5l22.7-47.6c1.1-1.9,2.2-3.6,3.2-4.9c16.3-9.8-13.8-19.7-30.4-24.1c-0.5-0.1-1-0.3-1.5-0.4
				c-4-1-7-1.7-8-1.9c-5-1-56.6-20.2-65.3-22.7c-0.3-0.1-0.6-0.1-0.9-0.2c-2.6-0.5-5.1,0.3-7.4,1.7c-3.1,1.8-18.6,17-23,29.1
				c-4.2,11.4-11.1,28.8,5.4,36.7c1.9,0.9,4.1,1.8,6.6,2.7c23.2,8.6,60.4,23.9,69.2,30.4c0.4,0.3,0.8,0.6,1.1,0.9
				c4.5,4.2,17,12.3,23.1,11.8c0.1,0,0.2,0,0.2,0c2.2-0.3,3.5-1.8,3.1-5.1"/>
		</g>
		<path id="XMLID_392_" class="st2" d="M258.3,161.9c0,0,56.8,29.9,66.4,31.3"/>
		<g>
			<g>
				<path id="XMLID_391_" class="st2" d="M211,205c0,0,1.3-0.8,2,0.3"/>
				<path id="XMLID_390_" class="st2" d="M207.4,212.7c0,0,0.1,1.9,0.7,2.7"/>
				<path id="XMLID_389_" class="st2" d="M218.1,207.6c0,0-1.5-1.2-2.4-1.2"/>
				<path id="XMLID_388_" class="st2" d="M219.9,218.4c0,0,1.3-1.3,1.5-2.3"/>
				<path id="XMLID_387_" class="st2" d="M221.7,210.3c0,0,1,1.1,0.2,2"/>
				<path id="XMLID_386_" class="st2" d="M211.2,216.3c0,0,1,0.8,1.3,1.3"/>
				<line id="XMLID_385_" class="st2" x1="208.9" y1="208.1" x2="208.1" y2="209.7"/>
				<path id="XMLID_384_" class="st2" d="M215.5,218.7c0,0,1.5,1.1,2.5,1.1"/>
			</g>
			<g>
				<path id="XMLID_383_" class="st2" d="M325.7,245.6c0,0-2.3,0.3-3-0.9"/>
				<path id="XMLID_382_" class="st2" d="M319,240c0,0,0.7,1.7,1.5,2.3"/>
				<path id="XMLID_381_" class="st2" d="M329.4,245.2c0,0,1.9,0.2,2.7-0.2"/>
			</g>
		</g>
		<g>
			<path id="XMLID_380_" class="st3" d="M185.7,189.4c-2.2-0.8-8.2-4.1-10.2-5.1c-1.8-0.9-3.3-1.8-4.4-2.8
				c-15.3,2.1-21.1-23.6-2.4-24.2c5.8-0.2,15.3,4.1,16.9,4.8c2.1,0.9,9.2,3.9,11,4.7c10.3,4.3,12.1,22.9-3.8,23.4"/>
			<path id="XMLID_379_" class="st4" d="M198.4,167.8c-0.6-0.4-1.2-0.7-1.8-1c-1.8-0.8-8.9-3.8-11-4.7c-1.6-0.7-11-5-16.9-4.8
				c-18.7,0.6-12.8,26.3,2.4,24.2c1.2,0.9,2.6,1.9,4.4,2.8c2,1,7.9,4.3,10.2,5.1l7.1,0.9c12.5-0.4,14-12,9.1-19"/>
		</g>
		<g id="XMLID_322_">
			<g id="XMLID_375_">
				<path id="XMLID_378_" class="st2" d="M129.5,176.4c0,0-19.2,5-7.9,10s24.9,7,25.1,2.3c0.1-4.7-3.2-6.2-3.2-6.2"/>
				<path id="XMLID_377_" class="st2" d="M128.8,180.4c0,0-8.5,1.5-5.8,3.9"/>
				<path id="XMLID_376_" class="st2" d="M134.1,180.6c0,0-4.3,5.6-0.2,6.2c4.1,0.6,7.4-0.6,3.8-3.4"/>
			</g>
			<path id="XMLID_374_" class="st2" d="M90.3,125.7c0,0,1.9,5.7,5.7,1.2S90.4,120.4,90.3,125.7z"/>
			<path id="XMLID_373_" class="st2" d="M95.6,138.1c0,0,16.1-32.1,53.3-11.3s44.9,22.5,41.1,42.9s-21.7,24.9-32.9,22.6
				C145.8,190,83.6,181.8,95.6,138.1z"/>
			<path id="XMLID_372_" class="st2" d="M116,115.4c-1.4-0.4-3.2-0.5-5.8-0.2c0,0-0.1,0-0.1,0l0,0c-0.5,0.1-1.1,0.1-1.7,0.2
				c-7.3,1.3-13.2,6-17.2,10.8c-20.5,19.3,1,31,9.5,34.6c0.8,0.3,4.3-10.7,5.9-21.5c10.1-10.3,20.5-19.7,20.5-19.7
				S120.3,115.8,116,115.4z"/>
			<path id="XMLID_371_" class="st2" d="M139,160.1c0,0,6.9-4.1,7.3-12.8"/>
			<path id="XMLID_370_" class="st2" d="M133.2,174.7c0,0-1.9,10.4-3.6,12"/>
			<path id="XMLID_369_" class="st2" d="M179.1,186.2c0,0,2,5.4,7-2.1c5-7.5,5-13.7,1.3-13.4"/>
			<path id="XMLID_368_" class="st2" d="M101.5,168c0,0,0.1-14.8,9.5-28.3s16.1-19.8,16.1-19.8c-18.4-2-30.4,26.7-35.5,41.7
				c-5.1,14.9,2.1,13.4,2.1,13.4S97.2,173.8,101.5,168z"/>
			<path id="XMLID_367_" class="st2" d="M101.5,168c0,0-17.4,22.2-4.5-13.2s30.1-35,30.1-35S99.9,146.2,101.5,168z"/>
			<g>
				<path id="XMLID_366_" class="st2" d="M141.1,163.4c0,0-9.9,2.9-13.9,1"/>
				<g id="XMLID_363_">
					<path id="XMLID_365_" class="st2" d="M137.6,174.2c2.1,0.6,3.7,0.5,4.4-0.7c0.4-0.7,0.6-1.3,0.7-1.8c0.1-0.4,0.1-0.8,0-1.1"/>
					<path id="XMLID_364_" class="st2" d="M116.6,158c0,0,10.3,9.6,18.3,14.4"/>
				</g>
				<g id="XMLID_357_">
					<path id="XMLID_362_" class="st2" d="M137.7,176.7c0,0,3.3,6.5,7.7,0"/>
					<path id="XMLID_361_" class="st2" d="M142.7,164.6c0,0,5.8-3.1,5.8,4.6"/>
					<path id="XMLID_360_" class="st2" d="M144.5,169.4c0.5-0.6-0.5-2.1,1-2.4c1.5-0.3,0.8,0.4,0.7,1.5
						C146,169.6,144,170,144.5,169.4z"/>
					<path id="XMLID_359_" class="st2" d="M143.5,176.8c-0.6,1.3-1.8,1.2-2.1,0.2c-0.1-0.3,0.6-0.9,1.3-1.5
						C143.2,175.1,143.5,176.8,143.5,176.8z"/>
					<path id="XMLID_358_" class="st2" d="M137.8,168.9c0,0,0.5-1.4,1.1-1.5"/>
				</g>
				<path id="XMLID_356_" class="st2" d="M139.8,180.6c0,0,0.3,4.6,0.3,5.9"/>
				<path id="XMLID_355_" class="st2" d="M146,162.7c0,0,4-3.6,4.1-4"/>
			</g>
			<path id="XMLID_354_" class="st2" d="M134.7,135.7c0,0,1.6-0.1,1.7,1.2"/>
			<path id="XMLID_353_" class="st2" d="M146.5,144.7c0,0,1.1,0.8,1.3,1.3"/>
			<path id="XMLID_352_" class="st2" d="M123.6,134.7c0,0-2-1.4-2.2-0.9"/>
			<path id="XMLID_351_" class="st2" d="M102.8,163.9c0,0,1.1-2,1.4-1.6"/>
			<path id="XMLID_350_" class="st2" d="M112,152.7c0,0,0.7-2.6,0.3-2.9"/>
			<path id="XMLID_349_" class="st2" d="M166.6,189.2c0,0,1.1-1.6,1.5-1.6"/>
			<path id="XMLID_348_" class="st2" d="M173.5,174.9c0,0,0.1,1.9,0.7,2.7"/>
			<path id="XMLID_347_" class="st2" d="M127.7,175.1"/>
			<path id="XMLID_346_" class="st2" d="M133.9,164.1"/>
			<line id="XMLID_345_" class="st2" x1="153.6" y1="152.9" x2="153.9" y2="151"/>
			<path id="XMLID_344_" class="st2" d="M150.2,138.2c0,0-8.6-17.9,2.6-12.5c11.1,5.4,21.4,14.6,17.9,17.7s-6.8,1.5-6.8,1.5"/>
			<path id="XMLID_343_" class="st2" d="M152.8,135.1c0,0-4.3-7.5-0.7-6.9"/>
			<path id="XMLID_342_" class="st2" d="M156.4,139c0,0,1.6-6.9,4.6-4.2c3.1,2.7,4.3,6.1-0.2,5.1"/>
			<path id="XMLID_341_" class="st2" d="M117.4,150.6c0,0,7.7,22.6,22.9,4.7C155.5,137.5,117.4,129.6,117.4,150.6z"/>
			<path id="XMLID_340_" class="st2" d="M134.2,144.1c0,0,0-4,3.4-2.1C140.9,143.9,136.2,147.7,134.2,144.1z"/>
			<path id="XMLID_339_" class="st2" d="M115,148.1c0,0-2.3,8,5.3,4.8c7.6-3.2,6.8-15.8,4.6-16.1C122.8,136.6,119.2,136.2,115,148.1
				z"/>
			<path id="XMLID_338_" class="st2" d="M141.5,144.1c0,0,1.8-3.1,2.8-1c0.9,2.1-1.2,2-1,4.9"/>
			<path id="XMLID_337_" class="st2" d="M139.8,147.6c0,0-3.7,7.4-4.4,12.4"/>
			<g id="XMLID_332_">
				<path id="XMLID_336_" class="st2" d="M152.3,185.5c0,0-3.4,12.8,3.7,7.8C163.2,188.3,152.3,185.5,152.3,185.5z"/>
				<path id="XMLID_335_" class="st2" d="M147.9,185.8c0,0-4.7,9.8,2.4,7.3c7.1-2.5,5.2-12.9,3.3-14.5
					C151.7,177,147.9,185.8,147.9,185.8z"/>
				<path id="XMLID_334_" class="st2" d="M158.8,166.9c0,0-3.6,4.2,2.9,5.9c6.5,1.7,9-7.2,7.4-8.4
					C167.5,163.1,164.9,161.1,158.8,166.9z"/>
				<path id="XMLID_333_" class="st2" d="M155.4,170.3c0,0-7.7,13.5,5,2.3C173,161.5,164.3,155,155.4,170.3z"/>
			</g>
			<g id="XMLID_328_">
				<path id="XMLID_331_" class="st2" d="M158.8,186.6c0,0,10.4-4.4,4.8-11.5"/>
				<path id="XMLID_330_" class="st2" d="M158.3,184.4c0,0-1.3-3,1.5-3.6"/>
				<path id="XMLID_329_" class="st2" d="M161.3,177.2c0,0-3,1.2-1.5,3.6"/>
			</g>
			<g>
				<path id="XMLID_327_" class="st2" d="M104.4,174.7c0,0,7.2-23.5,22-7.8S109.3,198.9,104.4,174.7z"/>
				<path id="XMLID_326_" class="st2" d="M116.1,182c0,0,0-4,3.4-2.1C122.8,181.7,118.1,185.6,116.1,182z"/>
				<path id="XMLID_325_" class="st2" d="M102.6,168.9c0,0-5.5,11.5,3.2,8.7s6.1-15.1,3.6-17.1C107,158.6,102.6,168.9,102.6,168.9z"
					/>
				<path id="XMLID_324_" class="st2" d="M123.3,184c0,0-0.9,3.5,1.2,2.7s0.5-2.3,2.8-4.2"/>
				<path id="XMLID_323_" class="st2" d="M124.2,180c0,0,1-4.8,4.6-9.1"/>
			</g>
		</g>
		<path id="XMLID_321_" class="st2" d="M198,191.7c-0.4,0.4-1,0.8-2,1"/>
		<path id="XMLID_320_" class="st2" d="M203.7,166.2c0,0,0.7,0.4,1.1,1.2"/>
		<path id="XMLID_319_" class="st4" d="M201.2,191.5c4-3,4.8-8.4,3.1-13.1"/>
		<path id="XMLID_318_" class="st2" d="M207.8,173.1c0,0.2,0,0.4,0,0.7"/>
		<path id="XMLID_317_" class="st2" d="M313.7,208.2c0,0-60-22.8-67.3-29.1"/>
		<path id="XMLID_316_" class="st2" d="M272.3,244.5c0,0,19.8,7.1,20.5,10.6"/>
	</g>
	<path id="XMLID_315_" class="st2" d="M330.2,215.4c0,0,7.4,1.7,13.5,1.4s62.3,6.8,66.8-8.5s31.1-75.1,31.1-75.1l11.6,3
		c0,0-37,84.1-36.9,90.6c0.1,6.5-59.6,0.3-85.3,4.9"/>
	<g id="XMLID_308_">
		<path id="XMLID_313_" class="st2" d="M442.4,130c-0.1,0-0.1,0-0.1,0s-0.6,1.6-1.7,4.5l10.3,5.4c0.4-0.8,0.7-1.3,1-1.6
			c0.5-0.3,0.8-0.4,0.8-0.4s10.5-4.9,18.1-3.8c6.8,1,28,5.7,14.2,0.7c2.8,0.2,3.8-0.4-1.7-3.2c0-0.4-0.2-1.1-0.9-2.1
			c0.5-0.3-0.3-1-3.9-2.4c-10.3-4-27.5-12.5-32.8-11.2C441,116.9,443.7,121.4,442.4,130z"/>
		<path id="XMLID_312_" class="st2" d="M479.4,132.8c23.8,7.8-1.2,2.3-8.7,1.1c-7.5-1.1-18.1,3.8-18.1,3.8s-0.3,0.2-0.8,0.4
			c-0.2,0.3-0.6,0.8-1,1.6l-10.3-5.4c1.1-2.8,1.7-4.5,1.7-4.5s0,0,0.1,0c1.2-8.6-1.4-13.1,3.2-14.2c5.3-1.3,22.4,7.2,32.8,11.2"/>
		<path id="XMLID_311_" class="st2" d="M475.8,133c0,0,21.1,5,5.7-2.4"/>
		<path id="XMLID_310_" class="st2" d="M482.1,129.1c3.9,5.5-4,1.9-4,1.9"/>
		<path id="XMLID_309_" class="st2" d="M476.2,129.2c0,0,12.5,1.8,2.2-2.2"/>
	</g>
	<path id="XMLID_307_" class="st2" d="M222.6,156.8c0,0-66.3,44.9-79.5,49.2c-13.2,4.3-76.5,24.6-76.5,24.6l4.5,9.8
		c0,0,70.4-25.2,74.2-24.8c3.8,0.4,35.7-18,87.3-44.3"/>
	<g id="XMLID_305_">
		<path id="XMLID_306_" class="st2" d="M72.4,239.3c-2.7,6.3-3.7,8.2-8.7,13c-5,4.8,5.9-9.8,4-8.4c-1.9,1.4-39.8,26.5-17.2,9.4
			s7.5-7.9,7.5-7.9c-34.7,14.4-8.1,0.1-4.1-2.5c4-2.6-25.9,3-11.8-1.6c14-4.6,14.7-6.2,2.5-3.7c-12.3,2.5,14.9-7.4,14.9-7.4
			s8.6-2.9,8.7-0.6"/>
	</g>
	<path id="XMLID_304_" class="st2" d="M206.5,165.6c-3.3,0-35.2,22-38.2,23.4c-3,1.4-2.8,2.7,2,10.8c4.7,8.1,56.6-24.9,59.8-30.9
		c1.1-2.1,0.3-7.6-1.2-13.9"/>
</g>
</svg>
