<?xml version="1.0" encoding="utf-8"?>
<!-- Generator: Adobe Illustrator 22.1.0, SVG Export Plug-In . SVG Version: 6.00 Build 0)  -->
<svg version="1.1" id="Layer_1" xmlns="http://www.w3.org/2000/svg" xmlns:xlink="http://www.w3.org/1999/xlink" x="0px" y="0px"
	 viewBox="0 0 588.8 748.8" style="enable-background:new 0 0 588.8 748.8;" xml:space="preserve">
<style type="text/css">
	.st0{opacity:0.1;fill:#584C4F;stroke:#584C4F;stroke-width:4;stroke-miterlimit:10;enable-background:new    ;}
	.st1{fill:#584C4F;stroke:#584C4F;stroke-width:4;stroke-miterlimit:10;}
	.st2{fill:#FFD767;stroke:#584C4F;stroke-width:4;stroke-miterlimit:10;}
	.st3{fill:#584C4F;stroke:#584C4F;stroke-width:2;stroke-miterlimit:10;}
</style>
<path class="st0" d="M21.3-1v0.2L21,752.3h2.4h410.3v-1.2h0.9c5.3-7.3,13.3-8.6,21.4-9c15.8-0.7,31.6-1,47.5-1.5
	c6-0.2,10.4-3.7,10.4-8.3c0-4.2-4.4-7.5-10.3-7.2c-6.9,0.4-13.7,1.5-20.6,1.9c-3.3,0.2-6.7-0.5-10.1-1.1c-4.1-0.7-7.8-2.2-7.1-7.4
	c0.7-4.7,4.4-6.1,8.5-7.6c6.3-2.3,12.5-5.1,18.5-8.3c7.6-4.1,14.5-9.8,22.4-13c13.8-5.5,28.5-5.9,43.3-4.4
	c5.6,0.6,11.3,1.1,16.8,0.5c0.6-0.1,1.1-0.3,1.6-0.6c3-2.1,3.2-6.5,0.6-9c-0.7-0.6-1.4-1.2-2.2-1.5c-2.4-1-5.5-0.1-8.3,0
	c-11.8,0.3-23.7,0.9-35.5,1c-8.1,0-14.7-4.2-20.3-9.6c-10.4-10.1-4.3-28.4,9.2-30.6c5-0.8,9.9-1.5,14.9-2c3.9-0.4,10.2-0.2,14.1,0.5
	c5.6,0.9,12.3,0.5,12.3-7.1c0-5.4-4.1-6-8.2-5.9c-2.2,0.1-4.3,0.6-6.5,0.6c-18.7,0.6-37.5,2.8-55.8-3.7c-11.2-4-14.8-10.4-13.4-21
	c1.5-11.6,9.1-18.8,20.8-20.3c10.5-1.3,21-2.4,31.4-3.8c4.9-0.6,8.8-5.6,8.5-10.5c-0.4-5.7-3.9-7.6-9.1-7.8
	c-19.4-0.8-38.9-2.3-58.3-2.4c-11.3-0.1-17.8-8-19.1-17.8c-2.3-17,31.2-22.8,43.4-25.7c3-0.7,6-1.3,9-1.9c8.4-1.5,16.9-2.4,25.4-2.6
	c6-0.2,12.1-0.2,18,0.4c5.4,0.6,10.6,3.1,16.1,2.6c4.5-0.4,13.5-6.8,8-11.7c-1.5-1.3-3.5-2-5.5-1.9c-33.1,1.2-67.2,0.8-99.5-7.6
	c-1.5-0.4-3-0.8-4.1-1.8c-1.2-1.1-1.7-2.7-2.1-4.2c-1.1-4.6-1.3-11.4,1.1-15.6c2.3-3.9,6.8-6,8.8-10.4c0.7-1.6,1.3-3.2,1.5-4.8
	c8.7-1.7,14.8-5.9,14.8-10.8c0-5.8-8.5-10.6-19.6-11.5c3.8-3.9,6.1-9.2,6.1-15.1c0-3.1-0.7-6.1-1.8-8.8c11.1-4,19.4-10.3,20.9-23.9
	c0.2-2.4,2.5-5,4.5-6.7c14-12.1,32.5-15.6,50.4-11.8c3.7,0.8,7.5,1.9,11.2,1.1s6.2-4.5,6.5-8.2c0.1-1.5-0.2-3.1-1-4.4
	c-1.9-2.7-4.9-2.5-7.6-2.2c-13.1,1.3-27,4.1-40.2,2.8c-10.1-0.9-20-3.9-30-6c-9.2-1.9-18.5-3.4-27.6-5.9c-3-0.8-5.6-2.4-7.4-4.6
	c-0.7-7.5-3.7-13.8,2.7-18.7c5.3-4,12.2-5.6,17.6-9.7c5.2-3.9,8.9-9.7,10.5-15.9c3.2-2.1,6.4-4.2,9.9-5.6c10.1-4,20.8-4.3,31.5-3.2
	c4.1,0.4,8.2,0.8,12.3,0.4c0.8-0.1,1.5-0.6,2.2-1.4c1.3-1.4,1.4-3.5,0.1-4.9c-0.7-0.8-1.5-1.5-2.3-1.8c-1.7-0.7-4-0.1-6.1,0
	c-8.6,0.3-17.2,0.7-25.8,0.7c-5.9,0-10.7-3-14.8-7c-5.6-5.4-4.1-19.5,2.6-21.3c6.8-1.8,14.1-2.2,21.2-2.8c2.2-0.2,4.6,1.5,6.8,1.4
	c3.2-0.3,6.1-2,6.1-5.8c0-3.9-3-4.4-6-4.3c-1.6,0-3.1,0.4-4.7,0.5c-13.6,0.4-27.3,2-40.6-2.7c-8.2-2.9-10.7-7.5-9.8-15.3
	c1.1-8.4,6.6-13.7,15.1-14.7c7.6-0.9,15.3-1.8,22.9-2.8c3.6-0.5,6.4-4.1,6.2-7.6c-0.3-4.1-2.8-5.5-6.7-5.7
	c-14.1-0.6-28.3-1.7-42.4-1.8c-8.2,0-12.9-5.8-13.9-12.9c-0.7-5.4,2.5-10.3,8.2-11c4.3-0.5,9-3.3,13.9-5c3.8-1.3,7.7-2.6,11.5-3.4
	c24.3-5.7,51.1-0.3,64.9-0.4c2.8,0,5.9,0.8,8.4-0.1c1.9-0.6,3.9-3,4.3-5c0.6-2.7-1.2-4.8-4.4-4.7c-2,0-4.1,0.3-6.1,0.3
	c-14.3-0.1-34.7,4.2-66.3-0.6c-8.6-1.3-17.1-4.4-25.8-6.1c-4.2-0.9-6.1-3.2-5.4-6.7c0.7-3.3,2.2-7.1,4.7-9.1
	c10-8.1,9.1-17.8-2.6-23.2c-4.1-1.9-5.6-5.3-4.4-9.6c1.5-5.3,5.4-8.4,10.3-9.8c9.5-2.8,17-7.3,18.2-18.4c0.2-1.7,1.8-3.6,3.3-4.9
	c11.8-10.2,25.7-11.4,40.1-7.8c3.4,0.9,5.7,0,7.7-1.5c1.4-1,2.3-4,1.9-5.7c-0.4-1.6-2.8-3.6-4.4-3.7c-3.9-0.2-7.8,0.8-11.7,1.1
	c-6.5,0.5-13.1,1.6-19.5,1c-7.3-0.7-14.6-2.8-21.8-4.4c-6.7-1.4-13.5-2.5-20.1-4.3c-4-1.1-7.1-4-7.8-8.5C441,4.6,437.7,2,425-2
	C412.6-5.4,21.3-1,21.3-1z M489.5,671.7c2.9,0.2,6.8,3.5,7.7,6.3c0.8,2.2-1.6,6.4-3.8,8.5c-9.9,9.6-22.6,12.3-35.8,12.6
	c-6.2,0.2-8.7-3.4-8.6-10.3c0.1-8.3,5.3-15.8,13.7-16.9C471.5,670.7,480.6,671,489.5,671.7z M468.2,652.1l1.4,0.1
	c4.6,1.2,9.2,1.8,13.8,3.2c1,0.3,2.2,1.8,2.2,2.7s-1.3,2.6-2.2,2.6c-5.5,0.4-10.7,3.4-16.6,1c-3.3-1.4-5.5-2.8-5.1-6.3
	C462.2,651.8,465.3,652,468.2,652.1z"/>
<path class="st1" d="M11.3-1v0.2L11,752.3h2.4h410.3v-1.2h0.9c5.3-7.3,13.3-8.6,21.4-9c15.8-0.7,31.6-1,47.5-1.5
	c6-0.2,10.4-3.7,10.4-8.3c0-4.2-4.4-7.5-10.3-7.2c-6.9,0.4-13.7,1.5-20.6,1.9c-3.3,0.2-6.7-0.5-10.1-1.1c-4.1-0.7-7.8-2.2-7.1-7.4
	c0.7-4.7,4.4-6.1,8.5-7.6c6.3-2.3,12.5-5.1,18.5-8.3c7.6-4.1,14.5-9.8,22.4-13c13.8-5.5,28.5-5.9,43.3-4.4
	c5.6,0.6,11.3,1.1,16.8,0.5c0.6-0.1,1.1-0.3,1.6-0.6c3-2.1,3.2-6.5,0.6-9c-0.7-0.6-1.4-1.2-2.2-1.5c-2.4-1-5.5-0.1-8.3,0
	c-11.8,0.3-23.7,0.9-35.5,1c-8.1,0-14.7-4.2-20.3-9.6c-10.4-10.1-4.3-28.4,9.2-30.6c5-0.8,9.9-1.5,14.9-2c3.9-0.4,10.2-0.2,14.1,0.5
	c5.6,0.9,12.3,0.5,12.3-7.1c0-5.4-4.1-6-8.2-5.9c-2.2,0.1-4.3,0.6-6.5,0.6c-18.7,0.6-37.5,2.8-55.8-3.7c-11.2-4-14.8-10.4-13.4-21
	c1.5-11.6,9.1-18.8,20.8-20.3c10.5-1.3,21-2.4,31.4-3.8c4.9-0.6,8.8-5.6,8.5-10.5c-0.4-5.7-3.9-7.6-9.1-7.8
	c-19.4-0.8-38.9-2.3-58.3-2.4c-11.3-0.1-17.8-8-19.1-17.8c-2.3-17,31.2-22.8,43.4-25.7c3-0.7,6-1.3,9-1.9c8.4-1.5,16.9-2.4,25.4-2.6
	c6-0.2,12.1-0.2,18,0.4c5.4,0.6,10.6,3.1,16.1,2.6c4.5-0.4,13.5-6.8,8-11.7c-1.5-1.3-3.5-2-5.5-1.9c-33.1,1.2-67.2,0.8-99.5-7.6
	c-1.5-0.4-3-0.8-4.1-1.8c-1.2-1.1-1.7-2.7-2.1-4.2c-1.1-4.6-1.3-11.4,1.1-15.6c2.3-3.9,6.8-6,8.8-10.4c0.7-1.6,1.3-3.2,1.5-4.8
	c8.7-1.7,14.8-5.9,14.8-10.8c0-5.8-8.5-10.6-19.6-11.5c3.8-3.9,6.1-9.2,6.1-15.1c0-3.1-0.7-6.1-1.8-8.8c11.1-4,19.4-10.3,20.9-23.9
	c0.2-2.4,2.5-5,4.5-6.7c14-12.1,32.5-15.6,50.4-11.8c3.7,0.8,7.5,1.9,11.2,1.1s6.2-4.5,6.5-8.2c0.1-1.5-0.2-3.1-1-4.4
	c-1.9-2.7-4.9-2.5-7.6-2.2c-13.1,1.3-27,4.1-40.2,2.8c-10.1-0.9-20-3.9-30-6c-9.2-1.9-18.5-3.4-27.6-5.9c-3-0.8-5.6-2.4-7.4-4.6
	c-0.7-7.5-3.7-13.8,2.7-18.7c5.3-4,12.2-5.6,17.6-9.7c5.2-3.9,8.9-9.7,10.5-15.9c3.2-2.1,6.4-4.2,9.9-5.6c10.1-4,20.8-4.3,31.5-3.2
	c4.1,0.4,8.2,0.8,12.3,0.4c0.8-0.1,1.5-0.6,2.2-1.4c1.3-1.4,1.4-3.5,0.1-4.9c-0.7-0.8-1.5-1.5-2.3-1.8c-1.7-0.7-4-0.1-6.1,0
	c-8.6,0.3-17.2,0.7-25.8,0.7c-5.9,0-10.7-3-14.8-7c-5.6-5.4-4.1-19.5,2.6-21.3c6.8-1.8,14.1-2.2,21.2-2.8c2.2-0.2,4.6,1.5,6.8,1.4
	c3.2-0.3,6.1-2,6.1-5.8c0-3.9-3-4.4-6-4.3c-1.6,0-3.1,0.4-4.7,0.5c-13.6,0.4-27.3,2-40.6-2.7c-8.2-2.9-10.7-7.5-9.8-15.3
	c1.1-8.4,6.6-13.7,15.1-14.7c7.6-0.9,15.3-1.8,22.9-2.8c3.6-0.5,6.4-4.1,6.2-7.6c-0.3-4.1-2.8-5.5-6.7-5.7
	c-14.1-0.6-28.3-1.7-42.4-1.8c-8.2,0-12.9-5.8-13.9-12.9c-0.7-5.4,2.5-10.3,8.2-11c4.3-0.5,9-3.3,13.9-5c3.8-1.3,7.7-2.6,11.5-3.4
	c24.3-5.7,51.1-0.3,64.9-0.4c2.8,0,5.9,0.8,8.4-0.1c1.9-0.6,3.9-3,4.3-5c0.6-2.7-1.2-4.8-4.4-4.7c-2,0-4.1,0.3-6.1,0.3
	c-14.3-0.1-34.7,4.2-66.3-0.6c-8.6-1.3-17.1-4.4-25.8-6.1c-4.2-0.9-6.1-3.2-5.4-6.7c0.7-3.3,2.2-7.1,4.7-9.1
	c10-8.1,9.1-17.8-2.6-23.2c-4.1-1.9-5.6-5.3-4.4-9.6c1.5-5.3,5.4-8.4,10.3-9.8c9.5-2.8,17-7.3,18.2-18.4c0.2-1.7,1.8-3.6,3.3-4.9
	c11.8-10.2,25.7-11.4,40.1-7.8c3.4,0.9,5.7,0,7.7-1.5c1.4-1,2.3-4,1.9-5.7c-0.4-1.6-2.8-3.6-4.4-3.7c-3.9-0.2-7.8,0.8-11.7,1.1
	c-6.5,0.5-13.1,1.6-19.5,1c-7.3-0.7-14.6-2.8-21.8-4.4c-6.7-1.4-13.5-2.5-20.1-4.3c-4-1.1-7.1-4-7.8-8.5C431,4.6,427.7,2,415-2
	C402.6-5.4,11.3-1,11.3-1z M479.5,671.7c2.9,0.2,6.8,3.5,7.7,6.3c0.8,2.2-1.6,6.4-3.8,8.5c-9.9,9.6-22.6,12.3-35.8,12.6
	c-6.2,0.2-8.7-3.4-8.6-10.3c0.1-8.3,5.3-15.8,13.7-16.9C461.5,670.7,470.6,671,479.5,671.7z M458.2,652.1l1.4,0.1
	c4.6,1.2,9.2,1.8,13.8,3.2c1,0.3,2.2,1.8,2.2,2.7s-1.3,2.6-2.2,2.6c-5.5,0.4-10.7,3.4-16.6,1c-3.3-1.4-5.5-2.8-5.1-6.3
	C452.2,651.8,455.3,652,458.2,652.1z"/>
<path class="st2" d="M1,752.3h2.4h410.3v-1.2h0.9c5.3-7.3,13.3-8.6,21.4-9c15.8-0.7,31.6-1,47.5-1.5c6-0.2,10.4-3.7,10.4-8.3
	c0-4.2-4.4-7.5-10.3-7.2c-6.9,0.4-13.7,1.5-20.6,1.9c-3.3,0.2-6.7-0.5-10.1-1.1c-4.1-0.7-7.8-2.2-7.1-7.4c0.7-4.7,4.4-6.1,8.5-7.6
	c6.3-2.3,12.5-5.1,18.5-8.3c7.6-4.1,14.5-9.8,22.4-13c13.8-5.5,28.5-5.9,43.3-4.4c5.6,0.6,11.3,1.1,16.8,0.5
	c0.6-0.1,1.1-0.3,1.6-0.6c3-2.1,3.2-6.5,0.6-9c-0.7-0.6-1.4-1.2-2.2-1.5c-2.4-1-5.5-0.1-8.3,0c-11.8,0.3-23.7,0.9-35.5,1
	c-8.1,0-14.7-4.2-20.3-9.6c-10.4-10.1-4.3-28.4,9.2-30.6c5-0.8,9.9-1.5,14.9-2c3.9-0.4,10.2-0.2,14.1,0.5c5.6,0.9,12.3,0.5,12.3-7.1
	c0-5.4-4.1-6-8.2-5.9c-2.2,0.1-4.3,0.6-6.5,0.6c-18.7,0.6-37.5,2.8-55.8-3.7c-11.2-4-14.8-10.4-13.4-21c1.5-11.6,9.1-18.8,20.8-20.3
	c10.5-1.3,21-2.4,31.4-3.8c4.9-0.6,8.8-5.6,8.5-10.5c-0.4-5.7-3.9-7.6-9.1-7.8c-19.4-0.8-38.9-2.3-58.3-2.4
	c-11.3-0.1-17.8-8-19.1-17.8c-2.3-17,31.2-22.8,43.4-25.7c3-0.7,6-1.3,9-1.9c8.4-1.5,16.9-2.4,25.4-2.6c6-0.2,12.1-0.2,18,0.4
	c5.4,0.6,10.6,3.1,16.1,2.6c4.5-0.4,13.5-6.8,8-11.7c-1.5-1.3-3.5-2-5.5-1.9c-33.1,1.2-67.2,0.8-99.5-7.6c-1.5-0.4-3-0.8-4.1-1.8
	c-1.2-1.1-1.7-2.7-2.1-4.2c-1.1-4.6-1.3-11.4,1.1-15.6c2.3-3.9,6.8-6,8.8-10.4c0.7-1.6,1.3-3.2,1.5-4.8c8.7-1.7,14.8-5.9,14.8-10.8
	c0-5.8-8.5-10.6-19.6-11.5c3.8-3.9,6.1-9.2,6.1-15.1c0-3.1-0.7-6.1-1.8-8.8c11.1-4,19.4-10.3,20.9-23.9c0.2-2.4,2.5-5,4.5-6.7
	c14-12.1,32.5-15.6,50.4-11.8c3.7,0.8,7.5,1.9,11.2,1.1s6.2-4.5,6.5-8.2c0.1-1.5-0.2-3.1-1-4.4c-1.9-2.7-4.9-2.5-7.6-2.2
	c-13.1,1.3-27,4.1-40.2,2.8c-10.1-0.9-20-3.9-30-6c-9.2-1.9-18.5-3.4-27.6-5.9c-3-0.8-5.6-2.4-7.4-4.6c-0.7-7.5-3.7-13.8,2.7-18.7
	c5.3-4,12.2-5.6,17.6-9.7c5.2-3.9,8.9-9.7,10.5-15.9c3.2-2.1,6.4-4.2,9.9-5.6c10.1-4,20.8-4.3,31.5-3.2c4.1,0.4,8.2,0.8,12.3,0.4
	c0.8-0.1,1.5-0.6,2.2-1.4c1.3-1.4,1.4-3.5,0.1-4.9c-0.7-0.8-1.5-1.5-2.3-1.8c-1.7-0.7-4-0.1-6.1,0c-8.6,0.3-17.2,0.7-25.8,0.7
	c-5.9,0-10.7-3-14.8-7c-5.6-5.4-4.1-19.5,2.6-21.3c6.8-1.8,14.1-2.2,21.2-2.8c2.2-0.2,4.6,1.5,6.8,1.4c3.2-0.3,6.1-2,6.1-5.8
	c0-3.9-3-4.4-6-4.3c-1.6,0-3.1,0.4-4.7,0.5c-13.6,0.4-27.3,2-40.6-2.7c-8.2-2.9-10.7-7.5-9.8-15.3c1.1-8.4,6.6-13.7,15.1-14.7
	c7.6-0.9,15.3-1.8,22.9-2.8c3.6-0.5,6.4-4.1,6.2-7.6c-0.3-4.1-2.8-5.5-6.7-5.7c-14.1-0.6-28.3-1.7-42.4-1.8
	c-8.2,0-12.9-5.8-13.9-12.9c-0.7-5.4,2.5-10.3,8.2-11c4.3-0.5,9-3.3,13.9-5c3.8-1.3,7.7-2.6,11.5-3.4c24.3-5.7,51.1-0.3,64.9-0.4
	c2.8,0,5.9,0.8,8.4-0.1c1.9-0.6,3.9-3,4.3-5c0.6-2.7-1.2-4.8-4.4-4.7c-2,0-4.1,0.3-6.1,0.3c-14.3-0.1-34.7,4.2-66.3-0.6
	c-8.6-1.3-17.1-4.4-25.8-6.1c-4.2-0.9-6.1-3.2-5.4-6.7c0.7-3.3,2.2-7.1,4.7-9.1c10-8.1,9.1-17.8-2.6-23.2c-4.1-1.9-5.6-5.3-4.4-9.6
	c1.5-5.3,5.4-8.4,10.3-9.8c9.5-2.8,17-7.3,18.2-18.4c0.2-1.7,1.8-3.6,3.3-4.9c11.8-10.2,25.7-11.4,40.1-7.8c3.4,0.9,5.7,0,7.7-1.5
	c1.4-1,2.3-4,1.9-5.7c-0.4-1.6-2.8-3.6-4.4-3.7c-3.9-0.2-7.8,0.8-11.7,1.1c-6.5,0.5-13.1,1.6-19.5,1c-7.3-0.7-14.6-2.8-21.8-4.4
	c-6.7-1.4-13.5-2.5-20.1-4.3c-4-1.1-7.1-4-7.8-8.5C421,4.6,417.7,2,405-2C392.6-5.4,1.3-1,1.3-1v0.2 M469.5,671.7
	c2.9,0.2,6.8,3.5,7.7,6.3c0.8,2.2-1.6,6.4-3.8,8.5c-9.9,9.6-22.6,12.3-35.8,12.6c-6.2,0.2-8.7-3.4-8.6-10.3
	c0.1-8.3,5.3-15.8,13.7-16.9C451.5,670.7,460.6,671,469.5,671.7z M448.2,652.1l1.4,0.1c4.6,1.2,9.2,1.8,13.8,3.2
	c1,0.3,2.2,1.8,2.2,2.7s-1.3,2.6-2.2,2.6c-5.5,0.4-10.7,3.4-16.6,1c-3.3-1.4-5.5-2.8-5.1-6.3C442.2,651.8,445.3,652,448.2,652.1z"/>
<g>
	<path class="st3" d="M281.9,660.8c0,14.5-4.7,27-11.5,33.1c-0.4,0.5-0.9,1.1-1.4,1.6c0,0,16.7-8.7,16.2-34.7
		c0.5-26-16.2-34.7-16.2-34.7c0.5,0.5,1,1.1,1.4,1.6C277.2,633.8,281.9,646.3,281.9,660.8z"/>
	<path class="st3" d="M376,702c0,10.4-5.6,19.4-13.7,23.9c-0.5,0.4-1.1,0.8-1.7,1.2c0,0,19.9-6.3,19.4-25c0.6-18.7-19.4-25-19.4-25
		c0.6,0.4,1.1,0.8,1.7,1.2C370.4,682.5,376,691.5,376,702z"/>
	<path class="st3" d="M142.9,565.1c0,16.5-8.8,30.8-21.8,37.9c-0.8,0.6-1.7,1.2-2.7,1.8c0,0,31.6-10,30.7-39.7
		c0.9-29.7-30.7-39.7-30.7-39.7c0.9,0.6,1.8,1.2,2.7,1.8C134.1,534.2,142.9,548.6,142.9,565.1z"/>
	<path class="st3" d="M50.9,660.8c0,11.3-6,21-14.8,25.8c-0.6,0.4-1.2,0.8-1.8,1.2c0,0,21.6-6.8,20.9-27c0.6-20.2-20.9-27-20.9-27
		c0.6,0.4,1.2,0.8,1.8,1.2C44.9,639.8,50.9,649.5,50.9,660.8z"/>
	<path class="st3" d="M350.3,582.1c0,11-5.9,20.5-14.5,25.2c-0.6,0.4-1.2,0.8-1.8,1.2c0,0,21.1-6.7,20.5-26.4
		c0.6-19.8-20.5-26.4-20.5-26.4c0.6,0.4,1.2,0.8,1.8,1.2C344.4,561.6,350.3,571.1,350.3,582.1z"/>
	<path class="st3" d="M281.9,150.8c0,14.5-4.7,27-11.5,33.1c-0.4,0.5-0.9,1.1-1.4,1.6c0,0,16.7-8.7,16.2-34.7
		c0.5-26-16.2-34.7-16.2-34.7c0.5,0.5,1,1.1,1.4,1.6C277.2,123.8,281.9,136.3,281.9,150.8z"/>
	<path class="st3" d="M376,191.9c0,10.4-5.6,19.4-13.7,23.9c-0.5,0.4-1.1,0.8-1.7,1.2c0,0,19.9-6.3,19.4-25
		c0.6-18.7-19.4-25-19.4-25c0.6,0.4,1.1,0.8,1.7,1.2C370.4,172.5,376,181.5,376,191.9z"/>
	<path class="st3" d="M142.9,55.1c0,16.5-8.8,30.8-21.8,37.9c-0.8,0.6-1.7,1.2-2.7,1.8c0,0,31.6-10,30.7-39.7
		c0.9-29.7-30.7-39.7-30.7-39.7c0.9,0.6,1.8,1.2,2.7,1.8C134.1,24.2,142.9,38.5,142.9,55.1z"/>
	<path class="st3" d="M50.9,150.8c0,11.3-6,21-14.8,25.8c-0.6,0.4-1.2,0.8-1.8,1.2c0,0,21.6-6.8,20.9-27c0.6-20.2-20.9-27-20.9-27
		c0.6,0.4,1.2,0.8,1.8,1.2C44.9,129.8,50.9,139.5,50.9,150.8z"/>
	<path class="st3" d="M350.3,72.1c0,11-5.9,20.5-14.5,25.2c-0.6,0.4-1.2,0.8-1.8,1.2c0,0,21.1-6.7,20.5-26.4
		c0.6-19.8-20.5-26.4-20.5-26.4c0.6,0.4,1.2,0.8,1.8,1.2C344.4,51.6,350.3,61.1,350.3,72.1z"/>
</g>
</svg>
