<?xml version="1.0" encoding="utf-8"?>
<!-- Generator: Adobe Illustrator 22.1.0, SVG Export Plug-In . SVG Version: 6.00 Build 0)  -->
<svg version="1.1" id="Layer_1" xmlns="http://www.w3.org/2000/svg" xmlns:xlink="http://www.w3.org/1999/xlink" x="0px" y="0px"
	 viewBox="0 0 665.2 429.6" style="enable-background:new 0 0 665.2 429.6;" xml:space="preserve">
<style type="text/css">
	.st0{opacity:0.1;}
	.st1{fill:#FFD767;stroke:#584C4F;stroke-width:4;stroke-miterlimit:10;}
	.st2{fill:#FDF7E0;stroke:#584C4F;stroke-width:4;stroke-miterlimit:10;}
	.st3{fill:none;stroke:#584C4F;stroke-width:4;stroke-miterlimit:10;}
</style>
<g id="Layer_5" class="st0">
</g>
<g id="Layer_3" class="st0">
</g>
<g>
	<g>
		<path class="st1" d="M88,263.9c-0.3-5.7-1.1-10.7-6.7-10.7c-1.3,0-6.4,0.1-7.5,0c-3.8-0.2-9.9,1.9-20.1,8
			c-24,14.4,2.7,26.7,2.7,26.7c5.3,4.3,10.2,5.7,13.9,5.2c0.9-0.1,5.3,0.1,6.6,0.1c8.6,0,12.3-8.9,4.6-15.1
			C70.8,269.5,88.5,273.5,88,263.9z"/>
		<g id="XMLID_785_">
			<path id="XMLID_786_" class="st2" d="M56.5,287.9c0,0-26.7-12.3-2.7-26.7s25.7-6.9,26.2,2.7c0.6,9.6-17.2,5.6-6.3,14.3
				C84.4,286.8,72.6,301,56.5,287.9z"/>
		</g>
	</g>
	<line id="XMLID_784_" class="st3" x1="63.7" y1="288.8" x2="66.2" y2="289.9"/>
	<path id="XMLID_783_" class="st2" d="M79.1,289.4c0,0,3.8-0.5,4-1.3"/>
	<path id="XMLID_782_" class="st2" d="M73.3,273.8c0,0,2,0.2,2.3-0.5"/>
</g>
<g>
	<g>
		<path class="st1" d="M581.7,283.1c0.3,5.7,1.1,10.7,6.7,10.7c1.3,0,6.4-0.1,7.5,0c3.8,0.2,9.9-1.9,20.1-8
			c24-14.4-2.7-26.7-2.7-26.7c-5.3-4.3-10.2-5.7-13.9-5.2c-0.9,0.1-5.3-0.1-6.6-0.1c-8.6,0-12.3,8.9-4.6,15.1
			C598.9,277.5,581.2,273.5,581.7,283.1z"/>
		<g id="XMLID_4_">
			<path id="XMLID_5_" class="st2" d="M613.2,259.1c0,0,26.7,12.3,2.7,26.7s-25.7,6.9-26.2-2.7c-0.6-9.6,17.2-5.6,6.3-14.3
				C585.3,260.2,597.1,246,613.2,259.1z"/>
		</g>
	</g>
	<line id="XMLID_3_" class="st3" x1="606" y1="258.2" x2="603.5" y2="257.1"/>
	<path id="XMLID_2_" class="st2" d="M590.6,257.6c0,0-3.8,0.5-4,1.3"/>
	<path id="XMLID_1_" class="st2" d="M596.4,273.2c0,0-2-0.2-2.3,0.5"/>
</g>
</svg>
