<?xml version="1.0" encoding="utf-8"?>
<!-- Generator: Adobe Illustrator 22.1.0, SVG Export Plug-In . SVG Version: 6.00 Build 0)  -->
<svg version="1.1" id="Layer_1" xmlns="http://www.w3.org/2000/svg" xmlns:xlink="http://www.w3.org/1999/xlink" x="0px" y="0px"
	 viewBox="0 0 1285.5 725.2" style="enable-background:new 0 0 1285.5 725.2;" xml:space="preserve">
<style type="text/css">
	.st0{fill:none;stroke:#584C4F;stroke-linecap:round;stroke-miterlimit:10;}
</style>
<g>
	<g>
		<path class="st0" d="M1113.3,493.6c0,0,36.7,10.4,57.9,17.8c21.2,7.4,89.2,20.3,100.3,22.8c11.1,2.5,15.5,5.9,15.5,5.9"/>
		<path class="st0" d="M1113.3,428.5c0,0,51.6,4.7,80.2,8s87.2,12,87.2,12"/>
		<path class="st0" d="M1115.4,363c0,0,77.1-1.2,108.6-1.2s63.2,1.2,63.2,1.2"/>
		<path class="st0" d="M1113.3,557.4c0,0,97.2,40,111,43.6c13.8,3.7,56.8,22.6,56.8,22.6"/>
		<path class="st0" d="M1114.8,232.4c0,0,36.7-10.4,57.9-17.8c21.2-7.4,89.2-20.3,100.3-22.8c10.9-2.5,15.5-5.9,15.5-5.9"/>
		<path class="st0" d="M1114.8,297.6c0,0,51.6-4.7,80.2-8s87.2-12,87.2-12"/>
		<path class="st0" d="M1114.8,168.7c0,0,97.2-40,111-43.6c13.8-3.7,56.8-22.6,56.8-22.6"/>
		<path class="st0" d="M1282.2,715.2c0.7-1.3,0.9-2.7,0.6-4.3c-4.2-20.8-9.4-297.4,0-410.6s0-289.3,0-289.3s0-0.6,0-1.5"/>
	</g>
</g>
</svg>
