<?xml version="1.0" encoding="utf-8"?>
<!-- Generator: Adobe Illustrator 22.1.0, SVG Export Plug-In . SVG Version: 6.00 Build 0)  -->
<svg version="1.1" id="Layer_1" xmlns="http://www.w3.org/2000/svg" xmlns:xlink="http://www.w3.org/1999/xlink" x="0px" y="0px"
	 viewBox="0 0 937.1 527.1" style="enable-background:new 0 0 937.1 527.1;" xml:space="preserve">
<style type="text/css">
	.st0{fill:#E6C86B;}
	.st1{fill:#E6C86B;stroke:#505050;stroke-width:0.25;stroke-miterlimit:10;}
</style>
<g>
	<g>
		<path class="st0" d="M860.3,480.9c-4.1-2.1-39-19.7-39-19.7H120.8c0,0-34.9,17.5-38.9,19.7c-4.8,2.5-65.6,39.6-78.2,47.3h934.9
			C925.9,520.5,865.1,483.4,860.3,480.9z"/>
		<path class="st1" d="M297.4,461.7c0,0-13.8,14.6-23.7,23c-9.8,8.5-27,35.5-30.3,39.8s-7.9,6.2-7.9,6.2"/>
		<path class="st1" d="M384,461.7c0,0-6.2,20.5-10.6,31.9s-15.9,34.6-15.9,34.6"/>
		<path class="st1" d="M470.9,462.4c0,0,1.6,30.6,1.6,43.1s-1.6,25.1-1.6,25.1"/>
		<path class="st1" d="M212.7,461.7c0,0-53.1,38.6-58,44.1s-30.1,22.6-30.1,22.6"/>
		<path class="st1" d="M644.5,462.3c0,0,13.8,14.6,23.7,23c9.8,8.5,27,35.5,30.3,39.8s7.9,6.2,7.9,6.2"/>
		<path class="st1" d="M557.9,462.3c0,0,6.2,20.5,10.6,31.9c4.4,11.4,15.9,34.6,15.9,34.6"/>
		<path class="st1" d="M729.2,462.3c0,0,53.1,38.6,58,44.1s30.1,22.6,30.1,22.6"/>
	</g>
</g>
</svg>
