<?xml version="1.0" encoding="utf-8"?>
<!-- Generator: Adobe Illustrator 23.0.3, SVG Export Plug-In . SVG Version: 6.00 Build 0)  -->
<svg version="1.1" id="Layer_1" xmlns="http://www.w3.org/2000/svg" xmlns:xlink="http://www.w3.org/1999/xlink" x="0px" y="0px"
	 viewBox="0 0 174 54.2" style="enable-background:new 0 0 174 54.2;" xml:space="preserve">
<style type="text/css">
	.st0{fill:#FFFFFF;}
	.st1{fill:#2C2C2C;}
</style>
<g>
	<path class="st0" d="M116.6,17.9c0,0.4-0.1,0.8-0.1,1.2c0,1.2,0,2.5-0.1,3.7c-0.1,3.1-0.5,6.1-0.8,9.2c-0.1,0.6-0.1,1.2-0.2,1.9
		c0,1.7-0.1,3.4-0.3,5.2c0,0.2,0,0.3,0,0.5c0.1,1.9,0.4,3.7,0.3,5.6c0,0.9-0.2,1.8-0.5,2.7c-0.3,0.9-0.8,1.7-1.4,2.3
		c-0.3,0.3-0.7,0.6-1.1,0.8c-0.4,0.3-0.9,0.5-1.4,0.7c-0.9,0.4-1.9,0.6-2.9,0.6c-0.1,0-0.2,0-0.2,0c-0.3,0-0.6,0-0.9-0.1
		c0,0,0,0,0,0c-0.2,0.1-0.5,0.1-0.7,0.1c0,0,0,0,0,0c-0.2,0-0.5,0-0.7-0.1c-0.1,0-0.3-0.1-0.4-0.1c-0.2,0-0.3-0.1-0.5-0.2
		c-0.3-0.1-0.6-0.2-0.9-0.4c-0.4-0.2-0.7-0.4-1-0.6c-0.5-0.3-0.9-0.7-1.3-1.1c-0.4-0.4-0.7-0.8-1-1.2c-0.3-0.4-0.5-0.9-0.7-1.3
		c-0.1-0.3-0.2-0.6-0.3-1c-0.1-0.5-0.1-1-0.2-1.5c-0.1-0.9-0.1-1.9,0-2.8c0.1-0.8,0.2-1.6,0.3-2.3c-0.1-1.1-0.2-2.2-0.3-3.4
		c0-0.6-0.1-1.3-0.1-1.9c-0.1-0.9-0.1-1.9-0.1-2.8c0-0.1,0-0.3-0.1-0.4c-0.3-1.9-0.5-3.8-0.5-5.7c-0.1-3.7,0.1-7.4,0.7-11.1
		c0-0.2,0.1-0.3,0.2-0.4c0,0,0,0,0-0.1c-0.2-0.7-0.1-1.5,0-2.2c0.1-0.9,0.5-1.8,0.9-2.6c0.5-0.9,1.1-1.7,1.7-2.5
		c0.3-0.4,0.7-0.7,1-1.1c0.4-0.4,0.9-0.7,1.3-1c0.7-0.5,1.6-0.8,2.5-1c0.7-0.2,1.5-0.2,2.2-0.1c0.4,0,0.7,0.1,1.1,0.2
		c0.4,0.1,0.7,0.2,1.1,0.4c0.6,0.3,1.1,0.6,1.6,1.1c0.5,0.4,0.9,1,1.3,1.5c0.3,0.5,0.6,1.1,0.9,1.6c0.3,0.7,0.5,1.3,0.7,2
		c0.4,1.3,0.6,2.7,0.7,4.1C116.6,15.4,116.7,16.7,116.6,17.9z"/>
	<g>
		<path class="st1" d="M115.1,17.9c-0.5,4.6-0.6,9.4-1,14c-0.2,2.3-0.5,4.7-0.5,7c0,2,0.6,4.1,0.4,6.1c-0.5,4-4.5,6.6-8.3,5.6
			c-5.7-1.5-4.4-7.6-4.5-11.9c-0.1-8.5-1.4-16.4,0-24.9c0.3-1.9,0.3-3.7,1.4-5.5c2-3,6.1-5.2,9.3-2.5
			C115.1,8.6,115.2,14.2,115.1,17.9c-0.1,1.9,2.9,1.9,3,0c0.2-7.6-4.3-21.5-14.6-14.6c-2.2,1.5-4.2,4-5,6.6c-0.5,1.4-0.3,2.5-0.4,4
			c-0.1,1.3,0-1-0.2,0.1c-1,7.9-0.3,15.3,0,23.2c0.2,5.6-1.3,11.2,4,15c2.4,1.7,5.1,1.9,7.9,1.4c5.9-1,7.3-6,7-11.3
			c-0.5-7.9,0.4-16.5,1.2-24.4C118.3,16,115.3,16,115.1,17.9z"/>
	</g>
</g>
<g>
	<g>
		<path class="st0" d="M72.6,10.7c-0.2,0.9-0.3,1.8,0,2.7c0,0,0,0,0,0c-0.1,1.2,0.8,2.3,1.8,2.7c0.3,0.2,0.6,0.4,0.9,0.6
			c0.1,0.1,0.1,0.1,0.2,0.2c0.3,0.3,0.7,0.6,1,0.8c0.7,0.4,1.2,0.5,1.9,0.7c0.2,0,0.5,0.1,0.8,0.1c0.6,0,1.2-0.1,1.8-0.3
			c0.3-0.1,0.6-0.2,0.9-0.3c0.5,0,1-0.1,1.4-0.2c1.6-0.3,3.1-0.9,4.4-1.9c0.4-0.3,0.7-0.7,1-1.1c0.3-0.3,0.5-0.6,0.7-1
			c0.4-0.7,0.5-1.2,0.7-2c0.3-0.7,0.5-1.5,0.6-2.3c0.1-0.6,0-1.3-0.2-1.8c-0.1-0.6-0.4-1.2-0.8-1.8c-0.3-0.4-0.5-0.8-0.8-1.1
			c-0.3-0.3-0.7-0.7-1-0.9c-0.7-0.6-1.5-1-2.3-1.3c-0.8-0.4-1.8-0.7-2.7-0.8c-0.3,0-0.7,0-1,0c-0.8-0.1-1.7,0-2.4,0.2
			c-0.8,0.3-1.6,0.7-2.2,1.2c-0.1,0.1-0.3,0.1-0.4,0.2c-1,0.5-1.6,1.2-2.3,2c-0.1,0.2-0.3,0.3-0.4,0.5c-0.1,0-0.1,0-0.2,0.1
			c-0.8,0.4-1.4,1.2-1.7,2c-0.3,0.9-0.2,1.9,0.2,2.7C72.6,10.5,72.6,10.6,72.6,10.7z"/>
		<g>
			<path class="st1" d="M71.1,10.3c-0.3,2.5-0.4,5.1,1.7,6.7c2.1,1.7,4.4,3.2,7.2,2.8c6.2-0.7,12.6-4.4,11.9-11.6
				c-0.5-5.6-7.3-9.1-12.4-8c-2.6,0.6-4.5,2.4-6.3,4.2c-0.9,0.9-1.7,1.3-2.2,2.5C70.7,8.1,71.3,9.5,71.1,10.3
				c-0.5,1.9,2.4,2.7,2.9,0.8c1-3.5,0.8-4.7,4-6.7c3.2-2.1,8.2-1.3,10.3,2.2c1.3,2.1,0.5,5.5-1,7.3c-1.5,1.8-3.6,2-5.7,2.5
				c-2.2,0.5-3.2,0.7-5.2-0.6c-1.9-1.2-2.8-2.3-2.4-4.7C74.3,9.2,71.4,8.3,71.1,10.3z"/>
		</g>
	</g>
	<g>
		<g>
			<path class="st0" d="M74.1,41.6C74.1,41.6,74.1,41.6,74.1,41.6c-0.2,0.8-0.1,1.5,0,2.3c0.1,0.9,0.5,1.8,0.9,2.6
				c0.5,0.9,1.1,1.7,1.7,2.5c0.3,0.4,0.7,0.7,1,1.1c0.4,0.4,0.9,0.7,1.3,1c0.7,0.5,1.6,0.8,2.5,1c0.7,0.2,1.5,0.2,2.2,0.1
				c0.4,0,0.7-0.1,1.1-0.2c0.4-0.1,0.7-0.2,1.1-0.4c0.6-0.3,1.1-0.6,1.6-1.1c0.5-0.4,0.9-1,1.3-1.5c0.3-0.5,0.6-1.1,0.9-1.6
				c0.3-0.6,0.5-1.2,0.7-1.9c-0.1-0.6-0.1-1.2-0.2-1.7c-0.1-0.6-0.1-1.2-0.2-1.9c0-1.7-0.1-3.4-0.3-5.2c0-0.2,0-0.3,0-0.5
				c0.1-1.9,0.4-3.7,0.3-5.6c0-0.9-0.2-1.8-0.5-2.7c-0.3-0.9-0.8-1.7-1.4-2.3c-0.3-0.3-0.7-0.6-1.1-0.8c-0.4-0.3-0.9-0.5-1.4-0.7
				c-0.9-0.4-1.9-0.6-2.9-0.6c-0.1,0-0.2,0-0.2,0c-0.3,0-0.6,0-0.9,0.1c0,0,0,0,0,0c-0.2-0.1-0.5-0.1-0.7-0.1c0,0,0,0,0,0
				c-0.2,0-0.5,0-0.7,0.1c-0.1,0-0.3,0.1-0.4,0.1c-0.2,0-0.3,0.1-0.5,0.2c-0.3,0.1-0.6,0.2-0.9,0.4c-0.4,0.2-0.7,0.4-1,0.6
				c-0.5,0.3-0.9,0.7-1.3,1.1c-0.4,0.4-0.7,0.8-1,1.2c-0.3,0.4-0.5,0.9-0.7,1.3c-0.1,0.3-0.2,0.6-0.3,1c-0.1,0.5-0.1,1-0.2,1.5
				c-0.1,0.9-0.1,1.9,0,2.8c0.1,0.8,0.2,1.6,0.3,2.3c-0.1,1.1-0.2,2.2-0.3,3.4c0,0.5,0,0.9-0.1,1.4c0,0.1,0,0.2,0,0.2
				C73.9,41.3,74,41.5,74.1,41.6z"/>
			<g>
				<path class="st1" d="M72.7,41.2c-1.6,7,6.8,14.9,13.6,12c2.5-1.1,4.4-3.6,5.2-6.2c0.7-2.6,0-5.7-0.2-8.4
					c-0.1-2.8,0.4-5.7,0.1-8.5c-0.6-6-6.9-9.5-12.5-7.6c-3.1,1-5.6,3.9-6.2,7.1c-0.6,2.7,0,5.6-0.1,8.3c-0.1,1.6-0.5,3.1,0.3,4.5
					c0.9,1.7,3.5,0.2,2.6-1.5c-0.7-1.2,0.2-4.4,0.1-6c-0.2-3.3,0-7.6,3.6-9.3c1.1-0.5,1.5-0.4,2.5-0.4c0.3,0,0.7-0.1,1.1-0.1
					c3.8,0.8,5.6,2.8,5.7,6.6c0.1,2.3-0.3,4.6-0.2,6.9c0.1,2.5,0.9,6,0,8.3C85.3,54.4,74,48.8,75.6,42C76,40.1,73.1,39.3,72.7,41.2z
					"/>
			</g>
		</g>
	</g>
</g>
<g>
	<g>
		<path class="st0" d="M68.3,43.1c-0.1-0.7-0.2-1.4-0.3-2.1c-0.2-0.8-0.4-1.6-0.7-2.3c-0.2-0.7-0.5-1.3-0.8-1.9
			c-0.3-0.7-0.7-1.3-1.1-1.9c-0.2-0.3-0.4-0.5-0.6-0.8c-0.1-0.2-0.1-0.4-0.2-0.7c-0.2-0.6-0.6-1.1-1-1.6c-0.4-0.6-1-1-1.6-1.5
			c-0.4-0.3-0.7-0.5-1.1-0.8c-0.4-0.3-0.9-0.5-1.4-0.7c0.9-0.6,1.8-1.5,2.2-2.5c0.1-0.3,0.2-0.5,0.2-0.7c0.1-0.3,0.1-0.6,0.1-0.8
			c0,0,0,0,0,0c0.1-0.2,0.3-0.4,0.4-0.6c0.1-0.1,0.2-0.2,0.3-0.3c0.2-0.2,0.4-0.4,0.6-0.7c0.2-0.2,0.3-0.5,0.5-0.7
			c0.2-0.4,0.3-0.7,0.5-1.1c0,0,0,0,0-0.1c0,0,0,0,0,0c0.2-0.4,0.5-0.7,0.6-1.1c0.1-0.3,0.2-0.6,0.3-0.9c0.1-0.3,0.1-0.6,0.1-0.9
			c0-0.4,0-0.8-0.1-1.2c0-0.1-0.1-0.2-0.1-0.4c0,0,0,0,0,0c0,0,0-0.1,0-0.1c0,0,0,0,0,0c0-0.2-0.1-0.4-0.2-0.6
			c-0.2-0.3-0.3-0.6-0.5-0.8c0,0,0,0,0,0c0,0,0,0,0,0c-0.3-0.4-0.7-0.7-1.1-0.9c-0.4-0.3-0.9-0.4-1.5-0.5c-0.4-0.1-0.7,0-1.1,0
			c-0.3,0-0.5,0.1-0.8,0.1c-0.4,0.1-0.8,0.2-1.2,0.3c-0.4,0.2-0.9,0.4-1.3,0.6c-0.7,0.4-1.3,0.8-1.9,1.3c-0.2,0.2-0.5,0.4-0.7,0.6
			c-0.4,0.4-0.7,0.8-1.1,1.2c-0.3,0.4-0.6,0.8-0.9,1.2c-0.4,0.4-0.8,0.9-1.1,1.4c-0.1,0.1-0.1,0.1-0.2,0.2c-0.2,0.2-0.3,0.3-0.5,0.5
			c-0.4,0.4-0.8,0.9-1.2,1.3c-0.1,0.1-0.2,0.2-0.2,0.3c0,0,0-0.1,0-0.1c0-0.1,0-0.3-0.1-0.4c0-0.9,0-1.9-0.1-2.8
			c0-0.6,0-1.3-0.1-1.9c-0.1-1.1-0.1-2.2-0.3-3.4c0.1-0.8,0.2-1.6,0.3-2.3c0.1-0.9,0.1-1.9,0-2.8c0-0.5-0.1-1-0.2-1.5
			c-0.1-0.3-0.1-0.7-0.3-1c-0.1-0.3-0.2-0.5-0.4-0.8c-0.3-0.4-0.6-0.8-0.8-1.2c-0.2-0.2-0.3-0.4-0.5-0.5c-0.4-0.4-0.8-0.8-1.3-1.1
			c-0.3-0.2-0.6-0.5-1-0.6c-0.3-0.1-0.6-0.3-0.9-0.4c-0.2-0.1-0.3-0.1-0.5-0.2c-0.1,0-0.3-0.1-0.4-0.1c-0.2,0-0.5-0.1-0.7-0.1
			c0,0,0,0,0,0c-0.2,0-0.5,0-0.7,0.1c0,0,0,0,0,0c-0.3,0-0.6-0.1-0.9-0.1c-0.1,0-0.2,0-0.2,0c-1,0-2,0.2-2.9,0.6
			c-0.5,0.2-1,0.4-1.4,0.7c-0.4,0.2-0.8,0.5-1.1,0.8c-0.5,0.5-0.9,1.2-1.2,1.8c-0.1,0.2-0.1,0.3-0.2,0.5c-0.3,0.9-0.4,1.8-0.5,2.7
			c-0.1,1.9,0.2,3.8,0.3,5.6c0,0.2,0,0.3,0,0.5c-0.2,1.7-0.3,3.4-0.3,5.2c-0.1,0.6-0.1,1.2-0.2,1.9c-0.3,3.1-0.7,6.1-0.8,9.2
			c-0.1,1.2-0.1,2.5-0.1,3.7c-0.1,0.4-0.1,0.8-0.1,1.2C32,37.5,32,38.8,32.2,40c0.1,1.4,0.3,2.8,0.7,4.1c0.2,0.7,0.4,1.3,0.7,2
			c0.2,0.6,0.5,1.1,0.9,1.6c0.4,0.5,0.8,1.1,1.3,1.5c0.5,0.4,1,0.8,1.6,1.1c0.3,0.2,0.7,0.3,1.1,0.4c0.4,0.1,0.7,0.1,1.1,0.2
			c0.7,0.1,1.5,0,2.2-0.1c0.9-0.2,1.7-0.5,2.5-1c0.5-0.3,0.9-0.6,1.3-1c0.4-0.3,0.7-0.7,1-1.1c0.7-0.8,4.3-4.4,4.8-5.3
			c0.2-0.1,1.1-0.3,1.4-0.4c0.3,0,0.6,0,0.9,0.1c0.3,0.1,0.5,0.2,0.8,0.3c0.2,0.1,0.5,0.3,0.7,0.5c0.2,0.2,0.4,0.4,0.6,0.6
			c0.1,0.2,0.2,0.4,0.3,0.6c0,0.1,0.1,0.3,0.1,0.4c0,0.4,0,0.8-0.1,1.1c-0.1,0.5-0.2,1-0.2,1.6c0,1.1,0.6,2.2,1.7,2.6
			c0,0,0.1,0,0.1,0c0.2,0.5,0.5,0.9,0.9,1.3c0.6,0.5,1.2,1,1.9,1.1c0.4,0.1,0.8,0.2,1.2,0.2c0.5,0,1-0.1,1.5-0.2
			c0.5-0.1,1-0.3,1.4-0.5c0.3-0.1,0.5-0.2,0.7-0.4c0.4-0.2,0.7-0.4,1-0.7c0.3-0.3,0.6-0.7,0.9-1c0.2-0.3,0.4-0.7,0.6-1.1
			c0.1-0.2,0.2-0.5,0.3-0.8c0.2-0.7,0.4-1.5,0.4-2.3C68.4,44.6,68.4,43.8,68.3,43.1z"/>
		<g>
			<path class="st1" d="M69.8,43.1c-0.7-6.2-3.9-12.5-9.5-15.5c0,0.9,0,1.7,0,2.6c1.6-1.2,2.3-2.4,3.1-4.1c0.5-1.1,1-1.7,1.8-3.1
				c0.9-1.6,2-5,1.2-6.8c-4.2-9.8-14.7,1.8-18,5.9c0.9,0.4,1.7,0.7,2.6,1.1C50.1,16,53.7,2,43.1,0.4c-3.2-0.5-7.2,0.4-9.4,3
				c-3.4,4-1.5,10.4-1.8,15.2c-0.5,7.5-2.1,15.3-1,22.8c0.5,3.7,1.8,8,5.3,10c4.2,2.4,8.3,0.4,11.4-2.7c1.2-1.2,2.7-3.8,4.2-4.5
				c2.6-1.2,1.9,2.8,2.7,4.6c0.3,0.7,0.8,1.1,1.2,1.6c0.4,0.5,1.2,1.3,1.6,1.7c1.8,1.4,3.6,2,5.9,1.5C68.3,52.6,70.1,47.8,69.8,43.1
				c-0.1-1.9-3.1-1.9-3,0c0.2,3.8-2,9.6-6.7,6.8c-2.8-1.7-1.9-2.4-2.7-5.5c-0.6-2-1.6-3.5-3.9-3.8c-3.1-0.4-4.5,2.2-6.4,4.2
				c-2,2.1-3.9,4.6-7.1,4.5c-3.3-0.2-4.8-2.7-5.7-5.6c-1.8-6.1-0.6-13.5,0.1-19.7c0.3-2.9,0.8-5.9,0.7-8.9c0-2.8-1.6-7.9,1-10.1
				c4-3.3,9.8-1.9,11.3,3c0.8,2.6,0.1,5.4,0.2,8.1c0.1,2.3,0.1,4.7,0.4,6.9c0.1,1.1,1.6,2.2,2.6,1.1c1.9-2.4,10.5-13.3,13.1-6.8
				c0.6,1.6-0.6,3.3-1.4,4.7c-0.8,1.3-2.5,4.8-3.5,5.6c-0.8,0.6-1.1,2,0,2.6c4.5,2.4,7.4,7.9,8,12.9C67,45,70,45,69.8,43.1z"/>
		</g>
	</g>
</g>
<g>
	<path class="st0" d="M141.8,37.6c0-0.4-0.1-0.8-0.1-1.2c0-1.2,0-2.5-0.1-3.7c-0.1-3.1-0.5-6.1-0.8-9.2c-0.1-0.6-0.1-1.2-0.2-1.9
		c0-1.7-0.1-3.4-0.3-5.2c0-0.2,0-0.3,0-0.5c0.1-1.9,0.4-3.7,0.3-5.6c0-0.9-0.2-1.8-0.5-2.7c-0.3-0.9-0.8-1.7-1.4-2.3
		c-0.3-0.3-0.7-0.6-1.1-0.8c-0.4-0.3-0.9-0.5-1.4-0.7c-0.9-0.4-1.9-0.6-2.9-0.6c-0.1,0-0.2,0-0.2,0c-0.3,0-0.6,0-0.9,0.1
		c0,0,0,0,0,0c-0.2-0.1-0.5-0.1-0.7-0.1c0,0,0,0,0,0c-0.2,0-0.5,0-0.7,0.1c-0.1,0-0.3,0.1-0.4,0.1c-0.2,0-0.3,0.1-0.5,0.2
		c-0.3,0.1-0.6,0.2-0.9,0.4c-0.4,0.2-0.7,0.4-1,0.6c-0.5,0.3-0.9,0.7-1.3,1.1c-0.4,0.4-0.7,0.8-1,1.2c-0.3,0.4-0.5,0.9-0.7,1.3
		c-0.1,0.3-0.2,0.6-0.3,1c-0.1,0.5-0.1,1-0.2,1.5c-0.1,0.9-0.1,1.9,0,2.8c0.1,0.8,0.2,1.6,0.3,2.3c-0.1,1.1-0.2,2.2-0.3,3.4
		c0,0.6-0.1,1.3-0.1,1.9c-0.1,0.9-0.1,1.9-0.1,2.8c0,0.1,0,0.3-0.1,0.4c-0.3,1.9-0.5,3.8-0.5,5.7c-0.1,3.7,0.1,7.4,0.7,11.1
		c0,0.2,0.1,0.3,0.2,0.4c0,0,0,0,0,0.1c-0.2,0.7-0.1,1.5,0,2.2c0.1,0.9,0.5,1.8,0.9,2.6c0.5,0.9,1.1,1.7,1.7,2.5
		c0.3,0.4,0.7,0.7,1,1.1c0.4,0.4,0.9,0.7,1.3,1c0.7,0.5,1.6,0.8,2.5,1c0.7,0.2,1.5,0.2,2.2,0.1c0.4,0,0.7-0.1,1.1-0.2
		c0.4-0.1,0.7-0.2,1.1-0.4c0.6-0.3,1.1-0.6,1.6-1.1c0.5-0.4,0.9-1,1.3-1.5c0.3-0.5,0.6-1.1,0.9-1.6c0.3-0.7,0.5-1.3,0.7-2
		c0.4-1.3,0.6-2.7,0.7-4.1C141.8,40.1,141.9,38.9,141.8,37.6z"/>
	<g>
		<path class="st1" d="M143.3,37.6c-0.8-7.5-1.9-15.9-1.3-23.4c0.4-5.5-0.4-10.8-6.7-12.2c-2.8-0.6-5.6-0.3-8,1.3
			c-5.4,3.7-3.9,9.5-4.1,15.1c-0.3,7.4-1.6,14.9-0.2,22.3c0.4,2.2,0.2,0.2,0.3,1c0.1,1.1-0.1,2.2,0.2,3.3c0.7,2.6,2.4,5.1,4.5,6.7
			c3.2,2.5,7.6,2.9,10.8,0.3C142.9,48.7,143.4,42.4,143.3,37.6c-0.1-1.9-3.1-1.9-3,0c0.1,3.7,0,9.3-3.2,12c-3.2,2.7-7.3,0.5-9.3-2.5
			c-1.2-1.8-1.1-3.6-1.4-5.5c-1.4-8.5-0.2-16.4,0-24.9c0.1-4.2-1.2-10.4,4.5-11.9c3.8-1,7.9,1.6,8.3,5.6c0.2,2-0.4,4.1-0.4,6.1
			c0,2.3,0.3,4.7,0.5,7c0.4,4.7,0.5,9.4,1,14C140.5,39.5,143.5,39.5,143.3,37.6z"/>
	</g>
</g>
<g>
	<path class="st0" d="M25,34.1c0-0.1-0.1-0.2-0.1-0.2c-0.4-0.7-0.8-1.4-1.4-2c-0.1-0.1-0.2-0.3-0.3-0.4c-0.4-0.4-0.9-0.8-1.5-1
		c0,0-0.1,0-0.1-0.1c-0.4-0.3-0.9-0.4-1.2-0.5c-0.4-0.1-0.8-0.2-1.2-0.3c-0.8-0.2-1.6-0.2-2.6-0.2h0c-0.9-0.1-1.7-0.2-2.4-0.2
		c-0.2,0-0.3,0-0.5,0c-0.7,0-1.4,0-2,0.1c0,0,0,0-0.1,0c0,0-0.1,0.1-0.1,0.1c0,0-0.1,0.1-0.1,0.1c0,0-0.1,0-0.1,0.1c0,0-0.1,0-0.2,0
		c0,0-0.1,0-0.1,0c-0.1,0-0.1,0-0.2,0c0,0-0.1,0-0.1,0c0,0-0.1,0-0.1,0c0,0,0,0-0.1,0c-0.1,0-0.1,0-0.2,0c-0.1,0-0.2-0.1-0.2-0.1
		c0,0,0,0,0,0c0,0,0,0,0-0.1c0,0,0,0,0-0.1c0,0,0,0,0-0.1c-0.1,0-0.1,0-0.2,0c-0.1-0.1-0.2-0.2-0.1-0.3c0,0,0,0,0-0.1
		c0,0,0-0.1,0.1-0.1c0,0,0,0,0,0c0,0,0,0,0-0.1c0,0,0,0,0,0c0,0,0,0,0-0.1c0,0,0,0,0-0.1c0,0,0-0.1,0.1-0.1c0,0,0,0,0,0c0,0,0,0,0,0
		c0,0,0-0.1,0-0.1c0,0,0-0.1,0-0.1c0,0,0-0.1,0.1-0.1c0,0,0.1-0.1,0.1-0.1c0,0,0,0,0.1,0c0,0,0,0,0,0c0,0,0,0,0,0c0,0,0,0,0,0
		c0,0,0.1,0,0.1-0.1c0.1,0,0.1,0,0.2-0.1c0,0,0,0,0,0c0,0,0,0,0,0c0,0,0,0,0,0c0,0,0,0,0,0c0.4-0.2,0.8-0.4,1.2-0.5
		c0.5-0.1,1-0.2,1.5-0.2c0.4,0,0.7,0.1,1.2,0.1l0,0l0.1,0c0.1,0,0.1,0,0.2,0c0.4,0.1,0.7,0.1,1.1,0.2l0.6,0.1c0.6,0.1,1.3,0.2,2,0.3
		c0.3,0,0.7,0,1,0c0.5,0,0.9,0,1.4-0.1c0.2,0,0.4,0,0.6,0c0.1,0,0.2,0,0.4,0c0.2,0,0.4-0.1,0.7-0.1c0.3-0.1,0.6-0.2,0.8-0.3
		c0.3-0.1,0.5-0.3,0.7-0.4c0.2-0.1,0.4-0.3,0.6-0.5c0.2-0.2,0.4-0.4,0.5-0.6c0,0,0.1-0.1,0.1-0.1c0.3-0.3,0.5-0.6,0.7-1
		c0.1-0.2,0.1-0.4,0.2-0.5l0-0.1c0-0.1,0.1-0.2,0.1-0.4c0-0.2,0.1-0.4,0.1-0.6c0-0.2,0-0.5,0-0.6l0-0.1c0-0.3-0.1-0.5-0.2-0.7
		c-0.1-0.3-0.2-0.6-0.2-0.8c-0.1-0.2-0.2-0.4-0.3-0.6c0-0.2-0.1-0.3-0.2-0.5c-0.2-0.2-0.4-0.4-0.5-0.6c-0.1-0.1-0.2-0.1-0.3-0.2l0,0
		l0,0c-0.1-0.1-0.1-0.1-0.2-0.1c0,0-0.1,0-0.1-0.1c0,0-0.1,0-0.1-0.1c0,0,0,0,0,0l0,0l0,0c-0.1-0.2-0.2-0.3-0.3-0.4
		c-0.3-0.3-0.7-0.5-1.1-0.7c-0.5-0.2-1.1-0.5-1.7-0.7c-0.3-0.1-0.6-0.2-1-0.2c-0.8-0.2-1.7-0.3-2.7-0.3c-0.1,0-0.2,0-0.3,0
		c-0.5,0-1,0-1.5,0.1c-0.1,0-0.1,0-0.2,0c0,0,0,0-0.1,0c0,0-0.1,0-0.2,0c-0.2,0-0.3,0-0.5,0c-0.6,0-1.2,0.1-1.9,0.2
		c-0.8,0.2-1.7,0.4-2.5,0.8c-0.9,0.4-1.7,0.8-2.5,1.3c-0.8,0.5-1.5,1.2-2.1,1.9c-0.4,0.5-0.8,1.1-1.1,1.6c-0.4,0.5-0.7,1-1,1.6
		c-0.3,0.6-0.5,1.2-0.7,1.9c-0.1,0.3-0.2,0.6-0.3,1c-0.2,0.4-0.3,0.9-0.3,1.3c-0.1,0.9-0.1,1.8,0,2.7c0,0.3,0,0.6,0,0.9
		c0,0.3,0,0.5,0,0.8c0,0.1,0,0.1,0,0.2c0,0,0,0.1,0,0.1l0,0.2l0.1,0.4c0.1,0.3,0.2,0.7,0.3,1.1c0.1,0.3,0.2,0.6,0.4,0.8
		c0,0,0,0,0,0.1s0,0.1,0,0.1c0.1,0.1,0.1,0.2,0.2,0.3c0,0,0,0.1,0.1,0.1c0.1,0.1,0.2,0.3,0.4,0.4c0,0,0,0,0,0.1c0,0,0.1,0.1,0.1,0.1
		l0.4-0.3l0,0l-0.3,0.3c0.1,0.1,0.2,0.2,0.3,0.3l0,0l0,0c0,0,0,0,0,0c0.1,0.1,0.2,0.1,0.2,0.2c0,0,0,0,0,0l0.1,0l0.1,0.1l0.1,0.1
		c0,0,0,0,0.1,0l0.1,0.1c0,0,0,0,0,0c0.1,0.1,0.3,0.2,0.4,0.3c0,0,0,0,0.1,0c0,0,0,0,0.1,0l0.1,0C5.6,37.9,5.8,37.9,6,38
		c0.1,0,0.2,0.1,0.3,0.1c0,0,0.1,0,0.1,0l0.1,0c0,0,0.1,0,0.1,0l0.2,0.1c0,0,0.1,0,0.1,0l0.2,0.1l0.1,0l0.2-0.4c0,0,0,0,0,0L7,38.4
		c0,0,0,0,0.1,0c0.1,0,0.2,0.1,0.3,0.1l0.1,0l0.2,0.1l0.1,0l0.1,0l0.2,0c0,0,0.1,0,0.1,0c0,0,0.1,0,0.1,0l0.1,0l0,0l0.1,0l0.2,0
		l0.1,0c0.2,0,0.4,0.1,0.5,0.1c0.1,0,0.3,0,0.4,0c0,0,0,0,0.1,0c0.4,0,0.7,0.1,1.1,0.1c0,0,0.1,0,0.1,0c0,0,0.1,0,0.1,0
		c0.2,0,0.4-0.1,0.7-0.1c0,0,0.1,0,0.1,0l0.1,0c0,0,0.1,0,0.1,0c0,0,0.1,0,0.1,0c0.1,0,0.2-0.1,0.3-0.1c0,0,0,0,0,0c0,0,0.1,0,0.1,0
		c0,0,0,0,0.1,0c0,0,0.1,0,0.1,0c0,0,0.1,0,0.1,0c0,0,0,0,0.1,0c0.1,0,0.2,0,0.2,0l0.1,0c0.3,0,0.5-0.1,0.7-0.1c0,0,0,0,0,0h0
		c0,0,0.1,0,0.1,0c0.3,0,0.6-0.1,1-0.2l0.2,0c0.8,0.1,1.4,0.3,1.9,0.5c0.4,0.2,0.7,0.3,1,0.5c0.1,0.1,0.2,0.2,0.3,0.3
		c0.1,0.1,0.1,0.2,0.1,0.3c0,0,0,0.1,0,0.1c0,0.1,0,0.2-0.1,0.3c0,0.1,0,0.1-0.1,0.2c0,0.1-0.1,0.1-0.1,0.2
		c-0.1,0.1-0.1,0.1-0.2,0.2c0,0-0.1,0-0.1,0c-0.2,0.1-0.4,0.2-0.5,0.2l-0.1,0.1c0,0-0.1,0-0.1,0.1c-0.2,0-0.4,0.1-0.6,0.1l-0.1,0
		c-0.5,0-1-0.2-1.5-0.3c-0.2-0.1-0.5-0.1-0.7-0.2c-0.4-0.1-0.7-0.2-1.1-0.3c-0.3-0.1-0.6-0.1-1-0.2c-0.4-0.1-0.8-0.1-1.1-0.1
		c-0.4,0-0.8,0-1.2,0.1c-0.1,0-0.2,0.1-0.3,0.1c-0.2,0-0.3,0-0.5,0c-0.1,0-0.3,0-0.4,0c-1,0-1.8,0.1-2.6,0.4
		c-1.2,0.3-2.1,0.8-2.8,1.4c-0.9,0.8-1.6,2-1.7,3.2c0,0.4-0.1,0.7-0.1,1c0,0.3,0.1,0.7,0.1,1.1c0,0.1,0,0.2,0.1,0.3
		c0,0.1,0,0.1,0.1,0.2c0,0,0,0,0,0c0,0,0,0,0,0.1c0,0,0,0,0,0.1c0,0.1,0.1,0.2,0.2,0.3L2,48.6l0,0.1c0.1,0.1,0.1,0.1,0.2,0.2
		l0.2,0.3c0.1,0.1,0.2,0.2,0.3,0.4c0.2,0.3,0.6,0.7,1,1.1c0,0,0,0,0.1,0c0.1,0.1,0.2,0.1,0.3,0.2C4.2,51,4.3,51,4.4,51.1
		c0,0,0,0,0,0c0,0,0.1,0,0.1,0.1l0.3-0.4c0,0,0,0,0,0l-0.2,0.4l0.1,0c0.1,0,0.1,0.1,0.2,0.1l0.1,0c0.2,0.1,0.4,0.2,0.6,0.2l0.3,0.1
		l0.1,0l0.1,0l0.1,0.1c0,0,0,0,0,0l0.1,0l0.1,0C6.5,52,6.6,52,6.7,52.1c0.1,0,0.1,0,0.2,0c0.3,0.1,0.7,0.1,1,0.1c0,0,0.1,0,0.1,0
		c0.1,0,0.2,0,0.3,0c0.1,0.1,0.2,0.1,0.3,0.1c0.4,0,0.9,0,1.3,0c0.4,0,0.9,0,1.3,0c0.4,0,0.8-0.1,1.2-0.1l0,0c0.3,0,0.7,0,1,0
		c0.3,0,0.6,0,1,0l0.3,0l0.3,0c0.2,0,0.4,0,0.6,0c0.2,0,0.4,0,0.6,0l0.1,0c0.3,0,0.6,0,1-0.1c0.1,0,0.3,0,0.4,0
		c0.6-0.1,1.2-0.2,1.9-0.4c0.6-0.2,1.2-0.4,1.7-0.7c0.6-0.4,1.2-0.8,1.6-1.2c0.3-0.3,0.5-0.6,0.7-0.9c0.2-0.3,0.4-0.6,0.6-0.9
		c0.1-0.2,0.2-0.4,0.3-0.7c0-0.1,0.1-0.1,0.1-0.2c0.2-0.4,0.4-0.8,0.6-1.3c0.2-0.4,0.3-0.9,0.4-1.4c0-0.2,0.1-0.4,0.1-0.7
		c0-0.1,0-0.2,0.1-0.2c0.3-0.8,0.5-1.7,0.6-2.6c0.2-1.6,0.1-3-0.3-4.3C25.8,35.6,25.5,34.8,25,34.1z"/>
	<g>
		<path class="st1" d="M26.3,33.3c-1.9-4.1-5.6-5.2-9.8-5.6c-1.1-0.1-4.8-0.8-5.7,0.1C10.3,28.3,11,28,11,28c-0.1,0-0.1,0-0.1,0
			c-0.6-0.1-0.4,0.2,0.6,1.1c0-0.7-0.5-1.3-1.1-1.4c-1.5-0.4,1.9,3,0.9,1.4c0,0-0.1-1.2-0.1-1.2c-0.2,0.9,0.3,1.5-0.1,1.3
			c-0.4-0.1,2-0.7,1.9-0.6c1.8-0.2,3.6,0.6,5.4,0.7c3.6,0.2,7.4-0.4,8.9-4.1c1-2.4,0.1-5.8-2.1-7.3c-0.4,0.9-0.8,1.8-1.2,2.7
			c0,0,0,0,0,0c1.4,0.5,2.5-1.5,1.5-2.5c-0.7-0.6-0.5-0.6-0.2,0c-0.1,0.6-0.2,1.2-0.2,1.8c0,0,0,0,0,0c1.1-0.9-0.1-3-1.5-2.5
			c0,0,0,0,0,0c0.6,0.2,1.1,0.5,1.7,0.7c-4.8-6.4-17.7-2.6-21.7,2.8c-3.1,4.3-5,12.4-0.8,16.7c0.6,0.6,1.5,0.5,2.1,0
			c0.1-0.1,0.2-0.2,0.4-0.3c-0.7,0-1.4,0-2.1,0c0,0,0,0,0,0c0-0.7,0-1.4,0-2.1c-0.1,0.1-0.2,0.2-0.3,0.3c-0.6,0.6-0.6,1.6,0,2.1
			c0.1,0.1,0.2,0.2,0.3,0.3c0.6,0.5,1.5,0.6,2.1,0c0,0,0,0,0,0c-0.7,0-1.4,0-2.1,0c0.8,0.8,2,1.5,3.5,1.9c0.8,0.2,1.6-0.3,1.8-1
			c0.1-0.1,0.1-0.3,0.2-0.4c-0.6,0.3-1.2,0.7-1.8,1c0,0,0,0,0,0c-0.3-0.6-0.7-1.2-1-1.8c0,0.2-0.1,0.3-0.1,0.5
			c-0.2,0.8,0.3,1.6,1,1.8c1.8,0.5,3.7,0.7,5.6,0.5c0.5,0,0.9-0.3,1.4-0.3c0.5,0,1.1,0,1.6-0.1c0.6-0.1,2.2,0,2.1-0.3
			c0,0-0.8,0.3-0.8,0.3c-5-2-15.1-1.7-16.3,5.2c-0.5,3,1,6,3.7,7.4c0.7,0.4,1.6,0.2,2.1-0.5c0.1-0.1,0.2-0.3,0.3-0.4
			c-0.7,0.2-1.4,0.4-2.1,0.5c0,0,0,0,0,0c-0.2-0.7-0.4-1.4-0.5-2.1c-0.1,0.1-0.1,0.3-0.2,0.4c-0.4,0.7-0.2,1.7,0.5,2.1
			c3.9,2,8.1,1.5,12.4,1.1C26,53,30.9,41.6,26.3,33.3c-0.9-1.7-3.5-0.2-2.6,1.5c2.1,3.8,1.4,10.5-1.8,13.7c-2.3,2.3-5.4,2-8.4,2.1
			c-2.8,0.1-5.6,0.6-8.1-0.7c0.2,0.7,0.4,1.4,0.5,2.1c0.1-0.1,0.1-0.3,0.2-0.4c0.4-0.7,0.2-1.7-0.5-2.1c0,0,0,0,0,0
			C4.8,49.1,4,49.3,3.5,50c-0.1,0.1-0.2,0.3-0.3,0.4c0.7-0.2,1.4-0.4,2.1-0.5c-0.8-0.4-2.1-2.1-2.1-2.2c-2.3-6.2,7.4-6,10.6-5.3
			c2,0.4,8.1,0.4,5.7-3.5c-2.2-3.4-8.6-1-12-1.9c0.3,0.6,0.7,1.2,1,1.8c0-0.2,0.1-0.3,0.1-0.5c0.2-0.8-0.3-1.6-1-1.8c0,0,0,0,0,0
			c-0.8-0.2-1.6,0.3-1.8,1c-0.1,0.1-0.1,0.3-0.2,0.4c0.6-0.3,1.2-0.7,1.8-1c-0.3-0.1-1.1-0.2-1.3-0.5c-0.6-0.8-0.4-0.2-0.9-0.7
			c-0.6-0.6-1.5-0.6-2.1,0c0,0,0,0,0,0c0.7,0,1.4,0,2.1,0c-0.1-0.1-0.2-0.2-0.3-0.3c0,0.7,0,1.4,0,2.1c0.1-0.1,0.2-0.2,0.3-0.3
			c0.6-0.6,0.6-1.5,0-2.1c0,0,0,0,0,0c-0.6-0.6-1.5-0.5-2.1,0c-0.1,0.1-0.2,0.2-0.4,0.3c0.7,0,1.4,0,2.1,0
			c-2.6-2.7-1.3-8.3,0.1-11.1c2-4,5.7-5.9,10-6.3c1.3-0.1,6.3-0.4,7.7,1.5c0.4,0.5,1,0.9,1.7,0.7c0,0,0,0,0,0
			c-0.5-0.8-1-1.7-1.5-2.5c0,0,0,0,0,0c-0.5,0.5-0.5,1.2-0.2,1.8c0.1,0.3,0.8,0.7,0.7,0.6c0.5-0.8,1-1.7,1.5-2.5c0,0,0,0,0,0
			c-1.7-0.6-2.5,1.8-1.2,2.7c1.7,1.1,1,3.9-0.2,5c-2,1.7-5.4,0.8-7.8,0.4c-1.2-0.2-2.9-0.5-4.5,0.1c-0.5,0.2-2.6,1.5-1.5,0.8
			c1.3-0.8-0.1-0.1-0.1-0.1c-0.9,0.8-1,0.8-1.2,1.6c0,0,0,1.3,0.2,1.2c1.2-0.5-0.5-2.4-0.2-1.1c0.2,1-0.2,2,1.2,2.4
			c-0.4-0.5-0.7-1-1.1-1.4c0.1,1.8,1.7,1.8,3,1.8c0.2,0,2.1-0.6-0.3-0.2c1.1-0.2,2.4-0.1,3.5-0.1c3.7,0.1,7.3,0.6,9,4.3
			C24.5,36.6,27.1,35.1,26.3,33.3z"/>
	</g>
</g>
<g>
	<path class="st0" d="M155.7,28.3c0-0.1,0.1-0.1,0.1-0.2c0.1-0.1,0.1-0.1,0.2-0.2c0,0,0.1,0,0.1,0c0.2-0.1,0.4-0.2,0.5-0.2l0.1-0.1
		c0,0,0.1,0,0.1-0.1c0.2,0,0.4-0.1,0.6-0.1l0.1,0c0.5,0,1,0.2,1.5,0.3c0.2,0.1,0.5,0.1,0.7,0.2c0.4,0.1,0.7,0.2,1.1,0.3
		c0.3,0.1,0.6,0.1,1,0.2c0.4,0.1,0.8,0.1,1.1,0.1c0.4,0,0.8,0,1.2-0.1c0.1,0,0.2-0.1,0.3-0.1c0.2,0,0.3,0,0.5,0c0.1,0,0.3,0,0.4,0
		c1,0,1.8-0.1,2.6-0.4c1.2-0.3,2.1-0.8,2.8-1.4c0.9-0.8,1.6-2,1.7-3.2c0-0.4,0.1-0.7,0.1-1c0-0.3-0.1-0.7-0.1-1.1
		c0-0.1,0-0.2-0.1-0.3c0-0.1,0-0.1-0.1-0.2c0,0,0,0,0,0c0,0,0,0,0-0.1c0,0,0,0,0-0.1c0-0.1-0.1-0.2-0.2-0.3l-0.1-0.1l0-0.1
		c-0.1-0.1-0.1-0.1-0.2-0.2l-0.2-0.3c-0.1-0.1-0.2-0.2-0.3-0.4c-0.2-0.3-0.6-0.7-1-1.1c0,0,0,0-0.1,0c-0.1-0.1-0.2-0.1-0.3-0.2
		c-0.1-0.1-0.2-0.1-0.3-0.2c0,0,0,0,0,0c0,0-0.1,0-0.1-0.1l-0.3,0.4c0,0,0,0,0,0l0.2-0.4l-0.1,0c-0.1,0-0.1-0.1-0.2-0.1l-0.1,0
		c-0.2-0.1-0.4-0.2-0.6-0.2l-0.3-0.1l-0.1,0l-0.1,0l-0.1-0.1c0,0,0,0,0,0l-0.1,0l-0.1,0c-0.1-0.1-0.3-0.1-0.4-0.2
		c-0.1,0-0.1,0-0.2,0c-0.3-0.1-0.7-0.1-1-0.1c0,0-0.1,0-0.1,0c-0.1,0-0.2,0-0.3,0c-0.1-0.1-0.2-0.1-0.3-0.1c-0.4,0-0.9,0-1.3,0
		c-0.4,0-0.9,0-1.3,0c-0.4,0-0.8,0.1-1.2,0.1l0,0c-0.3,0-0.7,0-1,0c-0.3,0-0.6,0-1,0l-0.3,0l-0.3,0c-0.2,0-0.4,0-0.6,0
		c-0.2,0-0.4,0-0.6,0l-0.1,0c-0.3,0-0.6,0-1,0.1c-0.1,0-0.3,0-0.4,0c-0.6,0.1-1.2,0.2-1.9,0.4c-0.6,0.2-1.2,0.4-1.7,0.7
		c-0.6,0.4-1.2,0.8-1.6,1.2c-0.3,0.3-0.5,0.6-0.7,0.9c-0.2,0.3-0.4,0.6-0.6,0.9c-0.1,0.2-0.2,0.4-0.3,0.7c0,0.1-0.1,0.1-0.1,0.2
		c-0.2,0.4-0.4,0.8-0.6,1.3c-0.2,0.4-0.3,0.9-0.4,1.4c0,0.2-0.1,0.4-0.1,0.7c0,0.1,0,0.2-0.1,0.2c-0.3,0.8-0.5,1.7-0.6,2.6
		c-0.2,1.6-0.1,3,0.3,4.3c0.3,0.9,0.6,1.7,1.1,2.4c0,0.1,0.1,0.2,0.1,0.2c0.4,0.7,0.8,1.4,1.4,2c0.1,0.1,0.2,0.3,0.3,0.4
		c0.4,0.4,0.9,0.8,1.5,1c0,0,0.1,0,0.1,0.1c0.4,0.3,0.9,0.4,1.2,0.5c0.4,0.1,0.8,0.2,1.2,0.3c0.8,0.2,1.6,0.2,2.6,0.2l0,0
		c0.9,0.1,1.7,0.2,2.4,0.2c0.2,0,0.3,0,0.5,0c0.7,0,1.4-0.1,2-0.1c0,0,0,0,0.1,0c0,0,0.1-0.1,0.1-0.1c0,0,0.1-0.1,0.1-0.1
		c0,0,0.1,0,0.1-0.1c0,0,0.1,0,0.2,0c0,0,0.1,0,0.1,0c0.1,0,0.1,0,0.2,0c0,0,0.1,0,0.1,0c0,0,0.1,0,0.1,0c0,0,0,0,0.1,0
		c0.1,0,0.1,0,0.2,0c0.1,0,0.2,0.1,0.2,0.1c0,0,0,0,0,0c0,0,0,0,0,0.1c0,0,0,0,0,0.1c0,0,0,0,0,0.1c0.1,0,0.1,0,0.2,0
		c0.1,0.1,0.2,0.2,0.1,0.3c0,0,0,0,0,0.1c0,0,0,0.1-0.1,0.1c0,0,0,0,0,0c0,0,0,0,0,0.1c0,0,0,0,0,0c0,0,0,0,0,0.1c0,0,0,0,0,0.1
		c0,0,0,0.1-0.1,0.1c0,0,0,0,0,0c0,0,0,0,0,0c0,0,0,0.1,0,0.1c0,0,0,0.1,0,0.1c0,0,0,0.1-0.1,0.1c0,0-0.1,0.1-0.1,0.1c0,0,0,0-0.1,0
		c0,0,0,0,0,0c0,0,0,0,0,0c0,0,0,0,0,0c0,0-0.1,0-0.1,0.1c-0.1,0-0.1,0-0.2,0.1c0,0,0,0,0,0c0,0,0,0,0,0c0,0,0,0,0,0c0,0,0,0,0,0
		c-0.4,0.2-0.8,0.4-1.2,0.5c-0.5,0.1-1,0.2-1.5,0.2c-0.4,0-0.7-0.1-1.2-0.1l0,0l-0.1,0c-0.1,0-0.1,0-0.2,0c-0.4-0.1-0.7-0.1-1.1-0.2
		l-0.6-0.1c-0.6-0.1-1.3-0.2-2-0.3c-0.3,0-0.7,0-1,0c-0.5,0-0.9,0-1.4,0.1c-0.2,0-0.4,0-0.6,0c-0.1,0-0.2,0-0.4,0
		c-0.2,0-0.4,0.1-0.7,0.1c-0.3,0.1-0.6,0.2-0.8,0.3c-0.3,0.1-0.5,0.3-0.7,0.4c-0.2,0.1-0.4,0.3-0.6,0.5c-0.2,0.2-0.4,0.4-0.5,0.6
		c0,0-0.1,0.1-0.1,0.1c-0.3,0.3-0.5,0.6-0.7,1c-0.1,0.2-0.1,0.4-0.2,0.5l0,0.1c0,0.1-0.1,0.2-0.1,0.4c0,0.2-0.1,0.4-0.1,0.6
		c0,0.2,0,0.5,0,0.6l0,0.1c0,0.3,0.1,0.5,0.2,0.7c0.1,0.3,0.2,0.6,0.2,0.8c0.1,0.2,0.2,0.4,0.3,0.6c0,0.2,0.1,0.3,0.2,0.5
		c0.2,0.2,0.4,0.4,0.5,0.6c0.1,0.1,0.2,0.1,0.3,0.2l0,0l0,0c0.1,0.1,0.1,0.1,0.2,0.1c0,0,0.1,0,0.1,0.1c0,0,0.1,0,0.1,0.1
		c0,0,0,0,0,0l0,0l0,0c0.1,0.2,0.2,0.3,0.3,0.4c0.3,0.3,0.7,0.5,1.1,0.7c0.5,0.2,1.1,0.5,1.7,0.7c0.3,0.1,0.6,0.2,1,0.2
		c0.8,0.2,1.7,0.3,2.7,0.3c0.1,0,0.2,0,0.3,0c0.5,0,1,0,1.5-0.1c0.1,0,0.1,0,0.2,0c0,0,0,0,0.1,0c0,0,0.1,0,0.2,0c0.2,0,0.3,0,0.5,0
		c0.6,0,1.2-0.1,1.9-0.2c0.8-0.2,1.7-0.4,2.5-0.8c0.9-0.4,1.7-0.8,2.5-1.3c0.8-0.5,1.5-1.2,2.1-1.9c0.4-0.5,0.8-1.1,1.1-1.6
		c0.4-0.5,0.7-1,1-1.6c0.3-0.6,0.5-1.2,0.7-1.9c0.1-0.3,0.2-0.6,0.3-1c0.2-0.4,0.3-0.9,0.3-1.3c0.1-0.9,0.1-1.8,0-2.7
		c0-0.3,0-0.6,0-0.9c0-0.3,0-0.5,0-0.8c0-0.1,0-0.1,0-0.2c0,0,0-0.1,0-0.1l0-0.2l-0.1-0.4c-0.1-0.3-0.2-0.7-0.3-1.1
		c-0.1-0.3-0.2-0.6-0.4-0.8c0,0,0,0,0-0.1c0,0,0-0.1,0-0.1c-0.1-0.1-0.1-0.2-0.2-0.3c0,0,0-0.1-0.1-0.1c-0.1-0.1-0.2-0.3-0.4-0.4
		c0,0,0,0-0.1-0.1c0,0-0.1-0.1-0.1-0.1l-0.4,0.3l0,0l0.3-0.3c-0.1-0.1-0.2-0.2-0.3-0.3l0,0l0,0c0,0,0,0,0,0
		c-0.1-0.1-0.2-0.1-0.2-0.2c0,0,0,0,0,0l-0.1,0l-0.1-0.1l-0.1-0.1c0,0,0,0-0.1,0l-0.1-0.1c0,0,0,0,0,0c-0.1-0.1-0.3-0.2-0.4-0.3
		c0,0,0,0-0.1,0c0,0,0,0-0.1,0l-0.1,0c-0.2-0.1-0.4-0.2-0.5-0.2c-0.1,0-0.2-0.1-0.3-0.1c0,0-0.1,0-0.1,0l-0.1,0c0,0-0.1,0-0.1,0
		l-0.2-0.1c0,0-0.1,0-0.1,0l-0.2-0.1l-0.1,0l-0.2,0.4c0,0,0,0,0,0l0.1-0.5c0,0,0,0-0.1,0c-0.1,0-0.2-0.1-0.3-0.1l-0.1,0l-0.2-0.1
		l-0.1,0l-0.1,0l-0.2,0c0,0-0.1,0-0.1,0c0,0-0.1,0-0.1,0l-0.1,0l0,0l-0.1,0l-0.2,0l-0.1,0c-0.2,0-0.4-0.1-0.5-0.1
		c-0.1,0-0.3,0-0.4,0c0,0,0,0-0.1,0c-0.4,0-0.7-0.1-1.1-0.1c0,0-0.1,0-0.1,0c0,0-0.1,0-0.1,0c-0.2,0-0.4,0.1-0.7,0.1
		c0,0-0.1,0-0.1,0l-0.1,0c0,0-0.1,0-0.1,0c0,0-0.1,0-0.1,0c-0.1,0-0.2,0.1-0.3,0.1c0,0,0,0,0,0c0,0-0.1,0-0.1,0c0,0,0,0-0.1,0
		c0,0-0.1,0-0.1,0c0,0-0.1,0-0.1,0c0,0,0,0-0.1,0c-0.1,0-0.2,0-0.2,0l-0.1,0c-0.3,0-0.5,0.1-0.7,0.1c0,0,0,0,0,0h0c0,0-0.1,0-0.1,0
		c-0.3,0-0.6,0.1-1,0.2l-0.2,0c-0.8-0.1-1.4-0.3-1.9-0.5c-0.4-0.2-0.7-0.3-1-0.5c-0.1-0.1-0.2-0.2-0.3-0.3c-0.1-0.1-0.1-0.2-0.1-0.3
		c0,0,0-0.1,0-0.1c0-0.1,0-0.2,0.1-0.3C155.7,28.4,155.7,28.3,155.7,28.3z"/>
	<g>
		<path class="st1" d="M157,29c-0.6,0.8-0.1-0.2,0.5-0.2c0.2,0,1.4,0.4,1.9,0.5c1.8,0.5,3.3,0.5,5.1,0.4c3.5-0.2,7.3-0.9,8.9-4.5
			c1.5-3.4,0-7.2-3.2-8.9c-0.7-0.4-1.6-0.2-2.1,0.5c-0.1,0.1-0.2,0.3-0.3,0.4c0.7-0.2,1.4-0.4,2.1-0.5c0,0,0,0,0,0
			c0.2,0.7,0.4,1.4,0.5,2.1c0.1-0.1,0.1-0.3,0.2-0.4c0.4-0.7,0.2-1.7-0.5-2.1c-2.9-1.5-5.4-1.3-8.6-1.2c-5.9,0.2-11,0.5-13.8,6.6
			c-2.7,5.9-2.4,14.5,3.9,18c2.7,1.5,6.8,1.8,9.8,1.5c0.5-0.1,1.7,0,2.1-0.5c-0.4,0.5-0.9-0.5-0.9-1c0,0.7,0.5,1.3,1.1,1.4
			c-0.4-0.1,0.3-3-0.5-2c0,0-0.5,0.6-0.4,0.7c-0.2-0.1,0.1,1.2,0.1,1.2c0.2-1-0.1-1.4,0-1.2c0-0.1,0.4-0.1,0.1-0.1
			c0.2,0-1.5,0.6-1.8,0.6c-1.8,0.2-3.6-0.6-5.4-0.7c-3.6-0.2-7.4,0.4-8.9,4.1c-1,2.4-0.1,5.8,2.1,7.3c0.4-0.9,0.8-1.8,1.2-2.7
			c0,0,0,0,0,0c-1.4-0.5-2.5,1.5-1.5,2.5c0.7,0.6,0.5,0.6,0.2,0c0.2-0.7,0.4-1.4,0.5-2.1c0,0,0,0,0,0c-1.4,0.9-0.5,3.4,1.2,2.7
			c0,0,0,0,0,0c-0.6-0.2-1.1-0.5-1.7-0.7c4.8,6.4,17.7,2.6,21.7-2.8c3.1-4.3,5-12.4,0.8-16.7c-0.6-0.6-1.5-0.5-2.1,0
			c-0.1,0.1-0.2,0.2-0.4,0.3c0.7,0,1.4,0,2.1,0c0,0,0,0,0,0c0,0.7,0,1.4,0,2.1c0.1-0.1,0.2-0.2,0.3-0.3c0.6-0.6,0.6-1.6,0-2.1
			c-0.1-0.1-0.2-0.2-0.3-0.3c-0.6-0.5-1.5-0.6-2.1,0c0,0,0,0,0,0c0.7,0,1.4,0,2.1,0c-0.8-0.8-2-1.5-3.5-1.9c-0.8-0.2-1.6,0.3-1.8,1
			c-0.1,0.1-0.1,0.3-0.2,0.4c0.6-0.3,1.2-0.7,1.8-1c0,0,0,0,0,0c0.3,0.6,0.7,1.2,1,1.8c0-0.2,0.1-0.3,0.1-0.5c0.2-0.8-0.3-1.6-1-1.8
			c-1.5-0.4-3.2-0.7-4.7-0.6C161.9,28.4,156.9,29.3,157,29c0.8-1.8-1.8-3.3-2.6-1.5c-2.5,5.7,9.3,3.5,12.2,4.4
			c-0.3-0.6-0.7-1.2-1-1.8c0,0.2-0.1,0.3-0.1,0.5c-0.2,0.8,0.3,1.6,1,1.8c0,0,0,0,0,0c0.8,0.2,1.6-0.3,1.8-1
			c0.1-0.1,0.1-0.3,0.2-0.4c-0.6,0.3-1.2,0.7-1.8,1c0.3,0.1,1.1,0.2,1.3,0.5c0.6,0.8,0.4,0.2,0.9,0.7c0.6,0.6,1.5,0.6,2.1,0
			c0,0,0,0,0,0c-0.7,0-1.4,0-2.1,0c0.1,0.1,0.2,0.2,0.3,0.3c0-0.7,0-1.4,0-2.1c-0.1,0.1-0.2,0.2-0.3,0.3c-0.6,0.6-0.6,1.5,0,2.1
			c0,0,0,0,0,0c0.6,0.6,1.5,0.5,2.1,0c0.1-0.1,0.2-0.2,0.4-0.3c-0.7,0-1.4,0-2.1,0c2.6,2.7,1.4,8.1-0.1,11.1c-2,4-5.7,5.9-10,6.3
			c-1.3,0.1-6.3,0.4-7.7-1.5c-0.4-0.5-1-0.9-1.7-0.7c0,0,0,0,0,0c0.4,0.9,0.8,1.8,1.2,2.7c0,0,0,0,0,0c0.7-0.5,0.9-1.3,0.5-2.1
			c-0.1-0.3-0.8-0.7-0.7-0.6c-0.5,0.8-1,1.7-1.5,2.5c0,0,0,0,0,0c1.7,0.6,2.5-1.8,1.2-2.7c-2.1-1.4-0.7-4.5,0.9-5.4
			c2.1-1.1,4.8-0.4,7.1,0c1.3,0.2,3,0.5,4.6-0.1c0.8-0.3,2.9-1.3,0.9-0.4c0.6-0.3-0.2,0.4,0.6-0.2c0.3-0.3,1.2-1,1.2-1.9
			c0.1-1.8-1.1,0.8-0.8,1.1c0,0.1,0.7-0.6,0.7-0.7c-0.1-1.1,0.4-2.1-1.1-2.5c0.4,0.5,0.7,1,1.1,1.4c0-1.8-1.8-1.8-3.1-1.8
			c-1.5,0,0.9,0,0,0.2c-1.7,0.2-3.3,0.1-4.9-0.1c-4.5-0.4-7.6-2.6-8.3-7.3c-0.5-3.6,0.9-9.5,4.3-11.5c2.3-1.3,5-1,7.5-1.1
			c2.6-0.1,5.2-0.5,7.6,0.7c-0.2-0.7-0.4-1.4-0.5-2.1c-0.1,0.1-0.1,0.3-0.2,0.4c-0.4,0.7-0.2,1.7,0.5,2.1c0,0,0,0,0,0
			c0.7,0.4,1.6,0.2,2.1-0.5c0.1-0.1,0.2-0.3,0.3-0.4c-0.7,0.2-1.4,0.4-2.1,0.5c0.8,0.4,2,1.7,2.2,2.2c1.1,3.5-3.2,5.4-6.4,5.6
			c-3.1,0.2-7.7-2.3-10.1,0.8C153.3,29.1,155.9,30.6,157,29z"/>
	</g>
</g>
</svg>
