<?xml version="1.0" encoding="utf-8"?>
<!-- Generator: Adobe Illustrator 23.0.3, SVG Export Plug-In . SVG Version: 6.00 Build 0)  -->
<svg version="1.1" id="Layer_1" xmlns="http://www.w3.org/2000/svg" xmlns:xlink="http://www.w3.org/1999/xlink" x="0px" y="0px"
	 viewBox="0 0 580.2 78.7" style="enable-background:new 0 0 580.2 78.7;" xml:space="preserve">
<style type="text/css">
	.st0{opacity:0.1;}
	.st1{fill:#FFFFFF;}
	.st2{fill:#2C2C2C;}
</style>
<g id="Layer_5" class="st0">
</g>
<g id="Layer_3" class="st0">
</g>
<g>
	<g id="XMLID_866_">
		<path class="st1" d="M383.7,69.1c0,0,0.2,0.5-0.6,0.5c-26.7,0.6-69.2,0-69.2,0c-0.8-0.1-0.6-0.5-0.6-0.5c-1.1-15.1,0-43.2,0-43.2
			s-0.2-0.5,0.6-0.5c41.5-1.1,69.6,0,69.6,0c0.8,0.1,0.6,0.5,0.6,0.5S384.3,49.5,383.7,69.1z"/>
		<g>
			<path class="st2" d="M382.2,69.1c-0.1-1.8-10.6-0.8-12.5-0.8c-4.8,0-9.6,0.1-14.4,0.1c-8.8,0-17.6,0-26.5-0.1
				c-3.1,0-6.2-0.1-9.4-0.1c-1.5,0-3.7-0.5-5.1-0.1c-0.2,0,0,1.6,0.5-0.1c0.4-1.6-0.2-4.2-0.3-5.9c-0.1-4.6-0.2-9.2-0.1-13.8
				c0-6.6-0.8-14.1,0.4-20.6c0.1-0.3-0.2-1.4,0.1-1.6c-0.8,0.7,4.8,0.7,4.9,0.7c6.3-0.1,12.6-0.2,18.8-0.3c9.3-0.1,18.6-0.1,28,0
				c5,0.1,10.4,0.8,15.3,0.3c0.4,0,0.9,0.2,1.3,0c0.7-0.2-0.5-1-0.6-0.8c-0.7,2.1,0,5.5,0,7.8C382.7,45.6,382.5,57.3,382.2,69.1
				c-0.1,1.9,2.9,1.9,3,0c0.3-9.9,0.4-19.8,0.4-29.7c0-4.6-0.3-9.3,0-13.8c0-0.5-0.3-1.1-0.7-1.3c-1.7-0.8-3.6-0.6-5.4-0.6
				c-5.1-0.1-10.2-0.2-15.3-0.3c-8-0.1-16-0.1-24,0c-5,0-9.9,0.1-14.9,0.2c-3.9,0.1-9.2-0.8-12.8,0.7c-0.4,0.2-0.8,0.8-0.7,1.3
				c0.4,5.3-0.3,10.9-0.4,16.2c-0.1,4.8-0.1,9.7,0,14.5c0.1,4.3,0.8,8.8,0.4,13c0,0.5,0.3,1.1,0.7,1.3c2.1,1,4.9,0.5,7.2,0.5
				c6.2,0.1,12.5,0.1,18.7,0.2c8,0,16,0.1,24,0c4.2,0,8.5,0,12.7-0.1c2.9,0,6.6,0.5,9.2-0.6c0.4-0.2,0.8-0.8,0.7-1.3
				c0-0.1,0-0.2,0-0.2C385.1,67.2,382.1,67.2,382.2,69.1z"/>
		</g>
	</g>
	<g id="XMLID_865_">
		<path class="st1" d="M375.8,33.9c0,0,0.2-1.2-0.8-1.3c0,0-17.5-1.4-39.1,0c-1,0.1-0.8,1.3-0.8,1.3s-0.2,15.8,0.4,26.9
			c0,0-0.2,1.2,0.8,1.3c0,0,16.7,1,38.4,0c1,0,0.8-1.3,0.8-1.3L375.8,33.9z"/>
		<g>
			<path class="st2" d="M377.3,33.9c0.1-2.9-2.8-2.8-4.9-2.9c-6.4-0.4-12.8-0.5-19.2-0.4c-4.8,0-9.6,0.2-14.4,0.5
				c-2.3,0.1-4.4-0.2-5.2,2.2c-0.3,0.9-0.1,2.4-0.1,3.4c0,3.1,0,6.3,0,9.4c0,4,0.1,8,0.2,12c0.1,1.8-0.4,4.1,1.4,5.2
				c2.1,1.3,6.4,0.6,8.7,0.7c8.3,0.2,16.7,0.2,25-0.1c4-0.1,7.8,0.9,8.1-3.7C377.5,51.5,377.2,42.7,377.3,33.9c0-1.9-3-1.9-3,0
				c-0.1,6.1-0.2,12.2-0.2,18.3c0,1.7,0.8,6.8-0.1,8.2c-0.6,0.8-4.6,0.4-6,0.4c-3.8,0.1-7.5,0.2-11.3,0.2c-5.2,0-10.5-0.1-15.7-0.2
				c-1.2,0-2.8,0.2-4-0.2c-0.1,0-0.6,0.1-0.7,0c1.1,0.9,0.5-2.7,0.5-3.4c-0.2-5.9-0.3-11.8-0.2-17.7c0-1.2-0.6-4,0-5.1
				c0.6-1.1,5.3-0.6,7-0.7c7.3-0.3,14.6-0.3,21.9-0.1c2.3,0.1,4.7,0.2,7,0.3c0.6,0,1.3,0,1.8,0.1c1.2,0.3,0.1-0.3,0.1-0.2
				C374.2,35.9,377.2,35.9,377.3,33.9z"/>
		</g>
	</g>
	<g>
		<g>
			<path class="st1" d="M367.9,9.5c-4.4,4.5-9.6,9.6-14.4,14.3c-0.2-0.2-0.4-0.4-0.5-0.6C370.2,6.4,367.9,9.5,367.9,9.5z"/>
			<g>
				<path class="st2" d="M366.9,8.4c-4.7,4.8-9.5,9.6-14.4,14.3c0.7,0,1.4,0,2.1,0c-0.2-0.2-0.4-0.4-0.5-0.6c0,0.7,0,1.4,0,2.1
					c4.3-4.2,8.6-8.5,13.1-12.5c0.4-0.4,1.4-1,1.5-1.2c-0.2,0.6-2.4-1.3-1.9-2c0,0,0,0.1-0.1,0.1c-1.1,1.6,1.5,3.1,2.6,1.5
					c1.3-1.8-1.1-2.8-2.5-2c-1.4,0.9-2.7,2.3-3.9,3.4c-3.7,3.4-7.3,7-10.9,10.5c-0.6,0.6-0.6,1.5,0,2.1c0.2,0.2,0.4,0.4,0.5,0.6
					c0.6,0.6,1.5,0.6,2.1,0c4.9-4.7,9.7-9.5,14.4-14.3C370.3,9.2,368.2,7,366.9,8.4z"/>
			</g>
		</g>
		<g>
			<path class="st1" d="M338.7,8.9c4.5,4.4,9.6,9.6,14.3,14.4c-0.2,0.2-0.4,0.4-0.6,0.5C335.6,6.6,338.7,8.9,338.7,8.9z"/>
			<g>
				<path class="st2" d="M337.6,9.9c4.8,4.7,9.6,9.5,14.3,14.4c0-0.7,0-1.4,0-2.1c-0.2,0.2-0.4,0.4-0.6,0.5c0.7,0,1.4,0,2.1,0
					c-4.2-4.3-8.5-8.6-12.5-13.1c-0.4-0.4-1-1.4-1.2-1.5c0.6,0.2-1.3,2.4-2,1.9c0,0,0.1,0,0.1,0.1c1.6,1.1,3.1-1.5,1.5-2.6
					c-1.8-1.3-2.8,1.1-2,2.5c0.9,1.4,2.3,2.7,3.4,3.9c3.4,3.7,6.9,7.3,10.5,10.9c0.6,0.6,1.5,0.6,2.1,0c0.2-0.2,0.4-0.4,0.6-0.5
					c0.6-0.6,0.6-1.5,0-2.1c-4.7-4.8-9.5-9.7-14.3-14.4C338.4,6.5,336.2,8.6,337.6,9.9z"/>
			</g>
		</g>
		<g>
			<path class="st1" d="M353,23.3c0.2,0.2,0.4,0.4,0.5,0.6c-0.2,0.2-0.4,0.4-0.6,0.5c-0.2-0.2-0.4-0.4-0.5-0.6
				C352.6,23.6,352.8,23.4,353,23.3z"/>
			<g>
				<path class="st2" d="M351.9,24.3c0.2,0.2,0.4,0.4,0.5,0.6c0-0.7,0-1.4,0-2.1c-0.2,0.2-0.4,0.4-0.6,0.5c0.7,0,1.4,0,2.1,0
					c-0.2-0.2-0.4-0.4-0.5-0.6c0,0.7,0,1.4,0,2.1c0.2-0.2,0.4-0.4,0.6-0.5c0.6-0.6,0.6-1.6,0-2.1c-0.6-0.6-1.5-0.6-2.1,0
					c-0.2,0.2-0.4,0.4-0.6,0.5c-0.6,0.6-0.6,1.5,0,2.1c0.2,0.2,0.4,0.4,0.5,0.6c0.6,0.6,1.5,0.6,2.1,0c0.2-0.2,0.4-0.4,0.6-0.5
					c0.6-0.6,0.6-1.5,0-2.1c-0.2-0.2-0.4-0.4-0.5-0.6c-0.6-0.6-1.6-0.6-2.1,0C351.4,22.8,351.4,23.7,351.9,24.3z"/>
			</g>
		</g>
	</g>
</g>
<g>
	<g>
		<g>
			<path class="st1" d="M104.6,19.1c0,0,0.8-1.6,2.6-1.5c0,0,68.5,0.1,70.5,0c1.7-0.1,2.6,1.5,2.6,1.5s0.1,38.7-0.8,40.3
				c0,0-0.8,1.6-2.6,1.5c0,0-10.4,0.1-23.1,0.2c0-0.1,0-0.2-0.1-0.3c-0.4-0.3-11-11-11-11c-0.3-0.3-0.8,0-0.8,0
				c-1.3,1.2-10.8,11.1-10.8,11.1s-0.1,0.2-0.1,0.4c-11.4,0-20.9-0.1-23-0.3c-1.7-0.2-2.6-1.5-2.6-1.5S104.2,23.6,104.6,19.1z"/>
			<g>
				<path class="st2" d="M105.9,19.8c1-1.5,5.2-0.8,6.5-0.8c4.4,0,8.8,0,13.2,0c11.4,0,22.7,0,34.1,0c4.2,0,8.5,0,12.7,0
					c1.2,0,5.7-0.6,6.3,0.2c0.4,0.5,0,2.7,0,3.3c0,2.3,0,4.6,0,6.8c0,5.7-0.1,11.4-0.2,17c0,2.6-0.1,5.3-0.2,7.9
					c0,0.9,0.3,3.6-0.3,4.4c-1.2,1.4-6.5,0.6-7.9,0.6c-5.4,0-10.9,0.1-16.3,0.1c0.5,0.4,1,0.7,1.4,1.1c-1.1-2.6-4.6-5-6.5-6.9
					c-1.5-1.5-3.9-5.3-6.2-5.5c-2.5-0.3-5,3.8-6.6,5.3c-1.8,1.8-5.8,4.6-6.5,7.2c0.5-0.4,1-0.7,1.4-1.1c-5,0-10,0-15-0.1
					c-2.5,0-7.3,0.7-9.3-1.1c0.2,0.2,0.5,1.4,0.3,0.1c-0.1-0.6,0-1.3-0.1-2c-0.1-2.3-0.1-4.5-0.2-6.8c-0.3-10.1-1.3-20.7-0.5-30.8
					c0.2-1.9-2.8-1.9-3,0c-0.9,11.5,0.2,23.4,0.6,34.9c0.1,2.9-0.7,6.3,2.4,7.8c2.3,1.1,5.5,0.7,7.9,0.7c5.6,0.1,11.3,0.1,16.9,0.1
					c0.6,0,1.3-0.5,1.4-1.1c-0.1,0.5,0.9-1,1.4-1.4c1.2-1.3,2.4-2.5,3.6-3.8c1.1-1.2,2.3-2.4,3.4-3.5c0.5-0.5,1.1-1,1.5-1.5
					c0.6-0.7-0.4-0.3-0.6-0.4c2,1,4,4.1,5.6,5.6c1.2,1.2,4.8,4.3,5,4.9c0.3,0.6,0.7,1.1,1.4,1.1c5.4,0,10.9-0.1,16.3-0.1
					c2.3,0,4.9,0.3,7.2-0.1c4.1-0.8,3.9-3.8,4.1-7.2c0.5-11.4,0.8-23.1,0.4-34.5c-0.3-6.5-10-4.5-14.6-4.5c-12.9,0-25.9,0-38.8,0
					c-5.8,0-11.5,0-17.3,0c-2.8,0-6-0.5-7.8,2.2C102.3,20,104.9,21.5,105.9,19.8z"/>
			</g>
		</g>
		<g>
			<path class="st1" d="M141.9,49.7c0,0,0.6-0.3,0.8,0c0,0,10.7,10.8,11,11c0.1,0.1,0.1,0.2,0.1,0.3c-7.4,0-15.5,0.1-22.9,0.1
				c0-0.2,0.1-0.4,0.1-0.4S140.6,50.8,141.9,49.7z"/>
			<g>
				<path class="st2" d="M142.3,51.1c-0.7,0.3-0.6-0.7-0.2,0c0.2,0.4,0.8,0.8,1.1,1.1c1.3,1.3,2.6,2.6,3.8,3.8
					c1.2,1.2,2.4,2.4,3.6,3.6c0.4,0.4,1.9,2,1.8,1.6c0.5-0.6,1-1.3,1.4-1.9c-7.6,0-15.3,0.1-22.9,0.1c0.5,0.6,1,1.3,1.4,1.9
					c-0.1,0.5,0.9-1,1.3-1.4c1.1-1.1,2.2-2.3,3.3-3.4c1.9-2,3.8-4.1,5.9-6c1.4-1.3-0.7-3.4-2.1-2.1c-2.4,2.2-4.6,4.6-6.9,7
					c-1.3,1.4-3.9,3.1-4.4,5.1c-0.2,0.9,0.5,1.9,1.4,1.9c7.6,0,15.3,0,22.9-0.1c0.9,0,1.8-1,1.4-1.9c-1.2-2.9-5-5.4-7.1-7.6
					c-1.4-1.4-4.2-5.7-6.7-4.8C139.7,48.9,140.4,51.8,142.3,51.1z"/>
			</g>
		</g>
	</g>
	<g>
		<g>
			<path class="st1" d="M149.7,39.3c0-0.2,0-0.3,0-0.5c0-0.7,0-1.3,0.2-2c0.2-0.7,0.4-1.5,0.7-2.3c0,0,0.1-0.1,0.2-0.2
				c0.4-1.2,1-2.2,1.9-3c0.8-0.9,1.8-1.6,3-2c0.6-0.4,1.2-0.7,1.9-1c0,0,0.5,0,1.2,0c0.8-0.3,1.5-0.4,2.3-0.3c0.2,0,0.3,0,0.5,0
				c0.7,0,1.3,0,2,0.2c0.7,0.2,1.5,0.4,2.3,0.7c0,0,0.1,0.1,0.2,0.2c1.2,0.4,2.2,1,3,1.9c0.9,0.8,1.6,1.8,2,3c0.4,0.6,0.7,1.2,1,1.9
				c0,0,0,0.5,0,1.2c0.3,0.8,0.4,1.5,0.3,2.3c0,0.2,0,0.3,0,0.5c0,0.7,0,1.3-0.2,2c-0.2,0.7-0.4,1.5-0.7,2.3c0,0-0.1,0.1-0.2,0.2
				c-0.4,1.2-1,2.2-1.9,3c-0.8,0.9-1.8,1.6-3,2c-0.6,0.4-1.2,0.7-1.9,1c0,0-0.5,0-1.2,0c-0.8,0.3-1.5,0.4-2.3,0.3
				c-0.2,0-0.3,0-0.5,0c-0.7,0-1.3,0-2-0.2c-0.7-0.2-1.5-0.4-2.3-0.7c0,0-0.1-0.1-0.2-0.2c-1.2-0.4-2.2-1-3-1.9
				c-0.9-0.8-1.6-1.8-2-3c-0.4-0.6-0.7-1.2-1-1.9c0,0,0-0.5,0-1.2C149.8,40.8,149.7,40,149.7,39.3z"/>
			<g>
				<path class="st2" d="M151.2,39.3c-0.2-12.8,19.1-12.6,19.6,0.1c0.2,5.6-4.6,9.5-9.9,9.7C155.2,49.4,151.4,44.6,151.2,39.3
					c-0.1-1.9-3.1-1.9-3,0c0.3,7.1,5.3,13,12.7,12.9c7.2-0.1,12.9-5.4,12.9-12.7c-0.2-16.7-25.9-16.7-25.6-0.1
					C148.2,41.2,151.2,41.2,151.2,39.3z"/>
			</g>
		</g>
		<g>
			<path class="st1" d="M111.8,39.3c0-0.2,0-0.3,0-0.5c0-0.7,0-1.3,0.2-2c0.2-0.7,0.4-1.5,0.7-2.3c0,0,0.1-0.1,0.2-0.2
				c0.4-1.2,1-2.2,1.9-3c0.8-0.9,1.8-1.6,3-2c0.6-0.4,1.2-0.7,1.9-1c0,0,0.5,0,1.2,0c0.8-0.3,1.5-0.4,2.3-0.3c0.2,0,0.3,0,0.5,0
				c0.7,0,1.3,0,2,0.2c0.7,0.2,1.5,0.4,2.3,0.7c0,0,0.1,0.1,0.2,0.2c1.2,0.4,2.2,1,3,1.9c0.9,0.8,1.6,1.8,2,3c0.4,0.6,0.7,1.2,1,1.9
				c0,0,0,0.5,0,1.2c0.3,0.8,0.4,1.5,0.3,2.3c0,0.2,0,0.3,0,0.5c0,0.7,0,1.3-0.2,2c-0.2,0.7-0.4,1.5-0.7,2.3c0,0-0.1,0.1-0.2,0.2
				c-0.4,1.2-1,2.2-1.9,3c-0.8,0.9-1.8,1.6-3,2c-0.6,0.4-1.2,0.7-1.9,1c0,0-0.5,0-1.2,0c-0.8,0.3-1.5,0.4-2.3,0.3
				c-0.2,0-0.3,0-0.5,0c-0.7,0-1.3,0-2-0.2c-0.7-0.2-1.5-0.4-2.3-0.7c0,0-0.1-0.1-0.2-0.2c-1.2-0.4-2.2-1-3-1.9
				c-0.9-0.8-1.6-1.8-2-3c-0.4-0.6-0.7-1.2-1-1.9c0,0,0-0.5,0-1.2C111.9,40.8,111.8,40,111.8,39.3z"/>
			<g>
				<path class="st2" d="M113.3,39.3c-0.2-12.8,19.1-12.6,19.6,0.1c0.2,5.6-4.6,9.5-9.9,9.7C117.4,49.4,113.6,44.6,113.3,39.3
					c-0.1-1.9-3.1-1.9-3,0c0.3,7.1,5.3,13,12.7,12.9c7.2-0.1,12.9-5.4,12.9-12.7c-0.2-16.7-25.9-16.7-25.6-0.1
					C110.4,41.2,113.4,41.2,113.3,39.3z"/>
			</g>
		</g>
	</g>
</g>
<g>
	<g>
		<path class="st1" d="M16.8,71.3c1.8-10.1,4.6-14.4,8.1-16.4c0,0,20.8-7.7,26.5,11.9c0.5,1.6,0.8,3.1,0.9,4.5H16.8z"/>
		<g>
			<path class="st2" d="M18.2,71.7c0.9-4.8,2.1-12.3,6.8-15.1c1.5-0.9,3.7-1.2,5.4-1.4c11.5-1.5,18.7,5.4,20.4,16.6
				c0.5-0.6,1-1.3,1.4-1.9c-11.9,0-23.7,0-35.6,0c-1.9,0-1.9,3,0,3c11.9,0,23.7,0,35.6,0c1.1,0,1.6-1,1.4-1.9
				c-1.9-12.4-10.5-20.3-23.2-18.8c-2.5,0.3-5.2,0.7-7.4,2.1c-5.3,3.5-6.8,11.1-7.9,16.7C15,72.8,17.9,73.6,18.2,71.7z"/>
		</g>
	</g>
	<g>
		<path class="st1" d="M1.8,8.8c0,0-0.2-0.7,0.5-0.7c38.7-1.6,65,0,65,0C68.2,8.1,68,8.8,68,8.8s0,22-0.2,45H1.5L1.8,8.8z"/>
		<g>
			<path class="st2" d="M3.3,8.8c0.1,1.1,34.6,0.1,38.5,0.1c7.5,0,14.9,0.2,22.4,0.5c0.9,0,3.5,0.6,2.7-0.2
				c-0.8-0.8-0.5,4.6-0.5,5.5c0,13-0.1,26.1-0.2,39.1c0.5-0.5,1-1,1.5-1.5c-22.1,0-44.2,0-66.2,0c0.5,0.5,1,1,1.5,1.5
				C3.1,38.8,3.2,23.8,3.3,8.8c0-1.9-3-1.9-3,0c-0.1,15-0.2,30-0.3,44.9c0,0.8,0.7,1.5,1.5,1.5c22.1,0,44.2,0,66.2,0
				c0.8,0,1.5-0.7,1.5-1.5c0.1-13.7,0.2-27.3,0.2-41c0-3.9,0.3-6.1-4-6.3C57.6,6,49.7,5.9,41.9,5.9c-6.7,0-13.4,0-20.1,0.1
				C17.9,6.1,14,6.2,10.1,6.3C7.5,6.4,3.3,5.7,1,7.2C0.6,7.4,0.3,7.9,0.3,8.5c0,0.1,0,0.2,0,0.3C0.4,10.7,3.4,10.7,3.3,8.8z"/>
		</g>
	</g>
	<g>
		<path class="st1" d="M67,64.6c-24.9,0.5-64.6,0-64.6,0c-0.8-0.1-0.5-0.5-0.5-0.5c-0.1-2-0.2-4.4-0.3-6.8v-3.9h66.2
			c-0.1,3.6-0.1,7.2-0.2,10.7C67.5,64.1,67.7,64.5,67,64.6z"/>
		<g>
			<path class="st2" d="M67,63.1c-16,0.3-31.9,0.3-47.9,0.1c-4.8,0-9.9-0.5-14.7-0.1c-0.5,0-1.1-0.1-1.6,0c-0.1,0-0.2,0-0.3,0
				c1.6-0.2,0.4,2,0.8-0.6C3.6,59.7,3,56.2,3,53.4c-0.5,0.5-1,1-1.5,1.5c22.1,0,44.2,0,66.2,0c-0.5-0.5-1-1-1.5-1.5
				c0,2.1-0.1,4.2-0.1,6.3c0,0.9,0,1.8-0.1,2.7c-0.2,2-0.1,2.3,0.1,0.9c-1.8,0.8-0.2,3.3,1.5,2.6c0.2-0.1,0.4-0.2,0.6-0.2
				c0.4-0.2,0.8-0.8,0.7-1.3c-0.3-3.6,0.2-7.4,0.2-11c0-0.8-0.7-1.5-1.5-1.5c-22.1,0-44.2,0-66.2,0c-0.8,0-1.5,0.7-1.5,1.5
				c0,3.6,0.6,7.4,0.3,10.9c0,0.5,0.3,1.1,0.7,1.3c1.9,0.9,4.3,0.5,6.4,0.5c5.3,0.1,10.7,0.1,16,0.1c14.5,0.1,29.1,0.1,43.6-0.2
				C68.9,66,68.9,63,67,63.1z"/>
		</g>
	</g>
	<g>
		<path class="st1" d="M10.3,16c0,0-0.2-0.4,0.4-0.5c28.4-1,47.7,0,47.7,0c0.6,0.1,0.4,0.5,0.4,0.5s0,14.4-0.2,29.6H10L10.3,16z"/>
		<g>
			<path class="st2" d="M11.8,16c0.1,1.7,24,0.6,27,0.6c5.5,0,11.1,0.1,16.6,0.3c0.7,0,2.2,0.4,2.9,0.1c-0.4,0.1-0.5-1.4-1-0.7
				c-0.3,0.4,0,2,0,2.4c0,9-0.1,17.9-0.2,26.9c0.5-0.5,1-1,1.5-1.5c-16.2,0-32.4,0-48.6,0c0.5,0.5,1,1,1.5,1.5
				C11.6,35.7,11.7,25.8,11.8,16c0-1.9-3-1.9-3,0c-0.1,9.8-0.2,19.7-0.2,29.5c0,0.8,0.7,1.5,1.5,1.5c16.2,0,32.4,0,48.6,0
				c0.8,0,1.5-0.7,1.5-1.5c0.1-9.9-0.4-19.9,0.2-29.8c0-0.5-0.3-1-0.7-1.3c-1.1-0.7-2.4-0.5-3.6-0.6c-3.6-0.1-7.2-0.2-10.8-0.3
				c-5.7-0.1-11.4-0.1-17.1,0c-3.5,0-7.1,0.1-10.6,0.2c-2.3,0.1-5.8-0.6-7.9,0.7c-0.4,0.3-0.8,0.8-0.7,1.3c0,0.1,0,0.1,0,0.2
				C8.9,17.9,11.9,17.9,11.8,16z"/>
		</g>
	</g>
</g>
<g>
	<g id="XMLID_864_">
		<path class="st1" d="M544.5,1.6c0,0-0.9-0.4-1,1.5c0,0-1.1,32.5,0,72.4c0.1,1.9,1,1.5,1,1.5s12.1,0.3,20.6-0.7c0,0,0.9,0.4,1-1.5
			c0,0,0.8-30.9,0-71.1c0-1.9-1-1.5-1-1.5L544.5,1.6z"/>
		<g>
			<path class="st2" d="M544.9,0.1c-3.2-0.6-2.9,3.5-2.9,5.5c-0.2,6.7-0.3,13.3-0.3,20c-0.1,11.1-0.1,22.3,0.1,33.4
				c0,3.2,0.1,6.4,0.2,9.5c0.1,2.4-0.5,5.5,0.3,7.8c0.6,1.8,1.5,2,2.7,2.1c3.3,0.4,6.8,0.1,10.2,0c2.7-0.1,9,0.7,11.3-0.9
				c2-1.4,1.3-6,1.3-8c0.3-18.7,0.3-37.4,0.1-56.1c0-3.1,1.6-10.8-1.8-12.6c-0.8-0.4-2.8-0.2-4.1-0.2c-5.8-0.2-11.6-0.4-17.4-0.6
				c-1.9-0.1-1.9,2.9,0,3c3.8,0.1,7.5,0.2,11.3,0.4c2.4,0.1,4.8,0.2,7.1,0.2c0.4,0,1.5-0.1,1.8,0.1c1.1,0.6,0.2,0.3-0.1,2
				c-0.5,2.3,0.1,5.4,0.1,7.7c0,2.8,0.1,5.6,0.1,8.3c0,4.9,0.1,9.7,0.1,14.6c0,7.8,0,15.6-0.1,23.3c0,4.4-0.5,8.9-0.2,13.2
				c0-0.1,0.1,2.7,0.4,2c0,0,0.8-0.1-0.6,0.1c-0.9,0.1-1.9,0.2-2.8,0.3c-2.2,0.2-4.4,0.3-6.6,0.3c-2.5,0.1-6.9,0.9-9.4,0
				c-0.1-0.1-1.2,0.1-1.4,0c0.2,0.2,0.6-2.3,0.7-3c0.2-1.9-0.1-4-0.1-5.9c-0.2-10-0.3-20-0.3-30.1c0-8,0.1-16,0.2-24.1
				c0-2.3,0.1-4.6,0.2-6.8c0-1.5,0.6-2.4-0.9-2.7C546,3.4,546.8,0.5,544.9,0.1z"/>
		</g>
	</g>
	<g id="XMLID_863_">
		<path class="st1" d="M542.2,17.2c0,0,27.4-10.2,34.9,15.7s-15.5,31-18.7,30.9c-3.1-0.2-29.9-2.4-27.7-19.6
			C532.9,27.1,537,20.2,542.2,17.2z"/>
		<g>
			<path class="st2" d="M542.6,18.7c5.6-2,12.2-2.6,18-1.1c12.7,3.2,19.5,19.4,15.6,31.5c-5.3,16.5-26.8,15.5-38.5,7.1
				c-7.5-5.3-5.6-13.6-3.8-21.5c1.4-6,3.5-12.8,9-16.1c1.7-1,0.1-3.6-1.5-2.6c-4.9,2.9-7.4,8-9.2,13.3c-2.2,6.7-5.1,16.3-1.8,23.1
				c4.5,9.2,17.4,12.2,26.7,12.8c7.4,0.5,15.4-4.2,19.4-10.2c7.3-10.9,3-28.9-7.2-36.6c-7.7-5.7-18.9-5.8-27.6-2.6
				C540,16.5,540.8,19.4,542.6,18.7z"/>
		</g>
	</g>
	<g id="XMLID_862_">
		<path class="st1" d="M566.7,25.4c0,0,14.3,16-1.4,28.1c-15.7,12.1-25.4-2.3-26.1-4.5c-0.7-2.2-6.4-21.1,6-24.2
			S563.3,22.6,566.7,25.4z"/>
		<g>
			<path class="st2" d="M565.6,26.5c4.8,5.5,7.5,14.1,3.5,20.8c-5.9,9.8-21.2,13.6-27.8,2.6c-2.7-4.6-3.4-12.3-1.9-17.3
				c1.9-6.3,8.3-7.1,14-7.8c4.3-0.5,8.9-0.7,12.5,2c1.5,1.2,3-1.4,1.5-2.6c-3-2.2-6.7-2.8-10.4-2.7c-5.1,0.1-12.1,0.7-16.3,3.8
				c-6.3,4.6-5.4,14-4,20.7c1.3,5.7,4.7,10.1,10.1,12.6c9.7,4.3,22.2-2.8,26-12.1c3-7.4-0.1-16.2-5.2-21.9
				C566.4,22.9,564.3,25,565.6,26.5z"/>
		</g>
	</g>
</g>
<g>
	<g id="XMLID_861_">
		<path class="st1" d="M477.3,2c0,0,0.5-0.3,0.5,0.6c0.6,28.3,0,73.4,0,73.4c-0.1,0.9-0.5,0.6-0.5,0.6c-16,1.2-45.9,0-45.9,0
			s-0.5,0.3-0.5-0.6c-1.2-44,0-73.9,0-73.9c0.1-0.9,0.5-0.6,0.5-0.6S456.5,1.4,477.3,2z"/>
		<g>
			<path class="st2" d="M477.3,3.5c-1.7,0.1-0.8,11.4-0.8,13.2c0,5.3,0.1,10.6,0.1,15.8c0,9.4,0,18.8-0.1,28.2c0,4.9,0,9.8-0.2,14.7
				c0,0.7,1.9,0.1-0.1-0.4c-1.7-0.4-4.2,0.2-6,0.3c-4.9,0.2-9.8,0.2-14.7,0.2c-7.4,0-14.8-0.2-22.1-0.4c-0.3,0-1.6,0.2-1.9-0.1
				c0.8,0.6,0.7-5.3,0.7-5.9c-0.2-6.8-0.3-13.6-0.3-20.5c-0.1-9.7-0.1-19.3,0.1-29c0.1-5.1,0.9-10.6,0.3-15.7
				c-0.1-0.5,0.2-1.2,0.1-1.6C432.1,1.7,431,3,431.6,3c2.8,0.3,5.8,0,8.6,0C452.5,3.1,464.9,3.2,477.3,3.5c1.9,0.1,1.9-2.9,0-3
				c-10.5-0.3-21-0.4-31.4-0.5C441,0,436,0.4,431.1,0c-0.5,0-1.1,0.3-1.3,0.7c-0.8,1.8-0.6,3.8-0.6,5.7c-0.1,5.4-0.2,10.8-0.3,16.1
				c-0.1,8.5-0.1,16.9,0,25.4c0,5.2,0.1,10.5,0.2,15.7c0.1,4.2-0.9,9.9,0.8,13.8c0.2,0.4,0.8,0.8,1.3,0.7c5.6-0.4,11.5,0.3,17.2,0.4
				c5.1,0.1,10.2,0.1,15.3,0.1c4.5-0.1,9.3-0.8,13.8-0.5c0.5,0,1.1-0.3,1.3-0.7c1-2.3,0.5-5.3,0.6-7.7c0.1-6.6,0.1-13.2,0.2-19.8
				c0-8.4,0.1-16.9,0-25.3c0-4.5,0-9-0.1-13.4c0-3.1,0.6-7.1-0.6-9.9c-0.2-0.4-0.8-0.8-1.3-0.7c-0.1,0-0.2,0-0.3,0
				C475.4,0.7,475.4,3.7,477.3,3.5z"/>
		</g>
	</g>
	<g id="XMLID_860_">
		<path class="st1" d="M472.9,10.5c0,0,0.2-2.6-0.7-2.7c0,0-15.8-3.1-35.4,0c-0.9,0.1-0.7,2.7-0.7,2.7s-0.2,34,0.3,57.8
			c0,0-0.2,2.6,0.7,2.7c0,0,15.1,2.1,34.7,0c0.9-0.1,0.7-2.7,0.7-2.7L472.9,10.5z"/>
		<g>
			<path class="st2" d="M474.4,10.5c0.2-5.6-6-4.9-10.2-5.2c-5.4-0.4-10.8-0.5-16.3-0.2c-3.3,0.2-12-0.7-13.3,3.3
				c-1.3,3.9-0.2,9.6-0.2,13.6c0,11.1,0,22.2,0.2,33.3c0.1,4.6-0.3,9.4,0.2,14c0.3,2.3,0.9,2.9,3,3.4c8.9,1.9,19.2,1.1,28.2,0.4
				c3.7-0.3,7.5,0.5,8-3.8c0.1-1,0-2.1,0-3c0-5.8,0.1-11.7,0.1-17.5C474.3,36,474.3,23.3,474.4,10.5c0-1.9-3-1.9-3,0
				c0,8.5-0.1,17-0.1,25.4c0,6.4-0.1,12.8-0.1,19.2c0,3.9,0.5,8.3-0.1,12.2c-0.1,0.4,0.2,1.7,0,2c-0.9,1.3-7.3,0.9-8.6,1
				c-3,0.1-6.1,0.2-9.1,0.2c-3.9,0-7.7-0.2-11.6-0.5c-0.8-0.1-2.7,0.1-3.4-0.3c-1.4-0.7-0.3,0.4-0.5-1.1c-1.2-9.1-0.3-19.1-0.3-28.3
				c0-8,0-16.1,0-24.1c0-1.6-0.4-4,0-5.5c0-0.1,0-0.2,0-0.3c0.7-1.8,3-1.6,5-1.8c2.9-0.4,5.9-0.5,8.9-0.6c5-0.1,10,0,15,0.5
				c0.9,0.1,3.8,0,4.6,0.6c0.8,0.6,0.5-0.2,0.5,1.4C471.3,12.5,474.3,12.5,474.4,10.5z"/>
		</g>
	</g>
</g>
<g>
	<g id="XMLID_859_">
		<path class="st1" d="M271.1,2c0,0,0.5-0.3,0.5,0.6c0.6,28.3,0,73.4,0,73.4c-0.1,0.9-0.5,0.6-0.5,0.6c-16,1.2-45.9,0-45.9,0
			s-0.5,0.3-0.5-0.6c-1.2-44,0-73.9,0-73.9c0.1-0.9,0.5-0.6,0.5-0.6S250.3,1.4,271.1,2z"/>
		<g>
			<path class="st2" d="M271.1,3.5c-1.7,0.1-0.8,11.4-0.8,13.2c0,5.3,0.1,10.6,0.1,15.8c0,9.4,0,18.8-0.1,28.2c0,4.9,0,9.8-0.2,14.7
				c0,0.7,1.9,0.1-0.1-0.4c-1.7-0.4-4.2,0.2-6,0.3c-4.9,0.2-9.8,0.2-14.7,0.2c-7.4,0-14.8-0.2-22.1-0.4c-0.3,0-1.6,0.2-1.9-0.1
				c0.8,0.6,0.7-5.3,0.7-5.9c-0.2-6.8-0.3-13.6-0.3-20.5c-0.1-9.7-0.1-19.3,0.1-29c0.1-5.1,0.9-10.6,0.3-15.7
				c-0.1-0.5,0.2-1.2,0.1-1.6c-0.2-0.8-1.3,0.5-0.8,0.6c2.8,0.3,5.8,0,8.6,0C246.3,3.1,258.7,3.2,271.1,3.5c1.9,0.1,1.9-2.9,0-3
				c-10.5-0.3-21-0.4-31.4-0.5c-4.9,0-9.9,0.3-14.7-0.1c-0.5,0-1.1,0.3-1.3,0.7c-0.8,1.8-0.6,3.8-0.6,5.7
				c-0.1,5.4-0.2,10.8-0.3,16.1c-0.1,8.5-0.1,16.9,0,25.4c0,5.2,0.1,10.5,0.2,15.7c0.1,4.2-0.9,9.9,0.8,13.8
				c0.2,0.4,0.8,0.8,1.3,0.7c5.6-0.4,11.5,0.3,17.2,0.4c5.1,0.1,10.2,0.1,15.3,0.1c4.5-0.1,9.3-0.8,13.8-0.5c0.5,0,1.1-0.3,1.3-0.7
				c1-2.3,0.5-5.3,0.6-7.7c0.1-6.6,0.1-13.2,0.2-19.8c0-8.4,0.1-16.9,0-25.3c0-4.5,0-9-0.1-13.4c0-3.1,0.6-7.1-0.6-9.9
				c-0.2-0.4-0.8-0.8-1.3-0.7c-0.1,0-0.2,0-0.3,0C269.2,0.7,269.1,3.7,271.1,3.5z"/>
		</g>
	</g>
	<g id="XMLID_858_">
		<path class="st1" d="M232.1,7c0,0-1.5-0.3-1.5,1.1c0,0-1.7,23.8,0,53.1c0.1,1.4,1.5,1.1,1.5,1.1s19,0.3,32.3-0.5
			c0,0,1.5,0.3,1.5-1.1c0,0,1.2-22.7,0-52.1c-0.1-1.4-1.5-1.1-1.5-1.1L232.1,7z"/>
		<g>
			<path class="st2" d="M232.1,5.5c-3.5-0.3-3.1,4-3.2,6.3c-0.4,7.8-0.6,15.6-0.5,23.5c0,5.5,0.1,11,0.3,16.5
				c0.1,2.7-1.1,10.2,2,11.9c1,0.5,2.7,0.3,3.7,0.3c4.1,0,8.3,0,12.4,0c4.7,0,9.4-0.1,14.1-0.3c2-0.1,5.1,0.5,6.3-1.6
				c1.5-2.7,0.6-8.1,0.7-11c0.2-9.7,0.3-19.4,0.1-29.1c-0.1-3.1-0.1-6.2-0.2-9.3c0-1.3,0.4-4.1-0.6-5.4c-0.8-1-1.7-1-2.9-1.1
				c-5.6-0.7-11.7-0.2-17.3-0.3C241.8,5.7,237,5.6,232.1,5.5c-1.9,0-1.9,3,0,3c8.2,0.1,16.5,0.2,24.7,0.4c1.2,0,6.9-0.8,7.9,0.1
				c0.5,0.5,0,6.4,0,7.3c0.1,2.4,0.1,4.9,0.2,7.3c0.1,4.9,0.1,9.8,0.1,14.6c0,6.1-0.1,12.2-0.4,18.3c0,0.9,0.2,2.8-0.1,3.7
				c-0.2,0.5,0,0.4,0.2,0.2c-0.7,0.6-4.9,0.2-6,0.2c-7.4,0.3-14.8,0.3-22.3,0.3c-0.7,0-3.7,0.4-4.3,0c-0.7-0.5-0.4-5.6-0.4-6.3
				c-0.1-2.8-0.2-5.5-0.3-8.3c-0.2-9.3-0.2-18.6,0.1-27.9c0.1-2.5,0.2-5,0.3-7.5c0-0.6-0.1-1.6,0.1-2.2c0.3-0.8-0.5-0.2,0.1-0.2
				C234,8.7,234,5.7,232.1,5.5z"/>
		</g>
	</g>
	<g id="XMLID_837_">
		<path class="st1" d="M246.8,67.7c0,0,3.1-1.2,4,1.8S249,73,248.6,73s-3.4-0.3-3.2-2.2C245.7,68.8,246.2,68,246.8,67.7z"/>
		<g>
			<path class="st2" d="M247.2,69.1c0.6-0.2,1.1-0.4,1.7,0c0.5,0.3,0.7,1,0.6,1.6c0,0.4-0.3,0.6-0.7,0.8c-0.2,0.1,0.2-0.1,0,0
				c-0.1,0-0.2,0.1-0.3,0.1c-0.3,0,0.3,0,0.1,0c0,0-0.1,0-0.2,0c-0.2-0.1,0,0-0.3,0c-0.3-0.1-0.6-0.1-0.8-0.2
				c-0.5-0.2-0.5-0.2-0.4-0.8c0.1-0.4,0.2-0.8,0.3-1.2c0-0.1,0.1-0.2,0.2-0.3c0,0.1-0.2,0.2,0,0c1.6-1,0.1-3.6-1.5-2.6
				c-2.1,1.3-2.9,5.3-0.9,6.9c1.3,1.1,3.5,1.5,5.1,0.8c2.5-1.2,2.9-4.4,1.3-6.5c-1.2-1.6-3.3-2-5.1-1.4
				C244.6,66.9,245.3,69.8,247.2,69.1z"/>
		</g>
	</g>
</g>
</svg>
