<?xml version="1.0" encoding="utf-8"?>
<!-- Generator: Adobe Illustrator 23.0.3, SVG Export Plug-In . SVG Version: 6.00 Build 0)  -->
<svg version="1.1" id="Layer_1" xmlns="http://www.w3.org/2000/svg" xmlns:xlink="http://www.w3.org/1999/xlink" x="0px" y="0px"
	 viewBox="0 0 171.3 76" style="enable-background:new 0 0 171.3 76;" xml:space="preserve">
<style type="text/css">
	.st0{opacity:0.1;}
	.st1{fill:#FFFFFF;}
	.st2{fill:#2C2C2C;}
</style>
<g id="Layer_5" class="st0">
</g>
<g id="Layer_3" class="st0">
</g>
<g>
	<path class="st1" d="M19.4,37.6c0-0.4-0.1-0.8-0.1-1.2c0-1.2,0-2.5-0.1-3.7c-0.1-3.1-0.5-6.1-0.8-9.2c-0.1-0.6-0.1-1.2-0.2-1.9
		c0-1.7-0.1-3.4-0.3-5.2c0-0.2,0-0.3,0-0.5c0.1-1.9,0.4-3.7,0.3-5.6c0-0.9-0.2-1.8-0.5-2.7c-0.3-0.9-0.8-1.7-1.4-2.3
		c-0.3-0.3-0.7-0.6-1.1-0.8c-0.4-0.3-0.9-0.5-1.4-0.7C13,3.5,12,3.3,11,3.2c-0.1,0-0.2,0-0.2,0c-0.3,0-0.6,0-0.9,0.1c0,0,0,0,0,0
		C9.7,3.2,9.5,3.2,9.2,3.2c0,0,0,0,0,0c-0.2,0-0.5,0-0.7,0.1C8.3,3.3,8.2,3.3,8,3.4c-0.2,0-0.3,0.1-0.5,0.2C7.3,3.6,7,3.8,6.7,3.9
		C6.3,4.1,6,4.3,5.7,4.6C5.2,4.9,4.8,5.3,4.4,5.7C4,6,3.7,6.4,3.4,6.9C3.1,7.3,2.9,7.7,2.7,8.2c-0.1,0.3-0.2,0.6-0.3,1
		c-0.1,0.5-0.1,1-0.2,1.5c-0.1,0.9-0.1,1.9,0,2.8c0.1,0.8,0.2,1.6,0.3,2.3c-0.1,1.1-0.2,2.2-0.3,3.4c0,0.6-0.1,1.3-0.1,1.9
		c-0.1,0.9-0.1,1.9-0.1,2.8c0,0.1,0,0.3-0.1,0.4c-0.3,1.9-0.5,3.8-0.5,5.7c-0.1,3.7,0.1,7.4,0.7,11.1c0,0.2,0.1,0.3,0.2,0.4
		c0,0,0,0,0,0.1c-0.2,0.7-0.1,1.5,0,2.2c0.1,0.9,0.5,1.8,0.9,2.6C3.8,47.4,4.4,48.3,5,49c0.3,0.4,0.7,0.7,1,1.1
		c0.4,0.4,0.9,0.7,1.3,1c0.7,0.5,1.6,0.8,2.5,1c0.7,0.2,1.5,0.2,2.2,0.1c0.4,0,0.7-0.1,1.1-0.2c0.4-0.1,0.7-0.2,1.1-0.4
		c0.6-0.3,1.1-0.6,1.6-1.1c0.5-0.4,0.9-1,1.3-1.5c0.3-0.5,0.6-1.1,0.9-1.6c0.3-0.7,0.5-1.3,0.7-2c0.4-1.3,0.6-2.7,0.7-4.1
		C19.5,40.1,19.5,38.9,19.4,37.6z"/>
	<g>
		<path class="st2" d="M20.9,37.6c-0.8-7.5-1.9-15.9-1.3-23.4C20,8.6,19.2,3.3,12.9,2c-2.8-0.6-5.6-0.3-8,1.3
			C-0.5,7,1,12.7,0.8,18.4c-0.3,7.4-1.6,14.9-0.2,22.3c0.4,2.2,0.2,0.2,0.3,1c0.1,1.1-0.1,2.2,0.2,3.3c0.7,2.6,2.4,5.1,4.5,6.7
			c3.2,2.5,7.6,2.9,10.8,0.3C20.5,48.7,21.1,42.4,20.9,37.6c-0.1-1.9-3.1-1.9-3,0c0.1,3.7,0,9.3-3.2,12c-3.2,2.7-7.3,0.5-9.3-2.5
			c-1.2-1.8-1.1-3.6-1.4-5.5c-1.4-8.5-0.2-16.4,0-24.9C4,12.4,2.8,6.3,8.4,4.8c3.8-1,7.9,1.6,8.3,5.6c0.2,2-0.4,4.1-0.4,6.1
			c0,2.3,0.3,4.7,0.5,7c0.4,4.7,0.5,9.4,1,14C18.1,39.5,21.1,39.5,20.9,37.6z"/>
	</g>
</g>
<g>
	<path class="st1" d="M94.6,35.8c0-0.4-0.1-0.8-0.2-1.3c0-0.4,0-0.8-0.1-1.1c-0.1-1.2-0.4-2.4-0.8-3.5c-0.3-0.6-0.5-1.2-0.9-1.8
		c-0.4-0.6-0.8-1.2-1.3-1.7c-0.8-1-1.9-1.9-3-2.7c-1.1-0.8-2.3-1.3-3.5-1.7c-0.5-0.2-1.1-0.3-1.7-0.3c-0.8-0.1-1.5-0.2-2.3-0.2
		c0,0-0.1,0-0.1,0c-1.3,0-2.7,0.2-4,0.4c-2.3,0.3-4.5,1.1-6.4,2.5c-0.3,0.2-0.7,0.5-1,0.8c-0.1,0.1-0.2,0.2-0.4,0.3
		c-0.4,0.4-0.8,0.8-1.2,1.2c-0.4,0.5-0.9,1.1-1.2,1.7c-0.6,1-1.1,2.1-1.6,3.2c-0.6,1.4-0.8,3-1,4.5c-0.1,1.4,0,2.9,0.3,4.3
		c0.3,1.4,0.8,2.7,1.5,3.9c0.3,0.5,0.6,1.1,1,1.6c0.5,0.6,0.9,1.2,1.5,1.8c0.5,0.5,1.1,1,1.7,1.4c0.5,0.4,1.1,0.8,1.7,1.1
		c0.6,0.4,1.3,0.7,2,0.9c0.6,0.3,1.3,0.4,2,0.6c1.3,0.3,2.6,0.3,3.8,0.3c-0.2,1.1-0.3,2.2-0.4,3.3c-0.1,0.8-0.1,1.7-0.1,2.5
		c0,0.1,0,0.1,0,0.2c-0.1,0.1-0.1,0.2-0.2,0.3c-0.2,0.2-0.3,0.4-0.5,0.5c-0.2,0.1-0.4,0.3-0.7,0.4c-0.2,0.1-0.3,0.1-0.5,0.1
		c-0.2,0-0.4,0-0.5,0c-0.1,0-0.2,0-0.3-0.1c-0.1-0.1-0.2-0.3-0.3-0.4c-0.3-0.3-0.7-0.5-1.2-0.7c-0.1,0-0.1,0-0.2-0.1
		c-0.3-0.1-0.7-0.1-1.1-0.1c0,0,0,0,0,0c-0.1-0.1-0.2-0.1-0.2-0.2c-0.4-0.3-0.9-0.5-1.4-0.7c-0.5-0.2-1.1-0.3-1.7-0.3
		c-0.4,0-0.8,0-1.2,0c-0.6,0.1-1.2,0.2-1.7,0.4c-1.1,0.4-2.1,1.1-2.9,1.9c-0.9,1-1.5,2.2-1.8,3.4c-0.1,0.4-0.1,0.8-0.2,1.2
		c0,0.2,0,0.5,0,0.7c0,0.4,0.1,0.7,0.1,1.1c0,0.3,0.1,0.5,0.2,0.8c0.4,1.1,1,2.2,1.9,3c0.3,0.3,0.7,0.6,1.1,0.9
		c0.1,0.3,0.3,0.6,0.5,0.9c0.2,0.2,0.4,0.5,0.6,0.7c0.2,0.2,0.4,0.4,0.7,0.6c0.6,0.5,1.3,0.9,2.1,1.2c0.4,0.2,0.8,0.3,1.3,0.4
		c0.5,0.1,1,0.2,1.5,0.2c0.7,0.1,1.4,0.1,2,0c0.7-0.1,1.3-0.2,1.9-0.4c0.2,0,0.4,0.1,0.6,0.1c0.5,0.1,0.9,0.1,1.4,0.1
		c0.5,0,1-0.1,1.5-0.2c0.9-0.2,1.8-0.6,2.7-1.1c0.9-0.5,1.7-1.1,2.4-1.7c0.2,0,0.3-0.1,0.5-0.2c0.4-0.1,0.8-0.2,1.2-0.4
		c0.9-0.4,1.7-1.1,2.5-1.9c0.7-0.8,1.3-1.8,1.8-2.9c0.1-0.2,0.1-0.3,0.2-0.5c0.8-1.5,1.3-3.4,1.4-5.2c0,0,0-0.1,0-0.1
		c0.1-0.2,0.1-0.4,0.2-0.6c0.5-1.5,0.8-3,0.9-4.5c0-0.3,0-0.6,0-0.9c0.2-0.7,0.3-1.5,0.4-2.2c0.4-3,0.6-6,0.4-9
		c0-0.3-0.1-0.6-0.1-0.8c0.1-0.4,0.2-0.8,0.3-1.2C94.8,39,94.8,37.4,94.6,35.8z M83.3,37.8c0,0.2-0.1,0.4-0.2,0.5
		c-0.1,0.2-0.2,0.4-0.2,0.6c-0.1,0.2-0.2,0.3-0.3,0.5c-0.1,0.1-0.1,0.2-0.2,0.2c-0.1,0.1-0.2,0.2-0.4,0.3C81.9,40,81.8,40,81.7,40
		c-0.1,0-0.1,0-0.2,0c0,0,0,0-0.1,0.1c-0.1,0.1-0.1,0.1-0.2,0.1c-0.1,0.1-0.2,0.1-0.3,0.1c-0.1,0-0.3,0-0.4,0c0,0,0,0,0,0
		c-0.1,0-0.1,0-0.2,0c-0.2,0-0.4,0-0.6,0c-0.1,0-0.2,0-0.2,0c0,0-0.1,0-0.1,0c-0.2,0.1-0.4,0.1-0.6,0.1c-0.2,0.1-0.3,0.1-0.5,0.2
		c-0.2,0-0.4,0-0.5,0c-0.1,0-0.2,0-0.3,0c-0.3-0.1-0.5-0.1-0.8-0.3c-0.2-0.1-0.3-0.2-0.5-0.4c-0.1-0.1-0.2-0.3-0.4-0.4
		c-0.1-0.1-0.1-0.2-0.2-0.4c-0.1-0.2-0.2-0.4-0.3-0.6c-0.1-0.3-0.2-0.7-0.2-1c0-0.3,0-0.7,0-1.1c0,0,0,0,0,0c0,0,0,0,0,0
		c0-0.2,0-0.4,0.1-0.7c0-0.1,0.1-0.3,0.1-0.4c0,0,0,0,0,0c0,0,0-0.1,0-0.1c0,0,0,0,0,0c0-0.1,0-0.2,0.1-0.2c0.1-0.2,0.2-0.5,0.3-0.6
		c0.1-0.1,0.2-0.3,0.3-0.4c0.1-0.1,0.2-0.2,0.3-0.3c0.1-0.1,0.3-0.2,0.4-0.2c0,0,0,0,0,0c0,0,0,0,0,0c0.1-0.1,0.2-0.3,0.4-0.3
		c0.1,0,0.2-0.1,0.3-0.1c0.1,0,0.2,0,0.3,0c0,0,0.1,0,0.1,0c0.1,0,0.2-0.1,0.2-0.1c0,0,0,0,0,0c0.1-0.1,0.1-0.3,0.2-0.4
		c0.1-0.1,0.1-0.2,0.2-0.2c0.4-0.3,0.9-0.3,1.3,0c0.2,0.1,0.3,0.3,0.4,0.6c0.1,0,0.2-0.1,0.3-0.1c0.1,0,0.2,0,0.3,0
		c0.1,0,0.2,0,0.3,0.1c0.1,0,0.2,0.1,0.3,0.1c0.3,0.2,0.5,0.4,0.7,0.8c0.1,0.2,0.3,0.4,0.3,0.7c0.1,0.1,0.1,0.1,0.2,0.2
		c0.1,0.1,0.1,0.2,0.2,0.3c0.1,0.1,0.1,0.2,0.2,0.3c0.1,0.2,0.2,0.4,0.2,0.6c0,0.2,0.1,0.4,0.1,0.6c0,0.2,0,0.4,0,0.6
		C83.4,37.4,83.3,37.6,83.3,37.8z"/>
	<g>
		<path class="st2" d="M96.1,35.4c-1-6.6-3.2-12.2-10.1-14.6c-6.1-2.1-14-0.3-18.5,4.3C56.8,36,65.2,53.5,79.6,53.6
			c-0.5-0.5-1-1-1.5-1.5c-0.2,1.3,0,3.2-0.5,4.5c-0.8,2.3,0.4,0.9-0.8,1c0.1,0-1.4-0.7-1.7-0.9c-0.5-0.1-1-0.1-1.5-0.2
			c0.8,0.1,0.7,0-0.2-0.3c-3.8-1.1-7.4-1.1-10.3,2.1c-5.5,6.1,0.3,15.4,7.2,17.2c3.1,0.8,8.2,0.4,11.1-0.7c4.2-1.5,8.6-4.3,10.6-8.4
			c1.8-3.5,2.3-7.9,2.8-11.7c0.4-3.1,0.8-6.3,0.8-9.5c0-3.2,0.6-6.3,0.4-9.5c-0.1-1.9-3.1-1.9-3,0c0.1,2.2-0.4,4.3-0.5,6.4
			c-0.1,2.2,0.2,4.5,0,6.7c-0.3,3.7-0.9,7.4-1.7,11.1c-0.4,2.1-0.8,4.8-2.2,6.5c-1.3,1.6-3.9,3.1-5.8,4.2c-3,1.8-10.3,3.2-13.6,1.1
			c-3.8-2.3-7.5-8.2-3.3-11.8c1.9-1.6,5.3-1.3,7.7-0.5c0.8,0.3,1.6,1,2.4,1.2c5.4,1,4.7-5.4,5.1-8.7c0.1-0.8-0.8-1.5-1.5-1.5
			C67.3,50.5,60.5,35,70.4,26.5c3.8-3.3,10.4-4.5,15.2-2.5c5.6,2.3,6.8,6.8,7.6,12.3C93.5,38.1,96.4,37.3,96.1,35.4z"/>
		<path class="st2" d="M81.9,37.4c-0.1,0.4-0.2,0.9-0.5,1.2c0.2-0.2-0.2,0-0.4,0.1c-0.5,0.2-0.6,0.4,0,0.3c-0.3,0.1-0.9,0-1.2,0
			c-0.3,0-1.8,0.4-2.2,0.2c-0.8-0.4-0.9-1.7-0.8-2.5c0-0.3,0-0.5,0.1-0.7c0.2-0.5,0.4-0.5,0.6-1c0,0.1,0.6-0.5,0.1-0.3
			c-0.4,0.2,0.4,0,0.6,0c0.3-0.1,0.7-0.3,0.9-0.5c0.5-0.6,0.1,0-0.2-0.3c0.3,0.6,1.1,0.8,1.7,0.7c0,0,0.7,1.2,0.7,1.3
			c0.4,0.7,0.5,1.3,0.4,2.1c-0.2,1.9,2.8,1.9,3,0c0.3-2.6-1.7-7-4.9-6.2c0.6,0.2,1.1,0.5,1.7,0.7c-1.1-2-3.7-2-4.8,0
			c0.3-0.2,0.6-0.5,0.9-0.7c0.6,0.1,0.6,0.1,0,0c-0.2,0-0.5,0.1-0.7,0.1c-0.6,0.1-0.9,0.5-1.3,0.8c0.8-0.5-0.6,0.4-0.7,0.5
			c-0.4,0.4-0.6,0.9-0.8,1.3c-0.5,1.3-0.6,2.8-0.3,4.2c0.5,2.1,2.2,3.9,4.4,3.6c0.6-0.1,0.8-0.2,1.2-0.3c0.3,0,2.2-0.2,0.6-0.1
			c1,0,1.6-0.1,2.4-0.7c-0.4,0.1-0.7,0.3-1.1,0.4c1.9-0.2,2.7-1.7,3.2-3.4C85.3,36.3,82.4,35.6,81.9,37.4z"/>
	</g>
</g>
<g>
	<path class="st1" d="M56.9,36c0-0.4-0.1-0.8-0.2-1.3c0-0.4,0-0.8-0.1-1.1c-0.1-1.2-0.4-2.4-0.8-3.5c-0.3-0.6-0.5-1.2-0.9-1.8
		c-0.4-0.6-0.8-1.2-1.3-1.7c-0.8-1-1.9-1.9-3-2.7c-1.1-0.8-2.3-1.3-3.5-1.7c-0.5-0.2-1.1-0.3-1.7-0.3c-0.8-0.1-1.5-0.2-2.3-0.2
		c0,0-0.1,0-0.1,0c-1.3,0-2.7,0.2-4,0.4c-2.3,0.3-4.5,1.1-6.4,2.5c-0.3,0.2-0.7,0.5-1,0.8c-0.1,0.1-0.2,0.2-0.4,0.3
		c-0.4,0.4-0.8,0.8-1.2,1.2c-0.4,0.5-0.9,1.1-1.2,1.7c-0.6,1-1.1,2.1-1.6,3.2c-0.6,1.4-0.8,3-1,4.5c-0.1,1.4,0,2.9,0.3,4.3
		c0.3,1.4,0.8,2.7,1.5,3.9c0.3,0.5,0.6,1.1,1,1.6c0.5,0.6,0.9,1.2,1.5,1.8c0.5,0.5,1.1,1,1.7,1.4c0.5,0.4,1.1,0.8,1.7,1.1
		c0.6,0.4,1.3,0.7,2,0.9c0.6,0.3,1.3,0.4,2,0.6c4,0.9,8.2-0.1,11.7-2.1c0.9-0.5,1.7-1.1,2.5-1.8c0.6-0.5,1.1-1.1,1.5-1.8
		c0.4-0.4,0.7-0.8,1-1.2c0.4-0.6,0.8-1.2,1-1.8c0.4-0.8,0.6-1.6,0.8-2.4C57.1,39.2,57.1,37.6,56.9,36z M45.6,38
		c0,0.2-0.1,0.4-0.2,0.5c-0.1,0.2-0.2,0.4-0.2,0.6c-0.1,0.2-0.2,0.3-0.3,0.5c-0.1,0.1-0.1,0.2-0.2,0.2c-0.1,0.1-0.2,0.2-0.4,0.3
		c-0.1,0.1-0.2,0.1-0.3,0.1c-0.1,0-0.1,0-0.2,0c0,0,0,0-0.1,0.1c-0.1,0.1-0.1,0.1-0.2,0.1c-0.1,0.1-0.2,0.1-0.3,0.1
		c-0.1,0-0.3,0-0.4,0c0,0,0,0,0,0c-0.1,0-0.1,0-0.2,0c-0.2,0-0.4,0-0.6,0c-0.1,0-0.2,0-0.2,0c0,0-0.1,0-0.1,0
		c-0.2,0.1-0.4,0.1-0.6,0.1c-0.2,0.1-0.3,0.1-0.5,0.2c-0.2,0-0.4,0-0.5,0c-0.1,0-0.2,0-0.3,0c-0.3-0.1-0.5-0.1-0.8-0.3
		c-0.2-0.1-0.3-0.2-0.5-0.4c-0.1-0.1-0.2-0.3-0.4-0.4c-0.1-0.1-0.1-0.2-0.2-0.4c-0.1-0.2-0.2-0.4-0.3-0.6c-0.1-0.3-0.2-0.7-0.2-1
		c0-0.3,0-0.7,0-1.1c0,0,0,0,0,0c0,0,0,0,0,0c0-0.2,0-0.4,0.1-0.7c0-0.1,0.1-0.3,0.1-0.4c0,0,0,0,0,0c0,0,0-0.1,0-0.1c0,0,0,0,0,0
		c0-0.1,0-0.2,0.1-0.2c0.1-0.2,0.2-0.5,0.3-0.6c0.1-0.1,0.2-0.3,0.3-0.4c0.1-0.1,0.2-0.2,0.3-0.3c0.1-0.1,0.3-0.2,0.4-0.2
		c0,0,0,0,0,0c0,0,0,0,0,0c0.1-0.1,0.2-0.3,0.4-0.3c0.1,0,0.2-0.1,0.3-0.1c0.1,0,0.2,0,0.3,0c0,0,0.1,0,0.1,0c0.1,0,0.2-0.1,0.2-0.1
		c0,0,0,0,0,0c0.1-0.1,0.1-0.3,0.2-0.4c0.1-0.1,0.1-0.2,0.2-0.2c0.4-0.3,0.9-0.3,1.3,0c0.2,0.1,0.3,0.3,0.4,0.6
		c0.1,0,0.2-0.1,0.3-0.1c0.1,0,0.2,0,0.3,0c0.1,0,0.2,0,0.3,0.1c0.1,0,0.2,0.1,0.3,0.1c0.3,0.2,0.5,0.4,0.7,0.8
		c0.1,0.2,0.3,0.4,0.3,0.7c0.1,0.1,0.1,0.1,0.2,0.2c0.1,0.1,0.1,0.2,0.2,0.3c0.1,0.1,0.1,0.2,0.2,0.3c0.1,0.2,0.2,0.4,0.2,0.6
		c0,0.2,0.1,0.4,0.1,0.6c0,0.2,0,0.4,0,0.6C45.7,37.6,45.6,37.8,45.6,38z"/>
	<g>
		<path class="st2" d="M58.4,35.6c-0.7-4.9-1.6-8.6-5.5-11.9c-3.2-2.6-7-3.7-11.1-3.4C32,21,24.4,28.3,25,38.5
			c0.5,8.4,7.6,15.3,16.1,15.3C51,53.9,59,45.9,58.4,36c-0.1-1.9-3.1-1.9-3,0c0.5,8.2-6,14.9-14.3,14.8c-7.4,0-13.3-6.4-13.1-13.8
			c0.3-8.4,7-13.9,15.2-13.8c8.2,0.1,11.2,6.1,12.3,13.2C55.8,38.3,58.7,37.5,58.4,35.6z"/>
		<path class="st2" d="M44.1,37.6c-0.1,0.4-0.2,0.9-0.5,1.2c0.2-0.2-0.2,0-0.4,0.1c-0.5,0.2-0.6,0.4,0,0.3c-0.3,0.1-0.9,0-1.2,0
			c-0.3,0-1.8,0.4-2.2,0.2C39,38.9,39,37.6,39,36.8c0-0.3,0-0.5,0.1-0.7c0.2-0.5,0.4-0.5,0.6-1c0,0.1,0.6-0.5,0.1-0.3
			c-0.4,0.2,0.4,0,0.6,0c0.3-0.1,0.7-0.3,0.9-0.5c0.5-0.6,0.1,0-0.2-0.3c0.3,0.6,1.1,0.8,1.7,0.7c0,0,0.7,1.2,0.7,1.3
			c0.4,0.7,0.5,1.3,0.4,2.1c-0.2,1.9,2.8,1.9,3,0c0.3-2.6-1.7-7-4.9-6.2c0.6,0.2,1.1,0.5,1.7,0.7c-1.1-2-3.7-2-4.8,0
			c0.3-0.2,0.6-0.5,0.9-0.7c0.6,0.1,0.6,0.1,0,0c-0.2,0-0.5,0.1-0.7,0.1c-0.6,0.2-0.9,0.5-1.3,0.8c0.8-0.5-0.6,0.4-0.7,0.5
			c-0.4,0.4-0.6,0.9-0.8,1.3c-0.5,1.3-0.6,2.8-0.3,4.2c0.5,2.1,2.2,3.9,4.4,3.6c0.6-0.1,0.8-0.2,1.2-0.3c0.3,0,2.2-0.2,0.6-0.1
			c1,0,1.6-0.1,2.4-0.7c-0.4,0.1-0.7,0.3-1.1,0.4c1.9-0.2,2.7-1.7,3.2-3.4C47.6,36.6,44.7,35.8,44.1,37.6z"/>
	</g>
</g>
<g>
	<g>
		<path class="st1" d="M117.8,5.7c-0.3-0.4-0.5-0.8-0.8-1.1c-0.3-0.3-0.7-0.7-1-0.9c-0.7-0.6-1.5-1-2.3-1.3
			c-0.8-0.4-1.8-0.7-2.7-0.8c-0.3,0-0.7,0-1,0c-0.8-0.1-1.7,0-2.4,0.2c-0.8,0.3-1.6,0.7-2.2,1.2c-0.1,0.1-0.3,0.1-0.4,0.2
			c-1,0.5-1.6,1.2-2.3,2c-0.1,0.2-0.3,0.3-0.4,0.5c-0.1,0-0.1,0-0.2,0.1c-0.8,0.4-1.4,1.2-1.7,2c-0.3,0.9-0.2,1.9,0.2,2.7
			c0,0.1-0.1,0.2-0.1,0.3c-0.2,0.9-0.3,1.8,0,2.7c0,0,0,0,0,0c-0.1,1.2,0.8,2.3,1.8,2.7c0.3,0.2,0.6,0.4,0.9,0.6
			c0.1,0.1,0.1,0.1,0.2,0.2c0.3,0.3,0.7,0.6,1,0.8c0.7,0.4,1.2,0.5,1.9,0.7c0.2,0,0.5,0.1,0.8,0.1c0.6,0,1.2-0.1,1.8-0.3
			c0.3-0.1,0.6-0.2,0.9-0.3c0.5,0,1-0.1,1.4-0.2c1.6-0.3,3.1-0.9,4.4-1.9c0.4-0.3,0.7-0.7,1-1.1c0.3-0.3,0.5-0.6,0.7-1
			c0.4-0.7,0.5-1.2,0.7-2c0.3-0.7,0.5-1.5,0.6-2.3c0.1-0.6,0-1.3-0.2-1.8C118.4,6.9,118.2,6.2,117.8,5.7z"/>
		<g>
			<path class="st2" d="M119.1,5c-3.2-4.7-9.6-6.4-14.4-3.2c-1.6,1.1-4,2.8-5,4.5c-0.8,1.3-0.7,2.4-0.6,3.8c0,1.1-0.1,2.7,0.2,3.9
				c0.5,2.5,2.3,3.7,4.4,5c2.6,1.6,5,0.9,7.8,0.3C117.8,17.7,122.5,11.3,119.1,5c-0.9-1.7-3.5-0.2-2.6,1.5c1.2,2.2,0.5,5.4-1,7.3
				c-1.5,1.9-3.7,2.1-5.9,2.5c-2.2,0.5-3.2,0.5-5.1-0.7c-2.1-1.3-2.6-2.1-2.4-4.6c0.3-3.1,1.2-4.9,3.8-6.7c3.4-2.3,8.1-1.4,10.5,2.1
				C117.6,8.1,120.2,6.6,119.1,5z"/>
		</g>
	</g>
	<g>
		<path class="st1" d="M118,42c0-1.7-0.1-3.4-0.3-5.2c0-0.2,0-0.3,0-0.5c0.1-1.9,0.4-3.7,0.3-5.6c0-0.9-0.2-1.8-0.5-2.7
			c-0.3-0.9-0.8-1.7-1.4-2.3c-0.3-0.3-0.7-0.6-1.1-0.8c-0.4-0.3-0.9-0.5-1.4-0.7c-0.9-0.4-1.9-0.6-2.9-0.6c-0.1,0-0.2,0-0.2,0
			c-0.3,0-0.6,0-0.9,0.1c0,0,0,0,0,0c-0.2-0.1-0.5-0.1-0.7-0.1c0,0,0,0,0,0c-0.2,0-0.5,0-0.7,0.1c-0.1,0-0.3,0.1-0.4,0.1
			c-0.2,0-0.3,0.1-0.5,0.2c-0.3,0.1-0.6,0.2-0.9,0.4c-0.4,0.2-0.7,0.4-1,0.6c-0.5,0.3-0.9,0.7-1.3,1.1c-0.4,0.4-0.7,0.8-1,1.2
			c-0.3,0.4-0.5,0.9-0.7,1.3c-0.1,0.3-0.2,0.6-0.3,1c-0.1,0.5-0.1,1-0.2,1.5c-0.1,0.9-0.1,1.9,0,2.8c0.1,0.8,0.2,1.6,0.3,2.3
			c-0.1,1.1-0.2,2.2-0.3,3.4c0,0.5,0,0.9-0.1,1.4c0,0.1,0,0.2,0,0.2c0,0.2,0.1,0.3,0.2,0.4c0,0,0,0,0,0.1c-0.2,0.7-0.1,1.5,0,2.2
			c0.1,0.9,0.5,1.8,0.9,2.6c0.5,0.9,1.1,1.7,1.7,2.5c0.3,0.4,0.7,0.7,1,1.1c0.4,0.4,0.9,0.7,1.3,1c0.7,0.5,1.6,0.8,2.5,1
			c0.7,0.2,1.5,0.2,2.2,0.1c0.4,0,0.7-0.1,1.1-0.2c0.4-0.1,0.7-0.2,1.1-0.4c0.6-0.3,1.1-0.6,1.6-1.1c0.5-0.4,0.9-1,1.3-1.5
			c0.3-0.5,0.6-1.1,0.9-1.6c0.3-0.6,0.5-1.2,0.7-1.9c-0.1-0.6-0.1-1.2-0.2-1.7C118.2,43.3,118.1,42.6,118,42z"/>
		<g>
			<path class="st2" d="M119.5,42c-0.2-8.1,2.2-19.5-9.1-19.9c-2.3-0.1-4,0.2-6,1.7c-3.9,2.9-3.9,6.7-3.8,11.2
				c0.1,2.2-0.2,4.3-0.1,6.5c0,0.8,0.3,0.3,0.2-0.2c0,0.9-0.2,1.7-0.1,2.6c0.5,3.7,3.4,7.6,6.9,9.2c2.7,1.2,5.9,1,8.3-0.8
				C119.5,49.7,120,46,119.5,42c-0.2-1.9-3.2-1.9-3,0c0.3,2.8,0.4,5.6-2,7.6c-3.6,3-8.5-0.3-10.1-3.8c-1.6-3.5-0.7-8.3-0.9-11.9
				c-0.3-4.2,1.9-9.2,6.6-8.7c1.3,0.1,4.7,1.4,5.6,2.4c1.2,1.4,0.8,4.3,0.7,6c-0.2,2.9,0,5.5,0,8.5C116.6,43.9,119.6,44,119.5,42z"
				/>
		</g>
	</g>
	<g>
		<path class="st1" d="M169.8,40.5c-0.1-1.1-0.2-2.3-0.4-3.4c-0.3-1.6-0.9-3.2-1.7-4.7c-0.1-0.2-0.2-0.3-0.3-0.5
			c-0.1-0.3-0.2-0.6-0.3-1c-0.6-1.8-1.6-3.4-2.8-4.8c-0.5-0.7-1.1-1.3-1.7-1.9c-0.7-0.7-1.5-1.3-2.3-1.9c-1.4-1.1-3.1-1.8-4.7-2.5
			c-0.8-0.3-1.7-0.6-2.5-0.8c-0.3-0.1-0.6-0.1-0.9-0.2c-0.9-0.2-1.8-0.3-2.7-0.3c-0.1,0-0.1-0.1-0.2-0.1c-0.1,0-0.2,0-0.3,0
			c0,0,0,0,0,0c0,0,0,0,0,0c-0.6-0.1-1.3-0.1-1.9-0.1c-0.1,0-0.1,0-0.2,0c-0.5,0-1.1,0-1.6,0.1c0,0-0.1,0-0.1,0
			c-0.4,0-0.7-0.1-1.1-0.1c0,0,0,0,0,0c-0.4,0-0.8,0.1-1.2,0.1c-0.6,0.1-1.2,0.4-1.8,0.6c-0.3,0.1-0.5,0.3-0.8,0.4c0,0,0,0,0,0
			c-1,0.4-1.9,0.9-2.8,1.5c-0.3-0.3-0.6-0.7-0.9-1c-0.6-0.5-1.2-1-1.9-1.2c-0.4-0.2-0.8-0.2-1.2-0.2c-0.3,0-0.6,0-0.9,0.1
			c-1.8,0.3-3.6,1.3-4.8,2.9c-0.3,0.4-0.5,0.8-0.7,1.2c-0.2,0.5-0.4,0.9-0.6,1.4c-0.3,0.9-0.5,1.9-0.6,2.9c0,0.1,0,0.1,0,0.2
			c-0.1,0.4-0.2,0.7-0.3,1.1c-0.2,0.9-0.4,1.8-0.6,2.8c0,0.3-0.1,0.5-0.1,0.8c0,3.2,0.3,6.4,0.8,9.6c0,0.2,0.1,0.3,0.2,0.4
			c0,0,0,0,0,0.1c-0.2,0.7-0.1,1.5,0,2.2c0.1,0.9,0.5,1.8,0.9,2.6c0.5,0.9,1.1,1.7,1.7,2.5c0.3,0.4,0.7,0.7,1,1.1
			c0.4,0.4,0.9,0.7,1.3,1c0.7,0.5,1.6,0.8,2.5,1c0.7,0.2,1.5,0.2,2.2,0.1c0.4,0,0.7-0.1,1.1-0.2c0.4-0.1,0.7-0.2,1.1-0.4
			c0.6-0.3,1.1-0.6,1.6-1.1c0.5-0.4,0.9-1,1.3-1.5c0.3-0.5,0.6-1.1,0.9-1.6c0.3-0.7,0.5-1.3,0.7-2c0.4-1.3,0.6-2.7,0.7-4.1
			c0.1-1.3,0.2-2.5,0.1-3.8c0-0.4-0.1-0.8-0.1-1.2c0-0.4,0-0.8,0-1.1c0.5-0.1,1-0.1,1.5-0.3c0.6-0.2,1.1-0.4,1.7-0.6
			c0.9-0.4,1.8-1,2.6-1.8c0.1-0.1,0.3-0.3,0.4-0.4c0.2-0.1,0.4-0.2,0.7-0.3c0.4-0.1,0.7-0.2,1.1-0.3c0.2,0,0.5,0,0.7,0
			c0.2,0,0.4,0.1,0.6,0.2c0.1,0.1,0.3,0.1,0.4,0.2c0.1,0,0.1,0.1,0.2,0.1c0.3,0.2,0.5,0.5,0.7,0.7c0.4,0.5,0.7,1,0.9,1.6
			c0.4,1.1,0.7,2.3,0.9,3.5c0.2,1.5,0.2,3.1,0,4.6c-0.1,0.8-0.3,1.7-0.6,2.5c0,0.1-0.1,0.2-0.1,0.3c-0.1,0.3,0,1.6,0.1,1.8
			c0.4,0.7,0.9,1.3,1.4,1.9c0.3,0.4,0.7,0.7,1,1.1c0.4,0.4,0.9,0.7,1.3,1c0.7,0.5,1.6,0.8,2.5,1c0.7,0.2,1.5,0.2,2.2,0.1
			c0.4,0,0.7-0.1,1.1-0.2c0.4-0.1,0.7-0.2,1.1-0.4c0.6-0.3,1.1-0.6,1.6-1.1c0.5-0.4,0.9-1,1.3-1.5c0.3-0.5,0.6-1.1,0.9-1.6
			c0.3-0.7,0.5-1.3,0.7-2c0.1-0.4,0.2-0.8,0.3-1.3C169.8,43,169.9,41.7,169.8,40.5z"/>
		<g>
			<path class="st2" d="M171.3,40.5c-1.3-13.1-9.3-22-22.3-23.7c0.5,0.5,1,1,1.5,1.5c0,0,0,0,0,0c0-0.9-0.7-1.4-1.5-1.5
				c-4.7-0.5-8.2,0.2-12.3,2.7c0.6,0.1,1.2,0.2,1.8,0.2c-4.5-5-11.5-2.3-13.5,3.8c-1.2,3.7-1.8,8-1.5,11.9c0.1,2.1,0.5,4.2,0.8,6.3
				c-0.2-1.3,0,1.6,0.1,2.3c0.8,6,7.7,11.8,13.8,9c6.6-3,6-11.9,6-17.8c-0.4,0.5-0.7,1-1.1,1.4c1.5-0.3,2.9-0.7,4.2-1.4
				c1.1-0.6,1.9-1.8,3.2-1.9c4.6-0.3,2.8,8.3,2.5,11.1c-0.4,3.3,1.3,5.9,4.3,7.7C166.1,57.9,171.5,48,171.3,40.5
				c-0.1-1.9-3.1-1.9-3,0c0.1,2.6,0,5.7-1.7,7.9c-2.6,3.3-7.1,2.8-9.7-0.4c-1.8-2.2-0.7-3.1-0.4-5.5c0.3-2.5,0.1-5.2-0.7-7.7
				c-0.7-1.9-1.7-4.1-3.8-4.7c-3.4-1-6.8,3.2-9.7,3.7c-0.6,0.1-1.1,0.8-1.1,1.4c0,4.1,0.5,8.5-1.6,12.3c-4.1,7.3-11.4,0.4-12.3-5.2
				c-0.6-3.7-1.3-8.1-0.7-11.9c0.2-1.4,0.6-2.8,0.8-4.1c0.4-1.8,0.6-2.2,1.8-3.8c0.7-1.9,1.9-2.4,3.8-1.7c1.5-0.5,2.6-0.2,3.3,1
				c0.4,0.5,1.3,0.6,1.8,0.2c3.5-2.2,6.6-2.7,10.8-2.3c-0.5-0.5-1-1-1.5-1.5c0,0,0,0,0,0c0,0.9,0.7,1.4,1.5,1.5
				c11.2,1.5,18.2,9.6,19.3,20.7C168.5,42.4,171.5,42.4,171.3,40.5z"/>
		</g>
	</g>
</g>
</svg>
