<?xml version="1.0" encoding="utf-8"?>
<!-- Generator: Adobe Illustrator 23.0.3, SVG Export Plug-In . SVG Version: 6.00 Build 0)  -->
<svg version="1.1" id="Layer_1" xmlns="http://www.w3.org/2000/svg" xmlns:xlink="http://www.w3.org/1999/xlink" x="0px" y="0px"
	 viewBox="0 0 463.9 93.5" style="enable-background:new 0 0 463.9 93.5;" xml:space="preserve">
<style type="text/css">
	.st0{fill:#FFFFFF;}
	.st1{fill:#2C2C2C;}
</style>
<g>
	<path class="st0" d="M267,55.6c0-0.1,0-0.2-0.1-0.3c-0.1-1.1-0.5-2-1.1-2.7c0,0,0,0,0,0c-0.1-0.3-0.3-0.6-0.5-0.9
		c0.3-1.4,0.3-2.8,0.2-4.2c0-0.4-0.1-0.8-0.2-1.3c0-0.4,0-0.8-0.1-1.1c-0.1-1.2-0.4-2.4-0.8-3.5c-0.3-0.6-0.5-1.2-0.9-1.8
		c-0.4-0.6-0.8-1.2-1.3-1.7c-0.8-1-1.9-1.9-3-2.7c-1.1-0.8-2.3-1.3-3.5-1.7c-0.5-0.2-1.1-0.3-1.7-0.3c-0.8-0.1-1.5-0.2-2.3-0.2
		c0,0-0.1,0-0.1,0c-1.3,0-2.7,0.2-4,0.4c-2.3,0.3-4.5,1.1-6.4,2.5c-0.3,0.2-0.7,0.5-1,0.8c-0.1,0.1-0.2,0.2-0.4,0.3
		c-0.4,0.4-0.8,0.8-1.2,1.2c-0.4,0.5-0.9,1.1-1.2,1.7c-0.6,1-1.1,2.1-1.6,3.2c-0.6,1.4-0.8,3-1,4.5c-0.1,1.4,0,2.9,0.3,4.3
		c0.3,1.4,0.8,2.7,1.5,3.9c0.3,0.5,0.6,1.1,1,1.6c0.5,0.6,0.9,1.2,1.5,1.8c0.5,0.5,1.1,1,1.7,1.4c0.5,0.4,1.1,0.8,1.7,1.1
		c0.6,0.4,1.3,0.7,2,0.9c0.6,0.3,1.3,0.4,2,0.6c3.2,0.7,6.6,0.2,9.6-1.1c0.7,0.4,1.4,0.7,2.3,0.8c0,0,0,0,0,0c0.1,0,0.1,0.1,0.2,0.1
		c0.4,0.2,0.9,0.3,1.4,0.4c0.5,0.1,1,0.1,1.5,0c0.5-0.1,1-0.2,1.5-0.5c0.3-0.2,0.6-0.3,0.9-0.6c0.1-0.1,0.2-0.1,0.3-0.2c0,0,0,0,0,0
		c0.2-0.1,0.3-0.3,0.5-0.4c0.2-0.1,0.3-0.3,0.3-0.5c0.2-0.3,0.5-0.7,0.7-1c0.5-0.8,0.7-1.7,0.9-2.5C267,57.1,267.1,56.3,267,55.6z"
		/>
	<g>
		<path class="st1" d="M268.4,55.2c-0.3-1.9-1.2-3.2-1.4-4.9c-0.4-3.1,0-6.1-1.1-9.1c-1.6-4.1-5.4-7.7-9.7-8.9
			c-10.5-3-21.3,3.9-22.5,14.7c-1.2,10.5,7.8,19.5,18.3,18.1c1.5-0.2,3.1-1,4.7-0.9c0.4,0,2.8,0.7,1.4,0.4c2.2,0.6,3.7,1.1,5.9,0
			c3.2-1.6,4.7-5.5,4.6-8.9c-0.1-1.9-3.1-1.9-3,0c0.2,4.5-2.2,7.2-6.9,6c-1-0.3-1.5-0.7-2.5-0.8c-1.8-0.1-4.2,1.3-6.2,1.4
			c-10.3,0.1-16.1-10.9-11.8-19.8c3.8-8,15.8-10.5,22.3-4.2c2.9,2.8,3.7,6.7,3.7,10.7c0,1.7-0.3,2.2,0,3.6c0.3,1.2,1.3,2.2,1.5,3.6
			C265.8,57.9,268.7,57.1,268.4,55.2z"/>
	</g>
</g>
<g>
	<path class="st0" d="M249.1,52.3c0.2,0,0.3-0.1,0.5-0.2c0.2,0,0.4,0,0.6-0.1c0,0,0.1,0,0.1,0c0.1,0,0.2,0,0.2,0c0.2,0,0.4,0,0.6,0
		c0.1,0,0.1,0,0.2,0c0,0,0,0,0,0c0.1,0,0.3,0,0.4,0c0.1,0,0.2-0.1,0.3-0.1c0.1,0,0.1-0.1,0.2-0.1c0,0,0,0,0.1-0.1c0.1,0,0.1,0,0.2,0
		c0.1,0,0.2-0.1,0.3-0.1c0.1-0.1,0.2-0.2,0.4-0.3c0.1-0.1,0.1-0.2,0.2-0.2c0.1-0.1,0.2-0.3,0.3-0.5c0.1-0.2,0.2-0.4,0.2-0.6
		c0.1-0.2,0.1-0.4,0.2-0.5c0-0.2,0.1-0.4,0.1-0.6c0-0.2,0-0.4,0-0.6c0-0.2-0.1-0.4-0.1-0.6c-0.1-0.2-0.1-0.4-0.2-0.6
		c-0.1-0.1-0.1-0.2-0.2-0.3c0-0.1-0.1-0.2-0.2-0.3c-0.1-0.1-0.1-0.1-0.2-0.2c-0.1-0.2-0.2-0.5-0.3-0.7c-0.2-0.3-0.4-0.6-0.7-0.8
		c-0.1-0.1-0.2-0.1-0.3-0.1c-0.1,0-0.2,0-0.3-0.1c-0.1,0-0.2,0-0.3,0c-0.1,0-0.2,0-0.3,0.1c-0.1-0.2-0.2-0.4-0.4-0.6
		c-0.4-0.3-0.9-0.4-1.3,0c-0.1,0.1-0.2,0.1-0.2,0.2c-0.1,0.1-0.2,0.2-0.2,0.4c0,0,0,0,0,0c-0.1,0-0.2,0.1-0.2,0.1c0,0-0.1,0-0.1,0
		c-0.1,0-0.2,0-0.3,0c-0.1,0-0.2,0.1-0.3,0.1c-0.1,0.1-0.3,0.2-0.4,0.3c0,0,0,0,0,0c0,0,0,0,0,0c-0.1,0.1-0.3,0.1-0.4,0.2
		c-0.1,0.1-0.2,0.2-0.3,0.3c-0.1,0.1-0.2,0.2-0.3,0.4c-0.1,0.2-0.2,0.4-0.3,0.6c0,0.1,0,0.2-0.1,0.2c0,0,0,0,0,0c0,0,0,0.1,0,0.1
		c0,0,0,0,0,0c0,0.1-0.1,0.3-0.1,0.4c0,0.2-0.1,0.4-0.1,0.7c0,0,0,0,0,0c0,0,0,0,0,0c0,0.4,0,0.7,0,1.1c0,0.3,0.1,0.7,0.2,1
		c0.1,0.2,0.2,0.4,0.3,0.6c0.1,0.1,0.1,0.2,0.2,0.4c0.1,0.2,0.2,0.3,0.4,0.4c0.1,0.1,0.3,0.3,0.5,0.4c0.2,0.2,0.5,0.2,0.8,0.3
		c0.1,0,0.2,0,0.3,0C248.8,52.3,248.9,52.3,249.1,52.3L249.1,52.3L249.1,52.3z"/>
	<g>
		<path class="st1" d="M249.5,53.7c0.7-0.2,0.3-0.1,1-0.2c0.3,0,0.7,0,1-0.1c-0.7-0.1-0.8-0.1-0.4,0c0.9-0.1,1.5-0.1,2.2-0.8
			c-0.4,0.1-0.7,0.3-1.1,0.4c2.8-0.2,3.9-3.8,3.1-6.1c-0.7-2-2.3-4.4-4.7-3.8c0.6,0.2,1.1,0.5,1.7,0.7c-1.1-2-3.7-2-4.8,0
			c0.3-0.2,0.6-0.5,0.9-0.7c0.5,0.1,0.6,0.1,0.2,0.1c-0.2,0-0.3,0-0.5,0c-0.4,0-0.7,0.1-1,0.3c-0.2,0.1-1.2,0.9-0.4,0.3
			c-0.3,0.2-0.6,0.4-0.9,0.6c-0.8,0.7-1.1,1.9-1.3,2.9c-0.5,2.9,1,6.6,4.5,6.4c1.9-0.2,1.9-3.2,0-3c-1.7,0.1-1.9-2.3-1.4-3.5
			c0.1-0.3,0.5-0.5,0.6-0.8c0.1-0.1,0.2-0.2,0.3-0.3c-0.4-0.1-0.5-0.1-0.1,0c0.4-0.1,0.8,0,1.2-0.3c0.9-0.6,0.3-0.3,0.2-0.6
			c0.3,0.6,1.1,0.8,1.7,0.7c0,0,0.9,1.5,1,1.7c0.2,0.6,0.2,1.2,0,1.8c0,0.1-0.5,0.9-0.2,0.6c-0.2,0.2-0.8,0.3-1.1,0.4
			c0.2,0,0.3,0,0.5,0c-0.3-0.1-0.5-0.1-0.8,0c-0.6,0-1.4,0.1-2.2,0.3C246.9,51.4,247.7,54.3,249.5,53.7z"/>
	</g>
</g>
<g>
	<path class="st0" d="M300,56.6c-0.1-0.4-0.2-0.8-0.3-1.2c0-0.1,0-0.2,0-0.3c-0.1-0.3-0.2-0.7-0.3-1c0-0.1-0.1-0.2-0.1-0.3
		c0-0.1,0-0.2,0-0.3c-0.1-0.5-0.3-0.9-0.6-1.4c-0.1-0.2-0.2-0.3-0.4-0.5c-0.3-0.6-0.8-1.1-1.5-1.3c-0.2-0.1-0.4-0.1-0.6-0.1
		c-0.2,0-0.5,0-0.7,0c-0.1,0-0.2,0-0.3,0c-0.2,0-0.4,0-0.6,0c-0.4,0-0.9,0-1.3,0.1c-0.5,0.1-0.9,0.2-1.4,0.3
		c-0.5,0.2-1.1,0.4-1.6,0.7c-0.2,0.1-0.4,0.3-0.6,0.4c-0.1,0.1-0.2,0.2-0.4,0.3c-0.2,0.1-0.4,0.2-0.6,0.2c-0.3,0.1-0.6,0.1-0.9,0.2
		c-0.2,0-0.4,0-0.6-0.1c-0.2,0-0.3-0.1-0.4-0.2c-0.2-0.1-0.3-0.2-0.4-0.3c-0.2-0.2-0.4-0.4-0.5-0.6c-0.2-0.4-0.4-0.9-0.6-1.3
		c-0.1-0.3-0.2-0.7-0.2-1.1c-0.1-0.6-0.2-1.2-0.2-1.8c0-1.2,0.1-2.4,0.4-3.6c0.1-0.5,0.3-0.9,0.5-1.4c0.8-0.8,1.7-1.5,2.7-2.1
		c0.7-0.4,1.3-0.7,2.1-0.9c0.2-0.1,0.4-0.1,0.7-0.1c0.5-0.1,1-0.1,1.6-0.1c0.6,0,1.1,0,1.7-0.1c0.7,0,1.4-0.2,2-0.4
		c0.6-0.2,1.2-0.5,1.7-0.8c0.3-0.2,0.5-0.5,0.8-0.8c0.3-0.3,0.5-0.7,0.6-1.1c0.2-0.3,0.2-0.7,0.3-1.1c0-0.2,0.1-0.4,0.1-0.6
		c0-0.3,0-0.6-0.1-0.9c-0.1-0.4-0.2-0.7-0.3-1c-0.1-0.5-0.4-0.9-0.6-1.3c-0.3-0.6-0.7-1.1-1-1.6c0,0,0,0,0,0c0,0,0,0,0,0
		c-0.1-0.2-0.2-0.3-0.3-0.5c-0.1-0.2-0.3-0.3-0.5-0.5c-0.1-0.1-0.2-0.2-0.3-0.2c-0.1,0-0.1-0.1-0.2-0.1c-0.3-0.2-0.6-0.5-0.9-0.7
		c-0.4-0.2-0.8-0.4-1.3-0.6c-0.5-0.2-1-0.3-1.4-0.3c-0.9-0.1-1.9,0-2.8,0.1c-1,0.2-2,0.5-2.9,0.8c-0.9,0.4-1.8,0.8-2.7,1.3
		c-0.3,0.2-0.6,0.4-0.9,0.5c-1.4,0.8-2.7,1.8-3.9,2.8c-0.7,0.6-1.3,1.3-1.9,2c-0.9,1-1.5,2.2-2.1,3.4c-0.1,0.1-0.1,0.3-0.2,0.4
		c-0.2,0.2-0.3,0.4-0.5,0.6c-0.8,1.3-1.3,2.6-1.6,4.1c0,0,0,0,0,0c-0.2,0.7-0.3,1.3-0.3,2c-0.1,0.8-0.1,1.6-0.1,2.4
		c0.1,1.4,0.4,2.8,0.8,4.1c0.3,0.9,0.6,1.8,1.1,2.6c0.3,0.6,0.7,1.3,1.1,1.8c0,0.1,0,0.1,0.1,0.2c0,0.1,0.1,0.1,0.1,0.2c0,0,0,0,0,0
		c0,0,0,0,0,0c0.3,0.4,0.5,0.8,0.8,1.2c0,0,0.1,0.1,0.1,0.1c0.3,0.3,0.6,0.7,0.9,1c0,0,0,0.1,0.1,0.1c0.1,0.2,0.3,0.5,0.5,0.7
		c0,0,0,0,0,0c0.2,0.2,0.4,0.5,0.7,0.7c0.4,0.3,0.8,0.6,1.3,0.8c0.2,0.1,0.4,0.2,0.6,0.3c0,0,0,0,0,0c0.3,0.2,0.7,0.4,1,0.5
		c0.2,0.1,0.3,0.2,0.5,0.3c0.8,0.4,1.7,0.8,2.6,1.1c0.7,0.2,1.4,0.4,2.1,0.5c0,0,0.1,0.1,0.1,0.1c0.1,0,0.1,0,0.2,0.1c0,0,0,0,0,0
		c0,0,0,0,0,0c0.5,0.1,1,0.2,1.5,0.3c0,0,0.1,0,0.1,0c0.4,0,0.9,0.1,1.3,0.1c0,0,0.1,0,0.1,0c0.3,0.1,0.5,0.1,0.8,0.2c0,0,0,0,0,0
		c0.3,0,0.6,0,0.9,0c0.5,0,1-0.2,1.5-0.3c0.2-0.1,0.4-0.2,0.6-0.3c0,0,0,0,0,0c1.2-0.3,2.3-0.8,3.3-1.5c0.2-0.2,0.5-0.4,0.7-0.6
		c0.2-0.2,0.3-0.4,0.5-0.6c0.2-0.3,0.3-0.6,0.4-0.9c0.1-0.3,0.2-0.6,0.3-1c0-0.3,0.1-0.5,0.1-0.8C300,57.3,300,57,300,56.6z"/>
	<g>
		<path class="st1" d="M301.4,56.2c-0.7-2.5-1-5.8-3.9-7.1c-1.1-0.5-2.5-0.4-3.6-0.3c-1.2,0.1-4.6,2.1-5.2,2
			c-1.8-0.4-2.7-5.1-1.9-6.9c1.4-3.1,4.1-3.3,6.9-3.5c1.9-0.1,3.7-0.3,5.3-1.4c3-2.2,3-5.8,1.4-8.9c-0.2-0.4-1.5-2.2-1.1-1.6
			c0.5,0.7-0.2-0.5-0.4-0.7c-1-1-2.1-1.9-3.5-2.5c-4.5-1.8-9.8,0.8-13.5,3.3c-7.7,5.2-12.3,15.1-8.6,24.1c0.5,1.1,1.1,2.1,1.7,3.1
			c0.4,0.7-0.4-0.6,0.2,0.4c0.8,1.2,1.6,2.6,2.6,3.6c2.5,2.6,6.5,3.8,9.9,4.6c-0.4-0.5-0.7-1-1.1-1.4c0,0,0,0,0,0
			c0,0.6,0.5,1.3,1.1,1.4c5.8,1.3,14.5-0.3,13.9-7.9c-0.2-1.9-3.2-1.9-3,0c0.4,5.5-6.2,5.9-10.1,5c0.4,0.5,0.7,1,1.1,1.4
			c0,0,0,0,0,0c0-0.6-0.5-1.3-1.1-1.4c-3.3-0.8-6.6-2-8.9-4.5c-0.1-0.1-2.7-3.4-1.5-1.4c-0.1-0.2-0.1-0.6-0.2-0.7
			c-1.6-2.5-2.8-5.2-2.9-8.2c-0.3-5,2.7-10.4,6.3-13.8c3.9-3.6,12.1-8,16-2.4c1.4,2,1.7,3.1,0.2,5.1c-1.6,2.1-2.9,1.6-5.3,1.9
			c-2.2,0.2-3.8,0.9-5.7,2.3c-3.2,2.4-3.7,7.4-2.3,11c1.1,2.8,2.8,3.7,5.7,2.9c1.8-0.5,3.6-2.6,5.7-1.8c2.4,0.8,2.5,3.1,3.1,5.2
			C299,58.9,301.9,58.1,301.4,56.2z"/>
	</g>
</g>
<g>
	<path class="st0" d="M329,54.2c-0.2-0.4-0.4-0.8-0.6-1.1c-0.2-0.3-0.5-0.5-0.8-0.8c-0.5-0.4-1.1-0.7-1.7-0.8
		c-0.7-0.2-1.3-0.3-2-0.4c-0.6,0-1.1,0-1.7-0.1c-0.5,0-1,0-1.6-0.1c-0.2,0-0.5-0.1-0.7-0.1c-0.7-0.2-1.4-0.5-2.1-0.9
		c-0.5-0.3-1-0.7-1.5-1.1c0.1,0,0.1,0,0.2,0c0.5,0,0.9,0.1,1.4,0c0.2,0,0.4,0,0.6,0c0.1,0,0.1,0,0.2,0c0.4,0.1,0.9,0.1,1.3,0.1
		c0.4,0.1,0.7,0.2,1.1,0.2c0.4,0,0.8,0.1,1.2,0.1c0.2,0,0.5,0,0.7,0c0.6-0.1,1.2-0.1,1.7-0.3c0.4-0.1,0.7-0.2,1-0.4
		c0.3-0.1,0.6-0.3,0.8-0.4c0.2-0.1,0.3-0.2,0.5-0.4c0.2-0.2,0.4-0.4,0.6-0.6c0.2-0.3,0.4-0.7,0.5-1c0.1-0.4,0.1-0.7,0.1-1.1
		c0,0,0,0,0,0c0,0,0,0,0,0c0-0.2-0.1-0.5-0.1-0.7c0-0.1-0.1-0.3-0.2-0.4c0,0,0,0,0,0c0,0,0-0.1,0-0.1c0,0,0,0,0,0
		c0-0.1-0.1-0.2-0.1-0.3c-0.1-0.2-0.3-0.5-0.6-0.7c-0.2-0.1-0.3-0.3-0.6-0.4c-0.2-0.1-0.4-0.2-0.6-0.3c-0.3-0.1-0.6-0.2-0.9-0.3
		c0,0,0,0,0,0c0,0,0,0,0,0c-0.3-0.1-0.5-0.3-0.8-0.3c-0.2-0.1-0.4-0.1-0.6-0.1c-0.2,0-0.4,0-0.7,0c-0.1,0-0.2,0-0.3,0
		c-0.2,0-0.3-0.1-0.5-0.1c0,0,0,0,0,0c-0.1-0.1-0.3-0.3-0.5-0.4c-0.2-0.1-0.3-0.2-0.5-0.2c-0.9-0.4-2.1-0.3-3,0
		c-0.1,0-0.2,0.1-0.2,0.1c0,0-0.1,0-0.1,0c-0.6,0-1.2,0-1.8,0.1c-0.3,0.1-0.7,0.2-1,0.3c-0.2,0-0.3,0-0.5,0.1c0,0,0-0.1,0-0.1
		c0.1-0.4,0.1-0.7,0.2-1.1c0.1-0.5,0.3-0.9,0.6-1.3c0.1-0.2,0.3-0.4,0.5-0.6c0.1-0.1,0.3-0.2,0.4-0.3c0.1-0.1,0.3-0.1,0.4-0.2
		c0.2,0,0.4-0.1,0.6-0.1c0.3,0,0.6,0.1,0.9,0.2c0.2,0.1,0.4,0.1,0.6,0.2c0.1,0.1,0.2,0.2,0.4,0.3c0.2,0.1,0.4,0.3,0.6,0.4
		c0.5,0.3,1,0.6,1.6,0.7c0.4,0.1,0.9,0.3,1.4,0.3c0.4,0.1,0.9,0.1,1.3,0.1c0.2,0,0.4,0,0.6,0c0.1,0,0.2,0,0.3,0c0.2,0,0.5,0,0.7,0
		c0.2,0,0.4-0.1,0.6-0.1c0.6-0.2,1.2-0.7,1.5-1.3c0.1-0.1,0.3-0.3,0.4-0.5c0.3-0.4,0.5-0.9,0.6-1.4c0-0.1,0-0.2,0-0.3
		c0-0.1,0.1-0.2,0.1-0.3c0.1-0.3,0.2-0.6,0.3-1c0-0.1,0-0.2,0-0.3c0.1-0.4,0.3-0.8,0.3-1.2c0.1-0.4,0.1-0.7,0.1-1.1
		c0-0.3,0-0.5-0.1-0.8c-0.1-0.3-0.1-0.7-0.3-1c-0.1-0.3-0.3-0.6-0.4-0.9c-0.1-0.2-0.3-0.4-0.5-0.6c-0.2-0.2-0.4-0.4-0.7-0.6
		c-1-0.8-2.1-1.2-3.3-1.5c0,0,0,0,0,0c-0.2-0.1-0.4-0.2-0.6-0.3c-0.5-0.2-1-0.3-1.5-0.3c-0.3,0-0.6,0-0.9,0c0,0,0,0,0,0
		c-0.3,0-0.5,0.1-0.8,0.2c0,0-0.1,0-0.1,0c-0.4,0-0.9,0-1.3,0.1c0,0-0.1,0-0.1,0c-0.5,0.1-1,0.2-1.5,0.3c0,0,0,0,0,0c0,0,0,0,0,0
		c-0.1,0-0.1,0-0.2,0.1c-0.1,0-0.1,0-0.1,0.1c-0.7,0.1-1.4,0.3-2.1,0.5c-0.9,0.3-1.8,0.6-2.6,1.1c-0.2,0.1-0.3,0.2-0.5,0.3
		c-0.4,0.2-0.7,0.3-1,0.5c0,0,0,0,0,0c-0.2,0.1-0.4,0.2-0.6,0.3c-0.4,0.2-0.9,0.5-1.3,0.8c-0.2,0.2-0.5,0.4-0.7,0.7c0,0,0,0,0,0
		c-0.2,0.2-0.3,0.5-0.5,0.7c0,0,0,0.1-0.1,0.1c-0.3,0.3-0.6,0.6-0.9,1c0,0-0.1,0.1-0.1,0.1c-0.3,0.4-0.6,0.8-0.8,1.2c0,0,0,0,0,0
		c0,0,0,0,0,0c0,0.1-0.1,0.1-0.1,0.2c0,0,0,0.1-0.1,0.2c-0.4,0.6-0.8,1.2-1.1,1.8c-0.4,0.8-0.8,1.7-1.1,2.6
		c-0.4,1.4-0.7,2.7-0.8,4.1c0,0.8,0,1.6,0.1,2.4c0.1,0.7,0.2,1.3,0.3,2c0.2,1.5,0.5,2.9,0.9,4.3c0.3,0.9,0.6,1.9,1,2.8
		c0.4,0.9,0.9,1.8,1.4,2.6c0.5,0.8,1.1,1.5,1.9,2c0.4,0.3,0.8,0.6,1.2,0.8c0.4,0.2,0.9,0.4,1.3,0.5c0.4,0.1,0.7,0.1,1.1,0.2
		c0.1,0,0.2,0,0.2,0.1c0.1,0,0.2,0.1,0.4,0.1c0.2,0,0.5,0,0.7,0c0.1,0,0.1,0,0.2,0c0.3,0.2,0.6,0.4,0.9,0.5c0.9,0.5,1.7,0.9,2.7,1.3
		c0.9,0.4,1.9,0.7,2.9,0.8c0.9,0.2,1.8,0.2,2.8,0.1c0.5-0.1,1-0.2,1.4-0.3c0.4-0.1,0.9-0.4,1.3-0.6c0.3-0.2,0.6-0.4,0.9-0.7
		c0.1,0,0.1-0.1,0.2-0.1c0.1-0.1,0.2-0.1,0.3-0.2c0.2-0.2,0.3-0.3,0.5-0.5c0.1-0.2,0.2-0.3,0.3-0.5c0,0,0,0,0,0c0,0,0,0,0,0
		c0.4-0.5,0.7-1,1-1.6c0.2-0.4,0.5-0.9,0.6-1.3c0.1-0.3,0.2-0.7,0.3-1c0-0.3,0.1-0.6,0.1-0.9c0-0.2,0-0.4-0.1-0.6
		C329.2,54.9,329.1,54.5,329,54.2z"/>
	<g>
		<path class="st1" d="M330.3,53.4c-3.1-5.1-8.8-2.7-13.1-5.8c-0.3,0.9-0.5,1.9-0.8,2.8c3.6,0.4,8.7,1.3,11.7-1.5
			c1.8-1.7,1.8-4.4,1.1-5.6c-1.7-2.9-3.8-2.5-6.3-3.4c1,0.3-0.9-0.5-1.1-0.5c-0.7-0.2-1.5-0.5-2.2-0.5c-2.3,0-2.8,0.5-5.5,0.8
			c0.6,0.6,1.2,1.2,1.8,1.8c0.7-4.5,3-1.4,4.9-0.8c1.5,0.5,3.5,0.8,5.1,0.4c3.3-0.7,4.2-4.3,4.7-6.8c1.6-8.2-7.4-10.3-13.7-8.9
			c-0.6,0.1-1.1,0.8-1.1,1.4c0,0,0,0,0,0c0.4-0.5,0.7-1,1.1-1.4c-5.3,1.3-9.5,3.4-12.4,8.1c-0.4,0.7-0.2,1.7,0.5,2.1c0,0,0,0,0,0
			c-0.2-0.7-0.4-1.4-0.5-2.1c-3.1,5.2-3.9,10-2.7,15.9c1.3,6.7,3.8,11.1,10.4,13c4.4,1.2,9.8,4.8,14.7,0.9c2.4-1.9,4.7-5.7,3.5-9.6
			c-0.6-1.8-3.5-1.1-2.9,0.8c0.8,2.4-0.9,5.6-3.1,6.9c-3.6,2.1-8.7-0.9-12.1-2c-9.4-3.3-9.6-17-5.2-24.4c0.4-0.7,0.2-1.7-0.5-2.1
			c0,0,0,0,0,0c0.2,0.7,0.4,1.4,0.5,2.1c2.4-4,6.2-5.6,10.6-6.7c0.6-0.2,1.1-0.8,1.1-1.4c0,0,0,0,0,0c-0.4,0.5-0.7,1-1.1,1.4
			c2.6-0.6,5.6-0.7,8,0.7c2.9,1.7,2.6,8.6-1.3,9.1c-2.9,0.4-5.1-2.8-8-2.1c-2.1,0.5-3.1,2.7-3.4,4.7c-0.2,1.2,0.6,2,1.8,1.8
			c3.2-0.4,7.4-0.7,10.4,1c1.8,1,2,2.3-0.2,3.6c-2,1.2-6.3,0.4-8.7,0.2c-1.6-0.2-1.8,2-0.8,2.8c1.5,1,2.8,1.9,4.6,2.3
			c2.8,0.6,5.6-0.6,7.5,2.5C328.7,56.6,331.3,55.1,330.3,53.4z"/>
	</g>
</g>
<g>
	<g>
		<path class="st0" d="M229.1,48.4c-0.1-0.5-0.2-1-0.4-1.5c-0.1-0.2-0.2-0.4-0.3-0.5c0-0.1,0-0.3,0-0.4c0-0.8-0.1-1.6-0.2-2.3
			c-0.2-0.8-0.5-1.6-0.8-2.3c-0.3-0.6-0.7-1.1-1.1-1.7c-0.5-0.7-1.1-1.3-1.7-1.8c-0.6-0.5-1.2-1-1.9-1.4c-0.3-0.2-0.6-0.4-0.9-0.5
			c-0.4-0.2-0.7-0.3-1.1-0.5c-0.7-0.3-1.5-0.6-2.3-0.8c-0.8-0.2-1.7-0.3-2.5-0.4c-1.5-0.1-3,0.1-4.5,0.6c-0.5,0.2-1.1,0.4-1.6,0.7
			c-0.2-0.1-0.4-0.2-0.6-0.3c-0.3-0.1-0.6-0.3-0.9-0.4c-0.2-0.1-0.3-0.1-0.5-0.2c-0.1,0-0.3-0.1-0.4-0.1c-0.2,0-0.5-0.1-0.7-0.1
			c0,0,0,0,0,0c-0.2,0-0.5,0-0.7,0.1c0,0,0,0,0,0c-0.3,0-0.6-0.1-0.9-0.1c-0.1,0-0.2,0-0.2,0c-1,0-2,0.2-2.9,0.6
			c-0.5,0.2-1,0.4-1.4,0.7c-0.4,0.2-0.8,0.5-1.1,0.8c-0.6,0.7-1.1,1.5-1.4,2.3c-0.3,0.9-0.4,1.8-0.5,2.7c-0.1,1.9,0.2,3.8,0.3,5.6
			c0,0.2,0,0.3,0,0.5c-0.2,1.7-0.3,3.4-0.3,5.2c-0.1,0.6-0.1,1.2-0.2,1.9c-0.3,3.1-0.7,6.1-0.8,9.2c-0.1,1.2-0.1,2.5-0.1,3.7
			c-0.1,0.4-0.1,0.8-0.1,1.2c-0.1,1.3-0.1,2.5,0.1,3.8c0.1,1.4,0.3,2.8,0.7,4.1c0.2,0.7,0.4,1.3,0.7,2c0.2,0.6,0.5,1.1,0.9,1.6
			c0.4,0.5,0.8,1.1,1.3,1.5c0.5,0.4,1,0.8,1.6,1.1c0.3,0.2,0.7,0.3,1.1,0.4c0.4,0.1,0.7,0.1,1.1,0.2c0.7,0.1,1.5,0,2.2-0.1
			c0.9-0.2,1.7-0.5,2.5-1c0.5-0.3,0.9-0.6,1.3-1c0.4-0.3,0.7-0.7,1-1.1c0.7-0.8,1.3-1.6,1.7-2.5c0.4-0.8,0.7-1.7,0.9-2.6
			c0.1-0.7,0.2-1.5,0-2.2c0,0,0,0,0-0.1c0.1-0.1,0.2-0.3,0.2-0.4c0.6-3.7,0.9-7.4,0.7-11.1c0-0.6-0.1-1.2-0.1-1.8c0.4,0,0.8,0,1.3,0
			c0.8,0,1.6-0.2,2.4-0.3c1.4-0.3,2.7-0.8,4-1.4c0.7-0.3,1.3-0.7,1.9-1.2c0.4-0.2,0.8-0.5,1.2-0.8c0.8-0.6,1.6-1.3,2.2-2
			c0.3-0.4,0.6-0.9,0.9-1.3c0.3-0.4,0.4-0.9,0.6-1.4c0.2-0.5,0.2-1,0.3-1.5C229.2,49.2,229.2,48.8,229.1,48.4z"/>
		<g>
			<path class="st1" d="M230.5,48c-1.3-4.9-1.5-8.9-6-12.2c-2-1.5-4.4-2.5-6.9-2.8c-1.6-0.2-3.1-0.3-4.7,0c-0.7,0.1-2.1,0.9-2.9,0.9
				c-1,0-2.2-0.8-3.3-0.9c-1.8-0.1-3.9,0.2-5.5,0.8c-6.7,2.8-4.6,10-4.9,15.7c-0.4,8.1-2.3,16.8-1.1,24.9c0.7,4.3,2.5,9.1,7.1,10.4
				c5.3,1.4,10.3-2.8,12.1-7.6c0.4-1.1,0.5-2.1,0.6-3.2c0.2-2.6,0-0.4,0.1-1.2c0.6-4.4,1-8.8,0.7-13.3c-0.5,0.5-1,1-1.5,1.5
				c7,0.1,16.6-4.6,16.2-12.6c-0.1-1.9-3.1-1.9-3,0c0.3,6.2-7.9,9.7-13.2,9.6c-0.8,0-1.5,0.7-1.5,1.5c0.3,4.6-0.2,9-0.8,13.5
				c-0.4,2.8-0.8,5.3-3.2,7.3c-2.9,2.4-6.8,2.2-8.9-1.1c-2.5-3.9-2-9-1.8-13.4c0.2-5.5,1-10.9,1.2-16.3c0.3-5.6-1.9-12.7,6.2-13.5
				c1.7-0.2,2.8,0.8,4.3,1c2.3,0.2,4.6-1.5,7.1-1.1c2.4,0.4,4.8,1.3,6.6,3c3,2.7,3.1,6.3,4,9.9C228.1,50.6,231,49.9,230.5,48z"/>
		</g>
	</g>
	<g>
		<path class="st0" d="M216.6,49.5c-0.1,0-0.2,0.1-0.4,0.1c-0.1,0.1-0.3,0.1-0.4,0.1c0,0,0,0,0,0c0,0-0.1,0.1-0.2,0.1
			c-0.1,0.1-0.3,0.1-0.4,0.2c0,0-0.1,0-0.1,0c0,0,0,0,0,0c-0.1,0.1-0.2,0.1-0.2,0.1c-0.1,0-0.2,0-0.3,0c-0.1,0-0.1,0-0.2,0
			c0,0,0,0-0.1,0c0,0-0.1,0-0.1,0.1c-0.1,0-0.2,0-0.3,0c-0.1,0-0.2,0-0.3-0.1c-0.1,0-0.1-0.1-0.2-0.1c-0.1-0.1-0.2-0.1-0.3-0.2
			c-0.1-0.1-0.2-0.2-0.3-0.3c-0.1-0.1-0.2-0.2-0.3-0.3c-0.1-0.1-0.2-0.2-0.3-0.4c-0.1-0.1-0.1-0.3-0.2-0.4c-0.1-0.1-0.1-0.3-0.1-0.4
			c0-0.2,0-0.3,0-0.5c0-0.1,0-0.2,0-0.3c0-0.1,0-0.2,0-0.2c0-0.1,0-0.1,0-0.2c0-0.2,0-0.4,0-0.5c0-0.3,0.1-0.5,0.2-0.7
			c0-0.1,0.1-0.1,0.1-0.2c0,0,0.1-0.1,0.1-0.1c0,0,0.1-0.1,0.2-0.1c0.1,0,0.1,0,0.2-0.1c0-0.2,0-0.3,0.1-0.5
			c0.1-0.3,0.5-0.5,0.8-0.5c0.1,0,0.1,0,0.2,0.1c0.1,0,0.2,0.1,0.3,0.2c0,0,0,0,0,0c0.1,0,0.1,0,0.2,0c0,0,0.1,0,0.1-0.1
			c0.1,0,0.1-0.1,0.2-0.1c0.1,0,0.2,0,0.2,0c0.1,0,0.2,0,0.4,0.1c0,0,0,0,0,0c0,0,0,0,0,0c0.1,0,0.2,0,0.4,0c0.1,0,0.2,0,0.3,0.1
			c0.1,0,0.2,0.1,0.3,0.2c0.1,0.1,0.3,0.2,0.4,0.3c0,0,0.1,0.1,0.1,0.1c0,0,0,0,0,0c0,0,0,0,0,0c0,0,0,0,0,0
			c0.1,0.1,0.1,0.1,0.2,0.2c0.1,0.1,0.2,0.3,0.3,0.4c0,0,0,0,0,0c0,0,0,0,0,0c0.1,0.2,0.2,0.5,0.3,0.7c0.1,0.2,0.2,0.5,0.2,0.7
			c0,0.2,0,0.3,0,0.5c0,0.1,0,0.2,0,0.3c0,0.1,0,0.3-0.1,0.4c0,0.1-0.1,0.3-0.2,0.4c-0.1,0.2-0.2,0.3-0.4,0.4
			c-0.1,0.1-0.1,0.1-0.2,0.1C216.9,49.4,216.7,49.5,216.6,49.5L216.6,49.5L216.6,49.5z"/>
		<g>
			<path class="st1" d="M216.2,48.1c-0.5,0.1-0.9,0.3-1.4,0.5c-0.2,0.1-0.6,0.4-0.8,0.4c0.2,0,1.2-0.4,0.3-0.3
				c-0.9,0.1-0.2,0.1-0.4,0c-0.2-0.1-0.4-0.3-0.5-0.5c-0.2-0.4-0.1-0.5-0.1-0.8c0.1-0.2,0.1-0.4,0-0.7c0.1-0.4,0-0.3-0.2,0
				c0.6-0.2,1.1-0.8,1.1-1.4c0,0.6-1.6,0.6-0.3,0.8c0.3,0.1,0.6,0,1-0.1c0.3-0.1,0.2-0.1-0.1,0c0.1,0,0.3,0.1,0.4,0.1
				c0.1,0.1,0.2,0.1,0.2,0.1C215.9,46.3,216.7,47.9,216.2,48.1c-0.8,0.3-1.3,1-1,1.8c0.2,0.7,1.1,1.4,1.8,1c3.2-1.3,2.7-5.4,0.3-7.3
				c-0.3-0.2-0.6-0.4-1-0.6c-0.2-0.1-1.6-0.2-0.7-0.1c-0.5-0.1-0.9-0.2-1.4-0.1c-0.2,0.1-0.4,0.1-0.6,0.2c1.2,0.3,1.6,0.3,1.1,0
				c-1.7-1.1-3.5,0.3-3.5,2.1c0.4-0.5,0.7-1,1.1-1.4c-2.9,0.7-2.4,5.3-0.6,6.9c0.5,0.5,1.1,0.8,1.8,0.9c0.1,0,1.1,0.1,1.1,0
				c0-0.2-1.2,0,0,0c0.4,0,0.7-0.1,1-0.2c1.1-0.5,0-0.1,0,0c0-0.1,1.5-0.5,1.4-0.5C218.9,50.6,218.1,47.7,216.2,48.1z"/>
		</g>
	</g>
</g>
<g>
	<path class="st0" d="M412.1,58.5c-0.1-0.4-0.2-0.8-0.3-1.2c0-0.1,0-0.2,0-0.3c-0.1-0.3-0.2-0.7-0.3-1c0-0.1-0.1-0.2-0.1-0.3
		c0-0.1,0-0.2,0-0.3c-0.1-0.5-0.3-0.9-0.6-1.4c-0.1-0.2-0.2-0.3-0.4-0.5c-0.3-0.6-0.8-1.1-1.5-1.3c-0.2-0.1-0.4-0.1-0.6-0.1
		c-0.2,0-0.5,0-0.7,0c-0.1,0-0.2,0-0.3,0c-0.2,0-0.4,0-0.6,0c-0.4,0-0.9,0-1.3,0.1c-0.5,0.1-0.9,0.2-1.4,0.3
		c-0.5,0.2-1.1,0.4-1.6,0.7c-0.2,0.1-0.4,0.3-0.6,0.4c-0.1,0.1-0.2,0.2-0.4,0.3c-0.2,0.1-0.4,0.2-0.6,0.2c-0.3,0.1-0.6,0.1-0.9,0.2
		c-0.2,0-0.4,0-0.6-0.1c-0.2,0-0.3-0.1-0.4-0.2c-0.2-0.1-0.3-0.2-0.4-0.3c-0.2-0.2-0.3-0.4-0.5-0.6c-0.2-0.4-0.4-0.9-0.6-1.3
		c-0.1-0.3-0.2-0.7-0.2-1.1c0,0,0-0.1,0-0.1c0.2,0,0.3,0,0.5,0.1c0.3,0.1,0.7,0.2,1,0.3c0.6,0.1,1.2,0.1,1.8,0.1c0,0,0.1,0,0.1,0
		c0.1,0,0.2,0.1,0.2,0.1c0.9,0.3,2.1,0.4,3,0c0.2-0.1,0.3-0.2,0.5-0.2c0.2-0.1,0.4-0.3,0.5-0.4c0,0,0,0,0,0c0.2,0,0.3-0.1,0.5-0.1
		c0.1,0,0.2,0,0.3,0c0.2,0,0.5,0,0.7,0c0.2,0,0.4-0.1,0.6-0.1c0.3-0.1,0.6-0.2,0.8-0.3c0,0,0,0,0,0c0,0,0,0,0,0
		c0.3-0.1,0.6-0.1,0.9-0.3c0.2-0.1,0.4-0.2,0.6-0.3c0.2-0.1,0.4-0.3,0.6-0.4c0.2-0.2,0.4-0.4,0.6-0.7c0.1-0.1,0.1-0.2,0.1-0.3
		c0,0,0,0,0,0c0,0,0-0.1,0-0.1c0,0,0,0,0,0c0.1-0.1,0.2-0.3,0.2-0.4c0.1-0.2,0.1-0.5,0.1-0.7c0,0,0,0,0,0c0,0,0,0,0,0
		c0-0.4,0-0.7-0.1-1.1c-0.1-0.4-0.3-0.7-0.5-1c-0.2-0.2-0.4-0.4-0.6-0.6c-0.1-0.1-0.3-0.2-0.5-0.4c-0.2-0.2-0.5-0.3-0.8-0.4
		c-0.3-0.1-0.7-0.3-1-0.4c-0.5-0.2-1.1-0.2-1.7-0.3c-0.2,0-0.5,0-0.7,0c-0.4,0-0.8,0-1.2,0.1c-0.4,0-0.8,0.1-1.1,0.2
		c-0.4,0-0.9,0-1.3,0.1c-0.1,0-0.1,0-0.2,0c-0.2,0-0.4,0-0.6,0c-0.5,0-0.9,0-1.4,0c-0.1,0-0.1,0-0.2,0c0.5-0.4,1-0.7,1.5-1.1
		c0.7-0.4,1.3-0.7,2.1-0.9c0.2-0.1,0.4-0.1,0.7-0.1c0.5-0.1,1-0.1,1.6-0.1c0.6,0,1.1,0,1.7-0.1c0.7,0,1.4-0.2,2-0.4
		c0.6-0.2,1.2-0.5,1.7-0.8c0.3-0.2,0.5-0.5,0.8-0.8c0.3-0.3,0.5-0.7,0.6-1.1c0.2-0.3,0.2-0.7,0.3-1.1c0-0.2,0.1-0.4,0.1-0.6
		c0-0.3,0-0.6-0.1-0.9c-0.1-0.4-0.2-0.7-0.3-1c-0.1-0.5-0.4-0.9-0.6-1.3c-0.3-0.6-0.7-1.1-1-1.6c0,0,0,0,0,0c0,0,0,0,0,0
		c-0.1-0.2-0.2-0.3-0.3-0.5c-0.1-0.2-0.3-0.3-0.5-0.5c-0.1-0.1-0.2-0.2-0.3-0.2c-0.1,0-0.1-0.1-0.2-0.1c-0.3-0.2-0.6-0.5-0.9-0.7
		c-0.4-0.2-0.8-0.4-1.3-0.6c-0.5-0.2-1-0.3-1.4-0.3c-0.9-0.1-1.9,0-2.8,0.1c-1,0.2-2,0.5-2.9,0.8c-0.9,0.4-1.8,0.8-2.7,1.3
		c-0.3,0.2-0.6,0.4-0.9,0.5c-0.1,0-0.1,0-0.2,0c-0.2,0-0.5,0-0.7,0c-0.1,0-0.3,0-0.4,0.1c-0.1,0-0.2,0-0.2,0.1
		c-0.4,0-0.7,0.1-1.1,0.2c-0.4,0.1-0.9,0.3-1.3,0.5c-0.4,0.2-0.9,0.5-1.2,0.8c-0.7,0.6-1.3,1.3-1.9,2c-0.6,0.8-1,1.7-1.4,2.6
		c-0.4,0.9-0.7,1.8-1,2.8c-0.4,1.4-0.7,2.9-0.9,4.3c-0.2,0.7-0.3,1.3-0.3,2c-0.1,0.8-0.1,1.6-0.1,2.4c0.1,1.4,0.4,2.8,0.8,4.1
		c0.3,0.9,0.6,1.8,1.1,2.6c0.3,0.6,0.7,1.3,1.1,1.8c0,0.1,0,0.1,0.1,0.2c0,0.1,0.1,0.1,0.1,0.2c0,0,0,0,0,0c0,0,0,0,0,0
		c0.3,0.4,0.5,0.8,0.8,1.2c0,0,0.1,0.1,0.1,0.1c0.3,0.3,0.6,0.7,0.9,1c0,0,0,0.1,0.1,0.1c0.1,0.2,0.3,0.5,0.5,0.7c0,0,0,0,0,0
		c0.2,0.2,0.4,0.5,0.7,0.7c0.4,0.3,0.8,0.6,1.3,0.8c0.2,0.1,0.4,0.2,0.6,0.3c0,0,0,0,0,0c0.3,0.2,0.7,0.4,1,0.5
		c0.2,0.1,0.3,0.2,0.5,0.3c0.8,0.4,1.7,0.8,2.6,1.1c0.7,0.2,1.4,0.4,2.1,0.5c0,0,0.1,0.1,0.1,0.1c0.1,0,0.1,0,0.2,0.1c0,0,0,0,0,0
		c0,0,0,0,0,0c0.5,0.1,1,0.2,1.5,0.3c0,0,0.1,0,0.1,0c0.4,0,0.9,0.1,1.3,0.1c0,0,0.1,0,0.1,0c0.3,0.1,0.5,0.1,0.8,0.2c0,0,0,0,0,0
		c0.3,0,0.6,0,0.9,0c0.5,0,1-0.2,1.5-0.3c0.2-0.1,0.4-0.2,0.6-0.3c0,0,0,0,0,0c1.2-0.3,2.3-0.8,3.3-1.5c0.2-0.2,0.5-0.4,0.7-0.6
		c0.2-0.2,0.3-0.4,0.5-0.6c0.2-0.3,0.3-0.6,0.4-0.9c0.1-0.3,0.2-0.6,0.3-1c0-0.3,0.1-0.5,0.1-0.8C412.2,59.2,412.2,58.8,412.1,58.5z
		"/>
	<g>
		<path class="st1" d="M413.5,58.1c-0.7-2.6-1.2-6.3-4.6-7.3c-1.4-0.4-3.3-0.2-4.7,0.2c-2.1,0.5-4.9,3.9-5.6-0.6
			c-0.6,0.6-1.2,1.2-1.8,1.8c2.6,0.4,3.1,0.8,5.5,0.8c0.8,0,1.5-0.3,2.2-0.5c0.2,0,2.1-0.9,1.1-0.5c2.7-0.9,4.7-0.4,6.3-3.4
			c0.7-1.2,0.7-3.9-1.1-5.7c-3-2.8-8.1-1.9-11.7-1.5c0.3,0.9,0.5,1.9,0.8,2.8c4.3-3.1,16.3-1.3,13.3-10.6c-1.6-5.1-6.6-8.2-12.6-6.5
			c-2.6,0.8-4,2-6.4,2.4c-3.9,0.6-6.4,3.5-7.9,7c-3.2,7.3-3.1,14.9,1,21.8c0.2-0.7,0.4-1.4,0.5-2.1c0,0,0,0,0,0
			c-0.7,0.4-0.9,1.4-0.5,2.1c2.9,4.7,7.1,6.8,12.4,8.1c-0.4-0.5-0.7-1-1.1-1.4c0,0,0,0,0,0c0,0.6,0.5,1.3,1.1,1.4
			c5.8,1.3,14.5-0.3,13.9-7.9c-0.2-1.9-3.2-1.9-3,0c0.4,5.5-6.2,5.9-10.1,5c0.4,0.5,0.7,1,1.1,1.4c0,0,0,0,0,0
			c0-0.6-0.5-1.3-1.1-1.4c-4.4-1.1-8.2-2.7-10.6-6.7c-0.2,0.7-0.4,1.4-0.5,2.1c0,0,0,0,0,0c0.7-0.4,0.9-1.4,0.5-2.1
			c-2.8-4.7-3.3-9-2.3-14.3c0.7-3.6,2.3-8.7,6.3-9.8c1-0.3,1.9-0.1,2.9-0.4c4.2-1.4,9.5-4.7,12.6,0.4c1.3,2.2,2.1,4.7-1.1,6.3
			c-1.4,0.7-3.4,0.2-4.9,0.4c-2,0.3-3.4,1.2-5,2.3c-1.1,0.8-0.9,3,0.8,2.8c2.2-0.2,5.9-0.9,7.9-0.2c2.7,1,3.1,2.7,0.9,4
			c-2.9,1.7-7.2,1.4-10.4,1c-1.2-0.2-2,0.6-1.8,1.8c0.4,2.9,2.4,5.5,5.5,4.6c2-0.6,3.9-2.9,6.3-2.1c2.4,0.8,2.5,3.1,3.1,5.2
			C411.2,60.8,414.1,60,413.5,58.1z"/>
	</g>
</g>
<g>
	<path class="st0" d="M380.4,56.4c-0.1-0.7-0.2-1.4-0.3-2.1c-0.2-0.8-0.4-1.6-0.7-2.3c-0.2-0.7-0.5-1.3-0.8-1.9
		c-0.3-0.7-0.7-1.3-1.1-1.9c-0.2-0.3-0.4-0.5-0.6-0.8c-0.1-0.2-0.1-0.4-0.2-0.7c-0.2-0.6-0.6-1.1-1-1.6c-0.4-0.6-1-1-1.6-1.5
		c-0.4-0.3-0.7-0.5-1.1-0.8c-0.4-0.3-0.9-0.5-1.4-0.7c0.9-0.6,1.8-1.5,2.2-2.5c0.1-0.3,0.2-0.5,0.2-0.7c0.1-0.3,0.1-0.6,0.1-0.8
		c0,0,0,0,0,0c0.1-0.2,0.3-0.4,0.4-0.6c0.1-0.1,0.2-0.2,0.3-0.3c0.2-0.2,0.4-0.4,0.6-0.7c0.2-0.2,0.3-0.5,0.5-0.7
		c0.2-0.4,0.3-0.7,0.5-1.1c0,0,0,0,0-0.1c0,0,0,0,0,0c0.2-0.4,0.5-0.7,0.6-1.1c0.1-0.3,0.2-0.6,0.3-0.9c0.1-0.3,0.1-0.6,0.1-0.9
		c0-0.4,0-0.8-0.1-1.2c0-0.1-0.1-0.2-0.1-0.4c0,0,0,0,0,0c0,0,0-0.1,0-0.1c0,0,0,0,0,0c0-0.2-0.1-0.4-0.2-0.6
		c-0.2-0.3-0.3-0.6-0.5-0.8c0,0,0,0,0,0c0,0,0,0,0,0c-0.3-0.4-0.7-0.7-1.1-0.9c-0.4-0.3-0.9-0.4-1.5-0.5c-0.4-0.1-0.7,0-1.1,0
		c-0.3,0-0.5,0.1-0.8,0.1c-0.4,0.1-0.8,0.2-1.2,0.3c-0.4,0.2-0.9,0.4-1.3,0.6c-0.7,0.4-1.3,0.8-1.9,1.3c-0.2,0.2-0.5,0.4-0.7,0.6
		c-0.4,0.4-0.7,0.8-1.1,1.2c-0.3,0.4-0.6,0.8-0.9,1.2c-0.4,0.4-0.8,0.9-1.1,1.4c-0.1,0.1-0.1,0.1-0.2,0.2c-0.2,0.2-0.3,0.3-0.5,0.5
		c-0.3,0.3-0.7,0.7-1,1c0-3.2-0.2-6.4-0.8-9.5c0-0.2-0.1-0.3-0.2-0.4c0,0,0,0,0-0.1c0.2-0.7,0.1-1.5,0-2.2c-0.1-0.9-0.5-1.8-0.9-2.6
		c-0.5-0.9-1.1-1.7-1.7-2.5c-0.3-0.4-0.7-0.7-1-1.1c-0.4-0.4-0.9-0.7-1.3-1c-0.7-0.5-1.6-0.8-2.5-1c-0.7-0.2-1.5-0.2-2.2-0.1
		c-0.4,0-0.7,0.1-1.1,0.2c-0.4,0.1-0.7,0.2-1.1,0.4c-0.6,0.3-1.1,0.6-1.6,1.1c-0.5,0.4-0.9,1-1.3,1.5c-0.3,0.5-0.6,1.1-0.9,1.6
		c-0.3,0.7-0.5,1.3-0.7,2c-0.4,1.3-0.6,2.7-0.7,4.1c-0.1,1.3-0.2,2.5-0.1,3.8c0,0.4,0.1,0.8,0.1,1.2c0,1.2,0,2.5,0.1,3.7
		c0.1,3.1,0.5,6.1,0.8,9.2c0.1,0.6,0.1,1.2,0.2,1.9c0,1.7,0.1,3.4,0.3,5.2c0,0.2,0,0.3,0,0.5c-0.1,1.9-0.4,3.7-0.3,5.6
		c0,0.9,0.2,1.8,0.5,2.7c0.1,0.2,0.1,0.3,0.2,0.5c0.3,0.7,0.7,1.3,1.2,1.8c0.3,0.3,0.7,0.6,1.1,0.8c0.4,0.3,0.9,0.5,1.4,0.7
		c0.9,0.4,1.9,0.6,2.9,0.6c0.1,0,0.2,0,0.2,0c0.3,0,0.6,0,0.9-0.1c0,0,0,0,0,0c0.2,0.1,0.5,0.1,0.7,0.1c0,0,0,0,0,0
		c0.2,0,0.5,0,0.7-0.1c0.1,0,0.3-0.1,0.4-0.1c0.2,0,0.3-0.1,0.5-0.2c0.3-0.1,0.6-0.2,0.9-0.4c0.4-0.2,0.7-0.4,1-0.6
		c0.5-0.3,0.9-0.7,1.3-1.1c0.2-0.2,0.3-0.4,0.5-0.5c0.2-0.2,0.3-0.4,0.5-0.7c0.1-0.2,0.2-0.4,0.3-0.5c0.4-0.6,0.8-1.1,1.2-1.7
		c0.6-0.8,1.1-1.7,1.6-2.6c0.2-0.1,0.3-0.1,0.5-0.2c0.3-0.1,0.6-0.1,0.9-0.2c0.3,0,0.6,0,0.9,0.1c0.3,0.1,0.5,0.2,0.8,0.3
		c0.2,0.1,0.5,0.3,0.7,0.5c0.2,0.2,0.4,0.4,0.6,0.6c0.1,0.2,0.2,0.4,0.3,0.6c0,0.1,0.1,0.3,0.1,0.4c0,0.4,0,0.8-0.1,1.1
		c-0.1,0.5-0.2,1-0.2,1.6c0,1.1,0.6,2.2,1.7,2.6c0,0,0.1,0,0.1,0c0.2,0.5,0.5,0.9,0.9,1.3c0.6,0.5,1.2,1,1.9,1.1
		c0.4,0.1,0.8,0.2,1.2,0.2c0.5,0,1-0.1,1.5-0.2c0.5-0.1,1-0.3,1.4-0.5c0.3-0.1,0.5-0.2,0.7-0.4c0.4-0.2,0.7-0.4,1-0.7
		c0.3-0.3,0.6-0.7,0.9-1c0.2-0.3,0.4-0.7,0.6-1.1c0.1-0.2,0.2-0.5,0.3-0.8c0.2-0.7,0.4-1.5,0.4-2.3C380.5,58,380.5,57.2,380.4,56.4z
		"/>
	<g>
		<path class="st1" d="M381.9,56.4c-0.7-6.2-3.9-12.5-9.5-15.5c0,0.9,0,1.7,0,2.6c1.6-1.2,2.3-2.3,3.1-4.1c0.6-1.1,1-1.7,1.8-3.1
			c0.9-1.5,1.9-4.9,1.3-6.6c-1-2.7-3.4-4.2-6.3-3.9c-5.2,0.5-8,5.5-11.2,8.9c0.9,0.4,1.7,0.7,2.6,1.1c0-3.4-0.5-6.7-0.9-10.1
			c0-0.1,0.1,0.9,0-0.5c-0.1-1.2,0-2.2-0.4-3.4c-1.4-4.3-5.5-8.2-10.2-8.2c-11.5,0.1-9.6,17.6-9,24.7c0.3,3.9,0.9,7.8,1,11.7
			c0.1,2.9-0.7,5.9-0.1,8.8c0.8,4.3,4.4,6.7,8.7,6.9c2.7,0.2,4.9-0.5,6.9-2.3c1.4-1.2,2.4-2.8,3.4-4.3c1-1.6,2.1-3.3,3.4-0.2
			c0.4,0.9-0.3,2.3,0.2,3.4c0.6,1.2,2.3,2.8,3.2,3.5c1.6,1.2,3.4,1.6,5.5,1.2C380.5,66,382.2,61.1,381.9,56.4c-0.1-1.9-3.1-1.9-3,0
			c0.2,3.8-2,9.6-6.7,6.8c-2.5-1.5-2.2-1.9-2.8-4.9c-0.4-2.1-1-3.8-3.4-4.4c-6.2-1.4-6.3,9.5-13.2,8.8c-8.3-0.8-5.5-9.5-5.9-15.2
			c-0.4-6.2-1.1-12.4-1.3-18.6c-0.2-5.6,3-17,10.8-10.5c4.2,3.5,4.1,12.5,4.1,17.4c0,1.3,1.7,2,2.6,1.1c1.9-2,10.4-12.9,12.6-6.2
			c0.6,1.8-1.1,4-2,5.5c-0.7,1.1-2.2,4.1-2.9,4.7c-0.8,0.6-1.1,2,0,2.6c4.5,2.4,7.4,7.9,8,12.9C379.2,58.3,382.2,58.4,381.9,56.4z"
			/>
	</g>
</g>
<g>
	<path class="st0" d="M461.9,44.9c0.2-0.7,0.2-1.5,0.3-2.2c0-0.7-0.1-1.5-0.2-2.2c0,0,0-0.1,0-0.1c0.2-1.8,0.2-3.6-0.2-5.4
		c-0.2-0.9-0.5-1.8-0.9-2.7c-0.5-1-1.2-2-2.2-2.7c-0.3-0.2-0.5-0.4-0.8-0.5c-0.3-0.1-0.6-0.3-0.9-0.4c-0.3-0.1-0.6-0.1-0.8-0.2
		c-0.4-0.1-0.9-0.1-1.3-0.1c0,0-0.1,0-0.1,0c-0.7,0-1.4,0.1-2.1,0.2c0,0,0,0-0.1,0c-0.1,0-0.1,0-0.2,0c-0.5,0-0.9,0.1-1.3,0.3
		c0,0-0.1,0-0.1,0c-0.4,0.1-0.7,0.2-1,0.4c-0.1,0-0.2,0.1-0.3,0.2c-0.1,0.1-0.3,0.2-0.4,0.3c-0.2,0.2-0.4,0.5-0.4,0.8
		c0,0.1,0,0.1,0,0.2c-0.2,0.1-0.3,0.2-0.4,0.3c-0.7,0.9-1.2,1.9-1.5,3c-0.2,0.6-0.2,1.2-0.3,1.8c0,0.4-0.1,0.9,0,1.3
		c0,0.5,0,0.9,0,1.4c0,0,0,0,0,0c-0.2,1.2-0.3,2.3-0.3,3.5c0,0.2,0,0.3,0,0.5c0,0.6,0.1,1.3,0.3,1.9c0,0.2,0,0.4-0.1,0.6
		c-0.1,0.4-0.2,0.8-0.4,1.2c0,0,0,0,0,0c0,0.1-0.1,0.1-0.1,0.2c0,0,0,0.1,0,0.1c0,0.1,0,0.2,0,0.3c0,0.3-0.1,0.6-0.1,0.9
		c-0.1,0.2-0.1,0.4-0.2,0.6c-0.1,0.3-0.3,0.5-0.5,0.7c-0.2,0.2-0.4,0.4-0.6,0.6c-0.2,0.2-0.5,0.3-0.8,0.5c-0.5,0.3-1,0.4-1.6,0.6
		c-0.3,0.1-0.5,0.1-0.8,0.1c-0.4,0.1-0.8,0.2-1.3,0.2c-0.8,0-1.6,0-2.3-0.2c-0.4-0.1-0.9-0.2-1.3-0.4c-0.2-0.1-0.5-0.2-0.7-0.3
		c-0.2-0.1-0.4-0.1-0.6-0.2c-0.6-0.3-1.2-0.6-1.7-1c-0.3-0.2-0.5-0.5-0.7-0.7c-0.3-0.4-0.5-0.8-0.6-1.2c-0.2-0.5-0.3-1.1-0.4-1.6
		c0,0,0-0.1,0-0.1c0.2-0.5,0.3-1.1,0.3-1.6c0,0,0,0,0-0.1c0.2-0.6,0.4-1.2,0.5-1.9c0-0.2,0.1-0.3,0.1-0.5c0.3-2.1,0.3-4.2-0.1-6.2
		c-0.2-0.9-0.5-1.8-0.9-2.7c-0.5-1-1.2-2-2.2-2.7c-0.3-0.2-0.5-0.4-0.8-0.5c-0.3-0.1-0.6-0.3-0.9-0.4c-0.3-0.1-0.6-0.1-0.8-0.2
		c-0.4-0.1-0.8-0.1-1.2-0.1c0,0,0,0-0.1,0c0,0-0.1,0-0.1,0c-0.7,0-1.4,0.1-2.1,0.2c0,0,0,0-0.1,0c-0.1,0-0.1,0-0.2,0
		c-0.5,0-0.9,0.1-1.3,0.3c0,0-0.1,0-0.1,0c-0.4,0.1-0.7,0.2-1,0.4c-0.3,0.1-0.5,0.3-0.7,0.5c-0.2,0.2-0.4,0.5-0.4,0.8
		c0,0.1,0,0.1,0,0.2c-0.2,0.1-0.3,0.2-0.4,0.3c-0.7,0.9-1.2,1.9-1.5,3c-0.2,0.6-0.2,1.2-0.3,1.8c0,0.4-0.1,0.9,0,1.3
		c0,0.5,0,0.9,0,1.4c0,0,0,0,0,0c-0.2,1.3-0.4,2.6-0.3,4c0.1,1,0.3,2.1,0.7,3c0.1,0.5,0.1,0.9,0.2,1.4c0.1,0.6,0.3,1.3,0.4,1.9
		c0.4,1.2,0.9,2.4,1.5,3.6c0.3,0.5,0.6,1,0.9,1.5c0.1,0.2,0.2,0.3,0.4,0.5c0.1,0.2,0.1,0.5,0.2,0.7c0.4,1,0.9,1.9,1.6,2.7
		c1.4,1.7,3.4,2.9,5.5,3.7c0.2,0.1,0.3,0.1,0.5,0.2c0,0,0,0,0,0c0.3,0.3,0.6,0.5,0.9,0.8c0.4,0.2,0.8,0.4,1.2,0.5
		c0.9,0.3,1.8,0.4,2.8,0.5c0.4,0,0.9,0,1.3,0c1.2,0.2,2.5,0.2,3.7,0.2c0.6,0.1,1.1,0.1,1.7,0.1c1.3,0.1,2.6,0,4-0.1c0,0,0,0.1,0,0.1
		c-0.1,0.8-0.1,1.5-0.1,2.3c0,0,0,0,0,0c-0.2,1.3-0.3,2.5-0.4,3.8c-0.1,1-0.1,1.9-0.1,2.9c0,0.1,0,0.1,0,0.2
		c-0.1,0.1-0.1,0.2-0.2,0.3c-0.2,0.2-0.4,0.4-0.6,0.6c-0.2,0.2-0.5,0.3-0.8,0.5c-0.2,0.1-0.4,0.1-0.6,0.2c-0.2,0-0.4,0-0.6,0
		c-0.1,0-0.2-0.1-0.4-0.1c-0.1-0.2-0.2-0.3-0.4-0.4c-0.4-0.4-0.8-0.6-1.3-0.8c-0.1,0-0.2-0.1-0.3-0.1c-0.4-0.1-0.8-0.1-1.2-0.1
		c0,0,0,0,0,0c-0.1-0.1-0.2-0.1-0.3-0.2c-0.5-0.4-1.1-0.6-1.7-0.8c-0.6-0.2-1.3-0.3-2-0.4c-0.5,0-0.9,0-1.4,0
		c-0.7,0.1-1.4,0.2-2,0.4c-1.3,0.5-2.5,1.2-3.4,2.2c-1,1.1-1.7,2.5-2.1,4c-0.1,0.4-0.1,0.9-0.2,1.3c0,0.3,0,0.5,0,0.8
		c0,0.4,0.1,0.8,0.2,1.3c0.1,0.3,0.1,0.6,0.2,0.9c0.4,1.3,1.2,2.5,2.2,3.4c0.4,0.4,0.8,0.7,1.3,1c0.2,0.4,0.4,0.7,0.6,1
		c0.2,0.3,0.4,0.6,0.7,0.8c0.2,0.3,0.5,0.5,0.8,0.7c0.7,0.6,1.5,1,2.4,1.4c0.5,0.2,1,0.4,1.5,0.5c0.6,0.1,1.1,0.2,1.7,0.3
		c0.8,0.1,1.6,0.1,2.3,0c0.8-0.1,1.5-0.2,2.2-0.4c0.2,0,0.4,0.1,0.7,0.1c0.5,0.1,1.1,0.1,1.6,0.1c0.6,0,1.1-0.1,1.7-0.3
		c1.1-0.2,2.1-0.7,3.1-1.2c1-0.5,1.9-1.2,2.8-1.9c0.2,0,0.4-0.1,0.5-0.3c0.5-0.1,0.9-0.2,1.4-0.4c1-0.5,2-1.3,2.9-2.2
		c0.8-0.9,1.5-2.1,2.1-3.3c0.1-0.2,0.2-0.4,0.2-0.6c0.9-1.8,1.5-3.9,1.6-6c0,0,0-0.1,0-0.1c0.1-0.2,0.1-0.5,0.2-0.7
		c0.5-1.7,0.9-3.4,1-5.2c0-0.3,0-0.7,0-1c0.2-0.9,0.3-1.7,0.5-2.6c0.5-3.5,0.6-6.9,0.4-10.4c-0.1-0.8-0.2-1.6-0.3-2.4c0,0,0,0,0,0
		c0.3-1.1,0.5-2.3,0.5-3.4c0-0.1,0-0.2,0-0.3c0.1-0.3,0.2-0.7,0.2-1c0-0.1,0-0.2,0-0.3c0-0.1-0.1-0.1-0.2-0.2c0-0.1,0-0.2,0-0.3
		c0.1-0.5,0.1-0.9,0.2-1.4C461.7,45.6,461.8,45.3,461.9,44.9z"/>
	<g>
		<path class="st1" d="M463.4,45.3c1.5-8.6-0.8-20.7-12-18c-3.5,0.9-5.4,3.8-6.1,7.3c-0.5,2.5-0.6,5.5-0.5,7.9
			c0,1.3,0.4,3.6-0.3,4.8c-1.3,2.3-4.5,2.3-6.6,1.9c-2.5-0.6-4-2.3-4.2-5.1c-0.2-2.6,1-5.1,0.7-7.9c-0.6-4.9-3.3-9.1-8.6-9.2
			c-8.9-0.1-11.3,9.1-9.9,16.8c1.1,6.1,3.6,14,9.1,17.6c5.6,3.7,12.2,4.5,19.7,4c-0.5-0.5-1-1-1.5-1.5c-0.1,1.7,0.2,8.3-0.7,9
			c-0.6,0.5-3.9-0.9-4.8-1.2c1.4,0.5-1.5-0.9-1.5-0.9c-0.7-0.2-1.6-0.4-2.4-0.4c-2.3-0.1-4.7,0.6-6.6,2c-9.4,7.1-0.1,20.8,9.5,21.1
			c10.8,0.3,21.7-4.8,23.9-16.2c1.3-6.6,2.5-13.4,2.3-20.2C462.7,53.2,462.4,48.6,463.4,45.3c0.5-1.9-2.4-2.7-2.9-0.8
			c-0.4,1.5-0.3,2.6-0.4,4c0,0.7-0.6,2.7-0.6,4c-0.2,5.3,0.1,10.2-0.6,15.6c-0.6,5.1-1,12.2-4.7,16.1c-1.4,1.5-4,2.6-5.8,3.7
			c-2.9,1.8-6,2.2-9.2,2.3c-4.4,0.1-6.7-0.5-9.5-4c-2.4-3-5-5.8-2.3-9.8c3.9-5.9,8.3-1.8,12.8-0.6c6.8,1.8,5.8-8,6.1-12
			c0-0.8-0.7-1.5-1.5-1.5c-8.6,0.5-17.2-0.5-21.9-8.3c-3.3-5.4-5.5-13.1-3.5-19.5c2-6.6,10.6-5.9,12,0.9c1.1,4.9-3.1,10.8,1.5,14.7
			c3,2.6,8.4,3.3,11.9,1.3c2.6-1.4,3.2-4.4,3.4-6.1c0.4-4.6-1.6-12.6,3.8-15c8.3-3.7,9.6,8.7,8.7,14.3
			C460.2,46.4,463.1,47.2,463.4,45.3z"/>
	</g>
</g>
<g>
	<path class="st0" d="M190.7,52.3c-0.3-0.9-0.6-1.7-1.1-2.4c0-0.1-0.1-0.2-0.1-0.2c-0.4-0.7-0.8-1.4-1.4-2c-0.1-0.1-0.2-0.3-0.3-0.4
		c-0.4-0.4-0.9-0.8-1.5-1c0,0-0.1,0-0.1-0.1c-0.4-0.3-0.9-0.4-1.2-0.5c-0.4-0.1-0.8-0.2-1.2-0.3c-0.8-0.2-1.6-0.2-2.6-0.2l0,0
		c-0.9-0.1-1.7-0.2-2.4-0.2c-0.2,0-0.3,0-0.5,0c-0.7,0-1.4,0-2,0.1c0,0,0,0-0.1,0c0,0-0.1,0.1-0.1,0.1c0,0-0.1,0.1-0.1,0.1
		c0,0-0.1,0-0.1,0.1c0,0-0.1,0-0.2,0c0,0-0.1,0-0.1,0c-0.1,0-0.1,0-0.2,0c0,0-0.1,0-0.1,0c0,0-0.1,0-0.1,0c0,0,0,0-0.1,0
		c-0.1,0-0.1,0-0.2,0c-0.1,0-0.2-0.1-0.2-0.1c0,0,0,0,0,0c0,0,0,0,0-0.1c0,0,0,0,0-0.1c0,0,0,0,0-0.1c-0.1,0-0.1,0-0.2,0
		c-0.1-0.1-0.2-0.2-0.1-0.3c0,0,0,0,0-0.1c0,0,0-0.1,0.1-0.1c0,0,0,0,0,0c0,0,0,0,0-0.1c0,0,0,0,0,0c0,0,0,0,0-0.1c0,0,0,0,0-0.1
		c0,0,0-0.1,0.1-0.1c0,0,0,0,0,0c0,0,0,0,0,0c0,0,0-0.1,0-0.1c0,0,0-0.1,0-0.1c0,0,0-0.1,0.1-0.1c0,0,0.1-0.1,0.1-0.1c0,0,0,0,0.1,0
		c0,0,0,0,0,0c0,0,0,0,0,0c0,0,0,0,0,0c0,0,0.1,0,0.1-0.1c0.1,0,0.1,0,0.2-0.1c0,0,0,0,0,0c0,0,0,0,0,0c0,0,0,0,0,0c0,0,0,0,0,0
		c0.4-0.2,0.8-0.4,1.2-0.5c0.5-0.1,1-0.2,1.5-0.2c0.4,0,0.7,0.1,1.2,0.1l0,0l0.1,0c0.1,0,0.1,0,0.2,0c0.4,0.1,0.7,0.1,1.1,0.2
		l0.6,0.1c0.6,0.1,1.3,0.2,2,0.3c0.3,0,0.7,0,1,0c0.5,0,0.9,0,1.4-0.1c0.2,0,0.4,0,0.6,0c0.1,0,0.2,0,0.4,0c0.2,0,0.4-0.1,0.7-0.1
		c0.3-0.1,0.6-0.2,0.8-0.3c0.3-0.1,0.5-0.3,0.7-0.4c0.2-0.1,0.4-0.3,0.6-0.5c0.2-0.2,0.4-0.4,0.5-0.6c0,0,0.1-0.1,0.1-0.1
		c0.3-0.3,0.5-0.6,0.7-1c0.1-0.2,0.1-0.4,0.2-0.5l0-0.1c0-0.1,0.1-0.2,0.1-0.4c0-0.2,0.1-0.4,0.1-0.6c0-0.2,0-0.5,0-0.6l0-0.1
		c0-0.3-0.1-0.5-0.2-0.7c-0.1-0.3-0.2-0.6-0.3-0.8c-0.1-0.2-0.2-0.4-0.3-0.6c0-0.2-0.1-0.3-0.2-0.5c-0.2-0.2-0.4-0.4-0.5-0.6
		c-0.1-0.1-0.2-0.1-0.3-0.2l0,0l0,0c-0.1-0.1-0.1-0.1-0.2-0.1c0,0-0.1,0-0.1-0.1c0,0-0.1,0-0.1-0.1c0,0,0,0,0,0l0,0l0,0
		c-0.1-0.2-0.2-0.3-0.3-0.4c-0.3-0.3-0.7-0.5-1.1-0.7c-0.5-0.2-1.1-0.5-1.7-0.7c-0.3-0.1-0.6-0.2-1-0.2c-0.8-0.2-1.7-0.3-2.7-0.3
		c-0.1,0-0.2,0-0.3,0c-0.5,0-1,0-1.5,0.1c-0.1,0-0.1,0-0.2,0c0,0,0,0-0.1,0c0,0-0.1,0-0.2,0c-0.2,0-0.3,0-0.5,0
		c-0.6,0-1.2,0.1-1.9,0.2c-0.8,0.2-1.7,0.4-2.5,0.8c-0.9,0.4-1.7,0.8-2.5,1.3c-0.8,0.5-1.5,1.2-2.1,1.9c-0.4,0.5-0.8,1.1-1.1,1.6
		c-0.4,0.5-0.7,1-1,1.6c-0.3,0.6-0.5,1.2-0.7,1.9c-0.1,0.3-0.2,0.6-0.3,1c-0.2,0.4-0.3,0.9-0.3,1.3c-0.1,0.9-0.1,1.8,0,2.7
		c0,0.3,0,0.6,0,0.9c0,0.3,0,0.5,0,0.8c0,0.1,0,0.1,0,0.2c0,0,0,0.1,0,0.1l0,0.2l0.1,0.4c0.1,0.3,0.2,0.7,0.3,1.1
		c0.1,0.3,0.2,0.6,0.4,0.8c0,0,0,0,0,0.1c0,0,0,0.1,0,0.1c0.1,0.1,0.1,0.2,0.2,0.3c0,0,0,0.1,0.1,0.1c0.1,0.1,0.2,0.3,0.4,0.4
		c0,0,0,0,0.1,0.1c0,0,0.1,0.1,0.1,0.1l0.4-0.3l0,0l-0.3,0.3c0.1,0.1,0.2,0.2,0.3,0.3l0,0l0,0c0,0,0,0,0,0c0.1,0.1,0.2,0.1,0.2,0.2
		c0,0,0,0,0,0l0.1,0l0.1,0.1l0.1,0.1c0,0,0,0,0.1,0l0.1,0.1c0,0,0,0,0,0c0.1,0.1,0.3,0.2,0.4,0.3c0,0,0,0,0.1,0c0,0,0,0,0.1,0l0.1,0
		c0.2,0.1,0.4,0.2,0.5,0.2c0.1,0,0.2,0.1,0.3,0.1c0,0,0.1,0,0.1,0l0.1,0c0,0,0.1,0,0.1,0l0.2,0.1c0,0,0.1,0,0.1,0l0.2,0.1l0.1,0
		l0.2-0.5c0,0,0,0,0,0l-0.1,0.5c0,0,0,0,0.1,0c0.1,0,0.2,0.1,0.3,0.1l0.1,0l0.2,0.1l0.1,0l0.1,0l0.2,0c0,0,0.1,0,0.1,0
		c0,0,0.1,0,0.1,0l0.1,0l0,0l0.1,0l0.2,0l0.1,0c0.2,0,0.4,0.1,0.5,0.1c0.1,0,0.3,0,0.4,0c0,0,0,0,0.1,0c0.4,0,0.7,0.1,1.1,0.1
		c0,0,0.1,0,0.1,0c0,0,0.1,0,0.1,0c0.2,0,0.4-0.1,0.7-0.1c0,0,0.1,0,0.1,0l0.1,0c0,0,0.1,0,0.1,0c0,0,0.1,0,0.1,0
		c0.1,0,0.2-0.1,0.3-0.1c0,0,0,0,0,0c0,0,0.1,0,0.1,0c0,0,0,0,0.1,0c0,0,0.1,0,0.1,0c0,0,0.1,0,0.1,0c0,0,0,0,0.1,0
		c0.1,0,0.2,0,0.2,0l0.1,0c0.3,0,0.5-0.1,0.7-0.1c0,0,0,0,0,0h0c0,0,0.1,0,0.1,0c0.3,0,0.6-0.1,1-0.2l0.2,0c0.8,0.1,1.4,0.3,1.9,0.5
		c0.4,0.2,0.7,0.3,1,0.5c0.1,0.1,0.2,0.2,0.3,0.3c0.1,0.1,0.1,0.2,0.1,0.3c0,0,0,0.1,0,0.1c0,0.1,0,0.2-0.1,0.3c0,0.1,0,0.1-0.1,0.2
		c0,0.1-0.1,0.1-0.1,0.2c-0.1,0.1-0.1,0.1-0.2,0.2c0,0-0.1,0-0.1,0c-0.2,0.1-0.4,0.2-0.5,0.2l-0.1,0.1c0,0-0.1,0-0.1,0.1
		c-0.2,0-0.4,0.1-0.6,0.1l-0.1,0c-0.5,0-1-0.2-1.5-0.3c-0.2-0.1-0.5-0.1-0.7-0.2c-0.4-0.1-0.7-0.2-1.1-0.3c-0.3-0.1-0.6-0.1-1-0.2
		c-0.4-0.1-0.8-0.1-1.1-0.1c-0.4,0-0.8,0-1.2,0.1c-0.1,0-0.2,0.1-0.3,0.1c-0.2,0-0.3,0-0.5,0c-0.1,0-0.3,0-0.4,0
		c-1,0-1.8,0.1-2.6,0.4c-1.2,0.3-2.1,0.8-2.8,1.4c-0.9,0.8-1.6,2-1.7,3.2c0,0.4-0.1,0.7-0.1,1c0,0.3,0.1,0.7,0.1,1.1
		c0,0.1,0,0.2,0.1,0.3c0,0.1,0,0.1,0.1,0.2c0,0,0,0,0,0c0,0,0,0,0,0.1c0,0,0,0,0,0.1c0,0.1,0.1,0.2,0.2,0.3l0.1,0.1l0,0.1
		c0.1,0.1,0.1,0.1,0.2,0.2l0.2,0.3c0.1,0.1,0.2,0.2,0.3,0.4c0.2,0.3,0.6,0.7,1,1.1c0,0,0,0,0.1,0c0.1,0.1,0.2,0.1,0.3,0.2
		c0.1,0.1,0.2,0.1,0.3,0.2c0,0,0,0,0,0c0,0,0.1,0,0.1,0.1l0.3-0.4c0,0,0,0,0,0l-0.2,0.4l0.1,0c0.1,0,0.1,0.1,0.2,0.1l0.1,0
		c0.2,0.1,0.4,0.2,0.6,0.2l0.3,0.1l0.1,0l0.1,0l0.1,0.1c0,0,0,0,0,0l0.1,0l0.1,0c0.1,0.1,0.3,0.1,0.4,0.2c0.1,0,0.1,0,0.2,0
		c0.3,0.1,0.7,0.1,1,0.1c0,0,0.1,0,0.1,0c0.1,0,0.2,0,0.3,0c0.1,0.1,0.2,0.1,0.3,0.1c0.4,0,0.9,0,1.3,0c0.4,0,0.9,0,1.3,0
		c0.4,0,0.8-0.1,1.2-0.1l0,0c0.3,0,0.7,0,1,0c0.3,0,0.6,0,1,0l0.3,0l0.3,0c0.2,0,0.4,0,0.6,0c0.2,0,0.4,0,0.6,0l0.1,0
		c0.3,0,0.6,0,1-0.1c0.1,0,0.3,0,0.4,0c0.6-0.1,1.2-0.2,1.9-0.4c0.6-0.2,1.2-0.4,1.7-0.7c0.6-0.4,1.2-0.8,1.6-1.2
		c0.3-0.3,0.5-0.6,0.7-0.9c0.2-0.3,0.4-0.6,0.6-0.9c0.1-0.2,0.2-0.4,0.3-0.7c0-0.1,0.1-0.1,0.1-0.2c0.2-0.4,0.4-0.8,0.6-1.3
		c0.2-0.4,0.3-0.9,0.4-1.4c0-0.2,0.1-0.4,0.1-0.7c0-0.1,0-0.2,0.1-0.2c0.3-0.8,0.5-1.7,0.6-2.6C191.2,55.1,191.1,53.6,190.7,52.3z"
		/>
	<g>
		<path class="st1" d="M192.2,51.9c-1.9-5.1-4.9-7.8-10.3-8.3c-1.7-0.2-4.5-0.8-6.1-0.1c-1.1,0.5,0.3-0.2,0.3,1.3
			c0-0.7-0.5-1.3-1.1-1.4c-1.5-0.4,1.9,3,0.9,1.4c0,0-0.1-1.2-0.1-1.2c-0.2,0.9,0.3,1.5-0.1,1.3c-0.3-0.1,0.6,0,0.1,0
			c-0.3,0,1.6-0.6,1.8-0.6c1.8-0.2,3.6,0.6,5.4,0.7c3.6,0.2,7.4-0.4,8.9-4.1c1-2.4,0.1-5.8-2.1-7.3c-0.4,0.9-0.8,1.8-1.2,2.7
			c0,0,0,0,0,0c1.4,0.5,2.5-1.5,1.5-2.5c-0.7-0.6-0.5-0.6-0.2,0c-0.2,0.7-0.4,1.4-0.5,2.1c0,0,0,0,0,0c1.6-1.1,0.2-3.4-1.5-2.6
			c0,0,0,0,0,0c0.7,0.2,1.4,0.4,2.1,0.5c-4.8-6.4-17.7-2.6-21.7,2.8c-3.1,4.3-5,12.4-0.8,16.7c0.6,0.6,1.5,0.5,2.1,0
			c0.1-0.1,0.2-0.2,0.4-0.3c-0.7,0-1.4,0-2.1,0c0,0,0,0,0,0c0-0.7,0-1.4,0-2.1c-0.1,0.1-0.2,0.2-0.3,0.3c-0.6,0.6-0.6,1.6,0,2.1
			c0.1,0.1,0.2,0.2,0.3,0.3c0.6,0.6,1.5,0.6,2.1,0c0,0,0,0,0,0c-0.7,0-1.4,0-2.1,0c0.8,0.8,2,1.5,3.5,1.9c0.8,0.2,1.6-0.3,1.8-1
			c0.1-0.2,0.1-0.3,0.2-0.5c-0.6,0.3-1.2,0.7-1.8,1c0,0,0,0,0,0c-0.3-0.6-0.7-1.2-1-1.8c0,0.2-0.1,0.3-0.1,0.5
			c-0.2,0.8,0.3,1.6,1,1.8c1.8,0.5,3.7,0.7,5.6,0.5c0.5,0,0.9-0.3,1.4-0.3c0.5,0,1.1,0,1.6-0.1c0.6-0.1,2.2,0,2.1-0.3
			c0,0-0.8,0.3-0.8,0.3c-5-2-15.1-1.7-16.3,5.2c-0.5,3,1,6,3.7,7.4c0.7,0.4,1.6,0.2,2.1-0.5c0.1-0.1,0.2-0.3,0.3-0.4
			c-0.7,0.2-1.4,0.4-2.1,0.5c0,0,0,0,0,0c-0.2-0.7-0.4-1.4-0.5-2.1c-0.1,0.1-0.1,0.3-0.2,0.4c-0.4,0.7-0.2,1.7,0.5,2.1
			c3.8,2,7.6,1.3,11.8,1.1C189.5,69.1,194.1,60.6,192.2,51.9c-0.4-1.9-3.3-1.1-2.9,0.8c0.9,3.9-0.3,10.4-4.1,12.7
			c-2.3,1.3-5,1-7.5,1.1c-2.6,0.1-5.2,0.5-7.6-0.7c0.2,0.7,0.4,1.4,0.5,2.1c0.1-0.1,0.1-0.3,0.2-0.4c0.4-0.7,0.2-1.7-0.5-2.1
			c0,0,0,0,0,0c-0.7-0.4-1.6-0.2-2.1,0.5c-0.1,0.1-0.2,0.3-0.3,0.4c0.7-0.2,1.4-0.4,2.1-0.5c-0.8-0.4-2.1-2.1-2.1-2.2
			c-2.3-6.2,7.4-6,10.6-5.3c2,0.4,8.1,0.4,5.7-3.5c-2.1-3.4-8.6-1-12-1.9c0.3,0.6,0.7,1.2,1,1.8c0-0.2,0.1-0.3,0.1-0.5
			c0.2-0.8-0.3-1.6-1-1.8c0,0,0,0,0,0c-0.8-0.2-1.6,0.3-1.8,1c-0.1,0.2-0.1,0.3-0.2,0.5c0.6-0.3,1.2-0.7,1.8-1
			c-0.3-0.1-1.1-0.2-1.3-0.5c-0.6-0.8-0.4-0.2-0.9-0.7c-0.6-0.6-1.5-0.6-2.1,0c0,0,0,0,0,0c0.7,0,1.4,0,2.1,0
			c-0.1-0.1-0.2-0.2-0.3-0.3c0,0.7,0,1.4,0,2.1c0.1-0.1,0.2-0.2,0.3-0.3c0.6-0.6,0.6-1.5,0-2.1c0,0,0,0,0,0c-0.6-0.6-1.5-0.5-2.1,0
			c-0.1,0.1-0.2,0.2-0.4,0.3c0.7,0,1.4,0,2.1,0c-2.6-2.7-1.3-8.3,0.1-11.1c2-4,5.7-5.9,10-6.3c1.3-0.1,6.3-0.4,7.7,1.5
			c0.5,0.7,1.2,0.9,2.1,0.5c0,0,0,0,0,0c-0.5-0.9-1-1.7-1.5-2.6c0,0,0,0,0,0c-0.7,0.5-0.9,1.3-0.5,2.1c0.1,0.3,0.8,0.7,0.7,0.6
			c0.5-0.8,1-1.7,1.5-2.5c0,0,0,0,0,0c-1.7-0.6-2.5,1.8-1.2,2.7c1.7,1.1,1,3.9-0.2,5c-2,1.7-5.4,0.8-7.8,0.4
			c-1.2-0.2-2.9-0.5-4.5,0.1c-0.4,0.1-2.7,1.3-1.5,0.8c0.5-0.2,0.4-0.6-0.1-0.1c-0.9,0.8-1,0.8-1.2,1.6c0,0,0,1.3,0.2,1.2
			c1.2-0.5-0.5-2.4-0.2-1.1c0.2,1-0.2,2,1.2,2.4c-0.4-0.5-0.7-1-1.1-1.4c0.1,1.9,1.8,1.8,3.1,1.8c1.2,0-0.2-0.2-0.2-0.2
			c1.2-0.2,2.6-0.1,3.9,0c4.8,0.3,7.6,1.6,9.4,6.3C190,54.5,192.9,53.7,192.2,51.9z"/>
	</g>
</g>
<g>
	<path class="st0" d="M150.6,38.7c0-0.1,0-0.1-0.1-0.2c0,0,0,0,0,0c0,0,0,0,0-0.1c0,0,0,0,0-0.1c0-0.1-0.1-0.2-0.2-0.3l-0.1-0.1
		l0-0.1c-0.1-0.1-0.1-0.1-0.2-0.2l-0.2-0.3c-0.1-0.1-0.2-0.2-0.3-0.4c-0.2-0.3-0.6-0.7-1-1.1c0,0,0,0-0.1,0
		c-0.1-0.1-0.2-0.1-0.3-0.2c-0.1-0.1-0.2-0.1-0.3-0.2c0,0,0,0,0,0c0,0-0.1,0-0.1-0.1l-0.3,0.4c0,0,0,0,0,0l0.2-0.4l-0.1,0
		c-0.1,0-0.1-0.1-0.2-0.1l-0.1,0c-0.2-0.1-0.4-0.2-0.6-0.2l-0.3-0.1l-0.1,0l-0.1,0l-0.1-0.1c0,0,0,0,0,0l-0.1,0l-0.1,0
		c-0.1-0.1-0.3-0.1-0.4-0.2c-0.1,0-0.1,0-0.2,0c-0.3-0.1-0.7-0.1-1-0.1c0,0-0.1,0-0.1,0c-0.1,0-0.2,0-0.3,0
		c-0.1-0.1-0.2-0.1-0.3-0.1c-0.4,0-0.9,0-1.3,0c-0.4,0-0.9,0-1.3,0c-0.4,0-0.8,0.1-1.2,0.1l0,0c-0.3,0-0.7,0-1,0c-0.3,0-0.6,0-1,0
		l-0.3,0l-0.3,0c-0.2,0-0.4,0-0.6,0c-0.2,0-0.4,0-0.6,0l-0.1,0c-0.3,0-0.6,0-1,0.1c-0.1,0-0.3,0-0.4,0c-0.6,0.1-1.2,0.2-1.9,0.4
		c-0.6,0.2-1.2,0.4-1.7,0.7c-0.6,0.4-1.2,0.8-1.6,1.2c-0.3,0.3-0.5,0.6-0.7,0.9c-0.2,0.3-0.4,0.6-0.6,0.9c-0.1,0.2-0.2,0.4-0.3,0.7
		c0,0.1-0.1,0.1-0.1,0.2c-0.2,0.4-0.4,0.8-0.6,1.3c-0.2,0.4-0.3,0.9-0.4,1.4c0,0.2-0.1,0.4-0.1,0.7c0,0.1,0,0.2-0.1,0.2
		c-0.3,0.8-0.5,1.7-0.6,2.6c-0.2,1.6-0.1,3,0.3,4.3c0.3,0.9,0.6,1.7,1.1,2.4c0,0.1,0.1,0.2,0.1,0.2c0.4,0.7,0.8,1.4,1.4,2
		c0.1,0.1,0.2,0.3,0.3,0.4c0.4,0.4,0.9,0.8,1.5,1c0,0,0.1,0,0.1,0.1c0.4,0.3,0.9,0.4,1.2,0.5c0.4,0.1,0.8,0.2,1.2,0.3
		c0.8,0.2,1.6,0.2,2.6,0.2l0,0c0.9,0.1,1.7,0.2,2.4,0.2c0.2,0,0.3,0,0.5,0c0.7,0,1.4,0,2-0.1c0,0,0,0,0.1,0c0,0,0.1-0.1,0.1-0.1
		c0,0,0.1-0.1,0.1-0.1c0,0,0.1,0,0.1-0.1c0,0,0.1,0,0.2,0c0,0,0.1,0,0.1,0c0.1,0,0.1,0,0.2,0c0,0,0.1,0,0.1,0c0,0,0.1,0,0.1,0
		c0,0,0,0,0.1,0c0.1,0,0.1,0,0.2,0c0.1,0,0.2,0.1,0.2,0.1c0,0,0,0,0,0c0,0,0,0,0,0.1c0,0,0,0,0,0.1c0,0,0,0,0,0.1c0.1,0,0.1,0,0.2,0
		c0.1,0.1,0.2,0.2,0.1,0.3c0,0,0,0,0,0.1c0,0,0,0.1-0.1,0.1c0,0,0,0,0,0c0,0,0,0,0,0.1c0,0,0,0,0,0c0,0,0,0,0,0.1c0,0,0,0,0,0.1
		c0,0,0,0.1-0.1,0.1c0,0,0,0,0,0c0,0,0,0,0,0c0,0,0,0.1,0,0.1c0,0,0,0.1,0,0.1c0,0,0,0.1-0.1,0.1c0,0-0.1,0.1-0.1,0.1c0,0,0,0-0.1,0
		c0,0,0,0,0,0c0,0,0,0,0,0c0,0,0,0,0,0c0,0-0.1,0-0.1,0.1c-0.1,0-0.1,0-0.2,0.1c0,0,0,0,0,0c0,0,0,0,0,0c0,0,0,0,0,0c0,0,0,0,0,0
		c-0.4,0.2-0.8,0.4-1.2,0.5c-0.5,0.1-1,0.2-1.5,0.2c-0.4,0-0.7-0.1-1.2-0.1l0,0l-0.1,0c-0.1,0-0.1,0-0.2,0c-0.4-0.1-0.7-0.1-1.1-0.2
		l-0.6-0.1c-0.6-0.1-1.3-0.2-2-0.3c-0.3,0-0.7,0-1,0c-0.5,0-0.9,0-1.4,0.1c-0.2,0-0.4,0-0.6,0c-0.1,0-0.2,0-0.4,0
		c-0.2,0-0.4,0.1-0.7,0.1c-0.3,0.1-0.6,0.2-0.8,0.3c-0.3,0.1-0.5,0.3-0.7,0.4c-0.2,0.1-0.4,0.3-0.6,0.5c-0.2,0.2-0.4,0.4-0.5,0.6
		c0,0-0.1,0.1-0.1,0.1c-0.3,0.3-0.5,0.6-0.7,1c-0.1,0.2-0.1,0.4-0.2,0.5l0,0.1c0,0.1-0.1,0.2-0.1,0.4c0,0.2-0.1,0.4-0.1,0.6
		c0,0.2,0,0.5,0,0.6l0,0.1c0,0.3,0.1,0.5,0.2,0.7c0.1,0.3,0.2,0.6,0.2,0.8c0.1,0.2,0.2,0.4,0.3,0.6c0,0.2,0.1,0.3,0.2,0.5
		c0.2,0.2,0.4,0.4,0.5,0.6c0.1,0.1,0.2,0.1,0.3,0.2l0,0l0,0c0.1,0.1,0.1,0.1,0.2,0.1c0,0,0.1,0,0.1,0.1c0,0,0.1,0,0.1,0.1
		c0,0,0,0,0,0l0,0l0,0c0.1,0.2,0.2,0.3,0.3,0.4c0.3,0.3,0.7,0.5,1.1,0.7c0.5,0.2,1.1,0.5,1.7,0.7c0.3,0.1,0.6,0.2,1,0.2
		c0.8,0.2,1.7,0.3,2.7,0.3c0.1,0,0.2,0,0.3,0c0.5,0,1,0,1.5-0.1c0.1,0,0.1,0,0.2,0c0,0,0,0,0.1,0c0,0,0.1,0,0.2,0c0.2,0,0.3,0,0.5,0
		c0.6,0,1.2-0.1,1.9-0.2c0.8-0.2,1.7-0.4,2.5-0.8c0.9-0.4,1.7-0.8,2.5-1.3c0.8-0.5,1.5-1.2,2.1-1.9c0.4-0.5,0.8-1.1,1.1-1.6
		c0.4-0.5,0.7-1,1-1.6c0.3-0.6,0.5-1.2,0.7-1.9c0.1-0.3,0.2-0.6,0.3-1c0.2-0.4,0.3-0.9,0.3-1.3c0.1-0.9,0.1-1.8,0-2.7
		c0-0.3,0-0.6,0-0.9c0-0.3,0-0.5,0-0.8c0-0.1,0-0.1,0-0.2c0,0,0-0.1,0-0.1l0-0.2l-0.1-0.4c-0.1-0.3-0.2-0.7-0.3-1.1
		c-0.1-0.3-0.2-0.6-0.4-0.8c0,0,0,0,0-0.1c0,0,0-0.1,0-0.1c-0.1-0.1-0.1-0.2-0.2-0.3c0,0,0-0.1-0.1-0.1c-0.1-0.1-0.2-0.3-0.4-0.4
		c0,0,0,0-0.1-0.1c0,0-0.1-0.1-0.1-0.1l-0.4,0.3l0,0l0.3-0.3c-0.1-0.1-0.2-0.2-0.3-0.3l0,0l0,0c0,0,0,0,0,0
		c-0.1-0.1-0.2-0.1-0.2-0.2c0,0,0,0,0,0l-0.1,0l-0.1-0.1l-0.1-0.1c0,0,0,0-0.1,0l-0.1-0.1c0,0,0,0,0,0c-0.1-0.1-0.3-0.2-0.4-0.3
		c0,0,0,0-0.1,0c0,0,0,0-0.1,0l-0.1,0c-0.2-0.1-0.4-0.2-0.5-0.2c-0.1,0-0.2-0.1-0.3-0.1c0,0-0.1,0-0.1,0l-0.1,0c0,0-0.1,0-0.1,0
		l-0.2-0.1c0,0-0.1,0-0.1,0l-0.2-0.1l-0.1,0l-0.2,0.4c0,0,0,0,0,0l0.1-0.5c0,0,0,0-0.1,0c-0.1,0-0.2-0.1-0.3-0.1l-0.1,0l-0.2-0.1
		l-0.1,0l-0.1,0l-0.2,0c0,0-0.1,0-0.1,0c0,0-0.1,0-0.1,0l-0.1,0l0,0l-0.1,0l-0.2,0l-0.1,0c-0.2,0-0.4-0.1-0.5-0.1
		c-0.1,0-0.3,0-0.4,0c0,0,0,0-0.1,0c-0.4,0-0.7-0.1-1.1-0.1c0,0-0.1,0-0.1,0c0,0-0.1,0-0.1,0c-0.2,0-0.4,0.1-0.7,0.1
		c0,0-0.1,0-0.1,0l-0.1,0c0,0-0.1,0-0.1,0c0,0-0.1,0-0.1,0c-0.1,0-0.2,0.1-0.3,0.1c0,0,0,0,0,0c0,0-0.1,0-0.1,0c0,0,0,0-0.1,0
		c0,0-0.1,0-0.1,0c0,0-0.1,0-0.1,0c0,0,0,0-0.1,0c-0.1,0-0.2,0-0.2,0l-0.1,0c-0.3,0-0.5,0.1-0.7,0.1c0,0,0,0,0,0h0c0,0-0.1,0-0.1,0
		c-0.3,0-0.6,0.1-1,0.2l-0.2,0c-0.8-0.1-1.4-0.3-1.9-0.5c-0.4-0.2-0.7-0.3-1-0.5c-0.1-0.1-0.2-0.2-0.3-0.3c-0.1-0.1-0.1-0.2-0.1-0.3
		c0,0,0-0.1,0-0.1c0-0.1,0-0.2,0.1-0.3c0-0.1,0-0.1,0.1-0.2c0-0.1,0.1-0.1,0.1-0.2c0.1-0.1,0.1-0.1,0.2-0.2c0,0,0.1,0,0.1,0
		c0.2-0.1,0.4-0.2,0.5-0.2l0.1-0.1c0,0,0.1,0,0.1-0.1c0.2,0,0.4-0.1,0.6-0.1l0.1,0c0.5,0,1,0.2,1.5,0.3c0.2,0.1,0.5,0.1,0.7,0.2
		c0.4,0.1,0.7,0.2,1.1,0.3c0.3,0.1,0.6,0.1,1,0.2c0.4,0.1,0.8,0.1,1.1,0.1c0.4,0,0.8,0,1.2-0.1c0.1,0,0.2-0.1,0.3-0.1
		c0.2,0,0.3,0,0.5,0c0.1,0,0.3,0,0.4,0c1,0,1.8-0.1,2.6-0.4c1.2-0.3,2.1-0.8,2.8-1.4c0.9-0.8,1.6-2,1.7-3.2c0-0.4,0.1-0.7,0.1-1
		c0-0.3-0.1-0.7-0.1-1.1C150.7,38.9,150.7,38.8,150.6,38.7z"/>
	<g>
		<path class="st1" d="M152.1,38.3c-0.6-1.6-2.1-3.4-3.6-4.2c-0.7-0.4-1.6-0.2-2.1,0.5c-0.1,0.1-0.2,0.3-0.3,0.4
			c0.7-0.2,1.4-0.4,2.1-0.5c0,0,0,0,0,0c0.2,0.7,0.4,1.4,0.5,2.1c0.1-0.1,0.1-0.3,0.2-0.4c0.4-0.7,0.2-1.7-0.5-2.1
			c-2.9-1.5-5.4-1.3-8.6-1.2c-5.9,0.2-11,0.5-13.8,6.6c-2.7,5.9-2.4,14.5,3.9,18c2.7,1.5,6.8,1.8,9.8,1.5c0.5-0.1,1.7,0,2.1-0.5
			c-0.4,0.5-0.9-0.5-0.9-1c0,0.7,0.5,1.3,1.1,1.4c1.5,0.4-1.9-3-0.9-1.4c0,0,0.1,1.2,0.1,1.2c0.1-0.7-0.3-1.5,0.1-1.3
			c0.1,0.1-0.7,0.5-1.9,0.6c-1.8,0.2-3.6-0.6-5.4-0.7c-3.6-0.2-7.4,0.4-8.9,4.1c-1,2.4-0.1,5.8,2.1,7.3c0.4-0.9,0.8-1.8,1.2-2.7
			c0,0,0,0,0,0c-1.4-0.5-2.5,1.5-1.5,2.5c0.7,0.6,0.5,0.6,0.2,0c0.2-0.7,0.4-1.4,0.5-2.1c0,0,0,0,0,0c-1.6,1.1-0.2,3.3,1.5,2.6
			c0,0,0,0,0,0c-0.7-0.2-1.4-0.4-2.1-0.5c4.8,6.4,17.7,2.6,21.7-2.8c3.1-4.3,5-12.4,0.8-16.7c-0.6-0.6-1.5-0.5-2.1,0
			c-0.1,0.1-0.2,0.2-0.4,0.3c0.7,0,1.4,0,2.1,0c0,0,0,0,0,0c0,0.7,0,1.4,0,2.1c0.1-0.1,0.2-0.2,0.3-0.3c0.6-0.6,0.6-1.6,0-2.1
			c-0.1-0.1-0.2-0.2-0.3-0.3c-0.6-0.5-1.5-0.6-2.1,0c0,0,0,0,0,0c0.7,0,1.4,0,2.1,0c-0.8-0.8-2-1.5-3.5-1.9c-0.8-0.2-1.6,0.3-1.8,1
			c-0.1,0.1-0.1,0.3-0.2,0.4c0.6-0.3,1.2-0.7,1.8-1c0,0,0,0,0,0c0.3,0.6,0.7,1.2,1,1.8c0-0.2,0.1-0.3,0.1-0.5c0.2-0.8-0.3-1.6-1-1.8
			c-2.5-0.7-4.7-0.5-7.2-0.2c-0.9,0.1-1.6,0.1-2.5,0.1c-1.8,0-0.5-0.2,0-0.1c2.4,0.5,4.5,1.1,7.1,0.9
			C148.4,47.2,153.4,44.6,152.1,38.3c-0.4-1.9-3.3-1.1-2.9,0.8c0.8,3.8-3,5.2-6,5.4c-1.6,0.1-3.1,0-4.7-0.3c-1.6-0.3-3-0.9-4.6,0
			c-3.6,2.1,0,5.1,2.9,5.4c2.8,0.3,5.2-0.8,8.1,0c-0.3-0.6-0.7-1.2-1-1.8c0,0.2-0.1,0.3-0.1,0.5c-0.2,0.8,0.3,1.6,1,1.8c0,0,0,0,0,0
			c0.8,0.2,1.6-0.3,1.8-1c0.1-0.1,0.1-0.3,0.2-0.4c-0.6,0.3-1.2,0.7-1.8,1c0.3,0.1,1.1,0.2,1.3,0.5c0.6,0.8,0.4,0.2,0.9,0.7
			c0.6,0.6,1.5,0.6,2.1,0c0,0,0,0,0,0c-0.7,0-1.4,0-2.1,0c0.1,0.1,0.2,0.2,0.3,0.3c0-0.7,0-1.4,0-2.1c-0.1,0.1-0.2,0.2-0.3,0.3
			c-0.6,0.6-0.6,1.5,0,2.1c0,0,0,0,0,0c0.6,0.6,1.5,0.5,2.1,0c0.1-0.1,0.2-0.2,0.4-0.3c-0.7,0-1.4,0-2.1,0c2.6,2.7,1.3,8.3-0.1,11.1
			c-2,4-5.7,5.9-10,6.3c-1.3,0.1-6.3,0.4-7.7-1.5c-0.5-0.7-1.2-0.9-2.1-0.5c0,0,0,0,0,0c0.5,0.9,1,1.7,1.5,2.6c0,0,0,0,0,0
			c0.7-0.5,0.9-1.3,0.5-2.1c-0.1-0.3-0.8-0.7-0.7-0.6c-0.5,0.8-1,1.7-1.5,2.5c0,0,0,0,0,0c1.7,0.6,2.5-1.8,1.2-2.7
			c-1.7-1.1-1-3.9,0.2-5c2-1.7,5.4-0.8,7.8-0.4c1.2,0.2,2.9,0.5,4.5-0.1c0.4-0.1,2.7-1.3,1.5-0.8c-0.5,0.2-0.4,0.6,0.1,0.1
			c0.9-0.9,1.1-1,1.2-1.6c0.1-0.4,0.1-0.9-0.2-1.2c-0.1-0.2-0.1,2.6,0,1.5c0-0.1,0.3-0.2,0.2-0.4c-0.2-1,0.2-2-1.2-2.4
			c0.4,0.5,0.7,1,1.1,1.4c-0.1-1.8-1.8-1.8-3.1-1.8c-1.5,0,0.9,0,0,0.2c-1.7,0.2-3.3,0.1-4.9-0.1c-4.5-0.4-7.6-2.6-8.3-7.3
			c-0.5-3.6,0.9-9.5,4.3-11.5c2.3-1.3,5-1,7.5-1.1c2.6-0.1,5.2-0.5,7.6,0.7c-0.2-0.7-0.4-1.4-0.5-2.1c-0.1,0.1-0.1,0.3-0.2,0.4
			c-0.4,0.7-0.2,1.7,0.5,2.1c0,0,0,0,0,0c0.7,0.4,1.6,0.2,2.1-0.5c0.1-0.1,0.2-0.3,0.3-0.4c-0.7,0.2-1.4,0.4-2.1,0.5
			c1,0.5,2.1,2,2.2,2.4C149.8,41,152.7,40.2,152.1,38.3z"/>
	</g>
</g>
<g>
	<path class="st0" d="M119.2,51.9c0-0.1-0.1-0.2-0.1-0.2c-0.4-0.7-0.8-1.4-1.4-2c-0.1-0.1-0.2-0.3-0.3-0.4c-0.4-0.4-0.9-0.8-1.5-1
		c0,0-0.1,0-0.1-0.1c-0.4-0.3-0.9-0.4-1.2-0.5c-0.4-0.1-0.8-0.2-1.2-0.3c-0.8-0.2-1.6-0.2-2.6-0.2l0,0c-0.9-0.1-1.7-0.2-2.4-0.2
		c-0.2,0-0.3,0-0.5,0c-0.7,0-1.4,0-2,0.1c0,0,0,0-0.1,0c0,0-0.1,0.1-0.1,0.1c0,0-0.1,0.1-0.1,0.1c0,0-0.1,0-0.1,0.1c0,0-0.1,0-0.2,0
		c0,0-0.1,0-0.1,0c-0.1,0-0.1,0-0.2,0c0,0-0.1,0-0.1,0c0,0-0.1,0-0.1,0c0,0,0,0-0.1,0c-0.1,0-0.1,0-0.2,0c-0.1,0-0.2-0.1-0.2-0.1
		c0,0,0,0,0,0c0,0,0,0,0-0.1c0,0,0,0,0-0.1c0,0,0,0,0-0.1c-0.1,0-0.1,0-0.2,0c-0.1-0.1-0.2-0.2-0.1-0.3c0,0,0,0,0-0.1
		c0,0,0-0.1,0.1-0.1c0,0,0,0,0,0c0,0,0,0,0-0.1c0,0,0,0,0,0c0,0,0,0,0-0.1c0,0,0,0,0-0.1c0,0,0-0.1,0.1-0.1c0,0,0,0,0,0c0,0,0,0,0,0
		c0,0,0-0.1,0-0.1c0,0,0-0.1,0-0.1c0,0,0-0.1,0.1-0.1c0,0,0.1-0.1,0.1-0.1c0,0,0,0,0.1,0c0,0,0,0,0,0c0,0,0,0,0,0c0,0,0,0,0,0
		c0,0,0.1,0,0.1-0.1c0.1,0,0.1,0,0.2-0.1c0,0,0,0,0,0c0,0,0,0,0,0c0,0,0,0,0,0c0,0,0,0,0,0c0.4-0.2,0.8-0.4,1.2-0.5
		c0.5-0.1,1-0.2,1.5-0.2c0.4,0,0.7,0.1,1.2,0.1l0,0l0.1,0c0.1,0,0.1,0,0.2,0c0.4,0.1,0.7,0.1,1.1,0.2l0.6,0.1c0.6,0.1,1.3,0.2,2,0.3
		c0.3,0,0.7,0,1,0c0.5,0,0.9,0,1.4-0.1c0.2,0,0.4,0,0.6,0c0.1,0,0.2,0,0.4,0c0.2,0,0.4-0.1,0.7-0.1c0.3-0.1,0.6-0.2,0.8-0.3
		c0.3-0.1,0.5-0.3,0.7-0.4c0.2-0.1,0.4-0.3,0.6-0.5c0.2-0.2,0.4-0.4,0.5-0.6c0,0,0.1-0.1,0.1-0.1c0.3-0.3,0.5-0.6,0.7-1
		c0.1-0.2,0.1-0.4,0.2-0.5l0-0.1c0-0.1,0.1-0.2,0.1-0.4c0-0.2,0.1-0.4,0.1-0.6c0-0.2,0-0.5,0-0.6l0-0.1c0-0.3-0.1-0.5-0.2-0.7
		c-0.1-0.3-0.2-0.6-0.2-0.8c-0.1-0.2-0.2-0.4-0.3-0.6c0-0.2-0.1-0.3-0.2-0.5c-0.2-0.2-0.4-0.4-0.5-0.6c-0.1-0.1-0.2-0.1-0.3-0.2l0,0
		l0,0c-0.1-0.1-0.1-0.1-0.2-0.1c0,0-0.1,0-0.1-0.1c0,0-0.1,0-0.1-0.1c0,0,0,0,0,0l0,0l0,0c-0.1-0.2-0.2-0.3-0.3-0.4
		c-0.3-0.3-0.7-0.5-1.1-0.7c-0.5-0.2-1.1-0.5-1.7-0.7c-0.3-0.1-0.6-0.2-1-0.2c-0.8-0.2-1.7-0.3-2.7-0.3c-0.1,0-0.2,0-0.3,0
		c-0.5,0-1,0-1.5,0.1c-0.1,0-0.1,0-0.2,0c0,0,0,0-0.1,0c0,0-0.1,0-0.2,0c-0.2,0-0.3,0-0.5,0c-0.6,0-1.2,0.1-1.9,0.2
		c-0.8,0.2-1.7,0.4-2.5,0.8c-0.9,0.4-1.7,0.8-2.5,1.3c-0.8,0.5-1.5,1.2-2.1,1.9c-0.4,0.5-0.8,1.1-1.1,1.6c-0.4,0.5-0.7,1-1,1.6
		c-0.3,0.6-0.5,1.2-0.7,1.9c-0.1,0.3-0.2,0.6-0.3,1c-0.2,0.4-0.3,0.9-0.3,1.3c-0.1,0.9-0.1,1.8,0,2.7c0,0.3,0,0.6,0,0.9
		c0,0.3,0,0.5,0,0.8c0,0.1,0,0.1,0,0.2c0,0,0,0.1,0,0.1l0,0.2l0.1,0.4c0.1,0.3,0.2,0.7,0.3,1.1c0.1,0.3,0.2,0.6,0.4,0.8
		c0,0,0,0,0,0.1c0,0,0,0.1,0,0.1c0.1,0.1,0.1,0.2,0.2,0.3c0,0,0,0.1,0.1,0.1c0.1,0.1,0.2,0.3,0.4,0.4c0,0,0,0,0.1,0.1
		c0,0,0.1,0.1,0.1,0.1l0.4-0.3l0,0L98,54.3c0.1,0.1,0.2,0.2,0.3,0.3l0,0l0,0c0,0,0,0,0,0c0.1,0.1,0.2,0.1,0.2,0.2c0,0,0,0,0,0l0.1,0
		l0.1,0.1l0.1,0.1c0,0,0,0,0.1,0l0.1,0.1c0,0,0,0,0,0c0.1,0.1,0.3,0.2,0.4,0.3c0,0,0,0,0.1,0c0,0,0,0,0.1,0l0.1,0
		c0.2,0.1,0.4,0.2,0.5,0.2c0.1,0,0.2,0.1,0.3,0.1c0,0,0.1,0,0.1,0l0.1,0c0,0,0.1,0,0.1,0l0.2,0.1c0,0,0.1,0,0.1,0l0.2,0.1l0.1,0
		l0.2-0.5c0,0,0,0,0,0l-0.1,0.5c0,0,0,0,0.1,0c0.1,0,0.2,0.1,0.3,0.1l0.1,0l0.2,0.1l0.1,0l0.1,0l0.2,0c0,0,0.1,0,0.1,0
		c0,0,0.1,0,0.1,0l0.1,0l0,0l0.1,0l0.2,0l0.1,0c0.2,0,0.4,0.1,0.5,0.1c0.1,0,0.3,0,0.4,0c0,0,0,0,0.1,0c0.4,0,0.7,0.1,1.1,0.1
		c0,0,0.1,0,0.1,0c0,0,0.1,0,0.1,0c0.2,0,0.4-0.1,0.7-0.1c0,0,0.1,0,0.1,0l0.1,0c0,0,0.1,0,0.1,0c0,0,0.1,0,0.1,0
		c0.1,0,0.2-0.1,0.3-0.1c0,0,0,0,0,0c0,0,0.1,0,0.1,0c0,0,0,0,0.1,0c0,0,0.1,0,0.1,0c0,0,0.1,0,0.1,0c0,0,0,0,0.1,0
		c0.1,0,0.2,0,0.2,0l0.1,0c0.3,0,0.5-0.1,0.7-0.1c0,0,0,0,0,0h0c0,0,0.1,0,0.1,0c0.3,0,0.6-0.1,1-0.2l0.2,0c0.8,0.1,1.4,0.3,1.9,0.5
		c0.4,0.2,0.7,0.3,1,0.5c0.1,0.1,0.2,0.2,0.3,0.3c0.1,0.1,0.1,0.2,0.1,0.3c0,0,0,0.1,0,0.1c0,0.1,0,0.2-0.1,0.3c0,0.1,0,0.1-0.1,0.2
		c0,0.1-0.1,0.1-0.1,0.2c-0.1,0.1-0.1,0.1-0.2,0.2c0,0-0.1,0-0.1,0c-0.2,0.1-0.4,0.2-0.5,0.2l-0.1,0.1c0,0-0.1,0-0.1,0.1
		c-0.2,0-0.4,0.1-0.6,0.1l-0.1,0c-0.5,0-1-0.2-1.5-0.3c-0.2-0.1-0.5-0.1-0.7-0.2c-0.4-0.1-0.7-0.2-1.1-0.3c-0.3-0.1-0.6-0.1-1-0.2
		c-0.4-0.1-0.8-0.1-1.1-0.1c-0.4,0-0.8,0-1.2,0.1c-0.1,0-0.2,0.1-0.3,0.1c-0.2,0-0.3,0-0.5,0c-0.1,0-0.3,0-0.4,0
		c-1,0-1.8,0.1-2.6,0.4c-1.2,0.3-2.1,0.8-2.8,1.4c-0.9,0.8-1.6,2-1.7,3.2c0,0.4-0.1,0.7-0.1,1c0,0.3,0.1,0.7,0.1,1.1
		c0,0.1,0,0.2,0.1,0.3c0,0.1,0,0.1,0.1,0.2c0,0,0,0,0,0c0,0,0,0,0,0.1c0,0,0,0,0,0.1c0,0.1,0.1,0.2,0.2,0.3l0.1,0.1l0,0.1
		c0.1,0.1,0.1,0.1,0.2,0.2l0.2,0.3c0.1,0.1,0.2,0.2,0.3,0.4c0.2,0.3,0.6,0.7,1,1.1c0,0,0,0,0.1,0c0.1,0.1,0.2,0.1,0.3,0.2
		c0.1,0.1,0.2,0.1,0.3,0.2c0,0,0,0,0,0c0,0,0.1,0,0.1,0.1l0.3-0.4c0,0,0,0,0,0L98.8,69l0.1,0c0.1,0,0.1,0.1,0.2,0.1l0.1,0
		c0.2,0.1,0.4,0.2,0.6,0.2l0.3,0.1l0.1,0l0.1,0l0.1,0.1c0,0,0,0,0,0l0.1,0l0.1,0c0.1,0.1,0.3,0.1,0.4,0.2c0.1,0,0.1,0,0.2,0
		c0.3,0.1,0.7,0.1,1,0.1c0,0,0.1,0,0.1,0c0.1,0,0.2,0,0.3,0c0.1,0.1,0.2,0.1,0.3,0.1c0.4,0,0.9,0,1.3,0c0.4,0,0.9,0,1.3,0
		c0.4,0,0.8-0.1,1.2-0.1l0,0c0.3,0,0.7,0,1,0c0.3,0,0.6,0,1,0l0.3,0l0.3,0c0.2,0,0.4,0,0.6,0c0.2,0,0.4,0,0.6,0l0.1,0
		c0.3,0,0.6,0,1-0.1c0.1,0,0.3,0,0.4,0c0.6-0.1,1.2-0.2,1.9-0.4c0.6-0.2,1.2-0.4,1.7-0.7c0.6-0.4,1.2-0.8,1.6-1.2
		c0.3-0.3,0.5-0.6,0.7-0.9c0.2-0.3,0.4-0.6,0.6-0.9c0.1-0.2,0.2-0.4,0.3-0.7c0-0.1,0.1-0.1,0.1-0.2c0.2-0.4,0.4-0.8,0.6-1.3
		c0.2-0.4,0.3-0.9,0.4-1.4c0-0.2,0.1-0.4,0.1-0.7c0-0.1,0-0.2,0.1-0.2c0.3-0.8,0.5-1.7,0.6-2.6c0.2-1.6,0.1-3-0.3-4.3
		C120,53.5,119.7,52.7,119.2,51.9z"/>
	<g>
		<path class="st1" d="M120.5,51.2c-1.9-4.1-5.6-5.2-9.8-5.6c-1.1-0.1-4.8-0.8-5.7,0.1c-0.4,0.4,0.2,0.1,0.2,0.1c-0.1,0-0.1,0-0.1,0
			c-0.6-0.1-0.4,0.2,0.6,1.1c0-0.7-0.5-1.3-1.1-1.4c-1.5-0.4,1.9,3,0.9,1.4c0,0-0.1-1.2-0.1-1.2c-0.2,0.9,0.3,1.5-0.1,1.3
			c-0.3-0.1,0.6,0,0.1,0c-0.3,0,1.6-0.6,1.8-0.6c1.8-0.2,3.6,0.6,5.4,0.7c3.6,0.2,7.4-0.4,8.9-4.1c1-2.4,0.1-5.8-2.1-7.3
			c-0.4,0.9-0.8,1.8-1.2,2.7c0,0,0,0,0,0c1.4,0.5,2.5-1.5,1.5-2.5c-0.7-0.6-0.5-0.6-0.2,0c-0.2,0.7-0.4,1.4-0.5,2.1c0,0,0,0,0,0
			c1.6-1.1,0.2-3.3-1.5-2.6c0,0,0,0,0,0c0.7,0.2,1.4,0.4,2.1,0.5c-4.8-6.4-17.7-2.6-21.7,2.8c-3.1,4.3-5,12.4-0.8,16.7
			c0.6,0.6,1.5,0.5,2.1,0c0.1-0.1,0.2-0.2,0.4-0.3c-0.7,0-1.4,0-2.1,0c0,0,0,0,0,0c0-0.7,0-1.4,0-2.1c-0.1,0.1-0.2,0.2-0.3,0.3
			c-0.6,0.6-0.6,1.6,0,2.1c0.1,0.1,0.2,0.2,0.3,0.3c0.6,0.6,1.5,0.6,2.1,0c0,0,0,0,0,0c-0.7,0-1.4,0-2.1,0c0.8,0.8,2,1.5,3.5,1.9
			c0.8,0.2,1.6-0.3,1.8-1c0.1-0.2,0.1-0.3,0.2-0.5c-0.6,0.3-1.2,0.7-1.8,1c0,0,0,0,0,0c-0.3-0.6-0.7-1.2-1-1.8
			c0,0.2-0.1,0.3-0.1,0.5c-0.2,0.8,0.3,1.6,1,1.8c1.8,0.5,3.7,0.7,5.6,0.5c0.5,0,0.9-0.3,1.4-0.3c0.5,0,1.1,0,1.6-0.1
			c0.6-0.1,2.2,0,2.1-0.3c0,0-0.8,0.3-0.8,0.3c-5-2-15.1-1.7-16.3,5.2c-0.5,3,1,6,3.7,7.4c0.7,0.4,1.6,0.2,2.1-0.5
			c0.1-0.1,0.2-0.3,0.3-0.4c-0.7,0.2-1.4,0.4-2.1,0.5c0,0,0,0,0,0c-0.2-0.7-0.4-1.4-0.5-2.1c-0.1,0.1-0.1,0.3-0.2,0.4
			c-0.4,0.7-0.2,1.7,0.5,2.1c3.9,2,8.1,1.5,12.4,1.1C120.2,70.8,125.1,59.5,120.5,51.2c-0.9-1.7-3.5-0.2-2.6,1.5
			c2.1,3.8,1.4,10.5-1.8,13.7c-2.3,2.3-5.4,2-8.4,2.1c-2.8,0.1-5.6,0.6-8.1-0.7c0.2,0.7,0.4,1.4,0.5,2.1c0.1-0.1,0.1-0.3,0.2-0.4
			c0.4-0.7,0.2-1.7-0.5-2.1c0,0,0,0,0,0c-0.7-0.4-1.6-0.2-2.1,0.5c-0.1,0.1-0.2,0.3-0.3,0.4c0.7-0.2,1.4-0.4,2.1-0.5
			c-0.8-0.4-2.1-2.1-2.1-2.2c-2.3-6.2,7.4-6,10.6-5.3c2,0.4,8.1,0.4,5.7-3.5c-2.1-3.4-8.6-1-12-1.9c0.3,0.6,0.7,1.2,1,1.8
			c0-0.2,0.1-0.3,0.1-0.5c0.2-0.8-0.3-1.6-1-1.8c0,0,0,0,0,0c-0.8-0.2-1.6,0.3-1.8,1c-0.1,0.2-0.1,0.3-0.2,0.5
			c0.6-0.3,1.2-0.7,1.8-1c-0.3-0.1-1.1-0.2-1.3-0.5c-0.6-0.8-0.4-0.2-0.9-0.7c-0.6-0.6-1.5-0.6-2.1,0c0,0,0,0,0,0c0.7,0,1.4,0,2.1,0
			c-0.1-0.1-0.2-0.2-0.3-0.3c0,0.7,0,1.4,0,2.1c0.1-0.1,0.2-0.2,0.3-0.3c0.6-0.6,0.6-1.5,0-2.1c0,0,0,0,0,0c-0.6-0.6-1.5-0.5-2.1,0
			c-0.1,0.1-0.2,0.2-0.4,0.3c0.7,0,1.4,0,2.1,0c-2.6-2.7-1.3-8.3,0.1-11.1c2-4,5.7-5.9,10-6.3c1.3-0.1,6.3-0.4,7.7,1.5
			c0.5,0.7,1.2,0.9,2.1,0.5c0,0,0,0,0,0c-0.5-0.9-1-1.7-1.5-2.6c0,0,0,0,0,0c-0.7,0.5-0.9,1.3-0.5,2.1c0.1,0.3,0.8,0.7,0.7,0.6
			c0.5-0.8,1-1.7,1.5-2.5c0,0,0,0,0,0c-1.7-0.6-2.5,1.8-1.2,2.7c1.7,1.1,1,3.9-0.2,5c-2,1.7-5.4,0.8-7.8,0.4
			c-1.2-0.2-2.9-0.5-4.5,0.1c-0.4,0.1-2.7,1.3-1.5,0.8c0.5-0.2,0.4-0.6-0.1-0.1c-0.9,0.8-1,0.8-1.2,1.6c0,0,0,1.3,0.2,1.2
			c1.2-0.5-0.5-2.4-0.2-1.1c0.2,1-0.2,2,1.2,2.4c-0.4-0.5-0.7-1-1.1-1.4c0.1,1.8,1.7,1.8,3,1.8c0.2,0,2.1-0.6-0.3-0.2
			c1.1-0.2,2.4-0.1,3.5-0.1c3.7,0.1,7.3,0.6,9,4.3C118.7,54.4,121.3,52.9,120.5,51.2z"/>
	</g>
</g>
<g>
	<path class="st0" d="M91.4,64.6c-0.1-0.4-0.2-0.8-0.3-1.2c0-0.1,0-0.2,0-0.3c-0.1-0.3-0.2-0.7-0.3-1c0-0.1-0.1-0.2-0.1-0.3
		c0-0.1,0-0.2,0-0.3c-0.1-0.5-0.3-0.9-0.6-1.4c-0.1-0.2-0.2-0.3-0.4-0.5c-0.3-0.6-0.8-1.1-1.5-1.3c-0.2-0.1-0.4-0.1-0.6-0.1
		c-0.2,0-0.5,0-0.7,0c-0.1,0-0.2,0-0.3,0c-0.2,0-0.4,0-0.6,0c-0.4,0-0.9,0-1.3,0.1c-0.5,0.1-0.9,0.2-1.4,0.3
		c-0.5,0.2-1.1,0.4-1.6,0.7c-0.2,0.1-0.4,0.3-0.6,0.4c-0.1,0.1-0.2,0.2-0.4,0.3c-0.2,0.1-0.4,0.2-0.6,0.2c-0.3,0.1-0.6,0.1-0.9,0.2
		c-0.2,0-0.4,0-0.6-0.1c-0.2,0-0.3-0.1-0.4-0.2c-0.2-0.1-0.3-0.2-0.4-0.3c-0.2-0.2-0.3-0.4-0.5-0.6c-0.2-0.4-0.4-0.9-0.6-1.3
		c-0.1-0.3-0.2-0.7-0.2-1.1c0,0,0-0.1,0-0.1c0.2,0,0.3,0,0.5,0.1c0.3,0.1,0.7,0.2,1,0.3c0.6,0.1,1.2,0.1,1.8,0.1c0,0,0.1,0,0.1,0
		c0.1,0,0.2,0.1,0.2,0.1c0.9,0.3,2.1,0.4,3,0c0.2-0.1,0.3-0.2,0.5-0.2c0.2-0.1,0.4-0.3,0.5-0.4c0,0,0,0,0,0c0.2,0,0.3-0.1,0.5-0.1
		c0.1,0,0.2,0,0.3,0c0.2,0,0.5,0,0.7,0c0.2,0,0.4-0.1,0.6-0.1c0.3-0.1,0.6-0.2,0.8-0.3c0,0,0,0,0,0c0,0,0,0,0,0
		c0.3-0.1,0.6-0.1,0.9-0.3c0.2-0.1,0.4-0.2,0.6-0.3c0.2-0.1,0.4-0.3,0.6-0.4c0.2-0.2,0.4-0.4,0.6-0.7c0.1-0.1,0.1-0.2,0.1-0.3
		c0,0,0,0,0,0c0,0,0-0.1,0-0.1c0,0,0,0,0,0c0.1-0.1,0.2-0.3,0.2-0.4c0.1-0.2,0.1-0.5,0.1-0.7c0,0,0,0,0,0c0,0,0,0,0,0
		c0-0.4,0-0.7-0.1-1.1c-0.1-0.4-0.3-0.7-0.5-1c-0.2-0.2-0.4-0.4-0.6-0.6c-0.1-0.1-0.3-0.2-0.5-0.4c-0.2-0.2-0.5-0.3-0.8-0.4
		c-0.3-0.1-0.7-0.3-1-0.4c-0.5-0.2-1.1-0.2-1.7-0.3c-0.2,0-0.5,0-0.7,0c-0.4,0-0.8,0-1.2,0.1c-0.4,0-0.8,0.1-1.1,0.2
		c-0.4,0-0.9,0-1.3,0.1c-0.1,0-0.1,0-0.2,0c-0.2,0-0.4,0-0.6,0c-0.5,0-0.9,0-1.4,0c-0.1,0-0.1,0-0.2,0c0.5-0.4,1-0.7,1.5-1.1
		c0.7-0.4,1.3-0.7,2.1-0.9c0.2-0.1,0.4-0.1,0.7-0.1c0.5-0.1,1-0.1,1.6-0.1c0.6,0,1.1,0,1.7-0.1c0.7,0,1.4-0.2,2-0.4
		c0.6-0.2,1.2-0.5,1.7-0.8c0.3-0.2,0.5-0.5,0.8-0.8c0.3-0.3,0.5-0.7,0.6-1.1c0.2-0.3,0.2-0.7,0.3-1.1c0-0.2,0.1-0.4,0.1-0.6
		c0-0.3,0-0.6-0.1-0.9c-0.1-0.4-0.2-0.7-0.3-1c-0.1-0.5-0.4-0.9-0.6-1.3c-0.3-0.6-0.7-1.1-1-1.6c0,0,0,0,0,0c0,0,0,0,0,0
		c-0.1-0.2-0.2-0.3-0.3-0.5c-0.1-0.2-0.3-0.3-0.5-0.5c-0.1-0.1-0.2-0.2-0.3-0.2c-0.1,0-0.1-0.1-0.2-0.1c-0.3-0.2-0.6-0.5-0.9-0.7
		c-0.4-0.2-0.8-0.4-1.3-0.6c-0.5-0.2-1-0.3-1.4-0.3c-0.9-0.1-1.9,0-2.8,0.1c-1,0.2-2,0.5-2.9,0.8c-0.9,0.4-1.8,0.8-2.7,1.3
		c-0.3,0.2-0.6,0.4-0.9,0.5c-0.1,0-0.1,0-0.2,0c-0.2,0-0.5,0-0.7,0c-0.1,0-0.3,0-0.4,0.1c-0.1,0-0.2,0-0.2,0.1
		c-0.4,0-0.7,0.1-1.1,0.2c-0.4,0.1-0.9,0.3-1.3,0.5c-0.4,0.2-0.9,0.5-1.2,0.8c-0.7,0.6-1.3,1.3-1.9,2c-0.6,0.8-1,1.7-1.4,2.6
		c-0.4,0.9-0.7,1.8-1,2.8c-0.4,1.4-0.7,2.9-0.9,4.3c-0.2,0.7-0.3,1.3-0.3,2c-0.1,0.8-0.1,1.6-0.1,2.4c0.1,1.4,0.4,2.8,0.8,4.1
		c0.3,0.9,0.6,1.8,1.1,2.6c0.3,0.6,0.7,1.3,1.1,1.8c0,0.1,0,0.1,0.1,0.2c0,0.1,0.1,0.1,0.1,0.2c0,0,0,0,0,0c0,0,0,0,0,0
		c0.3,0.4,0.5,0.8,0.8,1.2c0,0,0.1,0.1,0.1,0.1c0.3,0.3,0.6,0.7,0.9,1c0,0,0,0.1,0.1,0.1c0.1,0.2,0.3,0.5,0.5,0.7c0,0,0,0,0,0
		c0.2,0.2,0.4,0.5,0.7,0.7c0.4,0.3,0.8,0.6,1.3,0.8c0.2,0.1,0.4,0.2,0.6,0.3c0,0,0,0,0,0c0.3,0.2,0.7,0.4,1,0.5
		c0.2,0.1,0.3,0.2,0.5,0.3c0.8,0.4,1.7,0.8,2.6,1.1c0.7,0.2,1.4,0.4,2.1,0.5c0,0,0.1,0.1,0.1,0.1c0.1,0,0.1,0,0.2,0.1c0,0,0,0,0,0
		c0,0,0,0,0,0c0.5,0.1,1,0.2,1.5,0.3c0,0,0.1,0,0.1,0c0.4,0,0.9,0.1,1.3,0.1c0,0,0.1,0,0.1,0c0.3,0.1,0.5,0.1,0.8,0.2c0,0,0,0,0,0
		c0.3,0,0.6,0,0.9,0c0.5,0,1-0.2,1.5-0.3c0.2-0.1,0.4-0.2,0.6-0.3c0,0,0,0,0,0c1.2-0.3,2.3-0.8,3.3-1.5c0.2-0.2,0.5-0.4,0.7-0.6
		c0.2-0.2,0.3-0.4,0.5-0.6c0.2-0.3,0.3-0.6,0.4-0.9c0.1-0.3,0.2-0.6,0.3-1c0-0.3,0.1-0.5,0.1-0.8C91.4,65.3,91.4,65,91.4,64.6z"/>
	<g>
		<path class="st1" d="M92.8,64.2c-0.7-2.6-1.2-6.3-4.6-7.3c-1.4-0.4-3.3-0.2-4.7,0.2c-2.1,0.5-4.9,3.9-5.6-0.6
			c-0.6,0.6-1.2,1.2-1.8,1.8c2.6,0.4,3.1,0.8,5.5,0.8c0.8,0,1.5-0.3,2.2-0.5c0.2,0,2.1-0.9,1.1-0.5c2.7-0.9,4.7-0.4,6.3-3.4
			c0.7-1.2,0.7-3.9-1.1-5.7c-3-2.8-8.1-1.9-11.7-1.5c0.3,0.9,0.5,1.9,0.8,2.8c4.3-3.1,16.3-1.3,13.3-10.6c-1.6-5.1-6.6-8.2-12.6-6.5
			c-2.6,0.8-4,2-6.4,2.4c-3.9,0.6-6.4,3.5-7.9,7c-3.2,7.3-3.1,14.9,1,21.8c0.2-0.7,0.4-1.4,0.5-2.1c0,0,0,0,0,0
			c-0.7,0.4-0.9,1.4-0.5,2.1c2.9,4.7,7.1,6.8,12.4,8.1c-0.4-0.5-0.7-1-1.1-1.4c0,0,0,0,0,0c0,0.6,0.5,1.3,1.1,1.4
			c5.8,1.3,14.5-0.3,13.9-7.9c-0.2-1.9-3.2-1.9-3,0c0.4,5.5-6.2,5.9-10.1,5c0.4,0.5,0.7,1,1.1,1.4c0,0,0,0,0,0
			c0-0.6-0.5-1.3-1.1-1.4c-4.4-1.1-8.2-2.7-10.6-6.7c-0.2,0.7-0.4,1.4-0.5,2.1c0,0,0,0,0,0c0.7-0.4,0.9-1.4,0.5-2.1
			c-2.8-4.7-3.3-9-2.3-14.3c0.7-3.6,2.3-8.7,6.3-9.8c1-0.3,1.9-0.1,2.9-0.4c4.2-1.4,9.5-4.7,12.6,0.4c1.3,2.2,2.1,4.7-1.1,6.3
			c-1.4,0.7-3.4,0.2-4.9,0.4c-2,0.3-3.4,1.2-5,2.3c-1.1,0.8-0.9,3,0.8,2.8c2.2-0.2,5.9-0.9,7.9-0.2c2.7,1,3.1,2.7,0.9,4
			c-2.9,1.7-7.2,1.4-10.4,1c-1.2-0.2-2,0.6-1.8,1.8c0.4,2.9,2.4,5.5,5.5,4.6c2-0.6,3.9-2.9,6.3-2.1c2.4,0.8,2.5,3.1,3.1,5.2
			C90.4,66.9,93.3,66.1,92.8,64.2z"/>
	</g>
</g>
<g>
	<g>
		<path class="st0" d="M34.1,48.5c-0.1-0.5-0.2-1-0.4-1.5c-0.1-0.2-0.2-0.4-0.3-0.5c0-0.1,0-0.3,0-0.4c0-0.8-0.1-1.6-0.2-2.3
			c-0.2-0.8-0.5-1.6-0.8-2.3c-0.3-0.6-0.7-1.1-1.1-1.7c-0.5-0.7-1.1-1.3-1.7-1.8c-0.6-0.5-1.2-1-1.9-1.4c-0.3-0.2-0.6-0.4-0.9-0.5
			c-0.4-0.2-0.7-0.3-1.1-0.5c-0.7-0.3-1.5-0.6-2.3-0.8c-0.8-0.2-1.7-0.3-2.5-0.4c-1.5-0.1-3,0.1-4.5,0.6c-0.7,0.2-1.5,0.6-2.1,1
			c-0.1,0-0.2,0.1-0.2,0.2c-0.2-0.1-0.3-0.2-0.5-0.4c-0.7-0.5-1.6-0.8-2.5-1c-0.7-0.2-1.5-0.2-2.2-0.1c-0.4,0-0.7,0.1-1.1,0.2
			c-0.4,0.1-0.7,0.2-1.1,0.4c-0.6,0.3-1.1,0.6-1.6,1.1c-0.5,0.4-0.9,1-1.3,1.5c-0.3,0.5-0.6,1.1-0.9,1.6c-0.3,0.7-0.5,1.3-0.7,2
			c-0.4,1.3-0.6,2.7-0.7,4.1c-0.1,1.3-0.2,2.5-0.1,3.8c0,0.4,0.1,0.8,0.1,1.2c0,1.2,0,2.5,0.1,3.7c0.1,3.1,0.5,6.1,0.8,9.2
			c0.1,0.6,0.1,1.2,0.2,1.9c0,1.7,0.1,3.4,0.3,5.2c0,0.2,0,0.3,0,0.5c-0.1,1.9-0.4,3.7-0.3,5.6c0,0.9,0.2,1.8,0.5,2.7
			c0.3,0.9,0.8,1.7,1.4,2.3c0.3,0.3,0.7,0.6,1.1,0.8C6,82.6,6.5,82.8,7,83c0.9,0.4,1.9,0.6,2.9,0.6c0.1,0,0.2,0,0.2,0
			c0.3,0,0.6,0,0.9-0.1c0,0,0,0,0,0c0.2,0.1,0.5,0.1,0.7,0.1c0,0,0,0,0,0c0.2,0,0.5,0,0.7-0.1c0.1,0,0.3-0.1,0.4-0.1
			c0.2,0,0.3-0.1,0.5-0.2c0.3-0.1,0.6-0.2,0.9-0.4c0.4-0.2,0.7-0.4,1-0.6c0.5-0.3,0.9-0.7,1.3-1.1c0.4-0.4,0.7-0.8,1-1.2
			c0.3-0.4,0.5-0.9,0.7-1.3c0.1-0.3,0.2-0.6,0.3-1c0.1-0.5,0.1-1,0.2-1.5c0.1-0.9,0.1-1.9,0-2.8c-0.1-0.8-0.2-1.6-0.3-2.3
			c0.1-1.1,0.2-2.2,0.3-3.4c0-0.6,0.1-1.3,0.1-1.9c0.1-0.9,0.1-1.9,0.1-2.8c0-0.1,0-0.3,0.1-0.4c0.1-0.9,0.3-1.9,0.3-2.8
			c0.4,0,0.9,0,1.3,0c0.8,0,1.6-0.2,2.4-0.3c1.4-0.3,2.7-0.8,4-1.4c0.7-0.3,1.3-0.7,1.9-1.2c0.4-0.2,0.8-0.5,1.2-0.8
			c0.8-0.6,1.6-1.3,2.2-2c0.3-0.4,0.6-0.9,0.9-1.3c0.3-0.4,0.4-0.9,0.6-1.4c0.2-0.5,0.2-1,0.3-1.5C34.1,49.3,34.1,48.9,34.1,48.5z"
			/>
		<g>
			<path class="st1" d="M35.5,48.1c-1.3-4.9-1.5-8.9-6-12.2c-2-1.5-4.4-2.5-6.9-2.8c-3.1-0.5-5.1,0.5-8,1c-2.1,0.4,1,0.9-1.8-0.4
				c-1.1-0.5-2.7-0.7-3.9-0.6c-1.8,0.2-3.5,0.9-4.8,2.1c-4.3,3.9-4.2,10.9-4,16.2c0.2,4.6,0.7,9.2,1.1,13.8
				c0.3,4.2-0.6,8.6,0.1,12.7c0.8,5,4.6,7.1,9.3,7.2c3.8,0.1,7.3-1.8,8.9-5.6c1-2.5,0.6-5.1,0.5-7.6c-0.1-4,0.3-8.1,0.7-12.1
				c-0.5,0.5-1,1-1.5,1.5c7,0.1,16.6-4.6,16.3-12.6c-0.1-1.9-3.1-1.9-3,0c0.3,6.3-8,9.7-13.3,9.6c-0.9,0-1.4,0.7-1.5,1.5
				c-0.3,3-0.5,5.9-0.6,8.8c-0.2,3.7,1.2,8.5-1.6,11.6c-1.4,1.6-2.7,2-4.5,1.9c-1.8,0-4.9-1.1-6-2.4c-1.6-1.9-0.6-5.7-0.6-7.9
				c0.3-7-1-14.3-1.3-21.3c-0.2-5,1.1-19.5,10.2-13.1c0.4,0.3,1.1,0.3,1.5,0c4-2.8,10.3-1.5,13.7,1.6c3,2.7,3.1,6.3,4,9.9
				C33.1,50.7,36,50,35.5,48.1z"/>
		</g>
	</g>
	<g>
		<path class="st0" d="M21.6,49.6c-0.1,0-0.2,0.1-0.4,0.1c-0.1,0.1-0.3,0.1-0.4,0.1c0,0,0,0,0,0c0,0-0.1,0.1-0.2,0.1
			c-0.1,0.1-0.3,0.1-0.4,0.2c0,0-0.1,0-0.1,0c0,0,0,0,0,0c-0.1,0.1-0.2,0.1-0.2,0.1c-0.1,0-0.2,0-0.3,0c-0.1,0-0.1,0-0.2,0
			c0,0,0,0-0.1,0c0,0-0.1,0-0.1,0.1c-0.1,0-0.2,0-0.3,0c-0.1,0-0.2,0-0.3-0.1c-0.1,0-0.1-0.1-0.2-0.1c-0.1-0.1-0.2-0.1-0.3-0.2
			c-0.1-0.1-0.2-0.2-0.3-0.3c-0.1-0.1-0.2-0.2-0.3-0.3c-0.1-0.1-0.2-0.2-0.3-0.4c-0.1-0.1-0.1-0.3-0.2-0.4c-0.1-0.1-0.1-0.3-0.1-0.4
			c0-0.2,0-0.3,0-0.5c0-0.1,0-0.2,0-0.3c0-0.1,0-0.2,0-0.2c0-0.1,0-0.1,0-0.2c0-0.2,0-0.4,0-0.5c0-0.3,0.1-0.5,0.2-0.7
			c0-0.1,0.1-0.1,0.1-0.2c0,0,0.1-0.1,0.1-0.1c0,0,0.1-0.1,0.2-0.1c0.1,0,0.1,0,0.2-0.1c0-0.2,0-0.3,0.1-0.5
			c0.1-0.3,0.5-0.5,0.8-0.5c0.1,0,0.1,0,0.2,0.1c0.1,0,0.2,0.1,0.3,0.2c0,0,0,0,0,0c0.1,0,0.1,0,0.2,0c0,0,0.1,0,0.1-0.1
			c0.1,0,0.1-0.1,0.2-0.1c0.1,0,0.2,0,0.2,0c0.1,0,0.2,0,0.4,0.1c0,0,0,0,0,0c0,0,0,0,0,0c0.1,0,0.2,0,0.4,0c0.1,0,0.2,0,0.3,0.1
			c0.1,0,0.2,0.1,0.3,0.2c0.1,0.1,0.3,0.2,0.4,0.3c0,0,0.1,0.1,0.1,0.1c0,0,0,0,0,0c0,0,0,0,0,0c0,0,0,0,0,0
			c0.1,0.1,0.1,0.1,0.2,0.2c0.1,0.1,0.2,0.3,0.3,0.4c0,0,0,0,0,0c0,0,0,0,0,0c0.1,0.2,0.2,0.5,0.3,0.7c0.1,0.2,0.2,0.5,0.2,0.7
			c0,0.2,0,0.3,0,0.5c0,0.1,0,0.2,0,0.3c0,0.1,0,0.3-0.1,0.4c0,0.1-0.1,0.3-0.2,0.4c-0.1,0.2-0.2,0.3-0.4,0.4
			c-0.1,0.1-0.1,0.1-0.2,0.1C21.8,49.5,21.7,49.6,21.6,49.6L21.6,49.6L21.6,49.6z"/>
		<g>
			<path class="st1" d="M21.2,48.2c-0.5,0.1-0.9,0.3-1.4,0.5c-0.2,0.1-0.6,0.4-0.8,0.4c0.2,0,1.2-0.4,0.3-0.3
				c-0.9,0.1-0.2,0.1-0.4,0c-0.2-0.1-0.4-0.3-0.5-0.5c-0.2-0.4-0.1-0.5-0.1-0.8c0.1-0.2,0.1-0.4,0-0.7c0.1-0.4,0-0.3-0.2,0
				c0.6-0.2,1.1-0.8,1.1-1.4c0,0.6-1.6,0.6-0.3,0.8c0.3,0.1,0.6,0,1-0.1c0.3-0.1,0.2-0.1-0.1,0c0.1,0,0.3,0.1,0.4,0.1
				c0.1,0.1,0.2,0.1,0.2,0.1C20.9,46.4,21.7,48,21.2,48.2c-0.8,0.3-1.3,1-1,1.8c0.2,0.7,1.1,1.4,1.8,1c3.2-1.3,2.7-5.4,0.3-7.3
				c-0.3-0.2-0.6-0.4-1-0.6c-0.2-0.1-1.6-0.2-0.7-0.1c-0.5-0.1-0.9-0.2-1.4-0.1c-0.2,0.1-0.4,0.1-0.6,0.2c1.2,0.3,1.6,0.3,1.1,0
				c-1.7-1.1-3.5,0.3-3.5,2.1c0.4-0.5,0.7-1,1.1-1.4c-2.9,0.7-2.4,5.3-0.6,6.9c0.5,0.5,1.1,0.8,1.8,0.9c0.1,0,1.1,0.1,1.1,0
				c0-0.2-1.2,0,0,0c0.4,0,0.7-0.1,1-0.2c1.1-0.5,0-0.1,0,0c0-0.1,1.5-0.5,1.4-0.5C23.9,50.7,23.1,47.8,21.2,48.2z"/>
		</g>
	</g>
</g>
<g>
	<path class="st0" d="M62.9,43.5c0-0.4-0.1-0.9-0.2-1.3c-0.1-0.6-0.3-1.2-0.5-1.7c-0.3-0.7-0.5-1.4-0.9-2c0,0,0,0,0,0c0,0,0,0,0,0
		c-0.1-0.2-0.2-0.4-0.3-0.6c-0.1-0.2-0.3-0.4-0.4-0.6c-0.1-0.1-0.2-0.2-0.3-0.3c-0.1-0.1-0.1-0.1-0.2-0.2c-0.2-0.3-0.5-0.6-0.8-0.9
		c-0.4-0.3-0.8-0.6-1.2-0.8c-0.4-0.2-0.9-0.4-1.4-0.5c-0.9-0.2-1.8-0.2-2.8-0.1c-1,0.1-2,0.4-3,0.8c-0.9,0.4-1.9,0.8-2.8,1.3
		c-1.7,1-3.4,2.2-4.9,3.6c-0.2,0-0.4-0.1-0.7-0.1c-0.3,0-0.6-0.1-1-0.1c-0.1,0-0.2,0-0.2,0c-0.3,0-0.6,0-0.9,0.1c0,0,0,0,0,0
		c-0.2-0.1-0.5-0.1-0.7-0.1c0,0,0,0,0,0c-0.2,0-0.5,0-0.7,0.1c-0.1,0-0.3,0.1-0.4,0.1c-0.2,0-0.3,0.1-0.5,0.2
		c-0.3,0.1-0.6,0.2-0.9,0.4c-0.4,0.2-0.7,0.4-1,0.6c-0.5,0.3-0.9,0.7-1.3,1.1c-0.4,0.4-0.7,0.8-1,1.2c-0.3,0.4-0.5,0.9-0.7,1.3
		c-0.1,0.3-0.2,0.6-0.3,1c-0.1,0.5-0.1,1-0.2,1.5c-0.1,0.9-0.1,1.9,0,2.8c0.1,0.8,0.2,1.6,0.3,2.3c-0.1,1.1-0.2,2.2-0.3,3.4
		c0,0.5,0,0.9-0.1,1.4c0,0.1,0,0.2,0,0.2c0,0.2,0.1,0.3,0.2,0.4c0,0,0,0,0,0.1c-0.2,0.7-0.1,1.5,0,2.2c0.1,0.9,0.5,1.8,0.9,2.6
		c0.5,0.9,1.1,1.7,1.7,2.5c0.3,0.4,0.7,0.7,1,1.1c0.4,0.4,0.9,0.7,1.3,1c0.7,0.5,1.6,0.8,2.5,1c0.7,0.2,1.5,0.2,2.2,0.1
		c0.4,0,0.7-0.1,1.1-0.2c0.1,0,0.2-0.1,0.2-0.1c0.3-0.1,0.6-0.2,0.8-0.3c0.6-0.3,1.1-0.6,1.6-1.1c0.5-0.4,0.9-1,1.3-1.5
		c0.3-0.5,0.6-1.1,0.9-1.6c0.3-0.6,0.5-1.2,0.7-1.9c-0.1-0.6-0.1-1.2-0.2-1.7c-0.1-0.6-0.1-1.2-0.2-1.9c0-0.5,0-1,0-1.5
		c0-1.2-0.1-2.5-0.3-3.7c0-0.2,0-0.3,0-0.5c0,0,0,0,0-0.1c0.7-0.7,1.4-1.3,2.2-1.8c0.7-0.4,1.4-0.7,2.1-1c0.2,0,0.5-0.1,0.7-0.1
		c0.5,0,1,0,1.6,0c0.6,0,1.1,0.1,1.7,0.1c0.7,0,1.4-0.1,2.1-0.3c0.6-0.2,1.2-0.5,1.7-0.9c0.3-0.2,0.6-0.6,0.8-0.9
		c0.3-0.4,0.5-0.8,0.7-1.3c0.2-0.4,0.3-0.8,0.4-1.3c0.1-0.2,0.1-0.5,0.1-0.7C62.9,44.2,62.9,43.8,62.9,43.5z"/>
	<g>
		<path class="st1" d="M64.4,43.5c-0.5-3.9-1.6-7.8-5.5-9.8c-2.6-1.4-5.6-0.9-8.3,0.1c-1.6,0.6-3,1.4-4.4,2.3
			c-0.8,0.5-2.4,2.3-3.2,2.5c-1,0.4-2.8-0.3-3.9-0.1c-2,0.3-3.8,1.4-5.1,2.8c-4,4.2-2.6,11.3-2.6,16.5c0,1.4,0.1-1,0.2,0.2
			c0.1,1.4-0.1,2.5,0.4,4c0.8,2.6,2.9,5.4,5.3,6.8c3.7,2.3,8.4,1.6,11.1-1.7c1.7-2.1,2.3-4.2,2.2-6.8c-0.1-1.3-1.2-6-0.5-7
			c0.9-1.5,3.4-1.7,5.1-1.8C60.5,50.9,64.3,49.6,64.4,43.5c0.1-1.9-2.9-1.9-3,0c-0.2,6.9-6.3,3.8-10.2,5.6c-2,0.9-3.6,2.1-4,4.2
			c-0.9,4.5,3,11.6-3.4,13.7c-5.8,1.9-8.8-5-9.1-9.4c-0.2-3.8-0.8-8.6,0.7-12.2c1.8-4.2,3.6-3.8,7-3.9c3.6-0.1,5.9-3.6,9.3-4.9
			c5.8-2.1,9,1.6,9.7,6.8C61.7,45.3,64.7,45.4,64.4,43.5z"/>
	</g>
</g>
</svg>
