<?xml version="1.0" encoding="utf-8"?>
<!-- Generator: Adobe Illustrator 22.1.0, SVG Export Plug-In . SVG Version: 6.00 Build 0)  -->
<svg version="1.1" id="Layer_1" xmlns="http://www.w3.org/2000/svg" xmlns:xlink="http://www.w3.org/1999/xlink" x="0px" y="0px"
	 viewBox="0 0 752.8 721.7" style="enable-background:new 0 0 752.8 721.7;" xml:space="preserve">
<style type="text/css">
	.st0{fill:#FFF0C2;stroke:#584C4F;stroke-miterlimit:10;}
	.st1{fill:#FDF5EA;stroke:#5B5B4B;stroke-linecap:round;stroke-miterlimit:10;}
	.st2{opacity:0.1;enable-background:new    ;}
	.st3{fill:#231F20;stroke:#231F20;stroke-miterlimit:10;}
	.st4{fill:#FFD767;stroke:#584C4F;stroke-miterlimit:10;}
</style>
<path class="st0" d="M3314.9-884.7c0,0,218.4,0.4,398.8,0.2c101.4,0.2,235.4,0.2,337,0c6,0,4.2-0.2,4.2-0.2
	c3.8-9.6,3.4-21.2,3.4-21.2s1.6-0.2-4.2-0.2c0,0-139.4-0.4-356.6-0.2c-86.2,0-219.8-0.2-382.6,0.2c-6,0-4.2,0.2-4.2,0.2
	s-7.6,13.6,0,21C3310.7-884.9,3309.1-884.7,3314.9-884.7z"/>
<path class="st0" d="M2468.4-887.1c7.6-7.4,0-21,0-21s1.8-0.2-4.2-0.2c-162.8-0.4-296.4-0.2-382.6-0.2
	c-217.2-0.2-356.6,0.2-356.6,0.2c-5.8,0-4.2,0.2-4.2,0.2s-0.4,11.6,3.4,21.2c0,0-1.8,0.2,4.2,0.2c101.6,0.2,235.6,0.2,337,0
	c180.4,0.2,398.8-0.2,398.8-0.2C2470-886.9,2468.4-887.1,2468.4-887.1z"/>
<path class="st0" d="M3253.5-885.9c7.6-7.4,0-21,0-21s1.8-0.2-4.2-0.2c-162.8-0.4-296.4-0.2-382.6-0.2
	c-217.2-0.2-356.6,0.2-356.6,0.2c-5.8,0-4.2,0.2-4.2,0.2s-0.4,11.6,3.4,21.2c0,0-1.8,0.2,4.2,0.2c101.6,0.2,235.6,0.2,337,0
	c180.4,0.2,398.8-0.2,398.8-0.2C3255.1-885.7,3253.5-885.9,3253.5-885.9z"/>
<path class="st0" d="M3390.1-131.2c-4.6,7.6-8.6,155-11.4,210.2c-2.8,55,1.6,136,1.6,136l-22.8-2c0,0,4.4-134.6,0.4-170
	c-1.2-1.6-1.8-8.2-1.4-23.2c0-0.2,0-0.2,0-0.2c0-5.8,0.2-12.6,0.4-19.8c0.4-61-4.6-140.2-4.6-140.2"/>
<path class="st1" d="M3370.1-109.2c-4.6,7.6-8.6,155-11.4,210.2c-2.8,55,1.6,136,1.6,136l-22.8-2c0,0,4.4-134.6,0.4-170
	c-1.2-1.6-1.8-8.2-1.4-23.2c0-0.2,0-0.2,0-0.2c0-5.8,0.2-12.6,0.4-19.8c0.4-61-4.6-140.2-4.6-140.2"/>
<path class="st0" d="M4041.1-502.9c-4.6,7.6-8.6,155-11.4,210.2c-2.8,55,1.6,136,1.6,136l-22.8-2c0,0,4.4-134.6,0.4-170
	c-1.2-1.6-1.8-8.2-1.4-23.2c0-0.2,0-0.2,0-0.2c0-5.8,0.2-12.6,0.4-19.8c0.4-61-4.6-140.2-4.6-140.2"/>
<path class="st1" d="M3323.2-492.7c0,0,218.4,0.4,398.8,0.2c101.4,0.2,235.4,0.2,337,0c6,0,4.2-0.2,4.2-0.2
	c3.8-9.6,3.4-21.2,3.4-21.2s1.6-0.2-4.2-0.2c0,0-139.4-0.4-356.6-0.2c-86.2,0-219.8-0.2-382.6,0.2c-6,0-4.2,0.2-4.2,0.2
	s-7.6,13.6,0,21C3319-492.9,3317.4-492.7,3323.2-492.7z"/>
<path class="st0" d="M2615.5-140.4c0,0-5,79.2-4.6,140.2c0.2,7.2,0.4,14,0.4,19.8c0,0,0,0,0,0.2c0.4,15-0.2,21.6-1.4,23.2
	c-4,35.4,0.4,170,0.4,170l-22.8,2c0,0,4.4-81,1.6-136c-2.8-55.2-6.8-202.6-11.4-210.2"/>
<path class="st0" d="M3236.5-140.4c0,0-5,79.2-4.6,140.2c0.2,7.2,0.4,14,0.4,19.8c0,0,0,0,0,0.2c0.4,15-0.2,21.6-1.4,23.2
	c-4,35.4,0.4,170,0.4,170l-22.8,2c0,0,4.4-81,1.6-136c-2.8-55.2-6.8-202.6-11.4-210.2"/>
<path class="st1" d="M2595.5-118.4c0,0-5,79.2-4.6,140.2c0.2,7.2,0.4,14,0.4,19.8c0,0,0,0,0,0.2c0.4,15-0.2,21.6-1.4,23.2
	c-4,35.4,0.4,170,0.4,170l-22.8,2c0,0,4.4-81,1.6-136c-2.8-55.2-6.8-202.6-11.4-210.2"/>
<path class="st1" d="M3256.5-118.4c0,0-5,79.2-4.6,140.2c0.2,7.2,0.4,14,0.4,19.8c0,0,0,0,0,0.2c0.4,15-0.2,21.6-1.4,23.2
	c-4,35.4,0.4,170,0.4,170l-22.8,2c0,0,4.4-81,1.6-136c-2.8-55.2-6.8-202.6-11.4-210.2"/>
<path class="st1" d="M3279.9-101.2c0.2-0.2,0.4-0.5,0.6-0.8c6.4-7.5-0.7-20.2-0.7-20.2s-9-20.2-10.1-20.2
	c-160.1-0.4-291.5-0.2-376.7-0.2c-188-0.2-317.6,0.1-349.2,0.2c-4.7,0-11.1,18.5-11.6,20.1c-0.6,0.1-0.1,0.1-0.1,0.1
	s-0.4,11.6,3.4,21.2c0,0-1.8,0.2,4.2,0.2c50.8,0.1,109.7,0.2,168.6,0.2c58.9,0,117.7,0,168.4-0.2c36.6,0,74.8,0.1,112.5,0.1
	c147.6,0,286.3-0.3,286.3-0.3C3281.5-101,3279.9-101.2,3279.9-101.2z"/>
<path class="st1" d="M3279.8-101.2c7.6-7.4,0-21,0-21s1.8-0.2-4.2-0.2c-162.8-0.4-296.4-0.2-382.6-0.2
	c-217.2-0.2-356.6,0.2-356.6,0.2c-5.8,0-4.2,0.2-4.2,0.2s-0.4,11.6,3.4,21.2c0,0-1.8,0.2,4.2,0.2c101.6,0.2,235.6,0.2,337,0
	c180.4,0.2,398.8-0.2,398.8-0.2C3281.4-101,3279.8-101.2,3279.8-101.2z"/>
<path class="st0" d="M3380.1-502.9c-4.6,7.6-8.6,155-11.4,210.2c-2.8,55,1.6,136,1.6,136l-22.8-2c0,0,4.4-134.6,0.4-170
	c-1.2-1.6-1.8-8.2-1.4-23.2c0-0.2,0-0.2,0-0.2c0-5.8,0.2-12.6,0.4-19.8c0.4-61-4.6-140.2-4.6-140.2"/>
<path class="st1" d="M4021.1-500.9c-4.6,7.6-8.6,155-11.4,210.2c-2.8,55,1.6,136,1.6,136l-22.8-2c0,0,4.4-134.6,0.4-170
	c-1.2-1.6-1.8-8.2-1.4-23.2c0-0.2,0-0.2,0-0.2c0-5.8,0.2-12.6,0.4-19.8c0.4-61-4.6-140.2-4.6-140.2"/>
<path class="st1" d="M3360.1-500.9c-4.6,7.6-8.6,155-11.4,210.2c-2.8,55,1.6,136,1.6,136l-22.8-2c0,0,4.4-134.6,0.4-170
	c-1.2-1.6-1.8-8.2-1.4-23.2c0-0.2,0-0.2,0-0.2c0-5.8,0.2-12.6,0.4-19.8c0.4-61-4.6-140.2-4.6-140.2"/>
<path class="st1" d="M3303.2-492.7c0,0,218.4,0.4,398.8,0.2c101.4,0.2,235.4,0.2,337,0c6,0,4.2-0.2,4.2-0.2
	c3.8-9.6,3.4-21.2,3.4-21.2s1.6-0.2-4.2-0.2c0,0-139.4-0.4-356.6-0.2c-86.2,0-219.8-0.2-382.6,0.2c-6,0-4.2,0.2-4.2,0.2
	s-7.6,13.6,0,21C3299-492.9,3297.4-492.7,3303.2-492.7z"/>
<path class="st0" d="M4051.1-131.2c-4.6,7.6-8.6,155-11.4,210.2c-2.8,55,1.6,136,1.6,136l-22.8-2c0,0,4.4-134.6,0.4-170
	c-1.2-1.6-1.8-8.2-1.4-23.2c0-0.2,0-0.2,0-0.2c0-5.8,0.2-12.6,0.4-19.8c0.4-61-4.6-140.2-4.6-140.2"/>
<path class="st1" d="M3333.2-121c0,0,218.4,0.4,398.8,0.2c101.4,0.2,235.4,0.2,337,0c6,0,4.2-0.2,4.2-0.2c3.8-9.6,3.4-21.2,3.4-21.2
	s1.6-0.2-4.2-0.2c0,0-139.4-0.4-356.6-0.2c-86.2,0-219.8-0.2-382.6,0.2c-6,0-4.2,0.2-4.2,0.2s-7.6,13.6,0,21
	C3329-121.2,3327.4-121,3333.2-121z"/>
<path class="st1" d="M4031.1-109.2c-4.6,7.6-8.6,155-11.4,210.2c-2.8,55,1.6,136,1.6,136l-22.8-2c0,0,4.4-134.6,0.4-170
	c-1.2-1.6-1.8-8.2-1.4-23.2c0-0.2,0-0.2,0-0.2c0-5.8,0.2-12.6,0.4-19.8c0.4-61-4.6-140.2-4.6-140.2"/>
<path class="st1" d="M3313.2-101c0,0,218.4,0.4,398.8,0.2c101.4,0.2,235.4,0.2,337,0c6,0,4.2-0.2,4.2-0.2c3.8-9.6,3.4-21.2,3.4-21.2
	s1.6-0.2-4.2-0.2c0,0-139.4-0.4-356.6-0.2c-86.2,0-219.8-0.2-382.6,0.2c-6,0-4.2,0.2-4.2,0.2s-7.6,13.6,0,21
	C3309-101.2,3307.4-101,3313.2-101z"/>
<path class="st0" d="M2462.9-144.1c0,0-5,79.2-4.6,140.2c0.2,7.2,0.4,14,0.4,19.8c0,0,0,0,0,0.2c0.4,15-0.2,21.6-1.4,23.2
	c-4,35.4,0.4,170,0.4,170l-22.8,2c0,0,4.4-81,1.6-136c-2.8-55.2-6.8-202.6-11.4-210.2"/>
<path class="st1" d="M2482.9-122.1c0,0-5,79.2-4.6,140.2c0.2,7.2,0.4,14,0.4,19.8c0,0,0,0,0,0.2c0.4,15-0.2,21.6-1.4,23.2
	c-4,35.4,0.4,170,0.4,170l-22.8,2c0,0,4.4-81,1.6-136c-2.8-55.2-6.8-202.6-11.4-210.2"/>
<path class="st0" d="M1792.4-514.2c0,0-5,79.2-4.6,140.2c0.2,7.2,0.4,14,0.4,19.8c0,0,0,0,0,0.2c0.4,15-0.2,21.6-1.4,23.2
	c-4,35.4,0.4,170,0.4,170l-22.8,2c0,0,4.4-81,1.6-136c-2.8-55.2-6.8-202.6-11.4-210.2"/>
<path class="st1" d="M2476.7-495c7.6-7.4,0-21,0-21s1.8-0.2-4.2-0.2c-162.8-0.4-296.4-0.2-382.6-0.2c-217.2-0.2-356.6,0.2-356.6,0.2
	c-5.8,0-4.2,0.2-4.2,0.2s-0.4,11.6,3.4,21.2c0,0-1.8,0.2,4.2,0.2c101.6,0.2,235.6,0.2,337,0c180.4,0.2,398.8-0.2,398.8-0.2
	C2478.3-494.8,2476.7-495,2476.7-495z"/>
<path class="st0" d="M2453.4-514.2c0,0-5,79.2-4.6,140.2c0.2,7.2,0.4,14,0.4,19.8c0,0,0,0,0,0.2c0.4,15-0.2,21.6-1.4,23.2
	c-4,35.4,0.4,170,0.4,170l-22.8,2c0,0,4.4-81,1.6-136c-2.8-55.2-6.8-202.6-11.4-210.2"/>
<path class="st1" d="M1812.4-512.2c0,0-5,79.2-4.6,140.2c0.2,7.2,0.4,14,0.4,19.8c0,0,0,0,0,0.2c0.4,15-0.2,21.6-1.4,23.2
	c-4,35.4,0.4,170,0.4,170l-22.8,2c0,0,4.4-81,1.6-136c-2.8-55.2-6.8-202.6-11.4-210.2"/>
<path class="st1" d="M2473.4-512.2c0,0-5,79.2-4.6,140.2c0.2,7.2,0.4,14,0.4,19.8c0,0,0,0,0,0.2c0.4,15-0.2,21.6-1.4,23.2
	c-4,35.4,0.4,170,0.4,170l-22.8,2c0,0,4.4-81,1.6-136c-2.8-55.2-6.8-202.6-11.4-210.2"/>
<path class="st1" d="M2496.7-495c7.6-7.4,0-21,0-21s1.8-0.2-4.2-0.2c-162.8-0.4-296.4-0.2-382.6-0.2c-217.2-0.2-356.6,0.2-356.6,0.2
	c-5.8,0-4.2,0.2-4.2,0.2s-0.4,11.6,3.4,21.2c0,0-1.8,0.2,4.2,0.2c101.6,0.2,235.6,0.2,337,0c180.4,0.2,398.8-0.2,398.8-0.2
	C2498.3-494.8,2496.7-495,2496.7-495z"/>
<path class="st0" d="M1801.9-144.1c0,0-5,79.2-4.6,140.2c0.2,7.2,0.4,14,0.4,19.8c0,0,0,0,0,0.2c0.4,15-0.2,21.6-1.4,23.2
	c-4,35.4,0.4,170,0.4,170l-22.8,2c0,0,4.4-81,1.6-136c-2.8-55.2-6.8-202.6-11.4-210.2"/>
<path class="st1" d="M2486.2-124.9c7.6-7.4,0-21,0-21s1.8-0.2-4.2-0.2c-162.8-0.4-296.4-0.2-382.6-0.2
	c-217.2-0.2-356.6,0.2-356.6,0.2c-5.8,0-4.2,0.2-4.2,0.2s-0.4,11.6,3.4,21.2c0,0-1.8,0.2,4.2,0.2c101.6,0.2,235.6,0.2,337,0
	c180.4,0.2,398.8-0.2,398.8-0.2C2487.8-124.7,2486.2-124.9,2486.2-124.9z"/>
<path class="st1" d="M1821.9-122.1c0,0-5,79.2-4.6,140.2c0.2,7.2,0.4,14,0.4,19.8c0,0,0,0,0,0.2c0.4,15-0.2,21.6-1.4,23.2
	c-4,35.4,0.4,170,0.4,170l-22.8,2c0,0,4.4-81,1.6-136c-2.8-55.2-6.8-202.6-11.4-210.2"/>
<path class="st1" d="M2506.2-104.9c7.6-7.4,0-21,0-21s1.8-0.2-4.2-0.2c-162.8-0.4-296.4-0.2-382.6-0.2
	c-217.2-0.2-356.6,0.2-356.6,0.2c-5.8,0-4.2,0.2-4.2,0.2s-0.4,11.6,3.4,21.2c0,0-1.8,0.2,4.2,0.2c101.6,0.2,235.6,0.2,337,0
	c180.4,0.2,398.8-0.2,398.8-0.2C2507.8-104.7,2506.2-104.9,2506.2-104.9z"/>
<path class="st0" d="M2597.5-514.1c0,0-5,79.2-4.6,140.2c0.2,7.2,0.4,14,0.4,19.8c0,0,0,0,0,0.2c0.4,15-0.2,21.6-1.4,23.2
	c-4,35.4,0.4,170,0.4,170l-22.8,2c0,0,4.4-81,1.6-136c-2.8-55.2-6.8-202.6-11.4-210.2"/>
<path class="st0" d="M3218.5-514.1c0,0-5,79.2-4.6,140.2c0.2,7.2,0.4,14,0.4,19.8c0,0,0,0,0,0.2c0.4,15-0.2,21.6-1.4,23.2
	c-4,35.4,0.4,170,0.4,170l-22.8,2c0,0,4.4-81,1.6-136c-2.8-55.2-6.8-202.6-11.4-210.2"/>
<path class="st1" d="M2577.5-512.1c0,0-5,79.2-4.6,140.2c0.2,7.2,0.4,14,0.4,19.8c0,0,0,0,0,0.2c0.4,15-0.2,21.6-1.4,23.2
	c-4,35.4,0.4,170,0.4,170l-22.8,2c0,0,4.4-81,1.6-136c-2.8-55.2-6.8-202.6-11.4-210.2"/>
<path class="st1" d="M3238.5-512.1c0,0-5,79.2-4.6,140.2c0.2,7.2,0.4,14,0.4,19.8c0,0,0,0,0,0.2c0.4,15-0.2,21.6-1.4,23.2
	c-4,35.4,0.4,170,0.4,170l-22.8,2c0,0,4.4-81,1.6-136c-2.8-55.2-6.8-202.6-11.4-210.2"/>
<path class="st1" d="M3261.8-494.9c7.6-7.4,0-21,0-21s1.8-0.2-4.2-0.2c-162.8-0.4-296.4-0.2-382.6-0.2
	c-217.2-0.2-356.6,0.2-356.6,0.2c-5.8,0-4.2,0.2-4.2,0.2s-0.4,11.6,3.4,21.2c0,0-1.8,0.2,4.2,0.2c101.6,0.2,235.6,0.2,337,0
	c180.4,0.2,398.8-0.2,398.8-0.2C3263.4-494.7,3261.8-494.9,3261.8-494.9z"/>
<path class="st0" d="M4032.8-894.9c-4.6,7.6-8.6,155-11.4,210.2c-2.8,55,1.6,136,1.6,136l-22.8-2c0,0,4.4-134.6,0.4-170
	c-1.2-1.6-1.8-8.2-1.4-23.2c0-0.2,0-0.2,0-0.2c0-5.8,0.2-12.6,0.4-19.8c0.4-61-4.6-140.2-4.6-140.2"/>
<path class="st0" d="M3371.8-894.9c-4.6,7.6-8.6,155-11.4,210.2c-2.8,55,1.6,136,1.6,136l-22.8-2c0,0,4.4-134.6,0.4-170
	c-1.2-1.6-1.8-8.2-1.4-23.2c0-0.2,0-0.2,0-0.2c0-5.8,0.2-12.6,0.4-19.8c0.4-61-4.6-140.2-4.6-140.2"/>
<path class="st1" d="M4012.8-912.9c-4.6,7.6-8.6,155-11.4,210.2c-2.8,55,1.6,136,1.6,136l-22.8-2c0,0,4.4-134.6,0.4-170
	c-1.2-1.6-1.8-8.2-1.4-23.2c0-0.2,0-0.2,0-0.2c0-5.8,0.2-12.6,0.4-19.8c0.4-61-4.6-140.2-4.6-140.2"/>
<path class="st1" d="M3351.8-912.9c-4.6,7.6-8.6,155-11.4,210.2c-2.8,55,1.6,136,1.6,136l-22.8-2c0,0,4.4-134.6,0.4-170
	c-1.2-1.6-1.8-8.2-1.4-23.2c0-0.2,0-0.2,0-0.2c0-5.8,0.2-12.6,0.4-19.8c0.4-61-4.6-140.2-4.6-140.2"/>
<path class="st1" d="M3294.9-904.7c0,0,218.4,0.4,398.8,0.2c101.4,0.2,235.4,0.2,337,0c6,0,4.2-0.2,4.2-0.2
	c3.8-9.6,3.4-21.2,3.4-21.2s1.6-0.2-4.2-0.2c0,0-139.4-0.4-356.6-0.2c-86.2,0-219.8-0.2-382.6,0.2c-6,0-4.2,0.2-4.2,0.2
	s-7.6,13.6,0,21C3290.7-904.9,3289.1-904.7,3294.9-904.7z"/>
<path class="st0" d="M1784.1-906.3c0,0-5,79.2-4.6,140.2c0.2,7.2,0.4,14,0.4,19.8c0,0,0,0,0,0.2c0.4,15-0.2,21.6-1.4,23.2
	c-4,35.4,0.4,170,0.4,170l-22.8,2c0,0,4.4-81,1.6-136c-2.8-55.2-6.8-202.6-11.4-210.2"/>
<path class="st0" d="M2445.1-906.3c0,0-5,79.2-4.6,140.2c0.2,7.2,0.4,14,0.4,19.8c0,0,0,0,0,0.2c0.4,15-0.2,21.6-1.4,23.2
	c-4,35.4,0.4,170,0.4,170l-22.8,2c0,0,4.4-81,1.6-136c-2.8-55.2-6.8-202.6-11.4-210.2"/>
<path class="st1" d="M1804.1-924.3c0,0-5,79.2-4.6,140.2c0.2,7.2,0.4,14,0.4,19.8c0,0,0,0,0,0.2c0.4,15-0.2,21.6-1.4,23.2
	c-4,35.4,0.4,170,0.4,170l-22.8,2c0,0,4.4-81,1.6-136c-2.8-55.2-6.8-202.6-11.4-210.2"/>
<path class="st1" d="M2465.1-924.3c0,0-5,79.2-4.6,140.2c0.2,7.2,0.4,14,0.4,19.8c0,0,0,0,0,0.2c0.4,15-0.2,21.6-1.4,23.2
	c-4,35.4,0.4,170,0.4,170l-22.8,2c0,0,4.4-81,1.6-136c-2.8-55.2-6.8-202.6-11.4-210.2"/>
<path class="st1" d="M2488.4-907.1c7.6-7.4,0-21,0-21s1.8-0.2-4.2-0.2c-162.8-0.4-296.4-0.2-382.6-0.2
	c-217.2-0.2-356.6,0.2-356.6,0.2c-5.8,0-4.2,0.2-4.2,0.2s-0.4,11.6,3.4,21.2c0,0-1.8,0.2,4.2,0.2c101.6,0.2,235.6,0.2,337,0
	c180.4,0.2,398.8-0.2,398.8-0.2C2490-906.9,2488.4-907.1,2488.4-907.1z"/>
<path class="st0" d="M2589.2-896.9c-4.6,7.6-8.6,155-11.4,210.2c-2.8,55,1.6,136,1.6,136l-22.8-2c0,0,4.4-134.6,0.4-170
	c-1.2-1.6-1.8-8.2-1.4-23.2c0-0.2,0-0.2,0-0.2c0-5.8,0.2-12.6,0.4-19.8c0.4-61-4.6-140.2-4.6-140.2"/>
<path class="st0" d="M3210.2-906.1c0,0-5,79.2-4.6,140.2c0.2,7.2,0.4,14,0.4,19.8c0,0,0,0,0,0.2c0.4,15-0.2,21.6-1.4,23.2
	c-4,35.4,0.4,170,0.4,170l-22.8,2c0,0,4.4-81,1.6-136c-2.8-55.2-6.8-202.6-11.4-210.2"/>
<path class="st1" d="M2569.2-924.1c0,0-5,79.2-4.6,140.2c0.2,7.2,0.4,14,0.4,19.8c0,0,0,0,0,0.2c0.4,15-0.2,21.6-1.4,23.2
	c-4,35.4,0.4,170,0.4,170l-22.8,2c0,0,4.4-81,1.6-136c-2.8-55.2-6.8-202.6-11.4-210.2"/>
<path class="st1" d="M3230.2-924.1c0,0-5,79.2-4.6,140.2c0.2,7.2,0.4,14,0.4,19.8c0,0,0,0,0,0.2c0.4,15-0.2,21.6-1.4,23.2
	c-4,35.4,0.4,170,0.4,170l-22.8,2c0,0,4.4-81,1.6-136c-2.8-55.2-6.8-202.6-11.4-210.2"/>
<path class="st1" d="M3253.5-906.9c7.6-7.4,0-21,0-21s1.8-0.2-4.2-0.2c-162.8-0.4-296.4-0.2-382.6-0.2
	c-217.2-0.2-356.6,0.2-356.6,0.2c-5.8,0-4.2,0.2-4.2,0.2s-0.4,11.6,3.4,21.2c0,0-1.8,0.2,4.2,0.2c101.6,0.2,235.6,0.2,337,0
	c180.4,0.2,398.8-0.2,398.8-0.2C3255.1-906.7,3253.5-906.9,3253.5-906.9z"/>
<path class="st0" d="M697.6,3155.1c0,0-5,79.2-4.6,140.2c0.2,7.2,0.4,14,0.4,19.8c0,0,0,0,0,0.2c0.4,15-0.2,21.6-1.4,23.2
	c-4,35.4,0.4,170,0.4,170l-22.8,2c0,0,4.4-81,1.6-136c-2.8-55.2-6.8-202.6-11.4-210.2"/>
<path class="st0" d="M1318.6,3155.1c0,0-5,79.2-4.6,140.2c0.2,7.2,0.4,14,0.4,19.8c0,0,0,0,0,0.2c0.4,15-0.2,21.6-1.4,23.2
	c-4,35.4,0.4,170,0.4,170l-22.8,2c0,0,4.4-81,1.6-136c-2.8-55.2-6.8-202.6-11.4-210.2"/>
<path class="st1" d="M677.6,3177.1c0,0-5,79.2-4.6,140.2c0.2,7.2,0.4,14,0.4,19.8c0,0,0,0,0,0.2c0.4,15-0.2,21.6-1.4,23.2
	c-4,35.4,0.4,170,0.4,170l-22.8,2c0,0,4.4-81,1.6-136c-2.8-55.2-6.8-202.6-11.4-210.2"/>
<path class="st1" d="M1338.6,3177.1c0,0-5,79.2-4.6,140.2c0.2,7.2,0.4,14,0.4,19.8c0,0,0,0,0,0.2c0.4,15-0.2,21.6-1.4,23.2
	c-4,35.4,0.4,170,0.4,170l-22.8,2c0,0,4.4-81,1.6-136c-2.8-55.2-6.8-202.6-11.4-210.2"/>
<path class="st1" d="M1362,3194.3c0.2-0.2,0.4-0.5,0.6-0.8c6.4-7.5-0.7-20.2-0.7-20.2s-9-20.2-10.1-20.2
	c-160.1-0.4-291.5-0.2-376.7-0.2c-188-0.2-317.6,0.1-349.2,0.2c-4.7,0-11.1,18.5-11.6,20.1c-0.6,0.1-0.1,0.1-0.1,0.1
	s-0.4,11.6,3.4,21.2c0,0-1.8,0.2,4.2,0.2c50.8,0.1,109.7,0.2,168.6,0.2s117.7,0,168.4-0.2c36.6,0,74.8,0.1,112.5,0.1
	c147.6,0,286.3-0.3,286.3-0.3C1363.6,3194.5,1362,3194.3,1362,3194.3z"/>
<path class="st1" d="M1361.9,3194.3c7.6-7.4,0-21,0-21s1.8-0.2-4.2-0.2c-162.8-0.4-296.4-0.2-382.6-0.2
	c-217.2-0.2-356.6,0.2-356.6,0.2c-5.8,0-4.2,0.2-4.2,0.2s-0.4,11.6,3.4,21.2c0,0-1.8,0.2,4.2,0.2c101.6,0.2,235.6,0.2,337,0
	c180.4,0.2,398.8-0.2,398.8-0.2C1363.5,3194.5,1361.9,3194.3,1361.9,3194.3z"/>
<g>
	<g class="st2">
		<path class="st3" d="M1180.1,3120.9v32.6c0,0,0,6.5,1.5,7.9c1.5,1.2,38.7,0,39.8,0c1,0,2.5,0,2.5-5.2c0-3.9-1.1-25.4-1.7-35.8"/>
		<path id="XMLID_18_" class="st3" d="M1051.6,3134.5c0,0-1.1,2.3,2.5,2.5c113.5,2.8,294.4-0.1,294.4-0.1c3.5-0.3,2.5-2.5,2.5-2.5
			c4.6-73.9,0-211.3,0-211.3s1.1-2.3-2.5-2.5c-176.5-5.5-296.4-0.1-296.4-0.1c-3.5,0.3-2.5,2.5-2.5,2.5S1049.2,3038.7,1051.6,3134.5
			z"/>
		<path id="XMLID_17_" class="st3" d="M1061,2941.8c0,0-1.4-7.9,5.7-8.1c0,0,120.6-9.3,268.9,0.1c6.9,0.4,5.7,8.1,5.7,8.1
			s1.2,102.1-2.5,173.4c0,0,1.4,7.9-5.7,8.1c0,0-114.9,6.4-264.1,0.1c-6.9-0.3-5.7-8.1-5.7-8.1L1061,2941.8z"/>
		<path id="XMLID_16_" class="st3" d="M1082.4,2945.2c-5.8-0.6-8.6,5.8-8.6,5.8s-0.1,149.2,2.7,155.3c0,0,2.8,6.1,8.6,5.8
			c0,0,212.3,2.5,231.2-0.1c5.8-0.8,8.6-5.8,8.6-5.8s4.1-137.6,2.6-155c0,0-2.8-6.1-8.6-5.8
			C1318.9,2945.4,1089,2945.8,1082.4,2945.2z"/>
		<path id="XMLID_15_" class="st3" d="M1084.1,2962.8c1.1,3.2,1.8,5.7,2.2,7.6c0.8,3.7,3.7,4.3,5.5,2.6c2.8-2.6,2.5-5.8,1.7-8.6
			c-0.4-1.8,1-3.3,2.8-4.3c1.4-0.7,5-1.9,1.1-2.9c-2.1-0.6-4.7-1-7-1.1C1086,2956.1,1082.3,2957.5,1084.1,2962.8z"/>
	</g>
	<g>
		<path class="st1" d="M1190.1,3110.9v32.6c0,0,0,6.5,1.5,7.9c1.5,1.2,38.7,0,39.8,0c1,0,2.5,0,2.5-5.2c0-3.9-1.1-25.4-1.7-35.8"/>
		<path id="XMLID_14_" class="st1" d="M1061.6,3124.5c0,0-1.1,2.3,2.5,2.5c113.5,2.8,294.4-0.1,294.4-0.1c3.5-0.3,2.5-2.5,2.5-2.5
			c4.6-73.9,0-211.3,0-211.3s1.1-2.3-2.5-2.5c-176.5-5.5-296.4-0.1-296.4-0.1c-3.5,0.3-2.5,2.5-2.5,2.5S1059.2,3028.7,1061.6,3124.5
			z"/>
		<path id="XMLID_13_" class="st1" d="M1071,2931.8c0,0-1.4-7.9,5.7-8.1c0,0,120.6-9.3,268.9,0.1c6.9,0.4,5.7,8.1,5.7,8.1
			s1.2,102.1-2.5,173.4c0,0,1.4,7.9-5.7,8.1c0,0-114.9,6.4-264.1,0.1c-6.9-0.3-5.7-8.1-5.7-8.1L1071,2931.8z"/>
		<path id="XMLID_12_" class="st4" d="M1092.4,2935.2c-5.8-0.6-8.6,5.8-8.6,5.8s-0.1,149.2,2.7,155.3c0,0,2.8,6.1,8.6,5.8
			c0,0,212.3,2.5,231.2-0.1c5.8-0.8,8.6-5.8,8.6-5.8s4.1-137.6,2.6-155c0,0-2.8-6.1-8.6-5.8
			C1328.9,2935.4,1099,2935.8,1092.4,2935.2z"/>
		<path id="XMLID_11_" class="st1" d="M1094.1,2952.8c1.1,3.2,1.8,5.7,2.2,7.6c0.8,3.7,3.7,4.3,5.5,2.6c2.8-2.6,2.5-5.8,1.7-8.6
			c-0.4-1.8,1-3.3,2.8-4.3c1.4-0.7,5-1.9,1.1-2.9c-2.1-0.6-4.7-1-7-1.1C1096,2946.1,1092.3,2947.5,1094.1,2952.8z"/>
	</g>
</g>
<g>
	<g class="st2">
		<path class="st3" d="M750.1,3102.6v47.2c0,0,0,9.4,2.8,11.4c2.8,1.8,72.6,0,74.6,0s4.8,0,4.8-7.6c0-5.6-2-36.8-3-51.8"/>
		<path id="XMLID_33_" class="st3" d="M623.7,3123.6c0,0-1.2,3.4,2.8,3.6c126,4,326.4-0.2,326.4-0.2c4-0.4,2.8-3.6,2.8-3.6
			c5.2-106.8,0-305.2,0-305.2s1.2-3.4-2.8-3.6c-195.8-8-328.6-0.2-328.6-0.2c-4,0.4-2.8,3.6-2.8,3.6S621.1,2985.4,623.7,3123.6z"/>
		<path id="XMLID_32_" class="st3" d="M634.1,2842.8c0,0-1.4-9.6,6.2-10c0,0,133.8-11.2,298.4,0.2c7.6,0.6,6.2,10,6.2,10
			s1.4,125-2.8,212.4c0,0,1.4,9.6-6.2,10c0,0-127.4,7.8-292.8,0.2c-7.6-0.4-6.2-10-6.2-10L634.1,2842.8z"/>
		<path id="XMLID_31_" class="st3" d="M657.9,2846.8c-6.4-0.6-9.6,7.2-9.6,7.2s-0.2,182.6,2.8,190.2c0,0,3.2,7.4,9.6,7.2
			c0,0,235.4,3,256.4-0.2c6.4-1,9.6-7.2,9.6-7.2s4.6-168.6,2.8-189.8c0,0-3.2-7.4-9.6-7.2C920.1,2847,665.3,2847.6,657.9,2846.8z"/>
		<path id="XMLID_30_" class="st3" d="M668.9,2875.6c1.6,4.6,2.6,8.2,3.2,11c1.2,5.4,5.4,6.2,8,3.8c4-3.8,3.6-8.4,2.4-12.4
			c-0.6-2.6,1.4-4.8,4-6.2c2-1,7.2-2.8,1.6-4.2c-3-0.8-6.8-1.4-10.2-1.6C671.7,2866,666.3,2868,668.9,2875.6z"/>
		<path id="XMLID_29_" class="st3" d="M623.7,3128.2c0,0-1.2,0.4,2.8,0.6c126,0.6,326.4,0,326.4,0c4,0,2.8-0.6,2.8-0.6
			c5.2-15.2,0-43.4,0-43.4s1.2-0.4-2.8-0.6c-195.8-1.2-328.6,0-328.6,0c-4,0-2.8,0.6-2.8,0.6S621.1,3108.6,623.7,3128.2z"/>
	</g>
	<g>
		<path class="st1" d="M740.1,3092.6v47.2c0,0,0,9.4,2.8,11.4c2.8,1.8,72.6,0,74.6,0s4.8,0,4.8-7.6c0-5.6-2-36.8-3-51.8"/>
		<path id="XMLID_10_" class="st1" d="M613.7,3113.6c0,0-1.2,3.4,2.8,3.6c126,4,326.4-0.2,326.4-0.2c4-0.4,2.8-3.6,2.8-3.6
			c5.2-106.8,0-305.2,0-305.2s1.2-3.4-2.8-3.6c-195.8-8-328.6-0.2-328.6-0.2c-4,0.4-2.8,3.6-2.8,3.6S611.1,2975.4,613.7,3113.6z"/>
		<path id="XMLID_9_" class="st1" d="M624.1,2832.8c0,0-1.4-9.6,6.2-10c0,0,133.8-11.2,298.4,0.2c7.6,0.6,6.2,10,6.2,10
			s1.4,125-2.8,212.4c0,0,1.4,9.6-6.2,10c0,0-127.4,7.8-292.8,0.2c-7.6-0.4-6.2-10-6.2-10L624.1,2832.8z"/>
		<path id="XMLID_8_" class="st4" d="M647.9,2836.8c-6.4-0.6-9.6,7.2-9.6,7.2s-0.2,182.6,2.8,190.2c0,0,3.2,7.4,9.6,7.2
			c0,0,235.4,3,256.4-0.2c6.4-1,9.6-7.2,9.6-7.2s4.6-168.6,2.8-189.8c0,0-3.2-7.4-9.6-7.2C910.1,2837,655.3,2837.6,647.9,2836.8z"/>
		<path id="XMLID_7_" class="st1" d="M658.9,2865.6c1.6,4.6,2.6,8.2,3.2,11c1.2,5.4,5.4,6.2,8,3.8c4-3.8,3.6-8.4,2.4-12.4
			c-0.6-2.6,1.4-4.8,4-6.2c2-1,7.2-2.8,1.6-4.2c-3-0.8-6.8-1.4-10.2-1.6C661.7,2856,656.3,2858,658.9,2865.6z"/>
		<path id="XMLID_6_" class="st1" d="M613.7,3118.2c0,0-1.2,0.4,2.8,0.6c126,0.6,326.4,0,326.4,0c4,0,2.8-0.6,2.8-0.6
			c5.2-15.2,0-43.4,0-43.4s1.2-0.4-2.8-0.6c-195.8-1.2-328.6,0-328.6,0c-4,0-2.8,0.6-2.8,0.6S611.1,3098.6,613.7,3118.2z"/>
	</g>
</g>
<g>
	<g class="st2">
		<g>
			<path class="st3" d="M956.5,3131.5v23.6c0,0,0,4.7,1.1,5.7c1.1,0.9,28,0,28.8,0c0.7,0,1.8,0,1.8-3.8c0-2.8-0.8-18.4-1.2-25.9"/>
			<path id="XMLID_28_" class="st3" d="M863.5,3141.3c0,0-0.8,1.7,1.8,1.8c82.2,2,213.1-0.1,213.1-0.1c2.5-0.2,1.8-1.8,1.8-1.8
				c3.3-53.5,0-153,0-153s0.8-1.7-1.8-1.8c-127.8-4-214.6-0.1-214.6-0.1c-2.5,0.2-1.8,1.8-1.8,1.8S861.8,3072,863.5,3141.3z"/>
			<path id="XMLID_27_" class="st3" d="M870.3,3001.8c0,0-1-5.7,4.1-5.9c0,0,87.3-6.7,194.7,0.1c5,0.3,4.1,5.9,4.1,5.9
				s0.9,73.9-1.8,125.5c0,0,1,5.7-4.1,5.9c0,0-83.2,4.6-191.2,0.1c-5-0.2-4.1-5.9-4.1-5.9L870.3,3001.8z"/>
			<path id="XMLID_26_" class="st3" d="M885.8,3004.3c-4.2-0.4-6.2,4.2-6.2,4.2s-0.1,108,1.9,112.4c0,0,2,4.4,6.2,4.2
				c0,0,153.7,1.8,167.4-0.1c4.2-0.6,6.2-4.2,6.2-4.2s3-99.6,1.9-112.2c0,0-2-4.4-6.2-4.2C1057,3004.4,890.6,3004.7,885.8,3004.3z"
				/>
			<path id="XMLID_25_" class="st3" d="M887,3017c0.8,2.3,1.3,4.1,1.6,5.5c0.6,2.7,2.7,3.1,4,1.9c2-1.9,1.8-4.2,1.2-6.2
				c-0.3-1.3,0.7-2.4,2-3.1c1-0.5,3.6-1.4,0.8-2.1c-1.5-0.4-3.4-0.7-5.1-0.8C888.4,3012.2,885.7,3013.2,887,3017z"/>
		</g>
		<path id="XMLID_24_" class="st3" d="M844.1,3162.9c0,0-0.9,0.2,2.1,0.2c96.7,0.3,250.7,0,250.7,0c2.9,0,2.1-0.2,2.1-0.2
			c3.9-6.8,0-19.5,0-19.5s0.9-0.2-2.1-0.2c-150.3-0.5-252.4,0-252.4,0c-2.9,0-2.1,0.2-2.1,0.2S842.1,3154.1,844.1,3162.9z"/>
	</g>
	<g>
		<path id="XMLID_23_" class="st1" d="M844.1,3152.9c0,0-0.9,0.2,2.1,0.2c96.7,0.3,250.7,0,250.7,0c2.9,0,2.1-0.2,2.1-0.2
			c3.9-6.8,0-19.5,0-19.5s0.9-0.2-2.1-0.2c-150.3-0.5-252.4,0-252.4,0c-2.9,0-2.1,0.2-2.1,0.2S842.1,3144.1,844.1,3152.9z"/>
		<path class="st1" d="M955.9,3134v9.9c0,0,0,2,1.1,2.4c1.1,0.4,28,0,28.8,0c0.7,0,1.8,0,1.8-1.6c0-1.2-0.8-7.8-1.2-10.9"/>
		<g>
			<path id="XMLID_22_" class="st1" d="M863.5,3131.3c0,0-0.8,1.7,1.8,1.8c82.2,2,213.1-0.1,213.1-0.1c2.5-0.2,1.8-1.8,1.8-1.8
				c3.3-53.5,0-153,0-153s0.8-1.7-1.8-1.8c-127.8-4-214.6-0.1-214.6-0.1c-2.5,0.2-1.8,1.8-1.8,1.8S861.8,3062,863.5,3131.3z"/>
			<path id="XMLID_21_" class="st1" d="M870.3,2991.8c0,0-1-5.7,4.1-5.9c0,0,87.3-6.7,194.7,0.1c5,0.3,4.1,5.9,4.1,5.9
				s0.9,73.9-1.8,125.5c0,0,1,5.7-4.1,5.9c0,0-83.2,4.6-191.2,0.1c-5-0.2-4.1-5.9-4.1-5.9L870.3,2991.8z"/>
			<path id="XMLID_20_" class="st4" d="M885.8,2994.3c-4.2-0.4-6.2,4.2-6.2,4.2s-0.1,108,1.9,112.4c0,0,2,4.4,6.2,4.2
				c0,0,153.7,1.8,167.4-0.1c4.2-0.6,6.2-4.2,6.2-4.2s3-99.6,1.9-112.2c0,0-2-4.4-6.2-4.2C1057,2994.4,890.6,2994.7,885.8,2994.3z"
				/>
			<path id="XMLID_19_" class="st1" d="M887,3007c0.8,2.3,1.3,4.1,1.6,5.5c0.6,2.7,2.7,3.1,4,1.9c2-1.9,1.8-4.2,1.2-6.2
				c-0.3-1.3,0.7-2.4,2-3.1c1-0.5,3.6-1.4,0.8-2.1c-1.5-0.4-3.4-0.7-5.1-0.8C888.4,3002.2,885.7,3003.2,887,3007z"/>
		</g>
	</g>
</g>
<path class="st0" d="M1395.7,1526.3c0,0,218.4,0.4,398.8,0.2c101.4,0.2,235.4,0.2,337,0c6,0,4.2-0.2,4.2-0.2
	c3.8-9.6,3.4-21.2,3.4-21.2s1.6-0.2-4.2-0.2c0,0-139.4-0.4-356.6-0.2c-86.2,0-219.8-0.2-382.6,0.2c-6,0-4.2,0.2-4.2,0.2
	s-7.6,13.6,0,21C1391.5,1526.1,1389.9,1526.3,1395.7,1526.3z"/>
<path class="st0" d="M549.1,1524c7.6-7.4,0-21,0-21s1.8-0.2-4.2-0.2c-162.8-0.4-296.4-0.2-382.6-0.2c-217.2-0.2-356.6,0.2-356.6,0.2
	c-5.8,0-4.2,0.2-4.2,0.2s-0.4,11.6,3.4,21.2c0,0-1.8,0.2,4.2,0.2c101.6,0.2,235.6,0.2,337,0c180.4,0.2,398.8-0.2,398.8-0.2
	C550.7,1524.2,549.1,1524,549.1,1524z"/>
<path class="st0" d="M1334.2,1525.1c7.6-7.4,0-21,0-21s1.8-0.2-4.2-0.2c-162.8-0.4-296.4-0.2-382.6-0.2
	c-217.2-0.2-356.6,0.2-356.6,0.2c-5.8,0-4.2,0.2-4.2,0.2s-0.4,11.6,3.4,21.2c0,0-1.8,0.2,4.2,0.2c101.6,0.2,235.6,0.2,337,0
	c180.4,0.2,398.8-0.2,398.8-0.2C1335.8,1525.3,1334.2,1525.1,1334.2,1525.1z"/>
<path class="st0" d="M1470.9,3169.8c-4.6,7.6-8.6,155-11.4,210.2c-2.8,55,1.6,136,1.6,136l-22.8-2c0,0,4.4-134.6,0.4-170
	c-1.2-1.6-1.8-8.2-1.4-23.2c0-0.2,0-0.2,0-0.2c0-5.8,0.2-12.6,0.4-19.8c0.4-61-4.6-140.2-4.6-140.2"/>
<path class="st1" d="M1450.9,3191.8c-4.6,7.6-8.6,155-11.4,210.2c-2.8,55,1.6,136,1.6,136l-22.8-2c0,0,4.4-134.6,0.4-170
	c-1.2-1.6-1.8-8.2-1.4-23.2c0-0.2,0-0.2,0-0.2c0-5.8,0.2-12.6,0.4-19.8c0.4-61-4.6-140.2-4.6-140.2"/>
<path class="st0" d="M2121.9,2398.2c-4.6,7.6-8.6,155-11.4,210.2c-2.8,55,1.6,136,1.6,136l-22.8-2c0,0,4.4-134.6,0.4-170
	c-1.2-1.6-1.8-8.2-1.4-23.2c0-0.2,0-0.2,0-0.2c0-5.8,0.2-12.6,0.4-19.8c0.4-61-4.6-140.2-4.6-140.2"/>
<path class="st1" d="M1404,2408.4c0,0,218.4,0.4,398.8,0.2c101.4,0.2,235.4,0.2,337,0c6,0,4.2-0.2,4.2-0.2
	c3.8-9.6,3.4-21.2,3.4-21.2s1.6-0.2-4.2-0.2c0,0-139.4-0.4-356.6-0.2c-86.2,0-219.8-0.2-382.6,0.2c-6,0-4.2,0.2-4.2,0.2
	s-7.6,13.6,0,21C1399.8,2408.2,1398.2,2408.4,1404,2408.4z"/>
<path class="st0" d="M1460.9,2398.2c-4.6,7.6-8.6,155-11.4,210.2c-2.8,55,1.6,136,1.6,136l-22.8-2c0,0,4.4-134.6,0.4-170
	c-1.2-1.6-1.8-8.2-1.4-23.2c0-0.2,0-0.2,0-0.2c0-5.8,0.2-12.6,0.4-19.8c0.4-61-4.6-140.2-4.6-140.2"/>
<path class="st1" d="M2101.9,2400.2c-4.6,7.6-8.6,155-11.4,210.2c-2.8,55,1.6,136,1.6,136l-22.8-2c0,0,4.4-134.6,0.4-170
	c-1.2-1.6-1.8-8.2-1.4-23.2c0-0.2,0-0.2,0-0.2c0-5.8,0.2-12.6,0.4-19.8c0.4-61-4.6-140.2-4.6-140.2"/>
<path class="st1" d="M1440.9,2400.2c-4.6,7.6-8.6,155-11.4,210.2c-2.8,55,1.6,136,1.6,136l-22.8-2c0,0,4.4-134.6,0.4-170
	c-1.2-1.6-1.8-8.2-1.4-23.2c0-0.2,0-0.2,0-0.2c0-5.8,0.2-12.6,0.4-19.8c0.4-61-4.6-140.2-4.6-140.2"/>
<path class="st1" d="M1384,2408.4c0,0,218.4,0.4,398.8,0.2c101.4,0.2,235.4,0.2,337,0c6,0,4.2-0.2,4.2-0.2
	c3.8-9.6,3.4-21.2,3.4-21.2s1.6-0.2-4.2-0.2c0,0-139.4-0.4-356.6-0.2c-86.2,0-219.8-0.2-382.6,0.2c-6,0-4.2,0.2-4.2,0.2
	s-7.6,13.6,0,21C1379.8,2408.2,1378.2,2408.4,1384,2408.4z"/>
<path class="st0" d="M2131.9,3169.8c-4.6,7.6-8.6,155-11.4,210.2c-2.8,55,1.6,136,1.6,136l-22.8-2c0,0,4.4-134.6,0.4-170
	c-1.2-1.6-1.8-8.2-1.4-23.2c0-0.2,0-0.2,0-0.2c0-5.8,0.2-12.6,0.4-19.8c0.4-61-4.6-140.2-4.6-140.2"/>
<path class="st1" d="M1414,3180c0,0,218.4,0.4,398.8,0.2c101.4,0.2,235.4,0.2,337,0c6,0,4.2-0.2,4.2-0.2c3.8-9.6,3.4-21.2,3.4-21.2
	s1.6-0.2-4.2-0.2c0,0-139.4-0.4-356.6-0.2c-86.2,0-219.8-0.2-382.6,0.2c-6,0-4.2,0.2-4.2,0.2s-7.6,13.6,0,21
	C1409.8,3179.8,1408.2,3180,1414,3180z"/>
<path class="st1" d="M2111.9,3191.8c-4.6,7.6-8.6,155-11.4,210.2c-2.8,55,1.6,136,1.6,136l-22.8-2c0,0,4.4-134.6,0.4-170
	c-1.2-1.6-1.8-8.2-1.4-23.2c0-0.2,0-0.2,0-0.2c0-5.8,0.2-12.6,0.4-19.8c0.4-61-4.6-140.2-4.6-140.2"/>
<path class="st1" d="M1394,3200c0,0,218.4,0.4,398.8,0.2c101.4,0.2,235.4,0.2,337,0c6,0,4.2-0.2,4.2-0.2c3.8-9.6,3.4-21.2,3.4-21.2
	s1.6-0.2-4.2-0.2c0,0-139.4-0.4-356.6-0.2c-86.2,0-219.8-0.2-382.6,0.2c-6,0-4.2,0.2-4.2,0.2s-7.6,13.6,0,21
	C1389.8,3199.8,1388.2,3200,1394,3200z"/>
<path class="st0" d="M543.6,3157c0,0-5,79.2-4.6,140.2c0.2,7.2,0.4,14,0.4,19.8c0,0,0,0,0,0.2c0.4,15-0.2,21.6-1.4,23.2
	c-4,35.4,0.4,170,0.4,170l-22.8,2c0,0,4.4-81,1.6-136c-2.8-55.2-6.8-202.6-11.4-210.2"/>
<path class="st1" d="M563.6,3179c0,0-5,79.2-4.6,140.2c0.2,7.2,0.4,14,0.4,19.8c0,0,0,0,0,0.2c0.4,15-0.2,21.6-1.4,23.2
	c-4,35.4,0.4,170,0.4,170l-22.8,2c0,0,4.4-81,1.6-136c-2.8-55.2-6.8-202.6-11.4-210.2"/>
<path class="st0" d="M-126.9,2386.8c0,0-5,79.2-4.6,140.2c0.2,7.2,0.4,14,0.4,19.8c0,0,0,0,0,0.2c0.4,15-0.2,21.6-1.4,23.2
	c-4,35.4,0.4,170,0.4,170l-22.8,2c0,0,4.4-81,1.6-136c-2.8-55.2-6.8-202.6-11.4-210.2"/>
<path class="st1" d="M557.4,2406c7.6-7.4,0-21,0-21s1.8-0.2-4.2-0.2c-162.8-0.4-296.4-0.2-382.6-0.2c-217.2-0.2-356.6,0.2-356.6,0.2
	c-5.8,0-4.2,0.2-4.2,0.2s-0.4,11.6,3.4,21.2c0,0-1.8,0.2,4.2,0.2c101.6,0.2,235.6,0.2,337,0c180.4,0.2,398.8-0.2,398.8-0.2
	C559,2406.2,557.4,2406,557.4,2406z"/>
<path class="st0" d="M534.1,2386.8c0,0-5,79.2-4.6,140.2c0.2,7.2,0.4,14,0.4,19.8c0,0,0,0,0,0.2c0.4,15-0.2,21.6-1.4,23.2
	c-4,35.4,0.4,170,0.4,170l-22.8,2c0,0,4.4-81,1.6-136c-2.8-55.2-6.8-202.6-11.4-210.2"/>
<path class="st1" d="M-106.9,2388.8c0,0-5,79.2-4.6,140.2c0.2,7.2,0.4,14,0.4,19.8c0,0,0,0,0,0.2c0.4,15-0.2,21.6-1.4,23.2
	c-4,35.4,0.4,170,0.4,170l-22.8,2c0,0,4.4-81,1.6-136c-2.8-55.2-6.8-202.6-11.4-210.2"/>
<path class="st1" d="M554.1,2388.8c0,0-5,79.2-4.6,140.2c0.2,7.2,0.4,14,0.4,19.8c0,0,0,0,0,0.2c0.4,15-0.2,21.6-1.4,23.2
	c-4,35.4,0.4,170,0.4,170l-22.8,2c0,0,4.4-81,1.6-136c-2.8-55.2-6.8-202.6-11.4-210.2"/>
<path class="st1" d="M577.4,2406c7.6-7.4,0-21,0-21s1.8-0.2-4.2-0.2c-162.8-0.4-296.4-0.2-382.6-0.2c-217.2-0.2-356.6,0.2-356.6,0.2
	c-5.8,0-4.2,0.2-4.2,0.2s-0.4,11.6,3.4,21.2c0,0-1.8,0.2,4.2,0.2c101.6,0.2,235.6,0.2,337,0c180.4,0.2,398.8-0.2,398.8-0.2
	C579,2406.2,577.4,2406,577.4,2406z"/>
<path class="st0" d="M-117.4,3157c0,0-5,79.2-4.6,140.2c0.2,7.2,0.4,14,0.4,19.8c0,0,0,0,0,0.2c0.4,15-0.2,21.6-1.4,23.2
	c-4,35.4,0.4,170,0.4,170l-22.8,2c0,0,4.4-81,1.6-136c-2.8-55.2-6.8-202.6-11.4-210.2"/>
<path class="st1" d="M566.9,3176.2c7.6-7.4,0-21,0-21s1.8-0.2-4.2-0.2c-162.8-0.4-296.4-0.2-382.6-0.2
	c-217.2-0.2-356.6,0.2-356.6,0.2c-5.8,0-4.2,0.2-4.2,0.2s-0.4,11.6,3.4,21.2c0,0-1.8,0.2,4.2,0.2c101.6,0.2,235.6,0.2,337,0
	c180.4,0.2,398.8-0.2,398.8-0.2C568.5,3176.4,566.9,3176.2,566.9,3176.2z"/>
<path class="st1" d="M-97.4,3179c0,0-5,79.2-4.6,140.2c0.2,7.2,0.4,14,0.4,19.8c0,0,0,0,0,0.2c0.4,15-0.2,21.6-1.4,23.2
	c-4,35.4,0.4,170,0.4,170l-22.8,2c0,0,4.4-81,1.6-136c-2.8-55.2-6.8-202.6-11.4-210.2"/>
<path class="st1" d="M586.9,3196.2c7.6-7.4,0-21,0-21s1.8-0.2-4.2-0.2c-162.8-0.4-296.4-0.2-382.6-0.2
	c-217.2-0.2-356.6,0.2-356.6,0.2c-5.8,0-4.2,0.2-4.2,0.2s-0.4,11.6,3.4,21.2c0,0-1.8,0.2,4.2,0.2c101.6,0.2,235.6,0.2,337,0
	c180.4,0.2,398.8-0.2,398.8-0.2C588.5,3196.4,586.9,3196.2,586.9,3196.2z"/>
<path class="st0" d="M678.2,2387c0,0-5,79.2-4.6,140.2c0.2,7.2,0.4,14,0.4,19.8c0,0,0,0,0,0.2c0.4,15-0.2,21.6-1.4,23.2
	c-4,35.4,0.4,170,0.4,170l-22.8,2c0,0,4.4-81,1.6-136c-2.8-55.2-6.8-202.6-11.4-210.2"/>
<path class="st0" d="M1299.2,2387c0,0-5,79.2-4.6,140.2c0.2,7.2,0.4,14,0.4,19.8c0,0,0,0,0,0.2c0.4,15-0.2,21.6-1.4,23.2
	c-4,35.4,0.4,170,0.4,170l-22.8,2c0,0,4.4-81,1.6-136c-2.8-55.2-6.8-202.6-11.4-210.2"/>
<path class="st1" d="M658.2,2389c0,0-5,79.2-4.6,140.2c0.2,7.2,0.4,14,0.4,19.8c0,0,0,0,0,0.2c0.4,15-0.2,21.6-1.4,23.2
	c-4,35.4,0.4,170,0.4,170l-22.8,2c0,0,4.4-81,1.6-136c-2.8-55.2-6.8-202.6-11.4-210.2"/>
<path class="st1" d="M1319.2,2389c0,0-5,79.2-4.6,140.2c0.2,7.2,0.4,14,0.4,19.8c0,0,0,0,0,0.2c0.4,15-0.2,21.6-1.4,23.2
	c-4,35.4,0.4,170,0.4,170l-22.8,2c0,0,4.4-81,1.6-136c-2.8-55.2-6.8-202.6-11.4-210.2"/>
<path class="st1" d="M1342.5,2406.2c7.6-7.4,0-21,0-21s1.8-0.2-4.2-0.2c-162.8-0.4-296.4-0.2-382.6-0.2
	c-217.2-0.2-356.6,0.2-356.6,0.2c-5.8,0-4.2,0.2-4.2,0.2s-0.4,11.6,3.4,21.2c0,0-1.8,0.2,4.2,0.2c101.6,0.2,235.6,0.2,337,0
	c180.4,0.2,398.8-0.2,398.8-0.2C1344.1,2406.4,1342.5,2406.2,1342.5,2406.2z"/>
<path class="st0" d="M2113.6,1516.1c-4.6,7.6-8.6,155-11.4,210.2c-2.8,55,1.6,136,1.6,136l-22.8-2c0,0,4.4-134.6,0.4-170
	c-1.2-1.6-1.8-8.2-1.4-23.2c0-0.2,0-0.2,0-0.2c0-5.8,0.2-12.6,0.4-19.8c0.4-61-4.6-140.2-4.6-140.2"/>
<path class="st0" d="M1452.6,1516.1c-4.6,7.6-8.6,155-11.4,210.2c-2.8,55,1.6,136,1.6,136l-22.8-2c0,0,4.4-134.6,0.4-170
	c-1.2-1.6-1.8-8.2-1.4-23.2c0-0.2,0-0.2,0-0.2c0-5.8,0.2-12.6,0.4-19.8c0.4-61-4.6-140.2-4.6-140.2"/>
<path class="st1" d="M2093.6,1498.1c-4.6,7.6-8.6,155-11.4,210.2c-2.8,55,1.6,136,1.6,136l-22.8-2c0,0,4.4-134.6,0.4-170
	c-1.2-1.6-1.8-8.2-1.4-23.2c0-0.2,0-0.2,0-0.2c0-5.8,0.2-12.6,0.4-19.8c0.4-61-4.6-140.2-4.6-140.2"/>
<path class="st1" d="M1432.6,1498.1c-4.6,7.6-8.6,155-11.4,210.2c-2.8,55,1.6,136,1.6,136l-22.8-2c0,0,4.4-134.6,0.4-170
	c-1.2-1.6-1.8-8.2-1.4-23.2c0-0.2,0-0.2,0-0.2c0-5.8,0.2-12.6,0.4-19.8c0.4-61-4.6-140.2-4.6-140.2"/>
<path class="st1" d="M1375.7,1506.3c0,0,218.4,0.4,398.8,0.2c101.4,0.2,235.4,0.2,337,0c6,0,4.2-0.2,4.2-0.2
	c3.8-9.6,3.4-21.2,3.4-21.2s1.6-0.2-4.2-0.2c0,0-139.4-0.4-356.6-0.2c-86.2,0-219.8-0.2-382.6,0.2c-6,0-4.2,0.2-4.2,0.2
	s-7.6,13.6,0,21C1371.5,1506.1,1369.9,1506.3,1375.7,1506.3z"/>
<path class="st0" d="M-135.2,1504.8c0,0-5,79.2-4.6,140.2c0.2,7.2,0.4,14,0.4,19.8c0,0,0,0,0,0.2c0.4,15-0.2,21.6-1.4,23.2
	c-4,35.4,0.4,170,0.4,170l-22.8,2c0,0,4.4-81,1.6-136c-2.8-55.2-6.8-202.6-11.4-210.2"/>
<path class="st0" d="M525.8,1504.8c0,0-5,79.2-4.6,140.2c0.2,7.2,0.4,14,0.4,19.8c0,0,0,0,0,0.2c0.4,15-0.2,21.6-1.4,23.2
	c-4,35.4,0.4,170,0.4,170l-22.8,2c0,0,4.4-81,1.6-136c-2.8-55.2-6.8-202.6-11.4-210.2"/>
<path class="st1" d="M-115.2,1486.8c0,0-5,79.2-4.6,140.2c0.2,7.2,0.4,14,0.4,19.8c0,0,0,0,0,0.2c0.4,15-0.2,21.6-1.4,23.2
	c-4,35.4,0.4,170,0.4,170l-22.8,2c0,0,4.4-81,1.6-136c-2.8-55.2-6.8-202.6-11.4-210.2"/>
<path class="st1" d="M545.8,1486.8c0,0-5,79.2-4.6,140.2c0.2,7.2,0.4,14,0.4,19.8c0,0,0,0,0,0.2c0.4,15-0.2,21.6-1.4,23.2
	c-4,35.4,0.4,170,0.4,170l-22.8,2c0,0,4.4-81,1.6-136c-2.8-55.2-6.8-202.6-11.4-210.2"/>
<path class="st1" d="M569.1,1504c7.6-7.4,0-21,0-21s1.8-0.2-4.2-0.2c-162.8-0.4-296.4-0.2-382.6-0.2c-217.2-0.2-356.6,0.2-356.6,0.2
	c-5.8,0-4.2,0.2-4.2,0.2s-0.4,11.6,3.4,21.2c0,0-1.8,0.2,4.2,0.2c101.6,0.2,235.6,0.2,337,0c180.4,0.2,398.8-0.2,398.8-0.2
	C570.7,1504.2,569.1,1504,569.1,1504z"/>
<path class="st0" d="M669.9,1514.1c-4.6,7.6-8.6,155-11.4,210.2c-2.8,55,1.6,136,1.6,136l-22.8-2c0,0,4.4-134.6,0.4-170
	c-1.2-1.6-1.8-8.2-1.4-23.2c0-0.2,0-0.2,0-0.2c0-5.8,0.2-12.6,0.4-19.8c0.4-61-4.6-140.2-4.6-140.2"/>
<path class="st0" d="M1290.9,1504.9c0,0-5,79.2-4.6,140.2c0.2,7.2,0.4,14,0.4,19.8c0,0,0,0,0,0.2c0.4,15-0.2,21.6-1.4,23.2
	c-4,35.4,0.4,170,0.4,170l-22.8,2c0,0,4.4-81,1.6-136c-2.8-55.2-6.8-202.6-11.4-210.2"/>
<path class="st1" d="M649.9,1486.9c0,0-5,79.2-4.6,140.2c0.2,7.2,0.4,14,0.4,19.8c0,0,0,0,0,0.2c0.4,15-0.2,21.6-1.4,23.2
	c-4,35.4,0.4,170,0.4,170l-22.8,2c0,0,4.4-81,1.6-136c-2.8-55.2-6.8-202.6-11.4-210.2"/>
<path class="st1" d="M1310.9,1486.9c0,0-5,79.2-4.6,140.2c0.2,7.2,0.4,14,0.4,19.8c0,0,0,0,0,0.2c0.4,15-0.2,21.6-1.4,23.2
	c-4,35.4,0.4,170,0.4,170l-22.8,2c0,0,4.4-81,1.6-136c-2.8-55.2-6.8-202.6-11.4-210.2"/>
<path class="st1" d="M1334.2,1504.1c7.6-7.4,0-21,0-21s1.8-0.2-4.2-0.2c-162.8-0.4-296.4-0.2-382.6-0.2
	c-217.2-0.2-356.6,0.2-356.6,0.2c-5.8,0-4.2,0.2-4.2,0.2s-0.4,11.6,3.4,21.2c0,0-1.8,0.2,4.2,0.2c101.6,0.2,235.6,0.2,337,0
	c180.4,0.2,398.8-0.2,398.8-0.2C1335.8,1504.3,1334.2,1504.1,1334.2,1504.1z"/>
<g>
	<g class="st2">
		<path class="st3" d="M1154.9,1448.2v32.6c0,0,0,6.5,1.5,7.9c1.5,1.2,38.7,0,39.8,0c1,0,2.5,0,2.5-5.2c0-3.9-1.1-25.4-1.7-35.8"/>
		<path id="XMLID_84_" class="st3" d="M1026.4,1461.8c0,0-1.1,2.3,2.5,2.5c113.5,2.8,294.4-0.1,294.4-0.1c3.5-0.3,2.5-2.5,2.5-2.5
			c4.6-73.9,0-211.3,0-211.3s1.1-2.3-2.5-2.5c-176.5-5.5-296.4-0.1-296.4-0.1c-3.5,0.3-2.5,2.5-2.5,2.5S1024,1366,1026.4,1461.8z"/>
		<path id="XMLID_83_" class="st3" d="M1035.8,1269.1c0,0-1.4-7.9,5.7-8.1c0,0,120.6-9.3,268.9,0.1c6.9,0.4,5.7,8.1,5.7,8.1
			s1.2,102.1-2.5,173.4c0,0,1.4,7.9-5.7,8.1c0,0-114.9,6.4-264.1,0.1c-6.9-0.3-5.7-8.1-5.7-8.1L1035.8,1269.1z"/>
		<path id="XMLID_82_" class="st3" d="M1057.2,1272.5c-5.8-0.6-8.6,5.8-8.6,5.8s-0.1,149.2,2.7,155.3c0,0,2.8,6.1,8.6,5.8
			c0,0,212.3,2.5,231.2-0.1c5.8-0.8,8.6-5.8,8.6-5.8s4.1-137.6,2.6-155c0,0-2.8-6.1-8.6-5.8
			C1293.7,1272.7,1063.8,1273.1,1057.2,1272.5z"/>
		<path id="XMLID_81_" class="st3" d="M1058.9,1290.1c1.1,3.2,1.8,5.7,2.2,7.6c0.8,3.7,3.7,4.3,5.5,2.6c2.8-2.6,2.5-5.8,1.7-8.6
			c-0.4-1.8,1-3.3,2.8-4.3c1.4-0.7,5-1.9,1.1-2.9c-2.1-0.6-4.7-1-7-1.1C1060.8,1283.4,1057.1,1284.8,1058.9,1290.1z"/>
	</g>
	<g>
		<path class="st1" d="M1164.9,1438.2v32.6c0,0,0,6.5,1.5,7.9c1.5,1.2,38.7,0,39.8,0c1,0,2.5,0,2.5-5.2c0-3.9-1.1-25.4-1.7-35.8"/>
		<path id="XMLID_80_" class="st1" d="M1036.4,1451.8c0,0-1.1,2.3,2.5,2.5c113.5,2.8,294.4-0.1,294.4-0.1c3.5-0.3,2.5-2.5,2.5-2.5
			c4.6-73.9,0-211.3,0-211.3s1.1-2.3-2.5-2.5c-176.5-5.5-296.4-0.1-296.4-0.1c-3.5,0.3-2.5,2.5-2.5,2.5S1034,1356,1036.4,1451.8z"/>
		<path id="XMLID_79_" class="st1" d="M1045.8,1259.1c0,0-1.4-7.9,5.7-8.1c0,0,120.6-9.3,268.9,0.1c6.9,0.4,5.7,8.1,5.7,8.1
			s1.2,102.1-2.5,173.4c0,0,1.4,7.9-5.7,8.1c0,0-114.9,6.4-264.1,0.1c-6.9-0.3-5.7-8.1-5.7-8.1L1045.8,1259.1z"/>
		<path id="XMLID_78_" class="st4" d="M1067.2,1262.5c-5.8-0.6-8.6,5.8-8.6,5.8s-0.1,149.2,2.7,155.3c0,0,2.8,6.1,8.6,5.8
			c0,0,212.3,2.5,231.2-0.1c5.8-0.8,8.6-5.8,8.6-5.8s4.1-137.6,2.6-155c0,0-2.8-6.1-8.6-5.8
			C1303.7,1262.7,1073.8,1263.1,1067.2,1262.5z"/>
		<path id="XMLID_77_" class="st1" d="M1068.9,1280.1c1.1,3.2,1.8,5.7,2.2,7.6c0.8,3.7,3.7,4.3,5.5,2.6c2.8-2.6,2.5-5.8,1.7-8.6
			c-0.4-1.8,1-3.3,2.8-4.3c1.4-0.7,5-1.9,1.1-2.9c-2.1-0.6-4.7-1-7-1.1C1070.8,1273.4,1067.1,1274.8,1068.9,1280.1z"/>
	</g>
</g>
<g>
	<g class="st2">
		<path class="st3" d="M724.9,1429.9v47.2c0,0,0,9.4,2.8,11.4c2.8,1.8,72.6,0,74.6,0s4.8,0,4.8-7.6c0-5.6-2-36.8-3-51.8"/>
		<path id="XMLID_76_" class="st3" d="M598.5,1450.9c0,0-1.2,3.4,2.8,3.6c126,4,326.4-0.2,326.4-0.2c4-0.4,2.8-3.6,2.8-3.6
			c5.2-106.8,0-305.2,0-305.2s1.2-3.4-2.8-3.6c-195.8-8-328.6-0.2-328.6-0.2c-4,0.4-2.8,3.6-2.8,3.6S595.9,1312.7,598.5,1450.9z"/>
		<path id="XMLID_75_" class="st3" d="M608.9,1170.1c0,0-1.4-9.6,6.2-10c0,0,133.8-11.2,298.4,0.2c7.6,0.6,6.2,10,6.2,10
			s1.4,125-2.8,212.4c0,0,1.4,9.6-6.2,10c0,0-127.4,7.8-292.8,0.2c-7.6-0.4-6.2-10-6.2-10L608.9,1170.1z"/>
		<path id="XMLID_74_" class="st3" d="M632.7,1174.1c-6.4-0.6-9.6,7.2-9.6,7.2s-0.2,182.6,2.8,190.2c0,0,3.2,7.4,9.6,7.2
			c0,0,235.4,3,256.4-0.2c6.4-1,9.6-7.2,9.6-7.2s4.6-168.6,2.8-189.8c0,0-3.2-7.4-9.6-7.2C894.9,1174.3,640.1,1174.9,632.7,1174.1z"
			/>
		<path id="XMLID_73_" class="st3" d="M643.7,1202.9c1.6,4.6,2.6,8.2,3.2,11c1.2,5.4,5.4,6.2,8,3.8c4-3.8,3.6-8.4,2.4-12.4
			c-0.6-2.6,1.4-4.8,4-6.2c2-1,7.2-2.8,1.6-4.2c-3-0.8-6.8-1.4-10.2-1.6C646.5,1193.3,641.1,1195.3,643.7,1202.9z"/>
		<path id="XMLID_72_" class="st3" d="M598.5,1455.5c0,0-1.2,0.4,2.8,0.6c126,0.6,326.4,0,326.4,0c4,0,2.8-0.6,2.8-0.6
			c5.2-15.2,0-43.4,0-43.4s1.2-0.4-2.8-0.6c-195.8-1.2-328.6,0-328.6,0c-4,0-2.8,0.6-2.8,0.6S595.9,1435.9,598.5,1455.5z"/>
	</g>
	<g>
		<path class="st1" d="M714.9,1419.9v47.2c0,0,0,9.4,2.8,11.4c2.8,1.8,72.6,0,74.6,0s4.8,0,4.8-7.6c0-5.6-2-36.8-3-51.8"/>
		<path id="XMLID_71_" class="st1" d="M588.5,1440.9c0,0-1.2,3.4,2.8,3.6c126,4,326.4-0.2,326.4-0.2c4-0.4,2.8-3.6,2.8-3.6
			c5.2-106.8,0-305.2,0-305.2s1.2-3.4-2.8-3.6c-195.8-8-328.6-0.2-328.6-0.2c-4,0.4-2.8,3.6-2.8,3.6S585.9,1302.7,588.5,1440.9z"/>
		<path id="XMLID_70_" class="st1" d="M598.9,1160.1c0,0-1.4-9.6,6.2-10c0,0,133.8-11.2,298.4,0.2c7.6,0.6,6.2,10,6.2,10
			s1.4,125-2.8,212.4c0,0,1.4,9.6-6.2,10c0,0-127.4,7.8-292.8,0.2c-7.6-0.4-6.2-10-6.2-10L598.9,1160.1z"/>
		<path id="XMLID_69_" class="st4" d="M622.7,1164.1c-6.4-0.6-9.6,7.2-9.6,7.2s-0.2,182.6,2.8,190.2c0,0,3.2,7.4,9.6,7.2
			c0,0,235.4,3,256.4-0.2c6.4-1,9.6-7.2,9.6-7.2s4.6-168.6,2.8-189.8c0,0-3.2-7.4-9.6-7.2C884.9,1164.3,630.1,1164.9,622.7,1164.1z"
			/>
		<path id="XMLID_68_" class="st1" d="M633.7,1192.9c1.6,4.6,2.6,8.2,3.2,11c1.2,5.4,5.4,6.2,8,3.8c4-3.8,3.6-8.4,2.4-12.4
			c-0.6-2.6,1.4-4.8,4-6.2c2-1,7.2-2.8,1.6-4.2c-3-0.8-6.8-1.4-10.2-1.6C636.5,1183.3,631.1,1185.3,633.7,1192.9z"/>
		<path id="XMLID_67_" class="st1" d="M588.5,1445.5c0,0-1.2,0.4,2.8,0.6c126,0.6,326.4,0,326.4,0c4,0,2.8-0.6,2.8-0.6
			c5.2-15.2,0-43.4,0-43.4s1.2-0.4-2.8-0.6c-195.8-1.2-328.6,0-328.6,0c-4,0-2.8,0.6-2.8,0.6S585.9,1425.9,588.5,1445.5z"/>
	</g>
</g>
<g>
	<g class="st2">
		<g>
			<path class="st3" d="M931.3,1458.8v23.6c0,0,0,4.7,1.1,5.7c1.1,0.9,28,0,28.8,0c0.7,0,1.8,0,1.8-3.8c0-2.8-0.8-18.4-1.2-25.9"/>
			<path id="XMLID_66_" class="st3" d="M838.3,1468.6c0,0-0.8,1.7,1.8,1.8c82.2,2,213.1-0.1,213.1-0.1c2.5-0.2,1.8-1.8,1.8-1.8
				c3.3-53.5,0-153,0-153s0.8-1.7-1.8-1.8c-127.8-4-214.6-0.1-214.6-0.1c-2.5,0.2-1.8,1.8-1.8,1.8S836.6,1399.3,838.3,1468.6z"/>
			<path id="XMLID_65_" class="st3" d="M845.1,1329.1c0,0-1-5.7,4.1-5.9c0,0,87.3-6.7,194.7,0.1c5,0.3,4.1,5.9,4.1,5.9
				s0.9,73.9-1.8,125.5c0,0,1,5.7-4.1,5.9c0,0-83.2,4.6-191.2,0.1c-5-0.2-4.1-5.9-4.1-5.9L845.1,1329.1z"/>
			<path id="XMLID_64_" class="st3" d="M860.6,1331.6c-4.2-0.4-6.2,4.2-6.2,4.2s-0.1,108,1.9,112.4c0,0,2,4.4,6.2,4.2
				c0,0,153.7,1.8,167.4-0.1c4.2-0.6,6.2-4.2,6.2-4.2s3-99.6,1.9-112.2c0,0-2-4.4-6.2-4.2C1031.8,1331.7,865.4,1332,860.6,1331.6z"
				/>
			<path id="XMLID_63_" class="st3" d="M861.8,1344.3c0.8,2.3,1.3,4.1,1.6,5.5c0.6,2.7,2.7,3.1,4,1.9c2-1.9,1.8-4.2,1.2-6.2
				c-0.3-1.3,0.7-2.4,2-3.1c1-0.5,3.6-1.4,0.8-2.1c-1.5-0.4-3.4-0.7-5.1-0.8C863.2,1339.5,860.5,1340.5,861.8,1344.3z"/>
		</g>
		<path id="XMLID_62_" class="st3" d="M818.9,1490.2c0,0-0.9,0.2,2.1,0.2c96.7,0.3,250.7,0,250.7,0c2.9,0,2.1-0.2,2.1-0.2
			c3.9-6.8,0-19.5,0-19.5s0.9-0.2-2.1-0.2c-150.3-0.5-252.4,0-252.4,0c-2.9,0-2.1,0.2-2.1,0.2S816.9,1481.4,818.9,1490.2z"/>
	</g>
	<g>
		<path id="XMLID_61_" class="st1" d="M818.9,1480.2c0,0-0.9,0.2,2.1,0.2c96.7,0.3,250.7,0,250.7,0c2.9,0,2.1-0.2,2.1-0.2
			c3.9-6.8,0-19.5,0-19.5s0.9-0.2-2.1-0.2c-150.3-0.5-252.4,0-252.4,0c-2.9,0-2.1,0.2-2.1,0.2S816.9,1471.4,818.9,1480.2z"/>
		<path class="st1" d="M930.7,1461.3v9.9c0,0,0,2,1.1,2.4c1.1,0.4,28,0,28.8,0c0.7,0,1.8,0,1.8-1.6c0-1.2-0.8-7.8-1.2-10.9"/>
		<g>
			<path id="XMLID_60_" class="st1" d="M838.3,1458.6c0,0-0.8,1.7,1.8,1.8c82.2,2,213.1-0.1,213.1-0.1c2.5-0.2,1.8-1.8,1.8-1.8
				c3.3-53.5,0-153,0-153s0.8-1.7-1.8-1.8c-127.8-4-214.6-0.1-214.6-0.1c-2.5,0.2-1.8,1.8-1.8,1.8S836.6,1389.3,838.3,1458.6z"/>
			<path id="XMLID_59_" class="st1" d="M845.1,1319.1c0,0-1-5.7,4.1-5.9c0,0,87.3-6.7,194.7,0.1c5,0.3,4.1,5.9,4.1,5.9
				s0.9,73.9-1.8,125.5c0,0,1,5.7-4.1,5.9c0,0-83.2,4.6-191.2,0.1c-5-0.2-4.1-5.9-4.1-5.9L845.1,1319.1z"/>
			<path id="XMLID_58_" class="st4" d="M860.6,1321.6c-4.2-0.4-6.2,4.2-6.2,4.2s-0.1,108,1.9,112.4c0,0,2,4.4,6.2,4.2
				c0,0,153.7,1.8,167.4-0.1c4.2-0.6,6.2-4.2,6.2-4.2s3-99.6,1.9-112.2c0,0-2-4.4-6.2-4.2C1031.8,1321.7,865.4,1322,860.6,1321.6z"
				/>
			<path id="XMLID_57_" class="st1" d="M861.8,1334.3c0.8,2.3,1.3,4.1,1.6,5.5c0.6,2.7,2.7,3.1,4,1.9c2-1.9,1.8-4.2,1.2-6.2
				c-0.3-1.3,0.7-2.4,2-3.1c1-0.5,3.6-1.4,0.8-2.1c-1.5-0.4-3.4-0.7-5.1-0.8C863.2,1329.5,860.5,1330.5,861.8,1334.3z"/>
		</g>
	</g>
</g>
<g>
	<g>
		<g>
			<path class="st1" d="M896.7,2581.6c0,0-2.1,31.5-2.1,55.8c0.2,2.9,0.2,5.5,0.2,7.8l0,0c0.2,5.9,0,8.7-0.7,9.2
				c-1.7,14,0.2,67.5,0.2,67.5l-10,0.9c0,0,1.9-32.2,0.7-54c-1.2-21.8-2.9-80.5-5-83.6"/>
			<path class="st1" d="M926.1,2579.9c0,0-2.1,31.5-2.1,55.8c0.2,2.9,0.2,5.5,0.2,7.8l0,0c0.2,5.9,0,8.7-0.7,9.2
				c-1.7,14,0.2,67.5,0.2,67.5l-10,0.9c0,0,1.9-32.2,0.7-54c-1.2-21.8-2.9-80.5-5-83.6"/>
			<path class="st1" d="M800.2,2579.9c0,0,2.1,31.5,2.1,55.8c-0.2,2.9-0.2,5.5-0.2,7.8l0,0c-0.2,5.9,0,8.7,0.7,9.2
				c1.7,14-0.2,67.5-0.2,67.5l10,0.9c0,0-1.9-32.2-0.7-54c1.2-21.8,2.9-80.5,5-83.6"/>
			<path class="st1" d="M770.8,2578.1c0,0,2.1,31.5,2.1,55.8c-0.2,2.9-0.2,5.5-0.2,7.8l0,0c-0.2,5.9,0,8.7,0.7,9.2
				c1.7,14-0.2,67.5-0.2,67.5l10,0.9c0,0-1.9-32.2-0.7-54c1.2-21.8,2.9-80.5,5-83.6"/>
			<path class="st1" d="M925.8,2599.1c2.4-6.8,0-19.6,0-19.6s0.5-0.2-1.2-0.2c-0.2,0-0.3,0-0.3,0c-0.2,0-0.2,0-0.3,0
				c0,0-28.7-0.2-75.7-0.2c-47.1,0-75.7,0.2-75.7,0.2c-0.2,0-0.2,0-0.3,0s-0.3,0-0.3,0c-1.7,0-1.2,0.2-1.2,0.2s-2.4,12.6,0,19.6
				c0,0-0.5,0.2,1.2,0.2c0,0,0.5,0,1.4,0c0.2,0,0.2,0,0.3,0c22.2,0.2,49.5,0.2,74.6,0.2c25.3,0,52.5,0,74.6-0.2c0.2,0,0.3,0,0.3,0
				c0.9,0,1.4,0,1.4,0C926.3,2599.3,925.8,2599.1,925.8,2599.1z"/>
			<path class="st1" d="M907.4,2593.4c0,0,0.5-95.1,0-235.1c0-2.8-0.2-1.9-0.2-1.9s-113.8-2.4-118.3,0c0,0-0.2-0.9-0.2,1.9
				c0,0-0.3,143.4,0,233.6"/>
		</g>
	</g>
	<g>
		<g>
			<path class="st1" d="M1144.3,2583.3c0,0-2.1,31.5-2.1,55.8c0.2,2.9,0.2,5.5,0.2,7.8l0,0c0.2,5.9,0,8.7-0.7,9.2
				c-1.7,14,0.2,67.5,0.2,67.5l-10,0.9c0,0,1.9-32.2,0.7-54c-1.2-21.8-2.9-80.5-5-83.6"/>
			<path class="st1" d="M1173.7,2581.6c0,0-2.1,31.5-2.1,55.8c0.2,2.9,0.2,5.5,0.2,7.8l0,0c0.2,5.9,0,8.7-0.7,9.2
				c-1.7,14,0.2,67.5,0.2,67.5l-10,0.9c0,0,1.9-32.2,0.7-54c-1.2-21.8-2.9-80.5-5-83.6"/>
			<path class="st1" d="M1047.8,2581.6c0,0,2.1,31.5,2.1,55.8c-0.2,2.9-0.2,5.5-0.2,7.8l0,0c-0.2,5.9,0,8.7,0.7,9.2
				c1.7,14-0.2,67.5-0.2,67.5l10,0.9c0,0-1.9-32.2-0.7-54s2.9-80.5,5-83.6"/>
			<path class="st1" d="M1018.4,2579.9c0,0,2.1,31.5,2.1,55.8c-0.2,2.9-0.2,5.5-0.2,7.8l0,0c-0.2,5.9,0,8.7,0.7,9.2
				c1.7,14-0.2,67.5-0.2,67.5l10,0.9c0,0-1.9-32.2-0.7-54c1.2-21.8,2.9-80.5,5-83.6"/>
			<path class="st1" d="M1173.4,2600.8c2.4-6.8,0-19.6,0-19.6s0.5-0.2-1.2-0.2c-0.2,0-0.3,0-0.3,0c-0.2,0-0.2,0-0.3,0
				c0,0-28.7-0.2-75.7-0.2c-47.1,0-75.7,0.2-75.7,0.2c-0.2,0-0.2,0-0.3,0s-0.3,0-0.3,0c-1.7,0-1.2,0.2-1.2,0.2s-2.4,12.6,0,19.6
				c0,0-0.5,0.2,1.2,0.2c0,0,0.5,0,1.4,0c0.2,0,0.2,0,0.3,0c22.2,0.2,49.5,0.2,74.6,0.2c25.3,0,52.5,0,74.6-0.2c0.2,0,0.3,0,0.3,0
				c0.9,0,1.4,0,1.4,0C1173.9,2601,1173.4,2600.8,1173.4,2600.8z"/>
			<path class="st1" d="M1155,2595.1c0,0,0.5-95.1,0-235.1c0-2.8-0.2-1.9-0.2-1.9s-113.8-2.4-118.3,0c0,0-0.2-0.9-0.2,1.9
				c0,0-0.3,143.4,0,233.6"/>
		</g>
	</g>
</g>
<g>
	<path class="st1" d="M2318,2613.4c2.3-25.6-4.8-69.4-1.4-77.2c1.6-3.6,1.4-6.6-0.3-9.2c-8.7-12.6-52.6-13.7-71.3-13.5
		c-6.2-0.9-10-1-10-1c-3.8,0.7-7.6,1.6-11.1,2.4c-49.3,5.7-64.2,16.4-66,26.7c-1.4,8,5,170.6,5,175.6c-0.2,9.3,10,18,12.6,21
		c5.9,6.4,34.6,13.7,86.4,8.1c51.8-5.7,48.1-10.2,59.9-36.5c0.9-1.9,1.2-3.6,1-5.4C2322.2,2699.4,2314.8,2649.6,2318,2613.4z"/>
	<path id="XMLID_355_" class="st1" d="M2170.3,2564.6c-5.9-6.4-48.8-40.7,66.3-50.9c0,0,91.9-3.8,80.2,22.5
		c-11.8,26.3-8.1,30.8-59.9,36.5"/>
	<path id="XMLID_357_" class="st1" d="M2241.7,2687.3c0,0,91.9-3.8,80.2,22.5c-11.8,26.3-8.1,30.8-59.9,36.5s-80.5-1.6-86.4-8.1
		c-4.5-4.8-29.8-25.3,6.4-39.5"/>
	<path class="st1" d="M2261.9,2527.5c-0.2-0.5,1-38.1,0-41c-2.4-7.1-6.2-6.4-27-6.9c-21-0.5-21.6,12.3-21.6,12.3c0.5,2.3,0,41,0,41"
		/>
	<path id="XMLID_361_" class="st1" d="M2240.1,2501.2c-3.6,0.5-7.6,0.7-11.4,0.5"/>
	<path id="XMLID_358_" class="st1" d="M2221.4,2500.5c-4.2-1.4-7.3-4-8.1-8.5c0,0,0.7-12.8,21.6-12.3c21,0.5,24.8-0.2,27,6.9
		c2.4,7.1-4.7,11.4-10.2,12.5"/>
	<g>
		<path class="st1" d="M2261.9,2469.1c-2.4-7.1-6.2-6.4-27-6.9c-21-0.5-21.6,12.3-21.6,12.3c0.2,1.2,0,6.9,0,6.9
			c3.3,15.8,32.9,8.3,38.4,7.1c5.5-1,12.6-5.5,10.2-12.5C2261.9,2475.9,2262.8,2471.6,2261.9,2469.1z"/>
		<path id="XMLID_359_" class="st1" d="M2213.3,2474.5c0,0,0.7-12.8,21.6-12.3s24.8-0.2,27,6.9c2.4,7.1-4.7,11.4-10.2,12.5
			C2246.2,2482.8,2216.6,2490.4,2213.3,2474.5z"/>
	</g>
</g>
<g>
	<path class="st1" d="M2365,2720.9c-0.5,9.4,9.4,18.4,11.8,21.5c5.7,6.8,34.1,15.2,86.1,11.6c51.9-3.5,48.5-8.1,61.5-33.9
		c0.9-1.9,1.4-3.6,1.2-5.4c-0.2-2.8-4.8-85.4-2.8-90.2c1.6-3.6,1.4-6.6-0.3-9.2c-8.7-12.6-52.6-13.7-71.3-13.5c-6.2-0.9-10-1-10-1
		c-3.8,0.7-7.6,1.6-11.1,2.4c-49.3,5.7-64.2,16.4-66,26.7C2363.4,2632.3,2365,2719.2,2365,2720.9z"/>
	<path id="XMLID_584_" class="st1" d="M2376.4,2652.9c-5.9-6.4-48.8-40.7,66.3-50.9c0,0,91.9-3.8,80.2,22.5
		c-11.8,26.3-8.1,30.8-59.9,36.5"/>
	<path id="XMLID_583_" class="st1" d="M2445,2694.2c0,0,92.1,0,79.1,25.8c-13,25.8-9.5,30.5-61.5,33.9c-51.9,3.5-80.3-4.8-86.1-11.6
		c-4.2-5-28.6-26.5,8.1-39.3"/>
	<path class="st1" d="M2468,2615.8c-0.2-0.5,1-38.1,0-41c-2.4-7.1-6.2-6.4-27-6.9c-21-0.5-21.6,12.3-21.6,12.3c0.5,2.3,0,41,0,41"/>
	<path id="XMLID_582_" class="st1" d="M2446.2,2589.5c-3.6,0.5-7.6,0.7-11.4,0.5"/>
	<path id="XMLID_581_" class="st1" d="M2427.5,2588.8c-4.2-1.4-7.3-4-8.1-8.5c0,0,0.7-12.8,21.6-12.3c21,0.5,24.8-0.2,27,6.9
		c2.4,7.1-4.7,11.4-10.2,12.5"/>
	<g>
		<path class="st1" d="M2468,2557.5c-2.4-7.1-6.2-6.4-27-6.9c-21-0.5-21.6,12.3-21.6,12.3c0.2,1.2,0,6.9,0,6.9
			c3.3,15.8,32.9,8.3,38.4,7.1c5.5-1,12.6-5.5,10.2-12.5C2468,2564.2,2468.9,2559.9,2468,2557.5z"/>
		<path id="XMLID_580_" class="st1" d="M2419.3,2562.8c0,0,0.7-12.8,21.6-12.3c21,0.5,24.8-0.2,27,6.9c2.4,7.1-4.7,11.4-10.2,12.5
			C2452.2,2571.1,2422.6,2578.7,2419.3,2562.8z"/>
	</g>
</g>
<g>
	<path id="XMLID_331_" class="st1" d="M-123.2,2184.5c-1.4-0.3-2.1,4.2-2.1,4.2s0,104.6,0.7,108.9c0,0,0.7,4.3,2.1,4.2
		c0,0,52.6,1.7,57.3-0.2c1.4-0.5,2.1-4.2,2.1-4.2s1-96.4,0.7-108.6c0,0-0.7-4.3-2.1-4.2C-64.7,2184.6-121.7,2185-123.2,2184.5z"/>
	<g>
		<path class="st1" d="M-82,2279.9c0.7,0,1.4,0.2,1.7,0.3c0.3-28.2,0.7-82.6,0.5-91.4c0,0-0.7-4.3-2.1-4.2c0,0-57,0.3-58.5-0.2
			c-1.4-0.3-2.1,4.2-2.1,4.2s0,60.9,0.3,91.8c0.3-0.2,0.9-0.5,1.9-0.5C-139,2279.9-82,2279.9-82,2279.9z"/>
		<path class="st1" d="M-80.6,2297.3c0,0,0-6.9,0.2-17.1c-0.3-0.2-0.9-0.3-1.7-0.3c0,0-57,0-58.5,0c-0.9,0-1.6,0.3-1.9,0.5
			c0.2,9.5,0.2,16.1,0.3,17.1c0,0,0.7,4.3,2.1,4.2c0,0,22.7,0.7,39.5,0.7c8.8,0,16.1-0.2,17.7-0.9
			C-81.3,2301-80.6,2297.3-80.6,2297.3z"/>
	</g>
	<g>
		<g>
			<path id="XMLID_337_" class="st1" d="M-108.9,2283c0,0,12.8,9,0.3,14.9C-121,2303.7-124.5,2281.1-108.9,2283z"/>
			<g>
				<path id="XMLID_332_" class="st1" d="M-109.9,2286.1c0,0,7.6,5.4,0.2,8.8C-117,2298.4-119.1,2285-109.9,2286.1z"/>
			</g>
		</g>
	</g>
</g>
<g>
	<g>
		<path class="st1" d="M-36,2385.6c-9,0.3-63.2-0.2-91.4-0.5c-10.2-0.2-17.1-0.2-17.1-0.2s-3.5-0.7-4.2-2.1
			c-0.2-0.7-0.5-2.3-0.5-4.5c0.2-10,0.5-18,0.5-18c-0.2-1.4,4.2-2.1,4.2-2.1c1-0.2,7.6-0.3,17.1-0.3c30.6-0.3,91.8-0.3,91.8-0.3
			s3.1,0.5,3.8,1.6c0,2.8,0,5.4,0,7.8c0,4.5,0,10.7,0,17.3C-32.7,2385.1-36,2385.6-36,2385.6z"/>
		<path class="st1" d="M-53.3,2385.6c-9,0.3-63.2-0.2-91.4-0.5c-10.2-0.2-17.1-0.2-17.1-0.2s-3.5-0.7-4.2-2.1
			c-0.2-0.7-0.5-2.3-0.5-4.5c0.2-10,0.5-18,0.5-18c-0.2-1.4,4.2-2.1,4.2-2.1c1-0.2,7.6-0.3,17.1-0.3c30.6-0.3,91.8-0.3,91.8-0.3
			s3.1,0.5,3.8,1.6c0,2.8,0,5.4,0,7.8c0,4.5,0,10.7,0,17.3C-50,2385.1-53.3,2385.6-53.3,2385.6z"/>
	</g>
	<g>
		<path class="st1" d="M-162.5,2357.9c9,0.3,63.2-0.2,91.4-0.5c10.2-0.2,17.1-0.2,17.1-0.2s3.5-0.7,4.2-2.1c0.2-0.7,0.5-2.3,0.5-4.5
			c-0.2-10-0.5-18-0.5-18c0.2-1.4-4.2-2.1-4.2-2.1c-1-0.2-7.6-0.3-17.1-0.3c-30.6-0.3-91.8-0.3-91.8-0.3s-3.1,0.5-3.8,1.6
			c0,2.8,0,5.4,0,7.8c0,4.5,0,10.7,0,17.3C-165.8,2357.4-162.5,2357.9-162.5,2357.9z"/>
		<path class="st1" d="M-145.2,2357.9c9,0.3,63.2-0.2,91.4-0.5c10.2-0.2,17.1-0.2,17.1-0.2s3.5-0.7,4.2-2.1c0.2-0.7,0.5-2.3,0.5-4.5
			c-0.2-10-0.5-18-0.5-18c0.2-1.4-4.2-2.1-4.2-2.1c-1-0.2-7.6-0.3-17.1-0.3c-30.6-0.3-91.8-0.3-91.8-0.3s-3.1,0.5-3.8,1.6
			c0,2.8,0,5.4,0,7.8c0,4.5,0,10.7,0,17.3C-148.5,2357.4-145.2,2357.9-145.2,2357.9z"/>
	</g>
	<g>
		<path class="st1" d="M-36,2330.2c-9,0.3-63.2-0.2-91.4-0.5c-10.2-0.2-17.1-0.2-17.1-0.2s-3.5-0.7-4.2-2.1
			c-0.2-0.7-0.5-2.3-0.5-4.5c0.2-10,0.5-18,0.5-18c-0.2-1.4,4.2-2.1,4.2-2.1c1-0.2,7.6-0.3,17.1-0.3c30.6-0.3,91.8-0.3,91.8-0.3
			s3.1,0.5,3.8,1.6c0,2.8,0,5.4,0,7.8c0,4.5,0,10.7,0,17.3C-32.7,2329.7-36,2330.2-36,2330.2z"/>
		<path class="st1" d="M-53.3,2330.2c-9,0.3-63.2-0.2-91.4-0.5c-10.2-0.2-17.1-0.2-17.1-0.2s-3.5-0.7-4.2-2.1
			c-0.2-0.7-0.5-2.3-0.5-4.5c0.2-10,0.5-18,0.5-18c-0.2-1.4,4.2-2.1,4.2-2.1c1-0.2,7.6-0.3,17.1-0.3c30.6-0.3,91.8-0.3,91.8-0.3
			s3.1,0.5,3.8,1.6c0,2.8,0,5.4,0,7.8c0,4.5,0,10.7,0,17.3C-50,2329.7-53.3,2330.2-53.3,2330.2z"/>
	</g>
</g>
<g>
	<path id="XMLID_354_" class="st1" d="M-260,2376.6c-1.4-0.3-2.1,4.2-2.1,4.2s0,104.6,0.7,108.9c0,0,0.7,4.3,2.1,4.2
		c0,0,52.6,1.7,57.3-0.2c1.4-0.5,2.1-4.2,2.1-4.2s1-96.4,0.7-108.6c0,0-0.7-4.3-2.1-4.2C-201.5,2376.8-258.5,2377.2-260,2376.6z"/>
	<g>
		<path class="st1" d="M-218.8,2472c0.7,0,1.4,0.2,1.7,0.3c0.3-28.2,0.7-82.6,0.5-91.4c0,0-0.7-4.3-2.1-4.2c0,0-57,0.3-58.5-0.2
			c-1.4-0.3-2.1,4.2-2.1,4.2s0,60.9,0.3,91.8c0.3-0.2,0.9-0.5,1.9-0.5C-275.8,2472-218.8,2472-218.8,2472z"/>
		<path class="st1" d="M-217.4,2489.5c0,0,0-6.9,0.2-17.1c-0.3-0.2-0.9-0.3-1.7-0.3c0,0-57,0-58.5,0c-0.9,0-1.6,0.3-1.9,0.5
			c0.2,9.5,0.2,16.1,0.3,17.1c0,0,0.7,4.3,2.1,4.2c0,0,22.7,0.7,39.5,0.7c8.8,0,16.1-0.2,17.7-0.9
			C-218.1,2493.2-217.4,2489.5-217.4,2489.5z"/>
	</g>
	<g>
		<g>
			<path id="XMLID_347_" class="st1" d="M-245.7,2475.2c0,0,12.8,9,0.3,14.9C-257.8,2495.9-261.2,2473.3-245.7,2475.2z"/>
			<g>
				<path id="XMLID_339_" class="st1" d="M-246.7,2478.3c0,0,7.6,5.4,0.2,8.8C-253.8,2490.6-255.9,2477.2-246.7,2478.3z"/>
			</g>
		</g>
	</g>
</g>
<g>
	<g>
		<path class="st1" d="M-299.3,2716.4c9,0.3,63.2-0.2,91.4-0.5c10.2-0.2,17.1-0.2,17.1-0.2s3.5-0.7,4.2-2.1c0.2-0.7,0.5-2.3,0.5-4.5
			c-0.2-10-0.5-18-0.5-18c0.2-1.4-4.2-2.1-4.2-2.1c-1-0.2-7.6-0.3-17.1-0.3c-30.6-0.3-91.8-0.3-91.8-0.3s-3.1,0.5-3.8,1.6
			c0,2.8,0,5.4,0,7.8c0,4.5,0,10.7,0,17.3C-302.6,2715.8-299.3,2716.4-299.3,2716.4z"/>
		<path class="st1" d="M-282,2716.4c9,0.3,63.2-0.2,91.4-0.5c10.2-0.2,17.1-0.2,17.1-0.2s3.5-0.7,4.2-2.1c0.2-0.7,0.5-2.3,0.5-4.5
			c-0.2-10-0.5-18-0.5-18c0.2-1.4-4.2-2.1-4.2-2.1c-1-0.2-7.6-0.3-17.1-0.3c-30.6-0.3-91.8-0.3-91.8-0.3s-3.1,0.5-3.8,1.6
			c0,2.8,0,5.4,0,7.8c0,4.5,0,10.7,0,17.3C-285.3,2715.8-282,2716.4-282,2716.4z"/>
	</g>
	<g>
		<path class="st1" d="M-172.8,2688.7c-9,0.3-63.2-0.2-91.4-0.5c-10.2-0.2-17.1-0.2-17.1-0.2s-3.5-0.7-4.2-2.1
			c-0.2-0.7-0.5-2.3-0.5-4.5c0.2-10,0.5-18,0.5-18c-0.2-1.4,4.2-2.1,4.2-2.1c1-0.2,7.6-0.3,17.1-0.3c30.6-0.3,91.8-0.3,91.8-0.3
			s3.1,0.5,3.8,1.6c0,2.8,0,5.4,0,7.8c0,4.5,0,10.7,0,17.3C-169.5,2688.1-172.8,2688.7-172.8,2688.7z"/>
		<path class="st1" d="M-190.1,2688.7c-9,0.3-63.2-0.2-91.4-0.5c-10.2-0.2-17.1-0.2-17.1-0.2s-3.5-0.7-4.2-2.1
			c-0.2-0.7-0.5-2.3-0.5-4.5c0.2-10,0.5-18,0.5-18c-0.2-1.4,4.2-2.1,4.2-2.1c1-0.2,7.6-0.3,17.1-0.3c30.6-0.3,91.8-0.3,91.8-0.3
			s3.1,0.5,3.8,1.6c0,2.8,0,5.4,0,7.8c0,4.5,0,10.7,0,17.3C-186.8,2688.1-190.1,2688.7-190.1,2688.7z"/>
	</g>
	<g>
		<path class="st1" d="M-299.3,2661c9,0.3,63.2-0.2,91.4-0.5c10.2-0.2,17.1-0.2,17.1-0.2s3.5-0.7,4.2-2.1c0.2-0.7,0.5-2.3,0.5-4.5
			c-0.2-10-0.5-18-0.5-18c0.2-1.4-4.2-2.1-4.2-2.1c-1-0.2-7.6-0.3-17.1-0.3c-30.6-0.3-91.8-0.3-91.8-0.3s-3.1,0.5-3.8,1.6
			c0,2.8,0,5.4,0,7.8c0,4.5,0,10.7,0,17.3C-302.6,2660.4-299.3,2661-299.3,2661z"/>
		<path class="st1" d="M-282,2661c9,0.3,63.2-0.2,91.4-0.5c10.2-0.2,17.1-0.2,17.1-0.2s3.5-0.7,4.2-2.1c0.2-0.7,0.5-2.3,0.5-4.5
			c-0.2-10-0.5-18-0.5-18c0.2-1.4-4.2-2.1-4.2-2.1c-1-0.2-7.6-0.3-17.1-0.3c-30.6-0.3-91.8-0.3-91.8-0.3s-3.1,0.5-3.8,1.6
			c0,2.8,0,5.4,0,7.8c0,4.5,0,10.7,0,17.3C-285.3,2660.4-282,2661-282,2661z"/>
	</g>
	<g>
		<path class="st1" d="M-172.8,2633.3c-9,0.3-63.2-0.2-91.4-0.5c-10.2-0.2-17.1-0.2-17.1-0.2s-3.5-0.7-4.2-2.1
			c-0.2-0.7-0.5-2.3-0.5-4.5c0.2-10,0.5-18,0.5-18c-0.2-1.4,4.2-2.1,4.2-2.1c1-0.2,7.6-0.3,17.1-0.3c30.6-0.3,91.8-0.3,91.8-0.3
			s3.1,0.5,3.8,1.6c0,2.8,0,5.4,0,7.8c0,4.5,0,10.7,0,17.3C-169.5,2632.7-172.8,2633.3-172.8,2633.3z"/>
		<path class="st1" d="M-190.1,2633.3c-9,0.3-63.2-0.2-91.4-0.5c-10.2-0.2-17.1-0.2-17.1-0.2s-3.5-0.7-4.2-2.1
			c-0.2-0.7-0.5-2.3-0.5-4.5c0.2-10,0.5-18,0.5-18c-0.2-1.4,4.2-2.1,4.2-2.1c1-0.2,7.6-0.3,17.1-0.3c30.6-0.3,91.8-0.3,91.8-0.3
			s3.1,0.5,3.8,1.6c0,2.8,0,5.4,0,7.8c0,4.5,0,10.7,0,17.3C-186.8,2632.7-190.1,2633.3-190.1,2633.3z"/>
	</g>
	<g>
		<path class="st1" d="M-299.3,2605.5c9,0.3,63.2-0.2,91.4-0.5c10.2-0.2,17.1-0.2,17.1-0.2s3.5-0.7,4.2-2.1c0.2-0.7,0.5-2.3,0.5-4.5
			c-0.2-10-0.5-18-0.5-18c0.2-1.4-4.2-2.1-4.2-2.1c-1-0.2-7.6-0.3-17.1-0.3c-30.6-0.3-91.8-0.3-91.8-0.3s-3.1,0.5-3.8,1.6
			c0,2.8,0,5.4,0,7.8c0,4.5,0,10.7,0,17.3C-302.6,2605-299.3,2605.5-299.3,2605.5z"/>
		<path class="st1" d="M-282,2605.5c9,0.3,63.2-0.2,91.4-0.5c10.2-0.2,17.1-0.2,17.1-0.2s3.5-0.7,4.2-2.1c0.2-0.7,0.5-2.3,0.5-4.5
			c-0.2-10-0.5-18-0.5-18c0.2-1.4-4.2-2.1-4.2-2.1c-1-0.2-7.6-0.3-17.1-0.3c-30.6-0.3-91.8-0.3-91.8-0.3s-3.1,0.5-3.8,1.6
			c0,2.8,0,5.4,0,7.8c0,4.5,0,10.7,0,17.3C-285.3,2605-282,2605.5-282,2605.5z"/>
	</g>
	<g>
		<path class="st1" d="M-172.8,2577.8c-9,0.3-63.2-0.2-91.4-0.5c-10.2-0.2-17.1-0.2-17.1-0.2s-3.5-0.7-4.2-2.1
			c-0.2-0.7-0.5-2.3-0.5-4.5c0.2-10,0.5-18,0.5-18c-0.2-1.4,4.2-2.1,4.2-2.1c1-0.2,7.6-0.3,17.1-0.3c30.6-0.3,91.8-0.3,91.8-0.3
			s3.1,0.5,3.8,1.6c0,2.8,0,5.4,0,7.8c0,4.5,0,10.7,0,17.3C-169.5,2577.3-172.8,2577.8-172.8,2577.8z"/>
		<path class="st1" d="M-190.1,2577.8c-9,0.3-63.2-0.2-91.4-0.5c-10.2-0.2-17.1-0.2-17.1-0.2s-3.5-0.7-4.2-2.1
			c-0.2-0.7-0.5-2.3-0.5-4.5c0.2-10,0.5-18,0.5-18c-0.2-1.4,4.2-2.1,4.2-2.1c1-0.2,7.6-0.3,17.1-0.3c30.6-0.3,91.8-0.3,91.8-0.3
			s3.1,0.5,3.8,1.6c0,2.8,0,5.4,0,7.8c0,4.5,0,10.7,0,17.3C-186.8,2577.3-190.1,2577.8-190.1,2577.8z"/>
	</g>
	<g>
		<path class="st1" d="M-299.3,2550.1c9,0.3,63.2-0.2,91.4-0.5c10.2-0.2,17.1-0.2,17.1-0.2s3.5-0.7,4.2-2.1c0.2-0.7,0.5-2.3,0.5-4.5
			c-0.2-10-0.5-18-0.5-18c0.2-1.4-4.2-2.1-4.2-2.1c-1-0.2-7.6-0.3-17.1-0.3c-30.6-0.3-91.8-0.3-91.8-0.3s-3.1,0.5-3.8,1.6
			c0,2.8,0,5.4,0,7.8c0,4.5,0,10.7,0,17.3C-302.6,2549.6-299.3,2550.1-299.3,2550.1z"/>
		<path class="st1" d="M-282,2550.1c9,0.3,63.2-0.2,91.4-0.5c10.2-0.2,17.1-0.2,17.1-0.2s3.5-0.7,4.2-2.1c0.2-0.7,0.5-2.3,0.5-4.5
			c-0.2-10-0.5-18-0.5-18c0.2-1.4-4.2-2.1-4.2-2.1c-1-0.2-7.6-0.3-17.1-0.3c-30.6-0.3-91.8-0.3-91.8-0.3s-3.1,0.5-3.8,1.6
			c0,2.8,0,5.4,0,7.8c0,4.5,0,10.7,0,17.3C-285.3,2549.6-282,2550.1-282,2550.1z"/>
	</g>
	<g>
		<path class="st1" d="M-172.8,2522.4c-9,0.3-63.2-0.2-91.4-0.5c-10.2-0.2-17.1-0.2-17.1-0.2s-3.5-0.7-4.2-2.1
			c-0.2-0.7-0.5-2.3-0.5-4.5c0.2-10,0.5-18,0.5-18c-0.2-1.4,4.2-2.1,4.2-2.1c1-0.2,7.6-0.3,17.1-0.3c30.6-0.3,91.8-0.3,91.8-0.3
			s3.1,0.5,3.8,1.6c0,2.8,0,5.4,0,7.8c0,4.5,0,10.7,0,17.3C-169.5,2521.9-172.8,2522.4-172.8,2522.4z"/>
		<path class="st1" d="M-190.1,2522.4c-9,0.3-63.2-0.2-91.4-0.5c-10.2-0.2-17.1-0.2-17.1-0.2s-3.5-0.7-4.2-2.1
			c-0.2-0.7-0.5-2.3-0.5-4.5c0.2-10,0.5-18,0.5-18c-0.2-1.4,4.2-2.1,4.2-2.1c1-0.2,7.6-0.3,17.1-0.3c30.6-0.3,91.8-0.3,91.8-0.3
			s3.1,0.5,3.8,1.6c0,2.8,0,5.4,0,7.8c0,4.5,0,10.7,0,17.3C-186.8,2521.9-190.1,2522.4-190.1,2522.4z"/>
	</g>
</g>
<g>
	<path id="XMLID_362_" class="st1" d="M434.8,2262.7c0.3-0.3,0.2,4.2,0.2,4.2s-6.4,104.4-6.8,108.6c0,0-0.3,4.3-0.7,4
		c0,0-10.7,1-11.6-0.9c-0.2-0.5-0.2-4.2-0.2-4.2s5.7-96.3,6.6-108.4c0,0,0.3-4.3,0.7-4C423,2262,434.5,2263.1,434.8,2262.7z"/>
	<g>
		<path id="XMLID_363_" class="st1" d="M422.5,2261.3c0.3,0.3-4.2,0.2-4.2,0.2s-104.4-6.4-108.6-6.8c0,0-4.3-0.3-4-0.7
			c0,0-1-10.7,0.9-11.6c0.5-0.2,4.2-0.2,4.2-0.2s96.3,5.7,108.4,6.6c0,0,4.3,0.3,4,0.7C423.2,2249.6,422.2,2261,422.5,2261.3z"/>
		<g>
			<g>
				<path id="XMLID_365_" class="st1" d="M411.6,2247c0,0-8.3,35,22,26.1C463.7,2264.1,435.5,2219.9,411.6,2247z"/>
				<g>
					<path id="XMLID_364_" class="st1" d="M418,2251.1c0,0-4.8,20.6,13,15.4C449,2261.2,432.2,2235.2,418,2251.1z"/>
				</g>
			</g>
		</g>
	</g>
	<g>
		<path id="XMLID_368_" class="st1" d="M290.9,2250.8c0,0.3-1.2-0.3-1.2-0.3s-24.6-16.1-25.6-17c0,0-0.9-0.9-0.7-1
			c0,0,5.4-9.2,6.4-9.7c0.3-0.2,1.2,0.3,1.2,0.3s22.9,14.7,25.6,16.8c0,0,0.9,0.9,0.7,1C297.5,2240.9,291.1,2250.4,290.9,2250.8z"/>
		<g>
			<g>
				<path id="XMLID_367_" class="st1" d="M289.9,2230.9c0,0-24.6,26.3,6.1,33.6S324.2,2219.3,289.9,2230.9z"/>
				<g>
					<path id="XMLID_366_" class="st1" d="M293.5,2237.6c0,0-14.5,15.6,3.6,19.7C315.2,2261.8,313.8,2230.9,293.5,2237.6z"/>
				</g>
			</g>
		</g>
		<g>
			<path id="XMLID_360_" class="st1" d="M218.2,2196.6c0,0,11.6-14.5,33.8,3.3c22.2,17.8,26.8,19.9,23.4,30.3
				c-3.5,10.2-14.7,9.7-21.6,6.4C246.8,2233.3,208.5,2218,218.2,2196.6z"/>
			<path id="XMLID_356_" class="st1" d="M187.6,2175.1c0,0,19.9-27,40.9-7.6c21,19.4,26,21.3,17.8,38.6c-8.1,17.3-22,20.6-29.4,18.2
				C209.4,2222,167.3,2212.3,187.6,2175.1z"/>
		</g>
	</g>
	<g>
		<g>
			<path id="XMLID_370_" class="st1" d="M403.6,2376.5c0,0-8.3,35,22,26.1C455.8,2393.6,427.5,2349.5,403.6,2376.5z"/>
			<g>
				<path id="XMLID_369_" class="st1" d="M410.1,2380.6c0,0-4.8,20.6,13,15.4C441,2390.8,424.3,2364.7,410.1,2380.6z"/>
			</g>
		</g>
	</g>
</g>
<g>
	<path id="XMLID_335_" class="st1" d="M541.3,2239.9c1.4-0.3,2.1,4.2,2.1,4.2s0,104.6-0.7,108.9c0,0-0.7,4.3-2.1,4.2
		c0,0-52.6,1.7-57.3-0.2c-1.4-0.5-2.1-4.2-2.1-4.2s-1-96.4-0.7-108.6c0,0,0.7-4.3,2.1-4.2C482.8,2240,539.7,2240.4,541.3,2239.9z"/>
	<g>
		<path class="st1" d="M500.1,2335.3c-0.7,0-1.4,0.2-1.7,0.3c-0.3-28.2-0.7-82.6-0.5-91.4c0,0,0.7-4.3,2.1-4.2c0,0,57,0.3,58.5-0.2
			c1.4-0.3,2.1,4.2,2.1,4.2s0,60.9-0.3,91.8c-0.3-0.2-0.9-0.5-1.9-0.5C557.1,2335.3,500.1,2335.3,500.1,2335.3z"/>
		<path class="st1" d="M498.5,2352.8c0,0,0-6.9-0.2-17.1c0.3-0.2,0.9-0.3,1.7-0.3c0,0,57,0,58.5,0c0.9,0,1.6,0.3,1.9,0.5
			c-0.2,9.5-0.2,16.1-0.3,17.1c0,0-0.7,4.3-2.1,4.2c0,0-22.7,0.7-39.5,0.7c-8.8,0-16.1-0.2-17.7-0.9
			C499.4,2356.4,498.5,2352.8,498.5,2352.8z"/>
	</g>
	<g>
		<g>
			<path id="XMLID_334_" class="st1" d="M526.9,2338.4c0,0-12.8,9-0.3,14.9C539,2359.2,542.5,2336.5,526.9,2338.4z"/>
			<g>
				<path id="XMLID_333_" class="st1" d="M528,2341.5c0,0-7.6,5.4-0.2,8.8C535.1,2353.8,537.1,2340.5,528,2341.5z"/>
			</g>
		</g>
	</g>
</g>
<g>
	<path class="st1" d="M446.9,2385.6c9,0.3,63.2-0.2,91.4-0.5c10.2-0.2,17.1-0.2,17.1-0.2s3.5-0.7,4.2-2.1c0.2-0.7,0.5-2.3,0.5-4.5
		c-0.2-10-0.5-18-0.5-18c0.2-1.4-4.2-2.1-4.2-2.1c-1-0.2-7.6-0.3-17.1-0.3c-30.6-0.3-91.8-0.3-91.8-0.3s-3.1,0.5-3.8,1.6
		c0,2.8,0,5.4,0,7.8c0,4.5,0,10.7,0,17.3C443.6,2385.1,446.9,2385.6,446.9,2385.6z"/>
	<path class="st1" d="M464.2,2385.6c9,0.3,63.2-0.2,91.4-0.5c10.2-0.2,17.1-0.2,17.1-0.2s3.5-0.7,4.2-2.1c0.2-0.7,0.5-2.3,0.5-4.5
		c-0.2-10-0.5-18-0.5-18c0.2-1.4-4.2-2.1-4.2-2.1c-1-0.2-7.6-0.3-17.1-0.3c-30.6-0.3-91.8-0.3-91.8-0.3s-3.1,0.5-3.8,1.6
		c0,2.8,0,5.4,0,7.8c0,4.5,0,10.7,0,17.3C461,2385.1,464.2,2385.6,464.2,2385.6z"/>
	<g>
		<g>
			<path id="XMLID_338_" class="st1" d="M541.1,2373.9c0,0,9,12.8,14.9,0.3C561.9,2361.8,539.2,2358.3,541.1,2373.9z"/>
			<g>
				<path id="XMLID_336_" class="st1" d="M544.4,2373c0,0,5.4,7.6,8.8,0.2C556.7,2365.7,543.2,2363.8,544.4,2373z"/>
			</g>
		</g>
	</g>
	<g>
		<g>
			<path id="XMLID_341_" class="st1" d="M466.7,2373.9c0,0,9,12.8,14.9,0.3C487.5,2361.8,464.8,2358.3,466.7,2373.9z"/>
			<g>
				<path id="XMLID_340_" class="st1" d="M470,2373c0,0,5.4,7.6,8.8,0.2C482.3,2365.7,468.8,2363.8,470,2373z"/>
			</g>
		</g>
	</g>
	<g>
		<g>
			<path id="XMLID_343_" class="st1" d="M489.2,2373.9c0,0,9,12.8,14.9,0.3C510,2361.8,487.3,2358.3,489.2,2373.9z"/>
			<g>
				<path id="XMLID_342_" class="st1" d="M492.5,2373c0,0,5.4,7.6,8.8,0.2S491.3,2363.8,492.5,2373z"/>
			</g>
		</g>
	</g>
	<g>
		<g>
			<path id="XMLID_345_" class="st1" d="M561.9,2369.2c0,0,5.9,8.3,9.7,0.2C575.4,2361.2,560.7,2359,561.9,2369.2z"/>
			<g>
				<path id="XMLID_344_" class="st1" d="M564.7,2368.3c0,0,2.8,3.8,4.5,0.2C570.7,2364.9,564.2,2363.7,564.7,2368.3z"/>
			</g>
		</g>
	</g>
	<g>
		<g>
			<g>
				<path id="XMLID_346_" class="st1" d="M564.7,2380.5c0,0,2.8,3.8,4.5,0.2C570.7,2377,564.2,2375.8,564.7,2380.5z"/>
			</g>
		</g>
	</g>
	<g>
		<path class="st1" d="M516.5,2361.9c-2.1,0.2-4.2,1.7-3.6,5.2c0,0,1.9,2.8,4.2,2.9c1,0,12.5,0.3,14.4,0c1-0.2,1.9-0.9,2.8-2.8
			c1.6-3.3-0.9-5.2-3.3-5.4C529.5,2361.8,518.1,2361.8,516.5,2361.9z"/>
		<g>
			<path id="XMLID_348_" class="st1" d="M514.5,2366.6c0,0,2.8,3.8,4.5,0.2C520.5,2363.1,513.9,2361.9,514.5,2366.6z"/>
		</g>
		<g>
			<path id="XMLID_352_" class="st1" d="M528.3,2366.6c0,0,2.8,3.8,4.5,0.2C534.4,2363.1,527.8,2361.9,528.3,2366.6z"/>
		</g>
	</g>
	<g>
		<path class="st1" d="M511.3,2376c-1,0-2.3,0.9-1.9,2.8c0,0,1,1.6,2.3,1.6c0.5,0,6.8,0.2,7.6,0c0.5,0,1-0.5,1.6-1.4
			c0.9-1.7-0.3-2.8-1.7-2.9C518.3,2376,512,2376,511.3,2376z"/>
		<g>
			<path id="XMLID_350_" class="st1" d="M510.1,2378.5c0,0,1.4,2.1,2.4,0C513.4,2376.5,510,2376,510.1,2378.5z"/>
		</g>
		<g>
			<path id="XMLID_349_" class="st1" d="M517.6,2378.5c0,0,1.4,2.1,2.4,0C520.9,2376.5,517.2,2376,517.6,2378.5z"/>
		</g>
	</g>
	<g>
		<path class="st1" d="M528.7,2376c-1,0-2.3,0.9-1.9,2.8c0,0,1,1.6,2.3,1.6c0.5,0,6.8,0.2,7.6,0c0.5,0,1-0.5,1.6-1.4
			c0.9-1.7-0.3-2.8-1.7-2.9C535.6,2376,529.4,2376,528.7,2376z"/>
		<g>
			<path id="XMLID_353_" class="st1" d="M527.4,2378.5c0,0,1.4,2.1,2.4,0C530.7,2376.5,527.3,2376,527.4,2378.5z"/>
		</g>
		<g>
			<path id="XMLID_351_" class="st1" d="M534.9,2378.5c0,0,1.4,2.1,2.4,0C538.2,2376.5,534.5,2376,534.9,2378.5z"/>
		</g>
	</g>
</g>
<g>
	<path class="st1" d="M-223.6,1410.3c0,0-6.9-17.3-3.5-26c3.5-8.7,3.5-24.2,1.7-31.2c-1.7-6.9,0-19,1.7-29.4
		c1.7-10.4-3.5-22.5-1.7-38.1c1.7-15.6,1.7-13.9,1.7-29.4"/>
	<path class="st1" d="M-223.6,1256.2c0,0-6.9-17.3-3.5-26c3.5-8.7,3.5-24.2,1.7-31.2c-1.7-6.9,0-19,1.7-29.4
		c1.7-10.4-3.5-22.5-1.7-38.1c1.7-15.6,1.7-13.9,1.7-29.4c0,0-5.2-12.1,8.7-17.3c0,0,19-1.7,31.2,0c12.1,1.7,17.3,1.7,31.2,0"/>
	<g>
		<path class="st1" d="M155.3,1084.6c0,0-17.3,6.9-26,3.5s-24.2-3.5-31.2-1.7c-6.9,1.7-19,0-29.4-1.7c-10.4-1.7-22.5,3.5-38.1,1.7
			c-15.6-1.7-13.9-1.7-29.4-1.7"/>
		<path class="st1" d="M1.2,1084.6c0,0-17.3,6.9-26,3.5s-24.2-3.5-31.2-1.7c-6.9,1.7-19,0-29.4-1.7c-10.4-1.7-22.5,3.5-38.1,1.7
			c-15.6-1.7-13.9-1.7-29.4-1.7"/>
	</g>
	<path class="st1" d="M157.4,1234.9c0,0,17.1,7.1,26,3.8c8.7-3.3,24.2-3.1,31.2-1.2c6.9,1.9,19,0.3,29.4-1.2
		c10.4-1.6,22.5,3.8,38.1,2.3c15.6-1.6,13.9-1.6,29.4-1.2"/>
	<path class="st1" d="M156,1238c0,0,6.9-17.3,3.5-26c-3.5-8.7-3.5-24.2-1.7-31.2c1.7-6.9,0-19-1.7-29.4c-1.7-10.4,3.5-22.5,1.7-38.1
		c-1.7-15.6-1.7-13.9-1.7-29.4"/>
	<g>
		<path class="st1" d="M-222.3,1259.7c1-1.2,1.2-3.1-0.7-2.9c0,0-0.7,0.2-1.4,0.5c-0.5,0.3-2.1,1.4-2.4,1.9c0,0-2.4,3.6,1.7,2.4
			c0.3-0.2,0.7-0.2,0.9-0.3C-223.9,1261.1-222.7,1260-222.3,1259.7z"/>
		<path id="XMLID_416_" class="st1" d="M-224.8,1259.7c0,0-5-4.3-6.1,2.3C-231.9,1268.5-221.6,1264.9-224.8,1259.7z"/>
	</g>
	<g>
		<path class="st1" d="M2.1,1085.5c-0.3-1.6-1.7-2.8-2.8-1.2c0,0-0.2,0.7-0.3,1.4c0,0.5,0,2.4,0,3.1c0,0,1.6,4.2,2.9,0
			c0.2-0.3,0.2-0.7,0.2-1C2.2,1087.6,2.2,1086,2.1,1085.5z"/>
		<path id="XMLID_414_" class="st1" d="M0.7,1087.4c0,0-6.6,1.4-1.9,6.2S6.7,1088.1,0.7,1087.4z"/>
	</g>
	<g>
		<path class="st1" d="M157.9,1087.2c-0.3-1.6-1.7-2.8-2.8-1.2c0,0-0.2,0.7-0.3,1.4c0,0.5,0,2.4,0,3.1c0,0,1.6,4.2,2.9,0
			c0.2-0.3,0.2-0.7,0.2-1C158.1,1089.3,158.1,1087.7,157.9,1087.2z"/>
		<path id="XMLID_415_" class="st1" d="M156.5,1089.1c0,0-6.6,1.4-1.9,6.2C159.3,1100.2,162.6,1089.8,156.5,1089.1z"/>
	</g>
	<g>
		<path class="st1" d="M157,1237.2c-1.6-0.3-2.8-1.7-1.2-2.8c0,0,0.7-0.2,1.4-0.3c0.5,0,2.4,0,3.1,0c0,0,4.2,1.6,0,2.9
			c-0.3,0.2-0.7,0.2-1,0.2C158.9,1237.3,157.4,1237.2,157,1237.2z"/>
		<path id="XMLID_418_" class="st1" d="M158.8,1235.8c0,0,1.4-6.6,6.2-1.9C170,1238.6,159.4,1241.7,158.8,1235.8z"/>
	</g>
	<g>
		<path class="st1" d="M-152,1085.5c-0.3-1.6-1.7-2.8-2.8-1.2c0,0-0.2,0.7-0.3,1.4c0,0.5,0,2.4,0,3.1c0,0,1.6,4.2,2.9,0
			c0.2-0.3,0.2-0.7,0.2-1C-151.9,1087.6-151.9,1086-152,1085.5z"/>
		<path id="XMLID_420_" class="st1" d="M-153.4,1087.4c0,0-6.6,1.4-1.9,6.2C-150.7,1098.5-147.4,1088.1-153.4,1087.4z"/>
	</g>
	<g>
		<path class="st1" d="M-224.8,1159.9c-0.3-1.6-1.7-2.8-2.8-1.2c0,0-0.2,0.7-0.3,1.4c0,0.5,0,2.4,0,3.1c0,0,1.6,4.2,2.9,0
			c0.2-0.3,0.2-0.7,0.2-1C-224.6,1162-224.6,1160.5-224.8,1159.9z"/>
		<path id="XMLID_419_" class="st1" d="M-226.2,1161.9c0,0-6.6,1.4-1.9,6.2S-220.1,1162.5-226.2,1161.9z"/>
	</g>
	<path class="st1" d="M313.2,1387.3c0,0,17.1,7.1,26,3.8c8.7-3.3,24.2-3.1,31.2-1.2s19,0.3,29.4-1.2s22.5,3.8,38.1,2.3
		c15.6-1.6,13.9-1.6,29.4-1.2"/>
	<path class="st1" d="M311.8,1390.4c0,0,6.9-17.3,3.5-26c-3.5-8.7-3.5-24.2-1.7-31.2c1.7-6.9,0-19-1.7-29.4
		c-1.7-10.4,3.5-22.5,1.7-38.1s-1.7-13.9-1.7-29.4"/>
	<g>
		<path class="st1" d="M312.9,1389.5c-1.6-0.3-2.8-1.7-1.2-2.8c0,0,0.7-0.2,1.4-0.3c0.5,0,2.4,0,3.1,0c0,0,4.2,1.6,0,2.9
			c-0.3,0.2-0.7,0.2-1,0.2C314.8,1389.7,313.2,1389.5,312.9,1389.5z"/>
		<path id="XMLID_417_" class="st1" d="M314.6,1388.2c0,0,1.4-6.6,6.2-1.9C325.8,1390.9,315.3,1394,314.6,1388.2z"/>
	</g>
	<path class="st1" d="M622.4,1387.3c0,0-17.1,7.1-26,3.8c-8.7-3.3-24.2-3.1-31.2-1.2c-6.9,1.9-19,0.3-29.4-1.2
		c-10.4-1.6-22.5,3.8-38.1,2.3s-13.9-1.6-29.4-1.2"/>
	<path class="st1" d="M623.8,1390.4c0,0-6.9-17.3-3.5-26c3.5-8.7,3.5-24.2,1.7-31.2c-1.7-6.9,0-19,1.7-29.4
		c1.7-10.4-3.5-22.5-1.7-38.1c1.7-15.6,1.7-13.9,1.7-29.4"/>
	<g>
		<path class="st1" d="M622.8,1389.5c1.6-0.3,2.8-1.7,1.2-2.8c0,0-0.7-0.2-1.4-0.3c-0.5,0-2.4,0-3.1,0c0,0-4.2,1.6,0,2.9
			c0.3,0.2,0.7,0.2,1,0.2C620.9,1389.7,622.3,1389.5,622.8,1389.5z"/>
		<path id="XMLID_421_" class="st1" d="M620.9,1388.2c0,0-1.4-6.6-6.2-1.9C609.8,1390.9,620.2,1394,620.9,1388.2z"/>
	</g>
</g>
</svg>
