<?xml version="1.0" encoding="utf-8"?>
<!-- Generator: Adobe Illustrator 22.1.0, SVG Export Plug-In . SVG Version: 6.00 Build 0)  -->
<svg version="1.1" id="Layer_1" xmlns="http://www.w3.org/2000/svg" xmlns:xlink="http://www.w3.org/1999/xlink" x="0px" y="0px"
	 viewBox="0 0 752.8 721.7" style="enable-background:new 0 0 752.8 721.7;" xml:space="preserve">
<style type="text/css">
	.st0{opacity:0.1;enable-background:new    ;}
	.st1{fill:#231F20;stroke:#231F20;stroke-miterlimit:10;}
	.st2{fill:#FFF5D0;stroke:#584C4F;stroke-miterlimit:10;}
	.st3{fill:#FFF0C2;stroke:#584C4F;stroke-miterlimit:10;}
	.st4{fill:#FDF5EA;stroke:#5B5B4B;stroke-linecap:round;stroke-miterlimit:10;}
</style>
<g>
	<g class="st0">
		<g>
			<path class="st1" d="M345.8,331v23.6c0,0,0,4.7,1.1,5.7c1.1,0.9,28,0,28.8,0c0.7,0,1.8,0,1.8-3.8c0-2.8-0.8-18.4-1.2-25.9"/>
			<path id="XMLID_28_" class="st1" d="M252.8,340.8c0,0-0.8,1.7,1.8,1.8c82.2,2,213.1-0.1,213.1-0.1c2.5-0.2,1.8-1.8,1.8-1.8
				c3.3-53.5,0-153,0-153s0.8-1.7-1.8-1.8c-127.8-4-214.6-0.1-214.6-0.1c-2.5,0.2-1.8,1.8-1.8,1.8S251.1,271.5,252.8,340.8z"/>
			<path id="XMLID_27_" class="st1" d="M259.6,201.3c0,0-1-5.7,4.1-5.9c0,0,87.3-6.7,194.7,0.1c5,0.3,4.1,5.9,4.1,5.9
				s0.9,73.9-1.8,125.5c0,0,1,5.7-4.1,5.9c0,0-83.2,4.6-191.2,0.1c-5-0.2-4.1-5.9-4.1-5.9L259.6,201.3z"/>
			<path id="XMLID_26_" class="st1" d="M275.1,203.8c-4.2-0.4-6.2,4.2-6.2,4.2s-0.1,108,1.9,112.4c0,0,2,4.4,6.2,4.2
				c0,0,153.7,1.8,167.4-0.1c4.2-0.6,6.2-4.2,6.2-4.2s3-99.6,1.9-112.2c0,0-2-4.4-6.2-4.2C446.3,203.9,279.9,204.2,275.1,203.8z"/>
			<path id="XMLID_25_" class="st1" d="M276.3,216.5c0.8,2.3,1.3,4.1,1.6,5.5c0.6,2.7,2.7,3.1,4,1.9c2-1.9,1.8-4.2,1.2-6.2
				c-0.3-1.3,0.7-2.4,2-3.1c1-0.5,3.6-1.4,0.8-2.1c-1.5-0.4-3.4-0.7-5.1-0.8C277.7,211.7,275,212.7,276.3,216.5z"/>
		</g>
		<path id="XMLID_24_" class="st1" d="M233.4,362.4c0,0-0.9,0.2,2.1,0.2c96.7,0.3,250.7,0,250.7,0c2.9,0,2.1-0.2,2.1-0.2
			c3.9-6.8,0-19.5,0-19.5s0.9-0.2-2.1-0.2c-150.3-0.5-252.4,0-252.4,0c-2.9,0-2.1,0.2-2.1,0.2S231.4,353.6,233.4,362.4z"/>
	</g>
	<g>
		<path id="XMLID_23_" class="st2" d="M233.4,352.4c0,0-0.9,0.2,2.1,0.2c96.7,0.3,250.7,0,250.7,0c2.9,0,2.1-0.2,2.1-0.2
			c3.9-6.8,0-19.5,0-19.5s0.9-0.2-2.1-0.2c-150.3-0.5-252.4,0-252.4,0c-2.9,0-2.1,0.2-2.1,0.2S231.4,343.6,233.4,352.4z"/>
		<path class="st3" d="M345.2,333.5v9.9c0,0,0,2,1.1,2.4s28,0,28.8,0c0.7,0,1.8,0,1.8-1.6c0-1.2-0.8-7.8-1.2-10.9"/>
		<g>
			<path id="XMLID_22_" class="st4" d="M252.8,330.8c0,0-0.8,1.7,1.8,1.8c82.2,2,213.1-0.1,213.1-0.1c2.5-0.2,1.8-1.8,1.8-1.8
				c3.3-53.5,0-153,0-153s0.8-1.7-1.8-1.8c-127.8-4-214.6-0.1-214.6-0.1c-2.5,0.2-1.8,1.8-1.8,1.8S251.1,261.5,252.8,330.8z"/>
			<path id="XMLID_21_" class="st2" d="M259.6,191.3c0,0-1-5.7,4.1-5.9c0,0,87.3-6.7,194.7,0.1c5,0.3,4.1,5.9,4.1,5.9
				s0.9,73.9-1.8,125.5c0,0,1,5.7-4.1,5.9c0,0-83.2,4.6-191.2,0.1c-5-0.2-4.1-5.9-4.1-5.9L259.6,191.3z"/>
			<path id="XMLID_20_" class="st4" d="M275.1,193.8c-4.2-0.4-6.2,4.2-6.2,4.2s-0.1,108,1.9,112.4c0,0,2,4.4,6.2,4.2
				c0,0,153.7,1.8,167.4-0.1c4.2-0.6,6.2-4.2,6.2-4.2s3-99.6,1.9-112.2c0,0-2-4.4-6.2-4.2C446.3,193.9,279.9,194.2,275.1,193.8z"/>
			<path id="XMLID_19_" class="st4" d="M276.3,206.5c0.8,2.3,1.3,4.1,1.6,5.5c0.6,2.7,2.7,3.1,4,1.9c2-1.9,1.8-4.2,1.2-6.2
				c-0.3-1.3,0.7-2.4,2-3.1c1-0.5,3.6-1.4,0.8-2.1c-1.5-0.4-3.4-0.7-5.1-0.8C277.7,201.7,275,202.7,276.3,206.5z"/>
		</g>
	</g>
</g>
</svg>
