<?xml version="1.0" encoding="utf-8"?>
<!-- Generator: Adobe Illustrator 23.0.3, SVG Export Plug-In . SVG Version: 6.00 Build 0)  -->
<svg version="1.1" id="Layer_1" xmlns="http://www.w3.org/2000/svg" xmlns:xlink="http://www.w3.org/1999/xlink" x="0px" y="0px"
	 viewBox="0 0 339.9 81.2" style="enable-background:new 0 0 339.9 81.2;" xml:space="preserve">
<style type="text/css">
	.st0{fill:#FFFFFF;}
	.st1{fill:#2C2C2C;}
</style>
<g>
	<path class="st0" d="M198.6,29.9c0,0.4-0.1,0.8-0.1,1.2c0,1.2,0,2.5-0.1,3.7c-0.1,3.1-0.5,6.1-0.8,9.2c-0.1,0.6-0.1,1.2-0.2,1.9
		c0,1.7-0.1,3.4-0.3,5.2c0,0.2,0,0.3,0,0.5c0.1,1.9,0.4,3.7,0.3,5.6c0,0.9-0.2,1.8-0.5,2.7s-0.8,1.7-1.4,2.3
		c-0.3,0.3-0.7,0.6-1.1,0.8c-0.4,0.3-0.9,0.5-1.4,0.7c-0.9,0.4-1.9,0.6-2.9,0.6c-0.1,0-0.2,0-0.2,0c-0.3,0-0.6,0-0.9-0.1l0,0
		c-0.2,0.1-0.5,0.1-0.7,0.1l0,0c-0.2,0-0.5,0-0.7-0.1c-0.1,0-0.3-0.1-0.4-0.1c-0.2,0-0.3-0.1-0.5-0.2c-0.3-0.1-0.6-0.2-0.9-0.4
		c-0.4-0.2-0.7-0.4-1-0.6c-0.5-0.3-0.9-0.7-1.3-1.1c-0.4-0.4-0.7-0.8-1-1.2s-0.5-0.9-0.7-1.3c-0.1-0.3-0.2-0.6-0.3-1
		c-0.1-0.5-0.1-1-0.2-1.5c-0.1-0.9-0.1-1.9,0-2.8c0.1-0.8,0.2-1.6,0.3-2.3c-0.1-1.1-0.2-2.2-0.3-3.4c0-0.6-0.1-1.3-0.1-1.9
		c-0.1-0.9-0.1-1.9-0.1-2.8c0-0.1,0-0.3-0.1-0.4c-0.3-1.9-0.5-3.8-0.5-5.7c-0.1-3.7,0.1-7.4,0.7-11.1c0-0.2,0.1-0.3,0.2-0.4
		c0,0,0,0,0-0.1c-0.2-0.7-0.1-1.5,0-2.2c0.1-0.9,0.5-1.8,0.9-2.6c0.5-0.9,1.1-1.7,1.7-2.5c0.3-0.4,0.7-0.7,1-1.1
		c0.4-0.4,0.9-0.7,1.3-1c0.7-0.5,1.6-0.8,2.5-1c0.7-0.2,1.5-0.2,2.2-0.1c0.4,0,0.7,0.1,1.1,0.2c0.4,0.1,0.7,0.2,1.1,0.4
		c0.6,0.3,1.1,0.6,1.6,1.1c0.5,0.4,0.9,1,1.3,1.5c0.3,0.5,0.6,1.1,0.9,1.6c0.3,0.7,0.5,1.3,0.7,2c0.4,1.3,0.6,2.7,0.7,4.1
		C198.6,27.4,198.7,28.7,198.6,29.9z"/>
	<g>
		<path class="st1" d="M197.1,29.9c-0.5,4.6-0.6,9.4-1,14c-0.2,2.3-0.5,4.7-0.5,7c0,2,0.6,4.1,0.4,6.1c-0.5,4-4.5,6.6-8.3,5.6
			c-5.7-1.5-4.4-7.6-4.5-11.9c-0.1-8.5-1.4-16.4,0-24.9c0.3-1.9,0.3-3.7,1.4-5.5c2-3,6.1-5.2,9.3-2.5
			C197.1,20.6,197.2,26.2,197.1,29.9c-0.1,1.9,2.9,1.9,3,0c0.2-7.6-4.3-21.5-14.6-14.6c-2.2,1.5-4.2,4-5,6.6c-0.5,1.4-0.3,2.5-0.4,4
			c-0.1,1.3,0-1-0.2,0.1c-1,7.9-0.3,15.3,0,23.2c0.2,5.6-1.3,11.2,4,15c2.4,1.7,5.1,1.9,7.9,1.4c5.9-1,7.3-6,7-11.3
			c-0.5-7.9,0.4-16.5,1.2-24.4C200.3,28,197.3,28,197.1,29.9z"/>
	</g>
</g>
<g>
	<g>
		<path class="st0" d="M154.6,22.7c-0.2,0.9-0.3,1.8,0,2.7l0,0c-0.1,1.2,0.8,2.3,1.8,2.7c0.3,0.2,0.6,0.4,0.9,0.6
			c0.1,0.1,0.1,0.1,0.2,0.2c0.3,0.3,0.7,0.6,1,0.8c0.7,0.4,1.2,0.5,1.9,0.7c0.2,0,0.5,0.1,0.8,0.1c0.6,0,1.2-0.1,1.8-0.3
			c0.3-0.1,0.6-0.2,0.9-0.3c0.5,0,1-0.1,1.4-0.2c1.6-0.3,3.1-0.9,4.4-1.9c0.4-0.3,0.7-0.7,1-1.1c0.3-0.3,0.5-0.6,0.7-1
			c0.4-0.7,0.5-1.2,0.7-2c0.3-0.7,0.5-1.5,0.6-2.3c0.1-0.6,0-1.3-0.2-1.8c-0.1-0.6-0.4-1.2-0.8-1.8c-0.3-0.4-0.5-0.8-0.8-1.1
			c-0.3-0.3-0.7-0.7-1-0.9c-0.7-0.6-1.5-1-2.3-1.3c-0.8-0.4-1.8-0.7-2.7-0.8c-0.3,0-0.7,0-1,0c-0.8-0.1-1.7,0-2.4,0.2
			c-0.8,0.3-1.6,0.7-2.2,1.2c-0.1,0.1-0.3,0.1-0.4,0.2c-1,0.5-1.6,1.2-2.3,2c-0.1,0.2-0.3,0.3-0.4,0.5c-0.1,0-0.1,0-0.2,0.1
			c-0.8,0.4-1.4,1.2-1.7,2c-0.3,0.9-0.2,1.9,0.2,2.7C154.6,22.5,154.6,22.6,154.6,22.7z"/>
		<g>
			<path class="st1" d="M153.1,22.3c-0.3,2.5-0.4,5.1,1.7,6.7c2.1,1.7,4.4,3.2,7.2,2.8c6.2-0.7,12.6-4.4,11.9-11.6
				c-0.5-5.6-7.3-9.1-12.4-8c-2.6,0.6-4.5,2.4-6.3,4.2c-0.9,0.9-1.7,1.3-2.2,2.5C152.7,20.1,153.3,21.5,153.1,22.3
				c-0.5,1.9,2.4,2.7,2.9,0.8c1-3.5,0.8-4.7,4-6.7c3.2-2.1,8.2-1.3,10.3,2.2c1.3,2.1,0.5,5.5-1,7.3c-1.5,1.8-3.6,2-5.7,2.5
				c-2.2,0.5-3.2,0.7-5.2-0.6c-1.9-1.2-2.8-2.3-2.4-4.7C156.3,21.2,153.4,20.3,153.1,22.3z"/>
		</g>
	</g>
	<g>
		<g>
			<path class="st0" d="M156.1,53.6L156.1,53.6c-0.2,0.8-0.1,1.5,0,2.3c0.1,0.9,0.5,1.8,0.9,2.6c0.5,0.9,1.1,1.7,1.7,2.5
				c0.3,0.4,0.7,0.7,1,1.1c0.4,0.4,0.9,0.7,1.3,1c0.7,0.5,1.6,0.8,2.5,1c0.7,0.2,1.5,0.2,2.2,0.1c0.4,0,0.7-0.1,1.1-0.2
				c0.4-0.1,0.7-0.2,1.1-0.4c0.6-0.3,1.1-0.6,1.6-1.1c0.5-0.4,0.9-1,1.3-1.5c0.3-0.5,0.6-1.1,0.9-1.6c0.3-0.6,0.5-1.2,0.7-1.9
				c-0.1-0.6-0.1-1.2-0.2-1.7c-0.1-0.6-0.1-1.2-0.2-1.9c0-1.7-0.1-3.4-0.3-5.2c0-0.2,0-0.3,0-0.5c0.1-1.9,0.4-3.7,0.3-5.6
				c0-0.9-0.2-1.8-0.5-2.7c-0.3-0.9-0.8-1.7-1.4-2.3c-0.3-0.3-0.7-0.6-1.1-0.8c-0.4-0.3-0.9-0.5-1.4-0.7c-0.9-0.4-1.9-0.6-2.9-0.6
				c-0.1,0-0.2,0-0.2,0c-0.3,0-0.6,0-0.9,0.1l0,0c-0.2-0.1-0.5-0.1-0.7-0.1l0,0c-0.2,0-0.5,0-0.7,0.1c-0.1,0-0.3,0.1-0.4,0.1
				c-0.2,0-0.3,0.1-0.5,0.2c-0.3,0.1-0.6,0.2-0.9,0.4c-0.4,0.2-0.7,0.4-1,0.6c-0.5,0.3-0.9,0.7-1.3,1.1c-0.4,0.4-0.7,0.8-1,1.2
				s-0.5,0.9-0.7,1.3c-0.1,0.3-0.2,0.6-0.3,1c-0.1,0.5-0.1,1-0.2,1.5c-0.1,0.9-0.1,1.9,0,2.8c0.1,0.8,0.2,1.6,0.3,2.3
				c-0.1,1.1-0.2,2.2-0.3,3.4c0,0.5,0,0.9-0.1,1.4c0,0.1,0,0.2,0,0.2C155.9,53.3,156,53.5,156.1,53.6z"/>
			<g>
				<path class="st1" d="M154.7,53.2c-1.6,7,6.8,14.9,13.6,12c2.5-1.1,4.4-3.6,5.2-6.2c0.7-2.6,0-5.7-0.2-8.4
					c-0.1-2.8,0.4-5.7,0.1-8.5c-0.6-6-6.9-9.5-12.5-7.6c-3.1,1-5.6,3.9-6.2,7.1c-0.6,2.7,0,5.6-0.1,8.3c-0.1,1.6-0.5,3.1,0.3,4.5
					c0.9,1.7,3.5,0.2,2.6-1.5c-0.7-1.2,0.2-4.4,0.1-6c-0.2-3.3,0-7.6,3.6-9.3c1.1-0.5,1.5-0.4,2.5-0.4c0.3,0,0.7-0.1,1.1-0.1
					c3.8,0.8,5.6,2.8,5.7,6.6c0.1,2.3-0.3,4.6-0.2,6.9c0.1,2.5,0.9,6,0,8.3c-3,7.5-14.3,1.9-12.7-4.9
					C158,52.1,155.1,51.3,154.7,53.2z"/>
			</g>
		</g>
	</g>
</g>
<g>
	<g>
		<path class="st0" d="M150.3,55.1c-0.1-0.7-0.2-1.4-0.3-2.1c-0.2-0.8-0.4-1.6-0.7-2.3c-0.2-0.7-0.5-1.3-0.8-1.9
			c-0.3-0.7-0.7-1.3-1.1-1.9c-0.2-0.3-0.4-0.5-0.6-0.8c-0.1-0.2-0.1-0.4-0.2-0.7c-0.2-0.6-0.6-1.1-1-1.6c-0.4-0.6-1-1-1.6-1.5
			c-0.4-0.3-0.7-0.5-1.1-0.8c-0.4-0.3-0.9-0.5-1.4-0.7c0.9-0.6,1.8-1.5,2.2-2.5c0.1-0.3,0.2-0.5,0.2-0.7c0.1-0.3,0.1-0.6,0.1-0.8
			l0,0c0.1-0.2,0.3-0.4,0.4-0.6c0.1-0.1,0.2-0.2,0.3-0.3c0.2-0.2,0.4-0.4,0.6-0.7c0.2-0.2,0.3-0.5,0.5-0.7c0.2-0.4,0.3-0.7,0.5-1.1
			c0,0,0,0,0-0.1l0,0c0.2-0.4,0.5-0.7,0.6-1.1c0.1-0.3,0.2-0.6,0.3-0.9c0.1-0.3,0.1-0.6,0.1-0.9c0-0.4,0-0.8-0.1-1.2
			c0-0.1-0.1-0.2-0.1-0.4l0,0v-0.1l0,0c0-0.2-0.1-0.4-0.2-0.6c-0.2-0.3-0.3-0.6-0.5-0.8l0,0l0,0c-0.3-0.4-0.7-0.7-1.1-0.9
			c-0.4-0.3-0.9-0.4-1.5-0.5c-0.4-0.1-0.7,0-1.1,0c-0.3,0-0.5,0.1-0.8,0.1c-0.4,0.1-0.8,0.2-1.2,0.3c-0.4,0.2-0.9,0.4-1.3,0.6
			c-0.7,0.4-1.3,0.8-1.9,1.3c-0.2,0.2-0.5,0.4-0.7,0.6c-0.4,0.4-0.7,0.8-1.1,1.2c-0.3,0.4-0.6,0.8-0.9,1.2c-0.4,0.4-0.8,0.9-1.1,1.4
			c-0.1,0.1-0.1,0.1-0.2,0.2c-0.2,0.2-0.3,0.3-0.5,0.5c-0.4,0.4-0.8,0.9-1.2,1.3c-0.1,0.1-0.2,0.2-0.2,0.3v-0.1c0-0.1,0-0.3-0.1-0.4
			c0-0.9,0-1.9-0.1-2.8c0-0.6,0-1.3-0.1-1.9c-0.1-1.1-0.1-2.2-0.3-3.4c0.1-0.8,0.2-1.6,0.3-2.3c0.1-0.9,0.1-1.9,0-2.8
			c0-0.5-0.1-1-0.2-1.5c-0.1-0.3-0.1-0.7-0.3-1c-0.1-0.3-0.2-0.5-0.4-0.8c-0.3-0.4-0.6-0.8-0.8-1.2c-0.2-0.2-0.3-0.4-0.5-0.5
			c-0.4-0.4-0.8-0.8-1.3-1.1c-0.3-0.2-0.6-0.5-1-0.6c-0.3-0.1-0.6-0.3-0.9-0.4c-0.2-0.1-0.3-0.1-0.5-0.2c-0.1,0-0.3-0.1-0.4-0.1
			c-0.2,0-0.5-0.1-0.7-0.1l0,0c-0.2,0-0.5,0-0.7,0.1l0,0c-0.3,0-0.6-0.1-0.9-0.1c-0.1,0-0.2,0-0.2,0c-1,0-2,0.2-2.9,0.6
			c-0.5,0.2-1,0.4-1.4,0.7c-0.4,0.2-0.8,0.5-1.1,0.8c-0.5,0.5-0.9,1.2-1.2,1.8c-0.1,0.2-0.1,0.3-0.2,0.5c-0.3,0.9-0.4,1.8-0.5,2.7
			c-0.1,1.9,0.2,3.8,0.3,5.6c0,0.2,0,0.3,0,0.5c-0.2,1.7-0.3,3.4-0.3,5.2c-0.1,0.6-0.1,1.2-0.2,1.9c-0.3,3.1-0.7,6.1-0.8,9.2
			c-0.1,1.2-0.1,2.5-0.1,3.7c-0.1,0.4-0.1,0.8-0.1,1.2c0,1.4,0,2.7,0.2,3.9c0.1,1.4,0.3,2.8,0.7,4.1c0.2,0.7,0.4,1.3,0.7,2
			c0.2,0.6,0.5,1.1,0.9,1.6s0.8,1.1,1.3,1.5s1,0.8,1.6,1.1c0.3,0.2,0.7,0.3,1.1,0.4c0.4,0.1,0.7,0.1,1.1,0.2c0.7,0.1,1.5,0,2.2-0.1
			c0.9-0.2,1.7-0.5,2.5-1c0.5-0.3,0.9-0.6,1.3-1c0.4-0.3,0.7-0.7,1-1.1c0.7-0.8,4.3-4.4,4.8-5.3c0.2-0.1,1.1-0.3,1.4-0.4
			c0.3,0,0.6,0,0.9,0.1s0.5,0.2,0.8,0.3c0.2,0.1,0.5,0.3,0.7,0.5c0.2,0.2,0.4,0.4,0.6,0.6c0.1,0.2,0.2,0.4,0.3,0.6
			c0,0.1,0.1,0.3,0.1,0.4c0,0.4,0,0.8-0.1,1.1c-0.1,0.5-0.2,1-0.2,1.6c0,1.1,0.6,2.2,1.7,2.6h0.1c0.2,0.5,0.5,0.9,0.9,1.3
			c0.6,0.5,1.2,1,1.9,1.1c0.4,0.1,0.8,0.2,1.2,0.2c0.5,0,1-0.1,1.5-0.2s1-0.3,1.4-0.5c0.3-0.1,0.5-0.2,0.7-0.4
			c0.4-0.2,0.7-0.4,1-0.7s0.6-0.7,0.9-1c0.2-0.3,0.4-0.7,0.6-1.1c0.1-0.2,0.2-0.5,0.3-0.8c0.2-0.7,0.4-1.5,0.4-2.3
			C150.4,56.6,150.4,55.8,150.3,55.1z"/>
		<g>
			<path class="st1" d="M151.8,55.1c-0.7-6.2-3.9-12.5-9.5-15.5c0,0.9,0,1.7,0,2.6c1.6-1.2,2.3-2.4,3.1-4.1c0.5-1.1,1-1.7,1.8-3.1
				c0.9-1.6,2-5,1.2-6.8c-4.2-9.8-14.7,1.8-18,5.9c0.9,0.4,1.7,0.7,2.6,1.1c-0.9-7.2,2.7-21.2-7.9-22.8c-3.2-0.5-7.2,0.4-9.4,3
				c-3.4,4-1.5,10.4-1.8,15.2c-0.5,7.5-2.1,15.3-1,22.8c0.5,3.7,1.8,8,5.3,10c4.2,2.4,8.3,0.4,11.4-2.7c1.2-1.2,2.7-3.8,4.2-4.5
				c2.6-1.2,1.9,2.8,2.7,4.6c0.3,0.7,0.8,1.1,1.2,1.6c0.4,0.5,1.2,1.3,1.6,1.7c1.8,1.4,3.6,2,5.9,1.5
				C150.3,64.6,152.1,59.8,151.8,55.1c-0.1-1.9-3.1-1.9-3,0c0.2,3.8-2,9.6-6.7,6.8c-2.8-1.7-1.9-2.4-2.7-5.5c-0.6-2-1.6-3.5-3.9-3.8
				c-3.1-0.4-4.5,2.2-6.4,4.2c-2,2.1-3.9,4.6-7.1,4.5c-3.3-0.2-4.8-2.7-5.7-5.6c-1.8-6.1-0.6-13.5,0.1-19.7c0.3-2.9,0.8-5.9,0.7-8.9
				c0-2.8-1.6-7.9,1-10.1c4-3.3,9.8-1.9,11.3,3c0.8,2.6,0.1,5.4,0.2,8.1c0.1,2.3,0.1,4.7,0.4,6.9c0.1,1.1,1.6,2.2,2.6,1.1
				c1.9-2.4,10.5-13.3,13.1-6.8c0.6,1.6-0.6,3.3-1.4,4.7c-0.8,1.3-2.5,4.8-3.5,5.6c-0.8,0.6-1.1,2,0,2.6c4.5,2.4,7.4,7.9,8,12.9
				C149,57,152,57,151.8,55.1z"/>
		</g>
	</g>
</g>
<g>
	<path class="st0" d="M223.8,49.6c0-0.4-0.1-0.8-0.1-1.2c0-1.2,0-2.5-0.1-3.7c-0.1-3.1-0.5-6.1-0.8-9.2c-0.1-0.6-0.1-1.2-0.2-1.9
		c0-1.7-0.1-3.4-0.3-5.2c0-0.2,0-0.3,0-0.5c0.1-1.9,0.4-3.7,0.3-5.6c0-0.9-0.2-1.8-0.5-2.7c-0.3-0.9-0.8-1.7-1.4-2.3
		c-0.3-0.3-0.7-0.6-1.1-0.8c-0.4-0.3-0.9-0.5-1.4-0.7c-0.9-0.4-1.9-0.6-2.9-0.6c-0.1,0-0.2,0-0.2,0c-0.3,0-0.6,0-0.9,0.1l0,0
		c-0.2-0.1-0.5-0.1-0.7-0.1l0,0c-0.2,0-0.5,0-0.7,0.1c-0.1,0-0.3,0.1-0.4,0.1c-0.2,0-0.3,0.1-0.5,0.2c-0.3,0.1-0.6,0.2-0.9,0.4
		c-0.4,0.2-0.7,0.4-1,0.6c-0.5,0.3-0.9,0.7-1.3,1.1c-0.4,0.4-0.7,0.8-1,1.2c-0.3,0.4-0.5,0.9-0.7,1.3c-0.1,0.3-0.2,0.6-0.3,1
		c-0.1,0.5-0.1,1-0.2,1.5c-0.1,0.9-0.1,1.9,0,2.8c0.1,0.8,0.2,1.6,0.3,2.3c-0.1,1.1-0.2,2.2-0.3,3.4c0,0.6-0.1,1.3-0.1,1.9
		c-0.1,0.9-0.1,1.9-0.1,2.8c0,0.1,0,0.3-0.1,0.4c-0.3,1.9-0.5,3.8-0.5,5.7c-0.1,3.7,0.1,7.4,0.7,11.1c0,0.2,0.1,0.3,0.2,0.4
		c0,0,0,0,0,0.1c-0.2,0.7-0.1,1.5,0,2.2c0.1,0.9,0.5,1.8,0.9,2.6c0.5,0.9,1.1,1.7,1.7,2.5c0.3,0.4,0.7,0.7,1,1.1
		c0.4,0.4,0.9,0.7,1.3,1c0.7,0.5,1.6,0.8,2.5,1c0.7,0.2,1.5,0.2,2.2,0.1c0.4,0,0.7-0.1,1.1-0.2c0.4-0.1,0.7-0.2,1.1-0.4
		c0.6-0.3,1.1-0.6,1.6-1.1c0.5-0.4,0.9-1,1.3-1.5c0.3-0.5,0.6-1.1,0.9-1.6c0.3-0.7,0.5-1.3,0.7-2c0.4-1.3,0.6-2.7,0.7-4.1
		C223.8,52.1,223.9,50.9,223.8,49.6z"/>
	<g>
		<path class="st1" d="M225.3,49.6c-0.8-7.5-1.9-15.9-1.3-23.4c0.4-5.5-0.4-10.8-6.7-12.2c-2.8-0.6-5.6-0.3-8,1.3
			c-5.4,3.7-3.9,9.5-4.1,15.1c-0.3,7.4-1.6,14.9-0.2,22.3c0.4,2.2,0.2,0.2,0.3,1c0.1,1.1-0.1,2.2,0.2,3.3c0.7,2.6,2.4,5.1,4.5,6.7
			c3.2,2.5,7.6,2.9,10.8,0.3C224.9,60.7,225.4,54.4,225.3,49.6c-0.1-1.9-3.1-1.9-3,0c0.1,3.7,0,9.3-3.2,12c-3.2,2.7-7.3,0.5-9.3-2.5
			c-1.2-1.8-1.1-3.6-1.4-5.5c-1.4-8.5-0.2-16.4,0-24.9c0.1-4.2-1.2-10.4,4.5-11.9c3.8-1,7.9,1.6,8.3,5.6c0.2,2-0.4,4.1-0.4,6.1
			c0,2.3,0.3,4.7,0.5,7c0.4,4.7,0.5,9.4,1,14C222.5,51.5,225.5,51.5,225.3,49.6z"/>
	</g>
</g>
<g>
	<path class="st0" d="M107,46.1c0-0.1-0.1-0.2-0.1-0.2c-0.4-0.7-0.8-1.4-1.4-2c-0.1-0.1-0.2-0.3-0.3-0.4c-0.4-0.4-0.9-0.8-1.5-1
		c0,0-0.1,0-0.1-0.1c-0.4-0.3-0.9-0.4-1.2-0.5c-0.4-0.1-0.8-0.2-1.2-0.3c-0.8-0.2-1.6-0.2-2.6-0.2l0,0c-0.9-0.1-1.7-0.2-2.4-0.2
		c-0.2,0-0.3,0-0.5,0c-0.7,0-1.4,0-2,0.1c0,0,0,0-0.1,0l-0.1,0.1l-0.1,0.1c0,0-0.1,0-0.1,0.1c0,0-0.1,0-0.2,0H93c-0.1,0-0.1,0-0.2,0
		h-0.1h-0.1c0,0,0,0-0.1,0c-0.1,0-0.1,0-0.2,0s-0.2-0.1-0.2-0.1l0,0c0,0,0,0,0-0.1c0,0,0,0,0-0.1c0,0,0,0,0-0.1c-0.1,0-0.1,0-0.2,0
		c-0.1-0.1-0.2-0.2-0.1-0.3c0,0,0,0,0-0.1c0,0,0-0.1,0.1-0.1l0,0c0,0,0,0,0-0.1l0,0c0,0,0,0,0-0.1c0,0,0,0,0-0.1c0,0,0-0.1,0.1-0.1
		l0,0l0,0v-0.1v-0.1c0,0,0-0.1,0.1-0.1l0.1-0.1c0,0,0,0,0.1,0l0,0l0,0l0,0c0,0,0.1,0,0.1-0.1c0.1,0,0.1,0,0.2-0.1l0,0l0,0l0,0l0,0
		c0.4-0.2,0.8-0.4,1.2-0.5c0.5-0.1,1-0.2,1.5-0.2c0.4,0,0.7,0.1,1.2,0.1l0,0h0.1c0.1,0,0.1,0,0.2,0c0.4,0.1,0.7,0.1,1.1,0.2l0.6,0.1
		c0.6,0.1,1.3,0.2,2,0.3c0.3,0,0.7,0,1,0c0.5,0,0.9,0,1.4-0.1c0.2,0,0.4,0,0.6,0c0.1,0,0.2,0,0.4,0c0.2,0,0.4-0.1,0.7-0.1
		c0.3-0.1,0.6-0.2,0.8-0.3c0.3-0.1,0.5-0.3,0.7-0.4c0.2-0.1,0.4-0.3,0.6-0.5c0.2-0.2,0.4-0.4,0.5-0.6l0.1-0.1c0.3-0.3,0.5-0.6,0.7-1
		c0.1-0.2,0.1-0.4,0.2-0.5V36c0-0.1,0.1-0.2,0.1-0.4c0-0.2,0.1-0.4,0.1-0.6s0-0.5,0-0.6v-0.1c0-0.3-0.1-0.5-0.2-0.7
		c-0.1-0.3-0.2-0.6-0.2-0.8c-0.1-0.2-0.2-0.4-0.3-0.6c0-0.2-0.1-0.3-0.2-0.5c-0.2-0.2-0.4-0.4-0.5-0.6c-0.1-0.1-0.2-0.1-0.3-0.2l0,0
		l0,0c-0.1-0.1-0.1-0.1-0.2-0.1c0,0-0.1,0-0.1-0.1c0,0-0.1,0-0.1-0.1l0,0l0,0l0,0c-0.1-0.2-0.2-0.3-0.3-0.4
		c-0.3-0.3-0.7-0.5-1.1-0.7c-0.5-0.2-1.1-0.5-1.7-0.7c-0.3-0.1-0.6-0.2-1-0.2c-0.8-0.2-1.7-0.3-2.7-0.3c-0.1,0-0.2,0-0.3,0
		c-0.5,0-1,0-1.5,0.1c-0.1,0-0.1,0-0.2,0c0,0,0,0-0.1,0c0,0-0.1,0-0.2,0c-0.2,0-0.3,0-0.5,0c-0.6,0-1.2,0.1-1.9,0.2
		c-0.8,0.2-1.7,0.4-2.5,0.8c-0.9,0.4-1.7,0.8-2.5,1.3c-0.8,0.5-1.5,1.2-2.1,1.9c-0.4,0.5-0.8,1.1-1.1,1.6c-0.4,0.5-0.7,1-1,1.6
		c-0.3,0.6-0.5,1.2-0.7,1.9c-0.1,0.3-0.2,0.6-0.3,1c-0.2,0.4-0.3,0.9-0.3,1.3c-0.1,0.9-0.1,1.8,0,2.7c0,0.3,0,0.6,0,0.9s0,0.5,0,0.8
		c0,0.1,0,0.1,0,0.2v0.1v0.2l0.1,0.4c0.1,0.3,0.2,0.7,0.3,1.1c0.1,0.3,0.2,0.6,0.4,0.8c0,0,0,0,0,0.1s0,0.1,0,0.1
		c0.1,0.1,0.1,0.2,0.2,0.3c0,0,0,0.1,0.1,0.1c0.1,0.1,0.2,0.3,0.4,0.4c0,0,0,0,0,0.1l0.1,0.1l0.4-0.3l0,0L86,48.4
		c0.1,0.1,0.2,0.2,0.3,0.3l0,0l0,0l0,0c0.1,0.1,0.2,0.1,0.2,0.2l0,0h0.1l0.1,0.1l0.1,0.1c0,0,0,0,0.1,0l0.1,0.1l0,0
		c0.1,0.1,0.3,0.2,0.4,0.3c0,0,0,0,0.1,0c0,0,0,0,0.1,0h0.1c-0.1,0.4,0.1,0.4,0.3,0.5c0.1,0,0.2,0.1,0.3,0.1h0.1h0.1h0.1l0.2,0.1
		h0.1l0.2,0.1h0.1l0.2-0.4l0,0L89,50.4c0,0,0,0,0.1,0s0.2,0.1,0.3,0.1h0.1l0.2,0.1h0.1h0.1h0.2h0.1h0.1h0.1l0,0h0.1h0.2h0.1
		c0.2,0,0.4,0.1,0.5,0.1s0.3,0,0.4,0c0,0,0,0,0.1,0c0.4,0,0.7,0.1,1.1,0.1H93h0.1c0.2,0,0.4-0.1,0.7-0.1h0.1H94h0.1h0.1
		c0.1,0,0.2-0.1,0.3-0.1l0,0h0.1c0,0,0,0,0.1,0h0.1h0.1c0,0,0,0,0.1,0s0.2,0,0.2,0h0.1c0.3,0,0.5-0.1,0.7-0.1l0,0l0,0h0.1
		c0.3,0,0.6-0.1,1-0.2h0.2c0.8,0.1,1.4,0.3,1.9,0.5c0.4,0.2,0.7,0.3,1,0.5c0.1,0.1,0.2,0.2,0.3,0.3s0.1,0.2,0.1,0.3V52
		c0,0.1,0,0.2-0.1,0.3c0,0.1,0,0.1-0.1,0.2c0,0.1-0.1,0.1-0.1,0.2c-0.1,0.1-0.1,0.1-0.2,0.2H100c-0.2,0.1-0.4,0.2-0.5,0.2l-0.1,0.1
		c0,0-0.1,0-0.1,0.1c-0.2,0-0.4,0.1-0.6,0.1h-0.1c-0.5,0-1-0.2-1.5-0.3c-0.2-0.1-0.5-0.1-0.7-0.2c-0.4-0.1-0.7-0.2-1.1-0.3
		c-0.3-0.1-0.6-0.1-1-0.2c-0.4-0.1-0.8-0.1-1.1-0.1c-0.4,0-0.8,0-1.2,0.1c-0.1,0-0.2,0.1-0.3,0.1c-0.2,0-0.3,0-0.5,0
		c-0.1,0-0.3,0-0.4,0c-1,0-1.8,0.1-2.6,0.4c-1.2,0.3-2.1,0.8-2.8,1.4c-0.9,0.8-1.6,2-1.7,3.2c0,0.4-0.1,0.7-0.1,1s0.1,0.7,0.1,1.1
		c0,0.1,0,0.2,0.1,0.3c0,0.1,0,0.1,0.1,0.2l0,0c0,0,0,0,0,0.1c0,0,0,0,0,0.1s0.1,0.2,0.2,0.3l-0.1,0v0.1c0.1,0.1,0.1,0.1,0.2,0.2
		l0.2,0.3c0.1,0.1,0.2,0.2,0.3,0.4c0.2,0.3,0.6,0.7,1,1.1c0,0,0,0,0.1,0c0.1,0.1,0.2,0.1,0.3,0.2s0.2,0.1,0.3,0.2l0,0
		c0,0,0.1,0,0.1,0.1l0.3-0.4l0,0l-0.2,0.4h0.1c0.1,0,0.1,0.1,0.2,0.1H87c0.2,0.1,0.4,0.2,0.6,0.2l0.3,0.1H88h0.1l0.1,0.1l0,0h0.1
		h0.1c0.1,0.3,0.2,0.3,0.3,0.4c0.1,0,0.1,0,0.2,0c0.3,0.1,0.7,0.1,1,0.1H90c0.1,0,0.2,0,0.3,0c0.1,0.1,0.2,0.1,0.3,0.1
		c0.4,0,0.9,0,1.3,0s0.9,0,1.3,0c0.4,0,0.8-0.1,1.2-0.1l0,0c0.3,0,0.7,0,1,0c0.3,0,0.6,0,1,0h0.3H97c0.2,0,0.4,0,0.6,0
		c0.2,0,0.4,0,0.6,0h0.1c0.3,0,0.6,0,1-0.1c0.1,0,0.3,0,0.4,0c0.6-0.1,1.2-0.2,1.9-0.4c0.6-0.2,1.2-0.4,1.7-0.7
		c0.6-0.4,1.2-0.8,1.6-1.2c0.3-0.3,0.5-0.6,0.7-0.9c0.2-0.3,0.4-0.6,0.6-0.9c0.1-0.2,0.2-0.4,0.3-0.7c0-0.1,0.1-0.1,0.1-0.2
		c0.2-0.4,0.4-0.8,0.6-1.3c0.2-0.4,0.3-0.9,0.4-1.4c0-0.2,0.1-0.4,0.1-0.7c0-0.1,0-0.2,0.1-0.2c0.3-0.8,0.5-1.7,0.6-2.6
		c0.2-1.6,0.1-3-0.3-4.3C107.8,47.6,107.5,46.8,107,46.1z"/>
	<g>
		<path class="st1" d="M108.3,45.3c-1.9-4.1-5.6-5.2-9.8-5.6c-1.1-0.1-4.8-0.8-5.7,0.1C92.3,40.3,93,40,93,40c-0.1,0-0.1,0-0.1,0
			c-0.6-0.1-0.4,0.2,0.6,1.1c0-0.7-0.5-1.3-1.1-1.4c-1.5-0.4,1.9,3,0.9,1.4l-0.1-1.2c-0.2,0.9,0.3,1.5-0.1,1.3
			c-0.4-0.1,2-0.7,1.9-0.6c1.8-0.2,3.6,0.6,5.4,0.7c3.6,0.2,7.4-0.4,8.9-4.1c1-2.4,0.1-5.8-2.1-7.3c-0.4,0.9-0.8,1.8-1.2,2.7l0,0
			c1.4,0.5,2.5-1.5,1.5-2.5c-0.7-0.6-0.5-0.6-0.2,0c-0.1,0.6-0.2,1.2-0.2,1.8l0,0c1.1-0.9-0.1-3-1.5-2.5l0,0
			c0.6,0.2,1.1,0.5,1.7,0.7c-4.8-6.4-17.7-2.6-21.7,2.8c-3.1,4.3-5,12.4-0.8,16.7c0.6,0.6,1.5,0.5,2.1,0c0.1-0.1,0.2-0.2,0.4-0.3
			c-0.7,0-1.4,0-2.1,0l0,0c0-0.7,0-1.4,0-2.1c-0.1,0.1-0.2,0.2-0.3,0.3c-0.6,0.6-0.6,1.6,0,2.1c0.1,0.1,0.2,0.2,0.3,0.3
			c0.6,0.5,1.5,0.6,2.1,0l0,0c-0.7,0-1.4,0-2.1,0c0.8,0.8,2,1.5,3.5,1.9c0.8,0.2,1.6-0.3,1.8-1c0.1-0.1,0.1-0.3,0.2-0.4
			c-0.6,0.3-1.2,0.7-1.8,1l0,0c-0.3-0.6-0.7-1.2-1-1.8c0,0.2-0.1,0.3-0.1,0.5c-0.2,0.8,0.3,1.6,1,1.8c1.8,0.5,3.7,0.7,5.6,0.5
			c0.5,0,0.9-0.3,1.4-0.3s1.1,0,1.6-0.1c0.6-0.1,2.2,0,2.1-0.3L98.7,52c-5-2-15.1-1.7-16.3,5.2c-0.5,3,1,6,3.7,7.4
			c0.7,0.4,1.6,0.2,2.1-0.5c0.1-0.1,0.2-0.3,0.3-0.4c-0.7,0.2-1.4,0.4-2.1,0.5l0,0c-0.2-0.7-0.4-1.4-0.5-2.1
			c-0.1,0.1-0.1,0.3-0.2,0.4c-0.4,0.7-0.2,1.7,0.5,2.1c3.9,2,8.1,1.5,12.4,1.1C108,65,112.9,53.6,108.3,45.3
			c-0.9-1.7-3.5-0.2-2.6,1.5c2.1,3.8,1.4,10.5-1.8,13.7c-2.3,2.3-5.4,2-8.4,2.1c-2.8,0.1-5.6,0.6-8.1-0.7c0.2,0.7,0.4,1.4,0.5,2.1
			c0.1-0.1,0.1-0.3,0.2-0.4c0.4-0.7,0.2-1.7-0.5-2.1l0,0c-0.8-0.4-1.6-0.2-2.1,0.5c-0.1,0.1-0.2,0.3-0.3,0.4
			c0.7-0.2,1.4-0.4,2.1-0.5c-0.8-0.4-2.1-2.1-2.1-2.2c-2.3-6.2,7.4-6,10.6-5.3c2,0.4,8.1,0.4,5.7-3.5c-2.2-3.4-8.6-1-12-1.9
			c0.3,0.6,0.7,1.2,1,1.8c0-0.2,0.1-0.3,0.1-0.5c0.2-0.8-0.3-1.6-1-1.8l0,0c-0.8-0.2-1.6,0.3-1.8,1c-0.1,0.1-0.1,0.3-0.2,0.4
			c0.6-0.3,1.2-0.7,1.8-1c-0.3-0.1-1.1-0.2-1.3-0.5c-0.6-0.8-0.4-0.2-0.9-0.7c-0.6-0.6-1.5-0.6-2.1,0l0,0c0.7,0,1.4,0,2.1,0
			c-0.1-0.1-0.2-0.2-0.3-0.3c0,0.7,0,1.4,0,2.1c0.1-0.1,0.2-0.2,0.3-0.3c0.6-0.6,0.6-1.5,0-2.1l0,0c-0.6-0.6-1.5-0.5-2.1,0
			c-0.1,0.1-0.2,0.2-0.4,0.3c0.7,0,1.4,0,2.1,0c-2.6-2.7-1.3-8.3,0.1-11.1c2-4,5.7-5.9,10-6.3c1.3-0.1,6.3-0.4,7.7,1.5
			c0.4,0.5,1,0.9,1.7,0.7l0,0c-0.5-0.8-1-1.7-1.5-2.5l0,0c-0.5,0.5-0.5,1.2-0.2,1.8c0.1,0.3,0.8,0.7,0.7,0.6c0.5-0.8,1-1.7,1.5-2.5
			l0,0c-1.7-0.6-2.5,1.8-1.2,2.7c1.7,1.1,1,3.9-0.2,5c-2,1.7-5.4,0.8-7.8,0.4c-1.2-0.2-2.9-0.5-4.5,0.1c-0.5,0.2-2.6,1.5-1.5,0.8
			c1.3-0.8-0.1-0.1-0.1-0.1c-0.9,0.8-1,0.8-1.2,1.6c0,0,0,1.3,0.2,1.2c1.2-0.5-0.5-2.4-0.2-1.1c0.2,1-0.2,2,1.2,2.4
			c-0.4-0.5-0.7-1-1.1-1.4c0.1,1.8,1.7,1.8,3,1.8c0.2,0,2.1-0.6-0.3-0.2c1.1-0.2,2.4-0.1,3.5-0.1c3.7,0.1,7.3,0.6,9,4.3
			C106.5,48.6,109.1,47.1,108.3,45.3z"/>
	</g>
</g>
<g>
	<path class="st0" d="M237.7,40.3c0-0.1,0.1-0.1,0.1-0.2c0.1-0.1,0.1-0.1,0.2-0.2h0.1c0.2-0.1,0.4-0.2,0.5-0.2l0.1-0.1
		c0,0,0.1,0,0.1-0.1c0.2,0,0.4-0.1,0.6-0.1h0.1c0.5,0,1,0.2,1.5,0.3c0.2,0.1,0.5,0.1,0.7,0.2c0.4,0.1,0.7,0.2,1.1,0.3
		c0.3,0.1,0.6,0.1,1,0.2c0.4,0.1,0.8,0.1,1.1,0.1c0.4,0,0.8,0,1.2-0.1c0.1,0,0.2-0.1,0.3-0.1c0.2,0,0.3,0,0.5,0c0.1,0,0.3,0,0.4,0
		c1,0,1.8-0.1,2.6-0.4c1.2-0.3,2.1-0.8,2.8-1.4c0.9-0.8,1.6-2,1.7-3.2c0-0.4,0.1-0.7,0.1-1s-0.1-0.7-0.1-1.1c0-0.1,0-0.2-0.1-0.3
		c0-0.1,0-0.1-0.1-0.2l0,0c0,0,0,0,0-0.1c0,0,0,0,0-0.1c0-0.1-0.1-0.2-0.2-0.3l-0.1-0.1V32c-0.1-0.1-0.1-0.1-0.2-0.2l-0.2-0.3
		c-0.1-0.1-0.2-0.2-0.3-0.4c-0.2-0.3-0.6-0.7-1-1.1c0,0,0,0-0.1,0c-0.1-0.1-0.2-0.1-0.3-0.2s-0.2-0.1-0.3-0.2l0,0c0,0-0.1,0-0.1-0.1
		l-0.3,0.4l0,0l0.2-0.4h-0.1c-0.1,0-0.1-0.1-0.2-0.1h-0.1c-0.2-0.1-0.4-0.2-0.6-0.2l-0.3-0.1h-0.1h-0.1l-0.1-0.1l0,0h-0.1h-0.1
		c-0.1-0.1-0.3-0.1-0.4-0.2c-0.1,0-0.1,0-0.2,0c-0.3-0.1-0.7-0.1-1-0.1h-0.1c-0.1,0-0.2,0-0.3,0c-0.1-0.1-0.2-0.1-0.3-0.1
		c-0.4,0-0.9,0-1.3,0c-0.4,0-0.9,0-1.3,0c-0.4,0-0.8,0.1-1.2,0.1l0,0c-0.3,0-0.7,0-1,0s-0.6,0-1,0h-0.3h-0.3c-0.2,0-0.4,0-0.6,0
		c-0.2,0-0.4,0-0.6,0h-0.1c-0.3,0-0.6,0-1,0.1c-0.1,0-0.3,0-0.4,0c-0.6,0.1-1.2,0.2-1.9,0.4c-0.6,0.2-1.2,0.4-1.7,0.7
		c-0.6,0.4-1.2,0.8-1.6,1.2c-0.3,0.3-0.5,0.6-0.7,0.9c-0.2,0.3-0.4,0.6-0.6,0.9c-0.1,0.2-0.2,0.4-0.3,0.7c0,0.1-0.1,0.1-0.1,0.2
		c-0.2,0.4-0.4,0.8-0.6,1.3c-0.2,0.4-0.3,0.9-0.4,1.4c0,0.2-0.1,0.4-0.1,0.7c0,0.1,0,0.2-0.1,0.2c-0.3,0.8-0.5,1.7-0.6,2.6
		c-0.2,1.6-0.1,3,0.3,4.3c0.3,0.9,0.6,1.7,1.1,2.4c0,0.1,0.1,0.2,0.1,0.2c0.4,0.7,0.8,1.4,1.4,2c0.1,0.1,0.2,0.3,0.3,0.4
		c0.4,0.4,0.9,0.8,1.5,1c0,0,0.1,0,0.1,0.1c0.4,0.3,0.9,0.4,1.2,0.5c0.4,0.1,0.8,0.2,1.2,0.3c0.8,0.2,1.6,0.2,2.6,0.2l0,0
		c0.9,0.1,1.7,0.2,2.4,0.2c0.2,0,0.3,0,0.5,0c0.7,0,1.4-0.1,2-0.1c0,0,0,0,0.1,0l0.1-0.1l0.1-0.1c0,0,0.1,0,0.1-0.1c0,0,0.1,0,0.2,0
		h0.1c0.1,0,0.1,0,0.2,0h0.1h0.1c0,0,0,0,0.1,0s0.1,0,0.2,0c0.1,0,0.2,0.1,0.2,0.1l0,0c0,0,0,0,0,0.1c0,0,0,0,0,0.1c0,0,0,0,0,0.1
		c0.1,0,0.1,0,0.2,0c0.1,0.1,0.2,0.2,0.1,0.3c0,0,0,0,0,0.1c0,0,0,0.1-0.1,0.1l0,0c0,0,0,0,0,0.1l0,0c0,0,0,0,0,0.1c0,0,0,0,0,0.1
		c0,0,0,0.1-0.1,0.1l0,0l0,0v0.1v0.1c0,0,0,0.1-0.1,0.1l-0.1,0.1c0,0,0,0-0.1,0l0,0l0,0l0,0c0,0-0.1,0-0.1,0.1c-0.1,0-0.1,0-0.2,0.1
		l0,0l0,0l0,0l0,0c-0.4,0.2-0.8,0.4-1.2,0.5c-0.5,0.1-1,0.2-1.5,0.2c-0.4,0-0.7-0.1-1.2-0.1l0,0h-0.1c-0.1,0-0.1,0-0.2,0
		c-0.4-0.1-0.7-0.1-1.1-0.2l-0.6-0.1c-0.6-0.1-1.3-0.2-2-0.3c-0.3,0-0.7,0-1,0c-0.5,0-0.9,0-1.4,0.1c-0.2,0-0.4,0-0.6,0
		c-0.1,0-0.2,0-0.4,0s-0.4,0.1-0.7,0.1c-0.3,0.1-0.6,0.2-0.8,0.3c-0.3,0.1-0.5,0.3-0.7,0.4c-0.2,0.1-0.4,0.3-0.6,0.5
		c-0.2,0.2-0.4,0.4-0.5,0.6l-0.1,0.1c-0.3,0.3-0.5,0.6-0.7,1c-0.1,0.2-0.1,0.4-0.2,0.5v0.1c0,0.1-0.1,0.2-0.1,0.4s-0.1,0.4-0.1,0.6
		c0,0.2,0,0.5,0,0.6v0.1c0,0.3,0.1,0.5,0.2,0.7c0.1,0.3,0.2,0.6,0.2,0.8c0.1,0.2,0.2,0.4,0.3,0.6c0,0.2,0.1,0.3,0.2,0.5
		c0.2,0.2,0.4,0.4,0.5,0.6c0.1,0.1,0.2,0.1,0.3,0.2l0,0l0,0c0.1,0.1,0.1,0.1,0.2,0.1c0,0,0.1,0,0.1,0.1c0,0,0.1,0,0.1,0.1l0,0l0,0
		l0,0c0.1,0.2,0.2,0.3,0.3,0.4c0.3,0.3,0.7,0.5,1.1,0.7c0.5,0.2,1.1,0.5,1.7,0.7c0.3,0.1,0.6,0.2,1,0.2c0.8,0.2,1.7,0.3,2.7,0.3
		c0.1,0,0.2,0,0.3,0c0.5,0,1,0,1.5-0.1c0.1,0,0.1,0,0.2,0c0,0,0,0,0.1,0c0,0,0.1,0,0.2,0c0.2,0,0.3,0,0.5,0c0.6,0,1.2-0.1,1.9-0.2
		c0.8-0.2,1.7-0.4,2.5-0.8c0.9-0.4,1.7-0.8,2.5-1.3s1.5-1.2,2.1-1.9c0.4-0.5,0.8-1.1,1.1-1.6c0.4-0.5,0.7-1,1-1.6s0.5-1.2,0.7-1.9
		c0.1-0.3,0.2-0.6,0.3-1c0.2-0.4,0.3-0.9,0.3-1.3c0.1-0.9,0.1-1.8,0-2.7c0-0.3,0-0.6,0-0.9c0-0.3,0-0.5,0-0.8c0-0.1,0-0.1,0-0.2
		v-0.1v-0.2l-0.1-0.4c-0.1-0.3-0.2-0.7-0.3-1.1c-0.1-0.3-0.2-0.6-0.4-0.8c0,0,0,0,0-0.1v-0.1c-0.1-0.1-0.1-0.2-0.2-0.3
		c0,0,0-0.1-0.1-0.1c-0.1-0.1-0.2-0.3-0.4-0.4c0,0,0,0-0.1-0.1l-0.1-0.1l-0.4,0.3l0,0l0.3-0.3c-0.1-0.1-0.2-0.2-0.3-0.3l0,0l0,0l0,0
		c-0.1-0.1-0.2-0.1-0.2-0.2l0,0h-0.1l-0.1-0.1l-0.1-0.1c0,0,0,0-0.1,0l-0.1-0.1l0,0c-0.1-0.1-0.3-0.2-0.4-0.3c0,0,0,0-0.1,0
		c0,0,0,0-0.1,0H250c-0.2-0.1-0.4-0.2-0.5-0.2s-0.2-0.1-0.3-0.1h-0.1H249h-0.1l-0.2-0.1h-0.1l-0.2-0.1h-0.1l-0.2,0.4l0,0l0.1-0.5
		c0,0,0,0-0.1,0s-0.2-0.1-0.3-0.1h-0.1l-0.2-0.1h-0.1h-0.1h-0.2H247h-0.1h-0.1l0,0h-0.1h-0.2h-0.1c-0.2,0-0.4-0.1-0.5-0.1
		s-0.3,0-0.4,0c0,0,0,0-0.1,0c-0.4,0-0.7-0.1-1.1-0.1h-0.1h-0.1c-0.2,0-0.4,0.1-0.7,0.1h-0.1h-0.1h-0.1H243c-0.1,0-0.2,0.1-0.3,0.1
		l0,0h-0.1c0,0,0,0-0.1,0h-0.1h-0.1c0,0,0,0-0.1,0s-0.2,0-0.2,0h-0.1c-0.3,0-0.5,0.1-0.7,0.1l0,0l0,0h-0.1c-0.3,0-0.6,0.1-1,0.2
		h-0.2c-0.8-0.1-1.4-0.3-1.9-0.5c-0.4-0.2-0.7-0.3-1-0.5c-0.1-0.1-0.2-0.2-0.3-0.3c-0.1-0.1-0.1-0.2-0.1-0.3v-0.1
		c0-0.1,0-0.2,0.1-0.3C237.7,40.4,237.7,40.3,237.7,40.3z"/>
	<g>
		<path class="st1" d="M239,41c-0.6,0.8-0.1-0.2,0.5-0.2c0.2,0,1.4,0.4,1.9,0.5c1.8,0.5,3.3,0.5,5.1,0.4c3.5-0.2,7.3-0.9,8.9-4.5
			c1.5-3.4,0-7.2-3.2-8.9c-0.7-0.4-1.6-0.2-2.1,0.5c-0.1,0.1-0.2,0.3-0.3,0.4c0.7-0.2,1.4-0.4,2.1-0.5l0,0c0.2,0.7,0.4,1.4,0.5,2.1
			c0.1-0.1,0.1-0.3,0.2-0.4c0.4-0.7,0.2-1.7-0.5-2.1c-2.9-1.5-5.4-1.3-8.6-1.2c-5.9,0.2-11,0.5-13.8,6.6c-2.7,5.9-2.4,14.5,3.9,18
			c2.7,1.5,6.8,1.8,9.8,1.5c0.5-0.1,1.7,0,2.1-0.5c-0.4,0.5-0.9-0.5-0.9-1c0,0.7,0.5,1.3,1.1,1.4c-0.4-0.1,0.3-3-0.5-2
			c0,0-0.5,0.6-0.4,0.7c-0.2-0.1,0.1,1.2,0.1,1.2c0.2-1-0.1-1.4,0-1.2c0-0.1,0.4-0.1,0.1-0.1c0.2,0-1.5,0.6-1.8,0.6
			c-1.8,0.2-3.6-0.6-5.4-0.7c-3.6-0.2-7.4,0.4-8.9,4.1c-1,2.4-0.1,5.8,2.1,7.3c0.4-0.9,0.8-1.8,1.2-2.7l0,0
			c-1.4-0.5-2.5,1.5-1.5,2.5c0.7,0.6,0.5,0.6,0.2,0c0.2-0.7,0.4-1.4,0.5-2.1l0,0c-1.4,0.9-0.5,3.4,1.2,2.7l0,0
			c-0.6-0.2-1.1-0.5-1.7-0.7c4.8,6.4,17.7,2.6,21.7-2.8c3.1-4.3,5-12.4,0.8-16.7c-0.6-0.6-1.5-0.5-2.1,0c-0.1,0.1-0.2,0.2-0.4,0.3
			c0.7,0,1.4,0,2.1,0l0,0c0,0.7,0,1.4,0,2.1c0.1-0.1,0.2-0.2,0.3-0.3c0.6-0.6,0.6-1.6,0-2.1c-0.1-0.1-0.2-0.2-0.3-0.3
			c-0.6-0.5-1.5-0.6-2.1,0l0,0c0.7,0,1.4,0,2.1,0c-0.8-0.8-2-1.5-3.5-1.9c-0.8-0.2-1.6,0.3-1.8,1c-0.1,0.1-0.1,0.3-0.2,0.4
			c0.6-0.3,1.2-0.7,1.8-1l0,0c0.3,0.6,0.7,1.2,1,1.8c0-0.2,0.1-0.3,0.1-0.5c0.2-0.8-0.3-1.6-1-1.8c-1.5-0.4-3.2-0.7-4.7-0.6
			C243.9,40.4,238.9,41.3,239,41c0.8-1.8-1.8-3.3-2.6-1.5c-2.5,5.7,9.3,3.5,12.2,4.4c-0.3-0.6-0.7-1.2-1-1.8c0,0.2-0.1,0.3-0.1,0.5
			c-0.2,0.8,0.3,1.6,1,1.8l0,0c0.8,0.2,1.6-0.3,1.8-1c0.1-0.1,0.1-0.3,0.2-0.4c-0.6,0.3-1.2,0.7-1.8,1c0.3,0.1,1.1,0.2,1.3,0.5
			c0.6,0.8,0.4,0.2,0.9,0.7c0.6,0.6,1.5,0.6,2.1,0l0,0c-0.7,0-1.4,0-2.1,0c0.1,0.1,0.2,0.2,0.3,0.3c0-0.7,0-1.4,0-2.1
			c-0.1,0.1-0.2,0.2-0.3,0.3c-0.6,0.6-0.6,1.5,0,2.1l0,0c0.6,0.6,1.5,0.5,2.1,0c0.1-0.1,0.2-0.2,0.4-0.3c-0.7,0-1.4,0-2.1,0
			c2.6,2.7,1.4,8.1-0.1,11.1c-2,4-5.7,5.9-10,6.3c-1.3,0.1-6.3,0.4-7.7-1.5c-0.4-0.5-1-0.9-1.7-0.7l0,0c0.4,0.9,0.8,1.8,1.2,2.7l0,0
			c0.7-0.5,0.9-1.3,0.5-2.1c-0.1-0.3-0.8-0.7-0.7-0.6c-0.5,0.8-1,1.7-1.5,2.5l0,0c1.7,0.6,2.5-1.8,1.2-2.7c-2.1-1.4-0.7-4.5,0.9-5.4
			c2.1-1.1,4.8-0.4,7.1,0c1.3,0.2,3,0.5,4.6-0.1c0.8-0.3,2.9-1.3,0.9-0.4c0.6-0.3-0.2,0.4,0.6-0.2c0.3-0.3,1.2-1,1.2-1.9
			c0.1-1.8-1.1,0.8-0.8,1.1c0,0.1,0.7-0.6,0.7-0.7c-0.1-1.1,0.4-2.1-1.1-2.5c0.4,0.5,0.7,1,1.1,1.4c0-1.8-1.8-1.8-3.1-1.8
			c-1.5,0,0.9,0,0,0.2c-1.7,0.2-3.3,0.1-4.9-0.1c-4.5-0.4-7.6-2.6-8.3-7.3c-0.5-3.6,0.9-9.5,4.3-11.5c2.3-1.3,5-1,7.5-1.1
			c2.6-0.1,5.2-0.5,7.6,0.7c-0.2-0.7-0.4-1.4-0.5-2.1c-0.1,0.1-0.1,0.3-0.2,0.4c-0.4,0.7-0.2,1.7,0.5,2.1l0,0
			c0.7,0.4,1.6,0.2,2.1-0.5c0.1-0.1,0.2-0.3,0.3-0.4c-0.7,0.2-1.4,0.4-2.1,0.5c0.8,0.4,2,1.7,2.2,2.2c1.1,3.5-3.2,5.4-6.4,5.6
			c-3.1,0.2-7.7-2.3-10.1,0.8C235.3,41.1,237.9,42.6,239,41z"/>
	</g>
</g>
</svg>
