<?xml version="1.0" encoding="utf-8"?>
<!-- Generator: Adobe Illustrator 22.1.0, SVG Export Plug-In . SVG Version: 6.00 Build 0)  -->
<svg version="1.1" id="Layer_1" xmlns="http://www.w3.org/2000/svg" xmlns:xlink="http://www.w3.org/1999/xlink" x="0px" y="0px"
	 viewBox="0 0 776.1 313" style="enable-background:new 0 0 776.1 313;" xml:space="preserve">
<style type="text/css">
	.st0{opacity:0.1;fill:#231F20;stroke:#231F20;stroke-width:5;stroke-miterlimit:10;enable-background:new    ;}
	.st1{fill:#FFD767;stroke:#584C4F;stroke-width:5;stroke-miterlimit:10;}
	.st2{opacity:0.1;enable-background:new    ;}
	.st3{fill:#231F20;stroke:#231F20;stroke-width:5;stroke-miterlimit:10;}
	.st4{fill:#FFFFFF;stroke:#584C4F;stroke-width:5;stroke-linecap:round;stroke-miterlimit:10;}
</style>
<path class="st0" d="M535.5,263.5c0.1-0.4,0.7-0.4,0.9,0c6.7,11.8,25.6,13.9,10.5-8.8c0,0-0.3-0.4-0.7-0.9c-0.5-0.6-0.1-1.6,0.9-1.4
	c3,0.7,6,0.6,8.7-2.4c8.8-9.8,14.5-18.6-22.8-28c-37.3-9.3-23.3,28.6-23.3,28.6C512.4,275.8,532.5,276.8,535.5,263.5z"/>
<path class="st0" d="M445.7,263.9c1.5,12,6,21.1,18,25c4.3,1.4,9.6,2.2,16,2.1c0,0,22.7-8.6,0-17.7c-8.4-3.4-11.7-9.5-12.7-17.3
	l-0.3-9.6l0.3-9.6c1-7.8,4.3-13.9,12.7-17.3c22.6-9.1,0-17.7,0-17.7c-6.4,0-11.7,0.7-16,2.1c-12,3.9-16.5,13-18,25
	c-0.7,5.3-0.7,11.3-0.6,17.5C445,252.7,445,258.6,445.7,263.9z"/>
<path class="st0" d="M592.6,273.4c-20.7,9.1,0,17.7,0,17.7c5.9,0,10.7-0.7,14.6-2.1c10.9-3.9,15.1-13,16.5-25
	c0.6-5.3,0.7-11.3,0.5-17.5c0.1-6.4,0.1-12.3-0.5-17.7c-1.4-12-5.5-21.1-16.5-25c-3.9-1.4-8.7-2.2-14.6-2.1c0,0-20.7,8.6,0,17.7
	c5.7,2.5,8.8,6.5,10.4,11.7c0.5,6.5,1,12.5,1.3,15.3c-0.3,2.8-0.8,8.8-1.3,15.3C601.4,266.8,598.3,270.8,592.6,273.4z"/>
<g id="XMLID_16_">
	<path id="XMLID_17_" class="st1" d="M533,212c-37.3-9.3-23.3,28.6-23.3,28.6c2.7,25.2,22.8,26.2,25.8,12.9c0.1-0.4,0.7-0.4,0.9,0
		c6.7,11.8,25.6,13.9,10.5-8.8c0,0-0.3-0.4-0.7-0.9c-0.5-0.6-0.1-1.6,0.9-1.4c3,0.7,6,0.6,8.7-2.4C564.6,230.2,570.3,221.4,533,212z
		"/>
</g>
<g>
	<path class="st1" d="M479.7,263.3c-8.4-3.4-11.7-9.5-12.7-17.3l-0.3-9.6l0.3-9.6c1-7.8,4.3-13.9,12.7-17.3c22.6-9.1,0-17.7,0-17.7
		c-6.4,0-11.7,0.7-16,2.1c-12,3.9-16.5,13-18,25c-0.7,5.3-0.7,11.3-0.6,17.5c-0.1,6.3-0.1,12.2,0.6,17.5c1.5,12,6,21.1,18,25
		c4.3,1.4,9.6,2.2,16,2.1C479.7,281,502.4,272.4,479.7,263.3z"/>
	<path class="st1" d="M623.7,218.8c-1.4-12-5.5-21.1-16.5-25c-3.9-1.4-8.7-2.2-14.6-2.1c0,0-20.7,8.6,0,17.7
		c5.7,2.5,8.8,6.5,10.4,11.7c0.5,6.5,1,12.5,1.3,15.3c-0.3,2.8-0.8,8.8-1.3,15.3c-1.6,5.1-4.7,9.1-10.4,11.7
		c-20.7,9.1,0,17.7,0,17.7c5.9,0,10.7-0.7,14.6-2.1c10.9-3.9,15.1-13,16.5-25c0.6-5.3,0.7-11.3,0.5-17.5
		C624.3,230.1,624.3,224.2,623.7,218.8z"/>
</g>
<g class="st2">
	<path class="st3" d="M371.3,219.6c-2.8-3.5-7.6-5.9-16.1-0.9c-2.6,1.5-4.3,3.2-5.4,4.9c-4.6-4-10.4-6.8-17.6-7.5
		c-12.4-1.2-21.5,1.8-28.1,6.4c0-0.4-0.1-0.8-0.1-1.2c-1-8.7-5.9-11.7-11.1-12.3l0.7-24.6c0,0-25.2-24-25.7,21.1
		c-0.1,7.8-0.4,15.5-0.7,22.9c-6.9-6.8-17.4-10.1-32.4-6.3c-2.2-3.9-6.9-8.5-16.1-5.2c-3.3,1.2-5.5,4.9-6.8,10
		c-4.9-5.8-11.8-9.9-20.9-10.8c-27.2-2.7-38.4,14.9-42.7,25.6c0,0-1,1.6-1.6,4.8c-0.5,1.9-0.7,3.5-0.6,4.2
		c-0.4,5.9,0.6,14.6,6.1,26.2c4.5,9.4,15.9,12.8,23.4,14c2.1,0.5,4.4,0.7,6.9,0.7c0.1,0,0.2,0,0.2,0l0,0c2.6,0,5.4-0.4,8.5-1.1
		c10.2-2.3,17.7-8.3,22.5-15.8c1.3,5,2.8,8.5,4.3,9.5c6.2,4,22.3,26.4,20.1-33.7c7.3-4.7,19.7-8.4,15.9,26.2c0,0,6.2,14.9,18.3,8.7
		c1.5-0.7,2.8-2.5,3.8-5c6,7.2,15.6,11.4,31.1,11.3c0,0,1.7-0.7,3.8-1.9c2.1,0.6,4.1,1,5.8,1.3c2.1,0.5,4.4,0.7,6.9,0.7
		c0.1,0,0.2,0,0.2,0l0,0c2.6,0,5.4-0.4,8.5-1.1c6.8-1.6,12.4-4.7,16.8-8.9c7.2,15.7,26.8,12.7,26.1-7.9c-1-30.4,9.4-32.8,21.4-28.2
		s28.8-0.4,13-20.9C409.5,224.7,389.4,210.8,371.3,219.6z M200,257.8c-3-0.5-6.2,1.4-8.6,3.4c-0.3,0.2-0.5,0.4-0.7,0.6
		c-8.1,6-29.2-5.7-18.1-14.5c0,0,2.8-3,6.4-5c0.4,1.6,1.1,3.4,2,5.3c2.9,6,9.7,6.6,16.2,5c3.7,3.2,8.4,5.1,13,2.4
		c0.2,2.1,0.4,4.2,0.7,6.3C207.6,258.9,203.2,258.3,200,257.8z M332.7,261.2c-0.3,0.2-0.5,0.4-0.7,0.6c-8.1,6-29.2-5.7-18.1-14.5
		c0,0,2.8-3,6.4-5c0.4,1.6,1.1,3.4,2,5.3c2.9,6,9.7,6.6,16.2,5c2.7,2.3,6,4,9.3,3.6c-0.2,0.9-0.4,1.8-0.5,2.7c-2.1-0.6-4.3-1-6-1.2
		C338.3,257.3,335.1,259.2,332.7,261.2z"/>
	<path class="st3" d="M468.5,55.6c-6.9-5.5-23.8-33.9-24.8,29.3c-2.8-1.2-5.9-1.9-9.3-2.3c-19.1-1.9-30.3,6.2-36.8,14.9
		c-4.8-7.9-12.7-13.8-23.8-14.9C356,80.8,345,87.9,338.3,96c-6.1-17.6-20.1-31.6-46.7-26.3c-0.2-2.8-0.4-5.7-0.6-8.7
		c0,0-4-22.7-23.1-14.7c-7.9,3.3-10.9,20-11.1,38.9c-5.6-2.4-13.6-2.5-15.6,15.1c0,0-0.9,18.5-9.4,20c-8.4,1.5-13.4-11.5-12.6-16.1
		c0,0-1.4-25.1-18.4-17.7c-7.6,3.3-9.9,19.6-6.2,35.5c-7.2,5.7-25.8,16.5-20.9-27.9c0,0-7.1-17-20.9-9.9
		c-13.8,7.1-15.9,94.1,50.6,69.7c0,0,3.8-1.4,8.3-3.3c6.5,4.6,14.7,6.6,24.7,4.2c13.7-3.2,21.2-11.1,25.2-20.2
		c1.6,6.6,3.4,11.2,5.2,12.6c7.7,5.8,27.4,37.6,26-42.5c9-5.4,22.8-7.9,18.3,32.7c0,0,7.6,18.2,22.3,10.6c0.9-0.4,1.7-1.2,2.5-2.2
		c5.1,7.8,15.3,10.8,22.3,11.9c2.1,0.5,4.4,0.7,6.9,0.7c0.1,0,0.2,0,0.2,0l0,0c2.6,0,5.4-0.4,8.5-1.1c9.4-2.2,16.5-7.4,21.3-14
		c0.1,0.2,0.1,0.3,0.2,0.5c4.5,9.4,15.9,12.8,23.4,14c2.1,0.5,4.4,0.7,6.9,0.7c0.1,0,0.2,0,0.2,0l0,0c2.6,0,5.4-0.4,8.5-1.1
		c5.6-1.3,10.3-3.6,14.3-6.7c3,5.4,8.7,10.5,18.8,6.1C485.8,148.4,476.9,62.3,468.5,55.6z M383.1,124.2c-3-0.5-6.2,1.4-8.6,3.4
		c-0.3,0.2-0.5,0.4-0.7,0.6c-8.1,6-29.2-5.7-18.1-14.5c0,0,2.8-3,6.4-5c0.4,1.6,1.1,3.4,2,5.3c2.9,6,9.7,6.6,16.2,5
		c2.7,2.3,5.9,3.9,9.2,3.7c0.1,0.9,0.2,1.9,0.3,2.9C387.5,124.9,385.1,124.5,383.1,124.2z M435.1,127.6c-0.3,0.2-0.5,0.4-0.7,0.6
		c-8.1,6-29.2-5.7-18.1-14.5c0,0,2.8-3,6.4-5c0.4,1.6,1.1,3.4,2,5.3c2.9,6,9.7,6.6,16.2,5c1.1,0.9,2.3,1.8,3.6,2.4
		c0,0.9,0.1,1.9,0.1,2.9c-0.3-0.1-0.7-0.1-1-0.2C440.6,123.8,437.5,125.6,435.1,127.6z"/>
	<path class="st3" d="M563.9,84.2c-6.4,2-11.2,5-14.7,8.6c0.1-1.4,0.1-3.1-0.1-4.9c-1-8.7-5.9-11.7-11.1-12.3l0.7-24.6
		c0,0-25.2-24-25.7,21.1c-0.6,45.1-9,86.3,39.4,86c0,0,4-1.7,7.3-4.3c10.3,5.2,25.4,7.9,42.5-4.7C633.8,125.7,602.7,71.8,563.9,84.2
		z M537.1,103.3l0-0.2c1.8,0,3.9-0.1,5.8-0.9c-3,7.4-3.2,15.6-2.2,22.7C537.7,119,537,111.7,537.1,103.3z M569.3,132.9
		c-21.2-2.9,8.6-42.4,18.2-17.2C597.2,140.9,569.3,132.9,569.3,132.9z"/>
</g>
<g id="XMLID_12883_">
	<path id="XMLID_12885_" class="st1" d="M375.8,83c0,0-6.7-4.7-9.6-1c-2.9,3.7-7.9,9.9-2,22.2s28,2.1,30.2-3.6"/>
	<path id="XMLID_12884_" class="st1" d="M400.5,93.4L400.5,93.4c-4.1-10.9-13-19.4-26.7-20.8c-27.2-2.7-38.4,14.9-42.7,25.6
		c0,0-1,1.6-1.6,4.8c-0.5,1.9-0.7,3.5-0.6,4.2c-0.4,5.9,0.6,14.6,6.1,26.2c4.5,9.4,15.9,12.8,23.4,14c2.1,0.5,4.4,0.7,6.9,0.7
		c0.1,0,0.2,0,0.2,0l0,0c2.6,0,5.4-0.4,8.5-1.1c11.9-2.7,20.2-10.4,24.8-19.7c-0.8-10.9-10.1-12.2-15.7-13c-3-0.5-6.2,1.4-8.6,3.4
		c-0.3,0.2-0.5,0.4-0.7,0.6c-8.1,6-29.2-5.7-18.1-14.5c0,0,3.8-4,8.2-5.8h0c0,0,3.7-1.9,6.7-0.8c1.2,0.4,2.2,1.3,2.9,2.9
		c0,0.1,0.1,0.2,0.1,0.3c0.3,0.7,0.8,1.5,1.3,2.4c3.7,5.9,11.8,13.7,19.3,8.3c8.7-6.3,7.7-8.7,8.1-11.1l0,0
		C402.7,97.4,400.5,93.4,400.5,93.4z"/>
</g>
<g id="XMLID_12859_">
	<path id="XMLID_12861_" class="st1" d="M291,50.9c0,0-4-22.7-23.1-14.7s-9.7,94.1-0.9,100.7S300.6,184.6,291,50.9z"/>
	<path id="XMLID_12860_" class="st1" d="M286.1,99.8c0,0,31.8-31.4,25.4,27.2c0,0,7.6,18.2,22.3,10.6c14.8-7.6,17-100.7-54.1-74.6"
		/>
</g>
<g id="XMLID_12815_">
	<path id="XMLID_12817_" class="st1" d="M409.5,214.7c0,0-41.1-28.2-58.8,21.7s25.4,57.8,24.4,27.4c-1-30.4,9.4-32.8,21.4-28.2
		S425.3,235.2,409.5,214.7z"/>
	<path id="XMLID_12816_" class="st1" d="M374.6,217.6c0,0-2.8-18.7-19.5-8.8c-16.7,9.9,0.9,26.1,0.9,26.1"/>
</g>
<g id="XMLID_12798_">
	<path id="XMLID_12801_" class="st1" d="M219.3,94.1c0,0-1.4-25.1-18.4-17.7c-17,7.4-7.4,78.5,35.7,68.2
		c43.1-10.3,25.7-66.1,25.7-66.1s-17.9-16-21.1,11.6c0,0-0.9,18.5-9.4,20C223.4,111.6,218.5,98.7,219.3,94.1z"/>
	<g id="XMLID_12799_">
		<path id="XMLID_12800_" class="st1" d="M197.6,109.4c0,0-29.7,29.4-23.7-25.5c0,0-7.1-17-20.9-9.9c-13.8,7.1-15.9,94.1,50.6,69.7
			c0,0,17.9-6.8,22.7-10.4"/>
	</g>
</g>
<path id="XMLID_12788_" class="st1" d="M445.7,131.6c0,0,3.8,22.7,22,14.7s9.2-94.1,0.8-100.7C460.1,39,436.6-2,445.7,131.6z"/>
<g id="XMLID_1_">
	<path id="XMLID_3_" class="st1" d="M436.3,83c0,0-6.7-4.7-9.6-1c-2.9,3.7-7.9,9.9-2,22.2s28,2.1,30.2-3.6"/>
	<path id="XMLID_2_" class="st1" d="M461.1,93.4L461.1,93.4c-4.1-10.9-13-19.4-26.7-20.8c-27.2-2.7-38.4,14.9-42.7,25.6
		c0,0-1,1.6-1.6,4.8c-0.5,1.9-0.7,3.5-0.6,4.2c-0.4,5.9,0.6,14.6,6.1,26.2c4.5,9.4,15.9,12.8,23.4,14c2.1,0.5,4.4,0.7,6.9,0.7
		c0.1,0,0.2,0,0.2,0l0,0c2.6,0,5.4-0.4,8.5-1.1c11.9-2.7,20.2-10.4,24.8-19.7c-0.8-10.9-10.1-12.2-15.7-13c-3-0.5-6.2,1.4-8.6,3.4
		c-0.3,0.2-0.5,0.4-0.7,0.6c-8.1,6-29.2-5.7-18.1-14.5c0,0,3.8-4,8.2-5.8h0c0,0,3.7-1.9,6.7-0.8c1.2,0.4,2.2,1.3,2.9,2.9
		c0,0.1,0.1,0.2,0.1,0.3c0.3,0.7,0.8,1.5,1.3,2.4c3.7,5.9,11.8,13.7,19.3,8.3c8.7-6.3,7.7-8.7,8.1-11.1l0,0
		C463.3,97.4,461.1,93.4,461.1,93.4z"/>
</g>
<path id="XMLID_4_" class="st1" d="M563.9,74.2c-38.7,12.3-18.4,58.9-18.4,58.9s24.8,29.2,56.5,5.9
	C633.8,115.7,602.7,61.8,563.9,74.2z M569.3,122.9c-21.2-2.9,8.6-42.4,18.2-17.2C597.2,130.9,569.3,122.9,569.3,122.9z"/>
<g id="XMLID_12825_">
	<path id="XMLID_12827_" class="st1" d="M236.5,216.8c0,0-3.1-15.1-18-9.8c-14.9,5.3-7.5,62.7-0.7,67.2
		C224.7,278.6,243.9,305.9,236.5,216.8z"/>
	<path id="XMLID_12826_" class="st1" d="M233.1,244.4c0,0,26-25.7,20.8,22.3c0,0,6.2,14.9,18.3,8.7c12.1-6.2,13.9-82.4-44.3-61"/>
</g>
<g id="XMLID_13_">
	<path id="XMLID_15_" class="st1" d="M334,216.5c0,0-6.7-4.7-9.6-1c-2.9,3.7-7.9,9.9-2,22.2c5.9,12.2,28,2.1,30.2-3.6"/>
	<path id="XMLID_14_" class="st1" d="M358.7,227L358.7,227c-4.1-10.9-13-19.4-26.7-20.8c-27.2-2.7-38.4,14.9-42.7,25.6
		c0,0-1,1.6-1.6,4.8c-0.5,1.9-0.7,3.5-0.6,4.2c-0.4,5.9,0.6,14.6,6.1,26.2c4.5,9.4,15.9,12.8,23.4,14c2.1,0.5,4.4,0.7,6.9,0.7
		c0.1,0,0.2,0,0.2,0l0,0c2.6,0,5.4-0.4,8.5-1.1c11.9-2.7,20.2-10.4,24.8-19.7c-0.8-10.9-10.1-12.2-15.7-13c-3-0.5-6.2,1.4-8.6,3.4
		c-0.3,0.2-0.5,0.4-0.7,0.6c-8.1,6-29.2-5.7-18.1-14.5c0,0,3.8-4,8.2-5.8h0c0,0,3.7-1.9,6.7-0.8c1.2,0.4,2.2,1.3,2.9,2.9
		c0,0.1,0.1,0.2,0.1,0.3c0.3,0.7,0.8,1.5,1.3,2.4c3.7,5.9,11.8,13.7,19.3,8.3c8.7-6.3,7.7-8.7,8.1-11.1l0,0
		C360.9,231,358.7,227,358.7,227z"/>
</g>
<g id="XMLID_12812_">
	<path id="XMLID_12814_" class="st1" d="M538.7,40.9c0,0-25.2-24-25.7,21.1s-9,86.3,39.4,86c0,0,26.3-11,0-22.5
		c-12.9-5.7-15.4-17.4-15.2-32.2"/>
	<path id="XMLID_12813_" class="st1" d="M532.6,92.5c0,0,18.7,5.2,16.4-14.7c-2.3-19.9-24.9-10-24.9-10"/>
</g>
<g id="XMLID_7_">
	<path id="XMLID_9_" class="st1" d="M192.7,216.5c0,0-6.7-4.7-9.6-1c-2.9,3.7-7.9,9.9-2,22.2c5.9,12.2,28,2.1,30.2-3.6"/>
	<path id="XMLID_8_" class="st1" d="M217.5,227L217.5,227c-4.1-10.9-13-19.4-26.7-20.8c-27.2-2.7-38.4,14.9-42.7,25.6
		c0,0-1,1.6-1.6,4.8c-0.5,1.9-0.7,3.5-0.6,4.2c-0.4,5.9,0.6,14.6,6.1,26.2c4.5,9.4,15.9,12.8,23.4,14c2.1,0.5,4.4,0.7,6.9,0.7
		c0.1,0,0.2,0,0.2,0l0,0c2.6,0,5.4-0.4,8.5-1.1c11.9-2.7,20.2-10.4,24.8-19.7c-0.8-10.9-10.1-12.2-15.7-13c-3-0.5-6.2,1.4-8.6,3.4
		c-0.3,0.2-0.5,0.4-0.7,0.6c-8.1,6-29.2-5.7-18.1-14.5c0,0,3.8-4,8.2-5.8h0c0,0,3.7-1.9,6.7-0.8c1.2,0.4,2.2,1.3,2.9,2.9
		c0,0.1,0.1,0.2,0.1,0.3c0.3,0.7,0.8,1.5,1.3,2.4c3.7,5.9,11.8,13.7,19.3,8.3c8.7-6.3,7.7-8.7,8.1-11.1l0,0
		C219.7,231,217.5,227,217.5,227z"/>
</g>
<g id="XMLID_10_">
	<path id="XMLID_12_" class="st1" d="M293.4,174.4c0,0-25.2-24-25.7,21.1c-0.6,45.1-9,86.3,39.4,86c0,0,26.3-11,0-22.5
		c-12.9-5.7-15.4-17.4-15.2-32.2"/>
	<path id="XMLID_11_" class="st1" d="M287.4,226c0,0,18.7,5.2,16.4-14.7s-24.9-10-24.9-10"/>
</g>
<g id="XMLID_111_">
	<path id="XMLID_113_" class="st4" d="M375.8,73c0,0-6.7-4.7-9.6-1c-2.9,3.7-7.9,9.9-2,22.2s28,2.1,30.2-3.6"/>
	<path id="XMLID_112_" class="st4" d="M400.5,83.4L400.5,83.4c-4.1-10.9-13-19.4-26.7-20.8c-27.2-2.7-38.4,14.9-42.7,25.6
		c0,0-1,1.6-1.6,4.8c-0.5,1.9-0.7,3.5-0.6,4.2c-0.4,5.9,0.6,14.6,6.1,26.2c4.5,9.4,15.9,12.8,23.4,14c2.1,0.5,4.4,0.7,6.9,0.7
		c0.1,0,0.2,0,0.2,0l0,0c2.6,0,5.4-0.4,8.5-1.1c11.9-2.7,20.2-10.4,24.8-19.7c-0.8-10.9-10.1-12.2-15.7-13c-3-0.5-6.2,1.4-8.6,3.4
		c-0.3,0.2-0.5,0.4-0.7,0.6c-8.1,6-29.2-5.7-18.1-14.5c0,0,3.8-4,8.2-5.8h0c0,0,3.7-1.9,6.7-0.8c1.2,0.4,2.2,1.3,2.9,2.9
		c0,0.1,0.1,0.2,0.1,0.3c0.3,0.7,0.8,1.5,1.3,2.4c3.7,5.9,11.8,13.7,19.3,8.3c8.7-6.3,7.7-8.7,8.1-11.1l0,0
		C402.7,87.4,400.5,83.4,400.5,83.4z"/>
</g>
<g id="XMLID_108_">
	<path id="XMLID_110_" class="st4" d="M291,40.9c0,0-4-22.7-23.1-14.7s-9.7,94.1-0.9,100.7C275.9,133.6,300.6,174.6,291,40.9z"/>
	<path id="XMLID_109_" class="st4" d="M286.1,89.8c0,0,31.8-31.4,25.4,27.2c0,0,7.6,18.2,22.3,10.6c14.8-7.6,17-100.7-54.1-74.6"/>
</g>
<g id="XMLID_105_">
	<path id="XMLID_107_" class="st4" d="M409.5,204.7c0,0-41.1-28.2-58.8,21.7s25.4,57.8,24.4,27.4c-1-30.4,9.4-32.8,21.4-28.2
		S425.3,225.2,409.5,204.7z"/>
	<path id="XMLID_106_" class="st4" d="M374.6,207.6c0,0-2.8-18.7-19.5-8.8c-16.7,9.9,0.9,26.1,0.9,26.1"/>
</g>
<g id="XMLID_101_">
	<path id="XMLID_104_" class="st4" d="M219.3,84.1c0,0-1.4-25.1-18.4-17.7c-17,7.4-7.4,78.5,35.7,68.2s25.7-66.1,25.7-66.1
		s-17.9-16-21.1,11.6c0,0-0.9,18.5-9.4,20C223.4,101.6,218.5,88.7,219.3,84.1z"/>
	<g id="XMLID_102_">
		<path id="XMLID_103_" class="st4" d="M197.6,99.4c0,0-29.7,29.4-23.7-25.5c0,0-7.1-17-20.9-9.9c-13.8,7.1-15.9,94.1,50.6,69.7
			c0,0,17.9-6.8,22.7-10.4"/>
	</g>
</g>
<path id="XMLID_100_" class="st4" d="M445.7,121.6c0,0,3.8,22.7,22,14.7s9.2-94.1,0.8-100.7C460.1,29,436.6-12,445.7,121.6z"/>
<g id="XMLID_97_">
	<path id="XMLID_99_" class="st4" d="M436.3,73c0,0-6.7-4.7-9.6-1c-2.9,3.7-7.9,9.9-2,22.2s28,2.1,30.2-3.6"/>
	<path id="XMLID_98_" class="st4" d="M461.1,83.4L461.1,83.4c-4.1-10.9-13-19.4-26.7-20.8c-27.2-2.7-38.4,14.9-42.7,25.6
		c0,0-1,1.6-1.6,4.8c-0.5,1.9-0.7,3.5-0.6,4.2c-0.4,5.9,0.6,14.6,6.1,26.2c4.5,9.4,15.9,12.8,23.4,14c2.1,0.5,4.4,0.7,6.9,0.7
		c0.1,0,0.2,0,0.2,0l0,0c2.6,0,5.4-0.4,8.5-1.1c11.9-2.7,20.2-10.4,24.8-19.7c-0.8-10.9-10.1-12.2-15.7-13c-3-0.5-6.2,1.4-8.6,3.4
		c-0.3,0.2-0.5,0.4-0.7,0.6c-8.1,6-29.2-5.7-18.1-14.5c0,0,3.8-4,8.2-5.8h0c0,0,3.7-1.9,6.7-0.8c1.2,0.4,2.2,1.3,2.9,2.9
		c0,0.1,0.1,0.2,0.1,0.3c0.3,0.7,0.8,1.5,1.3,2.4c3.7,5.9,11.8,13.7,19.3,8.3c8.7-6.3,7.7-8.7,8.1-11.1l0,0
		C463.3,87.4,461.1,83.4,461.1,83.4z"/>
</g>
<path id="XMLID_94_" class="st4" d="M563.9,64.2c-38.7,12.3-18.4,58.9-18.4,58.9s24.8,29.2,56.5,5.9
	C633.8,105.7,602.7,51.8,563.9,64.2z M569.3,112.9c-21.2-2.9,8.6-42.4,18.2-17.2C597.2,120.9,569.3,112.9,569.3,112.9z"/>
<g id="XMLID_91_">
	<path id="XMLID_93_" class="st4" d="M236.5,206.8c0,0-3.1-15.1-18-9.8c-14.9,5.3-7.5,62.7-0.7,67.2
		C224.7,268.6,243.9,295.9,236.5,206.8z"/>
	<path id="XMLID_92_" class="st4" d="M233.1,234.4c0,0,26-25.7,20.8,22.3c0,0,6.2,14.9,18.3,8.7c12.1-6.2,13.9-82.4-44.3-61"/>
</g>
<g id="XMLID_88_">
	<path id="XMLID_90_" class="st4" d="M334,206.5c0,0-6.7-4.7-9.6-1c-2.9,3.7-7.9,9.9-2,22.2c5.9,12.2,28,2.1,30.2-3.6"/>
	<path id="XMLID_89_" class="st4" d="M358.7,217L358.7,217c-4.1-10.9-13-19.4-26.7-20.8c-27.2-2.7-38.4,14.9-42.7,25.6
		c0,0-1,1.6-1.6,4.8c-0.5,1.9-0.7,3.5-0.6,4.2c-0.4,5.9,0.6,14.6,6.1,26.2c4.5,9.4,15.9,12.8,23.4,14c2.1,0.5,4.4,0.7,6.9,0.7
		c0.1,0,0.2,0,0.2,0l0,0c2.6,0,5.4-0.4,8.5-1.1c11.9-2.7,20.2-10.4,24.8-19.7c-0.8-10.9-10.1-12.2-15.7-13c-3-0.5-6.2,1.4-8.6,3.4
		c-0.3,0.2-0.5,0.4-0.7,0.6c-8.1,6-29.2-5.7-18.1-14.5c0,0,3.8-4,8.2-5.8h0c0,0,3.7-1.9,6.7-0.8c1.2,0.4,2.2,1.3,2.9,2.9
		c0,0.1,0.1,0.2,0.1,0.3c0.3,0.7,0.8,1.5,1.3,2.4c3.7,5.9,11.8,13.7,19.3,8.3c8.7-6.3,7.7-8.7,8.1-11.1l0,0
		C360.9,221,358.7,217,358.7,217z"/>
</g>
<g id="XMLID_85_">
	<path id="XMLID_87_" class="st4" d="M538.7,30.9c0,0-25.2-24-25.7,21.1s-9,86.3,39.4,86c0,0,26.3-11,0-22.5
		c-12.9-5.7-15.4-17.4-15.2-32.2"/>
	<path id="XMLID_86_" class="st4" d="M532.6,82.5c0,0,18.7,5.2,16.4-14.7c-2.3-19.9-24.9-10-24.9-10"/>
</g>
<g id="XMLID_21_">
	<path id="XMLID_84_" class="st4" d="M192.7,206.5c0,0-6.7-4.7-9.6-1c-2.9,3.7-7.9,9.9-2,22.2c5.9,12.2,28,2.1,30.2-3.6"/>
	<path id="XMLID_83_" class="st4" d="M217.5,217L217.5,217c-4.1-10.9-13-19.4-26.7-20.8c-27.2-2.7-38.4,14.9-42.7,25.6
		c0,0-1,1.6-1.6,4.8c-0.5,1.9-0.7,3.5-0.6,4.2c-0.4,5.9,0.6,14.6,6.1,26.2c4.5,9.4,15.9,12.8,23.4,14c2.1,0.5,4.4,0.7,6.9,0.7
		c0.1,0,0.2,0,0.2,0l0,0c2.6,0,5.4-0.4,8.5-1.1c11.9-2.7,20.2-10.4,24.8-19.7c-0.8-10.9-10.1-12.2-15.7-13c-3-0.5-6.2,1.4-8.6,3.4
		c-0.3,0.2-0.5,0.4-0.7,0.6c-8.1,6-29.2-5.7-18.1-14.5c0,0,3.8-4,8.2-5.8h0c0,0,3.7-1.9,6.7-0.8c1.2,0.4,2.2,1.3,2.9,2.9
		c0,0.1,0.1,0.2,0.1,0.3c0.3,0.7,0.8,1.5,1.3,2.4c3.7,5.9,11.8,13.7,19.3,8.3c8.7-6.3,7.7-8.7,8.1-11.1l0,0
		C219.7,221,217.5,217,217.5,217z"/>
</g>
<g id="XMLID_18_">
	<path id="XMLID_20_" class="st4" d="M293.4,164.4c0,0-25.2-24-25.7,21.1c-0.6,45.1-9,86.3,39.4,86c0,0,26.3-11,0-22.5
		c-12.9-5.7-15.4-17.4-15.2-32.2"/>
	<path id="XMLID_19_" class="st4" d="M287.4,216c0,0,18.7,5.2,16.4-14.7s-24.9-10-24.9-10"/>
</g>
</svg>
