<?xml version="1.0" encoding="utf-8"?>
<!-- Generator: Adobe Illustrator 22.1.0, SVG Export Plug-In . SVG Version: 6.00 Build 0)  -->
<svg version="1.1" id="Layer_1" xmlns="http://www.w3.org/2000/svg" xmlns:xlink="http://www.w3.org/1999/xlink" x="0px" y="0px"
	 viewBox="0 0 62.3 62.8" style="enable-background:new 0 0 62.3 62.8;" xml:space="preserve">
<style type="text/css">
	.st0{fill:#FFD767;stroke:#584C4F;stroke-width:2;stroke-miterlimit:10;}
	.st1{fill:#FFFAF2;stroke:#584C4F;stroke-width:2;stroke-miterlimit:10;}
</style>
<path class="st0" d="M54,13.5c-0.8-2.8-2.1-5.2-4.4-6.1c-4.6-1.9-5.9,2.8-6.4,5.9l0,0c0,0-7.3,0.5-7.2,6.5c0,3.3,3.5,4.7,6.7,5.3
	c0,3.1,2,4.7,5.9,6.4c4.1,1.8,5.8-5.1,6.1-6.6c2.1-0.6,4.2-1.6,5.2-3.3C62,18.5,62.5,14.7,54,13.5z"/>
<path id="XMLID_2386_" class="st0" d="M44.9,23c-1-0.1-36.4,0.2-39.5,1.4c-0.4,0.2-1.5,1.4-2.1,2.8c-0.8,2-2,5-2.2,8.3
	C1,35.9,1,49.2,1,49.6C0.9,53.7,2.1,58,6.6,60.9C9.9,63,46.2,61,47,60.9c2.5-0.3,3.7-3.7,4-8c0.2-2.8,0.1-12.9,0-15.5
	C50.7,30.8,48.5,23.5,44.9,23z"/>
<g>
	<path id="XMLID_2381_" class="st1" d="M44.9,13c-1-0.1-36.4,0.2-39.5,1.4c-0.4,0.2-1.5,1.4-2.1,2.8c-0.8,2-2,5-2.2,8.3
		C1,25.9,1,39.2,1,39.6C0.9,43.7,2.1,48,6.6,50.9C9.9,53,46.2,51,47,50.9c2.5-0.3,3.7-3.7,4-8c0.2-2.8,0.1-12.9,0-15.5
		C50.7,20.8,48.5,13.5,44.9,13z"/>
	<path id="XMLID_2380_" class="st0" d="M48,43.1c0,0,0.5,2.2-0.3,3.2"/>
	<path id="XMLID_2379_" class="st0" d="M6.4,17.6c0,0-1.4,1.3-1.8,2.6"/>
	<path id="XMLID_1_" class="st0" d="M39.4,19.5c-0.6-0.1-24.5,0.1-26.5,0.9c-0.3,0.1-1,0.9-1.4,1.9c-0.6,1.3-1.3,3.4-1.5,5.6
		c0,0.3-0.1,9.2,0,9.5c-0.1,2.8,0.7,5.6,3.8,7.6c2.2,1.4,26.6,0.1,27.1,0c1.6-0.2,2.5-2.5,2.7-5.4c0.1-1.9,0.1-8.7,0-10.4
		C43.3,24.7,41.8,19.8,39.4,19.5z"/>
</g>
<path class="st1" d="M54,7.5c-0.8-2.8-2.1-5.2-4.4-6.1c-4.6-1.9-5.9,2.8-6.4,5.9l0,0c0,0-7.3,0.5-7.2,6.5c0,3.3,3.5,4.7,6.7,5.3
	c0,3.1,2,4.7,5.9,6.4c4.1,1.8,5.8-5.1,6.1-6.6c2.1-0.6,4.2-1.6,5.2-3.3C62,12.5,62.5,8.7,54,7.5z"/>
</svg>
