<?xml version="1.0" encoding="utf-8"?>
<!-- Generator: Adobe Illustrator 22.1.0, SVG Export Plug-In . SVG Version: 6.00 Build 0)  -->
<svg version="1.1" id="Layer_1" xmlns="http://www.w3.org/2000/svg" xmlns:xlink="http://www.w3.org/1999/xlink" x="0px" y="0px"
	 viewBox="0 0 420.6 1260.8" style="enable-background:new 0 0 420.6 1260.8;" xml:space="preserve">
<style type="text/css">
	.st0{opacity:0.1;}
	.st1{fill:#584C4F;stroke:#584C4F;stroke-width:2;stroke-linecap:round;stroke-miterlimit:10;}
	.st2{fill:#A36B78;stroke:#584C4F;stroke-width:2;stroke-linecap:round;stroke-miterlimit:10;}
	.st3{fill:#FFD767;stroke:#584C4F;stroke-width:2;stroke-miterlimit:10;}
	.st4{fill:none;stroke:#584C4F;stroke-width:2;stroke-linecap:round;stroke-miterlimit:10;}
	.st5{fill:#FFFFFF;stroke:#584C4F;stroke-width:2;stroke-linecap:round;stroke-miterlimit:10;}
	.st6{opacity:0.1;enable-background:new    ;}
	.st7{fill:#231F20;stroke:#231F20;stroke-miterlimit:10;}
</style>
<g id="Layer_5">
</g>
<g id="Layer_3">
</g>
<g class="st0">
	<path class="st1" d="M388.6,784.7c-0.6-1.1-1.2-2-1.6-2.6c-0.2-3-0.4-6.6-0.6-10.7c3.6-5.4,6.3-12.3-0.7-15
		c-1.6-37.3-3.3-96.2-0.6-141.7c0.1-0.9,0.1-1.7,0.2-2.6c10.9-3.4,8.2-16.4,1-19c1.3-25.3,2.8-57.9,4.4-91.3
		c19.9-21.6,7.4-138.3-3.3-149.8c-4.1-4.4-19.9-11.1-40-12.4c-37.4-2.4-72.8-3.4-104.7-3.4c-0.2-1.9-0.4-3.7-0.5-5.4
		c6.5-3.3,10.3-7.6,10.7-12.2c5.3-1.9,9.8-4.1,13.7-6.7c2.5,11.1,6.6,25,11.3,22.4c3.9-2.1,9.4-13.1,11.1-25.9c1.4,2,2.9,3,4.4,2.2
		c3.9-2.1,9.4-13.3,11.1-26.2c1.2,0.6,2.5,0.7,4,0.3c16.5-4.8,56.6-66.2,18.4-101.3c-0.4-0.4-0.8-0.7-1.2-1.1
		c25-235.6-204.9-143.6-204.9-143.6c-40,51.6-48.4,101.5-38.3,143.6c-34.6,35.4,4.3,94.6,20.5,99.3c1.4,0.4,2.6,0.3,3.8-0.2
		c1.2,14,7.2,26.7,11.4,29c1.6,0.8,3-0.1,4.4-2.2c1.7,12.8,7.2,23.8,11.1,25.9c6.1,3.3,11.2-20.8,13-30.9c3.9,3.9,8.4,7.5,13.4,10.7
		c-2.5,4.5-4.6,12.7,7.3,18.2c0,1.7,0.1,3.6,0.1,5.7c-48.5,2.1-78.5,5.6-78.5,5.6c-21.8,3.2-41,7.1-45.8,11.8
		c-11.5,11-32.6,123.5-16,148.3c2.1,43.3,3.9,85.2,5.5,111.3c3.8,62.9-0.9,151.5-2.2,173.2c-4.6,4.8-5.9,25-5.9,25s-4,90.4,3.6,52
		s11.3-34.5,7.7,11.6c-3.5,46,15.9-47.1,18.7-32.4c2.8,14.7,12.2,108.9,12.3-8.8c0,0-8.8-54.7,13.7,31.1s-4.7-53.9-6.5-61
		s27.4,41.8,19.5,21.6c-8-20.2-12.4-25.3-27.2-40.8h-0.2c-1-27.6-6.6-186.5,0.2-222.3c1.8-9.6,1.9-28.1,1.2-50.7
		c0.7,2.7,1.6,5.5,2.9,8.3c2.5,5.4,5.3,9.8,8.3,13.3c0.6,38.2,0.7,72.6-0.6,81.7c-2.7,18.1-8.3,59.6,6.5,71.2
		c-12.6,32.5-4.5,60,15.1,81c3,32.6,7.7,93.3,7.2,143.8c-0.4,8.6-0.7,16.6-0.7,23.6v0.1c-0.3,6.4-0.4,11.6-0.2,15.6
		c-6.9,4.6-5.4,17.6,4,17.7c4.7,34.7,1.9,118.7-0.1,165c-8.9,1.7-17.8,3.7-26.7,6c0,0-200.1,105.3,145.7,118.6
		c220.4,8.5,202.4-68.6,95.5-108.7c-1-3.7-3.8-7-7.5-7.5c-2-44-5.5-137.4-0.4-174c9.5-2.9,8.8-13,3.9-17.4c0.2-4,0.1-9-0.2-15.3
		v-0.1c0-7.1-0.2-15-0.7-23.6c-0.7-46.6,3.3-101.9,6.3-135.8c22.9-26.1,26.5-55.6,14.4-80.7c10.6-14.3,5.2-48.5,3-67.5
		c-1.9-16.1,2.2-94.1,5.8-154.2c1,8.6,1.8,15.6,2.1,19.7c-1.5,31-1.9,57.4,0.4,69.6c7,37.2,0.7,207,0.1,224.9h-0.1
		c0,0-39.8,55.4-8.1,63.4l0,0c0.7,0.2,1.4,0.3,2,0.5c0.1,0,0.3,0.1,0.4,0.1c0.7,0.1,1.3,0.3,1.9,0.4h0.1c4,0.8,7,0.9,9.2,0.6
		c-1.7,23.1,9.5,16.2,14.9,11.7l2.3,1c7.4,13.8,16.4,0.3,18.9-4.1l0.3,3.3l0,0c0.4,0.2,0.9,0.4,1.3,0.6c0.1,0.1,0.2,0.1,0.4,0.1
		c0.3,0.1,0.6,0.2,0.9,0.3c0.1,0,0.2,0.1,0.3,0.1c0.4,0.1,0.7,0.2,1.1,0.3l0,0c0.3,0.1,0.6,0.1,0.9,0.1c0.1,0,0.2,0,0.3,0
		c0.2,0,0.5,0,0.7,0c0.1,0,0.1,0,0.2,0c0.3,0,0.5-0.1,0.8-0.2l0,0c0.2-0.1,0.5-0.2,0.7-0.3c0.1,0,0.1-0.1,0.2-0.1
		c0.2-0.1,0.3-0.2,0.5-0.3l0.1-0.1c0.2-0.2,0.4-0.3,0.5-0.5l0,0c0.2-0.2,0.3-0.4,0.4-0.6c0-0.1,0.1-0.1,0.1-0.2
		c0.1-0.2,0.2-0.4,0.3-0.6c0,0,0-0.1,0.1-0.1c0.1-0.2,0.2-0.5,0.3-0.8c0,0,0,0,0-0.1c0.1-0.2,0.2-0.5,0.2-0.7c0-0.1,0-0.1,0.1-0.2
		c0.1-0.2,0.1-0.5,0.2-0.7c0-0.1,0-0.1,0-0.2c0.1-0.3,0.1-0.6,0.1-0.9c0-0.1,0-0.1,0-0.2c0-0.2,0.1-0.5,0.1-0.8c0-0.1,0-0.2,0-0.3
		c0-0.2,0-0.5,0-0.7c0-0.1,0-0.2,0-0.3c0-0.3,0-0.6,0-0.9c0-0.1,0-0.2,0-0.3c0-0.2,0-0.4,0-0.6c0-0.1,0-0.3,0-0.4c0-0.2,0-0.3,0-0.5
		c0-0.1,0-0.3,0-0.4c0-0.2,0-0.4,0-0.5c0-0.3-0.1-0.6-0.1-0.8c0-0.1,0-0.2,0-0.3c0-0.2,0-0.4-0.1-0.6v-0.1c-0.1-0.4-0.1-0.9-0.2-1.3
		c0.5,0.9,1.4,1.8,2.9,2.5c0,0,0,0,0.1,0c0.2,0.1,0.4,0.2,0.6,0.3c0,0,0.1,0,0.1,0.1c0.2,0.1,0.4,0.1,0.6,0.2c0.1,0,0.1,0,0.2,0.1
		c0.2,0.1,0.4,0.1,0.6,0.2c0.1,0,0.2,0.1,0.3,0.1c0.2,0,0.4,0.1,0.6,0.1c0.1,0,0.2,0.1,0.4,0.1c0.2,0,0.4,0.1,0.6,0.1
		c0.1,0,0.3,0,0.4,0.1c0.2,0,0.4,0.1,0.6,0.1s0.3,0,0.5,0.1c0.2,0,0.5,0,0.7,0s0.4,0,0.6,0s0.5,0,0.8,0c0.2,0,0.4,0,0.6,0
		c0.3,0,0.7,0,1,0c0.2,0,0.3,0,0.4,0C429.7,855.5,397.8,800.2,388.6,784.7z M129,50.8c0,0,203.6-81.4,184.9,124
		c-4.3-1.4-7.7-0.9-10.5,1c0.7-5.5,1.2-10.7,1.4-15.7c7.3-5.3,13.5-14.5-0.5-17.9c-0.1-0.6-0.1-1.2-0.2-1.8c6-5.4,9.3-12.8-2.9-15.9
		c-0.3-1.2-0.7-2.4-1-3.5c5.8-5.4,8.6-12.8-4.3-15.6c-0.8-0.2-1.6-0.3-2.3-0.4c-0.3-0.5-0.5-1-0.8-1.5c5.2-5.3,7.1-12.2-5.2-14.8
		c-2.3-0.5-4.2-0.7-5.9-0.8c-0.1-0.1-0.2-0.2-0.3-0.4c4.1-5.1,4.8-11-6.4-13.4c-3.2-0.7-5.8-0.9-7.9-0.7c2.2-4.3,1-8.7-8.3-10.7
		c-4.6-1-7.9-0.9-10.3-0.3c0.9-3.6-1.1-7.1-9-8.8c-8.7-1.9-12.8-0.1-14.7,2.5c-1.1-2-3.7-3.7-8.6-4.8c-5.9-1.3-9.7-0.8-12.2,0.4
		c-2.3-1.8-6.3-2.8-13.5-1.3c-4.9,1.1-7.5,2.8-8.6,4.8c-1.9-2.6-6-4.4-14.7-2.5c-7.9,1.7-9.9,5.1-9,8.8c-2.4-0.6-5.7-0.7-10.3,0.3
		c-9.3,2-10.4,6.3-8.3,10.7c-2.1-0.2-4.7,0-7.9,0.7c-11.5,2.5-10.5,8.6-6.1,13.7c-1.8,0-4,0.2-6.6,0.8c-13.3,2.8-10,10.5-3.9,16
		c-1.3,0.1-2.8,0.3-4.4,0.7c-15.3,3.3-8.6,13-1,18.3c-1.1,0.1-2.2,0.3-3.4,0.6c-14.5,3.1-9.2,12-2.2,17.5c-0.3,0.1-0.7,0.1-1,0.2
		c-20,4.3-2.4,19.6,5.6,21.7c0.9,0.2,1.7,0.3,2.4,0.2c-0.1,4.1-0.2,8.2-0.1,12.3c-3.9-4.8-9.6-6.4-17.8-1.7
		C86.3,137.2,95,94.7,129,50.8z M70.3,486.1c1.8-9.1,4.2-21.1,6.5-33.2c0.2,6.6,0.4,13.8,0.6,21.2C74.5,478,72.1,481.9,70.3,486.1z
		 M152.4,1128.7c-2-34.1-3.7-83.3-0.3-122c3.9-44.6,9-140,14.9-199.5c30,8.8,63.4,11,92.7,5.5c5.7,59.8,10.6,150.8,14.3,194
		c3.6,41.4,1.4,95.1-0.7,129.1C237.2,1128.3,195.8,1125.1,152.4,1128.7z"/>
</g>
<g>
	<path id="XMLID_175_" class="st2" d="M135.2,1143.7c0,0,21.4-21.7,0-23.3"/>
	<path id="XMLID_174_" class="st2" d="M251.1,1146.8c0,0-21.4-21.7,0-23.3"/>
	<path class="st2" d="M67.6,660.5c0,0,1.2-37.4,123.4-42.5s176.8,88.4,102,151.4S13,776.5,67.6,660.5z"/>
	<g id="XMLID_172_">
		<path id="XMLID_173_" class="st2" d="M357.4,575.1c13.1-10.7,24,15.2,4.8,17.6"/>
	</g>
	<path class="st3" d="M37.1,359.9c0,0,3.4-16.5,156.7-23.8s217.3,31.7,120.4,62.5S-37,413.3,37.1,359.9z"/>
	<path id="XMLID_171_" class="st2" d="M376.8,373.3c-4.6,65.1-8.6,171.8-11.6,221.4c-4.4,72.1,2.5,178.1,2.5,178.1l-36.2-2.6
		c0,0,7.4-187.1,0-226.4c-5.5-29.5,4.9-142.4,7.3-201.5"/>
	<path id="XMLID_170_" class="st2" d="M3.6,415.9c3.5,62.4,6.5,139,8.9,178.8c4.4,72.1-2.5,178.1-2.5,178.1l36.2-2.6
		c0,0-7.4-187.1,0-226.4c5.3-28.2-4-132.5-7-193.3"/>
	<path id="XMLID_169_" class="st3" d="M63.6,380.2c4.2,6.8-15.9,94-15.8,101.5c0.1,7.6-4.1,8.4-33.2,6.5s-4.2-140.9,8.6-153.1
		c4.9-4.6,24-8.6,45.8-11.8c0,0,114.5-13.2,258.6-3.8c20.1,1.3,35.8,8,40,12.4c11.8,12.7,25.7,152.3-3.6,153.2
		c-29.3,0.9-33.3,0-32.7-7.6c0.7-7.6-12.5-95.3-7.8-102"/>
	<g id="XMLID_167_">
		<path id="XMLID_168_" class="st2" d="M46.3,766.1c14.9,15.5,19.3,20.6,27.2,40.8S52.3,778.2,54,785.3c1.7,7.1,29,146.8,6.5,61
			s-13.7-31.1-13.7-31.1c0,117.7-9.5,23.6-12.3,8.8s-22.3,78.4-18.7,32.4c3.5-46-0.1-50-7.7-11.6s-3.6-52-3.6-52s1.8-28.3,8.8-25.9"
			/>
	</g>
	<path class="st2" d="M230.3,736c9.7,9.1,18,185,23.7,250.8c5,57.2-1.1,137.7-2.8,157.6h-0.8c-0.2,0.7-0.3,1.3-0.5,1.8
		c-0.1,3.6-0.2,6.4-0.3,8c0,0.4,0,0.7,0,0.9c0,0.5,0,0.8,0,0.8s0.2,0,0.5,0c-5,11.3-12.5,18.7-15.4,24.1c-0.3,0.6-0.6,1.2-0.8,1.7
		c-0.2,0.6-0.3,1.1-0.4,1.6c-0.1,1,0.1,2,0.7,2.9c0.6,0.9,1.6,1.8,3,2.7c0.7,0.4,1.6,0.8,2.5,1.3c5.9,2.6,18.5,3.9,34.3,4.7
		c15.8-0.7,28.3-2.1,34.3-4.7c1-0.4,1.8-0.8,2.5-1.3c1.4-0.9,2.4-1.7,3-2.7c0.6-0.9,0.8-1.9,0.7-2.9c-0.1-0.5-0.2-1.1-0.4-1.6
		c-0.2-0.6-0.5-1.1-0.8-1.7c-2.9-5.4-10.4-12.8-15.4-24.1c0.3,0,0.5,0,0.5,0s0-0.3,0-0.8c0-0.3,0-0.6,0-0.9c-0.1-1.6-0.1-4.4-0.3-8
		c-0.1-0.2-0.2-0.4-0.2-0.7c-0.8-14.5-8.6-161.6-0.7-201.7c2.5-1.8,3.8-9.8,2.9-27.6v-0.1c0-7.1-0.2-15-0.7-23.6
		c-0.7-72.9,9.5-167.2,9.5-167.2"/>
	<path class="st2" d="M77.3,725.2c0,0,10.2,94.3,9.5,167.2c-0.4,8.6-0.7,16.6-0.7,23.6v0.1c-0.9,17.8,0.4,25.8,2.9,27.6
		c7.7,39.2,0.4,181-0.7,200.6H88c-0.2,0.7-0.3,1.3-0.5,1.8c-0.1,3.6-0.2,6.4-0.3,8c0,0.4,0,0.7,0,0.9c0,0.5,0,0.8,0,0.8s0.2,0,0.5,0
		c-5,11.3-12.5,18.7-15.4,24.1c-0.3,0.6-0.6,1.2-0.8,1.7c-0.2,0.6-0.3,1.1-0.4,1.6c-0.1,1,0.1,2,0.7,2.9s1.6,1.8,3,2.7
		c0.7,0.4,1.6,0.8,2.5,1.3c5.9,2.6,18.5,3.9,34.3,4.7c15.8-0.7,28.3-2.1,34.3-4.7c1-0.4,1.8-0.8,2.5-1.3c1.4-0.9,2.4-1.7,3-2.7
		c0.6-0.9,0.8-1.9,0.7-2.9c-0.1-0.5-0.2-1.1-0.4-1.6c-0.2-0.6-0.5-1.1-0.8-1.7c-2.9-5.4-10.4-12.8-15.4-24.1c0.3,0,0.5,0,0.5,0
		s0-0.3,0-0.8c0-0.3,0-0.6,0-0.9c-0.1-1.6-0.1-4.4-0.3-8c-0.2-0.5-0.4-1-0.5-1.8H135c-1.7-19.9-7.8-100.5-2.8-157.7
		c5.7-65.7,14.1-241.7,23.7-250.8"/>
	<g>
		<g id="XMLID_165_">
			<path id="XMLID_166_" class="st2" d="M121.6,1176.1c0,0,19.1-1.9,12.2,13.6C126.9,1205.1,105.6,1186.8,121.6,1176.1z"/>
		</g>
		<g id="XMLID_163_">
			<path id="XMLID_164_" class="st2" d="M88.4,1181c0,0,14.3-1.4,9.2,10.2S76.3,1189,88.4,1181z"/>
		</g>
		<path id="XMLID_162_" class="st2" d="M150.3,1195.6c0,0-22.7,1.5-12.2-13.2c10.5-14.8,29.1,0.3,30.6,6.6
			C170.2,1195.3,150.3,1195.6,150.3,1195.6z"/>
		<g id="XMLID_160_">
			<path id="XMLID_161_" class="st2" d="M103.8,1178.5c0,0,16.7-1.6,10.7,11.9C108.4,1203.9,89.7,1187.9,103.8,1178.5z"/>
		</g>
		<g id="XMLID_158_">
			<path id="XMLID_159_" class="st2" d="M74.7,1182.4c0,0,12.9-1.2,8.2,9.2S63.9,1189.7,74.7,1182.4z"/>
		</g>
	</g>
	<g>
		<g id="XMLID_156_">
			<path id="XMLID_157_" class="st2" d="M261.8,1176.1c0,0-19.1-1.9-12.2,13.6C256.5,1205.1,277.8,1186.8,261.8,1176.1z"/>
		</g>
		<g id="XMLID_154_">
			<path id="XMLID_155_" class="st2" d="M295,1181c0,0-14.3-1.4-9.2,10.2S307.1,1189,295,1181z"/>
		</g>
		<path id="XMLID_153_" class="st2" d="M233.1,1195.6c0,0,22.7,1.5,12.2-13.2c-10.5-14.8-29.1,0.3-30.6,6.6
			C213.2,1195.3,233.1,1195.6,233.1,1195.6z"/>
		<g id="XMLID_151_">
			<path id="XMLID_152_" class="st2" d="M279.6,1178.5c0,0-16.7-1.6-10.7,11.9C275,1203.9,293.7,1187.9,279.6,1178.5z"/>
		</g>
		<g id="XMLID_149_">
			<path id="XMLID_150_" class="st2" d="M308.7,1182.4c0,0-12.9-1.2-8.2,9.2S319.5,1189.7,308.7,1182.4z"/>
		</g>
	</g>
	<g>
		<path class="st3" d="M332.9,382c0,0-13.6,199.8-10.4,226.7s12.6,84.1-25.7,72.6s-216-11.6-216-11.6c-34.2,9.8-26.2-50.4-22.8-73.2
			s-2.4-205.8-2.4-205.8"/>
		<path class="st3" d="M81.5,669.7c-34.2,9.8-26.2-50.4-22.8-73.2s-2.4-205.8-2.4-205.8"/>
		<path class="st3" d="M272.7,676.9c-44.9-5.2-125.7-6.7-166.4-7.1"/>
		<path class="st3" d="M333.6,382c0,0-13.6,199.8-10.4,226.7s12.6,84.1-25.7,72.6c-2.3-0.7-5.1-1.3-8.3-1.9"/>
	</g>
	<path id="XMLID_148_" class="st2" d="M350.9,575.7c0,0,4.9,0.4,4.9,4.3"/>
	<path id="XMLID_147_" class="st2" d="M349.5,589.4c0,0-5.8-1.9-6.1-3.2"/>
	<path id="XMLID_146_" class="st2" d="M272.3,923.3c0,0,2.7-4.1,6.1-2.3"/>
	<path id="XMLID_145_" class="st2" d="M286.9,955.7c0,0-5.8-1.9-6.1-3.2"/>
	<path id="XMLID_144_" class="st2" d="M107,923.2c0,0,4.9,0.4,4.9,4.3"/>
	<path id="XMLID_143_" class="st2" d="M105.6,958.8c0,0-5.8-1.9-6.1-3.2"/>
	<path id="XMLID_142_" class="st3" d="M312.2,478.5c0,0-18.6,162.3-11,186.1"/>
	<path id="XMLID_141_" class="st3" d="M70.8,556.1c0,0,5.9-162.9-3.6-186.3"/>
	<g id="XMLID_139_">
		<path id="XMLID_140_" class="st2" d="M97.6,1140.5c-13.1,10.7-24-15.2-4.8-17.6"/>
	</g>
	<g id="XMLID_137_">
		<path id="XMLID_138_" class="st2" d="M289.4,1125.5c13.1-10.7,24,15.2,4.8,17.6"/>
	</g>
	<g id="XMLID_135_">
		<path id="XMLID_136_" class="st2" d="M93.4,949c-16.3,4.5-15.9-23.5,2.6-18.1"/>
	</g>
	<g id="XMLID_133_">
		<path id="XMLID_134_" class="st2" d="M288.6,932c13.1-10.7,24,15.2,4.8,17.6"/>
	</g>
	<g id="XMLID_120_">
		<path id="XMLID_132_" class="st2" d="M323.3,832.1c6.3,1.6,10.6,2,13.6,1.6c-1.7,23.1,9.5,16.2,14.9,11.7l2.3,1
			c7.4,13.6,16.3,0.3,18.9-4.1l0.3,3.3c12,6.1,11.4-6.9,10.3-13.9c1.2,2.1,4.3,4.2,12.6,4.1c15.7-0.3-30.1-75.1-30.1-75.1l-34.7,8
			C331.4,768.7,291.6,824.1,323.3,832.1z"/>
		<path id="XMLID_131_" class="st2" d="M331.4,768.7c0,0-39.8,55.4-8.1,63.4c6.3,1.6,10.6,2,13.6,1.6c-1.7,23.1,9.5,16.2,14.9,11.7
			l2.3,1c7.4,13.6,16.3,0.3,18.9-4.1l0.3,3.3c12,6.1,11.4-6.9,10.3-13.9c1.2,2.1,4.3,4.2,12.6,4.1c15.7-0.3-30.1-75.1-30.1-75.1"/>
		<g id="XMLID_124_">
			<g id="XMLID_126_">
				<path id="XMLID_130_" class="st2" d="M366.2,760.7c0,0,45.7,74.8,30.1,75.1c-15.7,0.3-13-7.5-13.4-8.2c0,0,6.5,26.2-9.5,18"/>
				<path id="XMLID_129_" class="st2" d="M373.8,841c0,0-11.3,22.4-20.1,4.6"/>
				<path id="XMLID_128_" class="st2" d="M331.4,768.7c0,0-39.8,55.4-8.1,63.4s15.9-14.1,6.8-13.3"/>
				<path id="XMLID_127_" class="st2" d="M354.5,842.9c0,0-21,22.2-17.4-11.7l1.1-17"/>
			</g>
			<path id="XMLID_125_" class="st2" d="M360.6,758.6c0,0,21.4-21.7,0-23.3"/>
		</g>
		<path id="XMLID_123_" class="st2" d="M352.7,812.9c0,0-0.9,10.4,0.9,16.1"/>
		<path id="XMLID_122_" class="st2" d="M369.7,825.4c0,0,0.3,7.5,1.8,7.6"/>
		<path id="XMLID_121_" class="st2" d="M371.5,795.4c1.5,4.8,7.7,14.9,7.7,14.9"/>
	</g>
	<path id="XMLID_119_" class="st3" d="M148.4,339.3c0,0,28.9,54,69,8.6"/>
	<g>
		<path id="XMLID_118_" class="st2" d="M294.2,341.3c0,0,3.8,3,1.7,6.2"/>
		<path id="XMLID_117_" class="st2" d="M267.6,339.9c0,0-5.3,2.5-6.9,5.1"/>
		<path id="XMLID_116_" class="st2" d="M295,364.9c0,0,1.6-5.7,0.7-8.5"/>
		<path id="XMLID_115_" class="st2" d="M266.1,383.1c0,0,5.5,2.2,8.4,1.7"/>
		<path id="XMLID_114_" class="st2" d="M291.6,378.7c0,0-2,4.4-5.6,3"/>
		<path id="XMLID_113_" class="st2" d="M261.7,355.5c0,0-1,3.9-2.1,5.3"/>
		<line id="XMLID_112_" class="st4" x1="282.7" y1="338.7" x2="276.9" y2="338.5"/>
		<path id="XMLID_111_" class="st2" d="M259.8,370.7c0,0-1.3,5.8-0.2,8.6"/>
		<path id="XMLID_110_" class="st2" d="M177.8,726.1c0,0-3.5-6.2-0.9-9.8"/>
		<path id="XMLID_109_" class="st2" d="M186.1,699.7c0,0-4.2,4.2-4.8,7.1"/>
		<path id="XMLID_108_" class="st2" d="M183.6,736.2c0,0,1.7,5.7,4,7.6"/>
	</g>
	<path id="XMLID_101_" class="st3" d="M127.8,509.3c0,0-53,45.4-77.5-7.8s70.4-90.7,74-112.3"/>
	<path id="XMLID_100_" class="st3" d="M284,509.3c0,0-53,45.4-77.5-7.8s70.4-90.7,74-112.3"/>
	<path id="XMLID_99_" class="st2" d="M111.8,255.1c0,0,8.4-44.5-13.5-26.6s-7.9,57.6-0.2,61.8C105.8,294.4,111.8,255.1,111.8,255.1z
		"/>
	<path id="XMLID_98_" class="st2" d="M127.3,278.8c0,0,8.4-44.5-13.5-26.6s-7.9,57.6-0.2,61.8C121.3,318.1,127.3,278.8,127.3,278.8z
		"/>
	<path id="XMLID_97_" class="st2" d="M259.7,255.3c0,0-8.4-44.5,13.5-26.6c22,18,7.9,57.6,0.2,61.8S259.7,255.3,259.7,255.3z"/>
	<path id="XMLID_96_" class="st2" d="M244.2,279.1c0,0-8.4-44.5,13.5-26.6c21.9,17.9,7.9,57.6,0.2,61.8
		C250.2,318.4,244.2,279.1,244.2,279.1z"/>
	<path id="XMLID_95_" class="st2" d="M224.3,340.5c0.4-7.3-2-28-2.5-34.8c-0.4-6.2-1.3-11.4-2.6-15.9c23.9-40.8-42.1-87.6-65.7-35.2
		c-7.4,16.4-6.4,48.1-6.3,53.5c0.2,7,0.3,30.6,0.3,36.7c0.1,34.2,50.8,61.3,70.8,16.8"/>
	<g>
		<path class="st5" d="M100.8,18.7C-57.7,223.4,279,401.7,305.5,164S100.8,18.7,100.8,18.7z M293.2,161.5
			C269.4,375.4-33.6,215,109,30.8C109,30.8,317-52.5,293.2,161.5z"/>
	</g>
	<g id="XMLID_80_">
		<g id="XMLID_81_">
			<path id="XMLID_94_" class="st2" d="M186.6,33.7c0,0,110.1,7.1,94.7,122.6C265.9,271.7,270.1,293,208,304.7
				s-96.1-28.6-102.9-59.4S48.6,48.9,186.6,33.7z"/>
			<path id="XMLID_93_" class="st2" d="M142.3,290.4c0,0-19.6,21.7,25.6,26.4s73.2-9.6,62.9-25.6"/>
			<path id="XMLID_92_" class="st2" d="M272.1,185.6c0,0,40.8-45.3,38.5-7.4s-16.1,77.8-29.2,71.5c-13-6.3-12.3-17.5-12.3-17.5"/>
			<path id="XMLID_91_" class="st2" d="M283.9,189.1c0,0,16.2-20.9,18.8-10.2"/>
			<path id="XMLID_90_" class="st2" d="M277.1,204.1c0,0,21.5-3.7,17.4,8.2s-12.2,19.3-14.8,5.6"/>
			<g id="XMLID_86_">
				<path id="XMLID_89_" class="st2" d="M102.4,190.5c0,0-36.7-48.6-37.7-10.7c-0.9,38,9.4,78.9,23,73.8
					c13.5-5.1,13.7-16.4,13.7-16.4"/>
				<path id="XMLID_88_" class="st2" d="M90.4,193.1c0,0-14.4-22.2-17.9-11.8"/>
				<path id="XMLID_87_" class="st2" d="M95.9,208.6c0,0-21.1-5.5-18,6.7s10.6,20.3,14.3,6.8"/>
			</g>
			<path id="XMLID_85_" class="st2" d="M162.6,257.1c0,0,20.6-25,47.8,0"/>
			<path id="XMLID_84_" class="st2" d="M148.7,268.2c0,0,38.4,30,75.6,0"/>
			<path id="XMLID_83_" class="st2" d="M174.3,245.1c0,0,9.3,17.2,20.3,0"/>
			<path id="XMLID_82_" class="st2" d="M162.6,269.5c0,0,14.9-9.9,22.7-1.3c0,0,3.7-12.6,22.2-0.8"/>
			<g class="st6">
				<path class="st7" d="M240.4,50.5c10.3,17.6,16,41.6,11.7,74.1c-15.4,115.5-11.2,136.7-73.3,148.5c-26.4,5-47.7,0.6-64-8.5
					c14.3,25.6,45.9,49.2,95.3,39.8c62.1-11.7,57.9-33,73.3-148.5C291.2,97.2,266.5,66.5,240.4,50.5z"/>
			</g>
		</g>
	</g>
	<g>
		<path id="XMLID_79_" class="st2" d="M203.9,198.5c0,0-20.2-25.2-19.5-39.1"/>
		<g id="XMLID_77_">
			<path id="XMLID_78_" class="st2" d="M167,208.9c5.4,7.8,11.1,12.1,17,10.3c3.3-1,5.8-2.5,7.6-4.1c1.5-1.3,2.6-2.7,3.3-3.8"/>
		</g>
		<g id="XMLID_71_">
			<path id="XMLID_76_" class="st2" d="M161.4,204.6c0,0-14.9,17.4,9.1,22.2"/>
			<path id="XMLID_75_" class="st2" d="M202.5,204.6c0,0,15.9,13.2-6.5,22.2"/>
			<path id="XMLID_74_" class="st2" d="M190.7,215.5c2.2,0.7,5.6-4,8.1,0s-0.3,2.9-3.6,3.7C191.8,220.1,188.5,214.9,190.7,215.5z"/>
			<path id="XMLID_73_" class="st2" d="M168.1,221.4c-4.5-0.3-5.6-3.9-3.2-5.7c0.9-0.7,3.4,0.5,5.8,1.9
				C172.6,218.8,168.1,221.4,168.1,221.4z"/>
			<path id="XMLID_72_" class="st2" d="M184.2,195.6c0,0,4.7-0.1,5.8,1.5"/>
		</g>
	</g>
	<path id="XMLID_70_" class="st2" d="M210.2,187.4c0,0,20,14.9,45.9,5.8"/>
	<path id="XMLID_69_" class="st2" d="M161.2,188.1c0,0-32.3,7-39.1,4"/>
	<path id="XMLID_68_" class="st5" d="M111.1,108.5c0,0,66.3-26.5,58.8,41.7S65.6,167.2,111.1,108.5z"/>
	<path id="XMLID_67_" class="st5" d="M206.8,117.6c0,0-39.4,60.1,28.7,67.6S256.1,80.3,206.8,117.6z"/>
	<path id="XMLID_66_" class="st1" d="M108.9,157.8c0,0,10.8-4.3,9.5,6.8C117.2,175.7,101.5,167.3,108.9,157.8z"/>
	<path id="XMLID_65_" class="st1" d="M259.7,161.1c0,0,10.8-4.3,9.5,6.8S252.3,170.6,259.7,161.1z"/>
	<path id="XMLID_64_" class="st1" d="M131.6,89.6c0,0-38.8-1.7-20.8,14.7s49.8-0.4,52.3-7.4S131.6,89.6,131.6,89.6z"/>
	<path id="XMLID_63_" class="st1" d="M229.8,98.5c0,0-45.1-5.6-0.6,16.1S281.2,105.3,229.8,98.5z"/>
	<path id="XMLID_62_" class="st3" d="M99.5,200.3c0,0,3.2-75.2-35-40.1s1.9,96.5,18.4,101.3C99.5,266.3,99.5,200.3,99.5,200.3z"/>
	<path id="XMLID_61_" class="st3" d="M271.9,203.4c0,0-3.2-75.2,35-40.1s-1.9,96.5-18.4,101.3C272,269.4,271.9,203.4,271.9,203.4z"
		/>
	<path id="XMLID_60_" class="st1" d="M186.2,41.2c0,0,4.1-14.9-15.8-10.6S168,50.2,176,52.3S186.2,41.2,186.2,41.2z"/>
	<path id="XMLID_59_" class="st1" d="M162.9,43.5c0,0,4.1-14.9-15.8-10.6s-2.4,19.6,5.6,21.7S162.9,43.5,162.9,43.5z"/>
	<path id="XMLID_58_" class="st1" d="M180.2,42.1c0,0-4.1-14.9,15.8-10.6s2.4,19.6-5.6,21.7C182.5,55.4,180.2,42.1,180.2,42.1z"/>
	<path id="XMLID_57_" class="st1" d="M203.6,44.4c0,0-4.1-14.9,15.8-10.6s2.4,19.6-5.6,21.7C205.8,57.7,203.6,44.4,203.6,44.4z"/>
	<path id="XMLID_56_" class="st1" d="M143.6,52.6c0,0,4.1-14.9-15.8-10.6s-2.4,19.6,5.6,21.7C141.3,65.9,143.6,52.6,143.6,52.6z"/>
	<path id="XMLID_55_" class="st1" d="M127.5,64c0,0,4.1-14.9-15.8-10.6s-2.4,19.6,5.6,21.7S127.5,64,127.5,64z"/>
	<path id="XMLID_54_" class="st1" d="M114.8,78.5c0,0,4.1-14.9-15.8-10.6s-2.4,19.6,5.6,21.7C112.5,91.7,114.8,78.5,114.8,78.5z"/>
	<path id="XMLID_53_" class="st1" d="M106.5,95.2c0,0,4.1-14.9-15.8-10.6c-20,4.3-2.4,19.6,5.6,21.7S106.5,95.2,106.5,95.2z"/>
	<path id="XMLID_52_" class="st1" d="M102.1,114.1c0,0,4.1-14.9-15.8-10.6c-20,4.3-2.4,19.6,5.6,21.7S102.1,114.1,102.1,114.1z"/>
	<path id="XMLID_51_" class="st1" d="M98.9,131.7c0,0,4.1-14.9-15.8-10.6c-20,4.3-2.4,19.6,5.6,21.7S98.9,131.7,98.9,131.7z"/>
	<path id="XMLID_50_" class="st1" d="M222.8,53.5c0,0-4.1-14.9,15.8-10.6s2.4,19.6-5.6,21.7C225.1,66.8,222.8,53.5,222.8,53.5z"/>
	<path id="XMLID_49_" class="st1" d="M239,64.8c0,0-4.1-14.9,15.8-10.6c20,4.3,2.4,19.6-5.6,21.7C241.3,78.1,239,64.8,239,64.8z"/>
	<path id="XMLID_48_" class="st1" d="M251.7,79.3c0,0-4.1-14.9,15.8-10.6c20,4.3,2.4,19.6-5.6,21.7C254,92.6,251.7,79.3,251.7,79.3z
		"/>
	<path id="XMLID_47_" class="st1" d="M259.9,96c0,0-4.1-14.9,15.8-10.6c20,4.3,2.4,19.6-5.6,21.7S259.9,96,259.9,96z"/>
	<path id="XMLID_46_" class="st1" d="M264.4,114.9c0,0-4.1-14.9,15.8-10.6s2.4,19.6-5.6,21.7C266.7,128.2,264.4,114.9,264.4,114.9z"
		/>
	<path id="XMLID_45_" class="st1" d="M267.6,132.6c0,0-4.1-14.9,15.8-10.6c20,4.3,2.4,19.6-5.6,21.7S267.6,132.6,267.6,132.6z"/>
</g>
<g>
	<g id="XMLID_15_">
		<path id="XMLID_37_" class="st4" d="M116.1,214.4c0,0-4.5-0.5-4.4-4.1"/>
		<path id="XMLID_24_" class="st4" d="M263.5,221c0,0-0.9,3.7-1.9,5"/>
		<path id="XMLID_23_" class="st4" d="M244.6,94c0,0,1.6-7,0-7"/>
		<path id="XMLID_22_" class="st4" d="M143.6,70.6c0,0,6.5,0.9,5.8,2"/>
		<path id="XMLID_21_" class="st4" d="M183.6,82.8c0,0,7.6-1.1,8.1-2.6"/>
		<path id="XMLID_20_" class="st4" d="M164.8,305.7c0,0,5.5,1.2,5.9,2.4"/>
		<path id="XMLID_19_" class="st4" d="M210.8,308.1c0,0-5,2.4-6.5,4.8"/>
		<path id="XMLID_18_" class="st4" d="M159.5,186.2"/>
		<path id="XMLID_17_" class="st4" d="M195.7,190.5"/>
		<line id="XMLID_16_" class="st4" x1="249.3" y1="249.1" x2="254.6" y2="247.6"/>
	</g>
</g>
<g>
	<path id="XMLID_14_" class="st4" d="M76.1,239.3c0,0-4.5-0.5-4.4-4.1"/>
	<path id="XMLID_13_" class="st4" d="M305.6,177.6c0,0,4.5-0.2,4.9,3.4"/>
</g>
</svg>
