<?xml version="1.0" encoding="utf-8"?>
<!-- Generator: Adobe Illustrator 22.1.0, SVG Export Plug-In . SVG Version: 6.00 Build 0)  -->
<svg version="1.1" id="Layer_1" xmlns="http://www.w3.org/2000/svg" xmlns:xlink="http://www.w3.org/1999/xlink" x="0px" y="0px"
	 viewBox="0 0 103.2 69" style="enable-background:new 0 0 103.2 69;" xml:space="preserve">
<style type="text/css">
	.st0{fill:#A36B78;stroke:#584C4F;stroke-linecap:round;stroke-miterlimit:10;}
	.st1{fill:#584C4F;stroke:#584C4F;stroke-linecap:round;stroke-miterlimit:10;}
	.st2{fill:#FCF4E9;stroke:#5C5B4B;stroke-linecap:round;stroke-miterlimit:10;}
	.st3{fill:#FFD767;stroke:#584C4F;stroke-miterlimit:10;}
</style>
<g id="XMLID_31833_">
	<path id="XMLID_31842_" class="st0" d="M91.5,0.5c0.8-0.2,1.2,2.4,1.2,2.4s0,60.4-0.4,62.9c0,0-0.4,2.5-1.2,2.4
		c0,0-30.4,1-33.1-0.1c-0.8-0.3-1.2-2.4-1.2-2.4S56.2,10,56.4,2.9c0,0,0.4-2.5,1.2-2.4C57.6,0.6,90.5,0.7,91.5,0.5z"/>
	<g id="XMLID_31839_">
		<path id="XMLID_31841_" class="st1" d="M67.6,55.5c-0.4,0-0.8,0.1-1,0.2c-0.2-16.3-0.4-47.7-0.3-52.8c0,0,0.4-2.5,1.2-2.4
			c0,0,32.9,0.2,33.8-0.1c0.8-0.2,1.2,2.4,1.2,2.4s0,35.2-0.2,53c-0.2-0.1-0.5-0.3-1.1-0.3C100.5,55.6,67.6,55.5,67.6,55.5z"/>
		<path id="XMLID_31840_" class="st2" d="M66.8,65.7c0,0,0-4-0.1-9.9c0.2-0.1,0.5-0.2,1-0.2c0,0,32.9,0,33.8,0
			c0.5,0,0.9,0.2,1.1,0.3c-0.1,5.5-0.1,9.3-0.2,9.9c0,0-0.4,2.5-1.2,2.4c0,0-13.1,0.4-22.8,0.4c-5.1,0-9.3-0.1-10.2-0.5
			C67.2,67.7,66.8,65.7,66.8,65.7z"/>
	</g>
	<g id="XMLID_31834_">
		<g id="XMLID_31835_">
			<path id="XMLID_31838_" class="st3" d="M83.1,57.3c0,0-7.4,5.2-0.2,8.6C90.1,69.3,92.2,56.2,83.1,57.3z"/>
			<g id="XMLID_31836_">
				<path id="XMLID_31837_" class="st1" d="M83.7,59.2c0,0-4.4,3.1-0.1,5.1C87.8,66.2,89,58.5,83.7,59.2z"/>
			</g>
		</g>
	</g>
</g>
<g id="XMLID_1_">
	<path id="XMLID_10_" class="st0" d="M11.7,0.5c-0.8-0.2-1.2,2.4-1.2,2.4s0,60.4,0.4,62.9c0,0,0.4,2.5,1.2,2.4c0,0,30.4,1,33.1-0.1
		c0.8-0.3,1.2-2.4,1.2-2.4S47,10,46.8,2.9c0,0-0.4-2.5-1.2-2.4C45.6,0.6,12.7,0.7,11.7,0.5z"/>
	<g id="XMLID_7_">
		<path id="XMLID_9_" class="st1" d="M35.6,55.5c0.4,0,0.8,0.1,1,0.2c0.2-16.3,0.4-47.7,0.3-52.8c0,0-0.4-2.5-1.2-2.4
			c0,0-32.9,0.2-33.8-0.1C0.9,0.3,0.5,2.9,0.5,2.9s0,35.2,0.2,53c0.2-0.1,0.5-0.3,1.1-0.3C2.7,55.6,35.6,55.5,35.6,55.5z"/>
		<path id="XMLID_8_" class="st2" d="M36.4,65.7c0,0,0-4,0.1-9.9c-0.2-0.1-0.5-0.2-1-0.2c0,0-32.9,0-33.8,0c-0.5,0-0.9,0.2-1.1,0.3
			c0.1,5.5,0.1,9.3,0.2,9.9c0,0,0.4,2.5,1.2,2.4c0,0,13.1,0.4,22.8,0.4c5.1,0,9.3-0.1,10.2-0.5C36,67.7,36.4,65.7,36.4,65.7z"/>
	</g>
	<g id="XMLID_2_">
		<g id="XMLID_3_">
			<path id="XMLID_6_" class="st3" d="M20,57.3c0,0,7.4,5.2,0.2,8.6C13.1,69.3,11,56.2,20,57.3z"/>
			<g id="XMLID_4_">
				<path id="XMLID_5_" class="st1" d="M19.5,59.2c0,0,4.4,3.1,0.1,5.1C15.4,66.2,14.2,58.5,19.5,59.2z"/>
			</g>
		</g>
	</g>
</g>
</svg>
