<?xml version="1.0" encoding="utf-8"?>
<!-- Generator: Adobe Illustrator 22.1.0, SVG Export Plug-In . SVG Version: 6.00 Build 0)  -->
<svg version="1.1" id="Layer_1" xmlns="http://www.w3.org/2000/svg" xmlns:xlink="http://www.w3.org/1999/xlink" x="0px" y="0px"
	 viewBox="0 0 84.9 131.5" style="enable-background:new 0 0 84.9 131.5;" xml:space="preserve">
<style type="text/css">
	.st0{opacity:0.1;}
	.st1{fill:#231F20;stroke:#231F20;stroke-miterlimit:10;}
	.st2{fill:#FFD767;stroke:#584C4F;stroke-width:2;stroke-miterlimit:10;}
	.st3{fill:#FFFFFF;stroke:#584C4F;stroke-width:2;stroke-linecap:round;stroke-miterlimit:10;}
</style>
<g id="Layer_5">
</g>
<g id="Layer_3">
</g>
<g class="st0">
	<path class="st1" d="M21.7,62c0,0-9.4,25.4,4.3,25.9s58.4,4.9,58.4-9.7s-2.2-21.1-21.6-20S21.7,62,21.7,62z"/>
	<path class="st1" d="M21.7,104.1c0,0-9.4,25.4,4.3,25.9s58.4,4.9,58.4-9.7s-2.2-21.1-21.6-20S21.7,104.1,21.7,104.1z"/>
	<path class="st1" d="M20.1,19.9c0,0-9.4,25.4,4.3,25.9s58.4,4.9,58.4-9.7s-2.2-21.1-21.6-20C41.7,17.2,20.1,19.9,20.1,19.9z"/>
</g>
<g>
	<path class="st2" d="M10.7,52c0,0-9.4,25.4,4.3,25.9s58.4,4.9,58.4-9.7s-2.2-21.1-21.6-20S10.7,52,10.7,52z"/>
	<path class="st2" d="M10.7,94.1c0,0-9.4,25.4,4.3,25.9s58.4,4.9,58.4-9.7s-2.2-21.1-21.6-20S10.7,94.1,10.7,94.1z"/>
	<path class="st2" d="M9.1,9.9c0,0-9.4,25.4,4.3,25.9s58.4,4.9,58.4-9.7S69.6,5,50.2,6.1S9.1,9.9,9.1,9.9z"/>
	<g>
		<path class="st3" d="M5.7,47c0,0-9.4,25.4,4.3,25.9s58.4,4.9,58.4-9.7s-2.2-21.1-21.6-20C27.4,44.3,5.7,47,5.7,47z"/>
		<path class="st3" d="M5.7,89.1c0,0-9.4,25.4,4.3,25.9s58.4,4.9,58.4-9.7s-2.2-21.1-21.6-20S5.7,89.1,5.7,89.1z"/>
		<path class="st3" d="M4.1,4.9c0,0-9.4,25.4,4.3,25.9s58.4,4.9,58.4-9.7S64.6,0,45.2,1.1S4.1,4.9,4.1,4.9z"/>
	</g>
</g>
</svg>
