<?xml version="1.0" encoding="utf-8"?>
<!-- Generator: Adobe Illustrator 22.1.0, SVG Export Plug-In . SVG Version: 6.00 Build 0)  -->
<svg version="1.1" id="Layer_1" xmlns="http://www.w3.org/2000/svg" xmlns:xlink="http://www.w3.org/1999/xlink" x="0px" y="0px"
	 viewBox="0 0 75.7 90.8" style="enable-background:new 0 0 75.7 90.8;" xml:space="preserve">
<style type="text/css">
	.st0{fill:#584C4F;stroke:#584C4F;stroke-linecap:round;stroke-miterlimit:10;}
	.st1{fill:#A36B78;stroke:#584C4F;stroke-linecap:round;stroke-miterlimit:10;}
	.st2{fill:#FFFFFF;stroke:#584C4F;stroke-linecap:round;stroke-miterlimit:10;}
	.st3{fill:#FFD767;stroke:#584C4F;stroke-miterlimit:10;}
	.st4{fill:#FCF4E9;stroke:#5C5B4B;stroke-linecap:round;stroke-miterlimit:10;}
</style>
<g id="XMLID_31843_">
	<path id="XMLID_31866_" class="st0" d="M70.8,8.7C71,8.5,70.9,11,70.9,11s-3.7,60.3-3.9,62.7c0,0-0.2,2.5-0.4,2.3
		c0,0-6.2,0.6-6.7-0.5c-0.1-0.3-0.1-2.4-0.1-2.4s3.3-55.6,3.8-62.6c0,0,0.2-2.5,0.4-2.3C64,8.3,70.6,8.9,70.8,8.7z"/>
	<g id="XMLID_31859_">
		<path id="XMLID_31865_" class="st0" d="M66.4,15.8c0.2-0.1-0.8,2.2-0.8,2.2S39.1,72.3,37.9,74.5c0,0-1.2,2.2-1.3,2
			c0,0-5.9-1.8-6-3c0-0.4,0.8-2.2,0.8-2.2s24.3-50.1,27.5-56.4c0,0,1.2-2.2,1.3-2C60.2,12.8,66.1,15.9,66.4,15.8z"/>
		<g id="XMLID_31860_">
			<g id="XMLID_31861_">
				<path id="XMLID_31864_" class="st1" d="M56.3,18.5c0,0,16.8,12.2,18.8-6C77-5.6,47.1-0.3,56.3,18.5z"/>
				<g id="XMLID_31862_">
					<path id="XMLID_31863_" class="st2" d="M59.9,15.9c0,0,10,7.2,11.1-3.5C72.1,1.7,54.5,4.8,59.9,15.9z"/>
				</g>
			</g>
		</g>
	</g>
	<g id="XMLID_31849_">
		<path id="XMLID_31858_" class="st3" d="M27.2,73.6C27,73.7,26.8,73,26.8,73s-3.9-16.6-4-17.3c0,0-0.1-0.7,0.1-0.7
			c0,0,5.9-1.7,6.5-1.5c0.2,0,0.4,0.6,0.4,0.6s3.7,15.3,4.1,17.2c0,0,0.1,0.7-0.1,0.7C33.8,72,27.4,73.5,27.2,73.6z"/>
		<g id="XMLID_31853_">
			<g id="XMLID_31854_">
				<path id="XMLID_31857_" class="st1" d="M34.6,64.8c0,0-20.7,1.3-10.7,16.5S53.6,73.5,34.6,64.8z"/>
				<g id="XMLID_31855_">
					<path id="XMLID_31856_" class="st2" d="M33.5,69.1c0,0-12.3,0.7-6.3,9.8S44.7,74.2,33.5,69.1z"/>
				</g>
			</g>
		</g>
		<g id="XMLID_31850_">
			<path id="XMLID_31852_" class="st4" d="M18.2,22c0,0,10.6-1.5,12.9,14.7c2.2,16.2,3.3,19-2.2,22c-5.5,3-10-1.8-11.6-5.9
				S5.6,27.1,18.2,22z"/>
			<path id="XMLID_31851_" class="st0" d="M13.8,0.8c0,0,19.1-3.4,20.2,13s2.4,19.2-7.9,23.3S8.7,37,6.5,33.1S-9.4,8.4,13.8,0.8z"/>
		</g>
	</g>
	<g id="XMLID_31844_">
		<g id="XMLID_31845_">
			<path id="XMLID_31848_" class="st1" d="M52.8,74.4c0,0-4.8,20.2,12.7,15.1C82.9,84.3,66.6,58.8,52.8,74.4z"/>
			<g id="XMLID_31846_">
				<path id="XMLID_31847_" class="st2" d="M56.5,76.8c0,0-2.8,11.9,7.5,8.9C74.3,82.6,64.7,67.6,56.5,76.8z"/>
			</g>
		</g>
	</g>
</g>
</svg>
