<?xml version="1.0" encoding="utf-8"?>
<!-- Generator: Adobe Illustrator 22.1.0, SVG Export Plug-In . SVG Version: 6.00 Build 0)  -->
<svg version="1.1" id="Layer_1" xmlns="http://www.w3.org/2000/svg" xmlns:xlink="http://www.w3.org/1999/xlink" x="0px" y="0px"
	 viewBox="0 0 1282 722" style="enable-background:new 0 0 1282 722;" xml:space="preserve">
<style type="text/css">
	.st0{fill:#FDF7E0;stroke:#584C4F;stroke-width:2;stroke-miterlimit:10;}
	.st1{fill:#A36B78;stroke:#584C4F;stroke-width:4;stroke-linecap:round;stroke-miterlimit:10;}
	.st2{fill:#B66C7E;stroke:#584C4F;stroke-width:4;stroke-miterlimit:10;}
	.st3{fill:#FFFAF2;stroke:#584C4F;stroke-width:2;stroke-miterlimit:10;}
	.st4{fill:#FFD767;stroke:#584C4F;stroke-width:2;stroke-miterlimit:10;}
</style>
<rect id="XMLID_6450_" x="1" y="1" transform="matrix(-1 2.524901e-11 -2.524901e-11 -1 1282 722)" class="st0" width="1280" height="720"/>
<g>
	<g>
		<path id="XMLID_24_" class="st1" d="M-827.6,117.7c132.7,8.3,295.7,16.3,380.4,21.9c153.4,10.2,379.1,1.5,379.1,1.5l-6.5,64.4
			c0,0-398.1-19.4-481.9-7.5c-60.1,8.5-281.8-11.5-411.2-18.8"/>
		<path class="st1" d="M-78.2,144.3c8.5-7.6,23-14,47.4-13.6c11.4,0.2,28.8-1.3,31-0.7c3.8,1.1,24.7,0.4,32.5,2.6
			c1-2.4,2.7-4,4.6-3.5c4.6,1.4,34.6,0,35.4,4.4c0.9,4.4,1.7,8.8-0.4,9.2c0,0-28.9,3.5-36.4,0.5c-0.2,0.2-0.4,0.4-0.7,0.4
			c0,0-16.7,2-28.1,1.6c2.3,4,3.4,8.6,3.8,13.8c5.4,0.3,32.4-7.4,40.8-5.8c0.7-1.6,1.9-2.6,3.4-2.5c5.9,0.4,40.7-9.9,43.3-4.5
			c2.6,5.4,5.2,10.7,2.9,11.8c0,0-33.5,13-43,11c-1.4-0.3-2.6-1-3.6-1.8c-7.6,2.9-32.7,11.8-40.7,10.1c-1.4-0.3-3.1,7.5-2.2,7.8
			c5.4,1.8,36.6,1.1,45.1,5.2c1.2-1.5,2.7-2.2,4.3-1.7c6.1,2.1,46,0.8,47.2,7.2c1.3,6.4,2.5,12.7-0.2,13.3c0,0-39.2,4.4-48.7-0.3
			c-1.4-0.7-2.5-1.7-3.3-2.9c-9,0.9-38,3.4-46.1-0.6c-1.1-0.5-2.8,1.4-2.8,3c0,2.2,0.2,6.1,0.6,6.3c4.8,2.6,35,7.9,42.4,13
			c1.5-1,3-1.4,4.4-0.7c5.5,3,44.1,9.4,44,15.2c-0.1,5.8-0.2,11.6-2.9,11.6c0,0-38.6-3.5-46.9-9.4c-1.2-0.9-2.1-2-2.6-3.1
			c-8.8-0.9-37.3-4.2-44.2-9.2c-1.9-1.4-16.9,0.1-24.8,0c9.4,7.3,22.4,17.2,20.9,20.8c-2.3,5.3-4.5,10.6-6.8,9.7
			c0,0-29.4-15.6-34.2-23.9c-0.3,0.1-0.6,0.1-0.9,0c0,0-30-16-34.4-24.2c-0.3-0.6-0.5-1.1-0.7-1.6c-7-5.7-11-11.7-13.1-17.4"/>
		<path class="st1" d="M-81.1,147.1c0.9-1,1.9-1.9,2.9-2.9"/>
		<path id="XMLID_23_" class="st1" d="M-109.5,154.2c0,0,35.8-51.4,37.6,0.6"/>
		<path class="st2" d="M101.8,207.4c0,0,6.6,1.9,6.4-2.4c-0.1-4.3,1.9-8.7-4.6-8.5c-6.5,0.2-6.3,4.5-6.3,4.5S95.3,205.5,101.8,207.4
			z"/>
		<path class="st2" d="M89.7,251.4c0,0,6.4,2.3,6.5-2.1s2.3-8.6-4.2-8.7c-6.5-0.1-6.5,4.2-6.5,4.2S83.3,249.1,89.7,251.4z"/>
		<path class="st2" d="M66.3,140.3c0,0,6.4,2.3,6.5-2.1s2.3-8.6-4.2-8.7s-6.5,4.2-6.5,4.2S59.9,138.1,66.3,140.3z"/>
		<path class="st2" d="M94.1,159.7c0,0,8.2,0.5,6.9-4.5c-1.3-5-0.2-10.7-7.7-8.7s-6.2,7-6.2,7S85.9,159.2,94.1,159.7z"/>
		<path class="st2" d="M-12.5,259.7c0,0,5.5,4,6.8-0.2s4.6-7.5-1.6-9.5c-6.1-1.9-7.4,2.2-7.4,2.2S-18,255.7-12.5,259.7z"/>
		<path id="XMLID_22_" class="st1" d="M-3.4,150.9c0,0-13.3-8.2-0.4-9.4"/>
		<path id="XMLID_21_" class="st1" d="M-4.6,172.6c0,0-13.3-8.2-0.4-9.4"/>
		<path id="XMLID_20_" class="st1" d="M-4.1,195.8c0,0-13.3-8.2-0.4-9.4"/>
		<path id="XMLID_19_" class="st1" d="M-5.3,217.6c0,0-13.3-8.2-0.4-9.4"/>
		<path id="XMLID_18_" class="st1" d="M-32.5,238.7c0,0-24.4,12.5-14.4-8"/>
		<path id="XMLID_17_" class="st1" d="M37.7,232.1c-0.4-1.6,0.9-3,5.6-3.4"/>
		<path id="XMLID_16_" class="st1" d="M47.7,199.9c0.7-1.6,1.6-3.5,2.8-5.7"/>
		<path id="XMLID_15_" class="st1" d="M47.9,156.1"/>
		<path id="XMLID_14_" class="st1" d="M42.2,159.5c-0.3-1.2,0.3-2.2,2.6-2.9"/>
		<path id="XMLID_13_" class="st1" d="M31.4,136"/>
		<path id="XMLID_12_" class="st1" d="M27.7,138.5c-0.3-1.2-0.5-2.6,0.2-3.2"/>
		<path id="XMLID_11_" class="st1" d="M79.4,246.9c-1.3-0.9-1.4-2.7,1.7-6.3"/>
		<path id="XMLID_10_" class="st1" d="M91.5,204.3c-0.1-1.7-0.1-3.8,0-6.4"/>
		<path id="XMLID_9_" class="st1" d="M83.6,158.5c-1-0.7-1.3-1.8-0.2-3.9"/>
		<path id="XMLID_8_" class="st1" d="M58.3,136.9c-0.3-1.2-0.5-2.6,0.2-3.2"/>
	</g>
	<path id="XMLID_7_" class="st3" d="M24.9,157.7c0.1,0.4,2.2,17.6,2.1,19.1c0,0.2-0.3,0.8-0.6,1.1c-0.4,0.5-1.1,1.1-1.8,1.3
		c-0.1,0-3.3,0.5-3.4,0.5c-1,0.2-2.1-0.3-3.1-2.3c-0.7-1.5-2.5-19.1-2.5-19.5c-0.1-1.2,0.7-1.9,1.7-2.1c0.6-0.2,3.1-0.5,3.8-0.5
		C22.7,155.1,24.6,155.9,24.9,157.7z"/>
	<path id="XMLID_6_" class="st3" d="M17.5,157.1c0,0-0.6-0.2-0.8,0.2"/>
	<path id="XMLID_5_" class="st3" d="M26.2,176.4c0,0-0.2,0.7-0.5,0.9"/>
</g>
<g id="Layer_5">
</g>
<g id="Layer_3">
</g>
<g>
	<path id="XMLID_85_" class="st1" d="M-401.2,117.7c132.7,8.3,295.7,16.3,380.4,21.9c153.4,10.2,379.1,1.5,379.1,1.5l-6.5,64.4
		c0,0-398.1-19.4-481.9-7.5c-60.1,8.5-281.8-11.5-411.2-18.8"/>
	<g>
		<path class="st1" d="M350.6,205.5c24.7,0.6,44.7,1.2,57.7,1.6c3.4,4.8,9.2,9.5,18.7,13.1c0,0,6.7,2.6,14.1,3
			c0.7,3.1,1.5,6.2,2.3,9c0,3.2,0.9,6.9,2.7,9.5c0.7,2.4,1.2,3.9,1.2,3.9c0.7,1.7,3.9,1,7.8-0.5c5.7-0.3,13.4-2.3,19.3-4.1
			c2.8,3.5,5.5,5.8,11.3,1.2c1.3-1.1,2.3-2.1,3-3c8.5-4.5,22.4-15.7,32.3-23.4c2.1-0.2,5.2-3,8.3-6.1c0.9-0.6,1.7-1.1,2.3-1.4
			c6-2.7,1.9-15.2-6.6-17.5c1.6-2,2.8-3.5,3.6-4.3c1.4-1.2,1.8-3.1,1.4-5.1c0.6-10.3-8.3-37.4-8.1-42.8c0.1-2.5-2.5-3.9-5.9-4.2
			c-0.1-1.3,0-2.3,0.1-3c0.7-4.4-9.2-7-13.6-2.6c-7-1.9-17-3-31.5-3c-36.5,0-52.2,6.9-58.9,12.8c-1.6,0.1-3.3,0.2-5.1,0.2
			c-5.2-19.8-19.2-9.3-28.8,1.3c-8.4,0.3-17.6,0.7-27.6,1.1 M459.1,210.6c0.1-0.8,0.2-1.7,0.2-2.7c0-9.8,1.7-19.6,1.7-27.8
			c9,0.9,21.8,1.8,32.6,0.6c0.3,0.6,0.7,1.2,1.1,1.8c-1.2,2.7-2.3,5.3-3.3,7.6c-0.6,0.4-1.2,0.8-1.8,1.4c0,0-6.5,5.9-1.5,8.6
			c1.8,1,3.4,2.3,5,3.2c-2.1,3.5-3.9,6.8-5.4,9.6c-1.2,0.9-2.6,2.2-2.7,3.8c-0.5,0.7-0.8,1.5-1,2.3c-0.5,0.5-0.9,0.9-1.4,1.4
			c-1.3-0.3-3.1,0-5.6,1.3c-1.2,0.6-2.2,1.3-3,1.9c-3.7-0.1-8.4,0.4-12.8,0.9C460.4,219.7,459.7,214.9,459.1,210.6z"/>
		<g>
			<path class="st1" d="M506.3,171.1c0,0-7.8-31.3-5.4-39.3s16.1-5.3,15.2-0.2c-0.8,5.1,4.7,37.1,0.1,38.7
				C511.6,171.7,507,173.2,506.3,171.1z"/>
			<path id="XMLID_27850_" class="st1" d="M424.9,207.7c0,0-29.3-1-74.3-2.1"/>
			<line id="XMLID_27849_" class="st1" x1="425.2" y1="204.5" x2="424.9" y2="207.7"/>
			<path id="XMLID_27848_" class="st1" d="M350.6,141.3c48.4-1.8,80.2-3.5,80.2-3.5"/>
			<path id="XMLID_1227_" class="st1" d="M368.2,152.8c0,0,37.9-56.2,40.7,0"/>
			<path class="st1" d="M449.7,178.7c0,0,64,10.5,64-10.5s21.3-42.2-42.7-42.2s-64,21.1-64,21.1"/>
			<g>
				<path class="st1" d="M488,198.2c0,0,11.6-30.1,18.2-35.3c6.6-5.2,16.2,4.9,12.6,8.6s-17.6,33.1-22.2,31.7
					C492,201.8,487.3,200.4,488,198.2z"/>
				<path class="st1" d="M489.5,191.5c0,0-6.5,5.9-1.5,8.6c5,2.7,8.7,7.9,12.7,0.7c4-7.2-1-10-1-10S496,185.6,489.5,191.5z"/>
			</g>
			<path class="st1" d="M510.9,176.5c2.7,7.1,5,12.5,5,12.5c1.3,2.4,7-0.6,12.7-3.7c5.7-3-6.9-40.3-6.6-46.7c0.1-2.5-2.6-4-6-4.2
				c0,0,0.2,0-7.3,0"/>
			<g>
				<path class="st1" d="M483.6,220c0,0,21.3-40.4,30.9-46.8c9.6-6.4,19.6,8.7,14.2,13.4s-29.6,43.8-35.2,41.3
					C487.9,225.5,482.3,223,483.6,220z"/>
				<path class="st1" d="M487.7,213.5c0,0-7.4,5.9-2.1,9.2c5.3,3.4,9.1,9.3,13.9,1.7c4.8-7.6-0.6-10.9-0.6-10.9
					S495.1,207.6,487.7,213.5z"/>
			</g>
			<path class="st1" d="M515,143.8c3.6,0.8,6.2,2.9,5.8,5.5c-1.2,6.9,6.8,49.3,0.2,51.7c-6.6,2.4-13.2,4.8-14.2,1.9
				c0,0-3.3-11.9-5.7-24.6"/>
			<g>
				<path class="st1" d="M485.1,216.2c0,0,24.2-20.3,32.8-21.2c8.6-0.9,13.6,13.6,8.5,14.8c-5.1,1.2-31.2,19.6-35.1,15.7
					C487.4,221.7,483.5,217.8,485.1,216.2z"/>
				<path class="st1" d="M489.8,211.5c0,0-8.3,3.6-3.6,8.3s7.3,11.2,13.2,5.3c6-6,1.3-10.6,1.3-10.6S498.1,207.9,489.8,211.5z"/>
			</g>
			<path class="st1" d="M503.2,160.8c2.2,0.2,3.9,1.1,4.5,2.9c2,6.5,27.2,40.5,22.8,45s-8.9,8.9-11,6.8c0,0-27.4-31.9-29.3-42.6"/>
			<g>
				<path class="st1" d="M519.7,190.8c11.9-2.8,19.1,14.4,12,17.6c-7.3,3.3-44.1,36.5-49.9,32.5c-5.8-4-11.6-8-9.3-10.7
					c0,0,21.8-22.6,36.9-33.6"/>
				<path class="st1" d="M476.5,227.6c0,0-10.6,4-5.9,9c4.7,5,6.7,12.2,15,5.7s3.5-11.5,3.5-11.5S487.1,223.6,476.5,227.6z"/>
			</g>
			<g>
				<path class="st3" d="M451.9,193.5C367.9,220.3,412,321.2,412,321.2s53.7,63.4,122.5,12.9C603.2,283.6,535.8,166.8,451.9,193.5z
					 M529.2,327.9C467.3,373.3,419,316.3,419,316.3s-39.6-90.9,35.9-114.9C530.4,177.3,591,282.4,529.2,327.9z"/>
				<g id="XMLID_3932_">
					<path id="XMLID_3943_" class="st3" d="M570,343.7c0,0,0-0.1,0-0.2c0-1.1,0.1-2.1,0.1-2.4c0-0.3,0-1.4,0-2.8c0-1.8,0-3.3,0-3.5
						c-0.1-0.8,0.1-3.4,0-4c0,0-0.1-4.6-0.1-5.1c0.1-1.4,0.2-4.4,0.1-5.2c0-0.9-0.2-12.6-0.4-14.4c0-0.1,0-0.2,0-0.3
						c0.1-2.1,0.2-4,0.1-5.4c0.3-4.1,0.2-11.6,0-14.7c0.3-0.3,0.4-13.2,0.3-13.5c0-0.2-0.1-0.3-0.1-0.5c0-2.6-0.1-5-0.2-6.5
						c0.3-0.3,0.4-13.2,0.3-13.5c-0.2-1.6-2.4-3.3-6-3.4c-0.4,0-7,0-14.6,0c-0.4,0-0.8-0.1-1.3-0.1c-1.7-0.1-134-0.1-135.7,0
						c-0.4,0-0.8,0-1.3,0.1c-7.7,0-14.2,0-14.6,0c-3.6,0.1-5.8,1.9-6,3.4c0,0.4-0.1,1.5,0,2.4c0,0.7,0,10.2,0,10.2
						c0,0.2,0,3.9,0.1,7.8c0,0.1,0,0.1,0,0.2c0,0.4-0.1,1.5,0,2.4c0,0.7,0,10.2,0,10.2c0,0.3,0,11.6,0.3,15.6c0,1.4,0,3.3,0.1,5.4
						c0,0.1,0,0.2,0,0.3c-0.2,1.8-0.5,13.5-0.4,14.4c0,0.7,0,10.2,0,10.2c-0.1,0.6,0,7.9,0,7.9c0,0.3,0,0.8,0,1.3c0,0.5,0,0.9,0,1.1
						c0,0.3,0,2.1,0,4c0,0.5,0,1.1,0,1.6c0,0.2,0,0.4,0,0.5c0,2.1,0,4,0,4c-0.1,0.6,0,7.9,0,7.9c-0.1,0.6,0.1,2.4,0.1,3.8
						c0,0.5-0.1,0.9-0.1,1.3c0,0.5-0.1,2,0,3c0,0.5,0,0.9,0,0.9c0,0.3,0.1,0.6,0.4,0.9c-0.2,3.2-0.3,10.9,0,15.1
						c0,1.5,0.1,3.6,0.2,5.9c0,0.2,0,0.3,0,0.4c-0.2,1.8-0.5,13.8-0.4,14.8c0,0.7,0,1.4,0,1.5c-0.1,0.6,0,6.6,0,7.5
						c0,0.7,0,1.4,0,1.5c0,0.3,0,0.5,0.2,0.8c-0.1,4-0.2,8.7-0.2,9.3c0,0.7,0,1.4,0,1.5c-0.1,0.6,0,6.6,0,7.5c0,0.7,0,1.4,0,1.5
						c-0.1,1,1.1,2,5.6,2.7c2.7,0.4,28.6,0.1,37.3,0c12.9,0.2,80.9,0.2,93.8,0c8.7,0.1,34.6,0.4,37.3,0c4.5-0.7,5.7-1.8,5.6-2.7
						c0,0,0-0.7,0-1.5c0-0.9,0-2.1,0-2.4c0-0.3-0.1-0.8-0.1-1.3c0.1-1.4,0.2-4.5,0.1-5.3c0-0.6-0.1-5.3-0.2-9.3
						c0.2-0.3,0.2-0.5,0.2-0.8c0,0,0-0.7,0-1.5c0-0.9,0-2.1,0-2.4c0-0.3-0.1-0.8-0.1-1.3c0.1-1.4,0.2-4.5,0.1-5.3
						c0-0.9-0.2-12.9-0.4-14.8c0-0.1,0-0.3,0-0.4c0.1-2.3,0.2-4.3,0.2-5.9c0.3-4.2,0.4-15.7,0.3-16c0,0,0-0.4,0-0.9c0-1,0-2.5,0-3
						c0-0.3,0-8.6,0-9c0-0.1,0-0.2,0-0.3c0-0.5,0-0.9,0-1.4c0-0.9,0.1-2,0-2.3c0,0,0-0.2,0-0.4c0-1.8,0-3.1,0-3.2c0,0,0-0.4,0-0.9
						C570.1,345.7,570,344.2,570,343.7z"/>
				</g>
			</g>
			<path class="st1" d="M403.7,193.9c0.3,8.2,4.7,19.3,23.3,26.4c0,0,32.3,12.3,32.3-12.3c0-19.1,6.5-38.2-5.7-45.8"/>
			<g>
				<path class="st1" d="M458,198.6c-0.9,6,7.5,42.3,1.7,44.7c-5.8,2.4-11.6,4.8-12.6,2.4c0,0-4.5-14.1-7.1-26.8"/>
				<g>
					<path class="st1" d="M458.4,224.6c9.4-1.2,20.9-2.5,22.2,1.1c2.1,5.8,4.3,11.5,2.5,12.4c0,0-26.3,9.5-33.8,6.4
						c-7.5-3.1-7.5-20.2-2.8-19.1"/>
					<path class="st1" d="M479.9,240.8c0,0,10.6-1.3,8.1-8.4c-2.5-7.1-1.9-15.7-11.2-10.9c-9.3,4.9-6.8,11.9-6.8,11.9
						S469.4,242.1,479.9,240.8z"/>
				</g>
			</g>
		</g>
	</g>
</g>
<g>
	<g>
		<path id="XMLID_44_" class="st1" d="M-714.1,117.7c132.7,8.3,295.7,16.3,380.4,21.9c153.4,10.2,379.1,1.5,379.1,1.5l-6.5,64.4
			c0,0-398.1-19.4-481.9-7.5c-60.1,8.5-281.8-11.5-411.2-18.8"/>
		<path class="st1" d="M35.3,144.3c8.5-7.6,23-14,47.4-13.6c11.4,0.2,28.8-1.3,31-0.7c3.8,1.1,24.7,0.4,32.5,2.6
			c1-2.4,2.7-4,4.6-3.5c4.6,1.4,34.6,0,35.4,4.4c0.9,4.4,1.7,8.8-0.4,9.2c0,0-28.9,3.5-36.4,0.5c-0.2,0.2-0.4,0.4-0.7,0.4
			c0,0-16.7,2-28.1,1.6c2.3,4,3.4,8.6,3.8,13.8c5.4,0.3,32.4-7.4,40.8-5.8c0.7-1.6,1.9-2.6,3.4-2.5c5.9,0.4,40.7-9.9,43.3-4.5
			c2.6,5.4,5.2,10.7,2.9,11.8c0,0-33.5,13-43,11c-1.4-0.3-2.6-1-3.6-1.8c-7.6,2.9-32.7,11.8-40.7,10.1c-1.4-0.3-3.1,7.5-2.2,7.8
			c5.4,1.8,36.6,1.1,45.1,5.2c1.2-1.5,2.7-2.2,4.3-1.7c6.1,2.1,46,0.8,47.2,7.2c1.3,6.4,2.5,12.7-0.2,13.3c0,0-39.2,4.4-48.7-0.3
			c-1.4-0.7-2.5-1.7-3.3-2.9c-9,0.9-38,3.4-46.1-0.6c-1.1-0.5-2.8,1.4-2.8,3c0,2.2,0.2,6.1,0.6,6.3c4.8,2.6,35,7.9,42.4,13
			c1.5-1,3-1.4,4.4-0.7c5.5,3,44.1,9.4,44,15.2c-0.1,5.8-0.2,11.6-2.9,11.6c0,0-38.6-3.5-46.9-9.4c-1.2-0.9-2.1-2-2.6-3.1
			c-8.8-0.9-37.3-4.2-44.2-9.2c-1.9-1.4-16.9,0.1-24.8,0c9.4,7.3,22.4,17.2,20.9,20.8c-2.3,5.3-4.5,10.6-6.8,9.7
			c0,0-29.4-15.6-34.2-23.9c-0.3,0.1-0.6,0.1-0.9,0c0,0-30-16-34.4-24.2c-0.3-0.6-0.5-1.1-0.7-1.6c-7-5.7-11-11.7-13.1-17.4"/>
		<path class="st1" d="M32.4,147.1c0.9-1,1.9-1.9,2.9-2.9"/>
		<path id="XMLID_43_" class="st1" d="M4.1,154.2c0,0,35.8-51.4,37.6,0.6"/>
		<path class="st2" d="M215.4,207.4c0,0,6.6,1.9,6.4-2.4c-0.1-4.3,1.9-8.7-4.6-8.5c-6.5,0.2-6.3,4.5-6.3,4.5
			S208.9,205.5,215.4,207.4z"/>
		<path class="st2" d="M203.3,251.4c0,0,6.4,2.3,6.5-2.1c0.1-4.3,2.3-8.6-4.2-8.7c-6.5-0.1-6.5,4.2-6.5,4.2S196.8,249.1,203.3,251.4
			z"/>
		<path class="st2" d="M179.8,140.3c0,0,6.4,2.3,6.5-2.1s2.3-8.6-4.2-8.7s-6.5,4.2-6.5,4.2S173.4,138.1,179.8,140.3z"/>
		<path class="st2" d="M207.6,159.7c0,0,8.2,0.5,6.9-4.5c-1.3-5-0.2-10.7-7.7-8.7c-7.6,2-6.2,7-6.2,7S199.4,159.2,207.6,159.7z"/>
		<path class="st2" d="M101,259.7c0,0,5.5,4,6.8-0.2c1.3-4.1,4.6-7.5-1.6-9.5c-6.1-1.9-7.4,2.2-7.4,2.2S95.5,255.7,101,259.7z"/>
		<path id="XMLID_42_" class="st1" d="M110.1,150.9c0,0-13.3-8.2-0.4-9.4"/>
		<path id="XMLID_41_" class="st1" d="M109,172.6c0,0-13.3-8.2-0.4-9.4"/>
		<path id="XMLID_40_" class="st1" d="M109.4,195.8c0,0-13.3-8.2-0.4-9.4"/>
		<path id="XMLID_39_" class="st1" d="M108.3,217.6c0,0-13.3-8.2-0.4-9.4"/>
		<path id="XMLID_38_" class="st1" d="M81,238.7c0,0-24.4,12.5-14.4-8"/>
		<path id="XMLID_37_" class="st1" d="M151.2,232.1c-0.4-1.6,0.9-3,5.6-3.4"/>
		<path id="XMLID_36_" class="st1" d="M161.2,199.9c0.7-1.6,1.6-3.5,2.8-5.7"/>
		<path id="XMLID_35_" class="st1" d="M161.4,156.1"/>
		<path id="XMLID_34_" class="st1" d="M155.8,159.5c-0.3-1.2,0.3-2.2,2.6-2.9"/>
		<path id="XMLID_33_" class="st1" d="M144.9,136"/>
		<path id="XMLID_32_" class="st1" d="M141.2,138.5c-0.3-1.2-0.5-2.6,0.2-3.2"/>
		<path id="XMLID_31_" class="st1" d="M192.9,246.9c-1.3-0.9-1.4-2.7,1.7-6.3"/>
		<path id="XMLID_30_" class="st1" d="M205,204.3c-0.1-1.7-0.1-3.8,0-6.4"/>
		<path id="XMLID_29_" class="st1" d="M197.2,158.5c-1-0.7-1.3-1.8-0.2-3.9"/>
		<path id="XMLID_28_" class="st1" d="M171.9,136.9c-0.3-1.2-0.5-2.6,0.2-3.2"/>
	</g>
	<path id="XMLID_27_" class="st3" d="M138.4,157.7c0.1,0.4,2.2,17.6,2.1,19.1c0,0.2-0.3,0.8-0.6,1.1c-0.4,0.5-1.1,1.1-1.8,1.3
		c-0.1,0-3.3,0.5-3.4,0.5c-1,0.2-2.1-0.3-3.1-2.3c-0.7-1.5-2.5-19.1-2.5-19.5c-0.1-1.2,0.7-1.9,1.7-2.1c0.6-0.2,3.1-0.5,3.8-0.5
		C136.2,155.1,138.1,155.9,138.4,157.7z"/>
	<path id="XMLID_26_" class="st3" d="M131,157.1c0,0-0.6-0.2-0.8,0.2"/>
	<path id="XMLID_25_" class="st3" d="M139.7,176.4c0,0-0.2,0.7-0.5,0.9"/>
</g>
<g>
	<g>
		<path id="XMLID_64_" class="st1" d="M-600.6,117.7c132.7,8.3,295.7,16.3,380.4,21.9c153.4,10.2,379.1,1.5,379.1,1.5l-6.5,64.4
			c0,0-398.1-19.4-481.9-7.5c-60.1,8.5-281.8-11.5-411.2-18.8"/>
		<path class="st1" d="M148.9,144.3c8.5-7.6,23-14,47.4-13.6c11.4,0.2,28.8-1.3,31-0.7c3.8,1.1,24.7,0.4,32.5,2.6
			c1-2.4,2.7-4,4.6-3.5c4.6,1.4,34.6,0,35.4,4.4c0.9,4.4,1.7,8.8-0.4,9.2c0,0-28.9,3.5-36.4,0.5c-0.2,0.2-0.4,0.4-0.7,0.4
			c0,0-16.7,2-28.1,1.6c2.3,4,3.4,8.6,3.8,13.8c5.4,0.3,32.4-7.4,40.8-5.8c0.7-1.6,1.9-2.6,3.4-2.5c5.9,0.4,40.7-9.9,43.3-4.5
			c2.6,5.4,5.2,10.7,2.9,11.8c0,0-33.5,13-43,11c-1.4-0.3-2.6-1-3.6-1.8c-7.6,2.9-32.7,11.8-40.7,10.1c-1.4-0.3-3.1,7.5-2.2,7.8
			c5.4,1.8,36.6,1.1,45.1,5.2c1.2-1.5,2.7-2.2,4.3-1.7c6.1,2.1,46,0.8,47.2,7.2c1.3,6.4,2.5,12.7-0.2,13.3c0,0-39.2,4.4-48.7-0.3
			c-1.4-0.7-2.5-1.7-3.3-2.9c-9,0.9-38,3.4-46.1-0.6c-1.1-0.5-2.8,1.4-2.8,3c0,2.2,0.2,6.1,0.6,6.3c4.8,2.6,35,7.9,42.4,13
			c1.5-1,3-1.4,4.4-0.7c5.5,3,44.1,9.4,44,15.2c-0.1,5.8-0.2,11.6-2.9,11.6c0,0-38.6-3.5-46.9-9.4c-1.2-0.9-2.1-2-2.6-3.1
			c-8.8-0.9-37.3-4.2-44.2-9.2c-1.9-1.4-16.9,0.1-24.8,0c9.4,7.3,22.4,17.2,20.9,20.8c-2.3,5.3-4.5,10.6-6.8,9.7
			c0,0-29.4-15.6-34.2-23.9c-0.3,0.1-0.6,0.1-0.9,0c0,0-30-16-34.4-24.2c-0.3-0.6-0.5-1.1-0.7-1.6c-7-5.7-11-11.7-13.1-17.4"/>
		<path class="st1" d="M145.9,147.1c0.9-1,1.9-1.9,2.9-2.9"/>
		<path id="XMLID_63_" class="st1" d="M117.6,154.2c0,0,35.8-51.4,37.6,0.6"/>
		<path class="st2" d="M328.9,207.4c0,0,6.6,1.9,6.4-2.4c-0.1-4.3,1.9-8.7-4.6-8.5s-6.3,4.5-6.3,4.5S322.4,205.5,328.9,207.4z"/>
		<path class="st2" d="M316.8,251.4c0,0,6.4,2.3,6.5-2.1c0.1-4.3,2.3-8.6-4.2-8.7c-6.5-0.1-6.5,4.2-6.5,4.2S310.3,249.1,316.8,251.4
			z"/>
		<path class="st2" d="M293.4,140.3c0,0,6.4,2.3,6.5-2.1c0.1-4.3,2.3-8.6-4.2-8.7c-6.5-0.1-6.5,4.2-6.5,4.2S286.9,138.1,293.4,140.3
			z"/>
		<path class="st2" d="M321.1,159.7c0,0,8.2,0.5,6.9-4.5c-1.3-5-0.2-10.7-7.7-8.7c-7.6,2-6.2,7-6.2,7S312.9,159.2,321.1,159.7z"/>
		<path class="st2" d="M214.5,259.7c0,0,5.5,4,6.8-0.2c1.3-4.1,4.6-7.5-1.6-9.5c-6.1-1.9-7.4,2.2-7.4,2.2S209,255.7,214.5,259.7z"/>
		<path id="XMLID_62_" class="st1" d="M223.6,150.9c0,0-13.3-8.2-0.4-9.4"/>
		<path id="XMLID_61_" class="st1" d="M222.5,172.6c0,0-13.3-8.2-0.4-9.4"/>
		<path id="XMLID_60_" class="st1" d="M222.9,195.8c0,0-13.3-8.2-0.4-9.4"/>
		<path id="XMLID_59_" class="st1" d="M221.8,217.6c0,0-13.3-8.2-0.4-9.4"/>
		<path id="XMLID_58_" class="st1" d="M194.6,238.7c0,0-24.4,12.5-14.4-8"/>
		<path id="XMLID_57_" class="st1" d="M264.7,232.1c-0.4-1.6,0.9-3,5.6-3.4"/>
		<path id="XMLID_56_" class="st1" d="M274.8,199.9c0.7-1.6,1.6-3.5,2.8-5.7"/>
		<path id="XMLID_55_" class="st1" d="M274.9,156.1"/>
		<path id="XMLID_54_" class="st1" d="M269.3,159.5c-0.3-1.2,0.3-2.2,2.6-2.9"/>
		<path id="XMLID_53_" class="st1" d="M258.4,136"/>
		<path id="XMLID_52_" class="st1" d="M254.7,138.5c-0.3-1.2-0.5-2.6,0.2-3.2"/>
		<path id="XMLID_51_" class="st1" d="M306.4,246.9c-1.3-0.9-1.4-2.7,1.7-6.3"/>
		<path id="XMLID_50_" class="st1" d="M318.5,204.3c-0.1-1.7-0.1-3.8,0-6.4"/>
		<path id="XMLID_49_" class="st1" d="M310.7,158.5c-1-0.7-1.3-1.8-0.2-3.9"/>
		<path id="XMLID_48_" class="st1" d="M285.4,136.9c-0.3-1.2-0.5-2.6,0.2-3.2"/>
	</g>
	<path id="XMLID_47_" class="st3" d="M252,157.7c0.1,0.4,2.2,17.6,2.1,19.1c0,0.2-0.3,0.8-0.6,1.1c-0.4,0.5-1.1,1.1-1.8,1.3
		c-0.1,0-3.3,0.5-3.4,0.5c-1,0.2-2.1-0.3-3.1-2.3c-0.7-1.5-2.5-19.1-2.5-19.5c-0.1-1.2,0.7-1.9,1.7-2.1c0.6-0.2,3.1-0.5,3.8-0.5
		C249.7,155.1,251.6,155.9,252,157.7z"/>
	<path id="XMLID_46_" class="st3" d="M244.5,157.1c0,0-0.6-0.2-0.8,0.2"/>
	<path id="XMLID_45_" class="st3" d="M253.3,176.4c0,0-0.2,0.7-0.5,0.9"/>
</g>
<g>
	<g>
		<path id="XMLID_84_" class="st1" d="M-478.8,117.7c132.7,8.3,295.7,16.3,380.4,21.9c153.4,10.2,379.1,1.5,379.1,1.5l-6.5,64.4
			c0,0-398.1-19.4-481.9-7.5c-60.1,8.5-281.8-11.5-411.2-18.8"/>
		<path class="st1" d="M270.6,144.3c8.5-7.6,23-14,47.4-13.6c11.4,0.2,28.8-1.3,31-0.7c3.8,1.1,24.7,0.4,32.5,2.6
			c1-2.4,2.7-4,4.6-3.5c4.6,1.4,34.6,0,35.4,4.4c0.9,4.4,1.7,8.8-0.4,9.2c0,0-28.9,3.5-36.4,0.5c-0.2,0.2-0.4,0.4-0.7,0.4
			c0,0-16.7,2-28.1,1.6c2.3,4,3.4,8.6,3.8,13.8c5.4,0.3,32.4-7.4,40.8-5.8c0.7-1.6,1.9-2.6,3.4-2.5c5.9,0.4,40.7-9.9,43.3-4.5
			c2.6,5.4,5.2,10.7,2.9,11.8c0,0-33.5,13-43,11c-1.4-0.3-2.6-1-3.6-1.8c-7.6,2.9-32.7,11.8-40.7,10.1c-1.4-0.3-3.1,7.5-2.2,7.8
			c5.4,1.8,36.6,1.1,45.1,5.2c1.2-1.5,2.7-2.2,4.3-1.7c6.1,2.1,46,0.8,47.2,7.2c1.3,6.4,2.5,12.7-0.2,13.3c0,0-39.2,4.4-48.7-0.3
			c-1.4-0.7-2.5-1.7-3.3-2.9c-9,0.9-38,3.4-46.1-0.6c-1.1-0.5-2.8,1.4-2.8,3c0,2.2,0.2,6.1,0.6,6.3c4.8,2.6,35,7.9,42.4,13
			c1.5-1,3-1.4,4.4-0.7c5.5,3,44.1,9.4,44,15.2c-0.1,5.8-0.2,11.6-2.9,11.6c0,0-38.6-3.5-46.9-9.4c-1.2-0.9-2.1-2-2.6-3.1
			c-8.8-0.9-37.3-4.2-44.2-9.2c-1.9-1.4-16.9,0.1-24.8,0c9.4,7.3,22.4,17.2,20.9,20.8c-2.3,5.3-4.5,10.6-6.8,9.7
			c0,0-29.4-15.6-34.2-23.9c-0.3,0.1-0.6,0.1-0.9,0c0,0-30-16-34.4-24.2c-0.3-0.6-0.5-1.1-0.7-1.6c-7-5.7-11-11.7-13.1-17.4"/>
		<path class="st1" d="M267.7,147.1c0.9-1,1.9-1.9,2.9-2.9"/>
		<path id="XMLID_83_" class="st1" d="M239.3,154.2c0,0,35.8-51.4,37.6,0.6"/>
		<path class="st2" d="M450.6,207.4c0,0,6.6,1.9,6.4-2.4c-0.1-4.3,1.9-8.7-4.6-8.5c-6.5,0.2-6.3,4.5-6.3,4.5
			S444.1,205.5,450.6,207.4z"/>
		<path class="st2" d="M438.5,251.4c0,0,6.4,2.3,6.5-2.1s2.3-8.6-4.2-8.7c-6.5-0.1-6.5,4.2-6.5,4.2S432,249.1,438.5,251.4z"/>
		<path class="st2" d="M415.1,140.3c0,0,6.4,2.3,6.5-2.1s2.3-8.6-4.2-8.7s-6.5,4.2-6.5,4.2S408.7,138.1,415.1,140.3z"/>
		<path class="st2" d="M442.9,159.7c0,0,8.2,0.5,6.9-4.5c-1.3-5-0.2-10.7-7.7-8.7s-6.2,7-6.2,7S434.7,159.2,442.9,159.7z"/>
		<path class="st2" d="M336.3,259.7c0,0,5.5,4,6.8-0.2c1.3-4.1,4.6-7.5-1.6-9.5c-6.1-1.9-7.4,2.2-7.4,2.2S330.8,255.7,336.3,259.7z"
			/>
		<path id="XMLID_82_" class="st1" d="M345.4,150.9c0,0-13.3-8.2-0.4-9.4"/>
		<path id="XMLID_81_" class="st1" d="M344.2,172.6c0,0-13.3-8.2-0.4-9.4"/>
		<path id="XMLID_80_" class="st1" d="M344.7,195.8c0,0-13.3-8.2-0.4-9.4"/>
		<path id="XMLID_79_" class="st1" d="M343.5,217.6c0,0-13.3-8.2-0.4-9.4"/>
		<path id="XMLID_78_" class="st1" d="M316.3,238.7c0,0-24.4,12.5-14.4-8"/>
		<path id="XMLID_77_" class="st1" d="M386.5,232.1c-0.4-1.6,0.9-3,5.6-3.4"/>
		<path id="XMLID_76_" class="st1" d="M396.5,199.9c0.7-1.6,1.6-3.5,2.8-5.7"/>
		<path id="XMLID_75_" class="st1" d="M396.7,156.1"/>
		<path id="XMLID_74_" class="st1" d="M391,159.5c-0.3-1.2,0.3-2.2,2.6-2.9"/>
		<path id="XMLID_73_" class="st1" d="M380.2,136"/>
		<path id="XMLID_72_" class="st1" d="M376.5,138.5c-0.3-1.2-0.5-2.6,0.2-3.2"/>
		<path id="XMLID_71_" class="st1" d="M428.2,246.9c-1.3-0.9-1.4-2.7,1.7-6.3"/>
		<path id="XMLID_70_" class="st1" d="M440.3,204.3c-0.1-1.7-0.1-3.8,0-6.4"/>
		<path id="XMLID_69_" class="st1" d="M432.4,158.5c-1-0.7-1.3-1.8-0.2-3.9"/>
		<path id="XMLID_68_" class="st1" d="M407.1,136.9c-0.3-1.2-0.5-2.6,0.2-3.2"/>
	</g>
	<path id="XMLID_67_" class="st3" d="M373.7,157.7c0.1,0.4,2.2,17.6,2.1,19.1c0,0.2-0.3,0.8-0.6,1.1c-0.4,0.5-1.1,1.1-1.8,1.3
		c-0.1,0-3.3,0.5-3.4,0.5c-1,0.2-2.1-0.3-3.1-2.3c-0.7-1.5-2.5-19.1-2.5-19.5c-0.1-1.2,0.7-1.9,1.7-2.1c0.6-0.2,3.1-0.5,3.8-0.5
		C371.5,155.1,373.4,155.9,373.7,157.7z"/>
	<path id="XMLID_66_" class="st3" d="M366.3,157.1c0,0-0.6-0.2-0.8,0.2"/>
	<path id="XMLID_65_" class="st3" d="M375,176.4c0,0-0.2,0.7-0.5,0.9"/>
</g>
<g>
	<path id="XMLID_92_" class="st1" d="M-529.9,117.7c132.7,8.3,295.7,16.3,380.4,21.9c153.4,10.2,379.1,1.5,379.1,1.5l-6.5,64.4
		c0,0-398.1-19.4-481.9-7.5c-60.1,8.5-281.8-11.5-411.2-18.8"/>
	<g>
		<path class="st1" d="M221.9,205.5c24.7,0.6,44.7,1.2,57.7,1.6c3.4,4.8,9.2,9.5,18.7,13.1c0,0,6.7,2.6,14.1,3
			c0.7,3.1,1.5,6.2,2.3,9c0,3.2,0.9,6.9,2.7,9.5c0.7,2.4,1.2,3.9,1.2,3.9c0.7,1.7,3.9,1,7.8-0.5c5.7-0.3,13.4-2.3,19.3-4.1
			c2.8,3.5,5.5,5.8,11.3,1.2c1.3-1.1,2.3-2.1,3-3c8.5-4.5,22.4-15.7,32.3-23.4c2.1-0.2,5.2-3,8.3-6.1c0.9-0.6,1.7-1.1,2.3-1.4
			c6-2.7,1.9-15.2-6.6-17.5c1.6-2,2.8-3.5,3.6-4.3c1.4-1.2,1.8-3.1,1.4-5.1c0.6-10.3-8.3-37.4-8.1-42.8c0.1-2.5-2.5-3.9-5.9-4.2
			c-0.1-1.3,0-2.3,0.1-3c0.7-4.4-9.2-7-13.6-2.6c-7-1.9-17-3-31.5-3c-36.5,0-52.2,6.9-58.9,12.8c-1.6,0.1-3.3,0.2-5.1,0.2
			c-5.2-19.8-19.2-9.3-28.8,1.3c-8.4,0.3-17.6,0.7-27.6,1.1 M330.4,210.6c0.1-0.8,0.2-1.7,0.2-2.7c0-9.8,1.7-19.6,1.7-27.8
			c9,0.9,21.8,1.8,32.6,0.6c0.3,0.6,0.7,1.2,1.1,1.8c-1.2,2.7-2.3,5.3-3.3,7.6c-0.6,0.4-1.2,0.8-1.8,1.4c0,0-6.5,5.9-1.5,8.6
			c1.8,1,3.4,2.3,5,3.2c-2.1,3.5-3.9,6.8-5.4,9.6c-1.2,0.9-2.6,2.2-2.7,3.8c-0.5,0.7-0.8,1.5-1,2.3c-0.5,0.5-0.9,0.9-1.4,1.4
			c-1.3-0.3-3.1,0-5.6,1.3c-1.2,0.6-2.2,1.3-3,1.9c-3.7-0.1-8.4,0.4-12.8,0.9C331.7,219.7,331,214.9,330.4,210.6z"/>
		<g>
			<path class="st1" d="M377.6,171.1c0,0-7.8-31.3-5.4-39.3c2.4-8.1,16.1-5.3,15.2-0.2c-0.8,5.1,4.7,37.1,0.1,38.7
				C382.9,171.7,378.4,173.2,377.6,171.1z"/>
			<path id="XMLID_91_" class="st1" d="M296.2,207.7c0,0-29.3-1-74.3-2.1"/>
			<line id="XMLID_90_" class="st1" x1="296.5" y1="204.5" x2="296.2" y2="207.7"/>
			<path id="XMLID_89_" class="st1" d="M221.9,141.3c48.4-1.8,80.2-3.5,80.2-3.5"/>
			<path id="XMLID_88_" class="st1" d="M239.5,152.8c0,0,37.9-56.2,40.7,0"/>
			<path class="st1" d="M321.1,178.7c0,0,64,10.5,64-10.5s21.3-42.2-42.7-42.2s-64,21.1-64,21.1"/>
			<g>
				<path class="st1" d="M359.3,198.2c0,0,11.6-30.1,18.2-35.3c6.6-5.2,16.2,4.9,12.6,8.6c-3.6,3.7-17.6,33.1-22.2,31.7
					C363.3,201.8,358.6,200.4,359.3,198.2z"/>
				<path class="st1" d="M360.8,191.5c0,0-6.5,5.9-1.5,8.6c5,2.7,8.7,7.9,12.7,0.7c4-7.2-1-10-1-10S367.3,185.6,360.8,191.5z"/>
			</g>
			<path class="st1" d="M382.2,176.5c2.7,7.1,5,12.5,5,12.5c1.3,2.4,7-0.6,12.7-3.7s-6.9-40.3-6.6-46.7c0.1-2.5-2.6-4-6-4.2
				c0,0,0.2,0-7.3,0"/>
			<g>
				<path class="st1" d="M354.9,220c0,0,21.3-40.4,30.9-46.8s19.6,8.7,14.2,13.4c-5.4,4.7-29.6,43.8-35.2,41.3
					C359.2,225.5,353.6,223,354.9,220z"/>
				<path class="st1" d="M359,213.5c0,0-7.4,5.9-2.1,9.2c5.3,3.4,9.1,9.3,13.9,1.7c4.8-7.6-0.6-10.9-0.6-10.9S366.4,207.6,359,213.5
					z"/>
			</g>
			<path class="st1" d="M386.3,143.8c3.6,0.8,6.2,2.9,5.8,5.5c-1.2,6.9,6.8,49.3,0.2,51.7s-13.2,4.8-14.2,1.9c0,0-3.3-11.9-5.7-24.6
				"/>
			<g>
				<path class="st1" d="M356.4,216.2c0,0,24.2-20.3,32.8-21.2s13.6,13.6,8.5,14.8c-5.1,1.2-31.2,19.6-35.1,15.7
					C358.7,221.7,354.9,217.8,356.4,216.2z"/>
				<path class="st1" d="M361.1,211.5c0,0-8.3,3.6-3.6,8.3s7.3,11.2,13.2,5.3c6-6,1.3-10.6,1.3-10.6S369.4,207.9,361.1,211.5z"/>
			</g>
			<path class="st1" d="M374.5,160.8c2.2,0.2,3.9,1.1,4.5,2.9c2,6.5,27.2,40.5,22.8,45c-4.4,4.4-8.9,8.9-11,6.8
				c0,0-27.4-31.9-29.3-42.6"/>
			<g>
				<path class="st1" d="M391,190.8c11.9-2.8,19.1,14.4,12,17.6c-7.3,3.3-44.1,36.5-49.9,32.5s-11.6-8-9.3-10.7
					c0,0,21.8-22.6,36.9-33.6"/>
				<path class="st1" d="M347.8,227.6c0,0-10.6,4-5.9,9c4.7,5,6.7,12.2,15,5.7s3.5-11.5,3.5-11.5S358.5,223.6,347.8,227.6z"/>
			</g>
			<g>
				<path class="st3" d="M323.2,193.5c-83.9,26.7-39.9,127.7-39.9,127.7s53.7,63.4,122.5,12.9C474.5,283.6,407.1,166.8,323.2,193.5z
					 M400.5,327.9c-61.9,45.4-110.2-11.6-110.2-11.6s-39.6-90.9,35.9-114.9C401.7,177.3,462.3,282.4,400.5,327.9z"/>
				<g id="XMLID_86_">
					<path id="XMLID_87_" class="st3" d="M441.3,343.7c0,0,0-0.1,0-0.2c0-1.1,0.1-2.1,0.1-2.4c0-0.3,0-1.4,0-2.8c0-1.8,0-3.3,0-3.5
						c-0.1-0.8,0.1-3.4,0-4c0,0-0.1-4.6-0.1-5.1c0.1-1.4,0.2-4.4,0.1-5.2c0-0.9-0.2-12.6-0.4-14.4c0-0.1,0-0.2,0-0.3
						c0.1-2.1,0.2-4,0.1-5.4c0.3-4.1,0.2-11.6,0-14.7c0.3-0.3,0.4-13.2,0.3-13.5c0-0.2-0.1-0.3-0.1-0.5c0-2.6-0.1-5-0.2-6.5
						c0.3-0.3,0.4-13.2,0.3-13.5c-0.2-1.6-2.4-3.3-6-3.4c-0.4,0-7,0-14.6,0c-0.4,0-0.8-0.1-1.3-0.1c-1.7-0.1-134-0.1-135.7,0
						c-0.4,0-0.8,0-1.3,0.1c-7.7,0-14.2,0-14.6,0c-3.6,0.1-5.8,1.9-6,3.4c0,0.4-0.1,1.5,0,2.4c0,0.7,0,10.2,0,10.2
						c0,0.2,0,3.9,0.1,7.8c0,0.1,0,0.1,0,0.2c0,0.4-0.1,1.5,0,2.4c0,0.7,0,10.2,0,10.2c0,0.3,0,11.6,0.3,15.6c0,1.4,0,3.3,0.1,5.4
						c0,0.1,0,0.2,0,0.3c-0.2,1.8-0.5,13.5-0.4,14.4c0,0.7,0,10.2,0,10.2c-0.1,0.6,0,7.9,0,7.9c0,0.3,0,0.8,0,1.3c0,0.5,0,0.9,0,1.1
						c0,0.3,0,2.1,0,4c0,0.5,0,1.1,0,1.6c0,0.2,0,0.4,0,0.5c0,2.1,0,4,0,4c-0.1,0.6,0,7.9,0,7.9c-0.1,0.6,0.1,2.4,0.1,3.8
						c0,0.5-0.1,0.9-0.1,1.3c0,0.5-0.1,2,0,3c0,0.5,0,0.9,0,0.9c0,0.3,0.1,0.6,0.4,0.9c-0.2,3.2-0.3,10.9,0,15.1
						c0,1.5,0.1,3.6,0.2,5.9c0,0.2,0,0.3,0,0.4c-0.2,1.8-0.5,13.8-0.4,14.8c0,0.7,0,1.4,0,1.5c-0.1,0.6,0,6.6,0,7.5
						c0,0.7,0,1.4,0,1.5c0,0.3,0,0.5,0.2,0.8c-0.1,4-0.2,8.7-0.2,9.3c0,0.7,0,1.4,0,1.5c-0.1,0.6,0,6.6,0,7.5c0,0.7,0,1.4,0,1.5
						c-0.1,1,1.1,2,5.6,2.7c2.7,0.4,28.6,0.1,37.3,0c12.9,0.2,80.9,0.2,93.8,0c8.7,0.1,34.6,0.4,37.3,0c4.5-0.7,5.7-1.8,5.6-2.7
						c0,0,0-0.7,0-1.5c0-0.9,0-2.1,0-2.4c0-0.3-0.1-0.8-0.1-1.3c0.1-1.4,0.2-4.5,0.1-5.3c0-0.6-0.1-5.3-0.2-9.3
						c0.2-0.3,0.2-0.5,0.2-0.8c0,0,0-0.7,0-1.5c0-0.9,0-2.1,0-2.4c0-0.3-0.1-0.8-0.1-1.3c0.1-1.4,0.2-4.5,0.1-5.3
						c0-0.9-0.2-12.9-0.4-14.8c0-0.1,0-0.3,0-0.4c0.1-2.3,0.2-4.3,0.2-5.9c0.3-4.2,0.4-15.7,0.3-16c0,0,0-0.4,0-0.9c0-1,0-2.5,0-3
						c0-0.3,0-8.6,0-9c0-0.1,0-0.2,0-0.3c0-0.5,0-0.9,0-1.4c0-0.9,0.1-2,0-2.3c0,0,0-0.2,0-0.4c0-1.8,0-3.1,0-3.2c0,0,0-0.4,0-0.9
						C441.4,345.7,441.3,344.2,441.3,343.7z"/>
				</g>
			</g>
			<path class="st1" d="M275,193.9c0.3,8.2,4.7,19.3,23.3,26.4c0,0,32.3,12.3,32.3-12.3c0-19.1,6.5-38.2-5.7-45.8"/>
			<g>
				<path class="st1" d="M329.3,198.6c-0.9,6,7.5,42.3,1.7,44.7c-5.8,2.4-11.6,4.8-12.6,2.4c0,0-4.5-14.1-7.1-26.8"/>
				<g>
					<path class="st1" d="M329.7,224.6c9.4-1.2,20.9-2.5,22.2,1.1c2.1,5.8,4.3,11.5,2.5,12.4c0,0-26.3,9.5-33.8,6.4
						c-7.5-3.1-7.5-20.2-2.8-19.1"/>
					<path class="st1" d="M351.3,240.8c0,0,10.6-1.3,8.1-8.4c-2.5-7.1-1.9-15.7-11.2-10.9c-9.3,4.9-6.8,11.9-6.8,11.9
						S340.7,242.1,351.3,240.8z"/>
				</g>
			</g>
		</g>
	</g>
</g>
<g>
	<path id="XMLID_99_" class="st1" d="M-651.6,117.7c132.7,8.3,295.7,16.3,380.4,21.9c153.4,10.2,379.1,1.5,379.1,1.5l-6.5,64.4
		c0,0-398.1-19.4-481.9-7.5c-60.1,8.5-281.8-11.5-411.2-18.8"/>
	<g>
		<path class="st1" d="M100.2,205.5c24.7,0.6,44.7,1.2,57.7,1.6c3.4,4.8,9.2,9.5,18.7,13.1c0,0,6.7,2.6,14.1,3
			c0.7,3.1,1.5,6.2,2.3,9c0,3.2,0.9,6.9,2.7,9.5c0.7,2.4,1.2,3.9,1.2,3.9c0.7,1.7,3.9,1,7.8-0.5c5.7-0.3,13.4-2.3,19.3-4.1
			c2.8,3.5,5.5,5.8,11.3,1.2c1.3-1.1,2.3-2.1,3-3c8.5-4.5,22.4-15.7,32.3-23.4c2.1-0.2,5.2-3,8.3-6.1c0.9-0.6,1.7-1.1,2.3-1.4
			c6-2.7,1.9-15.2-6.6-17.5c1.6-2,2.8-3.5,3.6-4.3c1.4-1.2,1.8-3.1,1.4-5.1c0.6-10.3-8.3-37.4-8.1-42.8c0.1-2.5-2.5-3.9-5.9-4.2
			c-0.1-1.3,0-2.3,0.1-3c0.7-4.4-9.2-7-13.6-2.6c-7-1.9-17-3-31.5-3c-36.5,0-52.2,6.9-58.9,12.8c-1.6,0.1-3.3,0.2-5.1,0.2
			c-5.2-19.8-19.2-9.3-28.8,1.3c-8.4,0.3-17.6,0.7-27.6,1.1 M208.7,210.6c0.1-0.8,0.2-1.7,0.2-2.7c0-9.8,1.7-19.6,1.7-27.8
			c9,0.9,21.8,1.8,32.6,0.6c0.3,0.6,0.7,1.2,1.1,1.8c-1.2,2.7-2.3,5.3-3.3,7.6c-0.6,0.4-1.2,0.8-1.8,1.4c0,0-6.5,5.9-1.5,8.6
			c1.8,1,3.4,2.3,5,3.2c-2.1,3.5-3.9,6.8-5.4,9.6c-1.2,0.9-2.6,2.2-2.7,3.8c-0.5,0.7-0.8,1.5-1,2.3c-0.5,0.5-0.9,0.9-1.4,1.4
			c-1.3-0.3-3.1,0-5.6,1.3c-1.2,0.6-2.2,1.3-3,1.9c-3.7-0.1-8.4,0.4-12.8,0.9C210,219.7,209.3,214.9,208.7,210.6z"/>
		<g>
			<path class="st1" d="M255.9,171.1c0,0-7.8-31.3-5.4-39.3c2.4-8.1,16.1-5.3,15.2-0.2c-0.8,5.1,4.7,37.1,0.1,38.7
				C261.2,171.7,256.6,173.2,255.9,171.1z"/>
			<path id="XMLID_98_" class="st1" d="M174.5,207.7c0,0-29.3-1-74.3-2.1"/>
			<line id="XMLID_97_" class="st1" x1="174.7" y1="204.5" x2="174.5" y2="207.7"/>
			<path id="XMLID_96_" class="st1" d="M100.2,141.3c48.4-1.8,80.2-3.5,80.2-3.5"/>
			<path id="XMLID_95_" class="st1" d="M117.8,152.8c0,0,37.9-56.2,40.7,0"/>
			<path class="st1" d="M199.3,178.7c0,0,64,10.5,64-10.5s21.3-42.2-42.7-42.2s-64,21.1-64,21.1"/>
			<g>
				<path class="st1" d="M237.6,198.2c0,0,11.6-30.1,18.2-35.3c6.6-5.2,16.2,4.9,12.6,8.6c-3.6,3.7-17.6,33.1-22.2,31.7
					S236.9,200.4,237.6,198.2z"/>
				<path class="st1" d="M239.1,191.5c0,0-6.5,5.9-1.5,8.6c5,2.7,8.7,7.9,12.7,0.7c4-7.2-1-10-1-10S245.5,185.6,239.1,191.5z"/>
			</g>
			<path class="st1" d="M260.5,176.5c2.7,7.1,5,12.5,5,12.5c1.3,2.4,7-0.6,12.7-3.7s-6.9-40.3-6.6-46.7c0.1-2.5-2.6-4-6-4.2
				c0,0,0.2,0-7.3,0"/>
			<g>
				<path class="st1" d="M233.2,220c0,0,21.3-40.4,30.9-46.8s19.6,8.7,14.2,13.4c-5.4,4.7-29.6,43.8-35.2,41.3
					C237.5,225.5,231.9,223,233.2,220z"/>
				<path class="st1" d="M237.3,213.5c0,0-7.4,5.9-2.1,9.2c5.3,3.4,9.1,9.3,13.9,1.7c4.8-7.6-0.6-10.9-0.6-10.9
					S244.7,207.6,237.3,213.5z"/>
			</g>
			<path class="st1" d="M264.6,143.8c3.6,0.8,6.2,2.9,5.8,5.5c-1.2,6.9,6.8,49.3,0.2,51.7c-6.6,2.4-13.2,4.8-14.2,1.9
				c0,0-3.3-11.9-5.7-24.6"/>
			<g>
				<path class="st1" d="M234.7,216.2c0,0,24.2-20.3,32.8-21.2c8.6-0.9,13.6,13.6,8.5,14.8c-5.1,1.2-31.2,19.6-35.1,15.7
					C237,221.7,233.1,217.8,234.7,216.2z"/>
				<path class="st1" d="M239.4,211.5c0,0-8.3,3.6-3.6,8.3s7.3,11.2,13.2,5.3c6-6,1.3-10.6,1.3-10.6S247.7,207.9,239.4,211.5z"/>
			</g>
			<path class="st1" d="M252.8,160.8c2.2,0.2,3.9,1.1,4.5,2.9c2,6.5,27.2,40.5,22.8,45c-4.4,4.4-8.9,8.9-11,6.8
				c0,0-27.4-31.9-29.3-42.6"/>
			<g>
				<path class="st1" d="M269.3,190.8c11.9-2.8,19.1,14.4,12,17.6c-7.3,3.3-44.1,36.5-49.9,32.5c-5.8-4-11.6-8-9.3-10.7
					c0,0,21.8-22.6,36.9-33.6"/>
				<path class="st1" d="M226.1,227.6c0,0-10.6,4-5.9,9c4.7,5,6.7,12.2,15,5.7c8.2-6.5,3.5-11.5,3.5-11.5S236.7,223.6,226.1,227.6z"
					/>
			</g>
			<g>
				<path class="st3" d="M201.4,193.5c-83.9,26.7-39.9,127.7-39.9,127.7s53.7,63.4,122.5,12.9C352.8,283.6,285.4,166.8,201.4,193.5z
					 M278.7,327.9c-61.9,45.4-110.2-11.6-110.2-11.6s-39.6-90.9,35.9-114.9C280,177.3,340.6,282.4,278.7,327.9z"/>
				<g id="XMLID_93_">
					<path id="XMLID_94_" class="st3" d="M319.6,343.7c0,0,0-0.1,0-0.2c0-1.1,0.1-2.1,0.1-2.4c0-0.3,0-1.4,0-2.8c0-1.8,0-3.3,0-3.5
						c-0.1-0.8,0.1-3.4,0-4c0,0-0.1-4.6-0.1-5.1c0.1-1.4,0.2-4.4,0.1-5.2c0-0.9-0.2-12.6-0.4-14.4c0-0.1,0-0.2,0-0.3
						c0.1-2.1,0.2-4,0.1-5.4c0.3-4.1,0.2-11.6,0-14.7c0.3-0.3,0.4-13.2,0.3-13.5c0-0.2-0.1-0.3-0.1-0.5c0-2.6-0.1-5-0.2-6.5
						c0.3-0.3,0.4-13.2,0.3-13.5c-0.2-1.6-2.4-3.3-6-3.4c-0.4,0-7,0-14.6,0c-0.4,0-0.8-0.1-1.3-0.1c-1.7-0.1-134-0.1-135.7,0
						c-0.4,0-0.8,0-1.3,0.1c-7.7,0-14.2,0-14.6,0c-3.6,0.1-5.8,1.9-6,3.4c0,0.4-0.1,1.5,0,2.4c0,0.7,0,10.2,0,10.2
						c0,0.2,0,3.9,0.1,7.8c0,0.1,0,0.1,0,0.2c0,0.4-0.1,1.5,0,2.4c0,0.7,0,10.2,0,10.2c0,0.3,0,11.6,0.3,15.6c0,1.4,0,3.3,0.1,5.4
						c0,0.1,0,0.2,0,0.3c-0.2,1.8-0.5,13.5-0.4,14.4c0,0.7,0,10.2,0,10.2c-0.1,0.6,0,7.9,0,7.9c0,0.3,0,0.8,0,1.3c0,0.5,0,0.9,0,1.1
						c0,0.3,0,2.1,0,4c0,0.5,0,1.1,0,1.6c0,0.2,0,0.4,0,0.5c0,2.1,0,4,0,4c-0.1,0.6,0,7.9,0,7.9c-0.1,0.6,0.1,2.4,0.1,3.8
						c0,0.5-0.1,0.9-0.1,1.3c0,0.5-0.1,2,0,3c0,0.5,0,0.9,0,0.9c0,0.3,0.1,0.6,0.4,0.9c-0.2,3.2-0.3,10.9,0,15.1
						c0,1.5,0.1,3.6,0.2,5.9c0,0.2,0,0.3,0,0.4c-0.2,1.8-0.5,13.8-0.4,14.8c0,0.7,0,1.4,0,1.5c-0.1,0.6,0,6.6,0,7.5
						c0,0.7,0,1.4,0,1.5c0,0.3,0,0.5,0.2,0.8c-0.1,4-0.2,8.7-0.2,9.3c0,0.7,0,1.4,0,1.5c-0.1,0.6,0,6.6,0,7.5c0,0.7,0,1.4,0,1.5
						c-0.1,1,1.1,2,5.6,2.7c2.7,0.4,28.6,0.1,37.3,0c12.9,0.2,80.9,0.2,93.8,0c8.7,0.1,34.6,0.4,37.3,0c4.5-0.7,5.7-1.8,5.6-2.7
						c0,0,0-0.7,0-1.5c0-0.9,0-2.1,0-2.4c0-0.3-0.1-0.8-0.1-1.3c0.1-1.4,0.2-4.5,0.1-5.3c0-0.6-0.1-5.3-0.2-9.3
						c0.2-0.3,0.2-0.5,0.2-0.8c0,0,0-0.7,0-1.5c0-0.9,0-2.1,0-2.4c0-0.3-0.1-0.8-0.1-1.3c0.1-1.4,0.2-4.5,0.1-5.3
						c0-0.9-0.2-12.9-0.4-14.8c0-0.1,0-0.3,0-0.4c0.1-2.3,0.2-4.3,0.2-5.9c0.3-4.2,0.4-15.7,0.3-16c0,0,0-0.4,0-0.9c0-1,0-2.5,0-3
						c0-0.3,0-8.6,0-9c0-0.1,0-0.2,0-0.3c0-0.5,0-0.9,0-1.4c0-0.9,0.1-2,0-2.3c0,0,0-0.2,0-0.4c0-1.8,0-3.1,0-3.2c0,0,0-0.4,0-0.9
						C319.6,345.7,319.6,344.2,319.6,343.7z"/>
				</g>
			</g>
			<path class="st1" d="M153.3,193.9c0.3,8.2,4.7,19.3,23.3,26.4c0,0,32.3,12.3,32.3-12.3c0-19.1,6.5-38.2-5.7-45.8"/>
			<g>
				<path class="st1" d="M207.6,198.6c-0.9,6,7.5,42.3,1.7,44.7c-5.8,2.4-11.6,4.8-12.6,2.4c0,0-4.5-14.1-7.1-26.8"/>
				<g>
					<path class="st1" d="M208,224.6c9.4-1.2,20.9-2.5,22.2,1.1c2.1,5.8,4.3,11.5,2.5,12.4c0,0-26.3,9.5-33.8,6.4
						s-7.5-20.2-2.8-19.1"/>
					<path class="st1" d="M229.5,240.8c0,0,10.6-1.3,8.1-8.4c-2.5-7.1-1.9-15.7-11.2-10.9s-6.8,11.9-6.8,11.9
						S218.9,242.1,229.5,240.8z"/>
				</g>
			</g>
		</g>
	</g>
</g>
<g>
	<path id="XMLID_106_" class="st1" d="M-765.1,117.7c132.7,8.3,295.7,16.3,380.4,21.9c153.4,10.2,379.1,1.5,379.1,1.5l-6.5,64.4
		c0,0-398.1-19.4-481.9-7.5c-60.1,8.5-281.8-11.5-411.2-18.8"/>
	<g>
		<path class="st1" d="M-13.3,205.5c24.7,0.6,44.7,1.2,57.7,1.6c3.4,4.8,9.2,9.5,18.7,13.1c0,0,6.7,2.6,14.1,3
			c0.7,3.1,1.5,6.2,2.3,9c0,3.2,0.9,6.9,2.7,9.5c0.7,2.4,1.2,3.9,1.2,3.9c0.7,1.7,3.9,1,7.8-0.5c5.7-0.3,13.4-2.3,19.3-4.1
			c2.8,3.5,5.5,5.8,11.3,1.2c1.3-1.1,2.3-2.1,3-3c8.5-4.5,22.4-15.7,32.3-23.4c2.1-0.2,5.2-3,8.3-6.1c0.9-0.6,1.7-1.1,2.3-1.4
			c6-2.7,1.9-15.2-6.6-17.5c1.6-2,2.8-3.5,3.6-4.3c1.4-1.2,1.8-3.1,1.4-5.1c0.6-10.3-8.3-37.4-8.1-42.8c0.1-2.5-2.5-3.9-5.9-4.2
			c-0.1-1.3,0-2.3,0.1-3c0.7-4.4-9.2-7-13.6-2.6c-7-1.9-17-3-31.5-3c-36.5,0-52.2,6.9-58.9,12.8c-1.6,0.1-3.3,0.2-5.1,0.2
			c-5.2-19.8-19.2-9.3-28.8,1.3c-8.4,0.3-17.6,0.7-27.6,1.1 M95.2,210.6c0.1-0.8,0.2-1.7,0.2-2.7c0-9.8,1.7-19.6,1.7-27.8
			c9,0.9,21.8,1.8,32.6,0.6c0.3,0.6,0.7,1.2,1.1,1.8c-1.2,2.7-2.3,5.3-3.3,7.6c-0.6,0.4-1.2,0.8-1.8,1.4c0,0-6.5,5.9-1.5,8.6
			c1.8,1,3.4,2.3,5,3.2c-2.1,3.5-3.9,6.8-5.4,9.6c-1.2,0.9-2.6,2.2-2.7,3.8c-0.5,0.7-0.8,1.5-1,2.3c-0.5,0.5-0.9,0.9-1.4,1.4
			c-1.3-0.3-3.1,0-5.6,1.3c-1.2,0.6-2.2,1.3-3,1.9c-3.7-0.1-8.4,0.4-12.8,0.9C96.5,219.7,95.8,214.9,95.2,210.6z"/>
		<g>
			<path class="st1" d="M142.4,171.1c0,0-7.8-31.3-5.4-39.3c2.4-8.1,16.1-5.3,15.2-0.2c-0.8,5.1,4.7,37.1,0.1,38.7
				C147.7,171.7,143.1,173.2,142.4,171.1z"/>
			<path id="XMLID_105_" class="st1" d="M60.9,207.7c0,0-29.3-1-74.3-2.1"/>
			<line id="XMLID_104_" class="st1" x1="61.2" y1="204.5" x2="60.9" y2="207.7"/>
			<path id="XMLID_103_" class="st1" d="M-13.3,141.3c48.4-1.8,80.2-3.5,80.2-3.5"/>
			<path id="XMLID_102_" class="st1" d="M4.3,152.8c0,0,37.9-56.2,40.7,0"/>
			<path class="st1" d="M85.8,178.7c0,0,64,10.5,64-10.5s21.3-42.2-42.7-42.2s-64,21.1-64,21.1"/>
			<g>
				<path class="st1" d="M124,198.2c0,0,11.6-30.1,18.2-35.3c6.6-5.2,16.2,4.9,12.6,8.6s-17.6,33.1-22.2,31.7S123.4,200.4,124,198.2
					z"/>
				<path class="st1" d="M125.5,191.5c0,0-6.5,5.9-1.5,8.6s8.7,7.9,12.7,0.7c4-7.2-1-10-1-10S132,185.6,125.5,191.5z"/>
			</g>
			<path class="st1" d="M147,176.5c2.7,7.1,5,12.5,5,12.5c1.3,2.4,7-0.6,12.7-3.7s-6.9-40.3-6.6-46.7c0.1-2.5-2.6-4-6-4.2
				c0,0,0.2,0-7.3,0"/>
			<g>
				<path class="st1" d="M119.7,220c0,0,21.3-40.4,30.9-46.8c9.6-6.4,19.6,8.7,14.2,13.4s-29.6,43.8-35.2,41.3
					C123.9,225.5,118.3,223,119.7,220z"/>
				<path class="st1" d="M123.8,213.5c0,0-7.4,5.9-2.1,9.2c5.3,3.4,9.1,9.3,13.9,1.7c4.8-7.6-0.6-10.9-0.6-10.9
					S131.2,207.6,123.8,213.5z"/>
			</g>
			<path class="st1" d="M151.1,143.8c3.6,0.8,6.2,2.9,5.8,5.5c-1.2,6.9,6.8,49.3,0.2,51.7c-6.6,2.4-13.2,4.8-14.2,1.9
				c0,0-3.3-11.9-5.7-24.6"/>
			<g>
				<path class="st1" d="M121.2,216.2c0,0,24.2-20.3,32.8-21.2c8.6-0.9,13.6,13.6,8.5,14.8c-5.1,1.2-31.2,19.6-35.1,15.7
					C123.5,221.7,119.6,217.8,121.2,216.2z"/>
				<path class="st1" d="M125.9,211.5c0,0-8.3,3.6-3.6,8.3s7.3,11.2,13.2,5.3c6-6,1.3-10.6,1.3-10.6S134.1,207.9,125.9,211.5z"/>
			</g>
			<path class="st1" d="M139.3,160.8c2.2,0.2,3.9,1.1,4.5,2.9c2,6.5,27.2,40.5,22.8,45s-8.9,8.9-11,6.8c0,0-27.4-31.9-29.3-42.6"/>
			<g>
				<path class="st1" d="M155.8,190.8c11.9-2.8,19.1,14.4,12,17.6c-7.3,3.3-44.1,36.5-49.9,32.5s-11.6-8-9.3-10.7
					c0,0,21.8-22.6,36.9-33.6"/>
				<path class="st1" d="M112.6,227.6c0,0-10.6,4-5.9,9c4.7,5,6.7,12.2,15,5.7s3.5-11.5,3.5-11.5S123.2,223.6,112.6,227.6z"/>
			</g>
			<g>
				<path class="st3" d="M87.9,193.5C4,220.3,48,321.2,48,321.2s53.7,63.4,122.5,12.9C239.2,283.6,171.8,166.8,87.9,193.5z
					 M165.2,327.9C103.3,373.3,55,316.3,55,316.3s-39.6-90.9,35.9-114.9C166.4,177.3,227.1,282.4,165.2,327.9z"/>
				<g id="XMLID_100_">
					<path id="XMLID_101_" class="st3" d="M206,343.7c0,0,0-0.1,0-0.2c0-1.1,0.1-2.1,0.1-2.4c0-0.3,0-1.4,0-2.8c0-1.8,0-3.3,0-3.5
						c-0.1-0.8,0.1-3.4,0-4c0,0-0.1-4.6-0.1-5.1c0.1-1.4,0.2-4.4,0.1-5.2c0-0.9-0.2-12.6-0.4-14.4c0-0.1,0-0.2,0-0.3
						c0.1-2.1,0.2-4,0.1-5.4c0.3-4.1,0.2-11.6,0-14.7c0.3-0.3,0.4-13.2,0.3-13.5c0-0.2-0.1-0.3-0.1-0.5c0-2.6-0.1-5-0.2-6.5
						c0.3-0.3,0.4-13.2,0.3-13.5c-0.2-1.6-2.4-3.3-6-3.4c-0.4,0-7,0-14.6,0c-0.4,0-0.8-0.1-1.3-0.1c-1.7-0.1-134-0.1-135.7,0
						c-0.4,0-0.8,0-1.3,0.1c-7.7,0-14.2,0-14.6,0c-3.6,0.1-5.8,1.9-6,3.4c0,0.4-0.1,1.5,0,2.4c0,0.7,0,10.2,0,10.2
						c0,0.2,0,3.9,0.1,7.8c0,0.1,0,0.1,0,0.2c0,0.4-0.1,1.5,0,2.4c0,0.7,0,10.2,0,10.2c0,0.3,0,11.6,0.3,15.6c0,1.4,0,3.3,0.1,5.4
						c0,0.1,0,0.2,0,0.3c-0.2,1.8-0.5,13.5-0.4,14.4c0,0.7,0,10.2,0,10.2c-0.1,0.6,0,7.9,0,7.9c0,0.3,0,0.8,0,1.3c0,0.5,0,0.9,0,1.1
						c0,0.3,0,2.1,0,4c0,0.5,0,1.1,0,1.6c0,0.2,0,0.4,0,0.5c0,2.1,0,4,0,4c-0.1,0.6,0,7.9,0,7.9c-0.1,0.6,0.1,2.4,0.1,3.8
						c0,0.5-0.1,0.9-0.1,1.3c0,0.5-0.1,2,0,3c0,0.5,0,0.9,0,0.9c0,0.3,0.1,0.6,0.4,0.9c-0.2,3.2-0.3,10.9,0,15.1
						c0,1.5,0.1,3.6,0.2,5.9c0,0.2,0,0.3,0,0.4c-0.2,1.8-0.5,13.8-0.4,14.8c0,0.7,0,1.4,0,1.5c-0.1,0.6,0,6.6,0,7.5
						c0,0.7,0,1.4,0,1.5c0,0.3,0,0.5,0.2,0.8c-0.1,4-0.2,8.7-0.2,9.3c0,0.7,0,1.4,0,1.5c-0.1,0.6,0,6.6,0,7.5c0,0.7,0,1.4,0,1.5
						c-0.1,1,1.1,2,5.6,2.7c2.7,0.4,28.6,0.1,37.3,0c12.9,0.2,80.9,0.2,93.8,0c8.7,0.1,34.6,0.4,37.3,0c4.5-0.7,5.7-1.8,5.6-2.7
						c0,0,0-0.7,0-1.5c0-0.9,0-2.1,0-2.4c0-0.3-0.1-0.8-0.1-1.3c0.1-1.4,0.2-4.5,0.1-5.3c0-0.6-0.1-5.3-0.2-9.3
						c0.2-0.3,0.2-0.5,0.2-0.8c0,0,0-0.7,0-1.5c0-0.9,0-2.1,0-2.4c0-0.3-0.1-0.8-0.1-1.3c0.1-1.4,0.2-4.5,0.1-5.3
						c0-0.9-0.2-12.9-0.4-14.8c0-0.1,0-0.3,0-0.4c0.1-2.3,0.2-4.3,0.2-5.9c0.3-4.2,0.4-15.7,0.3-16c0,0,0-0.4,0-0.9c0-1,0-2.5,0-3
						c0-0.3,0-8.6,0-9c0-0.1,0-0.2,0-0.3c0-0.5,0-0.9,0-1.4c0-0.9,0.1-2,0-2.3c0,0,0-0.2,0-0.4c0-1.8,0-3.1,0-3.2c0,0,0-0.4,0-0.9
						C206.1,345.7,206.1,344.2,206,343.7z"/>
				</g>
			</g>
			<path class="st1" d="M39.7,193.9c0.3,8.2,4.7,19.3,23.3,26.4c0,0,32.3,12.3,32.3-12.3c0-19.1,6.5-38.2-5.7-45.8"/>
			<g>
				<path class="st1" d="M94.1,198.6c-0.9,6,7.5,42.3,1.7,44.7c-5.8,2.4-11.6,4.8-12.6,2.4c0,0-4.5-14.1-7.1-26.8"/>
				<g>
					<path class="st1" d="M94.5,224.6c9.4-1.2,20.9-2.5,22.2,1.1c2.1,5.8,4.3,11.5,2.5,12.4c0,0-26.3,9.5-33.8,6.4
						s-7.5-20.2-2.8-19.1"/>
					<path class="st1" d="M116,240.8c0,0,10.6-1.3,8.1-8.4c-2.5-7.1-1.9-15.7-11.2-10.9s-6.8,11.9-6.8,11.9S105.4,242.1,116,240.8z"
						/>
				</g>
			</g>
		</g>
	</g>
</g>
<g>
	<path id="XMLID_113_" class="st1" d="M-878.7,117.7c132.7,8.3,295.7,16.3,380.4,21.9c153.4,10.2,379.1,1.5,379.1,1.5l-6.5,64.4
		c0,0-398.1-19.4-481.9-7.5c-60.1,8.5-281.8-11.5-411.2-18.8"/>
	<g>
		<path class="st1" d="M-126.9,205.5c24.7,0.6,44.7,1.2,57.7,1.6c3.4,4.8,9.2,9.5,18.7,13.1c0,0,6.7,2.6,14.1,3
			c0.7,3.1,1.5,6.2,2.3,9c0,3.2,0.9,6.9,2.7,9.5c0.7,2.4,1.2,3.9,1.2,3.9c0.7,1.7,3.9,1,7.8-0.5c5.7-0.3,13.4-2.3,19.3-4.1
			c2.8,3.5,5.5,5.8,11.3,1.2c1.3-1.1,2.3-2.1,3-3c8.5-4.5,22.4-15.7,32.3-23.4c2.1-0.2,5.2-3,8.3-6.1c0.9-0.6,1.7-1.1,2.3-1.4
			c6-2.7,1.9-15.2-6.6-17.5c1.6-2,2.8-3.5,3.6-4.3c1.4-1.2,1.8-3.1,1.4-5.1c0.6-10.3-8.3-37.4-8.1-42.8c0.1-2.5-2.5-3.9-5.9-4.2
			c-0.1-1.3,0-2.3,0.1-3c0.7-4.4-9.2-7-13.6-2.6c-7-1.9-17-3-31.5-3c-36.5,0-52.2,6.9-58.9,12.8c-1.6,0.1-3.3,0.2-5.1,0.2
			c-5.2-19.8-19.2-9.3-28.8,1.3c-8.4,0.3-17.6,0.7-27.6,1.1 M-18.3,210.6c0.1-0.8,0.2-1.7,0.2-2.7c0-9.8,1.7-19.6,1.7-27.8
			c9,0.9,21.8,1.8,32.6,0.6c0.3,0.6,0.7,1.2,1.1,1.8c-1.2,2.7-2.3,5.3-3.3,7.6c-0.6,0.4-1.2,0.8-1.8,1.4c0,0-6.5,5.9-1.5,8.6
			c1.8,1,3.4,2.3,5,3.2c-2.1,3.5-3.9,6.8-5.4,9.6c-1.2,0.9-2.6,2.2-2.7,3.8c-0.5,0.7-0.8,1.5-1,2.3c-0.5,0.5-0.9,0.9-1.4,1.4
			c-1.3-0.3-3.1,0-5.6,1.3c-1.2,0.6-2.2,1.3-3,1.9c-3.7-0.1-8.4,0.4-12.8,0.9C-17.1,219.7-17.8,214.9-18.3,210.6z"/>
		<g>
			<path class="st1" d="M28.8,171.1c0,0-7.8-31.3-5.4-39.3s16.1-5.3,15.2-0.2c-0.8,5.1,4.7,37.1,0.1,38.7
				C34.2,171.7,29.6,173.2,28.8,171.1z"/>
			<path id="XMLID_112_" class="st1" d="M-52.6,207.7c0,0-29.3-1-74.3-2.1"/>
			<line id="XMLID_111_" class="st1" x1="-52.3" y1="204.5" x2="-52.6" y2="207.7"/>
			<path id="XMLID_110_" class="st1" d="M-126.9,141.3c48.4-1.8,80.2-3.5,80.2-3.5"/>
			<path id="XMLID_109_" class="st1" d="M-109.3,152.8c0,0,37.9-56.2,40.7,0"/>
			<path class="st1" d="M-27.7,178.7c0,0,64,10.5,64-10.5S57.6,126-6.4,126s-64,21.1-64,21.1"/>
			<g>
				<path class="st1" d="M10.5,198.2c0,0,11.6-30.1,18.2-35.3c6.6-5.2,16.2,4.9,12.6,8.6s-17.6,33.1-22.2,31.7S9.8,200.4,10.5,198.2
					z"/>
				<path class="st1" d="M12,191.5c0,0-6.5,5.9-1.5,8.6s8.7,7.9,12.7,0.7c4-7.2-1-10-1-10S18.5,185.6,12,191.5z"/>
			</g>
			<path class="st1" d="M33.4,176.5c2.7,7.1,5,12.5,5,12.5c1.3,2.4,7-0.6,12.7-3.7s-6.9-40.3-6.6-46.7c0.1-2.5-2.6-4-6-4.2
				c0,0,0.2,0-7.3,0"/>
			<g>
				<path class="st1" d="M6.1,220c0,0,21.3-40.4,30.9-46.8s19.6,8.7,14.2,13.4S21.6,230.5,16,228C10.4,225.5,4.8,223,6.1,220z"/>
				<path class="st1" d="M10.2,213.5c0,0-7.4,5.9-2.1,9.2c5.3,3.4,9.1,9.3,13.9,1.7c4.8-7.6-0.6-10.9-0.6-10.9
					S17.7,207.6,10.2,213.5z"/>
			</g>
			<path class="st1" d="M37.5,143.8c3.6,0.8,6.2,2.9,5.8,5.5c-1.2,6.9,6.8,49.3,0.2,51.7s-13.2,4.8-14.2,1.9c0,0-3.3-11.9-5.7-24.6"
				/>
			<g>
				<path class="st1" d="M7.7,216.2c0,0,24.2-20.3,32.8-21.2s13.6,13.6,8.5,14.8c-5.1,1.2-31.2,19.6-35.1,15.7
					C9.9,221.7,6.1,217.8,7.7,216.2z"/>
				<path class="st1" d="M12.3,211.5c0,0-8.3,3.6-3.6,8.3s7.3,11.2,13.2,5.3c6-6,1.3-10.6,1.3-10.6S20.6,207.9,12.3,211.5z"/>
			</g>
			<path class="st1" d="M25.7,160.8c2.2,0.2,3.9,1.1,4.5,2.9c2,6.5,27.2,40.5,22.8,45s-8.9,8.9-11,6.8c0,0-27.4-31.9-29.3-42.6"/>
			<g>
				<path class="st1" d="M42.2,190.8c11.9-2.8,19.1,14.4,12,17.6c-7.3,3.3-44.1,36.5-49.9,32.5s-11.6-8-9.3-10.7
					c0,0,21.8-22.6,36.9-33.6"/>
				<path class="st1" d="M-1,227.6c0,0-10.6,4-5.9,9c4.7,5,6.7,12.2,15,5.7s3.5-11.5,3.5-11.5S9.7,223.6-1,227.6z"/>
			</g>
			<g>
				<path class="st3" d="M-25.6,193.5c-83.9,26.7-39.9,127.7-39.9,127.7s53.7,63.4,122.5,12.9C125.7,283.6,58.3,166.8-25.6,193.5z
					 M51.7,327.9c-61.9,45.4-110.2-11.6-110.2-11.6s-39.6-90.9,35.9-114.9C52.9,177.3,113.6,282.4,51.7,327.9z"/>
				<g id="XMLID_107_">
					<path id="XMLID_108_" class="st3" d="M92.5,343.7c0,0,0-0.1,0-0.2c0-1.1,0.1-2.1,0.1-2.4c0-0.3,0-1.4,0-2.8c0-1.8,0-3.3,0-3.5
						c-0.1-0.8,0.1-3.4,0-4c0,0-0.1-4.6-0.1-5.1c0.1-1.4,0.2-4.4,0.1-5.2c0-0.9-0.2-12.6-0.4-14.4c0-0.1,0-0.2,0-0.3
						c0.1-2.1,0.2-4,0.1-5.4c0.3-4.1,0.2-11.6,0-14.7c0.3-0.3,0.4-13.2,0.3-13.5c0-0.2-0.1-0.3-0.1-0.5c0-2.6-0.1-5-0.2-6.5
						c0.3-0.3,0.4-13.2,0.3-13.5c-0.2-1.6-2.4-3.3-6-3.4c-0.4,0-7,0-14.6,0c-0.4,0-0.8-0.1-1.3-0.1c-1.7-0.1-134-0.1-135.7,0
						c-0.4,0-0.8,0-1.3,0.1c-7.7,0-14.2,0-14.6,0c-3.6,0.1-5.8,1.9-6,3.4c0,0.4-0.1,1.5,0,2.4c0,0.7,0,10.2,0,10.2
						c0,0.2,0,3.9,0.1,7.8c0,0.1,0,0.1,0,0.2c0,0.4-0.1,1.5,0,2.4c0,0.7,0,10.2,0,10.2c0,0.3,0,11.6,0.3,15.6c0,1.4,0,3.3,0.1,5.4
						c0,0.1,0,0.2,0,0.3c-0.2,1.8-0.5,13.5-0.4,14.4c0,0.7,0,10.2,0,10.2c-0.1,0.6,0,7.9,0,7.9c0,0.3,0,0.8,0,1.3c0,0.5,0,0.9,0,1.1
						c0,0.3,0,2.1,0,4c0,0.5,0,1.1,0,1.6c0,0.2,0,0.4,0,0.5c0,2.1,0,4,0,4c-0.1,0.6,0,7.9,0,7.9c-0.1,0.6,0.1,2.4,0.1,3.8
						c0,0.5-0.1,0.9-0.1,1.3c0,0.5-0.1,2,0,3c0,0.5,0,0.9,0,0.9c0,0.3,0.1,0.6,0.4,0.9c-0.2,3.2-0.3,10.9,0,15.1
						c0,1.5,0.1,3.6,0.2,5.9c0,0.2,0,0.3,0,0.4c-0.2,1.8-0.5,13.8-0.4,14.8c0,0.7,0,1.4,0,1.5c-0.1,0.6,0,6.6,0,7.5
						c0,0.7,0,1.4,0,1.5c0,0.3,0,0.5,0.2,0.8c-0.1,4-0.2,8.7-0.2,9.3c0,0.7,0,1.4,0,1.5c-0.1,0.6,0,6.6,0,7.5c0,0.7,0,1.4,0,1.5
						c-0.1,1,1.1,2,5.6,2.7c2.7,0.4,28.6,0.1,37.3,0c12.9,0.2,80.9,0.2,93.8,0c8.7,0.1,34.6,0.4,37.3,0c4.5-0.7,5.7-1.8,5.6-2.7
						c0,0,0-0.7,0-1.5c0-0.9,0-2.1,0-2.4c0-0.3-0.1-0.8-0.1-1.3c0.1-1.4,0.2-4.5,0.1-5.3c0-0.6-0.1-5.3-0.2-9.3
						c0.2-0.3,0.2-0.5,0.2-0.8c0,0,0-0.7,0-1.5c0-0.9,0-2.1,0-2.4c0-0.3-0.1-0.8-0.1-1.3c0.1-1.4,0.2-4.5,0.1-5.3
						c0-0.9-0.2-12.9-0.4-14.8c0-0.1,0-0.3,0-0.4c0.1-2.3,0.2-4.3,0.2-5.9c0.3-4.2,0.4-15.7,0.3-16c0,0,0-0.4,0-0.9c0-1,0-2.5,0-3
						c0-0.3,0-8.6,0-9c0-0.1,0-0.2,0-0.3c0-0.5,0-0.9,0-1.4c0-0.9,0.1-2,0-2.3c0,0,0-0.2,0-0.4c0-1.8,0-3.1,0-3.2c0,0,0-0.4,0-0.9
						C92.6,345.7,92.5,344.2,92.5,343.7z"/>
				</g>
			</g>
			<path class="st1" d="M-73.8,193.9c0.3,8.2,4.7,19.3,23.3,26.4c0,0,32.3,12.3,32.3-12.3c0-19.1,6.5-38.2-5.7-45.8"/>
			<g>
				<path class="st1" d="M-19.5,198.6c-0.9,6,7.5,42.3,1.7,44.7c-5.8,2.4-11.6,4.8-12.6,2.4c0,0-4.5-14.1-7.1-26.8"/>
				<g>
					<path class="st1" d="M-19.1,224.6c9.4-1.2,20.9-2.5,22.2,1.1c2.1,5.8,4.3,11.5,2.5,12.4c0,0-26.3,9.5-33.8,6.4
						s-7.5-20.2-2.8-19.1"/>
					<path class="st1" d="M2.5,240.8c0,0,10.6-1.3,8.1-8.4c-2.5-7.1-1.9-15.7-11.2-10.9s-6.8,11.9-6.8,11.9S-8.1,242.1,2.5,240.8z"
						/>
				</g>
			</g>
		</g>
	</g>
</g>
<g>
	<g>
		<path id="XMLID_6280_" class="st1" d="M-367.7,117.7C-235,126-72,133.9,12.7,139.5c153.4,10.2,379.1,1.5,379.1,1.5l-6.5,64.4
			c0,0-398.1-19.4-481.9-7.5c-60.1,8.5-281.8-11.5-411.2-18.8"/>
		<path class="st1" d="M381.8,144.3c8.5-7.6,23-14,47.4-13.6c11.4,0.2,28.8-1.3,31-0.7c3.8,1.1,24.7,0.4,32.5,2.6
			c1-2.4,2.7-4,4.6-3.5c4.6,1.4,34.6,0,35.4,4.4c0.9,4.4,1.7,8.8-0.4,9.2c0,0-28.9,3.5-36.4,0.5c-0.2,0.2-0.4,0.4-0.7,0.4
			c0,0-16.7,2-28.1,1.6c2.3,4,3.4,8.6,3.8,13.8c5.4,0.3,32.4-7.4,40.8-5.8c0.7-1.6,1.9-2.6,3.4-2.5c5.9,0.4,40.7-9.9,43.3-4.5
			c2.6,5.4,5.2,10.7,2.9,11.8c0,0-33.5,13-43,11c-1.4-0.3-2.6-1-3.6-1.8c-7.6,2.9-32.7,11.8-40.7,10.1c-1.4-0.3-3.1,7.5-2.2,7.8
			c5.4,1.8,36.6,1.1,45.1,5.2c1.2-1.5,2.7-2.2,4.3-1.7c6.1,2.1,46,0.8,47.2,7.2c1.3,6.4,2.5,12.7-0.2,13.3c0,0-39.2,4.4-48.7-0.3
			c-1.4-0.7-2.5-1.7-3.3-2.9c-9,0.9-38,3.4-46.1-0.6c-1.1-0.5-2.8,1.4-2.8,3c0,2.2,0.2,6.1,0.6,6.3c4.8,2.6,35,7.9,42.4,13
			c1.5-1,3-1.4,4.4-0.7c5.5,3,44.1,9.4,44,15.2c-0.1,5.8-0.2,11.6-2.9,11.6c0,0-38.6-3.5-46.9-9.4c-1.2-0.9-2.1-2-2.6-3.1
			c-8.8-0.9-37.3-4.2-44.2-9.2c-1.9-1.4-16.9,0.1-24.8,0c9.4,7.3,22.4,17.2,20.9,20.8c-2.3,5.3-4.5,10.6-6.8,9.7
			c0,0-29.4-15.6-34.2-23.9c-0.3,0.1-0.6,0.1-0.9,0c0,0-30-16-34.4-24.2c-0.3-0.6-0.5-1.1-0.7-1.6c-7-5.7-11-11.7-13.1-17.4"/>
		<path class="st1" d="M378.8,147.1c0.9-1,1.9-1.9,2.9-2.9"/>
		<path id="XMLID_6279_" class="st1" d="M350.5,154.2c0,0,35.8-51.4,37.6,0.6"/>
		<path class="st2" d="M561.8,207.4c0,0,6.6,1.9,6.4-2.4c-0.1-4.3,1.9-8.7-4.6-8.5c-6.5,0.2-6.3,4.5-6.3,4.5
			S555.3,205.5,561.8,207.4z"/>
		<path class="st2" d="M549.7,251.4c0,0,6.4,2.3,6.5-2.1c0.1-4.3,2.3-8.6-4.2-8.7c-6.5-0.1-6.5,4.2-6.5,4.2S543.2,249.1,549.7,251.4
			z"/>
		<path class="st2" d="M526.3,140.3c0,0,6.4,2.3,6.5-2.1c0.1-4.3,2.3-8.6-4.2-8.7c-6.5-0.1-6.5,4.2-6.5,4.2S519.8,138.1,526.3,140.3
			z"/>
		<path class="st2" d="M554,159.7c0,0,8.2,0.5,6.9-4.5c-1.3-5-0.2-10.7-7.7-8.7c-7.6,2-6.2,7-6.2,7S545.8,159.2,554,159.7z"/>
		<path class="st2" d="M447.4,259.7c0,0,5.5,4,6.8-0.2c1.3-4.1,4.6-7.5-1.6-9.5c-6.1-1.9-7.4,2.2-7.4,2.2S441.9,255.7,447.4,259.7z"
			/>
		<path id="XMLID_6278_" class="st1" d="M456.5,150.9c0,0-13.3-8.2-0.4-9.4"/>
		<path id="XMLID_6276_" class="st1" d="M455.4,172.6c0,0-13.3-8.2-0.4-9.4"/>
		<path id="XMLID_6273_" class="st1" d="M455.8,195.8c0,0-13.3-8.2-0.4-9.4"/>
		<path id="XMLID_6272_" class="st1" d="M454.7,217.6c0,0-13.3-8.2-0.4-9.4"/>
		<path id="XMLID_6271_" class="st1" d="M427.5,238.7c0,0-24.4,12.5-14.4-8"/>
		<path id="XMLID_6270_" class="st1" d="M497.6,232.1c-0.4-1.6,0.9-3,5.6-3.4"/>
		<path id="XMLID_6269_" class="st1" d="M507.6,199.9c0.7-1.6,1.6-3.5,2.8-5.7"/>
		<path id="XMLID_6268_" class="st1" d="M507.8,156.1"/>
		<path id="XMLID_6267_" class="st1" d="M502.2,159.5c-0.3-1.2,0.3-2.2,2.6-2.9"/>
		<path id="XMLID_6266_" class="st1" d="M491.3,136"/>
		<path id="XMLID_6265_" class="st1" d="M487.6,138.5c-0.3-1.2-0.5-2.6,0.2-3.2"/>
		<path id="XMLID_6264_" class="st1" d="M539.3,246.9c-1.3-0.9-1.4-2.7,1.7-6.3"/>
		<path id="XMLID_6263_" class="st1" d="M551.4,204.3c-0.1-1.7-0.1-3.8,0-6.4"/>
		<path id="XMLID_6262_" class="st1" d="M543.6,158.5c-1-0.7-1.3-1.8-0.2-3.9"/>
		<path id="XMLID_6261_" class="st1" d="M518.3,136.9c-0.3-1.2-0.5-2.6,0.2-3.2"/>
	</g>
	<path id="XMLID_6260_" class="st3" d="M484.9,157.7c0.1,0.4,2.2,17.6,2.1,19.1c0,0.2-0.3,0.8-0.6,1.1c-0.4,0.5-1.1,1.1-1.8,1.3
		c-0.1,0-3.3,0.5-3.4,0.5c-1,0.2-2.1-0.3-3.1-2.3c-0.7-1.5-2.5-19.1-2.5-19.5c-0.1-1.2,0.7-1.9,1.7-2.1c0.6-0.2,3.1-0.5,3.8-0.5
		C482.6,155.1,484.5,155.9,484.9,157.7z"/>
	<path id="XMLID_6259_" class="st3" d="M477.4,157.1c0,0-0.6-0.2-0.8,0.2"/>
	<path id="XMLID_6258_" class="st3" d="M486.1,176.4c0,0-0.2,0.7-0.5,0.9"/>
</g>
<g>
	<path class="st3" d="M618.5,164.6c-85.8,27.3-40.8,130.6-40.8,130.6s54.9,64.8,125.2,13.2C773.2,256.7,704.3,137.3,618.5,164.6z
		 M697.6,301.9c-63.3,46.5-112.7-11.9-112.7-11.9s-40.5-92.9,36.7-117.5C698.8,148,760.8,255.5,697.6,301.9z"/>
	<g id="XMLID_3933_">
		<path id="XMLID_3934_" class="st3" d="M739.3,318.1c0,0,0-0.1,0-0.2c0-1.1,0.1-2.1,0.1-2.5c0-0.3,0-1.4,0-2.9c0-1.8,0-3.4,0-3.5
			c-0.1-0.8,0.1-3.5,0-4.1c0,0-0.1-4.7-0.1-5.2c0.1-1.4,0.2-4.5,0.1-5.3c0-0.9-0.2-12.9-0.5-14.8c0-0.1,0-0.2,0-0.3
			c0.1-2.1,0.2-4.1,0.1-5.5c0.3-4.2,0.2-11.9,0-15c0.3-0.3,0.4-13.4,0.3-13.8c0-0.2-0.1-0.3-0.1-0.5c0-2.7-0.1-5.2-0.2-6.7
			c0.3-0.3,0.4-13.4,0.3-13.8c-0.2-1.6-2.5-3.4-6.2-3.5c-0.4,0-7.1,0-15,0c-0.5,0-0.9-0.1-1.3-0.1c-1.7-0.1-137-0.1-138.7,0
			c-0.5,0-0.9,0-1.3,0.1c-7.8,0-14.5,0-15,0c-3.7,0.1-6,1.9-6.2,3.5c0,0.4-0.1,1.5,0,2.4c0,0.7,0,10.4,0,10.5c0,0.2,0,3.9,0.1,7.9
			c0,0.1,0,0.1,0,0.2c0,0.4-0.1,1.5,0,2.4c0,0.7,0,10.4,0,10.5c0,0.3,0,11.8,0.3,16c0,1.5,0,3.4,0.1,5.5c0,0.1,0,0.2,0,0.3
			c-0.2,1.8-0.5,13.8-0.5,14.8c0,0.7,0,10.4,0,10.5c-0.1,0.6,0,8,0,8.1c0,0.3,0,0.8,0,1.4c0,0.6,0,0.9,0,1.1c0,0.3,0,2.1,0,4.1
			c0,0.6,0,1.2,0,1.7c0,0.2,0,0.4,0,0.6c0,2.2,0,4.1,0,4.1c-0.1,0.6,0,8,0,8.1c-0.1,0.7,0.1,2.5,0.1,3.9c0,0.5-0.1,0.9-0.1,1.3
			c0,0.5-0.1,2-0.1,3c0,0.5,0,0.9,0,1c0,0.3,0.1,0.6,0.4,1c-0.2,3.3-0.3,11.1,0,15.4c0,1.6,0.1,3.7,0.2,6c0,0.2,0,0.3,0,0.5
			c-0.2,1.9-0.5,14.1-0.5,15.1c0,0.8,0,1.5,0,1.5c-0.1,0.7,0,6.7,0,7.7c0,0.8,0,1.5,0,1.5c0,0.3,0,0.5,0.2,0.8
			c-0.1,4.1-0.2,8.9-0.2,9.5c0,0.8,0,1.5,0,1.5c-0.1,0.7,0,6.7,0,7.7c0,0.8,0,1.5,0,1.5c-0.2,1,1.1,2.1,5.7,2.8
			c2.8,0.4,29.3,0.1,38.2,0c13.2,0.2,82.7,0.2,95.9,0c8.9,0.1,35.4,0.4,38.2,0c4.6-0.7,5.9-1.8,5.7-2.8c0,0,0-0.7,0-1.5
			c0-1,0-2.1,0-2.5c0-0.3-0.1-0.8-0.1-1.3c0.1-1.4,0.2-4.6,0.1-5.4c0-0.6-0.1-5.4-0.2-9.5c0.2-0.3,0.2-0.5,0.2-0.8c0,0,0-0.7,0-1.5
			c0-1,0-2.1,0-2.5c0-0.3-0.1-0.8-0.1-1.3c0.1-1.4,0.2-4.6,0.1-5.4c0-1-0.2-13.2-0.5-15.1c0-0.1,0-0.3,0-0.5c0.1-2.3,0.2-4.4,0.2-6
			c0.3-4.3,0.4-16,0.3-16.4c0,0,0-0.4,0-1c0-1,0-2.6-0.1-3c0-0.3,0-8.8,0-9.2c0-0.1,0-0.2,0-0.3c0-0.5,0-0.9,0-1.4c0-1,0.1-2,0-2.4
			c0,0,0-0.2,0-0.4c0-1.9,0-3.2,0-3.3c0,0,0-0.4,0-1C739.4,320.1,739.3,318.6,739.3,318.1z"/>
	</g>
</g>
<g>
	<g>
		<path id="XMLID_133_" class="st1" d="M-238.1,118.9c132.7,8.3,295.7,16.3,380.4,21.9c153.4,10.2,379.1,1.5,379.1,1.5l-6.5,64.4
			c0,0-398.1-19.4-481.9-7.5c-60.1,8.5-281.8-11.5-411.2-18.8"/>
		<path class="st1" d="M511.4,145.5c8.5-7.6,23-14,47.4-13.6c11.4,0.2,28.8-1.3,31-0.7c3.8,1.1,24.7,0.4,32.5,2.6
			c1-2.4,2.7-4,4.6-3.5c4.6,1.4,34.6,0,35.4,4.4c0.9,4.4,1.7,8.8-0.4,9.2c0,0-28.9,3.5-36.4,0.5c-0.2,0.2-0.4,0.4-0.7,0.4
			c0,0-16.7,2-28.1,1.6c2.3,4,3.4,8.6,3.8,13.8c5.4,0.3,32.4-7.4,40.8-5.8c0.7-1.6,1.9-2.6,3.4-2.5c5.9,0.4,40.7-9.9,43.3-4.5
			c2.6,5.4,5.2,10.7,2.9,11.8c0,0-33.5,13-43,11c-1.4-0.3-2.6-1-3.6-1.8c-7.6,2.9-32.7,11.8-40.7,10.1c-1.4-0.3-3.1,7.5-2.2,7.8
			c5.4,1.8,36.6,1.1,45.1,5.2c1.2-1.5,2.7-2.2,4.3-1.7c6.1,2.1,46,0.8,47.2,7.2c1.3,6.4,2.5,12.7-0.2,13.3c0,0-39.2,4.4-48.7-0.3
			c-1.4-0.7-2.5-1.7-3.3-2.9c-9,0.9-38,3.4-46.1-0.6c-1.1-0.5-2.8,1.4-2.8,3c0,2.2,0.2,6.1,0.6,6.3c4.8,2.6,35,7.9,42.4,13
			c1.5-1,3-1.4,4.4-0.7c5.5,3,44.1,9.4,44,15.2c-0.1,5.8-0.2,11.6-2.9,11.6c0,0-38.6-3.5-46.9-9.4c-1.2-0.9-2.1-2-2.6-3.1
			c-8.8-0.9-37.3-4.2-44.2-9.2c-1.9-1.4-16.9,0.1-24.8,0c9.4,7.3,22.4,17.2,20.9,20.8c-2.3,5.3-4.5,10.6-6.8,9.7
			c0,0-29.4-15.6-34.2-23.9c-0.3,0.1-0.6,0.1-0.9,0c0,0-30-16-34.4-24.2c-0.3-0.6-0.5-1.1-0.7-1.6c-7-5.7-11-11.7-13.1-17.4"/>
		<path class="st1" d="M508.4,148.4c0.9-1,1.9-1.9,2.9-2.9"/>
		<path id="XMLID_132_" class="st1" d="M480.1,155.5c0,0,35.8-51.4,37.6,0.6"/>
		<path class="st2" d="M691.4,208.6c0,0,6.6,1.9,6.4-2.4c-0.1-4.3,1.9-8.7-4.6-8.5c-6.5,0.2-6.3,4.5-6.3,4.5
			S684.9,206.7,691.4,208.6z"/>
		<path class="st2" d="M679.3,252.6c0,0,6.4,2.3,6.5-2.1c0.1-4.3,2.3-8.6-4.2-8.7c-6.5-0.1-6.5,4.2-6.5,4.2S672.8,250.4,679.3,252.6
			z"/>
		<path class="st2" d="M655.9,141.6c0,0,6.4,2.3,6.5-2.1c0.1-4.3,2.3-8.6-4.2-8.7s-6.5,4.2-6.5,4.2S649.4,139.3,655.9,141.6z"/>
		<path class="st2" d="M683.6,160.9c0,0,8.2,0.5,6.9-4.5c-1.3-5-0.2-10.7-7.7-8.7c-7.6,2-6.2,7-6.2,7S675.4,160.4,683.6,160.9z"/>
		<path class="st2" d="M577,260.9c0,0,5.5,4,6.8-0.2c1.3-4.1,4.6-7.5-1.6-9.5c-6.1-1.9-7.4,2.2-7.4,2.2S571.5,257,577,260.9z"/>
		<path id="XMLID_131_" class="st1" d="M586.1,152.1c0,0-13.3-8.2-0.4-9.4"/>
		<path id="XMLID_130_" class="st1" d="M585,173.9c0,0-13.3-8.2-0.4-9.4"/>
		<path id="XMLID_129_" class="st1" d="M585.4,197.1c0,0-13.3-8.2-0.4-9.4"/>
		<path id="XMLID_128_" class="st1" d="M584.3,218.8c0,0-13.3-8.2-0.4-9.4"/>
		<path id="XMLID_127_" class="st1" d="M557.1,240c0,0-24.4,12.5-14.4-8"/>
		<path id="XMLID_126_" class="st1" d="M627.2,233.3c-0.4-1.6,0.9-3,5.6-3.4"/>
		<path id="XMLID_125_" class="st1" d="M637.2,201.2c0.7-1.6,1.6-3.5,2.8-5.7"/>
		<path id="XMLID_124_" class="st1" d="M637.4,157.4"/>
		<path id="XMLID_123_" class="st1" d="M631.8,160.7c-0.3-1.2,0.3-2.2,2.6-2.9"/>
		<path id="XMLID_122_" class="st1" d="M620.9,137.3"/>
		<path id="XMLID_121_" class="st1" d="M617.2,139.7c-0.3-1.2-0.5-2.6,0.2-3.2"/>
		<path id="XMLID_120_" class="st1" d="M668.9,248.1c-1.3-0.9-1.4-2.7,1.7-6.3"/>
		<path id="XMLID_119_" class="st1" d="M681,205.5c-0.1-1.7-0.1-3.8,0-6.4"/>
		<path id="XMLID_118_" class="st1" d="M673.2,159.7c-1-0.7-1.3-1.8-0.2-3.9"/>
		<path id="XMLID_117_" class="st1" d="M647.9,138.1c-0.3-1.2-0.5-2.6,0.2-3.2"/>
	</g>
	<path id="XMLID_116_" class="st3" d="M614.5,158.9c0.1,0.4,2.2,17.6,2.1,19.1c0,0.2-0.3,0.8-0.6,1.1c-0.4,0.5-1.1,1.1-1.8,1.3
		c-0.1,0-3.3,0.5-3.4,0.5c-1,0.2-2.1-0.3-3.1-2.3c-0.7-1.5-2.5-19.1-2.5-19.5c-0.1-1.2,0.7-1.9,1.7-2.1c0.6-0.2,3.1-0.5,3.8-0.5
		C612.2,156.3,614.1,157.2,614.5,158.9z"/>
	<path id="XMLID_115_" class="st3" d="M607,158.3c0,0-0.6-0.2-0.8,0.2"/>
	<path id="XMLID_114_" class="st3" d="M615.7,177.6c0,0-0.2,0.7-0.5,0.9"/>
</g>
<g>
	<path class="st4" d="M709.7,274.7c-2.7-5.7-9.9-10-16.3-7.8c-3.6,1.3-6.1,4.5-9.1,6.7c-1.6,1.2-3.5,2.2-5.5,1.7
		c-3.4-0.8-4.9-4.8-5.6-7.8c-1.2-5.1-0.9-10.4-2.4-15.4c-1.3-4.2-4.2-8.1-8.8-8.7c-3.6-0.5-7.5,1.3-8.1,5.2c-0.6,3.9,2.2,7.5,4,10.7
		c1.2,2.1,1.7,4.3,1.4,6.7c-0.3,1.8-1.1,3.7-2.8,4.2l-1.9,0.5c-2.6,1-5.9,0.4-8.4-1c-4.7-2.6-6.3-7.8-7.2-12.8
		c-0.8-5-0.9-10.1-2.8-14.8c-1.6-3.9-4.4-7.8-8.7-9c-8.2-2.2-14,6-16.7,12.5c-1.5,3.5-3.3,8-2.2,11.8c0.6,2.1,2.3,3.5,4.2,4.4
		c2.6,1.2,5.3,2,7.8,3.4c5,2.8,9.3,7.7,7.7,13.8c-0.6,2.3-2.1,4.4-4.4,5.2c-2.5,0.9-5.1,0.1-7.3-1.1c-3.9-2-7.2-5-11.9-4.6
		c-3.1,0.3-6.6,2.2-5.7,5.8c1,4.4,6.8,4.5,10.3,5.4c2.1,0.5,5,1.6,5.8,3.9c1.4,3.7-3.2,5.5-5.8,6.6c-7.1,3.1-11.1,10.5-11.2,18.1
		c-0.1,7.7,4.1,15.1,11.6,17.6c7.3,2.4,15.9,0.1,21.3-5.3c3.2-3.2,4.3-7.1,5.2-11.4c0.6-2.7,1.3-6,3.9-7.4c2-1.2,5.8-1.5,6.8,1.2
		c0.8,2.2-1,4.4-0.1,6.7c0.8,1.7,2.6,2.8,4.3,3.5c4.1,1.7,9.4,3,13.8,2c3.3-0.7,6.5-3.4,7-6.9c0.7-5.1-4.9-6.8-7.2-10.3
		c-2.4-3.7-1.9-9,0.7-12.5c3-4,7.9-4.4,12.4-3.4c4.3,0.9,8.3,2.9,12.7,3.6c4,0.7,8-0.1,11.5-2C708.5,289.9,713.2,282,709.7,274.7z"
		/>
	<path class="st3" d="M620.5,228.6c-85.8,27.3-40.8,130.6-40.8,130.6s54.9,64.8,125.2,13.2C775.2,320.7,706.3,201.2,620.5,228.6z
		 M699.5,365.9C636.3,412.4,586.8,354,586.8,354s-40.5-92.9,36.7-117.5C700.8,212,762.8,319.5,699.5,365.9z"/>
	<g id="XMLID_1_">
		<path id="XMLID_2_" class="st3" d="M741.3,382.1c0,0,0-0.1,0-0.2c0-1.1,0.1-2.1,0.1-2.5c0-0.3,0-1.4,0-2.9c0-1.8,0-3.4,0-3.5
			c-0.1-0.8,0.1-3.5,0-4.1c0,0-0.1-4.7-0.1-5.2c0.1-1.4,0.2-4.5,0.1-5.3c0-0.9-0.2-12.9-0.5-14.8c0-0.1,0-0.2,0-0.3
			c0.1-2.1,0.2-4.1,0.1-5.5c0.3-4.2,0.2-11.9,0-15c0.3-0.3,0.4-13.4,0.3-13.8c0-0.2-0.1-0.3-0.1-0.5c0-2.7-0.1-5.2-0.2-6.7
			c0.3-0.3,0.4-13.4,0.3-13.8c-0.2-1.6-2.5-3.4-6.2-3.5c-0.4,0-7.1,0-15,0c-0.5,0-0.9-0.1-1.3-0.1c-1.7-0.1-137-0.1-138.7,0
			c-0.5,0-0.9,0-1.3,0.1c-7.8,0-14.5,0-15,0c-3.7,0.1-6,1.9-6.2,3.5c0,0.4-0.1,1.5,0,2.4c0,0.7,0,10.4,0,10.5c0,0.2,0,3.9,0.1,7.9
			c0,0.1,0,0.1,0,0.2c0,0.4-0.1,1.5,0,2.4c0,0.7,0,10.4,0,10.5c0,0.3,0,11.8,0.3,16c0,1.5,0,3.4,0.1,5.5c0,0.1,0,0.2,0,0.3
			c-0.2,1.8-0.5,13.8-0.5,14.8c0,0.7,0,10.4,0,10.5c-0.1,0.6,0,8,0,8.1c0,0.3,0,0.8,0,1.4c0,0.6,0,0.9,0,1.1c0,0.3,0,2.1,0,4.1
			c0,0.6,0,1.2,0,1.7c0,0.2,0,0.4,0,0.6c0,2.2,0,4.1,0,4.1c-0.1,0.6,0,8,0,8.1c-0.1,0.7,0.1,2.5,0.1,3.9c0,0.5-0.1,0.9-0.1,1.3
			c0,0.5-0.1,2-0.1,3c0,0.5,0,0.9,0,1c0,0.3,0.1,0.6,0.4,1c-0.2,3.3-0.3,11.1,0,15.4c0,1.6,0.1,3.7,0.2,6c0,0.2,0,0.3,0,0.5
			c-0.2,1.9-0.5,14.1-0.5,15.1c0,0.8,0,1.5,0,1.5c-0.1,0.7,0,6.7,0,7.7c0,0.8,0,1.5,0,1.5c0,0.3,0,0.5,0.2,0.8
			c-0.1,4.1-0.2,8.9-0.2,9.5c0,0.8,0,1.5,0,1.5c-0.1,0.7,0,6.7,0,7.7c0,0.8,0,1.5,0,1.5c-0.2,1,1.1,2.1,5.7,2.8
			c2.8,0.4,29.3,0.1,38.2,0c13.2,0.2,82.7,0.2,95.9,0c8.9,0.1,35.4,0.4,38.2,0c4.6-0.7,5.9-1.8,5.7-2.8c0,0,0-0.7,0-1.5
			c0-1,0-2.1,0-2.5c0-0.3-0.1-0.8-0.1-1.3c0.1-1.4,0.2-4.6,0.1-5.4c0-0.6-0.1-5.4-0.2-9.5c0.2-0.3,0.2-0.5,0.2-0.8c0,0,0-0.7,0-1.5
			c0-1,0-2.1,0-2.5c0-0.3-0.1-0.8-0.1-1.3c0.1-1.4,0.2-4.6,0.1-5.4c0-1-0.2-13.2-0.5-15.1c0-0.1,0-0.3,0-0.5c0.1-2.3,0.2-4.4,0.2-6
			c0.3-4.3,0.4-16,0.3-16.4c0,0,0-0.4,0-1c0-1,0-2.6-0.1-3c0-0.3,0-8.8,0-9.2c0-0.1,0-0.2,0-0.3c0-0.5,0-0.9,0-1.4c0-1,0.1-2,0-2.4
			c0,0,0-0.2,0-0.4c0-1.9,0-3.2,0-3.3c0,0,0-0.4,0-1C741.3,384.1,741.3,382.6,741.3,382.1z"/>
	</g>
</g>
<g>
	<path class="st4" d="M730.9,336c-3.6-7.5-13-13.1-21.2-10.2c-4.7,1.7-7.9,5.9-11.8,8.8c-2.1,1.5-4.6,2.9-7.2,2.3
		c-4.5-1-6.4-6.2-7.3-10.2c-1.6-6.6-1.1-13.5-3.2-20.1c-1.7-5.5-5.4-10.6-11.5-11.3c-4.7-0.6-9.8,1.7-10.6,6.8
		c-0.8,5.1,2.8,9.8,5.2,14c1.5,2.7,2.2,5.6,1.8,8.7c-0.3,2.4-1.5,4.8-3.6,5.5L659,331c-3.4,1.3-7.7,0.5-11-1.4
		c-6.1-3.4-8.3-10.2-9.3-16.7c-1.1-6.5-1.2-13.2-3.7-19.4c-2.1-5.1-5.7-10.2-11.3-11.8c-10.7-2.9-18.2,7.8-21.8,16.2
		c-1.9,4.5-4.3,10.4-2.9,15.3c0.8,2.7,2.9,4.5,5.4,5.7c3.4,1.6,6.9,2.6,10.2,4.4c6.6,3.6,12.2,10,10.1,18c-0.8,3-2.7,5.8-5.7,6.8
		c-3.2,1.2-6.6,0.1-9.6-1.4c-5.1-2.6-9.4-6.5-15.5-6c-4,0.4-8.6,2.9-7.5,7.6c1.4,5.8,8.9,5.9,13.5,7.1c2.8,0.7,6.5,2.1,7.6,5.1
		c1.9,4.8-4.2,7.1-7.6,8.6c-9.2,4.1-14.5,13.7-14.6,23.6c-0.2,10.1,5.3,19.7,15.2,23c9.5,3.1,20.8,0.2,27.8-6.9
		c4.2-4.2,5.6-9.2,6.8-14.9c0.7-3.5,1.7-7.8,5-9.7c2.6-1.5,7.6-1.9,8.9,1.5c1.1,2.8-1.4,5.8-0.1,8.7c1,2.3,3.4,3.6,5.6,4.5
		c5.3,2.2,12.2,3.9,18,2.6c4.3-1,8.5-4.5,9.1-9c0.9-6.6-6.4-8.9-9.4-13.5c-3.2-4.9-2.5-11.7,0.9-16.3c3.9-5.2,10.3-5.7,16.2-4.4
		c5.6,1.2,10.9,3.7,16.5,4.7c5.2,0.9,10.4-0.1,15-2.6C729.3,355.9,735.5,345.5,730.9,336z"/>
	<path class="st3" d="M621.4,302.3c-85.8,27.3-40.8,130.6-40.8,130.6s54.9,64.8,125.2,13.2C776.1,394.4,707.2,275,621.4,302.3z
		 M700.4,439.6c-63.3,46.5-112.7-11.9-112.7-11.9s-40.5-92.9,36.7-117.5C701.6,285.7,763.6,393.2,700.4,439.6z"/>
	<g id="XMLID_3_">
		<path id="XMLID_4_" class="st3" d="M742.1,455.8c0,0,0-0.1,0-0.2c0-1.1,0.1-2.1,0.1-2.5c0-0.3,0-1.4,0-2.9c0-1.8,0-3.4,0-3.5
			c-0.1-0.8,0.1-3.5,0-4.1c0,0-0.1-4.7-0.1-5.2c0.1-1.4,0.2-4.5,0.1-5.3c0-0.9-0.2-12.9-0.5-14.8c0-0.1,0-0.2,0-0.3
			c0.1-2.1,0.2-4.1,0.1-5.5c0.3-4.2,0.2-11.9,0-15c0.3-0.3,0.4-13.4,0.3-13.8c0-0.2-0.1-0.3-0.1-0.5c0-2.7-0.1-5.2-0.2-6.7
			c0.3-0.3,0.4-13.4,0.3-13.8c-0.2-1.6-2.5-3.4-6.2-3.5c-0.4,0-7.1,0-15,0c-0.5,0-0.9-0.1-1.3-0.1c-1.7-0.1-137-0.1-138.7,0
			c-0.5,0-0.9,0-1.3,0.1c-7.8,0-14.5,0-15,0c-3.7,0.1-6,1.9-6.2,3.5c0,0.4-0.1,1.5,0,2.4c0,0.7,0,10.4,0,10.5c0,0.2,0,3.9,0.1,7.9
			c0,0.1,0,0.1,0,0.2c0,0.4-0.1,1.5,0,2.4c0,0.7,0,10.4,0,10.5c0,0.3,0,11.8,0.3,16c0,1.5,0,3.4,0.1,5.5c0,0.1,0,0.2,0,0.3
			c-0.2,1.8-0.5,13.8-0.5,14.8c0,0.7,0,10.4,0,10.5c-0.1,0.6,0,8,0,8.1c0,0.3,0,0.8,0,1.4c0,0.6,0,0.9,0,1.1c0,0.3,0,2.1,0,4.1
			c0,0.6,0,1.2,0,1.7c0,0.2,0,0.4,0,0.6c0,2.2,0,4.1,0,4.1c-0.1,0.6,0,8,0,8.1c-0.1,0.7,0.1,2.5,0.1,3.9c0,0.5-0.1,0.9-0.1,1.3
			c0,0.5-0.1,2-0.1,3c0,0.5,0,0.9,0,1c0,0.3,0.1,0.6,0.4,1c-0.2,3.3-0.3,11.1,0,15.4c0,1.6,0.1,3.7,0.2,6c0,0.2,0,0.3,0,0.5
			c-0.2,1.9-0.5,14.1-0.5,15.1c0,0.8,0,1.5,0,1.5c-0.1,0.7,0,6.7,0,7.7c0,0.8,0,1.5,0,1.5c0,0.3,0,0.5,0.2,0.8
			c-0.1,4.1-0.2,8.9-0.2,9.5c0,0.8,0,1.5,0,1.5c-0.1,0.7,0,6.7,0,7.7c0,0.8,0,1.5,0,1.5c-0.2,1,1.1,2.1,5.7,2.8
			c2.8,0.4,29.3,0.1,38.2,0c13.2,0.2,82.7,0.2,95.9,0c8.9,0.1,35.4,0.4,38.2,0c4.6-0.7,5.9-1.8,5.7-2.8c0,0,0-0.7,0-1.5
			c0-1,0-2.1,0-2.5c0-0.3-0.1-0.8-0.1-1.3c0.1-1.4,0.2-4.6,0.1-5.4c0-0.6-0.1-5.4-0.2-9.5c0.2-0.3,0.2-0.5,0.2-0.8c0,0,0-0.7,0-1.5
			c0-1,0-2.1,0-2.5c0-0.3-0.1-0.8-0.1-1.3c0.1-1.4,0.2-4.6,0.1-5.4c0-1-0.2-13.2-0.5-15.1c0-0.1,0-0.3,0-0.5c0.1-2.3,0.2-4.4,0.2-6
			c0.3-4.3,0.4-16,0.3-16.4c0,0,0-0.4,0-1c0-1,0-2.6-0.1-3c0-0.3,0-8.8,0-9.2c0-0.1,0-0.2,0-0.3c0-0.5,0-0.9,0-1.4c0-1,0.1-2,0-2.4
			c0,0,0-0.2,0-0.4c0-1.9,0-3.2,0-3.3c0,0,0-0.4,0-1C742.2,457.8,742.1,456.3,742.1,455.8z"/>
	</g>
</g>
<g>
	<path class="st4" d="M812.7,366.8c-5.6-11.8-20.5-20.6-33.5-16c-7.4,2.6-12.5,9.3-18.7,13.8c-3.3,2.4-7.2,4.5-11.4,3.6
		c-7-1.6-10.1-9.8-11.6-16c-2.5-10.4-1.8-21.4-5-31.7c-2.7-8.7-8.6-16.7-18.2-17.9c-7.5-0.9-15.5,2.7-16.7,10.8
		c-1.3,8,4.5,15.5,8.2,22.1c2.4,4.3,3.5,8.9,2.8,13.8c-0.5,3.8-2.3,7.6-5.7,8.7l-3.9,1c-5.4,2-12.1,0.7-17.3-2.2
		c-9.6-5.4-13.1-16.2-14.8-26.4c-1.7-10.2-1.9-20.8-5.8-30.6c-3.3-8.1-9-16.2-17.9-18.6c-16.9-4.6-28.7,12.3-34.5,25.7
		c-3.1,7.1-6.8,16.4-4.5,24.2c1.3,4.3,4.6,7.2,8.6,9.1c5.3,2.5,11,4.1,16.1,7c10.4,5.7,19.2,15.9,15.9,28.4c-1.3,4.7-4.3,9.1-9,10.8
		c-5.1,1.8-10.5,0.1-15.1-2.3c-8.1-4.1-14.9-10.3-24.5-9.4c-6.3,0.6-13.6,4.6-11.8,12c2.2,9.1,14.1,9.4,21.3,11.2
		c4.4,1.1,10.2,3.4,12,8c2.9,7.6-6.7,11.3-11.9,13.6c-14.6,6.4-22.9,21.6-23.1,37.2c-0.3,15.9,8.4,31.2,24,36.3
		c15,4.9,32.8,0.3,43.9-10.9c6.6-6.7,8.9-14.6,10.7-23.5c1.1-5.5,2.7-12.3,7.9-15.3c4.1-2.4,11.9-3,14.1,2.4
		c1.8,4.5-2.1,9.1-0.1,13.7c1.6,3.6,5.3,5.7,8.8,7.1c8.4,3.4,19.3,6.1,28.4,4.1c6.8-1.5,13.4-7.1,14.4-14.3
		c1.5-10.5-10.1-14-14.9-21.3c-5-7.7-3.9-18.5,1.5-25.8c6.1-8.2,16.2-9.1,25.5-7c8.8,2,17.2,5.9,26.1,7.4c8.2,1.4,16.4-0.1,23.7-4
		C810.2,398.2,819.9,381.8,812.7,366.8z"/>
	<path class="st3" d="M620.9,370.3c-85.8,27.3-40.8,130.6-40.8,130.6s54.9,64.8,125.2,13.2C775.6,462.4,706.7,343,620.9,370.3z
		 M700,507.7c-63.3,46.5-112.7-11.9-112.7-11.9s-40.5-92.9,36.7-117.5C701.2,353.7,763.2,461.2,700,507.7z"/>
	<g id="XMLID_134_">
		<path id="XMLID_135_" class="st3" d="M741.7,523.9c0,0,0-0.1,0-0.2c0-1.1,0.1-2.1,0.1-2.5c0-0.3,0-1.4,0-2.9c0-1.8,0-3.4,0-3.5
			c-0.1-0.8,0.1-3.5,0-4.1c0,0-0.1-4.7-0.1-5.2c0.1-1.4,0.2-4.5,0.1-5.3c0-0.9-0.2-12.9-0.5-14.8c0-0.1,0-0.2,0-0.3
			c0.1-2.1,0.2-4.1,0.1-5.5c0.3-4.2,0.2-11.9,0-15c0.3-0.3,0.4-13.4,0.3-13.8c0-0.2-0.1-0.3-0.1-0.5c0-2.7-0.1-5.2-0.2-6.7
			c0.3-0.3,0.4-13.4,0.3-13.8c-0.2-1.6-2.5-3.4-6.2-3.5c-0.4,0-7.1,0-15,0c-0.5,0-0.9-0.1-1.3-0.1c-1.7-0.1-137-0.1-138.7,0
			c-0.5,0-0.9,0-1.3,0.1c-7.8,0-14.5,0-15,0c-3.7,0.1-6,1.9-6.2,3.5c0,0.4-0.1,1.5,0,2.4c0,0.7,0,10.4,0,10.5c0,0.2,0,3.9,0.1,7.9
			c0,0.1,0,0.1,0,0.2c0,0.4-0.1,1.5,0,2.4c0,0.7,0,10.4,0,10.5c0,0.3,0,11.8,0.3,16c0,1.5,0,3.4,0.1,5.5c0,0.1,0,0.2,0,0.3
			c-0.2,1.8-0.5,13.8-0.5,14.8c0,0.7,0,10.4,0,10.5c-0.1,0.6,0,8,0,8.1c0,0.3,0,0.8,0,1.4c0,0.6,0,0.9,0,1.1c0,0.3,0,2.1,0,4.1
			c0,0.6,0,1.2,0,1.7c0,0.2,0,0.4,0,0.6c0,2.2,0,4.1,0,4.1c-0.1,0.6,0,8,0,8.1c-0.1,0.7,0.1,2.5,0.1,3.9c0,0.5-0.1,0.9-0.1,1.3
			c0,0.5-0.1,2-0.1,3c0,0.5,0,0.9,0,1c0,0.3,0.1,0.6,0.4,1c-0.2,3.3-0.3,11.1,0,15.4c0,1.6,0.1,3.7,0.2,6c0,0.2,0,0.3,0,0.5
			c-0.2,1.9-0.5,14.1-0.5,15.1c0,0.8,0,1.5,0,1.5c-0.1,0.7,0,6.7,0,7.7c0,0.8,0,1.5,0,1.5c0,0.3,0,0.5,0.2,0.8
			c-0.1,4.1-0.2,8.9-0.2,9.5c0,0.8,0,1.5,0,1.5c-0.1,0.7,0,6.7,0,7.7c0,0.8,0,1.5,0,1.5c-0.2,1,1.1,2.1,5.7,2.8
			c2.8,0.4,29.3,0.1,38.2,0c13.2,0.2,82.7,0.2,95.9,0c8.9,0.1,35.4,0.4,38.2,0c4.6-0.7,5.9-1.8,5.7-2.8c0,0,0-0.7,0-1.5
			c0-1,0-2.1,0-2.5c0-0.3-0.1-0.8-0.1-1.3c0.1-1.4,0.2-4.6,0.1-5.4c0-0.6-0.1-5.4-0.2-9.5c0.2-0.3,0.2-0.5,0.2-0.8c0,0,0-0.7,0-1.5
			c0-1,0-2.1,0-2.5c0-0.3-0.1-0.8-0.1-1.3c0.1-1.4,0.2-4.6,0.1-5.4c0-1-0.2-13.2-0.5-15.1c0-0.1,0-0.3,0-0.5c0.1-2.3,0.2-4.4,0.2-6
			c0.3-4.3,0.4-16,0.3-16.4c0,0,0-0.4,0-1c0-1,0-2.6-0.1-3c0-0.3,0-8.8,0-9.2c0-0.1,0-0.2,0-0.3c0-0.5,0-0.9,0-1.4c0-1,0.1-2,0-2.4
			c0,0,0-0.2,0-0.4c0-1.9,0-3.2,0-3.3c0,0,0-0.4,0-1C741.8,525.9,741.7,524.3,741.7,523.9z"/>
	</g>
</g>
<g>
	<path class="st4" d="M813.8,463.9c-5.6-11.8-20.5-20.6-33.5-16c-7.4,2.6-12.5,9.3-18.7,13.8c-3.3,2.4-7.2,4.5-11.4,3.6
		c-7-1.6-10.1-9.8-11.6-16c-2.5-10.4-1.8-21.4-5-31.7c-2.7-8.7-8.6-16.7-18.2-17.9c-7.5-0.9-15.5,2.7-16.7,10.8
		c-1.3,8,4.5,15.5,8.2,22.1c2.4,4.3,3.5,8.9,2.8,13.8c-0.5,3.8-2.3,7.6-5.7,8.7l-3.9,1c-5.4,2-12.1,0.7-17.3-2.2
		c-9.6-5.4-13.1-16.2-14.8-26.4c-1.7-10.2-1.9-20.8-5.8-30.6c-3.3-8.1-9-16.2-17.9-18.6c-16.9-4.6-28.7,12.3-34.5,25.7
		c-3.1,7.1-6.8,16.4-4.5,24.2c1.3,4.3,4.6,7.2,8.6,9.1c5.3,2.5,11,4.1,16.1,7c10.4,5.7,19.2,15.9,15.9,28.4c-1.3,4.7-4.3,9.1-9,10.8
		c-5.1,1.8-10.5,0.1-15.1-2.3c-8.1-4.1-14.9-10.3-24.5-9.4c-6.3,0.6-13.6,4.6-11.8,12c2.2,9.1,14.1,9.4,21.3,11.2
		c4.4,1.1,10.2,3.4,12,8c2.9,7.6-6.7,11.3-11.9,13.6c-14.6,6.4-22.9,21.6-23.1,37.2c-0.3,15.9,8.4,31.2,24,36.3
		c15,4.9,32.8,0.3,43.9-10.9c6.6-6.7,8.9-14.6,10.7-23.5c1.1-5.5,2.7-12.3,7.9-15.3c4.1-2.4,11.9-3,14.1,2.4
		c1.8,4.5-2.1,9.1-0.1,13.7c1.6,3.6,5.3,5.7,8.8,7.1c8.4,3.4,19.3,6.1,28.4,4.1c6.8-1.5,13.4-7.1,14.4-14.3
		c1.5-10.5-10.1-14-14.9-21.3c-5-7.7-3.9-18.5,1.5-25.8c6.1-8.2,16.2-9.1,25.5-7c8.8,2,17.2,5.9,26.1,7.4c8.2,1.4,16.4-0.1,23.7-4
		C811.2,495.4,820.9,478.9,813.8,463.9z"/>
	<path class="st3" d="M622,467.4C536.2,494.8,581.2,598,581.2,598s54.9,64.8,125.2,13.2C776.7,559.6,707.8,440.1,622,467.4z
		 M701,604.8c-63.3,46.5-112.7-11.9-112.7-11.9S547.8,500,625,475.4C702.2,450.8,764.2,558.3,701,604.8z"/>
	<g id="XMLID_140_">
		<path id="XMLID_141_" class="st3" d="M742.7,621c0,0,0-0.1,0-0.2c0-1.1,0.1-2.1,0.1-2.5c0-0.3,0-1.4,0-2.9c0-1.8,0-3.4,0-3.5
			c-0.1-0.8,0.1-3.5,0-4.1c0,0-0.1-4.7-0.1-5.2c0.1-1.4,0.2-4.5,0.1-5.3c0-0.9-0.2-12.9-0.5-14.8c0-0.1,0-0.2,0-0.3
			c0.1-2.1,0.2-4.1,0.1-5.5c0.3-4.2,0.2-11.9,0-15c0.3-0.3,0.4-13.4,0.3-13.8c0-0.2-0.1-0.3-0.1-0.5c0-2.7-0.1-5.2-0.2-6.7
			c0.3-0.3,0.4-13.4,0.3-13.8c-0.2-1.6-2.5-3.4-6.2-3.5c-0.4,0-7.1,0-15,0c-0.5,0-0.9-0.1-1.3-0.1c-1.7-0.1-137-0.1-138.7,0
			c-0.5,0-0.9,0-1.3,0.1c-7.8,0-14.5,0-15,0c-3.7,0.1-6,1.9-6.2,3.5c0,0.4-0.1,1.5,0,2.4c0,0.7,0,10.4,0,10.5c0,0.2,0,3.9,0.1,7.9
			c0,0.1,0,0.1,0,0.2c0,0.4-0.1,1.5,0,2.4c0,0.7,0,10.4,0,10.5c0,0.3,0,11.8,0.3,16c0,1.5,0,3.4,0.1,5.5c0,0.1,0,0.2,0,0.3
			c-0.2,1.8-0.5,13.8-0.5,14.8c0,0.7,0,10.4,0,10.5c-0.1,0.6,0,8,0,8.1c0,0.3,0,0.8,0,1.4c0,0.6,0,0.9,0,1.1c0,0.3,0,2.1,0,4.1
			c0,0.6,0,1.2,0,1.7c0,0.2,0,0.4,0,0.6c0,2.2,0,4.1,0,4.1c-0.1,0.6,0,8,0,8.1c-0.1,0.7,0.1,2.5,0.1,3.9c0,0.5-0.1,0.9-0.1,1.3
			c0,0.5-0.1,2-0.1,3c0,0.5,0,0.9,0,1c0,0.3,0.1,0.6,0.4,1c-0.2,3.3-0.3,11.1,0,15.4c0,1.6,0.1,3.7,0.2,6c0,0.2,0,0.3,0,0.5
			c-0.2,1.9-0.5,14.1-0.5,15.1c0,0.8,0,1.5,0,1.5c-0.1,0.7,0,6.7,0,7.7c0,0.8,0,1.5,0,1.5c0,0.3,0,0.5,0.2,0.8
			c-0.1,4.1-0.2,8.9-0.2,9.5c0,0.8,0,1.5,0,1.5c-0.1,0.7,0,6.7,0,7.7c0,0.8,0,1.5,0,1.5c-0.2,1,1.1,2.1,5.7,2.8
			c2.8,0.4,29.3,0.1,38.2,0c13.2,0.2,82.7,0.2,95.9,0c8.9,0.1,35.4,0.4,38.2,0c4.6-0.7,5.9-1.8,5.7-2.8c0,0,0-0.7,0-1.5
			c0-1,0-2.1,0-2.5c0-0.3-0.1-0.8-0.1-1.3c0.1-1.4,0.2-4.6,0.1-5.4c0-0.6-0.1-5.4-0.2-9.5c0.2-0.3,0.2-0.5,0.2-0.8c0,0,0-0.7,0-1.5
			c0-1,0-2.1,0-2.5c0-0.3-0.1-0.8-0.1-1.3c0.1-1.4,0.2-4.6,0.1-5.4c0-1-0.2-13.2-0.5-15.1c0-0.1,0-0.3,0-0.5c0.1-2.3,0.2-4.4,0.2-6
			c0.3-4.3,0.4-16,0.3-16.4c0,0,0-0.4,0-1c0-1,0-2.6-0.1-3c0-0.3,0-8.8,0-9.2c0-0.1,0-0.2,0-0.3c0-0.5,0-0.9,0-1.4c0-1,0.1-2,0-2.4
			c0,0,0-0.2,0-0.4c0-1.9,0-3.2,0-3.3c0,0,0-0.4,0-1C742.8,623,742.7,621.4,742.7,621z"/>
	</g>
</g>
<g>
	<path class="st4" d="M795.1,404.5c-7.8-10.5-24-16.4-35.9-9.4c-6.8,4-10.5,11.5-15.7,17.1c-2.7,3-6.2,5.8-10.5,5.7
		c-7.2-0.2-11.7-7.7-14.4-13.5c-4.4-9.8-5.8-20.7-10.9-30.1c-4.3-8-11.6-14.8-21.2-14.1c-7.5,0.5-14.7,5.6-14.4,13.7
		c0.3,8.1,7.3,14.4,12.2,20.1c3.2,3.7,5.1,8,5.4,13c0.2,3.8-0.8,7.9-4,9.7l-3.6,1.7c-5,3-11.7,3-17.4,1.2
		c-10.5-3.4-15.9-13.4-19.5-23.1c-3.6-9.7-5.8-20.1-11.5-28.9c-4.7-7.4-11.9-14.1-21.1-14.8c-17.4-1.3-25.9,17.5-29,31.7
		c-1.7,7.6-3.6,17.4,0.2,24.6c2.1,4,5.9,6.1,10.2,7.3c5.7,1.5,11.5,2,17.2,3.8c11.3,3.7,21.9,11.9,21,24.9
		c-0.3,4.9-2.5,9.7-6.8,12.3c-4.7,2.8-10.2,2.1-15.2,0.6c-8.7-2.5-16.5-7.3-25.8-4.6c-6.1,1.8-12.5,7.1-9.3,14
		c3.8,8.5,15.6,6.5,23,6.9c4.6,0.2,10.7,1.4,13.3,5.6c4.3,6.9-4.4,12.3-9.1,15.6c-13.1,9.1-18.3,25.5-15.6,40.9
		c2.8,15.7,14.1,29,30.4,31c15.7,2,32.3-5.9,41-19c5.2-7.8,5.9-16,6.1-25.2c0.1-5.6,0.3-12.6,4.9-16.6c3.6-3.1,11.1-5.2,14.3-0.3
		c2.6,4.1-0.4,9.4,2.5,13.5c2.2,3.2,6.3,4.6,10,5.3c8.9,1.8,20.1,2.4,28.6-1.4c6.4-2.8,11.8-9.5,11.4-16.8
		c-0.6-10.5-12.6-11.8-18.7-18.1c-6.4-6.6-7.4-17.5-3.4-25.6c4.4-9.2,14.2-12,23.7-11.7c9.1,0.2,18,2.5,27,2.3
		c8.3-0.2,16.1-3.2,22.5-8.4C798.6,435.8,804.9,417.8,795.1,404.5z"/>
	<path class="st3" d="M607.4,444.4c-79,43.1-15.2,135.9-15.2,135.9s66.2,53.2,125.4-10.8C776.8,505.4,686.5,401.3,607.4,444.4z
		 M711.1,564.2c-53.3,57.6-112.9,9.8-112.9,9.8s-57.4-83.5,13.7-122.3C683.1,412.8,764.4,506.6,711.1,564.2z"/>
	<g id="XMLID_138_">
		<path id="XMLID_139_" class="st3" d="M755.1,572.2c0,0,0-0.1-0.1-0.2c-0.2-1.1-0.3-2.1-0.4-2.5c0-0.3-0.3-1.4-0.6-2.8
			c-0.3-1.8-0.6-3.3-0.7-3.5c-0.2-0.8-0.5-3.4-0.7-4c0,0-1-4.6-1.1-5.1c-0.2-1.4-0.7-4.5-0.9-5.2c-0.2-0.9-2.7-12.6-3.2-14.4
			c0-0.1-0.1-0.2-0.1-0.3c-0.3-2.1-0.6-4-0.9-5.5c-0.5-4.2-2.1-11.7-2.9-14.8c0.2-0.4-2.2-13.3-2.3-13.7c-0.1-0.2-0.1-0.3-0.2-0.5
			c-0.5-2.6-1.1-5-1.5-6.5c0.2-0.4-2.2-13.3-2.3-13.7c-0.5-1.5-3.1-2.8-6.7-2.3c-0.4,0.1-7,1.4-14.7,2.9c-0.5,0-0.9,0.1-1.3,0.2
			c-1.7,0.2-134.5,25.9-136.2,26.3c-0.4,0.1-0.8,0.2-1.3,0.3c-7.7,1.5-14.3,2.7-14.7,2.8c-3.6,0.8-5.5,3-5.4,4.6
			c0,0.4,0.2,1.5,0.4,2.4c0.1,0.7,2,10.2,2,10.3c0,0.2,0.7,3.9,1.6,7.8c0,0.1,0,0.1,0,0.2c0,0.4,0.2,1.5,0.4,2.4
			c0.1,0.7,2,10.2,2,10.3c0,0.3,2.3,11.6,3.4,15.6c0.3,1.5,0.7,3.3,1.2,5.4c0,0.1,0,0.2,0,0.3c0.2,1.9,2.2,13.7,2.4,14.6
			c0.1,0.7,2,10.2,2,10.3c0,0.6,1.5,7.9,1.5,7.9c0,0.3,0.1,0.8,0.3,1.3c0.1,0.6,0.2,0.9,0.2,1.1c0.1,0.3,0.4,2.1,0.8,4
			c0.1,0.5,0.2,1.2,0.3,1.6c0,0.2,0.1,0.4,0.1,0.5c0.4,2.1,0.8,4,0.8,4c0,0.6,1.5,7.9,1.5,7.9c0,0.7,0.5,2.4,0.9,3.8
			c0.1,0.5,0.1,0.9,0.1,1.3c0.1,0.5,0.3,2,0.5,3c0.1,0.5,0.2,0.9,0.2,0.9c0,0.3,0.2,0.6,0.5,0.9c0.4,3.2,1.8,11,2.9,15.1
			c0.3,1.6,0.8,3.6,1.3,5.8c0,0.2,0,0.3,0,0.5c0.2,1.9,2.2,14,2.4,14.9c0.1,0.7,0.3,1.4,0.3,1.5c0,0.7,1.2,6.6,1.4,7.6
			c0.1,0.7,0.3,1.4,0.3,1.5c0,0.3,0.1,0.5,0.3,0.7c0.7,4,1.5,8.8,1.6,9.4c0.1,0.7,0.3,1.4,0.3,1.5c0,0.7,1.2,6.6,1.4,7.6
			c0.1,0.7,0.3,1.4,0.3,1.5c0,1,1.5,1.8,6.1,1.7c2.8-0.1,28.7-5.4,37.5-7.2c13-2.3,81.2-15.5,94.2-18.2c8.8-1.6,34.8-6.3,37.5-7.3
			c4.4-1.6,5.4-2.9,5.1-3.8c0,0-0.1-0.7-0.3-1.5c-0.2-0.9-0.4-2.1-0.5-2.4c-0.1-0.3-0.2-0.8-0.3-1.3c-0.2-1.4-0.7-4.6-0.9-5.3
			c-0.1-0.6-1.1-5.3-2-9.3c0.1-0.3,0.1-0.6,0-0.8c0,0-0.1-0.7-0.3-1.5c-0.2-0.9-0.4-2.1-0.5-2.4c-0.1-0.3-0.2-0.8-0.3-1.3
			c-0.2-1.4-0.7-4.6-0.9-5.3c-0.2-0.9-2.8-12.9-3.3-14.7c0-0.1-0.1-0.3-0.1-0.4c-0.3-2.3-0.7-4.4-1-5.9c-0.5-4.3-2.7-15.8-2.8-16.1
			c0,0-0.1-0.4-0.2-0.9c-0.2-1-0.5-2.5-0.6-3c-0.1-0.3-1.6-8.6-1.7-9c0-0.1-0.1-0.2-0.1-0.3c-0.1-0.5-0.2-0.9-0.2-1.4
			c-0.2-1-0.3-2-0.4-2.3c0,0,0-0.2-0.1-0.4c-0.3-1.8-0.6-3.1-0.6-3.2c0,0-0.1-0.4-0.2-0.9C755.6,574.1,755.3,572.6,755.1,572.2z"/>
	</g>
</g>
<g>
	<path class="st4" d="M750.5,334.1c-10.7-7.6-27.9-8.2-37.1,2.2c-5.2,5.9-6.5,14.2-9.7,21.2c-1.7,3.7-4.1,7.4-8.2,8.6
		c-6.9,2-13.5-3.7-17.9-8.4c-7.2-7.9-11.9-17.9-19.7-25.3c-6.6-6.3-15.6-10.5-24.6-6.9c-7,2.8-12.2,9.9-9.4,17.5
		c2.8,7.6,11.4,11.4,17.8,15.4c4.2,2.6,7.4,6,9.1,10.7c1.3,3.6,1.6,7.8-0.8,10.4l-2.9,2.8c-3.8,4.4-10.2,6.5-16.2,6.5
		c-11,0-19.2-7.8-25.7-16c-6.4-8.1-11.7-17.3-19.9-24c-6.8-5.5-15.7-9.8-24.6-7.6c-17,4.1-19.2,24.7-17.8,39.1
		c0.8,7.7,2,17.6,7.8,23.4c3.2,3.2,7.5,4,11.9,3.8c5.9-0.3,11.6-1.7,17.5-1.7c11.9,0,24.5,4.6,27.7,17.2c1.2,4.7,0.7,10-2.7,13.8
		c-3.6,4.1-9.1,5.2-14.3,5.3c-9.1,0.3-18-1.8-26,3.6c-5.2,3.5-9.7,10.6-4.6,16.2c6.3,6.9,16.9,1.4,24-0.5c4.4-1.2,10.6-2,14.4,1.2
		c6.2,5.2-0.4,13.1-3.9,17.7c-9.7,12.7-9.6,29.9-2.2,43.7c7.5,14.1,22.4,23.2,38.5,20.1c15.5-3,28.9-15.6,33.2-30.7
		c2.6-9,0.7-17.1-2-25.8c-1.6-5.4-3.6-12.1-0.5-17.3c2.4-4.1,9-8.4,13.5-4.7c3.7,3.1,2.5,9,6.5,12.1c3.1,2.4,7.4,2.5,11.1,2
		c9-1.1,19.9-4,26.8-10.1c5.2-4.6,8.3-12.7,5.7-19.5c-3.8-9.9-15.6-7.3-23.3-11.4c-8.1-4.3-12.4-14.3-11.2-23.3
		c1.4-10.1,9.8-15.8,19-18.5c8.7-2.6,17.9-3.1,26.4-6.1c7.8-2.7,14.3-8,18.8-15C763.5,362.8,764,343.7,750.5,334.1z"/>
	<path class="st3" d="M584.3,429.9c-61.9,65.4,27.4,134,27.4,134s79.4,30.2,116-49C764.3,435.7,646.2,364.5,584.3,429.9z
		 M719.9,511.9C687,583.1,615.6,556,615.6,556s-80.4-61.7-24.7-120.6C646.6,376.5,752.8,440.6,719.9,511.9z"/>
	<g id="XMLID_136_">
		<path id="XMLID_137_" class="st3" d="M764.3,505.9c0,0-0.1-0.1-0.1-0.2c-0.5-1-1-1.9-1.2-2.2c-0.1-0.2-0.7-1.2-1.4-2.5
			c-0.9-1.6-1.6-3-1.7-3.1c-0.5-0.7-1.6-3.1-2-3.6c0,0-2.4-4.1-2.6-4.5c-0.6-1.3-2.1-4-2.4-4.7c-0.4-0.8-6.5-11.2-7.5-12.7
			c-0.1-0.1-0.1-0.2-0.2-0.2c-0.9-1.9-1.8-3.6-2.5-4.9c-1.8-3.8-5.6-10.5-7.3-13.2c0.1-0.4-6.2-11.9-6.4-12.3
			c-0.1-0.1-0.2-0.3-0.4-0.4c-1.3-2.3-2.6-4.5-3.4-5.7c0.1-0.4-6.2-11.9-6.4-12.3c-1-1.3-3.8-1.7-7.1-0.1c-0.4,0.2-6.2,3.4-13.1,7.3
			c-0.4,0.2-0.8,0.4-1.2,0.6c-1.5,0.8-119.9,66.2-121.4,67.1c-0.4,0.2-0.7,0.5-1.1,0.7c-6.9,3.8-12.8,7-13.1,7.2
			c-3.1,1.9-4.3,4.5-3.7,6c0.2,0.4,0.7,1.3,1.1,2.2c0.4,0.7,5,9.1,5.1,9.1c0.1,0.2,1.9,3.5,3.9,6.9c0,0.1,0,0.1,0,0.2
			c0.2,0.4,0.7,1.3,1.1,2.2c0.4,0.7,5,9.1,5.1,9.1c0.1,0.3,5.7,10.3,8,13.8c0.7,1.3,1.7,3,2.8,4.8c0,0.1,0.1,0.2,0.1,0.3
			c0.7,1.7,6.3,12.3,6.7,13.1c0.4,0.7,5,9.1,5.1,9.1c0.2,0.6,3.9,7.1,3.9,7.1c0.1,0.3,0.3,0.7,0.7,1.2c0.3,0.5,0.4,0.8,0.5,1
			c0.1,0.3,1,1.8,2,3.6c0.3,0.5,0.6,1,0.8,1.5c0.1,0.2,0.2,0.4,0.3,0.5c1.1,1.9,2,3.6,2,3.6c0.2,0.6,3.9,7.1,3.9,7.1
			c0.2,0.6,1.3,2.1,2,3.4c0.2,0.4,0.4,0.9,0.5,1.2c0.2,0.4,0.9,1.8,1.4,2.7c0.3,0.5,0.4,0.8,0.5,0.8c0.1,0.3,0.4,0.5,0.8,0.7
			c1.4,3,5.1,9.9,7.4,13.5c0.8,1.4,1.8,3.2,3,5.2c0.1,0.1,0.1,0.3,0.2,0.4c0.7,1.8,6.4,12.6,6.9,13.4c0.4,0.7,0.7,1.3,0.7,1.3
			c0.2,0.6,3.2,5.9,3.7,6.7c0.4,0.7,0.7,1.3,0.7,1.3c0.1,0.2,0.3,0.4,0.5,0.6c1.9,3.6,4.1,7.9,4.4,8.4c0.4,0.7,0.7,1.3,0.7,1.3
			c0.2,0.6,3.2,5.9,3.7,6.7c0.4,0.7,0.7,1.3,0.7,1.3c0.4,1,2,1.3,6.3-0.3c2.7-1,25.7-14,33.4-18.4c11.7-6.2,72.5-39.8,84-46.4
			c7.8-4.2,31.1-16.7,33.4-18.5c3.7-2.8,4.3-4.4,3.6-5.2c0-0.1-0.3-0.7-0.7-1.3c-0.5-0.9-1-1.8-1.3-2.2c-0.2-0.3-0.5-0.7-0.7-1.1
			c-0.6-1.3-2.1-4.1-2.5-4.8c-0.3-0.5-2.7-4.7-4.8-8.2c0-0.3,0-0.6-0.2-0.8c0-0.1-0.3-0.7-0.7-1.3c-0.5-0.9-1-1.8-1.3-2.2
			c-0.2-0.3-0.5-0.7-0.7-1.1c-0.6-1.3-2.1-4.1-2.5-4.8c-0.5-0.9-6.6-11.5-7.7-13c-0.1-0.1-0.2-0.3-0.3-0.4c-1-2.1-2-3.9-2.8-5.3
			c-1.8-3.9-7.4-14.2-7.6-14.5c0,0-0.2-0.4-0.4-0.8c-0.5-0.9-1.3-2.3-1.5-2.6c-0.2-0.3-4.2-7.7-4.4-8.1c-0.1-0.1-0.1-0.2-0.2-0.3
			c-0.2-0.4-0.4-0.8-0.7-1.2c-0.4-0.9-0.9-1.8-1.1-2.1c0,0-0.1-0.1-0.2-0.4c-0.9-1.6-1.5-2.8-1.6-2.9c0,0-0.2-0.4-0.4-0.8
			C765.3,507.6,764.5,506.3,764.3,505.9z"/>
	</g>
</g>
</svg>
