<?xml version="1.0" encoding="utf-8"?>
<!-- Generator: Adobe Illustrator 22.1.0, SVG Export Plug-In . SVG Version: 6.00 Build 0)  -->
<svg version="1.1" id="Layer_1" xmlns="http://www.w3.org/2000/svg" xmlns:xlink="http://www.w3.org/1999/xlink" x="0px" y="0px"
	 viewBox="0 0 64.6 64.3" style="enable-background:new 0 0 64.6 64.3;" xml:space="preserve">
<style type="text/css">
	.st0{fill:#584C4F;stroke:#584C4F;stroke-width:4;stroke-linecap:round;stroke-miterlimit:10;}
	.st1{fill:#FFFFFF;stroke:#584C4F;stroke-width:4;stroke-linecap:round;stroke-miterlimit:10;}
</style>
<path class="st0" d="M55.1,32.4c3.8-6.8,6-13.9,3.3-20.2c-5.2-12.5-16.9-6-23.7-0.8l0,0c0,0-15-13.1-26.4-1.4
	C1.9,16.3,6,25.9,10.9,33.2c-6,6-5.2,12.8-1.1,23.7c4.4,11.5,21,1.4,24.5-1.1c5.2,3,11.2,5.2,16.4,3.8
	C60.8,57.5,69.3,50.9,55.1,32.4z"/>
<path class="st1" d="M52.1,29.4c3.8-6.8,6-13.9,3.3-20.2c-5.2-12.5-16.9-6-23.7-0.8l0,0c0,0-15-13.1-26.4-1.4
	C-1.1,13.3,3,22.9,7.9,30.2c-6,6-5.2,12.8-1.1,23.7c4.4,11.5,21,1.4,24.5-1.1c5.2,3,11.2,5.2,16.4,3.8
	C57.8,54.5,66.3,47.9,52.1,29.4z"/>
</svg>
