<?xml version="1.0" encoding="utf-8"?>
<!-- Generator: Adobe Illustrator 22.1.0, SVG Export Plug-In . SVG Version: 6.00 Build 0)  -->
<svg version="1.1" id="Layer_1" xmlns="http://www.w3.org/2000/svg" xmlns:xlink="http://www.w3.org/1999/xlink" x="0px" y="0px"
	 viewBox="0 0 513 385" style="enable-background:new 0 0 513 385;" xml:space="preserve">
<style type="text/css">
	.st0{fill:#A36B78;stroke:#584C4F;stroke-linecap:round;stroke-miterlimit:10;}
	.st1{fill:#E6C86B;stroke:#584C4F;stroke-miterlimit:10;}
	.st2{fill:#FCDE82;stroke:#584C4F;stroke-miterlimit:10;}
	.st3{fill:#FFD767;stroke:#584C4F;stroke-miterlimit:10;}
	.st4{opacity:0.1;fill:#231F20;stroke:#231F20;stroke-miterlimit:10;}
</style>
<g id="Layer_5">
</g>
<g id="Layer_3">
</g>
<g>
	<g>
		<path class="st0" d="M253.3,264.9c0,0-1.2,8.5-0.3,10.6c0.9,2.1,4.4,0.9,4-0.4s0.1-10-1.1-10.3S253.5,264.3,253.3,264.9z"/>
		<path id="XMLID_17857_" class="st0" d="M256.9,514.5c-1.8-38.4-3.4-85.6-4.6-110.1c-2.3-44.4,1.3-109.6,1.3-109.6l-18.7,1.6
			c0,0,3.8,115.2,0,139.4c-2.7,17.3,2.1,81.5,3.6,119"/>
		<path id="XMLID_17856_" class="st0" d="M249.6,311.6c0,0,15-10.1,0-10.9"/>
		<g>
			<path class="st0" d="M245.2,268.1c0,0,8.5,1.2,10.6,0.3c2.1-0.9,0.9-4.4-0.4-4c-1.3,0.4-10-0.1-10.3,1.1
				C244.9,266.7,244.6,268,245.2,268.1z"/>
			<path class="st0" d="M248.3,268.1c0,0-3,1-3-1s-1-4,2-4s3,2,3,2S251.3,267.1,248.3,268.1z"/>
		</g>
		<path class="st0" d="M231.6,295.9c0,0-3.3-8.6,3.3-8.6s13.1-2.9,13.1,5.8c0,8.6-6.6,8.6-6.6,8.6S234.9,304.5,231.6,295.9z"/>
		<path class="st0" d="M242.7,289.8c0,0-2.8-17.1,2.8-17.1c5.6,0,11.3-5.7,11.3,11.4s-5.6,17.1-5.6,17.1S245.5,306.9,242.7,289.8z"
			/>
		<path class="st0" d="M250.9,261.5c0,0-3.9,9.6-3.4,12.4s5.4,2.7,5.3,1c-0.1-1.7,3-11.7,1.5-12.5S251.2,260.9,250.9,261.5z"/>
		<g>
			<path class="st0" d="M240.2,263.6c0,0,9.6,3.9,12.4,3.4c2.8-0.5,2.7-5.4,1-5.3s-11.7-3-12.5-1.5S239.6,263.3,240.2,263.6z"/>
			<path class="st0" d="M243.4,265.1c0,0-3,1-3-1s-1-4,2-4s3,2,3,2S246.4,264.1,243.4,265.1z"/>
		</g>
		<path class="st0" d="M245.5,260.9c0,0-1.5,11.3-0.1,14.1c1.3,2.8,6.4,1.4,5.8-0.4c-0.6-1.8,0-13.3-1.9-13.7
			S245.7,260.1,245.5,260.9z"/>
		<g>
			<path class="st0" d="M234.4,266.2c0,0,11.3,1.5,14.1,0.1c2.8-1.3,1.4-6.4-0.4-5.8c-1.8,0.6-13.3,0-13.7,1.9
				C234,264.2,233.7,266,234.4,266.2z"/>
			<path class="st0" d="M237.2,266.9c0,0-3,1-3-1s-1-4,2-4s3,2,3,2S240.2,265.9,237.2,266.9z"/>
		</g>
		<g>
			<path class="st0" d="M230.1,282.9c0,0,7.3-8.5,7.8-11.4c0.5-2.9-4.1-4.1-4.7-2.4c-0.5,1.7-7.3,10.8-6.1,12
				S229.5,283.5,230.1,282.9z"/>
			<path class="st0" d="M231.7,281.3c0,0-1.4,2.8-2.8,1.4s-3.5-2.1-1.4-4.2c2.1-2.1,3.5-0.7,3.5-0.7S233.1,278.4,231.7,281.3z"/>
		</g>
		<path class="st0" d="M232.9,271.2c0,0,8.5,7.3,11.4,7.8c2.9,0.5,4.1-4.1,2.4-4.7c-1.7-0.5-10.8-7.3-12-6.1
			S232.3,270.6,232.9,271.2z"/>
		<g>
			<g id="XMLID_17849_">
				<path id="XMLID_17855_" class="st1" d="M220.3,258.3c0,0-1.3-6.2-7.4-4s-3.1,25.8-0.3,27.6S223.3,295,220.3,258.3z"/>
				<path id="XMLID_17854_" class="st1" d="M218.9,269.6c0,0,10.7-10.6,8.5,9.2c0,0,2.5,6.1,7.5,3.6c5-2.5,5.7-33.9-18.2-25.1"/>
				<path id="XMLID_17853_" class="st2" d="M231.7,259.4c0,0-1,0.5-1.3,1"/>
				<path id="XMLID_17852_" class="st2" d="M216.2,254.9c0,0-1,0.5-1.3,1"/>
				<path id="XMLID_17851_" class="st2" d="M219.5,279.8c-0.3,0.2-0.5,0.4-0.6,0.6"/>
				<path id="XMLID_17850_" class="st2" d="M236.7,273.9c0,0-0.3,0.2-0.7,0.4"/>
			</g>
			<g id="XMLID_17838_">
				<path id="XMLID_17848_" class="st3" d="M217.5,261.1c0,0-1.3-6.2-7.4-4c-6.1,2.2-3.1,25.8-0.3,27.6S220.6,297.7,217.5,261.1z"/>
				<path id="XMLID_17847_" class="st3" d="M216.1,272.4c0,0,10.7-10.6,8.5,9.2c0,0,2.5,6.1,7.5,3.6c5-2.5,5.7-33.9-18.2-25.1"/>
				<line id="XMLID_17846_" class="st3" x1="212.7" y1="284.4" x2="213.7" y2="284.8"/>
				<path id="XMLID_17845_" class="st3" d="M231,281.8c0,0,0.4,0.8-0.2,1.2"/>
				<path id="XMLID_17844_" class="st3" d="M233.3,271.6c0,0-0.2,0.7-0.4,1"/>
				<path id="XMLID_17843_" class="st3" d="M216.3,277.9c0,0,0.3-1.4,0-1.4"/>
				<path id="XMLID_17842_" class="st3" d="M223.9,268.3c0,0,1.3,0.2,1.2,0.4"/>
				<path id="XMLID_17841_" class="st3" d="M211.1,274.9c0,0,1.5-0.2,1.6-0.5"/>
				<path id="XMLID_17840_" class="st3" d="M218.9,260.4c0,0-1,0.5-1.3,1"/>
				<line id="XMLID_17839_" class="st3" x1="209.7" y1="262" x2="210.8" y2="261.7"/>
				<path class="st4" d="M216.8,259.2c-0.9-1.6-2.9-3.5-6.6-2.1c-1,0.4-1.8,1.3-2.3,2.6c3.5-1.1,5.3,0.7,6.2,2.3
					c18.2-4.7,20,16.3,17.1,23.6c0.3-0.1,0.7-0.2,1.1-0.4C236.9,282.7,237.8,253.8,216.8,259.2z"/>
			</g>
		</g>
		<path class="st0" d="M226.8,292.5c0,0,9.4,3,11.9,2.3c2.6-0.7,2.3-5.4,0.6-5.2c-1.6,0.2-11.3-2-11.9-0.5
			C226.8,290.7,226.2,292.2,226.8,292.5z"/>
		<g>
			<path class="st0" d="M228.8,279.2c0,0-3,9.4-2.3,11.9c0.7,2.6,5.4,2.3,5.2,0.6c-0.2-1.6,2-11.3,0.5-11.9
				C230.6,279.2,229,278.5,228.8,279.2z"/>
			<path class="st0" d="M228.6,279.3c0,0,1.4-2.8,2.8-1.4c1.4,1.4,3.5,2.1,1.4,4.2c-2.1,2.1-3.5,0.7-3.5,0.7
				S227.2,282.2,228.6,279.3z"/>
		</g>
	</g>
</g>
</svg>
