<?xml version="1.0" encoding="utf-8"?>
<!-- Generator: Adobe Illustrator 22.1.0, SVG Export Plug-In . SVG Version: 6.00 Build 0)  -->
<svg version="1.1" id="Layer_1" xmlns="http://www.w3.org/2000/svg" xmlns:xlink="http://www.w3.org/1999/xlink" x="0px" y="0px"
	 viewBox="0 0 513 385" style="enable-background:new 0 0 513 385;" xml:space="preserve">
<style type="text/css">
	.st0{fill:#FFF5D0;stroke:#584C4F;stroke-miterlimit:10;}
	.st1{fill:#FCDE82;stroke:#584C4F;stroke-miterlimit:10;}
	.st2{fill:none;stroke:#584C4F;stroke-miterlimit:10;}
	.st3{fill:#FCDB77;stroke:#584C4F;stroke-miterlimit:10;}
	.st4{fill:#FFD767;stroke:#584C4F;stroke-miterlimit:10;}
	.st5{fill:#FDF7E0;stroke:#584C4F;stroke-miterlimit:10;}
</style>
<g id="Layer_5">
</g>
<g id="Layer_3">
</g>
<g>
	<g id="XMLID_29350_">
		<g id="XMLID_29352_">
			<path id="XMLID_29356_" class="st0" d="M190.1,131.2"/>
			<path id="XMLID_29354_" class="st0" d="M199.3,129.1c-14.7-10.8-26.1,2.7-26.1,2.7s-9.4,21.5,8.5,27.2
				C199.6,164.8,213.9,139.9,199.3,129.1z"/>
			<path id="XMLID_29353_" class="st0" d="M193.5,127.7"/>
		</g>
		<path id="XMLID_29351_" class="st0" d="M192.9,154.4c0,0,1.3,8.7,9.1,4.1s-0.4-12.2-0.4-12.2"/>
	</g>
	<g>
		<path id="XMLID_29347_" class="st1" d="M190.7,138.9c-1.4-1-2.7-1-3.6-0.7c-0.1-0.1-0.2-0.2-0.3-0.2c-1.8-0.9-2.1,2-2.1,3.9
			c0,0.1,0,0.2,0,0.4c0,0.6,0.1,1,0.1,1s0.9,6.1,2.1,5.6c0.5-0.2,0.9-1.7,1.2-3.5C191.2,145.5,193.5,141,190.7,138.9z M189.3,142.2
			c-0.3,0.7-0.6,0.9-1,0.8c-1.1-0.2-2.2-2.3-0.7-2.5c0,0,0.2-0.1,0.5-0.1C188.8,140.3,189.9,140.5,189.3,142.2z"/>
		<g id="XMLID_29339_">
			<g id="XMLID_29341_">
				<path id="XMLID_29346_" class="st1" d="M179.7,139.2"/>
				<path id="XMLID_29343_" class="st1" d="M181.6,138.8c-3.1-2.3-5.6,0.6-5.6,0.6s-2,4.6,1.8,5.8S184.8,141.1,181.6,138.8z
					 M180.2,141.1c1.1,2.4-3.7,1.7-2.5,0.1C177.7,141.2,179.1,138.7,180.2,141.1z"/>
				<path id="XMLID_29342_" class="st1" d="M180.4,138.5"/>
			</g>
			<path id="XMLID_29340_" class="st1" d="M180.3,144.2c0,0,0.3,1.9,1.9,0.9c1.7-1-0.1-2.6-0.1-2.6"/>
		</g>
		<path id="XMLID_22_" class="st1" d="M199.4,138.9c-1.4-1-2.7-1-3.6-0.7c-0.1-0.1-0.2-0.2-0.3-0.2c-1.8-0.9-2.1,2-2.1,3.9
			c0,0.1,0,0.2,0,0.4c0,0.6,0.1,1,0.1,1s0.9,6.1,2.1,5.6c0.5-0.2,0.9-1.7,1.2-3.5C199.9,145.5,202.2,141,199.4,138.9z M198,142.2
			c-0.3,0.7-0.6,0.9-1,0.8c-1.1-0.2-2.2-2.3-0.7-2.5c0,0,0.2-0.1,0.5-0.1C197.5,140.3,198.6,140.5,198,142.2z"/>
	</g>
	<line id="XMLID_29361_" class="st2" x1="181.6" y1="156.8" x2="182.6" y2="157.2"/>
	<path id="XMLID_29360_" class="st3" d="M202.7,154.7c0,0-0.2,0.9-0.9,0.8"/>
	<path id="XMLID_29357_" class="st3" d="M176.7,131.8c0,0-1,0.5-1.3,0.9"/>
</g>
<g>
	<g>
		<g>
			<path class="st4" d="M192.2,190.4c-0.1-1.4-0.3-2.7-1.7-2.7c-0.3,0-1.6,0-1.9,0c-0.9-0.1-2.5,0.5-5,2c-6,3.6,0.7,6.7,0.7,6.7
				c1.3,1.1,2.5,1.4,3.5,1.3c0.2,0,1.3,0,1.7,0c2.1,0,3.1-2.2,1.2-3.8C187.9,191.8,192.4,192.8,192.2,190.4z"/>
			<g id="XMLID_785_">
				<path id="XMLID_786_" class="st5" d="M184.3,196.4c0,0-6.7-3.1-0.7-6.7c6-3.6,6.4-1.7,6.6,0.7c0.1,2.4-4.3,1.4-1.6,3.6
					C191.3,196.1,188.4,199.7,184.3,196.4z"/>
			</g>
		</g>
		<line id="XMLID_784_" class="st5" x1="186.2" y1="196.7" x2="186.8" y2="196.9"/>
		<path id="XMLID_783_" class="st5" d="M190,196.8c0,0,0.9-0.1,1-0.3"/>
		<path id="XMLID_782_" class="st5" d="M188.6,192.9c0,0,0.5,0,0.6-0.1"/>
	</g>
	<g>
		<path id="XMLID_781_" class="st5" d="M134.3,179.9c0,0-0.1,0.2,0.2,0.2c10.6,0.2,27.5,0,27.5,0c0.3,0,0.2-0.2,0.2-0.2
			c0.4-6,0-17.2,0-17.2s0.1-0.2-0.2-0.2c-16.5-0.5-27.7,0-27.7,0c-0.3,0-0.2,0.2-0.2,0.2S134.1,172.1,134.3,179.9z"/>
		<path id="XMLID_780_" class="st5" d="M137.4,165.9c0,0-0.1-0.5,0.3-0.5c0,0,7-0.6,15.5,0c0.4,0,0.3,0.5,0.3,0.5s0.1,6.3-0.1,10.7
			c0,0,0.1,0.5-0.3,0.5c0,0-6.6,0.4-15.3,0c-0.4,0-0.3-0.5-0.3-0.5L137.4,165.9z"/>
		<g>
			<path class="st5" d="M140.6,156.2c1.7,1.8,3.8,3.8,5.7,5.7c0.1-0.1,0.1-0.1,0.2-0.2C139.7,155,140.6,156.2,140.6,156.2z"/>
			<path class="st5" d="M152.2,155.9c-1.8,1.7-3.8,3.8-5.7,5.7c0.1,0.1,0.1,0.1,0.2,0.2C153.4,155,152.2,155.9,152.2,155.9z"/>
			<path class="st5" d="M146.5,161.7c-0.1,0.1-0.1,0.1-0.2,0.2c0.1,0.1,0.1,0.1,0.2,0.2c0.1-0.1,0.1-0.1,0.2-0.2
				C146.7,161.8,146.6,161.7,146.5,161.7z"/>
		</g>
	</g>
	<g>
		<g>
			<path class="st5" d="M121.3,201c0,0-0.3-0.6-1-0.6c0,0-27.2,0-28,0c-0.7-0.1-1,0.6-1,0.6s0,15.4,0.3,16c0,0,0.3,0.6,1,0.6
				c0,0,4.1,0,9.2,0.1c0,0,0-0.1,0.1-0.1c0.1-0.1,4.4-4.4,4.4-4.4c0.1-0.1,0.3,0,0.3,0c0.5,0.5,4.3,4.4,4.3,4.4s0,0.1,0,0.1
				c4.5,0,8.3,0,9.1-0.1c0.7-0.1,1-0.6,1-0.6S121.5,202.8,121.3,201z"/>
			<path class="st5" d="M106.5,213.2c0,0-0.2-0.1-0.3,0c0,0-4.2,4.3-4.4,4.4c0,0-0.1,0.1-0.1,0.1c2.9,0,6.2,0,9.1,0
				c0-0.1,0-0.1,0-0.1S107,213.6,106.5,213.2z"/>
		</g>
		<g>
			<path class="st5" d="M103.4,209c0-0.1,0-0.1,0-0.2c0-0.3,0-0.5-0.1-0.8c-0.1-0.3-0.2-0.6-0.3-0.9c0,0,0,0-0.1-0.1
				c-0.2-0.5-0.4-0.9-0.8-1.2c-0.3-0.4-0.7-0.6-1.2-0.8c-0.2-0.1-0.5-0.3-0.7-0.4c0,0-0.2,0-0.5,0c-0.3-0.1-0.6-0.1-0.9-0.1
				c-0.1,0-0.1,0-0.2,0c-0.3,0-0.5,0-0.8,0.1c-0.3,0.1-0.6,0.2-0.9,0.3c0,0,0,0-0.1,0.1c-0.5,0.2-0.9,0.4-1.2,0.8
				c-0.4,0.3-0.6,0.7-0.8,1.2c-0.1,0.2-0.3,0.5-0.4,0.7c0,0,0,0.2,0,0.5c-0.1,0.3-0.1,0.6-0.1,0.9c0,0.1,0,0.1,0,0.2
				c0,0.3,0,0.5,0.1,0.8c0.1,0.3,0.2,0.6,0.3,0.9c0,0,0,0,0.1,0.1c0.2,0.5,0.4,0.9,0.8,1.2c0.3,0.4,0.7,0.6,1.2,0.8
				c0.2,0.1,0.5,0.3,0.7,0.4c0,0,0.2,0,0.5,0c0.3,0.1,0.6,0.1,0.9,0.1c0.1,0,0.1,0,0.2,0c0.3,0,0.5,0,0.8-0.1
				c0.3-0.1,0.6-0.2,0.9-0.3c0,0,0,0,0.1-0.1c0.5-0.2,0.9-0.4,1.2-0.8c0.4-0.3,0.6-0.7,0.8-1.2c0.1-0.2,0.3-0.5,0.4-0.7
				c0,0,0-0.2,0-0.5C103.4,209.6,103.4,209.3,103.4,209z"/>
			<path class="st5" d="M118.5,209c0-0.1,0-0.1,0-0.2c0-0.3,0-0.5-0.1-0.8c-0.1-0.3-0.2-0.6-0.3-0.9c0,0,0,0-0.1-0.1
				c-0.2-0.5-0.4-0.9-0.8-1.2c-0.3-0.4-0.7-0.6-1.2-0.8c-0.2-0.1-0.5-0.3-0.7-0.4c0,0-0.2,0-0.5,0c-0.3-0.1-0.6-0.1-0.9-0.1
				c-0.1,0-0.1,0-0.2,0c-0.3,0-0.5,0-0.8,0.1c-0.3,0.1-0.6,0.2-0.9,0.3c0,0,0,0-0.1,0.1c-0.5,0.2-0.9,0.4-1.2,0.8
				c-0.4,0.3-0.6,0.7-0.8,1.2c-0.1,0.2-0.3,0.5-0.4,0.7c0,0,0,0.2,0,0.5c-0.1,0.3-0.1,0.6-0.1,0.9c0,0.1,0,0.1,0,0.2
				c0,0.3,0,0.5,0.1,0.8c0.1,0.3,0.2,0.6,0.3,0.9c0,0,0,0,0.1,0.1c0.2,0.5,0.4,0.9,0.8,1.2c0.3,0.4,0.7,0.6,1.2,0.8
				c0.2,0.1,0.5,0.3,0.7,0.4c0,0,0.2,0,0.5,0c0.3,0.1,0.6,0.1,0.9,0.1c0.1,0,0.1,0,0.2,0c0.3,0,0.5,0,0.8-0.1
				c0.3-0.1,0.6-0.2,0.9-0.3c0,0,0,0,0.1-0.1c0.5-0.2,0.9-0.4,1.2-0.8c0.4-0.3,0.6-0.7,0.8-1.2c0.1-0.2,0.3-0.5,0.4-0.7
				c0,0,0-0.2,0-0.5C118.4,209.6,118.5,209.3,118.5,209z"/>
		</g>
	</g>
	<g>
		<path id="XMLID_779_" class="st5" d="M97.1,154.8c0,0-0.2-0.1-0.2,0.2c-0.2,11.2,0,29.1,0,29.1c0,0.3,0.2,0.2,0.2,0.2
			c6.4,0.5,18.2,0,18.2,0s0.2,0.1,0.2-0.2c0.5-17.5,0-29.3,0-29.3c0-0.3-0.2-0.2-0.2-0.2S105.4,154.6,97.1,154.8z"/>
		<path id="XMLID_778_" class="st5" d="M112,158.1c0,0,0.5-0.1,0.5,0.3c0,0,0.6,7.4,0,16.5c0,0.4-0.5,0.3-0.5,0.3s-6.7,0.1-11.3-0.2
			c0,0-0.5,0.1-0.5-0.3c0,0-0.4-7,0-16.2c0-0.4,0.5-0.3,0.5-0.3L112,158.1z"/>
		<path id="XMLID_20_" class="st5" d="M107.6,178c0,0-3-1.1-3.8,1.7c-0.8,2.8,1.7,3.4,2,3.3c0.3,0,3.2-0.3,3-2.1
			C108.6,179,108.1,178.3,107.6,178z"/>
	</g>
	<g>
		<path class="st5" d="M155.4,221.7c-0.7-4-1.8-5.7-3.2-6.5c0,0-8.3-3.1-10.5,4.7c-0.2,0.6-0.3,1.2-0.4,1.8H155.4z"/>
		<path class="st5" d="M161.3,196.9c0,0,0.1-0.3-0.2-0.3c-15.4-0.6-25.8,0-25.8,0c-0.3,0-0.2,0.3-0.2,0.3s0,8.7,0.1,17.9h26.3
			L161.3,196.9z"/>
		<path class="st5" d="M135.5,219.1c9.9,0.2,25.7,0,25.7,0c0.3,0,0.2-0.2,0.2-0.2c0.1-0.8,0.1-1.7,0.1-2.7v-1.6h-26.3
			c0,1.4,0.1,2.9,0.1,4.3C135.3,218.9,135.2,219.1,135.5,219.1z"/>
		<path class="st5" d="M158,199.8c0,0,0.1-0.2-0.2-0.2c-11.3-0.4-18.9,0-18.9,0c-0.2,0-0.2,0.2-0.2,0.2s0,5.7,0.1,11.7h19.3
			L158,199.8z"/>
	</g>
	<g>
		<path class="st5" d="M128.6,194c0,0,0.1-2.8-0.1-5c0.3-5,0.2-22.2,0.1-31c0,0,0.4-9.8-1.4-7c-0.7,1.1-0.9,4.9-0.9,9.2
			c0,4.3-0.1,17.9,0.1,26.7c0,0-0.1,2.8,0.1,5c-0.3,5-0.2,22.2-0.1,31c0,0-0.4,9.8,1.4,7c0.6-0.9,0.9-4,0.9-7.7
			C128.7,217.5,128.8,202.8,128.6,194z"/>
		<path class="st5" d="M131.1,189.3c0,0-2.8-0.1-5,0.1c-5-0.3-22.2-0.2-31-0.1c0,0-9.8-0.4-7,1.4c1.1,0.7,4.9,0.9,9.2,0.9
			c4.3,0,17.9,0.1,26.7-0.1c0,0,2.8,0.1,5-0.1c5,0.3,22.2,0.2,31,0.1c0,0,9.8,0.4,7-1.4c-0.9-0.6-4-0.9-7.7-0.9
			C154.6,189.2,139.8,189.1,131.1,189.3z"/>
	</g>
</g>
</svg>
