<?xml version="1.0" encoding="utf-8"?>
<!-- Generator: Adobe Illustrator 22.1.0, SVG Export Plug-In . SVG Version: 6.00 Build 0)  -->
<svg version="1.1" id="Layer_1" xmlns="http://www.w3.org/2000/svg" xmlns:xlink="http://www.w3.org/1999/xlink" x="0px" y="0px"
	 viewBox="0 0 485.1 377.3" style="enable-background:new 0 0 485.1 377.3;" xml:space="preserve">
<style type="text/css">
	.st0{opacity:0.1;fill:#231F20;stroke:#231F20;stroke-miterlimit:10;enable-background:new    ;}
	.st1{fill:#E6C86B;stroke:#584C4F;stroke-width:2;stroke-miterlimit:10;}
	.st2{fill:#FCDE82;stroke:#584C4F;stroke-width:2;stroke-miterlimit:10;}
	.st3{fill:none;stroke:#584C4F;stroke-width:2;stroke-miterlimit:10;}
	.st4{fill:#FCDB77;stroke:#584C4F;stroke-width:2;stroke-miterlimit:10;}
	.st5{fill:#FFD767;stroke:#584C4F;stroke-width:2;stroke-miterlimit:10;}
	.st6{fill:#FFFAF2;stroke:#584C4F;stroke-width:2;stroke-miterlimit:10;}
	.st7{fill:#FFF5D0;stroke:#584C4F;stroke-width:2;stroke-miterlimit:10;}
	.st8{fill:#FBE391;stroke:#584C4F;stroke-width:2;stroke-miterlimit:10;}
	.st9{fill:#FBE7A0;stroke:#584C4F;stroke-width:2;stroke-miterlimit:10;}
	.st10{fill:#FDEBB0;stroke:#584C4F;stroke-width:2;stroke-miterlimit:10;}
	.st11{fill:#FFF0C2;stroke:#584C4F;stroke-width:2;stroke-miterlimit:10;}
	.st12{fill:#FDF7E0;stroke:#584C4F;stroke-width:2;stroke-miterlimit:10;}
</style>
<g id="Layer_5">
</g>
<g id="Layer_3">
</g>
<g>
	<g>
		<g>
			<path class="st0" d="M380.5,22.2c0,0-19.7-17.6-27.8,4.5c-6,0.8-11.7,6.4-13.7,23.2c0,0-0.5,9.7-3.6,17.9
				c-11.5,0.9-18.2-16.9-17-23.3c0,0-1.9-36.2-26.5-25.5c-3.6,1.6-6.3,5.1-8.2,10c-0.9,0.3-1.8,0.6-2.8,1
				c-10.3,4.5-13.8,25.4-9.9,47c-11.1,3.7-23.2-1.6-18.1-47c0,0-10.2-24.4-30-14.4c-2.5,1.3-4.8,4.5-6.6,9c-0.9-0.8-1.9-1.5-2.9-2.3
				c-49.1-36.2-87.6,9-87.6,9s-0.1,0.2-0.2,0.6C114.9,14,95.7,2.6,63.9,10.7C60.3,4.2,52.6-3.2,37.5,2.1c-4,1.4-7,5.2-9.2,10.4
				c-0.6,0.2-1.2,0.4-1.8,0.6C2,21.8,13.9,116.2,25.1,123.5c3.3,2.1,8.4,7.5,13.6,10.4c-1.7,30.5,5.7,69.6,12.8,74.2
				c7.1,4.6,22.4,24.3,29.5,1.2c8.5,1,16-10.3,14.8-61.3c10-1.5,19.4,6.9,14.8,47.8c0,0,10,23.9,29.4,14.7c2.9,4.4,6.1,6.8,9.3,6.2
				c5.8-1.2,10.5-3.7,14-8.3c4.9,5.3,11.8,9.8,21.2,12.8c13.4,4.3,26.1,2.7,37-2.3c-0.6,9.4-2.4,17.7-6.4,24.4
				c-0.9,0.5-1.8,1-2.7,1.5c-9.3,4.6-13.7,9.1-15.1,13.2c-28.3,16.6,4,31.7,4,31.7c22,0.2,35.2-6.7,43.1-18.6
				c14.2-9.3,19.6-26.2,21.4-47.5c2.3,0.6,4.5,1,6.5,1.3c3,0.6,6.2,1,9.6,0.9c0.2,0,0.3,0,0.3,0l0,0c3.7-0.1,7.6-0.5,11.8-1.5
				c10.5-2.4,19-7.5,25.4-14.3c1.3,3.4,2.6,5.8,3.9,6.8c7,5.3,21.7,27.3,29,3.2c10.5,2.1,19.6-16.4,13.5-113.3
				C398.5,80.4,380.5,22.2,380.5,22.2z M196,156.6c7.2-1.4,26.4-3.3,18.7,18.8C206.4,175.7,197.2,165.1,196,156.6z M69.5,63.5
				c7.9-1.1,15.4,3.8,16,25.8c-3.6-3.1-8.8-5.2-16-4C69.6,79,69.6,71.7,69.5,63.5z M176.1,81.4c-4.5-6.5-12.7-11.3-12.7-11.3
				c-2-1.6-3.9-2.5-5.7-2.9c-0.7-1.7-1.2-3.4-1.4-5.1C163.5,60.6,184.2,58.2,176.1,81.4z M275.4,158.2c0.7-0.4,1.4-0.9,2.1-1.2
				c0.6,2.4,1.5,4.9,2.9,7.7c4,8.3,13.6,9,22.4,6.6c0.7,0.6,1.4,1.2,2.1,1.7c-0.1,0.1-0.2,0.1-0.2,0.2
				C294.9,180.4,271.8,169.2,275.4,158.2z"/>
			<path class="st0" d="M285.4,77.4c-1.2,6.6,5.9,25.3,18.1,23.2c4.8-0.8,7.9-5.5,9.9-10.9c-11.5,0.9-18.2-16.9-17-23.3
				c0,0-1.9-36.2-26.5-25.5c-3.6,1.6-6.3,5.1-8.3,10C283.6,44.1,285.4,77.4,285.4,77.4z"/>
			<g>
				<g id="XMLID_10821_">
					<path id="XMLID_10829_" class="st1" d="M307.5,55.4c0,0-1.9-36.2-26.5-25.5s-10.9,113.1,51.2,98.4
						c62.1-14.7,37.2-95.1,37.2-95.1s-25.8-23-30.4,16.6c0,0-1.4,26.7-13.6,28.8C313.3,80.6,306.3,62.1,307.5,55.4z"/>
					<g id="XMLID_10827_">
						<path id="XMLID_10828_" class="st1" d="M276.1,77.5c0,0-42.9,42.2-34-36.8c0,0-10.2-24.4-30-14.4S189,161.9,284.7,126.9
							c0,0,25.8-9.8,32.7-14.8"/>
					</g>
					<path id="XMLID_10826_" class="st2" d="M237.5,42.9c0,0-4,1.9-5.2,3.8"/>
					<path id="XMLID_10825_" class="st2" d="M299.5,43c0,0-4,1.9-5.2,3.8"/>
					<path id="XMLID_10824_" class="st2" d="M242.4,86.9c0,0-4,1.9-5.2,3.8"/>
					<path id="XMLID_10823_" class="st2" d="M310.4,76c0,0-4,1.9-5.2,3.8"/>
					<path id="XMLID_10822_" class="st2" d="M363.5,34.1c0,0-4,1.9-5.2,3.8"/>
				</g>
				<g id="XMLID_10753_">
					<path id="XMLID_10820_" class="st2" d="M296.4,66.4c0,0-1.9-36.2-26.5-25.5c-24.5,10.7-10.9,113.1,51.2,98.4
						s37.2-95.1,37.2-95.1S332.6,21,328,60.7c0,0-1.4,26.7-13.6,28.8C302.3,91.6,295.2,73.1,296.4,66.4z"/>
					<g id="XMLID_10818_">
						<path id="XMLID_10819_" class="st2" d="M265.1,88.5c0,0-42.9,42.2-34-36.8c0,0-10.2-24.4-30-14.4S178,172.9,273.7,137.8
							c0,0,25.8-9.8,32.7-14.8"/>
					</g>
					<line id="XMLID_10817_" class="st3" x1="221.3" y1="133.9" x2="225.3" y2="135.7"/>
					<path id="XMLID_10816_" class="st2" d="M314.6,107.3c0,0,1.6,3.3-1,4.7"/>
					<path id="XMLID_10815_" class="st2" d="M357.2,100.6c0,0-0.7,3-1.6,4"/>
					<path id="XMLID_10814_" class="st2" d="M333.4,59.3c0,0,1.3-5.6,0-5.6"/>
					<path id="XMLID_10813_" class="st2" d="M210.9,40.7c0,0,5.2,0.7,4.7,1.6"/>
					<path id="XMLID_10807_" class="st2" d="M244.5,107.5c0,0,6.1-0.9,6.5-2"/>
					<path id="XMLID_10806_" class="st2" d="M275.5,45.9c0,0-4,1.9-5.2,3.8"/>
					<line id="XMLID_10791_" class="st3" x1="314.4" y1="93" x2="318.6" y2="91.9"/>
					<line id="XMLID_10790_" class="st3" x1="323.4" y1="132.7" x2="327.6" y2="131.6"/>
					<path class="st0" d="M285.4,77.4c-1.2,6.6,5.9,25.3,18.1,23.2c4.8-0.8,7.9-5.5,9.9-10.9c-11.5,0.9-18.2-16.9-17-23.3
						c0,0-1.9-36.2-26.5-25.5c-3.6,1.6-6.3,5.1-8.3,10C283.6,44.1,285.4,77.4,285.4,77.4z"/>
				</g>
			</g>
			<path class="st0" d="M220,62.7c-7.1,63.9,19.6,48.4,30,40.3c-0.3-1.4-0.6-2.8-0.9-4.1c-11.1,3.7-23.2-1.6-18.1-47
				c0,0-10.2-24.4-30-14.4c-2.6,1.3-4.9,4.6-6.8,9.3C211.3,41.8,220,62.7,220,62.7z"/>
			<path class="st0" d="M358.5,44.2c0,0-19.7-17.6-27.8,4.5c8.2-1.2,16.8,6.5,16.8,6.5s14.4,46.6-6,75.3
				C377.3,105,358.5,44.2,358.5,44.2z"/>
			<g>
				<g id="XMLID_10643_">
					<path id="XMLID_10738_" class="st1" d="M202.5,33.2c-49.1-36.2-87.6,9-87.6,9s-31.7,72.2,28.3,91.4
						C203.2,152.9,251.6,69.4,202.5,33.2z M175.5,83c-11.5,29.7-46.5-17-21.5-20.3C154.1,62.6,187,53.3,175.5,83z"/>
					<path id="XMLID_10658_" class="st2" d="M194.5,33.8c0,0-4,1.9-5.2,3.8"/>
					<path id="XMLID_10657_" class="st2" d="M174.5,24.8c0,0-4,1.9-5.2,3.8"/>
				</g>
			</g>
			<g id="XMLID_10269_">
				<path id="XMLID_10642_" class="st4" d="M160.6,51.2"/>
				<path id="XMLID_10614_" class="st4" d="M191.5,44.2c-49.1-36.2-87.6,9-87.6,9s-31.7,72.2,28.3,91.4
					C192.2,163.9,240.6,80.4,191.5,44.2z M164.5,93.9C153,123.6,118,77,143,73.6C143,73.6,176,64.3,164.5,93.9z"/>
				<path id="XMLID_10613_" class="st4" d="M172.2,39.6"/>
				<line id="XMLID_10612_" class="st3" x1="115.8" y1="130.1" x2="119.8" y2="131.9"/>
				<path id="XMLID_10611_" class="st4" d="M176.2,133.9c0,0-0.7,3.6-3.6,3.2"/>
				<path id="XMLID_10610_" class="st4" d="M169,94.6c0,0-0.7,3-1.6,4"/>
				<path id="XMLID_10274_" class="st4" d="M205.1,92.3c0,0,1.3-5.6,0-5.6"/>
				<path id="XMLID_10273_" class="st4" d="M169.3,38.8c0,0,5.2,0.7,4.7,1.6"/>
				<path id="XMLID_10272_" class="st4" d="M135.4,103.3c0,0,5.1,3.5,6.1,2.9"/>
				<path id="XMLID_10271_" class="st4" d="M112.8,54.3c0,0-4,1.9-5.2,3.8"/>
				<line id="XMLID_10270_" class="st3" x1="136.4" y1="69.9" x2="140.6" y2="68.8"/>
				<path class="st0" d="M191.5,44.2c-49.1-36.2-87.6,9-87.6,9s-0.3,0.6-0.7,1.6c14.6-11,43.4-24.7,77.3,0.2
					c27.7,20.3,24.4,55.7,5.6,79.4C213.9,112.5,223.8,68.1,191.5,44.2z"/>
			</g>
			<g>
				<g id="XMLID_10262_">
					<path id="XMLID_10268_" class="st1" d="M55.9,29.3c0,0-5.1-24.9-29.5-16.2s-12.6,103.1-1.3,110.4
						C36.3,130.8,67.9,175.9,55.9,29.3z"/>
					<path id="XMLID_10267_" class="st1" d="M50.2,74.6c0,0,42.9-42.2,34,36.8c0,0,10.2,24.4,30,14.4S137.5-9.8,41.6,25.1"/>
					<path id="XMLID_10266_" class="st2" d="M101.5,33.6c0,0-4,1.9-5.2,3.8"/>
					<path id="XMLID_10265_" class="st2" d="M39.5,15.5c0,0-4,1.9-5.2,3.8"/>
					<path id="XMLID_10264_" class="st2" d="M52.7,115.2c-1,0.7-2,1.5-2.5,2.3"/>
					<path id="XMLID_10263_" class="st2" d="M121.4,91.7c0,0-1.3,0.6-2.7,1.5"/>
				</g>
				<g id="XMLID_6178_">
					<path id="XMLID_10261_" class="st5" d="M44.9,40.2c0,0-5.1-24.9-29.5-16.2S2.8,127.2,14.1,134.5
						C25.4,141.8,56.8,186.9,44.9,40.2z"/>
					<path id="XMLID_10260_" class="st5" d="M39.2,85.5c0,0,42.9-42.2,34,36.8c0,0,10.2,24.4,30,14.4S126.5,1.2,30.6,36.1"/>
					<line id="XMLID_10259_" class="st3" x1="25.4" y1="133.6" x2="29.4" y2="135.3"/>
					<path id="XMLID_10258_" class="st5" d="M98.5,123.1c0,0,1.6,3.3-1,4.7"/>
					<path id="XMLID_10257_" class="st5" d="M108.1,82.6c0,0-0.7,3-1.6,4"/>
					<path id="XMLID_10256_" class="st5" d="M40.1,107.6c0,0,1.3-5.6,0-5.6"/>
					<path id="XMLID_10255_" class="st5" d="M70.2,69.3c0,0,5.2,0.7,4.7,1.6"/>
					<path id="XMLID_10254_" class="st5" d="M19.3,95.5c0,0,6.1-0.9,6.5-2"/>
					<path id="XMLID_6180_" class="st5" d="M50.3,37.5c0,0-4,1.9-5.2,3.8"/>
					<line id="XMLID_6179_" class="st3" x1="13.6" y1="43.9" x2="17.9" y2="42.8"/>
					<path class="st0" d="M41.9,32.6c-3.7-6.5-11.4-13.9-26.5-8.5c-4,1.4-7,5.2-9.2,10.4c13.9-4.2,21.2,2.9,24.7,9.1
						c72.8-18.6,79.9,65.2,68.2,94.6c1.4-0.4,2.8-0.9,4.3-1.7C122.3,126.9,126.1,11.2,41.9,32.6z"/>
				</g>
			</g>
			<path class="st0" d="M360.1,100.9c0,0-5-29-29.5-18.9c-3.5,1.5-6.3,5-8.4,10c-0.8,0.3-1.7,0.6-2.6,1c-0.4,0.2-0.8,0.4-1.2,0.6
				c-0.1,0.1-0.2,0.2-0.3,0.2c-0.3,0.2-0.5,0.4-0.8,0.6c-0.1,0.1-0.2,0.2-0.4,0.3c-0.3,0.2-0.5,0.4-0.7,0.7
				c-0.1,0.1-0.2,0.2-0.3,0.3c-0.3,0.3-0.5,0.5-0.7,0.8c-0.1,0.1-0.2,0.2-0.3,0.3c-0.3,0.3-0.5,0.7-0.8,1.1c0,0.1-0.1,0.1-0.1,0.2
				c-1,1.4-1.8,3.1-2.6,4.9l0,0l0,0c-1.5,3.6-2.7,8-3.6,12.9c-2.4-0.6-5-1.1-7.6-1.4c-19.7-2-33.5,3.6-42.9,11.7
				c-6.5-20.4-20.3-12.8-27.2-7.4c-26-11.5-47.2,0.8-57.5,9.2c-3.3-4.8-9.5-7.4-20.9-3.6c-0.8,0.3-1.5,0.6-2.3,0.9
				c-0.8-1.5-1.6-3-2.5-4.5c0.4-0.2,0.9-0.3,1.3-0.5c7-3,11.1-6.2,13.2-9.5c19.3-13.8-8.6-29.9-8.6-29.9c-7.3-5.7-13.3-2.9-17,3
				c-5.1,2.8-8.4,10.4-9.1,18.1c-10.5-4.9-23.9-6.1-41-1.9c-3.7-6.5-11.4-13.9-26.5-8.5c-4,1.4-7,5.2-9.2,10.4
				c-0.6,0.2-1.2,0.4-1.8,0.6c-24.8,9-13,103.4-1.7,110.7c7.1,4.6,22.4,24.3,29.5,1.2c8.5,1,16-10.3,14.8-61.3
				c10-1.5,19.4,6.9,14.8,47.8c0,0,10,23.9,29.4,14.7c2.9,4.4,6.1,6.8,9.3,6.2c5.8-1.2,10.5-3.7,14-8.3c4.9,5.3,11.8,9.8,21.2,12.8
				c13.4,4.3,26.1,2.7,37-2.3c-0.6,9.4-2.4,17.7-6.4,24.4c-0.9,0.5-1.8,1-2.7,1.5c-9.3,4.6-13.7,9.1-15.1,13.2
				c-28.3,16.6,4,31.7,4,31.7c19.9,0.1,32.6-5.5,40.7-15.4l0,0c0.9-1,1.7-2.1,2.4-3.3c14.2-9.3,19.6-26.2,21.4-47.5
				c2.3,0.6,4.5,1,6.5,1.3c3,0.6,6.2,1,9.6,0.9c0.2,0,0.3,0,0.3,0l0,0c3.7-0.1,7.6-0.5,11.8-1.5c10.5-2.4,19-7.5,25.4-14.3
				c1.3,3.4,2.6,5.8,3.9,6.8c4.4,3.3,11.8,13.2,18.5,14.1l0,0c0.5,0.1,1,0.1,1.5,0l0,0c0.2,0,0.3,0,0.5-0.1l0,0
				c0.5-0.1,1-0.2,1.4-0.4l0,0c0.1-0.1,0.3-0.1,0.4-0.2c0,0,0,0,0.1,0c0.5-0.2,0.9-0.6,1.4-0.9l0,0c0.1-0.1,0.3-0.2,0.4-0.4
				c0,0,0,0,0.1-0.1c0.1-0.1,0.3-0.3,0.4-0.4l0,0c0.3-0.3,0.6-0.7,0.8-1.1c0,0,0-0.1,0.1-0.1c0.1-0.2,0.2-0.3,0.3-0.5l0.1-0.1
				c0.1-0.2,0.2-0.4,0.3-0.6c0,0,0-0.1,0.1-0.1c0.3-0.5,0.5-1,0.8-1.5c0,0,0-0.1,0.1-0.1c0.1-0.2,0.2-0.4,0.3-0.7
				c0-0.1,0.1-0.1,0.1-0.2c0.1-0.2,0.2-0.5,0.3-0.7c0-0.1,0-0.1,0.1-0.2c0.2-0.6,0.5-1.3,0.7-2c0-0.1,0-0.1,0.1-0.2
				c0.1-0.2,0.1-0.4,0.2-0.6C358.1,227.3,367.5,207.3,360.1,100.9z M270.4,163.2c1.4-0.9,2.9-1.8,4.5-2.4l0,0c0,0,5.1-2.6,9.3-1.1
				c1.6,0.6,3.1,1.8,4.1,4c0,0.1,0.1,0.2,0.2,0.4c0.5,1,1.1,2.2,1.8,3.3c2.2,3.6,5.7,7.7,9.7,10.6c-0.1,0.1-0.2,0.1-0.2,0.2
				C289.9,185.4,266.8,174.2,270.4,163.2z M191,161.6c7.2-1.4,26.4-3.3,18.7,18.8C201.3,180.7,192.2,170.1,191,161.6z"/>
			<g>
				<g id="XMLID_6176_">
					<path id="XMLID_6177_" class="st1" d="M169,156.4c0,0,7.1-36.2-23.7-26s-12.3,89.7,3.9,86.3C165.5,213.4,172.9,200.7,169,156.4
						z"/>
				</g>
			</g>
			<path id="XMLID_6175_" class="st1" d="M295.9,136.3c0,0-9-6.3-12.9-1.4c-3.9,5-10.6,13.4-2.7,29.8c7.9,16.5,37.7,3,40.6-4.7"/>
			<path id="XMLID_6172_" class="st6" d="M315.8,266.1c-1.2-9.1-3.3-12.8-6.1-14.4c0,0-14.6-5.4-18.6,8.4c-4,13.8,8.3,16.5,9.9,16.4
				C302.7,276.4,317,275.2,315.8,266.1z M306.4,265.2c-0.4,0.8-1.3,1.4-3.7,2c-2.4,0.5-3.1-3.3-3.1-3.7c-0.1-0.4,0.4-3.8,4.2-3
				C307.5,261.2,306.4,265.2,306.4,265.2z"/>
			<g>
				<g id="XMLID_6160_">
					<path id="XMLID_6163_" class="st6" d="M338.1,270.4"/>
					<path id="XMLID_6162_" class="st6" d="M346.6,269.9c0-3.6-0.3-8.6,1.1-9.7c1.8-1.5,7.9-0.9,7,2.9c-0.5,2.2-0.5,4.7-0.5,6.4
						c0,1.2,0.1,2.2,0.1,2.5c0,1,0.4,3,3.7,3.3c4.4,0.5,5-0.9,5-4c0-3.1,3.6-18-9.1-20.6c-8.9-1.8-13.6,3.2-15.6,7.3"/>
					<path id="XMLID_6161_" class="st6" d="M347,259.6"/>
				</g>
				<g id="XMLID_6155_">
					<path id="XMLID_6159_" class="st6" d="M345.3,256c-1.4-2.4-3.8-4.4-7.7-5.2c-12.7-2.6-16.8,8.8-16.8,11.5
						c0,1.5,0.3,5.1,0.9,8.1"/>
					<path id="XMLID_6158_" class="st6" d="M321.8,270.3c0.5,2.6,8.5,0.6,8.5-0.5c0-3.6-0.3-8.6,1.1-9.7c1.5-1.2,5.8-1,6.9,1.1
						c0.2,0.5,0.3,1.1,0.2,1.8c-0.5,2.2-0.5,4.7-0.5,6.4c0,1.2,0.1,2.2,0.1,2.5c0,1,0.4,3,3.7,3.3c4.4,0.5,5-0.9,5-4
						c0-1.6,0.9-6.1,0.2-10.6"/>
					<path id="XMLID_6157_" class="st6" d="M330.8,259.5"/>
					<path id="XMLID_6156_" class="st6" d="M330.8,259.5c0.2,5.1-0.1,11-0.7,13.2c0,0-2.4,4.3-6.1,2.3c-3.7-2-4-22.7-1.7-23.6
						c2.3-0.9,6.7-3,7.8,1.8"/>
				</g>
			</g>
			<path id="XMLID_6154_" class="st6" d="M281.5,264.9c-0.6,0.2-1.2,1-1.8,1.7c-0.2,0.2-0.3,0.4-0.5,0.6c-0.1,0.2-0.6,0.6-0.7,0.6
				c-1.9,0.9-5.5,1.9-7-1.9c-0.1-0.3-0.3-1.4-0.3-1.7c0-0.5,0-1.1,0.1-1.5c0.4-4,1.7-5.8,3-6c1.5-0.2,4.4,0.9,5.2,2.8
				c0,0,0.8,3.6,2.8,3.1c2-0.5,5.8-2.6,2.8-6.5c-3-3.9-6-8-14.3-5.1c-8.4,2.9-6.8,13.5-6.5,14.3c0.3,0.7,4.7,15.5,16,8.9
				C291.8,267.8,282.7,264.5,281.5,264.9z"/>
			<path class="st0" d="M68.2,117.2c-3.7-6.5-11.4-13.9-26.5-8.5c-4,1.4-7,5.2-9.2,10.4c13.9-4.2,21.2,2.9,24.7,9.1
				c72.8-18.6,79.9,65.2,68.2,94.6c1.4-0.4,2.8-0.9,4.3-1.7C148.7,211.4,152.5,95.7,68.2,117.2z"/>
			<path id="XMLID_6153_" class="st7" d="M284.9,147.3c0,0-9-6.3-12.9-1.4c-3.9,5-10.6,13.4-2.7,29.8c7.9,16.5,37.7,3,40.6-4.7"/>
			<path class="st0" d="M282.8,195.1c-0.1,0.1-0.2,0.1-0.2,0.2c-9.7,7.2-32.9-4-29.3-15c-4,2.6-7,5.7-7,5.7
				c-15.5,12.2,14,28.6,25.2,20.2c0.3-0.3,0.7-0.6,1-0.9c3.3-2.8,7.7-5.4,12-4.7c7.8,1.2,20.9,3,21.9,18.2c-1.4,2.9-3.1,5.6-5,8.2
				c7-5.1,12.3-11.7,16-19.2c-0.7-9.6-6.1-13.8-12-16c-1.4,1.3-3.2,2.7-5.4,4.3C294.2,200.4,288,198.8,282.8,195.1z"/>
			<g>
				<g id="XMLID_6147_">
					<path id="XMLID_6152_" class="st1" d="M82.3,113.9c0,0-5.1-24.9-29.5-16.2s-12.7,103.1-1.4,110.4S94.2,260.4,82.3,113.9z"/>
					<path id="XMLID_6151_" class="st1" d="M76.6,159.2c0,0,42.9-42.2,34,36.8c0,0,10.2,24.4,30,14.4
						c19.9-10.2,23.1-135.5-72.6-100.4"/>
					<path id="XMLID_6150_" class="st2" d="M122.4,112.7c0,0-4,1.9-5.2,3.8"/>
					<path id="XMLID_6149_" class="st2" d="M138.3,127.7c0,0-4,1.9-5.2,3.8"/>
					<path id="XMLID_6148_" class="st2" d="M64.4,100.6c0,0-2.3,1.1-3.9,2.5"/>
				</g>
				<g id="XMLID_6136_">
					<path id="XMLID_6146_" class="st8" d="M71.2,124.9c0,0-5.1-24.9-29.5-16.2s-12.7,103.1-1.4,110.4S83.2,271.4,71.2,124.9z"/>
					<path id="XMLID_6145_" class="st8" d="M65.6,170.2c0,0,42.9-42.2,34,36.8c0,0,10.2,24.4,30,14.4
						c19.9-10.2,23.1-135.5-72.6-100.4"/>
					<line id="XMLID_6144_" class="st3" x1="53.2" y1="221.6" x2="57.2" y2="223.4"/>
					<path id="XMLID_6143_" class="st8" d="M126.3,211.2c0,0,1.6,3.3-1,4.7"/>
					<path id="XMLID_6142_" class="st8" d="M135.9,170.6c0,0-0.7,3-1.6,4"/>
					<path id="XMLID_6141_" class="st8" d="M67.8,195.7c0,0,1.3-5.6,0-5.6"/>
					<path id="XMLID_6140_" class="st8" d="M98,157.2c0,0,5.2,0.7,4.7,1.6"/>
					<path id="XMLID_6139_" class="st8" d="M47,183.5c0,0,6.1-0.9,6.5-2"/>
					<path id="XMLID_6138_" class="st8" d="M78,125.4c0,0-4,1.9-5.2,3.8"/>
					<line id="XMLID_6137_" class="st3" x1="41.3" y1="131.9" x2="45.6" y2="130.8"/>
					<path class="st0" d="M67.8,116.7c-3.7-6.5-11.4-13.9-26.5-8.5c-4,1.4-7,5.2-9.2,10.4c13.9-4.2,21.2,2.9,24.7,9.1
						c72.8-18.6,79.9,65.2,68.2,94.6c1.4-0.4,2.8-0.9,4.3-1.7C148.2,210.9,152,95.2,67.8,116.7z"/>
				</g>
				<path id="XMLID_6135_" class="st2" d="M146.5,193.3c-1,0.7-2,1.5-2.5,2.3"/>
				<path id="XMLID_6134_" class="st2" d="M79.2,199.6c0,0-1.3,0.6-2.7,1.5"/>
			</g>
			<g>
				<g>
					<g id="XMLID_6132_">
						<path id="XMLID_6133_" class="st1" d="M169,156.4c0,0,7.1-36.2-23.7-26s-12.3,89.7,3.9,86.3
							C165.5,213.4,172.9,200.7,169,156.4z"/>
					</g>
				</g>
				<g>
					<g id="XMLID_6130_">
						<path id="XMLID_6131_" class="st9" d="M158,167.3c0,0,7.1-36.2-23.7-26c-30.7,10.1-12.3,89.7,3.9,86.3
							C154.5,224.3,161.9,211.6,158,167.3z"/>
					</g>
					<line id="XMLID_6129_" class="st3" x1="132" y1="217.7" x2="136" y2="219.5"/>
					<path id="XMLID_6128_" class="st9" d="M152.2,205.1c0,0,1.6,3.3-1,4.7"/>
					<path id="XMLID_6127_" class="st9" d="M127.6,158.1c0,0-0.7,3-1.6,4"/>
					<path id="XMLID_6126_" class="st9" d="M153.2,160.1c0,0,1.3-5.6,0-5.6"/>
					<path id="XMLID_6125_" class="st9" d="M139.3,144.1c0,0,5.2,0.7,4.7,1.6"/>
				</g>
				<g>
					<path id="XMLID_6124_" class="st1" d="M146.4,87c0,0,34.5,19.8,0.4,34.3S123.3,68.9,146.4,87z"/>
					<path id="XMLID_6123_" class="st2" d="M155.4,100.7c0,0-4,1.9-5.2,3.8"/>
				</g>
				<g>
					<path id="XMLID_6122_" class="st10" d="M141.4,92c0,0,34.5,19.8,0.4,34.3S118.3,73.9,141.4,92z"/>
					<path id="XMLID_6121_" class="st10" d="M135.2,124.2c0,0,6.1-0.9,6.5-2"/>
					<path id="XMLID_6120_" class="st10" d="M132.1,94.4c0,0-4,1.9-5.2,3.8"/>
				</g>
				<path id="XMLID_6119_" class="st2" d="M155.9,134.5c-1.3,0.7-3.1,1.9-3.8,3.1"/>
				<path id="XMLID_6118_" class="st2" d="M164.2,199.7c0,0-1,0.5-2.2,1.2"/>
				<path class="st0" d="M158,167.3c0,0,7.1-36.2-23.7-26c-5.5,1.9-9.4,6-12.1,11.4c0.4-0.1,0.7-0.3,1.1-0.4
					c30.6-10.2,23.7,26,23.7,26c2.2,24,0.9,38.7-3.2,47.7C156.1,220.7,161.4,206.2,158,167.3z"/>
				<path class="st0" d="M136.4,97c0,0,21.7,12.4,13.7,24.9c19.3-13.8-8.6-29.9-8.6-29.9c-7.3-5.7-13.3-2.9-17,3
					C127.7,93.2,131.8,93.4,136.4,97z"/>
			</g>
			<g>
				<g id="XMLID_6113_">
					<path id="XMLID_6115_" class="st1" d="M236.7,132.5c-43.4-32-77.4,8-77.4,8s-27.9,63.8,25.1,80.7
						C237.4,238.3,280.2,164.5,236.7,132.5z M214.2,176.9c-11.1,28.8-45-16.5-20.8-19.7C193.4,157.2,225.2,148.2,214.2,176.9z"/>
					<path id="XMLID_6114_" class="st1" d="M219.7,128.3c0,0,34-36.1,34.5,31.9s11.9,130-53.2,129.5c0,0-35.4-16.6,0.1-34
						c17.3-8.5,20.8-26.3,20.5-48.5"/>
				</g>
				<g id="XMLID_5195_">
					<path id="XMLID_6112_" class="st11" d="M198.4,149.7"/>
					<path id="XMLID_6109_" class="st11" d="M225.7,143.5c-43.4-32-77.4,8-77.4,8s-27.9,63.8,25.1,80.7
						C226.4,249.3,269.2,175.4,225.7,143.5z M203.1,187.9c-11.1,28.8-45-16.5-20.8-19.7C182.4,168.2,214.2,159.1,203.1,187.9z"/>
					<path id="XMLID_6108_" class="st11" d="M208.7,139.3"/>
					<path id="XMLID_6107_" class="st11" d="M208.7,139.3c0,0,34-36.1,34.5,31.9s11.9,130-53.2,129.5c0,0-35.4-16.6,0.1-34
						c17.3-8.5,20.8-26.3,20.5-48.5"/>
					<line id="XMLID_6106_" class="st3" x1="187" y1="291.9" x2="191.1" y2="293.6"/>
					<path id="XMLID_6105_" class="st11" d="M222,285.2c0,0,1.6,3.3-1,4.7"/>
					<path id="XMLID_6104_" class="st11" d="M239.5,251.1c0,0-0.7,3-1.6,4"/>
					<path id="XMLID_6103_" class="st11" d="M236.4,207.7c0,0,1.3-5.6,0-5.6"/>
					<path id="XMLID_5199_" class="st11" d="M161.7,221.8c0,0,5.2,0.7,4.7,1.6"/>
					<path id="XMLID_5198_" class="st11" d="M225.5,166c0,0,6.1-0.9,6.5-2"/>
					<path id="XMLID_5197_" class="st11" d="M162.3,149.1c0,0-4,1.9-5.2,3.8"/>
					<line id="XMLID_5196_" class="st3" x1="206" y1="196.3" x2="202.2" y2="198.5"/>
				</g>
				<path class="st0" d="M243.4,182.3c0.2-3.2,0.2-6.3-0.2-9.4c0-0.5,0-1.1,0-1.6c-0.5-53.4-21.6-42.5-30.5-35.5
					c-37-16.5-64.4,15.7-64.4,15.7s-0.3,0.7-0.8,1.9c11.2-8.1,30.7-17,54.1-6.7c9-7.1,30-17.9,30.5,35.5c0,0.5,0,1.1,0,1.6
					c0.4,3.1,0.4,6.3,0.2,9.4c0.9,40.8,4.1,78.3-10.2,99.7C248.9,275.7,244.6,231.4,243.4,182.3z"/>
				<path id="XMLID_5194_" class="st2" d="M244.3,127.9c0,0-4,1.9-5.2,3.8"/>
				<path id="XMLID_5193_" class="st2" d="M198.3,123.8c0,0-4,1.9-5.2,3.8"/>
				<path id="XMLID_5192_" class="st2" d="M192.2,187.8c0,0-4,1.9-5.2,3.8"/>
				<path id="XMLID_5191_" class="st2" d="M251.5,215.8c-1.2,0.7-2.8,1.8-3.5,2.9"/>
				<path id="XMLID_5190_" class="st2" d="M250.1,238.9c0,0-0.7,0.4-1.7,0.9"/>
			</g>
			<g>
				<g>
					<path id="XMLID_5189_" class="st1" d="M331,149.6L331,149.6c-5.7-15.2-18.2-27.1-37.2-29.2c-38-3.9-53.7,20.8-59.8,35.7
						c0,0-1.3,2.2-2.3,6.6c-0.8,2.6-1,4.8-0.8,5.8c-0.5,8.2,0.8,20.4,8.4,36.6c6.3,13.2,22.2,17.9,32.8,19.7c3,0.6,6.2,1,9.6,0.9
						c0.2,0,0.3,0,0.3,0l0,0c3.7-0.1,7.6-0.5,11.8-1.5c16.7-3.8,28.2-14.5,34.6-27.5c-1.1-15.2-14.1-17-21.9-18.2
						c-4.3-0.6-8.6,2-12,4.7c-0.4,0.3-0.7,0.6-1,0.9c-11.3,8.3-40.8-8.1-25.2-20.2c0,0,5.3-5.6,11.5-8.1l0,0c0,0,5.1-2.6,9.3-1.1
						c1.6,0.6,3.1,1.8,4.1,4c0,0.1,0.1,0.2,0.2,0.4c0.5,1,1.1,2.2,1.8,3.3c5.1,8.3,16.5,19.2,27,11.6c12.2-8.8,10.8-12.1,11.3-15.5
						l0,0C334.1,155.1,331,149.6,331,149.6z"/>
				</g>
				<g>
					<path id="XMLID_5188_" class="st7" d="M320,160.6L320,160.6c-5.7-15.2-18.2-27.1-37.2-29.2c-38-3.9-53.7,20.8-59.8,35.7
						c0,0-1.3,2.2-2.3,6.6c-0.8,2.6-1,4.8-0.8,5.8c-0.5,8.2,0.8,20.4,8.4,36.6c6.3,13.2,22.2,17.9,32.8,19.7c3,0.6,6.2,1,9.6,0.9
						c0.2,0,0.3,0,0.3,0l0,0c3.7-0.1,7.6-0.5,11.8-1.5c16.7-3.8,28.2-14.5,34.6-27.5c-1.1-15.2-14.1-17-21.9-18.2
						c-4.3-0.6-8.6,2-12,4.7c-0.4,0.3-0.7,0.6-1,0.9c-11.3,8.3-40.8-8.1-25.2-20.2c0,0,5.3-5.6,11.5-8.1l0,0c0,0,5.1-2.6,9.3-1.1
						c1.6,0.6,3.1,1.8,4.1,4c0,0.1,0.1,0.2,0.2,0.4c0.5,1,1.1,2.2,1.8,3.3c5.1,8.3,16.5,19.2,27,11.6c12.2-8.8,10.8-12.1,11.3-15.5
						l0,0C323.1,166.1,320,160.6,320,160.6z"/>
					<line id="XMLID_5187_" class="st3" x1="234.6" y1="215.3" x2="237.2" y2="218.8"/>
					<path id="XMLID_5186_" class="st7" d="M307,211.5c0,0,1.6,3.3-1,4.7"/>
					<path id="XMLID_5185_" class="st7" d="M319.5,169.5c0,0-0.7,3-1.6,4"/>
					<path id="XMLID_5184_" class="st7" d="M250.3,174.2c0,0,1.3-5.6,0-5.6"/>
					<path id="XMLID_5183_" class="st7" d="M278.7,157.6c0,0,5.2,0.7,4.7,1.6"/>
					<path id="XMLID_5182_" class="st7" d="M272.9,231.2c0,0,6.1-0.9,6.5-2"/>
					<path id="XMLID_5181_" class="st7" d="M241.5,149.8c0,0-4,1.9-5.2,3.8"/>
					<line id="XMLID_5180_" class="st3" x1="301.7" y1="183.5" x2="305.9" y2="182.3"/>
				</g>
				<path class="st0" d="M320,160.6L320,160.6c-5.7-15.2-18.2-27.1-37.2-29.2c-26.5-2.7-42.2,8.4-51.2,20.5
					c9.3-6.9,22.3-11.4,40.2-9.5c19.1,1.9,31.5,14,37.1,29.2l0,0c0,0,3.1,5.6,2.5,9l0,0c-0.2,1.5-0.1,3-0.9,4.9
					c0.2-0.1,0.4-0.2,0.6-0.4c12.2-8.8,10.8-12.1,11.3-15.5l0,0C323.1,166.1,320,160.6,320,160.6z"/>
				<path id="XMLID_5179_" class="st2" d="M329.3,155c0,0-4,1.9-5.2,3.8"/>
				<path id="XMLID_5178_" class="st2" d="M296.3,125c0,0-4,1.9-5.2,3.8"/>
				<path id="XMLID_5177_" class="st2" d="M269.2,185.9c0,0-4,1.9-5.2,3.8"/>
				<path id="XMLID_5176_" class="st2" d="M324.2,197c0,0-4,1.9-5.2,3.8"/>
			</g>
			<g>
				<g>
					<path id="XMLID_5175_" class="st1" d="M354.1,106.9c0,0-5-29-29.5-18.9s-12.6,120.4-1.3,129C334.6,225.6,366,278,354.1,106.9z"
						/>
				</g>
				<g>
					<path id="XMLID_5174_" class="st12" d="M343.1,117.9c0,0-5-29-29.5-18.9c-24.4,10.2-12.6,120.4-1.3,129
						C323.6,236.6,355,289,343.1,117.9z"/>
					<path id="XMLID_5173_" class="st12" d="M332.9,225c0,0,1.6,3.3-1,4.7"/>
					<path id="XMLID_5172_" class="st12" d="M340.9,172.9c0,0,0.4,3,0.1,4.3"/>
					<path id="XMLID_5171_" class="st12" d="M309.3,193.3c0,0,1.3-5.6,0-5.6"/>
					<path id="XMLID_5153_" class="st12" d="M316.5,105c0,0-4,1.9-5.2,3.8"/>
				</g>
				<path class="st0" d="M343.1,117.9c0,0-5-29-29.5-18.9c-3.5,1.5-6.3,5-8.4,10c22.2-7.1,26.9,19.8,26.9,19.8
					c4.6,65.4,2.7,98.2-1.8,113.2C341,244.3,350.5,224.3,343.1,117.9z"/>
				<path id="XMLID_5152_" class="st2" d="M348.5,189.9c1.3,0.1,2.7,0,3.7-0.4"/>
				<path id="XMLID_5145_" class="st2" d="M347.6,212.8c0,0,1.3,0.1,2.8,0.1"/>
				<path id="XMLID_5144_" class="st2" d="M348.8,102.9c0,0-4.4,0.7-6,2.3"/>
			</g>
		</g>
	</g>
	<path id="XMLID_3926_" class="st5" d="M258.3,274.3c-0.4,0.8-1.3,1.4-3.7,2c-2.4,0.6-3.1-3.3-3.1-3.7c-0.1-0.4,0.4-3.8,4.2-3
		C259.4,270.3,258.3,274.3,258.3,274.3z"/>
</g>
</svg>
