<?xml version="1.0" encoding="utf-8"?>
<!-- Generator: Adobe Illustrator 22.1.0, SVG Export Plug-In . SVG Version: 6.00 Build 0)  -->
<svg version="1.1" id="Layer_1" xmlns="http://www.w3.org/2000/svg" xmlns:xlink="http://www.w3.org/1999/xlink" x="0px" y="0px"
	 viewBox="0 0 326.8 681.4" style="enable-background:new 0 0 326.8 681.4;" xml:space="preserve">
<style type="text/css">
	.st0{fill:#A36B78;stroke:#584C4F;stroke-width:2;stroke-linecap:round;stroke-miterlimit:10;}
	.st1{fill:#A36B78;stroke:#584C4F;stroke-width:2;stroke-linecap:round;stroke-linejoin:round;stroke-miterlimit:10;}
	.st2{fill:#FFD767;stroke:#584C4F;stroke-width:2;stroke-miterlimit:10;}
	.st3{fill:#A36B78;}
	.st4{fill:none;stroke:#584C4F;stroke-width:2;stroke-linecap:round;stroke-miterlimit:10;}
	.st5{fill:#BEAB72;}
	.st6{fill:#584C4F;stroke:#584C4F;stroke-width:2;stroke-linecap:round;stroke-miterlimit:10;}
	.st7{opacity:0.1;fill:#231F20;stroke:#231F20;stroke-miterlimit:10;enable-background:new    ;}
	.st8{fill:#FFFFFF;stroke:#584C4F;stroke-width:2;stroke-linecap:round;stroke-miterlimit:10;}
</style>
<g id="Layer_5">
</g>
<g id="Layer_3">
</g>
<g>
	<g>
		<g id="XMLID_9651_">
			<path id="XMLID_9652_" class="st0" d="M107.1,314.6c-7.6,2.1-7.5-11,1.2-8.5"/>
		</g>
		<path id="XMLID_9650_" class="st0" d="M101.7,219.4c1.7,34.8,3.1,77.6,4.2,99.8c2.1,40.2-1.2,99.4-1.2,99.4l16.9-1.5
			c0,0-3.4-104.4,0-126.4c2.4-15.7-1.8-73.9-3.2-107.9"/>
		<g id="XMLID_9648_">
			<path id="XMLID_9649_" class="st0" d="M121.7,415c6.9,7.2,9,9.6,12.7,19s-9.9-13.5-9.1-10.1s13.6,68.6,3.1,28.5
				s-6.4-14.5-6.4-14.5c0,55-4.4,11-5.8,4.1s-10.4,36.7-8.8,15.1c1.7-21.5-0.1-23.4-3.6-5.4c-3.6,18-1.7-24.3-1.7-24.3
				s0.8-13.2,4.1-12.1"/>
		</g>
		<path id="XMLID_9647_" class="st0" d="M112.2,306.6c0,0,2.8,0.6,3,1.2"/>
		<path id="XMLID_9646_" class="st0" d="M111.8,313.3c0,0-2.2,0.4-2.8-1.4"/>
		<path id="XMLID_9645_" class="st1" d="M108.4,403.4c0,0-13.6,9.1,0,9.9"/>
	</g>
	<path id="XMLID_9644_" class="st2" d="M125.7,218.3c2.2,4.2-4.1,60.7-3.8,65.6c0.3,4.9-1.6,5.5-15.3,5s-7-90.3-1.5-98.4
		c2-2.9,9.6-5.6,18.7-8.1"/>
	<g>
		<path class="st0" d="M157.2,646c-1.2-1.4-2.9-2.9-4.8-4.8c-1.8-1.8-3.8-3.9-5.9-6.7c0.1,0,0.1-0.1,0.1-0.1s0,0,0-0.1
			c-0.2-0.5-1.2-2.8-2.8-6.3l-14.6,4.6l-0.8,0.3l-0.8,0.4c0.3,1.1,0.5,1.8,0.6,2.4c0,0,0,0.2,0,0.2c-0.1,0.1-0.1,0.3-0.1,0.4
			c-0.2,0.5-0.2,0.9-0.2,0.9s-0.4,0.8-1,2.1c2.4,10.7-2.1,19.4-8.9,26.2c0.4,0.8,1.1,1.4,2.2,1.9c0.3,0.1,0.7,0.3,1.1,0.3
			c1.4,0.3,3.4,0.2,5.7-0.3c1.8-0.4,3.8-0.9,6-1.6c1.4-0.5,2.8-0.9,4.3-1.5c1.1-0.4,2.3-0.8,3.5-1.3c1.1-0.5,2.3-1,3.4-1.6
			c1.5-0.7,2.8-1.3,4.1-2c2-1.1,3.8-2.1,5.4-3.1c2-1.4,3.5-2.6,4.2-3.9c0.2-0.4,0.4-0.7,0.5-1c0.6-1.4,0.5-2.5-0.1-3.7
			C158.1,647.2,157.7,646.6,157.2,646z"/>
		<path class="st0" d="M130.1,380.9c0,0,3.7,57.8,3.4,102.4c-0.2,5.2-0.2,10.1-0.2,14.5v0c-0.3,10.9,0.1,15.8,1.1,16.9
			C137.3,540.6,134,639,134,639l16.9,1.5c0,0-3.2-59.2-1.1-99.4s5.1-148,8.5-153.6"/>
		<g>
			<g id="XMLID_9642_">
				<path id="XMLID_9643_" class="st0" d="M106.1,672.3c0,0,5.4-2.9,5.2,2.5C111.1,680,102.7,677.3,106.1,672.3z"/>
			</g>
			<g id="XMLID_9640_">
				<path id="XMLID_9641_" class="st0" d="M109,670.3c0,0,5.9-3.2,5.8,2.7C114.6,679,105.3,675.9,109,670.3z"/>
			</g>
			<g id="XMLID_9638_">
				<path id="XMLID_9639_" class="st0" d="M112.5,667.6c0,0,6.9-3.7,6.7,3.2C119.1,677.7,108.2,674.2,112.5,667.6z"/>
			</g>
			<g id="XMLID_9636_">
				<path id="XMLID_9637_" class="st0" d="M117.1,664.5c0,0,7.9-4.2,7.7,3.7C124.6,676,112.1,672,117.1,664.5z"/>
			</g>
			<path id="XMLID_9635_" class="st0" d="M130.3,668.9c0,0-9.5,4.7-7.6-3.5c1.9-8.2,12.6-5.1,14.4-2.6
				C138.8,665.2,130.3,668.9,130.3,668.9z"/>
		</g>
		<path id="XMLID_9634_" class="st0" d="M144.2,506c0,0,2.3,0.1,2.3,2"/>
		<path id="XMLID_9633_" class="st0" d="M140.6,522.7c0,0-2.7-0.8-2.8-1.5"/>
		<g id="XMLID_9631_">
			<path id="XMLID_9632_" class="st0" d="M132.8,639.9c-3.7,7-13.1-2.3-5.2-6.7"/>
		</g>
		<g id="XMLID_9629_">
			<path id="XMLID_9630_" class="st0" d="M136.1,518.1c-7.6,2.1-7.4-11,1.2-8.5"/>
		</g>
	</g>
	<path class="st0" d="M215.4,342l-111.1-4.1c0,0,0.5,29.5,1.3,40.6c0.1,1,0.1,2.1,0.2,3.1c0.1,0.4,0.1,0.7,0.2,0.9l0.1,0
		c3.1,17,22.5,32,53.2,32.5c50.1,0.8,51.4-14.5,51.4-14.5c2.4-4.5,3.9-8.9,4.4-13c0.1,0,0.2,0,0.2,0S217.2,350.9,215.4,342z"/>
	<g>
		<path class="st2" d="M221.8,314.3c-0.1-0.8-0.2-1.5-0.3-2.2c-0.9-6-1.6-10.5-1.9-11.9c-1.4-7.3-4.4-87.8-5.9-101
			c-0.1-0.4-0.1-0.9-0.2-1.3c-0.8-3.7-3.3-6.7-6.4-9c-4.2-3.2-9.5-5.2-13-6.2c-6.7-5.6-20.4-9.4-39.2-8.6
			c-17.8,0.8-45.2,1.1-46.6,27.9c-0.2,3.1-0.2,6.5-0.1,10.4c1.4,36.2,1.4,95-2.3,110.6c-0.2,0.8-0.4,1.5-0.6,2
			c-3.2,8.5-7.1,29.9-3,37.9c0.1,0.1,0.1,0.2,0.2,0.3c1.6,2.8,4.3,3.7,8.7,1.4c0,0,5.4-1.3,9.4-1.2l77.2,4c3.2,0.5,6.1,1,8.4,1.5
			C228.6,385.4,225.1,339.2,221.8,314.3z"/>
		<path class="st2" d="M108.3,209.8c0,0.9,0.1,1.7,0.1,2.6c1.4,36.2,1.4,95-2.3,110.6c-0.2,0.8-0.4,1.5-0.6,2
			c-3.2,8.5-7.1,29.9-3,37.9c0.1,0.1,0.1,0.2,0.2,0.3c1.6,2.8,4.3,3.7,8.7,1.4"/>
		<path class="st2" d="M120.7,363.3l77.2,4c3.2,0.5,6.1,1,8.4,1.5c22.3,16.5,18.9-29.7,15.6-54.5c-0.1-0.8-0.2-1.5-0.3-2.2
			c-0.9-6-1.6-10.5-1.9-11.9c-1.4-7.3-4.4-87.8-5.9-101c-0.1-0.4-0.1-0.9-0.2-1.3c-0.8-3.7-3.3-6.7-6.4-9c-4.2-3.2-9.5-5.2-13-6.2
			c-6.7-5.6-20.4-9.4-39.2-8.6c-16.4,0.7-40.8,1-45.8,21.9"/>
	</g>
	<path id="XMLID_9628_" class="st0" d="M216.7,256.7c0,0-8.7,93.6-5.1,107.3"/>
	<g>
		<path id="XMLID_9627_" class="st3" d="M176.1,171.8c0.2-3.4-0.9-13.4-1.1-16.6c-0.2-2.9-0.6-5.4-1.2-7.6
			c11.4-19.4-20.1-41.8-31.3-16.8c-3.5,7.8-3.1,22.9-3,25.5c0.1,3.4,0.1,14.6,0.1,17.5c0.1,16.3,24.2,29.2,33.8,8"/>
		<path id="XMLID_9626_" class="st4" d="M168,189.4c-11.1,9.6-28.4-1.8-28.4-15.5c0-2.9-0.1-14.1-0.2-17.5c-0.1-2.6-0.5-17.7,3-25.5
			c11.2-25,42.7-2.7,31.3,16.8c0.6,2.1,1.1,4.6,1.2,7.6c0.2,3.2,1.4,13.1,1.1,16.6l-2.8,10.1c-0.5,1.1-1.1,2.2-1.6,3.1"/>
	</g>
	<g>
		<path class="st0" d="M193.8,380.9c0,0-3.6,57.8-3.4,102.4c0.1,5.2,0.2,10.1,0.2,14.5v0c0.3,10.9-0.1,15.8-1.1,16.9
			c-2.9,25.8,0.3,124.2,0.3,124.2l-16.9,1.5c0,0,3.2-59.2,1.1-99.4s-5.1-148-8.5-153.6"/>
		<path id="XMLID_9625_" class="st0" d="M184.7,508c0,0-1.2-2-2.9-1"/>
		<path id="XMLID_9624_" class="st0" d="M177.9,523.1c0,0,2.7-0.8,2.9-1.5"/>
		<g id="XMLID_9622_">
			<path id="XMLID_9623_" class="st0" d="M178.9,629c3.7-7,13.1,2.3,5.2,6.7"/>
		</g>
		<g id="XMLID_9620_">
			<path id="XMLID_9621_" class="st0" d="M177.2,512.1c-6.1-5-11.2,7.1-2.2,8.2"/>
		</g>
		<g>
			<path class="st0" d="M196,648.8c-1.2-1.4-2.9-2.9-4.8-4.8c-1.8-1.8-3.8-3.9-5.9-6.7c0.1,0,0.1-0.1,0.1-0.1s0,0,0-0.1
				c-0.2-0.5-1.2-2.8-2.8-6.3l-14.6,4.6l-0.8,0.3l-0.8,0.4c0.3,1.1,0.5,1.8,0.6,2.4c0,0,0,0.2,0,0.2c-0.1,0.1-0.1,0.3-0.1,0.4
				c-0.2,0.5-0.2,0.9-0.2,0.9s-0.4,0.8-1,2.1c2.4,10.7-2.1,19.4-8.9,26.2c0.4,0.8,1.1,1.4,2.2,1.9c0.3,0.1,0.7,0.3,1.1,0.3
				c1.4,0.3,3.4,0.2,5.7-0.3c1.8-0.4,3.8-0.9,6-1.6c1.4-0.5,2.8-0.9,4.3-1.5c1.1-0.4,2.3-0.8,3.5-1.3c1.1-0.5,2.3-1,3.4-1.6
				c1.5-0.7,2.8-1.3,4.1-2c2-1.1,3.8-2.1,5.4-3.1c2-1.4,3.5-2.6,4.2-3.9c0.2-0.4,0.4-0.7,0.5-1c0.6-1.4,0.5-2.5-0.1-3.7
				C196.9,650,196.5,649.4,196,648.8z"/>
			<g>
				<g id="XMLID_9618_">
					<path id="XMLID_9619_" class="st0" d="M144.9,675c0,0,5.4-2.9,5.2,2.5C149.9,682.8,141.5,680.1,144.9,675z"/>
				</g>
				<g id="XMLID_9616_">
					<path id="XMLID_9617_" class="st0" d="M147.9,673.1c0,0,5.9-3.2,5.8,2.7C153.5,681.7,144.1,678.7,147.9,673.1z"/>
				</g>
				<g id="XMLID_9614_">
					<path id="XMLID_9615_" class="st0" d="M151.3,670.4c0,0,6.9-3.7,6.7,3.2C157.9,680.5,147,677,151.3,670.4z"/>
				</g>
				<g id="XMLID_9612_">
					<path id="XMLID_9613_" class="st0" d="M155.9,667.3c0,0,7.9-4.2,7.7,3.7C163.4,678.8,150.9,674.7,155.9,667.3z"/>
				</g>
				<path id="XMLID_9611_" class="st0" d="M169.1,671.6c0,0-9.5,4.7-7.6-3.5s12.6-5.1,14.4-2.6C177.6,667.9,169.1,671.6,169.1,671.6
					z"/>
			</g>
		</g>
	</g>
	<g>
		<g id="XMLID_9609_">
			<path id="XMLID_9610_" class="st0" d="M208.6,306.7c6.1-5,11.2,7.1,2.2,8.2"/>
		</g>
		<path id="XMLID_9608_" class="st0" d="M215.6,237.7c-1.3,30.4-2.4,63.1-3.4,81.4c-2.1,40.2,1.1,99.4,1.1,99.4l-16.9-1.5
			c0,0,3.4-104.4,0-126.4c-2-12.6,0.4-52.4,2.1-85.2"/>
		<path id="XMLID_9607_" class="st0" d="M205.6,306.9c0,0,2.3,0.1,2.3,2"/>
		<path id="XMLID_9606_" class="st0" d="M204.9,313.4c0,0-2.7-0.9-2.9-1.5"/>
		<g id="XMLID_9593_">
			<path id="XMLID_9605_" class="st3" d="M192.7,445.9c2.9,0.8,4.9,0.9,6.4,0.8c-0.8,10.8,4.4,7.6,6.9,5.5l1.1,0.5
				c3.4,6.4,7.6,0.1,8.9-2l0.1,1.5c5.6,2.9,5.3-3.2,4.8-6.5c0.6,1,2,2,5.9,1.9c7.3-0.1-14.1-35.1-14.1-35.1l-16.2,3.8
				C196.5,416.2,177.9,442.1,192.7,445.9z"/>
			<path id="XMLID_9604_" class="st0" d="M196.5,416.2c0,0-18.6,25.9-3.8,29.6c2.9,0.8,4.9,0.9,6.4,0.8c-0.8,10.8,4.4,7.6,6.9,5.5
				l1.1,0.5c3.4,6.4,7.6,0.1,8.9-2l0.1,1.5c5.6,2.9,5.3-3.2,4.8-6.5c0.6,1,2,2,5.9,1.9c7.3-0.1-14.1-35.1-14.1-35.1"/>
			<g id="XMLID_9597_">
				<g id="XMLID_9599_">
					<path id="XMLID_9603_" class="st1" d="M212.7,412.5c0,0,21.4,35,14.1,35.1c-7.3,0.1-6.1-3.5-6.2-3.8c0,0,3.1,12.2-4.4,8.4"/>
					<path id="XMLID_9602_" class="st1" d="M216.2,450c0,0-5.2,10.5-9.4,2.1"/>
					<path id="XMLID_9601_" class="st1" d="M196.5,416.2c0,0-18.6,25.9-3.8,29.6s7.4-6.6,3.2-6.2"/>
					<path id="XMLID_9600_" class="st1" d="M207.3,450.9c0,0-9.8,10.4-8.1-5.5l0.5-8"/>
				</g>
				<path id="XMLID_9598_" class="st1" d="M210.1,411.5c0,0,10-10.1,0-10.9"/>
			</g>
			<path id="XMLID_9596_" class="st0" d="M206.4,436.9c0,0-0.4,4.9,0.4,7.5"/>
			<path id="XMLID_9595_" class="st0" d="M214.3,442.7c0,0,0.1,3.5,0.9,3.5"/>
			<path id="XMLID_9594_" class="st1" d="M215.2,428.7c0.7,2.2,3.6,7,3.6,7"/>
		</g>
	</g>
	<path id="XMLID_9592_" class="st2" d="M190.9,221.3c-2.2,4.2,4.1,60.6,3.8,65.5c-0.3,4.9,1.6,5.5,15.3,5c13.7-0.5,7-90.3,1.4-98.4
		c-1.9-2.9-9.6-5.6-18.7-8.1"/>
	<g>
		<path class="st5" d="M185.6,207.9c0,0-13.7-5.1-14.6-0.4c-0.9,4.8-5.4,20.1,2.8,21.1c8.1,1.1,11.8,0.8,12.1-6.1
			S185.6,207.9,185.6,207.9z"/>
		<g>
			<path id="XMLID_9591_" class="st0" d="M185,208.3c0,0,1.8,1.4,0.8,2.9"/>
			<path id="XMLID_9590_" class="st0" d="M172.6,207.6c0,0-2.5,1.2-3.2,2.4"/>
			<path id="XMLID_9589_" class="st0" d="M185.4,219.3c0,0,0.8-2.6,0.3-4"/>
			<path id="XMLID_9588_" class="st0" d="M171.9,227.8c0,0,2.6,1.1,3.9,0.8"/>
			<path id="XMLID_9587_" class="st0" d="M183.8,225.8c0,0-0.9,2.1-2.6,1.4"/>
			<path id="XMLID_9586_" class="st0" d="M169.8,214.9c0,0-0.4,1.9-0.9,2.4"/>
			<line id="XMLID_9585_" class="st4" x1="179.6" y1="207.1" x2="176.9" y2="207"/>
			<path id="XMLID_9584_" class="st0" d="M168.9,222c0,0-0.6,2.7-0.1,4"/>
		</g>
		<g>
			<path id="XMLID_9583_" class="st0" d="M138.8,396.3c0,0-1.7-2.9-0.4-4.6"/>
			<path id="XMLID_9582_" class="st0" d="M142.6,383.9c0,0-1.9,2-2.2,3.4"/>
			<path id="XMLID_9581_" class="st0" d="M141.5,401c0,0,0.8,2.6,1.8,3.5"/>
		</g>
	</g>
	<g id="XMLID_9525_">
		<g id="XMLID_9577_">
			<path id="XMLID_9580_" class="st0" d="M119.2,90.6c0,0-17.5-23.2-18-5.1c-0.4,18.1,4.5,37.6,11,35.2s6.6-7.8,6.6-7.8"/>
			<path id="XMLID_9579_" class="st0" d="M113.4,91.8c0,0-6.8-10.6-8.6-5.6"/>
			<path id="XMLID_9578_" class="st0" d="M116,99.2c0,0-10.1-2.7-8.6,3.2c1.4,5.8,5.1,9.7,6.8,3.2"/>
		</g>
		<path id="XMLID_9576_" class="st6" d="M171.7,9.2c0,0-6.6,5.8,1.6,8.4S178.8,6.3,171.7,9.2z"/>
		<path id="XMLID_9575_" class="st0" d="M157.8,23.3c0,0,52.4,3.8,45.2,65.7s-5.4,73.3-35,79.6s-45.8-15.4-49.1-31.9
			S92,31.4,157.8,23.3z"/>
		<path class="st7" d="M182.4,32.4c6.6,9.8,10.7,23.8,8.3,44.3c-7.4,61.9-5.4,73.3-34.9,79.6c-12.7,2.7-22.9,0.3-30.7-4.6
			c7.7,11.8,21.9,21.4,42.8,16.9c29.6-6.3,27.6-17.6,34.9-79.6C206.7,57.4,194.9,41,182.4,32.4z"/>
		<path id="XMLID_9574_" class="st2" d="M200,38.1c-0.2-2-1.1-4.6-2.9-8c0,0-0.1,0-0.1,0l0,0c-0.4-0.7-0.8-1.4-1.3-2.1
			c-5.9-9.2-15.4-14.5-24.2-17.2C133.9-6.2,130.1,29.5,130,43c0,1.3,16.9-0.2,32.4-4c19.6,7.9,38.1,16.7,38.1,16.7
			S201.8,44.2,200,38.1z"/>
		<path id="XMLID_9573_" class="st0" d="M152.4,94.3c0,0,9.4,7,21.5,2.7"/>
		<path id="XMLID_9572_" class="st0" d="M129.5,94.6c0,0-15.1,3.2-18.3,1.8"/>
		<path id="XMLID_9571_" class="st0" d="M139.5,163.2c0,0-6.2,5.8,6.7,8.3s21.3-0.9,18.8-5.7"/>
		<path id="XMLID_9570_" class="st2" d="M120.7,47.9c0,0,20.1-8.2,43.6-3s35.9,10.7,35.9,10.7c-7.6-26-53.2-26.1-76.2-24.7
			C100.9,32.4,107,41.2,107,41.2S110.5,45.4,120.7,47.9z"/>
		<path id="XMLID_9569_" class="st0" d="M120.7,47.9c0,0-39.8-11,15.3-13.5s64.2,21.2,64.2,21.2S149.3,33.6,120.7,47.9z"/>
		<g>
			<path id="XMLID_9568_" class="st0" d="M149,98.9c0,0-9.4-11.8-9.2-18.3"/>
			<g id="XMLID_9565_">
				<path id="XMLID_9567_" class="st0" d="M132.6,100.2c0.3,3.1,1.3,5.2,3.3,5.7c1.1,0.2,2.1,0.2,2.9-0.1c0.6-0.2,1.1-0.4,1.6-0.6"
					/>
				<path id="XMLID_9566_" class="st0" d="M142.8,62.8c0,0-7.2,19.3-9.2,32.8"/>
			</g>
			<g id="XMLID_9559_">
				<path id="XMLID_9564_" class="st0" d="M129.2,101.8c0,0-6.9,8.1,4.2,10.4"/>
				<path id="XMLID_9563_" class="st0" d="M148.4,101.8c0,0,7.4,6.2-3.1,10.4"/>
				<path id="XMLID_9562_" class="st0" d="M142.9,106.9c1.1,0.3,2.6-1.9,3.8,0c1.2,1.9-0.1,1.3-1.7,1.8
					C143.4,109.1,141.8,106.6,142.9,106.9z"/>
				<path id="XMLID_9561_" class="st0" d="M132.3,109.7c-2.1-0.1-2.6-1.8-1.5-2.7c0.4-0.3,1.6,0.2,2.8,0.9
					C134.4,108.4,132.3,109.7,132.3,109.7z"/>
				<path id="XMLID_9560_" class="st0" d="M139.8,97.6c0,0,2.2-0.1,2.7,0.7"/>
			</g>
			<path id="XMLID_9558_" class="st0" d="M125.1,106.8c0,0-6.1,3.1-7.8,3.7"/>
			<path id="XMLID_9557_" class="st0" d="M152.8,105.2c0,0,7.1,3.4,7.8,3.3"/>
		</g>
		<path id="XMLID_9556_" class="st0" d="M183,74.8c0,0,1,2.1-0.6,3"/>
		<path id="XMLID_9555_" class="st0" d="M177.5,95.8c0,0-0.4,1.8-1,2.5"/>
		<path id="XMLID_9554_" class="st0" d="M178.1,59.3c0,0,0.8-3.5,0-3.5"/>
		<path id="XMLID_9553_" class="st0" d="M127,47.4c0,0,3.3,0.5,2.9,1"/>
		<path id="XMLID_9552_" class="st0" d="M147.2,53.6c0,0,3.8-0.5,4.1-1.3"/>
		<path id="XMLID_9551_" class="st0" d="M128.4,147.9c0,0,2.8,0.6,3,1.2"/>
		<path id="XMLID_9550_" class="st0" d="M151.8,149.1c0,0-2.6,1.2-3.3,2.4"/>
		<path id="XMLID_9549_" class="st0" d="M125.8,87.5"/>
		<path id="XMLID_9548_" class="st0" d="M144.1,89.6"/>
		<line id="XMLID_9547_" class="st4" x1="170.3" y1="110" x2="173" y2="109.3"/>
		<path id="XMLID_9546_" class="st0" d="M195.6,97.2c0,0,19.4-21.6,18.4-3.6c-1.1,18-7.7,37.1-13.9,34.1c-6.2-3-5.9-8.3-5.9-8.3"/>
		<path id="XMLID_9545_" class="st0" d="M201.2,98.9c0,0,7.7-10,9-4.8"/>
		<path id="XMLID_9544_" class="st0" d="M198,106c0,0,10.2-1.8,8.3,3.9s-5.9,9.2-7.1,2.7"/>
		<g>
			<path id="XMLID_9543_" class="st8" d="M113.3,55.7c0,0,35.8-3.5,22.8,25.4S83.3,75.8,113.3,55.7z"/>
			<path id="XMLID_9542_" class="st6" d="M114.9,70.6c0,0,5.3-2.2,4.8,3.4S111.2,75.4,114.9,70.6z"/>
			<path id="XMLID_9541_" class="st8" d="M153.1,59.7c0,0-26.2,23.1,6.4,33.7S181.6,48,153.1,59.7z"/>
			<path id="XMLID_9540_" class="st6" d="M171.3,73.8c0,0,5.4-2.2,4.8,3.4S167.6,78.6,171.3,73.8z"/>
			<path id="XMLID_9539_" class="st6" d="M155.2,55.1c0,0-12.1,1.4-3.4,9.9s25.2,0.3,24.3-2.7C175.1,59.3,173.6,54.2,155.2,55.1z"/>
			<path id="XMLID_9538_" class="st6" d="M120.1,50c0,0-18.6-1-10,9.3s23.9-0.2,25.1-4.7S120.1,50,120.1,50z"/>
			<g id="XMLID_9535_">
				<path id="XMLID_9537_" class="st0" d="M174.9,92.4c0.2,0.1,0.4,0.2,0.7,0.2c0.9,0.2,1.8,0.3,2.8-0.7c2.2-2.4-2.9-3.2-2.9-3.2
					l-5.7-0.4c0,0-12.1-0.8-19.1,1.1c0,0,10.5,5.6,16.9,5.2c0.8-0.1,1.4-0.2,2.1-0.4C170.2,94,173.8,92.1,174.9,92.4z"/>
				<path id="XMLID_9536_" class="st0" d="M117.2,85.4c0,0,7.1-1.3,14.9,1.1c0,0-3.9,8.4-16.4,4.6c-4.1-1.2-4.9,1.1-7.2-1.3
					c-2.2-2.4,2.9-3.2,2.9-3.2L117.2,85.4z"/>
			</g>
		</g>
		<g id="XMLID_9530_">
			<path id="XMLID_9534_" class="st6" d="M125.5,126.4c0,0-19.2,2.5-8.5,9.5C127.7,142.8,125.5,126.4,125.5,126.4z"/>
			<path id="XMLID_9533_" class="st6" d="M122.7,120.8c0,0-15.8-0.8-8.6,7.3c7.3,8.2,20.3-0.2,21.4-3.7S122.7,120.8,122.7,120.8z"/>
			<path id="XMLID_9532_" class="st6" d="M154.4,124.8c0,0-7.7-2.6-6.4,7.2c1.3,9.8,14.7,8.1,15.5,5.3S165.6,129.8,154.4,124.8z"/>
			<path id="XMLID_9531_" class="st6" d="M147.8,122.2c0,0-22.5-2.8-0.3,8S173.4,125.6,147.8,122.2z"/>
		</g>
		<g id="XMLID_9526_">
			<path id="XMLID_9529_" class="st0" d="M127.7,135.8c0,0,11.8,11.6,18.3,0"/>
			<path id="XMLID_9528_" class="st0" d="M130.4,134c0,0,3.2-3.4,5.7,0"/>
			<path id="XMLID_9527_" class="st0" d="M141.7,134c0,0-3.2-3.4-5.6,0"/>
		</g>
	</g>
	<path id="XMLID_9524_" class="st0" d="M170.6,192.3c0.9-0.3,1.7-0.9,2.4-2.2"/>
	<path id="XMLID_9523_" class="st0" d="M138.9,185.4c0,0,0.2,1.1,1,2.1"/>
	<path id="XMLID_9522_" class="st0" d="M146,194.9c0.2,0.1,0.6,0.3,0.9,0.4"/>
	<path id="XMLID_9521_" class="st2" d="M119.1,337.8c0,0,2.8-93.9-1.7-107.4"/>
</g>
</svg>
