<?xml version="1.0" encoding="utf-8"?>
<!-- Generator: Adobe Illustrator 22.1.0, SVG Export Plug-In . SVG Version: 6.00 Build 0)  -->
<svg version="1.1" id="Layer_1" xmlns="http://www.w3.org/2000/svg" xmlns:xlink="http://www.w3.org/1999/xlink" x="0px" y="0px"
	 viewBox="0 0 259.2 642.9" style="enable-background:new 0 0 259.2 642.9;" xml:space="preserve">
<style type="text/css">
	.st0{fill:#A36B78;stroke:#584C4F;stroke-width:2;stroke-linecap:round;stroke-miterlimit:10;}
	.st1{fill:#A36B78;stroke:#584C4F;stroke-width:2;stroke-linecap:round;stroke-linejoin:round;stroke-miterlimit:10;}
	.st2{fill:#FFD767;stroke:#584C4F;stroke-width:2;stroke-miterlimit:10;}
	.st3{fill:#A36B78;}
	.st4{fill:none;stroke:#584C4F;stroke-width:2;stroke-linecap:round;stroke-miterlimit:10;}
	.st5{fill:#BEAB72;}
	.st6{fill:#584C4F;stroke:#584C4F;stroke-width:2;stroke-linecap:round;stroke-miterlimit:10;}
	.st7{opacity:0.1;fill:#231F20;stroke:#231F20;stroke-miterlimit:10;enable-background:new    ;}
	.st8{fill:#FFFFFF;stroke:#584C4F;stroke-width:2;stroke-linecap:round;stroke-miterlimit:10;}
</style>
<g id="Layer_5">
</g>
<g id="Layer_3">
</g>
<g>
	<g>
		<path class="st0" d="M60.4,631.1c-0.6-1.8-1.6-3.8-2.6-6.3c-1-2.3-2.1-5.1-2.9-8.5c0.1,0,0.2,0,0.2,0s0,0,0-0.1
			c0-0.5-0.1-3-0.2-6.9L39.7,608l-0.8,0l-0.8,0c-0.1,1.1-0.2,1.9-0.3,2.4c0,0-0.1,0.2-0.1,0.2c-0.1,0.1-0.2,0.2-0.2,0.3
			c-0.3,0.4-0.6,0.7-0.6,0.7s-0.7,0.6-1.7,1.6c-1.9,10.8-9.4,17.1-18.2,20.8c0.1,0.9,0.5,1.8,1.3,2.5c0.2,0.2,0.6,0.5,0.9,0.8
			c1.2,0.8,3.1,1.5,5.4,2c1.8,0.3,3.8,0.7,6.2,0.8c1.4,0.1,2.9,0.2,4.6,0.3c1.2,0,2.4,0.1,3.7,0.2c1.2,0,2.5,0,3.7-0.2
			c1.6,0,3.1-0.2,4.6-0.3c2.3-0.2,4.3-0.5,6.2-0.8c2.3-0.5,4.2-1.1,5.4-2c0.3-0.2,0.7-0.5,0.9-0.8c1.1-1,1.4-2.2,1.3-3.4
			C60.8,632.6,60.7,631.9,60.4,631.1z"/>
		<path class="st0" d="M53.1,514.5c0-0.2,0-0.4,0-0.7c45.5-16.7,114.5-42.6,119.9-41.7l-4.7-28.5c0,0-52,25.5-93.4,42.3
			c-4.9,1.9-9.5,3.7-13.5,5.3l0,0c-2.9,1.1-5.4,2.1-7.4,3c-5,2.2-7.4,3.6-7.8,4.5c-2,1.1-4.6,2.4-7.6,3.9c0.2,4.9,0.3,10.5,0.3,16.5
			c0.3,38.5-1.5,93.4-1.5,93.4l16.9,1.5C54.3,613.9,51.1,554.7,53.1,514.5z"/>
		<g>
			<g id="XMLID_11505_">
				<path id="XMLID_11506_" class="st0" d="M3.2,635.8c0,0,6-0.6,3.8,4.3C4.9,644.9-1.9,639.2,3.2,635.8z"/>
			</g>
			<g id="XMLID_11503_">
				<path id="XMLID_11504_" class="st0" d="M6.7,635.1c0,0,6.7-0.7,4.3,4.8C8.5,645.3,1,638.9,6.7,635.1z"/>
			</g>
			<g id="XMLID_11501_">
				<path id="XMLID_11502_" class="st0" d="M10.9,634c0,0,7.8-0.8,5,5.5C13.1,645.8,4.4,638.4,10.9,634z"/>
			</g>
			<g id="XMLID_11499_">
				<path id="XMLID_11500_" class="st0" d="M16.3,632.8c0,0,8.9-0.8,5.7,6.3C18.8,646.4,8.8,637.9,16.3,632.8z"/>
			</g>
			<path id="XMLID_11498_" class="st0" d="M26.8,641.9c0,0-10.6,0.7-5.7-6.2s13.6,0.2,14.3,3.1C36.1,641.8,26.8,641.9,26.8,641.9z"
				/>
		</g>
		<path id="XMLID_11497_" class="st0" d="M50,498.5c0,0,2.3,0.1,2.3,2"/>
		<path id="XMLID_11496_" class="st0" d="M46.4,515.1c0,0-2.7-0.8-2.8-1.5"/>
		<g id="XMLID_11494_">
			<path id="XMLID_11495_" class="st0" d="M40.2,616.2c-6.1,5-11.2-7.1-2.2-8.2"/>
		</g>
		<g id="XMLID_11492_">
			<path id="XMLID_11493_" class="st0" d="M41.9,510.5c-7.6,2.1-7.4-11,1.2-8.5"/>
		</g>
	</g>
	<g>
		<g>
			<g id="XMLID_11759_">
				<path id="XMLID_11760_" class="st0" d="M136.7,379.4c-7.6,2.1-7.5-11,1.2-8.5"/>
			</g>
			<path id="XMLID_11758_" class="st0" d="M131.3,284.1c1.7,34.8,3.1,77.6,4.2,99.8c2.1,40.2-1.2,99.4-1.2,99.4l16.9-1.5
				c0,0-3.4-104.4,0-126.4c2.4-15.7-1.9-73.9-3.2-107.8"/>
			<g id="XMLID_11753_">
				<path id="XMLID_11754_" class="st0" d="M151.2,479.7c6.9,7.2,9,9.6,12.8,19s-9.9-13.5-9.1-10.1s13.6,68.6,3.1,28.6
					c-10.5-40.1-6.4-14.6-6.4-14.6c0,55.1-4.4,11-5.8,4.1c-1.3-6.9-10.4,36.7-8.8,15.2c1.6-21.6-0.1-23.4-3.6-5.4
					c-3.6,18-1.7-24.3-1.7-24.3s0.8-13.2,4.1-12.1"/>
			</g>
			<path id="XMLID_11752_" class="st0" d="M141.7,371.4c0,0,2.8,0.6,3,1.2"/>
			<path id="XMLID_11748_" class="st0" d="M141.3,378c0,0-2.2,0.4-2.8-1.4"/>
			<path id="XMLID_11747_" class="st1" d="M137.9,468.1c0,0-13.6,9.1,0,9.9"/>
		</g>
		<path id="XMLID_11746_" class="st2" d="M155.3,283.1c2.2,4.2-4.1,60.6-3.8,65.5c0.3,4.9-1.6,5.5-15.3,5s-7-90.3-1.4-98.4
			c1.9-2.9,9.6-5.6,18.7-8.1"/>
		<path class="st0" d="M244.9,406.8l-111.1-4.1c0,0,0.6,29.5,1.3,40.6c0.1,1,0.1,2.1,0.2,3.1c0.1,0.4,0.1,0.7,0.1,0.9l0.1,0
			c3.1,17,22.5,32,53.2,32.5c50.1,0.8,51.4-14.5,51.4-14.5c2.4-4.5,3.9-8.9,4.4-13c0.1,0,0.2,0,0.2,0S246.8,415.7,244.9,406.8z"/>
		<g>
			<path class="st2" d="M251.4,379.1c-0.1-0.8-0.2-1.5-0.3-2.2c-0.9-6-1.6-10.5-1.9-11.9c-1.4-7.3-4.4-87.8-5.9-101
				c-0.1-0.4-0.1-0.9-0.2-1.3c-0.8-3.7-3.3-6.7-6.4-9c-4.2-3.2-9.5-5.2-13-6.2c-6.7-5.6-20.4-9.4-39.2-8.6
				c-17.8,0.8-45.2,1.1-46.6,27.8c-0.1,3.1-0.2,6.5-0.1,10.4c1.4,36.2,1.4,95-2.3,110.6c-0.2,0.8-0.4,1.5-0.6,2
				c-3.1,8.5-7.1,29.9-2.9,37.9c0.1,0.1,0.1,0.2,0.2,0.3c1.6,2.8,4.4,3.7,8.7,1.4c0,0,5.4-1.3,9.4-1.2l77.2,4c3.2,0.5,6.1,1,8.4,1.5
				C258.1,450.2,254.7,404,251.4,379.1z"/>
			<path class="st2" d="M137.8,274.5c0,0.9,0.1,1.7,0.1,2.6c1.4,36.2,1.4,95-2.4,110.6c-0.2,0.8-0.4,1.5-0.6,2
				c-3.2,8.5-7.1,29.9-3,37.9c0.1,0.1,0.1,0.2,0.2,0.3c1.6,2.8,4.3,3.7,8.6,1.4"/>
			<path class="st2" d="M150.2,428.1l77.1,4c3.2,0.5,6.1,1,8.4,1.5c22.3,16.5,18.9-29.7,15.6-54.5c-0.1-0.8-0.2-1.5-0.3-2.2
				c-0.9-6-1.6-10.5-1.9-11.9c-1.4-7.3-4.4-87.8-5.9-101c-0.1-0.4-0.1-0.9-0.2-1.3c-0.8-3.7-3.3-6.7-6.4-9c-4.2-3.2-9.5-5.2-13-6.2
				c-6.7-5.6-20.4-9.4-39.2-8.6c-16.3,0.7-40.8,1-45.8,21.8"/>
		</g>
		<path id="XMLID_11745_" class="st0" d="M246.3,321.4c0,0-8.7,93.6-5.1,107.3"/>
		<g>
			<path id="XMLID_11744_" class="st3" d="M205.7,236.6c0.2-3.4-0.9-13.4-1.1-16.6c-0.2-2.9-0.6-5.4-1.2-7.6
				c11.4-19.4-20.1-41.8-31.3-16.8c-3.5,7.8-3.1,22.9-3,25.5c0.1,3.4,0.2,14.6,0.2,17.5c0.1,16.3,24.2,29.2,33.8,8"/>
			<path id="XMLID_11743_" class="st4" d="M197.6,254.2c-11.1,9.6-28.4-1.8-28.4-15.5c0-2.9-0.1-14.1-0.1-17.5
				c-0.1-2.6-0.5-17.7,3-25.5c11.2-25,42.7-2.7,31.3,16.8c0.6,2.1,1.1,4.6,1.2,7.6c0.2,3.2,1.4,13.1,1.1,16.6l-2.8,10.1
				c-0.5,1.1-1.1,2.2-1.6,3.1"/>
		</g>
		<g>
			<g id="XMLID_11741_">
				<path id="XMLID_11742_" class="st0" d="M238.2,371.4c6.1-5,11.2,7.1,2.2,8.2"/>
			</g>
			<path id="XMLID_11740_" class="st0" d="M245.2,302.5c-1.3,30.4-2.4,63-3.4,81.4c-2.1,40.2,1.1,99.4,1.1,99.4l-16.9-1.5
				c0,0,3.4-104.4,0-126.4c-2-12.6,0.4-52.4,2.1-85.2"/>
			<path id="XMLID_11739_" class="st0" d="M235.1,371.7c0,0,2.3,0.1,2.3,2"/>
			<path id="XMLID_11738_" class="st0" d="M234.4,378.1c0,0-2.7-0.9-2.9-1.5"/>
			<g id="XMLID_11725_">
				<path id="XMLID_11737_" class="st3" d="M222.2,510.6c2.9,0.8,4.9,0.9,6.4,0.8c-0.8,10.8,4.4,7.6,6.9,5.5l1.1,0.5
					c3.4,6.3,7.6,0.1,8.9-2l0.1,1.5c5.6,2.8,5.3-3.2,4.8-6.5c0.6,1,2,2,5.9,1.9c7.3-0.1-14.1-35.1-14.1-35.1L226,481
					C226,481,207.4,506.9,222.2,510.6z"/>
				<path id="XMLID_11736_" class="st0" d="M226,481c0,0-18.6,25.9-3.8,29.6c2.9,0.8,4.9,0.9,6.4,0.8c-0.8,10.8,4.4,7.6,6.9,5.5
					l1.1,0.5c3.4,6.3,7.6,0.1,8.9-2l0.1,1.5c5.6,2.8,5.3-3.2,4.8-6.5c0.6,1,2,2,5.9,1.9c7.3-0.1-14.1-35.1-14.1-35.1"/>
				<g id="XMLID_11729_">
					<g id="XMLID_11731_">
						<path id="XMLID_11735_" class="st1" d="M242.3,477.2c0,0,21.4,35,14.1,35.1c-7.3,0.1-6.1-3.5-6.2-3.8c0,0,3.1,12.3-4.4,8.4"/>
						<path id="XMLID_11734_" class="st1" d="M245.8,514.8c0,0-5.2,10.5-9.4,2.2"/>
						<path id="XMLID_11733_" class="st1" d="M226,481c0,0-18.6,25.9-3.8,29.6c14.8,3.8,7.4-6.6,3.2-6.2"/>
						<path id="XMLID_11732_" class="st1" d="M236.8,515.6c0,0-9.8,10.4-8.1-5.5l0.5-8"/>
					</g>
					<path id="XMLID_11730_" class="st1" d="M239.6,476.2c0,0,10-10.1,0-10.9"/>
				</g>
				<path id="XMLID_11728_" class="st0" d="M236,501.6c0,0-0.4,4.9,0.4,7.5"/>
				<path id="XMLID_11727_" class="st0" d="M243.9,507.5c0,0,0.1,3.5,0.9,3.5"/>
				<path id="XMLID_11726_" class="st1" d="M244.7,493.4c0.7,2.2,3.6,7,3.6,7"/>
			</g>
		</g>
		<path id="XMLID_11721_" class="st2" d="M220.5,286c-2.2,4.2,4.1,60.6,3.8,65.5c-0.3,4.9,1.6,5.5,15.3,5c13.7-0.5,7-90.3,1.4-98.4
			c-1.9-2.9-9.6-5.6-18.7-8.1"/>
		<g>
			<path class="st5" d="M215.1,272.7c0,0-13.7-5.1-14.6-0.4c-0.9,4.8-5.3,20.1,2.8,21.1c8.1,1.1,11.8,0.8,12.1-6.1
				S215.1,272.7,215.1,272.7z"/>
			<g>
				<path id="XMLID_11720_" class="st0" d="M214.6,273c0,0,1.8,1.4,0.8,2.9"/>
				<path id="XMLID_11719_" class="st0" d="M202.1,272.4c0,0-2.5,1.2-3.2,2.4"/>
				<path id="XMLID_11715_" class="st0" d="M215,284.1c0,0,0.8-2.6,0.3-4"/>
				<path id="XMLID_11714_" class="st0" d="M201.4,292.6c0,0,2.6,1,3.9,0.8"/>
				<path id="XMLID_11713_" class="st0" d="M213.4,290.5c0,0-0.9,2.1-2.6,1.4"/>
				<path id="XMLID_11712_" class="st0" d="M199.4,279.7c0,0-0.4,1.9-0.9,2.5"/>
				<line id="XMLID_11711_" class="st4" x1="209.2" y1="271.8" x2="206.5" y2="271.7"/>
				<path id="XMLID_11710_" class="st0" d="M198.5,286.8c0,0-0.6,2.7-0.1,4"/>
			</g>
			<g>
				<path id="XMLID_11709_" class="st0" d="M168.3,461c0,0-1.6-2.9-0.4-4.6"/>
				<path id="XMLID_11708_" class="st0" d="M172.2,448.7c0,0-1.9,2-2.2,3.4"/>
				<path id="XMLID_11707_" class="st0" d="M171,465.8c0,0,0.8,2.6,1.9,3.5"/>
			</g>
		</g>
		<g id="XMLID_11651_">
			<g id="XMLID_11703_">
				<path id="XMLID_11706_" class="st0" d="M148.7,155.4c0,0-17.5-23.2-18-5.1c-0.4,18.1,4.5,37.6,11,35.1c6.4-2.4,6.6-7.8,6.6-7.8"
					/>
				<path id="XMLID_11705_" class="st0" d="M143,156.6c0,0-6.9-10.6-8.6-5.6"/>
				<path id="XMLID_11704_" class="st0" d="M145.6,164c0,0-10.1-2.7-8.6,3.2c1.4,5.8,5.1,9.7,6.8,3.2"/>
			</g>
			<path id="XMLID_11702_" class="st6" d="M201.2,74c0,0-6.6,5.7,1.6,8.4S208.4,71,201.2,74z"/>
			<path id="XMLID_11701_" class="st0" d="M187.4,88c0,0,52.4,3.8,45.2,65.7s-5.4,73.3-35,79.6s-45.8-15.4-49.1-31.9
				S121.6,96.2,187.4,88z"/>
			<path class="st7" d="M212,97.2c6.6,9.8,10.7,23.8,8.3,44.4c-7.4,61.9-5.4,73.3-34.9,79.6c-12.6,2.7-22.8,0.3-30.6-4.6
				c7.7,11.8,21.9,21.4,42.8,16.9c29.6-6.3,27.6-17.6,34.9-79.6C236.2,122.2,224.4,105.7,212,97.2z"/>
			<path id="XMLID_11700_" class="st2" d="M229.5,102.8c-0.2-2.1-1.1-4.7-2.9-8c0,0-0.1,0-0.1,0l0,0c-0.4-0.7-0.8-1.4-1.3-2.2
				c-5.9-9.2-15.4-14.5-24.2-17.2c-37.6-16.9-41.4,18.8-41.5,32.2c0,1.3,16.9-0.2,32.4-4c19.6,7.9,38.1,16.7,38.1,16.7
				S231.4,108.9,229.5,102.8z"/>
			<path id="XMLID_11699_" class="st0" d="M181.9,159.1c0,0,9.3,7,21.4,2.7"/>
			<path id="XMLID_11698_" class="st0" d="M159,159.4c0,0-15.1,3.2-18.3,1.9"/>
			<path id="XMLID_11697_" class="st0" d="M169.1,227.9c0,0-6.2,5.8,6.7,8.3s21.4-0.9,18.8-5.7"/>
			<path id="XMLID_11696_" class="st2" d="M150.3,112.7c0,0,20.1-8.2,43.7-3s35.8,10.7,35.8,10.7c-7.6-26-53.2-26.2-76.2-24.7
				c-23.1,1.5-16.9,10.3-16.9,10.3S140,110.2,150.3,112.7z"/>
			<path id="XMLID_11695_" class="st0" d="M150.3,112.7c0,0-39.8-11,15.3-13.5c55.1-2.4,64.2,21.2,64.2,21.2S178.8,98.3,150.3,112.7
				z"/>
			<g>
				<path id="XMLID_11694_" class="st0" d="M178.6,163.7c0,0-9.4-11.8-9.1-18.3"/>
				<g id="XMLID_11691_">
					<path id="XMLID_11693_" class="st0" d="M162.1,165c0.4,3.1,1.4,5.2,3.4,5.6c1.1,0.2,2.1,0.2,2.8-0.1c0.7-0.1,1.2-0.4,1.6-0.6"
						/>
					<path id="XMLID_11692_" class="st0" d="M172.3,127.6c0,0-7.2,19.3-9.2,32.8"/>
				</g>
				<g id="XMLID_11685_">
					<path id="XMLID_11690_" class="st0" d="M158.7,166.6c0,0-6.9,8.1,4.2,10.4"/>
					<path id="XMLID_11689_" class="st0" d="M177.9,166.6c0,0,7.4,6.1-3.1,10.4"/>
					<path id="XMLID_11688_" class="st0" d="M172.4,171.7c1.1,0.3,2.6-1.9,3.8,0c1.2,1.9-0.2,1.4-1.7,1.8
						C173,173.8,171.4,171.3,172.4,171.7z"/>
					<path id="XMLID_11687_" class="st0" d="M161.8,174.4c-2.1-0.1-2.6-1.8-1.5-2.7c0.4-0.3,1.6,0.2,2.8,0.9
						C164,173.2,161.8,174.4,161.8,174.4z"/>
					<path id="XMLID_11686_" class="st0" d="M169.4,162.4c0,0,2.2-0.1,2.7,0.7"/>
				</g>
				<path id="XMLID_11684_" class="st0" d="M154.6,171.6c0,0-6.1,3.1-7.8,3.7"/>
				<path id="XMLID_11683_" class="st0" d="M182.3,169.9c0,0,7.1,3.4,7.8,3.4"/>
			</g>
			<path id="XMLID_11682_" class="st0" d="M212.6,139.5c0,0,1,2.1-0.6,3"/>
			<path id="XMLID_11681_" class="st0" d="M207,160.6c0,0-0.4,1.8-1,2.5"/>
			<path id="XMLID_11680_" class="st0" d="M207.6,124c0,0,0.8-3.5,0-3.5"/>
			<path id="XMLID_11679_" class="st0" d="M156.5,112.2c0,0,3.3,0.5,2.9,1"/>
			<path id="XMLID_11678_" class="st0" d="M176.8,118.4c0,0,3.9-0.5,4.1-1.3"/>
			<path id="XMLID_11677_" class="st0" d="M158,212.7c0,0,2.8,0.6,3,1.2"/>
			<path id="XMLID_11676_" class="st0" d="M181.3,213.9c0,0-2.6,1.2-3.3,2.4"/>
			<path id="XMLID_11675_" class="st0" d="M155.3,152.2"/>
			<path id="XMLID_11674_" class="st0" d="M173.6,154.4"/>
			<line id="XMLID_11673_" class="st4" x1="199.8" y1="174.8" x2="202.5" y2="174.1"/>
			<path id="XMLID_11672_" class="st0" d="M225.1,161.9c0,0,19.4-21.6,18.4-3.6c-1.1,18.1-7.7,37.1-13.9,34.1s-5.9-8.4-5.9-8.4"/>
			<path id="XMLID_11671_" class="st0" d="M230.7,163.7c0,0,7.7-10,9-4.8"/>
			<path id="XMLID_11670_" class="st0" d="M227.5,170.8c0,0,10.2-1.8,8.3,3.9c-1.9,5.7-5.9,9.2-7.1,2.7"/>
			<g>
				<path id="XMLID_11669_" class="st8" d="M142.8,120.5c0,0,35.8-3.5,22.8,25.4S112.8,140.5,142.8,120.5z"/>
				<path id="XMLID_11668_" class="st6" d="M144.5,135.3c0,0,5.3-2.2,4.8,3.4C148.6,144.3,140.8,140.1,144.5,135.3z"/>
				<path id="XMLID_11667_" class="st8" d="M182.6,124.5c0,0-26.2,23.1,6.4,33.7S211.2,112.7,182.6,124.5z"/>
				<path id="XMLID_11666_" class="st6" d="M200.8,138.6c0,0,5.4-2.2,4.8,3.4S197.1,143.3,200.8,138.6z"/>
				<path id="XMLID_11665_" class="st6" d="M184.7,119.8c0,0-12.1,1.4-3.4,9.9s25.2,0.3,24.3-2.7C204.7,124,203.1,118.9,184.7,119.8
					z"/>
				<path id="XMLID_11664_" class="st6" d="M149.6,114.7c0,0-18.6-1.1-10,9.3c8.6,10.3,23.9-0.2,25.1-4.7S149.6,114.7,149.6,114.7z"
					/>
				<g id="XMLID_11661_">
					<path id="XMLID_11663_" class="st0" d="M204.5,157.1c0.2,0.1,0.4,0.2,0.7,0.2c0.9,0.2,1.8,0.4,2.8-0.6c2.2-2.4-2.9-3.2-2.9-3.2
						l-5.6-0.4c0,0-12.1-0.8-19.2,1.1c0,0,10.5,5.6,16.9,5.2c0.8-0.1,1.4-0.2,2.1-0.4C199.7,158.7,203.4,156.8,204.5,157.1z"/>
					<path id="XMLID_11662_" class="st0" d="M146.7,150.1c0,0,7.1-1.3,14.9,1.1c0,0-3.8,8.4-16.4,4.6c-4.1-1.2-4.9,1.1-7.2-1.4
						c-2.2-2.4,2.9-3.1,2.9-3.1L146.7,150.1z"/>
				</g>
			</g>
			<g id="XMLID_11656_">
				<path id="XMLID_11660_" class="st6" d="M155.1,191.2c0,0-19.2,2.5-8.5,9.5C157.3,207.6,155.1,191.2,155.1,191.2z"/>
				<path id="XMLID_11659_" class="st6" d="M152.2,185.5c0,0-15.9-0.9-8.6,7.3c7.3,8.2,20.3-0.2,21.4-3.7S152.2,185.5,152.2,185.5z"
					/>
				<path id="XMLID_11658_" class="st6" d="M183.9,189.6c0,0-7.7-2.6-6.4,7.2c1.3,9.8,14.7,8.1,15.5,5.3S195.1,194.6,183.9,189.6z"
					/>
				<path id="XMLID_11657_" class="st6" d="M177.3,187c0,0-22.5-2.8-0.3,8S203,190.4,177.3,187z"/>
			</g>
			<g id="XMLID_11652_">
				<path id="XMLID_11655_" class="st0" d="M157.2,200.6c0,0,11.8,11.6,18.3,0"/>
				<path id="XMLID_11654_" class="st0" d="M159.9,198.7c0,0,3.2-3.4,5.6,0"/>
				<path id="XMLID_11653_" class="st0" d="M171.2,198.7c0,0-3.2-3.4-5.7,0"/>
			</g>
		</g>
		<path id="XMLID_11650_" class="st0" d="M200.1,257.1c0.9-0.3,1.7-1,2.4-2.2"/>
		<path id="XMLID_11649_" class="st0" d="M168.5,250.1c0,0,0.2,1.1,1,2.1"/>
		<path id="XMLID_11648_" class="st0" d="M175.5,259.6c0.2,0.1,0.6,0.3,0.9,0.4"/>
		<path id="XMLID_11647_" class="st2" d="M148.6,402.5c0,0,2.8-93.9-1.7-107.4"/>
	</g>
	<g>
		<path class="st0" d="M105.4,630.1c-0.6-1.8-1.6-3.8-2.6-6.3c-1-2.3-2.1-5.1-2.9-8.5c0.1,0,0.2,0,0.2,0s0,0,0-0.1
			c0-0.5-0.1-3-0.2-6.9L84.7,607l-0.8,0l-0.8,0c-0.1,1.1-0.2,1.9-0.3,2.4c0,0-0.1,0.2-0.1,0.2c-0.1,0.1-0.2,0.2-0.2,0.3
			c-0.3,0.4-0.6,0.7-0.6,0.7s-0.7,0.6-1.7,1.6c-1.9,10.8-9.3,17.1-18.2,20.8c0.1,0.9,0.5,1.8,1.3,2.5c0.2,0.2,0.6,0.5,0.9,0.8
			c1.2,0.8,3.1,1.5,5.4,2c1.8,0.3,3.8,0.7,6.2,0.8c1.4,0.1,2.9,0.2,4.6,0.3c1.2,0,2.4,0.1,3.7,0.2c1.2,0,2.5,0,3.7-0.2
			c1.6,0,3.1-0.2,4.6-0.3c2.3-0.2,4.3-0.5,6.2-0.8c2.3-0.5,4.2-1.1,5.4-2c0.3-0.2,0.7-0.5,0.9-0.8c1.1-1,1.4-2.2,1.3-3.4
			C105.8,631.6,105.7,630.9,105.4,630.1z"/>
		<path class="st0" d="M98.1,513.5c0-0.2,0-0.4,0-0.7c45.5-16.7,114.5-42.6,119.9-41.7l-4.7-28.5c0,0-52,25.5-93.4,42.3
			c-4.9,1.9-9.5,3.7-13.5,5.3l0,0c-2.9,1.1-5.4,2.1-7.4,3c-5,2.2-7.4,3.6-7.8,4.5c-2,1.1-4.6,2.4-7.6,3.9c0.2,4.9,0.3,10.5,0.3,16.5
			c0.3,38.5-1.5,93.4-1.5,93.4l16.9,1.5C99.3,612.9,96.1,553.7,98.1,513.5z"/>
		<g>
			<g id="XMLID_11783_">
				<path id="XMLID_11784_" class="st0" d="M48.2,634.8c0,0,6-0.6,3.8,4.3C49.9,643.9,43.1,638.2,48.2,634.8z"/>
			</g>
			<g id="XMLID_11778_">
				<path id="XMLID_11782_" class="st0" d="M51.7,634.1c0,0,6.7-0.7,4.3,4.8C53.5,644.3,46,637.9,51.7,634.1z"/>
			</g>
			<g id="XMLID_11776_">
				<path id="XMLID_11777_" class="st0" d="M55.9,633c0,0,7.8-0.8,5,5.5C58.1,644.8,49.4,637.4,55.9,633z"/>
			</g>
			<g id="XMLID_11771_">
				<path id="XMLID_11772_" class="st0" d="M61.3,631.8c0,0,8.9-0.8,5.7,6.3C63.8,645.4,53.8,636.9,61.3,631.8z"/>
			</g>
			<path id="XMLID_11770_" class="st0" d="M71.8,640.9c0,0-10.6,0.7-5.7-6.2s13.6,0.2,14.3,3.1C81.1,640.8,71.8,640.9,71.8,640.9z"
				/>
		</g>
		<path id="XMLID_11769_" class="st0" d="M95,497.5c0,0,2.3,0.1,2.3,2"/>
		<path id="XMLID_11768_" class="st0" d="M91.4,514.1c0,0-2.7-0.8-2.8-1.5"/>
		<g id="XMLID_11766_">
			<path id="XMLID_11767_" class="st0" d="M85.2,615.2c-6.1,5-11.2-7.1-2.2-8.2"/>
		</g>
		<g id="XMLID_11764_">
			<path id="XMLID_11765_" class="st0" d="M86.9,509.5c-7.6,2.1-7.4-11,1.2-8.5"/>
		</g>
	</g>
</g>
</svg>
