<?xml version="1.0" encoding="utf-8"?>
<!-- Generator: Adobe Illustrator 22.1.0, SVG Export Plug-In . SVG Version: 6.00 Build 0)  -->
<svg version="1.1" id="Layer_1" xmlns="http://www.w3.org/2000/svg" xmlns:xlink="http://www.w3.org/1999/xlink" x="0px" y="0px"
	 viewBox="0 0 233.4 222.8" style="enable-background:new 0 0 233.4 222.8;" xml:space="preserve">
<style type="text/css">
	.st0{opacity:0.25;fill:#FFFFFF;enable-background:new    ;}
	.st1{opacity:0.5;}
	.st2{fill:#FFFFFF;}
	.st3{fill:#E6C86B;}
</style>
<g>
	<path class="st0" d="M220.5,104.3c-5.9,122.1-242,130.2-211.7,0c-1.7,0-3.4,0-5,0c-0.3,0-0.5,0-0.7,0c-0.2,3.1-0.4,6.2-0.5,9.4
		c-6.8,176.2,212.3,105.7,230.3-9.5c-0.3,0-0.7,0.1-1.2,0.1C231.6,104.3,227.6,104.3,220.5,104.3z"/>
	<path class="st0" d="M38.4,140.3c-4.9-13.3-8.1-25.2-9.9-35.9c-6.7,0-13.4,0-19.7,0c-30.3,130.2,205.9,122.1,211.7,0
		c-6.2,0-14.7,0-24.9,0.1C180.5,179.4,77.8,246.9,38.4,140.3z"/>
	<path class="st0" d="M38.4,140.3c-4.9-13.3-8.1-25.2-9.9-35.9c-6.7,0-13.4,0-19.7,0c-30.3,130.2,205.9,122.1,211.7,0
		c-6.2,0-14.7,0-24.9,0.1C180.5,179.4,77.8,246.9,38.4,140.3z"/>
	<path class="st0" d="M66.8,153.7c-17.3-18.7-26.5-35-30-49.2c-2.8,0-5.5,0-8.3,0c1.8,10.7,5,22.6,9.9,35.9
		c39.4,106.5,142.1,39,157.2-36c-5.6,0-11.6,0-18.1,0C171.6,160.1,121.6,212.9,66.8,153.7z"/>
	<path class="st0" d="M66.8,153.7c-17.3-18.7-26.5-35-30-49.2c-2.8,0-5.5,0-8.3,0c1.8,10.7,5,22.6,9.9,35.9
		c39.4,106.5,142.1,39,157.2-36c-5.6,0-11.6,0-18.1,0C171.6,160.1,121.6,212.9,66.8,153.7z"/>
	<path class="st0" d="M66.8,153.7c-17.3-18.7-26.5-35-30-49.2c-2.8,0-5.5,0-8.3,0c1.8,10.7,5,22.6,9.9,35.9
		c39.4,106.5,142.1,39,157.2-36c-5.6,0-11.6,0-18.1,0C171.6,160.1,121.6,212.9,66.8,153.7z"/>
	<path class="st0" d="M165.9,130.4c-33.2,61.7-111.3,18.5-119.7-25.9c-3.2,0-6.3,0-9.5,0c3.5,14.2,12.7,30.5,30,49.2
		c54.8,59.2,104.7,6.4,110.6-49.2c-3.3,0-6.8,0-10.3,0C167.9,118.9,165.9,130.4,165.9,130.4z"/>
	<path class="st0" d="M165.9,130.4c-33.2,61.7-111.3,18.5-119.7-25.9c-3.2,0-6.3,0-9.5,0c3.5,14.2,12.7,30.5,30,49.2
		c54.8,59.2,104.7,6.4,110.6-49.2c-3.3,0-6.8,0-10.3,0C167.9,118.9,165.9,130.4,165.9,130.4z"/>
	<path class="st0" d="M165.9,130.4c-33.2,61.7-111.3,18.5-119.7-25.9c-3.2,0-6.3,0-9.5,0c3.5,14.2,12.7,30.5,30,49.2
		c54.8,59.2,104.7,6.4,110.6-49.2c-3.3,0-6.8,0-10.3,0C167.9,118.9,165.9,130.4,165.9,130.4z"/>
	<path class="st0" d="M165.9,130.4c-33.2,61.7-111.3,18.5-119.7-25.9c-3.2,0-6.3,0-9.5,0c3.5,14.2,12.7,30.5,30,49.2
		c54.8,59.2,104.7,6.4,110.6-49.2c-3.3,0-6.8,0-10.3,0C167.9,118.9,165.9,130.4,165.9,130.4z"/>
	<path class="st0" d="M139.9,138.2c-33.6,27.4-67.8-3.4-74.9-33.6c-6.3,0-12.6,0-18.8,0c8.4,44.4,86.5,87.7,119.7,25.9
		c0,0,1.9-11.5,1.2-26c-4.8,0-9.8,0-15,0C150,122,139.9,138.2,139.9,138.2z"/>
	<path class="st0" d="M139.9,138.2c-33.6,27.4-67.8-3.4-74.9-33.6c-6.3,0-12.6,0-18.8,0c8.4,44.4,86.5,87.7,119.7,25.9
		c0,0,1.9-11.5,1.2-26c-4.8,0-9.8,0-15,0C150,122,139.9,138.2,139.9,138.2z"/>
	<path class="st0" d="M139.9,138.2c-33.6,27.4-67.8-3.4-74.9-33.6c-6.3,0-12.6,0-18.8,0c8.4,44.4,86.5,87.7,119.7,25.9
		c0,0,1.9-11.5,1.2-26c-4.8,0-9.8,0-15,0C150,122,139.9,138.2,139.9,138.2z"/>
	<path class="st0" d="M139.9,138.2c-33.6,27.4-67.8-3.4-74.9-33.6c-6.3,0-12.6,0-18.8,0c8.4,44.4,86.5,87.7,119.7,25.9
		c0,0,1.9-11.5,1.2-26c-4.8,0-9.8,0-15,0C150,122,139.9,138.2,139.9,138.2z"/>
	<path class="st0" d="M139.9,138.2c-33.6,27.4-67.8-3.4-74.9-33.6c-6.3,0-12.6,0-18.8,0c8.4,44.4,86.5,87.7,119.7,25.9
		c0,0,1.9-11.5,1.2-26c-4.8,0-9.8,0-15,0C150,122,139.9,138.2,139.9,138.2z"/>
	<path class="st0" d="M118.4,132.2C96,138.9,83.1,122,80.7,104.5c-5.2,0-10.5,0-15.7,0c7.1,30.2,41.3,61,74.9,33.6
		c0,0,10.1-16.2,12.2-33.7c-4.6,0-9.3,0-14,0C136.1,119.6,118.4,132.2,118.4,132.2z"/>
	<path class="st0" d="M118.4,132.2C96,138.9,83.1,122,80.7,104.5c-5.2,0-10.5,0-15.7,0c7.1,30.2,41.3,61,74.9,33.6
		c0,0,10.1-16.2,12.2-33.7c-4.6,0-9.3,0-14,0C136.1,119.6,118.4,132.2,118.4,132.2z"/>
	<path class="st0" d="M118.4,132.2C96,138.9,83.1,122,80.7,104.5c-5.2,0-10.5,0-15.7,0c7.1,30.2,41.3,61,74.9,33.6
		c0,0,10.1-16.2,12.2-33.7c-4.6,0-9.3,0-14,0C136.1,119.6,118.4,132.2,118.4,132.2z"/>
	<path class="st0" d="M118.4,132.2C96,138.9,83.1,122,80.7,104.5c-5.2,0-10.5,0-15.7,0c7.1,30.2,41.3,61,74.9,33.6
		c0,0,10.1-16.2,12.2-33.7c-4.6,0-9.3,0-14,0C136.1,119.6,118.4,132.2,118.4,132.2z"/>
	<path class="st0" d="M118.4,132.2C96,138.9,83.1,122,80.7,104.5c-5.2,0-10.5,0-15.7,0c7.1,30.2,41.3,61,74.9,33.6
		c0,0,10.1-16.2,12.2-33.7c-4.6,0-9.3,0-14,0C136.1,119.6,118.4,132.2,118.4,132.2z"/>
	<path class="st0" d="M118.4,132.2C96,138.9,83.1,122,80.7,104.5c-5.2,0-10.5,0-15.7,0c7.1,30.2,41.3,61,74.9,33.6
		c0,0,10.1-16.2,12.2-33.7c-4.6,0-9.3,0-14,0C136.1,119.6,118.4,132.2,118.4,132.2z"/>
	<path class="st0" d="M118.4,132.2c0,0,17.7-12.6,19.7-27.7c-5,0-10.2,0-15.4,0c-0.2,2.9-1.7,5.3-3.8,7.1c-1.8,2.4-4.1,4-7,4.4
		c-2.7,1.2-4.9,1.7-4.9,1.7c-7.9-0.8-11.7-5.8-12.6-11.7c-0.4-0.5-0.8-1-1.1-1.5c-4.2,0-8.4,0-12.6,0C83.1,122.1,96,139,118.4,132.2
		z"/>
	<path class="st0" d="M118.4,132.2c0,0,17.7-12.6,19.7-27.7c-5,0-10.2,0-15.4,0c-0.2,2.9-1.7,5.3-3.8,7.1c-1.8,2.4-4.1,4-7,4.4
		c-2.7,1.2-4.9,1.7-4.9,1.7c-7.9-0.8-11.7-5.8-12.6-11.7c-0.4-0.5-0.8-1-1.1-1.5c-4.2,0-8.4,0-12.6,0C83.1,122.1,96,139,118.4,132.2
		z"/>
	<path class="st0" d="M118.4,132.2c0,0,17.7-12.6,19.7-27.7c-5,0-10.2,0-15.4,0c-0.2,2.9-1.7,5.3-3.8,7.1c-1.8,2.4-4.1,4-7,4.4
		c-2.7,1.2-4.9,1.7-4.9,1.7c-7.9-0.8-11.7-5.8-12.6-11.7c-0.4-0.5-0.8-1-1.1-1.5c-4.2,0-8.4,0-12.6,0C83.1,122.1,96,139,118.4,132.2
		z"/>
	<path class="st0" d="M118.4,132.2c0,0,17.7-12.6,19.7-27.7c-5,0-10.2,0-15.4,0c-0.2,2.9-1.7,5.3-3.8,7.1c-1.8,2.4-4.1,4-7,4.4
		c-2.7,1.2-4.9,1.7-4.9,1.7c-7.9-0.8-11.7-5.8-12.6-11.7c-0.4-0.5-0.8-1-1.1-1.5c-4.2,0-8.4,0-12.6,0C83.1,122.1,96,139,118.4,132.2
		z"/>
	<path class="st0" d="M118.4,132.2c0,0,17.7-12.6,19.7-27.7c-5,0-10.2,0-15.4,0c-0.2,2.9-1.7,5.3-3.8,7.1c-1.8,2.4-4.1,4-7,4.4
		c-2.7,1.2-4.9,1.7-4.9,1.7c-7.9-0.8-11.7-5.8-12.6-11.7c-0.4-0.5-0.8-1-1.1-1.5c-4.2,0-8.4,0-12.6,0C83.1,122.1,96,139,118.4,132.2
		z"/>
	<path class="st0" d="M118.4,132.2c0,0,17.7-12.6,19.7-27.7c-5,0-10.2,0-15.4,0c-0.2,2.9-1.7,5.3-3.8,7.1c-1.8,2.4-4.1,4-7,4.4
		c-2.7,1.2-4.9,1.7-4.9,1.7c-7.9-0.8-11.7-5.8-12.6-11.7c-0.4-0.5-0.8-1-1.1-1.5c-4.2,0-8.4,0-12.6,0C83.1,122.1,96,139,118.4,132.2
		z"/>
	<path class="st0" d="M118.4,132.2c0,0,17.7-12.6,19.7-27.7c-5,0-10.2,0-15.4,0c-0.2,2.9-1.7,5.3-3.8,7.1c-1.8,2.4-4.1,4-7,4.4
		c-2.7,1.2-4.9,1.7-4.9,1.7c-7.9-0.8-11.7-5.8-12.6-11.7c-0.4-0.5-0.8-1-1.1-1.5c-4.2,0-8.4,0-12.6,0C83.1,122.1,96,139,118.4,132.2
		z"/>
</g>
<g class="st1">
	<g id="XMLID_482_">
		<path id="XMLID_485_" class="st2" d="M104.2,84.5c0,0-28.9,11.4-4.8,30S131.7,83.3,104.2,84.5z"/>
	</g>
</g>
<g>
	<path id="XMLID_411_" class="st3" d="M0.7,106.5c0,0-0.8,0.4,1.9,0.5c87.9,0.5,227.9,0,227.9,0c2.7-0.1,1.9-0.5,1.9-0.5
		c3.6-14.1-14.2-40.9-20.2-41C123,64.9,54.7,65.2,22.1,65.4C8.4,65.5-1.1,88.2,0.7,106.5z"/>
	<path id="XMLID_412_" class="st3" d="M25.1,0.7c0,0,4.3-6.5,2.7,47.9S21.5,38.7,25.1,0.7z"/>
	<path id="XMLID_413_" class="st3" d="M207.1,0.7c0,0,4.3-6.5,2.7,47.9C208.2,103.2,203.5,38.7,207.1,0.7z"/>
</g>
</svg>
