<?xml version="1.0" encoding="utf-8"?>
<!-- Generator: Adobe Illustrator 22.1.0, SVG Export Plug-In . SVG Version: 6.00 Build 0)  -->
<svg version="1.1" id="Layer_1" xmlns="http://www.w3.org/2000/svg" xmlns:xlink="http://www.w3.org/1999/xlink" x="0px" y="0px"
	 viewBox="0 0 513 385" style="enable-background:new 0 0 513 385;" xml:space="preserve">
<style type="text/css">
	.st0{fill:#A36B78;stroke:#584C4F;stroke-linecap:round;stroke-miterlimit:10;}
	.st1{fill:#E6C86B;stroke:#584C4F;stroke-miterlimit:10;}
	.st2{fill:#FCDE82;stroke:#584C4F;stroke-miterlimit:10;}
	.st3{fill:#FFD767;stroke:#584C4F;stroke-miterlimit:10;}
	.st4{opacity:0.1;fill:#231F20;stroke:#231F20;stroke-miterlimit:10;}
</style>
<g id="Layer_5">
</g>
<g id="Layer_3">
</g>
<g>
	<g>
		<path class="st0" d="M253.3,326.6c0,0-1.2,8.5-0.3,10.6c0.9,2.1,4.4,0.9,4-0.4s0.1-10-1.1-10.3S253.5,326,253.3,326.6z"/>
		<path id="XMLID_24772_" class="st0" d="M256.9,576.2c-1.8-38.4-3.4-85.6-4.6-110.1c-2.3-44.4,1.3-109.6,1.3-109.6l-18.7,1.6
			c0,0,3.8,115.2,0,139.4c-2.7,17.3,2.1,81.5,3.6,119"/>
		<path id="XMLID_24771_" class="st0" d="M249.6,373.2c0,0,15-10.1,0-10.9"/>
		<g>
			<path class="st0" d="M245.2,329.7c0,0,8.5,1.2,10.6,0.3c2.1-0.9,0.9-4.4-0.4-4c-1.3,0.4-10-0.1-10.3,1.1
				C244.9,328.3,244.6,329.6,245.2,329.7z"/>
			<path class="st0" d="M248.3,329.7c0,0-3,1-3-1s-1-4,2-4s3,2,3,2S251.3,328.7,248.3,329.7z"/>
		</g>
		<path class="st0" d="M231.6,357.5c0,0-3.3-8.6,3.3-8.6s13.1-2.9,13.1,5.8s-6.6,8.6-6.6,8.6S234.9,366.2,231.6,357.5z"/>
		<path class="st0" d="M242.7,351.4c0,0-2.8-17.1,2.8-17.1c5.6,0,11.3-5.7,11.3,11.4s-5.6,17.1-5.6,17.1S245.5,368.5,242.7,351.4z"
			/>
		<path class="st0" d="M250.9,323.2c0,0-3.9,9.6-3.4,12.4s5.4,2.7,5.3,1c-0.1-1.7,3-11.7,1.5-12.5
			C252.7,323.3,251.2,322.5,250.9,323.2z"/>
		<g>
			<path class="st0" d="M240.2,325.3c0,0,9.6,3.9,12.4,3.4c2.8-0.5,2.7-5.4,1-5.3c-1.7,0.1-11.7-3-12.5-1.5S239.6,325,240.2,325.3z"
				/>
			<path class="st0" d="M243.4,326.7c0,0-3,1-3-1s-1-4,2-4s3,2,3,2S246.4,325.7,243.4,326.7z"/>
		</g>
		<path class="st0" d="M245.5,322.5c0,0-1.5,11.3-0.1,14.1s6.4,1.4,5.8-0.4s0-13.3-1.9-13.7S245.7,321.7,245.5,322.5z"/>
		<g>
			<path class="st0" d="M234.4,327.8c0,0,11.3,1.5,14.1,0.1c2.8-1.3,1.4-6.4-0.4-5.8c-1.8,0.6-13.3,0-13.7,1.9
				C234,325.8,233.7,327.6,234.4,327.8z"/>
			<path class="st0" d="M237.2,328.5c0,0-3,1-3-1s-1-4,2-4s3,2,3,2S240.2,327.5,237.2,328.5z"/>
		</g>
		<g>
			<path class="st0" d="M230.1,344.6c0,0,7.3-8.5,7.8-11.4c0.5-2.9-4.1-4.1-4.7-2.4s-7.3,10.8-6.1,12S229.5,345.1,230.1,344.6z"/>
			<path class="st0" d="M231.7,342.9c0,0-1.4,2.8-2.8,1.4s-3.5-2.1-1.4-4.2c2.1-2.1,3.5-0.7,3.5-0.7S233.1,340.1,231.7,342.9z"/>
		</g>
		<path class="st0" d="M232.9,332.8c0,0,8.5,7.3,11.4,7.8c2.9,0.5,4.1-4.1,2.4-4.7c-1.7-0.5-10.8-7.3-12-6.1
			S232.3,332.3,232.9,332.8z"/>
		<g>
			<g id="XMLID_24764_">
				<path id="XMLID_24770_" class="st1" d="M220.3,320c0,0-1.3-6.2-7.4-4c-6.1,2.2-3.1,25.8-0.3,27.6
					C215.4,345.4,223.3,356.6,220.3,320z"/>
				<path id="XMLID_24769_" class="st1" d="M218.9,331.3c0,0,10.7-10.6,8.5,9.2c0,0,2.5,6.1,7.5,3.6c5-2.5,5.7-33.9-18.2-25.1"/>
				<path id="XMLID_24768_" class="st2" d="M231.7,321c0,0-1,0.5-1.3,1"/>
				<path id="XMLID_24767_" class="st2" d="M216.2,316.5c0,0-1,0.5-1.3,1"/>
				<path id="XMLID_24766_" class="st2" d="M219.5,341.4c-0.3,0.2-0.5,0.4-0.6,0.6"/>
				<path id="XMLID_24765_" class="st2" d="M236.7,335.5c0,0-0.3,0.2-0.7,0.4"/>
			</g>
			<g id="XMLID_24753_">
				<path id="XMLID_24763_" class="st3" d="M217.5,322.7c0,0-1.3-6.2-7.4-4c-6.1,2.2-3.1,25.8-0.3,27.6
					C212.7,348.1,220.6,359.3,217.5,322.7z"/>
				<path id="XMLID_24762_" class="st3" d="M216.1,334c0,0,10.7-10.6,8.5,9.2c0,0,2.5,6.1,7.5,3.6c5-2.5,5.7-33.9-18.2-25.1"/>
				<line id="XMLID_24761_" class="st3" x1="212.7" y1="346" x2="213.7" y2="346.5"/>
				<path id="XMLID_24760_" class="st3" d="M231,343.4c0,0,0.4,0.8-0.2,1.2"/>
				<path id="XMLID_24759_" class="st3" d="M233.3,333.3c0,0-0.2,0.7-0.4,1"/>
				<path id="XMLID_24758_" class="st3" d="M216.3,339.5c0,0,0.3-1.4,0-1.4"/>
				<path id="XMLID_24757_" class="st3" d="M223.9,329.9c0,0,1.3,0.2,1.2,0.4"/>
				<path id="XMLID_24756_" class="st3" d="M211.1,336.5c0,0,1.5-0.2,1.6-0.5"/>
				<path id="XMLID_24755_" class="st3" d="M218.9,322c0,0-1,0.5-1.3,1"/>
				<line id="XMLID_24754_" class="st3" x1="209.7" y1="323.6" x2="210.8" y2="323.3"/>
				<path class="st4" d="M216.8,320.8c-0.9-1.6-2.9-3.5-6.6-2.1c-1,0.4-1.8,1.3-2.3,2.6c3.5-1.1,5.3,0.7,6.2,2.3
					c18.2-4.7,20,16.3,17.1,23.6c0.3-0.1,0.7-0.2,1.1-0.4C236.9,344.3,237.8,315.4,216.8,320.8z"/>
			</g>
		</g>
		<path class="st0" d="M226.8,354.1c0,0,9.4,3,11.9,2.3c2.6-0.7,2.3-5.4,0.6-5.2c-1.6,0.2-11.3-2-11.9-0.5S226.2,353.9,226.8,354.1z
			"/>
		<g>
			<path class="st0" d="M228.8,340.8c0,0-3,9.4-2.3,11.9c0.7,2.6,5.4,2.3,5.2,0.6c-0.2-1.6,2-11.3,0.5-11.9
				C230.6,340.8,229,340.2,228.8,340.8z"/>
			<path class="st0" d="M228.6,341c0,0,1.4-2.8,2.8-1.4c1.4,1.4,3.5,2.1,1.4,4.2c-2.1,2.1-3.5,0.7-3.5,0.7S227.2,343.8,228.6,341z"
				/>
		</g>
	</g>
</g>
</svg>
