<?xml version="1.0" encoding="utf-8"?>
<!-- Generator: Adobe Illustrator 22.1.0, SVG Export Plug-In . SVG Version: 6.00 Build 0)  -->
<svg version="1.1" id="Layer_1" xmlns="http://www.w3.org/2000/svg" xmlns:xlink="http://www.w3.org/1999/xlink" x="0px" y="0px"
	 viewBox="0 0 100 100" style="enable-background:new 0 0 100 100;" xml:space="preserve">
<style type="text/css">
	.st0{opacity:0.1;enable-background:new    ;}
	.st1{fill:#231F20;stroke:#231F20;stroke-miterlimit:10;}
	.st2{fill:none;stroke:#231F20;stroke-miterlimit:10;}
	.st3{fill:#FFD767;stroke:#584C4F;stroke-width:2;stroke-miterlimit:10;}
	.st4{fill:#FFFAF2;stroke:#584C4F;stroke-width:2;stroke-miterlimit:10;}
	.st5{fill:none;stroke:#584C4F;stroke-width:2;stroke-miterlimit:10;}
</style>
<g>
	<g class="st0">
		<g>
			<path class="st1" d="M27.1,57.1c-9.7,7.8-5,19,5.8,19c1.8,0,7.3-0.2,8.4-0.1c4.8,0.6,10.8-1.1,17.6-6.6c0,0,33.8-15.5,3.4-33.6
				c-12.8-7.7-20.6-10.4-25.4-10.1c-1.4,0.1-7.8,0-9.4,0c-7.1,0.1-8,6.4-8.4,13.6C18.6,51.4,41,46.3,27.1,57.1z"/>
			<g id="XMLID_9_">
				<path id="XMLID_10_" class="st1" d="M37.5,57.3c13.6-10.9-8.7-6-8-18s2.7-21.6,33.1-3.3s-3.4,33.6-3.4,33.6
					C38.7,86,23.7,68.2,37.5,57.3z"/>
			</g>
		</g>
		<line id="XMLID_8_" class="st2" x1="46.8" y1="72.1" x2="49.9" y2="70.7"/>
		<path id="XMLID_7_" class="st1" d="M25.4,69.8c0.3,0.9,5.1,1.6,5.1,1.6"/>
		<path id="XMLID_6_" class="st1" d="M34.8,51.1c0.5,0.8,2.9,0.6,2.9,0.6"/>
	</g>
	<g>
		<g>
			<path class="st3" d="M32.7,57.2c-9.7,7.8-5,19,5.8,19c1.8,0,7.3-0.2,8.4-0.1c4.8,0.6,10.8-1.1,17.6-6.6c0,0,33.8-15.4,3.4-33.6
				c-12.8-7.7-20.6-10.4-25.4-10.1c-1.4,0.1-7.8,0-9.4,0c-7.1,0.1-8,6.4-8.4,13.6C24.1,51.4,46.5,46.4,32.7,57.2z"/>
			<g id="XMLID_4_">
				<path id="XMLID_5_" class="st4" d="M43,57.3c13.6-10.9-8.7-6-8-18s2.8-21.6,33.1-3.3s-3.4,33.6-3.4,33.6
					C44.2,86.1,29.3,68.2,43,57.3z"/>
			</g>
		</g>
		<line id="XMLID_3_" class="st5" x1="52.3" y1="72.1" x2="55.4" y2="70.7"/>
		<path id="XMLID_2_" class="st4" d="M31,69.8c0.3,0.9,5.1,1.6,5.1,1.6"/>
		<path id="XMLID_1_" class="st4" d="M40.4,51.1c0.5,0.8,2.9,0.6,2.9,0.6"/>
	</g>
</g>
</svg>
