<?xml version="1.0" encoding="utf-8"?>
<!-- Generator: Adobe Illustrator 22.1.0, SVG Export Plug-In . SVG Version: 6.00 Build 0)  -->
<svg version="1.1" id="Layer_1" xmlns="http://www.w3.org/2000/svg" xmlns:xlink="http://www.w3.org/1999/xlink" x="0px" y="0px"
	 viewBox="0 0 513 385" style="enable-background:new 0 0 513 385;" xml:space="preserve">
<style type="text/css">
	.st0{fill:#FFD767;stroke:#584C4F;stroke-miterlimit:10;}
	.st1{fill:#FFFAF2;stroke:#584C4F;stroke-miterlimit:10;}
</style>
<g id="Layer_5">
</g>
<g id="Layer_3">
</g>
<g>
	<g>
		<path class="st0" d="M309.9,245.8c-1.2-2.6-4.4-4.5-7.3-3.5c-1.6,0.6-2.7,2-4.1,3c-0.7,0.5-1.6,1-2.5,0.8
			c-1.5-0.3-2.2-2.1-2.5-3.5c-0.1-0.4-0.2-0.8-0.2-1.2c0.8-0.3,1.9-0.3,2.6-0.3c4-0.2,7.3-2.9,8.8-6.6c1.5-3.7,0.9-8-2.3-10.6
			c-3-2.5-7.6-3.1-11.2-1.5c-2.1,1-3.4,2.6-4.6,4.5c-0.8,1.2-1.7,2.6-3.2,2.8c-1.2,0.2-3-0.4-3.1-1.8c0-1.2,1.3-1.9,1.3-3.2
			c0-1-0.7-1.8-1.4-2.5c-1.6-1.6-3.9-3.2-6.2-3.5c-1.7-0.3-3.8,0.4-4.7,2c-1.3,2.3,1.1,4.2,1.5,6.3c0,0.1,0,0.1,0,0.2
			c-2.4,0.6-4.2,3.3-5.2,5.6c-0.1,0.3-0.2,0.5-0.3,0.8c-1,0-2-0.4-2.9-0.9c-0.5-0.7-0.7-1.5-0.9-2.3c-0.5-2.3-0.4-4.6-1.1-6.9
			c-0.6-1.9-1.9-3.6-3.9-3.9c-1.6-0.2-3.4,0.6-3.6,2.3c-0.3,1.7,1,3.4,1.8,4.8c0.1,0.2,0.2,0.4,0.3,0.7c-1.5-0.6-3.1-0.8-4.7-0.6
			c-1.2,0.2-2.4,0.6-3.5,1.2c-0.3-0.7-0.4-1.5-0.6-2.3c-0.4-2.2-0.4-4.5-1.3-6.6c-0.7-1.8-1.9-3.5-3.9-4c-3.7-1-6.2,2.7-7.5,5.6
			c-0.7,1.5-1.5,3.6-1,5.2c0.2,0.7,0.7,1.3,1.3,1.7c-0.3,0.1-0.5,0.2-0.7,0.3c-2.1,1-3.4,2.6-4.6,4.5c-0.3,0.5-0.7,1.1-1.2,1.6
			c-1,0.1-2,0.5-2.8,1.2c-1.1-0.1-2.3-0.7-2.3-1.9c0-1.2,1.3-1.9,1.3-3.2c0-1-0.7-1.8-1.4-2.5c-1.6-1.6-3.9-3.2-6.2-3.5
			c-1.7-0.3-3.8,0.4-4.7,2c-1.3,2.3,1.1,4.2,1.5,6.3c0.5,2.2-0.8,4.7-2.7,5.9c-2.2,1.4-4.6,0.6-6.6-0.7c-1.9-1.3-3.5-2.9-5.4-4.1
			c-1.8-1.1-3.8-1.5-5.9-1.2c-3.8,0.5-7.5,3.4-7.3,7.6c0.2,3.3,2.9,6.7,6.3,6.8c2,0.1,3.8-1,5.6-1.5c1-0.3,2.1-0.4,3,0.2
			c1.5,1,1.5,3.2,1.2,4.8c-0.4,2.6-1.5,5.1-1.7,7.8c-0.2,2.3,0.5,4.7,2.6,5.8c1.7,0.9,3.9,0.8,4.9-1c1-1.7,0.4-4,0.1-5.9
			c-0.2-1.2,0-2.4,0.6-3.5c0.5-0.8,1.2-1.6,2.1-1.5l1,0.1c1.4,0,2.9,0.9,3.8,2.1c1.7,2.1,1.6,5,1,7.5c-0.5,2.5-1.5,5-1.4,7.7
			c0,2,0.5,4.2,2,5.6c0.7,2.3,2.4,4.3,4.8,5.1c3.2,1.1,7.1,0.1,9.5-2.4c1.4-1.5,1.9-3.2,2.3-5.1c0.2-1.2,0.6-2.7,1.7-3.3
			c0.9-0.5,2.6-0.6,3.1,0.5c0.3,0.6,0,1.3-0.1,1.9c-0.4,0.4-0.7,1-0.5,1.7c0.5,2,3.1,2,4.6,2.4c1,0.2,2.2,0.7,2.6,1.7
			c0.6,1.6-1.5,2.4-2.6,2.9c-3.2,1.4-5,4.7-5,8.1c-0.1,3.4,1.8,6.8,5.2,7.9c1.9,0.6,3.9,0.5,5.8-0.1c-0.4,0.6-0.7,1.2-0.8,1.8
			c-0.2,0.9,0.1,1.9,0.9,2.4c1.1,0.7,2.1-0.5,3.2-0.6c1.1-0.2,2.3,0.5,2.9,1.5c0.6,1.1,0.2,2.3-0.5,3.3c-0.7,0.9-1.5,1.7-2.2,2.6
			c-0.6,0.9-0.8,1.9-0.7,2.9c0.2,1.9,1.6,3.8,3.6,3.8c1.6-0.1,3.4-1.3,3.5-3c0.1-1-0.4-1.9-0.6-2.8c-0.1-0.5-0.2-1,0.2-1.5
			c0.5-0.7,1.6-0.7,2.4-0.5c1.3,0.2,2.5,0.9,3.9,1c1.1,0.1,2.3-0.2,3-1.2c0.5-0.8,0.5-1.9-0.4-2.5c-0.9-0.5-2-0.3-2.9-0.2
			c-0.6,0.1-1.2,0-1.7-0.4c-0.4-0.2-0.8-0.6-0.7-1.1l0.1-0.5c0-0.7,0.5-1.4,1.1-1.9c1.1-0.8,2.5-0.7,3.8-0.4
			c1.3,0.3,2.5,0.8,3.8,0.9c1.1,0,2.3-0.2,3-1.1c1.4-1.7,0-3.9-1.2-5.2c-0.7-0.7-1.5-1.6-2.5-1.7c-0.6-0.1-1.1,0.2-1.5,0.5
			c-0.6,0.5-1,1.1-1.6,1.5c-1.2,0.9-2.8,1.4-4,0.4c-0.5-0.4-0.8-0.9-0.8-1.6c0-0.6,0.4-1.1,0.9-1.5c1.6,0.5,3.4,0.8,4.9,0.4
			c1.5-0.3,2.9-1.5,3.1-3.1c0.3-2.3-2.2-3-3.2-4.6c-1.1-1.7-0.8-4,0.3-5.6c1.3-1.8,3.5-2,5.5-1.5c1.9,0.4,3.7,1.3,5.7,1.6
			c1.8,0.3,3.6,0,5.1-0.9c2.9-1.6,5-5.2,3.5-8.4c-0.2-0.4-0.4-0.8-0.7-1.1c1.4,0.3,2.8,0.5,4.1,0.2c1.5-0.3,2.9-1.5,3.1-3.1
			c0.3-2.3-2.2-3-3.2-4.6c-1.1-1.7-0.8-4,0.3-5.6c1.3-1.8,3.5-2,5.5-1.5c1.9,0.4,3.7,1.3,5.7,1.6c1.8,0.3,3.6,0,5.1-0.9
			C309.4,252.6,311.5,249,309.9,245.8z M258.4,287.6c0-0.7-0.2-1.4-0.5-2c0.2,0.1,0.4,0.4,0.6,0.6c0.2,0.6,0,1.1-0.1,1.7
			C258.4,287.8,258.4,287.7,258.4,287.6z M228.5,256.2c-0.3,0.3-0.7,0.6-1.1,0.8c-1.1,0.4-2.3,0-3.3-0.5c-0.1,0-0.1-0.1-0.2-0.1
			c0-1.1,0.3-2.2,1-3.2c0.7-1,1.8-1.7,3.1-1.7c0.1,0,0.1,0,0.2,0c-0.1,0.5-0.2,1.1-0.2,1.6C228,254.2,228.2,255.2,228.5,256.2z
			 M251.6,295.2c-0.3,0-0.6-0.2-0.9-0.4c0.3-0.2,0.5-0.4,0.7-0.6c0.3-0.3,0.6-0.7,0.9-1.1c0.1,0.2,0.2,0.4,0.2,0.6
			C252.6,294.3,252.3,295.2,251.6,295.2z"/>
		<path class="st1" d="M253.7,293.8c-10.7,3.4-5.1,16.3-5.1,16.3s6.9,8.1,15.6,1.7C273.1,305.3,264.4,290.4,253.7,293.8z M263.6,311
			c-7.9,5.8-14.1-1.5-14.1-1.5s-5.1-11.6,4.6-14.7C263.7,291.7,271.5,305.2,263.6,311z"/>
		<g id="XMLID_3_">
			<path id="XMLID_4_" class="st1" d="M268.8,315.8C268.8,315.8,268.8,315.8,268.8,315.8c0-0.2,0-0.3,0-0.3c0,0,0-0.2,0-0.4
				c0-0.2,0-0.4,0-0.4c0-0.1,0-0.4,0-0.5c0,0,0-0.6,0-0.6c0-0.2,0-0.6,0-0.7c0-0.1,0-1.6-0.1-1.9c0,0,0,0,0,0c0-0.3,0-0.5,0-0.7
				c0-0.5,0-1.5,0-1.9c0,0,0-1.7,0-1.7c0,0,0,0,0-0.1c0-0.3,0-0.6,0-0.8c0,0,0-1.7,0-1.7c0-0.2-0.3-0.4-0.8-0.4c0,0-0.9,0-1.9,0
				c-0.1,0-0.1,0-0.2,0c-0.2,0-17.1,0-17.3,0c-0.1,0-0.1,0-0.2,0c-1,0-1.8,0-1.9,0c-0.5,0-0.8,0.2-0.8,0.4c0,0,0,0.2,0,0.3
				c0,0.1,0,1.3,0,1.3c0,0,0,0.5,0,1c0,0,0,0,0,0c0,0.1,0,0.2,0,0.3c0,0.1,0,1.3,0,1.3c0,0,0,1.5,0,2c0,0.2,0,0.4,0,0.7c0,0,0,0,0,0
				c0,0.2-0.1,1.7-0.1,1.9c0,0.1,0,1.3,0,1.3c0,0.1,0,1,0,1c0,0,0,0.1,0,0.2s0,0.1,0,0.1c0,0,0,0.3,0,0.5c0,0.1,0,0.1,0,0.2
				c0,0,0,0.1,0,0.1c0,0.3,0,0.5,0,0.5c0,0.1,0,1,0,1c0,0.1,0,0.3,0,0.5c0,0.1,0,0.1,0,0.2c0,0.1,0,0.2,0,0.4c0,0.1,0,0.1,0,0.1
				c0,0,0,0.1,0.1,0.1c0,0.4,0,1.4,0,1.9c0,0.2,0,0.5,0,0.8c0,0,0,0,0,0.1c0,0.2-0.1,1.8-0.1,1.9c0,0.1,0,0.2,0,0.2c0,0.1,0,0.8,0,1
				c0,0.1,0,0.2,0,0.2c0,0,0,0.1,0,0.1c0,0.5,0,1.1,0,1.2c0,0.1,0,0.2,0,0.2c0,0.1,0,0.8,0,1c0,0.1,0,0.2,0,0.2
				c0,0.1,0.1,0.3,0.7,0.4c0.4,0.1,3.7,0,4.8,0c1.6,0,10.3,0,12,0c1.1,0,4.4,0.1,4.8,0c0.6-0.1,0.7-0.2,0.7-0.4c0,0,0-0.1,0-0.2
				c0-0.1,0-0.3,0-0.3c0,0,0-0.1,0-0.2c0-0.2,0-0.6,0-0.7c0-0.1,0-0.7,0-1.2c0,0,0-0.1,0-0.1c0,0,0-0.1,0-0.2c0-0.1,0-0.3,0-0.3
				c0,0,0-0.1,0-0.2c0-0.2,0-0.6,0-0.7c0-0.1,0-1.6-0.1-1.9c0,0,0,0,0-0.1c0-0.3,0-0.6,0-0.8c0-0.5,0.1-2,0-2.1c0,0,0,0,0-0.1
				c0-0.1,0-0.3,0-0.4c0,0,0-1.1,0-1.1c0,0,0,0,0,0c0-0.1,0-0.1,0-0.2c0-0.1,0-0.2,0-0.3c0,0,0,0,0,0c0-0.2,0-0.4,0-0.4
				c0,0,0-0.1,0-0.1C268.8,316.1,268.8,315.9,268.8,315.8z"/>
		</g>
	</g>
</g>
</svg>
