<?xml version="1.0" encoding="utf-8"?>
<!-- Generator: Adobe Illustrator 22.1.0, SVG Export Plug-In . SVG Version: 6.00 Build 0)  -->
<svg version="1.1" id="Layer_1" xmlns="http://www.w3.org/2000/svg" xmlns:xlink="http://www.w3.org/1999/xlink" x="0px" y="0px"
	 viewBox="0 0 326.8 681.4" style="enable-background:new 0 0 326.8 681.4;" xml:space="preserve">
<style type="text/css">
	.st0{fill:#A36B78;stroke:#584C4F;stroke-width:2;stroke-linecap:round;stroke-miterlimit:10;}
	.st1{fill:#A36B78;stroke:#584C4F;stroke-width:2;stroke-linecap:round;stroke-linejoin:round;stroke-miterlimit:10;}
	.st2{fill:#FFD767;stroke:#584C4F;stroke-width:2;stroke-miterlimit:10;}
	.st3{fill:#A36B78;}
	.st4{fill:none;stroke:#584C4F;stroke-width:2;stroke-linecap:round;stroke-miterlimit:10;}
	.st5{fill:#BEAB72;}
	.st6{fill:#584C4F;stroke:#584C4F;stroke-width:2;stroke-linecap:round;stroke-miterlimit:10;}
	.st7{opacity:0.1;fill:#231F20;stroke:#231F20;stroke-miterlimit:10;enable-background:new    ;}
	.st8{fill:#FFFFFF;stroke:#584C4F;stroke-width:2;stroke-linecap:round;stroke-miterlimit:10;}
</style>
<g id="Layer_5">
</g>
<g id="Layer_3">
</g>
<g>
	<g>
		<g id="XMLID_131_">
			<path id="XMLID_132_" class="st0" d="M107.1,309.4c-7.6,2.1-7.5-11,1.2-8.5"/>
		</g>
		<path id="XMLID_130_" class="st0" d="M101.7,214.1c1.7,34.8,3.1,77.6,4.2,99.8c2.1,40.2-1.2,99.4-1.2,99.4l16.9-1.5
			c0,0-3.4-104.4,0-126.4c2.4-15.7-1.8-73.9-3.2-107.8"/>
		<g id="XMLID_128_">
			<path id="XMLID_129_" class="st0" d="M121.7,409.7c6.9,7.2,9,9.6,12.7,19s-9.9-13.5-9.1-10.1s13.6,68.6,3.1,28.5
				s-6.4-14.5-6.4-14.5c0,55-4.4,11-5.8,4.1s-10.4,36.7-8.8,15.1c1.7-21.5-0.1-23.4-3.6-5.4c-3.6,18-1.7-24.3-1.7-24.3
				s0.8-13.2,4.1-12.1"/>
		</g>
		<path id="XMLID_127_" class="st0" d="M112.2,301.4c0,0,2.8,0.6,3,1.2"/>
		<path id="XMLID_126_" class="st0" d="M111.8,308c0,0-2.2,0.4-2.8-1.4"/>
		<path id="XMLID_125_" class="st1" d="M108.4,398.1c0,0-13.6,9.1,0,9.9"/>
	</g>
	<path id="XMLID_124_" class="st2" d="M125.7,213.1c2.2,4.2-4.1,60.6-3.8,65.5c0.3,4.9-1.6,5.5-15.3,5s-7-90.3-1.5-98.4
		c2-2.9,9.6-5.6,18.7-8.1"/>
	<g>
		<path class="st0" d="M162.8,629.9c-1.6-0.8-3.8-1.6-6.3-2.6c-2.4-1-5.1-2.2-8-3.9c0.1-0.1,0.1-0.1,0.1-0.1s0,0-0.1-0.1
			c-0.4-0.4-2.2-2.1-5-4.8l-11.7,9.8l-0.6,0.6l-0.6,0.6c0.7,0.8,1.2,1.5,1.4,1.9c0,0,0.1,0.1,0.1,0.2c0,0.1,0,0.3,0,0.4
			c0,0.5,0.1,0.9,0.1,0.9s0,0.9-0.1,2.3c6.3,8.9,5.5,18.7,1.8,27.6c0.7,0.6,1.6,0.9,2.7,0.9c0.4,0,0.7,0,1.2-0.1
			c1.4-0.2,3.2-1.1,5.2-2.4c1.5-1,3.2-2.3,4.9-3.8c1.1-1,2.2-1.9,3.4-3c0.9-0.8,1.8-1.7,2.7-2.5c0.8-0.9,1.7-1.8,2.5-2.7
			c1.1-1.2,2.1-2.3,3-3.4c1.5-1.8,2.8-3.4,3.8-4.9c1.3-2,2.2-3.8,2.4-5.2c0.1-0.4,0.1-0.8,0.1-1.2c0-1.5-0.5-2.5-1.4-3.4
			C164.1,630.6,163.5,630.2,162.8,629.9z"/>
		<path class="st0" d="M130.1,375.6c0,0,3.7,57.8,3.4,102.4c-0.2,5.2-0.2,10.1-0.2,14.5v0c-0.3,10.9,0.1,15.8,1.1,16.9
			c2.9,25.8-0.3,124.2-0.3,124.2l16.9,1.5c0,0-3.2-59.2-1.1-99.4s5.1-148,8.5-153.6"/>
		<g>
			<g id="XMLID_122_">
				<path id="XMLID_123_" class="st0" d="M125.7,673.7c0,0,3.9-4.7,5.8,0.3C133.3,678.9,124.5,679.6,125.7,673.7z"/>
			</g>
			<g id="XMLID_120_">
				<path id="XMLID_121_" class="st0" d="M127.6,670.7c0,0,4.3-5.2,6.4,0.3C136.1,676.6,126.3,677.4,127.6,670.7z"/>
			</g>
			<g id="XMLID_118_">
				<path id="XMLID_119_" class="st0" d="M129.8,666.9c0,0,5-6,7.5,0.4C139.7,673.8,128.3,674.7,129.8,666.9z"/>
			</g>
			<g id="XMLID_116_">
				<path id="XMLID_117_" class="st0" d="M132.8,662.3c0,0,5.7-6.9,8.5,0.5C144.2,670.1,131.1,671.2,132.8,662.3z"/>
			</g>
			<path id="XMLID_115_" class="st0" d="M146.7,661.3c0,0-7,8-8.4-0.4s9.7-9.5,12.3-7.9C153.2,654.6,146.7,661.3,146.7,661.3z"/>
		</g>
		<path id="XMLID_114_" class="st0" d="M144.2,500.8c0,0,2.3,0.1,2.3,2"/>
		<path id="XMLID_113_" class="st0" d="M140.6,517.4c0,0-2.7-0.8-2.8-1.5"/>
		<g id="XMLID_111_">
			<path id="XMLID_112_" class="st0" d="M138,633.6c-0.8,7.8-12.9,2.9-7.4-4.2"/>
		</g>
		<g id="XMLID_109_">
			<path id="XMLID_110_" class="st0" d="M136.1,512.8c-7.6,2.1-7.4-11,1.2-8.5"/>
		</g>
	</g>
	<path class="st0" d="M215.4,336.8l-111.1-4.1c0,0,0.5,29.5,1.3,40.6c0.1,1,0.1,2.1,0.2,3.1c0.1,0.4,0.1,0.7,0.2,0.9l0.1,0
		c3.1,17,22.5,32,53.2,32.5c50.1,0.8,51.4-14.5,51.4-14.5c2.4-4.5,3.9-8.9,4.4-13c0.1,0,0.2,0,0.2,0S217.2,345.7,215.4,336.8z"/>
	<g>
		<path class="st2" d="M221.8,309.1c-0.1-0.8-0.2-1.5-0.3-2.2c-0.9-6-1.6-10.5-1.9-11.9c-1.4-7.3-4.4-87.8-5.9-101
			c-0.1-0.4-0.1-0.9-0.2-1.3c-0.8-3.7-3.3-6.7-6.4-9c-4.2-3.2-9.5-5.2-13-6.2c-6.7-5.6-20.4-9.4-39.2-8.6
			c-17.8,0.8-45.2,1.1-46.6,27.9c-0.2,3.1-0.2,6.5-0.1,10.4c1.4,36.2,1.4,95-2.3,110.6c-0.2,0.8-0.4,1.5-0.6,2
			c-3.2,8.5-7.1,29.9-3,37.9c0.1,0.1,0.1,0.2,0.2,0.3c1.6,2.8,4.3,3.7,8.7,1.4c0,0,5.4-1.3,9.4-1.2l77.2,4c3.2,0.5,6.1,1,8.4,1.5
			C228.6,380.2,225.1,334,221.8,309.1z"/>
		<path class="st2" d="M108.3,204.5c0,0.9,0.1,1.7,0.1,2.6c1.4,36.2,1.4,95-2.3,110.6c-0.2,0.8-0.4,1.5-0.6,2
			c-3.2,8.5-7.1,29.9-3,37.9c0.1,0.1,0.1,0.2,0.2,0.3c1.6,2.8,4.3,3.7,8.7,1.4"/>
		<path class="st2" d="M120.7,358.1l77.2,4c3.2,0.5,6.1,1,8.4,1.5c22.3,16.5,18.9-29.7,15.6-54.5c-0.1-0.8-0.2-1.5-0.3-2.2
			c-0.9-6-1.6-10.5-1.9-11.9c-1.4-7.3-4.4-87.8-5.9-101c-0.1-0.4-0.1-0.9-0.2-1.3c-0.8-3.7-3.3-6.7-6.4-9c-4.2-3.2-9.5-5.2-13-6.2
			c-6.7-5.6-20.4-9.4-39.2-8.6c-16.4,0.7-40.8,1-45.8,21.9"/>
	</g>
	<path id="XMLID_108_" class="st0" d="M216.7,251.4c0,0-8.7,93.6-5.1,107.3"/>
	<g>
		<path id="XMLID_107_" class="st3" d="M176.1,166.6c0.2-3.4-0.9-13.4-1.1-16.6c-0.2-2.9-0.6-5.4-1.2-7.6
			c11.4-19.5-20.1-41.8-31.3-16.8c-3.5,7.8-3.1,22.9-3,25.5c0.1,3.4,0.1,14.6,0.1,17.5c0.1,16.3,24.2,29.2,33.8,8"/>
		<path id="XMLID_106_" class="st4" d="M168,184.2c-11.1,9.6-28.4-1.8-28.4-15.5c0-2.9-0.1-14.1-0.2-17.5c-0.1-2.6-0.5-17.7,3-25.5
			c11.2-25,42.7-2.7,31.3,16.8c0.6,2.1,1.1,4.6,1.2,7.6c0.2,3.2,1.4,13.1,1.1,16.6l-2.8,10.1c-0.5,1.1-1.1,2.2-1.6,3.1"/>
	</g>
	<g>
		<path class="st0" d="M193.8,375.6c0,0-3.6,57.8-3.4,102.4c0.1,5.2,0.2,10.1,0.2,14.5v0c0.3,10.9-0.1,15.8-1.1,16.9
			c-2.9,25.8,0.3,124.2,0.3,124.2l-16.9,1.5c0,0,3.2-59.2,1.1-99.4s-5.1-148-8.5-153.6"/>
		<path id="XMLID_105_" class="st0" d="M184.7,502.7c0,0-1.2-2-2.9-1"/>
		<path id="XMLID_104_" class="st0" d="M177.9,517.9c0,0,2.7-0.8,2.9-1.5"/>
		<g id="XMLID_102_">
			<path id="XMLID_103_" class="st0" d="M178.7,620.6c0.8-7.8,12.9-2.9,7.4,4.2"/>
		</g>
		<g id="XMLID_100_">
			<path id="XMLID_101_" class="st0" d="M177.2,506.8c-6.1-5-11.2,7.1-2.2,8.2"/>
		</g>
		<g>
			<path class="st0" d="M202.1,632.4c-1.6-0.8-3.8-1.6-6.3-2.6c-2.4-1-5.1-2.2-8-3.9c0.1-0.1,0.1-0.1,0.1-0.1s0,0-0.1-0.1
				c-0.4-0.4-2.2-2.1-5-4.8l-11.7,9.8l-0.6,0.6l-0.6,0.6c0.7,0.8,1.2,1.5,1.4,1.9c0,0,0.1,0.1,0.1,0.2c0,0.1,0,0.3,0,0.4
				c0,0.5,0.1,0.9,0.1,0.9s0,0.9-0.1,2.3c6.3,8.9,5.5,18.7,1.8,27.6c0.7,0.6,1.6,0.9,2.7,0.9c0.4,0,0.7,0,1.2-0.1
				c1.4-0.2,3.2-1.1,5.2-2.4c1.5-1,3.2-2.3,4.9-3.8c1.1-1,2.2-1.9,3.4-3c0.9-0.8,1.8-1.7,2.7-2.5c0.8-0.9,1.7-1.8,2.5-2.7
				c1.1-1.2,2.1-2.3,3-3.4c1.5-1.8,2.8-3.4,3.8-4.9c1.3-2,2.2-3.8,2.4-5.2c0.1-0.4,0.1-0.8,0.1-1.2c0-1.5-0.5-2.5-1.4-3.4
				C203.4,633.1,202.8,632.7,202.1,632.4z"/>
			<g>
				<g id="XMLID_98_">
					<path id="XMLID_99_" class="st0" d="M164.9,676.1c0,0,3.9-4.7,5.8,0.3C172.6,681.4,163.7,682.1,164.9,676.1z"/>
				</g>
				<g id="XMLID_96_">
					<path id="XMLID_97_" class="st0" d="M166.9,673.2c0,0,4.3-5.2,6.4,0.3C175.4,679.1,165.6,679.8,166.9,673.2z"/>
				</g>
				<g id="XMLID_94_">
					<path id="XMLID_95_" class="st0" d="M169.1,669.4c0,0,5-6,7.5,0.4C179,676.2,167.6,677.1,169.1,669.4z"/>
				</g>
				<g id="XMLID_92_">
					<path id="XMLID_93_" class="st0" d="M172.1,664.8c0,0,5.7-6.9,8.5,0.5C183.5,672.6,170.4,673.6,172.1,664.8z"/>
				</g>
				<path id="XMLID_91_" class="st0" d="M186,663.8c0,0-7,8-8.4-0.4s9.7-9.5,12.3-7.9C192.5,657.1,186,663.8,186,663.8z"/>
			</g>
		</g>
	</g>
	<g>
		<g id="XMLID_89_">
			<path id="XMLID_90_" class="st0" d="M208.6,301.4c6.1-5,11.2,7.1,2.2,8.2"/>
		</g>
		<path id="XMLID_88_" class="st0" d="M215.6,232.5c-1.3,30.4-2.4,63-3.4,81.4c-2.1,40.2,1.1,99.4,1.1,99.4l-16.9-1.5
			c0,0,3.4-104.4,0-126.4c-2-12.6,0.4-52.4,2.1-85.2"/>
		<path id="XMLID_87_" class="st0" d="M205.6,301.7c0,0,2.3,0.1,2.3,2"/>
		<path id="XMLID_86_" class="st0" d="M204.9,308.1c0,0-2.7-0.9-2.9-1.5"/>
		<g id="XMLID_73_">
			<path id="XMLID_85_" class="st3" d="M192.7,440.6c2.9,0.8,4.9,0.9,6.4,0.8c-0.8,10.8,4.4,7.6,6.9,5.5l1.1,0.5
				c3.4,6.4,7.6,0.1,8.9-2l0.1,1.5c5.6,2.9,5.3-3.2,4.8-6.5c0.6,1,2,2,5.9,1.9c7.3-0.1-14.1-35.1-14.1-35.1l-16.2,3.8
				C196.5,411,177.9,436.9,192.7,440.6z"/>
			<path id="XMLID_84_" class="st0" d="M196.5,411c0,0-18.6,25.9-3.8,29.6c2.9,0.8,4.9,0.9,6.4,0.8c-0.8,10.8,4.4,7.6,6.9,5.5
				l1.1,0.5c3.4,6.4,7.6,0.1,8.9-2l0.1,1.5c5.6,2.9,5.3-3.2,4.8-6.5c0.6,1,2,2,5.9,1.9c7.3-0.1-14.1-35.1-14.1-35.1"/>
			<g id="XMLID_77_">
				<g id="XMLID_79_">
					<path id="XMLID_83_" class="st1" d="M212.7,407.2c0,0,21.4,35,14.1,35.1c-7.3,0.1-6.1-3.5-6.2-3.8c0,0,3.1,12.2-4.4,8.4"/>
					<path id="XMLID_82_" class="st1" d="M216.2,444.8c0,0-5.2,10.5-9.4,2.1"/>
					<path id="XMLID_81_" class="st1" d="M196.5,411c0,0-18.6,25.9-3.8,29.6s7.4-6.6,3.2-6.2"/>
					<path id="XMLID_80_" class="st1" d="M207.3,445.6c0,0-9.8,10.4-8.1-5.5l0.5-8"/>
				</g>
				<path id="XMLID_78_" class="st1" d="M210.1,406.2c0,0,10-10.1,0-10.9"/>
			</g>
			<path id="XMLID_76_" class="st0" d="M206.4,431.6c0,0-0.4,4.9,0.4,7.5"/>
			<path id="XMLID_75_" class="st0" d="M214.3,437.5c0,0,0.1,3.5,0.9,3.5"/>
			<path id="XMLID_74_" class="st1" d="M215.2,423.4c0.7,2.2,3.6,7,3.6,7"/>
		</g>
	</g>
	<path id="XMLID_72_" class="st2" d="M190.9,216c-2.2,4.2,4.1,60.6,3.8,65.5c-0.3,4.9,1.6,5.5,15.3,5c13.7-0.5,7-90.3,1.4-98.4
		c-1.9-2.9-9.6-5.6-18.7-8.1"/>
	<g>
		<path class="st5" d="M185.6,202.7c0,0-13.7-5.1-14.6-0.4c-0.9,4.8-5.4,20.1,2.8,21.1c8.1,1.1,11.8,0.8,12.1-6.1
			S185.6,202.7,185.6,202.7z"/>
		<g>
			<path id="XMLID_71_" class="st0" d="M185,203c0,0,1.8,1.4,0.8,2.9"/>
			<path id="XMLID_70_" class="st0" d="M172.6,202.4c0,0-2.5,1.2-3.2,2.4"/>
			<path id="XMLID_69_" class="st0" d="M185.4,214.1c0,0,0.8-2.6,0.3-4"/>
			<path id="XMLID_68_" class="st0" d="M171.9,222.6c0,0,2.6,1.1,3.9,0.8"/>
			<path id="XMLID_67_" class="st0" d="M183.8,220.5c0,0-0.9,2.1-2.6,1.4"/>
			<path id="XMLID_66_" class="st0" d="M169.8,209.7c0,0-0.4,1.9-0.9,2.4"/>
			<line id="XMLID_65_" class="st4" x1="179.6" y1="201.8" x2="176.9" y2="201.7"/>
			<path id="XMLID_64_" class="st0" d="M168.9,216.8c0,0-0.6,2.7-0.1,4"/>
		</g>
		<g>
			<path id="XMLID_63_" class="st0" d="M138.8,391c0,0-1.7-2.9-0.4-4.6"/>
			<path id="XMLID_62_" class="st0" d="M142.6,378.7c0,0-1.9,2-2.2,3.4"/>
			<path id="XMLID_61_" class="st0" d="M141.5,395.8c0,0,0.8,2.6,1.8,3.5"/>
		</g>
	</g>
	<g id="XMLID_5_">
		<g id="XMLID_57_">
			<path id="XMLID_60_" class="st0" d="M119.2,85.4c0,0-17.5-23.2-18-5.1c-0.4,18.1,4.5,37.6,11,35.2s6.6-7.8,6.6-7.8"/>
			<path id="XMLID_59_" class="st0" d="M113.4,86.6c0,0-6.8-10.6-8.6-5.6"/>
			<path id="XMLID_58_" class="st0" d="M116,94c0,0-10.1-2.7-8.6,3.2c1.4,5.8,5.1,9.7,6.8,3.2"/>
		</g>
		<path id="XMLID_56_" class="st6" d="M171.7,4c0,0-6.6,5.8,1.6,8.4S178.8,1,171.7,4z"/>
		<path id="XMLID_55_" class="st0" d="M157.8,18c0,0,52.4,3.8,45.2,65.7s-5.4,73.3-35,79.6s-45.8-15.4-49.1-31.9S92,26.2,157.8,18z"
			/>
		<path class="st7" d="M182.4,27.2c6.6,9.8,10.7,23.9,8.3,44.3c-7.4,61.9-5.4,73.3-34.9,79.6c-12.7,2.7-22.9,0.3-30.7-4.6
			c7.7,11.8,21.9,21.4,42.8,16.9c29.6-6.3,27.6-17.6,34.9-79.6C206.7,52.2,194.9,35.7,182.4,27.2z"/>
		<path id="XMLID_54_" class="st2" d="M200,32.8c-0.2-2-1.1-4.6-2.9-8c0,0-0.1,0-0.1,0l0,0c-0.4-0.7-0.8-1.4-1.3-2.1
			c-5.9-9.2-15.4-14.5-24.2-17.2c-37.6-16.9-41.4,18.8-41.5,32.2c0,1.3,16.9-0.2,32.4-4c19.6,7.9,38.1,16.7,38.1,16.7
			S201.8,38.9,200,32.8z"/>
		<path id="XMLID_53_" class="st0" d="M152.4,89.1c0,0,9.4,7,21.5,2.7"/>
		<path id="XMLID_52_" class="st0" d="M129.5,89.4c0,0-15.1,3.2-18.3,1.8"/>
		<path id="XMLID_51_" class="st0" d="M139.5,157.9c0,0-6.2,5.8,6.7,8.3s21.3-0.9,18.8-5.7"/>
		<path id="XMLID_50_" class="st2" d="M120.7,42.7c0,0,20.1-8.2,43.6-3s35.9,10.7,35.9,10.7c-7.6-26-53.2-26.1-76.2-24.7
			C100.9,27.1,107,35.9,107,35.9S110.5,40.2,120.7,42.7z"/>
		<path id="XMLID_49_" class="st0" d="M120.7,42.7c0,0-39.8-11,15.3-13.5s64.2,21.2,64.2,21.2S149.3,28.3,120.7,42.7z"/>
		<g>
			<path id="XMLID_48_" class="st0" d="M149,93.7c0,0-9.4-11.8-9.2-18.3"/>
			<g id="XMLID_45_">
				<path id="XMLID_47_" class="st0" d="M132.6,95c0.3,3.1,1.3,5.2,3.3,5.7c1.1,0.2,2.1,0.2,2.9-0.1c0.6-0.2,1.1-0.4,1.6-0.6"/>
				<path id="XMLID_46_" class="st0" d="M142.8,57.6c0,0-7.2,19.3-9.2,32.8"/>
			</g>
			<g id="XMLID_39_">
				<path id="XMLID_44_" class="st0" d="M129.2,96.6c0,0-6.9,8.1,4.2,10.4"/>
				<path id="XMLID_43_" class="st0" d="M148.4,96.6c0,0,7.4,6.2-3.1,10.4"/>
				<path id="XMLID_42_" class="st0" d="M142.9,101.7c1.1,0.3,2.6-1.9,3.8,0c1.2,1.9-0.1,1.3-1.7,1.8
					C143.4,103.8,141.8,101.3,142.9,101.7z"/>
				<path id="XMLID_41_" class="st0" d="M132.3,104.4c-2.1-0.1-2.6-1.8-1.5-2.7c0.4-0.3,1.6,0.2,2.8,0.9
					C134.4,103.2,132.3,104.4,132.3,104.4z"/>
				<path id="XMLID_40_" class="st0" d="M139.8,92.4c0,0,2.2-0.1,2.7,0.7"/>
			</g>
			<path id="XMLID_38_" class="st0" d="M125.1,101.6c0,0-6.1,3.1-7.8,3.7"/>
			<path id="XMLID_37_" class="st0" d="M152.8,99.9c0,0,7.1,3.4,7.8,3.3"/>
		</g>
		<path id="XMLID_36_" class="st0" d="M183,69.5c0,0,1,2.1-0.6,3"/>
		<path id="XMLID_35_" class="st0" d="M177.5,90.6c0,0-0.4,1.8-1,2.5"/>
		<path id="XMLID_34_" class="st0" d="M178.1,54c0,0,0.8-3.5,0-3.5"/>
		<path id="XMLID_33_" class="st0" d="M127,42.2c0,0,3.3,0.5,2.9,1"/>
		<path id="XMLID_32_" class="st0" d="M147.2,48.4c0,0,3.8-0.5,4.1-1.3"/>
		<path id="XMLID_31_" class="st0" d="M128.4,142.7c0,0,2.8,0.6,3,1.2"/>
		<path id="XMLID_30_" class="st0" d="M151.8,143.9c0,0-2.6,1.2-3.3,2.4"/>
		<path id="XMLID_29_" class="st0" d="M125.8,82.2"/>
		<path id="XMLID_28_" class="st0" d="M144.1,84.4"/>
		<line id="XMLID_27_" class="st4" x1="170.3" y1="104.8" x2="173" y2="104.1"/>
		<path id="XMLID_26_" class="st0" d="M195.6,91.9c0,0,19.4-21.6,18.4-3.6c-1.1,18-7.7,37.1-13.9,34.1s-5.9-8.3-5.9-8.3"/>
		<path id="XMLID_25_" class="st0" d="M201.2,93.7c0,0,7.7-10,9-4.8"/>
		<path id="XMLID_24_" class="st0" d="M198,100.8c0,0,10.2-1.8,8.3,3.9s-5.9,9.2-7.1,2.7"/>
		<g>
			<path id="XMLID_23_" class="st8" d="M113.3,50.5c0,0,35.8-3.5,22.8,25.4S83.3,70.5,113.3,50.5z"/>
			<path id="XMLID_22_" class="st6" d="M114.9,65.3c0,0,5.3-2.2,4.8,3.4S111.2,70.1,114.9,65.3z"/>
			<path id="XMLID_21_" class="st8" d="M153.1,54.5c0,0-26.2,23.1,6.4,33.7S181.6,42.7,153.1,54.5z"/>
			<path id="XMLID_20_" class="st6" d="M171.3,68.6c0,0,5.4-2.2,4.8,3.4S167.6,73.3,171.3,68.6z"/>
			<path id="XMLID_19_" class="st6" d="M155.2,49.8c0,0-12.1,1.4-3.4,9.9S176.9,60,176,57S173.6,48.9,155.2,49.8z"/>
			<path id="XMLID_18_" class="st6" d="M120.1,44.7c0,0-18.6-1-10,9.3s23.9-0.2,25.1-4.7S120.1,44.7,120.1,44.7z"/>
			<g id="XMLID_15_">
				<path id="XMLID_17_" class="st0" d="M174.9,87.1c0.2,0.1,0.4,0.2,0.7,0.2c0.9,0.2,1.8,0.3,2.8-0.7c2.2-2.4-2.9-3.2-2.9-3.2
					l-5.7-0.4c0,0-12.1-0.8-19.1,1.1c0,0,10.5,5.6,16.9,5.2c0.8-0.1,1.4-0.2,2.1-0.4C170.2,88.7,173.8,86.8,174.9,87.1z"/>
				<path id="XMLID_16_" class="st0" d="M117.2,80.1c0,0,7.1-1.3,14.9,1.1c0,0-3.9,8.4-16.4,4.6c-4.1-1.2-4.9,1.1-7.2-1.3
					c-2.2-2.4,2.9-3.2,2.9-3.2L117.2,80.1z"/>
			</g>
		</g>
		<g id="XMLID_10_">
			<path id="XMLID_14_" class="st6" d="M125.5,121.2c0,0-19.2,2.5-8.5,9.5C127.7,137.6,125.5,121.2,125.5,121.2z"/>
			<path id="XMLID_13_" class="st6" d="M122.7,115.5c0,0-15.8-0.8-8.6,7.3c7.3,8.2,20.3-0.2,21.4-3.7S122.7,115.5,122.7,115.5z"/>
			<path id="XMLID_12_" class="st6" d="M154.4,119.6c0,0-7.7-2.6-6.4,7.2c1.3,9.8,14.7,8.1,15.5,5.3S165.6,124.6,154.4,119.6z"/>
			<path id="XMLID_11_" class="st6" d="M147.8,117c0,0-22.5-2.8-0.3,8S173.4,120.4,147.8,117z"/>
		</g>
		<g id="XMLID_6_">
			<path id="XMLID_9_" class="st0" d="M127.7,130.6c0,0,11.8,11.6,18.3,0"/>
			<path id="XMLID_8_" class="st0" d="M130.4,128.7c0,0,3.2-3.5,5.7,0"/>
			<path id="XMLID_7_" class="st0" d="M141.7,128.7c0,0-3.2-3.5-5.6,0"/>
		</g>
	</g>
	<path id="XMLID_4_" class="st0" d="M170.6,187.1c0.9-0.3,1.7-0.9,2.4-2.2"/>
	<path id="XMLID_3_" class="st0" d="M138.9,180.1c0,0,0.2,1.1,1,2.1"/>
	<path id="XMLID_2_" class="st0" d="M146,189.6c0.2,0.1,0.6,0.3,0.9,0.4"/>
	<path id="XMLID_1_" class="st2" d="M119.1,332.5c0,0,2.8-93.9-1.7-107.4"/>
</g>
</svg>
