<?xml version="1.0" encoding="utf-8"?>
<!-- Generator: Adobe Illustrator 22.1.0, SVG Export Plug-In . SVG Version: 6.00 Build 0)  -->
<svg version="1.1" id="Layer_1" xmlns="http://www.w3.org/2000/svg" xmlns:xlink="http://www.w3.org/1999/xlink" x="0px" y="0px"
	 viewBox="0 0 337.3 180.1" style="enable-background:new 0 0 337.3 180.1;" xml:space="preserve">
<style type="text/css">
	.st0{fill:#FDF5EA;stroke:#5B5B4B;stroke-linecap:round;stroke-miterlimit:10;}
	.st1{opacity:0.25;fill:#FFFFFF;}
</style>
<g id="Layer_5">
</g>
<g id="Layer_3">
</g>
<path class="st0" d="M4.4,174.1c0,0-8.9-0.8,4.5-0.8s223.2,0.2,250,0.2s75.9-0.5,75.9,0s0,5,0,5s4.5,1,0,1c-4.5,0-325.9,0-325.9,0
	s-4.5,0-4.5-0.5S4.4,174.4,4.4,174.1z"/>
<path class="st0" d="M4.4,162.4c0,0-8.9-1.5,4.5-1.5s223.2,0.5,250,0.5s75.9-1,75.9,0c0,1,0,10.1,0,10.1s4.5,2,0,2
	c-4.5,0-325.9,0-325.9,0s-4.5,0-4.5-1C4.4,171.5,4.4,162.9,4.4,162.4z"/>
<g>
	<path class="st0" d="M207.1,78.8c0,0-0.5-11.2,0.2-11.2S224,68,224.9,68c0.5,0,0.8,0.9,0.8,3.3c0,7.5,0,74.8,0,74.8s0.2,15,0,15
		s-18.2,0-18.2,0s-0.2,0-0.2-7.5S207.1,82.6,207.1,78.8z"/>
	<g>
		<g>
			<path class="st0" d="M235,144c0,0,0-1.5,1.8-1.5s16.2,0,16.2,0s1-0.2,0.8,0.8s0.5,5.8-0.5,5.5s-12.8,0-12.8,0s-5.2,0.2-5.5-0.5
				S235,144,235,144z"/>
			<path class="st0" d="M216.3,143.5c0,0-0.5-1,0.8-1s17.2,0,17.2,0s0.8,0,0.8,0.5s0,5.8-0.2,5.8s-12.8-0.2-14.8,0s-3.8,0-3.8-2
				S216.3,143.5,216.3,143.5z"/>
			<path class="st0" d="M225.8,137c0,0-0.5-0.8,0.2-0.8s12.5,0.2,14,0.2s4.2-0.5,4.2,0s0,5,0,5s0.2,1,0,1s-18.2,0-18.2,0
				s-0.2,0-0.2-0.5S225.8,137.2,225.8,137z"/>
			<path class="st0" d="M207.3,136.2c0,0-0.2,0-0.2,0.2s0,5.8,0,5.8s0,0.2,0.2,0.2s17.8,0,17.8,0s0.5,0,0.5-0.2s0-5.8,0-5.8
				s0-0.2-0.2-0.2S207.3,136.2,207.3,136.2z"/>
			<path class="st0" d="M235,156.4c0,0,0-1.5,1.8-1.5s16.2,0,16.2,0s1-0.2,0.8,0.8s0.5,5.8-0.5,5.5s-12.8,0-12.8,0s-5.2,0.2-5.5-0.5
				S235,156.4,235,156.4z"/>
			<path class="st0" d="M216.3,155.9c0,0-0.5-1,0.8-1s17.2,0,17.2,0s0.8,0,0.8,0.5s0,5.8-0.2,5.8s-12.8-0.2-14.8,0s-3.8,0-3.8-2
				S216.3,155.9,216.3,155.9z"/>
			<path class="st0" d="M225.8,149.4c0,0-0.5-0.8,0.2-0.8s12.5,0.2,14,0.2s4.2-0.5,4.2,0s0,5,0,5s0.2,1,0,1s-18.2,0-18.2,0
				s-0.2,0-0.2-0.5S225.8,149.7,225.8,149.4z"/>
			<path class="st0" d="M207.3,148.7c0,0-0.2,0-0.2,0.2s0,5.8,0,5.8s0,0.2,0.2,0.2s17.8,0,17.8,0s0.5,0,0.5-0.2s0-5.8,0-5.8
				s0-0.2-0.2-0.2S207.3,148.7,207.3,148.7z"/>
			<path class="st0" d="M235,119c0,0,0-1.5,1.8-1.5s16.2,0,16.2,0s1-0.2,0.8,0.8s0.5,5.8-0.5,5.5s-12.8,0-12.8,0s-5.2,0.2-5.5-0.5
				S235,119,235,119z"/>
			<path class="st0" d="M216.3,118.5c0,0-0.5-1,0.8-1s17.2,0,17.2,0s0.8,0,0.8,0.5s0,5.8-0.2,5.8s-12.8-0.2-14.8,0s-3.8,0-3.8-2
				S216.3,118.5,216.3,118.5z"/>
			<path class="st0" d="M225.8,112c0,0-0.5-0.8,0.2-0.8s12.5,0.2,14,0.2s4.2-0.5,4.2,0s0,5,0,5s0.2,1,0,1s-18.2,0-18.2,0
				s-0.2,0-0.2-0.5S225.8,112.2,225.8,112z"/>
			<path class="st0" d="M207.3,111.2c0,0-0.2,0-0.2,0.2s0,5.8,0,5.8s0,0.2,0.2,0.2s17.8,0,17.8,0s0.5,0,0.5-0.2s0-5.8,0-5.8
				s0-0.2-0.2-0.2S207.3,111.2,207.3,111.2z"/>
			<path class="st0" d="M235,131.4c0,0,0-1.5,1.8-1.5s16.2,0,16.2,0s1-0.2,0.8,0.8s0.5,5.8-0.5,5.5s-12.8,0-12.8,0s-5.2,0.2-5.5-0.5
				S235,131.4,235,131.4z"/>
			<path class="st0" d="M216.3,130.9c0,0-0.5-1,0.8-1s17.2,0,17.2,0s0.8,0,0.8,0.5s0,5.8-0.2,5.8s-12.8-0.2-14.8,0s-3.8,0-3.8-2
				S216.3,130.9,216.3,130.9z"/>
			<path class="st0" d="M225.8,124.4c0,0-0.5-0.8,0.2-0.8s12.5,0.2,14,0.2s4.2-0.5,4.2,0s0,5,0,5s0.2,1,0,1s-18.2,0-18.2,0
				s-0.2,0-0.2-0.5S225.8,124.7,225.8,124.4z"/>
			<path class="st0" d="M207.3,123.7c0,0-0.2,0-0.2,0.2s0,5.8,0,5.8s0,0.2,0.2,0.2s17.8,0,17.8,0s0.5,0,0.5-0.2s0-5.8,0-5.8
				s0-0.2-0.2-0.2S207.3,123.7,207.3,123.7z"/>
		</g>
		<g>
			<path class="st0" d="M235,94c0,0,0-1.5,1.8-1.5s16.2,0,16.2,0s1-0.2,0.8,0.8s0.5,5.8-0.5,5.5s-12.8,0-12.8,0s-5.2,0.2-5.5-0.5
				S235,94,235,94z"/>
			<path class="st0" d="M216.3,93.5c0,0-0.5-1,0.8-1s17.2,0,17.2,0s0.8,0,0.8,0.5s0,5.8-0.2,5.8s-12.8-0.2-14.8,0s-3.8,0-3.8-2
				S216.3,93.5,216.3,93.5z"/>
			<path class="st0" d="M225.8,87c0,0-0.5-0.8,0.2-0.8s12.5,0.2,14,0.2s4.2-0.5,4.2,0s0,5,0,5s0.2,1,0,1s-18.2,0-18.2,0
				s-0.2,0-0.2-0.5S225.8,87.2,225.8,87z"/>
			<path class="st0" d="M207.3,86.2c0,0-0.2,0-0.2,0.2s0,5.8,0,5.8s0,0.2,0.2,0.2s17.8,0,17.8,0s0.5,0,0.5-0.2s0-5.8,0-5.8
				s0-0.2-0.2-0.2S207.3,86.2,207.3,86.2z"/>
			<path class="st0" d="M235,106.4c0,0,0-1.5,1.8-1.5s16.2,0,16.2,0s1-0.2,0.8,0.8s0.5,5.8-0.5,5.5s-12.8,0-12.8,0s-5.2,0.2-5.5-0.5
				S235,106.4,235,106.4z"/>
			<path class="st0" d="M216.3,105.9c0,0-0.5-1,0.8-1s17.2,0,17.2,0s0.8,0,0.8,0.5s0,5.8-0.2,5.8s-12.8-0.2-14.8,0s-3.8,0-3.8-2
				S216.3,105.9,216.3,105.9z"/>
			<path class="st0" d="M225.8,99.4c0,0-0.5-0.8,0.2-0.8s12.5,0.2,14,0.2s4.2-0.5,4.2,0s0,5,0,5s0.2,1,0,1s-18.2,0-18.2,0
				s-0.2,0-0.2-0.5S225.8,99.7,225.8,99.4z"/>
			<path class="st0" d="M207.3,98.7c0,0-0.2,0-0.2,0.2s0,5.8,0,5.8s0,0.2,0.2,0.2s17.8,0,17.8,0s0.5,0,0.5-0.2s0-5.8,0-5.8
				s0-0.2-0.2-0.2S207.3,98.7,207.3,98.7z"/>
			<path class="st0" d="M235,69c0,0,0-1.5,1.8-1.5s16.2,0,16.2,0s1-0.2,0.8,0.8s0.5,5.8-0.5,5.5s-12.8,0-12.8,0s-5.2,0.2-5.5-0.5
				S235,69,235,69z"/>
			<path class="st0" d="M216.3,68.5c0,0-0.5-1,0.8-1s17.2,0,17.2,0s0.8,0,0.8,0.5s0,5.8-0.2,5.8s-12.8-0.2-14.8,0s-3.8,0-3.8-2
				S216.3,68.5,216.3,68.5z"/>
			<path class="st0" d="M225.8,62c0,0-0.5-0.8,0.2-0.8s12.5,0.2,14,0.2s4.2-0.5,4.2,0s0,5,0,5s0.2,1,0,1s-18.2,0-18.2,0
				s-0.2,0-0.2-0.5S225.8,62.2,225.8,62z"/>
			<path class="st0" d="M207.3,61.2c0,0-0.2,0-0.2,0.2s0,5.8,0,5.8s0,0.2,0.2,0.2s17.8,0,17.8,0s0.5,0,0.5-0.2s0-5.8,0-5.8
				s0-0.2-0.2-0.2S207.3,61.2,207.3,61.2z"/>
			<path class="st0" d="M235,81.4c0,0,0-1.5,1.8-1.5s16.2,0,16.2,0s1-0.2,0.8,0.8s0.5,5.8-0.5,5.5s-12.8,0-12.8,0s-5.2,0.2-5.5-0.5
				S235,81.4,235,81.4z"/>
			<path class="st0" d="M216.3,80.9c0,0-0.5-1,0.8-1s17.2,0,17.2,0s0.8,0,0.8,0.5s0,5.8-0.2,5.8s-12.8-0.2-14.8,0s-3.8,0-3.8-2
				S216.3,80.9,216.3,80.9z"/>
			<path class="st0" d="M225.8,74.4c0,0-0.5-0.8,0.2-0.8s12.5,0.2,14,0.2s4.2-0.5,4.2,0s0,5,0,5s0.2,1,0,1s-18.2,0-18.2,0
				s-0.2,0-0.2-0.5S225.8,74.7,225.8,74.4z"/>
			<path class="st0" d="M207.3,73.7c0,0-0.2,0-0.2,0.2s0,5.8,0,5.8s0,0.2,0.2,0.2s17.8,0,17.8,0s0.5,0,0.5-0.2s0-5.8,0-5.8
				s0-0.2-0.2-0.2S207.3,73.7,207.3,73.7z"/>
		</g>
		<g>
			<path class="st0" d="M272.5,144c0,0,0-1.5,1.8-1.5s16.2,0,16.2,0s1-0.2,0.8,0.8s0.5,5.8-0.5,5.5s-12.8,0-12.8,0s-5.2,0.2-5.5-0.5
				S272.5,144,272.5,144z"/>
			<path class="st0" d="M253.8,143.5c0,0-0.5-1,0.8-1s17.2,0,17.2,0s0.8,0,0.8,0.5s0,5.8-0.2,5.8s-12.8-0.2-14.8,0s-3.8,0-3.8-2
				S253.8,143.5,253.8,143.5z"/>
			<path class="st0" d="M263.3,137c0,0-0.5-0.8,0.2-0.8s12.5,0.2,14,0.2s4.2-0.5,4.2,0s0,5,0,5s0.2,1,0,1s-18.2,0-18.2,0
				s-0.2,0-0.2-0.5S263.3,137.2,263.3,137z"/>
			<path class="st0" d="M244.8,136.2c0,0-0.2,0-0.2,0.2s0,5.8,0,5.8s0,0.2,0.2,0.2s17.8,0,17.8,0s0.5,0,0.5-0.2s0-5.8,0-5.8
				s0-0.2-0.2-0.2S244.8,136.2,244.8,136.2z"/>
			<path class="st0" d="M272.5,156.4c0,0,0-1.5,1.8-1.5s16.2,0,16.2,0s1-0.2,0.8,0.8s0.5,5.8-0.5,5.5s-12.8,0-12.8,0
				s-5.2,0.2-5.5-0.5S272.5,156.4,272.5,156.4z"/>
			<path class="st0" d="M253.8,155.9c0,0-0.5-1,0.8-1s17.2,0,17.2,0s0.8,0,0.8,0.5s0,5.8-0.2,5.8s-12.8-0.2-14.8,0s-3.8,0-3.8-2
				S253.8,155.9,253.8,155.9z"/>
			<path class="st0" d="M263.3,149.4c0,0-0.5-0.8,0.2-0.8s12.5,0.2,14,0.2s4.2-0.5,4.2,0s0,5,0,5s0.2,1,0,1s-18.2,0-18.2,0
				s-0.2,0-0.2-0.5S263.3,149.7,263.3,149.4z"/>
			<path class="st0" d="M244.8,148.7c0,0-0.2,0-0.2,0.2s0,5.8,0,5.8s0,0.2,0.2,0.2s17.8,0,17.8,0s0.5,0,0.5-0.2s0-5.8,0-5.8
				s0-0.2-0.2-0.2S244.8,148.7,244.8,148.7z"/>
			<path class="st0" d="M272.5,119c0,0,0-1.5,1.8-1.5s16.2,0,16.2,0s1-0.2,0.8,0.8s0.5,5.8-0.5,5.5s-12.8,0-12.8,0s-5.2,0.2-5.5-0.5
				S272.5,119,272.5,119z"/>
			<path class="st0" d="M253.8,118.5c0,0-0.5-1,0.8-1s17.2,0,17.2,0s0.8,0,0.8,0.5s0,5.8-0.2,5.8s-12.8-0.2-14.8,0s-3.8,0-3.8-2
				S253.8,118.5,253.8,118.5z"/>
			<path class="st0" d="M263.3,112c0,0-0.5-0.8,0.2-0.8s12.5,0.2,14,0.2s4.2-0.5,4.2,0s0,5,0,5s0.2,1,0,1s-18.2,0-18.2,0
				s-0.2,0-0.2-0.5S263.3,112.2,263.3,112z"/>
			<path class="st0" d="M244.8,111.2c0,0-0.2,0-0.2,0.2s0,5.8,0,5.8s0,0.2,0.2,0.2s17.8,0,17.8,0s0.5,0,0.5-0.2s0-5.8,0-5.8
				s0-0.2-0.2-0.2S244.8,111.2,244.8,111.2z"/>
			<path class="st0" d="M272.5,131.4c0,0,0-1.5,1.8-1.5s16.2,0,16.2,0s1-0.2,0.8,0.8s0.5,5.8-0.5,5.5s-12.8,0-12.8,0
				s-5.2,0.2-5.5-0.5S272.5,131.4,272.5,131.4z"/>
			<path class="st0" d="M253.8,130.9c0,0-0.5-1,0.8-1s17.2,0,17.2,0s0.8,0,0.8,0.5s0,5.8-0.2,5.8s-12.8-0.2-14.8,0s-3.8,0-3.8-2
				S253.8,130.9,253.8,130.9z"/>
			<path class="st0" d="M263.3,124.4c0,0-0.5-0.8,0.2-0.8s12.5,0.2,14,0.2s4.2-0.5,4.2,0s0,5,0,5s0.2,1,0,1s-18.2,0-18.2,0
				s-0.2,0-0.2-0.5S263.3,124.7,263.3,124.4z"/>
			<path class="st0" d="M244.8,123.7c0,0-0.2,0-0.2,0.2s0,5.8,0,5.8s0,0.2,0.2,0.2s17.8,0,17.8,0s0.5,0,0.5-0.2s0-5.8,0-5.8
				s0-0.2-0.2-0.2S244.8,123.7,244.8,123.7z"/>
		</g>
		<g>
			<path class="st0" d="M272.5,94c0,0,0-1.5,1.8-1.5s16.2,0,16.2,0s1-0.2,0.8,0.8s0.5,5.8-0.5,5.5s-12.8,0-12.8,0s-5.2,0.2-5.5-0.5
				S272.5,94,272.5,94z"/>
			<path class="st0" d="M253.8,93.5c0,0-0.5-1,0.8-1s17.2,0,17.2,0s0.8,0,0.8,0.5s0,5.8-0.2,5.8s-12.8-0.2-14.8,0s-3.8,0-3.8-2
				S253.8,93.5,253.8,93.5z"/>
			<path class="st0" d="M263.3,87c0,0-0.5-0.8,0.2-0.8s12.5,0.2,14,0.2s4.2-0.5,4.2,0s0,5,0,5s0.2,1,0,1s-18.2,0-18.2,0
				s-0.2,0-0.2-0.5S263.3,87.2,263.3,87z"/>
			<path class="st0" d="M244.8,86.2c0,0-0.2,0-0.2,0.2s0,5.8,0,5.8s0,0.2,0.2,0.2s17.8,0,17.8,0s0.5,0,0.5-0.2s0-5.8,0-5.8
				s0-0.2-0.2-0.2S244.8,86.2,244.8,86.2z"/>
			<path class="st0" d="M272.5,106.4c0,0,0-1.5,1.8-1.5s16.2,0,16.2,0s1-0.2,0.8,0.8s0.5,5.8-0.5,5.5s-12.8,0-12.8,0
				s-5.2,0.2-5.5-0.5S272.5,106.4,272.5,106.4z"/>
			<path class="st0" d="M253.8,105.9c0,0-0.5-1,0.8-1s17.2,0,17.2,0s0.8,0,0.8,0.5s0,5.8-0.2,5.8s-12.8-0.2-14.8,0s-3.8,0-3.8-2
				S253.8,105.9,253.8,105.9z"/>
			<path class="st0" d="M263.3,99.4c0,0-0.5-0.8,0.2-0.8s12.5,0.2,14,0.2s4.2-0.5,4.2,0s0,5,0,5s0.2,1,0,1s-18.2,0-18.2,0
				s-0.2,0-0.2-0.5S263.3,99.7,263.3,99.4z"/>
			<path class="st0" d="M244.8,98.7c0,0-0.2,0-0.2,0.2s0,5.8,0,5.8s0,0.2,0.2,0.2s17.8,0,17.8,0s0.5,0,0.5-0.2s0-5.8,0-5.8
				s0-0.2-0.2-0.2S244.8,98.7,244.8,98.7z"/>
			<path class="st0" d="M272.5,69c0,0,0-1.5,1.8-1.5s16.2,0,16.2,0s1-0.2,0.8,0.8s0.5,5.8-0.5,5.5s-12.8,0-12.8,0s-5.2,0.2-5.5-0.5
				S272.5,69,272.5,69z"/>
			<path class="st0" d="M253.8,68.5c0,0-0.5-1,0.8-1s17.2,0,17.2,0s0.8,0,0.8,0.5s0,5.8-0.2,5.8s-12.8-0.2-14.8,0s-3.8,0-3.8-2
				S253.8,68.5,253.8,68.5z"/>
			<path class="st0" d="M263.3,62c0,0-0.5-0.8,0.2-0.8s12.5,0.2,14,0.2s4.2-0.5,4.2,0s0,5,0,5s0.2,1,0,1s-18.2,0-18.2,0
				s-0.2,0-0.2-0.5S263.3,62.2,263.3,62z"/>
			<path class="st0" d="M244.8,61.2c0,0-0.2,0-0.2,0.2s0,5.8,0,5.8s0,0.2,0.2,0.2s17.8,0,17.8,0s0.5,0,0.5-0.2s0-5.8,0-5.8
				s0-0.2-0.2-0.2S244.8,61.2,244.8,61.2z"/>
			<path class="st0" d="M272.5,81.4c0,0,0-1.5,1.8-1.5s16.2,0,16.2,0s1-0.2,0.8,0.8s0.5,5.8-0.5,5.5s-12.8,0-12.8,0
				s-5.2,0.2-5.5-0.5S272.5,81.4,272.5,81.4z"/>
			<path class="st0" d="M253.8,80.9c0,0-0.5-1,0.8-1s17.2,0,17.2,0s0.8,0,0.8,0.5s0,5.8-0.2,5.8s-12.8-0.2-14.8,0s-3.8,0-3.8-2
				S253.8,80.9,253.8,80.9z"/>
			<path class="st0" d="M263.3,74.4c0,0-0.5-0.8,0.2-0.8s12.5,0.2,14,0.2s4.2-0.5,4.2,0s0,5,0,5s0.2,1,0,1s-18.2,0-18.2,0
				s-0.2,0-0.2-0.5S263.3,74.7,263.3,74.4z"/>
			<path class="st0" d="M244.8,73.7c0,0-0.2,0-0.2,0.2s0,5.8,0,5.8s0,0.2,0.2,0.2s17.8,0,17.8,0s0.5,0,0.5-0.2s0-5.8,0-5.8
				s0-0.2-0.2-0.2S244.8,73.7,244.8,73.7z"/>
		</g>
		<g>
			<path class="st0" d="M310,144c0,0,0-1.5,1.8-1.5s16.2,0,16.2,0s1-0.2,0.8,0.8s0.5,5.8-0.5,5.5s-12.8,0-12.8,0s-5.2,0.2-5.5-0.5
				S310,144,310,144z"/>
			<path class="st0" d="M291.3,143.5c0,0-0.5-1,0.8-1s17.2,0,17.2,0s0.8,0,0.8,0.5s0,5.8-0.2,5.8s-12.8-0.2-14.8,0s-3.8,0-3.8-2
				S291.3,143.5,291.3,143.5z"/>
			<path class="st0" d="M300.8,137c0,0-0.5-0.8,0.2-0.8s12.5,0.2,14,0.2s4.2-0.5,4.2,0s0,5,0,5s0.2,1,0,1s-18.2,0-18.2,0
				s-0.2,0-0.2-0.5S300.8,137.2,300.8,137z"/>
			<path class="st0" d="M282.3,136.2c0,0-0.2,0-0.2,0.2s0,5.8,0,5.8s0,0.2,0.2,0.2s17.8,0,17.8,0s0.5,0,0.5-0.2s0-5.8,0-5.8
				s0-0.2-0.2-0.2S282.3,136.2,282.3,136.2z"/>
			<path class="st0" d="M310,156.4c0,0,0-1.5,1.8-1.5s16.2,0,16.2,0s1-0.2,0.8,0.8s0.5,5.8-0.5,5.5s-12.8,0-12.8,0s-5.2,0.2-5.5-0.5
				S310,156.4,310,156.4z"/>
			<path class="st0" d="M291.3,155.9c0,0-0.5-1,0.8-1s17.2,0,17.2,0s0.8,0,0.8,0.5s0,5.8-0.2,5.8s-12.8-0.2-14.8,0s-3.8,0-3.8-2
				S291.3,155.9,291.3,155.9z"/>
			<path class="st0" d="M300.8,149.4c0,0-0.5-0.8,0.2-0.8s12.5,0.2,14,0.2s4.2-0.5,4.2,0s0,5,0,5s0.2,1,0,1s-18.2,0-18.2,0
				s-0.2,0-0.2-0.5S300.8,149.7,300.8,149.4z"/>
			<path class="st0" d="M282.3,148.7c0,0-0.2,0-0.2,0.2s0,5.8,0,5.8s0,0.2,0.2,0.2s17.8,0,17.8,0s0.5,0,0.5-0.2s0-5.8,0-5.8
				s0-0.2-0.2-0.2S282.3,148.7,282.3,148.7z"/>
			<path class="st0" d="M310,119c0,0,0-1.5,1.8-1.5s16.2,0,16.2,0s1-0.2,0.8,0.8s0.5,5.8-0.5,5.5s-12.8,0-12.8,0s-5.2,0.2-5.5-0.5
				S310,119,310,119z"/>
			<path class="st0" d="M291.3,118.5c0,0-0.5-1,0.8-1s17.2,0,17.2,0s0.8,0,0.8,0.5s0,5.8-0.2,5.8s-12.8-0.2-14.8,0s-3.8,0-3.8-2
				S291.3,118.5,291.3,118.5z"/>
			<path class="st0" d="M300.8,112c0,0-0.5-0.8,0.2-0.8s12.5,0.2,14,0.2s4.2-0.5,4.2,0s0,5,0,5s0.2,1,0,1s-18.2,0-18.2,0
				s-0.2,0-0.2-0.5S300.8,112.2,300.8,112z"/>
			<path class="st0" d="M282.3,111.2c0,0-0.2,0-0.2,0.2s0,5.8,0,5.8s0,0.2,0.2,0.2s17.8,0,17.8,0s0.5,0,0.5-0.2s0-5.8,0-5.8
				s0-0.2-0.2-0.2S282.3,111.2,282.3,111.2z"/>
			<path class="st0" d="M310,131.4c0,0,0-1.5,1.8-1.5s16.2,0,16.2,0s1-0.2,0.8,0.8s0.5,5.8-0.5,5.5s-12.8,0-12.8,0s-5.2,0.2-5.5-0.5
				S310,131.4,310,131.4z"/>
			<path class="st0" d="M291.3,130.9c0,0-0.5-1,0.8-1s17.2,0,17.2,0s0.8,0,0.8,0.5s0,5.8-0.2,5.8s-12.8-0.2-14.8,0s-3.8,0-3.8-2
				S291.3,130.9,291.3,130.9z"/>
			<path class="st0" d="M300.8,124.4c0,0-0.5-0.8,0.2-0.8s12.5,0.2,14,0.2s4.2-0.5,4.2,0s0,5,0,5s0.2,1,0,1s-18.2,0-18.2,0
				s-0.2,0-0.2-0.5S300.8,124.7,300.8,124.4z"/>
			<path class="st0" d="M282.3,123.7c0,0-0.2,0-0.2,0.2s0,5.8,0,5.8s0,0.2,0.2,0.2s17.8,0,17.8,0s0.5,0,0.5-0.2s0-5.8,0-5.8
				s0-0.2-0.2-0.2S282.3,123.7,282.3,123.7z"/>
		</g>
		<g>
			<path class="st0" d="M310.1,72.7c0,0-0.5-11.2,0.2-11.2s16.6,0.4,17.5,0.4c0.5,0,0.8,0.9,0.8,3.3c0,7.5,0,74.8,0,74.8
				s0.2,15,0,15s-18.2,0-18.2,0s-0.2,0-0.2-7.5S310.1,76.4,310.1,72.7z"/>
			<path class="st0" d="M310,94c0,0,0-1.5,1.8-1.5s16.2,0,16.2,0s1-0.2,0.8,0.8s0.5,5.8-0.5,5.5s-12.8,0-12.8,0s-5.2,0.2-5.5-0.5
				S310,94,310,94z"/>
			<path class="st0" d="M291.3,93.5c0,0-0.5-1,0.8-1s17.2,0,17.2,0s0.8,0,0.8,0.5s0,5.8-0.2,5.8s-12.8-0.2-14.8,0s-3.8,0-3.8-2
				S291.3,93.5,291.3,93.5z"/>
			<path class="st0" d="M300.8,87c0,0-0.5-0.8,0.2-0.8s12.5,0.2,14,0.2s4.2-0.5,4.2,0s0,5,0,5s0.2,1,0,1s-18.2,0-18.2,0
				s-0.2,0-0.2-0.5S300.8,87.2,300.8,87z"/>
			<path class="st0" d="M282.3,86.2c0,0-0.2,0-0.2,0.2s0,5.8,0,5.8s0,0.2,0.2,0.2s17.8,0,17.8,0s0.5,0,0.5-0.2s0-5.8,0-5.8
				s0-0.2-0.2-0.2S282.3,86.2,282.3,86.2z"/>
			<path class="st0" d="M310,106.4c0,0,0-1.5,1.8-1.5s16.2,0,16.2,0s1-0.2,0.8,0.8s0.5,5.8-0.5,5.5s-12.8,0-12.8,0s-5.2,0.2-5.5-0.5
				S310,106.4,310,106.4z"/>
			<path class="st0" d="M291.3,105.9c0,0-0.5-1,0.8-1s17.2,0,17.2,0s0.8,0,0.8,0.5s0,5.8-0.2,5.8s-12.8-0.2-14.8,0s-3.8,0-3.8-2
				S291.3,105.9,291.3,105.9z"/>
			<path class="st0" d="M300.8,99.4c0,0-0.5-0.8,0.2-0.8s12.5,0.2,14,0.2s4.2-0.5,4.2,0s0,5,0,5s0.2,1,0,1s-18.2,0-18.2,0
				s-0.2,0-0.2-0.5S300.8,99.7,300.8,99.4z"/>
			<path class="st0" d="M282.3,98.7c0,0-0.2,0-0.2,0.2s0,5.8,0,5.8s0,0.2,0.2,0.2s17.8,0,17.8,0s0.5,0,0.5-0.2s0-5.8,0-5.8
				s0-0.2-0.2-0.2S282.3,98.7,282.3,98.7z"/>
			<path class="st0" d="M310,69c0,0,0-1.5,1.8-1.5s16.2,0,16.2,0s1-0.2,0.8,0.8s0.5,5.8-0.5,5.5s-12.8,0-12.8,0s-5.2,0.2-5.5-0.5
				S310,69,310,69z"/>
			<path class="st0" d="M291.3,68.5c0,0-0.5-1,0.8-1s17.2,0,17.2,0s0.8,0,0.8,0.5s0,5.8-0.2,5.8s-12.8-0.2-14.8,0s-3.8,0-3.8-2
				S291.3,68.5,291.3,68.5z"/>
			<path class="st0" d="M300.8,62c0,0-0.5-0.8,0.2-0.8s12.5,0.2,14,0.2s4.2-0.5,4.2,0s0,5,0,5s0.2,1,0,1s-18.2,0-18.2,0
				s-0.2,0-0.2-0.5S300.8,62.2,300.8,62z"/>
			<path class="st0" d="M282.3,61.2c0,0-0.2,0-0.2,0.2s0,5.8,0,5.8s0,0.2,0.2,0.2s17.8,0,17.8,0s0.5,0,0.5-0.2s0-5.8,0-5.8
				s0-0.2-0.2-0.2S282.3,61.2,282.3,61.2z"/>
			<path class="st0" d="M310,81.4c0,0,0-1.5,1.8-1.5s16.2,0,16.2,0s1-0.2,0.8,0.8s0.5,5.8-0.5,5.5s-12.8,0-12.8,0s-5.2,0.2-5.5-0.5
				S310,81.4,310,81.4z"/>
			<path class="st0" d="M291.3,80.9c0,0-0.5-1,0.8-1s17.2,0,17.2,0s0.8,0,0.8,0.5s0,5.8-0.2,5.8s-12.8-0.2-14.8,0s-3.8,0-3.8-2
				S291.3,80.9,291.3,80.9z"/>
			<path class="st0" d="M300.8,74.4c0,0-0.5-0.8,0.2-0.8s12.5,0.2,14,0.2s4.2-0.5,4.2,0s0,5,0,5s0.2,1,0,1s-18.2,0-18.2,0
				s-0.2,0-0.2-0.5S300.8,74.7,300.8,74.4z"/>
			<path class="st0" d="M282.3,73.7c0,0-0.2,0-0.2,0.2s0,5.8,0,5.8s0,0.2,0.2,0.2s17.8,0,17.8,0s0.5,0,0.5-0.2s0-5.8,0-5.8
				s0-0.2-0.2-0.2S282.3,73.7,282.3,73.7z"/>
		</g>
	</g>
	<g>
		<path class="st0" d="M265.9,139.2c0,0-0.8,0-0.8,0.2s0.1,21.7,0.1,21.7s-0.1,0.2,0.2,0.2s10.6-0.2,10.6-0.2s0.2-0.1,0.2-0.2
			c0-0.1,0-21.8,0-21.8s0-0.1-0.2-0.1S265.9,139.2,265.9,139.2z"/>
		<g>
			<path class="st0" d="M265.2,139.3c0,0.1,0,0.1,0,0.2c0,1.1,0,15.1,0,18.1c0,1.8,0,3.2,0,4"/>
			<path class="st0" d="M265.1,161.3c0.1,0,0.2,0,0.3,0c0.7-0.1,5.2-0.1,10.8-0.2"/>
			<path class="st0" d="M265.2,139.3c0.1,0,0.2,0,0.4,0c0.7-0.1,5.4-0.1,11.3-0.2"/>
			<path class="st0" d="M276.2,139c0,0.1,0,0.1,0,0.2c0,1.1,0,15.1,0,18.1c0,1.8,0,3.2,0,4"/>
		</g>
		<path class="st0" d="M265.6,148c0-0.4,0-0.9,0.1-0.9c0.1,0,0.4-0.3,0.4,1.4c0,1.8,0,4.3,0,4.4c-0.1,0.1-0.5,0.9-0.4-0.8
			c0-1,0-1.8,0-2.3C265.6,149.4,265.6,148.2,265.6,148z"/>
	</g>
	<g>
		<path class="st0" d="M233,94.6c0,0,0,0.8,0.2,0.8s21.7-0.1,21.7-0.1s0.2,0.1,0.2-0.2S255,84.5,255,84.5s-0.1-0.2-0.2-0.2
			s-21.8,0-21.8,0s-0.1,0-0.1,0.2S233,94.6,233,94.6z"/>
		<g>
			<path class="st0" d="M233,95.3c0.1,0,0.1,0,0.2,0c1.1,0,15.1,0,18.1,0c1.8,0,3.2,0,4,0"/>
			<path class="st0" d="M255.1,95.4c0-0.1,0-0.2,0-0.3c-0.1-0.7-0.1-5.2-0.2-10.8"/>
			<path class="st0" d="M233,95.3c0-0.1,0-0.2,0-0.4c-0.1-0.7-0.1-5.4-0.2-11.3"/>
			<path class="st0" d="M232.8,84.3c0.1,0,0.1,0,0.2,0c1.1,0,15.1,0,18.1,0c1.8,0,3.2,0,4,0"/>
		</g>
		<path class="st0" d="M236.3,96.3c-1.3,0-3.3-0.1-3.4-0.4c-0.1-0.5-1.1-1.4,5.4-1.3c6.6,0,16.2-0.1,16.4,0.1
			c0.3,0.2,3.4,1.7-2.9,1.7c-3.8,0-6.9,0-8.8,0C241.7,96.3,237,96.3,236.3,96.3z"/>
	</g>
	<g>
		<path class="st0" d="M233,116.1c0,0,0,0.8,0.2,0.8s21.7-0.1,21.7-0.1s0.2,0.1,0.2-0.2S255,106,255,106s-0.1-0.2-0.2-0.2
			s-21.8,0-21.8,0s-0.1,0-0.1,0.2S233,116.1,233,116.1z"/>
		<g>
			<path class="st0" d="M233,116.8c0.1,0,0.1,0,0.2,0c1.1,0,15.1,0,18.1,0c1.8,0,3.2,0,4,0"/>
			<path class="st0" d="M255.1,116.9c0-0.1,0-0.2,0-0.3c-0.1-0.7-0.1-5.2-0.2-10.8"/>
			<path class="st0" d="M233,116.8c0-0.1,0-0.2,0-0.4c-0.1-0.7-0.1-5.4-0.2-11.3"/>
			<path class="st0" d="M232.8,105.8c0.1,0,0.1,0,0.2,0c1.1,0,15.1,0,18.1,0c1.8,0,3.2,0,4,0"/>
		</g>
		<path class="st0" d="M236.3,117.8c-1.3,0-3.3-0.1-3.4-0.4c-0.1-0.5-1.1-1.4,5.4-1.3c6.6,0,16.2-0.1,16.4,0.1
			c0.3,0.2,3.4,1.7-2.9,1.7c-3.8,0-6.9,0-8.8,0C241.7,117.8,237,117.8,236.3,117.8z"/>
	</g>
	<g>
		<path class="st0" d="M233.3,155.1c0,0,0,1.7,0.2,1.7s21.7-0.1,21.7-0.1s0.2,0.3,0.2-0.5c0-0.8-0.2-24.4-0.2-24.4s-0.1-0.4-0.2-0.5
			c-0.1-0.1-21.8,0-21.8,0s-0.1-0.1-0.1,0.5S233.3,155.1,233.3,155.1z"/>
		<g>
			<path class="st0" d="M233.3,156.7c0.1,0,0.1,0,0.2,0c1.1-0.1,15.1,0.1,18.1,0c1.8,0,3.2,0.1,4,0"/>
			<path class="st0" d="M255.4,156.9c0-0.2,0-0.5,0-0.8c-0.1-1.6-0.1-11.9-0.2-24.8"/>
			<path class="st0" d="M233.3,156.7c0-0.2,0-0.5,0-0.8c-0.1-1.7-0.1-12.6-0.2-26.1"/>
			<path class="st0" d="M233,131.3c0.1,0,0.1,0,0.2,0c1.1-0.1,15.1,0.1,18.1,0c1.8,0,3.2,0.1,4,0"/>
		</g>
		<path class="st0" d="M236.6,157.8c-1.3,0-3.3-0.1-3.4-0.4c-0.1-0.5-1.1-1.4,5.4-1.3c6.6,0,16.2-0.1,16.4,0.1
			c0.3,0.2,3.4,1.7-2.9,1.7c-3.8,0-6.9,0-8.8,0C242,157.8,237.2,157.8,236.6,157.8z"/>
	</g>
	<g>
		<path class="st0" d="M285,93.6c0,0,0,0.8,0.2,0.8s21.7-0.1,21.7-0.1s0.2,0.1,0.2-0.2S307,83.5,307,83.5s-0.1-0.2-0.2-0.2
			s-21.8,0-21.8,0s-0.1,0-0.1,0.2S285,93.6,285,93.6z"/>
		<g>
			<path class="st0" d="M285,94.3c0.1,0,0.1,0,0.2,0c1.1,0,15.1,0,18.1,0c1.8,0,3.2,0,4,0"/>
			<path class="st0" d="M307.1,94.4c0-0.1,0-0.2,0-0.3c-0.1-0.7-0.1-5.2-0.2-10.8"/>
			<path class="st0" d="M285,94.3c0-0.1,0-0.2,0-0.4c-0.1-0.7-0.1-5.4-0.2-11.3"/>
			<path class="st0" d="M284.8,83.3c0.1,0,0.1,0,0.2,0c1.1,0,15.1,0,18.1,0c1.8,0,3.2,0,4,0"/>
		</g>
		<path class="st0" d="M288.3,95.3c-1.3,0-3.3-0.1-3.4-0.4c-0.1-0.5-1.1-1.4,5.4-1.3c6.6,0,16.2-0.1,16.4,0.1
			c0.3,0.2,3.4,1.7-2.9,1.7c-3.8,0-6.9,0-8.8,0C293.7,95.3,289,95.3,288.3,95.3z"/>
	</g>
	<g>
		<path class="st0" d="M285,115.1c0,0,0,0.8,0.2,0.8s21.7-0.1,21.7-0.1s0.2,0.1,0.2-0.2S307,105,307,105s-0.1-0.2-0.2-0.2
			s-21.8,0-21.8,0s-0.1,0-0.1,0.2S285,115.1,285,115.1z"/>
		<g>
			<path class="st0" d="M285,115.8c0.1,0,0.1,0,0.2,0c1.1,0,15.1,0,18.1,0c1.8,0,3.2,0,4,0"/>
			<path class="st0" d="M307.1,115.9c0-0.1,0-0.2,0-0.3c-0.1-0.7-0.1-5.2-0.2-10.8"/>
			<path class="st0" d="M285,115.8c0-0.1,0-0.2,0-0.4c-0.1-0.7-0.1-5.4-0.2-11.3"/>
			<path class="st0" d="M284.8,104.8c0.1,0,0.1,0,0.2,0c1.1,0,15.1,0,18.1,0c1.8,0,3.2,0,4,0"/>
		</g>
		<path class="st0" d="M288.3,116.8c-1.3,0-3.3-0.1-3.4-0.4c-0.1-0.5-1.1-1.4,5.4-1.3c6.6,0,16.2-0.1,16.4,0.1
			c0.3,0.2,3.4,1.7-2.9,1.7c-3.8,0-6.9,0-8.8,0C293.7,116.8,289,116.8,288.3,116.8z"/>
	</g>
	<g>
		<path class="st0" d="M285.3,154.1c0,0,0,1.7,0.2,1.7s21.7-0.1,21.7-0.1s0.2,0.3,0.2-0.5c0-0.8-0.2-24.4-0.2-24.4s-0.1-0.4-0.2-0.5
			c-0.1-0.1-21.8,0-21.8,0s-0.1-0.1-0.1,0.5S285.3,154.1,285.3,154.1z"/>
		<g>
			<path class="st0" d="M285.3,155.7c0.1,0,0.1,0,0.2,0c1.1-0.1,15.1,0.1,18.1,0c1.8,0,3.2,0.1,4,0"/>
			<path class="st0" d="M307.4,155.9c0-0.2,0-0.5,0-0.8c-0.1-1.6-0.1-11.9-0.2-24.8"/>
			<path class="st0" d="M285.3,155.7c0-0.2,0-0.5,0-0.8c-0.1-1.7-0.1-12.6-0.2-26.1"/>
			<path class="st0" d="M285,130.3c0.1,0,0.1,0,0.2,0c1.1-0.1,15.1,0.1,18.1,0c1.8,0,3.2,0.1,4,0"/>
		</g>
		<path class="st0" d="M288.6,156.8c-1.3,0-3.3-0.1-3.4-0.4c-0.1-0.5-1.1-1.4,5.4-1.3c6.6,0,16.2-0.1,16.4,0.1
			c0.3,0.2,3.4,1.7-2.9,1.7c-3.8,0-6.9,0-8.8,0C294,156.8,289.2,156.8,288.6,156.8z"/>
	</g>
	<g>
		<path class="st0" d="M302.9,53.3c0,0-0.4-1.5,0.6-1.5s12.9,0,12.9,0s0.6,0,0.6,0.7c0,0.7,0,8.5-0.2,8.5s-9.6-0.4-11.1,0
			c-1.5,0.4-2.8,0-2.8-3S302.9,53.3,302.9,53.3z"/>
		<path class="st0" d="M268.1,54.1c0,0,0-2.2,1.3-2.2s12.2,0,12.2,0s0.8-0.4,0.6,1.1s0.4,8.6-0.4,8.2c-0.8-0.4-9.6,0-9.6,0
			s-3.9,0.4-4.1-0.7C267.9,59.3,268.1,54.1,268.1,54.1z"/>
		<path class="st0" d="M267.9,57.7c0,0,0-1.1,1.3-1.1s12.2,0,12.2,0s0.8-0.2,0.6,0.6s0.4,4.3-0.4,4.1s-9.6,0-9.6,0s-3.9,0.2-4.1-0.4
			S267.9,57.7,267.9,57.7z"/>
		<path class="st0" d="M303.1,52.7c0,0-0.4-0.8,0.6-0.8s12.9,0,12.9,0s0.6,0,0.6,0.4s0,4.3-0.2,4.3s-9.6-0.2-11.1,0s-2.8,0-2.8-1.5
			S303.1,52.7,303.1,52.7z"/>
		<path class="st0" d="M296.1,57.6c0,0,0-1.1,1.3-1.1s12.2,0,12.2,0s0.8-0.2,0.6,0.6s0.4,4.3-0.4,4.1s-9.6,0-9.6,0s-3.9,0.2-4.1-0.4
			S296.1,57.6,296.1,57.6z"/>
		<path class="st0" d="M282.1,57.2c0,0-0.4-0.8,0.6-0.8s12.9,0,12.9,0s0.6,0,0.6,0.4s0,4.3-0.2,4.3s-9.6-0.2-11.1,0s-2.8,0-2.8-1.5
			S282.1,57.2,282.1,57.2z"/>
		<path class="st0" d="M289.2,52.4c0,0-0.4-0.6,0.2-0.6s9.4,0.2,10.5,0.2s3.2-0.4,3.2,0s0,3.8,0,3.8s0.2,0.8,0,0.8s-13.7,0-13.7,0
			s-0.2,0-0.2-0.4S289.2,52.6,289.2,52.4z"/>
		<path class="st0" d="M275.3,51.8c0,0-0.2,0-0.2,0.2s0,4.3,0,4.3s0,0.2,0.2,0.2s13.3,0,13.3,0s0.4,0,0.4-0.2s0-4.3,0-4.3
			s0-0.2-0.2-0.2S275.3,51.8,275.3,51.8z"/>
	</g>
</g>
<path class="st0" d="M165.9,71c0,0-0.6,20-0.6,35.5c0,1.8,0,3.5,0,5c0,0,0,0,0,0c0.1,3.8,0,5.5-0.2,5.9c-0.5,8.9,0,43.1,0,43.1
	l-2.9,0.5c0,0,0.5-20.5,0.2-34.5c-0.3-14-0.9-51.3-1.5-53.3"/>
<path class="st0" d="M191.9,138.5c0,0-0.6,5-0.6,8.9c0,0.5,0,0.9,0,1.3c0,0,0,0,0,0c0.1,0.9,0,1.4-0.2,1.5c-0.5,2.2,0,10.8,0,10.8
	l-2.9,0.1c0,0,0.5-5.1,0.2-8.6c-0.3-3.5-0.9-12.8-1.5-13.3"/>
<g>
	<path class="st0" d="M173.5,70.5c-0.1-1.4-0.8-3.1-1.7-4.5c-0.8-1.2-1.9-1.4-2.9-1.1c-0.5-0.5-1.5-1-3.6-1.4
		c-1.2-0.2-2-0.1-2.5,0.3c-0.7-1.9-2.2-4.9-3.9-0.3c-4.1-0.1-6.3,5.5-5.8,9.8c0.3,3,4.3,3.8,6.9,4c-1.4,2.7,1.9,3.2,3.9,3.2
		c0.4,0.9,1.2,1.5,2.4,1.3c0.8-0.1,1.3-0.5,1.6-1c0.9,1.1,2.2,1.5,3.7-0.3C174.4,76.9,177.9,71.8,173.5,70.5z"/>
	<g>
		<path class="st0" d="M162.3,77.2c0,0-8.8,0.5-9.2-4s2-10.5,6.5-9.8"/>
		<path class="st0" d="M163.1,65.1c0,0-2.2-9-4.8-0.2"/>
		<path class="st0" d="M162.3,69.7c0,0-2.8-7.2,3-6.2s3.5,3.2,3.5,3.2"/>
		<path class="st0" d="M166,66.5c0,0,3.8-3.5,5.8-0.5s2.8,7.2-0.2,6.8"/>
		<path class="st0" d="M165.1,80.4c0,0-8.5,0.8-4.5-4.2"/>
		<path class="st0" d="M163.3,77.2c0,0-0.2,5,3,4.5s1.5-5,1.5-5"/>
		<path class="st0" d="M166,77.2c0,0,2.2,7.2,5.5,3.2s7.2-10,0-10.2"/>
	</g>
</g>
<g>
	<path class="st0" d="M190.5,88.2c0,0-8.8,0.5-9.2-4s2-10.5,6.5-9.8"/>
	<path class="st0" d="M191.4,76.1c0,0-2.2-9-4.8-0.2"/>
	<path class="st0" d="M190.5,80.7c0,0-2.8-7.2,3-6.2s3.5,3.2,3.5,3.2"/>
	<path class="st0" d="M194.3,77.5c0,0,3.8-3.5,5.8-0.5s2.8,7.2-0.2,6.8"/>
	<path class="st0" d="M193.4,91.4c0,0-8.5,0.8-4.5-4.2"/>
	<path class="st0" d="M191.5,88.2c0,0-0.2,5,3,4.5s1.5-5,1.5-5"/>
	<path class="st0" d="M194.3,88.2c0,0,2.2,7.2,5.5,3.2s7.2-10,0-10.2"/>
	<path class="st0" d="M180.1,94.4c0,0-0.5,3.2,4.2,3.5s3.5-5,3.5-5"/>
	<path class="st0" d="M195.1,96.4c0,0,11.2,6.2,8.8-5"/>
	<path class="st0" d="M204.1,86.4c0,0,4.5-3.8,5,1.2s-3.5,2.8-3.5,2.8"/>
	<path class="st0" d="M177.6,84.4c0,0-3.2-3,1.5-5"/>
	<path class="st0" d="M201.6,74.9c0,0-0.5-1.8,2-1.5s2.5,2.2,2.5,2.2"/>
	<path class="st0" d="M191.4,70.9c0,0-0.8-3,2-3.2s1.8,3.2,1.8,3.2"/>
	<path class="st0" d="M181.1,72.9c0,0-1.5-5.2,3-5.2s4,1.5,4,1.5"/>
	<path class="st0" d="M183.4,72.1c0,0-6.5-2.2-4.2,3.8"/>
	<path class="st0" d="M193.4,70.9c0,0-0.8-5.2-7.5-2"/>
	<path class="st0" d="M194.4,69.4c0,0,6-1.2,3.8,3.5"/>
	<path class="st0" d="M186.6,95.4c0,0,0,3.2,3.2,2.8s3.5-2.8,3.5-2.8"/>
	<path class="st0" d="M191.4,94.6c0,0,1.2,5.8,7.8,1.8"/>
	<path class="st0" d="M177.9,89.9c0,0-3.5,6.2,0.8,7s5.5-1.2,5.5-1.2"/>
	<path class="st0" d="M179.1,83.1c0,0-5.8-0.8-3.5,3c0,0,1.8,3.8,4.5,2.2"/>
	<path class="st0" d="M177.6,86.4c0,0-3.2,4.5,0.2,6.2"/>
	<path class="st0" d="M178.6,81.1c0,0-4.5-3.2,1.8-4.2"/>
	<path class="st0" d="M196.6,71.6c0,0,7.5-2.5,7.2,4.2"/>
	<path class="st0" d="M206.1,87.6c0,0,4.2-3.8,0.8-5.8s-3-2-3-2"/>
	<path class="st0" d="M201.6,75.6c0,0,5.2-3.5,4.5,2s-2.2,4.2-2.2,4.2"/>
	<path class="st0" d="M208.4,89.1c0,0,2,5.8-5.5,7.2"/>
	<path class="st0" d="M181.6,73.9c0,0-4.8,1.2-2.5,4.2"/>
</g>
<g>
	<path class="st0" d="M207.4,143.1c-0.1-1.4-0.6-2.1-1.2-2.4c0.5-1.1,0.5-2.4-1.1-3.3c-0.6-0.4-1.2-0.7-1.6-0.9
		c0.3-0.7,0.6-1.7,0.8-3.3c0.1-0.9,0.1-1.5-0.1-2l0.1,0c0,0,0-2-2.5-2.2c0,0-0.1,0-0.1,0c-0.9-2.1-3.2-2.3-4.9-2.1
		c0.1-2-2-2.1-3.3-2c-0.1-0.9-0.5-1.8-1.9-1.6c-0.8,0.1-1.3,0.4-1.6,0.7c-0.9-0.6-2.2-0.8-4.2-0.2c-0.5-0.3-1.5-0.6-3.4-0.6
		c-3.1,0-3.4,2.5-3.2,4.1c-1.5,0-2.9,0.7-2,3.7c-0.4,0.5-0.6,1.1-0.3,1.9c-2.2,0.8-1.7,2-1,2.9c-1.3,1-1.2,2.1-0.9,3
		c-1.3,0.2-2.4,1-1.1,3c0,0,0.4,0.9,1.2,1.7c-0.6,1.2-1,3,0.1,4.2c-0.6,1.9-1,4.4,1.7,4.9c1.1,0.2,2,0.2,2.7,0.1
		c0.6,0.5,1.6,0.8,3,0.9c1.3,0.1,2.2-0.3,2.7-0.8c0.4,0.7,1.2,1.3,2.8,1.1c1.4-0.2,2.2-0.8,2.7-1.3c0.9,0.8,2.3,1.4,4.6,0.5
		c2.3,0.9,5.7,1.6,6.7-1.2c4.2-1.2,4.7-4,4.6-5.7C207.3,145.4,207.5,144.6,207.4,143.1z"/>
	<g>
		<path class="st0" d="M175.9,139.9c0,0-3.2-3,1.5-5"/>
		<path class="st0" d="M179.4,128.4c0,0-1.5-5.2,3-5.2s4,1.5,4,1.5"/>
		<path class="st0" d="M181.6,127.6c0,0-6.5-2.2-4.2,3.8"/>
		<path class="st0" d="M191.6,126.4c0,0-0.8-5.2-7.5-2"/>
		<path class="st0" d="M184.9,150.9c0,0,0,3.2,3.2,2.8s3.5-2.8,3.5-2.8"/>
		<path class="st0" d="M189.6,150.1c0,0,1.2,5.8,7.8,1.8"/>
		<path class="st0" d="M175.9,141.9c0,0-3.2,4.5,0.2,6.2"/>
		<path class="st0" d="M194.9,127.1c0,0,7.5-2.5,7.2,4.2"/>
		<path class="st0" d="M204.4,143.1c0,0,4.2-3.8,0.8-5.8s-3-2-3-2"/>
		<path class="st0" d="M199.9,131.1c0,0,5.2-3.5,4.5,2s-2.2,4.2-2.2,4.2"/>
		<path class="st0" d="M206.6,144.6c0,0,2,5.8-5.5,7.2"/>
		<path class="st0" d="M179.9,129.4c0,0-4.8,1.2-2.5,4.2"/>
	</g>
</g>
<path class="st0" d="M145.2,72.2c0,0-0.6,20-0.6,35.5c0,1.8,0,3.5,0,5c0,0,0,0,0,0c0.1,3.8,0,5.5-0.2,5.9c-0.5,8.9,0,43.1,0,43.1
	l-2.9,0.5c0,0,0.5-20.5,0.2-34.5c-0.3-14-0.9-51.3-1.5-53.3"/>
<g>
	<path class="st0" d="M160.6,77.9c-0.1-1.4-0.6-2.1-1.2-2.4c0.5-1.1,0.5-2.4-1.1-3.3c-0.6-0.4-1.2-0.7-1.6-0.9
		c0.3-0.7,0.6-1.7,0.8-3.3c0.1-0.9,0.1-1.5-0.1-2l0.1,0c0,0,0-2-2.5-2.2c0,0-0.1,0-0.1,0c-0.9-2.1-3.2-2.3-4.9-2.1
		c0.1-2-2-2.1-3.3-2c-0.1-0.9-0.5-1.8-1.9-1.6c-0.8,0.1-1.3,0.4-1.6,0.7c-0.9-0.6-2.2-0.8-4.2-0.2c-0.5-0.3-1.5-0.6-3.4-0.6
		c-3.1,0-3.4,2.5-3.2,4.1c-1.5,0-2.9,0.7-2,3.7c-0.4,0.5-0.6,1.1-0.3,1.9c-2.2,0.8-1.7,2-1,2.9c-1.3,1-1.2,2.1-0.9,3
		c-1.3,0.2-2.4,1-1.1,3c0,0,0.4,0.9,1.2,1.7c-0.6,1.2-1,3,0.1,4.2c-0.6,1.9-1,4.4,1.7,4.9c1.1,0.2,2,0.2,2.7,0.1
		c0.6,0.5,1.6,0.8,3,0.9c1.3,0.1,2.2-0.3,2.7-0.8c0.4,0.7,1.2,1.3,2.8,1.1c1.4-0.2,2.2-0.8,2.7-1.3c0.9,0.8,2.3,1.4,4.6,0.5
		c2.3,0.9,5.7,1.6,6.7-1.2c4.2-1.2,4.7-4,4.6-5.7C160.5,80.2,160.8,79.3,160.6,77.9z"/>
	<g>
		<path class="st0" d="M129.1,74.6c0,0-3.2-3,1.5-5"/>
		<path class="st0" d="M132.6,63.1c0,0-1.5-5.2,3-5.2s4,1.5,4,1.5"/>
		<path class="st0" d="M134.9,62.4c0,0-6.5-2.2-4.2,3.8"/>
		<path class="st0" d="M144.9,61.1c0,0-0.8-5.2-7.5-2"/>
		<path class="st0" d="M138.1,85.6c0,0,0,3.2,3.2,2.8s3.5-2.8,3.5-2.8"/>
		<path class="st0" d="M142.9,84.9c0,0,1.2,5.8,7.8,1.8"/>
		<path class="st0" d="M129.1,76.6c0,0-3.2,4.5,0.2,6.2"/>
		<path class="st0" d="M148.1,61.9c0,0,7.5-2.5,7.2,4.2"/>
		<path class="st0" d="M157.6,77.9c0,0,4.2-3.8,0.8-5.8s-3-2-3-2"/>
		<path class="st0" d="M153.1,65.9c0,0,5.2-3.5,4.5,2s-2.2,4.2-2.2,4.2"/>
		<path class="st0" d="M159.9,79.4c0,0,2,5.8-5.5,7.2"/>
		<path class="st0" d="M133.1,64.1c0,0-4.8,1.2-2.5,4.2"/>
	</g>
</g>
<path id="XMLID_3717_" class="st0" d="M11.5,55.4c0.6,0.3,1.1,0.7,1.6,1c1.1-1.4,4.3-1.2,3.3,1.3c-0.1,0.2-0.1,0.3-0.2,0.4
	c0.5,0,1,0.2,1.6,0.7c2.1-5.1,12.9-4.1,12.9-4.1c1.5,0.6,2.7,1.3,3.5,2.1c0.7-1.1,2.1-1.7,4.6-0.2c1.1,0.7,1.6,1.4,1.7,2.2
	c0,0,0,0,0,0c0.2,0.1,0.3,0.1,0.4,0.2c0-0.8,0.5-1.7,1.9-2.6c6.9-4.7,9.4,1.8,9.6,2.4c1.9-0.4,3.9-0.1,5.4,1.3
	c0.9-1.2,1.7-1.7,2.5-1.7c-0.1-0.1-0.1-0.3-0.2-0.4c-1-2.5,2.2-2.7,3.3-1.3c0.5-0.4,1-0.7,1.6-1c6.2-3.2,8.9-0.6,10.1,3.1
	c0.3-0.3,0.6-0.6,1.1-0.9c2.5-1.5,3.9-0.9,4.6,0.2c0.8-0.8,2-1.5,3.5-2.1c0,0,11.1-1.1,13,4.3c1.2-0.5,2.6-0.6,3.9-0.3
	c0.2-0.7,2.7-7.1,9.6-2.4c1.4,0.9,1.9,1.8,1.9,2.6c0.1-0.1,0.3-0.1,0.4-0.2c2.5-1,2.7,2.2,1.3,3.3c0.4,0.5,0.7,1,1,1.6
	c6.7,12.7-11.8,10.9-11.8,10.9c-1.5-0.6-2.7-1.3-3.5-2.1c-0.7,1.1-2.1,1.7-4.6,0.2c-1.1-0.7-1.6-1.4-1.7-2.2c0,0,0,0,0,0
	c-0.2-0.1-0.3-0.1-0.4-0.2c0,0.8-0.5,1.7-1.9,2.6c-6.9,4.7-9.4-1.8-9.6-2.4c-2.5,0.6-5.2-0.1-6.6-3c-0.5,0.9-1,1.7-1.6,2.2
	c1.1,0.7,1.7,2.1,0.2,4.6c-1.3,2.2-3,2-4.2,0.8c-1.1,1.1-2.9,1.5-5.9,0.4c-3.6-1.3-4.4-4.2-3.8-7c-0.1,0-0.2-0.1-0.4-0.2
	c0.3,1,0,2.1-1.6,3.1c-2.5,1.5-3.9,0.9-4.6-0.2c-0.8,0.8-2,1.5-3.5,2.1c0,0-11.1,1.1-13-4.3c-1.2,0.5-2.6,0.6-3.9,0.3
	c-0.2,0.7-2.7,7.1-9.6,2.4c-1.4-0.9-1.9-1.8-1.9-2.6c-0.1,0.1-0.3,0.1-0.4,0.2c-2.5,1-2.7-2.2-1.3-3.3c0,0-0.1-0.1-0.1-0.1
	c-1.1,1.7-3,2.4-3.4,2.5c0.6,2.7-0.3,5.6-3.8,7c-3,1.1-4.8,0.7-5.9-0.4c-1.2,1.2-2.9,1.4-4.2-0.8c-1.5-2.5-0.9-3.9,0.2-4.6
	c-0.8-0.8-1.5-2-2.1-3.5C0.6,67.3-1.2,48.8,11.5,55.4z"/>
<path id="XMLID_3716_" class="st1" d="M88.5,39.8c0,0,19.3-1.6,8.9-16.8S72.1,35.7,88.5,39.8z"/>
<g>
	<path class="st0" d="M166,27.7c-3-3.5-4.8-3.1-5.8-2c-0.5-1.4-3.2-1.9-6.2-1.2c-1.8,0.4-1.9,2.1-1.7,3.5c-2.4-0.5-5.3-0.4-5.6,2.8
		c-0.4,4.5,3.5,3.2,5,2.5c0.2,0.2,0.5,0.5,0.9,0.6c1.9,0.6,10.3-0.3,12.1-1.8C166.7,32.3,169.8,32.2,166,27.7z"/>
	<path class="st0" d="M153,30.2c0,0-2.2-5,1-5.8s6.2,0,6.2,1.8"/>
	<path class="st0" d="M155.5,29c0,0-8.2-3.8-8.8,1.8s5.5,2.2,5.5,2.2"/>
	<path class="st0" d="M159,27.7c0,0,1.8-6.2,7,0s-2.8,4-2.8,4"/>
	<path class="st0" d="M152.1,30.9c0,0-1.8,2.2,0.5,3s13.8-0.8,12.2-2.7s-3.2-3-3.2-3"/>
</g>
<g>
	<path class="st0" d="M143.6,28.6c-4.1-0.8-4.8,1.7-4.7,3.5c-0.2,0-0.3,0-0.5,0c-3.5,0-2.5,4-2.5,4c2.1,2.3,5,0.8,5.9,0.2
		c2.3,0.9,4.8-0.2,4.8-0.2C148.1,36.1,149.9,29.9,143.6,28.6z"/>
	<g>
		<path class="st0" d="M139.1,33.9c0,0-1.8-6.5,4.5-5.2s4.5,7.5,3,7.5C146.6,36.1,141.6,38.4,139.1,33.9z"/>
		<path class="st0" d="M142.1,36.1c0,0-3.8,2.8-6.2,0c0,0-1-4,2.5-4c0.9,0,1.6,0.2,2.2,0.6"/>
	</g>
</g>
<g>
	<path id="XMLID_3715_" class="st0" d="M257.4,23.8c0,0,6.3-0.5,2.9-4.9C256.9,14.4,252,22.6,257.4,23.8z"/>
	<path id="XMLID_3714_" class="st0" d="M221.4,25c0,0,12.5-0.9,5.8-9.9C220.5,6.2,210.8,22.6,221.4,25z"/>
	<path id="XMLID_3713_" class="st0" d="M246.1,24.8c0,0,18.8-1.4,8.7-14.8S230.1,21.2,246.1,24.8z"/>
	<path id="XMLID_3712_" class="st0" d="M233.9,25.8c0,0,25.1-1.8,11.6-19.7C232-11.8,212.7,20.9,233.9,25.8z"/>
</g>
<g>
	<path id="XMLID_50652_" class="st0" d="M311.8,25.7c0,0,12.5-0.9,5.8-9.9S301.2,23.3,311.8,25.7z"/>
	<path id="XMLID_50651_" class="st0" d="M274.7,26.1c0,0,16.9-1.1,7.8-11.9C273.4,3.4,260.3,23.1,274.7,26.1z"/>
	<path id="XMLID_50650_" class="st0" d="M299.4,26.1c0,0,21.9-1.6,10.1-17.2C297.7-6.8,280.9,21.9,299.4,26.1z"/>
	<path id="XMLID_50649_" class="st0" d="M285.2,25.5c0,0,25.1-1.8,11.6-19.7S264,20.6,285.2,25.5z"/>
</g>
<path class="st0" d="M239.7,52.1c0.2-2-0.6-4.4-3-7.6c-2.9-3.8-6.1-4.6-8.9-3.6c-0.1-0.1-0.2-0.3-0.3-0.4
	c-8.5-11.3-19.4-2.4-20.8,6.9c-6.2-2.9-12.5,9.9-3.2,12.1c0,0,4.1-0.3,6.4-2.2c1.5,1.3,3.5,2.4,6.1,3c0,0,4.7-0.3,8.9-2.2
	c0.9,0.5,2,0.9,3.2,1.2c0,0,5.6-0.4,9-2.9c0.2,0.9,0.9,1.6,2.3,2c0,0,6.3-0.5,2.9-4.9C241.4,52.3,240.5,52,239.7,52.1z"/>
<path class="st0" d="M299.6,50.3c-1.8-2.3-3.7-2.9-5.4-2.5c-0.6-1.3-1.4-2.8-2.6-4.4c-4.2-5.6-9.1-5.5-12.7-3c0,0-0.1-0.1-0.1-0.1
	c-8-10.6-18-3.4-20.5,5.2c-7.3,0.2-12.8,12.8-1.6,15.1c0,0,4-0.3,7.1-1.8c1,0.5,2.2,0.9,3.5,1.2c0,0,4.6-0.3,8.7-2.1
	c1.3,1.2,3.1,2.2,5.5,2.7c0,0,4.9-0.4,8.9-2.4c0.8,0.9,1.9,1.6,3.6,2C293.8,60.2,306.4,59.3,299.6,50.3z"/>
<g>
	<path class="st0" d="M237.1,56.4c0.9-0.7,1.7-1.5,2.1-2.5"/>
	<path class="st0" d="M206.6,51.3c0.3,2.2,1.3,4.3,3.2,6"/>
	<path class="st0" d="M224.8,58.1c4.1-1.8,7.8-4.9,6.3-10.5"/>
</g>
<g>
	<path class="st0" d="M294.2,47.8"/>
	<path class="st0" d="M290.9,57.9c1.6-0.9,2.9-2.1,3.6-3.8"/>
	<path class="st0" d="M290.3,58.2c0.2-0.1,0.4-0.2,0.6-0.3"/>
	<path class="st0" d="M258,51.9c0.6,2.8,2.4,5.3,5.7,6.9"/>
	<path class="st0" d="M275.9,57.9c3.7-1.6,7.1-4.2,6.8-8.7"/>
</g>
</svg>
