<?xml version="1.0" encoding="utf-8"?>
<!-- Generator: Adobe Illustrator 22.1.0, SVG Export Plug-In . SVG Version: 6.00 Build 0)  -->
<svg version="1.1" id="Layer_1" xmlns="http://www.w3.org/2000/svg" xmlns:xlink="http://www.w3.org/1999/xlink" x="0px" y="0px"
	 viewBox="0 0 123.1 62" style="enable-background:new 0 0 123.1 62;" xml:space="preserve">
<style type="text/css">
	.st0{fill:#FFD767;stroke:#584C4F;stroke-width:2;stroke-miterlimit:10;}
	.st1{fill:#FFFAF2;stroke:#584C4F;stroke-width:2;stroke-miterlimit:10;}
	.st2{fill:#FCF4E9;stroke:#221F1F;stroke-miterlimit:10;}
	.st3{fill:#082D30;stroke:#082D30;stroke-linecap:round;stroke-miterlimit:10;}
</style>
<g id="Layer_5">
</g>
<g id="Layer_3">
</g>
<path id="XMLID_2386_" class="st0" d="M98.8,12.7c-1.9-0.1-72.8,0.2-79,1.4c-0.8,0.2-3,1.4-4.2,2.8c-1.7,2-3.9,5-4.5,8.3
	C11,25.6,10.9,38.9,11,39.3c-0.3,4.1,2.2,8.4,11.2,11.3c6.6,2.1,79.1,0.1,80.8,0c4.9-0.3,7.4-3.7,7.9-8c0.3-2.8,0.2-12.9,0.1-15.5
	C110.4,20.5,105.9,13.2,98.8,12.7z"/>
<g id="XMLID_2382_">
	<g>
		<path id="XMLID_2385_" class="st0" d="M98.8,2.7c-1.9-0.1-72.8,0.2-79,1.4c-0.8,0.2-3,1.4-4.2,2.8c-1.7,2-3.9,5-4.5,8.3
			C11,15.6,10.9,28.9,11,29.3c-0.3,4.1,2.2,8.4,11.2,11.3c6.6,2.1,79.1,0.1,80.8,0c4.9-0.3,7.4-3.7,7.9-8c0.3-2.8,0.2-12.9,0.1-15.5
			C110.4,10.5,105.9,3.2,98.8,2.7z"/>
		<path id="XMLID_2384_" class="st0" d="M105,32.8c0,0,1.1,2.2-0.7,3.2"/>
		<path id="XMLID_2383_" class="st0" d="M21.8,7.3c0,0-2.7,1.3-3.6,2.6"/>
	</g>
</g>
<g>
	<path id="XMLID_2381_" class="st1" d="M98.8,2.7c-1.9-0.1-72.8,0.2-79,1.4c-0.8,0.2-3,1.4-4.2,2.8c-1.7,2-3.9,5-4.5,8.3
		C11,15.6,10.9,28.9,11,29.3c-0.3,4.1,2.2,8.4,11.2,11.3c6.6,2.1,79.1,0.1,80.8,0c4.9-0.3,7.4-3.7,7.9-8c0.3-2.8,0.2-12.9,0.1-15.5
		C110.4,10.5,105.9,3.2,98.8,2.7z"/>
	<path id="XMLID_2380_" class="st0" d="M105,32.8c0,0,1.1,2.2-0.7,3.2"/>
	<path id="XMLID_2379_" class="st0" d="M21.8,7.3c0,0-2.7,1.3-3.6,2.6"/>
</g>
<path id="XMLID_12895_" class="st2" d="M171.3-311.1c-11.5-8.1-4.4-19.8-4.4-19.8c1.1-2.3,12.9-8.6,16.4-4.9l0,0
	c3.4,3.6,0.8,6.5-0.7,8.1c-1.2,1.3-3.7,1.1-4.8,0.9c-0.3,0-0.5-0.1-0.5-0.1c-2.2-0.3-4.2,0.5-3.7,3c0,0,0.1,2,0.9,3.5l0,0
	c0,0,0.6,1.4,1.6,1.8c0.4,0.2,0.9,0.2,1.5-0.1c0,0,0.1,0,0.1,0c0.3-0.1,0.6-0.2,0.9-0.3c2.4-0.7,6.5-1,7.3,2.3c0.9,3.8,0,4.2-0.4,5
	c0,0,0,0,0,0c-0.5,0.8-2,1.3-2,1.3l0,0C179.8-308.5,175.4-308.3,171.3-311.1z"/>
<g id="XMLID_12865_">
	<g id="XMLID_12867_">
		<path id="XMLID_12872_" class="st3" d="M153.1-332.3"/>
		<path id="XMLID_12869_" class="st2" d="M160.6-334c-11.9-8.8-21.3,2.2-21.3,2.2s-7.6,17.5,6.9,22.2
			C160.8-305,172.5-325.3,160.6-334z M155.2-325.2c4.1,9.3-14.3,6.7-9.4,0.3C145.7-324.9,151-334.5,155.2-325.2z"/>
		<path id="XMLID_12868_" class="st2" d="M155.9-335.2"/>
	</g>
	<path id="XMLID_12866_" class="st2" d="M155.3-313.4c0,0,1,7.1,7.4,3.4s-0.3-9.9-0.3-9.9"/>
</g>
<g id="XMLID_12862_">
	<path id="XMLID_12864_" class="st2" d="M134-333.9c10.3,9.9,1.4,20.6,1.4,20.6c-1.4,2.1-14.3,6.6-17.2,2.4l0,0
		c-2.9-4.2,0.1-6.6,1.9-8c1.4-1.1,3.9-0.5,4.9-0.2c0.3,0.1,0.5,0.2,0.5,0.2c2.1,0.7,4.2,0.2,4.1-2.5c0,0,0.2-2-0.3-3.7l0,0
		c0,0-0.4-1.5-1.4-2.1c-0.4-0.2-0.9-0.3-1.5-0.1c0,0-0.1,0-0.1,0c-0.3,0.1-0.6,0.2-1,0.2c-2.5,0.4-6.6,0-6.9-3.4
		c-0.3-3.9,0.6-4.2,1.2-4.9c0,0,0,0,0,0c0.6-0.7,2.2-1,2.2-1l0,0C125.8-337.9,130.3-337.4,134-333.9z"/>
	<path id="XMLID_12863_" class="st2" d="M123.9-329.3c-0.1,4.2-0.3,9.1-0.8,14.9c0,0-1.5,8.4-8.5,5.4c-7.1-2.9-3.6-34.8-0.3-37.2
		c2.6-2,9.2-12.4,9.6,10.3"/>
</g>
<g id="XMLID_12847_">
	<g id="XMLID_12851_">
		<path id="XMLID_12852_" class="st2" d="M207.1-335.2c0,0,8.4-5.7,0.4-9.6s-19.8,15.1-16,17.6C195.4-324.8,199.3-325.8,207.1-335.2
			z"/>
	</g>
	<g id="XMLID_12848_">
		<path id="XMLID_12850_" class="st2" d="M195.5-337.1c-0.1-1.7-0.2-3.4-0.3-5.3c0,0-1.4-8-8.1-5.2c-6.7,2.8-3.4,33.1-0.3,35.4
			c2.5,1.9,8.7,11.8,9.2-9.8"/>
		<path id="XMLID_12849_" class="st2" d="M193.5-319.5c0,0,11.2-8.8,8.9,7.6c0,0,2.7,5.1,7.9,3c5.2-2.1,6-28.1-19.1-20.8"/>
	</g>
</g>
<g>
	<path id="XMLID_33_" class="st0" d="M67.3,31.1C60.8,26.5,64.8,20,64.8,20c0.6-1.3,7.3-4.8,9.2-2.8l0,0c1.9,2,0.5,3.6-0.4,4.6
		c-0.7,0.7-2.1,0.6-2.7,0.5c-0.2,0-0.3-0.1-0.3-0.1c-1.2-0.2-2.3,0.3-2.1,1.7c0,0,0.1,1.1,0.5,2l0,0c0,0,0.3,0.8,0.9,1
		c0.2,0.1,0.5,0.1,0.8-0.1c0,0,0,0,0.1,0c0.1-0.1,0.3-0.1,0.5-0.2c1.3-0.4,3.6-0.5,4.1,1.3c0.5,2.1,0,2.4-0.2,2.8c0,0,0,0,0,0
		c-0.3,0.4-1.1,0.7-1.1,0.7l0,0C72.1,32.6,69.6,32.7,67.3,31.1z"/>
	<g id="XMLID_10_">
		<g id="XMLID_12_">
			<path id="XMLID_32_" class="st0" d="M57.1,19.2"/>
			<path id="XMLID_14_" class="st0" d="M61.3,18.2c-6.7-4.9-11.9,1.3-11.9,1.3s-4.3,9.8,3.9,12.5C61.4,34.5,68,23.1,61.3,18.2z
				 M58.2,23.2c2.3,5.2-8,3.7-5.3,0.2C52.9,23.3,55.9,18,58.2,23.2z"/>
			<path id="XMLID_13_" class="st0" d="M58.6,17.6"/>
		</g>
		<path id="XMLID_11_" class="st0" d="M58.3,29.8c0,0,0.6,4,4.2,1.9c3.6-2.1-0.2-5.6-0.2-5.6"/>
	</g>
	<g id="XMLID_7_">
		<path id="XMLID_9_" class="st0" d="M46.3,18.3c5.8,5.6,0.8,11.5,0.8,11.5c-0.8,1.2-8,3.7-9.7,1.4l0,0c-1.6-2.3,0.1-3.7,1.1-4.5
			c0.8-0.6,2.2-0.3,2.8-0.1c0.2,0.1,0.3,0.1,0.3,0.1c1.2,0.4,2.4,0.1,2.3-1.4c0,0,0.1-1.1-0.2-2.1l0,0c0,0-0.2-0.8-0.8-1.2
			c-0.2-0.1-0.5-0.2-0.8-0.1c0,0,0,0-0.1,0c-0.2,0-0.3,0.1-0.5,0.1c-1.4,0.2-3.7,0-3.9-1.9c-0.2-2.2,0.3-2.4,0.7-2.8c0,0,0,0,0,0
			c0.3-0.4,1.3-0.6,1.3-0.6l0,0C41.7,16,44.3,16.3,46.3,18.3z"/>
		<path id="XMLID_8_" class="st0" d="M40.7,20.9c-0.1,2.3-0.2,5.1-0.4,8.4c0,0-0.8,4.7-4.8,3.1c-4-1.7-2-19.5-0.2-20.9
			c1.5-1.1,5.1-7,5.4,5.8"/>
	</g>
	<g id="XMLID_1_">
		<g id="XMLID_5_">
			<path id="XMLID_6_" class="st0" d="M87.4,17.6c0,0,4.7-3.2,0.2-5.4s-11.1,8.5-9,9.9C80.8,23.4,83,22.8,87.4,17.6z"/>
		</g>
		<g id="XMLID_2_">
			<path id="XMLID_4_" class="st0" d="M80.9,16.5c-0.1-0.9-0.1-1.9-0.2-3c0,0-0.8-4.5-4.6-2.9S74.2,29.2,76,30.5
				c1.4,1.1,4.9,6.6,5.1-5.5"/>
			<path id="XMLID_3_" class="st0" d="M79.8,26.4c0,0,6.3-4.9,5,4.3c0,0,1.5,2.8,4.4,1.7c2.9-1.2,3.4-15.8-10.7-11.7"/>
		</g>
	</g>
</g>
</svg>
