<?xml version="1.0" encoding="utf-8"?>
<!-- Generator: Adobe Illustrator 22.1.0, SVG Export Plug-In . SVG Version: 6.00 Build 0)  -->
<svg version="1.1" id="Layer_1" xmlns="http://www.w3.org/2000/svg" xmlns:xlink="http://www.w3.org/1999/xlink" x="0px" y="0px"
	 viewBox="0 0 1285.5 725.2" style="enable-background:new 0 0 1285.5 725.2;" xml:space="preserve">
<style type="text/css">
	.st0{fill:none;stroke:#35423E;stroke-linecap:round;stroke-miterlimit:10;}
	.st1{fill:none;stroke:#5B5B4B;stroke-linecap:round;stroke-miterlimit:10;}
</style>
<g>
	<g>
		<path class="st0" d="M404.7,629.7c0,0-18.9,19.9-32.3,31.4c-13.5,11.5-36.9,48.4-41.4,54.4s-10.8,8.4-10.8,8.4"/>
		<path class="st0" d="M523,629.7c0,0-8.5,28-14.5,43.5s-21.7,47.3-21.7,47.3"/>
		<path class="st0" d="M641.8,630.8c0,0,2.1,41.8,2.1,58.9s-2.1,34.3-2.1,34.3"/>
		<path class="st0" d="M289,629.7c0,0-72.6,52.7-79.2,60.2c-6.7,7.5-41.1,30.8-41.1,30.8"/>
		<path class="st0" d="M878.9,630.5c0,0,18.9,19.9,32.3,31.4c13.5,11.5,36.9,48.4,41.4,54.4c4.5,5.9,10.8,8.4,10.8,8.4"/>
		<path class="st0" d="M760.6,630.5c0,0,8.5,28,14.5,43.5s21.7,47.3,21.7,47.3"/>
		<path class="st0" d="M994.6,630.5c0,0,72.6,52.7,79.2,60.2c6.7,7.5,41.1,30.8,41.1,30.8"/>
		<path class="st0" d="M2.5,721.3c2.3,0.4,4.9,0.5,7.8,0.3c37.7-2.3,539.9-5.1,745.4,0s525.1,0,525.1,0s1,0,2.7,0"/>
	</g>
</g>
<path class="st1" d="M686,488.2"/>
</svg>
