<?xml version="1.0" encoding="utf-8"?>
<!-- Generator: Adobe Illustrator 22.1.0, SVG Export Plug-In . SVG Version: 6.00 Build 0)  -->
<svg version="1.1" id="Layer_1" xmlns="http://www.w3.org/2000/svg" xmlns:xlink="http://www.w3.org/1999/xlink" x="0px" y="0px"
	 viewBox="0 0 303.5 248.5" style="enable-background:new 0 0 303.5 248.5;" xml:space="preserve">
<style type="text/css">
	.st0{opacity:0.1;fill:#5C5B4B;stroke:#5C5B4B;stroke-linecap:round;stroke-miterlimit:10;}
	.st1{fill:#EFE4DA;stroke:#5D5B4C;stroke-miterlimit:10;}
	.st2{fill:#FFF5EB;stroke:#5C5B4B;stroke-linecap:round;stroke-miterlimit:10;}
	.st3{fill:#FFF5EB;}
	.st4{fill:none;stroke:#5C5B4B;stroke-linecap:round;stroke-miterlimit:10;}
</style>
<path class="st0" d="M300.9,106.8c0,0-1.2-6.9-5.5-11.7c13.9-22.3,3.3-56.2,3.3-56.2s-4.4-3.9-9.5-4.9c-0.7-3.3-1.3-5.5-1.5-6
	c0,0,0,0,0,0c0,0,0-0.1,0-0.1c0,0,0,0,0,0s-2.5-2.2-5.8-3.7c-0.1-0.1-0.3-0.1-0.4-0.2c-2.1-0.9-4.4-1.5-6.7-1.1
	c-0.3,0-0.7,0.1-1,0.2c-1.3,0.4-2.7,1.1-3.9,2.3c-0.2,0.1-0.3,0.3-0.4,0.5c-0.3,0.3-0.6,0.7-0.9,1.1c-0.1,0.2-0.3,0.4-0.4,0.6
	c-0.3,0.4-0.5,0.9-0.8,1.4c-0.4,0.7-0.7,1.6-1.1,2.5c-0.2,0.6-0.4,1.3-0.6,2c-0.6,2.1-1.1,4.5-1.4,7.4c0,0-0.1,1-0.2,2.5
	c-0.2,1.7-0.5,4.2-1.2,6.7c-0.1,0.4-0.2,0.8-0.3,1.2c-0.2,0.7-0.4,1.3-0.6,2c-0.1,0.4-0.3,0.8-0.4,1.3c-0.3,0.9-0.7,1.8-1.1,2.6
	c-0.2,0.3-0.3,0.6-0.5,0.9c-0.8,1.4-1.8,2.7-3,3.6c-0.2,0.2-0.5,0.3-0.7,0.5c-0.7,0.5-1.5,0.8-2.4,0.9c-0.3,0.1-0.6,0.1-1,0.1
	c0,0,0,0,0,0c-0.3,0-0.6,0-0.9,0c-0.9-2.7-1.3-5.3-1-7c0,0-1.1-20.1-13-21.1c-0.1-0.4-0.3-0.9-0.5-1.3c0,0,0,0,0,0
	c-0.1-0.2-0.2-0.4-0.3-0.6c0,0,0-0.1-0.1-0.1c-0.1-0.3-0.3-0.7-0.5-1c-0.1-0.1-0.1-0.3-0.2-0.4c-0.1-0.2-0.2-0.5-0.4-0.7
	c-0.1-0.2-0.2-0.3-0.3-0.5c-0.1-0.1-0.2-0.3-0.2-0.4c-0.1-0.2-0.3-0.5-0.5-0.7c-0.1-0.1-0.2-0.2-0.2-0.3c-0.2-0.2-0.4-0.5-0.5-0.7
	c-0.1-0.1-0.1-0.2-0.2-0.2c-0.2-0.2-0.4-0.4-0.6-0.6c-0.1-0.1-0.1-0.1-0.2-0.2c-0.2-0.2-0.5-0.4-0.7-0.6c-0.1-0.1-0.1-0.1-0.2-0.2
	c-0.2-0.2-0.5-0.4-0.8-0.6c-0.1,0-0.1-0.1-0.2-0.1c-0.3-0.2-0.6-0.4-0.9-0.5c0,0-0.1,0-0.1-0.1c-0.3-0.1-0.6-0.3-0.9-0.4
	c0,0-0.1,0-0.1,0c-0.3-0.1-0.7-0.2-1-0.3c-0.1,0-0.1,0-0.2,0c-0.4-0.1-0.7-0.1-1.1-0.2c-0.1,0-0.1,0-0.2,0c-0.4,0-0.8-0.1-1.2-0.1
	c0,0-0.1,0-0.1,0c-0.4,0-0.8,0-1.3,0.1c-0.1,0-0.1,0-0.2,0c-0.4,0.1-0.9,0.1-1.3,0.2c-0.1,0-0.2,0-0.3,0.1c-0.5,0.1-0.9,0.2-1.4,0.4
	c-0.1,0-0.2,0.1-0.2,0.1c-0.5,0.2-1,0.4-1.6,0.6c-0.3,0.1-0.6,0.3-0.8,0.4c-0.1,0.1-0.2,0.1-0.3,0.2c-0.2,0.1-0.4,0.2-0.5,0.3
	c-0.1,0.1-0.2,0.2-0.3,0.2c-0.2,0.1-0.3,0.2-0.4,0.4c-0.1,0.1-0.2,0.2-0.3,0.3c-0.1,0.1-0.3,0.3-0.4,0.4c-0.1,0.1-0.2,0.2-0.3,0.3
	c-0.1,0.1-0.3,0.3-0.4,0.4c-0.1,0.1-0.2,0.2-0.3,0.4c-0.1,0.2-0.2,0.3-0.4,0.5c-0.1,0.1-0.2,0.3-0.3,0.4c-0.1,0.2-0.2,0.4-0.3,0.5
	c-0.1,0.1-0.2,0.3-0.2,0.4c-0.1,0.2-0.2,0.4-0.3,0.6c-0.1,0.1-0.1,0.3-0.2,0.4c-0.1,0.3-0.3,0.5-0.4,0.8c-0.1,0.2-0.1,0.4-0.2,0.5
	c-0.1,0.3-0.2,0.5-0.3,0.8c-0.1,0.2-0.1,0.4-0.2,0.6c-0.1,0.2-0.1,0.4-0.2,0.6c-0.1,0.2-0.1,0.4-0.2,0.6c-0.1,0.2-0.1,0.4-0.2,0.6
	c-0.1,0.2-0.1,0.5-0.2,0.7c0,0.2-0.1,0.4-0.1,0.6c-0.1,0.2-0.1,0.5-0.2,0.7c0,0.2-0.1,0.4-0.1,0.6c0,0.3-0.1,0.5-0.1,0.8
	c0,0.2-0.1,0.4-0.1,0.6c0,0.3-0.1,0.6-0.1,0.9c0,0.2,0,0.4-0.1,0.5c0,0.3-0.1,0.6-0.1,0.9c0,0.1,0,0.3,0,0.4
	c-0.2,1.7-0.2,3.5-0.2,5.4c0,0.1,0,0.2,0,0.2c0,0.4,0,0.8,0,1.3c0,0.1,0,0.2,0,0.4c0,0.4,0,0.8,0,1.2c0,0.1,0,0.3,0,0.4
	c0,0.4,0,0.8,0.1,1.2c0,0.1,0,0.3,0,0.4c0,0.4,0.1,0.9,0.1,1.3c0,0.1,0,0.2,0,0.3c0,0.4,0.1,0.9,0.1,1.3c0,0.1,0,0.2,0,0.2
	c0.3,2.7,0.8,5.4,1.4,8.1c0,0,0,0,0,0c-0.2,0.1-0.3,0.3-0.5,0.4c0,0-0.1,0-0.1,0.1c-0.2,0.1-0.3,0.3-0.5,0.4c0,0-0.1,0-0.1,0.1
	c-0.2,0.1-0.4,0.3-0.6,0.4c0,0,0,0,0,0c-0.7,0.5-1.4,0.9-2.1,1.4c0,0,0,0-0.1,0c-0.2,0.1-0.5,0.3-0.7,0.4c0,0,0,0,0,0
	c-2.3,1.3-4.9,2.4-7.4,2.7c0,0,0,0,0,0c-1.2-5.7-1.4-14-0.1-25.9c0,0-3.9-9.3-11.5-12.1c0-0.1-0.1-0.2-0.2-0.3c0,0-0.1-0.1-0.1-0.1
	c0-0.1-0.1-0.2-0.2-0.3c0-0.1-0.1-0.1-0.1-0.2c-0.1-0.1-0.1-0.2-0.2-0.3c-0.1-0.1-0.1-0.2-0.2-0.3c0-0.1-0.1-0.2-0.1-0.3
	c-0.1-0.1-0.2-0.3-0.3-0.5c0,0-0.1-0.1-0.1-0.1c-0.1-0.2-0.3-0.4-0.4-0.6c0-0.1-0.1-0.1-0.1-0.2c-0.1-0.2-0.2-0.3-0.3-0.5
	c0-0.1-0.1-0.1-0.1-0.2c-0.1-0.2-0.2-0.3-0.3-0.5c-0.1-0.1-0.1-0.1-0.2-0.2c-0.1-0.2-0.3-0.3-0.4-0.5c-0.1-0.1-0.1-0.1-0.2-0.2
	c-0.2-0.2-0.3-0.4-0.5-0.6c0,0-0.1-0.1-0.1-0.1c-0.4-0.5-0.8-0.9-1.3-1.4c0,0-0.1-0.1-0.1-0.1c-0.2-0.2-0.4-0.4-0.6-0.5
	c-0.1-0.1-0.1-0.1-0.2-0.2c-0.2-0.2-0.4-0.3-0.6-0.5c-0.1-0.1-0.1-0.1-0.2-0.2c-0.2-0.1-0.4-0.3-0.6-0.4c-0.1,0-0.1-0.1-0.2-0.1
	c-0.2-0.2-0.5-0.3-0.7-0.5c0,0-0.1,0-0.1-0.1c-0.3-0.2-0.6-0.3-0.9-0.5c0,0,0,0,0,0c-0.3-0.1-0.6-0.3-0.9-0.4
	c-0.1,0-0.2-0.1-0.3-0.1c-0.2-0.1-0.5-0.2-0.7-0.3c-0.1,0-0.2-0.1-0.3-0.1c-0.2-0.1-0.5-0.1-0.7-0.2c-0.1,0-0.2-0.1-0.3-0.1
	c-0.2-0.1-0.5-0.1-0.7-0.1c-0.1,0-0.2,0-0.3,0c-0.3,0-0.6-0.1-1-0.1c0,0-0.1,0-0.1,0c-0.4,0-0.7,0-1.1,0c-0.1,0-0.2,0-0.3,0
	c-0.3,0-0.6,0-0.9,0.1c-0.1,0-0.3,0-0.4,0.1c-0.3,0-0.5,0.1-0.8,0.1c-0.2,0-0.3,0.1-0.5,0.1c-0.3,0.1-0.5,0.1-0.8,0.2
	c-0.2,0-0.3,0.1-0.5,0.1c-0.3,0.1-0.6,0.2-0.9,0.3c-0.1,0.1-0.3,0.1-0.4,0.2c-0.4,0.2-0.9,0.4-1.3,0.6c-0.2,0.1-0.4,0.2-0.6,0.4
	c-0.1,0-0.1,0.1-0.2,0.1c-0.2,0.1-0.4,0.3-0.5,0.4c0,0-0.1,0-0.1,0.1c-0.2,0.2-0.4,0.4-0.6,0.6c0,0.1-0.1,0.1-0.1,0.2
	c-0.2,0.2-0.3,0.4-0.5,0.6c0,0.1-0.1,0.1-0.1,0.2c-0.2,0.3-0.4,0.5-0.5,0.8c0,0.1-0.1,0.1-0.1,0.2c-0.1,0.2-0.3,0.5-0.4,0.7
	c0,0.1-0.1,0.2-0.1,0.2c-0.2,0.3-0.3,0.6-0.5,1c0,0.1-0.1,0.1-0.1,0.2c-0.1,0.3-0.3,0.6-0.4,0.9c0,0.1-0.1,0.2-0.1,0.3
	c0,0,0,0.1,0,0.1c-0.2-0.1-0.3-0.3-0.5-0.4c-0.6-0.4-1.1-0.9-1.7-1.3c-1.2-0.9-2.4-1.7-3.5-2.4c-4.7-3-9.2-5.1-13.6-6.4
	c-1.1-0.3-2.2-0.6-3.2-0.9c-1.1-0.2-2.1-0.4-3.2-0.6c-2.1-0.3-4.1-0.5-6.1-0.5c-2,0-3.9,0.1-5.7,0.3c-0.5,0.1-0.9,0.1-1.4,0.2
	c-0.9,0.1-1.8,0.3-2.7,0.5c-0.9,0.2-1.7,0.4-2.6,0.7c-14.7,4.2-24.4,14.8-25.5,16c-0.6-0.5-1.3-1-1.9-1.4c-0.6-1-1.7-2.9-3.1-3.8
	l2.7,3.5c-0.3-0.2-0.5-0.4-0.8-0.5c-1.6-2.5-3.5-4.7-5.6-6.8l0,0c-0.2-0.2-0.3-0.3-0.5-0.5c-0.1-0.1-0.2-0.2-0.3-0.3
	c-0.4-0.4-0.9-0.8-1.4-1.2c-0.1-0.1-0.2-0.1-0.3-0.2c-0.4-0.3-0.9-0.7-1.3-1C79,23,78.9,23,78.8,22.9c-0.5-0.3-1-0.7-1.5-1
	c-0.1-0.1-0.2-0.1-0.4-0.2c-0.5-0.3-1-0.6-1.6-0.9c0,0-0.1,0-0.1,0c-0.5-0.3-1.1-0.6-1.7-0.8c-0.1-0.1-0.3-0.1-0.4-0.2
	c-0.6-0.3-1.2-0.5-1.8-0.7c-0.1,0-0.1,0-0.2-0.1c-0.6-0.2-1.1-0.4-1.7-0.6c-0.1,0-0.3-0.1-0.4-0.1c-0.6-0.2-1.3-0.4-1.9-0.5
	c-0.1,0-0.2-0.1-0.4-0.1c-0.6-0.1-1.2-0.3-1.8-0.4c-0.1,0-0.2,0-0.4-0.1c-0.7-0.1-1.4-0.2-2.1-0.3c-0.2,0-0.3,0-0.5-0.1
	c-0.7-0.1-1.3-0.1-2-0.2c-0.1,0-0.1,0-0.2,0c-0.7,0-1.5-0.1-2.3-0.1c-0.2,0-0.4,0-0.5,0c-0.8,0-1.6,0-2.4,0c0,0-0.1,0-0.1,0
	c-0.8,0-1.5,0.1-2.3,0.2c-0.2,0-0.4,0-0.6,0.1c-0.8,0.1-1.7,0.2-2.5,0.3c-0.1,0-0.3,0-0.4,0.1c-0.8,0.1-1.5,0.2-2.3,0.4
	c-0.2,0-0.3,0.1-0.5,0.1c-0.9,0.2-1.8,0.4-2.7,0.6c-0.2,0-0.4,0.1-0.6,0.1c-0.3,0.1-0.6,0.1-0.9,0.2c-2.8-5-8.8-10.7-20.4-6.5
	c-18.8,6.7-9.6,79.5-0.9,85.1c1.9,1.3,4.6,3.9,7.6,6.1c-6.1,20.1-0.9,60,5.3,71.2l6.4,6.1c1.2,1,2.4,2,3.7,2.9c1,2.3,2,4,3.1,4.6
	c7.8,5.1,28.3,33.5,25.5-42.7c2.7-1.8,5.9-3.4,9-3.7c1.2,5.7,1.4,14,0.1,25.9c0,0,3.9,9.3,11.5,12.1c2,3.9,9.6,16.6,22.6,9.9
	c1.4-0.7,2.8-2.3,3.9-4.4c3.6,3.5,7.8,7,9.8,6.6c6.1-1.3,10.6-4.3,13.2-11l4.2,4.2c3.8,4.3,9.2,7.9,16.7,10.3
	c5.8,1.8,11.4,2.3,16.7,1.6c0,0,0,0,0,0c-0.1,0.4-0.3,0.7-0.4,1.1c0,0,0,0,0,0.1c-0.1,0.3-0.3,0.7-0.5,1c0,0,0,0.1,0,0.1
	c-0.2,0.3-0.3,0.6-0.5,0.9c0,0,0,0.1-0.1,0.1c-0.2,0.3-0.3,0.6-0.5,0.9c0,0.1-0.1,0.1-0.1,0.2c-0.2,0.3-0.3,0.6-0.5,0.8
	c0,0.1-0.1,0.1-0.1,0.2c-0.2,0.3-0.3,0.5-0.5,0.8c-0.1,0.1-0.1,0.2-0.2,0.2c-0.2,0.2-0.4,0.5-0.5,0.7c-0.1,0.1-0.1,0.2-0.2,0.3
	c-0.2,0.2-0.4,0.4-0.5,0.6c-0.1,0.1-0.2,0.2-0.2,0.3c-0.2,0.2-0.4,0.4-0.6,0.6c-0.1,0.1-0.2,0.2-0.3,0.3c-0.2,0.2-0.4,0.4-0.6,0.5
	c-0.1,0.1-0.2,0.2-0.4,0.3c-0.2,0.2-0.4,0.3-0.6,0.5c-0.1,0.1-0.3,0.2-0.4,0.3c-0.2,0.1-0.4,0.3-0.6,0.4c-0.2,0.1-0.3,0.2-0.5,0.3
	c-0.2,0.1-0.4,0.3-0.5,0.4c-0.2,0.1-0.4,0.2-0.6,0.4c-0.2,0.1-0.3,0.2-0.5,0.3c-0.2,0.1-0.5,0.3-0.7,0.4c-0.1,0.1-0.3,0.2-0.4,0.2
	c-0.4,0.2-0.8,0.4-1.2,0.6c-0.5,0.2-0.9,0.5-1.3,0.7c-0.1,0.1-0.3,0.1-0.4,0.2c-0.3,0.2-0.6,0.3-0.8,0.5c-0.2,0.1-0.3,0.2-0.5,0.3
	c-0.2,0.1-0.5,0.3-0.7,0.4c-0.2,0.1-0.3,0.2-0.4,0.3c-0.2,0.1-0.4,0.3-0.6,0.4c-0.1,0.1-0.3,0.2-0.4,0.3c-0.2,0.1-0.4,0.3-0.6,0.4
	c-0.1,0.1-0.2,0.2-0.4,0.3c-0.2,0.2-0.4,0.3-0.6,0.5c-0.1,0.1-0.2,0.1-0.3,0.2c-0.3,0.2-0.5,0.4-0.8,0.7c0,0-0.1,0-0.1,0.1
	c-0.2,0.2-0.4,0.4-0.6,0.6c-0.1,0.1-0.2,0.2-0.2,0.2c-0.1,0.1-0.3,0.3-0.4,0.4c-0.1,0.1-0.2,0.2-0.2,0.3c-0.1,0.1-0.2,0.3-0.3,0.4
	c-0.1,0.1-0.1,0.2-0.2,0.3c-0.1,0.1-0.2,0.3-0.3,0.4c-0.1,0.1-0.1,0.2-0.2,0.3c-0.1,0.1-0.2,0.3-0.3,0.4c-0.1,0.1-0.1,0.2-0.2,0.3
	c-0.1,0.1-0.2,0.3-0.2,0.4c0,0.1-0.1,0.1-0.1,0.2c-0.1,0.2-0.2,0.4-0.3,0.6c0,0,0,0.1,0,0.1c-0.1,0.2-0.1,0.3-0.2,0.5
	c0,0.1,0,0.2-0.1,0.2c0,0.1-0.1,0.3-0.1,0.4c0,0.1,0,0.2-0.1,0.3c0,0.1,0,0.2-0.1,0.4c0,0.1,0,0.2,0,0.3c0,0.1,0,0.2,0,0.4
	c0,0.1,0,0.2,0,0.2c0,0.1,0,0.2,0,0.4c0,0.1,0,0.2,0,0.2c0,0.1,0,0.3,0,0.4c0,0.1,0,0.1,0,0.2c0,0.2,0.1,0.4,0.1,0.6
	c0,0,0,0.1,0,0.1c0,0.1,0.1,0.3,0.1,0.4c0,0.1,0,0.1,0.1,0.2c0,0.1,0.1,0.2,0.1,0.3c0,0.1,0.1,0.2,0.1,0.2c0,0.1,0.1,0.2,0.1,0.3
	c0,0.1,0.1,0.2,0.1,0.2c0,0.1,0.1,0.2,0.1,0.3c0,0.1,0.1,0.1,0.1,0.2c0.1,0.1,0.1,0.2,0.2,0.3c0,0.1,0.1,0.1,0.1,0.2
	c0.1,0.1,0.1,0.2,0.2,0.3c0,0.1,0.1,0.1,0.1,0.2c0.1,0.2,0.2,0.3,0.3,0.5c0,0,0.1,0.1,0.1,0.1c0.1,0.1,0.2,0.2,0.3,0.3
	c0,0.1,0.1,0.1,0.1,0.2c0.1,0.1,0.2,0.2,0.2,0.3c0.1,0.1,0.1,0.1,0.2,0.2c0.1,0.1,0.2,0.2,0.2,0.3c0.1,0.1,0.1,0.1,0.2,0.2
	c0.1,0.1,0.2,0.2,0.2,0.3c0,0,0.1,0.1,0.1,0.1c1.7,1.8,6,6.8,6.7,8c3.1,5.4,10.9,9,10.9,9c34.1,0.2,41-21.7,41.7-52.3
	c3.2,1.1,6.3,1.8,9,2.2c2.3,0.5,4.8,0.7,7.4,0.7c0.1,0,0.2,0,0.2,0l0,0c2.8,0,5.9-0.4,9.1-1.2c10.5-2.4,18.4-8.3,23.6-15.9
	c0.1,0.1,0.1,0.1,0.2,0.2c0,0,0,0,0,0c0.2,0.2,0.4,0.4,0.6,0.6c0,0,0,0,0,0c0.2,0.2,0.4,0.4,0.7,0.6c0,0,0,0,0,0
	c0.2,0.2,0.5,0.4,0.7,0.7c0,0,0.1,0.1,0.1,0.1c0.1,0.1,0.2,0.2,0.3,0.3c0.1,0.1,0.2,0.2,0.3,0.3c0,0,0.1,0.1,0.1,0.1
	c0.2,0.2,0.5,0.5,0.7,0.7c0,0,0,0,0,0c0.3,0.3,0.5,0.5,0.8,0.8l9.4,9.4C291.5,205.7,309.2,222.3,300.9,106.8z M242.5,151.2
	C242.5,151.2,242.5,151.2,242.5,151.2c-0.4-0.1-0.8-0.1-1.2-0.1c-1,0-2.1,0.3-3.1,0.7c-0.4,0.2-0.8,0.3-1.2,0.5
	c-0.2,0.1-0.4,0.2-0.6,0.3c-1.1,0.6-2.2,1.4-3.2,2.2c-0.3,0.2-0.5,0.5-0.8,0.7c-0.3,0.2-0.7,0.5-1.1,0.6c-0.1,0.1-0.2,0.1-0.3,0.2
	c-0.3,0.1-0.6,0.3-0.9,0.4c-0.1,0-0.2,0.1-0.3,0.1c-0.4,0.1-0.8,0.2-1.3,0.3c0,0-0.1,0-0.1,0c-0.4,0.1-0.8,0.1-1.2,0.1
	c-0.1,0-0.2,0-0.4,0c-0.4,0-0.8,0-1.2,0c-0.1,0-0.1,0-0.2,0c-0.5,0-1-0.1-1.5-0.2c-0.1,0-0.1,0-0.2,0c-0.4-0.1-0.9-0.2-1.4-0.3
	c-0.1,0-0.2,0-0.3-0.1c-0.5-0.1-1-0.2-1.5-0.4h0c0.1-1.8,1.2-3.7,3.4-5.4c0,0,2.5-2.6,5.8-4.7c2.8,0.6,6,0.3,9.2-0.5
	c0.3,0.1,0.7,0.2,1,0.3c0.3,0.2,0.6,0.5,0.9,0.7c0,0,0,0,0,0c0.3,0.2,0.6,0.4,1,0.7c0,0,0,0,0,0c0.3,0.2,0.6,0.4,0.9,0.5
	c0,0,0.1,0.1,0.1,0.1c0.3,0.2,0.6,0.3,1,0.5c0,0,0,0,0,0c0.2,0.4,0.4,0.8,0.7,1.2c0.4,0.7,0.9,1.4,1.4,2.1
	C244.8,151.5,243.6,151.3,242.5,151.2z M166.1,157.3c-0.1,0-0.1,0-0.2,0c-0.2,0-0.4-0.1-0.6-0.1c0,0-0.1,0-0.1,0
	c-0.2,0-0.5-0.1-0.7-0.2c-2-5.1-1.1-10.2,5.6-11.2c0,0,3-0.9,6.5-1c-0.1,0.6-0.3,1.2-0.4,1.9c-0.1,0.3-0.2,0.6-0.3,0.9
	c-0.1,0.2-0.1,0.4-0.2,0.6c-0.2,0.6-0.4,1.1-0.6,1.7c0,0,0,0,0,0c-0.1,0.4-0.3,0.7-0.5,1.1c-0.1,0.1-0.1,0.2-0.2,0.3
	c-0.1,0.2-0.2,0.5-0.3,0.7c-0.1,0.1-0.1,0.2-0.2,0.3c-0.1,0.2-0.2,0.4-0.3,0.6c-0.1,0.1-0.1,0.2-0.2,0.3c-0.1,0.2-0.2,0.4-0.4,0.5
	c-0.1,0.1-0.1,0.2-0.2,0.3c-0.2,0.2-0.3,0.4-0.5,0.6c0,0-0.1,0.1-0.1,0.1c-0.2,0.2-0.4,0.4-0.6,0.6c-0.1,0.1-0.1,0.1-0.2,0.1
	c-0.1,0.1-0.3,0.3-0.5,0.4c-0.1,0.1-0.1,0.1-0.2,0.2c-0.1,0.1-0.3,0.2-0.4,0.3c-0.1,0-0.2,0.1-0.2,0.1c-0.1,0.1-0.3,0.2-0.4,0.2
	c-0.1,0-0.1,0.1-0.2,0.1c-0.2,0.1-0.4,0.1-0.6,0.2c0,0-0.1,0-0.1,0c-0.2,0.1-0.5,0.1-0.7,0.2c0,0-0.1,0-0.1,0
	c-0.2,0-0.4,0.1-0.6,0.1c-0.1,0-0.1,0-0.2,0c-0.2,0-0.3,0-0.5,0c-0.1,0-0.1,0-0.2,0C166.5,157.3,166.3,157.3,166.1,157.3z
	 M181.1,109.2c0,0-0.1,0-0.1,0c-0.4-0.2-0.8-0.3-1.2-0.5c0,0-0.1,0-0.1,0c-0.4-0.2-0.9-0.3-1.3-0.4c0,0,0,0,0,0
	c-3.3-1.1-6.4-1.7-9.4-1.9c2.6-2.4,5-5.1,7-8l8.2,8.3c0.7,0.6,1.4,1.3,2.1,1.8c-0.1,0.1-0.2,0.1-0.2,0.2c0,0,0,0,0,0c0,0,0,0,0,0
	c0,0-0.1,0.1-0.1,0.1c0,0,0,0,0,0c0,0,0,0,0,0c-0.1,0.1-0.3,0.2-0.4,0.3c0,0,0,0,0,0s0,0,0,0c0,0,0,0,0,0c0,0,0,0,0,0c0,0,0,0,0,0
	c-0.1,0.1-0.2,0.2-0.3,0.3c0,0,0,0,0,0c0,0,0,0,0,0c0,0-0.1,0.1-0.1,0.1c0,0,0,0,0,0c0,0,0,0,0,0c-0.1,0.1-0.2,0.1-0.3,0.2
	c0,0,0,0,0,0s0,0,0,0c0,0-0.1,0.1-0.1,0.1c-0.1,0.1-0.2,0.1-0.2,0.2c0,0-0.1,0.1-0.1,0.1c-0.1,0.1-0.2,0.1-0.2,0.2c0,0,0,0,0,0
	c0,0,0,0,0,0c0,0-0.1,0.1-0.1,0.1c0,0,0,0,0,0c0,0,0,0,0,0c0,0,0,0,0,0c-0.4-0.2-0.9-0.4-1.3-0.6c0,0-0.1,0-0.1,0
	C181.9,109.5,181.5,109.3,181.1,109.2z M135.8,119c-0.7,0.6-1.2,1.1-1.7,1.6c0,0,0,0-0.1,0.1c-0.1,0.1-0.1,0.1-0.2,0.2
	c0,0-0.1,0.1-0.1,0.1c-0.1,0.1-0.1,0.1-0.2,0.2c0,0-0.1,0.1-0.1,0.1c0,0-0.1,0.1-0.1,0.1c0,0-0.1,0.1-0.1,0.1c0,0-0.1,0.1-0.1,0.1
	c0,0-0.1,0.1-0.1,0.1c0,0,0,0,0,0.1c0,0,0,0,0,0c-0.3-1.1-0.6-2.2-1.1-3.1c1.3,0.2,2.6,0.3,3.9,0.4
	C135.9,118.9,135.8,118.9,135.8,119C135.8,119,135.8,119,135.8,119z M104.5,113.7c-0.6-1-1.7-2.9-3.1-3.8l2.7,3.5
	c-0.3-0.2-0.5-0.4-0.8-0.5c-0.8-1.2-1.7-2.4-2.6-3.6c1.5-0.9,2.8-2.6,4-4.9l1.5,1.5c2.7,2.8,6,5.4,10.2,7.5
	c-0.4,0.1-0.9,0.2-1.3,0.4c-2.3,0.8-4.2,2-5.8,3.7C107.7,116.2,106.2,114.9,104.5,113.7z M66.2,61.6c1.2,5.7,1.4,14,0.1,25.9
	c0,0,2.1,5.1,6.3,8.9c-0.1,0-0.2,0-0.3,0c-0.8,0-1.6,0-2.4,0c0,0-0.1,0-0.1,0c-0.8,0-1.5,0.1-2.3,0.2c-0.2,0-0.4,0-0.6,0.1
	c-0.8,0.1-1.7,0.2-2.5,0.3c-0.1,0-0.3,0-0.4,0.1c-0.8,0.1-1.5,0.2-2.3,0.4c-0.2,0-0.3,0.1-0.5,0.1c-0.9,0.2-1.8,0.4-2.7,0.6
	c-0.2,0-0.4,0.1-0.6,0.1c-0.3,0.1-0.6,0.1-0.9,0.2c-0.1-0.2-0.3-0.5-0.4-0.7c0.9-7.8,1.1-18.3,0.6-32.4C59.8,63.6,63,62,66.2,61.6z
	 M256.2,119.4c-1.2-1.6-2.5-3.1-4-4.4c0,0-0.1-0.1-0.1-0.1c-0.4-0.3-0.7-0.7-1.1-1c-0.1-0.1-0.3-0.2-0.4-0.3
	c-0.4-0.3-0.7-0.6-1.1-0.8c-0.2-0.1-0.4-0.3-0.6-0.4c-0.4-0.2-0.7-0.5-1.1-0.7c-0.2-0.1-0.5-0.3-0.7-0.4c-0.3-0.2-0.7-0.4-1.1-0.6
	c-0.4-0.2-0.9-0.5-1.4-0.7c-0.4-0.2-0.8-0.4-1.2-0.6c-0.4-0.2-0.8-0.3-1.2-0.5c-0.3-0.1-0.6-0.2-0.9-0.3c-0.1,0-0.2-0.1-0.3-0.1
	c0.5-0.2,1-0.4,1.5-0.6c4,2.8,8.5,4.7,13.7,5.5C256.2,115.2,256.2,117.3,256.2,119.4z M139.8,61.2c-0.1,0.4-0.2,0.8-0.2,1.2
	c0,0.2-0.1,0.4-0.1,0.6c-0.1,0.4-0.2,0.8-0.3,1.2c-0.1,0.2-0.1,0.4-0.2,0.6c-0.2,0.6-0.4,1.2-0.7,1.8c0,0,0,0,0,0
	c-0.2,0.4-0.3,0.8-0.5,1.1c-0.1,0.1-0.1,0.2-0.2,0.3c-0.1,0.2-0.2,0.5-0.4,0.7c-0.1,0.1-0.1,0.2-0.2,0.3c-0.1,0.2-0.2,0.4-0.4,0.6
	c-0.1,0.1-0.1,0.2-0.2,0.3c-0.1,0.2-0.3,0.4-0.4,0.6c0,0.1-0.1,0.1-0.1,0.2c-0.2,0.3-0.4,0.5-0.6,0.7c0,0,0,0-0.1,0.1
	c-0.2,0.2-0.4,0.4-0.6,0.5c-0.1,0.1-0.1,0.1-0.2,0.1c-0.2,0.1-0.3,0.3-0.5,0.4c-0.1,0-0.1,0.1-0.2,0.1c-0.2,0.1-0.4,0.2-0.5,0.3
	c0,0-0.1,0.1-0.1,0.1c-0.5,0.3-1,0.5-1.4,0.6c0,0,0,0,0,0c-0.2,0.1-0.5,0.1-0.7,0.2c0,0-0.1,0-0.1,0c-0.2,0-0.4,0.1-0.7,0.1
	c0,0-0.1,0-0.1,0c-1,0.1-2.1-0.1-3.1-0.4c-2.2-5.4-1.4-10.9,5.7-11.8c0,0,3.4-1,7.2-1.1C139.9,61,139.8,61.1,139.8,61.2z
	 M258.8,161.9c0,0,0-0.1,0-0.1c-0.1-0.4-0.2-0.8-0.4-1.2c0,0,0,0,0,0c0.4,0.1,0.8,0.1,1.2,0.1c0.2,1,0.4,1.9,0.5,2.9c0,0,0,0,0,0
	c-0.3-0.1-0.7-0.2-1-0.3C259,162.8,258.9,162.3,258.8,161.9z"/>
<g>
	<g>
		<path class="st1" d="M174.2,96.6c10.1,9.5,25.9,13.4,49.3,4.8c0,0,4.2-1.6,9.2-3.7c7.2,5.1,16.3,7.3,27.5,4.7
			C308.1,91,288.7,29,288.7,29s-4.4-3.9-9.5-4.9c-0.8-3.8-1.5-6.1-1.5-6.1s-19.9-17.7-23.5,12.9c0,0-1,20.6-10.4,22.2
			c-0.7,0.1-1.3,0.1-1.9,0.1c-0.9-2.7-1.3-5.3-1-7c0,0-1.1-20.1-13-21.1c-2.4-7-7.5-14.3-18.4-9.5c-8.5,3.7-11,21.7-6.8,39.4
			c-3,2.3-7.7,5.5-12.1,6c-1.2-5.7-1.4-14-0.1-25.9c0,0-3.9-9.3-11.5-12.1c-2-3.9-9.6-16.6-22.6-9.9c-10.6,5.4-15,53.1,7.6,73.3"/>
		<g id="XMLID_2458_">
			<path id="XMLID_2470_" class="st2" d="M280.5,30.9c-1.1-7.7-2.8-12.9-2.8-12.9s-19.9-17.7-23.5,12.9c0,0-1,20.6-10.4,22.2
				c-9.4,1.6-14.9-12.8-13.9-17.9c0,0-1.6-27.9-20.4-19.6s-8.2,87.2,39.7,75.8c25.8-6.1,32.1-27,32.4-44.9"/>
			<g id="XMLID_2468_">
				<path id="XMLID_2469_" class="st2" d="M205.8,52.3c0,0-33,32.6-26.3-28.3c0,0-7.9-18.8-23.2-11s-17.7,104.5,56.2,77.4
					c0,0,19.9-7.6,25.2-11.5"/>
			</g>
			<line id="XMLID_2467_" class="st2" x1="172.1" y1="87.3" x2="175.2" y2="88.7"/>
			<path id="XMLID_2466_" class="st2" d="M244,66.7c0,0,1.2,2.5-0.7,3.6"/>
			<path id="XMLID_2465_" class="st2" d="M276.8,61.5c0,0-0.6,2.3-1.2,3.1"/>
			<path id="XMLID_2464_" class="st2" d="M258.3,29.7c0,0,1-4.3,0-4.3"/>
			<path id="XMLID_2463_" class="st2" d="M163.9,15.5c0,0,4,0.6,3.6,1.2"/>
			<path id="XMLID_2462_" class="st2" d="M189.9,66.9c0,0,4.7-0.7,5-1.6"/>
			<path id="XMLID_2461_" class="st2" d="M213.7,19.4c0,0-3.1,1.5-4,3"/>
			<line id="XMLID_2460_" class="st2" x1="243.8" y1="55.7" x2="247.1" y2="54.8"/>
			<line id="XMLID_2459_" class="st2" x1="250.8" y1="86.3" x2="254.1" y2="85.4"/>
		</g>
		<path id="XMLID_2457_" class="st2" d="M287.6,38.4c0,0-3.8-2.2-5.1-4.7"/>
		<path id="XMLID_2456_" class="st2" d="M271.6,93.4c0,0-3.8-2.2-5.1-4.7"/>
		<path id="XMLID_2455_" class="st2" d="M227.6,95.4c0,0-3.8-2.2-5.1-4.7"/>
		<path id="XMLID_2454_" class="st2" d="M236.6,38.4c0,0-3.8-2.2-5.1-4.7"/>
		<path id="XMLID_2453_" class="st2" d="M186.6,37.4c0,0-3.8-2.2-5.1-4.7"/>
	</g>
	<g>
		<path class="st1" d="M96.2,95.9c4.3,4.5,10.2,8.3,18.2,10.8c46.3,14.7,83.5-49.7,45.6-77.6c-0.4-0.3-0.9-0.6-1.3-1
			c-2.4-3.7-5.6-7.1-9.7-10C111-9.7,81.4,25.3,81.4,25.3s-17.5,40.2,5.5,61.3 M122.7,51.9c0,0,3.4-1,7.2-1.1
			c-0.3,1.7-0.8,3.6-1.6,5.7c-2.7,7-7,8.5-11.3,7.2C114.8,58.3,115.6,52.9,122.7,51.9z"/>
		<g id="XMLID_2439_">
			<path id="XMLID_2452_" class="st2" d="M125.1,23.7"/>
			<path id="XMLID_2449_" class="st2" d="M160.5,31.4c-2.5-4.9-6.3-9.4-11.5-13.2C111-9.7,81.4,25.3,81.4,25.3s-24.3,55.7,22,70.5
				c34.6,11,64.1-22.2,61-51.3 M128.2,56.6c-8.8,22.9-35.9-13-16.6-15.7C111.7,40.9,137,33.7,128.2,56.6z"/>
			<path id="XMLID_2448_" class="st2" d="M134,14.6"/>
			<line id="XMLID_2447_" class="st2" x1="90.7" y1="84.5" x2="93.8" y2="85.9"/>
			<path id="XMLID_2446_" class="st2" d="M137.3,87.3c0,0-0.5,2.7-2.8,2.5"/>
			<path id="XMLID_2445_" class="st2" d="M131.7,57c0,0-0.6,2.3-1.2,3.1"/>
			<path id="XMLID_2444_" class="st2" d="M159.5,55.3c0,0,1-4.3,0-4.3"/>
			<path id="XMLID_2443_" class="st2" d="M131.8,14c0,0,4,0.6,3.6,1.2"/>
			<path id="XMLID_2442_" class="st2" d="M105.8,63.8c0,0,3.9,2.7,4.7,2.2"/>
			<path id="XMLID_2441_" class="st2" d="M88.3,26.1c0,0-3.1,1.5-4,3"/>
			<line id="XMLID_2440_" class="st2" x1="106.6" y1="38.1" x2="109.8" y2="37.2"/>
		</g>
		<path id="XMLID_2438_" class="st2" d="M145.6,100.4c0,0-3.8-2.2-5.1-4.7"/>
		<path id="XMLID_2437_" class="st2" d="M172.6,54.4c0,0-3.8-2.2-5.1-4.7"/>
		<path id="XMLID_2436_" class="st2" d="M113.6,50.4c0,0-3.8-2.2-5.1-4.7"/>
	</g>
	<g>
		<g id="XMLID_2425_">
			<path id="XMLID_2435_" class="st1" d="M45.3,25.4c0,0-3.9-19.2-22.8-12.4s-9.6,79.5-0.9,85.1C30.3,103.7,54.7,138.3,45.3,25.4z"
				/>
			<path id="XMLID_2434_" class="st1" d="M40.9,60.3c0,0,33-32.6,26.3,28.3c0,0,7.9,18.8,23.2,11S108.1-4.9,34.3,22.2"/>
			<line id="XMLID_2433_" class="st1" x1="30.4" y1="97.3" x2="33.5" y2="98.7"/>
			<path id="XMLID_2432_" class="st1" d="M86.7,89.2c0,0,1.2,2.5-0.7,3.6"/>
			<path id="XMLID_2431_" class="st1" d="M94,57.9c0,0-0.6,2.3-1.2,3.1"/>
			<path id="XMLID_2430_" class="st1" d="M41.6,77.3c0,0,1-4.3,0-4.3"/>
			<path id="XMLID_2429_" class="st1" d="M64.9,47.7c0,0,4,0.6,3.6,1.2"/>
			<path id="XMLID_2428_" class="st1" d="M25.6,68c0,0,4.7-0.7,5-1.6"/>
			<path id="XMLID_2427_" class="st1" d="M49.4,23.1c0,0-3.1,1.5-4,3"/>
			<line id="XMLID_2426_" class="st1" x1="21.2" y1="28.2" x2="24.4" y2="27.3"/>
		</g>
		<g>
			<path id="XMLID_2424_" class="st2" d="M34.3,14.4c0,0-3.9-19.2-22.8-12.4s-9.6,79.5-0.9,85.1C19.3,92.7,43.7,127.3,34.3,14.4z"/>
			<path id="XMLID_2423_" class="st3" d="M29.9,49.3c0,0,33-32.6,26.3,28.3c0,0,7.9,18.8,23.2,11S97.1-15.9,23.3,11.2"/>
			<path id="XMLID_2422_" class="st2" d="M72.8,16.2c-10.1-9.7-25.9-13.6-49.5-5"/>
			<path id="XMLID_2421_" class="st4" d="M81.9,29.2c10.7,22.8,6.1,55-2.4,59.4c-15.3,7.9-23.2-11-23.2-11
				c6.7-60.9-26.3-28.3-26.3-28.3"/>
			<line id="XMLID_2420_" class="st2" x1="19.4" y1="86.3" x2="22.5" y2="87.7"/>
			<path id="XMLID_2419_" class="st2" d="M75.7,78.2c0,0,1.2,2.5-0.7,3.6"/>
			<path id="XMLID_2418_" class="st2" d="M83,46.9c0,0-0.6,2.3-1.2,3.1"/>
			<path id="XMLID_2417_" class="st2" d="M30.6,66.3c0,0,1-4.3,0-4.3"/>
			<path id="XMLID_2416_" class="st2" d="M53.9,36.7c0,0,4,0.6,3.6,1.2"/>
			<path id="XMLID_2415_" class="st2" d="M14.6,57c0,0,4.7-0.7,5-1.6"/>
			<path id="XMLID_2414_" class="st2" d="M38.4,12.1c0,0-3.1,1.5-4,3"/>
			<line id="XMLID_2413_" class="st2" x1="10.2" y1="17.2" x2="13.4" y2="16.3"/>
			<path class="st2" d="M29.4,48.9"/>
		</g>
		<path id="XMLID_2412_" class="st2" d="M79.9,24.4c0,0-1.6-3.3-3.5-4.5"/>
		<path id="XMLID_2411_" class="st2" d="M44.6,50.4c0,0-3.8-2.2-5.1-4.7"/>
	</g>
	<g>
		<path class="st1" d="M136.6,174.9c3.8,4.3,9.2,7.9,16.7,10.3c5.8,1.8,11.4,2.3,16.7,1.6c-2.3,6-6.3,10.8-12.7,14
			c-15.6,7.7-13.4,15.2-8.6,20.1c1.7,1.8,6,6.8,6.7,8c3.1,5.4,10.9,9,10.9,9c47.5,0.3,42.2-42.4,41-91.4c0.2-2.4,0.2-4.9-0.1-7.3
			c0-0.4,0-0.8,0-1.3c-0.3-23.3-5.6-30.8-11.4-31.8c-0.1-0.3-0.2-0.5-0.2-0.8c0-0.1-0.1-0.3-0.1-0.4c-0.1-0.2-0.2-0.5-0.2-0.7
			c0-0.1-0.1-0.3-0.1-0.4c-0.1-0.2-0.2-0.4-0.3-0.7c0-0.1-0.1-0.2-0.1-0.4c-0.1-0.2-0.2-0.5-0.3-0.7c0-0.1-0.1-0.2-0.1-0.2
			c-0.1-0.3-0.3-0.6-0.4-0.9c0-0.1-0.1-0.1-0.1-0.2c-0.1-0.2-0.2-0.4-0.3-0.6c-0.1-0.1-0.1-0.2-0.2-0.3c-0.1-0.2-0.2-0.3-0.3-0.5
			c-0.1-0.1-0.1-0.2-0.2-0.3c-0.1-0.1-0.2-0.3-0.3-0.4c-0.1-0.1-0.1-0.2-0.2-0.2c-0.1-0.1-0.2-0.3-0.3-0.4c-0.1-0.1-0.1-0.1-0.2-0.2
			c-0.2-0.2-0.3-0.4-0.5-0.5c0,0,0,0,0,0c-0.2-0.2-0.3-0.3-0.5-0.4c-0.1,0-0.1-0.1-0.2-0.1c-0.1-0.1-0.2-0.2-0.4-0.3
			c-0.1,0-0.1-0.1-0.2-0.1c-0.1-0.1-0.2-0.2-0.3-0.2c-0.1,0-0.1-0.1-0.2-0.1c-0.1-0.1-0.2-0.1-0.4-0.2c-0.1,0-0.1-0.1-0.2-0.1
			c-0.1-0.1-0.3-0.1-0.5-0.2c0,0-0.1,0-0.1,0c-0.2-0.1-0.4-0.1-0.6-0.2c-0.1,0-0.1,0-0.2,0c-0.1,0-0.3-0.1-0.4-0.1
			c-0.1,0-0.1,0-0.2,0c-0.1,0-0.2,0-0.4-0.1c-0.1,0-0.1,0-0.2,0c-0.1,0-0.2,0-0.4,0c-0.1,0-0.1,0-0.2,0c-0.1,0-0.3,0-0.4,0
			c-0.1,0-0.1,0-0.2,0c-0.2,0-0.4,0-0.6,0c0,0-0.1,0-0.1,0c-0.2,0-0.3,0-0.5,0c-0.1,0-0.1,0-0.2,0c-0.1,0-0.3,0-0.4,0.1
			c-0.1,0-0.1,0-0.2,0c-0.1,0-0.2,0-0.4,0.1c-0.1,0-0.1,0-0.2,0c-0.1,0-0.3,0.1-0.4,0.1c-0.1,0-0.1,0-0.2,0.1
			c-0.2,0.1-0.3,0.1-0.5,0.2c0,0,0,0,0,0c-0.2,0.1-0.4,0.1-0.6,0.2c-0.1,0-0.1,0-0.2,0.1c-0.1,0-0.3,0.1-0.4,0.2
			c-0.1,0-0.1,0.1-0.2,0.1c-0.1,0-0.2,0.1-0.3,0.2c-0.1,0-0.1,0.1-0.2,0.1c-0.1,0.1-0.2,0.1-0.3,0.2c-0.1,0-0.1,0.1-0.2,0.1
			c-0.1,0.1-0.3,0.1-0.4,0.2c0,0-0.1,0-0.1,0.1c-0.2,0.1-0.3,0.2-0.5,0.3c0,0-0.1,0-0.1,0.1c-0.1,0.1-0.3,0.1-0.4,0.2
			c-0.1,0-0.1,0.1-0.2,0.1c-0.1,0.1-0.2,0.1-0.3,0.2c-0.1,0-0.1,0.1-0.2,0.1c-0.1,0.1-0.2,0.1-0.3,0.2c-0.1,0-0.1,0.1-0.2,0.1
			c-0.1,0.1-0.2,0.1-0.3,0.2c0,0-0.1,0.1-0.1,0.1c-0.1,0.1-0.3,0.2-0.4,0.3c0,0,0,0-0.1,0c-0.1,0.1-0.2,0.2-0.4,0.3
			c0,0-0.1,0.1-0.1,0.1c-0.1,0.1-0.2,0.1-0.3,0.2c-0.1,0-0.1,0.1-0.1,0.1c-0.1,0.1-0.2,0.1-0.2,0.2c0,0-0.1,0.1-0.1,0.1
			c-0.1,0.1-0.2,0.1-0.2,0.2c0,0-0.1,0.1-0.1,0.1c0,0,0,0,0,0c-29.2-14-50.9,11.6-50.9,11.6s-15.4,35.4,4.8,54.1 M160.1,135.8
			c0,0,3-0.9,6.5-1c-0.3,1.5-0.8,3.2-1.5,5.2c-2.5,6.6-6.6,8.2-10.7,7C152.5,141.8,153.4,136.7,160.1,135.8z"/>
		<g id="XMLID_2394_">
			<path id="XMLID_2408_" class="st2" d="M182.5,105.7c-33.5-24.6-59.7,6.3-59.7,6.3s-21.5,49.2,19.4,62.2
				C183.2,187.2,216,130.3,182.5,105.7z M165.1,140c-8.5,22.2-34.7-12.6-16-15.2C149.1,124.8,173.6,117.8,165.1,140z"/>
			<path id="XMLID_2407_" class="st3" d="M171.4,102.5c0,0,26.1-27.9,26.7,24.5c0.6,52.4,9.4,100.3-40.8,99.9c0,0-27.3-12.7,0-26.2
				c13.4-6.6,16-20.2,15.7-37.4"/>
			<path id="XMLID_2406_" class="st2" d="M161.5,110.5"/>
			<path id="XMLID_2405_" class="st2" d="M169.4,102.5"/>
			<path id="XMLID_2404_" class="st2" d="M198.1,127.7c0.6,52.2,9.2,99.6-40.8,99.3c0,0-27.3-12.7,0-26.2
				c13.4-6.6,16-20.2,15.7-37.4"/>
			<path id="XMLID_2403_" class="st2" d="M171.4,102.5c0,0,18.6-19.8,24.7,5.4"/>
			<line id="XMLID_2402_" class="st2" x1="152.8" y1="220.1" x2="155.9" y2="221.5"/>
			<path id="XMLID_2401_" class="st2" d="M179.8,214.9c0,0,1.2,2.5-0.7,3.6"/>
			<path id="XMLID_2400_" class="st2" d="M193.2,188.6c0,0-0.6,2.3-1.2,3.1"/>
			<path id="XMLID_2399_" class="st2" d="M190.8,155.1c0,0,1-4.3,0-4.3"/>
			<path id="XMLID_2398_" class="st2" d="M133.2,166.2c0,0,4,0.6,3.6,1.2"/>
			<path id="XMLID_2397_" class="st2" d="M182.3,123c0,0,4.7-0.7,5-1.6"/>
			<path id="XMLID_2396_" class="st2" d="M133.6,110.2c0,0-3.1,1.5-4,3"/>
			<line id="XMLID_2395_" class="st2" x1="167.4" y1="146.4" x2="164.5" y2="148.2"/>
		</g>
		<path id="XMLID_2393_" class="st2" d="M152.6,134.4c0,0-3.8-2.2-5.1-4.7"/>
		<path id="XMLID_2392_" class="st2" d="M165.4,181.7c0,0-4.4,0.2-6.8-1.1"/>
		<path id="XMLID_2391_" class="st2" d="M186.6,229.4c0,0-3.8-2.2-5.1-4.7"/>
		<path id="XMLID_2390_" class="st2" d="M202.2,117.5c0,0-2.8-2.3-3.7-4.8"/>
	</g>
	<g>
		<path class="st1" d="M271.2,185.3c10.4,10.3,28,27,19.7-88.5c0,0-2.4-13.7-12.5-15.9c-2.4-6.1-8.3-15-21.3-9.6
			c-18.8,7.9-9.6,92.9-0.9,99.4c1.5,1.1,3.4,3.2,5.5,5.2"/>
		<g>
			<path id="XMLID_2389_" class="st2" d="M279.7,84.7c-1.1-4.4-6.2-20.2-22.5-13.4c-18.8,7.9-9.6,92.9-0.9,99.4
				c8.5,6.5,32.1,45.5,24.1-77.5"/>
			<path id="XMLID_2388_" class="st2" d="M272.2,168.5c0,0,1.2,2.5-0.7,3.6"/>
			<path id="XMLID_2387_" class="st2" d="M278.3,128.1c0,0,0.3,2.3,0,3.3"/>
			<path id="XMLID_2386_" class="st2" d="M254,144c0,0,1-4.3,0-4.3"/>
			<path id="XMLID_2385_" class="st2" d="M259.4,75.9c0,0-3.1,1.5-4,3"/>
		</g>
		<path id="XMLID_2384_" class="st2" d="M283.6,186.4c0,0-3.8-2.2-5.1-4.7"/>
		<path id="XMLID_2383_" class="st2" d="M289.6,102.4c0,0-3.8-2.2-5.1-4.7"/>
	</g>
	<g>
		<path class="st1" d="M195.2,177.9c5.9,6.3,15.2,8.9,21.8,10c2.3,0.5,4.8,0.7,7.4,0.7c0.1,0,0.2,0,0.2,0l0,0c2.8,0,5.9-0.4,9.1-1.2
			c12.9-2.9,21.7-11.2,26.7-21.3c-0.6-8.5-6-11.5-11.2-12.9c-0.2-1-0.4-1.9-0.7-2.7c2.3,0.3,4.7-0.2,7.1-1.9c9.4-6.8,8.3-9.4,8.7-12
			c0,0,0,0,0,0c0.4-2.6-2-6.9-2-6.9l0,0c-2.8-7.3-7.5-13.7-14.3-17.8c-5.2-8.4-13.7-14.5-25.4-15.6c-29.3-2.9-41.4,16.1-46,27.6
			c0,0-1,1.7-1.8,5.1c-0.6,2-0.7,3.7-0.6,4.5c-0.4,6.3,0.6,15.8,6.6,28.2 M232.5,141.2c-3.3-0.5-6.7,1.5-9.2,3.6
			c-0.3,0.2-0.5,0.5-0.8,0.7c-3,2.2-7.5,2.2-11.8,0.8c0.1-1.8,1.2-3.7,3.4-5.4c0,0,2.5-2.6,5.8-4.7c2.8,0.6,6,0.3,9.2-0.5
			c0.3,0.1,0.7,0.2,1,0.3c1.2,1,2.6,1.9,4,2.5c0.2,0.4,0.4,0.8,0.7,1.2c0.4,0.7,0.9,1.4,1.4,2.1
			C234.8,141.5,233.5,141.3,232.5,141.2z"/>
		<path id="XMLID_2382_" class="st1" d="M212.2,130.5c5.4,11.3,24.1,4.3,29.8-1.6"/>
		<path id="XMLID_2381_" class="st2" d="M212.2,130.5c5.4,11.3,24.1,4.3,29.8-1.6"/>
		<g>
			<g>
				<path id="XMLID_2380_" class="st2" d="M250.5,116.9c-4.7-10.8-14-19.2-28-20.6c-29.3-2.9-41.4,16.1-46,27.6c0,0-1,1.7-1.8,5.1
					c-0.6,2-0.7,3.7-0.6,4.5c-0.4,6.3,0.6,15.8,6.6,28.2c4.8,10.2,17.1,13.8,25.3,15.1c2.3,0.5,4.8,0.7,7.4,0.7c0.1,0,0.2,0,0.2,0
					l0,0c2.8,0,5.9-0.4,9.1-1.2c12.9-2.9,21.7-11.2,26.7-21.3c-0.8-11.7-10.8-13.1-16.9-14c-3.3-0.5-6.7,1.5-9.2,3.6
					c-0.3,0.2-0.5,0.5-0.8,0.7c-8.7,6.4-31.4-6.2-19.5-15.6c0,0,4.1-4.3,8.8-6.3h0c0,0,4-2,7.2-0.9c1.3,0.4,2.4,1.4,3.1,3.1
					c0,0.1,0.1,0.2,0.1,0.3c0.4,0.8,0.8,1.7,1.4,2.6c3.9,6.4,12.7,14.8,20.8,9c9.4-6.8,8.3-9.4,8.7-12c0,0,0,0,0,0"/>
				<line id="XMLID_2379_" class="st2" x1="185.4" y1="161" x2="187.4" y2="163.7"/>
				<path id="XMLID_2378_" class="st2" d="M241.2,158.1c0,0,1.2,2.5-0.7,3.6"/>
				<path id="XMLID_2377_" class="st2" d="M250.8,125.7c0,0-0.6,2.3-1.2,3.1"/>
				<path id="XMLID_2376_" class="st2" d="M197.4,129.3c0,0,1-4.3,0-4.3"/>
				<path id="XMLID_2375_" class="st2" d="M219.4,116.6c0,0,4,0.6,3.6,1.2"/>
				<path id="XMLID_2374_" class="st2" d="M214.9,173.3c0,0,4.7-0.7,5-1.6"/>
				<path id="XMLID_2373_" class="st2" d="M190.7,110.5c0,0-3.1,1.5-4,3"/>
				<line id="XMLID_2372_" class="st2" x1="237.2" y1="136.4" x2="240.4" y2="135.5"/>
			</g>
			<g>
				<path id="XMLID_2371_" class="st2" d="M223.6,128.7c3.9,6.4,12.7,14.8,20.8,9c9.4-6.8,8.3-9.4,8.7-12c0,0,0,0,0,0"/>
				<path id="XMLID_2370_" class="st2" d="M250.5,116.9c-4.7-10.8-14-19.2-28-20.6c-29.3-2.9-41.4,16.1-46,27.6c0,0-1,1.7-1.8,5.1
					c-0.6,2-0.7,3.7-0.6,4.5c-0.4,6.3,0.6,15.8,6.6,28.2c4.8,10.2,17.1,13.8,25.3,15.1c2.3,0.5,4.8,0.7,7.4,0.7c0.1,0,0.2,0,0.2,0
					l0,0c2.8,0,5.9-0.4,9.1-1.2c12.9-2.9,21.7-11.2,26.7-21.3c-0.8-11.7-10.8-13.1-16.9-14c-3.3-0.5-6.7,1.5-9.2,3.6
					c-0.3,0.2-0.5,0.5-0.8,0.7c-8.7,6.4-31.4-6.2-19.5-15.6c0,0,4.1-4.3,8.8-6.3h0c0,0,4-2,7.2-0.9c1.3,0.4,2.4,1.4,3.1,3.1"/>
				<line id="XMLID_1883_" class="st2" x1="185.4" y1="161" x2="187.4" y2="163.7"/>
				<path id="XMLID_1832_" class="st2" d="M241.2,158.1c0,0,1.2,2.5-0.7,3.6"/>
				<path id="XMLID_1831_" class="st2" d="M250.8,125.7c0,0-0.6,2.3-1.2,3.1"/>
				<path id="XMLID_1830_" class="st2" d="M197.4,129.3c0,0,1-4.3,0-4.3"/>
				<path id="XMLID_1829_" class="st2" d="M219.4,116.6c0,0,4,0.6,3.6,1.2"/>
				<path id="XMLID_1828_" class="st2" d="M214.9,173.3c0,0,4.7-0.7,5-1.6"/>
				<path id="XMLID_1827_" class="st2" d="M190.7,110.5c0,0-3.1,1.5-4,3"/>
				<line id="XMLID_1826_" class="st2" x1="237.2" y1="136.4" x2="240.4" y2="135.5"/>
			</g>
		</g>
		<path id="XMLID_1825_" class="st2" d="M210.6,138.4c0,0-3.8-2.2-5.1-4.7"/>
		<path id="XMLID_1824_" class="st2" d="M249.9,146.4c0,0-2.7-1.1-4.1-2.7"/>
		<path id="XMLID_1823_" class="st2" d="M210.2,183.5c0,0-4.3-0.9-6.4-2.7"/>
		<path id="XMLID_1822_" class="st2" d="M255.6,165.4c0,0-3.8-2.2-5.1-4.7"/>
		<path id="XMLID_1821_" class="st2" d="M256.6,128c0,0,1.5,0.9,2.6,2.1"/>
	</g>
	<g>
		<g id="XMLID_1810_">
			<path id="XMLID_1820_" class="st1" d="M60.3,105.4c0,0-3.9-19.2-22.8-12.4c-18.8,6.7-9.6,79.5-0.9,85.1S69.7,218.3,60.3,105.4z"
				/>
			<path id="XMLID_1819_" class="st1" d="M55.9,140.3c0,0,33-32.6,26.3,28.3c0,0,7.9,18.8,23.2,11s17.7-104.5-56.2-77.4"/>
			<line id="XMLID_1818_" class="st1" x1="45.4" y1="177.3" x2="48.5" y2="178.7"/>
			<path id="XMLID_1817_" class="st1" d="M101.7,169.2c0,0,1.2,2.5-0.7,3.6"/>
			<path id="XMLID_1816_" class="st1" d="M109,137.9c0,0-0.6,2.3-1.2,3.1"/>
			<path id="XMLID_1815_" class="st1" d="M56.6,157.3c0,0,1-4.3,0-4.3"/>
			<path id="XMLID_1814_" class="st1" d="M79.9,127.7c0,0,4,0.6,3.6,1.2"/>
			<path id="XMLID_1813_" class="st1" d="M40.6,148c0,0,4.7-0.7,5-1.6"/>
			<path id="XMLID_1812_" class="st1" d="M64.4,103.1c0,0-3.1,1.5-4,3"/>
			<line id="XMLID_1811_" class="st1" x1="36.2" y1="108.2" x2="39.4" y2="107.3"/>
		</g>
		<g>
			<path id="XMLID_1809_" class="st2" d="M29.9,170.5c10.4,8.9,27.5,21.6,19.4-76.1c0,0-3.9-19.2-22.8-12.4
				c-17.3,6.2-10.9,68.1-3,82.5"/>
			<path id="XMLID_1808_" class="st3" d="M44.9,129.3c0,0,33-32.6,26.3,28.3c0,0,7.9,18.8,23.2,11s17.7-104.5-56.2-77.4"/>
			<path id="XMLID_1807_" class="st2" d="M87.8,96.2c-10.1-9.7-25.9-13.6-49.5-5"/>
			<path id="XMLID_1806_" class="st4" d="M96.9,109.2c10.7,22.8,6.1,55-2.4,59.4c-15.3,7.9-23.2-11-23.2-11
				c6.7-60.9-26.3-28.3-26.3-28.3"/>
			<line id="XMLID_1794_" class="st2" x1="34.4" y1="166.3" x2="37.5" y2="167.7"/>
			<path id="XMLID_1793_" class="st2" d="M90.7,158.2c0,0,1.2,2.5-0.7,3.6"/>
			<path id="XMLID_1792_" class="st2" d="M98,126.9c0,0-0.6,2.3-1.2,3.1"/>
			<path id="XMLID_1791_" class="st2" d="M45.6,146.3c0,0,1-4.3,0-4.3"/>
			<path id="XMLID_1790_" class="st2" d="M68.9,116.7c0,0,4,0.6,3.6,1.2"/>
			<path id="XMLID_1789_" class="st2" d="M29.6,137c0,0,4.7-0.7,5-1.6"/>
			<path id="XMLID_1788_" class="st2" d="M53.4,92.1c0,0-3.1,1.5-4,3"/>
			<line id="XMLID_1787_" class="st2" x1="25.2" y1="97.2" x2="28.4" y2="96.3"/>
			<path class="st2" d="M44.4,128.9"/>
		</g>
		<path id="XMLID_1786_" class="st2" d="M94.9,104.4c0,0-1.6-3.3-3.5-4.5"/>
	</g>
	<g>
		<path class="st1" d="M108.9,96.2c2.2,0.9,5.1,1.1,8.9,0.3c27.8-6,4.7-26.1,4.7-26.1c-3.3-3.8-6.8-4.3-9.8-2.9
			c-1.3-0.9-2.2-1.4-2.2-1.4c-15.5-12.1-23.5,25.5-8,28"/>
		<path class="st1" d="M108.4,174.2c3.8,3.8,8.5,8,10.7,7.6c12.5-2.6,18.3-12.4,15.1-46.5c0,0,4.1-21.5-10.9-21.4"/>
		<g>
			<path id="XMLID_1785_" class="st2" d="M122.2,79.2c0.9,4.3-1.5,9.2-11.3,13.4c-26.2,11.2-18.2-40.4-0.4-26.5c0,0,3,1.7,5.9,4.4"
				/>
			<path id="XMLID_1784_" class="st2" d="M105.7,90.9c0,0,4.7-0.7,5-1.6"/>
			<path id="XMLID_1783_" class="st2" d="M103.2,68c0,0-3.1,1.5-4,3"/>
		</g>
		<path id="XMLID_1782_" class="st2" d="M120.8,73.6c0,0-1-0.6-1.2-1"/>
		<g>
			<g>
				<path class="st2" d="M109.1,102.8c-1.3,0.2-2.6,0.6-4.1,1.1c-18.7,6.3-13.7,45.8-4.6,60.8"/>
				<g>
					<g id="XMLID_1780_">
						<path id="XMLID_1781_" class="st2" d="M103.9,169c1.4,1.2,2.8,1.7,4.2,1.4c12.5-2.6,18.3-12.4,15.1-46.5"/>
					</g>
					<line id="XMLID_1779_" class="st2" x1="103.3" y1="162.7" x2="106.4" y2="164.1"/>
					<path id="XMLID_1778_" class="st2" d="M118.9,153c0,0,1.2,2.5-0.7,3.6"/>
					<path id="XMLID_1777_" class="st2" d="M99.8,116.8c0,0-0.6,2.3-1.2,3.1"/>
					<path id="XMLID_1776_" class="st2" d="M119.6,118.3c0,0,1-4.3,0-4.3"/>
					<path id="XMLID_1775_" class="st2" d="M108.9,106c0,0,4,0.6,3.6,1.2"/>
				</g>
			</g>
			<g>
				<g id="XMLID_1773_">
					<path id="XMLID_1774_" class="st2" d="M123.4,113.2c-1.1-6.8-5.3-13.4-18.4-9c-23.6,7.9-9.4,69.2,3.1,66.6s18.3-12.4,15.1-46.5
						"/>
				</g>
				<line id="XMLID_1772_" class="st2" x1="103.3" y1="163.1" x2="106.4" y2="164.4"/>
				<path id="XMLID_1771_" class="st2" d="M118.9,153.3c0,0,1.2,2.5-0.7,3.6"/>
				<path id="XMLID_1770_" class="st2" d="M99.8,117.1c0,0-0.6,2.3-1.2,3.1"/>
				<path id="XMLID_1768_" class="st2" d="M119.6,118.6c0,0,1-4.3,0-4.3"/>
				<path id="XMLID_1767_" class="st2" d="M108.9,106.3c0,0,4,0.6,3.6,1.2"/>
			</g>
		</g>
		<path id="XMLID_1766_" class="st2" d="M124.6,172.4c0,0-3.8-2.2-5.1-4.7"/>
	</g>
</g>
</svg>
