<?xml version="1.0" encoding="utf-8"?>
<!-- Generator: Adobe Illustrator 22.1.0, SVG Export Plug-In . SVG Version: 6.00 Build 0)  -->
<svg version="1.1" id="Layer_1" xmlns="http://www.w3.org/2000/svg" xmlns:xlink="http://www.w3.org/1999/xlink" x="0px" y="0px"
	 viewBox="0 0 145.7 80.9" style="enable-background:new 0 0 145.7 80.9;" xml:space="preserve">
<style type="text/css">
	.st0{fill:#FFD767;stroke:#584C4F;stroke-miterlimit:10;}
	.st1{fill:#FDF7E0;stroke:#584C4F;stroke-miterlimit:10;}
	.st2{fill:#584C4F;stroke:#584C4F;stroke-miterlimit:10;}
</style>
<g>
	<g>
		<g>
			<path class="st0" d="M145.2,40.5c-0.1-1.4-0.3-2.7-1.7-2.7c-0.3,0-1.6,0-1.9,0c-0.9-0.1-2.5,0.5-5,2c-6,3.6,0.7,6.7,0.7,6.7
				c1.3,1.1,2.5,1.4,3.5,1.3c0.2,0,1.3,0,1.7,0c2.1,0,3.1-2.2,1.2-3.8C140.9,41.9,145.4,42.9,145.2,40.5z"/>
			<g id="XMLID_14_">
				<path id="XMLID_15_" class="st1" d="M137.3,46.5c0,0-6.7-3.1-0.7-6.7s6.4-1.7,6.6,0.7c0.1,2.4-4.3,1.4-1.6,3.6
					C144.3,46.2,141.4,49.7,137.3,46.5z"/>
			</g>
		</g>
		<line id="XMLID_13_" class="st1" x1="139.1" y1="46.7" x2="139.8" y2="47"/>
		<path id="XMLID_12_" class="st1" d="M143,46.8c0,0,0.9-0.1,1-0.3"/>
		<path id="XMLID_11_" class="st1" d="M141.6,42.9c0,0,0.5,0,0.6-0.1"/>
	</g>
	<g>
		<path id="XMLID_10_" class="st1" d="M87.3,29.9c0,0-0.1,0.2,0.2,0.2c10.6,0.2,27.5,0,27.5,0c0.3,0,0.2-0.2,0.2-0.2
			c0.4-6,0-17.2,0-17.2s0.1-0.2-0.2-0.2c-16.5-0.5-27.7,0-27.7,0c-0.3,0-0.2,0.2-0.2,0.2S87.1,22.1,87.3,29.9z"/>
		<path id="XMLID_9_" class="st1" d="M90.4,15.9c0,0-0.1-0.5,0.3-0.5c0,0,7-0.6,15.5,0c0.4,0,0.3,0.5,0.3,0.5s0.1,6.3-0.1,10.7
			c0,0,0.1,0.5-0.3,0.5c0,0-6.6,0.4-15.3,0c-0.4,0-0.3-0.5-0.3-0.5L90.4,15.9z"/>
		<g>
			<path class="st1" d="M93.6,6.2c1.7,1.8,3.8,3.8,5.7,5.7c0.1-0.1,0.1-0.1,0.2-0.2C92.7,5,93.6,6.2,93.6,6.2z"/>
			<path class="st1" d="M105.2,6c-1.8,1.7-3.8,3.8-5.7,5.7c0.1,0.1,0.1,0.1,0.2,0.2C106.4,5.1,105.2,6,105.2,6z"/>
			<path class="st1" d="M99.5,11.7c-0.1,0.1-0.1,0.1-0.2,0.2c0.1,0.1,0.1,0.1,0.2,0.2c0.1-0.1,0.1-0.1,0.2-0.2
				C99.6,11.8,99.6,11.8,99.5,11.7z"/>
		</g>
	</g>
	<g>
		<g>
			<path class="st1" d="M74.3,51.1c0,0-0.3-0.6-1-0.6c0,0-27.2,0-28,0c-0.7-0.1-1,0.6-1,0.6s0,15.4,0.3,16c0,0,0.3,0.6,1,0.6
				c0,0,4.1,0,9.2,0.1c0,0,0-0.1,0.1-0.1c0.1-0.1,4.4-4.4,4.4-4.4c0.1-0.1,0.3,0,0.3,0c0.5,0.5,4.3,4.4,4.3,4.4s0,0.1,0,0.1
				c4.5,0,8.3,0,9.1-0.1c0.7-0.1,1-0.6,1-0.6S74.5,52.8,74.3,51.1z"/>
			<path class="st1" d="M59.5,63.2c0,0-0.2-0.1-0.3,0c0,0-4.2,4.3-4.4,4.4c0,0-0.1,0.1-0.1,0.1c2.9,0,6.2,0,9.1,0c0-0.1,0-0.1,0-0.1
				S60,63.7,59.5,63.2z"/>
		</g>
		<g>
			<path class="st1" d="M56.4,59.1c0-0.1,0-0.1,0-0.2c0-0.3,0-0.5-0.1-0.8c-0.1-0.3-0.2-0.6-0.3-0.9c0,0,0,0-0.1-0.1
				c-0.2-0.5-0.4-0.9-0.8-1.2c-0.3-0.4-0.7-0.6-1.2-0.8c-0.2-0.1-0.5-0.3-0.7-0.4c0,0-0.2,0-0.5,0c-0.3-0.1-0.6-0.1-0.9-0.1
				c-0.1,0-0.1,0-0.2,0c-0.3,0-0.5,0-0.8,0.1c-0.3,0.1-0.6,0.2-0.9,0.3c0,0,0,0-0.1,0.1c-0.5,0.2-0.9,0.4-1.2,0.8
				c-0.4,0.3-0.6,0.7-0.8,1.2c-0.1,0.2-0.3,0.5-0.4,0.7c0,0,0,0.2,0,0.5c-0.1,0.3-0.1,0.6-0.1,0.9c0,0.1,0,0.1,0,0.2
				c0,0.3,0,0.5,0.1,0.8c0.1,0.3,0.2,0.6,0.3,0.9c0,0,0,0,0.1,0.1c0.2,0.5,0.4,0.9,0.8,1.2c0.3,0.4,0.7,0.6,1.2,0.8
				c0.2,0.1,0.5,0.3,0.7,0.4c0,0,0.2,0,0.5,0c0.3,0.1,0.6,0.1,0.9,0.1c0.1,0,0.1,0,0.2,0c0.3,0,0.5,0,0.8-0.1
				c0.3-0.1,0.6-0.2,0.9-0.3c0,0,0,0,0.1-0.1c0.5-0.2,0.9-0.4,1.2-0.8c0.4-0.3,0.6-0.7,0.8-1.2c0.1-0.2,0.3-0.5,0.4-0.7
				c0,0,0-0.2,0-0.5C56.4,59.7,56.4,59.4,56.4,59.1z"/>
			<path class="st1" d="M71.4,59.1c0-0.1,0-0.1,0-0.2c0-0.3,0-0.5-0.1-0.8c-0.1-0.3-0.2-0.6-0.3-0.9c0,0,0,0-0.1-0.1
				c-0.2-0.5-0.4-0.9-0.8-1.2c-0.3-0.4-0.7-0.6-1.2-0.8c-0.2-0.1-0.5-0.3-0.7-0.4c0,0-0.2,0-0.5,0c-0.3-0.1-0.6-0.1-0.9-0.1
				c-0.1,0-0.1,0-0.2,0c-0.3,0-0.5,0-0.8,0.1c-0.3,0.1-0.6,0.2-0.9,0.3c0,0,0,0-0.1,0.1c-0.5,0.2-0.9,0.4-1.2,0.8
				c-0.4,0.3-0.6,0.7-0.8,1.2c-0.1,0.2-0.3,0.5-0.4,0.7c0,0,0,0.2,0,0.5c-0.1,0.3-0.1,0.6-0.1,0.9c0,0.1,0,0.1,0,0.2
				c0,0.3,0,0.5,0.1,0.8c0.1,0.3,0.2,0.6,0.3,0.9c0,0,0,0,0.1,0.1c0.2,0.5,0.4,0.9,0.8,1.2c0.3,0.4,0.7,0.6,1.2,0.8
				c0.2,0.1,0.5,0.3,0.7,0.4c0,0,0.2,0,0.5,0c0.3,0.1,0.6,0.1,0.9,0.1c0.1,0,0.1,0,0.2,0c0.3,0,0.5,0,0.8-0.1
				c0.3-0.1,0.6-0.2,0.9-0.3c0,0,0,0,0.1-0.1c0.5-0.2,0.9-0.4,1.2-0.8c0.4-0.3,0.6-0.7,0.8-1.2c0.1-0.2,0.3-0.5,0.4-0.7
				c0,0,0-0.2,0-0.5C71.4,59.7,71.5,59.4,71.4,59.1z"/>
		</g>
	</g>
	<path id="XMLID_8_" class="st1" d="M50.1,4.9c0,0-0.2-0.1-0.2,0.2c-0.2,11.2,0,29.1,0,29.1c0,0.3,0.2,0.2,0.2,0.2
		c6.4,0.5,18.2,0,18.2,0s0.2,0.1,0.2-0.2c0.5-17.5,0-29.3,0-29.3c0-0.3-0.2-0.2-0.2-0.2S58.4,4.6,50.1,4.9z"/>
	<g>
		<path class="st1" d="M108.4,71.8c-0.7-4-1.8-5.7-3.2-6.5c0,0-8.3-3.1-10.5,4.7c-0.2,0.6-0.3,1.2-0.4,1.8H108.4z"/>
		<path class="st1" d="M114.3,47c0,0,0.1-0.3-0.2-0.3c-15.4-0.6-25.8,0-25.8,0c-0.3,0-0.2,0.3-0.2,0.3s0,8.7,0.1,17.9h26.3L114.3,47
			z"/>
		<path class="st1" d="M88.5,69.1c9.9,0.2,25.7,0,25.7,0c0.3,0,0.2-0.2,0.2-0.2c0.1-0.8,0.1-1.7,0.1-2.7v-1.6H88.2
			c0,1.4,0.1,2.9,0.1,4.3C88.2,68.9,88.2,69.1,88.5,69.1z"/>
		<path class="st1" d="M111,49.8c0,0,0.1-0.2-0.2-0.2c-11.3-0.4-18.9,0-18.9,0c-0.2,0-0.2,0.2-0.2,0.2s0,5.7,0.1,11.7h19.3L111,49.8
			z"/>
	</g>
	<path class="st0" d="M81.6,44c0,0,0.1-2.8-0.1-5c0.3-5,0.2-22.2,0.1-31c0,0,0.4-9.8-1.4-7c-0.7,1.1-0.9,4.9-0.9,9.2
		c0,4.3-0.1,17.9,0.1,26.7c0,0-0.1,2.8,0.1,5c-0.3,5-0.2,22.2-0.1,31c0,0-0.4,9.8,1.4,7c0.6-0.9,0.9-4,0.9-7.7
		C81.7,67.6,81.7,52.8,81.6,44z"/>
	<path class="st0" d="M41.6,44c0,0,0.1-2.8-0.1-5c0.3-5,0.2-22.2,0.1-31c0,0,0.4-9.8-1.4-7c-0.7,1.1-0.9,4.9-0.9,9.2
		c0,4.3-0.1,17.9,0.1,26.7c0,0-0.1,2.8,0.1,5c-0.3,5-0.2,22.2-0.1,31c0,0-0.4,9.8,1.4,7c0.6-0.9,0.9-4,0.9-7.7
		C41.7,67.6,41.7,52.8,41.6,44z"/>
	<path class="st0" d="M119.9,40.2c-0.9-0.6-4-0.9-7.7-0.9c-4.6-0.1-19.4-0.1-28.2,0c0,0-2.8-0.1-5,0.1c-3.5-0.2-13.3-0.2-21.7-0.2
		c-3.8,0-7.7,0-11,0.1c-0.7,0-1.5,0-2.3,0c-0.5,0-3-0.1-4.9,0.1c-5-0.3-22.2-0.2-31-0.1c0,0-9.8-0.4-7,1.4c1.1,0.7,4.9,0.9,9.2,0.9
		s17.9,0.1,26.7-0.1c0,0,2.8,0.1,5-0.1c3.9,0.2,15.1,0.2,24,0.1c3,0,6,0,8.7-0.1c0.7,0,1.5,0,2.4,0c0.5,0,3,0.1,4.9-0.1
		c5,0.3,22.2,0.2,31,0.1C112.9,41.6,122.7,42,119.9,40.2z"/>
	<g>
		<path id="XMLID_7_" class="st1" d="M24.2,3.7c0,0,0.4-0.1,0.4,0.6c0,0,0.4,12.9,0,28.8c0,0.7-0.4,0.6-0.4,0.6s-4.8,0.1-8.2-0.3
			c0,0-0.4,0.1-0.4-0.6c0,0-0.3-12.3,0-28.2c0-0.7,0.4-0.6,0.4-0.6L24.2,3.7z"/>
		<path id="XMLID_6_" class="st1" d="M25.2,9.9c0,0-10.9-4-13.9,6.2s6.2,12.3,7.4,12.3c1.2-0.1,11.9-1,11-7.8
			C28.8,13.8,27.2,11.1,25.2,9.9z"/>
		<path id="XMLID_5_" class="st1" d="M15.4,13.1c0,0-5.7,6.4,0.6,11.2s10.1-0.9,10.4-1.8c0.3-0.9,2.5-8.4-2.4-9.6S16.8,12,15.4,13.1
			z"/>
	</g>
	<path id="XMLID_4_" class="st1" d="M51.9,7.6c0,0-0.1-1.1,0.3-1.1c0,0,6.3-1.3,14,0c0.4,0.1,0.3,1.1,0.3,1.1s0.1,13.9-0.1,23.6
		c0,0,0.1,1.1-0.3,1.1c0,0-6,0.9-13.8,0c-0.4,0-0.3-1.1-0.3-1.1L51.9,7.6z"/>
	<path class="st2" d="M53,5.3c0.8,2.8,3,2.5,3,2.5s4.5,0,6,0c1.5,0,2.3-2.3,2.3-2.3l0.2-0.4L53,5.3z"/>
</g>
<g>
	<path id="XMLID_3_" class="st1" d="M4.5,68.8c0,0-0.1,0.2,0.2,0.2c11.2,0.2,29.1,0,29.1,0c0.3,0,0.2-0.2,0.2-0.2
		c0.5-6.4,0-18.2,0-18.2s0.1-0.2-0.2-0.2c-17.5-0.5-29.3,0-29.3,0c-0.3,0-0.2,0.2-0.2,0.2S4.3,60.6,4.5,68.8z"/>
	<path id="XMLID_2_" class="st1" d="M6.5,52.9c0,0-0.1-0.6,0.4-0.6c0,0,9.5-0.7,21.1,0c0.5,0,0.4,0.6,0.4,0.6s0.1,8-0.2,13.6
		c0,0,0.1,0.6-0.4,0.6c0,0-9,0.5-20.7,0c-0.5,0-0.4-0.6-0.4-0.6L6.5,52.9z"/>
	<path id="XMLID_1_" class="st1" d="M30.6,59.2c0,0-0.5,1.2,0.7,1.6s1.4-0.7,1.4-0.9c0-0.1-0.1-1.4-0.9-1.3
		C31.1,58.8,30.7,59,30.6,59.2z"/>
</g>
</svg>
