<?xml version="1.0" encoding="utf-8"?>
<!-- Generator: Adobe Illustrator 22.1.0, SVG Export Plug-In . SVG Version: 6.00 Build 0)  -->
<svg version="1.1" id="Layer_1" xmlns="http://www.w3.org/2000/svg" xmlns:xlink="http://www.w3.org/1999/xlink" x="0px" y="0px"
	 viewBox="0 0 2227.8 1015.6" style="enable-background:new 0 0 2227.8 1015.6;" xml:space="preserve">
<style type="text/css">
	.st0{opacity:0.1;}
	.st1{fill:#231F20;stroke:#231F20;stroke-miterlimit:10;}
	.st2{fill:#A36B78;stroke:#584C4F;stroke-width:4;stroke-linecap:round;stroke-miterlimit:10;}
	.st3{fill:#B66C7E;stroke:#584C4F;stroke-width:4;stroke-miterlimit:10;}
	.st4{fill:#FFFAF2;stroke:#584C4F;stroke-width:2;stroke-miterlimit:10;}
</style>
<g id="Layer_5">
</g>
<g id="Layer_3">
</g>
<g>
	<g class="st0">
		<path id="XMLID_6257_" class="st1" d="M1241.2-1551.5c-12.4,304.4-51.4,826.5-29.2,967.5c31,196.7,0,1133.4,0,1133.4l151.7,12.9
			c0,0-28.6-530.4-10.3-891.5c10.1-199.3,22.9-582.9,37.5-895.2"/>
		<path class="st1" d="M1234.9,508.8c-13.4,5.2-27.3,14.8-40.4,31.4c-1.3,0.4-2.5,0.9-3.8,1.6c-19.1,10.6-55.6,81.7-55.6,81.7
			c-0.3,0.7-0.2,1.5,0,2.2c-19.2,11.7-54.9,81.3-54.9,81.3c-2.2,5.3,10.4,10.4,23,15.6c8.6,3.6,31.3-27.4,48.2-49.8
			c0,18.7,4.1,53.8,0.9,58.4c-11.4,16.4-18.1,83.5-19.9,104.3c-2.7,1.3-5.3,3.3-7.3,6.2c-13.6,19.6-20.4,110.6-20.4,110.6
			c0,6.5,13.7,6.5,27.3,6.5c13.7,0,27.3-91,34.1-104c1.8-3.3,0.8-7-1.7-10.4c11.8-17.5,23-88.7,29-100.1c0.5-1,9.7-1.7,14.8-1.7
			c3.9,0,8.4,4,7.2,6.5c-9.1,19-2.1,87.2,0.3,108.3c-2.7,2-5.1,4.5-6.7,7.9c-10.8,22.5,1,114.6,1,114.6c1.4,6.4,16.3,3.3,31.2,0.1
			c14.9-3.1,10.5-96.8,15.2-111.3c1.2-3.7-0.6-7.2-4.1-10c9.2-20.3,6.4-93.6,10.5-106.3c0.7-2.2,19.2,1.5,18.5,4.9
			c-3.7,18.9,18.3,77.5,25.3,95.3c-1.9,2.3-3.4,5.1-4.1,8.5c-4.4,22.5,27.4,100.7,27.4,100.7c2.7,5.4,15.2-1,27.7-7.3
			c12.5-6.4-13-87.8-12.2-101.7c0.3-3.5-2.1-6.2-5.9-7.8c3.5-19.8-15.6-82.9-15.2-95.7c12.1-1.1,23-3.9,32.3-9.5
			c-0.4,26.6,4.9,65.9,4.9,65.9c0.1,0.7,0.5,1.2,1,1.6c-6.8,17.7,2.4,85.6,2.4,85.6c1,4.9,11.3,2.7,21.6,0.5s6-72.6,9.1-83.5
			c1.2-4.4-2.7-8.5-8.3-10.7c4.8-18.4,2.4-67.7,4.9-76.6c1.5-5.3-2.7-46.2-2.7-72.9c0-57.5-15.5-91.2-33.7-111"/>
		<path class="st1" d="M1355.8,538.6c-2.3-2.4-4.6-4.7-6.9-6.7"/>
		<path id="XMLID_6256_" class="st1" d="M1331.2,553.9c122.2-6.2,0-88.4,0-88.4"/>
		<path class="st1" d="M1226.9,940.6c0,0,10.2-0.1,10.2,15.2S1227,966,1216.8,966s-5.1-15.2-5.1-15.2
			C1216.8,935.5,1226.9,940.6,1226.9,940.6z"/>
		<path class="st1" d="M1127.3,916.2c0,0,10.2-0.1,10.2,15.2s-10.1,10.2-20.3,10.2s-5.1-15.2-5.1-15.2
			C1117.2,911.1,1127.3,916.2,1127.3,916.2z"/>
		<path class="st1" d="M1387.6,851.1c0,0,10.2,0,10.2,15.2c0,15.3-10.1,10.2-20.3,10.2s-5.1-15.2-5.1-15.2
			C1377.4,846.1,1387.6,851.1,1387.6,851.1z"/>
		<path class="st1" d="M1341.5,919c0,0,12.2,0,12.2,18.3s-12.3,12.2-24.5,12.2s-6.1-18.3-6.1-18.3
			C1329.2,912.9,1341.5,919,1341.5,919z"/>
		<path class="st1" d="M1094.7,688.4c0,0,10.1,0,10.1,15.1s-10,10.1-20.1,10.1c-10,0-5-15.1-5-15.1
			C1084.7,683.4,1094.7,688.4,1094.7,688.4z"/>
		<path id="XMLID_6255_" class="st1" d="M1365.1,713.5c-3.2-30.4-22.1,1.2-22.1,1.2"/>
		<path id="XMLID_6254_" class="st1" d="M1314,711.6c-3.2-30.4-22.1,1.2-22.1,1.2"/>
		<path id="XMLID_6253_" class="st1" d="M1259.4,713.5c-3.2-30.4-22.1,1.2-22.1,1.2"/>
		<path id="XMLID_6252_" class="st1" d="M1208.3,711.6c-3.2-30.4-22.1,1.2-22.1,1.2"/>
		<path id="XMLID_6251_" class="st1" d="M1153.7,615.5c-48.5-22.9-18.3,34.1-18.3,34.1"/>
		<path id="XMLID_6250_" class="st1" d="M1161.7,827.4c-1.1-11.2-4.4-14-8.1-13.1"/>
		<path id="XMLID_6249_" class="st1" d="M1243.1,843.1c-5.4-2.8-9.9-4.9-13.6-6.4"/>
		<path id="XMLID_6248_" class="st1" d="M1332.6,835.5"/>
		<path id="XMLID_6247_" class="st1" d="M1331.3,828.5c-1.6-5.4-4.1-6.8-6.9-6.1"/>
		<path id="XMLID_6246_" class="st1" d="M1379.2,796"/>
		<path id="XMLID_6245_" class="st1" d="M1380.8,787.8c-1.4-1.6-4.7-1.2-7.6-0.4"/>
	</g>
	<g>
		<path id="XMLID_6244_" class="st2" d="M1219.9-1529.5c-12.4,304.4-51.4,826.5-29.2,967.5c31,196.7,0,1133.4,0,1133.4l151.7,12.9
			c0,0-28.6-530.4-10.3-891.5c10.1-199.3,22.9-582.9,37.5-895.2"/>
		<path class="st2" d="M1213.6,530.8c-13.4,5.2-27.3,14.8-40.4,31.4c-1.3,0.4-2.5,0.9-3.8,1.6c-19.1,10.6-55.6,81.7-55.6,81.7
			c-0.3,0.7-0.2,1.5,0,2.2c-19.2,11.7-54.9,81.3-54.9,81.3c-2.2,5.3,10.4,10.4,23,15.6c8.6,3.6,31.3-27.4,48.2-49.8
			c0,18.7,4.1,53.8,0.9,58.4c-11.4,16.4-18.1,83.5-19.9,104.3c-2.7,1.3-5.3,3.3-7.3,6.2c-13.6,19.6-20.4,110.6-20.4,110.6
			c0,6.5,13.7,6.5,27.3,6.5c13.7,0,27.3-91,34.1-104c1.8-3.3,0.8-7-1.7-10.4c11.8-17.5,23-88.7,29-100.1c0.5-1,9.7-1.7,14.8-1.7
			c3.9,0,8.4,4,7.2,6.5c-9.1,19-2.1,87.2,0.3,108.3c-2.7,2-5.1,4.5-6.7,7.9c-10.8,22.5,1,114.6,1,114.6c1.4,6.4,16.3,3.3,31.2,0.1
			c14.9-3.1,10.5-96.8,15.2-111.3c1.2-3.7-0.6-7.2-4.1-10c9.2-20.3,6.4-93.6,10.5-106.3c0.7-2.2,19.2,1.5,18.5,4.9
			c-3.7,18.9,18.3,77.5,25.3,95.3c-1.9,2.3-3.4,5.1-4.1,8.5c-4.4,22.5,27.4,100.7,27.4,100.7c2.7,5.4,15.2-1,27.7-7.3
			c12.5-6.4-13-87.8-12.2-101.7c0.3-3.5-2.1-6.2-5.9-7.8c3.5-19.8-15.6-82.9-15.2-95.7c12.1-1.1,23-3.9,32.3-9.5
			c-0.4,26.6,4.9,65.9,4.9,65.9c0.1,0.7,0.5,1.2,1,1.6c-6.8,17.7,2.4,85.6,2.4,85.6c1,4.9,11.3,2.7,21.6,0.5s6-72.6,9.1-83.5
			c1.2-4.4-2.7-8.5-8.3-10.7c4.8-18.4,2.4-67.7,4.9-76.6c1.5-5.3-2.7-46.2-2.7-72.9c0-57.5-15.5-91.2-33.7-111"/>
		<path class="st2" d="M1334.5,560.6c-2.3-2.4-4.6-4.7-6.9-6.7"/>
		<path id="XMLID_6243_" class="st2" d="M1309.9,575.9c122.2-6.2,0-88.4,0-88.4"/>
		<path class="st3" d="M1207.3,975.5c0,0,10.2-0.5,10.9,14.7s-9.7,10.6-19.8,11.1s-5.8-15-5.8-15
			C1196.9,970.9,1207.3,975.5,1207.3,975.5z"/>
		<path class="st3" d="M1104,949.2c0,0,10.2-0.1,10.2,15.2s-10.1,10.2-20.3,10.2s-5.1-15.2-5.1-15.2
			C1093.8,944.1,1104,949.2,1104,949.2z"/>
		<path class="st3" d="M1364.2,890.1c0,0,10.2,0,10.2,15.2c0,15.3-10.1,10.2-20.3,10.2c-10.2,0-5.1-15.2-5.1-15.2
			C1354.1,885.1,1364.2,890.1,1364.2,890.1z"/>
		<path class="st3" d="M1318.8,949.5c0,0,11.8-3.3,16.8,14.3c5,17.7-8.4,15.2-20.2,18.5c-11.8,3.3-10.9-16-10.9-16
			C1305.4,947,1318.8,949.5,1318.8,949.5z"/>
		<path class="st3" d="M1082.9,713.9c0,0,9.7,2.8,5.4,17.3c-4.3,14.5-12.5,6.8-22.2,4s-0.6-15.9-0.6-15.9
			C1074.6,706.2,1082.9,713.9,1082.9,713.9z"/>
		<path id="XMLID_6242_" class="st2" d="M1343.8,735.5c-3.2-30.4-22.1,1.2-22.1,1.2"/>
		<path id="XMLID_6241_" class="st2" d="M1292.7,733.6c-3.2-30.4-22.1,1.2-22.1,1.2"/>
		<path id="XMLID_6240_" class="st2" d="M1238.1,735.5c-3.2-30.4-22.1,1.2-22.1,1.2"/>
		<path id="XMLID_6239_" class="st2" d="M1186.9,733.6c-3.2-30.4-22.1,1.2-22.1,1.2"/>
		<path id="XMLID_6238_" class="st2" d="M1132.3,637.5c-48.5-22.9-18.3,34.1-18.3,34.1"/>
		<path id="XMLID_6237_" class="st2" d="M1140.4,849.4c-1.1-11.2-4.4-14-8.1-13.1"/>
		<path id="XMLID_6236_" class="st2" d="M1221.8,865.1c-5.4-2.8-9.9-4.9-13.6-6.4"/>
		<path id="XMLID_6235_" class="st2" d="M1311.2,857.5"/>
		<path id="XMLID_6234_" class="st2" d="M1310,850.5c-1.6-5.4-4.1-6.8-6.9-6.1"/>
		<path id="XMLID_5343_" class="st2" d="M1357.8,818"/>
		<path id="XMLID_5340_" class="st2" d="M1359.5,809.8c-1.4-1.6-4.7-1.2-7.6-0.4"/>
		<path id="XMLID_6866_" class="st2" d="M1113.9,938.7c-8.6-7.3-12.9-7-14.9-3.8"/>
		<path id="XMLID_6865_" class="st2" d="M1214.5,961.6c-6.1-0.2-11-0.1-15,0.2"/>
		<path id="XMLID_6864_" class="st2" d="M1316.2,941.2c-5-2.7-7.7-1.9-9.2,0.5"/>
		<path id="XMLID_6863_" class="st2" d="M1364.5,881.8c-1.4-1.6-4.7-1.2-7.6-0.4"/>
	</g>
	<path id="XMLID_6277_" class="st4" d="M1312.5,794.5c-0.1-1.5-0.9-7.3-1.3-8.8c-0.6-2.4-2.3-4.2-5.1-3.9
		c-0.9,0.1-42.1,4.9-45.7,6.6c-4.8,2.4-5.9,5-5.4,7.3c0,0.2,1.1,7.8,1.2,8c0.6,1.8,2.1,3.3,3.2,4.3c0.8,0.7,2.1,1.3,2.6,1.3
		c3.6,0.1,43.8-5.5,44.8-5.7C1310.8,802.7,1312.7,798.2,1312.5,794.5z"/>
	<path id="XMLID_6275_" class="st4" d="M1307.2,784.3c1,0.4,0.6,1.8,0.6,1.8"/>
	<path id="XMLID_6274_" class="st4" d="M1260.6,806.1c0.5,0.7,2.2,1.2,2.2,1.2"/>
</g>
</svg>
