<?xml version="1.0" encoding="utf-8"?>
<!-- Generator: Adobe Illustrator 22.1.0, SVG Export Plug-In . SVG Version: 6.00 Build 0)  -->
<svg version="1.1" id="Layer_1" xmlns="http://www.w3.org/2000/svg" xmlns:xlink="http://www.w3.org/1999/xlink" x="0px" y="0px"
	 viewBox="0 0 347.2 675.2" style="enable-background:new 0 0 347.2 675.2;" xml:space="preserve">
<style type="text/css">
	.st0{fill:#A36B78;stroke:#584C4F;stroke-width:2;stroke-linecap:round;stroke-miterlimit:10;}
	.st1{fill:#A36B78;stroke:#584C4F;stroke-width:2;stroke-linecap:round;stroke-linejoin:round;stroke-miterlimit:10;}
	.st2{fill:#FFD767;stroke:#584C4F;stroke-width:2;stroke-miterlimit:10;}
	.st3{fill:#A36B78;}
	.st4{fill:none;stroke:#584C4F;stroke-width:2;stroke-linecap:round;stroke-miterlimit:10;}
	.st5{fill:#BEAB72;}
	.st6{fill:#584C4F;stroke:#584C4F;stroke-width:2;stroke-linecap:round;stroke-miterlimit:10;}
	.st7{opacity:0.1;fill:#231F20;stroke:#231F20;stroke-miterlimit:10;enable-background:new    ;}
	.st8{fill:#FFFFFF;stroke:#584C4F;stroke-width:2;stroke-linecap:round;stroke-miterlimit:10;}
</style>
<g id="Layer_5">
</g>
<g id="Layer_3">
</g>
<g>
	<path class="st0" d="M286.4,664.7c0,1.2,0.3,2.4,1.4,3.4c0.2,0.2,0.5,0.5,0.9,0.8c1.1,0.9,3.1,1.5,5.4,2c1.8,0.3,3.9,0.6,6.2,0.8
		c1.4,0.1,2.9,0.2,4.5,0.3c1.2,0.1,2.5,0.1,3.7,0.2c1.2-0.1,2.5-0.1,3.7-0.2c1.6-0.1,3.1-0.2,4.6-0.3c2.3-0.1,4.3-0.5,6.1-0.8
		c2.4-0.5,4.2-1.1,5.4-2c0.4-0.2,0.6-0.5,0.9-0.8c0.8-0.8,1.2-1.6,1.3-2.5c-8.9-3.7-16.3-10-18.2-20.8c-1-1-1.7-1.6-1.7-1.6
		s-0.2-0.3-0.6-0.7c0-0.1-0.1-0.2-0.2-0.3c0,0,0-0.2,0-0.2c-0.2-0.5-0.2-1.3-0.4-2.4l-0.9,0l-0.9,0l-15.2,1.3
		c-0.1,3.9-0.1,6.4-0.1,6.9c0,0,0,0.1,0,0.1s0.1,0,0.1,0c-0.8,3.4-1.9,6.1-2.9,8.5c-1,2.5-2,4.5-2.6,6.3
		C286.7,663.4,286.5,664.1,286.4,664.7z"/>
	<path class="st0" d="M294.5,552.7c-48.3,1.9-116.4,4.4-120.8,7.1l-6.5-28.1c0,0,57.8,3.6,102.4,3.4c5.2-0.1,10.1-0.2,14.5-0.2h0
		c3.9-0.1,7.1-0.1,9.5,0c4.4,0.1,6.7,0.5,7.4,1.1c2.1,0.2,4.7,0.4,7.6,0.6c-0.1,4.8-0.2,10.1-0.3,15.7c-0.2,38.4,1.5,91.8,1.5,91.8
		l-16.9,1.5C293.1,645.4,296,592.5,294.5,552.7z"/>
	<g>
		<g id="XMLID_11251_">
			<path id="XMLID_11252_" class="st0" d="M340.3,671.6c-2.2-4.9,3.9-4.3,3.9-4.3C349.2,670.7,342.5,676.4,340.3,671.6z"/>
		</g>
		<g id="XMLID_11249_">
			<path id="XMLID_11250_" class="st0" d="M336.4,671.4c-2.4-5.4,4.3-4.8,4.3-4.8C346.3,670.4,338.8,676.8,336.4,671.4z"/>
		</g>
		<g id="XMLID_11247_">
			<path id="XMLID_11248_" class="st0" d="M331.4,671c-2.8-6.3,5-5.5,5-5.5C343,669.9,334.3,677.3,331.4,671z"/>
		</g>
		<g id="XMLID_11245_">
			<path id="XMLID_11246_" class="st0" d="M325.3,670.7c-3.2-7.2,5.7-6.3,5.7-6.3C338.5,669.4,328.5,677.9,325.3,670.7z"/>
		</g>
		<path id="XMLID_11244_" class="st0" d="M311.9,670.3c0.7-2.9,9.4-10,14.3-3.1s-5.7,6.2-5.7,6.2S311.2,673.3,311.9,670.3z"/>
	</g>
	<path id="XMLID_11243_" class="st0" d="M297.5,538c0-1.9,2.3-2,2.3-2"/>
	<path id="XMLID_11242_" class="st0" d="M306.2,551.1c-0.1,0.7-2.9,1.5-2.9,1.5"/>
	<g id="XMLID_11240_">
		<path id="XMLID_11241_" class="st0" d="M309.4,639.5c9,1.1,3.9,13.2-2.2,8.2"/>
	</g>
	<g id="XMLID_11238_">
		<path id="XMLID_11239_" class="st0" d="M306.7,539.6c8.6-2.5,8.8,10.5,1.2,8.5"/>
	</g>
</g>
<g>
	<g>
		<g id="XMLID_101_">
			<path id="XMLID_102_" class="st0" d="M199.6,457.1c8.7-2.5,8.8,10.6,1.2,8.5"/>
		</g>
		<path id="XMLID_100_" class="st0" d="M189.5,333.9c-1.4,34-5.7,92.1-3.2,107.9c3.4,22,0,126.4,0,126.4l16.9,1.5
			c0,0-3.2-59.1-1.2-99.4c1.2-22.2,2.6-65,4.2-99.8"/>
		<g id="XMLID_98_">
			<path id="XMLID_99_" class="st0" d="M201.7,566.4c3.3-1.2,4.1,12.1,4.1,12.1s1.9,42.2-1.7,24.3c-3.6-18-5.2-16.1-3.6,5.4
				c1.7,21.5-7.4-22-8.8-15.2c-1.3,6.9-5.8,50.9-5.8-4.1c0,0,4.1-25.6-6.4,14.5c-10.5,40.1,2.2-25.2,3.1-28.5
				c0.8-3.4-12.9,19.5-9.1,10.1c3.8-9.4,5.8-11.8,12.8-19"/>
		</g>
		<path id="XMLID_97_" class="st0" d="M192.8,458.8c0.2-0.6,3-1.2,3-1.2"/>
		<path id="XMLID_96_" class="st0" d="M198.9,462.9c-0.5,1.8-2.8,1.4-2.8,1.4"/>
		<path id="XMLID_95_" class="st1" d="M199.6,564.2c13.6-0.7,0-9.8,0-9.8"/>
	</g>
	<path id="XMLID_94_" class="st2" d="M184.1,333.3c9.1,2.4,16.8,5.2,18.7,8c5.6,8.1,12.2,98-1.4,98.5c-13.7,0.5-15.6-0.1-15.3-5
		c0.3-4.9-6-61.3-3.8-65.6"/>
	<path class="st0" d="M92.6,538.6c0,0,0.1,0,0.2,0c0.5,4.2,1.9,8.5,4.4,13c0,0,1.3,15.2,51.4,14.5c30.7-0.5,50.1-15.5,53.2-32.5
		l0.1,0c0.1-0.1,0.1-0.5,0.1-0.8c0.2-1,0.2-2.1,0.2-3.2c0.8-11.2,1.3-40.6,1.3-40.6L92.6,493C90.7,501.9,92.6,538.6,92.6,538.6z"/>
	<g>
		<path class="st2" d="M101.6,519.8c2.3-0.5,5.2-1.1,8.4-1.5l77.2-4c4,0,9.4,1.2,9.4,1.2c4.3,2.3,7.1,1.4,8.7-1.4
			c0.1-0.1,0.1-0.2,0.2-0.3c4.1-7.9,0.2-29.4-2.9-37.8c-0.2-0.5-0.4-1.2-0.6-2c-3.8-15.6-3.8-74.4-2.3-110.6
			c0.1-3.9,0.1-7.4-0.1-10.4c-1.4-26.8-28.8-27.1-46.6-27.9c-18.8-0.8-32.6,2.9-39.2,8.5c-3.5,1.1-8.8,3.1-13,6.2
			c-3.1,2.3-5.6,5.3-6.4,9c-0.1,0.5-0.1,0.9-0.2,1.3c-1.5,13.2-4.4,93.7-5.9,101c-0.2,1.4-1,5.9-1.9,11.9c-0.1,0.8-0.2,1.5-0.3,2.2
			C82.8,490.2,79.4,536.4,101.6,519.8z"/>
		<path class="st2" d="M196.6,515.5c4.3,2.4,7.1,1.5,8.6-1.3c0.1-0.1,0.2-0.2,0.2-0.3c4.1-8,0.2-29.4-3-37.9c-0.2-0.5-0.4-1.2-0.6-2
			c-3.8-15.6-3.8-74.4-2.4-110.6c0.1-0.9,0.1-1.8,0.1-2.6"/>
		<path class="st2" d="M198.7,346.9c-4.9-20.9-29.4-21.2-45.8-21.9c-18.8-0.8-32.6,2.9-39.2,8.5c-3.5,1.1-8.8,3.1-13,6.2
			c-3.1,2.3-5.6,5.3-6.4,9c-0.1,0.5-0.1,0.9-0.2,1.3c-1.5,13.2-4.4,93.7-5.9,101c-0.2,1.4-1,5.9-1.9,11.9c-0.1,0.8-0.2,1.5-0.3,2.2
			c-3.3,24.8-6.8,71,15.6,54.5c2.3-0.5,5.2-1.1,8.4-1.5l77.1-4"/>
	</g>
	<path id="XMLID_93_" class="st0" d="M96.3,514.9c3.6-13.7-5.1-107.3-5.1-107.3"/>
	<g>
		<path id="XMLID_92_" class="st3" d="M134.6,332.8c9.5,21.2,33.7,8.3,33.8-8c0-2.9,0.1-14.1,0.2-17.5c0.1-2.6,0.5-17.7-3-25.5
			c-11.2-25-42.7-2.6-31.3,16.8c-0.6,2.1-1.1,4.6-1.2,7.5c-0.2,3.2-1.3,13.2-1.1,16.6"/>
		<path id="XMLID_91_" class="st4" d="M136.3,336c-0.6-0.9-1.1-2-1.6-3.1l-2.8-10c-0.2-3.5,0.9-13.4,1.1-16.6c0.2-3,0.6-5.5,1.2-7.6
			c-11.4-19.4,20-41.8,31.3-16.8c3.5,7.8,3.1,22.9,3,25.5c-0.1,3.4-0.1,14.6-0.1,17.5c-0.1,13.8-17.4,25.1-28.4,15.5"/>
	</g>
	<g>
		<g id="XMLID_89_">
			<path id="XMLID_90_" class="st0" d="M97.1,465.8c-8.9-1.1-3.9-13.2,2.2-8.2"/>
		</g>
		<path id="XMLID_88_" class="st0" d="M109.3,356.5c1.8,32.8,4.1,72.6,2.1,85.2c-3.4,22,0,126.3,0,126.3l-16.9,1.5
			c0,0,3.2-59.1,1.1-99.4c-0.9-18.4-2.1-51-3.4-81.5"/>
		<path id="XMLID_87_" class="st0" d="M100.1,459.9c0-1.9,2.3-2,2.3-2"/>
		<path id="XMLID_86_" class="st0" d="M105.9,462.8c-0.2,0.6-2.9,1.5-2.9,1.5"/>
		<g id="XMLID_73_">
			<path id="XMLID_85_" class="st3" d="M111.5,567.2l-16.2-3.8c0,0-21.4,35-14.1,35.1c3.9,0.1,5.3-0.9,5.9-1.9
				c-0.5,3.3-0.8,9.3,4.8,6.5l0.1-1.5c1.2,2.1,5.4,8.3,8.9,2l1.1-0.5c2.5,2.1,7.8,5.3,6.9-5.5c1.4,0.1,3.5,0,6.4-0.8
				C130.1,593.1,111.5,567.2,111.5,567.2z"/>
			<path id="XMLID_84_" class="st0" d="M95.2,563.4c0,0-21.4,35-14.1,35.1c3.9,0.1,5.3-0.9,5.9-1.9c-0.5,3.3-0.8,9.3,4.8,6.5
				l0.1-1.5c1.2,2.1,5.4,8.3,8.9,2l1.1-0.5c2.5,2.1,7.8,5.3,6.9-5.5c1.4,0.1,3.5,0,6.4-0.8c14.8-3.8-3.8-29.7-3.8-29.7"/>
			<g id="XMLID_77_">
				<g id="XMLID_79_">
					<path id="XMLID_83_" class="st1" d="M91.9,603.1c-7.5,3.9-4.4-8.4-4.4-8.4c-0.2,0.3,1.1,3.9-6.2,3.8
						c-7.3-0.2,14.1-35.1,14.1-35.1"/>
					<path id="XMLID_82_" class="st1" d="M101.1,603.1c-4.1,8.3-9.4-2.2-9.4-2.2"/>
					<path id="XMLID_81_" class="st1" d="M112.1,590.6c-4.2-0.4-11.6,10,3.2,6.2s-3.8-29.7-3.8-29.7"/>
					<path id="XMLID_80_" class="st1" d="M108.3,588.4l0.5,8c1.7,15.8-8.1,5.5-8.1,5.5"/>
				</g>
				<path id="XMLID_78_" class="st1" d="M97.9,551.5c-10,0.8,0,10.9,0,10.9"/>
			</g>
			<path id="XMLID_76_" class="st0" d="M101.1,595.3c0.8-2.7,0.4-7.5,0.4-7.5"/>
			<path id="XMLID_75_" class="st0" d="M92.8,597.2c0.7,0,0.9-3.5,0.9-3.5"/>
			<path id="XMLID_74_" class="st1" d="M89.2,586.6c0,0,2.9-4.7,3.6-7"/>
		</g>
	</g>
	<path id="XMLID_72_" class="st2" d="M115.2,336.2c-9.1,2.4-16.8,5.2-18.7,8c-5.6,8.1-12.2,97.9,1.4,98.5c13.7,0.5,15.6-0.1,15.3-5
		c-0.3-4.9,6-61.3,3.8-65.5"/>
	<g>
		<path class="st5" d="M122.1,373.5c0.3,6.9,4,7.2,12.1,6.1c8.1-1.1,3.7-16.4,2.8-21.1c-0.9-4.8-14.6,0.4-14.6,0.4
			S121.8,366.6,122.1,373.5z"/>
		<g>
			<path id="XMLID_71_" class="st0" d="M122.1,362.1c-0.9-1.5,0.8-2.9,0.8-2.9"/>
			<path id="XMLID_70_" class="st0" d="M138.6,360.9c-0.8-1.2-3.2-2.4-3.2-2.4"/>
			<path id="XMLID_69_" class="st0" d="M122.2,366.3c-0.4,1.4,0.3,4,0.3,4"/>
			<path id="XMLID_68_" class="st0" d="M132.1,379.5c1.4,0.3,3.9-0.8,3.9-0.8"/>
			<path id="XMLID_67_" class="st0" d="M126.8,378.1c-1.7,0.6-2.6-1.4-2.6-1.4"/>
			<path id="XMLID_66_" class="st0" d="M139.1,368.3c-0.5-0.6-0.9-2.4-0.9-2.4"/>
			<line id="XMLID_65_" class="st4" x1="131" y1="357.9" x2="128.3" y2="358"/>
			<path id="XMLID_64_" class="st0" d="M139.1,377c0.5-1.3-0.1-4-0.1-4"/>
		</g>
		<g>
			<path id="XMLID_63_" class="st0" d="M169.6,542.6c1.2,1.7-0.4,4.6-0.4,4.6"/>
			<path id="XMLID_62_" class="st0" d="M167.6,538.2c-0.3-1.4-2.2-3.3-2.2-3.3"/>
			<path id="XMLID_61_" class="st0" d="M164.6,555.5c1.1-0.9,1.9-3.5,1.9-3.5"/>
		</g>
	</g>
	<g id="XMLID_5_">
		<g id="XMLID_57_">
			<path id="XMLID_60_" class="st0" d="M189.2,263.8c0,0,0.1,5.4,6.6,7.9c6.5,2.5,11.4-17,11-35.1c-0.5-18.1-18,5.1-18,5.1"/>
			<path id="XMLID_59_" class="st0" d="M203.1,237.2c-1.7-5-8.6,5.6-8.6,5.6"/>
			<path id="XMLID_58_" class="st0" d="M193.7,256.6c1.8,6.4,5.4,2.5,6.8-3.2c1.5-5.9-8.6-3.2-8.6-3.2"/>
		</g>
		<path id="XMLID_56_" class="st6" d="M134.7,168.6c8.2-2.6,1.6-8.4,1.6-8.4C129.1,157.2,126.5,171.2,134.7,168.6z"/>
		<path id="XMLID_55_" class="st0" d="M189,287.7c-3.2,16.5-19.4,38.1-49.1,31.9s-27.7-17.7-35-79.6s45.2-65.7,45.2-65.7
			C215.9,182.4,192.3,271.2,189,287.7z"/>
		<path class="st7" d="M105,240c7.3,61.9,5.3,73.2,34.9,79.5c20.9,4.5,35.1-5.1,42.8-16.9c-7.8,5-18,7.4-30.6,4.6
			c-29.6-6.2-27.6-17.6-34.9-79.5c-2.4-20.5,1.7-34.6,8.3-44.4C113.1,191.9,101.3,208.4,105,240z"/>
		<path id="XMLID_54_" class="st2" d="M107.4,206.6c0,0,18.5-8.8,38.1-16.7c15.5,3.8,32.4,5.3,32.4,4c-0.1-13.5-3.9-49.2-41.5-32.2
			c-8.8,2.7-18.3,8-24.2,17.2c-0.5,0.8-0.9,1.4-1.3,2.1l0,0c0,0-0.1,0-0.1,0.1c-1.8,3.3-2.7,5.9-2.9,7.9
			C106.1,195.1,107.4,206.6,107.4,206.6z"/>
		<path id="XMLID_53_" class="st0" d="M134.1,248c12.1,4.3,21.4-2.7,21.4-2.7"/>
		<path id="XMLID_52_" class="st0" d="M196.8,247.4c-3.2,1.4-18.3-1.9-18.3-1.9"/>
		<path id="XMLID_51_" class="st0" d="M142.9,316.7c-2.6,4.8,5.9,8.2,18.8,5.7c12.9-2.5,6.7-8.3,6.7-8.3"/>
		<path id="XMLID_50_" class="st2" d="M200.9,192.1c0,0,6.1-8.8-16.9-10.3c-23.1-1.4-68.7-1.3-76.2,24.7c0,0,12.2-5.5,35.8-10.7
			c23.6-5.1,43.7,3,43.7,3C197.5,196.4,200.9,192.1,200.9,192.1z"/>
		<path id="XMLID_49_" class="st0" d="M107.7,206.5c0,0,9.1-23.6,64.2-21.2s15.3,13.5,15.3,13.5
			C158.7,184.5,107.7,206.5,107.7,206.5z"/>
		<g>
			<path id="XMLID_48_" class="st0" d="M168.1,231.6c0.3,6.5-9.1,18.3-9.1,18.3"/>
			<g id="XMLID_45_">
				<path id="XMLID_47_" class="st0" d="M167.6,256.2c0.4,0.2,0.9,0.5,1.6,0.6c0.8,0.2,1.8,0.2,2.8,0.1c2-0.4,3-2.6,3.4-5.7"/>
				<path id="XMLID_46_" class="st0" d="M174.4,246.6c-2.1-13.6-9.2-32.9-9.2-32.9"/>
			</g>
			<g id="XMLID_39_">
				<path id="XMLID_44_" class="st0" d="M174.5,263.2c11.2-2.3,4.2-10.4,4.2-10.4"/>
				<path id="XMLID_43_" class="st0" d="M162.6,263.2c-10.4-4.2-3.1-10.4-3.1-10.4"/>
				<path id="XMLID_42_" class="st0" d="M163,259.6c-1.5-0.4-2.9,0.1-1.7-1.8c1.2-1.9,2.8,0.3,3.8,0
					C166.1,257.5,164.5,260,163,259.6z"/>
				<path id="XMLID_41_" class="st0" d="M174.4,258.8c1.1-0.6,2.3-1.2,2.8-0.9c1.1,0.9,0.6,2.6-1.5,2.7
					C175.7,260.6,173.5,259.4,174.4,258.8z"/>
				<path id="XMLID_40_" class="st0" d="M165.4,249.3c0.5-0.8,2.7-0.7,2.7-0.7"/>
			</g>
			<path id="XMLID_38_" class="st0" d="M190.7,261.5c-1.8-0.6-7.8-3.7-7.8-3.7"/>
			<path id="XMLID_37_" class="st0" d="M147.4,259.5c0.7,0,7.8-3.4,7.8-3.4"/>
		</g>
		<path id="XMLID_36_" class="st0" d="M125.5,228.7c-1.6-0.9-0.6-3-0.6-3"/>
		<path id="XMLID_35_" class="st0" d="M131.5,249.3c-0.6-0.7-1-2.5-1-2.5"/>
		<path id="XMLID_34_" class="st0" d="M129.9,206.7c-0.8,0,0,3.5,0,3.5"/>
		<path id="XMLID_33_" class="st0" d="M178,199.4c-0.4-0.6,2.9-1,2.9-1"/>
		<path id="XMLID_32_" class="st0" d="M156.6,203.3c0.2,0.8,4.1,1.3,4.1,1.3"/>
		<path id="XMLID_31_" class="st0" d="M176.5,300.1c0.2-0.6,3-1.2,3-1.2"/>
		<path id="XMLID_30_" class="st0" d="M159.5,302.5c-0.8-1.2-3.3-2.4-3.3-2.4"/>
		<path id="XMLID_29_" class="st0" d="M182.2,238.4"/>
		<path id="XMLID_28_" class="st0" d="M163.9,240.6"/>
		<line id="XMLID_27_" class="st4" x1="135" y1="260.3" x2="137.7" y2="261"/>
		<path id="XMLID_26_" class="st0" d="M113.8,270.3c0,0,0.3,5.3-5.9,8.3s-12.8-16-13.9-34.1c-1.1-18,18.4,3.6,18.4,3.6"/>
		<path id="XMLID_25_" class="st0" d="M97.8,245c1.3-5.2,9,4.8,9,4.8"/>
		<path id="XMLID_24_" class="st0" d="M108.7,263.5c-1.2,6.6-5.1,3-7.1-2.6s8.3-3.9,8.3-3.9"/>
		<g>
			<path id="XMLID_23_" class="st8" d="M171.9,232c-12.9-28.8,22.8-25.4,22.8-25.4C224.7,226.7,184.8,260.8,171.9,232z"/>
			<path id="XMLID_22_" class="st6" d="M188.3,224.9c-0.6-5.6,4.8-3.4,4.8-3.4C196.7,226.3,188.9,230.5,188.3,224.9z"/>
			<path id="XMLID_21_" class="st8" d="M148.4,244.3c32.7-10.6,6.4-33.7,6.4-33.7C126.3,198.9,115.7,254.9,148.4,244.3z"/>
			<path id="XMLID_20_" class="st6" d="M131.9,228.2c-0.6-5.6,4.8-3.4,4.8-3.4C140.4,229.5,132.5,233.7,131.9,228.2z"/>
			<path id="XMLID_19_" class="st6" d="M131.9,213.2c-0.9,3,15.7,11.2,24.3,2.7s-3.4-9.9-3.4-9.9
				C134.4,205.1,132.8,210.2,131.9,213.2z"/>
			<path id="XMLID_18_" class="st6" d="M172.8,205.6c1.2,4.4,16.5,15,25.1,4.7c8.6-10.4-10-9.3-10-9.3S171.6,201.2,172.8,205.6z"/>
			<g id="XMLID_15_">
				<path id="XMLID_17_" class="st0" d="M138.2,245.2c0.7,0.2,1.4,0.4,2.1,0.4c6.4,0.4,16.9-5.2,16.9-5.2
					c-7.1-1.9-19.2-1.1-19.2-1.1l-5.6,0.4c0,0-5.1,0.7-2.9,3.2c0.9,1,1.9,0.9,2.8,0.6c0.2,0,0.4-0.1,0.7-0.2
					C134.1,243,137.8,244.9,138.2,245.2z"/>
				<path id="XMLID_16_" class="st0" d="M196.6,237.5c0,0,5.1,0.7,2.9,3.1c-2.2,2.4-3.1,0.1-7.2,1.4c-12.6,3.8-16.4-4.6-16.4-4.6
					c7.8-2.4,14.9-1.1,14.9-1.1L196.6,237.5z"/>
			</g>
		</g>
		<g id="XMLID_10_">
			<path id="XMLID_14_" class="st6" d="M190.9,286.8c10.7-7-8.5-9.5-8.5-9.5S180.2,293.8,190.9,286.8z"/>
			<path id="XMLID_13_" class="st6" d="M172.4,275.4c1.1,3.5,14.1,11.9,21.4,3.7c7.3-8.2-8.6-7.4-8.6-7.4S171.4,271.9,172.4,275.4z"
				/>
			<path id="XMLID_12_" class="st6" d="M144.5,288.3c0.8,2.8,14.2,4.5,15.5-5.3c1.3-9.8-6.4-7.2-6.4-7.2
				C142.4,280.8,143.7,285.5,144.5,288.3z"/>
			<path id="XMLID_11_" class="st6" d="M160.5,281.2c22.2-10.8-0.3-8-0.3-8C134.5,276.6,138.3,292,160.5,281.2z"/>
		</g>
		<g id="XMLID_6_">
			<path id="XMLID_9_" class="st0" d="M162,286.8c6.5,11.6,18.3,0,18.3,0"/>
			<path id="XMLID_8_" class="st0" d="M171.9,284.9c2.4-3.4,5.6,0,5.6,0"/>
			<path id="XMLID_7_" class="st0" d="M171.9,284.9c-2.4-3.4-5.7,0-5.7,0"/>
		</g>
	</g>
	<path id="XMLID_4_" class="st0" d="M134.9,341.1c0.8,1.2,1.6,1.9,2.4,2.2"/>
	<path id="XMLID_3_" class="st0" d="M168,338.5c0.8-1,1-2.1,1-2.1"/>
	<path id="XMLID_2_" class="st0" d="M161.1,346.2c0.4-0.1,0.7-0.2,0.9-0.4"/>
	<path id="XMLID_1_" class="st2" d="M190.6,381.3c-4.4,13.5-1.7,107.4-1.7,107.4"/>
</g>
<g>
	<path class="st0" d="M238.4,663.7c-0.1,1.2,0.3,2.4,1.4,3.4c0.2,0.2,0.6,0.5,0.9,0.8c1.2,0.9,3.1,1.5,5.4,2
		c1.8,0.3,3.8,0.6,6.1,0.8c1.5,0.1,3,0.2,4.6,0.3c1.2,0.1,2.5,0.1,3.7,0.2c1.2-0.1,2.5-0.1,3.7-0.2c1.6-0.1,3.1-0.2,4.6-0.3
		c2.3-0.1,4.3-0.5,6.1-0.8c2.4-0.5,4.2-1.1,5.4-2c0.4-0.2,0.6-0.5,0.9-0.8c0.8-0.8,1.2-1.6,1.3-2.5c-8.9-3.7-16.3-10-18.2-20.8
		c-1-1-1.7-1.6-1.7-1.6s-0.2-0.3-0.6-0.7c0-0.1-0.1-0.2-0.2-0.3c0,0,0-0.2,0-0.2c-0.2-0.5-0.2-1.3-0.4-2.4l-0.9,0l-0.9,0l-15.2,1.3
		c-0.1,3.9-0.2,6.4-0.2,6.9c0,0,0,0.1,0,0.1s0.1,0,0.2,0c-0.9,3.4-1.9,6.1-2.9,8.5c-1,2.5-2,4.5-2.6,6.3
		C238.7,662.4,238.5,663.1,238.4,663.7z"/>
	<path class="st0" d="M246.5,551.7c-48.3,1.9-116.4,4.4-120.8,7.1l-6.5-28.1c0,0,57.8,3.6,102.4,3.4c5.2-0.1,10.1-0.2,14.5-0.2h0
		c3.9-0.1,7.1-0.1,9.5,0c4.4,0.1,6.7,0.5,7.4,1.1c2.1,0.2,4.7,0.4,7.6,0.6c-0.1,4.8-0.2,10.1-0.3,15.7c-0.2,38.4,1.5,91.8,1.5,91.8
		l-16.9,1.5C245.1,644.4,248,591.5,246.5,551.7z"/>
	<g>
		<g id="XMLID_11266_">
			<path id="XMLID_11267_" class="st0" d="M292.3,670.6c-2.2-4.9,3.9-4.3,3.9-4.3C301.2,669.7,294.5,675.4,292.3,670.6z"/>
		</g>
		<g id="XMLID_11264_">
			<path id="XMLID_11265_" class="st0" d="M288.4,670.4c-2.4-5.4,4.3-4.8,4.3-4.8C298.3,669.4,290.8,675.8,288.4,670.4z"/>
		</g>
		<g id="XMLID_11262_">
			<path id="XMLID_11263_" class="st0" d="M283.4,670c-2.8-6.3,5-5.5,5-5.5C295,668.9,286.3,676.3,283.4,670z"/>
		</g>
		<g id="XMLID_11260_">
			<path id="XMLID_11261_" class="st0" d="M277.3,669.7c-3.2-7.2,5.7-6.3,5.7-6.3C290.5,668.4,280.5,676.9,277.3,669.7z"/>
		</g>
		<path id="XMLID_11259_" class="st0" d="M263.9,669.3c0.7-2.9,9.4-10,14.3-3.1s-5.7,6.2-5.7,6.2S263.2,672.3,263.9,669.3z"/>
	</g>
	<path id="XMLID_11258_" class="st0" d="M249.5,537c0-1.9,2.3-2,2.3-2"/>
	<path id="XMLID_11257_" class="st0" d="M258.2,550.1c-0.1,0.7-2.9,1.5-2.9,1.5"/>
	<g id="XMLID_11255_">
		<path id="XMLID_11256_" class="st0" d="M261.4,638.5c9,1.1,3.9,13.2-2.2,8.2"/>
	</g>
	<g id="XMLID_11253_">
		<path id="XMLID_11254_" class="st0" d="M258.7,538.6c8.6-2.5,8.8,10.5,1.2,8.5"/>
	</g>
</g>
</svg>
