<?xml version="1.0" encoding="utf-8"?>
<!-- Generator: Adobe Illustrator 22.1.0, SVG Export Plug-In . SVG Version: 6.00 Build 0)  -->
<svg version="1.1" id="Layer_1" xmlns="http://www.w3.org/2000/svg" xmlns:xlink="http://www.w3.org/1999/xlink" x="0px" y="0px"
	 viewBox="0 0 1280 720" style="enable-background:new 0 0 1280 720;" xml:space="preserve">
<style type="text/css">
	.st0{fill:#F7C872;stroke:#5B5B4B;stroke-miterlimit:10;}
</style>
<path class="st0" d="M1311.4-105.4c0.2,1.1,0.7,2.3,1.5,3.5c0.2,0.3,1.9,0.2,1.7-0.1c-1.3-2-1.7-3.9-1.3-5.9c0.8-1.3,1.5-2.6,2-4
	c0-0.1-0.1-0.1-0.3-0.1c4-6,13.8-11.8,22.9-17.2c13.2-7.8,28.7-16.5,25.2-25.7c-3-8-20.5-14.1-41.8-18.1c-5.9-2.6-14.5-4.9-22.6-6.4
	c-50-9.7-108.2-16.3-165.3-20.4c-29.4-2.1-59.2-3.5-89.3-4.3c-0.5,0-1,0-1.5,0c-25.2-3.6-51.2-6.4-78.7-8.4
	c-43.4-3.2-87.8-5.2-131.8-7.4c-89.3-4.4-178.9-8.2-268.8-11.3c-90.5-3.1-181.6-6.1-272.6-7c-81.4-0.8-165.6,1-241,11.5
	c-61.1,8.6-116.7,22.7-145.8,42c-35.2,23.3-24.7,50.5,2.5,74.1c10.7,9.2,23.8,18.2,37.9,27C-70.4-72.3-83.1-55.1-75.4-36
	c7.8,19.3,30.2,18.3,45.7,9.6c5.8-3.2,11-7.4,15.4-12.3c3.8,3.1,7.4,6.4,10.8,9.9C10.3-14.7,19,2.5,20.3,22.4
	c2.5,36.5-14.8,71.8-7.9,108.4c2.7,14.4,9.5,28.4,21.7,37.1c11.8,8.5,27.1,10.8,41.2,8.5c32.7-5.4,53.1-34.1,59.2-65
	c2.9-14.7,1.3-29.6,3.1-44.4c1.8-15.1,8.9-32.4,27.4-27.6c10.3,2.7,20.3,7.7,30.1,11.7c10.3,4.1,20.6,8.3,30.9,12.4
	c20.3,8.2,40.7,16.3,61,24.4c9.2,3.7,19.2,7.7,23.8,17.2c4,8.3,3.5,17.8,4.5,26.7c1.5,12.9,4.6,26.8,12.6,37.3
	c7.3,9.5,19.5,14.1,31.1,9.9c12.8-4.6,20.9-17.6,25.9-29.5c6.1-14.4,8.3-30.1,16.1-43.8c3.9-6.9,9.3-13,16.6-16.4
	c7.8-3.6,16.5-3.6,24.9-4.2c7-0.5,14.6-1.3,20.5-5.5c5.9-4.1,8.7-10.7,10.7-17.4c2.5-8.5,4.6-16.6,9.5-24.1
	c4.8-7.3,11.3-13.6,18.7-18.3c7-4.4,14.7-7.2,22.9-8.4c-8.1,27.7,17.7,54.4,44,58.4c23.1,3.6,44.3-6.4,62.4-20.2
	c13.8,1.7,27,10.6,36.5,20.8c15.6,16.8,21.9,39.6,30.7,60.2c8.4,19.8,19.9,37.8,38.8,49c17.7,10.6,38.5,14.6,58.9,15.7
	c10.8,0.6,21.7,0.3,32.5-0.5c11-0.8,22.7-1.5,32.7-6.6c13.9-7,21-21.8,26.7-35.5c5.7-13.8,10.1-30.1,21.2-40.7
	c5.9-5.7,14-8.9,22.3-8.2c11.9,1,22.2,9.1,28.8,18.7c7,10.2,10,22.6,12.6,34.5c2.6,11.9,4.9,23.7,9.2,35.1
	c7.6,20,20.6,39.1,40.4,48.7c17.7,8.6,39.4,9.2,55.8-2.6c12.1-8.7,19.1-22.3,24.1-36c5.6-15.7,8.9-32.1,14.2-47.9
	c5-14.9,12.1-30.1,25.3-39.4c1.6-1.1,3.4-2.4,5.2-3c2.6-0.8,5.8-0.4,8.4,0.2c5.6,1.3,10.6,4.5,14.8,8.4c8.5,8.1,13.1,18.7,17.2,29.5
	c6.4,16.9,13.7,36.8,33.2,41.8c14.7,3.7,31.5-1.6,41.8-12.7c13.6-14.6,9.8-34.4,2.7-51.2c-4.5-10.8-10.2-21.2-13.3-32.6
	c-2.3-8.6-2.6-17.6-1-26.4c10.4-9,22.2-15.1,34.4-21.3c10.3-5.3,20.9-11.1,28.4-20.2c7.6-9.2,10.4-20.7,10.9-32.4
	c1.5-32-11.3-61.8-31.1-86.4C1301.7-95.8,1307.6-100.5,1311.4-105.4z"/>
</svg>
