<?xml version="1.0" encoding="utf-8"?>
<!-- Generator: Adobe Illustrator 22.1.0, SVG Export Plug-In . SVG Version: 6.00 Build 0)  -->
<svg version="1.1" id="Layer_1" xmlns="http://www.w3.org/2000/svg" xmlns:xlink="http://www.w3.org/1999/xlink" x="0px" y="0px"
	 viewBox="0 0 401 401" style="enable-background:new 0 0 401 401;" xml:space="preserve">
<style type="text/css">
	.st0{fill:#F6C771;stroke:#231F20;stroke-miterlimit:10;}
	.st1{fill:#FCF4E9;}
	.st2{fill:none;}
	.st3{fill:none;stroke:#221F1F;stroke-miterlimit:10;}
	.st4{fill:none;stroke:#221F1F;stroke-linecap:round;stroke-linejoin:round;stroke-miterlimit:10;}
	.st5{fill:#FCF4E9;stroke:#231F20;stroke-linecap:round;stroke-miterlimit:10;}
	.st6{fill:#5C5B4B;stroke:#5C5B4B;stroke-linecap:round;stroke-miterlimit:10;}
	.st7{fill:#484E45;stroke:#484E45;stroke-linecap:round;stroke-linejoin:round;stroke-miterlimit:10;}
	.st8{fill:none;stroke:#231F20;stroke-linecap:round;stroke-miterlimit:10;}
	.st9{fill:#F9D697;stroke:#231F20;stroke-miterlimit:10;}
	.st10{fill:#FCF4E9;stroke:#231F20;stroke-miterlimit:10;}
	.st11{fill:#FDF0DD;stroke:#231F20;stroke-miterlimit:10;}
	.st12{fill:#F9E8CB;stroke:#231F20;stroke-miterlimit:10;}
	.st13{fill:#F9E3BF;stroke:#231F20;stroke-miterlimit:10;}
	.st14{fill:#F9DEB1;stroke:#231F20;stroke-miterlimit:10;}
	.st15{fill:#F9DAA4;stroke:#231F20;stroke-miterlimit:10;}
	.st16{fill:none;stroke:#231F20;stroke-miterlimit:10;}
</style>
<g id="XMLID_1807_">
	<g id="XMLID_1809_">
		<g id="XMLID_1811_">
			<g id="XMLID_1815_">
				<g id="XMLID_1817_">
					<g id="XMLID_757_">
						<g id="XMLID_965_">
							<path id="XMLID_761_" class="st0" d="M121.2,279.9c0,0,13.5-9.1,0.7-15.5c-12.8-6.4-31.8,24.2-25.7,28.2
								C102.4,296.7,108.7,295,121.2,279.9z"/>
						</g>
						<g id="XMLID_758_">
							<path id="XMLID_760_" class="st0" d="M102.6,269.3c-0.2-2.7-0.3-5.5-0.5-8.5c0,0-2.2-12.8-13-8.3s-5.5,53.2-0.5,56.9
								c4.1,3.1,14,18.9,14.7-15.8"/>
							<path id="XMLID_963_" class="st0" d="M99.4,297.6c0,0,18-14.1,14.4,12.2c0,0,4.3,8.2,12.7,4.8c8.4-3.4,9.7-45.2-30.7-33.5"/>
						</g>
					</g>
					<g id="XMLID_958_">
						<path id="XMLID_960_" class="st0" d="M137.4,277.3c0,0-1.8-9-10.7-5.8s-4.5,37.2-0.4,39.9C130.4,314,141.8,330.2,137.4,277.3z
							"/>
						<path id="XMLID_756_" class="st0" d="M135.4,293.6c0,0,15.5-15.3,12.3,13.2c0,0,3.7,8.8,10.9,5.2s8.3-48.9-26.3-36.2"/>
					</g>
					<g id="XMLID_752_">
						<path id="XMLID_755_" class="st0" d="M181.3,277.1c0,0-4-2.8-5.7-0.6s-4.7,5.9-1.2,13.2c3.5,7.3,16.6,1.3,17.9-2.1"/>
						<path id="XMLID_753_" class="st0" d="M180.1,287.3c0.2,0.4,0.5,0.9,0.8,1.4c2.2,3.5,7,8.2,11.5,4.9c5.2-3.7,4.6-5.2,4.8-6.6
							c0,0,0,0,0,0c0.2-1.5-1.1-3.8-1.1-3.8l0,0c-2.4-6.5-7.7-11.5-15.8-12.4c-16.2-1.6-22.8,8.9-25.4,15.2c0,0-0.6,1-1,2.8
							c-0.3,1.1-0.4,2.1-0.3,2.5c-0.2,3.5,0.4,8.7,3.6,15.5c2.7,5.6,9.4,7.6,13.9,8.3c1.3,0.3,2.6,0.4,4.1,0.4c0.1,0,0.1,0,0.1,0
							l0,0c1.6,0,3.2-0.2,5-0.6c7.1-1.6,12-6.1,14.7-11.7c-0.4-6.4-6-7.2-9.3-7.7c-1.8-0.3-3.7,0.8-5.1,2c-0.1,0.1-0.3,0.2-0.4,0.4
							c-4.8,3.5-17.3-3.4-10.7-8.6c0,0,2.3-2.4,4.9-3.5h0c0,0,0.3-0.1,0.7-0.3"/>
					</g>
					<g id="XMLID_750_">
						<path id="XMLID_954_" class="st0" d="M229.7,283.7c0,0-0.8-14.9-10.9-10.5c-10.1,4.4-4.4,46.6,21.2,40.5
							c25.6-6.1,15.3-39.2,15.3-39.2s-10.7-9.5-12.5,6.9c0,0-0.6,11-5.6,11.9C232.2,294.1,229.2,286.4,229.7,283.7z"/>
						<g id="XMLID_952_">
							<path id="XMLID_751_" class="st0" d="M216.8,292.8c0,0-17.6,17.4-14.1-15.1c0,0-4.2-10.1-12.4-5.9c-8.2,4.2-9.5,55.9,30,41.4
								c0,0,10.6-4.1,13.5-6.2"/>
						</g>
					</g>
					<g id="XMLID_948_">
						<path id="XMLID_950_" class="st0" d="M276.2,277.1c0,0-4-2.8-5.7-0.6s-4.7,5.9-1.2,13.2s16.6,1.3,17.9-2.1"/>
						<path id="XMLID_748_" class="st0" d="M290.9,283.3L290.9,283.3c-2.4-6.5-7.7-11.5-15.8-12.4c-16.2-1.6-22.8,8.9-25.4,15.2
							c0,0-0.6,1-1,2.8c-0.3,1.1-0.4,2.1-0.3,2.5c-0.2,3.5,0.4,8.7,3.6,15.5c2.7,5.6,9.4,7.6,13.9,8.3c1.3,0.3,2.6,0.4,4.1,0.4
							c0.1,0,0.1,0,0.1,0l0,0c1.6,0,3.2-0.2,5-0.6c7.1-1.6,12-6.1,14.7-11.7c-0.4-6.4-6-7.2-9.3-7.7c-1.8-0.3-3.7,0.8-5.1,2
							c-0.1,0.1-0.3,0.2-0.4,0.4c-4.8,3.5-17.3-3.4-10.7-8.6c0,0,2.3-2.4,4.9-3.5h0c0,0,2.2-1.1,4-0.5c0.7,0.2,1.3,0.8,1.7,1.7
							c0,0,0,0.1,0.1,0.2c0.2,0.4,0.5,0.9,0.8,1.4c2.2,3.5,7,8.2,11.5,4.9c5.2-3.7,4.6-5.2,4.8-6.6c0,0,0,0,0,0
							C292.2,285.7,290.9,283.3,290.9,283.3z"/>
					</g>
					<g id="XMLID_743_">
						<path id="XMLID_747_" class="st0" d="M311,286.3c0,0,7.8-0.4,6.9-6.9c-0.7-5.2-22.4-14.6-31.3-3.3c-2.3,2.9-3.8,7.3-3.7,13.5
							c0,0,0,0.1,0,0.1c0.6,2.1,1.8,3.9,3.2,5.4c0.5,0.6,1.1,1.1,1.7,1.5c4,3.1,9.6,4.4,14.6,4.5c-0.7,2.8-4,4.4-14.7-0.8
							c0,0-7.8,0.4-6.9,6.9c0.7,5.2,22.5,14.6,31.4,3.3c2.3-2.9,3.8-7.3,3.7-13.5c0,0,0,0,0,0c-0.6-2.1-1.8-3.9-3.2-5.4
							c-0.5-0.6-1.1-1.1-1.7-1.5c-4-3.1-9.6-4.4-14.6-4.5C297,282.7,300.3,281.1,311,286.3z"/>
						<path id="XMLID_746_" class="st0" d="M301.1,294.4c0,0,7.5,16.1-13.6,5.8c0,0-7.8,0.4-6.9,6.9c0.9,6.5,35.3,19.8,35.1-10.2"/>
						<path id="XMLID_745_" class="st0" d="M296.3,288.7c-0.8-4.1,0.2-9.5,14.7-2.4c0,0,7.8-0.4,6.9-6.9
							c-0.9-6.5-35.3-19.8-35.1,10.2"/>
					</g>
					<g id="XMLID_942_">
						<path id="XMLID_1866_" class="st0" d="M321.2,283.2c0,0,7.4-24.8,0.9-31.1c0,0-14.9-14.3-15.3,12.6
							c-0.3,26.8-5.4,51.3,23.4,51.1c0,0,15.6-6.5,0-13.4C322.6,299,321.1,292,321.2,283.2"/>
						<path id="XMLID_943_" class="st0" d="M314.7,267.6c3.3-1.1,12.5-3.2,13.6,6.4c1.4,11.8-9.8,8.7-9.8,8.7"/>
					</g>
					<g id="XMLID_1857_">
						<path id="XMLID_1861_" class="st0" d="M131.9,275.9c0,0-1.2,0.6-1.9,2.7"/>
						<path id="XMLID_1860_" class="st0" d="M132.7,275.6c-1.3,0.6-2.8,0.6-3.2,0.5"/>
					</g>
					<g id="XMLID_1854_">
						<path id="XMLID_1856_" class="st0" d="M132.3,294.8c0,0,1.3,0.2,3.1-1.2"/>
						<path id="XMLID_1855_" class="st0" d="M131.5,294.6c1.4,0.2,2.7,1,3,1.4"/>
					</g>
					<g id="XMLID_1848_">
						<path id="XMLID_1852_" class="st0" d="M95.5,281.3c0,0-1.2,0.6-1.9,2.7"/>
						<path id="XMLID_1850_" class="st0" d="M96.3,281c-1.3,0.6-2.8,0.6-3.2,0.5"/>
					</g>
					<g id="XMLID_1842_">
						<path id="XMLID_1846_" class="st0" d="M96.8,298.4c0,0,1.3,0.1,3.1-1.2"/>
						<path id="XMLID_1844_" class="st0" d="M96,298.2c1.4,0.2,2.7,1,3,1.3"/>
					</g>
					<g id="XMLID_1835_">
						<path id="XMLID_1840_" class="st0" d="M102,273.2c0,0,0.9-1,0.7-3.2l-0.1-0.6"/>
						<path id="XMLID_1837_" class="st0" d="M101.3,273.7c1-1,2.3-1.7,2.8-1.7"/>
					</g>
					<g id="XMLID_1829_">
						<path id="XMLID_1831_" class="st0" d="M220,290.8c0,0-2.4,1-3.5,2.3"/>
						<path id="XMLID_1830_" class="st0" d="M217.8,289.6c-0.4,0.4-0.6,0.9-0.5,1.3c0.1,0.5,0,0.9,0,1.4"/>
					</g>
					<g id="XMLID_1826_">
						<path id="XMLID_1828_" class="st0" d="M311.8,268.1c0,0,2.1-0.1,3.6-0.7"/>
						<path id="XMLID_1827_" class="st0" d="M313.5,270c0.5-0.3,0.9-0.6,1-1.1c0.1-0.5,0.3-0.9,0.5-1.3"/>
					</g>
					<path id="XMLID_1824_" class="st0" d="M317.8,281.7c0,0,0,0.7,0.7,1"/>
					<g id="XMLID_1819_">
						<path id="XMLID_1822_" class="st0" d="M234.2,306.8c0,0,1-0.9,1.1-3.1"/>
						<path id="XMLID_1821_" class="st0" d="M233.8,307.1c1-0.7,2.2-1.2,2.6-1.1l0.5-0.1"/>
					</g>
				</g>
			</g>
			<path id="XMLID_1813_" class="st0" d="M301.8,296.1c0,0-0.5-0.9-2.7,0"/>
		</g>
	</g>
</g>
<path id="XMLID_31_" class="st0" d="M70.4,172.1C70.4,172.1,70.4,172.2,70.4,172.1C70.4,172.2,70.4,172.2,70.4,172.1
	c0,0.1,0.1,0.2,0.1,0.3c0,0,0,0,0,0c0.1,0.2,0.1,0.4,0.2,0.7c0,0,0,0,0,0c0.5,1.6,1.5,4.9,2,8.1c0,0,0,0,0,0c0,0.3,0.1,0.6,0.1,0.9
	c0,0,0,0,0,0l-1.1,7.6c0.1-0.1,0.1-0.2,0.2-0.4c0,0,0,0,0,0c-0.2,1.4-0.1,3.2,0.1,5.1c0,0,0,0,0,0.1c0,0.3,0.1,0.6,0.1,0.9
	c0,0,0,0,0,0.1c0.2,1.2,0.4,2.5,0.7,3.8c0,0.1,0.1,0.3,0.1,0.4c0,0.2,0.1,0.4,0.2,0.6c0,0.2,0.1,0.4,0.1,0.5c0,0.2,0.1,0.4,0.1,0.6
	c0.1,0.2,0.1,0.4,0.2,0.6c0,0.2,0.1,0.3,0.1,0.5c0.1,0.2,0.1,0.5,0.2,0.7c0,0.1,0.1,0.3,0.1,0.4c0.1,0.3,0.2,0.6,0.3,0.9
	c0,0,0,0.1,0,0.1c0.7,2.2,1.4,4.1,2.1,5.5c0,0.1,0.1,0.2,0.1,0.3c0.5,1.1,1,2.3,1.6,3.4c1.7,3.4,3.6,6.7,5.8,10
	c0.4,0.6,0.9,1.2,1.3,1.9c1.3,2.1,2.6,4.2,3.8,6c2.2,3.4,4.1,5.8,5,6.1c0.5,0.2,1.2,0.5,1.9,0.9c0.3,0.2,0.6,0.4,1,0.6
	c1.1,1,2.1,1.9,3.2,2.9c0.2,0.2,0.4,0.3,0.6,0.5c0.9,0.7,1.8,1.5,2.7,2.2c1.7,1.3,3.4,2.4,5.1,3.5c0.8,0.5,1.7,1,2.5,1.5
	c0.4,0.4,0.9,0.7,1.3,1.1c0.3,0.3,0.6,0.5,0.9,0.8c0.4,0.4,0.8,0.7,1.2,1.1c0.4,0.4,0.8,0.7,1.1,1.1c0.2,0.2,0.3,0.3,0.5,0.5
	c0.1,0.2,0.4,0.3,0.6,0.4c0.6,0.3,1.4,0.6,2.4,0.8c1.4,0.3,3.1,0.6,5.1,0.8c1.2,0.1,2.6,0.3,3.9,0.4c1.4,0.1,2.8,0.2,4.2,0.3
	c1.6,0.3,3.2,0.5,4.8,0.6c2.4,0.2,4.8,0.3,7.2,0.3s4.8-0.1,7.2-0.4c0.6,0,0.9,0,0.9,0l0.1-0.1c1-0.1,2-0.2,3-0.4c0.1,0,0.2,0,0.3,0
	c0.4-0.1,0.7-0.1,1.1-0.2c0.6-0.1,1.1-0.2,1.7-0.3c0.2,0,0.4-0.1,0.5-0.1c0.4-0.1,0.8-0.2,1.2-0.2c0.4-0.1,0.8-0.1,1.2-0.2
	c0.3-0.1,0.5-0.1,0.8-0.2c0.4-0.1,0.8-0.2,1.3-0.3c0.3-0.1,0.6-0.1,0.8-0.2c0.4-0.1,0.7-0.2,1.1-0.3c0.4-0.1,0.8-0.2,1.2-0.3
	c0.2,0,0.4-0.1,0.5-0.1c0.5-0.1,0.9-0.3,1.4-0.4c0.4-0.1,0.8-0.2,1.2-0.3c0.1,0,0.2,0,0.2-0.1c0.6-0.2,1.2-0.3,1.8-0.5
	c0.4-0.1,0.8-0.2,1.2-0.4c0.7-0.2,1.3-0.4,2-0.7c0.1,0,0.3-0.1,0.4-0.1c0,0,0,0,0,0c2.2,0.5,4.5,1,6.7,1.3c0,0,0.1,0,0.1,0
	c0.7,0.1,1.4,0.2,2.1,0.3c0.1,0,0.2,0,0.3,0c0.7,0.1,1.3,0.1,2,0.2c0.2,0,0.4,0,0.6,0c0.6,0,1.1,0.1,1.7,0.1c0.3,0,0.7,0,1,0
	c0.4,0,0.8,0,1.3,0c0.8,0,1.5,0,2.3,0c0.6,0.1,0.9,0.1,0.9,0.1l0,0l0,0l0.1-0.1c0,0,0,0,0,0c0.9,0,1.9,0,2.8-0.1c0.2,0,0.3,0,0.5,0
	c0.2,0,0.3,0,0.5,0c0.7,0,1.4-0.1,2.1-0.1c0.2,0,0.3,0,0.5,0c0.1,0,0.3,0,0.4,0c0.1,0,0.2,0,0.3,0c0.7-0.1,1.5-0.1,2.2-0.2
	c0.1,0,0.1,0,0.2,0c0.1,0,0.3,0,0.4-0.1c0.2,0,0.5-0.1,0.7-0.1c0.6-0.1,1.1-0.1,1.7-0.2c0.1,0,0.2,0,0.3,0c0.3-0.1,0.7-0.1,1-0.2
	c0.2,0,0.3,0,0.5-0.1c0.9-0.1,1.8-0.3,2.6-0.4c0.2,0,0.4-0.1,0.7-0.1c1-0.2,1.9-0.4,2.9-0.6c0.2,0,0.4-0.1,0.6-0.1
	c0.8-0.2,1.7-0.4,2.5-0.6c0.2,0,0.4-0.1,0.6-0.1c0.2,0,0.4-0.1,0.6-0.1c0,0,0.1,0.1,0.1,0.1c0.2,0.2,0.5,0.4,0.7,0.6
	c0.1,0.1,0.2,0.2,0.4,0.3c0.2,0.2,0.4,0.4,0.7,0.6c0.1,0.1,0.3,0.2,0.4,0.3c0.2,0.2,0.4,0.4,0.6,0.5c0.1,0.1,0.3,0.2,0.4,0.4
	c0.2,0.2,0.4,0.3,0.6,0.5c0.2,0.1,0.3,0.2,0.5,0.4c0.2,0.2,0.4,0.3,0.6,0.5c0.2,0.1,0.3,0.2,0.5,0.4c0.2,0.1,0.4,0.3,0.6,0.4
	c0.2,0.1,0.3,0.2,0.5,0.4c0.2,0.1,0.4,0.3,0.5,0.4c0.2,0.1,0.3,0.2,0.5,0.3c0.2,0.1,0.3,0.2,0.5,0.3c0.2,0.1,0.3,0.2,0.5,0.3
	c0.2,0.1,0.3,0.2,0.5,0.3c0.2,0.1,0.3,0.2,0.5,0.3c0.2,0.1,0.3,0.2,0.5,0.2c0.2,0.1,0.3,0.2,0.5,0.2c0.1,0.1,0.3,0.1,0.4,0.2
	c0.2,0.1,0.3,0.1,0.5,0.2c0.1,0.1,0.3,0.1,0.4,0.2c0.2,0.1,0.3,0.1,0.5,0.1c0.1,0,0.3,0.1,0.4,0.1c0.2,0,0.3,0.1,0.5,0.1
	c0.1,0,0.2,0,0.3,0.1c0.2,0,0.4,0,0.5,0c0.1,0,0.2,0,0.3,0c0.3,0,0.5,0,0.7-0.1c0.8-0.2,1.6-0.3,2.6-0.3c0.9,0,1.9,0,3,0.1
	c5.3,0.4,11.7,1.9,16.3,1.8c0.9,0,1.8-0.1,2.5-0.3c0.4-0.1,0.7-0.2,1.1-0.3c0.2-0.1,0.4-0.1,0.6-0.2c0.1,0,0.3-0.1,0.4-0.1
	c0.3-0.1,0.5-0.2,0.8-0.2c0.1,0,0.1,0,0.2-0.1c0.3-0.1,0.6-0.2,0.9-0.3c0,0,0,0,0.1,0c0.3-0.1,0.6-0.2,0.8-0.4c0,0,0,0,0,0
	c0.3-0.1,0.6-0.3,0.8-0.4c0,0,0,0,0,0c0.3-0.1,0.6-0.3,0.8-0.5c0,0,0,0,0,0c1.4-0.8,2.7-1.8,4-3.2l0,0c0.3-0.3,0.5-0.6,0.8-0.9
	c0,0,0,0,0,0c0.3-0.3,0.5-0.6,0.8-0.9c0,0,0,0,0,0c0.3-0.3,0.5-0.7,0.8-1c0,0,0,0,0,0c0.3-0.4,0.6-0.7,0.9-1.1c0,0,0,0,0,0
	c0.3,0.2,0.5,0.4,0.8,0.6c0,0,0,0,0,0c0.2,0.2,0.5,0.4,0.7,0.6c0,0,0.1,0.1,0.1,0.1c0.2,0.2,0.5,0.3,0.7,0.5c0.1,0,0.1,0.1,0.2,0.1
	c0.2,0.2,0.4,0.3,0.6,0.5c0.1,0,0.1,0.1,0.2,0.1c0.2,0.1,0.4,0.3,0.6,0.4c0.1,0.1,0.2,0.1,0.2,0.2c0.2,0.1,0.4,0.2,0.5,0.4
	c0.1,0.1,0.2,0.1,0.3,0.2c0.2,0.1,0.3,0.2,0.5,0.3c0.1,0.1,0.2,0.1,0.3,0.2c0.2,0.1,0.3,0.2,0.5,0.3c0.1,0.1,0.2,0.1,0.3,0.2
	c0.1,0.1,0.3,0.2,0.4,0.2c0.1,0.1,0.2,0.1,0.3,0.1c0.1,0.1,0.3,0.1,0.4,0.2c0.1,0,0.2,0.1,0.3,0.1c0.1,0,0.3,0.1,0.4,0.1
	c0.1,0,0.2,0.1,0.4,0.1c0.1,0,0.2,0.1,0.3,0.1c0.1,0,0.2,0.1,0.4,0.1c0.1,0,0.2,0,0.3,0.1c0.1,0,0.3,0,0.4,0c0.1,0,0.2,0,0.3,0
	c0.1,0,0.3,0,0.4,0c0.1,0,0.1,0,0.2,0c0.2,0,0.4,0,0.6-0.1c1.5-0.3,3.4-0.4,5.5-0.2c0.7,0.1,1.4,0.1,2.1,0.2
	c1.4,0.2,2.8,0.4,4.2,0.6c3.6,0.5,7.2,1.1,10.1,1c0.9,0,1.8-0.1,2.5-0.3c4.5-1,7.5-2.4,10.7-5.8c1.1-1.2,2.2-2.5,3.4-4.2
	s1.6-3.2,1.5-4.7c0-0.4-0.1-0.7-0.2-1.1c-0.1-0.5-0.3-1.1-0.6-1.6c-0.4-0.9-0.9-1.8-1.5-2.6c-1.6-2.5-3.8-4.9-4.8-7.7
	c-2.4-6.3-12.6-8.4-18.9-9.5c-0.3,0-0.5-0.1-0.8-0.2c-0.1,0-0.1,0-0.2-0.1c-0.3-0.1-0.6-0.2-0.8-0.4c0,0-0.1,0-0.1-0.1
	c-0.3-0.1-0.5-0.3-0.8-0.5c-0.1,0-0.1-0.1-0.2-0.1c-0.3-0.2-0.6-0.4-0.9-0.7c0,0-0.1-0.1-0.1-0.1c-0.3-0.2-0.5-0.5-0.8-0.7
	c-0.1-0.1-0.1-0.1-0.2-0.2c-0.3-0.3-0.6-0.6-0.9-0.9c-0.1-0.1-0.1-0.1-0.2-0.2c-0.3-0.3-0.5-0.6-0.8-0.9c-0.1-0.1-0.1-0.1-0.2-0.2
	c-0.3-0.3-0.6-0.7-0.9-1.1c-0.1-0.1-0.1-0.1-0.2-0.2c-0.3-0.3-0.5-0.7-0.8-1c0,0-0.1-0.1-0.1-0.1c-0.3-0.4-0.6-0.8-0.9-1.2
	c0-0.1-0.1-0.1-0.1-0.2c-0.3-0.4-0.6-0.8-0.8-1.2c0,0,0,0,0,0c-0.3-0.4-0.6-0.8-0.9-1.3c0,0-0.1-0.1-0.1-0.1
	c-0.6-0.9-1.1-1.7-1.6-2.5c0,0,0,0,0-0.1c-0.5-0.8-1-1.6-1.4-2.4c3.9-2.5,8.6-6.5,11.6-10.9c0-0.1,0.1-0.1,0.1-0.2
	c0.1-0.1,0.1-0.2,0.2-0.3c0.4-0.6,0.7-1.1,1-1.7l0.9-2.2l0.4-1.1c0.2-0.4,0.3-0.7,0.5-1.1c0.3-0.7,0.6-1.5,0.8-2.2
	c1.5-4.9,1-10-2.1-15c0,0,0-0.1-0.1-0.3c-0.6-1.5-3.7-9.1-9.4-15.2c0-0.1-0.1-0.3-0.1-0.4c0,0,0,0,0,0c0,0,0,0,0,0
	c-0.1-0.2-0.1-0.4-0.2-0.5c0,0,0,0,0-0.1c0,0,0,0,0-0.1c0-0.2-0.1-0.3-0.1-0.5c0,0,0,0,0,0c0,0,0,0,0,0c-0.1-0.2-0.1-0.4-0.2-0.6
	l0,0v0c0-0.2-0.1-0.3-0.1-0.5c0-0.2-0.1-0.3-0.1-0.4c0,0,0,0,0-0.1c0,0,0,0,0-0.1c0-0.1-0.1-0.2-0.1-0.3c0-0.1-0.1-0.3-0.1-0.4
	c0,0,0,0,0-0.1c0,0,0,0,0-0.1c0-0.1-0.1-0.2-0.1-0.3c0-0.1-0.1-0.2-0.1-0.3c0,0,0,0,0-0.1c0,0,0,0,0-0.1c0-0.1,0-0.1-0.1-0.2
	c0,0,0,0,0,0c0,0,0,0,0,0c0-0.1-0.1-0.2-0.1-0.3c0,0,0,0,0,0c0,0,0,0,0-0.1c0,0,0,0,0-0.1c0,0,0,0,0,0c0,0,0,0,0,0c0,0,0,0,0,0
	c0-0.1,0-0.1-0.1-0.2c0,0,0-0.1,0-0.1c0-0.1,0-0.1,0-0.1l0,0c-0.8-2.9-1.8-5.8-3-8.7c-2-4.9-4.6-9.8-7.8-14.7l0-0.1
	c0,0-9.9-18.3-22.1-28c-5.3-4.3-11.3-6-17.7-7c-8.2-1.2-17.2-1.2-26.8-3.6c-2-0.5-3.9-0.9-5.7-1.2c0,0-0.1,0-0.1,0
	c-0.7-0.1-1.4-0.2-2.1-0.3c0,0-0.1,0-0.1,0c-0.2,0-0.5-0.1-0.7-0.1c-0.4-0.1-0.9-0.1-1.3-0.2c-0.1,0-0.1,0-0.1,0
	c-0.3,0-0.5,0-0.8-0.1c-0.3,0-0.7-0.1-1-0.1c-0.1,0-0.1,0-0.2,0c-0.3,0-0.5,0-0.8,0c-0.3,0-0.6,0-0.9,0c-0.1,0-0.2,0-0.3,0
	c-0.3,0-0.5,0-0.8,0c-0.3,0-0.5,0-0.8,0c-0.1,0-0.2,0-0.3,0c-0.3,0-0.5,0-0.8,0.1c-0.2,0-0.4,0-0.7,0.1c-0.1,0-0.3,0-0.4,0
	c-0.3,0-0.5,0.1-0.8,0.1c-0.2,0-0.4,0-0.6,0.1c-0.1,0-0.3,0.1-0.4,0.1c-0.2,0-0.5,0.1-0.7,0.1c-0.2,0-0.3,0.1-0.5,0.1
	c-0.2,0-0.3,0.1-0.5,0.1c-0.2,0.1-0.5,0.1-0.7,0.2c-0.1,0-0.3,0.1-0.4,0.1c-0.2,0-0.4,0.1-0.6,0.2c-0.2,0.1-0.5,0.1-0.7,0.2
	c-0.1,0-0.3,0.1-0.4,0.1c-0.2,0.1-0.4,0.1-0.6,0.2c-0.2,0.1-0.5,0.1-0.7,0.2c-0.1,0-0.2,0.1-0.3,0.1c-0.2,0.1-0.5,0.2-0.7,0.2
	c-0.2,0.1-0.5,0.2-0.7,0.2c-0.1,0-0.2,0.1-0.3,0.1c-0.3,0.1-0.5,0.2-0.8,0.3c0,0-0.1,0-0.1,0c-0.2,0.1-0.4,0.2-0.6,0.2
	c-0.1,0-0.2,0.1-0.2,0.1c-0.3,0.1-0.5,0.2-0.8,0.3c-0.1,0.1-0.3,0.1-0.4,0.2c-0.1,0.1-0.2,0.1-0.4,0.1c-0.1,0-0.1,0.1-0.2,0.1
	c-0.3,0.1-0.6,0.2-0.8,0.3c-0.3,0.1-0.6,0.2-0.9,0.4c-0.1,0-0.1,0.1-0.2,0.1c-0.3,0.1-0.6,0.2-0.8,0.4c-0.3,0.1-0.6,0.2-0.9,0.4l0,0
	c0,0,0,0,0,0l0,0c-0.1,0-0.1,0.1-0.2,0.1c-0.1,0-0.1,0.1-0.2,0.1c-0.2,0-0.3,0-0.5,0l0,0c-0.3,0-0.5,0-0.8,0c-0.4,0-0.8,0-1.2,0
	c-0.8,0-1.6,0-2.5,0c-0.8,0-1.5,0-2.3,0c-1.1,0-2.2,0-3.4,0c0,0,0,0,0,0c-1.2,0-2.5-0.1-3.7-0.1l-0.5-0.5v0l0,0
	c0.1,0.2,0.1,0.3,0.2,0.5c-0.2,0-0.5,0-0.7,0c-0.1,0-0.2,0-0.3,0c-0.7,0-1.5-0.1-2.2-0.2c-0.3,0-0.7-0.1-1-0.1c0,0,0,0-0.1,0
	c-1.1-0.1-2.2-0.3-3.3-0.4c0,0,0,0,0,0c-2.1-0.3-4-0.6-5.7-0.7c-1.6-0.1-3.2-0.2-4.6-0.2c-5.8,0-10.2,1.1-14.8,3
	c-1.7,0.7-3.5,1.6-5.4,2.6s-3.9,2-6.1,3.2c-1.5,0.8-2.7,1.6-3.7,2.5c-3.2,2.7-4.7,5.7-5.9,8.7c0,0.1-0.1,0.2-0.1,0.2
	c-0.1,0.2-0.2,0.5-0.3,0.7c0,0,0,0.1,0,0.1c-1.7,4.2-3.1,8.2-8.1,10.7l-0.9,0.3l-2,0.7c0,0,0,0,0,0l0,0c0,0,0.1,0,0.1,0
	c0.1,0,0.1,0,0.2,0c0,0,0,0,0,0c-0.4,0.2-0.8,0.3-1.2,0.5c-0.4,0.2-0.8,0.4-1.1,0.5c0,0,0,0,0,0c-5.6,3-7.3,7.4-7.8,10.3
	c-0.1,0.4-0.1,0.8-0.1,1.1c0,0.1,0,0.3,0,0.4c0,0.9,0,1.5,0,1.5s0.6,3.9-5.1,12.7c-0.8,1.3-1.8,2.6-2.9,4.1
	c-0.4,0.5-0.8,1.1-1.1,1.6c-2,3-3.2,5.8-3.9,8.2c-0.1,0.4-0.2,0.8-0.3,1.2c-0.1,0.4-0.1,0.8-0.2,1.1c-0.1,0.6-0.2,1.2-0.2,1.7
	c0,0.8,0,1.6,0,2.3C69.7,170.7,70.4,172.1,70.4,172.1z M283.6,204.3C283.6,204.3,283.6,204.3,283.6,204.3L283.6,204.3
	C283.6,204.3,283.6,204.3,283.6,204.3z"/>
<g id="XMLID_2069_">
	<g>
		<path class="st1" d="M80.6,162.1C80.6,162.1,80.6,162.2,80.6,162.1C80.6,162.2,80.6,162.2,80.6,162.1c0,0.1,0.1,0.2,0.1,0.3
			c0,0,0,0,0,0c0.1,0.2,0.1,0.4,0.2,0.7c0,0,0,0,0,0c0.5,1.6,1.5,4.9,2,8.1c0,0,0,0,0,0c0,0.3,0.1,0.6,0.1,0.9c0,0,0,0,0,0l-1.1,7.6
			c0.1-0.1,0.1-0.2,0.2-0.4c0,0,0,0,0,0c-0.2,1.4-0.1,3.2,0.1,5.1c0,0,0,0,0,0.1c0,0.3,0.1,0.6,0.1,0.9c0,0,0,0,0,0.1
			c0.2,1.2,0.4,2.5,0.7,3.8c0,0.1,0.1,0.3,0.1,0.4c0,0.2,0.1,0.4,0.2,0.6c0,0.2,0.1,0.4,0.1,0.5c0,0.2,0.1,0.4,0.1,0.6
			c0.1,0.2,0.1,0.4,0.2,0.6c0,0.2,0.1,0.3,0.1,0.5c0.1,0.2,0.1,0.5,0.2,0.7c0,0.1,0.1,0.3,0.1,0.4c0.1,0.3,0.2,0.6,0.3,0.9
			c0,0,0,0.1,0,0.1c0.7,2.2,1.4,4.1,2.1,5.5c0,0.1,0.1,0.2,0.1,0.3c0.5,1.1,1,2.3,1.6,3.4c1.7,3.4,3.6,6.7,5.8,10
			c0.4,0.6,0.9,1.2,1.3,1.9c1.3,2.1,2.6,4.2,3.8,6c2.2,3.4,4.1,5.8,5,6.1c0.5,0.2,1.2,0.5,1.9,0.9c0.3,0.2,0.6,0.4,1,0.6
			c1.1,1,2.1,1.9,3.2,2.9c0.2,0.2,0.4,0.3,0.6,0.5c0.9,0.7,1.8,1.5,2.7,2.2c1.7,1.3,3.4,2.4,5.1,3.5c0.8,0.5,1.7,1,2.5,1.5
			c0.4,0.4,0.9,0.7,1.3,1.1c0.3,0.3,0.6,0.5,0.9,0.8c0.4,0.4,0.8,0.7,1.2,1.1c0.4,0.4,0.8,0.7,1.1,1.1c0.2,0.2,0.3,0.3,0.5,0.5
			c0.1,0.2,0.4,0.3,0.6,0.4c0.6,0.3,1.4,0.6,2.4,0.8c1.4,0.3,3.1,0.6,5.1,0.8c1.2,0.1,2.6,0.3,3.9,0.4c1.4,0.1,2.8,0.2,4.2,0.3
			c1.6,0.3,3.2,0.5,4.8,0.6c2.4,0.2,4.8,0.3,7.2,0.3s4.8-0.1,7.2-0.4c0.6,0,0.9,0,0.9,0l0.1-0.1c1-0.1,2-0.2,3-0.4
			c0.1,0,0.2,0,0.3,0c0.4-0.1,0.7-0.1,1.1-0.2c0.6-0.1,1.1-0.2,1.7-0.3c0.2,0,0.4-0.1,0.5-0.1c0.4-0.1,0.8-0.2,1.2-0.2
			c0.4-0.1,0.8-0.1,1.2-0.2c0.3-0.1,0.5-0.1,0.8-0.2c0.4-0.1,0.8-0.2,1.3-0.3c0.3-0.1,0.6-0.1,0.8-0.2c0.4-0.1,0.7-0.2,1.1-0.3
			c0.4-0.1,0.8-0.2,1.2-0.3c0.2,0,0.4-0.1,0.5-0.1c0.5-0.1,0.9-0.3,1.4-0.4c0.4-0.1,0.8-0.2,1.2-0.3c0.1,0,0.2,0,0.2-0.1
			c0.6-0.2,1.2-0.3,1.8-0.5c0.4-0.1,0.8-0.2,1.2-0.4c0.7-0.2,1.3-0.4,2-0.7c0.1,0,0.3-0.1,0.4-0.1c0,0,0,0,0,0
			c2.2,0.5,4.5,1,6.7,1.3c0,0,0.1,0,0.1,0c0.7,0.1,1.4,0.2,2.1,0.3c0.1,0,0.2,0,0.3,0c0.7,0.1,1.3,0.1,2,0.2c0.2,0,0.4,0,0.6,0
			c0.6,0,1.1,0.1,1.7,0.1c0.3,0,0.7,0,1,0c0.4,0,0.8,0,1.3,0c0.8,0,1.5,0,2.3,0c0.6,0.1,0.9,0.1,0.9,0.1l0,0l0,0l0.1-0.1
			c0,0,0,0,0,0c0.9,0,1.9,0,2.8-0.1c0.2,0,0.3,0,0.5,0c0.2,0,0.3,0,0.5,0c0.7,0,1.4-0.1,2.1-0.1c0.2,0,0.3,0,0.5,0
			c0.1,0,0.3,0,0.4,0c0.1,0,0.2,0,0.3,0c0.7-0.1,1.5-0.1,2.2-0.2c0.1,0,0.1,0,0.2,0c0.1,0,0.3,0,0.4-0.1c0.2,0,0.5-0.1,0.7-0.1
			c0.6-0.1,1.1-0.1,1.7-0.2c0.1,0,0.2,0,0.3,0c0.3-0.1,0.7-0.1,1-0.2c0.2,0,0.3,0,0.5-0.1c0.9-0.1,1.8-0.3,2.6-0.4
			c0.2,0,0.4-0.1,0.7-0.1c1-0.2,1.9-0.4,2.9-0.6c0.2,0,0.4-0.1,0.6-0.1c0.8-0.2,1.7-0.4,2.5-0.6c0.2,0,0.4-0.1,0.6-0.1
			c0.2,0,0.4-0.1,0.6-0.1c0,0,0.1,0.1,0.1,0.1c0.2,0.2,0.5,0.4,0.7,0.6c0.1,0.1,0.2,0.2,0.4,0.3c0.2,0.2,0.4,0.4,0.7,0.6
			c0.1,0.1,0.3,0.2,0.4,0.3c0.2,0.2,0.4,0.4,0.6,0.5c0.1,0.1,0.3,0.2,0.4,0.4c0.2,0.2,0.4,0.3,0.6,0.5c0.2,0.1,0.3,0.2,0.5,0.4
			c0.2,0.2,0.4,0.3,0.6,0.5c0.2,0.1,0.3,0.2,0.5,0.4c0.2,0.1,0.4,0.3,0.6,0.4c0.2,0.1,0.3,0.2,0.5,0.4c0.2,0.1,0.4,0.3,0.5,0.4
			c0.2,0.1,0.3,0.2,0.5,0.3c0.2,0.1,0.3,0.2,0.5,0.3c0.2,0.1,0.3,0.2,0.5,0.3c0.2,0.1,0.3,0.2,0.5,0.3c0.2,0.1,0.3,0.2,0.5,0.3
			c0.2,0.1,0.3,0.2,0.5,0.2c0.2,0.1,0.3,0.2,0.5,0.2c0.1,0.1,0.3,0.1,0.4,0.2c0.2,0.1,0.3,0.1,0.5,0.2c0.1,0.1,0.3,0.1,0.4,0.2
			c0.2,0.1,0.3,0.1,0.5,0.1c0.1,0,0.3,0.1,0.4,0.1c0.2,0,0.3,0.1,0.5,0.1c0.1,0,0.2,0,0.3,0.1c0.2,0,0.4,0,0.5,0c0.1,0,0.2,0,0.3,0
			c0.3,0,0.5,0,0.7-0.1c0.8-0.2,1.6-0.3,2.6-0.3c0.9,0,1.9,0,3,0.1c5.3,0.4,11.7,1.9,16.3,1.8c0.9,0,1.8-0.1,2.5-0.3
			c0.4-0.1,0.7-0.2,1.1-0.3c0.2-0.1,0.4-0.1,0.6-0.2c0.1,0,0.3-0.1,0.4-0.1c0.3-0.1,0.5-0.2,0.8-0.2c0.1,0,0.1,0,0.2-0.1
			c0.3-0.1,0.6-0.2,0.9-0.3c0,0,0,0,0.1,0c0.3-0.1,0.6-0.2,0.8-0.4c0,0,0,0,0,0c0.3-0.1,0.6-0.3,0.8-0.4c0,0,0,0,0,0
			c0.3-0.1,0.6-0.3,0.8-0.5c0,0,0,0,0,0c1.4-0.8,2.7-1.8,4-3.2l0,0c0.3-0.3,0.5-0.6,0.8-0.9c0,0,0,0,0,0c0.3-0.3,0.5-0.6,0.8-0.9
			c0,0,0,0,0,0c0.3-0.3,0.5-0.7,0.8-1c0,0,0,0,0,0c0.3-0.4,0.6-0.7,0.9-1.1c0,0,0,0,0,0c0.3,0.2,0.5,0.4,0.8,0.6c0,0,0,0,0,0
			c0.2,0.2,0.5,0.4,0.7,0.6c0,0,0.1,0.1,0.1,0.1c0.2,0.2,0.5,0.3,0.7,0.5c0.1,0,0.1,0.1,0.2,0.1c0.2,0.2,0.4,0.3,0.6,0.5
			c0.1,0,0.1,0.1,0.2,0.1c0.2,0.1,0.4,0.3,0.6,0.4c0.1,0.1,0.2,0.1,0.2,0.2c0.2,0.1,0.4,0.2,0.5,0.4c0.1,0.1,0.2,0.1,0.3,0.2
			c0.2,0.1,0.3,0.2,0.5,0.3c0.1,0.1,0.2,0.1,0.3,0.2c0.2,0.1,0.3,0.2,0.5,0.3c0.1,0.1,0.2,0.1,0.3,0.2c0.1,0.1,0.3,0.2,0.4,0.2
			c0.1,0.1,0.2,0.1,0.3,0.1c0.1,0.1,0.3,0.1,0.4,0.2c0.1,0,0.2,0.1,0.3,0.1c0.1,0,0.3,0.1,0.4,0.1c0.1,0,0.2,0.1,0.4,0.1
			c0.1,0,0.2,0.1,0.3,0.1c0.1,0,0.2,0.1,0.4,0.1c0.1,0,0.2,0,0.3,0.1c0.1,0,0.3,0,0.4,0c0.1,0,0.2,0,0.3,0c0.1,0,0.3,0,0.4,0
			c0.1,0,0.1,0,0.2,0c0.2,0,0.4,0,0.6-0.1c1.5-0.3,3.4-0.4,5.5-0.2c0.7,0.1,1.4,0.1,2.1,0.2c1.4,0.2,2.8,0.4,4.2,0.6
			c3.6,0.5,7.2,1.1,10.1,1c0.9,0,1.8-0.1,2.5-0.3c4.5-1,7.5-2.4,10.7-5.8c1.1-1.2,2.2-2.5,3.4-4.2s1.6-3.2,1.5-4.7
			c0-0.4-0.1-0.7-0.2-1.1c-0.1-0.5-0.3-1.1-0.6-1.6c-0.4-0.9-0.9-1.8-1.5-2.6c-1.6-2.5-3.8-4.9-4.8-7.7c-2.4-6.3-12.6-8.4-18.9-9.5
			c-0.3,0-0.5-0.1-0.8-0.2c-0.1,0-0.1,0-0.2-0.1c-0.3-0.1-0.6-0.2-0.8-0.4c0,0-0.1,0-0.1-0.1c-0.3-0.1-0.5-0.3-0.8-0.5
			c-0.1,0-0.1-0.1-0.2-0.1c-0.3-0.2-0.6-0.4-0.9-0.7c0,0-0.1-0.1-0.1-0.1c-0.3-0.2-0.5-0.5-0.8-0.7c-0.1-0.1-0.1-0.1-0.2-0.2
			c-0.3-0.3-0.6-0.6-0.9-0.9c-0.1-0.1-0.1-0.1-0.2-0.2c-0.3-0.3-0.5-0.6-0.8-0.9c-0.1-0.1-0.1-0.1-0.2-0.2c-0.3-0.3-0.6-0.7-0.9-1.1
			c-0.1-0.1-0.1-0.1-0.2-0.2c-0.3-0.3-0.5-0.7-0.8-1c0,0-0.1-0.1-0.1-0.1c-0.3-0.4-0.6-0.8-0.9-1.2c0-0.1-0.1-0.1-0.1-0.2
			c-0.3-0.4-0.6-0.8-0.8-1.2c0,0,0,0,0,0c-0.3-0.4-0.6-0.8-0.9-1.3c0,0-0.1-0.1-0.1-0.1c-0.6-0.9-1.1-1.7-1.6-2.5c0,0,0,0,0-0.1
			c-0.5-0.8-1-1.6-1.4-2.4c3.9-2.5,8.6-6.5,11.6-10.9c0-0.1,0.1-0.1,0.1-0.2c0.1-0.1,0.1-0.2,0.2-0.3c0.4-0.6,0.7-1.1,1-1.7l0.9-2.2
			l0.4-1.1c0.2-0.4,0.3-0.7,0.5-1.1c0.3-0.7,0.6-1.5,0.8-2.2c1.5-4.9,1-10-2.1-15c0,0,0-0.1-0.1-0.3c-0.6-1.5-3.7-9.1-9.4-15.2
			c0-0.1-0.1-0.3-0.1-0.4c0,0,0,0,0,0c0,0,0,0,0,0c-0.1-0.2-0.1-0.4-0.2-0.5c0,0,0,0,0-0.1c0,0,0,0,0-0.1c0-0.2-0.1-0.3-0.1-0.5
			c0,0,0,0,0,0c0,0,0,0,0,0c-0.1-0.2-0.1-0.4-0.2-0.6l0,0v0c0-0.2-0.1-0.3-0.1-0.5c0-0.2-0.1-0.3-0.1-0.4c0,0,0,0,0-0.1
			c0,0,0,0,0-0.1c0-0.1-0.1-0.2-0.1-0.3c0-0.1-0.1-0.3-0.1-0.4c0,0,0,0,0-0.1c0,0,0,0,0-0.1c0-0.1-0.1-0.2-0.1-0.3
			c0-0.1-0.1-0.2-0.1-0.3c0,0,0,0,0-0.1c0,0,0,0,0-0.1c0-0.1,0-0.1-0.1-0.2c0,0,0,0,0,0c0,0,0,0,0,0c0-0.1-0.1-0.2-0.1-0.3
			c0,0,0,0,0,0c0,0,0,0,0-0.1c0,0,0,0,0-0.1c0,0,0,0,0,0c0,0,0,0,0,0c0,0,0,0,0,0c0-0.1,0-0.1-0.1-0.2c0,0,0-0.1,0-0.1
			c0-0.1,0-0.1,0-0.1l0,0c-0.8-2.9-1.8-5.8-3-8.7c-2-4.9-4.6-9.8-7.8-14.7l0-0.1c0,0-9.9-18.3-22.1-28c-5.3-4.3-11.3-6-17.7-7
			c-8.2-1.2-17.2-1.2-26.8-3.6c-2-0.5-3.9-0.9-5.7-1.2c0,0-0.1,0-0.1,0c-0.7-0.1-1.4-0.2-2.1-0.3c0,0-0.1,0-0.1,0
			c-0.2,0-0.5-0.1-0.7-0.1c-0.4-0.1-0.9-0.1-1.3-0.2c-0.1,0-0.1,0-0.1,0c-0.3,0-0.5,0-0.8-0.1c-0.3,0-0.7-0.1-1-0.1
			c-0.1,0-0.1,0-0.2,0c-0.3,0-0.5,0-0.8,0c-0.3,0-0.6,0-0.9,0c-0.1,0-0.2,0-0.3,0c-0.3,0-0.5,0-0.8,0c-0.3,0-0.5,0-0.8,0
			c-0.1,0-0.2,0-0.3,0c-0.3,0-0.5,0-0.8,0.1c-0.2,0-0.4,0-0.7,0.1c-0.1,0-0.3,0-0.4,0c-0.3,0-0.5,0.1-0.8,0.1c-0.2,0-0.4,0-0.6,0.1
			c-0.1,0-0.3,0.1-0.4,0.1c-0.2,0-0.5,0.1-0.7,0.1c-0.2,0-0.3,0.1-0.5,0.1c-0.2,0-0.3,0.1-0.5,0.1c-0.2,0.1-0.5,0.1-0.7,0.2
			c-0.1,0-0.3,0.1-0.4,0.1c-0.2,0-0.4,0.1-0.6,0.2c-0.2,0.1-0.5,0.1-0.7,0.2c-0.1,0-0.3,0.1-0.4,0.1c-0.2,0.1-0.4,0.1-0.6,0.2
			c-0.2,0.1-0.5,0.1-0.7,0.2c-0.1,0-0.2,0.1-0.3,0.1c-0.2,0.1-0.5,0.2-0.7,0.2c-0.2,0.1-0.5,0.2-0.7,0.2c-0.1,0-0.2,0.1-0.3,0.1
			c-0.3,0.1-0.5,0.2-0.8,0.3c0,0-0.1,0-0.1,0c-0.2,0.1-0.4,0.2-0.6,0.2c-0.1,0-0.2,0.1-0.2,0.1c-0.3,0.1-0.5,0.2-0.8,0.3
			c-0.1,0.1-0.3,0.1-0.4,0.2c-0.1,0.1-0.2,0.1-0.4,0.1c-0.1,0-0.1,0.1-0.2,0.1c-0.3,0.1-0.6,0.2-0.8,0.3c-0.3,0.1-0.6,0.2-0.9,0.4
			c-0.1,0-0.1,0.1-0.2,0.1c-0.3,0.1-0.6,0.2-0.8,0.4c-0.3,0.1-0.6,0.2-0.9,0.4l0,0c0,0,0,0,0,0l0,0c-0.1,0-0.1,0.1-0.2,0.1
			c-0.1,0-0.1,0.1-0.2,0.1c-0.2,0-0.3,0-0.5,0l0,0c-0.3,0-0.5,0-0.8,0c-0.4,0-0.8,0-1.2,0c-0.8,0-1.6,0-2.5,0c-0.8,0-1.5,0-2.3,0
			c-1.1,0-2.2,0-3.4,0c0,0,0,0,0,0c-1.2,0-2.5-0.1-3.7-0.1l-0.5-0.5v0l0,0c0.1,0.2,0.1,0.3,0.2,0.5c-0.2,0-0.5,0-0.7,0
			c-0.1,0-0.2,0-0.3,0c-0.7,0-1.5-0.1-2.2-0.2c-0.3,0-0.7-0.1-1-0.1c0,0,0,0-0.1,0c-1.1-0.1-2.2-0.3-3.3-0.4c0,0,0,0,0,0
			c-2.1-0.3-4-0.6-5.7-0.7c-1.6-0.1-3.2-0.2-4.6-0.2c-5.8,0-10.2,1.1-14.8,3c-1.7,0.7-3.5,1.6-5.4,2.6s-3.9,2-6.1,3.2
			c-1.5,0.8-2.7,1.6-3.7,2.5c-3.2,2.7-4.7,5.7-5.9,8.7c0,0.1-0.1,0.2-0.1,0.2c-0.1,0.2-0.2,0.5-0.3,0.7c0,0,0,0.1,0,0.1
			c-1.7,4.2-3.1,8.2-8.1,10.7l-0.9,0.3l-2,0.7c0,0,0,0,0,0l0,0c0,0,0.1,0,0.1,0c0.1,0,0.1,0,0.2,0c0,0,0,0,0,0
			c-0.4,0.2-0.8,0.3-1.2,0.5c-0.4,0.2-0.8,0.4-1.1,0.5c0,0,0,0,0,0c-5.6,3-7.3,7.4-7.8,10.3c-0.1,0.4-0.1,0.8-0.1,1.1
			c0,0.1,0,0.3,0,0.4c0,0.9,0,1.5,0,1.5s0.6,3.9-5.1,12.7c-0.8,1.3-1.8,2.6-2.9,4.1c-0.4,0.5-0.8,1.1-1.1,1.6c-2,3-3.2,5.8-3.9,8.2
			c-0.1,0.4-0.2,0.8-0.3,1.2c-0.1,0.4-0.1,0.8-0.2,1.1c-0.1,0.6-0.2,1.2-0.2,1.7c0,0.8,0,1.6,0,2.3
			C79.9,160.7,80.6,162.1,80.6,162.1z M293.8,194.3C293.8,194.3,293.8,194.3,293.8,194.3L293.8,194.3
			C293.8,194.3,293.8,194.3,293.8,194.3z"/>
	</g>
</g>
<g id="XMLID_1909_">
	<g id="XMLID_1911_">
		<g id="XMLID_2006_">
			<g id="XMLID_2008_">
				<g id="XMLID_2050_">
					<path id="XMLID_2055_" class="st2" d="M248.9,149.4c-1.2-7.4-5.1-15.6-5.1-15.6l0,0c-2.8-7.4-7-14.9-12.8-22.3l0-0.1
						c0,0-11.6-17.3-24.5-25.9c-5.7-3.8-11.8-4.9-18.3-5.3c-8.3-0.5-17.3,0.4-27-1.2c-2.1-0.3-4-0.6-5.7-0.7
						c-13.1-1.1-19.2,2.3-30.9,8.6c-5.9,3.1-8,7.3-9.7,11.3c-2.1,5.1-3.4,10-10.3,12.5c-1.1,0.4-2.1,0.9-3.1,1.3
						c-6.4,3.4-7.7,8.6-7.9,11.4c-0.1,1.2,0,1.9,0,1.9s0.7,5.1-8,16.8c-0.4,0.5-0.8,1.1-1.1,1.6c-2.7,4-3.9,7.6-4.3,10.5"/>
					<path id="XMLID_2054_" class="st2" d="M79.9,154.3c-0.7,4.9,0.7,7.9,0.7,7.9s0,0,0,0c0.1,0.3,4.1,11.4,2.1,15.5
						c-1.5,3.1,0,11.1,2,17.2c0.7,2.2,1.4,4.1,2.1,5.5c0,0.1,0.1,0.2,0.1,0.3c2,4.5,4.4,9,7.3,13.4c0.4,0.6,0.9,1.2,1.3,1.9
						c3.7,6.1,7.4,11.7,8.8,12.2c0.7,0.2,1.8,0.8,2.9,1.5c4.6,4.3,9.3,7.7,14.1,10.4c1.9,1.6,3.8,3.2,4.9,4.5
						c1.4,1.5,8.6,2.4,16.3,2.8c6.4,1,12.9,1.1,19.3,0.5c0.6,0,0.9,0,0.9,0l0.1-0.1c37.1-3.9,70.1-30.9,70.1-30.9s18-26.8,15.9-59.8
						l0,0c0.7-2.1,0.6-4.7,0.1-7.5"/>
					<path id="XMLID_2053_" class="st3" d="M182.9,80c-6.8-0.1-14.1,0.2-21.8-1c-2.1-0.3-4-0.6-5.7-0.7c-13.1-1.1-19.2,2.3-30.9,8.6
						c-5.9,3.1-8,7.3-9.7,11.3c-2.1,5.1-3.4,10-10.3,12.5c-1.1,0.4-2.1,0.9-3.1,1.3c-6.4,3.4-7.7,8.6-7.9,11.4c-0.1,1.2,0,1.9,0,1.9
						s0.7,5.1-8,16.8c-0.4,0.5-0.8,1.1-1.1,1.6c-2.7,4-3.9,7.6-4.3,10.5"/>
					<path id="XMLID_2052_" class="st3" d="M79.9,154.3c-0.7,4.9,0.7,7.9,0.7,7.9s0,0,0,0c0.1,0.3,4.1,11.4,2.1,15.5
						c-1.5,3.1,0,11.1,2,17.2c0.7,2.2,1.4,4.1,2.1,5.5c0,0.1,0.1,0.2,0.1,0.3c2,4.5,4.4,9,7.3,13.4c0.4,0.6,0.9,1.2,1.3,1.9
						c3.7,6.1,7.4,11.7,8.8,12.2c0.7,0.2,1.8,0.8,2.9,1.5c4.6,4.3,9.3,7.7,14.1,10.4c1.9,1.6,3.8,3.2,4.9,4.5
						c1.4,1.5,8.6,2.4,16.3,2.8c6.4,1,12.9,1.1,19.3,0.5c0.6,0,0.9,0,0.9,0l0.1-0.1c8.3-0.9,16.4-2.9,23.9-5.5"/>
					<path id="XMLID_2051_" class="st3" d="M283.1,240.9c-4.8,6.7-8.2,8.7-14.1,10s-18.2-2.7-24.4-1.3c-3.9,0.9-10.2-4.1-15.7-9.2"
						/>
				</g>
				<g id="XMLID_2010_">
					<g id="XMLID_2047_">
						<path id="XMLID_2049_" class="st4" d="M132.2,221.8c0,0,4,6.3,8.1,8.8"/>
						<path id="XMLID_2048_" class="st4" d="M129.8,228.6c1.4,0.8,2.8,1.2,4,0.9c1.3-0.4,2.6-0.5,4-0.5"/>
					</g>
					<g id="XMLID_2044_">
						<path id="XMLID_2046_" class="st4" d="M112.7,107.5c0,0-5.4,3.6-9.4,3.5"/>
						<path id="XMLID_2045_" class="st4" d="M114.8,113.5c-1-1.3-2.1-2.2-3.4-2.3c-1.3-0.1-2.6-0.5-3.9-1"/>
					</g>
					<g id="XMLID_2026_">
						<path id="XMLID_2043_" class="st4" d="M110.3,140.5c0,0-0.8,6.4-3.5,9.5"/>
						<path id="XMLID_2042_" class="st4" d="M116.2,142.8c-1.6-0.1-3,0.1-4,1.1s-2.1,1.7-3.3,2.3"/>
					</g>
					<g id="XMLID_2019_">
						<path id="XMLID_2024_" class="st4" d="M83.5,173c0,0,0.7,3.8,5.9,7.5"/>
						<path id="XMLID_2022_" class="st4" d="M83.3,170.5c0.5,4-0.5,8.1-1.3,9.3"/>
					</g>
					<g id="XMLID_2013_">
						<path id="XMLID_2015_" class="st4" d="M132.9,187.9c0,0-9.1,7.8-17,8.8"/>
						<path id="XMLID_2014_" class="st4" d="M135,195.3c-1.1-0.4-2.2-0.6-3.3-0.6c-2.6,0.1-5.3-0.2-7.9-0.8"/>
					</g>
					<g id="XMLID_2011_">
						<path id="XMLID_2012_" class="st4" d="M168.4,79.3c1.1,2.9,2.8,5.2,5.1,6.2"/>
					</g>
				</g>
			</g>
		</g>
		<g id="XMLID_1912_">
			<g id="XMLID_1913_">
				<g id="XMLID_1987_">
					<path id="XMLID_968_" class="st3" d="M297.6,144.2c6.4,6.9,9.6,15.5,9.6,15.5c3.9,6.2,3.7,12.4,0.8,18.3l-1.3,3.3
						c-2.8,5.2-8.4,10.2-12.9,13"/>
					<path id="XMLID_2002_" class="st2" d="M299.6,154.4c-0.6-7.5-3.7-16-3.7-16l0,0c-2.2-7.7-5.6-15.5-10.8-23.4l0-0.1
						c0,0-9.9-18.3-22.1-28c-5.3-4.3-11.3-6-17.7-7c-8.2-1.2-17.2-1.2-26.8-3.6c-2-0.5-3.9-0.9-5.7-1.2c-13-2.3-19.3,0.6-31.6,5.8
						c-6.1,2.6-8.7,6.5-10.7,10.3c-2.6,4.9-4.3,9.7-11.4,11.5c-1.2,0.3-2.2,0.7-3.2,1.1c-6.7,2.8-8.4,7.9-8.9,10.6
						c-0.2,1.1-0.1,1.9-0.1,1.9s0.3,5.2-9.5,16c-0.5,0.5-0.9,1-1.3,1.5c-3.1,3.8-4.6,7.2-5.3,10.1"/>
					<path id="XMLID_2000_" class="st2" d="M130.9,143.9c-1.2,4.8,0,7.9,0,7.9s0,0,0,0c0.1,0.3,3,11.7,0.7,15.7
						c-1.7,2.9-1,11.1,0.4,17.3c0.5,2.2,1.1,4.3,1.6,5.7c0,0.1,0.1,0.2,0.1,0.3c1.6,4.7,3.6,9.4,6.1,14c0.4,0.7,0.8,1.3,1.1,2
						c3.1,6.4,6.3,12.3,7.6,12.9c0.7,0.3,1.7,1,2.8,1.8c4.1,4.7,8.5,8.5,13.1,11.6c1.8,1.8,3.5,3.6,4.5,4.9c1.2,1.6,8.4,3.1,16,4.3
						c6.3,1.6,12.8,2.3,19.1,2.3c0.6,0.1,0.9,0.1,0.9,0.1l0.1-0.1c37.3-0.5,72.6-24.4,72.6-24.4s20.4-25.1,21.2-58.2l0,0
						c0.8-2,1-4.7,0.8-7.5"/>
					<path id="XMLID_1998_" class="st3" d="M183.7,79.9c-0.8,0.3-1.6,0.7-2.5,1.1c-6.1,2.6-8.7,6.5-10.7,10.3
						c-2.6,4.9-4.3,9.7-11.4,11.5c-1.2,0.3-2.2,0.7-3.2,1.1c-6.7,2.8-8.4,7.9-8.9,10.6c-0.2,1.1-0.1,1.9-0.1,1.9s0.3,5.2-9.5,16
						c-0.5,0.5-0.9,1-1.3,1.5c-3.1,3.8-4.6,7.2-5.3,10.1"/>
					<path id="XMLID_1996_" class="st3" d="M299.6,155.2c-0.4-7.6-3.7-16.8-3.7-16.8l0,0c-2.2-7.7-5.6-15.5-10.8-23.4l0-0.1
						c0,0-9.9-18.3-22.1-28c-5.3-4.3-11.3-6-17.7-7c-8.2-1.2-17.2-1.2-26.8-3.6c-2-0.5-3.9-0.9-5.7-1.2c-12.1-2.1-18.4,0.2-29.1,4.7
						"/>
					<path id="XMLID_1994_" class="st3" d="M292.7,192.3c1.9-5.1,3.6-10.8,4.7-17"/>
					<path id="XMLID_1992_" class="st3" d="M130.9,143.9c-1.2,4.8,0,7.9,0,7.9s0,0,0,0c0.1,0.3,3,11.7,0.7,15.7
						c-1.7,2.9-1,11.1,0.4,17.3c0.5,2.2,1.1,4.3,1.6,5.7c0,0.1,0.1,0.2,0.1,0.3c1.6,4.7,3.6,9.4,6.1,14c0.4,0.7,0.8,1.3,1.1,2
						c3.1,6.4,6.3,12.3,7.6,12.9c0.7,0.3,1.7,1,2.8,1.8c4.1,4.7,8.5,8.5,13.1,11.6c1.8,1.8,3.5,3.6,4.5,4.9c1.2,1.6,8.4,3.1,16,4.3
						c6.3,1.6,12.8,2.3,19.1,2.3c0.6,0.1,0.9,0.1,0.9,0.1l0.1-0.1c12.2-0.2,24.1-2.8,34.7-6.3"/>
					<path id="XMLID_762_" class="st3" d="M273.6,232.9c-12,10.7-38.3,4.6-38.3,4.6c-7.6-0.6-12.4-3.5-15-7.7l-1.7-2.2
						c-3.2-5.6-1.6-14.4,0.7-16.7c2.6-2.6,5.4-17.2,5.4-17.2"/>
					<path id="XMLID_1988_" class="st3" d="M286.2,134.8c0,0,5.4,7.5,3.8,12.1s2.5,8.3,2.6,10.8c0.1,2.6-0.2,3.4-1.7,8.3
						c-1.5,4.8-0.6,20.3,0.8,24.1s10.7,19.7,16.9,20.9c6.2,1.2,16.5,3.2,18.9,9.5c2.4,6.3,10.4,11.1,5.6,17.8
						c-4.8,6.7-8.2,8.7-14.1,10s-18.2-2.7-24.4-1.3s-18.6-12.2-24-17c0,0-10.9-11.1-14.8-10.8"/>
				</g>
				<g id="XMLID_1914_">
					<g id="XMLID_1983_">
						<path id="XMLID_1986_" class="st3" d="M268,133.2c0,0,3.9-0.2,8.1-5"/>
						<path id="XMLID_1984_" class="st3" d="M265.5,133c4.1,0,8,1.5,9,2.4"/>
					</g>
					<g id="XMLID_1977_">
						<path id="XMLID_1981_" class="st3" d="M233.2,231.9c0,0,3.6-5.4,7.4-6.9"/>
						<path id="XMLID_1979_" class="st3" d="M228.9,227.2c1.4,0.8,2.8,1.2,4,0.9c1.3-0.4,2.6-0.5,4-0.5"/>
					</g>
					<g id="XMLID_1971_">
						<path id="XMLID_1975_" class="st3" d="M182.1,219.1c0,0,4,6.3,8.1,8.8"/>
						<path id="XMLID_1973_" class="st3" d="M179.7,226c1.4,0.8,2.8,1.2,4,0.9s2.6-0.5,4-0.5"/>
					</g>
					<g id="XMLID_1964_">
						<path id="XMLID_1969_" class="st3" d="M270.6,216.7c0,0-3.7-1.3-9.4,1.5"/>
						<path id="XMLID_1967_" class="st3" d="M272.8,217.9c-3.7-1.6-6.8-4.5-7.4-5.7"/>
					</g>
					<g id="XMLID_1961_">
						<path id="XMLID_1963_" class="st3" d="M173.3,97.3c0,0-5.4,3.6-9.4,3.5"/>
						<path id="XMLID_1962_" class="st3" d="M175.4,103.2c-1-1.3-2.1-2.2-3.4-2.3c-1.3-0.1-2.6-0.5-3.9-1"/>
					</g>
					<g id="XMLID_1956_">
						<path id="XMLID_1959_" class="st3" d="M243.5,119.3c0,0-1.3-7.4-4.1-11.3"/>
						<path id="XMLID_1958_" class="st3" d="M248.3,113.9c-1-1.3-2.1-2.2-3.4-2.3c-1.3-0.1-2.6-0.5-3.9-1"/>
					</g>
					<g id="XMLID_1950_">
						<path id="XMLID_1954_" class="st3" d="M234.5,179.4c0,0,11.6-2.9,19.1-0.1"/>
						<path id="XMLID_1952_" class="st3" d="M233.5,167.6c1.1,2.9,2.8,5.2,5.1,6.2s4.6,2.6,6.7,4.3"/>
					</g>
					<g id="XMLID_1944_">
						<path id="XMLID_1948_" class="st3" d="M160.2,137.8c0,0-0.8,6.4-3.5,9.5"/>
						<path id="XMLID_1946_" class="st3" d="M166.1,140.1c-1.6-0.1-3,0.1-4,1.1s-2.1,1.7-3.3,2.3"/>
					</g>
					<g id="XMLID_1938_">
						<path id="XMLID_1942_" class="st3" d="M211.5,126.1c0,0-6.4-3.8-11.2-4.2"/>
						<path id="XMLID_1939_" class="st3" d="M210.5,118.9c-1.6-0.1-3,0.1-4,1.1s-2.1,1.7-3.3,2.3"/>
					</g>
					<g id="XMLID_1934_">
						<path id="XMLID_1937_" class="st3" d="M133.7,168.3c0,0,3.8-0.5,7.7-5.6"/>
						<path id="XMLID_1936_" class="st3" d="M131.3,168.4c4-0.3,8.1,0.9,9.2,1.7"/>
					</g>
					<g id="XMLID_1929_">
						<path id="XMLID_1933_" class="st3" d="M182.9,185.3c0,0-9.1,7.8-17,8.8"/>
						<path id="XMLID_1931_" class="st3" d="M189.1,195.3c-2.3-2-4.8-3.4-7.4-3.2c-2.6,0.1-5.3-0.2-7.9-0.8"/>
					</g>
					<g id="XMLID_1923_">
						<path id="XMLID_1927_" class="st3" d="M219.3,88.5c0,0,11.6-2.9,19.1-0.1"/>
						<path id="XMLID_1925_" class="st3" d="M218.3,76.7c1.1,2.9,2.8,5.2,5.1,6.2c2.4,1.1,4.6,2.6,6.7,4.3"/>
					</g>
					<g id="XMLID_1917_">
						<path id="XMLID_1921_" class="st3" d="M296.6,179.3c0,0,1.9-7.2,0.8-12"/>
						<path id="XMLID_1919_" class="st3" d="M303.2,176.4c-0.3-1.6-1-2.9-2.2-3.5c-1.2-0.7-2.2-1.5-3.1-2.5"/>
					</g>
				</g>
			</g>
		</g>
	</g>
</g>
<path id="XMLID_742_" class="st5" d="M94.9,130.7c0,0,61.2-5.7,38.9,43.5S43.4,164.8,94.9,130.7z"/>
<path id="XMLID_940_" class="st6" d="M89,164.6c0,0,9.2-3.6,8.1,5.8S82.7,172.8,89,164.6z"/>
<path id="XMLID_939_" class="st5" d="M162.9,137.7c0,0-45.1,39.4,10.8,57.6S211.8,117.7,162.9,137.7z"/>
<path id="XMLID_741_" class="st6" d="M193.9,170.5c0,0,9.2-3.6,8.1,5.8C201,185.7,187.6,178.6,193.9,170.5z"/>
<g id="XMLID_933_">
	<path id="XMLID_937_" class="st5" d="M91.3,183.3c0,0-8.8,1.2-5,5.4c3.9,4.2,5.8-0.9,12.4,2.4"/>
	<path id="XMLID_936_" class="st5" d="M201,187.5c0,0,8.8,1.3,4.9,5.4c-3.9,4.2-5.8-1-12.4,2.3"/>
	<path id="XMLID_740_" class="st5" d="M191.3,186.8c0,0-20.6-1.5-32.8,1.7"/>
	<path id="XMLID_934_" class="st5" d="M101.4,181.4c0,0,12.1-2.3,25.5,2"/>
</g>
<g id="XMLID_920_">
	<path id="XMLID_738_" class="st6" d="M134.6,204.9c0,0-20.8,2.7-9.2,10.2C136.9,222.6,134.6,204.9,134.6,204.9z"/>
	<path id="XMLID_737_" class="st6" d="M165.7,203.2c0,0-8.3-2.8-6.9,7.8s15.9,8.7,16.7,5.7C176.4,213.7,177.8,208.6,165.7,203.2z"/>
	<g id="XMLID_929_">
		<path id="XMLID_930_" class="st7" d="M134.5,204.9c0,0-6.1,0.8-9.8,2.7c0,1.9-0.1,4.5-0.8,6.4c0.4,0.3,0.9,0.7,1.5,1.1
			C136.9,222.6,134.5,204.9,134.5,204.9z"/>
	</g>
	<g id="XMLID_927_">
		<path id="XMLID_928_" class="st7" d="M165.6,203.2c0,0-4.5-1.5-6.3,1.9c8.1,4.7,6.9,8.9,6.1,11.6c-0.1,0.5-0.7,1-1.5,1.4
			c4.7,2,10.9,0.6,11.5-1.4C176.3,213.7,177.7,208.6,165.6,203.2z"/>
	</g>
	<path id="XMLID_734_" class="st6" d="M131.4,198.8c0,0-17.1-0.9-9.2,7.9s22-0.2,23.1-4C146.5,199,131.4,198.8,131.4,198.8z"/>
	<g id="XMLID_924_">
		<path id="XMLID_925_" class="st7" d="M131.4,198.8c0,0-2.7-0.1-5.5,0.2c4.3,0.4,10.1,1.3,9.4,3.7c-0.6,1.9-4.5,5.2-9.3,6.8
			c7.9,3.4,18.3-3.6,19.3-6.8C146.4,199,131.4,198.8,131.4,198.8z"/>
	</g>
	<path id="XMLID_923_" class="st6" d="M158.5,200.4c0,0-24.3-3-0.3,8.6C182.1,220.7,186.3,204.1,158.5,200.4z"/>
	<g id="XMLID_733_">
		<path id="XMLID_922_" class="st7" d="M158.5,200.4c0,0-6.7-0.8-9.6,0.1c16.6,2.3,21.5,9.3,17.5,11.8
			C182.6,216.7,182.6,203.6,158.5,200.4z"/>
	</g>
</g>
<g id="XMLID_1169_">
	<path id="XMLID_1747_" class="st7" d="M202.2,142.1c-1.5-5.1-4.1-13.5-34.3-12.4c20.8,0.9,22.9,8,24.3,12.4c0.9,3-8.4,9-19.3,10.6
		C187.2,155.1,203.4,146.1,202.2,142.1z"/>
	<path id="XMLID_1365_" class="st7" d="M106.5,120.9c0,0-3.2-0.2-7.1,0.1c7.1,0.4,24.6,1.8,22.9,7.9c-1.3,4.5-11.1,12.7-21.9,14.9
		c14,3.2,30.2-9,31.9-14.9C134.5,121.3,106.5,120.9,106.5,120.9z"/>
	<path id="XMLID_1183_" class="st6" d="M192.2,142.1c-1.3-4.5-3.5-11.5-24.3-12.4c-0.5,0-0.9,0-1.4,0.1c0,0-20.6,2.3-5.9,16.9
		c3.5,3.5,7.8,5.3,12.3,6.1C183.8,151.2,193.1,145.2,192.2,142.1z"/>
	<path id="XMLID_1170_" class="st6" d="M122.4,128.9c1.7-6.1-15.8-7.5-22.9-7.9c-8.4,0.6-20.1,3.6-10.1,15.7c3.3,4,7.1,6.1,11.1,7
		C111.3,141.6,121.1,133.4,122.4,128.9z"/>
</g>
<g id="XMLID_1166_">
	<path id="XMLID_1168_" class="st8" d="M132.4,198.8c0,0-1.5-0.1-3.4,0c-0.7,0-1.4,0.1-2.1,0.2c0.1,0,0.1,0,0.2,0
		c-4.2,0.6-8.7,2.3-3.9,7.7c0.5,0.6,1,1,1.6,1.5c-2.1,1.4-2.9,3.3,0.1,5.8l0,0c0,0,0,0,0,0c0.4,0.4,0.9,0.7,1.5,1.1
		c2.2,1.4,3.8,1.9,5.1,1.8c3.1-0.2,4-3.8,4.2-7c5.3-1.4,10-5.1,10.6-7.2C147.5,199,132.4,198.8,132.4,198.8z"/>
	<path id="XMLID_1167_" class="st8" d="M169.1,202.5C169,202.5,169,202.5,169.1,202.5c-0.5-0.2-0.9-0.3-1.4-0.4
		c-0.2-0.1-0.4-0.1-0.5-0.2c-0.4-0.1-0.8-0.2-1.2-0.3c-0.3-0.1-0.6-0.2-0.9-0.2c-0.3-0.1-0.7-0.2-1-0.2c-0.4-0.1-0.9-0.2-1.4-0.3
		c-0.3,0-0.5-0.1-0.8-0.1c-0.8-0.1-1.5-0.3-2.4-0.4c0,0-24.3-3-0.3,8.6c0.2,0.1,0.3,0.1,0.4,0.2c0,0.6,0.1,1.1,0.2,1.8
		c0.5,3.7,2.6,5.9,5.2,7c0,0-0.1,0-0.1,0.1c2.2,0.9,4.7,1.1,6.8,0.9c0.2,0,0.3,0,0.4-0.1c0,0,0.1,0,0.1,0c2.3-0.3,4-1.2,4.3-2.2
		c0.3-1.1,0.8-2.6,0.5-4.2c0.3-0.1,0.5-0.3,0.7-0.5c0,0,0.1-0.1,0.1-0.1c0.1-0.1,0.2-0.2,0.3-0.2
		C180.1,209.5,177.5,205.3,169.1,202.5z"/>
</g>
<path id="XMLID_919_" class="st8" d="M166.6,129.8c0,0-20.6,2.3-5.9,16.9c14.7,14.6,43.1,0.6,41.6-4.5S198.1,128.4,166.6,129.8z"/>
<path id="XMLID_918_" class="st8" d="M106.5,120.9c0,0-31.8-1.9-17.2,15.8s40.9-0.3,43-7.8C134.5,121.3,106.5,120.9,106.5,120.9z"/>
<path id="XMLID_917_" class="st8" d="M89,164.6c0,0,9.2-3.6,8.1,5.8S82.7,172.8,89,164.6z"/>
<path id="XMLID_730_" class="st8" d="M193.9,170.5c0,0,9.2-3.6,8.1,5.8C201,185.7,187.6,178.6,193.9,170.5z"/>
<g id="XMLID_602_">
	<g id="XMLID_854_">
		<path id="XMLID_866_" class="st0" d="M359.9,308.1c-0.4-3.1-1.1-4.3-2.1-4.9c0,0-5-1.9-6.4,2.9c-1.4,4.7,2.8,5.6,3.4,5.6
			C355.4,311.6,360.3,311.2,359.9,308.1z M356.7,307.8c-0.1,0.2-0.5,0.5-1.2,0.6c-0.9,0.2-1.1-1.1-1.1-1.2c0-0.1,0.1-1.3,1.4-1
			S356.7,307.8,356.7,307.8z"/>
		<g id="XMLID_709_">
			<path id="XMLID_865_" class="st0" d="M366.1,309.5"/>
			<path id="XMLID_864_" class="st0" d="M369,309.3c0-1.2-0.1-2.9,0.4-3.3c0.6-0.5,2.7-0.3,2.4,1c-0.1,0.8-0.2,1.6-0.1,2.2
				c0,0.4,0,0.8,0,0.9c0,0.4,0.1,1,1.2,1.1c1.5,0.2,1.7-0.3,1.7-1.4s1.2-6.1-3.1-7c-3-0.7-4.6,1.1-5.3,2.5"/>
			<path id="XMLID_863_" class="st0" d="M369.2,305.8"/>
		</g>
		<g id="XMLID_858_">
			<path id="XMLID_861_" class="st0" d="M360.6,309.5c0.1,0.9,2.9,0.2,2.9-0.2c0-1.2-0.1-3,0.4-3.3c0.5-0.4,2-0.4,2.4,0.4
				c0.1,0.2,0.1,0.4,0.1,0.6c-0.2,0.8-0.2,1.6-0.2,2.2c0,0.4,0,0.8,0,0.8c0,0.4,0.2,1,1.2,1.2c1.5,0.1,1.7-0.3,1.7-1.4
				c0-1.1,1.2-6.1-3.1-7s-5.8,3-5.8,3.9C360.2,307.2,360.4,308.5,360.6,309.5"/>
			<path id="XMLID_860_" class="st0" d="M363.6,305.8"/>
			<path id="XMLID_708_" class="st0" d="M363.6,305.8c0.1,1.8,0,3.8-0.2,4.5c0,0-0.8,1.5-2.1,0.8c-1.2-0.7-1.4-7.8-0.6-8.1
				c0.8-0.3,2.3-1,2.6,0.6"/>
		</g>
		<path id="XMLID_857_" class="st0" d="M349.5,307.7c-0.2,0.1-0.4,0.4-0.6,0.6c-0.1,0.1-0.1,0.1-0.2,0.2c0,0-0.2,0.2-0.2,0.2
			c-0.6,0.3-1.8,0.6-2.4-0.6c0-0.1-0.1-0.5-0.1-0.6c0-0.2,0-0.3,0.1-0.5c0.1-1.4,0.6-2,1-2c0.5-0.1,1.5,0.3,1.8,0.9
			c0,0,0.2,1.2,1,1.1c0.7-0.2,2-0.9,0.9-2.2c-1-1.3-2-2.8-4.9-1.8s-2.4,4.6-2.2,4.9s1.6,5.3,5.5,3.1
			C353,308.6,349.9,307.5,349.5,307.7z"/>
		<path id="XMLID_705_" class="st0" d="M357,306.6"/>
		<path id="XMLID_855_" class="st0" d="M342.3,310.6c-0.1,0.2-0.4,0.5-1.2,0.7c-0.8,0.2-1-1.1-1-1.2c0-0.2,0.1-1.3,1.4-1.1
			S342.3,310.6,342.3,310.6z"/>
	</g>
	<g id="XMLID_841_">
		<path id="XMLID_702_" class="st9" d="M361.8,308c-0.4-3.1-1.1-4.3-2.1-4.9c0,0-5-1.9-6.4,2.9c-1.4,4.7,2.8,5.6,3.4,5.6
			C357.3,311.5,362.2,311.1,361.8,308z M358.6,307.7c-0.1,0.2-0.5,0.5-1.2,0.6c-0.9,0.2-1.1-1.1-1.1-1.2c0-0.1,0.2-1.3,1.4-1
			C359,306.3,358.6,307.7,358.6,307.7z"/>
		<g id="XMLID_849_">
			<path id="XMLID_852_" class="st9" d="M368,309.5"/>
			<path id="XMLID_851_" class="st9" d="M370.9,309.3c0-1.2-0.1-2.9,0.4-3.3c0.6-0.5,2.7-0.3,2.4,1c-0.1,0.8-0.2,1.6-0.1,2.2
				c0,0.4,0,0.8,0,0.9c0,0.4,0.1,1,1.2,1.1c1.5,0.2,1.7-0.3,1.7-1.4c0-1,1.2-6.1-3.1-7c-3.1-0.7-4.7,1.1-5.3,2.5"/>
			<path id="XMLID_701_" class="st9" d="M371.1,305.8"/>
		</g>
		<g id="XMLID_845_">
			<path id="XMLID_848_" class="st9" d="M362.5,309.5c0.1,0.9,2.9,0.2,2.9-0.2c0-1.2-0.1-3,0.4-3.3c0.5-0.4,2-0.4,2.3,0.4
				c0.1,0.2,0.1,0.4,0.1,0.6c-0.1,0.8-0.2,1.6-0.1,2.2c0,0.4,0,0.8,0,0.8c0,0.4,0.1,1,1.2,1.2c1.5,0.1,1.7-0.3,1.7-1.4
				c0-1,1.2-6.1-3.1-7c-4.3-0.9-5.8,3-5.8,3.9C362.2,307.2,362.3,308.4,362.5,309.5"/>
			<path id="XMLID_699_" class="st9" d="M365.5,305.8"/>
			<path id="XMLID_782_" class="st9" d="M365.5,305.8c0.1,1.8,0,3.8-0.2,4.5c0,0-0.8,1.5-2.1,0.8c-1.3-0.6-1.4-7.8-0.6-8.1
				c0.8-0.3,2.3-1,2.6,0.6"/>
		</g>
		<path id="XMLID_844_" class="st9" d="M351.4,307.6c-0.2,0.1-0.4,0.4-0.6,0.6c-0.1,0-0.1,0.1-0.1,0.2c-0.1,0.1-0.2,0.2-0.2,0.2
			c-0.7,0.3-1.9,0.6-2.4-0.6c0-0.1-0.1-0.5-0.1-0.6c0-0.2,0-0.4,0-0.5c0.1-1.4,0.6-2,1-2c0.6-0.1,1.5,0.3,1.8,0.9
			c0,0,0.2,1.2,0.9,1.1c0.7-0.2,2-0.9,1-2.2c-1-1.3-2.1-2.8-4.9-1.8c-2.8,1-2.3,4.6-2.2,4.9c0.1,0.2,1.6,5.3,5.5,3
			C354.9,308.6,351.8,307.5,351.4,307.6z"/>
		<path id="XMLID_696_" class="st9" d="M358.9,306.6"/>
		<path id="XMLID_842_" class="st9" d="M343.2,310.5c-0.1,0.2-0.5,0.5-1.2,0.7c-0.9,0.2-1.1-1.1-1.1-1.2c0-0.2,0.1-1.3,1.4-1.1
			C343.6,309.1,343.2,310.5,343.2,310.5z"/>
	</g>
</g>
<g id="XMLID_1034_">
	<g id="XMLID_1059_">
		<g id="XMLID_1063_">
			<g id="XMLID_1066_">
				<g id="XMLID_910_">
					<g id="XMLID_914_">
						<path id="XMLID_915_" class="st10" d="M126.2,275.1c0,0,13.5-9.1,0.7-15.5c-12.8-6.4-31.8,24.2-25.7,28.2
							C107.4,291.8,113.7,290.2,126.2,275.1z"/>
					</g>
					<g id="XMLID_729_">
						<path id="XMLID_913_" class="st10" d="M107.6,264.5c-0.2-2.7-0.3-5.5-0.5-8.5c0,0-2.2-12.8-13-8.3
							c-10.8,4.5-5.5,53.2-0.5,56.9c4.1,3.1,14,18.9,14.7-15.8"/>
						<path id="XMLID_912_" class="st10" d="M104.4,292.8c0,0,18-14.1,14.4,12.2c0,0,4.3,8.2,12.7,4.8c8.4-3.4,9.7-45.2-30.7-33.5"
							/>
					</g>
				</g>
				<g id="XMLID_907_">
					<path id="XMLID_909_" class="st11" d="M142.4,272.4c0,0-1.8-9-10.7-5.8c-8.8,3.2-4.5,37.2-0.4,39.9
						C135.4,309.1,146.8,325.3,142.4,272.4z"/>
					<path id="XMLID_908_" class="st11" d="M140.4,288.8c0,0,15.5-15.3,12.3,13.2c0,0,3.7,8.8,10.9,5.2c7.2-3.7,8.3-48.9-26.3-36.2"
						/>
				</g>
				<g id="XMLID_904_">
					<path id="XMLID_728_" class="st11" d="M186.3,272.2c0,0-4-2.8-5.7-0.6s-4.7,5.9-1.2,13.2c3.5,7.3,16.6,1.3,17.9-2.1"/>
					<path id="XMLID_905_" class="st11" d="M185.1,282.5c0.2,0.4,0.5,0.9,0.8,1.4c2.2,3.5,7,8.2,11.5,4.9c5.2-3.7,4.6-5.2,4.8-6.6
						c0,0,0,0,0,0c0.2-1.5-1.1-3.8-1.1-3.8l0,0c-2.4-6.5-7.7-11.5-15.8-12.4c-16.2-1.6-22.8,8.9-25.4,15.2c0,0-0.6,1-1,2.8
						c-0.3,1.1-0.4,2.1-0.3,2.5c-0.2,3.5,0.4,8.7,3.6,15.5c2.7,5.6,9.4,7.6,13.9,8.3c1.3,0.3,2.6,0.4,4.1,0.4c0.1,0,0.1,0,0.1,0l0,0
						c1.6,0,3.2-0.2,5-0.6c7.1-1.6,12-6.1,14.7-11.7c-0.4-6.4-6-7.2-9.3-7.7c-1.8-0.3-3.7,0.8-5.1,2c-0.1,0.1-0.3,0.2-0.4,0.4
						c-4.8,3.5-17.3-3.4-10.7-8.6c0,0,2.3-2.4,4.9-3.5h0c0,0,0.3-0.1,0.7-0.3"/>
				</g>
				<g id="XMLID_724_">
					<path id="XMLID_727_" class="st12" d="M234.7,278.8c0,0-0.8-14.9-10.9-10.5c-10.1,4.4-4.4,46.6,21.2,40.5s15.3-39.2,15.3-39.2
						s-10.7-9.5-12.5,6.9c0,0-0.6,11-5.6,11.9C237.2,289.2,234.2,281.5,234.7,278.8z"/>
					<g id="XMLID_901_">
						<path id="XMLID_902_" class="st12" d="M221.8,288c0,0-17.6,17.4-14.1-15.1c0,0-4.2-10.1-12.4-5.9c-8.2,4.2-9.5,55.9,30,41.4
							c0,0,10.6-4.1,13.5-6.2"/>
					</g>
				</g>
				<g id="XMLID_723_">
					<path id="XMLID_899_" class="st13" d="M281.2,272.2c0,0-4-2.8-5.7-0.6s-4.7,5.9-1.2,13.2s16.6,1.3,17.9-2.1"/>
					<path id="XMLID_898_" class="st13" d="M295.9,278.4L295.9,278.4c-2.4-6.5-7.7-11.5-15.8-12.4c-16.2-1.6-22.8,8.9-25.4,15.2
						c0,0-0.6,1-1,2.8c-0.3,1.1-0.4,2.1-0.3,2.5c-0.2,3.5,0.4,8.7,3.6,15.5c2.7,5.6,9.4,7.6,13.9,8.3c1.3,0.3,2.6,0.4,4.1,0.4
						c0.1,0,0.1,0,0.1,0l0,0c1.6,0,3.2-0.2,5-0.6c7.1-1.6,12-6.1,14.7-11.7c-0.4-6.4-6-7.2-9.3-7.7c-1.8-0.3-3.7,0.8-5.1,2
						c-0.1,0.1-0.3,0.2-0.4,0.4c-4.8,3.5-17.3-3.4-10.7-8.6c0,0,2.3-2.4,4.9-3.5h0c0,0,2.2-1.1,4-0.5c0.7,0.2,1.3,0.8,1.7,1.7
						c0,0,0,0.1,0.1,0.2c0.2,0.4,0.5,0.9,0.8,1.4c2.2,3.5,7,8.2,11.5,4.9c5.2-3.7,4.6-5.2,4.8-6.6c0,0,0,0,0,0
						C297.2,280.8,295.9,278.4,295.9,278.4z"/>
				</g>
				<g id="XMLID_893_">
					<path id="XMLID_896_" class="st14" d="M316,281.5c0,0,7.8-0.4,6.9-6.9c-0.7-5.2-22.4-14.6-31.3-3.3c-2.3,2.9-3.8,7.3-3.7,13.5
						c0,0,0,0.1,0,0.1c0.6,2.1,1.8,3.9,3.2,5.4c0.5,0.6,1.1,1.1,1.7,1.5c4,3.1,9.6,4.4,14.6,4.5c-0.7,2.8-4,4.4-14.7-0.8
						c0,0-7.8,0.4-6.9,6.9c0.7,5.2,22.5,14.6,31.4,3.3c2.3-2.9,3.8-7.3,3.7-13.5c0,0,0,0,0,0c-0.6-2.1-1.8-3.9-3.2-5.4
						c-0.5-0.6-1.1-1.1-1.7-1.5c-4-3.1-9.6-4.4-14.6-4.5C302,277.8,305.3,276.3,316,281.5z"/>
					<path id="XMLID_895_" class="st14" d="M306.1,289.5c0,0,7.5,16.1-13.6,5.8c0,0-7.8,0.4-6.9,6.9s35.3,19.8,35.1-10.2"/>
					<path id="XMLID_722_" class="st14" d="M301.3,283.9c-0.8-4.1,0.2-9.5,14.7-2.4c0,0,7.8-0.4,6.9-6.9s-35.3-19.8-35.1,10.2"/>
				</g>
				<g id="XMLID_721_">
					<path id="XMLID_1119_" class="st15" d="M326.2,278.4c0,0,7.4-24.8,0.9-31.1c0,0-14.9-14.3-15.3,12.6
						c-0.3,26.8-5.4,51.3,23.4,51.1c0,0,15.6-6.5,0-13.4C327.6,294.1,326.1,287.1,326.2,278.4"/>
					<path id="XMLID_892_" class="st15" d="M319.7,262.8c3.3-1.1,12.5-3.2,13.6,6.4c1.4,11.8-9.8,8.7-9.8,8.7"/>
				</g>
				<g id="XMLID_1112_">
					<path id="XMLID_1116_" class="st16" d="M136.9,271c0,0-1.2,0.6-1.9,2.7"/>
					<path id="XMLID_1114_" class="st16" d="M137.7,270.7c-1.3,0.6-2.8,0.6-3.2,0.5"/>
				</g>
				<g id="XMLID_1106_">
					<path id="XMLID_1110_" class="st16" d="M137.3,290c0,0,1.3,0.2,3.1-1.2"/>
					<path id="XMLID_1108_" class="st16" d="M136.5,289.8c1.4,0.2,2.7,1,3,1.4"/>
				</g>
				<g id="XMLID_1103_">
					<path id="XMLID_1105_" class="st16" d="M100.5,276.4c0,0-1.2,0.6-1.9,2.7"/>
					<path id="XMLID_1104_" class="st16" d="M101.3,276.1c-1.3,0.6-2.8,0.6-3.2,0.5"/>
				</g>
				<g id="XMLID_1097_">
					<path id="XMLID_1101_" class="st16" d="M101.8,293.6c0,0,1.3,0.1,3.1-1.2"/>
					<path id="XMLID_1099_" class="st16" d="M101,293.4c1.4,0.2,2.7,1,3,1.3"/>
				</g>
				<g id="XMLID_1090_">
					<path id="XMLID_1094_" class="st16" d="M107,268.3c0,0,0.9-1,0.7-3.2l-0.1-0.6"/>
					<path id="XMLID_1092_" class="st16" d="M106.3,268.9c1-1,2.3-1.7,2.8-1.7"/>
				</g>
				<g id="XMLID_1083_">
					<path id="XMLID_1088_" class="st16" d="M225,285.9c0,0-2.4,1-3.5,2.3"/>
					<path id="XMLID_1085_" class="st16" d="M222.8,284.8c-0.4,0.4-0.6,0.9-0.5,1.3c0.1,0.5,0,0.9,0,1.4"/>
				</g>
				<g id="XMLID_1077_">
					<path id="XMLID_1081_" class="st16" d="M316.8,263.3c0,0,2.1-0.1,3.6-0.7"/>
					<path id="XMLID_1079_" class="st16" d="M318.5,265.2c0.5-0.3,0.9-0.6,1-1.1c0.1-0.5,0.3-0.9,0.5-1.3"/>
				</g>
				<path id="XMLID_1074_" class="st10" d="M322.8,276.9c0,0,0,0.7,0.7,1"/>
				<g id="XMLID_1068_">
					<path id="XMLID_1072_" class="st16" d="M239.2,302c0,0,1-0.9,1.1-3.1"/>
					<path id="XMLID_1070_" class="st16" d="M238.8,302.2c1-0.7,2.2-1.2,2.6-1.1l0.5-0.1"/>
				</g>
			</g>
		</g>
		<path id="XMLID_1061_" class="st16" d="M306.8,291.2c0,0-0.5-0.9-2.7,0"/>
	</g>
	<line id="XMLID_719_" class="st8" x1="178" y1="308.5" x2="176.7" y2="308.2"/>
	<line id="XMLID_889_" class="st8" x1="202" y1="270.5" x2="200.7" y2="270.2"/>
	<line id="XMLID_888_" class="st8" x1="155" y1="273.5" x2="153.7" y2="273.2"/>
	<line id="XMLID_887_" class="st8" x1="124" y1="262.5" x2="122.7" y2="262.2"/>
	<line id="XMLID_886_" class="st8" x1="100" y1="251.5" x2="98.7" y2="251.2"/>
	<line id="XMLID_716_" class="st8" x1="329" y1="266.5" x2="327.7" y2="266.2"/>
	<line id="XMLID_884_" class="st8" x1="286" y1="293.5" x2="284.7" y2="293.2"/>
	<line id="XMLID_883_" class="st8" x1="307" y1="268.5" x2="305.7" y2="268.2"/>
	<line id="XMLID_882_" class="st8" x1="232" y1="284.5" x2="230.7" y2="284.2"/>
	<line id="XMLID_881_" class="st8" x1="283" y1="269.1" x2="281.7" y2="269.6"/>
	<line id="XMLID_715_" class="st8" x1="335" y1="299.5" x2="333.7" y2="299.2"/>
</g>
</svg>
