<?xml version="1.0" encoding="utf-8"?>
<!-- Generator: Adobe Illustrator 22.1.0, SVG Export Plug-In . SVG Version: 6.00 Build 0)  -->
<svg version="1.1" id="Layer_1" xmlns="http://www.w3.org/2000/svg" xmlns:xlink="http://www.w3.org/1999/xlink" x="0px" y="0px"
	 viewBox="0 0 6713.6 3771.2" style="enable-background:new 0 0 6713.6 3771.2;" xml:space="preserve">
<style type="text/css">
	.st0{fill:#5D5B4C;}
	.st1{fill:#EFE4DA;stroke:#5D5B4C;stroke-width:7;stroke-miterlimit:10;}
	.st2{fill:#FFF5EB;}
	.st3{fill:#FFF5EB;stroke:#5C5B4B;stroke-width:7;stroke-linecap:round;stroke-miterlimit:10;}
</style>
<g>
	<g>
		<path class="st0" d="M6713.6,803.7c0-1.6,0-4,0-5.6l0,0c0-58.4,0-160.8,0-163.2c0-4.8,0-206.4,0-210.4c0-3.2,0-100-1.6-161.6
			c0.8-1.6,0.8-2.4,0.8-4c0-0.8,0.8-36.8,0-38.4c0.8-8.8-4-18.4-19.2-25.6c-4.8-3.2-9.6-5.6-15.2-6.4c-0.8,0-37.6-0.8-38.4,0
			c-2.4,0-4.8,0-6.4,0.8c-113.6-1.6-394.4,0-521.6,0.8c-1.6-0.8-4-0.8-5.6-0.8c-7.2-0.8-35.2-0.8-42.4,0c-3.2,0-7.2,0.8-10.4,1.6
			c-4,0-6.4,0-6.4,0c-4.8,0-8,1.6-11.2,3.2c-121.6-0.8-384.8,0-507.2,1.6c-1.6-0.8-4-0.8-5.6-0.8h-0.8c-2.4-1.6-5.6-2.4-8-2.4
			c-0.8,0-37.6-0.8-38.4,0c-2.4,0-4.8,0-6.4,0.8c-112.8-1.6-390.4,0-519.2,0.8c-1.6-0.8-2.4-1.6-4-2.4c-4.8-3.2-9.6-5.6-15.2-6.4
			c-0.8,0-37.6-0.8-38.4,0c-2.4,0-4.8,0-6.4,0.8c-113.6-1.6-394.4,0-521.6,0.8c-1.6-0.8-4-0.8-5.6-0.8c-7.2-0.8-35.2-0.8-42.4,0
			c-1.6,0-3.2,0-4.8,0.8c-1.6,0-3.2,0-3.2,0c-2.4,0-4.8,0-6.4,0.8c-113.6-1.6-394.4,0-521.6,0.8c-1.6-0.8-4-0.8-5.6-0.8h-0.8
			c-2.4-1.6-5.6-2.4-8-2.4c-0.8,0-37.6-0.8-38.4,0c-2.4,0-4.8,0-6.4,0.8c-113.6-1.6-394.4,0-521.6,0.8c-1.6-0.8-4-0.8-5.6-0.8
			c-7.2-0.8-35.2-0.8-42.4,0c-3.2,0-7.2,0.8-10.4,1.6c-4,0-6.4,0-6.4,0c-4.8,0-8,1.6-11.2,3.2c-121.6-0.8-384.8,0-507.2,1.6
			c-1.6-0.8-4-0.8-5.6-0.8h-0.8c-2.4-1.6-5.6-2.4-8-2.4c-0.8,0-37.6-0.8-38.4,0c-2.4,0-4.8,0-6.4,0.8c-112.8-1.6-390.4,0-519.2,0.8
			c-1.6-0.8-2.4-1.6-4-2.4c-4.8-3.2-9.6-5.6-15.2-6.4c-0.8,0-37.6-0.8-38.4,0c-2.4,0-4.8,0-6.4,0.8c-113.6-1.6-394.4,0-521.6,0.8
			c-1.6-0.8-4-0.8-5.6-0.8h-0.8c-2.4-1.6-5.6-2.4-8-2.4c-0.8,0-37.6-0.8-38.4,0c-2.4,0-4.8,0-6.4,0.8c-113.6-1.6-394.4,0-521.6,0.8
			c-1.6-0.8-4-0.8-5.6-0.8c-7.2-0.8-35.2-0.8-42.4,0c-3.2,0-7.2,0.8-10.4,1.6c-4,0-6.4,0-6.4,0c-4.8,0-8,1.6-11.2,3.2
			c-121.6-0.8-384.8,0-507.2,1.6c-1.6-0.8-4-0.8-5.6-0.8c-7.2-0.8-35.2-0.8-42.4,0c-3.2,0-7.2,0.8-10.4,1.6c-4,0-6.4,0-6.4,0
			c-13.6,0.8-20,10.4-21.6,21.6c0,1.6,0,4.8-0.8,8.8l0,0c0,0,0,0.8,0,2.4c0,4,0,8,0,12c0,46.4,0,184.8,0,187.2
			c0,4.8,0,206.4,0,210.4c0,3.2,0,91.2,1.6,153.6c0,1.6-0.8,3.2-0.8,4.8s0,4.8-0.8,8.8l0,0c0,0,0,0.8,0,2.4c0,4,0,8,0,12s0,8,0,12.8
			c0,2.4,0,4,0,5.6c0,56.8,0,166.4,0,168.8c0,4.8,0,206.4,0,210.4c0,3.2,0,90.4,1.6,152.8c0,1.6-0.8,3.2-0.8,4.8
			c0,1.6,0,4.8-0.8,8.8l0,0c0,0,0,0.8,0,2.4c0,4,0,8,0,12s0,8.8,0,13.6c0,2.4,0,4,0,5.6s0,4,0,5.6l0,0c0,58.4,0,160,0,162.4
			c0,4.8,0,206.4,0,210.4c0,3.2,0,90.4,1.6,152.8c0,1.6-0.8,3.2-0.8,4.8c0,1.6,0,4.8-0.8,8.8l0,0c0,0,0,0.8,0,2.4c0,4,0,8,0,12
			s0,8.8,0,14.4c0,2.4,0,4,0,5.6s0,4,0,5.6l0,0c0,58.4,0,159.2,0,161.6c0,4.8,0,206.4,0,210.4c0,3.2,0,91.2,1.6,153.6
			c0,1.6-0.8,3.2-0.8,4.8s0,4.8-0.8,8.8l0,0c0,0,0,0.8,0,2.4c0,4,0,8,0,12s0,8,0,12.8c0,2.4,0,4,0,5.6c0,56.8,0,166.4,0,168.8
			c0,4.8,0,206.4,0,210.4c0,3.2,0,92.8,1.6,155.2c0,1.6-0.8,3.2-0.8,4.8s0,4.8-0.8,8.8l0,0c0,0,0,0.8,0,2.4c0,4,0,8,0,12
			c0,3.2,0,7.2,0,11.2c0,2.4,0,4,0,5.6c0,56,0,168,0,170.4c0,4.8,0,206.4,0,210.4c0,3.2,0,100,1.6,161.6c-0.8,1.6-0.8,2.4-0.8,4
			c0,0.8-0.8,36.8,0,38.4c-0.8,8.8,4,18.4,19.2,25.6c4.8,3.2,9.6,5.6,15.2,6.4c0.8,0,37.6,0.8,38.4,0c2.4,0,4.8,0,6.4-0.8
			c113.6,1.6,394.4,0,521.6-0.8c1.6,0.8,4,0.8,5.6,0.8c7.2,0.8,35.2,0.8,42.4,0c3.2,0,7.2-0.8,10.4-1.6c4,0,6.4,0,6.4,0
			c4.8,0,8-1.6,11.2-3.2c121.6,0.8,384.8,0,507.2-1.6c1.6,0.8,4,0.8,5.6,0.8h0.8c2.4,1.6,5.6,2.4,8,2.4c0.8,0,37.6,0.8,38.4,0
			c2.4,0,4.8,0,6.4-0.8c112.8,1.6,390.4,0,519.2-0.8c1.6,0.8,2.4,1.6,4,2.4c4.8,3.2,9.6,5.6,15.2,6.4c0.8,0,37.6,0.8,38.4,0
			c2.4,0,4.8,0,6.4-0.8c113.6,1.6,394.4,0,521.6-0.8c1.6,0.8,4,0.8,5.6,0.8h0.8c2.4,1.6,5.6,2.4,8,2.4c0.8,0,37.6,0.8,38.4,0
			c2.4,0,4.8,0,6.4-0.8c113.6,1.6,394.4,0,521.6-0.8c1.6,0.8,4,0.8,5.6,0.8c7.2,0.8,35.2,0.8,42.4,0c3.2,0,7.2-0.8,10.4-1.6
			c4,0,6.4,0,6.4,0c4.8,0,8-1.6,11.2-3.2c121.6,0.8,384.8,0,507.2-1.6c1.6,0.8,4,0.8,5.6,0.8h0.8c2.4,1.6,5.6,2.4,8,2.4
			c0.8,0,37.6,0.8,38.4,0c2.4,0,4.8,0,6.4-0.8c113.6,1.6,394.4,0,521.6-0.8c1.6,0.8,4,0.8,5.6,0.8c7.2,0.8,35.2,0.8,42.4,0
			c1.6,0,3.2,0,4.8-0.8c1.6,0,3.2,0,3.2,0c2.4,0,4.8,0,6.4-0.8c112.8,1.6,390.4,0,519.2-0.8c1.6,0.8,2.4,1.6,4,2.4
			c4.8,3.2,9.6,5.6,15.2,6.4c0.8,0,37.6,0.8,38.4,0c2.4,0,4.8,0,6.4-0.8c113.6,1.6,394.4,0,521.6-0.8c1.6,0.8,4,0.8,5.6,0.8h0.8
			c2.4,1.6,5.6,2.4,8,2.4c0.8,0,37.6,0.8,38.4,0c2.4,0,4.8,0,6.4-0.8c113.6,1.6,394.4,0,521.6-0.8c1.6,0.8,4,0.8,5.6,0.8
			c7.2,0.8,35.2,0.8,42.4,0c3.2,0,7.2-0.8,10.4-1.6c4,0,6.4,0,6.4,0c4.8,0,8-1.6,11.2-3.2c121.6,0.8,384.8,0,507.2-1.6
			c1.6,0.8,4,0.8,5.6,0.8c7.2,0.8,35.2,0.8,42.4,0c3.2,0,7.2-0.8,10.4-1.6c4,0,6.4,0,6.4,0c13.6-0.8,20-10.4,21.6-21.6
			c0-1.6,0-4.8,0.8-8.8l0,0c0,0,0-0.8,0-2.4c0-4,0-8,0-12c0-46.4,0-184.8,0-187.2c0-4.8,0-206.4,0-210.4c0-3.2,0-92.8-1.6-155.2
			c0-1.6,0.8-3.2,0.8-4.8s0-4.8,0.8-8.8l0,0c0,0,0-0.8,0-2.4c0-4,0-8,0-12c0-3.2,0-7.2,0-11.2c0-2.4,0-4,0-5.6c0-56,0-168,0-170.4
			c0-4.8,0-206.4,0-210.4c0-3.2,0-91.2-1.6-153.6c0-1.6,0.8-3.2,0.8-4.8s0-4.8,0.8-8.8l0,0c0,0,0-0.8,0-2.4c0-4,0-8,0-12s0-8,0-12.8
			c0-2.4,0-4,0-5.6s0-4,0-5.6l0,0c0-58.4,0-160.8,0-163.2c0-4.8,0-206.4,0-210.4c0-3.2,0-90.4-1.6-152.8c0-1.6,0.8-3.2,0.8-4.8
			c0-1.6,0-4.8,0.8-8.8l0,0c0,0,0-0.8,0-2.4c0-4,0-8,0-12s0-8.8,0-13.6c0-2.4,0-4,0-5.6s0-4,0-5.6l0,0c0-58.4,0-159.2,0-161.6
			c0-4.8,0-206.4,0-210.4c0-3.2,0-90.4-1.6-152.8c0-1.6,0.8-3.2,0.8-4.8c0-1.6,0-4.8,0.8-8.8l0,0c0,0,0-0.8,0-2.4c0-4,0-8,0-12
			s0-8.8,0-13.6c0-2.4,0-4,0-5.6s0-4,0-5.6l0,0c0-58.4,0-160,0-162.4c0-4.8,0-206.4,0-210.4c0-3.2,0-91.2-1.6-153.6
			c0-1.6,0.8-3.2,0.8-4.8s0-4.8,0.8-8.8l0,0c0,0,0-0.8,0-2.4c0-4,0-8,0-12s0-8,0-12.8C6713.6,806.9,6713.6,805.3,6713.6,803.7z"/>
	</g>
	<g>
		<path class="st1" d="M6609.6,715.7c0-1.6,0-4,0-5.6l0,0c0-58.4,0-160.8,0-163.2c0-4.8,0-206.4,0-210.4c0-3.2,0-100-1.6-161.6
			c0.8-1.6,0.8-2.4,0.8-4c0-0.8,0.8-36.8,0-38.4c0.8-8.8-4-18.4-19.2-25.6c-4.8-3.2-9.6-5.6-15.2-6.4c-0.8,0-37.6-0.8-38.4,0
			c-2.4,0-4.8,0-6.4,0.8c-113.6-1.6-394.4,0-521.6,0.8c-1.6-0.8-4-0.8-5.6-0.8c-7.2-0.8-35.2-0.8-42.4,0c-3.2,0-7.2,0.8-10.4,1.6
			c-4,0-6.4,0-6.4,0c-4.8,0-8,1.6-11.2,3.2c-121.6-0.8-384.8,0-507.2,1.6c-1.6-0.8-4-0.8-5.6-0.8h-0.8c-2.4-1.6-5.6-2.4-8-2.4
			c-0.8,0-37.6-0.8-38.4,0c-2.4,0-4.8,0-6.4,0.8c-112.8-1.6-390.4,0-519.2,0.8c-1.6-0.8-2.4-1.6-4-2.4c-4.8-3.2-9.6-5.6-15.2-6.4
			c-0.8,0-37.6-0.8-38.4,0c-2.4,0-4.8,0-6.4,0.8c-113.6-1.6-394.4,0-521.6,0.8c-1.6-0.8-4-0.8-5.6-0.8c-7.2-0.8-35.2-0.8-42.4,0
			c-1.6,0-3.2,0-4.8,0.8c-1.6,0-3.2,0-3.2,0c-2.4,0-4.8,0-6.4,0.8c-113.6-1.6-394.4,0-521.6,0.8c-1.6-0.8-4-0.8-5.6-0.8h-0.8
			c-2.4-1.6-5.6-2.4-8-2.4c-0.8,0-37.6-0.8-38.4,0c-2.4,0-4.8,0-6.4,0.8c-113.6-1.6-394.4,0-521.6,0.8c-1.6-0.8-4-0.8-5.6-0.8
			c-7.2-0.8-35.2-0.8-42.4,0c-3.2,0-7.2,0.8-10.4,1.6c-4,0-6.4,0-6.4,0c-4.8,0-8,1.6-11.2,3.2c-121.6-0.8-384.8,0-507.2,1.6
			c-1.6-0.8-4-0.8-5.6-0.8h-0.8c-2.4-1.6-5.6-2.4-8-2.4c-0.8,0-37.6-0.8-38.4,0c-2.4,0-4.8,0-6.4,0.8c-112.8-1.6-390.4,0-519.2,0.8
			c-1.6-0.8-2.4-1.6-4-2.4c-4.8-3.2-9.6-5.6-15.2-6.4c-0.8,0-37.6-0.8-38.4,0c-2.4,0-4.8,0-6.4,0.8c-113.6-1.6-394.4,0-521.6,0.8
			c-1.6-0.8-4-0.8-5.6-0.8h-0.8c-2.4-1.6-5.6-2.4-8-2.4c-0.8,0-37.6-0.8-38.4,0c-2.4,0-4.8,0-6.4,0.8c-113.6-1.6-394.4,0-521.6,0.8
			c-1.6-0.8-4-0.8-5.6-0.8c-7.2-0.8-35.2-0.8-42.4,0c-3.2,0-7.2,0.8-10.4,1.6c-4,0-6.4,0-6.4,0c-4.8,0-8,1.6-11.2,3.2
			c-121.6-0.8-384.8,0-507.2,1.6c-1.6-0.8-4-0.8-5.6-0.8c-7.2-0.8-35.2-0.8-42.4,0c-3.2,0-7.2,0.8-10.4,1.6c-4,0-6.4,0-6.4,0
			c-13.6,0.8-20,10.4-21.6,21.6c0,1.6,0,4.8-0.8,8.8l0,0c0,0,0,0.8,0,2.4c0,4,0,8,0,12c0,46.4,0,184.8,0,187.2
			c0,4.8,0,206.4,0,210.4c0,3.2,0,91.2,1.6,153.6c0,1.6-0.8,3.2-0.8,4.8s0,4.8-0.8,8.8l0,0c0,0,0,0.8,0,2.4c0,4,0,8,0,12s0,8,0,12.8
			c0,2.4,0,4,0,5.6c0,56.8,0,166.4,0,168.8c0,4.8,0,206.4,0,210.4c0,3.2,0,90.4,1.6,152.8c0,1.6-0.8,3.2-0.8,4.8
			c0,1.6,0,4.8-0.8,8.8l0,0c0,0,0,0.8,0,2.4c0,4,0,8,0,12s0,8.8,0,13.6c0,2.4,0,4,0,5.6s0,4,0,5.6l0,0c0,58.4,0,160,0,162.4
			c0,4.8,0,206.4,0,210.4c0,3.2,0,90.4,1.6,152.8c0,1.6-0.8,3.2-0.8,4.8c0,1.6,0,4.8-0.8,8.8l0,0c0,0,0,0.8,0,2.4c0,4,0,8,0,12
			s0,8.8,0,14.4c0,2.4,0,4,0,5.6s0,4,0,5.6l0,0c0,58.4,0,159.2,0,161.6c0,4.8,0,206.4,0,210.4c0,3.2,0,91.2,1.6,153.6
			c0,1.6-0.8,3.2-0.8,4.8s0,4.8-0.8,8.8l0,0c0,0,0,0.8,0,2.4c0,4,0,8,0,12s0,8,0,12.8c0,2.4,0,4,0,5.6c0,56.8,0,166.4,0,168.8
			c0,4.8,0,206.4,0,210.4c0,3.2,0,92.8,1.6,155.2c0,1.6-0.8,3.2-0.8,4.8s0,4.8-0.8,8.8l0,0c0,0,0,0.8,0,2.4c0,4,0,8,0,12
			c0,3.2,0,7.2,0,11.2c0,2.4,0,4,0,5.6c0,56,0,168,0,170.4c0,4.8,0,206.4,0,210.4c0,3.2,0,100,1.6,161.6c-0.8,1.6-0.8,2.4-0.8,4
			c0,0.8-0.8,36.8,0,38.4c-0.8,8.8,4,18.4,19.2,25.6c4.8,3.2,9.6,5.6,15.2,6.4c0.8,0,37.6,0.8,38.4,0c2.4,0,4.8,0,6.4-0.8
			c113.6,1.6,394.4,0,521.6-0.8c1.6,0.8,4,0.8,5.6,0.8c7.2,0.8,35.2,0.8,42.4,0c3.2,0,7.2-0.8,10.4-1.6c4,0,6.4,0,6.4,0
			c4.8,0,8-1.6,11.2-3.2c121.6,0.8,384.8,0,507.2-1.6c1.6,0.8,4,0.8,5.6,0.8h0.8c2.4,1.6,5.6,2.4,8,2.4c0.8,0,37.6,0.8,38.4,0
			c2.4,0,4.8,0,6.4-0.8c112.8,1.6,390.4,0,519.2-0.8c1.6,0.8,2.4,1.6,4,2.4c4.8,3.2,9.6,5.6,15.2,6.4c0.8,0,37.6,0.8,38.4,0
			c2.4,0,4.8,0,6.4-0.8c113.6,1.6,394.4,0,521.6-0.8c1.6,0.8,4,0.8,5.6,0.8h0.8c2.4,1.6,5.6,2.4,8,2.4c0.8,0,37.6,0.8,38.4,0
			c2.4,0,4.8,0,6.4-0.8c113.6,1.6,394.4,0,521.6-0.8c1.6,0.8,4,0.8,5.6,0.8c7.2,0.8,35.2,0.8,42.4,0c3.2,0,7.2-0.8,10.4-1.6
			c4,0,6.4,0,6.4,0c4.8,0,8-1.6,11.2-3.2c121.6,0.8,384.8,0,507.2-1.6c1.6,0.8,4,0.8,5.6,0.8h0.8c2.4,1.6,5.6,2.4,8,2.4
			c0.8,0,37.6,0.8,38.4,0c2.4,0,4.8,0,6.4-0.8c113.6,1.6,394.4,0,521.6-0.8c1.6,0.8,4,0.8,5.6,0.8c7.2,0.8,35.2,0.8,42.4,0
			c1.6,0,3.2,0,4.8-0.8c1.6,0,3.2,0,3.2,0c2.4,0,4.8,0,6.4-0.8c112.8,1.6,390.4,0,519.2-0.8c1.6,0.8,2.4,1.6,4,2.4
			c4.8,3.2,9.6,5.6,15.2,6.4c0.8,0,37.6,0.8,38.4,0c2.4,0,4.8,0,6.4-0.8c113.6,1.6,394.4,0,521.6-0.8c1.6,0.8,4,0.8,5.6,0.8h0.8
			c2.4,1.6,5.6,2.4,8,2.4c0.8,0,37.6,0.8,38.4,0c2.4,0,4.8,0,6.4-0.8c113.6,1.6,394.4,0,521.6-0.8c1.6,0.8,4,0.8,5.6,0.8
			c7.2,0.8,35.2,0.8,42.4,0c3.2,0,7.2-0.8,10.4-1.6c4,0,6.4,0,6.4,0c4.8,0,8-1.6,11.2-3.2c121.6,0.8,384.8,0,507.2-1.6
			c1.6,0.8,4,0.8,5.6,0.8c7.2,0.8,35.2,0.8,42.4,0c3.2,0,7.2-0.8,10.4-1.6c4,0,6.4,0,6.4,0c13.6-0.8,20-10.4,21.6-21.6
			c0-1.6,0-4.8,0.8-8.8l0,0c0,0,0-0.8,0-2.4c0-4,0-8,0-12c0-46.4,0-184.8,0-187.2c0-4.8,0-206.4,0-210.4c0-3.2,0-92.8-1.6-155.2
			c0-1.6,0.8-3.2,0.8-4.8s0-4.8,0.8-8.8l0,0c0,0,0-0.8,0-2.4c0-4,0-8,0-12c0-3.2,0-7.2,0-11.2c0-2.4,0-4,0-5.6c0-56,0-168,0-170.4
			c0-4.8,0-206.4,0-210.4c0-3.2,0-91.2-1.6-153.6c0-1.6,0.8-3.2,0.8-4.8s0-4.8,0.8-8.8l0,0c0,0,0-0.8,0-2.4c0-4,0-8,0-12s0-8,0-12.8
			c0-2.4,0-4,0-5.6s0-4,0-5.6l0,0c0-58.4,0-160.8,0-163.2c0-4.8,0-206.4,0-210.4c0-3.2,0-90.4-1.6-152.8c0-1.6,0.8-3.2,0.8-4.8
			c0-1.6,0-4.8,0.8-8.8l0,0c0,0,0-0.8,0-2.4c0-4,0-8,0-12s0-8.8,0-13.6c0-2.4,0-4,0-5.6s0-4,0-5.6l0,0c0-58.4,0-159.2,0-161.6
			c0-4.8,0-206.4,0-210.4c0-3.2,0-90.4-1.6-152.8c0-1.6,0.8-3.2,0.8-4.8c0-1.6,0-4.8,0.8-8.8l0,0c0,0,0-0.8,0-2.4c0-4,0-8,0-12
			s0-8.8,0-13.6c0-2.4,0-4,0-5.6s0-4,0-5.6l0,0c0-58.4,0-160,0-162.4c0-4.8,0-206.4,0-210.4c0-3.2,0-91.2-1.6-153.6
			c0-1.6,0.8-3.2,0.8-4.8s0-4.8,0.8-8.8l0,0c0,0,0-0.8,0-2.4c0-4,0-8,0-12s0-8,0-12.8C6609.6,718.9,6609.6,717.3,6609.6,715.7z"/>
	</g>
	<g>
		<path class="st2" d="M6521.6,627.7c0-1.6,0-4,0-5.6l0,0c0-58.4,0-160.8,0-163.2c0-4.8,0-206.4,0-210.4c0-3.2,0-100-1.6-161.6
			c0.8-1.6,0.8-2.4,0.8-4c0-0.8,0.8-36.8,0-38.4c0.8-8.8-4-18.4-19.2-25.6c-4.8-3.2-9.6-5.6-15.2-6.4c-0.8,0-37.6-0.8-38.4,0
			c-2.4,0-4.8,0-6.4,0.8c-113.6-1.6-394.4,0-521.6,0.8c-1.6-0.8-4-0.8-5.6-0.8c-7.2-0.8-35.2-0.8-42.4,0c-3.2,0-7.2,0.8-10.4,1.6
			c-4,0-6.4,0-6.4,0c-4.8,0-8,1.6-11.2,3.2c-121.6-0.8-384.8,0-507.2,1.6c-1.6-0.8-4-0.8-5.6-0.8h-0.8c-2.4-1.6-5.6-2.4-8-2.4
			c-0.8,0-37.6-0.8-38.4,0c-2.4,0-4.8,0-6.4,0.8c-112.8-1.6-390.4,0-519.2,0.8c-1.6-0.8-2.4-1.6-4-2.4c-4.8-3.2-9.6-5.6-15.2-6.4
			c-0.8,0-37.6-0.8-38.4,0c-2.4,0-4.8,0-6.4,0.8c-113.6-1.6-394.4,0-521.6,0.8c-1.6-0.8-4-0.8-5.6-0.8c-7.2-0.8-35.2-0.8-42.4,0
			c-1.6,0-3.2,0-4.8,0.8c-1.6,0-3.2,0-3.2,0c-2.4,0-4.8,0-6.4,0.8c-113.6-1.6-394.4,0-521.6,0.8c-1.6-0.8-4-0.8-5.6-0.8h-0.8
			c-2.4-1.6-5.6-2.4-8-2.4c-0.8,0-37.6-0.8-38.4,0c-2.4,0-4.8,0-6.4,0.8c-113.6-1.6-394.4,0-521.6,0.8c-1.6-0.8-4-0.8-5.6-0.8
			c-7.2-0.8-35.2-0.8-42.4,0c-3.2,0-7.2,0.8-10.4,1.6c-4,0-6.4,0-6.4,0c-4.8,0-8,1.6-11.2,3.2c-121.6-0.8-384.8,0-507.2,1.6
			c-1.6-0.8-4-0.8-5.6-0.8h-0.8c-2.4-1.6-5.6-2.4-8-2.4c-0.8,0-37.6-0.8-38.4,0c-2.4,0-4.8,0-6.4,0.8c-112.8-1.6-390.4,0-519.2,0.8
			c-1.6-0.8-2.4-1.6-4-2.4c-4.8-3.2-9.6-5.6-15.2-6.4c-0.8,0-37.6-0.8-38.4,0c-2.4,0-4.8,0-6.4,0.8c-113.6-1.6-394.4,0-521.6,0.8
			c-1.6-0.8-4-0.8-5.6-0.8h-0.8c-2.4-1.6-5.6-2.4-8-2.4c-0.8,0-37.6-0.8-38.4,0c-2.4,0-4.8,0-6.4,0.8C1088,3.7,807.2,5.3,680,6.1
			c-1.6-0.8-4-0.8-5.6-0.8c-7.2-0.8-35.2-0.8-42.4,0c-3.2,0-7.2,0.8-10.4,1.6c-4,0-6.4,0-6.4,0c-4.8,0-8,1.6-11.2,3.2
			c-121.6-0.8-384.8,0-507.2,1.6c-1.6-0.8-4-0.8-5.6-0.8c-7.2-0.8-35.2-0.8-42.4,0c-8.8-8-12.8-7.2-16-6.4c-4,0-6.4,0-6.4,0
			C12.8,5.3,5.6,14.9,4.8,26.1c0,1.6,0,4.8-0.8,8.8l0,0c0,0,0,0.8,0,2.4c0,4,0,8,0,12c0,46.4,0,184.8,0,187.2c0,4.8,0,206.4,0,210.4
			c0,3.2,0,91.2,1.6,153.6c0,1.6-0.8,3.2-0.8,4.8s0,4.8-0.8,8.8l0,0c0,0,0,0.8,0,2.4c0,4,0,8,0,12s0,8,0,12.8c0,2.4,0,4,0,5.6
			c0,56.8,0,166.4,0,168.8c0,4.8,0,206.4,0,210.4c0,3.2,0,90.4,1.6,152.8c0,1.6-0.8,3.2-0.8,4.8c0,1.6,0,4.8-0.8,8.8l0,0
			c0,0,0,0.8,0,2.4c0,4,0,8,0,12s0,8.8,0,13.6c0,2.4,0,4,0,5.6s0,4,0,5.6l0,0c0,58.4,0,160,0,162.4c0,4.8,0,206.4,0,210.4
			c0,3.2,0,90.4,1.6,152.8c0,1.6-0.8,3.2-0.8,4.8c0,1.6,0,4.8-0.8,8.8l0,0c0,0,0,0.8,0,2.4c0,4,0,8,0,12s0,8.8,0,14.4
			c0,2.4,0,4,0,5.6s0,4,0,5.6l0,0c0,58.4,0,159.2,0,161.6c0,4.8,0,206.4,0,210.4c0,3.2,0,91.2,1.6,153.6c0,1.6-0.8,3.2-0.8,4.8
			s0,4.8-0.8,8.8l0,0c0,0,0,0.8,0,2.4c0,4,0,8,0,12s0,8,0,12.8c0,2.4,0,4,0,5.6c0,56.8,0,166.4,0,168.8c0,4.8,0,206.4,0,210.4
			c0,3.2,0,92.8,1.6,155.2c0,1.6-0.8,3.2-0.8,4.8s0,4.8-0.8,8.8l0,0c0,0,0,0.8,0,2.4c0,4,0,8,0,12c0,3.2,0,7.2,0,11.2
			c0,2.4,0,4,0,5.6c0,56,0,168,0,170.4c0,4.8,0,206.4,0,210.4c0,3.2,0,100,1.6,161.6c-0.8,1.6-0.8,2.4-0.8,4c0,0.8-0.8,36.8,0,38.4
			c-0.8,8.8,4,18.4,19.2,25.6c4.8,3.2,9.6,5.6,15.2,6.4c0.8,0,37.6,0.8,38.4,0c2.4,0,4.8,0,6.4-0.8c113.6,1.6,394.4,0,521.6-0.8
			c1.6,0.8,4,0.8,5.6,0.8c7.2,0.8,35.2,0.8,42.4,0c3.2,0,7.2-0.8,10.4-1.6c4,0,6.4,0,6.4,0c4.8,0,8-1.6,11.2-3.2
			c121.6,0.8,384.8,0,507.2-1.6c1.6,0.8,4,0.8,5.6,0.8h0.8c2.4,1.6,5.6,2.4,8,2.4c0.8,0,37.6,0.8,38.4,0c2.4,0,4.8,0,6.4-0.8
			c112.8,1.6,390.4,0,519.2-0.8c1.6,0.8,2.4,1.6,4,2.4c4.8,3.2,9.6,5.6,15.2,6.4c0.8,0,37.6,0.8,38.4,0c2.4,0,4.8,0,6.4-0.8
			c113.6,1.6,394.4,0,521.6-0.8c1.6,0.8,4,0.8,5.6,0.8h0.8c2.4,1.6,5.6,2.4,8,2.4c0.8,0,37.6,0.8,38.4,0c2.4,0,4.8,0,6.4-0.8
			c113.6,1.6,394.4,0,521.6-0.8c1.6,0.8,4,0.8,5.6,0.8c7.2,0.8,35.2,0.8,42.4,0c3.2,0,7.2-0.8,10.4-1.6c4,0,6.4,0,6.4,0
			c4.8,0,8-1.6,11.2-3.2c121.6,0.8,384.8,0,507.2-1.6c1.6,0.8,4,0.8,5.6,0.8h0.8c2.4,1.6,5.6,2.4,8,2.4c0.8,0,37.6,0.8,38.4,0
			c2.4,0,4.8,0,6.4-0.8c113.6,1.6,394.4,0,521.6-0.8c1.6,0.8,4,0.8,5.6,0.8c7.2,0.8,35.2,0.8,42.4,0c1.6,0,3.2,0,4.8-0.8
			c1.6,0,3.2,0,3.2,0c2.4,0,4.8,0,6.4-0.8c112.8,1.6,390.4,0,519.2-0.8c1.6,0.8,2.4,1.6,4,2.4c4.8,3.2,9.6,5.6,15.2,6.4
			c0.8,0,37.6,0.8,38.4,0c2.4,0,4.8,0,6.4-0.8c113.6,1.6,394.4,0,521.6-0.8c1.6,0.8,4,0.8,5.6,0.8h0.8c2.4,1.6,5.6,2.4,8,2.4
			c0.8,0,37.6,0.8,38.4,0c2.4,0,4.8,0,6.4-0.8c113.6,1.6,394.4,0,521.6-0.8c1.6,0.8,4,0.8,5.6,0.8c7.2,0.8,35.2,0.8,42.4,0
			c3.2,0,7.2-0.8,10.4-1.6c4,0,6.4,0,6.4,0c4.8,0,8-1.6,11.2-3.2c121.6,0.8,384.8,0,507.2-1.6c1.6,0.8,4,0.8,5.6,0.8
			c7.2,0.8,35.2,0.8,42.4,0c3.2,0,7.2-0.8,10.4-1.6c4,0,6.4,0,6.4,0c13.6-0.8,20-10.4,21.6-21.6c0-1.6,0-4.8,0.8-8.8l0,0
			c0,0,0-0.8,0-2.4c0-4,0-8,0-12c0-46.4,0-184.8,0-187.2c0-4.8,0-206.4,0-210.4c0-3.2,0-92.8-1.6-155.2c0-1.6,0.8-3.2,0.8-4.8
			s0-4.8,0.8-8.8l0,0c0,0,0-0.8,0-2.4c0-4,0-8,0-12c0-3.2,0-7.2,0-11.2c0-2.4,0-4,0-5.6c0-56,0-168,0-170.4c0-4.8,0-206.4,0-210.4
			c0-3.2,0-91.2-1.6-153.6c0-1.6,0.8-3.2,0.8-4.8s0-4.8,0.8-8.8l0,0c0,0,0-0.8,0-2.4c0-4,0-8,0-12s0-8,0-12.8c0-2.4,0-4,0-5.6
			s0-4,0-5.6l0,0c0-58.4,0-160.8,0-163.2c0-4.8,0-206.4,0-210.4c0-3.2,0-90.4-1.6-152.8c0-1.6,0.8-3.2,0.8-4.8c0-1.6,0-4.8,0.8-8.8
			l0,0c0,0,0-0.8,0-2.4c0-4,0-8,0-12s0-8.8,0-13.6c0-2.4,0-4,0-5.6s0-4,0-5.6l0,0c0-58.4,0-159.2,0-161.6c0-4.8,0-206.4,0-210.4
			c0-3.2,0-90.4-1.6-152.8c0-1.6,0.8-3.2,0.8-4.8c0-1.6,0-4.8,0.8-8.8l0,0c0,0,0-0.8,0-2.4c0-4,0-8,0-12s0-8.8,0-13.6
			c0-2.4,0-4,0-5.6s0-4,0-5.6l0,0c0-58.4,0-160,0-162.4c0-4.8,0-206.4,0-210.4c0-3.2,0-91.2-1.6-153.6c0-1.6,0.8-3.2,0.8-4.8
			s0-4.8,0.8-8.8l0,0c0,0,0-0.8,0-2.4c0-4,0-8,0-12s0-8,0-12.8C6521.6,630.9,6521.6,629.3,6521.6,627.7z"/>
	</g>
	<g>
		<path class="st3" d="M6521.6,248.5c0-3.2,0-100-1.6-161.6c0.8-1.6,0.8-2.4,0.8-4c0-0.8,0.8-36.8,0-38.4c0.8-8.8-4-18.4-19.2-25.6
			c-4.8-3.2-9.6-5.6-15.2-6.4c-0.8,0-37.6-0.8-38.4,0c-2.4,0-4.8,0-6.4,0.8c-113.6-1.6-394.4,0-521.6,0.8c-1.6-0.8-4-0.8-5.6-0.8
			c-7.2-0.8-35.2-0.8-42.4,0c-3.2,0-7.2,0.8-10.4,1.6c-4,0-6.4,0-6.4,0c-4.8,0-8,1.6-11.2,3.2c-121.6-0.8-384.8,0-507.2,1.6
			c-1.6-0.8-4-0.8-5.6-0.8h-0.8c-2.4-1.6-5.6-2.4-8-2.4c-0.8,0-37.6-0.8-38.4,0c-2.4,0-4.8,0-6.4,0.8c-112.8-1.6-390.4,0-519.2,0.8
			c-1.6-0.8-2.4-1.6-4-2.4c-4.8-3.2-9.6-5.6-15.2-6.4c-0.8,0-37.6-0.8-38.4,0c-2.4,0-4.8,0-6.4,0.8c-113.6-1.6-394.4,0-521.6,0.8
			c-1.6-0.8-4-0.8-5.6-0.8c-7.2-0.8-35.2-0.8-42.4,0c-1.6,0-3.2,0-4.8,0.8c-1.6,0-3.2,0-3.2,0c-2.4,0-4.8,0-6.4,0.8
			c-113.6-1.6-394.4,0-521.6,0.8c-1.6-0.8-4-0.8-5.6-0.8h-0.8c-2.4-1.6-5.6-2.4-8-2.4c-0.8,0-37.6-0.8-38.4,0c-2.4,0-4.8,0-6.4,0.8
			c-113.6-1.6-394.4,0-521.6,0.8c-1.6-0.8-4-0.8-5.6-0.8c-7.2-0.8-35.2-0.8-42.4,0c-3.2,0-7.2,0.8-10.4,1.6c-4,0-6.4,0-6.4,0
			c-4.8,0-8,1.6-11.2,3.2c-121.6-0.8-384.8,0-507.2,1.6c-1.6-0.8-4-0.8-5.6-0.8h-0.8c-2.4-1.6-5.6-2.4-8-2.4c-0.8,0-37.6-0.8-38.4,0
			c-2.4,0-4.8,0-6.4,0.8c-112.8-1.6-390.4,0-519.2,0.8c-1.6-0.8-2.4-1.6-4-2.4c-4.8-3.2-9.6-5.6-15.2-6.4c-0.8,0-37.6-0.8-38.4,0
			c-2.4,0-4.8,0-6.4,0.8c-113.6-1.6-394.4,0-521.6,0.8c-1.6-0.8-4-0.8-5.6-0.8h-0.8c-2.4-1.6-5.6-2.4-8-2.4c-0.8,0-37.6-0.8-38.4,0
			c-2.4,0-4.8,0-6.4,0.8C1088,3.7,807.2,5.3,680,6.1c-1.6-0.8-4-0.8-5.6-0.8c-7.2-0.8-35.2-0.8-42.4,0c-3.2,0-7.2,0.8-10.4,1.6
			c-4,0-6.4,0-6.4,0c-4.8,0-8,1.6-11.2,3.2c-121.6-0.8-384.8,0-507.2,1.6c-1.6-0.8-4-0.8-5.6-0.8c-7.2-0.8-35.2-0.8-42.4,0
			c-8.8-8-12.8-7.2-16-6.4c-4,0-6.4,0-6.4,0C12.8,5.3,5.6,14.9,4.8,26.1c0,1.6,0,4.8-0.8,8.8l0,0c0,0,0,0.8,0,2.4c0,4,0,8,0,12
			c0,46.4,0,184.8,0,187.2c0,4.8,0,206.4,0,210.4c0,3.2,0,91.2,1.6,153.6c0,1.6-0.8,3.2-0.8,4.8s0,4.8-0.8,8.8l0,0c0,0,0,0.8,0,2.4
			c0,4,0,8,0,12s0,8,0,12.8c0,2.4,0,4,0,5.6c0,56.8,0,166.4,0,168.8c0,4.8,0,206.4,0,210.4c0,3.2,0,90.4,1.6,152.8
			c0,1.6-0.8,3.2-0.8,4.8c0,1.6,0,4.8-0.8,8.8l0,0c0,0,0,0.8,0,2.4c0,4,0,8,0,12s0,8.8,0,13.6c0,2.4,0,4,0,5.6s0,4,0,5.6l0,0
			c0,58.4,0,160,0,162.4c0,4.8,0,206.4,0,210.4c0,3.2,0,90.4,1.6,152.8c0,1.6-0.8,3.2-0.8,4.8c0,1.6,0,4.8-0.8,8.8l0,0
			c0,0,0,0.8,0,2.4c0,4,0,8,0,12s0,8.8,0,14.4c0,2.4,0,4,0,5.6s0,4,0,5.6l0,0c0,58.4,0,159.2,0,161.6c0,4.8,0,206.4,0,210.4
			c0,3.2,0,91.2,1.6,153.6c0,1.6-0.8,3.2-0.8,4.8s0,4.8-0.8,8.8l0,0c0,0,0,0.8,0,2.4c0,4,0,8,0,12s0,8,0,12.8c0,2.4,0,4,0,5.6
			c0,56.8,0,166.4,0,168.8c0,4.8,0,206.4,0,210.4c0,3.2,0,92.8,1.6,155.2c0,1.6-0.8,3.2-0.8,4.8s0,4.8-0.8,8.8l0,0c0,0,0,0.8,0,2.4
			c0,4,0,8,0,12c0,3.2,0,7.2,0,11.2c0,2.4,0,4,0,5.6c0,56,0,168,0,170.4c0,4.8,0,206.4,0,210.4c0,3.2,0,100,1.6,161.6
			c-0.8,1.6-0.8,2.4-0.8,4c0,0.8-0.8,36.8,0,38.4c-0.8,8.8,4,18.4,19.2,25.6c4.8,3.2,9.6,5.6,15.2,6.4c0.8,0,37.6,0.8,38.4,0
			c2.4,0,4.8,0,6.4-0.8c113.6,1.6,394.4,0,521.6-0.8c1.6,0.8,4,0.8,5.6,0.8c7.2,0.8,35.2,0.8,42.4,0c3.2,0,7.2-0.8,10.4-1.6
			c4,0,6.4,0,6.4,0c4.8,0,8-1.6,11.2-3.2c121.6,0.8,384.8,0,507.2-1.6c1.6,0.8,4,0.8,5.6,0.8h0.8c2.4,1.6,5.6,2.4,8,2.4
			c0.8,0,37.6,0.8,38.4,0c2.4,0,4.8,0,6.4-0.8c112.8,1.6,390.4,0,519.2-0.8c1.6,0.8,2.4,1.6,4,2.4c4.8,3.2,9.6,5.6,15.2,6.4
			c0.8,0,37.6,0.8,38.4,0c2.4,0,4.8,0,6.4-0.8c113.6,1.6,394.4,0,521.6-0.8c1.6,0.8,4,0.8,5.6,0.8h0.8c2.4,1.6,5.6,2.4,8,2.4
			c0.8,0,37.6,0.8,38.4,0c2.4,0,4.8,0,6.4-0.8c113.6,1.6,394.4,0,521.6-0.8c1.6,0.8,4,0.8,5.6,0.8c7.2,0.8,35.2,0.8,42.4,0
			c3.2,0,7.2-0.8,10.4-1.6c4,0,6.4,0,6.4,0c4.8,0,8-1.6,11.2-3.2c121.6,0.8,384.8,0,507.2-1.6c1.6,0.8,4,0.8,5.6,0.8h0.8
			c2.4,1.6,5.6,2.4,8,2.4c0.8,0,37.6,0.8,38.4,0c2.4,0,4.8,0,6.4-0.8c113.6,1.6,394.4,0,521.6-0.8c1.6,0.8,4,0.8,5.6,0.8
			c7.2,0.8,35.2,0.8,42.4,0c1.6,0,3.2,0,4.8-0.8c1.6,0,3.2,0,3.2,0c2.4,0,4.8,0,6.4-0.8c112.8,1.6,390.4,0,519.2-0.8
			c1.6,0.8,2.4,1.6,4,2.4c4.8,3.2,9.6,5.6,15.2,6.4c0.8,0,37.6,0.8,38.4,0c2.4,0,4.8,0,6.4-0.8c113.6,1.6,394.4,0,521.6-0.8
			c1.6,0.8,4,0.8,5.6,0.8h0.8c2.4,1.6,5.6,2.4,8,2.4c0.8,0,37.6,0.8,38.4,0c2.4,0,4.8,0,6.4-0.8c113.6,1.6,394.4,0,521.6-0.8
			c1.6,0.8,4,0.8,5.6,0.8c7.2,0.8,35.2,0.8,42.4,0c3.2,0,7.2-0.8,10.4-1.6c4,0,6.4,0,6.4,0c4.8,0,8-1.6,11.2-3.2
			c121.6,0.8,384.8,0,507.2-1.6c1.6,0.8,4,0.8,5.6,0.8c7.2,0.8,35.2,0.8,42.4,0c3.2,0,7.2-0.8,10.4-1.6c4,0,6.4,0,6.4,0
			c13.6-0.8,20-10.4,21.6-21.6c0-1.6,0-4.8,0.8-8.8l0,0c0,0,0-0.8,0-2.4c0-4,0-8,0-12c0-46.4,0-184.8,0-187.2c0-4.8,0-206.4,0-210.4
			"/>
		<path class="st3" d="M6521.6,2565.3c0-3.2,0-91.2-1.6-153.6c0-1.6,0.8-3.2,0.8-4.8s0-4.8,0.8-8.8l0,0c0,0,0-0.8,0-2.4
			c0-4,0-8,0-12s0-8,0-12.8c0-2.4,0-4,0-5.6s0-4,0-5.6l0,0c0-58.4,0-160.8,0-163.2c0-4.8,0-206.4,0-210.4c0-3.2,0-90.4-1.6-152.8
			c0-1.6,0.8-3.2,0.8-4.8c0-1.6,0-4.8,0.8-8.8l0,0c0,0,0-0.8,0-2.4c0-4,0-8,0-12s0-8.8,0-13.6c0-2.4,0-4,0-5.6s0-4,0-5.6l0,0
			c0-58.4,0-159.2,0-161.6c0-4.8,0-206.4,0-210.4c0-3.2,0-90.4-1.6-152.8c0-1.6,0.8-3.2,0.8-4.8c0-1.6,0-4.8,0.8-8.8l0,0
			c0,0,0-0.8,0-2.4c0-4,0-8,0-12s0-8.8,0-13.6c0-2.4,0-4,0-5.6s0-4,0-5.6l0,0c0-58.4,0-160,0-162.4c0-4.8,0-206.4,0-210.4"/>
		<path class="st3" d="M6521.6,2978.1L6521.6,2978.1c0,0,0-0.8,0-2.4c0-4,0-8,0-12c0-3.2,0-7.2,0-11.2c0-2.4,0-4,0-5.6
			c0-56,0-168,0-170.4c0-0.8,0-11.2,0-27.2"/>
	</g>
</g>
</svg>
