<?xml version="1.0" encoding="utf-8"?>
<!-- Generator: Adobe Illustrator 22.1.0, SVG Export Plug-In . SVG Version: 6.00 Build 0)  -->
<svg version="1.1" id="Layer_1" xmlns="http://www.w3.org/2000/svg" xmlns:xlink="http://www.w3.org/1999/xlink" x="0px" y="0px"
	 viewBox="0 0 401 401" style="enable-background:new 0 0 401 401;" xml:space="preserve">
<style type="text/css">
	.st0{fill:#FCF4E9;stroke:#221F1F;stroke-miterlimit:10;}
	.st1{fill:#FCF4E9;}
	.st2{fill:none;stroke:#221F1F;stroke-miterlimit:10;}
	.st3{fill:#FFFFFF;stroke:#221F1F;stroke-miterlimit:10;}
</style>
<g>
	<path class="st0" d="M216.3,142.3c3.1-5.2,7.6-16-9-16.4c-11.6-0.3-11.3,9.3-7.3,16.2c-4.2,7.6-3.2,20.4,6.8,17.2
		C206.8,159.3,228.1,155.7,216.3,142.3z"/>
	<path id="XMLID_2095_" class="st0" d="M216.3,142.3c11.8,13.4-9.4,17-9.4,17c-14,4.5-10.4-22.6,0.6-22.4"/>
</g>
<g>
	<g>
		<path class="st0" d="M167.1,155.3c0.3,1,0.7,2.1,1.2,3.1c0.6,1.4,1.4,2.8,2.4,4.2c0.1,0.1,0.3,0.7,0.4,0.9
			c0.4,1.3,1.5,2.5,2.9,2.9c0.6,0.1,1.2,0.1,1.9-0.1c2.7-0.9,2.4-3.4,2-4.8c-0.1-0.5-0.6-1.3-1.3-1.6c-0.1-0.1-0.6-0.5-0.7-0.6
			c-1.4-1.9-2.3-3.8-2.9-5.7c-0.3-0.9-0.5-2.3-0.6-3.4c-0.1-1.1,0.1-2.6,0.1-2.9c0.1-1-0.1-2-0.3-2.6c-0.1-0.3-0.2-0.5-0.2-0.5
			s-2.4-2.8-5.4-0.6c-0.3,0.2-0.5,0.4-0.7,0.7c-0.6,0.9-0.7,2-0.3,2.9C165.7,147.5,166.3,152.8,167.1,155.3z"/>
	</g>
	<g>
		<path class="st0" d="M155.4,160.2c0.3,1,0.7,2.1,1.2,3.1c0.6,1.4,1.4,2.8,2.4,4.2c0.1,0.1,0.3,0.7,0.4,0.9
			c0.4,1.3,1.5,2.5,2.9,2.9c0.6,0.1,1.2,0.1,1.9-0.1c2.7-0.9,2.4-3.4,2-4.8c-0.1-0.5-0.6-1.3-1.3-1.6c-0.1-0.1-0.6-0.5-0.7-0.6
			c-1.4-1.9-2.3-3.8-2.9-5.7c-0.3-0.9-0.5-2.3-0.6-3.4c-0.1-1.1,0.1-2.6,0.1-2.9c0.1-1-0.1-2-0.3-2.6c-0.1-0.3-0.2-0.5-0.2-0.5
			s-2.4-2.8-5.4-0.6c-0.3,0.2-0.5,0.4-0.7,0.7c-0.6,0.9-0.7,2-0.3,2.9C154,152.4,154.6,157.6,155.4,160.2z"/>
	</g>
	<g>
		<path class="st0" d="M143.9,166.2c0.3,1,0.7,2.1,1.2,3.1c0.6,1.4,1.4,2.8,2.4,4.2c0.1,0.1,0.3,0.7,0.4,0.9
			c0.4,1.3,1.5,2.5,2.9,2.9c0.6,0.1,1.2,0.1,1.9-0.1c2.7-0.9,2.4-3.4,2-4.8c-0.1-0.5-0.6-1.3-1.3-1.6c-0.1-0.1-0.6-0.5-0.7-0.6
			c-1.4-1.9-2.3-3.8-2.9-5.7c-0.3-0.9-0.5-2.3-0.6-3.4c-0.1-1.1,0.1-2.6,0.1-2.9c0.1-1-0.1-2-0.3-2.6c-0.1-0.3-0.2-0.5-0.2-0.5
			s-2.4-2.8-5.4-0.6c-0.3,0.2-0.5,0.4-0.7,0.7c-0.6,0.9-0.7,2-0.3,2.9C142.5,158.4,143.1,163.7,143.9,166.2z"/>
	</g>
</g>
<g>
	<g>
		<path class="st0" d="M166.4,127.7c0.3-1,0.7-2.1,1.2-3.1c0.6-1.4,1.4-2.8,2.4-4.2c0.1-0.1,0.3-0.7,0.4-0.9
			c0.4-1.3,1.5-2.5,2.9-2.9c0.6-0.1,1.2-0.1,1.9,0.1c2.7,0.9,2.4,3.4,2,4.8c-0.1,0.5-0.6,1.3-1.3,1.6c-0.1,0.1-0.6,0.5-0.7,0.6
			c-1.4,1.9-2.3,3.8-2.9,5.7c-0.3,0.9-0.5,2.3-0.6,3.4c-0.1,1.1,0.1,2.6,0.1,2.9c0.1,1-0.1,2-0.3,2.6c-0.1,0.3-0.2,0.5-0.2,0.5
			s-2.4,2.8-5.4,0.6c-0.3-0.2-0.5-0.4-0.7-0.7c-0.6-0.9-0.7-2-0.3-2.9C165,135.5,165.6,130.3,166.4,127.7z"/>
	</g>
	<g>
		<path class="st0" d="M154.7,131.7c0.3-1,0.7-2.1,1.2-3.1c0.6-1.4,1.4-2.8,2.4-4.2c0.1-0.1,0.3-0.7,0.4-0.9
			c0.4-1.3,1.5-2.5,2.9-2.9c0.6-0.1,1.2-0.1,1.9,0.1c2.7,0.9,2.4,3.4,2,4.8c-0.1,0.5-0.6,1.3-1.3,1.6c-0.1,0.1-0.6,0.5-0.7,0.6
			c-1.4,1.9-2.3,3.8-2.9,5.7c-0.3,0.9-0.5,2.3-0.6,3.4c-0.1,1.1,0.1,2.6,0.1,2.9c0.1,1-0.1,2-0.3,2.6c-0.1,0.3-0.2,0.5-0.2,0.5
			s-2.4,2.8-5.4,0.6c-0.3-0.2-0.5-0.4-0.7-0.7c-0.6-0.9-0.7-2-0.3-2.9C153.3,139.5,153.9,134.3,154.7,131.7z"/>
	</g>
	<g>
		<path class="st0" d="M143.2,134.5c0.3-1,0.7-2.1,1.2-3.1c0.6-1.4,1.4-2.8,2.4-4.2c0.1-0.1,0.3-0.7,0.4-0.9
			c0.4-1.3,1.5-2.5,2.9-2.9c0.6-0.1,1.2-0.1,1.9,0.1c2.7,0.9,2.4,3.4,2,4.8c-0.1,0.5-0.6,1.3-1.3,1.6c-0.1,0.1-0.6,0.5-0.7,0.6
			c-1.4,1.9-2.3,3.8-2.9,5.7c-0.3,0.9-0.5,2.3-0.6,3.4c-0.1,1.1,0.1,2.6,0.1,2.9c0.1,1-0.1,2-0.3,2.6c-0.1,0.3-0.2,0.5-0.2,0.5
			s-2.4,2.8-5.4,0.6c-0.3-0.2-0.5-0.4-0.7-0.7c-0.6-0.9-0.7-2-0.3-2.9C141.8,142.3,142.4,137.1,143.2,134.5z"/>
	</g>
</g>
<g>
	<g>
		<path class="st0" d="M170,139.1c-0.3-1-0.7-2.1-1.2-3.1c-0.6-1.4-1.4-2.8-2.4-4.2c-0.1-0.1-0.3-0.7-0.4-0.9
			c-0.4-1.3-1.5-2.5-2.9-2.9c-0.6-0.1-1.2-0.1-1.9,0.1c-2.7,0.9-2.4,3.4-2,4.8c0.1,0.5,0.6,1.3,1.3,1.6c0.1,0.1,0.6,0.5,0.7,0.6
			c1.4,1.9,2.3,3.8,2.9,5.7c0.3,0.9,0.5,2.3,0.6,3.4c0.1,1.1-0.1,2.6-0.1,2.9c-0.1,1,0.1,2,0.3,2.6c0.1,0.3,0.2,0.5,0.2,0.5
			s2.4,2.8,5.4,0.6c0.3-0.2,0.5-0.4,0.7-0.7c0.6-0.9,0.7-2,0.3-2.9C171.4,146.9,170.8,141.6,170,139.1z"/>
	</g>
	<g>
		<path class="st0" d="M181.8,134.2c-0.3-1-0.7-2.1-1.2-3.1c-0.6-1.4-1.4-2.8-2.4-4.2c-0.1-0.1-0.3-0.7-0.4-0.9
			c-0.4-1.3-1.5-2.5-2.9-2.9c-0.6-0.1-1.2-0.1-1.9,0.1c-2.7,0.9-2.4,3.4-2,4.8c0.1,0.5,0.6,1.3,1.3,1.6c0.1,0.1,0.6,0.5,0.7,0.6
			c1.4,1.9,2.3,3.8,2.9,5.7c0.3,0.9,0.5,2.3,0.6,3.4c0.1,1.1-0.1,2.6-0.1,2.9c-0.1,1,0.1,2,0.3,2.6c0.1,0.3,0.2,0.5,0.2,0.5
			s2.4,2.8,5.4,0.6c0.3-0.2,0.5-0.4,0.7-0.7c0.6-0.9,0.7-2,0.3-2.9C183.2,142,182.6,136.8,181.8,134.2z"/>
	</g>
	<g>
		<path class="st0" d="M193.2,128.2c-0.3-1-0.7-2.1-1.2-3.1c-0.6-1.4-1.4-2.8-2.4-4.2c-0.1-0.1-0.3-0.7-0.4-0.9
			c-0.4-1.3-1.5-2.5-2.9-2.9c-0.6-0.1-1.2-0.1-1.9,0.1c-2.7,0.9-2.4,3.4-2,4.8c0.1,0.5,0.6,1.3,1.3,1.6c0.1,0.1,0.6,0.5,0.7,0.6
			c1.4,1.9,2.3,3.8,2.9,5.7c0.3,0.9,0.5,2.3,0.6,3.4c0.1,1.1-0.1,2.6-0.1,2.9c-0.1,1,0.1,2,0.3,2.6c0.1,0.3,0.2,0.5,0.2,0.5
			s2.4,2.8,5.4,0.6c0.3-0.2,0.5-0.4,0.7-0.7c0.6-0.9,0.7-2,0.3-2.9C194.6,136,194,130.7,193.2,128.2z"/>
	</g>
</g>
<g>
	<path id="XMLID_2094_" class="st0" d="M140.8,140.4c-25.7-4.5-26.1,48.5-16.7,48.3l0,0c9.3-0.2,9.6-7.4,9.8-11.5
		c0.2-3.2-3.5-6.2-5.1-7.4c-0.5-0.3-0.8-0.5-0.8-0.5c-3.3-2.4-4.9-6.1-0.8-8.8c0,0,2.7-2.5,5.8-3.5l0,0c0,0,2.6-1.1,4.5-0.2
		c0.8,0.3,1.4,1,1.8,2.1c0,0.1,0,0.1,0.1,0.2c0.2,0.5,0.4,1.1,0.7,1.7c2.2,4.1,7.3,9.8,12.6,6.5c6.2-3.8,5.6-5.5,6-7.1c0,0,0,0,0,0
		c0.4-1.6-0.9-4.4-0.9-4.4l0,0C155.4,148.1,149.9,142,140.8,140.4z"/>
	<path id="XMLID_2061_" class="st1" d="M160.3,160.7c0,0,4.8-7.3-3.5-11.4c-8.3-4.1-28.3,22-27.2,26.6S127.7,199.5,160.3,160.7z"/>
	<path id="XMLID_2059_" class="st2" d="M130.1,179.7c0.8,6,4.2,11.9,30.2-19.1c0,0,4.8-7.3-3.5-11.4c-1.3-0.7-3-0.5-4.8,0.2"/>
	<path class="st2" d="M142.8,156.1c0,0-7.2,6.7-10.1,12.3l-2.6,4.7"/>
</g>
<path id="XMLID_2088_" class="st0" d="M162.7,114.8c-16.9,4.7-7-34.3,8.2-18.7C186.2,111.8,162.7,114.8,162.7,114.8z"/>
<g>
	<g>
		<path class="st0" d="M193.9,159.9c-0.3,1-0.7,2.1-1.2,3.1c-0.6,1.4-1.4,2.8-2.4,4.2c-0.1,0.1-0.3,0.7-0.4,0.9
			c-0.4,1.3-1.5,2.5-2.9,2.9c-0.6,0.1-1.2,0.1-1.9-0.1c-2.7-0.9-2.4-3.4-2-4.8c0.1-0.5,0.6-1.3,1.3-1.6c0.1-0.1,0.6-0.5,0.7-0.6
			c1.4-1.9,2.3-3.8,2.9-5.7c0.3-0.9,0.5-2.3,0.6-3.4c0.1-1.1-0.1-2.6-0.1-2.9c-0.1-1,0.1-2,0.3-2.6c0.1-0.3,0.2-0.5,0.2-0.5
			s2.4-2.8,5.4-0.6c0.3,0.2,0.5,0.4,0.7,0.7c0.6,0.9,0.7,2,0.3,2.9C195.3,152.1,194.7,157.3,193.9,159.9z"/>
	</g>
	<g>
		<path class="st0" d="M182.5,162.7c-0.3,1-0.7,2.1-1.2,3.1c-0.6,1.4-1.4,2.8-2.4,4.2c-0.1,0.1-0.3,0.7-0.4,0.9
			c-0.4,1.3-1.5,2.5-2.9,2.9c-0.6,0.1-1.2,0.1-1.9-0.1c-2.7-0.9-2.4-3.4-2-4.8c0.1-0.5,0.6-1.3,1.3-1.6c0.1-0.1,0.6-0.5,0.7-0.6
			c1.4-1.9,2.3-3.8,2.9-5.7c0.3-0.9,0.5-2.3,0.6-3.4c0.1-1.1-0.1-2.6-0.1-2.9c-0.1-1,0.1-2,0.3-2.6c0.1-0.3,0.2-0.5,0.2-0.5
			s2.4-2.8,5.4-0.6c0.3,0.2,0.5,0.4,0.7,0.7c0.6,0.9,0.7,2,0.3,2.9C183.9,154.9,183.3,160.1,182.5,162.7z"/>
	</g>
	<g>
		<path class="st0" d="M170.7,166.7c-0.3,1-0.7,2.1-1.2,3.1c-0.6,1.4-1.4,2.8-2.4,4.2c-0.1,0.1-0.3,0.7-0.4,0.9
			c-0.4,1.3-1.5,2.5-2.9,2.9c-0.6,0.1-1.2,0.1-1.9-0.1c-2.7-0.9-2.4-3.4-2-4.8c0.1-0.5,0.6-1.3,1.3-1.6c0.1-0.1,0.6-0.5,0.7-0.6
			c1.4-1.9,2.3-3.8,2.9-5.7c0.3-0.9,0.5-2.3,0.6-3.4c0.1-1.1-0.1-2.6-0.1-2.9c-0.1-1,0.1-2,0.3-2.6c0.1-0.3,0.2-0.5,0.2-0.5
			s2.4-2.8,5.4-0.6c0.3,0.2,0.5,0.4,0.7,0.7c0.6,0.9,0.7,2,0.3,2.9C172.1,158.9,171.5,164.1,170.7,166.7z"/>
	</g>
</g>
<path id="XMLID_2060_" class="st0" d="M192.9,193.8c-2.1,17.4-34.4-6.6-14.1-14.7C199.2,171,192.9,193.8,192.9,193.8z"/>
<g id="XMLID_2144_">
	<g id="XMLID_2146_">
		<path id="XMLID_2148_" class="st0" d="M94.7,234c0,0-2.1-12-12.3-7.8s-5.1,50-0.5,53.5C86.6,283.2,99.7,305,94.7,234z"/>
		<path id="XMLID_2147_" class="st0" d="M92.3,260.2c0,0,13.5-13.3,14.6,4.9c0.2,2.7,3.8,20.5,12.1,16.3c8.2-4.2,9.5-56.2-30.2-41.6
			"/>
	</g>
	<path id="XMLID_2145_" class="st0" d="M104.6,252.4c0.5,12.7,3,25.5,5.4,27.3c4.7,3.5,17.8,25.3,12.7-45.7c0,0-2.1-12-12.3-7.8
		c-3.4,1.4-5.1,7.6-5.7,15.3"/>
</g>
<g id="XMLID_2138_">
	<path id="XMLID_2142_" class="st0" d="M28,246.5c0,0-1.8,34.5,9.5,27.5c11.2-7,4-55.1-1.2-57.6S28,246.5,28,246.5z"/>
	<path id="XMLID_2139_" class="st0" d="M39.9,256.8c0.8,0.3,1.6,0.6,2.5,0.9c23.9,7.4,43.2-24.8,23.6-38.7
		c-19.6-13.9-34.9,3.5-34.9,3.5s-7.1,15.6-0.5,26.5 M53.8,242.6c-13.6,8.7-14.7-21.2-3.1-14.9C50.7,227.6,67.5,233.9,53.8,242.6z"/>
</g>
<g id="XMLID_2135_">
	<path id="XMLID_2137_" class="st0" d="M230.1,211c0,0-2.6-14.6-14.9-9.5c-12.3,5.1-6.2,60.6-0.6,64.9
		C220.3,270.7,236.2,297.1,230.1,211z"/>
	<path id="XMLID_2136_" class="st0" d="M226.9,242.5c0,0,20.5-20.2,16.3,17.5c0,0,4.9,11.7,14.4,6.8c9.5-4.9,11-64.8-34.9-48"/>
</g>
<g id="XMLID_2101_">
	<path id="XMLID_2134_" class="st0" d="M284.6,234.1c0,0-1-17.1-12.5-12c-11.5,5.1-5.1,53.4,24.3,46.4c29.3-7,17.5-44.9,17.5-44.9
		s-12.2-10.9-14.4,7.9c0,0-0.6,12.6-6.4,13.6C287.4,246.1,284,237.2,284.6,234.1z"/>
	<path id="XMLID_2130_" class="st0" d="M299.2,262.4c0,0,2.8,20.5-8.5,23.5c-11.3,3.1-10,15.7,2.7,15.1s25.6-10.7,20.1-69.2"/>
</g>
<g id="XMLID_2152_">
	<g id="XMLID_2154_">
		<path id="XMLID_2155_" class="st0" d="M157.6,252.9c0,0,3.3-17.3-11.3-12.4s-5.8,42.9,1.9,41.3C156,280.2,159.6,274.1,157.6,252.9
			z"/>
	</g>
	<path id="XMLID_2153_" class="st3" d="M149.7,216.8c0,0,16.5,9.4,0.3,16.4S138.6,208.2,149.7,216.8z"/>
</g>
<g id="XMLID_2143_">
	<path id="XMLID_2151_" class="st0" d="M195.5,242.3c0,0,8.5-0.4,7.5-7.5c-0.7-5.6-24.3-15.8-34-3.6c-2.5,3.2-4.1,7.9-4,14.6
		c0,0,0,0.1,0,0.1c0.7,2.3,1.9,4.2,3.5,5.8c0.6,0.7,1.2,1.2,1.8,1.6c4.4,3.3,10.4,4.8,15.8,4.9c-0.8,3-4.4,4.7-15.9-0.9
		c0,0-8.5,0.4-7.5,7.5c0.7,5.6,24.4,15.8,34,3.6c2.5-3.2,4.1-7.9,4-14.6c0,0,0,0,0,0c-0.7-2.3-1.9-4.3-3.5-5.9
		c-0.6-0.7-1.2-1.2-1.8-1.6c-4.4-3.3-10.4-4.8-15.8-4.9C180.3,238.3,183.9,236.7,195.5,242.3z"/>
	<path id="XMLID_2150_" class="st2" d="M184.8,251c0,0,8.1,17.4-14.7,6.3c0,0-8.5,0.4-7.5,7.5c0.9,7.1,38.3,21.5,38-11.1"/>
	<path id="XMLID_2149_" class="st0" d="M180.8,248.6c0,0-8.1-17.4,14.7-6.3c0,0,8.5-0.4,7.5-7.5c-0.9-7.1-38.3-21.5-38,11.1"/>
</g>
<g id="XMLID_2156_">
	<path id="XMLID_2158_" class="st0" d="M361.1,224.4c0,0-4.3-3-6.2-0.7s-5.1,6.4-1.3,14.3c3.8,7.9,18.1,1.4,19.4-2.3"/>
	<path id="XMLID_2157_" class="st0" d="M377.1,231.2L377.1,231.2c-2.6-7-8.4-12.5-17.2-13.4c-17.5-1.8-24.8,9.6-27.5,16.5
		c0,0-0.6,1-1,3.1c-0.3,1.2-0.4,2.2-0.4,2.7c-0.3,3.8,0.4,9.4,3.9,16.9c2.9,6.1,10.2,8.2,15.1,9c1.4,0.3,2.9,0.4,4.4,0.4
		c0.1,0,0.1,0,0.1,0l0,0c1.7,0,3.5-0.2,5.4-0.7c7.7-1.8,13-6.7,15.9-12.7c-0.5-7-6.5-7.8-10.1-8.4c-2-0.3-4,0.9-5.5,2.2
		c-0.2,0.1-0.3,0.3-0.5,0.4c-5.2,3.8-18.8-3.7-11.6-9.3c0,0,2.4-2.6,5.3-3.7h0c0,0,2.4-1.2,4.3-0.5c0.8,0.3,1.4,0.8,1.9,1.9
		c0,0.1,0,0.1,0.1,0.2c0.2,0.5,0.5,1,0.8,1.5c2.4,3.8,7.6,8.9,12.5,5.4c5.6-4,5-5.6,5.2-7.2l0,0
		C378.5,233.8,377.1,231.2,377.1,231.2z"/>
</g>
</svg>
