<?xml version="1.0" encoding="utf-8"?>
<!-- Generator: Adobe Illustrator 22.1.0, SVG Export Plug-In . SVG Version: 6.00 Build 0)  -->
<svg version="1.1" id="Layer_1" xmlns="http://www.w3.org/2000/svg" xmlns:xlink="http://www.w3.org/1999/xlink" x="0px" y="0px"
	 viewBox="0 0 401 401" style="enable-background:new 0 0 401 401;" xml:space="preserve">
<style type="text/css">
	.st0{fill:#FCF4E9;stroke:#221F1F;stroke-miterlimit:10;}
</style>
<g>
	<g>
		<path class="st0" d="M217.9,191.7c0.6-1.8,1.3-3.7,2.1-5.6c1.1-2.5,2.6-5,4.3-7.5c0.1-0.2,0.6-1.3,0.6-1.6
			c0.6-2.4,2.6-4.6,5.1-5.2c1-0.2,2.2-0.2,3.3,0.1c4.8,1.5,4.3,6.1,3.6,8.5c-0.2,0.9-1.1,2.3-2.2,2.9c-0.2,0.1-1,0.9-1.2,1.1
			c-2.4,3.3-4.1,6.8-5.1,10.1c-0.5,1.5-0.9,4.1-1.1,6.1c-0.2,1.9,0.1,4.6,0.2,5.2c0.2,1.8-0.2,3.6-0.5,4.6c-0.2,0.5-0.3,0.8-0.3,0.8
			s-4.2,5-9.6,1c-0.5-0.4-0.9-0.8-1.2-1.2c-1.1-1.6-1.2-3.5-0.6-5.3C215.4,205.7,216.5,196.3,217.9,191.7z"/>
	</g>
	<g>
		<path class="st0" d="M203.2,198.8c0.6-1.8,1.3-3.7,2.1-5.6c1.1-2.5,2.6-5,4.3-7.5c0.1-0.2,0.6-1.3,0.6-1.6
			c0.6-2.4,2.6-4.6,5.1-5.2c1-0.2,2.2-0.2,3.3,0.1c4.8,1.5,4.3,6.1,3.6,8.5c-0.2,0.9-1.1,2.3-2.2,2.9c-0.2,0.1-1,0.9-1.2,1.1
			c-2.4,3.3-4.1,6.8-5.1,10.1c-0.5,1.5-0.9,4.1-1.1,6.1c-0.2,1.9,0.1,4.6,0.2,5.2c0.2,1.8-0.2,3.6-0.5,4.6c-0.2,0.5-0.3,0.8-0.3,0.8
			s-4.2,5-9.6,1c-0.5-0.4-0.9-0.8-1.2-1.2c-1.1-1.6-1.2-3.5-0.6-5.3C200.6,212.8,201.7,203.4,203.2,198.8z"/>
	</g>
	<g>
		<path class="st0" d="M188.9,203.8c0.6-1.8,1.3-3.7,2.1-5.6c1.1-2.5,2.6-5,4.3-7.5c0.1-0.2,0.6-1.3,0.6-1.6
			c0.6-2.4,2.6-4.6,5.1-5.2c1-0.2,2.2-0.2,3.3,0.1c4.8,1.5,4.3,6.1,3.6,8.5c-0.2,0.9-1.1,2.3-2.2,2.9c-0.2,0.1-1,0.9-1.2,1.1
			c-2.4,3.3-4.1,6.8-5.1,10.1c-0.5,1.5-0.9,4.1-1.1,6.1c-0.2,1.9,0.1,4.6,0.2,5.2c0.2,1.8-0.2,3.6-0.5,4.6c-0.2,0.5-0.3,0.8-0.3,0.8
			s-4.2,5-9.6,1c-0.5-0.4-0.9-0.8-1.2-1.2c-1.1-1.6-1.2-3.5-0.6-5.3C186.4,217.8,187.5,208.4,188.9,203.8z"/>
	</g>
</g>
<g id="XMLID_1751_">
	<g id="XMLID_1755_">
		<path id="XMLID_1763_" class="st0" d="M108.1,251.5c0,0-2.4-13.4-13.7-8.7c-11.3,4.7-5.7,55.7-0.5,59.7
			C99.1,306.4,113.7,330.7,108.1,251.5z"/>
		<path id="XMLID_1757_" class="st0" d="M105.5,280.7c0,0,15-14.8,16.2,5.4c0.2,3,4.3,22.8,13.5,18.1c9.2-4.7,10.6-62.7-33.7-46.4"
			/>
	</g>
	<path id="XMLID_1753_" class="st0" d="M119.2,272c0.6,14.1,3.3,28.4,6,30.4c5.2,4,19.8,28.2,14.2-51c0,0-2.4-13.4-13.7-8.7
		c-3.8,1.6-5.7,8.5-6.4,17.1"/>
</g>
<g id="XMLID_1164_">
	<path id="XMLID_1749_" class="st0" d="M197.3,314c-29-20.5-11.1-50.1-11.1-50.1c2.7-5.8,32.7-21.6,41.5-12.5l0,0
		c8.7,9.2,2.1,16.3-1.7,20.5c-3,3.3-9.3,2.7-12,2.2c-0.8-0.1-1.3-0.2-1.3-0.2c-5.5-0.8-10.5,1.2-9.3,7.7c0,0,0.2,5,2.2,8.9l0,0
		c0,0,1.4,3.5,4.1,4.5c1.1,0.4,2.3,0.4,3.7-0.3c0.1,0,0.2-0.1,0.2-0.1c0.7-0.3,1.4-0.6,2.3-0.9c6.1-1.9,16.4-2.4,18.3,5.8
		c2.3,9.6,0.1,10.6-1.1,12.5c0,0,0,0,0,0c-1.2,1.9-5.1,3.4-5.1,3.4l0,0C218.8,320.6,207.5,321.2,197.3,314z"/>
	<path id="XMLID_1165_" class="st0" d="M215.8,301.5c0,0-9.5-7,0.8-13.3c10.3-6.3,14.1,8.1,14.1,8.1"/>
</g>
<path id="XMLID_1161_" class="st0" d="M162.4,281.3c-0.2,9.2,1.5,16.5,10.3,20.1c17.9,7.2,0,14,0,14c-32.9,0.2-27.2-25.5-26.8-53.6
	s17.5-13.2,17.5-13.2L162.4,281.3z"/>
<g id="XMLID_1155_">
	<path id="XMLID_1160_" class="st0" d="M33.7,287.7c0,0-2,38.5,10.6,30.7c12.5-7.8,4.4-61.5-1.4-64.3
		C37.1,251.3,33.7,287.7,33.7,287.7z"/>
	<path id="XMLID_1156_" class="st0" d="M47,299.2c0.9,0.4,1.8,0.7,2.7,1c26.7,8.2,48.2-27.7,26.3-43.1c-21.9-15.5-39,4-39,4
		s-7.9,17.4-0.6,29.6 M62.5,283.3c-15.2,9.7-16.4-23.7-3.5-16.6C59.1,266.7,77.7,273.7,62.5,283.3z"/>
</g>
<g id="XMLID_1764_">
	<path id="XMLID_1766_" class="st0" d="M269.3,251c0,0-2.9-16.3-16.6-10.6c-13.7,5.7-7,67.6-0.6,72.4S276.1,347,269.3,251z"/>
	<path id="XMLID_1765_" class="st0" d="M265.7,286.1c0,0,22.8-22.6,18.2,19.6c0,0,5.4,13.1,16,7.6c10.6-5.4,12.2-72.3-38.9-53.6"/>
</g>
<g id="XMLID_1768_">
	<path id="XMLID_1774_" class="st0" d="M329.1,257c0,0-1.1-19-14-13.4c-12.9,5.6-5.6,59.6,27.1,51.8s19.5-50.1,19.5-50.1
		s-13.6-12.1-16,8.8c0,0-0.7,14-7.1,15.2C332.2,270.3,328.5,260.4,329.1,257z"/>
	<path id="XMLID_1769_" class="st0" d="M345.5,288.5c0,0,3.1,22.8-9.5,26.3c-12.6,3.4-11.1,17.6,3,16.8c14.1-0.7,28.6-12,22.4-77.2"
		/>
</g>
<g>
	<path id="XMLID_2339_" class="st0" d="M170.2,190.1c23.4-15.9,9.4-39.7,9.4-39.7s-26.7-24.9-44.3-1.6
		C117.7,172.1,146.8,206,170.2,190.1z"/>
	<path id="XMLID_1780_" class="st0" d="M179.6,150.3c0,0-26.7-24.9-44.3-1.6C117.7,172.1,179.6,150.3,179.6,150.3z"/>
	<path id="XMLID_1798_" class="st0" d="M229.7,143.8c0,0,35.2-81.3-40.7-64.4C113.1,96.3,229.7,143.8,229.7,143.8z"/>
	<path id="XMLID_1793_" class="st0" d="M198.5,190.7c33.2,37.4,72.8-8.4,72.8-8.4s18.6-42.2-22.8-66.4
		C207.1,91.8,165.3,153.3,198.5,190.7z"/>
	<path id="XMLID_1791_" class="st0" d="M154.3,190.7c33.2,37.4,72.8-8.4,72.8-8.4s18.6-42.2-22.8-66.4
		C162.9,91.8,121.1,153.3,154.3,190.7z"/>
	<path id="XMLID_1805_" class="st0" d="M282.5,83.1c-75.9-16.9-40.7,64.4-40.7,64.4S358.4,99.9,282.5,83.1z"/>
	<path id="XMLID_2337_" class="st0" d="M237.6,148.8c-17.6-23.3-44.3,1.6-44.3,1.6s-13.9,23.8,9.4,39.7
		C226,206,255.1,172.1,237.6,148.8z"/>
	<path id="XMLID_2341_" class="st0" d="M237.6,148.8c-17.6-23.3-44.3,1.6-44.3,1.6S255.1,172.1,237.6,148.8z"/>
</g>
<g>
	<g>
		<path class="st0" d="M251.4,203.8c-0.6-1.8-1.3-3.7-2.1-5.6c-1.1-2.5-2.6-5-4.3-7.5c-0.1-0.2-0.6-1.3-0.6-1.6
			c-0.6-2.4-2.6-4.6-5.1-5.2c-1-0.2-2.2-0.2-3.3,0.1c-4.8,1.5-4.3,6.1-3.6,8.5c0.2,0.9,1.1,2.3,2.2,2.9c0.2,0.1,1,0.9,1.2,1.1
			c2.4,3.3,4.1,6.8,5.1,10.1c0.5,1.5,0.9,4.1,1.1,6.1c0.2,1.9-0.1,4.6-0.2,5.2c-0.2,1.8,0.2,3.6,0.5,4.6c0.2,0.5,0.3,0.8,0.3,0.8
			s4.2,5,9.6,1c0.5-0.4,0.9-0.8,1.2-1.2c1.1-1.6,1.2-3.5,0.6-5.3C254,217.8,252.9,208.4,251.4,203.8z"/>
	</g>
	<g>
		<path class="st0" d="M266.2,195.1c-0.6-1.8-1.3-3.7-2.1-5.6c-1.1-2.5-2.6-5-4.3-7.5c-0.1-0.2-0.6-1.3-0.6-1.6
			c-0.6-2.4-2.6-4.6-5.1-5.2c-1-0.2-2.2-0.2-3.3,0.1c-4.8,1.5-4.3,6.1-3.6,8.5c0.2,0.9,1.1,2.3,2.2,2.9c0.2,0.1,1,0.9,1.2,1.1
			c2.4,3.3,4.1,6.8,5.1,10.1c0.5,1.5,0.9,4.1,1.1,6.1c0.2,1.9-0.1,4.6-0.2,5.2c-0.2,1.8,0.2,3.6,0.5,4.6c0.2,0.5,0.3,0.8,0.3,0.8
			s4.2,5,9.6,1c0.5-0.4,0.9-0.8,1.2-1.2c1.1-1.6,1.2-3.5,0.6-5.3C268.7,209.1,267.6,199.7,266.2,195.1z"/>
	</g>
	<g>
		<path class="st0" d="M280.4,184.3c-0.6-1.8-1.3-3.7-2.1-5.6c-1.1-2.5-2.6-5-4.3-7.5c-0.1-0.2-0.6-1.3-0.6-1.6
			c-0.6-2.4-2.6-4.6-5.1-5.2c-1-0.2-2.2-0.2-3.3,0.1c-4.8,1.5-4.3,6.1-3.6,8.5c0.2,0.9,1.1,2.3,2.2,2.9c0.2,0.1,1,0.9,1.2,1.1
			c2.4,3.3,4.1,6.8,5.1,10.1c0.5,1.5,0.9,4.1,1.1,6.1c0.2,1.9-0.1,4.6-0.2,5.2c-0.2,1.8,0.2,3.6,0.5,4.6c0.2,0.5,0.3,0.8,0.3,0.8
			s4.2,5,9.6,1c0.5-0.4,0.9-0.8,1.2-1.2c1.1-1.6,1.2-3.5,0.6-5.3C282.9,198.3,281.8,188.9,280.4,184.3z"/>
	</g>
</g>
</svg>
