<?xml version="1.0" encoding="utf-8"?>
<!-- Generator: Adobe Illustrator 22.1.0, SVG Export Plug-In . SVG Version: 6.00 Build 0)  -->
<svg version="1.1" id="Layer_1" xmlns="http://www.w3.org/2000/svg" xmlns:xlink="http://www.w3.org/1999/xlink" x="0px" y="0px"
	 viewBox="0 0 29 40.5" style="enable-background:new 0 0 29 40.5;" xml:space="preserve">
<style type="text/css">
	.st0{opacity:0.1;fill:#231F20;stroke:#231F20;stroke-miterlimit:10;enable-background:new    ;}
	.st1{fill:#FFD767;stroke:#584C4F;stroke-miterlimit:10;}
	.st2{fill:#FFFFFF;stroke:#584C4F;stroke-width:2;stroke-linecap:round;stroke-miterlimit:10;}
</style>
<path class="st0" d="M18.4,7C9.9-4.2-2,14.2,1,24.2c0.8,2.7,2.6,4.8,5.9,5.6c1,0.2,4.2,10.6,5.7,10.2c2-0.5,4.8-11.1,5.9-11.5
	C34.4,22.8,18.4,7,18.4,7z"/>
<path id="XMLID_1_" class="st1" d="M23.8,32c0,0,16.3,8.7-11.7,8S14.6,25.2,23.8,32z"/>
<g>
	<path class="st2" d="M21.4,4C12.9-7.2,1,11.2,4,21.2c0.8,2.7,2.6,4.8,5.9,5.6c1.1,0.3,4.2,10.6,5.8,10.2c2-0.5,4.8-11.1,5.9-11.5
		C37.4,19.8,21.4,4,21.4,4z"/>
	<path id="XMLID_2_" class="st1" d="M20.5,9.2c0,0,9.6,15.1-6.9,13.9S15.1-2.6,20.5,9.2z"/>
</g>
</svg>
