<?xml version="1.0" encoding="utf-8"?>
<!-- Generator: Adobe Illustrator 22.1.0, SVG Export Plug-In . SVG Version: 6.00 Build 0)  -->
<svg version="1.1" id="Layer_1" xmlns="http://www.w3.org/2000/svg" xmlns:xlink="http://www.w3.org/1999/xlink" x="0px" y="0px"
	 viewBox="0 0 1303.6 720" style="enable-background:new 0 0 1303.6 720;" xml:space="preserve">
<style type="text/css">
	.st0{opacity:0.2;}
	.st1{fill:#5D5B4C;}
	.st2{fill:#FFF5EB;}
</style>
<g>
	<g class="st0">
		<path class="st1" d="M1293.1,60c0.1-0.7,0-19.3-0.3-31.4c0.1-0.3,0.2-0.5,0.2-0.8c0.1-0.2,0.1-7.2,0.1-7.4c0.1-1.8-0.8-3.6-3.7-5
			c-0.9-0.6-1.9-1.1-3-1.3c-0.2-0.1-7.3-0.1-7.6-0.1c-0.4,0-0.9,0-1.3,0.1c-22.3-0.3-77.6,0-102.7,0.2c-0.4-0.1-0.7-0.2-1.1-0.2
			c-1.5-0.2-6.9-0.1-8.3,0c-0.7,0-1.4,0.2-2.1,0.4c-0.8,0-1.3,0-1.3,0c-0.9,0-1.6,0.3-2.2,0.6c-23.9-0.2-75.7,0.1-99.9,0.3
			c-0.4-0.1-0.7-0.2-1.1-0.2c-0.1,0-0.1,0-0.2,0c-0.5-0.2-1.1-0.4-1.6-0.5c-0.2-0.1-7.3-0.1-7.6-0.1c-0.4,0-0.9,0-1.3,0.1
			c-22.2-0.3-76.8,0-102.2,0.2c-0.3-0.1-0.5-0.3-0.8-0.4c-0.9-0.6-1.9-1.1-3-1.3c-0.2-0.1-7.3-0.1-7.6-0.1c-0.4,0-0.9,0-1.3,0.1
			c-22.3-0.3-77.6,0-102.7,0.2c-0.4-0.1-0.7-0.2-1.1-0.2c-1.5-0.2-6.9-0.1-8.3,0c-0.3,0-0.7,0.1-1,0.1c-0.4,0-0.6,0-0.7,0
			c-0.4,0-0.9,0-1.3,0.1c-22.3-0.3-77.6,0-102.7,0.2c-0.4-0.1-0.7-0.2-1.1-0.2c-0.1,0-0.1,0-0.2,0c-0.5-0.2-1.1-0.4-1.6-0.5
			c-0.2-0.1-7.3-0.1-7.6-0.1c-0.4,0-0.9,0-1.3,0.1c-22.3-0.3-77.6,0-102.7,0.2c-0.4-0.1-0.7-0.2-1.1-0.2c-1.5-0.2-6.9-0.1-8.3,0
			c-0.7,0-1.4,0.2-2.1,0.4c-0.8,0-1.3,0-1.3,0c-0.9,0-1.6,0.3-2.2,0.6c-23.9-0.2-75.7,0.1-99.9,0.3c-0.4-0.1-0.7-0.2-1.1-0.2
			c-0.1,0-0.1,0-0.2,0c-0.5-0.2-1.1-0.4-1.6-0.5c-0.2-0.1-7.3-0.1-7.6-0.1c-0.4,0-0.9,0-1.3,0.1c-22.2-0.3-76.8,0-102.2,0.2
			c-0.3-0.1-0.5-0.3-0.8-0.4c-0.9-0.6-1.9-1.1-3-1.3c-0.2-0.1-7.3-0.1-7.6-0.1c-0.4,0-0.9,0-1.3,0.1c-22.3-0.3-77.6,0-102.7,0.2
			c-0.4-0.1-0.7-0.2-1.1-0.2c-0.1,0-0.1,0-0.2,0c-0.5-0.2-1.1-0.4-1.6-0.5c-0.2-0.1-7.3-0.1-7.6-0.1c-0.4,0-0.9,0-1.3,0.1
			c-22.3-0.3-77.6,0-102.7,0.2c-0.4-0.1-0.7-0.2-1.1-0.2c-1.5-0.2-6.9-0.1-8.3,0c-0.7,0-1.4,0.2-2.1,0.4c-0.8,0-1.3,0-1.3,0
			c-0.9,0-1.6,0.3-2.2,0.6c-23.9-0.2-75.7,0.1-99.9,0.3c-0.4-0.1-0.7-0.2-1.1-0.2c-1.5-0.2-6.9-0.1-8.3,0c-0.7,0-1.4,0.2-2.1,0.4
			c-0.8,0-1.3,0-1.3,0c-2.6,0.1-4,1.9-4.2,4.2c0,0.4-0.1,1-0.1,1.7c0,0,0,0,0,0c0,0,0,0.2,0,0.5c0,0.7,0,1.5,0,2.3
			c0,8.9,0.1,35.8,0,36.3c-0.1,0.9,0.1,40,0,40.7c0,0.7,0,17.7,0.3,29.8c-0.1,0.3-0.1,0.6-0.2,0.9c0,0.4-0.1,1-0.1,1.7c0,0,0,0,0,0
			c0,0,0,0.2,0,0.5c0,0.7,0,1.5,0,2.3c0,0.7,0,1.6,0,2.5c0,0.4,0,0.8,0,1.1c0,11,0.1,32.2,0,32.7c-0.1,0.9,0.1,40,0,40.7
			c0,0.7,0,17.6,0.3,29.6c-0.1,0.3-0.1,0.6-0.2,0.9c0,0.4-0.1,1-0.1,1.7c0,0,0,0,0,0c0,0,0,0.2,0,0.5c0,0.7,0,1.5,0,2.3
			c0,0.8,0,1.7,0,2.7c0,0.4,0,0.8,0,1.1c0,0.4,0,0.7,0,1.1c0,0,0,0,0,0c0,11.3,0.1,30.9,0,31.4c-0.1,0.9,0.1,40,0,40.7
			c0,0.7,0,17.5,0.3,29.6c-0.1,0.3-0.1,0.6-0.2,0.9c0,0.4-0.1,1-0.1,1.7c0,0,0,0,0,0c0,0,0,0.2,0,0.5c0,0.7,0,1.5,0,2.3
			c0,0.8,0,1.7,0,2.7c0,0.4,0,0.8,0,1.1c0,0.4,0,0.7,0,1.1c0,0,0,0,0,0c0,11.3,0.1,30.9,0,31.4c-0.1,0.9,0.1,40,0,40.7
			c0,0.7,0,17.7,0.3,29.8c-0.1,0.3-0.1,0.6-0.2,0.9c0,0.4-0.1,1-0.1,1.7c0,0,0,0,0,0c0,0,0,0.2,0,0.5c0,0.7,0,1.5,0,2.3
			c0,0.7,0,1.6,0,2.5c0,0.4,0,0.8,0,1.1c0,11,0.1,32.2,0,32.7c-0.1,0.9,0.1,40,0,40.7c0,0.7,0,18,0.3,30.1c-0.1,0.3-0.1,0.6-0.2,0.9
			c0,0.4-0.1,1-0.1,1.7c0,0,0,0,0,0c0,0,0,0.2,0,0.5c0,0.7,0,1.5,0,2.3c0,0.6,0,1.4,0,2.2c0,0.4,0,0.8,0,1.1c0,10.9,0.1,32.6,0,33
			c-0.1,0.9,0.1,40,0,40.7c-0.1,0.7,0,19.3,0.3,31.4c-0.1,0.3-0.2,0.5-0.2,0.8c-0.1,0.2-0.1,7.2-0.1,7.4c-0.1,1.8,0.8,3.6,3.7,5
			c0.9,0.6,1.9,1.1,3,1.3c0.2,0.1,7.3,0.1,7.6,0.1c0.4,0,0.9,0,1.3-0.1c22.3,0.3,77.6,0,102.7-0.2c0.4,0.1,0.7,0.2,1.1,0.2
			c1.5,0.2,6.9,0.1,8.3,0c0.7,0,1.4-0.2,2.1-0.4c0.8,0,1.3,0,1.3,0c0.9,0,1.6-0.3,2.2-0.6c23.9,0.2,75.7-0.1,99.9-0.3
			c0.4,0.1,0.7,0.2,1.1,0.2c0.1,0,0.1,0,0.2,0c0.5,0.2,1.1,0.4,1.6,0.5c0.2,0.1,7.3,0.1,7.6,0.1c0.4,0,0.9,0,1.3-0.1
			c22.2,0.3,76.8,0,102.2-0.2c0.3,0.1,0.5,0.3,0.8,0.4c0.9,0.6,1.9,1.1,3,1.3c0.2,0.1,7.3,0.1,7.6,0.1c0.4,0,0.9,0,1.3-0.1
			c22.3,0.3,77.6,0,102.7-0.2c0.4,0.1,0.7,0.2,1.1,0.2c0.1,0,0.1,0,0.2,0c0.5,0.2,1.1,0.4,1.6,0.5c0.2,0.1,7.3,0.1,7.6,0.1
			c0.4,0,0.9,0,1.3-0.1c22.3,0.3,77.6,0,102.7-0.2c0.4,0.1,0.7,0.2,1.1,0.2c1.5,0.2,6.9,0.1,8.3,0c0.7,0,1.4-0.2,2.1-0.4
			c0.8,0,1.3,0,1.3,0c0.9,0,1.6-0.3,2.2-0.6c23.9,0.2,75.7-0.1,99.9-0.3c0.4,0.1,0.7,0.2,1.1,0.2c0.1,0,0.1,0,0.2,0
			c0.5,0.2,1.1,0.4,1.6,0.5c0.2,0.1,7.3,0.1,7.6,0.1c0.4,0,0.9,0,1.3-0.1c22.3,0.3,77.6,0,102.7-0.2c0.4,0.1,0.7,0.2,1.1,0.2
			c1.5,0.2,6.9,0.1,8.3,0c0.3,0,0.7-0.1,1-0.1c0.4,0,0.6,0,0.7,0c0.4,0,0.9,0,1.3-0.1c22.2,0.3,76.8,0,102.2-0.2
			c0.3,0.1,0.5,0.3,0.8,0.4c0.9,0.6,1.9,1.1,3,1.3c0.2,0.1,7.3,0.1,7.6,0.1c0.4,0,0.9,0,1.3-0.1c22.3,0.3,77.6,0,102.7-0.2
			c0.4,0.1,0.7,0.2,1.1,0.2c0.1,0,0.1,0,0.2,0c0.5,0.2,1.1,0.4,1.6,0.5c0.2,0.1,7.3,0.1,7.6,0.1c0.4,0,0.9,0,1.3-0.1
			c22.3,0.3,77.6,0,102.7-0.2c0.4,0.1,0.7,0.2,1.1,0.2c1.5,0.2,6.9,0.1,8.3,0c0.7,0,1.4-0.2,2.1-0.4c0.8,0,1.3,0,1.3,0
			c0.9,0,1.6-0.3,2.2-0.6c23.9,0.2,75.7-0.1,99.9-0.3c0.4,0.1,0.7,0.2,1.1,0.2c1.5,0.2,6.9,0.1,8.3,0c0.7,0,1.4-0.2,2.1-0.4
			c0.8,0,1.3,0,1.3,0c2.6-0.1,4-1.9,4.2-4.2c0-0.4,0.1-1,0.1-1.7c0,0,0,0,0,0c0,0,0-0.2,0-0.5c0-0.7,0-1.6,0-2.4
			c0-8.9-0.1-35.8,0-36.3c0.1-0.9-0.1-40,0-40.7c0.1-0.7,0-18-0.3-30.1c0.1-0.3,0.1-0.6,0.2-0.9c0-0.4,0.1-1,0.1-1.7c0,0,0,0,0,0
			c0,0,0-0.2,0-0.5c0-0.7,0-1.6,0-2.4c0-0.6,0-1.4,0-2.2c0-0.4,0-0.8,0-1.1c0-10.9-0.1-32.5,0-33c0.1-0.9-0.1-40,0-40.7
			c0-0.7,0-17.7-0.3-29.8c0.1-0.3,0.1-0.6,0.2-0.9c0-0.4,0.1-1,0.1-1.7c0,0,0,0,0,0c0,0,0-0.2,0-0.5c0-0.7,0-1.6,0-2.4
			c0-0.7,0-1.6,0-2.5c0-0.4,0-0.8,0-1.1c0-0.4,0-0.7,0-1.1c0,0,0,0,0,0c0-11.3-0.1-31.1,0-31.6c0.1-0.9-0.1-40,0-40.7
			c0-0.7,0-17.5-0.3-29.6c0.1-0.3,0.1-0.6,0.2-0.9c0-0.4,0.1-1,0.1-1.7c0,0,0,0,0,0c0,0,0-0.2,0-0.5c0-0.7,0-1.6,0-2.4
			c0-0.8,0-1.7,0-2.7c0-0.4,0-0.8,0-1.2c0-0.4,0-0.7,0-1.1c0,0,0,0,0,0c0-11.3-0.1-30.9,0-31.4c0.1-0.9-0.1-40,0-40.7
			c0-0.7,0-17.6-0.3-29.6c0.1-0.3,0.1-0.6,0.2-0.9c0-0.4,0.1-1,0.1-1.7c0,0,0,0,0,0c0,0,0-0.2,0-0.5c0-0.7,0-1.6,0-2.4
			c0-0.8,0-1.7,0-2.7c0-0.4,0-0.8,0-1.2c0-0.4,0-0.7,0-1.1c0,0,0,0,0,0c0-11.3-0.1-30.9,0-31.4c0.1-0.9-0.1-40,0-40.7
			c0-0.7,0-17.7-0.3-29.8c0.1-0.3,0.1-0.6,0.2-0.9c0-0.4,0.1-1,0.1-1.7c0,0,0,0,0,0c0,0,0-0.2,0-0.5c0-0.7,0-1.6,0-2.4
			c0-0.7,0-1.6,0-2.5c0-0.4,0-0.8,0-1.1c0-0.4,0-0.7,0-1.1c0,0,0,0,0,0c0-11.3-0.1-31.1,0-31.6C1293.1,99.9,1293,60.7,1293.1,60z
			 M1250.5,91.9c-0.1,0.6,0.1,35.6,0,36.4c0,0.4,0,18.2,0,28.2c0,0,0,0,0,0c0,0.3,0,0.7,0,1c0,0.3,0,0.6,0,1c0,0.8,0,1.6,0,2.2
			c0,0.7,0,1.4,0,2.1c0,0.2,0,0.4,0,0.4c0,0,0,0,0,0c0,0.7,0,1.2-0.1,1.6c0,0.3-0.1,0.5-0.2,0.8c0.2,10.8,0.3,26,0.2,26.6
			c-0.1,0.6,0.1,35.6,0,36.4c0,0.4,0,18,0,28.1c0,0,0,0,0,0c0,0.3,0,0.7,0,1c0,0.3,0,0.6,0,1c0,0.9,0,1.7,0,2.4c0,0.7,0,1.4,0,2.1
			c0,0.2,0,0.4,0,0.4c0,0,0,0,0,0c0,0.7,0,1.2-0.1,1.6c0,0.3-0.1,0.5-0.2,0.8c0.2,10.8,0.3,25.9,0.2,26.4c-0.1,0.6,0.1,35.6,0,36.4
			c0,0.4,0,17.9,0,28c0,0,0,0,0,0c0,0.3,0,0.6,0,1c0,0.3,0,0.6,0,1c0,0.9,0,1.7,0,2.4c0,0.7,0,1.4,0,2.1c0,0.2,0,0.4,0,0.4
			c0,0,0,0,0,0c0,0.7,0,1.2-0.1,1.6c0,0.3-0.1,0.5-0.2,0.8c0.2,10.7,0.3,25.8,0.2,26.4c-0.1,0.6,0.1,35.6,0,36.4
			c0,0.4,0,18.2,0,28.2c0,0,0,0,0,0c0,0.3,0,0.7,0,1c0,0.3,0,0.6,0,1c0,0.8,0,1.6,0,2.2c0,0.7,0,1.4,0,2.1c0,0.2,0,0.4,0,0.4
			c0,0,0,0,0,0c0,0.7,0,1.2-0.1,1.6c0,0.3-0.1,0.5-0.2,0.8c0.2,10.8,0.3,26,0.2,26.6c-0.1,0.6,0.1,35.6,0,36.4c0,0.4,0,19.8,0,29.5
			c0,0.3,0,0.6,0,1c0,0.7,0,1.4,0,1.9c0,0.7,0,1.4,0,2.1c0,0.2,0,0.4,0,0.4c0,0,0,0,0,0c0,0.7,0,1.2-0.1,1.6c0,0.3-0.1,0.5-0.2,0.8
			c0.2,10.8,0.3,26.3,0.2,26.9c-0.1,0.6,0.1,35.6,0,36.4c0,0.5,0,24.5,0,32.5c0,0.7,0,1.4,0,2.1c0,0.2,0,0.4,0,0.4c0,0,0,0,0,0
			c0,0.7,0,1.2-0.1,1.6c-0.2,2-1.5,3.6-4,3.7c0,0-0.5,0-1.2,0c-0.6,0.2-1.3,0.3-1.9,0.3c-1.3,0.1-6.4,0.1-7.7,0
			c-0.4,0-0.7-0.1-1-0.2c-22.5,0.2-71,0.4-93.2,0.2c-0.6,0.3-1.2,0.5-2,0.6c0,0-0.5,0-1.2,0c-0.6,0.2-1.3,0.3-1.9,0.3
			c-1.3,0.1-6.4,0.1-7.7,0c-0.4,0-0.7-0.1-1-0.2c-23.4,0.2-75,0.5-95.9,0.2c-0.4,0.1-0.8,0.1-1.2,0.1c-0.2,0-6.9,0-7.1-0.1
			c-0.5-0.1-1-0.3-1.5-0.5c-0.1,0-0.1,0-0.2,0c-0.4,0-0.7-0.1-1-0.2c-23.4,0.2-75,0.5-95.9,0.2c-0.4,0.1-0.8,0.1-1.2,0.1
			c-0.2,0-6.9,0-7.1-0.1c-1-0.2-2-0.6-2.8-1.1c-0.3-0.1-0.5-0.3-0.8-0.4c-23.7,0.2-74.7,0.5-95.4,0.2c-0.4,0.1-0.8,0.1-1.2,0.1
			c0,0-0.3,0-0.6,0c-0.3,0.1-0.6,0.1-0.9,0.1c-1.3,0.1-6.4,0.1-7.7,0c-0.4,0-0.7-0.1-1-0.2c-23.4,0.2-75,0.5-95.9,0.2
			c-0.4,0.1-0.8,0.1-1.2,0.1c-0.2,0-6.9,0-7.1-0.1c-0.5-0.1-1-0.3-1.5-0.5c-0.1,0-0.1,0-0.2,0c-0.4,0-0.7-0.1-1-0.2
			c-22.5,0.2-71,0.4-93.2,0.2c-0.6,0.3-1.2,0.5-2,0.6c0,0-0.5,0-1.2,0c-0.6,0.2-1.3,0.3-1.9,0.3c-1.3,0.1-6.4,0.1-7.7,0
			c-0.4,0-0.7-0.1-1-0.2c-23.4,0.2-75,0.5-95.9,0.2c-0.4,0.1-0.8,0.1-1.2,0.1c-0.2,0-6.9,0-7.1-0.1c-0.5-0.1-1-0.3-1.5-0.5
			c-0.1,0-0.1,0-0.2,0c-0.4,0-0.7-0.1-1-0.2c-23.4,0.2-75,0.5-95.9,0.2c-0.4,0.1-0.8,0.1-1.2,0.1c-0.2,0-6.9,0-7.1-0.1
			c-1-0.2-2-0.6-2.8-1.1c-0.3-0.1-0.5-0.3-0.8-0.4c-23.7,0.2-74.7,0.5-95.4,0.2c-0.4,0.1-0.8,0.1-1.2,0.1c-0.2,0-6.9,0-7.1-0.1
			c-0.5-0.1-1-0.3-1.5-0.5c-0.1,0-0.1,0-0.2,0c-0.4,0-0.7-0.1-1-0.2c-22.5,0.2-71,0.4-93.2,0.2c-0.6,0.3-1.2,0.5-2,0.6
			c0,0-0.5,0-1.2,0c-0.6,0.2-1.3,0.3-1.9,0.3c-1.3,0.1-6.4,0.1-7.7,0c-0.4,0-0.7-0.1-1-0.2c-23.4,0.2-75,0.5-95.9,0.2
			c-0.4,0.1-0.8,0.1-1.2,0.1c-0.2,0-6.9,0-7.1-0.1c-1-0.2-2-0.6-2.8-1.1c-2.8-1.3-3.6-2.9-3.5-4.5c0-0.2,0-6.4,0.1-6.6
			c0-0.2,0.1-0.5,0.2-0.7c-0.3-10.8-0.3-27.4-0.3-28c0.1-0.6-0.1-35.6,0-36.4c0-0.4,0-19.8,0-29.5c0-0.3,0-0.6,0-1c0-0.7,0-1.4,0-2
			c0-0.7,0-1.4,0-2.1c0-0.2,0-0.4,0-0.4c0,0,0,0,0,0c0-0.7,0-1.2,0.1-1.6c0-0.3,0.1-0.5,0.2-0.8c-0.2-10.8-0.3-26.3-0.2-26.9
			c0.1-0.6-0.1-35.6,0-36.4c0-0.4,0-19.4,0-29.2c0-0.3,0-0.6,0-1c0-0.8,0-1.6,0-2.3c0-0.7,0-1.4,0-2.1c0-0.2,0-0.4,0-0.4
			c0,0,0,0,0,0c0-0.7,0-1.2,0.1-1.6c0-0.3,0.1-0.5,0.2-0.8c-0.2-10.8-0.3-26-0.2-26.6c0.1-0.6-0.1-35.6,0-36.4c0-0.4,0-17.9,0-28
			c0,0,0,0,0,0c0-0.3,0-0.7,0-1c0-0.3,0-0.6,0-1c0-0.9,0-1.7,0-2.4c0-0.7,0-1.4,0-2.1c0-0.2,0-0.4,0-0.4c0,0,0,0,0,0
			c0-0.7,0-1.2,0.1-1.6c0-0.3,0.1-0.5,0.2-0.8c-0.2-10.7-0.3-25.8-0.2-26.4c0.1-0.6-0.1-35.6,0-36.4c0-0.4,0-18,0-28.1c0,0,0,0,0,0
			c0-0.3,0-0.7,0-1c0-0.3,0-0.6,0-1c0-0.9,0-1.7,0-2.4c0-0.7,0-1.4,0-2.1c0-0.2,0-0.4,0-0.4c0,0,0,0,0,0c0-0.7,0-1.2,0.1-1.6
			c0-0.3,0.1-0.5,0.2-0.8c-0.2-10.8-0.3-25.9-0.2-26.4c0.1-0.6-0.1-35.6,0-36.4c0-0.4,0-19.4,0-29.2c0-0.3,0-0.6,0-1
			c0-0.8,0-1.6,0-2.3c0-0.7,0-1.4,0-2.1c0-0.2,0-0.4,0-0.4c0,0,0,0,0,0c0-0.7,0-1.2,0.1-1.6c0-0.3,0.1-0.5,0.2-0.8
			c-0.2-10.8-0.3-26-0.2-26.6c0.1-0.6-0.1-35.6,0-36.4c0-0.5,0-24.5,0-32.5c0-0.7,0-1.4,0-2.1c0-0.2,0-0.4,0-0.4c0,0,0,0,0,0
			c0-0.7,0-1.2,0.1-1.6c0.2-2,1.5-3.6,4-3.7c0,0,0.5,0,1.2,0c0.6-0.2,1.3-0.3,1.9-0.3c1.3-0.1,6.4-0.1,7.7,0c0.4,0,0.7,0.1,1,0.2
			c22.5-0.2,71-0.4,93.2-0.2c0.6-0.3,1.2-0.5,2-0.6c0,0,0.5,0,1.2,0c0.6-0.2,1.3-0.3,1.9-0.3c1.3-0.1,6.4-0.1,7.7,0
			c0.4,0,0.7,0.1,1,0.2c23.4-0.2,75-0.5,95.9-0.2c0.4-0.1,0.8-0.1,1.2-0.1c0.2,0,6.9,0,7.1,0.1c0.5,0.1,1,0.3,1.5,0.5
			c0.1,0,0.1,0,0.2,0c0.4,0,0.7,0.1,1,0.2c23.4-0.2,75-0.5,95.9-0.2c0.4-0.1,0.8-0.1,1.2-0.1c0.2,0,6.9,0,7.1,0.1
			c1,0.2,2,0.6,2.8,1.1c0.3,0.1,0.5,0.3,0.8,0.4c23.7-0.2,74.7-0.5,95.4-0.2c0.4-0.1,0.8-0.1,1.2-0.1c0.2,0,6.9,0,7.1,0.1
			c0.5,0.1,1,0.3,1.5,0.5c0.1,0,0.1,0,0.2,0c0.4,0,0.7,0.1,1,0.2c22.5-0.2,71-0.4,93.2-0.2c0.6-0.3,1.2-0.5,2-0.6c0,0,0.5,0,1.2,0
			c0.6-0.2,1.3-0.3,1.9-0.3c1.3-0.1,6.4-0.1,7.7,0c0.4,0,0.7,0.1,1,0.2c23.4-0.2,75-0.5,95.9-0.2c0.4-0.1,0.8-0.1,1.2-0.1
			c0.2,0,6.9,0,7.1,0.1c0.5,0.1,1,0.3,1.5,0.5c0.1,0,0.1,0,0.2,0c0.4,0,0.7,0.1,1,0.2c23.4-0.2,75-0.5,95.9-0.2
			c0.4-0.1,0.8-0.1,1.2-0.1c0,0,0.3,0,0.6,0c0.3-0.1,0.6-0.1,0.9-0.1c1.3-0.1,6.4-0.1,7.7,0c0.4,0,0.7,0.1,1,0.2
			c23.4-0.2,75-0.5,95.9-0.2c0.4-0.1,0.8-0.1,1.2-0.1c0.2,0,6.9,0,7.1,0.1c1,0.2,2,0.6,2.8,1.1c0.3,0.1,0.5,0.3,0.8,0.4
			c23.7-0.2,74.7-0.5,95.4-0.2c0.4-0.1,0.8-0.1,1.2-0.1c0.2,0,6.9,0,7.1,0.1c0.5,0.1,1,0.3,1.5,0.5c0.1,0,0.1,0,0.2,0
			c0.4,0,0.7,0.1,1,0.2c22.5-0.2,71-0.4,93.2-0.2c0.6-0.3,1.2-0.5,2-0.6c0,0,0.5,0,1.2,0c0.6-0.2,1.3-0.3,1.9-0.3
			c1.3-0.1,6.4-0.1,7.7,0c0.4,0,0.7,0.1,1,0.2c23.4-0.2,75-0.5,95.9-0.2c0.4-0.1,0.8-0.1,1.2-0.1c0.2,0,6.9,0,7.1,0.1
			c1,0.2,2,0.6,2.8,1.1c2.8,1.3,3.6,2.9,3.5,4.5c0,0.2,0,6.4-0.1,6.6c0,0.2-0.1,0.5-0.2,0.7C1250.4,74.7,1250.5,91.3,1250.5,91.9z"
			/>
	</g>
	<path class="st2" d="M1303.6,50.2c0.1-0.7,0-19.9-0.3-32.4c0.1-0.3,0.2-0.6,0.2-0.8c0.1-0.2,0.1-7.4,0.1-7.6
		c0.1-1.8-0.8-3.7-3.8-5.2c-0.9-0.6-1.9-1.1-3-1.3c-0.2-0.1-7.5-0.1-7.7-0.1c-0.4,0-0.9,0-1.3,0.1c-22.7-0.3-78.8,0-104.4,0.2
		c-0.4-0.1-0.7-0.2-1.1-0.2c-1.5-0.2-7-0.1-8.4,0c-0.7,0-1.4,0.2-2.1,0.4c-0.8,0-1.3,0-1.3,0c-0.9,0-1.6,0.3-2.2,0.7
		c-24.2-0.2-77,0.1-101.5,0.3c-0.4-0.1-0.7-0.2-1.1-0.2c-0.1,0-0.1,0-0.2,0c-0.5-0.2-1.1-0.4-1.7-0.5c-0.2-0.1-7.5-0.1-7.7-0.1
		c-0.4,0-0.9,0-1.3,0.1c-22.5-0.3-78.1,0-103.9,0.2c-0.3-0.2-0.5-0.3-0.8-0.4c-0.9-0.6-1.9-1.1-3-1.3c-0.2-0.1-7.5-0.1-7.7-0.1
		c-0.4,0-0.9,0-1.3,0.1c-22.7-0.3-78.8,0-104.4,0.2c-0.4-0.1-0.7-0.2-1.1-0.2c-1.5-0.2-7-0.1-8.4,0c-0.3,0-0.7,0.1-1,0.1
		c-0.4,0-0.6,0-0.7,0c-0.4,0-0.9,0-1.3,0.1c-22.7-0.3-78.8,0-104.4,0.2c-0.4-0.1-0.7-0.2-1.1-0.2c-0.1,0-0.1,0-0.2,0
		c-0.5-0.2-1.1-0.4-1.7-0.5c-0.2-0.1-7.5-0.1-7.7-0.1c-0.4,0-0.9,0-1.3,0.1c-22.7-0.3-78.8,0-104.4,0.2c-0.4-0.1-0.7-0.2-1.1-0.2
		c-1.5-0.2-7-0.1-8.4,0c-0.7,0-1.4,0.2-2.1,0.4c-0.8,0-1.3,0-1.3,0c-0.9,0-1.6,0.3-2.2,0.7c-24.2-0.2-77,0.1-101.5,0.3
		c-0.4-0.1-0.7-0.2-1.1-0.2c-0.1,0-0.1,0-0.2,0c-0.5-0.2-1.1-0.4-1.7-0.5C480.4,2,473.1,2,472.9,2c-0.4,0-0.9,0-1.3,0.1
		c-22.5-0.3-78.1,0-103.9,0.2c-0.3-0.2-0.5-0.3-0.8-0.4c-0.9-0.6-1.9-1.1-3-1.3c-0.2-0.1-7.5-0.1-7.7-0.1c-0.4,0-0.9,0-1.3,0.1
		c-22.7-0.3-78.8,0-104.4,0.2c-0.4-0.1-0.7-0.2-1.1-0.2c-0.1,0-0.1,0-0.2,0c-0.5-0.2-1.1-0.4-1.7-0.5C247.3,0,240.1,0,239.8,0
		c-0.4,0-0.9,0-1.3,0.1c-22.7-0.3-78.8,0-104.4,0.2c-0.4-0.1-0.7-0.2-1.1-0.2c-1.5-0.2-7-0.1-8.4,0c-0.7,0-1.4,0.2-2.1,0.4
		c-0.8,0-1.3,0-1.3,0c-0.9,0-1.6,0.3-2.2,0.7c-24.2-0.2-77,0.1-101.5,0.3c-0.4-0.1-0.7-0.2-1.1-0.2c-1.5-0.2-7-0.1-8.4,0
		c-0.7,0-1.4,0.2-2.1,0.4c-0.8,0-1.3,0-1.3,0c-2.7,0.1-4,2-4.3,4.3c0,0.4-0.1,1-0.1,1.8c0,0,0,0,0,0c0,0,0,0.2,0,0.5
		c0,0.8,0,1.6,0,2.4c0,9.2,0.1,36.9,0,37.5C0,48.9,0.1,89.4,0,90.1c-0.1,0.7,0,18.3,0.3,30.7c-0.1,0.3-0.1,0.6-0.2,0.9
		c0,0.4-0.1,1-0.1,1.8c0,0,0,0,0,0c0,0,0,0.2,0,0.5c0,0.8,0,1.6,0,2.4c0,0.8,0,1.6,0,2.6c0,0.4,0,0.8,0,1.1c0,11.4,0.1,33.3,0,33.8
		c-0.1,0.9,0.1,41.3,0,42.1c0,0.7,0,18.1,0.3,30.6c-0.1,0.3-0.1,0.6-0.2,0.9c0,0.4-0.1,1-0.1,1.8c0,0,0,0,0,0c0,0,0,0.2,0,0.5
		c0,0.8,0,1.6,0,2.4c0,0.8,0,1.7,0,2.8c0,0.4,0,0.8,0,1.2c0,0.4,0,0.7,0,1.1c0,0,0,0,0,0c0,11.7,0.1,31.9,0,32.4
		c-0.1,0.9,0.1,41.3,0,42.1c0,0.7,0,18.1,0.3,30.5c-0.1,0.3-0.1,0.6-0.2,0.9c0,0.4-0.1,1-0.1,1.8c0,0,0,0,0,0c0,0,0,0.2,0,0.5
		c0,0.8,0,1.6,0,2.4c0,0.8,0,1.8,0,2.8c0,0.4,0,0.8,0,1.2c0,0.4,0,0.7,0,1.1c0,0,0,0,0,0c0,11.7,0.1,31.9,0,32.4
		c-0.1,0.9,0.1,41.3,0,42.1c-0.1,0.7,0,18.3,0.3,30.7c-0.1,0.3-0.1,0.6-0.2,0.9c0,0.4-0.1,1-0.1,1.8c0,0,0,0,0,0c0,0,0,0.2,0,0.5
		c0,0.8,0,1.6,0,2.4c0,0.8,0,1.6,0,2.6c0,0.4,0,0.8,0,1.1c0,11.4,0.1,33.3,0,33.8c-0.1,0.9,0.1,41.3,0,42.1
		c-0.1,0.7,0,18.6,0.3,31.1c-0.1,0.3-0.1,0.6-0.2,0.9c0,0.4-0.1,1-0.1,1.8c0,0,0,0,0,0c0,0,0,0.2,0,0.5c0,0.8,0,1.6,0,2.4
		c0,0.7,0,1.4,0,2.3c0,0.4,0,0.8,0,1.1c0,11.3,0.1,33.6,0,34.1C0,628.6,0.1,669,0,669.8c-0.1,0.7,0,19.9,0.3,32.4
		c-0.1,0.3-0.2,0.6-0.2,0.8C0,703.2,0,710.4,0,710.6c-0.1,1.8,0.8,3.7,3.8,5.2c0.9,0.6,1.9,1.1,3,1.3c0.2,0.1,7.5,0.1,7.7,0.1
		c0.4,0,0.9,0,1.3-0.1c22.7,0.3,78.8,0,104.4-0.2c0.4,0.1,0.7,0.2,1.1,0.2c1.5,0.2,7,0.1,8.4,0c0.7,0,1.4-0.2,2.1-0.4
		c0.8,0,1.3,0,1.3,0c0.9,0,1.6-0.3,2.2-0.7c24.2,0.2,77-0.1,101.5-0.3c0.4,0.1,0.7,0.2,1.1,0.2c0.1,0,0.1,0,0.2,0
		c0.5,0.2,1.1,0.4,1.7,0.5c0.2,0.1,7.5,0.1,7.7,0.1c0.4,0,0.9,0,1.3-0.1c22.5,0.3,78.1,0,103.9-0.2c0.3,0.2,0.5,0.3,0.8,0.4
		c0.9,0.6,1.9,1.1,3,1.3c0.2,0.1,7.5,0.1,7.7,0.1c0.4,0,0.9,0,1.3-0.1c22.7,0.3,78.8,0,104.4-0.2c0.4,0.1,0.7,0.2,1.1,0.2
		c0.1,0,0.1,0,0.2,0c0.5,0.2,1.1,0.4,1.7,0.5c0.2,0.1,7.5,0.1,7.7,0.1c0.4,0,0.9,0,1.3-0.1c22.7,0.3,78.8,0,104.4-0.2
		c0.4,0.1,0.7,0.2,1.1,0.2c1.5,0.2,7,0.1,8.4,0c0.7,0,1.4-0.2,2.1-0.4c0.8,0,1.3,0,1.3,0c0.9,0,1.6-0.3,2.2-0.7
		c24.2,0.2,77-0.1,101.5-0.3c0.4,0.1,0.7,0.2,1.1,0.2c0.1,0,0.1,0,0.2,0c0.5,0.2,1.1,0.4,1.7,0.5c0.2,0.1,7.5,0.1,7.7,0.1
		c0.4,0,0.9,0,1.3-0.1c22.7,0.3,78.8,0,104.4-0.2c0.4,0.1,0.7,0.2,1.1,0.2c1.5,0.2,7,0.1,8.4,0c0.3,0,0.7-0.1,1-0.1
		c0.4,0,0.6,0,0.7,0c0.4,0,0.9,0,1.3-0.1c22.5,0.3,78.1,0,103.9-0.2c0.3,0.2,0.5,0.3,0.8,0.4c0.9,0.6,1.9,1.1,3,1.3
		c0.2,0.1,7.5,0.1,7.7,0.1c0.4,0,0.9,0,1.3-0.1c22.7,0.3,78.8,0,104.4-0.2c0.4,0.1,0.7,0.2,1.1,0.2c0.1,0,0.1,0,0.2,0
		c0.5,0.2,1.1,0.4,1.7,0.5c0.2,0.1,7.5,0.1,7.7,0.1c0.4,0,0.9,0,1.3-0.1c22.7,0.3,78.8,0,104.4-0.2c0.4,0.1,0.7,0.2,1.1,0.2
		c1.5,0.2,7,0.1,8.4,0c0.7,0,1.4-0.2,2.1-0.4c0.8,0,1.3,0,1.3,0c0.9,0,1.6-0.3,2.2-0.7c24.2,0.2,77-0.1,101.5-0.3
		c0.4,0.1,0.7,0.2,1.1,0.2c1.5,0.2,7,0.1,8.4,0c0.7,0,1.4-0.2,2.1-0.4c0.8,0,1.3,0,1.3,0c2.7-0.1,4-2,4.3-4.3c0-0.4,0.1-1,0.1-1.8
		c0,0,0,0,0,0c0,0,0-0.2,0-0.5c0-0.8,0-1.6,0-2.4c0-9.2-0.1-36.9,0-37.5c0.1-0.9-0.1-41.3,0-42.1c0.1-0.7,0-18.6-0.3-31.1
		c0.1-0.3,0.1-0.6,0.2-0.9c0-0.4,0.1-1,0.1-1.8c0,0,0,0,0,0c0,0,0-0.2,0-0.5c0-0.8,0-1.6,0-2.4c0-0.7,0-1.4,0-2.2c0-0.4,0-0.8,0-1.2
		c0-11.3-0.1-33.6,0-34.1c0.1-0.9-0.1-41.3,0-42.1c0.1-0.7,0-18.3-0.3-30.7c0.1-0.3,0.1-0.6,0.2-0.9c0-0.4,0.1-1,0.1-1.8
		c0,0,0,0,0,0c0,0,0-0.2,0-0.5c0-0.8,0-1.6,0-2.4c0-0.7,0-1.6,0-2.6c0-0.5,0-0.9,0-1.2c0-0.4,0-0.7,0-1.1c0,0,0,0,0,0
		c0-11.6-0.1-32.1,0-32.6c0.1-0.9-0.1-41.3,0-42.1c0-0.7,0-18.1-0.3-30.5c0.1-0.3,0.1-0.6,0.2-0.9c0-0.4,0.1-1,0.1-1.8c0,0,0,0,0,0
		c0,0,0-0.2,0-0.5c0-0.8,0-1.6,0-2.4c0-0.8,0-1.7,0-2.8c0-0.5,0-0.9,0-1.2c0-0.4,0-0.7,0-1.1c0,0,0,0,0,0c0-11.7-0.1-31.9,0-32.4
		c0.1-0.9-0.1-41.3,0-42.1c0-0.7,0-18.1-0.3-30.6c0.1-0.3,0.1-0.6,0.2-0.9c0-0.4,0.1-1,0.1-1.8c0,0,0,0,0,0c0,0,0-0.2,0-0.5
		c0-0.8,0-1.6,0-2.4c0-0.8,0-1.7,0-2.8c0-0.5,0-0.9,0-1.2c0-0.4,0-0.7,0-1.1c0,0,0,0,0,0c0-11.7-0.1-31.9,0-32.4
		c0.1-0.9-0.1-41.3,0-42.1c0.1-0.7,0-18.3-0.3-30.7c0.1-0.3,0.1-0.6,0.2-0.9c0-0.4,0.1-1,0.1-1.8c0,0,0,0,0,0c0,0,0-0.2,0-0.5
		c0-0.8,0-1.6,0-2.4c0-0.7,0-1.6,0-2.6c0-0.5,0-0.9,0-1.2c0-0.4,0-0.7,0-1.1c0,0,0,0,0,0c0-11.6-0.1-32.1,0-32.6
		C1303.6,91.4,1303.5,51,1303.6,50.2z M1260.3,83.2c-0.1,0.7,0.1,36.8,0,37.6c0,0.4,0,18.8,0,29.1c0,0,0,0,0,0c0,0.3,0,0.7,0,1
		c0,0.3,0,0.6,0,1c0,0.9,0,1.6,0,2.3c0,0.7,0,1.5,0,2.2c0,0.3,0,0.4,0,0.5c0,0,0,0,0,0c0,0.7,0,1.3-0.1,1.6c0,0.3-0.1,0.5-0.2,0.8
		c0.2,11.1,0.3,26.9,0.2,27.5c-0.1,0.7,0.1,36.8,0,37.6c0,0.4,0,18.6,0,29c0,0,0,0,0,0c0,0.3,0,0.7,0,1c0,0.3,0,0.7,0,1.1
		c0,0.9,0,1.8,0,2.5c0,0.7,0,1.5,0,2.2c0,0.3,0,0.4,0,0.5c0,0,0,0,0,0c0,0.7,0,1.3-0.1,1.6c0,0.3-0.1,0.5-0.2,0.8
		c0.2,11.1,0.3,26.7,0.2,27.3c-0.1,0.7,0.1,36.8,0,37.6c0,0.4,0,18.5,0,28.9c0,0,0,0,0,0c0,0.3,0,0.7,0,1c0,0.3,0,0.7,0,1.1
		c0,0.9,0,1.8,0,2.5c0,0.7,0,1.5,0,2.2c0,0.3,0,0.4,0,0.5c0,0,0,0,0,0c0,0.7,0,1.3-0.1,1.6c0,0.3-0.1,0.5-0.2,0.8
		c0.2,11.1,0.3,26.7,0.2,27.3c-0.1,0.7,0.1,36.8,0,37.6c0,0.4,0,18.8,0,29.1c0,0,0,0,0,0c0,0.3,0,0.7,0,1c0,0.3,0,0.6,0,1
		c0,0.9,0,1.6,0,2.3c0,0.7,0,1.5,0,2.2c0,0.3,0,0.4,0,0.5c0,0,0,0,0,0c0,0.7,0,1.3-0.1,1.6c0,0.3-0.1,0.5-0.2,0.8
		c0.2,11.1,0.3,26.9,0.2,27.5c-0.1,0.7,0.1,36.8,0,37.6c0,0.5,0,20.4,0,30.5c0,0.3,0,0.6,0,1c0,0.7,0,1.4,0,2c0,0.7,0,1.5,0,2.2
		c0,0.3,0,0.4,0,0.5c0,0,0,0,0,0c0,0.7,0,1.3-0.1,1.6c0,0.3-0.1,0.6-0.2,0.8c0.2,11.1,0.3,27.1,0.2,27.8c-0.1,0.7,0.1,36.8,0,37.6
		c0,0.5,0,25.3,0,33.5c0,0.7,0,1.5,0,2.2c0,0.3,0,0.4,0,0.5c0,0,0,0,0,0c0,0.7,0,1.3-0.1,1.6c-0.2,2.1-1.5,3.7-4,3.9
		c0,0-0.5,0-1.3,0c-0.7,0.2-1.3,0.3-2,0.3c-1.3,0.1-6.5,0.1-7.9,0c-0.4,0-0.7-0.1-1.1-0.2c-22.9,0.2-72.1,0.4-94.8,0.2
		c-0.6,0.3-1.2,0.6-2.1,0.6c0,0-0.5,0-1.3,0c-0.7,0.2-1.3,0.3-2,0.3c-1.3,0.1-6.5,0.1-7.9,0c-0.4,0-0.7-0.1-1.1-0.2
		c-23.8,0.2-76.2,0.5-97.4,0.2c-0.4,0.1-0.8,0.1-1.2,0.1c-0.2,0-7,0-7.2-0.1c-0.5-0.1-1.1-0.3-1.5-0.5c-0.1,0-0.1,0-0.2,0
		c-0.4,0-0.7-0.1-1.1-0.2c-23.8,0.2-76.2,0.5-97.4,0.2c-0.4,0.1-0.8,0.1-1.2,0.1c-0.2,0-7,0-7.2-0.1c-1-0.2-2-0.6-2.8-1.2
		c-0.3-0.1-0.5-0.3-0.8-0.4c-24,0.2-75.9,0.5-97,0.2c-0.4,0.1-0.8,0.1-1.2,0.1c0,0-0.3,0-0.6,0c-0.3,0.1-0.6,0.1-1,0.1
		c-1.3,0.1-6.5,0.1-7.9,0c-0.4,0-0.7-0.1-1.1-0.2c-23.8,0.2-76.2,0.5-97.4,0.2c-0.4,0.1-0.8,0.1-1.2,0.1c-0.2,0-7,0-7.2-0.1
		c-0.5-0.1-1.1-0.3-1.5-0.5c-0.1,0-0.1,0-0.2,0c-0.4,0-0.7-0.1-1.1-0.2c-22.9,0.2-72.1,0.4-94.8,0.2c-0.6,0.3-1.2,0.6-2.1,0.6
		c0,0-0.5,0-1.3,0c-0.7,0.2-1.3,0.3-2,0.3c-1.3,0.1-6.5,0.1-7.9,0c-0.4,0-0.7-0.1-1.1-0.2c-23.8,0.2-76.2,0.5-97.4,0.2
		c-0.4,0.1-0.8,0.1-1.2,0.1c-0.2,0-7,0-7.2-0.1c-0.5-0.1-1.1-0.3-1.5-0.5c-0.1,0-0.1,0-0.2,0c-0.4,0-0.7-0.1-1.1-0.2
		c-23.8,0.2-76.2,0.5-97.4,0.2c-0.4,0.1-0.8,0.1-1.2,0.1c-0.2,0-7,0-7.2-0.1c-1-0.2-2-0.6-2.8-1.2c-0.3-0.1-0.5-0.3-0.8-0.4
		c-24,0.2-75.9,0.5-97,0.2c-0.4,0.1-0.8,0.1-1.2,0.1c-0.2,0-7,0-7.2-0.1c-0.5-0.1-1.1-0.3-1.5-0.5c-0.1,0-0.1,0-0.2,0
		c-0.4,0-0.7-0.1-1.1-0.2c-22.9,0.2-72.1,0.4-94.8,0.2c-0.6,0.3-1.2,0.6-2.1,0.6c0,0-0.5,0-1.3,0c-0.7,0.2-1.3,0.3-2,0.3
		c-1.3,0.1-6.5,0.1-7.9,0c-0.4,0-0.7-0.1-1.1-0.2c-23.8,0.2-76.2,0.5-97.4,0.2c-0.4,0.1-0.8,0.1-1.2,0.1c-0.2,0-7,0-7.2-0.1
		c-1-0.2-2-0.6-2.8-1.2c-2.8-1.3-3.6-3-3.5-4.6c0-0.2,0-6.6,0.1-6.8c0-0.3,0.1-0.5,0.2-0.8c-0.3-11.1-0.3-28.3-0.3-28.9
		c0.1-0.7-0.1-36.8,0-37.6c0-0.5,0-20.4,0-30.5c0-0.3,0-0.6,0-1c0-0.8,0-1.4,0-2c0-0.7,0-1.5,0-2.2c0-0.3,0-0.4,0-0.5c0,0,0,0,0,0
		c0-0.7,0-1.3,0.1-1.6c0-0.3,0.1-0.6,0.2-0.8c-0.2-11.1-0.3-27.1-0.2-27.8c0.1-0.7-0.1-36.8,0-37.6c0-0.5,0-20,0-30.2
		c0-0.3,0-0.6,0-1c0-0.9,0-1.7,0-2.3c0-0.7,0-1.5,0-2.2c0-0.3,0-0.4,0-0.5c0,0,0,0,0,0c0-0.7,0-1.3,0.1-1.6c0-0.3,0.1-0.5,0.2-0.8
		c-0.2-11.1-0.3-26.9-0.2-27.5c0.1-0.7-0.1-36.8,0-37.6c0-0.4,0-18.5,0-28.9c0,0,0,0,0,0c0-0.3,0-0.7,0-1c0-0.3,0-0.6,0-1
		c0-0.9,0-1.8,0-2.5c0-0.7,0-1.5,0-2.2c0-0.3,0-0.4,0-0.5c0,0,0,0,0,0c0-0.7,0-1.3,0.1-1.6c0-0.3,0.1-0.5,0.2-0.8
		c-0.2-11.1-0.3-26.7-0.2-27.3c0.1-0.7-0.1-36.8,0-37.6c0-0.4,0-18.6,0-29c0,0,0,0,0,0c0-0.3,0-0.7,0-1c0-0.3,0-0.6,0-1
		c0-0.9,0-1.8,0-2.5c0-0.7,0-1.5,0-2.2c0-0.3,0-0.4,0-0.5c0,0,0,0,0,0c0-0.7,0-1.3,0.1-1.6c0-0.3,0.1-0.5,0.2-0.8
		c-0.2-11.1-0.3-26.7-0.2-27.3c0.1-0.7-0.1-36.8,0-37.6c0-0.5,0-20,0-30.2c0-0.3,0-0.6,0-1c0-0.9,0-1.7,0-2.3c0-0.7,0-1.5,0-2.2
		c0-0.3,0-0.4,0-0.5c0,0,0,0,0,0c0-0.7,0-1.3,0.1-1.6c0-0.3,0.1-0.5,0.2-0.8c-0.2-11.1-0.3-26.9-0.2-27.5c0.1-0.7-0.1-36.8,0-37.6
		c0-0.5,0-25.3,0-33.5c0-0.7,0-1.5,0-2.2c0-0.3,0-0.4,0-0.5c0,0,0,0,0,0c0-0.7,0-1.3,0.1-1.6c0.2-2.1,1.5-3.7,4-3.9c0,0,0.5,0,1.3,0
		c0.7-0.2,1.3-0.3,2-0.3c1.3-0.1,6.5-0.1,7.9,0c0.4,0,0.7,0.1,1.1,0.2c22.9-0.2,72.1-0.4,94.8-0.2c0.6-0.3,1.2-0.6,2.1-0.6
		c0,0,0.5,0,1.3,0c0.7-0.2,1.3-0.3,2-0.3c1.3-0.1,6.5-0.1,7.9,0c0.4,0,0.7,0.1,1.1,0.2c23.8-0.2,76.2-0.5,97.4-0.2
		c0.4-0.1,0.8-0.1,1.2-0.1c0.2,0,7,0,7.2,0.1c0.5,0.1,1.1,0.3,1.5,0.5c0.1,0,0.1,0,0.2,0c0.4,0,0.7,0.1,1.1,0.2
		c23.8-0.2,76.2-0.5,97.4-0.2c0.4-0.1,0.8-0.1,1.2-0.1c0.2,0,7,0,7.2,0.1c1,0.2,2,0.6,2.8,1.2c0.3,0.1,0.5,0.3,0.8,0.4
		c24-0.2,75.9-0.5,97-0.2c0.4-0.1,0.8-0.1,1.2-0.1c0.2,0,7,0,7.2,0.1c0.5,0.1,1.1,0.3,1.5,0.5c0.1,0,0.1,0,0.2,0
		c0.4,0,0.7,0.1,1.1,0.2c22.9-0.2,72.1-0.4,94.8-0.2c0.6-0.3,1.2-0.6,2.1-0.6c0,0,0.5,0,1.3,0c0.7-0.2,1.3-0.3,2-0.3
		c1.3-0.1,6.5-0.1,7.9,0c0.4,0,0.7,0.1,1.1,0.2c23.8-0.2,76.2-0.5,97.4-0.2c0.4-0.1,0.8-0.1,1.2-0.1c0.2,0,7,0,7.2,0.1
		c0.5,0.1,1.1,0.3,1.5,0.5c0.1,0,0.1,0,0.2,0c0.4,0,0.7,0.1,1.1,0.2c23.8-0.2,76.2-0.5,97.4-0.2c0.4-0.1,0.8-0.1,1.2-0.1
		c0,0,0.3,0,0.6,0c0.3-0.1,0.6-0.1,1-0.1c1.3-0.1,6.5-0.1,7.9,0c0.4,0,0.7,0.1,1.1,0.2c23.8-0.2,76.2-0.5,97.4-0.2
		c0.4-0.1,0.8-0.1,1.2-0.1c0.2,0,7,0,7.2,0.1c1,0.2,2,0.6,2.8,1.2c0.3,0.1,0.5,0.3,0.8,0.4c24-0.2,75.9-0.5,97-0.2
		c0.4-0.1,0.8-0.1,1.2-0.1c0.2,0,7,0,7.2,0.1c0.5,0.1,1.1,0.3,1.5,0.5c0.1,0,0.1,0,0.2,0c0.4,0,0.7,0.1,1.1,0.2
		c22.9-0.2,72.1-0.4,94.8-0.2c0.6-0.3,1.2-0.6,2.1-0.6c0,0,0.5,0,1.3,0c0.7-0.2,1.3-0.3,2-0.3c1.3-0.1,6.5-0.1,7.9,0
		c0.4,0,0.7,0.1,1.1,0.2c23.8-0.2,76.2-0.5,97.4-0.2c0.4-0.1,0.8-0.1,1.2-0.1c0.2,0,7,0,7.2,0.1c1,0.2,2,0.6,2.8,1.2
		c2.8,1.3,3.6,3,3.5,4.6c0,0.2,0,6.6-0.1,6.8c0,0.3-0.1,0.5-0.2,0.8C1260.3,65.4,1260.3,82.6,1260.3,83.2z"/>
</g>
</svg>
