<?xml version="1.0" encoding="utf-8"?>
<!-- Generator: Adobe Illustrator 22.1.0, SVG Export Plug-In . SVG Version: 6.00 Build 0)  -->
<svg version="1.1" id="Layer_1" xmlns="http://www.w3.org/2000/svg" xmlns:xlink="http://www.w3.org/1999/xlink" x="0px" y="0px"
	 viewBox="0 0 1336.9 788.3" style="enable-background:new 0 0 1336.9 788.3;" xml:space="preserve">
<style type="text/css">
	.st0{fill:#FCF4E9;stroke:#36423E;stroke-linecap:round;stroke-miterlimit:10;}
	.st1{fill:#FCF4E9;stroke:#5C5B4B;stroke-linecap:round;stroke-miterlimit:10;}
</style>
<g id="XMLID_10268_">
	<path id="XMLID_10276_" class="st0" d="M881.3,787.8c-13.2-74.7-34.2-106.8-60.1-121.5c0,0-154.6-57.4-197.4,88.8
		c-3.4,11.6-5.7,22.5-7.1,32.7H881.3z"/>
	<g id="XMLID_10273_">
		<path id="XMLID_10275_" class="st1" d="M443.8,558.3c32.3-0.3,591.8-0.3,723.5-0.1c0.1-5.2,0.3-14.7,0.3-17
			c0-3.2-0.6-44.5-1.1-50.8c0-0.5-0.1-1-0.1-1.5c0.2-7.8,0.4-14.8,0.4-20.1c0.7-14.4,0.9-54,0.8-55.1c0-0.1,0.1-1.5,0-3.2
			c0.1-3.5,0-8.7-0.1-10.2c-0.1-1.2,0.1-29.6,0-30.9c0-0.3,0-0.7-0.1-1.1c0-1.6,0-3.1,0-4.7c0.1-3.3,0.2-6.8,0.1-7.9
			c0,0,0-0.6,0-1.4c0-6.3,0-10.7,0-11.1c0-0.1,0.1-1.5,0-3.2c0.1-3.5,0-8.7-0.1-10.2c0-0.1,0-0.4,0-0.8c0.1-3.7,0.1-7.1,0.1-8.4
			c0-0.9,0-4.7-0.1-9.8c0-6.1,0-11.4,0-11.9c-0.2-2.7,0.3-11.7,0.1-13.8c0.1-0.1-0.2-15.8-0.3-17.4c0.1-4.7,0.4-15.3,0.4-17.7
			c0-3.2-0.6-43.4-1.1-49.6c0-0.3,0-0.6-0.1-0.9c0.2-7.2,0.4-13.6,0.3-18.6c0.7-14.1,0.4-39.9-0.1-50.6c0.7-1.1,0.9-45.2,0.8-46.6
			c-0.1-0.6-0.2-1.1-0.3-1.7c-0.1-8.9-0.2-17.3-0.5-22.4c0.7-1.1,0.9-45.2,0.8-46.6C1167,7.3,1161.6,1.4,1153,1
			c-1-0.1-16.8,0-35.3,0.1c-1.1-0.2-2-0.2-3.1-0.3c-4-0.3-728.9-0.3-732.8,0c-1,0.1-2,0.2-3,0.3C360.9,1,345.6,0.9,344.7,1
			c-8.3,0.4-13.6,6.4-14,11.8c-0.1,1.3-0.1,5.1-0.1,8.2c0,2.5,0,35,0,35.2c-0.1,0.6,0,13.3,0.1,26.7c0,0.2-0.1,0.4-0.1,0.5
			c-0.1,1.3-0.1,5.1-0.1,8.2c0,2.5,0,35,0,35.2c-0.1,1.1,0.1,39.7,0.7,53.8c0,5,0.1,11.4,0.3,18.6c0,0.3,0,0.6-0.1,0.9
			c-0.5,6.2-1.1,46.5-1,49.6c0,2.5,0,35,0,35.2c-0.2,2-0.1,27.1,0,27.2c-0.1,0.9-0.1,2.6,0,4.6c0,1.9,0,3.2,0,3.7c0,1,0,7.1,0,13.9
			c0,1.9,0,3.9,0,5.6c0,0.7,0,1.4,0,1.9c0,7.3,0,13.7,0,13.8c-0.2,2-0.1,27.1,0,27.2c-0.2,2.2,0.2,8.3,0.3,13.1
			c-0.1,1.7-0.1,3.2-0.2,4.4c-0.1,1.6-0.2,6.8-0.1,10.2c0,1.8,0,3.1,0,3.2c-0.1,1.1,0.1,2.2,0.8,3.3c-0.4,11-0.7,37.4-0.1,51.8
			c0,5.3,0.1,12.4,0.4,20.1c0,0.5-0.1,1-0.1,1.5c-0.5,6.4-1.1,47.6-1,50.8c0,2.6,0,4.9,0,5c-0.1,1.2-0.1,7.5-0.1,13.7
			c2.4-0.6,5.8-1.1,10.5-1.6C348.5,557.7,419.8,558.1,443.8,558.3z"/>
		<path id="XMLID_10274_" class="st1" d="M330.6,577.2c-0.1,0.9,0,1.8,0.4,2.6c-0.3,13.8-0.5,30-0.5,32c0,2.6,0,4.9,0,5
			c-0.2,2.2-0.1,22.7,0,25.9c0,2.6,0,4.9,0,5c-0.3,3.4,2.6,7,13,9.5c6.4,1.5,66.7,0.5,86.9,0.2c30.1,0.6,602.4,0.6,633.6,0
			c21,0.3,83.4,1.3,90-0.2c10.8-2.4,13.8-6,13.4-9.5c0.1-0.2,0.1-2.5,0-5c0-3.2,0-7.1-0.1-8.4c-0.1-1.2-0.2-2.7-0.2-4.4
			c0.1-4.8,0.4-15.6,0.4-18.2c0-2-0.2-18.3-0.5-32c0.4-0.9,0.5-1.8,0.5-2.6c0.1-0.1,0.1-2.5,0-5c0-3.2,0-7.1-0.1-8.4
			c-0.1-1.2-0.2-2.7-0.2-4.4c0-0.4,0-0.7,0-1.1c-131.7-0.2-691.2-0.2-723.5,0.1c-24-0.2-95.3-0.7-102.8,0.1c-4.7,0.4-8.1,1-10.5,1.6
			c0,5.4,0.1,10.7,0.1,12.2C330.5,574.7,330.5,577,330.6,577.2z"/>
	</g>
	<path id="XMLID_10272_" class="st1" d="M1105.7,326.7c-0.1-0.8,0.1-19.9,0-20.9c0-0.2,0-0.5,0-0.8c0-1.1,0-2.1,0-3.2
		c0.1-2.2,0.2-4.6,0.1-5.3c0,0,0-0.4,0-0.9c0-4.2,0-7.2,0-7.5c0-0.1,0-1,0-2.2c0.1-2.3,0-5.8-0.1-6.9c0-0.1,0-0.3,0-0.5
		c0.1-2.5,0.1-4.8,0.1-5.7c0-0.6,0-3.1-0.1-6.6c0-4.1,0-7.7,0-8c-0.2-1.8,0.2-7.9,0.1-9.3c0-0.1-0.2-10.6-0.3-11.7
		c0.1-3.2,0.3-10.3,0.3-12c0-2.1-0.5-29.3-0.9-33.5c0-0.2,0-0.4,0-0.6c0.2-4.8,0.3-9.2,0.3-12.5c0.6-9.5,0.3-26.9-0.1-34.1
		c0.6-0.7,0.7-30.5,0.7-31.4c0-0.4-0.1-0.8-0.3-1.1c0-6-0.2-11.7-0.4-15.1c0.6-0.7,0.7-30.5,0.7-31.4c-0.4-3.6-5-7.7-12.4-7.9
		c-0.8-0.1-14.3,0-30.1,0.1c-0.9-0.1-1.7-0.2-2.7-0.2c-3.4-0.2-621.3-0.2-624.7,0c-0.9,0.1-1.7,0.1-2.6,0.2
		c-15.2-0.1-28.3-0.1-29.1-0.1c-7.1,0.3-11.6,4.3-12,7.9c-0.1,0.9-0.1,3.4-0.1,5.5c0,1.7,0,23.6,0,23.7c0,0.4,0,9,0.1,18
		c0,0.1-0.1,0.2-0.1,0.4c-0.1,0.9-0.1,3.4-0.1,5.5c0,1.7,0,23.6,0,23.7c-0.1,0.7,0.1,26.8,0.6,36.3c0,3.3,0.1,7.7,0.3,12.5
		c0,0.2,0,0.4,0,0.6c-0.4,4.2-0.9,31.3-0.9,33.5c0,1.7,0,23.6,0,23.7c-0.2,1.4,0,18.2,0,18.3c-0.1,0.6-0.1,1.8,0,3.1
		c0,1.3,0,2.1,0,2.5c0,0.7,0,4.8,0,9.3c0,1.3,0,2.7,0,3.8c0,0.5,0,0.9,0,1.3c0,4.9,0,9.3,0,9.3c-0.2,1.4,0,18.2,0,18.3
		c-0.2,1.5,0.1,5.6,0.3,8.8c-0.1,1.1-0.1,2.2-0.2,2.9c-0.1,1.1-0.1,4.6-0.1,6.9c0,1.2,0,2.1,0,2.2c-0.1,0.7,0.1,1.5,0.7,2.2
		c-0.4,7.4-0.6,25.2-0.1,34.9c0,3.6,0.1,8.3,0.3,13.6c0,0.4-0.1,0.7-0.1,1c-0.4,4.3-0.9,32.1-0.9,34.3c0,1.7,0,3.3,0,3.4
		c-0.2,1.5-0.1,15.3,0,17.5c0,1.7,0,3.3,0,3.4c-0.1,0.6,0,1.2,0.4,1.8c-0.2,9.3-0.4,20.2-0.4,21.6c0,1.7,0,3.3,0,3.4
		c-0.2,1.5-0.1,15.3,0,17.5c0,1.7,0,3.3,0,3.4c-0.3,2.3,2.2,4.7,11.1,6.4c5.4,1,56.8,0.3,74.1,0.1c25.7,0.4,513.5,0.4,540.1,0
		c17.9,0.2,71.1,0.9,76.7-0.1c9.2-1.6,11.8-4.1,11.5-6.4c0-0.1,0.1-1.7,0-3.4c0-2.2,0-4.8-0.1-5.7c-0.1-0.8-0.2-1.8-0.2-2.9
		c0.1-3.3,0.3-10.5,0.3-12.2c0-1.3-0.2-12.3-0.4-21.6c0.4-0.6,0.5-1.2,0.4-1.8c0-0.1,0.1-1.7,0-3.4c0-2.2,0-4.8-0.1-5.7
		c-0.1-0.8-0.2-1.8-0.2-2.9c0.1-3.3,0.3-10.5,0.3-12.2c0-2.2-0.5-30-0.9-34.3c0-0.3-0.1-0.7-0.1-1c0.2-5.2,0.3-10,0.3-13.6
		c0.6-9.7,0.7-36.4,0.6-37.1c0-0.1,0-1,0-2.2C1105.9,331.2,1105.8,327.7,1105.7,326.7z"/>
	<g id="XMLID_10270_">
		<path id="XMLID_10271_" class="st1" d="M754.2,30.6c0,0,0-0.8,0-1.5c0-0.3,0-1.1,0-2.1c0,0,0-0.1,0-0.1c0-1-0.1-2.1-0.3-2.9
			c-0.2-0.5-1.6-0.2-2.1-0.1c-0.7-0.2-4.6-0.2-5.4,0c-0.2,0-0.5-0.1-0.8-0.1c-0.4,0-0.7,0-1.1,0c-0.1,0-0.2,0.1-0.2,0.2
			c-0.3,0.7-0.3,1.8-0.3,2.9c0,0,0,0.8,0,1.5c0,0.3,0,1.1,0,2.1c0,0,0,0.1,0,0.1c0,1,0.1,2.1,0.3,2.9c0.2,0.5,1.6,0.2,2.1,0.1
			c0.7,0.2,4.6,0.2,5.4,0c0.2,0,0.5,0.1,0.8,0.1c0.4,0,0.7,0,1.1,0c0.1,0,0.2-0.1,0.2-0.2C754.1,32.8,754.2,31.7,754.2,30.6z"/>
	</g>
	<path id="XMLID_10269_" class="st1" d="M770.7,616.1c0-0.2,0-3.3,0-6.6c0-1.3,0-4.9,0-9.3c0-0.1,0-0.2,0-0.3
		c0-4.5-0.3-9.3-1.3-12.5c-0.7-2-6.9-0.7-9-0.2c-3.1-0.8-19.5-0.8-22.7,0c-0.8-0.2-2.1-0.4-3.5-0.6c-1.6,0-3.1,0-4.6,0
		c-0.5,0.2-0.8,0.4-0.9,0.8c-1.1,3.2-1.4,7.9-1.3,12.5c0,0.2,0,3.3,0,6.6c0,1.3,0,4.9,0,9.3c0,0.1,0,0.2,0,0.3
		c0,4.5,0.3,9.3,1.3,12.5c0.7,2,6.9,0.7,9,0.2c3.1,0.8,19.5,0.8,22.7,0c0.8,0.2,2.1,0.4,3.5,0.6c1.6,0,3.1,0,4.6,0
		c0.5-0.2,0.8-0.4,0.9-0.8C770.4,625.4,770.7,620.7,770.7,616.1z"/>
</g>
<g id="XMLID_10262_">
	<path id="XMLID_10267_" class="st1" d="M330.2,787.7c0.1,0,0.4,0,0.8,0c3.7,0.1,7.2,0.1,8.5,0.1c0.9,0,4.7,0,9.8-0.1
		c6.1,0,11.4,0,12,0c2.7-0.2,11.8,0.3,13.8,0.1c0.1,0.1,15.8-0.2,17.5-0.3c4.7,0.1,15.3,0.4,17.8,0.3c3.2,0,43.6-0.6,49.8-1
		c0.3,0,0.6,0,1-0.1c7.2,0.2,13.7,0.4,18.6,0.3c14.1,0.6,40,0.4,50.8-0.1c1.1,0.7,45.4,0.8,46.7,0.8c0.6,0,1.1-0.2,1.7-0.3
		c9-0.1,17.4-0.2,22.5-0.4c1.1,0.7,45.4,0.8,46.7,0.8c5.4-0.5,11.4-5.7,11.8-14.1c0.1-0.9,0-16.3-0.1-34.2c0.2-1,0.2-2,0.3-3
		c0.3-3.9,0.3-313.2,0-317.1c-0.1-1-0.2-2-0.3-3c0.1-17.9,0.2-33.3,0.1-34.2c-0.4-8.4-6.4-13.6-11.8-14.1c-1.3-0.1-5.1-0.1-8.3-0.1
		c-2.5,0-35.2,0-35.3,0c-0.6-0.1-13.3,0-26.8,0.1c-0.2,0-0.4-0.1-0.5-0.1c-1.3-0.1-5.1-0.1-8.3-0.1c-2.5,0-35.2,0-35.3,0
		c-1.1-0.1-39.9,0.1-54,0.7c-5,0-11.5,0.1-18.6,0.3c-0.3,0-0.6,0-1-0.1c-6.2-0.5-46.6-1.1-49.8-1c-2.5,0-35.1,0-35.3,0
		c-2-0.2-27.2-0.1-27.3,0c-0.9-0.1-2.6-0.1-4.6,0c-1.9,0-3.2,0-3.7,0c-1,0-7.1,0-13.9,0c-1.9,0-4,0-5.6,0c-0.7,0-1.4,0-1.9,0
		c-7.4,0-13.8,0-13.9,0c-2-0.2-27.2-0.1-27.3,0c-2.2-0.2-8.3,0.2-13.2,0.3c-1.7-0.1-3.2-0.1-4.4-0.2c-1.6-0.1-6.8-0.2-10.3-0.1
		c-1.8,0-3.1,0-3.2,0c-1.1-0.1-2.2,0.1-3.3,0.8c-11-0.5-37.5-0.7-52-0.1c-5.3,0-12.4,0.1-20.2,0.4c-0.5,0-1-0.1-1.5-0.1
		c-6.4-0.5-47.7-1.1-51-1c-2.6,0-4.9,0-5.1,0c-2.2-0.2-22.7-0.1-26,0c-2.6,0-4.9,0-5.1,0c-0.9-0.1-1.8,0-2.6,0.4
		c-13.8-0.3-30.1-0.5-32.1-0.5c-2.6,0-4.9,0-5.1,0c-2.2-0.2-22.7-0.1-26,0c-2.6,0-4.9,0-5.1,0c-3.4-0.3-7,2.6-9.5,13
		c-1.5,6.4-0.5,66.9-0.2,87.2c-0.6,30.2-0.6,189.1,0,219.3c-0.3,20.4-1.3,80.8,0.2,87.2c2.4,10.5,6,13.4,9.5,13
		c0.2,0.1,2.5,0.1,5.1,0c3.3,0,7.1,0,8.5-0.1c1.2-0.1,2.7-0.2,4.4-0.2c4.8,0.1,15.7,0.4,18.2,0.3c2,0,18.3-0.2,32.1-0.5
		c0.9,0.4,1.8,0.5,2.6,0.4c0.2,0.1,2.5,0.1,5.1,0c3.3,0,7.1,0,8.5-0.1c1.2-0.1,2.7-0.2,4.4-0.2c4.8,0.1,15.7,0.4,18.2,0.3
		c3.3,0,44.6-0.6,51-1c0.5,0,1-0.1,1.5-0.1c7.8,0.2,14.9,0.4,20.2,0.4c14.4,0.6,54.2,0.8,55.3,0.7c0.1,0,1.5,0.1,3.2,0
		c3.5,0.1,8.7,0,10.3-0.1c1.2-0.1,29.7,0.1,31.1,0c0.3,0,0.7,0,1.2,0c1.6,0,3.2,0,4.7,0c3.3,0.1,6.8,0.2,8,0.1c0,0,0.6,0,1.4,0
		c6.3,0,10.8,0,11.1,0c0.1,0,1.5,0.1,3.2,0C323.4,787.9,328.6,787.8,330.2,787.7z"/>
	<path id="XMLID_10266_" class="st1" d="M112.8,768.8c2.9,0,21.3,0.2,23.3,0c0.1,0,44.6-0.5,50.3-0.9c7.6-0.5,70.8,0.3,83.1,0.2
		c6.7,0.3,52.9,0.3,96.5,0.2c40.6-0.1,79.1-0.3,81.8-0.5c7.4-0.5,18.4-0.9,29.9-1.1c17.3,0.3,39.2,1.5,51.3,1.4
		c12.7,0.6,73.7,0.9,75.6,0.7c0.1,0,2.2,0.1,4.4,0c2.9,0,6.2,0,7.4-0.1c4.9-0.4,10.2-5.2,10.6-12.9c0.1-0.9,0-14.9-0.1-31.3
		c0.1-1,0.2-1.8,0.3-2.8c0.3-3.6-0.1-323.6-0.2-324.5c-0.4-7.7-5.7-12.5-10.6-12.9c-1.2-0.1-4.6-0.1-7.4-0.1
		c-2.2,0-33.6,0.2-34.5,0.8c-9.7-0.4-32.9-0.7-45.6-0.1c-12-0.1-34,1-51.3,1.4c-11.5-0.2-22.5-0.7-29.9-1.1c-5.6-0.4-49-1-49.1-0.9
		c-0.7-0.1-14.3-0.1-32.6,0c-35.4,0.1-88,0.3-96.5,0.7c-12.3-0.1-34.8,1-52.5,1.4c-11.8-0.2-23-0.7-30.6-1.1
		c-5.7-0.4-50.2-1-50.3-0.9c-2-0.2-14.7,0.1-15.7,0.1c-1.2-0.1-4.7-0.1-7.6-0.1c-2.3,0-4.4,0-4.5,0c-3.1-0.3-6.3,2.3-8.5,11.9
		c-1.4,5.9-0.5,61.2-0.2,79.9C99,503.8,99,649.3,99.6,677c-0.3,18.6-1.2,74,0.2,79.9c2.2,9.6,5.4,12.2,8.5,11.9
		C108.4,768.8,110.5,768.8,112.8,768.8z"/>
	<path id="XMLID_10265_" class="st0" d="M66.1,589.9c0,0,8.3-22.4-12.9-28.6s-25.5,12.7-25.3,15.3c0.2,2.6,2,24.5,16.1,22.7
		C58,597.4,63.7,594.1,66.1,589.9z"/>
	<path id="XMLID_10264_" class="st1" d="M641,581.1c0,0,0.7,0,1.3,0c0.3,0,1,0,1.9,0c0,0,0,0,0.1,0c0.9,0,1.9-0.1,2.5-0.3
		c0.4-0.1,0.1-1.4,0-1.9c0.2-0.6,0.2-4.1,0-4.7c0-0.2,0.1-0.4,0.1-0.7c0-0.3,0-0.6,0-1c0-0.1-0.1-0.2-0.2-0.2
		c-0.6-0.2-1.6-0.3-2.5-0.3c0,0-0.7,0-1.3,0c-0.3,0-1,0-1.9,0c0,0,0,0-0.1,0c-0.9,0-1.9,0.1-2.5,0.3c-0.4,0.1-0.1,1.4,0,1.9
		c-0.2,0.6-0.2,4.1,0,4.7c0,0.2-0.1,0.4-0.1,0.7c0,0.3,0,0.6,0,0.9c0,0.1,0.1,0.2,0.2,0.2C639.1,581,640,581.1,641,581.1z"/>
	<path id="XMLID_10263_" class="st0" d="M64.2,588.8c0,0,7.5-20.2-11.6-25.8s-22.9,11.5-22.8,13.8c0.1,2.3,1.8,22.1,14.5,20.5
		S62.1,592.7,64.2,588.8z"/>
</g>
<g id="XMLID_10277_">
	<path id="XMLID_10292_" class="st1" d="M1329.5,505.3c0-0.1,0-0.3,0-0.7c0.1-3.2,0.1-6.1,0.1-7.2c0-0.8,0-4-0.1-8.4
		c0-5.2,0-9.8,0-10.3c-0.2-2.3,0.2-10.1,0.1-11.8c0-0.1-0.2-13.6-0.2-15c0.1-4.1,0.3-13.1,0.3-15.3c0-2.7-0.4-37.4-0.8-42.7
		c0-0.3,0-0.5,0-0.8c0.2-6.2,0.3-11.7,0.2-16c0.5-12.1,0.3-34.3-0.1-43.5c0.5-0.9,0.6-38.9,0.6-40c0-0.5-0.1-1-0.2-1.5
		c0-7.7-0.2-14.9-0.3-19.2c0.5-0.9,0.6-38.9,0.6-40c-0.4-4.6-4.4-9.8-10.9-10.1c-0.7-0.1-12.6,0-26.4,0.1c-0.8-0.1-1.5-0.2-2.3-0.3
		c-3-0.2-241.6-0.2-244.6,0c-0.8,0.1-1.5,0.1-2.3,0.3c-13.8-0.1-25.7-0.1-26.4-0.1c-6.5,0.4-10.5,5.5-10.9,10.1
		c-0.1,1.1-0.1,4.4-0.1,7.1c0,2.1,0,30.1,0,30.2c0,0.5,0,11.4,0.1,23c0,0.2,0,0.3-0.1,0.5c-0.1,1.1-0.1,4.4-0.1,7.1
		c0,2.1,0,30.1,0,30.2c-0.1,0.9,0.1,34.2,0.6,46.3c0,4.3,0.1,9.8,0.2,16c0,0.3,0,0.6,0,0.8c-0.4,5.3-0.8,40-0.8,42.7
		c0,2.1,0,30.1,0,30.2c-0.2,1.8,0,23.3,0,23.4c-0.1,0.8-0.1,2.3,0,4c0,1.6,0,2.7,0,3.1c0,0.9,0,6.1,0,11.9c0,1.6,0,3.4,0,4.8
		c0,0.6,0,1.2,0,1.6c0,6.3,0,11.8,0,11.9c-0.2,1.8,0,23.3,0,23.4c-0.2,1.9,0.1,7.1,0.2,11.3c0,1.4-0.1,2.7-0.2,3.7
		c-0.1,1.3-0.1,5.8-0.1,8.8c0,1.5,0,2.7,0,2.8c-0.1,0.9,0.1,1.9,0.6,2.8c-0.3,9.5-0.6,32.2-0.1,44.6c0,4.6,0.1,10.6,0.3,17.3
		c0,0.5,0,0.9-0.1,1.3c-0.4,5.5-0.8,40.9-0.8,43.7c0,2.2,0,4.2,0,4.3c-0.2,1.9-0.1,19.5,0,22.3c0,2.2,0,4.2,0,4.3
		c-0.1,0.7,0,1.5,0.3,2.3c-0.2,11.8-0.4,25.8-0.4,27.5c0,2.2,0,4.2,0,4.3c-0.2,1.9-0.1,19.5,0,22.3c0,2.2,0,4.2,0,4.3
		c-0.3,2.9,2,6,10,8.1c4.9,1.3,51.6,0.4,67.3,0.1c23.3,0.5,145.9,0.5,169.2,0c15.7,0.3,62.4,1.2,67.3-0.1c8.1-2.1,10.3-5.2,10-8.1
		c0-0.1,0-2.1,0-4.3c0-2.8,0-6.1-0.1-7.2c-0.1-1-0.1-2.3-0.2-3.7c0.1-4.2,0.3-13.4,0.3-15.6c0-1.7-0.2-15.7-0.4-27.5
		c0.3-0.7,0.4-1.5,0.3-2.3c0-0.1,0-2.1,0-4.3c0-2.8,0-6.1-0.1-7.2c-0.1-1-0.1-2.3-0.2-3.7c0.1-4.2,0.3-13.4,0.3-15.6
		c0-2.8-0.4-38.2-0.8-43.7c0-0.4,0-0.9-0.1-1.3c0.2-6.7,0.3-12.7,0.3-17.3c0.5-12.4,0.6-46.4,0.6-47.4c0-0.1,0-1.3,0-2.8
		c0-3,0-7.5-0.1-8.8c-0.1-1,0.1-25.4,0-26.6c0-0.3,0-0.6,0-1c0-1.4,0-2.7,0-4c0.1-2.8,0.1-5.8,0.1-6.8c0,0,0-0.5,0-1.2
		c0-5.4,0-9.2,0-9.5c0-0.1,0-1.3,0-2.8C1329.7,511.1,1329.6,506.6,1329.5,505.3z"/>
	<g id="XMLID_10285_">
		<path id="XMLID_10287_" class="st1" d="M1321.7,761.9c0-3,0.1-21.9,0-23.9c0-0.1-0.4-45.7-0.7-51.6c-0.4-7.8,0.3-72.6,0.2-85.2
			c0.2-6.9,0.3-54.2,0.2-99c-0.1-41.6-0.2-81.1-0.4-83.8c-0.4-7.6-0.7-18.9-0.9-30.7c0.3-17.7,1.2-40.2,1.1-52.5
			c0.5-13,0.7-75.6,0.5-77.5c0-0.1,0-2.2,0-4.5c0-2.9,0-6.4-0.1-7.6c-0.3-5-4.1-10.5-10.2-10.9c-0.7-0.1-11.8,0-24.9,0.1
			c-0.8-0.2-1.4-0.2-2.2-0.3c-0.5,0-9.4-0.1-23.7-0.1c0,6.2,0,14.2,0,16c0,2.3,0,4.5,0,4.6c0.2,3.1-1.1,6.4-5.8,8.6
			c-2.8,1.4-29.6,0.5-38.6,0.2c-13.4,0.5-83.8,0.5-97.2,0c-9,0.3-35.8,1.2-38.6-0.2c-4.6-2.2-5.9-5.5-5.8-8.6c0-0.1,0-2.3,0-4.6
			c0-3,0-6.5,0-7.7c0-0.6,0-4.3,0-8.1c-28.2,0.1-47.7,0.1-47.9,0.1c-6.1,0.4-9.9,5.9-10.2,10.9c-0.1,1.2-0.1,4.7-0.1,7.6
			c0,2.3,0.1,34.4,0.6,35.4c-0.3,9.9-0.5,33.7-0.1,46.7c-0.1,12.3,0.8,34.8,1.1,52.5c-0.2,11.8-0.5,23.1-0.9,30.7
			c-0.3,5.7-0.8,50.2-0.7,50.4c-0.1,0.7-0.1,14.7,0,33.4c0.1,36.3,0.3,90.2,0.6,99c-0.1,12.6,0.8,35.6,1.1,53.8
			c-0.2,12.1-0.5,23.6-0.9,31.4c-0.3,5.9-0.8,51.4-0.7,51.6c-0.2,2,0.1,15.1,0,16.1c-0.1,1.3-0.1,4.8-0.1,7.8c0,2.4,0,4.5,0,4.7
			c-0.3,3.2,1.9,6.5,9.5,8.7c4.7,1.4,48.6,0.5,63.4,0.2c22,0.5,137.5,0.5,159.5,0c14.8,0.3,58.8,1.2,63.4-0.2
			c7.6-2.2,9.7-5.6,9.5-8.7C1321.7,766.4,1321.7,764.3,1321.7,761.9z"/>
		<path id="XMLID_10286_" class="st1" d="M1074.7,242.7c0,1.2-0.1,4.7,0,7.7c0,2.3,0,4.5,0,4.6c-0.2,3.1,1.1,6.4,5.8,8.6
			c2.8,1.4,29.6,0.5,38.6,0.2c13.4,0.5,83.8,0.5,97.2,0c9,0.3,35.8,1.2,38.6-0.2c4.6-2.2,5.9-5.5,5.8-8.6c0-0.1,0-2.3,0-4.6
			c0-1.8,0-9.8,0-16c-42.1,0-130.8,0.1-186.1,0.2C1074.6,238.4,1074.7,242.2,1074.7,242.7z"/>
	</g>
	<path id="XMLID_10284_" class="st1" d="M1003.8,448.7c-0.3,0-1.1,0-1.7,0c-0.5,0-1,0-1,0c-0.7,0-1.4-0.3-1.9-1.6
		c-0.3-0.8-0.1-8.2,0-10.7c-0.1-3.7-0.1-23.3,0-27c-0.1-2.5-0.3-10,0-10.7c0.5-1.3,1.2-1.6,1.9-1.6c0,0,0.5,0,1,0c0.4,0,2.2,0,3.6,0
		c0,11.7,0,36.3,0,51.7C1004.7,448.7,1003.9,448.7,1003.8,448.7z"/>
	<path id="XMLID_10283_" class="st1" d="M1003.8,310.4c-0.3,0-1.1,0-1.7,0c-0.5,0-1,0-1,0c-0.7,0-1.4-0.1-1.9-0.8
		c-0.3-0.4-0.1-3.9,0-5.1c-0.1-1.8-0.1-10.9,0-12.7c-0.1-1.2-0.3-4.7,0-5.1c0.5-0.6,1.2-0.8,1.9-0.8c0,0,0.5,0,1,0
		c0.4,0,2.2,0,3.6,0c0,5.5,0,17.1,0,24.3C1004.7,310.4,1003.9,310.4,1003.8,310.4z"/>
	<path id="XMLID_10282_" class="st1" d="M1003.8,389.5c-0.3,0-1.1,0-1.7,0c-0.5,0-1,0-1,0c-0.7,0-1.4-0.3-1.9-1.6
		c-0.3-0.8-0.1-8.2,0-10.7c-0.1-3.7-0.1-23.3,0-27c-0.1-2.5-0.3-10,0-10.7c0.5-1.3,1.2-1.6,1.9-1.6c0,0,0.5,0,1,0c0.4,0,2.2,0,3.6,0
		c0,11.7,0,36.3,0,51.7C1004.7,389.5,1003.9,389.5,1003.8,389.5z"/>
	<path id="XMLID_10281_" class="st1" d="M1331.5,337.8c0.3,0,1.1,0,1.7,0c0.5,0,1,0,1,0c0.7,0,1.4-0.3,1.9-1.6
		c0.3-0.8,0.1-8.2,0-10.7c0.1-3.7,0.1-23.3,0-27c0.1-2.5,0.3-10,0-10.7c-0.5-1.3-1.2-1.6-1.9-1.6c0,0-0.5,0-1,0c-0.4,0-2.2,0-3.6,0
		c0,11.7,0,36.3,0,51.7C1330.5,337.8,1331.4,337.8,1331.5,337.8z"/>
	<g id="XMLID_10278_">
		<path id="XMLID_10280_" class="st1" d="M1183.5,250.8c0,0,0-0.6,0-1.2c0-0.2,0-0.9,0-1.6c0,0,0,0,0,0c0-0.8-0.3-1.6-1.4-2.2
			c-0.7-0.3-7.4-0.1-9.7,0c-3.3-0.1-20.9-0.1-24.3,0c-0.8,0-2.3-0.1-3.8-0.1c-1.7,0-3.3,0-4.9,0c-0.5,0-0.9,0.1-1,0.1
			c-1.2,0.6-1.5,1.4-1.4,2.2c0,0,0,0.6,0,1.2c0,0.2,0,0.9,0,1.6c0,0,0,0,0,0c0,0.8,0.3,1.6,1.4,2.2c0.7,0.3,7.4,0.1,9.7,0
			c3.3,0.1,20.9,0.1,24.3,0c0.8,0,2.3,0.1,3.8,0.1c1.7,0,3.3,0,4.9,0c0.5,0,0.9-0.1,1-0.1C1183.2,252.4,1183.5,251.6,1183.5,250.8z"
			/>
		<path id="XMLID_10279_" class="st1" d="M1198.6,250.8c0,0,0-0.6,0-1.2c0-0.2,0-0.9,0-1.6c0,0,0,0,0,0c0-0.8,0-1.6-0.2-2.2
			c-0.1-0.3-1.1-0.1-1.4,0c-0.5-0.1-3.1-0.1-3.6,0c-0.1,0-0.3-0.1-0.6-0.1c-0.3,0-0.5,0-0.7,0c-0.1,0-0.1,0.1-0.2,0.1
			c-0.2,0.6-0.2,1.4-0.2,2.2c0,0,0,0.6,0,1.2c0,0.2,0,0.9,0,1.6c0,0,0,0,0,0c0,0.8,0,1.6,0.2,2.2c0.1,0.3,1.1,0.1,1.4,0
			c0.5,0.1,3.1,0.1,3.6,0c0.1,0,0.3,0.1,0.6,0.1c0.3,0,0.5,0,0.7,0c0.1,0,0.1-0.1,0.2-0.1C1198.5,252.4,1198.6,251.6,1198.6,250.8z"
			/>
	</g>
</g>
</svg>
