<?xml version="1.0" encoding="utf-8"?>
<!-- Generator: Adobe Illustrator 22.1.0, SVG Export Plug-In . SVG Version: 6.00 Build 0)  -->
<svg version="1.1" id="Layer_1" xmlns="http://www.w3.org/2000/svg" xmlns:xlink="http://www.w3.org/1999/xlink" x="0px" y="0px"
	 viewBox="0 0 1281.1 720.7" style="enable-background:new 0 0 1281.1 720.7;" xml:space="preserve">
<style type="text/css">
	.st0{fill:none;stroke:#90A55E;stroke-width:0.25;stroke-linecap:round;stroke-miterlimit:10;}
</style>
<g>
	<g id="XMLID_60_">
		<g id="XMLID_70_">
			<rect id="XMLID_78_" x="0.5" y="675.1" class="st0" width="1280" height="44.9"/>
			<rect id="XMLID_77_" x="0.5" y="630.2" class="st0" width="1280" height="44.9"/>
			<rect id="XMLID_76_" x="0.5" y="585.3" class="st0" width="1280" height="44.9"/>
			<rect id="XMLID_75_" x="0.5" y="540.3" class="st0" width="1280" height="44.9"/>
			<rect id="XMLID_74_" x="0.5" y="495.4" class="st0" width="1280" height="44.9"/>
			<rect id="XMLID_73_" x="0.5" y="450.4" class="st0" width="1280" height="44.9"/>
			<rect id="XMLID_72_" x="0.5" y="405.5" class="st0" width="1280" height="44.9"/>
			<rect id="XMLID_71_" x="0.5" y="360.6" class="st0" width="1280" height="44.9"/>
		</g>
		<g id="XMLID_61_">
			<rect id="XMLID_69_" x="0.5" y="360.5" class="st0" width="160" height="359.5"/>
			<rect id="XMLID_68_" x="160.5" y="360.5" class="st0" width="160" height="359.5"/>
			<rect id="XMLID_67_" x="320.5" y="360.5" class="st0" width="160" height="359.5"/>
			<rect id="XMLID_66_" x="480.5" y="360.5" class="st0" width="160" height="359.5"/>
			<rect id="XMLID_65_" x="640.5" y="360.5" class="st0" width="160" height="359.5"/>
			<rect id="XMLID_64_" x="800.5" y="360.5" class="st0" width="160" height="359.5"/>
			<rect id="XMLID_63_" x="960.5" y="360.5" class="st0" width="160" height="359.5"/>
			<rect id="XMLID_62_" x="1120.5" y="360.5" class="st0" width="160" height="359.5"/>
		</g>
	</g>
	<g>
		<path class="st0" d="M0.4,719.9l640.3-359.4L0.4,719.9z"/>
		<path class="st0" d="M0.6,630.3l639.7-270.1L0.6,630.3z"/>
		<g>
			<path class="st0" d="M0.6,540.4l639.7-180.1L0.6,540.4z"/>
		</g>
		<path class="st0" d="M0.6,450.4l639.7-90.2L0.6,450.4z"/>
		<line class="st0" x1="0.6" y1="360.5" x2="640.4" y2="360.2"/>
		<path class="st0" d="M1280.6,719.9L640.4,360.5L1280.6,719.9z"/>
		<path class="st0" d="M1280.4,630.3L640.6,360.2L1280.4,630.3z"/>
		<path class="st0" d="M1280.4,540.4L640.6,360.2L1280.4,540.4z"/>
		<path class="st0" d="M1280.4,450.4l-639.7-90.2L1280.4,450.4z"/>
		<line class="st0" x1="1280.4" y1="360.5" x2="640.6" y2="360.2"/>
		<line id="XMLID_59_" class="st0" x1="640.6" y1="360.5" x2="800.6" y2="720.2"/>
		<line id="XMLID_58_" class="st0" x1="960.6" y1="720.2" x2="640.6" y2="360.5"/>
		<line id="XMLID_57_" class="st0" x1="1120.6" y1="720.2" x2="640.6" y2="360.5"/>
		<line id="XMLID_54_" class="st0" x1="640.6" y1="360.5" x2="480.6" y2="720.2"/>
		<line id="XMLID_2_" class="st0" x1="320.6" y1="720.2" x2="640.6" y2="360.5"/>
		<line class="st0" x1="640.6" y1="360.5" x2="160.6" y2="720.2"/>
		<line class="st0" x1="640.6" y1="360.5" x2="0.6" y2="405.1"/>
		<line class="st0" x1="1280.6" y1="405.1" x2="640.6" y2="360.5"/>
	</g>
</g>
<g>
	<g>
		<line class="st0" x1="946.2" y1="-95.5" x2="946" y2="-454.5"/>
	</g>
	<path class="st0" d="M305.2-454.2L945.5-94.8L305.2-454.2z"/>
	<path class="st0" d="M305.5-364.6L945.2-94.5L305.5-364.6z"/>
	<g>
		<path class="st0" d="M305.5-274.6L945.2-94.5L305.5-274.6z"/>
	</g>
	<path class="st0" d="M305.5-184.7l639.7,90.2L305.5-184.7z"/>
	<path class="st0" d="M1585.5-454.2L945.2-94.8L1585.5-454.2z"/>
	<path class="st0" d="M1585.2-364.6L945.5-94.5L1585.2-364.6z"/>
	<path class="st0" d="M1585.2-274.6L945.5-94.5L1585.2-274.6z"/>
	<path class="st0" d="M1585.2-184.7L945.5-94.5L1585.2-184.7z"/>
	<line id="XMLID_1861_" class="st0" x1="945.5" y1="-94.8" x2="1105.5" y2="-454.5"/>
	<line id="XMLID_1860_" class="st0" x1="1265.5" y1="-454.5" x2="945.5" y2="-94.8"/>
	<line id="XMLID_1859_" class="st0" x1="1425.5" y1="-454.5" x2="945.5" y2="-94.8"/>
	<line id="XMLID_1858_" class="st0" x1="945.5" y1="-94.8" x2="785.5" y2="-454.5"/>
	<line id="XMLID_1857_" class="st0" x1="625.5" y1="-454.5" x2="945.5" y2="-94.8"/>
	<line class="st0" x1="945.5" y1="-94.8" x2="465.5" y2="-454.5"/>
	<line class="st0" x1="945.5" y1="-94.8" x2="305.5" y2="-139.4"/>
	<line class="st0" x1="1585.5" y1="-139.4" x2="945.5" y2="-94.8"/>
</g>
</svg>
