<?xml version="1.0" encoding="utf-8"?>
<!-- Generator: Adobe Illustrator 22.1.0, SVG Export Plug-In . SVG Version: 6.00 Build 0)  -->
<svg version="1.1" id="Layer_1" xmlns="http://www.w3.org/2000/svg" xmlns:xlink="http://www.w3.org/1999/xlink" x="0px" y="0px"
	 viewBox="0 0 30.4 41.4" style="enable-background:new 0 0 30.4 41.4;" xml:space="preserve">
<style type="text/css">
	.st0{opacity:0.1;fill:#231F20;stroke:#231F20;stroke-miterlimit:10;enable-background:new    ;}
	.st1{fill:#FFD767;stroke:#584C4F;stroke-miterlimit:10;}
	.st2{fill:#FDF5EA;stroke:#584C4F;stroke-miterlimit:10;}
</style>
<path class="st0" d="M27.8,13C19.8,1.7,8.5,8.6,8.5,8.6S-1.7,19.8,5.7,28.2c-2.3,2.3-4.4,5.8-5,7.7c-1,3.5,1.6,5.9,4.4,4.7
	c2.8-1.2,6.2-8.4,6.2-8.4s0,0,0,0C22.2,36,34.9,23.2,27.8,13z M12,16.7c0,0,7.6-6.8,8.3,2.6C21.3,28.7,5.7,20.8,12,16.7z"/>
<g id="XMLID_2_">
	<path id="XMLID_5_" class="st1" d="M20.7,9.4"/>
	<path id="XMLID_4_" class="st1" d="M27.8,10C19.8-1.3,8.5,5.6,8.5,5.6S-3.5,18.8,8,27.2C19.2,35.8,35.7,21.3,27.8,10z M20.3,16.3
		c0.9,9.4-14.6,1.5-8.3-2.6C12,13.7,19.6,6.8,20.3,16.3z"/>
	<path id="XMLID_3_" class="st1" d="M24,7.7"/>
</g>
<path id="XMLID_1_" class="st1" d="M8.3,23.2c-3.1,1.5-6.8,7-7.6,9.7c-1,3.5,1.6,5.9,4.4,4.7c2.8-1.2,6.2-8.4,6.2-8.4s0.8-1.4,1-2.9
	"/>
<g id="XMLID_7_">
	<path id="XMLID_10_" class="st2" d="M20.7,6.4"/>
	<path id="XMLID_9_" class="st2" d="M27.8,7C19.8-4.3,8.5,2.6,8.5,2.6S-3.5,15.8,8,24.2C19.2,32.8,35.7,18.3,27.8,7z M20.3,13.3
		c0.9,9.4-14.6,1.5-8.3-2.6C12,10.7,19.6,3.8,20.3,13.3z"/>
	<path id="XMLID_8_" class="st2" d="M24,4.7"/>
</g>
<path id="XMLID_6_" class="st2" d="M8.3,20.2c-3.1,1.5-6.8,7-7.6,9.7c-1,3.5,1.6,5.9,4.4,4.7c2.8-1.2,6.2-8.4,6.2-8.4s0.8-1.4,1-2.9
	"/>
</svg>
