<?xml version="1.0" encoding="utf-8"?>
<!-- Generator: Adobe Illustrator 24.2.0, SVG Export Plug-In . SVG Version: 6.00 Build 0)  -->
<svg version="1.1" id="Layer_1" xmlns="http://www.w3.org/2000/svg" xmlns:xlink="http://www.w3.org/1999/xlink" x="0px" y="0px"
	 viewBox="0 0 429.69 584.84" style="enable-background:new 0 0 429.69 584.84;" xml:space="preserve">
<style type="text/css">
	.st0{fill:#2C2C2C;}
</style>
<g>
	<path class="st0" d="M222.29,117.76c-11.82,0.2-23.63,1.19-35.3,3.04c-11.53,1.83-22.94,4.63-34.05,8.21
		c-10.84,3.48-21.36,7.93-31.49,13.11c-9.95,5.08-19.4,11.04-28.24,17.88c-8.69,6.72-16.86,14.12-23.94,22.54
		c-7.09,8.44-12.84,17.97-17.49,27.95c-1.27,2.71-2.44,5.47-3.52,8.25c-2.9,5.51-5.45,11.2-7.66,17.04
		c-4.03,10.62-6.71,21.68-8.17,32.93c-1.42,10.94-1.3,22.1,0.12,33.03c0.72,5.59,1.78,11.11,3.28,16.55
		c1.45,5.25,3.41,10.35,5.65,15.31c4.51,10.01,10.59,19.27,17.57,27.72c3.2,3.88,6.68,7.49,10.36,10.89
		c6.25,8.9,13.35,17.21,21.09,24.84c7.81,7.71,16.43,14.58,25.47,20.78c18.65,12.8,39.35,22.39,60.98,28.94
		c22.36,6.77,45.77,9.91,69.1,10.09c11.78,0.09,23.55-0.71,35.19-2.48c11.28-1.71,22.42-4.45,33.23-8.11
		c10.58-3.58,20.78-8.22,30.46-13.78c9.49-5.46,18.43-11.98,26.23-19.68c7.76-7.66,14.45-16.5,19.91-25.93
		c5.55-9.6,9.58-20.09,12.28-30.83c2.78-11.04,3.9-22.44,3.55-33.82c-0.18-5.9-0.82-11.77-1.72-17.6c-0.86-5.61-2.11-11.15-3.7-16.6
		c-3.23-11.06-7.9-21.71-13.23-31.9c-5.19-9.95-11.34-19.37-18.19-28.26c-0.58-0.75-1.16-1.49-1.74-2.23
		c0.59-1.29,1.12-2.61,1.59-3.95c0.95-2.72,1.61-5.56,2.16-8.39c0.5-2.56,0.8-5.18,0.94-7.78c0.15-2.73-0.05-5.46-0.43-8.16
		c-0.75-5.31-2.21-10.47-4.22-15.44c-1.96-4.84-4.48-9.39-7.52-13.64c-3.09-4.32-6.67-8.28-10.5-11.96
		c-3.83-3.68-7.97-7.03-12.33-10.06c-4.54-3.15-9.35-5.89-14.27-8.38c-4.89-2.47-9.92-4.68-15.03-6.65
		c-5.39-2.07-10.92-3.77-16.49-5.25c-11.22-2.99-22.72-5.07-34.25-6.47c-10.18-1.24-20.44-1.8-30.7-1.8
		C225.6,117.71,223.94,117.73,222.29,117.76L222.29,117.76L222.29,117.76z M227.26,121.45c11.45-0.02,22.89,0.73,34.24,2.24
		c-0.11-0.01-0.23-0.03-0.34-0.05c8.74,1.19,17.43,2.82,26.01,4.87c8.72,2.09,17.28,4.79,25.55,8.26c-0.14-0.06-0.29-0.12-0.43-0.18
		c9.87,4.19,19.45,9.18,28,15.7c6.1,4.76,11.71,10.17,16.48,16.26c1.65,2.16,3.18,4.4,4.57,6.74c1.4,2.35,2.59,4.82,3.68,7.34
		c-0.06-0.13-0.11-0.27-0.17-0.4c2.14,5.1,3.69,10.4,4.5,15.86c0.23,1.81,0.38,3.62,0.4,5.45c0.02,2.15-0.17,4.3-0.45,6.43
		c-0.64,4.36-1.66,8.73-3.29,12.83c-6.95-8.49-14.55-16.46-22.74-23.77c-5.86-8.31-12.44-16.14-19.67-23.29
		c-7.92-7.84-16.8-14.72-26.18-20.72c-9.51-6.09-19.67-11.11-30.24-15.07c-10.72-4.02-21.91-6.78-33.21-8.59
		c-23.26-3.72-47.21-3.2-70.24,1.85c-11.19,2.45-22.11,6.04-32.65,10.53c-10.17,4.33-19.85,9.64-29,15.84
		c-9.2,6.22-17.86,13.31-25.69,21.18c-3.57,3.58-6.96,7.34-10.18,11.26c0.88-1.26,1.79-2.49,2.73-3.72
		c7.49-9.6,16.49-17.89,26.1-25.33c6.32-4.84,12.92-9.25,19.82-13.22c7.14-4.09,14.55-7.69,22.13-10.92
		c18.05-7.6,37.22-12.63,56.62-15.26c-0.04,0-0.07,0.01-0.11,0.01C204.7,122.11,215.97,121.47,227.26,121.45L227.26,121.45
		L227.26,121.45z M227.2,140.21c14.55,2.04,28.86,5.72,42.44,11.35c12.2,5.24,23.69,12.05,34.24,20.1
		c-4.23-2.19-8.53-4.23-12.88-6.14c-10.65-4.65-21.64-8.45-32.9-11.33c-11.36-2.92-23.02-4.84-34.73-5.57
		c-11.68-0.73-23.43-0.19-35.02,1.34c-11.52,1.53-22.84,4.08-33.87,7.76c-10.79,3.6-21.2,8.33-30.99,14.12
		c-9.6,5.68-18.61,12.48-26.6,20.26c-3.93,3.83-7.58,7.94-10.95,12.27c-3.42,4.39-6.54,9-9.23,13.88
		c-2.71,4.94-4.96,10.14-6.92,15.42c-1.95,5.23-3.51,10.61-4.78,16.04c-1.31,5.62-2.23,11.32-2.93,17.05
		c-0.71,5.81-1.05,11.65-1.06,17.5c-0.03,22.49,6.05,45.24,18.24,64.22c2.99,4.65,6.36,9.06,9.92,13.28
		c3.48,4.12,7.25,7.99,11.22,11.65c8.14,7.5,17.36,13.83,27.04,19.17c9.85,5.43,20.31,9.67,31.1,12.84
		c11.09,3.26,22.5,5.47,33.96,6.96c11.81,1.54,23.75,2.03,35.65,1.64c11.77-0.39,23.55-1.68,35.11-3.94
		c11.18-2.19,22.18-5.5,32.73-9.8c5.34-2.18,10.57-4.63,15.61-7.44c4.74-2.64,9.29-5.64,13.66-8.84c4.51-3.3,8.82-6.86,12.87-10.71
		c4.01-3.81,7.64-7.98,11-12.38c6.77-8.87,12.17-18.67,16.18-29.09c4.09-10.62,6.22-21.95,7.2-33.26
		c0.99-11.52,0.23-23.07-1.66-34.46c-1.66-9.98-4.42-19.73-8.1-29.13c0.36-0.48,0.71-0.97,1.05-1.47c0.13,0.16,0.25,0.32,0.38,0.49
		c9.89,12.94,18.2,27.06,24.62,42.04c2.36,5.66,4.42,11.43,6.08,17.33c1.63,5.79,2.79,11.73,3.63,17.68
		c1.37,10.73,1.55,21.58,0.19,32.32c-1.48,10.46-4.27,20.71-8.34,30.45c-3.83,8.83-8.78,17.09-14.61,24.73
		c-2.88,3.69-5.96,7.22-9.24,10.56c-3.37,3.43-6.99,6.58-10.78,9.53c-10.27,7.84-21.63,14.24-33.51,19.29
		c-15.14,6.3-31.14,10.53-47.39,12.76c-20.9,2.73-42.2,2.44-63.08-0.34c-10.09-1.39-20.08-3.39-29.91-6.07
		c-9.58-2.61-18.97-5.9-28.13-9.74c-16.39-6.97-31.9-15.94-46.02-26.8c-5.91-4.59-11.53-9.52-16.81-14.82
		c-3.71-3.72-7.24-7.62-10.6-11.66c0.85,0.64,1.71,1.27,2.57,1.89c4.41,3.19,9,6.12,13.68,8.87c4.68,2.74,9.48,5.3,14.4,7.57
		c10.3,4.75,21.13,8.2,32.06,11.19c11.18,3.06,22.46,5.85,33.91,7.76c5.97,0.99,11.98,1.77,18,2.42c5.94,0.64,11.88,1,17.84,1.13
		c2.87,0.06,5.73,0.08,8.6,0.09c1.56,0.01,3.11,0.04,4.67,0.01c1.98-0.04,3.96-0.09,5.94-0.13c5.2-0.11,10.39-0.23,15.58-0.34
		c4.93-0.11,9.86-0.24,14.79-0.37c5.32-0.13,10.65-0.26,15.96-0.58c0.98-0.06,1.84-0.35,2.54-1.05c0.67-0.67,1.06-1.59,1.06-2.54
		c0-1.87-1.64-3.72-3.6-3.6c-4.67,0.28-9.36,0.39-14.04,0.53c-4.15,0.12-8.31,0.22-12.46,0.33c-8.41,0.21-16.83,0.39-25.25,0.58
		c-1.49,0.03-2.98,0.01-4.47,0.01c-4.06-0.01-8.13-0.04-12.19-0.15c-7.84-0.22-15.63-1.01-23.4-2.03
		c-6.12-0.83-12.22-1.84-18.27-3.1c-5.85-1.22-11.65-2.71-17.44-4.19c-11.22-2.88-22.36-6.13-33.07-10.58
		c-6.27-2.69-12.31-5.86-18.2-9.31c-5.79-3.4-11.38-7.13-16.71-11.21c-3.87-3.01-7.57-6.21-11.08-9.63
		c-3.59-3.51-6.88-7.29-9.97-11.25c-0.3-0.4-0.6-0.8-0.9-1.2c-2.21-4.2-4.22-8.5-6.08-12.86c-2.84-6.78-5.25-13.72-7.24-20.8
		c-2.03-7.22-3.5-14.58-4.52-22.01c0,0,0,0.01,0,0.01c0-0.01,0-0.01,0-0.02c-0.02-0.13-0.04-0.26-0.05-0.39
		c0.01,0.06,0.02,0.12,0.03,0.19c-1.78-13.75-1.91-27.65-0.34-41.42c1.79-7.13,4.13-14.12,6.96-20.91
		c4.84-11.25,11.17-21.73,18.6-31.45c4.12-5.28,8.54-10.32,13.26-15.08c4.76-4.81,9.88-9.27,15.21-13.44
		c11.45-8.77,23.92-16.14,37.17-21.83c14.35-5.98,29.44-10.13,44.84-12.27C194.78,138.04,211.11,138.12,227.2,140.21L227.2,140.21
		L227.2,140.21z M137.39,138.64c-0.13,0.06-0.25,0.11-0.37,0.16C137.14,138.75,137.27,138.69,137.39,138.64L137.39,138.64
		L137.39,138.64z M234.11,158.45c17.51,2.43,34.67,7.32,50.98,14.12c7.61,3.24,15.03,6.92,22.2,11.06
		c6.96,4.01,13.64,8.51,20.02,13.4c1.97,1.53,3.9,3.1,5.81,4.7c7.83,10.62,14.51,22.08,19.71,34.21c0.49,1.17,0.96,2.35,1.41,3.54
		c-0.42,0.62-0.32,1.52,0.21,2.05c0.21,0.21,0.45,0.34,0.71,0.41c3.49,9.61,5.97,19.57,7.41,29.71c0.72,5.61,1.12,11.24,1.14,16.9
		c0.02,5.62-0.36,11.25-1.07,16.83c-1.34,9.49-3.7,18.79-7.35,27.66c-3.69,8.55-8.42,16.63-14.07,24.04
		c-5.57,7.06-12.04,13.28-19.12,18.8c-4.15,3.16-8.48,6.08-12.96,8.76c-4.86,2.91-9.97,5.4-15.17,7.64
		c-7.16,2.99-14.52,5.46-22,7.51c-7.66,2.1-15.48,3.59-23.35,4.68c-19.17,2.49-38.63,2.53-57.79,0.02
		c-7.98-1.11-15.89-2.65-23.7-4.6c-7.82-1.94-15.52-4.4-22.96-7.48c-11.05-4.74-21.57-10.8-31.14-18.09
		c-8.19-6.4-15.54-13.8-21.94-21.98c-2.67-3.5-5.15-7.13-7.41-10.91c-2.35-3.91-4.38-8.01-6.18-12.2
		c-3.84-9.3-6.51-19.06-7.92-29.03c-1.46-11.6-1.19-23.35,0.32-34.94c1.64-11.57,4.55-22.93,9.04-33.73c1.63-3.77,3.44-7.45,5.49-11
		c2.1-3.64,4.5-7.11,7.05-10.46c6.21-7.89,13.39-14.94,21.29-21.12c9.88-7.54,20.7-13.77,32.12-18.67
		c13.85-5.75,28.42-9.59,43.26-11.66C203.4,156.65,218.85,156.5,234.11,158.45L234.11,158.45L234.11,158.45z M303.31,171.22
		c0.09,0.07,0.17,0.13,0.26,0.2C303.49,171.35,303.4,171.29,303.31,171.22L303.31,171.22L303.31,171.22z M68.05,202.89
		c-0.1,0.13-0.2,0.26-0.31,0.4C67.85,203.16,67.95,203.03,68.05,202.89L68.05,202.89L68.05,202.89z M91.77,209.7
		c-0.07,0.09-0.13,0.17-0.2,0.26C91.64,209.88,91.7,209.79,91.77,209.7L91.77,209.7L91.77,209.7z M91.44,210.13
		c-0.1,0.13-0.2,0.25-0.3,0.38C91.24,210.38,91.34,210.25,91.44,210.13L91.44,210.13L91.44,210.13z M360.39,229.24
		c0.44,0.53,0.87,1.06,1.3,1.59c-0.12,0.19-0.25,0.38-0.38,0.57C361.01,230.68,360.7,229.96,360.39,229.24L360.39,229.24
		L360.39,229.24z M78.78,231.91c-0.06,0.13-0.11,0.27-0.17,0.4C78.66,232.18,78.72,232.05,78.78,231.91L78.78,231.91L78.78,231.91z
		 M42.96,252.46c-0.01,0.05-0.01,0.1-0.02,0.14c0-0.03,0.01-0.07,0.01-0.1C42.95,252.5,42.95,252.48,42.96,252.46L42.96,252.46
		L42.96,252.46z M69.98,264.68c-0.02,0.12-0.03,0.24-0.05,0.37C69.95,264.93,69.96,264.8,69.98,264.68L69.98,264.68L69.98,264.68z
		 M388.83,276.05c0.12,0.28,0.24,0.56,0.36,0.85C389.06,276.62,388.95,276.33,388.83,276.05L388.83,276.05L388.83,276.05z
		 M38.8,285.85c0.58,8.44,1.81,16.83,3.61,25.08c1.58,7.23,3.69,14.34,6.21,21.3c-0.68-1.42-1.33-2.85-1.95-4.3
		c-1.63-3.97-3.01-8.02-4.13-12.17c-1.18-4.39-2.03-8.88-2.67-13.38C39.18,296.89,38.81,291.37,38.8,285.85L38.8,285.85L38.8,285.85
		z M398.45,310.44c0.02,0.15,0.04,0.3,0.06,0.45C398.49,310.74,398.47,310.59,398.45,310.44L398.45,310.44L398.45,310.44z
		 M398.55,311.18c0.01,0.09,0.02,0.17,0.04,0.26C398.57,311.35,398.56,311.26,398.55,311.18L398.55,311.18L398.55,311.18z
		 M77.23,328.6c0.07,0.16,0.14,0.32,0.2,0.48C77.36,328.91,77.29,328.75,77.23,328.6L77.23,328.6L77.23,328.6z M143.35,392.06
		c0.12,0.05,0.24,0.1,0.36,0.15C143.59,392.17,143.47,392.11,143.35,392.06L143.35,392.06L143.35,392.06z M190.38,404.43
		c0.11,0.01,0.22,0.03,0.33,0.04C190.6,404.46,190.49,404.44,190.38,404.43L190.38,404.43L190.38,404.43z M191.03,404.51
		c0.12,0.02,0.25,0.03,0.37,0.05C191.28,404.55,191.16,404.53,191.03,404.51L191.03,404.51L191.03,404.51z M355.68,418.69
		c-0.12,0.1-0.25,0.19-0.37,0.29C355.43,418.88,355.55,418.79,355.68,418.69L355.68,418.69L355.68,418.69z M43,296.7
		C43.01,296.7,43.01,296.7,43,296.7c-0.01-0.06-0.02-0.13-0.03-0.2C42.99,296.56,43,296.63,43,296.7L43,296.7L43,296.7z"/>
	<path class="st0" d="M31.71,248.25c-2.61,0.37-5.03,1.18-7.42,2.31c-2.19,1.04-4.27,2.4-6.16,3.9c-2.03,1.62-3.79,3.48-5.44,5.48
		c-0.75,0.91-1.44,1.84-2.05,2.84c-0.58,0.96-0.95,2.04-1.23,3.12c-0.54,2.07-0.56,4.29-0.04,6.36c-1.05,1.45-2.04,2.95-2.95,4.48
		c-1.2,2.02-2.22,4.16-3.16,6.32c-1.1,2.5-2.05,5.06-2.65,7.73c-0.52,2.31-0.73,4.71-0.52,7.07c0.22,2.43,0.77,4.79,1.61,7.08
		c0.78,2.13,1.77,4.18,3.04,6.07c0.65,0.96,1.39,1.87,2.17,2.72c0.9,0.98,1.98,1.78,3.04,2.59c1.65,1.26,3.54,2.21,5.44,3.04
		c2.29,1,4.64,1.82,7.06,2.47c2.42,0.64,4.89,1.03,7.38,1.21c2.71,0.2,5.44,0.02,8.14-0.22c2.49-0.22,4.97-0.52,7.45-0.85
		c2.93-0.39,5.83-0.89,8.7-1.61c2.25-0.56,4.44-1.31,6.63-2.07c1.25-0.43,2.46-0.95,3.67-1.47c1.35-0.59,2.53-1.4,3.67-2.33
		c1.01-0.82,1.77-1.8,2.55-2.83c0.64-0.85,1.19-1.73,1.68-2.68c1.34-2.59,2.1-5.34,2.2-8.26c0.05-1.43-0.22-2.89-0.44-4.29
		c-0.21-1.37-0.63-2.7-1.08-4c-0.98-2.87-2.28-5.63-3.99-8.13c-1.74-2.55-3.81-4.88-5.99-7.05c-1.17-1.17-2.51-2.16-3.82-3.16
		c-1.11-0.86-2.29-1.63-3.47-2.39c-0.75-0.49-1.51-0.95-2.28-1.39c0.53-0.72,1.07-1.44,1.58-2.18c0.66-0.96,1.2-2.01,1.72-3.05
		c0.58-1.15,1.02-2.41,1.07-3.7c0.05-1.08-0.09-2.15-0.31-3.22c-0.27-1.32-1.01-2.44-1.88-3.45c-0.71-0.82-1.71-1.47-2.64-2.04
		c-0.99-0.61-2.12-1.03-3.22-1.41c-2.19-0.77-4.63-0.82-6.93-0.58c-1.31-0.88-2.75-1.56-4.24-2.09c-1.23-0.44-2.56-0.6-3.89-0.6
		C33.69,248.01,32.68,248.11,31.71,248.25L31.71,248.25L31.71,248.25z M36.2,251.97c0.12,0.02,0.24,0.04,0.35,0.07
		c-2.98,0.92-5.86,2.2-8.58,3.67c-4.42,2.39-8.47,5.57-12.08,9.04c-0.83,0.8-1.63,1.63-2.41,2.48c0.11-0.53,0.25-1.04,0.43-1.56
		c0.43-0.91,0.97-1.74,1.57-2.55c1.7-2.15,3.55-4.15,5.69-5.86c2.06-1.52,4.23-2.85,6.57-3.88c1.59-0.61,3.21-1.05,4.89-1.33
		C33.82,251.91,35,251.87,36.2,251.97L36.2,251.97L36.2,251.97z M44.58,257.42c1.02,1.5,1.88,3.11,2.62,4.77
		c0.6,1.46,1.12,2.96,1.55,4.48c-0.2,0.3-0.4,0.59-0.6,0.89c-1.19-0.56-2.39-1.1-3.6-1.62c-1.3-0.56-2.6-1.14-3.91-1.68
		c-1.32-0.54-2.72-0.95-4.12-1.25c-0.76-0.16-1.58-0.28-2.34-0.34c-0.77-0.07-1.52-0.02-2.29,0.01c-1.74,0.07-3.28,1.13-3.75,2.86
		c-0.28,1.01-0.13,2.1,0.39,3c0.46,0.77,1.39,1.66,2.33,1.79c1.06,0.14,2.03,0.39,3.02,0.76c2.54,1.16,4.93,2.62,7.36,4.02
		c0.31,0.18,0.63,0.36,0.94,0.54c-1.01,1.07-2.09,2.07-3.22,3c-1.33,0.98-2.74,1.79-4.26,2.46c-1.26,0.48-2.54,0.85-3.87,1.08
		c-1.21,0.12-2.4,0.12-3.61,0.01c-1.11-0.2-2.16-0.52-3.21-0.93c-1.92-0.89-3.75-1.95-5.44-3.22c-0.93-0.77-1.76-1.61-2.53-2.52
		c0.16-0.22,0.33-0.44,0.49-0.66c2.78-3.5,5.92-6.64,9.42-9.42c2.94-2.2,6.06-4.11,9.41-5.59c2.57-1.05,5.19-1.92,7.92-2.37
		C43.73,257.47,44.15,257.44,44.58,257.42L44.58,257.42L44.58,257.42z M48.88,258.1c0.02,0.01,0.03,0.01,0.05,0.02
		c0.56,0.27,1.1,0.57,1.61,0.92c0.16,0.14,0.32,0.29,0.47,0.45c0.05,0.08,0.1,0.17,0.14,0.25c0.09,0.28,0.16,0.56,0.22,0.84
		c0.02,0.29,0.03,0.58,0.02,0.87c-0.09,0.37-0.2,0.72-0.33,1.08c-0.06,0.14-0.12,0.28-0.19,0.42
		C50.32,261.29,49.65,259.67,48.88,258.1L48.88,258.1L48.88,258.1z M32.97,286.9c2.28-0.35,4.49-1.29,6.53-2.33
		c2.27-1.16,4.27-2.85,6.1-4.6c0.49-0.47,0.97-0.95,1.43-1.44c1.09,0.69,2.16,1.42,3.21,2.18c-0.06,0.23-0.14,0.46-0.22,0.69
		c-0.38,0.75-0.8,1.47-1.29,2.15c-1.68,2.02-3.78,3.62-5.84,5.23c0.09-0.07,0.17-0.13,0.26-0.2c-0.26,0.2-0.52,0.4-0.77,0.6
		c-0.55,0.43-0.85,1.09-0.46,1.75c0.32,0.55,1.19,0.88,1.75,0.46c2.17-1.67,4.45-3.31,6.34-5.3c1.02-1.07,1.91-2.31,2.5-3.66
		c2.28,1.9,4.34,4.05,6.2,6.37c0.62,0.84,1.2,1.71,1.74,2.61c0.56,0.93,1.03,1.91,1.46,2.9c0.65,1.66,1.19,3.35,1.52,5.1
		c0.06,0.72,0.07,1.43,0.02,2.16c-0.15,0.74-0.36,1.47-0.62,2.19c-0.38,0.79-0.81,1.55-1.31,2.27c-0.28,0.32-0.58,0.62-0.89,0.9
		c-0.95,0.63-1.97,1.15-3.02,1.62c-3.01,1.23-6.06,2.29-9.21,3.1c-3.4,0.87-6.87,1.4-10.34,1.88c-3.59,0.46-7.19,0.73-10.8,0.36
		c-3.08-0.5-6.12-1.34-9.02-2.49c-1.56-0.7-3.05-1.51-4.44-2.5c-0.76-0.64-1.45-1.33-2.09-2.09c-0.96-1.34-1.76-2.77-2.44-4.27
		c-0.64-1.66-1.13-3.36-1.43-5.12c-0.12-1.26-0.1-2.51,0.03-3.77c0.46-2.7,1.31-5.28,2.34-7.82c0.79-1.81,1.63-3.59,2.6-5.31
		c0.22-0.39,0.44-0.77,0.67-1.15c1.5,1.74,3.37,3.12,5.3,4.34c1.97,1.26,4.09,2.32,6.33,2.98c1.15,0.34,2.39,0.45,3.58,0.53
		c0.29,0.02,0.57,0.03,0.85,0.03C30.7,287.23,31.84,287.08,32.97,286.9L32.97,286.9L32.97,286.9z M9,301.86
		c0.03,0.07,0.06,0.14,0.09,0.21C9.06,302,9.03,301.93,9,301.86L9,301.86L9,301.86z"/>
	<path class="st0" d="M390.63,202.67c-2.27,0.41-4.46,1.19-6.58,2.1c-1.26,0.53-2.48,1.12-3.68,1.77c-1.74-0.32-3.49-0.56-5.24-0.79
		c-2.66-0.34-5.34-0.64-8.02-0.83c-2.55-0.18-5.1-0.21-7.65-0.2c-2.68,0.01-5.36,0.1-8.03,0.34c-2.83,0.25-5.59,0.8-8.33,1.51
		c-2.54,0.66-4.97,1.59-7.29,2.81c-2.07,1.1-2.68,3.93-1.54,5.89c0.56,0.96,1.49,1.68,2.57,1.98c0.38,0.05,0.76,0.1,1.14,0.15
		c0.76,0,1.47-0.19,2.13-0.56c2.58-1,5.38-1.47,8.11-1.87c4.36-0.52,8.78-0.37,13.15-0.26c2.6,0.07,5.19,0.25,7.78,0.5
		c-0.73,0.77-1.42,1.56-2.09,2.37c-3.04,3.69-5.19,7.96-7.35,12.2c-1.11,2.18-2.15,4.4-2.93,6.73c-0.81,2.41-1.11,5.03-1.2,7.56
		c-0.17,4.81,1.41,9.46,3.8,13.57c0.77,1.33,1.66,2.56,2.65,3.71c-0.45,0.14-0.82,0.48-0.96,0.98c-0.2,0.73,0.24,1.61,1.01,1.78
		c1.18,0.27,2.36,0.52,3.54,0.75c1.17,0.98,2.41,1.88,3.69,2.72c4.03,2.65,8.6,4.57,13.25,5.8c2.37,0.63,4.8,1,7.24,1.27
		c2.42,0.27,4.87,0.33,7.3,0.2c2.36-0.12,4.75-0.49,7.03-1.16c1.16-0.34,2.29-0.85,3.39-1.34c1.16-0.51,2.26-1.13,3.34-1.8
		c1.96-1.22,3.81-2.73,5.38-4.42c1.63-1.77,2.88-3.84,3.85-6.03c1.92-4.36,2.99-9.16,2.57-13.94c-0.44-5.02-2.11-9.79-4.39-14.26
		c-0.65-1.28-1.4-2.52-2.21-3.7c0.14-0.44,0.26-0.89,0.36-1.34c0.5-2.14,0.43-4.5,0.08-6.66c-0.4-2.4-1.27-4.55-2.6-6.58
		c-1.22-1.86-2.77-3.51-4.33-5.08c-1.63-1.64-3.4-3.17-5.4-4.34c-1.88-1.1-4.09-1.62-6.24-1.86c-0.81-0.09-1.62-0.13-2.43-0.13
		C393.87,202.2,392.26,202.37,390.63,202.67L390.63,202.67L390.63,202.67z M398.13,206.59c1.12,0.18,2.2,0.44,3.26,0.84
		c0.97,0.46,1.87,1.02,2.75,1.66c2.17,1.72,4.17,3.7,5.92,5.85c0.77,1.03,1.45,2.1,1.99,3.28c0.41,1.07,0.68,2.16,0.87,3.29
		c0.11,0.95,0.15,1.9,0.13,2.85c-1.14-1.28-2.35-2.49-3.61-3.64c-1.82-1.65-3.78-3.15-5.77-4.59c-1.98-1.43-4.07-2.66-6.26-3.75
		c-2.28-1.13-4.65-2.09-7.04-2.98c-1.09-0.4-2.18-0.78-3.29-1.13c1.97-0.75,3.99-1.33,6.08-1.66
		C394.82,206.42,396.47,206.41,398.13,206.59L398.13,206.59L398.13,206.59z M375.02,215.91c2.61,0.41,5.19,0.95,7.73,1.69
		c2.65,0.76,5.26,1.65,7.81,2.69c1.8,0.79,3.56,1.67,5.26,2.67c1.7,0.99,3.31,2.13,4.88,3.31c2.49,1.99,4.8,4.17,6.83,6.63
		c0.61,0.83,1.18,1.68,1.71,2.55c-0.43,0.85-0.88,1.69-1.36,2.52c-1.15,1.99-2.49,3.88-3.88,5.7c0.09-0.11,0.17-0.21,0.25-0.32
		c-1.3,1.67-2.68,3.27-4.16,4.79c-1.56,1.6-3.27,3.05-5.02,4.43c-3.73,2.83-7.75,5.22-12.04,7.09c0.05-0.02,0.1-0.04,0.14-0.06
		c-0.05,0.02-0.1,0.04-0.15,0.06c-0.07,0.03-0.13,0.06-0.2,0.09c0.06-0.03,0.12-0.06,0.19-0.08c-2.97,1.22-5.99,2.14-9.17,2.6
		c-0.28,0.03-0.57,0.06-0.85,0.09c-1.21-0.7-2.38-1.46-3.5-2.28c-1.46-1.18-2.79-2.46-3.97-3.91c-1.2-1.63-2.2-3.37-3.04-5.21
		c-0.59-1.47-1.04-2.96-1.31-4.52c-0.21-1.99-0.18-3.97,0.05-5.95c0.32-1.98,0.93-3.85,1.68-5.71c1.04-2.42,2.19-4.79,3.4-7.13
		c1.24-2.42,2.63-4.76,4.26-6.94C371.91,218.98,373.42,217.39,375.02,215.91L375.02,215.91L375.02,215.91z M391.13,220.51
		c0.1,0.04,0.2,0.08,0.29,0.12C391.33,220.59,391.23,220.55,391.13,220.51L391.13,220.51L391.13,220.51z M389.64,259.7
		c4.28-2.34,8.26-5.24,11.83-8.56c3.46-3.22,6.44-7.02,8.97-11.01c0.24-0.38,0.48-0.76,0.7-1.15c0.16,0.33,0.31,0.67,0.46,1.01
		c0.86,2.17,1.52,4.39,1.9,6.69c0.15,1.63,0.14,3.23-0.02,4.85c-0.32,1.88-0.81,3.71-1.49,5.5c-0.52,1.14-1.12,2.22-1.83,3.24
		c-0.91,1.09-1.92,2.06-3.02,2.97c-1.47,1.07-3.02,2-4.68,2.77c-1.69,0.64-3.42,1.06-5.2,1.33c-3.29,0.36-6.59,0.34-9.88-0.05
		c-3.4-0.51-6.72-1.38-9.92-2.66c-0.02-0.01-0.04-0.02-0.06-0.03C381.7,263.65,385.81,261.79,389.64,259.7L389.64,259.7
		L389.64,259.7z M394.9,252.7c-0.04,0.03-0.09,0.07-0.13,0.1C394.81,252.76,394.85,252.73,394.9,252.7L394.9,252.7L394.9,252.7z
		 M369.69,260.24c0.07,0.05,0.13,0.1,0.2,0.15C369.82,260.35,369.76,260.29,369.69,260.24L369.69,260.24L369.69,260.24z
		 M383.01,259.67c0,0,0.01,0,0.01,0c0,0,0.01,0,0.01,0C383.02,259.66,383.01,259.66,383.01,259.67L383.01,259.67L383.01,259.67z"/>
	<path class="st0" d="M220.39,422.28c-0.66,0.18-1.01,0.74-1.06,1.39c-0.15,1.86-0.26,3.74-0.2,5.61c0.03,0.89,0.07,1.78,0.11,2.67
		c-0.25,0.51-0.47,1.02-0.69,1.53c-0.98,2.32-2.01,4.62-3.02,6.93c-0.17,0.39-0.27,0.73-0.15,1.16c0.1,0.37,0.36,0.7,0.69,0.9
		c0.35,0.21,0.77,0.26,1.16,0.15c0.34-0.09,0.76-0.36,0.9-0.69c0.47-1.08,0.94-2.15,1.41-3.23c-0.03,0.92-0.06,1.83-0.09,2.74
		c-0.06,1.67-0.22,3.33-0.35,5c-0.28,3.74-0.74,7.46-1.19,11.18c-0.51,3.4-1.05,6.8-1.68,10.19c-0.61,3.32-1.4,6.62-2.13,9.91
		c-0.19,0.86-0.39,1.72-0.58,2.58c-0.2,0.9,0.26,1.83,1.19,2.09c0.87,0.24,1.88-0.28,2.09-1.18c0.88-3.7,1.77-7.4,2.61-11.11
		c0.21-0.91,0.35-1.84,0.53-2.76c0.13-0.7,0.24-1.39,0.36-2.09c0.31-1.84,0.6-3.69,0.87-5.54c0.41-2.8,0.7-5.62,0.97-8.44
		c0.12,0.26,0.25,0.51,0.45,0.73c0.33,0.34,0.71,0.53,1.17,0.62c0.58,0.12,1.28-0.05,1.56-0.63c0.23-0.47,0.44-0.94,0.57-1.45
		c0.15-0.56,0.21-1.13,0.29-1.71c0.08-0.61,0.11-1.22,0.15-1.83c0.05-0.75,0.07-1.51,0.09-2.26c0.06-1.76,0.12-3.51,0.18-5.26
		c0.07-2.26,0.08-4.54-0.14-6.78c-0.06-0.57-0.15-1.14-0.27-1.7c-0.12-0.54-0.33-1.04-0.56-1.55c-0.09-0.2-0.2-0.37-0.33-0.55
		c-0.17-0.22-0.4-0.52-0.67-0.64c-0.24-0.12-0.48-0.22-0.74-0.28c-0.41-0.1-0.78-0.04-1.19,0.01c-0.01,0-0.01,0-0.02,0.01
		c-0.02-0.53-0.07-1.05-0.1-1.58c-0.02-0.29-0.04-0.59-0.06-0.88c-0.03-0.38-0.05-0.76-0.1-1.15c-0.02-0.22-0.06-0.45-0.11-0.67
		c-0.05-0.27-0.21-0.54-0.33-0.79c-0.21-0.46-0.76-0.71-1.26-0.71C220.63,422.23,220.51,422.24,220.39,422.28L220.39,422.28
		L220.39,422.28z M223.86,430.68c-0.06,0.03-0.13,0.05-0.19,0.08C223.74,430.73,223.8,430.7,223.86,430.68L223.86,430.68
		L223.86,430.68z M223.17,430.8C223.17,430.8,223.17,430.8,223.17,430.8C223.17,430.8,223.17,430.8,223.17,430.8
		C223.17,430.8,223.17,430.8,223.17,430.8C223.17,430.8,223.17,430.8,223.17,430.8L223.17,430.8L223.17,430.8z M223.29,431.13
		C223.29,431.13,223.29,431.13,223.29,431.13c0.18,0.5,0.3,1.01,0.38,1.52c0.36,2.94,0.25,5.93,0.17,8.89
		c-0.03,1.19-0.09,2.37-0.13,3.55c-0.03,0.68-0.05,1.35-0.1,2.02c-0.37-1.46-0.6-2.96-0.81-4.44c0.02-0.26,0.03-0.52,0.04-0.77
		c0.02-1.04,0.04-2.07,0.06-3.1c0.03-1.05,0.07-2.1,0.05-3.16c-0.03-1.25-0.06-2.51-0.09-3.76c0-0.07,0-0.14-0.01-0.21
		c0.04-0.05,0.07-0.11,0.11-0.16C223.07,431.38,223.18,431.25,223.29,431.13L223.29,431.13L223.29,431.13z M217.91,457.77
		c-0.01,0.07-0.02,0.14-0.03,0.21C217.89,457.9,217.9,457.83,217.91,457.77L217.91,457.77L217.91,457.77z"/>
	<path class="st0" d="M240.6,406.72c-0.57,0.16-0.99,0.6-1.16,1.16c-0.22,0.73-0.49,1.42-0.55,2.19c-0.06,0.72,0,1.42,0.08,2.13
		c0.2,1.62,0.47,3.23,0.82,4.83c0.28,1.29,0.59,2.57,0.9,3.85c0.34,1.41,0.68,2.83,1.02,4.24c0.55,2.28,1.23,4.54,1.93,6.77
		c0.95,3.02,2.14,5.96,3.38,8.88c1.24,2.91,2.62,5.76,4.22,8.51c1.57,2.7,3.35,5.28,5.25,7.75c1.87,2.45,3.85,4.84,6.02,7.02
		c2.64,2.66,5.52,5.1,8.44,7.45c0.43,0.35,1.02,0.43,1.45,0c0.37-0.37,0.43-1.1,0-1.45c-2.53-2.04-5-4.17-7.36-6.4
		c-2.38-2.26-4.51-4.78-6.52-7.37c0,0,0,0,0,0c-1.9-2.48-3.67-5.06-5.26-7.75c-1.62-2.72-2.96-5.6-4.2-8.52
		c0.03,0.09,0.07,0.18,0.11,0.26c-1.29-3.07-2.47-6.18-3.42-9.37c-0.48-1.62-0.91-3.25-1.32-4.88c-0.15-0.59-0.3-1.17-0.42-1.77
		c-0.66-3.2-1.39-6.39-1.85-9.63c-0.15-1.16-0.28-2.34-0.24-3.51c0.39,0.34,0.74,0.69,1.07,1.09c1.67,2.23,2.85,4.76,3.97,7.3
		c0.78,1.75,1.55,3.51,2.39,5.23c1,2.03,1.99,4.07,2.99,6.1c1.41,2.88,2.83,5.77,4.24,8.65c0.44,0.9,0.88,1.81,1.33,2.71
		c0.65,1.33,1.38,2.63,2.08,3.93c3.08,5.68,6.34,11.26,9.86,16.68c1.76,2.7,3.59,5.34,5.47,7.96c0.98,1.36,1.96,2.7,3,4.01
		c1.86,2.34,3.73,4.67,5.6,7.01c0.45,0.56,0.88,1.15,1.35,1.68c0.7,0.81,1.4,1.61,2.1,2.41c2.14,2.45,4.29,4.88,6.46,7.3
		c2.13,2.37,4.37,4.65,6.8,6.72c0.64,0.54,1.3,0.89,2.15,0.89c0.81,0,1.59-0.33,2.16-0.89c0.57-0.57,0.89-1.35,0.89-2.15
		c0-0.73-0.3-1.68-0.89-2.16c-0.68-0.54-1.35-1.08-2-1.66c-0.5-0.45-1.01-0.9-1.5-1.35c-0.89-0.79-1.71-1.66-2.56-2.5
		c-0.68-0.66-1.33-1.36-1.99-2.04c-0.76-0.79-1.53-1.56-2.28-2.36c-1.75-1.87-3.51-3.74-5.26-5.61c-1.31-1.4-2.52-2.92-3.77-4.38
		c-1.78-2.09-3.62-4.14-5.3-6.31c0.12,0.16,0.25,0.33,0.38,0.49c-3.95-5.11-7.68-10.37-11.11-15.84c-1.72-2.74-3.37-5.52-4.99-8.32
		c-1.01-1.75-2.06-3.5-2.97-5.3c-2.5-4.91-5-9.82-7.51-14.72c-0.93-1.84-1.89-3.66-2.77-5.53c-1.18-2.5-2.26-5.04-3.67-7.42
		c-0.7-1.18-1.5-2.35-2.44-3.36c-0.47-0.52-1.08-0.93-1.65-1.34c-0.55-0.4-1.13-0.76-1.67-1.17c-0.22-0.16-0.52-0.23-0.81-0.23
		C240.91,406.66,240.74,406.69,240.6,406.72L240.6,406.72L240.6,406.72z"/>
	<path class="st0" d="M200.45,67.11c-2.16,0.26-4.28,0.67-6.36,1.31c-3.84,1.19-7.41,3.23-10.6,5.66c-1.6,1.21-3.12,2.5-4.56,3.91
		c-1.53,1.5-2.87,3.16-4.16,4.87c-2.14,2.84-3.74,6.04-4.84,9.41c-1.46,2.32-2.58,4.82-3.61,7.35c-0.95,2.34-1.93,4.65-2.53,7.11
		c-0.96,3.95-1.18,8.12-0.52,12.13c0.32,1.93,0.96,3.76,1.74,5.54c0.83,1.89,2.01,3.57,3.38,5.11c1.28,1.44,2.85,2.64,4.45,3.71
		c1.74,1.16,3.66,2.02,5.6,2.79c7.82,3.08,16.74,3.48,24.91,1.68c1.89-0.41,3.67-1.14,5.43-1.94c1.85-0.84,3.61-1.9,5.3-3.03
		c1.58-1.05,3.1-2.21,4.6-3.39c0.71-0.55,1.38-1.15,2.01-1.78c0.81-0.8,1.51-1.72,2.2-2.62c1.14-1.48,2.15-3.04,3.03-4.69
		c0.99-1.86,1.73-3.85,2.35-5.86c0.56-1.82,0.96-3.7,1.26-5.58c0.34-2.15,0.55-4.32,0.58-6.5c0.02-2.01-0.17-4.03-0.44-6.02
		c-0.3-2.27-0.71-4.52-1.19-6.77c-0.39-1.84-0.85-3.67-1.42-5.47c-0.64-2.02-1.48-3.96-2.43-5.84c-0.83-1.65-1.78-3.22-2.94-4.65
		c-1.22-1.5-2.76-2.66-4.45-3.61c-1.62-0.91-3.41-1.57-5.2-2.08c-1.95-0.56-3.99-0.83-6.01-0.96c-0.53-0.03-1.07-0.05-1.6-0.05
		C203.1,66.86,201.77,66.96,200.45,67.11L200.45,67.11L200.45,67.11z M207.93,73.97c1.74,0.28,3.43,0.73,5.07,1.37
		c0.94,0.43,1.83,0.92,2.68,1.51c0.53,0.46,1.01,0.95,1.46,1.49c1.27,1.75,2.32,3.68,3.2,5.65c0.82,2.03,1.46,4.12,2,6.25
		c0.63,2.47,1.14,4.97,1.52,7.49c0.21,1.68,0.34,3.37,0.35,5.07c0.01,1.6-0.13,3.2-0.33,4.79c-0.45,3.01-1.19,5.97-2.33,8.79
		c-0.94,2.07-2.11,4-3.47,5.83c-0.68,0.86-1.4,1.67-2.2,2.42c-0.79,0.75-1.65,1.42-2.51,2.08c0.09-0.07,0.18-0.14,0.27-0.21
		c-2.75,2.12-5.61,4.04-8.79,5.46c-2.22,0.89-4.53,1.42-6.89,1.76c-3.5,0.43-7.03,0.51-10.54,0.08c-3.17-0.48-6.28-1.27-9.26-2.48
		c-1.79-0.79-3.48-1.76-5.05-2.93c-1.1-0.9-2.1-1.88-3-2.98c-0.84-1.14-1.53-2.36-2.11-3.65c-0.64-1.6-1.1-3.24-1.36-4.94
		c-0.25-2.29-0.2-4.57,0.08-6.85c0.24-1.57,0.57-3.11,1.05-4.63c0.25-0.79,0.54-1.57,0.84-2.34c0.09,0.79,0.23,1.57,0.4,2.34
		c0.43,1.89,1.27,3.72,2.16,5.43c0.99,1.89,2.29,3.62,3.64,5.27c2.44,2.98,5.71,5.27,9.12,7.01c1.76,0.9,3.62,1.66,5.5,2.29
		c2.13,0.71,4.35,1.08,6.57,1.31c2,0.2,4-0.04,5.97-0.35c2.1-0.34,4.13-1.1,6.02-2.07c0.93-0.48,1.75-1.16,2.56-1.81
		c0.66-0.54,1.23-1.18,1.78-1.83c1.36-1.62,2.54-3.38,3.42-5.3c0.68-1.48,1.23-2.99,1.5-4.6c0.16-0.97,0.27-1.91,0.21-2.89
		c-0.05-0.96-0.23-1.95-0.45-2.89c-0.39-1.68-1.08-3.35-1.89-4.86c-0.22-0.4-0.45-0.8-0.7-1.19c0-0.05-0.01-0.1-0.02-0.15
		c-0.32-1.87-0.64-3.74-0.96-5.61c-0.59-3.43-1.7-6.74-3.14-9.89c-1.42-3.1-3.84-5.98-7.04-7.3c-1.72-0.71-3.5-1.06-5.35-1.22
		c-0.01,0-0.02,0-0.03,0c1.1-0.29,2.21-0.51,3.34-0.69C203.47,73.77,205.7,73.73,207.93,73.97L207.93,73.97L207.93,73.97z
		 M199.49,77.57c1.15,0.18,2.26,0.48,3.35,0.9c0.65,0.3,1.24,0.65,1.81,1.07c0.81,0.66,1.52,1.38,2.17,2.19
		c0.94,1.31,1.65,2.72,2.28,4.2c-0.04-0.09-0.07-0.18-0.11-0.26c1.09,2.66,1.9,5.42,2.38,8.25c0.03,0.17,0.06,0.35,0.09,0.52
		c-0.16-0.25-0.33-0.5-0.51-0.74c-0.48-0.61-0.95-1.23-1.42-1.84c-0.45-0.59-0.89-1.14-1.37-1.69c-0.49-0.56-1.03-1.05-1.58-1.55
		c-0.75-0.69-1.63-1.11-2.66-1.11c-0.99,0-1.96,0.4-2.66,1.11c-1.45,1.45-1.46,3.88,0,5.32c0.56,0.56,1.08,1.12,1.57,1.73
		c0.67,0.91,1.31,1.86,1.9,2.82c0.46,0.76,0.93,1.52,1.39,2.27c0.75,1.22,1.54,2.43,2.16,3.71c0.36,0.97,0.65,1.96,0.84,2.97
		c0.03,0.44,0.04,0.87,0.01,1.31c-0.16,0.79-0.38,1.55-0.67,2.31c-0.61,1.29-1.34,2.52-2.17,3.69c-0.51,0.61-1.05,1.18-1.64,1.71
		c-0.59,0.4-1.21,0.74-1.85,1.05c-1.19,0.44-2.4,0.75-3.65,0.96c-1.35,0.12-2.68,0.11-4.03-0.02c-2.12-0.35-4.17-0.94-6.16-1.74
		c-2.07-0.92-4.04-2.02-5.87-3.36c-1.24-1.03-2.35-2.16-3.36-3.41c-1.07-1.45-2-2.98-2.76-4.61c-0.38-0.99-0.68-2-0.87-3.05
		c-0.11-1.31-0.08-2.61,0.06-3.92c0.35-2.16,0.93-4.27,1.74-6.31c0.95-2.09,2.15-4.04,3.52-5.89c1.89-2.36,4.03-4.47,6.39-6.36
		c0.36-0.17,0.72-0.33,1.09-0.49c2.05-0.83,4.15-1.44,6.33-1.76C196.64,77.4,198.06,77.41,199.49,77.57L199.49,77.57L199.49,77.57z
		 M189.15,79.2c-0.03,0.01-0.07,0.03-0.1,0.04C189.09,79.22,189.12,79.21,189.15,79.2L189.15,79.2L189.15,79.2z"/>
	<path class="st0" d="M285.21,558.42c-0.45,0.26-0.78,0.7-0.92,1.19c-0.02,0.18-0.05,0.36-0.07,0.53c0,0.36,0.09,0.7,0.27,1.01
		c0.6,1.35,1.23,2.67,1.92,3.97c0.6,1.13,1.25,2.24,1.9,3.35c1.92,3.29,4.19,6.39,5.74,9.88c0.14,0.38,0.26,0.77,0.34,1.17
		c0.02,0.31,0.03,0.62,0.01,0.93c-0.01,0.04-0.02,0.08-0.03,0.12c-0.27,0.09-0.55,0.15-0.84,0.21c-0.8,0.05-1.61-0.03-2.41-0.09
		c-0.46-0.03-0.93-0.06-1.39-0.09c-0.86-0.06-1.72-0.09-2.57-0.18c-1.82-0.19-3.63-0.38-5.45-0.57c-1.8-0.24-3.6-0.51-5.4-0.76
		c-0.71-0.1-1.43-0.2-2.14-0.3c-0.5-0.07-1.01-0.2-1.51-0.3c-2.34-0.48-4.69-0.95-7.04-1.42c-0.54-0.11-1.08-0.22-1.61-0.33
		c-0.55-0.11-1.09-0.3-1.64-0.45c-2.23-0.61-4.47-1.21-6.71-1.82c-0.68-0.18-1.36-0.37-2.03-0.58c-1.11-0.36-2.21-0.75-3.32-1.12
		c-0.24-0.08-0.49-0.16-0.74-0.23c-0.35-0.5-0.69-1-1.04-1.5c-0.25-0.36-0.7-0.52-1.1-0.29c-0.36,0.21-0.54,0.74-0.29,1.1
		c0.02,0.02,0.03,0.05,0.05,0.07c-0.2-0.04-0.4-0.09-0.6-0.13c-0.9-0.21-1.62,0.55-1.44,1.44c0.05,0.22,0.1,0.5,0.23,0.7
		c0.19,0.28,0.39,0.53,0.63,0.77c0.19,0.18,0.37,0.37,0.55,0.55c0.31,0.31,0.62,0.62,0.95,0.93c0.77,0.73,1.55,1.47,2.32,2.21
		c0.64,0.62,1.29,1.23,1.93,1.86c0.37,0.36,0.74,0.71,1.11,1.07c0.16,0.15,0.31,0.3,0.46,0.45c0.38,0.36,0.7,0.74,1.17,0.96
		c0.31,0.15,0.64,0.18,0.95,0c0.34-0.2,0.59-0.68,0.43-1.07c-0.08-0.21-0.16-0.41-0.28-0.61c-0.07-0.14-0.2-0.27-0.29-0.4
		c-0.17-0.24-0.34-0.48-0.51-0.71c-0.28-0.39-0.56-0.78-0.84-1.17c-0.48-0.67-0.96-1.33-1.45-2c-0.21-0.29-0.41-0.58-0.62-0.87
		c0.35,0.12,0.7,0.25,1.06,0.37c0.7,0.24,1.41,0.44,2.12,0.64c2.27,0.65,4.54,1.3,6.81,1.95c0.46,0.13,0.94,0.3,1.41,0.4
		c0.61,0.14,1.22,0.28,1.83,0.41c2.32,0.52,4.65,1.05,6.98,1.57c1.22,0.28,2.45,0.5,3.68,0.73c1.81,0.33,3.62,0.68,5.44,0.99
		c1.82,0.3,3.65,0.61,5.48,0.91c0.84,0.14,1.68,0.25,2.52,0.38c0.44,0.07,0.88,0.13,1.33,0.2c0.97,0.15,1.94,0.34,2.93,0.4
		c0.52,0.03,1.05-0.07,1.55-0.14c0.58-0.08,1.09-0.22,1.63-0.47c0.4-0.19,0.78-0.46,1.06-0.8c0.21-0.26,0.39-0.49,0.54-0.78
		c0.15-0.28,0.27-0.61,0.37-0.92c0.16-0.46,0.19-0.98,0.25-1.46c0.07-0.58,0.01-1.15-0.07-1.72c-0.18-1.23-0.71-2.36-1.23-3.48
		c-0.45-0.95-0.91-1.89-1.45-2.81c-0.49-0.83-1.01-1.66-1.53-2.48c-0.48-0.75-0.96-1.5-1.45-2.25c-1.78-2.78-3.63-5.51-5.24-8.39
		c-0.35-0.63-1.04-0.98-1.73-0.98C285.87,558.15,285.52,558.24,285.21,558.42L285.21,558.42L285.21,558.42z M294.36,580.69
		C294.36,580.69,294.36,580.69,294.36,580.69c-0.03,0.03-0.06,0.05-0.08,0.07C294.3,580.73,294.33,580.71,294.36,580.69
		L294.36,580.69L294.36,580.69z"/>
	<path class="st0" d="M199.88,513.84c-0.39,0.18-0.77,0.34-1.14,0.56c-0.31,0.19-0.59,0.42-0.88,0.63
		c-0.31,0.23-0.62,0.46-0.94,0.68c-0.52,0.38-1.04,0.77-1.57,1.16c-0.5,0.38-1,0.76-1.5,1.15c-0.72,0.48-1.44,0.97-2.17,1.46
		c-2.83,1.9-5.66,3.8-8.49,5.7c-1.1,0.74-2.21,1.46-3.32,2.18c-2.93,1.92-5.86,3.84-8.79,5.75c-3.57,2.34-7.12,4.69-10.73,6.97
		c-5.18,3.29-10.37,6.57-15.56,9.86c-4.11,2.61-8.19,5.27-12.29,7.91c-2.34,1.51-4.66,3.05-7,4.58c-1.9,1.25-3.8,2.49-5.7,3.75
		c-2.4,1.59-4.82,3.15-7.26,4.7c-0.43,0.27-0.75,0.65-0.88,1.15c-0.13,0.5-0.06,1.04,0.2,1.48c0.25,0.43,0.67,0.75,1.14,0.88
		c0.45,0.12,1.09,0.1,1.48-0.2c2.32-1.74,4.63-3.49,6.96-5.22c1.87-1.38,3.72-2.78,5.61-4.14c1.4-1.01,2.8-2.02,4.2-3.04
		c0.83-0.6,1.65-1.23,2.5-1.81c2.31-1.59,4.63-3.18,6.94-4.77c1.71-1.18,3.41-2.39,5.15-3.54c2.21-1.46,4.43-2.93,6.64-4.39
		c3.98-2.62,7.97-5.22,11.92-7.89c5.42-3.66,10.83-7.32,16.25-10.98c0.29-0.2,0.58-0.4,0.88-0.59c-1.13,0.91-2.26,1.81-3.39,2.72
		c-0.17,0.14-0.14,0.42,0,0.57c0.17,0.16,0.39,0.14,0.57,0c4.07-3.26,8.12-6.56,12.22-9.8c0.49-0.34,0.98-0.68,1.47-1.02
		c1.08-0.75,2.15-1.5,3.23-2.25c1.37-0.95,2.68-1.99,4-3.01c0,0,0,0,0,0c0.22-0.17,0.44-0.33,0.65-0.5
		c0.18-0.13,0.27-0.35,0.14-0.55c-0.08-0.13-0.2-0.19-0.34-0.19C200.03,513.79,199.96,513.8,199.88,513.84L199.88,513.84
		L199.88,513.84z M199.64,515.04c0.01-0.01,0.03-0.02,0.04-0.03C199.67,515.02,199.66,515.03,199.64,515.04L199.64,515.04
		L199.64,515.04z"/>
	<path class="st0" d="M325.57,512.02c-0.52,0.02-1.02,0.11-1.53,0.2c-1.22,0.22-1.44,2.12-0.35,2.66c4.2,2.07,8.41,4.11,12.61,6.16
		c0.71,0.34,1.55,0.2,1.97-0.52c0.03-0.05,0.06-0.11,0.08-0.17c3.32,1.48,6.64,2.97,9.96,4.49c4.49,2.06,8.93,4.23,13.35,6.43
		c4.96,2.45,9.89,4.94,14.81,7.47c4.48,2.3,8.92,4.7,13.42,6.96c2.31,1.16,4.62,2.31,6.97,3.38c2.42,1.09,4.84,2.16,7.26,3.25
		c2.43,1.1,4.86,2.21,7.31,3.29c1.27,0.56,2.54,1.1,3.82,1.64c1.06,0.45,2.13,0.89,3.16,1.4c0.94,0.47,1.88,0.93,2.8,1.44
		c1.16,0.65,2.3,1.34,3.41,2.07c1.53,1.01,3.72,0.31,4.61-1.21c0.46-0.78,0.58-1.73,0.34-2.6c-0.24-0.88-0.8-1.52-1.55-2.01
		c-2.27-1.48-4.62-2.79-7.11-3.87c-2.68-1.17-5.38-2.27-8.08-3.39c-4.56-1.91-9.14-3.75-13.71-5.63c-2.35-1-4.68-2.02-7.01-3.07
		c-2.26-1.02-4.5-2.07-6.75-3.1c-4.93-2.25-9.88-4.45-14.83-6.63c-4.85-2.14-9.69-4.3-14.53-6.46c-4.46-1.98-8.98-3.85-13.5-5.72
		c-2.77-1.15-5.53-2.29-8.3-3.43c-1.66-0.71-3.3-1.48-4.99-2.12c-0.79-0.3-1.6-0.53-2.43-0.71c-0.35-0.08-0.8-0.19-1.17-0.19
		C325.6,512.02,325.59,512.02,325.57,512.02L325.57,512.02L325.57,512.02z"/>
</g>
</svg>
