<?xml version="1.0" encoding="utf-8"?>
<!-- Generator: Adobe Illustrator 22.1.0, SVG Export Plug-In . SVG Version: 6.00 Build 0)  -->
<svg version="1.1" id="Layer_1" xmlns="http://www.w3.org/2000/svg" xmlns:xlink="http://www.w3.org/1999/xlink" x="0px" y="0px"
	 viewBox="0 0 100.8 187.1" style="enable-background:new 0 0 100.8 187.1;" xml:space="preserve">
<style type="text/css">
	.st0{fill:#5C5B4B;stroke:#5A5A5A;stroke-linecap:round;stroke-miterlimit:10;}
	.st1{fill:#FCF4E9;stroke:#5A5A5A;stroke-linecap:round;stroke-miterlimit:10;}
	.st2{fill:#FFD767;stroke:#5A5A5A;stroke-miterlimit:10;}
	.st3{fill:#E6C86B;stroke:#5A5A5A;stroke-miterlimit:10;}
</style>
<g id="Layer_5">
</g>
<g id="Layer_3">
</g>
<g id="XMLID_31631_">
	<g id="XMLID_31632_">
		<path id="XMLID_31638_" class="st0" d="M33.9,123.2c0,0,35.3-4.4,30.1,8.1S8.9,133.7,33.9,123.2z"/>
		<g id="XMLID_31633_">
			<path id="XMLID_31636_" class="st1" d="M46.5,120.2c0,0-12.9,3-3.9,12.4C51.6,142,58.1,121.4,46.5,120.2z"/>
			<path id="XMLID_31635_" class="st1" d="M43.1,119.9c0,0,3.2,5.8,6.5,0.1C52.8,114.4,42,114.1,43.1,119.9z"/>
			<path id="XMLID_31634_" class="st1" d="M43.8,113.6c0,0-3.2,5.8,3.3,5.6S48.1,109.6,43.8,113.6z"/>
		</g>
		<path id="XMLID_31641_" class="st2" d="M44,1.1c0,0,2-13,2.5,80.5S43.1,67.3,44,1.1z"/>
		<g>
			<path class="st2" d="M32.3,121.1c0,0,32.2-4.4,34.9,5.7c0.3-6.5-15.2-32.5-29.3-20c-12.2,10.9-13.4,19.1-13.5,21.2
				C24.7,125.9,27.1,123.5,32.3,121.1z"/>
			<path class="st3" d="M67.2,126.8c-2.7-10.1-34.9-5.7-34.9-5.7c-5.2,2.4-7.6,4.8-7.9,6.9c-1.6,9.8,37.4,15.9,42.3,3.1
				C67.4,129.5,67.5,128,67.2,126.8z M63.6,131.3c-4.2,9.9-37.1,5.2-36.1-2.4c0.2-1.7,2.2-3.6,6.8-5.5c0,0,30.4-3.8,29.9,5.8
				C64,129.8,63.9,130.5,63.6,131.3z"/>
		</g>
	</g>
</g>
</svg>
