<?xml version="1.0" encoding="utf-8"?>
<!-- Generator: Adobe Illustrator 22.1.0, SVG Export Plug-In . SVG Version: 6.00 Build 0)  -->
<svg version="1.1" id="Layer_1" xmlns="http://www.w3.org/2000/svg" xmlns:xlink="http://www.w3.org/1999/xlink" x="0px" y="0px"
	 viewBox="0 0 387.5 61.9" style="enable-background:new 0 0 387.5 61.9;" xml:space="preserve">
<style type="text/css">
	.st0{opacity:0.1;fill:#5C5B4B;stroke:#5C5B4B;stroke-linecap:round;stroke-miterlimit:10;}
	.st1{fill:#EEE3D9;stroke:#5D5B4C;stroke-miterlimit:10;}
	.st2{fill:#FCF4E9;stroke:#5C5B4B;stroke-linecap:round;stroke-miterlimit:10;}
	.st3{fill:none;stroke:#5C5B4B;stroke-linecap:round;stroke-miterlimit:10;}
	.st4{fill:#FFF4EB;stroke:#5D5C4C;stroke-linecap:round;stroke-miterlimit:10;}
</style>
<path id="XMLID_5190_" class="st0" d="M374.8,20.5c-1.9-0.1-72.8,0.2-79,1.4c-0.8,0.2-3,1.4-4.2,2.8c-1.7,2-3.9,5-4.5,8.3
	c-0.1,0.4-0.2,13.7-0.1,14.1c-0.3,4.1,2.2,8.4,11.2,11.3c6.6,2.1,79.1,0.1,80.8,0c4.9-0.3,7.4-3.7,7.9-8c0.3-2.8,0.2-12.9,0.1-15.5
	C386.4,28.4,382,21.1,374.8,20.5z"/>
<path class="st1" d="M376.8,25c-0.3-4.6-2.6-9.7-6.4-12.4c-1.3-0.9-6.9-7.4-9.1-9.3c-1.8-1.6-4-2.6-6.5-2.8
	c-1.9-0.1-72.8,0.2-79,1.4c-0.8,0.2-3,1.4-4.2,2.8c-1.7,2-3.9,5-4.5,8.3c-0.1,0.4-0.2,13.7-0.1,14.1c-0.1,2,0.4,3.9,1.9,5.8
	s8.9,8.9,10.6,10.7s4.5,3.4,8.7,4.8c6.6,2.1,79.1,0.1,80.8,0c4.9-0.3,7.4-3.7,7.9-8C377.1,37.7,377,27.5,376.8,25z"/>
<path id="XMLID_5189_" class="st0" d="M234.3,22.5c-1.9-0.1-72.8,0.2-79,1.4c-0.8,0.2-3,1.4-4.2,2.8c-1.7,2-3.9,5-4.5,8.3
	c-0.1,0.4-0.2,13.7-0.1,14.1c-0.3,4.1,2.2,8.4,11.2,11.3c6.6,2.1,79.1,0.1,80.8,0c4.9-0.3,7.4-3.7,7.9-8c0.3-2.8,0.2-12.9,0.1-15.5
	C245.9,30.4,241.4,23.1,234.3,22.5z"/>
<path id="XMLID_5188_" class="st1" d="M234.3,12.5c-1.9-0.1-72.8,0.2-79,1.4c-0.8,0.2-3,1.4-4.2,2.8c-1.7,2-3.9,5-4.5,8.3
	c-0.1,0.4-0.2,13.7-0.1,14.1c-0.3,4.1,2.2,8.4,11.2,11.3c6.6,2.1,79.1,0.1,80.8,0c4.9-0.3,7.4-3.7,7.9-8c0.3-2.8,0.2-12.9,0.1-15.5
	C245.9,20.4,241.4,13.1,234.3,12.5z"/>
<g id="XMLID_5184_">
	<g>
		<path id="XMLID_5187_" class="st2" d="M234.3,2.5c-1.9-0.1-72.8,0.2-79,1.4c-0.8,0.2-3,1.4-4.2,2.8c-1.7,2-3.9,5-4.5,8.3
			c-0.1,0.4-0.2,13.7-0.1,14.1c-0.3,4.1,2.2,8.4,11.2,11.3c6.6,2.1,79.1,0.1,80.8,0c4.9-0.3,7.4-3.7,7.9-8
			c0.3-2.8,0.2-12.9,0.1-15.5C245.9,10.4,241.4,3.1,234.3,2.5z"/>
		<path id="XMLID_5186_" class="st3" d="M240.5,32.7c0,0,1.1,2.2-0.7,3.2"/>
		<path id="XMLID_5185_" class="st3" d="M157.3,7.2c0,0-2.7,1.3-3.6,2.6"/>
	</g>
</g>
<g>
	<path id="XMLID_5183_" class="st2" d="M234.3,2.5c-1.9-0.1-72.8,0.2-79,1.4c-0.8,0.2-3,1.4-4.2,2.8c-1.7,2-3.9,5-4.5,8.3
		c-0.1,0.4-0.2,13.7-0.1,14.1c-0.3,4.1,2.2,8.4,11.2,11.3c6.6,2.1,79.1,0.1,80.8,0c4.9-0.3,7.4-3.7,7.9-8c0.3-2.8,0.2-12.9,0.1-15.5
		C245.9,10.4,241.4,3.1,234.3,2.5z"/>
	<path id="XMLID_5182_" class="st3" d="M240.5,32.7c0,0,1.1,2.2-0.7,3.2"/>
	<path id="XMLID_5181_" class="st3" d="M157.3,7.2c0,0-2.7,1.3-3.6,2.6"/>
	<g id="XMLID_5172_">
		<path id="XMLID_5180_" class="st4" d="M210.8,31.1c-8.2-5.8-3.1-14.2-3.1-14.2c0.8-1.6,9.3-6.1,11.7-3.5c0,0,0,0,0,0
			c2.5,2.6,0.6,4.6-0.5,5.8c-0.8,0.9-2.6,0.8-3.4,0.6c-0.2,0-0.4-0.1-0.4-0.1c-1.5-0.2-3,0.3-2.6,2.2c0,0,0.1,1.4,0.6,2.5l0,0
			c0,0,0.4,1,1.2,1.3c0.3,0.1,0.6,0.1,1.1-0.1c0,0,0,0,0.1,0c0.2-0.1,0.4-0.2,0.7-0.2c1.7-0.5,4.6-0.7,5.2,1.6c0.6,2.7,0,3-0.3,3.5
			c0,0,0,0,0,0c-0.3,0.5-1.4,0.9-1.4,0.9l0,0C216.9,33,213.7,33.2,210.8,31.1z"/>
		<g id="XMLID_5177_">
			<path id="XMLID_5179_" class="st4" d="M179.7,15.5c0,0-1.8-1.2-2.5-0.3c-0.8,1-2.1,2.6-0.5,5.9s7.4,0.6,8-0.9"/>
			<path id="XMLID_5178_" class="st4" d="M186.3,18.2L186.3,18.2c-1.1-2.9-3.4-5.1-7-5.5c-7.2-0.7-10.2,3.9-11.3,6.8
				c0,0-0.3,0.4-0.4,1.3c-0.1,0.5-0.2,0.9-0.2,1.1c-0.1,1.6,0.2,3.9,1.6,6.9c1.2,2.5,4.2,3.4,6.2,3.7c0.6,0.1,1.2,0.2,1.8,0.2
				c0,0,0.1,0,0.1,0l0,0c0.7,0,1.4-0.1,2.2-0.3c3.2-0.7,5.3-2.7,6.5-5.2c-0.2-2.9-2.7-3.2-4.1-3.4c-0.8-0.1-1.6,0.4-2.3,0.9
				c-0.1,0.1-0.1,0.1-0.2,0.2c-2.1,1.6-7.7-1.5-4.8-3.8c0,0,1-1.1,2.2-1.5h0c0,0,1-0.5,1.8-0.2c0.3,0.1,0.6,0.3,0.8,0.8
				c0,0,0,0,0,0.1c0.1,0.2,0.2,0.4,0.3,0.6c1,1.6,3.1,3.6,5.1,2.2c2.3-1.7,2-2.3,2.1-2.9c0,0,0,0,0,0
				C186.9,19.3,186.3,18.2,186.3,18.2z"/>
		</g>
		<g id="XMLID_5173_">
			<path id="XMLID_5176_" class="st4" d="M201.7,19.6c0,0,3.5-0.2,3.1-3.1c-0.3-2.3-10-6.5-13.9-1.5c-1,1.3-1.7,3.2-1.7,6
				c0,0,0,0,0,0c0.3,0.9,0.8,1.7,1.4,2.4c0.2,0.3,0.5,0.5,0.7,0.7c1.8,1.4,4.3,2,6.5,2c-0.3,1.2-1.8,1.9-6.5-0.4
				c0,0-3.5,0.2-3.1,3.1c0.3,2.3,10,6.5,14,1.5c1-1.3,1.7-3.2,1.7-6l0,0c-0.3-1-0.8-1.7-1.4-2.4c-0.2-0.3-0.5-0.5-0.7-0.7
				c-1.8-1.4-4.3-2-6.5-2C195.5,18,197,17.3,201.7,19.6z"/>
			<path id="XMLID_5175_" class="st4" d="M197.3,23.1c0,0,3.3,7.2-6,2.6c0,0-3.5,0.2-3.1,3.1c0.4,2.9,15.7,8.8,15.6-4.6"/>
			<path id="XMLID_5174_" class="st4" d="M195.7,22.2c0,0-3.3-7.2,6-2.6c0,0,3.5-0.2,3.1-3.1c-0.4-2.9-15.7-8.8-15.6,4.6"/>
		</g>
	</g>
</g>
<g id="XMLID_5168_">
	<g>
		<path id="XMLID_5171_" class="st2" d="M354.8,0.5c-1.9-0.1-72.8,0.2-79,1.4c-0.8,0.2-3,1.4-4.2,2.8c-1.7,2-3.9,5-4.5,8.3
			c-0.1,0.4-0.2,13.7-0.1,14.1c-0.3,4.1,2.2,8.4,11.2,11.3c6.6,2.1,79.1,0.1,80.8,0c4.9-0.3,7.4-3.7,7.9-8
			c0.3-2.8,0.2-12.9,0.1-15.5C366.4,8.4,362,1.1,354.8,0.5z"/>
		<path id="XMLID_5170_" class="st3" d="M361,30.7c0,0,1.1,2.2-0.7,3.2"/>
		<path id="XMLID_5169_" class="st3" d="M277.8,5.2c0,0-2.7,1.3-3.6,2.6"/>
	</g>
</g>
<path id="XMLID_5167_" class="st3" d="M370.6,44.6c0,0-3.1-4.4-5.4-5.4"/>
<path id="XMLID_5166_" class="st0" d="M12.7,22.5c1.9-0.1,72.8,0.2,79,1.4c0.8,0.2,3,1.4,4.2,2.8c1.7,2,3.9,5,4.5,8.3
	c0.1,0.4,0.2,13.7,0.1,14.1c0.3,4.1-2.2,8.4-11.2,11.3c-6.6,2.1-79.1,0.1-80.8,0c-4.9-0.3-7.4-3.7-7.9-8C0.4,49.7,0.5,39.5,0.6,37
	C1,30.4,5.5,23.1,12.7,22.5z"/>
<path class="st1" d="M10.6,27c0.3-4.6,2.6-9.7,6.4-12.4c1.3-0.9,6.9-7.4,9.1-9.3c1.8-1.6,4-2.6,6.5-2.8c1.9-0.1,72.8,0.2,79,1.4
	c0.8,0.2,3,1.4,4.2,2.8c1.7,2,3.9,5,4.5,8.3c0.1,0.4,0.2,13.7,0.1,14.1c0.1,2-0.4,3.9-1.9,5.8c-1.5,1.9-8.9,8.9-10.6,10.7
	c-1.7,1.8-4.5,3.4-8.7,4.8c-6.6,2.1-79.1,0.1-80.8,0c-4.9-0.3-7.4-3.7-7.9-8C10.4,39.7,10.5,29.5,10.6,27z"/>
<g id="XMLID_5162_">
	<g>
		<path id="XMLID_5165_" class="st2" d="M32.7,2.5c1.9-0.1,72.8,0.2,79,1.4c0.8,0.2,3,1.4,4.2,2.8c1.7,2,3.9,5,4.5,8.3
			c0.1,0.4,0.2,13.7,0.1,14.1c0.3,4.1-2.2,8.4-11.2,11.3c-6.6,2.1-79.1,0.1-80.8,0c-4.9-0.3-7.4-3.7-7.9-8
			c-0.3-2.8-0.2-12.9-0.1-15.5C21,10.4,25.5,3.1,32.7,2.5z"/>
		<path id="XMLID_5164_" class="st3" d="M26.5,32.7c0,0-1.1,2.2,0.7,3.2"/>
		<path id="XMLID_5163_" class="st3" d="M109.7,7.2c0,0,2.7,1.3,3.6,2.6"/>
	</g>
</g>
<path id="XMLID_5161_" class="st3" d="M16.9,46.6c0,0,3.1-4.4,5.4-5.4"/>
<path id="XMLID_5160_" class="st3" d="M156.8,43.3c0,0-0.9,2.9-0.6,4.4"/>
<path id="XMLID_4911_" class="st3" d="M241.1,42.3c0,0,0.9,2.9,0.6,4.4"/>
</svg>
