<?xml version="1.0" encoding="utf-8"?>
<!-- Generator: Adobe Illustrator 22.1.0, SVG Export Plug-In . SVG Version: 6.00 Build 0)  -->
<svg version="1.1" id="Layer_1" xmlns="http://www.w3.org/2000/svg" xmlns:xlink="http://www.w3.org/1999/xlink" x="0px" y="0px"
	 viewBox="0 0 1281 721.2" style="enable-background:new 0 0 1281 721.2;" xml:space="preserve">
<style type="text/css">
	.st0{fill:none;stroke:#90A55E;stroke-width:0.25;stroke-linecap:round;stroke-miterlimit:10;}
</style>
<g>
	<g>
		<line class="st0" x1="641.2" y1="359.5" x2="641" y2="0.5"/>
	</g>
	<path class="st0" d="M0.2,0.8l640.3,359.4L0.2,0.8z"/>
	<path class="st0" d="M0.5,90.4l639.7,270.1L0.5,90.4z"/>
	<g>
		<path class="st0" d="M0.5,180.4l639.7,180.1L0.5,180.4z"/>
	</g>
	<path class="st0" d="M0.5,270.3l639.7,90.2L0.5,270.3z"/>
	<path class="st0" d="M1280.5,0.8L640.2,360.2L1280.5,0.8z"/>
	<path class="st0" d="M1280.2,90.4L640.5,360.5L1280.2,90.4z"/>
	<path class="st0" d="M1280.2,180.4L640.5,360.5L1280.2,180.4z"/>
	<path class="st0" d="M1280.2,270.3l-639.7,90.2L1280.2,270.3z"/>
	<line id="XMLID_1861_" class="st0" x1="640.5" y1="360.2" x2="800.5" y2="0.5"/>
	<line id="XMLID_1860_" class="st0" x1="960.5" y1="0.5" x2="640.5" y2="360.2"/>
	<line id="XMLID_1859_" class="st0" x1="1120.5" y1="0.5" x2="640.5" y2="360.2"/>
	<line id="XMLID_1858_" class="st0" x1="640.5" y1="360.2" x2="480.5" y2="0.5"/>
	<line id="XMLID_1857_" class="st0" x1="320.5" y1="0.5" x2="640.5" y2="360.2"/>
	<line class="st0" x1="640.5" y1="360.2" x2="160.5" y2="0.5"/>
	<line class="st0" x1="640.5" y1="360.2" x2="0.5" y2="315.6"/>
	<line class="st0" x1="1280.5" y1="315.6" x2="640.5" y2="360.2"/>
</g>
<g>
	<g>
		<line class="st0" x1="641.2" y1="361.7" x2="641" y2="720.7"/>
	</g>
	<path class="st0" d="M0.2,720.4L640.5,361L0.2,720.4z"/>
	<path class="st0" d="M0.5,630.8l639.7-270.1L0.5,630.8z"/>
	<g>
		<path class="st0" d="M0.5,540.9l639.7-180.1L0.5,540.9z"/>
	</g>
	<path class="st0" d="M0.5,450.9l639.7-90.2L0.5,450.9z"/>
	<path class="st0" d="M1280.5,720.4L640.2,361L1280.5,720.4z"/>
	<path class="st0" d="M1280.2,630.8L640.5,360.7L1280.2,630.8z"/>
	<path class="st0" d="M1280.2,540.9L640.5,360.7L1280.2,540.9z"/>
	<path class="st0" d="M1280.2,450.9l-639.7-90.2L1280.2,450.9z"/>
	<line id="XMLID_1856_" class="st0" x1="640.5" y1="361" x2="800.5" y2="720.7"/>
	<line id="XMLID_1855_" class="st0" x1="960.5" y1="720.7" x2="640.5" y2="361"/>
	<line id="XMLID_1854_" class="st0" x1="1120.5" y1="720.7" x2="640.5" y2="361"/>
	<line id="XMLID_1853_" class="st0" x1="640.5" y1="361" x2="480.5" y2="720.7"/>
	<line id="XMLID_1852_" class="st0" x1="320.5" y1="720.7" x2="640.5" y2="361"/>
	<line class="st0" x1="640.5" y1="361" x2="160.5" y2="720.7"/>
	<line class="st0" x1="640.5" y1="361" x2="0.5" y2="405.6"/>
	<line class="st0" x1="1280.5" y1="405.6" x2="640.5" y2="361"/>
</g>
</svg>
