<?xml version="1.0" encoding="utf-8"?>
<!-- Generator: Adobe Illustrator 22.1.0, SVG Export Plug-In . SVG Version: 6.00 Build 0)  -->
<svg version="1.1" id="Layer_1" xmlns="http://www.w3.org/2000/svg" xmlns:xlink="http://www.w3.org/1999/xlink" x="0px" y="0px"
	 viewBox="0 0 1280 720" style="enable-background:new 0 0 1280 720;" xml:space="preserve">
<style type="text/css">
	.st0{fill:#F7C872;stroke:#5B5B4B;stroke-miterlimit:10;}
</style>
<path class="st0" d="M-129.8,66.3c-1.1,7,0.3,14.4,4,20.5c0.3,0.5,1.1,0.1,0.8-0.5c-3-5.3-4.5-11.3-4.1-17.3c0-0.2,0-0.4,0.1-0.6
	c2.2,5.5,4.8,10.8,8.2,15.7c5.9,8.4,14.4,15.4,24.5,17.9c7.5,1.8,15.2,0.8,21.4-3.6c17.4,18.6,33.2,39,41.2,63.3
	c5.4,16.1,7.3,33.8,3.8,50.6c-1.8,8.5-5,16.5-9.7,23.8c-3.5,5.6-8.2,10.9-8.9,17.7c-2.2,19.9,21.8,38.1,37.6,45
	c18.2,7.9,41.6,9.7,58.8-1.9c23.6-16,19.4-46.4,22.4-71.1c1.9-15.5,8.9-34.6,24.8-40.5c17.5-6.5,32.7,7.5,40.6,21.7
	c7.5,13.6,9.4,29.3,14.6,43.7c4.8,13.4,12.4,22.2,23,31.4c6.6,5.7,12.5,11.5,13.7,20.5c0.9,6.5-0.5,13.3,2.2,19.5
	c3.1,7.2,10.2,10.6,17.8,11c10.4,0.5,21.4-4,28.9-11.2c10.7-10.2,13.7-26.6,17.4-40.3c4.4-16.8,9.9-35,27.8-41.4
	c12.4-4.4,31.4-3.1,33.3,13.1c0.1,0.6,0.6,0.9,1.1,0.6c11.9-5.9,20.4-16.8,23.6-29.7c3.8-15.4-2.5-26.8-7.5-40.9
	c-4-11.2-3.6-26.3,13.4-23.5c9.1,1.5,18.1,6.7,25.4,12.1c14.5,10.7,25.4,25.9,31.3,42.9c6.4,18.4,4.3,34.8,1.5,53.6
	c-1.8,12.3-0.6,26.6,11.7,33c21.6,11.3,48.3-8.8,61.3-24.4c10.6-12.7,21.8-27.3,37.1-34.5c9.7-4.6,20.3-4.7,29.9,0.3
	c8.1,4.2,14.6,10.7,22.3,15.4c23.5,14.4,56.8,4,66-22.5c4.8-13.8,2.4-27.3-4.2-39.9c-2.7-5.2-1.2-8.3,5-10.2
	c3.7-1.2,8.1-0.6,11.7,0.5c10.1,3.2,15.4,10.7,19,20.3c5.3,14.1,7.4,29.2,19.3,39.6c8.5,7.4,19.4,11.2,30.1,13.8
	c23.6,5.7,54.1,4.5,73.1,21.8c25,22.7,4.2,58.8,19.1,85.2c7.4,13.1,22.4,17,35.9,21c17,5,34.3,9.5,51.9,10.7
	c32.3,2.3,61.3-9.8,78.4-38c16.6-27.4,19.9-59.6,28-90c4.2-15.7,9.7-31.2,18.2-45.1c4.2-6.8,9.2-13.2,15.1-18.6
	c2.9-2.6,17.3-14.9,21.4-11.7c1.3,1,2.5,6.3,3.6,8c1.6,2.5,3.6,4.7,5.9,6.6c4.6,3.8,10.3,6.4,16.2,7c1.6,0.2,6.2-0.3,6.4,0.1
	c0.4,0.7-5.2,8.5-6,10c-4.1,7.4-7.6,15.3-8.7,23.8c-1.6,12.3,2.9,26.1,14,32.9c8.6,5.3,19.3,3.9,26.6-2.9c8.6-8,12.2-20.4,16.6-30.9
	c2.5-5.9,5.2-11.8,9-16.9c6.5-8.7,16.2-13.3,25.6-18.3c26.9-14.1,67.2-27,69.8-5.9c2.1,16.4,7,31.2,20,42
	c13.8,11.5,30.3,21,46.3,29.2c28.6,14.7,63.7,24.6,93.2,6.5c22.1-13.5,33.2-38,42.2-61.1c10.3-26.4,19-55.5,39.5-76
	c23.1-23.1,62.2-29.8,74-63.3c3.9-11,4.3-24.1-3.2-33.7c-10.2-13-29.3-13.5-41.1-24.7c-11.9-11.2-19.3-25.7-35.1-32.3
	c-16.6-6.9-36.2-7-53.8-8.8c-19.9-2-39.8-4.1-59.7-6.1c10-6.3,18.4-13,15.8-20c-3-8-20.5-14.1-41.8-18.1c-5.9-2.6-14.5-4.9-22.6-6.4
	c-50-9.7-108.2-16.3-165.3-20.4c-29.4-2.1-59.2-3.5-89.3-4.3c-0.5,0-1,0-1.5,0c-25.2-3.6-51.2-6.4-78.7-8.4
	c-43.4-3.2-87.8-5.2-131.8-7.4c-89.3-4.4-178.9-8.2-268.8-11.3c-90.5-3.1-181.6-6.1-272.6-7c-81.4-0.8-165.6,1-241,11.5
	c-61.1,8.6-116.7,22.7-145.8,42c-35.2,23.3-24.7,50.5,2.5,74.1C-71.2,17.3-52.2,29.3-32.4,41c1.5,0.9,3,1.8,4.5,2.8
	c-7,2.1-14,4.1-21.2,5.8c-7.7,1.9-15.4,3.5-23.2,4.9c-6.4,1.1-15.4,0.5-21.3,3.1c-5.2,2.3-20,22-25.2,18.7
	c-2.6-1.6-5.2-12.2-6.3-14.8c-0.4-1-0.9-2-1.3-3c0.4-0.8,0.7-1.5,1.2-2.2c0.4-0.7,0.8-1.3,1.2-1.9c0.3-0.4,0.6-0.7,0.9-1.1
	c3.1-1.4,4.1-0.9,3,1.4c-0.2,0.1,0,0.3,0.1,0.3c1.7-0.7,0.9-3.3-0.7-3.6c-2.7-0.6-4.9,3.1-6.3,5.9c-1.5-3.5-3-7-4.4-10.5
	c-0.4-1-2-0.1-1.5,0.9c1.7,3.9,3.3,7.9,5,11.8c-0.7,1.6-1.2,3.3-1.6,5.1c-0.1-0.2-0.1-0.3-0.2-0.5c-1.9-5.1-3.7-10.2-5.1-15.5
	c-0.7-2.8-1.4-6.3,0.4-8.9c1.6-2.4,5.2-3.8,7.6-1.6c0.3,0.3,0.7-0.1,0.4-0.4c-2.3-2.4-6.1-1.5-8.2,0.8c-3.3,3.6-1.5,9.2-0.2,13.2
	C-133.2,56.6-131.6,61.5-129.8,66.3z"/>
</svg>
