<svg xmlns="http://www.w3.org/2000/svg" xmlns:xlink="http://www.w3.org/1999/xlink" xml:space="preserve" width="1766px" height="1766px" style="shape-rendering:geometricPrecision; text-rendering:geometricPrecision; image-rendering:optimizeQuality; fill-rule:evenodd; clip-rule:evenodd" viewBox="0 0 17612.6 17612.6">
 <defs>
  <style type="text/css">
   <![CDATA[
    .fil1 {fill:none}
    .fil0 {fill:black}
   ]]>
  </style>
 </defs>
 <g id="Layer_x0020_1">
  <metadata id="CorelCorpID_0Corel-Layer"/>
  <g id="_59659312">
   <polygon id="_58242584" class="fil0" points="11868.5,1584.41 12335.9,1584.41 12335.9,1116.96 11868.5,1116.96 "/>
   <path id="_25932064" class="fil0" d="M13738.3 1584.41l2337.29 0 0 2337.29 -2337.29 0 0 -2337.29zm-467.452 2804.75l3272.2 0 0 -3272.2 -3272.2 0 0 3272.2z"/>
   <polygon id="_26383736" class="fil0" points="12335.9,2986.79 12803.4,2986.79 12803.4,2051.88 12335.9,2051.88 "/>
   <polygon id="_57491376" class="fil0" points="2051.87,3454.25 3454.23,3454.25 3454.23,2051.88 2051.87,2051.88 "/>
   <polygon id="_59657848" class="fil0" points="14205.8,3454.25 15608.1,3454.25 15608.1,2051.88 14205.8,2051.88 "/>
   <path id="_153011192" class="fil0" d="M1584.4 1584.41l2337.29 0 0 2337.29 -2337.29 0 0 -2337.29zm-467.452 2804.75l3272.2 0 0 -3272.2 -3272.2 0 0 3272.2z"/>
   <polygon id="_59660560" class="fil0" points="1116.95,5791.54 1584.4,5791.54 1584.4,4856.62 1116.95,4856.62 "/>
   <polygon id="_59660656" class="fil0" points="16075.6,7661.37 16543,7661.37 16543,7193.91 16075.6,7193.91 "/>
   <polygon id="_153797296" class="fil0" points="1116.95,9531.2 1584.4,9531.2 1584.4,9063.74 1116.95,9063.74 "/>
   <polygon id="_59660080" class="fil0" points="13270.9,13738.3 13738.3,13738.3 13738.3,13270.9 13270.9,13270.9 "/>
   <polygon id="_153011472" class="fil0" points="16075.6,15140.7 16543,15140.7 16543,14673.2 16075.6,14673.2 "/>
   <polygon id="_59659792" class="fil0" points="2051.87,15608.1 3454.23,15608.1 3454.23,14205.8 2051.87,14205.8 "/>
   <polygon id="_59659696" class="fil0" points="7661.36,15608.1 8128.81,15608.1 8128.81,15140.7 7661.36,15140.7 "/>
   <path id="_59631960" class="fil0" d="M1584.4 13738.3l2337.29 0 0 2337.29 -2337.29 0 0 -2337.29zm-467.452 2804.75l3272.2 0 0 -3272.2 -3272.2 0 0 3272.2z"/>
   <path id="_153011696" class="fil0" d="M15140.7 14673.2l0 467.464 -467.464 0 0 467.452 -467.452 0 0 467.464 -467.464 0 0 -934.915 -467.452 0 0 467.452 -467.464 0 0 467.464 -467.452 0 0 -467.464 467.452 0 0 -467.452 467.464 0 0 -467.464 934.915 0 0 467.464 467.452 0 0 -467.464 467.464 0zm-7479.32 467.464l467.452 0 0 467.452 -467.452 0 0 -467.452zm-1402.38 934.915l-467.452 0 0 -1402.38 467.452 0 0 467.464 467.464 0 0 467.452 -467.464 0 0 467.464zm0 -3272.21l467.464 0 0 467.464 934.915 0 0 934.915 467.452 0 0 467.452 -467.452 0 0 -467.452 -934.915 0 0 -467.464 -467.464 0 0 467.464 -934.915 0 0 -467.464 934.915 0 0 -934.915zm6544.41 0l1402.38 0 0 1402.38 -1402.38 0 0 -1402.38zm-2337.28 0l0 -467.452 467.452 0 0 467.452 -467.452 0zm-934.915 -467.452l-467.464 0 0 -467.464 -467.452 0 0 1402.38 -467.464 0 0 -467.464 -934.915 0 0 -1402.37 -467.452 0 0 934.915 -467.464 0 0 -1402.38 1869.83 0 0 467.464 -467.452 0 0 934.915 467.452 0 0 -934.915 934.915 0 0 467.452 467.464 0 0 467.464zm-5609.49 -3272.21l467.452 0 0 467.464 467.464 0 0 467.452 -467.464 0 0 467.464 -934.915 0 0 934.915 467.464 0 0 467.452 467.452 0 0 467.464 -467.452 0 0 -467.464 -934.915 0 0 -467.452 -467.464 0 0 -467.464 467.464 0 0 -467.452 467.452 0 0 -934.915 467.464 0 0 467.452 467.452 0 0 -467.452 -467.452 0 0 -467.464zm9349.15 0l0 934.915 -467.464 0 0 -467.452 -467.452 0 0 1402.37 -934.915 0 0 -467.452 467.452 0 0 -467.464 -467.452 0 0 -934.915 -1402.38 0 0 467.464 -467.452 0 0 467.452 467.452 0 0 -467.452 467.464 0 0 934.915 467.452 0 0 467.452 -467.452 0 0 467.464 467.452 0 0 467.452 -467.452 0 0 -467.452 -934.915 0 0 -467.464 467.452 0 0 -467.452 -467.452 0 0 467.452 -934.915 0 0 -467.452 467.452 0 0 -467.464 -467.452 0 0 -467.452 -1869.83 0 0 -934.915 -934.915 0 0 467.452 -467.464 0 0 -467.452 467.464 0 0 -467.464 -467.464 0 0 -467.452 -467.452 0 0 -467.464 1402.37 0 0 467.464 -467.452 0 0 467.452 467.452 0 0 -467.452 467.464 0 0 467.452 467.452 0 0 -467.452 -467.452 0 0 -1402.38 467.452 0 0 467.464 467.464 0 0 -467.464 467.452 0 0 467.464 -467.452 0 0 467.452 467.452 0 0 467.464 -467.452 0 0 934.915 -467.464 0 0 467.452 1402.38 0 0 467.464 467.452 0 0 -467.464 467.464 0 0 -467.452 -934.915 0 0 -467.464 1402.37 0 0 -934.915 934.915 0 0 467.464 -467.452 0 0 467.452 467.452 0 0 467.464 934.915 0 0 -934.915 -467.452 0 0 -467.464 467.452 0 0 -467.452 467.464 0 0 -467.464 -467.464 0 0 -467.452 467.464 0 0 -467.464 467.452 0 0 467.464 467.464 0 0 -467.464 1869.83 0 0 934.915 -467.464 0 0 467.464 -467.452 0 0 -934.915 -934.915 0 0 467.452 -467.464 0 0 467.464 -467.452 0 0 934.915 467.452 0 0 467.452 -467.452 0 0 934.915 934.915 0zm0 1869.83l0 -467.452 467.452 0 0 467.452 467.464 0 0 467.464 -467.464 0 0 -467.464 -467.452 0zm-7479.32 -934.915l934.915 0 0 467.464 -934.915 0 0 934.915 -467.464 0 0 467.452 -467.452 0 0 -1402.37 934.915 0 0 -467.464zm-1869.83 1402.38l0 -467.464 467.452 0 0 467.464 -467.452 0zm3272.2 -1402.38l467.464 0 0 467.464 -467.464 0 0 -467.464zm-4207.11 -467.452l0 467.452 -467.464 0 0 -467.452 467.464 0zm11686.4 -467.464l0 -467.452 -467.452 0 0 -467.464 -467.464 0 0 934.915 -467.452 0 0 -467.452 -467.464 0 0 -467.464 467.464 0 0 -467.452 934.915 0 0 467.452 467.452 0 0 467.464 467.464 0 0 467.452 -467.464 0zm-1402.37 -2804.75l467.452 0 0 934.915 -467.452 0 0 467.464 -467.464 0 0 -467.464 467.464 0 0 -934.915zm-3272.21 934.915l-467.452 0 0 467.464 -934.915 0 0 -467.464 467.452 0 0 -467.452 934.915 0 0 467.452zm-2337.28 -2337.28l-934.915 0 0 934.915 -467.464 0 0 467.452 -467.452 0 0 467.464 -467.464 0 0 -467.464 -467.452 0 0 467.464 -934.915 0 0 -467.464 -467.464 0 0 467.464 -467.452 0 0 -467.464 467.452 0 0 -934.915 934.915 0 0 467.464 -467.452 0 0 467.452 467.452 0 0 -467.452 934.915 0 0 -467.464 467.464 0 0 467.464 -467.464 0 0 467.452 467.464 0 0 -467.452 467.452 0 0 -467.464 -467.452 0 0 -467.452 467.452 0 0 -934.915 -467.452 0 0 467.452 -467.464 0 0 -1869.83 467.464 0 0 934.915 467.452 0 0 467.464 467.464 0 0 467.452 467.452 0 0 -467.452 -467.452 0 0 -467.464 934.915 0 0 1402.38zm934.915 934.915l467.452 0 0 467.452 -467.452 0 0 -467.452zm3739.66 -1402.38l-467.464 0 0 -467.452 467.464 0 0 467.452zm-934.915 -1402.37l0 467.452 -467.464 0 0 467.464 467.464 0 0 467.452 -467.464 0 0 -467.452 -467.452 0 0 467.452 -467.464 0 0 -467.452 467.464 0 0 -467.464 467.452 0 0 -467.452 467.464 0zm-5142.04 467.452l0 -467.452 467.464 0 0 467.452 -467.464 0zm3739.66 -1402.37l0 -467.464 934.915 0 0 467.464 -934.915 0zm5609.49 14491.2l467.464 0 0 -467.452 -467.464 0 0 -1402.38 -467.452 0 0 -467.452 467.452 0 0 -467.464 467.464 0 0 -467.452 -467.464 0 0 467.452 -467.452 0 0 -934.915 -467.464 0 0 -467.452 -2337.28 0 0 934.915 -934.915 0 0 467.452 934.915 0 0 934.915 -467.464 0 0 -467.452 -1402.37 0 0 -467.464 -934.915 0 0 -1402.37 467.452 0 0 467.452 467.464 0 0 467.464 467.452 0 0 -467.464 467.464 0 0 -467.452 467.452 0 0 -467.464 -467.452 0 0 -467.452 934.915 0 0 467.452 467.452 0 0 -934.915 467.464 0 0 934.915 934.915 0 0 -467.452 467.452 0 0 467.452 467.464 0 0 -467.452 467.452 0 0 934.915 467.464 0 0 467.452 467.452 0 0 -934.915 -467.452 0 0 -467.452 -467.464 0 0 -467.464 -467.452 0 0 467.464 -467.464 0 0 -467.464 -467.452 0 0 -467.452 -467.464 0 0 -467.464 467.464 0 0 -934.915 467.452 0 0 467.464 467.464 0 0 467.452 -467.464 0 0 467.464 1402.38 0 0 -467.464 -467.464 0 0 -467.452 -467.452 0 0 -467.464 467.452 0 0 -467.452 467.464 0 0 934.915 467.452 0 0 -934.915 -467.452 0 0 -467.464 -467.464 0 0 467.464 -467.452 0 0 -467.464 -467.464 0 0 -1402.37 934.915 0 0 -467.464 467.464 0 0 -467.452 -467.464 0 0 -934.915 -2337.28 0 0 467.452 -467.464 0 0 -467.452 -467.452 0 0 -467.464 467.452 0 0 -934.915 -934.915 0 0 -467.452 -467.452 0 0 -467.464 467.452 0 0 -467.452 -467.452 0 0 -934.915 -1869.83 0 0 934.915 467.452 0 0 467.452 -467.452 0 0 467.464 467.452 0 0 -467.464 934.915 0 0 467.464 -467.452 0 0 467.452 -467.464 0 0 467.464 -467.452 0 0 467.452 467.452 0 0 1402.38 934.915 0 0 -934.915 467.464 0 0 467.452 467.452 0 0 467.464 -467.452 0 0 467.452 467.452 0 0 467.464 -934.915 0 0 -467.464 -467.452 0 0 467.464 -467.464 0 0 -467.464 -467.452 0 0 -1402.37 -467.464 0 0 -934.915 -467.452 0 0 934.915 467.452 0 0 467.452 -467.452 0 0 467.464 -934.915 0 0 -934.915 467.452 0 0 -1402.38 934.915 0 0 -467.452 -467.452 0 0 -467.464 467.452 0 0 -1402.37 -467.452 0 0 467.452 -467.464 0 0 467.464 -467.452 0 0 467.452 467.452 0 0 467.464 -934.915 0 0 -467.464 -1402.37 0 0 -467.452 1402.37 0 0 -467.464 -934.915 0 0 -467.452 -934.915 0 0 934.915 -467.452 0 0 2804.75 467.452 0 0 467.452 -934.915 0 0 -467.452 -2337.28 0 0 1402.37 -467.464 0 0 467.464 -467.452 0 0 467.452 467.452 0 0 467.464 -467.452 0 0 934.915 467.452 0 0 -467.464 467.464 0 0 -934.915 -467.464 0 0 -467.452 467.464 0 0 -467.464 467.452 0 0 467.464 467.464 0 0 934.915 -467.464 0 0 467.452 467.464 0 0 467.464 467.452 0 0 -1402.38 934.915 0 0 467.464 -467.452 0 0 467.452 934.915 0 0 467.464 -934.915 0 0 467.452 -467.464 0 0 467.464 -467.452 0 0 -467.464 -934.915 0 0 1402.38 -467.464 0 0 -467.464 -467.452 0 0 2804.75 467.452 0 0 -1402.37 467.464 0 0 467.452 467.452 0 0 467.464 -467.452 0 0 467.452 467.452 0 0 -467.452 467.464 0 0 467.452 1402.37 0 0 -467.452 1869.83 0 0 467.452 -467.452 0 0 467.464 -467.464 0 0 -467.464 -467.452 0 0 467.464 467.452 0 0 467.452 -467.452 0 0 1869.83 467.452 0 0 467.464 -467.452 0 0 467.452 1402.37 0 0 -467.452 467.464 0 0 -467.464 467.452 0 0 467.464 934.915 0 0 467.452 467.464 0 0 -934.915 467.452 0 0 -467.452 -467.452 0 0 -467.464 467.452 0 0 -467.452 934.915 0 0 467.452 -467.452 0 0 467.464 467.452 0 0 -467.464 1869.83 0 0 467.464 -1402.37 0 0 467.452 467.452 0 0 934.915 467.464 0 0 -467.452 467.452 0 0 467.452 2337.29 0 0 -467.452 467.452 0 0 467.452 467.464 0 0 -467.452 467.452 0 0 467.452z"/>
   <polygon id="_153011752" class="fil0" points="9063.73,16543.1 9531.19,16543.1 9531.19,16075.6 9998.64,16075.6 9998.64,15608.1 9531.19,15608.1 9531.19,16075.6 9063.73,16075.6 "/>
  </g>
  <rect class="fil1" width="17612.6" height="17612.6"/>
 </g>
</svg>