<?xml version="1.0" encoding="utf-8"?>
<!-- Generator: Adobe Illustrator 22.1.0, SVG Export Plug-In . SVG Version: 6.00 Build 0)  -->
<svg version="1.1" id="Layer_1" xmlns="http://www.w3.org/2000/svg" xmlns:xlink="http://www.w3.org/1999/xlink" x="0px" y="0px"
	 viewBox="0 0 560 757.6" style="enable-background:new 0 0 560 757.6;" xml:space="preserve">
<style type="text/css">
	.st0{fill:#FFD767;stroke:#584C4F;stroke-width:2;stroke-miterlimit:10;}
	.st1{fill:#584C4F;stroke:#584C4F;stroke-width:2;stroke-miterlimit:10;}
</style>
<path class="st0" d="M559,3.5V3.3c0,0-391.3-4.4-403.7-1c-12.7,4-16,6.6-18,20.6c-0.7,4.5-3.8,7.4-7.8,8.5
	c-6.6,1.8-13.4,2.9-20.1,4.3c-7.2,1.6-14.5,3.7-21.8,4.4c-6.4,0.6-13-0.5-19.5-1c-3.9-0.3-7.8-1.3-11.7-1.1c-1.6,0.1-4,2.1-4.4,3.7
	c-0.4,1.7,0.5,4.7,1.9,5.7c2,1.5,4.3,2.4,7.7,1.5c14.4-3.6,28.3-2.4,40.1,7.8c1.5,1.3,3.1,3.2,3.3,4.9c1.2,11.1,8.7,15.6,18.2,18.4
	c4.9,1.4,8.8,4.5,10.3,9.8c1.2,4.3-0.3,7.7-4.4,9.6c-11.7,5.4-12.6,15.1-2.6,23.2c2.5,2,4,5.8,4.7,9.1c0.7,3.5-1.2,5.8-5.4,6.7
	c-8.7,1.7-17.2,4.8-25.8,6.1c-31.6,4.8-52,0.5-66.3,0.6c-2,0-4.1-0.3-6.1-0.3c-3.2-0.1-5,2-4.4,4.7c0.4,2,2.4,4.4,4.3,5
	c2.5,0.9,5.6,0.1,8.4,0.1c13.8,0.1,40.6-5.3,64.9,0.4c3.8,0.8,7.7,2.1,11.5,3.4c4.9,1.7,9.6,4.5,13.9,5c5.7,0.7,8.9,5.6,8.2,11
	c-1,7.1-5.7,12.9-13.9,12.9c-14.1,0.1-28.3,1.2-42.4,1.8c-3.9,0.2-6.4,1.6-6.7,5.7c-0.2,3.5,2.6,7.1,6.2,7.6
	c7.6,1,15.3,1.9,22.9,2.8c8.5,1,14,6.3,15.1,14.7c0.9,7.8-1.6,12.4-9.8,15.3c-13.3,4.7-27,3.1-40.6,2.7c-1.6-0.1-3.1-0.5-4.7-0.5
	c-3-0.1-6,0.4-6,4.3c0,3.8,2.9,5.5,6.1,5.8c2.2,0.1,4.6-1.6,6.8-1.4c7.1,0.6,14.4,1,21.2,2.8c6.7,1.8,8.2,15.9,2.6,21.3
	c-4.1,4-8.9,7-14.8,7c-8.6,0-17.2-0.4-25.8-0.7c-2.1-0.1-4.4-0.7-6.1,0c-0.8,0.3-1.6,1-2.3,1.8c-1.3,1.4-1.2,3.5,0.1,4.9
	c0.7,0.8,1.4,1.3,2.2,1.4c4.1,0.4,8.2,0,12.3-0.4c10.7-1.1,21.4-0.8,31.5,3.2c3.5,1.4,6.7,3.5,9.9,5.6c1.6,6.2,5.3,12,10.5,15.9
	c5.4,4.1,12.3,5.7,17.6,9.7c6.4,4.9,3.4,11.2,2.7,18.7c-1.8,2.2-4.4,3.8-7.4,4.6c-9.1,2.5-18.4,4-27.6,5.9c-10,2.1-19.9,5.1-30,6
	c-13.2,1.3-27.1-1.5-40.2-2.8c-2.7-0.3-5.7-0.5-7.6,2.2c-0.8,1.3-1.1,2.9-1,4.4c0.3,3.7,2.8,7.4,6.5,8.2s7.5-0.3,11.2-1.1
	c17.9-3.8,36.4-0.3,50.4,11.8c2,1.7,4.3,4.3,4.5,6.7c1.5,13.6,9.8,19.9,20.9,23.9c-1.1,2.7-1.8,5.7-1.8,8.8c0,5.9,2.3,11.2,6.1,15.1
	c-11.1,0.9-19.6,5.7-19.6,11.5c0,4.9,6.1,9.1,14.8,10.8c0.2,1.6,0.8,3.2,1.5,4.8c2,4.4,6.5,6.5,8.8,10.4c2.4,4.2,2.2,11,1.1,15.6
	c-0.4,1.5-0.9,3.1-2.1,4.2c-1.1,1-2.6,1.4-4.1,1.8c-32.3,8.4-66.4,8.8-99.5,7.6c-2-0.1-4,0.6-5.5,1.9c-5.5,4.9,3.5,11.3,8,11.7
	c5.5,0.5,10.7-2,16.1-2.6c5.9-0.6,12-0.6,18-0.4c8.5,0.2,17,1.1,25.4,2.6c3,0.6,6,1.2,9,1.9c12.2,2.9,45.7,8.7,43.4,25.7
	c-1.3,9.8-7.8,17.7-19.1,17.8c-19.4,0.1-38.9,1.6-58.3,2.4c-5.2,0.2-8.7,2.1-9.1,7.8c-0.3,4.9,3.6,9.9,8.5,10.5
	c10.4,1.4,20.9,2.5,31.4,3.8c11.7,1.5,19.3,8.7,20.8,20.3c1.4,10.6-2.2,17-13.4,21c-18.3,6.5-37.1,4.3-55.8,3.7
	c-2.2,0-4.3-0.5-6.5-0.6c-4.1-0.1-8.2,0.5-8.2,5.9c0,7.6,6.7,8,12.3,7.1c3.9-0.7,10.2-0.9,14.1-0.5c5,0.5,9.9,1.2,14.9,2
	c13.5,2.2,19.6,20.5,9.2,30.6c-5.6,5.4-12.2,9.6-20.3,9.6c-11.8-0.1-23.7-0.7-35.5-1c-2.8-0.1-5.9-1-8.3,0c-0.8,0.3-1.5,0.9-2.2,1.5
	c-2.6,2.5-2.4,6.9,0.6,9c0.5,0.3,1,0.5,1.6,0.6c5.5,0.6,11.2,0.1,16.8-0.5c14.8-1.5,29.5-1.1,43.3,4.4c7.9,3.2,14.8,8.9,22.4,13
	c6,3.2,12.2,6,18.5,8.3c4.1,1.5,7.8,2.9,8.5,7.6c0.7,5.2-3,6.7-7.1,7.4c-3.4,0.6-6.8,1.3-10.1,1.1c-6.9-0.4-13.7-1.5-20.6-1.9
	c-5.9-0.3-10.3,3-10.3,7.2c0,4.6,4.4,8.1,10.4,8.3c15.9,0.5,31.7,0.8,47.5,1.5c8.1,0.4,16.1,1.7,21.4,9h0.9v1.2h410.3h2.4
	 M117.6,676.2c8.4,1.1,13.6,8.6,13.7,16.9c0.1,6.9-2.4,10.5-8.6,10.3c-13.2-0.3-25.9-3-35.8-12.6c-2.2-2.1-4.6-6.3-3.8-8.5
	c0.9-2.8,4.8-6.1,7.7-6.3C99.7,675.3,108.8,675,117.6,676.2z M118.6,659.7c0.4,3.5-1.8,4.9-5.1,6.3c-5.9,2.4-11.1-0.6-16.6-1
	c-0.9,0-2.2-1.7-2.2-2.6c0-0.9,1.2-2.4,2.2-2.7c4.6-1.4,9.2-2,13.8-3.2l1.4-0.1C115,656.3,118.1,656.1,118.6,659.7z"/>
<g>
	<path class="st1" d="M289.9,632c0.4-0.5,0.9-1.1,1.4-1.6c0,0-16.7,8.7-16.2,34.7c-0.5,26,16.2,34.7,16.2,34.7
		c-0.5-0.5-1-1.1-1.4-1.6c-6.8-6.1-11.5-18.6-11.5-33.1S283.1,638.1,289.9,632z"/>
	<path class="st1" d="M198,682.6c0.6-0.4,1.1-0.8,1.7-1.2c0,0-20,6.3-19.4,25c-0.5,18.7,19.4,25,19.4,25c-0.6-0.4-1.2-0.8-1.7-1.2
		c-8.1-4.5-13.7-13.5-13.7-23.9C184.3,695.8,189.9,686.8,198,682.6z"/>
	<path class="st1" d="M439.2,531.5c0.9-0.6,1.8-1.2,2.7-1.8c0,0-31.6,10-30.7,39.7c-0.9,29.7,30.7,39.7,30.7,39.7
		c-1-0.6-1.9-1.2-2.7-1.8c-13-7.1-21.8-21.4-21.8-37.9S426.2,538.5,439.2,531.5z"/>
	<path class="st1" d="M524.2,639.3c0.6-0.4,1.2-0.8,1.8-1.2c0,0-21.5,6.8-20.9,27c-0.7,20.2,20.9,27,20.9,27
		c-0.6-0.4-1.2-0.8-1.8-1.2c-8.8-4.8-14.8-14.5-14.8-25.8C509.4,653.8,515.4,644.1,524.2,639.3z"/>
	<path class="st1" d="M224.5,561.2c0.6-0.4,1.2-0.8,1.8-1.2c0,0-21.1,6.6-20.5,26.4c-0.6,19.7,20.5,26.4,20.5,26.4
		c-0.6-0.4-1.2-0.8-1.8-1.2c-8.6-4.7-14.5-14.2-14.5-25.2S215.9,565.9,224.5,561.2z"/>
	<path class="st1" d="M289.9,122c0.4-0.5,0.9-1.1,1.4-1.6c0,0-16.7,8.7-16.2,34.7c-0.5,26,16.2,34.7,16.2,34.7
		c-0.5-0.5-1-1.1-1.4-1.6c-6.8-6.1-11.5-18.6-11.5-33.1S283.1,128.1,289.9,122z"/>
	<path class="st1" d="M198,172.5c0.6-0.4,1.1-0.8,1.7-1.2c0,0-20,6.3-19.4,25c-0.5,18.7,19.4,25,19.4,25c-0.6-0.4-1.2-0.8-1.7-1.2
		c-8.1-4.5-13.7-13.5-13.7-23.9S189.9,176.8,198,172.5z"/>
	<path class="st1" d="M439.2,21.5c0.9-0.6,1.8-1.2,2.7-1.8c0,0-31.6,10-30.7,39.7c-0.9,29.7,30.7,39.7,30.7,39.7
		c-1-0.6-1.9-1.2-2.7-1.8c-13-7.1-21.8-21.4-21.8-37.9C417.4,42.8,426.2,28.5,439.2,21.5z"/>
	<path class="st1" d="M524.2,129.3c0.6-0.4,1.2-0.8,1.8-1.2c0,0-21.5,6.8-20.9,27c-0.7,20.2,20.9,27,20.9,27
		c-0.6-0.4-1.2-0.8-1.8-1.2c-8.8-4.8-14.8-14.5-14.8-25.8C509.4,143.8,515.4,134.1,524.2,129.3z"/>
	<path class="st1" d="M224.5,51.2c0.6-0.4,1.2-0.8,1.8-1.2c0,0-21.1,6.6-20.5,26.4c-0.6,19.7,20.5,26.4,20.5,26.4
		c-0.6-0.4-1.2-0.8-1.8-1.2c-8.6-4.7-14.5-14.2-14.5-25.2S215.9,55.9,224.5,51.2z"/>
</g>
</svg>
