<?xml version="1.0" encoding="utf-8"?>
<!-- Generator: Adobe Illustrator 22.1.0, SVG Export Plug-In . SVG Version: 6.00 Build 0)  -->
<svg version="1.1" id="Layer_1" xmlns="http://www.w3.org/2000/svg" xmlns:xlink="http://www.w3.org/1999/xlink" x="0px" y="0px"
	 viewBox="0 0 247.1 271.1" style="enable-background:new 0 0 247.1 271.1;" xml:space="preserve">
<style type="text/css">
	.st0{fill:#A89BCA;}
</style>
<path class="st0" d="M-29.2-59.8c4.5-0.1,7.4,2.7,9.7,5.8c1.2,1.6,2,2.3,3.9,1.5c1.9-0.6,3.9,0.2,5.9,0.5c1.8,0.3,3.7,0.6,5.4,0.3
	c2.6-0.6,4.3-2.5,5.2-5c1.4-3.7-3.2-3.6-4.5-7.4c5.3,3.7,9.3,1.5,10.7-2.3c3.2-8.7,8.5-9.6,16.6-7.3c4.5,1.4,8.6-2.2,11.8-5.4
	c3.4-3.3,7.1-5.4,11.9-4.9c3.7,0.4,6.8-0.5,10-2c3.6-1.7,5.5,1,7,3.6c3.4,6.2,8.2,11.9,8.9,19.5c0.2,3.2,2.5,5.8,6.5,5.6
	c0.9-0.1,2,0.3,2.7,0.9c9.4,7.2,9.4,7.2,17.1,9.1c-1.2,2.2-4.1,1.9-5.9,4c1.8,0.8,4.2,1.5,4,3.4c-0.2,2-2.7,2-4.3,2.9
	c-1.5,0.9-6,0.4-3.6,3.3c2.1,2.6-0.7,10,6.8,7.7c1.2-0.4,2.6-1.4,3.2,0.6c0.5,1.6,0.2,3-1.5,3.7c-2.1,0.8-2.8,2.1-2.8,4.2
	c0.1,1.9-1,4.7,1.3,5.3c1.8,0.5,4.6,1.2,6.1-1.3c0.4-0.7,0.8-0.8,1.6-0.6c4.1,1.1,4,0.9,4.6,0c2.8-3.8,4.4-7.6-0.5-11
	c-1.2-0.9-3-1.5-4.5-1.9c-5.9-1.7-5-2-3.3-7.7c1-3.7,6.5-5.5,4.1-10.3c-0.1-0.3,0.9-1.4,1.6-1.7c3.8-1.8,6.1-5.9,10.5-7
	c0.4-0.1,1.2-0.8,1-1c-2.1-4.4,3-8.2,0.4-12.8c-2.6-4.4-2.5-8.5,3.1-11c1.7-0.7,3.1-2,2.7-4.7c-0.7-4.1,2.7-6.4,6.5-4.2
	c4.1,2.4,8.6,2.3,13,2.7c4.2,0.3,5.3-1.5,3.7-5.4c-0.6-1.2-1.6-2.5,0-3.5c1.5-0.9,2,0.4,2.5,1.4c0.7,1.1,1.5,1.2,2.5,0.7
	c1.1-0.6,2.3-0.5,2.5,0.6c2.2,8.4,11.2,4,15.8,8.2c0.8,0.7,5.7-0.4,6.1-4.2c0.2-1.7,0.5-3,2.6-2.6c1.2,0.2,2.5,0.2,2.5,1.8
	c0,1.4,0.1,3-1.8,3.6c-1.3,0.4-3.4,0.7-2.9,2.7c0.5,1.4,2.3,1.9,3.8,1.8c2.7-0.1,3.2,1.6,4.3,3.6c2.1,4.1,4.3,8.3,7.9,11.3
	c1.7,1.5,2.2,2.6,0.1,3.8c-2.2,1.2-2.6,3-3.1,5.3c-0.6,3.3-0.8,6.8-4.1,9.1c-1,0.7-2.4,2.4-1,3.9c2.6,2.6,1.7,7.5,6,9
	c1.2,0.3,1.5,1.7,0.5,3c-0.8,0.9-2,1.6-3,0.5c-5.4-5.6-7.8-4.8-9.4,3c-0.4,2-5.2,3.5-8.1,4.7c-2.8,1.2-4.5,2.7-3.4,5.9
	c0.2,0.6,0.4,1.5,0.1,2c-4,6.5,1,11.9,2.2,17.7c-0.4,2,0.5,4.2-1.2,5.8c-2.5-2.2-1.6-5.7-2.9-8.2c-0.6-1.3-0.9-3.1-2.8-3
	c-1.2,0.1-1.5,1.6-2,2.6c-0.7,1.7-0.4,2.4,1.6,3.2c2.2,0.9,4.7,13.8,3.2,15.7c-0.7,1-2.1,1.7-3.3,2c-7.8,1.9-15.6,3.8-24,3.3
	c-3.5-0.3-8.1-0.5-10.1,4.6c-1.1,2.8-5.1,2.3-7.5,4.2c-1.6,1.2-2.9,2.1-3.4,4c-0.8,3-3.1,4-5.2,2.1c-4.8-4.2-5.5,0-6.4,2.9
	c-0.9,3.3-0.7,6.8-6,5.2c-1.9-0.6-2.2,1.4-1.4,3c1.2,2.3,2.8,4.5,2,7.6c-2.4-1.3-3-3.5-3.8-5.5c-1.7-4.2-5.6-5.7-9.5-3.5
	c-0.9,0.5-1.2,0.9-0.8,1.8c2.1,5.1-1.9,5-4.9,4.9c-4.2-0.1-6.2,1.6-5.7,5.7c0.2,1.7,0.9,3.2,1.1,4.9c0.3,2.7,0.7,5.6-1.9,7.4
	s-5.5,1-7.9-0.7c-0.4-0.3-0.6-0.6-1-1c-0.3-0.2-0.7-0.7-0.9-0.7c-0.8,0.4-0.3,0.9-0.1,1.3c0.3,0.4,0.6,0.7,1,1
	c-0.8,4.9,0.7,9.5,2.1,14.1c0.4,1.1,0.9,2.4-0.7,3c-1.2,0.4-2.4,0.1-3-1.2C61.4,83.2,56.5,77,62,69c1.5-2.2-0.6-4.8-3.5-4.2
	c-3.6,0.7-8.1-0.8-11.1,3c-0.5,0.7-1.9,0.9-2.8,0.8c-3.1-0.3-4.1,1.3-4.1,4.5c-0.2-5.7-3.3-5.6-7.2-4.6c-2,0.5-4.5,1-6.5,0.4
	c-6.5-1.9-11.9,1.9-17.2,3.9c-3.9,1.4-6.5,6.5-8.9,10.5c-0.2,0.3-0.3,0.6-0.3,0.9c-3.1,9.9-3.2,10-13.3,8.8
	c-0.6-0.1-1.5-0.8-1.8-0.6c-4.7,4.4-8.1,1-11.5-1.8c-1.5-1.2-2.1,1.2-2.8,0.6c-2.2-1.5-6.8,0.7-7-4.4c0-1.6-1.3-4.3-2-4.6
	c-8.6-3.7-13.5-14-24.7-13.1c-6.4,0.5-10.7-4.4-11-10.8c-0.3-7.9-1.3-8.8-8.8-11.2C-86,46.3-89.7,46-93.1,44
	c-5.1-3-6.1-7.3-1.6-10.9c4.3-3.4,3.3-5.7,0.1-9c-6.4-6.8-7-7-15.3-2.2c-1.1,0.6-1.9,1.3-3.1,0.2c-2.2-2.2-3.5-9.1-1.6-11.9
	c0.8-1.3,1.1-2.5,0.7-3.8c-1-3.4-4-6.4-0.5-10.4c0.7-0.8-2.4-3.7-4.2-5.1c-6-4.8-6.1-11-4.9-17.8c0.5-2.9,3.3-5.6,0.3-8.7
	c-0.6-0.6-0.1-2.1,0.7-2c3.6,0.6,4.6-2.7,6.8-4.3c5.8-4.1,15.8-3.7,22.9,1.1c2.2,1.5,4.6,5.6,7.4,2.7c1.5-1.5,0-5.5-2-7.8
	c-0.5-0.6-1.4-1.2-0.8-2.1c0.6-0.7,1.7-0.8,2.2-0.1c1.4,1.7,5.4-2.7,5.2,2.4c0,0.8,0.3,2-0.6,2.1c-5.3,1.3-0.3,3.5-1.2,6
	c2-1.1,1.4-3.5,4.1-3.2c4.5,0.5,7.3-4.7,11.9-4.9c0.3,0,0.5-0.4,0.7-0.6c-4.7-3.2,2.4-4.5,1.2-7.5c-0.5-1.1-0.2-3.6,2.2-3.7
	c2.1-0.1,2.9,1.4,3.1,3.3c0.3,3,2,3.8,4.5,2.9c2.6-0.8,0.3-4.6,3.2-5.5c2.4-0.7,2.7,3.1,6,1.7c2.8-1.2,7,1.6,10.5-0.8
	c-0.3-2.3-3.6-3.5-2.4-6.4c1.3,0.1,2.5,0.1,3.9,0.2l0,0c-0.1,1.2-0.7,3.3-0.2,3.6C-31.8-57.4-30.4-58.5-29.2-59.8z"/>
<path class="st0" d="M256.7-77.5c2.7,0.9,6.8,0.7,6.9,5.6c0.1,3.9-5.9,8.2-10.5,7.8c-1.9-0.1-6.9-5.5-6.7-7.2
	C246.8-75.2,250.9-77.8,256.7-77.5z"/>
<path class="st0" d="M236.5-13.1C236-9.8,235-7.7,232-8.2c-2.7-0.5-6-1.1-5.4-5c0.4-2.7,2-5,5.4-4.6
	C235.2-17.5,236.5-15.5,236.5-13.1z"/>
<path class="st0" d="M9.8,190.7c-3.4-6.3-2.9-13.2-4.8-19.6c-0.5-1.8-0.7-4.8,1.6-5c2.1-0.1,2.5,2.6,2.1,4.7c-1,5,0.4,9.8,1.3,14.6
	C10.3,187,9.8,188.8,9.8,190.7z"/>
<path class="st0" d="M-81.2,120.9c1.4,3.1-0.5,15.2-2.5,17.1c-0.4,0.5-1.1,0.7-1.7,0.6c-0.8,0-1.1-0.8-0.9-1.5
	C-84.9,131.9-85,126-81.2,120.9z"/>
<path class="st0" d="M120.9,55.7c3.6,0.5,5.7,1.5,5.6,4.7c-0.1,2.4-1.3,3.8-3.8,3.6c-2.7-0.2-4.7-1.7-4.7-4.8
	C118,56.9,119.1,55.3,120.9,55.7z"/>
<path class="st0" d="M-33.2-61.9c-1.3-0.1-2.5-0.1-3.9-0.2c0-3-1.9-1.3-3.1-1.3c-1.8,0-4,0.5-4.5-1.8c-0.6-2.6,1.8-3.2,3.7-3.7
	c2-0.6,4.7-0.7,4.5,2C-36.6-64.1-33.9-63.8-33.2-61.9z"/>
<path class="st0" d="M169.2,9.5c1.7-1.7,0.9-3.9,1.2-5.8c1.1,1,1.7,0.7,2.6-0.4c1.1-1.4,2.7-1,4,0c0.8,0.7,1.4,1.9,1.1,3.1
	c-0.5,1.6-2.3,3-3.3,2.1C172.1,6.2,171.6,12.7,169.2,9.5z"/>
<path class="st0" d="M81.9,66.2c0.9-2,2.4-2.8,4.2-2.5c2,0.4,2.8,2.2,2.6,3.8c-0.3,2.2-2.4,2.6-4.3,2.3
	C82.1,69.6,82.8,67.3,81.9,66.2z"/>
<path class="st0" d="M41.6,122.1c1.7,5.8-0.2,9.9-2.4,13.8C39.8,131.7,37.8,127.1,41.6,122.1z"/>
<path class="st0" d="M40.6,105.4c-1.4-3.4-2-6.8,0.9-10.1C43.4,99.2,42.4,102.3,40.6,105.4z"/>
<path class="st0" d="M272.7-86.9c1.5,0.2,3.8,0.1,3.7,2.2c0,2.3-2.5,2.4-4.2,2.3c-1.6,0-3.7-0.3-3.5-2.5
	C268.9-86.9,271-86.8,272.7-86.9z"/>
<path class="st0" d="M-83.5-61c2,0.2,3.1,1.3,3,3.2c0,1.7-1.1,2.9-2.7,3c-1.8,0-3.2-1.1-3.2-3.1C-86.4-59.8-85.4-60.9-83.5-61z"/>
<path class="st0" d="M-63.8-66.7c-2-0.7-3-2.1-2.7-3.9c0.3-1.9,1.8-2.9,3.5-2.8c1.8,0.1,2.3,1.7,2.1,3.3
	C-61-68.2-62.2-67.1-63.8-66.7z"/>
<path class="st0" d="M219-57.8c0.3-1.8,1.7-2.7,3.2-2.3c1.8,0.3,2.7,1.8,2.4,3.7c-0.2,1.5-1.4,2.1-2.9,2
	C219.6-54.5,219.4-56.2,219-57.8z"/>
<path class="st0" d="M-87.7-81.9c1.1,0.8,2.4,1.3,2.2,3c-0.2,1.5-1,2.5-2.7,2.3c-1.4-0.2-2.7-0.9-2.6-2.4
	C-90.6-80.9-89.1-81.4-87.7-81.9z"/>
<path class="st0" d="M-112.6,35.9c1-1.8,2.4-2.9,4.4-2.8c1.2,0.1,2.5,0.9,2.2,2.1c-0.6,2.3-2.8,2.6-4.9,2.4
	C-111.8,37.5-112.9,37.3-112.6,35.9z"/>
<path class="st0" d="M201.8,15.7c0.2-1.5,1-2.5,2.6-2.2c2.2,0.3,1.8,2,1.7,3.5c0,1.3-0.5,2.4-2,2.1
	C202.5,18.7,201.6,17.5,201.8,15.7z"/>
<path class="st0" d="M58,84.8c1.3,0.1,1.9,1.1,1.7,2.4c-0.4,2-1.6,2.8-3.5,2.5c-1.3-0.2-2-1.1-1.3-2.4C55.6,86.1,55.8,84.3,58,84.8z
	"/>
<path class="st0" d="M167.4-96.6c-1.6,0-2.5-0.7-2.3-2.4c0.1-1.3,0.2-3,2-2.8c1.5,0.1,2.9,1.2,2.9,2.8
	C169.9-97.4,169-96.5,167.4-96.6z"/>
<path class="st0" d="M236.6-70c0.4-1.5,1.5-1.7,2.9-1.7c1.2,0.1,2.3,0.3,2.1,1.9s-1.1,2.3-2.6,2.2C237.7-67.6,236.5-68.1,236.6-70z"
	/>
<path class="st0" d="M196-53.6c0.1-1.2,0.3-2.5,1.5-2.3c1.5,0.2,2.5,1.4,2.4,3.1c0,1.1-0.8,1.8-2,1.8C196-51.1,196-52.5,196-53.6z"
	/>
<path class="st0" d="M184.3-6c0.3-1.1,1-1.6,2.1-1.5c1.3,0,2.3,0.8,2.4,1.9c0.2,1.5-1.2,2-2.3,1.9C185.3-3.9,184.5-4.8,184.3-6z"/>
<path class="st0" d="M-29.2-59.8c-1.1,1.3-2.5,2.4-4.1,1.5c-0.5-0.3,0-2.3,0.2-3.6C-31.9-61.2-30.5-60.5-29.2-59.8z"/>
<path class="st0" d="M66.7,72.6c0.4,0.3,0.6,0.6,1,1c-0.3,0.2-0.6,0.5-0.9,0.7c-0.3-0.4-0.6-0.7-1-1C66.1,73.1,66.4,72.9,66.7,72.6z
	"/>
<path class="st0" d="M65.8,73.4c-0.2-0.5-0.8-1,0.1-1.3c0.2-0.1,0.6,0.4,0.9,0.7C66.4,72.9,66.1,73.1,65.8,73.4z"/>
</svg>
