<?xml version="1.0" encoding="utf-8"?>
<!-- Generator: Adobe Illustrator 22.1.0, SVG Export Plug-In . SVG Version: 6.00 Build 0)  -->
<svg version="1.1" id="Layer_1" xmlns="http://www.w3.org/2000/svg" xmlns:xlink="http://www.w3.org/1999/xlink" x="0px" y="0px"
	 viewBox="0 0 672.9 216.8" style="enable-background:new 0 0 672.9 216.8;" xml:space="preserve">
<style type="text/css">
	.st0{fill:#EFE4DA;stroke:#5C5B4B;stroke-miterlimit:10;}
	.st1{fill:#FFF4EE;stroke:#5C5B4B;stroke-miterlimit:10;}
	.st2{fill:#FFF5EB;stroke:#5C5B4B;stroke-linecap:round;stroke-miterlimit:10;}
</style>
<g id="Layer_5">
</g>
<g id="Layer_3">
</g>
<g>
	<g id="XMLID_296_">
		<path id="XMLID_298_" class="st0" d="M168.3,50c0,0-5.3-30-30.5-19.4s-12.8,124.3-1.1,133.1C148.3,172.4,180.9,226.5,168.3,50z"/>
		<path id="XMLID_297_" class="st0" d="M161.8,114.5c0,0,42-41.5,33.5,36c0,0,10,24,29.5,14s22.5-133-71.5-98.5"/>
	</g>
	<g id="XMLID_267_">
		<path id="XMLID_269_" class="st1" d="M157.3,39c0,0-5.3-30-30.5-19.4s-12.8,124.3-1.1,133.1C137.3,161.4,169.9,215.5,157.3,39z"/>
		<path id="XMLID_268_" class="st1" d="M150.8,103.5c0,0,42-41.5,33.5,36c0,0,10,24,29.5,14s22.5-133-71.5-98.5"/>
	</g>
	<path id="XMLID_243_" class="st2" d="M145.2,148.2c0,0,1.5,3.2-0.9,4.6"/>
	<path id="XMLID_242_" class="st2" d="M142.1,79.2c0,0,0.4,3,0,4.2"/>
	<path id="XMLID_241_" class="st2" d="M121.9,116.7c0,0,1.3-5.5,0-5.5"/>
	<path id="XMLID_240_" class="st2" d="M128.9,29c0,0-4,1.9-5.1,3.9"/>
	<path id="XMLID_227_" class="st2" d="M209,140.1c0,0,1.9,3.9-1.1,5.7"/>
	<path id="XMLID_226_" class="st2" d="M185.4,68.6c0,0,6.3,0.9,5.7,1.9"/>
	<path id="XMLID_225_" class="st2" d="M129.2,61c0,0-4.9,2.4-6.3,4.7"/>
</g>
</svg>
