<?xml version="1.0" encoding="utf-8"?>
<!-- Generator: Adobe Illustrator 22.1.0, SVG Export Plug-In . SVG Version: 6.00 Build 0)  -->
<svg version="1.1" id="Layer_1" xmlns="http://www.w3.org/2000/svg" xmlns:xlink="http://www.w3.org/1999/xlink" x="0px" y="0px"
	 viewBox="0 0 297.5 201.6" style="enable-background:new 0 0 297.5 201.6;" xml:space="preserve">
<style type="text/css">
	.st0{opacity:0.1;enable-background:new    ;}
	.st1{fill:#231F20;stroke:#231F20;stroke-miterlimit:10;}
	.st2{fill:#FFD767;stroke:#584C4F;stroke-width:2;stroke-miterlimit:10;}
	.st3{fill:#FFFAF2;stroke:#584C4F;stroke-width:2;stroke-miterlimit:10;}
</style>
<g>
	<g class="st0">
		<g>
			<path class="st1" d="M297,94.9c-0.4-7.1-1.3-13.3-8.3-13.4c-1.6,0-7.9,0.1-9.3,0c-4.7-0.3-12.4,2.4-25.1,10
				c-30,18,3.4,33.3,3.4,33.3c6.7,5.4,12.7,7.1,17.4,6.5c1.1-0.1,6.6,0.1,8.3,0.1c10.7,0,15.4-11.1,5.8-18.8
				C275.5,101.9,297.7,106.9,297,94.9z"/>
			<g id="XMLID_44_">
				<path id="XMLID_45_" class="st1" d="M257.6,124.9c0,0-33.4-15.3-3.4-33.3s32-8.6,32.7,3.3s-21.4,7-7.9,17.8
					C292.6,123.5,277.8,141.2,257.6,124.9z"/>
			</g>
		</g>
		<line id="XMLID_43_" class="st1" x1="266.7" y1="126" x2="269.8" y2="127.4"/>
		<path id="XMLID_42_" class="st1" d="M285.9,126.7c0,0,4.7-0.7,5-1.6"/>
		<path id="XMLID_41_" class="st1" d="M278.7,107.2c0,0,2.4,0.2,2.9-0.6"/>
	</g>
	<g>
		<g>
			<path class="st2" d="M286.5,94.9c-0.4-7.1-1.3-13.3-8.3-13.4c-1.6,0-7.9,0.1-9.3,0c-4.7-0.3-12.4,2.4-25.1,10
				c-30,18,3.4,33.3,3.4,33.3c6.7,5.4,12.7,7.1,17.4,6.5c1.1-0.1,6.6,0.1,8.3,0.1c10.7,0,15.4-11.1,5.8-18.8
				C265,101.9,287.2,106.9,286.5,94.9z"/>
			<g id="XMLID_498_">
				<path id="XMLID_499_" class="st3" d="M247.1,124.9c0,0-33.4-15.3-3.4-33.3s32-8.6,32.7,3.3s-21.4,7-7.9,17.8
					C282.1,123.5,267.3,141.2,247.1,124.9z"/>
			</g>
		</g>
		<line id="XMLID_497_" class="st3" x1="256.2" y1="126" x2="259.3" y2="127.4"/>
		<path id="XMLID_496_" class="st3" d="M275.4,126.7c0,0,4.7-0.7,5-1.6"/>
		<path id="XMLID_495_" class="st3" d="M268.2,107.2c0,0,2.4,0.2,2.9-0.6"/>
	</g>
	<g>
		<path id="XMLID_494_" class="st3" d="M117.8,74.3c0,0-0.2,0.5,0.6,0.5c26.5,0.6,68.6,0,68.6,0c0.8-0.1,0.6-0.5,0.6-0.5
			c1.1-15,0-42.9,0-42.9s0.2-0.5-0.6-0.5c-41.1-1.1-69.1,0-69.1,0c-0.8,0.1-0.6,0.5-0.6,0.5S117.2,54.9,117.8,74.3z"/>
		<path id="XMLID_493_" class="st3" d="M125.6,39.5c0,0-0.2-1.2,0.8-1.3c0,0,17.4-1.4,38.8,0c1,0.1,0.8,1.3,0.8,1.3
			s0.2,15.7-0.4,26.7c0,0,0.2,1.2-0.8,1.3c0,0-16.6,1-38.1,0c-1,0-0.8-1.3-0.8-1.3L125.6,39.5z"/>
		<g>
			<path class="st3" d="M133.4,15.2c4.3,4.5,9.5,9.6,14.3,14.2c0.2-0.2,0.4-0.4,0.5-0.6C131.2,12.1,133.4,15.2,133.4,15.2z"/>
			<path class="st3" d="M162.4,14.6c-4.4,4.3-9.5,9.5-14.2,14.3c0.2,0.2,0.4,0.4,0.6,0.5C165.5,12.3,162.4,14.6,162.4,14.6z"/>
			<path class="st3" d="M148.2,28.9c-0.2,0.2-0.4,0.4-0.5,0.6c0.2,0.2,0.4,0.4,0.6,0.5c0.2-0.2,0.4-0.4,0.5-0.6
				C148.6,29.2,148.4,29,148.2,28.9z"/>
		</g>
	</g>
	<g>
		<g>
			<path class="st3" d="M85.3,127.2c0,0-0.8-1.6-2.5-1.5c0,0-68,0.1-69.9,0c-1.7-0.1-2.5,1.5-2.5,1.5s-0.1,38.4,0.8,40
				c0,0,0.8,1.6,2.5,1.5c0,0,10.3,0.1,22.9,0.2c0-0.1,0-0.2,0.1-0.3c0.3-0.3,11-10.9,11-10.9c0.2-0.3,0.8,0,0.8,0
				c1.3,1.1,10.7,11,10.7,11s0.1,0.2,0.1,0.4c11.3,0,20.8-0.1,22.8-0.3c1.7-0.2,2.5-1.5,2.5-1.5S85.8,131.6,85.3,127.2z"/>
			<path class="st3" d="M48.4,157.5c0,0-0.6-0.3-0.8,0c0,0-10.6,10.7-11,10.9c-0.1,0.1-0.1,0.2-0.1,0.3c7.3,0,15.4,0.1,22.7,0.1
				c0-0.2-0.1-0.4-0.1-0.4S49.7,158.7,48.4,157.5z"/>
		</g>
		<g>
			<path class="st3" d="M40.6,147.2c0-0.2,0-0.3,0-0.5c0-0.7,0-1.3-0.2-2s-0.4-1.5-0.7-2.3c0,0-0.1-0.1-0.2-0.2
				c-0.4-1.2-1-2.2-1.9-3c-0.8-0.9-1.8-1.6-2.9-2c-0.6-0.4-1.2-0.7-1.9-1c0,0-0.4,0-1.2,0c-0.8-0.3-1.5-0.4-2.3-0.3
				c-0.2,0-0.3,0-0.5,0c-0.7,0-1.3,0-2,0.2s-1.5,0.4-2.3,0.7c0,0-0.1,0.1-0.2,0.2c-1.2,0.4-2.2,1-3,1.9c-0.9,0.8-1.6,1.8-2,2.9
				c-0.4,0.6-0.7,1.2-1,1.9c0,0,0,0.4,0,1.2c-0.3,0.8-0.4,1.5-0.3,2.3c0,0.2,0,0.3,0,0.5c0,0.7,0,1.3,0.2,2s0.4,1.5,0.7,2.3
				c0,0,0.1,0.1,0.2,0.2c0.4,1.2,1,2.2,1.9,3c0.8,0.9,1.8,1.6,2.9,2c0.6,0.4,1.2,0.7,1.9,1c0,0,0.4,0,1.2,0c0.8,0.3,1.5,0.4,2.3,0.3
				c0.2,0,0.3,0,0.5,0c0.7,0,1.3,0,2-0.2c0.7-0.2,1.5-0.4,2.3-0.7c0,0,0.1-0.1,0.2-0.2c1.2-0.4,2.2-1,3-1.9c0.9-0.8,1.6-1.8,2-2.9
				c0.4-0.6,0.7-1.2,1-1.9c0,0,0-0.4,0-1.2C40.5,148.7,40.6,147.9,40.6,147.2z"/>
			<path class="st3" d="M78.2,147.2c0-0.2,0-0.3,0-0.5c0-0.7,0-1.3-0.2-2s-0.4-1.5-0.7-2.3c0,0-0.1-0.1-0.2-0.2
				c-0.4-1.2-1-2.2-1.9-3c-0.8-0.9-1.8-1.6-2.9-2c-0.6-0.4-1.2-0.7-1.9-1c0,0-0.4,0-1.2,0c-0.8-0.3-1.5-0.4-2.3-0.3
				c-0.2,0-0.3,0-0.5,0c-0.7,0-1.3,0-2,0.2c-0.7,0.2-1.5,0.4-2.3,0.7c0,0-0.1,0.1-0.2,0.2c-1.2,0.4-2.2,1-3,1.9
				c-0.9,0.8-1.6,1.8-2,2.9c-0.4,0.6-0.7,1.2-1,1.9c0,0,0,0.4,0,1.2c-0.3,0.8-0.4,1.5-0.3,2.3c0,0.2,0,0.3,0,0.5c0,0.7,0,1.3,0.2,2
				s0.4,1.5,0.7,2.3c0,0,0.1,0.1,0.2,0.2c0.4,1.2,1,2.2,1.9,3c0.8,0.9,1.8,1.6,2.9,2c0.6,0.4,1.2,0.7,1.9,1c0,0,0.4,0,1.2,0
				c0.8,0.3,1.5,0.4,2.3,0.3c0.2,0,0.3,0,0.5,0c0.7,0,1.3,0,2-0.2s1.5-0.4,2.3-0.7c0,0,0.1-0.1,0.2-0.2c1.2-0.4,2.2-1,3-1.9
				c0.9-0.8,1.6-1.8,2-2.9c0.4-0.6,0.7-1.2,1-1.9c0,0,0-0.4,0-1.2C78.1,148.7,78.2,147.9,78.2,147.2z"/>
		</g>
	</g>
	<g>
		<path id="XMLID_492_" class="st3" d="M24.9,11.8c0,0-0.5-0.3-0.5,0.6c-0.6,28.1,0,72.8,0,72.8c0.1,0.9,0.5,0.6,0.5,0.6
			c15.9,1.1,45.5,0,45.5,0s0.5,0.3,0.5-0.6c1.2-43.6,0-73.3,0-73.3c-0.1-0.9-0.5-0.6-0.5-0.6S45.6,11.2,24.9,11.8z"/>
		<path id="XMLID_491_" class="st3" d="M61.9,20.1c0,0,1.3-0.2,1.3,0.9c0,0,1.5,18.5,0,41.2c-0.1,1.1-1.3,0.9-1.3,0.9
			s-16.7,0.2-28.3-0.4c0,0-1.3,0.2-1.3-0.9c0,0-1-17.6,0-40.4c0-1.1,1.3-0.9,1.3-0.9L61.9,20.1z"/>
		<path id="XMLID_490_" class="st3" d="M51,69.6c0,0-7.4-2.7-9.4,4.2s4.2,8.4,5,8.3s8.1-0.6,7.5-5.3S52.4,70.4,51,69.6z"/>
	</g>
	<g>
		<path class="st3" d="M170.4,178.9c-1.8-10-4.6-14.3-8-16.3c0,0-20.6-7.7-26.3,11.8c-0.5,1.6-0.8,3.1-0.9,4.4h35.2V178.9z"/>
		<path class="st3" d="M185.3,116.9c0,0,0.2-0.7-0.5-0.7c-38.4-1.6-64.5,0-64.5,0c-0.8,0.1-0.5,0.7-0.5,0.7s0,21.8,0.2,44.6h65.7
			L185.3,116.9z"/>
		<path class="st3" d="M120.7,172.3c24.7,0.5,64.1,0,64.1,0c0.8-0.1,0.5-0.5,0.5-0.5c0.1-2,0.2-4.3,0.3-6.7v-3.9h-65.7
			c0.1,3.6,0.1,7.2,0.2,10.6C120.1,171.8,119.9,172.2,120.7,172.3z"/>
		<path class="st3" d="M176.9,124.1c0,0,0.2-0.4-0.4-0.5c-28.2-1-47.3,0-47.3,0c-0.6,0.1-0.4,0.5-0.4,0.5s0,14.3,0.2,29.3h48.2
			L176.9,124.1z"/>
	</g>
	<g>
		<path class="st2" d="M103.5,109.7c0,0,0.3-7.1-0.1-12.6c0.7-12.4,0.6-55.5,0.1-77.4c0,0,1-24.4-3.4-17.5c-1.7,2.7-2.3,12.3-2.4,23
			c0,10.7-0.3,44.7,0.2,66.6c0,0-0.3,7.1,0.1,12.6c-0.7,12.4-0.6,55.5-0.1,77.4c0,0-1,24.4,3.4,17.5c1.5-2.3,2.2-10.1,2.3-19.1
			C103.8,168.5,103.9,131.6,103.5,109.7z"/>
		<path class="st2" d="M109.7,97.9c0,0-7.1-0.3-12.6,0.1c-12.4-0.7-55.5-0.6-77.4-0.1c0,0-24.4-1-17.5,3.4c2.7,1.7,12.3,2.3,23,2.4
			c10.7,0,44.7,0.3,66.6-0.2c0,0,7.1,0.3,12.6-0.1c12.4,0.7,55.5,0.6,77.4,0.1c0,0,24.4,1,17.5-3.4c-2.3-1.5-10.1-2.2-19.1-2.3
			C168.5,97.5,131.6,97.4,109.7,97.9z"/>
	</g>
</g>
</svg>
