<?xml version="1.0" encoding="utf-8"?>
<!-- Generator: Adobe Illustrator 22.1.0, SVG Export Plug-In . SVG Version: 6.00 Build 0)  -->
<svg version="1.1" id="Layer_1" xmlns="http://www.w3.org/2000/svg" xmlns:xlink="http://www.w3.org/1999/xlink" x="0px" y="0px"
	 viewBox="0 0 401 401" style="enable-background:new 0 0 401 401;" xml:space="preserve">
<style type="text/css">
	.st0{fill:#FCF4E9;stroke:#221F1F;stroke-miterlimit:10;}
	.st1{fill:#FFFFFF;stroke:#221F1F;stroke-miterlimit:10;}
	.st2{fill:#082D30;stroke:#082D30;stroke-linecap:round;stroke-miterlimit:10;}
</style>
<path class="st0" d="M209.3,125c8.9-3.1,13.2,4.4,14.9,8.7c0.6,1.6,0.8,4.6-0.1,6.9c-0.2,0.4-0.6,2.4-0.6,3
	c0.1,7.7,1.4,14.6,3.6,20.9c1,2.9,3.2,7,5.2,10.4c1.8,3.1,5.3,6.8,6.1,7.6c2.3,2.4,3.7,5.6,4.3,7.5c0.3,0.9,0.5,1.5,0.5,1.5
	s-0.8,12.1-13.3,12.2c-1.2,0-2.3-0.2-3.3-0.5c-3.4-1.1-5.7-3.9-6.8-7.2c-0.2-0.7-9-15.9-12-24.3c-1.2-3.4-2.2-7-3-10.7
	c-1.1-5-1.7-10.3-1.9-15.9c0-0.5-0.6-2.6-0.9-3.2c-1.7-4.3-1.2-9.7,1.9-13.4"/>
<path class="st0" d="M228.8,117.1c-11.2-6.8-64.4,37.2-47.5,57.1c9.8,11.6,52.6-1,67.2-5.8c3.1-1,7.5-7.7,7.5-15.7
	c0-9-3.1-20.6-16.6-28.8"/>
<g id="XMLID_2207_">
	<g id="XMLID_2209_">
		<path id="XMLID_2213_" class="st0" d="M107.6,222.8c0,0-1.7-9.8-10-6.4c-8.3,3.4-4.2,40.7-0.4,43.6
			C101.1,262.9,111.8,280.6,107.6,222.8z"/>
		<path id="XMLID_2212_" class="st0" d="M105.7,244.1c0,0,11-10.8,11.9,4c0.1,2.2,3.1,16.7,9.8,13.2c6.7-3.4,7.7-45.8-24.6-33.9"/>
	</g>
	<path id="XMLID_2208_" class="st0" d="M115.7,237.8c0.4,10.3,2.4,20.8,4.4,22.2c3.8,2.9,14.5,20.6,10.4-37.2c0,0-1.7-9.8-10-6.4
		c-2.8,1.2-4.2,6.2-4.6,12.5"/>
</g>
<g id="XMLID_2202_">
	<path id="XMLID_2206_" class="st0" d="M207,265.5c-21.2-14.9-8.1-36.5-8.1-36.5c2-4.2,23.9-15.8,30.3-9.1l0,0
		c6.4,6.7,1.6,11.9-1.2,15c-2.2,2.4-6.8,1.9-8.8,1.6c-0.6-0.1-0.9-0.2-0.9-0.2c-4-0.6-7.7,0.9-6.8,5.6c0,0,0.2,3.7,1.6,6.5l0,0
		c0,0,1,2.6,3,3.3c0.8,0.3,1.7,0.3,2.7-0.2c0.1,0,0.1-0.1,0.2-0.1c0.5-0.2,1.1-0.4,1.7-0.6c4.4-1.4,12-1.8,13.4,4.2
		c1.7,7,0.1,7.7-0.8,9.1c0,0,0,0,0,0c-0.9,1.4-3.7,2.4-3.7,2.4l0,0C222.7,270.3,214.5,270.8,207,265.5z"/>
	<path id="XMLID_2203_" class="st0" d="M220.5,256.4c0,0-6.9-5.1,0.6-9.7c7.5-4.6,10.3,5.9,10.3,5.9"/>
</g>
<g id="XMLID_2197_">
	<path id="XMLID_2201_" class="st0" d="M42.2,237.6c0,0-1.4,28.1,7.7,22.4c9.1-5.7,3.2-44.9-1-46.9S42.2,237.6,42.2,237.6z"/>
	<path id="XMLID_2198_" class="st0" d="M52,246.1c0.6,0.3,1.3,0.5,2,0.7c19.5,6,35.2-20.2,19.2-31.5c-16-11.3-28.5,2.9-28.5,2.9
		s-5.8,12.7-0.4,21.6 M63.3,234.5c-11.1,7-12-17.3-2.5-12.1C60.8,222.3,74.4,227.4,63.3,234.5z"/>
</g>
<g id="XMLID_2194_">
	<path id="XMLID_2196_" class="st0" d="M174.3,257.8c0,0,1.6,9.9,9.3,6.4s3.9-41.1,0.3-44.1C180.4,217.2,170.4,199.3,174.3,257.8z"
		/>
	<path id="XMLID_2195_" class="st0" d="M175.2,239.7c0,0-15.2,19.4-12.1-16.8c0,0-3.6-11.2-10.7-6.5c-7,4.7-8.1,62,25.8,45.9"/>
</g>
<g>
	<g id="XMLID_2219_">
		<g id="XMLID_2221_">
			<path id="XMLID_2222_" class="st0" d="M359.6,241.5c0,0,2.7-14.1-9.2-10.1s-4.7,35,1.6,33.7C358.2,263.7,361.2,258.7,359.6,241.5
				z"/>
		</g>
		<path id="XMLID_2220_" class="st1" d="M353.1,212.1c0,0,13.4,7.7,0.2,13.4S344.1,205,353.1,212.1z"/>
	</g>
	<g id="XMLID_2215_">
		<path id="XMLID_2218_" class="st0" d="M292.4,253.9c0,0-5.6,7.8,1.8,10.5s30.4-25.2,30-29.6C323.8,230.5,329.4,211.9,292.4,253.9z
			"/>
		<path id="XMLID_2217_" class="st0" d="M306.6,239.5c-4.4-0.1-8.1-0.4-8.8-0.3c-2.1,0.4-4.6-0.2-5.8-4.8c-1.5-5.9,3.3-7.5,6.3-7.9
			c1.3-0.2,4.4-0.5,7.3-0.7c9.4-0.9,28-1.3,18.7,10.9c-0.5,0.7-1.5,1.3-2.7,1.7c0,0-3.3,1.3-4.9,1.2"/>
		<path id="XMLID_2216_" class="st0" d="M312.8,250.8c8.5,0.2,16.5,2.4,9.7,11.3c-3.6,4.7-24.7,2.3-26.5,2.6
			c-2.1,0.4-4.6-0.2-5.8-4.8c-1.3-5,1.9-6.9,4.8-7.6l5-0.4"/>
	</g>
</g>
<g id="XMLID_2079_">
	<g id="XMLID_2182_">
		<path id="XMLID_2188_" class="st2" d="M264.7,232.6"/>
		<path id="XMLID_2184_" class="st0" d="M275.4,230.1c-16.9-12.4-30.2,3.2-30.2,3.2s-10.9,24.9,9.8,31.5
			C275.7,271.3,292.3,242.5,275.4,230.1z M267.7,242.6c5.9,13.2-20.3,9.5-13.4,0.4C254.3,243,261.8,229.5,267.7,242.6z"/>
		<path id="XMLID_2183_" class="st0" d="M268.7,228.5"/>
	</g>
	<path id="XMLID_2080_" class="st0" d="M267.9,259.4c0,0,1.5,10.1,10.5,4.8c9-5.3-0.5-14.1-0.5-14.1"/>
</g>
</svg>
