<?xml version="1.0" encoding="utf-8"?>
<!-- Generator: Adobe Illustrator 22.1.0, SVG Export Plug-In . SVG Version: 6.00 Build 0)  -->
<svg version="1.1" id="Layer_1" xmlns="http://www.w3.org/2000/svg" xmlns:xlink="http://www.w3.org/1999/xlink" x="0px" y="0px"
	 viewBox="0 0 401 401" style="enable-background:new 0 0 401 401;" xml:space="preserve">
<style type="text/css">
	.st0{fill:#C5C081;stroke:#5C5B4B;stroke-linecap:round;stroke-linejoin:round;stroke-miterlimit:10;}
	.st1{fill:#ABBC8B;stroke:#5C5B4B;stroke-linecap:round;stroke-linejoin:round;stroke-miterlimit:10;}
	.st2{fill:#D2C17F;stroke:#5C5B4B;stroke-linecap:round;stroke-linejoin:round;stroke-miterlimit:10;}
	.st3{fill:none;stroke:#5C5B4B;stroke-linecap:round;stroke-linejoin:round;stroke-miterlimit:10;}
	.st4{fill:#EBC576;stroke:#5C5B4B;stroke-linecap:round;stroke-linejoin:round;stroke-miterlimit:10;}
	.st5{fill:#DFC37A;stroke:#5C5B4B;stroke-linecap:round;stroke-linejoin:round;stroke-miterlimit:10;}
	.st6{fill:none;stroke:#5C5B4B;stroke-linecap:round;stroke-miterlimit:10;}
	.st7{fill:#B8BE87;stroke:#5C5B4B;stroke-linecap:round;stroke-linejoin:round;stroke-miterlimit:10;}
	.st8{fill:#80B697;stroke:#5C5B4B;stroke-linecap:round;stroke-linejoin:round;stroke-miterlimit:10;}
	.st9{fill:#8EB894;stroke:#5C5B4B;stroke-linecap:round;stroke-linejoin:round;stroke-miterlimit:10;}
	.st10{fill:#71B49A;stroke:#5C5B4B;stroke-linecap:round;stroke-linejoin:round;stroke-miterlimit:10;}
	.st11{fill:#9DBA8F;stroke:#5C5B4B;stroke-linecap:round;stroke-linejoin:round;stroke-miterlimit:10;}
	.st12{fill:#FFF6EB;stroke:#5C5B4B;stroke-linecap:round;stroke-miterlimit:10;}
	.st13{fill:#FFFFFF;stroke:#5C5B4B;stroke-linecap:round;stroke-miterlimit:10;}
	.st14{fill:#5C5B4B;stroke:#5C5B4B;stroke-linecap:round;stroke-miterlimit:10;}
</style>
<g id="XMLID_9065_">
	<g id="XMLID_9137_">
		<g id="XMLID_9139_">
			<path id="XMLID_9144_" class="st0" d="M216.2,203.5"/>
			<path id="XMLID_9141_" class="st0" d="M228.5,200.7c-19.6-14.4-34.9,3.6-34.9,3.6s-12.6,28.8,11.4,36.4
				C228.9,248.4,248.1,215.1,228.5,200.7z M219.6,215.2c6.8,15.2-23.4,10.9-15.4,0.4C204.2,215.6,212.9,200,219.6,215.2z"/>
			<path id="XMLID_9140_" class="st0" d="M220.8,198.9"/>
		</g>
		<path id="XMLID_9138_" class="st0" d="M219.9,234.6c0,0,1.7,11.6,12.1,5.5s-0.6-16.3-0.6-16.3"/>
	</g>
	<g id="XMLID_9118_">
		<g id="XMLID_9128_">
			<g id="XMLID_9133_">
				<path id="XMLID_9136_" class="st1" d="M143.4,232.5"/>
				<path id="XMLID_9135_" class="st1" d="M158.8,231.6c-0.1-6.6-0.5-15.6,2.1-17.6c3.4-2.6,14.2-1.6,12.7,5.2
					c-0.9,4-1,8.6-0.9,11.6c0.1,2.1,0.1,3.9,0.1,4.6c0,1.8,0.8,5.4,6.8,6c7.9,0.9,8.9-1.6,8.9-7.3c0-5.6,6.4-32.4-16.4-37.2
					c-16-3.3-24.5,5.8-28.1,13.2"/>
				<path id="XMLID_9134_" class="st1" d="M159.6,212.9"/>
			</g>
			<g id="XMLID_9129_">
				<path id="XMLID_9132_" class="st1" d="M114.1,232.5c0.9,4.7,15.4,1.1,15.4-0.9c-0.1-6.6-0.5-15.6,2.1-17.6
					c2.7-2.1,10.4-1.9,12.4,2.1c0.4,0.9,0.6,1.9,0.3,3.2c-0.9,4-1,8.6-0.9,11.6c0.1,2.1,0.1,3.9,0.1,4.6c0,1.8,0.8,5.4,6.8,6
					c7.9,0.9,8.9-1.6,8.9-7.3c0-5.6,6.4-32.4-16.4-37.2c-22.9-4.8-30.3,15.9-30.3,20.9C112.4,220.4,113,226.9,114.1,232.5"/>
				<path id="XMLID_9131_" class="st1" d="M130.3,212.9"/>
				<path id="XMLID_9130_" class="st1" d="M130.3,212.9c0.4,9.2-0.1,19.9-1.2,23.9c0,0-4.3,7.8-11,4.1c-6.7-3.6-7.2-41-3.1-42.7
					s12.2-5.3,14.1,3.2"/>
			</g>
		</g>
		<g id="XMLID_9124_">
			<path id="XMLID_9127_" class="st1" d="M143.4,232.5"/>
			<path id="XMLID_9126_" class="st1" d="M159.6,216.2c0.3-1,0.7-1.8,1.2-2.1c3.4-2.6,14.2-1.6,12.7,5.2c-0.9,4-1,8.6-0.9,11.6
				c0.1,2.1,0.1,3.9,0.1,4.6c0,1.8,0.8,5.4,6.8,6c7.9,0.9,8.9-1.6,8.9-7.3s6.4-32.4-16.4-37.2c-9.1-1.9-15.8,0.2-20.4,3.8"/>
			<path id="XMLID_9125_" class="st1" d="M159.6,212.9"/>
		</g>
		<g id="XMLID_9119_">
			<path id="XMLID_9123_" class="st1" d="M154.2,203.1c-2.6-2.8-6.2-5.1-11.5-6.1"/>
			<path id="XMLID_9122_" class="st1" d="M154.2,203.1"/>
			<path id="XMLID_9121_" class="st1" d="M130.3,212.9"/>
			<path id="XMLID_9120_" class="st1" d="M130.3,212.9c0.4,9.2-0.1,19.9-1.2,23.9c0,0-4.3,7.8-11,4.1c-6.7-3.6-7.2-41-3.1-42.7
				s12.2-5.3,14.1,3.2"/>
		</g>
	</g>
	<g id="XMLID_9105_">
		<path id="XMLID_9117_" class="st2" d="M254.5,206.7c0,0-0.9-16.1-11.8-11.3c-10.9,4.8-4.8,50.3,22.9,43.7
			c27.6-6.6,16.4-42.3,16.4-42.3s-11.5-10.2-13.5,7.4c0,0-0.6,11.9-6,12.8C257.1,217.9,254,209.6,254.5,206.7z"/>
		<path id="XMLID_9116_" class="st2" d="M268.3,233.3c0,0,2.6,19.2-8.1,22.1c-10.6,2.9-9.4,14.9,2.5,14.2
			c11.9-0.7,24.1-10.1,19-65.2"/>
		<line id="XMLID_9115_" class="st3" x1="247" y1="198.6" x2="248.3" y2="199.2"/>
		<path id="XMLID_9114_" class="st2" d="M266.2,218.4c0,0,0.6,1.1-0.4,1.6"/>
		<path id="XMLID_9113_" class="st2" d="M273.1,227.6c0,0-0.2,1-0.5,1.4"/>
		<path id="XMLID_9112_" class="st2" d="M277.2,214.9c0,0,2.1-0.3,2.2-0.7"/>
		<line id="XMLID_9111_" class="st3" x1="275.2" y1="199.8" x2="276.6" y2="199.4"/>
		<line id="XMLID_9110_" class="st3" x1="250.5" y1="233.4" x2="251.8" y2="234"/>
		<path id="XMLID_9109_" class="st2" d="M256.9,261.3c0,0,0.6,1.1-0.4,1.6"/>
		<path id="XMLID_9108_" class="st2" d="M279.9,235.7c0,0-0.2,1-0.5,1.4"/>
		<path id="XMLID_9107_" class="st2" d="M267.9,257.7c0,0,2.1-0.3,2.2-0.7"/>
		<line id="XMLID_9106_" class="st3" x1="260.3" y1="232.1" x2="261.8" y2="231.7"/>
	</g>
	<g id="XMLID_9097_">
		<path id="XMLID_9104_" class="st4" d="M361.4,202.4c0,0-4-2.8-5.8-0.6c-1.8,2.2-4.8,6-1.2,13.4c3.6,7.4,17,1.3,18.3-2.2"/>
		<path id="XMLID_9103_" class="st4" d="M376.4,208.8L376.4,208.8c-2.5-6.6-7.9-11.8-16.1-12.6c-16.5-1.7-23.3,9-25.9,15.5
			c0,0-0.6,0.9-1,2.9c-0.4,1.1-0.4,2.1-0.4,2.6c-0.2,3.6,0.4,8.9,3.7,15.9c2.7,5.7,9.6,7.8,14.2,8.5c1.3,0.3,2.7,0.4,4.2,0.4
			c0.1,0,0.1,0,0.1,0l0,0c1.6-0.1,3.3-0.2,5.1-0.6c7.2-1.6,12.2-6.3,15-11.9c-0.5-6.6-6.1-7.4-9.5-7.9c-1.9-0.2-3.8,0.9-5.2,2.1
			c-0.1,0.1-0.3,0.2-0.5,0.4c-4.9,3.6-17.7-3.4-11-8.8c0,0,2.3-2.4,5-3.6l0,0c0,0,2.2-1.1,4-0.5c0.7,0.2,1.4,0.8,1.8,1.8
			c0,0.1,0,0.1,0,0.1c0.2,0.4,0.5,0.9,0.8,1.4c2.2,3.6,7.1,8.4,11.8,5.1c5.3-3.8,4.6-5.2,4.9-6.8l0,0
			C377.7,211.2,376.4,208.8,376.4,208.8z"/>
		<line id="XMLID_9102_" class="st3" x1="356.3" y1="203" x2="357.7" y2="203.6"/>
		<path id="XMLID_9101_" class="st4" d="M345.1,216.7c0,0,0.5,1.1-0.4,1.6"/>
		<path id="XMLID_9100_" class="st4" d="M364.2,229.6c0,0-0.2,1-0.5,1.4"/>
		<path id="XMLID_9099_" class="st4" d="M368.2,216.8c0,0,2.1-0.3,2.2-0.7"/>
		<line id="XMLID_9098_" class="st3" x1="366.2" y1="201.7" x2="367.6" y2="201.4"/>
	</g>
	<g id="XMLID_9094_">
		<path id="XMLID_9096_" class="st5" d="M323.8,199.8c16.9,16.2,2.2,33.8,2.2,33.8c-2.3,3.5-23.5,10.9-28.2,3.9l0,0
			c-4.8-6.9,0.2-10.9,3.1-13.2c2.2-1.8,6.4-0.8,8-0.2c0.5,0.1,0.8,0.3,0.8,0.3c3.5,1.1,7,0.3,6.8-4.1c0,0,0.4-3.3-0.5-6.1l0,0
			c0,0-0.6-2.4-2.2-3.4c-0.6-0.4-1.5-0.5-2.5-0.2c0,0-0.1,0.1-0.1,0.1c-0.5,0.1-1,0.2-1.6,0.4c-4.1,0.6-10.9-0.1-11.4-5.6
			c-0.5-6.4,1-6.9,2-8.1l0,0c1-1.1,3.6-1.6,3.6-1.6l0,0C310.5,193.3,317.8,194.1,323.8,199.8z"/>
		<path id="XMLID_9095_" class="st5" d="M307.4,207.4c-0.1,6.8-0.5,14.9-1.2,24.5c0,0-2.4,13.8-14,8.9s-5.9-57.1-0.5-61.1
			c4.4-3.3,15-20.3,15.8,16.9"/>
	</g>
	<line id="XMLID_9093_" class="st6" x1="291.7" y1="185.4" x2="293.1" y2="186"/>
	<path id="XMLID_9092_" class="st6" d="M292.7,202.8c0,0,0.5,1.1-0.4,1.6"/>
	<path id="XMLID_9091_" class="st6" d="M299.6,212c0,0-0.2,1-0.5,1.4"/>
	<path id="XMLID_9090_" class="st6" d="M303.6,199.2c0,0,2.1-0.3,2.2-0.7"/>
	<line id="XMLID_9089_" class="st6" x1="301.6" y1="184.2" x2="303" y2="183.8"/>
	<line id="XMLID_9088_" class="st6" x1="310.9" y1="203.7" x2="312.2" y2="204.3"/>
	<path id="XMLID_9087_" class="st6" d="M299.4,234c0,0,0.5,1.1-0.4,1.6"/>
	<path id="XMLID_9086_" class="st6" d="M318.7,230.3c0,0-0.2,1-0.5,1.4"/>
	<path id="XMLID_9085_" class="st6" d="M322.8,217.5c0,0,2.1-0.3,2.2-0.7"/>
	<line id="XMLID_9084_" class="st6" x1="320.7" y1="202.4" x2="322.2" y2="202"/>
	<g id="XMLID_9075_">
		<line id="XMLID_9083_" class="st6" x1="199.7" y1="203.9" x2="201" y2="204.5"/>
		<path id="XMLID_9082_" class="st6" d="M198,233.5c0,0,0.5,1.1-0.3,1.6"/>
		<path id="XMLID_9081_" class="st6" d="M235.9,234.3c0,0-0.2,0.9-0.5,1.3"/>
		<path id="XMLID_9080_" class="st6" d="M229.8,211.1c0,0,1.7,0.2,1.6,0.6"/>
		<path id="XMLID_9079_" class="st6" d="M226.6,235.8c0,0,2-0.3,2.1-0.6"/>
		<path id="XMLID_9078_" class="st6" d="M223.3,200.7c0,0-1.3,0.6-1.7,1.2"/>
		<line id="XMLID_9077_" class="st6" x1="209.2" y1="202.7" x2="210.5" y2="202.3"/>
		<path id="XMLID_9076_" class="st6" d="M219.6,197.2c0,0,1.2,0.1,1.2,1"/>
	</g>
	<g id="XMLID_9066_">
		<line id="XMLID_9074_" class="st6" x1="156.7" y1="207.4" x2="158" y2="208"/>
		<path id="XMLID_9073_" class="st6" d="M154.9,237c0,0,0.5,1.1-0.3,1.6"/>
		<path id="XMLID_9072_" class="st6" d="M122,237.2c0,0-0.2,0.9-0.5,1.3"/>
		<path id="XMLID_9071_" class="st6" d="M136.9,206.8c0,0,1.7,0.2,1.6,0.6"/>
		<path id="XMLID_9070_" class="st6" d="M183.5,239.3c0,0,2-0.3,2.1-0.6"/>
		<path id="XMLID_9069_" class="st6" d="M130.4,196.5c0,0-1.3,0.6-1.7,1.2"/>
		<line id="XMLID_9068_" class="st6" x1="116.2" y1="198.4" x2="117.6" y2="198"/>
		<path id="XMLID_9067_" class="st6" d="M176.5,200.7c0,0,1.2,0.1,1.2,1"/>
	</g>
</g>
<g id="XMLID_9057_">
	<path id="XMLID_9064_" class="st7" d="M360.1,151.4c0,0-4.5-3.1-6.4-0.7c-1.9,2.4-5.2,6.6-1.3,14.6c3.9,8.1,18.5,1.4,19.9-2.3"/>
	<path id="XMLID_9063_" class="st7" d="M376.4,158.3L376.4,158.3c-2.7-7.2-8.6-12.8-17.6-13.8c-18-1.8-25.4,9.9-28.2,16.9
		c0,0-0.6,1.1-1.1,3.2c-0.4,1.2-0.5,2.3-0.4,2.8c-0.2,3.9,0.4,9.6,4,17.3c3,6.2,10.5,8.4,15.5,9.2c1.4,0.3,3,0.4,4.5,0.4
		c0.1,0,0.1,0,0.1,0l0,0c1.8-0.1,3.6-0.2,5.6-0.7c7.9-1.8,13.3-6.8,16.4-13.1c-0.5-7.1-6.6-8.1-10.4-8.6c-2-0.3-4.1,0.9-5.6,2.2
		c-0.1,0.1-0.4,0.3-0.5,0.4c-5.3,3.9-19.2-3.8-12-9.6c0,0,2.5-2.6,5.4-3.8l0,0c0,0,2.5-1.2,4.4-0.6c0.8,0.2,1.5,0.8,1.9,1.9
		c0,0.1,0,0.1,0.1,0.2c0.2,0.5,0.5,1,0.9,1.6c2.4,3.9,7.8,9.1,12.8,5.5c5.8-4.1,5.1-5.8,5.4-7.3l0,0
		C377.9,160.9,376.4,158.3,376.4,158.3z"/>
	<line id="XMLID_9062_" class="st3" x1="359.5" y1="150.9" x2="360.9" y2="151.5"/>
	<path id="XMLID_9061_" class="st7" d="M357,185.7c0,0,0.5,1.1-0.4,1.6"/>
	<path id="XMLID_9060_" class="st7" d="M340.6,165.2c0,0-0.2,1-0.5,1.4"/>
	<path id="XMLID_9059_" class="st7" d="M368,182.1c0,0,2.1-0.3,2.2-0.7"/>
	<line id="XMLID_9058_" class="st3" x1="366" y1="167" x2="367.4" y2="166.6"/>
</g>
<g id="XMLID_9041_">
	<g id="XMLID_9051_">
		<path id="XMLID_9056_" class="st8" d="M223,152.6"/>
		<path id="XMLID_9053_" class="st8" d="M236.4,149.5c-21.4-15.6-38,4-38,4s-13.6,31.4,12.4,39.6
			C236.8,201.4,257.7,165.2,236.4,149.5z M226.7,165.3c7.4,16.6-25.6,11.9-16.9,0.5C209.9,165.8,219.3,148.7,226.7,165.3z"/>
		<path id="XMLID_9052_" class="st8" d="M228,147.5"/>
	</g>
	<path id="XMLID_9050_" class="st8" d="M227,186.4c0,0,1.9,12.7,13.2,6s-0.6-17.8-0.6-17.8"/>
	<line id="XMLID_9049_" class="st3" x1="204" y1="153.9" x2="205.4" y2="154.5"/>
	<path id="XMLID_9048_" class="st8" d="M202.2,184.9c0,0,0.6,1.1-0.4,1.6"/>
	<path id="XMLID_9047_" class="st8" d="M241.9,185.8c0,0-0.2,1-0.6,1.4"/>
	<path id="XMLID_9046_" class="st8" d="M235.5,161.5c0,0,1.8,0.2,1.6,0.6"/>
	<path id="XMLID_9045_" class="st8" d="M232.1,187.3c0,0,2.1-0.3,2.2-0.7"/>
	<path id="XMLID_9044_" class="st8" d="M228.7,150.6c0,0-1.4,0.7-1.8,1.3"/>
	<line id="XMLID_9043_" class="st3" x1="213.9" y1="152.6" x2="215.3" y2="152.3"/>
	<path id="XMLID_9042_" class="st8" d="M224.8,146.9c0,0,1.2,0.1,1.3,1"/>
</g>
<g id="XMLID_9020_">
	<g id="XMLID_9027_">
		<path id="XMLID_9028_" class="st9" d="M265.7,164.7c0,0,3.4-17.8-11.6-12.8c-15.1,5.1-5.9,44,2,42.4
			C264,192.6,267.7,186.4,265.7,164.7z"/>
	</g>
	<g id="XMLID_9021_">
		<line id="XMLID_9026_" class="st3" x1="250.4" y1="159.2" x2="251.8" y2="159.8"/>
		<path id="XMLID_9025_" class="st9" d="M251.4,176.6c0,0,0.6,1.1-0.4,1.6"/>
		<path id="XMLID_9024_" class="st9" d="M258.3,185.8c0,0-0.2,1-0.6,1.4"/>
		<path id="XMLID_9023_" class="st9" d="M262.3,173c0,0,2.1-0.3,2.2-0.7"/>
		<line id="XMLID_9022_" class="st3" x1="260.3" y1="157.9" x2="261.8" y2="157.5"/>
	</g>
</g>
<g id="XMLID_8993_">
	<g id="XMLID_9011_">
		<g id="XMLID_9016_">
			<path id="XMLID_9019_" class="st10" d="M143.7,184.1"/>
			<path id="XMLID_9018_" class="st10" d="M160.4,183.1c-0.1-7.2-0.6-17,2.2-19.1c3.6-2.8,15.4-1.8,13.9,5.8
				c-0.9,4.4-1.1,9.3-1,12.7c0.1,2.3,0.1,4.3,0.1,4.9c0,1.9,0.9,5.8,7.4,6.6c8.6,1,9.8-1.8,9.8-7.9c0-6.2,7.1-35.4-17.9-40.5
				c-17.4-3.7-26.7,6.3-30.6,14.4"/>
			<path id="XMLID_9017_" class="st10" d="M161.4,162.8"/>
		</g>
		<g id="XMLID_9012_">
			<path id="XMLID_9015_" class="st10" d="M111.7,184.1c1,5.2,16.8,1.2,16.8-1c-0.1-7.2-0.5-16.9,2.2-19.1c2.9-2.4,11.4-2,13.5,2.2
				c0.4,0.9,0.7,2.1,0.4,3.4c-0.9,4.4-1.1,9.3-1,12.6c0.1,2.4,0.1,4.3,0.1,4.9c0,1.9,0.9,5.8,7.4,6.6c8.6,1,9.8-1.8,9.8-7.9
				c0-6.1,7.1-35.3-17.8-40.5c-24.9-5.1-33,17.4-33,22.7C109.9,171,110.5,178.1,111.7,184.1"/>
			<path id="XMLID_9014_" class="st10" d="M129.4,162.8"/>
			<path id="XMLID_9013_" class="st10" d="M129.4,162.8c0.4,10-0.1,21.6-1.3,26c0,0-4.7,8.4-12,4.6s-7.8-44.6-3.3-46.5
				c4.5-1.8,13.2-5.8,15.3,3.6"/>
		</g>
	</g>
	<g id="XMLID_9007_">
		<path id="XMLID_9010_" class="st10" d="M143.6,184.1"/>
		<path id="XMLID_9009_" class="st10" d="M161.3,166.4c0.4-1.1,0.8-1.9,1.4-2.4c3.6-2.8,15.4-1.8,13.9,5.8c-0.9,4.4-1.1,9.3-1,12.7
			c0.1,2.3,0.1,4.3,0.1,4.9c0,1.9,0.9,5.8,7.4,6.6c8.6,1,9.8-1.8,9.8-7.9c0-6.2,7.1-35.4-17.9-40.5c-9.9-2.1-17.1,0.2-22.3,4.1"/>
		<path id="XMLID_9008_" class="st10" d="M161.3,162.8"/>
	</g>
	<g id="XMLID_9002_">
		<path id="XMLID_9006_" class="st10" d="M155.4,152.1c-2.8-3.1-6.8-5.6-12.5-6.7"/>
		<path id="XMLID_9005_" class="st10" d="M155.4,152.1"/>
		<path id="XMLID_9004_" class="st10" d="M129.4,162.8"/>
		<path id="XMLID_9003_" class="st10" d="M129.4,162.8c0.4,10-0.1,21.6-1.3,26c0,0-4.7,8.4-12,4.6s-7.8-44.6-3.3-46.5
			c4.5-1.8,13.2-5.8,15.3,3.6"/>
	</g>
	<line id="XMLID_9001_" class="st3" x1="158.9" y1="157.6" x2="160.3" y2="158.2"/>
	<path id="XMLID_9000_" class="st10" d="M157.1,188.6c0,0,0.6,1.1-0.4,1.6"/>
	<path id="XMLID_8999_" class="st10" d="M122.6,188.7c0,0-0.2,1-0.6,1.4"/>
	<path id="XMLID_8998_" class="st10" d="M138.3,157c0,0,1.8,0.2,1.6,0.6"/>
	<path id="XMLID_8997_" class="st10" d="M187.1,191c0,0,2.1-0.3,2.2-0.7"/>
	<path id="XMLID_8996_" class="st10" d="M131.4,146.1c0,0-1.3,0.6-1.8,1.3"/>
	<line id="XMLID_8995_" class="st3" x1="116.6" y1="148.2" x2="118.1" y2="147.8"/>
	<path id="XMLID_8994_" class="st10" d="M179.7,150.6c0,0,1.2,0.1,1.3,1"/>
</g>
<g id="XMLID_8984_">
	<path id="XMLID_8992_" class="st11" d="M300.3,161.6c0,0,8.6-0.4,7.7-7.7c-0.8-5.8-25-16.2-34.9-3.7c-2.6,3.2-4.2,8.1-4.1,15v0.1
		c0.7,2.3,2,4.3,3.6,6c0.6,0.6,1.2,1.2,1.9,1.6c4.4,3.4,10.7,4.9,16.2,5.1c-0.8,3.1-4.5,4.9-16.4-0.9c0,0-8.6,0.4-7.7,7.7
		c0.8,5.8,25,16.2,34.9,3.7c2.6-3.3,4.2-8.1,4.1-15v-0.1c-0.7-2.4-2-4.4-3.5-6c-0.6-0.7-1.2-1.2-1.9-1.7c-4.5-3.4-10.7-4.9-16.2-5.1
		C284.8,157.6,288.5,155.9,300.3,161.6z"/>
	<path id="XMLID_8991_" class="st11" d="M289.4,170.6c0,0,8.3,17.9-15.1,6.5c0,0-8.6,0.4-7.7,7.7c0.9,7.2,39.2,22.1,39-11.4"/>
	<path id="XMLID_8990_" class="st11" d="M285.2,168.1c0,0-8.3-17.9,15.1-6.5c0,0,8.6-0.4,7.7-7.7c-1-7.2-39.2-22.1-39,11.4"/>
	<line id="XMLID_8989_" class="st3" x1="285.9" y1="156.2" x2="287.3" y2="156.8"/>
	<path id="XMLID_8988_" class="st11" d="M286.8,173.6c0,0,0.5,1.1-0.4,1.6"/>
	<path id="XMLID_8987_" class="st11" d="M293.7,182.8c0,0-0.2,1-0.5,1.4"/>
	<path id="XMLID_8986_" class="st11" d="M297.8,170c0,0,2.1-0.3,2.2-0.7"/>
	<line id="XMLID_8985_" class="st3" x1="295.8" y1="154.9" x2="297.2" y2="154.5"/>
</g>
<g id="XMLID_8967_">
	<g id="XMLID_8981_">
		<path id="XMLID_8982_" class="st1" d="M327.6,164.7c0,0,3.4-17.8-11.6-12.8c-15,5.1-6,44,2,42.4
			C326,192.6,329.6,186.4,327.6,164.7z"/>
	</g>
	<g id="XMLID_8974_">
		<g id="XMLID_8975_">
			<line id="XMLID_8980_" class="st3" x1="312.4" y1="159.5" x2="313.8" y2="160.1"/>
			<path id="XMLID_8979_" class="st1" d="M313.4,176.9c0,0,0.5,1.1-0.4,1.6"/>
			<path id="XMLID_8978_" class="st1" d="M320.3,186.1c0,0-0.2,1-0.5,1.3"/>
			<path id="XMLID_8977_" class="st1" d="M324.3,173.3c0,0,2.1-0.3,2.2-0.7"/>
			<line id="XMLID_8976_" class="st3" x1="322.3" y1="158.3" x2="323.7" y2="157.9"/>
		</g>
	</g>
</g>
<g id="XMLID_8909_">
	<g id="XMLID_8917_">
		<path id="XMLID_8942_" class="st12" d="M37,182.6c0,0-9.7,1-8.9-7.1c0.8-8.2,7-5.4,7-5.4"/>
		<path id="XMLID_8941_" class="st12" d="M60,144.2c0,0,60.5-11.1,68.9,44.5S38.6,258,31.2,210.6S50.7,147.3,60,144.2z"/>
		<path id="XMLID_8940_" class="st13" d="M47.7,160c0,0,27.1-10.8,24,17.1S29.1,184,47.7,160z"/>
		<path id="XMLID_8939_" class="st13" d="M86.9,163.7c0,0-16.1,24.6,11.8,27.7C126.4,194.5,107,148.4,86.9,163.7z"/>
		<path id="XMLID_8938_" class="st14" d="M50.8,180.2c0,0,4.4-1.8,3.9,2.8S47.8,184.1,50.8,180.2z"/>
		<path id="XMLID_8937_" class="st14" d="M104.5,181.5c0,0,4.4-1.8,3.9,2.8S101.5,185.4,104.5,181.5z"/>
		<path id="XMLID_8936_" class="st12" d="M123.9,171.2c0,0,9.3-1.8,8.9,4.9c-0.4,6.8-7,9.1-10.8,6.9"/>
		<path id="XMLID_8935_" class="st12" d="M81.7,186.4c0,0,5.2,8.1,15.7,8.3"/>
		<path id="XMLID_8926_" class="st13" d="M64.6,191.3c0,0-11.5,2.7-14,1.5"/>
		<path id="XMLID_8925_" class="st14" d="M56.1,152.2c0,0-15.9-0.7-8.5,6s20.4-0.1,21.4-3C70,152.4,56.1,152.2,56.1,152.2z"/>
		<path id="XMLID_8923_" class="st12" d="M69.4,218.1c0,0,7.3-8.9,17,0"/>
		<path id="XMLID_8922_" class="st12" d="M64.4,222c0,0,13.7,10.6,26.9,0"/>
		<path id="XMLID_8921_" class="st14" d="M96.2,155.9c0,0-18.5-2.3-0.2,6.6S117.3,158.7,96.2,155.9z"/>
		<path id="XMLID_8920_" class="st13" d="M70,195.6c0,0,4.6,10,13.5,0"/>
		<path id="XMLID_8919_" class="st12" d="M73.6,213.8c0,0,3.3,6.1,7.2,0"/>
		<path id="XMLID_8918_" class="st12" d="M69.4,222.5c0,0,5.3-3.5,8-0.4c0,0,1.3-4.5,7.9-0.3"/>
	</g>
	<path id="XMLID_8916_" class="st12" d="M115.9,191.4c0,0,26.3-6.9,19,14.8c-3.9,11.6-10.1,13-15,11.9"/>
	<path id="XMLID_8915_" class="st12" d="M43.7,192.9c0,0-24.9-11.2-21.1,11.4c2,12.1,7.9,14.4,12.9,14.1"/>
	<line id="XMLID_8914_" class="st6" x1="32.3" y1="170.7" x2="33.7" y2="171.3"/>
	<path id="XMLID_8913_" class="st6" d="M85.2,224c0,0,0.6,1.1-0.3,1.6"/>
	<path id="XMLID_8912_" class="st6" d="M30.5,176c0,0,0.2,1.8-0.1,1.7"/>
	<path id="XMLID_8911_" class="st6" d="M123.6,180.2c0,0,2.1-0.3,2.2-0.7"/>
	<path id="XMLID_8910_" class="st6" d="M128,174.1c0,0,1.2,0.1,1.3,1"/>
</g>
</svg>
