<?xml version="1.0" encoding="utf-8"?>
<!-- Generator: Adobe Illustrator 22.1.0, SVG Export Plug-In . SVG Version: 6.00 Build 0)  -->
<svg version="1.1" id="Layer_1" xmlns="http://www.w3.org/2000/svg" xmlns:xlink="http://www.w3.org/1999/xlink" x="0px" y="0px"
	 viewBox="0 0 672.9 216.8" style="enable-background:new 0 0 672.9 216.8;" xml:space="preserve">
<style type="text/css">
	.st0{fill:#EFE4DA;stroke:#5C5B4B;stroke-miterlimit:10;}
	.st1{fill:#FDF0F2;stroke:#5C5B4B;stroke-miterlimit:10;}
</style>
<g id="Layer_5">
</g>
<g id="Layer_3">
</g>
<g>
	<g>
		<g id="XMLID_252_">
			<g id="XMLID_253_">
				<path id="XMLID_254_" class="st0" d="M574.8,118.4c0,0,6.3-30.1-21.5-21.6c-27.8,8.5-11,74.5,3.7,71.7
					C571.8,165.7,578.5,155.2,574.8,118.4z"/>
			</g>
		</g>
		<g id="XMLID_249_">
			<g id="XMLID_250_">
				<path id="XMLID_251_" class="st1" d="M564.7,109.1c0,0,6.3-30.1-21.5-21.6s-11,74.5,3.7,71.7
					C561.6,156.4,568.4,145.9,564.7,109.1z"/>
			</g>
		</g>
		<g>
			<line id="XMLID_248_" class="st1" x1="541.4" y1="150.5" x2="545" y2="151.8"/>
			<path id="XMLID_247_" class="st1" d="M559,140.3c0,0,1.4,2.6-0.8,3.7"/>
			<path id="XMLID_246_" class="st1" d="M537.3,102.7c0,0-0.7,2.4-1.4,3.2"/>
			<path id="XMLID_245_" class="st1" d="M559.8,104.2c0,0,1.1-4.5,0-4.5"/>
			<path id="XMLID_244_" class="st1" d="M547.7,91.4c0,0,4.5,0.6,4.1,1.2"/>
		</g>
	</g>
</g>
</svg>
