<?xml version="1.0" encoding="utf-8"?>
<!-- Generator: Adobe Illustrator 22.1.0, SVG Export Plug-In . SVG Version: 6.00 Build 0)  -->
<svg version="1.1" id="Layer_1" xmlns="http://www.w3.org/2000/svg" xmlns:xlink="http://www.w3.org/1999/xlink" x="0px" y="0px"
	 viewBox="0 0 357.8 304.2" style="enable-background:new 0 0 357.8 304.2;" xml:space="preserve">
<style type="text/css">
	.st0{opacity:0.1;}
	.st1{fill:#092D30;}
	.st2{fill:#FFD767;stroke:#584C4F;stroke-width:5;stroke-miterlimit:10;}
	.st3{opacity:0.1;enable-background:new    ;}
	.st4{fill:#231F20;stroke:#231F20;stroke-width:5;stroke-miterlimit:10;}
	.st5{fill:none;stroke:#231F20;stroke-width:5;stroke-miterlimit:10;}
	.st6{fill:#FFFAF2;stroke:#584C4F;stroke-width:5;stroke-miterlimit:10;}
	.st7{fill:none;stroke:#584C4F;stroke-width:5;stroke-miterlimit:10;}
	.st8{fill:#FFFFFF;stroke:#584C4F;stroke-width:5;stroke-linecap:round;stroke-miterlimit:10;}
</style>
<g id="Layer_5">
</g>
<g id="Layer_3">
</g>
<g class="st0">
	<path id="XMLID_10346_" class="st1" d="M313.7,128.3c0,0,5,30,29,19.4c24-10.5,12.2-124.3,1.1-133.1S301.7-48.3,313.7,128.3z"/>
	<path id="XMLID_10345_" class="st1" d="M280.1,128.3c0,0,5,30,29,19.4c24-10.5,12.2-124.3,1.1-133.1S268.1-48.3,280.1,128.3z"/>
	<path id="XMLID_10342_" class="st1" d="M222,52.4c-51.2,16.3-24.3,77.8-24.3,77.8s32.7,38.6,74.7,7.9
		C314.2,107.3,273.1,36.1,222,52.4z M229.1,116.8c-28-3.8,11.3-56,24.1-22.7C265.9,127.4,229.1,116.8,229.1,116.8z"/>
	<g id="XMLID_10339_">
		<path id="XMLID_10341_" class="st1" d="M216.3,61.6c0,0-54.3-37.3-77.7,28.6s33.6,76.3,32.3,36.2s12.4-43.4,28.2-37.2
			C215,95.3,237.1,88.7,216.3,61.6z"/>
		<path id="XMLID_10340_" class="st1" d="M170.2,65.4c0,0-3.6-24.7-25.7-11.7s1.2,34.5,1.2,34.5"/>
	</g>
	<path id="XMLID_10338_" class="st1" d="M93.4,142.4c-41.1-28.9-15.7-70.8-15.7-70.8C81.5,63.4,124,41,136.3,54l0,0
		c12.3,13,3,23.1-2.4,29c-4.2,4.6-13.2,3.8-17,3.2c-1.1-0.2-1.8-0.3-1.8-0.3c-7.7-1.1-14.9,1.6-13.1,10.8c0,0,0.3,7.1,3.1,12.6l0,0
		c0,0,2,4.9,5.8,6.4c1.5,0.6,3.2,0.6,5.3-0.4c0.1-0.1,0.2-0.1,0.3-0.2c0.9-0.4,2-0.9,3.3-1.2c8.6-2.7,23.2-3.4,25.9,8.2
		c3.2,13.5,0.2,15-1.5,17.7l0,0c-1.7,2.7-7.2,4.7-7.2,4.7l0,0C123.9,151.8,107.9,152.6,93.4,142.4z"/>
	<g id="XMLID_10334_">
		<path id="XMLID_10337_" class="st1" d="M68.6,84.6c0,0,17.3-0.9,15.4-15.4c-1.5-11.5-49.9-32.5-69.7-7.4C9.1,68.3,5.9,78,6,91.8
			v0.1c1.4,4.7,3.9,8.7,7.1,12c1.2,1.3,2.5,2.4,3.7,3.3c8.9,6.8,21.4,9.8,32.4,10.1c-1.6,6.2-9,9.7-32.7-1.8c0,0-17.3,0.9-15.4,15.4
			c1.5,11.5,50,32.5,69.8,7.4c5.2-6.6,8.4-16.2,8.3-30v-0.1c-1.4-4.8-3.9-8.7-7.1-12c-1.2-1.3-2.5-2.4-3.7-3.3
			c-9.1-7-21.5-9.9-32.5-10.2C37.5,76.5,44.9,73.1,68.6,84.6z"/>
		<path id="XMLID_10336_" class="st1" d="M46.7,102.5c0,0,16.6,35.8-30.2,13c0,0-17.3,0.9-15.4,15.4s78.5,44.1,78-22.8"/>
		<path id="XMLID_10335_" class="st1" d="M38.4,97.5c0,0-16.6-35.8,30.2-13c0,0,17.3-0.9,15.4-15.4S5.5,25,6,91.9"/>
	</g>
</g>
<g>
	<path id="XMLID_10331_" class="st2" d="M313.7,138.3c0,0,5,30,29,19.4c24-10.5,12.2-124.3,1.1-133.1S301.7-38.3,313.7,138.3z"/>
	<path id="XMLID_10330_" class="st2" d="M280.1,138.3c0,0,5,30,29,19.4c24-10.5,12.2-124.3,1.1-133.1S268.1-38.3,280.1,138.3z"/>
	<path id="XMLID_10327_" class="st2" d="M222,62.4c-51.2,16.3-24.3,77.8-24.3,77.8s32.7,38.6,74.7,7.9
		C314.2,117.3,273.1,46.1,222,62.4z M229.1,126.8c-28-3.8,11.3-56,24.1-22.7C265.9,137.4,229.1,126.8,229.1,126.8z"/>
	<g id="XMLID_10324_">
		<path id="XMLID_10326_" class="st2" d="M216.3,71.6c0,0-54.3-37.3-77.7,28.6s33.6,76.3,32.3,36.2s12.4-43.4,28.2-37.2
			C215,105.3,237.1,98.7,216.3,71.6z"/>
		<path id="XMLID_10325_" class="st2" d="M170.2,75.4c0,0-3.6-24.7-25.7-11.7s1.2,34.5,1.2,34.5"/>
	</g>
	<path id="XMLID_10323_" class="st2" d="M93.4,152.4c-41.1-28.9-15.7-70.8-15.7-70.8C81.5,73.4,124,51,136.3,64l0,0
		c12.3,13,3,23.1-2.4,29c-4.2,4.6-13.2,3.8-17,3.2c-1.1-0.2-1.8-0.3-1.8-0.3c-7.7-1.1-14.9,1.6-13.1,10.8c0,0,0.3,7.1,3.1,12.6l0,0
		c0,0,2,4.9,5.8,6.4c1.5,0.6,3.2,0.6,5.3-0.4c0.1-0.1,0.2-0.1,0.3-0.2c0.9-0.4,2-0.9,3.3-1.2c8.6-2.7,23.2-3.4,25.9,8.2
		c3.2,13.5,0.2,15-1.5,17.7l0,0c-1.7,2.7-7.2,4.7-7.2,4.7l0,0C123.9,161.8,107.9,162.6,93.4,152.4z"/>
	<g id="XMLID_10319_">
		<path id="XMLID_10322_" class="st2" d="M68.6,94.6c0,0,17.3-0.9,15.4-15.4c-1.5-11.5-49.9-32.5-69.7-7.4C9.1,78.3,5.9,88,6,101.8
			v0.1c1.4,4.7,3.9,8.7,7.1,12c1.2,1.3,2.5,2.4,3.7,3.3c8.9,6.8,21.4,9.8,32.4,10.1c-1.6,6.2-9,9.7-32.7-1.8c0,0-17.3,0.9-15.4,15.4
			c1.5,11.5,50,32.5,69.8,7.4c5.2-6.6,8.4-16.2,8.3-30v-0.1c-1.4-4.8-3.9-8.7-7.1-12c-1.2-1.3-2.5-2.4-3.7-3.3
			c-9.1-7-21.5-9.9-32.5-10.2C37.5,86.5,44.9,83.1,68.6,94.6z"/>
		<path id="XMLID_10321_" class="st2" d="M46.7,112.5c0,0,16.6,35.8-30.2,13c0,0-17.3,0.9-15.4,15.4s78.5,44.1,78-22.8"/>
		<path id="XMLID_10320_" class="st2" d="M38.4,107.5c0,0-16.6-35.8,30.2-13c0,0,17.3-0.9,15.4-15.4C82.1,64.7,5.5,35.1,6,102"/>
	</g>
</g>
<g class="st3">
	<g>
		<path class="st4" d="M166.8,180.4c-14.3,0.8-26.9,2.6-27.1,16.8c0,3.2,0.2,16,0,18.8c-0.6,9.5,4.8,25.1,20.2,50.7
			c36.4,60.6,67.3-6.9,67.3-6.9c10.9-13.5,14.3-25.7,13.1-35.2c-0.2-2.2,0.2-13.3,0.2-16.8c0-21.6-22.4-31.1-38-11.7
			C180.9,223.8,191,179,166.8,180.4z"/>
		<g id="XMLID_9_">
			<path id="XMLID_10_" class="st4" d="M227.4,260c0,0-30.9,67.5-67.3,6.9s-17.4-64.7,6.7-66.1s14.1,43.2,36,16
				C224.6,189.3,260.3,219.2,227.4,260z"/>
		</g>
	</g>
	<line id="XMLID_8_" class="st5" x1="229.6" y1="241.6" x2="232.5" y2="235.4"/>
	<path id="XMLID_7_" class="st4" d="M231,202.8c0,0-1.4-9.5-3.2-10.1"/>
	<path id="XMLID_6_" class="st4" d="M191.6,217.4c0,0,0.4-4.8-1.2-5.9"/>
</g>
<g>
	<g>
		<path class="st2" d="M166.9,191.5c-14.3,0.8-26.9,2.6-27.1,16.8c0,3.2,0.2,16,0,18.8c-0.6,9.5,4.8,25.1,20.2,50.7
			c36.4,60.6,67.3-6.9,67.3-6.9c10.9-13.5,14.3-25.7,13.1-35.2c-0.2-2.2,0.2-13.3,0.2-16.8c0-21.6-22.4-31.1-38-11.7
			C181,234.9,191.1,190.1,166.9,191.5z"/>
		<g id="XMLID_4_">
			<path id="XMLID_5_" class="st6" d="M227.5,271.1c0,0-30.9,67.5-67.3,6.9s-17.4-64.7,6.7-66.1s14.1,43.2,36,16
				C224.7,200.4,260.4,230.3,227.5,271.1z"/>
		</g>
	</g>
	<line id="XMLID_3_" class="st7" x1="229.7" y1="252.7" x2="232.5" y2="246.5"/>
	<path id="XMLID_2_" class="st6" d="M231.1,213.9c0,0-1.4-9.5-3.2-10.1"/>
	<path id="XMLID_1_" class="st6" d="M191.7,228.5c0,0,0.4-4.8-1.2-5.9"/>
</g>
<g>
	<path id="XMLID_21_" class="st8" d="M313.8,148.3c0,0,5,30,29,19.4c24-10.5,12.2-124.3,1.1-133.1S301.8-28.3,313.8,148.3z"/>
	<path id="XMLID_20_" class="st8" d="M280.2,148.3c0,0,5,30,29,19.4c24-10.5,12.2-124.3,1.1-133.1S268.2-28.3,280.2,148.3z"/>
	<path id="XMLID_19_" class="st8" d="M222.1,72.4c-51.2,16.3-24.3,77.8-24.3,77.8s32.7,38.6,74.7,7.9
		C314.3,127.3,273.2,56.1,222.1,72.4z M229.2,136.8c-28-3.8,11.3-56,24.1-22.7C266,147.4,229.2,136.8,229.2,136.8z"/>
	<g id="XMLID_16_">
		<path id="XMLID_18_" class="st8" d="M216.4,81.6c0,0-54.3-37.3-77.7,28.6s33.6,76.3,32.3,36.2s12.4-43.4,28.2-37.2
			C215.1,115.3,237.2,108.7,216.4,81.6z"/>
		<path id="XMLID_17_" class="st8" d="M170.3,85.4c0,0-3.6-24.7-25.7-11.7s1.2,34.5,1.2,34.5"/>
	</g>
	<path id="XMLID_15_" class="st8" d="M93.5,162.4c-41.1-28.9-15.7-70.8-15.7-70.8c3.8-8.2,46.3-30.6,58.6-17.6l0,0
		c12.3,13,3,23.1-2.4,29c-4.2,4.6-13.2,3.8-17,3.2c-1.1-0.2-1.8-0.3-1.8-0.3c-7.7-1.1-14.9,1.6-13.1,10.8c0,0,0.3,7.1,3.1,12.6l0,0
		c0,0,2,4.9,5.8,6.4c1.5,0.6,3.2,0.6,5.3-0.4c0.1-0.1,0.2-0.1,0.3-0.2c0.9-0.4,2-0.9,3.3-1.2c8.6-2.7,23.2-3.4,25.9,8.2
		c3.2,13.5,0.2,15-1.5,17.7l0,0c-1.7,2.7-7.2,4.7-7.2,4.7l0,0C124,171.8,108,172.6,93.5,162.4z"/>
	<g id="XMLID_11_">
		<path id="XMLID_14_" class="st8" d="M68.7,104.6c0,0,17.3-0.9,15.4-15.4c-1.5-11.5-49.9-32.5-69.7-7.4C9.2,88.3,6,98,6.1,111.8
			v0.1c1.4,4.7,3.9,8.7,7.1,12c1.2,1.3,2.5,2.4,3.7,3.3c8.9,6.8,21.4,9.8,32.4,10.1c-1.6,6.2-9,9.7-32.7-1.8c0,0-17.3,0.9-15.4,15.4
			c1.5,11.5,50,32.5,69.8,7.4c5.2-6.6,8.4-16.2,8.3-30v-0.1c-1.4-4.8-3.9-8.7-7.1-12c-1.2-1.3-2.5-2.4-3.7-3.3
			c-9.1-7-21.5-9.9-32.5-10.2C37.6,96.5,45,93.1,68.7,104.6z"/>
		<path id="XMLID_13_" class="st8" d="M46.8,122.5c0,0,16.6,35.8-30.2,13c0,0-17.3,0.9-15.4,15.4s78.5,44.1,78-22.8"/>
		<path id="XMLID_12_" class="st8" d="M38.5,117.5c0,0-16.6-35.8,30.2-13c0,0,17.3-0.9,15.4-15.4c-1.9-14.4-78.5-44-78,22.9"/>
	</g>
</g>
</svg>
