<?xml version="1.0" encoding="utf-8"?>
<!-- Generator: Adobe Illustrator 22.1.0, SVG Export Plug-In . SVG Version: 6.00 Build 0)  -->
<svg version="1.1" id="Layer_1" xmlns="http://www.w3.org/2000/svg" xmlns:xlink="http://www.w3.org/1999/xlink" x="0px" y="0px"
	 viewBox="0 0 1342.9 297" style="enable-background:new 0 0 1342.9 297;" xml:space="preserve">
<style type="text/css">
	.st0{opacity:0.1;}
	.st1{fill:#092D30;}
	.st2{fill:#FFD767;stroke:#584C4F;stroke-width:5;stroke-miterlimit:10;}
	.st3{fill:#FFFFFF;stroke:#584C4F;stroke-width:5;stroke-linecap:round;stroke-miterlimit:10;}
</style>
<g id="Layer_5">
</g>
<g id="Layer_3">
</g>
<g>
	<g class="st0">
		<path class="st1" d="M532.4,207.9c-1.2,0.4-2.3,0.8-3.3,1.2c-0.1,0.1-0.2,0.1-0.3,0.2c-2,1-3.8,0.9-5.3,0.4
			c-3.8-1.5-5.8-6.4-5.8-6.4l0,0c-2.8-5.5-3.1-12.6-3.1-12.6c-1.8-9.2,5.4-12,13.1-10.8c0,0,0.7,0.2,1.8,0.3
			c3.8,0.6,12.8,1.4,17-3.2c5.4-5.9,14.7-16,2.4-29l0,0c-12.3-13-54.8,9.4-58.6,17.6c0,0-25.3,41.9,15.7,70.8
			c14.5,10.2,30.4,9.4,43.6,2.2l0,0c0,0,5.5-2,7.2-4.7c0,0,0,0,0,0c1.7-2.7,4.7-4.2,1.5-17.7C555.5,204.5,540.9,205.2,532.4,207.9z"
			/>
		<path class="st1" d="M656,171.7c-5.4-14.4-17.2-25.7-35.2-27.5c-36-3.6-50.8,19.7-56.4,33.9c0,0-1.3,2.1-2.2,6.3
			c-0.7,2.5-0.9,4.6-0.8,5.5c-0.5,7.8,0.8,19.3,8,34.6c5.9,12.5,21,16.9,31,18.5c2.8,0.6,5.9,0.9,9.1,0.9c0.2,0,0.3,0,0.3,0l0,0
			c3.5-0.1,7.2-0.5,11.2-1.4c15.8-3.6,26.6-13.7,32.7-26.1c-1-14.3-13.3-16.1-20.7-17.2c-4-0.6-8.2,1.9-11.3,4.5
			c-0.3,0.3-0.7,0.6-1,0.8c-10.6,7.9-38.5-7.6-23.9-19.1c0,0,3.7-3.9,8.5-6.6c0.6,2.2,1.4,4.5,2.7,7c3.8,8,12.9,8.8,21.4,6.6
			c5.3,4.5,11.9,7,18.3,2.5c11.5-8.3,10.2-11.5,10.7-14.7l0,0C658.9,177,656,171.7,656,171.7L656,171.7z"/>
		<path class="st1" d="M346.5,164c-30.1,10.1-11.9,88.1,4,84.8c15.9-3.3,23.2-15.8,19.2-59.2C369.7,189.5,376.6,153.9,346.5,164z"/>
		<path class="st1" d="M353.9,149.2c33.3-14.3-0.5-33.7-0.5-33.7C330.7,97.8,320.6,163.6,353.9,149.2z"/>
		<path class="st1" d="M417.1,156.9c-3-5.2-9.2-11.2-21.3-6.8c-19.6,7-10,82.9-0.9,88.7c8.2,5.3,29.5,34.9,26.6-44.5
			c9.6-6.3,26-11,21,34.6c0,0,8.2,19.6,24.1,11.5C481.9,232.5,484.7,139.5,417.1,156.9z"/>
		<path class="st1" d="M988.2,98.6c-0.4-0.2-0.8-0.4-1.3-0.6c-5.3-4.7-11.1-7.4-15.5,0.3c-25.4,9.3-51.4,55.8-40.3,63.1
			c9.4,6.2,19.1,6.3,33.4-5.3c0,17.2,0.9,38.8,2.7,65.8c0,0,5,30,29,19.4c21.7-9.5,14.1-103.4,4.3-127.9
			C1000.5,108.4,997.5,103.2,988.2,98.6z"/>
		<path class="st1" d="M1120.6,143.1c-0.2-10.1-0.5-21.3-1.1-33.6c0,0-4-29.1-26.6-19.4c-9.7,4.2-13.6,27-14.1,52.4
			c-7,0-14,0.1-20.2,0.4c0.2-6.8-0.1-14.9-1-24.5c0,0,6.8-35.6-23.2-25.5c-18.4,6.2-18.7,37.6-12.6,60.4c-0.9,3.6-0.8,8.5,1,15
			c2.3,8.1,19.7,12.9,40.2,14.5l17.6,0c1.9,18.4,5.2,32.9,8.6,35.9c8.4,7.3,29.1,45.2,31.4-41.1l4.9-1.3c4.9-2.2,8.2-4.9,9.1-8.1
			C1140.4,147.7,1129.2,143.5,1120.6,143.1z"/>
		<path class="st1" d="M778.7,204.7c-4-0.4-9.6-0.8-16-1c8.3-8.2,17.8-18,28.6-29.6c0,0,7.2-9.7,4.6-19.1
			c-4-92-113.9-49.1-116.7-27.9c-2.8,21.7,23.1,23,23.1,23c37.2-18.1,47.6-11.6,49.2-1.4c0,0,0.6,2.8,2,6.6
			c-17.2,13.5-35.5,34.5-44.7,48.8c-7.8-0.8-26.5-0.4-19.4,25c1.4,4.9,8.2,8.5,18,11.1c1.1,0.7,2.4,1,4.1,1c5.5,1.2,11.6,2,18.1,2.5
			l30.7,0.1c4.1-0.3,8.2-0.7,12-1.3l19.8-5.2c4.9-2.2,8.2-4.9,9.1-8.1C810.2,197.5,778.7,204.7,778.7,204.7z"/>
		<path class="st1" d="M844.5,99.7c-21.1,6.7-28.9,21.1-30.8,35.7c-1.7,12.6-0.7,48.7-0.5,56.2c0.5,17.1,7,32.1,7,32.1
			s32.7,38.6,74.7,7.9c11.4-8.3,16.6-19.6,17.2-31.4c0.5-9,0.1-40.9,0.1-48.6C912.1,120.7,880.8,88.1,844.5,99.7z M851.6,200.7
			c-10.1-2.7-11.4-17.5-8.5-32.4c5.3-26.6,24.3-53.4,32.5-11.9c1,5.1,1.7,9.6,2.1,13.7C882.9,218.1,851.6,200.7,851.6,200.7z"/>
		<path class="st1" d="M321.5,129.7c0-0.3-0.1-0.6-0.2-0.9c0-0.1,0-0.1-0.1-0.2c-0.1-0.3-0.2-0.5-0.3-0.8c0-0.1,0-0.1-0.1-0.2
			c-0.1-0.3-0.3-0.6-0.4-0.9c0,0,0,0,0,0c-4.1-7.8-19.1-17.3-36.7-21.9c0,0,0,0-0.1,0c-2.4-0.6-4.8-1.1-7.2-1.6c-0.1,0-0.2,0-0.3,0
			c-0.7-0.1-1.4-0.2-2.1-0.3c-0.1,0-0.3,0-0.4-0.1c-0.7-0.1-1.5-0.2-2.2-0.3c-0.1,0-0.1,0-0.2,0c-0.8-0.1-1.6-0.2-2.4-0.2
			c-0.1,0-0.2,0-0.3,0c-0.7-0.1-1.3-0.1-2-0.1c-0.2,0-0.5,0-0.7,0c-0.6,0-1.1,0-1.6,0c-0.2,0-0.5,0-0.7,0c-0.6,0-1.2,0-1.8,0
			c-0.2,0-0.3,0-0.5,0c-0.7,0-1.5,0.1-2.2,0.1c-0.3,0-0.5,0-0.8,0.1c-0.5,0-1,0.1-1.5,0.1c-0.3,0-0.6,0.1-0.9,0.1
			c-0.4,0-0.9,0.1-1.3,0.2c-0.3,0-0.6,0.1-1,0.1c-0.5,0.1-0.9,0.2-1.4,0.2c-0.4,0.1-0.8,0.2-1.3,0.2c-0.5,0.1-1,0.2-1.5,0.3
			c-0.3,0.1-0.7,0.2-1,0.3c-0.4,0.1-0.7,0.2-1.1,0.3c-0.4,0.1-0.7,0.2-1.1,0.3c-0.3,0.1-0.7,0.2-1,0.3c-0.4,0.1-0.7,0.2-1.1,0.4
			c-0.3,0.1-0.6,0.2-1,0.4c-0.7,0.3-1.3,0.5-1.9,0.8c-0.3,0.1-0.6,0.3-0.9,0.4c-0.4,0.2-0.7,0.4-1.1,0.6c-0.3,0.1-0.5,0.3-0.8,0.4
			c-0.4,0.2-0.7,0.4-1.1,0.6c-0.3,0.1-0.5,0.3-0.8,0.5c-0.4,0.2-0.7,0.4-1.1,0.7c-0.2,0.1-0.4,0.2-0.5,0.4c-0.7,0.5-1.5,1-2.2,1.6
			c-0.2,0.2-0.4,0.3-0.6,0.5c-0.4,0.3-0.7,0.6-1,0.9c-0.2,0.2-0.4,0.4-0.6,0.6c-0.3,0.3-0.7,0.6-1,0.9c-0.2,0.2-0.4,0.4-0.6,0.6
			c-1.2,1.2-2.3,2.4-3.3,3.8c-0.1,0.2-0.3,0.3-0.4,0.5c0,0-0.1,0.1-0.1,0.2c-0.3,0.4-0.6,0.9-0.9,1.3c-0.2,0.2-0.3,0.5-0.5,0.7
			c-0.3,0.4-0.6,0.9-0.9,1.4c-0.2,0.3-0.3,0.5-0.5,0.8c-0.3,0.5-0.6,0.9-0.8,1.4c-0.1,0.2-0.2,0.5-0.4,0.7c-0.5,1-1,2-1.5,3.1
			c-0.1,0.3-0.2,0.5-0.3,0.8c-0.2,0.5-0.4,1-0.6,1.5c-0.2,0.4-0.3,0.8-0.4,1.2c-0.2,0.5-0.4,1-0.5,1.5c-0.1,0.4-0.3,0.9-0.4,1.3
			c-0.2,0.5-0.3,1-0.5,1.5c-0.1,0.5-0.3,1-0.4,1.5c-0.1,0.5-0.3,1-0.4,1.5c-0.2,0.7-0.3,1.4-0.4,2.1c-0.1,0.7-0.3,1.4-0.4,2.1
			c-0.1,0.7-0.3,1.5-0.4,2.2c-0.1,0.5-0.1,1-0.2,1.5c-0.1,0.7-0.2,1.3-0.3,2c-0.1,0.5-0.1,1.1-0.2,1.6c-0.1,0.7-0.1,1.4-0.2,2.1
			c0,0.6-0.1,1.1-0.1,1.7c0,0.8-0.1,1.5-0.1,2.3c0,0.5,0,1.1-0.1,1.6c0,1.3,0,2.6,0,3.9c0,0,0,0,0,0c0,0.1,0,0.1,0,0.2l0.1,0
			c2,6.9,5.4,12.6,9.8,17.3c1.6,1.9,3.5,3.5,5.1,4.8c12.3,9.9,29.5,14.2,44.7,14.6c-0.1,0.3-0.1,0.6-0.2,0.8c0,0,0,0,0,0
			c-0.1,0.3-0.2,0.5-0.3,0.8c0,0,0,0,0,0c-0.1,0.2-0.2,0.5-0.3,0.7c0,0,0,0,0,0.1c-0.1,0.2-0.2,0.5-0.4,0.7c0,0,0,0,0,0.1
			c-0.1,0.2-0.3,0.4-0.4,0.6c0,0,0,0.1-0.1,0.1c-0.1,0.2-0.3,0.4-0.4,0.6c0,0,0,0.1-0.1,0.1c-0.2,0.2-0.3,0.4-0.5,0.5
			c0,0-0.1,0.1-0.1,0.1c-0.2,0.2-0.3,0.3-0.5,0.5c0,0-0.1,0.1-0.1,0.1c-0.2,0.1-0.4,0.3-0.6,0.4c-0.1,0-0.1,0.1-0.2,0.1
			c-0.2,0.1-0.4,0.2-0.6,0.4c-0.1,0-0.1,0.1-0.2,0.1c-0.2,0.1-0.4,0.2-0.6,0.3c-0.1,0-0.1,0.1-0.2,0.1c-0.2,0.1-0.4,0.2-0.7,0.3
			c-0.1,0-0.2,0.1-0.3,0.1c-0.2,0.1-0.5,0.1-0.7,0.2c-0.1,0-0.2,0.1-0.3,0.1c-0.2,0.1-0.5,0.1-0.8,0.2c-0.1,0-0.2,0-0.3,0.1
			c-0.3,0-0.5,0.1-0.8,0.1c-0.1,0-0.3,0-0.4,0c-0.3,0-0.5,0-0.8,0.1c-0.1,0-0.3,0-0.4,0c-0.3,0-0.6,0-0.9,0c-0.2,0-0.3,0-0.5,0
			c-0.3,0-0.6,0-0.9,0c-0.2,0-0.3,0-0.5,0c-0.3,0-0.6-0.1-1-0.1c-0.2,0-0.4,0-0.6-0.1c-0.3,0-0.7-0.1-1-0.1c-0.2,0-0.4-0.1-0.6-0.1
			c-0.3-0.1-0.7-0.1-1.1-0.2c-0.2,0-0.4-0.1-0.7-0.1c-0.4-0.1-0.7-0.2-1.1-0.3c-0.2-0.1-0.5-0.1-0.7-0.2c-0.4-0.1-0.8-0.2-1.2-0.3
			c-0.2-0.1-0.5-0.1-0.7-0.2c-0.4-0.1-0.8-0.2-1.3-0.4c-0.3-0.1-0.5-0.1-0.8-0.2c-0.4-0.1-0.9-0.3-1.3-0.4c-0.3-0.1-0.5-0.2-0.8-0.3
			c-0.5-0.2-0.9-0.3-1.4-0.5c-0.3-0.1-0.6-0.2-0.8-0.3c-0.5-0.2-1-0.4-1.6-0.6c-0.3-0.1-0.5-0.2-0.8-0.3c-0.6-0.2-1.1-0.5-1.7-0.7
			c-0.3-0.1-0.5-0.2-0.8-0.3c-0.6-0.3-1.3-0.6-1.9-0.8c-0.2-0.1-0.4-0.2-0.7-0.3c-0.8-0.3-1.6-0.7-2.4-1.1c-0.1-0.1-0.2-0.1-0.3-0.2
			c-1.9-0.9-3.8-1.8-5.9-2.9c0,0-21,1.1-21.5,18.6c0,1.2,0,2.4,0.2,3.7c0,0,0,0,0,0c0,0.3,0.1,0.6,0.2,0.9c0,0.1,0.1,0.2,0.1,0.3
			c0.1,0.2,0.1,0.4,0.2,0.7c0,0.1,0.1,0.2,0.1,0.3c0.1,0.2,0.2,0.5,0.3,0.7c0,0.1,0.1,0.2,0.1,0.3c0.2,0.3,0.4,0.6,0.6,1
			c0,0,0.1,0.1,0.1,0.1c0.2,0.3,0.4,0.6,0.6,0.9c0.1,0.1,0.2,0.2,0.3,0.3c0.2,0.2,0.4,0.5,0.5,0.7c0.1,0.1,0.2,0.2,0.3,0.4
			c0.2,0.2,0.4,0.5,0.6,0.7c0.1,0.1,0.2,0.2,0.3,0.3c0.3,0.3,0.7,0.7,1,1c0.1,0.1,0.2,0.2,0.3,0.3c0.3,0.3,0.5,0.5,0.8,0.8
			c0.1,0.1,0.3,0.3,0.5,0.4c0.3,0.2,0.5,0.4,0.8,0.6c0.2,0.1,0.3,0.3,0.5,0.4c0.3,0.2,0.6,0.5,0.9,0.7c0.2,0.1,0.3,0.2,0.5,0.3
			c0.4,0.3,0.9,0.6,1.3,1c0.2,0.1,0.4,0.3,0.6,0.4c0.3,0.2,0.6,0.4,0.9,0.6c0.2,0.2,0.5,0.3,0.7,0.5c0.3,0.2,0.6,0.4,0.8,0.5
			c0.2,0.2,0.5,0.3,0.8,0.5c0.3,0.2,0.6,0.4,0.9,0.5c0.4,0.2,0.7,0.4,1.1,0.6c0.4,0.2,0.8,0.4,1.2,0.7c0.3,0.2,0.6,0.3,0.9,0.5
			c0.3,0.1,0.5,0.3,0.8,0.4c0.3,0.2,0.7,0.3,1,0.5c0.3,0.1,0.5,0.2,0.8,0.4c0.4,0.2,0.7,0.3,1.1,0.5c0.2,0.1,0.4,0.2,0.7,0.3
			c0.8,0.4,1.7,0.7,2.6,1.1c0.1,0,0.2,0.1,0.3,0.1c0.4,0.2,0.9,0.4,1.3,0.5c0.2,0.1,0.4,0.2,0.6,0.2c0.4,0.2,0.9,0.3,1.4,0.5
			c0.2,0.1,0.4,0.1,0.6,0.2c0.5,0.2,1,0.3,1.5,0.5c0,0,0,0,0,0c1.7,0.6,3.5,1.1,5.3,1.6c0.1,0,0.3,0.1,0.4,0.1
			c0.5,0.1,1.1,0.3,1.7,0.4c0.1,0,0.2,0,0.3,0.1c2.5,0.6,5,1.1,7.5,1.5c0.1,0,0.1,0,0.2,0c3.2,0.5,6.5,0.8,9.8,0.9c0,0,0,0,0.1,0
			c3.3,0.1,6.6,0,9.8-0.4c0,0,0,0,0,0c3.2-0.4,6.4-1.1,9.4-2.1c0,0,0,0,0,0c2.4-0.8,4.8-1.8,7.1-3c0,0,0,0,0,0
			c0.6-0.3,1.1-0.6,1.6-0.9c0,0,0,0,0.1,0c2.2-1.3,4.2-2.8,6.2-4.5c0.1,0,0.1-0.1,0.2-0.1c0.5-0.4,0.9-0.8,1.4-1.3
			c0,0,0.1-0.1,0.1-0.1c1.9-1.8,3.6-3.9,5.2-6.2c0.1-0.1,0.2-0.2,0.2-0.3c0.4-0.5,0.7-1.1,1-1.6c0.1-0.1,0.2-0.3,0.2-0.4
			c0.3-0.6,0.7-1.2,1-1.8c0-0.1,0.1-0.1,0.1-0.2c1-1.9,1.9-3.9,2.8-6.1c0.1-0.3,0.2-0.5,0.3-0.8c0.2-0.6,0.4-1.1,0.6-1.7
			c0.1-0.4,0.2-0.7,0.4-1.1c0.2-0.6,0.3-1.1,0.5-1.7c0.1-0.4,0.2-0.9,0.3-1.3c0.1-0.6,0.3-1.1,0.4-1.7c0.1-0.5,0.2-1.1,0.4-1.6
			c0.2-0.8,0.3-1.7,0.5-2.5c0.1-0.7,0.3-1.4,0.4-2.1c0.1-0.5,0.1-1,0.2-1.6c0.1-0.7,0.2-1.3,0.3-2c0.1-0.5,0.1-1.1,0.2-1.6
			c0.1-0.7,0.1-1.4,0.2-2.1c0-0.5,0.1-1.1,0.1-1.7c0-0.8,0.1-1.6,0.1-2.4c0-0.5,0-1,0.1-1.5c0-1.3,0-2.6,0-3.9c0-0.1,0-0.1,0-0.2
			l0,0l0,0c-2-6.9-5.4-12.7-9.8-17.4c-1.6-1.9-3.5-3.5-5.1-4.7c-12.3-9.9-29.5-14.1-44.7-14.6c0,0,0,0,0-0.1c0-0.2,0.1-0.4,0.2-0.6
			c0-0.1,0-0.2,0.1-0.3c0.1-0.2,0.1-0.3,0.2-0.5c0-0.1,0.1-0.2,0.1-0.3c0.1-0.1,0.1-0.3,0.2-0.4c0.1-0.1,0.1-0.2,0.2-0.3
			c0.1-0.1,0.1-0.2,0.2-0.4c0.1-0.1,0.1-0.3,0.2-0.4c0.1-0.1,0.1-0.2,0.2-0.3c0.1-0.1,0.2-0.3,0.3-0.4c0.1-0.1,0.1-0.2,0.2-0.2
			c0.1-0.1,0.2-0.3,0.3-0.4c0.1-0.1,0.1-0.1,0.2-0.2c0.1-0.1,0.3-0.3,0.4-0.4c0,0,0.1-0.1,0.1-0.1c0.2-0.1,0.3-0.3,0.5-0.4
			c0,0,0.1-0.1,0.1-0.1c0.2-0.2,0.4-0.3,0.6-0.4c0,0,0,0,0.1,0c0.2-0.1,0.5-0.3,0.7-0.4c0,0,0,0,0,0c6-3.1,17.9-1.8,40.1,9.6
			c0,0,21.1-1.1,21.5-18.6C321.8,132.2,321.7,131,321.5,129.7z"/>
	</g>
	<path id="XMLID_1662_" class="st2" d="M506,216.3c-41.1-28.9-15.7-70.8-15.7-70.8c3.8-8.2,46.3-30.6,58.6-17.6l0,0
		c12.3,13,3,23.1-2.4,29c-4.2,4.6-13.2,3.8-17,3.2c-1.1-0.2-1.8-0.3-1.8-0.3c-7.7-1.1-14.9,1.6-13.1,10.8c0,0,0.3,7.1,3.1,12.6l0,0
		c0,0,2,4.9,5.8,6.4c1.5,0.6,3.2,0.6,5.3-0.4c0.1-0.1,0.2-0.1,0.3-0.2c0.9-0.4,2-0.9,3.3-1.2c8.6-2.7,23.2-3.4,25.9,8.2
		c3.2,13.5,0.2,15-1.5,17.7c0,0,0,0,0,0c-1.7,2.7-7.2,4.7-7.2,4.7l0,0C536.4,225.7,520.4,226.5,506,216.3z"/>
	<g id="XMLID_1202_">
		<path id="XMLID_1661_" class="st2" d="M623.3,137.9c0,0-8.9-6.2-12.7-1.4c-3.8,4.9-10.4,13.1-2.6,29.3c7.8,16.2,37,2.8,39.8-4.7"
			/>
		<path id="XMLID_1660_" class="st2" d="M656,151.7L656,151.7c-5.4-14.4-17.2-25.7-35.2-27.5c-36-3.6-50.8,19.7-56.4,33.9
			c0,0-1.3,2.1-2.2,6.3c-0.7,2.5-0.9,4.6-0.8,5.5c-0.5,7.8,0.8,19.3,8,34.6c5.9,12.4,21,16.9,31,18.5c2.8,0.6,5.9,0.9,9.1,0.9
			c0.2,0,0.3,0,0.3,0l0,0c3.5-0.1,7.2-0.5,11.2-1.4c15.8-3.6,26.6-13.7,32.7-26.1c-1-14.3-13.3-16.1-20.7-17.2
			c-4-0.6-8.2,1.9-11.3,4.5c-0.3,0.3-0.7,0.6-1,0.8c-10.6,7.9-38.5-7.6-23.9-19.1c0,0,5-5.3,10.8-7.7h0c0,0,4.9-2.5,8.8-1.1
			c1.5,0.5,2.9,1.7,3.8,3.8c0,0.1,0.1,0.2,0.2,0.3c0.4,1,1,2,1.7,3.2c4.8,7.8,15.6,18.2,25.6,11c11.5-8.3,10.2-11.5,10.7-14.7l0,0
			C658.9,157,656,151.7,656,151.7z"/>
	</g>
	<g id="XMLID_1198_">
		<g id="XMLID_1200_">
			<path id="XMLID_1201_" class="st2" d="M369.7,169.5c0,0,6.8-35.6-23.2-25.5c-30.1,10.1-11.9,88.1,4,84.8
				C366.4,225.4,373.7,212.9,369.7,169.5z"/>
		</g>
		<path id="XMLID_1199_" class="st2" d="M353.4,95.5c0,0,33.8,19.4,0.5,33.7S330.7,77.8,353.4,95.5z"/>
	</g>
	<g id="XMLID_1192_">
		<path id="XMLID_1197_" class="st2" d="M419.5,143c0,0-4.1-20-23.7-13c-19.6,7-10,82.9-0.9,88.7S429.3,260.7,419.5,143z"/>
		<path id="XMLID_1196_" class="st2" d="M415,179.4c0,0,34.4-34,27.4,29.5c0,0,8.2,19.6,24.1,11.5c16-8.2,18.4-108.9-58.5-80.6"/>
	</g>
	<path id="XMLID_1679_" class="st2" d="M967.2,201.8c0,0,5,30,29,19.4c24-10.5,12.2-124.3,1.1-133.1S955.2,25.2,967.2,201.8z"/>
	<g id="XMLID_1677_">
		<path id="XMLID_1678_" class="st2" d="M986.6,113.1c0,0,30-20.3,1.6-34.5s-70.7,53.9-57.1,62.8
			C944.7,150.2,958.8,146.6,986.6,113.1z"/>
	</g>
	<path id="XMLID_1676_" class="st2" d="M1119.5,89.5c0,0-4-29.1-26.6-19.4s-13.9,119.9-3.8,128.6
		C1099.3,207.4,1127,260.4,1119.5,89.5z"/>
	<path id="XMLID_1675_" class="st2" d="M1125.5,156.3c4.9-2.2,8.2-4.9,9.1-8.1c8.9-31.7-22.6-24.5-22.6-24.5
		c-14.8-1.6-51.9-1.6-66.7,0c0,0-31.5-7.2-22.6,24.5c2.3,8.1,19.7,12.9,40.2,14.5l30.7,0.1c4.1-0.3,8.2-0.7,12-1.3"/>
	<g id="XMLID_1673_">
		<path id="XMLID_1674_" class="st2" d="M1057.6,98.4c0,0,6.8-35.6-23.2-25.5c-30.1,10.1-11.9,88.1,4,84.8
			C1054.3,154.3,1061.6,141.8,1057.6,98.4z"/>
	</g>
	<path id="XMLID_1672_" class="st2" d="M796,141.3c0.8-100.1-114-55.8-116.8-34.1s23.1,23,23.1,23c37.2-18.1,47.6-11.6,49.2-1.4
		C751.5,128.8,764.2,184,796,141.3"/>
	<g id="XMLID_1670_">
		<path id="XMLID_1671_" class="st2" d="M791.3,154.2c0,0,15.1-20.3-6.5-30.8s-83.5,61.9-81.9,74.5
			C704.6,210.4,691.2,262.2,791.3,154.2z"/>
	</g>
	<path id="XMLID_1669_" class="st2" d="M792.1,217.3c4.9-2.2,8.2-4.9,9.1-8.1c8.9-31.7-22.6-24.5-22.6-24.5
		c-14.8-1.6-51.9-1.6-66.7,0c0,0-31.5-7.2-22.6,24.5c2.3,8.1,19.7,12.9,40.2,14.5l30.7,0.1c4.1-0.3,8.2-0.7,12-1.3"/>
	<g id="XMLID_1663_">
		<path id="XMLID_1664_" class="st2" d="M912.1,131.5c-0.1-30.9-31.3-63.4-67.6-51.9c-21.1,6.7-28.9,21.1-30.8,35.7
			c-1.7,12.6-0.7,48.7-0.5,56.2c0.5,17.1,7,32.1,7,32.1s32.7,38.6,74.7,7.9c11.4-8.3,16.6-19.6,17.2-31.4
			C912.5,171.1,912.1,139.2,912.1,131.5z M851.6,180.7c-10.1-2.7-11.4-17.5-8.5-32.4c5.3-26.6,24.3-53.4,32.5-11.9
			c1,5.1,1.7,9.6,2.1,13.7C882.9,198.1,851.6,180.7,851.6,180.7z"/>
	</g>
	<g id="XMLID_1667_">
		<path id="XMLID_1681_" class="st2" d="M300.2,132c0,0,23.9-1.3,21.3-22.3c-2.1-16.7-69-47.1-96.3-10.7
			c-7.1,9.5-11.6,23.5-11.5,43.6c0,0.1,0.1,0.2,0.1,0.2c2,6.9,5.4,12.6,9.8,17.3c1.6,1.9,3.5,3.5,5.1,4.8
			c12.3,9.9,29.5,14.2,44.7,14.6c-2.2,9-12.4,14.1-45.2-2.7c0,0-23.9,1.3-21.3,22.3c2.1,16.7,69,47.1,96.4,10.7
			c7.1-9.5,11.5-23.5,11.4-43.6c0,0,0-0.1,0-0.1c-2-6.9-5.4-12.7-9.8-17.4c-1.6-1.9-3.5-3.5-5.1-4.7c-12.3-9.9-29.5-14.2-44.7-14.6
			C257.3,120.3,267.6,115.3,300.2,132z"/>
		<path id="XMLID_1680_" class="st2" d="M270,157.9c0,0,23,51.8-41.7,18.8c0,0-23.9,1.3-21.3,22.3s108.5,64,107.8-33"/>
		<path id="XMLID_1668_" class="st2" d="M258.5,150.8c0,0-23-51.8,41.7-18.8c0,0,23.9-1.3,21.3-22.3c-2.6-21-108.5-64-107.8,33"/>
	</g>
	<path id="XMLID_51_" class="st3" d="M506,196.3c-41.1-28.9-15.7-70.8-15.7-70.8c3.8-8.2,46.3-30.6,58.6-17.6l0,0
		c12.3,13,3,23.1-2.4,29c-4.2,4.6-13.2,3.8-17,3.2c-1.1-0.2-1.8-0.3-1.8-0.3c-7.7-1.1-14.9,1.6-13.1,10.8c0,0,0.3,7.1,3.1,12.6l0,0
		c0,0,2,4.9,5.8,6.4c1.5,0.6,3.2,0.6,5.3-0.4c0.1-0.1,0.2-0.1,0.3-0.2c0.9-0.4,2-0.9,3.3-1.2c8.6-2.7,23.2-3.4,25.9,8.2
		c3.2,13.5,0.2,15-1.5,17.7c0,0,0,0,0,0c-1.7,2.7-7.2,4.7-7.2,4.7l0,0C536.4,205.7,520.4,206.5,506,196.3z"/>
	<g id="XMLID_48_">
		<path id="XMLID_50_" class="st3" d="M623.3,117.9c0,0-8.9-6.2-12.7-1.4c-3.8,4.9-10.4,13.1-2.6,29.3c7.8,16.2,37,2.8,39.8-4.7"/>
		<path id="XMLID_49_" class="st3" d="M656,131.7L656,131.7c-5.4-14.4-17.2-25.7-35.2-27.5c-36-3.6-50.8,19.7-56.4,33.9
			c0,0-1.3,2.1-2.2,6.3c-0.7,2.5-0.9,4.6-0.8,5.5c-0.5,7.8,0.8,19.3,8,34.6c5.9,12.4,21,16.9,31,18.5c2.8,0.6,5.9,0.9,9.1,0.9
			c0.2,0,0.3,0,0.3,0l0,0c3.5-0.1,7.2-0.5,11.2-1.4c15.8-3.6,26.6-13.7,32.7-26.1c-1-14.3-13.3-16.1-20.7-17.2
			c-4-0.6-8.2,1.9-11.3,4.5c-0.3,0.3-0.7,0.6-1,0.8c-10.6,7.9-38.5-7.6-23.9-19.1c0,0,5-5.3,10.8-7.7h0c0,0,4.9-2.5,8.8-1.1
			c1.5,0.5,2.9,1.7,3.8,3.8c0,0.1,0.1,0.2,0.2,0.3c0.4,1,1,2,1.7,3.2c4.8,7.8,15.6,18.2,25.6,11c11.5-8.3,10.2-11.5,10.7-14.7l0,0
			C658.9,137,656,131.7,656,131.7z"/>
	</g>
	<g id="XMLID_44_">
		<g id="XMLID_46_">
			<path id="XMLID_47_" class="st3" d="M369.7,149.5c0,0,6.8-35.6-23.2-25.5c-30.1,10.1-11.9,88.1,4,84.8
				C366.4,205.4,373.7,192.9,369.7,149.5z"/>
		</g>
		<path id="XMLID_45_" class="st3" d="M353.4,75.5c0,0,33.8,19.4,0.5,33.7S330.7,57.8,353.4,75.5z"/>
	</g>
	<g id="XMLID_41_">
		<path id="XMLID_43_" class="st3" d="M419.5,123c0,0-4.1-20-23.7-13s-10,82.9-0.9,88.7S429.3,240.7,419.5,123z"/>
		<path id="XMLID_42_" class="st3" d="M415,159.4c0,0,34.4-34,27.4,29.5c0,0,8.2,19.6,24.1,11.5c16-8.2,18.4-108.9-58.5-80.6"/>
	</g>
	<path class="st3" d="M1000.5,73.4c0.1-5-3-10.2-12.2-14.8c-0.4-0.2-0.8-0.4-1.3-0.6c-5.3-4.7-11.1-7.4-15.5,0.3
		c-25.4,9.3-51.4,55.8-40.3,63.1c9.4,6.2,19.1,6.3,33.4-5.3c0,17.2,0.9,38.8,2.7,65.8c0,0,5,30,29,19.4
		C1017.9,191.8,1010.3,97.8,1000.5,73.4z"/>
	<path id="XMLID_37_" class="st3" d="M1119.5,69.5c0,0-4-29.1-26.6-19.4s-13.9,119.9-3.8,128.6C1099.3,187.4,1127,240.4,1119.5,69.5
		z"/>
	<path class="st3" d="M1112,103.7c-11.4-1.3-35.9-1.5-53.4-0.9c0.2-6.8-0.1-14.9-1-24.5c0,0,6.8-35.6-23.2-25.5
		c-18.4,6.2-18.7,37.6-12.6,60.4c-0.9,3.6-0.8,8.5,1,15c2.3,8.1,19.7,12.9,40.2,14.5l30.7,0.1c4.1-0.3,8.2-0.7,12-1.3l19.8-5.2
		c4.9-2.2,8.2-4.9,9.1-8.1C1143.5,96.5,1112,103.7,1112,103.7z"/>
	<path class="st3" d="M795.8,115.1c-4-92-113.9-49.1-116.7-27.9c-2.8,21.7,23.1,23,23.1,23c37.2-18.1,47.6-11.6,49.2-1.4
		c0,0,0.6,2.8,2,6.6c-24.6,19.3-51.6,54.1-50.5,62.5c1.6,12.5-11.8,64.3,88.3-43.7C791.3,134.2,798.5,124.5,795.8,115.1z"/>
	<path id="XMLID_30_" class="st3" d="M792.1,197.3c4.9-2.2,8.2-4.9,9.1-8.1c8.9-31.7-22.6-24.5-22.6-24.5c-14.8-1.6-51.9-1.6-66.7,0
		c0,0-31.5-7.2-22.6,24.5c2.3,8.1,19.7,12.9,40.2,14.5l30.7,0.1c4.1-0.3,8.2-0.7,12-1.3"/>
	<g id="XMLID_26_">
		<path id="XMLID_27_" class="st3" d="M912.1,111.5c-0.1-30.9-31.3-63.4-67.6-51.9c-21.1,6.7-28.9,21.1-30.8,35.7
			c-1.7,12.6-0.7,48.7-0.5,56.2c0.5,17.1,7,32.1,7,32.1s32.7,38.6,74.7,7.9c11.4-8.3,16.6-19.6,17.2-31.4
			C912.5,151.1,912.1,119.2,912.1,111.5z M851.6,160.7c-10.1-2.7-11.4-17.5-8.5-32.4c5.3-26.6,24.3-53.4,32.5-11.9
			c1,5.1,1.7,9.6,2.1,13.7C882.9,178.1,851.6,160.7,851.6,160.7z"/>
	</g>
	<g id="XMLID_22_">
		<path id="XMLID_25_" class="st3" d="M300.2,112c0,0,23.9-1.3,21.3-22.3c-2.1-16.7-69-47.1-96.3-10.7c-7.1,9.5-11.6,23.5-11.5,43.6
			c0,0.1,0.1,0.2,0.1,0.2c2,6.9,5.4,12.6,9.8,17.3c1.6,1.9,3.5,3.5,5.1,4.8c12.3,9.9,29.5,14.2,44.7,14.6c-2.2,9-12.4,14.1-45.2-2.7
			c0,0-23.9,1.3-21.3,22.3c2.1,16.7,69,47.1,96.4,10.7c7.1-9.5,11.5-23.5,11.4-43.6c0,0,0-0.1,0-0.1c-2-6.9-5.4-12.7-9.8-17.4
			c-1.6-1.9-3.5-3.5-5.1-4.7c-12.3-9.9-29.5-14.2-44.7-14.6C257.3,100.3,267.6,95.3,300.2,112z"/>
		<path id="XMLID_24_" class="st3" d="M270,137.9c0,0,23,51.8-41.7,18.8c0,0-23.9,1.3-21.3,22.3s108.5,64,107.8-33"/>
		<path id="XMLID_23_" class="st3" d="M258.5,130.8c0,0-23-51.8,41.7-18.8c0,0,23.9-1.3,21.3-22.3c-2.6-21-108.5-64-107.8,33"/>
	</g>
</g>
</svg>
