<?xml version="1.0" encoding="utf-8"?>
<!-- Generator: Adobe Illustrator 22.1.0, SVG Export Plug-In . SVG Version: 6.00 Build 0)  -->
<svg version="1.1" id="Layer_1" xmlns="http://www.w3.org/2000/svg" xmlns:xlink="http://www.w3.org/1999/xlink" x="0px" y="0px"
	 viewBox="0 0 870 621" style="enable-background:new 0 0 870 621;" xml:space="preserve">
<style type="text/css">
	.st0{opacity:0.1;}
	.st1{fill:#90A55E;stroke:#90A55E;stroke-width:1.25;stroke-linecap:round;stroke-miterlimit:10;}
	.st2{fill:#FCF4E9;stroke:#90A55E;stroke-width:1.25;stroke-linecap:round;stroke-miterlimit:10;}
</style>
<g>
	<g class="st0">
		<path id="XMLID_52_" class="st1" d="M-126.1,1173.1c75.5-160.7,165.6-359.3,214.2-461.6C176.2,526,276.5,241.4,276.5,241.4
			l76.8,39.8c0,0-219.9,484.9-246.4,594.8c-19,78.8-153,344.4-225.6,501.4"/>
		<path class="st1" d="M278.4,273.3c-10.3-11.2-19.1-30.4-19.1-63.1c0-15.1-2.4-38.4-1.5-41.4c1.4-5.1,0.1-33.1,2.8-43.5
			c-3.2-1.3-5.4-3.6-4.7-6.1c1.7-6.2-0.7-46.2,5.2-47.4c5.8-1.2,11.7-2.5,12.3,0.3c0,0,5.2,38.6,1.4,48.6c0.3,0.2,0.5,0.5,0.6,0.9
			c0,0,3,22.3,2.8,37.5c5.3-3.2,11.5-4.8,18.3-5.4c0.2-7.3-10.6-43.1-8.6-54.4c-2.1-0.9-3.5-2.4-3.4-4.4c0.5-7.9-14-54.1-6.9-57.7
			c7.1-3.6,14.2-7.2,15.8-4.2c0,0,18.1,44.4,15.6,57.2c-0.4,1.9-1.2,3.5-2.4,4.8c4,10.1,16.5,43.4,14.4,54.1c-0.4,2,10.1,4,10.5,2.8
			c2.3-7.2,0.7-48.9,6-60.4c-2-1.6-3-3.6-2.3-5.7c2.7-8.2,0.2-61.4,8.6-63.2c8.5-1.8,16.9-3.6,17.7,0.1c0,0,6.7,52.3,0.6,65.1
			c-0.9,1.9-2.3,3.4-3.8,4.5c1.4,12,5.3,50.8,0.2,61.5c-0.7,1.4,1.9,3.7,4.1,3.7c2.9,0,8.1-0.4,8.4-1c3.4-6.5,9.7-46.9,16.5-56.9
			c-1.4-1.9-2-4-1-5.9c3.9-7.4,11.6-59.1,19.4-59.1c7.7,0,15.5,0,15.5,3.7c0,0-3.9,51.7-11.6,62.8c-1.2,1.7-2.6,2.8-4.2,3.5
			c-1,11.8-4.8,49.9-11.3,59.3c-1.8,2.6,0.5,22.6,0.5,33.2c9.6-12.8,22.5-30.3,27.4-28.3c7.1,2.9,14.3,5.9,13.1,8.9
			c0,0-20.3,39.5-31.2,46.2c0.1,0.4,0.2,0.8,0,1.3c0,0-20.7,40.4-31.6,46.4c-0.7,0.4-1.4,0.7-2.2,0.9c-7.4,9.4-15.4,14.9-22.9,17.8"
			/>
		<path class="st1" d="M282.4,277.2c-1.3-1.2-2.6-2.4-3.9-3.8"/>
		<path id="XMLID_51_" class="st1" d="M272.5,299.2c0,0-46.2-69.7,19.2-46.4"/>
		<path class="st1" d="M360.4,39.2c0,0,2.9-8.6-2.9-8.6S346,27.7,346,36.4s5.8,8.6,5.8,8.6S357.4,47.9,360.4,39.2z"/>
		<path class="st1" d="M416.9,53.1c0,0,2.9-8.6-2.9-8.6s-11.5-2.9-11.5,5.8s5.8,8.6,5.8,8.6S414,61.7,416.9,53.1z"/>
		<path class="st1" d="M269,90.1c0,0,2.9-8.6-2.9-8.6s-11.5-2.9-11.5,5.8s5.8,8.6,5.8,8.6S266.1,98.7,269,90.1z"/>
		<path class="st1" d="M297,50.3c0,0,3.5-10.4-3.5-10.4c-6.9,0-13.9-3.5-13.9,6.9s6.9,10.4,6.9,10.4S293.5,60.8,297,50.3z"/>
		<path class="st1" d="M435.4,182.5c0,0,2.9-8.6-2.9-8.6s-11.4-2.9-11.4,5.7c0,8.6,5.7,8.6,5.7,8.6S432.4,191.1,435.4,182.5z"/>
		<path id="XMLID_50_" class="st1" d="M285.8,173.3c0,0-10.7,17.9-12.5,0.7"/>
		<path id="XMLID_49_" class="st1" d="M314.8,174.4c0,0-10.7,17.9-12.5,0.7"/>
		<path id="XMLID_48_" class="st1" d="M345.8,173.3c0,0-10.7,17.9-12.5,0.7"/>
		<path id="XMLID_47_" class="st1" d="M374.9,174.4c0,0-10.7,17.9-12.5,0.7"/>
		<path id="XMLID_46_" class="st1" d="M403.6,210.3c0,0,17.1,32.4-10.4,19.4"/>
		<path id="XMLID_45_" class="st1" d="M393.4,116.7c-2.1,0.5-4-1.1-4.6-7.4"/>
		<path id="XMLID_44_" class="st1" d="M350.1,104c-2.1-0.9-4.6-2-7.7-3.6"/>
		<path id="XMLID_43_" class="st1" d="M291.6,104.7"/>
		<path id="XMLID_42_" class="st1" d="M296.2,112.1c-1.6,0.4-3-0.4-3.9-3.5"/>
		<path id="XMLID_41_" class="st1" d="M265.2,127.1"/>
		<path id="XMLID_40_" class="st1" d="M268.5,132c-1.6,0.4-3.5,0.7-4.3-0.2"/>
	</g>
	<g class="st0">
		<path id="XMLID_39_" class="st1" d="M996,1173.1c-75.6-160.7-165.6-359.3-214.3-461.6C693.6,526,593.4,241.4,593.4,241.4
			l-76.8,39.8c0,0,219.9,484.9,246.4,594.8c19,78.8,153,344.4,225.6,501.4"/>
		<path class="st1" d="M591.4,273.3c10.3-11.2,19.1-30.4,19.1-63.1c0-15.1,2.4-38.4,1.5-41.4c-1.4-5.1-0.1-33.1-2.8-43.5
			c3.2-1.3,5.4-3.6,4.7-6.1c-1.7-6.2,0.7-46.2-5.2-47.4c-5.8-1.2-11.7-2.5-12.3,0.3c0,0-5.2,38.6-1.4,48.6c-0.3,0.2-0.5,0.5-0.6,0.9
			c0,0-3,22.3-2.8,37.5c-5.3-3.2-11.5-4.8-18.3-5.4c-0.2-7.3,10.6-43.1,8.6-54.4c2.1-0.9,3.5-2.4,3.4-4.4c-0.5-7.9,14-54.1,6.9-57.7
			S578,30,576.4,33c0,0-18.1,44.4-15.6,57.2c0.4,1.9,1.2,3.5,2.4,4.8c-4,10.1-16.5,43.4-14.4,54.1c0.4,2-10.1,4-10.5,2.8
			c-2.3-7.2-0.7-48.9-6-60.4c2-1.6,3-3.6,2.3-5.7c-2.7-8.2-0.2-61.4-8.6-63.2c-8.5-1.8-16.9-3.6-17.7,0.1c0,0-6.7,52.3-0.6,65.1
			c0.9,1.9,2.3,3.4,3.8,4.5c-1.4,12-5.3,50.8-0.2,61.5c0.7,1.4-1.9,3.7-4.1,3.7c-2.9,0-8.1-0.4-8.4-1c-3.4-6.5-9.7-46.9-16.5-56.9
			c1.4-1.9,2-4,1-5.9c-3.9-7.4-11.6-59.1-19.4-59.1c-7.7,0-15.5,0-15.5,3.7c0,0,3.9,51.7,11.6,62.8c1.2,1.7,2.6,2.8,4.2,3.5
			c1,11.8,4.8,49.9,11.3,59.3c1.8,2.6-0.5,22.6-0.5,33.2c-9.6-12.8-22.5-30.3-27.4-28.3c-7.1,2.9-14.3,5.9-13.1,8.9
			c0,0,20.3,39.5,31.2,46.2c-0.1,0.4-0.2,0.8,0,1.3c0,0,20.7,40.4,31.6,46.4c0.7,0.4,1.4,0.7,2.2,0.9c7.4,9.4,15.4,14.9,22.9,17.8"
			/>
		<path class="st1" d="M587.5,277.2c1.3-1.2,2.6-2.4,3.9-3.8"/>
		<path id="XMLID_38_" class="st1" d="M597.3,299.2c0,0,46.2-69.7-19.2-46.4"/>
		<path class="st1" d="M509.6,39.2c0,0-2.9-8.6,2.9-8.6s11.5-2.9,11.5,5.8s-5.8,8.6-5.8,8.6S512.5,47.9,509.6,39.2z"/>
		<path class="st1" d="M453,53.1c0,0-2.9-8.6,2.9-8.6s11.5-2.9,11.5,5.8s-5.8,8.6-5.8,8.6S455.9,61.7,453,53.1z"/>
		<path class="st1" d="M600.8,90.1c0,0-2.9-8.6,2.9-8.6s11.5-2.9,11.5,5.8s-5.8,8.6-5.8,8.6S603.7,98.7,600.8,90.1z"/>
		<path class="st1" d="M572.9,50.3c0,0-3.5-10.4,3.5-10.4c6.9,0,13.9-3.5,13.9,6.9s-6.9,10.4-6.9,10.4S576.3,60.8,572.9,50.3z"/>
		<path class="st1" d="M434.6,182.5c0,0-2.9-8.6,2.9-8.6s11.4-2.9,11.4,5.7c0,8.6-5.7,8.6-5.7,8.6S437.4,191.1,434.6,182.5z"/>
		<path id="XMLID_37_" class="st1" d="M584.2,173.3c0,0,10.7,17.9,12.5,0.7"/>
		<path id="XMLID_36_" class="st1" d="M555.1,174.4c0,0,10.7,17.9,12.5,0.7"/>
		<path id="XMLID_35_" class="st1" d="M524.1,173.3c0,0,10.7,17.9,12.5,0.7"/>
		<path id="XMLID_34_" class="st1" d="M495.1,174.4c0,0,10.7,17.9,12.5,0.7"/>
		<path id="XMLID_33_" class="st1" d="M466.2,210.3c0,0-17.1,32.4,10.4,19.4"/>
		<path id="XMLID_32_" class="st1" d="M476.6,116.7c2.1,0.5,4-1.1,4.6-7.4"/>
		<path id="XMLID_31_" class="st1" d="M519.7,104c2.1-0.9,4.6-2,7.7-3.6"/>
		<path id="XMLID_30_" class="st1" d="M578.2,104.7"/>
		<path id="XMLID_29_" class="st1" d="M573.6,112.1c1.6,0.4,3-0.4,3.9-3.5"/>
		<path id="XMLID_15_" class="st1" d="M604.7,127.1"/>
		<path id="XMLID_2_" class="st1" d="M601.3,132c1.6,0.4,3.5,0.7,4.3-0.2"/>
	</g>
	<g>
		<path id="XMLID_78_" class="st2" d="M-136.1,1153.1C-60.6,992.4,29.5,793.8,78.1,691.5C166.2,506,266.5,221.4,266.5,221.4
			l76.8,39.8c0,0-219.9,484.9-246.4,594.8c-19,78.8-153,344.4-225.6,501.4"/>
		<path class="st2" d="M268.4,253.3c-10.3-11.2-19.1-30.4-19.1-63.1c0-15.1-2.4-38.4-1.5-41.4c1.4-5.1,0.1-33.1,2.8-43.5
			c-3.2-1.3-5.4-3.6-4.7-6.1c1.7-6.2-0.7-46.2,5.2-47.4c5.8-1.2,11.7-2.5,12.3,0.3c0,0,5.2,38.6,1.4,48.6c0.3,0.2,0.5,0.5,0.6,0.9
			c0,0,3,22.3,2.8,37.5c5.3-3.2,11.5-4.8,18.3-5.4c0.2-7.3-10.6-43.1-8.6-54.4c-2.1-0.9-3.5-2.4-3.4-4.4c0.5-7.9-14-54.1-6.9-57.7
			s14.2-7.2,15.8-4.2c0,0,18.1,44.4,15.6,57.2c-0.4,1.9-1.2,3.5-2.4,4.8c4,10.1,16.5,43.4,14.4,54.1c-0.4,2,10.1,4,10.5,2.8
			c2.3-7.2,0.7-48.9,6-60.4c-2-1.6-3-3.6-2.3-5.7c2.7-8.2,0.2-61.4,8.6-63.2c8.5-1.8,16.9-3.6,17.7,0.1c0,0,6.7,52.3,0.6,65.1
			c-0.9,1.9-2.3,3.4-3.8,4.5c1.4,12,5.3,50.8,0.2,61.5c-0.7,1.4,1.9,3.7,4.1,3.7c2.9,0,8.1-0.4,8.4-1c3.4-6.5,9.7-46.9,16.5-56.9
			c-1.4-1.9-2-4-1-5.9c3.9-7.4,11.6-59.1,19.4-59.1c7.7,0,15.5,0,15.5,3.7c0,0-3.9,51.7-11.6,62.8c-1.2,1.7-2.6,2.8-4.2,3.5
			c-1,11.8-4.8,49.9-11.3,59.3c-1.8,2.6,0.5,22.6,0.5,33.2c9.6-12.8,22.5-30.3,27.4-28.3c7.1,2.9,14.3,5.9,13.1,8.9
			c0,0-20.3,39.5-31.2,46.2c0.1,0.4,0.2,0.8,0,1.3c0,0-20.7,40.4-31.6,46.4c-0.7,0.4-1.4,0.7-2.2,0.9c-7.4,9.4-15.4,14.9-22.9,17.8"
			/>
		<path class="st2" d="M272.4,257.2c-1.3-1.2-2.6-2.4-3.9-3.8"/>
		<path id="XMLID_77_" class="st2" d="M262.5,279.2c0,0-46.2-69.7,19.2-46.4"/>
		<path class="st2" d="M350.4,19.2c0,0,2.9-8.6-2.9-8.6S336,7.7,336,16.4s5.8,8.6,5.8,8.6S347.4,27.9,350.4,19.2z"/>
		<path class="st2" d="M406.9,33.1c0,0,2.9-8.6-2.9-8.6s-11.5-2.9-11.5,5.8s5.8,8.6,5.8,8.6S404,41.7,406.9,33.1z"/>
		<path class="st2" d="M259,70.1c0,0,2.9-8.6-2.9-8.6s-11.5-2.9-11.5,5.8s5.8,8.6,5.8,8.6S256.1,78.7,259,70.1z"/>
		<path class="st2" d="M287,30.3c0,0,3.5-10.4-3.5-10.4c-6.9,0-13.9-3.5-13.9,6.9s6.9,10.4,6.9,10.4S283.5,40.8,287,30.3z"/>
		<path class="st2" d="M425.4,162.5c0,0,2.9-8.6-2.9-8.6s-11.4-2.9-11.4,5.7c0,8.6,5.7,8.6,5.7,8.6S422.4,171.1,425.4,162.5z"/>
		<path id="XMLID_76_" class="st2" d="M275.8,153.3c0,0-10.7,17.9-12.5,0.7"/>
		<path id="XMLID_75_" class="st2" d="M304.8,154.4c0,0-10.7,17.9-12.5,0.7"/>
		<path id="XMLID_74_" class="st2" d="M335.8,153.3c0,0-10.7,17.9-12.5,0.7"/>
		<path id="XMLID_73_" class="st2" d="M364.9,154.4c0,0-10.7,17.9-12.5,0.7"/>
		<path id="XMLID_72_" class="st2" d="M393.6,190.3c0,0,17.1,32.4-10.4,19.4"/>
		<path id="XMLID_71_" class="st2" d="M383.4,96.7c-2.1,0.5-4-1.1-4.6-7.4"/>
		<path id="XMLID_70_" class="st2" d="M340.1,84c-2.1-0.9-4.6-2-7.7-3.6"/>
		<path id="XMLID_69_" class="st2" d="M281.6,84.7"/>
		<path id="XMLID_68_" class="st2" d="M286.2,92.1c-1.6,0.4-3-0.4-3.9-3.5"/>
		<path id="XMLID_67_" class="st2" d="M255.2,107.1"/>
		<path id="XMLID_66_" class="st2" d="M258.5,112c-1.6,0.4-3.5,0.7-4.3-0.2"/>
	</g>
	<g>
		<path id="XMLID_65_" class="st2" d="M1006,1153.1c-75.6-160.7-165.6-359.3-214.3-461.6C703.6,506,603.4,221.4,603.4,221.4
			l-76.8,39.8c0,0,219.9,484.9,246.4,594.8c19,78.8,153,344.4,225.6,501.4"/>
		<path class="st2" d="M601.4,253.3c10.3-11.2,19.1-30.4,19.1-63.1c0-15.1,2.4-38.4,1.5-41.4c-1.4-5.1-0.1-33.1-2.8-43.5
			c3.2-1.3,5.4-3.6,4.7-6.1c-1.7-6.2,0.7-46.2-5.2-47.4c-5.8-1.2-11.7-2.5-12.3,0.3c0,0-5.2,38.6-1.4,48.6c-0.3,0.2-0.5,0.5-0.6,0.9
			c0,0-3,22.3-2.8,37.5c-5.3-3.2-11.5-4.8-18.3-5.4c-0.2-7.3,10.6-43.1,8.6-54.4c2.1-0.9,3.5-2.4,3.4-4.4c-0.5-7.9,14-54.1,6.9-57.7
			S588,10,586.4,13c0,0-18.1,44.4-15.6,57.2c0.4,1.9,1.2,3.5,2.4,4.8c-4,10.1-16.5,43.4-14.4,54.1c0.4,2-10.1,4-10.5,2.8
			c-2.3-7.2-0.7-48.9-6-60.4c2-1.6,3-3.6,2.3-5.7c-2.7-8.2-0.2-61.4-8.6-63.2c-8.5-1.8-16.9-3.6-17.7,0.1c0,0-6.7,52.3-0.6,65.1
			c0.9,1.9,2.3,3.4,3.8,4.5c-1.4,12-5.3,50.8-0.2,61.5c0.7,1.4-1.9,3.7-4.1,3.7c-2.9,0-8.1-0.4-8.4-1c-3.4-6.5-9.7-46.9-16.5-56.9
			c1.4-1.9,2-4,1-5.9c-3.9-7.4-11.6-59.1-19.4-59.1c-7.7,0-15.5,0-15.5,3.7c0,0,3.9,51.7,11.6,62.8c1.2,1.7,2.6,2.8,4.2,3.5
			c1,11.8,4.8,49.9,11.3,59.3c1.8,2.6-0.5,22.6-0.5,33.2c-9.6-12.8-22.5-30.3-27.4-28.3c-7.1,2.9-14.3,5.9-13.1,8.9
			c0,0,20.3,39.5,31.2,46.2c-0.1,0.4-0.2,0.8,0,1.3c0,0,20.7,40.4,31.6,46.4c0.7,0.4,1.4,0.7,2.2,0.9c7.4,9.4,15.4,14.9,22.9,17.8"
			/>
		<path class="st2" d="M597.5,257.2c1.3-1.2,2.6-2.4,3.9-3.8"/>
		<path id="XMLID_64_" class="st2" d="M607.3,279.2c0,0,46.2-69.7-19.2-46.4"/>
		<path class="st2" d="M519.6,19.2c0,0-2.9-8.6,2.9-8.6c5.8,0,11.5-2.9,11.5,5.8s-5.8,8.6-5.8,8.6S522.5,27.9,519.6,19.2z"/>
		<path class="st2" d="M463,33.1c0,0-2.9-8.6,2.9-8.6s11.5-2.9,11.5,5.8s-5.8,8.6-5.8,8.6S465.9,41.7,463,33.1z"/>
		<path class="st2" d="M610.8,70.1c0,0-2.9-8.6,2.9-8.6s11.5-2.9,11.5,5.8s-5.8,8.6-5.8,8.6S613.7,78.7,610.8,70.1z"/>
		<path class="st2" d="M582.9,30.3c0,0-3.5-10.4,3.5-10.4c6.9,0,13.9-3.5,13.9,6.9s-6.9,10.4-6.9,10.4S586.3,40.8,582.9,30.3z"/>
		<path class="st2" d="M444.6,162.5c0,0-2.9-8.6,2.9-8.6s11.4-2.9,11.4,5.7c0,8.6-5.7,8.6-5.7,8.6S447.4,171.1,444.6,162.5z"/>
		<path id="XMLID_63_" class="st2" d="M594.2,153.3c0,0,10.7,17.9,12.5,0.7"/>
		<path id="XMLID_62_" class="st2" d="M565.1,154.4c0,0,10.7,17.9,12.5,0.7"/>
		<path id="XMLID_61_" class="st2" d="M534.1,153.3c0,0,10.7,17.9,12.5,0.7"/>
		<path id="XMLID_60_" class="st2" d="M505.1,154.4c0,0,10.7,17.9,12.5,0.7"/>
		<path id="XMLID_59_" class="st2" d="M476.2,190.3c0,0-17.1,32.4,10.4,19.4"/>
		<path id="XMLID_58_" class="st2" d="M486.6,96.7c2.1,0.5,4-1.1,4.6-7.4"/>
		<path id="XMLID_57_" class="st2" d="M529.7,84c2.1-0.9,4.6-2,7.7-3.6"/>
		<path id="XMLID_56_" class="st2" d="M588.2,84.7"/>
		<path id="XMLID_55_" class="st2" d="M583.6,92.1c1.6,0.4,3-0.4,3.9-3.5"/>
		<path id="XMLID_54_" class="st2" d="M614.7,107.1"/>
		<path id="XMLID_53_" class="st2" d="M611.3,112c1.6,0.4,3.5,0.7,4.3-0.2"/>
	</g>
</g>
</svg>
