<?xml version="1.0" encoding="utf-8"?>
<!-- Generator: Adobe Illustrator 22.1.0, SVG Export Plug-In . SVG Version: 6.00 Build 0)  -->
<svg version="1.1" id="Layer_1" xmlns="http://www.w3.org/2000/svg" xmlns:xlink="http://www.w3.org/1999/xlink" x="0px" y="0px"
	 viewBox="0 0 485.1 377.3" style="enable-background:new 0 0 485.1 377.3;" xml:space="preserve">
<style type="text/css">
	.st0{opacity:0.1;fill:#231F20;stroke:#231F20;stroke-miterlimit:10;enable-background:new    ;}
	.st1{fill:#E6C86B;stroke:#584C4F;stroke-width:2;stroke-miterlimit:10;}
	.st2{fill:#FCDE82;stroke:#584C4F;stroke-width:2;stroke-miterlimit:10;}
	.st3{fill:none;stroke:#584C4F;stroke-width:2;stroke-miterlimit:10;}
	.st4{fill:#FCDB77;stroke:#584C4F;stroke-width:2;stroke-miterlimit:10;}
	.st5{fill:#FFD767;stroke:#584C4F;stroke-width:2;stroke-miterlimit:10;}
	.st6{fill:#FFFAF2;stroke:#584C4F;stroke-width:2;stroke-miterlimit:10;}
	.st7{fill:#FFF5D0;stroke:#584C4F;stroke-width:2;stroke-miterlimit:10;}
	.st8{fill:#FBE391;stroke:#584C4F;stroke-width:2;stroke-miterlimit:10;}
	.st9{fill:#FBE7A0;stroke:#584C4F;stroke-width:2;stroke-miterlimit:10;}
	.st10{fill:#FDEBB0;stroke:#584C4F;stroke-width:2;stroke-miterlimit:10;}
	.st11{fill:#FFF0C2;stroke:#584C4F;stroke-width:2;stroke-miterlimit:10;}
	.st12{fill:#FDF7E0;stroke:#584C4F;stroke-width:2;stroke-miterlimit:10;}
</style>
<g id="Layer_5">
</g>
<g id="Layer_3">
</g>
<g>
	<g>
		<g>
			<path class="st0" d="M380.3,21.9c0,0-19.7-17.6-27.8,4.5c-6,0.8-11.7,6.4-13.7,23.2c0,0-0.5,9.7-3.6,17.9
				c-11.5,0.9-18.2-16.9-17-23.3c0,0-2-36.2-26.5-25.5c-3.6,1.6-6.3,5.1-8.2,10c-0.9,0.3-1.8,0.6-2.8,1c-10.3,4.5-13.8,25.4-9.8,47
				c-11.1,3.7-23.2-1.6-18.2-47c0,0-10.2-24.4-30-14.3c-2.5,1.3-4.8,4.5-6.6,9c-0.9-0.8-1.9-1.5-2.9-2.3
				c-49.2-36.1-87.6,9.2-87.6,9.2s-0.1,0.2-0.2,0.6c-10.7-17.8-30-29.1-61.7-21C60,4.4,52.3-3,37.2,2.4c-4,1.4-7,5.2-9.2,10.4
				c-0.6,0.2-1.2,0.4-1.8,0.6c-24.4,8.7-12.4,103.1-1.1,110.4c3.3,2.1,8.4,7.5,13.6,10.4c-1.6,30.5,5.8,69.6,12.9,74.2
				c7.1,4.6,22.4,24.3,29.5,1.1c8.5,1,16-10.3,14.7-61.3c10-1.5,19.4,6.9,14.9,47.8c0,0,10,23.9,29.4,14.6c2.9,4.4,6.1,6.8,9.3,6.2
				c5.8-1.2,10.5-3.7,14-8.3c4.9,5.3,11.8,9.8,21.2,12.8c13.4,4.3,26.1,2.7,37-2.4c-0.6,9.4-2.4,17.7-6.4,24.4
				c-0.9,0.5-1.8,1-2.7,1.5c-9.3,4.6-13.7,9.1-15.1,13.2c-28.3,16.6,4.1,31.7,4.1,31.7c22,0.2,35.2-6.8,43.1-18.7
				c14.2-9.3,19.6-26.2,21.3-47.5c2.3,0.6,4.5,1,6.5,1.3c3,0.6,6.2,1,9.6,0.9c0.2,0,0.3,0,0.3,0l0,0c3.7-0.1,7.6-0.5,11.8-1.5
				c10.5-2.4,19-7.5,25.4-14.3c1.3,3.4,2.6,5.8,3.9,6.8c7,5.3,21.7,27.3,29,3.1c10.5,2.1,19.6-16.4,13.3-113.3
				C398.4,80,380.3,21.9,380.3,21.9z M196,156.6c7.2-1.4,26.4-3.3,18.7,18.8C206.4,175.7,197.2,165.1,196,156.6z M69.3,63.7
				c7.9-1.1,15.4,3.8,16,25.8c-3.6-3.1-8.8-5.2-16-4C69.5,79.2,69.5,71.9,69.3,63.7z M176,81.4c-4.5-6.5-12.7-11.3-12.7-11.3
				c-2-1.6-3.9-2.5-5.7-2.9c-0.7-1.7-1.2-3.4-1.4-5.1C163.3,60.7,184,58.2,176,81.4z M275.4,158.1c0.7-0.4,1.4-0.9,2.1-1.2
				c0.6,2.4,1.5,4.9,2.9,7.7c4,8.3,13.6,9,22.4,6.6c0.7,0.6,1.4,1.2,2.1,1.7c-0.1,0.1-0.2,0.1-0.2,0.2
				C295,180.2,271.8,169.1,275.4,158.1z"/>
			<path class="st0" d="M285.3,77.2c-1.2,6.6,5.9,25.3,18.1,23.2c4.8-0.8,7.9-5.5,9.9-10.9c-11.5,0.9-18.2-16.9-17-23.3
				c0,0-2-36.2-26.5-25.5c-3.6,1.6-6.3,5.1-8.3,10C283.4,43.9,285.3,77.2,285.3,77.2z"/>
			<g>
				<g id="XMLID_10821_">
					<path id="XMLID_10829_" class="st1" d="M307.3,55.2c0,0-2-36.2-26.5-25.5s-10.7,113.1,51.4,98.3s37-95.2,37-95.2
						s-25.8-23-30.4,16.7c0,0-1.4,26.7-13.5,28.8S306.1,61.9,307.3,55.2z"/>
					<g id="XMLID_10827_">
						<path id="XMLID_10828_" class="st1" d="M276,77.4c0,0-42.8,42.3-34.1-36.7c0,0-10.2-24.4-30-14.3S189,161.9,284.7,126.7
							c0,0,25.8-9.8,32.7-14.9"/>
					</g>
					<path id="XMLID_10826_" class="st2" d="M237.3,42.8c0,0-4,1.9-5.2,3.8"/>
					<path id="XMLID_10825_" class="st2" d="M299.3,42.8c0,0-4,1.9-5.2,3.8"/>
					<path id="XMLID_10824_" class="st2" d="M242.3,86.8c0,0-4,1.9-5.2,3.8"/>
					<path id="XMLID_10823_" class="st2" d="M310.3,75.8c0,0-4,1.9-5.2,3.8"/>
					<path id="XMLID_10822_" class="st2" d="M363.3,33.8c0,0-4,1.9-5.2,3.8"/>
				</g>
				<g id="XMLID_10753_">
					<path id="XMLID_10820_" class="st2" d="M296.3,66.2c0,0-2-36.2-26.5-25.5s-10.7,113.1,51.4,98.3s37-95.2,37-95.2
						s-25.8-23-30.4,16.7c0,0-1.4,26.7-13.5,28.8S295.1,72.9,296.3,66.2z"/>
					<g id="XMLID_10818_">
						<path id="XMLID_10819_" class="st2" d="M265,88.4c0,0-42.8,42.3-34.1-36.7c0,0-10.2-24.4-30-14.3S178,172.9,273.7,137.7
							c0,0,25.8-9.8,32.7-14.9"/>
					</g>
					<line id="XMLID_10817_" class="st3" x1="221.3" y1="133.9" x2="225.3" y2="135.6"/>
					<path id="XMLID_10816_" class="st2" d="M314.5,107.1c0,0,1.6,3.3-1,4.7"/>
					<path id="XMLID_10815_" class="st2" d="M357.1,100.3c0,0-0.7,3-1.6,4"/>
					<path id="XMLID_10814_" class="st2" d="M333.2,59.1c0,0,1.3-5.6,0-5.6"/>
					<path id="XMLID_10813_" class="st2" d="M210.7,40.7c0,0,5.2,0.7,4.7,1.6"/>
					<path id="XMLID_10807_" class="st2" d="M244.4,107.4c0,0,6.1-0.9,6.5-2"/>
					<path id="XMLID_10806_" class="st2" d="M275.3,45.8c0,0-4,1.9-5.2,3.8"/>
					<line id="XMLID_10791_" class="st3" x1="314.3" y1="92.8" x2="318.5" y2="91.7"/>
					<line id="XMLID_10790_" class="st3" x1="323.4" y1="132.5" x2="327.6" y2="131.4"/>
					<path class="st0" d="M285.3,77.2c-1.2,6.6,5.9,25.3,18.1,23.2c4.8-0.8,7.9-5.5,9.9-10.9c-11.5,0.9-18.2-16.9-17-23.3
						c0,0-2-36.2-26.5-25.5c-3.6,1.6-6.3,5.1-8.3,10C283.4,43.9,285.3,77.2,285.3,77.2z"/>
				</g>
			</g>
			<path class="st0" d="M219.8,62.7c-7,63.9,19.7,48.4,30.1,40.2c-0.3-1.4-0.6-2.8-0.9-4.1c-11.1,3.7-23.2-1.6-18.2-47
				c0,0-10.2-24.4-30-14.3c-2.6,1.3-4.9,4.6-6.8,9.3C211.1,41.8,219.8,62.7,219.8,62.7z"/>
			<path class="st0" d="M358.3,43.9c0,0-19.7-17.6-27.8,4.5c8.2-1.2,16.8,6.5,16.8,6.5s14.5,46.6-5.9,75.3
				C377.2,104.7,358.3,43.9,358.3,43.9z"/>
			<g>
				<g id="XMLID_10643_">
					<path id="XMLID_10738_" class="st1" d="M202.3,33.2c-49.2-36.1-87.6,9.2-87.6,9.2s-31.6,72.3,28.5,91.4
						C203.2,152.9,251.5,69.3,202.3,33.2z M175.4,83c-11.4,29.7-46.5-16.9-21.5-20.3C153.9,62.7,186.8,53.3,175.4,83z"/>
					<path id="XMLID_10658_" class="st2" d="M194.3,33.8c0,0-4,1.9-5.2,3.8"/>
					<path id="XMLID_10657_" class="st2" d="M174.3,24.8c0,0-4,1.9-5.2,3.8"/>
				</g>
			</g>
			<g id="XMLID_10269_">
				<path id="XMLID_10642_" class="st4" d="M160.4,51.3"/>
				<path id="XMLID_10614_" class="st4" d="M191.3,44.2c-49.2-36.1-87.6,9.2-87.6,9.2s-31.6,72.3,28.5,91.4
					C192.2,163.9,240.5,80.3,191.3,44.2z M164.4,94c-11.4,29.7-46.5-16.9-21.5-20.3C142.9,73.7,175.8,64.3,164.4,94z"/>
				<path id="XMLID_10613_" class="st4" d="M172,39.6"/>
				<line id="XMLID_10612_" class="st3" x1="115.8" y1="130.2" x2="119.8" y2="132"/>
				<path id="XMLID_10611_" class="st4" d="M176.2,133.9c0,0-0.7,3.6-3.6,3.2"/>
				<path id="XMLID_10610_" class="st4" d="M168.9,94.6c0,0-0.7,3-1.6,4"/>
				<path id="XMLID_10274_" class="st4" d="M205,92.3c0,0,1.3-5.6,0-5.6"/>
				<path id="XMLID_10273_" class="st4" d="M169.1,38.8c0,0,5.2,0.7,4.7,1.6"/>
				<path id="XMLID_10272_" class="st4" d="M135.3,103.4c0,0,5.1,3.5,6.1,2.9"/>
				<path id="XMLID_10271_" class="st4" d="M112.6,54.4c0,0-4,1.9-5.2,3.8"/>
				<line id="XMLID_10270_" class="st3" x1="136.3" y1="70" x2="140.5" y2="68.9"/>
				<path class="st0" d="M191.3,44.2c-49.2-36.1-87.6,9.2-87.6,9.2S103.4,54,103,55c14.6-11,43.4-24.8,77.3,0.1
					c27.7,20.3,24.5,55.7,5.7,79.4C213.8,112.5,223.7,68,191.3,44.2z"/>
			</g>
			<g>
				<g id="XMLID_10262_">
					<path id="XMLID_10268_" class="st1" d="M55.7,29.5c0,0-5.1-24.9-29.5-16.1s-12.4,103.1-1.1,110.4
						C36.3,131.1,67.9,176.1,55.7,29.5z"/>
					<path id="XMLID_10267_" class="st1" d="M50.1,74.8c0,0,42.8-42.3,34.1,36.7c0,0,10.2,24.4,30,14.3s23-135.5-72.8-100.4"/>
					<path id="XMLID_10266_" class="st2" d="M101.3,33.8c0,0-4,1.9-5.2,3.8"/>
					<path id="XMLID_10265_" class="st2" d="M39.3,15.8c0,0-4,1.9-5.2,3.8"/>
					<path id="XMLID_10264_" class="st2" d="M52.6,115.4c-1,0.7-2,1.5-2.5,2.3"/>
					<path id="XMLID_10263_" class="st2" d="M121.3,91.8c0,0-1.3,0.6-2.7,1.5"/>
				</g>
				<g id="XMLID_6178_">
					<path id="XMLID_10261_" class="st5" d="M44.7,40.5c0,0-5.1-24.9-29.5-16.1S2.8,127.5,14.1,134.8S56.9,187.1,44.7,40.5z"/>
					<path id="XMLID_10260_" class="st5" d="M39.1,85.8c0,0,42.8-42.3,34.1,36.7c0,0,10.2,24.4,30,14.3s23-135.5-72.8-100.4"/>
					<line id="XMLID_10259_" class="st3" x1="25.4" y1="133.9" x2="29.4" y2="135.6"/>
					<path id="XMLID_10258_" class="st5" d="M98.5,123.3c0,0,1.6,3.3-1,4.7"/>
					<path id="XMLID_10257_" class="st5" d="M108,82.7c0,0-0.7,3-1.6,4"/>
					<path id="XMLID_10256_" class="st5" d="M40,107.9c0,0,1.3-5.6,0-5.6"/>
					<path id="XMLID_10255_" class="st5" d="M70.1,69.5c0,0,5.2,0.7,4.7,1.6"/>
					<path id="XMLID_10254_" class="st5" d="M19.2,95.8c0,0,6.1-0.9,6.5-2"/>
					<path id="XMLID_6180_" class="st5" d="M50.1,37.7c0,0-4,1.9-5.2,3.8"/>
					<line id="XMLID_6179_" class="st3" x1="13.4" y1="44.2" x2="17.7" y2="43.1"/>
					<path class="st0" d="M41.7,32.9C38,26.4,30.3,19,15.2,24.4c-4,1.4-7,5.2-9.2,10.4c13.9-4.2,21.2,2.9,24.7,9.1
						c72.8-18.7,80,65.1,68.4,94.5c1.4-0.4,2.8-0.9,4.3-1.7C122.3,127,125.9,11.3,41.7,32.9z"/>
				</g>
			</g>
			<path class="st0" d="M360,100.6c0,0-5.1-29-29.5-18.8c-3.5,1.5-6.3,5-8.4,10c-0.8,0.3-1.7,0.6-2.6,1c-0.4,0.2-0.8,0.4-1.2,0.6
				c-0.1,0.1-0.2,0.2-0.3,0.2c-0.3,0.2-0.5,0.4-0.8,0.6c-0.1,0.1-0.2,0.2-0.4,0.3c-0.3,0.2-0.5,0.4-0.7,0.7
				c-0.1,0.1-0.2,0.2-0.3,0.3c-0.3,0.3-0.5,0.5-0.7,0.8c-0.1,0.1-0.2,0.2-0.3,0.3c-0.3,0.3-0.5,0.7-0.8,1.1c0,0.1-0.1,0.1-0.1,0.2
				c-1,1.4-1.8,3.1-2.6,4.9l0,0l0,0c-1.5,3.6-2.7,8-3.6,12.9c-2.4-0.6-5-1.1-7.6-1.4c-19.7-2-33.5,3.7-42.9,11.8
				c-6.5-20.4-20.3-12.8-27.2-7.4c-26-11.5-47.2,0.9-57.5,9.3c-3.3-4.8-9.5-7.4-20.9-3.6c-0.8,0.3-1.5,0.6-2.3,0.9
				c-0.8-1.5-1.6-3-2.5-4.5c0.4-0.2,0.9-0.3,1.3-0.5c7-3,11.1-6.2,13.2-9.5c19.3-13.8-8.7-29.9-8.7-29.9c-7.3-5.7-13.3-2.9-17,3
				c-5.1,2.8-8.4,10.4-9.1,18.1c-10.5-4.9-23.9-6.1-41-1.8c-3.7-6.5-11.4-13.9-26.5-8.5c-4,1.4-7,5.2-9.2,10.4
				c-0.6,0.2-1.2,0.4-1.8,0.6c-24.8,9-12.8,103.4-1.5,110.7c7.1,4.6,22.4,24.3,29.5,1.1c8.5,1,16-10.3,14.7-61.3
				c10-1.5,19.4,6.9,14.9,47.8c0,0,10,23.9,29.4,14.6c2.9,4.4,6.1,6.8,9.3,6.2c5.8-1.2,10.5-3.7,14-8.3c4.9,5.3,11.8,9.8,21.2,12.8
				c13.4,4.3,26.1,2.7,37-2.4c-0.6,9.4-2.4,17.7-6.4,24.4c-0.9,0.5-1.8,1-2.7,1.5c-9.3,4.6-13.7,9.1-15.1,13.2
				c-28.3,16.6,4.1,31.7,4.1,31.7c19.9,0.1,32.6-5.6,40.7-15.5l0,0c0.9-1,1.7-2.1,2.4-3.3c14.2-9.3,19.6-26.2,21.3-47.5
				c2.3,0.6,4.5,1,6.5,1.3c3,0.6,6.2,1,9.6,0.9c0.2,0,0.3,0,0.3,0l0,0c3.7-0.1,7.6-0.5,11.8-1.5c10.5-2.4,19-7.5,25.4-14.3
				c1.3,3.4,2.6,5.8,3.9,6.8c4.4,3.3,11.8,13.2,18.5,14.1l0,0c0.5,0.1,1,0.1,1.5,0l0,0c0.2,0,0.3,0,0.5-0.1l0,0
				c0.5-0.1,1-0.2,1.4-0.4l0,0c0.1-0.1,0.3-0.1,0.4-0.2c0,0,0,0,0.1,0c0.5-0.2,0.9-0.6,1.4-0.9l0,0c0.1-0.1,0.3-0.2,0.4-0.4
				c0,0,0,0,0.1-0.1s0.3-0.3,0.4-0.4l0,0c0.3-0.3,0.6-0.7,0.8-1.1c0,0,0-0.1,0.1-0.1c0.1-0.2,0.2-0.3,0.3-0.5l0.1-0.1
				c0.1-0.2,0.2-0.4,0.3-0.6c0,0,0-0.1,0.1-0.1c0.3-0.5,0.5-1,0.8-1.5c0,0,0-0.1,0.1-0.1c0.1-0.2,0.2-0.4,0.3-0.7
				c0-0.1,0.1-0.1,0.1-0.2c0.1-0.2,0.2-0.5,0.3-0.7c0-0.1,0-0.1,0.1-0.2c0.2-0.6,0.5-1.3,0.7-2c0-0.1,0-0.1,0.1-0.2
				c0.1-0.2,0.1-0.4,0.2-0.6C358.2,227,367.6,207,360,100.6z M270.4,163.1c1.4-0.9,2.9-1.8,4.5-2.4l0,0c0,0,5.1-2.6,9.3-1.1
				c1.6,0.6,3.1,1.8,4.1,4c0,0.1,0.1,0.2,0.2,0.4c0.5,1,1.1,2.2,1.8,3.3c2.2,3.6,5.7,7.7,9.7,10.6c-0.1,0.1-0.2,0.1-0.2,0.2
				C290,185.2,266.8,174.1,270.4,163.1z M191,161.6c7.2-1.4,26.4-3.3,18.7,18.8C201.4,180.7,192.2,170.1,191,161.6z"/>
			<g>
				<g id="XMLID_6176_">
					<path id="XMLID_6177_" class="st1" d="M169,156.4c0,0,7-36.2-23.7-26s-12.1,89.7,4.1,86.3C165.6,213.4,173,200.7,169,156.4z"/>
				</g>
			</g>
			<path id="XMLID_6175_" class="st1" d="M295.9,136.1c0,0-9-6.3-12.9-1.4c-3.9,5-10.6,13.4-2.6,29.8c7.9,16.5,37.7,2.9,40.6-4.8"/>
			<path id="XMLID_6172_" class="st6" d="M316,265.9c-1.2-9.1-3.3-12.8-6.1-14.4c0,0-14.6-5.4-18.6,8.4s8.3,16.5,9.9,16.4
				C302.9,276.2,317.2,275,316,265.9z M306.6,265c-0.4,0.8-1.3,1.4-3.7,2c-2.4,0.5-3.1-3.3-3.1-3.7c-0.1-0.4,0.4-3.8,4.2-3
				C307.7,261,306.6,265,306.6,265z"/>
			<g>
				<g id="XMLID_6160_">
					<path id="XMLID_6163_" class="st6" d="M338.3,270.1"/>
					<path id="XMLID_6162_" class="st6" d="M346.8,269.6c0-3.6-0.3-8.6,1.1-9.7c1.8-1.5,7.9-0.9,7,2.9c-0.5,2.2-0.5,4.7-0.5,6.4
						c0,1.2,0.1,2.2,0.1,2.5c0,1,0.4,3,3.7,3.3c4.4,0.5,5-0.9,5-4s3.6-18-9.1-20.6c-8.9-1.8-13.6,3.2-15.6,7.3"/>
					<path id="XMLID_6161_" class="st6" d="M347.2,259.3"/>
				</g>
				<g id="XMLID_6155_">
					<path id="XMLID_6159_" class="st6" d="M345.5,255.7c-1.4-2.4-3.8-4.4-7.7-5.2c-12.7-2.6-16.8,8.8-16.8,11.5
						c0,1.5,0.3,5.1,0.9,8.1"/>
					<path id="XMLID_6158_" class="st6" d="M322,270.1c0.5,2.6,8.5,0.6,8.5-0.5c0-3.6-0.3-8.6,1.1-9.7c1.5-1.2,5.8-1,6.9,1.1
						c0.2,0.5,0.3,1.1,0.2,1.8c-0.5,2.2-0.5,4.7-0.5,6.4c0,1.2,0.1,2.2,0.1,2.5c0,1,0.4,3,3.7,3.3c4.4,0.5,5-0.9,5-4
						c0-1.6,0.9-6.1,0.2-10.6"/>
					<path id="XMLID_6157_" class="st6" d="M331,259.3"/>
					<path id="XMLID_6156_" class="st6" d="M331,259.3c0.2,5.1-0.1,11-0.7,13.2c0,0-2.4,4.3-6.1,2.3s-4-22.7-1.7-23.6s6.7-3,7.8,1.8
						"/>
				</g>
			</g>
			<path id="XMLID_6154_" class="st6" d="M281.7,264.7c-0.6,0.2-1.2,1-1.8,1.7c-0.2,0.2-0.3,0.4-0.5,0.6c-0.1,0.2-0.6,0.6-0.7,0.6
				c-1.9,0.9-5.5,1.9-7-1.9c-0.1-0.3-0.3-1.4-0.3-1.7c0-0.5,0-1.1,0.1-1.5c0.4-4,1.7-5.8,3-6c1.5-0.2,4.4,0.9,5.2,2.8
				c0,0,0.8,3.6,2.8,3.1s5.8-2.6,2.8-6.5s-6-8-14.3-5.1c-8.4,2.9-6.8,13.5-6.5,14.3c0.3,0.7,4.7,15.5,16,8.9
				C292,267.6,282.9,264.3,281.7,264.7z"/>
			<path class="st0" d="M68.1,117.4c-3.7-6.5-11.4-13.9-26.5-8.5c-4,1.4-7,5.2-9.2,10.4c13.9-4.2,21.2,2.9,24.7,9.1
				c72.8-18.7,80,65.1,68.4,94.5c1.4-0.4,2.8-0.9,4.3-1.7C148.8,211.5,152.4,95.8,68.1,117.4z"/>
			<path id="XMLID_6153_" class="st7" d="M284.9,147.1c0,0-9-6.3-12.9-1.4c-3.9,5-10.6,13.4-2.6,29.8c7.9,16.5,37.7,2.9,40.6-4.8"/>
			<path class="st0" d="M282.9,194.9c-0.1,0.1-0.2,0.1-0.2,0.2c-9.7,7.2-32.9-3.9-29.3-14.9c-4,2.6-7,5.7-7,5.7
				c-15.5,12.2,14,28.6,25.2,20.2c0.3-0.3,0.7-0.6,1-0.9c3.3-2.8,7.7-5.4,12-4.7c7.8,1.2,20.9,3,21.9,18.2c-1.4,2.9-3.1,5.6-5,8.2
				c7-5.1,12.3-11.7,16-19.2c-0.7-9.6-6.1-13.8-12-16c-1.4,1.3-3.2,2.7-5.4,4.3C294.3,200.2,288.1,198.6,282.9,194.9z"/>
			<g>
				<g id="XMLID_6147_">
					<path id="XMLID_6152_" class="st1" d="M82.2,114.1c0,0-5.1-24.9-29.5-16.1s-12.5,103.1-1.2,110.4S94.4,260.6,82.2,114.1z"/>
					<path id="XMLID_6151_" class="st1" d="M76.6,159.4c0,0,42.8-42.3,34.1,36.7c0,0,10.2,24.4,30,14.3
						c19.9-10.2,22.9-135.5-72.8-100.3"/>
					<path id="XMLID_6150_" class="st2" d="M122.3,112.8c0,0-4,1.9-5.2,3.8"/>
					<path id="XMLID_6149_" class="st2" d="M138.3,127.8c0,0-4,1.9-5.2,3.8"/>
					<path id="XMLID_6148_" class="st2" d="M64.3,100.8c0,0-2.3,1.1-3.9,2.5"/>
				</g>
				<g id="XMLID_6136_">
					<path id="XMLID_6146_" class="st8" d="M71.2,125.1c0,0-5.1-24.9-29.5-16.1s-12.5,103.1-1.2,110.4S83.4,271.6,71.2,125.1z"/>
					<path id="XMLID_6145_" class="st8" d="M65.6,170.4c0,0,42.8-42.3,34.1,36.7c0,0,10.2,24.4,30,14.3
						c19.9-10.2,22.9-135.5-72.8-100.3"/>
					<line id="XMLID_6144_" class="st3" x1="53.3" y1="221.8" x2="57.3" y2="223.6"/>
					<path id="XMLID_6143_" class="st8" d="M126.4,211.3c0,0,1.6,3.3-1,4.7"/>
					<path id="XMLID_6142_" class="st8" d="M135.9,170.7c0,0-0.7,3-1.6,4"/>
					<path id="XMLID_6141_" class="st8" d="M67.9,195.9c0,0,1.3-5.6,0-5.6"/>
					<path id="XMLID_6140_" class="st8" d="M98,157.4c0,0,5.2,0.7,4.7,1.6"/>
					<path id="XMLID_6139_" class="st8" d="M47.1,183.8c0,0,6.1-0.9,6.5-2"/>
					<path id="XMLID_6138_" class="st8" d="M78,125.6c0,0-4,1.9-5.2,3.8"/>
					<line id="XMLID_6137_" class="st3" x1="41.3" y1="132.2" x2="45.6" y2="131.1"/>
					<path class="st0" d="M67.7,116.9c-3.7-6.5-11.4-13.9-26.5-8.5c-4,1.4-7,5.2-9.2,10.4c13.9-4.2,21.2,2.9,24.7,9.1
						c72.8-18.7,80,65.1,68.4,94.5c1.4-0.4,2.8-0.9,4.3-1.7C148.3,211,151.9,95.3,67.7,116.9z"/>
				</g>
				<path id="XMLID_6135_" class="st2" d="M146.6,193.4c-1,0.7-2,1.5-2.5,2.3"/>
				<path id="XMLID_6134_" class="st2" d="M79.3,199.8c0,0-1.3,0.6-2.7,1.5"/>
			</g>
			<g>
				<g>
					<g id="XMLID_6132_">
						<path id="XMLID_6133_" class="st1" d="M169,156.4c0,0,7-36.2-23.7-26s-12.1,89.7,4.1,86.3C165.6,213.4,173,200.7,169,156.4z"
							/>
					</g>
				</g>
				<g>
					<g id="XMLID_6130_">
						<path id="XMLID_6131_" class="st9" d="M158,167.4c0,0,7-36.2-23.7-26s-12.1,89.7,4.1,86.3C154.6,224.4,162,211.7,158,167.4z"
							/>
					</g>
					<line id="XMLID_6129_" class="st3" x1="132.1" y1="217.8" x2="136.1" y2="219.6"/>
					<path id="XMLID_6128_" class="st9" d="M152.3,205.2c0,0,1.6,3.3-1,4.7"/>
					<path id="XMLID_6127_" class="st9" d="M127.6,158.2c0,0-0.7,3-1.6,4"/>
					<path id="XMLID_6126_" class="st9" d="M153.2,160.2c0,0,1.3-5.6,0-5.6"/>
					<path id="XMLID_6125_" class="st9" d="M139.3,144.2c0,0,5.2,0.7,4.7,1.6"/>
				</g>
				<g>
					<path id="XMLID_6124_" class="st1" d="M146.3,87.1c0,0,34.5,19.7,0.5,34.3S123.2,69,146.3,87.1z"/>
					<path id="XMLID_6123_" class="st2" d="M155.3,100.8c0,0-4,1.9-5.2,3.8"/>
				</g>
				<g>
					<path id="XMLID_6122_" class="st10" d="M141.3,92.1c0,0,34.5,19.7,0.5,34.3S118.2,74,141.3,92.1z"/>
					<path id="XMLID_6121_" class="st10" d="M135.2,124.3c0,0,6.1-0.9,6.5-2"/>
					<path id="XMLID_6120_" class="st10" d="M132,94.5c0,0-4,1.9-5.2,3.8"/>
				</g>
				<path id="XMLID_6119_" class="st2" d="M155.9,134.6c-1.3,0.7-3.1,1.9-3.8,3.1"/>
				<path id="XMLID_6118_" class="st2" d="M164.3,199.8c0,0-1,0.5-2.2,1.2"/>
				<path class="st0" d="M158,167.4c0,0,7-36.2-23.7-26c-5.5,1.9-9.4,6-12.1,11.4c0.4-0.1,0.7-0.3,1.1-0.4
					c30.6-10.3,23.7,26,23.7,26c2.2,24,1,38.7-3.1,47.7C156.2,220.8,161.5,206.3,158,167.4z"/>
				<path class="st0" d="M136.3,97.1c0,0,21.7,12.4,13.7,24.9c19.3-13.8-8.7-29.9-8.7-29.9c-7.3-5.7-13.3-2.9-17,3
					C127.6,93.3,131.7,93.5,136.3,97.1z"/>
			</g>
			<g>
				<g id="XMLID_6113_">
					<path id="XMLID_6115_" class="st1" d="M236.7,132.4c-43.5-31.9-77.4,8.1-77.4,8.1s-27.8,63.8,25.2,80.7
						C237.6,238.2,280.2,164.3,236.7,132.4z M214.2,176.9c-11,28.8-45-16.4-20.8-19.7C193.4,157.2,225.2,148.1,214.2,176.9z"/>
					<path id="XMLID_6114_" class="st1" d="M219.7,128.3c0,0,33.9-36.2,34.6,31.8s12.1,130-53,129.6c0,0-35.4-16.5,0-34
						c17.3-8.5,20.8-26.3,20.4-48.5"/>
				</g>
				<g id="XMLID_5195_">
					<path id="XMLID_6112_" class="st11" d="M198.4,149.7"/>
					<path id="XMLID_6109_" class="st11" d="M225.7,143.4c-43.5-31.9-77.4,8.1-77.4,8.1s-27.8,63.8,25.2,80.7
						C226.6,249.2,269.2,175.3,225.7,143.4z M203.2,187.9c-11,28.8-45-16.4-20.8-19.7C182.4,168.2,214.2,159.1,203.2,187.9z"/>
					<path id="XMLID_6108_" class="st11" d="M208.7,139.3"/>
					<path id="XMLID_6107_" class="st11" d="M208.7,139.3c0,0,33.9-36.2,34.6,31.8s12.1,130-53,129.6c0,0-35.4-16.5,0-34
						c17.3-8.5,20.8-26.3,20.4-48.5"/>
					<line id="XMLID_6106_" class="st3" x1="187.2" y1="291.9" x2="191.3" y2="293.6"/>
					<path id="XMLID_6105_" class="st11" d="M222.2,285.1c0,0,1.6,3.3-1,4.7"/>
					<path id="XMLID_6104_" class="st11" d="M239.7,251c0,0-0.7,3-1.6,4"/>
					<path id="XMLID_6103_" class="st11" d="M236.5,207.6c0,0,1.3-5.6,0-5.6"/>
					<path id="XMLID_5199_" class="st11" d="M161.8,221.9c0,0,5.2,0.7,4.7,1.6"/>
					<path id="XMLID_5198_" class="st11" d="M225.5,165.9c0,0,6.1-0.9,6.5-2"/>
					<path id="XMLID_5197_" class="st11" d="M162.3,149.2c0,0-4,1.9-5.2,3.8"/>
					<line id="XMLID_5196_" class="st3" x1="206.1" y1="196.3" x2="202.3" y2="198.5"/>
				</g>
				<path class="st0" d="M243.5,182.2c0.2-3.2,0.2-6.3-0.2-9.4c0-0.5,0-1.1,0-1.6c-0.6-53.4-21.7-42.5-30.6-35.4
					c-37-16.4-64.4,15.8-64.4,15.8s-0.3,0.7-0.8,1.9c11.2-8.1,30.7-17.1,54.1-6.8c9-7.1,30-18,30.6,35.4c0,0.5,0,1.1,0,1.6
					c0.4,3.1,0.4,6.3,0.2,9.4c1,40.8,4.2,78.3-10,99.7C249.1,275.6,244.7,231.3,243.5,182.2z"/>
				<path id="XMLID_5194_" class="st2" d="M244.3,127.8c0,0-4,1.9-5.2,3.8"/>
				<path id="XMLID_5193_" class="st2" d="M198.3,123.8c0,0-4,1.9-5.2,3.8"/>
				<path id="XMLID_5192_" class="st2" d="M192.3,187.8c0,0-4,1.9-5.2,3.8"/>
				<path id="XMLID_5191_" class="st2" d="M251.6,215.7c-1.2,0.7-2.8,1.8-3.5,2.9"/>
				<path id="XMLID_5190_" class="st2" d="M250.3,238.8c0,0-0.7,0.4-1.7,0.9"/>
			</g>
			<g>
				<g>
					<path id="XMLID_5189_" class="st1" d="M331,149.4L331,149.4c-5.7-15.2-18.2-27.1-37.3-29.1c-38-3.8-53.7,20.9-59.7,35.8
						c0,0-1.3,2.2-2.3,6.6c-0.8,2.6-1,4.8-0.8,5.8c-0.5,8.2,0.8,20.4,8.5,36.6c6.3,13.2,22.2,17.9,32.8,19.6c3,0.6,6.2,1,9.6,0.9
						c0.2,0,0.3,0,0.3,0l0,0c3.7-0.1,7.6-0.5,11.8-1.5c16.7-3.8,28.2-14.5,34.6-27.6c-1.1-15.2-14.1-17-21.9-18.2
						c-4.3-0.6-8.6,2-12,4.7c-0.4,0.3-0.7,0.6-1,0.9c-11.3,8.3-40.8-8-25.2-20.2c0,0,5.3-5.6,11.5-8.1l0,0c0,0,5.1-2.6,9.3-1.1
						c1.6,0.6,3.1,1.8,4.1,4c0,0.1,0.1,0.2,0.2,0.4c0.5,1,1.1,2.2,1.8,3.3c5.1,8.3,16.5,19.2,27,11.6c12.2-8.8,10.8-12.1,11.3-15.5
						l0,0C334.1,154.9,331,149.4,331,149.4z"/>
				</g>
				<g>
					<path id="XMLID_5188_" class="st7" d="M320,160.4L320,160.4c-5.7-15.2-18.2-27.1-37.3-29.1c-38-3.8-53.7,20.9-59.7,35.8
						c0,0-1.3,2.2-2.3,6.6c-0.8,2.6-1,4.8-0.8,5.8c-0.5,8.2,0.8,20.4,8.5,36.6c6.3,13.2,22.2,17.9,32.8,19.6c3,0.6,6.2,1,9.6,0.9
						c0.2,0,0.3,0,0.3,0l0,0c3.7-0.1,7.6-0.5,11.8-1.5c16.7-3.8,28.2-14.5,34.6-27.6c-1.1-15.2-14.1-17-21.9-18.2
						c-4.3-0.6-8.6,2-12,4.7c-0.4,0.3-0.7,0.6-1,0.9c-11.3,8.3-40.8-8-25.2-20.2c0,0,5.3-5.6,11.5-8.1l0,0c0,0,5.1-2.6,9.3-1.1
						c1.6,0.6,3.1,1.8,4.1,4c0,0.1,0.1,0.2,0.2,0.4c0.5,1,1.1,2.2,1.8,3.3c5.1,8.3,16.5,19.2,27,11.6c12.2-8.8,10.8-12.1,11.3-15.5
						l0,0C323.1,165.9,320,160.4,320,160.4z"/>
					<line id="XMLID_5187_" class="st3" x1="234.7" y1="215.2" x2="237.3" y2="218.7"/>
					<path id="XMLID_5186_" class="st7" d="M307.1,211.3c0,0,1.6,3.3-1,4.7"/>
					<path id="XMLID_5185_" class="st7" d="M319.5,169.3c0,0-0.7,3-1.6,4"/>
					<path id="XMLID_5184_" class="st7" d="M250.3,174.1c0,0,1.3-5.6,0-5.6"/>
					<path id="XMLID_5183_" class="st7" d="M278.7,157.5c0,0,5.2,0.7,4.7,1.6"/>
					<path id="XMLID_5182_" class="st7" d="M273,231.1c0,0,6.1-0.9,6.5-2"/>
					<path id="XMLID_5181_" class="st7" d="M241.5,149.7c0,0-4,1.9-5.2,3.8"/>
					<line id="XMLID_5180_" class="st3" x1="301.8" y1="183.3" x2="306" y2="182.1"/>
				</g>
				<path class="st0" d="M320,160.4L320,160.4c-5.7-15.2-18.2-27.1-37.3-29.1c-26.5-2.7-42.2,8.5-51.2,20.6
					c9.3-6.9,22.3-11.4,40.2-9.6c19.1,1.9,31.5,13.9,37.2,29.1l0,0c0,0,3.1,5.6,2.5,9l0,0c-0.2,1.5-0.1,3-0.9,4.9
					c0.2-0.1,0.4-0.2,0.6-0.4c12.2-8.8,10.8-12.1,11.3-15.5l0,0C323.1,165.9,320,160.4,320,160.4z"/>
				<path id="XMLID_5179_" class="st2" d="M329.3,154.8c0,0-4,1.9-5.2,3.8"/>
				<path id="XMLID_5178_" class="st2" d="M296.3,124.8c0,0-4,1.9-5.2,3.8"/>
				<path id="XMLID_5177_" class="st2" d="M269.3,185.8c0,0-4,1.9-5.2,3.8"/>
				<path id="XMLID_5176_" class="st2" d="M324.3,196.8c0,0-4,1.9-5.2,3.8"/>
			</g>
			<g>
				<g>
					<path id="XMLID_5175_" class="st1" d="M354,106.6c0,0-5.1-29-29.5-18.8s-12.4,120.4-1.1,129S366.2,277.7,354,106.6z"/>
				</g>
				<g>
					<path id="XMLID_5174_" class="st12" d="M343,117.6c0,0-5.1-29-29.5-18.8s-12.4,120.4-1.1,129S355.2,288.7,343,117.6z"/>
					<path id="XMLID_5173_" class="st12" d="M333,224.8c0,0,1.6,3.3-1,4.7"/>
					<path id="XMLID_5172_" class="st12" d="M340.9,172.6c0,0,0.4,3,0.1,4.3"/>
					<path id="XMLID_5171_" class="st12" d="M309.4,193.1c0,0,1.3-5.6,0-5.6"/>
					<path id="XMLID_5153_" class="st12" d="M316.4,104.8c0,0-4,1.9-5.2,3.8"/>
				</g>
				<path class="st0" d="M343,117.6c0,0-5.1-29-29.5-18.8c-3.5,1.5-6.3,5-8.4,10c22.2-7.1,26.9,19.8,26.9,19.8
					c4.7,65.4,2.9,98.2-1.6,113.2C341.2,244,350.6,224,343,117.6z"/>
				<path id="XMLID_5152_" class="st2" d="M348.6,189.6c1.3,0.1,2.7,0,3.7-0.4"/>
				<path id="XMLID_5145_" class="st2" d="M347.7,212.5c0,0,1.3,0.1,2.8,0.1"/>
				<path id="XMLID_5144_" class="st2" d="M348.7,102.6c0,0-4.4,0.7-6,2.3"/>
			</g>
		</g>
	</g>
	<path id="XMLID_3926_" class="st5" d="M258.5,274.2c-0.4,0.8-1.3,1.4-3.7,2c-2.4,0.6-3.1-3.3-3.1-3.7c-0.1-0.4,0.4-3.8,4.2-3
		C259.6,270.2,258.5,274.2,258.5,274.2z"/>
</g>
</svg>
