<?xml version="1.0" encoding="utf-8"?>
<!-- Generator: Adobe Illustrator 22.1.0, SVG Export Plug-In . SVG Version: 6.00 Build 0)  -->
<svg version="1.1" id="Layer_1" xmlns="http://www.w3.org/2000/svg" xmlns:xlink="http://www.w3.org/1999/xlink" x="0px" y="0px"
	 viewBox="0 0 446 446" style="enable-background:new 0 0 446 446;" xml:space="preserve">
<style type="text/css">
	.st0{fill:none;}
	.st1{fill:#FFFFFF;stroke:#584C4F;stroke-width:2;stroke-linecap:round;stroke-miterlimit:10;}
	.st2{fill:#FFD767;stroke:#584C4F;stroke-width:2;stroke-miterlimit:10;}
	.st3{fill:#A36B78;}
	.st4{fill:none;stroke:#584C4F;stroke-width:2;stroke-linecap:round;stroke-miterlimit:10;}
	.st5{fill:#A36B78;stroke:#584C4F;stroke-width:2;stroke-linecap:round;stroke-miterlimit:10;}
	.st6{fill:#584C4F;stroke:#584C4F;stroke-width:2;stroke-linecap:round;stroke-miterlimit:10;}
	.st7{opacity:0.1;fill:#231F20;stroke:#231F20;stroke-miterlimit:10;}
	.st8{fill:#BEAB72;}
</style>
<g id="Layer_5">
</g>
<g id="Layer_3">
</g>
<rect class="st0" width="446" height="446"/>
<path id="XMLID_77_" class="st1" d="M141.9,132.3c0,0-230.1,202.2,56.3,294.7S392.2,29.5,141.9,132.3z"/>
<g>
	<path class="st2" d="M163.7,387.1l-3.3-64.9c-16.4,4.3-30.2,9.3-33.7,14.5c-3.4,5-7,26.8-9.4,53.6c13,8.5,28.4,16.5,46.5,24.1
		C164.7,400.2,164.9,389.4,163.7,387.1z"/>
</g>
<g>
	<path class="st0" d="M132.4,376.3c0-0.8-0.1-1.7-0.1-2.5C132.4,374.7,132.4,375.5,132.4,376.3z"/>
	<path class="st2" d="M176.7,311.2c1-0.2,1.9-0.4,2.9-0.6C178.6,310.8,177.6,311,176.7,311.2z"/>
	<path class="st2" d="M179.7,310.6c1-0.2,1.9-0.3,2.9-0.5C181.6,310.2,180.6,310.4,179.7,310.6z"/>
	<path class="st2" d="M142.5,329.2c0.6-0.7,1.2-1.4,1.8-2.1C143.7,327.8,143,328.5,142.5,329.2z"/>
	<path class="st2" d="M173.7,311.8c0.9-0.2,1.9-0.4,2.8-0.6C175.5,311.4,174.6,311.6,173.7,311.8z"/>
	<path class="st2" d="M186.1,309.6c0.9-0.1,1.8-0.2,2.7-0.3C188,309.3,187.1,309.4,186.1,309.6z"/>
	<path class="st2" d="M192.5,308.8c0.9-0.1,1.9-0.2,2.8-0.3C194.4,308.7,193.5,308.8,192.5,308.8z"/>
	<path class="st2" d="M138.9,334.2c0.5-0.8,0.9-1.5,1.4-2.3C139.9,332.7,139.4,333.5,138.9,334.2z"/>
	<path class="st2" d="M140.6,331.6c0.5-0.7,1.1-1.5,1.6-2.1C141.7,330.2,141.2,330.9,140.6,331.6z"/>
	<path class="st2" d="M170.6,312.6c0.9-0.2,1.8-0.5,2.7-0.7C172.4,312.1,171.5,312.4,170.6,312.6z"/>
	<path class="st2" d="M182.9,310c0.9-0.1,1.9-0.3,2.8-0.4C184.8,309.8,183.8,309.9,182.9,310z"/>
	<path class="st2" d="M189.4,309.2c0.9-0.1,1.8-0.2,2.8-0.3C191.2,309,190.3,309.1,189.4,309.2z"/>
	<path class="st2" d="M156.3,318.1c0.8-0.4,1.6-0.8,2.5-1.2C158,317.3,157.1,317.7,156.3,318.1z"/>
	<path class="st2" d="M144.3,327.1c0.6-0.7,1.3-1.3,2-1.9C145.6,325.8,145,326.4,144.3,327.1z"/>
	<path class="st2" d="M153.7,319.6c0.7-0.5,1.5-0.9,2.3-1.3C155.3,318.7,154.5,319.1,153.7,319.6z"/>
	<path class="st2" d="M158.9,316.8c0.8-0.4,1.7-0.8,2.6-1.1C160.6,316.1,159.8,316.4,158.9,316.8z"/>
	<path class="st2" d="M148.8,323c0.7-0.5,1.4-1.1,2.1-1.6C150.2,322,149.5,322.5,148.8,323z"/>
	<path class="st2" d="M151.2,321.2c0.7-0.5,1.4-1,2.2-1.4C152.6,320.3,151.9,320.7,151.2,321.2z"/>
	<path class="st2" d="M161.7,315.6c0.9-0.4,1.7-0.7,2.6-1C163.4,314.9,162.5,315.3,161.7,315.6z"/>
	<path class="st2" d="M164.6,314.5c0.8-0.3,1.7-0.6,2.6-0.9C166.3,313.9,165.5,314.2,164.6,314.5z"/>
	<path class="st2" d="M146.5,325c0.7-0.6,1.3-1.2,2-1.7C147.8,323.8,147.1,324.4,146.5,325z"/>
	<path class="st2" d="M167.6,313.5c0.9-0.3,1.7-0.5,2.6-0.8C169.3,313,168.5,313.2,167.6,313.5z"/>
	<path class="st2" d="M204.9,308c0.9,0,1.8-0.1,2.6-0.1C206.6,307.9,205.7,307.9,204.9,308z"/>
	<path class="st2" d="M134,346.6c0.3-1.1,0.5-2.2,0.9-3.2C134.6,344.5,134.3,345.5,134,346.6z"/>
	<path class="st2" d="M201.7,308.1c0.9-0.1,1.8-0.1,2.7-0.2C203.6,308,202.6,308.1,201.7,308.1z"/>
	<path class="st2" d="M211,307.7c0.9,0,1.7-0.1,2.5-0.1C212.7,307.6,211.8,307.6,211,307.7z"/>
	<path class="st2" d="M207.9,307.8c0.9,0,1.7-0.1,2.6-0.1C209.6,307.7,208.8,307.8,207.9,307.8z"/>
	<path class="st2" d="M134.9,343.4c0.3-1,0.7-2,1.1-3C135.6,341.4,135.2,342.4,134.9,343.4z"/>
	<path class="st2" d="M195.6,308.6c1-0.1,1.9-0.2,2.9-0.2C197.5,308.4,196.6,308.5,195.6,308.6z"/>
	<path class="st2" d="M137.4,337.1c0.4-0.8,0.8-1.7,1.3-2.4C138.3,335.4,137.8,336.2,137.4,337.1z"/>
	<path class="st2" d="M132.4,376.3c0.3,7.3,0.5,15.2,0.7,23.4c1.5,0.8,3,1.6,4.6,2.5l-3.8-55.3c-0.8,3.3-1.3,6.9-1.5,10.8
		c-0.2,4.6-0.3,9.7-0.2,15.4c0,0.3,0,0.5,0,0.8C132.4,374.7,132.4,375.5,132.4,376.3z"/>
	<path class="st2" d="M198.5,308.3c1-0.1,1.9-0.1,2.9-0.2C200.5,308.2,199.5,308.3,198.5,308.3z"/>
	<path class="st2" d="M136.1,340.1c0.4-0.9,0.8-1.8,1.2-2.7C136.8,338.3,136.4,339.2,136.1,340.1z"/>
	<path class="st2" d="M132.4,376.3c0-0.8-0.1-1.7-0.1-2.5c0-0.3,0-0.5,0-0.8c0-0.5,0-0.9,0-1.4l0.5,27.8c0.1,0.1,0.2,0.1,0.3,0.2
		C133,391.5,132.7,383.7,132.4,376.3z"/>
	<path class="st2" d="M132.3,373c0,0.3,0,0.5,0,0.8C132.3,373.6,132.3,373.3,132.3,373z"/>
	<path class="st2" d="M148.5,323.3c0.1-0.1,0.2-0.2,0.3-0.2C148.7,323.1,148.6,323.2,148.5,323.3z"/>
	<path class="st2" d="M134,346.8L134,346.8c0-0.1,0-0.1,0.1-0.2C134,346.7,134,346.8,134,346.8z"/>
	<path class="st2" d="M150.9,321.5c0.1-0.1,0.2-0.2,0.4-0.2C151.1,321.3,151,321.4,150.9,321.5z"/>
	<path class="st2" d="M138.7,334.6c0.1-0.1,0.2-0.3,0.2-0.4C138.9,334.4,138.8,334.5,138.7,334.6z"/>
	<path class="st2" d="M142.3,329.5c0.1-0.1,0.1-0.2,0.2-0.2C142.4,329.3,142.3,329.4,142.3,329.5z"/>
	<path class="st2" d="M140.4,332c0.1-0.1,0.2-0.2,0.2-0.4C140.6,331.7,140.5,331.8,140.4,332z"/>
	<path class="st2" d="M146.3,325.1c0.1-0.1,0.1-0.1,0.2-0.2C146.4,325,146.4,325.1,146.3,325.1z"/>
	<path class="st2" d="M137.2,337.5c0.1-0.1,0.1-0.3,0.2-0.4C137.4,337.2,137.3,337.3,137.2,337.5z"/>
	<path class="st2" d="M135.9,340.4c0-0.1,0.1-0.2,0.1-0.3C136,340.2,136,340.3,135.9,340.4z"/>
	<path class="st2" d="M134.9,343.4C134.9,343.4,134.9,343.4,134.9,343.4C134.9,343.4,134.9,343.4,134.9,343.4z"/>
	<path class="st2" d="M144.3,327.1C144.3,327.1,144.3,327.1,144.3,327.1C144.3,327.1,144.3,327.1,144.3,327.1z"/>
	<path class="st2" d="M156,318.3c0.1-0.1,0.2-0.1,0.3-0.2C156.2,318.2,156.1,318.2,156,318.3z"/>
	<path class="st2" d="M201.4,308.2c0.1,0,0.2,0,0.3,0C201.6,308.1,201.5,308.2,201.4,308.2z"/>
	<path class="st2" d="M195.3,308.6c0.1,0,0.2,0,0.3,0C195.5,308.6,195.4,308.6,195.3,308.6z"/>
	<path class="st2" d="M153.4,319.8c0.1-0.1,0.2-0.1,0.4-0.2C153.6,319.7,153.5,319.7,153.4,319.8z"/>
	<path class="st2" d="M188.9,309.2c0.2,0,0.3,0,0.5-0.1C189.2,309.2,189,309.2,188.9,309.2z"/>
	<path class="st2" d="M192.1,308.9c0.1,0,0.3,0,0.4,0C192.4,308.9,192.2,308.9,192.1,308.9z"/>
	<path class="st2" d="M198.5,308.4C198.5,308.4,198.5,308.3,198.5,308.4C198.5,308.3,198.5,308.4,198.5,308.4z"/>
	<path class="st2" d="M204.5,308c0.1,0,0.3,0,0.4,0C204.7,308,204.6,308,204.5,308z"/>
	<path class="st2" d="M210.5,307.7c0.2,0,0.3,0,0.5,0C210.8,307.7,210.7,307.7,210.5,307.7z"/>
	<path class="st2" d="M213.5,307.6c0.9,0,1.9-0.1,2.8-0.1C215.4,307.5,214.5,307.5,213.5,307.6z"/>
	<path class="st2" d="M207.5,307.8c0.1,0,0.3,0,0.4,0C207.8,307.8,207.6,307.8,207.5,307.8z"/>
	<path class="st2" d="M185.7,309.6c0.1,0,0.3,0,0.4-0.1C186,309.6,185.8,309.6,185.7,309.6z"/>
	<path class="st2" d="M182.6,310.1c0.1,0,0.2,0,0.4-0.1C182.8,310.1,182.7,310.1,182.6,310.1z"/>
	<path class="st2" d="M161.5,315.7c0.1,0,0.1,0,0.2-0.1C161.6,315.6,161.5,315.7,161.5,315.7z"/>
	<path class="st2" d="M158.8,316.9c0,0,0.1,0,0.1-0.1C158.9,316.8,158.8,316.9,158.8,316.9z"/>
	<path class="st2" d="M167.2,313.6c0.1,0,0.3-0.1,0.4-0.1C167.5,313.5,167.3,313.6,167.2,313.6z"/>
	<path class="st2" d="M164.3,314.6c0.1,0,0.2-0.1,0.3-0.1C164.5,314.5,164.4,314.6,164.3,314.6z"/>
	<path class="st2" d="M176.5,311.2c0.1,0,0.1,0,0.2,0C176.6,311.2,176.5,311.2,176.5,311.2z"/>
	<path class="st2" d="M170.2,312.7c0.1,0,0.3-0.1,0.4-0.1C170.5,312.6,170.4,312.7,170.2,312.7z"/>
	<path class="st2" d="M179.5,310.6c0,0,0.1,0,0.1,0C179.6,310.6,179.6,310.6,179.5,310.6z"/>
	<path class="st2" d="M173.3,311.9c0.1,0,0.2-0.1,0.4-0.1C173.6,311.9,173.4,311.9,173.3,311.9z"/>
	<path class="st2" d="M321.8,350.3c-1.5-6.7-6-12-11.5-16.2c-7.6-5.8-17.1-9.3-23.4-11.3c-12-10.1-36.8-16.8-70.6-15.3
		c-0.9,0-1.8,0.1-2.8,0.1c-0.8,0-1.7,0.1-2.5,0.1c-0.2,0-0.3,0-0.5,0c-0.8,0-1.7,0.1-2.6,0.1c-0.1,0-0.3,0-0.4,0
		c-0.9,0-1.8,0.1-2.6,0.1c-0.1,0-0.3,0-0.4,0c-0.9,0-1.8,0.1-2.7,0.2c-0.1,0-0.2,0-0.3,0c-1,0.1-1.9,0.1-2.9,0.2c0,0,0,0-0.1,0
		c-1,0.1-1.9,0.1-2.9,0.2c-0.1,0-0.2,0-0.3,0c-0.9,0.1-1.9,0.2-2.8,0.3c-0.1,0-0.3,0-0.4,0c-0.9,0.1-1.8,0.2-2.8,0.3
		c-0.2,0-0.3,0-0.5,0.1c-0.9,0.1-1.8,0.2-2.7,0.3c-0.1,0-0.3,0-0.4,0.1c-0.9,0.1-1.9,0.3-2.8,0.4c-0.1,0-0.2,0-0.4,0.1
		c-1,0.2-1.9,0.3-2.9,0.5c0,0-0.1,0-0.1,0c-1,0.2-1.9,0.4-2.9,0.6c-0.1,0-0.1,0-0.2,0c-0.9,0.2-1.9,0.4-2.8,0.6
		c-0.1,0-0.2,0.1-0.4,0.1c-0.9,0.2-1.8,0.4-2.7,0.7c-0.1,0-0.3,0.1-0.4,0.1c-0.9,0.2-1.7,0.5-2.6,0.8c-0.1,0-0.3,0.1-0.4,0.1
		c-0.9,0.3-1.7,0.6-2.6,0.9c-0.1,0-0.2,0.1-0.3,0.1c-0.9,0.3-1.7,0.7-2.6,1c-0.1,0-0.1,0-0.2,0.1c-0.9,0.4-1.7,0.7-2.6,1.1
		c0,0-0.1,0-0.1,0.1c-0.8,0.4-1.7,0.8-2.5,1.2c-0.1,0.1-0.2,0.1-0.3,0.2c-0.8,0.4-1.5,0.9-2.3,1.3c-0.1,0.1-0.2,0.1-0.4,0.2
		c-0.7,0.5-1.5,0.9-2.2,1.4c-0.1,0.1-0.2,0.2-0.4,0.2c-0.7,0.5-1.4,1-2.1,1.6c-0.1,0.1-0.2,0.2-0.3,0.2c-0.7,0.6-1.4,1.1-2,1.7
		c-0.1,0.1-0.1,0.1-0.2,0.2c-0.7,0.6-1.3,1.3-2,1.9c0,0,0,0-0.1,0.1c-0.6,0.7-1.2,1.4-1.8,2.1c-0.1,0.1-0.1,0.2-0.2,0.2
		c-0.6,0.7-1.1,1.4-1.6,2.1c-0.1,0.1-0.2,0.2-0.2,0.4c-0.5,0.7-1,1.5-1.4,2.3c-0.1,0.1-0.2,0.3-0.2,0.4c-0.5,0.8-0.9,1.6-1.3,2.4
		c-0.1,0.1-0.1,0.3-0.2,0.4c-0.4,0.9-0.8,1.8-1.2,2.7c0,0.1-0.1,0.2-0.1,0.3c-0.4,1-0.7,2-1.1,3c0,0,0,0,0,0c-0.3,1-0.6,2.1-0.9,3.2
		c0,0.1,0,0.2-0.1,0.2l3.8,55.3c17,8.9,37,17.2,60.5,24.8c57.2,18.4,99.2,13.7,128-4.9c-1.5-31.7-3-60.1-4-69.4
		C322.1,351.8,322,351.1,321.8,350.3z"/>
</g>
<g>
	<path id="XMLID_4973_" class="st3" d="M254.5,303.4c0.4-6.2-1.7-24.1-2.1-29.9c-0.3-5.3-1.1-9.8-2.3-13.6
		c20.5-35-36.2-75.2-56.4-30.2c-6.3,14.1-5.5,41.3-5.4,45.9c0.2,6,0.3,26.3,0.3,31.5c0.1,29.3,43.6,52.6,60.8,14.4"/>
	<path id="XMLID_4972_" class="st4" d="M239.8,335c-20,17.4-51.1-3.1-51.2-27.9c0-5.2-0.1-25.5-0.3-31.5c-0.1-4.7-0.9-31.9,5.4-45.9
		c20.2-45,76.9-4.8,56.4,30.2c1.1,3.8,1.9,8.3,2.3,13.6c0.4,5.8,2.5,23.6,2.1,29.9l-5,18.1c-0.9,2-1.9,3.9-3,5.6"/>
</g>
<g id="XMLID_4782_">
	<g id="XMLID_4923_">
		<path id="XMLID_4926_" class="st5" d="M151.9,157.1c0,0-31.5-41.7-32.3-9.2c-0.8,32.6,8.1,67.7,19.7,63.3s11.8-14.1,11.8-14.1"/>
		<path id="XMLID_4925_" class="st5" d="M141.6,159.4c0,0-12.3-19.1-15.4-10.1"/>
		<path id="XMLID_4924_" class="st5" d="M146.3,172.7c0,0-18.1-4.7-15.5,5.7c2.6,10.5,9.1,17.4,12.3,5.8"/>
	</g>
	<path id="XMLID_4922_" class="st6" d="M246.5,10.6c0,0-11.8,10.4,2.9,15.1C264.1,30.5,259.3,5.3,246.5,10.6z"/>
	<path id="XMLID_4921_" class="st5" d="M221.5,36c0,0,94.5,6.8,81.3,118.3s-9.6,131.9-62.9,143.3s-82.5-27.6-88.3-57.3
		S103,50.6,221.5,36z"/>
	<path class="st7" d="M265.8,52.4c11.9,17.5,19.3,42.9,14.9,79.8c-13.2,111.5-9.6,131.9-62.9,143.3c-22.8,4.8-41.2,0.5-55.2-8.4
		c13.8,21.2,39.5,38.4,77.2,30.4c53.3-11.3,49.7-31.8,62.9-143.3C309.4,97.4,288.2,67.8,265.8,52.4z"/>
	<path id="XMLID_4920_" class="st2" d="M297.4,62.6c-0.4-3.7-1.9-8.4-5.2-14.3c0-0.1-0.1-0.1-0.1-0.1l0,0c-0.7-1.2-1.5-2.5-2.3-3.9
		c-10.5-16.5-27.8-26-43.6-30.9c-67.7-30.4-74.5,33.8-74.8,58.1c0,2.3,30.5-0.2,58.3-7.2c35.3,14.2,68.6,30.1,68.6,30.1
		S300.7,73.6,297.4,62.6z"/>
	<path id="XMLID_4919_" class="st5" d="M211.7,163.8c0,0,16.8,12.6,38.6,4.9"/>
	<path id="XMLID_4918_" class="st5" d="M170.4,164.4c0,0-27.2,5.9-32.9,3.3"/>
	<path id="XMLID_4917_" class="st5" d="M188.5,287.8c0,0-11.2,10.3,12,14.9s38.4-1.5,33.9-10.3"/>
	<path id="XMLID_4827_" class="st2" d="M154.7,80.3c0,0,36.1-14.7,78.6-5.4s64.5,19.2,64.5,19.2C284.2,47.3,202,47,160.5,49.7
		S130,68.2,130,68.2S136.2,75.8,154.7,80.3z"/>
	<path id="XMLID_4826_" class="st5" d="M154.7,80.3c0,0-71.7-19.9,27.5-24.3s115.5,38.1,115.5,38.1S206.1,54.5,154.7,80.3z"/>
	<g>
		<path id="XMLID_4825_" class="st5" d="M205.7,172.2c0,0-17-21.2-16.5-32.9"/>
		<g id="XMLID_4822_">
			<path id="XMLID_4824_" class="st5" d="M176,174.5c0.7,5.6,2.5,9.5,6.1,10.2c2,0.4,3.7,0.3,5.1-0.1c1.2-0.3,2.1-0.7,2.8-1.1"/>
			<path id="XMLID_4823_" class="st5" d="M194.4,107.2c0,0-13,34.7-16.6,59.2"/>
		</g>
		<g id="XMLID_4816_">
			<path id="XMLID_4821_" class="st5" d="M169.9,177.4c0,0-12.5,14.6,7.6,18.7"/>
			<path id="XMLID_4820_" class="st5" d="M204.5,177.4c0,0,13.3,11.1-5.4,18.7"/>
			<path id="XMLID_4819_" class="st5" d="M194.6,186.5c1.9,0.6,4.7-3.4,6.9,0c2.1,3.4-0.2,2.4-3.1,3.1S192.7,186,194.6,186.5z"/>
			<path id="XMLID_4818_" class="st5" d="M175.5,191.5c-3.8-0.2-4.7-3.2-2.7-4.8c0.7-0.6,2.8,0.4,4.9,1.6
				C179.4,189.3,175.5,191.5,175.5,191.5z"/>
			<path id="XMLID_4817_" class="st5" d="M189.1,169.8c0,0,4-0.1,4.9,1.2"/>
		</g>
		<path id="XMLID_4815_" class="st5" d="M162.5,186.4c0,0-11,5.4-14.1,6.7"/>
		<path id="XMLID_4814_" class="st5" d="M212.4,183.4c0,0,12.8,6.1,14,6"/>
	</g>
	<path id="XMLID_4813_" class="st5" d="M266.9,128.6c0,0,1.8,3.7-1.1,5.4"/>
	<path id="XMLID_4812_" class="st5" d="M256.9,166.6c0,0-0.8,3.4-1.8,4.5"/>
	<path id="XMLID_4811_" class="st5" d="M258,100.8c0,0,1.4-6.3,0-6.3"/>
	<path id="XMLID_4810_" class="st5" d="M166,79.4c0,0,5.9,0.8,5.3,1.8"/>
	<path id="XMLID_4809_" class="st5" d="M202.4,90.6c0,0,6.9-1,7.4-2.3"/>
	<path id="XMLID_4808_" class="st5" d="M168.6,260.4c0,0,5,1.1,5.4,2.2"/>
	<path id="XMLID_4807_" class="st5" d="M210.6,262.6c0,0-4.6,2.2-5.9,4.4"/>
	<path id="XMLID_4806_" class="st5" d="M163.8,151.5"/>
	<path id="XMLID_4805_" class="st5" d="M196.8,155.4"/>
	<line id="XMLID_4804_" class="st5" x1="244" y1="192.1" x2="248.8" y2="190.8"/>
	<path id="XMLID_4803_" class="st5" d="M289.5,169c0,0,35-38.9,33-6.4c-2,32.5-13.8,66.8-25,61.4S286.9,209,286.9,209"/>
	<path id="XMLID_4802_" class="st5" d="M299.6,172.1c0,0,13.9-18,16.2-8.8"/>
	<path id="XMLID_4801_" class="st5" d="M293.8,185c0,0,18.4-3.2,14.9,7c-3.5,10.2-10.5,16.6-12.7,4.8"/>
	<g>
		<path id="XMLID_4800_" class="st1" d="M141.3,94.4c0,0,64.4-6.2,41.1,45.7S87.2,130.5,141.3,94.4z"/>
		<path id="XMLID_4799_" class="st6" d="M135.3,130.1c0,0,9.7-3.9,8.6,6.1C142.7,146.2,128.6,138.7,135.3,130.1z"/>
		<path id="XMLID_4798_" class="st1" d="M212.9,101.5c0,0-47.3,41.6,11.6,60.6S264.3,80.4,212.9,101.5z"/>
		<path id="XMLID_4797_" class="st6" d="M245.7,135.9c0,0,9.7-3.9,8.6,6.1S239.1,144.5,245.7,135.9z"/>
		<path id="XMLID_4796_" class="st6" d="M216.8,93.2c0,0-21.7,2.5-6.2,17.8s45.4,0.5,43.8-4.9C252.7,100.7,249.9,91.6,216.8,93.2z"
			/>
		<path id="XMLID_4795_" class="st6" d="M153.6,84c0,0-33.5-1.9-18,16.7s43-0.4,45.2-8.4S153.6,84,153.6,84z"/>
		<g id="XMLID_4792_">
			<path id="XMLID_4794_" class="st5" d="M252.3,160.4c0.4,0.1,0.8,0.2,1.2,0.4c1.6,0.5,3.2,0.6,4.9-1.2c4.1-4.4-5.2-5.7-5.2-5.7
				l-10.2-0.7c0,0-21.7-1.5-34.5,1.9c0,0,18.9,10,30.5,9.4c1.4-0.1,2.6-0.3,3.8-0.7C243.8,163.2,250.3,159.8,252.3,160.4z"/>
			<path id="XMLID_4793_" class="st5" d="M148.3,147.8c0,0,12.7-2.4,26.8,2c0,0-6.9,15.1-29.5,8.2c-7.4-2.3-8.9,1.9-13-2.5
				c-4.1-4.4,5.2-5.7,5.2-5.7L148.3,147.8z"/>
		</g>
	</g>
	<g id="XMLID_4787_">
		<path id="XMLID_4791_" class="st6" d="M163.4,221.7c0,0-34.6,4.5-15.3,17S163.4,221.7,163.4,221.7z"/>
		<path id="XMLID_4790_" class="st6" d="M158.2,211.4c0,0-28.5-1.5-15.4,13.2s36.7-0.3,38.5-6.6
			C183.2,211.7,158.2,211.4,158.2,211.4z"/>
		<path id="XMLID_4789_" class="st6" d="M215.3,218.8c0,0-13.9-4.7-11.5,13c2.4,17.6,26.5,14.6,27.9,9.5
			C233.1,236.2,235.5,227.8,215.3,218.8z"/>
		<path id="XMLID_4788_" class="st6" d="M203.4,214.1c0,0-40.5-5.1-0.6,14.4S249.6,220.2,203.4,214.1z"/>
	</g>
	<g id="XMLID_4783_">
		<path id="XMLID_4786_" class="st5" d="M167.2,238.6c0,0,21.2,20.9,32.9,0"/>
		<path id="XMLID_4785_" class="st5" d="M172.1,235.3c0,0,5.9-6.2,10.2,0"/>
		<path id="XMLID_4784_" class="st5" d="M192.4,235.3c0,0-5.9-6.2-10.2,0"/>
	</g>
</g>
<path id="XMLID_4781_" class="st5" d="M244.4,340.3c1.5-0.6,3-1.7,4.4-4"/>
<path id="XMLID_4780_" class="st5" d="M187.5,327.8c0,0,0.4,2,1.8,3.9"/>
<path id="XMLID_4779_" class="st5" d="M200.2,344.9c0.5,0.3,1,0.5,1.6,0.7"/>
<g>
	<path class="st2" d="M282.1,437.6c18.6-2.4,34.2-8.5,47-17.4c-1.9-37-6.7-71.7-11.1-78.1c-3.5-5.1-17.3-10.2-33.7-14.5"/>
</g>
<g>
	<path class="st2" d="M160.4,322.2c-16.4,4.3-30.2,9.3-33.7,14.5c-3.4,5-7,26.8-9.4,53.6c13,8.5,28.4,16.5,46.5,24.1"/>
	<path class="st2" d="M282.1,437.6c18.6-2.4,34.2-8.5,47-17.4c-1.9-37-6.7-71.7-11.1-78.1c-3.5-5.1-17.3-10.2-33.7-14.5"/>
</g>
<path id="XMLID_4_" class="st5" d="M244.4,340.3c1.5-0.6,3-1.7,4.4-4"/>
<path id="XMLID_3_" class="st5" d="M187.5,327.8c0,0,0.4,2,1.8,3.9"/>
<path id="XMLID_1_" class="st5" d="M200.2,344.9c0.5,0.3,1,0.5,1.6,0.7"/>
<g>
	<path class="st8" d="M271.4,368.4c0,0-24.7-9.2-26.3-0.6c-1.7,8.6-9.6,36.1,5,38c14.6,1.9,21.3,1.4,21.8-11
		C272.4,382.4,271.4,368.4,271.4,368.4z"/>
	<g>
		<path id="XMLID_4937_" class="st5" d="M270.5,369.1c0,0,3.2,2.5,1.4,5.2"/>
		<path id="XMLID_4936_" class="st5" d="M248.1,367.8c0,0-4.5,2.1-5.8,4.3"/>
		<path id="XMLID_4935_" class="st5" d="M271.2,388.9c0,0,1.3-4.8,0.6-7.2"/>
		<path id="XMLID_4934_" class="st5" d="M246.8,404.2c0,0,4.6,1.9,7.1,1.4"/>
		<path id="XMLID_4933_" class="st5" d="M268.3,400.5c0,0-1.7,3.7-4.7,2.6"/>
		<path id="XMLID_4932_" class="st5" d="M243.1,381c0,0-0.8,3.3-1.7,4.5"/>
		<line id="XMLID_4931_" class="st5" x1="260.8" y1="366.8" x2="255.9" y2="366.7"/>
		<path id="XMLID_4930_" class="st5" d="M241.5,393.8c0,0-1.1,4.9-0.2,7.2"/>
	</g>
</g>
</svg>
