<?xml version="1.0" encoding="utf-8"?>
<!-- Generator: Adobe Illustrator 22.1.0, SVG Export Plug-In . SVG Version: 6.00 Build 0)  -->
<svg version="1.1" id="Layer_1" xmlns="http://www.w3.org/2000/svg" xmlns:xlink="http://www.w3.org/1999/xlink" x="0px" y="0px"
	 viewBox="0 0 752.8 721.7" style="enable-background:new 0 0 752.8 721.7;" xml:space="preserve">
<style type="text/css">
	.st0{opacity:0.1;enable-background:new    ;}
	.st1{fill:#231F20;stroke:#231F20;stroke-miterlimit:10;}
	.st2{fill:#FFF5D0;stroke:#584C4F;stroke-miterlimit:10;}
	.st3{fill:#FDF5EA;stroke:#5B5B4B;stroke-linecap:round;stroke-miterlimit:10;}
	.st4{fill:#FFD767;stroke:#584C4F;stroke-miterlimit:10;}
</style>
<g>
	<g class="st0">
		<path class="st1" d="M569.4,320.4V353c0,0,0,6.5,1.5,7.9c1.5,1.2,38.7,0,39.8,0c1,0,2.5,0,2.5-5.2c0-3.9-1.1-25.4-1.7-35.8"/>
		<path id="XMLID_18_" class="st1" d="M440.9,334c0,0-1.1,2.3,2.5,2.5c113.5,2.8,294.4-0.1,294.4-0.1c3.5-0.3,2.5-2.5,2.5-2.5
			c4.6-73.9,0-211.3,0-211.3s1.1-2.3-2.5-2.5c-176.5-5.5-296.4-0.1-296.4-0.1c-3.5,0.3-2.5,2.5-2.5,2.5S438.5,238.2,440.9,334z"/>
		<path id="XMLID_17_" class="st1" d="M450.3,141.3c0,0-1.4-7.9,5.7-8.1c0,0,120.6-9.3,268.9,0.1c6.9,0.4,5.7,8.1,5.7,8.1
			s1.2,102.1-2.5,173.4c0,0,1.4,7.9-5.7,8.1c0,0-114.9,6.4-264.1,0.1c-6.9-0.3-5.7-8.1-5.7-8.1L450.3,141.3z"/>
		<path id="XMLID_16_" class="st1" d="M471.7,144.7c-5.8-0.6-8.6,5.8-8.6,5.8s-0.1,149.2,2.7,155.3c0,0,2.8,6.1,8.6,5.8
			c0,0,212.3,2.5,231.2-0.1c5.8-0.8,8.6-5.8,8.6-5.8s4.1-137.6,2.6-155c0,0-2.8-6.1-8.6-5.8C708.2,144.9,478.3,145.3,471.7,144.7z"
			/>
		<path id="XMLID_15_" class="st1" d="M473.4,162.3c1.1,3.2,1.8,5.7,2.2,7.6c0.8,3.7,3.7,4.3,5.5,2.6c2.8-2.6,2.5-5.8,1.7-8.6
			c-0.4-1.8,1-3.3,2.8-4.3c1.4-0.7,5-1.9,1.1-2.9c-2.1-0.6-4.7-1-7-1.1C475.3,155.6,471.6,157,473.4,162.3z"/>
	</g>
	<g>
		<path class="st2" d="M579.4,310.4V343c0,0,0,6.5,1.5,7.9c1.5,1.2,38.7,0,39.8,0c1,0,2.5,0,2.5-5.2c0-3.9-1.1-25.4-1.7-35.8"/>
		<path id="XMLID_14_" class="st3" d="M450.9,324c0,0-1.1,2.3,2.5,2.5c113.5,2.8,294.4-0.1,294.4-0.1c3.5-0.3,2.5-2.5,2.5-2.5
			c4.6-73.9,0-211.3,0-211.3s1.1-2.3-2.5-2.5c-176.5-5.5-296.4-0.1-296.4-0.1c-3.5,0.3-2.5,2.5-2.5,2.5S448.5,228.2,450.9,324z"/>
		<path id="XMLID_13_" class="st4" d="M460.3,131.3c0,0-1.4-7.9,5.7-8.1c0,0,120.6-9.3,268.9,0.1c6.9,0.4,5.7,8.1,5.7,8.1
			s1.2,102.1-2.5,173.4c0,0,1.4,7.9-5.7,8.1c0,0-114.9,6.4-264.1,0.1c-6.9-0.3-5.7-8.1-5.7-8.1L460.3,131.3z"/>
		<path id="XMLID_12_" class="st3" d="M481.7,134.7c-5.8-0.6-8.6,5.8-8.6,5.8s-0.1,149.2,2.7,155.3c0,0,2.8,6.1,8.6,5.8
			c0,0,212.3,2.5,231.2-0.1c5.8-0.8,8.6-5.8,8.6-5.8s4.1-137.6,2.6-155c0,0-2.8-6.1-8.6-5.8C718.2,134.9,488.3,135.3,481.7,134.7z"
			/>
		<path id="XMLID_11_" class="st3" d="M483.4,152.3c1.1,3.2,1.8,5.7,2.2,7.6c0.8,3.7,3.7,4.3,5.5,2.6c2.8-2.6,2.5-5.8,1.7-8.6
			c-0.4-1.8,1-3.3,2.8-4.3c1.4-0.7,5-1.9,1.1-2.9c-2.1-0.6-4.7-1-7-1.1C485.3,145.6,481.6,147,483.4,152.3z"/>
	</g>
</g>
</svg>
