<?xml version="1.0" encoding="utf-8"?>
<!-- Generator: Adobe Illustrator 22.1.0, SVG Export Plug-In . SVG Version: 6.00 Build 0)  -->
<svg version="1.1" id="Layer_1" xmlns="http://www.w3.org/2000/svg" xmlns:xlink="http://www.w3.org/1999/xlink" x="0px" y="0px"
	 viewBox="0 0 708.1 600.3" style="enable-background:new 0 0 708.1 600.3;" xml:space="preserve">
<style type="text/css">
	.st0{fill:#FBE391;stroke:#584C4F;stroke-width:2;stroke-miterlimit:10;}
	.st1{fill:#FFF5D0;stroke:#584C4F;stroke-width:2;stroke-miterlimit:10;}
	.st2{fill:#FDF7E0;stroke:#584C4F;stroke-width:2;stroke-miterlimit:10;}
	.st3{fill:#FFF0C2;stroke:#584C4F;stroke-width:2;stroke-miterlimit:10;}
	.st4{fill:#FFFAF2;stroke:#584C4F;stroke-width:2;stroke-miterlimit:10;}
	.st5{fill:#FCDB77;stroke:#584C4F;stroke-width:2;stroke-miterlimit:10;}
</style>
<g>
	<g>
		<g>
			<path class="st0" d="M123.9,406c0,0-2.6,42.3-2.5,75c0.1,3.9,0.2,7.4,0.2,10.6c0,0,0,0,0,0.1c0.2,8-0.1,11.6-0.7,12.4
				c-2.1,18.9,0.2,91,0.2,91l-12.2,1.1c0,0,2.3-43.3,0.8-72.8S106.1,415,103.6,411"/>
			<path class="st0" d="M456.1,406c0,0-2.6,42.3-2.5,75c0.1,3.9,0.2,7.4,0.2,10.6c0,0,0,0,0,0.1c0.2,8-0.1,11.6-0.7,12.4
				c-2.1,18.9,0.2,91,0.2,91L441,596c0,0,2.3-43.3,0.8-72.8s-3.6-108.4-6.1-112.4"/>
			<path class="st0" d="M479.3,415.3c4.1-3.9,0-11.3,0-11.3s0.9-0.1-2.2-0.1c-87.1-0.2-158.5-0.1-204.6-0.1
				c-116.1-0.1-190.7,0.1-190.7,0.1c-3.1,0-2.2,0.1-2.2,0.1s-0.3,6.2,1.8,11.3c0,0-0.9,0.1,2.2,0.1c54.3,0.1,126,0.1,180.2,0
				c96.5,0.1,213.3-0.1,213.3-0.1C480.2,415.4,479.3,415.3,479.3,415.3z"/>
		</g>
	</g>
	<g>
		<g>
			<path class="st1" d="M153.9,406c0,0-2.6,42.3-2.5,75c0.1,3.9,0.2,7.4,0.2,10.6c0,0,0,0,0,0.1c0.2,8-0.1,11.6-0.7,12.4
				c-2.1,18.9,0.2,91,0.2,91l-12.2,1.1c0,0,2.3-43.3,0.8-72.8S136.1,415,133.6,411"/>
			<path class="st1" d="M486.1,406c0,0-2.6,42.3-2.5,75c0.1,3.9,0.2,7.4,0.2,10.6c0,0,0,0,0,0.1c0.2,8-0.1,11.6-0.7,12.4
				c-2.1,18.9,0.2,91,0.2,91L471,596c0,0,2.3-43.3,0.8-72.8s-3.6-108.4-6.1-112.4"/>
			<path class="st1" d="M509.3,415.3c4.1-3.9,0-11.3,0-11.3s0.9-0.1-2.2-0.1c-87.1-0.2-158.5-0.1-204.6-0.1
				c-116.1-0.1-190.7,0.1-190.7,0.1c-3.1,0-2.2,0.1-2.2,0.1s-0.3,6.2,1.8,11.3c0,0-0.9,0.1,2.2,0.1c54.3,0.1,126,0.1,180.2,0
				c96.5,0.1,213.3-0.1,213.3-0.1C510.2,415.4,509.3,415.3,509.3,415.3z"/>
		</g>
	</g>
</g>
<g>
	<g>
		<path class="st2" d="M252.6,517.2c0,0-1.2,18.2-1.2,32.2c0.1,1.7,0.1,3.2,0.1,4.5l0,0c0.1,3.4,0,5-0.4,5.3c-1,8.1,0.1,39,0.1,39
			l-5.8,0.5c0,0,1.1-18.6,0.4-31.2c-0.7-12.6-1.7-46.5-2.9-48.3"/>
		<path class="st2" d="M269.6,516.2c0,0-1.2,18.2-1.2,32.2c0.1,1.7,0.1,3.2,0.1,4.5l0,0c0.1,3.4,0,5-0.4,5.3c-1,8.1,0.1,39,0.1,39
			l-5.8,0.5c0,0,1.1-18.6,0.4-31.2c-0.7-12.6-1.7-46.5-2.9-48.3"/>
		<path class="st2" d="M196.9,516.2c0,0,1.2,18.2,1.2,32.2c-0.1,1.7-0.1,3.2-0.1,4.5l0,0c-0.1,3.4,0,5,0.4,5.3c1,8.1-0.1,39-0.1,39
			l5.8,0.5c0,0-1.1-18.6-0.4-31.2c0.7-12.6,1.7-46.5,2.9-48.3"/>
		<path class="st2" d="M179.9,515.2c0,0,1.2,18.2,1.2,32.2c-0.1,1.7-0.1,3.2-0.1,4.5l0,0c-0.1,3.4,0,5,0.4,5.3c1,8.1-0.1,39-0.1,39
			l5.8,0.5c0,0-1.1-18.6-0.4-31.2c0.7-12.6,1.7-46.5,2.9-48.3"/>
		<path class="st2" d="M269.4,527.3c1.4-3.9,0-11.3,0-11.3s0.3-0.1-0.7-0.1c-0.1,0-0.2,0-0.2,0c-0.1,0-0.1,0-0.2,0
			c0,0-16.6-0.1-43.7-0.1c-27.2,0-43.7,0.1-43.7,0.1c-0.1,0-0.1,0-0.2,0c-0.1,0-0.2,0-0.2,0c-1,0-0.7,0.1-0.7,0.1s-1.4,7.3,0,11.3
			c0,0-0.3,0.1,0.7,0.1c0,0,0.3,0,0.8,0c0.1,0,0.1,0,0.2,0c12.8,0.1,28.6,0.1,43.1,0.1c14.6,0,30.3,0,43.1-0.1c0.1,0,0.2,0,0.2,0
			c0.5,0,0.8,0,0.8,0C269.7,527.4,269.4,527.3,269.4,527.3z"/>
		<path class="st2" d="M258.8,524c0,0,0.3-54.9,0-135.8c0-1.6-0.1-1.1-0.1-1.1s-65.7-1.4-68.3,0c0,0-0.1-0.5-0.1,1.1
			c0,0-0.2,82.8,0,134.9"/>
	</g>
</g>
<g>
	<path id="XMLID_354_" class="st2" d="M25.5,398.7c-0.8-0.2-1.2,2.4-1.2,2.4s0,60.4,0.4,62.9c0,0,0.4,2.5,1.2,2.4
		c0,0,30.4,1,33.1-0.1c0.8-0.3,1.2-2.4,1.2-2.4s0.6-55.7,0.4-62.7c0,0-0.4-2.5-1.2-2.4C59.3,398.8,26.4,399,25.5,398.7z"/>
	<g>
		<path class="st2" d="M49.3,453.8c0.4,0,0.8,0.1,1,0.2c0.2-16.3,0.4-47.7,0.3-52.8c0,0-0.4-2.5-1.2-2.4c0,0-32.9,0.2-33.8-0.1
			c-0.8-0.2-1.2,2.4-1.2,2.4s0,35.2,0.2,53c0.2-0.1,0.5-0.3,1.1-0.3C16.4,453.8,49.3,453.8,49.3,453.8z"/>
		<path class="st2" d="M50.1,463.9c0,0,0-4,0.1-9.9c-0.2-0.1-0.5-0.2-1-0.2c0,0-32.9,0-33.8,0c-0.5,0-0.9,0.2-1.1,0.3
			c0.1,5.5,0.1,9.3,0.2,9.9c0,0,0.4,2.5,1.2,2.4c0,0,13.1,0.4,22.8,0.4c5.1,0,9.3-0.1,10.2-0.5C49.7,466,50.1,463.9,50.1,463.9z"/>
	</g>
	<g>
		<g>
			<path id="XMLID_347_" class="st2" d="M33.8,455.6c0,0,7.4,5.2,0.2,8.6S24.8,454.5,33.8,455.6z"/>
			<g>
				<path id="XMLID_339_" class="st2" d="M33.2,457.4c0,0,4.4,3.1,0.1,5.1C29.1,464.5,27.9,456.8,33.2,457.4z"/>
			</g>
		</g>
	</g>
</g>
<g>
	<g>
		<path class="st3" d="M2.8,594.9c5.2,0.2,36.5-0.1,52.8-0.3c5.9-0.1,9.9-0.1,9.9-0.1s2-0.4,2.4-1.2c0.1-0.4,0.3-1.3,0.3-2.6
			c-0.1-5.8-0.3-10.4-0.3-10.4c0.1-0.8-2.4-1.2-2.4-1.2c-0.6-0.1-4.4-0.2-9.9-0.2c-17.7-0.2-53-0.2-53-0.2s-1.8,0.3-2.2,0.9
			c0,1.6,0,3.1,0,4.5c0,2.6,0,6.2,0,10C0.9,594.6,2.8,594.9,2.8,594.9z"/>
		<path class="st3" d="M12.8,594.9c5.2,0.2,36.5-0.1,52.8-0.3c5.9-0.1,9.9-0.1,9.9-0.1s2-0.4,2.4-1.2c0.1-0.4,0.3-1.3,0.3-2.6
			c-0.1-5.8-0.3-10.4-0.3-10.4c0.1-0.8-2.4-1.2-2.4-1.2c-0.6-0.1-4.4-0.2-9.9-0.2c-17.7-0.2-53-0.2-53-0.2s-1.8,0.3-2.2,0.9
			c0,1.6,0,3.1,0,4.5c0,2.6,0,6.2,0,10C10.9,594.6,12.8,594.9,12.8,594.9z"/>
	</g>
	<g>
		<path class="st3" d="M75.9,578.9c-5.2,0.2-36.5-0.1-52.8-0.3c-5.9-0.1-9.9-0.1-9.9-0.1s-2-0.4-2.4-1.2c-0.1-0.4-0.3-1.3-0.3-2.6
			c0.1-5.8,0.3-10.4,0.3-10.4c-0.1-0.8,2.4-1.2,2.4-1.2c0.6-0.1,4.4-0.2,9.9-0.2c17.7-0.2,53-0.2,53-0.2s1.8,0.3,2.2,0.9
			c0,1.6,0,3.1,0,4.5c0,2.6,0,6.2,0,10C77.8,578.6,75.9,578.9,75.9,578.9z"/>
		<path class="st3" d="M65.9,578.9c-5.2,0.2-36.5-0.1-52.8-0.3c-5.9-0.1-9.9-0.1-9.9-0.1s-2-0.4-2.4-1.2c-0.1-0.4-0.3-1.3-0.3-2.6
			c0.1-5.8,0.3-10.4,0.3-10.4c-0.1-0.8,2.4-1.2,2.4-1.2c0.6-0.1,4.4-0.2,9.9-0.2c17.7-0.2,53-0.2,53-0.2s1.8,0.3,2.2,0.9
			c0,1.6,0,3.1,0,4.5c0,2.6,0,6.2,0,10C67.8,578.6,65.9,578.9,65.9,578.9z"/>
	</g>
	<g>
		<path class="st3" d="M2.8,562.9c5.2,0.2,36.5-0.1,52.8-0.3c5.9-0.1,9.9-0.1,9.9-0.1s2-0.4,2.4-1.2c0.1-0.4,0.3-1.3,0.3-2.6
			c-0.1-5.8-0.3-10.4-0.3-10.4c0.1-0.8-2.4-1.2-2.4-1.2c-0.6-0.1-4.4-0.2-9.9-0.2c-17.7-0.2-53-0.2-53-0.2s-1.8,0.3-2.2,0.9
			c0,1.6,0,3.1,0,4.5c0,2.6,0,6.2,0,10C0.9,562.6,2.8,562.9,2.8,562.9z"/>
		<path class="st3" d="M12.8,562.9c5.2,0.2,36.5-0.1,52.8-0.3c5.9-0.1,9.9-0.1,9.9-0.1s2-0.4,2.4-1.2c0.1-0.4,0.3-1.3,0.3-2.6
			c-0.1-5.8-0.3-10.4-0.3-10.4c0.1-0.8-2.4-1.2-2.4-1.2c-0.6-0.1-4.4-0.2-9.9-0.2c-17.7-0.2-53-0.2-53-0.2s-1.8,0.3-2.2,0.9
			c0,1.6,0,3.1,0,4.5c0,2.6,0,6.2,0,10C10.9,562.6,12.8,562.9,12.8,562.9z"/>
	</g>
	<g>
		<path class="st3" d="M75.9,546.9c-5.2,0.2-36.5-0.1-52.8-0.3c-5.9-0.1-9.9-0.1-9.9-0.1s-2-0.4-2.4-1.2c-0.1-0.4-0.3-1.3-0.3-2.6
			c0.1-5.8,0.3-10.4,0.3-10.4c-0.1-0.8,2.4-1.2,2.4-1.2c0.6-0.1,4.4-0.2,9.9-0.2c17.7-0.2,53-0.2,53-0.2s1.8,0.3,2.2,0.9
			c0,1.6,0,3.1,0,4.5c0,2.6,0,6.2,0,10C77.8,546.6,75.9,546.9,75.9,546.9z"/>
		<path class="st3" d="M65.9,546.9c-5.2,0.2-36.5-0.1-52.8-0.3c-5.9-0.1-9.9-0.1-9.9-0.1s-2-0.4-2.4-1.2c-0.1-0.4-0.3-1.3-0.3-2.6
			c0.1-5.8,0.3-10.4,0.3-10.4c-0.1-0.8,2.4-1.2,2.4-1.2c0.6-0.1,4.4-0.2,9.9-0.2c17.7-0.2,53-0.2,53-0.2s1.8,0.3,2.2,0.9
			c0,1.6,0,3.1,0,4.5c0,2.6,0,6.2,0,10C67.8,546.6,65.9,546.9,65.9,546.9z"/>
	</g>
	<g>
		<path class="st3" d="M2.8,530.9c5.2,0.2,36.5-0.1,52.8-0.3c5.9-0.1,9.9-0.1,9.9-0.1s2-0.4,2.4-1.2c0.1-0.4,0.3-1.3,0.3-2.6
			c-0.1-5.8-0.3-10.4-0.3-10.4c0.1-0.8-2.4-1.2-2.4-1.2c-0.6-0.1-4.4-0.2-9.9-0.2c-17.7-0.2-53-0.2-53-0.2s-1.8,0.3-2.2,0.9
			c0,1.6,0,3.1,0,4.5c0,2.6,0,6.2,0,10C0.9,530.6,2.8,530.9,2.8,530.9z"/>
		<path class="st3" d="M12.8,530.9c5.2,0.2,36.5-0.1,52.8-0.3c5.9-0.1,9.9-0.1,9.9-0.1s2-0.4,2.4-1.2c0.1-0.4,0.3-1.3,0.3-2.6
			c-0.1-5.8-0.3-10.4-0.3-10.4c0.1-0.8-2.4-1.2-2.4-1.2c-0.6-0.1-4.4-0.2-9.9-0.2c-17.7-0.2-53-0.2-53-0.2s-1.8,0.3-2.2,0.9
			c0,1.6,0,3.1,0,4.5c0,2.6,0,6.2,0,10C10.9,530.6,12.8,530.9,12.8,530.9z"/>
	</g>
	<g>
		<path class="st3" d="M75.9,514.9c-5.2,0.2-36.5-0.1-52.8-0.3c-5.9-0.1-9.9-0.1-9.9-0.1s-2-0.4-2.4-1.2c-0.1-0.4-0.3-1.3-0.3-2.6
			c0.1-5.8,0.3-10.4,0.3-10.4c-0.1-0.8,2.4-1.2,2.4-1.2c0.6-0.1,4.4-0.2,9.9-0.2c17.7-0.2,53-0.2,53-0.2s1.8,0.3,2.2,0.9
			c0,1.6,0,3.1,0,4.5c0,2.6,0,6.2,0,10C77.8,514.6,75.9,514.9,75.9,514.9z"/>
		<path class="st3" d="M65.9,514.9c-5.2,0.2-36.5-0.1-52.8-0.3c-5.9-0.1-9.9-0.1-9.9-0.1s-2-0.4-2.4-1.2c-0.1-0.4-0.3-1.3-0.3-2.6
			c0.1-5.8,0.3-10.4,0.3-10.4c-0.1-0.8,2.4-1.2,2.4-1.2c0.6-0.1,4.4-0.2,9.9-0.2c17.7-0.2,53-0.2,53-0.2s1.8,0.3,2.2,0.9
			c0,1.6,0,3.1,0,4.5c0,2.6,0,6.2,0,10C67.8,514.6,65.9,514.9,65.9,514.9z"/>
	</g>
	<g>
		<path class="st3" d="M2.8,498.9c5.2,0.2,36.5-0.1,52.8-0.3c5.9-0.1,9.9-0.1,9.9-0.1s2-0.4,2.4-1.2c0.1-0.4,0.3-1.3,0.3-2.6
			c-0.1-5.8-0.3-10.4-0.3-10.4c0.1-0.8-2.4-1.2-2.4-1.2c-0.6-0.1-4.4-0.2-9.9-0.2c-17.7-0.2-53-0.2-53-0.2s-1.8,0.3-2.2,0.9
			c0,1.6,0,3.1,0,4.5c0,2.6,0,6.2,0,10C0.9,498.6,2.8,498.9,2.8,498.9z"/>
		<path class="st3" d="M12.8,498.9c5.2,0.2,36.5-0.1,52.8-0.3c5.9-0.1,9.9-0.1,9.9-0.1s2-0.4,2.4-1.2c0.1-0.4,0.3-1.3,0.3-2.6
			c-0.1-5.8-0.3-10.4-0.3-10.4c0.1-0.8-2.4-1.2-2.4-1.2c-0.6-0.1-4.4-0.2-9.9-0.2c-17.7-0.2-53-0.2-53-0.2s-1.8,0.3-2.2,0.9
			c0,1.6,0,3.1,0,4.5c0,2.6,0,6.2,0,10C10.9,498.6,12.8,498.9,12.8,498.9z"/>
	</g>
	<g>
		<path class="st3" d="M75.9,482.9c-5.2,0.2-36.5-0.1-52.8-0.3c-5.9-0.1-9.9-0.1-9.9-0.1s-2-0.4-2.4-1.2c-0.1-0.4-0.3-1.3-0.3-2.6
			c0.1-5.8,0.3-10.4,0.3-10.4c-0.1-0.8,2.4-1.2,2.4-1.2c0.6-0.1,4.4-0.2,9.9-0.2c17.7-0.2,53-0.2,53-0.2s1.8,0.3,2.2,0.9
			c0,1.6,0,3.1,0,4.5c0,2.6,0,6.2,0,10C77.8,482.6,75.9,482.9,75.9,482.9z"/>
		<path class="st3" d="M65.9,482.9c-5.2,0.2-36.5-0.1-52.8-0.3c-5.9-0.1-9.9-0.1-9.9-0.1s-2-0.4-2.4-1.2c-0.1-0.4-0.3-1.3-0.3-2.6
			c0.1-5.8,0.3-10.4,0.3-10.4c-0.1-0.8,2.4-1.2,2.4-1.2c0.6-0.1,4.4-0.2,9.9-0.2c17.7-0.2,53-0.2,53-0.2s1.8,0.3,2.2,0.9
			c0,1.6,0,3.1,0,4.5c0,2.6,0,6.2,0,10C67.8,482.6,65.9,482.9,65.9,482.9z"/>
	</g>
</g>
<g>
	<path class="st4" d="M587.8,514c1.3-14.8-2.8-40.1-0.8-44.6c0.9-2.1,0.8-3.8-0.2-5.3c-5-7.3-30.4-7.9-41.2-7.8
		c-3.6-0.5-5.8-0.6-5.8-0.6c-2.2,0.4-4.4,0.9-6.4,1.4c-28.5,3.3-37.1,9.5-38.1,15.4c-0.8,4.6,2.9,98.5,2.9,101.4
		c-0.1,5.4,5.8,10.4,7.3,12.1c3.4,3.7,20,7.9,49.9,4.7c29.9-3.3,27.8-5.9,34.6-21.1c0.5-1.1,0.7-2.1,0.6-3.1
		C590.2,563.7,585.9,534.9,587.8,514z"/>
	<path id="XMLID_355_" class="st4" d="M502.5,485.8c-3.4-3.7-28.2-23.5,38.3-29.4c0,0,53.1-2.2,46.3,13s-4.7,17.8-34.6,21.1"/>
	<path id="XMLID_357_" class="st4" d="M543.7,556.7c0,0,53.1-2.2,46.3,13s-4.7,17.8-34.6,21.1c-29.9,3.3-46.5-0.9-49.9-4.7
		c-2.6-2.8-17.2-14.6,3.7-22.8"/>
	<path class="st4" d="M555.4,464.4c-0.1-0.3,0.6-22,0-23.7c-1.4-4.1-3.6-3.7-15.6-4c-12.1-0.3-12.5,7.1-12.5,7.1
		c0.3,1.3,0,23.7,0,23.7"/>
	<path id="XMLID_361_" class="st4" d="M542.8,449.2c-2.1,0.3-4.4,0.4-6.6,0.3"/>
	<path id="XMLID_358_" class="st4" d="M532,448.8c-2.4-0.8-4.2-2.3-4.7-4.9c0,0,0.4-7.4,12.5-7.1s14.3-0.1,15.6,4
		c1.4,4.1-2.7,6.6-5.9,7.2"/>
	<g>
		<path class="st4" d="M555.4,430.7c-1.4-4.1-3.6-3.7-15.6-4c-12.1-0.3-12.5,7.1-12.5,7.1c0.1,0.7,0,4,0,4c1.9,9.1,19,4.8,22.2,4.1
			c3.2-0.6,7.3-3.2,5.9-7.2C555.4,434.6,555.9,432.1,555.4,430.7z"/>
		<path id="XMLID_359_" class="st4" d="M527.3,433.8c0,0,0.4-7.4,12.5-7.1s14.3-0.1,15.6,4c1.4,4.1-2.7,6.6-5.9,7.2
			C546.3,438.6,529.2,443,527.3,433.8z"/>
	</g>
</g>
<g>
	<path class="st5" d="M433.8,403.9c5.2,0.2,36.5-0.1,52.8-0.3c5.9-0.1,9.9-0.1,9.9-0.1s2-0.4,2.4-1.2c0.1-0.4,0.3-1.3,0.3-2.6
		c-0.1-5.8-0.3-10.4-0.3-10.4c0.1-0.8-2.4-1.2-2.4-1.2c-0.6-0.1-4.4-0.2-9.9-0.2c-17.7-0.2-53-0.2-53-0.2s-1.8,0.3-2.2,0.9
		c0,1.6,0,3.1,0,4.5c0,2.6,0,6.2,0,10C431.9,403.6,433.8,403.9,433.8,403.9z"/>
	<path class="st5" d="M443.8,403.9c5.2,0.2,36.5-0.1,52.8-0.3c5.9-0.1,9.9-0.1,9.9-0.1s2-0.4,2.4-1.2c0.1-0.4,0.3-1.3,0.3-2.6
		c-0.1-5.8-0.3-10.4-0.3-10.4c0.1-0.8-2.4-1.2-2.4-1.2c-0.6-0.1-4.4-0.2-9.9-0.2c-17.7-0.2-53-0.2-53-0.2s-1.8,0.3-2.2,0.9
		c0,1.6,0,3.1,0,4.5c0,2.6,0,6.2,0,10C441.9,403.6,443.8,403.9,443.8,403.9z"/>
	<g>
		<g>
			<path id="XMLID_338_" class="st5" d="M488.2,397.1c0,0,5.2,7.4,8.6,0.2S487.1,388.1,488.2,397.1z"/>
			<g>
				<path id="XMLID_336_" class="st5" d="M490.1,396.6c0,0,3.1,4.4,5.1,0.1S489.4,391.3,490.1,396.6z"/>
			</g>
		</g>
	</g>
	<g>
		<g>
			<path id="XMLID_341_" class="st5" d="M445.2,397.1c0,0,5.2,7.4,8.6,0.2S444.1,388.1,445.2,397.1z"/>
			<g>
				<path id="XMLID_340_" class="st5" d="M447.1,396.6c0,0,3.1,4.4,5.1,0.1S446.4,391.3,447.1,396.6z"/>
			</g>
		</g>
	</g>
	<g>
		<g>
			<path id="XMLID_343_" class="st5" d="M458.2,397.1c0,0,5.2,7.4,8.6,0.2S457.1,388.1,458.2,397.1z"/>
			<g>
				<path id="XMLID_342_" class="st5" d="M460.1,396.6c0,0,3.1,4.4,5.1,0.1S459.4,391.3,460.1,396.6z"/>
			</g>
		</g>
	</g>
	<g>
		<g>
			<path id="XMLID_345_" class="st5" d="M500.2,394.4c0,0,3.4,4.8,5.6,0.1S499.5,388.5,500.2,394.4z"/>
			<g>
				<path id="XMLID_344_" class="st5" d="M501.8,393.9c0,0,1.6,2.2,2.6,0.1C505.3,391.9,501.5,391.2,501.8,393.9z"/>
			</g>
		</g>
	</g>
	<g>
		<g>
			<g>
				<path id="XMLID_346_" class="st5" d="M501.8,400.9c0,0,1.6,2.2,2.6,0.1C505.3,398.9,501.5,398.2,501.8,400.9z"/>
			</g>
		</g>
	</g>
	<g>
		<path class="st5" d="M474,390.2c-1.2,0.1-2.4,1-2.1,3c0,0,1.1,1.6,2.4,1.7c0.6,0,7.2,0.2,8.3,0c0.6-0.1,1.1-0.5,1.6-1.6
			c0.9-1.9-0.5-3-1.9-3.1C481.5,390.1,474.9,390.1,474,390.2z"/>
		<g>
			<path id="XMLID_348_" class="st5" d="M472.8,392.9c0,0,1.6,2.2,2.6,0.1C476.3,390.9,472.5,390.2,472.8,392.9z"/>
		</g>
		<g>
			<path id="XMLID_352_" class="st5" d="M480.8,392.9c0,0,1.6,2.2,2.6,0.1C484.3,390.9,480.5,390.2,480.8,392.9z"/>
		</g>
	</g>
	<g>
		<path class="st5" d="M471,398.3c-0.6,0-1.3,0.5-1.1,1.6c0,0,0.6,0.9,1.3,0.9c0.3,0,3.9,0.1,4.4,0c0.3,0,0.6-0.3,0.9-0.8
			c0.5-1-0.2-1.6-1-1.7C475,398.3,471.4,398.3,471,398.3z"/>
		<g>
			<path id="XMLID_350_" class="st5" d="M470.3,399.8c0,0,0.8,1.2,1.4,0C472.2,398.6,470.2,398.3,470.3,399.8z"/>
		</g>
		<g>
			<path id="XMLID_349_" class="st5" d="M474.6,399.8c0,0,0.8,1.2,1.4,0C476.5,398.6,474.4,398.3,474.6,399.8z"/>
		</g>
	</g>
	<g>
		<path class="st5" d="M481,398.3c-0.6,0-1.3,0.5-1.1,1.6c0,0,0.6,0.9,1.3,0.9c0.3,0,3.9,0.1,4.4,0c0.3,0,0.6-0.3,0.9-0.8
			c0.5-1-0.2-1.6-1-1.7C485,398.3,481.4,398.3,481,398.3z"/>
		<g>
			<path id="XMLID_353_" class="st5" d="M480.3,399.8c0,0,0.8,1.2,1.4,0C482.2,398.6,480.2,398.3,480.3,399.8z"/>
		</g>
		<g>
			<path id="XMLID_351_" class="st5" d="M484.6,399.8c0,0,0.8,1.2,1.4,0C486.5,398.6,484.4,398.3,484.6,399.8z"/>
		</g>
	</g>
</g>
<g>
	<g>
		<path class="st2" d="M395.6,518.2c0,0-1.2,18.2-1.2,32.2c0.1,1.7,0.1,3.2,0.1,4.5l0,0c0.1,3.4,0,5-0.4,5.3c-1,8.1,0.1,39,0.1,39
			l-5.8,0.5c0,0,1.1-18.6,0.4-31.2c-0.7-12.6-1.7-46.5-2.9-48.3"/>
		<path class="st2" d="M412.6,517.2c0,0-1.2,18.2-1.2,32.2c0.1,1.7,0.1,3.2,0.1,4.5l0,0c0.1,3.4,0,5-0.4,5.3c-1,8.1,0.1,39,0.1,39
			l-5.8,0.5c0,0,1.1-18.6,0.4-31.2c-0.7-12.6-1.7-46.5-2.9-48.3"/>
		<path class="st2" d="M339.9,517.2c0,0,1.2,18.2,1.2,32.2c-0.1,1.7-0.1,3.2-0.1,4.5l0,0c-0.1,3.4,0,5,0.4,5.3c1,8.1-0.1,39-0.1,39
			l5.8,0.5c0,0-1.1-18.6-0.4-31.2c0.7-12.6,1.7-46.5,2.9-48.3"/>
		<path class="st2" d="M322.9,516.2c0,0,1.2,18.2,1.2,32.2c-0.1,1.7-0.1,3.2-0.1,4.5l0,0c-0.1,3.4,0,5,0.4,5.3c1,8.1-0.1,39-0.1,39
			l5.8,0.5c0,0-1.1-18.6-0.4-31.2c0.7-12.6,1.7-46.5,2.9-48.3"/>
		<path class="st2" d="M412.4,528.3c1.4-3.9,0-11.3,0-11.3s0.3-0.1-0.7-0.1c-0.1,0-0.2,0-0.2,0c-0.1,0-0.1,0-0.2,0
			c0,0-16.6-0.1-43.7-0.1c-27.2,0-43.7,0.1-43.7,0.1c-0.1,0-0.1,0-0.2,0s-0.2,0-0.2,0c-1,0-0.7,0.1-0.7,0.1s-1.4,7.3,0,11.3
			c0,0-0.3,0.1,0.7,0.1c0,0,0.3,0,0.8,0c0.1,0,0.1,0,0.2,0c12.8,0.1,28.6,0.1,43.1,0.1c14.6,0,30.3,0,43.1-0.1c0.1,0,0.2,0,0.2,0
			c0.5,0,0.8,0,0.8,0C412.7,528.4,412.4,528.3,412.4,528.3z"/>
		<path class="st2" d="M401.8,525c0,0,0.3-54.9,0-135.8c0-1.6-0.1-1.1-0.1-1.1s-65.7-1.4-68.3,0c0,0-0.1-0.5-0.1,1.1
			c0,0-0.2,82.8,0,134.9"/>
	</g>
</g>
<g>
	<path class="st4" d="M614.9,576.1c-0.3,5.4,5.4,10.6,6.8,12.4c3.3,3.9,19.7,8.8,49.7,6.7c30-2,28-4.7,35.5-19.6
		c0.5-1.1,0.8-2.1,0.7-3.1c-0.1-1.6-2.8-49.3-1.6-52.1c0.9-2.1,0.8-3.8-0.2-5.3c-5-7.3-30.4-7.9-41.2-7.8c-3.6-0.5-5.8-0.6-5.8-0.6
		c-2.2,0.4-4.4,0.9-6.4,1.4c-28.5,3.3-37.1,9.5-38.1,15.4C614,524.9,614.9,575.1,614.9,576.1z"/>
	<path id="XMLID_584_" class="st4" d="M621.5,536.8c-3.4-3.7-28.2-23.5,38.3-29.4c0,0,53.1-2.2,46.3,13
		c-6.8,15.2-4.7,17.8-34.6,21.1"/>
	<path id="XMLID_583_" class="st4" d="M661.1,560.7c0,0,53.2,0,45.7,14.9s-5.5,17.6-35.5,19.6s-46.4-2.8-49.7-6.7
		c-2.4-2.9-16.5-15.3,4.7-22.7"/>
	<path class="st4" d="M674.4,515.4c-0.1-0.3,0.6-22,0-23.7c-1.4-4.1-3.6-3.7-15.6-4c-12.1-0.3-12.5,7.1-12.5,7.1
		c0.3,1.3,0,23.7,0,23.7"/>
	<path id="XMLID_582_" class="st4" d="M661.8,500.2c-2.1,0.3-4.4,0.4-6.6,0.3"/>
	<path id="XMLID_581_" class="st4" d="M651,499.8c-2.4-0.8-4.2-2.3-4.7-4.9c0,0,0.4-7.4,12.5-7.1s14.3-0.1,15.6,4
		c1.4,4.1-2.7,6.6-5.9,7.2"/>
	<g>
		<path class="st4" d="M674.4,481.7c-1.4-4.1-3.6-3.7-15.6-4c-12.1-0.3-12.5,7.1-12.5,7.1c0.1,0.7,0,4,0,4c1.9,9.1,19,4.8,22.2,4.1
			c3.2-0.6,7.3-3.2,5.9-7.2C674.4,485.6,674.9,483.1,674.4,481.7z"/>
		<path id="XMLID_580_" class="st4" d="M646.3,484.8c0,0,0.4-7.4,12.5-7.1s14.3-0.1,15.6,4c1.4,4.1-2.7,6.6-5.9,7.2
			C665.3,489.6,648.2,494,646.3,484.8z"/>
	</g>
</g>
</svg>
