<?xml version="1.0" encoding="utf-8"?>
<!-- Generator: Adobe Illustrator 22.1.0, SVG Export Plug-In . SVG Version: 6.00 Build 0)  -->
<svg version="1.1" id="Layer_1" xmlns="http://www.w3.org/2000/svg" xmlns:xlink="http://www.w3.org/1999/xlink" x="0px" y="0px"
	 viewBox="0 0 513 385" style="enable-background:new 0 0 513 385;" xml:space="preserve">
<style type="text/css">
	.st0{fill:#FFD767;stroke:#584C4F;stroke-miterlimit:10;}
	.st1{fill:#FFFAF2;stroke:#584C4F;stroke-miterlimit:10;}
</style>
<g id="Layer_5">
</g>
<g id="Layer_3">
</g>
<g>
	<g>
		<path class="st0" d="M269.8,201c-0.4-0.8-1.3-1.3-2.2-1c-0.5,0.2-0.8,0.6-1.2,0.9c-0.2,0.2-0.5,0.3-0.7,0.2
			c-0.5-0.1-0.7-0.6-0.8-1c-0.2-0.7-0.1-1.4-0.3-2.1c-0.2-0.6-0.6-1.1-1.2-1.2c-0.5-0.1-1,0.2-1.1,0.7c-0.1,0.5,0.3,1,0.5,1.4
			c0.2,0.3,0.2,0.6,0.2,0.9c0,0.2-0.1,0.5-0.4,0.6l-0.3,0.1c-0.4,0.1-0.8,0-1.1-0.1c-0.6-0.4-0.9-1.1-1-1.7c-0.1-0.7-0.1-1.4-0.4-2
			c-0.2-0.5-0.6-1.1-1.2-1.2c-1.1-0.3-1.9,0.8-2.2,1.7c-0.2,0.5-0.4,1.1-0.3,1.6c0.1,0.3,0.3,0.5,0.6,0.6c0.3,0.2,0.7,0.3,1,0.5
			c0.7,0.4,1.2,1,1,1.8c-0.1,0.3-0.3,0.6-0.6,0.7c-0.3,0.1-0.7,0-1-0.1c-0.5-0.3-1-0.7-1.6-0.6c-0.4,0-0.9,0.3-0.8,0.8
			c0.1,0.6,0.9,0.6,1.4,0.7c0.3,0.1,0.7,0.2,0.8,0.5c0.2,0.5-0.4,0.7-0.8,0.9c-0.9,0.4-1.5,1.4-1.5,2.4c0,1,0.5,2,1.6,2.4
			c1,0.3,2.1,0,2.8-0.7c0.4-0.4,0.6-0.9,0.7-1.5c0.1-0.4,0.2-0.8,0.5-1c0.3-0.2,0.8-0.2,0.9,0.2c0.1,0.3-0.1,0.6,0,0.9
			c0.1,0.2,0.3,0.4,0.6,0.5c0.5,0.2,1.3,0.4,1.8,0.3c0.4-0.1,0.9-0.5,0.9-0.9c0.1-0.7-0.7-0.9-1-1.4c-0.3-0.5-0.3-1.2,0.1-1.7
			c0.4-0.5,1.1-0.6,1.7-0.5c0.6,0.1,1.1,0.4,1.7,0.5c0.5,0.1,1.1,0,1.5-0.3C269.7,203,270.3,201.9,269.8,201z"/>
		<path class="st1" d="M252.7,198c-10.7,3.4-5.1,16.3-5.1,16.3s6.9,8.1,15.6,1.7C272,209.6,263.4,194.6,252.7,198z M262.6,215.2
			c-7.9,5.8-14.1-1.5-14.1-1.5s-5.1-11.6,4.6-14.7C262.7,196,270.5,209.4,262.6,215.2z"/>
		<g id="XMLID_17536_">
			<path id="XMLID_17537_" class="st1" d="M267.8,217.2C267.8,217.2,267.8,217.2,267.8,217.2c0-0.2,0-0.3,0-0.3c0,0,0-0.2,0-0.4
				c0-0.2,0-0.4,0-0.4c0-0.1,0-0.4,0-0.5c0,0,0-0.6,0-0.7c0-0.2,0-0.6,0-0.7c0-0.1,0-1.6-0.1-1.9c0,0,0,0,0,0c0-0.3,0-0.5,0-0.7
				c0-0.5,0-1.5,0-1.9c0,0,0.1-1.7,0-1.7c0,0,0,0,0-0.1c0-0.3,0-0.6,0-0.8c0,0,0.1-1.7,0-1.7c0-0.2-0.3-0.4-0.8-0.4
				c-0.1,0-0.9,0-1.9,0c-0.1,0-0.1,0-0.2,0c-0.2,0-17.1,0-17.3,0c-0.1,0-0.1,0-0.2,0c-1,0-1.8,0-1.9,0c-0.5,0-0.8,0.2-0.8,0.4
				c0,0.1,0,0.2,0,0.3c0,0.1,0,1.3,0,1.3c0,0,0,0.5,0,1c0,0,0,0,0,0c0,0.1,0,0.2,0,0.3c0,0.1,0,1.3,0,1.3c0,0,0,1.5,0,2
				c0,0.2,0,0.4,0,0.7c0,0,0,0,0,0c0,0.2-0.1,1.7-0.1,1.9c0,0.1,0,1.3,0,1.3c0,0.1,0,1,0,1c0,0,0,0.1,0,0.2c0,0.1,0,0.1,0,0.1
				c0,0,0,0.3,0,0.5c0,0.1,0,0.1,0,0.2c0,0,0,0.1,0,0.1c0,0.3,0,0.5,0,0.5c0,0.1,0,1,0,1c0,0.1,0,0.3,0,0.5c0,0.1,0,0.1,0,0.2
				c0,0.1,0,0.2,0,0.4c0,0.1,0,0.1,0,0.1c0,0,0,0.1,0.1,0.1c0,0.4,0,1.4,0,1.9c0,0.2,0,0.5,0,0.8c0,0,0,0,0,0.1
				c0,0.2-0.1,1.8-0.1,1.9c0,0.1,0,0.2,0,0.2c0,0.1,0,0.8,0,1c0,0.1,0,0.2,0,0.2c0,0,0,0.1,0,0.1c0,0.5,0,1.1,0,1.2
				c0,0.1,0,0.2,0,0.2c0,0.1,0,0.8,0,1c0,0.1,0,0.2,0,0.2c0,0.1,0.1,0.3,0.7,0.4c0.3,0.1,3.7,0,4.8,0c1.7,0,10.3,0,12,0
				c1.1,0,4.4,0.1,4.8,0c0.6-0.1,0.7-0.2,0.7-0.4c0,0,0-0.1,0-0.2c0-0.1,0-0.3,0-0.3c0,0,0-0.1,0-0.2c0-0.2,0-0.6,0-0.7
				c0-0.1,0-0.7,0-1.2c0,0,0-0.1,0-0.1c0,0,0-0.1,0-0.2c0-0.1,0-0.3,0-0.3c0,0,0-0.1,0-0.2c0-0.2,0-0.6,0-0.7c0-0.1,0-1.7-0.1-1.9
				c0,0,0,0,0-0.1c0-0.3,0-0.6,0-0.8c0-0.5,0.1-2,0-2.1c0,0,0-0.1,0-0.1c0-0.1,0-0.3,0-0.4c0,0,0-1.1,0-1.2c0,0,0,0,0,0
				c0-0.1,0-0.1,0-0.2c0-0.1,0-0.2,0-0.3c0,0,0,0,0-0.1c0-0.2,0-0.4,0-0.4c0,0,0-0.1,0-0.1C267.8,217.5,267.8,217.3,267.8,217.2z"/>
		</g>
	</g>
</g>
</svg>
