<?xml version="1.0" encoding="utf-8"?>
<!-- Generator: Adobe Illustrator 22.1.0, SVG Export Plug-In . SVG Version: 6.00 Build 0)  -->
<svg version="1.1" id="Layer_1" xmlns="http://www.w3.org/2000/svg" xmlns:xlink="http://www.w3.org/1999/xlink" x="0px" y="0px"
	 viewBox="0 0 513 385" style="enable-background:new 0 0 513 385;" xml:space="preserve">
<style type="text/css">
	.st0{fill:#A36B78;stroke:#584C4F;stroke-linecap:round;stroke-miterlimit:10;}
	.st1{fill:#E6C86B;stroke:#584C4F;stroke-miterlimit:10;}
	.st2{fill:#FCDE82;stroke:#584C4F;stroke-miterlimit:10;}
	.st3{fill:#FFD767;stroke:#584C4F;stroke-miterlimit:10;}
	.st4{opacity:0.1;fill:#231F20;stroke:#231F20;stroke-miterlimit:10;}
</style>
<g id="Layer_5">
</g>
<g id="Layer_3">
</g>
<g>
	<g>
		<path class="st0" d="M253.3,388.2c0,0-1.2,8.5-0.3,10.6c0.9,2.1,4.4,0.9,4-0.4s0.1-10-1.1-10.3S253.5,387.6,253.3,388.2z"/>
		<path id="XMLID_24712_" class="st0" d="M256.9,637.8c-1.8-38.4-3.4-85.6-4.6-110.1c-2.3-44.4,1.3-109.6,1.3-109.6l-18.7,1.6
			c0,0,3.8,115.2,0,139.4c-2.7,17.3,2.1,81.5,3.6,119"/>
		<path id="XMLID_24711_" class="st0" d="M249.6,434.9c0,0,15-10.1,0-10.9"/>
		<g>
			<path class="st0" d="M245.2,391.4c0,0,8.5,1.2,10.6,0.3c2.1-0.9,0.9-4.4-0.4-4c-1.3,0.4-10-0.1-10.3,1.1
				C244.9,390,244.6,391.2,245.2,391.4z"/>
			<path class="st0" d="M248.3,391.3c0,0-3,1-3-1s-1-4,2-4s3,2,3,2S251.3,390.3,248.3,391.3z"/>
		</g>
		<path class="st0" d="M231.6,419.2c0,0-3.3-8.6,3.3-8.6s13.1-2.9,13.1,5.8s-6.6,8.6-6.6,8.6S234.9,427.8,231.6,419.2z"/>
		<path class="st0" d="M242.7,413.1c0,0-2.8-17.1,2.8-17.1c5.6,0,11.3-5.7,11.3,11.4s-5.6,17.1-5.6,17.1S245.5,430.2,242.7,413.1z"
			/>
		<path class="st0" d="M250.9,384.8c0,0-3.9,9.6-3.4,12.4c0.5,2.8,5.4,2.7,5.3,1c-0.1-1.7,3-11.7,1.5-12.5
			C252.7,384.9,251.2,384.1,250.9,384.8z"/>
		<g>
			<path class="st0" d="M240.2,386.9c0,0,9.6,3.9,12.4,3.4c2.8-0.5,2.7-5.4,1-5.3c-1.7,0.1-11.7-3-12.5-1.5S239.6,386.6,240.2,386.9
				z"/>
			<path class="st0" d="M243.4,388.4c0,0-3,1-3-1s-1-4,2-4s3,2,3,2S246.4,387.4,243.4,388.4z"/>
		</g>
		<path class="st0" d="M245.5,384.1c0,0-1.5,11.3-0.1,14.1s6.4,1.4,5.8-0.4c-0.6-1.8,0-13.3-1.9-13.7
			C247.5,383.7,245.7,383.4,245.5,384.1z"/>
		<g>
			<path class="st0" d="M234.4,389.4c0,0,11.3,1.5,14.1,0.1c2.8-1.3,1.4-6.4-0.4-5.8c-1.8,0.6-13.3,0-13.7,1.9
				C234,387.4,233.7,389.3,234.4,389.4z"/>
			<path class="st0" d="M237.2,390.1c0,0-3,1-3-1s-1-4,2-4s3,2,3,2S240.2,389.1,237.2,390.1z"/>
		</g>
		<g>
			<path class="st0" d="M230.1,406.2c0,0,7.3-8.5,7.8-11.4c0.5-2.9-4.1-4.1-4.7-2.4c-0.5,1.7-7.3,10.8-6.1,12
				S229.5,406.8,230.1,406.2z"/>
			<path class="st0" d="M231.7,404.5c0,0-1.4,2.8-2.8,1.4s-3.5-2.1-1.4-4.2s3.5-0.7,3.5-0.7S233.1,401.7,231.7,404.5z"/>
		</g>
		<path class="st0" d="M232.9,394.5c0,0,8.5,7.3,11.4,7.8c2.9,0.5,4.1-4.1,2.4-4.7c-1.7-0.5-10.8-7.3-12-6.1
			S232.3,393.9,232.9,394.5z"/>
		<g>
			<g id="XMLID_24704_">
				<path id="XMLID_24710_" class="st1" d="M220.3,381.6c0,0-1.3-6.2-7.4-4c-6.1,2.2-3.1,25.8-0.3,27.6
					C215.4,407,223.3,418.2,220.3,381.6z"/>
				<path id="XMLID_24709_" class="st1" d="M218.9,392.9c0,0,10.7-10.6,8.5,9.2c0,0,2.5,6.1,7.5,3.6c5-2.5,5.7-33.9-18.2-25.1"/>
				<path id="XMLID_24708_" class="st2" d="M231.7,382.7c0,0-1,0.5-1.3,1"/>
				<path id="XMLID_24707_" class="st2" d="M216.2,378.2c0,0-1,0.5-1.3,1"/>
				<path id="XMLID_24706_" class="st2" d="M219.5,403c-0.3,0.2-0.5,0.4-0.6,0.6"/>
				<path id="XMLID_24705_" class="st2" d="M236.7,397.2c0,0-0.3,0.2-0.7,0.4"/>
			</g>
			<g id="XMLID_24693_">
				<path id="XMLID_24703_" class="st3" d="M217.5,384.3c0,0-1.3-6.2-7.4-4c-6.1,2.2-3.1,25.8-0.3,27.6
					C212.7,409.7,220.6,421,217.5,384.3z"/>
				<path id="XMLID_24702_" class="st3" d="M216.1,395.7c0,0,10.7-10.6,8.5,9.2c0,0,2.5,6.1,7.5,3.6c5-2.5,5.7-33.9-18.2-25.1"/>
				<line id="XMLID_24701_" class="st3" x1="212.7" y1="407.7" x2="213.7" y2="408.1"/>
				<path id="XMLID_24700_" class="st3" d="M231,405c0,0,0.4,0.8-0.2,1.2"/>
				<path id="XMLID_24699_" class="st3" d="M233.3,394.9c0,0-0.2,0.7-0.4,1"/>
				<path id="XMLID_24698_" class="st3" d="M216.3,401.2c0,0,0.3-1.4,0-1.4"/>
				<path id="XMLID_24697_" class="st3" d="M223.9,391.6c0,0,1.3,0.2,1.2,0.4"/>
				<path id="XMLID_24696_" class="st3" d="M211.1,398.2c0,0,1.5-0.2,1.6-0.5"/>
				<path id="XMLID_24695_" class="st3" d="M218.9,383.6c0,0-1,0.5-1.3,1"/>
				<line id="XMLID_24694_" class="st3" x1="209.7" y1="385.3" x2="210.8" y2="385"/>
				<path class="st4" d="M216.8,382.4c-0.9-1.6-2.9-3.5-6.6-2.1c-1,0.4-1.8,1.3-2.3,2.6c3.5-1.1,5.3,0.7,6.2,2.3
					c18.2-4.7,20,16.3,17.1,23.6c0.3-0.1,0.7-0.2,1.1-0.4C236.9,406,237.8,377,216.8,382.4z"/>
			</g>
		</g>
		<path class="st0" d="M226.8,415.8c0,0,9.4,3,11.9,2.3c2.6-0.7,2.3-5.4,0.6-5.2c-1.6,0.2-11.3-2-11.9-0.5S226.2,415.5,226.8,415.8z
			"/>
		<g>
			<path class="st0" d="M228.8,402.5c0,0-3,9.4-2.3,11.9c0.7,2.6,5.4,2.3,5.2,0.6c-0.2-1.6,2-11.3,0.5-11.9
				C230.6,402.5,229,401.8,228.8,402.5z"/>
			<path class="st0" d="M228.6,402.6c0,0,1.4-2.8,2.8-1.4c1.4,1.4,3.5,2.1,1.4,4.2c-2.1,2.1-3.5,0.7-3.5,0.7
				S227.2,405.4,228.6,402.6z"/>
		</g>
	</g>
</g>
</svg>
