<?xml version="1.0" encoding="utf-8"?>
<!-- Generator: Adobe Illustrator 22.1.0, SVG Export Plug-In . SVG Version: 6.00 Build 0)  -->
<svg version="1.1" id="Layer_1" xmlns="http://www.w3.org/2000/svg" xmlns:xlink="http://www.w3.org/1999/xlink" x="0px" y="0px"
	 viewBox="0 0 672.9 216.8" style="enable-background:new 0 0 672.9 216.8;" xml:space="preserve">
<style type="text/css">
	.st0{fill:#EFE4DA;stroke:#5C5B4B;stroke-miterlimit:10;}
	.st1{fill:#F6F5FA;stroke:#5C5B4B;stroke-miterlimit:10;}
	.st2{fill:#FFF5EB;stroke:#5C5B4B;stroke-linecap:round;stroke-miterlimit:10;}
</style>
<g id="Layer_5">
</g>
<g id="Layer_3">
</g>
<g>
	<path id="XMLID_292_" class="st0" d="M273.2,100.3c0,0-2-35-25.7-24.7s-10.4,109.5,49.8,95.2c60.2-14.3,35.9-92.2,35.9-92.2
		s-25-22.3-29.5,16.2c0,0-1.3,25.8-13.1,27.9C279,124.8,272,106.7,273.2,100.3z"/>
	<path id="XMLID_263_" class="st1" d="M262.2,89.3c0,0-2-35-25.7-24.7s-10.4,109.5,49.8,95.2c60.2-14.3,35.9-92.2,35.9-92.2
		s-25-22.3-29.5,16.2c0,0-1.3,25.8-13.1,27.9C268,113.8,261,95.7,262.2,89.3z"/>
	<g>
		<line id="XMLID_224_" class="st2" x1="308.2" y1="67.4" x2="304.6" y2="65.8"/>
		<path id="XMLID_223_" class="st2" d="M242.9,76.8c0,0-1.4-2.9,0.8-4.2"/>
		<path id="XMLID_222_" class="st2" d="M234.4,113.1c0,0,0.7-2.7,1.4-3.6"/>
		<path id="XMLID_221_" class="st2" d="M295.2,90.6c0,0-1.2,5,0,5"/>
		<path id="XMLID_220_" class="st2" d="M268.2,125c0,0-4.6-0.7-4.2-1.4"/>
		<path id="XMLID_219_" class="st2" d="M313.8,101.4c0,0-5.5,0.8-5.8,1.9"/>
		<path id="XMLID_218_" class="st2" d="M286.2,153.5c0,0,3.6-1.7,4.6-3.5"/>
		<line id="XMLID_195_" class="st2" x1="318.9" y1="147.6" x2="315.2" y2="148.6"/>
		<path class="st2" d="M296.6,110.8"/>
	</g>
</g>
</svg>
