<?xml version="1.0" encoding="utf-8"?>
<!-- Generator: Adobe Illustrator 22.1.0, SVG Export Plug-In . SVG Version: 6.00 Build 0)  -->
<svg version="1.1" id="Layer_1" xmlns="http://www.w3.org/2000/svg" xmlns:xlink="http://www.w3.org/1999/xlink" x="0px" y="0px"
	 viewBox="0 0 60.4 181" style="enable-background:new 0 0 60.4 181;" xml:space="preserve">
<style type="text/css">
	.st0{opacity:0.1;fill:#231F20;stroke:#231F20;stroke-miterlimit:10;enable-background:new    ;}
	.st1{fill:#A36B78;stroke:#584C4F;stroke-linecap:round;stroke-miterlimit:10;}
	.st2{fill:#A36B78;stroke:#584C4F;stroke-linecap:round;stroke-linejoin:round;stroke-miterlimit:10;}
	.st3{fill:#FFD767;stroke:#584C4F;stroke-miterlimit:10;}
	.st4{fill:#A36B78;}
	.st5{fill:none;stroke:#584C4F;stroke-linecap:round;stroke-miterlimit:10;}
	.st6{fill:#BEAB72;}
	.st7{fill:#584C4F;stroke:#584C4F;stroke-linecap:round;stroke-miterlimit:10;}
	.st8{fill:#FFFFFF;stroke:#584C4F;stroke-linecap:round;stroke-miterlimit:10;}
</style>
<g id="Layer_5">
</g>
<g id="Layer_3">
</g>
<g>
	<path class="st0" d="M59.8,170.3c-2.8-8.9-7.8-12.4-14.2-14c0,0-1.5-0.2-4-0.5c-0.2-7.7-0.5-20.5,0.1-24.9c0.2-0.2,0.3-1.5,0.2-4.2
		l0,0c0-1.1,0-2.3,0-3.6c0-3.1,0-6.3,0.2-9.5c0.2,0.1,0.3,0.1,0.5,0.2l0,0c0.1,0,0.2,0.1,0.2,0.1h0c0.1,0,0.2,0.1,0.2,0.1l0,0
		c0.1,0,0.2,0,0.2,0.1l0,0c0.3,0.1,0.7,0.1,0.9,0.1c-0.2,2.7,1.2,1.9,1.8,1.3l0.2,0.1c0.8,1.4,1.8,0.3,2.2-0.3l0,0c0,0,0,0,0-0.1
		l0,0c0,0,0,0,0-0.1l0,0c0,0,0,0,0-0.1l0,0l0,0.4l0,0c0,0,0.1,0.1,0.2,0.1h0c0,0,0.1,0,0.1,0.1c0,0,0,0,0,0s0.1,0,0.2,0.1l0,0
		c0,0,0.1,0,0.1,0s0,0,0,0s0,0,0.1,0l0,0c0,0,0,0,0.1,0l0,0c0,0,0,0,0.1-0.1l0,0c0,0,0,0,0-0.1l0,0l0-0.1l0,0l0-0.1l0,0
		c0,0,0-0.1,0-0.1l0,0c0,0,0-0.1,0-0.1l0,0c0,0,0-0.1,0-0.1l0,0c0,0,0-0.1,0-0.1l0,0c0-0.1,0-0.1,0-0.1l0,0c0,0,0-0.1,0-0.1
		c0,0,0,0,0-0.1c0,0,0-0.1,0-0.1c0,0,0,0,0-0.1s0-0.1,0-0.1s0,0,0-0.1c0,0,0-0.1,0-0.1v-0.1v-0.1v-0.1v-0.1c0-0.1,0-0.1,0-0.1
		c0,0,0,0,0-0.1c0,0,0-0.1,0-0.1l0,0c0-0.1,0-0.1,0-0.2c0,0.1,0.2,0.2,0.3,0.3l0,0c0,0,0,0,0.1,0.1l0,0c0,0,0,0,0.1,0l0,0
		c0,0,0,0,0.1,0c0,0,0,0,0,0c0,0,0,0,0.1,0c0,0,0,0,0,0s0,0,0.1,0h0c0,0,0,0,0.1,0h0c0,0,0,0,0.1,0h0c0,0,0,0,0.1,0c0,0,0,0,0.1,0
		s0.1,0,0.1,0h0c1.5-0.1-1.8-5.8-3.1-7.9c-0.2-0.2-0.3-0.5-0.4-0.6c0-0.3,0-0.8,0-1.3c0.4-0.6,0.7-1.4-0.1-1.7c0-0.3,0-0.7,0-1
		c0.3-0.8,0.6-1.6,0.7-2.3c0,0,0,0,0,0s0.1-1.7,0.2-3.8c2.9-0.7,2.2-9.3,1.5-14.4c0-0.2,0-0.3-0.1-0.6c-0.2-1.5-0.5-2.6-0.5-2.9
		c-0.2-0.7-0.3-3.8-0.5-7.6c0.4-5.2-0.2-12.9-0.9-16.8c0-0.3,0-0.6-0.1-0.8c0-0.1,0-0.2,0-0.3c-0.2-1-0.8-1.7-1.7-2.2
		c-1.1-0.8-2.5-1.3-3.3-1.5c-1-0.8-2.7-1.5-4.8-1.8l0.2-0.8c0-0.3,0-0.8,0-1.3c1.3-0.5,2.3-1,3.1-1.8c0.2-0.2,0.3-0.4,0.5-0.6
		c0,0,0.1-0.2,0.2-0.2c0.1-0.2,0.2-0.2,0.2-0.4c0-0.1,0.1-0.2,0.1-0.2c0.2-0.5,0.5-1,0.6-1.5c0-0.1,0-0.2,0.1-0.3
		c0.1-0.4,0.2-0.8,0.3-1.3c0.1-0.5,0.2-1.2,0.3-1.8c0-0.2,0.1-0.5,0.2-0.8c0-0.2,0.1-0.5,0.1-0.8c0.1,0.1,0.2,0.2,0.4,0.2
		c1.6,0.8,3.3-4,3.6-8.5c0.2-2.6-1.5-1.9-2.9-0.8c0-0.1,0-0.2,0-0.4l0,0c0-0.2,0-0.5,0.1-0.7c0-0.1,0-0.1,0-0.2c0-0.1,0-0.3,0-0.5
		c0-0.1,0-0.2,0-0.2c0-0.1,0-0.2,0-0.4c0-0.1,0-0.2,0-0.3c0-0.1,0-0.2,0-0.4s0-0.2,0-0.3c0-0.1,0-0.2,0-0.4s0-0.2,0-0.2
		c0-0.1,0-0.2,0-0.4s0-0.2,0-0.2c0-0.1,0-0.2,0-0.4c0-0.1,0-0.2,0-0.2c0-0.1,0-0.2,0-0.3c0-0.1,0-0.2,0-0.2c0-0.1,0-0.2,0-0.3
		c0-0.1,0-0.1,0-0.2c0-0.1,0-0.2,0-0.3c0-0.1,0-0.1,0-0.2s0-0.2,0-0.3c0-0.1,0-0.1,0-0.2c0-0.1,0-0.2-0.1-0.2c0-0.1,0-0.1,0-0.2
		c0-0.1,0-0.2-0.1-0.2c0,0,0-0.1,0-0.2c0-0.1,0-0.2-0.1-0.2c0,0,0,0,0-0.1l0,0l0,0c0,0,0.1,0,0.1,0s0.3-2.9-0.2-4.4
		c0-0.5-0.2-1.1-0.8-1.9l0,0l0,0c-0.1-0.2-0.2-0.4-0.3-0.6c-1.2-1.6-2.8-2.8-4.5-3.6c-0.2-0.7-0.8-1.4-1.7-1c0,0-0.2,0.1-0.2,0.3
		c-7.1-3.1-9.4,1.2-10.1,4.9c-0.6,0-1.3,0.1-1.9,0.1c-5.8,0.4-4.4,2.4-4.4,2.6c0.1,0.3,0.7,0.6,1.3,0.9c0.5,0.2,1.2,0.6,2,0.8
		c-0.1,0.2-0.2,0.4-0.3,0.6c-1,0-4,0.1-2.4,2.1c-1.9,1.6-2.1,3.5-1.6,5.1c-0.4,0.2-0.5,0.7-0.5,1.6c-0.1,4.5,1.1,9.3,2.8,8.8
		c0.4-0.1,0.6-0.2,0.8-0.5c0,0.2,0.1,0.4,0.1,0.6c-0.8,0.2-1.4,0.7-0.5,1.7c0.1,0.2,0.2,0.2,0.4,0.3c-0.6,0.3-0.8,0.9,0.4,1.6
		c0.2,0.1,0.4,0.2,0.5,0.2c0.2,1.2,0.8,2.5,1.6,3.7l0,0l0,0c0.1,0.2,0.2,0.3,0.4,0.5l0,0c0.1,0.2,0.2,0.3,0.4,0.5l0,0
		c0.1,0.1,0.1,0.2,0.2,0.2l0,0c0.1,0.1,0.1,0.2,0.2,0.2l0,0c0.1,0.1,0.1,0.2,0.2,0.2l0,0c0.1,0.2,0.4,0.3,0.5,0.5c0,0,0,0,0,0
		c0.1,0.1,0.2,0.2,0.2,0.2l0,0c0.1,0.1,0.2,0.2,0.2,0.2c0,0,0,0,0,0c0.1,0,0.2,0.1,0.2,0.2c0,0,0,0,0,0c0.1,0,0.2,0.1,0.3,0.2l0,0
		c0,0,0.1,0.1,0.2,0.1c-0.1,0.3-0.2,0.7,0.2,1.1c0,0.5,0,1,0,1.2c0,0.1,0,0.2,0,0.3l0,0c-0.1,0-0.2,0-0.4,0h0c-0.1,0-0.2,0-0.4,0h0
		c-0.1,0-0.2,0-0.4,0l0,0c-0.1,0-0.2,0-0.4,0.1c0,0,0,0,0,0c-0.1,0-0.2,0-0.4,0.1h0c-0.1,0-0.2,0-0.4,0.1h0C26,47,25.8,47,25.7,47h0
		c-0.1,0-0.2,0.1-0.4,0.1h0c-0.1,0-0.2,0.1-0.4,0.2l0,0c-0.1,0-0.2,0.1-0.4,0.2l0,0c-0.1,0-0.2,0.1-0.4,0.2c0,0,0,0,0,0
		c-0.1,0-0.2,0.1-0.4,0.2c0,0,0,0,0,0c-0.1,0-0.2,0.2-0.3,0.2c0,0,0,0,0,0c-0.1,0.1-0.2,0.2-0.3,0.2c0,0,0,0,0,0
		c-0.1,0.1-0.2,0.2-0.3,0.2l0,0c-0.1,0.1-0.2,0.2-0.2,0.2c-1.2,0.5-2.2,0.9-2.5,1.3c-1.4,2-3,21.9-0.1,24.3c0,1.6,0.1,3.1,0.2,4.5
		c-1.3,0.2-1.2,2.2,0.1,2.2c0,0.3,0,0.8,0,1.1s0,0.6,0,0.9v0.1c0,0.2-0.1,0.3-0.1,0.5c-0.8,2.1-1.9,7.4-0.8,9.4c0,0,0,0.1,0,0.1
		c0.1,0.2,0.4,0.4,0.6,0.6c0,1.2,0.1,2.4,0.1,3.2c0,0.2,0,0.6,0.1,0.8c0,0.1,0,0.2,0,0.2l0,0c0,0,0,0,0,0.1c0,2.2-0.1,4.2-0.2,5.7
		c-0.6,0.6-1.3,1.4-0.1,1.8c0,0.3,0,0.6,0,0.8c-0.5,0.6-0.7,2.9-0.7,2.9s-0.5,10.6,0.5,6.1c0.9-4.5,1.4-4,1,1.3
		c-0.5,5.3,1.9-5.5,2.2-3.8s1.5,12.7,1.5-1.1c0,0-1-6.3,1.6,3.6s-0.5-6.2-0.8-7.1c-0.1-0.5,1.1,1.4,1.9,2.4c0.1,4,0.2,8.4,0.2,12.3
		c0,1.3,0,2.6,0,3.6l0,0c0,1.3,0,2.2,0,2.9c-1,0.4-1,2.2,0.4,2.1c0.4,4.9,0.2,16.2,0,23.6c-9.7,0.4-20.6,2.4-25.3,9.1
		c-9.4,13.4,19.2,16.1,23.1,16C29.3,180.3,62.5,179.2,59.8,170.3z M42.4,105.4c0.5-0.1,0.8-0.2,1.2-0.3c0,0.6,0,1,0,1.2l0,0
		c0,0-0.6,0.8-1.2,1.9C42.3,107.3,42.3,106.4,42.4,105.4z M24.3,106.1L24.3,106.1c0-0.6,0-1.4-0.1-2.7c0.8,0.6,1.6,1,2.7,1.4
		c0.1,1.5,0.1,3.2,0.2,4.8C26.3,108.2,25.7,107.5,24.3,106.1z M31.5,137.5c0.4-7.1,0.8-22.4,1.4-31.3c0.3,0,0.7,0.1,1,0.1
		c0.8,0,1.7,0,2.4,0c0.4,6.5,0.8,16.3,1.1,23.9c-0.8,0.4-1.1,1.8,0.1,2.2c0.1,2,0.2,3.8,0.2,5.2c0.3,5.7,0.2,12.9,0,18.1
		c-1.8-0.1-4-0.2-6.2-0.2C31.3,150.1,31.2,143,31.5,137.5z"/>
	<g>
		<g>
			<g id="XMLID_4075_">
				<path id="XMLID_4076_" class="st1" d="M17,79.7c-2,0.6-1.9-2.8,0.3-2.2"/>
			</g>
			<path id="XMLID_4074_" class="st1" d="M15.6,55.2c0.4,9,0.8,20,1.1,25.6c0.5,10.3-0.3,25.6-0.3,25.6l4.4-0.3c0,0-0.9-26.8,0-32.5
				c0.6-4.1-0.5-19-0.9-27.8"/>
			<g id="XMLID_4072_">
				<path id="XMLID_4073_" class="st1" d="M20.7,105.5c1.8,1.8,2.3,2.4,3.2,4.9c1,2.4-2.5-3.4-2.4-2.6c0.2,0.8,3.5,17.7,0.8,7.3
					s-1.6-3.8-1.6-3.8c0,14.2-1.1,2.8-1.5,1.1s-2.6,9.4-2.2,3.9c0.5-5.6,0-6-1-1.4c-0.9,4.6-0.4-6.2-0.4-6.2s0.2-3.4,1.1-3.1"/>
			</g>
			<path id="XMLID_4071_" class="st1" d="M18.3,77.7c0,0,0.7,0.2,0.8,0.3"/>
			<path id="XMLID_4070_" class="st1" d="M18.1,79.4c0,0-0.6,0.1-0.7-0.3"/>
			<path id="XMLID_4069_" class="st2" d="M17.3,102.5c0,0-3.5,2.3,0,2.6"/>
		</g>
		<path id="XMLID_4068_" class="st3" d="M21.7,55c0.5,1.1-1,15.6-1,16.9c0.1,1.2-0.4,1.4-4,1.2c-3.5-0.2-1.8-23.2-0.4-25.3
			c0.5-0.8,2.5-1.5,4.8-2"/>
		<g>
			<path class="st1" d="M29.8,167.9c-0.1-0.4-0.4-0.9-0.6-1.6c-0.2-0.6-0.5-1.3-0.8-2.2h0c0,0,0,0,0-0.1c0-0.1,0-0.8,0-1.8l-4-0.4
				h-0.2h-0.2c0,0.2,0,0.5-0.1,0.6v0.1c0,0.1,0,0.1-0.1,0.1c-0.1,0.1-0.1,0.2-0.1,0.2s-0.2,0.1-0.5,0.4c-0.5,2.8-2.4,4.4-4.7,5.4
				c0,0.2,0.1,0.4,0.4,0.6c0,0.1,0.1,0.1,0.2,0.2c0.3,0.2,0.8,0.4,1.4,0.5c0.5,0.1,1,0.1,1.6,0.2c0.4,0.1,0.8,0.1,1.1,0.1
				c0.3,0,0.6,0,1,0.1c0.4,0,0.6,0,1-0.1c0.4,0,0.8-0.1,1.1-0.1c0.6-0.1,1.1-0.1,1.6-0.2c0.6-0.1,1.1-0.3,1.4-0.5
				c0.1-0.1,0.2-0.1,0.2-0.2c0.2-0.2,0.4-0.6,0.4-0.9C29.9,168.3,29.9,168.1,29.8,167.9z"/>
			<path class="st1" d="M22.9,96.8c0,0,1,14.8,0.9,26.3c0,1.3,0,2.6,0,3.7l0,0c-0.1,2.8,0,4.1,0.2,4.4c0.8,6.6-0.1,31.9-0.1,31.9
				l4.4,0.4c0,0-0.8-15.2-0.3-25.6c0.5-10.3,1.3-38.1,2.2-39.5"/>
			<g>
				<g id="XMLID_4066_">
					<path id="XMLID_4067_" class="st1" d="M15.1,169.1c0,0,1.6-0.1,1,1.1C15.5,171.5,13.8,170,15.1,169.1z"/>
				</g>
				<g id="XMLID_4064_">
					<path id="XMLID_4065_" class="st1" d="M16,168.9c0,0,1.8-0.2,1.1,1.2C16.5,171.6,14.5,169.9,16,168.9z"/>
				</g>
				<g id="XMLID_4062_">
					<path id="XMLID_4063_" class="st1" d="M17.1,168.6c0,0,2-0.2,1.3,1.4C17.6,171.7,15.4,169.8,17.1,168.6z"/>
				</g>
				<g id="XMLID_4060_">
					<path id="XMLID_4061_" class="st1" d="M18.5,168.4c0,0,2.3-0.2,1.5,1.6C19.1,171.8,16.6,169.7,18.5,168.4z"/>
				</g>
				<path id="XMLID_4059_" class="st1" d="M21.2,170.7c0,0-2.7,0.2-1.5-1.6c1.2-1.8,3.5,0.1,3.7,0.8
					C23.6,170.7,21.2,170.7,21.2,170.7z"/>
			</g>
			<path id="XMLID_4058_" class="st1" d="M26.5,128.9c0,0,0.6,0.1,0.6,0.5"/>
			<path id="XMLID_4057_" class="st1" d="M25.6,133.2c0,0-0.7-0.2-0.8-0.4"/>
			<g id="XMLID_4055_">
				<path id="XMLID_4056_" class="st1" d="M24.6,164.1c-1.6,1.3-2.9-1.9-0.6-2.1"/>
			</g>
			<g id="XMLID_4053_">
				<path id="XMLID_4054_" class="st1" d="M24.4,132c-2,0.6-1.9-2.8,0.3-2.2"/>
			</g>
		</g>
		<path class="st1" d="M44.8,86.8l-28.5-1.1c0,0,0.1,7.6,0.4,10.4c0,0.2,0,0.6,0.1,0.8c0,0.1,0,0.2,0,0.2l0,0
			c0.8,4.4,5.8,8.2,13.7,8.3c12.9,0.2,13.2-3.7,13.2-3.7c0.7-1.2,1-2.3,1.2-3.3c0,0,0,0,0,0S45.3,89.1,44.8,86.8z"/>
		<g>
			<path class="st3" d="M46.5,79.6c0-0.2,0-0.4-0.1-0.6c-0.2-1.6-0.5-2.7-0.5-3.1c-0.3-1.9-1.2-22.5-1.5-26c0-0.1,0-0.2,0-0.3
				c-0.2-1-0.8-1.7-1.7-2.3c-1.1-0.8-2.5-1.3-3.3-1.6c-1.7-1.5-5.2-2.4-10.1-2.2c-4.6,0.2-11.6,0.2-11.9,7.2c0,0.8,0,1.7,0,2.7
				c0.4,9.3,0.4,24.4-0.6,28.5c0,0.2-0.1,0.4-0.1,0.6c-0.8,2.2-1.9,7.7-0.8,9.8c0,0,0.1,0.1,0.1,0.1c0.4,0.7,1.1,0.9,2.2,0.3
				c0,0,1.4-0.3,2.4-0.3l19.8,1.1c0.8,0.1,1.6,0.2,2.2,0.4C48.2,97.9,47.3,86,46.5,79.6z"/>
			<path class="st3" d="M17.3,52.7c0,0.2,0,0.5,0,0.7c0.4,9.3,0.4,24.4-0.6,28.5c0,0.2-0.1,0.4-0.1,0.6c-0.8,2.2-1.9,7.7-0.8,9.8
				c0,0,0.1,0.1,0.1,0.1c0.4,0.7,1.1,0.9,2.2,0.3"/>
			<path class="st3" d="M20.4,92.2l19.8,1.1c0.8,0.1,1.6,0.2,2.2,0.4c5.8,4.2,4.8-7.7,4-14.1c0-0.2,0-0.4-0.1-0.6
				c-0.2-1.6-0.5-2.7-0.5-3.1c-0.3-1.9-1.2-22.5-1.5-26c0-0.1,0-0.2,0-0.3c-0.2-1-0.8-1.7-1.7-2.3c-1.1-0.8-2.5-1.3-3.3-1.6
				c-1.7-1.5-5.2-2.4-10.1-2.2c-4.2,0.2-10.5,0.2-11.8,5.6"/>
		</g>
		<path id="XMLID_4052_" class="st1" d="M45.2,64.8c0,0-2.2,24-1.3,27.6"/>
		<g>
			<path id="XMLID_4051_" class="st4" d="M34.7,43c0-0.9-0.2-3.5-0.3-4.2c0-0.8-0.2-1.4-0.3-2c3-5-5.1-10.8-8-4.3
				c-0.9,2-0.8,5.9-0.8,6.5c0,0.8,0,3.8,0,4.5c0,4.2,6.2,7.5,8.7,2"/>
			<path id="XMLID_4050_" class="st5" d="M32.6,47.5c-2.8,2.5-7.3-0.5-7.3-4c0-0.8,0-3.7,0-4.5c0-0.7-0.1-4.5,0.8-6.5
				c2.9-6.4,11-0.7,8,4.3c0.2,0.5,0.2,1.2,0.3,2c0,0.8,0.3,3.3,0.3,4.2L34,45.5c-0.2,0.3-0.2,0.5-0.5,0.8"/>
		</g>
		<g>
			<path class="st1" d="M39.2,96.8c0,0-1,14.8-0.9,26.3c0,1.3,0,2.6,0,3.7l0,0c0.1,2.8,0,4.1-0.2,4.4c-0.8,6.6,0.1,31.9,0.1,31.9
				l-4.3,0.4c0,0,0.8-15.2,0.3-25.6c-0.5-10.3-1.3-38.1-2.2-39.5"/>
			<path id="XMLID_4049_" class="st1" d="M36.9,129.4c0,0-0.3-0.5-0.8-0.2"/>
			<path id="XMLID_4048_" class="st1" d="M35.2,133.3c0,0,0.7-0.2,0.8-0.4"/>
			<g id="XMLID_4046_">
				<path id="XMLID_4047_" class="st1" d="M37.5,162.3c1.6-1.3,2.9,1.9,0.6,2.1"/>
			</g>
			<g id="XMLID_4044_">
				<path id="XMLID_4045_" class="st1" d="M35,130.5c-1.6-1.3-2.9,1.9-0.6,2.1"/>
			</g>
			<g>
				<path class="st1" d="M39.7,168.7c-0.2-0.4-0.4-0.9-0.7-1.6c-0.2-0.6-0.5-1.3-0.8-2.2h0c0,0,0,0,0-0.1c0-0.1,0-0.8,0-1.8l-4-0.4
					h-0.2h-0.2c0,0.2,0,0.5-0.1,0.6v0.1c0,0.1,0,0.1-0.1,0.1c-0.1,0.1-0.2,0.2-0.2,0.2s-0.2,0.1-0.5,0.4c-0.5,2.8-2.4,4.4-4.7,5.4
					c0,0.2,0.1,0.4,0.4,0.6c0,0.1,0.1,0.1,0.2,0.2c0.3,0.2,0.8,0.4,1.4,0.5c0.5,0.1,1,0.1,1.6,0.2c0.3,0.1,0.8,0.1,1.1,0.1
					c0.3,0,0.6,0,1,0.1c0.3,0,0.7,0,1-0.1c0.4,0,0.8-0.1,1.2-0.1c0.6-0.1,1.1-0.1,1.6-0.2c0.6-0.1,1.1-0.3,1.4-0.5
					c0.1-0.1,0.2-0.1,0.2-0.2c0.2-0.2,0.3-0.6,0.3-0.9C39.7,169,39.7,168.9,39.7,168.7z"/>
				<g>
					<g id="XMLID_4042_">
						<path id="XMLID_4043_" class="st1" d="M24.9,169.9c0,0,1.5-0.1,1,1.1C25.3,172.2,23.6,170.7,24.9,169.9z"/>
					</g>
					<g id="XMLID_4040_">
						<path id="XMLID_4041_" class="st1" d="M25.8,169.7c0,0,1.8-0.2,1.1,1.2C26.3,172.3,24.4,170.7,25.8,169.7z"/>
					</g>
					<g id="XMLID_4038_">
						<path id="XMLID_4039_" class="st1" d="M26.9,169.4c0,0,2-0.2,1.3,1.4C27.5,172.4,25.2,170.5,26.9,169.4z"/>
					</g>
					<g id="XMLID_4036_">
						<path id="XMLID_4037_" class="st1" d="M28.3,169.1c0,0,2.3-0.2,1.5,1.6C28.9,172.6,26.4,170.4,28.3,169.1z"/>
					</g>
					<path id="XMLID_4035_" class="st1" d="M31,171.5c0,0-2.7,0.2-1.5-1.6c1.2-1.8,3.5,0.1,3.7,0.8C33.4,171.4,31,171.5,31,171.5z"
						/>
				</g>
			</g>
		</g>
		<g>
			<g id="XMLID_4033_">
				<path id="XMLID_4034_" class="st1" d="M43.1,77.7c1.6-1.3,2.9,1.8,0.6,2.1"/>
			</g>
			<path id="XMLID_4032_" class="st1" d="M44.9,59.9c-0.3,7.8-0.6,16.2-0.8,20.9c-0.5,10.3,0.3,25.6,0.3,25.6l-4.3-0.3
				c0,0,0.9-26.8,0-32.5c-0.5-3.2,0.1-13.5,0.5-22"/>
			<path id="XMLID_4031_" class="st1" d="M42.3,77.8c0,0,0.6,0.1,0.6,0.5"/>
			<path id="XMLID_4030_" class="st1" d="M42.1,79.4c0,0-0.7-0.2-0.8-0.4"/>
			<g id="XMLID_4017_">
				<path id="XMLID_4029_" class="st4" d="M39,113.5c0.8,0.2,1.3,0.2,1.7,0.2c-0.2,2.8,1.2,1.9,1.8,1.4l0.3,0.1
					c0.9,1.7,2,0.1,2.3-0.5l0,0.4c1.5,0.8,1.3-0.8,1.2-1.7c0.2,0.2,0.5,0.5,1.5,0.5c1.9-0.1-3.6-9.1-3.6-9.1l-4.2,0.9
					C39.9,105.8,35.2,112.5,39,113.5z"/>
				<path id="XMLID_4028_" class="st1" d="M39.9,105.8c0,0-4.8,6.7-1,7.7c0.8,0.2,1.3,0.2,1.7,0.2c-0.2,2.8,1.2,1.9,1.8,1.4l0.3,0.1
					c0.9,1.7,2,0.1,2.3-0.5l0,0.4c1.5,0.8,1.3-0.8,1.2-1.7c0.2,0.2,0.5,0.5,1.5,0.5c1.9-0.1-3.6-9.1-3.6-9.1"/>
				<g id="XMLID_4021_">
					<g id="XMLID_4023_">
						<path id="XMLID_4027_" class="st2" d="M44.1,104.9c0,0,5.5,9,3.6,9.1c-1.8,0.1-1.5-0.9-1.6-0.9c0,0,0.8,3.2-1.2,2.2"/>
						<path id="XMLID_4026_" class="st2" d="M45,114.5c0,0-1.3,2.7-2.4,0.6"/>
						<path id="XMLID_4025_" class="st2" d="M39.9,105.8c0,0-4.8,6.7-1,7.7c3.8,0.9,1.9-1.7,0.8-1.6"/>
						<path id="XMLID_4024_" class="st2" d="M42.7,114.8c0,0-2.5,2.7-2.1-1.4l0.2-2.1"/>
					</g>
					<path id="XMLID_4022_" class="st2" d="M43.4,104.6c0,0,2.5-2.6,0-2.8"/>
				</g>
				<path id="XMLID_4020_" class="st1" d="M42.5,111.2c0,0-0.1,1.2,0.1,1.9"/>
				<path id="XMLID_4019_" class="st1" d="M44.5,112.7c0,0,0,0.9,0.2,0.9"/>
				<path id="XMLID_4018_" class="st2" d="M44.7,109c0.2,0.6,1,1.8,1,1.8"/>
			</g>
		</g>
		<path id="XMLID_4016_" class="st3" d="M38.5,55.7c-0.5,1.1,1,15.6,1,16.9s0.4,1.4,4,1.2c3.5-0.2,1.8-23.2,0.3-25.3
			c-0.5-0.8-2.5-1.5-4.8-2"/>
		<g>
			<path class="st6" d="M37.1,52.3c0,0-3.5-1.3-3.8-0.1c-0.2,1.2-1.3,5.2,0.7,5.5c2.1,0.3,3,0.2,3.1-1.6
				C37.3,54.3,37.1,52.3,37.1,52.3z"/>
			<g>
				<path id="XMLID_4015_" class="st1" d="M37,52.4c0,0,0.5,0.3,0.2,0.8"/>
				<path id="XMLID_4014_" class="st1" d="M33.8,52.2c0,0-0.7,0.3-0.8,0.6"/>
				<path id="XMLID_4013_" class="st1" d="M37.1,55.2c0,0,0.2-0.7,0.1-1"/>
				<path id="XMLID_4012_" class="st1" d="M33.6,57.4c0,0,0.7,0.2,1,0.2"/>
				<path id="XMLID_4011_" class="st1" d="M36.7,56.9c0,0-0.2,0.5-0.7,0.3"/>
				<path id="XMLID_4010_" class="st1" d="M33.1,54.1c0,0-0.1,0.5-0.2,0.7"/>
				<line id="XMLID_4009_" class="st5" x1="35.6" y1="52.1" x2="34.9" y2="52"/>
				<path id="XMLID_4008_" class="st1" d="M32.9,55.9c0,0-0.2,0.7,0,1"/>
			</g>
			<g>
				<path id="XMLID_4007_" class="st1" d="M25.1,100.7c0,0-0.5-0.8-0.1-1.2"/>
				<path id="XMLID_4006_" class="st1" d="M26.1,97.5c0,0-0.5,0.5-0.5,0.8"/>
				<path id="XMLID_4005_" class="st1" d="M25.8,101.9c0,0,0.2,0.7,0.5,0.9"/>
			</g>
		</g>
		<g id="XMLID_3715_">
			<g id="XMLID_4001_">
				<path id="XMLID_4004_" class="st1" d="M20.1,22.1c0,0-4.5-6-4.6-1.3s1.2,9.6,2.8,9s1.6-2,1.6-2"/>
				<path id="XMLID_4003_" class="st1" d="M18.6,22.4c0,0-1.8-2.7-2.2-1.5"/>
				<path id="XMLID_4002_" class="st1" d="M19.3,24.3c0,0-2.6-0.7-2.2,0.8c0.4,1.5,1.3,2.5,1.8,0.9"/>
			</g>
			<path id="XMLID_4000_" class="st7" d="M33.6,1.2c0,0-1.7,1.5,0.4,2.2S35.4,0.4,33.6,1.2z"/>
			<path id="XMLID_3999_" class="st1" d="M30,4.8c0,0,13.5,0.9,11.6,16.9c-1.9,15.9-1.4,18.9-9,20.5S20.8,38.2,20,34
				C19.2,29.7,13.1,6.9,30,4.8z"/>
			<path class="st0" d="M36.3,7.2c1.7,2.5,2.8,6.2,2.2,11.4c-1.9,15.9-1.4,18.9-9,20.4c-3.2,0.7-5.9,0.1-7.9-1.2c2,3,5.6,5.5,11,4.3
				c7.6-1.6,7.1-4.5,9-20.5C42.6,13.6,39.5,9.4,36.3,7.2z"/>
			<path id="XMLID_3998_" class="st3" d="M40.8,8.6c0-0.6-0.2-1.2-0.8-2.1l0,0l0,0C40,6.4,39.9,6.2,39.7,6c-1.5-2.3-4-3.7-6.2-4.4
				c-9.6-4.3-10.6,4.8-10.7,8.3c0,0.4,4.4-0.1,8.4-1.1c5,2,9.8,4.3,9.8,4.3S41.3,10.2,40.8,8.6z"/>
			<path id="XMLID_3997_" class="st1" d="M28.6,23.1c0,0,2.4,1.8,5.5,0.7"/>
			<path id="XMLID_3996_" class="st1" d="M22.7,23.1c0,0-3.9,0.9-4.7,0.5"/>
			<path id="XMLID_3995_" class="st1" d="M25.3,40.8c0,0-1.6,1.5,1.7,2.1c3.4,0.7,5.5-0.2,4.9-1.5"/>
			<path id="XMLID_3994_" class="st3" d="M20.5,11.1c0,0,5.1-2.1,11.2-0.8s9.2,2.8,9.2,2.8c-2-6.7-13.7-6.8-19.6-6.4
				c-6,0.4-4.4,2.7-4.4,2.7S17.8,10.5,20.5,11.1z"/>
			<path id="XMLID_3993_" class="st1" d="M20.5,11.1c0,0-10.3-2.8,4-3.5s16.5,5.5,16.5,5.5S27.8,7.5,20.5,11.1z"/>
			<g>
				<path id="XMLID_3992_" class="st1" d="M27.7,24.3c0,0-2.5-3-2.4-4.7"/>
				<g id="XMLID_3989_">
					<path id="XMLID_3991_" class="st1" d="M23.5,24.6c0.1,0.8,0.4,1.4,0.9,1.5c0.3,0,0.5,0,0.8,0s0.3-0.1,0.4-0.1"/>
					<path id="XMLID_3990_" class="st1" d="M26.1,15c0,0-1.9,4.9-2.4,8.4"/>
				</g>
				<g id="XMLID_3983_">
					<path id="XMLID_3988_" class="st1" d="M22.6,25c0,0-1.8,2.1,1.1,2.6"/>
					<path id="XMLID_3987_" class="st1" d="M27.6,25c0,0,1.9,1.6-0.8,2.6"/>
					<path id="XMLID_3986_" class="st1" d="M26.2,26.3c0.2,0.1,0.7-0.5,1,0s0,0.4-0.5,0.5C26.3,26.9,25.9,26.2,26.2,26.3z"/>
					<path id="XMLID_3985_" class="st1" d="M23.4,27c-0.5,0-0.7-0.5-0.4-0.7c0.1-0.1,0.4,0,0.7,0.2C24,26.7,23.4,27,23.4,27z"/>
					<path id="XMLID_3984_" class="st1" d="M25.4,23.9c0,0,0.5,0,0.7,0.2"/>
				</g>
				<path id="XMLID_3982_" class="st1" d="M21.6,26.3c0,0-1.6,0.8-2,1"/>
				<path id="XMLID_3981_" class="st1" d="M28.7,25.9c0,0,1.9,0.9,2,0.9"/>
			</g>
			<path id="XMLID_3980_" class="st1" d="M36.5,18.1c0,0,0.2,0.5-0.2,0.8"/>
			<path id="XMLID_3979_" class="st1" d="M35.1,23.5c0,0-0.1,0.5-0.2,0.6"/>
			<path id="XMLID_3978_" class="st1" d="M35.2,14.1c0,0,0.2-0.9,0-0.9"/>
			<path id="XMLID_3977_" class="st1" d="M22.1,11c0,0,0.9,0.1,0.8,0.2"/>
			<path id="XMLID_3976_" class="st1" d="M27.3,12.6c0,0,1-0.1,1-0.4"/>
			<path id="XMLID_3975_" class="st1" d="M22.4,36.9c0,0,0.7,0.2,0.8,0.3"/>
			<path id="XMLID_3974_" class="st1" d="M28.4,37.2c0,0-0.6,0.3-0.9,0.6"/>
			<path id="XMLID_3973_" class="st1" d="M21.8,21.3"/>
			<path id="XMLID_3972_" class="st1" d="M26.5,21.9"/>
			<line id="XMLID_3971_" class="st5" x1="33.2" y1="27.1" x2="33.9" y2="26.9"/>
			<path id="XMLID_3970_" class="st1" d="M39.7,23.8c0,0,5-5.6,4.7-0.9s-2,9.5-3.6,8.8c-1.6-0.8-1.5-2.1-1.5-2.1"/>
			<path id="XMLID_3969_" class="st1" d="M41.1,24.3c0,0,2-2.5,2.3-1.2"/>
			<path id="XMLID_3968_" class="st1" d="M40.3,26.1c0,0,2.7-0.5,2.1,1c-0.5,1.5-1.5,2.4-1.8,0.7"/>
			<g>
				<path id="XMLID_3967_" class="st8" d="M18.6,13.1c0,0,9.2-0.9,5.9,6.5S10.8,18.3,18.6,13.1z"/>
				<path id="XMLID_3966_" class="st7" d="M17.7,18.3c0,0,1.4-0.5,1.2,0.9C18.8,20.6,16.7,19.5,17.7,18.3z"/>
				<path id="XMLID_3965_" class="st8" d="M28.8,14.2c0,0-6.8,6,1.6,8.6S36.1,11.2,28.8,14.2z"/>
				<path id="XMLID_3964_" class="st7" d="M33.5,19.1c0,0,1.4-0.5,1.2,0.9C34.5,21.4,32.5,20.3,33.5,19.1z"/>
				<path id="XMLID_3963_" class="st7" d="M29.3,13c0,0-3.1,0.4-0.9,2.6s6.5,0.1,6.2-0.7C34.5,14.1,34,12.8,29.3,13z"/>
				<path id="XMLID_3962_" class="st7" d="M20.3,11.7c0,0-4.8-0.2-2.5,2.4s6.1-0.1,6.4-1.2C24.5,11.7,20.3,11.7,20.3,11.7z"/>
				<g id="XMLID_3957_">
					<path id="XMLID_3959_" class="st1" d="M34.4,22.6c0,0,0.1,0,0.2,0c0.2,0,0.5,0.1,0.7-0.2c0.6-0.6-0.8-0.8-0.8-0.8l-1.5-0.1
						c0,0-3.1-0.2-4.9,0.2c0,0,2.7,1.5,4.3,1.4c0.2,0,0.3,0,0.5-0.1C33.2,23,34.1,22.5,34.4,22.6z"/>
					<path id="XMLID_3958_" class="st1" d="M19.5,20.8c0,0,1.8-0.4,3.9,0.3c0,0-1,2.1-4.2,1.1c-1-0.4-1.2,0.2-1.9-0.4
						s0.8-0.8,0.8-0.8L19.5,20.8z"/>
				</g>
			</g>
			<g id="XMLID_3952_">
				<path id="XMLID_3956_" class="st7" d="M21.7,31.3c0,0-5,0.6-2.2,2.4C22.3,35.5,21.7,31.3,21.7,31.3z"/>
				<path id="XMLID_3955_" class="st7" d="M21,29.9c0,0-4-0.2-2.2,1.9c1.9,2.1,5.2,0,5.5-1C24.5,29.9,21,29.9,21,29.9z"/>
				<path id="XMLID_3954_" class="st7" d="M29.1,30.9c0,0-2-0.6-1.6,1.8s3.8,2.1,4,1.3C31.7,33.4,32,32.2,29.1,30.9z"/>
				<path id="XMLID_3953_" class="st7" d="M27.4,30.3c0,0-5.8-0.7-0.1,2.1S34,31.1,27.4,30.3z"/>
			</g>
			<g id="XMLID_3716_">
				<path id="XMLID_3951_" class="st1" d="M22.3,33.8c0,0,3,3,4.7,0"/>
				<path id="XMLID_3718_" class="st1" d="M23,33.3c0,0,0.9-0.9,1.5,0"/>
				<path id="XMLID_3717_" class="st1" d="M25.9,33.3c0,0-0.9-0.9-1.5,0"/>
			</g>
		</g>
		<path id="XMLID_3714_" class="st1" d="M33.3,48.3c0.2-0.1,0.5-0.2,0.7-0.5"/>
		<path id="XMLID_3713_" class="st1" d="M25.1,46.5c0,0,0,0.3,0.2,0.5"/>
		<path id="XMLID_3712_" class="st1" d="M27,48.9c0.1,0,0.1,0.1,0.2,0.1"/>
		<path id="XMLID_3695_" class="st3" d="M20,85.7c0,0,0.7-24.2-0.5-27.6"/>
	</g>
</g>
</svg>
