<?xml version="1.0" encoding="utf-8"?>
<!-- Generator: Adobe Illustrator 22.1.0, SVG Export Plug-In . SVG Version: 6.00 Build 0)  -->
<svg version="1.1" id="Layer_1" xmlns="http://www.w3.org/2000/svg" xmlns:xlink="http://www.w3.org/1999/xlink" x="0px" y="0px"
	 viewBox="0 0 267.4 83.6" style="enable-background:new 0 0 267.4 83.6;" xml:space="preserve">
<style type="text/css">
	.st0{opacity:0.1;fill:#231F20;stroke:#231F20;stroke-miterlimit:10;enable-background:new    ;}
	.st1{fill:#FFD767;stroke:#584C4F;stroke-width:2;stroke-miterlimit:10;}
	.st2{fill:#FFFAF2;stroke:#584C4F;stroke-width:2;stroke-miterlimit:10;}
</style>
<path class="st0" d="M157.4,38.3c12.1-5.2-0.2-12.2-0.2-12.2C149.1,19.7,145.4,43.5,157.4,38.3z"/>
<path class="st0" d="M249.9,45.1c0-0.2-0.1-0.3-0.1-0.5c0,0,0-0.1-0.1-0.1c-0.1-0.1-0.1-0.2-0.2-0.4c0,0-0.1-0.1-0.1-0.1
	c-0.1-0.1-0.2-0.3-0.3-0.4c0,0-0.1-0.1-0.1-0.1c-0.3-0.4-0.7-0.7-1.2-1.1c0,0-0.1-0.1-0.1-0.1c-0.2-0.1-0.4-0.3-0.6-0.4
	c-0.1,0-0.1-0.1-0.2-0.1c-0.2-0.2-0.5-0.3-0.8-0.5c0,0,0,0-0.1,0c-0.6-0.3-1.2-0.7-1.9-1c-0.1,0-0.1-0.1-0.2-0.1
	c-0.3-0.1-0.6-0.2-0.9-0.4c-0.1,0-0.1-0.1-0.2-0.1c-0.3-0.1-0.7-0.3-1-0.4c0,0,0,0-0.1,0c-0.4-0.1-0.8-0.2-1.2-0.4c0,0-0.1,0-0.1,0
	c-0.3-0.1-0.7-0.2-1-0.3c-0.1,0-0.2,0-0.3-0.1c-0.3-0.1-0.6-0.1-0.9-0.2c-0.1,0-0.2,0-0.3-0.1c-0.4-0.1-0.7-0.1-1.1-0.1
	c0,0-0.1,0-0.1,0c-0.4,0-0.8-0.1-1.2-0.1c-0.1,0-0.2,0-0.3,0c-0.3,0-0.6,0-0.9,0c-0.1,0-0.3,0-0.4,0c-0.3,0-0.5,0-0.8,0
	c-0.1,0-0.3,0-0.4,0c-0.3,0-0.7,0.1-1,0.1c-0.1,0-0.1,0-0.2,0c-0.4,0.1-0.7,0.2-1.1,0.3c-0.1,0-0.3,0.1-0.4,0.1
	c-0.2,0.1-0.5,0.2-0.7,0.2c-0.1,0.1-0.3,0.1-0.4,0.2c-0.2,0.1-0.4,0.2-0.7,0.3c-0.1,0.1-0.3,0.1-0.4,0.2c-0.3,0.2-0.6,0.4-0.9,0.6
	c-0.1,0.1-0.2,0.1-0.2,0.2c-0.2,0.2-0.5,0.4-0.7,0.6c-0.1,0.1-0.2,0.2-0.3,0.3c-0.2,0.2-0.4,0.3-0.5,0.5c-0.1,0.1-0.2,0.2-0.3,0.4
	c-0.1,0.1-0.1,0.1-0.2,0.2c-0.1,0.1-0.2,0.3-0.3,0.4c-0.1,0.1-0.2,0.3-0.3,0.4c-0.2,0.3-0.4,0.6-0.5,0.9c-0.1,0.1-0.1,0.2-0.2,0.4
	c-0.2,0.4-0.4,0.8-0.5,1.2c-0.1,0.2-0.1,0.3-0.2,0.5c-0.1,0.3-0.2,0.6-0.3,0.9c-0.1,0.2-0.1,0.4-0.2,0.6c-0.1,0.3-0.1,0.7-0.2,1
	c0,0.2-0.1,0.4-0.1,0.7c0,0,0,0,0,0c-2.8-6.4-8.6-11-19.1-8.4c-1.1-1.9-3.3-4-7.7-2.5c-2.1,0.8-3.3,3.8-3.8,7.7
	c-4.4-6.1-12.1-10.1-20.6-7.4c-4.1,1.3-6.8,3.4-8.5,5.9c-1.2-1.7-3.4-2.6-7.4-1.3c-6.5,2.2-6.8,13-4.7,21.2
	c-0.7-0.4-1.5-0.9-2.5-1.3c-6.2-2.7-7.4-8.3-7.2-15.4l0-0.1c2.6,0.1,6.5-0.9,5.7-7.3c-0.5-4.2-2.8-5.6-5.3-5.9l0.3-11.8
	c0,0-12-11.5-12.3,10.1c0,3.7-0.2,7.3-0.3,10.7c-0.7-0.7-1.4-1.4-2.3-2.1c-15.4-11.3-27.5,2.9-27.5,2.9s-0.1,0.3-0.3,0.8
	c0.5-1.7,0.1-3.8-2-6l0,0C91.7,34.9,76.4,43,75,46c0,0-0.6,0.9-1.2,2.5c-4.1-7.3-12.5-12.4-21.9-9.4c-3.4,1.1-5.9,2.8-7.6,4.7
	c-0.8-9.1-2.5-17.1-4.2-18.4c-4-3.2-15.2-22.8-10.9,41.1c0,0,1.8,10.8,10.5,7c1.7-0.7,2.9-3,3.7-6c1.9,2,12.9,12.7,26.7,2.5
	c1.9-1.4,3.4-3.1,4.4-4.9c1.3,2.2,3.3,4.4,6.2,6.5c5.2,3.7,11,3.4,15.8,0.8l0,0c0,0,2-0.7,2.6-1.7c0,0,0,0,0,0
	c0.3-0.5,0.7-0.9,0.9-1.7c1.7,1.9,4.2,3.5,7.5,4.5c4.9,1.6,9.5,0.9,13.4-1c1.4,1.8,3.8,3,8,0.5c2.2-1.3,3.2-2.8,3.5-4.3
	c2.8,3.7,7.5,5.8,15.2,5.8c0,0,3.2-1.3,4.8-3.4c1.2,2.3,2.6,3.6,4,3.3c3.2-0.7,5.4-2.3,6.5-6.3c2.9,2.8,13.3,11.5,26.2,2
	c1.6-1.2,2.8-2.5,3.8-3.9c0.6,2.5,1.4,4.2,2.1,4.7c2.9,1.9,10.7,12.6,9.6-16.1c3.5-2.3,9.4-4,7.6,12.5c0,0,3,7.1,8.7,4.1
	c0.4-0.2,0.9-0.7,1.2-1.2c0,0,0.1,0.1,0.2,0.1c0.2,0.1,0.3,0.2,0.5,0.3c0.1,0.1,0.2,0.1,0.3,0.2c0.2,0.1,0.4,0.2,0.6,0.3
	c0.1,0.1,0.2,0.1,0.3,0.2c0.3,0.2,0.6,0.3,0.9,0.5c0.1,0,0.2,0.1,0.3,0.1c0.2,0.1,0.5,0.2,0.7,0.3c0.1,0.1,0.3,0.1,0.4,0.2
	c0.2,0.1,0.4,0.2,0.6,0.3c0.1,0.1,0.3,0.1,0.4,0.2c0.2,0.1,0.5,0.2,0.7,0.2c0.1,0,0.3,0.1,0.4,0.1c0.3,0.1,0.7,0.2,1,0.3
	c0.1,0,0.3,0.1,0.4,0.1c0.2,0.1,0.5,0.1,0.7,0.2c0.2,0,0.3,0.1,0.5,0.1c0.2,0,0.4,0.1,0.6,0.1c0.2,0,0.4,0.1,0.5,0.1
	c0.2,0,0.5,0.1,0.7,0.1c0.2,0,0.3,0,0.5,0.1c0.4,0,0.7,0.1,1.1,0.1c0.2,0,0.4,0,0.5,0c0.2,0,0.4,0,0.7,0c0.2,0,0.4,0,0.6,0
	c0.2,0,0.4,0,0.6,0c0.2,0,0.4,0,0.6,0c0.2,0,0.5-0.1,0.7-0.1c0.2,0,0.5-0.1,0.7-0.1c0.3-0.1,0.5-0.1,0.8-0.2c0.2,0,0.3-0.1,0.5-0.2
	c0.2-0.1,0.4-0.1,0.6-0.2c0.2-0.1,0.3-0.1,0.5-0.2c0.2-0.1,0.4-0.2,0.6-0.3c0.2-0.1,0.3-0.2,0.5-0.2c0.2-0.1,0.4-0.3,0.7-0.4
	c0.2-0.1,0.4-0.3,0.6-0.4c0.2-0.2,0.4-0.3,0.6-0.5c0.1-0.1,0.3-0.2,0.4-0.4c0.2-0.2,0.3-0.3,0.5-0.5c0.1-0.1,0.2-0.3,0.4-0.4
	c0.1-0.1,0.1-0.1,0.2-0.2c0.1-0.1,0.2-0.2,0.3-0.4c0.1-0.2,0.2-0.3,0.3-0.5c0.2-0.2,0.3-0.5,0.4-0.8c0.1-0.2,0.2-0.3,0.3-0.5
	c0.2-0.4,0.3-0.8,0.5-1.2c0.1-0.2,0.1-0.4,0.2-0.5c0.1-0.3,0.2-0.6,0.3-0.9c0.1-0.2,0.1-0.4,0.2-0.6c0.1-0.3,0.1-0.7,0.2-1
	c0-0.2,0.1-0.4,0.1-0.7c0.1-0.4,0.1-0.8,0.1-1.2c0-0.2,0-0.4,0.1-0.6c0-0.6,0.1-1.3,0.1-2c0,0,0,0,0,0c0,0,0,0,0,0l0,0l0,0
	c-0.5-1.7-1.4-3.2-2.6-4.3c-0.4-0.5-0.9-0.9-1.3-1.2c-3.2-2.5-7.7-3.5-11.7-3.6c0,0,0,0,0,0c0-0.1,0-0.2,0.1-0.2
	c0-0.1,0-0.1,0.1-0.2c0-0.1,0.1-0.1,0.1-0.2c0-0.1,0.1-0.1,0.1-0.2c0-0.1,0.1-0.1,0.1-0.2c0-0.1,0.1-0.1,0.1-0.2
	c0,0,0.1-0.1,0.1-0.1c0.1-0.1,0.1-0.1,0.2-0.2c0,0,0.1-0.1,0.1-0.1c0.1-0.1,0.2-0.1,0.3-0.2c0,0,0.1,0,0.1-0.1
	c0.1,0,0.2-0.1,0.3-0.1c0,0,0.1,0,0.1,0c0.1,0,0.3-0.1,0.4-0.1c0,0,0.1,0,0.1,0c0.2,0,0.4,0,0.6,0c0,0,0,0,0,0
	c1.8,0,4.6,0.7,8.8,2.7c0,0,5.5-0.3,5.6-4.6C250,45.8,250,45.5,249.9,45.1z M54.5,62.4c-10.1-1.4,4.1-20.3,8.7-8.2
	C67.8,66.2,54.5,62.4,54.5,62.4z M90.2,61.3c-0.4,0.1-0.8,0.3-1.2,0.5c0,0-0.1,0-0.1,0.1c-0.7,0.4-1.4,0.3-1.9,0.1
	c-1.4-0.5-2.1-2.3-2.1-2.3l0,0c-1-2-1.1-4.6-1.1-4.6c-0.6-3.3,1.9-4.3,4.7-3.9c0,0,0.2,0.1,0.6,0.1c1.4,0.2,4.6,0.5,6.1-1.1
	c0.8-0.9,1.9-2.1,2.5-3.5c-1,2.9-2.5,8.7-1.6,14.3C94.3,60.5,91.9,60.8,90.2,61.3z M106.9,53.7c0,0,6.9-12.3,12.2-0.3
	C124.4,65.3,100.6,62,106.9,53.7z M173.3,62.4c-10.1-1.4,4.1-20.3,8.7-8.2C186.6,66.2,173.3,62.4,173.3,62.4z M237.3,62.6
	c0,0.1-0.1,0.2-0.1,0.3c0,0,0,0.1,0,0.1c0,0.1-0.1,0.2-0.1,0.3c0,0,0,0.1-0.1,0.1c0,0.1-0.1,0.2-0.2,0.2c0,0-0.1,0.1-0.1,0.1
	c-0.1,0.1-0.1,0.1-0.2,0.2c0,0-0.1,0.1-0.1,0.1c-0.1,0.1-0.2,0.1-0.2,0.2c0,0-0.1,0.1-0.1,0.1c-0.1,0-0.2,0.1-0.3,0.1
	c-0.1,0-0.1,0.1-0.2,0.1c-0.1,0-0.2,0.1-0.3,0.1c-0.1,0-0.1,0-0.2,0.1c-0.1,0-0.2,0-0.4,0c-0.1,0-0.2,0-0.3,0c-0.1,0-0.3,0-0.4,0
	c-0.1,0-0.2,0-0.3,0c-0.1,0-0.3,0-0.5-0.1c-0.1,0-0.2,0-0.4,0c-0.2,0-0.4-0.1-0.5-0.1c-0.1,0-0.3,0-0.4-0.1c-0.2,0-0.4-0.1-0.6-0.2
	c-0.1,0-0.3-0.1-0.4-0.1c-0.2-0.1-0.5-0.2-0.7-0.2c-0.2-0.1-0.3-0.1-0.5-0.1c-0.3-0.1-0.5-0.2-0.8-0.3c-0.2-0.1-0.3-0.1-0.5-0.2
	c-0.3-0.1-0.7-0.3-1-0.4c-0.1-0.1-0.3-0.1-0.4-0.2c-0.5-0.2-1-0.5-1.5-0.7c0,0-0.7,0-1.5,0.3c0.1-1.6,0-3.2-0.1-4.9
	c0.1,0.2,0.3,0.3,0.4,0.5c0.4,0.5,0.9,0.9,1.3,1.2C228.9,61.4,233.4,62.4,237.3,62.6C237.3,62.5,237.3,62.6,237.3,62.6z"/>
<path id="XMLID_4391_" class="st1" d="M75.3,66.2c-14.9-10.5-5.7-25.6-5.7-25.6c1.4-3,16.7-11.1,21.2-6.4l0,0
	c4.5,4.7,1.1,8.4-0.9,10.5c-1.5,1.7-4.8,1.4-6.1,1.1c-0.4-0.1-0.6-0.1-0.6-0.1c-2.8-0.4-5.4,0.6-4.7,3.9c0,0,0.1,2.6,1.1,4.6l0,0
	c0,0,0.7,1.8,2.1,2.3c0.5,0.2,1.2,0.2,1.9-0.1c0,0,0.1,0,0.1-0.1c0.3-0.2,0.7-0.3,1.2-0.5c3.1-1,8.4-1.2,9.4,3
	c1.2,4.9,0.1,5.4-0.5,6.4c0,0,0,0,0,0C93,66.3,91,67,91,67l0,0C86.3,69.6,80.5,69.9,75.3,66.2z"/>
<path id="XMLID_4385_" class="st1" d="M46.5,33.6c-18.5,5.9-8.8,28.2-8.8,28.2s11.8,14,27,2.8C79.9,53.5,65,27.7,46.5,33.6z
	 M49.1,57c-10.1-1.4,4.1-20.3,8.7-8.2C62.4,60.8,49.1,57,49.1,57z"/>
<g id="XMLID_4304_">
	<g id="XMLID_4306_">
		<path id="XMLID_4311_" class="st1" d="M110.9,38.7"/>
		<path id="XMLID_4308_" class="st1" d="M120.6,36.5c-15.4-11.3-27.5,2.9-27.5,2.9s-9.9,22.7,9,28.7
			C120.9,74.1,136.1,47.8,120.6,36.5z M113.6,47.9c5.3,12-18.5,8.6-12.2,0.3C101.4,48.3,108.3,35.9,113.6,47.9z"/>
		<path id="XMLID_4307_" class="st1" d="M114.6,35.1"/>
	</g>
	<path id="XMLID_4305_" class="st1" d="M113.9,63.2c0,0,1.4,9.2,9.6,4.3S123,54.7,123,54.7"/>
</g>
<g id="XMLID_4290_">
	<g id="XMLID_4296_">
		<path id="XMLID_4297_" class="st1" d="M157.7,47.5c0,0,2.5-12.9-8.4-9.2c-10.9,3.6-4.3,31.9,1.4,30.7S159.2,63.2,157.7,47.5z"/>
	</g>
	<path id="XMLID_4291_" class="st1" d="M151.8,20.7c0,0,12.2,7,0.2,12.2S143.6,14.3,151.8,20.7z"/>
</g>
<g id="XMLID_8_">
	<path id="XMLID_10_" class="st1" d="M198.3,38c0,0-1.5-7.2-8.6-4.7c-7.1,2.5-3.6,30-0.3,32.1C192.7,67.5,201.9,80.6,198.3,38z"/>
	<path id="XMLID_9_" class="st1" d="M196.7,51.2c0,0,12.4-12.3,9.9,10.7c0,0,3,7.1,8.7,4.1c5.8-3,6.7-39.4-21.2-29.2"/>
</g>
<g id="XMLID_4232_">
	<path id="XMLID_4234_" class="st1" d="M135.6,17.7c0,0-12-11.5-12.3,10.1c-0.3,21.6-4.3,41.3,18.8,41.1c0,0,12.6-5.2,0-10.8
		c-6.2-2.7-7.4-8.3-7.2-15.4"/>
	<path id="XMLID_4233_" class="st1" d="M132.7,42.4c0,0,9,2.5,7.9-7c-1.1-9.5-11.9-4.8-11.9-4.8"/>
</g>
<g id="XMLID_4_">
	<path id="XMLID_7_" class="st1" d="M238.9,45.3c0,0,6.3-0.3,5.6-5.6C244,35.6,226.5,28,219.3,37c-1.9,2.4-3,5.9-3,10.9c0,0,0,0,0,0
		c0.5,1.7,1.4,3.1,2.6,4.3c0.4,0.5,0.9,0.9,1.3,1.2c3.2,2.5,7.7,3.5,11.7,3.6c-0.6,2.3-3.3,3.5-11.8-0.7c0,0-6.3,0.3-5.6,5.6
		c0.5,4.2,18.1,11.8,25.2,2.7c1.9-2.4,3-5.9,3-10.9c0,0,0,0,0,0c-0.5-1.7-1.4-3.2-2.6-4.3c-0.4-0.5-0.9-0.9-1.3-1.2
		c-3.2-2.5-7.7-3.5-11.7-3.6C227.7,42.4,230.4,41.1,238.9,45.3z"/>
	<path id="XMLID_6_" class="st1" d="M231,51.8c0,0,6,12.9-10.9,4.7c0,0-6.3,0.3-5.6,5.6s28.4,16,28.2-8.2"/>
	<path id="XMLID_5_" class="st1" d="M228,50c0,0-6-12.9,10.9-4.7c0,0,6.3-0.3,5.6-5.6s-28.4-16-28.2,8.2"/>
</g>
<path id="XMLID_4139_" class="st1" d="M23.7,61.1c0,0,1.8,10.8,10.5,7c8.7-3.8,4.4-45,0.4-48.2S19.4-2.8,23.7,61.1z"/>
<path id="XMLID_11_" class="st1" d="M165.3,33.6c-18.5,5.9-8.8,28.2-8.8,28.2s11.8,14,27,2.8C198.7,53.5,183.8,27.7,165.3,33.6z
	 M167.9,57c-10.1-1.4,4.1-20.3,8.7-8.2C181.2,60.8,167.9,57,167.9,57z"/>
<path id="XMLID_50_" class="st2" d="M69.8,60.8C55,50.3,64.1,35.2,64.1,35.2c1.4-3,16.7-11.1,21.2-6.4l0,0c4.5,4.7,1.1,8.4-0.9,10.5
	c-1.5,1.7-4.8,1.4-6.1,1.1c-0.4-0.1-0.6-0.1-0.6-0.1c-2.8-0.4-5.4,0.6-4.7,3.9c0,0,0.1,2.6,1.1,4.6l0,0c0,0,0.7,1.8,2.1,2.3
	c0.5,0.2,1.2,0.2,1.9-0.1c0,0,0.1,0,0.1-0.1c0.3-0.2,0.7-0.3,1.2-0.5c3.1-1,8.4-1.2,9.4,3c1.2,4.9,0.1,5.4-0.5,6.4c0,0,0,0,0,0
	c-0.6,1-2.6,1.7-2.6,1.7l0,0C80.8,64.2,75.1,64.5,69.8,60.8z"/>
<path id="XMLID_47_" class="st2" d="M41,28.2c-18.5,5.9-8.8,28.2-8.8,28.2s11.8,14,27,2.8C74.4,48.1,59.6,22.3,41,28.2z M43.6,51.5
	c-10.1-1.4,4.1-20.3,8.7-8.2C57,55.3,43.6,51.5,43.6,51.5z"/>
<g id="XMLID_39_">
	<g id="XMLID_41_">
		<path id="XMLID_46_" class="st2" d="M105.5,33.3"/>
		<path id="XMLID_43_" class="st2" d="M115.2,31.1C99.8,19.7,87.7,34,87.7,34s-9.9,22.7,9,28.7C115.5,68.7,130.6,42.4,115.2,31.1z
			 M108.2,42.5c5.3,12-18.5,8.6-12.2,0.3C96,42.9,102.9,30.5,108.2,42.5z"/>
		<path id="XMLID_42_" class="st2" d="M109.1,29.6"/>
	</g>
	<path id="XMLID_40_" class="st2" d="M108.4,57.8c0,0,1.4,9.2,9.6,4.3s-0.5-12.8-0.5-12.8"/>
</g>
<g id="XMLID_28_">
	<g id="XMLID_30_">
		<path id="XMLID_38_" class="st2" d="M152.3,42.1c0,0,2.5-12.9-8.4-9.2c-10.9,3.6-4.3,31.9,1.4,30.7
			C151.1,62.3,153.8,57.8,152.3,42.1z"/>
	</g>
	<path id="XMLID_29_" class="st2" d="M146.4,15.3c0,0,12.2,7,0.2,12.2S138.2,8.9,146.4,15.3z"/>
</g>
<g id="XMLID_25_">
	<path id="XMLID_27_" class="st2" d="M192.9,32.6c0,0-1.5-7.2-8.6-4.7c-7.1,2.5-3.6,30-0.3,32.1S196.5,75.2,192.9,32.6z"/>
	<path id="XMLID_26_" class="st2" d="M191.3,45.7c0,0,12.4-12.3,9.9,10.7c0,0,3,7.1,8.7,4.1c5.8-3,6.7-39.4-21.2-29.2"/>
</g>
<g id="XMLID_22_">
	<path id="XMLID_24_" class="st2" d="M130.1,12.3c0,0-12-11.5-12.3,10.1c-0.3,21.6-4.3,41.3,18.8,41.1c0,0,12.6-5.2,0-10.8
		c-6.2-2.7-7.4-8.3-7.2-15.4"/>
	<path id="XMLID_23_" class="st2" d="M127.2,37c0,0,9,2.5,7.9-7c-1.1-9.5-11.9-4.8-11.9-4.8"/>
</g>
<g id="XMLID_18_">
	<path id="XMLID_21_" class="st2" d="M233.5,39.9c0,0,6.3-0.3,5.6-5.6c-0.5-4.2-18.1-11.7-25.2-2.7c-1.9,2.4-3,5.9-3,10.9
		c0,0,0,0,0,0c0.5,1.7,1.4,3.1,2.6,4.3c0.4,0.5,0.9,0.9,1.3,1.2c3.2,2.5,7.7,3.5,11.7,3.6c-0.6,2.3-3.3,3.5-11.8-0.7
		c0,0-6.3,0.3-5.6,5.6c0.5,4.2,18.1,11.8,25.2,2.7c1.9-2.4,3-5.9,3-10.9c0,0,0,0,0,0c-0.5-1.7-1.4-3.2-2.6-4.3
		c-0.4-0.5-0.9-0.9-1.3-1.2c-3.2-2.5-7.7-3.5-11.7-3.6C222.3,36.9,225,35.7,233.5,39.9z"/>
	<path id="XMLID_20_" class="st2" d="M225.6,46.3c0,0,6,12.9-10.9,4.7c0,0-6.3,0.3-5.6,5.6c0.7,5.3,28.4,16,28.2-8.2"/>
	<path id="XMLID_19_" class="st2" d="M222.6,44.5c0,0-6-12.9,10.9-4.7c0,0,6.3-0.3,5.6-5.6c-0.7-5.3-28.4-16-28.2,8.2"/>
</g>
<path id="XMLID_17_" class="st2" d="M18.3,55.7c0,0,1.8,10.8,10.5,7c8.7-3.8,4.4-45,0.4-48.2S14-8.2,18.3,55.7z"/>
<path id="XMLID_14_" class="st2" d="M159.9,28.2c-18.5,5.9-8.8,28.2-8.8,28.2s11.8,14,27,2.8C193.3,48.1,178.4,22.3,159.9,28.2z
	 M162.5,51.5c-10.1-1.4,4.1-20.3,8.7-8.2C175.8,55.3,162.5,51.5,162.5,51.5z"/>
</svg>
