<?xml version="1.0" encoding="utf-8"?>
<!-- Generator: Adobe Illustrator 22.1.0, SVG Export Plug-In . SVG Version: 6.00 Build 0)  -->
<svg version="1.1" id="Layer_1" xmlns="http://www.w3.org/2000/svg" xmlns:xlink="http://www.w3.org/1999/xlink" x="0px" y="0px"
	 viewBox="0 0 500 402.4" style="enable-background:new 0 0 500 402.4;" xml:space="preserve">
<style type="text/css">
	.st0{opacity:0.1;}
	.st1{fill:#5C5B4B;stroke:#5C5B4B;stroke-linecap:round;stroke-miterlimit:10;}
	.st2{fill:#FCF4E9;stroke:#5C5B4B;stroke-linecap:round;stroke-miterlimit:10;}
	.st3{fill:#FCF4E9;}
	.st4{fill:none;stroke:#5C5B4B;stroke-linecap:round;stroke-miterlimit:10;}
</style>
<g class="st0">
	<path id="XMLID_7730_" class="st1" d="M349.8,304.5c0.6,1.5,1.2,3,1.7,4.3c4.8,12,8.7,18.4,12,21.2c-0.2-0.2-0.3-0.4-0.4-0.7
		c0.2,0.3,0.3,0.5,0.5,0.7c0.1,0.1,0.1,0.1,0.2,0.1c0,0,0,0,0,0c0,0,0,0,0,0c0.5,0.4,1,0.7,1.5,1c2.7,0.6,4.5-0.3,5.7-2.1
		c0.6-0.9,3.1-3.5,6.8-7.1c0.2-0.1,0.4-0.2,0.6-0.3c23.9-23.3,55.5-53.6,55.5-53.6s-10-8.6-9.8-7c0.2,1.1-23.5,23.5-43.2,42.8
		c0-0.1,0-0.1,0.1-0.2c-1.6,1.5-3,3-4.3,4.3c-2,2-4,4-5.9,5.8c-0.1,0.2-0.2,0.4-0.3,0.6c-0.2,0.1-0.4,0.2-0.6,0.3
		c-1.3-1.2-2.6-2.8-3.9-4.7c-2.1-3.1-4.2-6.9-6.2-11.1c-5.4-11.3-10.4-25.2-14.3-33.4c-7.8-16.8-9.3-27.3-9.3-27.3l-13.2,5.5
		C328,249.6,341.1,282.7,349.8,304.5z"/>
	<g id="XMLID_7723_">
		<path id="XMLID_7728_" class="st1" d="M427.8,257.5C427.8,257.4,427.7,257.4,427.8,257.5c-0.1-0.1-1.3,1.2-3.4,3.4l7.5,8.9
			c0.7-0.6,1.2-1,1.5-1.1c0.5,0,0.9-0.1,0.9-0.1s11.6-0.5,18.1,3.4c5.9,3.6,23.7,16,12.8,6.1c2.5,1.3,3.7,1.1-0.4-3.6
			c0.2-0.4,0.2-1.1,0-2.3c0.6-0.1,0.1-1-2.7-3.8c-8-7.7-20.6-22.1-26-22.9C431.5,244.9,432.2,250,427.8,257.5z"/>
		<path id="XMLID_7727_" class="st1" d="M460.9,274.2c19,16.3-2,1.6-8.5-2.3c-6.5-3.9-18.1-3.4-18.1-3.4s-0.3,0-0.9,0.1
			c-0.3,0.2-0.9,0.6-1.5,1.1l-7.5-8.9c2.1-2.2,3.3-3.5,3.3-3.5s0,0,0.1,0.1c4.4-7.5,3.7-12.6,8.4-11.9c5.4,0.8,18,15.2,26,22.9"/>
		<path id="XMLID_7726_" class="st1" d="M457.5,273.1c0,0,17.6,12.7,6.2,0"/>
		<path id="XMLID_7725_" class="st1" d="M464.8,271.9c1.5,6.5-4.4,0.2-4.4,0.2"/>
		<path id="XMLID_7724_" class="st1" d="M459.3,269.7c0,0,10.9,6.5,2.9-1.2"/>
	</g>
	<g>
		<path id="XMLID_7965_" class="st1" d="M251.5,145.8c0,0-7.6,7.5-11.7,8.9c-4.1,1.4-64.2,27.4-78.8,25.4s-72.3-1.7-72.3-1.7
			l-1.3,12.5c0,0,76.5-2.4,81.3,0c4.8,2.4,83.3-29.3,89.8-30.3"/>
		<g id="XMLID_7963_">
			<path id="XMLID_7964_" class="st1" d="M96.7,190.4c-5.9,3.5-7.8,4.5-14.7,5.5c-6.9,1,10.5-4.5,8.1-4.5c-2.4,0-47.8-1.7-19.5-2.4
				s10.7-2,10.7-2c-36.6-8.6-6.6-4.7-1.9-4.5c4.8,0.2-22.8-12.6-8.7-8.2s15.6,3.6,4.2-1.6c-11.4-5.2,16.4,2.7,16.4,2.7
				s8.7,2.6,7.4,4.6"/>
		</g>
		<path id="XMLID_7959_" class="st1" d="M230.2,170.2c-2,2.6-38.7,15-41.7,16.6s-3.8,0.6-7.5-8c-3.6-8.6,53.9-30.4,60.6-29.3
			c2.3,0.4,6.3,4.3,10.4,9.3"/>
	</g>
	<g>
		<path class="st1" d="M355.3,180.6l-55.6,51.6c0,0,14.5,14,20.3,19c0.5,0.5,1.1,1,1.7,1.4c0.2,0.2,0.4,0.3,0.5,0.4c0,0,0,0,0,0
			c9.7,6.7,26.4,4.6,41.4-10c24.6-23.8,17.9-31.9,17.9-31.9c-1-3.4-2.4-6.2-4.2-8.4c0.1-0.1,0.1-0.1,0.1-0.1S360.5,184,355.3,180.6z
			"/>
		<g>
			<path class="st1" d="M345,164.1c-0.4-0.3-0.8-0.6-1.2-0.9c-3.3-2.5-5.8-4.3-6.7-4.8c-4.2-2.8-44.5-40.3-51.6-46
				c-0.2-0.2-0.5-0.4-0.7-0.5c-2.2-1.4-4.8-1.6-7.4-1.3c-3.6,0.5-23.7,8.6-32.4,18.1c-8.2,9-21.3,22.3-9,35.9c1.4,1.6,3,3.2,5,5
				c18.2,16.8,46.6,45.2,52.3,54.6c0.3,0.5,0.5,0.9,0.7,1.3c2.6,5.6,11,17.9,16.8,19.7c0.1,0,0.2,0,0.2,0.1c2.1,0.6,3.9-0.3,4.8-3.5
				c0,0,2-3.2,3.9-5.2l39.2-35.3c1.8-1.3,3.4-2.5,4.8-3.3C382.6,195.2,358.6,174.5,345,164.1z"/>
			<path class="st1" d="M319.8,236.7l39.2-35.3c1.8-1.3,3.4-2.5,4.8-3.3c18.7-2.8-5.2-23.5-18.8-33.9c-0.4-0.3-0.8-0.6-1.2-0.9
				c-3.3-2.5-5.8-4.3-6.7-4.8c-4.2-2.8-44.5-40.3-51.6-46c-0.2-0.2-0.5-0.4-0.7-0.5c-2.2-1.4-4.8-1.6-7.4-1.3
				c-3.6,0.5-23.7,8.6-32.4,18.1c-8.2,9-21.3,22.3-9,35.9c1.4,1.6,3,3.2,5,5c18.2,16.8,46.6,45.2,52.3,54.6c0.3,0.5,0.5,0.9,0.7,1.3
				c2.6,5.6,11,17.9,16.8,19.7c0.1,0,0.2,0,0.2,0.1c2.1,0.6,3.9-0.3,4.8-3.5"/>
		</g>
		<path id="XMLID_7935_" class="st1" d="M314.7,138.7c0,0,41,49.4,49.4,54.3"/>
		<g>
			<g>
				<path id="XMLID_7934_" class="st1" d="M254.6,160.4c0,0,1.5-0.2,1.8,1"/>
				<path id="XMLID_7933_" class="st1" d="M248.2,166.1c0,0-0.6,1.8-0.4,2.7"/>
				<path id="XMLID_7932_" class="st1" d="M260.1,165.5c0,0-0.9-1.6-1.8-2.1"/>
				<path id="XMLID_7931_" class="st1" d="M257.6,176.2c0,0,1.7-0.7,2.3-1.5"/>
				<path id="XMLID_7930_" class="st1" d="M262.4,169.4c0,0,0.5,1.4-0.6,2"/>
				<path id="XMLID_7929_" class="st1" d="M250.4,170.9c0,0,0.7,1.1,0.7,1.7"/>
				<line id="XMLID_7928_" class="st1" x1="251.4" y1="162.4" x2="250" y2="163.7"/>
				<path id="XMLID_7927_" class="st1" d="M253.4,174.8c0,0,1,1.6,1.9,2"/>
			</g>
			<g>
				<path id="XMLID_7926_" class="st1" d="M345,241.9c0,0-2.2-0.6-2.4-2"/>
				<path id="XMLID_7925_" class="st1" d="M340.9,234c0,0,0,1.9,0.5,2.7"/>
				<path id="XMLID_7924_" class="st1" d="M348.6,242.8c0,0,1.7,0.9,2.6,0.8"/>
			</g>
		</g>
		<g>
			<path id="XMLID_7923_" class="st1" d="M237.2,136.3c-1.8-1.6-6-6.9-7.4-8.6c-1.3-1.5-2.3-2.9-3.1-4.3c-14.9-3.9-10.5-29.9,7-23.2
				c5.5,2.1,12.5,9.6,13.8,10.9c1.6,1.7,7,7.1,8.4,8.5c7.8,7.9,2.4,25.8-12.5,20.2"/>
			<path id="XMLID_7922_" class="st1" d="M257.1,121.2c-0.4-0.6-0.8-1.1-1.3-1.6c-1.4-1.4-6.8-6.9-8.4-8.5
				c-1.2-1.3-8.3-8.8-13.8-10.9c-17.5-6.7-21.9,19.3-7,23.2c0.7,1.3,1.7,2.7,3.1,4.3c1.5,1.7,5.7,7,7.4,8.6l6.2,3.5
				c11.7,4.5,17.6-5.7,15.7-14.1"/>
		</g>
		<g id="XMLID_7849_">
			<g id="XMLID_7910_">
				<path id="XMLID_7913_" class="st1" d="M190.2,102.8c0,0-19.7-2.7-11.1,6.2s20.3,16,22.3,11.7c1.9-4.3-0.6-6.9-0.6-6.9"/>
				<path id="XMLID_7912_" class="st1" d="M188,106.2c0,0-8.4-1.8-6.8,1.4"/>
				<path id="XMLID_7911_" class="st1" d="M192.8,108.5c0,0-6.1,3.6-2.6,5.7s7.1,2.2,4.9-1.7"/>
			</g>
			<path id="XMLID_7909_" class="st1" d="M173.4,41c0,0-0.4,6,4.8,3.3C183.5,41.6,175.4,36.1,173.4,41z"/>
			<path id="XMLID_7908_" class="st1" d="M173.5,54.5c0,0,27.2-23.5,53.5,9.9s32.8,38,21.6,55.3c-11.3,17.3-29.5,14.7-39.1,8.3
				C200,121.6,145.7,90.2,173.5,54.5z"/>
			<path id="XMLID_7907_" class="st1" d="M201,41.2c-1.1-0.9-2.8-1.7-5.2-2.4c0,0,0,0,0,0l0,0c-0.5-0.1-1.1-0.3-1.7-0.4
				c-7.3-1.6-14.5,0.5-20,3.4c-26.3,10-10.9,29.1-4.5,35.6c0.6,0.6,8.1-8.2,13.7-17.6c13.3-5.7,26.5-10.3,26.5-10.3
				S204.9,43.3,201,41.2z"/>
			<path id="XMLID_7906_" class="st1" d="M205.2,91.4c0,0,7.9-1.1,11.7-9.1"/>
			<path id="XMLID_7905_" class="st1" d="M194.3,102.6c0,0-5.7,8.9-7.9,9.7"/>
			<path id="XMLID_7904_" class="st1" d="M232.2,130.9c0,0-0.2,5.8,7.2,0.8c7.5-5,9.9-10.7,6.3-11.9"/>
			<path id="XMLID_7903_" class="st1" d="M167.5,84.3c0,0,5.7-13.6,19.6-22.5c13.9-8.9,22.5-12.2,22.5-12.2
				c-16.2-8.9-38.3,13.1-48.8,24.9s-3.2,13.1-3.2,13.1S161.3,88,167.5,84.3z"/>
			<path id="XMLID_7902_" class="st1" d="M167.5,84.3c0,0-24.6,13.9,0.9-13.9s41.2-20.8,41.2-20.8S174.3,63.6,167.5,84.3z"/>
			<g>
				<path id="XMLID_7901_" class="st1" d="M205.8,95.3c0,0-10.3-1.1-13.3-4.4"/>
				<g id="XMLID_7898_">
					<path id="XMLID_7900_" class="st1" d="M198.5,103.8c1.7,1.3,3.2,1.9,4.4,1.1c0.6-0.4,1.1-0.9,1.4-1.4c0.2-0.4,0.4-0.7,0.5-1"/>
					<path id="XMLID_7899_" class="st1" d="M185.4,80.8c0,0,5.8,12.8,11.4,20.3"/>
				</g>
				<g id="XMLID_7892_">
					<path id="XMLID_7897_" class="st1" d="M197.6,106.2c0,0,0.6,7.3,7.1,3"/>
					<path id="XMLID_7896_" class="st1" d="M206.9,97c0,0,6.6-0.6,3.6,6.5"/>
					<path id="XMLID_7895_" class="st1" d="M206.7,102.1c0.7-0.4,0.4-2.2,1.8-1.8c1.5,0.3,0.6,0.7,0,1.7S206,102.4,206.7,102.1z"/>
					<path id="XMLID_7894_" class="st1" d="M202.9,108.5c-1.1,1-2.1,0.4-2-0.6c0-0.4,0.9-0.7,1.8-0.9
						C203.3,106.9,202.9,108.5,202.9,108.5z"/>
					<path id="XMLID_7893_" class="st1" d="M200.7,99c0,0,1-1.1,1.6-1"/>
				</g>
				<path id="XMLID_7891_" class="st1" d="M198,110.6c0,0-1.5,4.4-2,5.6"/>
				<path id="XMLID_7890_" class="st1" d="M210.6,96.5c0,0,5.1-1.8,5.4-2.2"/>
			</g>
			<path id="XMLID_7889_" class="st1" d="M210.6,67.1c0,0,1.5,0.5,1.1,1.7"/>
			<path id="XMLID_7888_" class="st1" d="M218,80c0,0,0.7,1.1,0.7,1.7"/>
			<path id="XMLID_7887_" class="st1" d="M200.7,62.1c0,0-1.3-2.1-1.7-1.7"/>
			<path id="XMLID_7886_" class="st1" d="M170.3,81c0,0,1.8-1.4,1.9-0.9"/>
			<path id="XMLID_7885_" class="st1" d="M183,74.2c0,0,1.6-2.1,1.3-2.6"/>
			<path id="XMLID_7884_" class="st1" d="M219.5,128.9c0,0,1.6-1,2-0.9"/>
			<path id="XMLID_7883_" class="st1" d="M231.4,118.2c0,0-0.6,1.8-0.4,2.8"/>
			<path id="XMLID_7882_" class="st1" d="M189,100.9"/>
			<path id="XMLID_7881_" class="st1" d="M198.9,93.1"/>
			<line id="XMLID_7880_" class="st1" x1="221.4" y1="90.3" x2="222.4" y2="88.7"/>
			<path id="XMLID_7879_" class="st1" d="M223.9,75.4c0,0-1.1-19.8,7.1-10.6c8.2,9.3,14.2,21.6,9.8,23.2c-4.5,1.6-6.9-1.2-6.9-1.2"
				/>
			<path id="XMLID_7878_" class="st1" d="M227.5,73.6c0,0-1.1-8.6,2-6.7"/>
			<path id="XMLID_7877_" class="st1" d="M229.3,78.6c0,0,4.1-5.8,5.9-2.1c1.8,3.7,1.6,7.3-2.1,4.7"/>
			<path id="XMLID_7876_" class="st1" d="M188.8,74.4c0,0-1.5,23.8,19.4,13.1S196.9,54.9,188.8,74.4z"/>
			<path id="XMLID_7875_" class="st1" d="M206.8,74.8c0,0,1.6-3.6,3.9-0.7S207.3,78.9,206.8,74.8z"/>
			<path id="XMLID_7874_" class="st1" d="M187.6,71.1c0,0-5.2,6.5,3.1,6.4c8.3-0.1,12.3-12,10.4-13.1
				C199.2,63.4,196.1,61.8,187.6,71.1z"/>
			<path id="XMLID_7873_" class="st1" d="M213.6,77.6c0,0,2.9-2.1,2.9,0.1c0.1,2.3-1.9,1.4-2.8,4.2"/>
			<path id="XMLID_7872_" class="st1" d="M210.7,80.1c0,0-6.2,5.4-8.8,9.7"/>
			<g id="XMLID_7867_">
				<path id="XMLID_7871_" class="st1" d="M207.7,119.9c0,0-8.1,10.5,0.5,8.7C216.7,126.7,207.7,119.9,207.7,119.9z"/>
				<path id="XMLID_7870_" class="st1" d="M203.6,118.5c0,0-8.1,7.2-0.6,7.7c7.5,0.4,9.7-9.9,8.6-12.1
					C210.4,111.9,203.6,118.5,203.6,118.5z"/>
				<path id="XMLID_7869_" class="st1" d="M220.9,105.2c0,0-5,2.5,0.4,6.6s11-3.2,10-4.9S228.7,102.2,220.9,105.2z"/>
				<path id="XMLID_7868_" class="st1" d="M216.5,107.1c0,0-12.2,9.5,3.7,4S230.5,96.3,216.5,107.1z"/>
			</g>
			<g id="XMLID_7855_">
				<path id="XMLID_7866_" class="st1" d="M213.3,123.4c0,0,11.3-0.1,8.8-8.8"/>
				<path id="XMLID_7865_" class="st1" d="M213.7,121.2c0,0-0.1-3.2,2.7-2.7"/>
				<path id="XMLID_7856_" class="st1" d="M219.2,115.7c0,0-3.2-0.1-2.7,2.7"/>
			</g>
			<g>
				<path id="XMLID_7854_" class="st1" d="M167.7,91.6c0,0,15.6-19,23.3,1.2C198.6,113,162.9,115.8,167.7,91.6z"/>
				<path id="XMLID_7853_" class="st1" d="M175.6,102.9c0,0,1.6-3.6,3.9-0.7S176.2,106.9,175.6,102.9z"/>
				<path id="XMLID_7852_" class="st1" d="M168.2,85.6c0,0-9.5,8.5-0.3,9.3c9.2,0.9,11.4-11.7,9.9-14.4
					C176.2,77.8,168.2,85.6,168.2,85.6z"/>
				<path id="XMLID_7851_" class="st1" d="M181.6,107.4c0,0-2.1,2.9,0.1,2.9c2.3,0.1,1.4-1.9,4.2-2.8"/>
				<path id="XMLID_7850_" class="st1" d="M183.9,104.1c0,0,2.8-4.1,7.7-6.7"/>
			</g>
		</g>
		<path id="XMLID_7848_" class="st1" d="M247.6,143.2c-0.5,0.3-1.3,0.3-2.2,0.1"/>
		<path id="XMLID_7847_" class="st1" d="M262.6,121.7c0,0,0.4,0.7,0.6,1.5"/>
		<path id="XMLID_7846_" class="st1" d="M250.7,144.2c4.9-1.3,7.6-6,7.9-10.9"/>
		<path id="XMLID_7845_" class="st1" d="M263.8,129.7c0,0.2-0.1,0.4-0.2,0.6"/>
		<path id="XMLID_7844_" class="st1" d="M348.2,202.7c0,0-46.7-44-51.1-52.7"/>
		<path id="XMLID_7814_" class="st1" d="M296,220.4c0,0,15.6,14.2,14.9,17.7"/>
	</g>
	<path id="XMLID_7813_" class="st1" d="M364.6,214.9c0,0-2.6,10.3-1.8,28.8c0.8,18.5-2.9,60.6,9.8,59.3s63.2,1.3,63.8,0
		c0.7-1.3,1.3,11.9,1.3,11.9s-71.4-2.2-77-1.2c-5.5,1-9.3-4.6-9-27.6c0.3-23,1.1-63.2-1.5-71.1"/>
	<g id="XMLID_7731_">
		<path id="XMLID_7736_" class="st1" d="M438.3,303.3c0-0.1,0-0.1,0-0.1s-1.8,0-4.8,0.1l-1,11.6c0.9,0.1,1.5,0.2,1.9,0.3
			c0.4,0.4,0.7,0.6,0.7,0.6s8.6,7.8,10.4,15.2c1.7,6.7,5.4,28,4.8,13.4c0.9,2.7,1.8,3.4,2.3-2.8c0.4-0.1,0.9-0.6,1.6-1.6
			c0.5,0.4,0.8-0.6,0.7-4.6c-0.2-11.1,1-30.2-2.2-34.5C449.9,296.9,446.8,301.1,438.3,303.3z"/>
		<path id="XMLID_7735_" class="st1" d="M449.9,338.5c1.8,25-2.5-0.2-4.4-7.6c-1.8-7.4-10.4-15.2-10.4-15.2s-0.3-0.2-0.7-0.6
			c-0.4-0.1-1-0.2-1.9-0.3l1-11.6c3-0.1,4.8-0.1,4.8-0.1s0,0,0,0.1c8.4-2.2,11.6-6.3,14.4-2.5c3.2,4.4,2,23.5,2.2,34.5"/>
		<path id="XMLID_7734_" class="st1" d="M448.3,335.3c0,0,3.5,21.4,4.4,4.4"/>
		<path id="XMLID_7733_" class="st1" d="M454.3,339.6c-3.6,5.7-3.3-3-3.3-3"/>
		<path id="XMLID_7732_" class="st1" d="M452,334.1c0,0,3.1,12.2,2.9,1.2"/>
	</g>
	<g>
		<path id="XMLID_7962_" class="st1" d="M306.8,162c-47.4-41.7-70.7-53.8-75.4-62.6s-49.3-56.7-49.3-56.7l8.1-9.6
			c0,0,23.1,27.5,39.1,48.3s46.2,37.6,63.1,50c16.9,12.4,25.5,15.5,25.5,15.5"/>
		<g id="XMLID_7960_">
			<path id="XMLID_7961_" class="st1" d="M182.4,42.6c-6.6-1.7-8.7-2.3-14.3-6.5c-5.6-4.1,10.6,4.2,8.9,2.6
				c-1.7-1.6-32.6-35-12-15.5s9,6.1,9,6.1c-19.8-32-1.4-8,1.8-4.5s-7.2-25-0.4-11.9s8.5,13.6,4.1,1.8s9.7,13.5,9.7,13.5s4.3,8,2,8.5
				"/>
		</g>
		<path id="XMLID_7958_" class="st1" d="M280,119.5c-1.4-3-34.8-22.7-37.3-24.9s-3.6-1.4-9,6.3c-5.3,7.7,46.4,40.9,53.1,41.3
			c2.4,0.1,7-2.9,12.1-6.9"/>
	</g>
</g>
<g>
	<path id="XMLID_202_" class="st2" d="M339.8,295.5c0.6,1.5,1.2,3,1.7,4.3c4.8,12,8.7,18.4,12,21.2c-0.2-0.2-0.3-0.4-0.4-0.7
		c0.2,0.3,0.3,0.5,0.5,0.7c0.1,0.1,0.1,0.1,0.2,0.1c0,0,0,0,0,0c0,0,0,0,0,0c0.5,0.4,1,0.7,1.5,1c2.7,0.6,4.5-0.3,5.7-2.1
		c0.6-0.9,3.1-3.5,6.8-7.1c0.2-0.1,0.4-0.2,0.6-0.3c23.9-23.3,55.5-53.6,55.5-53.6s-10-8.6-9.8-7c0.2,1.1-23.5,23.5-43.2,42.8
		c0-0.1,0-0.1,0.1-0.2c-1.6,1.5-3,3-4.3,4.3c-2,2-4,4-5.9,5.8c-0.1,0.2-0.2,0.4-0.3,0.6c-0.2,0.1-0.4,0.2-0.6,0.3
		c-1.3-1.2-2.6-2.8-3.9-4.7c-2.1-3.1-4.2-6.9-6.2-11.1c-5.4-11.3-10.4-25.2-14.3-33.4c-7.8-16.8-9.3-27.3-9.3-27.3l-13.2,5.5
		C318,240.6,331.1,273.7,339.8,295.5z"/>
	<g id="XMLID_195_">
		<path id="XMLID_200_" class="st2" d="M417.8,248.5C417.8,248.4,417.7,248.4,417.8,248.5c-0.1-0.1-1.3,1.2-3.4,3.4l7.5,8.9
			c0.7-0.6,1.2-1,1.5-1.1c0.5,0,0.9-0.1,0.9-0.1s11.6-0.5,18.1,3.4c5.9,3.6,23.7,16,12.8,6.1c2.5,1.3,3.7,1.1-0.4-3.6
			c0.2-0.4,0.2-1.1,0-2.3c0.6-0.1,0.1-1-2.7-3.8c-8-7.7-20.6-22.1-26-22.9C421.5,235.9,422.2,241,417.8,248.5z"/>
		<path id="XMLID_199_" class="st2" d="M450.9,265.2c19,16.3-2,1.6-8.5-2.3c-6.5-3.9-18.1-3.4-18.1-3.4s-0.3,0-0.9,0.1
			c-0.3,0.2-0.9,0.6-1.5,1.1l-7.5-8.9c2.1-2.2,3.3-3.5,3.3-3.5s0,0,0.1,0.1c4.4-7.5,3.7-12.6,8.4-11.9c5.4,0.8,18,15.2,26,22.9"/>
		<path id="XMLID_198_" class="st2" d="M447.5,264.1c0,0,17.6,12.7,6.2,0"/>
		<path id="XMLID_197_" class="st2" d="M454.8,262.9c1.5,6.5-4.4,0.2-4.4,0.2"/>
		<path id="XMLID_196_" class="st2" d="M449.3,260.7c0,0,10.9,6.5,2.9-1.2"/>
	</g>
	<g>
		<path id="XMLID_194_" class="st2" d="M241.5,136.8c0,0-7.6,7.5-11.7,8.9c-4.1,1.4-64.2,27.4-78.8,25.4s-72.3-1.7-72.3-1.7
			l-1.3,12.5c0,0,76.5-2.4,81.3,0c4.8,2.4,83.3-29.3,89.8-30.3"/>
		<g id="XMLID_192_">
			<path id="XMLID_193_" class="st2" d="M86.7,181.4c-5.9,3.5-7.8,4.5-14.7,5.5c-6.9,1,10.5-4.5,8.1-4.5c-2.4,0-47.8-1.7-19.5-2.4
				s10.7-2,10.7-2c-36.6-8.6-6.6-4.7-1.9-4.5c4.8,0.2-22.8-12.6-8.7-8.2s15.6,3.6,4.2-1.6c-11.4-5.2,16.4,2.7,16.4,2.7
				s8.7,2.6,7.4,4.6"/>
		</g>
		<path id="XMLID_191_" class="st2" d="M220.2,161.2c-2,2.6-38.7,15-41.7,16.6s-3.8,0.6-7.5-8c-3.6-8.6,53.9-30.4,60.6-29.3
			c2.3,0.4,6.3,4.3,10.4,9.3"/>
	</g>
	<g>
		<path class="st2" d="M345.3,171.6l-55.6,51.6c0,0,14.5,14,20.3,19c0.5,0.5,1.1,1,1.7,1.4c0.2,0.2,0.4,0.3,0.5,0.4c0,0,0,0,0,0
			c9.7,6.7,26.4,4.6,41.4-10c24.6-23.8,17.9-31.9,17.9-31.9c-1-3.4-2.4-6.2-4.2-8.4c0.1-0.1,0.1-0.1,0.1-0.1S350.5,175,345.3,171.6z
			"/>
		<g>
			<path class="st3" d="M335,155.1c-0.4-0.3-0.8-0.6-1.2-0.9c-3.3-2.5-5.8-4.3-6.7-4.8c-4.2-2.8-44.5-40.3-51.6-46
				c-0.2-0.2-0.5-0.4-0.7-0.5c-2.2-1.4-4.8-1.6-7.4-1.3c-3.6,0.5-23.7,8.6-32.4,18.1c-8.2,9-21.3,22.3-9,35.9c1.4,1.6,3,3.2,5,5
				c18.2,16.8,46.6,45.2,52.3,54.6c0.3,0.5,0.5,0.9,0.7,1.3c2.6,5.6,11,17.9,16.8,19.7c0.1,0,0.2,0,0.2,0.1c2.1,0.6,3.9-0.3,4.8-3.5
				c0,0,2-3.2,3.9-5.2l39.2-35.3c1.8-1.3,3.4-2.5,4.8-3.3C372.6,186.2,348.6,165.5,335,155.1z"/>
			<path class="st2" d="M309.8,227.7l39.2-35.3c1.8-1.3,3.4-2.5,4.8-3.3c18.7-2.8-5.2-23.5-18.8-33.9c-0.4-0.3-0.8-0.6-1.2-0.9
				c-3.3-2.5-5.8-4.3-6.7-4.8c-4.2-2.8-44.5-40.3-51.6-46c-0.2-0.2-0.5-0.4-0.7-0.5c-2.2-1.4-4.8-1.6-7.4-1.3
				c-3.6,0.5-23.7,8.6-32.4,18.1c-8.2,9-21.3,22.3-9,35.9c1.4,1.6,3,3.2,5,5c18.2,16.8,46.6,45.2,52.3,54.6c0.3,0.5,0.5,0.9,0.7,1.3
				c2.6,5.6,11,17.9,16.8,19.7c0.1,0,0.2,0,0.2,0.1c2.1,0.6,3.9-0.3,4.8-3.5"/>
		</g>
		<path id="XMLID_190_" class="st2" d="M304.7,129.7c0,0,41,49.4,49.4,54.3"/>
		<g>
			<g>
				<path id="XMLID_189_" class="st2" d="M244.6,151.4c0,0,1.5-0.2,1.8,1"/>
				<path id="XMLID_188_" class="st2" d="M238.2,157.1c0,0-0.6,1.8-0.4,2.7"/>
				<path id="XMLID_187_" class="st2" d="M250.1,156.5c0,0-0.9-1.6-1.8-2.1"/>
				<path id="XMLID_186_" class="st2" d="M247.6,167.2c0,0,1.7-0.7,2.3-1.5"/>
				<path id="XMLID_185_" class="st2" d="M252.4,160.4c0,0,0.5,1.4-0.6,2"/>
				<path id="XMLID_184_" class="st2" d="M240.4,161.9c0,0,0.7,1.1,0.7,1.7"/>
				<line id="XMLID_183_" class="st2" x1="241.4" y1="153.4" x2="240" y2="154.7"/>
				<path id="XMLID_182_" class="st2" d="M243.4,165.8c0,0,1,1.6,1.9,2"/>
			</g>
			<g>
				<path id="XMLID_181_" class="st2" d="M335,232.9c0,0-2.2-0.6-2.4-2"/>
				<path id="XMLID_180_" class="st2" d="M330.9,225c0,0,0,1.9,0.5,2.7"/>
				<path id="XMLID_179_" class="st2" d="M338.6,233.8c0,0,1.7,0.9,2.6,0.8"/>
			</g>
		</g>
		<g>
			<path id="XMLID_178_" class="st3" d="M227.2,127.3c-1.8-1.6-6-6.9-7.4-8.6c-1.3-1.5-2.3-2.9-3.1-4.3c-14.9-3.9-10.5-29.9,7-23.2
				c5.5,2.1,12.5,9.6,13.8,10.9c1.6,1.7,7,7.1,8.4,8.5c7.8,7.9,2.4,25.8-12.5,20.2"/>
			<path id="XMLID_177_" class="st4" d="M247.1,112.2c-0.4-0.6-0.8-1.1-1.3-1.6c-1.4-1.4-6.8-6.9-8.4-8.5
				c-1.2-1.3-8.3-8.8-13.8-10.9c-17.5-6.7-21.9,19.3-7,23.2c0.7,1.3,1.7,2.7,3.1,4.3c1.5,1.7,5.7,7,7.4,8.6l6.2,3.5
				c11.7,4.5,17.6-5.7,15.7-14.1"/>
		</g>
		<g id="XMLID_120_">
			<g id="XMLID_173_">
				<path id="XMLID_176_" class="st2" d="M180.2,93.8c0,0-19.7-2.7-11.1,6.2s20.3,16,22.3,11.7c1.9-4.3-0.6-6.9-0.6-6.9"/>
				<path id="XMLID_175_" class="st2" d="M178,97.2c0,0-8.4-1.8-6.8,1.4"/>
				<path id="XMLID_174_" class="st2" d="M182.8,99.5c0,0-6.1,3.6-2.6,5.7s7.1,2.2,4.9-1.7"/>
			</g>
			<path id="XMLID_172_" class="st2" d="M163.4,32c0,0-0.4,6,4.8,3.3C173.5,32.6,165.4,27.1,163.4,32z"/>
			<path id="XMLID_171_" class="st2" d="M163.5,45.5c0,0,27.2-23.5,53.5,9.9s32.8,38,21.6,55.3c-11.3,17.3-29.5,14.7-39.1,8.3
				C190,112.6,135.7,81.2,163.5,45.5z"/>
			<path id="XMLID_170_" class="st2" d="M191,32.2c-1.1-0.9-2.8-1.7-5.2-2.4c0,0,0,0,0,0l0,0c-0.5-0.1-1.1-0.3-1.7-0.4
				c-7.3-1.6-14.5,0.5-20,3.4c-26.3,10-10.9,29.1-4.5,35.6c0.6,0.6,8.1-8.2,13.7-17.6c13.3-5.7,26.5-10.3,26.5-10.3
				S194.9,34.3,191,32.2z"/>
			<path id="XMLID_169_" class="st2" d="M195.2,82.4c0,0,7.9-1.1,11.7-9.1"/>
			<path id="XMLID_168_" class="st2" d="M184.3,93.6c0,0-5.7,8.9-7.9,9.7"/>
			<path id="XMLID_167_" class="st2" d="M222.2,121.9c0,0-0.2,5.8,7.2,0.8s9.9-10.7,6.3-11.9"/>
			<path id="XMLID_166_" class="st2" d="M157.5,75.3c0,0,5.7-13.6,19.6-22.5c13.9-8.9,22.5-12.2,22.5-12.2
				c-16.2-8.9-38.3,13.1-48.8,24.9s-3.2,13.1-3.2,13.1S151.3,79,157.5,75.3z"/>
			<path id="XMLID_165_" class="st2" d="M157.5,75.3c0,0-24.6,13.9,0.9-13.9s41.2-20.8,41.2-20.8S164.3,54.6,157.5,75.3z"/>
			<g>
				<path id="XMLID_164_" class="st2" d="M195.8,86.3c0,0-10.3-1.1-13.3-4.4"/>
				<g id="XMLID_161_">
					<path id="XMLID_163_" class="st2" d="M188.5,94.8c1.7,1.3,3.2,1.9,4.4,1.1c0.6-0.4,1.1-0.9,1.4-1.4c0.2-0.4,0.4-0.7,0.5-1"/>
					<path id="XMLID_162_" class="st2" d="M175.4,71.8c0,0,5.8,12.8,11.4,20.3"/>
				</g>
				<g id="XMLID_155_">
					<path id="XMLID_160_" class="st2" d="M187.6,97.2c0,0,0.6,7.3,7.1,3"/>
					<path id="XMLID_159_" class="st2" d="M196.9,88c0,0,6.6-0.6,3.6,6.5"/>
					<path id="XMLID_158_" class="st2" d="M196.7,93.1c0.7-0.4,0.4-2.2,1.8-1.8c1.5,0.3,0.6,0.7,0,1.7S196,93.4,196.7,93.1z"/>
					<path id="XMLID_157_" class="st2" d="M192.9,99.5c-1.1,1-2.1,0.4-2-0.6c0-0.4,0.9-0.7,1.8-0.9
						C193.3,97.9,192.9,99.5,192.9,99.5z"/>
					<path id="XMLID_156_" class="st2" d="M190.7,90c0,0,1-1.1,1.6-1"/>
				</g>
				<path id="XMLID_154_" class="st2" d="M188,101.6c0,0-1.5,4.4-2,5.6"/>
				<path id="XMLID_153_" class="st2" d="M200.6,87.5c0,0,5.1-1.8,5.4-2.2"/>
			</g>
			<path id="XMLID_152_" class="st2" d="M200.6,58.1c0,0,1.5,0.5,1.1,1.7"/>
			<path id="XMLID_151_" class="st2" d="M208,71c0,0,0.7,1.1,0.7,1.7"/>
			<path id="XMLID_150_" class="st2" d="M190.7,53.1c0,0-1.3-2.1-1.7-1.7"/>
			<path id="XMLID_149_" class="st2" d="M160.3,72c0,0,1.8-1.4,1.9-0.9"/>
			<path id="XMLID_148_" class="st2" d="M173,65.2c0,0,1.6-2.1,1.3-2.6"/>
			<path id="XMLID_147_" class="st2" d="M209.5,119.9c0,0,1.6-1,2-0.9"/>
			<path id="XMLID_146_" class="st2" d="M221.4,109.2c0,0-0.6,1.8-0.4,2.8"/>
			<path id="XMLID_145_" class="st2" d="M179,91.9"/>
			<path id="XMLID_144_" class="st2" d="M188.9,84.1"/>
			<line id="XMLID_143_" class="st2" x1="211.4" y1="81.3" x2="212.4" y2="79.7"/>
			<path id="XMLID_142_" class="st2" d="M213.9,66.4c0,0-1.1-19.8,7.1-10.6c8.2,9.3,14.2,21.6,9.8,23.2c-4.5,1.6-6.9-1.2-6.9-1.2"/>
			<path id="XMLID_141_" class="st2" d="M217.5,64.6c0,0-1.1-8.6,2-6.7"/>
			<path id="XMLID_140_" class="st2" d="M219.3,69.6c0,0,4.1-5.8,5.9-2.1c1.8,3.7,1.6,7.3-2.1,4.7"/>
			<path id="XMLID_139_" class="st2" d="M178.8,65.4c0,0-1.5,23.8,19.4,13.1S186.9,45.9,178.8,65.4z"/>
			<path id="XMLID_138_" class="st2" d="M196.8,65.8c0,0,1.6-3.6,3.9-0.7S197.3,69.9,196.8,65.8z"/>
			<path id="XMLID_137_" class="st2" d="M177.6,62.1c0,0-5.2,6.5,3.1,6.4c8.3-0.1,12.3-12,10.4-13.1
				C189.2,54.4,186.1,52.8,177.6,62.1z"/>
			<path id="XMLID_136_" class="st2" d="M203.6,68.6c0,0,2.9-2.1,2.9,0.1c0.1,2.3-1.9,1.4-2.8,4.2"/>
			<path id="XMLID_135_" class="st2" d="M200.7,71.1c0,0-6.2,5.4-8.8,9.7"/>
			<g id="XMLID_130_">
				<path id="XMLID_134_" class="st2" d="M197.7,110.9c0,0-8.1,10.5,0.5,8.7C206.7,117.7,197.7,110.9,197.7,110.9z"/>
				<path id="XMLID_133_" class="st2" d="M193.6,109.5c0,0-8.1,7.2-0.6,7.7c7.5,0.4,9.7-9.9,8.6-12.1
					C200.4,102.9,193.6,109.5,193.6,109.5z"/>
				<path id="XMLID_132_" class="st2" d="M210.9,96.2c0,0-5,2.5,0.4,6.6s11-3.2,10-4.9S218.7,93.2,210.9,96.2z"/>
				<path id="XMLID_131_" class="st2" d="M206.5,98.1c0,0-12.2,9.5,3.7,4S220.5,87.3,206.5,98.1z"/>
			</g>
			<g id="XMLID_126_">
				<path id="XMLID_129_" class="st2" d="M203.3,114.4c0,0,11.3-0.1,8.8-8.8"/>
				<path id="XMLID_128_" class="st2" d="M203.7,112.2c0,0-0.1-3.2,2.7-2.7"/>
				<path id="XMLID_127_" class="st2" d="M209.2,106.7c0,0-3.2-0.1-2.7,2.7"/>
			</g>
			<g>
				<path id="XMLID_125_" class="st2" d="M157.7,82.6c0,0,15.6-19,23.3,1.2C188.6,104,152.9,106.8,157.7,82.6z"/>
				<path id="XMLID_124_" class="st2" d="M165.6,93.9c0,0,1.6-3.6,3.9-0.7S166.2,97.9,165.6,93.9z"/>
				<path id="XMLID_123_" class="st2" d="M158.2,76.6c0,0-9.5,8.5-0.3,9.3c9.2,0.9,11.4-11.7,9.9-14.4
					C166.2,68.8,158.2,76.6,158.2,76.6z"/>
				<path id="XMLID_122_" class="st2" d="M171.6,98.4c0,0-2.1,2.9,0.1,2.9c2.3,0.1,1.4-1.9,4.2-2.8"/>
				<path id="XMLID_121_" class="st2" d="M173.9,95.1c0,0,2.8-4.1,7.7-6.7"/>
			</g>
		</g>
		<path id="XMLID_119_" class="st2" d="M237.6,134.2c-0.5,0.3-1.3,0.3-2.2,0.1"/>
		<path id="XMLID_118_" class="st2" d="M252.6,112.7c0,0,0.4,0.7,0.6,1.5"/>
		<path id="XMLID_117_" class="st4" d="M240.7,135.2c4.9-1.3,7.6-6,7.9-10.9"/>
		<path id="XMLID_116_" class="st2" d="M253.8,120.7c0,0.2-0.1,0.4-0.2,0.6"/>
		<path id="XMLID_115_" class="st2" d="M338.2,193.7c0,0-46.7-44-51.1-52.7"/>
		<path id="XMLID_114_" class="st2" d="M286,211.4c0,0,15.6,14.2,14.9,17.7"/>
	</g>
	<path id="XMLID_113_" class="st2" d="M354.6,205.9c0,0-2.6,10.3-1.8,28.8c0.8,18.5-2.9,60.6,9.8,59.3s63.2,1.3,63.8,0
		c0.7-1.3,1.3,11.9,1.3,11.9s-71.4-2.2-77-1.2c-5.5,1-9.3-4.6-9-27.6c0.3-23,1.1-63.2-1.5-71.1"/>
	<g id="XMLID_106_">
		<path id="XMLID_111_" class="st2" d="M428.3,294.3c0-0.1,0-0.1,0-0.1s-1.8,0-4.8,0.1l-1,11.6c0.9,0.1,1.5,0.2,1.9,0.3
			c0.4,0.4,0.7,0.6,0.7,0.6s8.6,7.8,10.4,15.2c1.7,6.7,5.4,28,4.8,13.4c0.9,2.7,1.8,3.4,2.3-2.8c0.4-0.1,0.9-0.6,1.6-1.6
			c0.5,0.4,0.8-0.6,0.7-4.6c-0.2-11.1,1-30.2-2.2-34.5C439.9,287.9,436.8,292.1,428.3,294.3z"/>
		<path id="XMLID_110_" class="st2" d="M439.9,329.5c1.8,25-2.5-0.2-4.4-7.6c-1.8-7.4-10.4-15.2-10.4-15.2s-0.3-0.2-0.7-0.6
			c-0.4-0.1-1-0.2-1.9-0.3l1-11.6c3-0.1,4.8-0.1,4.8-0.1s0,0,0,0.1c8.4-2.2,11.6-6.3,14.4-2.5c3.2,4.4,2,23.5,2.2,34.5"/>
		<path id="XMLID_109_" class="st2" d="M438.3,326.3c0,0,3.5,21.4,4.4,4.4"/>
		<path id="XMLID_108_" class="st2" d="M444.3,330.6c-3.6,5.7-3.3-3-3.3-3"/>
		<path id="XMLID_107_" class="st2" d="M442,325.1c0,0,3.1,12.2,2.9,1.2"/>
	</g>
	<g>
		<path id="XMLID_105_" class="st2" d="M296.8,153c-47.4-41.7-70.7-53.8-75.4-62.6s-49.3-56.7-49.3-56.7l8.1-9.6
			c0,0,23.1,27.5,39.1,48.3s46.2,37.6,63.1,50c16.9,12.4,25.5,15.5,25.5,15.5"/>
		<g id="XMLID_103_">
			<path id="XMLID_104_" class="st2" d="M172.4,33.6c-6.6-1.7-8.7-2.3-14.3-6.5c-5.6-4.1,10.6,4.2,8.9,2.6c-1.7-1.6-32.6-35-12-15.5
				s9,6.1,9,6.1c-19.8-32-1.4-8,1.8-4.5s-7.2-25-0.4-11.9s8.5,13.6,4.1,1.8s9.7,13.5,9.7,13.5s4.3,8,2,8.5"/>
		</g>
		<path id="XMLID_102_" class="st2" d="M270,110.5c-1.4-3-34.8-22.7-37.3-24.9s-3.6-1.4-9,6.3c-5.3,7.7,46.4,40.9,53.1,41.3
			c2.4,0.1,7-2.9,12.1-6.9"/>
	</g>
</g>
</svg>
