<?xml version="1.0" encoding="utf-8"?>
<!-- Generator: Adobe Illustrator 22.1.0, SVG Export Plug-In . SVG Version: 6.00 Build 0)  -->
<svg version="1.1" id="Layer_1" xmlns="http://www.w3.org/2000/svg" xmlns:xlink="http://www.w3.org/1999/xlink" x="0px" y="0px"
	 viewBox="0 0 937.1 527.1" style="enable-background:new 0 0 937.1 527.1;" xml:space="preserve">
<style type="text/css">
	.st0{fill:#F7C872;}
	.st1{fill:#D4AF6B;}
	.st2{fill:none;stroke:#35423E;stroke-linecap:round;stroke-miterlimit:10;}
	.st3{fill:#F7C872;stroke:#5B5B4B;stroke-miterlimit:10;}
	.st4{fill:#FDF5EA;stroke:#5B5B4B;stroke-linecap:round;stroke-miterlimit:10;}
</style>
<g>
	<g id="XMLID_39733_">
		<rect x="0" y="0" class="st0" width="937.1" height="527.1"/>
	</g>
	<g>
		<path class="st1" d="M860.3,480.9c-4.1-2.1-39-19.7-39-19.7H120.8c0,0-34.9,17.5-38.9,19.7c-4.8,2.5-65.6,39.6-78.2,47.3h934.9
			C925.9,520.5,865.1,483.4,860.3,480.9z"/>
		<path class="st2" d="M940.7,529.4c0,0-75-41.7-80.3-44.3c-5.4-2.6-34.8-19.8-36.8-21.6"/>
		<path class="st2" d="M3.6,529.4c0,0,75-41.7,80.3-44.3c5.4-2.6,34.8-19.8,36.8-21.6"/>
		<path class="st2" d="M297.4,461.7c0,0-13.8,14.6-23.7,23c-9.8,8.5-27,35.5-30.3,39.8c-3.3,4.3-7.9,6.2-7.9,6.2"/>
		<path class="st2" d="M384,461.7c0,0-6.2,20.5-10.6,31.9s-15.9,34.6-15.9,34.6"/>
		<path class="st2" d="M470.9,462.4c0,0,1.6,30.6,1.6,43.1s-1.6,25.1-1.6,25.1"/>
		<path class="st2" d="M212.7,461.7c0,0-53.1,38.6-58,44.1s-30.1,22.6-30.1,22.6"/>
		<path class="st2" d="M644.5,462.3c0,0,13.8,14.6,23.7,23c9.8,8.5,27,35.5,30.3,39.8c3.3,4.3,7.9,6.2,7.9,6.2"/>
		<path class="st2" d="M557.9,462.3c0,0,6.2,20.5,10.6,31.9c4.4,11.4,15.9,34.6,15.9,34.6"/>
		<path class="st2" d="M729.2,462.3c0,0,53.1,38.6,58,44.1c4.9,5.5,30.1,22.6,30.1,22.6"/>
		<path class="st2" d="M2.9,528.7c1.7,0.3,3.6,0.3,5.7,0.2c27.6-1.7,395.3-3.7,545.7,0c150.4,3.7,384.4,0,384.4,0s0.7,0,2,0"/>
	</g>
	<g>
		<rect id="XMLID_39732_" x="119" y="65.5" class="st3" width="702.8" height="395.3"/>
		<g>
			<g>
				<path class="st2" d="M822.1,460.8c0-0.8-0.1-1.7-0.1-2.6c-2-22.8-2.6-376.6-0.7-386.1c0.4-2.2,0.5-4.3,0.3-6.2"/>
				<path class="st2" d="M118.2,460.8c1.3,0.3,2.7,0.3,4.3,0.2c20.7-1.7,296.7-3.7,409.6,0c112.9,3.7,288.5,0,288.5,0s0.6,0,1.5,0"
					/>
				<path class="st2" d="M118.7,65.3c0.1,0.9,0.2,1.9,0.4,2.9c3.7,20.2-2.5,268.7-0.6,321.2c1.2,32.5-2.3,57.5-0.4,71.3"/>
				<path class="st2" d="M821.7,65.9c-14.5,0.1-529.9-2.7-702.8,0"/>
			</g>
		</g>
		<g>
			<path class="st2" d="M0-0.1c0,0,75,41.7,80.3,44.3s34.8,19.8,36.8,21.6"/>
			<path class="st2" d="M939.2-0.1c0,0-75,41.7-80.3,44.3S824.1,64,822.1,65.8"/>
			<path class="st2" d="M116.4,462.4c1.3,0.3,2.7,0.3,4.3,0.2c20.8-1.7,297.6-3.7,410.9,0s289.4,0,289.4,0s0.6,0,1.5,0"/>
		</g>
		<path class="st2" d="M937.7,526.1c0,0-75-41.7-80.3-44.3c-5.4-2.6-34.8-19.8-36.8-21.6"/>
		<path class="st2" d="M0.7,526.1c0,0,75-41.7,80.3-44.3c5.4-2.6,34.8-19.8,36.8-21.6"/>
	</g>
	<g>
		<g>
			
				<rect id="XMLID_39731_" x="275.3" y="408.5" transform="matrix(-6.261409e-11 1 -1 -6.261409e-11 711.2211 124.0885)" class="st3" width="36.6" height="18.3"/>
			<path id="XMLID_39730_" class="st4" d="M291.7,404.8c0,0,8.9-0.9,5.7,6.3C294.2,418.4,284.2,409.8,291.7,404.8z"/>
			<path id="XMLID_39729_" class="st4" d="M291.7,421.7c0,0,8.9-0.9,5.7,6.3C294.2,435.2,284.2,426.7,291.7,421.7z"/>
			<path class="st4" d="M292.8,407.3c0,0,0.4,1.2-0.4,3.3"/>
			<path class="st4" d="M294.9,407.2c0,0-0.3,2.4,0.2,3"/>
			<path class="st4" d="M292.8,428.1c0,0,0.4-1.2-0.4-3.3"/>
			<path class="st4" d="M294.9,428.2c0,0-0.3-2.4,0.2-3"/>
		</g>
		<g>
			
				<rect id="XMLID_39728_" x="665.5" y="411.4" transform="matrix(-6.231567e-11 1 -1 -6.231567e-11 1104.3511 -263.1848)" class="st3" width="36.6" height="18.3"/>
			<path id="XMLID_39727_" class="st4" d="M681.9,407.7c0,0,8.9-0.9,5.7,6.3C684.4,421.3,674.4,412.8,681.9,407.7z"/>
			<path id="XMLID_39726_" class="st4" d="M681.9,424.6c0,0,8.9-0.9,5.7,6.3C684.4,438.1,674.4,429.6,681.9,424.6z"/>
			<path class="st4" d="M683,410.3c0,0,0.4,1.2-0.4,3.3"/>
			<path class="st4" d="M685.1,410.1c0,0-0.3,2.4,0.2,3"/>
			<path class="st4" d="M683,431c0,0,0.4-1.2-0.4-3.3"/>
			<path class="st4" d="M685.1,431.2c0,0-0.3-2.4,0.2-3"/>
		</g>
		<path class="st1" d="M284.4,91.9c0,0-9.5,34.4,4.4,35.1c13.9,0.7,59.3,6.6,59.3-13.2s-2.2-28.6-22-27.1
			C306.4,88.2,284.4,91.9,284.4,91.9z"/>
		<path class="st1" d="M277.8,154.1c0,0-9.5,34.4,4.4,35.1s59.3,6.6,59.3-13.2s-2.2-28.6-22-27.1S277.8,154.1,277.8,154.1z"/>
		<path class="st1" d="M528.9,108c0,0-9.5,34.4,4.4,35.1s59.3,6.6,59.3-13.2s-2.2-28.6-22-27.1S528.9,108,528.9,108z"/>
		<path class="st1" d="M622.6,153.4c0,0-9.5,34.4,4.4,35.1s59.3,6.6,59.3-13.2s-2.2-28.6-22-27.1S622.6,153.4,622.6,153.4z"/>
	</g>
</g>
</svg>
