<?xml version="1.0" encoding="utf-8"?>
<!-- Generator: Adobe Illustrator 23.0.3, SVG Export Plug-In . SVG Version: 6.00 Build 0)  -->
<svg version="1.1" id="Layer_1" xmlns="http://www.w3.org/2000/svg" xmlns:xlink="http://www.w3.org/1999/xlink" x="0px" y="0px"
	 viewBox="0 0 57 51.7" style="enable-background:new 0 0 57 51.7;" xml:space="preserve">
<style type="text/css">
	.st0{fill:#2C2C2C;}
</style>
<g>
	<g>
		<path class="st0" d="M49,21c0-0.4,0-0.8,0-1.2c0-0.4,0-0.8-0.1-1.2c-0.1-0.6-0.2-1.2-0.3-1.7c-0.1-0.4-0.1-0.9-0.3-1.3
			c-0.1-0.2-0.1-0.4-0.2-0.6c-0.1-0.2-0.2-0.5-0.3-0.7c-0.2-0.4-0.4-0.8-0.6-1.2c-0.3-0.5-0.7-1-1.1-1.4c-0.5-0.4-1-0.8-1.6-1.1
			c-0.3-0.2-0.6-0.4-0.9-0.6c-0.5-0.3-1-0.5-1.5-0.7c0.1,0.1,0.3,0.1,0.4,0.2C42,9.3,41.4,9,40.8,8.9c-0.5-0.2-1.1-0.3-1.6-0.4
			c-0.2,0-0.5-0.1-0.7-0.1c-0.4-0.1-0.8-0.1-1.2-0.2c-0.2,0-0.4,0-0.6,0c-0.3,0-0.6,0-0.9,0.1c-1.3,0.1-2.5,0.6-3.6,1.2
			c-0.7,0.4-1.5,0.8-2.1,1.2c-0.4-0.3-0.9-0.5-1.3-0.8C28.2,9.4,27.6,9.2,27,9c-0.6-0.2-1.2-0.3-1.8-0.4c0,0-0.1,0-0.1,0
			c-0.1,0-0.2-0.1-0.3-0.1c-0.3-0.1-0.5-0.2-0.8-0.2c-0.7-0.1-1.3-0.2-2-0.2c-0.1,0-0.3,0-0.4,0c-0.5,0-1,0.1-1.5,0.1
			c-0.5,0.1-1,0.2-1.6,0.3c-0.5,0.1-1.1,0.2-1.6,0.4c-0.6,0.2-1.1,0.5-1.6,0.8c-0.5,0.3-1,0.6-1.5,0.9c-0.5,0.3-1.1,0.6-1.6,0.9
			c-0.6,0.4-1.1,0.8-1.6,1.2c-0.2,0.2-0.3,0.4-0.5,0.6c-0.2,0.2-0.3,0.4-0.5,0.6c-0.2,0.3-0.3,0.5-0.4,0.8c0.1-0.1,0.1-0.3,0.2-0.4
			c-0.2,0.5-0.4,1-0.6,1.6c-0.1,0.5-0.2,1.1-0.3,1.6c-0.1,0.7-0.2,1.4-0.3,2.1c-0.1,0.6-0.2,1.3-0.2,1.9c0,0.8,0.1,1.6,0.3,2.4
			c0.2,0.6,0.4,1.2,0.7,1.8c0,0.1,0,0.2,0,0.3c0.1,0.6,0.3,1.2,0.6,1.7c0.1,0.2,0.3,0.5,0.4,0.7c0.1,0.1,0.1,0.3,0.2,0.4
			c0.2,0.5,0.4,0.9,0.7,1.3c0.3,0.5,0.7,1,1,1.4c0.3,0.3,0.6,0.7,0.9,0.9c0.3,0.3,0.7,0.6,1,0.9c0.6,0.6,1.2,1.1,1.7,1.8
			c0.4,0.5,0.8,1,1.1,1.6c0.2,0.3,0.4,0.6,0.6,0.9c0.3,0.4,0.6,0.8,0.9,1.2c0.3,0.3,0.6,0.6,0.9,0.9c0.3,0.3,0.6,0.6,0.9,0.9
			c0.4,0.3,0.8,0.6,1.2,0.9c0.3,0.2,0.5,0.3,0.8,0.5c0.6,0.5,1.2,1,1.9,1.3c0.3,0.2,0.7,0.4,1,0.6c0.2,0.1,0.3,0.2,0.5,0.3
			c0.2,0.1,0.4,0.2,0.5,0.3c0.1,0.1,0.3,0.1,0.4,0.2c0.3,0.2,0.6,0.3,0.9,0.4c0.3,0.1,0.6,0.1,0.9,0.2c0.2,0,0.6-0.1,0.6-0.1
			c0.1,0,0.1,0,0.1,0c0.1,0,0.3-0.1,0.4-0.2c0.2,0,0.3,0,0.5,0c0.4,0,0.7-0.1,1.1-0.2c0.3-0.1,0.7-0.2,1-0.4
			c0.4-0.2,0.8-0.4,1.2-0.6c0.4-0.2,0.8-0.4,1.2-0.6c0.9-0.5,1.7-1.1,2.5-1.8c0.3-0.2,0.6-0.5,0.9-0.8c0.3-0.3,0.6-0.6,0.8-0.9
			c0.3-0.3,0.6-0.7,1-1c0.4-0.4,0.7-0.7,1.1-1c0.4-0.3,0.8-0.6,1.2-0.9c-0.1,0.1-0.1,0.1-0.2,0.2c0.3-0.3,0.7-0.5,1-0.8
			c0.5-0.3,0.9-0.7,1.3-1.1c0.3-0.3,0.6-0.6,0.9-1c0.7-0.8,1.3-1.7,1.9-2.6c0.3-0.6,0.6-1.2,0.8-1.8c0.1-0.5,0.3-1,0.4-1.5
			c0.1-0.5,0.2-1,0.3-1.5c0.1-0.5,0.2-1,0.3-1.6c0.1-0.4,0.2-0.9,0.2-1.3c0.1-0.6,0.2-1.2,0.2-1.8C49,21.7,49,21.4,49,21z"/>
	</g>
	<g>
		<path class="st0" d="M50.5,21c-0.1-6.1-1.9-10.4-7.6-13c-0.5,0.9-1,1.7-1.5,2.6c0.1,0.1,0.3,0.1,0.4,0.2c0.4-0.9,0.8-1.8,1.2-2.7
			c-3.4-1.3-6.5-2-10-0.7c-2.2,0.8-2.2,1.1-4.3,0.7c-1.1-0.3-2.4-0.8-3.5-1C19.2,5.8,10.7,8,7.9,14c0.9,0.5,1.7,1,2.6,1.5
			c0.1-0.1,0.1-0.3,0.2-0.4c-0.9-0.4-1.8-0.8-2.7-1.2c-1.9,5.3-1.5,10.3,0.9,15.3c1.3,2.7,3,4,5,6.1c2.2,2.4,3.5,5.1,6,7.1
			c2.6,2.1,5.9,4.6,9.4,4.3c5.7-0.5,9.2-5.5,13.3-8.6c-0.6-0.8-1.2-1.6-1.8-2.4c-0.1,0.1-0.1,0.1-0.2,0.2c-1.3,1,0.5,3.4,1.8,2.4
			C48.1,34,50.5,28.1,50.5,21c0-1.9-3-1.9-3,0c0,5.9-1.8,11.1-6.6,14.7c0.6,0.8,1.2,1.6,1.8,2.4c0.1-0.1,0.1-0.1,0.2-0.2
			c1.3-1-0.5-3.4-1.8-2.4c-3.6,2.8-6.8,7.4-11.7,8.1c-2.6,0.3-4.9-1.5-7-3c-2.4-1.8-3.7-4.1-5.5-6.3c-1.6-2-3.6-3.3-4.9-5.5
			c-2.6-4.3-2.8-9.3-1.2-14c0.6-1.6-2.1-2.7-2.7-1.2C8.1,13.7,8,13.8,7.9,14c-0.7,1.7,1.8,3.3,2.6,1.5c1.7-3.6,7.5-6,11.2-5.9
			c2.6,0.1,5.3,1,7.5,2.3c0.4,0.3,1.1,0.3,1.5,0c4-2.5,7.1-2.5,11.3-0.9c1.6,0.6,2.7-2.1,1.2-2.7C43.2,8.2,43,8.1,42.9,8
			c-1.7-0.7-3.3,1.8-1.5,2.6c4.7,2.1,6,5.4,6.1,10.4C47.5,22.9,50.5,22.9,50.5,21z"/>
	</g>
</g>
</svg>
