<?xml version="1.0" encoding="utf-8"?>
<!-- Generator: Adobe Illustrator 22.1.0, SVG Export Plug-In . SVG Version: 6.00 Build 0)  -->
<svg version="1.1" id="Layer_1" xmlns="http://www.w3.org/2000/svg" xmlns:xlink="http://www.w3.org/1999/xlink" x="0px" y="0px"
	 viewBox="0 0 31.2 42.9" style="enable-background:new 0 0 31.2 42.9;" xml:space="preserve">
<style type="text/css">
	.st0{opacity:0.1;fill:#231F20;stroke:#231F20;stroke-miterlimit:10;enable-background:new    ;}
	.st1{fill:#FFFFFF;stroke:#584C4F;stroke-width:2;stroke-linecap:round;stroke-miterlimit:10;}
</style>
<g id="Layer_5">
</g>
<g id="Layer_3">
</g>
<path class="st0" d="M30.1,6.6L30.1,6.6c-0.1-0.1-0.2-0.3-0.3-0.4c0,0,0-0.1-0.1-0.1c-0.1-0.1-0.2-0.3-0.4-0.4c0,0,0,0-0.1-0.1
	s-0.3-0.2-0.4-0.3c0,0-0.1,0-0.1-0.1c-0.2-0.1-0.4-0.2-0.6-0.3c0,0-0.1,0-0.1-0.1c-0.2-0.1-0.4-0.2-0.6-0.3c0,0,0,0-0.1,0
	c-0.2-0.1-0.5-0.2-0.8-0.3c-0.1,0-0.1,0-0.2-0.1C26,4,25.8,3.9,25.5,3.9h-0.1c-0.3-0.1-0.5-0.1-0.8-0.2c-0.1,0-0.1,0-0.2,0
	c-0.3-0.1-0.6-0.1-0.9-0.1c-0.1,0-0.1,0-0.2,0c-0.3,0-0.6-0.1-0.9-0.1h-0.1c-0.3,0-0.7,0-1,0c-0.1,0-0.1,0-0.2,0
	c-0.7,0-1.5,0-2.2,0.1c-0.1,0-0.1,0-0.2,0c-0.4,0-0.7,0.1-1.1,0.1h-0.1c-0.3,0-0.7,0.1-1,0.2c-0.1,0-0.1,0-0.2,0
	c-0.4,0.1-0.7,0.2-1.1,0.2h-0.1C14.3,4.3,9.8,4,7.6,4.9C1.2,7.6,3.5,34,6.4,40.4c0.2,0.4,0.4,0.7,0.5,1c0.1,0.1,0.2,0.2,0.3,0.3
	c1.6,1.2,6.4,0.5,8-0.1c0.1,0,0.1-0.1,0.2-0.1c0.2-0.1,0.4-0.5,0.4-0.6s0-0.2,0.1-0.3c0.1-0.4,0.1-0.9,0.2-1.3
	c0.4-2.5,0.6-6,0.6-10.6c0.3-0.1,0.7-0.2,1-0.3l0,0c0.9-0.3,1.7-0.7,2.4-1.2c0,0,0,0,0.1-0.1c0.2-0.1,0.3-0.3,0.5-0.4l0.1-0.1
	c0.1-0.1,0.2-0.2,0.3-0.4c0-0.1,0.1-0.1,0.1-0.2c0.1-0.1,0.1-0.3,0.2-0.4c0-0.1,0.1-0.1,0.1-0.2c0.1-0.2,0.1-0.4,0.2-0.6
	c0,0-0.2-3.5-5-3.6c0,0,0,0-0.1,0c-0.1-1.8-0.2-3.7-0.3-5.7l0,0c0.1,0,0.1-0.1,0.2-0.1s0.1-0.1,0.2-0.1s0.1-0.1,0.2-0.1
	s0.2-0.1,0.2-0.1c0.1,0,0.1-0.1,0.2-0.1c0.1-0.1,0.3-0.1,0.5-0.2c0.1,0,0.1,0,0.2-0.1c0.1,0,0.2-0.1,0.3-0.1c0.1,0,0.2,0,0.3-0.1
	c0.1,0,0.3-0.1,0.4-0.1s0.2,0,0.3,0c0.2,0,0.4-0.1,0.7-0.1c0.1,0,0.1,0,0.2,0c0.2,0,0.4,0,0.6,0c0.1,0,0.2,0,0.3,0
	c0.2,0,0.4,0,0.6,0c0.1,0,0.2,0,0.3,0c0.3,0,0.6,0,0.9,0H23c0.3,0,0.6,0,0.9,0c0.1,0,0.2,0,0.3,0c0.3,0,0.5,0,0.8,0.1
	c0.1,0,0.2,0,0.4,0c0.4,0,0.8,0.1,1.2,0.1l0,0c0,0,1.9-0.9,3.1-2.6c0.4-0.6,0.7-1.2,0.9-2c0.1-0.3,0.1-0.5,0.1-0.8
	C30.8,8.5,30.6,7.6,30.1,6.6z"/>
<g>
	<path class="st1" d="M27.1,3.6c-1.2-2.5-8.4-4-15-2.4C11.3,1.4,6.8,1.1,4.6,2c-6.4,2.7-4.1,29.1-1.2,35.5c0.2,0.4,0.4,0.7,0.5,1
		c0.1,0.1,0.2,0.2,0.3,0.3c1.6,1.2,6.4,0.5,8-0.1c0.1,0,0.1-0.1,0.2-0.1c0.2-0.1,0.4-0.5,0.4-0.6s0-0.2,0.1-0.3
		c0.1-0.4,0.1-0.9,0.2-1.3c0.4-2.5,0.6-6,0.6-10.6c2.8-0.8,4.6-2,4.9-3.9c0,0-0.2-3.5-5.1-3.6c-0.1-1.8-0.2-3.7-0.3-5.7
		c1.7-1,4.7-1.5,10.2-0.9C23.6,11.8,29.6,9,27.1,3.6z"/>
	<g id="XMLID_5826_">
		<path id="XMLID_5828_" class="st1" d="M7.1,26.9c6.3-0.5,11.1-1.8,11.5-5c0,0-0.2-3.5-5.1-3.6c0,0-1.2,0-3.1,0"/>
		<path id="XMLID_5827_" class="st1" d="M7.1,3.2c7.3-4.4,18.5-2.8,20,0.4c2.5,5.4-3.5,8.2-3.5,8.2c-7.4-0.9-10.2,0.4-11.5,1.9"/>
	</g>
</g>
</svg>
