<?xml version="1.0" encoding="utf-8"?>
<!-- Generator: Adobe Illustrator 22.1.0, SVG Export Plug-In . SVG Version: 6.00 Build 0)  -->
<svg version="1.1" id="Layer_1" xmlns="http://www.w3.org/2000/svg" xmlns:xlink="http://www.w3.org/1999/xlink" x="0px" y="0px"
	 viewBox="0 0 722.7 1283.9" style="enable-background:new 0 0 722.7 1283.9;" xml:space="preserve">
<style type="text/css">
	.st0{fill:none;stroke:#5B5B4B;stroke-linecap:round;stroke-miterlimit:10;}
</style>
<g>
	<g>
		<path class="st0" d="M633,159.4c-1.1,0-2.3,0.1-3.5,0.2c-31.1,2.7-514.3,3.5-527.2,1c-3-0.6-5.9-0.7-8.5-0.4"/>
		<path class="st0" d="M633.1,1118c0.4-1.7,0.4-3.7,0.3-5.9c-2.3-28.2-5-404,0-557.8c5-153.7,0-392.9,0-392.9s0-0.8,0-2"/>
		<path class="st0" d="M93,1117.3c1.2-0.1,2.6-0.3,4-0.6c27.6-5.1,366.9,3.4,438.6,0.8c44.4-1.6,78.5,3.2,97.4,0.5"/>
		<path class="st0" d="M93.9,160c0.2,19.8-3.7,721.6,0,957"/>
	</g>
</g>
<g>
	<path class="st0" d="M0.5,1283.4c0,0,58.3-105.3,62-112.8c3.6-7.5,27.6-48.9,30.1-51.7"/>
	<path class="st0" d="M722.2,0.5c0,0-57,102.4-60.6,109.7c-3.5,7.3-27,47.5-29.4,50.3"/>
	<path class="st0" d="M0.5,0.5c0,0,58.4,101.5,62.1,108.7c3.6,7.2,27.7,47.1,30.1,49.8"/>
	<path class="st0" d="M722.2,1280.5c0,0-56.8-104.4-60.3-111.8c-3.5-7.4-26.9-48.4-29.3-51.3"/>
</g>
<path class="st0" d="M488.2,597.9"/>
</svg>
