<?xml version="1.0" encoding="utf-8"?>
<!-- Generator: Adobe Illustrator 22.1.0, SVG Export Plug-In . SVG Version: 6.00 Build 0)  -->
<svg version="1.1" id="Layer_1" xmlns="http://www.w3.org/2000/svg" xmlns:xlink="http://www.w3.org/1999/xlink" x="0px" y="0px"
	 viewBox="0 0 160 139.6" style="enable-background:new 0 0 160 139.6;" xml:space="preserve">
<style type="text/css">
	.st0{fill:#E6C86B;}
	.st1{fill:#FFD767;}
	.st2{fill:#FFFFFF;}
</style>
<g id="Layer_5">
</g>
<g id="Layer_3">
</g>
<g>
	<g id="XMLID_12275_">
		<path id="XMLID_12281_" class="st0" d="M29.7,57.5v9.2c0,0,0,1.8,0.6,2.2c0.6,0.4,14.2,0,14.6,0c0.4,0,0.9,0,0.9-1.5
			c0-1.1-0.4-7.2-0.6-10.2"/>
		<path id="XMLID_12280_" class="st0" d="M5,61.7c0,0-0.2,0.7,0.5,0.7c24.7,0.8,63.9,0,63.9,0c0.8-0.1,0.5-0.7,0.5-0.7
			c1-20.9,0-59.8,0-59.8s0.2-0.7-0.5-0.7c-38.3-1.6-64.4,0-64.4,0C4.3,1.2,4.5,1.8,4.5,1.8S4.5,34.6,5,61.7z"/>
		<path id="XMLID_12279_" class="st0" d="M7,6.7c0,0-0.3-1.9,1.2-2c0,0,26.2-2.2,58.4,0c1.5,0.1,1.2,2,1.2,2s0.3,24.5-0.5,41.6
			c0,0,0.3,1.9-1.2,2c0,0-25,1.5-57.4,0c-1.5-0.1-1.2-2-1.2-2L7,6.7z"/>
		<path id="XMLID_12278_" class="st1" d="M11.7,7.5c-1.3-0.1-1.9,1.4-1.9,1.4s0,35.8,0.6,37.2c0,0,0.6,1.5,1.9,1.4
			c0,0,46.1,0.6,50.2,0c1.2-0.2,1.9-1.4,1.9-1.4s0.9-33,0.6-37.2c0,0-0.6-1.5-1.9-1.4C63,7.5,13.1,7.6,11.7,7.5z"/>
		<path id="XMLID_12277_" class="st2" d="M13.8,13.1c0.3,0.9,0.5,1.6,0.6,2.2c0.2,1.1,1.1,1.2,1.6,0.8c0.8-0.7,0.7-1.6,0.5-2.4
			c-0.1-0.5,0.3-0.9,0.8-1.2c0.4-0.2,1.4-0.5,0.3-0.8c-0.6-0.2-1.3-0.3-2-0.3C14.4,11.2,13.3,11.6,13.8,13.1z"/>
		<path id="XMLID_12276_" class="st0" d="M5,62.6c0,0-0.2,0.1,0.5,0.1c24.7,0.1,63.9,0,63.9,0c0.8,0,0.5-0.1,0.5-0.1
			c1-3,0-8.5,0-8.5s0.2-0.1-0.5-0.1c-38.3-0.2-64.4,0-64.4,0C4.3,54,4.5,54,4.5,54S4.5,58.7,5,62.6z"/>
	</g>
	<g id="XMLID_12264_">
		<g id="XMLID_12270_">
			<g id="XMLID_12271_">
				<path id="XMLID_12274_" class="st0" d="M16.3,70.1c0,0-1,15.5-0.9,27.5c0,1.4,0.1,2.7,0.1,3.9c0,0,0,0,0,0
					c0.1,2.9,0,4.2-0.3,4.5c-0.8,6.9,0.1,33.3,0.1,33.3l-4.5,0.4c0,0,0.8-15.9,0.3-26.6c-0.5-10.8-1.3-39.7-2.2-41.2"/>
				<path id="XMLID_12273_" class="st0" d="M137.9,70.1c0,0-1,15.5-0.9,27.5c0,1.4,0.1,2.7,0.1,3.9c0,0,0,0,0,0
					c0.1,2.9,0,4.2-0.3,4.5c-0.8,6.9,0.1,33.3,0.1,33.3l-4.5,0.4c0,0,0.8-15.9,0.3-26.6c-0.5-10.8-1.3-39.7-2.2-41.2"/>
				<path id="XMLID_12272_" class="st0" d="M146.4,73.5c1.5-1.4,0-4.1,0-4.1s0.3,0-0.8,0c-31.9-0.1-58.1-0.1-74.9,0
					c-42.5,0-69.8,0-69.8,0c-1.1,0-0.8,0-0.8,0S0,71.6,0.7,73.5c0,0-0.3,0,0.8,0c19.9,0,46.1,0,66,0c35.3,0,78.1,0,78.1,0
					C146.7,73.5,146.4,73.5,146.4,73.5z"/>
			</g>
		</g>
		<g id="XMLID_12265_">
			<g id="XMLID_12266_">
				<path id="XMLID_12269_" class="st0" d="M27.3,70.1c0,0-1,15.5-0.9,27.5c0,1.4,0.1,2.7,0.1,3.9c0,0,0,0,0,0
					c0.1,2.9,0,4.2-0.3,4.5c-0.8,6.9,0.1,33.3,0.1,33.3l-4.5,0.4c0,0,0.8-15.9,0.3-26.6c-0.5-10.8-1.3-39.7-2.2-41.2"/>
				<path id="XMLID_12268_" class="st0" d="M148.9,70.1c0,0-1,15.5-0.9,27.5c0,1.4,0.1,2.7,0.1,3.9c0,0,0,0,0,0
					c0.1,2.9,0,4.2-0.3,4.5c-0.8,6.9,0.1,33.3,0.1,33.3l-4.5,0.4c0,0,0.8-15.9,0.3-26.6c-0.5-10.8-1.3-39.7-2.2-41.2"/>
				<path id="XMLID_12267_" class="st0" d="M157.4,73.5c1.5-1.4,0-4.1,0-4.1s0.3,0-0.8,0c-31.9-0.1-58.1-0.1-74.9,0
					c-42.5,0-69.8,0-69.8,0c-1.1,0-0.8,0-0.8,0s-0.1,2.3,0.7,4.1c0,0-0.3,0,0.8,0c19.9,0,46.1,0,66,0c35.3,0,78.1,0,78.1,0
					C157.7,73.5,157.4,73.5,157.4,73.5z"/>
			</g>
		</g>
	</g>
	<g id="XMLID_12258_">
		<path id="XMLID_12263_" class="st0" d="M111,57.5v9.2c0,0,0,1.8,0.4,2.2s11,0,11.3,0s0.7,0,0.7-1.5c0-1.1-0.3-7.2-0.5-10.2"/>
		<path id="XMLID_12262_" class="st0" d="M74.5,61.4c0,0-0.3,0.7,0.7,0.7c32.2,0.8,83.5,0,83.5,0c1-0.1,0.7-0.7,0.7-0.7
			c1.3-21,0-59.9,0-59.9s0.3-0.7-0.7-0.7c-50-1.6-84,0-84,0c-1,0.1-0.7,0.7-0.7,0.7S73.9,34.2,74.5,61.4z"/>
		<path id="XMLID_12261_" class="st0" d="M77.2,6.8c0,0-0.4-2.2,1.6-2.3c0,0,34.2-2.6,76.3,0c2,0.1,1.6,2.3,1.6,2.3
			s0.4,28.9-0.7,49.2c0,0,0.4,2.2-1.6,2.3c0,0-32.6,1.8-74.9,0c-2-0.1-1.6-2.3-1.6-2.3L77.2,6.8z"/>
		<path id="XMLID_12260_" class="st1" d="M83.3,7.7c-1.6-0.1-2.4,1.7-2.4,1.7s-0.1,42.3,0.7,44c0,0,0.8,1.7,2.4,1.7
			c0,0,60.2,0.7,65.6,0c1.6-0.2,2.4-1.7,2.4-1.7s1.2-39,0.7-43.9c0,0-0.8-1.7-2.4-1.7C150.4,7.7,85.2,7.9,83.3,7.7z"/>
		<path id="XMLID_12259_" class="st2" d="M83.8,12.7c0.3,0.9,0.5,1.6,0.6,2.2c0.2,1.1,1.1,1.2,1.6,0.8c0.8-0.7,0.7-1.6,0.5-2.4
			c-0.1-0.5,0.3-0.9,0.8-1.2c0.4-0.2,1.4-0.5,0.3-0.8c-0.6-0.2-1.3-0.3-2-0.3C84.3,10.8,83.3,11.2,83.8,12.7z"/>
	</g>
</g>
</svg>
