<?xml version="1.0" encoding="utf-8"?>
<!-- Generator: Adobe Illustrator 22.1.0, SVG Export Plug-In . SVG Version: 6.00 Build 0)  -->
<svg version="1.1" id="Layer_1" xmlns="http://www.w3.org/2000/svg" xmlns:xlink="http://www.w3.org/1999/xlink" x="0px" y="0px"
	 viewBox="0 0 47.8 42.2" style="enable-background:new 0 0 47.8 42.2;" xml:space="preserve">
<style type="text/css">
	.st0{opacity:0.1;fill:#231F20;stroke:#231F20;stroke-miterlimit:10;enable-background:new    ;}
	.st1{fill:#FFFFFF;stroke:#584C4F;stroke-width:2;stroke-linecap:round;stroke-miterlimit:10;}
</style>
<g id="Layer_5">
</g>
<g id="Layer_3">
</g>
<g>
	<path class="st0" d="M47.3,16.8L47.3,16.8c0-0.1,0-0.1,0-0.2l0,0v-0.1l0,0c0,0,0-0.1-0.1-0.1l0,0l-0.1-0.1l0,0L47,16.2l0,0
		c-0.8-0.5-2.7-0.6-6.5,0l0,0c0-0.4-0.1-0.7-0.2-1c0-0.1,0-0.1,0-0.2c-0.1-0.3-0.2-0.7-0.3-1v-0.1l0.1-0.1c0.2-0.2,0.4-0.3,0.5-0.5
		c0.1-0.1,0.2-0.1,0.2-0.2c0.2-0.2,0.4-0.3,0.6-0.5c0.1-0.1,0.2-0.1,0.2-0.2c0.3-0.2,0.5-0.4,0.8-0.6c0.1,0,0.1-0.1,0.2-0.1
		c0.3-0.2,0.7-0.5,1.1-0.8c5.7-3.8,0-7.2,0-7.2l0,0l0,0c0,0-0.4,1-1.1,2.3l0,0c-0.1,0.1-0.1,0.2-0.2,0.4c0,0.1-0.1,0.2-0.1,0.2
		c0,0.1-0.1,0.2-0.1,0.3C42.1,7.1,42,7.2,42,7.4c0,0.1-0.1,0.1-0.1,0.2c-0.1,0.2-0.2,0.3-0.3,0.5c0,0.1-0.1,0.1-0.1,0.2
		c-0.1,0.2-0.2,0.3-0.3,0.5l-0.1,0.1c-0.2,0.4-0.5,0.9-0.8,1.3c0,0,0,0.1-0.1,0.1c-0.1,0.2-0.2,0.4-0.4,0.6c0,0,0,0,0,0.1
		c-0.3,0.4-0.5,0.8-0.8,1.2l0,0c0,0,0,0-0.1-0.1s-0.2-0.3-0.3-0.4s-0.1-0.2-0.2-0.2c-0.1-0.1-0.2-0.3-0.3-0.4s-0.1-0.2-0.2-0.2
		c-0.1-0.1-0.3-0.3-0.4-0.4c-0.1-0.1-0.1-0.1-0.2-0.2c-0.2-0.1-0.3-0.3-0.5-0.4c-0.1,0-0.1-0.1-0.2-0.1c-2.2-1.6-4.3-2.3-6.2-2.5
		c-5.6-0.4-9.5,4.1-9.5,4.1s-0.4,0.8-0.7,2.1v0.1c0,0.1-0.1,0.3-0.1,0.4s0,0.1,0,0.2S20,14.5,20,14.6s0,0.1,0,0.2
		c0,0.2-0.1,0.3-0.1,0.5c0,0,0,0,0,0.1c-0.1,0.3-0.1,0.7-0.2,1c0,0.1,0,0.2,0,0.3c0,0.1,0,0.3,0,0.4s0,0.2,0,0.3c0,0.1,0,0.3,0,0.4
		s0,0.2,0,0.4c0,0.1,0,0.3,0,0.4v0.1c-2-2.1-4.1-5.2-4.6-5.9C15,12.7,15,12.7,15,12.7l0,0l0,0l0,0c-0.7-0.9-1.6-1.7-2.4-1.9
		c-0.7-0.2-1.3,0.4-1.4,2.2c-0.2,3.3,1.6,6.7,2.6,8.5c0,0,0,0.1,0.1,0.1c0,0,0,0,0,0.1c0,0,0,0.1,0.1,0.2V22c0,0,0,0,0,0.1
		c-1-0.4-1.8-0.8-2.1-0.9h-0.1c-0.7-0.2-1.4-0.4-2-0.4c-1.3-0.1-2.2,0.5-1,2.7c0,0,0.2,0.3,0.3,0.5c0,0,0,0.1,0.1,0.1
		c0.1,0.2,0.3,0.4,0.5,0.6c0,0.1,0.1,0.1,0.2,0.2c0.1,0.2,0.3,0.3,0.4,0.5c0.1,0.1,0.1,0.1,0.2,0.2c0.1,0.1,0.3,0.3,0.4,0.4
		c0.1,0.1,0.1,0.1,0.2,0.2c0.2,0.1,0.3,0.3,0.5,0.4c0.1,0.1,0.1,0.1,0.2,0.2c0.2,0.1,0.3,0.2,0.5,0.4c0.1,0,0.1,0.1,0.2,0.1
		c0.2,0.1,0.3,0.2,0.5,0.3c0.1,0,0.1,0.1,0.2,0.1c0.2,0.1,0.3,0.2,0.5,0.3l0,0l0,0c-0.1,0-0.2,0-0.2,0h-0.1h-0.1c0,0,0,0-0.1,0
		s-0.1,0-0.1,0l0,0c-0.2,0-0.3,0-0.5,0.1h-0.1c-0.2,0-0.3,0.1-0.5,0.1l0,0c-0.2,0-0.3,0.1-0.4,0.1c0,0,0,0-0.1,0s-0.3,0.1-0.4,0.2
		l0,0c-0.1,0.1-0.2,0.1-0.3,0.2l0,0c-0.1,0.1-0.2,0.1-0.2,0.2l0,0c-0.1,0.1-0.1,0.2-0.1,0.3l0,0c0,0.1,0,0.2,0,0.3l0,0
		c-0.3,0-0.5-0.1-0.7-0.2c-1-0.5-2.7-1.2-4-1.3c-1.7-0.2-2.9,0.5-1.4,3.3l0.1,0.1c0.1,0.2,0.3,0.5,0.4,0.7c0.1,0.1,0.2,0.2,0.2,0.3
		c0.1,0.2,0.2,0.3,0.3,0.5c0.1,0.1,0.2,0.2,0.3,0.4c0.1,0.1,0.2,0.3,0.3,0.4c0.1,0.1,0.2,0.2,0.3,0.4c-0.1,0.3,0,0.4,0,0.4
		c1.3,2.8,3.6,5.2,7.9,6.5c10,3.2,18.7-5.3,19.5-13.8c0,0,0,0,0.1,0c0.4-0.2,0.7-0.4,1-0.6l0.1-0.1c0.3-0.2,0.7-0.5,1-0.7
		c0,0,0,0,0.1-0.1c0.3-0.3,0.6-0.5,0.9-0.8l0,0c0.3-0.3,0.5-0.6,0.8-0.9l0.1-0.1c0.2-0.3,0.5-0.6,0.7-1c0-0.1,0.1-0.1,0.1-0.2
		c0.2-0.3,0.4-0.7,0.6-1c0-0.1,0-0.1,0.1-0.2c0.2-0.4,0.3-0.7,0.5-1.1l0,0c0.1-0.4,0.2-0.7,0.3-1.1v-0.1l0,0
		c0.5,0.2,1.1,0.4,1.6,0.6c0.1,0,0.1,0,0.2,0c0.2,0.1,0.4,0.1,0.6,0.2c0.1,0,0.2,0,0.3,0.1c0.2,0,0.3,0.1,0.5,0.1c0.1,0,0.2,0,0.3,0
		c0.2,0,0.3,0,0.4,0c0.1,0,0.2,0,0.3,0s0.3,0,0.4-0.1c0.1,0,0.2,0,0.3-0.1c0.1,0,0.2-0.1,0.4-0.2c0.1,0,0.1-0.1,0.2-0.1
		c0.2-0.1,0.3-0.2,0.4-0.4l0,0c0.3-0.5,0.7-0.9,0.9-1.3l0,0c0-0.1,0.1-0.1,0.1-0.2c0,0,0,0,0-0.1c0,0,0-0.1,0.1-0.1v-0.1v-0.1v-0.1
		v-0.1v-0.1V17v-0.1c0,0,0,0,0-0.1C47.3,16.9,47.3,16.8,47.3,16.8z"/>
	<g>
		<path class="st1" d="M37.3,13.1c-0.1-0.8-0.2-1.6-0.5-2.3c1-0.9,2.2-1.9,3.8-2.9c5.7-3.8,0-7.2,0-7.2S38.3,6.1,36,9.3
			c-0.6-0.9-1.3-1.8-2.3-2.5C24.9,0.3,18,8.4,18,8.4s-1.5,3.5-1.5,7.3c-2-2.1-4.1-5.2-4.6-5.9c-0.1-0.1-0.1-0.1-0.1-0.1l0,0
			C10.3,8,8.2,6.3,8,10.1c-0.2,3.3,1.6,6.7,2.6,8.5c0.1,0.1,0.1,0.3,0.2,0.5c-1-0.4-1.8-0.8-2.1-0.9H8.6c-2.1-0.7-4.7-1-3,2.3
			c1.1,2.1,3.2,3.7,4.9,4.8c-0.2,0-0.4,0-0.5,0s-0.1,0-0.1,0l0,0C8.5,25.5,7,26,7.3,27c-0.3,0-0.5-0.1-0.7-0.2c-2.4-1.2-8-3.1-5.5,2
			c0.6,1.1,1.3,2.1,2.2,3c1.3,2.8,3.6,5.2,7.9,6.5c10,3.2,18.7-5.3,19.5-13.8c3.2-1.6,5.6-4.7,6.4-8.1c2.1,0.9,4.8,1.6,5.9,0.2
			C44.7,14,46.2,11.8,37.3,13.1z"/>
		<path class="st1" d="M16.3,25.1c-3.2,1-8.1,2.3-9.7,1.5c-2.4-1.2-8-3.1-5.5,2C1.7,29.9,2.6,31,3.7,32"/>
		<g>
			<g>
				<path class="st1" d="M9.9,25.1L9.9,25.1c0.1,0,0.1,0,0.1,0H9.9z"/>
				<path class="st1" d="M16.3,24.5c-2.4,0.5-5.6,0.6-6.3,0.6H9.9C8,25.4,5.8,26.2,8.5,28c2.3,1.6,5.6,1.9,7.3,1.9
					c0.7,0,3.4,0.8,4,0"/>
			</g>
			<path class="st1" d="M18.6,20.9C18.3,21,17.8,21,17.1,21c-2.7-0.4-7.5-2.5-8.4-2.9H8.6c-2.1-0.7-4.7-1-3,2.3
				c2.2,4,7.8,6.3,7.8,6.3s2.2,0.1,4.6-0.6"/>
			<g>
				<path class="st1" d="M11.9,9.7L11.9,9.7c0,0.1,0.1,0.1,0.1,0.1C11.9,9.7,11.9,9.7,11.9,9.7z"/>
				<path class="st1" d="M22.7,18.9c-0.9-0.7-2.6-1.2-3.7-1.4c-0.4-0.1-0.8-0.3-1.3-0.7c-2.2-1.8-5.2-6.2-5.7-7l-0.1-0.1
					C10.4,8,8.3,6.3,8.1,10.1c-0.2,3.3,1.6,6.7,2.6,8.5c0.4,0.7,1.4,3.8,2.4,4c1.9,0.2,5.1,0.4,7.7-0.7"/>
			</g>
		</g>
		<g>
			<path class="st1" d="M28.1,25.1c8.1-1.5,13-12.9,5.6-18.3C24.9,0.3,18,8.4,18,8.4s-2.2,5-1.2,9.6"/>
			<path class="st1" d="M34.3,14.8c0,0,6.8,4.1,8.7,1.6s3.4-4.7-6.8-3.1"/>
			<path class="st1" d="M33,14.8c0.6-0.2,1.9-3.2,7.6-6.9s0-7.2,0-7.2S35.4,12.8,33,11.3"/>
		</g>
	</g>
</g>
</svg>
