<?xml version="1.0" encoding="utf-8"?>
<!-- Generator: Adobe Illustrator 22.1.0, SVG Export Plug-In . SVG Version: 6.00 Build 0)  -->
<svg version="1.1" id="Layer_1" xmlns="http://www.w3.org/2000/svg" xmlns:xlink="http://www.w3.org/1999/xlink" x="0px" y="0px"
	 viewBox="0 0 100 100" style="enable-background:new 0 0 100 100;" xml:space="preserve">
<style type="text/css">
	.st0{opacity:0.1;enable-background:new    ;}
	.st1{fill:#231F20;stroke:#231F20;stroke-miterlimit:10;}
	.st2{fill:none;stroke:#231F20;stroke-miterlimit:10;}
	.st3{fill:#FFD767;stroke:#584C4F;stroke-width:2;stroke-miterlimit:10;}
	.st4{fill:#FFFAF2;stroke:#584C4F;stroke-width:2;stroke-miterlimit:10;}
	.st5{fill:none;stroke:#584C4F;stroke-width:2;stroke-miterlimit:10;}
</style>
<g>
	<g class="st0">
		<g>
			<path class="st1" d="M34.7,22.6C27.6,23,21.3,23.9,21.2,31c0,1.6,0.1,8,0,9.4c-0.3,4.8,2.4,12.6,10.1,25.4
				c18.2,30.3,33.7-3.4,33.7-3.4c5.4-6.8,7.2-12.8,6.6-17.6c-0.1-1.1,0.1-6.7,0.1-8.4c0-10.8-11.2-15.6-19-5.8
				C41.8,44.3,46.8,21.9,34.7,22.6z"/>
			<g id="XMLID_9_">
				<path id="XMLID_10_" class="st1" d="M65,62.4c0,0-15.4,33.8-33.7,3.4s-8.7-32.3,3.3-33.1s7.1,21.6,18,8C63.6,27,81.5,42,65,62.4
					z"/>
			</g>
		</g>
		<line id="XMLID_8_" class="st2" x1="66.1" y1="53.2" x2="67.6" y2="50.1"/>
		<path id="XMLID_7_" class="st1" d="M66.8,33.8c0,0-0.7-4.8-1.6-5.1"/>
		<path id="XMLID_6_" class="st1" d="M47.1,41.1c0,0,0.2-2.4-0.6-2.9"/>
	</g>
	<g>
		<g>
			<path class="st3" d="M34.8,28.1c-7.2,0.4-13.4,1.3-13.6,8.4c0,1.6,0.1,8,0,9.4c-0.3,4.8,2.4,12.6,10.1,25.4
				C49.5,101.6,65,67.8,65,67.8c5.4-6.8,7.2-12.8,6.6-17.6c-0.1-1.1,0.1-6.7,0.1-8.4c0-10.8-11.2-15.6-19-5.8
				C41.8,49.8,46.9,27.4,34.8,28.1z"/>
			<g id="XMLID_4_">
				<path id="XMLID_5_" class="st4" d="M65.1,67.9c0,0-15.4,33.8-33.7,3.4S22.7,39,34.8,38.3s7.1,21.6,18,8
					C63.7,32.6,81.5,47.5,65.1,67.9z"/>
			</g>
		</g>
		<line id="XMLID_3_" class="st5" x1="66.2" y1="58.7" x2="67.6" y2="55.6"/>
		<path id="XMLID_2_" class="st4" d="M66.9,39.3c0,0-0.7-4.8-1.6-5.1"/>
		<path id="XMLID_1_" class="st4" d="M47.2,46.6c0,0,0.2-2.4-0.6-2.9"/>
	</g>
</g>
</svg>
