<?xml version="1.0" encoding="utf-8"?>
<!-- Generator: Adobe Illustrator 22.1.0, SVG Export Plug-In . SVG Version: 6.00 Build 0)  -->
<svg version="1.1" id="Layer_1" xmlns="http://www.w3.org/2000/svg" xmlns:xlink="http://www.w3.org/1999/xlink" x="0px" y="0px"
	 viewBox="0 0 771.1 261" style="enable-background:new 0 0 771.1 261;" xml:space="preserve">
<style type="text/css">
	.st0{opacity:0.1;fill:#231F20;stroke:#231F20;stroke-width:5;stroke-miterlimit:10;}
	.st1{fill:#FFD767;stroke:#584C4F;stroke-width:5;stroke-miterlimit:10;}
	.st2{fill:#FFFFFF;stroke:#584C4F;stroke-width:5;stroke-linecap:round;stroke-miterlimit:10;}
</style>
<path class="st0" d="M679.8,193.5c0.1-0.4,0.7-0.4,0.9,0c6.7,11.8,25.6,13.9,10.5-8.8c0,0-0.3-0.4-0.7-0.9c-0.5-0.6-0.1-1.6,0.9-1.4
	c3,0.7,6,0.6,8.7-2.4c8.8-9.8,14.5-18.6-22.8-28c-37.3-9.3-23.3,28.6-23.3,28.6C656.7,205.8,676.8,206.8,679.8,193.5z"/>
<path class="st0" d="M315.3,91.4c0.1,0,0.2,0,0.2,0c2.4,0,4.9-0.3,7.7-1c10.8-2.5,18.3-9.4,22.5-17.9c-0.7-9.9-9.1-11-14.2-11.8
	c-2.8-0.4-5.6,1.3-7.8,3.1c-0.2,0.2-0.4,0.4-0.7,0.6c-7.3,5.4-26.5-5.2-16.4-13.1c0,0,2.6-2.7,5.9-4.6c0.4,1.5,1,3.1,1.8,4.9
	c2.6,5.4,8.7,6,14.6,4.6c3.6,3.1,8.2,4.9,12.6,1.7c7.9-5.7,7-7.9,7.3-10.1c0.4-2.2-1.6-5.9-1.6-5.9C343.5,32,335.4,24.3,323,23
	c-14.7-1.5-24.3,3.6-30.5,10.1c-3.1-5.5-7-28.1-25.5,19.3c-18.6-47.6-22.4-24.2-25.5-19c-0.1,0.1-0.2,0.3-0.2,0.5
	c-8.6-8.8-21.4-13.7-35.2-9.3c-7.8,2.5-12.9,6.5-16.2,11.2c-3.9-5.4-9.9-9.8-19.2-11.7c-0.8-0.2-1.7-0.3-2.5-0.5c0,0,0,0-0.1,0
	c-0.8-0.1-1.6-0.2-2.3-0.3h-0.1c-0.7-0.1-1.4-0.1-2.1-0.2c-0.1,0-0.1,0-0.2,0c-0.7,0-1.3-0.1-2-0.1c-0.1,0-0.2,0-0.3,0
	c-0.6,0-1.2,0-1.8,0c-0.1,0-0.2,0-0.3,0c-0.6,0-1.2,0.1-1.7,0.1c-0.1,0-0.2,0-0.3,0c-0.6,0.1-1.1,0.1-1.7,0.2c-0.1,0-0.2,0-0.3,0
	c-0.6,0.1-1.2,0.2-1.8,0.3c-0.3,0.1-0.7,0.2-1,0.2c-0.2,0.1-0.5,0.1-0.7,0.2c-0.4,0.1-0.8,0.2-1.2,0.4c-0.1,0-0.3,0.1-0.4,0.1
	c-0.4,0.1-0.9,0.3-1.3,0.4c-0.1,0-0.2,0.1-0.3,0.1c-0.4,0.2-0.9,0.3-1.3,0.5c0,0-0.1,0-0.1,0.1c-2.4,1-4.6,2.3-6.6,3.8
	c-3.4-2.5-7.8-4.5-13.2-5.7c-9.2-1.9-16.8-1.1-22.9,1.4c-1.8-2.1-4.2-2.8-6.8-2.7c-4.2,0-8.7,2.1-11.9,3.4
	c-2.9,1.2-4.3,14.4-3.9,28.4c0,0.3,0,0.5,0,0.8c0,1.5,0.2,3.9,0.4,6.7c0.4,5.3,1.1,10.5,2,14.9c0,0.1,0.1,0.3,0.1,0.4
	c0,0.1,0,0.1,0,0.2c1.4,6.4,3.4,11.1,6,12.5c1.9,1,3.7,1.4,5.3,1.4c7,0.1,11.3-7.6,11.3-7.6c1.4-5.4,2.2-19,1.9-31.6
	c0.4-1.1,1-2,1.7-2.6c4.1-3.2,15.7-2.8,18.6,3.1c0.6,1.3,0.9,2.9,0.5,4.8c-1.3,6-1.5,12.8-1.4,17.4c0.1,3.2,0.1,5.9,0.1,6.8
	c0,2.6,1.2,8,10.1,9c11.9,1.4,13.4-2.4,13.4-10.9c0-4.1,2.2-15.5,0.8-27c0.5-1.4,1.1-2.5,1.8-3.1c5-3.9,21.2-2.4,19,7.9
	c-1.3,6-1.5,12.8-1.4,17.4c0.1,3.2,0.1,5.9,0.1,6.8c0,2.6,1.2,8,10.1,9c10.1,1.2,12.7-1.4,13.3-7.4c8.5,6.4,25.5,14.8,45.5,0.2
	c4.6-3.4,7.7-7.5,9.6-11.9c2.7,6.4,5.8,12.2,9,15.8c0.8,1.3,1.9,2.4,3.5,3.1c1.1,0.7,2.2,1.1,3.3,1.1c0.6,0,1.2,0,1.7-0.1
	c0.6,0,1.2-0.1,1.9-0.4c2.7-0.8,4.4-2.4,5.3-4.2c3.3-4,6.5-10.2,9.3-16.9c0.8,2.5,1.9,5.3,3.3,8.2c4.1,8.6,14.4,11.6,21.3,12.7
	C310.9,91.2,313,91.4,315.3,91.4z M211,68.7c-19.2-2.6,7.8-38.5,16.5-15.6C236.3,76,211,68.7,211,68.7z"/>
<path class="st0" d="M687.7,34.7c0,0-18.2-12.5-34.7-4.6c-2.5-3.2-6.9-5.4-14.7-0.8c-10.7,6.3-5.9,15.5-2.1,20.4
	c-0.1,0.3-0.2,0.6-0.4,0.8c-6.6-15.9-24.1-28.4-43.7-22.1c-4.6,1.5-8.2,3.4-11.1,5.8c0,0-0.1,0-0.1-0.1c-0.3-0.2-0.7-0.5-1.1-0.7
	c-0.1,0-0.1-0.1-0.2-0.1c-0.4-0.3-0.8-0.5-1.3-0.8c0,0,0,0-0.1,0c-11.3-6.4-32.3-10.4-41.6,3.8c-0.4-0.5-0.8-1.1-1.2-1.6
	c0,0-18.2-12.5-34.7-4.6c-2.5-3.2-6.9-5.4-14.7-0.8c-10.7,6.3-5.9,15.5-2.1,20.4c-0.6,1.5-1.3,3-1.9,4.7
	c-16.1,45.3,23.1,52.4,22.2,24.8s8.5-29.8,19.4-25.6c2.7,1,5.7,1.5,8.4,1.4c0,0.1,0,0.2,0,0.4v0.1c1,3.2,2.7,6,4.9,8.2
	c0.8,0.9,1.7,1.7,2.5,2.3c6.1,4.7,14.6,6.7,22.2,6.9c-1.1,4.3-6.2,6.6-22.4-1.3c0,0-11.9,0.6-10.6,10.6c0,0.2,0.1,0.4,0.2,0.7
	c0,0.1,0,0.1,0.1,0.2c0.1,0.2,0.2,0.4,0.3,0.7c0,0.1,0.1,0.1,0.1,0.2c0.1,0.2,0.2,0.4,0.4,0.5c0.1,0.1,0.1,0.1,0.2,0.2
	c0.2,0.2,0.4,0.4,0.6,0.7c0.1,0.1,0.1,0.2,0.2,0.2c0.2,0.2,0.4,0.4,0.6,0.6c0.1,0.1,0.1,0.1,0.2,0.2c0.3,0.2,0.5,0.5,0.8,0.7
	c0.1,0.1,0.2,0.1,0.3,0.2c0.3,0.2,0.6,0.5,1,0.7c0,0,0.1,0,0.1,0.1c0.3,0.2,0.7,0.5,1.1,0.7c0.1,0,0.1,0.1,0.2,0.1
	c0.4,0.3,0.8,0.5,1.3,0.8c0,0,0,0,0.1,0c11.5,6.5,33.3,10.6,42.2-4.8c7,6.2,25.7,19.1,48.4,2.5c1.8-1.3,3.4-2.8,4.8-4.4
	c5,18.1,25.6,16.4,25-3.7c-0.9-27.6,8.5-29.8,19.4-25.6C686.8,57.8,702,53.3,687.7,34.7z M554.3,46.6l0.1-0.1l0.1-0.1
	c2.5-1.8,7.5-1.7,17.2,2.5c-0.4,1.6-0.7,3.1-0.9,4.7c-5.5-2.9-12.2-4.2-18.1-4.3C553,48.2,553.5,47.3,554.3,46.6z M597,72.6
	c-19.2-2.6,7.8-38.5,16.5-15.6C622.3,79.8,597,72.6,597,72.6z"/>
<path class="st0" d="M432.7,46c0,0-1.4-24.1-17.6-16.9c-0.3,0.1-0.6,0.3-0.9,0.5l-0.1-0.1c-8.5-8.9-37.7,6.5-40.3,12.1
	c0,0-17.4,28.7,10.8,48.6c9.9,7,20.9,6.4,30.1,1.7c0,0,3.7-1.4,4.9-3.3c0.4-0.7,0.9-1.3,1.4-2.2c6.8,7.1,16.2,11,28.3,8.1
	c41.3-9.8,24.7-63.3,24.7-63.3s-17.2-15.3-20.2,11.1c0,0-0.9,17.7-9,19.1C436.7,62.8,431.9,50.4,432.7,46z M402.8,70.7
	c-0.9,0.3-1.7,0.6-2.3,0.9c0,0-0.1,0.1-0.2,0.1c-1.4,0.6-2.6,0.6-3.6,0.2c-2.6-1-4-4.4-4-4.4c-1.9-3.8-2.1-8.7-2.1-8.7
	c-1.2-6.3,3.7-8.2,9-7.4c0,0,0.4,0.1,1.2,0.2c1.6,0.2,4.2,0.5,6.8,0.1c0.3,5.8,1.5,12,3.5,17.9C408.2,69.5,405.2,70,402.8,70.7z"/>
<path class="st0" d="M238.4,154.5c-26.6,8.5-22.5,34.8-18.9,47.1c-0.3-0.2-0.7-0.3-1.1-0.5c-11.7-5.1-14-15.8-13.8-29.2v-0.3
	c4.9,0.2,12.4-1.5,11-13.8c-0.9-8-5.4-10.7-10.2-11.2l0.7-22.3c0,0-22.8-21.8-23.4,19.2c-0.6,41-8.2,78.3,35.7,78.1
	c0,0,7.5-3.1,9.9-7.7c8.7,6.3,25.3,13.8,44.7-0.5C301.8,192.2,273.6,143.3,238.4,154.5z M243.3,198.8c-19.2-2.6,7.8-38.5,16.5-15.6
	C268.6,206,243.3,198.8,243.3,198.8z"/>
<path class="st0" d="M497.3,150.6c22.9-9.8-0.4-23.1-0.4-23.1C481.3,115.3,474.3,160.5,497.3,150.6z"/>
<path class="st0" d="M524.1,161.1c-2-3.6-6.3-7.6-14.6-4.7c-2,0.7-3.6,2.5-4.8,5.1c-2.5-2-6.4-2.7-12.5-0.7c-2.8,0.9-5,2.7-6.6,5.1
	c-4.5-17.1-16.8-8.8-20.6-5.7c-20-8-35.4,5.1-40,9.6c-4.3-7.5-11.6-13.1-22-14.2c-16.7-1.7-26.8,5.1-32.8,12.7
	c-1.8-2.9-4.1-5.8-7.1-8.7c-7.4-7.1-16.2-9.1-24.6-7.5c-1.6-52-17.1-27.3-23.5-22.5c-8,6-16.5,84.2,0.8,91.4
	c6.7,2.8,11.3,1.4,14.5-1.3c11.7,2.8,33.4-5.3,36.2-9.6c0,0,0.2-0.3,0.6-0.7c0.2,0.4,0.4,0.9,0.6,1.3c4.1,8.6,14.4,11.6,21.3,12.7
	c1.9,0.4,4,0.6,6.3,0.6c0.1,0,0.2,0,0.2,0c2.4,0,4.9-0.3,7.7-1c8.4-1.9,14.7-6.5,19.1-12.4c3.1,6,8.7,11.1,18,14.1
	c8.5,2.7,16.6,1.9,23.5-1.2c-1.8,6.4-5.4,11.4-12.3,14.5c-23.9,10.5,0,20.5,0,20.5c31.4,0.1,36.4-18.8,36.6-44.6
	c2.1,3.6,4.5,5.6,6.8,5.1c4.8-1,8.4-3.2,10.8-7.7c1,3.2,2.1,5.4,3.2,6.1c5.6,3.6,20.3,24,18.3-30.6c6.6-4.3,17.8-7.5,14.3,23.7
	c0,0,5.6,13.5,16.6,7.9C568.6,213,570.6,149.2,524.1,161.1z M352.3,190.1c0.2,6.5-5,7.7-10.2,6.1c0,0-0.5-0.2-1.2-0.4
	c-0.9-0.3-2.1-0.6-3.5-0.8c0.4-6.6,0.7-12.7,0.8-18.3c1.3,0,2.5-0.1,3.6-0.3c0.9-0.1,1.7-0.3,2.4-0.5c0-0.1,0.1-0.1,0.2-0.1
	c1.5-0.5,2.7-0.3,3.7,0.3c2.4,1.4,3.3,5,3.3,5C352.8,185.2,352.3,190.1,352.3,190.1z M411.4,193.3c-2.8-0.4-5.6,1.3-7.8,3.1
	c-0.2,0.2-0.4,0.4-0.7,0.6c-7.3,5.4-26.5-5.2-16.4-13.1c0,0,2.5-2.7,5.8-4.5c0.4,1.5,1,3.1,1.8,4.8c2.6,5.4,8.8,6,14.6,4.5
	c2.9,2.5,6.5,4.1,10,3.1c-0.1,1.1-0.1,2.2-0.1,3.3C416.3,194,413.6,193.6,411.4,193.3z M461.6,196c-8.8,22.8-35.8-13-16.5-15.6
	C445.1,180.4,470.4,173.2,461.6,196z"/>
<path class="st0" d="M590,193.9c1.5,12,6,21.1,18,25c4.3,1.4,9.6,2.2,16,2.1c0,0,22.7-8.6,0-17.7c-8.4-3.4-11.7-9.5-12.7-17.3
	l-0.3-9.6l0.3-9.6c1-7.8,4.3-13.9,12.7-17.3c22.6-9.1,0-17.7,0-17.7c-6.4,0-11.7,0.7-16,2.1c-12,3.9-16.5,13-18,25
	c-0.7,5.3-0.7,11.3-0.6,17.5C589.3,182.7,589.3,188.6,590,193.9z"/>
<path class="st0" d="M736.9,203.4c-20.7,9.1,0,17.7,0,17.7c5.9,0,10.7-0.7,14.6-2.1c10.9-3.9,15.1-13,16.5-25
	c0.6-5.3,0.7-11.3,0.5-17.5c0.1-6.4,0.1-12.3-0.5-17.7c-1.4-12-5.5-21.1-16.5-25c-3.9-1.4-8.7-2.2-14.6-2.1c0,0-20.7,8.6,0,17.7
	c5.7,2.5,8.8,6.5,10.4,11.7c0.5,6.5,1,12.5,1.3,15.3c-0.3,2.8-0.8,8.8-1.3,15.3C745.7,196.8,742.6,200.8,736.9,203.4z"/>
<g id="XMLID_4909_">
	<path id="XMLID_4910_" class="st1" d="M677.3,142c-37.3-9.3-23.3,28.6-23.3,28.6c2.7,25.2,22.8,26.2,25.8,12.9
		c0.1-0.4,0.7-0.4,0.9,0c6.7,11.8,25.6,13.9,10.5-8.8c0,0-0.3-0.4-0.7-0.9c-0.5-0.6-0.1-1.6,0.9-1.4c3,0.7,6,0.6,8.7-2.4
		C708.9,160.2,714.6,151.4,677.3,142z"/>
</g>
<path id="XMLID_4958_" class="st1" d="M206.1,14.5C171,25.7,189.4,68,189.4,68s22.5,26.5,51.3,5.4C269.5,52.2,241.2,3.3,206.1,14.5z
	 M211,58.7c-19.2-2.6,7.8-38.5,16.5-15.6C236.3,66,211,58.7,211,58.7z"/>
<g id="XMLID_4955_">
	<path id="XMLID_4957_" class="st1" d="M324.8,22.4c0,0-6.1-4.3-8.7-0.9c-2.6,3.3-7.1,9-1.8,20.1c5.3,11.1,25.4,1.9,27.4-3.3"/>
	<path id="XMLID_4956_" class="st1" d="M347.2,31.9L347.2,31.9C343.5,22,335.4,14.3,323,13c-24.7-2.5-34.9,13.5-38.8,23.3
		c0,0-0.9,1.5-1.5,4.3c-0.5,1.7-0.6,3.1-0.5,3.8c-0.4,5.3,0.5,13.3,5.5,23.7c4.1,8.6,14.4,11.6,21.3,12.7c1.9,0.4,4,0.6,6.3,0.6
		c0.1,0,0.2,0,0.2,0l0,0c2.4,0,4.9-0.3,7.7-1c10.8-2.5,18.3-9.4,22.5-17.9c-0.7-9.9-9.1-11-14.2-11.8c-2.8-0.4-5.6,1.3-7.8,3.1
		c-0.2,0.2-0.4,0.4-0.7,0.6c-7.3,5.4-26.5-5.2-16.4-13.1c0,0,3.4-3.6,7.4-5.3l0,0c0,0,3.3-1.7,6-0.7c1.1,0.4,2,1.2,2.6,2.6
		c0,0.1,0.1,0.2,0.1,0.2c0.3,0.7,0.7,1.4,1.2,2.2c3.3,5.4,10.7,12.5,17.6,7.6c7.9-5.7,7-7.9,7.3-10.1l0,0
		C349.2,35.6,347.2,31.9,347.2,31.9z"/>
</g>
<g id="XMLID_4915_">
	<g id="XMLID_4946_">
		<g id="XMLID_4951_">
			<path id="XMLID_4954_" class="st1" d="M127.9,67.2"/>
			<path id="XMLID_4953_" class="st1" d="M151,65.8c-0.1-9.9-0.7-23.3,3.1-26.3c5-3.9,21.2-2.4,19,7.9c-1.3,6-1.5,12.8-1.4,17.4
				c0.1,3.2,0.1,5.9,0.1,6.8c0,2.6,1.2,8,10.1,9c11.9,1.4,13.4-2.4,13.4-10.9S205,21.2,170.7,14c-24-5-36.7,8.7-42.1,19.9"/>
			<path id="XMLID_4952_" class="st1" d="M152.2,37.9"/>
		</g>
		<g id="XMLID_4947_">
			<path id="XMLID_4950_" class="st1" d="M84,67.1c1.4,7,23.1,1.7,23.1-1.4c-0.1-9.9-0.7-23.3,3.1-26.3c4.1-3.2,15.7-2.8,18.6,3.1
				c0.6,1.3,0.9,2.9,0.5,4.8c-1.3,6-1.5,12.8-1.4,17.4c0.1,3.2,0.1,5.9,0.1,6.8c0,2.6,1.2,8,10.1,9c11.9,1.4,13.4-2.4,13.4-10.9
				s9.7-48.5-24.6-55.7C92.7,6.8,81.5,37.7,81.5,45.1C81.6,49.1,82.4,58.8,84,67.1"/>
			<path id="XMLID_4949_" class="st1" d="M108.4,37.9"/>
			<path id="XMLID_4948_" class="st1" d="M108.4,37.9c0.6,13.7-0.2,29.7-1.8,35.7c0,0-6.5,11.6-16.5,6.2s-10.8-61.3-4.6-63.9
				s18.2-8,21.1,4.9"/>
		</g>
	</g>
	<g id="XMLID_4921_">
		<path id="XMLID_4945_" class="st1" d="M127.9,67.2"/>
		<path id="XMLID_4944_" class="st1" d="M152.2,42.8c0.5-1.5,1.1-2.6,1.9-3.3c5-3.9,21.2-2.4,19,7.9c-1.3,6-1.5,12.8-1.4,17.4
			c0.1,3.2,0.1,5.9,0.1,6.8c0,2.6,1.2,8,10.1,9c11.9,1.4,13.4-2.4,13.4-10.9S205,21.2,170.7,14c-13.6-2.8-23.5,0.3-30.6,5.6"/>
		<path id="XMLID_4943_" class="st1" d="M152.2,37.9"/>
	</g>
	<g id="XMLID_4916_">
		<path id="XMLID_4920_" class="st1" d="M144,23.2c-3.9-4.3-9.4-7.6-17.2-9.2"/>
		<path id="XMLID_4919_" class="st1" d="M144,23.2"/>
		<path id="XMLID_4918_" class="st1" d="M108.3,37.9"/>
		<path id="XMLID_4917_" class="st1" d="M108.3,37.9c0.6,13.7-0.2,29.7-1.8,35.7c0,0-6.5,11.6-16.5,6.2s-10.8-61.3-4.6-63.9
			c6.2-2.6,18.2-8,21.1,4.9"/>
	</g>
</g>
<g id="XMLID_4912_">
	<path id="XMLID_4914_" class="st1" d="M258.1,67.3c0,0-3.1,14.1,9.8,14.1c13,0,28.2-52.2,24.7-58.2
		C289.1,17.2,284.6-12.5,258.1,67.3z"/>
	<path id="XMLID_4913_" class="st1" d="M276,67.4c0,0,3.1,14.1-9.8,14.1c-13,0-28.2-52.2-24.7-58.2c3.2-5.4,7.2-30.5,27.8,25"/>
</g>
<path id="XMLID_4969_" class="st1" d="M592.1,18.4c-35.1,11.2-16.7,53.5-16.7,53.5s22.5,26.5,51.3,5.4
	C655.5,56.1,627.3,7.2,592.1,18.4z M597,62.6c-19.2-2.6,7.8-38.5,16.5-15.6C622.3,69.8,597,62.6,597,62.6z"/>
<g id="XMLID_4966_">
	<path id="XMLID_4968_" class="st1" d="M687.7,24.7c0,0-37.3-25.6-53.4,19.7s23.1,52.4,22.2,24.8s8.5-29.8,19.4-25.6
		S702,43.3,687.7,24.7z"/>
	<path id="XMLID_4967_" class="st1" d="M656,27.3c0,0-2.5-17-17.7-8c-15.2,8.9,0.8,23.7,0.8,23.7"/>
</g>
<path id="XMLID_4965_" class="st1" d="M432.7,36c0,0-1.4-24.1-17.6-16.9c-16.3,7.1-7.1,75.2,34.2,65.4S474,21.2,474,21.2
	s-17.2-15.3-20.2,11.1c0,0-0.9,17.7-9,19.1S431.9,40.4,432.7,36z"/>
<g id="XMLID_4961_">
	<path id="XMLID_4964_" class="st1" d="M575.1,40.5c0,0,11.9-0.6,10.6-10.6c-1-7.9-34.3-22.3-47.9-5.1c-3.6,4.5-5.8,11.1-5.7,20.6
		v0.1c1,3.2,2.7,6,4.9,8.2c0.8,0.9,1.7,1.7,2.5,2.3c6.1,4.7,14.7,6.7,22.3,6.9c-1.1,4.3-6.2,6.7-22.5-1.3c0,0-11.9,0.6-10.6,10.6
		c1,7.9,34.3,22.3,47.9,5.1c3.5-4.5,5.7-11.2,5.7-20.6l0,0c-1-3.3-2.7-6-4.9-8.3c-0.8-0.9-1.7-1.7-2.5-2.2
		c-6.1-4.7-14.7-6.7-22.2-6.9C553.7,34.9,558.8,32.5,575.1,40.5z"/>
	<path id="XMLID_4963_" class="st1" d="M560,52.7c0,0,11.4,24.6-20.7,8.9c0,0-11.9,0.6-10.6,10.6c1.3,10,54,30.3,53.6-15.6"/>
	<path id="XMLID_4962_" class="st1" d="M554.4,49.4c0,0-11.4-24.6,20.7-8.9c0,0,11.9-0.6,10.6-10.6s-54-30.3-53.6,15.6"/>
</g>
<g id="XMLID_4973_">
	<path id="XMLID_4975_" class="st1" d="M535.5,24.7c0,0-37.3-25.6-53.4,19.7s23.1,52.4,22.2,24.8s8.5-29.8,19.4-25.6
		S549.8,43.3,535.5,24.7z"/>
	<path id="XMLID_4974_" class="st1" d="M503.8,27.3c0,0-2.5-17-17.7-8c-15.2,8.9,0.8,23.7,0.8,23.7"/>
</g>
<path id="XMLID_4979_" class="st1" d="M238.4,144.5c-35.1,11.2-16.7,53.5-16.7,53.5s22.5,26.5,51.3,5.4
	C301.8,182.2,273.6,133.3,238.4,144.5z M243.3,188.8c-19.2-2.6,7.8-38.5,16.5-15.6C268.6,196,243.3,188.8,243.3,188.8z"/>
<g id="XMLID_4976_">
	<path id="XMLID_4978_" class="st1" d="M206.1,114.3c0,0-22.8-21.8-23.4,19.2s-8.2,78.3,35.7,78.1c0,0,23.9-10,0-20.5
		c-11.7-5.1-14-15.8-13.8-29.2"/>
	<path id="XMLID_4977_" class="st1" d="M200.7,161.1c0,0,17,4.7,14.9-13.3s-22.6-9.1-22.6-9.1"/>
</g>
<g id="XMLID_5157_">
	<path id="XMLID_5159_" class="st1" d="M404.6,155c0,0-6.1-4.3-8.7-0.9c-2.6,3.3-7.1,9-1.8,20.1c5.4,11.1,25.4,1.9,27.4-3.3"/>
	<path id="XMLID_5158_" class="st1" d="M427.1,164.5L427.1,164.5c-3.7-9.9-11.8-17.6-24.2-18.9c-24.7-2.5-34.9,13.5-38.8,23.3
		c0,0-0.9,1.5-1.5,4.3c-0.5,1.7-0.6,3.1-0.5,3.8c-0.4,5.3,0.5,13.3,5.5,23.7c4.1,8.6,14.4,11.6,21.3,12.7c1.9,0.4,4,0.6,6.3,0.6
		c0.1,0,0.2,0,0.2,0l0,0c2.4,0,4.9-0.3,7.7-1c10.8-2.5,18.3-9.4,22.5-17.9c-0.7-9.9-9.1-11-14.2-11.8c-2.8-0.4-5.6,1.3-7.8,3.1
		c-0.2,0.2-0.4,0.4-0.7,0.6c-7.3,5.4-26.5-5.2-16.4-13.1c0,0,3.4-3.6,7.4-5.3l0,0c0,0,3.3-1.7,6-0.7c1.1,0.4,2,1.2,2.6,2.6
		c0,0.1,0.1,0.2,0.1,0.2c0.3,0.7,0.7,1.4,1.2,2.2c3.3,5.4,10.7,12.5,17.6,7.6c7.9-5.7,7-7.9,7.3-10.1l0,0
		C429.1,168.1,427.1,164.5,427.1,164.5z"/>
</g>
<g id="XMLID_5150_">
	<path id="XMLID_5156_" class="st1" d="M456.8,159.6"/>
	<path id="XMLID_5153_" class="st1" d="M474.8,155.8c-28.8-21.1-51.3,5.4-51.3,5.4s-18.4,42.3,16.7,53.5S503.6,177,474.8,155.8z
		 M461.6,186c-8.8,22.8-35.8-13-16.5-15.6C445.1,170.4,470.4,163.2,461.6,186z"/>
	<path id="XMLID_5152_" class="st1" d="M463.7,152.6"/>
	<path id="XMLID_5151_" class="st1" d="M463.7,151.2c0,0,22.8-21.8,23.4,19.2s8.2,78.3-35.7,78.1c0,0-23.9-10,0-20.5
		c11.7-5.1,14-15.8,13.8-29.2"/>
</g>
<g id="XMLID_5147_">
	<path id="XMLID_5149_" class="st1" d="M363,149.6c25.3,24.3,3.4,50.5,3.4,50.5c-3.5,5.3-35.2,16.2-42.3,5.9l0,0
		c-7.1-10.3,0.4-16.2,4.7-19.8c3.4-2.7,9.5-1.2,12.1-0.4c0.7,0.2,1.2,0.4,1.2,0.4c5.2,1.6,10.4,0.4,10.2-6.1c0,0,0.5-4.9-0.8-9l0,0
		c0,0-0.9-3.6-3.3-5c-1-0.6-2.2-0.8-3.7-0.3c-0.1,0-0.2,0-0.2,0.1c-0.7,0.2-1.5,0.4-2.4,0.5c-6.2,0.9-16.3-0.1-17-8.4
		c-0.8-9.7,1.5-10.4,2.9-12l0,0c1.5-1.7,5.5-2.5,5.5-2.5l0,0C343,139.9,354.1,141,363,149.6z"/>
	<path id="XMLID_5148_" class="st1" d="M338.4,161c-0.2,10.2-0.8,22.3-1.8,36.6c0,0-3.6,20.6-20.9,13.4s-8.8-85.4-0.8-91.4
		c6.5-4.9,22.5-30.4,23.6,25.3"/>
</g>
<g id="XMLID_5143_">
	<g id="XMLID_5145_">
		<path id="XMLID_5146_" class="st1" d="M508.1,168.3c0,0,4.7-24.4-16-17.5c-20.7,6.9-8.2,60.5,2.7,58.2
			C505.8,206.7,510.9,198.1,508.1,168.3z"/>
	</g>
	<path id="XMLID_5144_" class="st1" d="M496.9,117.5c0,0,23.3,13.3,0.4,23.1C474.3,150.5,481.3,105.3,496.9,117.5z"/>
</g>
<g id="XMLID_4982_">
	<path id="XMLID_4984_" class="st1" d="M525.7,155.3c0,0-2.8-13.7-16.3-8.9c-13.5,4.8-6.8,56.9-0.6,61
		C515,211.4,532.5,236.2,525.7,155.3z"/>
	<path id="XMLID_4983_" class="st1" d="M522.6,180.3c0,0,23.6-23.3,18.8,20.2c0,0,5.6,13.5,16.6,7.9s12.7-74.8-40.2-55.4"/>
</g>
<path id="XMLID_4972_" class="st1" d="M384.6,80.2c-28.2-19.9-10.8-48.6-10.8-48.6c2.6-5.6,31.8-21,40.3-12.1l0,0
	c8.5,8.9,2.1,15.9-1.6,19.9c-2.9,3.2-9,2.6-11.7,2.2c-0.8-0.1-1.2-0.2-1.2-0.2c-5.3-0.8-10.2,1.1-9,7.4c0,0,0.2,4.9,2.1,8.7l0,0
	c0,0,1.4,3.4,4,4.4c1,0.4,2.2,0.4,3.6-0.2c0.1,0,0.2-0.1,0.2-0.1c0.6-0.3,1.4-0.6,2.3-0.9c5.9-1.8,15.9-2.4,17.8,5.7
	c2.2,9.3,0.1,10.3-1,12.2l0,0c-1.2,1.9-4.9,3.3-4.9,3.3l0,0C405.5,86.6,394.5,87.2,384.6,80.2z"/>
<g>
	<path class="st1" d="M624,193.3c-8.4-3.4-11.7-9.5-12.7-17.3l-0.3-9.6l0.3-9.6c1-7.8,4.3-13.9,12.7-17.3c22.6-9.1,0-17.7,0-17.7
		c-6.4,0-11.7,0.7-16,2.1c-12,3.9-16.5,13-18,25c-0.7,5.3-0.7,11.3-0.6,17.5c-0.1,6.3-0.1,12.2,0.6,17.5c1.5,12,6,21.1,18,25
		c4.3,1.4,9.6,2.2,16,2.1C624,211,646.7,202.4,624,193.3z"/>
	<path class="st1" d="M768,148.8c-1.4-12-5.5-21.1-16.5-25c-3.9-1.4-8.7-2.2-14.6-2.1c0,0-20.7,8.6,0,17.7
		c5.7,2.5,8.8,6.5,10.4,11.7c0.5,6.5,1,12.5,1.3,15.3c-0.3,2.8-0.8,8.8-1.3,15.3c-1.6,5.1-4.7,9.1-10.4,11.7
		c-20.7,9.1,0,17.7,0,17.7c5.9,0,10.7-0.7,14.6-2.1c10.9-3.9,15.1-13,16.5-25c0.6-5.3,0.7-11.3,0.5-17.5
		C768.6,160.1,768.6,154.2,768,148.8z"/>
</g>
<path id="XMLID_82_" class="st2" d="M206.1,4.5C171,15.7,189.4,58,189.4,58s22.5,26.5,51.3,5.4C269.5,42.2,241.2-6.7,206.1,4.5z
	 M211,48.7c-19.2-2.6,7.8-38.5,16.5-15.6C236.3,56,211,48.7,211,48.7z"/>
<g id="XMLID_79_">
	<path id="XMLID_81_" class="st2" d="M324.8,12.4c0,0-6.1-4.3-8.7-0.9c-2.6,3.3-7.1,9-1.8,20.1c5.3,11.1,25.4,1.9,27.4-3.3"/>
	<path id="XMLID_80_" class="st2" d="M347.2,21.9L347.2,21.9C343.5,12,335.4,4.3,323,3c-24.7-2.5-34.9,13.5-38.8,23.3
		c0,0-0.9,1.5-1.5,4.3c-0.5,1.7-0.6,3.1-0.5,3.8c-0.4,5.3,0.5,13.3,5.5,23.7c4.1,8.6,14.4,11.6,21.3,12.7c1.9,0.4,4,0.6,6.3,0.6
		c0.1,0,0.2,0,0.2,0l0,0c2.4,0,4.9-0.3,7.7-1c10.8-2.5,18.3-9.4,22.5-17.9c-0.7-9.9-9.1-11-14.2-11.8c-2.8-0.4-5.6,1.3-7.8,3.1
		c-0.2,0.2-0.4,0.4-0.7,0.6c-7.3,5.4-26.5-5.2-16.4-13.1c0,0,3.4-3.6,7.4-5.3l0,0c0,0,3.3-1.7,6-0.7c1.1,0.4,2,1.2,2.6,2.6
		c0,0.1,0.1,0.2,0.1,0.2c0.3,0.7,0.7,1.4,1.2,2.2c3.3,5.4,10.7,12.5,17.6,7.6c7.9-5.7,7-7.9,7.3-10.1l0,0
		C349.2,25.6,347.2,21.9,347.2,21.9z"/>
</g>
<g id="XMLID_60_">
	<g id="XMLID_70_">
		<g id="XMLID_75_">
			<path id="XMLID_78_" class="st2" d="M127.9,57.2"/>
			<path id="XMLID_77_" class="st2" d="M151,55.8c-0.1-9.9-0.7-23.3,3.1-26.3c5-3.9,21.2-2.4,19,7.9c-1.3,6-1.5,12.8-1.4,17.4
				c0.1,3.2,0.1,5.9,0.1,6.8c0,2.6,1.2,8,10.1,9c11.9,1.4,13.4-2.4,13.4-10.9S205,11.2,170.7,4c-24-5-36.7,8.7-42.1,19.9"/>
			<path id="XMLID_76_" class="st2" d="M152.2,27.9"/>
		</g>
		<g id="XMLID_71_">
			<path id="XMLID_74_" class="st2" d="M84,57.1c1.4,7,23.1,1.7,23.1-1.4c-0.1-9.9-0.7-23.3,3.1-26.3c4.1-3.2,15.7-2.8,18.6,3.1
				c0.6,1.3,0.9,2.9,0.5,4.8c-1.3,6-1.5,12.8-1.4,17.4c0.1,3.2,0.1,5.9,0.1,6.8c0,2.6,1.2,8,10.1,9c11.9,1.4,13.4-2.4,13.4-10.9
				s9.7-48.5-24.6-55.7C92.7-3.2,81.5,27.7,81.5,35.1C81.6,39.1,82.4,48.8,84,57.1"/>
			<path id="XMLID_73_" class="st2" d="M108.4,27.9"/>
			<path id="XMLID_72_" class="st2" d="M108.4,27.9c0.6,13.7-0.2,29.7-1.8,35.7c0,0-6.5,11.6-16.5,6.2S79.3,8.5,85.5,5.9
				s18.2-8,21.1,4.9"/>
		</g>
	</g>
	<g id="XMLID_66_">
		<path id="XMLID_69_" class="st2" d="M127.9,57.2"/>
		<path id="XMLID_68_" class="st2" d="M152.2,32.8c0.5-1.5,1.1-2.6,1.9-3.3c5-3.9,21.2-2.4,19,7.9c-1.3,6-1.5,12.8-1.4,17.4
			c0.1,3.2,0.1,5.9,0.1,6.8c0,2.6,1.2,8,10.1,9c11.9,1.4,13.4-2.4,13.4-10.9S205,11.2,170.7,4c-13.6-2.8-23.5,0.3-30.6,5.6"/>
		<path id="XMLID_67_" class="st2" d="M152.2,27.9"/>
	</g>
	<g id="XMLID_61_">
		<path id="XMLID_65_" class="st2" d="M144,13.2c-3.9-4.3-9.4-7.6-17.2-9.2"/>
		<path id="XMLID_64_" class="st2" d="M144,13.2"/>
		<path id="XMLID_63_" class="st2" d="M108.3,27.9"/>
		<path id="XMLID_62_" class="st2" d="M108.3,27.9c0.6,13.7-0.2,29.7-1.8,35.7c0,0-6.5,11.6-16.5,6.2S79.2,8.5,85.4,5.9
			c6.2-2.6,18.2-8,21.1,4.9"/>
	</g>
</g>
<g id="XMLID_57_">
	<path id="XMLID_59_" class="st2" d="M258.1,57.3c0,0-3.1,14.1,9.8,14.1c13,0,28.2-52.2,24.7-58.2C289.1,7.2,284.6-22.5,258.1,57.3z
		"/>
	<path id="XMLID_58_" class="st2" d="M276,57.4c0,0,3.1,14.1-9.8,14.1c-13,0-28.2-52.2-24.7-58.2c3.2-5.4,7.2-30.5,27.8,25"/>
</g>
<path id="XMLID_56_" class="st2" d="M592.1,8.4c-35.1,11.2-16.7,53.5-16.7,53.5s22.5,26.5,51.3,5.4C655.5,46.1,627.3-2.8,592.1,8.4z
	 M597,52.6c-19.2-2.6,7.8-38.5,16.5-15.6C622.3,59.8,597,52.6,597,52.6z"/>
<g id="XMLID_53_">
	<path id="XMLID_55_" class="st2" d="M687.7,14.7c0,0-37.3-25.6-53.4,19.7s23.1,52.4,22.2,24.8s8.5-29.8,19.4-25.6
		S702,33.3,687.7,14.7z"/>
	<path id="XMLID_54_" class="st2" d="M656,17.3c0,0-2.5-17-17.7-8c-15.2,8.9,0.8,23.7,0.8,23.7"/>
</g>
<path id="XMLID_52_" class="st2" d="M432.7,26c0,0-1.4-24.1-17.6-16.9c-16.3,7.1-7.1,75.2,34.2,65.4S474,11.2,474,11.2
	s-17.2-15.3-20.2,11.1c0,0-0.9,17.7-9,19.1S431.9,30.4,432.7,26z"/>
<g id="XMLID_48_">
	<path id="XMLID_51_" class="st2" d="M575.1,30.5c0,0,11.9-0.6,10.6-10.6c-1-7.9-34.3-22.3-47.9-5.1c-3.6,4.5-5.8,11.1-5.7,20.6v0.1
		c1,3.2,2.7,6,4.9,8.2c0.8,0.9,1.7,1.7,2.5,2.3c6.1,4.7,14.7,6.7,22.3,6.9c-1.1,4.3-6.2,6.7-22.5-1.3c0,0-11.9,0.6-10.6,10.6
		c1,7.9,34.3,22.3,47.9,5.1c3.5-4.5,5.7-11.2,5.7-20.6l0,0c-1-3.3-2.7-6-4.9-8.3c-0.8-0.9-1.7-1.7-2.5-2.2
		c-6.1-4.7-14.7-6.7-22.2-6.9C553.7,24.9,558.8,22.5,575.1,30.5z"/>
	<path id="XMLID_50_" class="st2" d="M560,42.7c0,0,11.4,24.6-20.7,8.9c0,0-11.9,0.6-10.6,10.6c1.3,10,54,30.3,53.6-15.6"/>
	<path id="XMLID_49_" class="st2" d="M554.4,39.4c0,0-11.4-24.6,20.7-8.9c0,0,11.9-0.6,10.6-10.6s-54-30.3-53.6,15.6"/>
</g>
<g id="XMLID_45_">
	<path id="XMLID_47_" class="st2" d="M535.5,14.7c0,0-37.3-25.6-53.4,19.7s23.1,52.4,22.2,24.8s8.5-29.8,19.4-25.6
		S549.8,33.3,535.5,14.7z"/>
	<path id="XMLID_46_" class="st2" d="M503.8,17.3c0,0-2.5-17-17.7-8c-15.2,8.9,0.8,23.7,0.8,23.7"/>
</g>
<path id="XMLID_44_" class="st2" d="M238.4,134.5c-35.1,11.2-16.7,53.5-16.7,53.5s22.5,26.5,51.3,5.4
	C301.8,172.2,273.6,123.3,238.4,134.5z M243.3,178.8c-19.2-2.6,7.8-38.5,16.5-15.6C268.6,186,243.3,178.8,243.3,178.8z"/>
<g id="XMLID_41_">
	<path id="XMLID_43_" class="st2" d="M206.1,104.3c0,0-22.8-21.8-23.4,19.2s-8.2,78.3,35.7,78.1c0,0,23.9-10,0-20.5
		c-11.7-5.1-14-15.8-13.8-29.2"/>
	<path id="XMLID_42_" class="st2" d="M200.7,151.1c0,0,17,4.7,14.9-13.3s-22.6-9.1-22.6-9.1"/>
</g>
<g id="XMLID_38_">
	<path id="XMLID_40_" class="st2" d="M404.6,145c0,0-6.1-4.3-8.7-0.9c-2.6,3.3-7.1,9-1.8,20.1c5.4,11.1,25.4,1.9,27.4-3.3"/>
	<path id="XMLID_39_" class="st2" d="M427.1,154.5L427.1,154.5c-3.7-9.9-11.8-17.6-24.2-18.9c-24.7-2.5-34.9,13.5-38.8,23.3
		c0,0-0.9,1.5-1.5,4.3c-0.5,1.7-0.6,3.1-0.5,3.8c-0.4,5.3,0.5,13.3,5.5,23.7c4.1,8.6,14.4,11.6,21.3,12.7c1.9,0.4,4,0.6,6.3,0.6
		c0.1,0,0.2,0,0.2,0l0,0c2.4,0,4.9-0.3,7.7-1c10.8-2.5,18.3-9.4,22.5-17.9c-0.7-9.9-9.1-11-14.2-11.8c-2.8-0.4-5.6,1.3-7.8,3.1
		c-0.2,0.2-0.4,0.4-0.7,0.6c-7.3,5.4-26.5-5.2-16.4-13.1c0,0,3.4-3.6,7.4-5.3l0,0c0,0,3.3-1.7,6-0.7c1.1,0.4,2,1.2,2.6,2.6
		c0,0.1,0.1,0.2,0.1,0.2c0.3,0.7,0.7,1.4,1.2,2.2c3.3,5.4,10.7,12.5,17.6,7.6c7.9-5.7,7-7.9,7.3-10.1l0,0
		C429.1,158.1,427.1,154.5,427.1,154.5z"/>
</g>
<g id="XMLID_33_">
	<path id="XMLID_37_" class="st2" d="M456.8,149.6"/>
	<path id="XMLID_36_" class="st2" d="M474.8,145.8c-28.8-21.1-51.3,5.4-51.3,5.4s-18.4,42.3,16.7,53.5S503.6,167,474.8,145.8z
		 M461.6,176c-8.8,22.8-35.8-13-16.5-15.6C445.1,160.4,470.4,153.2,461.6,176z"/>
	<path id="XMLID_35_" class="st2" d="M463.7,142.6"/>
	<path id="XMLID_34_" class="st2" d="M463.7,141.2c0,0,22.8-21.8,23.4,19.2s8.2,78.3-35.7,78.1c0,0-23.9-10,0-20.5
		c11.7-5.1,14-15.8,13.8-29.2"/>
</g>
<g id="XMLID_30_">
	<path id="XMLID_32_" class="st2" d="M363,139.6c25.3,24.3,3.4,50.5,3.4,50.5c-3.5,5.3-35.2,16.2-42.3,5.9l0,0
		c-7.1-10.3,0.4-16.2,4.7-19.8c3.4-2.7,9.5-1.2,12.1-0.4c0.7,0.2,1.2,0.4,1.2,0.4c5.2,1.6,10.4,0.4,10.2-6.1c0,0,0.5-4.9-0.8-9l0,0
		c0,0-0.9-3.6-3.3-5c-1-0.6-2.2-0.8-3.7-0.3c-0.1,0-0.2,0-0.2,0.1c-0.7,0.2-1.5,0.4-2.4,0.5c-6.2,0.9-16.3-0.1-17-8.4
		c-0.8-9.7,1.5-10.4,2.9-12l0,0c1.5-1.7,5.5-2.5,5.5-2.5l0,0C343,129.9,354.1,131,363,139.6z"/>
	<path id="XMLID_31_" class="st2" d="M338.4,151c-0.2,10.2-0.8,22.3-1.8,36.6c0,0-3.6,20.6-20.9,13.4s-8.8-85.4-0.8-91.4
		c6.5-4.9,22.5-30.4,23.6,25.3"/>
</g>
<g id="XMLID_26_">
	<g id="XMLID_28_">
		<path id="XMLID_29_" class="st2" d="M508.1,158.3c0,0,4.7-24.4-16-17.5c-20.7,6.9-8.2,60.5,2.7,58.2
			C505.8,196.7,510.9,188.1,508.1,158.3z"/>
	</g>
	<path id="XMLID_27_" class="st2" d="M496.9,107.5c0,0,23.3,13.3,0.4,23.1C474.3,140.5,481.3,95.3,496.9,107.5z"/>
</g>
<g id="XMLID_23_">
	<path id="XMLID_25_" class="st2" d="M525.7,145.3c0,0-2.8-13.7-16.3-8.9c-13.5,4.8-6.8,56.9-0.6,61
		C515,201.4,532.5,226.2,525.7,145.3z"/>
	<path id="XMLID_24_" class="st2" d="M522.6,170.3c0,0,23.6-23.3,18.8,20.2c0,0,5.6,13.5,16.6,7.9s12.7-74.8-40.2-55.4"/>
</g>
<path id="XMLID_22_" class="st2" d="M384.6,70.2c-28.2-19.9-10.8-48.6-10.8-48.6c2.6-5.6,31.8-21,40.3-12.1l0,0
	c8.5,8.9,2.1,15.9-1.6,19.9c-2.9,3.2-9,2.6-11.7,2.2c-0.8-0.1-1.2-0.2-1.2-0.2c-5.3-0.8-10.2,1.1-9,7.4c0,0,0.2,4.9,2.1,8.7l0,0
	c0,0,1.4,3.4,4,4.4c1,0.4,2.2,0.4,3.6-0.2c0.1,0,0.2-0.1,0.2-0.1c0.6-0.3,1.4-0.6,2.3-0.9c5.9-1.8,15.9-2.4,17.8,5.7
	c2.2,9.3,0.1,10.3-1,12.2l0,0c-1.2,1.9-4.9,3.3-4.9,3.3l0,0C405.5,76.6,394.5,77.2,384.6,70.2z"/>
</svg>
