<?xml version="1.0" encoding="utf-8"?>
<!-- Generator: Adobe Illustrator 22.1.0, SVG Export Plug-In . SVG Version: 6.00 Build 0)  -->
<svg version="1.1" id="Layer_1" xmlns="http://www.w3.org/2000/svg" xmlns:xlink="http://www.w3.org/1999/xlink" x="0px" y="0px"
	 viewBox="0 0 485.1 377.3" style="enable-background:new 0 0 485.1 377.3;" xml:space="preserve">
<style type="text/css">
	.st0{opacity:0.1;fill:#231F20;stroke:#231F20;stroke-miterlimit:10;enable-background:new    ;}
	.st1{fill:#E6C86B;stroke:#584C4F;stroke-width:2;stroke-miterlimit:10;}
	.st2{fill:#FCDE82;stroke:#584C4F;stroke-width:2;stroke-miterlimit:10;}
	.st3{fill:none;stroke:#584C4F;stroke-width:2;stroke-miterlimit:10;}
	.st4{fill:#FCDB77;stroke:#584C4F;stroke-width:2;stroke-miterlimit:10;}
	.st5{fill:#FFD767;stroke:#584C4F;stroke-width:2;stroke-miterlimit:10;}
	.st6{fill:#FFFAF2;stroke:#584C4F;stroke-width:2;stroke-miterlimit:10;}
	.st7{fill:#FFF5D0;stroke:#584C4F;stroke-width:2;stroke-miterlimit:10;}
	.st8{fill:#FBE391;stroke:#584C4F;stroke-width:2;stroke-miterlimit:10;}
	.st9{fill:#FBE7A0;stroke:#584C4F;stroke-width:2;stroke-miterlimit:10;}
	.st10{fill:#FDEBB0;stroke:#584C4F;stroke-width:2;stroke-miterlimit:10;}
	.st11{fill:#FFF0C2;stroke:#584C4F;stroke-width:2;stroke-miterlimit:10;}
	.st12{fill:#FDF7E0;stroke:#584C4F;stroke-width:2;stroke-miterlimit:10;}
</style>
<g id="Layer_5">
</g>
<g id="Layer_3">
</g>
<g>
	<g>
		<g>
			<path class="st0" d="M379.8,21.2c0,0-19.8-17.5-27.8,4.6c-6,0.8-11.7,6.4-13.6,23.2c0,0-0.5,9.7-3.5,17.9
				c-11.5,0.9-18.3-16.8-17.1-23.2c0,0-2.1-36.2-26.6-25.4c-3.6,1.6-6.3,5.1-8.2,10c-0.9,0.3-1.8,0.6-2.8,1
				c-10.3,4.5-13.7,25.4-9.6,47c-11.1,3.7-23.2-1.5-18.4-46.9c0,0-10.3-24.4-30-14.2c-2.5,1.3-4.8,4.5-6.6,9
				c-0.9-0.8-1.9-1.5-2.9-2.3c-49.3-35.9-87.6,9.5-87.6,9.5s-0.1,0.2-0.2,0.6c-10.8-17.8-30.1-29-61.8-20.8
				C59.5,4.9,51.8-2.5,36.7,2.9c-4,1.4-7,5.2-9.2,10.4c-0.6,0.2-1.2,0.4-1.8,0.6c-24.4,8.8-12,103.1-0.7,110.4
				c3.3,2.1,8.4,7.5,13.6,10.4c-1.5,30.5,6,69.6,13.2,74.2s22.5,24.2,29.5,1c8.5,1,16-10.4,14.5-61.4c10-1.5,19.4,6.8,15.1,47.7
				c0,0,10.1,23.9,29.5,14.5c2.9,4.4,6.1,6.8,9.3,6.2c5.8-1.2,10.5-3.7,14-8.3c4.9,5.3,11.8,9.8,21.2,12.7c13.4,4.3,26.1,2.6,37-2.5
				c-0.6,9.4-2.3,17.7-6.3,24.4c-0.9,0.5-1.8,1-2.7,1.5c-9.3,4.6-13.7,9.1-15.1,13.3c-28.2,16.7,4.2,31.7,4.2,31.7
				c22,0.1,35.2-6.9,43-18.9c14.2-9.3,19.5-26.3,21.1-47.6c2.3,0.6,4.5,1,6.5,1.3c3,0.6,6.2,1,9.6,0.9c0.2,0,0.3,0,0.3,0l0,0
				c3.7-0.1,7.6-0.5,11.8-1.5c10.5-2.4,19-7.6,25.3-14.4c1.3,3.4,2.6,5.8,3.9,6.8c7,5.3,21.8,27.2,29,3
				c10.5,2.1,19.5-16.5,12.9-113.3C398.2,79.3,379.8,21.2,379.8,21.2z M196,156.6c7.2-1.4,26.4-3.4,18.8,18.7
				C206.5,175.7,197.3,165.1,196,156.6z M69,64.1c7.9-1.1,15.4,3.7,16.1,25.7c-3.6-3.1-8.8-5.2-16-3.9C69.3,79.6,69.2,72.3,69,64.1z
				 M175.8,81.5C171.2,75,163,70.2,163,70.2c-2-1.6-3.9-2.5-5.7-2.9c-0.7-1.7-1.2-3.4-1.4-5.1C163,60.8,183.7,58.2,175.8,81.5z
				 M275.4,157.8c0.7-0.4,1.4-0.9,2.1-1.2c0.6,2.4,1.5,4.9,2.9,7.7c4,8.3,13.6,9,22.4,6.5c0.7,0.6,1.4,1.2,2.1,1.7
				c-0.1,0.1-0.2,0.1-0.2,0.2C295.1,179.8,271.9,168.8,275.4,157.8z"/>
			<path class="st0" d="M285,76.9c-1.2,6.6,6,25.3,18.2,23.1c4.8-0.8,7.9-5.5,9.9-10.9C301.6,90,294.8,72.2,296,65.8
				c0,0-2.1-36.2-26.6-25.4c-3.6,1.6-6.3,5.1-8.3,10C283,43.6,285,76.9,285,76.9z"/>
			<g>
				<g id="XMLID_10821_">
					<path id="XMLID_10829_" class="st1" d="M307,54.8c0,0-2.1-36.2-26.6-25.4s-10.3,113.1,51.7,98.1s36.7-95.3,36.7-95.3
						S342.9,9.3,338.4,49c0,0-1.3,26.7-13.4,28.8C313,80,305.8,61.5,307,54.8z"/>
					<g id="XMLID_10827_">
						<path id="XMLID_10828_" class="st1" d="M275.7,77.1c0,0-42.7,42.4-34.2-36.6c0,0-10.3-24.4-30-14.2s-22.4,135.6,73.1,100
							c0,0,25.8-9.9,32.6-15"/>
					</g>
					<path id="XMLID_10826_" class="st2" d="M236.9,42.6c0,0-4,1.9-5.2,3.8"/>
					<path id="XMLID_10825_" class="st2" d="M298.9,42.4c0,0-4,1.9-5.2,3.8"/>
					<path id="XMLID_10824_" class="st2" d="M242.1,86.6c0,0-4,1.9-5.2,3.8"/>
					<path id="XMLID_10823_" class="st2" d="M310,75.4c0,0-4,1.9-5.2,3.8"/>
					<path id="XMLID_10822_" class="st2" d="M362.9,33.2c0,0-4,1.9-5.2,3.8"/>
				</g>
				<g id="XMLID_10753_">
					<path id="XMLID_10820_" class="st2" d="M296,65.8c0,0-2.1-36.2-26.6-25.4s-10.3,113.1,51.7,98.1s36.7-95.3,36.7-95.3
						S331.9,20.3,327.5,60c0,0-1.3,26.7-13.4,28.8C302,91,294.8,72.5,296,65.8z"/>
					<g id="XMLID_10818_">
						<path id="XMLID_10819_" class="st2" d="M264.8,88.1c0,0-42.7,42.4-34.2-36.6c0,0-10.3-24.4-30-14.2s-22.4,135.6,73.1,100
							c0,0,25.8-9.9,32.6-15"/>
					</g>
					<line id="XMLID_10817_" class="st3" x1="221.2" y1="133.8" x2="225.2" y2="135.5"/>
					<path id="XMLID_10816_" class="st2" d="M314.3,106.7c0,0,1.6,3.3-1,4.7"/>
					<path id="XMLID_10815_" class="st2" d="M356.9,99.7c0,0-0.7,3-1.6,4"/>
					<path id="XMLID_10814_" class="st2" d="M332.9,58.6c0,0,1.3-5.6,0-5.6"/>
					<path id="XMLID_10813_" class="st2" d="M210.3,40.6c0,0,5.2,0.7,4.7,1.6"/>
					<path id="XMLID_10807_" class="st2" d="M244.2,107.2c0,0,6.1-0.9,6.5-2"/>
					<path id="XMLID_10806_" class="st2" d="M274.9,45.5c0,0-4,1.9-5.2,3.8"/>
					<line id="XMLID_10791_" class="st3" x1="314.1" y1="92.4" x2="318.3" y2="91.3"/>
					<line id="XMLID_10790_" class="st3" x1="323.3" y1="132" x2="327.5" y2="130.9"/>
					<path class="st0" d="M285,76.9c-1.2,6.6,6,25.3,18.2,23.1c4.8-0.8,7.9-5.5,9.9-10.9C301.6,90,294.8,72.2,296,65.8
						c0,0-2.1-36.2-26.6-25.4c-3.6,1.6-6.3,5.1-8.3,10C283,43.6,285,76.9,285,76.9z"/>
				</g>
			</g>
			<path class="st0" d="M219.5,62.6c-6.8,63.9,19.9,48.3,30.2,40.1c-0.3-1.4-0.6-2.8-0.9-4.1c-11.1,3.7-23.2-1.5-18.4-46.9
				c0,0-10.3-24.4-30-14.2c-2.6,1.3-4.9,4.6-6.8,9.3C210.7,41.7,219.5,62.6,219.5,62.6z"/>
			<path class="st0" d="M357.9,43.3c0,0-19.8-17.5-27.8,4.6c8.2-1.2,16.8,6.4,16.8,6.4s14.7,46.5-5.6,75.3
				C377,104.1,357.9,43.3,357.9,43.3z"/>
			<g>
				<g id="XMLID_10643_">
					<path id="XMLID_10738_" class="st1" d="M201.9,33.2c-49.3-35.9-87.6,9.5-87.6,9.5S83,115.1,143.1,134
						C203.2,152.9,251.2,69.1,201.9,33.2z M175.2,83.1c-11.3,29.7-46.6-16.7-21.6-20.2C153.6,62.8,186.5,53.3,175.2,83.1z"/>
					<path id="XMLID_10658_" class="st2" d="M193.9,33.8c0,0-4,1.9-5.2,3.8"/>
					<path id="XMLID_10657_" class="st2" d="M173.9,24.9c0,0-4,1.9-5.2,3.8"/>
				</g>
			</g>
			<g id="XMLID_10269_">
				<path id="XMLID_10642_" class="st4" d="M160.1,51.4"/>
				<path id="XMLID_10614_" class="st4" d="M190.9,44.2c-49.3-35.9-87.6,9.5-87.6,9.5S72,126.1,132.2,145
					C192.2,163.9,240.3,80.1,190.9,44.2z M164.2,94.1c-11.3,29.7-46.6-16.7-21.6-20.2C142.6,73.9,175.5,64.4,164.2,94.1z"/>
				<path id="XMLID_10613_" class="st4" d="M171.6,39.7"/>
				<line id="XMLID_10612_" class="st3" x1="115.7" y1="130.5" x2="119.7" y2="132.3"/>
				<path id="XMLID_10611_" class="st4" d="M176.1,134c0,0-0.7,3.6-3.6,3.2"/>
				<path id="XMLID_10610_" class="st4" d="M168.7,94.7c0,0-0.7,3-1.6,4"/>
				<path id="XMLID_10274_" class="st4" d="M204.8,92.3c0,0,1.3-5.6,0-5.6"/>
				<path id="XMLID_10273_" class="st4" d="M168.7,38.9c0,0,5.2,0.7,4.7,1.6"/>
				<path id="XMLID_10272_" class="st4" d="M135.1,103.6c0,0,5.1,3.5,6.1,2.9"/>
				<path id="XMLID_10271_" class="st4" d="M112.3,54.7c0,0-4,1.9-5.2,3.8"/>
				<line id="XMLID_10270_" class="st3" x1="136" y1="70.2" x2="140.2" y2="69.1"/>
				<path class="st0" d="M190.9,44.2c-49.3-35.9-87.6,9.5-87.6,9.5s-0.3,0.6-0.7,1.6c14.6-11.1,43.3-25,77.3-0.2
					c27.8,20.2,24.7,55.6,6,79.4C213.7,112.4,223.4,67.9,190.9,44.2z"/>
			</g>
			<g>
				<g id="XMLID_10262_">
					<path id="XMLID_10268_" class="st1" d="M55.3,30c0,0-5.2-24.9-29.6-16s-12,103.1-0.7,110.4C36.2,131.6,68,176.5,55.3,30z"/>
					<path id="XMLID_10267_" class="st1" d="M49.8,75.3c0,0,42.7-42.4,34.2,36.6c0,0,10.3,24.4,30,14.2S136.6-9.5,41,25.9"/>
					<path id="XMLID_10266_" class="st2" d="M100.9,34.1c0,0-4,1.9-5.2,3.8"/>
					<path id="XMLID_10265_" class="st2" d="M38.8,16.3c0,0-4,1.9-5.2,3.8"/>
					<path id="XMLID_10264_" class="st2" d="M52.5,115.9c-1,0.7-2,1.5-2.5,2.3"/>
					<path id="XMLID_10263_" class="st2" d="M121.1,92.1c0,0-1.3,0.6-2.7,1.5"/>
				</g>
				<g id="XMLID_6178_">
					<path id="XMLID_10261_" class="st5" d="M44.3,41c0,0-5.2-24.9-29.6-16S2.7,128.2,14,135.4S57,187.6,44.3,41z"/>
					<path id="XMLID_10260_" class="st5" d="M38.9,86.3c0,0,42.7-42.4,34.2,36.6c0,0,10.3,24.4,30,14.2C122.9,126.9,125.7,1.5,30,37
						"/>
					<line id="XMLID_10259_" class="st3" x1="25.3" y1="134.5" x2="29.3" y2="136.2"/>
					<path id="XMLID_10258_" class="st5" d="M98.4,123.6c0,0,1.6,3.3-1,4.7"/>
					<path id="XMLID_10257_" class="st5" d="M107.8,83c0,0-0.7,3-1.6,4"/>
					<path id="XMLID_10256_" class="st5" d="M39.9,108.4c0,0,1.3-5.6,0-5.6"/>
					<path id="XMLID_10255_" class="st5" d="M69.8,69.9c0,0,5.2,0.7,4.7,1.6"/>
					<path id="XMLID_10254_" class="st5" d="M19,96.4c0,0,6.1-0.9,6.5-2"/>
					<path id="XMLID_6180_" class="st5" d="M49.7,38.2c0,0-4,1.9-5.2,3.8"/>
					<line id="XMLID_6179_" class="st3" x1="13" y1="44.8" x2="17.3" y2="43.7"/>
					<path class="st0" d="M41.3,33.4c-3.7-6.5-11.4-13.9-26.5-8.4c-4,1.4-7,5.2-9.2,10.4c13.9-4.2,21.2,2.8,24.7,9
						c72.7-19,80.2,64.8,68.7,94.3c1.4-0.4,2.8-0.9,4.3-1.7C122.2,127.2,125.4,11.5,41.3,33.4z"/>
				</g>
			</g>
			<path class="st0" d="M359.8,100c0,0-5.2-29-29.6-18.7c-3.5,1.5-6.3,5-8.4,10c-0.8,0.3-1.7,0.6-2.6,1c-0.4,0.2-0.8,0.4-1.2,0.6
				c-0.1,0.1-0.2,0.2-0.3,0.2c-0.3,0.2-0.5,0.4-0.8,0.6c-0.1,0.1-0.2,0.2-0.4,0.3c-0.3,0.2-0.5,0.4-0.7,0.7
				c-0.1,0.1-0.2,0.2-0.3,0.3c-0.3,0.3-0.5,0.5-0.7,0.8c-0.1,0.1-0.2,0.2-0.3,0.3c-0.3,0.3-0.5,0.7-0.8,1.1c0,0.1-0.1,0.1-0.1,0.2
				c-1,1.4-1.8,3.1-2.6,4.9l0,0l0,0c-1.5,3.6-2.7,8-3.6,12.9c-2.4-0.6-5-1.1-7.6-1.4c-19.7-1.9-33.5,3.8-42.9,11.9
				c-6.6-20.4-20.3-12.7-27.2-7.3c-26-11.4-47.2,1.1-57.5,9.5c-3.3-4.8-9.5-7.4-20.9-3.5c-0.8,0.3-1.5,0.6-2.3,0.9
				c-0.8-1.5-1.6-3-2.5-4.5c0.4-0.2,0.9-0.3,1.3-0.5c7-3,11.1-6.2,13.2-9.5C180.4,97,152.4,81,152.4,81c-7.3-5.7-13.3-2.9-17,3.1
				c-5.1,2.8-8.4,10.4-9,18.1c-10.5-4.9-23.9-6-41-1.7c-3.7-6.5-11.4-13.9-26.5-8.4c-4,1.4-7,5.2-9.2,10.4c-0.6,0.2-1.2,0.4-1.8,0.6
				c-24.8,9.1-12.4,103.4-1.1,110.7c7.1,4.6,22.5,24.2,29.5,1c8.5,1,16-10.4,14.5-61.4c10-1.5,19.4,6.8,15.1,47.7
				c0,0,10.1,23.9,29.5,14.5c2.9,4.4,6.1,6.8,9.3,6.2c5.8-1.2,10.5-3.7,14-8.3c4.9,5.3,11.8,9.8,21.2,12.7c13.4,4.3,26.1,2.6,37-2.5
				c-0.6,9.4-2.3,17.7-6.3,24.4c-0.9,0.5-1.8,1-2.7,1.5c-9.3,4.6-13.7,9.1-15.1,13.3c-28.2,16.7,4.2,31.7,4.2,31.7
				c19.9,0,32.6-5.7,40.6-15.6l0,0c0.9-1,1.7-2.1,2.4-3.3c14.2-9.3,19.5-26.3,21.1-47.6c2.3,0.6,4.5,1,6.5,1.3c3,0.6,6.2,1,9.6,0.9
				c0.2,0,0.3,0,0.3,0l0,0c3.7-0.1,7.6-0.5,11.8-1.5c10.5-2.4,19-7.6,25.3-14.4c1.3,3.4,2.6,5.8,3.9,6.8c4.4,3.3,11.8,13.2,18.5,14
				l0,0c0.5,0.1,1,0.1,1.5,0l0,0c0.2,0,0.3,0,0.5-0.1l0,0c0.5-0.1,1-0.2,1.4-0.4l0,0c0.1-0.1,0.3-0.1,0.4-0.2c0,0,0,0,0.1,0
				c0.5-0.2,0.9-0.6,1.4-0.9l0,0c0.1-0.1,0.3-0.2,0.4-0.4c0,0,0,0,0.1-0.1c0.1-0.1,0.3-0.3,0.4-0.4l0,0c0.3-0.3,0.6-0.7,0.8-1.1
				c0,0,0-0.1,0.1-0.1c0.1-0.2,0.2-0.3,0.3-0.5l0.1-0.1c0.1-0.2,0.2-0.4,0.3-0.6c0,0,0-0.1,0.1-0.1c0.3-0.5,0.5-1,0.8-1.5
				c0,0,0-0.1,0.1-0.1c0.1-0.2,0.2-0.4,0.3-0.7c0-0.1,0.1-0.1,0.1-0.2c0.1-0.2,0.2-0.5,0.3-0.7c0-0.1,0-0.1,0.1-0.2
				c0.2-0.6,0.5-1.3,0.7-2c0-0.1,0-0.1,0.1-0.2c0.1-0.2,0.1-0.4,0.2-0.6C358.5,226.4,367.8,206.4,359.8,100z M270.4,162.8
				c1.4-0.9,2.9-1.8,4.5-2.4l0,0c0,0,5.1-2.6,9.3-1.1c1.6,0.6,3.1,1.8,4.1,4c0,0.1,0.1,0.2,0.2,0.4c0.5,1,1.1,2.2,1.8,3.3
				c2.2,3.6,5.7,7.7,9.7,10.6c-0.1,0.1-0.2,0.1-0.2,0.2C290.1,184.9,266.9,173.8,270.4,162.8z M191,161.6
				c7.2-1.4,26.4-3.4,18.8,18.7C201.5,180.7,192.3,170.1,191,161.6z"/>
			<g>
				<g id="XMLID_6176_">
					<path id="XMLID_6177_" class="st1" d="M169,156.5c0,0,6.9-36.2-23.8-25.9s-11.8,89.7,4.4,86.3
						C165.8,213.5,173.2,200.8,169,156.5z"/>
				</g>
			</g>
			<path id="XMLID_6175_" class="st1" d="M295.8,135.7c0,0-9-6.3-12.9-1.4c-3.9,5-10.6,13.4-2.5,29.8c8,16.5,37.7,2.8,40.6-4.9"/>
			<path id="XMLID_6172_" class="st6" d="M316.4,265.5c-1.2-9.1-3.3-12.8-6.2-14.4c0,0-14.6-5.3-18.6,8.5c-4,13.8,8.4,16.5,10,16.4
				C303.3,275.8,317.6,274.6,316.4,265.5z M307,264.6c-0.4,0.8-1.3,1.4-3.7,2c-2.4,0.5-3.1-3.3-3.1-3.7c-0.1-0.4,0.4-3.8,4.2-3
				C308.1,260.6,307,264.6,307,264.6z"/>
			<g>
				<g id="XMLID_6160_">
					<path id="XMLID_6163_" class="st6" d="M338.7,269.6"/>
					<path id="XMLID_6162_" class="st6" d="M347.2,269.1c0-3.6-0.3-8.6,1.1-9.7c1.8-1.5,7.9-0.9,7,2.9c-0.5,2.2-0.5,4.7-0.5,6.4
						c0,1.2,0.1,2.2,0.1,2.5c0,1,0.4,3,3.7,3.3c4.4,0.5,5-0.9,5-4c0-3.1,3.5-18-9.2-20.6c-8.9-1.8-13.6,3.2-15.6,7.4"/>
					<path id="XMLID_6161_" class="st6" d="M347.6,258.8"/>
				</g>
				<g id="XMLID_6155_">
					<path id="XMLID_6159_" class="st6" d="M345.9,255.2c-1.4-2.4-3.8-4.4-7.7-5.2c-12.7-2.6-16.8,8.9-16.8,11.6
						c0,1.5,0.3,5.1,0.9,8.1"/>
					<path id="XMLID_6158_" class="st6" d="M322.4,269.6c0.5,2.6,8.5,0.6,8.5-0.5c0-3.6-0.3-8.6,1.1-9.7c1.5-1.2,5.8-1,6.9,1.1
						c0.2,0.5,0.3,1.1,0.2,1.8c-0.5,2.2-0.5,4.7-0.5,6.4c0,1.2,0.1,2.2,0.1,2.5c0,1,0.4,3,3.7,3.3c4.4,0.5,5-0.9,5-4
						c0-1.6,0.9-6.1,0.2-10.6"/>
					<path id="XMLID_6157_" class="st6" d="M331.4,258.8"/>
					<path id="XMLID_6156_" class="st6" d="M331.4,258.8c0.2,5.1-0.1,11-0.7,13.2c0,0-2.4,4.3-6.1,2.3c-3.7-2-4.1-22.7-1.8-23.6
						c2.3-0.9,6.7-3,7.8,1.8"/>
				</g>
			</g>
			<path id="XMLID_6154_" class="st6" d="M282.1,264.4c-0.6,0.2-1.2,1-1.8,1.7c-0.2,0.2-0.3,0.4-0.5,0.6c-0.1,0.2-0.6,0.6-0.7,0.6
				c-1.9,0.9-5.5,1.9-7-1.9c-0.1-0.3-0.3-1.4-0.3-1.7c0-0.5,0-1.1,0.1-1.5c0.4-4,1.7-5.8,3-6c1.5-0.2,4.4,0.9,5.2,2.8
				c0,0,0.8,3.6,2.8,3.1c2-0.5,5.8-2.6,2.8-6.5c-3-3.9-6-8-14.3-5.1c-8.4,2.9-6.8,13.5-6.5,14.3c0.3,0.7,4.8,15.5,16,8.8
				C292.4,267.3,283.3,264,282.1,264.4z"/>
			<path class="st0" d="M68,117.8c-3.7-6.5-11.4-13.9-26.5-8.4c-4,1.4-7,5.2-9.2,10.4c13.9-4.2,21.2,2.8,24.7,9
				c72.7-19,80.2,64.8,68.7,94.3c1.4-0.4,2.8-0.9,4.3-1.7C149,211.7,152.2,95.9,68,117.8z"/>
			<path id="XMLID_6153_" class="st7" d="M284.9,146.8c0,0-9-6.3-12.9-1.4c-3.9,5-10.6,13.4-2.5,29.8c8,16.5,37.7,2.8,40.6-4.9"/>
			<path class="st0" d="M283.1,194.6c-0.1,0.1-0.2,0.1-0.2,0.2c-9.7,7.2-32.9-3.8-29.4-14.8c-4,2.6-7,5.7-7,5.7
				c-15.5,12.3,14.1,28.6,25.3,20.1c0.3-0.3,0.7-0.6,1-0.9c3.3-2.8,7.7-5.4,12-4.7c7.8,1.2,20.9,2.9,22,18.1c-1.4,2.9-3.1,5.6-5,8.2
				c7-5.1,12.3-11.7,15.9-19.3c-0.7-9.6-6.1-13.8-12.1-16c-1.4,1.3-3.2,2.7-5.4,4.3C294.5,199.8,288.3,198.3,283.1,194.6z"/>
			<g>
				<g id="XMLID_6147_">
					<path id="XMLID_6152_" class="st1" d="M82.1,114.5c0,0-5.2-24.9-29.6-16s-12.1,103.1-0.8,110.4S94.8,260.9,82.1,114.5z"/>
					<path id="XMLID_6151_" class="st1" d="M76.6,159.8c0,0,42.7-42.4,34.2,36.6c0,0,10.3,24.4,30,14.2
						c19.9-10.3,22.4-135.6-73.1-100"/>
					<path id="XMLID_6150_" class="st2" d="M122.2,113c0,0-4,1.9-5.2,3.8"/>
					<path id="XMLID_6149_" class="st2" d="M138.2,128c0,0-4,1.9-5.2,3.8"/>
					<path id="XMLID_6148_" class="st2" d="M64.1,101.3c0,0-2.3,1.1-3.9,2.5"/>
				</g>
				<g id="XMLID_6136_">
					<path id="XMLID_6146_" class="st8" d="M71.1,125.5c0,0-5.2-24.9-29.6-16s-12.1,103.1-0.8,110.4S83.8,272,71.1,125.5z"/>
					<path id="XMLID_6145_" class="st8" d="M65.7,170.8c0,0,42.7-42.4,34.2,36.6c0,0,10.3,24.4,30,14.2
						c19.9-10.3,22.4-135.6-73.1-100"/>
					<line id="XMLID_6144_" class="st3" x1="53.5" y1="222.3" x2="57.6" y2="224.1"/>
					<path id="XMLID_6143_" class="st8" d="M126.6,211.5c0,0,1.6,3.3-1,4.7"/>
					<path id="XMLID_6142_" class="st8" d="M136,170.9c0,0-0.7,3-1.6,4"/>
					<path id="XMLID_6141_" class="st8" d="M68.1,196.3c0,0,1.3-5.6,0-5.6"/>
					<path id="XMLID_6140_" class="st8" d="M98,157.7c0,0,5.2,0.7,4.7,1.6"/>
					<path id="XMLID_6139_" class="st8" d="M47.2,184.3c0,0,6.1-0.9,6.5-2"/>
					<path id="XMLID_6138_" class="st8" d="M77.9,126c0,0-4,1.9-5.2,3.8"/>
					<line id="XMLID_6137_" class="st3" x1="41.2" y1="132.7" x2="45.5" y2="131.6"/>
					<path class="st0" d="M67.6,117.3c-3.7-6.5-11.4-13.9-26.5-8.4c-4,1.4-7,5.2-9.2,10.4c13.9-4.2,21.2,2.8,24.7,9
						c72.7-19,80.2,64.8,68.7,94.3c1.4-0.4,2.8-0.9,4.3-1.7C148.5,211.2,151.7,95.4,67.6,117.3z"/>
				</g>
				<path id="XMLID_6135_" class="st2" d="M146.7,193.6c-1,0.7-2,1.5-2.5,2.3"/>
				<path id="XMLID_6134_" class="st2" d="M79.5,200.2c0,0-1.3,0.6-2.7,1.5"/>
			</g>
			<g>
				<g>
					<g id="XMLID_6132_">
						<path id="XMLID_6133_" class="st1" d="M169,156.5c0,0,6.9-36.2-23.8-25.9s-11.8,89.7,4.4,86.3
							C165.8,213.5,173.2,200.8,169,156.5z"/>
					</g>
				</g>
				<g>
					<g id="XMLID_6130_">
						<path id="XMLID_6131_" class="st9" d="M158.1,167.5c0,0,6.9-36.2-23.8-25.9s-11.8,89.7,4.4,86.3
							C154.9,224.5,162.2,211.8,158.1,167.5z"/>
					</g>
					<line id="XMLID_6129_" class="st3" x1="132.3" y1="218" x2="136.3" y2="219.8"/>
					<path id="XMLID_6128_" class="st9" d="M152.5,205.3c0,0,1.6,3.3-1,4.7"/>
					<path id="XMLID_6127_" class="st9" d="M127.6,158.4c0,0-0.7,3-1.6,4"/>
					<path id="XMLID_6126_" class="st9" d="M153.2,160.3c0,0,1.3-5.6,0-5.6"/>
					<path id="XMLID_6125_" class="st9" d="M139.3,144.4c0,0,5.2,0.7,4.7,1.6"/>
				</g>
				<g>
					<path id="XMLID_6124_" class="st1" d="M146.1,87.3c0,0,34.6,19.6,0.6,34.3S122.9,69.2,146.1,87.3z"/>
					<path id="XMLID_6123_" class="st2" d="M155.1,100.9c0,0-4,1.9-5.2,3.8"/>
				</g>
				<g>
					<path id="XMLID_6122_" class="st10" d="M141.1,92.3c0,0,34.6,19.6,0.6,34.3C107.8,141.3,117.9,74.3,141.1,92.3z"/>
					<path id="XMLID_6121_" class="st10" d="M135.1,124.5c0,0,6.1-0.9,6.5-2"/>
					<path id="XMLID_6120_" class="st10" d="M131.8,94.7c0,0-4,1.9-5.2,3.8"/>
				</g>
				<path id="XMLID_6119_" class="st2" d="M155.8,134.7c-1.3,0.7-3.1,1.9-3.8,3.1"/>
				<path id="XMLID_6118_" class="st2" d="M164.5,199.9c0,0-1,0.5-2.2,1.2"/>
				<path class="st0" d="M158.1,167.5c0,0,6.9-36.2-23.8-25.9c-5.5,1.9-9.4,6-12.1,11.4c0.4-0.1,0.7-0.3,1.1-0.4
					c30.6-10.4,23.8,25.9,23.8,25.9c2.3,24,1.1,38.7-2.9,47.7C156.4,220.9,161.7,206.4,158.1,167.5z"/>
				<path class="st0" d="M136.1,97.3c0,0,21.7,12.3,13.8,24.9c19.3-13.9-8.8-29.9-8.8-29.9c-7.3-5.7-13.3-2.9-17,3.1
					C127.4,93.5,131.5,93.7,136.1,97.3z"/>
			</g>
			<g>
				<g id="XMLID_6113_">
					<path id="XMLID_6115_" class="st1" d="M236.6,132.2c-43.6-31.7-77.4,8.4-77.4,8.4s-27.6,63.9,25.5,80.6
						C237.9,238,280.2,164,236.6,132.2z M214.3,176.8c-10.9,28.8-45.1-16.2-20.9-19.6C193.4,157.2,225.2,148,214.3,176.8z"/>
					<path id="XMLID_6114_" class="st1" d="M219.6,128.2c0,0,33.8-36.3,34.7,31.7c0.9,68,12.6,130-52.5,129.8c0,0-35.5-16.4-0.1-34
						c17.3-8.6,20.7-26.4,20.2-48.6"/>
				</g>
				<g id="XMLID_5195_">
					<path id="XMLID_6112_" class="st11" d="M198.4,149.7"/>
					<path id="XMLID_6109_" class="st11" d="M225.7,143.3c-43.6-31.7-77.4,8.4-77.4,8.4s-27.6,63.9,25.5,80.6
						C226.9,249.1,269.3,175,225.7,143.3z M203.3,187.9c-10.9,28.8-45.1-16.2-20.9-19.6C182.5,168.2,214.2,159,203.3,187.9z"/>
					<path id="XMLID_6108_" class="st11" d="M208.7,139.2"/>
					<path id="XMLID_6107_" class="st11" d="M208.7,139.2c0,0,33.8-36.3,34.7,31.7c0.9,68,12.6,130-52.5,129.8c0,0-35.5-16.4-0.1-34
						c17.3-8.6,20.7-26.4,20.2-48.6"/>
					<line id="XMLID_6106_" class="st3" x1="187.7" y1="291.9" x2="191.8" y2="293.6"/>
					<path id="XMLID_6105_" class="st11" d="M222.7,285c0,0,1.6,3.3-1,4.7"/>
					<path id="XMLID_6104_" class="st11" d="M240.1,250.8c0,0-0.7,3-1.6,4"/>
					<path id="XMLID_6103_" class="st11" d="M236.7,207.4c0,0,1.3-5.6,0-5.6"/>
					<path id="XMLID_5199_" class="st11" d="M162,222c0,0,5.2,0.7,4.7,1.6"/>
					<path id="XMLID_5198_" class="st11" d="M225.6,165.8c0,0,6.1-0.9,6.5-2"/>
					<path id="XMLID_5197_" class="st11" d="M162.3,149.3c0,0-4,1.9-5.2,3.8"/>
					<line id="XMLID_5196_" class="st3" x1="206.3" y1="196.3" x2="202.5" y2="198.5"/>
				</g>
				<path class="st0" d="M243.6,182c0.2-3.2,0.2-6.3-0.2-9.4c0-0.5,0-1.1,0-1.6c-0.8-53.4-21.8-42.4-30.7-35.3
					c-37.1-16.3-64.3,16-64.3,16s-0.3,0.7-0.8,1.9c11.2-8.1,30.6-17.2,54.1-7c9-7.1,29.9-18.1,30.7,35.3c0,0.5,0,1.1,0,1.6
					c0.4,3.1,0.4,6.3,0.2,9.4c1.1,40.8,4.5,78.3-9.7,99.7C249.5,275.4,245,231.1,243.6,182z"/>
				<path id="XMLID_5194_" class="st2" d="M244.2,127.6c0,0-4,1.9-5.2,3.8"/>
				<path id="XMLID_5193_" class="st2" d="M198.2,123.8c0,0-4,1.9-5.2,3.8"/>
				<path id="XMLID_5192_" class="st2" d="M192.4,187.8c0,0-4,1.9-5.2,3.8"/>
				<path id="XMLID_5191_" class="st2" d="M251.8,215.5c-1.2,0.7-2.8,1.8-3.5,2.9"/>
				<path id="XMLID_5190_" class="st2" d="M250.6,238.6c0,0-0.7,0.4-1.7,0.9"/>
			</g>
			<g>
				<g>
					<path id="XMLID_5189_" class="st1" d="M331,148.9L331,148.9c-5.8-15.2-18.3-27-37.4-29c-38-3.7-53.6,21.1-59.6,36
						c0,0-1.3,2.2-2.3,6.6c-0.8,2.6-1,4.8-0.8,5.8c-0.5,8.2,0.9,20.4,8.6,36.6c6.3,13.2,22.3,17.8,32.9,19.5c3,0.6,6.2,1,9.6,0.9
						c0.2,0,0.3,0,0.3,0l0,0c3.7-0.1,7.6-0.5,11.8-1.5c16.7-3.9,28.1-14.6,34.5-27.7c-1.2-15.2-14.2-17-22-18.1
						c-4.3-0.6-8.6,2-12,4.7c-0.4,0.3-0.7,0.6-1,0.9c-11.3,8.3-40.8-7.9-25.3-20.1c0,0,5.3-5.6,11.5-8.1l0,0c0,0,5.1-2.6,9.3-1.1
						c1.6,0.6,3.1,1.8,4.1,4c0,0.1,0.1,0.2,0.2,0.4c0.5,1,1.1,2.2,1.8,3.3c5.1,8.3,16.6,19.1,27,11.5c12.2-8.8,10.8-12.1,11.2-15.5
						l0,0C334.1,154.4,331,148.9,331,148.9z"/>
				</g>
				<g>
					<path id="XMLID_5188_" class="st7" d="M320,160L320,160c-5.8-15.2-18.3-27-37.4-29c-38-3.7-53.6,21.1-59.6,36
						c0,0-1.3,2.2-2.3,6.6c-0.8,2.6-1,4.8-0.8,5.8c-0.5,8.2,0.9,20.4,8.6,36.6c6.3,13.2,22.3,17.8,32.9,19.5c3,0.6,6.2,1,9.6,0.9
						c0.2,0,0.3,0,0.3,0l0,0c3.7-0.1,7.6-0.5,11.8-1.5c16.7-3.9,28.1-14.6,34.5-27.7c-1.2-15.2-14.2-17-22-18.1
						c-4.3-0.6-8.6,2-12,4.7c-0.4,0.3-0.7,0.6-1,0.9c-11.3,8.3-40.8-7.9-25.3-20.1c0,0,5.3-5.6,11.5-8.1l0,0c0,0,5.1-2.6,9.3-1.1
						c1.6,0.6,3.1,1.8,4.1,4c0,0.1,0.1,0.2,0.2,0.4c0.5,1,1.1,2.2,1.8,3.3c5.1,8.3,16.6,19.1,27,11.5c12.2-8.8,10.8-12.1,11.2-15.5
						l0,0C323.2,165.4,320,160,320,160z"/>
					<line id="XMLID_5187_" class="st3" x1="234.9" y1="215.1" x2="237.5" y2="218.5"/>
					<path id="XMLID_5186_" class="st7" d="M307.3,210.9c0,0,1.6,3.3-1,4.7"/>
					<path id="XMLID_5185_" class="st7" d="M319.6,168.9c0,0-0.7,3-1.6,4"/>
					<path id="XMLID_5184_" class="st7" d="M250.4,173.9c0,0,1.3-5.6,0-5.6"/>
					<path id="XMLID_5183_" class="st7" d="M278.7,157.2c0,0,5.2,0.7,4.7,1.6"/>
					<path id="XMLID_5182_" class="st7" d="M273.3,230.8c0,0,6.1-0.9,6.5-2"/>
					<path id="XMLID_5181_" class="st7" d="M241.5,149.5c0,0-4,1.9-5.2,3.8"/>
					<line id="XMLID_5180_" class="st3" x1="301.9" y1="182.9" x2="306.1" y2="181.7"/>
				</g>
				<path class="st0" d="M320,160L320,160c-5.8-15.2-18.3-27-37.4-29c-26.5-2.6-42.2,8.6-51.1,20.8c9.3-6.9,22.3-11.5,40.2-9.7
					c19.1,1.8,31.5,13.8,37.3,29l0,0c0,0,3.1,5.6,2.5,9l0,0c-0.2,1.5-0.1,3-0.9,4.9c0.2-0.1,0.4-0.2,0.6-0.4
					c12.2-8.8,10.8-12.1,11.2-15.5l0,0C323.2,165.4,320,160,320,160z"/>
				<path id="XMLID_5179_" class="st2" d="M329.3,154.3c0,0-4,1.9-5.2,3.8"/>
				<path id="XMLID_5178_" class="st2" d="M296.2,124.4c0,0-4,1.9-5.2,3.8"/>
				<path id="XMLID_5177_" class="st2" d="M269.4,185.5c0,0-4,1.9-5.2,3.8"/>
				<path id="XMLID_5176_" class="st2" d="M324.5,196.3c0,0-4,1.9-5.2,3.8"/>
			</g>
			<g>
				<g>
					<path id="XMLID_5175_" class="st1" d="M353.8,106c0,0-5.2-29-29.6-18.7c-24.4,10.3-12,120.4-0.6,129
						C335,224.9,366.6,277.1,353.8,106z"/>
				</g>
				<g>
					<path id="XMLID_5174_" class="st12" d="M342.9,117.1c0,0-5.2-29-29.6-18.7c-24.4,10.3-12,120.4-0.6,129
						C324,235.9,355.7,288.1,342.9,117.1z"/>
					<path id="XMLID_5173_" class="st12" d="M333.3,224.3c0,0,1.6,3.3-1,4.7"/>
					<path id="XMLID_5172_" class="st12" d="M341,172.1c0,0,0.4,3,0.1,4.3"/>
					<path id="XMLID_5171_" class="st12" d="M309.5,192.7c0,0,1.3-5.6,0-5.6"/>
					<path id="XMLID_5153_" class="st12" d="M316.2,104.4c0,0-4,1.9-5.2,3.8"/>
				</g>
				<path class="st0" d="M342.9,117.1c0,0-5.2-29-29.6-18.7c-3.5,1.5-6.3,5-8.4,10c22.2-7.2,27,19.7,27,19.7
					c4.9,65.4,3.2,98.2-1.2,113.2C341.5,243.5,350.9,223.4,342.9,117.1z"/>
				<path id="XMLID_5152_" class="st2" d="M348.7,189.1c1.3,0.1,2.7,0,3.7-0.4"/>
				<path id="XMLID_5145_" class="st2" d="M347.9,212c0,0,1.3,0.1,2.8,0.1"/>
				<path id="XMLID_5144_" class="st2" d="M348.5,102.1c0,0-4.4,0.7-6,2.3"/>
			</g>
		</g>
	</g>
	<path id="XMLID_3926_" class="st5" d="M258.9,274c-0.4,0.8-1.3,1.4-3.7,2c-2.4,0.6-3.1-3.3-3.1-3.7c-0.1-0.4,0.4-3.8,4.2-3
		C260,270,258.9,274,258.9,274z"/>
</g>
</svg>
