<?xml version="1.0" encoding="utf-8"?>
<!-- Generator: Adobe Illustrator 22.1.0, SVG Export Plug-In . SVG Version: 6.00 Build 0)  -->
<svg version="1.1" id="Layer_1" xmlns="http://www.w3.org/2000/svg" xmlns:xlink="http://www.w3.org/1999/xlink" x="0px" y="0px"
	 viewBox="0 0 100 100" style="enable-background:new 0 0 100 100;" xml:space="preserve">
<style type="text/css">
	.st0{opacity:0.1;enable-background:new    ;}
	.st1{fill:#231F20;stroke:#231F20;stroke-miterlimit:10;}
	.st2{fill:none;stroke:#231F20;stroke-miterlimit:10;}
	.st3{fill:#FFD767;stroke:#584C4F;stroke-width:2;stroke-miterlimit:10;}
	.st4{fill:#FFFAF2;stroke:#584C4F;stroke-width:2;stroke-miterlimit:10;}
	.st5{fill:none;stroke:#584C4F;stroke-width:2;stroke-miterlimit:10;}
</style>
<g>
	<g class="st0">
		<g>
			<path class="st1" d="M62.8,30.5c1.3-12.4-9.9-16.9-17.6-9.3c-1.2,1.2-5,5.3-5.9,6c-3.8,2.9-6.9,8.4-7.8,17.1
				c0,0-12.9,34.8,21.4,26.2c14.5-3.6,21.9-7.2,25.1-10.8c0.9-1.1,5.5-5.5,6.6-6.6c4.9-5.1,1.1-10.2-3.6-15.5
				C72.9,28.5,60.7,47.9,62.8,30.5z"/>
			<g id="XMLID_9_">
				<path id="XMLID_10_" class="st1" d="M55.4,37.7c-1.9,17.4,10.4-1.9,18.4,7.1s13.3,17.2-21,25.7S31.4,44.3,31.4,44.3
					C34.2,18.2,57.4,20.3,55.4,37.7z"/>
			</g>
		</g>
		<line id="XMLID_8_" class="st2" x1="38.3" y1="33.8" x2="37.2" y2="37"/>
		<path id="XMLID_7_" class="st1" d="M55.1,20.4c-0.8-0.4-4.7,2.4-4.7,2.4"/>
		<path id="XMLID_6_" class="st1" d="M61.7,40.2c-1-0.2-2.5,1.7-2.5,1.7"/>
	</g>
	<g>
		<g>
			<path class="st3" d="M58.9,34.4c1.3-12.4-9.9-16.9-17.6-9.3c-1.2,1.2-5,5.3-5.9,6c-3.8,2.9-6.9,8.4-7.8,17.1
				c0,0-12.9,34.8,21.4,26.2c14.5-3.6,21.9-7.2,25.1-10.8c0.9-1.1,5.5-5.5,6.6-6.6c4.9-5.1,1.1-10.2-3.6-15.5
				C69,32.4,56.7,51.8,58.9,34.4z"/>
			<g id="XMLID_4_">
				<path id="XMLID_5_" class="st4" d="M51.4,41.6c-1.9,17.4,10.4-1.9,18.4,7.1s13.3,17.2-21,25.7S27.5,48.2,27.5,48.2
					C30.3,22.1,53.5,24.2,51.4,41.6z"/>
			</g>
		</g>
		<line id="XMLID_3_" class="st5" x1="34.4" y1="37.7" x2="33.2" y2="40.9"/>
		<path id="XMLID_2_" class="st4" d="M51.1,24.2c-0.8-0.4-4.7,2.4-4.7,2.4"/>
		<path id="XMLID_1_" class="st4" d="M57.7,44.1c-1-0.2-2.5,1.7-2.5,1.7"/>
	</g>
</g>
</svg>
