<?xml version="1.0" encoding="utf-8"?>
<!-- Generator: Adobe Illustrator 22.1.0, SVG Export Plug-In . SVG Version: 6.00 Build 0)  -->
<svg version="1.1" id="Layer_1" xmlns="http://www.w3.org/2000/svg" xmlns:xlink="http://www.w3.org/1999/xlink" x="0px" y="0px"
	 viewBox="0 0 513 385" style="enable-background:new 0 0 513 385;" xml:space="preserve">
<style type="text/css">
	.st0{fill:#FFD767;stroke:#584C4F;stroke-miterlimit:10;}
	.st1{fill:#FFFAF2;stroke:#584C4F;stroke-miterlimit:10;}
</style>
<g id="Layer_5">
</g>
<g id="Layer_3">
</g>
<g>
	<g>
		<path class="st0" d="M371.2,102.8c-5.7-4.7-14.2-5.7-20.9-2.7c-4,1.8-6.3,4.8-8.6,8.4c-1.4,2.2-3.3,4.9-6,5.3
			c-2.2,0.3-5.7-0.7-5.7-3.4c0-2.3,2.5-3.6,2.4-5.9c-0.1-1.8-1.3-3.4-2.6-4.6c-3.1-2.9-7.3-5.9-11.6-6.6c-3.2-0.5-7,0.8-8.7,3.8
			c-2.4,4.3,2,7.8,2.8,11.8c0.9,4.2-1.4,8.7-5,10.9c-1.4,0.9-2.9,1.3-4.4,1.3c-0.2-0.5-0.3-1.1-0.6-1.6c-1.4-3.5-3.9-7-7.8-8.1
			c-2.7-0.7-5.1-0.2-7.2,1.1c-0.8-0.6-1.6-1.2-2.4-1.7c-3.3-2-7.1-2.7-11-2.3c-1.3,0.2-2.6,0.5-3.8,0.9c-0.2-1.8-0.5-3.6-1-5.3
			c-1.2-3.8-3.7-7.2-7.9-7.8c-3.2-0.4-6.7,1.2-7.2,4.7c-0.6,3.5,1.9,6.7,3.6,9.6c1,1.9,1.5,3.9,1.2,6c-0.2,1.6-1,3.3-2.5,3.8
			l-1.7,0.4c-2.3,0.9-5.2,0.3-7.5-1c-4.2-2.3-5.7-7-6.4-11.4c-0.7-4.4-0.8-9-2.5-13.3c-1.4-3.5-3.9-7-7.8-8.1
			c-7.3-2-12.4,5.3-14.9,11.1c-1.3,3.1-2.9,7.1-1.9,10.5c0.6,1.9,2,3.1,3.7,3.9c2.3,1.1,4.8,1.8,7,3c1.5,0.8,2.9,1.8,4.1,3
			c-4.3-1-9-0.7-13,1.1c-3.1,1.4-5.3,3.6-7.1,6.2c-0.6-0.3-1.3-0.6-1.9-0.8c-4.7-1.3-8.5,1.3-11.3,4.8c0-2.2,2.5-3.6,2.4-5.9
			c-0.1-1.8-1.3-3.4-2.6-4.6c-3.1-2.9-7.3-5.9-11.6-6.6c-3.2-0.5-7,0.8-8.7,3.8c-2.4,4.3,2,7.8,2.8,11.8c0.9,4.2-1.4,8.7-5,10.9
			c-4,2.5-8.6,1.2-12.2-1.3c-3.5-2.4-6.5-5.5-10.1-7.6c-3.3-2-7.1-2.7-11-2.3c-7,0.9-14.1,6.4-13.5,14.1c0.4,6.1,5.4,12.4,11.8,12.6
			c3.6,0.1,7-1.9,10.4-2.8c1.8-0.5,3.9-0.7,5.6,0.4c2.8,1.9,2.7,6,2.3,8.9c-0.7,4.9-2.8,9.6-3.2,14.6c-0.3,4.2,0.9,8.7,4.9,10.8
			c3.1,1.7,7.2,1.5,9.1-1.9c1.9-3.2,0.7-7.5,0.2-11c-0.3-2.3,0-4.5,1.1-6.5c0.9-1.6,2.3-2.9,3.9-2.8l1.9,0.2c2.7,0,5.4,1.7,7.1,3.9
			c0.1,0.1,0.1,0.1,0.2,0.2c-0.1,0.5-0.2,1.1,0,1.8c0.3,1.3,1.1,2.2,2.1,2.8c0.6,2.9,0.3,6.1-0.3,9.1c-1,4.7-2.7,9.3-2.7,14.3
			c0,0.9,0.1,1.9,0.2,2.9c0,0.4-0.1,0.9-0.1,1.3c-0.1,6.9,3.6,13.5,10.4,15.7c6.5,2.1,14.2,0.1,19-4.7c2.9-2.9,3.9-6.3,4.6-10.2
			c0.5-2.4,1.2-5.3,3.4-6.6c1.8-1,5.2-1.3,6.1,1c0.5,1.3,0,2.6-0.2,3.9c-0.9,0.9-1.4,2-1,3.5c1,3.9,6.1,4.1,9.2,4.9
			c1.9,0.5,4.4,1.5,5.2,3.5c1.3,3.3-2.9,4.9-5.2,5.9c-6.3,2.8-9.9,9.4-10,16.1c0,2.1,0.3,4.2,0.9,6.1c-0.7,0.4-1.1,1.1-0.9,2.1
			c0.3,1.4,1.7,1.8,3,2.1c1,1.5,2.3,2.7,3.8,3.7c-0.6,0.6-1.5,1-2.2,1.3c-3.2,1.4-5,4.7-5,8.1c-0.1,3.4,1.8,6.8,5.2,7.9
			c3.2,1.1,7.1,0.1,9.5-2.4c1.4-1.5,1.9-3.2,2.3-5.1c0.2-1.2,0.6-2.7,1.7-3.3c0.9-0.5,2.6-0.6,3.1,0.5c0.3,0.6,0,1.3-0.1,1.9
			c-0.4,0.4-0.7,1-0.5,1.7c0.5,2,3.1,2,4.6,2.4c1,0.2,2.2,0.7,2.6,1.7c0.6,1.6-1.5,2.4-2.6,2.9c-3.2,1.4-5,4.7-5,8.1
			c-0.1,3.4,1.8,6.8,5.2,7.9c1.9,0.6,3.9,0.5,5.8-0.1c-0.4,0.6-0.7,1.2-0.8,1.8c-0.2,0.9,0.1,1.9,0.9,2.4c1.1,0.7,2.1-0.5,3.2-0.6
			c1.1-0.2,2.3,0.5,2.9,1.5c0.6,1.1,0.2,2.3-0.5,3.3c-0.7,0.9-1.5,1.7-2.2,2.6c-0.6,0.9-0.8,1.9-0.7,2.9c0.2,1.9,1.6,3.8,3.6,3.8
			c1.6-0.1,3.4-1.3,3.5-3c0.1-1-0.4-1.9-0.6-2.8c-0.1-0.5-0.2-1,0.2-1.5c0.5-0.7,1.6-0.7,2.4-0.5c1.3,0.2,2.5,0.9,3.9,1
			c1.1,0.1,2.3-0.2,3-1.2c0.5-0.8,0.5-1.9-0.4-2.5c-0.9-0.5-2-0.3-2.9-0.2c-0.6,0.1-1.2,0-1.7-0.4c-0.4-0.2-0.8-0.6-0.7-1.1l0.1-0.5
			c0-0.7,0.5-1.4,1.1-1.9c1.1-0.8,2.5-0.7,3.8-0.4c1.3,0.3,2.5,0.8,3.8,0.9c1.1,0,2.3-0.2,3-1.1c1.4-1.7,0-3.9-1.2-5.2
			c-0.7-0.7-1.5-1.6-2.5-1.7c-0.6-0.1-1.1,0.2-1.5,0.5c-0.6,0.5-1,1.1-1.6,1.5c-1.2,0.9-2.8,1.4-4,0.4c-0.5-0.4-0.8-0.9-0.8-1.6
			c0-0.6,0.4-1.1,0.9-1.5c1.6,0.5,3.4,0.8,4.9,0.4c1.5-0.3,2.9-1.5,3.1-3.1c0.3-2.3-2.2-3-3.2-4.6c-1.1-1.7-0.8-4,0.3-5.6
			c1.3-1.8,3.5-2,5.5-1.5c1.9,0.4,3.7,1.3,5.7,1.6c1.8,0.3,3.6,0,5.1-0.9c2.9-1.6,5-5.2,3.5-8.4c-0.2-0.4-0.4-0.8-0.7-1.1
			c1.4,0.3,2.8,0.5,4.1,0.2c1.5-0.3,2.9-1.5,3.1-3.1c0.3-2.3-2.2-3-3.2-4.6c-1.1-1.7-0.8-4,0.3-5.6c1.3-1.8,3.5-2,5.5-1.5
			c1.9,0.4,3.7,1.3,5.7,1.6c1.8,0.3,3.6,0,5.1-0.9c2.9-1.6,5-5.2,3.5-8.4c-1.2-2.6-4.4-4.5-7.3-3.5c-1.6,0.6-2.7,2-4.1,3
			c-0.7,0.5-1.6,1-2.5,0.8c-1.5-0.3-2.2-2.1-2.5-3.5c-0.5-2.3-0.4-4.6-1.1-6.9c-0.6-1.9-1.9-3.6-3.9-3.9c-1.6-0.2-3.4,0.6-3.6,2.3
			c-0.3,1.7,1,3.4,1.8,4.8c0.5,0.9,0.8,1.9,0.6,3c-0.1,0.8-0.5,1.6-1.2,1.9l-0.8,0.2c-1.2,0.4-2.6,0.2-3.7-0.5
			c-2.1-1.2-2.8-3.5-3.2-5.7c0-0.2-0.1-0.5-0.1-0.7c0.3-1.1,0.2-2.4-0.4-3.5c-0.1-0.1-0.1-0.2-0.2-0.4c-0.1-0.7-0.3-1.4-0.6-2
			c-0.3-0.8-0.7-1.5-1.3-2.2c0.2-0.3,0.3-0.5,0.5-0.8c2.6-3.6,7-3.9,11-3c3.8,0.9,7.5,2.6,11.3,3.2c3.6,0.6,7.1,0,10.3-1.7
			c5.8-3.2,10-10.3,6.9-16.8c-0.4-0.8-0.9-1.5-1.4-2.3c2.7,0.7,5.6,1,8.2,0.4c2.9-0.6,5.8-3.1,6.2-6.2c0-0.1,0-0.2,0-0.3
			c1.7-1.2,3.2-2.5,4.5-3.8c2.5-2.6,5.7-6,6.1-9.7c0.2-2.1-0.8-3.9-2.2-5.4c-1.5-1.6-3.2-3-4.7-4.5c0.5,0.1,1,0.2,1.6,0.3
			c3.8,0.9,7.5,2.6,11.3,3.2c3.6,0.6,7.1,0,10.3-1.7c5.8-3.2,10-10.3,6.9-16.8c-2.4-5.1-8.9-8.9-14.5-6.9c-0.2,0.1-0.4,0.2-0.6,0.3
			c-0.7-0.9-1.2-1.9-1.2-3.1c0-3.8,4.8-3.8,7.5-3.9c7.4-0.3,13.6-5.5,16.3-12.2C378.3,115.8,377.1,107.7,371.2,102.8z M263.8,273
			c0-0.7-0.2-1.4-0.5-2c0.2,0.1,0.4,0.4,0.6,0.6c0.2,0.6,0,1.1-0.1,1.7C263.8,273.2,263.8,273.1,263.8,273z M205.2,169.3
			c-0.6,0.7-1.3,1.2-2.2,1.5c-1.6,0.6-3.3,0.3-4.9-0.2c0.3-1.2,0.8-2.4,1.6-3.6c1.1-1.5,2.7-2.7,4.5-3.1
			C204.3,165.8,204.7,167.6,205.2,169.3z M256.9,280.6c-0.3,0-0.6-0.2-0.9-0.4c0.3-0.2,0.5-0.4,0.7-0.6c0.3-0.3,0.6-0.7,0.9-1.1
			c0.1,0.2,0.2,0.4,0.2,0.6C258,279.7,257.7,280.6,256.9,280.6z M345.4,147.5c-1.4,1-3.1,1.9-4.9,1.6c-1.9-0.4-3.1-1.9-3.9-3.6
			c1.1-0.8,2.5-1.4,3.9-1.3c2.2,0.1,4.1,1.4,5.6,2.9C345.9,147.2,345.7,147.4,345.4,147.5z"/>
		<path class="st1" d="M254.3,285.1c-10.7,3.4-5.1,16.3-5.1,16.3s6.9,8.1,15.7,1.6S265,281.7,254.3,285.1z M264.2,302.3
			c-7.9,5.8-14.1-1.5-14.1-1.5s-5.1-11.6,4.6-14.7C264.3,283,272.1,296.5,264.2,302.3z"/>
		<g id="XMLID_5_">
			<path id="XMLID_6_" class="st1" d="M269.4,306.2C269.4,306.2,269.4,306.2,269.4,306.2c0-0.2,0-0.3,0-0.3c0,0,0-0.2,0-0.4
				c0-0.2,0-0.4,0-0.4c0-0.1,0-0.4,0-0.5c0,0,0-0.6,0-0.6c0-0.2,0-0.6,0-0.7c0-0.1,0-1.6-0.1-1.9c0,0,0,0,0,0c0-0.3,0-0.5,0-0.7
				c0-0.5,0-1.5,0-1.9c0,0,0-1.7,0-1.7c0,0,0,0,0-0.1c0-0.3,0-0.7,0-0.8c0,0,0-1.7,0-1.7c0-0.2-0.3-0.4-0.8-0.4c0,0-0.9,0-1.9,0
				c-0.1,0-0.1,0-0.2,0c-0.2,0-17.1,0-17.3,0c-0.1,0-0.1,0-0.2,0c-1,0-1.8,0-1.9,0c-0.5,0-0.8,0.2-0.8,0.4c0,0,0,0.2,0,0.3
				c0,0.1,0,1.3,0,1.3c0,0,0,0.5,0,1c0,0,0,0,0,0c0,0,0,0.2,0,0.3c0,0.1,0,1.3,0,1.3c0,0,0,1.5,0,2c0,0.2,0,0.4,0,0.7c0,0,0,0,0,0
				c0,0.2-0.1,1.7-0.1,1.9c0,0.1,0,1.3,0,1.3c0,0.1,0,1,0,1c0,0,0,0.1,0,0.2c0,0.1,0,0.1,0,0.1c0,0,0,0.3,0,0.5c0,0.1,0,0.1,0,0.2
				c0,0,0,0.1,0,0.1c0,0.3,0,0.5,0,0.5c0,0.1,0,1,0,1c0,0.1,0,0.3,0,0.5c0,0.1,0,0.1,0,0.2c0,0.1,0,0.2,0,0.4c0,0.1,0,0.1,0,0.1
				c0,0,0,0.1,0.1,0.1c0,0.4,0,1.4,0,1.9c0,0.2,0,0.5,0,0.8c0,0,0,0,0,0.1c0,0.2-0.1,1.8-0.1,1.9c0,0.1,0,0.2,0,0.2c0,0.1,0,0.8,0,1
				c0,0.1,0,0.2,0,0.2c0,0,0,0.1,0,0.1c0,0.5,0,1.1,0,1.2c0,0.1,0,0.2,0,0.2c0,0.1,0,0.8,0,1c0,0.1,0,0.2,0,0.2
				c0,0.1,0.1,0.3,0.7,0.4c0.3,0,3.7,0,4.8,0c1.7,0,10.3,0,12,0c1.1,0,4.4,0,4.8,0c0.6-0.1,0.7-0.2,0.7-0.4c0,0,0-0.1,0-0.2
				c0-0.1,0-0.3,0-0.3c0,0,0-0.1,0-0.2c0-0.2,0-0.6,0-0.7c0-0.1,0-0.7,0-1.2c0,0,0-0.1,0-0.1c0,0,0-0.1,0-0.2c0-0.1,0-0.3,0-0.3
				c0,0,0-0.1,0-0.2c0-0.2,0-0.6,0-0.7c0-0.1,0-1.6-0.1-1.9c0,0,0,0,0-0.1c0-0.3,0-0.5,0-0.8c0-0.5,0-2,0-2c0,0,0-0.1,0-0.1
				c0-0.1,0-0.3,0-0.4c0,0,0-1.1,0-1.1c0,0,0,0,0,0c0-0.1,0-0.1,0-0.2c0-0.1,0-0.2,0-0.3c0,0,0,0,0-0.1c0-0.2,0-0.4,0-0.4
				c0,0,0-0.1,0-0.1C269.4,306.4,269.4,306.2,269.4,306.2z"/>
		</g>
	</g>
</g>
</svg>
