<?xml version="1.0" encoding="utf-8"?>
<!-- Generator: Adobe Illustrator 22.1.0, SVG Export Plug-In . SVG Version: 6.00 Build 0)  -->
<svg version="1.1" id="Layer_1" xmlns="http://www.w3.org/2000/svg" xmlns:xlink="http://www.w3.org/1999/xlink" x="0px" y="0px"
	 viewBox="0 0 607.5 642.9" style="enable-background:new 0 0 607.5 642.9;" xml:space="preserve">
<style type="text/css">
	.st0{fill:#A36B78;stroke:#584C4F;stroke-width:2;stroke-linecap:round;stroke-miterlimit:10;}
	.st1{fill:#A36B78;stroke:#584C4F;stroke-width:2;stroke-linecap:round;stroke-linejoin:round;stroke-miterlimit:10;}
	.st2{fill:#FFD767;stroke:#584C4F;stroke-width:2;stroke-miterlimit:10;}
	.st3{fill:#A36B78;}
	.st4{fill:none;stroke:#584C4F;stroke-width:2;stroke-linecap:round;stroke-miterlimit:10;}
	.st5{fill:#BEAB72;}
	.st6{fill:#584C4F;stroke:#584C4F;stroke-width:2;stroke-linecap:round;stroke-miterlimit:10;}
	.st7{opacity:0.1;fill:#231F20;stroke:#231F20;stroke-miterlimit:10;enable-background:new    ;}
	.st8{fill:#FFFFFF;stroke:#584C4F;stroke-width:2;stroke-linecap:round;stroke-miterlimit:10;}
</style>
<g id="Layer_5">
</g>
<g id="Layer_3">
</g>
<g>
	<g>
		<g id="XMLID_12217_">
			<path id="XMLID_12218_" class="st0" d="M229.5,274.5c-7.6,2.1-7.4-11,1.2-8.5"/>
		</g>
		<path id="XMLID_12216_" class="st0" d="M224.1,179.3c1.7,34.8,3,77.6,4.2,99.8c2,40.2-1.2,99.4-1.2,99.4L244,377
			c0,0-3.5-104.4,0-126.4c2.4-15.7-1.9-73.9-3.2-107.9"/>
		<g id="XMLID_12214_">
			<path id="XMLID_12215_" class="st0" d="M244.1,374.9c6.9,7.2,9,9.6,12.8,19c3.8,9.4-9.9-13.5-9.1-10.1
				c0.8,3.4,13.6,68.6,3.1,28.5c-10.5-40.1-6.4-14.5-6.4-14.5c0,55-4.5,11-5.8,4.1s-10.4,36.7-8.8,15.1c1.7-21.5,0-23.4-3.6-5.4
				s-1.7-24.3-1.7-24.3s0.8-13.2,4.1-12.1"/>
		</g>
		<path id="XMLID_12213_" class="st0" d="M234.6,266.5c0,0,2.8,0.6,3,1.2"/>
		<path id="XMLID_12212_" class="st0" d="M234.2,273.2c0,0-2.2,0.4-2.8-1.4"/>
		<path id="XMLID_12211_" class="st1" d="M230.8,363.3c0,0-13.6,9.1,0,9.9"/>
	</g>
	<path id="XMLID_12210_" class="st2" d="M248.1,178.2c2.2,4.2-4.1,60.7-3.8,65.6s-1.6,5.5-15.3,5s-7-90.3-1.4-98.4
		c1.9-2.9,9.6-5.6,18.7-8.1"/>
	<g>
		<path class="st0" d="M279.5,617.6c-0.5-1.8-1.5-3.8-2.6-6.3c-1-2.3-2-5.1-2.9-8.5c0.1,0,0.2,0,0.2,0s0,0,0-0.1c0-0.5,0-3-0.2-6.9
			l-15.2-1.3H258h-0.8c-0.1,1.1-0.2,1.9-0.4,2.4v0.2c-0.1,0.1-0.2,0.2-0.2,0.3c-0.3,0.4-0.5,0.7-0.5,0.7s-0.7,0.6-1.7,1.6
			c-1.9,10.8-9.3,17.1-18.2,20.8c0.1,0.9,0.5,1.8,1.3,2.5c0.2,0.2,0.6,0.5,0.9,0.8c1.2,0.8,3,1.5,5.4,2c1.8,0.3,3.8,0.7,6.1,0.8
			c1.5,0.1,3,0.2,4.5,0.3c1.2,0,2.5,0.1,3.7,0.2c1.2,0,2.5,0,3.7-0.2c1.6,0,3.1-0.2,4.5-0.3c2.3-0.2,4.4-0.5,6.2-0.8
			c2.3-0.5,4.2-1.1,5.4-2c0.4-0.2,0.7-0.5,0.9-0.8c1-1,1.4-2.2,1.3-3.4C279.9,619,279.7,618.3,279.5,617.6z"/>
		<path class="st0" d="M252.5,340.8c0,0,3.7,57.8,3.4,102.4c-0.2,5.2-0.2,10.1-0.2,14.5l0,0c-0.3,10.9,0.2,15.8,1,16.9
			c3,25.8-0.3,124.2-0.3,124.2l16.9,1.5c0,0-3.2-59.2-1.2-99.4s5-148,8.5-153.6"/>
		<g>
			<g id="XMLID_12208_">
				<path id="XMLID_12209_" class="st0" d="M222.2,622.3c0,0,6-0.6,3.9,4.3C223.9,631.4,217.2,625.6,222.2,622.3z"/>
			</g>
			<g id="XMLID_12206_">
				<path id="XMLID_12207_" class="st0" d="M225.7,621.6c0,0,6.7-0.7,4.3,4.8C227.6,631.7,220.1,625.3,225.7,621.6z"/>
			</g>
			<g id="XMLID_12204_">
				<path id="XMLID_12205_" class="st0" d="M230,620.4c0,0,7.8-0.8,5,5.5C232.1,632.3,223.4,624.8,230,620.4z"/>
			</g>
			<g id="XMLID_12202_">
				<path id="XMLID_12203_" class="st0" d="M235.4,619.3c0,0,9-0.8,5.7,6.3C237.9,632.8,227.9,624.3,235.4,619.3z"/>
			</g>
			<path id="XMLID_12201_" class="st0" d="M245.9,628.4c0,0-10.6,0.7-5.7-6.2s13.6,0.2,14.3,3.1
				C255.2,628.3,245.9,628.4,245.9,628.4z"/>
		</g>
		<path id="XMLID_12200_" class="st0" d="M266.6,465.9c0,0,2.3,0.1,2.3,2"/>
		<path id="XMLID_12199_" class="st0" d="M263,482.6c0,0-2.7-0.8-2.8-1.5"/>
		<g id="XMLID_12197_">
			<path id="XMLID_12198_" class="st0" d="M259.3,602.6c-6.1,5-11.2-7.1-2.2-8.2"/>
		</g>
		<g id="XMLID_12195_">
			<path id="XMLID_12196_" class="st0" d="M258.5,478c-7.6,2.1-7.4-11,1.2-8.5"/>
		</g>
	</g>
	<path class="st0" d="M337.8,301.9l-111.1-4.1c0,0,0.6,29.5,1.3,40.6c0,1,0.1,2.1,0.2,3.1c0,0.4,0.1,0.7,0.1,0.9l0,0
		c3.1,17,22.5,32,53.2,32.5c50.1,0.8,51.5-14.5,51.5-14.5c2.5-4.5,3.8-8.9,4.4-13c0.2,0,0.2,0,0.2,0S339.6,310.8,337.8,301.9z"/>
	<g>
		<path class="st2" d="M344.2,274.2c-0.1-0.8-0.2-1.5-0.3-2.2c-0.8-6-1.6-10.5-1.9-11.9c-1.5-7.3-4.4-87.8-5.9-101
			c0-0.4-0.1-0.9-0.2-1.3c-0.8-3.7-3.3-6.7-6.3-9c-4.2-3.2-9.5-5.2-13-6.2c-6.7-5.6-20.5-9.4-39.2-8.6c-17.8,0.8-45.2,1.1-46.5,27.9
			c-0.2,3.1-0.2,6.5-0.1,10.4c1.4,36.2,1.5,95-2.3,110.6c-0.2,0.8-0.4,1.5-0.6,2c-3.2,8.5-7.1,29.9-3,37.9c0,0.1,0.1,0.2,0.2,0.3
			c1.6,2.8,4.3,3.7,8.6,1.4c0,0,5.4-1.3,9.4-1.2l77.2,4c3.2,0.5,6.1,1,8.4,1.5C351,345.3,347.5,299.1,344.2,274.2z"/>
		<path class="st2" d="M230.7,169.7c0,0.9,0,1.7,0.1,2.6c1.4,36.2,1.5,95-2.3,110.6c-0.2,0.8-0.4,1.5-0.6,2
			c-3.2,8.5-7.1,29.9-3,37.9c0,0.1,0.1,0.2,0.2,0.3c1.6,2.8,4.3,3.7,8.6,1.4"/>
		<path class="st2" d="M243.1,323.2l77.1,4c3.2,0.5,6.1,1,8.5,1.5c22.3,16.5,18.9-29.7,15.5-54.5c-0.1-0.8-0.2-1.5-0.3-2.2
			c-0.8-6-1.6-10.5-1.9-11.9c-1.5-7.3-4.4-87.8-5.9-101c0-0.4-0.1-0.9-0.2-1.3c-0.8-3.7-3.3-6.7-6.3-9c-4.2-3.2-9.5-5.2-13-6.2
			c-6.7-5.6-20.5-9.4-39.2-8.6c-16.4,0.7-40.8,1-45.8,21.9"/>
	</g>
	<path id="XMLID_12194_" class="st0" d="M339.1,216.6c0,0-8.7,93.6-5.1,107.3"/>
	<g>
		<path id="XMLID_12193_" class="st3" d="M298.5,131.7c0.2-3.4-1-13.4-1.2-16.6c-0.2-2.9-0.6-5.4-1.2-7.6
			c11.4-19.4-20.1-41.7-31.3-16.7c-3.5,7.8-3,22.9-3,25.5c0.1,3.4,0.1,14.6,0.1,17.5c0.1,16.3,24.2,29.2,33.8,8"/>
		<path id="XMLID_12192_" class="st4" d="M290.4,149.3c-11.1,9.6-28.4-1.8-28.5-15.5c0-2.9-0.1-14.1-0.1-17.5
			c-0.1-2.6-0.5-17.7,3-25.5c11.2-25,42.7-2.7,31.3,16.8c0.6,2.1,1,4.6,1.2,7.6c0.2,3.2,1.4,13.1,1.1,16.6l-2.8,10.1
			c-0.5,1.1-1,2.2-1.6,3.1"/>
	</g>
	<g>
		<path class="st0" d="M316.2,340.8c0,0-3.6,57.8-3.4,102.4c0.1,5.2,0.2,10.1,0.2,14.5l0,0c0.3,10.9-0.2,15.8-1.1,16.9
			c-2.9,25.8,0.3,124.2,0.3,124.2l-16.9,1.5c0,0,3.2-59.2,1.2-99.4c-2.1-40.2-5.1-148-8.5-153.6"/>
		<path id="XMLID_12191_" class="st0" d="M307.1,467.9c0,0-1.2-2-2.9-1"/>
		<path id="XMLID_12190_" class="st0" d="M300.3,483c0,0,2.7-0.8,2.8-1.5"/>
		<g id="XMLID_12188_">
			<path id="XMLID_12189_" class="st0" d="M309.5,595.6c6.1-5,11.2,7.1,2.2,8.2"/>
		</g>
		<g id="XMLID_12186_">
			<path id="XMLID_12187_" class="st0" d="M299.6,472c-6.1-5-11.2,7.1-2.2,8.2"/>
		</g>
		<g>
			<path class="st0" d="M317.7,620.5c-0.5-1.8-1.5-3.8-2.6-6.3c-1-2.3-2-5.1-2.9-8.5c0.1,0,0.2,0,0.2,0s0,0,0-0.1c0-0.5,0-3-0.2-6.9
				l-15.2-1.3h-0.8h-0.9c-0.1,1.1-0.2,1.9-0.3,2.4v0.2c-0.1,0.1-0.2,0.2-0.2,0.3c-0.4,0.4-0.6,0.7-0.6,0.7s-0.6,0.6-1.7,1.6
				c-1.9,10.8-9.4,17.1-18.2,20.8c0.1,0.9,0.5,1.8,1.3,2.5c0.2,0.2,0.5,0.5,0.9,0.8c1.1,0.8,3,1.5,5.4,2c1.8,0.3,3.9,0.7,6.2,0.8
				c1.5,0.1,3,0.2,4.5,0.3c1.2,0,2.5,0.1,3.7,0.2c1.2,0,2.5,0,3.7-0.2c1.6,0,3.1-0.2,4.5-0.3c2.3-0.2,4.4-0.5,6.2-0.8
				c2.3-0.5,4.2-1.1,5.4-2c0.4-0.2,0.7-0.5,0.9-0.8c1-1,1.4-2.2,1.3-3.4C318.1,621.9,318,621.2,317.7,620.5z"/>
			<g>
				<g id="XMLID_12184_">
					<path id="XMLID_12185_" class="st0" d="M260.5,625.1c0,0,6.1-0.6,3.9,4.3C262.2,634.3,255.4,628.5,260.5,625.1z"/>
				</g>
				<g id="XMLID_12182_">
					<path id="XMLID_12183_" class="st0" d="M264,624.5c0,0,6.7-0.7,4.3,4.8C265.8,634.6,258.3,628.2,264,624.5z"/>
				</g>
				<g id="XMLID_12180_">
					<path id="XMLID_12181_" class="st0" d="M268.2,623.3c0,0,7.8-0.8,5,5.5C270.4,635.2,261.7,627.7,268.2,623.3z"/>
				</g>
				<g id="XMLID_12178_">
					<path id="XMLID_12179_" class="st0" d="M273.6,622.2c0,0,9-0.8,5.7,6.3C276.1,635.7,266.1,627.2,273.6,622.2z"/>
				</g>
				<path id="XMLID_12177_" class="st0" d="M284.1,631.3c0,0-10.6,0.7-5.7-6.2s13.6,0.2,14.3,3.1
					C293.4,631.1,284.1,631.3,284.1,631.3z"/>
			</g>
		</g>
	</g>
	<g>
		<g id="XMLID_12175_">
			<path id="XMLID_12176_" class="st0" d="M331,266.6c6.1-5,11.2,7.1,2.2,8.2"/>
		</g>
		<path id="XMLID_12174_" class="st0" d="M338,197.6c-1.3,30.4-2.5,63.1-3.4,81.4c-2,40.2,1.2,99.4,1.2,99.4l-16.9-1.5
			c0,0,3.5-104.4,0-126.4c-2-12.6,0.4-52.4,2.2-85.2"/>
		<path id="XMLID_12173_" class="st0" d="M328,266.8c0,0,2.3,0.1,2.3,2"/>
		<path id="XMLID_12172_" class="st0" d="M327.3,273.3c0,0-2.7-0.9-2.9-1.5"/>
		<g id="XMLID_12159_">
			<path id="XMLID_12171_" class="st3" d="M315.1,405.8c2.9,0.8,4.9,0.9,6.3,0.8c-0.8,10.8,4.5,7.6,7,5.5l1.1,0.5
				c3.5,6.4,7.7,0.1,8.9-2l0.1,1.5c5.6,2.9,5.3-3.2,4.8-6.5c0.5,1,2,2,5.9,1.9c7.3-0.1-14-35.1-14-35.1l-16.2,3.8
				C318.9,376.1,300.3,402,315.1,405.8z"/>
			<path id="XMLID_12170_" class="st0" d="M318.9,376.1c0,0-18.6,25.9-3.8,29.6c2.9,0.8,4.9,0.9,6.3,0.8c-0.8,10.8,4.5,7.6,7,5.5
				l1.1,0.5c3.5,6.4,7.7,0.1,8.9-2l0.1,1.5c5.6,2.9,5.3-3.2,4.8-6.5c0.5,1,2,2,5.9,1.9c7.3-0.1-14-35.1-14-35.1"/>
			<g id="XMLID_12163_">
				<g id="XMLID_12165_">
					<path id="XMLID_12169_" class="st1" d="M335.1,372.4c0,0,21.4,35,14,35.1c-7.3,0.1-6-3.5-6.2-3.8c0,0,3,12.2-4.5,8.4"/>
					<path id="XMLID_12168_" class="st1" d="M338.6,409.9c0,0-5.2,10.5-9.4,2.1"/>
					<path id="XMLID_12167_" class="st1" d="M318.9,376.1c0,0-18.6,25.9-3.8,29.6c14.8,3.8,7.4-6.6,3.2-6.2"/>
					<path id="XMLID_12166_" class="st1" d="M329.7,410.8c0,0-9.8,10.4-8.1-5.5l0.5-8"/>
				</g>
				<path id="XMLID_12164_" class="st1" d="M332.5,371.4c0,0,10-10.1,0-10.9"/>
			</g>
			<path id="XMLID_12162_" class="st0" d="M328.8,396.8c0,0-0.5,4.9,0.4,7.5"/>
			<path id="XMLID_12161_" class="st0" d="M336.7,402.6c0,0,0.2,3.5,0.9,3.5"/>
			<path id="XMLID_12160_" class="st1" d="M337.6,388.6c0.7,2.2,3.6,7,3.6,7"/>
		</g>
	</g>
	<path id="XMLID_12158_" class="st2" d="M313.3,181.2c-2.2,4.2,4.1,60.6,3.8,65.5s1.6,5.5,15.3,5s7-90.3,1.5-98.4
		c-2-2.9-9.6-5.6-18.7-8.1"/>
	<g>
		<path class="st5" d="M308,167.8c0,0-13.7-5.1-14.6-0.4c-0.9,4.8-5.4,20.1,2.8,21.1c8.1,1.1,11.8,0.8,12.1-6.1
			C308.5,175.5,308,167.8,308,167.8z"/>
		<g>
			<path id="XMLID_12157_" class="st0" d="M307.4,168.2c0,0,1.8,1.4,0.8,2.9"/>
			<path id="XMLID_12156_" class="st0" d="M295,167.5c0,0-2.5,1.2-3.2,2.4"/>
			<path id="XMLID_12155_" class="st0" d="M307.8,179.2c0,0,0.8-2.6,0.3-4"/>
			<path id="XMLID_12154_" class="st0" d="M294.3,187.7c0,0,2.5,1.1,3.9,0.8"/>
			<path id="XMLID_12153_" class="st0" d="M306.2,185.7c0,0-0.9,2.1-2.6,1.4"/>
			<path id="XMLID_12152_" class="st0" d="M292.2,174.8c0,0-0.4,1.9-0.9,2.4"/>
			<line id="XMLID_12151_" class="st4" x1="302" y1="167" x2="299.3" y2="166.9"/>
			<path id="XMLID_12150_" class="st0" d="M291.3,181.9c0,0-0.6,2.7-0.1,4"/>
		</g>
		<g>
			<path id="XMLID_12149_" class="st0" d="M261.2,356.2c0,0-1.7-2.9-0.4-4.6"/>
			<path id="XMLID_12148_" class="st0" d="M265,343.8c0,0-1.9,2-2.2,3.4"/>
			<path id="XMLID_12147_" class="st0" d="M263.9,360.9c0,0,0.8,2.6,1.8,3.5"/>
		</g>
	</g>
	<g id="XMLID_11466_">
		<g id="XMLID_12143_">
			<path id="XMLID_12146_" class="st0" d="M322.6,43.8c0,0,23.2-17.5,5.1-18s-37.6,4.5-35.2,11c2.5,6.5,7.9,6.6,7.9,6.6"/>
			<path id="XMLID_12145_" class="st0" d="M321.4,38c0,0,10.6-6.8,5.6-8.5"/>
			<path id="XMLID_12144_" class="st0" d="M314,40.6c0,0,2.7-10-3.2-8.6c-5.8,1.4-9.7,5.1-3.2,6.8"/>
		</g>
		<path id="XMLID_12142_" class="st6" d="M404,96.3c0,0-5.8-6.6-8.4,1.6S407,103.4,404,96.3z"/>
		<path id="XMLID_12141_" class="st0" d="M390,82.4c0,0-3.8,52.4-65.7,45.2s-73.3-5.4-79.6-35s15.3-45.8,31.8-49.1
			S381.8,16.6,390,82.4z"/>
		<path class="st7" d="M380.8,107c-9.8,6.6-23.9,10.7-44.4,8.3c-61.9-7.4-73.3-5.4-79.5-35c-2.7-12.7-0.3-22.8,4.6-30.6
			c-11.8,7.7-21.3,21.9-16.9,42.8c6.3,29.6,17.6,27.6,79.5,34.9C355.8,131.3,372.3,119.5,380.8,107z"/>
		<path id="XMLID_12140_" class="st2" d="M375.2,124.6c2.1-0.2,4.7-1.1,8-2.9v-0.1l0,0c0.7-0.4,1.4-0.8,2.2-1.3
			c9.2-5.9,14.5-15.4,17.2-24.2c16.9-37.6-18.8-41.4-32.2-41.5c-1.3,0,0.2,16.9,4,32.4c-7.9,19.6-16.7,38.1-16.7,38.1
			S369.1,126.4,375.2,124.6z"/>
		<path id="XMLID_12139_" class="st0" d="M318.9,77c0,0-7,9.3-2.7,21.5"/>
		<path id="XMLID_12138_" class="st0" d="M318.6,54.1c0,0-3.2-15.1-1.9-18.3"/>
		<path id="XMLID_12137_" class="st0" d="M250.1,64.1c0,0-5.8-6.2-8.3,6.7s0.9,21.4,5.7,18.8"/>
		<path id="XMLID_12136_" class="st2" d="M365.3,45.3c0,0,8.1,20.1,3,43.7c-5.2,23.6-10.7,35.8-10.7,35.8
			c26-7.6,26.2-53.2,24.7-76.2C380.8,25.5,372,31.7,372,31.7S367.8,35.1,365.3,45.3z"/>
		<path id="XMLID_12135_" class="st0" d="M365.3,45.3c0,0,11-39.8,13.5,15.3c2.4,55.1-21.2,64.2-21.2,64.2S379.7,73.9,365.3,45.3z"
			/>
		<g>
			<path id="XMLID_12134_" class="st0" d="M314.3,73.6c0,0,11.8-9.4,18.3-9.1"/>
			<g id="XMLID_12131_">
				<path id="XMLID_12133_" class="st0" d="M313,57.2c-3.1,0.3-5.2,1.3-5.6,3.3c-0.2,1.1-0.2,2.1,0,2.8c0.1,0.7,0.4,1.2,0.6,1.6"/>
				<path id="XMLID_12132_" class="st0" d="M350.4,67.4c0,0-19.2-7.2-32.9-9.3"/>
			</g>
			<g id="XMLID_12125_">
				<path id="XMLID_12130_" class="st0" d="M311.4,53.8c0,0-8.1-6.9-10.4,4.2"/>
				<path id="XMLID_12129_" class="st0" d="M311.4,73c0,0-6.2,7.4-10.4-3.1"/>
				<path id="XMLID_12128_" class="st0" d="M306.3,67.5c-0.3,1.1,1.9,2.6,0,3.8c-1.9,1.2-1.3-0.2-1.8-1.7
					C304.2,68,306.7,66.4,306.3,67.5z"/>
				<path id="XMLID_12127_" class="st0" d="M303.6,56.9c0.1-2.1,1.8-2.6,2.7-1.5c0.3,0.4-0.2,1.6-0.9,2.7
					C304.8,59,303.6,56.9,303.6,56.9z"/>
				<path id="XMLID_12126_" class="st0" d="M315.6,64.4c0,0,0,2.2-0.7,2.7"/>
			</g>
			<path id="XMLID_12124_" class="st0" d="M306.4,49.7c0,0-3.1-6.1-3.7-7.8"/>
			<path id="XMLID_12122_" class="st0" d="M308.1,77.4c0,0-3.4,7.1-3.3,7.8"/>
		</g>
		<path id="XMLID_12121_" class="st0" d="M338.5,107.6c0,0-2.1,1-3-0.6"/>
		<path id="XMLID_12120_" class="st0" d="M317.4,102.1c0,0-1.9-0.4-2.5-1"/>
		<path id="XMLID_12119_" class="st0" d="M354,102.7c0,0,3.5,0.8,3.5,0"/>
		<path id="XMLID_12118_" class="st0" d="M365.8,51.6c0,0-0.5,3.3-1,2.9"/>
		<path id="XMLID_12117_" class="st0" d="M359.6,71.8c0,0,0.5,3.8,1.3,4.1"/>
		<path id="XMLID_12116_" class="st0" d="M265.3,53c0,0-0.6,2.8-1.2,3"/>
		<path id="XMLID_12115_" class="st0" d="M264.1,76.4c0,0-1.2-2.6-2.4-3.3"/>
		<path id="XMLID_12114_" class="st0" d="M325.8,50.4"/>
		<path id="XMLID_12113_" class="st0" d="M323.6,68.7"/>
		<line id="XMLID_12112_" class="st4" x1="303.2" y1="94.9" x2="303.9" y2="97.6"/>
		<path id="XMLID_12111_" class="st0" d="M316.1,120.2c0,0,21.6,19.4,3.6,18.4c-18.1-1.1-37.1-7.7-34.1-13.9s8.4-5.9,8.4-5.9"/>
		<path id="XMLID_12110_" class="st0" d="M314.3,125.8c0,0,10,7.7,4.9,9"/>
		<path id="XMLID_12109_" class="st0" d="M307.2,122.6c0,0,1.8,10.2-3.9,8.3c-5.6-1.9-9.2-5.9-2.6-7.1"/>
		<g>
			<path id="XMLID_12108_" class="st8" d="M357.5,37.9c0,0,3.5,35.8-25.3,22.8C303.4,47.7,337.5,7.9,357.5,37.9z"/>
			<path id="XMLID_12107_" class="st6" d="M342.7,39.5c0,0,2.1,5.3-3.4,4.8S337.9,35.8,342.7,39.5z"/>
			<path id="XMLID_12106_" class="st8" d="M353.5,77.7c0,0-23.1-26.3-33.7,6.4C309.3,116.8,365.3,106.2,353.5,77.7z"/>
			<path id="XMLID_12105_" class="st6" d="M339.4,95.9c0,0,2.1,5.4-3.4,4.8S334.7,92.2,339.4,95.9z"/>
			<path id="XMLID_12104_" class="st6" d="M358.2,79.8c0,0-1.4-12.1-9.9-3.4s-0.3,25.2,2.7,24.3S359.1,98.2,358.2,79.8z"/>
			<path id="XMLID_12103_" class="st6" d="M363.3,44.7c0,0,1.1-18.6-9.3-10c-10.3,8.6,0.2,23.9,4.6,25.1S363.3,44.7,363.3,44.7z"/>
			<g id="XMLID_11476_">
				<path id="XMLID_12102_" class="st0" d="M320.9,99.5c-0.1,0.2-0.2,0.4-0.2,0.7c-0.2,0.9-0.4,1.8,0.6,2.8c2.5,2.2,3.2-2.9,3.2-2.9
					l0.4-5.7c0,0,0.8-12.1-1.1-19.2c0,0-5.6,10.5-5.2,16.9c0,0.8,0.1,1.4,0.4,2.1C319.3,94.8,321.2,98.4,320.9,99.5z"/>
				<path id="XMLID_12101_" class="st0" d="M327.9,41.8c0,0,1.3,7.1-1.1,14.9c0,0-8.4-3.8-4.5-16.4c1.2-4.1-1-4.9,1.3-7.2
					c2.5-2.2,3.2,2.9,3.2,2.9L327.9,41.8z"/>
			</g>
		</g>
		<g id="XMLID_11471_">
			<path id="XMLID_11475_" class="st6" d="M286.8,50.1c0,0-2.5-19.2-9.5-8.5C270.4,52.3,286.8,50.1,286.8,50.1z"/>
			<path id="XMLID_11474_" class="st6" d="M292.5,47.3c0,0,0.8-15.8-7.3-8.6c-8.2,7.3,0.2,20.3,3.7,21.4S292.5,47.3,292.5,47.3z"/>
			<path id="XMLID_11473_" class="st6" d="M288.4,79c0,0,2.6-7.7-7.2-6.4s-8.1,14.7-5.3,15.5S283.4,90.2,288.4,79z"/>
			<path id="XMLID_11472_" class="st6" d="M291,72.4c0,0,2.8-22.5-8-0.3S287.6,98,291,72.4z"/>
		</g>
		<g id="XMLID_11467_">
			<path id="XMLID_11470_" class="st0" d="M277.4,52.3c0,0-11.7,11.8,0,18.3"/>
			<path id="XMLID_11469_" class="st0" d="M279.3,55c0,0,3.5,3.2,0,5.6"/>
			<path id="XMLID_11468_" class="st0" d="M279.3,66.3c0,0,3.5-3.2,0-5.7"/>
		</g>
	</g>
	<path id="XMLID_11465_" class="st0" d="M293,152.2c0.9-0.3,1.7-0.9,2.5-2.2"/>
	<path id="XMLID_11464_" class="st0" d="M261.3,145.3c0,0,0.2,1.1,1,2.1"/>
	<path id="XMLID_11463_" class="st0" d="M268.4,154.8c0.2,0.1,0.5,0.3,0.9,0.4"/>
	<path id="XMLID_11462_" class="st2" d="M241.5,297.7c0,0,2.8-93.9-1.7-107.4"/>
</g>
</svg>
