<?xml version="1.0" encoding="utf-8"?>
<!-- Generator: Adobe Illustrator 22.1.0, SVG Export Plug-In . SVG Version: 6.00 Build 0)  -->
<svg version="1.1" id="Layer_1" xmlns="http://www.w3.org/2000/svg" xmlns:xlink="http://www.w3.org/1999/xlink" x="0px" y="0px"
	 viewBox="0 0 513 385" style="enable-background:new 0 0 513 385;" xml:space="preserve">
<style type="text/css">
	.st0{fill:#A36B78;stroke:#584C4F;stroke-width:2;stroke-linecap:round;stroke-miterlimit:10;}
	.st1{fill:#B66C7E;stroke:#584C4F;stroke-width:2;stroke-miterlimit:10;}
	.st2{fill:#FFFAF2;stroke:#584C4F;stroke-width:2;stroke-miterlimit:10;}
</style>
<g>
	<g>
		<g>
			<path id="XMLID_17289_" class="st0" d="M-53.3,151.4c33.2,2.1,73.9,4.1,95.1,5.5c38.4,2.5,94.8,0.4,94.8,0.4l-1.6,16.1
				c0,0-99.5-4.8-120.5-1.9c-15,2.1-70.4-2.9-102.8-4.7"/>
			<path class="st0" d="M134,158c2.1-1.9,5.8-3.5,11.8-3.4c2.9,0.1,7.2-0.3,7.8-0.2c1,0.3,6.2,0.1,8.1,0.6c0.2-0.6,0.7-1,1.2-0.9
				c1.1,0.4,8.6,0,8.8,1.1c0.2,1.1,0.4,2.2-0.1,2.3c0,0-7.2,0.9-9.1,0.1c-0.1,0.1-0.1,0.1-0.2,0.1c0,0-4.2,0.5-7,0.4
				c0.6,1,0.8,2.2,0.9,3.5c1.4,0.1,8.1-1.9,10.2-1.5c0.2-0.4,0.5-0.6,0.9-0.6c1.5,0.1,10.2-2.5,10.8-1.1c0.6,1.4,1.3,2.7,0.7,3
				c0,0-8.4,3.2-10.8,2.8c-0.3-0.1-0.6-0.2-0.9-0.5c-1.9,0.7-8.2,3-10.2,2.5c-0.3-0.1-0.8,1.9-0.6,1.9c1.4,0.4,9.2,0.3,11.3,1.3
				c0.3-0.4,0.7-0.6,1.1-0.4c1.5,0.5,11.5,0.2,11.8,1.8c0.3,1.6,0.6,3.2-0.1,3.3c0,0-9.8,1.1-12.2-0.1c-0.4-0.2-0.6-0.4-0.8-0.7
				c-2.2,0.2-9.5,0.9-11.5-0.1c-0.3-0.1-0.7,0.3-0.7,0.8c0,0.6,0.1,1.5,0.2,1.6c1.2,0.7,8.7,2,10.6,3.2c0.4-0.2,0.8-0.3,1.1-0.2
				c1.4,0.8,11,2.4,11,3.8c0,1.4-0.1,2.9-0.7,2.9c0,0-9.6-0.9-11.7-2.4c-0.3-0.2-0.5-0.5-0.7-0.8c-2.2-0.2-9.3-1.1-11-2.3
				c-0.5-0.4-4.2,0-6.2,0c2.4,1.8,5.6,4.3,5.2,5.2c-0.6,1.3-1.1,2.7-1.7,2.4c0,0-7.4-3.9-8.6-6c-0.1,0-0.2,0-0.2,0c0,0-7.5-4-8.6-6
				c-0.1-0.2-0.1-0.3-0.2-0.4c-1.8-1.4-2.8-2.9-3.3-4.3"/>
			<path class="st0" d="M133.3,158.7c0.2-0.2,0.5-0.5,0.7-0.7"/>
			<path id="XMLID_17288_" class="st0" d="M126.2,160.5c0,0,9-12.8,9.4,0.2"/>
			<path class="st1" d="M179,173.8c0,0,1.6,0.5,1.6-0.6c0-1.1,0.5-2.2-1.1-2.1c-1.6,0.1-1.6,1.1-1.6,1.1S177.4,173.3,179,173.8z"/>
			<path class="st1" d="M176,184.8c0,0,1.6,0.6,1.6-0.5c0-1.1,0.6-2.1-1.1-2.2c-1.6,0-1.6,1-1.6,1S174.4,184.2,176,184.8z"/>
			<path class="st1" d="M170.2,157c0,0,1.6,0.6,1.6-0.5c0-1.1,0.6-2.1-1.1-2.2c-1.6,0-1.6,1.1-1.6,1.1S168.5,156.5,170.2,157z"/>
			<path class="st1" d="M177.1,161.9c0,0,2.1,0.1,1.7-1.1c-0.3-1.2-0.1-2.7-1.9-2.2c-1.9,0.5-1.6,1.8-1.6,1.8S175,161.8,177.1,161.9
				z"/>
			<path class="st1" d="M150.4,186.9c0,0,1.4,1,1.7-0.1c0.3-1,1.1-1.9-0.4-2.4c-1.5-0.5-1.8,0.6-1.8,0.6S149.1,185.9,150.4,186.9z"
				/>
			<path id="XMLID_17287_" class="st0" d="M152.7,159.7c0,0-3.3-2.1-0.1-2.4"/>
			<path id="XMLID_17286_" class="st0" d="M152.4,165.1c0,0-3.3-2.1-0.1-2.4"/>
			<path id="XMLID_17285_" class="st0" d="M152.5,170.9c0,0-3.3-2.1-0.1-2.4"/>
			<path id="XMLID_17284_" class="st0" d="M152.3,176.4c0,0-3.3-2.1-0.1-2.4"/>
			<path id="XMLID_17283_" class="st0" d="M145.5,181.6c0,0-6.1,3.1-3.6-2"/>
			<path id="XMLID_17282_" class="st0" d="M163,180c-0.1-0.4,0.2-0.8,1.4-0.9"/>
			<path id="XMLID_17281_" class="st0" d="M165.5,171.9c0.2-0.4,0.4-0.9,0.7-1.4"/>
			<path id="XMLID_17280_" class="st0" d="M165.5,161"/>
			<path id="XMLID_17279_" class="st0" d="M164.1,161.8c-0.1-0.3,0.1-0.5,0.7-0.7"/>
			<path id="XMLID_17278_" class="st0" d="M161.4,156"/>
			<path id="XMLID_17277_" class="st0" d="M160.5,156.6c-0.1-0.3-0.1-0.6,0.1-0.8"/>
			<path id="XMLID_17276_" class="st0" d="M173.4,183.7c-0.3-0.2-0.4-0.7,0.4-1.6"/>
			<path id="XMLID_17275_" class="st0" d="M176.4,173c0-0.4,0-1,0-1.6"/>
			<path id="XMLID_17274_" class="st0" d="M174.5,161.6c-0.2-0.2-0.3-0.4-0.1-1"/>
			<path id="XMLID_17273_" class="st0" d="M168.2,156.2c-0.1-0.3-0.1-0.6,0.1-0.8"/>
		</g>
		<path id="XMLID_17272_" class="st2" d="M159.8,161.4c0,0.1,0.6,4.4,0.5,4.8c0,0-0.1,0.2-0.2,0.3c-0.1,0.1-0.3,0.3-0.4,0.3
			c0,0-0.8,0.1-0.8,0.1c-0.2,0.1-0.5-0.1-0.8-0.6c-0.2-0.4-0.6-4.8-0.6-4.9c0-0.3,0.2-0.5,0.4-0.5c0.1-0.1,0.8-0.1,0.9-0.1
			C159.2,160.7,159.7,160.9,159.8,161.4z"/>
		<path id="XMLID_17271_" class="st2" d="M157.9,161.2c0,0-0.1-0.1-0.2,0.1"/>
		<path id="XMLID_17270_" class="st2" d="M160.1,166.1c0,0-0.1,0.2-0.1,0.2"/>
	</g>
</g>
</svg>
