<?xml version="1.0" encoding="utf-8"?>
<!-- Generator: Adobe Illustrator 22.1.0, SVG Export Plug-In . SVG Version: 6.00 Build 0)  -->
<svg version="1.1" id="Layer_1" xmlns="http://www.w3.org/2000/svg" xmlns:xlink="http://www.w3.org/1999/xlink" x="0px" y="0px"
	 viewBox="0 0 1504.4 443.8" style="enable-background:new 0 0 1504.4 443.8;" xml:space="preserve">
<style type="text/css">
	.st0{opacity:0.1;fill:#584C4F;stroke:#584C4F;stroke-width:6;stroke-linecap:round;stroke-miterlimit:10;}
	.st1{fill:#FFD767;stroke:#584C4F;stroke-width:6;stroke-miterlimit:10;}
	.st2{fill:#FFFAF2;stroke:#584C4F;stroke-width:6;stroke-miterlimit:10;}
</style>
<g id="Layer_5">
</g>
<g id="Layer_3">
</g>
<path class="st0" d="M62.1,179c13.5,4.3,26.2,2.6,37-2.8c3.7,4.8,10.4,8.1,22,1.3c14.8-8.7,9.8-21.2,4.5-28.8
	c9.1-19.2,7.4-42.5-12.3-57c-42.7-31.3-76,8-76,8S10,162.4,62.1,179z M60.3,124.3c0,0,18.9-34.1,33.7-1S42.9,147.2,60.3,124.3z"/>
<path class="st0" d="M168.4,177.8c24-10.5,12.2-124.3,1.1-133.1c-11.1-8.8-42.1-62.9-30.1,113.6
	C139.4,158.3,144.4,188.3,168.4,177.8z"/>
<path class="st0" d="M222.5,44.7c-11.1-8.8-42.1-62.9-30.1,113.6c0,0,5,30,29,19.4C245.4,167.3,233.6,53.5,222.5,44.7z"/>
<path class="st0" d="M340.4,174.4c10.8,15.8,32.9,10.4,32.1-14.7c-1.3-40.1,12.4-43.4,28.2-37.2c5.5,2.2,11.9,2.7,16.9,1.4
	c-3.1,26,8.8,61.6,19.7,59.3c10.2-2.1,16.9-8.1,19.3-23.5c3.2,12.3,11.6,23.7,29.6,29.5c12.3,3.9,24,2.8,34.1-1.7
	c-2.6,9.3-7.9,16.5-17.9,21c-34.8,15.3,0,29.8,0,29.8c53.1,0.3,54.4-37.2,52.9-84c3.7,16.8,10.9,30.4,17.8,28.9
	c15.9-3.3,23.2-15.8,19.2-59.2c0,0,6.8-35.6-23.2-25.5c-8.2,2.7-12.8,10.5-14.8,20.2c-2.5-44.2-25.6-28.6-32.1-23.4
	c-34.7-13.9-60.2,16.1-60.2,16.1s-2.9,6.8-5,16.4c-0.1-1.2-0.2-2.5-0.3-3.8c0,0,6.8-35.6-23.2-25.5c-3.7,1.2-6.7,3.5-9,6.6
	c-1.4-3-3.4-6.4-6.3-10.1c0,0-26.6-18.3-50.6-6.6c-3.6-4.7-10.1-7.7-21.3-1.1c-3.3,1.9-5.6,4.1-7.1,6.3c-12-9-27.7-13-44.5-7.7
	c-51.2,16.3-24.3,77.8-24.3,77.8S300.6,199.5,340.4,174.4z M493.3,124.8c0,0,36.8-10.5,24.1,22.7
	C504.6,180.8,465.3,128.6,493.3,124.8z M325.6,127.5c12.8,33.3-24.1,22.7-24.1,22.7C273.6,146.4,312.9,94.2,325.6,127.5z"/>
<path class="st0" d="M1167.1,173.1c5.9,12.4,21,16.9,31,18.5c2.8,0.6,5.9,0.9,9.1,0.9c0.2,0,0.3,0,0.3,0l0,0
	c3.5-0.1,7.2-0.5,11.2-1.4c12.4-2.8,21.7-9.6,28.1-18.4c0,0.2,0,0.4,0.1,0.6c0,0,0,0,0,0c0,0.2,0.1,0.4,0.1,0.6c0,0.1,0,0.1,0.1,0.2
	c0,0.2,0.1,0.3,0.2,0.5c0,0.1,0.1,0.2,0.1,0.2c0.1,0.2,0.1,0.3,0.2,0.5c0,0.1,0.1,0.1,0.1,0.2c0.1,0.2,0.3,0.4,0.4,0.7
	c0,0,0,0.1,0.1,0.1c0.1,0.2,0.3,0.4,0.4,0.6c0.1,0.1,0.1,0.2,0.2,0.2c0.1,0.2,0.3,0.3,0.4,0.5c0.1,0.1,0.1,0.2,0.2,0.3
	c0.1,0.2,0.3,0.3,0.5,0.5c0.1,0.1,0.1,0.1,0.2,0.2c0.2,0.2,0.5,0.5,0.7,0.7c0.1,0.1,0.1,0.1,0.2,0.2c0.2,0.2,0.4,0.3,0.6,0.5
	c0.1,0.1,0.2,0.2,0.3,0.3c0.2,0.1,0.4,0.3,0.6,0.4c0.1,0.1,0.2,0.2,0.4,0.3c0.2,0.2,0.4,0.3,0.6,0.5c0.1,0.1,0.2,0.2,0.3,0.2
	c0.3,0.2,0.6,0.4,1,0.7c0.1,0.1,0.3,0.2,0.4,0.3c0.2,0.1,0.4,0.3,0.7,0.4c0.2,0.1,0.3,0.2,0.5,0.3c0.2,0.1,0.4,0.2,0.6,0.4
	c0.2,0.1,0.4,0.2,0.5,0.3c0.2,0.1,0.4,0.2,0.7,0.4c0.3,0.1,0.5,0.3,0.8,0.4c0.3,0.2,0.6,0.3,0.9,0.5c0.2,0.1,0.5,0.2,0.7,0.3
	c0.2,0.1,0.4,0.2,0.6,0.3c0.2,0.1,0.5,0.2,0.7,0.3c0.2,0.1,0.4,0.2,0.6,0.3c0.3,0.1,0.5,0.2,0.8,0.4c0.1,0.1,0.3,0.1,0.4,0.2
	c0.6,0.3,1.3,0.5,1.9,0.8c0.1,0,0.1,0.1,0.2,0.1c0.3,0.1,0.6,0.2,1,0.4c0.1,0.1,0.3,0.1,0.4,0.2c0.3,0.1,0.6,0.2,1,0.3
	c0.1,0,0.3,0.1,0.4,0.1c0.4,0.1,0.7,0.2,1.1,0.4c0,0,0,0,0,0c1.3,0.4,2.5,0.8,3.9,1.1c0.1,0,0.2,0,0.3,0.1c0.4,0.1,0.8,0.2,1.2,0.3
	c0.1,0,0.1,0,0.2,0c1.8,0.4,3.6,0.8,5.4,1.1c0,0,0.1,0,0.1,0c2.3,0.4,4.7,0.6,7.1,0.6c0,0,0,0,0,0c2.4,0.1,4.8,0,7.1-0.3
	c0,0,0,0,0,0c2.3-0.3,4.6-0.7,6.8-1.4c0,0,0,0,0,0c1.8-0.5,3.5-1.2,5.1-2c0,0,0,0,0,0c0.4-0.2,0.8-0.4,1.2-0.6c0,0,0,0,0.1,0
	c1.6-0.9,3.1-1.9,4.5-3.1c0,0,0.1-0.1,0.1-0.1c0.3-0.3,0.7-0.6,1-0.9c0,0,0.1-0.1,0.1-0.1c1.3-1.3,2.6-2.7,3.7-4.3
	c0.1-0.1,0.1-0.2,0.2-0.2c0.3-0.4,0.5-0.7,0.8-1.1c0.1-0.1,0.1-0.2,0.2-0.3c0.2-0.4,0.5-0.8,0.7-1.2c0,0,0-0.1,0.1-0.1
	c0.7-1.3,1.4-2.7,2-4.2c0.1-0.2,0.2-0.4,0.2-0.6c0.1-0.4,0.3-0.8,0.4-1.2c0.1-0.2,0.2-0.5,0.3-0.8c0.1-0.4,0.3-0.8,0.4-1.2
	c0.1-0.3,0.2-0.6,0.2-0.9c0.1-0.4,0.2-0.8,0.3-1.2c0.1-0.4,0.2-0.7,0.3-1.1c0.1-0.6,0.2-1.2,0.4-1.8c0.1-0.5,0.2-1,0.3-1.5
	c0.1-0.4,0.1-0.7,0.2-1.1c0.1-0.5,0.1-0.9,0.2-1.4c0-0.4,0.1-0.8,0.1-1.1c0-0.5,0.1-1,0.1-1.5c0-0.4,0.1-0.8,0.1-1.1
	c0-0.5,0.1-1.1,0.1-1.7c0-0.4,0-0.7,0-1.1c0-0.9,0-1.8,0-2.7c0,0,0-0.1,0-0.1l0,0v0c-1.4-4.8-3.9-8.7-7.1-12
	c-1.2-1.3-2.5-2.4-3.7-3.3c-8.9-6.8-21.4-9.8-32.4-10.1c0,0,0,0,0,0c0-0.1,0.1-0.3,0.1-0.4c0-0.1,0-0.1,0.1-0.2
	c0-0.1,0.1-0.2,0.1-0.4c0-0.1,0.1-0.1,0.1-0.2c0-0.1,0.1-0.2,0.1-0.3c0-0.1,0.1-0.2,0.1-0.2c0-0.1,0.1-0.2,0.1-0.3
	c0-0.1,0.1-0.2,0.1-0.3c0-0.1,0.1-0.1,0.1-0.2c0.1-0.1,0.1-0.2,0.2-0.3c0-0.1,0.1-0.1,0.1-0.2c0.1-0.1,0.2-0.2,0.2-0.3
	c0,0,0.1-0.1,0.1-0.1c0.1-0.1,0.2-0.2,0.3-0.3c0,0,0.1-0.1,0.1-0.1c0.1-0.1,0.2-0.2,0.4-0.3c0,0,0.1,0,0.1-0.1
	c0.1-0.1,0.3-0.2,0.4-0.3c0,0,0,0,0.1,0c0.2-0.1,0.3-0.2,0.5-0.3c0,0,0,0,0,0c4.4-2.2,12.9-1.2,29,6.6c0,0,15.2-0.8,15.6-12.8
	c0-0.8,0-1.7-0.1-2.6c0-0.2-0.1-0.4-0.1-0.6c0,0,0-0.1,0-0.1c-0.1-0.2-0.1-0.4-0.2-0.6c0,0,0-0.1-0.1-0.1c-0.1-0.2-0.2-0.4-0.3-0.6
	c0,0,0,0,0,0c-2.9-5.4-13.9-11.9-26.6-15.1c0,0,0,0,0,0c-1.7-0.4-3.5-0.8-5.2-1.1c-0.1,0-0.1,0-0.2,0c-0.5-0.1-1-0.2-1.5-0.2
	c-0.1,0-0.2,0-0.3,0c-0.5-0.1-1.1-0.1-1.6-0.2c0,0-0.1,0-0.1,0c-0.6-0.1-1.2-0.1-1.7-0.2c-0.1,0-0.1,0-0.2,0c-0.5,0-1-0.1-1.5-0.1
	c-0.2,0-0.3,0-0.5,0c-0.4,0-0.8,0-1.2,0c-0.2,0-0.4,0-0.5,0c-0.4,0-0.9,0-1.3,0c-0.1,0-0.2,0-0.4,0c-0.5,0-1.1,0-1.6,0.1
	c-0.2,0-0.4,0-0.6,0c-0.4,0-0.7,0.1-1.1,0.1c-0.2,0-0.5,0-0.7,0.1c-0.3,0-0.6,0.1-0.9,0.1c-0.2,0-0.5,0.1-0.7,0.1
	c-0.3,0-0.7,0.1-1,0.2c-0.3,0.1-0.6,0.1-0.9,0.2c-0.4,0.1-0.7,0.1-1.1,0.2c-0.3,0.1-0.5,0.1-0.8,0.2c-0.3,0.1-0.5,0.1-0.8,0.2
	c-0.3,0.1-0.5,0.1-0.8,0.2c-0.2,0.1-0.5,0.1-0.7,0.2c-0.3,0.1-0.5,0.2-0.8,0.3c-0.2,0.1-0.5,0.2-0.7,0.3c-0.5,0.2-0.9,0.4-1.4,0.6
	c-0.2,0.1-0.4,0.2-0.6,0.3c-0.3,0.1-0.5,0.3-0.8,0.4c-0.2,0.1-0.4,0.2-0.6,0.3c-0.3,0.1-0.5,0.3-0.8,0.4c-0.2,0.1-0.4,0.2-0.6,0.3
	c-0.3,0.2-0.5,0.3-0.8,0.5c-0.1,0.1-0.3,0.2-0.4,0.3c-0.5,0.3-1.1,0.7-1.6,1.1c-0.2,0.1-0.3,0.2-0.5,0.3c-0.3,0.2-0.5,0.4-0.8,0.6
	c-0.2,0.1-0.3,0.3-0.5,0.4c-0.2,0.2-0.5,0.4-0.7,0.7c-0.1,0.1-0.3,0.3-0.4,0.4c-0.8,0.8-1.6,1.7-2.4,2.6c-0.1,0.1-0.2,0.2-0.3,0.3
	c0,0-0.1,0.1-0.1,0.1c-0.2,0.3-0.4,0.6-0.7,0.9c-0.1,0.2-0.2,0.3-0.4,0.5c-0.2,0.3-0.4,0.6-0.6,0.9c-0.1,0.2-0.2,0.4-0.3,0.5
	c-0.2,0.3-0.4,0.7-0.6,1c-0.1,0.2-0.2,0.3-0.3,0.5c-0.4,0.7-0.7,1.4-1.1,2.2c-0.1,0.2-0.2,0.3-0.2,0.5c-0.2,0.3-0.3,0.7-0.4,1
	c-0.1,0.3-0.2,0.5-0.3,0.8c-0.1,0.3-0.3,0.7-0.4,1c-0.1,0.3-0.2,0.6-0.3,0.9c-0.1,0.3-0.2,0.7-0.3,1.1c-0.1,0.3-0.2,0.7-0.3,1
	c-0.1,0.3-0.2,0.7-0.3,1c-0.1,0.3-0.2,0.7-0.2,1c-5.6-13.9-17.2-24.7-34.8-26.5c-36-3.6-50.8,19.7-56.4,33.9c0,0-1.3,2.1-2.1,6.3
	c-0.7,2.5-0.9,4.6-0.8,5.5C1158.6,146.3,1159.9,157.9,1167.1,173.1z M1194.5,134c0,0,3.7-3.9,8.5-6.6c0.6,2.2,1.4,4.5,2.7,7
	c3.8,8,12.9,8.8,21.4,6.6c5.3,4.5,11.9,7,18.3,2.5c3.6-2.6,5.9-4.6,7.4-6.4c1.5,3.5,3.5,6.6,6.1,9.2c1.2,1.3,2.5,2.4,3.7,3.3
	c8.9,6.8,21.4,9.8,32.4,10.1c0,0.2-0.1,0.4-0.2,0.6c0,0,0,0,0,0c-0.1,0.2-0.1,0.4-0.2,0.5c0,0,0,0,0,0c-0.1,0.2-0.1,0.3-0.2,0.5
	c0,0,0,0,0,0c-0.1,0.2-0.2,0.3-0.3,0.5c0,0,0,0,0,0c-0.1,0.1-0.2,0.3-0.3,0.4c0,0,0,0,0,0.1c-0.1,0.1-0.2,0.3-0.3,0.4
	c0,0,0,0-0.1,0.1c-0.1,0.1-0.2,0.2-0.3,0.4c0,0,0,0-0.1,0.1c-0.1,0.1-0.2,0.2-0.4,0.3c0,0-0.1,0.1-0.1,0.1c-0.1,0.1-0.3,0.2-0.4,0.3
	c0,0-0.1,0.1-0.1,0.1c-0.1,0.1-0.3,0.2-0.4,0.3c0,0-0.1,0.1-0.1,0.1c-0.1,0.1-0.3,0.1-0.5,0.2c-0.1,0-0.1,0-0.2,0.1
	c-0.2,0.1-0.3,0.1-0.5,0.2c-0.1,0-0.1,0-0.2,0.1c-0.2,0.1-0.3,0.1-0.5,0.1c-0.1,0-0.1,0-0.2,0.1c-0.2,0-0.4,0.1-0.5,0.1
	c-0.1,0-0.2,0-0.2,0c-0.2,0-0.4,0.1-0.6,0.1c-0.1,0-0.2,0-0.3,0c-0.2,0-0.4,0-0.6,0c-0.1,0-0.2,0-0.3,0c-0.2,0-0.4,0-0.6,0
	c-0.1,0-0.2,0-0.3,0c-0.2,0-0.4,0-0.7,0c-0.1,0-0.3,0-0.4,0c-0.2,0-0.5,0-0.7-0.1c-0.1,0-0.3,0-0.4,0c-0.2,0-0.5-0.1-0.7-0.1
	c-0.2,0-0.3,0-0.5-0.1c-0.2,0-0.5-0.1-0.8-0.1c-0.2,0-0.3-0.1-0.5-0.1c-0.3-0.1-0.5-0.1-0.8-0.2c-0.2,0-0.3-0.1-0.5-0.1
	c-0.3-0.1-0.6-0.1-0.8-0.2c-0.2,0-0.4-0.1-0.6-0.1c-0.3-0.1-0.6-0.2-0.9-0.2c-0.2-0.1-0.4-0.1-0.6-0.2c-0.3-0.1-0.6-0.2-0.9-0.3
	c-0.2-0.1-0.4-0.1-0.6-0.2c-0.3-0.1-0.7-0.2-1-0.3c-0.2-0.1-0.4-0.1-0.6-0.2c-0.4-0.1-0.7-0.3-1.1-0.4c-0.2-0.1-0.4-0.2-0.6-0.2
	c-0.4-0.1-0.8-0.3-1.2-0.5c-0.2-0.1-0.4-0.2-0.6-0.2c-0.4-0.2-0.9-0.4-1.3-0.6c-0.2-0.1-0.4-0.2-0.6-0.2c-0.5-0.2-1.1-0.5-1.6-0.7
	c-0.1-0.1-0.2-0.1-0.4-0.2c-1.4-0.6-2.8-1.3-4.2-2c0,0-6.7,0.3-11.3,4.1c-2.4-11.6-13.4-13.1-20.3-14.2c-4-0.6-8.2,1.9-11.3,4.5
	c-0.3,0.3-0.7,0.6-1,0.8C1207.7,161,1179.8,145.6,1194.5,134z"/>
<path class="st0" d="M440.6,83.7C474,69.4,440.1,50,440.1,50C417.4,32.3,407.3,98,440.6,83.7z"/>
<path class="st0" d="M605.8,173.6c8.2,5.3,29.5,34.9,26.6-44.5c9.6-6.3,26-11,21,34.6c0,0,8.2,19.6,24.1,11.5c0,0,0,0,0,0
	c3.6,2.3,7.8,4.3,12.7,5.8c13.5,4.3,26.2,2.6,37-2.8c3.7,4.8,10.4,8.1,22,1.3c5.4-3.2,8.2-6.8,9.2-10.6c3.2,8.1,10.8,19.3,26.9,12.3
	c24-10.5,12.2-124.3,1.1-133.1c-9.7-7.7-34.9-50.6-32.7,59.4c-2.8-5.1-6.9-9.8-12.4-13.8c-34.6-25.4-63.1-4.3-72.6,4.5
	c-9.1-7.8-22.4-11.3-40.9-6.5c-3-5.2-9.2-11.2-21.3-6.8C587,91.9,596.7,167.7,605.8,173.6z M755.9,154.1c-0.7-1.2-1.4-2.4-2.1-3.4
	c0.6-1.3,1.2-2.6,1.7-3.9C755.6,149.1,755.8,151.6,755.9,154.1z M722.1,125.2c12.1,27.3-30.4,25.8-36,11.6c-0.1-1.5-0.3-2.9-0.5-4.4
	c0.3-1.9,1.2-4.1,2.9-6.3C688.5,126.2,707.4,92.1,722.1,125.2z"/>
<path class="st0" d="M1145.7,192.5c0,0,34.8-14.5,0-29.8c-17-7.5-20.4-23-20-42.5l0-0.3c7.1,0.2,17.8-2.4,15.8-20.2
	c-1.3-11.5-7.8-15.5-14.7-16.3l1-32.5c0,0-33.2-31.7-34,27.9S1081.8,192.9,1145.7,192.5z"/>
<path class="st0" d="M576.3,83.7c33.3-14.3-0.5-33.7-0.5-33.7C553.2,32.3,543,98,576.3,83.7z"/>
<path class="st0" d="M866.1,190.1c13.5,4.3,26.2,2.6,37-2.8c3.7,4.8,10.4,8.1,22,1.3c3.2-1.9,5.4-3.9,7-6c0.2,0.1,0.4,0.3,0.6,0.4
	c0.2,0.1,0.3,0.2,0.5,0.3c0.2,0.1,0.4,0.2,0.6,0.4c0.2,0.1,0.4,0.2,0.5,0.3c0.2,0.1,0.4,0.2,0.7,0.4c0.3,0.1,0.5,0.3,0.8,0.4
	c0.3,0.2,0.6,0.3,0.9,0.5c0.2,0.1,0.5,0.2,0.7,0.3c0.2,0.1,0.4,0.2,0.6,0.3c0.2,0.1,0.5,0.2,0.7,0.3c0.2,0.1,0.4,0.2,0.6,0.3
	c0.3,0.1,0.5,0.2,0.8,0.4c0.1,0.1,0.3,0.1,0.4,0.2c0.6,0.3,1.3,0.5,1.9,0.8c0.1,0,0.1,0.1,0.2,0.1c0.3,0.1,0.6,0.2,1,0.4
	c0.1,0.1,0.3,0.1,0.4,0.2c0.3,0.1,0.6,0.2,1,0.3c0.1,0,0.3,0.1,0.4,0.1c0.4,0.1,0.7,0.2,1.1,0.4c0,0,0,0,0,0
	c1.3,0.4,2.5,0.8,3.9,1.1c0.1,0,0.2,0,0.3,0.1c0.4,0.1,0.8,0.2,1.2,0.3c0.1,0,0.1,0,0.2,0c1.8,0.4,3.6,0.8,5.4,1.1c0,0,0.1,0,0.1,0
	c2.3,0.4,4.7,0.6,7.1,0.6c0,0,0,0,0,0c2.4,0.1,4.8,0,7.1-0.3c0,0,0,0,0,0c2.3-0.3,4.6-0.7,6.8-1.4c0,0,0,0,0,0
	c1.8-0.5,3.5-1.2,5.1-2c0,0,0,0,0,0c0.4-0.2,0.8-0.4,1.2-0.6c0,0,0,0,0.1,0c1.6-0.9,3.1-1.9,4.5-3.1c0,0,0.1-0.1,0.1-0.1
	c0.3-0.3,0.7-0.6,1-0.9c0,0,0.1-0.1,0.1-0.1c1.3-1.3,2.6-2.7,3.7-4.3c0.1-0.1,0.1-0.2,0.2-0.2c0.3-0.4,0.5-0.7,0.8-1.1
	c0.1-0.1,0.1-0.2,0.2-0.3c0.2-0.4,0.5-0.8,0.7-1.2c0,0,0-0.1,0.1-0.1c0.7-1.3,1.4-2.7,2-4.2c0.1-0.2,0.2-0.4,0.2-0.6
	c0.1-0.4,0.3-0.8,0.4-1.2c0.1-0.2,0.2-0.5,0.3-0.8c0.1-0.4,0.3-0.8,0.4-1.2c0.1-0.3,0.2-0.6,0.2-0.9c0.1-0.4,0.2-0.8,0.3-1.2
	c0.1-0.4,0.2-0.7,0.3-1.1c0.1-0.6,0.2-1.2,0.4-1.8c0.1-0.5,0.2-1,0.3-1.5c0.1-0.4,0.1-0.7,0.2-1.1c0.1-0.5,0.1-0.9,0.2-1.4
	c0-0.4,0.1-0.8,0.1-1.1c0-0.5,0.1-1,0.1-1.5c0-0.4,0.1-0.8,0.1-1.1c0-0.5,0.1-1.1,0.1-1.7c0-0.4,0-0.7,0-1.1c0-0.9,0-1.8,0-2.7
	c0,0,0-0.1,0-0.1l0,0v0c-1.4-4.8-3.9-8.7-7.1-12c-1.2-1.3-2.5-2.4-3.7-3.3c-8.9-6.8-21.4-9.8-32.4-10.1c0,0,0,0,0,0
	c0-0.1,0.1-0.3,0.1-0.4c0-0.1,0-0.1,0.1-0.2c0-0.1,0.1-0.2,0.1-0.4c0-0.1,0.1-0.1,0.1-0.2c0-0.1,0.1-0.2,0.1-0.3
	c0-0.1,0.1-0.2,0.1-0.2c0-0.1,0.1-0.2,0.1-0.3c0-0.1,0.1-0.2,0.1-0.3c0-0.1,0.1-0.1,0.1-0.2c0.1-0.1,0.1-0.2,0.2-0.3
	c0-0.1,0.1-0.1,0.1-0.2c0.1-0.1,0.2-0.2,0.2-0.3c0,0,0.1-0.1,0.1-0.1c0.1-0.1,0.2-0.2,0.3-0.3c0,0,0.1-0.1,0.1-0.1
	c0.1-0.1,0.2-0.2,0.4-0.3c0,0,0.1,0,0.1-0.1c0.1-0.1,0.3-0.2,0.4-0.3c0,0,0,0,0.1,0c0.2-0.1,0.3-0.2,0.5-0.3c0,0,0,0,0,0
	c4.4-2.2,12.9-1.2,29,6.6c0,0,15.2-0.8,15.6-12.8c0-0.8,0-1.7-0.1-2.6c0-0.2-0.1-0.4-0.1-0.6c0,0,0-0.1,0-0.1
	c-0.1-0.2-0.1-0.4-0.2-0.6c0,0,0-0.1-0.1-0.1c-0.1-0.2-0.2-0.4-0.3-0.6c0,0,0,0,0,0c-2.9-5.4-13.9-11.9-26.6-15.1c0,0,0,0,0,0
	c-1.7-0.4-3.4-0.8-5.2-1.1c-0.1,0-0.1,0-0.2,0c-0.5-0.1-1-0.2-1.5-0.2c-0.1,0-0.2,0-0.3,0c-0.5-0.1-1.1-0.1-1.6-0.2c0,0-0.1,0-0.1,0
	c-0.6-0.1-1.2-0.1-1.7-0.2c-0.1,0-0.1,0-0.2,0c-0.5,0-1-0.1-1.5-0.1c-0.2,0-0.3,0-0.5,0c-0.4,0-0.8,0-1.2,0c-0.2,0-0.4,0-0.5,0
	c-0.4,0-0.9,0-1.3,0c-0.1,0-0.2,0-0.4,0c-0.5,0-1.1,0-1.6,0.1c-0.2,0-0.4,0-0.6,0c-0.4,0-0.7,0.1-1.1,0.1c-0.2,0-0.5,0-0.7,0.1
	c-0.3,0-0.6,0.1-0.9,0.1c-0.2,0-0.5,0.1-0.7,0.1c-0.3,0-0.7,0.1-1,0.2c-0.3,0.1-0.6,0.1-0.9,0.2c-0.4,0.1-0.8,0.2-1.1,0.2
	c-0.3,0.1-0.5,0.1-0.7,0.2c-0.3,0.1-0.5,0.1-0.8,0.2c-0.3,0.1-0.5,0.1-0.8,0.2c-0.2,0.1-0.5,0.1-0.7,0.2c-0.3,0.1-0.5,0.2-0.8,0.3
	c-0.2,0.1-0.5,0.2-0.7,0.3c-0.5,0.2-0.9,0.4-1.4,0.6c-0.2,0.1-0.4,0.2-0.6,0.3c-0.3,0.1-0.5,0.3-0.8,0.4c-0.2,0.1-0.4,0.2-0.6,0.3
	c-0.3,0.1-0.5,0.3-0.8,0.4c-0.2,0.1-0.4,0.2-0.6,0.3c-0.3,0.2-0.5,0.3-0.8,0.5c-0.1,0.1-0.3,0.2-0.4,0.3c-0.5,0.3-1.1,0.7-1.6,1.1
	c-0.2,0.1-0.3,0.2-0.5,0.3c-0.3,0.2-0.5,0.4-0.8,0.6c-0.2,0.1-0.3,0.3-0.5,0.4c-0.2,0.2-0.5,0.4-0.7,0.7c-0.1,0.1-0.3,0.3-0.4,0.4
	c-0.8,0.8-1.6,1.7-2.4,2.6c-0.1,0.1-0.2,0.2-0.3,0.3c0,0-0.1,0.1-0.1,0.1c-0.2,0.3-0.4,0.6-0.7,0.9c-0.1,0.2-0.2,0.3-0.4,0.5
	c-0.2,0.3-0.4,0.6-0.6,0.9c-0.1,0.2-0.2,0.4-0.3,0.5c-0.2,0.3-0.4,0.7-0.6,1c-0.1,0.2-0.2,0.3-0.3,0.5c-0.4,0.7-0.7,1.4-1.1,2.2
	c-0.1,0.2-0.2,0.3-0.2,0.5c-0.2,0.3-0.3,0.7-0.4,1c-0.1,0.3-0.2,0.5-0.3,0.8c-0.1,0.3-0.3,0.7-0.4,1c-0.1,0.3-0.2,0.6-0.3,0.9
	c-0.1,0.3-0.2,0.7-0.3,1.1c-0.1,0.3-0.2,0.7-0.3,1c-0.1,0.3-0.2,0.5-0.2,0.8c-2.9-5.7-7.2-10.9-13.2-15.3c-42.7-31.3-76,8-76,8
	S814,173.5,866.1,190.1z M935.9,146.4c1.2,1.3,2.5,2.4,3.7,3.3c8.9,6.8,21.4,9.8,32.4,10.1c0,0.2-0.1,0.4-0.2,0.6c0,0,0,0,0,0
	c-0.1,0.2-0.1,0.4-0.2,0.5c0,0,0,0,0,0c-0.1,0.2-0.1,0.3-0.2,0.5c0,0,0,0,0,0c-0.1,0.2-0.2,0.3-0.3,0.5c0,0,0,0,0,0
	c-0.1,0.1-0.2,0.3-0.3,0.4c0,0,0,0,0,0.1c-0.1,0.1-0.2,0.3-0.3,0.4c0,0,0,0-0.1,0.1c-0.1,0.1-0.2,0.2-0.3,0.4c0,0,0,0-0.1,0.1
	c-0.1,0.1-0.2,0.2-0.4,0.3c0,0-0.1,0.1-0.1,0.1c-0.1,0.1-0.3,0.2-0.4,0.3c0,0-0.1,0.1-0.1,0.1c-0.1,0.1-0.3,0.2-0.4,0.3
	c0,0-0.1,0.1-0.1,0.1c-0.1,0.1-0.3,0.1-0.5,0.2c-0.1,0-0.1,0-0.2,0.1c-0.2,0.1-0.3,0.1-0.5,0.2c-0.1,0-0.1,0-0.2,0.1
	c-0.2,0.1-0.3,0.1-0.5,0.1c-0.1,0-0.1,0-0.2,0.1c-0.2,0-0.4,0.1-0.5,0.1c-0.1,0-0.2,0-0.2,0c-0.2,0-0.4,0.1-0.6,0.1
	c-0.1,0-0.2,0-0.3,0c-0.2,0-0.4,0-0.6,0c-0.1,0-0.2,0-0.3,0c-0.2,0-0.4,0-0.6,0c-0.1,0-0.2,0-0.3,0c-0.2,0-0.4,0-0.7,0
	c-0.1,0-0.3,0-0.4,0c-0.2,0-0.5,0-0.7-0.1c-0.1,0-0.3,0-0.4,0c-0.2,0-0.5-0.1-0.7-0.1c-0.2,0-0.3,0-0.5-0.1c-0.2,0-0.5-0.1-0.8-0.1
	c-0.2,0-0.3-0.1-0.5-0.1c-0.3-0.1-0.5-0.1-0.8-0.2c-0.2,0-0.3-0.1-0.5-0.1c-0.3-0.1-0.6-0.1-0.8-0.2c-0.2,0-0.4-0.1-0.6-0.1
	c-0.3-0.1-0.6-0.2-0.9-0.2c-0.2-0.1-0.4-0.1-0.6-0.2c-0.3-0.1-0.6-0.2-0.9-0.3c-0.2-0.1-0.4-0.1-0.6-0.2c-0.3-0.1-0.7-0.2-1-0.3
	c-0.2-0.1-0.4-0.1-0.6-0.2c-0.4-0.1-0.7-0.3-1.1-0.4c-0.2-0.1-0.4-0.1-0.6-0.2c-0.4-0.1-0.8-0.3-1.2-0.5c-0.2-0.1-0.4-0.2-0.6-0.2
	c-0.4-0.2-0.9-0.4-1.4-0.6c-0.2-0.1-0.4-0.1-0.5-0.2c-0.5-0.2-1.1-0.5-1.7-0.7c-0.1,0-0.2-0.1-0.3-0.1c-1.4-0.6-2.8-1.3-4.2-2
	c0,0-4.8,0.2-9.1,2.6c-0.2-0.2-0.3-0.5-0.5-0.7c2.3-4.9,3.9-10,4.7-15.1C934.8,145.3,935.3,145.9,935.9,146.4z M864.3,135.3
	c0,0,18.9-34.1,33.7-1C912.7,167.5,846.9,158.2,864.3,135.3z"/>
<path class="st0" d="M1052.5,160.3c-0.1,0.2-0.1,0.4-0.2,0.5c0,0,0,0,0,0c-0.1,0.2-0.1,0.3-0.2,0.5c0,0,0,0,0,0
	c-0.1,0.2-0.2,0.3-0.3,0.5c0,0,0,0,0,0c-0.1,0.1-0.2,0.3-0.3,0.4c0,0,0,0,0,0.1c-0.1,0.1-0.2,0.3-0.3,0.4c0,0,0,0-0.1,0.1
	c-0.1,0.1-0.2,0.2-0.3,0.4c0,0,0,0-0.1,0.1c-0.1,0.1-0.2,0.2-0.4,0.3c0,0-0.1,0.1-0.1,0.1c-0.1,0.1-0.3,0.2-0.4,0.3
	c0,0-0.1,0.1-0.1,0.1c-0.1,0.1-0.3,0.2-0.4,0.3c0,0-0.1,0-0.1,0.1c-0.1,0.1-0.3,0.1-0.5,0.2c-0.1,0-0.1,0-0.2,0.1
	c-0.2,0.1-0.3,0.1-0.5,0.2c-0.1,0-0.1,0-0.2,0.1c-0.2,0.1-0.3,0.1-0.5,0.1c-0.1,0-0.1,0-0.2,0.1c-0.2,0-0.4,0.1-0.5,0.1
	c-0.1,0-0.2,0-0.2,0c-0.2,0-0.4,0.1-0.6,0.1c-0.1,0-0.2,0-0.3,0c-0.2,0-0.4,0-0.6,0c-0.1,0-0.2,0-0.3,0c-0.2,0-0.4,0-0.6,0
	c-0.1,0-0.2,0-0.3,0c-0.2,0-0.4,0-0.7,0c-0.1,0-0.3,0-0.4,0c-0.2,0-0.5,0-0.7-0.1c-0.1,0-0.3,0-0.4,0c-0.2,0-0.5-0.1-0.7-0.1
	c-0.2,0-0.3,0-0.5-0.1c-0.2,0-0.5-0.1-0.8-0.1c-0.2,0-0.3-0.1-0.5-0.1c-0.3-0.1-0.5-0.1-0.8-0.2c-0.2,0-0.3-0.1-0.5-0.1
	c-0.3-0.1-0.6-0.1-0.8-0.2c-0.2,0-0.4-0.1-0.6-0.1c-0.3-0.1-0.6-0.2-0.9-0.2c-0.2-0.1-0.4-0.1-0.6-0.2c-0.3-0.1-0.6-0.2-0.9-0.3
	c-0.2-0.1-0.4-0.1-0.6-0.2c-0.3-0.1-0.7-0.2-1-0.3c-0.2-0.1-0.4-0.1-0.6-0.2c-0.4-0.1-0.7-0.3-1.1-0.4c-0.2-0.1-0.4-0.2-0.6-0.2
	c-0.4-0.1-0.8-0.3-1.2-0.5c-0.2-0.1-0.4-0.2-0.6-0.2c-0.4-0.2-0.9-0.4-1.3-0.6c-0.2-0.1-0.4-0.2-0.6-0.2c-0.5-0.2-1.1-0.5-1.6-0.7
	c-0.1-0.1-0.2-0.1-0.4-0.2c-1.4-0.6-2.8-1.3-4.2-2c0,0-15.2,0.8-15.6,12.8c0,0.8,0,1.7,0.1,2.6c0,0,0,0,0,0c0,0.2,0.1,0.4,0.1,0.6
	c0,0.1,0,0.1,0.1,0.2c0,0.2,0.1,0.3,0.2,0.5c0,0.1,0.1,0.2,0.1,0.2c0.1,0.2,0.1,0.3,0.2,0.5c0,0.1,0.1,0.1,0.1,0.2
	c0.1,0.2,0.3,0.4,0.4,0.7c0,0,0,0.1,0.1,0.1c0.1,0.2,0.3,0.4,0.4,0.6c0.1,0.1,0.1,0.2,0.2,0.2c0.1,0.2,0.3,0.3,0.4,0.5
	c0.1,0.1,0.1,0.2,0.2,0.3c0.1,0.2,0.3,0.3,0.5,0.5c0.1,0.1,0.1,0.1,0.2,0.2c0.2,0.2,0.5,0.5,0.7,0.7c0.1,0.1,0.1,0.1,0.2,0.2
	c0.2,0.2,0.4,0.3,0.6,0.5c0.1,0.1,0.2,0.2,0.3,0.3c0.2,0.1,0.4,0.3,0.6,0.4c0.1,0.1,0.2,0.2,0.4,0.3c0.2,0.2,0.4,0.3,0.6,0.5
	c0.1,0.1,0.2,0.2,0.3,0.2c0.3,0.2,0.6,0.4,1,0.7c0.1,0.1,0.3,0.2,0.4,0.3c0.2,0.1,0.4,0.3,0.7,0.4c0.2,0.1,0.3,0.2,0.5,0.3
	c0.2,0.1,0.4,0.2,0.6,0.4c0.2,0.1,0.4,0.2,0.5,0.3c0.2,0.1,0.4,0.2,0.7,0.4c0.3,0.1,0.5,0.3,0.8,0.4c0.3,0.2,0.6,0.3,0.9,0.5
	c0.2,0.1,0.5,0.2,0.7,0.3c0.2,0.1,0.4,0.2,0.6,0.3c0.2,0.1,0.5,0.2,0.7,0.3c0.2,0.1,0.4,0.2,0.6,0.3c0.3,0.1,0.5,0.2,0.8,0.4
	c0.1,0.1,0.3,0.1,0.4,0.2c0.6,0.3,1.3,0.5,1.9,0.8c0.1,0,0.1,0.1,0.2,0.1c0.3,0.1,0.6,0.2,1,0.4c0.1,0.1,0.3,0.1,0.4,0.2
	c0.3,0.1,0.6,0.2,1,0.3c0.1,0,0.3,0.1,0.4,0.1c0.4,0.1,0.7,0.2,1.1,0.4c0,0,0,0,0,0c1.3,0.4,2.6,0.8,3.9,1.1c0.1,0,0.2,0,0.3,0.1
	c0.4,0.1,0.8,0.2,1.2,0.3c0.1,0,0.1,0,0.2,0c1.8,0.4,3.6,0.8,5.4,1.1c0,0,0.1,0,0.1,0c2.3,0.4,4.7,0.6,7.1,0.6c0,0,0,0,0,0
	c2.4,0.1,4.8,0,7.1-0.3c0,0,0,0,0,0c2.3-0.3,4.6-0.7,6.8-1.4c0,0,0,0,0,0c1.8-0.5,3.5-1.2,5.1-2c0,0,0,0,0,0
	c0.4-0.2,0.8-0.4,1.2-0.6c0,0,0,0,0.1,0c1.6-0.9,3.1-1.9,4.5-3.1c0,0,0.1-0.1,0.1-0.1c0.3-0.3,0.7-0.6,1-0.9c0,0,0.1-0.1,0.1-0.1
	c1.3-1.3,2.6-2.7,3.7-4.3c0.1-0.1,0.1-0.2,0.2-0.2c0.3-0.4,0.5-0.7,0.8-1.1c0.1-0.1,0.1-0.2,0.2-0.3c0.2-0.4,0.5-0.8,0.7-1.2
	c0,0,0-0.1,0.1-0.1c0.7-1.3,1.4-2.7,2-4.2c0.1-0.2,0.2-0.4,0.2-0.6c0.1-0.4,0.3-0.8,0.4-1.2c0.1-0.3,0.2-0.5,0.3-0.8
	c0.1-0.4,0.2-0.8,0.4-1.2c0.1-0.3,0.2-0.6,0.2-0.9c0.1-0.4,0.2-0.8,0.3-1.2c0.1-0.4,0.2-0.7,0.3-1.1c0.1-0.6,0.2-1.1,0.4-1.7
	c0.1-0.5,0.2-1,0.3-1.5c0.1-0.4,0.1-0.7,0.2-1.1c0.1-0.5,0.1-0.9,0.2-1.4c0-0.4,0.1-0.8,0.1-1.1c0-0.5,0.1-1,0.1-1.5
	c0-0.4,0.1-0.8,0.1-1.1c0-0.5,0.1-1.1,0.1-1.7c0-0.4,0-0.7,0-1.1c0-0.9,0-1.8,0-2.7c0,0,0-0.1,0-0.1l0,0l0,0
	c-1.4-4.8-3.9-8.7-7.1-12c-1.2-1.3-2.5-2.4-3.7-3.3c-8.9-6.8-21.4-9.8-32.4-10.1c0,0,0,0,0,0c0-0.1,0.1-0.3,0.1-0.4
	c0-0.1,0-0.1,0.1-0.2c0-0.1,0.1-0.2,0.1-0.4c0-0.1,0.1-0.1,0.1-0.2c0-0.1,0.1-0.2,0.1-0.3c0-0.1,0.1-0.2,0.1-0.2
	c0-0.1,0.1-0.2,0.1-0.3c0-0.1,0.1-0.2,0.1-0.3c0-0.1,0.1-0.1,0.1-0.2c0.1-0.1,0.1-0.2,0.2-0.3c0-0.1,0.1-0.1,0.1-0.2
	c0.1-0.1,0.2-0.2,0.2-0.3c0,0,0.1-0.1,0.1-0.1c0.1-0.1,0.2-0.2,0.3-0.3c0,0,0.1-0.1,0.1-0.1c0.1-0.1,0.2-0.2,0.4-0.3
	c0,0,0.1,0,0.1-0.1c0.1-0.1,0.3-0.2,0.4-0.3c0,0,0,0,0.1,0c0.2-0.1,0.3-0.2,0.5-0.3c0,0,0,0,0,0c4.4-2.2,12.9-1.2,29,6.6
	c0,0,15.2-0.8,15.6-12.8c0-0.8,0-1.7-0.1-2.6c0-0.2-0.1-0.4-0.1-0.6c0,0,0-0.1,0-0.1c-0.1-0.2-0.1-0.4-0.2-0.6c0,0,0-0.1-0.1-0.1
	c-0.1-0.2-0.2-0.4-0.3-0.6c0,0,0,0,0,0c-2.9-5.4-13.9-11.9-26.6-15.1c0,0,0,0,0,0c-1.7-0.4-3.5-0.8-5.2-1.1c-0.1,0-0.1,0-0.2,0
	c-0.5-0.1-1-0.2-1.5-0.2c-0.1,0-0.2,0-0.3,0c-0.5-0.1-1.1-0.1-1.6-0.2c0,0-0.1,0-0.1,0c-0.6-0.1-1.2-0.1-1.7-0.2c-0.1,0-0.1,0-0.2,0
	c-0.5,0-1-0.1-1.5-0.1c-0.2,0-0.3,0-0.5,0c-0.4,0-0.8,0-1.2,0c-0.2,0-0.4,0-0.5,0c-0.4,0-0.9,0-1.3,0c-0.1,0-0.2,0-0.4,0
	c-0.5,0-1.1,0-1.6,0.1c-0.2,0-0.4,0-0.6,0c-0.4,0-0.7,0.1-1.1,0.1c-0.2,0-0.5,0-0.7,0.1c-0.3,0-0.6,0.1-0.9,0.1
	c-0.2,0-0.5,0.1-0.7,0.1c-0.3,0-0.7,0.1-1,0.2c-0.3,0.1-0.6,0.1-0.9,0.2c-0.4,0.1-0.7,0.1-1.1,0.2c-0.3,0.1-0.5,0.1-0.8,0.2
	c-0.3,0.1-0.5,0.1-0.8,0.2c-0.3,0.1-0.5,0.1-0.8,0.2c-0.2,0.1-0.5,0.1-0.7,0.2c-0.3,0.1-0.5,0.2-0.8,0.3c-0.2,0.1-0.5,0.2-0.7,0.3
	c-0.5,0.2-0.9,0.4-1.4,0.6c-0.2,0.1-0.4,0.2-0.6,0.3c-0.3,0.1-0.5,0.3-0.8,0.4c-0.2,0.1-0.4,0.2-0.6,0.3c-0.3,0.1-0.5,0.3-0.8,0.4
	c-0.2,0.1-0.4,0.2-0.5,0.3c-0.3,0.2-0.5,0.3-0.8,0.5c-0.1,0.1-0.3,0.2-0.4,0.2c-0.5,0.3-1.1,0.7-1.6,1.1c-0.1,0.1-0.3,0.2-0.5,0.3
	c-0.3,0.2-0.5,0.4-0.8,0.6c-0.2,0.1-0.3,0.3-0.5,0.4c-0.2,0.2-0.5,0.4-0.7,0.7c-0.1,0.1-0.3,0.3-0.4,0.4c-0.8,0.8-1.6,1.7-2.4,2.6
	c-0.1,0.1-0.2,0.2-0.3,0.3c0,0-0.1,0.1-0.1,0.1c-0.2,0.3-0.5,0.6-0.7,0.9c-0.1,0.2-0.2,0.3-0.4,0.5c-0.2,0.3-0.4,0.6-0.6,0.9
	c-0.1,0.2-0.2,0.4-0.3,0.5c-0.2,0.3-0.4,0.7-0.6,1c-0.1,0.2-0.2,0.3-0.3,0.5c-0.4,0.7-0.7,1.4-1.1,2.2c-0.1,0.2-0.2,0.3-0.2,0.5
	c-0.2,0.3-0.3,0.7-0.4,1c-0.1,0.3-0.2,0.5-0.3,0.8c-0.1,0.3-0.3,0.7-0.4,1c-0.1,0.3-0.2,0.6-0.3,0.9c-0.1,0.3-0.2,0.7-0.3,1.1
	c-0.1,0.3-0.2,0.7-0.3,1c-0.1,0.3-0.2,0.7-0.3,1c-0.1,0.5-0.2,0.9-0.3,1.4c-0.1,0.5-0.2,1-0.3,1.4c-0.1,0.5-0.2,1-0.3,1.5
	c-0.1,0.3-0.1,0.7-0.2,1.1c-0.1,0.5-0.1,0.9-0.2,1.4c0,0.4-0.1,0.8-0.1,1.1c0,0.5-0.1,1-0.1,1.4c0,0.4-0.1,0.8-0.1,1.2
	c0,0.5-0.1,1.1-0.1,1.6c0,0.4,0,0.7,0,1.1c0,0.9,0,1.8,0,2.7v0c0,0,0,0.1,0,0.1l0,0c1.4,4.7,3.9,8.7,7.1,12c1.2,1.3,2.5,2.4,3.7,3.3
	c8.9,6.8,21.4,9.8,32.4,10.1C1052.7,159.9,1052.6,160.1,1052.5,160.3C1052.6,160.3,1052.6,160.3,1052.5,160.3z"/>
<path class="st0" d="M196.3,279.3c-27.6-20.3-51.4-10.9-64.6-1.8c-9-4.6-27.8-12-45.2-3.6c-3.6-4.7-10.1-7.7-21.3-1.1
	c-4.8,2.8-7.5,6.1-8.7,9.4c-2.4-2-6-3.6-11.3-3.8c0,0-3.2,0-8.5-0.1c1.5-13.4,6.5-23.9,19.5-29.6c34.8-15.3,0-29.8,0-29.8
	c-63.9-0.4-52.8,54-52,113.7c0.8,59.6,34,27.9,34,27.9L36.7,308c10.3-1.9,18.4-5.1,22.2-10.3c1,1.7,2.1,3.3,3.1,4.7
	c-0.9,2.1-1.8,4.4-2.7,6.8c-23.4,66,33.6,76.3,32.3,36.2c-1.2-35.7,9.6-42.2,23.1-38.9c-3.8,19.9-3,49.4,30.4,60
	c13.5,4.3,26.2,2.6,37-2.8c3.7,4.8,10.4,8.1,22,1.3c14.8-8.7,9.8-21.2,4.5-28.8C217.7,317.1,216.1,293.8,196.3,279.3z M143.3,311.8
	c0,0,18.9-34.1,33.7-1S125.9,334.7,143.3,311.8z"/>
<path class="st0" d="M324.3,352.1c0-5.9,3.2-22.5,1.1-39.2c0.7-2.1,1.5-3.7,2.7-4.6c5.2-4.1,18.9-4.1,25,1.8
	c2.4,2.3,3.6,5.5,2.7,9.7c-1.9,8.8-2.1,18.6-2,25.3c0.1,4.7,0.2,8.6,0.2,9.9c0,2.2,0.6,5.6,3.3,8.4c2.2,2.2,5.7,4.1,11.3,4.7
	c16.2,1.8,19.2-2.9,19.5-13.7c7.1,8.9,19.4,12.4,28,13.8c2.8,0.6,5.9,0.9,9.1,0.9c0.2,0,0.3,0,0.3,0l0,0c3.5-0.1,7.2-0.5,11.2-1.4
	c15.8-3.6,26.6-13.7,32.7-26.1c-1-14.3-13.3-16.1-20.7-17.2c-4-0.6-8.2,1.9-11.3,4.5c-0.3,0.3-0.7,0.6-1,0.8
	c-10.6,7.9-38.5-7.6-23.9-19.1c0,0,3.7-3.9,8.5-6.6c0.6,2.2,1.4,4.5,2.7,7c3.8,8,12.9,8.8,21.4,6.6c5.3,4.5,11.9,7,18.3,2.5
	c8.2-5.9,9.9-9.2,10.4-11.8c0.9,34.1,19.5,76.1,77.1,55c0,0,5-1.9,11-4.4c8.6,6.1,19.4,8.7,32.7,5.6c9.9-2.4,17.4-6.5,23-11.8
	c9.4,8.7,37.3,29.3,71.3,4.4c2.5-1.8,4.7-3.8,6.6-5.9c7.5,25.8,37.1,23.3,36.2-5.8c-1.3-39.4,11.9-43.2,27.3-37.5
	c2.3,23.4,6.9,43.8,11.5,47.2c8.9,6.7,30.5,41,32.6-31.5c11.3-5.5,29.3-8.6,23.6,32.4c0,0,9.5,18.1,28.2,10.6
	c15-6.1,19.8-67.9-26.2-77.7c4.4-4.4,9.3-9.7,14.6-16.1c0,0,30-20.3,1.6-34.5c-13.9-6.9-31.1,5.8-43.4,21.6
	c-0.3-4.2-0.5-8.5-0.9-12.9c0,0-5-28.5-29-18.5c-9.2,3.8-13.1,22.1-13.9,43.6c-9.2-2.5-20.5-3.3-31.2,1.9
	c-3.6-4.7-10.1-7.7-21.3-1.1c-11,6.5-10.7,15-7.7,22c-11.8-18.6-34.2-31.3-59-23.4c-4.2,1.3-7.9,3-11.1,4.9
	c-4.8-3.7-23.1-15.3-26.7,16.3c0,0-1.2,24.4-12.4,26.4c-11.1,1.9-17.7-15.2-16.6-21.3c0,0-1.9-33.2-24.3-23.4
	c-10.1,4.4-13.1,25.9-8.1,46.9c-9.6,7.6-34,21.8-27.6-36.8c0,0-9.3-22.4-27.6-13.1c-5.6,2.8-9.7,15.5-10.2,30.8
	c-0.7-2.7-2.1-5.2-2.1-5.2l0,0c-5.4-14.4-17.2-25.7-35.2-27.5c-29.3-2.9-44.6,12-52.3,25.4c-1.9-3.9-4.3-7.6-7.4-10.9
	c-5.6-5.9-13.4-10.4-24.3-12.7c-19.8-4.1-34.3,0.5-44.6,8.2v0c-5-3.7-11.4-6.6-19.3-8.3l0.1,0c0,0,0,0,0,0
	c-13.4-2.8-24.4-1.6-33.3,1.9c-0.2-0.3-0.5-0.5-0.8-0.8c-7-6.7-19.3-1.3-26.3,1.7c-4.2,1.8-6.2,20.7-5.6,41.1c0,0.5-0.1,1-0.1,1.5
	c0,2.9,0.4,7.8,1,13.5c0.6,6.5,1.5,12.8,2.7,18.3c0,0.1,0,0.2,0.1,0.3c0,0,0,0.1,0,0.1c1.7,7.6,3.9,13.7,6.7,16.8
	c0.6,0.7,1.3,1.2,2,1.6c14.6,7.8,24-9.1,24-9.1c2.2-7.8,3.2-27.4,2.8-45.8c0.6-1.7,1.4-3,2.4-3.8c5.9-4.7,22.8-4,27,4.5
	c0.9,1.9,1.3,4.2,0.7,6.9c-1.9,8.8-2.1,18.6-2,25.3c0.1,4.7,0.2,8.6,0.2,9.9c0,3.8,1.7,11.6,14.7,13.1
	C322,369.9,324.3,364.4,324.3,352.1z M702,302.3c-0.1,0.2-0.2,0.4-0.3,0.6c-0.4-0.9-0.8-1.8-1.2-2.7C701,301,701.5,301.7,702,302.3z
	 M669.6,313c12.8,33.3-24.1,22.7-24.1,22.7C617.6,332,656.9,279.8,669.6,313z"/>
<path class="st0" d="M1329.5,178.6c3,20.6-3.9,23.1-12.4,20.8s-19.6,2.4-7.3,15.2c0,0,30.2,16.1,38.4-19.3
	C1356.5,160.1,1326.6,158,1329.5,178.6z"/>
<path class="st0" d="M1086.6,250.1c-0.8,59.6-11.9,114.1,52,113.7c0,0,34.8-14.5,0-29.8c-17-7.5-20.4-23-20-42.5l0-0.3
	c7.1,0.2,17.8-2.4,15.8-20.2c-1.3-11.5-7.8-15.5-14.7-16.3l1-32.5C1120.6,222.2,1087.4,190.5,1086.6,250.1z"/>
<path class="st0" d="M1245.2,281.9c0,0-25-22.3-29.5,16.2c0,0-1.3,25.8-13.1,27.9s-18.7-16-17.5-22.4c0,0-2-35-25.7-24.7
	c-23.7,10.4-10.4,109.5,49.8,95.2c2.3-0.5,4.5-1.2,6.5-1.9c0,12.9-2.4,33.4-18.1,37.6c-23.2,6.3-20.4,32.3,5.5,31
	c22.7-1.2,46-17.2,43.8-101.7C1254.8,312.7,1245.2,281.9,1245.2,281.9z"/>
<path class="st0" d="M998.8,344.6C998.8,344.6,998.8,344.6,998.8,344.6c0,0.2,0.1,0.4,0.1,0.6c0,0.1,0,0.1,0.1,0.2
	c0,0.1,0.1,0.3,0.2,0.5c0,0.1,0.1,0.2,0.1,0.2c0.1,0.2,0.1,0.3,0.2,0.5c0,0.1,0.1,0.1,0.1,0.2c0.1,0.2,0.3,0.4,0.4,0.7
	c0,0,0,0.1,0.1,0.1c0.1,0.2,0.3,0.4,0.4,0.6c0.1,0.1,0.1,0.2,0.2,0.2c0.1,0.2,0.3,0.3,0.4,0.5c0.1,0.1,0.1,0.2,0.2,0.3
	c0.1,0.2,0.3,0.3,0.5,0.5c0.1,0.1,0.1,0.1,0.2,0.2c0.2,0.2,0.5,0.5,0.7,0.7c0.1,0.1,0.1,0.1,0.2,0.2c0.2,0.2,0.4,0.3,0.6,0.5
	c0.1,0.1,0.2,0.2,0.3,0.3c0.2,0.1,0.4,0.3,0.6,0.4c0.1,0.1,0.2,0.2,0.4,0.3c0.2,0.2,0.4,0.3,0.6,0.5c0.1,0.1,0.2,0.2,0.3,0.2
	c0.3,0.2,0.6,0.4,1,0.7c0.1,0.1,0.3,0.2,0.4,0.3c0.2,0.1,0.4,0.3,0.7,0.4c0.2,0.1,0.3,0.2,0.5,0.3c0.2,0.1,0.4,0.2,0.6,0.4
	c0.2,0.1,0.4,0.2,0.5,0.3c0.2,0.1,0.4,0.2,0.7,0.4c0.3,0.1,0.5,0.3,0.8,0.4c0.3,0.2,0.6,0.3,0.9,0.5c0.2,0.1,0.5,0.2,0.7,0.3
	c0.2,0.1,0.4,0.2,0.6,0.3c0.2,0.1,0.5,0.2,0.7,0.3c0.2,0.1,0.4,0.2,0.6,0.3c0.3,0.1,0.5,0.2,0.8,0.4c0.1,0.1,0.3,0.1,0.4,0.2
	c0.6,0.3,1.3,0.5,1.9,0.8c0.1,0,0.1,0.1,0.2,0.1c0.3,0.1,0.6,0.2,1,0.4c0.1,0.1,0.3,0.1,0.4,0.2c0.3,0.1,0.6,0.2,1,0.3
	c0.1,0,0.3,0.1,0.4,0.1c0.4,0.1,0.7,0.2,1.1,0.4c0,0,0,0,0,0c1.3,0.4,2.5,0.8,3.9,1.1c0.1,0,0.2,0,0.3,0.1c0.4,0.1,0.8,0.2,1.2,0.3
	c0.1,0,0.1,0,0.2,0c1.8,0.4,3.6,0.8,5.4,1.1c0,0,0.1,0,0.1,0c2.3,0.4,4.7,0.6,7.1,0.6c0,0,0,0,0,0c2.4,0.1,4.8,0,7.1-0.3
	c0,0,0,0,0,0c2.3-0.3,4.6-0.7,6.8-1.4c0,0,0,0,0,0c1.8-0.5,3.5-1.2,5.1-2c0,0,0,0,0,0c0.4-0.2,0.8-0.4,1.2-0.6c0,0,0,0,0.1,0
	c1.6-0.9,3.1-1.9,4.5-3.1c0,0,0.1-0.1,0.1-0.1c0.3-0.3,0.7-0.6,1-0.9c0,0,0.1-0.1,0.1-0.1c1.3-1.3,2.6-2.7,3.7-4.3
	c0.1-0.1,0.1-0.2,0.2-0.2c0.3-0.4,0.5-0.7,0.8-1.1c0.1-0.1,0.1-0.2,0.2-0.3c0.2-0.4,0.5-0.8,0.7-1.2c0,0,0-0.1,0.1-0.1
	c0.7-1.3,1.4-2.7,2-4.2c0.1-0.2,0.2-0.4,0.2-0.6c0.1-0.4,0.3-0.8,0.4-1.2c0.1-0.2,0.2-0.5,0.3-0.8c0.1-0.4,0.3-0.8,0.4-1.2
	c0.1-0.3,0.2-0.6,0.2-0.9c0.1-0.4,0.2-0.8,0.3-1.2c0.1-0.4,0.2-0.7,0.3-1.1c0.1-0.6,0.2-1.2,0.4-1.8c0.1-0.5,0.2-1,0.3-1.5
	c0.1-0.4,0.1-0.7,0.2-1.1c0.1-0.5,0.1-0.9,0.2-1.4c0-0.4,0.1-0.8,0.1-1.1c0-0.5,0.1-1,0.1-1.5c0-0.4,0.1-0.8,0.1-1.1
	c0-0.5,0.1-1.1,0.1-1.7c0-0.4,0-0.7,0-1.1c0-0.9,0-1.8,0-2.7c0,0,0-0.1,0-0.1l0,0v0c-1.4-4.8-3.9-8.7-7.1-12
	c-1.2-1.3-2.5-2.4-3.7-3.3c-8.9-6.8-21.4-9.8-32.4-10.1c0,0,0,0,0,0c0-0.1,0.1-0.3,0.1-0.4c0-0.1,0-0.1,0.1-0.2
	c0-0.1,0.1-0.2,0.1-0.4c0-0.1,0.1-0.1,0.1-0.2c0-0.1,0.1-0.2,0.1-0.3c0-0.1,0.1-0.2,0.1-0.2c0-0.1,0.1-0.2,0.1-0.3
	c0-0.1,0.1-0.2,0.1-0.3c0-0.1,0.1-0.1,0.1-0.2c0.1-0.1,0.1-0.2,0.2-0.3c0-0.1,0.1-0.1,0.1-0.2c0.1-0.1,0.2-0.2,0.2-0.3
	c0,0,0.1-0.1,0.1-0.1c0.1-0.1,0.2-0.2,0.3-0.3c0,0,0.1-0.1,0.1-0.1c0.1-0.1,0.2-0.2,0.4-0.3c0,0,0.1,0,0.1-0.1
	c0.1-0.1,0.3-0.2,0.4-0.3c0,0,0,0,0.1,0c0.2-0.1,0.3-0.2,0.5-0.3c0,0,0,0,0,0c4.4-2.2,12.9-1.2,29,6.6c0,0,15.2-0.8,15.6-12.8
	c0-0.8,0-1.7-0.1-2.6c0-0.2-0.1-0.4-0.1-0.6c0,0,0-0.1,0-0.1c-0.1-0.2-0.1-0.4-0.2-0.6c0,0,0-0.1-0.1-0.1c-0.1-0.2-0.2-0.4-0.3-0.6
	c0,0,0,0,0,0c-2.9-5.4-13.9-11.9-26.6-15.1c0,0,0,0,0,0c-1.7-0.4-3.4-0.8-5.2-1.1c-0.1,0-0.1,0-0.2,0c-0.5-0.1-1-0.2-1.5-0.2
	c-0.1,0-0.2,0-0.3,0c-0.5-0.1-1.1-0.1-1.6-0.2c0,0-0.1,0-0.1,0c-0.6-0.1-1.2-0.1-1.7-0.2c-0.1,0-0.1,0-0.2,0c-0.5,0-1-0.1-1.5-0.1
	c-0.2,0-0.3,0-0.5,0c-0.4,0-0.8,0-1.2,0c-0.2,0-0.4,0-0.5,0c-0.4,0-0.9,0-1.3,0c-0.1,0-0.2,0-0.4,0c-0.5,0-1.1,0-1.6,0.1
	c-0.2,0-0.4,0-0.6,0c-0.4,0-0.7,0.1-1.1,0.1c-0.2,0-0.5,0-0.7,0.1c-0.3,0-0.6,0.1-0.9,0.1c-0.2,0-0.5,0.1-0.7,0.1
	c-0.3,0-0.7,0.1-1,0.2c-0.3,0.1-0.6,0.1-0.9,0.2c-0.4,0.1-0.8,0.2-1.1,0.2c-0.3,0.1-0.5,0.1-0.8,0.2c-0.3,0.1-0.5,0.1-0.8,0.2
	c-0.3,0.1-0.5,0.1-0.8,0.2c-0.2,0.1-0.5,0.1-0.7,0.2c-0.3,0.1-0.5,0.2-0.8,0.3c-0.2,0.1-0.5,0.2-0.7,0.3c-0.5,0.2-0.9,0.4-1.4,0.6
	c-0.2,0.1-0.4,0.2-0.6,0.3c-0.3,0.1-0.5,0.3-0.8,0.4c-0.2,0.1-0.4,0.2-0.6,0.3c-0.3,0.1-0.5,0.3-0.8,0.4c-0.2,0.1-0.4,0.2-0.6,0.3
	c-0.3,0.2-0.5,0.3-0.8,0.5c-0.1,0.1-0.3,0.2-0.4,0.3c-0.5,0.3-1.1,0.7-1.6,1.1c-0.2,0.1-0.3,0.2-0.5,0.3c-0.3,0.2-0.5,0.4-0.8,0.6
	c-0.2,0.1-0.3,0.3-0.5,0.4c-0.2,0.2-0.5,0.4-0.7,0.7c-0.1,0.1-0.3,0.3-0.4,0.4c-0.8,0.8-1.6,1.7-2.4,2.6c-0.1,0.1-0.2,0.2-0.3,0.3
	c0,0-0.1,0.1-0.1,0.1c-0.2,0.3-0.4,0.6-0.7,0.9c-0.1,0.2-0.2,0.3-0.4,0.5c-0.2,0.3-0.4,0.6-0.6,0.9c-0.1,0.2-0.2,0.4-0.3,0.5
	c-0.2,0.3-0.4,0.7-0.6,1c-0.1,0.2-0.2,0.3-0.3,0.5c-0.4,0.7-0.7,1.4-1.1,2.2c-0.1,0.2-0.2,0.4-0.2,0.5c-0.2,0.3-0.3,0.7-0.4,1
	c-0.1,0.3-0.2,0.5-0.3,0.8c-0.1,0.3-0.3,0.7-0.4,1c-0.1,0.3-0.2,0.6-0.3,0.9c-0.1,0.3-0.2,0.7-0.3,1.1c-0.1,0.3-0.2,0.7-0.3,1
	c-0.1,0.3-0.2,0.7-0.3,1c-0.1,0.5-0.2,1-0.3,1.4c-0.1,0.5-0.2,0.9-0.3,1.4c-0.1,0.5-0.2,1-0.3,1.5c-0.1,0.3-0.1,0.7-0.2,1.1
	c-0.1,0.5-0.1,0.9-0.2,1.4c0,0.4-0.1,0.8-0.1,1.1c0,0.5-0.1,1-0.1,1.4c0,0.4-0.1,0.8-0.1,1.2c0,0.5-0.1,1.1-0.1,1.6
	c0,0.4,0,0.7,0,1.1c0,0.9,0,1.8,0,2.7c0,0,0,0,0,0c0,0,0,0.1,0,0.1l0,0c1.4,4.7,3.9,8.7,7.1,12c1.2,1.3,2.5,2.4,3.7,3.3
	c8.9,6.8,21.4,9.8,32.4,10.1c0,0.2-0.1,0.4-0.2,0.6c0,0,0,0,0,0c-0.1,0.2-0.1,0.4-0.2,0.5c0,0,0,0,0,0c-0.1,0.2-0.1,0.3-0.2,0.5
	c0,0,0,0,0,0c-0.1,0.2-0.2,0.3-0.3,0.5c0,0,0,0,0,0c-0.1,0.1-0.2,0.3-0.3,0.4c0,0,0,0,0,0.1c-0.1,0.1-0.2,0.3-0.3,0.4
	c0,0,0,0-0.1,0.1c-0.1,0.1-0.2,0.2-0.3,0.4c0,0,0,0-0.1,0.1c-0.1,0.1-0.2,0.2-0.4,0.3c0,0-0.1,0.1-0.1,0.1c-0.1,0.1-0.3,0.2-0.4,0.3
	c0,0-0.1,0.1-0.1,0.1c-0.1,0.1-0.3,0.2-0.4,0.3c0,0-0.1,0.1-0.1,0.1c-0.1,0.1-0.3,0.1-0.5,0.2c-0.1,0-0.1,0-0.2,0.1
	c-0.2,0.1-0.3,0.1-0.5,0.2c-0.1,0-0.1,0-0.2,0.1c-0.2,0.1-0.3,0.1-0.5,0.1c-0.1,0-0.1,0-0.2,0.1c-0.2,0-0.4,0.1-0.5,0.1
	c-0.1,0-0.2,0-0.2,0c-0.2,0-0.4,0.1-0.6,0.1c-0.1,0-0.2,0-0.3,0c-0.2,0-0.4,0-0.6,0c-0.1,0-0.2,0-0.3,0c-0.2,0-0.4,0-0.6,0
	c-0.1,0-0.2,0-0.3,0c-0.2,0-0.4,0-0.7,0c-0.1,0-0.3,0-0.4,0c-0.2,0-0.5,0-0.7-0.1c-0.1,0-0.3,0-0.4,0c-0.2,0-0.5-0.1-0.7-0.1
	c-0.2,0-0.3,0-0.5-0.1c-0.2,0-0.5-0.1-0.8-0.1c-0.2,0-0.3-0.1-0.5-0.1c-0.3-0.1-0.5-0.1-0.8-0.2c-0.2,0-0.3-0.1-0.5-0.1
	c-0.3-0.1-0.6-0.1-0.8-0.2c-0.2,0-0.4-0.1-0.6-0.1c-0.3-0.1-0.6-0.2-0.9-0.2c-0.2-0.1-0.4-0.1-0.6-0.2c-0.3-0.1-0.6-0.2-0.9-0.3
	c-0.2-0.1-0.4-0.1-0.6-0.2c-0.3-0.1-0.7-0.2-1-0.3c-0.2-0.1-0.4-0.1-0.6-0.2c-0.4-0.1-0.7-0.3-1.1-0.4c-0.2-0.1-0.4-0.2-0.6-0.2
	c-0.4-0.1-0.8-0.3-1.2-0.5c-0.2-0.1-0.4-0.2-0.6-0.2c-0.4-0.2-0.9-0.4-1.3-0.6c-0.2-0.1-0.4-0.2-0.6-0.2c-0.5-0.2-1.1-0.5-1.6-0.7
	c-0.1-0.1-0.2-0.1-0.4-0.2c-1.4-0.6-2.8-1.3-4.2-2c0,0-15.2,0.8-15.6,12.8C998.7,342.8,998.7,343.7,998.8,344.6z"/>
<path class="st0" d="M1408.2,355.5c2-1.1,3.9-3.6,5.3-7.3c4.6,4.3,10.6,7.9,18.5,10.4c12.3,3.9,24,2.8,34.1-1.7
	c-2.6,9.3-7.9,16.5-17.9,21c-34.8,15.3,0,29.8,0,29.8c63.9,0.4,52.8-54,52-113.7c-0.6-51.5-25.6-34.9-32.3-29.4
	c-34.7-13.9-60.2,16.1-60.2,16.1s-0.8,1.7-1.8,4.7c-8.9-12.3-23.9-19.4-47.2-13.4c-3-5.2-9.2-11.2-21.3-6.8
	c-4.6,1.6-7.6,7.1-9.4,14.5c-3.6-2.8-9.2-3.8-18-0.8c-3.9,1.3-6.9,3.7-9.3,6.9c-0.7-9.7-1.7-19.2-3.1-27.6
	c2.7,6.7,8.9,10.5,19.8,5.8c33.3-14.3-0.5-33.7-0.5-33.7c-12.3-9.6-20.9,5.4-20.9,18.9c-2.2-10.9-4.9-18.8-7.5-20.8
	c-11.1-8.8-42.1-62.9-30.1,113.6c0,0,5,30,29,19.4c5.1-2.2,8.6-9.2,10.8-18.9c4,12.9,10,22.2,15.7,21c8.8-1.8,15-6.5,18.1-17.7
	c1.4,4.1,2.9,7,4.4,8c8.2,5.3,29.5,34.9,26.6-44.5c9.6-6.3,26-11,21,34.6C1384.1,344.1,1392.3,363.7,1408.2,355.5z M1439.2,294.2
	c0,0,36.8-10.5,24.1,22.7C1450.5,350.2,1411.2,298,1439.2,294.2z"/>
<path class="st0" d="M920.5,329.7c0,0,2.5,15,14.5,9.7c4.9-2.2,6.8-13.1,7-25.4c4.7-0.2,9.7-0.5,15.2-0.9c0,0,15-2.5,9.7-14.5
	c-2.2-5.1-13.6-6.9-26.3-7c-1.3-9.6-3.2-17.2-5.1-18.7c-4.6-3.6-15.9-22.6-16.4,20.1c-9.6,1.3-17.3,3.2-18.8,5.1
	c-3.6,4.5-22.3,15.7,19.2,16.4C919.8,319.1,920.1,324.1,920.5,329.7z"/>
<g>
	<g id="XMLID_29761_">
		<g id="XMLID_29763_">
			<path id="XMLID_29768_" class="st1" d="M86.5,85"/>
			<path id="XMLID_29765_" class="st1" d="M113.3,78.8c-42.7-31.3-76,8-76,8S10,149.4,62.1,166C114.2,182.6,156,110.1,113.3,78.8z
				 M94,110.3c14.7,33.1-51.1,23.8-33.7,1C60.3,111.3,79.2,77.2,94,110.3z"/>
			<path id="XMLID_29764_" class="st1" d="M96.6,74.8"/>
		</g>
		<path id="XMLID_29762_" class="st1" d="M94.6,152.5c0,0,3.8,25.4,26.5,12s-1.2-35.5-1.2-35.5"/>
	</g>
	<path id="XMLID_29760_" class="st1" d="M139.4,145.3c0,0,5,30,29,19.4c24-10.5,12.2-124.3,1.1-133.1S127.4-31.3,139.4,145.3z"/>
	<path id="XMLID_29769_" class="st1" d="M192.4,145.3c0,0,5,30,29,19.4c24-10.5,12.2-124.3,1.1-133.1S180.4-31.3,192.4,145.3z"/>
	<path id="XMLID_29806_" class="st1" d="M294.4,72.7c-51.2,16.3-24.3,77.8-24.3,77.8s32.7,38.6,74.7,7.9
		C386.7,127.7,345.6,56.5,294.4,72.7z M301.6,137.2c-28-3.8,11.3-56,24.1-22.7C338.4,147.7,301.6,137.2,301.6,137.2z"/>
	<g id="XMLID_29803_">
		<path id="XMLID_29805_" class="st1" d="M1221,93.5c0,0-8.9-6.2-12.7-1.4c-3.8,4.9-10.4,13.1-2.6,29.3c7.8,16.2,37,2.8,39.8-4.7"/>
		<path id="XMLID_29804_" class="st1" d="M1253.7,107.3L1253.7,107.3c-5.4-14.4-17.2-25.7-35.2-27.5c-36-3.6-50.8,19.7-56.4,33.9
			c0,0-1.3,2.1-2.2,6.3c-0.7,2.5-0.9,4.6-0.8,5.5c-0.5,7.8,0.8,19.3,8,34.6c5.9,12.4,21,16.9,31,18.5c2.8,0.6,5.9,0.9,9.1,0.9
			c0.2,0,0.3,0,0.3,0l0,0c3.5-0.1,7.2-0.5,11.2-1.4c15.8-3.6,26.6-13.7,32.7-26.1c-1-14.3-13.3-16.1-20.7-17.2
			c-4-0.6-8.2,1.9-11.3,4.5c-0.3,0.3-0.7,0.6-1,0.8c-10.6,7.9-38.5-7.6-23.9-19.1c0,0,5-5.3,10.8-7.7h0c0,0,4.9-2.5,8.8-1.1
			c1.5,0.5,2.9,1.7,3.8,3.8c0,0.1,0.1,0.2,0.2,0.3c0.4,1,1,2,1.7,3.2c4.8,7.8,15.6,18.2,25.6,11c11.5-8.3,10.2-11.5,10.7-14.7l0,0
			C1256.6,112.6,1253.7,107.3,1253.7,107.3z"/>
	</g>
	<g id="XMLID_29796_">
		<path id="XMLID_29802_" class="st1" d="M510.3,96"/>
		<path id="XMLID_29799_" class="st1" d="M536.5,90.5c-41.9-30.8-74.7,7.9-74.7,7.9s-26.9,61.6,24.3,77.8
			C537.3,192.5,578.4,121.3,536.5,90.5z M517.3,134.5c-12.8,33.3-52.1-18.9-24.1-22.7C493.3,111.8,530.1,101.3,517.3,134.5z"/>
		<path id="XMLID_29798_" class="st1" d="M520.3,85.8"/>
		<path id="XMLID_29797_" class="st1" d="M520.3,83.8c0,0,33.2-31.7,34,27.9s11.9,114.1-52,113.7c0,0-34.8-14.5,0-29.8
			c17-7.5,20.4-23,20-42.5"/>
	</g>
	<g id="XMLID_29788_">
		<g id="XMLID_29790_">
			<path id="XMLID_29795_" class="st1" d="M714.7,86.9"/>
			<path id="XMLID_29792_" class="st1" d="M741.5,80.7c-42.7-31.3-76,8-76,8s-27.3,62.7,24.8,79.2C742.3,184.5,784.2,112,741.5,80.7
				z M722.1,112.2c14.7,33.1-51.1,23.8-33.7,1C688.5,113.2,707.4,79.1,722.1,112.2z"/>
			<path id="XMLID_29791_" class="st1" d="M724.7,76.7"/>
		</g>
		<path id="XMLID_29789_" class="st1" d="M722.8,154.4c0,0,3.8,25.4,26.5,12c22.8-13.4-1.2-35.5-1.2-35.5"/>
	</g>
	<g id="XMLID_29784_">
		<g id="XMLID_29786_">
			<path id="XMLID_29787_" class="st1" d="M456.5,111c0,0,6.8-35.6-23.2-25.5c-30.1,10.1-11.9,88.1,4,84.7
				C453.1,166.9,460.5,154.4,456.5,111z"/>
		</g>
		<path id="XMLID_29785_" class="st1" d="M440.1,37c0,0,33.8,19.4,0.5,33.7S417.4,19.3,440.1,37z"/>
	</g>
	<g id="XMLID_29781_">
		<path id="XMLID_29783_" class="st1" d="M630.4,84.8c0,0-4.1-20-23.7-13s-10,82.9-0.9,88.7C614.9,166.4,640.2,202.5,630.4,84.8z"/>
		<path id="XMLID_29782_" class="st1" d="M625.9,121.2c0,0,34.4-34,27.4,29.5c0,0,8.2,19.6,24.1,11.5c16-8.2,18.4-108.9-58.5-80.6"
			/>
	</g>
	<g id="XMLID_29778_">
		<path id="XMLID_29780_" class="st1" d="M417.9,81.9c0,0-54.3-37.3-77.7,28.6s33.6,76.3,32.3,36.2s12.4-43.4,28.2-37.2
			C416.5,115.7,438.7,109,417.9,81.9z"/>
		<path id="XMLID_29779_" class="st1" d="M371.7,85.8c0,0-3.6-24.7-25.7-11.7s1.2,34.5,1.2,34.5"/>
	</g>
	<g id="XMLID_29775_">
		<path id="XMLID_29777_" class="st1" d="M1127.7,37.9c0,0-33.2-31.7-34,27.9s-11.9,114.1,52,113.7c0,0,34.8-14.5,0-29.8
			c-17-7.5-20.4-23-20-42.5"/>
		<path id="XMLID_29776_" class="st1" d="M1119.7,106.1c0,0,24.8,6.9,21.7-19.4c-3-26.2-33-13.2-33-13.2"/>
	</g>
	<g id="XMLID_29771_">
		<path id="XMLID_29774_" class="st1" d="M991.3,114.1c0,0,17.3-0.9,15.4-15.4c-1.5-11.5-49.9-32.5-69.7-7.4
			c-5.2,6.5-8.4,16.2-8.3,30c0,0,0,0.1,0,0.1c1.4,4.7,3.9,8.7,7.1,12c1.2,1.3,2.5,2.4,3.7,3.3c8.9,6.8,21.4,9.8,32.4,10.1
			c-1.6,6.2-9,9.7-32.7-1.8c0,0-17.3,0.9-15.4,15.4c1.5,11.5,50,32.5,69.8,7.4c5.2-6.6,8.4-16.2,8.3-30c0,0,0-0.1,0-0.1
			c-1.4-4.8-3.9-8.7-7.1-12c-1.2-1.3-2.5-2.4-3.7-3.3c-8.9-6.8-21.4-9.8-32.4-10.1C960.2,106,967.7,102.5,991.3,114.1z"/>
		<path id="XMLID_29773_" class="st1" d="M969.4,132c0,0,16.6,35.8-30.2,13c0,0-17.3,0.9-15.4,15.4s78.5,44.1,78-22.8"/>
		<path id="XMLID_29772_" class="st1" d="M961.2,127c0,0-16.6-35.8,30.2-13c0,0,17.3-0.9,15.4-15.4s-78.5-44.1-78,22.8"/>
	</g>
	<path id="XMLID_29770_" class="st1" d="M756.4,148.7c0,0,5,30,29,19.4c24-10.5,12.2-124.3,1.1-133.1S744.4-27.9,756.4,148.7z"/>
	<g id="XMLID_29809_">
		<g id="XMLID_29811_">
			<path id="XMLID_29812_" class="st1" d="M592.2,111c0,0,6.8-35.6-23.2-25.5c-30.1,10.1-11.9,88.1,4,84.7
				C588.8,166.9,596.2,154.4,592.2,111z"/>
		</g>
		<path id="XMLID_29810_" class="st1" d="M575.8,37c0,0,33.8,19.4,0.5,33.7S553.2,19.3,575.8,37z"/>
	</g>
	<g id="XMLID_29813_">
		<g id="XMLID_29815_">
			<path id="XMLID_29820_" class="st1" d="M890.5,96"/>
			<path id="XMLID_29817_" class="st1" d="M917.3,89.8c-42.7-31.3-76,8-76,8s-27.3,62.7,24.8,79.2C918.2,193.6,960,121.1,917.3,89.8
				z M898,121.4c14.7,33.1-51.1,23.8-33.7,1C864.3,122.3,883.2,88.2,898,121.4z"/>
			<path id="XMLID_29816_" class="st1" d="M900.6,85.8"/>
		</g>
		<path id="XMLID_29814_" class="st1" d="M898.6,163.6c0,0,3.8,25.4,26.5,12c22.8-13.4-1.2-35.5-1.2-35.5"/>
	</g>
	<g id="XMLID_29821_">
		<path id="XMLID_29824_" class="st1" d="M1072.1,114.1c0,0,17.3-0.9,15.4-15.4c-1.5-11.5-49.9-32.5-69.7-7.4
			c-5.2,6.5-8.4,16.2-8.3,30c0,0,0,0.1,0,0.1c1.4,4.7,3.9,8.7,7.1,12c1.2,1.3,2.5,2.4,3.7,3.3c8.9,6.8,21.4,9.8,32.4,10.1
			c-1.6,6.2-9,9.7-32.7-1.8c0,0-17.3,0.9-15.4,15.4c1.5,11.5,50,32.5,69.8,7.4c5.2-6.6,8.4-16.2,8.3-30c0,0,0-0.1,0-0.1
			c-1.4-4.8-3.9-8.7-7.1-12c-1.2-1.3-2.5-2.4-3.7-3.3c-8.9-6.8-21.4-9.8-32.4-10.1C1041,106,1048.5,102.5,1072.1,114.1z"/>
		<path id="XMLID_29823_" class="st1" d="M1050.2,132c0,0,16.6,35.8-30.2,13c0,0-17.3,0.9-15.4,15.4c1.9,14.5,78.5,44.1,78-22.8"/>
		<path id="XMLID_29822_" class="st1" d="M1041.9,127c0,0-16.6-35.8,30.2-13c0,0,17.3-0.9,15.4-15.4c-1.9-14.5-78.5-44.1-78,22.8"/>
	</g>
	<g id="XMLID_29825_">
		<path id="XMLID_29828_" class="st1" d="M1314.3,114.1c0,0,17.3-0.9,15.4-15.4c-1.5-11.5-49.9-32.5-69.7-7.4
			c-5.2,6.5-8.4,16.2-8.3,30c0,0,0,0.1,0,0.1c1.4,4.7,3.9,8.7,7.1,12c1.2,1.3,2.5,2.4,3.7,3.3c8.9,6.8,21.4,9.8,32.4,10.1
			c-1.6,6.2-9,9.7-32.7-1.8c0,0-17.3,0.9-15.4,15.4c1.5,11.5,50,32.5,69.8,7.4c5.2-6.6,8.4-16.2,8.3-30c0,0,0-0.1,0-0.1
			c-1.4-4.8-3.9-8.7-7.1-12c-1.2-1.3-2.5-2.4-3.7-3.3c-8.9-6.8-21.4-9.8-32.4-10.1C1283.2,106,1290.7,102.5,1314.3,114.1z"/>
		<path id="XMLID_29827_" class="st1" d="M1292.4,132c0,0,16.6,35.8-30.2,13c0,0-17.3,0.9-15.4,15.4s78.5,44.1,78-22.8"/>
		<path id="XMLID_29826_" class="st1" d="M1284.2,127c0,0-16.6-35.8,30.2-13c0,0,17.3-0.9,15.4-15.4s-78.5-44.1-78,22.8"/>
	</g>
	<path id="XMLID_29922_" class="st1" d="M638.4,258.3c-51.2,16.3-24.3,77.8-24.3,77.8s32.7,38.6,74.7,7.9
		C730.7,313.3,689.6,242,638.4,258.3z M645.6,322.8c-28-3.8,11.3-56,24.1-22.7C682.4,333.3,645.6,322.8,645.6,322.8z"/>
	<g id="XMLID_29919_">
		<path id="XMLID_29921_" class="st1" d="M439,269.9c0,0-8.9-6.2-12.7-1.4s-10.4,13.1-2.6,29.3s37,2.8,39.8-4.7"/>
		<path id="XMLID_29920_" class="st1" d="M471.7,283.8L471.7,283.8c-5.4-14.4-17.2-25.7-35.2-27.5c-36-3.6-50.8,19.7-56.4,33.9
			c0,0-1.3,2.1-2.2,6.3c-0.7,2.5-0.9,4.6-0.8,5.5c-0.5,7.8,0.8,19.3,8,34.6c5.9,12.4,21,16.9,31,18.5c2.8,0.6,5.9,0.9,9.1,0.9
			c0.2,0,0.3,0,0.3,0l0,0c3.5-0.1,7.2-0.5,11.2-1.4c15.8-3.6,26.6-13.7,32.7-26.1c-1-14.3-13.3-16.1-20.7-17.2
			c-4-0.6-8.2,1.9-11.3,4.5c-0.3,0.3-0.7,0.6-1,0.8c-10.6,7.9-38.5-7.6-23.9-19.1c0,0,5-5.3,10.8-7.7h0c0,0,4.9-2.5,8.8-1.1
			c1.5,0.5,2.9,1.7,3.8,3.8c0,0.1,0.1,0.2,0.2,0.3c0.4,1,1,2,1.7,3.2c4.8,7.8,15.6,18.2,25.6,11c11.5-8.3,10.2-11.5,10.7-14.7l0,0
			C474.6,289.1,471.7,283.8,471.7,283.8z"/>
	</g>
	<g id="XMLID_29916_">
		<path id="XMLID_29918_" class="st1" d="M38.2,347.5c0,0-33.2,31.7-34-27.9s-11.9-114.1,52-113.7c0,0,34.8,14.5,0,29.8
			c-17,7.5-20.4,23-20,42.5"/>
		<path id="XMLID_29917_" class="st1" d="M24.6,296.6c20-1.7,35.4-6.6,36.7-18c0,0-0.5-12.7-16.1-13.2c0,0-3.8,0-9.9-0.1"/>
	</g>
	<g id="XMLID_29908_">
		<g id="XMLID_29910_">
			<path id="XMLID_29915_" class="st1" d="M169.5,272.4"/>
			<path id="XMLID_29912_" class="st1" d="M196.3,266.3c-42.7-31.3-76,8-76,8s-27.3,62.7,24.7,79.2
				C197.2,370.1,239,297.6,196.3,266.3z M177,297.8c14.7,33.1-51.1,23.8-33.7,1C143.3,298.8,162.2,264.7,177,297.8z"/>
			<path id="XMLID_29911_" class="st1" d="M179.6,262.3"/>
		</g>
		<path id="XMLID_29909_" class="st1" d="M177.6,340c0,0,3.8,25.4,26.5,12s-1.2-35.5-1.2-35.5"/>
	</g>
	<g id="XMLID_29883_">
		<g id="XMLID_29893_">
			<g id="XMLID_29898_">
				<path id="XMLID_29901_" class="st1" d="M290.1,335.5"/>
				<path id="XMLID_29900_" class="st1" d="M323.6,333.5c-0.2-14.4-1.1-33.9,4.5-38.2c7.2-5.7,30.9-3.5,27.7,11.5
					c-1.9,8.8-2.1,18.6-2,25.3c0.1,4.7,0.2,8.6,0.2,9.9c0,3.8,1.7,11.6,14.7,13.1c17.3,2,19.5-3.5,19.5-15.9
					c0-12.3,14.1-70.7-35.7-81c-34.9-7.3-53.4,12.6-61.3,28.9"/>
				<path id="XMLID_29899_" class="st1" d="M325.5,292.9"/>
			</g>
			<g id="XMLID_29894_">
				<path id="XMLID_29897_" class="st1" d="M226.2,335.4c2,10.3,33.6,2.4,33.6-2c-0.2-14.4-1.1-33.9,4.5-38.2c5.9-4.7,22.8-4,27,4.5
					c0.9,1.9,1.3,4.2,0.7,6.9c-1.9,8.8-2.1,18.6-2,25.3c0.1,4.7,0.2,8.6,0.2,9.9c0,3.8,1.7,11.6,14.7,13.1
					c17.3,2,19.5-3.5,19.5-15.9c0-12.3,14.1-70.7-35.7-81c-49.8-10.4-66.1,34.7-66,45.4C222.6,309.2,223.8,323.4,226.2,335.4"/>
				<path id="XMLID_29896_" class="st1" d="M261.6,292.9"/>
				<path id="XMLID_29895_" class="st1" d="M261.6,292.9c0.8,20-0.2,43.2-2.6,52c0,0-9.4,16.9-24,9.1c-14.6-7.8-15.7-89.3-6.7-93
					c9-3.7,26.5-11.7,30.7,7.1"/>
			</g>
		</g>
		<g id="XMLID_29889_">
			<path id="XMLID_29892_" class="st1" d="M290,335.5"/>
			<path id="XMLID_29891_" class="st1" d="M325.3,300c0.7-2.1,1.6-3.8,2.8-4.7c7.2-5.7,30.9-3.5,27.7,11.5c-1.9,8.8-2.1,18.6-2,25.3
				c0.1,4.7,0.2,8.6,0.2,9.9c0,3.8,1.7,11.6,14.7,13.1c17.3,2,19.5-3.5,19.5-15.9c0-12.3,14.1-70.7-35.7-81
				c-19.8-4.1-34.3,0.5-44.6,8.2"/>
			<path id="XMLID_29890_" class="st1" d="M325.4,292.9"/>
		</g>
		<g id="XMLID_29884_">
			<path id="XMLID_29888_" class="st1" d="M313.5,271.4c-5.6-6.2-13.7-11.1-25-13.4"/>
			<path id="XMLID_29887_" class="st1" d="M313.5,271.4"/>
			<path id="XMLID_29886_" class="st1" d="M261.5,292.8"/>
			<path id="XMLID_29885_" class="st1" d="M261.5,292.8c0.8,20-0.2,43.2-2.6,52c0,0-9.4,16.9-24,9.1s-15.7-89.3-6.7-93
				c9-3.7,26.5-11.7,30.7,7.1"/>
		</g>
	</g>
	<g id="XMLID_29880_">
		<path id="XMLID_29882_" class="st1" d="M137,267.5c0,0-54.3-37.3-77.7,28.6s33.6,76.3,32.3,36.2c-1.3-40.1,12.4-43.4,28.2-37.2
			S157.8,294.6,137,267.5z"/>
		<path id="XMLID_29881_" class="st1" d="M90.9,271.4c0,0-3.6-24.7-25.7-11.7c-22.1,13,1.2,34.5,1.2,34.5"/>
	</g>
	<g id="XMLID_29876_">
		<path id="XMLID_29879_" class="st1" d="M571.6,284.6c0,0-1.9-33.2-24.3-23.4c-22.4,9.8-9.8,103.7,47.2,90.2
			c57-13.5,34-87.3,34-87.3s-23.7-21.1-27.9,15.3c0,0-1.2,24.4-12.4,26.4C577.1,307.8,570.6,290.7,571.6,284.6z"/>
		<g id="XMLID_29877_">
			<path id="XMLID_29878_" class="st1" d="M542.9,304.9c0,0-39.2,38.8-31.3-33.6c0,0-9.3-22.4-27.6-13.1s-21,124.3,66.8,92
				c0,0,23.7-9,30-13.7"/>
		</g>
	</g>
	<g id="XMLID_29925_">
		<path id="XMLID_29927_" class="st1" d="M777,267.5c0,0-54.3-37.3-77.7,28.6c-23.4,66,33.6,76.3,32.3,36.2s12.4-43.4,28.2-37.2
			C775.6,301.3,797.8,294.6,777,267.5z"/>
		<path id="XMLID_29926_" class="st1" d="M730.9,271.4c0,0-3.6-24.7-25.7-11.7c-22.1,13,1.2,34.5,1.2,34.5"/>
	</g>
	<g id="XMLID_29902_">
		<g id="XMLID_29906_">
			<path id="XMLID_29907_" class="st1" d="M843.2,259.6c0,0,30-20.3,1.6-34.5c-28.4-14.1-70.7,53.9-57.1,62.8
				C801.4,296.8,815.4,293.2,843.2,259.6z"/>
		</g>
		<g id="XMLID_29903_">
			<path id="XMLID_29905_" class="st1" d="M801.8,252.7c-0.3-6-0.7-12.2-1.2-18.9c0,0-5-28.5-29-18.5s-12.2,118.2-1.1,126.6
				c9,6.8,31.2,42.1,32.7-35.2"/>
			<path id="XMLID_29904_" class="st1" d="M794.7,315.7c0,0,40.1-31.4,32,27.2c0,0,9.5,18.1,28.2,10.6S876.3,253,786.5,279"/>
		</g>
	</g>
	<path id="XMLID_29928_" class="st1" d="M1309.9,201.7c0,0,30.2,16.1,38.4-19.3c8.3-35.4-21.7-37.4-18.7-16.8s-3.9,23.1-12.4,20.8
		S1297.6,188.9,1309.9,201.7z"/>
	<g id="XMLID_29938_">
		<path id="XMLID_29940_" class="st1" d="M1120.6,209.2c0,0-33.2-31.7-34,27.9s-11.9,114.1,52,113.7c0,0,34.8-14.5,0-29.8
			c-17-7.5-20.4-23-20-42.5"/>
		<path id="XMLID_29939_" class="st1" d="M1112.7,277.4c0,0,24.8,6.9,21.7-19.4c-3-26.2-33-13.2-33-13.2"/>
	</g>
	<g id="XMLID_29935_">
		<path id="XMLID_29937_" class="st1" d="M1185.1,290.5c0,0-2-35-25.7-24.7c-23.7,10.4-10.4,109.5,49.8,95.2s35.9-92.2,35.9-92.2
			s-25-22.3-29.5,16.2c0,0-1.3,25.8-13.1,27.9C1190.9,315,1184,297,1185.1,290.5z"/>
		<path id="XMLID_29936_" class="st1" d="M1215.2,348.5c0,0,5.8,42-17.5,48.3c-23.2,6.3-20.4,32.3,5.5,31c25.9-1.3,52.6-22,41.2-142
			"/>
	</g>
	<g id="XMLID_29931_">
		<path id="XMLID_29934_" class="st1" d="M1066.3,285.4c0,0,17.3-0.9,15.4-15.4c-1.5-11.5-49.9-32.5-69.7-7.4
			c-5.2,6.5-8.4,16.2-8.3,30c0,0,0,0.1,0,0.1c1.4,4.7,3.9,8.7,7.1,12c1.2,1.3,2.5,2.4,3.7,3.3c8.9,6.8,21.4,9.8,32.4,10.1
			c-1.6,6.2-9,9.7-32.7-1.8c0,0-17.3,0.9-15.4,15.4c1.5,11.5,50,32.5,69.8,7.4c5.2-6.6,8.4-16.2,8.3-30c0,0,0-0.1,0-0.1
			c-1.4-4.8-3.9-8.7-7.1-12c-1.2-1.3-2.5-2.4-3.7-3.3c-8.9-6.8-21.4-9.8-32.4-10.1C1035.2,277.3,1042.7,273.9,1066.3,285.4z"/>
		<path id="XMLID_29933_" class="st1" d="M1044.4,303.3c0,0,16.6,35.8-30.2,13c0,0-17.3,0.9-15.4,15.4c1.9,14.5,78.5,44.1,78-22.8"
			/>
		<path id="XMLID_29932_" class="st1" d="M1036.2,298.3c0,0-16.6-35.8,30.2-13c0,0,17.3-0.9,15.4-15.4c-1.9-14.5-78.5-44.1-78,22.8"
			/>
	</g>
	<path id="XMLID_29930_" class="st1" d="M1258.5,329.1c0,0,5,30,29,19.4c24-10.5,12.2-124.3,1.1-133.1
		C1277.5,206.7,1246.5,152.5,1258.5,329.1z"/>
	<g id="XMLID_29948_">
		<path id="XMLID_29954_" class="st1" d="M1456.2,265.5"/>
		<path id="XMLID_29951_" class="st1" d="M1482.4,260c-41.9-30.8-74.7,7.9-74.7,7.9s-26.9,61.6,24.3,77.8
			C1483.2,362,1524.3,290.7,1482.4,260z M1463.3,304c-12.8,33.3-52.1-18.9-24.1-22.7C1439.2,281.2,1476,270.7,1463.3,304z"/>
		<path id="XMLID_29950_" class="st1" d="M1466.2,255.3"/>
		<path id="XMLID_29949_" class="st1" d="M1466.2,253.2c0,0,33.2-31.7,34,27.9s11.9,114.1-52,113.7c0,0-34.8-14.5,0-29.8
			c17-7.5,20.4-23,20-42.5"/>
	</g>
	<g id="XMLID_29944_">
		<g id="XMLID_29946_">
			<path id="XMLID_29947_" class="st1" d="M1333.3,291.4c0,0,6.8-35.6-23.2-25.5c-30.1,10.1-11.9,88.1,4,84.8
				C1330,347.4,1337.3,334.9,1333.3,291.4z"/>
		</g>
		<path id="XMLID_29945_" class="st1" d="M1317,217.5c0,0,33.8,19.4,0.5,33.7C1284.2,265.5,1294.3,199.7,1317,217.5z"/>
	</g>
	<g id="XMLID_29941_">
		<path id="XMLID_29943_" class="st1" d="M1361.2,265.2c0,0-4.1-20-23.7-13c-19.6,7-10,82.9-0.9,88.7
			C1345.6,346.9,1371,383,1361.2,265.2z"/>
		<path id="XMLID_29942_" class="st1" d="M1356.7,301.6c0,0,34.4-34,27.4,29.5c0,0,8.2,19.6,24.1,11.5c16-8.2,18.4-108.9-58.5-80.6"
			/>
	</g>
	<g>
		<path id="XMLID_29955_" class="st1" d="M920.5,316.7c0,0,2.5,15,14.5,9.7c12-5.3,6.1-62.1,0.5-66.5
			C930,255.4,914.5,228.4,920.5,316.7z"/>
		<path id="XMLID_29956_" class="st1" d="M957.2,300.1c0,0,15-2.5,9.7-14.5s-62.1-6.1-66.5-0.5C896,290.6,868.9,306.1,957.2,300.1z"
			/>
	</g>
</g>
<g>
	<g id="XMLID_30262_">
		<g id="XMLID_30264_">
			<path id="XMLID_30269_" class="st2" d="M86.5,71"/>
			<path id="XMLID_30266_" class="st2" d="M113.3,64.8c-42.7-31.3-76,8-76,8S10,135.4,62.1,152C114.2,168.6,156,96.1,113.3,64.8z
				 M94,96.3c14.7,33.1-51.1,23.8-33.7,1C60.3,97.3,79.2,63.2,94,96.3z"/>
			<path id="XMLID_30265_" class="st2" d="M96.6,60.8"/>
		</g>
		<path id="XMLID_30263_" class="st2" d="M94.6,138.5c0,0,3.8,25.4,26.5,12s-1.2-35.5-1.2-35.5"/>
	</g>
	<path id="XMLID_30261_" class="st2" d="M139.4,131.3c0,0,5,30,29,19.4c24-10.5,12.2-124.3,1.1-133.1S127.4-45.3,139.4,131.3z"/>
	<path id="XMLID_30260_" class="st2" d="M192.4,131.3c0,0,5,30,29,19.4c24-10.5,12.2-124.3,1.1-133.1S180.4-45.3,192.4,131.3z"/>
	<path id="XMLID_30257_" class="st2" d="M294.4,58.7c-51.2,16.3-24.3,77.8-24.3,77.8s32.7,38.6,74.7,7.9
		C386.7,113.7,345.6,42.5,294.4,58.7z M301.6,123.2c-28-3.8,11.3-56,24.1-22.7C338.4,133.7,301.6,123.2,301.6,123.2z"/>
	<g id="XMLID_30254_">
		<path id="XMLID_30256_" class="st2" d="M1221,79.5c0,0-8.9-6.2-12.7-1.4c-3.8,4.9-10.4,13.1-2.6,29.3c7.8,16.2,37,2.8,39.8-4.7"/>
		<path id="XMLID_30255_" class="st2" d="M1253.7,93.3L1253.7,93.3c-5.4-14.4-17.2-25.7-35.2-27.5c-36-3.6-50.8,19.7-56.4,33.9
			c0,0-1.3,2.1-2.2,6.3c-0.7,2.5-0.9,4.6-0.8,5.5c-0.5,7.8,0.8,19.3,8,34.6c5.9,12.4,21,16.9,31,18.5c2.8,0.6,5.9,0.9,9.1,0.9
			c0.2,0,0.3,0,0.3,0l0,0c3.5-0.1,7.2-0.5,11.2-1.4c15.8-3.6,26.6-13.7,32.7-26.1c-1-14.3-13.3-16.1-20.7-17.2
			c-4-0.6-8.2,1.9-11.3,4.5c-0.3,0.3-0.7,0.6-1,0.8c-10.6,7.9-38.5-7.6-23.9-19.1c0,0,5-5.3,10.8-7.7h0c0,0,4.9-2.5,8.8-1.1
			c1.5,0.5,2.9,1.7,3.8,3.8c0,0.1,0.1,0.2,0.2,0.3c0.4,1,1,2,1.7,3.2c4.8,7.8,15.6,18.2,25.6,11c11.5-8.3,10.2-11.5,10.7-14.7l0,0
			C1256.6,98.6,1253.7,93.3,1253.7,93.3z"/>
	</g>
	<g id="XMLID_30247_">
		<path id="XMLID_30253_" class="st2" d="M510.3,82"/>
		<path id="XMLID_30250_" class="st2" d="M536.5,76.5c-41.9-30.8-74.7,7.9-74.7,7.9s-26.9,61.6,24.3,77.8
			C537.3,178.5,578.4,107.3,536.5,76.5z M517.3,120.5c-12.8,33.3-52.1-18.9-24.1-22.7C493.3,97.8,530.1,87.3,517.3,120.5z"/>
		<path id="XMLID_30249_" class="st2" d="M520.3,71.8"/>
		<path id="XMLID_30248_" class="st2" d="M520.3,69.8c0,0,33.2-31.7,34,27.9s11.9,114.1-52,113.7c0,0-34.8-14.5,0-29.8
			c17-7.5,20.4-23,20-42.5"/>
	</g>
	<g id="XMLID_30239_">
		<g id="XMLID_30241_">
			<path id="XMLID_30246_" class="st2" d="M714.7,72.9"/>
			<path id="XMLID_30243_" class="st2" d="M741.5,66.7c-42.7-31.3-76,8-76,8s-27.3,62.7,24.8,79.2C742.3,170.5,784.2,98,741.5,66.7z
				 M722.1,98.2c14.7,33.1-51.1,23.8-33.7,1C688.5,99.2,707.4,65.1,722.1,98.2z"/>
			<path id="XMLID_30242_" class="st2" d="M724.7,62.7"/>
		</g>
		<path id="XMLID_30240_" class="st2" d="M722.8,140.4c0,0,3.8,25.4,26.5,12c22.8-13.4-1.2-35.5-1.2-35.5"/>
	</g>
	<g id="XMLID_30235_">
		<g id="XMLID_30237_">
			<path id="XMLID_30238_" class="st2" d="M456.5,97c0,0,6.8-35.6-23.2-25.5c-30.1,10.1-11.9,88.1,4,84.7
				C453.1,152.9,460.5,140.4,456.5,97z"/>
		</g>
		<path id="XMLID_30236_" class="st2" d="M440.1,23c0,0,33.8,19.4,0.5,33.7S417.4,5.3,440.1,23z"/>
	</g>
	<g id="XMLID_30232_">
		<path id="XMLID_30234_" class="st2" d="M630.4,70.8c0,0-4.1-20-23.7-13s-10,82.9-0.9,88.7C614.9,152.4,640.2,188.5,630.4,70.8z"/>
		<path id="XMLID_30233_" class="st2" d="M625.9,107.2c0,0,34.4-34,27.4,29.5c0,0,8.2,19.6,24.1,11.5c16-8.2,18.4-108.9-58.5-80.6"
			/>
	</g>
	<g id="XMLID_30229_">
		<path id="XMLID_30231_" class="st2" d="M417.9,67.9c0,0-54.3-37.3-77.7,28.6s33.6,76.3,32.3,36.2s12.4-43.4,28.2-37.2
			C416.5,101.7,438.7,95,417.9,67.9z"/>
		<path id="XMLID_30230_" class="st2" d="M371.7,71.8c0,0-3.6-24.7-25.7-11.7s1.2,34.5,1.2,34.5"/>
	</g>
	<g id="XMLID_30226_">
		<path id="XMLID_30228_" class="st2" d="M1127.7,23.9c0,0-33.2-31.7-34,27.9s-11.9,114.1,52,113.7c0,0,34.8-14.5,0-29.8
			c-17-7.5-20.4-23-20-42.5"/>
		<path id="XMLID_30227_" class="st2" d="M1119.7,92.1c0,0,24.8,6.9,21.7-19.4c-3-26.2-33-13.2-33-13.2"/>
	</g>
	<g id="XMLID_30222_">
		<path id="XMLID_30225_" class="st2" d="M991.3,100.1c0,0,17.3-0.9,15.4-15.4c-1.5-11.5-49.9-32.5-69.7-7.4
			c-5.2,6.5-8.4,16.2-8.3,30c0,0,0,0.1,0,0.1c1.4,4.7,3.9,8.7,7.1,12c1.2,1.3,2.5,2.4,3.7,3.3c8.9,6.8,21.4,9.8,32.4,10.1
			c-1.6,6.2-9,9.7-32.7-1.8c0,0-17.3,0.9-15.4,15.4c1.5,11.5,50,32.5,69.8,7.4c5.2-6.6,8.4-16.2,8.3-30c0,0,0-0.1,0-0.1
			c-1.4-4.8-3.9-8.7-7.1-12c-1.2-1.3-2.5-2.4-3.7-3.3c-8.9-6.8-21.4-9.8-32.4-10.1C960.2,92,967.7,88.5,991.3,100.1z"/>
		<path id="XMLID_30224_" class="st2" d="M969.4,118c0,0,16.6,35.8-30.2,13c0,0-17.3,0.9-15.4,15.4s78.5,44.1,78-22.8"/>
		<path id="XMLID_30223_" class="st2" d="M961.2,113c0,0-16.6-35.8,30.2-13c0,0,17.3-0.9,15.4-15.4s-78.5-44.1-78,22.8"/>
	</g>
	<path id="XMLID_30221_" class="st2" d="M756.4,134.7c0,0,5,30,29,19.4c24-10.5,12.2-124.3,1.1-133.1S744.4-41.9,756.4,134.7z"/>
	<g id="XMLID_30217_">
		<g id="XMLID_30219_">
			<path id="XMLID_30220_" class="st2" d="M592.2,97c0,0,6.8-35.6-23.2-25.5c-30.1,10.1-11.9,88.1,4,84.7
				C588.8,152.9,596.2,140.4,592.2,97z"/>
		</g>
		<path id="XMLID_30218_" class="st2" d="M575.8,23c0,0,33.8,19.4,0.5,33.7S553.2,5.3,575.8,23z"/>
	</g>
	<g id="XMLID_30209_">
		<g id="XMLID_30211_">
			<path id="XMLID_30216_" class="st2" d="M890.5,82"/>
			<path id="XMLID_30213_" class="st2" d="M917.3,75.8c-42.7-31.3-76,8-76,8s-27.3,62.7,24.8,79.2C918.2,179.6,960,107.1,917.3,75.8
				z M898,107.4c14.7,33.1-51.1,23.8-33.7,1C864.3,108.3,883.2,74.2,898,107.4z"/>
			<path id="XMLID_30212_" class="st2" d="M900.6,71.8"/>
		</g>
		<path id="XMLID_30210_" class="st2" d="M898.6,149.6c0,0,3.8,25.4,26.5,12c22.8-13.4-1.2-35.5-1.2-35.5"/>
	</g>
	<g id="XMLID_30205_">
		<path id="XMLID_30208_" class="st2" d="M1072.1,100.1c0,0,17.3-0.9,15.4-15.4c-1.5-11.5-49.9-32.5-69.7-7.4
			c-5.2,6.5-8.4,16.2-8.3,30c0,0,0,0.1,0,0.1c1.4,4.7,3.9,8.7,7.1,12c1.2,1.3,2.5,2.4,3.7,3.3c8.9,6.8,21.4,9.8,32.4,10.1
			c-1.6,6.2-9,9.7-32.7-1.8c0,0-17.3,0.9-15.4,15.4c1.5,11.5,50,32.5,69.8,7.4c5.2-6.6,8.4-16.2,8.3-30c0,0,0-0.1,0-0.1
			c-1.4-4.8-3.9-8.7-7.1-12c-1.2-1.3-2.5-2.4-3.7-3.3c-8.9-6.8-21.4-9.8-32.4-10.1C1041,92,1048.5,88.5,1072.1,100.1z"/>
		<path id="XMLID_30207_" class="st2" d="M1050.2,118c0,0,16.6,35.8-30.2,13c0,0-17.3,0.9-15.4,15.4c1.9,14.5,78.5,44.1,78-22.8"/>
		<path id="XMLID_30206_" class="st2" d="M1041.9,113c0,0-16.6-35.8,30.2-13c0,0,17.3-0.9,15.4-15.4c-1.9-14.5-78.5-44.1-78,22.8"/>
	</g>
	<g id="XMLID_30201_">
		<path id="XMLID_30204_" class="st2" d="M1314.3,100.1c0,0,17.3-0.9,15.4-15.4c-1.5-11.5-49.9-32.5-69.7-7.4
			c-5.2,6.5-8.4,16.2-8.3,30c0,0,0,0.1,0,0.1c1.4,4.7,3.9,8.7,7.1,12c1.2,1.3,2.5,2.4,3.7,3.3c8.9,6.8,21.4,9.8,32.4,10.1
			c-1.6,6.2-9,9.7-32.7-1.8c0,0-17.3,0.9-15.4,15.4c1.5,11.5,50,32.5,69.8,7.4c5.2-6.6,8.4-16.2,8.3-30c0,0,0-0.1,0-0.1
			c-1.4-4.8-3.9-8.7-7.1-12c-1.2-1.3-2.5-2.4-3.7-3.3c-8.9-6.8-21.4-9.8-32.4-10.1C1283.2,92,1290.7,88.5,1314.3,100.1z"/>
		<path id="XMLID_30203_" class="st2" d="M1292.4,118c0,0,16.6,35.8-30.2,13c0,0-17.3,0.9-15.4,15.4s78.5,44.1,78-22.8"/>
		<path id="XMLID_30202_" class="st2" d="M1284.2,113c0,0-16.6-35.8,30.2-13c0,0,17.3-0.9,15.4-15.4s-78.5-44.1-78,22.8"/>
	</g>
	<path id="XMLID_30160_" class="st2" d="M638.4,244.3c-51.2,16.3-24.3,77.8-24.3,77.8s32.7,38.6,74.7,7.9
		C730.7,299.3,689.6,228,638.4,244.3z M645.6,308.8c-28-3.8,11.3-56,24.1-22.7C682.4,319.3,645.6,308.8,645.6,308.8z"/>
	<g id="XMLID_30157_">
		<path id="XMLID_30159_" class="st2" d="M439,255.9c0,0-8.9-6.2-12.7-1.4c-3.8,4.9-10.4,13.1-2.6,29.3s37,2.8,39.8-4.7"/>
		<path id="XMLID_30158_" class="st2" d="M471.7,269.8L471.7,269.8c-5.4-14.4-17.2-25.7-35.2-27.5c-36-3.6-50.8,19.7-56.4,33.9
			c0,0-1.3,2.1-2.2,6.3c-0.7,2.5-0.9,4.6-0.8,5.5c-0.5,7.8,0.8,19.3,8,34.6c5.9,12.4,21,16.9,31,18.5c2.8,0.6,5.9,0.9,9.1,0.9
			c0.2,0,0.3,0,0.3,0l0,0c3.5-0.1,7.2-0.5,11.2-1.4c15.8-3.6,26.6-13.7,32.7-26.1c-1-14.3-13.3-16.1-20.7-17.2
			c-4-0.6-8.2,1.9-11.3,4.5c-0.3,0.3-0.7,0.6-1,0.8c-10.6,7.9-38.5-7.6-23.9-19.1c0,0,5-5.3,10.8-7.7h0c0,0,4.9-2.5,8.8-1.1
			c1.5,0.5,2.9,1.7,3.8,3.8c0,0.1,0.1,0.2,0.2,0.3c0.4,1,1,2,1.7,3.2c4.8,7.8,15.6,18.2,25.6,11c11.5-8.3,10.2-11.5,10.7-14.7l0,0
			C474.6,275.1,471.7,269.8,471.7,269.8z"/>
	</g>
	<g id="XMLID_30154_">
		<path id="XMLID_30156_" class="st2" d="M38.2,333.5c0,0-33.2,31.7-34-27.9s-11.9-114.1,52-113.7c0,0,34.8,14.5,0,29.8
			c-17,7.5-20.4,23-20,42.5"/>
		<path id="XMLID_30155_" class="st2" d="M24.6,282.6c20-1.7,35.4-6.6,36.7-18c0,0-0.5-12.7-16.1-13.2c0,0-3.8,0-9.9-0.1"/>
	</g>
	<g id="XMLID_30146_">
		<g id="XMLID_30148_">
			<path id="XMLID_30153_" class="st2" d="M169.5,258.4"/>
			<path id="XMLID_30150_" class="st2" d="M196.3,252.3c-42.7-31.3-76,8-76,8s-27.3,62.7,24.7,79.2
				C197.2,356.1,239,283.6,196.3,252.3z M177,283.8c14.7,33.1-51.1,23.8-33.7,1C143.3,284.8,162.2,250.7,177,283.8z"/>
			<path id="XMLID_30149_" class="st2" d="M179.6,248.3"/>
		</g>
		<path id="XMLID_30147_" class="st2" d="M177.6,326c0,0,3.8,25.4,26.5,12s-1.2-35.5-1.2-35.5"/>
	</g>
	<g id="XMLID_30127_">
		<g id="XMLID_30137_">
			<g id="XMLID_30142_">
				<path id="XMLID_30145_" class="st2" d="M290.1,321.5"/>
				<path id="XMLID_30144_" class="st2" d="M323.6,319.5c-0.2-14.4-1.1-33.9,4.5-38.2c7.2-5.7,30.9-3.5,27.7,11.5
					c-1.9,8.8-2.1,18.6-2,25.3c0.1,4.7,0.2,8.6,0.2,9.9c0,3.8,1.7,11.6,14.7,13.1c17.3,2,19.5-3.5,19.5-15.9
					c0-12.3,14.1-70.7-35.7-81c-34.9-7.3-53.4,12.6-61.3,28.9"/>
				<path id="XMLID_30143_" class="st2" d="M325.5,278.9"/>
			</g>
			<g id="XMLID_30138_">
				<path id="XMLID_30141_" class="st2" d="M226.2,321.4c2,10.3,33.6,2.4,33.6-2c-0.2-14.4-1.1-33.9,4.5-38.2c5.9-4.7,22.8-4,27,4.5
					c0.9,1.9,1.3,4.2,0.7,6.9c-1.9,8.8-2.1,18.6-2,25.3c0.1,4.7,0.2,8.6,0.2,9.9c0,3.8,1.7,11.6,14.7,13.1
					c17.3,2,19.5-3.5,19.5-15.9c0-12.3,14.1-70.7-35.7-81s-66.1,34.7-66,45.4C222.6,295.2,223.8,309.4,226.2,321.4"/>
				<path id="XMLID_30140_" class="st2" d="M261.6,278.9"/>
				<path id="XMLID_30139_" class="st2" d="M261.6,278.9c0.8,20-0.2,43.2-2.6,52c0,0-9.4,16.9-24,9.1c-14.6-7.8-15.7-89.3-6.7-93
					c9-3.7,26.5-11.7,30.7,7.1"/>
			</g>
		</g>
		<g id="XMLID_30133_">
			<path id="XMLID_30136_" class="st2" d="M290,321.5"/>
			<path id="XMLID_30135_" class="st2" d="M325.3,286c0.7-2.1,1.6-3.8,2.8-4.7c7.2-5.7,30.9-3.5,27.7,11.5c-1.9,8.8-2.1,18.6-2,25.3
				c0.1,4.7,0.2,8.6,0.2,9.9c0,3.8,1.7,11.6,14.7,13.1c17.3,2,19.5-3.5,19.5-15.9c0-12.3,14.1-70.7-35.7-81
				c-19.8-4.1-34.3,0.5-44.6,8.2"/>
			<path id="XMLID_30134_" class="st2" d="M325.4,278.9"/>
		</g>
		<g id="XMLID_30128_">
			<path id="XMLID_30132_" class="st2" d="M313.5,257.4c-5.6-6.2-13.7-11.1-25-13.4"/>
			<path id="XMLID_30131_" class="st2" d="M313.5,257.4"/>
			<path id="XMLID_30130_" class="st2" d="M261.5,278.8"/>
			<path id="XMLID_30129_" class="st2" d="M261.5,278.8c0.8,20-0.2,43.2-2.6,52c0,0-9.4,16.9-24,9.1s-15.7-89.3-6.7-93
				c9-3.7,26.5-11.7,30.7,7.1"/>
		</g>
	</g>
	<g id="XMLID_30124_">
		<path id="XMLID_30126_" class="st2" d="M137,253.5c0,0-54.3-37.3-77.7,28.6s33.6,76.3,32.3,36.2c-1.3-40.1,12.4-43.4,28.2-37.2
			S157.8,280.6,137,253.5z"/>
		<path id="XMLID_30125_" class="st2" d="M90.9,257.4c0,0-3.6-24.7-25.7-11.7s1.2,34.5,1.2,34.5"/>
	</g>
	<g id="XMLID_30120_">
		<path id="XMLID_30123_" class="st2" d="M571.6,270.6c0,0-1.9-33.2-24.3-23.4c-22.4,9.8-9.8,103.7,47.2,90.2
			c57-13.5,34-87.3,34-87.3s-23.7-21.1-27.9,15.3c0,0-1.2,24.4-12.4,26.4C577.1,293.8,570.6,276.7,571.6,270.6z"/>
		<g id="XMLID_30121_">
			<path id="XMLID_30122_" class="st2" d="M542.9,290.9c0,0-39.2,38.8-31.3-33.6c0,0-9.3-22.4-27.6-13.1s-21,124.3,66.8,92
				c0,0,23.7-9,30-13.7"/>
		</g>
	</g>
	<g id="XMLID_30117_">
		<path id="XMLID_30119_" class="st2" d="M777,253.5c0,0-54.3-37.3-77.7,28.6c-23.4,66,33.6,76.3,32.3,36.2s12.4-43.4,28.2-37.2
			C775.6,287.3,797.8,280.6,777,253.5z"/>
		<path id="XMLID_30118_" class="st2" d="M730.9,257.4c0,0-3.6-24.7-25.7-11.7c-22.1,13,1.2,34.5,1.2,34.5"/>
	</g>
	<g id="XMLID_30111_">
		<g id="XMLID_30115_">
			<path id="XMLID_30116_" class="st2" d="M843.2,245.6c0,0,30-20.3,1.6-34.5c-28.4-14.1-70.7,53.9-57.1,62.8
				C801.4,282.8,815.4,279.2,843.2,245.6z"/>
		</g>
		<g id="XMLID_30112_">
			<path id="XMLID_30114_" class="st2" d="M801.8,238.7c-0.3-6-0.7-12.2-1.2-18.9c0,0-5-28.5-29-18.5s-12.2,118.2-1.1,126.6
				c9,6.8,31.2,42.1,32.7-35.2"/>
			<path id="XMLID_30113_" class="st2" d="M794.7,301.7c0,0,40.1-31.4,32,27.2c0,0,9.5,18.1,28.2,10.6S876.3,239,786.5,265"/>
		</g>
	</g>
	<path id="XMLID_30110_" class="st2" d="M1309.9,187.7c0,0,30.2,16.1,38.4-19.3c8.3-35.4-21.7-37.4-18.7-16.8s-3.9,23.1-12.4,20.8
		S1297.6,174.9,1309.9,187.7z"/>
	<g id="XMLID_30107_">
		<path id="XMLID_30109_" class="st2" d="M1120.6,195.2c0,0-33.2-31.7-34,27.9s-11.9,114.1,52,113.7c0,0,34.8-14.5,0-29.8
			c-17-7.5-20.4-23-20-42.5"/>
		<path id="XMLID_30108_" class="st2" d="M1112.7,263.4c0,0,24.8,6.9,21.7-19.4c-3-26.2-33-13.2-33-13.2"/>
	</g>
	<g id="XMLID_30104_">
		<path id="XMLID_30106_" class="st2" d="M1185.1,276.5c0,0-2-35-25.7-24.7s-10.4,109.5,49.8,95.2s35.9-92.2,35.9-92.2
			s-25-22.3-29.5,16.2c0,0-1.3,25.8-13.1,27.9C1190.9,301,1184,283,1185.1,276.5z"/>
		<path id="XMLID_30105_" class="st2" d="M1215.2,334.5c0,0,5.8,42-17.5,48.3c-23.2,6.3-20.4,32.3,5.5,31c25.9-1.3,52.6-22,41.2-142
			"/>
	</g>
	<g id="XMLID_30100_">
		<path id="XMLID_30103_" class="st2" d="M1066.3,271.4c0,0,17.3-0.9,15.4-15.4c-1.5-11.5-49.9-32.5-69.7-7.4
			c-5.2,6.5-8.4,16.2-8.3,30c0,0,0,0.1,0,0.1c1.4,4.7,3.9,8.7,7.1,12c1.2,1.3,2.5,2.4,3.7,3.3c8.9,6.8,21.4,9.8,32.4,10.1
			c-1.6,6.2-9,9.7-32.7-1.8c0,0-17.3,0.9-15.4,15.4c1.5,11.5,50,32.5,69.8,7.4c5.2-6.6,8.4-16.2,8.3-30c0,0,0-0.1,0-0.1
			c-1.4-4.8-3.9-8.7-7.1-12c-1.2-1.3-2.5-2.4-3.7-3.3c-8.9-6.8-21.4-9.8-32.4-10.1C1035.2,263.3,1042.7,259.9,1066.3,271.4z"/>
		<path id="XMLID_30102_" class="st2" d="M1044.4,289.3c0,0,16.6,35.8-30.2,13c0,0-17.3,0.9-15.4,15.4c1.9,14.5,78.5,44.1,78-22.8"
			/>
		<path id="XMLID_30101_" class="st2" d="M1036.2,284.3c0,0-16.6-35.8,30.2-13c0,0,17.3-0.9,15.4-15.4c-1.9-14.5-78.5-44.1-78,22.8"
			/>
	</g>
	<path id="XMLID_30099_" class="st2" d="M1258.5,315.1c0,0,5,30,29,19.4c24-10.5,12.2-124.3,1.1-133.1
		C1277.5,192.7,1246.5,138.5,1258.5,315.1z"/>
	<g id="XMLID_30092_">
		<path id="XMLID_30098_" class="st2" d="M1456.2,251.5"/>
		<path id="XMLID_30095_" class="st2" d="M1482.4,246c-41.9-30.8-74.7,7.9-74.7,7.9s-26.9,61.6,24.3,77.8
			C1483.2,348,1524.3,276.7,1482.4,246z M1463.3,290c-12.8,33.3-52.1-18.9-24.1-22.7C1439.2,267.2,1476,256.7,1463.3,290z"/>
		<path id="XMLID_30094_" class="st2" d="M1466.2,241.3"/>
		<path id="XMLID_30093_" class="st2" d="M1466.2,239.2c0,0,33.2-31.7,34,27.9s11.9,114.1-52,113.7c0,0-34.8-14.5,0-29.8
			c17-7.5,20.4-23,20-42.5"/>
	</g>
	<g id="XMLID_30088_">
		<g id="XMLID_30090_">
			<path id="XMLID_30091_" class="st2" d="M1333.3,277.4c0,0,6.8-35.6-23.2-25.5c-30.1,10.1-11.9,88.1,4,84.8
				C1330,333.4,1337.3,320.9,1333.3,277.4z"/>
		</g>
		<path id="XMLID_30089_" class="st2" d="M1317,203.5c0,0,33.8,19.4,0.5,33.7C1284.2,251.5,1294.3,185.7,1317,203.5z"/>
	</g>
	<g id="XMLID_30085_">
		<path id="XMLID_30087_" class="st2" d="M1361.2,251.2c0,0-4.1-20-23.7-13c-19.6,7-10,82.9-0.9,88.7
			C1345.6,332.9,1371,369,1361.2,251.2z"/>
		<path id="XMLID_30086_" class="st2" d="M1356.7,287.6c0,0,34.4-34,27.4,29.5c0,0,8.2,19.6,24.1,11.5c16-8.2,18.4-108.9-58.5-80.6"
			/>
	</g>
	<g>
		<path id="XMLID_30084_" class="st2" d="M920.5,302.7c0,0,2.5,15,14.5,9.7c12-5.3,6.1-62.1,0.5-66.5
			C930,241.4,914.5,214.4,920.5,302.7z"/>
		<path id="XMLID_30083_" class="st2" d="M957.2,286.1c0,0,15-2.5,9.7-14.5s-62.1-6.1-66.5-0.5C896,276.6,868.9,292.1,957.2,286.1z"
			/>
	</g>
</g>
</svg>
