<?xml version="1.0" encoding="utf-8"?>
<!-- Generator: Adobe Illustrator 22.1.0, SVG Export Plug-In . SVG Version: 6.00 Build 0)  -->
<svg version="1.1" id="Layer_1" xmlns="http://www.w3.org/2000/svg" xmlns:xlink="http://www.w3.org/1999/xlink" x="0px" y="0px"
	 viewBox="0 0 347.2 675.2" style="enable-background:new 0 0 347.2 675.2;" xml:space="preserve">
<style type="text/css">
	.st0{fill:#A36B78;stroke:#584C4F;stroke-width:2;stroke-linecap:round;stroke-miterlimit:10;}
	.st1{fill:#A36B78;stroke:#584C4F;stroke-width:2;stroke-linecap:round;stroke-linejoin:round;stroke-miterlimit:10;}
	.st2{fill:#FFD767;stroke:#584C4F;stroke-width:2;stroke-miterlimit:10;}
	.st3{fill:#A36B78;}
	.st4{fill:none;stroke:#584C4F;stroke-width:2;stroke-linecap:round;stroke-miterlimit:10;}
	.st5{fill:#BEAB72;}
	.st6{fill:#584C4F;stroke:#584C4F;stroke-width:2;stroke-linecap:round;stroke-miterlimit:10;}
	.st7{opacity:0.1;fill:#231F20;stroke:#231F20;stroke-miterlimit:10;enable-background:new    ;}
	.st8{fill:#FFFFFF;stroke:#584C4F;stroke-width:2;stroke-linecap:round;stroke-miterlimit:10;}
</style>
<g id="Layer_5">
</g>
<g id="Layer_3">
</g>
<g>
	<g>
		<path class="st0" d="M99.5,635c-0.8,1-1.1,2.1-0.8,3.6c0,0.3,0.1,0.7,0.3,1.1c0.5,1.3,1.7,2.9,3.4,4.6c1.3,1.3,2.9,2.7,4.7,4.1
			c1.1,1,2.3,1.9,3.6,2.8c0.9,0.8,2,1.5,3,2.2c1.1,0.6,2.2,1.3,3.2,1.9c1.3,0.8,2.6,1.6,3.9,2.3c2,1.2,3.9,2.1,5.6,2.8
			c2.2,1,4.2,1.5,5.6,1.4c0.5,0,0.9,0,1.2-0.1c1.1-0.2,1.9-0.7,2.5-1.4c-5.3-8-8-17.4-3.6-27.4c-0.3-1.4-0.5-2.3-0.5-2.3
			s0-0.4-0.1-0.9c0.1-0.1,0-0.3,0-0.4c0.1,0,0.1-0.2,0.1-0.2c0.1-0.5,0.5-1.2,1-2.2l-0.7-0.5l-0.7-0.4l-13.4-7.4
			c-2.3,3.2-3.7,5.2-4,5.7c-0.1,0.1-0.1,0.1-0.1,0.1s0,0,0.1,0.1c-2.6,2.3-5,4-7.1,5.4c-2.3,1.5-4.3,2.7-5.7,3.8
			C100.4,634.1,99.9,634.6,99.5,635z"/>
		<path class="st0" d="M115.7,622.8l14.9,8.2c0,0,22.9-36.8,43.2-67.4c8-12.1,15.6-23.2,21.3-30.7c0.2-0.4,0.3-0.8,0.4-1.2
			c1.1-0.9,2.5-5.7,4.3-16.4l0,0c0.9-4.3,1.7-9.1,2.6-14.3c1-5,2-10.1,3.1-15.3c8.5-40.6,20.2-84.6,20.2-84.6l-28.9,0.9
			c1.9,5.1-10.2,78.9-17.7,126.7c-2.7,4.5-5.1,8.5-7.2,12C151.3,575.3,115.7,622.7,115.7,622.8z"/>
		<g>
			<g id="XMLID_8774_">
				<path id="XMLID_8775_" class="st0" d="M140.4,670.8c0.9-5.3,5.6-1.4,5.6-1.4C148.4,675,139.6,676,140.4,670.8z"/>
			</g>
			<g id="XMLID_8772_">
				<path id="XMLID_8773_" class="st0" d="M137.3,668.4c1-5.9,6.2-1.6,6.2-1.6C146.1,673.1,136.3,674.3,137.3,668.4z"/>
			</g>
			<g id="XMLID_8770_">
				<path id="XMLID_8771_" class="st0" d="M133.4,665.3c1.1-6.8,7.2-1.8,7.2-1.8C143.6,670.8,132.2,672.2,133.4,665.3z"/>
			</g>
			<g id="XMLID_8768_">
				<path id="XMLID_8769_" class="st0" d="M128.5,661.7c1.3-7.8,8.3-2.1,8.3-2.1C140.2,667.9,127.2,669.5,128.5,661.7z"/>
			</g>
			<path id="XMLID_8767_" class="st0" d="M117.6,653.9c2.2-2,13.4-3.1,13.6,5.4s-8.2,2-8.2,2S115.3,656.1,117.6,653.9z"/>
		</g>
		<path id="XMLID_8766_" class="st0" d="M193,515.1c1-1.6,3-0.4,3-0.4"/>
		<path id="XMLID_8765_" class="st0" d="M192.9,530.9c-0.5,0.5-3.2-0.3-3.2-0.3"/>
		<g id="XMLID_8763_">
			<path id="XMLID_8764_" class="st0" d="M132.5,626.9c6.9,5.9-4.1,13.1-6.4,5.6"/>
		</g>
		<g id="XMLID_8761_">
			<path id="XMLID_8762_" class="st0" d="M199.8,521.6c8.6,2.7,1.5,13.7-3.7,7.7"/>
		</g>
	</g>
	<g>
		<g>
			<g id="XMLID_8759_">
				<path id="XMLID_8760_" class="st0" d="M233.6,331.3c8.7-2.5,8.8,10.6,1.2,8.5"/>
			</g>
			<path id="XMLID_8758_" class="st0" d="M223.5,208c-1.4,34-5.6,92.2-3.2,107.9c3.4,22,0,126.4,0,126.4l16.9,1.5
				c0,0-3.3-59.2-1.2-99.4c1.1-22.2,2.5-65,4.2-99.8"/>
			<g id="XMLID_8756_">
				<path id="XMLID_8757_" class="st0" d="M235.7,440.5c3.3-1.1,4.1,12.1,4.1,12.1s1.9,42.3-1.7,24.3c-3.5-18-5.3-16.1-3.6,5.4
					c1.6,21.6-7.4-22-8.8-15.1c-1.4,6.9-5.8,51-5.8-4.1c0,0,4.1-25.6-6.4,14.5s2.3-25.1,3.1-28.5s-12.8,19.5-9.1,10.1
					s5.8-11.8,12.7-19"/>
			</g>
			<path id="XMLID_8755_" class="st0" d="M226.7,333c0.2-0.6,3-1.2,3-1.2"/>
			<path id="XMLID_8754_" class="st0" d="M232.9,337.1c-0.6,1.8-2.8,1.4-2.8,1.4"/>
			<path id="XMLID_8753_" class="st1" d="M233.5,438.5c13.6-0.8,0-9.9,0-9.9"/>
		</g>
		<path id="XMLID_8752_" class="st2" d="M218.1,207.6c9.1,2.5,16.7,5.2,18.7,8.1c5.5,8.1,12.2,97.9-1.5,98.4
			c-13.7,0.5-15.6-0.1-15.3-5s-6-61.4-3.8-65.6"/>
		<path class="st0" d="M126.6,412.7c0,0,0.1,0,0.2,0c0.5,4.1,2,8.5,4.4,13c0,0,1.3,15.3,51.4,14.5c30.7-0.5,50.1-15.5,53.2-32.5h0.1
			c0.1-0.2,0.1-0.5,0.2-0.9c0.1-1,0.1-2.1,0.2-3.1c0.8-11.1,1.3-40.6,1.3-40.6l-111.1,4.1C124.7,376.1,126.6,412.7,126.6,412.7z"/>
		<g>
			<path class="st2" d="M135.7,394.1c2.3-0.5,5.2-1,8.4-1.5l77.2-4c4-0.1,9.4,1.2,9.4,1.2c4.4,2.3,7.1,1.4,8.7-1.4
				c0.1-0.1,0.1-0.2,0.2-0.3c4.1-8,0.2-29.4-3-37.9c-0.2-0.5-0.4-1.2-0.6-2c-3.7-15.6-3.7-74.4-2.3-110.6c0.1-3.9,0.1-7.3-0.1-10.4
				c-1.4-26.8-28.8-27.1-46.6-27.9c-18.8-0.8-32.5,3-39.2,8.6c-3.5,1-8.8,3-13,6.2c-3.1,2.3-5.6,5.3-6.4,9c-0.1,0.4-0.1,0.9-0.2,1.3
				c-1.5,13.2-4.5,93.7-5.9,101c-0.3,1.4-1,5.9-1.9,11.9c-0.1,0.7-0.2,1.4-0.3,2.2C116.8,364.4,113.3,410.6,135.7,394.1z"/>
			<path class="st2" d="M230.5,389.8c4.4,2.3,7.1,1.4,8.7-1.4c0.1-0.1,0.1-0.2,0.2-0.3c4.1-8,0.2-29.4-3-37.9
				c-0.2-0.5-0.4-1.2-0.6-2c-3.7-15.6-3.7-74.4-2.3-110.6c0-0.9,0.1-1.7,0.1-2.6"/>
			<path class="st2" d="M232.7,221.2c-5-20.9-29.4-21.2-45.8-21.9c-18.8-0.8-32.5,3-39.2,8.6c-3.5,1-8.8,3-13,6.2
				c-3.1,2.3-5.6,5.3-6.4,9c-0.1,0.4-0.1,0.9-0.2,1.3c-1.5,13.2-4.5,93.7-5.9,101c-0.3,1.4-1,5.9-1.9,11.9c-0.1,0.7-0.2,1.4-0.3,2.2
				c-3.3,24.8-6.7,71,15.6,54.5c2.3-0.5,5.2-1,8.4-1.5l77.2-4"/>
		</g>
		<path id="XMLID_8751_" class="st0" d="M130.3,389.2c3.6-13.7-5.1-107.3-5.1-107.3"/>
		<g>
			<path id="XMLID_8750_" class="st3" d="M168.5,207c9.6,21.2,33.7,8.3,33.8-8c0-2.9,0-14.1,0.1-17.5c0.1-2.6,0.5-17.7-3-25.5
				c-11.2-25-42.7-2.6-31.3,16.8c-0.6,2.2-1,4.7-1.2,7.6c-0.2,3.2-1.3,13.2-1.1,16.6"/>
			<path id="XMLID_8749_" class="st4" d="M170.3,210.3c-0.5-0.9-1.1-2-1.6-3.1l-2.8-10.1c-0.3-3.5,0.9-13.4,1.1-16.6
				c0.1-3,0.6-5.5,1.2-7.6c-11.4-19.4,20.1-41.8,31.3-16.8c3.5,7.8,3.1,22.9,3,25.5c-0.1,3.4-0.2,14.6-0.2,17.5
				c0,13.7-17.3,25.1-28.4,15.5"/>
		</g>
		<g>
			<g id="XMLID_8747_">
				<path id="XMLID_8748_" class="st0" d="M131.1,340.1c-9-1.1-3.9-13.2,2.2-8.2"/>
			</g>
			<path id="XMLID_8746_" class="st0" d="M143.4,230.6c1.7,32.8,4.1,72.6,2.1,85.2c-3.4,22,0,126.4,0,126.4l-16.9,1.5
				c0,0,3.2-59.2,1.1-99.4c-1-18.4-2.1-51-3.4-81.4"/>
			<path id="XMLID_8745_" class="st0" d="M134,334.1c0-1.9,2.3-2,2.3-2"/>
			<path id="XMLID_8744_" class="st0" d="M139.9,337.1c-0.2,0.6-2.9,1.5-2.9,1.5"/>
			<g id="XMLID_8731_">
				<path id="XMLID_8743_" class="st3" d="M145.4,441.5l-16.2-3.8c0,0-21.4,35-14.1,35.1c3.9,0.1,5.3-0.9,5.9-1.9
					c-0.5,3.3-0.8,9.4,4.8,6.5l0.1-1.5c1.3,2.1,5.5,8.4,8.9,2l1.1-0.5c2.5,2.1,7.7,5.3,6.9-5.5c1.5,0.1,3.5,0,6.4-0.8
					C164,467.3,145.4,441.4,145.4,441.5z"/>
				<path id="XMLID_8742_" class="st0" d="M129.2,437.6c0,0-21.4,35-14.1,35.1c3.9,0.1,5.3-0.9,5.9-1.9c-0.5,3.3-0.8,9.4,4.8,6.5
					l0.1-1.5c1.3,2.1,5.5,8.4,8.9,2l1.1-0.5c2.5,2.1,7.7,5.3,6.9-5.5c1.5,0.1,3.5,0,6.4-0.8c14.8-3.7-3.8-29.6-3.8-29.6"/>
				<g id="XMLID_8735_">
					<g id="XMLID_8737_">
						<path id="XMLID_8741_" class="st1" d="M125.7,477.4c-7.5,3.8-4.4-8.4-4.4-8.4c-0.1,0.3,1.1,3.9-6.2,3.8
							c-7.3-0.1,14.1-35.1,14.1-35.1"/>
						<path id="XMLID_8740_" class="st1" d="M135.1,477.3c-4.2,8.4-9.4-2.1-9.4-2.1"/>
						<path id="XMLID_8739_" class="st1" d="M146,464.8c-4.2-0.4-11.6,9.9,3.2,6.2s-3.8-29.6-3.8-29.6"/>
						<path id="XMLID_8738_" class="st1" d="M142.2,462.6l0.5,8c1.7,15.9-8.1,5.5-8.1,5.5"/>
					</g>
					<path id="XMLID_8736_" class="st1" d="M131.8,425.8c-10,0.8,0,10.9,0,10.9"/>
				</g>
				<path id="XMLID_8734_" class="st0" d="M135.1,469.6c0.8-2.6,0.4-7.5,0.4-7.5"/>
				<path id="XMLID_8733_" class="st0" d="M126.7,471.4c0.8,0,0.9-3.5,0.9-3.5"/>
				<path id="XMLID_8732_" class="st1" d="M123.1,460.9c0,0,2.9-4.8,3.6-7"/>
			</g>
		</g>
		<path id="XMLID_8730_" class="st2" d="M149.2,210.5c-9.1,2.5-16.8,5.2-18.7,8.1c-5.6,8.1-12.3,97.9,1.4,98.4s15.6-0.1,15.3-5
			s6-61.3,3.8-65.5"/>
		<g>
			<path class="st5" d="M156,247.7c0.3,6.9,4,7.2,12.1,6.1c8.2-1,3.7-16.3,2.8-21.1c-0.9-4.7-14.6,0.4-14.6,0.4
				S155.7,240.8,156,247.7z"/>
			<g>
				<path id="XMLID_8729_" class="st0" d="M156.1,236.4c-1-1.5,0.8-2.9,0.8-2.9"/>
				<path id="XMLID_8728_" class="st0" d="M172.5,235.2c-0.7-1.2-3.2-2.4-3.2-2.4"/>
				<path id="XMLID_8727_" class="st0" d="M156.2,240.5c-0.5,1.4,0.3,4,0.3,4"/>
				<path id="XMLID_8726_" class="st0" d="M166.1,253.8c1.3,0.3,3.9-0.8,3.9-0.8"/>
				<path id="XMLID_8725_" class="st0" d="M160.7,252.4c-1.7,0.7-2.6-1.4-2.6-1.4"/>
				<path id="XMLID_8724_" class="st0" d="M173,242.5c-0.5-0.5-0.9-2.4-0.9-2.4"/>
				<line id="XMLID_8723_" class="st4" x1="165" y1="232.2" x2="162.3" y2="232.3"/>
				<path id="XMLID_8722_" class="st0" d="M173.1,251.2c0.5-1.3-0.1-4-0.1-4"/>
			</g>
			<g>
				<path id="XMLID_8721_" class="st0" d="M203.5,416.9c1.3,1.7-0.4,4.6-0.4,4.6"/>
				<path id="XMLID_8720_" class="st0" d="M201.5,412.5c-0.3-1.4-2.2-3.4-2.2-3.4"/>
				<path id="XMLID_8719_" class="st0" d="M198.6,429.7c1-0.9,1.8-3.5,1.8-3.5"/>
			</g>
		</g>
		<g id="XMLID_8631_">
			<g id="XMLID_8714_">
				<path id="XMLID_8718_" class="st0" d="M223.1,138c0,0,0.1,5.5,6.6,7.9s11.4-17.1,11-35.2c-0.5-18.1-18,5.1-18,5.1"/>
				<path id="XMLID_8717_" class="st0" d="M237.1,111.4c-1.8-5-8.6,5.6-8.6,5.6"/>
				<path id="XMLID_8715_" class="st0" d="M227.7,130.8c1.7,6.5,5.4,2.6,6.8-3.2c1.5-5.9-8.6-3.2-8.6-3.2"/>
			</g>
			<path id="XMLID_8713_" class="st6" d="M168.6,42.8c8.2-2.6,1.6-8.4,1.6-8.4C163.1,31.5,160.5,45.5,168.6,42.8z"/>
			<path id="XMLID_8712_" class="st0" d="M223,161.9c-3.3,16.5-19.5,38.2-49.1,31.9s-27.8-17.7-35-79.6s45.2-65.7,45.2-65.7
				C249.9,56.6,226.3,145.4,223,161.9z"/>
			<path class="st7" d="M139,114.2c7.3,62,5.3,73.3,34.9,79.6c21,4.5,35.2-5.1,42.9-16.9c-7.8,4.9-18,7.3-30.7,4.6
				c-29.5-6.3-27.5-17.7-34.9-79.6c-2.4-20.5,1.7-34.5,8.3-44.3C147,66.2,135.2,82.6,139,114.2z"/>
			<path id="XMLID_8711_" class="st2" d="M141.4,80.9c0,0,18.5-8.8,38.1-16.7c15.5,3.8,32.4,5.3,32.4,4
				c-0.1-13.4-3.9-49.1-41.5-32.2c-8.8,2.7-18.3,8-24.2,17.2c-0.5,0.7-0.9,1.4-1.3,2.1l0,0h-0.1c-1.8,3.4-2.7,6-2.9,8
				C140.1,69.4,141.4,80.9,141.4,80.9z"/>
			<path id="XMLID_8710_" class="st0" d="M168,122.2c12.1,4.3,21.5-2.7,21.5-2.7"/>
			<path id="XMLID_8709_" class="st0" d="M230.7,121.6c-3.2,1.4-18.3-1.8-18.3-1.8"/>
			<path id="XMLID_8708_" class="st0" d="M176.9,191c-2.5,4.8,5.9,8.2,18.8,5.7s6.7-8.3,6.7-8.3"/>
			<path id="XMLID_8677_" class="st2" d="M234.8,66.4c0,0,6.2-8.8-16.9-10.3c-23-1.4-68.6-1.3-76.2,24.7c0,0,12.4-5.5,35.9-10.7
				s43.6,3,43.6,3C231.4,70.6,234.8,66.4,234.8,66.4z"/>
			<path id="XMLID_8676_" class="st0" d="M141.7,80.8c0,0,9.1-23.7,64.2-21.2s15.3,13.5,15.3,13.5C192.6,58.8,141.7,80.8,141.7,80.8
				z"/>
			<g>
				<path id="XMLID_8675_" class="st0" d="M202.1,105.8c0.2,6.5-9.2,18.3-9.2,18.3"/>
				<g id="XMLID_8672_">
					<path id="XMLID_8674_" class="st0" d="M201.5,130.4c0.5,0.2,1,0.4,1.6,0.6c0.8,0.2,1.8,0.3,2.9,0.1c2-0.5,3-2.6,3.3-5.7"/>
					<path id="XMLID_8673_" class="st0" d="M208.3,120.8c-2-13.6-9.2-32.8-9.2-32.8"/>
				</g>
				<g id="XMLID_8666_">
					<path id="XMLID_8671_" class="st0" d="M208.5,137.4c11.1-2.3,4.2-10.4,4.2-10.4"/>
					<path id="XMLID_8670_" class="st0" d="M196.6,137.4c-10.5-4.2-3.1-10.4-3.1-10.4"/>
					<path id="XMLID_8669_" class="st0" d="M196.9,133.9c-1.6-0.5-2.9,0.1-1.7-1.8s2.7,0.3,3.8,0
						C200.1,131.8,198.5,134.3,196.9,133.9z"/>
					<path id="XMLID_8668_" class="st0" d="M208.3,133.1c1.2-0.7,2.4-1.2,2.8-0.9c1.1,0.9,0.6,2.6-1.5,2.7
						C209.6,134.9,207.5,133.6,208.3,133.1z"/>
					<path id="XMLID_8667_" class="st0" d="M199.4,123.5c0.5-0.8,2.7-0.7,2.7-0.7"/>
				</g>
				<path id="XMLID_8665_" class="st0" d="M224.6,135.7c-1.7-0.6-7.8-3.7-7.8-3.7"/>
				<path id="XMLID_8664_" class="st0" d="M181.3,133.7c0.7,0.1,7.8-3.3,7.8-3.3"/>
			</g>
			<path id="XMLID_8663_" class="st0" d="M159.5,103c-1.6-0.9-0.6-3-0.6-3"/>
			<path id="XMLID_8662_" class="st0" d="M165.4,123.5c-0.6-0.7-1-2.5-1-2.5"/>
			<path id="XMLID_8661_" class="st0" d="M163.8,81c-0.8,0,0,3.5,0,3.5"/>
			<path id="XMLID_8660_" class="st0" d="M212,73.6c-0.4-0.5,2.9-1,2.9-1"/>
			<path id="XMLID_8659_" class="st0" d="M190.6,77.5c0.3,0.8,4.1,1.3,4.1,1.3"/>
			<path id="XMLID_8658_" class="st0" d="M210.5,174.3c0.2-0.6,3-1.2,3-1.2"/>
			<path id="XMLID_8657_" class="st0" d="M193.4,176.7c-0.7-1.2-3.3-2.4-3.3-2.4"/>
			<path id="XMLID_8656_" class="st0" d="M216.1,112.7"/>
			<path id="XMLID_8655_" class="st0" d="M197.8,114.8"/>
			<line id="XMLID_8654_" class="st4" x1="168.9" y1="134.5" x2="171.6" y2="135.2"/>
			<path id="XMLID_8653_" class="st0" d="M147.7,144.6c0,0,0.3,5.3-5.9,8.3s-12.8-16.1-13.9-34.1c-1-18,18.4,3.6,18.4,3.6"/>
			<path id="XMLID_8652_" class="st0" d="M131.7,119.3c1.3-5.2,9,4.8,9,4.8"/>
			<path id="XMLID_8651_" class="st0" d="M142.7,137.7c-1.2,6.6-5.2,3-7.1-2.6c-1.9-5.7,8.3-3.9,8.3-3.9"/>
			<g>
				<path id="XMLID_8650_" class="st8" d="M205.8,106.2c-13-28.8,22.8-25.3,22.8-25.3C258.6,101,218.8,135,205.8,106.2z"/>
				<path id="XMLID_8649_" class="st6" d="M222.2,99.2c-0.5-5.6,4.8-3.4,4.8-3.4C230.7,100.6,222.7,104.8,222.2,99.2z"/>
				<path id="XMLID_8648_" class="st8" d="M182.4,118.6c32.6-10.6,6.4-33.7,6.4-33.7C160.3,73.2,149.8,129.2,182.4,118.6z"/>
				<path id="XMLID_8647_" class="st6" d="M165.8,102.4c-0.6-5.6,4.8-3.4,4.8-3.4C174.3,103.8,166.4,108,165.8,102.4z"/>
				<path id="XMLID_8646_" class="st6" d="M165.8,87.5c-0.9,3,15.6,11.2,24.3,2.7s-3.4-9.9-3.4-9.9
					C168.3,79.4,166.7,84.5,165.8,87.5z"/>
				<path id="XMLID_8645_" class="st6" d="M206.7,79.8c1.2,4.5,16.5,15.1,25.1,4.7c8.6-10.4-10-9.3-10-9.3S205.5,75.3,206.7,79.8z"
					/>
				<g id="XMLID_8642_">
					<path id="XMLID_8644_" class="st0" d="M172.2,119.4c0.7,0.2,1.3,0.3,2.1,0.4c6.4,0.4,16.9-5.2,16.9-5.2
						c-7-1.9-19.1-1.1-19.1-1.1l-5.7,0.4c0,0-5.1,0.8-2.9,3.2c1,1,1.9,0.9,2.8,0.7c0.3,0,0.5-0.1,0.7-0.2
						C168.1,117.3,171.7,119.2,172.2,119.4z"/>
					<path id="XMLID_8643_" class="st0" d="M230.5,111.8c0,0,5.1,0.8,2.9,3.2c-2.3,2.4-3.1,0.1-7.2,1.3c-12.5,3.8-16.4-4.6-16.4-4.6
						c7.9-2.4,14.9-1.1,14.9-1.1L230.5,111.8z"/>
				</g>
			</g>
			<g id="XMLID_8637_">
				<path id="XMLID_8641_" class="st6" d="M224.9,161c10.7-6.9-8.5-9.4-8.5-9.4S214.2,167.9,224.9,161z"/>
				<path id="XMLID_8640_" class="st6" d="M206.4,149.7c1.1,3.5,14.1,11.9,21.4,3.7c7.2-8.2-8.6-7.4-8.6-7.4
					S205.3,146.2,206.4,149.7z"/>
				<path id="XMLID_8639_" class="st6" d="M178.4,162.5c0.8,2.8,14.2,4.5,15.5-5.3s-6.4-7.2-6.4-7.2
					C176.3,155,177.6,159.7,178.4,162.5z"/>
				<path id="XMLID_8638_" class="st6" d="M194.4,155.4c22.2-10.8-0.3-8-0.3-8C168.5,150.8,172.2,166.2,194.4,155.4z"/>
			</g>
			<g id="XMLID_8633_">
				<path id="XMLID_8636_" class="st0" d="M195.9,161c6.5,11.6,18.3,0,18.3,0"/>
				<path id="XMLID_8635_" class="st0" d="M205.8,159.2c2.5-3.4,5.7,0,5.7,0"/>
				<path id="XMLID_8634_" class="st0" d="M205.8,159.2c-2.4-3.4-5.6,0-5.6,0"/>
			</g>
		</g>
		<path id="XMLID_8630_" class="st0" d="M168.9,215.3c0.7,1.3,1.5,1.9,2.4,2.2"/>
		<path id="XMLID_8629_" class="st0" d="M202,212.7c0.8-1,1-2.1,1-2.1"/>
		<path id="XMLID_8628_" class="st0" d="M195,220.5c0.3-0.1,0.7-0.3,0.9-0.4"/>
		<path id="XMLID_8627_" class="st2" d="M224.5,255.6c-4.5,13.5-1.7,107.4-1.7,107.4"/>
	</g>
	<g>
		<path class="st0" d="M189,665.4c-0.1,1.2,0.2,2.4,1.3,3.4c0.2,0.3,0.5,0.6,0.9,0.8c1.2,0.9,3.1,1.5,5.4,2c1.8,0.3,3.9,0.6,6.2,0.8
			c1.5,0.1,3,0.3,4.6,0.3c1.2,0.2,2.5,0.2,3.7,0.2c1.3-0.1,2.5-0.2,3.7-0.2c1.6-0.1,3.1-0.2,4.5-0.3c2.4-0.1,4.4-0.5,6.2-0.8
			c2.3-0.5,4.2-1.2,5.4-2c0.3-0.3,0.7-0.6,0.9-0.8c0.8-0.7,1.2-1.6,1.3-2.5c-8.9-3.7-16.3-10-18.2-20.8c-1.1-1-1.7-1.6-1.7-1.6
			s-0.3-0.3-0.6-0.7c0-0.1-0.1-0.2-0.2-0.3l-0.1-0.2c-0.2-0.5-0.3-1.3-0.4-2.4h-0.8h-0.9l-15.2,1.3c0,3.9-0.1,6.4-0.1,6.9
			c0,0.1,0,0.1,0,0.1s0,0,0.1,0c-0.8,3.4-1.9,6.2-2.9,8.5c-1,2.5-2,4.5-2.6,6.3C189.3,664.1,189.1,664.8,189,665.4z"/>
		<path class="st0" d="M195.7,646l16.9-1.5c0,0-1.4-43.3-1.5-80c0-14.5,0.2-28,0.7-37.4c-0.2-0.4-0.3-0.8-0.4-1.2
			c0.4-1.3-1.1-6-5.5-16l0,0c-1.7-4-3.7-8.5-5.8-13.3c-2-4.6-3.9-9.5-5.9-14.4c-15.5-38.4-30.2-81.5-30.2-81.5l-23.5,16.8
			c4.4,3.2,35.4,71.2,55.7,115.2c0.2,5.3,0.4,10,0.6,14C198.9,587,195.7,646.1,195.7,646z"/>
		<g>
			<g id="XMLID_8625_">
				<path id="XMLID_8626_" class="st0" d="M243,672.4c-2.3-4.9,3.8-4.3,3.8-4.3C251.8,671.4,245.1,677.2,243,672.4z"/>
			</g>
			<g id="XMLID_8623_">
				<path id="XMLID_8624_" class="st0" d="M239,672.2c-2.4-5.5,4.3-4.8,4.3-4.8C248.9,671.1,241.4,677.5,239,672.2z"/>
			</g>
			<g id="XMLID_8621_">
				<path id="XMLID_8622_" class="st0" d="M234,671.7c-2.8-6.3,5-5.5,5-5.5C245.6,670.6,236.9,678.1,234,671.7z"/>
			</g>
			<g id="XMLID_8619_">
				<path id="XMLID_8620_" class="st0" d="M227.9,671.4c-3.2-7.1,5.7-6.3,5.7-6.3C241.1,670.1,231.1,678.6,227.9,671.4z"/>
			</g>
			<path id="XMLID_8597_" class="st0" d="M214.5,671.1c0.7-2.9,9.4-10,14.3-3.1c4.9,6.9-5.7,6.2-5.7,6.2S213.8,674.1,214.5,671.1z"
				/>
		</g>
		<path id="XMLID_8596_" class="st0" d="M200.1,513.7c0-1.9,2.3-2,2.3-2"/>
		<path id="XMLID_8595_" class="st0" d="M208.8,526.9c-0.1,0.7-2.8,1.5-2.8,1.5"/>
		<g id="XMLID_8593_">
			<path id="XMLID_8594_" class="st0" d="M211.9,640.2c9,1.1,3.9,13.2-2.2,8.2"/>
		</g>
		<g id="XMLID_8591_">
			<path id="XMLID_8592_" class="st0" d="M209.3,515.3c8.6-2.5,8.8,10.6,1.2,8.5"/>
		</g>
	</g>
</g>
</svg>
