<?xml version="1.0" encoding="utf-8"?>
<!-- Generator: Adobe Illustrator 22.1.0, SVG Export Plug-In . SVG Version: 6.00 Build 0)  -->
<svg version="1.1" id="Layer_1" xmlns="http://www.w3.org/2000/svg" xmlns:xlink="http://www.w3.org/1999/xlink" x="0px" y="0px"
	 viewBox="0 0 454.8 541.4" style="enable-background:new 0 0 454.8 541.4;" xml:space="preserve">
<style type="text/css">
	.st0{fill:#FFFFFF;stroke:#000000;stroke-width:2;stroke-miterlimit:10;}
</style>
<path class="st0" d="M2.9,2.5c69.8,0,139.7,0,209.5,0c6.5,0.9,13,1.9,19.3,2.8c-5.6,7.3-11.5,13.8-15.7,21.1c-1.8,3.1-2,10.2,0.1,12
	c10.1,8.6,20.2,19.9,32.1,22.7c12.5,3,15.5,11.3,18.6,19.1c5.2,13.4,13.7,24.7,20.2,37.2c1.7,3.3,4.5,6.4,7.5,8.7
	c11.8,9.1,25.5,16.1,31,31.6c0.7,1.9,3.6,2.9,5.3,4.4c6.9,5.9,16.8,9.4,18.6,19.4c1.9,10.8,9.2,18.3,15.4,26
	c5.7,7.1,14.4,11.8,22.2,17c4.2,2.8,8.8,4.3,7.8,11c-0.4,2.9,0.6,7,2.5,9.2c6.2,6.9,6.2,15.2,6.3,23.5c0.1,7.5,2.8,12.7,9.8,16.6
	c13,7.3,16.8,19.9,18.7,33.9c1.2,8.7,0.6,19.5,14.1,21.4c4.3,0.6,9.9,4.8,2.7,10.9c-1.6,1.3-0.5,5.7-0.7,9.1c-2.7-0.9-6-2.4-9.4-2.8
	c-2.4-0.3-5,0.9-7.5,1.5c1,2.5,1.5,5.4,3.1,7.4c2,2.5,5,4.1,8.4,6.8c-6.8,3.6-15.3,2.1-15.7,11.5c-0.3,6.5,0.1,14-9.5,15.1
	c-0.5,0.1-0.9,2-1.1,3.1c-2.3,10.9-1.7,22.4-8.8,32.4c-2.8,4-1.9,10.8-2.4,16.4c-0.3,3.5,1.2,8.2-0.5,10.3
	c-7.1,8.3-4.5,17.9-4.6,26.9c-0.1,6.3-2.1,8.6-7.7,7.1c-9.4-2.6-18.6-5.9-27.9-8.7c-2.4-0.7-5.3-2.1-7.4-1.4
	c-8.6,3-12.7,13.3-11,22.5c1.4,7.7,1.7,15.7,1.3,23.6c-0.2,2.6-4,6.6-6.7,7.1c-4.7,0.7-6-2.6-6.7-7.8c-2.3-16.8-1.2-15.6-16.8-16.6
	c-4.2-0.2-8.3-0.3-12.5-0.6c-63.7-4-127.3-8.1-191-12.2c-14-0.9-27.9-2.2-41.9-3.2c-6-0.4-8.4-3.7-10.1-9.3
	c-3.4-11.4-6.1-23.5-12.3-33.4c-9.3-14.9-3.4-29.7-1.4-43.7c1.4-9.9,0.2-17.1-4.3-25c-1.5-2.6-2.4-6.2-1.8-9
	c1.8-9.5,5.5-18.8,6.4-28.4c1-10.6,4.4-18.8,12.9-25.1c4.1-3,4.4-6.4,0.5-10.4c-2-2.1-3-5.4-3.7-8.3c-1.5-5.9-2-12-3.9-17.7
	c-1.6-4.7-5.8-8.6-7-13.3c-5.1-20.3-11.6-40.2-13.4-61.5c-2-23.5-7.5-46.7-10.9-70.1c-3.3-22.3-5.8-44.7-8.9-67
	C10.5,51.6,6.6,27,2.9,2.5z"/>
</svg>
