<?xml version="1.0" encoding="utf-8"?>
<!-- Generator: Adobe Illustrator 22.1.0, SVG Export Plug-In . SVG Version: 6.00 Build 0)  -->
<svg version="1.1" id="Layer_1" xmlns="http://www.w3.org/2000/svg" xmlns:xlink="http://www.w3.org/1999/xlink" x="0px" y="0px"
	 viewBox="0 0 349.2 214.6" style="enable-background:new 0 0 349.2 214.6;" xml:space="preserve">
<style type="text/css">
	.st0{opacity:0.1;fill:#231F20;stroke:#231F20;stroke-miterlimit:10;enable-background:new    ;}
	.st1{fill:#FFD767;stroke:#584C4F;stroke-width:2;stroke-miterlimit:10;}
	.st2{fill:#FFFAF2;stroke:#584C4F;stroke-width:2;stroke-miterlimit:10;}
	.st3{fill:none;stroke:#584C4F;stroke-width:2;stroke-miterlimit:10;}
	.st4{opacity:0.1;enable-background:new    ;}
	.st5{fill:#231F20;stroke:#231F20;stroke-miterlimit:10;}
</style>
<path class="st0" d="M257.5,118.7c0,0,0.3-7.1-0.1-12.6c0.7-12.4,0.6-55.5,0.1-77.4c0,0,1-24.4-3.4-17.5c-1.7,2.7-2.3,12.3-2.4,23
	c0,10.7-0.3,44.7,0.2,66.6c0,0-0.3,7.1,0.1,12.6c-0.7,12.4-0.6,55.5-0.1,77.4c0,0-1,24.4,3.4,17.5c1.5-2.3,2.2-10.1,2.3-19.1
	C257.8,177.5,257.9,140.6,257.5,118.7z"/>
<path class="st1" d="M260.5,115.7c0,0,0.3-7.1-0.1-12.6c0.7-12.4,0.6-55.5,0.1-77.4c0,0,1-24.4-3.4-17.5c-1.7,2.7-2.3,12.3-2.4,23
	c0,10.7-0.3,44.7,0.2,66.6c0,0-0.3,7.1,0.1,12.6c-0.7,12.4-0.6,55.5-0.1,77.4c0,0-1,24.4,3.4,17.5c1.5-2.3,2.2-10.1,2.3-19.1
	C260.8,174.5,260.9,137.6,260.5,115.7z"/>
<path class="st0" d="M278.9,92.3c0.4-7.1,1.3-13.3,8.3-13.4c1.6,0,7.9,0.1,9.3,0c4.7-0.3,12.4,2.4,25.1,10c3.3,2,5.8,3.9,7.7,5.8
	c15.5,15.4-11,27.6-11,27.6c-7,5.7-13.4,7.2-18.2,6.4c-1.9,0-6.1,0.1-7.6,0.1c-10.7,0-15.4-11.1-5.8-18.8
	C300.4,99.3,278.2,104.3,278.9,92.3z"/>
<g>
	<g>
		<path class="st1" d="M296.7,110c-9.6,7.7-4.9,18.8,5.8,18.8c1.7,0,7.2-0.2,8.3-0.1c4.7,0.6,10.7-1.1,17.4-6.5
			c0,0,33.4-15.3,3.4-33.3c-12.7-7.6-20.4-10.3-25.1-10c-1.4,0.1-7.7,0-9.3,0c-7,0.1-7.9,6.3-8.3,13.4
			C288.2,104.3,310.4,99.3,296.7,110z"/>
		<g id="XMLID_498_">
			<path id="XMLID_499_" class="st2" d="M306.9,110.1c13.5-10.8-8.6-5.9-7.9-17.8c0.7-11.9,2.7-21.3,32.7-3.3
				c30,18-3.4,33.3-3.4,33.3C308.1,138.6,293.3,120.9,306.9,110.1z"/>
		</g>
	</g>
	<line id="XMLID_497_" class="st3" x1="316.1" y1="124.8" x2="319.2" y2="123.4"/>
	<path id="XMLID_496_" class="st2" d="M295,122.5c0.3,0.9,5,1.6,5,1.6"/>
	<path id="XMLID_495_" class="st2" d="M304.3,104c0.5,0.8,2.9,0.6,2.9,0.6"/>
</g>
<g class="st4">
	<path class="st5" d="M237.6,165.9c-0.3-21.9-10.9-14.8-13.8-12.5c-14.8-5.9-25.6,6.8-25.6,6.8s-0.6,1.4-1.3,3.6
		c-3.5-6.7-10.2-11.1-21.6-8.2c-1.3-2.2-3.9-4.7-9.1-2.9c-1.9,0.7-3.1,2.8-3.9,5.7c-1.5-0.8-3.7-1-6.9,0.1
		c-3.9,1.3-5.9,5.3-6.6,10.2c-2.5-3.9-6.3-7-12.1-8.2c1.9-1.9,3.9-4.1,6.2-6.9c0,0,12.8-8.6,0.7-14.7c-5.9-2.9-13.2,2.5-18.5,9.2
		c-0.1-1.8-0.2-3.6-0.4-5.5c0,0-2.1-12.1-12.3-7.9c-4.9,2-6.3,13.6-5.9,25.5c-5.3-6.3-13.8-10.1-23.1-7.2c-4,1.3-6.8,3.2-8.9,5.4
		c-5.3-5.3-13.1-8.1-21.4-5.4c-3.7,1.2-6.4,2.9-8.4,5c-0.7-0.8-1.4-1.7-2.3-2.5c-4.6-4.4-10-5.6-15.2-4.7
		c-1-32.1-10.6-16.9-14.6-13.9c-5,3.7-10.2,52.1,0.5,56.6c4.2,1.7,7.1,0.9,9-0.8c6.8,1.6,18.8-2.7,21.9-5.4
		c3.7,3.5,15.8,13,30.6,2.1c0.4-0.3,0.7-0.6,1.1-0.9c4.8,4,15.9,10.6,29.2,0.9c2.1-1.6,3.7-3.4,4.9-5.3c0.7,2.3,1.4,3.9,2.2,4.4
		c3.8,2.9,13,17.4,13.9-13.4c4.8-2.4,12.4-3.7,10,13.8c0,0,4.1,7.7,12,4.5c1.5-0.6,2.7-2.5,3.5-5.1c1.6,3.9,3.7,6.5,5.7,6.1
		c3.4-0.7,5.9-2.4,7.3-6.3c0.5,1.1,0.9,1.9,1.4,2.2c3.5,2.2,12.5,14.9,11.3-18.9c4.1-2.7,11-4.7,8.9,14.7c0,0,3.5,8.4,10.3,4.9
		c1-0.5,2-2,2.6-4.1c2.1,2.6,5.1,4.9,9.6,6.3c5.2,1.7,10.2,1.2,14.5-0.7c-1.1,3.9-3.3,7-7.6,8.9c-14.8,6.5,0,12.7,0,12.7
		C242.7,214.4,238,191.3,237.6,165.9z M36,174.6c0.1,4-3.1,4.8-6.3,3.8c0,0-0.3-0.1-0.7-0.3c-0.5-0.2-1.3-0.4-2.1-0.5
		c0.2-4.1,0.4-7.9,0.5-11.3c0.8,0,1.5-0.1,2.2-0.2c0.6-0.1,1.1-0.2,1.5-0.3c0.1,0,0.1,0,0.2,0c0.9-0.3,1.7-0.2,2.3,0.2
		c1.5,0.9,2.1,3.1,2.1,3.1l0,0C36.3,171.5,36,174.6,36,174.6z M56.4,180.5c-11.9-1.6,4.8-23.8,10.2-9.7
		C72.1,185,56.4,180.5,56.4,180.5z M86.7,180.5c-11.9-1.6,4.8-23.8,10.2-9.7C102.4,185,86.7,180.5,86.7,180.5z M221.9,175.6
		c-5.4,14.1-22.1-8.1-10.2-9.7C211.7,165.9,227.4,161.5,221.9,175.6z"/>
	<path class="st5" d="M158.7,152.2c14.2-6.1-0.2-14.3-0.2-14.3C148.9,130.4,144.5,158.3,158.7,152.2z"/>
	<path class="st5" d="M190.6,94.4L190.6,94.4c0-0.1-0.1-0.3-0.1-0.4v-0.1c-0.1-0.1-0.1-0.3-0.2-0.4c0,0,0-0.1-0.1-0.1
		c-0.1-0.1-0.1-0.2-0.2-0.3l-0.1-0.1c-0.1-0.1-0.2-0.3-0.3-0.4c-0.1-0.1-0.1-0.1-0.2-0.2s-0.2-0.2-0.3-0.3c-0.1-0.1-0.2-0.1-0.2-0.2
		c-0.1-0.1-0.2-0.2-0.4-0.3c-0.1-0.1-0.2-0.1-0.2-0.2c-0.1-0.1-0.3-0.2-0.4-0.3c-0.1-0.1-0.2-0.2-0.4-0.3c-0.1-0.1-0.2-0.2-0.4-0.2
		c-0.1-0.1-0.2-0.1-0.3-0.2c-0.2-0.1-0.4-0.2-0.6-0.4c-0.1-0.1-0.2-0.1-0.4-0.2c-0.1-0.1-0.3-0.1-0.4-0.2s-0.3-0.2-0.4-0.2
		c-0.2-0.1-0.4-0.2-0.6-0.3c-0.1-0.1-0.3-0.1-0.4-0.2c-0.2-0.1-0.4-0.2-0.5-0.2c-0.2-0.1-0.3-0.1-0.5-0.2s-0.4-0.2-0.6-0.2
		c-0.1-0.1-0.3-0.1-0.4-0.1c-0.3-0.1-0.5-0.2-0.8-0.3c-0.1,0-0.2-0.1-0.4-0.1c-0.2-0.1-0.4-0.1-0.7-0.2c-0.1,0-0.2-0.1-0.4-0.1
		c-0.3-0.1-0.6-0.2-0.9-0.2c-0.1,0-0.2-0.1-0.4-0.1c-0.3-0.1-0.5-0.1-0.8-0.2c-0.1,0-0.2,0-0.2,0c-0.3-0.1-0.7-0.1-1-0.2
		c-0.1,0-0.2,0-0.3,0c-0.3,0-0.7-0.1-1-0.1c-0.1,0-0.1,0-0.2,0c-0.3,0-0.6-0.1-0.9-0.1c-0.1,0-0.2,0-0.2,0c-0.4,0-0.7,0-1.1,0
		c-0.1,0-0.1,0-0.2,0c-0.3,0-0.7,0-1,0h-0.1c-0.4,0-0.7,0.1-1.1,0.1c-0.1,0-0.1,0-0.2,0c-0.7,0.1-1.4,0.2-2.2,0.4
		c-0.1,0-0.1,0-0.2,0c-0.4,0.1-0.7,0.2-1,0.3h-0.1c-0.3,0.1-0.7,0.2-1,0.4c0,0,0,0-0.1,0c-0.3,0.1-0.7,0.3-1,0.5c0,0-0.1,0-0.1,0.1
		c-0.6,0.4-1.3,0.8-1.8,1.3l-0.1,0.1c-0.6,0.5-1.1,1.1-1.6,1.7l0,0l0,0c-0.3,0.3-0.5,0.7-0.7,1c0,0,0,0.1-0.1,0.1
		c-0.5,0.7-0.9,1.6-1.2,2.5c0,0,0,0.1-0.1,0.1c-0.2,0.4-0.3,0.9-0.5,1.4c0,0.1,0,0.1-0.1,0.2c-0.3,1-0.5,2-0.6,3.2
		c0,0.1,0,0.2,0,0.3c-0.1,0.6-0.1,1.1-0.2,1.7c0,0.1,0,0.2,0,0.3c0,0.6-0.1,1.3,0,1.9l0,0l0,0c0,0,0,0,0,0.1l0,0
		c0.6,2,1.7,3.7,3,5.1c0.5,0.6,1.1,1,1.6,1.4c3.8,2.9,9.1,4.2,13.8,4.3l0,0c0,0.1-0.1,0.2-0.1,0.3c0,0,0,0.1-0.1,0.2
		c0,0.1-0.1,0.2-0.1,0.3c0,0,0,0.1-0.1,0.1c-0.1,0.1-0.1,0.2-0.2,0.3l-0.1,0.1c-0.1,0.1-0.2,0.2-0.2,0.2l-0.1,0.1
		c-0.1,0.1-0.2,0.1-0.3,0.2c-0.1,0-0.1,0.1-0.2,0.1c-0.1,0.1-0.2,0.1-0.3,0.1c-0.1,0-0.1,0.1-0.2,0.1s-0.3,0.1-0.4,0.1
		s-0.2,0-0.3,0.1c-0.1,0-0.3,0-0.4,0s-0.2,0-0.3,0c-0.2,0-0.3,0-0.5,0c-0.1,0-0.2,0-0.4,0c-0.2,0-0.4,0-0.6-0.1c-0.1,0-0.3,0-0.4,0
		c-0.2,0-0.4-0.1-0.6-0.1s-0.3-0.1-0.5-0.1c-0.2-0.1-0.5-0.1-0.7-0.2c-0.2,0-0.3-0.1-0.5-0.1c-0.3-0.1-0.5-0.2-0.8-0.3
		c-0.2-0.1-0.3-0.1-0.5-0.2c-0.3-0.1-0.6-0.2-1-0.4c-0.2-0.1-0.3-0.1-0.5-0.2c-0.4-0.2-0.8-0.3-1.3-0.5c-0.1-0.1-0.2-0.1-0.4-0.2
		c-0.6-0.3-1.2-0.5-1.8-0.8c0,0-3.1,0.2-5.1,2c-7.2-3.2-8.6-9.8-8.5-18.1V98c3,0.1,7.6-1,6.7-8.6c-0.6-4.9-3.3-6.6-6.3-6.9l0.4-13.8
		c0,0-14.1-13.5-14.5,11.9c0,3.9-0.2,7.7-0.3,11.5c-3.8-2.8-9.2-4-16.6-2.1c-1.3-2.2-3.9-4.7-9.1-2.9c-1.3,0.5-2.3,1.6-3,3.3
		c-2.5-2-5.6-3.4-9.4-3.7C87.1,85.8,81.1,89,77.3,93l0,0c-1.9-3.2-4.3-17.7-15.8,11.9C50.4,76.7,47.8,88.8,45.9,92.7
		c-2.7-3.2-6.6-5.4-11.6-5.9c-15.3-1.5-21.6,8.4-24,14.4c0,0-0.5,0.9-0.9,2.7c-0.3,1.1-0.4,1.9-0.3,2.3c-0.2,3.3,0.3,8.2,3.4,14.7
		c2.5,5.3,8.9,7.2,13.2,7.9c1.2,0.3,2.5,0.4,3.9,0.4c0.1,0,0.1,0,0.1,0l0,0c1.5,0,3.1-0.2,4.8-0.6c6.7-1.5,11.3-5.8,13.9-11.1
		c-0.4-6.1-5.7-6.8-8.8-7.3c-1.7-0.3-3.5,0.8-4.8,1.9c-0.1,0.1-0.3,0.2-0.4,0.4c-4.5,3.3-16.4-3.2-10.1-8.1c0,0,1.6-1.7,3.6-2.8
		c0.2,0.9,0.6,1.9,1.1,3c1.6,3.4,5.5,3.7,9.1,2.8c2.2,1.9,5.1,3,7.8,1.1c0.7-0.5,1.3-1,1.8-1.4c2.1,7.3,5.5,15.5,9,19.6
		c0.4,0.7,1.1,1.4,2,1.8c0.8,0.5,1.5,0.8,2.3,0.8c3.2,0,4.8-1.4,5.6-3.1c2-2.5,4-6.3,5.7-10.5c0.5,1.6,1.2,3.4,2.1,5.3
		c2.5,5.3,8.9,7.2,13.2,7.9c1.2,0.3,2.5,0.4,3.9,0.4c0.1,0,0.1,0,0.1,0l0,0c1.5,0,3.1-0.2,4.8-0.6c4.3-1,7.8-3.1,10.4-6
		c0.5,1.2,1,2.1,1.5,2.4c3.5,2.2,12.5,14.9,11.3-18.9c4.1-2.7,11-4.7,8.9,14.7c0,0,3.5,8.4,10.3,4.9c0.6-0.3,1.1-0.9,1.6-1.6
		c3.4,3.3,8.6,5.2,16.4,5.2c0,0,2.6-1.1,4.5-2.8c0.1,0.1,0.2,0.1,0.3,0.2c0,0,0.1,0,0.1,0.1c0.6,0.3,1.3,0.6,2,0.8h0.1
		c0.4,0.1,0.7,0.3,1.1,0.4l0,0c0.7,0.2,1.5,0.5,2.3,0.6l0,0c0.8,0.2,1.6,0.3,2.4,0.5l0,0c2,0.3,4.1,0.4,6.1,0.1l0,0
		c2-0.2,3.9-0.8,5.6-1.8l0,0c0.7-0.4,1.3-0.8,1.9-1.3l0,0c0.9-0.8,1.8-1.7,2.5-2.9c0,0,0,0,0-0.1c0.5-0.8,0.9-1.6,1.3-2.5v-0.1
		c0.2-0.4,0.3-0.9,0.5-1.4c0-0.1,0-0.1,0-0.2c0.3-1,0.5-2.1,0.6-3.2c0-0.1,0-0.2,0-0.3c0.1-0.6,0.1-1.1,0.2-1.7c0-0.1,0-0.2,0-0.3
		c0-0.6,0.1-1.3,0-2l0,0l0,0c-0.6-2-1.7-3.7-3-5.1c-0.5-0.6-1.1-1-1.6-1.4c-3.8-2.9-9.1-4.1-13.8-4.3l0,0c0-0.1,0.1-0.2,0.1-0.3
		c0-0.1,0-0.1,0.1-0.2c0-0.1,0.1-0.2,0.1-0.2c0-0.1,0.1-0.1,0.1-0.2s0.1-0.1,0.1-0.2c0.1-0.1,0.1-0.1,0.2-0.2c0-0.1,0.1-0.1,0.2-0.1
		c0.1-0.1,0.1-0.1,0.2-0.2c0,0,0.1-0.1,0.2-0.1c0.1-0.1,0.2-0.1,0.3-0.2c0,0,0.1,0,0.2-0.1s0.3-0.1,0.4-0.2h0.1
		c0.2,0,0.3-0.1,0.5-0.1h0.1c0.2,0,0.4-0.1,0.7-0.1l0,0c2.1-0.1,5.4,0.8,10.4,3.2c0,0,6.5-0.3,6.6-5.5
		C190.6,95.1,190.6,94.8,190.6,94.4z M101.6,109.8c-1.7-0.3-3.5,0.8-4.8,1.9c-0.1,0.1-0.3,0.2-0.4,0.4c-4.5,3.3-16.4-3.2-10.1-8.1
		c0,0,1.6-1.7,3.6-2.8c0.2,0.9,0.6,1.9,1.1,3c1.6,3.4,5.5,3.7,9.1,2.8c1.2,1.1,2.7,1.9,4.2,2c0,0.5,0.1,0.9,0.1,1.4
		C103.3,110,102.4,109.9,101.6,109.8z"/>
	<path class="st5" d="M209.8,100.8c-4.3,0.6-7.6,1.4-8.3,2.2c-1.6,2-9.9,7,8.5,7.2c0.1,2.1,0.2,4.3,0.4,6.8c0,0,1.1,6.6,6.4,4.3
		c2.2-1,3-5.8,3.1-11.3c2.1-0.1,4.3-0.2,6.7-0.4c0,0,6.6-1.1,4.3-6.4c-1-2.2-6-3.1-11.7-3.1c-0.6-4.3-1.4-7.6-2.2-8.3
		C215.1,90.3,210,81.9,209.8,100.8z"/>
	<path class="st5" d="M7.1,44.9c0.1,3.3,0.3,5.6,0.3,5.6s5.2,35.3,12,32.5c2.6-1.1,5.4-9.6,7-20.1c5.9,0.1,11.2-2.3,15.2-6.2
		c4.2,8.3,14.8,6.5,14.5-4.9c-0.6-17.1,5.3-18.4,12-15.8c0.4,0.1,0.7,0.3,1.1,0.4c-0.8,8.6,2.9,17.1,2.9,17.1s12.5,14.7,28.9,5.2
		c0.4,0.8,0.9,1.5,1.4,1.9c0.2,0.2,0.4,0.3,0.6,0.4c6.2,3.3,10.2-3.9,10.2-3.9c0.9-3.3,1.4-11.6,1.2-19.5c0.3-0.7,0.6-1.3,1-1.6
		c2.5-2,9.7-1.7,11.5,1.9c0.4,0.8,0.5,1.8,0.3,3c-0.8,3.7-0.9,7.9-0.8,10.8c0,2,0.1,3.7,0.1,4.2c0,1.6,0.7,4.9,6.2,5.6
		c7.3,0.8,8.3-1.5,8.3-6.7c0-2.5,1.4-9.5,0.5-16.6c0.3-0.9,0.7-1.6,1.2-2c2.2-1.7,8-1.7,10.6,0.8c1,1,1.5,2.3,1.1,4.1
		c-0.8,3.7-0.9,7.9-0.8,10.8c0,2,0.1,3.7,0.1,4.2c0,0.9,0.2,2.4,1.4,3.6c0.9,0.9,2.4,1.7,4.8,2c4.1,0.5,6.3-0.1,7.3-1.6
		c5.7,2.6,13.8,3.6,22.9-3.1c17.8-13.1,0.3-43.4-21.4-36.5c-2.9,0.9-5.2,2.2-7.1,3.7c-2.2-1.7-5-3.1-8.6-3.9
		c-8.4-1.8-14.6,0.2-19,3.5l0,0c-0.1-0.1-0.2-0.2-0.4-0.3c-0.3-0.2-0.6-0.4-0.9-0.6c-0.1-0.1-0.3-0.2-0.4-0.2
		c-0.3-0.2-0.7-0.4-1.1-0.6c-0.1-0.1-0.2-0.1-0.3-0.2c-0.4-0.2-0.9-0.4-1.3-0.6c-0.1,0-0.1-0.1-0.2-0.1c-1.1-0.4-2.3-0.8-3.6-1.1
		l0,0l0,0c-5.7-1.2-10.4-0.7-14.2,0.8c-0.1-0.1-0.2-0.2-0.3-0.3c-3-2.9-8.2-0.5-11.2,0.7c-0.3,0.1-0.5,0.4-0.7,0.8
		c-4.8-2.8-10.6-3.9-16.9-1.9c-3,0.9-5.3,2.3-7.2,3.8c-1.3-0.9-11.8-7.3-21.4-2.7c-1.6-2-4.3-3.3-9.1-0.5c-2,1.2-3.1,2.5-3.7,3.9
		c-7.8-5.4-14.9-5.2-20.2-3.4c-0.6-0.5-1.2-0.9-1.9-1.2C8.4,14.9,7,31.9,7.1,42.5C7.1,43.4,7.1,44.1,7.1,44.9z M181.7,38.1
		c5.4,14.1-10.2,9.7-10.2,9.7c-1.2-0.2-2.2-0.6-2.8-1.1c0.1-2.3,0.2-4.8-0.1-7.4C171.5,34,178.6,29.8,181.7,38.1z M95.6,38.1
		c5.4,14.1-10.2,9.7-10.2,9.7C73.5,46.2,90.2,24,95.6,38.1z M23.5,34.4c0,0,1.4-0.4,3.2-0.6c4.3-0.4,10.9,0.3,7.1,10.2
		c-1.5,3.8-3.8,5-6.1,4.6C21.3,47.8,14.8,35.6,23.5,34.4z"/>
	<path class="st5" d="M192.6,75.7c0,0,13,8.9,18.6-6.9s-8-18.3-7.7-8.7s-3,10.4-6.8,8.9C193,67.6,187.7,69.2,192.6,75.7z"/>
</g>
<g id="XMLID_4319_">
	<path id="XMLID_4325_" class="st1" d="M215.9,154.2"/>
	<path id="XMLID_4322_" class="st1" d="M227.1,151.9c-17.8-13.1-31.8,3.3-31.8,3.3s-11.4,26.2,10.3,33.1
		C227.4,195.3,244.9,165,227.1,151.9z M218.9,170.6c-5.4,14.1-22.1-8.1-10.2-9.7C208.7,160.9,224.4,156.5,218.9,170.6z"/>
	<path id="XMLID_4321_" class="st1" d="M220.2,149.9"/>
	<path id="XMLID_4320_" class="st1" d="M220.2,149c0,0,14.1-13.5,14.5,11.9s5.1,48.5-22.1,48.3c0,0-14.8-6.2,0-12.7
		c7.2-3.2,8.7-9.8,8.5-18.1"/>
</g>
<g id="XMLID_39_">
	<path id="XMLID_41_" class="st1" d="M173.4,153.2c0,0-1.7-8.5-10.1-5.5s-4.2,35.2-0.4,37.7S177.6,203.3,173.4,153.2z"/>
	<path id="XMLID_40_" class="st1" d="M171.5,168.7c0,0,14.6-14.4,11.7,12.5c0,0,3.5,8.4,10.3,4.9s7.8-46.3-24.9-34.3"/>
</g>
<g id="XMLID_4599_">
	<g id="XMLID_4339_">
		<path id="XMLID_4340_" class="st1" d="M162.4,164.4c0,0,2.9-15.1-9.9-10.8c-12.8,4.3-5.1,37.5,1.7,36
			C161,188.2,164.1,182.8,162.4,164.4z"/>
	</g>
	<path id="XMLID_4338_" class="st1" d="M155.5,132.9c0,0,14.4,8.2,0.2,14.3C141.5,153.3,145.9,125.4,155.5,132.9z"/>
</g>
<g id="XMLID_13436_">
	<g id="XMLID_4349_">
		<path id="XMLID_4350_" class="st1" d="M140.1,148.7c0,0,12.8-8.6,0.7-14.7c-12.1-6-30.1,22.9-24.3,26.7S128.3,162.9,140.1,148.7z"
			/>
	</g>
	<g id="XMLID_4346_">
		<path id="XMLID_422_" class="st1" d="M122.5,145.7c-0.1-2.5-0.3-5.2-0.5-8c0,0-2.1-12.1-12.3-7.9c-10.2,4.3-5.2,50.3-0.5,53.9
			c3.8,2.9,13.3,17.9,13.9-15"/>
		<path id="XMLID_4347_" class="st1" d="M119.5,172.5c0,0,17.1-13.3,13.6,11.6c0,0,4.1,7.7,12,4.5s9.1-42.7-29-31.7"/>
	</g>
</g>
<path id="XMLID_42_" class="st1" d="M80.7,148.1c-21.8,6.9-10.3,33.1-10.3,33.1s13.9,16.4,31.8,3.3
	C119.9,171.5,102.4,141.2,80.7,148.1z M83.7,175.5c-11.9-1.6,4.8-23.8,10.2-9.7C99.4,180,83.7,175.5,83.7,175.5z"/>
<g id="XMLID_4351_">
	<g id="XMLID_14379_">
		<g id="XMLID_14387_">
			<path id="XMLID_14390_" class="st1" d="M123.3,48.2"/>
			<path id="XMLID_14389_" class="st1" d="M137.5,47.3c-0.1-6.1-0.5-14.4,1.9-16.3c3.1-2.4,13.1-1.5,11.8,4.9
				c-0.8,3.7-0.9,7.9-0.8,10.8c0,2,0.1,3.7,0.1,4.2c0,1.6,0.7,4.9,6.2,5.6c7.3,0.8,8.3-1.5,8.3-6.7s6-30.1-15.2-34.5
				c-14.8-3.1-22.7,5.4-26.1,12.3"/>
			<path id="XMLID_14388_" class="st1" d="M138.3,30.1"/>
		</g>
		<g id="XMLID_14383_">
			<path id="XMLID_14386_" class="st1" d="M96.1,48.2c0.8,4.4,14.3,1,14.3-0.9c-0.1-6.1-0.5-14.4,1.9-16.3c2.5-2,9.7-1.7,11.5,1.9
				c0.4,0.8,0.5,1.8,0.3,3c-0.8,3.7-0.9,7.9-0.8,10.8c0,2,0.1,3.7,0.1,4.2c0,1.6,0.7,4.9,6.2,5.6c7.3,0.8,8.3-1.5,8.3-6.7
				s6-30.1-15.2-34.5S94.5,30,94.5,34.5C94.6,37,95.1,43,96.1,48.2"/>
			<path id="XMLID_14385_" class="st1" d="M111.1,30"/>
			<path id="XMLID_14384_" class="st1" d="M111.1,30c0.4,8.5-0.1,18.4-1.1,22.1c0,0-4,7.2-10.2,3.9s-6.7-38-2.9-39.6s11.3-5,13.1,3"
				/>
		</g>
	</g>
	<g id="XMLID_4358_">
		<path id="XMLID_15187_" class="st1" d="M123.3,48.2"/>
		<path id="XMLID_4294_" class="st1" d="M138.3,33.1c0.3-0.9,0.7-1.6,1.2-2c3.1-2.4,13.1-1.5,11.8,4.9c-0.8,3.7-0.9,7.9-0.8,10.8
			c0,2,0.1,3.7,0.1,4.2c0,1.6,0.7,4.9,6.2,5.6c7.3,0.8,8.3-1.5,8.3-6.7s6-30.1-15.2-34.5c-8.4-1.8-14.6,0.2-19,3.5"/>
		<path id="XMLID_4359_" class="st1" d="M138.3,30.1"/>
	</g>
	<g id="XMLID_4352_">
		<path id="XMLID_4357_" class="st1" d="M133.2,20.9c-2.4-2.6-5.8-4.7-10.6-5.7"/>
		<path id="XMLID_4356_" class="st1" d="M133.2,20.9"/>
		<path id="XMLID_4354_" class="st1" d="M111.1,30"/>
		<path id="XMLID_4353_" class="st1" d="M111.1,30c0.4,8.5-0.1,18.4-1.1,22.1c0,0-4,7.2-10.2,3.9s-6.7-38-2.9-39.6s11.3-5,13.1,3"/>
	</g>
</g>
<path id="XMLID_86_" class="st1" d="M165.5,15.4c-21.8,6.9-10.3,33.1-10.3,33.1s13.9,16.4,31.8,3.3C204.7,38.7,187.2,8.4,165.5,15.4
	z M168.5,42.8c-11.9-1.6,4.8-23.8,10.2-9.7C184.2,47.2,168.5,42.8,168.5,42.8z"/>
<g id="XMLID_4355_">
	<path id="XMLID_4361_" class="st1" d="M115.8,87.4c0,0-1.7-8.5-10.1-5.5c-8.4,3-4.2,35.2-0.4,37.7
		C109.2,122.1,120,137.4,115.8,87.4z"/>
	<path id="XMLID_4360_" class="st1" d="M113.9,102.8c0,0,14.6-14.4,11.7,12.5c0,0,3.5,8.4,10.3,4.9s7.8-46.3-24.9-34.3"/>
</g>
<g id="XMLID_4556_">
	<path id="XMLID_4377_" class="st1" d="M146.2,63.5c0,0-14.1-13.5-14.5,11.9c-0.3,25.4-5.1,48.5,22.1,48.3c0,0,14.8-6.2,0-12.7
		c-7.2-3.2-8.7-9.8-8.5-18.1"/>
	<path id="XMLID_4378_" class="st1" d="M142.8,92.5c0,0,10.5,2.9,9.2-8.2s-14-5.6-14-5.6"/>
</g>
<g id="XMLID_4171_">
	<path id="XMLID_421_" class="st1" d="M53.1,114.9c0,0-1.9,8.7,6.1,8.7s17.5-32.3,15.3-36C72.3,83.9,69.5,65.6,53.1,114.9z"/>
	<path id="XMLID_4407_" class="st1" d="M64.2,115c0,0,1.9,8.7-6.1,8.7s-17.5-32.3-15.3-36c2-3.4,4.4-18.9,17.2,15.5"/>
</g>
<g id="XMLID_415_">
	<path id="XMLID_4375_" class="st1" d="M181,95.9c0,0,7.4-0.4,6.6-6.5c-0.6-4.9-21.2-13.8-29.7-3.1c-2.2,2.8-3.6,6.9-3.5,12.8v0.1
		c0.6,2,1.7,3.7,3,5.1c0.5,0.6,1.1,1,1.6,1.4c3.8,2.9,9.1,4.2,13.8,4.3c-0.7,2.7-3.8,4.1-13.9-0.8c0,0-7.4,0.4-6.6,6.5
		c0.6,4.9,21.3,13.8,29.7,3.1c2.2-2.8,3.6-6.9,3.5-12.8l0,0c-0.6-2-1.7-3.7-3-5.1c-0.5-0.6-1.1-1-1.6-1.4c-3.8-2.9-9.1-4.2-13.8-4.3
		C167.8,92.5,170.9,91,181,95.9z"/>
	<path id="XMLID_4414_" class="st1" d="M171.7,103.5c0,0,7.1,15.2-12.8,5.5c0,0-7.4,0.4-6.6,6.5c0.8,6.2,33.4,18.8,33.2-9.7"/>
	<path id="XMLID_4415_" class="st1" d="M168.2,101.4c0,0-7.1-15.2,12.8-5.5c0,0,7.4-0.4,6.6-6.5c-0.8-6.2-33.4-18.8-33.2,9.7"/>
</g>
<g id="XMLID_25_">
	<path id="XMLID_38_" class="st1" d="M94.4,87.2c0,0-3.8-2.6-5.4-0.6c-1.6,2.1-4.4,5.6-1.1,12.5c3.3,6.9,15.7,1.2,16.9-2"/>
	<path id="XMLID_26_" class="st1" d="M108.3,93.1L108.3,93.1c-2.3-6.1-7.3-10.9-15-11.7c-15.3-1.5-21.6,8.4-24,14.4
		c0,0-0.5,0.9-0.9,2.7c-0.3,1.1-0.4,1.9-0.3,2.3c-0.2,3.3,0.3,8.2,3.4,14.7c2.5,5.3,8.9,7.2,13.2,7.9c1.2,0.3,2.5,0.4,3.9,0.4
		c0.1,0,0.1,0,0.1,0l0,0c1.5,0,3.1-0.2,4.8-0.6c6.7-1.5,11.3-5.8,13.9-11.1c-0.4-6.1-5.7-6.8-8.8-7.3c-1.7-0.3-3.5,0.8-4.8,1.9
		c-0.1,0.1-0.3,0.2-0.4,0.4c-4.5,3.3-16.4-3.2-10.1-8.1c0,0,2.1-2.2,4.6-3.3l0,0c0,0,2.1-1.1,3.7-0.5c0.7,0.2,1.2,0.7,1.6,1.6
		c0,0,0,0.1,0.1,0.1c0.2,0.4,0.4,0.9,0.7,1.3c2.1,3.3,6.6,7.7,10.9,4.7c4.9-3.5,4.3-4.9,4.5-6.3l0,0
		C109.6,95.3,108.3,93.1,108.3,93.1z"/>
</g>
<g id="XMLID_2593_">
	<path id="XMLID_4316_" class="st1" d="M32.6,87.2c0,0-3.8-2.6-5.4-0.6s-4.4,5.6-1.1,12.5c3.3,6.9,15.7,1.2,16.9-2"/>
	<path id="XMLID_4315_" class="st1" d="M46.5,93.1L46.5,93.1c-2.3-6.1-7.3-10.9-15-11.7c-15.3-1.5-21.6,8.4-24,14.4
		c0,0-0.5,0.9-0.9,2.7c-0.3,1.1-0.4,1.9-0.3,2.3c-0.2,3.3,0.3,8.2,3.4,14.7c2.5,5.3,8.9,7.2,13.2,7.9c1.2,0.3,2.5,0.4,3.9,0.4
		c0.1,0,0.1,0,0.1,0l0,0c1.5,0,3.1-0.2,4.8-0.6c6.7-1.5,11.3-5.8,13.9-11.1c-0.4-6.1-5.7-6.8-8.8-7.3c-1.7-0.3-3.5,0.8-4.8,1.9
		c-0.1,0.1-0.3,0.2-0.4,0.4c-4.5,3.3-16.4-3.2-10.1-8.1c0,0,2.1-2.2,4.6-3.3l0,0c0,0,2.1-1.1,3.7-0.5c0.7,0.2,1.2,0.7,1.6,1.6
		c0,0,0,0.1,0.1,0.1c0.2,0.4,0.4,0.9,0.7,1.3c2.1,3.3,6.6,7.7,10.9,4.7c4.9-3.5,4.3-4.9,4.5-6.3l0,0C47.7,95.3,46.5,93.1,46.5,93.1z
		"/>
</g>
<path id="XMLID_4286_" class="st1" d="M50.4,148.1c-21.8,6.9-10.3,33.1-10.3,33.1s13.9,16.4,31.8,3.3
	C89.6,171.5,72.1,141.2,50.4,148.1z M53.4,175.5c-11.9-1.6,4.8-23.8,10.2-9.7C69.1,180,53.4,175.5,53.4,175.5z"/>
<g id="XMLID_4555_">
	<path id="XMLID_4337_" class="st1" d="M39.7,150.6c15.6,15,2.1,31.2,2.1,31.2c-2.2,3.3-21.8,10-26.2,3.7l0,0
		c-4.4-6.4,0.2-10.1,2.9-12.2c2.1-1.7,5.9-0.7,7.5-0.2c0.5,0.1,0.7,0.3,0.7,0.3c3.2,1,6.5,0.3,6.3-3.8c0,0,0.3-3.1-0.5-5.6l0,0
		c0,0-0.5-2.2-2.1-3.1c-0.6-0.3-1.3-0.5-2.3-0.2c0,0-0.1,0-0.2,0c-0.4,0.1-0.9,0.2-1.5,0.3c-3.8,0.6-10.1-0.1-10.5-5.2
		c-0.5-6,0.9-6.4,1.8-7.5l0,0c0.9-1,3.4-1.6,3.4-1.6l0,0C27.3,144.6,34.1,145.3,39.7,150.6z"/>
	<path id="XMLID_423_" class="st1" d="M24.4,157.7c-0.1,6.3-0.5,13.8-1.1,22.7c0,0-2.2,12.7-13,8.3s-5.4-52.9-0.5-56.6
		c4-3,13.9-18.8,14.6,15.7"/>
</g>
<path id="XMLID_83_" class="st1" d="M79.3,15.4C57.5,22.3,69,48.5,69,48.5s13.9,16.4,31.8,3.3C118.6,38.7,101.1,8.4,79.3,15.4z
	 M82.4,42.8c-11.9-1.6,4.8-23.8,10.2-9.7C98,47.2,82.4,42.8,82.4,42.8z"/>
<g id="XMLID_4362_">
	<path id="XMLID_4371_" class="st1" d="M72.3,19.3c0,0-23.1-15.9-33,12.2S53.6,64,53,46.9s5.3-18.4,12-15.8
		C71.8,33.6,81.2,30.8,72.3,19.3z"/>
	<path id="XMLID_4370_" class="st1" d="M52.7,20.9c0,0-1.5-10.5-10.9-5s0.5,14.7,0.5,14.7"/>
</g>
<path id="XMLID_5593_" class="st1" d="M207.4,112.1c0,0,1.1,6.6,6.4,4.3c5.3-2.3,2.7-27.5,0.2-29.5C211.6,85,204.8,73,207.4,112.1z"
	/>
<path id="XMLID_51_" class="st1" d="M223.7,104.7c0,0,6.6-1.1,4.3-6.4s-27.5-2.7-29.5-0.2C196.6,100.5,184.6,107.4,223.7,104.7z"/>
<path id="XMLID_4419_" class="st1" d="M38.8,20.4c-8.1-6-15.4-5.8-21-3.9c-0.6-0.5-1.2-0.9-1.9-1.2C5.3,10.1,3.9,27.1,4,37.7
	c0,0.7,0,1.4,0,2.2c0.1,3.3,0.3,5.6,0.3,5.6S9.6,80.8,16.4,78c2.6-1.1,5.4-9.6,7-20.1C42.1,58.3,55,32.3,38.8,20.4z M30.7,39.1
	c-1.5,3.8-3.8,5-6.1,4.6c-6.3-1-12.8-13.1-4.2-14.3c0,0,1.4-0.4,3.2-0.6C27.9,28.4,34.5,29.1,30.7,39.1z"/>
<path id="XMLID_76_" class="st1" d="M189.6,70.7c0,0,13,8.9,18.6-6.9s-8-18.3-7.7-8.7s-3,10.4-6.8,8.9
	C190,62.6,184.7,64.2,189.6,70.7z"/>
<g id="XMLID_195_">
	<path id="XMLID_201_" class="st2" d="M212.9,149.2"/>
	<path id="XMLID_198_" class="st2" d="M224.1,146.9c-17.8-13.1-31.8,3.3-31.8,3.3s-11.4,26.2,10.3,33.1
		C224.4,190.3,241.9,160,224.1,146.9z M215.9,165.6c-5.4,14.1-22.1-8.1-10.2-9.7C205.7,155.9,221.4,151.5,215.9,165.6z"/>
	<path id="XMLID_197_" class="st2" d="M217.2,144.9"/>
	<path id="XMLID_196_" class="st2" d="M217.2,144c0,0,14.1-13.5,14.5,11.9s5.1,48.5-22.1,48.3c0,0-14.8-6.2,0-12.7
		c7.2-3.2,8.7-9.8,8.5-18.1"/>
</g>
<g id="XMLID_192_">
	<path id="XMLID_194_" class="st2" d="M170.4,148.2c0,0-1.7-8.5-10.1-5.5s-4.2,35.2-0.4,37.7S174.6,198.3,170.4,148.2z"/>
	<path id="XMLID_193_" class="st2" d="M168.5,163.7c0,0,14.6-14.4,11.7,12.5c0,0,3.5,8.4,10.3,4.9s7.8-46.3-24.9-34.3"/>
</g>
<g id="XMLID_188_">
	<g id="XMLID_190_">
		<path id="XMLID_191_" class="st2" d="M159.4,159.4c0,0,2.9-15.1-9.9-10.8c-12.8,4.3-5.1,37.5,1.7,36
			C158,183.2,161.1,177.8,159.4,159.4z"/>
	</g>
	<path id="XMLID_189_" class="st2" d="M152.5,127.9c0,0,14.4,8.2,0.2,14.3C138.5,148.3,142.9,120.4,152.5,127.9z"/>
</g>
<g id="XMLID_182_">
	<g id="XMLID_186_">
		<path id="XMLID_187_" class="st2" d="M137.1,143.7c0,0,12.8-8.6,0.7-14.7c-12.1-6-30.1,22.9-24.3,26.7S125.3,157.9,137.1,143.7z"
			/>
	</g>
	<g id="XMLID_183_">
		<path id="XMLID_185_" class="st2" d="M119.5,140.7c-0.1-2.5-0.3-5.2-0.5-8c0,0-2.1-12.1-12.3-7.9c-10.2,4.3-5.2,50.3-0.5,53.9
			c3.8,2.9,13.3,17.9,13.9-15"/>
		<path id="XMLID_184_" class="st2" d="M116.5,167.5c0,0,17.1-13.3,13.6,11.6c0,0,4.1,7.7,12,4.5s9.1-42.7-29-31.7"/>
	</g>
</g>
<path id="XMLID_179_" class="st2" d="M77.7,143.1c-21.8,6.9-10.3,33.1-10.3,33.1s13.9,16.4,31.8,3.3
	C116.9,166.5,99.4,136.2,77.7,143.1z M80.7,170.5c-11.9-1.6,4.8-23.8,10.2-9.7C96.4,175,80.7,170.5,80.7,170.5z"/>
<g id="XMLID_160_">
	<g id="XMLID_170_">
		<g id="XMLID_175_">
			<path id="XMLID_178_" class="st2" d="M120.3,43.2"/>
			<path id="XMLID_177_" class="st2" d="M134.5,42.3c-0.1-6.1-0.5-14.4,1.9-16.3c3.1-2.4,13.1-1.5,11.8,4.9
				c-0.8,3.7-0.9,7.9-0.8,10.8c0,2,0.1,3.7,0.1,4.2c0,1.6,0.7,4.9,6.2,5.6c7.3,0.8,8.3-1.5,8.3-6.7s6-30.1-15.2-34.5
				c-14.8-3.1-22.7,5.4-26.1,12.3"/>
			<path id="XMLID_176_" class="st2" d="M135.3,25.1"/>
		</g>
		<g id="XMLID_171_">
			<path id="XMLID_174_" class="st2" d="M93.1,43.2c0.8,4.4,14.3,1,14.3-0.9c-0.1-6.1-0.5-14.4,1.9-16.3c2.5-2,9.7-1.7,11.5,1.9
				c0.4,0.8,0.5,1.8,0.3,3c-0.8,3.7-0.9,7.9-0.8,10.8c0,2,0.1,3.7,0.1,4.2c0,1.6,0.7,4.9,6.2,5.6c7.3,0.8,8.3-1.5,8.3-6.7
				s6-30.1-15.2-34.5S91.5,25,91.5,29.5C91.6,32,92.1,38,93.1,43.2"/>
			<path id="XMLID_173_" class="st2" d="M108.1,25"/>
			<path id="XMLID_172_" class="st2" d="M108.1,25c0.4,8.5-0.1,18.4-1.1,22.1c0,0-4,7.2-10.2,3.9s-6.7-38-2.9-39.6s11.3-5,13.1,3"/>
		</g>
	</g>
	<g id="XMLID_166_">
		<path id="XMLID_169_" class="st2" d="M120.3,43.2"/>
		<path id="XMLID_168_" class="st2" d="M135.3,28.1c0.3-0.9,0.7-1.6,1.2-2c3.1-2.4,13.1-1.5,11.8,4.9c-0.8,3.7-0.9,7.9-0.8,10.8
			c0,2,0.1,3.7,0.1,4.2c0,1.6,0.7,4.9,6.2,5.6c7.3,0.8,8.3-1.5,8.3-6.7s6-30.1-15.2-34.5c-8.4-1.8-14.6,0.2-19,3.5"/>
		<path id="XMLID_167_" class="st2" d="M135.3,25.1"/>
	</g>
	<g id="XMLID_161_">
		<path id="XMLID_165_" class="st2" d="M130.2,15.9c-2.4-2.6-5.8-4.7-10.6-5.7"/>
		<path id="XMLID_164_" class="st2" d="M130.2,15.9"/>
		<path id="XMLID_163_" class="st2" d="M108.1,25"/>
		<path id="XMLID_162_" class="st2" d="M108.1,25c0.4,8.5-0.1,18.4-1.1,22.1c0,0-4,7.2-10.2,3.9s-6.7-38-2.9-39.6s11.3-5,13.1,3"/>
	</g>
</g>
<path id="XMLID_157_" class="st2" d="M162.5,10.4c-21.8,6.9-10.3,33.1-10.3,33.1s13.9,16.4,31.8,3.3
	C201.7,33.7,184.2,3.4,162.5,10.4z M165.5,37.8c-11.9-1.6,4.8-23.8,10.2-9.7C181.2,42.2,165.5,37.8,165.5,37.8z"/>
<g id="XMLID_154_">
	<path id="XMLID_156_" class="st2" d="M112.8,82.4c0,0-1.7-8.5-10.1-5.5c-8.4,3-4.2,35.2-0.4,37.7C106.2,117.1,117,132.4,112.8,82.4
		z"/>
	<path id="XMLID_155_" class="st2" d="M110.9,97.8c0,0,14.6-14.4,11.7,12.5c0,0,3.5,8.4,10.3,4.9s7.8-46.3-24.9-34.3"/>
</g>
<g id="XMLID_151_">
	<path id="XMLID_153_" class="st2" d="M143.2,58.5c0,0-14.1-13.5-14.5,11.9c-0.3,25.4-5.1,48.5,22.1,48.3c0,0,14.8-6.2,0-12.7
		c-7.2-3.2-8.7-9.8-8.5-18.1"/>
	<path id="XMLID_152_" class="st2" d="M139.8,87.5c0,0,10.5,2.9,9.2-8.2s-14-5.6-14-5.6"/>
</g>
<g id="XMLID_148_">
	<path id="XMLID_150_" class="st2" d="M50.1,109.9c0,0-1.9,8.7,6.1,8.7s17.5-32.3,15.3-36C69.3,78.9,66.5,60.6,50.1,109.9z"/>
	<path id="XMLID_149_" class="st2" d="M61.2,110c0,0,1.9,8.7-6.1,8.7s-17.5-32.3-15.3-36c2-3.4,4.4-18.9,17.2,15.5"/>
</g>
<g id="XMLID_144_">
	<path id="XMLID_147_" class="st2" d="M178,90.9c0,0,7.4-0.4,6.6-6.5c-0.6-4.9-21.2-13.8-29.7-3.1c-2.2,2.8-3.6,6.9-3.5,12.8v0.1
		c0.6,2,1.7,3.7,3,5.1c0.5,0.6,1.1,1,1.6,1.4c3.8,2.9,9.1,4.2,13.8,4.3c-0.7,2.7-3.8,4.1-13.9-0.8c0,0-7.4,0.4-6.6,6.5
		c0.6,4.9,21.3,13.8,29.7,3.1c2.2-2.8,3.6-6.9,3.5-12.8l0,0c-0.6-2-1.7-3.7-3-5.1c-0.5-0.6-1.1-1-1.6-1.4c-3.8-2.9-9.1-4.2-13.8-4.3
		C164.8,87.5,167.9,86,178,90.9z"/>
	<path id="XMLID_146_" class="st2" d="M168.7,98.5c0,0,7.1,15.2-12.8,5.5c0,0-7.4,0.4-6.6,6.5c0.8,6.2,33.4,18.8,33.2-9.7"/>
	<path id="XMLID_145_" class="st2" d="M165.2,96.4c0,0-7.1-15.2,12.8-5.5c0,0,7.4-0.4,6.6-6.5c-0.8-6.2-33.4-18.8-33.2,9.7"/>
</g>
<g id="XMLID_141_">
	<path id="XMLID_143_" class="st2" d="M91.4,82.2c0,0-3.8-2.6-5.4-0.6c-1.6,2.1-4.4,5.6-1.1,12.5c3.3,6.9,15.7,1.2,16.9-2"/>
	<path id="XMLID_142_" class="st2" d="M105.3,88.1L105.3,88.1C103,82,98,77.2,90.3,76.4c-15.3-1.5-21.6,8.4-24,14.4
		c0,0-0.5,0.9-0.9,2.7c-0.3,1.1-0.4,1.9-0.3,2.3c-0.2,3.3,0.3,8.2,3.4,14.7c2.5,5.3,8.9,7.2,13.2,7.9c1.2,0.3,2.5,0.4,3.9,0.4
		c0.1,0,0.1,0,0.1,0l0,0c1.5,0,3.1-0.2,4.8-0.6c6.7-1.5,11.3-5.8,13.9-11.1c-0.4-6.1-5.7-6.8-8.8-7.3c-1.7-0.3-3.5,0.8-4.8,1.9
		c-0.1,0.1-0.3,0.2-0.4,0.4c-4.5,3.3-16.4-3.2-10.1-8.1c0,0,2.1-2.2,4.6-3.3l0,0c0,0,2.1-1.1,3.7-0.5c0.7,0.2,1.2,0.7,1.6,1.6
		c0,0,0,0.1,0.1,0.1c0.2,0.4,0.4,0.9,0.7,1.3c2.1,3.3,6.6,7.7,10.9,4.7c4.9-3.5,4.3-4.9,4.5-6.3l0,0
		C106.6,90.3,105.3,88.1,105.3,88.1z"/>
</g>
<g id="XMLID_138_">
	<path id="XMLID_140_" class="st2" d="M29.6,82.2c0,0-3.8-2.6-5.4-0.6s-4.4,5.6-1.1,12.5c3.3,6.9,15.7,1.2,16.9-2"/>
	<path id="XMLID_139_" class="st2" d="M43.5,88.1L43.5,88.1c-2.3-6.1-7.3-10.9-15-11.7c-15.3-1.5-21.6,8.4-24,14.4
		c0,0-0.5,0.9-0.9,2.7c-0.3,1.1-0.4,1.9-0.3,2.3c-0.2,3.3,0.3,8.2,3.4,14.7c2.5,5.3,8.9,7.2,13.2,7.9c1.2,0.3,2.5,0.4,3.9,0.4
		c0.1,0,0.1,0,0.1,0l0,0c1.5,0,3.1-0.2,4.8-0.6c6.7-1.5,11.3-5.8,13.9-11.1c-0.4-6.1-5.7-6.8-8.8-7.3c-1.7-0.3-3.5,0.8-4.8,1.9
		c-0.1,0.1-0.3,0.2-0.4,0.4c-4.5,3.3-16.4-3.2-10.1-8.1c0,0,2.1-2.2,4.6-3.3l0,0c0,0,2.1-1.1,3.7-0.5c0.7,0.2,1.2,0.7,1.6,1.6
		c0,0,0,0.1,0.1,0.1c0.2,0.4,0.4,0.9,0.7,1.3c2.1,3.3,6.6,7.7,10.9,4.7c4.9-3.5,4.3-4.9,4.5-6.3l0,0C44.7,90.3,43.5,88.1,43.5,88.1z
		"/>
</g>
<path id="XMLID_135_" class="st2" d="M47.4,143.1c-21.8,6.9-10.3,33.1-10.3,33.1s13.9,16.4,31.8,3.3
	C86.6,166.5,69.1,136.2,47.4,143.1z M50.4,170.5c-11.9-1.6,4.8-23.8,10.2-9.7C66.1,175,50.4,170.5,50.4,170.5z"/>
<g id="XMLID_132_">
	<path id="XMLID_134_" class="st2" d="M36.7,145.6c15.6,15,2.1,31.2,2.1,31.2c-2.2,3.3-21.8,10-26.2,3.7l0,0
		c-4.4-6.4,0.2-10.1,2.9-12.2c2.1-1.7,5.9-0.7,7.5-0.2c0.5,0.1,0.7,0.3,0.7,0.3c3.2,1,6.5,0.3,6.3-3.8c0,0,0.3-3.1-0.5-5.6l0,0
		c0,0-0.5-2.2-2.1-3.1c-0.6-0.3-1.3-0.5-2.3-0.2c0,0-0.1,0-0.2,0c-0.4,0.1-0.9,0.2-1.5,0.3c-3.8,0.6-10.1-0.1-10.5-5.2
		c-0.5-6,0.9-6.4,1.8-7.5l0,0c0.9-1,3.4-1.6,3.4-1.6l0,0C24.3,139.6,31.1,140.3,36.7,145.6z"/>
	<path id="XMLID_133_" class="st2" d="M21.4,152.7c-0.1,6.3-0.5,13.8-1.1,22.7c0,0-2.2,12.7-13,8.3s-5.4-52.9-0.5-56.6
		c4-3,13.9-18.8,14.6,15.7"/>
</g>
<path id="XMLID_129_" class="st2" d="M76.3,10.4C54.5,17.3,66,43.5,66,43.5s13.9,16.4,31.8,3.3C115.6,33.7,98.1,3.4,76.3,10.4z
	 M79.4,37.8c-11.9-1.6,4.8-23.8,10.2-9.7C95,42.2,79.4,37.8,79.4,37.8z"/>
<g id="XMLID_126_">
	<path id="XMLID_128_" class="st2" d="M69.3,14.3c0,0-23.1-15.9-33,12.2S50.6,59,50,41.9s5.3-18.4,12-15.8
		C68.8,28.6,78.2,25.8,69.3,14.3z"/>
	<path id="XMLID_127_" class="st2" d="M49.7,15.9c0,0-1.5-10.5-10.9-5s0.5,14.7,0.5,14.7"/>
</g>
<path id="XMLID_125_" class="st2" d="M204.4,107.1c0,0,1.1,6.6,6.4,4.3c5.3-2.3,2.7-27.5,0.2-29.5C208.6,80,201.8,68,204.4,107.1z"
	/>
<path id="XMLID_124_" class="st2" d="M220.7,99.7c0,0,6.6-1.1,4.3-6.4s-27.5-2.7-29.5-0.2C193.6,95.5,181.6,102.4,220.7,99.7z"/>
<path id="XMLID_82_" class="st2" d="M35.8,15.4c-8.1-6-15.4-5.8-21-3.9c-0.6-0.5-1.2-0.9-1.9-1.2C2.3,5.1,0.9,22.1,1,32.7
	c0,0.7,0,1.4,0,2.2c0.1,3.3,0.3,5.6,0.3,5.6S6.6,75.8,13.4,73c2.6-1.1,5.4-9.6,7-20.1C39.1,53.3,52,27.3,35.8,15.4z M27.7,34.1
	c-1.5,3.8-3.8,5-6.1,4.6c-6.3-1-12.8-13.1-4.2-14.3c0,0,1.4-0.4,3.2-0.6C24.9,23.4,31.5,24.1,27.7,34.1z"/>
<path id="XMLID_77_" class="st2" d="M186.6,65.7c0,0,13,8.9,18.6-6.9s-8-18.3-7.7-8.7s-3,10.4-6.8,8.9S181.7,59.2,186.6,65.7z"/>
</svg>
