<?xml version="1.0" encoding="utf-8"?>
<!-- Generator: Adobe Illustrator 22.1.0, SVG Export Plug-In . SVG Version: 6.00 Build 0)  -->
<svg version="1.1" id="Layer_1" xmlns="http://www.w3.org/2000/svg" xmlns:xlink="http://www.w3.org/1999/xlink" x="0px" y="0px"
	 viewBox="0 0 316.1 108" style="enable-background:new 0 0 316.1 108;" xml:space="preserve">
<style type="text/css">
	.st0{opacity:0.1;fill:#221F1F;stroke:#221F1F;stroke-miterlimit:10;enable-background:new    ;}
	.st1{fill:#FCF4E9;stroke:#221F1F;stroke-miterlimit:10;}
</style>
<g id="Layer_5">
</g>
<g id="Layer_3">
</g>
<path id="XMLID_4286_" class="st0" d="M42.2,31.7C16.6,39.8,30,70.6,30,70.6s16.4,19.3,37.3,3.9C88.3,59.2,67.8,23.5,42.2,31.7z
	 M45.8,63.9c-14-1.9,5.6-28,12-11.4C64.2,69.2,45.8,63.9,45.8,63.9z"/>
<path id="XMLID_4446_" class="st0" d="M1.9,69.7c0,0,2.5,15,14.5,9.7s6.1-62.1,0.5-66.5S-4.1-18.6,1.9,69.7z"/>
<path id="XMLID_24_" class="st1" d="M47.2,26.7C21.6,34.8,35,65.6,35,65.6s16.4,19.3,37.3,3.9C93.3,54.2,72.8,18.5,47.2,26.7z
	 M50.8,58.9c-14-1.9,5.6-28,12-11.4C69.2,64.2,50.8,58.9,50.8,58.9z"/>
<path id="XMLID_8_" class="st1" d="M6.9,64.7c0,0,2.5,15,14.5,9.7s6.1-62.1,0.5-66.5S0.9-23.6,6.9,64.7z"/>
</svg>
