<?xml version="1.0" encoding="utf-8"?>
<!-- Generator: Adobe Illustrator 22.1.0, SVG Export Plug-In . SVG Version: 6.00 Build 0)  -->
<svg version="1.1" id="Layer_1" xmlns="http://www.w3.org/2000/svg" xmlns:xlink="http://www.w3.org/1999/xlink" x="0px" y="0px"
	 viewBox="0 0 316.1 108" style="enable-background:new 0 0 316.1 108;" xml:space="preserve">
<style type="text/css">
	.st0{opacity:0.1;fill:#221F1F;stroke:#221F1F;stroke-miterlimit:10;enable-background:new    ;}
	.st1{opacity:0.1;}
	.st2{fill:#221F1F;stroke:#221F1F;stroke-miterlimit:10;}
	.st3{fill:#FCF4E9;stroke:#221F1F;stroke-miterlimit:10;}
	.st4{fill:#082D30;stroke:#082D30;stroke-linecap:round;stroke-miterlimit:10;}
</style>
<g id="Layer_5">
</g>
<g id="Layer_3">
</g>
<path id="XMLID_4286_" class="st0" d="M42.2,31.7C16.6,39.8,30,70.6,30,70.6s16.4,19.3,37.3,3.9C88.3,59.2,67.8,23.5,42.2,31.7z
	 M45.8,63.9c-14-1.9,5.6-28,12-11.4C64.2,69.2,45.8,63.9,45.8,63.9z"/>
<g id="XMLID_4600_" class="st1">
	<g id="XMLID_4329_">
		<path id="XMLID_4335_" class="st2" d="M107.4,38.8"/>
		<path id="XMLID_4332_" class="st2" d="M120.8,35.7c-21.3-15.7-38,4-38,4S69.1,71,95.1,79.3C121.2,87.6,142.1,51.3,120.8,35.7z
			 M111.1,51.4c7.4,16.6-25.6,11.9-16.8,0.5C94.2,51.9,103.7,34.9,111.1,51.4z"/>
		<path id="XMLID_4331_" class="st2" d="M112.4,33.7"/>
	</g>
	<path id="XMLID_4330_" class="st2" d="M111.4,72.5c0,0,1.9,12.7,13.2,6S124,60.8,124,60.8"/>
</g>
<path id="XMLID_4446_" class="st0" d="M1.9,69.7c0,0,2.5,15,14.5,9.7s6.1-62.1,0.5-66.5S-4.1-18.6,1.9,69.7z"/>
<path id="XMLID_24_" class="st3" d="M47.2,26.7C21.6,34.8,35,65.6,35,65.6s16.4,19.3,37.3,3.9C93.3,54.2,72.8,18.5,47.2,26.7z
	 M50.8,58.9c-14-1.9,5.6-28,12-11.4C69.2,64.2,50.8,58.9,50.8,58.9z"/>
<g id="XMLID_16_">
	<g id="XMLID_18_">
		<path id="XMLID_23_" class="st4" d="M112.4,33.8"/>
		<path id="XMLID_20_" class="st3" d="M125.8,30.7c-21.3-15.7-38,4-38,4S74.1,66,100.1,74.3C126.2,82.6,147.1,46.3,125.8,30.7z
			 M116.1,46.4c7.4,16.6-25.6,11.9-16.8,0.5C99.2,46.9,108.7,29.9,116.1,46.4z"/>
		<path id="XMLID_19_" class="st3" d="M117.4,28.7"/>
	</g>
	<path id="XMLID_17_" class="st3" d="M116.4,67.5c0,0,1.9,12.7,13.2,6S129,55.8,129,55.8"/>
</g>
<path id="XMLID_8_" class="st3" d="M6.9,64.7c0,0,2.5,15,14.5,9.7s6.1-62.1,0.5-66.5S0.9-23.6,6.9,64.7z"/>
</svg>
