<?xml version="1.0" encoding="utf-8"?>
<!-- Generator: Adobe Illustrator 22.1.0, SVG Export Plug-In . SVG Version: 6.00 Build 0)  -->
<svg version="1.1" id="Layer_1" xmlns="http://www.w3.org/2000/svg" xmlns:xlink="http://www.w3.org/1999/xlink" x="0px" y="0px"
	 viewBox="0 0 672.9 216.8" style="enable-background:new 0 0 672.9 216.8;" xml:space="preserve">
<style type="text/css">
	.st0{fill:#EFE4DA;stroke:#5C5B4B;stroke-miterlimit:10;}
	.st1{fill:#FFF4EE;stroke:#5C5B4B;stroke-miterlimit:10;}
	.st2{fill:#F3FAFC;stroke:#5C5B4B;stroke-miterlimit:10;}
	.st3{fill:#FDF0F2;stroke:#5C5B4B;stroke-miterlimit:10;}
	.st4{fill:#FFFAF2;stroke:#5C5B4B;stroke-miterlimit:10;}
	.st5{fill:#F6F9F1;stroke:#5C5B4B;stroke-miterlimit:10;}
	.st6{fill:#F6F5FA;stroke:#5C5B4B;stroke-miterlimit:10;}
	.st7{fill:#FFF5EB;stroke:#5C5B4B;stroke-linecap:round;stroke-miterlimit:10;}
</style>
<g id="Layer_5">
</g>
<g id="Layer_3">
</g>
<g>
	<g>
		<path id="XMLID_324_" class="st0" d="M593.1,28c0,0,29.3,67.6-37.3,51.6S578.9-24.5,593.1,28z"/>
		<line id="XMLID_323_" class="st0" x1="540.4" y1="66.7" x2="542.4" y2="67.6"/>
		<path id="XMLID_322_" class="st0" d="M591,67.7c0,0-0.4,1.5-0.8,2"/>
		<path id="XMLID_321_" class="st0" d="M582.3,46c0,0,0.6-2.8,0-2.8"/>
		<path id="XMLID_320_" class="st0" d="M578.8,22.8c0,0,2.6,0.4,2.3,0.8"/>
		<path id="XMLID_319_" class="st0" d="M556.8,53.8c0,0-0.2,2.2,0.3,3.2"/>
		<line id="XMLID_318_" class="st0" x1="549.1" y1="33.3" x2="547.2" y2="34.4"/>
	</g>
	<g>
		<path id="XMLID_317_" class="st1" d="M582.1,17c0,0,29.3,67.6-37.3,51.6S567.9-35.5,582.1,17z"/>
		<g>
			<path class="st2" d="M540.5,24c1.3-0.1,12.5-1,11.6-8.2c-0.9-6.8-2.5-9.7-4.5-11.1c-5.6,3-11,7.6-15.2,12.9
				C533.9,22.9,539.5,24.1,540.5,24z"/>
			<path class="st2" d="M540.1,59.1c-1.1-8.6-3.2-12.1-5.8-13.6c0,0-8.2-3-13.7,1.6c0.8,7.6,5.6,14.4,16.1,18.8
				C538.9,64.5,540.5,62.3,540.1,59.1z"/>
			<path class="st2" d="M566.7,46.6c0,0-7.9-2.9-10,4.5c-2.2,7.4,4.5,8.9,5.4,8.9c0.9-0.1,8.6-0.7,8-5.6S568.1,47.4,566.7,46.6z"/>
			<path class="st2" d="M576.2,5.7c-1.9,1.3-3.5,3.5-4.5,6.8c-3.8,13,7.8,15.6,9.4,15.5c0.5,0,2.4-0.2,4.5-0.7
				c-1.7-6.1-3.5-10.3-3.5-10.3C580.8,12,578.7,8.3,576.2,5.7z"/>
		</g>
		<line id="XMLID_316_" class="st3" x1="529.4" y1="55.7" x2="531.4" y2="56.6"/>
		<path id="XMLID_315_" class="st3" d="M580,56.7c0,0-0.4,1.5-0.8,2"/>
		<path id="XMLID_314_" class="st3" d="M571.3,35c0,0,0.6-2.8,0-2.8"/>
		<path id="XMLID_313_" class="st3" d="M567.8,11.8c0,0,2.6,0.4,2.3,0.8"/>
		<path id="XMLID_312_" class="st3" d="M545.8,42.8c0,0-0.2,2.2,0.3,3.2"/>
		<line id="XMLID_311_" class="st3" x1="538.1" y1="22.3" x2="536.2" y2="23.4"/>
	</g>
	<g id="XMLID_306_">
		<path id="XMLID_310_" class="st0" d="M12.2,138c0,0-4.2,81.7,22.4,65S44,72.6,31.7,66.7S12.2,138,12.2,138z"/>
		<path id="XMLID_307_" class="st0" d="M40.4,162.4c1.8,0.7,3.8,1.4,5.8,2.1c56.6,17.4,102.1-58.7,55.7-91.5
			c-46.4-32.9-82.7,8.4-82.7,8.4s-16.7,37-1.2,62.8 M73.3,128.8C41,149.2,38.5,78.6,66,93.5C66,93.5,105.6,108.3,73.3,128.8z"/>
	</g>
	<g id="XMLID_299_">
		<path id="XMLID_305_" class="st0" d="M488.4,86.9"/>
		<path id="XMLID_302_" class="st0" d="M514.6,81.4c-41.9-30.8-74.7,7.9-74.7,7.9s-26.9,61.6,24.3,77.8
			C515.5,183.4,556.6,112.2,514.6,81.4z M495.5,125.4c-12.8,33.3-52.1-18.9-24.1-22.7C471.4,102.7,508.3,92.2,495.5,125.4z"/>
		<path id="XMLID_301_" class="st0" d="M498.5,76.8"/>
		<path id="XMLID_300_" class="st0" d="M498.5,74.7c0,0,33.2-31.7,34,27.9s11.9,114.1-52,113.7c0,0-34.8-14.5,0-29.8
			c17-7.5,20.4-23,20-42.5"/>
	</g>
	<g id="XMLID_296_">
		<path id="XMLID_298_" class="st0" d="M168.3,50c0,0-5.3-30-30.5-19.4s-12.8,124.3-1.1,133.1C148.3,172.4,180.9,226.5,168.3,50z"/>
		<path id="XMLID_297_" class="st0" d="M161.8,114.5c0,0,42-41.5,33.5,36c0,0,10,24,29.5,14s22.5-133-71.5-98.5"/>
	</g>
	<g id="XMLID_293_">
		<path id="XMLID_295_" class="st0" d="M375.5,86.7c0,0-4.1-20-23.7-13s-10,82.9-0.9,88.7S385.3,204.5,375.5,86.7z"/>
		<path id="XMLID_294_" class="st0" d="M371,123.1c0,0,34.4-34,27.4,29.5c0,0,8.2,19.6,24.1,11.5c16-8.2,18.4-108.9-58.5-80.6"/>
	</g>
	<path id="XMLID_292_" class="st0" d="M273.2,100.3c0,0-2-35-25.7-24.7s-10.4,109.5,49.8,95.2c60.2-14.3,35.9-92.2,35.9-92.2
		s-25-22.3-29.5,16.2c0,0-1.3,25.8-13.1,27.9C279,124.8,272,106.7,273.2,100.3z"/>
	<g id="XMLID_287_">
		<path id="XMLID_291_" class="st4" d="M1.2,127c0,0-4.2,81.7,22.4,65S33,61.6,20.7,55.7S1.2,127,1.2,127z"/>
		<path id="XMLID_288_" class="st4" d="M29.4,151.4c1.8,0.7,3.8,1.4,5.8,2.1C91.9,170.9,137.4,94.9,91,62
			C44.5,29.1,8.3,70.4,8.3,70.4s-16.7,37-1.2,62.8 M62.3,117.8C30,138.2,27.5,67.6,55,82.5C55,82.5,94.6,97.3,62.3,117.8z"/>
	</g>
	<g id="XMLID_270_">
		<path id="XMLID_286_" class="st2" d="M477.4,75.9"/>
		<path id="XMLID_283_" class="st2" d="M503.6,70.4c-41.9-30.8-74.7,7.9-74.7,7.9s-26.9,61.6,24.3,77.8
			C504.5,172.4,545.6,101.2,503.6,70.4z M484.5,114.4c-12.8,33.3-52.1-18.9-24.1-22.7C460.4,91.7,497.3,81.2,484.5,114.4z"/>
		<path id="XMLID_282_" class="st2" d="M487.5,65.8"/>
		<path id="XMLID_281_" class="st2" d="M487.5,63.7c0,0,33.2-31.7,34,27.9s11.9,114.1-52,113.7c0,0-34.8-14.5,0-29.8
			c17-7.5,20.4-23,20-42.5"/>
		<path id="XMLID_280_" class="st2" d="M480.8,86.3"/>
		<path id="XMLID_279_" class="st2" d="M488.7,78.3"/>
		<line id="XMLID_278_" class="st2" x1="472.2" y1="195.9" x2="475.3" y2="197.3"/>
		<path id="XMLID_277_" class="st2" d="M499.1,186.7c0,0,1.2,2.5-0.7,3.6"/>
		<path id="XMLID_276_" class="st2" d="M512.6,164.4c0,0-0.6,2.3-1.2,3.1"/>
		<path id="XMLID_275_" class="st2" d="M510.1,108.9c0,0,1-4.3,0-4.3"/>
		<path id="XMLID_274_" class="st2" d="M452.6,142c0,0,4,0.6,3.6,1.2"/>
		<path id="XMLID_273_" class="st2" d="M501.7,76.8c0,0,4.7-0.7,5-1.6"/>
		<path id="XMLID_272_" class="st2" d="M452.9,75c0,0-3.1,1.5-4,3"/>
		<line id="XMLID_271_" class="st2" x1="497.7" y1="122.2" x2="494.8" y2="124"/>
	</g>
	<g id="XMLID_267_">
		<path id="XMLID_269_" class="st1" d="M157.3,39c0,0-5.3-30-30.5-19.4s-12.8,124.3-1.1,133.1C137.3,161.4,169.9,215.5,157.3,39z"/>
		<path id="XMLID_268_" class="st1" d="M150.8,103.5c0,0,42-41.5,33.5,36c0,0,10,24,29.5,14s22.5-133-71.5-98.5"/>
	</g>
	<g id="XMLID_264_">
		<path id="XMLID_266_" class="st5" d="M364.5,75.7c0,0-4.1-20-23.7-13s-10,82.9-0.9,88.7S374.3,193.5,364.5,75.7z"/>
		<path id="XMLID_265_" class="st5" d="M360,112.1c0,0,34.4-34,27.4,29.5c0,0,8.2,19.6,24.1,11.5c16-8.2,18.4-108.9-58.5-80.6"/>
	</g>
	<path id="XMLID_263_" class="st6" d="M262.2,89.3c0,0-2-35-25.7-24.7s-10.4,109.5,49.8,95.2c60.2-14.3,35.9-92.2,35.9-92.2
		s-25-22.3-29.5,16.2c0,0-1.3,25.8-13.1,27.9C268,113.8,261,95.7,262.2,89.3z"/>
	<line id="XMLID_262_" class="st7" x1="347.4" y1="148.1" x2="350.5" y2="149.5"/>
	<path id="XMLID_261_" class="st7" d="M403.7,140c0,0,1.2,2.5-0.7,3.6"/>
	<path id="XMLID_260_" class="st7" d="M411,108.7c0,0-0.6,2.3-1.2,3.1"/>
	<path id="XMLID_259_" class="st7" d="M358.6,128.1c0,0,1-4.3,0-4.3"/>
	<path id="XMLID_258_" class="st7" d="M381.9,98.5c0,0,4,0.6,3.6,1.2"/>
	<path id="XMLID_257_" class="st7" d="M342.6,118.8c0,0,4.7-0.7,5-1.6"/>
	<path id="XMLID_256_" class="st7" d="M366.4,73.9c0,0-3.1,1.5-4,3"/>
	<line id="XMLID_255_" class="st7" x1="338.2" y1="79" x2="341.4" y2="78.1"/>
	<g>
		<g id="XMLID_252_">
			<g id="XMLID_253_">
				<path id="XMLID_254_" class="st0" d="M574.8,118.4c0,0,6.3-30.1-21.5-21.6c-27.8,8.5-11,74.5,3.7,71.7
					C571.8,165.7,578.5,155.2,574.8,118.4z"/>
			</g>
		</g>
		<g id="XMLID_249_">
			<g id="XMLID_250_">
				<path id="XMLID_251_" class="st3" d="M564.7,109.1c0,0,6.3-30.1-21.5-21.6s-11,74.5,3.7,71.7
					C561.6,156.4,568.4,145.9,564.7,109.1z"/>
			</g>
		</g>
		<g>
			<line id="XMLID_248_" class="st3" x1="541.4" y1="150.5" x2="545" y2="151.8"/>
			<path id="XMLID_247_" class="st3" d="M559,140.3c0,0,1.4,2.6-0.8,3.7"/>
			<path id="XMLID_246_" class="st3" d="M537.3,102.7c0,0-0.7,2.4-1.4,3.2"/>
			<path id="XMLID_245_" class="st3" d="M559.8,104.2c0,0,1.1-4.5,0-4.5"/>
			<path id="XMLID_244_" class="st3" d="M547.7,91.4c0,0,4.5,0.6,4.1,1.2"/>
		</g>
	</g>
	<path id="XMLID_243_" class="st7" d="M145.2,148.2c0,0,1.5,3.2-0.9,4.6"/>
	<path id="XMLID_242_" class="st7" d="M142.1,79.2c0,0,0.4,3,0,4.2"/>
	<path id="XMLID_241_" class="st7" d="M121.9,116.7c0,0,1.3-5.5,0-5.5"/>
	<path id="XMLID_240_" class="st7" d="M128.9,29c0,0-4,1.9-5.1,3.9"/>
	<path id="XMLID_239_" class="st7" d="M27.5,175.3c0,0,1.2,2.5-0.7,3.6"/>
	<path id="XMLID_238_" class="st7" d="M33.6,134.9c0,0,0.3,2.3,0,3.3"/>
	<path id="XMLID_237_" class="st7" d="M9.4,150.8c0,0,1-4.3,0-4.3"/>
	<path id="XMLID_236_" class="st7" d="M14.8,82.7c0,0-3.1,1.5-4,3"/>
	<line id="XMLID_235_" class="st7" x1="19.4" y1="124.4" x2="21.8" y2="127.6"/>
	<path id="XMLID_234_" class="st7" d="M86.1,120.9c0,0,1.4,3-0.8,4.3"/>
	<path id="XMLID_233_" class="st7" d="M97.5,82.2c0,0-0.7,2.7-1.4,3.7"/>
	<path id="XMLID_232_" class="st7" d="M33.8,86.5c0,0,1.2-5.1,0-5.1"/>
	<path id="XMLID_231_" class="st7" d="M59.9,71.3c0,0,4.8,0.7,4.3,1.4"/>
	<path id="XMLID_230_" class="st7" d="M54.7,139.1c0,0,5.6-0.8,6-1.9"/>
	<path id="XMLID_229_" class="st7" d="M25.6,64c0,0-3.7,1.8-4.8,3.6"/>
	<line id="XMLID_228_" class="st7" x1="81.2" y1="95" x2="85.2" y2="93.9"/>
	<path id="XMLID_227_" class="st7" d="M209,140.1c0,0,1.9,3.9-1.1,5.7"/>
	<path id="XMLID_226_" class="st7" d="M185.4,68.6c0,0,6.3,0.9,5.7,1.9"/>
	<path id="XMLID_225_" class="st7" d="M129.2,61c0,0-4.9,2.4-6.3,4.7"/>
	<g>
		<line id="XMLID_224_" class="st7" x1="308.2" y1="67.4" x2="304.6" y2="65.8"/>
		<path id="XMLID_223_" class="st7" d="M242.9,76.8c0,0-1.4-2.9,0.8-4.2"/>
		<path id="XMLID_222_" class="st7" d="M234.4,113.1c0,0,0.7-2.7,1.4-3.6"/>
		<path id="XMLID_221_" class="st7" d="M295.2,90.6c0,0-1.2,5,0,5"/>
		<path id="XMLID_220_" class="st7" d="M268.2,125c0,0-4.6-0.7-4.2-1.4"/>
		<path id="XMLID_219_" class="st7" d="M313.8,101.4c0,0-5.5,0.8-5.8,1.9"/>
		<path id="XMLID_218_" class="st7" d="M286.2,153.5c0,0,3.6-1.7,4.6-3.5"/>
		<line id="XMLID_195_" class="st7" x1="318.9" y1="147.6" x2="315.2" y2="148.6"/>
		<path class="st7" d="M296.6,110.8"/>
	</g>
	<g>
		<g>
			<path class="st0" d="M667,146.5c-1.3-2.3-3.5-4.1-7.2-5c-4.7-1-8.1,0.1-10.5,1.9c-1.2-0.8-2.7-1.6-4.6-1.9
				c-3.2-0.6-5.8-0.4-7.9,0.5c-1.6-1.9-4.7-0.5-6.4,0.2c-0.8,0.4-1.3,3.5-1.3,7.4c-0.8-1.7-1.9-2.8-3.2-3.4c0,0-0.2-0.1-0.5-0.1
				c-0.8-1.7-1.9-2.8-3.2-3.5c0,0-12.4-4.6-16.9,6.2c-0.8-1-1.8-1.9-2.9-2.7c-2.7-3.4-5.6-6.5-12.7-4c-7.8,2.7-6.4,12.6-6.1,13.3
				c0.1,0.5,1.9,6.4,6.2,8.9c2.3,3.4,6.3,6.7,12.5,3c3.2-1.8,4.6-3.4,5.1-4.6c0.6,0.5,1.1,1,1.7,1.2c2.4,4.4,7.8,5.5,8.7,5.3
				c1.3-0.1,10.7-0.8,13.2-5.9c0.2,0.5,0.6,0.8,1,1c0.7,0.4,1.3,0.5,1.8,0.5c0.5,1.6,1.1,2.8,1.8,3.2c3.5,1.8,5.7-2.2,5.7-2.2
				c0.5-1.8,0.7-6.5,0.7-10.9c0.1-0.4,0.4-0.7,0.6-1c0.6-0.5,1.7-0.7,2.9-0.7c-0.4,2.1-0.5,4.2-0.5,5.8c0,1.1,0,2.1,0,2.3
				c0,0.8,0.4,2.8,3.5,3.2h0.1c0,0.2,0,0.4,0,0.5c0,0.8,0.4,2.8,3.5,3.2c4.1,0.5,4.6-0.8,4.6-3.8c0-1.5,0.7-5.3,0.2-9.3
				c0.1-0.5,0.4-0.8,0.6-1.1c0.6-0.5,1.7-0.7,2.9-0.7c-0.4,2.1-0.5,4.2-0.5,5.8c0,1.1,0,2.1,0,2.3c0,0.8,0.4,2.8,3.5,3.2h0.1
				c0,0.2,0,0.4,0,0.5c0,0.8,0.4,2.8,3.5,3.2c4.1,0.5,4.6-0.8,4.6-3.8C671.9,161.9,674.5,150.8,667,146.5z M619.1,155.2
				c-0.2,0.6-1,1.2-2.7,1.7c0.1-0.8,0.7-2.5,2.9-2.5C619.2,154.7,619.1,155.2,619.1,155.2z M593.7,158c0-0.5,0-1,0.1-1.5
				c0.4-3.8,1.6-5.5,2.8-5.6c0.5,0,1.1,0,1.7,0.1c0.4,1,1.1,2.1,2.3,1.7c0.1,0,0.2-0.1,0.4-0.1c0.2,0.2,0.5,0.6,0.6,0.8
				c0,0,0.2,1.3,1,2.2c-1.1-0.7-2.4-1.1-2.9-1c-0.6,0.2-1.1,0.8-1.7,1.6c-0.1,0.2-0.2,0.4-0.5,0.6c-0.1,0.1-0.5,0.5-0.6,0.6
				c-0.8,0.4-1.9,0.7-3.2,0.7C593.7,158.2,593.7,158.1,593.7,158z M603.1,156.4c0.2,0.1,0.6,0.2,1,0.1l0,0c0.1,0.8,0.2,1.6,0.5,2.2
				c-0.2-0.1-0.6-0.1-0.8-0.2C603.9,157.6,603.6,157,603.1,156.4z"/>
		</g>
		<path id="XMLID_194_" class="st0" d="M582.7,166.5c-0.4,0.7-1.2,1.3-3.5,1.8c-2.3,0.5-2.9-3-2.9-3.5c0-0.4,0.4-3.5,3.9-2.8
			C583.6,162.7,582.7,166.5,582.7,166.5z"/>
		<path id="XMLID_193_" class="st4" d="M627.8,155.9c-1.1-8.6-3.2-12-5.7-13.5c0,0-13.6-5.1-17.3,7.8c-3.8,12.9,7.8,15.4,9.3,15.4
			C615.7,165.6,629,164.5,627.8,155.9z M619.1,155.2c-0.4,0.7-1.2,1.3-3.5,1.8c-2.3,0.5-2.9-3-2.9-3.5c0-0.4,0.4-3.5,3.9-2.8
			C620.2,151.4,619.1,155.2,619.1,155.2z"/>
		<g>
			<g id="XMLID_189_">
				<path id="XMLID_192_" class="st4" d="M644.9,159.9"/>
				<path id="XMLID_191_" class="st4" d="M652.9,159.5c0-3.4-0.2-8,1.1-9.1c1.7-1.3,7.4-0.8,6.5,2.7c-0.5,2.1-0.5,4.4-0.5,6.1
					c0,1.1,0,2.1,0,2.3c0,0.8,0.4,2.8,3.5,3.2c4.1,0.5,4.6-0.8,4.6-3.8c0-2.9,3.4-16.7-8.5-19.3c-8.2-1.7-12.7,3-14.5,6.9"/>
				<path id="XMLID_190_" class="st4" d="M653.4,149.9"/>
			</g>
			<g id="XMLID_185_">
				<path id="XMLID_188_" class="st4" d="M629.8,159.9c0.5,2.4,8,0.6,8-0.5c0-3.4-0.2-8,1.1-9.1c1.5-1.1,5.5-1,6.4,1.1
					c0.2,0.5,0.2,1,0.1,1.7c-0.5,2.1-0.5,4.4-0.5,6.1c0,1.1,0,2.1,0,2.3c0,0.8,0.4,2.8,3.5,3.2c4.1,0.5,4.6-0.8,4.6-3.8
					c0-2.9,3.4-16.7-8.5-19.3c-11.9-2.4-15.8,8.2-15.6,10.8C628.9,153.8,629.3,157,629.8,159.9"/>
				<path id="XMLID_187_" class="st4" d="M638.2,149.9"/>
				<path id="XMLID_186_" class="st4" d="M638.2,149.9c0.2,4.7,0,10.3-0.6,12.4c0,0-2.2,4-5.7,2.2c-3.5-1.8-3.8-21.2-1.6-22.1
					s6.3-2.8,7.3,1.7"/>
			</g>
		</g>
		<path id="XMLID_184_" class="st4" d="M599.6,154.8c-0.6,0.2-1.1,0.8-1.7,1.6c-0.1,0.2-0.2,0.4-0.5,0.6c-0.1,0.1-0.5,0.5-0.6,0.6
			c-1.7,0.8-5.1,1.8-6.5-1.7c-0.1-0.2-0.2-1.3-0.2-1.6c0-0.5,0-1,0.1-1.5c0.4-3.8,1.6-5.5,2.8-5.6c1.5-0.2,4.1,0.8,4.8,2.7
			c0,0,0.7,3.4,2.7,2.9s5.5-2.4,2.7-6.1s-5.6-7.5-13.5-4.8c-7.8,2.7-6.4,12.6-6.1,13.3c0.2,0.7,4.4,14.5,14.9,8.4
			C609.1,157.6,600.7,154.5,599.6,154.8z"/>
		<path id="XMLID_24_" class="st4" d="M581,164.8c-0.4,0.7-1.2,1.3-3.5,1.8c-2.3,0.5-2.9-3-2.9-3.5c0-0.4,0.4-3.5,3.9-2.8
			C582,161.1,581,164.8,581,164.8z"/>
	</g>
</g>
</svg>
