<?xml version="1.0" encoding="utf-8"?>
<!-- Generator: Adobe Illustrator 22.1.0, SVG Export Plug-In . SVG Version: 6.00 Build 0)  -->
<svg version="1.1" id="Layer_1" xmlns="http://www.w3.org/2000/svg" xmlns:xlink="http://www.w3.org/1999/xlink" x="0px" y="0px"
	 viewBox="0 0 157.9 152" style="enable-background:new 0 0 157.9 152;" xml:space="preserve">
<style type="text/css">
	.st0{fill:#FFFFFF;stroke:#584C4F;stroke-linecap:round;stroke-miterlimit:10;}
	.st1{fill:#FFD767;stroke:#584C4F;stroke-miterlimit:10;}
</style>
<g>
	<path class="st0" d="M14.6,87.9c-3.9-20.9,1-45.2,20.5-70.3c0,0,116.5-46.6,105.8,71c1.9,0.6,4.2,2,6.7,4.3
		C161.9-42,30.4,10.6,30.4,10.6C7.5,40.2,2.6,68.7,8.4,92.8c0.4-0.4,0.8-0.8,1.2-1.2C11.4,89.9,13.1,88.7,14.6,87.9z"/>
	<g>
		<path class="st1" d="M14.6,87.9c-1.5,0.9-3.1,2.1-4.9,3.7c-0.4,0.4-0.8,0.8-1.2,1.2c-19.7,20.3,2.4,54.1,11.7,56.8
			c5.2,1.5,7.5-9.2,8.6-19.1c0.4-3.6,0.6-7.2,0.7-10c0.2-3.5,0.2-5.9,0.2-5.9S31.2,78.3,14.6,87.9z"/>
		<path class="st1" d="M148.3,93.4c-0.2-0.2-0.5-0.4-0.7-0.6c-2.6-2.2-4.8-3.6-6.7-4.3c-14-4.6-12.6,27.8-12.6,27.8s0,5.5,0.5,12.1
			c0.3,3.6,0.7,7.6,1.4,11.2c1.4,7.1,3.7,12.8,7.5,11.7C147.2,148.6,170.1,113.5,148.3,93.4z"/>
	</g>
</g>
</svg>
