<?xml version="1.0" encoding="utf-8"?>
<!-- Generator: Adobe Illustrator 22.1.0, SVG Export Plug-In . SVG Version: 6.00 Build 0)  -->
<svg version="1.1" id="Layer_1" xmlns="http://www.w3.org/2000/svg" xmlns:xlink="http://www.w3.org/1999/xlink" x="0px" y="0px"
	 viewBox="0 0 53.7 44" style="enable-background:new 0 0 53.7 44;" xml:space="preserve">
<style type="text/css">
	.st0{opacity:0.1;fill:#36423E;stroke:#36423E;stroke-linecap:round;stroke-miterlimit:10;}
	.st1{fill:#FCF4E9;stroke:#221F1F;stroke-miterlimit:10;}
</style>
<path class="st0" d="M43.5,4.7c-1.5,0-4.8,0.1-5.9,0c-2.1-0.1-3.9-0.2-5.6-0.2c-1.1,0-2.1,0-3.1,0.1c-1-0.1-2.1-0.1-3.1-0.1
	c-1.7,0-3.6,0-5.6,0.2c-1,0.1-4.3,0.1-5.9,0c-2.7-0.1-6.8,0.4-8.1,3.7c-0.3,0.8-1.6,7.8-1.7,11.1c-0.1,7,1.2,15.3,1.3,15.5
	c0.8,3.7,2.8,6.4,7.8,7.7c2.3,0.6,4.8,0.9,7.5,0.8c1.4,0,4.7,0,7.8-0.1c3.1,0.1,6.5,0.1,7.9,0.1c2.7,0,5.3-0.2,7.5-0.8
	c4.9-1.3,7-4,7.8-7.7c0-0.2,1.3-8.5,1.3-15.5c0-3.3-1.4-10.3-1.7-11.1C50.3,5.1,46.2,4.6,43.5,4.7z"/>
<path class="st1" d="M47.6,4.4c-1.3-3.3-5.3-3.7-8.1-3.7c-1.5,0-4.8,0.1-5.9,0c-2.1-0.1-3.9-0.2-5.6-0.2c-1.1,0-2.1,0-3.1,0.1
	c-1-0.1-2.1-0.1-3.1-0.1c-1.7,0-3.6,0-5.6,0.2c-1,0.1-4.3,0.1-5.9,0C7.5,0.6,3.5,1.1,2.2,4.4c-0.3,0.8-1.6,7.8-1.7,11.1
	c-0.1,7,1.2,15.3,1.3,15.5c0.8,3.7,2.8,6.4,7.8,7.7c2.3,0.6,4.8,0.9,7.5,0.8c1.4,0,4.7,0,7.8-0.1c3.1,0.1,6.5,0.1,7.9,0.1
	c2.7,0,5.3-0.2,7.5-0.8c4.9-1.3,7-4,7.8-7.7c0-0.2,1.3-8.5,1.3-15.5C49.2,12.2,47.9,5.2,47.6,4.4z"/>
<path id="XMLID_2073_" class="st1" d="M22.6,29.5c-4.3,0-4.6-19.3-0.6-19.2c1,0,9.8,3.8,11.5,8c0.2,0.6,0.4,1.2,0.4,1.9
	c0,0.6-0.1,1.2-0.3,1.8C33.1,23.8,24,29.5,22.6,29.5z"/>
</svg>
