<?xml version="1.0" encoding="utf-8"?>
<!-- Generator: Adobe Illustrator 22.1.0, SVG Export Plug-In . SVG Version: 6.00 Build 0)  -->
<svg version="1.1" id="Layer_1" xmlns="http://www.w3.org/2000/svg" xmlns:xlink="http://www.w3.org/1999/xlink" x="0px" y="0px"
	 viewBox="0 0 337.3 180.1" style="enable-background:new 0 0 337.3 180.1;" xml:space="preserve">
<style type="text/css">
	.st0{fill:#FDF5EA;stroke:#5B5B4B;stroke-linecap:round;stroke-miterlimit:10;}
	.st1{opacity:0.25;fill:#FFFFFF;enable-background:new    ;}
</style>
<g id="Layer_5">
</g>
<g id="Layer_3">
</g>
<path id="XMLID_3717_" class="st0" d="M71.8,55.4c0.6,0.3,1.1,0.7,1.6,1c1.1-1.4,4.3-1.2,3.3,1.3c-0.1,0.2-0.1,0.3-0.2,0.4
	c0.5,0,1,0.2,1.6,0.7c2.1-5.1,12.9-4.1,12.9-4.1c1.5,0.6,2.7,1.3,3.5,2.1c0.7-1.1,2.1-1.7,4.6-0.2c1.1,0.7,1.6,1.4,1.7,2.2l0,0
	c0.2,0.1,0.3,0.1,0.4,0.2c0-0.8,0.5-1.7,1.9-2.6c6.9-4.7,9.4,1.8,9.6,2.4c1.9-0.4,3.9-0.1,5.4,1.3c0.9-1.2,1.7-1.7,2.5-1.7
	c-0.1-0.1-0.1-0.3-0.2-0.4c-1-2.5,2.2-2.7,3.3-1.3c0.5-0.4,1-0.7,1.6-1c6.2-3.2,8.9-0.6,10.1,3.1c0.3-0.3,0.6-0.6,1.1-0.9
	c2.5-1.5,3.9-0.9,4.6,0.2c0.8-0.8,2-1.5,3.5-2.1c0,0,11.1-1.1,13,4.3c1.2-0.5,2.6-0.6,3.9-0.3c0.2-0.7,2.7-7.1,9.6-2.4
	c1.4,0.9,1.9,1.8,1.9,2.6c0.1-0.1,0.3-0.1,0.4-0.2c2.5-1,2.7,2.2,1.3,3.3c0.4,0.5,0.7,1,1,1.6c6.7,12.7-11.8,10.9-11.8,10.9
	c-1.5-0.6-2.7-1.3-3.5-2.1c-0.7,1.1-2.1,1.7-4.6,0.2c-1.1-0.7-1.6-1.4-1.7-2.2l0,0c-0.2-0.1-0.3-0.1-0.4-0.2c0,0.8-0.5,1.7-1.9,2.6
	c-6.9,4.7-9.4-1.8-9.6-2.4c-2.5,0.6-5.2-0.1-6.6-3c-0.5,0.9-1,1.7-1.6,2.2c1.1,0.7,1.7,2.1,0.2,4.6c-1.3,2.2-3,2-4.2,0.8
	c-1.1,1.1-2.9,1.5-5.9,0.4c-3.6-1.3-4.4-4.2-3.8-7c-0.1,0-0.2-0.1-0.4-0.2c0.3,1,0,2.1-1.6,3.1c-2.5,1.5-3.9,0.9-4.6-0.2
	c-0.8,0.8-2,1.5-3.5,2.1c0,0-11.1,1.1-13-4.3c-1.2,0.5-2.6,0.6-3.9,0.3c-0.2,0.7-2.7,7.1-9.6,2.4c-1.4-0.9-1.9-1.8-1.9-2.6
	c-0.1,0.1-0.3,0.1-0.4,0.2c-2.5,1-2.7-2.2-1.3-3.3L80,67.1c-1.1,1.7-3,2.4-3.4,2.5c0.6,2.7-0.3,5.6-3.8,7c-3,1.1-4.8,0.7-5.9-0.4
	c-1.2,1.2-2.9,1.4-4.2-0.8c-1.5-2.5-0.9-3.9,0.2-4.6c-0.8-0.8-1.5-2-2.1-3.5C60.9,67.3,59.1,48.8,71.8,55.4z"/>
<path id="XMLID_3716_" class="st1" d="M88.5,39.8c0,0,19.3-1.6,8.9-16.8S72.1,35.7,88.5,39.8z"/>
<g>
	<path class="st0" d="M219,54.6c-3-3.5-4.8-3.1-5.8-2c-0.5-1.4-3.2-1.9-6.2-1.2c-1.8,0.4-1.9,2.1-1.7,3.5c-2.4-0.5-5.3-0.4-5.6,2.8
		c-0.4,4.5,3.5,3.2,5,2.5c0.2,0.2,0.5,0.5,0.9,0.6c1.9,0.6,10.3-0.3,12.1-1.8C219.7,59.2,222.8,59.1,219,54.6z"/>
	<path class="st0" d="M206,57.1c0,0-2.2-5,1-5.8s6.2,0,6.2,1.8"/>
	<path class="st0" d="M208.5,55.9c0,0-8.2-3.8-8.8,1.8s5.5,2.2,5.5,2.2"/>
	<path class="st0" d="M212,54.6c0,0,1.8-6.2,7,0s-2.8,4-2.8,4"/>
	<path class="st0" d="M205.1,57.8c0,0-1.8,2.2,0.5,3s13.8-0.8,12.2-2.7s-3.2-3-3.2-3"/>
</g>
<g>
	<path class="st0" d="M178.9,26.6c-4.1-0.8-4.8,1.7-4.7,3.5c-0.2,0-0.3,0-0.5,0c-3.5,0-2.5,4-2.5,4c2.1,2.3,5,0.8,5.9,0.2
		c2.3,0.9,4.8-0.2,4.8-0.2C183.4,34.1,185.2,27.9,178.9,26.6z"/>
	<g>
		<path class="st0" d="M174.4,31.9c0,0-1.8-6.5,4.5-5.2s4.5,7.5,3,7.5C181.9,34.1,176.9,36.4,174.4,31.9z"/>
		<path class="st0" d="M177.4,34.1c0,0-3.8,2.8-6.2,0c0,0-1-4,2.5-4c0.9,0,1.6,0.2,2.2,0.6"/>
	</g>
</g>
<g>
	<path id="XMLID_3715_" class="st0" d="M56.6,161.8c0,0,6.3-0.5,2.9-4.9C56.1,152.4,51.2,160.6,56.6,161.8z"/>
	<path id="XMLID_3714_" class="st0" d="M20.6,163c0,0,12.5-0.9,5.8-9.9C19.7,144.2,10,160.6,20.6,163z"/>
	<path id="XMLID_3713_" class="st0" d="M45.3,162.8c0,0,18.8-1.4,8.7-14.8C43.9,134.6,29.3,159.2,45.3,162.8z"/>
	<path id="XMLID_3712_" class="st0" d="M33.1,163.8c0,0,25.1-1.8,11.6-19.7S11.9,158.9,33.1,163.8z"/>
</g>
<g>
	<path id="XMLID_50652_" class="st0" d="M142.5,27.8c0,0,12.5-0.9,5.8-9.9S131.9,25.4,142.5,27.8z"/>
	<path id="XMLID_50651_" class="st0" d="M105.4,28.2c0,0,16.9-1.1,7.8-11.9S91,25.2,105.4,28.2z"/>
	<path id="XMLID_50650_" class="st0" d="M130.1,28.2c0,0,21.9-1.6,10.1-17.2C128.4-4.7,111.6,24,130.1,28.2z"/>
	<path id="XMLID_50649_" class="st0" d="M115.9,27.6c0,0,25.1-1.8,11.6-19.7S94.7,22.7,115.9,27.6z"/>
</g>
<path class="st0" d="M66.3,35.2c0.2-2-0.6-4.4-3-7.6c-2.9-3.8-6.1-4.6-8.9-3.6c-0.1-0.1-0.2-0.3-0.3-0.4
	c-8.5-11.3-19.4-2.4-20.8,6.9c-6.2-2.9-12.5,9.9-3.2,12.1c0,0,4.1-0.3,6.4-2.2c1.5,1.3,3.5,2.4,6.1,3c0,0,4.7-0.3,8.9-2.2
	c0.9,0.5,2,0.9,3.2,1.2c0,0,5.6-0.4,9-2.9c0.2,0.9,0.9,1.6,2.3,2c0,0,6.3-0.5,2.9-4.9C68,35.4,67.1,35.1,66.3,35.2z"/>
<path class="st0" d="M299.6,50.3c-1.8-2.3-3.7-2.9-5.4-2.5c-0.6-1.3-1.4-2.8-2.6-4.4c-4.2-5.6-9.1-5.5-12.7-3l-0.1-0.1
	c-8-10.6-18-3.4-20.5,5.2c-7.3,0.2-12.8,12.8-1.6,15.1c0,0,4-0.3,7.1-1.8c1,0.5,2.2,0.9,3.5,1.2c0,0,4.6-0.3,8.7-2.1
	c1.3,1.2,3.1,2.2,5.5,2.7c0,0,4.9-0.4,8.9-2.4c0.8,0.9,1.9,1.6,3.6,2C293.8,60.2,306.4,59.3,299.6,50.3z"/>
<g>
	<path class="st0" d="M63.7,39.5c0.9-0.7,1.7-1.5,2.1-2.5"/>
	<path class="st0" d="M33.2,34.4c0.3,2.2,1.3,4.3,3.2,6"/>
	<path class="st0" d="M51.4,41.2c4.1-1.8,7.8-4.9,6.3-10.5"/>
</g>
<g>
	<path class="st0" d="M294.2,47.8"/>
	<path class="st0" d="M290.9,57.9c1.6-0.9,2.9-2.1,3.6-3.8"/>
	<path class="st0" d="M290.3,58.2c0.2-0.1,0.4-0.2,0.6-0.3"/>
	<path class="st0" d="M258,51.9c0.6,2.8,2.4,5.3,5.7,6.9"/>
	<path class="st0" d="M275.9,57.9c3.7-1.6,7.1-4.2,6.8-8.7"/>
</g>
<path id="XMLID_9_" class="st0" d="M322.9,158.3c-0.6,1.5-1.3,2.7-2.1,3.5c1.1,0.7,1.7,2.1,0.2,4.6c-1.3,2.2-3,2-4.2,0.8
	c-1.1,1.1-2.9,1.5-5.9,0.4c-3.5-1.4-4.4-4.3-3.8-7c-0.4-0.1-2.3-0.8-3.4-2.5l-0.1,0.1c1.4,1.1,1.2,4.3-1.3,3.3
	c-0.1-0.1-0.3-0.1-0.4-0.2c0,0.8-0.5,1.7-1.9,2.6c-6.9,4.7-9.4-1.7-9.6-2.4c-1.3,0.3-2.7,0.2-3.9-0.3c-1.9,5.4-13,4.3-13,4.3
	c-1.5-0.6-2.7-1.3-3.5-2.1c-0.7,1.1-2.1,1.7-4.6,0.2c-1.6-1-1.9-2.1-1.6-3.1c-0.2,0.1-0.3,0.2-0.4,0.2c0.6,2.8-0.2,5.7-3.8,7
	c-3,1.1-4.8,0.7-5.9-0.4c-1.2,1.2-2.9,1.4-4.2-0.8c-1.5-2.5-0.9-3.9,0.2-4.6c-0.6-0.5-1.1-1.3-1.6-2.2c-1.4,2.9-4.1,3.6-6.6,3
	c-0.2,0.6-2.7,7.1-9.6,2.4c-1.4-0.9-1.9-1.8-1.9-2.6c-0.1,0.1-0.2,0.1-0.4,0.2l0,0c-0.1,0.8-0.6,1.5-1.7,2.2
	c-2.5,1.5-3.9,0.9-4.6-0.2c-0.8,0.8-2,1.5-3.5,2.1c0,0-18.5,1.8-11.8-10.9c0.3-0.6,0.6-1.1,1-1.6c-1.4-1.1-1.2-4.3,1.3-3.3
	c0.1,0.1,0.3,0.1,0.4,0.2c0-0.8,0.5-1.7,1.9-2.6c6.9-4.7,9.4,1.7,9.6,2.4c1.3-0.3,2.7-0.2,3.9,0.3c1.9-5.4,13-4.3,13-4.3
	c1.5,0.6,2.7,1.3,3.5,2.1c0.7-1.1,2.1-1.7,4.6-0.2c0.5,0.3,0.8,0.6,1.1,0.9c1.2-3.7,3.9-6.3,10.1-3.1c0.6,0.3,1.1,0.6,1.6,1
	c1.1-1.4,4.3-1.2,3.3,1.3c-0.1,0.1-0.1,0.3-0.2,0.4c0.8,0,1.6,0.5,2.5,1.7c1.5-1.4,3.5-1.7,5.4-1.3c0.2-0.6,2.7-7.1,9.6-2.4
	c1.4,0.9,1.9,1.8,1.9,2.6c0.1-0.1,0.2-0.1,0.4-0.2l0,0c0.1-0.8,0.6-1.5,1.7-2.2c2.5-1.5,3.9-0.9,4.6,0.2c0.8-0.8,2-1.5,3.5-2.1
	c0,0,10.8-1,12.9,4.1c0.6-0.5,1.1-0.7,1.6-0.7c-0.1-0.1-0.1-0.2-0.2-0.4c-1-2.5,2.2-2.7,3.3-1.3c0.5-0.3,1-0.7,1.6-1
	C324.6,139.8,322.8,158.3,322.9,158.3z"/>
<g>
	<path class="st0" d="M142.8,113.7c1.8,1.5,10.2,2.4,12.1,1.8c0.4-0.1,0.7-0.4,0.9-0.6c1.5,0.7,5.4,2,5-2.5
		c-0.3-3.2-3.2-3.3-5.6-2.8c0.2-1.4,0.1-3.1-1.7-3.5c-3-0.7-5.7-0.2-6.2,1.2c-1-1.1-2.8-1.5-5.8,2
		C137.7,113.8,140.8,113.9,142.8,113.7z"/>
	<path class="st0" d="M147.3,107.8c0-1.8,3-2.6,6.2-1.8c3.2,0.8,1,5.8,1,5.8"/>
	<path class="st0" d="M155.3,114.6c0,0,6.1,3.4,5.5-2.2s-8.8-1.8-8.8-1.8"/>
	<path class="st0" d="M144.3,113.3c0,0-8,2.2-2.8-4c5.2-6.2,7,0,7,0"/>
	<path class="st0" d="M145.9,109.8c0,0-1.6,1.1-3.2,3s9.9,3.5,12.2,2.7s0.5-3,0.5-3"/>
</g>
<g>
	<path class="st0" d="M166.4,154.5c0,0,2.5,1.1,4.8,0.2c0.9,0.6,3.8,2.1,5.9-0.2c0,0,1-4-2.5-4c-0.2,0-0.3,0-0.5,0
		c0.1-1.8-0.6-4.3-4.7-3.5C163.1,148.3,164.9,154.5,166.4,154.5z"/>
	<g>
		<path class="st0" d="M166.4,154.6c-1.5,0-3.3-6.2,3-7.5c6.3-1.3,4.5,5.2,4.5,5.2C171.4,156.8,166.4,154.5,166.4,154.6z"/>
		<path class="st0" d="M172.4,151.1c0.6-0.4,1.3-0.6,2.2-0.6c3.5,0,2.5,4,2.5,4c-2.4,2.8-6.2,0-6.2,0"/>
	</g>
</g>
<g>
	<path id="XMLID_8_" class="st0" d="M247,112.1c-3.4,4.4,2.9,4.9,2.9,4.9C255.3,115.8,250.4,107.6,247,112.1z"/>
	<path id="XMLID_7_" class="st0" d="M280.1,108.3c-6.7,9,5.8,9.9,5.8,9.9C296.5,115.8,286.8,99.4,280.1,108.3z"/>
	<path id="XMLID_6_" class="st0" d="M252.5,103.2c-10.1,13.4,8.7,14.8,8.7,14.8C277.2,114.4,262.6,89.8,252.5,103.2z"/>
	<path id="XMLID_5_" class="st0" d="M261.8,99.3c-13.5,17.9,11.6,19.7,11.6,19.7C294.6,114.1,275.3,81.4,261.8,99.3z"/>
</g>
<g>
	<path id="XMLID_4_" class="st0" d="M42.1,101.7c-6.7,9,5.8,9.9,5.8,9.9C58.5,109.2,48.8,92.7,42.1,101.7z"/>
	<path id="XMLID_3_" class="st0" d="M77.2,100.1C68.1,110.9,85,112,85,112C99.4,109,86.3,89.3,77.2,100.1z"/>
	<path id="XMLID_2_" class="st0" d="M50.2,94.8C38.4,110.4,60.3,112,60.3,112C78.8,107.8,62,79.1,50.2,94.8z"/>
	<path id="XMLID_1_" class="st0" d="M62.9,91.7c-13.5,17.9,11.6,19.7,11.6,19.7C95.7,106.5,76.4,73.8,62.9,91.7z"/>
</g>
<path class="st0" d="M81.1,144.5c-3.4,4.4,2.9,4.9,2.9,4.9c1.4-0.4,2.1-1.1,2.3-2c3.4,2.5,9,2.9,9,2.9c1.2-0.3,2.3-0.7,3.2-1.2
	c4.2,1.9,8.9,2.2,8.9,2.2c2.6-0.6,4.6-1.7,6.1-3c2.3,1.9,6.4,2.2,6.4,2.2c9.3-2.2,3-15-3.2-12.1c-1.4-9.3-12.3-18.2-20.8-6.9
	c-0.1,0.1-0.2,0.3-0.3,0.4c-2.8-1-6-0.2-8.9,3.6c-2.4,3.2-3.2,5.6-3,7.6C82.9,143,82,143.3,81.1,144.5z"/>
<path class="st0" d="M192.2,103.9c1.7-0.4,2.8-1.1,3.6-2c4,2,8.9,2.4,8.9,2.4c2.4-0.5,4.2-1.5,5.5-2.7c4.1,1.8,8.7,2.1,8.7,2.1
	c1.3-0.3,2.5-0.7,3.5-1.2c3.1,1.5,7.1,1.8,7.1,1.8c11.2-2.3,5.7-14.9-1.6-15.1c-2.5-8.6-12.5-15.8-20.5-5.2l-0.1,0.1
	c-3.6-2.5-8.5-2.6-12.7,3c-1.2,1.6-2,3.1-2.6,4.4c-1.7-0.4-3.6,0.2-5.4,2.5C179.8,103,192.4,103.9,192.2,103.9z"/>
<g>
	<path class="st0" d="M84.2,144.9c0.4,1,1.2,1.8,2.1,2.5"/>
	<path class="st0" d="M113.6,148.3c1.9-1.7,2.9-3.8,3.2-6"/>
	<path class="st0" d="M92.3,138.6c-1.5,5.6,2.2,8.7,6.3,10.5"/>
</g>
<g>
	<path class="st0" d="M192,91.5"/>
	<path class="st0" d="M191.7,97.8c0.7,1.7,2,2.9,3.6,3.8"/>
	<path class="st0" d="M195.3,101.6c0.2,0.1,0.4,0.2,0.6,0.3"/>
	<path class="st0" d="M222.5,102.5c3.3-1.6,5.1-4.1,5.7-6.9"/>
	<path class="st0" d="M203.5,92.9c-0.3,4.5,3.1,7.1,6.8,8.7"/>
</g>
<g>
	<path class="st0" d="M303.1,23.9c0,0,2.5,1.1,4.8,0.2c0.9,0.6,3.8,2.1,5.9-0.2c0,0,1-4-2.5-4c-0.2,0-0.3,0-0.5,0
		c0.1-1.8-0.6-4.3-4.7-3.5C299.8,17.7,301.6,23.9,303.1,23.9z"/>
	<g>
		<path class="st0" d="M303.1,24c-1.5,0-3.3-6.2,3-7.5c6.3-1.3,4.5,5.2,4.5,5.2C308.1,26.2,303.1,23.9,303.1,24z"/>
		<path class="st0" d="M309.1,20.5c0.6-0.4,1.3-0.6,2.2-0.6c3.5,0,2.5,4,2.5,4c-2.4,2.8-6.2,0-6.2,0"/>
	</g>
</g>
<g>
	<path class="st0" d="M30.9,117.6c-3-3.5-4.8-3.1-5.8-2c-0.5-1.4-3.2-1.9-6.2-1.2c-1.8,0.4-1.9,2.1-1.7,3.5
		c-2.4-0.5-5.3-0.4-5.6,2.8c-0.4,4.5,3.5,3.2,5,2.5c0.2,0.2,0.5,0.5,0.9,0.6c1.9,0.6,10.3-0.3,12.1-1.8
		C31.6,122.2,34.7,122.1,30.9,117.6z"/>
	<path class="st0" d="M17.9,120.1c0,0-2.2-5,1-5.8c3.2-0.8,6.2,0,6.2,1.8"/>
	<path class="st0" d="M20.4,118.9c0,0-8.2-3.8-8.8,1.8s5.5,2.2,5.5,2.2"/>
	<path class="st0" d="M23.9,117.6c0,0,1.8-6.2,7,0c5.2,6.2-2.8,4-2.8,4"/>
	<path class="st0" d="M17,120.8c0,0-1.8,2.2,0.5,3s13.8-0.8,12.2-2.7s-3.2-3-3.2-3"/>
</g>
</svg>
