<?xml version="1.0" encoding="utf-8"?>
<!-- Generator: Adobe Illustrator 22.1.0, SVG Export Plug-In . SVG Version: 6.00 Build 0)  -->
<svg version="1.1" id="Layer_1" xmlns="http://www.w3.org/2000/svg" xmlns:xlink="http://www.w3.org/1999/xlink" x="0px" y="0px"
	 viewBox="0 0 259.2 642.9" style="enable-background:new 0 0 259.2 642.9;" xml:space="preserve">
<style type="text/css">
	.st0{fill:#A36B78;stroke:#584C4F;stroke-width:2;stroke-linecap:round;stroke-miterlimit:10;}
	.st1{fill:#A36B78;stroke:#584C4F;stroke-width:2;stroke-linecap:round;stroke-linejoin:round;stroke-miterlimit:10;}
	.st2{fill:#FFD767;stroke:#584C4F;stroke-width:2;stroke-miterlimit:10;}
	.st3{fill:#A36B78;}
	.st4{fill:none;stroke:#584C4F;stroke-width:2;stroke-linecap:round;stroke-miterlimit:10;}
	.st5{fill:#BEAB72;}
	.st6{fill:#584C4F;stroke:#584C4F;stroke-width:2;stroke-linecap:round;stroke-miterlimit:10;}
	.st7{opacity:0.1;fill:#231F20;stroke:#231F20;stroke-miterlimit:10;enable-background:new    ;}
	.st8{fill:#FFFFFF;stroke:#584C4F;stroke-width:2;stroke-linecap:round;stroke-miterlimit:10;}
</style>
<g id="Layer_5">
</g>
<g id="Layer_3">
</g>
<g>
	<g>
		<path class="st0" d="M198.4,628.1c-0.1,1.2,0.2,2.4,1.3,3.4c0.2,0.3,0.6,0.6,0.9,0.8c1.2,0.9,3.1,1.5,5.4,2
			c1.9,0.3,3.9,0.6,6.2,0.8c1.5,0.1,3,0.3,4.6,0.3c1.2,0.2,2.5,0.2,3.7,0.2c1.3-0.1,2.5-0.2,3.7-0.2c1.7-0.1,3.2-0.2,4.6-0.3
			c2.4-0.1,4.4-0.5,6.2-0.8c2.3-0.5,4.2-1.2,5.4-2c0.3-0.3,0.7-0.6,0.9-0.8c0.8-0.7,1.2-1.6,1.3-2.5c-8.9-3.7-16.3-10-18.2-20.8
			c-1-1-1.7-1.6-1.7-1.6s-0.3-0.3-0.6-0.7c0-0.1-0.1-0.2-0.2-0.3l-0.1-0.2c-0.1-0.5-0.2-1.3-0.3-2.4h-0.8h-0.8l-15.3,1.3
			c-0.1,3.9-0.2,6.4-0.2,6.9c0,0.1,0,0.1,0,0.1s0.1,0,0.2,0c-0.8,3.4-1.9,6.2-2.9,8.5c-1,2.5-2,4.5-2.6,6.3
			C198.9,626.9,198.7,627.6,198.4,628.1z"/>
		<path class="st0" d="M205.1,609.1l16.9-1.5c0,0-1.7-53.4-1.5-91.8c0.1-5.6,0.2-10.9,0.3-15.7c-2.9-0.2-5.5-0.4-7.6-0.6
			c-0.7-0.6-3-1-7.4-1.1c-2.4-0.1-5.6-0.1-9.5,0l0,0c-4.4,0-9.3,0.1-14.5,0.2c-44.6,0.2-102.4-3.4-102.4-3.4l6.5,28.1
			c4.4-2.7,72.5-5.2,120.8-7.1C208.1,555.9,205.3,608.9,205.1,609.1z"/>
		<g>
			<g id="XMLID_11490_">
				<path id="XMLID_11491_" class="st0" d="M252.6,635.1c-2.2-4.9,3.8-4.3,3.8-4.3C261.4,634.2,254.7,639.9,252.6,635.1z"/>
			</g>
			<g id="XMLID_11488_">
				<path id="XMLID_11489_" class="st0" d="M248.6,634.9c-2.4-5.5,4.3-4.8,4.3-4.8C258.5,633.9,251,640.3,248.6,634.9z"/>
			</g>
			<g id="XMLID_11486_">
				<path id="XMLID_11487_" class="st0" d="M243.6,634.5c-2.8-6.3,5-5.5,5-5.5C255.2,633.4,246.5,640.8,243.6,634.5z"/>
			</g>
			<g id="XMLID_11484_">
				<path id="XMLID_11485_" class="st0" d="M237.5,634.1c-3.2-7.1,5.7-6.3,5.7-6.3C250.7,632.9,240.7,641.4,237.5,634.1z"/>
			</g>
			<path id="XMLID_11483_" class="st0" d="M224.1,633.8c0.7-2.9,9.4-10,14.3-3.1c4.9,6.9-5.7,6.2-5.7,6.2S223.4,636.8,224.1,633.8z"
				/>
		</g>
		<path id="XMLID_11482_" class="st0" d="M209.7,501.5c0-1.9,2.3-2,2.3-2"/>
		<path id="XMLID_11481_" class="st0" d="M218.4,514.6c-0.1,0.7-2.8,1.5-2.8,1.5"/>
		<g id="XMLID_11479_">
			<path id="XMLID_11480_" class="st0" d="M221.5,603c9,1.1,3.9,13.2-2.2,8.2"/>
		</g>
		<g id="XMLID_11477_">
			<path id="XMLID_11478_" class="st0" d="M218.9,503c8.6-2.5,8.8,10.6,1.2,8.5"/>
		</g>
	</g>
	<g>
		<g>
			<g id="XMLID_11894_">
				<path id="XMLID_11895_" class="st0" d="M121,429c8.6-2.5,8.8,10.6,1.2,8.5"/>
			</g>
			<path id="XMLID_11893_" class="st0" d="M110.9,305.7c-1.3,34-5.6,92.2-3.2,107.9c3.4,22,0,126.4,0,126.4l16.9,1.5
				c0,0-3.3-59.2-1.2-99.4c1.2-22.2,2.6-65,4.2-99.8"/>
			<g id="XMLID_11891_">
				<path id="XMLID_11892_" class="st0" d="M123,538.3c3.3-1.1,4.1,12.1,4.1,12.1s1.8,42.3-1.7,24.3c-3.5-18-5.2-16.1-3.6,5.4
					c1.6,21.6-7.5-22-8.8-15.1c-1.4,6.8-5.8,50.8-5.8-4.2c0,0,4.1-25.6-6.4,14.5c-10.5,40.2,2.3-25.1,3.1-28.5
					c0.8-3.4-12.9,19.5-9.1,10.1s5.9-11.8,12.8-19"/>
			</g>
			<path id="XMLID_11890_" class="st0" d="M114.1,430.7c0.2-0.6,3-1.2,3-1.2"/>
			<path id="XMLID_11889_" class="st0" d="M120.3,434.8c-0.6,1.8-2.8,1.4-2.8,1.4"/>
			<path id="XMLID_11888_" class="st1" d="M120.9,536.2c13.6-0.7,0-9.9,0-9.9"/>
		</g>
		<path id="XMLID_11887_" class="st2" d="M105.4,305.2c9.1,2.5,16.8,5.2,18.7,8.1c5.6,8.1,12.3,97.9-1.4,98.4s-15.6-0.1-15.3-5
			s-6-61.3-3.8-65.5"/>
		<path class="st0" d="M14.1,510.4c0,0,0.1,0,0.2,0c0.5,4.2,2,8.6,4.4,13.1c0,0,1.3,15.3,51.4,14.5c30.7-0.5,50.1-15.5,53.2-32.6
			l0,0c0.1-0.2,0.1-0.5,0.2-0.9c0.1-1,0.1-2.1,0.2-3.1c0.7-11.1,1.3-40.6,1.3-40.6l-111.1,4.1C12.1,473.8,14.1,510.4,14.1,510.4z"/>
		<g>
			<path class="st2" d="M23,491.8c2.3-0.5,5.2-1,8.4-1.5l77.2-4c4-0.1,9.4,1.2,9.4,1.2c4.3,2.3,7.1,1.4,8.7-1.4
				c0.1-0.1,0.1-0.2,0.2-0.3c4.2-8,0.2-29.4-2.9-37.9c-0.2-0.5-0.4-1.2-0.6-2c-3.7-15.6-3.7-74.4-2.3-110.6c0.1-3.9,0-7.3-0.1-10.4
				c-1.4-26.8-28.8-27.1-46.6-27.9c-18.8-0.8-32.5,3-39.2,8.6c-3.5,1-8.8,3-13,6.2c-3.1,2.3-5.6,5.3-6.4,9c-0.1,0.4-0.1,0.9-0.2,1.3
				c-1.5,13.2-4.5,93.7-5.9,101c-0.3,1.4-1,5.9-1.9,11.9c-0.1,0.7-0.2,1.4-0.3,2.2C4.2,462.1,0.7,508.3,23,491.8z"/>
			<path class="st2" d="M118,487.5c4.3,2.3,7,1.4,8.6-1.4c0.1-0.1,0.2-0.2,0.2-0.3c4.2-8,0.3-29.4-2.9-37.9c-0.2-0.5-0.4-1.2-0.6-2
				c-3.8-15.6-3.8-74.4-2.4-110.6c0-0.9,0.1-1.7,0.1-2.6"/>
			<path class="st2" d="M120.2,318.9c-5-20.9-29.5-21.2-45.8-21.9c-18.8-0.8-32.5,3-39.2,8.6c-3.5,1-8.8,3-13,6.2
				c-3.1,2.3-5.6,5.3-6.4,9c-0.1,0.4-0.1,0.9-0.2,1.3c-1.5,13.2-4.5,93.7-5.9,101c-0.3,1.4-1,5.9-1.9,11.9c-0.1,0.7-0.2,1.4-0.3,2.2
				c-3.3,24.8-6.7,71,15.6,54.5c2.3-0.5,5.2-1,8.4-1.5l77.1-4"/>
		</g>
		<path id="XMLID_11886_" class="st0" d="M17.7,486.9c3.6-13.7-5.1-107.3-5.1-107.3"/>
		<g>
			<path id="XMLID_11885_" class="st3" d="M55.8,304.7c9.6,21.2,33.7,8.3,33.8-8c0-2.9,0.1-14.1,0.2-17.5c0.1-2.6,0.5-17.7-3-25.5
				c-11.2-25-42.7-2.6-31.3,16.8c-0.6,2.1-1,4.6-1.2,7.6c-0.2,3.2-1.3,13.1-1.1,16.6"/>
			<path id="XMLID_11884_" class="st4" d="M57.6,307.9c-0.5-0.9-1.1-2-1.6-3.1l-2.8-10.1c-0.3-3.5,0.9-13.4,1.1-16.6
				c0.1-2.9,0.6-5.4,1.2-7.5c-11.4-19.4,20.1-41.8,31.3-16.8c3.5,7.8,3.1,22.9,3,25.5c0,3.4-0.1,14.6-0.1,17.5
				c0,13.7-17.3,25.1-28.4,15.5"/>
		</g>
		<g>
			<g id="XMLID_11882_">
				<path id="XMLID_11883_" class="st0" d="M18.5,437.8c-9-1.1-3.9-13.2,2.2-8.2"/>
			</g>
			<path id="XMLID_11881_" class="st0" d="M30.8,328.3c1.7,32.8,4.1,72.6,2.1,85.2c-3.4,22,0,126.4,0,126.4L16,541.4
				c0,0,3.2-59.2,1.1-99.4c-1-18.4-2.1-51-3.4-81.4"/>
			<path id="XMLID_11880_" class="st0" d="M21.4,431.8c0-1.9,2.3-2,2.3-2"/>
			<path id="XMLID_11879_" class="st0" d="M27.3,434.8c-0.2,0.6-2.9,1.5-2.9,1.5"/>
			<g id="XMLID_11866_">
				<path id="XMLID_11878_" class="st3" d="M32.8,539.2l-16.2-3.8c0,0-21.4,34.9-14.1,35.1c3.9,0.1,5.3-0.9,5.9-1.9
					c-0.5,3.3-0.8,9.4,4.8,6.5l0.1-1.5c1.3,2.2,5.5,8.4,8.9,2l1.1-0.5c2.5,2.1,7.7,5.3,6.9-5.5c1.5,0.1,3.5,0,6.4-0.8
					C51.4,565,32.8,539.1,32.8,539.2z"/>
				<path id="XMLID_11877_" class="st0" d="M16.6,535.3c0,0-21.4,34.9-14.1,35.1c3.9,0.1,5.3-0.9,5.9-1.9c-0.5,3.3-0.8,9.4,4.8,6.5
					l0.1-1.5c1.3,2.2,5.5,8.4,8.9,2l1.1-0.5c2.5,2.1,7.7,5.3,6.9-5.5c1.5,0.1,3.5,0,6.4-0.8c14.8-3.7-3.8-29.6-3.8-29.6"/>
				<g id="XMLID_11870_">
					<g id="XMLID_11872_">
						<path id="XMLID_11876_" class="st1" d="M13.1,575.1c-7.5,3.8-4.4-8.4-4.4-8.4c-0.1,0.3,1.1,4-6.2,3.8
							c-7.3-0.1,14.1-35.1,14.1-35.1"/>
						<path id="XMLID_11875_" class="st1" d="M22.5,575c-4.2,8.4-9.4-2.1-9.4-2.1"/>
						<path id="XMLID_11874_" class="st1" d="M33.4,562.5c-4.2-0.4-11.6,9.9,3.2,6.2s-3.8-29.6-3.8-29.6"/>
						<path id="XMLID_11873_" class="st1" d="M29.6,560.3l0.5,8c1.7,15.9-8.1,5.5-8.1,5.5"/>
					</g>
					<path id="XMLID_11871_" class="st1" d="M19.2,523.5c-10,0.7,0,10.9,0,10.9"/>
				</g>
				<path id="XMLID_11869_" class="st0" d="M22.5,567.3c0.8-2.6,0.4-7.5,0.4-7.5"/>
				<path id="XMLID_11868_" class="st0" d="M14.1,569.1c0.8,0,0.9-3.5,0.9-3.5"/>
				<path id="XMLID_11867_" class="st1" d="M10.5,558.6c0,0,2.9-4.8,3.6-7"/>
			</g>
		</g>
		<path id="XMLID_11865_" class="st2" d="M36.6,308.2c-9.1,2.5-16.8,5.2-18.7,8.1c-5.6,8.1-12.3,97.9,1.4,98.4s15.6-0.1,15.3-5
			s6-61.3,3.8-65.5"/>
		<g>
			<path class="st5" d="M43.4,345.4c0.3,6.9,4,7.2,12.1,6.1c8.1-1,3.7-16.3,2.8-21.1c-0.9-4.7-14.6,0.4-14.6,0.4
				S43.1,338.5,43.4,345.4z"/>
			<g>
				<path id="XMLID_11864_" class="st0" d="M43.5,334.1c-1-1.5,0.8-2.9,0.8-2.9"/>
				<path id="XMLID_11863_" class="st0" d="M59.9,332.9c-0.7-1.2-3.2-2.4-3.2-2.4"/>
				<path id="XMLID_11862_" class="st0" d="M43.6,338.2c-0.5,1.4,0.3,4,0.3,4"/>
				<path id="XMLID_11861_" class="st0" d="M53.5,351.5c1.3,0.2,3.9-0.8,3.9-0.8"/>
				<path id="XMLID_11860_" class="st0" d="M48.1,350.1c-1.7,0.7-2.6-1.4-2.6-1.4"/>
				<path id="XMLID_11856_" class="st0" d="M60.4,340.3c-0.5-0.6-0.9-2.5-0.9-2.5"/>
				<line id="XMLID_11855_" class="st4" x1="52.4" y1="329.9" x2="49.7" y2="330"/>
				<path id="XMLID_11854_" class="st0" d="M60.5,348.9c0.5-1.3-0.1-4-0.1-4"/>
			</g>
			<g>
				<path id="XMLID_11849_" class="st0" d="M90.9,514.6c1.2,1.7-0.4,4.6-0.4,4.6"/>
				<path id="XMLID_11848_" class="st0" d="M88.9,510.2c-0.3-1.4-2.2-3.4-2.2-3.4"/>
				<path id="XMLID_11847_" class="st0" d="M85.9,527.4c1.1-0.9,1.9-3.5,1.9-3.5"/>
			</g>
		</g>
		<g id="XMLID_11791_">
			<g id="XMLID_11843_">
				<path id="XMLID_11846_" class="st0" d="M110.5,235.7c0,0,0.2,5.5,6.6,7.9s11.4-17.1,10.9-35.2c-0.4-18.1-17.9,5.1-17.9,5.1"/>
				<path id="XMLID_11845_" class="st0" d="M124.5,209.1c-1.7-5-8.6,5.6-8.6,5.6"/>
				<path id="XMLID_11844_" class="st0" d="M115.1,228.5c1.7,6.5,5.4,2.6,6.8-3.2s-8.6-3.2-8.6-3.2"/>
			</g>
			<path id="XMLID_11842_" class="st6" d="M56,140.5c8.2-2.6,1.6-8.4,1.6-8.4C50.5,129.2,47.9,143.2,56,140.5z"/>
			<path id="XMLID_11841_" class="st0" d="M110.4,259.6c-3.3,16.5-19.5,38.2-49.1,31.9s-27.8-17.7-35-79.6s45.2-65.7,45.2-65.7
				C137.3,154.3,113.7,243.1,110.4,259.6z"/>
			<path class="st7" d="M26.4,211.9c7.3,62,5.3,73.3,34.9,79.6c20.9,4.5,35.1-5.1,42.8-16.9c-7.8,4.9-18,7.3-30.6,4.6
				C44,272.9,46,261.5,38.6,199.6c-2.4-20.5,1.7-34.5,8.3-44.3C34.4,163.9,22.6,180.3,26.4,211.9z"/>
			<path id="XMLID_11840_" class="st2" d="M28.8,178.6c0,0,18.5-8.8,38.1-16.7c15.5,3.9,32.4,5.3,32.4,4
				c-0.1-13.4-3.9-49.1-41.5-32.2c-8.8,2.7-18.3,8-24.2,17.2c-0.5,0.7-0.9,1.4-1.3,2.1l0,0c0,0-0.1,0-0.1,0.1
				c-1.8,3.3-2.7,5.8-2.9,7.9C27.5,167.1,28.8,178.6,28.8,178.6z"/>
			<path id="XMLID_11839_" class="st0" d="M55.5,219.9c12.1,4.3,21.4-2.7,21.4-2.7"/>
			<path id="XMLID_11838_" class="st0" d="M118.1,219.3c-3.2,1.4-18.3-1.8-18.3-1.8"/>
			<path id="XMLID_11837_" class="st0" d="M64.3,288.7c-2.6,4.8,5.9,8.2,18.8,5.7s6.7-8.3,6.7-8.3"/>
			<path id="XMLID_11836_" class="st2" d="M122.2,164c0,0,6.2-8.8-16.9-10.3c-23-1.4-68.6-1.3-76.2,24.7c0,0,12.2-5.5,35.8-10.6
				c23.6-5.2,43.7,3,43.7,3C118.8,168.3,122.2,164,122.2,164z"/>
			<path id="XMLID_11835_" class="st0" d="M29.1,178.4c0,0,9.1-23.6,64.2-21.1c55.1,2.4,15.3,13.5,15.3,13.5
				C80,156.5,29.1,178.4,29.1,178.4z"/>
			<g>
				<path id="XMLID_11834_" class="st0" d="M89.4,203.5c0.3,6.5-9.1,18.3-9.1,18.3"/>
				<g id="XMLID_11831_">
					<path id="XMLID_11833_" class="st0" d="M88.9,228.1c0.4,0.2,0.9,0.4,1.6,0.6c0.7,0.2,1.7,0.3,2.8,0.1c2-0.5,3-2.6,3.4-5.7"/>
					<path id="XMLID_11832_" class="st0" d="M95.7,218.5c-2-13.6-9.2-32.8-9.2-32.8"/>
				</g>
				<g id="XMLID_11825_">
					<path id="XMLID_11830_" class="st0" d="M95.9,235.1c11.1-2.3,4.2-10.4,4.2-10.4"/>
					<path id="XMLID_11829_" class="st0" d="M84,235.1c-10.5-4.2-3.1-10.4-3.1-10.4"/>
					<path id="XMLID_11828_" class="st0" d="M84.3,231.6c-1.5-0.5-2.9,0.1-1.7-1.8s2.7,0.3,3.8,0S85.9,232,84.3,231.6z"/>
					<path id="XMLID_11827_" class="st0" d="M95.7,230.8c1.2-0.7,2.4-1.2,2.8-0.9c1.1,0.9,0.6,2.6-1.5,2.7
						C97,232.6,94.9,231.3,95.7,230.8z"/>
					<path id="XMLID_11826_" class="st0" d="M86.8,221.2c0.5-0.8,2.7-0.7,2.7-0.7"/>
				</g>
				<path id="XMLID_11824_" class="st0" d="M112,233.4c-1.7-0.6-7.8-3.7-7.8-3.7"/>
				<path id="XMLID_11823_" class="st0" d="M68.7,231.4c0.7,0.1,7.8-3.3,7.8-3.3"/>
			</g>
			<path id="XMLID_11822_" class="st0" d="M46.9,200.7c-1.6-0.9-0.6-3-0.6-3"/>
			<path id="XMLID_11821_" class="st0" d="M52.8,221.2c-0.6-0.6-1-2.5-1-2.5"/>
			<path id="XMLID_11820_" class="st0" d="M51.2,178.7c-0.8,0,0,3.5,0,3.5"/>
			<path id="XMLID_11819_" class="st0" d="M99.4,171.3c-0.4-0.6,2.9-1,2.9-1"/>
			<path id="XMLID_11818_" class="st0" d="M78,175.2c0.2,0.7,4.1,1.3,4.1,1.3"/>
			<path id="XMLID_11817_" class="st0" d="M97.9,272c0.2-0.6,3-1.2,3-1.2"/>
			<path id="XMLID_11816_" class="st0" d="M80.8,274.4c-0.7-1.2-3.3-2.4-3.3-2.4"/>
			<path id="XMLID_11815_" class="st0" d="M103.5,210.4"/>
			<path id="XMLID_11814_" class="st0" d="M85.2,212.5"/>
			<line id="XMLID_11813_" class="st4" x1="56.3" y1="232.2" x2="59" y2="232.9"/>
			<path id="XMLID_11812_" class="st0" d="M35.1,242.3c0,0,0.3,5.3-5.9,8.3s-12.8-16.1-13.9-34.1c-1-18,18.4,3.6,18.4,3.6"/>
			<path id="XMLID_11811_" class="st0" d="M19.1,216.9c1.3-5.1,9,4.9,9,4.9"/>
			<path id="XMLID_11810_" class="st0" d="M30.1,235.4c-1.2,6.6-5.2,3-7.1-2.6c-1.9-5.7,8.3-3.9,8.3-3.9"/>
			<g>
				<path id="XMLID_11809_" class="st8" d="M93.2,204c-13-28.8,22.8-25.4,22.8-25.4C146,198.7,106.2,232.8,93.2,204z"/>
				<path id="XMLID_11808_" class="st6" d="M109.6,196.9c-0.5-5.5,4.8-3.4,4.8-3.4C118.1,198.3,110.2,202.4,109.6,196.9z"/>
				<path id="XMLID_11807_" class="st8" d="M69.8,216.3c32.6-10.6,6.4-33.7,6.4-33.7C47.7,170.9,37.2,226.9,69.8,216.3z"/>
				<path id="XMLID_11806_" class="st6" d="M53.2,200.1c-0.6-5.5,4.8-3.4,4.8-3.4C61.7,201.5,53.8,205.6,53.2,200.1z"/>
				<path id="XMLID_11805_" class="st6" d="M53.2,185.2c-0.9,3,15.6,11.2,24.3,2.7s-3.4-9.9-3.4-9.9
					C55.7,177.1,54.1,182.2,53.2,185.2z"/>
				<path id="XMLID_11804_" class="st6" d="M94.1,177.6c1.2,4.4,16.5,15,25.1,4.6c8.6-10.3-10-9.3-10-9.3S92.9,173.1,94.1,177.6z"/>
				<g id="XMLID_11801_">
					<path id="XMLID_11803_" class="st0" d="M59.6,217.2c0.7,0.3,1.3,0.3,2.1,0.4c6.4,0.4,16.9-5.2,16.9-5.2
						c-7.1-1.9-19.2-1.1-19.2-1.1l-5.6,0.4c0,0-5.1,0.7-2.9,3.1c1,1,1.9,0.9,2.8,0.7c0.3-0.1,0.5-0.1,0.7-0.2
						C55.5,215,59.1,216.9,59.6,217.2z"/>
					<path id="XMLID_11802_" class="st0" d="M117.9,209.5c0,0,5.1,0.8,2.9,3.2c-2.3,2.4-3.1,0.1-7.2,1.3
						c-12.6,3.8-16.4-4.6-16.4-4.6c7.8-2.5,14.9-1.1,14.9-1.1L117.9,209.5z"/>
				</g>
			</g>
			<g id="XMLID_11796_">
				<path id="XMLID_11800_" class="st6" d="M112.3,258.7c10.7-6.9-8.5-9.4-8.5-9.4S101.6,265.7,112.3,258.7z"/>
				<path id="XMLID_11799_" class="st6" d="M93.8,247.4c1.1,3.5,14.1,11.9,21.4,3.7c7.3-8.2-8.6-7.4-8.6-7.4S92.7,243.9,93.8,247.4z
					"/>
				<path id="XMLID_11798_" class="st6" d="M65.8,260.2c0.8,2.8,14.2,4.5,15.5-5.3c1.3-9.8-6.4-7.2-6.4-7.2
					C63.7,252.7,65,257.4,65.8,260.2z"/>
				<path id="XMLID_11797_" class="st6" d="M81.8,253.1c22.2-10.8-0.3-8-0.3-8C55.9,248.5,59.6,263.9,81.8,253.1z"/>
			</g>
			<g id="XMLID_11792_">
				<path id="XMLID_11795_" class="st0" d="M83.3,258.7c6.5,11.6,18.3,0,18.3,0"/>
				<path id="XMLID_11794_" class="st0" d="M93.3,256.9c2.4-3.5,5.6,0,5.6,0"/>
				<path id="XMLID_11793_" class="st0" d="M93.3,256.9c-2.5-3.5-5.7,0-5.7,0"/>
			</g>
		</g>
		<path id="XMLID_11790_" class="st0" d="M56.3,313c0.7,1.2,1.5,1.9,2.4,2.2"/>
		<path id="XMLID_11789_" class="st0" d="M89.4,310.4c0.8-1,1-2.1,1-2.1"/>
		<path id="XMLID_11788_" class="st0" d="M82.4,318.2c0.3-0.1,0.7-0.3,0.9-0.4"/>
		<path id="XMLID_11787_" class="st2" d="M111.9,353.3c-4.5,13.5-1.7,107.4-1.7,107.4"/>
	</g>
	<g>
		<path class="st0" d="M159.4,633.1c-0.1,1.2,0.2,2.4,1.3,3.4c0.2,0.3,0.6,0.6,0.9,0.8c1.2,0.9,3.1,1.5,5.4,2
			c1.9,0.3,3.9,0.6,6.2,0.8c1.5,0.1,3,0.3,4.6,0.3c1.2,0.2,2.5,0.2,3.7,0.2c1.3-0.1,2.5-0.2,3.7-0.2c1.7-0.1,3.2-0.2,4.6-0.3
			c2.4-0.1,4.4-0.5,6.2-0.8c2.3-0.5,4.2-1.2,5.4-2c0.3-0.3,0.7-0.6,0.9-0.8c0.8-0.7,1.2-1.6,1.3-2.5c-8.9-3.7-16.3-10-18.2-20.8
			c-1-1-1.7-1.6-1.7-1.6s-0.3-0.3-0.6-0.7c0-0.1-0.1-0.2-0.2-0.3l-0.1-0.2c-0.1-0.5-0.2-1.3-0.3-2.4h-0.8h-0.8l-15.3,1.3
			c-0.1,3.9-0.2,6.4-0.2,6.9c0,0.1,0,0.1,0,0.1s0.1,0,0.2,0c-0.8,3.4-1.9,6.2-2.9,8.5c-1,2.5-2,4.5-2.6,6.3
			C159.9,631.9,159.7,632.6,159.4,633.1z"/>
		<path class="st0" d="M166.1,614.1l16.9-1.5c0,0-1.7-53.4-1.5-91.8c0.1-5.6,0.2-10.9,0.3-15.7c-2.9-0.2-5.5-0.4-7.6-0.6
			c-0.7-0.6-3-1-7.4-1.1c-2.4-0.1-5.6-0.1-9.5,0l0,0c-4.4,0-9.3,0.1-14.5,0.2c-44.6,0.2-102.4-3.4-102.4-3.4l6.5,28.1
			c4.4-2.7,72.5-5.2,120.8-7.1C169.1,560.9,166.3,613.9,166.1,614.1z"/>
		<g>
			<g id="XMLID_11914_">
				<path id="XMLID_11915_" class="st0" d="M213.6,640.1c-2.2-4.9,3.8-4.3,3.8-4.3C222.4,639.2,215.7,644.9,213.6,640.1z"/>
			</g>
			<g id="XMLID_11907_">
				<path id="XMLID_11911_" class="st0" d="M209.6,639.9c-2.4-5.5,4.3-4.8,4.3-4.8C219.5,638.9,212,645.3,209.6,639.9z"/>
			</g>
			<g id="XMLID_11905_">
				<path id="XMLID_11906_" class="st0" d="M204.6,639.5c-2.8-6.3,5-5.5,5-5.5C216.2,638.4,207.5,645.8,204.6,639.5z"/>
			</g>
			<g id="XMLID_11903_">
				<path id="XMLID_11904_" class="st0" d="M198.5,639.1c-3.2-7.1,5.7-6.3,5.7-6.3C211.7,637.9,201.7,646.4,198.5,639.1z"/>
			</g>
			<path id="XMLID_11902_" class="st0" d="M185.1,638.8c0.7-2.9,9.4-10,14.3-3.1s-5.7,6.2-5.7,6.2S184.4,641.8,185.1,638.8z"/>
		</g>
		<path id="XMLID_11901_" class="st0" d="M170.7,506.5c0-1.9,2.3-2,2.3-2"/>
		<path id="XMLID_11900_" class="st0" d="M179.4,519.6c-0.1,0.7-2.8,1.5-2.8,1.5"/>
		<g id="XMLID_11898_">
			<path id="XMLID_11899_" class="st0" d="M182.5,608c9,1.1,3.9,13.2-2.2,8.2"/>
		</g>
		<g id="XMLID_11896_">
			<path id="XMLID_11897_" class="st0" d="M179.9,508c8.6-2.5,8.8,10.6,1.2,8.5"/>
		</g>
	</g>
</g>
</svg>
