<?xml version="1.0" encoding="utf-8"?>
<!-- Generator: Adobe Illustrator 22.1.0, SVG Export Plug-In . SVG Version: 6.00 Build 0)  -->
<svg version="1.1" id="Layer_1" xmlns="http://www.w3.org/2000/svg" xmlns:xlink="http://www.w3.org/1999/xlink" x="0px" y="0px"
	 viewBox="0 0 267.4 83.6" style="enable-background:new 0 0 267.4 83.6;" xml:space="preserve">
<style type="text/css">
	.st0{opacity:0.1;fill:#231F20;stroke:#231F20;stroke-miterlimit:10;enable-background:new    ;}
	.st1{fill:#FFD767;stroke:#584C4F;stroke-width:2;stroke-miterlimit:10;}
	.st2{fill:#FFFAF2;stroke:#584C4F;stroke-width:2;stroke-miterlimit:10;}
</style>
<path class="st0" d="M223.4,29.8c-0.2,0.1-0.4,0.2-0.7,0.3c-0.1,0.1-0.3,0.1-0.4,0.2c-0.3,0.2-0.6,0.4-0.9,0.6
	c-0.1,0.1-0.2,0.1-0.2,0.2c-0.2,0.2-0.5,0.4-0.7,0.6c-0.1,0.1-0.2,0.2-0.3,0.3c-0.2,0.2-0.3,0.3-0.5,0.5c-2.5-1.5-10.2-5.3-17.3-1.8
	c-1.3-1.7-3.6-2.8-7.7-0.4c-0.6,0.3-1,0.7-1.5,1c-1.9-1.2-4.1-2-6.7-2.3c-12.7-1.3-18.1,6.8-20.2,11.9c-2.6-6.7-8.4-11.8-19.3-9
	c-1.1-1.9-3.3-4-7.7-2.5c-1.1,0.4-2,1.5-2.6,3c0-0.3,0-0.6-0.1-0.9c-0.5-4.1-2.8-5.6-5.3-5.9l0.3-11.7c0,0-12-11.4-12.2,10
	c0,2.4-0.1,4.8-0.2,7.1c-3.6-1.5-9.2-3-14.5-0.4c-1.3-1.7-3.6-2.8-7.7-0.4c-1.6,0.9-2.5,2-3,3.1c-0.3-0.2-0.6-0.5-0.9-0.7
	c-15.3-11.3-27.3,2.9-27.3,2.9s-0.2,0.4-0.4,1.1c-0.8-1-1.7-1.8-2.8-2.7c-6.9-5-13-4.9-17.7-3.3c-0.5-0.4-1-0.8-1.6-1
	c-9-4.4-10.2,10-10.1,18.9c0,0.6,0,1.2,0,1.8c0.1,2.8,0.3,4.7,0.3,4.7s4.3,29.9,10.1,27.5c2.2-0.9,4.6-8.2,5.9-17
	c6.6,0.1,12.4-3.6,15.9-8.8c1.7,3,4.6,5.6,9.4,7.1c4.8,1.5,9.4,0.9,13.3-1c1.3,1.7,3.7,2.9,7.9,0.5c0.1-0.1,0.3-0.2,0.4-0.3
	c4.1,3.6,10.5,1.3,10.2-6.8c-0.4-14.4,4.6-15.5,10.3-13.3c0.7,0.3,1.5,0.5,2.3,0.6c0.4,12.4,3.5,21.4,19.1,21.3c0,0,1.6-0.7,3-1.7
	c3.4,2.8,8.2,5.2,7.4-17.8c3.5-2.3,9.3-4,7.5,12.4c0,0,2.9,7.1,8.7,4.1c1.2-0.6,2.1-2.5,2.7-5.2c0.2,0.4,0.3,0.8,0.5,1.2
	c2.1,4.5,7.6,6.1,11.1,6.7c1,0.2,2.1,0.3,3.3,0.3c0.1,0,0.1,0,0.1,0l0,0c1.3,0,2.6-0.2,4-0.5c2.3-0.5,4.3-1.5,6.1-2.7
	c3.9,5.6,11.8,3.7,11.5-5.3c-0.5-14.4,4.5-15.6,10.1-13.4c0.6,0.2,1.2,0.4,1.8,0.5c0,0.1,0,0.3,0,0.4l0,0l0,0l0,0
	c0.5,1.7,1.4,3.1,2.5,4.3c0.4,0.5,0.9,0.9,1.3,1.2c3.2,2.5,7.7,3.5,11.7,3.6l0,0c0,0.1-0.1,0.2-0.1,0.3v0.1c0,0.1-0.1,0.2-0.1,0.3
	c0,0,0,0.1-0.1,0.1c0,0.1-0.1,0.1-0.2,0.2L231,54c-0.1,0.1-0.1,0.1-0.2,0.2l-0.1,0.1c-0.1,0.1-0.2,0.1-0.2,0.2l-0.1,0.1
	c-0.1,0-0.2,0.1-0.3,0.1s-0.1,0.1-0.2,0.1c-0.1,0-0.2,0.1-0.3,0.1s-0.1,0-0.2,0c-0.1,0-0.2,0-0.4,0c-0.1,0-0.2,0-0.3,0s-0.3,0-0.4,0
	c-0.1,0-0.2,0-0.3,0c-0.2,0-0.3,0-0.5-0.1c-0.1,0-0.2,0-0.3,0c-0.2,0-0.4-0.1-0.5-0.1s-0.3,0-0.4-0.1c-0.2,0-0.4-0.1-0.6-0.2
	c-0.1,0-0.3-0.1-0.4-0.1c-0.2-0.1-0.5-0.1-0.7-0.2c-0.2-0.1-0.3-0.1-0.5-0.2c-0.3-0.1-0.5-0.2-0.8-0.3c-0.2-0.1-0.3-0.1-0.5-0.2
	c-0.3-0.1-0.7-0.3-1-0.4c-0.1-0.1-0.2-0.1-0.4-0.2c-0.5-0.2-1-0.5-1.5-0.7c0,0-5.5,0.3-5.6,4.6c0,0.3,0,0.6,0,0.9l0,0
	c0,0.1,0.1,0.3,0.1,0.5c0,0,0,0.1,0.1,0.1c0.1,0.1,0.1,0.2,0.2,0.3c0,0.1,0.1,0.1,0.1,0.2c0.1,0.1,0.2,0.2,0.3,0.4l0.1,0.1
	c0.2,0.2,0.3,0.3,0.5,0.5c0,0,0.1,0,0.1,0.1c0.2,0.1,0.3,0.3,0.5,0.4c0.1,0.1,0.2,0.1,0.2,0.2c0.2,0.1,0.3,0.2,0.5,0.3
	c0.1,0.1,0.2,0.1,0.3,0.2c0.2,0.1,0.4,0.2,0.6,0.3c0.1,0.1,0.2,0.1,0.3,0.2c0.3,0.2,0.6,0.3,0.9,0.5c0.1,0,0.2,0.1,0.3,0.1
	c0.2,0.1,0.4,0.2,0.7,0.3c0.1,0.1,0.3,0.1,0.4,0.2c0.2,0.1,0.4,0.2,0.6,0.3c0.1,0.1,0.3,0.1,0.4,0.2c0.2,0.1,0.4,0.2,0.7,0.2
	c0.1,0,0.3,0.1,0.4,0.1c0.3,0.1,0.7,0.2,1,0.3c0.1,0,0.3,0.1,0.4,0.1c0.2,0.1,0.5,0.1,0.7,0.2c0.2,0,0.3,0.1,0.5,0.1
	s0.4,0.1,0.6,0.1c0.2,0,0.4,0.1,0.5,0.1c0.2,0,0.5,0.1,0.7,0.1s0.3,0,0.5,0.1c0.4,0,0.7,0.1,1.1,0.1c0.2,0,0.4,0,0.5,0
	c0.2,0,0.4,0,0.6,0c0.2,0,0.4,0,0.6,0c0.2,0,0.4,0,0.6,0c0.2,0,0.4,0,0.6,0c0.2,0,0.4-0.1,0.7-0.1c0.2,0,0.5-0.1,0.7-0.1
	c0.3-0.1,0.5-0.1,0.8-0.2c0.2,0,0.3-0.1,0.5-0.2s0.4-0.1,0.6-0.2c0.2-0.1,0.3-0.1,0.5-0.2c0.2-0.1,0.4-0.2,0.6-0.3
	c0.2-0.1,0.3-0.2,0.5-0.2c0.2-0.1,0.4-0.3,0.7-0.4c0.2-0.1,0.4-0.2,0.6-0.4c0.2-0.2,0.4-0.3,0.6-0.5c0.1-0.1,0.3-0.2,0.4-0.4
	c0.2-0.2,0.3-0.3,0.5-0.5c0.1-0.1,0.2-0.3,0.4-0.4c0.1-0.1,0.1-0.1,0.2-0.2c0.1-0.1,0.2-0.2,0.3-0.4s0.2-0.3,0.3-0.5
	c0.2-0.2,0.3-0.5,0.4-0.8c0.1-0.2,0.2-0.3,0.3-0.5c0.2-0.4,0.3-0.7,0.5-1.1c0.1-0.2,0.1-0.4,0.2-0.5c0.1-0.3,0.2-0.6,0.3-0.9
	c0.1-0.2,0.1-0.4,0.2-0.6c0.1-0.3,0.1-0.7,0.2-1c0-0.2,0.1-0.4,0.1-0.7c0.1-0.4,0.1-0.8,0.1-1.2c0-0.2,0-0.4,0.1-0.6
	c0-0.6,0.1-1.3,0.1-2l0,0l0,0l0,0l0,0c-0.5-1.7-1.4-3.1-2.6-4.3c-0.4-0.5-0.9-0.9-1.3-1.2c-3.2-2.5-7.7-3.5-11.6-3.6l0,0
	c0-0.1,0-0.2,0.1-0.2c0-0.1,0-0.1,0.1-0.2c0-0.1,0.1-0.1,0.1-0.2c0-0.1,0.1-0.1,0.1-0.2c0-0.1,0.1-0.1,0.1-0.2
	c0-0.1,0.1-0.1,0.1-0.2l0.1-0.1c0.1-0.1,0.1-0.1,0.2-0.2l0.1-0.1c0.1-0.1,0.2-0.1,0.3-0.2c0,0,0.1,0,0.1-0.1c0.1,0,0.2-0.1,0.3-0.1
	h0.1c0.1,0,0.3-0.1,0.4-0.1h0.1c0.2,0,0.4,0,0.6,0l0,0c1.8,0,4.6,0.7,8.8,2.7c0,0,5.5-0.3,5.6-4.6c0-0.3,0-0.6,0-0.9
	c0-0.2-0.1-0.3-0.1-0.5c0,0,0-0.1-0.1-0.1c-0.1-0.1-0.1-0.2-0.2-0.4l-0.1-0.1c-0.1-0.1-0.2-0.3-0.3-0.4c0,0,0-0.1-0.1-0.1
	c-0.3-0.3-0.7-0.7-1.2-1.1l-0.1-0.1c-0.2-0.1-0.4-0.3-0.6-0.4c-0.1,0-0.1-0.1-0.2-0.1c-0.2-0.2-0.5-0.3-0.8-0.5c0,0,0,0-0.1,0
	c-0.6-0.3-1.2-0.7-1.9-1c-0.1,0-0.1-0.1-0.2-0.1c-0.3-0.1-0.6-0.2-0.9-0.4c-0.1,0-0.1-0.1-0.2-0.1c-0.3-0.1-0.7-0.3-1-0.4
	c0,0,0,0-0.1,0c-0.4-0.1-0.8-0.2-1.2-0.4h-0.1c-0.3-0.1-0.7-0.2-1-0.3c-0.1,0-0.2,0-0.3-0.1c-0.3-0.1-0.6-0.1-0.9-0.2
	c-0.1,0-0.2,0-0.3-0.1c-0.4-0.1-0.7-0.1-1.1-0.1h-0.1c-0.4,0-0.8-0.1-1.2-0.1c-0.1,0-0.2,0-0.3,0c-0.3,0-0.6,0-0.9,0
	c-0.1,0-0.3,0-0.4,0c-0.3,0-0.5,0-0.8,0c-0.1,0-0.3,0-0.4,0c-0.3,0-0.7,0.1-1,0.1c-0.1,0-0.1,0-0.2,0c-0.4,0.1-0.7,0.2-1.1,0.3
	c-0.1,0-0.3,0.1-0.4,0.1c-0.2,0.1-0.5,0.2-0.7,0.2C223.6,29.7,223.5,29.8,223.4,29.8z M55.8,49.7c-1.2,3.2-3.2,4.2-5.1,3.9
	c-5.4-0.8-10.9-11.1-3.6-12.1c0,0,1.2-0.3,2.7-0.5C53.4,40.6,59,41.3,55.8,49.7z M74.2,44.2c0,0,6.8-12.3,12.1-0.3
	C91.6,55.8,68,52.4,74.2,44.2z M131,38.7L131,38.7c1.5-0.1,3.4-0.4,4.6-1.8c-0.6,4.8-0.3,11.1,0.6,16.1
	C131.8,50,130.9,44.9,131,38.7z M191.1,48.7c0,0-0.1,0-0.2,0c-1.4-0.2-2.9,0.7-4.1,1.6c-0.1,0.1-0.2,0.2-0.3,0.3
	c-3.8,2.8-13.9-2.7-8.6-6.9c0,0,1.4-1.4,3.1-2.4c0.2,0.8,0.5,1.6,0.9,2.5c1.4,2.9,4.6,3.2,7.7,2.4c0.5,0.5,1.1,0.8,1.7,1.1
	C191.2,47.9,191.2,48.3,191.1,48.7z"/>
<g id="XMLID_1767_">
	<path id="XMLID_1769_" class="st1" d="M182.4,28.8c0,0-3.2-2.2-4.6-0.5s-3.7,4.7-0.9,10.5s13.3,1,14.3-1.7"/>
	<path id="XMLID_1768_" class="st1" d="M194.2,33.8L194.2,33.8c-2-5.2-6.2-9.2-12.7-9.9c-12.9-1.3-18.3,7.1-20.3,12.2
		c0,0-0.5,0.8-0.8,2.3c-0.3,0.9-0.3,1.6-0.3,2c-0.2,2.8,0.3,6.9,2.9,12.4c2.1,4.5,7.6,6.1,11.1,6.7c1,0.2,2.1,0.3,3.3,0.3
		c0.1,0,0.1,0,0.1,0l0,0c1.3,0,2.6-0.2,4-0.5c5.7-1.3,9.6-4.9,11.8-9.4c-0.4-5.2-4.8-5.8-7.5-6.2c-1.4-0.2-2.9,0.7-4.1,1.6
		c-0.1,0.1-0.2,0.2-0.3,0.3c-3.8,2.8-13.9-2.7-8.6-6.9c0,0,1.8-1.9,3.9-2.8l0,0c0,0,1.8-0.9,3.2-0.4c0.6,0.2,1.1,0.6,1.4,1.4
		c0,0,0,0.1,0.1,0.1c0.2,0.3,0.4,0.7,0.6,1.1c1.7,2.8,5.6,6.5,9.2,4c4.2-3,3.7-4.1,3.8-5.3l0,0C195.3,35.7,194.2,33.8,194.2,33.8z"
		/>
</g>
<g id="XMLID_1683_">
	<path id="XMLID_1685_" class="st1" d="M143,29c0,0-1.5-7.2-8.5-4.7s-3.6,29.8-0.3,31.9C137.5,58.3,146.5,71.3,143,29z"/>
	<path id="XMLID_1684_" class="st1" d="M141.3,42.1c0,0,12.4-12.2,9.9,10.6c0,0,2.9,7.1,8.7,4.1s6.6-39.2-21.1-29"/>
</g>
<g id="XMLID_1677_">
	<path id="XMLID_1679_" class="st1" d="M126.8,8.8c0,0-12-11.4-12.2,10s-4.3,41,18.7,40.9c0,0,12.5-5.2,0-10.7
		c-6.1-2.7-7.3-8.3-7.2-15.3"/>
	<path id="XMLID_1678_" class="st1" d="M123.9,33.4c0,0,8.9,2.5,7.8-7c-1.1-9.4-11.9-4.8-11.9-4.8"/>
</g>
<g id="XMLID_1673_">
	<path id="XMLID_1676_" class="st1" d="M233.6,36.2c0,0,6.2-0.3,5.6-5.5c-0.5-4.1-18-11.7-25.1-2.7c-1.9,2.4-3,5.8-3,10.8l0,0
		c0.5,1.7,1.4,3.1,2.5,4.3c0.4,0.5,0.9,0.9,1.3,1.2c3.2,2.5,7.7,3.5,11.7,3.6c-0.6,2.2-3.2,3.5-11.8-0.7c0,0-6.2,0.3-5.6,5.5
		c0.5,4.1,18,11.7,25.1,2.6c1.9-2.4,3-5.8,3-10.8l0,0c-0.5-1.7-1.4-3.1-2.6-4.3c-0.4-0.5-0.9-0.9-1.3-1.2c-3.2-2.5-7.7-3.5-11.6-3.6
		C222.5,33.3,225.1,32.1,233.6,36.2z"/>
	<path id="XMLID_1675_" class="st1" d="M225.8,42.7c0,0,6,12.9-10.9,4.7c0,0-6.2,0.3-5.6,5.5s28.3,15.9,28.1-8.2"/>
	<path id="XMLID_1674_" class="st1" d="M222.8,40.9c0,0-6-12.9,10.9-4.7c0,0,6.2-0.3,5.6-5.5c-0.7-5.2-28.3-15.9-28.1,8.2"/>
</g>
<g id="XMLID_26900_">
	<path id="XMLID_27817_" class="st1" d="M215.5,27.9c0,0-19.5-13.4-27.9,10.3s12.1,27.5,11.6,13c-0.5-14.4,4.5-15.6,10.1-13.4
		C215,40.1,223,37.7,215.5,27.9z"/>
	<path id="XMLID_27815_" class="st1" d="M198.9,29.3c0,0-1.3-8.9-9.3-4.2c-7.9,4.7,0.4,12.4,0.4,12.4"/>
</g>
<path id="XMLID_1770_" class="st1" d="M57.7,28.9c-6.9-5-13-4.9-17.7-3.3c-0.5-0.4-1-0.8-1.6-1c-9-4.4-10.2,10-10.1,18.9
	c0,0.6,0,1.2,0,1.8c0.1,2.8,0.3,4.7,0.3,4.7s4.3,29.9,10.1,27.5c2.2-0.9,4.6-8.2,5.9-17C60.5,60.9,71.4,38.9,57.7,28.9z M50.8,44.7
	c-1.2,3.2-3.2,4.2-5.1,3.9c-5.4-0.8-10.9-11.1-3.6-12.1c0,0,1.2-0.3,2.7-0.5C48.4,35.6,54,36.3,50.8,44.7z"/>
<g id="XMLID_1686_">
	<g id="XMLID_1688_">
		<path id="XMLID_1766_" class="st1" d="M78.7,29.7"/>
		<path id="XMLID_1690_" class="st1" d="M88.3,27.5C73,16.2,61,30.4,61,30.4s-9.8,22.5,8.9,28.5S103.7,38.8,88.3,27.5z M81.3,38.9
			c5.3,11.9-18.4,8.6-12.1,0.3C69.2,39.2,76,26.9,81.3,38.9z"/>
		<path id="XMLID_1689_" class="st1" d="M82.3,26.1"/>
	</g>
	<path id="XMLID_1687_" class="st1" d="M81.6,54c0,0,1.3,9.1,9.5,4.3s-0.4-12.8-0.4-12.8"/>
</g>
<g id="XMLID_1680_">
	<path id="XMLID_1682_" class="st1" d="M118,27.9c0,0-19.5-13.4-27.9,10.3s12.1,27.5,11.6,13c-0.5-14.4,4.5-15.5,10.2-13.3
		C117.6,40.1,125.5,37.7,118,27.9z"/>
	<path id="XMLID_1681_" class="st1" d="M101.5,29.3c0,0-1.3-8.9-9.3-4.2s0.4,12.4,0.4,12.4"/>
</g>
<g id="XMLID_57_">
	<path id="XMLID_59_" class="st2" d="M177.4,23.8c0,0-3.2-2.2-4.6-0.5s-3.7,4.7-0.9,10.5s13.3,1,14.3-1.7"/>
	<path id="XMLID_58_" class="st2" d="M189.2,28.8L189.2,28.8c-2-5.2-6.2-9.2-12.7-9.9c-12.9-1.3-18.3,7.1-20.3,12.2
		c0,0-0.5,0.8-0.8,2.3c-0.3,0.9-0.3,1.6-0.3,2c-0.2,2.8,0.3,6.9,2.9,12.4c2.1,4.5,7.6,6.1,11.1,6.7c1,0.2,2.1,0.3,3.3,0.3
		c0.1,0,0.1,0,0.1,0l0,0c1.3,0,2.6-0.2,4-0.5c5.7-1.3,9.6-4.9,11.8-9.4c-0.4-5.2-4.8-5.8-7.5-6.2c-1.4-0.2-2.9,0.7-4.1,1.6
		c-0.1,0.1-0.2,0.2-0.3,0.3c-3.8,2.8-13.9-2.7-8.6-6.9c0,0,1.8-1.9,3.9-2.8l0,0c0,0,1.8-0.9,3.2-0.4c0.6,0.2,1.1,0.6,1.4,1.4
		c0,0,0,0.1,0.1,0.1c0.2,0.3,0.4,0.7,0.6,1.1c1.7,2.8,5.6,6.5,9.2,4c4.2-3,3.7-4.1,3.8-5.3l0,0C190.3,30.7,189.2,28.8,189.2,28.8z"
		/>
</g>
<g id="XMLID_54_">
	<path id="XMLID_56_" class="st2" d="M138,24c0,0-1.5-7.2-8.5-4.7s-3.6,29.8-0.3,31.9C132.5,53.3,141.5,66.3,138,24z"/>
	<path id="XMLID_55_" class="st2" d="M136.3,37.1c0,0,12.4-12.2,9.9,10.6c0,0,2.9,7.1,8.7,4.1c5.7-2.9,6.6-39.2-21.1-29"/>
</g>
<g id="XMLID_51_">
	<path id="XMLID_53_" class="st2" d="M121.8,3.8c0,0-12-11.4-12.2,10s-4.3,41,18.7,40.9c0,0,12.5-5.2,0-10.7
		c-6.1-2.7-7.3-8.3-7.2-15.3"/>
	<path id="XMLID_52_" class="st2" d="M118.9,28.4c0,0,8.9,2.5,7.8-7c-1.1-9.4-11.9-4.8-11.9-4.8"/>
</g>
<g id="XMLID_47_">
	<path id="XMLID_50_" class="st2" d="M228.6,31.2c0,0,6.2-0.3,5.6-5.5c-0.5-4.1-18-11.7-25.1-2.7c-1.9,2.4-3,5.8-3,10.8l0,0
		c0.5,1.7,1.4,3.1,2.5,4.3c0.4,0.5,0.9,0.9,1.3,1.2c3.2,2.5,7.7,3.5,11.7,3.6c-0.6,2.2-3.2,3.5-11.8-0.7c0,0-6.2,0.3-5.6,5.5
		c0.5,4.1,18,11.7,25.1,2.6c1.9-2.4,3-5.8,3-10.8l0,0c-0.5-1.7-1.4-3.1-2.6-4.3c-0.4-0.5-0.9-0.9-1.3-1.2c-3.2-2.5-7.7-3.5-11.6-3.6
		C217.5,28.3,220.1,27.1,228.6,31.2z"/>
	<path id="XMLID_49_" class="st2" d="M220.8,37.7c0,0,6,12.9-10.9,4.7c0,0-6.2,0.3-5.6,5.5s28.3,15.9,28.1-8.2"/>
	<path id="XMLID_48_" class="st2" d="M217.8,35.9c0,0-6-12.9,10.9-4.7c0,0,6.2-0.3,5.6-5.5c-0.7-5.2-28.3-15.9-28.1,8.2"/>
</g>
<g id="XMLID_44_">
	<path id="XMLID_46_" class="st2" d="M210.5,22.9c0,0-19.5-13.4-27.9,10.3s12.1,27.5,11.6,13c-0.5-14.4,4.5-15.6,10.1-13.4
		C210,35.1,218,32.7,210.5,22.9z"/>
	<path id="XMLID_45_" class="st2" d="M193.9,24.3c0,0-1.3-8.9-9.3-4.2c-7.9,4.7,0.4,12.4,0.4,12.4"/>
</g>
<path id="XMLID_12_" class="st2" d="M52.7,23.9c-6.9-5-13-4.9-17.7-3.3c-0.5-0.4-1-0.8-1.6-1c-9-4.4-10.2,10-10.1,18.9
	c0,0.6,0,1.2,0,1.8c0.1,2.8,0.3,4.7,0.3,4.7s4.3,29.9,10.1,27.5c2.2-0.9,4.6-8.2,5.9-17C55.5,55.9,66.4,33.9,52.7,23.9z M45.8,39.7
	c-1.2,3.2-3.2,4.2-5.1,3.9c-5.4-0.8-10.9-11.1-3.6-12.1c0,0,1.2-0.3,2.7-0.5C43.4,30.6,49,31.3,45.8,39.7z"/>
<g id="XMLID_4_">
	<g id="XMLID_6_">
		<path id="XMLID_11_" class="st2" d="M73.7,24.7"/>
		<path id="XMLID_8_" class="st2" d="M83.3,22.5C68,11.2,56,25.4,56,25.4s-9.8,22.5,8.9,28.5S98.7,33.8,83.3,22.5z M76.3,33.9
			c5.3,11.9-18.4,8.6-12.1,0.3C64.2,34.2,71,21.9,76.3,33.9z"/>
		<path id="XMLID_7_" class="st2" d="M77.3,21.1"/>
	</g>
	<path id="XMLID_5_" class="st2" d="M76.6,49c0,0,1.3,9.1,9.5,4.3s-0.4-12.8-0.4-12.8"/>
</g>
<g id="XMLID_1_">
	<path id="XMLID_3_" class="st2" d="M113,22.9c0,0-19.5-13.4-27.9,10.3s12.1,27.5,11.6,13c-0.5-14.4,4.5-15.5,10.2-13.3
		C112.6,35.1,120.5,32.7,113,22.9z"/>
	<path id="XMLID_2_" class="st2" d="M96.5,24.3c0,0-1.3-8.9-9.3-4.2s0.4,12.4,0.4,12.4"/>
</g>
</svg>
