<?xml version="1.0" encoding="utf-8"?>
<!-- Generator: Adobe Illustrator 23.0.3, SVG Export Plug-In . SVG Version: 6.00 Build 0)  -->
<svg version="1.1" id="Layer_1" xmlns="http://www.w3.org/2000/svg" xmlns:xlink="http://www.w3.org/1999/xlink" x="0px" y="0px"
	 viewBox="0 0 42.8 43" style="enable-background:new 0 0 42.8 43;" xml:space="preserve">
<style type="text/css">
	.st0{fill:#FFFFFF;}
	.st1{fill:#2C2C2C;}
</style>
<g>
	<path class="st0" d="M40.3,33.6c0-0.3-0.1-0.5-0.1-0.8c-0.1-0.3-0.3-23.5-0.3-24.2c0-0.1,0-0.1,0-0.2c0-0.2,0-0.4,0-0.6
		c0,0,0,0,0,0c0.1-0.2,0.1-0.3,0.1-0.5c0,0,0,0,0,0c0-0.2,0-0.3-0.1-0.5c0-0.1,0-0.2-0.1-0.3c0-0.1-0.1-0.2-0.1-0.3
		c-0.1-0.2-0.2-0.4-0.3-0.6c-0.1-0.2-0.3-0.5-0.5-0.7C38.6,4.6,38.4,4.3,38,4c-0.3-0.3-0.6-0.5-0.9-0.7c-0.3-0.2-0.7-0.4-1-0.5
		c-0.2-0.1-0.5-0.2-0.8-0.2c-0.4-0.1-0.8-0.1-1.2-0.1c-0.7-0.1-1.4-0.1-2.1,0c-0.6,0-1.2,0.1-1.8,0.2c-0.9-0.1-1.7-0.1-2.6-0.2
		c-0.5,0-1,0-1.5-0.1c-0.7,0-1.4-0.1-2.1-0.1c-0.1,0-0.2,0-0.3,0C22.3,2.1,20.9,2,19.4,2c-2.8-0.1-5.7,0.1-8.4,0.5
		c-0.1,0-0.2,0.1-0.3,0.2c0,0,0,0,0,0c-0.6-0.1-1.1-0.1-1.7,0C8.2,2.7,7.5,3,6.9,3.3C6.2,3.6,5.5,4,5,4.5C4.7,4.7,4.4,4.9,4.1,5.2
		C3.8,5.5,3.6,5.8,3.3,6.1C3,6.6,2.7,7.2,2.6,7.8c-0.1,0.5-0.2,1-0.1,1.6c0,0.3,0.6,18.9,0.6,19.2c-0.1,1.1-0.2,5-0.2,5.7
		c0,0.1,0,0.1,0,0.2c0,0.2,0,0.4,0,0.6c0,0,0,0,0,0c-0.1,0.2-0.1,0.3-0.1,0.5c0,0,0,0,0,0c0,0.2,0,0.3,0.1,0.5c0,0.1,0,0.2,0.1,0.3
		c0,0.1,0.1,0.2,0.1,0.3c0.1,0.2,0.2,0.4,0.3,0.6c0.1,0.2,0.3,0.5,0.5,0.7c0.3,0.3,0.5,0.6,0.8,0.9c0.3,0.3,0.6,0.5,0.9,0.7
		c0.3,0.2,0.7,0.4,1,0.5c0.2,0.1,0.5,0.2,0.8,0.2c0.4,0.1,0.8,0.1,1.2,0.1c0.7,0.1,1.4,0.1,2.1,0c0.6,0,1.2-0.1,1.8-0.2
		c0.9,0.1,1.7,0.1,2.6,0.2c0.5,0,1,0,1.5,0.1c0.7,0,1.4,0.1,2.1,0.1c0.1,0,0.2,0,0.3,0c1.5,0.2,2.9,0.3,4.4,0.4
		c2.8,0.1,5.7-0.1,8.4-0.5c0.1,0,0.2-0.1,0.3-0.2c0,0,0,0,0,0c0.6,0.1,1.1,0.1,1.7,0c0.7-0.1,1.4-0.3,2-0.6c0.7-0.3,1.3-0.7,1.9-1.2
		c0.3-0.2,0.6-0.5,0.8-0.7c0.3-0.3,0.6-0.6,0.8-0.9c0.4-0.5,0.6-1.1,0.8-1.7C40.3,34.6,40.4,34.1,40.3,33.6z M14.1,24
		c0-1.1-0.1-5.3,0-6.5c0.1-1.4,0.6-2.6,1.5-3.1c0.6,0,1.2,0,1.8,0c1.9-0.1,3.7-0.2,5.5-0.4c0.4,0,0.8,0,1.2,0
		c0.9,0.1,1.5,0.2,1.8,0.3c2.5,1.2,3.2,3,3.1,4.7c0,0.2,0,5.7,0,5.9c-0.2,1.4-0.8,2.6-1.2,3.5c0,0.1-0.1,0.1-0.1,0.2
		c-0.8,0-1.5,0-2.3,0c-2.3,0.1-4.7,0.3-7,0.6c-0.5,0-1,0.1-1.4,0.1c-0.3,0-0.6,0-0.9,0C14.9,28.2,14.2,26,14.1,24z"/>
	<g>
		<path class="st1" d="M41.7,33.2c-0.8-4.1-0.2-8.7-0.3-12.8c0-4,0-7.9-0.1-11.9c-0.1-3.4-2-6.5-5.6-7.3c-3.3-0.8-7.2-0.1-10.6-0.3
			c-4.2-0.3-8.3-0.6-12.6-0.1c-0.9,0.1-3.3,0.5-1.8,0.4C9,1.3,8.1,1.1,6.5,1.8C4.4,2.7,2.2,4.4,1.4,6.5C0,10.3,1.2,16.1,1.3,20
			c0.1,4.6,0.2,9.1,0.1,13.8c-0.1,3.4,1,6.3,4.5,7.7c3.1,1.3,7.3,0.5,10.6,0.6c4.6,0.2,9,0.7,13.6,0.2c0.7-0.1,1.5-0.3,2.3-0.4
			c-0.1,0-1.1,0.1,0.6,0c1.5-0.1,2.7-0.3,4.1-1.1c3-1.6,4.4-3.8,4.7-7.1c0.1-1.9-2.9-1.9-3,0c-0.5,6.8-13,6.2-17.6,5.8
			c-2.5-0.2-4.9-0.4-7.4-0.5c-2.9-0.1-7.8,1-9.2-2.6c-0.9-2.2,0-5.5,0-7.8c0-3.3-0.2-6.7-0.3-10.1c-0.1-2.9-0.7-6.2-0.3-9
			c0.9-6.7,11.9-6.2,16.9-5.9c2.5,0.2,5,0.4,7.5,0.5c3,0.1,8.4-1.1,9.9,2.6c0.5,1.3,0.2,3.1,0.2,4.4c0,7.4-0.9,15.6,0.4,22.9
			C39.2,35.9,42.1,35.1,41.7,33.2z"/>
		<path class="st1" d="M15.6,24c-0.1-2.1-0.3-4.4,0-6.5c0.3-2.2,2.1-1.6,4-1.8c1.6-0.1,3.4-0.6,5.1-0.3c4.3,0.8,3.5,9.4,1.7,12.3
			c0.4-0.2,0.9-0.5,1.3-0.7c-2.5,0-5,0.2-7.5,0.4c-0.7,0.1-2.1,0.5-2.8,0.3C15.9,27.2,15.8,25.4,15.6,24c-0.2-1.9-3.2-1.9-3,0
			c0.2,2.2,0.8,6.2,3.4,6.8c1.7,0.4,4.2-0.4,5.9-0.5c1.8-0.2,4.6,0.3,6.2-0.3c3.3-1.3,2.6-8.2,2.5-11c-0.1-2.6-1.3-5-3.9-6
			c-2.8-1.2-6.4-0.1-9.3,0c-2.7,0.1-4,0.8-4.6,3.6c-0.5,2.4-0.2,5.1-0.2,7.5C12.7,26,15.7,26,15.6,24z"/>
	</g>
</g>
</svg>
