<?xml version="1.0" encoding="utf-8"?>
<!-- Generator: Adobe Illustrator 24.2.1, SVG Export Plug-In . SVG Version: 6.00 Build 0)  -->
<svg version="1.1" id="Layer_1" xmlns="http://www.w3.org/2000/svg" xmlns:xlink="http://www.w3.org/1999/xlink" x="0px" y="0px"
	 viewBox="0 0 823.5 922.8" style="enable-background:new 0 0 823.5 922.8;" xml:space="preserve">
<style type="text/css">
	.st0{fill:#2C2C2C;}
	.st1{fill:#FFFFFF;}
</style>
<rect x="0" class="st0" width="823.5" height="922.8"/>
<path class="st1" d="M179.5,61.7c-1.5,0.1-3.1,0.2-4.6,0.2c-2.1,0.1-4.3,0.3-6.4,0.6c-0.4,0-0.7,0.1-1.1,0.1c-0.2,0-0.3,0-0.5,0
	c-0.6,0-1.1,0-1.7,0c-0.2,0-0.5,0-0.8,0c-1.5,0-3.1,0-4.6,0c-1.7,0-3.4,0.2-5.1,0.3c-3.3,0.2-6.6,0.7-9.9,1.3
	c-3.1,0.6-6.1,1.3-9,2.4c-5.3,2-10.1,5.1-14.2,9.1c-1.8,0.8-3.5,1.6-5.2,2.5c-1.6,0.8-3.3,1.6-4.9,2.4c-1.6,0.8-3.2,1.7-4.5,2.9
	c-0.6,0.6-1.1,1.2-1.5,2c-0.3,0.5-0.3,1-0.4,1.6c0,0.3,0.1,0.6,0.1,0.9c0.1,0.3,0.1,0.6,0.2,0.9c0,0.1,0,0.2,0.1,0.3
	c0.1,0.4,0.3,0.7,0.6,1c0.4,0.4,1,0.7,1.5,0.6c1.4-0.1,2.9-0.2,4.3-0.3c-0.4,1.1-0.7,2.2-1,3.2c-0.6,2.4-0.7,4.8-0.4,7.2
	c0.1,1.3,0.4,2.7,0.7,3.9c0.3,1.3,0.9,2.5,1.6,3.6c0.6,1,1.3,1.9,2.1,2.8c0.2,0.2,0.4,0.3,0.6,0.5c-2.4,1.9-4.7,3.8-7,5.8
	c-1.5,1.3-2.9,2.6-4.4,3.9c-0.6,0.6-1.3,1.2-1.9,1.7c-0.7,0.6-1.3,1.1-2,1.6c-0.6,0.5-1.2,0.9-1.7,1.5c-0.7,0.7-1.3,1.4-1.9,2.2
	c-0.5,0.7-0.8,1.6-1.1,2.4c-0.2,0.8-0.3,1.7-0.4,2.6c0,0.1,0,0.2-0.1,0.3c-0.2,0.9-0.1,1.7,0.3,2.5c0.3,0.5,0.7,0.9,1.1,1.1
	c0.5,0.3,1,0.4,1.6,0.4c1.2,0.1,2.4,0.2,3.6,0.3c-0.5,1.1-0.9,2.3-1.4,3.4c-1,2.5-1.8,5-2.4,7.6c-0.3,1.3-0.5,2.6-0.7,3.9
	c-0.1,0.6-0.1,1.2-0.1,1.8c0,0.7,0.1,1.4,0.2,2.1c0.1,0.6,0.3,1.1,0.8,1.4c0.7,0.4,1.4,0.2,2-0.3c0.4-0.4,0.8-0.8,1.2-1.2
	c0.4-0.5,0.8-1,1.1-1.5c1.5-1.9,3.1-3.7,4.7-5.5c1.5-1.8,3.2-3.5,4.8-5.2c2.6-2.8,5.3-5.6,8-8.4c2.5-0.7,5-1.5,7.5-2.3
	c3.1-1,6.2-2.1,9.2-3.3c3.2-1.3,6.3-2.6,9.5-4.1c3-1.4,5.9-2.8,8.8-4.3c3.7-2,7.3-4,10.9-6.2c2.4-1.4,4.8-2.9,7.1-4.3
	c1.3-0.8,2.6-1.6,3.8-2.5c0.7-0.5,1.5-1.1,2.2-1.6c0.6-0.5,1.3-1,1.8-1.6c0.6-0.6,1.1-1.3,1.6-2c0.5-0.7,0.8-1.4,1-2.2
	c0.2-0.9,0.2-1.8,0-2.7c0.8-0.5,1.6-0.9,2.4-1.4c2.4-1.4,4.7-3,7-4.7c0.8-0.6,1.7-1.2,2.5-1.9c0.4-0.2,0.9-0.3,1.3-0.4
	c2.3-0.8,4.6-1.4,6.9-2c4.8-1.2,9.6-2.2,14.5-2.8c0,0-0.1,0-0.1,0c6.8-0.9,13.7-1.3,20.5-1.1c3.4,0.1,6.8,0.3,10.2,0.4
	c3.5,0.2,6.9,0.4,10.4,0.7c0.5,0,0.5-0.8,0-0.8c-3.3-0.2-6.6-0.5-10-0.7c-3.4-0.2-6.8-0.4-10.2-0.5c-6.7-0.2-13.4,0.2-20.1,1
	c-6.5,0.8-13,2.2-19.3,4c-0.8,0.2-1.6,0.5-2.3,0.7c0.7-0.5,1.3-1.1,2-1.6c-0.1,0-0.1,0.1-0.1,0.1c1.1-0.8,2.2-1.7,3.1-2.8
	c0.9-1,1.3-2.3,1.8-3.5c0,0.1-0.1,0.1-0.1,0.2c0.1-0.2,0.2-0.4,0.3-0.6c0.2-0.4,0.1-0.8-0.3-1.1c-0.3-0.2-0.5-0.3-0.8-0.5
	c-0.9-0.7-1.8-1.4-2.8-1.8c-0.5-0.2-1.2-0.2-1.8-0.2c-0.7,0-1.5,0.1-2.2,0.2c-1.4,0.2-2.8,0.6-4.1,1.1c-1.5,0.5-2.9,1-4.4,1.6
	c-5.9,2.2-11.4,5.4-16.7,8.7c-0.8,0.5-1.6,1-2.4,1.6c-1.2-0.1-2.4-0.1-3.6,0c-1.7,0.1-3.5,0.4-5.2,0.6c-1.7,0.3-3.3,0.6-4.9,1
	c-0.3,0.1-0.5,0.1-0.8,0.2c3-1.6,6-3.2,9-4.7c4.9-2.4,9.8-4.7,14.8-6.9c-0.2,0.1-0.5,0.2-0.7,0.3c3.9-1.6,7.8-3.1,11.8-4.4
	c2-0.5,4-1,6-1.5c7.5-1.8,15.1-3.3,22.8-4.6c1.7-0.1,3.3-0.2,5-0.2c3.6-0.1,7.1,0.2,10.7,0.6c4.5,0.6,9,1.7,13.2,3.4
	c2.7,1.2,5.4,2.6,7.8,4.3c1.6,1.2,3.1,2.6,4.3,4.2c0.8,1.1,1.5,2.1,2.3,3.2c0.5,0.7,1,1.4,1.5,2.1c0.5,0.6,1,1.2,1.6,1.8
	c0.5,0.5,1.2,1,1.9,1.4c0.5,0.2,0.9,0.4,1.4,0.5c0.5,0.1,1,0.1,1.5,0.1c0.8,0,1.7-0.2,2.5-0.4c0.8-0.2,1.6-0.5,2.4-0.8
	c3-1.2,5.8-2.7,8.4-4.5c1.3-0.9,2.5-1.8,3.7-2.7c1.4-1.1,2.7-2.2,4-3.3c1-0.9,2-1.8,3-2.8c1.1-1.1,2-2.4,2.8-3.8
	c0.8-1.3,1.4-2.8,1.4-4.3c0-0.4-0.1-0.9-0.2-1.3c-0.2-0.7-0.5-1-0.9-1.6c-0.5-0.6-1.2-1.1-1.9-1.6c-1.3-0.8-2.7-1.1-4.1-1.4
	c-1.6-0.3-3.3-0.7-4.9-1c-3.3-0.5-6.7-0.7-10-0.8S268.3,62,265,62c-3.4,0-6.7,0.1-10.1,0.3c-6.7,0.3-13.4,0.9-20.1,1.7
	c-3,0.3-5.9,0.7-8.9,1.2c-3.1-0.1-6.3,0-9.5,0.3c-6.6,0.6-13.1,1.9-19.5,3.5c-6.2,1.6-12.4,3.6-18.4,6c-4.6,1.8-9.1,3.9-13.6,6
	c-2.1,0.9-4.2,1.8-6.3,2.8c-5.7,2.7-11.2,5.8-16.6,9.2c-2.3,1.5-4.6,3-6.9,4.6c-2.7,1.8-5.4,3.5-8,5.4c-2.3,1.6-4.6,3.3-6.8,5
	c-0.3-0.2-0.6-0.4-0.9-0.6c-0.4-0.3-0.7-0.7-1-1c-0.5-0.7-1-1.5-1.4-2.3c-0.4-1.1-0.6-2.2-0.8-3.3c-0.2-1.5-0.2-2.9,0-4.4
	c0.3-1.8,0.8-3.5,1.5-5.2c0.2-0.5,0.4-0.9,0.6-1.4c1.9-0.2,3.8-0.5,5.7-0.7c3.4-0.4,6.8-0.9,10.2-1.4c3.2-0.5,6.5-1.1,9.7-1.8
	c3.1-0.7,6.1-1.5,9.2-2.4c2.2-0.7,4.4-1.5,6.5-2.4c1.9-0.8,3.8-1.7,5.7-2.7c1.8-1,3.5-2.2,4.9-3.6c1.5-1.5,2.2-3.5,3-5.4
	c0.1-0.3,0.2-0.5,0.4-0.8c0.3-0.6,0.4-1.2,0.2-1.9c-0.1-0.2-0.1-0.4-0.3-0.6c2.7-0.2,5.4-0.4,8.1-0.5c3.9-0.2,7.8-0.4,11.6-0.3
	c1,0,1.8-0.8,1.8-1.8c0-1-0.8-1.8-1.8-1.8c-1.3,0-2.5-0.1-3.8-0.1C186.2,61.4,182.8,61.5,179.5,61.7L179.5,61.7L179.5,61.7z
	 M254.2,67.5c4.7-0.2,9.4-0.2,14.1-0.1c4.6,0.1,9.3,0.3,13.9,0.9c1.5,0.2,3,0.5,4.5,0.9c0.7,0.2,1.4,0.4,2.2,0.5
	c0.6,0.2,1.2,0.3,1.8,0.5c0.1,0.1,0.2,0.1,0.3,0.2c-0.4,0.7-0.9,1.5-1.3,2.2c-0.9,1.1-2,2.1-3,3.1c-1.3,1.1-2.5,2.3-3.9,3.3
	c-1.7,1.3-3.5,2.6-5.3,3.7c-1.7,1.1-3.5,2-5.4,2.8c-0.9,0.3-1.8,0.7-2.7,0.9c-0.1,0-0.2,0-0.4,0c0,0-0.1,0-0.1-0.1
	c-0.6-0.6-1.2-1.2-1.8-1.9c-0.8-1-1.6-2.1-2.3-3.2c-0.5-0.7-1-1.4-1.5-2c-0.5-0.7-1.1-1.2-1.7-1.8c-1.1-1.1-2.3-2.2-3.6-3.1
	c-1.2-0.9-2.6-1.8-4-2.5c-2.8-1.6-5.8-2.8-8.8-3.8c0,0,0,0-0.1,0C248.2,67.8,251.2,67.6,254.2,67.5L254.2,67.5L254.2,67.5z
	 M164.5,67.5c0.9,0,1.9,0,2.8,0.1c0.2,0.1,0.4,0.1,0.7,0.2c0.2,0.1,0.4,0.2,0.5,0.3c-0.1,0.4-0.3,0.7-0.4,1.1
	c-0.3,0.6-0.5,1.1-0.9,1.7c-0.5,0.6-1.1,1.1-1.8,1.6c-2.7,2-5.8,3.4-8.9,4.7c-4.3,1.8-8.9,2.9-13.4,4c-2.4,0.6-4.8,1.1-7.3,1.5
	c-2.4,0.4-4.9,0.8-7.4,1.2c-2.4,0.3-4.8,0.6-7.2,1c0.4-0.6,0.8-1.1,1.2-1.6c1.6-2,3.3-3.8,5.2-5.5c6.2-2.5,12.5-4.7,18.9-6.6
	c5-1.4,10.1-2.7,15.3-3.6c0.5,0,1,0,1.5,0c0.1,0,0.2,0,0.3,0C163.9,67.5,164.2,67.5,164.5,67.5L164.5,67.5L164.5,67.5z M291.3,70.4
	C291.3,70.4,291.3,70.4,291.3,70.4C291.3,70.5,291.3,70.5,291.3,70.4C291.3,70.4,291.3,70.4,291.3,70.4
	C291.3,70.4,291.3,70.4,291.3,70.4L291.3,70.4L291.3,70.4z M156.8,77c-0.1,0-0.2,0.1-0.3,0.1C156.6,77.1,156.7,77,156.8,77L156.8,77
	L156.8,77z M199.4,79.8c0.2,0,0.5,0.1,0.7,0.2c0.9,0.4,1.6,1.1,2.4,1.7c-0.2,0.5-0.4,1-0.6,1.6c-0.2,0.5-0.5,1-0.8,1.4
	c-1.1,1.3-2.4,2.2-3.7,3.3c-1.3,1.1-2.6,2.2-3.9,3.2c-1.2,0.4-2.3,0.8-3.5,1.3c-1.1,0.4-2.3,0.9-3.4,1.4c-1.6,0.7-3.3,1.4-5,2.1
	c-0.8-1-1.8-1.8-2.9-2.4c-1.4-0.8-2.9-1.2-4.4-1.6c-0.9-0.2-1.8-0.3-2.7-0.4c0.7-0.4,1.3-0.8,2-1.3c4.2-2.6,8.5-5,13-7
	c1.6-0.7,3.3-1.3,4.9-1.8c1.8-0.6,3.5-1.2,5.4-1.5C197.9,79.8,198.6,79.8,199.4,79.8L199.4,79.8L199.4,79.8z M186.7,83.2
	C186.7,83.2,186.7,83.3,186.7,83.2C186.7,83.3,186.7,83.2,186.7,83.2L186.7,83.2L186.7,83.2z M115.6,83.3c-0.3,0.4-0.6,0.9-0.8,1.4
	c-0.2,0.3-0.4,0.7-0.6,1c-1.2,0.2-2.4,0.3-3.6,0.4c0.1,0,0.1-0.1,0.1-0.1C112.2,84.9,113.9,84.1,115.6,83.3L115.6,83.3L115.6,83.3z
	 M165.6,85.4c-0.1,0-0.1,0.1-0.2,0.1c0,0,0.1,0,0.1,0C165.6,85.5,165.6,85.4,165.6,85.4L165.6,85.4L165.6,85.4z M269.2,86.5
	c0,0,0.1,0,0.1,0C269.3,86.5,269.2,86.5,269.2,86.5L269.2,86.5L269.2,86.5z M184.9,95.4c1.7-0.7,3.4-1.5,5.1-2.1
	c0.5-0.2,1-0.4,1.6-0.6c-2.1,1.6-4.2,3-6.4,4.4c-0.6,0.4-1.3,0.8-1.9,1.2c-0.2-0.6-0.6-1.2-0.9-1.7c0,0,0-0.1-0.1-0.1
	C183.1,96.1,184,95.8,184.9,95.4L184.9,95.4L184.9,95.4z M166.8,98c1.3,0,2.6,0.1,3.9,0.3c1.2,0.2,2.5,0.4,3.6,0.8
	c-0.4,0.2-0.8,0.4-1.2,0.6c-0.8,0.4-1.7,0.8-2.2,1.5c-0.1,0.2-0.4,0.5-0.3,0.8c0.1,0.5,0.3,1,0.4,1.5c0.1,0.2,0.3,0.3,0.5,0.3
	c0.4-0.1,0.7-0.1,1.1-0.2c-0.2,0.1-0.4,0.3-0.6,0.4c-1.1,0.7-2.1,1.3-3.2,2c-0.6,0.4-1.3,0.8-1.9,1.2c-2.1,1.3-4.2,2.6-6.2,3.8
	c-1.1,0.7-2.2,1.3-3.3,2c-2.4,1.4-4.8,2.7-7.2,4c-2.3,1.2-4.7,2.4-7,3.5c-2.3,1.1-4.6,2.1-7,3.1c-1.5,0.6-3.1,1.2-4.6,1.8
	c0.2-0.2,0.3-0.3,0.5-0.5c1.7-1.6,3.4-3.3,5.1-4.9c4.7-4.5,9.4-9,14.3-13.2c3.3-2.8,6.7-5.6,10.2-8.3c-0.1,0.1-0.1,0.1-0.2,0.2
	c0.2-0.1,0.3-0.3,0.5-0.4c0.1,0,0.2,0,0.2,0C163.7,98.1,165.2,98,166.8,98L166.8,98L166.8,98z M153.1,100.3c1.6-0.5,3.2-0.9,4.9-1.2
	c-0.8,0.6-1.5,1.2-2.2,1.8c-2.5,2-5,4.1-7.5,6.2c-2.5,2.1-4.9,4.3-7.2,6.5c-4.9,4.6-9.8,9.2-14.7,13.8c-1,0.3-2,0.7-3.1,1
	c-4.4,1.5-8.8,2.8-13.4,3.4c-0.2,0-0.5,0.1-0.7,0.1c0.2-0.4,0.4-0.7,0.6-1.1c1.9-3.3,4.1-6.4,6.4-9.5c-0.1,0.1-0.2,0.3-0.3,0.4
	c1.9-2.5,3.9-4.9,6.1-7.2c0.1,0,0.2,0,0.3,0c0.8,0,1.8-0.2,2.5-0.6c0.4-0.2,0.8-0.5,1.1-0.8c2.5-1.8,5.2-3.2,7.9-4.6
	c1.2-0.7,2.5-1.3,3.8-1.9c2.4-1.2,4.8-2.3,7.3-3.4C147.6,102.2,150.3,101.2,153.1,100.3L153.1,100.3L153.1,100.3z M174.1,100.1
	c0.4-0.2,0.8-0.4,1.2-0.6c0.2,0.1,0.4,0.2,0.5,0.3c0.1,0.1,0.2,0.2,0.3,0.3c0.1,0.1,0.1,0.2,0.2,0.3c-0.2,0.3-0.5,0.5-0.7,0.8
	c-0.3,0.3-0.6,0.5-0.9,0.8c-0.2,0.2-0.4,0.3-0.6,0.4c-0.8,0.2-1.6,0.3-2.4,0.4c-0.1-0.2-0.2-0.5-0.2-0.8c0-0.1,0-0.1,0-0.1
	c0,0,0-0.1,0-0.1c0-0.1,0.1-0.2,0.1-0.2c0.1-0.1,0.2-0.2,0.3-0.3C172.6,100.8,173.3,100.5,174.1,100.1L174.1,100.1L174.1,100.1z
	 M176.5,100.8L176.5,100.8c0,0.1,0,0.1,0,0.2C176.5,100.9,176.5,100.9,176.5,100.8L176.5,100.8L176.5,100.8z M171.9,101.3
	C171.9,101.3,171.9,101.3,171.9,101.3C171.9,101.3,171.9,101.3,171.9,101.3L171.9,101.3L171.9,101.3z M171.5,102.2
	C171.5,102.2,171.5,102.2,171.5,102.2C171.5,102.2,171.5,102.2,171.5,102.2L171.5,102.2L171.5,102.2z M126.4,112.8
	c-0.1,0-0.1,0.1-0.2,0.1C126.3,112.9,126.3,112.8,126.4,112.8L126.4,112.8L126.4,112.8z M106.1,127.8c0.8-0.7,1.6-1.4,2.4-2.2
	c0.1-0.1,0.1-0.1,0.2-0.2c-0.5,0.7-0.9,1.5-1.4,2.2c-0.8,1.4-1.6,2.8-2.4,4.3c-0.1,0-0.2,0-0.3,0c-0.9-0.1-1.8-0.1-2.6-0.2
	c0.1-0.1,0.2-0.3,0.3-0.4C103.4,129.9,104.8,128.9,106.1,127.8L106.1,127.8L106.1,127.8z M108.2,138.6c1.7,0,3.4-0.3,5.1-0.6
	c0.8-0.1,1.6-0.3,2.4-0.5c-2.7,2.7-5.4,5.5-8.2,8.2c-1.4,1.4-2.8,2.9-4.1,4.4c-0.6,0.6-1.2,1.3-1.7,1.9c-0.2,0.3-0.5,0.5-0.7,0.8
	c0.7-4.2,2.2-8.2,3.8-12.1c0,0.1-0.1,0.1-0.1,0.2c0-0.1,0.1-0.2,0.1-0.3c0,0,0-0.1,0.1-0.1c0,0,0,0.1,0,0.1c0.3-0.7,0.6-1.4,0.9-2
	c0.6,0,1.2,0.1,1.8,0.1C107.8,138.6,108,138.6,108.2,138.6L108.2,138.6L108.2,138.6z M104.9,140.6
	C104.9,140.6,104.8,140.6,104.9,140.6C104.9,140.6,104.9,140.6,104.9,140.6C104.9,140.5,104.9,140.6,104.9,140.6L104.9,140.6
	L104.9,140.6z"/>
<path class="st1" d="M226.2,61.6c-6.4,1-12.9,2.4-19.1,4.4c-5.9,1.9-11.7,4.5-17,7.7c-2.5,1.6-4.9,3.4-7.1,5.5c-2.1,2-4,4.4-5.1,7.2
	c-0.2,0.6-0.4,1.3-0.4,1.9s0.1,1.2,0.2,1.9c0.4,1.4,1.2,2.5,2.2,3.5c2.3,2.1,4.9,3.7,7.6,5.1c1.4,0.7,2.9,1.4,4.3,2
	c1,0.4,2,0.9,3,1.2c1.3,0.4,2.6,0.9,3.9,1.4c1,0.4,2,0.7,3,1.1c1.2,0.4,2.5,0.8,3.8,1.2c0.6,0.2,1.2-0.2,1.4-0.8
	c0.2-0.6-0.2-1.2-0.8-1.4c-1.2-0.4-2.5-0.8-3.7-1.2c-1-0.3-1.9-0.7-2.9-1c-2-0.7-4-1.4-5.9-2.2c-3.6-1.5-7.1-3.3-10.3-5.6
	c-0.9-0.7-1.7-1.4-2.5-2.3c-0.2-0.3-0.4-0.6-0.5-0.9c-0.2-0.4-0.3-0.8-0.4-1.2c0-0.2,0-0.4,0-0.6c0.1-0.5,0.3-1,0.4-1.5
	c0.5-1,1.1-2,1.8-2.9c1.6-2,3.4-3.7,5.4-5.2c0,0-0.1,0.1-0.1,0.1c4.1-3.2,8.8-5.6,13.6-7.7c4.4-1.8,8.9-3.2,13.5-4.3
	c4.8-1.1,9.6-2.1,14.4-2.7c0,0,0,0,0,0c0,0,0,0,0.1,0c0.1,0,0.2,0,0.4-0.1c-0.1,0-0.1,0-0.2,0c4.4-0.6,8.8-0.9,13.2-1
	c4.5-0.1,8.9,0.2,13.4,0.8c-0.1,0-0.3,0-0.4-0.1c3.6,0.5,7.2,1.2,10.7,2.1c3.6,0.9,7.1,2.1,10.5,3.5c3.5,1.5,6.9,3.2,10,5.4
	c1.2,1,2.3,2,3.3,3.2c0.6,0.9,1.2,1.8,1.6,2.7c0.2,0.7,0.4,1.3,0.5,2c0.1,1.3,0,2.6-0.1,3.8c-0.2,1.3-0.5,2.7-0.8,4
	c-0.5,1.7-1.1,3.3-1.7,4.9c-0.5,1.3-1,2.7-1.5,4c-0.9,2.2-1.7,4.4-2.6,6.7c-0.5,1.2-1,2.5-1.5,3.7c-0.3,0.7-0.5,1.4-0.8,2.2
	s-0.4,1.5-0.5,2.2c-0.2,0.8-0.3,1.6-0.3,2.5c0,0.9,0.2,1.8,0.5,2.7c0.6,1.5,1.5,2.8,2.5,4c1,1.3,2.3,2.3,3.6,3.3
	c1.2,0.9,2.4,1.7,3.6,2.5c1.4,1,2.9,1.9,4.4,2.7c2.9,1.7,5.8,3.2,8.7,4.8c1.1,0.6,2.2,1.2,3.3,1.8c0.9,0.5,1.8,0.9,2.6,1.3
	c1.6,0.8,3.2,1.5,4.8,2.2c3,1.3,6.2,2.3,9.4,3.1c3.2,0.8,6.5,1.1,9.9,1.1c1.6,0,3.2-0.1,4.8-0.2c1.8-0.2,3.5-0.5,5.3-0.8
	c1.5-0.3,3-0.6,4.5-1.1c0.7-0.2,1.4-0.6,2-0.9c0.7-0.4,1.4-0.9,2.1-1.4c0.5-0.4,1-0.9,1.4-1.5c0.2-0.3,0.3-0.7,0.4-1
	c0.1-0.4,0.1-0.7,0.1-1.1c0.1-0.7-0.1-1.4-0.2-2.1c-0.1-0.8-0.4-1.6-0.6-2.3c-1-3-2.5-5.7-4.2-8.3c-0.8-1.2-1.6-2.3-2.5-3.4
	c0.8,0.2,1.6,0.4,2.4,0.6c2.9,0.7,5.7,1.6,8.6,2c1.5,0.2,3,0.4,4.6,0.3c0.9,0,1.8-0.2,2.7-0.5c2.6,2.4,5.1,5,7.3,7.8
	c1.6,2.1,3,4.2,4.4,6.4c1.3,2.2,2.5,4.4,3.5,6.7c1,2.5,2,4.9,2.8,7.5c0.6,1.9,1.1,3.9,1.6,5.8c0.7,2.8,1.5,5.5,1.9,8.3
	c0,0.5,0.1,0.9,0.1,1.4c0,0.7,0,1.4-0.1,2c0,0.5,0.1,1,0.4,1.4c0.4,0.6,1,1.1,1.7,1.3c0.7,0.2,1.5,0.1,2.2-0.3
	c0.6-0.3,1.2-1,1.3-1.7c0.1-0.9,0.3-1.8,0.3-2.8c0-0.8,0-1.6-0.1-2.4c-0.1-1.4-0.4-2.8-0.7-4.2c-0.4-1.4-0.7-2.8-1.1-4.3
	c-1.4-5.5-3.3-10.9-5.8-16c-1.4-2.9-3.1-5.6-4.9-8.3c-1.9-2.7-4-5.3-6.2-7.8c-1.6-1.7-3.3-3.4-5-4.9c-0.2-0.6-0.6-1.1-1.1-1.4
	c-0.7-0.4-1.3-0.8-2-1.3c0,0,0,0,0,0c-2.2-1.8-4.5-3.4-6.8-5c-4.6-3.1-9.4-5.8-14.4-8.2c-5.1-2.4-10.4-4.3-15.9-5.8
	c-2.7-0.7-5.4-1.4-8.2-1.9c-2.8-0.6-5.5-1.1-8.3-1.5c-1.6-0.3-3.3-0.5-4.9-0.6c-2-0.8-4-1.5-6-2.2c-1.4-0.5-2.8-0.9-4.3-1.4
	c-0.9-0.2-1.8-0.5-2.6-0.7c0.1-0.7,0.3-1.3,0.4-2c0.3-1.7,0.5-3.4,0.4-5.2c0-0.8-0.2-1.6-0.3-2.4c-0.1-0.8-0.5-1.5-0.8-2.3
	c-0.6-1.5-1.7-2.9-2.8-4.1c-1-1.1-2.2-2.1-3.4-3c-1.3-1-2.7-1.9-4.2-2.6c-1.4-0.7-2.8-1.4-4.2-2c-1.6-0.7-3.2-1.4-4.9-2
	c-3.1-1.2-6.3-2.1-9.6-2.8c-6.6-1.5-13.3-2.4-20.1-2.5c-0.5,0-1,0-1.5,0C238.8,60,232.4,60.6,226.2,61.6L226.2,61.6L226.2,61.6z
	 M276.3,69.3c0.1,0.1,0.2,0.1,0.3,0.1C276.5,69.4,276.4,69.4,276.3,69.3L276.3,69.3L276.3,69.3z M292.2,83.1c0,0.1,0,0.1,0,0.2
	C292.2,83.2,292.2,83.2,292.2,83.1L292.2,83.1L292.2,83.1z M287.9,112.8c0.3-0.8,0.6-1.6,1-2.3c0.6-1.4,1.1-2.8,1.7-4.1
	c0.9-2.2,1.8-4.5,2.6-6.7c0.5-1.2,0.9-2.3,1.3-3.5c0.1,0.1,0.2,0.1,0.4,0.2c0.3,0.2,0.6,0.3,1,0.4c0.3,0.1,0.5,0.2,0.8,0.3
	c-0.1,0-0.1,0.1-0.2,0.1c-0.8,0.3-1.4,0.8-1.6,1.6c-0.3,1.1,0.2,2,1.1,2.6c0.8,0.5,1.5,1.1,2.3,1.6c0.9,0.6,1.8,1.1,2.7,1.5
	c1.8,0.8,3.6,1.5,5.4,2.3c2.3,1,4.6,1.9,6.9,2.9c1.8,0.8,3.5,1.5,5.3,2.2c2.9,1.1,5.7,2.2,8.5,3.3c2.2,0.9,4.5,1.8,6.7,2.6
	c2.6,0.9,5.3,1.8,7.9,2.6c1.6,1.7,3.1,3.4,4.6,5.3c1.9,2.4,3.6,5,4.8,7.8c0.5,1.3,1,2.6,1.3,4c0,0.4,0,0.7,0,1.1
	c0,0.1,0,0.2-0.1,0.3c-0.3,0.3-0.6,0.6-1,0.9c-0.7,0.5-1.5,0.9-2.2,1.3c-1.2,0.4-2.4,0.7-3.6,1c-1.4,0.3-2.8,0.5-4.2,0.7
	c-3.6,0.4-7.3,0.4-10.9,0c-2.1-0.3-4.1-0.8-6.1-1.4c-2.1-0.6-4.2-1.4-6.2-2.2c-1.7-0.8-3.4-1.6-5.1-2.4c-0.9-0.4-1.8-0.9-2.6-1.4
	c-1.7-0.9-3.4-1.9-5.1-2.9c-4.8-2.7-9.6-5.5-14-8.8c-1-0.8-2-1.7-2.8-2.8c-0.5-0.7-1-1.5-1.4-2.3c-0.1-0.3-0.2-0.6-0.3-1
	c0-0.3,0-0.5,0-0.8C287,115.4,287.4,114.1,287.9,112.8L287.9,112.8L287.9,112.8z M305.5,99.8c0.1,0.1,0.3,0.1,0.4,0.1
	c2.6,0.9,5.1,1.8,7.7,2.7c2.7,0.9,5.4,1.9,8.1,2.9c0.8,0.4,1.6,0.9,2.4,1.3c2.6,1.5,5.1,3.1,7.6,4.8c-0.1-0.1-0.3-0.1-0.4-0.2
	c-3.1-1.2-6.2-2.3-9.2-3.5c-1.4-0.5-2.8-1.1-4.2-1.7c-2.3-1-4.6-1.9-7-2.9c-0.8-0.3-1.5-0.6-2.3-1c-1.5-0.6-3-1.2-4.5-1.8
	c-0.5-0.2-1.1-0.5-1.6-0.8c0,0,0.1,0,0.1,0C303.4,99.8,304.5,99.8,305.5,99.8L305.5,99.8L305.5,99.8z M303.5,100.4
	c0.1,0.1,0.2,0.1,0.3,0.1C303.7,100.6,303.6,100.5,303.5,100.4L303.5,100.4L303.5,100.4z M338.3,111.7c0.2,0.1,0.4,0.2,0.7,0.3
	c4.6,1.8,9.2,3.6,13.8,5.5c1.2,0.5,2.5,1,3.7,1.5c-1.7-0.4-3.5-0.9-5.2-1.3c-3-0.7-6-1.6-9-2.5C340.9,114,339.6,112.8,338.3,111.7
	L338.3,111.7L338.3,111.7z M346.3,125.7c0.1,0.1,0.1,0.2,0.2,0.2C346.5,125.8,346.4,125.8,346.3,125.7L346.3,125.7L346.3,125.7z
	 M350.9,133.1c0,0.1,0,0.1,0.1,0.2C351,133.2,351,133.1,350.9,133.1L350.9,133.1L350.9,133.1z M352.2,138.8
	c-0.1,0.1-0.1,0.2-0.2,0.3C352.1,138.9,352.2,138.9,352.2,138.8L352.2,138.8L352.2,138.8z M330.5,142.6c0.1,0,0.2,0,0.3,0
	C330.7,142.6,330.6,142.6,330.5,142.6L330.5,142.6L330.5,142.6z M229.1,64.2C229.1,64.2,229.1,64.2,229.1,64.2c0,0,0.1,0,0.2,0
	C229.2,64.2,229.2,64.2,229.1,64.2L229.1,64.2L229.1,64.2z"/>
<path class="st1" d="M405.1,88.5c-0.4,0.4-0.5,1.2,0,1.6c0.5,0.4,0.9,0.8,1.3,1.2c0.2,0.3,0.5,0.5,0.8,0.8c0.5,0.6,0.9,1.1,1.4,1.7
	c0.5,0.7,1.1,1.4,1.6,2.1c0.4,0.6,0.9,1.2,1.3,1.8c0.4,0.5,0.7,1,1,1.5c0.3,0.5,0.5,1,0.7,1.5c0,0,0-0.1,0-0.1c0,0,0,0.1,0,0.1
	c0,0.1,0,0.1,0.1,0.2c0,0,0-0.1-0.1-0.1c0.3,0.7,0.5,1.4,0.7,2.2c0.1,0.6,0,1.3,0,1.9c-0.2,1.2-0.5,2.3-0.9,3.3
	c-0.7,1.7-1.7,3.2-2.8,4.6c-1.3,1.6-2.8,3.1-4.3,4.6c-1.6,1.5-3.3,2.9-5.1,4.3c-1.3,1-2.7,2.1-4.1,3c-1.4,1-2.9,2-4.4,2.9
	c-1.5,1-3,1.9-4.4,2.9c-1.4,0.9-2.9,1.9-4.3,2.8c-2.9,1.9-5.8,3.7-8.4,5.9c-2.4,2-4.9,3.9-6.9,6.4c-1,1.1-1.8,2.4-2.5,3.8
	c-0.3,0.7-0.6,1.5-0.9,2.2c-0.3,0.8-0.4,1.7-0.5,2.5c-0.1,0.8-0.1,1.5,0,2.3c0.1,0.8,0.5,1.6,0.8,2.3c0.3,0.7,0.7,1.4,1.1,2.1
	c0.5,0.7,1,1.4,1.6,2.1c0.4,0.5,0.8,1,1.1,1.5c0.2,0.2,0.5,0.3,0.8,0.3c0.3,0,0.6-0.1,0.8-0.3c0.2-0.2,0.3-0.5,0.3-0.8
	c0-0.3-0.1-0.5-0.3-0.8c-0.2-0.2-0.3-0.4-0.5-0.6c0,0,0,0,0,0c0,0,0-0.1-0.1-0.1c0,0-0.1-0.1-0.1-0.1c0,0,0,0.1,0,0.1
	c-0.5-0.6-0.9-1.2-1.4-1.8c0.1,0.1,0.1,0.1,0.2,0.2c-0.4-0.5-0.7-0.9-1-1.5c-0.2-0.5-0.5-0.9-0.7-1.4c-0.2-0.6-0.4-1.2-0.5-1.8
	c0-0.6,0-1.1,0-1.7c0.2-1.1,0.5-2.2,0.9-3.2c0.5-1.2,1.1-2.2,1.9-3.2c1.1-1.4,2.5-2.7,3.8-3.9c0.7-0.6,1.4-1.2,2.2-1.8
	c0.8-0.7,1.6-1.3,2.4-2c-0.1,0.1-0.1,0.1-0.2,0.2c2.7-2.1,5.6-3.9,8.5-5.7c1.5-0.9,2.9-1.9,4.3-2.9c1.5-1,3-1.9,4.4-2.9
	c3-1.9,5.8-4.1,8.6-6.3c1.4-1.1,2.7-2.2,4-3.4c1.2-1.2,2.5-2.4,3.6-3.7c2.2-2.6,4.1-5.6,4.9-9c0.2-0.8,0.3-1.6,0.3-2.5
	c0-0.9-0.1-1.8-0.4-2.6c-0.2-0.8-0.6-1.6-1-2.4c-0.4-0.8-0.8-1.5-1.3-2.2c-1-1.4-2-2.7-3-4.1c-0.4-0.6-0.9-1.1-1.3-1.6
	c-0.4-0.4-0.8-0.9-1.2-1.3c-0.4-0.4-0.8-0.7-1.2-1.1c-0.2-0.2-0.5-0.3-0.8-0.3C405.6,88.2,405.3,88.3,405.1,88.5L405.1,88.5
	L405.1,88.5z M412.8,108.3C412.8,108.4,412.8,108.4,412.8,108.3C412.8,108.4,412.8,108.4,412.8,108.3L412.8,108.3L412.8,108.3z
	 M400.6,121.7C400.6,121.8,400.6,121.8,400.6,121.7C400.6,121.8,400.6,121.8,400.6,121.7L400.6,121.7L400.6,121.7z M367,157.5
	C367,157.5,367,157.5,367,157.5C367,157.5,367,157.5,367,157.5L367,157.5L367,157.5z M370,162.1C370,162.2,370,162.2,370,162.1
	C370,162.2,369.9,162.1,370,162.1C369.9,162.1,369.9,162.1,370,162.1L370,162.1L370,162.1z M413.1,100.8
	C413.1,100.8,413.1,100.8,413.1,100.8C413.1,100.8,413.1,100.8,413.1,100.8C413.1,100.8,413.1,100.8,413.1,100.8L413.1,100.8
	L413.1,100.8z"/>
<path class="st1" d="M331.9,0c-0.9,0-1.8,0.1-2.8,0.2c-1.1,0.1-2.2,0.4-3.2,0.8c-1.7,0.6-3.4,1.4-5,2.3c-1.7,0.9-3.2,2.1-4.6,3.4
	c-1.3,1.2-2.5,2.5-3.5,3.9c-1.1,1.5-2,3.3-2.4,5.2c-0.2,0.9-0.2,1.9-0.3,2.8c-0.1,1-0.1,2-0.1,3c0.1,1.6,0.4,3.2,0.9,4.7
	c-0.4-0.1-0.8-0.2-1.2-0.4c0-0.2-0.1-0.5-0.1-0.7c-0.1-0.8-0.6-1.5-1-2.1c-0.5-0.8-1.2-1.4-2-1.9c-0.6-0.4-1.4-0.6-2.1-0.8
	c-0.8-0.2-1.6-0.2-2.4-0.2c-1.8,0-3.6,0.3-5.4,0.6c-1.7,0.4-3.4,1-5.1,1.7c-1.9,0.8-3.6,1.7-5.4,2.7c-1.1,0.6-2.2,1.3-3.2,1.9
	c-0.2,0.1-0.4,0.2-0.6,0.3c-0.9,0.5-1.6,1-2.4,1.6c-1.1,0.8-2.2,1.5-3.2,2.4c-6,4.7-11.6,10-16.5,15.9c-2.5,3-4.8,6.1-6.8,9.5
	c-0.9,1.6-1.8,3.2-2.6,4.8c-0.9,1.8-1.4,3.7-1.6,5.6c-0.2,1.9-0.1,3.7,0.1,5.5c0.3,2,1.1,3.9,1.9,5.8c0.9,2.3,2.1,4.5,3.3,6.7
	c0.4,0.8,0.9,1.7,1.4,2.5c0.2,0.3,0.5,0.7,0.7,1c0.3,0.4,0.5,0.7,0.8,1.1c0.7,0.8,1.6,1.3,2.8,1.4c0.8,0.1,1.6-0.1,2.3-0.3
	c0.8-0.3,1.5-0.8,2-1.4c1.2-1.3,1.8-3,2.4-4.6c0.6-1.6,1.2-3.2,1.6-4.8c0.6-1.9,1-3.9,1.4-5.9c0.3-1.2,0.6-2.5,0.8-3.8
	c0.9-4.1,1.7-8.2,2.7-12.3c0.7-2.8,1.3-5.5,2-8.3c0.9-3.8,1.8-7.6,3.3-11.3c0.6-1.3,1.2-2.4,2.1-3.5c0.7-0.8,1.4-1.6,2.3-2.3
	c1.1-0.8,2.2-1.4,3.4-1.9c1.9-0.7,3.7-1.2,5.7-1.5c3-0.4,6.1-0.3,9.2,0c1.6,0.2,3.3,0.6,4.9,1c-0.4,1.7-1,3.4-1.7,5
	c-0.5,1.4-1.1,2.8-1.6,4.1c-0.3,0.7-0.6,1.5-1,2.2c-0.4-0.1-0.9-0.2-1.3-0.4c-1.9-0.5-3.7-0.9-5.6-1.3c-1-0.2-1.9-0.3-2.9-0.5
	c-1.1-0.2-2.2-0.4-3.3-0.6c-1.8-0.3-3.5-0.3-5.3,0c-0.8,0.1-1.5,0.5-2.2,0.8c-0.8,0.4-1.5,1.1-2.1,1.8c-0.9,1.2-1.5,2.7-1.4,4.2
	c0.1,1.8,1.2,3.3,2.3,4.7c2.2,2.7,5.3,4.3,8.5,5.6c6.1,2.4,12.6,3.2,19.1,3.3c-1.3,2.8-2.5,5.6-3.7,8.4c-1.4,3.4-2.7,6.8-4.1,10.1
	c-1.2,2.9-2.3,5.9-3.5,8.9c-0.1,0.3-0.3,0.5-0.5,0.8c-0.9,1.7-1.7,3.5-2.5,5.2c-0.1,0.2-0.2,0.5-0.3,0.7c-0.1,0.5-0.1,1,0,1.5
	c0.2,0.7,0.7,1.3,1.3,1.7c1.4,0.8,3.1,0.3,3.9-1c0.3-0.5,0.6-0.9,0.8-1.4c0.4-0.6,0.7-1.3,1-2c0.4-0.8,0.8-1.7,1.1-2.6
	c0.4-0.7,0.8-1.4,1.2-2c0.6-1,1.2-2,1.9-3c0.9-1.4,1.8-2.8,2.6-4.2c0.3-0.5,0.6-1,0.9-1.5c1.6-2.4,3.3-4.8,4.9-7.1
	c0.6-0.9,1.2-1.8,1.9-2.7c0.5-0.7,1-1.4,1.5-2c0.9-1.2,1.9-2.5,2.8-3.7c1.4-1.8,2.8-3.5,4.2-5.2c0.1,0,0.3,0,0.4-0.1
	c2.5,2.5,4.9,5.2,7.1,8c2.7,3.6,5.2,7.3,7.4,11.3c1.1,1.9,2.1,3.8,3.1,5.8c-0.5,0.2-1,0.5-1.4,0.8c-1.1,0.8-2.1,1.9-2.8,3.1
	c-0.7,1.2-0.9,2.8-0.9,4.2c0,1.5,0.3,3.1,0.8,4.5c0.5,1.5,1.2,2.9,2,4.2c0.8,1.4,1.6,2.8,2.5,4.2c0.4,0.6,0.8,1.2,1.2,1.8
	c0.4,0.7,0.8,1.3,1.3,1.9c0.4,0.5,0.9,0.9,1.4,1.3c0.3,0.2,0.7,0.4,1,0.5c0.3,0.1,0.6,0.2,1,0.4c0,0,0.1,0.1,0.2,0.1
	c0.4,0.2,0.8,0.3,1.2,0.2c0.4-0.1,0.7-0.4,0.9-0.7c0.8-1.4,1.8-2.6,2-4.3c0.2-1.9,0-3.8-0.4-5.6c-0.4-1.8-1-3.5-1.5-5.2
	c-0.6-1.9-1.3-3.9-2.1-5.8c-0.6-1.6-1.3-3.1-2.1-4.7c0.1,0,0.2-0.1,0.3-0.1c0.6-0.2,1-0.8,0.8-1.5c-0.2-0.6-0.9-1.1-1.5-0.8
	c-0.2,0.1-0.5,0.2-0.7,0.3c-0.6-1.3-1.3-2.5-1.9-3.8c-1.8-3.4-3.8-6.8-6-10c-2.1-3.2-4.5-6.2-7.1-9c-0.5-0.6-1-1.2-1.6-1.7
	c2-0.5,4.1-1.1,6.1-1.7c3.6-1.2,7.1-2.8,10.3-5c1.5-1.1,3-2.2,4.5-3.4c1.5-1.2,3-2.5,4.4-3.9c1.3-1.3,2.5-2.6,3.8-4
	c0.6-0.7,1.3-1.4,1.9-2.1s1.2-1.4,1.9-2c1.2-1.2,2.5-2.7,2.3-4.5c-0.1-0.8-0.2-1.1-0.5-1.9c-0.1-0.3-0.3-0.6-0.5-0.8
	c-0.6-0.8-1.4-1.7-2.3-2.1c-0.5-0.2-0.8-0.4-1.4-0.5c-0.5-0.1-1-0.1-1.5-0.1c-0.8,0-1.7,0.2-2.5,0.4c-0.5,0.1-1,0.3-1.5,0.5
	c0.5-1.2,1.1-2.4,1.6-3.6c0.8-1.5,1.7-3,2.7-4.4c0.8-0.2,1.5-0.3,2.3-0.4c2.3-0.2,4.6-0.2,6.9,0c1.3,0.2,2.5,0.4,3.8,0.8
	c2.8,1.2,5.5,2.5,8.3,3.8c0.3,0.1,0.6,0.3,0.9,0.5c0.8,0.5,1.6,1.1,2.3,1.6c1.6,1.3,3.1,2.7,4.5,4.2s2.7,3.2,4,4.8
	c0.7,0.9,1.4,1.9,2,2.9c-1.2,0.3-2.4,0.7-3.5,1.2c-3.4,1.4-6.6,3.2-9.3,5.7c-1.2,1.2-2.3,2.6-3,4.2c-0.4,0.8-0.7,1.6-0.9,2.5
	c-0.3,1.1-0.2,2.3,0,3.4c0.3,1.8,1,3.5,1.8,5.1c0.8,1.7,1.9,3.2,3.3,4.4c1.5,1.2,3.1,2.1,5,2.7c0.9,0.3,1.9,0.3,2.8,0.3
	c1.1,0,2.2-0.2,3.3-0.6c1.8-0.6,3.3-1.8,4.7-3c0.6-0.5,1.2-1.1,1.8-1.7c0.8-0.8,1.5-1.7,2.2-2.6c1.1-1.5,1.9-3.3,2.5-5.1
	c0.7-2,1-4.1,1-6.2c0.1-2-0.2-4-0.9-5.8c-0.2-0.6-0.4-1.2-0.7-1.7c1.4-0.1,2.8-0.2,4.1-0.1c0.4,0,0.9,0,1.3,0c1.6,1,3.2,2,4.9,3
	c3.3,2,6.6,4,9.8,6c1.2,0.7,2.4,1.5,3.6,2.2c0.9,0.5,1.9,1,2.8,1.6c0.3,0.5,0.7,1,1,1.5c1,1.7,2,3.3,2.9,5.1c0.4,1.1,0.8,2.2,1,3.3
	c0,0.2,0,0.4,0,0.6c0,0.1,0,0.2-0.1,0.2c0,0,0,0.1-0.1,0.1c-0.9-0.6-1.8-1.2-2.7-1.7c-1.5-0.9-3.2-1.8-4.8-2.5
	c-1.9-0.9-3.8-1.8-5.8-2.3c-3.5-1-7.3-0.8-10.6,0.8c-0.7,0.3-1.3,0.9-1.8,1.4c-0.6,0.8-1,1.6-1.3,2.5c-0.1,0.5-0.2,1-0.2,1.5
	c0,0.4,0,1.1,0.1,1.4c0.1,0.5,0.3,0.9,0.5,1.3c0.3,0.5,0.8,1,1.1,1.4c2.6,2.8,6.1,4.7,9.7,5.8c1.9,0.6,3.9,1,5.8,1.2
	c0.9,0.1,1.7,0,2.6-0.1c1.1-0.1,2.3-0.3,3.4-0.6c0.9-0.2,1.8-0.7,2.7-1c0.7-0.3,1.3-0.7,1.9-1.1c5,3.9,9.8,8.1,14.3,12.5
	c4.8,4.7,9.2,9.7,13.4,15c5.1,6.7,9.5,13.8,12.8,21.5c2.3,5.5,3.9,11.2,4.8,17.1c0.2,1.8,0.3,3.6,0.3,5.4c-0.2,0.1-0.5,0.3-0.7,0.4
	c-2.3,1.5-4.6,3-6.8,4.6c-3.2,2.3-6.3,4.7-9.3,7.2c-2.8,2.3-5.5,4.9-8,7.6c-1.2,1.3-2.4,2.7-3.4,4.1c-0.9,1.3-1.6,2.7-2.2,4.2
	c-0.6-0.1-1.2-0.1-1.9-0.2c-2.1-0.3-4.3-0.8-6.5-0.8c-1.1,0-2.2,0.1-3.2,0.4c-0.5,0.1-1.1,0.4-1.5,0.8c-0.3,0.4-0.6,0.7-0.8,1.1
	c-0.4,0.6-0.3,1.5,0,2c0.2,0.3,0.4,0.6,0.7,0.7c0.3,0.2,0.7,0.3,1,0.3c0.1,0,0.3,0,0.5,0.1c-0.1,0-0.2,0-0.4-0.1
	c1.8,0.2,3.6,0.5,5.4,0.5c1.8,0.1,3.6,0,5.4-0.1c0,0.4,0,0.7,0,1.1c0,1,0.3,1.9,0.7,2.9c0.4,0.9,1,1.7,1.7,2.5
	c0.5,0.6,1.3,1.2,2,1.5c1,0.5,1.9,0.6,3,0.7c0.9,0.1,1.8-0.1,2.7-0.2c0.4-0.1,0.8-0.2,1.2-0.4c0.7-0.2,1.3-0.6,2-0.9
	c2.9-1.5,5.6-3.4,8.1-5.4c1.1,0.2,2.1,0.4,3.2,0.5c1.6,0.3,3.3,0.6,4.9,1c2.5,0.5,5.1,1,7.6,1.7c-1.3,0.3-2.7,0.6-4,0.9
	c-2.6,0.6-5.3,1.3-7.9,1.9c-2.6,0.6-5.1,1.3-7.6,2c-0.7,0-1.3,0-2,0c-4.9-0.1-9.9-0.6-14.8-1.2c0.2,0,0.4,0.1,0.6,0.1
	c-3.9-0.5-7.8-1.1-11.6-1.9c-2.5-0.5-5-1-7.4-1.6c-3.1-2.7-6.4-5.3-9.7-7.7c-3.4-2.5-7-4.9-10.6-6.9c-3.4-1.9-7-3.4-10.2-5.7
	c0.6-0.1,1.3-0.1,1.9-0.2c0.6-0.1,1.3-0.2,1.9-0.2c1.4-0.2,2.8-0.4,4.2-0.5c2.5-0.3,5.1-0.6,7.6-0.9c5-0.6,9.9-0.8,14.9-0.9
	c3.5,0,7,0.1,10.5,0.2c1.8,0.1,3.6,0.2,5.4,0.4c0.8,0.1,1.6,0.1,2.5,0.1c1,0,1.9-0.1,2.8-0.2c0.5-0.1,1-0.4,1.4-0.8
	c0.6-0.6,0.9-1.4,0.9-2.2c0-0.6-0.1-1.1-0.4-1.6c-0.4-0.6-1.1-1.3-1.9-1.4c-1.2-0.2-2.5-0.4-3.7-0.5c-1-0.1-2-0.1-2.9-0.1
	c-1.2-0.1-2.4-0.1-3.6-0.1c-2.8,0-5.6,0-8.3,0c-1.6,0-3.1,0-4.7,0c-1.4,0-2.7,0.1-4.1,0.1c-2.1,0.1-4.3,0.2-6.4,0.3
	c-4.1,0.3-8.2,0.8-12.3,1.4c-1.9,0.3-3.8,0.6-5.7,0.9c-1.9,0.4-3.7,0.8-5.6,1.2c-2.8,0.6-5.7,1.1-8.3,2.3c-0.6,0.2-1.1,0.5-1.7,0.8
	c-0.6,0.4-1.2,0.8-1.8,1.3c-0.2,0.1-0.3,0.3-0.5,0.5c-0.3,0.4-0.6,0.8-0.8,1.2c-0.4,0.7-0.6,1.4-1,2c-0.4,0.7-0.5,1.4-0.3,2.1
	c0.2,0.7,0.6,1.3,1.3,1.6c1.4,0.8,2.8,1.6,4.3,2.2c1,0.4,2,0.9,2.9,1.3c1.6,0.7,3.1,1.4,4.7,2.1c0,0,0,0,0,0c3,1.2,5.9,2.5,8.8,3.7
	c2.6,1.1,5.3,2.1,8,3.1c3.8,1.4,7.6,2.6,11.5,3.7c3,0.8,6,1.6,9,2.3c2.7,2.4,5.3,4.8,7.9,7.3c-1.4,0.4-2.8,0.9-4.1,1.4
	c-2,0.7-4,1.3-6,2c-2,0.7-3.9,1.5-5.7,2.6c-0.8,0.5-1.5,1-2.1,1.8c-0.7,0.8-1.1,1.7-1.7,2.5c-0.6,0.8-0.1,2.1,0.7,2.5
	c3.1,1.8,6.6,2.8,10,3.9c2.2,0.7,4.5,1.4,6.7,2c1.8,0.5,3.5,1,5.3,1.5c2.3,0.6,4.5,1.1,6.8,1.6c1.9,0.4,3.8,0.6,5.8,0.9
	c0.9,0.1,1.9,0.2,2.8,0.2c0.9,0,1.7-0.1,2.6-0.2c1.6-0.2,3.3-0.6,3.9-2.2c0.3-0.8,0.3-1.6-0.1-2.3c-0.3-0.7-0.9-1.2-1.5-1.6
	c-0.9-0.8-1.8-1.7-2.7-2.5c-1-0.9-2-1.8-2.9-2.7c-1.9-1.8-3.9-3.6-5.8-5.4c-1.3-1.2-2.7-2.5-4-3.8c0.7-0.2,1.4-0.4,2.1-0.6
	c3.7-1,7.4-1.9,11-2.9c2.1-0.5,4.2-1.1,6.4-1.6c1.4,0,2.7,0,4.1-0.1c3.9-0.1,7.9-0.5,11.8-1.3c1.6-0.3,3.1-0.7,4.7-1.2
	c1.5-0.4,3.1-1,4.4-2c0.5-0.4,0.9-0.7,1.2-1.1c0.5-0.2,0.8-0.6,1.1-1c0.4-0.6,0.5-1.4,0.3-2.1c-0.1-0.5-0.4-0.9-0.8-1.3
	c0,0,0-0.1,0-0.1c-0.2-0.4-0.6-0.7-0.9-1c-0.8-0.7-1.8-1.2-2.8-1.6c-2.8-1.1-5.7-1.7-8.6-2.3c-2.2-0.4-4.4-0.9-6.6-1.3
	c0.4-0.4,0.8-0.8,1.2-1.2c3.1-0.7,6.3-1.6,9.3-2.7c3.4-1.3,6.7-3.1,9.7-5.2c3-2.1,5.6-4.6,7.6-7.8c0.9-1.5,1.6-3.1,2.2-4.8
	c0.6-1.8,0.7-3.8,0.7-5.6c0-1.9-0.5-3.8-1-5.6c-0.2-0.9-0.5-1.8-0.8-2.6c-0.4-0.9-0.8-1.9-1.3-2.7c-1-1.5-2.8-2.4-4.6-2.3
	c-1,0.1-1.9,0.5-2.8,0.9c-1,0.5-2,0.9-2.9,1.5c-1.5,0.8-3,1.7-4.4,2.6c0,0-0.1,0.1-0.1,0.1c-0.5-5.2-1.8-10.4-3.5-15.3
	c-1.3-3.8-2.9-7.5-4.8-11.1c-1.8-3.4-3.7-6.8-5.9-10c-2.2-3.3-4.6-6.4-7.1-9.5c-2.4-3-5-5.9-7.6-8.7c-5.3-5.7-11.2-10.8-17.2-15.7
	c-0.6-0.5-1.2-0.9-1.8-1.4c0-0.1,0.1-0.2,0.1-0.2c0.5-0.7,0.8-1.6,1-2.5c0.1-0.5,0.1-1,0.1-1.6s-0.1-1.1-0.2-1.6
	c-0.1-0.8-0.4-1.6-0.7-2.4c-0.1-0.2-0.2-0.5-0.2-0.7c1.7,1,3.5,2,5.2,2.9c1.5,0.9,3.1,1.7,4.7,2.5c3.4,1.8,6.8,3.6,10.4,5.1
	c1.5,0.6,3.1,1.1,4.7,1.7c1.5,0.5,3.1,1.1,4.7,1.4c0.8,0.2,1.6,0.3,2.4,0.3c0.7,0.1,1.5,0,2.2-0.2c0.3,0,0.5-0.1,0.8-0.2
	c0.4-0.2,0.7-0.3,1-0.5c0.8-0.6,1.3-1.3,1.7-2.1c0.4-0.8,0.6-1.6,0.7-2.5c0-0.8-0.1-1.6-0.5-2.3c-0.7-1.4-2-2.4-3.3-3.3
	c-0.6-0.4-1.2-0.8-1.8-1.2c-0.7-0.4-1.3-0.9-2-1.3c-1.6-1.1-3.4-2-5.1-3c-3-1.6-6-3.1-9-4.6c-1.6-0.8-3.2-1.6-4.9-2.4
	c-1.6-0.8-3.2-1.5-4.8-2.3c-3.7-1.7-7.5-3.4-11.3-4.8c-3.7-1.4-7.4-2.7-11.2-3.8c0,0-0.1,0-0.1,0c-3-2.6-6.1-5.1-9.3-7.4
	c-3.2-2.3-6.5-4.5-9.9-6.6c-6.7-4.1-13.7-7.7-20.8-10.9c-7.3-3.2-14.9-5.8-22.6-7.8c-3.9-1-7.8-1.9-11.7-2.5s-7.9-1.3-11.9-1.6
	c-1.2-0.2-2.4-0.2-3.6-0.2C333.2,0,332.6,0,331.9,0L331.9,0L331.9,0z M341.3,5.2c7.9,1.1,15.8,2.8,23.4,5.1c-0.4,0-0.8,0-1.2,0
	c-3.9,0-7.8,0.8-11.5,2.1c-3.7,1.3-7.2,3.1-10.5,5.2c-2.9,1.9-5.5,4-8.1,6.3c-2.6,2.3-5.1,4.8-7.4,7.4c-0.4,0.5-0.8,0.9-1.2,1.4
	c-0.1-0.1-0.3-0.2-0.5-0.3c-1.5-1-3.2-1.8-4.8-2.6c-1-0.5-2.1-1-3.1-1.4c-0.1-0.3-0.3-0.6-0.4-0.9c-0.7-1.6-1.2-3.3-1.5-5
	c-0.2-1.7,0-3.5,0.1-5.2c0.1-0.6,0.2-1.1,0.4-1.6c0.5-1.1,1.1-2,1.8-2.9c1-1.3,2.3-2.4,3.6-3.5c0.9-0.7,1.8-1.3,2.8-1.8
	c1-0.6,2.2-1.1,3.3-1.6c1-0.4,2-0.7,3-0.9C333.5,4.4,337.4,4.7,341.3,5.2L341.3,5.2L341.3,5.2z M317.2,12.3c0,0.1-0.1,0.1-0.1,0.2
	C317.1,12.4,317.1,12.3,317.2,12.3L317.2,12.3L317.2,12.3z M393.6,25.3c-1.1-1.4-2.3-2.7-3.6-4c-0.6-0.6-1.2-1.2-1.9-1.7
	c2.7,1.4,5.4,2.9,8.1,4.4c5.7,3.2,11.2,6.9,16.5,10.9c-0.2,0-0.4,0-0.6-0.1c-1.1-0.1-2.2-0.2-3.3-0.3c-4.9-2.9-9.8-5.8-14.7-8.7
	C393.9,25.7,393.8,25.5,393.6,25.3L393.6,25.3L393.6,25.3z M352.3,19.7c0,0.1-0.1,0.1-0.1,0.2c-0.9,1.6-1.6,3.3-2.3,4.9
	c-0.5,1.2-1,2.4-1.5,3.6c-1,0.5-2,1.1-3,1.6c-1.7,1-3.3,2-4.9,3.2c-3.2,2.3-6.1,4.8-9,7.4c-1.5,1.4-3,2.8-4.4,4.3
	c-1.5,0.4-3,0.8-4.5,1.1c1-1.5,2-2.9,3.1-4.4c0.3,0,0.6-0.1,0.9-0.2c0.9-0.2,1.7-0.9,2.1-1.8c0.3-0.7,0.4-1.4,0.3-2.1
	c3.5-4,7.3-7.7,11.5-11c1.7-1.3,3.4-2.5,5.2-3.6c1.8-1.1,3.6-2,5.5-2.8C351.6,20,351.9,19.9,352.3,19.7L352.3,19.7L352.3,19.7z
	 M303.2,23.2c0.6,0.1,1.2,0.2,1.8,0.5c0.1,0.1,0.3,0.1,0.4,0.2c0.3,0.3,0.6,0.5,0.9,0.9c0.1,0.1,0.2,0.3,0.2,0.4
	c-3.5-0.8-7.1-1.1-10.8-1c1.2-0.4,2.4-0.6,3.7-0.8C300.7,23.2,302,23.1,303.2,23.2L303.2,23.2L303.2,23.2z M299.3,23.3
	c0,0-0.1,0-0.1,0C299.2,23.4,299.3,23.3,299.3,23.3L299.3,23.3L299.3,23.3z M309.3,31.1c1.5,0.5,3,1,4.4,1.6c0.9,1.6,2,3,3.2,4.3
	c0.8,0.8,1.7,1.6,2.6,2.3c-1.7,2.4-3.4,4.9-4.9,7.5c-0.9-0.5-1.9-1-2.9-1.5c-2.1-1.1-4.4-2-6.6-2.7
	C306.8,38.8,308.3,35.1,309.3,31.1L309.3,31.1L309.3,31.1z M357.4,31.7L357.4,31.7c0.1,0,0.1,0.1,0.2,0.1
	C357.5,31.7,357.4,31.7,357.4,31.7L357.4,31.7L357.4,31.7z M355.3,32.2c-0.4,0.5-0.7,0.9-1.1,1.3c-1.2,1.4-2.5,2.8-3.7,4.2
	c-1.2,1.4-2.5,2.7-3.8,3.9c-1.4,1.3-2.8,2.5-4.3,3.6c-1.2,0.9-2.4,1.7-3.7,2.5c-1.3,0.8-2.7,1.4-4.1,2.1c-1.7,0.7-3.5,1.3-5.3,1.9
	c0.3-0.3,0.6-0.6,0.9-0.9c1.4-1.5,2.9-3,4.4-4.4c1-0.3,1.9-0.7,2.8-1.1c1.8-0.7,3.6-1.5,5.3-2.5c1.5-0.9,2.9-2,4.1-3.3
	c0.6-0.6,1.1-1.4,1.6-2.1c0.4-0.7,0.7-1.4,1-2.2c0.8-0.4,1.6-0.9,2.4-1.3c1-0.5,2-1.1,3.1-1.6C355.1,32.2,355.2,32.2,355.3,32.2
	L355.3,32.2L355.3,32.2z M400.2,34.3c0.2,0.1,0.5,0.3,0.7,0.4c-0.1,0-0.3,0-0.4,0C400.4,34.6,400.3,34.5,400.2,34.3L400.2,34.3
	L400.2,34.3z M274.2,37.5c-0.2,0.4-0.3,0.8-0.5,1.3c-1.5,4.3-2.5,8.8-3.5,13.2c-0.6,2.4-1.2,4.8-1.8,7.3c-0.8,3.5-1.5,7-2.3,10.5
	c-0.3,1.5-0.7,3-1,4.6c-0.5,2-0.9,3.9-1.5,5.8c-0.3,0.8-0.6,1.6-0.9,2.4c-0.3,0.7-0.5,1.4-0.8,2.1c-0.2,0.5-0.5,1-0.8,1.4
	c-0.1,0.1-0.2,0.2-0.2,0.2c0-0.1-0.1-0.1-0.1-0.2c0,0.1,0.1,0.1,0.1,0.1c-0.2-0.3-0.4-0.6-0.7-0.8c-1-1.3-1.8-2.7-2.6-4
	c-0.4-0.7-0.8-1.4-1.2-2.1c-0.8-1.3-1.4-2.7-2-4.2c-0.5-1.3-1-2.6-1.2-4c-0.2-1.4-0.2-2.9,0-4.3c0.2-1.2,0.6-2.4,1-3.5
	c2-4.5,4.6-8.7,7.5-12.5c-0.1,0.1-0.2,0.2-0.2,0.3C265.3,46.2,269.6,41.7,274.2,37.5L274.2,37.5L274.2,37.5z M395.2,40.5
	c0.4,0.7,0.7,1.4,1,2.1c0.4,0.9,0.6,1.8,0.8,2.8c0.1,1.2,0.1,2.4,0,3.6c-0.2,1.3-0.6,2.5-1,3.7c-0.4,0.9-0.9,1.8-1.5,2.7
	c-0.5,0.6-1.1,1.2-1.6,1.8c-0.6,0.6-1.3,1.3-2,1.8c-0.3,0.2-0.5,0.3-0.8,0.5c-0.5,0.2-0.9,0.3-1.4,0.4c-0.4,0-0.7,0-1.1,0
	c-0.5-0.1-0.9-0.2-1.4-0.4c-0.6-0.3-1.2-0.7-1.8-1c-0.4-0.3-0.7-0.7-1-1c-0.7-1-1.3-2.1-1.8-3.3c-0.3-0.8-0.6-1.5-0.7-2.3
	c0-0.2,0-0.5,0-0.7c0.1-0.5,0.2-0.9,0.4-1.3c0.4-0.8,0.8-1.5,1.3-2.2c0.7-0.9,1.5-1.6,2.4-2.3c1.8-1.3,3.8-2.4,5.8-3.3
	C392.1,41.4,393.6,40.9,395.2,40.5L395.2,40.5L395.2,40.5z M418.9,40.5c0.1,0,0.3,0.1,0.4,0.1c0.1,0,0.2,0,0.4,0.1
	c0.3,0.3,0.6,0.5,0.9,0.8C420,41.2,419.5,40.9,418.9,40.5L418.9,40.5L418.9,40.5z M288.5,42.2c1.5,0.2,3,0.5,4.5,0.8
	c1.8,0.3,3.5,0.6,5.2,1.1c1,0.2,1.9,0.5,2.9,0.8c-0.5,1.4-0.9,2.8-0.5,4.2c0.2,0.7,0.7,1.3,1.2,1.8c0.5,0.5,1.2,0.8,2,0.9
	c1.8,0.3,3.7,0.2,5.5,0c1-0.1,1.9-0.2,2.9-0.4c-0.6,1.1-1.2,2.2-1.8,3.3c-0.5,0-1.1,0-1.6,0c-3.2,0-6.4-0.1-9.6-0.5
	c-3.4-0.5-6.9-1.3-10.1-2.6c-1.4-0.6-2.8-1.3-4-2.3c-0.8-0.7-1.5-1.4-2.2-2.2c-0.3-0.4-0.6-0.8-0.8-1.3c-0.1-0.2-0.1-0.4-0.2-0.6
	c0-0.1,0-0.2,0-0.4c0.1-0.3,0.1-0.5,0.2-0.8c0.1-0.3,0.3-0.5,0.4-0.7c0.2-0.2,0.4-0.4,0.6-0.5c0.3-0.2,0.5-0.4,0.8-0.5
	c0.4-0.1,0.7-0.2,1.1-0.3C286.1,42,287.3,42.1,288.5,42.2L288.5,42.2L288.5,42.2z M431.7,45.3c-0.3-0.4-0.7-0.8-1-1.2
	c2.4,0.9,4.8,1.8,7.1,2.8c2.4,1,4.7,2.1,7,3.2c1.1,0.5,2.2,1,3.3,1.6c2.3,1.2,4.5,2.3,6.8,3.5c1.7,0.9,3.5,1.8,5.2,2.7
	c1,0.5,1.9,1,2.8,1.5c1.2,0.7,2.4,1.3,3.5,2.1c1.1,0.7,2.1,1.4,3.1,2.1c0.8,0.5,1.6,1,2.3,1.6c0.3,0.2,0.5,0.5,0.8,0.7
	c0,0,0,0.1,0,0.1c0,0.2-0.1,0.4-0.2,0.6c0,0.1-0.1,0.2-0.1,0.2c-0.1,0-0.1,0-0.2,0.1c-0.4,0-0.8,0-1.2,0c-1.7-0.3-3.4-0.9-5.1-1.4
	c-1.9-0.6-3.8-1.3-5.7-2c-3.4-1.5-6.6-3.2-9.9-5c-1.3-0.7-2.5-1.3-3.8-2c-3-1.7-6-3.3-9-5c-0.9-0.5-1.8-1-2.8-1.5
	C433.9,48.2,432.8,46.7,431.7,45.3L431.7,45.3L431.7,45.3z M304,45.8c1.2,0.4,2.4,0.8,3.5,1.3c-0.1-0.1-0.3-0.1-0.4-0.2
	c1,0.4,1.9,0.9,2.9,1.3c-0.2,0-0.4,0.1-0.7,0.1c-1.7,0.2-3.5,0.4-5.3,0.2c-0.1,0-0.1,0-0.2,0c-0.1-0.1-0.1-0.1-0.2-0.2
	c-0.1-0.1-0.1-0.2-0.2-0.3c0,0,0-0.1,0-0.2c0-0.1,0-0.3,0-0.4C303.7,46.9,303.9,46.3,304,45.8L304,45.8L304,45.8z M303.6,47.1
	c0,0.1,0,0.2,0,0.2C303.6,47.3,303.6,47.2,303.6,47.1L303.6,47.1L303.6,47.1z M303.5,47.5c0,0.1,0,0.2,0,0.4
	C303.6,47.8,303.5,47.6,303.5,47.5L303.5,47.5L303.5,47.5z M303.6,48.1C303.6,48.1,303.6,48.2,303.6,48.1L303.6,48.1L303.6,48.1
	c0.1,0.1,0.1,0.1,0.1,0.2C303.7,48.2,303.6,48.2,303.6,48.1L303.6,48.1L303.6,48.1z M303.7,48.3c0.1,0,0.1,0.1,0.2,0.1
	C303.9,48.4,303.8,48.4,303.7,48.3L303.7,48.3L303.7,48.3z M304.1,48.6c0.1,0,0.1,0.1,0.2,0.1C304.2,48.6,304.1,48.6,304.1,48.6
	L304.1,48.6L304.1,48.6z M321.3,49.9c0.5-0.1,1-0.2,1.5-0.3c-0.5,0.5-0.9,1.1-1.4,1.6c-0.5-0.3-0.9-0.7-1.4-1
	C320.4,50,320.9,50,321.3,49.9L321.3,49.9L321.3,49.9z M335,49.6c0,0-0.1,0-0.2,0.1C334.9,49.7,335,49.7,335,49.6L335,49.6L335,49.6
	z M318.1,53.1c0.3,0.2,0.6,0.5,1,0.7c0,0.1-0.1,0.1-0.1,0.2c-0.3,0-0.5,0.1-0.8,0.1c-0.2,0-0.4,0-0.6,0.1
	C317.7,53.8,317.9,53.5,318.1,53.1L318.1,53.1L318.1,53.1z M318.6,54.1c-0.1,0-0.1,0-0.2,0C318.5,54.1,318.5,54.1,318.6,54.1
	L318.6,54.1L318.6,54.1z M314.8,59.2c-0.1,0.1-0.1,0.2-0.2,0.3C314.7,59.4,314.7,59.3,314.8,59.2C314.8,59.2,314.8,59.2,314.8,59.2
	L314.8,59.2L314.8,59.2z M417.4,61.5c1.5,0.3,2.9,0.7,4.2,1.3c2.3,1,4.5,2.2,6.6,3.4c0.2,0.1,0.4,0.2,0.6,0.4
	c-0.7,0.2-1.3,0.4-2,0.5c-1.1,0.1-2.3,0.1-3.5,0c-1.8-0.3-3.5-0.8-5.2-1.5c-1.4-0.6-2.8-1.3-4.1-2.2c-0.4-0.3-0.8-0.7-1.2-1.1
	c0.2-0.1,0.3-0.2,0.5-0.3c0.6-0.2,1.2-0.4,1.8-0.5C416,61.5,416.7,61.5,417.4,61.5L417.4,61.5L417.4,61.5z M472.9,65.9
	c0,0.1,0,0.1,0,0.2C472.9,66,472.9,65.9,472.9,65.9L472.9,65.9L472.9,65.9z M331.2,66.1c0,0,0.1,0.1,0.1,0.1
	C331.2,66.2,331.2,66.1,331.2,66.1L331.2,66.1L331.2,66.1z M472.7,66.3c0,0.1-0.1,0.1-0.1,0.2l0,0C472.6,66.5,472.6,66.4,472.7,66.3
	L472.7,66.3L472.7,66.3z M472.8,66.4C472.8,66.4,472.8,66.4,472.8,66.4C472.8,66.4,472.8,66.4,472.8,66.4L472.8,66.4L472.8,66.4z
	 M254.4,75.3c0,0.1,0,0.1,0.1,0.1C254.4,75.4,254.4,75.3,254.4,75.3L254.4,75.3L254.4,75.3z M342.7,85.2c0.7,1.4,1.4,2.9,2,4.4
	c0.9,2.1,1.7,4.3,2.3,6.5c0.6,2.1,1.3,4.1,1.6,6.2c0.1,0.8,0.1,1.7,0,2.5c0,0.2-0.1,0.4-0.2,0.7c-0.2,0.4-0.4,0.8-0.7,1.2
	c-0.2-0.1-0.3-0.1-0.5-0.2c-0.1-0.1-0.2-0.1-0.4-0.2c-0.2-0.2-0.4-0.4-0.6-0.6c-0.5-0.7-0.9-1.3-1.4-2c-0.6-0.8-1.2-1.7-1.8-2.6
	c-0.6-0.8-1.1-1.7-1.6-2.6c-0.6-1-1.1-2-1.6-3c-0.4-1-0.7-2.1-0.9-3.2c-0.1-0.9-0.1-1.8,0-2.7c0.1-0.4,0.2-0.8,0.3-1.2
	c0.2-0.4,0.4-0.7,0.6-1c0.5-0.5,1-1,1.5-1.5C341.9,85.6,342.3,85.4,342.7,85.2L342.7,85.2L342.7,85.2z M261.1,86.7L261.1,86.7
	C261.2,86.7,261.2,86.7,261.1,86.7C261.2,86.7,261.2,86.7,261.1,86.7L261.1,86.7L261.1,86.7z M497.4,137.8c0.1,0,0.2,0.1,0.3,0.1
	l0,0C497.6,137.9,497.5,137.8,497.4,137.8L497.4,137.8L497.4,137.8z M497.2,137.9c0.1,0,0.1,0,0.2,0
	C497.4,137.9,497.3,137.9,497.2,137.9L497.2,137.9L497.2,137.9z M497.7,137.9c0,0,0.1,0,0.1,0l0,0c0,0,0,0,0,0.1
	c0.3,0.5,0.6,1.1,0.9,1.7c0.3,0.9,0.6,1.8,0.9,2.8c0.3,1.1,0.6,2.2,0.8,3.3c0.1,1.1,0.1,2.2,0,3.3c-0.2,1.1-0.5,2.1-0.9,3.2
	c-0.6,1.5-1.4,2.8-2.4,4.1c-1.2,1.5-2.7,2.8-4.2,4.1c-2.7,2-5.7,3.7-8.8,5.1c-1.4,0.6-2.8,1.1-4.3,1.5c2.1-3,3.8-6.2,5-9.6
	c1.3-3.6,1.9-7.5,2.1-11.4c0-0.6,0.1-1.2,0.1-1.9c0.1-0.1,0.2-0.1,0.3-0.2c1.1-0.7,2.1-1.4,3.2-2c2.2-1.4,4.4-2.8,6.8-3.9
	C497.5,138,497.6,138,497.7,137.9L497.7,137.9L497.7,137.9z M479.9,148.8c-0.5,2.9-1.2,5.7-2.2,8.4c-1.3,2.8-3,5.4-4.8,7.9
	c-1.2,1.5-2.5,2.9-3.9,4.3c-0.1,0.1-0.3,0.3-0.4,0.4c-0.8,0.1-1.6,0.3-2.4,0.4c-3.4,0.4-6.8,0.8-10.3,0.9c0.5-1,1.1-1.9,1.8-2.8
	c1-1.2,2.1-2.4,3.2-3.6c1.3-1.4,2.6-2.7,4-4c2.9-2.7,6.1-5.2,9.2-7.6c-0.2,0.1-0.4,0.3-0.5,0.4C475.7,151.8,477.8,150.2,479.9,148.8
	L479.9,148.8L479.9,148.8z M394.6,161.4c0.1,0.1,0.3,0.2,0.4,0.4c1.1,0.8,2.1,1.6,3.2,2.3c1.1,0.8,2.3,1.4,3.5,2.1
	c2.4,1.3,4.9,2.4,7.3,3.7c2.5,1.3,4.8,2.9,7.2,4.5c1.9,1.3,3.8,2.6,5.6,4c-1.9-0.6-3.9-1.2-5.8-1.8c-3.6-1.2-7.1-2.6-10.6-4
	c-3.3-1.4-6.6-2.8-9.9-4.3c-1.4-0.6-2.7-1.2-4.1-1.9c-0.9-0.4-1.8-0.8-2.7-1.2c-0.7-0.3-1.3-0.6-1.9-1c0.6-0.4,1.3-0.8,2-1.1
	C390.8,162.2,392.7,161.7,394.6,161.4L394.6,161.4L394.6,161.4z M455.3,175.2c1.8,0.2,3.6,0.4,5.4,0.6c-1,0.6-1.9,1.2-3,1.7
	c-0.3,0.1-0.6,0.2-1,0.3c-0.3,0-0.6,0-1,0c0,0,0,0,0,0c0,0-0.1-0.1-0.2-0.1c-0.2-0.2-0.4-0.4-0.5-0.5c-0.1-0.2-0.2-0.4-0.4-0.6
	c0-0.1-0.1-0.3-0.1-0.4c0-0.3,0-0.7,0-1C454.9,175.2,455.1,175.2,455.3,175.2L455.3,175.2L455.3,175.2z M438.4,187.3
	c2.5,0.4,5,0.8,7.5,1.2c2,0.3,4,0.6,6.1,0.8c-2.9,0.8-5.9,1.6-8.8,2.5C441.6,190.3,440,188.8,438.4,187.3L438.4,187.3L438.4,187.3z
	 M431.9,199.6c1.8-0.5,3.6-1.1,5.3-1.7c1.7-0.6,3.5-1.1,5.2-1.6c3.9,3.6,7.8,7.2,11.6,10.8c1,1,2,1.9,3.1,2.9
	c0.4,0.4,0.9,0.8,1.3,1.2c0.3,0.3,0.6,0.6,1,0.9c-1,0.1-2,0.1-3,0.1c-1.3-0.1-2.6-0.2-3.9-0.4c-3.5-0.5-7-1.4-10.5-2.3
	c-2-0.5-3.9-1-5.8-1.6s-3.9-1.1-5.8-1.8c-1.1-0.4-2.1-0.7-3.2-1.1c-0.9-0.3-1.8-0.6-2.6-1c-0.4-0.1-0.7-0.3-1.1-0.5
	c0,0,0.1-0.1,0.1-0.1c0.2-0.2,0.4-0.5,0.7-0.7c1-0.7,2.1-1.3,3.2-1.8C429,200.5,430.4,200.1,431.9,199.6L431.9,199.6L431.9,199.6z
	 M393.8,172.9c-0.2-0.1-0.4-0.2-0.6-0.2C393.4,172.8,393.6,172.8,393.8,172.9L393.8,172.9L393.8,172.9z"/>
<path class="st1" d="M51.7,253.5c-0.8,0.2-1.6,0.7-2.2,1.3c-0.1,0.1-0.2,0.2-0.3,0.2c-1,0.7-1.9,1.4-2.8,2.2
	c-0.5,0.5-1.1,1.2-1.5,1.8c-0.4,0.5-0.7,1-1.1,1.6c-1.7,2.5-2.9,5.3-4,8c-1,2.4-1.9,4.9-2.8,7.4c-1,2.8-1.9,5.6-2.8,8.4
	c-0.5,1.5-0.9,2.9-1.4,4.4c-0.3,0.1-0.7,0.3-1,0.4c-2.2,1-4.3,2.1-6.3,3.5c-1.8,1.3-3.5,2.8-5,4.4c-1.5,1.5-2.7,3.3-3.6,5.3
	c-0.9,2-1.4,4.1-1.7,6.2c-0.4,2.3-0.5,4.6-0.4,6.9c0.2,2.7,0.4,5.4,0.6,8.2c0.1,0.6,0.4,1,1,1c0.5,0,1.1-0.5,1-1
	c-0.2-2-0.3-4-0.5-6.1c-0.2-2.3-0.3-4.6-0.1-6.9c0.4-2.5,0.9-4.9,1.8-7.2c0.5-1.1,1.1-2.1,1.8-3c1.5-2,3.4-3.7,5.4-5.2
	c-0.1,0.1-0.1,0.1-0.2,0.2c2-1.5,4.1-2.8,6.4-3.8c-0.1,0.2-0.1,0.5-0.2,0.7c-0.7,1.1-1.4,2.3-2,3.4C24,305.9,19.7,317,16.6,328.3
	c-1.6,5.8-2.9,11.6-4,17.5c-1.2,6-2,12.1-2.6,18.2c-0.5,6-0.6,12-0.2,17.9c0.4,5.8,1.2,11.7,2.7,17.3c0.7,2.6,1.6,5.2,2.7,7.7
	c1.1,2.6,2.5,5,4.3,7.2c0.3,0.3,0.5,0.6,0.8,0.9c0.2,2,0.4,4,0.7,6c0.2,1.3,0.5,2.6,0.8,3.9c0.4,1.6,1.1,3.2,1.8,4.7
	c0.6,1.3,1.4,2.5,2.3,3.6c0.9,1.1,1.9,2,3.1,2.8c2.5,1.8,5.4,3,8.5,3c0.8,0,1.8-0.2,2.5-0.3c0.5-0.1,1.1-0.2,1.6-0.4
	c1.4-0.4,2.7-1,4-1.6c0.2-0.1,0.5-0.2,0.7-0.3c4.3,4.1,8.6,8.2,13.4,11.7c0.5,0.2,1,0.4,1.5,0.7c1.2,0.3,2.3,0.3,3.5,0
	c1.6-0.5,3-1.5,3.9-3c0.9-1.5,1.1-3.3,0.7-5c-0.2-0.5-0.4-1-0.7-1.5c-0.6-1-1.4-1.8-2.3-2.3c-0.1-0.1-0.3-0.2-0.4-0.3
	c-2.3-1.9-4.5-3.9-6.7-5.9c-1-0.9-2-1.9-3-2.8c0.5-0.7,1-1.3,1.5-2c1.6-2.1,2.9-4.4,4.1-6.8c2.5-4.8,4.4-9.9,6.3-15
	c4.1-11,6.2-22.6,7.9-34.2c0.9-6.3,1.7-12.6,2.2-19c0.5-6.2,0.7-12.4,0.8-18.5c0.1-6.2,0.2-12.4,0-18.7c-0.2-6.3-0.6-12.5-1-18.8
	c-0.1-1.9-0.3-3.8-0.5-5.7c-0.2-2.6-0.4-5.3-0.7-7.9c-0.1-1.2-0.2-2.3-0.3-3.5c-0.3-3.1-0.8-6.1-1.6-9.1c-0.4-1.7-1.3-3.4-2.5-4.6
	c-0.3-0.3-0.6-0.6-0.9-0.8c-0.1-0.6-0.3-1.1-0.5-1.7c-0.4-1.2-1-2.4-1.9-3.4c-0.6-0.6-1.3-1.2-2-1.8c-0.5-0.5-1.1-0.9-1.9-1.1
	c-1-0.3-2.4-0.2-3.2,0.4c-1.3,1-2.7,1.9-4,2.9c-0.1-0.6-0.2-1.2-0.3-1.9c-0.2-0.8-0.7-1.6-1.3-2.2c-0.6-0.6-1.3-1-2.2-1.3
	c-0.4-0.1-0.9-0.2-1.3-0.2S52.2,253.4,51.7,253.5L51.7,253.5L51.7,253.5z M49,255.2c-0.1,0.1-0.2,0.2-0.4,0.3
	C48.8,255.4,48.9,255.3,49,255.2L49,255.2L49,255.2z M63.4,274.9c0.2,0.8,0.3,1.7,0.5,2.5c0.5,4.1,0.9,8.2,1.3,12.3
	c0.2,1.7,0.3,3.4,0.5,5.2c0.2,1.6,0.2,3.1,0.3,4.7c0.2,2.5,0.3,5,0.5,7.5c0.6,10,0.6,19.9,0.4,29.9c-0.1,6.5-0.4,13-1,19.4
	c-0.1,1-0.2,2-0.4,3c-0.5,3.4-1,6.8-1.7,10.1c0-2.1,0-4.3,0-6.4c0-0.1,0-0.2,0-0.3c0.1-0.5,0.2-0.9,0.3-1.4c0.2-1.6,0.2-3.2,0.3-4.8
	c0.1-1.2,0.1-2.4,0.1-3.5c0.1-3.1,0-6.1-0.3-9.2c-0.2-1.8-0.5-3.7-0.9-5.5c-0.1-3-0.2-6-0.3-9c-0.2-4.8-0.3-9.5-0.5-14.2
	c-0.1-2.6-0.3-5.2-0.4-7.8c-0.3-5.6-0.7-11.2-1-16.8c-0.2-3.4-0.5-6.8-0.8-10.2c-0.1-0.8-0.1-1.5-0.2-2.3
	C61.1,277,62.2,275.9,63.4,274.9L63.4,274.9L63.4,274.9z M50.2,293.1c0.1,0.1,0.2,0.2,0.2,0.2c-0.1,4-0.1,8-0.2,11.9
	c-0.1,5.3-0.1,10.5-0.2,15.8c0,0.8,0,1.6,0,2.4c-0.2,1-0.2,2-0.2,3c0,1,0.1,1.9,0.2,2.9c0.1,5.6,0.2,11.2,0.8,16.8
	c0.5,5.3,0.7,10.8,2.7,15.8c0.3,0.9,0.8,1.8,1.3,2.7c0,1.2,0,2.5,0,3.7c0,6.2-0.2,12.3-0.7,18.5c-0.2,2.7-0.5,5.3-0.8,8
	c-0.2,2.5-0.4,5.1-0.8,7.6c-0.1,0.5-0.1,0.9-0.2,1.4c-0.6,1-1.2,1.9-1.9,2.8c-1.6,1.9-3.3,3.7-5.2,5.3c-0.7,0.5-1.4,1-2.1,1.4
	c-0.5-1.6-0.8-3.2-1.2-4.8c-0.4-2.1-0.7-4.2-1-6.3c-0.8-6.2-1-12.4-1.2-18.7c-0.1-6.4,0.1-12.8,0.4-19.2c0.3-6.4,0.8-12.7,1.3-19.1
	c0.5-6.2,1.1-12.5,2-18.6c1.2-8.7,2.7-17.5,4.6-26.1c0.5-2.1,1-4.2,1.5-6.3C49.8,293.8,50,293.4,50.2,293.1L50.2,293.1L50.2,293.1z
	 M20.4,332.3c1.8-7.1,4-14.1,6.8-20.9c-0.6,2.8-1.1,5.7-1.6,8.5c-0.5,2.8-1,5.6-1.4,8.5c-0.8,3.4-1.4,6.8-2,10.1
	c-1.1,6.3-2,12.7-2.6,19c-0.5,6-0.6,12.1-0.2,18.1c0.1,1,0.1,2,0.2,2.9c-0.2,5.1-0.2,10.3-0.2,15.4c0,2.5,0,5.1,0.1,7.6
	c-1.9-4.8-3.1-9.9-3.8-15c-1.4-10.5-1-21.1,0.3-31.5C17,347.4,18.5,339.8,20.4,332.3L20.4,332.3L20.4,332.3z M53.2,314.7
	c0.1,2.1,0.2,4.2,0.2,6.4c-0.1,0-0.3,0-0.4,0C53.1,318.9,53.1,316.8,53.2,314.7L53.2,314.7L53.2,314.7z M53.2,323.2
	c0.1,0,0.2,0.1,0.3,0.1c0.2,3.8,0.3,7.7,0.5,11.5c-0.1-0.2-0.3-0.5-0.4-0.8c-0.2-0.5-0.4-1.1-0.6-1.7c0-1.3,0-2.5,0-3.8
	c0-1.6,0-3.2,0-4.8c0-0.2,0-0.4,0-0.5C53.1,323.3,53.1,323.3,53.2,323.2c0.1,0.1,0.2,0.1,0.3,0.1c0,0-0.1,0-0.1,0c0,0,0,0,0,0
	c0,0,0,0,0,0C53.3,323.3,53.3,323.2,53.2,323.2L53.2,323.2L53.2,323.2z M43.7,325.5c0,0.2,0,0.4-0.1,0.6
	C43.6,325.9,43.6,325.7,43.7,325.5L43.7,325.5L43.7,325.5z M53.5,333.9c0,0,0,0.1,0,0.1C53.5,333.9,53.5,333.9,53.5,333.9
	L53.5,333.9L53.5,333.9z M53.7,346.9c-0.3-3.1-0.5-6.2-0.6-9.4c0.3,0.2,0.6,0.3,0.9,0.5c0,0,0,0,0.1,0c0,1.1,0.1,2.2,0.1,3.2
	c0.1,3.6,0.3,7.1,0.4,10.7c0.1,1.4,0.1,2.8,0.1,4.2c-0.1-0.5-0.2-1-0.2-1.5C54.2,352.1,54,349.5,53.7,346.9L53.7,346.9L53.7,346.9z
	 M32.8,353c0,0,0,0.1,0,0.1c-0.4,5.6-0.7,11.2-0.9,16.7C31.8,364.3,32.2,358.6,32.8,353L32.8,353L32.8,353z M16,354.4
	c0,0.1,0,0.2-0.1,0.4C16,354.7,16,354.5,16,354.4L16,354.4L16,354.4z M31.5,421.8c0.5,0.1,1.1,0.2,1.7,0.3c1,1.4,2.1,2.8,3.1,4.2
	c0.6,0.7,1.1,1.4,1.7,2.1c-0.2,0-0.3,0.1-0.5,0.1c-0.1,0-0.2,0-0.3,0c-0.3-0.1-0.6-0.2-0.9-0.3c-0.6-0.3-1.2-0.7-1.8-1.1
	c-0.3-0.2-0.5-0.5-0.8-0.8c-0.6-0.9-1.1-1.8-1.6-2.8C31.9,423,31.7,422.4,31.5,421.8L31.5,421.8L31.5,421.8z"/>
<path class="st1" d="M304.2,267.7c-0.6,0.1-1.1,0.2-1.7,0.4c-3,1-5.5,3-7.6,5.2c-1.9,2-3.5,4.4-5,6.7c-1.4,2.2-2.7,4.6-3.9,7
	c-0.2,0.3-0.4,0.6-0.5,0.9c-1.5,2.2-2.8,4.6-4,7c-2.7,5.3-4.6,11.1-6.1,16.9c-1.6,5.9-2.9,11.9-3.8,17.9c-1,6.3-1.6,12.7-2,19.1
	c-0.3,4.2-0.5,8.3-0.5,12.5c0,0.2,0,0.5,0,0.7c-0.5,6.5-0.6,13.1-0.5,19.6c0,6.6,0.2,13.2,1.2,19.8c0.4,2.9,0.9,5.8,1.6,8.6
	c0.8,3.2,2,6.4,3.5,9.4c1.2,2.5,2.9,4.9,4.6,7.1c0.9,1.2,1.8,2.4,2.8,3.6c1.1,1.3,2.5,2.3,3.9,3.2c0.7,0.4,1.7,0.8,2.4,1.1
	c0.6,0.2,1.1,0.4,1.7,0.5c1.5,0.4,3.1,0.6,4.7,0.6c2.2,0.1,4.3-0.5,6.2-1.4c0.5,0,0.9,0.1,1.4,0.1c0.7,0,1.6-0.2,2.3-0.4
	c1.4-0.3,2.7-1,3.9-1.6c1.5-0.8,2.9-1.9,4.2-2.9c2.1-1.7,3.9-3.8,5.5-6c1.6-2.2,2.9-4.8,4-7.3c2.4-5.3,4.1-10.8,5.5-16.4
	c1.6-6.3,2.6-12.8,3.2-19.2c0.7-6.3,1.1-12.7,1.2-19.1c0.1-6.6-0.1-13.1-0.6-19.7c-0.5-6.7-1.1-13.4-2-20.1
	c-0.9-6.4-2-12.8-3.2-19.1c-1.2-6.1-2.6-12.1-4.4-18.1c-1.9-6.1-4.8-12.1-10.2-15.7c-1.4-1-3.2-1.2-4.9-1.3c-0.1,0-0.1,0-0.2,0
	C305.8,267.4,304.8,267.5,304.2,267.7L304.2,267.7L304.2,267.7z M297.1,290.1c1.3-2.3,2.6-4.6,4.2-6.8h0c0.6,0.1,1.1,0.2,1.7,0.4
	c0.2,0.1,0.3,0.2,0.5,0.3c0.1,0.1,0.3,0.3,0.4,0.4c0.7,1,1.2,2.1,1.7,3.3c-0.1-0.2-0.2-0.5-0.3-0.8c0.6,1.4,1.2,2.8,1.8,4.2
	c0.8,2,1.5,4,2.2,6.1c-0.7,0.1-1.4,0.4-2.1,0.6c-1.2,0.4-2.4,1-3.5,1.6c-0.2,0.1-0.4,0.2-0.6,0.4c-0.4-0.8-0.9-1.6-1.3-2.4
	c-0.3-0.5-0.7-1.1-1-1.6c-0.3-0.5-0.6-1-0.9-1.5c-0.5-0.8-1.4-1.4-2.4-1.4c-0.6,0-1.3,0.1-1.8,0.2
	C295.9,292.2,296.5,291.1,297.1,290.1L297.1,290.1L297.1,290.1z M297.1,295.9C297.2,295.9,297.2,295.9,297.1,295.9
	C297.2,295.9,297.2,295.9,297.1,295.9c0.1,0,0.1,0.1,0.2,0.1c0.5,0.7,0.9,1.5,1.4,2.3c0.6,1,1.1,2,1.6,3c0.1,0.1,0.1,0.2,0.2,0.4
	c-0.3,0.2-0.5,0.5-0.8,0.7c-1.9,1.6-3.4,3.7-4.9,5.6c-1.4,1.9-2.7,3.9-4,5.9c-2.7,4.2-4.8,8.8-6.4,13.5c0.6-2.7,1.2-5.4,1.9-8.1
	c1.8-7,3.9-13.9,6.6-20.5c0.1-0.1,0.2-0.3,0.3-0.4c0.4-0.5,0.8-0.9,1.3-1.4c0.4-0.3,0.8-0.5,1.3-0.7c0.4-0.1,0.7-0.2,1.1-0.3
	C297,295.9,297.1,295.9,297.1,295.9L297.1,295.9L297.1,295.9z M312.1,310c0.2,1,0.3,2.1,0.5,3.1c2,15.8,1.8,31.8-0.2,47.5
	c-0.5,3.5-1.1,6.9-2,10.3c-0.8,3-1.9,6-3.1,9c-0.5,1.2-1.1,2.4-1.8,3.5c-0.1-0.1-0.2-0.2-0.3-0.3c0-0.1-0.1-0.1-0.1-0.2
	c-0.9-1.3-1.8-2.6-2.5-4c-1.8-3.2-3.5-6.4-5-9.8c-0.9-2.2-1.6-4.4-2.2-6.6c-0.6-2.2-1-4.4-1.4-6.6c-0.3-2.2-0.4-4.4-0.4-6.6
	c0-2.5,0.2-4.9,0.5-7.4c0.3-2.2,0.8-4.3,1.3-6.5c0.6-2.3,1.4-4.5,2.3-6.7c2.2-4.9,5-9.4,8.1-13.6c1.1-1.4,2.3-2.7,3.7-3.9
	c0.5-0.4,1-0.7,1.6-1C311.3,310.2,311.7,310.1,312.1,310L312.1,310L312.1,310z M279.4,385.4c-0.1-5-0.1-9.9,0.1-14.9
	c0.1-4,0.4-8.1,0.7-12.1c0.4,4.9,1.2,9.8,2.3,14.5c0.7,3,1.6,5.9,2.7,8.7c1,2.5,1.8,5.2,3.5,7.3c1.4,1.7,3,3.3,5,4.3
	c1.8,0.9,3.9,0.7,5.8,0.3c1-0.2,1.9-0.6,2.7-1c1-0.5,2-1.1,2.9-1.8c1.9-1.5,3.3-3.4,4.5-5.4c1.2-2,2.1-4.2,3-6.3c0.8-2,1.5-4,2.1-6
	c-0.1,1.5-0.3,3-0.5,4.5c-0.8,5.4-1.8,10.7-3,16c-1.1,5.1-2.4,10.2-4.4,15.1c-1.5,3.4-3.4,6.7-5.7,9.7c-1.2,1.5-2.4,2.8-3.9,4
	c-0.2,0.2-0.5,0.3-0.7,0.5c-0.8-0.5-1.5-0.9-2.2-1.5c-2.2-1.8-4.2-3.9-6-6.1c-2.5-3.4-4.6-7-6.3-10.8c-0.8-1.9-1.4-3.9-2-5.9
	C279.6,394.2,279.5,389.8,279.4,385.4L279.4,385.4L279.4,385.4z M285.7,372.1c-0.4-1.4-0.7-2.8-1-4.2c0.1,0.2,0.1,0.4,0.2,0.5
	c1.1,2.8,2.4,5.5,3.8,8.1c1.5,2.8,3.2,5.3,5,7.9c1.2,1.8,2.6,3.5,4,5.1c-0.2,0-0.4,0.1-0.6,0.1c-0.4,0-0.8,0-1.2,0
	c-0.2,0-0.3-0.1-0.5-0.1c-0.6-0.3-1.1-0.6-1.6-0.9c-0.8-0.7-1.6-1.4-2.3-2.3c-1.1-1.5-1.9-3.2-2.6-4.9c0.1,0.1,0.1,0.3,0.2,0.4
	C287.7,378.7,286.6,375.5,285.7,372.1L285.7,372.1L285.7,372.1z M297.1,368.2c0,0.1,0.1,0.2,0.1,0.4
	C297.2,368.5,297.1,368.3,297.1,368.2L297.1,368.2L297.1,368.2z M296.1,389.9c0,0,0.1,0,0.1,0C296.2,389.9,296.2,389.9,296.1,389.9
	L296.1,389.9L296.1,389.9z"/>
<path class="st1" d="M216.5,468.6c-1.2,0.3-2.2,1.1-2.8,2.2c-0.7,1.1-0.7,2.3-0.5,3.6c0.1,0.3,0.1,0.7,0.2,1
	c0.1,1.3,0.1,2.6,0.1,3.9c0,1.5-0.1,3.1-0.2,4.6c-0.4,2.5-1.2,4.9-2.1,7.3c-2-0.9-4.2-1.6-6.3-2.3c-2.5-0.8-5.1-1.2-7.6-1.5
	c-1.1-0.1-2.1-0.2-3.2-0.2c-1,0-1.9,0-2.9,0.1c-1.3,0.1-2.8,0.3-3.9,1c-1.3,0.8-2.2,1.8-3,3c-0.4,0.5-0.6,1.3-0.9,1.9
	c-0.1,0.4-0.3,0.8-0.4,1.2c-0.3,1.2-0.3,2.4-0.1,3.7c0.2,1.3,0.4,2.5,0.8,3.7c0.4,1.4,0.9,2.7,1.5,4c1,2.3,2.2,4.5,3.5,6.7
	c0.5,1,1.1,1.9,1.7,2.8c-1.6,0.9-3.2,1.7-4.9,2.4c-5,2-10.3,3.5-15.6,4.3c-2.8,0.3-5.7,0.5-8.5,0.3c-3-0.5-6-1.2-8.9-1.9
	c-0.9-0.4-1.8-0.9-2.6-1.5c-0.5-0.4-0.9-0.9-1.3-1.4c-0.4-0.6-0.8-1.2-1.2-1.8c-0.3-0.5-0.6-1-0.8-1.5c0.1-1.7,0.2-3.4,0.2-5.1
	c0-0.9-0.2-1.8-0.4-2.6c-0.2-0.8-0.4-1.6-1-2.2c-0.5-0.5-1.3-0.6-2-0.7c-0.5-0.1-1.1,0-1.6,0.2c-0.4-0.7-0.8-1.5-1.2-2.2
	c-0.3-0.5-0.6-1-0.9-1.5c0.2-0.7,0.4-1.5,0.5-2.2c0.5-2.2,0.9-4.4,1.3-6.6c0.2-1.2,0.4-2.4,0.4-3.6c0.1-1.3,0.1-2.6-0.1-3.9
	c-0.2-1-0.6-1.9-1-2.9c-0.5-0.9-1.3-1.9-2.2-2.4c-2-1.1-4.3-1-6.4-0.4c-2,0.6-3.6,1.7-5.1,3.1c-0.7,0.6-1.3,1.4-1.9,2.1
	c-0.8,1-1.5,2-2.2,3c-1.1,1.8-2,3.8-2.8,5.7c-0.6,1.5-1.1,3.1-1.4,4.6c-0.7,0.6-1.3,1.3-1.9,2c-0.4,0.5-0.8,1-1.2,1.6
	c-0.3,0.5-0.6,1.2-0.8,1.8c-0.4,1.1-0.7,2.2-0.8,3.4c-0.1,1.1,0.1,2.3,0.4,3.4c0.5,1.5,1.4,2.9,2.4,4.1c0.9,1.1,2,2.1,3.2,2.9
	c0.8,2.5,2,4.9,3.3,7.1c-1.8,0.5-3.4,1.2-5.1,2c-2,1-3.9,2.1-5.7,3.5c-0.9,0.7-1.8,1.4-2.6,2.2c-0.7,0.7-1.4,1.6-1.9,2.5
	c-0.5,1-0.6,2.1-0.2,3.2c0.4,1.2,1.3,2.4,2.6,2.7c2,0.5,3.8-0.2,5.5-1.1c2-1,3.8-2.3,5.4-3.7c1.6-1.4,3-2.9,4.4-4.5
	c0.4-0.5,0.8-1,1.2-1.5c1.1,1.4,2.4,2.8,3.7,4c0.1,0.2,0.1,0.4,0.2,0.6c0.7,1.8,2.1,3.6,3.9,4.4c0.9,0.4,2,0.6,2.9,0.4
	c2.3,1.4,4.7,2.6,7.2,3.6c4.1,1.7,8.4,3,12.9,3.6c4.7,0.7,9.5,1,14.3,0.5c4.8-0.4,9.5-1.4,14.1-2.9c9-3,17.3-8,23.8-14.9
	c1.5-1.6,2.9-3.3,4.3-5c1.6-2,3.2-4.1,4.5-6.4c1.1-2,1.9-4.3,2.4-6.5c0.2-1.3,0.4-2.5,0.4-3.8c0.1-1.4-0.2-2.9-0.4-4.3
	c-0.2-1.2-0.7-2.4-1.3-3.5c-0.1-0.3-0.3-0.6-0.6-0.9c0.6-1.3,1.1-2.7,1.6-4c0.8-2.2,1.4-4.4,1.8-6.6c0.4-2.5,0.5-5,0.5-7.6
	c0-2.5-0.3-5-0.8-7.4c-0.2-1.2-1.2-2.2-2.2-2.8c-0.7-0.4-1.6-0.6-2.4-0.6C217.4,468.4,216.9,468.5,216.5,468.6L216.5,468.6
	L216.5,468.6z M134.6,483.6C134.6,483.7,134.6,483.7,134.6,483.6C134.6,483.7,134.6,483.7,134.6,483.6L134.6,483.6L134.6,483.6z
	 M135.1,484.2c0.1,0.1,0.1,0.2,0.2,0.4c0.1,0.2,0.1,0.4,0.2,0.6c0.1,1.5,0,3-0.2,4.5c-0.3,1.8-0.6,3.6-0.9,5.3
	c-0.3-0.2-0.6-0.4-1-0.6c-0.6-0.4-1.3-0.6-1.9-0.8c-0.8-0.3-1.6-0.4-2.4-0.5c-0.7-0.1-1.4,0-2.1,0.1c0,0,0,0,0-0.1
	c0.9-1.9,1.9-3.8,3.1-5.5c0.7-0.8,1.4-1.6,2.2-2.3c0.4-0.3,0.8-0.5,1.2-0.7c0.5-0.2,0.9-0.3,1.4-0.4
	C135,484.2,135,484.2,135.1,484.2L135.1,484.2L135.1,484.2z M195.7,496.5c3.6,0.6,7.1,1.5,10.5,2.9c0.3,0.1,0.5,0.3,0.8,0.4
	c-1,1.6-2,3.2-3.2,4.7c-1.8,2.2-3.8,4.2-6,6c-0.2-0.3-0.4-0.6-0.6-1c-0.8-1.3-1.5-2.6-2.2-3.9c-0.6-1.2-1.3-2.4-1.8-3.6
	c-0.6-1.5-1.1-3.1-1.4-4.7c0-0.3,0-0.6,0-0.9c0,0,0-0.1,0-0.1C193.1,496.3,194.4,496.3,195.7,496.5L195.7,496.5L195.7,496.5z
	 M128.8,501.3c0.1,0,0.3,0.1,0.4,0.1c0.5,0.2,0.9,0.5,1.4,0.8c0.6,0.5,1.1,1,1.7,1.6c-0.8,2.7-1.6,5.4-2.6,8
	c-0.8-0.5-1.6-0.9-2.4-1.4c-0.6-0.3-1.1-0.7-1.7-1c-0.2-0.8-0.3-1.6-0.4-2.4c-0.2-1.5-0.2-3-0.2-4.5c0.4-0.3,0.8-0.5,1.2-0.7
	c0.6-0.2,1.2-0.4,1.9-0.5C128.2,501.3,128.5,501.3,128.8,501.3L128.8,501.3L128.8,501.3z M143.3,506.4c0.1,0,0.1,0,0.2,0
	C143.4,506.4,143.3,506.4,143.3,506.4L143.3,506.4L143.3,506.4z M143.5,506.5C143.6,506.5,143.6,506.5,143.5,506.5
	c0.1,0.1,0.1,0.1,0.1,0.2c0.2,0.6,0.4,1.3,0.5,1.9c0,0.3,0.1,0.6,0.1,0.9c-0.3-0.6-0.5-1.2-0.8-1.8c-0.2-0.4-0.3-0.7-0.5-1.1
	c0,0,0.1,0,0.1,0C143.2,506.5,143.4,506.5,143.5,506.5L143.5,506.5L143.5,506.5z M143.7,506.7c0,0,0,0.1,0.1,0.1
	C143.7,506.8,143.7,506.8,143.7,506.7L143.7,506.7L143.7,506.7z M205.3,516.4c1.7-1.4,3.3-2.9,4.7-4.5c-0.9,1.6-1.9,3.1-3,4.6
	c-1,1.3-2.1,2.6-3.2,3.9c-0.3-0.7-0.6-1.3-1.1-2C203.6,517.8,204.5,517.1,205.3,516.4L205.3,516.4L205.3,516.4z M137.4,513.5
	c0.2,0.5,0.5,1,0.7,1.5c0.2,0.4,0.4,0.8,0.5,1.2c-0.6-0.2-1.3-0.5-1.9-0.8C136.9,514.7,137.2,514.1,137.4,513.5L137.4,513.5
	L137.4,513.5z M206.8,516.7c-0.1,0.1-0.1,0.2-0.2,0.3C206.7,516.9,206.8,516.8,206.8,516.7L206.8,516.7L206.8,516.7z M141.4,529.8
	c-0.8-2.1-2.4-3.7-4.2-5c-0.1,0-0.1-0.1-0.1-0.1c1.5,0.6,2.9,1.1,4.4,1.6c9.4,3.2,19.3,5.2,29.2,6.3c3.1,0.3,6.3,0.5,9.4,0.6
	c2,0,4.1,0.1,6.1,0c-0.1,0-0.2,0.1-0.3,0.1c-4.5,1.8-9.1,3.1-13.8,3.8c-4.5,0.5-9.1,0.5-13.6-0.1c-4.2-0.6-8.2-1.8-12.1-3.3
	c-1.5-0.7-3-1.4-4.4-2.2C141.7,531,141.6,530.4,141.4,529.8L141.4,529.8L141.4,529.8z"/>
<path class="st1" d="M166.2,586.8c-2.8,0.5-5.6,1-8.3,1.8c-1.2,0.3-2.5,0.7-3.7,1c-1.1,0.3-2.1,0.6-3.1,1c-1,0.3-1.9,0.7-2.9,1.1
	c-1.1,0.4-2.1,0.9-3.1,1.5c-0.7,0.3-1.2,1-1.5,1.7c-0.5,0-1,0.1-1.5,0.2c-3.4,0.4-6.9,0.8-10.4,1.2c-4,0.5-8.1,1.1-12.1,1.6
	c-1.5,0.2-3,0.3-4.4,0.5c-0.8,0.1-1.6,0.3-2.4,0.6c-0.7,0.3-1.4,0.7-2,1c-0.7,0.4-1,1.2-0.8,2c0.2,0.8,0.9,1.2,1.7,1.3
	c1.8,0.1,3.6,0.3,5.4,0.4c1.9,0.1,3.9-0.1,5.8-0.3c1.8-0.2,3.6-0.5,5.4-0.7c1.2-0.2,2.5-0.3,3.7-0.6c3-0.5,6-1.1,9-1.6
	c0.4-0.1,0.8-0.1,1.1-0.2c-0.1,0.3-0.2,0.6-0.2,1c0,1.2,0.8,2.2,1.9,2.5c0.5,0.2,1,0.4,1.6,0.5c0.7,0.2,1.4,0.3,2.1,0.5
	c1.5,0.3,3,0.5,4.4,0.7c1.1,0.2,2.3,0.3,3.4,0.5c2.3,0.3,4.7,0.6,7,0.9c-0.2,0-0.5-0.1-0.7-0.1c2.5,0.3,5,0.7,7.5,1
	c5,0.7,10.1,1.4,15.1,1.4c1.8,0,3.2-1.5,3.2-3.2c0-1.8-1.5-3.2-3.2-3.2c-1.9,0-3.8-0.1-5.7-0.2c0.3-0.8,0.3-1.7-0.2-2.5
	c-0.3-0.4-0.6-0.8-1.1-1c-0.5-0.3-0.9-0.4-1.5-0.4c-1.9-0.2-3.9-0.5-5.8-0.5c-1.5,0-3-0.1-4.4-0.1c-2.1,0-4.1,0-6.2,0
	c-1.3,0-2.7,0-4,0c-0.2,0-0.5-0.1-0.7-0.1c0,0,0,0-0.1,0c0.4-0.1,0.9-0.2,1.3-0.2c1.2-0.2,2.4-0.5,3.5-0.8c0.5,0,1-0.1,1.5-0.1
	c2.6-0.2,5.1-0.2,7.7-0.3c0.8,0,1.4-0.6,1.4-1.5c0-0.2-0.1-0.5-0.2-0.7c0.2-0.1,0.4-0.1,0.6-0.2c0.7-0.2,1.4-0.3,2-0.6
	c0.6-0.2,1.1-0.5,1.6-0.9c0.4-0.3,0.7-0.7,1-1c0.9-1,0.8-2.8-0.4-3.5c-0.6-0.3-1.2-0.6-1.8-0.9c-0.7-0.3-1.4-0.5-2.2-0.6
	c-0.3,0-0.6,0-0.9,0C168.7,586.4,167.4,586.6,166.2,586.8L166.2,586.8L166.2,586.8z"/>
<path class="st1" d="M132.6,128.7c-1.5,0.1-2.9,0.1-4.4,0.2c-1.7,0.1-3.4,0.4-5.1,0.7c-3.2,0.5-6.3,1.3-9.5,2.1
	c-2.2,0.5-4.3,1.1-6.4,1.7c-2.9,0.8-5.9,1.7-8.8,2.5c-1.2,0.3-2.4,0.7-3.6,1.1c-9.5,3.1-19,6.2-28.3,9.9c-0.4,0.2-0.9,0.4-1.3,0.6
	c-0.8,0.5-1.5,1.2-2,2c-1,1.8-1,3.9,0,5.7c0.3,0.5,0.5,1,0.8,1.5c-3.3,1.2-6.7,2.4-9.9,3.8c-0.7,0.3-1.2,0.6-1.9,1
	c-1.9,1.2-3.2,3.2-3.2,5.5c0,1.1,0.3,2.2,0.9,3.2c0.3,0.4,0.7,0.9,1,1.3c0.8,0.8,1.7,1.3,2.8,1.6c1,0.4,1.9,0.8,3,1
	c1.6,0.3,3.2,0.4,4.8,0.4c0.2,0,0.4,0,0.5,0c-0.3,0.5-0.5,1.1-0.7,1.7c-0.3,1.3-0.3,2.6,0,3.9c0.3,1.2,1,2.3,1.9,3.2
	c2,2.6,5.2,3.3,8.3,3.1c0.9-0.1,1.9-0.1,2.9-0.1c1.7-0.1,3.4-0.2,5.1-0.4c0.6-0.1,1.2-0.2,1.8-0.2c1.2-0.3,2.2-0.9,3.1-1.8
	c1.3-1.3,2-3,2-4.8c1.3-0.5,2.7-0.9,4-1.4c2.6-0.8,5.2-1.7,7.8-2.5c1.7-0.4,3.3-0.8,5-1.2c1.3-0.3,2.6-0.6,3.8-0.9
	c1.5-0.4,3-0.8,4.5-1.3c3.1-1,5.2-3.6,5.2-6.9c0-0.3,0-0.6-0.1-0.9c0.1,0,0.3-0.1,0.4-0.1c1.6-0.4,3.1-0.6,4.7-0.9
	c1.2-0.3,2.5-0.9,3.5-1.5c1.9-1.2,3.2-3,3.7-5.2c0.3-1.2,0.3-2.4,0-3.6c-0.3-1.1-0.9-2.1-1.7-3c-1.8-1.8-4.2-2.2-6.5-1.7
	c-0.7,0.2-1.4,0.3-2.1,0.4c0-0.5-0.1-1.1-0.2-1.6c-0.4-1.6-1.5-2.9-2.9-3.7c-0.4-0.3-0.9-0.4-1.3-0.6c0.3-0.1,0.6-0.1,0.8-0.2
	c2.3-0.5,4.6-1.1,6.9-1.6c0.9-0.2,1.7-0.4,2.6-0.6c1.4-0.3,2.8-0.6,4.2-0.9c1.7-0.4,3.3-0.9,4.9-1.5c0.8-0.2,1.4-0.6,2-1.1
	c0.2-0.2,0.3-0.4,0.5-0.5c1.5-0.3,3-0.6,4.6-0.8c1-0.1,2-0.2,3-0.2c0.9,0,1.9,0.1,2.8,0.2c-0.1,0-0.1,0-0.1,0c0.1,0,0.1,0,0.2,0
	c0.1,0,0.2,0,0.2,0c-0.1,0-0.1,0-0.2,0c0.1,0,0.1,0,0.2,0c0,0,0,0,0,0c-0.8,0.6-1.7,1.1-2.6,1.6c-0.9,0.5-1.8,1-2.8,1.5
	c-1.2,0.7-2.5,1.3-3.8,2c-3,1.5-6,2.9-9.1,4.2c-0.4,0.2-0.8,0.3-1.1,0.5c-0.5,0.2-0.9,0.7-0.7,1.3c0.1,0.5,0.8,1,1.3,0.7
	c3.8-1.6,7.4-3.2,11.1-5c1.6-0.8,3.2-1.6,4.8-2.4c0.9-0.5,1.9-1,2.8-1.4c0.8-0.4,1.5-0.8,2.2-1.4c0.6-0.5,0.9-1.3,1.3-1.9
	c0.4-0.8,0.1-1.9-0.9-2.1c-1.9-0.3-3.8-0.8-5.7-0.9c-1.1-0.1-2.1,0.1-3.2,0.1c-1.2,0.1-2.4,0.3-3.6,0.5c0,0,0,0,0,0
	c-0.5-1.9-2.1-3.4-4.1-3.4C132.7,128.7,132.7,128.7,132.6,128.7L132.6,128.7L132.6,128.7z M128.9,144.1c0,0-0.1,0-0.1,0.1
	C128.8,144.1,128.8,144.1,128.9,144.1L128.9,144.1L128.9,144.1z M71.6,148.5C71.7,148.5,71.7,148.6,71.6,148.5
	C71.7,148.6,71.7,148.6,71.6,148.5C71.7,148.6,71.7,148.5,71.6,148.5L71.6,148.5L71.6,148.5z M108.9,171.7c0.1,0,0.2,0,0.4,0.1
	C109.1,171.7,109,171.7,108.9,171.7L108.9,171.7L108.9,171.7z M146.6,134.9C146.6,134.9,146.6,134.9,146.6,134.9L146.6,134.9
	C146.6,134.9,146.6,134.9,146.6,134.9L146.6,134.9L146.6,134.9z"/>
<path class="st1" d="M389.7,194.9c-1.4,0.1-2.6,1.1-2.6,2.6c0,1.4,1.2,2.7,2.6,2.6c4.6-0.3,9.3-0.6,13.9-0.5
	c4.9,0.1,9.7,0.5,14.5,1.1c2,0.3,4.1,0.6,6.1,1c1.5,0.3,3.1,0.5,4.6,0.9c1.8,0.4,3.6,0.9,5.5,1.3c4.9,1.2,9.9,2.3,14.6,4.2
	c-0.3,0.2-0.7,0.4-1,0.6c-1.7,0.7-3.5,1.2-5.2,1.8c-2.5,0.8-5.1,1.4-7.6,2c-2,0.5-4,1-6,1.5c-1.6,0.4-3.2,0.8-4.9,1.2
	c-0.8,0.2-1.7,0.4-2.5,0.6c-1,0.2-2,0.4-3,0.6c-1.3,0.3-2.4,0.9-3.6,1.4c-1.2,0.5-1.9,2.1-1.9,3.3c0,1.3,0.7,2.7,1.9,3.3
	c1.6,0.8,3.1,1.6,4.9,2.1c1.8,0.4,3.8,0.6,5.6,0.7c1.4,0.1,2.8,0.2,4.2,0.2c-1.1,1.2-1.8,2.6-1.8,4.2c0,1.4,0.6,3.3,1.8,4.3
	c1,0.8,2,1.7,3,2.5c1.3,0.9,2.8,1.5,4.3,2c1.1,0.4,2.2,0.5,3.3,0.7c1.4,0.2,2.9,0.5,4.3,0.7c1.5,0.3,3,0.5,4.4,0.7
	c-1.4,0.6-2.8,1.2-4.2,1.8c-2.3,0.9-4.6,1.9-6.8,2.9c-0.8,0.3-1.6,0.7-2.3,1c-1.3,0.6-2.6,1.3-3.9,1.9c-1.3,0.7-2.5,1.8-3.3,3.1
	c-1.1,2-1.2,4.2-0.6,6.4c0.9,3.4,4.1,5.5,7.4,6.4c1.3,0.3,2.6,0.4,3.9,0.5c1.2,0.1,2.3,0.1,3.5,0.3c0.8,0.1,1.5,0.2,2.2,0.2
	c-0.1,0.9-0.1,1.9,0.2,2.8c0.5,1.7,1.6,3.1,3.1,4c1.5,0.9,3.5,1.3,5.2,0.7c3-1.1,6-1.9,9-2.8c1.4-0.4,2.8-0.8,4.3-1.2
	c1-0.3,1.9-0.5,2.9-0.7c0.8-0.2,1.6-0.4,2.4-0.6c1.2-0.4,2.4-1,3.5-1.5c1.1-0.6,2-1.5,2.6-2.6c0.7-1.1,1-2.4,1-3.7
	c0-1.3-0.3-2.5-1-3.7c-0.4-0.5-0.8-1-1.1-1.5c-0.9-0.9-2-1.5-3.2-1.9c-2.6-0.4-5.1-0.7-7.7-0.8c-1.1,0-2.3,0-3.4-0.1
	c-1.5-0.1-3-0.1-4.5-0.2c0.6-0.2,1.2-0.5,1.7-0.8c1.8-0.8,3.6-1.5,5.4-2.3c1.5-0.6,2.9-1.3,4.3-2c1.6-0.8,3-1.9,4.6-2.8
	c2.5-1.6,4-4.6,3.1-7.6c-0.3-0.9-0.7-1.9-1.1-2.7c-0.9-1.6-2.7-2.8-4.5-3.3c-1.5-0.4-3.1-0.3-4.6-0.4c-1.9-0.2-3.8-0.4-5.6-0.5
	c-2.5-0.2-5.1-0.4-7.6-0.7c1-0.2,2-0.5,3-0.8c3.6-1,7.3-1.8,11.1-2.4c0.2,0,0.3,0,0.5-0.1c1.4-0.1,2.5-0.5,3.5-1.5
	c0.9-0.9,1.5-2.2,1.5-3.5c0-2.6-2.3-5.1-5-5c-1.7,0.1-3.3,0.2-5,0.4c-0.6,0.1-1.2,0.2-1.9,0.3c-3.2,0.2-6.4,0.4-9.5,0.5
	c-2.9,0.1-5.9,0.3-8.8,0.4c-2.5,0.1-5.1,0.2-7.6,0.2c0.3-0.1,0.7-0.2,1-0.3c2.4-0.7,4.7-1.3,7.1-2c1.3-0.4,2.5-0.9,3.8-1.4
	c1.4-0.5,2.7-1,4-1.6c1-0.5,1.8-1.2,2.5-2c0.9-1.2,1.2-2.4,1.3-3.9c0.1-0.6-0.1-1.3-0.3-1.9c-0.2-0.7-0.6-1.1-1-1.7
	c-0.1-0.1-0.3-0.2-0.4-0.3c-0.3-0.3-0.7-0.5-1.1-0.7c-0.6-0.3-1.2-0.5-1.8-0.8c-1.1-0.4-2.2-0.7-3.2-1c-1.6-0.6-3.4-0.9-5-1.3
	c-1.2-0.3-2.5-0.6-3.7-0.9c-2.8-0.6-5.5-1.3-8.2-1.9c-3-0.7-6.1-1.1-9.1-1.6c-3.3-0.5-6.6-0.8-10-1.1c-2.9-0.2-5.8-0.3-8.7-0.3
	C398.2,194.4,394,194.6,389.7,194.9L389.7,194.9L389.7,194.9z M449.3,207c0,0.2,0,0.4-0.1,0.5C449.2,207.4,449.3,207.2,449.3,207
	L449.3,207L449.3,207z M449.5,207.5c0,0.1-0.1,0.1-0.1,0.1C449.4,207.6,449.5,207.5,449.5,207.5L449.5,207.5L449.5,207.5z
	 M448.9,208.2c-0.1,0.1-0.1,0.1-0.2,0.1C448.7,208.3,448.8,208.2,448.9,208.2L448.9,208.2L448.9,208.2z M467.3,227.2
	c-0.3,0-0.6,0.1-0.8,0.1C466.7,227.3,467,227.2,467.3,227.2L467.3,227.2L467.3,227.2z"/>
<path class="st1" d="M220.8,609.5c-0.5,1.7,0.6,3.7,2.3,4.1c0.9,0.2,1.7,0.5,2.5,0.8c0.8,0.4,1.6,0.8,2.4,1.2
	c0.8,0.4,1.6,0.8,2.3,1.3c0.4,0.4,0.8,0.8,1.2,1.2c0.3,0.4,0.6,0.9,0.8,1.4c0.5,1.4,0.7,2.8,1.1,4.2c0.5,2,1.1,4,1.6,6
	c0.5,2,0.9,4,1.3,6c0.4,1.7,0.7,3.5,1,5.2c0.3,2.5,0.3,5.1,0.4,7.6c0,2.6-0.1,5.2-0.4,7.9c-0.2,1.3-0.4,2.5-0.8,3.8
	c-0.4,1.4-0.8,2.8-1.4,4.1c-1.5,3.4-3.3,6.5-5.5,9.5c-1.9,2.3-3.9,4.5-6.2,6.3c-3.4,2.5-7.1,4.5-11,6.1c-3.1,1.3-6.3,2.4-9.6,3.3
	c-3.6,1-7.3,1.7-11,2.2c-6.6,0.8-13.4,1.2-20.1,1.2c-6.9,0-13.7-0.3-20.5-1.2c-5.2-0.7-10.4-1.8-15.5-3.2c-4.9-1.2-9.6-2.8-14.3-4.7
	c-4.8-2.1-9.3-4.6-13.5-7.7c-4-3.1-7.6-6.7-10.7-10.7c-1-1.3-1.9-2.6-2.8-4c-0.9-1.5-1.7-3.1-2.4-4.8c-0.6-1.4-1.1-2.8-1.6-4.3
	c0-1.4-0.1-2.8-0.2-4.1c-0.1-1.7-0.2-3.3-0.3-5c-0.1-0.9-0.2-1.8-0.2-2.7c-0.1-0.8-0.1-1.7-0.2-2.5c-0.1-0.5-0.2-0.9-0.3-1.4
	c-0.2-0.6-0.4-1.2-0.6-1.8c-0.3-0.8-0.8-1.4-1.6-1.6c-1-0.3-2.1,0.2-2.6,1c-0.2,0.4-0.5,0.8-0.7,1.2c-0.3,0.4-0.4,0.9-0.6,1.4
	c0,0.2-0.1,0.3-0.1,0.5c-0.1,0.4-0.1,0.8-0.1,1.2c-0.1,0.5-0.1,1-0.1,1.5c0,2.4,0.5,4.7,1,7c0.8,3.5,1.8,7,3.1,10.4
	c-0.1,1.1-0.1,2.2-0.3,3.3c-0.2,1.4-0.5,2.8-1,4.1c-0.2,0.4-0.4,0.7-0.6,1.1c-0.1,0.1-0.2,0.2-0.2,0.2c0,0,0,0,0,0
	c-0.1,0-0.1,0-0.2,0c-0.1,0-0.3-0.1-0.4-0.1c0,0,0,0,0,0c0,0,0.1,0,0.1,0c-0.1,0-0.2-0.1-0.2-0.2c-0.5-0.5-1-0.9-1.4-1.5
	c-1.1-1.5-2-3-2.9-4.5c-0.5-0.8-0.9-1.7-1.4-2.6c-0.2-0.4-0.5-0.9-0.7-1.3c-0.1-2.2-0.2-4.3-0.3-6.4c0-0.9-0.1-1.8-0.2-2.7
	c-0.1-0.7-0.1-1.4-0.2-2c-0.1-0.6-0.2-1.1-0.4-1.7c-0.2-0.5-0.6-1-0.9-1.4c-0.4-0.5-1.2-0.5-1.8-0.2c-0.3,0.1-0.8,0.3-1.1,0.6
	c-0.3,0.3-0.5,0.6-0.7,1c-0.4,0.7-0.7,1.6-0.7,2.4c-0.2,2,0.4,4.1,1.1,6c0.6,1.6,1.3,3.1,2,4.7c0.1,0.4,0.2,0.7,0.5,1
	c0.5,1,1.1,2.1,1.6,3.1c0.7,1.3,1.4,2.5,2.1,3.7c0.7,1.1,1.4,2.1,2.2,3.1c0.5,0.6,1.1,1.1,1.7,1.5c0.4,0.2,0.8,0.4,1.3,0.5
	c0.6,0.2,1.1,0.1,1.7,0c0.4,0,0.8-0.4,1.1-0.6c0.3-0.3,0.7-0.6,0.9-1c0.6-0.8,0.9-1.6,1.2-2.5c0.2-0.6,0.4-1.2,0.5-1.9
	c0.3,0.5,0.6,1.1,0.9,1.6c1.2,1.9,2.6,3.7,3.9,5.4c2.7,3.4,5.8,6.4,9.1,9.2c3.3,2.7,6.9,5.1,10.6,7.1c3.8,2,7.9,3.7,12,5.1
	c4.1,1.4,8.2,2.6,12.4,3.6c4.4,1.1,8.8,2,13.3,2.6c9.3,1.3,18.7,1.6,28,1.4c9.2-0.2,18.5-1,27.4-3.6c4.1-1.2,8.1-2.6,11.9-4.3
	c1.8-0.8,3.5-1.7,5.2-2.7c1.9-1.1,3.8-2.5,5.5-3.8c3.4-2.7,6.1-6,8.6-9.5c2.5-3.5,4.5-7.5,5.9-11.5c0.9-2.6,1.3-5.4,1.6-8.1
	c0.4-2.8,0.4-5.5,0.4-8.3c0-1.2,0-2.4-0.1-3.6c-0.1-1.7-0.3-3.4-0.5-5c-0.4-3-1.1-5.9-1.7-8.8c-0.6-2.8-1.4-5.5-2.2-8.2
	c-0.8-2.6-1.4-5.4-3-7.7c-0.8-1-1.6-2-2.6-2.8c-0.6-0.5-1.2-1-1.9-1.4s-1.4-0.7-2.2-1c-1.2-0.5-2.5-1-3.8-1.3
	c-1.4-0.4-2.9-0.5-4.4-0.7c-0.1,0-0.1,0-0.2,0C222.4,607.1,221.1,608.2,220.8,609.5L220.8,609.5L220.8,609.5z M85.3,666
	c-0.1,0.1-0.1,0.2-0.2,0.3C85.2,666.2,85.2,666.1,85.3,666L85.3,666L85.3,666z M84,666.3c0.1,0,0.2,0.1,0.2,0.1c0,0,0,0,0,0
	C84.2,666.4,84.1,666.3,84,666.3L84,666.3L84,666.3z M213.1,686c-0.1,0-0.2,0.1-0.3,0.1C212.9,686.1,213,686,213.1,686L213.1,686
	L213.1,686z M191.3,691.9c-0.1,0-0.2,0-0.3,0C191.1,691.9,191.2,691.9,191.3,691.9L191.3,691.9L191.3,691.9z"/>
<path class="st1" d="M27.7,422.3c-1,2-2.2,4-3.3,6c-1.1,2.1-2,4.4-2.7,6.7c-1.4,4.6-2.4,9.4-3.1,14.2c-0.8,4.8-1.4,9.6-2,14.4
	c-0.6,5.1-1.1,10.1-1.6,15.2c-0.8,10.2-1.2,20.5-1.4,30.8c-0.2,10.2-0.4,20.5-0.3,30.7c0.1,5.1,0.3,10.2,0.6,15.3
	c0.3,5,0.8,10,1.4,15c1.1,9.9,2.6,19.7,4.9,29.4c1.1,4.8,2.5,9.5,4.1,14.1c1.6,4.7,3.6,9.4,5.7,13.9c2,4.5,4.3,8.9,6.6,13.2
	c2.3,4.3,5,8.5,7.8,12.5c2.2,3.2,4.5,6.3,6.8,9.4c1.2,1.5,2.5,3.1,3.7,4.6c0.8,1,1.6,1.9,2.4,2.8c2.2,2.4,4.4,4.8,6.6,7.2
	c1.7,1.9,3.4,3.7,5.1,5.5c2.1,2.2,4.2,4.4,6.5,6.5c1,0.9,2.1,1.4,3.5,1.4c1.3,0,2.6-0.5,3.5-1.4c0.9-0.9,1.4-2.2,1.4-3.5
	c0-1.2-0.5-2.7-1.4-3.5c-2.4-1.9-4.5-4-6.7-6c-1.7-1.6-3.4-3.3-5.1-5c-2.1-2.1-4.1-4.2-6.2-6.2c-3.8-3.8-7.3-7.8-10.7-12
	c-4.3-5.6-8.4-11.3-11.9-17.4c-3.7-6.4-7-13-9.9-19.7c-1.5-3.5-2.8-7-3.9-10.7c-1.2-3.8-2.2-7.5-3.1-11.4c-1.8-7.5-3-15.2-4.1-22.9
	c0,0.1,0,0.2,0,0.3c0-0.2,0-0.3-0.1-0.4c0-0.1,0-0.2,0-0.3c0,0,0,0.1,0,0.2c-0.6-4.6-1.1-9.1-1.5-13.7c-0.4-5.1-0.7-10.2-0.9-15.3
	c-0.4-10-0.3-20-0.2-30.1c0.1-10.1,0.3-20.1,0.9-30.2c0.3-5.1,0.7-10.2,1.2-15.3c0.5-4.8,1-9.6,1.7-14.4c0.5-3.3,1-6.7,1.7-10
	c0.7-3.5,1.6-7.1,2.9-10.4c0.7-1.6,1.5-3.2,2.4-4.8c0,0.6,0,1.2,0,1.8c0,0.5,0,1,0,1.6c0,1.3,0.1,2.6,0.1,4c0.1,2.4,0.1,4.9,0.1,7.3
	c0,2-0.1,4-0.1,6c-0.1,3.2-0.2,6.4-0.4,9.6c0,0.8,0.6,1.4,1.4,1.4c0.8,0,1.3-0.6,1.4-1.4c0.2-3.4,0.3-6.8,0.4-10.2
	c0.1-2.1,0.1-4.2,0.1-6.3c0-2.5,0-4.9-0.1-7.4c0-1.5,0-2.9,0-4.4c0-1,0.1-2.1,0.1-3.1c0-0.6-0.2-1.2-0.4-1.7
	c-0.3-0.7-0.7-1.2-1.1-1.8c-0.3-0.5-0.8-0.8-1.4-0.8C28.6,421.5,28,421.8,27.7,422.3L27.7,422.3L27.7,422.3z M20.9,571.3
	c0,0,0,0.1,0,0.2c0-0.1,0-0.2,0-0.3C20.9,571.2,20.9,571.2,20.9,571.3L20.9,571.3L20.9,571.3z"/>
<path class="st1" d="M436.9,506.9c-0.9,0.9-1.6,2.3-1.5,3.5c0.1,0.9,0.2,1.8,0.1,2.7c0,0.9-0.1,1.8-0.2,2.7
	c-0.7,4.4-2.1,8.6-3.5,12.8c-1.5,4.1-3,8.1-4.7,12.1c-2,4.7-4.2,9.2-6.6,13.7c-2.5,4.7-5,9.4-7.8,13.9c-2.7,4.5-5.6,8.8-8.5,13.2
	c-2.9,4.3-5.9,8.5-9.1,12.5c-6.5,8.3-13.6,16.2-21.1,23.7c-7.7,7.7-16,14.8-24.6,21.5c-5.4,4.2-11,8.1-16.8,11.6
	c-5.9,3.6-12.1,6.6-18.4,9.3c0.1,0,0.1-0.1,0.2-0.1c-0.1,0-0.2,0.1-0.2,0.1c-0.1,0-0.2,0.1-0.3,0.1c0.1,0,0.2-0.1,0.3-0.1
	c-5.1,2.1-10.3,3.9-15.8,4.7c-3.1,0.4-6.2,0.4-9.2,0.1c-1.6-0.2-3.2-0.6-4.7-1.2c-0.7-0.3-1.4-0.7-2-1.1c-0.2-0.1-0.3-0.3-0.4-0.4
	c-0.1-0.2-0.3-0.5-0.4-0.7c0.8-0.1,1.6-0.3,2.4-0.4c1.4-0.2,2.8-0.6,4.2-1c0.8-0.2,1.5-0.6,2.2-1c0.4-0.2,0.7-0.4,1-0.7
	c0.4-0.3,1-0.7,1.2-1.2c0.3-0.5,0.6-1.2,0.4-1.8c-0.2-0.8-0.6-1.4-1.2-2c-0.2-0.3-0.6-0.5-0.9-0.7c-0.3-0.3-0.7-0.5-1-0.7
	c-0.8-0.5-1.7-0.8-2.5-1.1c-1.8-0.5-3.8-0.4-5.5,0.2c-1.8,0.6-3.1,1.9-3.8,3.6c-0.1,0.3-0.2,0.7-0.3,1c-0.1-0.1-0.2-0.2-0.4-0.3
	c-0.4-0.3-1,0.1-1.4,0.3c-0.6,0.3-1.1,0.9-1.5,1.4c-0.4,0.5-0.6,0.9-0.8,1.5c-0.3,1.3,0.5,2.4,1.6,3c0.6,0.3,1.4,0.3,2,0.4
	c0.1,0,0.2,0,0.4,0c0.3,1,0.7,2,1.4,2.9c0.9,1.2,2.3,1.9,3.6,2.5c1.6,0.8,3.4,1.2,5.1,1.6c7.9,1.5,15.9,0,23.4-2.5
	c4.1-1.4,8.2-3.1,12.1-4.9c3.9-1.8,7.7-3.7,11.4-5.8c7.5-4.2,14.5-9.2,21.3-14.4c6.9-5.2,13.5-10.7,19.8-16.6
	c6.3-5.8,12.2-12,17.9-18.3c5.9-6.6,11.3-13.6,16.5-20.7c5.1-7.1,10-14.4,14.5-22c4.5-7.6,8.6-15.5,12.1-23.6
	c2.1-4.8,4.1-9.7,5.9-14.6c0.8-2.3,1.5-4.6,1.9-6.9c0.3-1.4,0.5-2.9,0.6-4.4c0.1-1.2,0.1-2.5,0-3.7c-0.1-0.4-0.1-0.9-0.2-1.3
	c-0.2-0.8-0.7-1.6-1.3-2.2c-0.9-0.9-2.2-1.5-3.5-1.5C439.1,505.4,437.8,505.9,436.9,506.9L436.9,506.9L436.9,506.9z M350,638.8
	c-0.2,0.1-0.4,0.3-0.6,0.4C349.6,639.1,349.8,639,350,638.8L350,638.8L350,638.8z M286.1,653.6c0.7,0.1,1.3,0.3,2,0.5
	c0.7,0.3,1.3,0.7,1.9,1.1c0.2,0.2,0.4,0.3,0.5,0.5c0,0,0.1,0.1,0.1,0.2c0,0,0,0.1,0,0.1c0,0,0,0.1-0.1,0.1c-0.3,0.3-0.6,0.6-1,0.9
	c-0.6,0.4-1.3,0.8-2,1.1c-1.4,0.6-2.8,1-4.3,1.3c-0.7,0.2-1.5,0.3-2.2,0.5c-0.1-0.4-0.2-0.7-0.2-1.1c0-0.6,0-1.1,0-1.7
	c0.1-0.7,0.2-1.3,0.5-1.9c0.1-0.1,0.1-0.2,0.2-0.4c0.2-0.2,0.3-0.3,0.5-0.5c0.3-0.2,0.5-0.3,0.8-0.5c0.4-0.1,0.7-0.2,1.1-0.3
	C284.7,653.5,285.4,653.5,286.1,653.6L286.1,653.6L286.1,653.6z M281.3,655.3c0,0.1-0.1,0.2-0.1,0.2
	C281.3,655.5,281.3,655.4,281.3,655.3L281.3,655.3L281.3,655.3z M290.8,655.7c0,0,0,0.1-0.1,0.2v0l0,0
	C290.7,655.8,290.8,655.8,290.8,655.7L290.8,655.7L290.8,655.7z M290.7,655.9L290.7,655.9C290.7,655.9,290.7,655.9,290.7,655.9
	C290.7,655.9,290.7,655.9,290.7,655.9C290.7,656,290.7,655.9,290.7,655.9L290.7,655.9L290.7,655.9z M290.6,656.1
	c0,0.1-0.1,0.2-0.2,0.2C290.4,656.3,290.5,656.2,290.6,656.1L290.6,656.1L290.6,656.1z M276.3,657.2c-0.1,0.2-0.3,0.5-0.5,0.7
	c-0.2,0.2-0.4,0.5-0.6,0.7c0-0.1,0.1-0.2,0.1-0.3c0,0,0,0.1-0.1,0.2c0.1-0.2,0.2-0.3,0.3-0.5C275.8,657.6,276,657.4,276.3,657.2
	L276.3,657.2L276.3,657.2z M277.4,658.3c0,0,0.1-0.1,0.1-0.2c0,0.6,0,1.1,0.1,1.7c0,0.2,0,0.3,0.1,0.5c-0.3,0-0.6,0-0.9,0
	c0.1,0,0.1,0,0.2,0c-0.3,0-0.5-0.1-0.8-0.2c-0.1,0-0.2-0.1-0.3-0.1C276.4,659.5,276.9,658.9,277.4,658.3L277.4,658.3L277.4,658.3z
	 M276.1,660.2c0,0,0.1,0,0.1,0C276.2,660.3,276.2,660.3,276.1,660.2L276.1,660.2L276.1,660.2z M281.6,661.5c0,0,0,0.1,0,0.1
	C281.7,661.6,281.6,661.6,281.6,661.5L281.6,661.5L281.6,661.5z M314.2,660.2C314.2,660.2,314.2,660.2,314.2,660.2
	C314.2,660.2,314.2,660.2,314.2,660.2C314.2,660.2,314.2,660.2,314.2,660.2L314.2,660.2L314.2,660.2z"/>
<path class="st1" d="M481.8,437.6c-0.9,0.3-2,0.6-2.6,1.4c-0.5,0.5-0.9,1.1-1.2,1.7c-0.2,0.4-0.3,0.7-0.5,1.1
	c-1,0.3-1.7,1.3-2.4,2.1c-1,1.2-1.5,2.8-2.1,4.2c-1,2.4-1.7,4.9-2.4,7.4c-0.6,2.1-1.2,4.2-1.6,6.3c-0.5,2.3-1,4.6-1.4,6.9
	c-0.5,2.5-0.7,5-1,7.5c-0.2,2.1-0.3,4.3-0.5,6.4c-0.2,2.9-0.3,5.7-0.4,8.6c-0.1,0.8-0.3,1.5-0.4,2.3c-0.8,4.2-1.6,8.3-2.4,12.5
	c-1,5.5-2,11.1-3,16.6c-1.4,7.9-2.8,15.8-4.1,23.7c-0.8,4.5-1.5,9.1-2.2,13.6c-0.8,5.3-1.6,10.5-2.5,15.8c-1.4,9.2-2.7,18.4-4,27.6
	c-0.6,4-1.1,8-1.6,11.9c-0.5,3.8-1,7.7-1.4,11.5c-0.8,9.1-1.7,18.3-2.4,27.5c-0.4,5.6-0.8,11.2-1.2,16.9c-0.3,4.5-0.5,9-0.7,13.5
	c-0.4,8.4-0.8,16.8-1.1,25.2c-0.3,9-0.5,17.9-0.6,26.8c0,4.4-0.1,8.8-0.1,13.3c0,4.4,0,8.7,0.1,13.1c0.1,3.1,0.1,6.3,0.2,9.4
	c0,1.5,0,2.9,0.1,4.4c0.4,5.5,0.8,11,1.2,16.6c0.1,1.1,0.1,2.2,0.3,3.2c0.3,2.6,0.7,5.2,1,7.9c0.4,3.1,0.8,6.2,1.2,9.2
	c0.2,1.6,0.4,3.2,0.7,4.8c1.1,5.9,2.1,11.8,3.2,17.7c1.1,5.8,2.2,11.5,4,17.1c0.4,1.4,1.2,2.5,2.5,3.3s2.8,1,4.2,0.5
	c2.9-0.8,4.6-3.9,3.8-6.8c-0.8-3-1.4-6-2-9c-0.6-3.1-1.2-6.3-1.7-9.4c-1-5.7-2-11.5-3-17.2c-0.8-6.3-1.7-12.7-2.5-19
	c-0.4-5-0.8-10-1.2-15c-0.1-1.5-0.3-3-0.4-4.5c-0.1-2.5-0.2-4.9-0.2-7.4c-0.3-8.7-0.5-17.4-0.5-26.1c0-9,0-17.9,0.1-26.9
	c0.2-9.1,0.4-18.3,0.8-27.4c0.2-5.3,0.4-10.7,0.7-16c0.2-4,0.5-8,0.8-12s0.4-8,0.8-12c0.5-5.6,1-11.2,1.4-16.8
	c0.3-3.2,0.5-6.5,0.9-9.7c0.6-4.7,1.1-9.5,1.7-14.2c1.1-7.8,2.1-15.7,3.3-23.5c1.4-9.4,2.8-18.8,4.4-28.1c1.6-9.7,3.3-19.4,5-29.1
	c0.5-3.1,1.1-6.3,1.6-9.4c0.1,0,0.1,0,0.2,0c0.5,0.1,1,0.2,1.5,0.1c0.7,0,1.3-0.2,1.9-0.5c2.5-1.1,3.9-3.7,5-6
	c0.9-2,1.6-4.1,2.1-6.3c0.3-1.2,0.6-2.3,0.9-3.5c0.3-1.2,0.5-2.5,0.7-3.7c0.4-2.1,0.7-4.1,1-6.2c0.4-2.3,0.6-4.6,0.9-6.9
	c0.2-2.4,0.5-4.8,0.7-7.1c0.6-5.6,1.1-11.3,1.7-17c0.3-2.8,0.5-5.6,0.7-8.3c0.1-1.4,0.2-2.8,0.3-4.2c0.1-2.3,0.4-4.7-0.3-7
	c-0.4-1.2-1.1-2.2-2.2-2.9c-0.7-0.4-1.6-0.7-2.5-0.7C482.6,437.4,482.2,437.5,481.8,437.6L481.8,437.6L481.8,437.6z M473.3,503.1
	c0.6-3.2,1.2-6.4,1.9-9.6c-0.1,0.4-0.1,0.8-0.2,1.2c0-0.1,0-0.2,0-0.4c-0.3,1.8-0.5,3.5-0.9,5.3c-0.4,1.8-0.8,3.6-1.2,5.4
	C473,504.4,473.1,503.7,473.3,503.1L473.3,503.1L473.3,503.1z M454,814.9c0.1,0.5,0.1,0.9,0.2,1.4C454.1,815.8,454,815.3,454,814.9
	L454,814.9L454,814.9z"/>
<path class="st1" d="M236.3,722.7c-0.4,1.9-0.5,3.8-0.7,5.7c-0.2,1.7-0.2,3.4-0.3,5.1c-0.1,2,0,3.9,0.2,5.9c0.3,2.4,0.6,4.7,1.3,7
	c0.6,2.2,1.6,4.2,2.6,6.2c0.5,0.9,1,1.8,1.6,2.7c0.8,1.1,1.7,2,2.7,2.9c1.8,1.6,3.7,2.8,5.9,3.7c2.3,1,4.7,1.4,7.1,1.7
	c2.1,0.3,4.3,0.3,6.4,0c2.6-0.3,5.2-1,7.7-1.8c2.3-0.8,4.5-1.7,6.8-2.8c2.2-1,4.2-2.2,6.3-3.5c3.2-2,6.3-4.1,9.3-6.4
	c1.2-0.9,2.3-1.8,3.5-2.8c1.1-1,2.1-2,3.1-3.1c1.2-1.3,2.1-2.8,3-4.3c0.6-1.2,0.9-2.5,0.5-3.9c-0.4-1.3-1.2-2.3-2.3-3
	c-1.2-0.7-2.6-0.9-3.9-0.5c-1.2,0.3-2.5,1.2-3,2.3c-0.5,1-1.1,2-1.8,3c-1.5,1.8-3.1,3.4-4.8,4.9c-0.6,0.6-1.2,1.1-1.8,1.7
	c-1,0.9-2,1.7-3.1,2.6c-2.1,1.6-4.4,3.2-6.6,4.6c-2.3,1.4-4.7,2.6-7.1,3.6c-2.3,0.9-4.6,1.7-7,2.1c-2,0.2-4.1,0.2-6.1,0
	c-1.5-0.2-2.9-0.6-4.3-1.1c-1.2-0.5-2.3-1.2-3.3-2c-0.8-0.7-1.6-1.4-2.2-2.2c-1.2-1.7-2.2-3.4-3-5.3c-1.1-2.8-1.8-5.7-2.2-8.7
	c-0.5-4.6-0.4-9.2-0.4-13.8c0,0,0,0,0,0c0-0.6-0.3-1.3-0.9-1.6c-0.3-0.2-0.6-0.2-0.9-0.2C237.3,721.4,236.5,721.9,236.3,722.7
	L236.3,722.7L236.3,722.7z"/>
<path class="st1" d="M278.4,758.3c-0.5,0.3-1.1,0.9-1.2,1.6c-0.7,5.1-1.4,10.2-2,15.3c-0.3,2.7-0.5,5.4-0.7,8.2c-0.3,2-0.6,4-0.9,6
	c-0.4,3.1-0.6,6.2-0.8,9.4c-0.2,3-0.3,6-0.4,8.9c-0.1,1.7-0.1,3.5-0.2,5.2c0,0,0,0.1,0,0.1c-0.2,2.9-0.5,5.9-0.7,8.8
	c-0.4,6.3-0.8,12.7-1.2,19c-0.2,3-0.3,6.1-0.5,9.2c-0.1,2.5-0.3,5-0.4,7.4c-0.3,6.6-0.6,13.1-0.8,19.7c-0.4,12.6-0.9,25.2-1.3,37.8
	c0,1-0.1,1.9-0.1,2.9c-0.1,2.8,2.4,5.1,5.1,5.1c2.8,0,5.2-2.3,5.1-5.1c-0.4-13.1-0.2-26.2-0.1-39.3c0.1-6.4,0.3-12.9,0.5-19.3
	c0.1-5.9,0.4-11.9,0.5-17.8c0.1-2.7,0.2-5.3,0.2-8c0.1-3,0.1-6,0.2-9c0.1-3.1,0.2-6.2,0.3-9.3c0.1-3.1,0.3-6.3,0.4-9.4
	c0.3-6.4,0.5-12.7,0.9-19.1c0.1-2.2,0.2-4.5,0.4-6.7c0-1,0.1-1.9,0.2-2.8c0.3-3.7,0.6-7.3,0.9-11c0.1-1.8,0.3-3.6,0.5-5.4
	c0,0,0,0,0,0c0-0.5-0.1-0.9-0.3-1.3c-0.3-0.6-0.9-1-1.6-1.2c-0.2-0.1-0.5-0.1-0.7-0.1C279.3,757.9,278.8,758,278.4,758.3
	L278.4,758.3L278.4,758.3z"/>
<path class="st1" d="M484.3,322c-4,0.1-7.9,0.6-11.8,1.2c-4.9,0.8-9.7,1.9-14.4,3.2c-4.6,1.3-8.9,3.2-13.2,5.1
	c-1.6,0.8-3.3,1.5-4.9,2.4c-1.7,1-3.5,2.3-4.6,4c-0.4,0.7-0.8,1.4-1,2.2c-0.2,0.5-0.2,1-0.1,1.5c0,0.5,0.1,1,0.3,1.5
	c0.4,1.1,1,2,2,2.6c0.9,0.6,1.9,0.8,2.9,1.1c2,0.5,4-0.6,4.6-2.6c0.4-1.3,0-2.6-0.9-3.5c1.1-0.7,2.3-1.3,3.5-1.8
	c1.6-0.7,3.2-1.5,4.8-2.1c7.7-3.1,15.9-5,24.1-6.2c2.9-0.4,5.7-0.6,8.6-0.6c2.9,0,5.8,0.2,8.6,0.6c2.6,0.4,5.1,1,7.6,1.9
	c1.3,0.6,2.4,1.3,3.6,2.1c1.3,1,2.4,2.2,3.5,3.4c0.5,0.7,0.9,1.4,1.3,2.2c0.2,0.5,0.3,1,0.4,1.6c0.1,1.1,0,2.2-0.1,3.4
	c-0.4,2.3-1,4.6-1.9,6.8c-1.1,2.3-2.5,4.5-4,6.5c-2,2.5-4,4.9-6.2,7.1c-2.4,2.5-5,4.7-7.7,6.8c-2.6,2-5.4,3.8-8.3,5.4
	c-3.3,1.9-6.7,3.5-10.1,5c-1.7,0.7-3.5,1.4-5.2,2.2c-3.5,1.4-7.1,2.9-10.8,3.5c-1.4,0.2-2.7,1.4-3.4,2.6c-0.8,1.3-1,2.9-0.6,4.4
	c0.4,1.4,1.3,2.6,2.6,3.4c0.5,0.2,0.9,0.4,1.4,0.6c1,0.3,2,0.3,3,0c3.3-0.4,6.3-1.6,9.4-2.7c2.9-1.1,5.7-2.4,8.6-3.6
	c5.9-2.5,11.4-5.9,16.5-9.7c2.9-2.2,5.7-4.5,8.3-7c2.7-2.5,5.1-5.3,7.4-8.3c2.2-2.7,4.3-5.5,6-8.5c1.8-3.1,2.9-6.6,3.7-10.1
	c0.4-1.7,0.5-3.5,0.7-5.2c0.1-1.7-0.1-3.3-0.4-5c-0.3-1.5-1-3-1.7-4.4c-0.4-0.7-0.8-1.3-1.3-1.9c-0.7-0.9-1.5-1.8-2.3-2.6
	c-1.2-1.2-2.6-2.2-3.9-3.2c-1.2-0.9-2.5-1.6-3.9-2.2c-1.5-0.7-3.1-1.2-4.7-1.6c-1.9-0.5-3.9-0.7-5.8-1c-2.9-0.4-5.8-0.5-8.7-0.5
	C485.2,321.9,484.7,321.9,484.3,322L484.3,322L484.3,322z"/>
<path class="st1" d="M482.2,417.2c0,0.8,0.7,1.5,1.5,1.5s1.5-0.7,1.5-1.5s-0.7-1.5-1.5-1.5S482.2,416.4,482.2,417.2L482.2,417.2
	L482.2,417.2z"/>
<path class="st1" d="M45,202.8c-1.7,0.2-3.3,0.4-5,0.6c-2,0.3-4,0.8-6,1.2c-7,1.8-13.9,4-20.6,6.5c-1.6,0.6-3.1,1.2-4.7,1.9
	c-1.3,0.6-2.5,1.1-3.7,1.8c-0.7,0.4-1.3,0.9-1.9,1.4c-0.5,0.4-1,0.8-1.4,1.3c-0.7,0.7-1.1,1.5-1.5,2.4c-0.4,1.2-0.4,2.2-0.2,3.4
	c0.2,1.4,0.9,2.7,1.6,3.9c0.9,1.4,2.1,2.5,3.4,3.4c2.6,1.8,5.7,2.8,8.7,3.8c1.5,0.5,3,1,4.5,1.4c1.6,0.4,3.3,0.8,4.9,1.1
	c1.9,0.4,3.7,0.7,5.6,1.1c5,0.9,10.1,1.8,15.2,2.7c3.1,0.5,6.1,1,9.2,1.4c1.3,0.2,2.8-0.6,3.7-1.5c1-1,1.5-2.3,1.5-3.7
	s-0.5-2.7-1.5-3.7c-0.3-0.3-0.7-0.5-1.1-0.8c-0.8-0.5-1.7-0.7-2.6-0.7c-1.2-0.1-2.4-0.3-3.7-0.4c-4.1-0.6-8.2-1.2-12.2-1.8
	c-2.7-0.4-5.5-0.8-8.2-1.3c-3.3-0.6-6.6-1.1-9.9-2c-1.4-0.4-2.9-0.8-4.3-1.3c-1.1-0.3-2.1-0.7-3.2-1.1c-0.7-0.3-1.3-0.7-1.9-1.1
	c-0.1-0.1-0.3-0.2-0.4-0.4c0.1-0.1,0.1-0.1,0.2-0.1c1.9-1.3,4.1-2.2,6.2-3.1c4.1-1.7,8.4-3.3,12.6-4.6c4.6-1.4,9.3-2.8,14.1-3.5
	c1.5-0.2,3-0.3,4.5-0.5c1.8-0.2,3.6-0.2,5.3-0.1c0.6,0.1,1.1,0.2,1.7,0.4c0.2,0.1,0.4,0.2,0.6,0.4c0.2,0.1,0.3,0.3,0.4,0.4
	c-0.2,0.8-0.5,1.6-0.7,2.4c-0.6,2,0.7,4.2,2.7,4.8c2,0.6,4.2-0.7,4.8-2.7c0.3-1.2,0.8-2.4,1-3.6c0.1-0.8,0.2-1.8,0-2.6
	c-0.3-0.7-0.5-1.4-0.9-2.1c-0.8-1.4-2.1-2.4-3.3-3.4c-0.5-0.4-1.4-0.7-2.1-1c-0.8-0.3-1.7-0.5-2.6-0.6c-1.2-0.2-2.4-0.2-3.6-0.2
	C48.6,202.5,46.8,202.6,45,202.8L45,202.8L45,202.8z M42.2,210.9c-0.1,0-0.2,0-0.3,0C42,210.9,42.1,210.9,42.2,210.9L42.2,210.9
	L42.2,210.9z M54.9,211c0,0.1,0.1,0.1,0.2,0.2l0,0C55,211.1,54.9,211.1,54.9,211L54.9,211L54.9,211z M55.1,211.2L55.1,211.2
	C55.1,211.2,55.1,211.3,55.1,211.2C55.1,211.3,55.1,211.2,55.1,211.2L55.1,211.2L55.1,211.2z"/>
<path class="st1" d="M664.1,694.3c-0.7,0.4-1.1,1.1-1.4,1.8c-0.4,1.1-0.4,2.3-0.5,3.5c0,0.5,0,0.9-0.1,1.3c0,1,0,1.9-0.1,2.8
	c0,1.5-0.1,2.9-0.1,4.4c-0.1,3.6-0.2,7.2-0.2,10.8c0,1,0,2,0,3c0,2.3,0,4.6,0,6.9c0,2.5,0,5.1,0,7.6c0.1,7.3,0.2,14.7,0.3,22
	c0.1,7,0.3,14,0.5,21.1c0.3,12.2,0.4,24.3,0.5,36.5c0.1,4.1,0.1,8.3,0.2,12.4c0,1.5,1.2,2.8,2.8,2.8c1.5,0,2.8-1.2,2.8-2.8
	c-0.3-14.5-0.4-29-0.6-43.5c-0.1-6.4-0.2-12.9-0.3-19.3c-0.1-5.8-0.2-11.6-0.2-17.5c0-3.9,0-7.8-0.1-11.8c0-2.5,0-5.1,0.1-7.6
	c0-2.3,0-4.6,0.1-6.9c0-1,0-2,0-3c0.1-3.6,0.3-7.2,0.4-10.8c0-1.3,0.1-2.5,0.2-3.8c0.1-2,0.1-4,0.3-6c0.1-0.3,0.2-0.6,0.2-1
	c0-0.2,0-0.3,0-0.5c0.1-1.4-1-2.6-2.3-3c-0.3-0.1-0.5-0.1-0.8-0.1C665.2,693.9,664.6,694,664.1,694.3L664.1,694.3L664.1,694.3z
	 M668.6,698.5c0,0.1,0,0.2,0,0.3C668.5,698.7,668.5,698.6,668.6,698.5L668.6,698.5L668.6,698.5z"/>
<path class="st1" d="M609.3,623.2c-2.7,0.4-5.4,1.2-8,2c-2.4,0.7-4.8,1.6-7.1,2.6c-2.3,1-4.6,2.3-6.7,3.8c-2,1.3-3.9,2.9-5.5,4.7
	c-1.8,1.9-3.4,4-4.5,6.4c-0.5,1.1-0.9,2.2-1.1,3.5c-0.2,1.3-0.3,2.5-0.2,3.8c0.1,1.2,0.3,2.5,0.6,3.7c0.3,1.4,1,2.7,1.6,3.9
	c0.5,1,1.2,2,1.9,2.9c0.8,1,1.5,2,2.4,2.9c1.8,2,4.1,3.6,6.2,5.1c4.2,3,8.9,5.2,13.7,7.2c4.6,1.9,9.5,3.4,14.4,4.7
	c4.2,1.1,8.5,2,12.8,2.9c4.6,1,9.2,2,13.8,3.1c1.7,0.4,3.5-0.5,4-2.3c0.5-1.6-0.5-3.6-2.2-4c-4.6-1.1-9.2-2.1-13.8-3.1
	c-4.3-1-8.5-1.8-12.8-2.9c-4.9-1.3-9.7-2.8-14.4-4.7c-4.8-2.1-9.4-4.5-13.6-7.7c-1.7-1.3-3.2-2.8-4.6-4.5c-0.9-1.3-1.8-2.6-2.4-4
	c-0.3-0.8-0.5-1.6-0.6-2.5c-0.1-1-0.1-2,0-3c0.1-0.6,0.3-1.2,0.5-1.9c0.5-1,1.1-1.9,1.7-2.8c1.3-1.6,2.7-3,4.2-4.3
	c2.6-1.9,5.4-3.5,8.4-4.8c1.9-0.8,3.8-1.4,5.8-2c2.3-0.7,4.6-1.4,7-1.8c1.7-0.2,3.4-0.2,5.1,0c1.5,0.2,2.9,0.7,4.3,1.2
	c3.1,1.4,6.1,2.9,8.8,4.9c1.4,1.2,2.7,2.5,3.9,3.9c0.7,1,1.3,2,1.8,3.1c0.6,1.3,2.3,1.8,3.6,1.5c0.8-0.2,1.5-0.8,1.9-1.5
	c0.4-0.7,0.6-1.7,0.3-2.5c-0.4-1-0.8-2-1.3-2.9c-0.6-1.1-1.3-2.2-2.1-3.1c-0.7-0.9-1.5-1.7-2.3-2.5c-1.1-1.1-2.3-2-3.5-2.8
	c-2-1.4-4.2-2.6-6.5-3.7c-1.2-0.5-2.3-1.1-3.5-1.5c-1.3-0.5-2.6-0.8-4-1s-2.7-0.3-4.1-0.3C611.9,622.9,610.6,623,609.3,623.2
	L609.3,623.2L609.3,623.2z M590.4,661.3c0.1,0,0.1,0.1,0.2,0.2C590.5,661.4,590.5,661.3,590.4,661.3L590.4,661.3L590.4,661.3z"/>
<path class="st1" d="M652.5,460c-0.9,0.2-1.6,0.7-2.3,1.3c-0.4,0.3-0.7,0.9-1,1.3c-0.2,0.2-0.3,0.4-0.5,0.6c-1.3,1.6-2.7,3.3-3.9,5
	c-1.4,2-2.7,4.1-3.9,6.3c-2.3,4.3-4,8.9-5.4,13.5c-1.4,4.6-2.3,9.4-3.1,14.1c-0.8,5-1.2,10-1.5,15c-0.5,10.1,0.1,20.2,1.3,30.3
	c1.2,10.1,3.2,20,5.5,29.9c1.2,5.3,2.6,10.6,4.1,15.8c0.9,3.2,1.9,6.5,3,9.7c1.6,4.5,3.2,9.1,5,13.6c0.3,0.7,0.5,1.2,1.2,1.5
	c0.6,0.3,1.3,0.4,2,0.2c0.6-0.2,1.2-0.6,1.5-1.2c0.3-0.5,0.5-1.4,0.3-2c-1.2-3-2.2-5.9-3.3-8.9c-0.6-1.6-1.2-3.2-1.7-4.8
	c-0.6-1.6-1.1-3.2-1.6-4.8c-2.2-7.4-4.2-14.8-5.9-22.3c-1.7-7.5-3.2-15-4.2-22.5c-1-7.5-1.6-15-1.8-22.5c-0.2-7.7,0.2-15.4,1.2-23
	c1.1-7.7,2.8-15.5,5.8-22.7c0.9-2.2,2-4.3,3.1-6.4c1.2-2.2,2.7-4.3,4.2-6.3c0.7-0.9,1.4-1.8,2.2-2.6c0.3-0.4,0.6-0.7,0.9-1.1
	c0.1,0.1,0.2,0.3,0.4,0.4c0.4,0.6,0.8,1.2,1,1.9c0.8,2,1.2,4.1,1.5,6.2c0.4,2.5,0.8,5,1.2,7.5c0.6,4.7,0.8,9.4,1.1,14.1
	c0.1,1.5,0.2,3,0.2,4.5c0.2,4.6,0.3,9.2,0.5,13.8c0.2,6,0.2,12.1,0.3,18.1c0,3.8,0,7.6,0.1,11.5c0,1.6,0,3.3,0.1,4.9
	c0,2.5,0.2,5,0.8,7.5c0.5,1.9,2.5,3,4.4,2.5c2-0.5,3-2.5,2.5-4.4c-0.1-0.4-0.2-0.8-0.2-1.2c-0.3-3.3-0.3-6.7-0.4-10.1
	c-0.1-3.7-0.1-7.4-0.2-11.1c-0.1-6-0.2-12-0.4-18c-0.1-3.8-0.3-7.6-0.4-11.4c-0.1-3.8-0.3-7.5-0.6-11.3c-0.3-4-0.6-8.1-1.2-12.1
	c-0.3-1.7-0.6-3.4-0.8-5.1c-0.3-1.8-0.6-3.6-1-5.3c-0.8-3.1-2.2-6.3-4.8-8.3c-1.2-0.9-2.6-1.8-4.2-1.8
	C653.2,459.8,652.8,459.9,652.5,460L652.5,460L652.5,460z M657.8,482.4c0,0.1,0,0.1,0,0.2C657.8,482.6,657.8,482.5,657.8,482.4
	L657.8,482.4L657.8,482.4z"/>
<path class="st1" d="M695.9,428.6c-0.8,0.8-1.7,1.6-2.2,2.6c-0.6,1-0.8,2.2-1.2,3.4c-0.3,1-0.6,2-0.9,3c-0.5,1.8-1,3.5-1.5,5.3
	c-1.1,3.8-2.1,7.6-3.1,11.4c-0.3,1-0.5,2.1-0.7,3.1c-0.6,2.5-1.1,5.1-1.7,7.6c-0.6,2.9-1.2,5.9-1.8,8.8c-0.8,4.1-1.6,8.2-2.4,12.4
	c-0.2,1.2-0.4,2.3-0.6,3.5c-0.4,2.6-0.9,5.2-1.3,7.8c-0.5,3-1.1,6-1.5,8.9c-0.7,4.6-1.3,9.3-2,13.9c-0.3,2.1-0.6,4.3-0.9,6.4
	c-0.3,2.1-0.5,4.2-0.7,6.3c-0.8,6.8-1.5,13.5-2.2,20.3c-0.1,0.8,0.4,1.8,1,2.4c0.6,0.6,1.5,1,2.4,1c0.9,0,1.7-0.4,2.4-1
	c0.7-0.7,0.9-1.5,1-2.4c0.8-8.5,1.8-17,2.8-25.4c0.5-3.6,1-7.1,1.5-10.7c0.3-2.4,0.7-4.8,1-7.3c0.1-0.9,0.2-1.7,0.4-2.6
	c0.8-4.3,1.5-8.6,2.2-13c0.5-2.8,0.9-5.5,1.5-8.2c0.9-4.7,1.8-9.4,2.8-14.1c0.7-3.3,1.4-6.6,2.2-10c0.4-1.7,0.7-3.3,1.1-5
	c0.4-1.8,0.9-3.5,1.4-5.2c1-3.7,2-7.3,3-11c0.2-0.8,0.5-1.5,0.7-2.2c0.2,0.9,0.4,1.8,0.5,2.7c0.3,2.3,0.4,4.5,0.6,6.8
	c0.2,2.8,0.5,5.6,0.7,8.4c0.3,5.5,0.4,11,0.6,16.6c0.1,3.8,0,7.6,0,11.3c0,4.1,0,8.2,0,12.2c0,1.1-0.1,2.1-0.1,3.2
	c-0.1,2.6-0.2,5.3-0.3,7.9c-0.2,6-0.5,11.9-0.7,17.8c-0.3,6.4-0.5,12.7-0.7,19.1c0,1.9,1.6,3.4,3.4,3.4c1.9,0,3.3-1.5,3.4-3.4
	c0.5-15.5,1-31.1,1.5-46.6c0.1-2.4,0-4.8,0-7.2c0-4.8,0-9.6,0-14.5c0-6.4-0.2-12.9-0.5-19.3c-0.1-2.4-0.3-4.8-0.5-7.3
	c-0.2-2.4-0.3-4.8-0.6-7.2c-0.2-2.5-0.6-4.9-1.2-7.3c-0.3-1.2-0.8-2.4-1.4-3.5c-0.5-1-1.3-1.8-1.9-2.8c-0.5-0.8-1.1-1.3-2-1.5
	c-0.3-0.1-0.6-0.1-0.9-0.1C697.5,427.6,696.6,428,695.9,428.6L695.9,428.6L695.9,428.6z"/>
<path class="st1" d="M732.5,462.7c-0.5,0.6-1,1.1-1.5,1.8c-0.5,0.6-0.9,1.3-1.3,1.9c-0.3,0.5-0.7,1-1,1.5c-0.6,0.9-1.1,1.8-1.7,2.7
	c-1.3,2.1-2.5,4.3-3.8,6.5c-0.9,1.6-1.8,3.2-2.7,4.8c-1.6,2.9-3,6-4.2,9c-2.5,6.1-4.6,12.3-6.2,18.7c-1.4,5.3-2.5,10.6-3.4,16
	c-0.5,2.8-0.8,5.6-1,8.4c-0.1,1.3-0.1,2.6-0.1,4c0,0.7,0,1.3,0.1,2c0,0.8,0.2,1.5,0.4,2.3c0.1,0.6,0.7,1,1.3,1c0.6,0,1.1-0.4,1.3-1
	c0.2-0.8,0.3-1.7,0.5-2.5c0.1-0.6-0.1-1.3-0.7-1.5c0-2.5,0.3-5,0.6-7.4c0,0.1,0,0.3,0,0.4c0.8-6.2,2.2-12.3,3.8-18.4
	c1.6-6,3.5-11.9,5.9-17.5c-0.1,0.1-0.1,0.3-0.2,0.5c0.9-2.2,1.9-4.4,3-6.5c1.1-2.2,2.3-4.4,3.6-6.5c1.2-2.1,2.5-4.1,3.8-6.2
	c1.6-2.5,3.2-5,5-7.4c0.1,1,0,2.1,0,3.1c-0.1,1.6-0.1,3.1-0.2,4.7c-0.1,3.4-0.4,6.8-0.7,10.1c-0.3,2.9-0.5,5.7-0.8,8.6
	c-0.4,4.8-0.8,9.6-1.2,14.5c-0.3,4.2-0.6,8.4-0.9,12.6c-0.1,2.4-0.3,4.9-0.4,7.3c0,1.1,0,2.2,0,3.2c0,1.3,0.1,2.6,0.3,4
	c0,0.2,0.1,0.5,0.1,0.8c0.1,0.5,0.4,0.9,0.7,1.2c0.5,0.5,1.3,0.8,2,0.8s1.5-0.3,2-0.8c0.5-0.5,0.9-1.3,0.8-2
	c-0.3-2.5-0.2-4.9-0.2-7.4c0.1-2.4,0.2-4.8,0.3-7.3c0.2-4.5,0.5-9,0.8-13.4c0.1-1.8,0.2-3.5,0.4-5.3c0.2-3,0.5-6,0.8-9.1
	c0.3-3.2,0.5-6.5,0.8-9.7c0.3-3.4,0.5-6.7,0.5-10c0-1.4,0.1-2.8,0.2-4.2c0-1.5-0.1-3.1-0.5-4.6c-0.2-0.6-0.4-1.2-0.7-1.7
	c-0.4-0.6-1-1.1-1.5-1.5c-0.1-0.1-0.2-0.1-0.2-0.2c-0.5-0.5-1.1-0.8-1.8-0.8C733.7,462,732.9,462.2,732.5,462.7L732.5,462.7
	L732.5,462.7z M736.1,462.7c0.1,0,0.1,0.1,0.2,0.1C736.2,462.8,736.1,462.7,736.1,462.7L736.1,462.7L736.1,462.7z M736.4,462.9
	c0.1,0,0.1,0.1,0.2,0.2C736.5,463,736.5,463,736.4,462.9L736.4,462.9L736.4,462.9z"/>
<path class="st1" d="M753.4,504.4c-0.4,0-0.8,0.1-1.1,0.2c-0.4,0.1-0.8,0.3-1.1,0.4c-0.4,0.2-0.7,0.5-1,0.7
	c-0.3,0.2-0.6,0.5-0.8,0.7c-0.7,0.6-1.3,1.4-1.8,2.1c-1,1.2-1.6,2.7-2.4,4c-0.9,1.6-1.7,3.2-2.5,4.9c-3.1,6.6-5.6,13.5-6.8,20.7
	c-0.6,3.8-0.8,7.8-0.9,11.6c0,1.1,0.9,2,2,2c1.1,0,1.9-0.9,2-2c0.1-3.3,0.3-6.7,0.7-10c0.8-5.5,2.5-10.8,4.6-15.9
	c1-2.3,2-4.5,3.1-6.7c0.6-1.1,1.2-2.2,1.8-3.3c0.5-1,1.1-2,1.7-2.9c0.6-0.7,1.2-1.4,1.9-2c0.2-0.1,0.3-0.2,0.5-0.3
	c0.1,0,0.2,0,0.2-0.1c0.3,0,0.6,0,0.9,0c0.4,0.1,0.8,0.2,1.1,0.3c0.2,0.1,0.3,0.2,0.5,0.3c0.1,0.1,0.3,0.3,0.4,0.4
	c0.3,0.4,0.5,0.8,0.7,1.2c0.6,1.5,0.9,3,1.1,4.6c0.2,2,0.4,3.9,0.5,5.9c0,2.3-0.2,4.7-0.5,7c-0.5,3.5-1.1,7-1.8,10.5
	c-0.7,3.6-1.6,7.1-2.6,10.6c-1.1,3.8-2.2,7.6-3.4,11.4c-1.9,5.8-3.7,11.6-5.6,17.4c-0.2,0.6-0.4,1.1-0.7,1.7
	c-0.7,1.8-1.4,3.6-2.1,5.4c-1.1,2.9-2.3,5.8-3.4,8.8c-4.1,9.5-8.2,18.9-12.2,28.4c-0.4,0.9-0.7,1.8-1.1,2.7c-0.5,1.2-1,2.3-1.4,3.5
	c-1,2.8-2,5.6-2.5,8.5c-0.1,0.7-0.1,1.3,0.2,1.9c0.3,0.5,0.8,1,1.5,1.1c1.2,0.3,2.7-0.4,3-1.7c0.7-2.7,1.7-5.4,2.7-8
	c0.8-2,1.6-4.1,2.4-6.1c2.1-5.2,4.2-10.3,6.3-15.4c1.8-4.5,3.8-9,5.6-13.5c0.2-0.5,0.4-1,0.6-1.5c0.5-1.5,1.1-2.9,1.7-4.4
	c1.2-3,2.3-6.1,3.5-9.1c0.5-1.3,0.9-2.6,1.3-3.9c1.1-3.4,2.2-6.8,3.2-10.1c0.7-2.2,1.4-4.4,2.1-6.6c0.4-1.3,0.7-2.5,1.1-3.8
	c0.5-1.8,1-3.7,1.6-5.5c1-3.5,1.9-7,2.6-10.6c0.7-3.6,1.3-7.3,1.8-10.9c0.5-3.6,0.7-7.2,0.4-10.8c-0.2-2.8-0.5-5.7-1.5-8.3
	c-0.2-0.6-0.5-1.3-0.8-1.9c-0.3-0.6-0.7-1.1-1.1-1.6c-0.9-1.1-2.4-1.8-3.8-2c-0.6-0.1-1.2-0.2-1.7-0.2
	C753.6,504.4,753.5,504.4,753.4,504.4L753.4,504.4L753.4,504.4z M744.2,523.7c0,0,0,0.1-0.1,0.2
	C744.2,523.8,744.2,523.7,744.2,523.7L744.2,523.7L744.2,523.7z M758.1,528.2c0,0,0,0.1,0,0.2C758.1,528.3,758.1,528.2,758.1,528.2
	L758.1,528.2L758.1,528.2z M758.1,528.4c0,0.1,0,0.2,0,0.3C758,528.6,758,528.5,758.1,528.4L758.1,528.4L758.1,528.4z"/>
<path class="st1" d="M709.6,681.6c-0.2,0.6-0.5,1.2-0.7,1.8c-0.2,0.6-0.3,1.3-0.4,2c-0.2,1.4-0.3,2.8-0.4,4.3
	c-0.2,2.9-0.1,5.8-0.1,8.7c0,1.9-0.1,3.8-0.1,5.7c-0.1,5.3-0.2,10.7-0.4,16c-0.1,2.4-0.1,4.8-0.2,7.2c0,0.8,0,1.6-0.1,2.4
	c-0.2,4.1-0.3,8.2-0.5,12.3c-0.2,5.2-0.4,10.4-0.6,15.5c-0.1,2.2-0.2,4.4-0.4,6.6c-0.5,8.3-1,16.6-1.6,24.9c-0.3,4.9-0.7,9.9-1,14.8
	c-0.2,3.2-0.5,6.5-0.7,9.7c-0.5,8.7-1,17.3-1.5,26c-0.1,2.3-0.2,4.5-0.4,6.8c-0.1,1.2-0.2,2.5-0.2,3.7c0,0.8-0.1,1.6-0.1,2.4
	c0,0.3,0,0.5,0,0.8c0,0.4,0,0.7,0,1.1c0,0.6,0.1,1.1,0.2,1.7c0.2,0.5,0.4,1,0.8,1.4c0.6,0.6,1.4,0.9,2.3,0.9c0.8,0,1.7-0.3,2.3-0.9
	c0.5-0.5,1-1.5,0.9-2.3c-0.1-0.8-0.1-1.5-0.1-2.3c0-0.7,0-1.4-0.1-2.2c0-0.7,0-1.4,0-2.1c0-2-0.1-3.9-0.1-5.9c0-2.4,0-4.8,0-7.2
	c0-1.6,0-3.1,0-4.7c0.1-4.8,0.1-9.6,0.2-14.4c0-1.2,0-2.3,0-3.4c0.1-1.6,0.1-3.2,0.2-4.8c0.3-7.8,0.6-15.6,1-23.4
	c0.2-5.5,0.5-11,0.7-16.5c0.1-2.3,0.2-4.6,0.3-6.9c0-0.7,0.1-1.5,0.1-2.2c0.2-9.3,0.4-18.6,0.6-27.9c0-2.3,0.1-4.6,0.1-6.9
	c0-5.6,0.1-11.2,0.1-16.9c0-1.8,0-3.7,0-5.5c0-5.6-0.5-11.2,0.2-16.8c0,0.6,0.1,1.2,0.1,1.8c0,1.3,0.1,2.7,0.2,4
	c0.1,1.8,0.1,3.6,0.2,5.4c0.1,4.5,0.2,8.9,0.3,13.4c0,0.5,0.8,0.5,0.8,0c-0.1-4.4-0.2-8.8-0.3-13.2c0-1.8-0.1-3.6-0.1-5.5
	c0-1.4-0.1-2.7-0.1-4.1c0-1.8-0.2-3.5-0.3-5.2c0-0.3-0.3-0.5-0.5-0.5C709.9,681.2,709.7,681.3,709.6,681.6L709.6,681.6L709.6,681.6z
	"/>
<path class="st1" d="M644.6,62.1c-0.1,0-0.1,0-0.2,0.1C644.5,62.2,644.5,62.2,644.6,62.1c-1,0.4-1.9,0.7-2.7,1.3
	c-0.8,0.6-1.6,1.3-2.4,2.1c-1.7,1.6-3.2,3.4-4.8,5.1c-1,1-1.9,2.1-2.8,3.1c-2.5,2.7-5,5.3-7.4,8c-4.9,5.6-9.9,11.2-14.8,16.8
	c-2.1,2.4-4.2,4.8-6.3,7.2c-1.3,1.4-2.6,2.8-3.8,4.2c-1.8,1.9-3.5,3.9-4.9,6.1c-0.7,1.1-0.8,2.6-0.5,3.8c0.3,1.2,1.2,2.3,2.3,2.9
	c2.2,1.3,5.5,0.6,6.7-1.8c2.3-4.5,5.2-8.7,8.1-12.9c1.3-1.8,2.5-3.7,3.8-5.4c1.7-2.2,3.3-4.5,5-6.7c1.6-2.1,3.3-4.2,5-6.3
	c1.3-1.7,2.6-3.4,4-5.1c2.4-2.8,4.8-5.7,7.1-8.5c0.6-0.7,1.2-1.5,1.8-2.2c0.1-0.1,0.2-0.2,0.2-0.3c-1.2,1.8-2.3,3.5-3.5,5.2
	c-0.4,0.6-0.1,1.6,0.5,1.9c0.7,0.4,1.5,0.1,2-0.5c1.6-2.3,3.2-4.6,4.7-7c0.7-1,1.3-2.1,2-3.1c0.3-0.6,0.7-1.1,1.1-1.7
	c0.4-0.6,0.8-1.1,1.1-1.7c0.4-0.7,0.7-1.4,1-2.2c0.3-0.8,0.3-1.5-0.3-2.2c-0.4-0.4-0.8-0.5-1.2-0.5C645.3,61.9,644.9,62,644.6,62.1
	L644.6,62.1L644.6,62.1z M620,95.9c-0.1,0.1-0.1,0.2-0.2,0.3C619.9,96.1,619.9,96,620,95.9L620,95.9L620,95.9z"/>
<path class="st1" d="M579.7,94.5c-1.2,0-2.4,0.7-3,1.7c-0.6,1-0.7,2.5,0,3.5c0.3,0.5,0.7,1,1.1,1.4c0.4,0.5,1.1,0.9,1.7,1.4
	c2,1.6,4,3.1,6,4.6c0.5,0.6,0.9,1.2,1.4,1.7c0.7,0.9,1.4,1.8,2.1,2.7c3.2,4.2,6.4,8.3,9.6,12.4c-0.1-0.2-0.2-0.3-0.3-0.4
	c1.1,1.4,2.2,2.8,3.3,4.3c-0.1-0.2-0.2-0.3-0.3-0.4c0.2,0.2,0.4,0.5,0.5,0.7c0.1,0.1,0.2,0.2,0.2,0.3c-0.1-0.1-0.2-0.2-0.2-0.3
	c1,1.3,2,2.6,3.1,3.9c0.9,1.1,1.9,2.2,2.8,3.3c0.3,0.8,0.8,1.6,1.4,2.2c0.7,0.7,1.6,1.2,2.6,1.5c1.4,0.4,3.3,0.3,4.5-0.6
	c0.1,0,0.1-0.1,0.2-0.1c0.9-0.5,1.6-1.2,2.1-2.1c0.2-0.5,0.4-0.9,0.6-1.4c0.3-1.1,0.3-2.1,0-3.1c-0.1-0.9-0.5-1.6-1-2.2
	c-0.6-0.8-1-1.2-1.7-1.8c-0.5-0.4-1-0.8-1.5-1.1c-1.7-1.3-3.2-2.8-4.8-4.2c0.1,0,0.2,0,0.4-0.1c0.6-0.2,1.2-0.6,1.5-1.2
	c0.6-1.1,0.3-2.9-0.9-3.4c-2.3-1-4.6-2.1-6.8-3.4c-1.6-0.9-3.2-2-4.7-3.1c-1.3-1.5-2.6-3-3.9-4.4c-1.8-2.1-3.6-4.2-5.6-6.2
	c-1.4-1.4-2.9-2.7-4.5-3.9c-0.7-0.5-1.5-1-2.3-1.4c-0.4-0.3-0.9-0.4-1.4-0.5c-0.6-0.1-1.2-0.1-1.7-0.1
	C579.9,94.5,579.8,94.5,579.7,94.5L579.7,94.5L579.7,94.5z M587,109.1c0.1,0.1,0.2,0.2,0.2,0.3C587.2,109.3,587.1,109.2,587,109.1
	L587,109.1L587,109.1z M607.3,134.9c0,0,0.1,0.1,0.1,0.1v0C607.4,134.9,607.3,134.9,607.3,134.9L607.3,134.9L607.3,134.9z
	 M598.8,124.4c-0.1-0.1-0.2-0.2-0.3-0.3C598.7,124.2,598.8,124.3,598.8,124.4L598.8,124.4L598.8,124.4z M598.6,124.1
	c0-0.1-0.1-0.1-0.1-0.2C598.5,124,598.5,124.1,598.6,124.1L598.6,124.1L598.6,124.1z"/>
<path class="st1" d="M579.3,95.7c-0.2,0.4-0.4,0.8-0.5,1.3c-0.2,0.6-0.3,1.3-0.3,1.9c0,0.4,0,0.8,0.1,1.2c0,0.6,0.1,1.2,0.2,1.8
	c0,0.5,0.1,0.9,0.2,1.4c-1.3,9.3-2.1,18.8-3.3,28.1c0-0.2,0.1-0.5,0.1-0.7c-0.2,1.5-0.4,3.1-0.6,4.6c-0.1,0.6-0.2,1.2-0.2,1.8
	c0,0.2,0,0.4,0,0.6c0.1,0.6,0.2,1.1,0.2,1.7c0.4,1.6,1.2,3.1,2.4,4.3c2.5,2.2,6.5,1.9,9.5,1c1.5-0.4,2.9-1.2,4.2-1.9
	c1.5-0.8,3-1.6,4.4-2.5c1.6-1,3.2-2.1,4.7-3.1c1.9-1.3,3.8-2.5,5.6-3.9c1.4-1.1,2.8-2.1,4.2-3.3c0.6-0.5,1.3-1.4,1.7-2
	c0.4-0.7,0.7-1.4,1-2.2c0.3-0.9,0.3-2.3,0-3.2c-0.3-1.1-0.9-2-1.8-2.8c-0.7-0.7-1.4-1.1-2.3-1.4c-1.4-0.4-2.9-0.2-4.1,0.5
	c-1.2,0.7-2.1,1.8-2.4,3.2c-0.1,0.3-0.1,0.5-0.2,0.8c-1.3,1.4-2.9,2.6-4.3,3.8c-1.3,1.1-2.6,2.1-3.9,3.1c-1.6,1.2-3.1,2.3-4.8,3.4
	c-1.5,1-3.1,2-4.7,2.8c-0.5,0.2-1,0.3-1.4,0.4c0-1.2,0-2.5,0.1-3.7c0-0.9,0.1-1.8,0.1-2.7c0.1-1.7,0.2-3.4,0.3-5
	c0.2-2.6,0.4-5.2,0.6-7.8c0-0.5,0.1-1,0.1-1.5c0.4,0.5,0.8,1,1.2,1.5c2.4,3.1,4.8,6.1,7.3,9.2c0.4,0.5,1.2,0.8,1.8,0.8
	c0.7,0,1.3-0.3,1.8-0.8c0.5-0.5,0.8-1.1,0.8-1.8c0-0.8-0.3-1.3-0.8-1.8c-2.2-2.8-4.3-5.5-6.5-8.3c-0.5-0.6-0.9-1.2-1.4-1.8
	c-1-1.3-1.8-2.7-2.5-4.2c-0.3-0.9-0.6-1.8-0.8-2.8c0.2-1.4,0.3-2.7,0.5-4.1c0.1-0.9,0.1-1.9,0-2.8c-0.1-0.9-0.3-1.7-0.4-2.6
	c-0.2-1-1.2-1.9-2.1-2.2c-0.2-0.1-0.5-0.1-0.8-0.1C581,94.2,579.8,94.8,579.3,95.7L579.3,95.7L579.3,95.7z M581.7,136.7
	c0,0,0.1,0,0.2,0.1C581.8,136.8,581.7,136.7,581.7,136.7L581.7,136.7L581.7,136.7z"/>
<path class="st1" d="M587,111.5c-0.8,0.8-1.2,1.8-1.6,2.9c-0.2,0.8-0.2,1.6,0,2.4c0.3,1.1,1.1,2.1,2.1,2.7c0.1,0.1,0.2,0.1,0.3,0.2
	c0,0.4,0,0.9,0,1.3c-0.5,2.9-1.3,5.7-2.3,8.4c-0.4,0.8-0.9,1.7-1.3,2.5c-0.3,0.6-0.6,1.1-1,1.7c-0.2,0.3-0.3,0.6-0.5,0.9
	c-0.5,0.8-0.9,1.7-1.3,2.6c-0.2,0.7-0.2,1.3,0,2c0.2,0.6,0.5,1.2,1,1.7c1.2,1.3,3,1.4,4.6,0.6c0.6-0.3,1.3-0.6,1.7-1.1
	c0.6-0.7,1.2-1.5,1.8-2.3c1-1.4,1.8-3.1,2.5-4.6c0.3-0.6,0.6-1.3,0.9-1.9c0.6,0.1,1.2,0,1.6-0.2c1.1-0.6,1.3-2,0.8-3.1
	c-0.2-0.4-0.4-0.9-0.7-1.3c0.3-1,0.7-2.1,1-3.1c0.5-1.6,0.7-3.3,0.7-5.1c0-0.9-0.1-1.8-0.2-2.7c-0.1-0.4-0.1-0.8-0.2-1.2
	c0-0.4-0.1-0.8-0.3-1.1c-0.1-0.2-0.2-0.3-0.4-0.5c-0.3-0.6-0.8-1.2-1.3-1.6c-0.6-0.6-1.3-1-2.1-1.2c-0.6-0.2-1.2-0.2-1.7-0.3
	C589.4,109.9,587.9,110.6,587,111.5L587,111.5L587,111.5z M589.7,120.2L589.7,120.2c0,0.1,0,0.1-0.1,0.1
	C589.7,120.3,589.7,120.2,589.7,120.2L589.7,120.2L589.7,120.2z"/>
<path class="st1" d="M679.2,25.2c-1.2,0.8-2.2,1.9-3,3.1c-0.7,1-1.2,2.3-1.8,3.4c-2.9,5.1-5,10.6-6.3,16.4c-0.7,2.9-1,5.9-1.4,8.8
	c-0.4,3.1-0.8,6.2-1.1,9.3c-0.1,1,0.5,2.1,1.1,2.8c0.7,0.7,1.7,1.1,2.8,1.1s2-0.4,2.8-1.1c0.8-0.8,1-1.7,1.1-2.8
	c0.4-3.5,0.8-7,1.2-10.5c0.8-5.2,2-10.2,4-15.1c0.7-1.5,1.4-2.9,2.2-4.4c0.8-1.4,1.5-2.9,2.3-4.2c0,0,0.1-0.1,0.1-0.1l0,0
	c0.5,0.7,0.8,1.3,1.2,2c1.2,3.3,1.8,6.8,2.4,10.3c0.2,2,0.4,3.9,0.6,5.9c0.2,1.7,0.2,3.4,0.3,5.1c0.3,4,0.5,7.9,0.5,11.9
	c0,2.3,1.9,4.2,4.2,4.2c1.1,0,2.2-0.4,3-1.2c0.8-0.8,1.1-1.8,1.2-2.9c0.4-4.1,0.3-8.2-0.1-12.2c-0.6-5.6-1.2-11.2-2.4-16.7
	c-0.3-1.2-0.6-2.4-1-3.6c-0.4-1.4-0.9-2.9-1.5-4.2c-0.5-1-1-1.8-1.6-2.7c-0.5-0.6-0.9-1.2-1.4-1.7c-0.5-0.5-1.1-0.9-1.7-1.4
	c-1-0.7-2.3-0.9-3.4-0.9c0,0,0,0,0,0C681.9,23.6,680.4,24.4,679.2,25.2L679.2,25.2L679.2,25.2z M682.9,32.3
	c-0.1,0.1-0.1,0.2-0.2,0.2C682.8,32.5,682.8,32.4,682.9,32.3L682.9,32.3L682.9,32.3z"/>
<path class="st1" d="M710.9,35.2c-0.2,3.3-0.3,6.6-0.5,9.9c-0.1,1.5-0.1,2.9-0.2,4.4c-0.1,2.2-0.2,4.5,0,6.7c0.1,1,0.3,1.9,1.1,2.6
	c0.7,0.7,1.6,1.1,2.6,1.1c1,0,1.9-0.4,2.6-1.1c0.6-0.6,1.2-1.7,1.1-2.6c-0.2-2.2-0.1-4.4,0-6.6c0-1.4,0.1-2.9,0.2-4.3
	c0.2-3.4,0.3-6.7,0.5-10.1c0.1-2-1.8-3.7-3.7-3.7C712.5,31.4,711,33.1,710.9,35.2L710.9,35.2L710.9,35.2z"/>
<path class="st1" d="M711.1,9.6c0,1.5,1.2,2.7,2.7,2.7s2.7-1.2,2.7-2.7s-1.2-2.7-2.7-2.7S711.1,8.1,711.1,9.6L711.1,9.6L711.1,9.6z"
	/>
<path class="st1" d="M739.6,9.8c-0.5,0.7-0.9,1.3-1.2,2.1c-0.2,0.6-0.4,1.2-0.5,1.8c-0.3,1.4-0.5,2.9-0.6,4.3
	c-0.1,1.2,0.1,2.5,0.3,3.7c0.2,1,0.5,1.9,0.8,2.9c0.3,0.7,0.6,1.4,1,2c0.3,0.5,0.8,1,1.2,1.5c0.8,1,2,1.6,3.2,2
	c0.6,0.2,1.3,0.2,2,0.3c0.7,0.1,1.5-0.1,2.2-0.2c1.4-0.2,2.8-0.7,4-1.5c0.2-0.1,0.3-0.2,0.5-0.3c0.7,2,1.4,4,2.1,6.1
	c0.2,0.7,0.5,1.5,0.7,2.2c0.3,1.2,0.6,2.5,1,3.8c0.2,0.8,0.4,1.6,0.5,2.4c0.3,1.3,0.6,2.7,0.8,4.1c0.1,1,0.1,1.9,0,2.9
	c-0.2,1.2-0.5,2.3-0.9,3.4c-0.1,0.2-0.2,0.4-0.3,0.5c-0.2,0.2-0.3,0.3-0.5,0.5c-0.3,0.2-0.6,0.4-1,0.5c-0.7,0.2-1.3,0.4-2,0.6
	c-0.7,0-1.3,0-2,0c-1-0.2-1.9-0.4-2.8-0.8c-0.2-0.1-0.5-0.2-0.7-0.3c-0.8-0.4-1.5-0.5-2.3-0.3c-0.8,0.2-1.4,0.7-1.8,1.4
	c-0.8,1.4-0.3,3.3,1.1,4.1c1.5,0.9,3.1,1.6,4.9,2c2,0.5,4,0.3,5.9-0.2c0.9-0.2,1.8-0.6,2.6-1c0.8-0.4,1.5-1,2.2-1.5
	c0.7-0.5,1.2-1.3,1.6-2c0.5-0.8,0.8-1.9,1-2.8c0.4-1.7,0.6-3.5,0.6-5.2c0-1.8-0.4-3.5-0.8-5.2c-0.3-1.2-0.6-2.5-0.9-3.7
	c-0.4-1.5-0.8-3-1.2-4.5c-0.3-1.3-0.8-2.5-1.2-3.8c-0.4-1.2-0.8-2.4-1.3-3.6c-0.5-1.5-1-3-1.4-4.6c0.1-0.2,0.2-0.5,0.3-0.7
	c0.5-1.3,0.7-2.8,0.5-4.1c-0.1-0.7-0.2-1.4-0.4-2.1c-0.2-0.8-0.7-1.5-1.4-2.1c-0.6-0.5-1.2-0.8-2-0.8c-0.7,0-1.5,0.3-2,0.8
	c-0.3,0.4-0.6,0.7-0.8,1.1c0-0.5-0.1-1.1-0.4-1.5c-0.9-1.3-1.9-2.6-2.9-3.7c-0.9-1-2.1-1.8-3.4-2c-0.3-0.1-0.6-0.1-0.9-0.1
	C741.8,8.1,740.5,8.7,739.6,9.8L739.6,9.8L739.6,9.8z M742.6,13.9c0,0,0.1,0,0.1,0C742.6,13.9,742.6,13.9,742.6,13.9L742.6,13.9
	L742.6,13.9z M743.7,14.7c0.2,0.2,0.3,0.4,0.5,0.6c0.4,0.5,0.8,1.1,1.2,1.6c0.5,0.6,1,1.1,1.8,1.4c0.8,0.2,1.6,0.1,2.3-0.3
	c0.4-0.2,0.7-0.5,1-0.9c0,0.2,0,0.5-0.1,0.8c0,0.6,0.1,1.3,0.2,1.9c0.1,0.7,0.2,1.3,0.3,2c-0.1,0.2-0.2,0.3-0.3,0.5
	c-0.4,0.5-0.8,0.9-1.3,1.3c-0.3,0.2-0.6,0.4-0.9,0.5c-0.6,0.2-1.2,0.4-1.8,0.5c-0.3,0-0.6,0-0.9,0c0,0-0.1,0-0.1,0
	c-0.1-0.1-0.2-0.1-0.3-0.2c-0.3-0.2-0.5-0.5-0.7-0.7c-0.2-0.3-0.4-0.6-0.5-0.9c-0.3-0.9-0.5-1.8-0.7-2.6c-0.1-1-0.1-2,0-3
	C743.3,16.2,743.5,15.5,743.7,14.7L743.7,14.7L743.7,14.7z"/>
<path class="st1" d="M772.7,26.1c0,0.8,0.7,1.5,1.5,1.5s1.5-0.7,1.5-1.5s-0.7-1.5-1.5-1.5S772.7,25.4,772.7,26.1L772.7,26.1
	L772.7,26.1z"/>
<path class="st1" d="M780.4,9.5c-0.6,0.4-1,0.9-1.2,1.6c-1.5,3.8-2.8,7.6-4.2,11.4c-0.3,0.8-0.6,1.6-0.9,2.5
	c-0.5,1.8-1.1,3.5-1.6,5.3c-0.6,2.1-1.3,4.2-1.7,6.3c-0.4,1.8-0.7,3.7-0.8,5.6c0,1,0.2,2,0.3,3c0.2,1.1,0.6,2.2,1,3.2
	c0.8,1.7,1.8,3.2,3,4.6c0.6,0.7,1.2,1.4,1.8,2c1,0.8,2,1.3,3.2,1.8c0.5,0.1,0.9,0.2,1.4,0.2c0.5,0.1,1,0.1,1.6,0.1
	c0.9,0,1.9-0.2,2.8-0.4c1-0.2,1.9-0.6,2.8-1c0.9-0.4,1.7-1.1,2.5-1.8c0.4-0.4,0.7-0.9,0.9-1.5c0.2-0.9,0.1-1.8-0.3-2.6
	c-0.9-1.5-3.1-2.3-4.7-1.2c-0.5,0.4-1,0.7-1.6,1c-0.8,0.3-1.5,0.5-2.3,0.6c-0.4,0-0.8,0-1.2,0c-0.2,0-0.3-0.1-0.5-0.1
	c-0.2-0.1-0.4-0.2-0.6-0.3c-0.9-0.8-1.7-1.6-2.4-2.5c-0.5-0.7-1-1.5-1.4-2.3c-0.2-0.7-0.4-1.4-0.6-2.2c-0.1-1-0.1-2,0-3
	c0.5-2.9,1.2-5.8,2.1-8.6c0.3-1.2,0.7-2.4,1.1-3.6c0.2-0.5,0.3-1.1,0.5-1.6c1.6-4.5,3.2-9,4.9-13.5c0.2-0.6,0.1-1.5-0.3-2.1
	c-0.3-0.6-0.9-1-1.6-1.2c-0.2-0.1-0.5-0.1-0.7-0.1C781.3,9.1,780.8,9.3,780.4,9.5L780.4,9.5L780.4,9.5z"/>
<path class="st1" d="M789.1,30.9c-4.3,1.4-8.6,2.9-12.9,4.4c-0.9,0.3-1.6,0.8-2.1,1.6c-0.5,0.8-0.6,1.8-0.3,2.7
	c0.2,0.9,0.8,1.6,1.6,2c0.8,0.4,1.8,0.7,2.7,0.3c4.3-1.5,8.6-3.1,12.8-4.6c0.8-0.3,1.5-0.8,2-1.5c0.5-0.8,0.6-1.7,0.3-2.6
	c-0.4-1.4-1.8-2.5-3.2-2.5C789.7,30.7,789.4,30.8,789.1,30.9L789.1,30.9L789.1,30.9z"/>
<path class="st1" d="M805.2,6.6c-0.1,4.2-0.2,8.3-0.3,12.5c0,1.5,0,3-0.1,4.5c0,1,0,2.1,0.1,3.1c0,1.7,0.1,3.5,0.1,5.2
	c0.1,3.1,0.5,6.3,0.9,9.4c0.3,1.9,0.8,3.7,1.6,5.5c0.7,1.6,1.6,3,2.6,4.4c0.5,0.7,1,1.4,1.6,2c0.2,0.3,0.5,0.5,0.8,0.8
	c0.4,0.4,1,0.9,1.5,1.2c1,0.6,2.3,1.1,3.5,1.1c1.1,0,2.2-0.2,3.3-0.6c0.9-0.3,1.7-0.8,2.2-1.7c0.5-0.9,0.6-1.9,0.4-2.9
	c-0.5-2-2.6-3.1-4.6-2.6c-0.2,0.1-0.5,0.1-0.7,0.2c-0.1,0-0.2,0-0.2,0c-0.2-0.1-0.3-0.2-0.5-0.3c-0.9-0.8-1.7-1.6-2.4-2.5
	c-0.7-1-1.3-2-1.8-3.1c-0.7-2-1.1-4.1-1.4-6.2c-0.2-1.6-0.4-3.2-0.5-4.8c0-1.2-0.1-2.4-0.1-3.5c-0.1-1.7-0.2-3.4-0.2-5
	c0.1-5.6,0.2-11.1,0.3-16.7c0-1.7-1.4-3.1-3.1-3.1C806.6,3.5,805.2,4.9,805.2,6.6L805.2,6.6L805.2,6.6z M818.7,48.7
	c-0.1,0-0.3,0-0.4,0.1C818.4,48.7,818.5,48.7,818.7,48.7L818.7,48.7L818.7,48.7z M818.1,48.8c0.2,0,0.3,0,0.4,0.1
	C818.3,48.8,818.2,48.8,818.1,48.8L818.1,48.8L818.1,48.8z"/>
</svg>
