<?xml version="1.0" encoding="utf-8"?>
<!-- Generator: Adobe Illustrator 23.0.3, SVG Export Plug-In . SVG Version: 6.00 Build 0)  -->
<svg version="1.1" id="Layer_1" xmlns="http://www.w3.org/2000/svg" xmlns:xlink="http://www.w3.org/1999/xlink" x="0px" y="0px"
	 viewBox="0 0 530.8 264.2" style="enable-background:new 0 0 530.8 264.2;" xml:space="preserve">
<style type="text/css">
	.st0{fill:#2C2C2C;}
	.st1{fill:#FFFFFF;}
</style>
<g>
	<g>
		<g>
			<path class="st0" d="M517.4,167.8c0.5-4.6,0.3-75.6,0.1-79.8c-0.3-5.7-2.2-22.2-1.8-26.1c0.5-4.6,0.3-21.8,0.1-26
				c-0.6-11.1-8.2-23.4-20.3-24.3c-2-0.2-218.3,0.3-228.7,2.3c-1.3,0.3-16-1.9-21.8-2.3c-2-0.2-218.3,0.3-228.7,2.3
				c-1.3,0.3-5.1,2.4-7.1,4.8C6.4,22,2.8,27.1,1.8,32.6c-0.2,0.6-0.3,23.1-0.2,23.7c-0.3,5.1,2.9,23,1.9,28.4
				c-0.2,0.6-0.3,23.1-0.2,23.7c-0.3,5.1-0.1,53.2,0,53.8c-0.3,5.1,2.9,23,1.9,28.4c-0.2,0.6-0.3,23.1-0.2,23.7
				c-0.4,6.9,3.7,14.1,18.8,19c7.4,2.4,64.5,1.7,102.3,0.9c27.9,2,126.8-0.7,129.3-0.8c4.1-0.2,83.4,1.6,121.1,0.8
				c27.9,2,126.8-0.7,129.3-0.8c8.3-0.4,12.5-6.3,13.3-13.5C519.6,215.3,517,171.6,517.4,167.8z M260.7,125.2
				c0.1-0.1,0.2-0.1,0.3-0.2C261,125.1,260.9,125.2,260.7,125.2C260.8,125.3,260.8,125.3,260.7,125.2z"/>
			<g>
				<path class="st0" d="M518.9,167.8c0.9-9.6,0.3-19.5,0.3-29.1c0-13.6,0-27.2-0.1-40.8c-0.1-11.1-1.8-22.2-2-33.3
					c-0.3-13.7,3.2-29.5-3.7-42.1c-4.6-8.3-12.2-12.4-21.4-12.4c-6.7,0-13.4,0-20.1,0c-24.9,0-49.9,0.1-74.8,0.3
					c-43.2,0.2-86.5-0.4-129.7,2c-7.8,0.4-16-2.1-24-2.3c-5.7-0.1-11.3,0-17,0c-23.9,0-47.8,0.1-71.7,0.2
					c-28.1,0.1-56.2,0.3-84.3,0.7c-17.2,0.2-34.7-0.2-51.8,1.2C8.3,13,0.4,25.5,0.1,35.1C-0.2,47.4,0,59.4,1.4,71.7
					c1.3,11.7,0.3,23.7,0.3,35.5c0,10.5-0.2,21-0.1,31.4c0,9.9-0.5,20.1,0.5,30c0.7,7.4,2,14.7,1.5,22.1c-0.4,5.5-0.2,11.2-0.2,16.7
					c0,4.4-0.6,9.5,1.2,13.7c2.9,6.9,10.4,10.7,17.1,13.1c4.6,1.6,9.6,1.6,14.5,1.8c8.2,0.3,16.4,0.4,24.6,0.4
					c20.4,0.1,40.8-0.3,61.3-0.7c12.8-0.3,25.8,0.7,38.6,0.7c28.9,0,57.8-0.6,86.7-1.4c19.3-0.5,38.6,0.2,57.9,0.4
					c18,0.2,36.1,0.4,54.1,0.4c12.8,0,25.6,0.4,38.4,0.5c30.3,0.3,60.7-0.3,91-1.1c6.9-0.2,16.2,1,22.7-1.7
					c12.2-5.1,9.2-21.1,8.8-31.5C519.7,190.9,517.9,179,518.9,167.8c0.2-1.9-2.8-1.9-3,0c-0.4,4.3,0.1,8.9,0.3,13.2
					c0.3,7.4,0.7,14.8,1,22.2c0.5,10.9,3.3,27.7-12.2,28.7c-23.4,1.5-47.2,1.2-70.7,1.4c-27.5,0.3-54.9-0.4-82.4-0.4
					c-30.8,0-61.5-0.7-92.3-1c-17.6-0.2-35.2,0.8-52.7,1.1c-15.8,0.3-31.7,0.5-47.5,0.5c-12,0-24.2-0.9-36.2-0.7
					c-20,0.4-39.9,0.7-59.9,0.7c-8.5,0-17-0.1-25.5-0.4c-4.6-0.2-9.4-0.1-13.9-1.2c-8.1-2.1-17.3-7.5-17.7-16.7
					c-0.2-5.2,0-10.5,0.1-15.7c0.1-5.1,0.6-9.8,0.3-14.8c-0.4-7.3-1.9-14.5-2-21.8c-0.3-19.6,0-39.1,0-58.7C4.7,91.8,5.3,80.2,4,68
					C2.7,56.8,2.3,45.1,3.2,33.9c0.6-6.7,7-17.1,13.8-18.6c1.8-0.4,3.8-0.3,5.6-0.4c7.6-0.3,15.2-0.5,22.8-0.6
					c25.2-0.5,50.4-0.7,75.7-0.8c26.6-0.2,53.3-0.3,79.9-0.4c14.4,0,28.9-0.5,43.3-0.1c7.7,0.2,16.5,2.8,23.7,2.2
					c5.6-0.5,11.2-0.5,16.8-0.7c22.8-0.6,45.7-0.7,68.5-0.9C399.1,13.3,445,13,490.9,13c1.4,0,2.9-0.1,4.3,0
					c8.2,0.5,14.4,6.9,17.3,14.2c2.8,7.3,2.2,15.7,2.1,23.3c0,6.5-0.6,12.8-0.1,19.3c0.8,10.3,1.6,20.4,1.7,30.7
					c0.1,13.7,0.1,27.4,0.1,41.2c0,8.6,0.5,17.5-0.3,26C515.7,169.7,518.7,169.7,518.9,167.8z"/>
				<path class="st0" d="M261.5,126.5c0.1-0.1,0.2-0.1,0.3-0.2c-0.6-0.8-1.2-1.6-1.8-2.4c-0.1,0.1-0.1,0.2-0.2,0.3
					c0.7,0,1.4,0,2.1,0c0,0,0-0.1-0.1-0.1c-0.5-0.6-1.6-0.5-2.1,0c-0.6,0.6-0.5,1.5,0,2.1c0,0,0,0.1,0.1,0.1c0.5,0.6,1.6,0.6,2.1,0
					c0.1-0.1,0.1-0.2,0.2-0.3c0.5-0.6,0.6-1.4,0.1-2c-0.4-0.6-1.3-0.8-1.9-0.4c-0.1,0.1-0.2,0.1-0.3,0.2c-0.7,0.4-1,1.3-0.5,2.1
					C259.8,126.7,260.8,127,261.5,126.5z"/>
			</g>
		</g>
		<g>
			<path class="st0" d="M148.4,204.5c0,0,3.4,52.1-18.5,57.2s-33.6-11.8-33.6-11.8s1.7-28.6-8.4-31.9"/>
			<g>
				<path class="st0" d="M146.9,204.5c1,15.3,0.6,34.4-7.5,47.8c-7,11.4-22.9,10.7-33.3,4.3c-2.8-1.7-6.6-4.3-8.3-7.2
					c0,0,0,0.7,0.1-0.6c0.1-1.7,0.1-3.5,0-5.3c-0.2-8.3-0.3-23.3-9.6-27c-1.8-0.7-2.6,2.2-0.8,2.9c5.4,2.1,6.3,10.9,6.9,15.8
					c0.5,4.5,0.4,8.9,0.5,13.4c0.1,5.6,8.4,10.3,12.8,12.3c9.7,4.6,24,5.3,31.6-3.4c6.7-7.6,8.7-18.9,9.8-28.7
					c0.9-8,1.3-16.2,0.7-24.3C149.8,202.5,146.8,202.5,146.9,204.5L146.9,204.5z"/>
			</g>
		</g>
	</g>
	<g>
		<g>
			<path class="st1" d="M527.4,157.8c0.5-4.6,0.3-75.6,0.1-79.8c-0.3-5.7-2.2-22.2-1.8-26.1c0.5-4.6,0.3-21.8,0.1-26
				c-0.6-11.1-8.2-23.4-20.3-24.3c-2-0.2-218.3,0.3-228.7,2.3c-1.3,0.3-16-1.9-21.8-2.3c-2-0.2-218.3,0.3-228.7,2.3
				c-1.3,0.3-5.1,2.4-7.1,4.8c-2.9,3.3-6.5,8.4-7.5,13.9c-0.2,0.6-0.3,23.1-0.2,23.7c-0.3,5.1,2.9,23,1.9,28.4
				c-0.2,0.6-0.3,23.1-0.2,23.7c-0.3,5.1-0.1,53.2,0,53.8c-0.3,5.1,2.9,23,1.9,28.4c-0.2,0.6-0.3,23.1-0.2,23.7
				c-0.4,6.9,3.7,14.1,18.8,19c7.4,2.4,64.5,1.7,102.3,0.9c27.9,2,126.8-0.7,129.3-0.8c4.1-0.2,83.4,1.6,121.1,0.8
				c27.9,2,126.8-0.7,129.3-0.8c8.3-0.4,12.5-6.3,13.3-13.5C529.6,205.3,527,161.6,527.4,157.8z M270.7,115.2
				c0.1-0.1,0.2-0.1,0.3-0.2C271,115.1,270.9,115.2,270.7,115.2C270.8,115.3,270.8,115.3,270.7,115.2z"/>
			<g>
				<path class="st0" d="M528.9,157.8c0.9-9.6,0.3-19.5,0.3-29.1c0-13.6,0-27.2-0.1-40.8c-0.1-11.1-1.8-22.2-2-33.3
					c-0.3-13.7,3.2-29.5-3.7-42.1C518.9,4.2,511.3,0.1,502.1,0c-6.7,0-13.4,0-20.1,0c-24.9,0-49.9,0.1-74.8,0.3
					C364,0.6,320.6,0,277.5,2.3c-7.8,0.4-16-2.1-24-2.3c-5.7-0.1-11.3,0-17,0c-23.9,0-47.8,0.1-71.7,0.2C136.7,0.4,108.6,0.6,80.5,1
					C63.2,1.2,45.8,0.8,28.6,2.2C18.3,3,10.4,15.5,10.1,25.1C9.8,37.4,10,49.4,11.4,61.7c1.3,11.7,0.3,23.7,0.3,35.5
					c0,10.5-0.2,21-0.1,31.4c0,9.9-0.5,20.1,0.5,30c0.7,7.4,2,14.7,1.5,22.1c-0.4,5.5-0.2,11.2-0.2,16.7c0,4.4-0.6,9.5,1.2,13.7
					c2.9,6.9,10.4,10.7,17.1,13.1c4.6,1.6,9.6,1.6,14.5,1.8c8.2,0.3,16.4,0.4,24.6,0.4c20.4,0.1,40.8-0.3,61.3-0.7
					c12.8-0.3,25.8,0.7,38.6,0.7c28.9,0,57.8-0.6,86.7-1.4c19.3-0.5,38.6,0.2,57.9,0.4c18,0.2,36.1,0.4,54.1,0.4
					c12.8,0,25.6,0.4,38.4,0.5c30.3,0.3,60.7-0.3,91-1.1c6.9-0.2,16.2,1,22.7-1.7c12.2-5.1,9.2-21.1,8.8-31.5
					C529.7,180.9,527.9,169,528.9,157.8c0.2-1.9-2.8-1.9-3,0c-0.4,4.3,0.1,8.9,0.3,13.2c0.3,7.4,0.7,14.8,1,22.2
					c0.5,10.9,3.3,27.7-12.2,28.7c-23.4,1.5-47.2,1.2-70.7,1.4c-27.5,0.3-54.9-0.4-82.4-0.4c-30.8,0-61.5-0.7-92.3-1
					c-17.6-0.2-35.2,0.8-52.7,1.1c-15.8,0.3-31.7,0.5-47.5,0.5c-12,0-24.2-0.9-36.2-0.7c-20,0.4-39.9,0.7-59.9,0.7
					c-8.5,0-17-0.1-25.5-0.4c-4.6-0.2-9.4-0.1-13.9-1.2c-8.1-2.1-17.3-7.5-17.7-16.7c-0.2-5.2,0-10.5,0.1-15.7
					c0.1-5.1,0.6-9.8,0.3-14.8c-0.4-7.3-1.9-14.5-2-21.8c-0.3-19.6,0-39.1,0-58.7c0-12.3,0.7-23.9-0.7-36.2
					c-1.3-11.1-1.7-22.9-0.8-34.1c0.6-6.7,7-17.1,13.8-18.6c1.8-0.4,3.8-0.3,5.6-0.4c7.6-0.3,15.2-0.5,22.8-0.6
					c25.2-0.5,50.4-0.7,75.7-0.8c26.6-0.2,53.3-0.3,79.9-0.4c14.4,0,28.9-0.5,43.3-0.1c7.7,0.2,16.5,2.8,23.7,2.2
					c5.6-0.5,11.2-0.5,16.8-0.7c22.8-0.6,45.7-0.7,68.5-0.9C409.1,3.3,455,3,500.9,3c1.4,0,2.9-0.1,4.3,0
					c8.2,0.5,14.4,6.9,17.3,14.2c2.8,7.3,2.2,15.7,2.1,23.3c0,6.5-0.6,12.8-0.1,19.3c0.8,10.3,1.6,20.4,1.7,30.7
					c0.1,13.7,0.1,27.4,0.1,41.2c0,8.6,0.5,17.5-0.3,26C525.7,159.7,528.7,159.7,528.9,157.8z"/>
				<path class="st0" d="M271.5,116.5c0.1-0.1,0.2-0.1,0.3-0.2c-0.6-0.8-1.2-1.6-1.8-2.4c-0.1,0.1-0.1,0.2-0.2,0.3
					c0.7,0,1.4,0,2.1,0c0,0,0-0.1-0.1-0.1c-0.5-0.6-1.6-0.5-2.1,0c-0.6,0.6-0.5,1.5,0,2.1c0,0,0,0.1,0.1,0.1c0.5,0.6,1.6,0.6,2.1,0
					c0.1-0.1,0.1-0.2,0.2-0.3c0.5-0.6,0.6-1.4,0.1-2c-0.4-0.6-1.3-0.8-1.9-0.4c-0.1,0.1-0.2,0.1-0.3,0.2c-0.7,0.4-1,1.3-0.5,2.1
					C269.8,116.7,270.8,117,271.5,116.5z"/>
			</g>
		</g>
		<g>
			<path class="st1" d="M158.4,194.5c0,0,3.4,52.1-18.5,57.2c-21.9,5-33.6-11.8-33.6-11.8s1.7-28.6-8.4-31.9"/>
			<g>
				<path class="st0" d="M156.9,194.5c1,15.3,0.6,34.4-7.5,47.8c-7,11.4-22.9,10.7-33.3,4.3c-2.8-1.7-6.6-4.3-8.3-7.2
					c0,0,0,0.7,0.1-0.6c0.1-1.7,0.1-3.5,0-5.3c-0.2-8.3-0.3-23.3-9.6-27c-1.8-0.7-2.6,2.2-0.8,2.9c5.4,2.1,6.3,10.9,6.9,15.8
					c0.5,4.5,0.4,8.9,0.5,13.4c0.1,5.6,8.4,10.3,12.8,12.3c9.7,4.6,24,5.3,31.6-3.4c6.7-7.6,8.7-18.9,9.8-28.7
					c0.9-8,1.3-16.2,0.7-24.3C159.8,192.5,156.8,192.5,156.9,194.5L156.9,194.5z"/>
			</g>
		</g>
	</g>
</g>
</svg>
