<?xml version="1.0" encoding="utf-8"?>
<!-- Generator: Adobe Illustrator 22.1.0, SVG Export Plug-In . SVG Version: 6.00 Build 0)  -->
<svg version="1.1" id="Layer_1" xmlns="http://www.w3.org/2000/svg" xmlns:xlink="http://www.w3.org/1999/xlink" x="0px" y="0px"
	 viewBox="0 0 513 385" style="enable-background:new 0 0 513 385;" xml:space="preserve">
<style type="text/css">
	.st0{fill:#A36B78;stroke:#584C4F;stroke-linecap:round;stroke-miterlimit:10;}
	.st1{fill:#E6C86B;stroke:#584C4F;stroke-miterlimit:10;}
	.st2{fill:#FCDE82;stroke:#584C4F;stroke-miterlimit:10;}
	.st3{fill:#FFD767;stroke:#584C4F;stroke-miterlimit:10;}
	.st4{opacity:0.1;fill:#231F20;stroke:#231F20;stroke-miterlimit:10;}
</style>
<g id="Layer_5">
</g>
<g id="Layer_3">
</g>
<g>
	<path class="st0" d="M274.3,209c0,0-1.2,8.5-0.3,10.6c0.9,2.1,4.4,0.9,4-0.4s0.1-10-1.1-10.3C275.7,208.7,274.5,208.4,274.3,209z"
		/>
	<path id="XMLID_100_" class="st0" d="M277.9,458.6c-1.8-38.4-3.4-85.6-4.6-110.1c-2.3-44.4,1.3-109.6,1.3-109.6l-18.7,1.6
		c0,0,3.8,115.2,0,139.4c-2.7,17.3,2.1,81.5,3.6,119"/>
	<path id="XMLID_99_" class="st0" d="M270.6,255.7c0,0,15-10.1,0-10.9"/>
	<g>
		<path class="st0" d="M266.2,212.2c0,0,8.5,1.2,10.6,0.3c2.1-0.9,0.9-4.4-0.4-4c-1.3,0.4-10-0.1-10.3,1.1S265.6,212,266.2,212.2z"
			/>
		<path class="st0" d="M269.3,212.2c0,0-3,1-3-1s-1-4,2-4s3,2,3,2S272.3,211.2,269.3,212.2z"/>
	</g>
	<path class="st0" d="M252.6,240c0,0-3.3-8.6,3.3-8.6s13.1-2.9,13.1,5.8s-6.6,8.6-6.6,8.6S255.9,248.6,252.6,240z"/>
	<path class="st0" d="M263.7,233.9c0,0-2.8-17.1,2.8-17.1s11.3-5.7,11.3,11.4s-5.6,17.1-5.6,17.1S266.5,251,263.7,233.9z"/>
	<path class="st0" d="M271.9,205.6c0,0-3.9,9.6-3.4,12.4c0.5,2.8,5.4,2.7,5.3,1c-0.1-1.7,3-11.7,1.5-12.5S272.2,204.9,271.9,205.6z"
		/>
	<g>
		<path class="st0" d="M261.2,207.7c0,0,9.6,3.9,12.4,3.4s2.7-5.4,1-5.3c-1.7,0.1-11.7-3-12.5-1.5S260.6,207.4,261.2,207.7z"/>
		<path class="st0" d="M264.4,209.2c0,0-3,1-3-1s-1-4,2-4s3,2,3,2S267.4,208.2,264.4,209.2z"/>
	</g>
	<path class="st0" d="M266.5,205c0,0-1.5,11.3-0.1,14.1c1.3,2.8,6.4,1.4,5.8-0.4c-0.6-1.8,0-13.3-1.9-13.7
		C268.5,204.6,266.7,204.2,266.5,205z"/>
	<g>
		<path class="st0" d="M255.4,210.3c0,0,11.3,1.5,14.1,0.1c2.8-1.3,1.4-6.4-0.4-5.8c-1.8,0.6-13.3,0-13.7,1.9
			C255,208.3,254.7,210.1,255.4,210.3z"/>
		<path class="st0" d="M258.2,211c0,0-3,1-3-1s-1-4,2-4s3,2,3,2S261.2,210,258.2,211z"/>
	</g>
	<g>
		<path class="st0" d="M251.1,227c0,0,7.3-8.5,7.8-11.4c0.5-2.9-4.1-4.1-4.7-2.4c-0.5,1.7-7.3,10.8-6.1,12S250.5,227.6,251.1,227z"
			/>
		<path class="st0" d="M252.7,225.3c0,0-1.4,2.8-2.8,1.4s-3.5-2.1-1.4-4.2s3.5-0.7,3.5-0.7S254.1,222.5,252.7,225.3z"/>
	</g>
	<path class="st0" d="M253.9,215.3c0,0,8.5,7.3,11.4,7.8s4.1-4.1,2.4-4.7c-1.7-0.5-10.8-7.3-12-6.1S253.3,214.7,253.9,215.3z"/>
	<g>
		<g id="XMLID_92_">
			<path id="XMLID_98_" class="st1" d="M241.3,202.4c0,0-1.3-6.2-7.4-4s-3.1,25.8-0.3,27.6C236.4,227.8,244.3,239,241.3,202.4z"/>
			<path id="XMLID_97_" class="st1" d="M239.9,213.7c0,0,10.7-10.6,8.5,9.2c0,0,2.5,6.1,7.5,3.6c5-2.5,5.7-33.9-18.2-25.1"/>
			<path id="XMLID_96_" class="st2" d="M252.7,203.5c0,0-1,0.5-1.3,1"/>
			<path id="XMLID_95_" class="st2" d="M237.2,199c0,0-1,0.5-1.3,1"/>
			<path id="XMLID_94_" class="st2" d="M240.5,223.9c-0.3,0.2-0.5,0.4-0.6,0.6"/>
			<path id="XMLID_93_" class="st2" d="M257.7,218c0,0-0.3,0.2-0.7,0.4"/>
		</g>
		<g id="XMLID_81_">
			<path id="XMLID_91_" class="st3" d="M238.5,205.2c0,0-1.3-6.2-7.4-4s-3.1,25.8-0.3,27.6C233.7,230.6,241.6,241.8,238.5,205.2z"/>
			<path id="XMLID_90_" class="st3" d="M237.1,216.5c0,0,10.7-10.6,8.5,9.2c0,0,2.5,6.1,7.5,3.6c5-2.5,5.7-33.9-18.2-25.1"/>
			<line id="XMLID_89_" class="st3" x1="233.7" y1="228.5" x2="234.7" y2="228.9"/>
			<path id="XMLID_88_" class="st3" d="M252,225.8c0,0,0.4,0.8-0.2,1.2"/>
			<path id="XMLID_87_" class="st3" d="M254.3,215.7c0,0-0.2,0.7-0.4,1"/>
			<path id="XMLID_86_" class="st3" d="M237.3,222c0,0,0.3-1.4,0-1.4"/>
			<path id="XMLID_85_" class="st3" d="M244.9,212.4c0,0,1.3,0.2,1.2,0.4"/>
			<path id="XMLID_84_" class="st3" d="M232.1,219c0,0,1.5-0.2,1.6-0.5"/>
			<path id="XMLID_83_" class="st3" d="M239.9,204.4c0,0-1,0.5-1.3,1"/>
			<line id="XMLID_82_" class="st3" x1="230.7" y1="206.1" x2="231.8" y2="205.8"/>
			<path class="st4" d="M237.8,203.3c-0.9-1.6-2.9-3.5-6.6-2.1c-1,0.4-1.8,1.3-2.3,2.6c3.5-1.1,5.3,0.7,6.2,2.3
				c18.2-4.7,20,16.3,17.1,23.6c0.3-0.1,0.7-0.2,1.1-0.4C257.9,226.8,258.8,197.9,237.8,203.3z"/>
		</g>
	</g>
	<path class="st0" d="M247.8,236.6c0,0,9.4,3,11.9,2.3c2.6-0.7,2.3-5.4,0.6-5.2c-1.6,0.2-11.3-2-11.9-0.5
		C247.8,234.8,247.2,236.3,247.8,236.6z"/>
	<g>
		<path class="st0" d="M249.8,223.3c0,0-3,9.4-2.3,11.9c0.7,2.6,5.4,2.3,5.2,0.6c-0.2-1.6,2-11.3,0.5-11.9
			C251.6,223.3,250,222.6,249.8,223.3z"/>
		<path class="st0" d="M249.6,223.4c0,0,1.4-2.8,2.8-1.4c1.4,1.4,3.5,2.1,1.4,4.2c-2.1,2.1-3.5,0.7-3.5,0.7S248.2,226.3,249.6,223.4
			z"/>
	</g>
</g>
</svg>
