<?xml version="1.0" encoding="utf-8"?>
<!-- Generator: Adobe Illustrator 22.1.0, SVG Export Plug-In . SVG Version: 6.00 Build 0)  -->
<svg version="1.1" id="Layer_1" xmlns="http://www.w3.org/2000/svg" xmlns:xlink="http://www.w3.org/1999/xlink" x="0px" y="0px"
	 viewBox="0 0 246.9 170.8" style="enable-background:new 0 0 246.9 170.8;" xml:space="preserve">
<style type="text/css">
	.st0{fill:#FDF5EA;stroke:#5B5B4B;stroke-width:2;stroke-linecap:round;stroke-miterlimit:10;}
	.st1{fill:none;stroke:#5B5B4B;stroke-width:2;stroke-linecap:round;stroke-miterlimit:10;}
	.st2{fill:#F7C872;}
</style>
<g>
	<g>
		<path id="XMLID_3822_" class="st0" d="M224.9,107.1c3.1-4,6.1-8.5,8.7-13.6c56.3-107-99.4-91.8-99.4-91.8
			c-12.9,4.9-22.6,11-29.6,17.8c-6.3-9.3-17.8-14.6-39-2.1c-18.6,11-16.8,25.5-7.1,35.6c-9.4,9.2-12.8,24.6-3.6,49.6
			c11.1,30.1,35.5,37.4,58.6,32.2c2,5.7,22.8,60,80.7,20.5c11.4-7.8,16-15.4,15.9-22.2c1.1,0.5,2.3,1.1,3.6,1.6
			C235.2,143.4,236.8,116.5,224.9,107.1z"/>
		<path id="XMLID_3821_" class="st1" d="M240.6,53.6c0,0-0.3,1.3-0.7,1.7"/>
		<path id="XMLID_3820_" class="st1" d="M133.2,5.9c0,0,2.6-0.4,2.8-0.9"/>
		<line id="XMLID_3819_" class="st1" x1="78.5" y1="16.4" x2="80.3" y2="15.9"/>
		<path id="XMLID_3818_" class="st1" d="M223.8,126.6c0,0-0.3,1.3-0.7,1.7"/>
		<path id="XMLID_3817_" class="st1" d="M155.9,164.7c0,0,2.6-0.4,2.8-0.9"/>
		<line id="XMLID_3816_" class="st1" x1="93.4" y1="132.4" x2="95.2" y2="131.9"/>
	</g>
	<g>
		<path id="XMLID_3815_" class="st0" d="M31,145.9c0,0-11.2,9.9,2.7,14.4S43.2,140.9,31,145.9z"/>
		<path id="XMLID_3814_" class="st1" d="M29.8,153.4c0,0,0.3,1.3,0.7,1.7"/>
	</g>
	<g>
		<path id="XMLID_3813_" class="st0" d="M30.7,131.3c0,0-2.2-26.9-23.4-12.4S24.9,154.2,30.7,131.3z"/>
		<path id="XMLID_3812_" class="st1" d="M12.5,137.7c0,0-2.6-0.4-2.8-0.9"/>
	</g>
	<g>
		<path id="XMLID_3811_" class="st0" d="M11.2,96.7c0,0,11.6,29.7,39.9,7.6S13.1,69.4,11.2,96.7z"/>
		<line id="XMLID_3810_" class="st1" x1="44.3" y1="86" x2="42.5" y2="85.5"/>
	</g>
	<g>
		<g>
			<g>
				
					<rect id="XMLID_3809_" x="112.5" y="67.1" transform="matrix(-6.158381e-11 1 -1 -6.158381e-11 226.39 -61.123)" class="st2" width="62.5" height="31"/>
			</g>
			<g>
				<path class="st1" d="M159.3,51.4c-0.1,0-0.1,0-0.2,0c-1.8,0.2-29.5,0.2-30.2,0.1c-0.2,0-0.3,0-0.5,0"/>
				<path class="st1" d="M159.3,113.8c0-0.1,0-0.2,0-0.4c-0.1-1.8-0.3-26.3,0-36.3c0.3-10,0-25.6,0-25.6s0,0,0-0.1"/>
				<path class="st1" d="M128.4,113.7c0.1,0,0.1,0,0.2,0c1.6-0.3,21,0.2,25.1,0.1c2.5-0.1,4.5,0.2,5.6,0"/>
				<path class="st1" d="M128.4,51.4c0,1.3-0.2,47,0,62.3"/>
			</g>
		</g>
		<path class="st0" d="M131.7,60.3c0.1-0.4,0.5-0.7,1.5-0.7c2.5,0,22.5-0.9,22.5,0.9s1.2,36.3,1.2,36.3s0,3.6-1.2,3.6
			s-25,0.9-25-0.9S131.6,60.9,131.7,60.3z"/>
		<path class="st0" d="M140.7,107.5c0,0-1.2-2.5,2.5-2.5S143.2,111.3,140.7,107.5z"/>
		<path class="st0" d="M140.7,55c0,0,1.2-1.2,6.2,0"/>
	</g>
</g>
</svg>
