<?xml version="1.0" encoding="utf-8"?>
<!-- Generator: Adobe Illustrator 22.1.0, SVG Export Plug-In . SVG Version: 6.00 Build 0)  -->
<svg version="1.1" id="Layer_1" xmlns="http://www.w3.org/2000/svg" xmlns:xlink="http://www.w3.org/1999/xlink" x="0px" y="0px"
	 viewBox="0 0 1280 720" style="enable-background:new 0 0 1280 720;" xml:space="preserve">
<style type="text/css">
	.st0{opacity:0.1;enable-background:new    ;}
</style>
<path class="st0" d="M1238.8,696.7c-10.5-6.7-22.7-14.5-35.5-23c-11-7.3-22.6-15-34.3-23c-4.1-2.8-8.3-5.7-12.4-8.6
	c-5.2-3.6-12.9-8.5-22.9-14.4c-10.9-6.5-24.3-14.3-39.7-23c-12.5-7.1-26.4-14.8-41.1-23c-12.7-7-26.1-14.4-40-22
	c-13.7-7.5-27.9-15.2-42.3-23c-130.3-70.6-280.9-149.8-294.1-157.8c-16.7-10.1-32.3-19.2-34.9-19.2c0,0-0.1,0-0.1,0
	c-0.3-0.2-0.4-0.3-0.4-0.3s-0.3,0.2-0.7,0.5c-8.7,2.6-45.3,28.7-77,45.2c-17.7,9.2-121.5,67.5-235,131.6
	c-13.5,7.6-27.1,15.3-40.8,23c-13,7.3-26,14.7-39,22c-13.7,7.8-27.3,15.4-40.7,23c-13.9,7.8-27.5,15.5-40.7,23
	c-14.1,8-27.7,15.7-40.7,23c-14.5,8.2-28.1,15.9-40.7,23c-15.3,8.7-29,16.4-40.6,23c-26.3,14.9-42.2,23.9-42.2,23.9h319.3h637.4
	H1277C1277,720.6,1261.6,711.2,1238.8,696.7z"/>
</svg>
