<?xml version="1.0" encoding="utf-8"?>
<!-- Generator: Adobe Illustrator 22.1.0, SVG Export Plug-In . SVG Version: 6.00 Build 0)  -->
<svg version="1.1" id="Layer_1" xmlns="http://www.w3.org/2000/svg" xmlns:xlink="http://www.w3.org/1999/xlink" x="0px" y="0px"
	 viewBox="0 0 121.6 60.5" style="enable-background:new 0 0 121.6 60.5;" xml:space="preserve">
<style type="text/css">
	.st0{opacity:0.1;fill:#5D5C4C;stroke:#5D5C4C;stroke-linecap:round;stroke-miterlimit:10;enable-background:new    ;}
	.st1{fill:#FFD767;stroke:#584C4F;stroke-width:2;stroke-miterlimit:10;}
	.st2{fill:#FFFAF2;stroke:#584C4F;stroke-width:2;stroke-miterlimit:10;}
</style>
<g id="Layer_5">
</g>
<g id="Layer_3">
</g>
<path id="XMLID_2388_" class="st0" d="M108.8,21.1c-1.9-0.1-72.8,0.2-79,1.4c-0.8,0.2-3,1.4-4.2,2.8c-1.7,2-3.9,5-4.5,8.3
	C21,34,20.9,47.3,21,47.7c-0.3,4.1,2.2,8.4,11.2,11.3c6.6,2.1,79.1,0.1,80.8,0c4.9-0.3,7.4-3.7,7.9-8c0.3-2.8,0.2-12.9,0.1-15.5
	C120.4,28.9,116,21.6,108.8,21.1z"/>
<path class="st1" d="M110.8,25.5c-0.3-4.6-2.6-9.7-6.4-12.4c-1.3-0.9-6.9-7.4-9.1-9.3c-1.8-1.6-4-2.6-6.5-2.8
	C86.9,0.9,16,1.2,9.8,2.4C9,2.6,6.8,3.8,5.6,5.2c-1.7,2-3.9,5-4.5,8.3C1,13.9,0.9,27.2,1,27.6c-0.1,2,0.4,3.9,1.9,5.8
	s8.9,8.9,10.6,10.7s4.5,3.4,8.7,4.8c6.6,2.1,79.1,0.1,80.8,0c4.9-0.3,7.4-3.7,7.9-8C111.1,38.2,111,28,110.8,25.5z"/>
<g id="XMLID_2366_">
	<g>
		<path id="XMLID_2369_" class="st2" d="M88.8,1.1C86.9,1,16,1.3,9.8,2.5C9,2.7,6.8,3.9,5.6,5.3c-1.7,2-3.9,5-4.5,8.3
			C1,14,0.9,27.3,1,27.7C0.7,31.8,3.2,36.1,12.2,39c6.6,2.1,79.1,0.1,80.8,0c4.9-0.3,7.4-3.7,7.9-8c0.3-2.8,0.2-12.9,0.1-15.5
			C100.4,8.9,96,1.6,88.8,1.1z"/>
		<path id="XMLID_2368_" class="st2" d="M95,31.2c0,0,1.1,2.2-0.7,3.2"/>
		<path id="XMLID_2367_" class="st2" d="M11.8,5.7c0,0-2.7,1.3-3.6,2.6"/>
	</g>
</g>
<path id="XMLID_2365_" class="st1" d="M104.6,45.1c0,0-3.1-4.4-5.4-5.4"/>
<g id="XMLID_15_">
	<path id="XMLID_17_" class="st1" d="M68,17.3c0,0-1.2-0.9-1.8-0.2c-0.5,0.7-1.5,1.8-0.4,4.1c1.1,2.3,5.2,0.4,5.6-0.7"/>
	<path id="XMLID_16_" class="st1" d="M72.5,19.3L72.5,19.3c-0.8-2-2.4-3.6-4.9-3.8c-5-0.5-7.1,2.8-7.9,4.7c0,0-0.2,0.3-0.3,0.9
		c-0.1,0.3-0.1,0.6-0.1,0.8c-0.1,1.1,0.1,2.7,1.1,4.8c0.8,1.7,2.9,2.4,4.3,2.6c0.4,0.1,0.8,0.1,1.3,0.1c0,0,0,0,0,0l0,0
		c0.5,0,1-0.1,1.6-0.2c2.2-0.5,3.7-1.9,4.6-3.6c-0.1-2-1.9-2.2-2.9-2.4c-0.6-0.1-1.1,0.3-1.6,0.6c0,0-0.1,0.1-0.1,0.1
		c-1.5,1.1-5.4-1.1-3.3-2.7c0,0,0.7-0.7,1.5-1.1h0c0,0,0.7-0.3,1.2-0.2c0.2,0.1,0.4,0.2,0.5,0.5c0,0,0,0,0,0
		c0.1,0.1,0.1,0.3,0.2,0.4c0.7,1.1,2.2,2.5,3.6,1.5c1.6-1.2,1.4-1.6,1.5-2.1l0,0C72.9,20,72.5,19.3,72.5,19.3z"/>
</g>
<g id="XMLID_12_">
	<path id="XMLID_14_" class="st1" d="M34.2,11.4c0,0-0.7-4.2-4.3-2.7s-1.8,17.4-0.2,18.6C31.4,28.5,36,36.1,34.2,11.4z"/>
	<path id="XMLID_13_" class="st1" d="M33.3,20.4c0,0,5.9-5.8,4.7,5c0,0,1.4,3.4,4.1,2s3.1-18.6-10-13.8"/>
</g>
<g id="XMLID_8_">
	<g id="XMLID_10_">
		<path id="XMLID_11_" class="st1" d="M48.7,21.1c0,0,1-5-3.2-3.6c-4.2,1.4-1.7,12.3,0.6,11.8C48.2,28.9,49.2,27.1,48.7,21.1z"/>
	</g>
	<path id="XMLID_9_" class="st1" d="M46.4,10.7c0,0,4.7,2.7,0.1,4.7S43.2,8.2,46.4,10.7z"/>
</g>
<g id="XMLID_5_">
	<path id="XMLID_7_" class="st1" d="M61.2,17c0,0-7.6-5.2-10.9,4c-3.3,9.2,4.7,10.7,4.5,5.1s1.7-6.1,3.9-5.2
		C61,21.7,64.1,20.8,61.2,17z"/>
	<path id="XMLID_6_" class="st1" d="M54.8,17.5c0,0-0.5-3.4-3.6-1.6c-3.1,1.8,0.2,4.8,0.2,4.8"/>
</g>
</svg>
