<?xml version="1.0" encoding="utf-8"?>
<!-- Generator: Adobe Illustrator 22.1.0, SVG Export Plug-In . SVG Version: 6.00 Build 0)  -->
<svg version="1.1" id="Layer_1" xmlns="http://www.w3.org/2000/svg" xmlns:xlink="http://www.w3.org/1999/xlink" x="0px" y="0px"
	 viewBox="0 0 43.1 45.4" style="enable-background:new 0 0 43.1 45.4;" xml:space="preserve">
<style type="text/css">
	.st0{opacity:0.1;fill:#231F20;stroke:#231F20;stroke-miterlimit:10;enable-background:new    ;}
	.st1{fill:#FFFFFF;stroke:#584C4F;stroke-width:2;stroke-linecap:round;stroke-miterlimit:10;}
	.st2{fill:#FFD767;stroke:#584C4F;stroke-miterlimit:10;}
</style>
<g id="Layer_5">
</g>
<g id="Layer_3">
</g>
<path class="st0" d="M33.6,4.7c-1,0-2.7,0-4,0c-1.3-0.2-2.7-0.2-4.2-0.2c-0.4,0-0.9,0-1.3,0s-0.8,0-1.2,0c-1.4,0-2.8,0.1-4.1,0.2
	c-1.3,0-3.1,0-4.1,0C12.1,4.6,8.3,5,7.1,8.1c-0.3,0.8-1.5,7.3-1.6,10.4C5.4,25.1,6.6,32.8,6.7,33c0.4,1.8,1.1,3.4,2.3,4.6
	c0.7,1.5,2,2.3,3.4,2.7c0.1,2.9,0.9,6.3,5.1,3.6c1.6-1.1,2.7-2.1,3.4-3l0,0c0.6,0,1.7,0,2.9,0c1.4,0,2.6,0,3.3,0
	c0.9,0,1.9,0,2.8-0.1c1.5,0,2.8-0.1,3.5-0.1c2.2-0.2,4.6-0.9,5.6-3.1c1.3-1.2,2-2.8,2.4-4.6c0-0.2,1.3-7.9,1.2-14.5
	c0-3.1-1.3-9.7-1.6-10.4C39.9,5,36.1,4.6,33.6,4.7z"/>
<path class="st1" d="M36.1,4.1c-1.2-3.1-5-3.5-7.6-3.4c-1,0-2.7,0-4,0c-1.3-0.2-2.7-0.3-4.2-0.2c-0.4,0-0.9,0-1.3,0s-0.8,0-1.2,0
	c-1.4,0-2.8,0.1-4.1,0.2c-1.3,0-3.1,0-4.1,0C7.1,0.6,3.3,1,2.1,4.1c-0.3,0.8-1.5,7.3-1.6,10.4C0.4,21.1,1.6,28.8,1.7,29
	c0.4,1.8,1.1,3.4,2.3,4.6c1,2.2,3.4,2.9,5.6,3.1c0.7,0.1,2.1,0.1,3.6,0.1c0.9,0.1,1.8,0.1,2.7,0.1c0.6,0,1.7,0,2.9,0
	c1.4,0,2.6,0,3.3,0c0.9,0,1.9,0,2.8-0.1c1.5,0,2.8-0.1,3.5-0.1c2.2-0.2,4.6-0.9,5.6-3.1c1.3-1.2,2-2.8,2.4-4.6
	c0-0.2,1.3-7.9,1.2-14.5C37.7,11.4,36.4,4.9,36.1,4.1z"/>
<path class="st2" d="M16.1,22.1L16.1,22.1c0-0.2,0-11.1,0-11.9c0,0,0,0,0-0.1s0-0.1,0-0.2c0-0.2-0.1-0.3-0.1-0.4l0,0
	c-0.1,0-0.1,0-0.1,0s-3.2,0-3.3,0c0,0,0,0-0.1,0l0,0c-0.1,0.1-0.1,0.4-0.1,0.4V10v0.1c0,1.2,0,11.7,0,11.8c0,0,0,0.1,0,0.2l0,0
	c0,0.2,0.1,0.3,0.1,0.3h0.1c0.7,0,3.3-0.1,3.3,0c0,0,0,0,0.1,0h0.1c0,0,0.1-0.1,0.1-0.2C16.1,22.3,16.1,22.2,16.1,22.1z"/>
<path class="st2" d="M30.2,22.1L30.2,22.1c0-0.2,0-11.1,0-11.9c0,0,0,0,0-0.1s0-0.1,0-0.2c0-0.2-0.1-0.3-0.1-0.4l0,0
	c-0.1,0-0.1,0-0.1,0s-3.2,0-3.3,0c0,0,0,0-0.1,0l0,0c-0.1,0.1-0.1,0.4-0.1,0.4V10v0.1c0,1.2,0,11.7,0,11.8c0,0,0,0.1,0,0.2l0,0
	c0,0.2,0.1,0.3,0.1,0.3h0.1c0.7,0,3.3-0.1,3.3,0c0,0,0,0,0.1,0h0.1c0,0,0.1-0.1,0.1-0.2C30.2,22.3,30.2,22.2,30.2,22.1z"/>
<path class="st1" d="M7.6,33.3c0,0-1.7,11,4.9,6.7s3.8-7.7,5.7-7.4"/>
</svg>
