<?xml version="1.0" encoding="utf-8"?>
<!-- Generator: Adobe Illustrator 22.1.0, SVG Export Plug-In . SVG Version: 6.00 Build 0)  -->
<svg version="1.1" id="Layer_1" xmlns="http://www.w3.org/2000/svg" xmlns:xlink="http://www.w3.org/1999/xlink" x="0px" y="0px"
	 viewBox="0 0 319.5 181" style="enable-background:new 0 0 319.5 181;" xml:space="preserve">
<style type="text/css">
	.st0{fill:#FFD767;}
	.st1{fill:none;stroke:#584C4F;stroke-width:0.25;stroke-linecap:round;stroke-miterlimit:10;}
</style>
<g>
	<g>
		
			<rect id="XMLID_16626_" x="2.4" y="1.2" transform="matrix(-1 -2.533586e-11 2.533586e-11 -1 319.2435 179.755)" class="st0" width="314.4" height="177.4"/>
	</g>
	<g>
		<path class="st1" d="M319,179.7c0-0.4,0-0.8-0.1-1.2c-0.9-10.3-1.2-170.4-0.3-174.6c0.2-1,0.2-2,0.1-2.8"/>
		<path class="st1" d="M0.8,179.7c0.6,0.1,1.2,0.1,1.9,0.1c9.4-0.8,134.1-1.7,185.2,0c51,1.7,130.4,0,130.4,0s0.3,0,0.7,0"/>
		<path class="st1" d="M1,0.8c0,0.4,0.1,0.9,0.2,1.3c1.7,9.1-1.1,121.5-0.3,145.3c0.5,14.7-1,26-0.2,32.3"/>
		<path class="st1" d="M318.8,1C312.2,1.1,79.3-0.2,1.1,1"/>
	</g>
</g>
</svg>
