<?xml version="1.0" encoding="utf-8"?>
<!-- Generator: Adobe Illustrator 22.1.0, SVG Export Plug-In . SVG Version: 6.00 Build 0)  -->
<svg version="1.1" id="Layer_1" xmlns="http://www.w3.org/2000/svg" xmlns:xlink="http://www.w3.org/1999/xlink" x="0px" y="0px"
	 viewBox="0 0 580.4 415.2" style="enable-background:new 0 0 580.4 415.2;" xml:space="preserve">
<style type="text/css">
	.st0{opacity:0.1;}
	.st1{fill:#90A55E;stroke:#90A55E;stroke-width:1.25;stroke-linecap:round;stroke-miterlimit:10;}
	.st2{fill:#FCF4E9;stroke:#90A55E;stroke-width:1.25;stroke-linecap:round;stroke-miterlimit:10;}
</style>
<g>
	<g class="st0">
		<path id="XMLID_6756_" class="st1" d="M53.1,1113.9c70.7-150.4,155-336.2,200.4-432C336,508.4,429.9,242.1,429.9,242.1l71.9,37.2
			c0,0-205.8,453.8-230.6,556.6C253.4,909.6,128,1158.2,60,1305.1"/>
		<path class="st1" d="M431.6,271.9c-9.6-10.5-17.9-28.4-17.9-59c0-14.1-2.2-35.9-1.4-38.7c1.3-4.8,0.1-31,2.6-40.7
			c-3-1.2-5.1-3.4-4.4-5.7c1.6-5.8-0.7-43.2,4.9-44.4c5.4-1.1,10.9-2.3,11.5,0.3c0,0,4.9,36.1,1.3,45.5c0.3,0.2,0.5,0.5,0.6,0.8
			c0,0,2.8,20.9,2.6,35.1c5-3,10.8-4.5,17.1-5.1c0.2-6.8-9.9-40.3-8-50.9c-2-0.8-3.3-2.2-3.2-4.1c0.5-7.4-13.1-50.6-6.5-54
			c6.6-3.4,13.3-6.7,14.8-3.9c0,0,16.9,41.5,14.6,53.5c-0.4,1.8-1.1,3.3-2.2,4.5c3.7,9.5,15.4,40.6,13.5,50.6
			c-0.4,1.9,9.5,3.7,9.8,2.6c2.2-6.7,0.7-45.8,5.6-56.5c-1.9-1.5-2.8-3.4-2.2-5.3c2.5-7.7,0.2-57.5,8-59.1c8-1.7,15.8-3.4,16.6,0.1
			c0,0,6.3,48.9,0.6,60.9c-0.8,1.8-2.2,3.2-3.6,4.2c1.3,11.2,5,47.5,0.2,57.5c-0.7,1.3,1.8,3.5,3.8,3.5c2.7,0,7.6-0.4,7.9-0.9
			c3.2-6.1,9.1-43.9,15.4-53.2c-1.3-1.8-1.9-3.7-0.9-5.5c3.6-6.9,10.9-55.3,18.2-55.3c7.2,0,14.5,0,14.5,3.5c0,0-3.6,48.4-10.9,58.8
			c-1.1,1.6-2.4,2.6-3.9,3.3c-0.9,11-4.5,46.7-10.6,55.5c-1.7,2.4,0.5,21.1,0.5,31.1c9-12,21.1-28.4,25.6-26.5
			c6.6,2.7,13.4,5.5,12.3,8.3c0,0-19,37-29.2,43.2c0.1,0.4,0.2,0.7,0,1.2c0,0-19.4,37.8-29.6,43.4c-0.7,0.4-1.3,0.7-2.1,0.8
			c-6.9,8.8-14.4,13.9-21.4,16.7"/>
		<path class="st1" d="M435.3,275.6c-1.2-1.1-2.4-2.2-3.6-3.6"/>
		<path id="XMLID_6755_" class="st1" d="M426.1,296.1c0,0-43.2-65.2,18-43.4"/>
		<path class="st1" d="M508.3,52.8c0,0,2.7-8-2.7-8c-5.4,0-10.8-2.7-10.8,5.4s5.4,8,5.4,8S505.6,61,508.3,52.8z"/>
		<path class="st1" d="M561.2,65.9c0,0,2.7-8-2.7-8s-10.8-2.7-10.8,5.4s5.4,8,5.4,8S558.5,73.9,561.2,65.9z"/>
		<path class="st1" d="M422.8,100.5c0,0,2.7-8-2.7-8c-5.4,0-10.8-2.7-10.8,5.4s5.4,8,5.4,8S420.1,108.5,422.8,100.5z"/>
		<path class="st1" d="M449,63.2c0,0,3.3-9.7-3.3-9.7c-6.5,0-13-3.3-13,6.5s6.5,9.7,6.5,9.7S445.8,73.1,449,63.2z"/>
		<path class="st1" d="M578.5,186.9c0,0,2.7-8-2.7-8c-5.4,0-10.7-2.7-10.7,5.3c0,8,5.3,8,5.3,8S575.8,195,578.5,186.9z"/>
		<path id="XMLID_6754_" class="st1" d="M438.5,178.3c0,0-10,16.8-11.7,0.7"/>
		<path id="XMLID_6753_" class="st1" d="M465.6,179.4c0,0-10,16.8-11.7,0.7"/>
		<path id="XMLID_6752_" class="st1" d="M494.6,178.3c0,0-10,16.8-11.7,0.7"/>
		<path id="XMLID_6751_" class="st1" d="M521.9,179.4c0,0-10,16.8-11.7,0.7"/>
		<path id="XMLID_6750_" class="st1" d="M548.8,213c0,0,16,30.3-9.7,18.2"/>
		<path id="XMLID_6749_" class="st1" d="M539.2,125.4c-2,0.5-3.7-1-4.3-6.9"/>
		<path id="XMLID_6748_" class="st1" d="M498.7,113.5c-2-0.8-4.3-1.9-7.2-3.4"/>
		<path id="XMLID_6747_" class="st1" d="M444,114.1"/>
		<path id="XMLID_6746_" class="st1" d="M448.3,121.1c-1.5,0.4-2.8-0.4-3.6-3.3"/>
		<path id="XMLID_6745_" class="st1" d="M419.3,135.1"/>
		<path id="XMLID_6744_" class="st1" d="M422.4,139.7c-1.5,0.4-3.3,0.7-4-0.2"/>
	</g>
	<g>
		<path id="XMLID_6769_" class="st2" d="M42.8,1103.6c70.7-150.4,155-336.2,200.4-432c82.4-173.6,176.3-439.9,176.3-439.9l71.9,37.2
			c0,0-205.8,453.8-230.6,556.6c-17.8,73.7-143.2,322.3-211.1,469.2"/>
		<path class="st2" d="M421.3,261.6c-9.6-10.5-17.9-28.4-17.9-59c0-14.1-2.2-35.9-1.4-38.7c1.3-4.8,0.1-31,2.6-40.7
			c-3-1.2-5.1-3.4-4.4-5.7c1.6-5.8-0.7-43.2,4.9-44.4c5.4-1.1,10.9-2.3,11.5,0.3c0,0,4.9,36.1,1.3,45.5c0.3,0.2,0.5,0.5,0.6,0.8
			c0,0,2.8,20.9,2.6,35.1c5-3,10.8-4.5,17.1-5.1c0.2-6.8-9.9-40.3-8-50.9c-2-0.8-3.3-2.2-3.2-4.1c0.5-7.4-13.1-50.6-6.5-54
			c6.6-3.4,13.3-6.7,14.8-3.9c0,0,16.9,41.5,14.6,53.5c-0.4,1.8-1.1,3.3-2.2,4.5c3.7,9.5,15.4,40.6,13.5,50.6
			c-0.4,1.9,9.5,3.7,9.8,2.6c2.2-6.7,0.7-45.8,5.6-56.5c-1.9-1.5-2.8-3.4-2.2-5.3c2.5-7.7,0.2-57.5,8-59.1c8-1.7,15.8-3.4,16.6,0.1
			c0,0,6.3,48.9,0.6,60.9c-0.8,1.8-2.2,3.2-3.6,4.2c1.3,11.2,5,47.5,0.2,57.5c-0.7,1.3,1.8,3.5,3.8,3.5c2.7,0,7.6-0.4,7.9-0.9
			c3.2-6.1,9.1-43.9,15.4-53.2c-1.3-1.8-1.9-3.7-0.9-5.5c3.6-6.9,10.9-55.3,18.2-55.3c7.2,0,14.5,0,14.5,3.5c0,0-3.6,48.4-10.9,58.8
			c-1.1,1.6-2.4,2.6-3.9,3.3c-0.9,11-4.5,46.7-10.6,55.5c-1.7,2.4,0.5,21.1,0.5,31.1c9-12,21.1-28.4,25.6-26.5
			c6.6,2.7,13.4,5.5,12.3,8.3c0,0-19,37-29.2,43.2c0.1,0.4,0.2,0.7,0,1.2c0,0-19.4,37.8-29.6,43.4c-0.7,0.4-1.3,0.7-2.1,0.8
			c-6.9,8.8-14.4,13.9-21.4,16.7"/>
		<path class="st2" d="M425,265.3c-1.2-1.1-2.4-2.2-3.6-3.6"/>
		<path id="XMLID_6768_" class="st2" d="M415.8,285.9c0,0-43.2-65.2,18-43.4"/>
		<path class="st2" d="M498,42.6c0,0,2.7-8-2.7-8s-10.8-2.7-10.8,5.4s5.4,8,5.4,8S495.3,50.7,498,42.6z"/>
		<path class="st2" d="M551,55.6c0,0,2.7-8-2.7-8s-10.8-2.7-10.8,5.4s5.4,8,5.4,8S548.2,63.6,551,55.6z"/>
		<path class="st2" d="M412.6,90.2c0,0,2.7-8-2.7-8c-5.4,0-10.8-2.7-10.8,5.4s5.4,8,5.4,8S409.8,98.2,412.6,90.2z"/>
		<path class="st2" d="M438.8,52.9c0,0,3.3-9.7-3.3-9.7c-6.5,0-13-3.3-13,6.5s6.5,9.7,6.5,9.7S435.5,62.8,438.8,52.9z"/>
		<path class="st2" d="M568.2,176.7c0,0,2.7-8-2.7-8c-5.4,0-10.7-2.7-10.7,5.3c0,8,5.3,8,5.3,8S565.5,184.7,568.2,176.7z"/>
		<path id="XMLID_6767_" class="st2" d="M428.2,168c0,0-10,16.8-11.7,0.7"/>
		<path id="XMLID_6766_" class="st2" d="M455.3,169.1c0,0-10,16.8-11.7,0.7"/>
		<path id="XMLID_6765_" class="st2" d="M484.3,168c0,0-10,16.8-11.7,0.7"/>
		<path id="XMLID_6764_" class="st2" d="M511.6,169.1c0,0-10,16.8-11.7,0.7"/>
		<path id="XMLID_6763_" class="st2" d="M538.5,202.7c0,0,16,30.3-9.7,18.2"/>
		<path id="XMLID_6762_" class="st2" d="M528.9,115.1c-2,0.5-3.7-1-4.3-6.9"/>
		<path id="XMLID_6761_" class="st2" d="M488.4,103.2c-2-0.8-4.3-1.9-7.2-3.4"/>
		<path id="XMLID_6760_" class="st2" d="M433.7,103.8"/>
		<path id="XMLID_6759_" class="st2" d="M438,110.8c-1.5,0.4-2.8-0.4-3.6-3.3"/>
		<path id="XMLID_6758_" class="st2" d="M409,124.8"/>
		<path id="XMLID_6757_" class="st2" d="M412.1,129.4c-1.5,0.4-3.3,0.7-4-0.2"/>
	</g>
</g>
</svg>
