<?xml version="1.0" encoding="utf-8"?>
<!-- Generator: Adobe Illustrator 23.0.3, SVG Export Plug-In . SVG Version: 6.00 Build 0)  -->
<svg version="1.1" id="Layer_1" xmlns="http://www.w3.org/2000/svg" xmlns:xlink="http://www.w3.org/1999/xlink" x="0px" y="0px"
	 viewBox="0 0 232.4 351.5" style="enable-background:new 0 0 232.4 351.5;" xml:space="preserve">
<style type="text/css">
	.st0{opacity:0.1;}
	.st1{enable-background:new    ;}
	.st2{fill:#584C4F;}
	.st3{opacity:0.1;enable-background:new    ;}
	.st4{fill:#A36B78;}
	.st5{fill:none;}
	.st6{fill:#FFFFFF;}
	.st7{fill:#FFD767;}
</style>
<g id="Layer_5" class="st0">
</g>
<g id="Layer_3" class="st0">
</g>
<g>
	<g class="st1">
		<path class="st2" d="M220.4,164.3c0.3-2,0.5-4.1,0.6-6.3c0.3-4.4,0.3-9.1,0.1-14c-0.2-4.4-0.7-8.9-1.4-13.5c-0.6-4-1.5-8-2.5-11.8
			c-0.3-1.1-0.7-2.3-1-3.4c0.4-0.3,0.8-0.6,1.2-1.1c0,0,0.1-0.1,0.1-0.2c0.1-0.2,0.3-0.4,0.4-0.6c0.2-0.3,0.4-0.6,0.6-1
			c0,0,2.8-12.8,2.1-24c-0.2-3.9-0.9-7.6-2.2-10.5c0-0.4,0-0.9,0-1.3c0,0,0,0,0-0.1l0,0l0,0l0,0c0-0.4,0-0.7,0-1.1
			c0-0.6,0-1.2-0.1-1.8c-0.3-5.3-1.3-9.9-2.8-13.8c-2-5.3-4.8-9.4-7.8-12.4c-1.8-2.5-3.6-4.8-5.5-6.9c-1.5-1.6-2.9-3.1-4.5-4.5
			c-1.5-1.3-3-2.5-4.5-3.6c-0.3-0.2-0.6-0.5-1-0.7c-1.2-0.8-3.6-1.7-6.5-2.6c-3-0.9-6.6-1.8-10-2.5c-3.8-0.8-7.3-1.3-9.5-1.3
			c0.7-6.9-4.7-16.1-14-12.8c0,0-5.2,4.2-5.8,9c-2.5-1.2-4.5-2.2-5-2.5c-1.7-1.2-5.5-2.8-9.9-4.2c-3.3-1.1-6.8-2.1-9.9-2.8
			c-3-0.7-5.6-1.1-7-1c-2.2,0.2-4.5,0.5-6.8,1c-4.6,1-9.3,2.7-14.3,5c-7,2-15.4,7-22.1,17.5c-0.5,0.9-1,1.7-1.5,2.5l0,0
			c0,0,0,0,0,0.1c-0.2,0.4-0.4,0.8-0.6,1.1c-4.5,3.3-8.4,9.6-11.4,15.7c-3.5,0-6.8,0.1-9.9,0.1c-24.9,0.6-34.5,5.7-37.8,10.7
			l-0.1,0.1C10,64.9,10,65,9.9,65.1c0,0.1-0.1,0.1-0.1,0.2s-0.1,0.1-0.1,0.2s-0.1,0.2-0.1,0.3c0,0.1-0.1,0.1-0.1,0.2
			c-0.1,0.1-0.1,0.2-0.2,0.3v0.1c-0.3,0.8-0.5,1.5-0.6,2.3l0,0c0,0.1,0,0.3,0,0.4l0,0c0,0.1,0,0.3,0,0.4c0,0,0,0,0,0.1s0,0.2,0,0.4
			c0,0,0,0,0,0.1s0,0.2,0,0.3v0.1c0,0.1,0,0.1,0,0.2c0.2,2.6,1.4,4.4,1.4,4.4s7.1,9.7,29.4,16l0,0h0.1c0,0,0,0,0.1,0
			c0,0,0.1,0,0.4-0.1c-1.4,2.5-2.8,5-4,7.7c-2.8,0.7-5.3,1.7-7.1,3.2l-2.1-2.2c0,0,0.8,1.1,1.8,2.4c-2.7,2.5-3.2,6.4,1.2,12.4
			c-1.7,5.5-3.1,11.2-4.2,16.9c-2.1,1.4-4.3,3-6.2,5c-3.7,3.7-0.3,4.4,3.9,4.3c-1.9,5.6-2.1,11.2-0.9,16.5c-0.1,2.4-0.3,4.7-0.3,7.1
			c-0.7,1.4-1.2,2.9-1.6,4.3c-1.6-1-3.2-1.9-4.8-2.6c-8.6-4.1-15.7-3.2-13.9,13.1c1.9,16.2,5.9,32.6,10.9,45.4
			c3,17.8,8.8,29.9,16.5,27.5c0.5-0.2,0.9-0.3,1.4-0.5c2.2,11,4.2,19.6,5.2,24.7c0.8,4.1,2,8.5,3.6,12.8
			c1.4,3.8,10.1,17.6,17.5,27.3c-0.4-0.3-0.7-0.5-1.1-0.8c3.8,5.2,7.5,9.7,9.8,11.7c3,2.6,6.3,4.9,9.8,7c0.8,0.5,1.6,0.9,2.4,1.4
			c-0.4,7.5,14,14.6,36.5,14.4c12.2-0.1,16.6-3.1,17.8-6.2c1.5-0.3,3.1-0.5,4.6-0.9c27.2-5.8,57.1-52.4,59.6-66.7
			c1.3-7.6,2.5-16,3.7-25.5c1,0.4,2,0.8,3.1,1.2c7.7,2.4,13.5-9.8,16.5-27.5c5-12.8,9-29.2,10.9-45.4
			C232.1,165.1,227.2,162.3,220.4,164.3z"/>
		<g>
			<path class="st2" d="M221.9,164.3c1.1-9.3,1.2-18.7,0.1-28c-0.5-4.4-1.2-8.8-2.1-13.1c-0.4-1.9-1.9-4.8-1.7-6.8
				c0.1-1.4,0.8-1.7,1.4-2.9c1.8-4.3,2-9.8,2.4-14.4c0.4-4.4,0.5-9,0-13.4c-0.3-3-2.1-6.5-2-9.4c0-0.7-0.7-1.6-1.5-1.5
				c-0.1,0-0.3,0-0.4,0.1c0.6,0.5,1.3,1,1.9,1.4c-0.2-7.1-1.3-14.1-4.4-20.5c-2.9-6.1-7.7-11.6-12.2-16.6
				c-3.9-4.3-8.4-8.6-13.9-10.7c-7.2-2.8-15.5-4.7-23.2-4.9c0.5,0.5,1,1,1.5,1.5c0.4-6.3-3.1-13.8-10-14.8
				c-6.7-1.1-11.5,4.6-12.7,10.7c0.7-0.3,1.5-0.6,2.2-0.9c-6.8-3.1-13-6.4-20.3-8.4c-8.3-2.3-15-2.6-23.3-0.2
				c-14.8,4.4-26.8,11.2-34.9,24.7c0.8-0.1,1.6-0.2,2.4-0.3l0,0c-0.7-0.6-1.9-0.6-2.4,0.3c-1.2,2.4-4.2,4.3-5.9,6.5
				c-1.9,2.5-3.5,7.7-6,9.3c-2.4,1.5-7.9,0.5-10.7,0.6c-3.9,0.1-7.7,0.4-11.6,0.8c-7.7,0.9-16.8,2.3-23,7.5c-2.7,2.3-4.4,5.4-4.4,9
				c0,4.8,2.7,7.5,6.2,10.3c4.1,3.3,8.8,5.8,13.6,8c3.3,1.5,6.8,2.8,10.3,3.8c0.6,0.2,1.3,0.4,2,0.5c0.6,0.1,0.8-0.4-0.1,0
				c0.3-0.1,0.9,0,1.2-0.1c-0.6-0.7-1.1-1.5-1.7-2.2c-1.3,2.3-2.5,6-4.8,7.4c-1.8,1.1-4,1.5-5.8,2.9c0.6,0.1,1.2,0.2,1.8,0.2
				c-0.7-0.7-1.4-1.4-2.1-2.2c-1.2-1.2-3.4,0.4-2.4,1.8c0.6,0.8,1.2,1.6,1.8,2.4c0.1-0.6,0.2-1.2,0.2-1.8c-2.3,2.4-3,5.3-2,8.6
				c0.9,3,2.4,4.6,1.9,7.8c-0.6,3.5-1.6,7.6-2.7,11c-1.3,4-8.2,5.9-8.3,10.4c0,3.5,4.5,3.4,7,3.3c-0.5-0.6-1-1.3-1.4-1.9
				c-1.5,4.8-1.9,9.2-1.4,14.2s-0.1,8.9-1.4,13.6c0.7-0.3,1.5-0.6,2.2-0.9c-5.1-3.1-14.6-8.4-19.2-1.7c-2.6,3.8-2.2,9.2-1.7,13.5
				c0.7,7.3,2.1,14.5,3.7,21.7c1.6,7.1,3.6,14.2,6.1,21.1c2.3,6.5,3,13.4,5.5,19.8c2.7,6.7,7.2,14.1,15.4,11.2
				c-0.6-0.3-1.2-0.7-1.8-1c2.5,12.4,4.1,26.4,9,38c4.1,9.7,11.2,18.8,17.5,27.2c0.7-0.7,1.4-1.4,2.1-2.1c-0.4-0.3-0.7-0.5-1.1-0.8
				c-1.2-0.8-2.9,0.8-2.1,2.1c2.7,3.6,5.3,7.4,8.5,10.6c3.5,3.5,7.7,5.9,11.7,8.8c1.2,0.9,1.1,0.6,1.7,1.7c0.5,0.8,0.6,1.9,1.1,2.8
				c1.2,2,3.1,3.5,5,4.7c6.2,4,14,5.5,21.3,6.2c7.8,0.8,17.8,1.7,25.1-2.1c1.8-0.9,2.6-2.7,4.1-3.7c2.3-1.5,7.1-1.6,10-2.8
				c6.3-2.6,12-6.6,17.1-11c11.5-9.8,21.1-22.2,28.8-35.2c3.2-5.3,6.3-11,8.1-16.9c2.8-9.1,3.3-19.4,4.4-28.8
				c-0.6,0.5-1.3,1-1.9,1.4c7.8,3.3,12.5-0.6,15.9-7.8c2.4-5.1,3.8-10.6,4.9-16.1c1.3-6.7,4.1-13,5.9-19.6
				c1.9-7.2,3.5-14.4,4.6-21.8c0.8-5.4,2-11.2,1.1-16.6c-1.1-6.5-5.8-8.9-11.9-7.3c-1.9,0.5-1.1,3.4,0.8,2.9
				c8.8-2.3,8.8,6.7,8.1,13.1c-1.1,10.9-3.5,21.8-6.5,32.3c-1.3,4.3-3.1,8.4-4.3,12.7c-1.3,4.5-1.7,9.1-3.2,13.5
				c-1.2,3.6-2.7,7.6-5.2,10.5c-2.9,3.3-5.6,2.8-9.3,1.2c-1-0.4-1.8,0.6-1.9,1.4c-1.5,11.8-2,24.3-7.2,35.1
				c-4.9,10.2-11.4,19.7-18.5,28.4c-7.5,9-16.1,17.8-26.5,23.5c-2.4,1.3-4.9,2.4-7.5,3.2c-2.2,0.7-5.9,0.5-7.7,1.9
				c-1.1,0.9-1.5,2.4-2.9,3.2c-2.9,1.8-6.9,2.2-10.2,2.4c-8.6,0.6-17.7-0.2-26-2.7c-4.4-1.4-12.6-4.3-12.6-10.1c0-0.5-0.3-1-0.7-1.3
				c-9-5.1-15.4-11.3-21.5-19.6c-0.7,0.7-1.4,1.4-2.1,2.1c0.4,0.3,0.7,0.5,1.1,0.8c1.2,0.8,3-0.8,2.1-2.1
				c-6.2-8.3-13.2-17.3-17.4-27c-2.5-5.8-3.5-12.1-4.8-18.2c-1.4-6.4-2.8-12.9-4-19.3c-0.2-0.8-1.1-1.3-1.8-1
				c-8.3,2.9-11.7-8.5-13.5-14.6c-1.4-4.8-2-9.7-3.7-14.4c-1.9-5.2-3.5-10.4-4.8-15.8c-2.6-10.3-6-22.3-5.1-32.9
				c0.9-10.8,10.5-6.2,16.6-2.5c0.8,0.5,2,0,2.2-0.9c1.1-4.1,2.2-7.3,2-11.8c-0.3-5.8-0.9-10.3,0.9-16.1c0.3-0.9-0.5-1.9-1.4-1.9
				c-3.3,0.1-4-0.1-1.7-2.8c1.3-1.5,4-2.2,5-3.8c1.5-2.5,1.6-6.4,2.3-9.2c0.6-2.4,2.9-6.7,2.3-9.2c-0.4-1.8-2.3-3.4-2.9-5.3
				c-0.6-2.2-0.3-4,1.3-5.6c0.4-0.4,0.6-1.3,0.2-1.8c-0.6-0.8-1.2-1.6-1.8-2.4c-0.8,0.6-1.6,1.2-2.4,1.8c0.7,0.7,1.4,1.4,2.1,2.2
				c0.4,0.4,1.3,0.6,1.8,0.2c2.2-1.6,5.6-1.7,7.4-3.4c1.7-1.6,3.1-5.9,4.3-8c0.6-1.1-0.4-2.6-1.7-2.2c0.4-0.1,0.5,0.2-0.1,0
				c-1.3-0.3-2.6-0.8-3.9-1.3c-3.5-1.2-6.9-2.5-10.2-4.1c-3.8-1.9-7.5-4-10.7-6.7c-3-2.5-5-4.6-4.4-8.7c0.8-5.1,6.4-7.9,10.7-9.4
				c11.7-4.1,24.8-3.8,37-3.9c0.5,0,1.1-0.3,1.3-0.7c1.9-3.9,4-7.8,6.8-11.2c1.7-2,4.1-3.4,5.2-5.7c-0.8,0.1-1.6,0.2-2.4,0.3l0,0
				c0.7,0.6,1.8,0.6,2.4-0.3c7.7-12.9,19.1-19.2,33.1-23.3c8.1-2.4,14.6-1.9,22.6,0.4c6.7,1.9,12.5,5,18.7,7.8
				c0.8,0.4,2,0.1,2.2-0.9c0.9-4.5,4.2-9.2,9.2-8.5c5.5,0.8,7.9,6.9,7.6,11.8c0,0.8,0.7,1.5,1.5,1.5c6.7,0.2,13.6,2,20,4
				c6.1,2,10.7,6,14.9,10.8c3.8,4.3,8.3,9.5,11,14.6c3.3,6.3,4.6,13.3,4.7,20.4c0,1,0.9,1.6,1.9,1.4c-0.1,0-0.3,0-0.4,0.1
				c-0.5-0.5-1-1-1.5-1.5c-0.1,2.6,1.3,4.9,1.7,7.4c0.8,4.5,0.7,9.2,0.4,13.7c-0.3,4.9,0.1,12.9-3.9,16.5c-0.4,0.3-0.5,1-0.4,1.5
				c4.8,15.7,6.2,32.5,4.2,48.7C218.7,166.2,221.7,166.2,221.9,164.3z"/>
		</g>
	</g>
	<g>
		<g>
			<g>
				<g class="st3">
					<path class="st2" d="M34.7,206.9C38.5,210,43,218,43,218l1.7,24.5l-0.3,7.2c0,0,0,0.4-0.1,1c-0.3,2-1.3,6.3-4.9,8.2
						c-2.7,1.5-4.7-5.9-5.7-16.6c-1.7-7.7-3.1-17.7-3.8-27.4C29.2,205,31.7,204.5,34.7,206.9z"/>
					<g>
						<path class="st2" d="M33.6,208c2.2,2,4,4.4,5.7,6.9c0.6,0.8,1.1,1.7,1.6,2.6c0.2,0.3,1,2,0.6,0.6c0.6,2.1,0.3,4.7,0.5,6.9
							c0.4,5.9,1.2,11.8,1.2,17.7c0,2.7,0,5.7-0.5,8.4c-0.3,1.6-0.8,3.1-1.8,4.4c-1.6,2.1-1.7,2.3-3.1,0.5c-1.5-1.9-1.7-6.5-2.1-8.7
							c-1-7.2-2.4-14.3-3.3-21.4c-0.4-3.6-0.8-7.3-1-10.9C31.3,213.5,30.5,205.6,33.6,208c1.5,1.2,3.6-0.9,2.1-2.1
							c-9.3-7.2-7.2,11.5-6.8,15.4c0.8,8,2.5,15.8,3.5,23.8c0.6,4.1,0.6,11.5,4.1,14.6c5.8,5.2,9.2-8.3,9.4-12.1
							c0.3-6.8-0.3-13.5-0.8-20.2c-0.2-2.9,0.2-6.7-0.7-9.5c-1.2-4.2-5.5-9.1-8.7-12C34.3,204.6,32.2,206.7,33.6,208z"/>
					</g>
				</g>
				<g>
					<path class="st4" d="M44.6,214.6l-1,12c0,0-0.1,0.6-0.3,1.7c-0.8,3.2-3.8,10.4-14.1,13.6c-7.7,2.4-13.5-9.8-16.5-27.5
						c-5-12.8-9-29.2-10.9-45.4c-1.9-16.3,5.3-17.2,13.9-13.1c10.9,5.2,24.1,18.3,24.1,18.3"/>
					<g>
						<path class="st2" d="M43.1,214.6c-0.5,5.6,0,12.2-2.9,17.3c-2.4,4.1-9.1,10-14.3,8.5c-5-1.4-7.4-9.4-8.8-13.7
							c-2.1-6.6-3.3-13.2-5.5-19.8c-2.5-7.4-4.4-15-5.9-22.6c-1.4-7.2-3.5-15.3-2.6-22.7c0.7-5.8,4.3-7.3,9.5-5.5
							c9.9,3.4,18.8,11.8,26.2,19.1c1.4,1.4,3.5-0.8,2.1-2.1c-7.8-7.7-17.6-17-28.3-20.1c-13.2-3.9-12.9,10.9-11.7,19.9
							c1.3,9.8,3.4,19.6,6.2,29.1c1.3,4.6,3.3,9,4.5,13.6c1.1,4.5,1.8,9,3.3,13.3c1.6,4.8,4,10.9,8.7,13.6
							c4.7,2.7,10.5-0.4,14.3-3.4c8-6.3,7.6-15.3,8.4-24.5C46.3,212.6,43.3,212.6,43.1,214.6L43.1,214.6z"/>
					</g>
				</g>
				<g id="XMLID_1225_">
					<path class="st4" d="M26.2,176.1c0,0-16.9-19.6-18.9-9"/>
					<g>
						<path class="st2" d="M27.2,175c-3.3-3.8-18.7-20.2-21.5-8.3c-0.4,1.9,2.5,2.7,2.9,0.8c1.2-5.1,7.8,1.2,9.8,2.9
							c2.4,2.1,4.6,4.4,6.7,6.8C26.4,178.6,28.5,176.5,27.2,175L27.2,175z"/>
					</g>
				</g>
				<g id="XMLID_1224_">
					<path class="st4" d="M33.6,190.3c0,0-21.2-2.5-16.5,8.9s13,18.3,14.8,4.7"/>
					<g>
						<path class="st2" d="M33.6,188.8c-5.6-0.6-18.1-1-18.7,6.9c-0.2,3,1.5,6.1,2.9,8.6c1.5,2.7,3.4,5.6,6,7.3
							c5.8,3.9,8.7-2.4,9.5-7.4c0.3-1.9-2.6-2.7-2.9-0.8c-0.3,1.7-0.7,6.2-3.1,6.4c-1.9,0.1-3.7-2.4-4.7-3.7
							c-2-2.6-6.9-9.3-3.6-12.4c3.3-3.2,10.4-2.5,14.6-2.1C35.5,192.1,35.5,189.1,33.6,188.8L33.6,188.8z"/>
					</g>
				</g>
				<g id="XMLID_1223_" class="st0">
					<path class="st2" d="M33.6,190.3c0,0-21.2-2.5-16.5,8.9s13,18.3,14.8,4.7"/>
					<g>
						<path class="st2" d="M33.6,188.8c-5.6-0.6-18.1-1-18.7,6.9c-0.2,3,1.5,6.1,2.9,8.6c1.5,2.7,3.4,5.6,6,7.3
							c5.8,3.9,8.7-2.4,9.5-7.4c0.3-1.9-2.6-2.7-2.9-0.8c-0.3,1.7-0.7,6.2-3.1,6.4c-1.9,0.1-3.7-2.4-4.7-3.7
							c-2-2.6-6.9-9.3-3.6-12.4c3.3-3.2,10.4-2.5,14.6-2.1C35.5,192.1,35.5,189.1,33.6,188.8L33.6,188.8z"/>
					</g>
				</g>
			</g>
			<g>
				<path class="st4" d="M220.4,132.1c-0.2-4.4-0.7-8.9-1.4-13.5c-0.6-4-1.5-8-2.5-11.8c-2-7.4-5-14.5-8.9-21.1
					c-2-3.4-4.4-6.8-7-10.1c-2-2.6-4.1-5-6.4-7.3c-0.1-0.1-0.3-0.2-0.4-0.3l-0.2-0.2c-2.7-2.7-5.7-5.3-9.2-8.1
					c-3.4-2.7-7-5.2-10.6-7.4c-6.7-4-14.1-7.4-22.2-10c-3.7-1.2-7.7-2.3-12.2-3.4c-2.5-0.6-4.5-1-6.3-1.3c-1.5-0.3-3-0.5-4.5-0.7
					c-8.2-2-13.5-2.4-13.5-2.4C-19.2,51.1,29.2,232.3,35.8,266c0.8,4.1,2,8.5,3.6,12.8c2,5.4,18.8,30.9,25.4,36.5
					c3,2.6,6.3,4.9,9.8,7c14.1,8.5,32.1,13,53.8,10c2.4-0.3,4.9-0.8,7.4-1.3c27.2-5.8,57.1-52.4,59.6-66.7
					c3.3-19.4,5.9-44.9,9.8-78.4c0.3-0.5,0.7-0.9,1-1.4c0.6-0.8,1.3-1.6,1.9-2.5c1.3-1.8,2.3-3.3,3-4.7c1.1-1.6,2-2.9,2.7-4.3
					c1.1-2,1.9-4.2,2.6-6.3s1.3-4.2,1.8-6.6c1-4.4,1.6-8.9,2-14C220.6,141.8,220.6,137,220.4,132.1z"/>
				<g>
					<path class="st2" d="M221.9,132.1c-1.2-20.3-6.6-39.9-19.1-56.2c-11.4-14.9-27.4-26.3-44.8-33c-9-3.5-18.3-5.7-27.8-7.3
						c-6.5-1.1-12.4-3-19-2.1c-12.3,1.8-24.4,5.3-35.4,11c-39.2,20.2-53,63.9-55,105.3c-1.8,36.6,4.3,72.9,11.9,108.5
						c1.8,8.2,3,16.9,7,24.3c5.9,10.9,13.3,22.1,21.7,31.3c10.3,11.3,26.9,18,41.8,20.1c15.6,2.2,33.6,1.1,47.3-7.6
						c12.1-7.7,21.8-18.9,30.1-30.3c6.4-8.9,13.6-19.3,16.2-30.2c3.6-15.3,4.6-31.7,6.3-47.3c0.5-4.6,1-9.2,1.6-13.8
						c0.7-5.8,0.3-13.3,2.8-18.6c1.8-3.8,4.9-7.3,7.1-10.9c2.5-4.2,4-9,5.1-13.7C221.8,151.9,222.3,142,221.9,132.1
						c-0.1-1.9-3.1-1.9-3,0c0.4,10.4-0.1,21-2.9,31.1c-1.3,5-3.4,9.1-6.1,13.4c-1.8,2.9-5.1,6-6.1,9.1c-1.5,4.2-1.1,10-1.6,14.5
						c-0.6,5-1.1,10-1.7,15c-1,8.5-1.9,17-3,25.5c-1.5,12-2.3,24-7.8,34.9c-6.1,12-14.1,23.2-23.2,33.1
						c-9.5,10.3-20.5,19.2-34.6,21.6c-18.6,3.2-38,1.2-54.5-8.2c-12.7-7.2-20.4-17.9-28.2-29.9c-2.7-4.1-5.6-8.4-7.7-12.9
						c-2.4-5.2-3.5-10.8-4.6-16.4c-6.5-31.1-12.5-62.2-13.2-94C22.9,130,29.2,85.5,60.3,58.6c8.1-7,17.6-12.4,27.6-16.2
						c10.5-3.9,22.7-7.7,33.8-5.6c19.4,3.6,38.6,7.9,55.3,19.1c16.5,11,29.7,26.5,36.3,45.3c3.5,9.9,5.1,20.4,5.7,30.9
						C219,134.1,222,134.1,221.9,132.1z"/>
				</g>
			</g>
			<g>
				<line class="st5" x1="206.2" y1="155.4" x2="205.1" y2="187.8"/>
				<g>
					<path class="st2" d="M204.7,155.4c-0.4,10.8-0.8,21.6-1.1,32.4c-0.1,1.9,2.9,1.9,3,0c0.4-10.8,0.8-21.6,1.1-32.4
						C207.8,153.4,204.8,153.4,204.7,155.4L204.7,155.4z"/>
				</g>
			</g>
			<g class="st0">
				<path class="st2" d="M221.2,133.9c-0.2-4.4-0.7-8.9-1.4-13.5c-0.6-4-1.5-8-2.5-11.8c-2-7.4-5-14.5-8.9-21.1
					c-2-3.4-4.4-6.8-7-10.1c-2-2.6-4.1-5-6.4-7.3c-0.1-0.1-0.3-0.2-0.4-0.3l-0.2-0.2c-2.7-2.7-5.7-5.3-9.1-8.1
					c2.2,2.9,4.3,5.9,6.1,8.9c3.9,6.6,6.8,13.7,8.9,21.1c1.1,3.9,1.9,7.9,2.5,11.8c0.7,4.6,1.2,9.1,1.4,13.5c0.2,4.9,0.2,9.6-0.1,14
					c-0.4,5.1-1,9.7-2,14c-0.5,2.4-1.1,4.6-1.8,6.6c-0.7,2-1.4,4.2-2.6,6.3c-0.7,1.3-1.6,2.7-2.7,4.3c-0.8,1.5-1.7,2.9-3,4.7
					c-0.6,0.8-1.3,1.7-1.9,2.5c-0.4,0.4-0.7,0.9-1,1.4c-3.8,33.5-6.4,58.9-9.8,78.4c-2.4,14.3-32.4,60.9-59.6,66.7
					c-2.5,0.5-5,1-7.4,1.3c-21.7,3.1-39.6-1.4-53.8-10c-0.9-0.5-1.7-1.1-2.6-1.7c3.8,5.2,7.5,9.7,9.8,11.7c3,2.6,6.3,4.9,9.8,7
					c14.1,8.5,32.1,13,53.8,10c2.4-0.3,4.9-0.8,7.4-1.3c27.2-5.8,57.1-52.4,59.6-66.7c3.3-19.4,5.9-44.9,9.8-78.4
					c0.3-0.5,0.7-0.9,1-1.4c0.6-0.8,1.3-1.6,1.9-2.5c1.3-1.8,2.3-3.3,3-4.7c1.1-1.6,2-2.9,2.7-4.3c1.1-2,1.9-4.2,2.6-6.3
					s1.3-4.2,1.8-6.6c1-4.4,1.6-8.9,2-14C221.4,143.6,221.4,138.8,221.2,133.9z"/>
				<g>
					<path class="st2" d="M222.7,133.9c-0.8-14.7-3.8-29.4-10.5-42.6C206,79,197,68.9,186.3,60.3c-1.2-1-3.5,0.3-2.4,1.8
						c17.3,22.8,22.8,54.6,16.6,82.3c-1.5,6.6-3.9,12.2-7.5,17.9c-1.3,2.1-2.8,4.1-4.3,6.1c-2,2.8-1.7,6.4-2.1,9.9
						c-1.4,12.8-2.8,25.5-4.4,38.2c-1.2,10.3-2.5,20.6-4.3,30.8c-1.2,6.6-4.3,12.6-7.6,18.3c-9.4,16.3-22.1,33-38.3,43
						c-11,6.8-24.4,8.2-37.1,7.6c-13.6-0.6-27-4.7-38.4-12.3c-1.2-0.8-2.9,0.8-2.1,2.1c7.1,9.7,14.8,16.9,25.7,22.3
						c9.7,4.8,20.3,7.4,31,8c10.8,0.6,23.1-0.2,33.1-4.6c8.1-3.6,15.1-9.4,21.4-15.6c12.1-12,23.1-26.9,29.7-42.7
						c2.9-6.9,3.5-14.5,4.6-21.9c1.5-11,2.8-22.1,4.1-33.1c0.9-7.7,1.7-15.4,2.6-23.2c0.5-4.4,1.1-7.1,3.6-10.8c2-2.9,4.1-5.9,5.8-9
						C222.6,163.3,223.3,147.5,222.7,133.9c-0.1-1.9-3.1-1.9-3,0c0.5,12.7,0,26.9-5.4,38.6c-1.1,2.4-2.7,4.7-4.1,6.9
						c-1.4,2.3-3.7,4.4-4.8,6.8c-2.2,4.6-1.9,11.5-2.4,16.6c-2.3,20.8-3.8,42.2-8,62.8c-2.8,13.8-13.1,27.3-21.7,37.9
						c-5.9,7.2-12.5,14.1-20.1,19.6c-8.1,5.9-16.5,8.6-26.5,9.7c-12.8,1.5-25.9,0.3-38-4.2c-5.9-2.2-11.5-5.2-16.7-8.8
						c-6.1-4.3-10.3-9.4-14.7-15.4c-0.7,0.7-1.4,1.4-2.1,2.1c9.5,6.4,20.6,10.4,31.9,12c12.1,1.7,26.3,1.4,37.9-3
						c18.1-6.8,32.1-24,42.5-39.6c4.6-6.8,8.9-14.1,11.8-21.8c2.8-7.5,3.2-16.1,4.3-24.1c1.7-13,3.2-26,4.6-39
						c0.8-7,0.2-16.4,4.1-22.4c3.6-5.5,7.3-10.5,9.4-16.9c9.6-29.6,3.6-66.5-15.2-91.3c-0.8,0.6-1.6,1.2-2.4,1.8
						c10,8.1,18.5,17.4,24.6,28.8c7,13.2,10,27.8,10.9,42.6C219.8,135.8,222.8,135.9,222.7,133.9z"/>
				</g>
			</g>
			<g class="st0">
				<path class="st2" d="M53.7,283.2C47.1,249.5-1.3,68.3,133,51.6c0,0,5.4,0.4,13.5,2.4c1.5,0.2,3,0.4,4.5,0.7
					c1.8,0.3,3.9,0.8,6.3,1.3c4.5,1.1,8.4,2.2,12.2,3.4c8,2.6,15.5,6,22.2,10c3.6,2.2,7.1,4.6,10.6,7.4c0,0,0.1,0,0.1,0.1
					c-0.3-0.4-0.6-0.8-0.9-1.1c-2-2.6-4.1-5-6.4-7.3c-0.1-0.1-0.3-0.2-0.4-0.3l-0.2-0.2c-2.7-2.7-5.7-5.3-9.2-8.1
					c-3.4-2.7-7-5.2-10.6-7.4c-6.7-4-14.1-7.4-22.2-10c-3.7-1.2-7.7-2.3-12.2-3.4c-2.5-0.6-4.5-1-6.3-1.3c-1.5-0.3-3-0.5-4.5-0.7
					c-8.2-2-13.5-2.4-13.5-2.4C-18.3,51.3,30.1,232.5,36.7,266.3c0.8,4.1,2,8.5,3.6,12.8c2,5.4,18.8,30.9,25.4,36.5
					c2.3,1.9,4.7,3.7,7.3,5.3c-6.9-9.5-14.3-21.3-15.6-24.8C55.7,291.6,54.5,287.3,53.7,283.2z"/>
				<g>
					<path class="st2" d="M55.1,282.8c-6.7-34-13.8-67.7-13.8-102.6c-0.1-43.9,11-93.3,53-115.5c6.3-3.3,12.9-5.9,19.7-7.8
						c6.3-1.8,13.9-4.1,20.4-3.6c5.2,0.4,10.3,1.9,15.4,2.8c6,1,11.9,2.5,17.6,4.3c12.1,3.8,23.8,9.5,33.7,17.5
						c1.2,1,3.5-0.4,2.4-1.8c-15.7-20.3-38.2-32.7-62.9-38.5c-5.8-1.4-11.7-2.4-17.5-3.4c-3-0.5-5.9-1.1-8.8-0.8
						c-8.3,0.8-16.8,3-24.7,5.7C63,48.4,43.2,68.3,32.7,94.2c-10.4,25.5-12.4,54-11.2,81.3c1,24.2,4.7,48.2,9.6,71.8
						c2.2,10.7,3.7,22.9,8,32.8c3.4,7.7,8.8,15,13.6,21.8c5.7,8,11.2,14.6,19.5,20.2c1.2,0.8,2.9-0.8,2.1-2.1
						C65.8,308.3,58.1,297.1,55.1,282.8c-0.4-1.9-3.3-1.1-2.9,0.8c3,14.6,10.8,26,19.4,37.9c0.7-0.7,1.4-1.4,2.1-2.1
						c-7.8-5.3-13-11.5-18.4-19.1c-4.5-6.3-9.1-12.9-12.6-19.8c-4.4-8.4-5.5-19.1-7.5-28.4c-4.5-21.3-8.2-42.7-9.9-64.4
						c-4-50.1,1.7-113,51.1-139.7c7.3-4,15.1-6.9,23.2-9c4.6-1.2,9.2-2.1,13.8-2.8s9.3,0.6,13.8,1.6c14.1,3.1,27.7,5.7,40.7,12.3
						c12.7,6.5,24.3,15.9,33.1,27.3c0.8-0.6,1.6-1.2,2.4-1.8c-17.2-13.8-37.2-19.1-58.3-23.5c-6.9-1.4-12-2.2-18.9-1
						s-13.8,2.9-20.4,5.3C83.9,64.3,66,79.6,55,100.1C33.5,140,36.2,189.9,42.6,233.3c2.5,16.9,6.3,33.5,9.6,50.2
						C52.6,285.5,55.5,284.7,55.1,282.8z"/>
				</g>
			</g>
			<g id="XMLID_1220_">
				<path class="st4" d="M130.6,326.1c0,0,10.1,13.6-16.2,13.8s-41.7-9.6-34.9-18.3"/>
				<g>
					<path class="st2" d="M129.3,326.9c6.4,8.8-7,11.3-13.2,11.5c-5.4,0.2-45-2.6-35.3-16c1.1-1.6-1.5-3.1-2.6-1.5
						c-3.8,5.3-0.6,10.6,4.3,13.8c9.5,6.1,22.7,7.1,33.6,6.7c5.8-0.2,15.8-0.8,17.7-7.8c0.7-2.7-0.2-6-1.9-8.2
						C130.7,323.8,128.1,325.3,129.3,326.9L129.3,326.9z"/>
				</g>
			</g>
			<g>
				<g id="XMLID_1219_">
					<line class="st5" x1="156" y1="212.6" x2="161.5" y2="211.2"/>
					<g>
						<path class="st2" d="M156.4,214.1c1.8-0.5,3.6-1,5.5-1.5s1.1-3.4-0.8-2.9c-1.8,0.5-3.6,1-5.5,1.5
							C153.8,211.7,154.5,214.6,156.4,214.1L156.4,214.1z"/>
					</g>
				</g>
				<g id="XMLID_1218_">
					<path class="st4" d="M111.6,190.7c0,0-19.2-23.8-18.5-37.1"/>
					<g>
						<path class="st2" d="M112.6,189.7c-3.2-4.1-6.2-8.4-9-12.8c-4.2-6.8-9.3-15-9.1-23.2c0-1.9-3-1.9-3,0
							c-0.1,8.5,4.6,16.8,8.9,23.8c3,5,6.4,9.8,10,14.4C111.7,193.3,113.8,191.2,112.6,189.7L112.6,189.7z"/>
					</g>
				</g>
				<g id="XMLID_1211_">
					<g id="XMLID_1217_">
						<path class="st4" d="M70.2,196.6c0,0-14.1,16.5,8.6,21.1"/>
						<g>
							<path class="st2" d="M69.1,195.5c-2.4,2.9-4.4,6.6-4.7,10.4c-0.6,8.1,7.2,11.7,14,13.1c1.9,0.4,2.7-2.5,0.8-2.9
								c-5.9-1.3-13.2-4.2-11.5-11.5c0.6-2.5,2-5.1,3.6-7C72.5,196.2,70.4,194,69.1,195.5L69.1,195.5z"/>
						</g>
					</g>
					<g id="XMLID_1216_">
						<path class="st4" d="M110.3,196.6c0,0,15,12.5-6.1,21.1"/>
						<g>
							<path class="st2" d="M109.2,197.6c1.8,1.5,3.4,3.6,4.2,5.8c2.4,6.8-4.9,10.7-10,12.9c-1.8,0.8-0.2,3.3,1.5,2.6
								c5.9-2.5,13.2-7,11.9-14.6c-0.6-3.4-2.8-6.6-5.4-8.8C109.9,194.3,107.7,196.4,109.2,197.6L109.2,197.6z"/>
						</g>
					</g>
					<g id="XMLID_1215_">
						<path class="st4" d="M76.5,212.5c-4.3-0.2-5.3-3.6-3-5.4c0.8-0.7,3.2,0.5,5.5,1.8C80.8,210,76.5,212.5,76.5,212.5z"/>
						<g>
							<path class="st2" d="M76.5,211c-1-0.1-2.5-0.4-2.7-1.6c0-0.2,0-0.5,0.2-0.8s0.4-0.2,0.1-0.2c0.4,0,0.8,0.2,1.1,0.3
								s3,1.4,3,1.5s-0.4-0.9-0.3-0.8c0,0-0.3,0.4-0.4,0.5c-0.5,0.5-1.2,1-1.8,1.4c-1.7,1-0.2,3.6,1.5,2.6c1.3-0.8,3-1.9,3.5-3.4
								c0.4-1.1-0.1-2.1-1-2.8c-1.4-0.9-3.2-1.9-4.8-2.2c-2.5-0.5-4.4,2-4.1,4.4c0.4,2.8,3.2,4,5.7,4.2
								C78.4,214.1,78.4,211.1,76.5,211z"/>
						</g>
					</g>
					<g id="XMLID_1214_">
						<path class="st4" d="M92.9,188c0,0,4.5-0.1,5.5,1.4"/>
						<g>
							<path class="st2" d="M92.9,189.5c1.3,0,3.6-0.1,4.4,1c0.5,0.6,1.6,0.5,2.1,0c0.6-0.6,0.5-1.5,0-2.1c-1.4-1.8-4.5-1.9-6.6-1.8
								C91,186.5,91,189.5,92.9,189.5L92.9,189.5z"/>
						</g>
					</g>
					<g id="XMLID_1213_">
						<path class="st4" d="M79.7,184.2c0,0-2.6,3.6-4.4,3.6"/>
						<g>
							<path class="st2" d="M78.4,183.4l-0.1,0.1c0,0.1-0.1,0.1-0.1,0.2c-0.1,0.2,0.2-0.2,0,0c-0.3,0.4-0.6,0.7-0.9,1.1
								c-0.3,0.3-0.7,0.7-1,1c-0.2,0.2-0.5,0.3-0.7,0.4c-0.1,0.1-0.1,0-0.2,0.1c-1.9,0-1.9,3,0,3c2.4,0,4.4-2.5,5.7-4.3
								c0.5-0.7,0.1-1.7-0.5-2.1C79.7,182.5,78.9,182.8,78.4,183.4L78.4,183.4z"/>
						</g>
					</g>
					<g id="XMLID_1212_">
						<path class="st4" d="M101.2,207.4c4-1.5,6.3,1.2,5,3.7c-0.5,0.9-3.1,0.9-5.8,0.6C98.3,211.4,101.2,207.4,101.2,207.4z"/>
						<g>
							<path class="st2" d="M101.6,208.8c0.9-0.3,2.8-0.9,3.4,0.4c0.1,0.2,0.1,0.4,0.1,0.5c0,0.4-0.4,0.6,0,0.4
								c-0.5,0.3-1.4,0.2-2,0.2c-0.5,0-0.9,0-1.4-0.1c-0.3,0-0.6,0-0.8-0.1c-0.3-0.1-0.3,0,0.1,0.1c0.3,0.5,0.1,0.4,0.3,0.3
								c0.1-0.1,0.1-0.4,0.2-0.6c0.3-0.7,0.7-1.4,1.2-2c1.1-1.6-1.5-3.1-2.6-1.5c-0.8,1.2-1.8,2.7-1.8,4.2c0,1.1,0.6,2,1.7,2.3
								c1.5,0.4,3.4,0.4,5,0.2c1.3-0.2,2.3-0.6,2.9-1.8c0.5-1.1,0.5-2.3,0-3.4c-1.2-2.7-4.5-3-6.9-2.1
								C99,206.6,99.7,209.5,101.6,208.8z"/>
						</g>
					</g>
				</g>
				<g id="XMLID_1210_">
					<path class="st4" d="M63,206.7c0,0-12.4,6.1-15.9,7.5"/>
					<g>
						<path class="st2" d="M62.2,205.4c-5.1,2.5-10.2,5.2-15.6,7.4c-1.8,0.7-1,3.6,0.8,2.9c5.6-2.2,10.9-5,16.3-7.7
							C65.4,207.2,63.9,204.6,62.2,205.4L62.2,205.4z"/>
					</g>
				</g>
				<g id="XMLID_1209_">
					<path class="st4" d="M119.1,203.4c0,0,14.4,6.9,15.8,6.7"/>
					<g>
						<path class="st2" d="M118.4,204.7c2.6,1.3,5.3,2.5,8,3.7c2.5,1.1,5.8,3.2,8.6,3.3c1.9,0,1.9-3,0-3c-2.3,0-6-2.3-8.3-3.4
							c-2.3-1-4.5-2.1-6.8-3.2C118.2,201.2,116.6,203.8,118.4,204.7L118.4,204.7z"/>
					</g>
				</g>
				<g id="XMLID_1135_">
					<g id="XMLID_1208_">
						<path class="st4" d="M98.9,117.5c0,0-12.1,32.3-17.4,58.9"/>
						<g>
							<path class="st2" d="M97.4,117.1C90.2,136.2,84.1,156,80,176c-0.4,1.9,2.5,2.7,2.9,0.8c4-20,10.2-39.8,17.4-58.9
								C101,116.1,98.1,115.4,97.4,117.1L97.4,117.1z"/>
						</g>
					</g>
					<g id="XMLID_1207_">
						<path class="st4" d="M78.6,192.2c-3.8,5.4-5.6,10-4.4,13.3c0.9,2.4,2.2,3.9,3.5,4.8c1.1,0.8,2.3,1.1,3.2,1.3"/>
						<g>
							<path class="st2" d="M77.4,191.4c-2.5,3.7-5.7,8.5-4.9,13.2c0.7,4.2,3.9,7.4,8,8.4c1.9,0.4,2.7-2.5,0.8-2.9
								c-9.7-2.3-5-11.9-1.4-17.2C81,191.4,78.4,189.8,77.4,191.4L77.4,191.4z"/>
						</g>
					</g>
					<g id="XMLID_1136_">
						<path class="st4" d="M95.1,211.5c0,0-4.1,1.7-5.6,0.7"/>
						<g>
							<path class="st2" d="M94.7,210c-1.1,0.4-3.4,1.5-4.5,0.8c-1.7-1-3.2,1.6-1.5,2.6c2,1.2,4.8,0.3,6.8-0.5c0.8-0.3,1.3-1,1-1.8
								C96.4,210.4,95.5,209.7,94.7,210L94.7,210z"/>
						</g>
					</g>
				</g>
			</g>
			<g>
				<g id="XMLID_1134_">
					<path class="st4" d="M69.9,293.4c0,0,5.7,1.2,6.1,2.5"/>
					<g>
						<path class="st2" d="M69.5,294.9c0.8,0.2,1.7,0.4,2.5,0.7c0.6,0.2,1.2,0.4,1.8,0.6c0.2,0.1,0.5,0.2,0.7,0.4
							c0.2,0.1,0.1,0,0.1,0.1c0.8,1.8,3.4,0.2,2.6-1.5c-0.6-1.3-2.5-1.9-3.7-2.3c-1.1-0.4-2.2-0.7-3.3-0.9
							C68.4,291.6,67.6,294.5,69.5,294.9L69.5,294.9z"/>
					</g>
				</g>
				<g id="XMLID_1133_">
					<path class="st4" d="M117.5,295.9c0,0-5.2,2.5-6.7,4.9"/>
					<g>
						<path class="st2" d="M116.7,294.6c-2.7,1.3-5.6,3-7.3,5.5c-1.1,1.6,1.5,3.1,2.6,1.5c1.3-2,4-3.4,6.2-4.4
							C119.9,296.4,118.4,293.8,116.7,294.6L116.7,294.6z"/>
					</g>
				</g>
				<g id="XMLID_1132_">
					<path class="st4" d="M76.4,257.2c0,0,6.6-7,11.5,0"/>
					<g>
						<path class="st2" d="M77.5,258.3c2.7-2.8,6.5-3.8,9.1-0.3c1.1,1.5,3.7,0,2.6-1.5c-2.1-2.8-5-4.5-8.6-3.5
							c-1.9,0.6-3.8,1.8-5.2,3.2C74,257.6,76.1,259.7,77.5,258.3L77.5,258.3z"/>
					</g>
				</g>
				<g id="XMLID_1131_">
					<path class="st4" d="M99.3,257.2c0,0-6.6-7-11.5,0"/>
					<g>
						<path class="st2" d="M100.4,256.2c-1.4-1.5-3.3-2.7-5.2-3.2c-3.6-1-6.5,0.7-8.6,3.5c-1.2,1.6,1.4,3,2.6,1.5
							c2.6-3.5,6.4-2.5,9.1,0.3C99.6,259.7,101.7,257.6,100.4,256.2L100.4,256.2z"/>
					</g>
				</g>
				<g class="st0">
					<path class="st2" d="M78.5,271c0,0,2.4,11.7,11.7,4C99.5,267.4,76.4,263.8,78.5,271z"/>
					<g>
						<path class="st2" d="M77.1,271.4c0.5,2.3,1.7,4.8,3.6,6.3c3.7,2.9,8.6,0.5,11.5-2.5c2.2-2.3,2.3-5.3-0.3-7.3
							c-2.5-1.9-6.1-2.5-9.2-2.3C79.5,265.9,76.1,267.7,77.1,271.4c0.5,1.9,3.4,1.1,2.9-0.8c-0.8-3.2,10.4-2.5,10.9,0.8
							c0.2,1.3-1.7,2.6-2.6,3.2c-1.5,1.1-3.6,2.2-5.4,1.1c-1.6-1-2.5-3.2-2.9-5.1C79.6,268.7,76.7,269.5,77.1,271.4z"/>
					</g>
				</g>
				<g id="XMLID_1130_">
					<path class="st4" d="M95.8,268.4c-5.4-2.1-11.6,12.6-17.3-1.1c-3.9-9.3,11.1-6.4,21-3.6"/>
					<g>
						<path class="st2" d="M96.2,267c-6.1-1.7-11.1,9.5-15.5,1.5c-1.1-2-2.2-4.3,0.1-5.5c1.4-0.7,3.7-0.5,5.2-0.4
							c4.4,0.3,8.8,1.4,13,2.6c1.9,0.5,2.7-2.4,0.8-2.9c-4.6-1.3-24.2-7.3-23.4,2.9c0.3,3.8,3.5,9.4,7.8,9.5c4,0,7.5-5.9,11.1-4.9
							C97.2,270.4,98,267.5,96.2,267L96.2,267z"/>
					</g>
				</g>
			</g>
			<g>
				<g class="st3">
					<path class="st2" d="M197.7,206.9c-3.8,3.1-8.3,11.1-8.3,11.1l-1.7,24.5l0.3,7.2c0,0,0,0.4,0.1,1c0.3,2,1.3,6.3,4.9,8.2
						c2.7,1.5,4.7-5.9,5.7-16.6c1.7-7.7,3.1-17.7,3.8-27.4C203.1,205,200.6,204.5,197.7,206.9z"/>
					<g>
						<path class="st2" d="M196.6,205.9c-3.1,2.8-7,7.3-8.5,11.3c-0.7,2-0.5,4.4-0.7,6.5c-0.5,6.7-1.3,13.5-1.2,20.2
							c0.1,3.2,0,6.8,1,9.9c0.9,2.6,3.6,7.6,7,6.8c3.6-0.8,4.3-7.5,4.8-10.1c1.3-7.3,2.5-14.6,3.5-21.9
							C203.1,225,207.6,197.4,196.6,205.9c-1.5,1.2,0.6,3.3,2.1,2.1c3-2.3,2.3,4.5,2.3,6c-0.2,3.9-0.6,7.9-1.1,11.8
							c-0.9,7.2-2.3,14.3-3.3,21.4c-0.4,2.7-0.8,5.6-1.8,8.1c-0.8,2-1.1,2.7-2.8,1c-1.2-1.3-1.9-3.1-2.2-4.8c-0.6-2.8-0.6-6-0.6-8.8
							c0-5.9,0.8-11.8,1.2-17.7c0.1-2.1-0.1-4.8,0.5-6.9c-0.4,1.3,0.2,0,0.4-0.3c0.5-0.8,1-1.6,1.5-2.4c1.7-2.7,3.6-5.3,6-7.4
							C200.2,206.7,198,204.6,196.6,205.9z"/>
					</g>
				</g>
				<g>
					<path class="st4" d="M187.7,214.6l1,12c0,0,0.1,0.6,0.3,1.7c0.8,3.2,3.8,10.4,14.1,13.6c7.7,2.4,13.5-9.8,16.5-27.5
						c5-12.8,9-29.2,10.9-45.4c1.9-16.3-5.3-17.2-13.9-13.1c-10.9,5.2-24.1,18.3-24.1,18.3"/>
					<g>
						<path class="st2" d="M186.2,214.6c0.6,7.7,0.2,15.7,5.6,21.9c3.2,3.7,9.4,7.9,14.5,7c4.8-0.8,7.7-5.8,9.5-9.8
							c3.4-7.5,4.3-15.8,7-23.5c3.4-9.6,5.8-19.6,7.6-29.6c1.3-7.5,6.5-29.6-7.6-28.2c-6.7,0.7-13,5.5-18.1,9.4
							c-4.6,3.5-9,7.3-13.1,11.4c-1.4,1.4,0.7,3.5,2.1,2.1c6.5-6.5,13.9-12.9,22-17.2c3.1-1.7,8.8-4.6,11.9-1.3
							c4.3,4.6,1.1,16,0.3,21.1c-2.5,14.9-7.6,29-11.1,43.6c-1.3,5.6-3,12.1-6.9,16.5c-4.5,5-11.1,1.2-15-2.8
							c-5.5-5.5-4.9-13.4-5.5-20.6C189,212.6,186,212.6,186.2,214.6L186.2,214.6z"/>
					</g>
				</g>
				<g id="XMLID_1129_">
					<path class="st4" d="M206.2,176.1c0,0,16.9-19.6,18.9-9"/>
					<g>
						<path class="st2" d="M207.3,177.1c2.1-2.4,4.3-4.7,6.7-6.8c1.9-1.7,8.6-8,9.8-2.9c0.4,1.9,3.3,1.1,2.9-0.8
							c-2.7-11.9-18.2,4.5-21.5,8.3C203.9,176.5,206,178.6,207.3,177.1L207.3,177.1z"/>
					</g>
				</g>
				<g id="XMLID_1128_">
					<path class="st4" d="M198.8,190.3c0,0,21.2-2.5,16.5,8.9c-4.6,11.4-13,18.3-14.8,4.7"/>
					<g>
						<path class="st2" d="M198.8,191.8c4.2-0.5,11.3-1.1,14.6,2.1c3.2,3-1.4,9.3-3.3,11.9c-1,1.4-2.9,4.1-4.8,4.1
							c-2.6,0.1-3.1-4.6-3.3-6.4c-0.3-1.9-3.2-1.1-2.9,0.8c0.7,4.8,3.5,11.1,9.2,7.5c2.7-1.7,4.7-4.7,6.2-7.5
							c1.4-2.5,3.1-5.6,2.9-8.6c-0.6-7.9-13.1-7.6-18.7-6.9C196.9,189.1,196.9,192.1,198.8,191.8L198.8,191.8z"/>
					</g>
				</g>
				<g id="XMLID_1127_" class="st0">
					<path class="st2" d="M198.8,190.3c0,0,21.2-2.5,16.5,8.9c-4.6,11.4-13,18.3-14.8,4.7"/>
					<g>
						<path class="st2" d="M198.8,191.8c4.2-0.5,11.3-1.1,14.6,2.1c3.2,3-1.4,9.3-3.3,11.9c-1,1.4-2.9,4.1-4.8,4.1
							c-2.6,0.1-3.1-4.6-3.3-6.4c-0.3-1.9-3.2-1.1-2.9,0.8c0.7,4.8,3.5,11.1,9.2,7.5c2.7-1.7,4.7-4.7,6.2-7.5
							c1.4-2.5,3.1-5.6,2.9-8.6c-0.6-7.9-13.1-7.6-18.7-6.9C196.9,189.1,196.9,192.1,198.8,191.8L198.8,191.8z"/>
					</g>
				</g>
			</g>
			<g id="XMLID_1126_" class="st0">
				<path class="st2" d="M130.6,326.1c0,0,10.1,13.6-16.2,13.8s-41.7-9.6-34.9-18.3"/>
				<g>
					<path class="st2" d="M129.3,326.9c6.4,8.8-7,11.3-13.2,11.5c-5.4,0.2-45-2.6-35.3-16c1.1-1.6-1.5-3.1-2.6-1.5
						c-3.8,5.3-0.6,10.6,4.3,13.8c9.5,6.1,22.7,7.1,33.6,6.7c5.8-0.2,15.8-0.8,17.7-7.8c0.7-2.7-0.2-6-1.9-8.2
						C130.7,323.8,128.1,325.3,129.3,326.9L129.3,326.9z"/>
				</g>
			</g>
			<g>
				<g>
					<g id="XMLID_1125_">
						<path class="st4" d="M119.4,180.5c0,0,19.1,14.3,43.8,5.5"/>
						<g>
							<path class="st2" d="M118.7,181.8c12.6,9.3,30.4,10.5,44.9,5.7c1.8-0.6,1-3.5-0.8-2.9c-13.8,4.6-30.6,3.5-42.6-5.4
								C118.6,178.1,117.1,180.7,118.7,181.8L118.7,181.8z"/>
						</g>
					</g>
					<g id="XMLID_1124_">
						<path class="st4" d="M182,140.6c0,0,2,4.2-1.2,6.1"/>
						<g>
							<path class="st2" d="M180.7,141.4c-0.2-0.3,0,0,0.1,0.3c0.1,0.4,0.2,0.8,0.3,1.2c0.1,1.1-0.1,2-1.1,2.6
								c-1.6,1-0.1,3.6,1.5,2.6c2.9-1.8,3.1-5.3,1.8-8.1C182.5,138.1,179.9,139.6,180.7,141.4L180.7,141.4z"/>
						</g>
					</g>
					<g id="XMLID_1123_">
						<path class="st4" d="M170.7,183.6c0,0-0.9,3.8-2,5.1"/>
						<g>
							<path class="st2" d="M169.2,183.2c-0.4,1.6-0.8,3.4-1.9,4.8c-0.5,0.7-0.1,1.7,0.5,2.1c0.8,0.5,1.6,0.1,2.1-0.5
								c1.2-1.5,1.7-3.7,2.2-5.5C172.6,182.2,169.7,181.4,169.2,183.2L169.2,183.2z"/>
						</g>
					</g>
					<g id="XMLID_1122_">
						<path class="st4" d="M171.9,109c0,0,1.6-7.2,0-7.2"/>
						<g>
							<path class="st2" d="M173.4,109.4c0.5-2.3,2.2-8.6-1.4-9.1c-1.9-0.2-1.9,2.8,0,3c-1.7-0.2-0.7-0.7-0.8-0.3
								c-0.1,0.2,0,0.7,0,0.9c0,0.7-0.1,1.4-0.2,2c-0.1,0.9-0.3,1.8-0.5,2.6C170.1,110.5,173,111.3,173.4,109.4L173.4,109.4z"/>
						</g>
					</g>
					<g id="XMLID_1121_" class="st3">
						<path class="st2" d="M121.4,147.1c0,0-39.2,29.1,12.6,46S165.1,133.5,121.4,147.1z"/>
						<g>
							<path class="st2" d="M120.7,145.8c-6.1,4.6-11.9,11.1-14.1,18.5c-5,16.8,14.1,26.1,27.1,30.3c10.3,3.3,25.2,4.9,30.7-6.9
								c4.5-9.6,0.3-21.6-5.6-29.6c-8.9-11.9-23.4-16.7-37.6-12.5c-1.8,0.5-1.1,3.4,0.8,2.9c11.5-3.4,23.2-0.7,31.6,8
								c6.4,6.7,11.3,17,9.3,26.4c-2.4,11.2-14.1,12.2-23.5,10c-11.8-2.8-33.9-10.9-30.1-27c1.7-7,7.7-13.7,13-17.7
								C123.7,147.2,122.2,144.6,120.7,145.8z"/>
						</g>
					</g>
					<g id="XMLID_1120_">
						<path class="st6" d="M122,117.9c0,0-41.5,39,10,57.2S167.1,98.2,122,117.9z"/>
						<g>
							<path class="st2" d="M121,116.8c-7.2,6.8-13.6,16.1-15.6,25.8c-4,19.4,14.6,31.5,31.3,35.3c12,2.7,23.2-1.6,27.2-13.7
								c3.8-11.6,0.8-25.6-5.6-35.7c-8.3-13.2-22.5-18.1-37-12c-1.8,0.7-0.2,3.3,1.5,2.6c24.9-10.5,43.1,17.9,39.1,40.3
								c-1.9,10.9-9.9,17.6-21.2,16.2c-15.5-1.9-35.8-13.4-32.7-31.5c1.7-9.5,8-18.7,15-25.3C124.5,117.6,122.4,115.5,121,116.8z"/>
						</g>
					</g>
					<g id="XMLID_1119_">
						<path class="st2" d="M148.5,142.7c0,0,9.9-3.1,8.8,4.9C156.1,155.7,141.7,149.7,148.5,142.7z"/>
						<g>
							<path class="st2" d="M148.9,144.2c1.4-0.4,2.9-0.7,4.3-0.5c2.5,0.3,3.4,2.8,2.2,5c-1,1.9-3.8,1.5-5.3,0.6
								c-2.3-1.4-2.3-3.5-0.5-5.4c1.3-1.4-0.8-3.5-2.1-2.1c-2.1,2.2-3.1,5.3-1.2,8c1.5,2.2,4.4,3.4,7,3.3c6.5-0.4,7.8-10.6,1.3-12.1
								c-2.1-0.5-4.4-0.2-6.5,0.4C146.3,141.9,147.1,144.8,148.9,144.2z"/>
						</g>
					</g>
					<g id="XMLID_1118_">
						<path class="st4" d="M158,174c0.4,0.1,0.7,0.2,1.1,0.3c1.5,0.4,2.8,0.6,4.3-1.1c3.6-4.2-4.6-5.4-4.6-5.4l-9-0.7
							c0,0-19.2-1.4-30.5,1.8c0,0,16.7,9.5,27,8.9c1.2-0.1,2.3-0.3,3.3-0.7C150.5,176.7,156.3,173.5,158,174z"/>
						<g>
							<path class="st2" d="M157.6,175.5c2.6,0.8,5.1,1,7-1.3c1.2-1.5,1.6-3.2,0.6-4.9c-2-3.1-7.2-3-10.4-3.3
								c-11.9-0.9-24.3-1.6-35.9,1.4c-1.2,0.3-1.5,2.1-0.4,2.7c5.4,3.1,11.3,5.7,17.2,7.5c3.9,1.2,8.2,2.1,12.3,1.4
								c3.4-0.6,6.5-3.8,10-3.5c1.9,0.2,1.9-2.8,0-3c-2.9-0.2-5.5,1.7-8.1,2.7c-4.4,1.7-8.9,0.8-13.3-0.5
								c-5.7-1.7-11.3-4.2-16.5-7.2c-0.1,0.9-0.2,1.8-0.4,2.7c9.4-2.5,19.7-2.4,29.4-1.8c2.4,0.1,4.8,0.4,7.2,0.5
								c0.9,0.1,2.2,0.1,2.7,0.2c0.6,0.1,1.2,0.3,1.8,0.5c3.7,1.4,0.3,3.5-2.3,2.8C156.6,172,155.8,174.9,157.6,175.5z"/>
						</g>
					</g>
					<g>
						<g>
							<path class="st4" d="M122.7,131.8c0,0,51.9,5.3,37.5-4s-20.2-15.9-37.5-10.6C122.7,117.3,103.9,129.1,122.7,131.8z"/>
							<g>
								<path class="st2" d="M122.7,133.3c5.9,0.6,11.8,1,17.8,1.3c4.5,0.2,9,0.3,13.5,0.1c2.6-0.1,6-0.1,8.3-1.4
									c7.1-4.1-8.7-11.6-10.8-13c-8.6-5.5-21.5-9.8-30.9-3.3c-2.8,2-6.6,5-7.5,8.5c-1.2,5.5,5.2,7.1,9.3,7.8
									c1.9,0.3,2.7-2.6,0.8-2.9c-2.8-0.5-8.1-1-6.9-4.9c0.5-1.6,2.3-3,3.5-4.1c3.8-3.4,8.2-4.4,13.4-4.5c7-0.1,12.8,3.3,18.5,7.1
									c2.5,1.7,7,3.5,8.8,5.9c0.8,1.1,1,0.2,0.1,0.8c-2.2,1.5-6.8,1-9.3,1.1c-4.2,0.1-8.4-0.1-12.5-0.3
									c-5.4-0.3-10.7-0.7-16.1-1.2C120.7,130.1,120.7,133.1,122.7,133.3z"/>
							</g>
						</g>
					</g>
					<g id="XMLID_1117_" class="st0">
						<path class="st2" d="M128.2,95.7c0,0-24.2,2.8-6.9,19.8s50.7,0.6,48.8-5.5C168.3,104,165.2,93.9,128.2,95.7z"/>
						<g>
							<path class="st2" d="M128.2,94.2c-5.3,0.6-13,2.9-14.4,8.8c-1.2,5.2,3,10.3,6.5,13.6c4.7,4.5,10.7,7,17.1,7.7
								c10.4,1.1,24.4-1.8,32-9.5c4-4,1.4-9.5-2.1-13.1C158.1,92.4,140,93.7,128.2,94.2c-1.9,0.1-1.9,3.1,0,3
								c10.5-0.5,23.4-1.2,33.1,3.9c2.8,1.5,7.7,5.6,7.4,9.4c-0.2,2.6-4.5,4.7-6.5,5.8c-4.4,2.4-9.2,3.9-14.1,4.7
								c-11.3,1.9-26.5-1.5-31-13.6c-2.5-6.8,6.5-9.6,11.1-10.1C130.1,97,130.1,94,128.2,94.2z"/>
						</g>
					</g>
					<g id="XMLID_1116_">
						<path class="st2" d="M124.8,92.3c0,0-24.2,2.8-6.9,19.8s50.7,0.6,48.8-5.5C164.9,100.6,161.8,90.5,124.8,92.3z"/>
						<g>
							<path class="st2" d="M124.8,90.8c-5.3,0.6-13,2.9-14.4,8.8c-1.2,5.2,3,10.3,6.5,13.6c4.7,4.5,10.7,7,17.1,7.7
								c10.4,1.1,24.4-1.8,32-9.5c4-4,1.4-9.5-2.1-13.1C154.7,89,136.6,90.3,124.8,90.8c-1.9,0.1-1.9,3.1,0,3
								c10.5-0.5,23.4-1.2,33.1,3.9c2.8,1.5,7.7,5.6,7.4,9.4c-0.2,2.6-4.5,4.7-6.5,5.8c-4.4,2.4-9.2,3.9-14.1,4.7
								c-11.3,1.9-26.5-1.5-31-13.6c-2.5-6.8,6.5-9.6,11.1-10.1C126.7,93.6,126.7,90.6,124.8,90.8z"/>
						</g>
					</g>
				</g>
				<g>
					<g id="XMLID_1115_">
						<path class="st4" d="M72.6,181.2c0,0-30.8,6.6-37.4,3.8"/>
						<g>
							<path class="st2" d="M72.2,179.7c-5,1.1-10.1,2-15.2,2.8c-6.2,1-15.2,3.3-21.4,1c-1.8-0.7-2.6,2.2-0.8,2.9
								c6.2,2.3,14.6,0.3,20.9-0.6c5.8-0.9,11.6-1.9,17.3-3.1C74.9,182.2,74.1,179.3,72.2,179.7L72.2,179.7z"/>
						</g>
					</g>
					<g id="XMLID_1114_">
						<path class="st4" d="M52.6,84.8c0,0,6.7,0.9,6,2.1"/>
						<g>
							<path class="st2" d="M52.2,86.3c0.8,0.1,1.7,0.3,2.5,0.4c0.6,0.1,1.2,0.3,1.9,0.5c0.2,0.1,0.6,0.2,0.6,0.2
								c0.9,0.4-0.5,0.2,0.2-1.2c-0.8,1.7,1.8,3.3,2.6,1.5c1.5-3.4-4.9-4-6.9-4.3c-0.8-0.1-1.6,0.2-1.8,1
								C51,85.1,51.4,86.2,52.2,86.3L52.2,86.3z"/>
						</g>
					</g>
					<g id="XMLID_1113_">
						<path class="st4" d="M93.9,97.5c0,0,7.9-1.1,8.3-2.6"/>
						<g>
							<path class="st2" d="M94.3,98.9c1.5-0.2,3-0.5,4.5-0.9s4-0.9,4.7-2.5c0.8-1.8-1.8-3.3-2.6-1.5c-0.3,0.7-3.1,1.1-3.9,1.3
								c-1.2,0.3-2.3,0.5-3.5,0.6C91.6,96.3,92.4,99.2,94.3,98.9L94.3,98.9z"/>
						</g>
					</g>
					<g id="XMLID_1112_" class="st3">
						<path class="st2" d="M35.4,141.8c0,0,55.2-0.9,37.9,36.2S-9.3,165.4,35.4,141.8z"/>
						<g>
							<path class="st2" d="M35.4,143.3c13.5-0.2,38.5,3.1,39.7,20.5c0.8,12.1-7.9,25.3-20.6,26c-10.9,0.6-22.1-5.9-28.4-14.6
								c-3.3-4.6-5.4-10.4-4.3-16.1c1.5-7.5,7.9-12.5,14.3-16c1.7-0.9,0.2-3.5-1.5-2.6c-11.5,6.3-19.8,17.4-14.2,30.6
								c4.7,11.2,16.5,19.6,28.4,21.3c13.8,2.1,24-6.5,28-19.3c3.9-12.6-2-22.9-13.8-27.9c-8.5-3.6-18.3-5.1-27.6-5
								C33.5,140.4,33.5,143.4,35.4,143.3z"/>
						</g>
					</g>
					<g id="XMLID_1111_">
						<path class="st6" d="M39.4,110.9c0,0,57.9-5.2,37,44S-9.3,144.7,39.4,110.9z"/>
						<g>
							<path class="st2" d="M39.4,112.4c14.9-1.3,37.9,2.4,39.9,20.6c1.6,13.8-6.6,34.3-21,38.4c-12.1,3.4-24.5-4.9-30.5-15
								c-9.8-16.4-2.2-33.8,12.3-44.2c1.6-1.1,0.1-3.7-1.5-2.6c-13.6,9.7-22.5,25.2-16.5,41.9c4.5,12.3,16.2,23.2,29.8,23.7
								c17.3,0.6,26.9-17.2,29.8-32c2.5-13.3-2.6-24.8-15.3-30c-8.3-3.4-18.1-4.5-27.1-3.7C37.5,109.5,37.4,112.5,39.4,112.4z"/>
						</g>
					</g>
					<g id="XMLID_1110_">
						<path class="st2" d="M33.4,139c0,0,9.9-3.1,8.8,4.9S26.6,145.9,33.4,139z"/>
						<g>
							<path class="st2" d="M33.8,140.4c1.4-0.4,2.9-0.7,4.3-0.5c2.5,0.3,3.4,2.8,2.2,5c-1,1.9-3.8,1.5-5.3,0.6
								c-2.3-1.4-2.3-3.5-0.5-5.4c1.3-1.4-0.8-3.5-2.1-2.1c-2.1,2.2-3.1,5.3-1.2,8c1.5,2.2,4.4,3.4,7,3.3c6.5-0.4,7.8-10.6,1.3-12.1
								c-2.1-0.5-4.4-0.2-6.5,0.4C31.2,138.1,31.9,141,33.8,140.4z"/>
						</g>
					</g>
					<g id="XMLID_1109_">
						<path class="st4" d="M45.7,162c0,0,12-2.3,25.2,1.9c0,0-6.5,14.3-27.7,7.8c-6.9-2.1-8.4,1.8-12.2-2.3s4.9-5.4,4.9-5.4
							L45.7,162z"/>
						<g>
							<path class="st2" d="M46.1,163.5c8-1.5,16.6-0.4,24.4,1.9c-0.3-0.7-0.6-1.5-0.9-2.2c-4.9,10.4-17.7,9-26.8,6.9
								c-2.7-0.6-5.4,0.3-8-0.2s-4-2.4-1.4-3.8c0.8-0.4,1.7-0.5,2.6-0.7C39.3,164.7,42.7,164.1,46.1,163.5c1.9-0.4,1.1-3.3-0.8-2.9
								c-4.4,0.8-10.1,1-14.1,3.2c-6.4,3.5,0.2,9.2,5.1,8.9c9.3-0.5,17.6,4.4,26.9,0.2c3.6-1.6,7.3-4.6,9-8.3
								c0.4-0.9,0.1-1.9-0.9-2.2c-8.3-2.4-17.4-3.4-26-1.9C43.4,160.9,44.2,163.8,46.1,163.5z"/>
						</g>
					</g>
					<g id="XMLID_1108_">
						<path class="st4" d="M73.4,117.1c0,0,7.9-1.1,8.3-2.6"/>
						<g>
							<path class="st2" d="M73.8,118.6c1.5-0.2,3-0.5,4.5-0.9s4-0.9,4.7-2.5c0.8-1.8-1.8-3.3-2.6-1.5c-0.3,0.7-3.1,1.1-3.9,1.3
								c-1.2,0.3-2.3,0.5-3.5,0.6C71.1,115.9,72,118.8,73.8,118.6L73.8,118.6z"/>
						</g>
					</g>
					<g>
						<g>
							<path class="st4" d="M32.7,129.3c0,0-20.7,4.4-13.3-3s17.8-10.4,19.2-13.3s40-3.7,40.7,16.7
								C79.3,129.7,50.5,124.8,32.7,129.3z"/>
							<g>
								<path class="st2" d="M32.3,127.8c-2.2,0.5-4.5,0.8-6.7,1.1c-1.5,0.1-3,0.3-4.4,0.2c-2.7-0.1-1.7-0.6-0.1-2.2
									c4.2-4.3,9.9-6.7,15-9.8c2.1-1.3,3.3-3,5.1-3.6c5.9-1.8,13.8-0.5,19.6,0.9c7.9,1.9,16.6,6.1,17.2,15.2
									c0.6-0.5,1.3-1,1.9-1.4C64.4,125.7,47.6,124.3,32.3,127.8c-1.9,0.4-1.1,3.3,0.8,2.9c14.7-3.5,31.1-2.1,45.8,0.4
									c0.9,0.1,2-0.4,1.9-1.4c-1-16.1-21.2-20-34.3-19.7c-2.3,0.1-5.1,0-7.3,0.9s-3.7,2.9-5.8,4.1c-3.1,1.8-21,10-16.7,15.6
									c2.8,3.7,12.5,0.9,16.2,0.1C35,130.3,34.2,127.4,32.3,127.8z"/>
							</g>
						</g>
					</g>
					<g id="XMLID_1107_" class="st0">
						<path class="st2" d="M54.6,90.8c0,0-37.4-2.2-20.1,18.7s48-0.5,50.4-9.4C87.4,91.2,54.6,90.8,54.6,90.8z"/>
						<g>
							<path class="st2" d="M54.6,89.3c-6.5-0.4-13.8,0-19.8,2.6c-10.7,4.7-5.2,15.6,1.5,21.5c10.7,9.6,25.9,6.9,37.3,0.1
								c4.9-3,18.7-12.7,10.3-18.9c-4.4-3.3-11.1-3.9-16.4-4.5C63.2,89.7,58.9,89.4,54.6,89.3c-1.9,0-1.9,3,0,3
								c6.6,0.1,13.4,0.6,19.8,2c2.5,0.6,9.1,1.6,9.1,5.1c0.1,3.4-5.6,7.5-8,9.2c-9.2,6.8-22.6,11.4-33.4,5.4
								c-4.4-2.4-10.3-8-10.7-13.5c-0.2-3.6,3-5.4,6-6.5c5.4-1.8,11.5-2.1,17.1-1.8C56.5,92.4,56.5,89.4,54.6,89.3z"/>
						</g>
					</g>
					<g id="XMLID_1106_">
						<path class="st2" d="M51.2,87.4c0,0-37.4-2.2-20.1,18.7s48-0.5,50.4-9.4S51.2,87.4,51.2,87.4z"/>
						<g>
							<path class="st2" d="M51.2,85.9c-6.5-0.4-13.8,0-19.8,2.6c-10.7,4.7-5.2,15.6,1.5,21.5c10.7,9.6,25.9,6.9,37.3,0.1
								c4.9-3,18.7-12.7,10.3-18.9c-4.4-3.3-11.1-3.9-16.4-4.5C59.8,86.3,55.5,86,51.2,85.9c-1.9,0-1.9,3,0,3
								c6.6,0.1,13.4,0.6,19.8,2c2.5,0.6,9.1,1.6,9.1,5.1c0.1,3.4-5.6,7.5-8,9.2c-9.2,6.8-22.6,11.4-33.4,5.4
								c-4.4-2.4-10.3-8-10.7-13.5c-0.2-3.6,3-5.4,6-6.5c5.4-1.8,11.5-2.1,17.1-1.8C53.1,89,53.1,86,51.2,85.9z"/>
						</g>
					</g>
				</g>
			</g>
			<g id="XMLID_1105_">
				<path class="st4" d="M26.7,89.6c0,0,4.6,6.5,6.1,6.3"/>
				<g>
					<path class="st2" d="M25.5,90.4c0.9,1.3,1.9,2.5,2.9,3.7s2.7,3.4,4.5,3.3c1.9-0.1,1.9-3.1,0-3c-0.2,0,0.1,0,0.2,0.1
						c-0.1-0.1-0.2-0.1-0.3-0.2c-0.2-0.2-0.5-0.4-0.7-0.6c-0.7-0.6-1.3-1.3-1.9-2.1c-0.7-0.9-1.4-1.8-2.1-2.7
						C26.9,87.3,24.3,88.8,25.5,90.4L25.5,90.4z"/>
				</g>
			</g>
			<g id="XMLID_1104_">
				<path class="st4" d="M116.1,113.7c0,0,7.9-1.1,8.3-2.6"/>
				<g>
					<path class="st2" d="M116.5,115.1c1.5-0.2,3-0.5,4.5-0.9s4-0.9,4.7-2.5c0.8-1.8-1.8-3.3-2.6-1.5c-0.3,0.7-3.1,1.1-3.9,1.3
						c-1.2,0.3-2.3,0.5-3.5,0.6C113.8,112.5,114.6,115.4,116.5,115.1L116.5,115.1z"/>
				</g>
			</g>
			<g id="XMLID_1103_">
				<path class="st4" d="M70.9,92.3c0,0,7.9-1.1,8.3-2.6"/>
				<g>
					<path class="st2" d="M71.3,93.8c1.5-0.2,3-0.5,4.5-0.9s4-0.9,4.7-2.5c0.8-1.8-1.8-3.3-2.6-1.5c-0.3,0.7-3.1,1.1-3.9,1.3
						c-1.2,0.3-2.3,0.5-3.5,0.6C68.6,91.2,69.4,94.1,71.3,93.8L71.3,93.8z"/>
				</g>
			</g>
			<g id="XMLID_1102_">
				<path class="st4" d="M150.3,97.1c0,0-3.7-7.1-5.3-7"/>
				<g>
					<path class="st2" d="M151.6,96.3c-0.7-1.4-1.5-2.7-2.4-4c-1-1.5-2.2-3.6-4.2-3.7c-1.9-0.1-1.9,2.9,0,3c-0.4,0-0.2,0,0,0.2
						c0.2,0.3,0.5,0.5,0.7,0.8c0.6,0.7,1,1.5,1.5,2.2c0.6,1,1.2,2,1.7,3C149.9,99.6,152.4,98,151.6,96.3L151.6,96.3z"/>
				</g>
			</g>
			<g id="XMLID_1101_">
				<path class="st4" d="M153.3,111.7c0,0,5.9,5.3,7.4,4.7"/>
				<g>
					<path class="st2" d="M152.3,112.8c1.2,1.1,2.4,2,3.7,3c1.3,1,3.4,2.6,5.2,2.1c1.8-0.6,1.1-3.5-0.8-2.9c0.3-0.1,0.2,0.1-0.1-0.1
						c-0.3-0.2-0.6-0.3-0.9-0.5c-0.8-0.5-1.6-1-2.3-1.6c-0.9-0.7-1.8-1.4-2.6-2.2C153,109.4,150.8,111.5,152.3,112.8L152.3,112.8z"
						/>
				</g>
			</g>
			<g id="XMLID_1096_" class="st0">
				<g id="XMLID_1100_">
					<path class="st2" d="M69.5,244c0,0-39.1,5.1-17.3,19.2C73.9,277.3,69.5,244,69.5,244z"/>
					<g>
						<path class="st2" d="M69.5,242.5c-4.5,0.6-9.1,1.6-13.4,3c-4.3,1.4-11.7,4-12,9.5c-0.3,6.6,10,12.1,15.4,13
							c6.2,1,9.8-3.7,11-9.2c1.1-4.8,1.1-9.9,0.4-14.8c-0.2-1.9-3.3-1.9-3,0c0.7,5.5,1.9,19.1-5.2,21c-3.1,0.9-6.5-1-9.1-2.6
							c-2.2-1.4-6.4-3.8-6.7-6.9c-0.4-4.4,7.6-6.5,10.6-7.5c2.6-0.8,5.3-1.4,8-2c1-0.2,1.9-0.3,2.9-0.5c0.2,0,1.7-0.2,0.9-0.1
							C71.3,245.3,71.4,242.3,69.5,242.5z"/>
					</g>
				</g>
				<g id="XMLID_1099_">
					<path class="st2" d="M63.6,232.5c0,0-32.2-1.7-17.3,14.9s41.4-0.4,43.5-7.5C91.9,232.8,63.6,232.5,63.6,232.5z"/>
					<g>
						<path class="st2" d="M63.6,231c-5.7-0.3-12.3-0.1-17.6,2.3c-9.2,4.1-3.8,13.3,2.1,17.9c9.6,7.5,22.8,5.1,32.6-0.6
							c4.1-2.4,15.4-10.1,8.3-15.2C82.6,230.7,71.2,231.1,63.6,231c-1.9,0-1.9,3,0,3c7,0.1,15.3,0.2,21.9,2.9c2,0.9,3.2,1.5,2.3,3.7
							c-0.7,1.6-2.6,3.1-4,4.2c-4.7,3.8-10.6,6.6-16.5,7.7c-7.4,1.4-14.9-0.4-20-6.1c-2.9-3.2-5.4-7.5-0.6-10.1
							c4.8-2.6,11.6-2.5,16.9-2.3C65.5,234.1,65.5,231.1,63.6,231z"/>
					</g>
				</g>
				<g id="XMLID_1098_">
					<path class="st2" d="M119.5,240.8c0,0-15.7-5.3-13,14.6s29.9,16.5,31.5,10.7C139.6,260.4,142.3,250.9,119.5,240.8z"/>
					<g>
						<path class="st2" d="M119.9,239.3c-16.2-5.3-19,16.9-10.4,26.3c5.2,5.8,14,7.3,21.4,6c6-1.1,9-3.8,9.6-9.9
							c1.1-11.6-11.3-18.2-20.2-22.3c-1.7-0.8-3.3,1.8-1.5,2.6c8,3.6,20.1,9.6,18.7,20.2c-0.3,2.5-0.8,4.2-3.1,5.3
							c-3.2,1.6-7.3,1.8-10.8,1.4c-10.9-1.1-17.8-10.2-15.5-21.2c1.1-5.5,6.1-7.2,11.1-5.6C120.9,242.8,121.7,239.9,119.9,239.3z"/>
					</g>
				</g>
				<g id="XMLID_1097_">
					<path class="st2" d="M106.1,235.5c0,0-45.7-5.7-0.7,16.3S158.3,242.3,106.1,235.5z"/>
					<g>
						<path class="st2" d="M106.1,234c-5.3-0.7-10.9-1.1-16.2-0.3c-2.2,0.3-5.2,1-5.8,3.5c-0.7,3.4,3.7,6.2,6,7.8
							c7.1,4.9,15.1,8.8,23.1,11.9c6,2.3,12.4,4.2,18.8,4.2c5.8,0,14.4-3,11-10.4c-2-4.4-6.7-7.3-10.8-9.4c-8-4-16.9-5.9-25.8-7.1
							c-1.9-0.3-2.7,2.6-0.8,2.9c10.7,1.5,24.8,3.8,32.7,12.1c1.4,1.5,3.2,3.9,2.1,6c-1.2,2.4-4.9,2.8-7.2,2.9
							c-12.8,0.6-26.1-6.4-36.8-12.5c-2.3-1.3-4.7-2.7-6.7-4.4c-0.7-0.6-2.6-1.8-2.6-2.8c-0.1-1.2,2.6-1.5,3.8-1.6
							c5-0.6,10.2-0.2,15.1,0.5C108,237.2,108,234.2,106.1,234z"/>
					</g>
				</g>
			</g>
			<g id="XMLID_1085_">
				<g id="XMLID_1095_">
					<path class="st2" d="M66,240.6c0,0-39.1,5.1-17.3,19.2S66,240.6,66,240.6z"/>
					<g>
						<path class="st2" d="M66,239.1c-4.5,0.6-9.1,1.6-13.4,3c-4.3,1.4-11.7,4-12,9.5c-0.3,6.6,10,12.1,15.4,13
							c6.2,1,9.8-3.7,11-9.2c1.1-4.8,1.1-9.9,0.4-14.8c-0.2-1.9-3.3-1.9-3,0c0.7,5.5,1.9,19.1-5.2,21c-3.1,0.9-6.5-1-9.1-2.6
							c-2.2-1.4-6.4-3.8-6.7-6.9c-0.4-4.4,7.6-6.5,10.6-7.5c2.6-0.8,5.3-1.4,8-2c1-0.2,1.9-0.3,2.9-0.5c0.2,0,1.7-0.2,0.9-0.1
							C67.9,241.8,68,238.8,66,239.1z"/>
					</g>
				</g>
				<g id="XMLID_1094_">
					<path class="st2" d="M60.2,229c0,0-32.2-1.7-17.3,14.9s41.4-0.4,43.5-7.5C88.5,229.4,60.2,229,60.2,229z"/>
					<g>
						<path class="st2" d="M60.2,227.5c-5.7-0.3-12.3-0.1-17.6,2.3c-9.2,4.1-3.8,13.3,2.1,17.9c9.6,7.5,22.8,5.1,32.6-0.6
							c4.1-2.4,15.4-10.1,8.3-15.2C79.1,227.3,67.8,227.6,60.2,227.5c-1.9,0-1.9,3,0,3c7,0.1,15.3,0.2,21.9,2.9
							c2,0.9,3.2,1.5,2.3,3.7c-0.7,1.6-2.6,3.1-4,4.2c-4.7,3.8-10.6,6.6-16.5,7.7c-7.4,1.4-14.9-0.4-20-6.1
							c-2.9-3.2-5.4-7.5-0.6-10.1c4.8-2.6,11.6-2.5,16.9-2.3C62.1,230.6,62.1,227.6,60.2,227.5z"/>
					</g>
				</g>
				<g id="XMLID_1093_">
					<path class="st2" d="M124.6,237.3c0,0-15.7-5.3-13,14.6s29.9,16.5,31.5,10.7C144.8,257,147.4,247.5,124.6,237.3z"/>
					<g>
						<path class="st2" d="M125,235.9c-16.2-5.3-19,16.9-10.4,26.3c5.2,5.8,14,7.3,21.4,6c6-1.1,9-3.8,9.6-9.9
							c1.1-11.6-11.3-18.2-20.2-22.3c-1.7-0.8-3.3,1.8-1.5,2.6c8,3.6,20.1,9.6,18.7,20.2c-0.3,2.5-0.8,4.2-3.1,5.3
							c-3.2,1.6-7.3,1.8-10.8,1.4c-10.9-1.1-17.8-10.2-15.5-21.2c1.1-5.5,6.1-7.2,11.1-5.6C126.1,239.4,126.9,236.5,125,235.9z"/>
					</g>
				</g>
				<g id="XMLID_1092_">
					<path class="st2" d="M111.2,232.1c0,0-45.7-5.7-0.7,16.3S163.4,238.9,111.2,232.1z"/>
					<g>
						<path class="st2" d="M111.2,230.6c-5.3-0.7-10.9-1.1-16.2-0.3c-2.2,0.3-5.2,1-5.8,3.5c-0.7,3.4,3.7,6.2,6,7.8
							c7.1,4.9,15.1,8.8,23.1,11.9c6,2.3,12.4,4.2,18.8,4.2c5.8,0,14.4-3,11-10.4c-2-4.4-6.7-7.3-10.8-9.4c-8-4-16.9-5.9-25.8-7.1
							c-1.9-0.3-2.7,2.6-0.8,2.9c10.7,1.5,24.8,3.8,32.7,12.1c1.4,1.5,3.2,3.9,2.1,6c-1.2,2.4-4.9,2.8-7.2,2.9
							c-12.8,0.6-26.1-6.4-36.8-12.5c-2.3-1.3-4.7-2.7-6.7-4.4c-0.7-0.6-2.6-1.8-2.6-2.8c-0.1-1.2,2.6-1.5,3.8-1.6
							c5-0.6,10.2-0.2,15.1,0.5C113.1,233.8,113.1,230.8,111.2,230.6z"/>
					</g>
				</g>
				<g id="XMLID_1091_">
					<path class="st4" d="M138.3,244.3c0,0,7.9-1.1,8.3-2.6"/>
					<g>
						<path class="st2" d="M138.7,245.8c1.5-0.2,3-0.5,4.5-0.9s4-0.9,4.7-2.5c0.8-1.8-1.8-3.3-2.6-1.5c-0.3,0.7-3.1,1.1-3.9,1.3
							c-1.2,0.3-2.3,0.5-3.5,0.6C136,243.2,136.8,246.1,138.7,245.8L138.7,245.8z"/>
					</g>
				</g>
				<g id="XMLID_1090_">
					<path class="st4" d="M40.1,245.2c0,0,7.9-1.1,8.3-2.6"/>
					<g>
						<path class="st2" d="M40.5,246.6c1.5-0.2,3-0.5,4.5-0.9s4-0.9,4.7-2.5c0.8-1.8-1.8-3.3-2.6-1.5c-0.3,0.7-3.1,1.1-3.9,1.3
							c-1.2,0.3-2.3,0.5-3.5,0.6C37.8,244,38.7,246.9,40.5,246.6L40.5,246.6z"/>
					</g>
				</g>
				<g id="XMLID_1089_">
					<path class="st4" d="M80.9,232.2c0,0-5.1-6.1-6.7-5.7"/>
					<g>
						<path class="st2" d="M82,231.1c-1-1.2-2-2.3-3.2-3.4c-1.3-1.3-3-3-5-2.7c-1.9,0.3-1.1,3.2,0.8,2.9c-0.5,0.1-0.5-0.1-0.1,0.2
							c0.3,0.2,0.5,0.4,0.8,0.6c0.7,0.6,1.4,1.3,2.1,2c0.8,0.8,1.6,1.7,2.4,2.6C81.1,234.7,83.2,232.6,82,231.1L82,231.1z"/>
					</g>
				</g>
				<g id="XMLID_1088_">
					<path class="st4" d="M128.8,270.6c0,0-5.1-6.1-6.7-5.7"/>
					<g>
						<path class="st2" d="M129.8,269.5c-1-1.2-2-2.3-3.2-3.4c-1.3-1.3-3-3-5-2.7c-1.9,0.3-1.1,3.2,0.8,2.9
							c-0.5,0.1-0.5-0.1-0.1,0.2c0.3,0.2,0.5,0.4,0.8,0.6c0.7,0.6,1.4,1.3,2.1,2c0.8,0.8,1.6,1.7,2.4,2.6
							C129,273.1,131.1,271,129.8,269.5L129.8,269.5z"/>
					</g>
				</g>
				<g id="XMLID_1087_">
					<path class="st4" d="M54.8,256.8c0,0-7.3,3.2-7.3,4.8"/>
					<g>
						<path class="st2" d="M54,255.5c-1.4,0.6-2.8,1.3-4.2,2.1c-1.6,0.9-3.6,2-3.9,4c-0.2,1.9,2.8,1.9,3,0c-0.1,0.5-0.1,0.3,0.2,0.1
							c0.3-0.2,0.5-0.4,0.8-0.6c0.8-0.5,1.6-1,2.4-1.4c1-0.5,2.1-1.1,3.1-1.5C57.3,257.3,55.8,254.7,54,255.5L54,255.5z"/>
					</g>
				</g>
				<g id="XMLID_1086_">
					<path class="st4" d="M102.5,228.4c0,0-7,3.7-7,5.3"/>
					<g>
						<path class="st2" d="M101.7,227.1c-1.4,0.7-2.7,1.5-4,2.4c-1.5,1-3.6,2.3-3.7,4.2c-0.1,1.9,2.9,1.9,3,0c0,0.4,0,0.2,0.2,0
							c0.3-0.2,0.6-0.5,0.9-0.8c0.7-0.5,1.4-1,2.1-1.5c1-0.6,2-1.2,3-1.7C104.9,228.8,103.4,226.2,101.7,227.1L101.7,227.1z"/>
					</g>
				</g>
			</g>
		</g>
		<g>
			<g id="XMLID_1084_">
				<path class="st7" d="M152.3,2.3c0,0-14.9,12,2.7,18.6S168.2-3.4,152.3,2.3z"/>
				<g>
					<path class="st2" d="M151.3,1.3c-2.8,2.3-5.4,5.6-6.1,9.1c-1.4,6.8,5.5,11.1,11.2,12.5c10.7,2.6,13.9-9.2,9.3-16.9
						c-3-5-8.3-6.9-13.8-5.1c-1.8,0.6-1,3.5,0.8,2.9c4.7-1.6,8.9,0.3,11,4.9c1.5,3.2,2.1,8.8-1.4,11c-4.6,2.8-14.6-2.2-14.3-7.7
						c0.1-3.3,2.9-6.5,5.4-8.5C154.9,2.2,152.8,0.1,151.3,1.3z"/>
				</g>
			</g>
			<g>
				<g>
					<path class="st7" d="M69.4,28.2c0.2-0.4,0.4-0.8,0.6-1.1c0-0.1,0-0.1,0-0.1l0,0c0.5-0.8,1-1.6,1.5-2.5C78.2,14,86.6,9,93.6,7
						c5-2.3,9.7-4,14.3-5c2.3-0.5,4.6-0.9,6.8-1c1.4-0.1,4,0.3,7,1c3.1,0.7,6.7,1.7,9.9,2.8c4.3,1.4,8.2,3,9.9,4.2
						c1.3,1,15.9,7.7,18.7,7.1c1.7-0.4,3.3-0.6,4.9-0.8c2-0.2,6.2,0.3,10.7,1.2c3.4,0.7,7,1.6,10,2.5c2.9,0.9,5.4,1.8,6.5,2.6
						c1.9,1.3,3.7,2.7,5.4,4.3c3.5,3.1,6.8,7,9.9,11.5c5.1,5.2,9.9,13.8,10.6,26.2c0.1,1,0.1,2,0.1,2.9l0,0c0,0,0,0,0,0.1
						c0,0.5,0,0.9,0,1.3c5.2,11.3,0.1,34.5,0.1,34.5c-5.2,11.3-18.9-9.5-33.2-18.9c-4-2.7-11.6-4.6-20.3-5.9
						c-3.1,7.2-16.5,3.3-28.1-2.6c-13-0.6-26.6-4-25.7-11.7c-8.2-3.2-15.7-5.2-20.5-4.9c-17,1.2-39.1,12.4-38.2-0.2
						C52.3,58.2,59.3,35.5,69.4,28.2z"/>
					<g>
						<path class="st2" d="M70.7,29c0.2-0.4,0.5-0.8,0.7-1.2c-0.8,0.1-1.6,0.2-2.4,0.3l0,0c0.7,0.6,1.8,0.6,2.4-0.3
							c4.4-7.3,10.1-13.8,17.9-17.5c7.6-3.6,17-7.8,25.5-7.8c13.2-0.1,24.8,7.9,36.7,12.6c2.2,0.9,4.6,1.9,6.9,2.3
							c2.7,0.4,5.1-0.7,7.8-0.7c7.8-0.1,18.7,2.3,25.4,6.2c7.4,4.3,13.5,12.6,18.4,19.5c5,7.1,6.7,15.5,6.9,24c0,1,0.9,1.7,1.9,1.4
							l0,0c-0.6-0.5-1.3-1-1.9-1.4c-0.2,3.6,1.9,7.3,2.2,10.9c0.4,4.4,0.2,8.8-0.3,13.1c-0.3,3.5-0.1,14.9-6.1,13.4
							c-3.7-1-7.1-4.7-9.8-7.1c-3.7-3.4-7.2-6.8-11-10c-7.9-6.6-16.4-8.9-26.5-10.5c-0.6-0.1-1.4,0.1-1.7,0.7
							c-4.7,9-20.7-1.8-26.7-3.3c-5.9-1.5-24.8-0.2-24.4-10.2c0-0.7-0.5-1.2-1.1-1.4c-9.2-3.5-17.6-5.8-27.4-4.2
							c-8.3,1.4-17.6,5.7-26,4.9c-6.9-0.6-3.2-7.4-1.6-11.3c3.1-7.7,7-16.6,13.7-21.7c1.5-1.2,0-3.8-1.5-2.6
							c-7,5.3-11,13.7-14.3,21.6c-1.7,4-5.5,10.5-2.2,14.6c4.4,5.4,15.8,1.1,21.1-0.1c5.6-1.3,11.5-3,17.3-3.2
							c6.9-0.3,13.8,2.5,20.1,4.9c-0.4-0.5-0.7-1-1.1-1.4c-0.4,11.8,17.9,11.7,25.6,13.1c8.1,1.5,25,13.5,31.1,1.9
							c-0.6,0.2-1.1,0.5-1.7,0.7c6.5,1,13.7,2.1,19.5,5.5c5.1,3,9.4,7.5,13.8,11.5c4,3.7,12.1,13.4,18.6,10.7
							c4.6-2,4.5-8.7,5.1-12.8c0.6-4.8,1-9.7,0.8-14.6c-0.1-2.4-0.3-4.8-0.8-7.1c-0.4-1.8-1.5-3.9-1.4-5.7c0-1-1-1.7-1.9-1.4l0,0
							c0.6,0.5,1.3,1,1.9,1.4c-0.2-6.5-1.1-12.8-3.7-18.8c-2.4-5.7-6.4-10.1-10.1-14.9c-4-5.1-9.1-10.8-15.1-13.5
							c-6.8-3-14.8-4.7-22.2-5.4c-2.9-0.3-5.3,0.4-8.1,0.6c-2.3,0.2-4.3-0.6-6.5-1.4c-4-1.5-8-3.1-11.7-5.2
							C136.7,4.7,130,2.6,123.2,1c-6.7-1.6-12.6-1.1-19.2,0.9C89.1,6.3,77.2,13.1,69.1,26.6c0.8-0.1,1.6-0.2,2.4-0.3l0,0
							c-0.7-0.6-1.9-0.6-2.4,0.3c-0.2,0.4-0.4,0.8-0.7,1.2C67.1,29.2,69.7,30.7,70.7,29z"/>
					</g>
				</g>
			</g>
			<g class="st3">
				<path class="st2" d="M212.2,105.2c2.5,1.3,4.8,0.2,6.3-3c0,0,5.1-23.2-0.1-34.5c0-0.4,0-0.9,0-1.3c0-0.1,0-0.1,0-0.1l0,0
					c0-0.9,0-1.9-0.1-2.9c-0.7-12.4-5.5-21-10.6-26.2c-3.2-4.5-6.4-8.3-9.9-11.5c-1.8-1.6-3.6-3-5.4-4.3c-0.1,0-0.1-0.1-0.2-0.1
					c4.7,5.3,8.9,13.5,9.5,25c0.1,1,0.1,2,0.1,2.9l0,0c0,0,0,0,0,0.1c0,0.5,0,0.9,0,1.3c5.2,11.3,0.1,34.5,0.1,34.5
					S206.2,102.1,212.2,105.2z"/>
				<g>
					<path class="st2" d="M211.8,106.7c7.7,2.9,8.8-6.5,9.5-11.6c0.7-5,1.1-10.1,1-15.2c-0.1-2.4-0.3-4.8-0.7-7.1
						c-0.4-2-1.6-4.3-1.6-6.3c0-1.1-1-1.6-1.9-1.4l0,0c0.6,0.5,1.3,1,1.9,1.4c-0.2-9.2-2.2-18.4-7.7-26C207,33.2,200.8,25,193,20.3
						c-1.5-0.9-2.9,1.1-1.8,2.4c6.5,7.6,8.9,17,9.1,26.8c0,1,0.9,1.6,1.9,1.4l0,0c-0.6-0.5-1.3-1-1.9-1.4c-0.1,2.6,1.3,5.1,1.8,7.7
						c0.7,3.8,0.7,7.7,0.5,11.5c-0.2,5.4-1.7,10.7-2,16c-0.2,3,1.4,6.3,2.4,9c1.8,4.7,4,10.4,8.5,13.1c1.7,1,3.2-1.6,1.5-2.6
						c-4.9-2.9-7-10.4-8.6-15.5c-0.2-0.6-1.1-4.4-1.1-2.9c0-1.1,0.5-2.3,0.6-3.4c0.9-5.4,1.6-10.8,1.6-16.2c0-3.1-0.1-6.1-0.6-9.2
						c-0.4-2.4-1.8-5.1-1.8-7.5c0-1.1-1-1.6-1.9-1.4l0,0c0.6,0.5,1.3,1,1.9,1.4c-0.3-10.6-3-20.8-10-28.9c-0.6,0.8-1.2,1.6-1.8,2.4
						c7.3,4.5,13,12.1,18,18.8c5.4,7.2,7.3,16,7.5,24.8c0,1,0.9,1.6,1.9,1.4l0,0c-0.6-0.5-1.3-1-1.9-1.4c-0.1,3.1,1.6,6.2,2,9.3
						c0.5,4.1,0.4,8.3,0.1,12.4c-0.2,2.9-0.2,18.1-6.4,15.7C210.8,103.1,210,106,211.8,106.7z"/>
				</g>
			</g>
			<g id="XMLID_698_">
				<path class="st7" d="M39.4,81c0,0,44.6-16,95.8-2.5s77.4,26.7,77.4,26.7C198.6,47.6,98.6,42.9,48,44S10,65,10,65
					S17.2,74.7,39.4,81z"/>
				<g>
					<path class="st2" d="M39.8,82.5c51.7-18.4,107.8-2,156.6,17.4c5.2,2.1,10.4,4.2,15.5,6.7c1.2,0.6,2.5-0.4,2.2-1.7
						c-11-43.5-65.3-55.1-103.4-59.6c-21.9-2.6-44.2-3.5-66.2-2.5C34.2,43.2,6.7,44.3,7.2,60.4c0.1,2.3,0.8,4.5,2.2,6.3
						c6.7,8.6,19.7,13,29.6,15.9c1.9,0.5,2.6-2.3,0.8-2.9c-9.7-3-20.3-7-27.6-14.5c-1-1-1.6-1.8-1.9-3.8C7.6,45.9,39.9,45.8,48,45.6
						c39.6-1,82.5,0.8,119.5,16.3c19.9,8.3,38.1,22.1,43.6,43.8c0.7-0.6,1.5-1.1,2.2-1.7c-15.3-7.8-32.1-13.3-48.4-18.5
						c-18.1-5.7-36.4-11.3-55.4-13.1c-15.8-1.6-31.7-0.9-47.3,1.7c-7.8,1.3-15.7,2.9-23.1,5.5C37.2,80.2,38,83.1,39.8,82.5z"/>
				</g>
			</g>
			<g>
				<g>
					<path class="st7" d="M48.3,52.6c47.7-1,139,3.1,161.9,51.1c2.4,1.1,3.6,1.7,3.6,1.7C199.7,47.7,99.1,43,48.3,44.1
						C3.5,45,8,60.6,9.7,64.3C12.4,58.9,21.6,53.2,48.3,52.6z"/>
					<g>
						<path class="st2" d="M48.3,54.1c23.6-0.5,47.2,0.3,70.6,3.7c24,3.4,49.3,9.3,69.5,23.4c5.2,3.6,10,7.9,13.9,12.8
							c1.9,2.4,3.7,5,5.2,7.7c1.7,3,2.4,3.4,5.6,5c1.2,0.6,2.5-0.4,2.2-1.7c-9.2-35.9-49.2-49.9-81.6-56.3c-19.1-3.7-38.6-5.4-58-6
							c-8.4-0.3-16.7-0.3-25.1-0.2c-10.4,0.2-21.5,0.6-31.4,4.3C11.5,49.7,4.5,56.3,8.5,65c0.5,1,2.1,0.9,2.6,0
							c2.1-3.9,6.3-5.9,10.3-7.2C29.9,54.8,39.2,54.3,48.3,54.1c1.9,0,1.9-3,0-3c-9.8,0.3-20.3,0.8-29.5,4.4c-4.1,1.6-8.2,4-10.3,8
							c0.9,0,1.7,0,2.6,0c-3.6-7.9,5.3-12.7,11.5-14.7c16.5-5,35.4-3.6,52.5-3.1c34.8,1,72.8,4.5,104,21.2
							c15.7,8.4,28.8,21.2,33.4,38.9c0.7-0.6,1.5-1.1,2.2-1.7c-4.8-2.3-6.6-7.7-9.8-11.8c-3.3-4.1-7.1-7.8-11.3-11
							c-9.1-7.1-19.6-12.1-30.3-16c-24.2-8.7-50.4-12-76-13.5c-12.9-0.7-25.9-0.9-38.9-0.6C46.3,51.2,46.3,54.2,48.3,54.1z"/>
					</g>
				</g>
				<g class="st3">
					<path class="st2" d="M39.6,81.1c0,0,44.9-16,96.3-2.4c40.4,10.7,65.3,21.1,74.2,25.1c-22.9-48-114.2-52-161.9-51.1
						C21.5,53.2,12.3,59,9.6,64.3c0.2,0.5,0.4,0.8,0.4,0.8S17.3,74.7,39.6,81.1z"/>
					<g>
						<path class="st2" d="M40,82.5c16.2-5.7,34.2-7.7,51.3-7.8c31.9-0.2,62.8,9.6,92.6,20.2c8.6,3.1,17.2,6.3,25.5,10.1
							c1.4,0.6,2.7-0.6,2.1-2.1C195,69.2,151,59.1,117.2,54.5c-18.6-2.5-37.3-3.5-56-3.6c-10.4,0-20.9-0.1-31.2,1.6
							c-6.5,1.1-14,2.7-18.9,7.4c-3.4,3.3-3,5.3,0.1,8.3c7.7,7.2,18.1,11.3,28.1,14.2c1.9,0.5,2.6-2.3,0.8-2.9
							c-9.1-2.7-18.6-6.3-25.9-12.6c-0.9-0.8-2.3-1.8-2.9-2.9c0.1,0.3-0.4,0.6,0.4-0.3c0.9-0.9,1.6-1.8,2.5-2.6
							c6.1-4.7,15.2-5.8,22.6-6.5c8.7-0.8,17.6-0.8,26.4-0.7c35,0.2,71.9,2.8,104.6,16.2c16.8,6.9,32.8,17.5,41,34.2
							c0.7-0.7,1.4-1.4,2.1-2.1c-19.9-8.7-40.8-15.5-61.7-21.5c-16.9-4.8-33.7-8.5-51.3-9c-13.2-0.4-26.5,0.7-39.5,3.1
							c-6.5,1.2-13,2.6-19.2,4.8C37.4,80.3,38.2,83.2,40,82.5z"/>
					</g>
				</g>
				<g class="st3">
					<g class="st1">
						<path class="st2" d="M135.9,78.6c40.4,10.7,65.3,21.1,74.2,25.1c-5.6-11.7-15.3-20.8-27.4-27.9c-37.6-17-91.5-18.7-124.4-18.1
							C31.6,58.2,22.4,64,19.7,69.3c0.2,0.5,0.4,0.8,0.4,0.8s2.4,3.2,8.7,7.2c3.1,1.3,6.7,2.6,10.8,3.8
							C39.6,81.1,84.5,65.1,135.9,78.6z"/>
						<g>
							<path class="st2" d="M135.5,80.1c25,6.6,50.2,14.3,73.8,24.9c1.4,0.6,2.7-0.6,2.1-2.1c-5.6-11.3-14.6-20.1-25.2-26.8
								c-10.9-6.8-24.9-10-37.3-12.7c-25.6-5.6-52.1-7.3-78.2-7.4c-11.9,0-24-0.2-35.6,2.6C29.6,59.9,22,62.2,19,67.5
								c-3.1,5.4,9.4,11.2,13,12.5c2.9,1.1,5.9,2.7,8.9,2.1c2.3-0.4,4.5-1.4,6.8-2C76.3,72.9,106.9,72.7,135.5,80.1
								c1.9,0.5,2.7-2.4,0.8-2.9c-24.5-6.3-50.1-7.1-75.1-2.9c-6.5,1.1-12.9,2.5-19.2,4.4c-6.8,2.1-15.4-3.9-20-8.7
								c-1.1-1.1-0.7-0.5-0.6-0.7c0.3-0.7,1.2-1.5,1.7-2c2.6-2.5,6.2-3.8,9.5-4.9c10.6-3.2,21.9-3.2,32.8-3.3
								c24.2-0.2,48.6,1,72.5,5.3c13.2,2.3,26.4,5.6,38.9,10.6c13.7,5.5,25.4,16.3,32,29.5c0.7-0.7,1.4-1.4,2.1-2.1
								c-23.9-10.7-49.3-18.5-74.6-25.2C134.5,76.7,133.7,79.6,135.5,80.1z"/>
						</g>
					</g>
				</g>
			</g>
		</g>
	</g>
</g>
</svg>
