<?xml version="1.0" encoding="utf-8"?>
<!-- Generator: Adobe Illustrator 23.0.3, SVG Export Plug-In . SVG Version: 6.00 Build 0)  -->
<svg version="1.1" id="Layer_1" xmlns="http://www.w3.org/2000/svg" xmlns:xlink="http://www.w3.org/1999/xlink" x="0px" y="0px"
	 viewBox="0 0 208.9 311.1" style="enable-background:new 0 0 208.9 311.1;" xml:space="preserve">
<style type="text/css">
	.st0{opacity:0.1;}
	.st1{fill:#2C2C2C;}
	.st2{fill:#FFFFFF;}
</style>
<g id="Layer_5" class="st0">
</g>
<g id="Layer_3" class="st0">
</g>
<g>
	<path class="st1" d="M57.1,199.5c1.5-0.1,3-0.3,4.5-0.5c4.6,0.1,9.3,0,13.9-0.2c11.6-0.5,23.2-1.8,34.8-3.1
		c2.4-0.3,4.7-0.5,7.1-0.8c6.5,0,13.1-0.4,19.5-1.1c0.6,0,1.2,0.1,1.9,0.1c7.1,0.5,14.2,1.6,21.3,1.3c3.5-0.1,7-0.6,10.2-1.7
		c3.3-1.1,6.3-2.9,8.8-5.3c1.2-1.2,2.3-2.6,3.2-4.1c1.1-1.7,1.9-3.5,2.6-5.3c1.4-3.5,2.1-7.3,2.2-11c0-0.3,0-0.6,0-0.9
		c0-1.1-0.1-2.2-0.2-3.3c0,0,0,0,0,0c0.3-0.9,0.3-1.9,0.4-2.8c0-0.1,0-0.1,0-0.2c0-0.9-0.2-1.8-0.3-2.6c-0.1-0.6-0.2-1.1-0.3-1.6
		c-0.2-0.6-0.4-1.2-0.6-1.8c-0.5-1.1-0.9-2.3-1.5-3.4c-0.7-1.3-1.5-2.6-2.4-3.8c-1.3-1.7-2.6-3.4-4.2-4.8c-1.4-1.4-3-2.6-4.5-3.7
		c-1.6-1.1-3.3-1.9-5-2.7c-1.2-0.5-2.4-0.8-3.8-1c-1.9-0.3-3.9-0.5-5.8-0.7c-3.5-0.3-7-0.3-10.5-0.1c-3,0.2-5.9,0.6-8.8,1
		c-4.2-0.4-8.5-0.7-12.8-1c-2.4-0.1-4.8-0.2-7.2-0.3c-3.5-0.2-7-0.3-10.6-0.4c-0.6-0.1-1.1-0.2-1.7-0.3c-7.2-1.1-14.5-1.7-21.7-1.9
		c-14-0.5-28.1,0.6-41.9,2.8c-0.6,0.2-1.2,0.5-1.6,0.9c-0.1,0-0.1,0-0.2,0c-2.8-0.6-5.7-0.5-8.5-0.1c-3.4,0.5-6.8,1.8-9.9,3.3
		c-3.4,1.7-6.6,4-9.5,6.5c-1.4,1.2-2.8,2.5-4.1,3.9c-1.5,1.5-2.7,3.2-3.9,5c-1.9,2.8-3.1,6-3.8,9.3c-0.6,2.8-0.8,5.6-0.5,8.4
		c0.1,1.4,0.4,2.8,0.7,4.1c0.4,1.4,0.9,2.7,1.5,4c1,2.2,2.4,4.2,4,6c1.6,1.9,3.6,3.4,5.6,4.8c1.9,1.3,4.1,2.4,6.2,3.3
		c2.5,1.1,5,2,7.6,2.7c5.1,1.4,10.4,2.2,15.6,2.7C47.5,199.7,52.3,199.8,57.1,199.5z"/>
	<g>
		<path class="st1" d="M57.1,201c8.7-0.7,17.4-0.6,26.1-1.2c9-0.6,18-1.6,27-2.7c8.7-1,17.8-1.8,26.6-1.9c8.6-0.1,17.1,2.1,25.8,1.2
			c13.9-1.4,23.4-10.5,25.6-24.3c0.4-2.8,0.1-5.4,0.2-8.1c0-2.6,0.5-4.5-0.1-7.2c-1.4-6.2-5.6-12.1-10.3-16.2
			c-4.5-3.9-9.4-6.4-15.3-7.2c-4.2-0.5-8.4-0.7-12.7-0.6c-4.1,0.2-8.3,1.1-12.4,1c-8.4-0.3-16.8-1-25.2-1.4
			c-8.4-0.4-16.7-1.9-25.1-2.2c-8.6-0.4-17.2-0.2-25.7,0.5c-4.2,0.3-8.4,0.8-12.6,1.4c-2.5,0.3-6.2,1.4-7.8,1.6
			c-2.7,0.3-5.6-0.4-8.4,0.1c-3.8,0.6-7.5,2-11,3.9c-6.1,3.2-11.9,8-16,13.5c-8.7,11.7-8,28.5,3.4,38.1
			C21.9,199.9,41.3,201.9,57.1,201c1.9-0.1,1.9-3.1,0-3c-13.7,0.8-29.5-0.7-41.5-7.9C2.5,182.3-1,165.9,8,153.3
			c4-5.6,10-10.4,16.1-13.5c3.9-1.9,8.2-3.3,12.5-3.5c2.1-0.1,4.1,0.6,6,0.2c1.5-0.2,3.3-1.1,5.1-1.3c2.1-0.3,4.2-0.6,6.2-0.8
			c3.5-0.4,7-0.7,10.5-1c7.6-0.5,15.2-0.6,22.8-0.3c7.1,0.3,14.1,1.5,21.2,2.1c6.6,0.6,13.4,0.5,20,0.8c3,0.2,6.1,0.5,9.1,0.7
			c3.6,0.2,7.1-0.6,10.6-0.9c7.1-0.5,15.5-0.6,21.9,2.8c5.4,2.9,10.2,7.8,13,13.3c2.6,5,2.5,10.2,2.4,15.7
			c-0.2,6.8-2.7,14.5-7.6,19.3c-5.8,5.7-14.1,6.7-21.9,6.6c-8.5-0.1-16.6-1.6-25.1-0.9c-8.2,0.7-16.4,0.9-24.6,1.8
			c-8.4,0.9-16.7,1.8-25.1,2.4c-8.1,0.5-16.2,0.3-24.2,1C55.2,198.1,55.2,201.1,57.1,201z"/>
	</g>
</g>
<g>
	<path class="st1" d="M131.6,89.5c-1.5-0.1-3-0.3-4.5-0.5c-4.6,0.1-9.3,0-13.9-0.2C101.6,88.2,90,87,78.4,85.6
		c-2.4-0.3-4.7-0.5-7.1-0.8c-6.5,0-13.1-0.4-19.5-1.1c-0.6,0-1.2,0.1-1.9,0.1c-7.1,0.5-14.2,1.6-21.3,1.3c-3.5-0.1-7-0.6-10.2-1.7
		c-3.3-1.1-6.3-2.9-8.8-5.3c-1.2-1.2-2.3-2.6-3.2-4.1c-1.1-1.7-1.9-3.5-2.6-5.3c-1.4-3.5-2.1-7.3-2.2-11c0-0.3,0-0.6,0-0.9
		c0-1.1,0.1-2.2,0.2-3.3c0,0,0,0,0,0c-0.3-0.9-0.3-1.9-0.4-2.8c0-0.1,0-0.1,0-0.2c0-0.9,0.2-1.8,0.3-2.6c0.1-0.6,0.2-1.1,0.3-1.6
		c0.2-0.6,0.4-1.2,0.6-1.8c0.5-1.1,0.9-2.3,1.5-3.4c0.7-1.3,1.5-2.6,2.4-3.8c1.3-1.7,2.6-3.4,4.2-4.8c1.4-1.4,3-2.6,4.5-3.7
		c1.6-1.1,3.3-1.9,5-2.7c1.2-0.5,2.4-0.8,3.8-1c1.9-0.3,3.9-0.5,5.8-0.7c3.5-0.3,7-0.3,10.5-0.1c3,0.2,5.9,0.6,8.8,1
		c4.2-0.4,8.5-0.7,12.8-1c2.4-0.1,4.8-0.2,7.2-0.3c3.5-0.2,7-0.3,10.6-0.4c0.6-0.1,1.1-0.2,1.7-0.3c7.2-1.1,14.5-1.7,21.7-1.9
		c14-0.5,28.1,0.6,41.9,2.8c0.6,0.2,1.2,0.5,1.6,0.9c0.1,0,0.1,0,0.2,0c2.8-0.6,5.7-0.5,8.5-0.1c3.4,0.5,6.8,1.8,9.9,3.3
		c3.4,1.7,6.6,4,9.5,6.5c1.4,1.2,2.8,2.5,4.1,3.9c1.5,1.5,2.7,3.2,3.9,5c1.9,2.8,3.1,6,3.8,9.3c0.6,2.8,0.8,5.6,0.5,8.4
		c-0.1,1.4-0.4,2.8-0.7,4.1c-0.4,1.4-0.9,2.7-1.5,4c-1,2.2-2.4,4.2-4,6c-1.6,1.9-3.6,3.4-5.6,4.8c-1.9,1.3-4.1,2.4-6.2,3.3
		c-2.5,1.1-5,2-7.6,2.7c-5.1,1.4-10.4,2.2-15.6,2.7C141.2,89.7,136.4,89.8,131.6,89.5z"/>
	<g>
		<path class="st1" d="M131.6,88c-14.5-1.2-29-1.2-43.5-2.8c-14.5-1.5-29.4-3.7-43.9-2.4C29.1,84.2,11.7,85,5.2,68.3
			c-2-5.1-1.9-9.8-2-15.1C3,45.4,6,39.2,11.8,33.7c5.3-5,10.9-7.1,18.1-7.7C37,25.4,44,27.2,51,26.8c6.7-0.4,13.3-0.9,19.9-1.2
			c7.2-0.3,14.2-1.2,21.3-1.9c13.8-1.2,27.7-0.9,41.4,0.6c2.4,0.3,4.8,0.6,7.2,0.9c1.7,0.2,3.5,1.1,5.1,1.3c1.5,0.2,2.8-0.2,4.3-0.3
			c8.2-0.4,16,3.7,22.2,8.7c6.9,5.5,12.3,12.4,13.2,21.5c0.8,7.7-2.1,15.1-7.9,20.2C166,87.2,146.6,88.9,131.6,88
			c-1.9-0.1-1.9,2.9,0,3c23.8,1.5,65.8-7.7,55.9-40.6c-3.9-12.9-17.8-24-30.8-26.4c-2.8-0.5-5.6-0.5-8.4-0.4c-2.1,0.1-5.6-1-8.6-1.5
			c-8.3-1.1-16.6-1.8-25-2c-17-0.4-33.9,2.1-50.9,2.9c-4,0.2-7.9,0.6-11.8,0.8c-4.5,0.2-8.8-0.7-13.3-0.9
			c-6.7-0.3-14.3-0.2-20.4,2.7C7.6,30.4-0.4,41.6,0.2,53.3c0.3,6.5,0.4,12.1,3.2,18.2c2.7,5.8,7.1,10.3,13.1,12.7
			c8.1,3.3,17.3,2.5,25.8,1.8c10-0.9,20-0.4,30,0.4c9.8,0.8,19.5,2.3,29.3,3.1c10,0.8,20,0.6,30,1.5C133.5,91.1,133.5,88.1,131.6,88
			z"/>
	</g>
</g>
<g>
	<path class="st1" d="M131.6,309.5c-1.5-0.1-3-0.3-4.5-0.5c-4.6,0.1-9.3,0-13.9-0.2c-11.6-0.5-23.2-1.8-34.8-3.1
		c-2.4-0.3-4.7-0.5-7.1-0.8c-6.5,0-13.1-0.4-19.5-1.1c-0.6,0-1.2,0.1-1.9,0.1c-7.1,0.5-14.2,1.6-21.3,1.3c-3.5-0.1-7-0.6-10.2-1.7
		c-3.3-1.1-6.3-2.9-8.8-5.3c-1.2-1.2-2.3-2.6-3.2-4.1c-1.1-1.7-1.9-3.5-2.6-5.3c-1.4-3.5-2.1-7.3-2.2-11c0-0.3,0-0.6,0-0.9
		c0-1.1,0.1-2.2,0.2-3.3c0,0,0,0,0,0c-0.3-0.9-0.3-1.9-0.4-2.8c0-0.1,0-0.1,0-0.2c0-0.9,0.2-1.8,0.3-2.6c0.1-0.6,0.2-1.1,0.3-1.6
		c0.2-0.6,0.4-1.2,0.6-1.8c0.5-1.1,0.9-2.3,1.5-3.4c0.7-1.3,1.5-2.6,2.4-3.8c1.3-1.7,2.6-3.4,4.2-4.8c1.4-1.4,3-2.6,4.5-3.7
		c1.6-1.1,3.3-1.9,5-2.7c1.2-0.5,2.4-0.8,3.8-1c1.9-0.3,3.9-0.5,5.8-0.7c3.5-0.3,7-0.3,10.5-0.1c3,0.2,5.9,0.6,8.8,1
		c4.2-0.4,8.5-0.7,12.8-1c2.4-0.1,4.8-0.2,7.2-0.3c3.5-0.2,7-0.3,10.6-0.4c0.6-0.1,1.1-0.2,1.7-0.3c7.2-1.1,14.5-1.7,21.7-1.9
		c14-0.5,28.1,0.6,41.9,2.8c0.6,0.2,1.2,0.5,1.6,0.9c0.1,0,0.1,0,0.2,0c2.8-0.6,5.7-0.5,8.5-0.1c3.4,0.5,6.8,1.8,9.9,3.3
		c3.4,1.7,6.6,4,9.5,6.5c1.4,1.2,2.8,2.5,4.1,3.9c1.5,1.5,2.7,3.2,3.9,5c1.9,2.8,3.1,6,3.8,9.3c0.6,2.8,0.8,5.6,0.5,8.4
		c-0.1,1.4-0.4,2.8-0.7,4.1c-0.4,1.4-0.9,2.7-1.5,4c-1,2.2-2.4,4.2-4,6c-1.6,1.9-3.6,3.4-5.6,4.8c-1.9,1.3-4.1,2.4-6.2,3.3
		c-2.5,1.1-5,2-7.6,2.7c-5.1,1.4-10.4,2.2-15.6,2.7C141.2,309.7,136.4,309.8,131.6,309.5z"/>
	<g>
		<path class="st1" d="M131.6,308c-14.5-1.2-29-1.2-43.5-2.8c-14.5-1.5-29.4-3.7-43.9-2.4c-15.1,1.4-32.4,2.2-38.9-14.5
			c-2-5.1-1.9-9.8-2-15.1c-0.2-7.8,2.9-14,8.6-19.5c5.3-5,10.9-7.1,18.1-7.7c7.1-0.6,14.2,1.2,21.1,0.8c6.7-0.4,13.3-0.9,19.9-1.2
			c7.2-0.3,14.2-1.2,21.3-1.9c13.8-1.2,27.7-0.9,41.4,0.6c2.4,0.3,4.8,0.6,7.2,0.9c1.7,0.2,3.5,1.1,5.1,1.3c1.5,0.2,2.8-0.2,4.3-0.3
			c8.2-0.4,16,3.7,22.2,8.7c6.9,5.5,12.3,12.4,13.2,21.5c0.8,7.7-2.1,15.1-7.9,20.2C166,307.2,146.6,308.9,131.6,308
			c-1.9-0.1-1.9,2.9,0,3c23.8,1.5,65.8-7.7,55.9-40.6c-3.9-12.9-17.8-24-30.8-26.4c-2.8-0.5-5.6-0.5-8.4-0.4c-2.1,0.1-5.6-1-8.6-1.5
			c-8.3-1.1-16.6-1.8-25-2c-17-0.4-33.9,2.1-50.9,2.9c-4,0.2-7.9,0.6-11.8,0.8c-4.5,0.2-8.8-0.7-13.3-0.9
			c-6.7-0.3-14.3-0.2-20.4,2.7c-10.6,4.9-18.6,16.1-18,27.8c0.3,6.5,0.4,12.1,3.2,18.2c2.7,5.8,7.1,10.3,13.1,12.7
			c8.1,3.3,17.3,2.5,25.8,1.8c10-0.9,20-0.4,30,0.4c9.8,0.8,19.5,2.3,29.3,3.1c10,0.8,20,0.6,30,1.5
			C133.5,311.1,133.5,308.1,131.6,308z"/>
	</g>
</g>
<g>
	<path class="st2" d="M77.1,179.5c1.5-0.1,3-0.3,4.5-0.5c4.6,0.1,9.3,0,13.9-0.2c11.6-0.5,23.2-1.8,34.8-3.1
		c2.4-0.3,4.7-0.5,7.1-0.8c6.5,0,13.1-0.4,19.5-1.1c0.6,0,1.2,0.1,1.9,0.1c7.1,0.5,14.2,1.6,21.3,1.3c3.5-0.1,7-0.6,10.2-1.7
		c3.3-1.1,6.3-2.9,8.8-5.3c1.2-1.2,2.3-2.6,3.2-4.1c1.1-1.7,1.9-3.5,2.6-5.3c1.4-3.5,2.1-7.3,2.2-11c0-0.3,0-0.6,0-0.9
		c0-1.1-0.1-2.2-0.2-3.3c0,0,0,0,0,0c0.3-0.9,0.3-1.9,0.4-2.8c0-0.1,0-0.1,0-0.2c0-0.9-0.2-1.8-0.3-2.6c-0.1-0.6-0.2-1.1-0.3-1.6
		c-0.2-0.6-0.4-1.2-0.6-1.8c-0.5-1.1-0.9-2.3-1.5-3.4c-0.7-1.3-1.5-2.6-2.4-3.8c-1.3-1.7-2.6-3.4-4.2-4.8c-1.4-1.4-3-2.6-4.5-3.7
		c-1.6-1.1-3.3-1.9-5-2.7c-1.2-0.5-2.4-0.8-3.8-1c-1.9-0.3-3.9-0.5-5.8-0.7c-3.5-0.3-7-0.3-10.5-0.1c-3,0.2-5.9,0.6-8.8,1
		c-4.2-0.4-8.5-0.7-12.8-1c-2.4-0.1-4.8-0.2-7.2-0.3c-3.5-0.2-7-0.3-10.6-0.4c-0.6-0.1-1.1-0.2-1.7-0.3c-7.2-1.1-14.5-1.7-21.7-1.9
		c-14-0.5-28.1,0.6-41.9,2.8c-0.6,0.2-1.2,0.5-1.6,0.9c-0.1,0-0.1,0-0.2,0c-2.8-0.6-5.7-0.5-8.5-0.1c-3.4,0.5-6.8,1.8-9.9,3.3
		c-3.4,1.7-6.6,4-9.5,6.5c-1.4,1.2-2.8,2.5-4.1,3.9c-1.5,1.5-2.7,3.2-3.9,5c-1.9,2.8-3.1,6-3.8,9.3c-0.6,2.8-0.8,5.6-0.5,8.4
		c0.1,1.4,0.4,2.8,0.7,4.1c0.4,1.4,0.9,2.7,1.5,4c1,2.2,2.4,4.2,4,6c1.6,1.9,3.6,3.4,5.6,4.8c1.9,1.3,4.1,2.4,6.2,3.3
		c2.5,1.1,5,2,7.6,2.7c5.1,1.4,10.4,2.2,15.6,2.7C67.5,179.7,72.3,179.8,77.1,179.5z"/>
	<g>
		<path class="st1" d="M77.1,181c8.7-0.7,17.4-0.6,26.1-1.2c9-0.6,18-1.6,27-2.7c8.7-1,17.8-1.8,26.6-1.9c8.6-0.1,17.1,2.1,25.8,1.2
			c13.9-1.4,23.4-10.5,25.6-24.3c0.4-2.8,0.1-5.4,0.2-8.1c0-2.6,0.5-4.5-0.1-7.2c-1.4-6.2-5.6-12.1-10.3-16.2
			c-4.5-3.9-9.4-6.4-15.3-7.2c-4.2-0.5-8.4-0.7-12.7-0.6c-4.1,0.2-8.3,1.1-12.4,1c-8.4-0.3-16.8-1-25.2-1.4
			c-8.4-0.4-16.7-1.9-25.1-2.2c-8.6-0.4-17.2-0.2-25.7,0.5c-4.2,0.3-8.4,0.8-12.6,1.4c-2.5,0.3-6.2,1.4-7.8,1.6
			c-2.7,0.3-5.6-0.4-8.4,0.1c-3.8,0.6-7.5,2-11,3.9c-6.1,3.2-11.9,8-16,13.5c-8.7,11.7-8,28.5,3.4,38.1
			C41.9,179.9,61.3,181.9,77.1,181c1.9-0.1,1.9-3.1,0-3c-13.7,0.8-29.5-0.7-41.5-7.9c-13.1-7.9-16.6-24.2-7.6-36.8
			c4-5.6,10-10.4,16.1-13.5c3.9-1.9,8.2-3.3,12.5-3.5c2.1-0.1,4.1,0.6,6,0.2c1.5-0.2,3.3-1.1,5.1-1.3c2.1-0.3,4.2-0.6,6.2-0.8
			c3.5-0.4,7-0.7,10.5-1c7.6-0.5,15.2-0.6,22.8-0.3c7.1,0.3,14.1,1.5,21.2,2.1c6.6,0.6,13.4,0.5,20,0.8c3,0.2,6.1,0.5,9.1,0.7
			c3.6,0.2,7.1-0.6,10.6-0.9c7.1-0.5,15.5-0.6,21.9,2.8c5.4,2.9,10.2,7.8,13,13.3c2.6,5,2.5,10.2,2.4,15.7
			c-0.2,6.8-2.7,14.5-7.6,19.3c-5.8,5.7-14.1,6.7-21.9,6.6c-8.5-0.1-16.6-1.6-25.1-0.9c-8.2,0.7-16.4,0.9-24.6,1.8
			c-8.4,0.9-16.7,1.8-25.1,2.4c-8.1,0.5-16.2,0.3-24.2,1C75.2,178.1,75.2,181.1,77.1,181z"/>
	</g>
</g>
<g>
	<path class="st2" d="M151.6,69.5c-1.5-0.1-3-0.3-4.5-0.5c-4.6,0.1-9.3,0-13.9-0.2c-11.6-0.5-23.2-1.8-34.8-3.1
		c-2.4-0.3-4.7-0.5-7.1-0.8c-6.5,0-13.1-0.4-19.5-1.1c-0.6,0-1.2,0.1-1.9,0.1c-7.1,0.5-14.2,1.6-21.3,1.3c-3.5-0.1-7-0.6-10.2-1.7
		c-3.3-1.1-6.3-2.9-8.8-5.3c-1.2-1.2-2.3-2.6-3.2-4.1c-1.1-1.7-1.9-3.5-2.6-5.3c-1.4-3.5-2.1-7.3-2.2-11c0-0.3,0-0.6,0-0.9
		c0-1.1,0.1-2.2,0.2-3.3c0,0,0,0,0,0c-0.3-0.9-0.3-1.9-0.4-2.8c0-0.1,0-0.1,0-0.2c0-0.9,0.2-1.8,0.3-2.6c0.1-0.6,0.2-1.1,0.3-1.6
		c0.2-0.6,0.4-1.2,0.6-1.8c0.5-1.1,0.9-2.3,1.5-3.4c0.7-1.3,1.5-2.6,2.4-3.8c1.3-1.7,2.6-3.4,4.2-4.8c1.4-1.4,3-2.6,4.5-3.7
		c1.6-1.1,3.3-1.9,5-2.7c1.2-0.5,2.4-0.8,3.8-1c1.9-0.3,3.9-0.5,5.8-0.7c3.5-0.3,7-0.3,10.5-0.1c3,0.2,5.9,0.6,8.8,1
		c4.2-0.4,8.5-0.7,12.8-1c2.4-0.1,4.8-0.2,7.2-0.3c3.5-0.2,7-0.3,10.6-0.4c0.6-0.1,1.1-0.2,1.7-0.3c7.2-1.1,14.5-1.7,21.7-1.9
		c14-0.5,28.1,0.6,41.9,2.8c0.6,0.2,1.2,0.5,1.6,0.9c0.1,0,0.1,0,0.2,0c2.8-0.6,5.7-0.5,8.5-0.1c3.4,0.5,6.8,1.8,9.9,3.3
		c3.4,1.7,6.6,4,9.5,6.5c1.4,1.2,2.8,2.5,4.1,3.9c1.5,1.5,2.7,3.2,3.9,5c1.9,2.8,3.1,6,3.8,9.3c0.6,2.8,0.8,5.6,0.5,8.4
		c-0.1,1.4-0.4,2.8-0.7,4.1c-0.4,1.4-0.9,2.7-1.5,4c-1,2.2-2.4,4.2-4,6c-1.6,1.9-3.6,3.4-5.6,4.8c-1.9,1.3-4.1,2.4-6.2,3.3
		c-2.5,1.1-5,2-7.6,2.7c-5.1,1.4-10.4,2.2-15.6,2.7C161.2,69.7,156.4,69.8,151.6,69.5z"/>
	<g>
		<path class="st1" d="M151.6,68c-14.5-1.2-29-1.2-43.5-2.8c-14.5-1.5-29.4-3.7-43.9-2.4C49.1,64.2,31.7,65,25.2,48.3
			c-2-5.1-1.9-9.8-2-15.1c-0.2-7.8,2.9-14,8.6-19.5C37,8.6,42.7,6.6,49.9,6C57,5.4,64,7.2,71,6.8C77.7,6.3,84.3,5.9,91,5.6
			c7.2-0.3,14.2-1.2,21.3-1.9c13.8-1.2,27.7-0.9,41.4,0.6c2.4,0.3,4.8,0.6,7.2,0.9c1.7,0.2,3.5,1.1,5.1,1.3c1.5,0.2,2.8-0.2,4.3-0.3
			c8.2-0.4,16,3.7,22.2,8.7c6.9,5.5,12.3,12.4,13.2,21.5c0.8,7.7-2.1,15.1-7.9,20.2C186,67.2,166.6,68.9,151.6,68
			c-1.9-0.1-1.9,2.9,0,3c23.8,1.5,65.8-7.7,55.9-40.6c-3.9-12.9-17.8-24-30.8-26.4c-2.8-0.5-5.6-0.5-8.4-0.4c-2.1,0.1-5.6-1-8.6-1.5
			c-8.3-1.1-16.6-1.8-25-2c-17-0.4-33.9,2.1-50.9,2.9c-4,0.2-7.9,0.6-11.8,0.8C67.5,3.9,63.1,3,58.6,2.8C52,2.5,44.4,2.6,38.2,5.5
			c-10.6,4.9-18.6,16.1-18,27.8c0.3,6.5,0.4,12.1,3.2,18.2c2.7,5.8,7.1,10.3,13.1,12.7c8.1,3.3,17.3,2.5,25.8,1.8
			c10-0.9,20-0.4,30,0.4c9.8,0.8,19.5,2.3,29.3,3.1c10,0.8,20,0.6,30,1.5C153.5,71.1,153.5,68.1,151.6,68z"/>
	</g>
</g>
<g>
	<path class="st2" d="M151.6,289.5c-1.5-0.1-3-0.3-4.5-0.5c-4.6,0.1-9.3,0-13.9-0.2c-11.6-0.5-23.2-1.8-34.8-3.1
		c-2.4-0.3-4.7-0.5-7.1-0.8c-6.5,0-13.1-0.4-19.5-1.1c-0.6,0-1.2,0.1-1.9,0.1c-7.1,0.5-14.2,1.6-21.3,1.3c-3.5-0.1-7-0.6-10.2-1.7
		c-3.3-1.1-6.3-2.9-8.8-5.3c-1.2-1.2-2.3-2.6-3.2-4.1c-1.1-1.7-1.9-3.5-2.6-5.3c-1.4-3.5-2.1-7.3-2.2-11c0-0.3,0-0.6,0-0.9
		c0-1.1,0.1-2.2,0.2-3.3c0,0,0,0,0,0c-0.3-0.9-0.3-1.9-0.4-2.8c0-0.1,0-0.1,0-0.2c0-0.9,0.2-1.8,0.3-2.6c0.1-0.6,0.2-1.1,0.3-1.6
		c0.2-0.6,0.4-1.2,0.6-1.8c0.5-1.1,0.9-2.3,1.5-3.4c0.7-1.3,1.5-2.6,2.4-3.8c1.3-1.7,2.6-3.4,4.2-4.8c1.4-1.4,3-2.6,4.5-3.7
		c1.6-1.1,3.3-1.9,5-2.7c1.2-0.5,2.4-0.8,3.8-1c1.9-0.3,3.9-0.5,5.8-0.7c3.5-0.3,7-0.3,10.5-0.1c3,0.2,5.9,0.6,8.8,1
		c4.2-0.4,8.5-0.7,12.8-1c2.4-0.1,4.8-0.2,7.2-0.3c3.5-0.2,7-0.3,10.6-0.4c0.6-0.1,1.1-0.2,1.7-0.3c7.2-1.1,14.5-1.7,21.7-1.9
		c14-0.5,28.1,0.6,41.9,2.8c0.6,0.2,1.2,0.5,1.6,0.9c0.1,0,0.1,0,0.2,0c2.8-0.6,5.7-0.5,8.5-0.1c3.4,0.5,6.8,1.8,9.9,3.3
		c3.4,1.7,6.6,4,9.5,6.5c1.4,1.2,2.8,2.5,4.1,3.9c1.5,1.5,2.7,3.2,3.9,5c1.9,2.8,3.1,6,3.8,9.3c0.6,2.8,0.8,5.6,0.5,8.4
		c-0.1,1.4-0.4,2.8-0.7,4.1c-0.4,1.4-0.9,2.7-1.5,4c-1,2.2-2.4,4.2-4,6c-1.6,1.9-3.6,3.4-5.6,4.8c-1.9,1.3-4.1,2.4-6.2,3.3
		c-2.5,1.1-5,2-7.6,2.7c-5.1,1.4-10.4,2.2-15.6,2.7C161.2,289.7,156.4,289.8,151.6,289.5z"/>
	<g>
		<path class="st1" d="M151.6,288c-14.5-1.2-29-1.2-43.5-2.8c-14.5-1.5-29.4-3.7-43.9-2.4c-15.1,1.4-32.4,2.2-38.9-14.5
			c-2-5.1-1.9-9.8-2-15.1c-0.2-7.8,2.9-14,8.6-19.5c5.3-5,10.9-7.1,18.1-7.7c7.1-0.6,14.2,1.2,21.1,0.8c6.7-0.4,13.3-0.9,19.9-1.2
			c7.2-0.3,14.2-1.2,21.3-1.9c13.8-1.2,27.7-0.9,41.4,0.6c2.4,0.3,4.8,0.6,7.2,0.9c1.7,0.2,3.5,1.1,5.1,1.3c1.5,0.2,2.8-0.2,4.3-0.3
			c8.2-0.4,16,3.7,22.2,8.7c6.9,5.5,12.3,12.4,13.2,21.5c0.8,7.7-2.1,15.1-7.9,20.2C186,287.2,166.6,288.9,151.6,288
			c-1.9-0.1-1.9,2.9,0,3c23.8,1.5,65.8-7.7,55.9-40.6c-3.9-12.9-17.8-24-30.8-26.4c-2.8-0.5-5.6-0.5-8.4-0.4c-2.1,0.1-5.6-1-8.6-1.5
			c-8.3-1.1-16.6-1.8-25-2c-17-0.4-33.9,2.1-50.9,2.9c-4,0.2-7.9,0.6-11.8,0.8c-4.5,0.2-8.8-0.7-13.3-0.9
			c-6.7-0.3-14.3-0.2-20.4,2.7c-10.6,4.9-18.6,16.1-18,27.8c0.3,6.5,0.4,12.1,3.2,18.2c2.7,5.8,7.1,10.3,13.1,12.7
			c8.1,3.3,17.3,2.5,25.8,1.8c10-0.9,20-0.4,30,0.4c9.8,0.8,19.5,2.3,29.3,3.1c10,0.8,20,0.6,30,1.5
			C153.5,291.1,153.5,288.1,151.6,288z"/>
	</g>
</g>
</svg>
