<?xml version="1.0" encoding="utf-8"?>
<!-- Generator: Adobe Illustrator 23.0.3, SVG Export Plug-In . SVG Version: 6.00 Build 0)  -->
<svg version="1.1" id="Layer_1" xmlns="http://www.w3.org/2000/svg" xmlns:xlink="http://www.w3.org/1999/xlink" x="0px" y="0px"
	 viewBox="0 0 52.2 52.1" style="enable-background:new 0 0 52.2 52.1;" xml:space="preserve">
<style type="text/css">
	.st0{fill:#FFFFFF;}
	.st1{fill:#2C2C2C;}
</style>
<g>
	<path class="st0" d="M4.9,20.7c-0.1,0-0.1,0.1-0.2,0.1c-4.6,3.6-0.6,5.8,4.8,7.3c2,0.6,4.3,1,6.3,1.4c2.1,0.4,3.9,0.7,5,1
		c1.3,0.4,2,1.6,2.4,3.4c0.5,2.1,0.6,5,1.1,7.7c0.6,3.4,1.7,6.5,4.9,7.9c3.1,1.4,5.2-1.3,7-6.3c2.7-7,11.6-32.3,11.9-33.2
		c1.3-3.8,0.7-6.1-0.9-7.3c-0.9-0.7-2.2-1.1-3.7-1.2C42.2,1.5,13.2,14.3,4.9,20.7z"/>
	<g>
		<path class="st1" d="M4.1,19.4c-4,3-3.5,6.6,1,8.8c3.2,1.5,6.8,2.2,10.3,2.9c2.5,0.5,5.2,0.7,6.4,3.4c0.9,2,0.6,4.8,1,6.9
			c0.7,4.3,3.8,12,9.6,9.9c4.1-1.5,5.5-7.8,6.8-11.5c3.5-9.5,7.1-19,10.3-28.7c1.3-3.9,1.5-8.3-2.8-10.2c-3.3-1.4-5.9,0.1-8.9,1.4
			C26.4,7,14.1,12,4.1,19.4c-1.5,1.1,0,3.7,1.5,2.6c8.4-6.2,18.6-10.5,28-14.8c2.8-1.2,6.9-4,10-4.1c6.5-0.2,2.3,8.7,1.2,11.8
			c-3.3,9.3-6.4,18.8-10.1,28c-0.5,1.3-1.1,2.6-1.8,3.8c-1.8-0.2-3.7-0.3-5.5-0.5c-1.6-1.2-1.8-6.1-2-7.8c-0.3-2.5-0.2-5.7-2-7.7
			c-1.5-1.7-3.6-1.9-5.8-2.3c-2.1-0.4-4.2-0.8-6.2-1.3c-1.1-0.3-2.1-0.6-3.1-0.9C5.8,26,4.9,24.6,5.6,22C7.2,20.8,5.7,18.2,4.1,19.4
			z"/>
	</g>
</g>
<g>
	<path class="st0" d="M21.3,30.6c0,0,24.5-24.8,25-26.7"/>
	<g>
		<path class="st1" d="M22.3,31.6c4.2-4.3,8.5-8.7,12.7-13c2.8-2.9,5.6-5.9,8.4-8.9c1.4-1.5,3.4-3.2,4.2-5.1
			c0.8-1.8-1.8-3.3-2.6-1.5c-0.8,1.9-2.9,3.6-4.3,5.1c-2.8,3-5.7,6-8.5,9c-4,4.1-7.9,8.2-12,12.3C18.9,30.9,21,33,22.3,31.6
			L22.3,31.6z"/>
	</g>
</g>
</svg>
