<?xml version="1.0" encoding="utf-8"?>
<!-- Generator: Adobe Illustrator 22.1.0, SVG Export Plug-In . SVG Version: 6.00 Build 0)  -->
<svg version="1.1" id="Layer_1" xmlns="http://www.w3.org/2000/svg" xmlns:xlink="http://www.w3.org/1999/xlink" x="0px" y="0px"
	 viewBox="0 0 111.6 111.8" style="enable-background:new 0 0 111.6 111.8;" xml:space="preserve">
<style type="text/css">
	.st0{fill:#FFFFFF;stroke:#584C4F;stroke-width:4;stroke-linecap:round;stroke-miterlimit:10;}
</style>
<g id="Layer_5">
</g>
<g id="Layer_3">
</g>
<g>
	<path id="XMLID_2_" class="st0" d="M60.7,46c0,0-13.9-5.2-17.9,8s7.9,15.9,9.5,15.8c1.6-0.1,15.3-1.2,14.2-10
		C65.4,51,63.3,47.5,60.7,46z"/>
</g>
<g>
	<path id="XMLID_12_" class="st0" d="M60.7,86c0,0-13.9-5.2-17.9,8s7.9,15.9,9.5,15.8c1.6-0.1,15.3-1.2,14.2-10
		C65.4,91,63.3,87.5,60.7,86z"/>
</g>
<g>
	<path id="XMLID_18_" class="st0" d="M60.7,6c0,0-13.9-5.2-17.9,8s7.9,15.9,9.5,15.8c1.6-0.1,15.3-1.2,14.2-10
		C65.4,11,63.3,7.5,60.7,6z"/>
</g>
</svg>
