<?xml version="1.0" encoding="utf-8"?>
<!-- Generator: Adobe Illustrator 22.1.0, SVG Export Plug-In . SVG Version: 6.00 Build 0)  -->
<svg version="1.1" id="Layer_1" xmlns="http://www.w3.org/2000/svg" xmlns:xlink="http://www.w3.org/1999/xlink" x="0px" y="0px"
	 viewBox="0 0 1280 720" style="enable-background:new 0 0 1280 720;" xml:space="preserve">
<style type="text/css">
	.st0{opacity:0.1;}
</style>
<path class="st0" d="M715.2,404.4c0,0-2-3-10-2s-124.8,2.9-128.4,2.5s-9.6-0.5-10.6,1.5c0,0-0.1,0.1-0.2,0.2
	c-2.2,1.4-20.3,11.2-48.7,26.5C385.1,504.1,29.9,693.3,18.8,702.8c-13.6,11.6-19.4,13-4.5,12.8s1231.2,1.7,1241.5,3.2
	c10.3,1.6,31.6,3.3,7.5-7.1c-24.2-10.3-468.8-258.9-482.5-271.6S728.2,408.4,715.2,404.4z"/>
</svg>
