<?xml version="1.0" encoding="utf-8"?>
<!-- Generator: Adobe Illustrator 22.1.0, SVG Export Plug-In . SVG Version: 6.00 Build 0)  -->
<svg version="1.1" id="Layer_1" xmlns="http://www.w3.org/2000/svg" xmlns:xlink="http://www.w3.org/1999/xlink" x="0px" y="0px"
	 viewBox="0 0 247.1 271.1" style="enable-background:new 0 0 247.1 271.1;" xml:space="preserve">
<style type="text/css">
	.st0{fill:#80D0DF;}
</style>
<path class="st0" d="M-16.6,191.1c2.7-3.6,6.7-4.1,10.6-4c2,0.1,3-0.1,3.6-2.1c0.7-1.9,2.6-2.9,4.1-4.3c1.4-1.2,2.8-2.5,3.6-4
	c1.2-2.4,0.7-4.9-0.6-7.2c-2-3.4-4.8,0.3-8.6-1.1c6.2-1.8,7-6.3,4.9-9.8c-4.8-8-2.2-12.7,4.7-17.5c3.9-2.7,3.6-8.1,3.1-12.6
	c-0.5-4.7,0.2-8.9,3.6-12.3c2.6-2.6,3.9-5.6,4.7-9.1c0.9-3.9,4.2-3.7,7.2-3.2c7,1.2,14.4,1,20.8,5.2c2.6,1.8,6.1,1.7,8.4-1.6
	c0.5-0.8,1.5-1.4,2.4-1.6c11.5-2.8,11.5-2.8,17.8-7.7c1,2.3-1.1,4.4-0.6,7.1c1.8-0.9,3.8-2.4,5.2-1c1.4,1.4-0.1,3.4-0.4,5.2
	c-0.2,1.7-3.4,4.9,0.3,4.9c3.3,0,7.4,6.8,10.2-0.5c0.5-1.2,0.5-2.9,2.5-2.1c1.6,0.6,2.5,1.7,1.9,3.5c-0.7,2.1-0.1,3.5,1.5,4.8
	c1.6,1.1,3.1,3.7,5,2.3c1.5-1.1,3.8-2.9,2.8-5.6c-0.3-0.7-0.1-1.1,0.5-1.6c3.4-2.5,3.2-2.5,2.9-3.6c-1.2-4.6-3.2-8.2-8.9-6.5
	c-1.5,0.4-3,1.4-4.3,2.3c-5,3.5-4.7,2.6-8.1-2.2c-2.2-3.1-0.3-8.5-5.5-9.6c-0.3-0.1-0.5-1.6-0.3-2.3c1-4.1-0.8-8.5,1.1-12.6
	c0.2-0.4,0.1-1.4-0.1-1.4c-4.7-1.1-4.5-7.5-9.7-8.3c-5.1-0.7-8.2-3.3-6.6-9.3c0.5-1.8,0.4-3.7-2-5c-3.7-2-3.3-6.1,0.8-7.7
	c4.4-1.7,7.2-5.3,10.2-8.5c2.9-3.1,2.1-5.1-1.9-6.2c-1.3-0.3-2.9-0.3-2.7-2.2c0.2-1.7,1.6-1.3,2.7-1.1c1.3,0.2,1.9-0.4,2.1-1.5
	c0.2-1.2,1-2.1,2-1.6c7.9,3.5,10.1-6.2,16.3-7.2c1.1-0.2,3.2-4.7,0.5-7.4c-1.2-1.2-2-2.3-0.4-3.7c0.9-0.8,1.7-1.8,3-0.8
	c1.1,0.9,2.4,1.8,1.7,3.7c-0.5,1.3-1.6,3.1,0.3,3.9c1.4,0.5,2.9-0.6,3.8-1.8c1.6-2.2,3.3-1.5,5.5-1.1c4.5,0.9,9.2,1.8,13.8,0.9
	c2.2-0.4,3.4-0.1,3,2.3c-0.4,2.5,0.7,3.9,2.2,5.7c2.2,2.5,4.8,4.9,4.5,8.9c-0.1,1.2,0.4,3.4,2.4,3.2c3.7-0.4,6.9,3.4,10.8,0.9
	c1-0.7,2.3-0.1,2.6,1.5c0.2,1.2,0,2.6-1.5,2.7c-7.7,0.7-8.6,3.1-3.5,9.2c1.3,1.6-0.5,6.2-1.4,9.3c-0.8,3-0.7,5.2,2.5,6.4
	c0.6,0.2,1.4,0.6,1.6,1.2c2.6,7.2,9.9,6.7,15.2,9.3c1.3,1.5,3.6,2.2,3.8,4.6c-3.3,0.6-5.4-2.3-8.2-2.9c-1.4-0.3-3-1.2-4.1,0.3
	c-0.7,1,0.3,2.2,0.8,3.2c0.9,1.6,1.6,1.8,3.5,0.7c2.1-1.2,13.7,4.9,14.3,7.3c0.3,1.2,0,2.7-0.5,3.8c-3.4,7.3-6.8,14.6-12.4,20.8
	c-2.4,2.6-5.5,6-2.7,10.8c1.5,2.6-1.4,5.4-1.4,8.5c0,2-0.2,3.6,1,5.2c1.9,2.5,1.2,4.9-1.6,5.4c-6.3,1.1-3.5,4.3-1.7,6.8
	c2,2.8,4.9,4.8,0.3,7.9c-1.7,1.1-0.3,2.6,1.5,3c2.6,0.5,5.3,0.6,7.2,3.2c-2.5,1.1-4.6,0.1-6.7-0.5c-4.4-1.3-7.9,0.8-8.7,5.2
	c-0.2,1-0.1,1.5,0.9,1.8c5.3,1.6,2.7,4.6,0.8,6.9c-2.7,3.2-2.6,5.8,0.9,8c1.4,0.9,3.1,1.3,4.5,2.2c2.3,1.4,4.8,3,4.6,6.1
	s-2.6,4.9-5.5,5.7c-0.5,0.1-0.9,0.1-1.4,0.2c-0.4,0.1-1,0.1-1.1,0.3c-0.2,0.9,0.5,0.8,1,0.9c0.5,0,0.9,0,1.4-0.1
	c3.3,3.7,7.8,5.4,12.3,7.2c1.1,0.4,2.4,0.8,1.9,2.4c-0.4,1.2-1.4,1.9-2.8,1.6c-7.1-1.6-15-1.6-17.8-10.9c-0.8-2.6-4.1-2.5-5.5,0.1
	c-1.7,3.3-5.7,5.8-4.6,10.5c0.2,0.8-0.5,2-1.1,2.7c-2.2,2.2-1.5,4,1,6c-4.6-3.4-6.4-0.9-8.1,2.7c-0.9,1.9-2,4.1-3.7,5.3
	c-5.5,3.9-6,10.5-7.7,15.9c-1.3,3.9,1,9.1,2.7,13.5c0.1,0.3,0.3,0.6,0.5,0.8c5.8,8.6,5.8,8.7-1.4,15.9c-0.4,0.4-1.6,0.7-1.6,1
	c0.5,6.4-4.3,6.9-8.6,7.8c-1.9,0.4-0.4,2.4-1.3,2.6c-2.6,0.8-3.7,5.7-7.8,2.7c-1.3-1-4.2-1.7-4.9-1.3c-8.2,4.4-19.4,1.8-25.7,11.1
	c-3.6,5.3-10.1,5.6-15.3,1.8c-6.4-4.7-7.7-4.5-14.2-0.1c-3.1,2.1-5.7,4.8-9.4,6.2c-5.5,2.1-9.5,0.2-9.5-5.5c0-5.5-2.4-6.1-7-5.7
	c-9.3,0.8-9.8,1.1-11.3,10.6c-0.2,1.2-0.2,2.3-1.8,2.5c-3.1,0.4-9.3-3-10.3-6.2c-0.5-1.4-1.3-2.4-2.5-2.9c-3.3-1.3-7.5-0.9-8.5-6.1
	c-0.2-1.1-4.4-0.4-6.6,0.1c-7.5,1.7-12.4-2.1-16.9-7.3c-1.9-2.2-2.3-6.1-6.6-5.7c-0.8,0.1-1.7-1.2-1.1-1.8c2.7-2.4,0.8-5.3,0.9-8
	c0.4-7.1,7-14.6,15.1-17.2c2.6-0.8,7.2-0.1,6.7-4.1c-0.3-2.1-4.3-3.4-7.4-3.3c-0.8,0-1.8,0.3-2.1-0.7c-0.2-0.9,0.4-1.8,1.3-1.8
	c2.2,0,1.2-5.9,5.1-2.6c0.6,0.5,1.7,1,1.3,1.8c-2.3,4.9,2.5,2.4,3.9,4.7c0.4-2.3-1.9-3.3,0.1-5.2c3.2-3.2,0.9-8.6,3.6-12.4
	c0.2-0.2,0-0.6,0-0.9c-5.4,1.7-2-4.7-5.1-5.6c-1.2-0.3-2.9-2.1-1.5-4c1.2-1.7,2.9-1.4,4.5-0.4c2.5,1.6,4.2,0.8,5.1-1.7
	c1-2.5-3.4-3.1-2.3-6c0.9-2.3,4.1-0.2,5.1-3.6c0.8-3,5.6-4.5,5.9-8.7c-2-1.2-5,0.6-6.5-2.1c0.9-1,1.7-1.9,2.6-2.9l0,0
	c0.9,0.8,2.2,2.6,2.7,2.4C-16.3,194.6-16.3,192.8-16.6,191.1z"/>
<path class="st0" d="M148.2-43.2c2.4-1.5,4.8-4.9,8.7-1.9c3.1,2.4,2.7,9.7-0.5,13.1c-1.3,1.4-8.6,2-9.8,0.8
	C143.8-34.1,144.3-38.9,148.2-43.2z"/>
<path class="st0" d="M185.9,12.8c2.2,2.4,3.2,4.5,1,6.5c-2.1,1.8-4.6,4-7.3,1.1c-1.9-2-2.6-4.7-0.2-7.1
	C181.6,11,184,11.3,185.9,12.8z"/>
<path class="st0" d="M203.4,317.1c-7-1.3-12.1-6-18.3-8.5c-1.7-0.7-4.2-2.5-2.9-4.4c1.2-1.7,3.6-0.3,5,1.3c3.3,3.9,7.9,5.8,12.2,8.1
	C200.9,314.4,202,315.9,203.4,317.1z"/>
<path class="st0" d="M92.1,344.6c3.3,0.8,11.6,9.9,11.8,12.7c0.1,0.6-0.2,1.3-0.6,1.7c-0.5,0.6-1.3,0.4-1.7-0.2
	C98.4,354.3,93.7,350.7,92.1,344.6z"/>
<path class="st0" d="M167.4,146c2.6-2.5,4.7-3.5,7.2-1.4c1.8,1.6,2.1,3.4,0.4,5.2c-1.9,2-4.3,2.6-6.7,0.7
	C166.5,149,166,147.2,167.4,146z"/>
<path class="st0" d="M-20.7,192.9c-0.9,1-1.7,1.9-2.6,2.9c-2.3-1.9-2.2,0.7-3,1.6c-1.1,1.4-2.1,3.5-4.2,2.4
	c-2.4-1.2-1.4-3.4-0.6-5.2c0.8-1.9,2.4-4.1,4.4-2.3C-24.5,194.2-22.6,192.3-20.7,192.9z"/>
<path class="st0" d="M161.5,79.4c-0.2-2.4-2.5-3.1-3.8-4.6c1.5-0.2,1.6-0.9,1.3-2.3c-0.4-1.7,0.9-2.8,2.5-3.1
	c1.1-0.2,2.4,0.1,3.1,1.1c0.9,1.4,0.9,3.7-0.4,3.9C160.7,75.1,165.5,79.6,161.5,79.4z"/>
<path class="st0" d="M151.3,183c-1-2-0.7-3.6,0.7-4.8c1.5-1.3,3.5-0.8,4.6,0.3c1.5,1.6,0.5,3.5-0.9,4.8C154,185,152.7,183,151.3,183
	z"/>
<path class="st0" d="M169.8,249.4c5.6,2.3,7.6,6.3,9.3,10.5C176.1,256.8,171.3,255.5,169.8,249.4z"/>
<path class="st0" d="M156.1,239.8c-3.5-1-6.5-2.7-7.3-7C153,233.7,154.8,236.4,156.1,239.8z"/>
<path class="st0" d="M150.9-61.6c1.1-1,2.4-2.9,4-1.5c1.8,1.5,0.3,3.4-0.8,4.7c-1,1.2-2.5,2.7-4.1,1.2
	C148.5-58.6,149.9-60.2,150.9-61.6z"/>
<path class="st0" d="M-51.4,232.7c1.4-1.4,2.9-1.6,4.4-0.3c1.3,1.1,1.6,2.7,0.6,4c-1.1,1.4-2.8,1.8-4.4,0.6
	C-52.3,235.8-52.5,234.3-51.4,232.7z"/>
<path class="st0" d="M-43.5,213.8c-1.8,1.1-3.5,1-4.7-0.3c-1.3-1.4-1.1-3.2,0-4.5c1.2-1.3,2.8-0.7,3.9,0.4
	C-43,210.7-42.9,212.3-43.5,213.8z"/>
<path class="st0" d="M140.1-1.5c-1.2-1.4-1-3,0.2-4c1.4-1.2,3.1-1,4.4,0.4c1.1,1.1,0.8,2.4-0.2,3.5C143,0.1,141.5-0.8,140.1-1.5z"/>
<path class="st0" d="M-70.3,223c1.3-0.4,2.5-1.1,3.7,0.1c1,1.1,1.3,2.3,0.1,3.5c-1,1-2.4,1.5-3.5,0.5
	C-71.4,225.9-70.8,224.4-70.3,223z"/>
<path class="st0" d="M6.1,316c-0.8-1.9-0.8-3.7,0.6-5.2c0.8-0.9,2.3-1.4,3-0.4c1.4,1.9,0.3,3.8-1.2,5.3C7.9,316.4,7,317.1,6.1,316z"
	/>
<path class="st0" d="M186.7,57.9c-1-1.1-1.3-2.3-0.1-3.4c1.6-1.5,2.7-0.1,3.8,0.8c1,0.8,1.6,1.9,0.4,2.9
	C189.5,59.2,188,59.1,186.7,57.9z"/>
<path class="st0" d="M150.9,213.3c0.9-0.9,2-0.8,2.9,0.2c1.3,1.5,1.2,3-0.2,4.3c-1,0.9-2.1,0.9-2.7-0.5
	C150.3,216,149.1,214.7,150.9,213.3z"/>
<path class="st0" d="M77.5,14.6c-1,1.2-2.1,1.5-3.3,0.3c-0.9-0.9-2.2-2-0.9-3.3c1-1.1,2.7-1.5,4-0.5C78.4,12.1,78.6,13.4,77.5,14.6z
	"/>
<path class="st0" d="M141.5-22.8c-0.9-1.2-0.4-2.3,0.5-3.3c0.8-0.9,1.7-1.6,2.8-0.5s1.1,2.3,0.1,3.4
	C144.1-22.2,142.9-21.6,141.5-22.8z"/>
<path class="st0" d="M128.9,19.1c-0.9-0.8-1.8-1.8-0.9-2.6c1.1-1.1,2.7-1.1,3.9,0.1c0.8,0.7,0.9,1.8,0.2,2.7
	C130.9,20.7,129.8,19.8,128.9,19.1z"/>
<path class="st0" d="M158.8,58c-0.7-0.9-0.6-1.8,0.1-2.6c0.8-1,2-1.3,3-0.7c1.3,0.8,0.8,2.2,0,3S159.9,58.6,158.8,58z"/>
<path class="st0" d="M-16.6,191.1c0.3,1.7,0.3,3.5-1.4,4.1c-0.5,0.2-1.8-1.5-2.7-2.4C-19.3,192.3-17.9,191.7-16.6,191.1z"/>
<path class="st0" d="M146.8,198.9c0.5-0.1,0.9-0.1,1.4-0.2c0,0.4,0,0.8,0,1.2c-0.5,0-0.9,0-1.4,0.1
	C146.8,199.7,146.8,199.3,146.8,198.9z"/>
<path class="st0" d="M146.8,200.1c-0.5-0.1-1.3,0-1-0.9c0-0.2,0.7-0.2,1.1-0.3C146.8,199.3,146.8,199.7,146.8,200.1z"/>
</svg>
