<?xml version="1.0" encoding="utf-8"?>
<!-- Generator: Adobe Illustrator 22.1.0, SVG Export Plug-In . SVG Version: 6.00 Build 0)  -->
<svg version="1.1" id="Layer_1" xmlns="http://www.w3.org/2000/svg" xmlns:xlink="http://www.w3.org/1999/xlink" x="0px" y="0px"
	 viewBox="0 0 100 100" style="enable-background:new 0 0 100 100;" xml:space="preserve">
<style type="text/css">
	.st0{fill:none;}
	.st1{opacity:0.1;enable-background:new    ;}
	.st2{fill:#231F20;stroke:#231F20;stroke-miterlimit:10;}
	.st3{fill:none;stroke:#231F20;stroke-miterlimit:10;}
	.st4{fill:#FFD767;stroke:#584C4F;stroke-width:2;stroke-miterlimit:10;}
	.st5{fill:#FFFAF2;stroke:#584C4F;stroke-width:2;stroke-miterlimit:10;}
	.st6{fill:none;stroke:#584C4F;stroke-width:2;stroke-miterlimit:10;}
</style>
<rect x="1" y="1" class="st0" width="100" height="100"/>
<g>
	<g class="st1">
		<g>
			<path class="st2" d="M52.6,76.1c7.8,9.7,19,5,19-5.8c0-1.8-0.2-7.3-0.1-8.4c0.6-4.8-1.1-10.8-6.6-17.6c0,0-15.5-33.8-33.7-3.4
				c-7.7,12.8-10.4,20.6-10.1,25.4c0.1,1.4,0,7.8,0,9.4c0.1,7.1,6.4,8,13.6,8.4C46.8,84.7,41.8,62.3,52.6,76.1z"/>
			<g id="XMLID_9_">
				<path id="XMLID_10_" class="st2" d="M52.7,65.8c-10.9-13.6-6,8.7-18,8S13.2,71,31.4,40.7S65,44.2,65,44.2
					C81.5,64.6,63.6,79.5,52.7,65.8z"/>
			</g>
		</g>
		<line id="XMLID_8_" class="st3" x1="67.6" y1="56.5" x2="66.1" y2="53.4"/>
		<path id="XMLID_7_" class="st2" d="M65.2,77.8c0.9-0.3,1.6-5.1,1.6-5.1"/>
		<path id="XMLID_6_" class="st2" d="M46.5,68.4c0.8-0.5,0.6-2.9,0.6-2.9"/>
	</g>
	<g>
		<g>
			<path class="st4" d="M52.6,70.6c7.8,9.7,19,5,19-5.8c0-1.8-0.2-7.3-0.1-8.4c0.6-4.8-1.1-10.8-6.6-17.6c0,0-15.4-33.8-33.7-3.4
				c-7.7,12.8-10.4,20.6-10.1,25.4c0.1,1.4,0,7.8,0,9.4c0.1,7.1,6.4,8,13.6,8.4C46.9,79.1,41.8,56.7,52.6,70.6z"/>
			<g id="XMLID_4_">
				<path id="XMLID_5_" class="st5" d="M52.8,60.2c-10.9-13.6-6,8.7-18,8s-21.6-2.8-3.3-33.1s33.7,3.4,33.7,3.4
					C81.5,59,63.7,74,52.8,60.2z"/>
			</g>
		</g>
		<line id="XMLID_3_" class="st6" x1="67.6" y1="50.9" x2="66.2" y2="47.8"/>
		<path id="XMLID_2_" class="st5" d="M65.3,72.3c0.9-0.3,1.6-5.1,1.6-5.1"/>
		<path id="XMLID_1_" class="st5" d="M46.6,62.9c0.8-0.5,0.6-2.9,0.6-2.9"/>
	</g>
</g>
</svg>
