<?xml version="1.0" encoding="utf-8"?>
<!-- Generator: Adobe Illustrator 22.1.0, SVG Export Plug-In . SVG Version: 6.00 Build 0)  -->
<svg version="1.1" id="Layer_1" xmlns="http://www.w3.org/2000/svg" xmlns:xlink="http://www.w3.org/1999/xlink" x="0px" y="0px"
	 viewBox="0 0 270.5 50.6" style="enable-background:new 0 0 270.5 50.6;" xml:space="preserve">
<style type="text/css">
	.st0{fill:#5D5B4C;}
	.st1{fill:#FFF5EB;stroke:#5C5B4B;stroke-linecap:round;stroke-miterlimit:10;}
	.st2{fill:#828073;stroke:#5D5B4C;stroke-miterlimit:10;}
</style>
<g>
	<path class="st0" d="M270.4,25.6c-0.4-6.8-5-14.3-12.4-14.8c-1.6-0.1-75.7,0.1-77,0c-1.7-0.1-78.6,0.1-80,0
		c-1.9-0.1-74.8,0.2-81.1,1.4c-0.8,0.2-3.1,1.5-4.4,2.9c-1.7,2-4,5.1-4.6,8.5c-0.1,0.4-0.2,14.1-0.1,14.5
		c-0.3,4.2,2.3,8.6,11.5,11.6c6.1,2,238.3,0.1,239.9,0c5.1-0.3,7.6-3.8,8.1-8.2C270.6,38.7,270.5,28.2,270.4,25.6z"/>
	<g>
		<path class="st1" d="M260.1,15.4c-0.4-6.8-5-14.3-12.4-14.8c-1-0.1-30.5,0-52.7,0v39.4c32.5-0.2,56.4-0.4,56.9-0.4
			c5.1-0.3,7.6-3.8,8.1-8.2C260.4,28.4,260.2,18,260.1,15.4z"/>
		<path class="st2" d="M170.8,0.5c-1.7-0.1-78.6,0.1-80,0C88.8,0.4,16,0.7,9.6,2C8.8,2.1,6.5,3.4,5.2,4.9c-1.7,2-4,5.1-4.6,8.5
			c-0.1,0.4-0.2,14.1-0.1,14.5C0.2,32.1,2.8,36.5,12,39.4c4.2,1.3,113.4,0.9,183,0.5V0.5C181.8,0.6,171.2,0.6,170.8,0.5z"/>
	</g>
</g>
</svg>
