<?xml version="1.0" encoding="utf-8"?>
<!-- Generator: Adobe Illustrator 22.1.0, SVG Export Plug-In . SVG Version: 6.00 Build 0)  -->
<svg version="1.1" id="Layer_1" xmlns="http://www.w3.org/2000/svg" xmlns:xlink="http://www.w3.org/1999/xlink" x="0px" y="0px"
	 viewBox="0 0 2227.8 1015.6" style="enable-background:new 0 0 2227.8 1015.6;" xml:space="preserve">
<style type="text/css">
	.st0{opacity:0.1;}
	.st1{fill:#231F20;stroke:#231F20;stroke-miterlimit:10;}
	.st2{fill:#A36B78;stroke:#584C4F;stroke-width:4;stroke-linecap:round;stroke-miterlimit:10;}
	.st3{fill:#B66C7E;stroke:#584C4F;stroke-width:4;stroke-miterlimit:10;}
	.st4{fill:#FFFAF2;stroke:#584C4F;stroke-width:2;stroke-miterlimit:10;}
</style>
<g id="Layer_5">
</g>
<g id="Layer_3">
</g>
<g>
	<g class="st0">
		<path id="XMLID_6257_" class="st1" d="M2184.9,2283.6c-14.6-312.3-27.4-695.9-37.5-895.2c-18.3-361.1,10.3-891.5,10.3-891.5
			L2006,509.8c0,0,31,936.7,0,1133.4c-22.2,141,16.8,663.1,29.2,967.5"/>
		<path class="st1" d="M2149.8,520.5c18.2-19.8,33.7-53.5,33.7-111c0-26.7,4.2-67.6,2.7-72.9c-2.5-8.9-0.1-58.2-4.9-76.6
			c5.6-2.2,9.5-6.3,8.3-10.7c-3.1-10.9,1.2-81.3-9.1-83.5s-20.6-4.4-21.6,0.5c0,0-9.2,67.9-2.4,85.6c-0.5,0.4-0.9,0.9-1,1.6
			c0,0-5.3,39.3-4.9,65.9c-9.3-5.6-20.2-8.4-32.3-9.5c-0.4-12.8,18.7-75.9,15.2-95.7c3.8-1.6,6.2-4.3,5.9-7.8
			c-0.8-13.9,24.7-95.3,12.2-101.7c-12.5-6.3-25-12.7-27.7-7.3c0,0-31.8,78.2-27.4,100.7c0.7,3.4,2.2,6.2,4.1,8.5
			c-7,17.8-29,76.4-25.3,95.3c0.7,3.4-17.8,7.1-18.5,4.9c-4.1-12.7-1.3-86-10.5-106.3c3.5-2.8,5.3-6.3,4.1-10
			c-4.7-14.5-0.3-108.2-15.2-111.3c-14.9-3.2-29.8-6.3-31.2,0.1c0,0-11.8,92.1-1,114.6c1.6,3.4,4,5.9,6.7,7.9
			c-2.4,21.1-9.4,89.3-0.3,108.3c1.2,2.5-3.3,6.5-7.2,6.5c-5.1,0-14.3-0.7-14.8-1.7c-6-11.4-17.2-82.6-29-100.1
			c2.5-3.4,3.5-7.1,1.7-10.4c-6.8-13-20.4-104-34.1-104c-13.6,0-27.3,0-27.3,6.5c0,0,6.8,91,20.4,110.6c2,2.9,4.6,4.9,7.3,6.2
			c1.8,20.8,8.5,87.9,19.9,104.3c3.2,4.6-0.9,39.7-0.9,58.4c-16.9-22.4-39.6-53.4-48.2-49.8c-12.6,5.2-25.2,10.3-23,15.6
			c0,0,35.7,69.6,54.9,81.3c-0.2,0.7-0.3,1.5,0,2.2c0,0,36.5,71.1,55.6,81.7c1.3,0.7,2.5,1.2,3.8,1.6c13.1,16.6,27,26.2,40.4,31.4"
			/>
		<path class="st1" d="M2142.9,527.3c2.3-2,4.6-4.3,6.9-6.7"/>
		<path id="XMLID_6256_" class="st1" d="M2125.2,593.7c0,0,122.2-82.2,0-88.4"/>
		<path class="st1" d="M2005.7,108.4c0,0-5.1-15.2,5.1-15.2s20.3-5.1,20.3,10.2s-10.2,15.2-10.2,15.2S2010.8,123.7,2005.7,108.4z"/>
		<path class="st1" d="M1906.1,132.8c0,0-5.1-15.2,5.1-15.2s20.3-5.1,20.3,10.2s-10.2,15.2-10.2,15.2S1911.2,148.1,1906.1,132.8z"/>
		<path class="st1" d="M2166.4,197.9c0,0-5.1-15.2,5.1-15.2s20.3-5.1,20.3,10.2c0,15.2-10.2,15.2-10.2,15.2
			S2171.4,213.1,2166.4,197.9z"/>
		<path class="st1" d="M2117.1,128c0,0-6.1-18.3,6.1-18.3c12.2,0,24.5-6.1,24.5,12.2s-12.2,18.3-12.2,18.3S2123.2,146.3,2117.1,128z
			"/>
		<path class="st1" d="M1873.7,360.7c0,0-5-15.1,5-15.1c10.1,0,20.1-5,20.1,10.1s-10.1,15.1-10.1,15.1S1878.7,375.8,1873.7,360.7z"
			/>
		<path id="XMLID_6255_" class="st1" d="M2137,344.5c0,0,18.9,31.6,22.1,1.2"/>
		<path id="XMLID_6254_" class="st1" d="M2085.9,346.4c0,0,18.9,31.6,22.1,1.2"/>
		<path id="XMLID_6253_" class="st1" d="M2031.3,344.5c0,0,18.9,31.6,22.1,1.2"/>
		<path id="XMLID_6252_" class="st1" d="M1980.2,346.4c0,0,18.9,31.6,22.1,1.2"/>
		<path id="XMLID_6251_" class="st1" d="M1929.4,409.6c0,0-30.2,57,18.3,34.1"/>
		<path id="XMLID_6250_" class="st1" d="M1947.6,244.9c3.7,0.9,7-1.9,8.1-13.1"/>
		<path id="XMLID_6249_" class="st1" d="M2023.5,222.5c3.7-1.5,8.2-3.6,13.6-6.4"/>
		<path id="XMLID_6248_" class="st1" d="M2126.6,223.7"/>
		<path id="XMLID_6247_" class="st1" d="M2118.4,236.8c2.8,0.7,5.3-0.7,6.9-6.1"/>
		<path id="XMLID_6246_" class="st1" d="M2173.2,263.2"/>
		<path id="XMLID_6245_" class="st1" d="M2167.2,271.8c2.9,0.8,6.2,1.2,7.6-0.4"/>
	</g>
	<g>
		<path id="XMLID_6244_" class="st2" d="M2163.6,2261.6c-14.6-312.3-27.4-695.9-37.5-895.2c-18.3-361.1,10.3-891.5,10.3-891.5
			l-151.7,12.9c0,0,31,936.7,0,1133.4c-22.2,141,16.8,663.1,29.2,967.5"/>
		<path class="st2" d="M2128.5,498.5c18.2-19.8,33.7-53.5,33.7-111c0-26.7,4.2-67.6,2.7-72.9c-2.5-8.9-0.1-58.2-4.9-76.6
			c5.6-2.2,9.5-6.3,8.3-10.7c-3.1-10.9,1.2-81.3-9.1-83.5s-20.6-4.4-21.6,0.5c0,0-9.2,67.9-2.4,85.6c-0.5,0.4-0.9,0.9-1,1.6
			c0,0-5.3,39.3-4.9,65.9c-9.3-5.6-20.2-8.4-32.3-9.5c-0.4-12.8,18.7-75.9,15.2-95.7c3.8-1.6,6.2-4.3,5.9-7.8
			c-0.8-13.9,24.7-95.3,12.2-101.7c-12.5-6.3-25-12.7-27.7-7.3c0,0-31.8,78.2-27.4,100.7c0.7,3.4,2.2,6.2,4.1,8.5
			c-7,17.8-29,76.4-25.3,95.3c0.7,3.4-17.8,7.1-18.5,4.9c-4.1-12.7-1.3-86-10.5-106.3c3.5-2.8,5.3-6.3,4.1-10
			c-4.7-14.5-0.3-108.2-15.2-111.3c-14.9-3.2-29.8-6.3-31.2,0.1c0,0-11.8,92.1-1,114.6c1.6,3.4,4,5.9,6.7,7.9
			c-2.4,21.1-9.4,89.3-0.3,108.3c1.2,2.5-3.3,6.5-7.2,6.5c-5.1,0-14.3-0.7-14.8-1.7c-6-11.4-17.2-82.6-29-100.1
			c2.5-3.4,3.5-7.1,1.7-10.4c-6.8-13-20.4-104-34.1-104c-13.6,0-27.3,0-27.3,6.5c0,0,6.8,91,20.4,110.6c2,2.9,4.6,4.9,7.3,6.2
			c1.8,20.8,8.5,87.9,19.9,104.3c3.2,4.6-0.9,39.7-0.9,58.4c-16.9-22.4-39.6-53.4-48.2-49.8c-12.6,5.2-25.2,10.3-23,15.6
			c0,0,35.7,69.6,54.9,81.3c-0.2,0.7-0.3,1.5,0,2.2c0,0,36.5,71.1,55.6,81.7c1.3,0.7,2.5,1.2,3.8,1.6c13.1,16.6,27,26.2,40.4,31.4"
			/>
		<path class="st2" d="M2121.6,505.3c2.3-2,4.6-4.3,6.9-6.7"/>
		<path id="XMLID_6243_" class="st2" d="M2103.9,571.7c0,0,122.2-82.2,0-88.4"/>
		<path class="st3" d="M1986.6,72.9c0,0-4.3-15.5,5.8-15s20.5-4.1,19.8,11.1s-10.9,14.7-10.9,14.7S1990.9,88.3,1986.6,72.9z"/>
		<path class="st3" d="M1882.8,99.8c0,0-5.1-15.2,5.1-15.2s20.3-5.1,20.3,10.2S1898,110,1898,110S1887.8,115.1,1882.8,99.8z"/>
		<path class="st3" d="M2143,158.9c0,0-5.1-15.2,5.1-15.2c10.2,0,20.3-5.1,20.3,10.2c0,15.2-10.2,15.2-10.2,15.2
			S2148.1,174.1,2143,158.9z"/>
		<path class="st3" d="M2098.5,92.9c0,0-0.9-19.3,10.9-16c11.8,3.3,25.2,0.8,20.2,18.5c-5,17.6-16.8,14.3-16.8,14.3
			S2099.4,112.2,2098.5,92.9z"/>
		<path class="st3" d="M1859.5,339.9c0,0-9.1-13.1,0.6-15.9s17.9-10.5,22.2,4c4.3,14.5-5.4,17.3-5.4,17.3S1868.6,353,1859.5,339.9z"
			/>
		<path id="XMLID_6242_" class="st2" d="M2115.7,322.5c0,0,18.9,31.6,22.1,1.2"/>
		<path id="XMLID_6241_" class="st2" d="M2064.6,324.4c0,0,18.9,31.6,22.1,1.2"/>
		<path id="XMLID_6240_" class="st2" d="M2010,322.5c0,0,18.9,31.6,22.1,1.2"/>
		<path id="XMLID_6239_" class="st2" d="M1958.8,324.4c0,0,18.9,31.6,22.1,1.2"/>
		<path id="XMLID_6238_" class="st2" d="M1908,387.6c0,0-30.2,57,18.3,34.1"/>
		<path id="XMLID_6237_" class="st2" d="M1926.3,222.9c3.7,0.9,7-1.9,8.1-13.1"/>
		<path id="XMLID_6236_" class="st2" d="M2002.2,200.5c3.7-1.5,8.2-3.6,13.6-6.4"/>
		<path id="XMLID_6235_" class="st2" d="M2105.2,201.7"/>
		<path id="XMLID_6234_" class="st2" d="M2097.1,214.8c2.8,0.7,5.3-0.7,6.9-6.1"/>
		<path id="XMLID_5343_" class="st2" d="M2151.8,241.2"/>
		<path id="XMLID_5340_" class="st2" d="M2145.9,249.8c2.9,0.8,6.2,1.2,7.6-0.4"/>
		<path id="XMLID_6866_" class="st2" d="M1893,124.3c2,3.2,6.3,3.5,14.9-3.8"/>
		<path id="XMLID_6865_" class="st2" d="M1993.5,97.4c4,0.3,8.9,0.4,15,0.2"/>
		<path id="XMLID_6864_" class="st2" d="M2101,117.5c1.5,2.4,4.2,3.2,9.2,0.5"/>
		<path id="XMLID_6863_" class="st2" d="M2150.9,177.8c2.9,0.8,6.2,1.2,7.6-0.4"/>
	</g>
	<path id="XMLID_6277_" class="st4" d="M2100.8,255.6c-1-0.2-41.2-5.8-44.8-5.7c-0.5,0-1.8,0.6-2.6,1.3c-1.1,1-2.6,2.5-3.2,4.3
		c-0.1,0.2-1.2,7.8-1.2,8c-0.5,2.3,0.6,4.9,5.4,7.3c3.6,1.7,44.8,6.5,45.7,6.6c2.8,0.3,4.5-1.5,5.1-3.9c0.4-1.5,1.2-7.3,1.3-8.8
		C2106.7,261,2104.8,256.5,2100.8,255.6z"/>
	<path id="XMLID_6275_" class="st4" d="M2101.8,273.1c0,0,0.4,1.4-0.6,1.8"/>
	<path id="XMLID_6274_" class="st4" d="M2056.8,251.9c0,0-1.7,0.5-2.2,1.2"/>
</g>
<g>
	<g class="st0">
		<path id="XMLID_6293_" class="st1" d="M54.6,2268.6c14.6-312.3,27.4-695.9,37.5-895.2c18.3-361.1-10.3-891.5-10.3-891.5l151.7,13
			c0,0-31,936.7,0,1133.4c22.2,141-16.8,663.1-29.2,967.5"/>
		<path class="st1" d="M89.7,505.5C71.5,485.8,56,452,56,394.5c0-26.7-4.2-67.6-2.7-72.9c2.5-8.9,0.1-58.2,4.9-76.6
			c-5.6-2.2-9.5-6.3-8.3-10.7c3.1-10.9-1.2-81.3,9.1-83.5s20.6-4.4,21.6,0.5c0,0,9.2,67.9,2.4,85.6c0.5,0.4,0.9,0.9,1,1.6
			c0,0,5.3,39.3,4.9,65.9c9.3-5.6,20.2-8.4,32.3-9.5c0.4-12.8-18.7-75.9-15.2-95.7c-3.8-1.6-6.2-4.3-5.9-7.8
			c0.8-13.9-24.7-95.3-12.2-101.7c12.5-6.3,25-12.7,27.7-7.3c0,0,31.8,78.2,27.4,100.7c-0.7,3.4-2.2,6.2-4.1,8.5
			c7,17.8,29,76.4,25.3,95.3c-0.7,3.4,17.8,7.1,18.5,4.9c4.1-12.7,1.3-86,10.5-106.3c-3.5-2.8-5.3-6.3-4.1-10
			c4.7-14.5,0.3-108.2,15.2-111.3c14.9-3.2,29.8-6.3,31.2,0.1c0,0,11.8,92.1,1,114.6c-1.6,3.4-4,5.9-6.7,7.9
			c2.4,21.1,9.4,89.3,0.3,108.3c-1.2,2.5,3.3,6.5,7.2,6.5c5.1,0,14.3-0.7,14.8-1.7c6-11.4,17.2-82.6,29-100.1
			c-2.5-3.4-3.5-7.1-1.7-10.4c6.8-13,20.4-104,34.1-104c13.6,0,27.3,0,27.3,6.5c0,0-6.8,91-20.4,110.6c-2,2.9-4.6,4.9-7.3,6.2
			c-1.8,20.8-8.5,87.9-19.9,104.3c-3.2,4.6,0.9,39.7,0.9,58.4c16.9-22.4,39.6-53.4,48.2-49.8c12.6,5.2,25.2,10.3,23,15.6
			c0,0-35.7,69.6-54.9,81.3c0.2,0.7,0.3,1.5,0,2.2c0,0-36.5,71.1-55.6,81.7c-1.3,0.7-2.5,1.2-3.8,1.6c-13.1,16.6-27,26.2-40.4,31.4"
			/>
		<path class="st1" d="M96.6,512.3c-2.3-2-4.6-4.3-6.9-6.7"/>
		<path id="XMLID_6292_" class="st1" d="M114.3,578.7c0,0-122.2-82.2,0-88.4"/>
		<path class="st1" d="M233.8,93.4c0,0,5.1-15.2-5.1-15.2s-20.3-5.1-20.3,10.2s10.2,15.2,10.2,15.2S228.7,108.7,233.8,93.4z"/>
		<path class="st1" d="M333.4,117.8c0,0,5.1-15.2-5.1-15.2S308,97.5,308,112.8s10.2,15.2,10.2,15.2S328.3,133.1,333.4,117.8z"/>
		<path class="st1" d="M73.2,182.9c0,0,5.1-15.2-5.1-15.2s-20.3-5.1-20.3,10.2c0,15.2,10.2,15.2,10.2,15.2S68.1,198.1,73.2,182.9z"
			/>
		<path class="st1" d="M122.4,113c0,0,6.1-18.3-6.1-18.3s-24.5-6.2-24.5,12.2s12.2,18.3,12.2,18.3S116.3,131.3,122.4,113z"/>
		<path class="st1" d="M365.9,345.7c0,0,5-15.1-5-15.1s-20.1-5-20.1,10.1s10.1,15.1,10.1,15.1S360.8,360.8,365.9,345.7z"/>
		<path id="XMLID_6291_" class="st1" d="M102.5,329.5c0,0-18.9,31.6-22.1,1.2"/>
		<path id="XMLID_6290_" class="st1" d="M153.6,331.4c0,0-18.9,31.6-22.1,1.2"/>
		<path id="XMLID_6289_" class="st1" d="M208.2,329.5c0,0-18.9,31.6-22.1,1.2"/>
		<path id="XMLID_6288_" class="st1" d="M259.3,331.4c0,0-18.9,31.6-22.1,1.2"/>
		<path id="XMLID_6287_" class="st1" d="M310.2,394.6c0,0,30.2,57-18.3,34.1"/>
		<path id="XMLID_6286_" class="st1" d="M291.9,229.9c-3.7,0.9-7-1.9-8.1-13.1"/>
		<path id="XMLID_6285_" class="st1" d="M216,207.5c-3.7-1.5-8.2-3.6-13.6-6.4"/>
		<path id="XMLID_6284_" class="st1" d="M113,208.7"/>
		<path id="XMLID_6283_" class="st1" d="M121.1,221.8c-2.8,0.7-5.3-0.7-6.9-6.1"/>
		<path id="XMLID_6282_" class="st1" d="M66.4,248.2"/>
		<path id="XMLID_6281_" class="st1" d="M72.3,256.8c-2.9,0.8-6.2,1.2-7.6-0.4"/>
	</g>
	<g>
		<path id="XMLID_6280_" class="st2" d="M75.9,2246.6c14.6-312.3,27.4-695.9,37.5-895.2c18.3-361.1-10.3-891.5-10.3-891.5
			l151.7,12.9c0,0-31,936.7,0,1133.4c22.2,141-16.8,663.1-29.2,967.5"/>
		<path class="st2" d="M111,483.5c-18.2-19.8-33.7-53.5-33.7-111c0-26.7-4.2-67.6-2.7-72.9c2.5-8.9,0.1-58.2,4.9-76.6
			c-5.6-2.2-9.5-6.3-8.3-10.7c3.1-10.9-1.2-81.3,9.1-83.5s20.6-4.4,21.6,0.5c0,0,9.2,67.9,2.4,85.6c0.5,0.4,0.9,0.9,1,1.6
			c0,0,5.3,39.3,4.9,65.9c9.3-5.6,20.2-8.4,32.3-9.5c0.4-12.8-18.7-75.9-15.2-95.7c-3.8-1.6-6.2-4.3-5.9-7.8
			c0.8-13.9-24.7-95.3-12.2-101.7c12.5-6.3,25-12.7,27.7-7.3c0,0,31.8,78.2,27.4,100.7c-0.7,3.4-2.2,6.2-4.1,8.5
			c7,17.8,29,76.4,25.3,95.3c-0.7,3.4,17.8,7.1,18.5,4.9c4.1-12.7,1.3-86,10.5-106.3c-3.5-2.8-5.3-6.3-4.1-10
			c4.7-14.5,0.3-108.2,15.2-111.3c14.9-3.2,29.8-6.3,31.2,0.1c0,0,11.8,92.1,1,114.6c-1.6,3.4-4,5.9-6.7,7.9
			c2.4,21.1,9.4,89.3,0.3,108.3c-1.2,2.5,3.3,6.5,7.2,6.5c5.1,0,14.3-0.7,14.8-1.7c6-11.4,17.2-82.6,29-100.1
			c-2.5-3.4-3.5-7.1-1.7-10.4c6.8-13,20.4-104,34.1-104c13.6,0,27.3,0,27.3,6.5c0,0-6.8,91-20.4,110.6c-2,2.9-4.6,4.9-7.3,6.2
			c-1.8,20.8-8.5,87.9-19.9,104.3c-3.2,4.6,0.9,39.7,0.9,58.4c16.9-22.4,39.6-53.4,48.2-49.8c12.6,5.2,25.2,10.3,23,15.6
			c0,0-35.7,69.6-54.9,81.3c0.2,0.7,0.3,1.5,0,2.2c0,0-36.5,71.1-55.6,81.7c-1.3,0.7-2.5,1.2-3.8,1.6c-13.1,16.6-27,26.2-40.4,31.4"
			/>
		<path class="st2" d="M117.9,490.3c-2.3-2-4.6-4.3-6.9-6.7"/>
		<path id="XMLID_6279_" class="st2" d="M135.6,556.7c0,0-122.2-82.2,0-88.4"/>
		<path class="st3" d="M252.9,57.9c0,0,4.3-15.5-5.8-15s-20.5-4.1-19.8,11.1s10.9,14.7,10.9,14.7S248.6,73.3,252.9,57.9z"/>
		<path class="st3" d="M356.8,84.8c0,0,5.1-15.2-5.1-15.2s-20.3-5.1-20.3,10.2S341.5,95,341.5,95S351.7,100.1,356.8,84.8z"/>
		<path class="st3" d="M96.5,143.9c0,0,5.1-15.2-5.1-15.2s-20.3-5.1-20.3,10.2s10.2,15.2,10.2,15.2S91.4,159.1,96.5,143.9z"/>
		<path class="st3" d="M141,77.9c0,0,0.9-19.3-10.9-16c-11.8,3.3-25.2,0.8-20.2,18.5s16.8,14.3,16.8,14.3S140.1,97.2,141,77.9z"/>
		<path class="st3" d="M380,324.9c0,0,9.1-13.1-0.6-15.9s-17.9-10.5-22.2,4c-4.3,14.5,5.4,17.3,5.4,17.3S370.9,338,380,324.9z"/>
		<path id="XMLID_6278_" class="st2" d="M123.8,307.5c0,0-18.9,31.6-22.1,1.2"/>
		<path id="XMLID_6276_" class="st2" d="M175,309.4c0,0-18.9,31.6-22.1,1.2"/>
		<path id="XMLID_6273_" class="st2" d="M229.6,307.5c0,0-18.9,31.6-22.1,1.2"/>
		<path id="XMLID_6272_" class="st2" d="M280.7,309.4c0,0-18.9,31.6-22.1,1.2"/>
		<path id="XMLID_6271_" class="st2" d="M331.5,372.6c0,0,30.2,57-18.3,34.1"/>
		<path id="XMLID_6270_" class="st2" d="M313.2,207.9c-3.7,0.9-7-1.9-8.1-13.1"/>
		<path id="XMLID_6269_" class="st2" d="M237.3,185.5c-3.7-1.5-8.2-3.6-13.6-6.4"/>
		<path id="XMLID_6268_" class="st2" d="M134.3,186.7"/>
		<path id="XMLID_6267_" class="st2" d="M142.4,199.8c-2.8,0.7-5.3-0.7-6.9-6.1"/>
		<path id="XMLID_6266_" class="st2" d="M87.7,226.2"/>
		<path id="XMLID_6265_" class="st2" d="M93.6,234.8c-2.9,0.8-6.2,1.2-7.6-0.4"/>
		<path id="XMLID_6264_" class="st2" d="M346.6,109.3c-2,3.2-6.3,3.5-14.9-3.8"/>
		<path id="XMLID_6263_" class="st2" d="M246,82.4c-4,0.3-8.9,0.4-15,0.2"/>
		<path id="XMLID_6262_" class="st2" d="M138.5,102.5c-1.5,2.4-4.2,3.2-9.2,0.5"/>
		<path id="XMLID_6261_" class="st2" d="M88.6,162.8c-2.9,0.8-6.2,1.2-7.6-0.4"/>
	</g>
	<path id="XMLID_6260_" class="st4" d="M138.8,240.6c1-0.2,41.2-5.8,44.8-5.7c0.5,0,1.8,0.6,2.6,1.3c1.1,1,2.6,2.5,3.2,4.3
		c0.1,0.2,1.2,7.8,1.2,8c0.5,2.3-0.6,4.9-5.4,7.3c-3.6,1.7-44.8,6.5-45.7,6.6c-2.8,0.3-4.5-1.5-5.1-3.9c-0.4-1.5-1.2-7.3-1.3-8.8
		C132.8,246,134.7,241.5,138.8,240.6z"/>
	<path id="XMLID_6259_" class="st4" d="M137.7,258.1c0,0-0.4,1.4,0.6,1.8"/>
	<path id="XMLID_6258_" class="st4" d="M182.7,236.9c0,0,1.7,0.5,2.2,1.2"/>
</g>
</svg>
