<?xml version="1.0" encoding="utf-8"?>
<!-- Generator: Adobe Illustrator 22.1.0, SVG Export Plug-In . SVG Version: 6.00 Build 0)  -->
<svg version="1.1" id="Layer_1" xmlns="http://www.w3.org/2000/svg" xmlns:xlink="http://www.w3.org/1999/xlink" x="0px" y="0px"
	 viewBox="0 0 1282 722" style="enable-background:new 0 0 1282 722;" xml:space="preserve">
<style type="text/css">
	.st0{fill:#A36B78;stroke:#584C4F;stroke-width:4;stroke-linecap:round;stroke-miterlimit:10;}
	.st1{fill:#FFFAF2;stroke:#584C4F;stroke-width:2;stroke-miterlimit:10;}
</style>
<g id="Layer_5">
</g>
<g id="Layer_3">
</g>
<g>
	<path id="XMLID_85_" class="st0" d="M-401.2,187.7c132.7,8.3,295.7,16.3,380.4,21.9c153.4,10.2,379.1,1.5,379.1,1.5l-6.5,64.4
		c0,0-398.1-19.4-481.9-7.5c-60.1,8.5-281.8-11.5-411.2-18.8"/>
	<g>
		<path class="st0" d="M350.6,275.5c24.7,0.6,44.7,1.2,57.7,1.6c3.4,4.8,9.2,9.5,18.7,13.1c0,0,6.7,2.6,14.1,3
			c0.7,3.1,1.5,6.2,2.3,9c0,3.2,0.9,6.9,2.7,9.5c0.7,2.4,1.2,3.9,1.2,3.9c0.7,1.7,3.9,1,7.8-0.5c5.7-0.3,13.4-2.3,19.3-4.1
			c2.8,3.5,5.5,5.8,11.3,1.2c1.3-1.1,2.3-2.1,3-3c8.5-4.5,22.4-15.7,32.3-23.4c2.1-0.2,5.2-3,8.3-6.1c0.9-0.6,1.7-1.1,2.3-1.4
			c6-2.7,1.9-15.2-6.6-17.5c1.6-2,2.8-3.5,3.6-4.3c1.4-1.2,1.8-3.1,1.4-5.1c0.6-10.3-8.3-37.4-8.1-42.8c0.1-2.5-2.5-3.9-5.9-4.2
			c-0.1-1.3,0-2.3,0.1-3c0.7-4.4-9.2-7-13.6-2.6c-7-1.9-17-3-31.5-3c-36.5,0-52.2,6.9-58.9,12.8c-1.6,0.1-3.3,0.2-5.1,0.2
			c-5.2-19.8-19.2-9.3-28.8,1.3c-8.4,0.3-17.6,0.7-27.6,1.1 M459.1,280.6c0.1-0.8,0.2-1.7,0.2-2.7c0-9.8,1.7-19.6,1.7-27.8
			c9,0.9,21.8,1.8,32.6,0.6c0.3,0.6,0.7,1.2,1.1,1.8c-1.2,2.7-2.3,5.3-3.3,7.6c-0.6,0.4-1.2,0.8-1.8,1.4c0,0-6.5,5.9-1.5,8.6
			c1.8,1,3.4,2.3,5,3.2c-2.1,3.5-3.9,6.8-5.4,9.6c-1.2,0.9-2.6,2.2-2.7,3.8c-0.5,0.7-0.8,1.5-1,2.3c-0.5,0.5-0.9,0.9-1.4,1.4
			c-1.3-0.3-3.1,0-5.6,1.3c-1.2,0.6-2.2,1.3-3,1.9c-3.7-0.1-8.4,0.4-12.8,0.9C460.4,289.7,459.7,284.9,459.1,280.6z"/>
		<g>
			<path class="st0" d="M506.3,241.1c0,0-7.8-31.3-5.4-39.3s16.1-5.3,15.2-0.2c-0.8,5.1,4.7,37.1,0.1,38.7
				C511.6,241.7,507,243.2,506.3,241.1z"/>
			<path id="XMLID_27850_" class="st0" d="M424.9,277.7c0,0-29.3-1-74.3-2.1"/>
			<line id="XMLID_27849_" class="st0" x1="425.2" y1="274.5" x2="424.9" y2="277.7"/>
			<path id="XMLID_27848_" class="st0" d="M350.6,211.3c48.4-1.8,80.2-3.5,80.2-3.5"/>
			<path id="XMLID_1227_" class="st0" d="M368.2,222.8c0,0,37.9-56.2,40.7,0"/>
			<path class="st0" d="M449.7,248.7c0,0,64,10.5,64-10.5s21.3-42.2-42.7-42.2s-64,21.1-64,21.1"/>
			<g>
				<path class="st0" d="M488,268.2c0,0,11.6-30.1,18.2-35.3c6.6-5.2,16.2,4.9,12.6,8.6s-17.6,33.1-22.2,31.7
					C492,271.8,487.3,270.4,488,268.2z"/>
				<path class="st0" d="M489.5,261.5c0,0-6.5,5.9-1.5,8.6c5,2.7,8.7,7.9,12.7,0.7c4-7.2-1-10-1-10S496,255.6,489.5,261.5z"/>
			</g>
			<path class="st0" d="M510.9,246.5c2.7,7.1,5,12.5,5,12.5c1.3,2.4,7-0.6,12.7-3.7c5.7-3-6.9-40.3-6.6-46.7c0.1-2.5-2.6-4-6-4.2
				c0,0,0.2,0-7.3,0"/>
			<g>
				<path class="st0" d="M483.6,290c0,0,21.3-40.4,30.9-46.8c9.6-6.4,19.6,8.7,14.2,13.4s-29.6,43.8-35.2,41.3
					C487.9,295.5,482.3,293,483.6,290z"/>
				<path class="st0" d="M487.7,283.5c0,0-7.4,5.9-2.1,9.2c5.3,3.4,9.1,9.3,13.9,1.7c4.8-7.6-0.6-10.9-0.6-10.9
					S495.1,277.6,487.7,283.5z"/>
			</g>
			<path class="st0" d="M515,213.8c3.6,0.8,6.2,2.9,5.8,5.5c-1.2,6.9,6.8,49.3,0.2,51.7c-6.6,2.4-13.2,4.8-14.2,1.9
				c0,0-3.3-11.9-5.7-24.6"/>
			<g>
				<path class="st0" d="M485.1,286.2c0,0,24.2-20.3,32.8-21.2c8.6-0.9,13.6,13.6,8.5,14.8c-5.1,1.2-31.2,19.6-35.1,15.7
					C487.4,291.7,483.5,287.8,485.1,286.2z"/>
				<path class="st0" d="M489.8,281.5c0,0-8.3,3.6-3.6,8.3s7.3,11.2,13.2,5.3c6-6,1.3-10.6,1.3-10.6S498.1,277.9,489.8,281.5z"/>
			</g>
			<path class="st0" d="M503.2,230.8c2.2,0.2,3.9,1.1,4.5,2.9c2,6.5,27.2,40.5,22.8,45c-4.4,4.4-8.9,8.9-11,6.8
				c0,0-27.4-31.9-29.3-42.6"/>
			<g>
				<path class="st0" d="M519.7,260.8c11.9-2.8,19.1,14.4,12,17.6c-7.3,3.3-44.1,36.5-49.9,32.5c-5.8-4-11.6-8-9.3-10.7
					c0,0,21.8-22.6,36.9-33.6"/>
				<path class="st0" d="M476.5,297.6c0,0-10.6,4-5.9,9s6.7,12.2,15,5.7s3.5-11.5,3.5-11.5S487.1,293.6,476.5,297.6z"/>
			</g>
			<g>
				<path class="st1" d="M451.9,263.5C367.9,290.3,412,391.2,412,391.2s53.7,63.4,122.5,12.9C603.2,353.6,535.8,236.8,451.9,263.5z
					 M529.2,397.9C467.3,443.3,419,386.3,419,386.3s-39.6-90.9,35.9-114.9C530.4,247.3,591,352.4,529.2,397.9z"/>
				<g id="XMLID_3932_">
					<path id="XMLID_3943_" class="st1" d="M570,413.7c0,0,0-0.1,0-0.2c0-1.1,0.1-2.1,0.1-2.4c0-0.3,0-1.4,0-2.8c0-1.8,0-3.3,0-3.5
						c-0.1-0.8,0.1-3.4,0-4c0,0-0.1-4.6-0.1-5.1c0.1-1.4,0.2-4.4,0.1-5.2c0-0.9-0.2-12.6-0.4-14.4c0-0.1,0-0.2,0-0.3
						c0.1-2.1,0.2-4,0.1-5.4c0.3-4.1,0.2-11.6,0-14.7c0.3-0.3,0.4-13.2,0.3-13.5c0-0.2-0.1-0.3-0.1-0.5c0-2.6-0.1-5-0.2-6.5
						c0.3-0.3,0.4-13.2,0.3-13.5c-0.2-1.6-2.4-3.3-6-3.4c-0.4,0-7,0-14.6,0c-0.4,0-0.8-0.1-1.3-0.1c-1.7-0.1-134-0.1-135.7,0
						c-0.4,0-0.8,0-1.3,0.1c-7.7,0-14.2,0-14.6,0c-3.6,0.1-5.8,1.9-6,3.4c0,0.4-0.1,1.5,0,2.4c0,0.7,0,10.2,0,10.2
						c0,0.2,0,3.9,0.1,7.8c0,0.1,0,0.1,0,0.2c0,0.4-0.1,1.5,0,2.4c0,0.7,0,10.2,0,10.2c0,0.3,0,11.6,0.3,15.6c0,1.4,0,3.3,0.1,5.4
						c0,0.1,0,0.2,0,0.3c-0.2,1.8-0.5,13.5-0.4,14.4c0,0.7,0,10.2,0,10.2c-0.1,0.6,0,7.9,0,7.9c0,0.3,0,0.8,0,1.3c0,0.5,0,0.9,0,1.1
						c0,0.3,0,2.1,0,4c0,0.5,0,1.1,0,1.6c0,0.2,0,0.4,0,0.5c0,2.1,0,4,0,4c-0.1,0.6,0,7.9,0,7.9c-0.1,0.6,0.1,2.4,0.1,3.8
						c0,0.5-0.1,0.9-0.1,1.3c0,0.5-0.1,2,0,3c0,0.5,0,0.9,0,0.9c0,0.3,0.1,0.6,0.4,0.9c-0.2,3.2-0.3,10.9,0,15.1
						c0,1.5,0.1,3.6,0.2,5.9c0,0.2,0,0.3,0,0.4c-0.2,1.8-0.5,13.8-0.4,14.8c0,0.7,0,1.4,0,1.5c-0.1,0.6,0,6.6,0,7.5
						c0,0.7,0,1.4,0,1.5c0,0.3,0,0.5,0.2,0.8c-0.1,4-0.2,8.7-0.2,9.3c0,0.7,0,1.4,0,1.5c-0.1,0.6,0,6.6,0,7.5c0,0.7,0,1.4,0,1.5
						c-0.1,1,1.1,2,5.6,2.7c2.7,0.4,28.6,0.1,37.3,0c12.9,0.2,80.9,0.2,93.8,0c8.7,0.1,34.6,0.4,37.3,0c4.5-0.7,5.7-1.8,5.6-2.7
						c0,0,0-0.7,0-1.5c0-0.9,0-2.1,0-2.4c0-0.3-0.1-0.8-0.1-1.3c0.1-1.4,0.2-4.5,0.1-5.3c0-0.6-0.1-5.3-0.2-9.3
						c0.2-0.3,0.2-0.5,0.2-0.8c0,0,0-0.7,0-1.5c0-0.9,0-2.1,0-2.4c0-0.3-0.1-0.8-0.1-1.3c0.1-1.4,0.2-4.5,0.1-5.3
						c0-0.9-0.2-12.9-0.4-14.8c0-0.1,0-0.3,0-0.4c0.1-2.3,0.2-4.3,0.2-5.9c0.3-4.2,0.4-15.7,0.3-16c0,0,0-0.4,0-0.9c0-1,0-2.5,0-3
						c0-0.3,0-8.6,0-9c0-0.1,0-0.2,0-0.3c0-0.5,0-0.9,0-1.4c0-0.9,0.1-2,0-2.3c0,0,0-0.2,0-0.4c0-1.8,0-3.1,0-3.2c0,0,0-0.4,0-0.9
						C570.1,415.7,570,414.2,570,413.7z"/>
				</g>
			</g>
			<path class="st0" d="M403.7,263.9c0.3,8.2,4.7,19.3,23.3,26.4c0,0,32.3,12.3,32.3-12.3c0-19.1,6.5-38.2-5.7-45.8"/>
			<g>
				<path class="st0" d="M458,268.6c-0.9,6,7.5,42.3,1.7,44.7c-5.8,2.4-11.6,4.8-12.6,2.4c0,0-4.5-14.1-7.1-26.8"/>
				<g>
					<path class="st0" d="M458.4,294.6c9.4-1.2,20.9-2.5,22.2,1.1c2.1,5.8,4.3,11.5,2.5,12.4c0,0-26.3,9.5-33.8,6.4
						c-7.5-3.1-7.5-20.2-2.8-19.1"/>
					<path class="st0" d="M479.9,310.8c0,0,10.6-1.3,8.1-8.4s-1.9-15.7-11.2-10.9c-9.3,4.9-6.8,11.9-6.8,11.9
						S469.4,312.1,479.9,310.8z"/>
				</g>
			</g>
		</g>
	</g>
</g>
</svg>
