<?xml version="1.0" encoding="utf-8"?>
<!-- Generator: Adobe Illustrator 22.1.0, SVG Export Plug-In . SVG Version: 6.00 Build 0)  -->
<svg version="1.1" id="Layer_1" xmlns="http://www.w3.org/2000/svg" xmlns:xlink="http://www.w3.org/1999/xlink" x="0px" y="0px"
	 viewBox="0 0 433 721" style="enable-background:new 0 0 433 721;" xml:space="preserve">
<style type="text/css">
	.st0{fill:#FDF7E0;stroke:#231F20;stroke-miterlimit:10;}
</style>
<g id="XMLID_3969_">
	<path id="XMLID_3970_" class="st0" d="M432.5,694.2c-0.1-7.1-0.2-656.8,0-661.4c0.1-3,0.1-13.9,0-16.7c-0.1-7.1-1.7-15-4.1-15.5
		c-0.6-0.1-24.8,0.2-26.9,1.5c-0.3,0.2-368.6-0.9-371-1.5C29.8,0.4,5.6,0.7,3.5,2c-0.3,0.2-1,1.5-1.4,3.1C1.5,7.2,0.8,10.5,0.6,14
		c0,0.4-0.1,14.8,0,15.2c-0.1,4.4,0.3,659.4,0.1,662.9c0,0.4-0.1,14.8,0,15.2c-0.1,4.4,0.7,9,3.8,12.1c2.2,2.3,394.9-3.1,397.9,0
		c2.2,2.3,26.9,0.1,27.5,0c1.7-0.3,2.5-4,2.7-8.6C432.5,707.9,432.5,696.9,432.5,694.2z"/>
</g>
<g>
	<g>
		<g>
			<g id="XMLID_3993_">
				<path id="XMLID_4154_" class="st0" d="M154.3,202.6c0-0.7,0-63.2,0-63.6c0-0.3,0-1.3,0-1.6c0-0.7-0.3-1.4-0.7-1.5
					c-0.1,0-4,0-4.3,0.1c0,0-59.1-0.1-59.5-0.1c-0.1,0-4,0-4.3,0.1c0,0-0.2,0.1-0.2,0.3c-0.1,0.2-0.2,0.5-0.2,0.9c0,0,0,1.4,0,1.5
					c0,0.4,0,63.4,0,63.7c0,0,0,1.4,0,1.5c0,0.4,0.1,0.9,0.6,1.2c0.4,0.2,63.3-0.3,63.8,0c0.4,0.2,4.3,0,4.4,0
					c0.3,0,0.4-0.4,0.4-0.8C154.3,203.9,154.3,202.8,154.3,202.6z"/>
			</g>
			<path class="st0" d="M154.2,166c0.2-0.1,0-0.6,0-0.7c0,0-0.4-0.1-0.8-0.1c-0.3,0-1.3,0-1.6,0c-0.3,0-13,0-26.9,0
				c0-13.7,0-26,0-26.2c0-0.3,0-1.3,0-1.6c0-0.7,0-1.4-0.1-1.5c0,0-0.6,0-0.6,0.1c0,0-8.9-0.1-8.9-0.1c0,0-0.6,0-0.6,0.1
				c0,0,0,0.1,0,0.3c0,0.2,0,0.5,0,0.9c0,0,0,1.4,0,1.5c0,0.2,0,12.7,0,26.5c-13.8,0-26.1,0-26.3,0c-0.3,0-1.3,0-1.6,0
				c-0.7,0-1.4,0-1.5,0.1c0,0,0,0.6,0.1,0.6c0,0-0.1,8.9-0.1,8.9c0,0,0,0.6,0.1,0.6c0,0,0.1,0,0.3,0c0.2,0,0.5,0,0.9,0
				c0,0,1.4,0,1.5,0c0.2,0,12.7,0,26.7,0c0,13.9,0,26.5,0,26.7c0,0,0,1.4,0,1.5c0,0.4,0,0.9,0.1,1.2c0.1,0.2,9.5-0.3,9.6,0
				c0.1,0.2,0.6,0,0.7,0c0,0,0.1-0.4,0.1-0.8c0-0.3,0-1.3,0-1.6c0-0.3,0-13,0-26.9c14,0,26.5,0,26.7,0c0,0,1.4,0,1.5,0
				c0.4,0,0.9,0,1.2-0.1C154.5,175.5,153.9,166.1,154.2,166z"/>
			<g id="XMLID_3991_">
				<path id="XMLID_3992_" class="st0" d="M151.8,205.1c-0.7,0-63.2,0-63.6,0c-0.3,0-1.3,0-1.6,0c-0.7,0-1.4,0-1.5,0.1
					c0,0,0,0.6,0.1,0.6c0,0-0.1,8.9-0.1,8.9c0,0,0,0.6,0.1,0.6c0,0,0.1,0,0.3,0c0.2,0,0.5,0,0.9,0c0,0,1.4,0,1.5,0
					c0.4,0,63.4,0,63.7,0c0,0,1.4,0,1.5,0c0.4,0,0.9,0,1.2-0.1c0.2-0.1-0.3-9.5,0-9.6c0.2-0.1,0-0.6,0-0.7c0,0-0.4-0.1-0.8-0.1
					C153.1,205.1,152.1,205.1,151.8,205.1z"/>
			</g>
			<g id="XMLID_3989_">
				<path id="XMLID_3990_" class="st0" d="M157.7,125.5c-0.8,0-74.7,0-75.2,0c-0.3,0-1.6,0-1.9,0c-0.8,0-1.7,0-1.8,0.1
					c0,0,0,0.6,0.2,0.6c0,0-0.1,8.9-0.2,8.9c0,0,0,0.6,0.2,0.6c0,0,0.2,0,0.3,0c0.2,0,0.6,0,1,0c0,0,1.7,0,1.7,0c0.5,0,75,0,75.4,0
					c0,0,1.7,0,1.7,0c0.5,0,1,0,1.4-0.1c0.3-0.1-0.4-9.5,0-9.6c0.3-0.1,0-0.6,0-0.7c0,0-0.5-0.1-1-0.1
					C159.2,125.5,158,125.5,157.7,125.5z"/>
			</g>
		</g>
		<g>
			<g id="XMLID_3987_">
				<path id="XMLID_3988_" class="st0" d="M254.3,202.6c0-0.7,0-63.2,0-63.6c0-0.3,0-1.3,0-1.6c0-0.7-0.3-1.4-0.7-1.5
					c-0.1,0-4,0-4.3,0.1c0,0-59.1-0.1-59.5-0.1c-0.1,0-4,0-4.3,0.1c0,0-0.2,0.1-0.2,0.3c-0.1,0.2-0.2,0.5-0.2,0.9c0,0,0,1.4,0,1.5
					c0,0.4,0,63.4,0,63.7c0,0,0,1.4,0,1.5c0,0.4,0.1,0.9,0.6,1.2c0.4,0.2,63.3-0.3,63.8,0c0.4,0.2,4.3,0,4.4,0
					c0.3,0,0.4-0.4,0.4-0.8C254.3,203.9,254.3,202.8,254.3,202.6z"/>
			</g>
			<path class="st0" d="M254.2,166c0.2-0.1,0-0.6,0-0.7c0,0-0.4-0.1-0.8-0.1c-0.3,0-1.3,0-1.6,0c-0.3,0-13,0-26.9,0
				c0-13.7,0-26,0-26.2c0-0.3,0-1.3,0-1.6c0-0.7,0-1.4-0.1-1.5c0,0-0.6,0-0.6,0.1c0,0-8.9-0.1-8.9-0.1c0,0-0.6,0-0.6,0.1
				c0,0,0,0.1,0,0.3c0,0.2,0,0.5,0,0.9c0,0,0,1.4,0,1.5c0,0.2,0,12.7,0,26.5c-13.8,0-26.1,0-26.3,0c-0.3,0-1.3,0-1.6,0
				c-0.7,0-1.4,0-1.5,0.1c0,0,0,0.6,0.1,0.6c0,0-0.1,8.9-0.1,8.9c0,0,0,0.6,0.1,0.6c0,0,0.1,0,0.3,0c0.2,0,0.5,0,0.9,0
				c0,0,1.4,0,1.5,0c0.2,0,12.7,0,26.7,0c0,13.9,0,26.5,0,26.7c0,0,0,1.4,0,1.5c0,0.4,0,0.9,0.1,1.2c0.1,0.2,9.5-0.3,9.6,0
				c0.1,0.2,0.6,0,0.7,0c0,0,0.1-0.4,0.1-0.8c0-0.3,0-1.3,0-1.6c0-0.3,0-13,0-26.9c14,0,26.5,0,26.7,0c0,0,1.4,0,1.5,0
				c0.4,0,0.9,0,1.2-0.1C254.5,175.5,253.9,166.1,254.2,166z"/>
			<g id="XMLID_3985_">
				<path id="XMLID_3986_" class="st0" d="M251.8,205.1c-0.7,0-63.2,0-63.6,0c-0.3,0-1.3,0-1.6,0c-0.7,0-1.4,0-1.5,0.1
					c0,0,0,0.6,0.1,0.6c0,0-0.1,8.9-0.1,8.9c0,0,0,0.6,0.1,0.6c0,0,0.1,0,0.3,0c0.2,0,0.5,0,0.9,0c0,0,1.4,0,1.5,0
					c0.4,0,63.4,0,63.7,0c0,0,1.4,0,1.5,0c0.4,0,0.9,0,1.2-0.1c0.2-0.1-0.3-9.5,0-9.6c0.2-0.1,0-0.6,0-0.7c0,0-0.4-0.1-0.8-0.1
					C253.1,205.1,252.1,205.1,251.8,205.1z"/>
			</g>
			<g id="XMLID_3983_">
				<path id="XMLID_3984_" class="st0" d="M257.7,125.5c-0.8,0-74.7,0-75.2,0c-0.3,0-1.6,0-1.9,0c-0.8,0-1.7,0-1.8,0.1
					c0,0,0,0.6,0.2,0.6c0,0-0.1,8.9-0.2,8.9c0,0,0,0.6,0.2,0.6c0,0,0.2,0,0.3,0c0.2,0,0.6,0,1,0c0,0,1.7,0,1.7,0c0.5,0,75,0,75.4,0
					c0,0,1.7,0,1.7,0c0.5,0,1,0,1.4-0.1c0.3-0.1-0.4-9.5,0-9.6c0.3-0.1,0-0.6,0-0.7c0,0-0.5-0.1-1-0.1
					C259.2,125.5,258,125.5,257.7,125.5z"/>
			</g>
		</g>
		<g>
			<g id="XMLID_4159_">
				<path id="XMLID_4160_" class="st0" d="M354.3,202.6c0-0.7,0-63.2,0-63.6c0-0.3,0-1.3,0-1.6c0-0.7-0.3-1.4-0.7-1.5
					c-0.1,0-4,0-4.3,0.1c0,0-59.1-0.1-59.5-0.1c-0.1,0-4,0-4.3,0.1c0,0-0.2,0.1-0.2,0.3c-0.1,0.2-0.2,0.5-0.2,0.9c0,0,0,1.4,0,1.5
					c0,0.4,0,63.4,0,63.7c0,0,0,1.4,0,1.5c0,0.4,0.1,0.9,0.6,1.2c0.4,0.2,63.3-0.3,63.8,0c0.4,0.2,4.3,0,4.4,0
					c0.3,0,0.4-0.4,0.4-0.8C354.3,203.9,354.3,202.8,354.3,202.6z"/>
			</g>
			<path class="st0" d="M354.2,166c0.2-0.1,0-0.6,0-0.7c0,0-0.4-0.1-0.8-0.1c-0.3,0-1.3,0-1.6,0c-0.3,0-13,0-26.9,0
				c0-13.7,0-26,0-26.2c0-0.3,0-1.3,0-1.6c0-0.7,0-1.4-0.1-1.5c0,0-0.6,0-0.6,0.1c0,0-8.9-0.1-8.9-0.1c0,0-0.6,0-0.6,0.1
				c0,0,0,0.1,0,0.3c0,0.2,0,0.5,0,0.9c0,0,0,1.4,0,1.5c0,0.2,0,12.7,0,26.5c-13.8,0-26.1,0-26.3,0c-0.3,0-1.3,0-1.6,0
				c-0.7,0-1.4,0-1.5,0.1c0,0,0,0.6,0.1,0.6c0,0-0.1,8.9-0.1,8.9c0,0,0,0.6,0.1,0.6c0,0,0.1,0,0.3,0c0.2,0,0.5,0,0.9,0
				c0,0,1.4,0,1.5,0c0.2,0,12.7,0,26.7,0c0,13.9,0,26.5,0,26.7c0,0,0,1.4,0,1.5c0,0.4,0,0.9,0.1,1.2c0.1,0.2,9.5-0.3,9.6,0
				c0.1,0.2,0.6,0,0.7,0c0,0,0.1-0.4,0.1-0.8c0-0.3,0-1.3,0-1.6c0-0.3,0-13,0-26.9c14,0,26.5,0,26.7,0c0,0,1.4,0,1.5,0
				c0.4,0,0.9,0,1.2-0.1C354.5,175.5,353.9,166.1,354.2,166z"/>
			<g id="XMLID_4157_">
				<path id="XMLID_4158_" class="st0" d="M351.8,205.1c-0.7,0-63.2,0-63.6,0c-0.3,0-1.3,0-1.6,0c-0.7,0-1.4,0-1.5,0.1
					c0,0,0,0.6,0.1,0.6c0,0-0.1,8.9-0.1,8.9c0,0,0,0.6,0.1,0.6c0,0,0.1,0,0.3,0c0.2,0,0.5,0,0.9,0c0,0,1.4,0,1.5,0
					c0.4,0,63.4,0,63.7,0c0,0,1.4,0,1.5,0c0.4,0,0.9,0,1.2-0.1c0.2-0.1-0.3-9.5,0-9.6c0.2-0.1,0-0.6,0-0.7c0,0-0.4-0.1-0.8-0.1
					C353.1,205.1,352.1,205.1,351.8,205.1z"/>
			</g>
			<g id="XMLID_4155_">
				<path id="XMLID_4156_" class="st0" d="M357.7,125.5c-0.8,0-74.7,0-75.2,0c-0.3,0-1.6,0-1.9,0c-0.8,0-1.7,0-1.8,0.1
					c0,0,0,0.6,0.2,0.6c0,0-0.1,8.9-0.2,8.9c0,0,0,0.6,0.2,0.6c0,0,0.2,0,0.3,0c0.2,0,0.6,0,1,0c0,0,1.7,0,1.7,0c0.5,0,75,0,75.4,0
					c0,0,1.7,0,1.7,0c0.5,0,1,0,1.4-0.1c0.3-0.1-0.4-9.5,0-9.6c0.3-0.1,0-0.6,0-0.7c0,0-0.5-0.1-1-0.1
					C359.2,125.5,358,125.5,357.7,125.5z"/>
			</g>
		</g>
	</g>
	<g>
		<g id="XMLID_4172_">
			<path id="XMLID_4173_" class="st0" d="M109.3,312.6c0-0.7,0-63.2,0-63.6c0-0.3,0-1.3,0-1.6c0-0.7-0.3-1.4-0.7-1.5
				c-0.1,0-4,0-4.3,0.1c0,0-59.1-0.1-59.5-0.1c-0.1,0-4,0-4.3,0.1c0,0-0.2,0.1-0.2,0.3c-0.1,0.2-0.2,0.5-0.2,0.9c0,0,0,1.4,0,1.5
				c0,0.4,0,63.4,0,63.7c0,0,0,1.4,0,1.5c0,0.4,0.1,0.9,0.6,1.2c0.4,0.2,63.3-0.3,63.8,0c0.4,0.2,4.3,0,4.4,0c0.3,0,0.4-0.4,0.4-0.8
				C109.3,313.9,109.3,312.8,109.3,312.6z"/>
		</g>
		<path class="st0" d="M109.2,276c0.2-0.1,0-0.6,0-0.7c0,0-0.4-0.1-0.8-0.1c-0.3,0-1.3,0-1.6,0c-0.3,0-13,0-26.9,0
			c0-13.7,0-26,0-26.2c0-0.3,0-1.3,0-1.6c0-0.7,0-1.4-0.1-1.5c0,0-0.6,0-0.6,0.1c0,0-8.9-0.1-8.9-0.1c0,0-0.6,0-0.6,0.1
			c0,0,0,0.1,0,0.3c0,0.2,0,0.5,0,0.9c0,0,0,1.4,0,1.5c0,0.2,0,12.7,0,26.5c-13.8,0-26.1,0-26.3,0c-0.3,0-1.3,0-1.6,0
			c-0.7,0-1.4,0-1.5,0.1c0,0,0,0.6,0.1,0.6c0,0-0.1,8.9-0.1,8.9c0,0,0,0.6,0.1,0.6c0,0,0.1,0,0.3,0c0.2,0,0.5,0,0.9,0
			c0,0,1.4,0,1.5,0c0.2,0,12.7,0,26.7,0c0,13.9,0,26.5,0,26.7c0,0,0,1.4,0,1.5c0,0.4,0,0.9,0.1,1.2c0.1,0.2,9.5-0.3,9.6,0
			c0.1,0.2,0.6,0,0.7,0c0,0,0.1-0.4,0.1-0.8c0-0.3,0-1.3,0-1.6c0-0.3,0-13,0-26.9c14,0,26.5,0,26.7,0c0,0,1.4,0,1.5,0
			c0.4,0,0.9,0,1.2-0.1C109.5,285.5,108.9,276.1,109.2,276z"/>
		<g id="XMLID_4169_">
			<path id="XMLID_4170_" class="st0" d="M106.8,315.1c-0.7,0-63.2,0-63.6,0c-0.3,0-1.3,0-1.6,0c-0.7,0-1.4,0-1.5,0.1
				c0,0,0,0.6,0.1,0.6c0,0-0.1,8.9-0.1,8.9c0,0,0,0.6,0.1,0.6c0,0,0.1,0,0.3,0c0.2,0,0.5,0,0.9,0c0,0,1.4,0,1.5,0
				c0.4,0,63.4,0,63.7,0c0,0,1.4,0,1.5,0c0.4,0,0.9,0,1.2-0.1c0.2-0.1-0.3-9.5,0-9.6c0.2-0.1,0-0.6,0-0.7c0,0-0.4-0.1-0.8-0.1
				C108.1,315.1,107.1,315.1,106.8,315.1z"/>
		</g>
		<g id="XMLID_4167_">
			<path id="XMLID_4168_" class="st0" d="M112.7,235.5c-0.8,0-74.7,0-75.2,0c-0.3,0-1.6,0-1.9,0c-0.8,0-1.7,0-1.8,0.1
				c0,0,0,0.6,0.2,0.6c0,0-0.1,8.9-0.2,8.9c0,0,0,0.6,0.2,0.6c0,0,0.2,0,0.3,0c0.2,0,0.6,0,1,0c0,0,1.7,0,1.7,0c0.5,0,75,0,75.4,0
				c0,0,1.7,0,1.7,0c0.5,0,1,0,1.4-0.1c0.3-0.1-0.4-9.5,0-9.6c0.3-0.1,0-0.6,0-0.7c0,0-0.5-0.1-1-0.1
				C114.2,235.5,113,235.5,112.7,235.5z"/>
		</g>
	</g>
	<g>
		<g id="XMLID_4165_">
			<path id="XMLID_4166_" class="st0" d="M209.3,312.6c0-0.7,0-63.2,0-63.6c0-0.3,0-1.3,0-1.6c0-0.7-0.3-1.4-0.7-1.5
				c-0.1,0-4,0-4.3,0.1c0,0-59.1-0.1-59.5-0.1c-0.1,0-4,0-4.3,0.1c0,0-0.2,0.1-0.2,0.3c-0.1,0.2-0.2,0.5-0.2,0.9c0,0,0,1.4,0,1.5
				c0,0.4,0,63.4,0,63.7c0,0,0,1.4,0,1.5c0,0.4,0.1,0.9,0.6,1.2c0.4,0.2,63.3-0.3,63.8,0c0.4,0.2,4.3,0,4.4,0c0.3,0,0.4-0.4,0.4-0.8
				C209.3,313.9,209.3,312.8,209.3,312.6z"/>
		</g>
		<path class="st0" d="M209.2,276c0.2-0.1,0-0.6,0-0.7c0,0-0.4-0.1-0.8-0.1c-0.3,0-1.3,0-1.6,0c-0.3,0-13,0-26.9,0
			c0-13.7,0-26,0-26.2c0-0.3,0-1.3,0-1.6c0-0.7,0-1.4-0.1-1.5c0,0-0.6,0-0.6,0.1c0,0-8.9-0.1-8.9-0.1c0,0-0.6,0-0.6,0.1
			c0,0,0,0.1,0,0.3c0,0.2,0,0.5,0,0.9c0,0,0,1.4,0,1.5c0,0.2,0,12.7,0,26.5c-13.8,0-26.1,0-26.3,0c-0.3,0-1.3,0-1.6,0
			c-0.7,0-1.4,0-1.5,0.1c0,0,0,0.6,0.1,0.6c0,0-0.1,8.9-0.1,8.9c0,0,0,0.6,0.1,0.6c0,0,0.1,0,0.3,0c0.2,0,0.5,0,0.9,0
			c0,0,1.4,0,1.5,0c0.2,0,12.7,0,26.7,0c0,13.9,0,26.5,0,26.7c0,0,0,1.4,0,1.5c0,0.4,0,0.9,0.1,1.2c0.1,0.2,9.5-0.3,9.6,0
			c0.1,0.2,0.6,0,0.7,0c0,0,0.1-0.4,0.1-0.8c0-0.3,0-1.3,0-1.6c0-0.3,0-13,0-26.9c14,0,26.5,0,26.7,0c0,0,1.4,0,1.5,0
			c0.4,0,0.9,0,1.2-0.1C209.5,285.5,208.9,276.1,209.2,276z"/>
		<g id="XMLID_4163_">
			<path id="XMLID_4164_" class="st0" d="M206.8,315.1c-0.7,0-63.2,0-63.6,0c-0.3,0-1.3,0-1.6,0c-0.7,0-1.4,0-1.5,0.1
				c0,0,0,0.6,0.1,0.6c0,0-0.1,8.9-0.1,8.9c0,0,0,0.6,0.1,0.6c0,0,0.1,0,0.3,0c0.2,0,0.5,0,0.9,0c0,0,1.4,0,1.5,0
				c0.4,0,63.4,0,63.7,0c0,0,1.4,0,1.5,0c0.4,0,0.9,0,1.2-0.1c0.2-0.1-0.3-9.5,0-9.6c0.2-0.1,0-0.6,0-0.7c0,0-0.4-0.1-0.8-0.1
				C208.1,315.1,207.1,315.1,206.8,315.1z"/>
		</g>
		<g id="XMLID_4161_">
			<path id="XMLID_4162_" class="st0" d="M212.7,235.5c-0.8,0-74.7,0-75.2,0c-0.3,0-1.6,0-1.9,0c-0.8,0-1.7,0-1.8,0.1
				c0,0,0,0.6,0.2,0.6c0,0-0.1,8.9-0.2,8.9c0,0,0,0.6,0.2,0.6c0,0,0.2,0,0.3,0c0.2,0,0.6,0,1,0c0,0,1.7,0,1.7,0c0.5,0,75,0,75.4,0
				c0,0,1.7,0,1.7,0c0.5,0,1,0,1.4-0.1c0.3-0.1-0.4-9.5,0-9.6c0.3-0.1,0-0.6,0-0.7c0,0-0.5-0.1-1-0.1
				C214.2,235.5,213,235.5,212.7,235.5z"/>
		</g>
	</g>
	<g>
		<g id="XMLID_4179_">
			<path id="XMLID_4180_" class="st0" d="M309.3,312.6c0-0.7,0-63.2,0-63.6c0-0.3,0-1.3,0-1.6c0-0.7-0.3-1.4-0.7-1.5
				c-0.1,0-4,0-4.3,0.1c0,0-59.1-0.1-59.5-0.1c-0.1,0-4,0-4.3,0.1c0,0-0.2,0.1-0.2,0.3c-0.1,0.2-0.2,0.5-0.2,0.9c0,0,0,1.4,0,1.5
				c0,0.4,0,63.4,0,63.7c0,0,0,1.4,0,1.5c0,0.4,0.1,0.9,0.6,1.2c0.4,0.2,63.3-0.3,63.8,0c0.4,0.2,4.3,0,4.4,0c0.3,0,0.4-0.4,0.4-0.8
				C309.3,313.9,309.3,312.8,309.3,312.6z"/>
		</g>
		<path class="st0" d="M309.2,276c0.2-0.1,0-0.6,0-0.7c0,0-0.4-0.1-0.8-0.1c-0.3,0-1.3,0-1.6,0c-0.3,0-13,0-26.9,0
			c0-13.7,0-26,0-26.2c0-0.3,0-1.3,0-1.6c0-0.7,0-1.4-0.1-1.5c0,0-0.6,0-0.6,0.1c0,0-8.9-0.1-8.9-0.1c0,0-0.6,0-0.6,0.1
			c0,0,0,0.1,0,0.3c0,0.2,0,0.5,0,0.9c0,0,0,1.4,0,1.5c0,0.2,0,12.7,0,26.5c-13.8,0-26.1,0-26.3,0c-0.3,0-1.3,0-1.6,0
			c-0.7,0-1.4,0-1.5,0.1c0,0,0,0.6,0.1,0.6c0,0-0.1,8.9-0.1,8.9c0,0,0,0.6,0.1,0.6c0,0,0.1,0,0.3,0c0.2,0,0.5,0,0.9,0
			c0,0,1.4,0,1.5,0c0.2,0,12.7,0,26.7,0c0,13.9,0,26.5,0,26.7c0,0,0,1.4,0,1.5c0,0.4,0,0.9,0.1,1.2c0.1,0.2,9.5-0.3,9.6,0
			c0.1,0.2,0.6,0,0.7,0c0,0,0.1-0.4,0.1-0.8c0-0.3,0-1.3,0-1.6c0-0.3,0-13,0-26.9c14,0,26.5,0,26.7,0c0,0,1.4,0,1.5,0
			c0.4,0,0.9,0,1.2-0.1C309.5,285.5,308.9,276.1,309.2,276z"/>
		<g id="XMLID_4176_">
			<path id="XMLID_4177_" class="st0" d="M306.8,315.1c-0.7,0-63.2,0-63.6,0c-0.3,0-1.3,0-1.6,0c-0.7,0-1.4,0-1.5,0.1
				c0,0,0,0.6,0.1,0.6c0,0-0.1,8.9-0.1,8.9c0,0,0,0.6,0.1,0.6c0,0,0.1,0,0.3,0c0.2,0,0.5,0,0.9,0c0,0,1.4,0,1.5,0
				c0.4,0,63.4,0,63.7,0c0,0,1.4,0,1.5,0c0.4,0,0.9,0,1.2-0.1c0.2-0.1-0.3-9.5,0-9.6c0.2-0.1,0-0.6,0-0.7c0,0-0.4-0.1-0.8-0.1
				C308.1,315.1,307.1,315.1,306.8,315.1z"/>
		</g>
		<g id="XMLID_4174_">
			<path id="XMLID_4175_" class="st0" d="M312.7,235.5c-0.8,0-74.7,0-75.2,0c-0.3,0-1.6,0-1.9,0c-0.8,0-1.7,0-1.8,0.1
				c0,0,0,0.6,0.2,0.6c0,0-0.1,8.9-0.2,8.9c0,0,0,0.6,0.2,0.6c0,0,0.2,0,0.3,0c0.2,0,0.6,0,1,0c0,0,1.7,0,1.7,0c0.5,0,75,0,75.4,0
				c0,0,1.7,0,1.7,0c0.5,0,1,0,1.4-0.1c0.3-0.1-0.4-9.5,0-9.6c0.3-0.1,0-0.6,0-0.7c0,0-0.5-0.1-1-0.1
				C314.2,235.5,313,235.5,312.7,235.5z"/>
		</g>
	</g>
	<g>
		<g id="XMLID_4232_">
			<path id="XMLID_4233_" class="st0" d="M409.3,312.6c0-0.7,0-63.2,0-63.6c0-0.3,0-1.3,0-1.6c0-0.7-0.3-1.4-0.7-1.5
				c-0.1,0-4,0-4.3,0.1c0,0-59.1-0.1-59.5-0.1c-0.1,0-4,0-4.3,0.1c0,0-0.2,0.1-0.2,0.3c-0.1,0.2-0.2,0.5-0.2,0.9c0,0,0,1.4,0,1.5
				c0,0.4,0,63.4,0,63.7c0,0,0,1.4,0,1.5c0,0.4,0.1,0.9,0.6,1.2c0.4,0.2,63.3-0.3,63.8,0c0.4,0.2,4.3,0,4.4,0c0.3,0,0.4-0.4,0.4-0.8
				C409.3,313.9,409.3,312.8,409.3,312.6z"/>
		</g>
		<path class="st0" d="M409.2,276c0.2-0.1,0-0.6,0-0.7c0,0-0.4-0.1-0.8-0.1c-0.3,0-1.3,0-1.6,0c-0.3,0-13,0-26.9,0
			c0-13.7,0-26,0-26.2c0-0.3,0-1.3,0-1.6c0-0.7,0-1.4-0.1-1.5c0,0-0.6,0-0.6,0.1c0,0-8.9-0.1-8.9-0.1c0,0-0.6,0-0.6,0.1
			c0,0,0,0.1,0,0.3c0,0.2,0,0.5,0,0.9c0,0,0,1.4,0,1.5c0,0.2,0,12.7,0,26.5c-13.8,0-26.1,0-26.3,0c-0.3,0-1.3,0-1.6,0
			c-0.7,0-1.4,0-1.5,0.1c0,0,0,0.6,0.1,0.6c0,0-0.1,8.9-0.1,8.9c0,0,0,0.6,0.1,0.6c0,0,0.1,0,0.3,0c0.2,0,0.5,0,0.9,0
			c0,0,1.4,0,1.5,0c0.2,0,12.7,0,26.7,0c0,13.9,0,26.5,0,26.7c0,0,0,1.4,0,1.5c0,0.4,0,0.9,0.1,1.2c0.1,0.2,9.5-0.3,9.6,0
			c0.1,0.2,0.6,0,0.7,0c0,0,0.1-0.4,0.1-0.8c0-0.3,0-1.3,0-1.6c0-0.3,0-13,0-26.9c14,0,26.5,0,26.7,0c0,0,1.4,0,1.5,0
			c0.4,0,0.9,0,1.2-0.1C409.5,285.5,408.9,276.1,409.2,276z"/>
		<g id="XMLID_4211_">
			<path id="XMLID_4231_" class="st0" d="M406.8,315.1c-0.7,0-63.2,0-63.6,0c-0.3,0-1.3,0-1.6,0c-0.7,0-1.4,0-1.5,0.1
				c0,0,0,0.6,0.1,0.6c0,0-0.1,8.9-0.1,8.9c0,0,0,0.6,0.1,0.6c0,0,0.1,0,0.3,0c0.2,0,0.5,0,0.9,0c0,0,1.4,0,1.5,0
				c0.4,0,63.4,0,63.7,0c0,0,1.4,0,1.5,0c0.4,0,0.9,0,1.2-0.1c0.2-0.1-0.3-9.5,0-9.6c0.2-0.1,0-0.6,0-0.7c0,0-0.4-0.1-0.8-0.1
				C408.1,315.1,407.1,315.1,406.8,315.1z"/>
		</g>
		<g id="XMLID_4189_">
			<path id="XMLID_4210_" class="st0" d="M412.7,235.5c-0.8,0-74.7,0-75.2,0c-0.3,0-1.6,0-1.9,0c-0.8,0-1.7,0-1.8,0.1
				c0,0,0,0.6,0.2,0.6c0,0-0.1,8.9-0.2,8.9c0,0,0,0.6,0.2,0.6c0,0,0.2,0,0.3,0c0.2,0,0.6,0,1,0c0,0,1.7,0,1.7,0c0.5,0,75,0,75.4,0
				c0,0,1.7,0,1.7,0c0.5,0,1,0,1.4-0.1c0.3-0.1-0.4-9.5,0-9.6c0.3-0.1,0-0.6,0-0.7c0,0-0.5-0.1-1-0.1
				C414.2,235.5,413,235.5,412.7,235.5z"/>
		</g>
	</g>
	<g>
		<g id="XMLID_4238_">
			<path id="XMLID_4239_" class="st0" d="M100.3,99c0-0.7,0-63.2,0-63.6c0-0.3,0-1.3,0-1.6c0-0.7-0.3-1.4-0.7-1.5
				c-0.1,0-4,0-4.3,0.1c0,0-59.1-0.1-59.5-0.1c-0.1,0-4,0-4.3,0.1c0,0-0.2,0.1-0.2,0.3c-0.1,0.2-0.2,0.5-0.2,0.9c0,0,0,1.4,0,1.5
				c0,0.4,0,63.4,0,63.7c0,0,0,1.4,0,1.5c0,0.4,0.1,0.9,0.6,1.2c0.4,0.2,63.3-0.3,63.8,0c0.4,0.2,4.3,0,4.4,0c0.3,0,0.4-0.4,0.4-0.8
				C100.3,100.3,100.3,99.3,100.3,99z"/>
		</g>
		<path class="st0" d="M100.2,62.4c0.2-0.1,0-0.6,0-0.7c0,0-0.4-0.1-0.8-0.1c-0.3,0-1.3,0-1.6,0c-0.3,0-13,0-26.9,0
			c0-13.7,0-26,0-26.2c0-0.3,0-1.3,0-1.6c0-0.7,0-1.4-0.1-1.5c0,0-0.6,0-0.6,0.1c0,0-8.9-0.1-8.9-0.1c0,0-0.6,0-0.6,0.1
			c0,0,0,0.1,0,0.3c0,0.2,0,0.5,0,0.9c0,0,0,1.4,0,1.5c0,0.2,0,12.7,0,26.5c-13.8,0-26.1,0-26.3,0c-0.3,0-1.3,0-1.6,0
			c-0.7,0-1.4,0-1.5,0.1c0,0,0,0.6,0.1,0.6c0,0-0.1,8.9-0.1,8.9c0,0,0,0.6,0.1,0.6c0,0,0.1,0,0.3,0c0.2,0,0.5,0,0.9,0
			c0,0,1.4,0,1.5,0c0.2,0,12.7,0,26.7,0c0,13.9,0,26.5,0,26.7c0,0,0,1.4,0,1.5c0,0.4,0,0.9,0.1,1.2c0.1,0.2,9.5-0.3,9.6,0
			c0.1,0.2,0.6,0,0.7,0c0,0,0.1-0.4,0.1-0.8c0-0.3,0-1.3,0-1.6c0-0.3,0-13,0-26.9c14,0,26.5,0,26.7,0c0,0,1.4,0,1.5,0
			c0.4,0,0.9,0,1.2-0.1C100.4,72,99.9,62.5,100.2,62.4z"/>
		<g id="XMLID_4236_">
			<path id="XMLID_4237_" class="st0" d="M97.7,101.5c-0.7,0-63.2,0-63.6,0c-0.3,0-1.3,0-1.6,0c-0.7,0-1.4,0-1.5,0.1
				c0,0,0,0.6,0.1,0.6c0,0-0.1,8.9-0.1,8.9c0,0,0,0.6,0.1,0.6c0,0,0.1,0,0.3,0c0.2,0,0.5,0,0.9,0c0,0,1.4,0,1.5,0
				c0.4,0,63.4,0,63.7,0c0,0,1.4,0,1.5,0c0.4,0,0.9,0,1.2-0.1c0.2-0.1-0.3-9.5,0-9.6c0.2-0.1,0-0.6,0-0.7c0,0-0.4-0.1-0.8-0.1
				C99.1,101.5,98,101.5,97.7,101.5z"/>
		</g>
		<g id="XMLID_4234_">
			<path id="XMLID_4235_" class="st0" d="M103.6,21.9c-0.8,0-74.7,0-75.2,0c-0.3,0-1.6,0-1.9,0c-0.8,0-1.7,0-1.8,0.1
				c0,0,0,0.6,0.2,0.6c0,0-0.1,8.9-0.2,8.9c0,0,0,0.6,0.2,0.6c0,0,0.2,0,0.3,0c0.2,0,0.6,0,1,0c0,0,1.7,0,1.7,0c0.5,0,75,0,75.4,0
				c0,0,1.7,0,1.7,0c0.5,0,1,0,1.4-0.1c0.3-0.1-0.4-9.5,0-9.6c0.3-0.1,0-0.6,0-0.7c0,0-0.5-0.1-1-0.1
				C105.2,21.9,103.9,21.9,103.6,21.9z"/>
		</g>
	</g>
	<g>
		<g id="XMLID_4187_">
			<path id="XMLID_4188_" class="st0" d="M200.3,99c0-0.7,0-63.2,0-63.6c0-0.3,0-1.3,0-1.6c0-0.7-0.3-1.4-0.7-1.5
				c-0.1,0-4,0-4.3,0.1c0,0-59.1-0.1-59.5-0.1c-0.1,0-4,0-4.3,0.1c0,0-0.2,0.1-0.2,0.3c-0.1,0.2-0.2,0.5-0.2,0.9c0,0,0,1.4,0,1.5
				c0,0.4,0,63.4,0,63.7c0,0,0,1.4,0,1.5c0,0.4,0.1,0.9,0.6,1.2c0.4,0.2,63.3-0.3,63.8,0c0.4,0.2,4.3,0,4.4,0c0.3,0,0.4-0.4,0.4-0.8
				C200.3,100.3,200.3,99.3,200.3,99z"/>
		</g>
		<path class="st0" d="M200.2,62.4c0.2-0.1,0-0.6,0-0.7c0,0-0.4-0.1-0.8-0.1c-0.3,0-1.3,0-1.6,0c-0.3,0-13,0-26.9,0
			c0-13.7,0-26,0-26.2c0-0.3,0-1.3,0-1.6c0-0.7,0-1.4-0.1-1.5c0,0-0.6,0-0.6,0.1c0,0-8.9-0.1-8.9-0.1c0,0-0.6,0-0.6,0.1
			c0,0,0,0.1,0,0.3c0,0.2,0,0.5,0,0.9c0,0,0,1.4,0,1.5c0,0.2,0,12.7,0,26.5c-13.8,0-26.1,0-26.3,0c-0.3,0-1.3,0-1.6,0
			c-0.7,0-1.4,0-1.5,0.1c0,0,0,0.6,0.1,0.6c0,0-0.1,8.9-0.1,8.9c0,0,0,0.6,0.1,0.6c0,0,0.1,0,0.3,0c0.2,0,0.5,0,0.9,0
			c0,0,1.4,0,1.5,0c0.2,0,12.7,0,26.7,0c0,13.9,0,26.5,0,26.7c0,0,0,1.4,0,1.5c0,0.4,0,0.9,0.1,1.2c0.1,0.2,9.5-0.3,9.6,0
			c0.1,0.2,0.6,0,0.7,0c0,0,0.1-0.4,0.1-0.8c0-0.3,0-1.3,0-1.6c0-0.3,0-13,0-26.9c14,0,26.5,0,26.7,0c0,0,1.4,0,1.5,0
			c0.4,0,0.9,0,1.2-0.1C200.4,72,199.9,62.5,200.2,62.4z"/>
		<g id="XMLID_4183_">
			<path id="XMLID_4184_" class="st0" d="M197.7,101.5c-0.7,0-63.2,0-63.6,0c-0.3,0-1.3,0-1.6,0c-0.7,0-1.4,0-1.5,0.1
				c0,0,0,0.6,0.1,0.6c0,0-0.1,8.9-0.1,8.9c0,0,0,0.6,0.1,0.6c0,0,0.1,0,0.3,0c0.2,0,0.5,0,0.9,0c0,0,1.4,0,1.5,0
				c0.4,0,63.4,0,63.7,0c0,0,1.4,0,1.5,0c0.4,0,0.9,0,1.2-0.1c0.2-0.1-0.3-9.5,0-9.6c0.2-0.1,0-0.6,0-0.7c0,0-0.4-0.1-0.8-0.1
				C199.1,101.5,198,101.5,197.7,101.5z"/>
		</g>
		<g id="XMLID_4181_">
			<path id="XMLID_4182_" class="st0" d="M203.6,21.9c-0.8,0-74.7,0-75.2,0c-0.3,0-1.6,0-1.9,0c-0.8,0-1.7,0-1.8,0.1
				c0,0,0,0.6,0.2,0.6c0,0-0.1,8.9-0.2,8.9c0,0,0,0.6,0.2,0.6c0,0,0.2,0,0.3,0c0.2,0,0.6,0,1,0c0,0,1.7,0,1.7,0c0.5,0,75,0,75.4,0
				c0,0,1.7,0,1.7,0c0.5,0,1,0,1.4-0.1c0.3-0.1-0.4-9.5,0-9.6c0.3-0.1,0-0.6,0-0.7c0,0-0.5-0.1-1-0.1
				C205.2,21.9,203.9,21.9,203.6,21.9z"/>
		</g>
	</g>
	<g>
		<g id="XMLID_3981_">
			<path id="XMLID_3982_" class="st0" d="M300.3,99c0-0.7,0-63.2,0-63.6c0-0.3,0-1.3,0-1.6c0-0.7-0.3-1.4-0.7-1.5
				c-0.1,0-4,0-4.3,0.1c0,0-59.1-0.1-59.5-0.1c-0.1,0-4,0-4.3,0.1c0,0-0.2,0.1-0.2,0.3c-0.1,0.2-0.2,0.5-0.2,0.9c0,0,0,1.4,0,1.5
				c0,0.4,0,63.4,0,63.7c0,0,0,1.4,0,1.5c0,0.4,0.1,0.9,0.6,1.2c0.4,0.2,63.3-0.3,63.8,0c0.4,0.2,4.3,0,4.4,0c0.3,0,0.4-0.4,0.4-0.8
				C300.3,100.3,300.3,99.3,300.3,99z"/>
		</g>
		<path class="st0" d="M300.2,62.4c0.2-0.1,0-0.6,0-0.7c0,0-0.4-0.1-0.8-0.1c-0.3,0-1.3,0-1.6,0c-0.3,0-13,0-26.9,0
			c0-13.7,0-26,0-26.2c0-0.3,0-1.3,0-1.6c0-0.7,0-1.4-0.1-1.5c0,0-0.6,0-0.6,0.1c0,0-8.9-0.1-8.9-0.1c0,0-0.6,0-0.6,0.1
			c0,0,0,0.1,0,0.3c0,0.2,0,0.5,0,0.9c0,0,0,1.4,0,1.5c0,0.2,0,12.7,0,26.5c-13.8,0-26.1,0-26.3,0c-0.3,0-1.3,0-1.6,0
			c-0.7,0-1.4,0-1.5,0.1c0,0,0,0.6,0.1,0.6c0,0-0.1,8.9-0.1,8.9c0,0,0,0.6,0.1,0.6c0,0,0.1,0,0.3,0c0.2,0,0.5,0,0.9,0
			c0,0,1.4,0,1.5,0c0.2,0,12.7,0,26.7,0c0,13.9,0,26.5,0,26.7c0,0,0,1.4,0,1.5c0,0.4,0,0.9,0.1,1.2c0.1,0.2,9.5-0.3,9.6,0
			c0.1,0.2,0.6,0,0.7,0c0,0,0.1-0.4,0.1-0.8c0-0.3,0-1.3,0-1.6c0-0.3,0-13,0-26.9c14,0,26.5,0,26.7,0c0,0,1.4,0,1.5,0
			c0.4,0,0.9,0,1.2-0.1C300.4,72,299.9,62.5,300.2,62.4z"/>
		<g id="XMLID_3979_">
			<path id="XMLID_3980_" class="st0" d="M297.7,101.5c-0.7,0-63.2,0-63.6,0c-0.3,0-1.3,0-1.6,0c-0.7,0-1.4,0-1.5,0.1
				c0,0,0,0.6,0.1,0.6c0,0-0.1,8.9-0.1,8.9c0,0,0,0.6,0.1,0.6c0,0,0.1,0,0.3,0c0.2,0,0.5,0,0.9,0c0,0,1.4,0,1.5,0
				c0.4,0,63.4,0,63.7,0c0,0,1.4,0,1.5,0c0.4,0,0.9,0,1.2-0.1c0.2-0.1-0.3-9.5,0-9.6c0.2-0.1,0-0.6,0-0.7c0,0-0.4-0.1-0.8-0.1
				C299.1,101.5,298,101.5,297.7,101.5z"/>
		</g>
		<g id="XMLID_3977_">
			<path id="XMLID_3978_" class="st0" d="M303.6,21.9c-0.8,0-74.7,0-75.2,0c-0.3,0-1.6,0-1.9,0c-0.8,0-1.7,0-1.8,0.1
				c0,0,0,0.6,0.2,0.6c0,0-0.1,8.9-0.2,8.9c0,0,0,0.6,0.2,0.6c0,0,0.2,0,0.3,0c0.2,0,0.6,0,1,0c0,0,1.7,0,1.7,0c0.5,0,75,0,75.4,0
				c0,0,1.7,0,1.7,0c0.5,0,1,0,1.4-0.1c0.3-0.1-0.4-9.5,0-9.6c0.3-0.1,0-0.6,0-0.7c0,0-0.5-0.1-1-0.1
				C305.2,21.9,303.9,21.9,303.6,21.9z"/>
		</g>
	</g>
	<g>
		<g id="XMLID_3975_">
			<path id="XMLID_3976_" class="st0" d="M400.3,99c0-0.7,0-63.2,0-63.6c0-0.3,0-1.3,0-1.6c0-0.7-0.3-1.4-0.7-1.5
				c-0.1,0-4,0-4.3,0.1c0,0-59.1-0.1-59.5-0.1c-0.1,0-4,0-4.3,0.1c0,0-0.2,0.1-0.2,0.3c-0.1,0.2-0.2,0.5-0.2,0.9c0,0,0,1.4,0,1.5
				c0,0.4,0,63.4,0,63.7c0,0,0,1.4,0,1.5c0,0.4,0.1,0.9,0.6,1.2c0.4,0.2,63.3-0.3,63.8,0c0.4,0.2,4.3,0,4.4,0c0.3,0,0.4-0.4,0.4-0.8
				C400.3,100.3,400.3,99.3,400.3,99z"/>
		</g>
		<path class="st0" d="M400.2,62.4c0.2-0.1,0-0.6,0-0.7c0,0-0.4-0.1-0.8-0.1c-0.3,0-1.3,0-1.6,0c-0.3,0-13,0-26.9,0
			c0-13.7,0-26,0-26.2c0-0.3,0-1.3,0-1.6c0-0.7,0-1.4-0.1-1.5c0,0-0.6,0-0.6,0.1c0,0-8.9-0.1-8.9-0.1c0,0-0.6,0-0.6,0.1
			c0,0,0,0.1,0,0.3c0,0.2,0,0.5,0,0.9c0,0,0,1.4,0,1.5c0,0.2,0,12.7,0,26.5c-13.8,0-26.1,0-26.3,0c-0.3,0-1.3,0-1.6,0
			c-0.7,0-1.4,0-1.5,0.1c0,0,0,0.6,0.1,0.6c0,0-0.1,8.9-0.1,8.9c0,0,0,0.6,0.1,0.6c0,0,0.1,0,0.3,0c0.2,0,0.5,0,0.9,0
			c0,0,1.4,0,1.5,0c0.2,0,12.7,0,26.7,0c0,13.9,0,26.5,0,26.7c0,0,0,1.4,0,1.5c0,0.4,0,0.9,0.1,1.2c0.1,0.2,9.5-0.3,9.6,0
			c0.1,0.2,0.6,0,0.7,0c0,0,0.1-0.4,0.1-0.8c0-0.3,0-1.3,0-1.6c0-0.3,0-13,0-26.9c14,0,26.5,0,26.7,0c0,0,1.4,0,1.5,0
			c0.4,0,0.9,0,1.2-0.1C400.4,72,399.9,62.5,400.2,62.4z"/>
		<g id="XMLID_3973_">
			<path id="XMLID_3974_" class="st0" d="M397.7,101.5c-0.7,0-63.2,0-63.6,0c-0.3,0-1.3,0-1.6,0c-0.7,0-1.4,0-1.5,0.1
				c0,0,0,0.6,0.1,0.6c0,0-0.1,8.9-0.1,8.9c0,0,0,0.6,0.1,0.6c0,0,0.1,0,0.3,0c0.2,0,0.5,0,0.9,0c0,0,1.4,0,1.5,0
				c0.4,0,63.4,0,63.7,0c0,0,1.4,0,1.5,0c0.4,0,0.9,0,1.2-0.1c0.2-0.1-0.3-9.5,0-9.6c0.2-0.1,0-0.6,0-0.7c0,0-0.4-0.1-0.8-0.1
				C399.1,101.5,398,101.5,397.7,101.5z"/>
		</g>
		<g id="XMLID_3971_">
			<path id="XMLID_3972_" class="st0" d="M403.6,21.9c-0.8,0-74.7,0-75.2,0c-0.3,0-1.6,0-1.9,0c-0.8,0-1.7,0-1.8,0.1
				c0,0,0,0.6,0.2,0.6c0,0-0.1,8.9-0.2,8.9c0,0,0,0.6,0.2,0.6c0,0,0.2,0,0.3,0c0.2,0,0.6,0,1,0c0,0,1.7,0,1.7,0c0.5,0,75,0,75.4,0
				c0,0,1.7,0,1.7,0c0.5,0,1,0,1.4-0.1c0.3-0.1-0.4-9.5,0-9.6c0.3-0.1,0-0.6,0-0.7c0,0-0.5-0.1-1-0.1
				C405.2,21.9,403.9,21.9,403.6,21.9z"/>
		</g>
	</g>
</g>
<g>
	<g>
		<g>
			<g id="XMLID_4531_">
				<path id="XMLID_4532_" class="st0" d="M149.8,426.2c0-0.7,0-63.2,0-63.6c0-0.3,0-1.3,0-1.6c0-0.7-0.3-1.4-0.7-1.5
					c-0.1,0-4,0-4.3,0.1c0,0-59.1-0.1-59.5-0.1c-0.1,0-4,0-4.3,0.1c0,0-0.2,0.1-0.2,0.3c-0.1,0.2-0.2,0.5-0.2,0.9c0,0,0,1.4,0,1.5
					c0,0.4,0,63.4,0,63.7c0,0,0,1.4,0,1.5c0,0.4,0.1,0.9,0.6,1.2c0.4,0.2,63.3-0.3,63.8,0c0.4,0.2,4.3,0,4.4,0
					c0.3,0,0.4-0.4,0.4-0.8C149.8,427.5,149.8,426.4,149.8,426.2z"/>
			</g>
			<path class="st0" d="M149.7,389.6c0.2-0.1,0-0.6,0-0.7c0,0-0.4-0.1-0.8-0.1c-0.3,0-1.3,0-1.6,0c-0.3,0-13,0-26.9,0
				c0-13.7,0-26,0-26.2c0-0.3,0-1.3,0-1.6c0-0.7,0-1.4-0.1-1.5c0,0-0.6,0-0.6,0.1c0,0-8.9-0.1-8.9-0.1c0,0-0.6,0-0.6,0.1
				c0,0,0,0.1,0,0.3c0,0.2,0,0.5,0,0.9c0,0,0,1.4,0,1.5c0,0.2,0,12.7,0,26.5c-13.8,0-26.1,0-26.3,0c-0.3,0-1.3,0-1.6,0
				c-0.7,0-1.4,0-1.5,0.1c0,0,0,0.6,0.1,0.6c0,0-0.1,8.9-0.1,8.9c0,0,0,0.6,0.1,0.6c0,0,0.1,0,0.3,0c0.2,0,0.5,0,0.9,0
				c0,0,1.4,0,1.5,0c0.2,0,12.7,0,26.7,0c0,13.9,0,26.5,0,26.7c0,0,0,1.4,0,1.5c0,0.4,0,0.9,0.1,1.2c0.1,0.2,9.5-0.3,9.6,0
				c0.1,0.2,0.6,0,0.7,0c0,0,0.1-0.4,0.1-0.8c0-0.3,0-1.3,0-1.6c0-0.3,0-13,0-26.9c14,0,26.5,0,26.7,0c0,0,1.4,0,1.5,0
				c0.4,0,0.9,0,1.2-0.1C149.9,399.1,149.4,389.7,149.7,389.6z"/>
			<g id="XMLID_4529_">
				<path id="XMLID_4530_" class="st0" d="M147.3,428.7c-0.7,0-63.2,0-63.6,0c-0.3,0-1.3,0-1.6,0c-0.7,0-1.4,0-1.5,0.1
					c0,0,0,0.6,0.1,0.6c0,0-0.1,8.9-0.1,8.9c0,0,0,0.6,0.1,0.6c0,0,0.1,0,0.3,0c0.2,0,0.5,0,0.9,0c0,0,1.4,0,1.5,0
					c0.4,0,63.4,0,63.7,0c0,0,1.4,0,1.5,0c0.4,0,0.9,0,1.2-0.1c0.2-0.1-0.3-9.5,0-9.6c0.2-0.1,0-0.6,0-0.7c0,0-0.4-0.1-0.8-0.1
					C148.6,428.7,147.5,428.7,147.3,428.7z"/>
			</g>
			<g id="XMLID_4527_">
				<path id="XMLID_4528_" class="st0" d="M153.1,349.1c-0.8,0-74.7,0-75.2,0c-0.3,0-1.6,0-1.9,0c-0.8,0-1.7,0-1.8,0.1
					c0,0,0,0.6,0.2,0.6c0,0-0.1,8.9-0.2,8.9c0,0,0,0.6,0.2,0.6c0,0,0.2,0,0.3,0c0.2,0,0.6,0,1,0c0,0,1.7,0,1.7,0c0.5,0,75,0,75.4,0
					c0,0,1.7,0,1.7,0c0.5,0,1,0,1.4-0.1c0.3-0.1-0.4-9.5,0-9.6c0.3-0.1,0-0.6,0-0.7c0,0-0.5-0.1-1-0.1
					C154.7,349.1,153.4,349.1,153.1,349.1z"/>
			</g>
		</g>
		<g>
			<g id="XMLID_4525_">
				<path id="XMLID_4526_" class="st0" d="M249.8,426.2c0-0.7,0-63.2,0-63.6c0-0.3,0-1.3,0-1.6c0-0.7-0.3-1.4-0.7-1.5
					c-0.1,0-4,0-4.3,0.1c0,0-59.1-0.1-59.5-0.1c-0.1,0-4,0-4.3,0.1c0,0-0.2,0.1-0.2,0.3c-0.1,0.2-0.2,0.5-0.2,0.9c0,0,0,1.4,0,1.5
					c0,0.4,0,63.4,0,63.7c0,0,0,1.4,0,1.5c0,0.4,0.1,0.9,0.6,1.2c0.4,0.2,63.3-0.3,63.8,0c0.4,0.2,4.3,0,4.4,0
					c0.3,0,0.4-0.4,0.4-0.8C249.8,427.5,249.8,426.4,249.8,426.2z"/>
			</g>
			<path class="st0" d="M249.7,389.6c0.2-0.1,0-0.6,0-0.7c0,0-0.4-0.1-0.8-0.1c-0.3,0-1.3,0-1.6,0c-0.3,0-13,0-26.9,0
				c0-13.7,0-26,0-26.2c0-0.3,0-1.3,0-1.6c0-0.7,0-1.4-0.1-1.5c0,0-0.6,0-0.6,0.1c0,0-8.9-0.1-8.9-0.1c0,0-0.6,0-0.6,0.1
				c0,0,0,0.1,0,0.3c0,0.2,0,0.5,0,0.9c0,0,0,1.4,0,1.5c0,0.2,0,12.7,0,26.5c-13.8,0-26.1,0-26.3,0c-0.3,0-1.3,0-1.6,0
				c-0.7,0-1.4,0-1.5,0.1c0,0,0,0.6,0.1,0.6c0,0-0.1,8.9-0.1,8.9c0,0,0,0.6,0.1,0.6c0,0,0.1,0,0.3,0c0.2,0,0.5,0,0.9,0
				c0,0,1.4,0,1.5,0c0.2,0,12.7,0,26.7,0c0,13.9,0,26.5,0,26.7c0,0,0,1.4,0,1.5c0,0.4,0,0.9,0.1,1.2c0.1,0.2,9.5-0.3,9.6,0
				c0.1,0.2,0.6,0,0.7,0c0,0,0.1-0.4,0.1-0.8c0-0.3,0-1.3,0-1.6c0-0.3,0-13,0-26.9c14,0,26.5,0,26.7,0c0,0,1.4,0,1.5,0
				c0.4,0,0.9,0,1.2-0.1C249.9,399.1,249.4,389.7,249.7,389.6z"/>
			<g id="XMLID_4523_">
				<path id="XMLID_4524_" class="st0" d="M247.3,428.7c-0.7,0-63.2,0-63.6,0c-0.3,0-1.3,0-1.6,0c-0.7,0-1.4,0-1.5,0.1
					c0,0,0,0.6,0.1,0.6c0,0-0.1,8.9-0.1,8.9c0,0,0,0.6,0.1,0.6c0,0,0.1,0,0.3,0c0.2,0,0.5,0,0.9,0c0,0,1.4,0,1.5,0
					c0.4,0,63.4,0,63.7,0c0,0,1.4,0,1.5,0c0.4,0,0.9,0,1.2-0.1c0.2-0.1-0.3-9.5,0-9.6c0.2-0.1,0-0.6,0-0.7c0,0-0.4-0.1-0.8-0.1
					C248.6,428.7,247.5,428.7,247.3,428.7z"/>
			</g>
			<g id="XMLID_4445_">
				<path id="XMLID_4472_" class="st0" d="M253.1,349.1c-0.8,0-74.7,0-75.2,0c-0.3,0-1.6,0-1.9,0c-0.8,0-1.7,0-1.8,0.1
					c0,0,0,0.6,0.2,0.6c0,0-0.1,8.9-0.2,8.9c0,0,0,0.6,0.2,0.6c0,0,0.2,0,0.3,0c0.2,0,0.6,0,1,0c0,0,1.7,0,1.7,0c0.5,0,75,0,75.4,0
					c0,0,1.7,0,1.7,0c0.5,0,1,0,1.4-0.1c0.3-0.1-0.4-9.5,0-9.6c0.3-0.1,0-0.6,0-0.7c0,0-0.5-0.1-1-0.1
					C254.7,349.1,253.4,349.1,253.1,349.1z"/>
			</g>
		</g>
		<g>
			<g id="XMLID_4395_">
				<path id="XMLID_4396_" class="st0" d="M349.8,426.2c0-0.7,0-63.2,0-63.6c0-0.3,0-1.3,0-1.6c0-0.7-0.3-1.4-0.7-1.5
					c-0.1,0-4,0-4.3,0.1c0,0-59.1-0.1-59.5-0.1c-0.1,0-4,0-4.3,0.1c0,0-0.2,0.1-0.2,0.3c-0.1,0.2-0.2,0.5-0.2,0.9c0,0,0,1.4,0,1.5
					c0,0.4,0,63.4,0,63.7c0,0,0,1.4,0,1.5c0,0.4,0.1,0.9,0.6,1.2c0.4,0.2,63.3-0.3,63.8,0c0.4,0.2,4.3,0,4.4,0
					c0.3,0,0.4-0.4,0.4-0.8C349.8,427.5,349.8,426.4,349.8,426.2z"/>
			</g>
			<path class="st0" d="M349.7,389.6c0.2-0.1,0-0.6,0-0.7c0,0-0.4-0.1-0.8-0.1c-0.3,0-1.3,0-1.6,0c-0.3,0-13,0-26.9,0
				c0-13.7,0-26,0-26.2c0-0.3,0-1.3,0-1.6c0-0.7,0-1.4-0.1-1.5c0,0-0.6,0-0.6,0.1c0,0-8.9-0.1-8.9-0.1c0,0-0.6,0-0.6,0.1
				c0,0,0,0.1,0,0.3c0,0.2,0,0.5,0,0.9c0,0,0,1.4,0,1.5c0,0.2,0,12.7,0,26.5c-13.8,0-26.1,0-26.3,0c-0.3,0-1.3,0-1.6,0
				c-0.7,0-1.4,0-1.5,0.1c0,0,0,0.6,0.1,0.6c0,0-0.1,8.9-0.1,8.9c0,0,0,0.6,0.1,0.6c0,0,0.1,0,0.3,0c0.2,0,0.5,0,0.9,0
				c0,0,1.4,0,1.5,0c0.2,0,12.7,0,26.7,0c0,13.9,0,26.5,0,26.7c0,0,0,1.4,0,1.5c0,0.4,0,0.9,0.1,1.2c0.1,0.2,9.5-0.3,9.6,0
				c0.1,0.2,0.6,0,0.7,0c0,0,0.1-0.4,0.1-0.8c0-0.3,0-1.3,0-1.6c0-0.3,0-13,0-26.9c14,0,26.5,0,26.7,0c0,0,1.4,0,1.5,0
				c0.4,0,0.9,0,1.2-0.1C349.9,399.1,349.4,389.7,349.7,389.6z"/>
			<g id="XMLID_4393_">
				<path id="XMLID_4394_" class="st0" d="M347.3,428.7c-0.7,0-63.2,0-63.6,0c-0.3,0-1.3,0-1.6,0c-0.7,0-1.4,0-1.5,0.1
					c0,0,0,0.6,0.1,0.6c0,0-0.1,8.9-0.1,8.9c0,0,0,0.6,0.1,0.6c0,0,0.1,0,0.3,0c0.2,0,0.5,0,0.9,0c0,0,1.4,0,1.5,0
					c0.4,0,63.4,0,63.7,0c0,0,1.4,0,1.5,0c0.4,0,0.9,0,1.2-0.1c0.2-0.1-0.3-9.5,0-9.6c0.2-0.1,0-0.6,0-0.7c0,0-0.4-0.1-0.8-0.1
					C348.6,428.7,347.5,428.7,347.3,428.7z"/>
			</g>
			<g id="XMLID_4391_">
				<path id="XMLID_4392_" class="st0" d="M353.1,349.1c-0.8,0-74.7,0-75.2,0c-0.3,0-1.6,0-1.9,0c-0.8,0-1.7,0-1.8,0.1
					c0,0,0,0.6,0.2,0.6c0,0-0.1,8.9-0.2,8.9c0,0,0,0.6,0.2,0.6c0,0,0.2,0,0.3,0c0.2,0,0.6,0,1,0c0,0,1.7,0,1.7,0c0.5,0,75,0,75.4,0
					c0,0,1.7,0,1.7,0c0.5,0,1,0,1.4-0.1c0.3-0.1-0.4-9.5,0-9.6c0.3-0.1,0-0.6,0-0.7c0,0-0.5-0.1-1-0.1
					C354.7,349.1,353.4,349.1,353.1,349.1z"/>
			</g>
		</g>
	</g>
	<g>
		<g id="XMLID_4389_">
			<path id="XMLID_4390_" class="st0" d="M104.8,536.2c0-0.7,0-63.2,0-63.6c0-0.3,0-1.3,0-1.6c0-0.7-0.3-1.4-0.7-1.5
				c-0.1,0-4,0-4.3,0.1c0,0-59.1-0.1-59.5-0.1c-0.1,0-4,0-4.3,0.1c0,0-0.2,0.1-0.2,0.3c-0.1,0.2-0.2,0.5-0.2,0.9c0,0,0,1.4,0,1.5
				c0,0.4,0,63.4,0,63.7c0,0,0,1.4,0,1.5c0,0.4,0.1,0.9,0.6,1.2c0.4,0.2,63.3-0.3,63.8,0c0.4,0.2,4.3,0,4.4,0c0.3,0,0.4-0.4,0.4-0.8
				C104.8,537.5,104.8,536.4,104.8,536.2z"/>
		</g>
		<path class="st0" d="M104.7,499.6c0.2-0.1,0-0.6,0-0.7c0,0-0.4-0.1-0.8-0.1c-0.3,0-1.3,0-1.6,0c-0.3,0-13,0-26.9,0
			c0-13.7,0-26,0-26.2c0-0.3,0-1.3,0-1.6c0-0.7,0-1.4-0.1-1.5c0,0-0.6,0-0.6,0.1c0,0-8.9-0.1-8.9-0.1c0,0-0.6,0-0.6,0.1
			c0,0,0,0.1,0,0.3c0,0.2,0,0.5,0,0.9c0,0,0,1.4,0,1.5c0,0.2,0,12.7,0,26.5c-13.8,0-26.1,0-26.3,0c-0.3,0-1.3,0-1.6,0
			c-0.7,0-1.4,0-1.5,0.1c0,0,0,0.6,0.1,0.6c0,0-0.1,8.9-0.1,8.9c0,0,0,0.6,0.1,0.6c0,0,0.1,0,0.3,0c0.2,0,0.5,0,0.9,0
			c0,0,1.4,0,1.5,0c0.2,0,12.7,0,26.7,0c0,13.9,0,26.5,0,26.7c0,0,0,1.4,0,1.5c0,0.4,0,0.9,0.1,1.2c0.1,0.2,9.5-0.3,9.6,0
			c0.1,0.2,0.6,0,0.7,0c0,0,0.1-0.4,0.1-0.8c0-0.3,0-1.3,0-1.6c0-0.3,0-13,0-26.9c14,0,26.5,0,26.7,0c0,0,1.4,0,1.5,0
			c0.4,0,0.9,0,1.2-0.1C104.9,509.1,104.4,499.7,104.7,499.6z"/>
		<g id="XMLID_4387_">
			<path id="XMLID_4388_" class="st0" d="M102.3,538.7c-0.7,0-63.2,0-63.6,0c-0.3,0-1.3,0-1.6,0c-0.7,0-1.4,0-1.5,0.1
				c0,0,0,0.6,0.1,0.6c0,0-0.1,8.9-0.1,8.9c0,0,0,0.6,0.1,0.6c0,0,0.1,0,0.3,0c0.2,0,0.5,0,0.9,0c0,0,1.4,0,1.5,0
				c0.4,0,63.4,0,63.7,0c0,0,1.4,0,1.5,0c0.4,0,0.9,0,1.2-0.1c0.2-0.1-0.3-9.5,0-9.6c0.2-0.1,0-0.6,0-0.7c0,0-0.4-0.1-0.8-0.1
				C103.6,538.7,102.5,538.7,102.3,538.7z"/>
		</g>
		<g id="XMLID_4374_">
			<path id="XMLID_4386_" class="st0" d="M108.1,459.1c-0.8,0-74.7,0-75.2,0c-0.3,0-1.6,0-1.9,0c-0.8,0-1.7,0-1.8,0.1
				c0,0,0,0.6,0.2,0.6c0,0-0.1,8.9-0.2,8.9c0,0,0,0.6,0.2,0.6c0,0,0.2,0,0.3,0c0.2,0,0.6,0,1,0c0,0,1.7,0,1.7,0c0.5,0,75,0,75.4,0
				c0,0,1.7,0,1.7,0c0.5,0,1,0,1.4-0.1c0.3-0.1-0.4-9.5,0-9.6c0.3-0.1,0-0.6,0-0.7c0,0-0.5-0.1-1-0.1
				C109.7,459.1,108.4,459.1,108.1,459.1z"/>
		</g>
	</g>
	<g>
		<g id="XMLID_4372_">
			<path id="XMLID_4373_" class="st0" d="M204.8,536.2c0-0.7,0-63.2,0-63.6c0-0.3,0-1.3,0-1.6c0-0.7-0.3-1.4-0.7-1.5
				c-0.1,0-4,0-4.3,0.1c0,0-59.1-0.1-59.5-0.1c-0.1,0-4,0-4.3,0.1c0,0-0.2,0.1-0.2,0.3c-0.1,0.2-0.2,0.5-0.2,0.9c0,0,0,1.4,0,1.5
				c0,0.4,0,63.4,0,63.7c0,0,0,1.4,0,1.5c0,0.4,0.1,0.9,0.6,1.2c0.4,0.2,63.3-0.3,63.8,0c0.4,0.2,4.3,0,4.4,0c0.3,0,0.4-0.4,0.4-0.8
				C204.8,537.5,204.8,536.4,204.8,536.2z"/>
		</g>
		<path class="st0" d="M204.7,499.6c0.2-0.1,0-0.6,0-0.7c0,0-0.4-0.1-0.8-0.1c-0.3,0-1.3,0-1.6,0c-0.3,0-13,0-26.9,0
			c0-13.7,0-26,0-26.2c0-0.3,0-1.3,0-1.6c0-0.7,0-1.4-0.1-1.5c0,0-0.6,0-0.6,0.1c0,0-8.9-0.1-8.9-0.1c0,0-0.6,0-0.6,0.1
			c0,0,0,0.1,0,0.3c0,0.2,0,0.5,0,0.9c0,0,0,1.4,0,1.5c0,0.2,0,12.7,0,26.5c-13.8,0-26.1,0-26.3,0c-0.3,0-1.3,0-1.6,0
			c-0.7,0-1.4,0-1.5,0.1c0,0,0,0.6,0.1,0.6c0,0-0.1,8.9-0.1,8.9c0,0,0,0.6,0.1,0.6c0,0,0.1,0,0.3,0c0.2,0,0.5,0,0.9,0
			c0,0,1.4,0,1.5,0c0.2,0,12.7,0,26.7,0c0,13.9,0,26.5,0,26.7c0,0,0,1.4,0,1.5c0,0.4,0,0.9,0.1,1.2c0.1,0.2,9.5-0.3,9.6,0
			c0.1,0.2,0.6,0,0.7,0c0,0,0.1-0.4,0.1-0.8c0-0.3,0-1.3,0-1.6c0-0.3,0-13,0-26.9c14,0,26.5,0,26.7,0c0,0,1.4,0,1.5,0
			c0.4,0,0.9,0,1.2-0.1C204.9,509.1,204.4,499.7,204.7,499.6z"/>
		<g id="XMLID_4326_">
			<path id="XMLID_4327_" class="st0" d="M202.3,538.7c-0.7,0-63.2,0-63.6,0c-0.3,0-1.3,0-1.6,0c-0.7,0-1.4,0-1.5,0.1
				c0,0,0,0.6,0.1,0.6c0,0-0.1,8.9-0.1,8.9c0,0,0,0.6,0.1,0.6c0,0,0.1,0,0.3,0c0.2,0,0.5,0,0.9,0c0,0,1.4,0,1.5,0
				c0.4,0,63.4,0,63.7,0c0,0,1.4,0,1.5,0c0.4,0,0.9,0,1.2-0.1c0.2-0.1-0.3-9.5,0-9.6c0.2-0.1,0-0.6,0-0.7c0,0-0.4-0.1-0.8-0.1
				C203.6,538.7,202.5,538.7,202.3,538.7z"/>
		</g>
		<g id="XMLID_4313_">
			<path id="XMLID_4314_" class="st0" d="M208.1,459.1c-0.8,0-74.7,0-75.2,0c-0.3,0-1.6,0-1.9,0c-0.8,0-1.7,0-1.8,0.1
				c0,0,0,0.6,0.2,0.6c0,0-0.1,8.9-0.2,8.9c0,0,0,0.6,0.2,0.6c0,0,0.2,0,0.3,0c0.2,0,0.6,0,1,0c0,0,1.7,0,1.7,0c0.5,0,75,0,75.4,0
				c0,0,1.7,0,1.7,0c0.5,0,1,0,1.4-0.1c0.3-0.1-0.4-9.5,0-9.6c0.3-0.1,0-0.6,0-0.7c0,0-0.5-0.1-1-0.1
				C209.7,459.1,208.4,459.1,208.1,459.1z"/>
		</g>
	</g>
	<g>
		<g id="XMLID_4311_">
			<path id="XMLID_4312_" class="st0" d="M304.8,536.2c0-0.7,0-63.2,0-63.6c0-0.3,0-1.3,0-1.6c0-0.7-0.3-1.4-0.7-1.5
				c-0.1,0-4,0-4.3,0.1c0,0-59.1-0.1-59.5-0.1c-0.1,0-4,0-4.3,0.1c0,0-0.2,0.1-0.2,0.3c-0.1,0.2-0.2,0.5-0.2,0.9c0,0,0,1.4,0,1.5
				c0,0.4,0,63.4,0,63.7c0,0,0,1.4,0,1.5c0,0.4,0.1,0.9,0.6,1.2c0.4,0.2,63.3-0.3,63.8,0c0.4,0.2,4.3,0,4.4,0c0.3,0,0.4-0.4,0.4-0.8
				C304.8,537.5,304.8,536.4,304.8,536.2z"/>
		</g>
		<path class="st0" d="M304.7,499.6c0.2-0.1,0-0.6,0-0.7c0,0-0.4-0.1-0.8-0.1c-0.3,0-1.3,0-1.6,0c-0.3,0-13,0-26.9,0
			c0-13.7,0-26,0-26.2c0-0.3,0-1.3,0-1.6c0-0.7,0-1.4-0.1-1.5c0,0-0.6,0-0.6,0.1c0,0-8.9-0.1-8.9-0.1c0,0-0.6,0-0.6,0.1
			c0,0,0,0.1,0,0.3c0,0.2,0,0.5,0,0.9c0,0,0,1.4,0,1.5c0,0.2,0,12.7,0,26.5c-13.8,0-26.1,0-26.3,0c-0.3,0-1.3,0-1.6,0
			c-0.7,0-1.4,0-1.5,0.1c0,0,0,0.6,0.1,0.6c0,0-0.1,8.9-0.1,8.9c0,0,0,0.6,0.1,0.6c0,0,0.1,0,0.3,0c0.2,0,0.5,0,0.9,0
			c0,0,1.4,0,1.5,0c0.2,0,12.7,0,26.7,0c0,13.9,0,26.5,0,26.7c0,0,0,1.4,0,1.5c0,0.4,0,0.9,0.1,1.2c0.1,0.2,9.5-0.3,9.6,0
			c0.1,0.2,0.6,0,0.7,0c0,0,0.1-0.4,0.1-0.8c0-0.3,0-1.3,0-1.6c0-0.3,0-13,0-26.9c14,0,26.5,0,26.7,0c0,0,1.4,0,1.5,0
			c0.4,0,0.9,0,1.2-0.1C304.9,509.1,304.4,499.7,304.7,499.6z"/>
		<g id="XMLID_4309_">
			<path id="XMLID_4310_" class="st0" d="M302.3,538.7c-0.7,0-63.2,0-63.6,0c-0.3,0-1.3,0-1.6,0c-0.7,0-1.4,0-1.5,0.1
				c0,0,0,0.6,0.1,0.6c0,0-0.1,8.9-0.1,8.9c0,0,0,0.6,0.1,0.6c0,0,0.1,0,0.3,0c0.2,0,0.5,0,0.9,0c0,0,1.4,0,1.5,0
				c0.4,0,63.4,0,63.7,0c0,0,1.4,0,1.5,0c0.4,0,0.9,0,1.2-0.1c0.2-0.1-0.3-9.5,0-9.6c0.2-0.1,0-0.6,0-0.7c0,0-0.4-0.1-0.8-0.1
				C303.6,538.7,302.5,538.7,302.3,538.7z"/>
		</g>
		<g id="XMLID_4306_">
			<path id="XMLID_4308_" class="st0" d="M308.1,459.1c-0.8,0-74.7,0-75.2,0c-0.3,0-1.6,0-1.9,0c-0.8,0-1.7,0-1.8,0.1
				c0,0,0,0.6,0.2,0.6c0,0-0.1,8.9-0.2,8.9c0,0,0,0.6,0.2,0.6c0,0,0.2,0,0.3,0c0.2,0,0.6,0,1,0c0,0,1.7,0,1.7,0c0.5,0,75,0,75.4,0
				c0,0,1.7,0,1.7,0c0.5,0,1,0,1.4-0.1c0.3-0.1-0.4-9.5,0-9.6c0.3-0.1,0-0.6,0-0.7c0,0-0.5-0.1-1-0.1
				C309.7,459.1,308.4,459.1,308.1,459.1z"/>
		</g>
	</g>
	<g>
		<g id="XMLID_4304_">
			<path id="XMLID_4305_" class="st0" d="M404.8,536.2c0-0.7,0-63.2,0-63.6c0-0.3,0-1.3,0-1.6c0-0.7-0.3-1.4-0.7-1.5
				c-0.1,0-4,0-4.3,0.1c0,0-59.1-0.1-59.5-0.1c-0.1,0-4,0-4.3,0.1c0,0-0.2,0.1-0.2,0.3c-0.1,0.2-0.2,0.5-0.2,0.9c0,0,0,1.4,0,1.5
				c0,0.4,0,63.4,0,63.7c0,0,0,1.4,0,1.5c0,0.4,0.1,0.9,0.6,1.2c0.4,0.2,63.3-0.3,63.8,0c0.4,0.2,4.3,0,4.4,0c0.3,0,0.4-0.4,0.4-0.8
				C404.8,537.5,404.8,536.4,404.8,536.2z"/>
		</g>
		<path class="st0" d="M404.7,499.6c0.2-0.1,0-0.6,0-0.7c0,0-0.4-0.1-0.8-0.1c-0.3,0-1.3,0-1.6,0c-0.3,0-13,0-26.9,0
			c0-13.7,0-26,0-26.2c0-0.3,0-1.3,0-1.6c0-0.7,0-1.4-0.1-1.5c0,0-0.6,0-0.6,0.1c0,0-8.9-0.1-8.9-0.1c0,0-0.6,0-0.6,0.1
			c0,0,0,0.1,0,0.3c0,0.2,0,0.5,0,0.9c0,0,0,1.4,0,1.5c0,0.2,0,12.7,0,26.5c-13.8,0-26.1,0-26.3,0c-0.3,0-1.3,0-1.6,0
			c-0.7,0-1.4,0-1.5,0.1c0,0,0,0.6,0.1,0.6c0,0-0.1,8.9-0.1,8.9c0,0,0,0.6,0.1,0.6c0,0,0.1,0,0.3,0c0.2,0,0.5,0,0.9,0
			c0,0,1.4,0,1.5,0c0.2,0,12.7,0,26.7,0c0,13.9,0,26.5,0,26.7c0,0,0,1.4,0,1.5c0,0.4,0,0.9,0.1,1.2c0.1,0.2,9.5-0.3,9.6,0
			c0.1,0.2,0.6,0,0.7,0c0,0,0.1-0.4,0.1-0.8c0-0.3,0-1.3,0-1.6c0-0.3,0-13,0-26.9c14,0,26.5,0,26.7,0c0,0,1.4,0,1.5,0
			c0.4,0,0.9,0,1.2-0.1C404.9,509.1,404.4,499.7,404.7,499.6z"/>
		<g id="XMLID_4301_">
			<path id="XMLID_4302_" class="st0" d="M402.3,538.7c-0.7,0-63.2,0-63.6,0c-0.3,0-1.3,0-1.6,0c-0.7,0-1.4,0-1.5,0.1
				c0,0,0,0.6,0.1,0.6c0,0-0.1,8.9-0.1,8.9c0,0,0,0.6,0.1,0.6c0,0,0.1,0,0.3,0c0.2,0,0.5,0,0.9,0c0,0,1.4,0,1.5,0
				c0.4,0,63.4,0,63.7,0c0,0,1.4,0,1.5,0c0.4,0,0.9,0,1.2-0.1c0.2-0.1-0.3-9.5,0-9.6c0.2-0.1,0-0.6,0-0.7c0,0-0.4-0.1-0.8-0.1
				C403.6,538.7,402.5,538.7,402.3,538.7z"/>
		</g>
		<g id="XMLID_4299_">
			<path id="XMLID_4300_" class="st0" d="M408.1,459.1c-0.8,0-74.7,0-75.2,0c-0.3,0-1.6,0-1.9,0c-0.8,0-1.7,0-1.8,0.1
				c0,0,0,0.6,0.2,0.6c0,0-0.1,8.9-0.2,8.9c0,0,0,0.6,0.2,0.6c0,0,0.2,0,0.3,0c0.2,0,0.6,0,1,0c0,0,1.7,0,1.7,0c0.5,0,75,0,75.4,0
				c0,0,1.7,0,1.7,0c0.5,0,1,0,1.4-0.1c0.3-0.1-0.4-9.5,0-9.6c0.3-0.1,0-0.6,0-0.7c0,0-0.5-0.1-1-0.1
				C409.7,459.1,408.4,459.1,408.1,459.1z"/>
		</g>
	</g>
	<g>
		<g id="XMLID_4250_">
			<path id="XMLID_4251_" class="st0" d="M104.8,646.2c0-0.7,0-63.2,0-63.6c0-0.3,0-1.3,0-1.6c0-0.7-0.3-1.4-0.7-1.5
				c-0.1,0-4,0-4.3,0.1c0,0-59.1-0.1-59.5-0.1c-0.1,0-4,0-4.3,0.1c0,0-0.2,0.1-0.2,0.3c-0.1,0.2-0.2,0.5-0.2,0.9c0,0,0,1.4,0,1.5
				c0,0.4,0,63.4,0,63.7c0,0,0,1.4,0,1.5c0,0.4,0.1,0.9,0.6,1.2c0.4,0.2,63.3-0.3,63.8,0c0.4,0.2,4.3,0,4.4,0c0.3,0,0.4-0.4,0.4-0.8
				C104.8,647.6,104.8,646.5,104.8,646.2z"/>
		</g>
		<path class="st0" d="M104.7,609.7c0.2-0.1,0-0.6,0-0.7c0,0-0.4-0.1-0.8-0.1c-0.3,0-1.3,0-1.6,0c-0.3,0-13,0-26.9,0
			c0-13.7,0-26,0-26.2c0-0.3,0-1.3,0-1.6c0-0.7,0-1.4-0.1-1.5c0,0-0.6,0-0.6,0.1c0,0-8.9-0.1-8.9-0.1c0,0-0.6,0-0.6,0.1
			c0,0,0,0.1,0,0.3c0,0.2,0,0.5,0,0.9c0,0,0,1.4,0,1.5c0,0.2,0,12.7,0,26.5c-13.8,0-26.1,0-26.3,0c-0.3,0-1.3,0-1.6,0
			c-0.7,0-1.4,0-1.5,0.1c0,0,0,0.6,0.1,0.6c0,0-0.1,8.9-0.1,8.9c0,0,0,0.6,0.1,0.6c0,0,0.1,0,0.3,0c0.2,0,0.5,0,0.9,0
			c0,0,1.4,0,1.5,0c0.2,0,12.7,0,26.7,0c0,13.9,0,26.5,0,26.7c0,0,0,1.4,0,1.5c0,0.4,0,0.9,0.1,1.2c0.1,0.2,9.5-0.3,9.6,0
			c0.1,0.2,0.6,0,0.7,0c0,0,0.1-0.4,0.1-0.8c0-0.3,0-1.3,0-1.6c0-0.3,0-13,0-26.9c14,0,26.5,0,26.7,0c0,0,1.4,0,1.5,0
			c0.4,0,0.9,0,1.2-0.1C104.9,619.2,104.4,609.8,104.7,609.7z"/>
		<g id="XMLID_4248_">
			<path id="XMLID_4249_" class="st0" d="M102.3,648.8c-0.7,0-63.2,0-63.6,0c-0.3,0-1.3,0-1.6,0c-0.7,0-1.4,0-1.5,0.1
				c0,0,0,0.6,0.1,0.6c0,0-0.1,8.9-0.1,8.9c0,0,0,0.6,0.1,0.6c0,0,0.1,0,0.3,0c0.2,0,0.5,0,0.9,0c0,0,1.4,0,1.5,0
				c0.4,0,63.4,0,63.7,0c0,0,1.4,0,1.5,0c0.4,0,0.9,0,1.2-0.1c0.2-0.1-0.3-9.5,0-9.6c0.2-0.1,0-0.6,0-0.7c0,0-0.4-0.1-0.8-0.1
				C103.6,648.8,102.5,648.8,102.3,648.8z"/>
		</g>
		<g id="XMLID_4246_">
			<path id="XMLID_4247_" class="st0" d="M108.1,569.2c-0.8,0-74.7,0-75.2,0c-0.3,0-1.6,0-1.9,0c-0.8,0-1.7,0-1.8,0.1
				c0,0,0,0.6,0.2,0.6c0,0-0.1,8.9-0.2,8.9c0,0,0,0.6,0.2,0.6c0,0,0.2,0,0.3,0c0.2,0,0.6,0,1,0c0,0,1.7,0,1.7,0c0.5,0,75,0,75.4,0
				c0,0,1.7,0,1.7,0c0.5,0,1,0,1.4-0.1c0.3-0.1-0.4-9.5,0-9.6c0.3-0.1,0-0.6,0-0.7c0,0-0.5-0.1-1-0.1
				C109.7,569.2,108.4,569.2,108.1,569.2z"/>
		</g>
	</g>
	<g>
		<g id="XMLID_4244_">
			<path id="XMLID_4245_" class="st0" d="M404.8,646.2c0-0.7,0-63.2,0-63.6c0-0.3,0-1.3,0-1.6c0-0.7-0.3-1.4-0.7-1.5
				c-0.1,0-4,0-4.3,0.1c0,0-59.1-0.1-59.5-0.1c-0.1,0-4,0-4.3,0.1c0,0-0.2,0.1-0.2,0.3c-0.1,0.2-0.2,0.5-0.2,0.9c0,0,0,1.4,0,1.5
				c0,0.4,0,63.4,0,63.7c0,0,0,1.4,0,1.5c0,0.4,0.1,0.9,0.6,1.2c0.4,0.2,63.3-0.3,63.8,0c0.4,0.2,4.3,0,4.4,0c0.3,0,0.4-0.4,0.4-0.8
				C404.8,647.5,404.8,646.4,404.8,646.2z"/>
		</g>
		<path class="st0" d="M404.7,609.6c0.2-0.1,0-0.6,0-0.7c0,0-0.4-0.1-0.8-0.1c-0.3,0-1.3,0-1.6,0c-0.3,0-13,0-26.9,0
			c0-13.7,0-26,0-26.2c0-0.3,0-1.3,0-1.6c0-0.7,0-1.4-0.1-1.5c0,0-0.6,0-0.6,0.1c0,0-8.9-0.1-8.9-0.1c0,0-0.6,0-0.6,0.1
			c0,0,0,0.1,0,0.3c0,0.2,0,0.5,0,0.9c0,0,0,1.4,0,1.5c0,0.2,0,12.7,0,26.5c-13.8,0-26.1,0-26.3,0c-0.3,0-1.3,0-1.6,0
			c-0.7,0-1.4,0-1.5,0.1c0,0,0,0.6,0.1,0.6c0,0-0.1,8.9-0.1,8.9c0,0,0,0.6,0.1,0.6c0,0,0.1,0,0.3,0c0.2,0,0.5,0,0.9,0
			c0,0,1.4,0,1.5,0c0.2,0,12.7,0,26.7,0c0,13.9,0,26.5,0,26.7c0,0,0,1.4,0,1.5c0,0.4,0,0.9,0.1,1.2c0.1,0.2,9.5-0.3,9.6,0
			c0.1,0.2,0.6,0,0.7,0c0,0,0.1-0.4,0.1-0.8c0-0.3,0-1.3,0-1.6c0-0.3,0-13,0-26.9c14,0,26.5,0,26.7,0c0,0,1.4,0,1.5,0
			c0.4,0,0.9,0,1.2-0.1C404.9,619.1,404.4,609.7,404.7,609.6z"/>
		<g id="XMLID_4242_">
			<path id="XMLID_4243_" class="st0" d="M402.3,648.7c-0.7,0-63.2,0-63.6,0c-0.3,0-1.3,0-1.6,0c-0.7,0-1.4,0-1.5,0.1
				c0,0,0,0.6,0.1,0.6c0,0-0.1,8.9-0.1,8.9c0,0,0,0.6,0.1,0.6c0,0,0.1,0,0.3,0c0.2,0,0.5,0,0.9,0c0,0,1.4,0,1.5,0
				c0.4,0,63.4,0,63.7,0c0,0,1.4,0,1.5,0c0.4,0,0.9,0,1.2-0.1c0.2-0.1-0.3-9.5,0-9.6c0.2-0.1,0-0.6,0-0.7c0,0-0.4-0.1-0.8-0.1
				C403.6,648.7,402.5,648.7,402.3,648.7z"/>
		</g>
		<g id="XMLID_4240_">
			<path id="XMLID_4241_" class="st0" d="M408.1,569.1c-0.8,0-74.7,0-75.2,0c-0.3,0-1.6,0-1.9,0c-0.8,0-1.7,0-1.8,0.1
				c0,0,0,0.6,0.2,0.6c0,0-0.1,8.9-0.2,8.9c0,0,0,0.6,0.2,0.6c0,0,0.2,0,0.3,0c0.2,0,0.6,0,1,0c0,0,1.7,0,1.7,0c0.5,0,75,0,75.4,0
				c0,0,1.7,0,1.7,0c0.5,0,1,0,1.4-0.1c0.3-0.1-0.4-9.5,0-9.6c0.3-0.1,0-0.6,0-0.7c0,0-0.5-0.1-1-0.1
				C409.7,569.1,408.4,569.1,408.1,569.1z"/>
		</g>
	</g>
	<g>
		<g id="XMLID_4256_">
			<path id="XMLID_4257_" class="st0" d="M249.8,642.4c0,0.7,0,63.2,0,63.6c0,0.3,0,1.3,0,1.6c0,0.7-0.3,1.4-0.7,1.5
				c-0.1,0-4,0-4.3-0.1c0,0-59.1,0.1-59.5,0.1c-0.1,0-4,0-4.3-0.1c0,0-0.2-0.1-0.2-0.3c-0.1-0.2-0.2-0.5-0.2-0.9c0,0,0-1.4,0-1.5
				c0-0.4,0-63.4,0-63.7c0,0,0-1.4,0-1.5c0-0.4,0.1-0.9,0.6-1.2c0.4-0.2,63.3,0.3,63.8,0c0.4-0.2,4.3,0,4.4,0c0.3,0,0.4,0.4,0.4,0.8
				C249.8,641.1,249.8,642.2,249.8,642.4z"/>
		</g>
		<path class="st0" d="M249.7,679c0.2,0.1,0,0.6,0,0.7c0,0-0.4,0.1-0.8,0.1c-0.3,0-1.3,0-1.6,0c-0.3,0-13,0-26.9,0
			c0,13.7,0,26,0,26.2c0,0.3,0,1.3,0,1.6c0,0.7,0,1.4-0.1,1.5c0,0-0.6,0-0.6-0.1c0,0-8.9,0.1-8.9,0.1c0,0-0.6,0-0.6-0.1
			c0,0,0-0.1,0-0.3c0-0.2,0-0.5,0-0.9c0,0,0-1.4,0-1.5c0-0.2,0-12.7,0-26.5c-13.8,0-26.1,0-26.3,0c-0.3,0-1.3,0-1.6,0
			c-0.7,0-1.4,0-1.5-0.1c0,0,0-0.6,0.1-0.6c0,0-0.1-8.9-0.1-8.9c0,0,0-0.6,0.1-0.6c0,0,0.1,0,0.3,0c0.2,0,0.5,0,0.9,0
			c0,0,1.4,0,1.5,0c0.2,0,12.7,0,26.7,0c0-13.9,0-26.5,0-26.7c0,0,0-1.4,0-1.5c0-0.4,0-0.9,0.1-1.2c0.1-0.2,9.5,0.3,9.6,0
			c0.1-0.2,0.6,0,0.7,0c0,0,0.1,0.4,0.1,0.8c0,0.3,0,1.3,0,1.6c0,0.3,0,13,0,26.9c14,0,26.5,0,26.7,0c0,0,1.4,0,1.5,0
			c0.4,0,0.9,0,1.2,0.1C249.9,669.5,249.4,678.9,249.7,679z"/>
		<g id="XMLID_4254_">
			<path id="XMLID_4255_" class="st0" d="M247.3,639.9c-0.7,0-63.2,0-63.6,0c-0.3,0-1.3,0-1.6,0c-0.7,0-1.4,0-1.5-0.1
				c0,0,0-0.6,0.1-0.6c0,0-0.1-8.9-0.1-8.9c0,0,0-0.6,0.1-0.6c0,0,0.1,0,0.3,0c0.2,0,0.5,0,0.9,0c0,0,1.4,0,1.5,0
				c0.4,0,63.4,0,63.7,0c0,0,1.4,0,1.5,0c0.4,0,0.9,0,1.2,0.1c0.2,0.1-0.3,9.5,0,9.6c0.2,0.1,0,0.6,0,0.7c0,0-0.4,0.1-0.8,0.1
				C248.6,639.9,247.5,639.9,247.3,639.9z"/>
		</g>
		<g id="XMLID_4252_">
			<path id="XMLID_4253_" class="st0" d="M253.1,719.5c-0.8,0-74.7,0-75.2,0c-0.3,0-1.6,0-1.9,0c-0.8,0-1.7,0-1.8-0.1
				c0,0,0-0.6,0.2-0.6c0,0-0.1-8.9-0.2-8.9c0,0,0-0.6,0.2-0.6c0,0,0.2,0,0.3,0c0.2,0,0.6,0,1,0c0,0,1.7,0,1.7,0c0.5,0,75,0,75.4,0
				c0,0,1.7,0,1.7,0c0.5,0,1,0,1.4,0.1c0.3,0.1-0.4,9.5,0,9.6c0.3,0.1,0,0.6,0,0.7c0,0-0.5,0.1-1,0.1
				C254.7,719.5,253.4,719.5,253.1,719.5z"/>
		</g>
	</g>
</g>
</svg>
