<?xml version="1.0" encoding="utf-8"?>
<!-- Generator: Adobe Illustrator 22.1.0, SVG Export Plug-In . SVG Version: 6.00 Build 0)  -->
<svg version="1.1" id="Layer_1" xmlns="http://www.w3.org/2000/svg" xmlns:xlink="http://www.w3.org/1999/xlink" x="0px" y="0px"
	 viewBox="0 0 665.2 429.6" style="enable-background:new 0 0 665.2 429.6;" xml:space="preserve">
<style type="text/css">
	.st0{opacity:0.1;}
	.st1{fill:#FFF5D0;stroke:#584C4F;stroke-width:4;stroke-miterlimit:10;}
</style>
<g id="Layer_5" class="st0">
</g>
<g id="Layer_3" class="st0">
</g>
<g>
	<path id="XMLID_4277_" class="st1" d="M258.1,106.5c-12.8-9-4.9-22.1-4.9-22.1c1.2-2.6,14.5-9.6,18.3-5.5l0,0
		c3.9,4.1,0.9,7.2-0.7,9.1c-1.3,1.4-4.1,1.2-5.3,1c-0.3-0.1-0.6-0.1-0.6-0.1c-2.4-0.4-4.6,0.5-4.1,3.4c0,0,0.1,2.2,1,3.9l0,0
		c0,0,0.6,1.5,1.8,2c0.5,0.2,1,0.2,1.6-0.1h0.1c0.3-0.1,0.6-0.3,1-0.4c2.7-0.8,7.2-1.1,8.1,2.6c1,4.2,0.1,4.7-0.5,5.5l0,0
		c-0.5,0.8-2.3,1.5-2.3,1.5l0,0C267.6,109.4,262.6,109.7,258.1,106.5z"/>
	<g id="XMLID_107_">
		<path id="XMLID_109_" class="st1" d="M289.7,82c0,0-2.8-1.9-4-0.4s-3.2,4.1-0.8,9.2c2.4,5.1,11.6,0.9,12.4-1.5"/>
		<path id="XMLID_108_" class="st1" d="M299.9,86.3L299.9,86.3c-1.7-4.5-5.4-8-11-8.6c-11.2-1.1-15.9,6.2-17.6,10.6
			c0,0-0.4,0.7-0.7,2c-0.2,0.8-0.3,1.4-0.2,1.7c-0.2,2.4,0.2,6,2.5,10.8c1.8,3.9,6.6,5.3,9.7,5.8c0.9,0.2,1.8,0.3,2.8,0.3
			c0.1,0,0.1,0,0.1,0l0,0c1.1,0,2.2-0.2,3.5-0.4c4.9-1.1,8.3-4.3,10.2-8.1c-0.3-4.5-4.2-5-6.5-5.4c-1.3-0.2-2.6,0.6-3.5,1.4
			c-0.1,0.1-0.2,0.2-0.3,0.3c-3.3,2.5-12-2.4-7.5-6c0,0,1.6-1.7,3.4-2.4l0,0c0,0,1.5-0.8,2.7-0.3c0.5,0.2,0.9,0.5,1.2,1.2v0.1
			c0.1,0.3,0.3,0.6,0.5,1c1.5,2.4,4.9,5.7,8,3.4c3.6-2.6,3.2-3.6,3.3-4.6l0,0C300.8,88,299.9,86.3,299.9,86.3z"/>
	</g>
	<g id="XMLID_103_">
		<g id="XMLID_105_">
			<path id="XMLID_106_" class="st1" d="M227.7,90.3c0,0,2.1-11.1-7.3-8c-9.4,3.2-3.7,27.5,1.2,26.5
				C226.7,107.8,229,103.9,227.7,90.3z"/>
		</g>
		<path id="XMLID_104_" class="st1" d="M222.6,67.2c0,0,10.6,6.1,0.2,10.5C212.4,82.2,215.5,61.7,222.6,67.2z"/>
	</g>
	<g id="XMLID_100_">
		<path id="XMLID_102_" class="st1" d="M235.8,82.1c0,0-1.3-6.2-7.4-4.1c-6.1,2.2-3.1,25.9-0.3,27.7
			C230.9,107.7,238.8,118.9,235.8,82.1z"/>
		<path id="XMLID_101_" class="st1" d="M234.3,93.5c0,0,10.7-10.6,8.6,9.2c0,0,2.6,6.1,7.5,3.6s5.8-34-18.3-25.2"/>
	</g>
	<g id="XMLID_210_">
		<path id="XMLID_4375_" class="st1" d="M213.9,88.4c0,0,5.4-0.3,4.8-4.8c-0.5-3.6-15.6-10.1-21.8-2.3c-1.6,2-2.6,5.1-2.6,9.4l0,0
			c0.4,1.5,1.2,2.7,2.2,3.7c0.4,0.4,0.8,0.8,1.2,1c2.8,2.1,6.7,3,10.1,3.1c-0.5,1.9-2.8,3-10.2-0.6c0,0-5.4,0.3-4.8,4.8
			c0.5,3.6,15.6,10.1,21.8,2.3c1.6-2,2.6-5.1,2.6-9.4l0,0c-0.4-1.5-1.2-2.7-2.2-3.8c-0.4-0.4-0.8-0.8-1.2-1c-2.8-2.1-6.7-3-10.1-3.1
			C204.2,85.9,206.5,84.8,213.9,88.4z"/>
		<path id="XMLID_4414_" class="st1" d="M207.1,94c0,0,5.2,11.2-9.4,4c0,0-5.4,0.3-4.8,4.8s24.5,13.8,24.4-7.1"/>
		<path id="XMLID_4415_" class="st1" d="M204.5,92.5c0,0-5.2-11.2,9.4-4c0,0,5.4-0.3,4.8-4.8s-24.5-13.8-24.4,7.1"/>
	</g>
	<g id="XMLID_5606_">
		<path id="XMLID_5612_" class="st1" d="M384.7,77.5"/>
		<path id="XMLID_5609_" class="st1" d="M392.1,75.5c-11.1-8.2-19.8,2.1-19.8,2.1s-7.1,16.3,6.4,20.6
			C392.4,102.5,403.2,83.6,392.1,75.5z M387.1,87.1c-3.4,8.8-13.8-5-6.4-6C380.7,81.1,390.4,78.3,387.1,87.1z"/>
		<path id="XMLID_5608_" class="st1" d="M387.4,74.8"/>
		<path id="XMLID_5607_" class="st1" d="M396.4,81.6c0.2,15.8,3.2,30.2-13.8,30.1c0,0-9.2-3.8,0-7.9c4.5-2,5.4-6.1,5.3-11.3"/>
	</g>
	<g>
		<path id="XMLID_209_" class="st1" d="M323.8,106c0,0,1.3,7.9,7.7,5.2c6.4-2.8,3.2-32.9,0.3-35.3C328.8,73.5,320.6,59.2,323.8,106z
			"/>
		<g id="XMLID_14319_">
			<path id="XMLID_14320_" class="st1" d="M328.9,82.5c0,0,8-5.4,0.4-9.1S310.6,87.6,314.2,90C317.8,92.3,321.5,91.4,328.9,82.5z"/>
		</g>
		<path id="XMLID_117_" class="st1" d="M340.8,109.7c1.3-0.6,2.2-1.3,2.4-2.1c2.4-8.4-6-6.5-6-6.5c-3.9-0.4-13.8-0.4-17.7,0
			c0,0-8.3-1.9-6,6.5c0.6,2.1,5.2,3.4,10.6,3.8h8.1c1.1-0.1,2.2-0.2,3.2-0.4"/>
	</g>
	<g>
		<path id="XMLID_14866_" class="st1" d="M430.9,88.5c0.2-26.5-30.2-14.8-31-9s6.1,6.1,6.1,6.1c9.9-4.8,12.6-3.1,13.1-0.4
			C419.2,85.2,422.5,99.8,430.9,88.5"/>
		<g id="XMLID_14863_">
			<path id="XMLID_14865_" class="st1" d="M429.7,91.9c0,0,4-5.4-1.7-8.2c-5.7-2.8-22.1,16.4-21.7,19.7S403.2,120.5,429.7,91.9z"/>
		</g>
		<path id="XMLID_14864_" class="st1" d="M429.9,109.7c1.3-0.6,2.2-1.3,2.4-2.1c2.4-8.4-6-6.5-6-6.5c-3.9-0.4-13.8-0.4-17.7,0
			c0,0-8.3-1.9-6,6.5c0.6,2.1,5.2,3.4,10.6,3.8h8.1c1.1-0.1,2.2-0.2,3.2-0.4"/>
	</g>
	<g id="XMLID_110_">
		<path id="XMLID_116_" class="st1" d="M355.4,77.5"/>
		<path id="XMLID_113_" class="st1" d="M362.8,75.5c-11.1-8.2-19.8,2.1-19.8,2.1s-7.1,16.3,6.4,20.6
			C363,102.5,373.9,83.6,362.8,75.5z M357.7,87.1c-3.4,8.8-13.8-5-6.4-6C351.4,81.1,361.1,78.3,357.7,87.1z"/>
		<path id="XMLID_112_" class="st1" d="M358.1,74.8"/>
		<path id="XMLID_111_" class="st1" d="M367.1,81.6c0.2,15.8,3.2,30.2-13.8,30.1c0,0-9.2-3.8,0-7.9c4.5-2,5.4-6.1,5.3-11.3"/>
	</g>
</g>
</svg>
