<?xml version="1.0" encoding="utf-8"?>
<!-- Generator: Adobe Illustrator 23.0.3, SVG Export Plug-In . SVG Version: 6.00 Build 0)  -->
<svg version="1.1" id="Layer_1" xmlns="http://www.w3.org/2000/svg" xmlns:xlink="http://www.w3.org/1999/xlink" x="0px" y="0px"
	 viewBox="0 0 57 51.7" style="enable-background:new 0 0 57 51.7;" xml:space="preserve">
<style type="text/css">
	.st0{fill:#FFFFFF;}
	.st1{fill:#2C2C2C;}
</style>
<g>
	<path class="st0" d="M43.5,16.7c0-0.2-0.1-0.4-0.2-0.6c0-0.1,0.1-0.2,0.1-0.3c0.1-0.3,0.1-0.5,0.1-0.8c0-0.1,0-0.2,0-0.3
		c0-0.2,0-0.3,0-0.5c0-0.3-0.1-0.7-0.2-1c-0.1-0.3-0.3-0.6-0.4-0.9c-0.2-0.3-0.5-0.5-0.7-0.8c-0.3-0.2-0.6-0.4-0.9-0.5
		c-0.2-0.1-0.4-0.1-0.7-0.2c-0.1,0-0.3-0.1-0.4-0.1c-0.1,0-0.3,0-0.4,0c-0.2,0-0.4-0.1-0.6-0.1c-0.4,0-0.9,0-1.3,0.1
		c-0.5,0.1-0.9,0.2-1.3,0.3c-0.4,0.1-0.8,0.2-1.2,0.4c-0.9,0.3-1.7,0.7-2.5,1.1c-0.7,0.4-1.4,0.7-2.1,1.1c-0.4,0.1-0.7,0.3-1.1,0.5
		c-0.2,0.1-0.3,0.1-0.5,0.2c-1.6-1.2-3.2-2.2-5-3.1c-0.8-0.4-1.5-0.7-2.3-1c-0.7-0.2-1.5-0.4-2.3-0.5c-0.7-0.1-1.5,0-2.2,0.2
		c-0.4,0.1-0.8,0.3-1.1,0.6c-0.2,0.2-0.4,0.4-0.6,0.6c-1.2,1.3-2.1,3.1-2.1,4.9c0,0.4,0,0.8,0.1,1.3c0.1,0.5,0.2,0.9,0.3,1.4
		c0.3,0.9,0.7,1.7,1.1,2.4c0,0,0,0.1,0.1,0.1c0.1,0.3,0.3,0.6,0.4,0.9c0.3,0.8,0.7,1.6,1,2.3c0.1,0.2,0.2,0.4,0.4,0.7
		c-1,1.4-2,2.9-2.8,4.5c-0.4,0.8-0.7,1.5-1,2.3c-0.2,0.7-0.4,1.5-0.5,2.3c-0.1,0.7,0,1.5,0.2,2.2c0.1,0.4,0.3,0.8,0.6,1.1
		c0.2,0.2,0.4,0.4,0.6,0.6c1.3,1.2,3.1,2.1,4.9,2.1c0.4,0,0.8,0,1.3-0.1c0.5-0.1,0.9-0.2,1.4-0.3c0.9-0.3,1.7-0.7,2.4-1.1
		c0,0,0.1,0,0.1-0.1c0.3-0.1,0.6-0.3,0.9-0.4c0.8-0.3,1.6-0.7,2.3-1c0.3-0.2,0.7-0.4,1-0.5c0.3,0.2,0.5,0.4,0.8,0.6
		c0.8,0.5,1.6,1,2.4,1.5c0.8,0.5,1.5,1,2.3,1.4c0.4,0.2,0.7,0.4,1.1,0.5c0.2,0.1,0.5,0.1,0.7,0.2c0.2,0,0.3,0.1,0.5,0.1
		c0.3,0,0.6,0,0.8-0.1c0.2,0,0.4-0.1,0.6-0.2c0.1,0,0.2,0.1,0.3,0.1c0.3,0.1,0.5,0.1,0.8,0.1c0.1,0,0.2,0,0.3,0c0.2,0,0.3,0,0.5,0
		c0.3,0,0.7-0.1,1-0.2c0.3-0.1,0.6-0.3,0.9-0.4c0.3-0.2,0.5-0.5,0.8-0.7c0.2-0.3,0.4-0.6,0.5-0.9c0.1-0.2,0.1-0.4,0.2-0.7
		c0-0.1,0.1-0.3,0.1-0.4c0-0.1,0-0.3,0-0.4c0-0.2,0.1-0.4,0.1-0.6c0-0.4,0-0.9-0.1-1.3c-0.1-0.5-0.2-0.9-0.3-1.3
		c-0.1-0.4-0.2-0.8-0.4-1.2c-0.3-0.9-0.7-1.7-1.1-2.5c-0.4-0.7-0.7-1.4-1.1-2.1c-0.1-0.4-0.3-0.7-0.5-1.1c-0.1-0.3-0.3-0.6-0.4-0.8
		c0.3-0.4,0.6-0.8,0.9-1.3c0.5-0.8,1-1.6,1.5-2.4c0.5-0.8,1-1.5,1.4-2.3c0.2-0.4,0.4-0.7,0.5-1.1c0.1-0.2,0.1-0.5,0.2-0.7
		c0-0.2,0.1-0.3,0.1-0.5C43.5,17.2,43.5,17,43.5,16.7z"/>
	<g>
		<path class="st1" d="M44.9,16.3c-0.9-2.8,0.1-5.5-3.8-6.7c-1.5-0.5-3.1-0.4-4.6-0.1c-2,0.4-6.3,3.6-7.9,3.3
			c-0.2,0-2.7-2.3-3.3-2.6c-1.1-0.6-2.2-1.1-3.4-1.5c-1.8-0.6-3.8-0.9-5.6-0.1c-4.6,1.9-5.2,7.7-3.5,11.7c0.3,0.8,0.8,1.6,1.2,2.4
			c1,2.1,0.7,1.9-0.1,3.7c-1.1,2.6-2.9,4.7-3,7.7c-0.2,4.5,4,7.6,8.4,7.4c2.2-0.1,4.1-1.1,6-2.1c0.7-0.3,2-1.2,2.8-1.1
			c1.4,0.1,3.5,2.3,4.8,2.9c2.1,1.1,5.4,1.4,7.7,0.6c4.5-1.6,3.9-7,2.6-10.6c-0.5-1.3-1.3-2.5-1.8-3.8c-0.8-2.1-0.4-1.9,0.9-4
			c1.3-2.1,2.9-4.2,2.7-6.8c-0.2-1.9-3.2-1.9-3,0c0.3,3.6-4.2,5.6-4.4,8.7c-0.2,2.4,2.3,5.1,3,7.3c1.2,3.6,0.8,6-3.2,6.3
			c-3.2,0.3-5.9-2-8.5-3.8c-0.4-0.3-1.1-0.2-1.5,0c-2.1,1.2-6.2,3.5-8.6,3.4c-8.4-0.4-2.9-9.5-0.7-12.8c0.3-0.4,0.2-1.1,0-1.5
			c-2.1-3.8-5.6-10.8,0.3-12.5c2.6-0.7,4.6,0.5,6.8,1.8c1.1,0.7,2.5,2.1,3.8,2.2c2.3,0.2,5.5-2.8,7.8-3.3c2.4-0.5,4.3-0.3,5.2,2.3
			c0.2,0.6-0.1,1.5,0.1,2.2C42.6,18.9,45.5,18.1,44.9,16.3z"/>
	</g>
</g>
</svg>
