<?xml version="1.0" encoding="utf-8"?>
<!-- Generator: Adobe Illustrator 22.1.0, SVG Export Plug-In . SVG Version: 6.00 Build 0)  -->
<svg version="1.1" id="Layer_1" xmlns="http://www.w3.org/2000/svg" xmlns:xlink="http://www.w3.org/1999/xlink" x="0px" y="0px"
	 viewBox="0 0 665.2 429.6" style="enable-background:new 0 0 665.2 429.6;" xml:space="preserve">
<style type="text/css">
	.st0{opacity:0.1;}
	.st1{fill:#FFF5D0;stroke:#584C4F;stroke-width:4;stroke-miterlimit:10;}
	.st2{fill:#FCDE82;stroke:#584C4F;stroke-width:4;stroke-miterlimit:10;}
	.st3{fill:none;stroke:#584C4F;stroke-width:4;stroke-miterlimit:10;}
	.st4{fill:#FCDB77;stroke:#584C4F;stroke-width:4;stroke-miterlimit:10;}
</style>
<g id="Layer_5" class="st0">
</g>
<g id="Layer_3" class="st0">
</g>
<g>
	<g id="XMLID_29350_">
		<g id="XMLID_29352_">
			<path id="XMLID_29356_" class="st1" d="M79.4,27.1"/>
			<path id="XMLID_29354_" class="st1" d="M116.3,18.6c-58.6-43-104.4,11-104.4,11s-37.6,86.1,34,108.9
				C117.4,161.3,174.9,61.7,116.3,18.6z"/>
			<path id="XMLID_29353_" class="st1" d="M93.2,13.2"/>
		</g>
		<path id="XMLID_29351_" class="st1" d="M90.6,120c0,0,5.2,34.9,36.4,16.5s-1.7-48.8-1.7-48.8"/>
	</g>
	<g>
		<path id="XMLID_29347_" class="st2" d="M81.8,58c-5.6-4.1-10.6-4-14.5-2.7c-0.4-0.3-0.8-0.6-1.3-0.8c-7.3-3.6-8.3,8.2-8.2,15.4
			c0,0.5,0,1,0,1.5c0.1,2.3,0.2,3.8,0.2,3.8s3.5,24.4,8.2,22.4c1.8-0.8,3.7-6.7,4.8-13.9C84.1,84.1,92.9,66.2,81.8,58z M76.2,70.9
			c-1,2.6-2.6,3.4-4.2,3.2c-4.3-0.7-8.9-9-2.9-9.9c0,0,0.9-0.3,2.2-0.4C74.2,63.5,78.8,64,76.2,70.9z"/>
		<g id="XMLID_29339_">
			<g id="XMLID_29341_">
				<path id="XMLID_29346_" class="st2" d="M37.8,59.2"/>
				<path id="XMLID_29343_" class="st2" d="M45.6,57.4c-12.5-9.2-22.3,2.3-22.3,2.3s-8,18.4,7.3,23.2C45.9,87.9,58.1,66.6,45.6,57.4
					z M39.9,66.7c4.3,9.7-15,7-9.9,0.3C30.1,66.9,35.6,56.9,39.9,66.7z"/>
				<path id="XMLID_29342_" class="st2" d="M40.7,56.2"/>
			</g>
			<path id="XMLID_29340_" class="st2" d="M40.1,79c0,0,1.1,7.5,7.8,3.5c6.7-3.9-0.4-10.4-0.4-10.4"/>
		</g>
		<path id="XMLID_70_" class="st2" d="M116.6,58c-5.6-4.1-10.6-4-14.5-2.7c-0.4-0.3-0.8-0.6-1.3-0.8c-7.3-3.6-8.3,8.2-8.2,15.4
			c0,0.5,0,1,0,1.5c0.1,2.3,0.2,3.8,0.2,3.8s3.5,24.4,8.2,22.4c1.8-0.8,3.7-6.7,4.8-13.9C118.9,84.1,127.7,66.2,116.6,58z M111,70.9
			c-1,2.6-2.6,3.4-4.2,3.2c-4.3-0.7-8.9-9-2.9-9.9c0,0,0.9-0.3,2.2-0.4C109,63.5,113.6,64,111,70.9z"/>
	</g>
	<line id="XMLID_29361_" class="st3" x1="45.3" y1="129.2" x2="49.3" y2="131"/>
	<path id="XMLID_29360_" class="st4" d="M129.7,120.8c0,0-0.7,3.6-3.6,3.2"/>
	<path id="XMLID_29357_" class="st4" d="M25.9,29.4c0,0-4,1.9-5.2,3.8"/>
</g>
</svg>
