<?xml version="1.0" encoding="utf-8"?>
<!-- Generator: Adobe Illustrator 22.1.0, SVG Export Plug-In . SVG Version: 6.00 Build 0)  -->
<svg version="1.1" id="Layer_1" xmlns="http://www.w3.org/2000/svg" xmlns:xlink="http://www.w3.org/1999/xlink" x="0px" y="0px"
	 viewBox="0 0 1280 720" style="enable-background:new 0 0 1280 720;" xml:space="preserve">
<style type="text/css">
	.st0{fill:#FFD767;stroke:#584C4F;stroke-width:4;stroke-miterlimit:10;}
</style>
<path class="st0" d="M-54.3-14.7c-5.1,8.2-8.6,17.4-9.8,27.5c-3.5,29.3,12,56.9,25.2,81.9C-29.8,112-20,130.3-16,149.5
	c-0.2,0-0.3,0.1-0.3,0.4c0.5,4.2,1.2,8.5,2,12.6c0.3,6.2,0,12.4-1.3,18.7c-0.2,1.1,1.5,1.6,1.7,0.5c0.8-3.7,1.2-7.4,1.5-11.1
	c6.8,27.8,20,53.9,39,75.6c10.9,12.5,24.1,25.1,40.7,29.1c14.9,3.6,30.1-0.8,44.2-5.7c15.4-5.4,31.7-13,48.4-11.8
	c17.5,1.2,28.7,13.7,39.2,26.3c7.8,9.3,16.2,20.2,28.5,23.6c1.9,0.5,4.8,0.3,5.5,2c0.4,1.1-1.4,5.3-1.4,7.1c0,6.1,2.6,12.3,7.1,16.5
	c9.4,8.7,22.7,5,31-3.2c11.9-11.8,13.8-27.6,14.3-43.6c0.6-21.1,2-42.8,21.8-55.1c16.4-10.1,37.1-10,54.1-1.5
	c16.7,8.4,29.1,23.3,37.5,39.7c5.8,11.3,13,22.2,27.5,19c14.7-3.3,22.8-16.6,25.9-30.4c4.3-18.6,4.3-37.2,12.2-54.9
	c7.1-15.9,18-30.1,31.2-41.3c6.9-5.8,14.4-10.9,22.5-14.9c3.7-1.9,7.5-3.5,11.4-4.9c1.8-0.7,4-1.8,6-2c3.9-0.5,3.9,0.4,5.2,4
	c8.3,24.4,22.4,56.3,51.5,60.1c9.9,1.3,20,0.6,23,12.4c2.1,8.2,0.4,17.2,0.7,25.6c0.5,13.2,6.6,23.1,18.5,29.1
	c13.6,6.8,28.6,6.8,43.4,6.8c8.9,0,18,0,26.7,2c11.5,2.6,28.2,10.7,25.2,25.2c-1.9,9-9.6,17.8-15,25c-6.6,8.8-13.6,17.2-20.1,26.2
	c-10.5,14.5-19.4,30.6-21.5,48.7c-1.7,15.1,2,30.3,12.4,41.6c10.2,11.1,24.7,17,39,20.8c16.2,4.3,33.1,6.5,49.8,8.4
	c17.6,2,35.5,2.9,53,0.2c16.2-2.5,31.9-8.3,44.7-18.7c12.8-10.4,21.7-24.5,28.5-39.4c14.8-32.4,20.6-68.8,43.5-97.1
	c10.9-13.5,25.5-25.5,43-28.6c9.3-1.6,20-1,28.3,3.8c12.1,6.9,12.8,19.6,9.7,31.7c-4,16-11.8,30.8-8,47.7
	c3.6,15.8,14.5,29.3,27.6,38.4c16.1,11.2,35.3,16.9,54,22.2c14.7,4.2,30.6,7.9,44.4-0.8c20.8-12.9,26.2-41.3,38.5-60.8
	c9.7-15.5,23.3-24.2,41.9-25.1c18.4-0.9,37.5,3.9,55.4-2.2c32.3-11.2,47.3-50.3,61.9-78.1c19.8-37.6,38.8-75.7,53.3-115.6
	c27.2-75.1,37.7-161.7,2.5-236.1c-6.9-14.5-15.2-28.1-24.8-40.7c12.2-13.1,25.9-27.6,21.8-42c-3.7-13-21.6-22.1-43.2-27.6
	c-6.1-4-14.8-7.2-23.1-9.4c-25.7-6.8-53.3-12.2-81.9-16.4c-74-31.5-156.1-36.9-235.6-34.3c-43.8,1.4-87.6,4.3-131.4,8
	c-6.9-0.2-13.7-0.4-20.5-0.6c-89.5-2.9-179.4-4.6-269.4-5.2c-90.6-0.6-181.9-0.9-272.9,2.1c-81.4,2.7-165.4,9.8-239.7,30.8
	c-60.4,17-114.7,43-142.2,76c-33.3,40-20.5,84,8.5,121.2C-57.6-18.6-56-16.6-54.3-14.7z"/>
</svg>
