<?xml version="1.0" encoding="utf-8"?>
<!-- Generator: Adobe Illustrator 22.1.0, SVG Export Plug-In . SVG Version: 6.00 Build 0)  -->
<svg version="1.1" id="Layer_1" xmlns="http://www.w3.org/2000/svg" xmlns:xlink="http://www.w3.org/1999/xlink" x="0px" y="0px"
	 viewBox="0 0 404.8 249" style="enable-background:new 0 0 404.8 249;" xml:space="preserve">
<style type="text/css">
	.st0{opacity:0.1;fill:#5D5B4C;}
	.st1{fill:#EFE4DA;stroke:#5D5B4C;stroke-miterlimit:10;}
	.st2{fill:#FFF5EB;stroke:#5C5B4B;stroke-linecap:round;stroke-miterlimit:10;}
	.st3{fill:#FFF5EB;}
	.st4{fill:none;stroke:#5C5B4B;stroke-linecap:round;stroke-miterlimit:10;}
</style>
<path class="st0" d="M393.8,103.5c0-0.2,0-0.3,0-0.5c0.3-10.4-1.1-19-3.7-26.1c0,0,0.1,0,0.1,0c0,0,0,0,0,0c0.2,0.1,0.3,0.2,0.3,0.2
	s1.4-12.3-0.6-18.8c-0.2-2.2-1.2-5-3.1-8.5c0,0,0-0.1,0-0.1l0,0c-0.4-0.7-0.9-1.5-1.4-2.3c-2.9-4.5-6.6-8.2-10.8-11
	c-0.1-0.1-0.2-0.3-0.2-0.4c-4.7-7.3-11.6-12.3-18.7-15.6c-0.6-3-3.2-5.9-7-4.4c0,0-0.5,0.5-1.1,1.2c-29.8-12.9-39.2,5.6-42.1,21.5
	c-2.4,0.1-4.7,0.2-6.8,0.3c-1.6-1.2-4.9-3.4-8.4-4.1c-0.7-3.3-1.4-5.5-1.5-6c0,0,0,0,0,0c0-0.1,0-0.1,0-0.1s-1.9-1.7-4.7-3.2
	c-0.3-0.1-0.6-0.3-0.9-0.4c-0.4-0.2-0.9-0.4-1.4-0.6c-0.3-0.1-0.6-0.2-1-0.3c-0.2-0.1-0.3-0.1-0.5-0.1c-0.3-0.1-0.7-0.2-1-0.2
	c-0.5-0.1-1-0.2-1.5-0.2c-5.3-0.3-10.8,3.1-12.5,18c0,0-0.3,6.5-2.3,12.5c-0.1,0.3-0.2,0.7-0.3,1c-0.8,2.3-1.9,4.5-3.3,6.1
	c-0.2,0.2-0.4,0.4-0.6,0.7c-0.7,0.6-1.4,1.1-2.1,1.5c-0.5,0.2-1.1,0.4-1.7,0.5c-0.3,0.1-0.6,0.1-1,0.1c0,0,0,0-0.1,0
	c-0.3,0-0.6,0-0.9,0c-0.9-2.7-1.3-5.3-1-7c0,0-1.1-20.1-13-21.1c-0.1-0.4-0.3-0.9-0.5-1.3c0,0,0,0,0,0c-0.1-0.2-0.2-0.4-0.3-0.6
	c0,0,0-0.1-0.1-0.1c-0.1-0.3-0.3-0.7-0.5-1c-0.1-0.1-0.1-0.3-0.2-0.4c-0.1-0.2-0.2-0.5-0.4-0.7c-0.1-0.2-0.2-0.3-0.3-0.5
	c-0.1-0.1-0.2-0.3-0.2-0.4c-0.2-0.2-0.3-0.5-0.5-0.7c-0.1-0.1-0.2-0.2-0.2-0.3c-0.2-0.2-0.4-0.5-0.5-0.7c-0.1-0.1-0.1-0.2-0.2-0.2
	c-0.2-0.2-0.4-0.4-0.6-0.6c-0.1-0.1-0.1-0.1-0.2-0.2c-0.2-0.2-0.5-0.4-0.7-0.6c-0.1-0.1-0.1-0.1-0.2-0.2c-0.2-0.2-0.5-0.4-0.8-0.6
	c-0.1,0-0.1-0.1-0.2-0.1c-0.3-0.2-0.6-0.4-0.9-0.5c0,0-0.1,0-0.1-0.1c-0.3-0.1-0.6-0.3-0.9-0.4c0,0-0.1,0-0.1,0
	c-0.3-0.1-0.7-0.2-1-0.3c-0.1,0-0.1,0-0.2,0c-0.4-0.1-0.7-0.1-1.1-0.2c-0.1,0-0.1,0-0.2,0c-0.4,0-0.8-0.1-1.2-0.1c0,0-0.1,0-0.1,0
	c-0.4,0-0.8,0-1.3,0.1c-0.1,0-0.1,0-0.2,0c-0.4,0.1-0.9,0.1-1.3,0.2c-0.1,0-0.2,0-0.3,0.1c-0.5,0.1-0.9,0.2-1.4,0.4
	c-0.1,0-0.2,0.1-0.2,0.1c-0.5,0.2-1,0.4-1.6,0.6c0,0,0,0,0,0c0,0,0,0,0,0c-0.3,0.1-0.6,0.3-0.8,0.4c-0.1,0.1-0.2,0.1-0.3,0.2
	c-0.2,0.1-0.3,0.2-0.5,0.3c-0.1,0.1-0.2,0.2-0.3,0.2c-0.2,0.1-0.3,0.2-0.4,0.4c-0.1,0.1-0.2,0.2-0.3,0.3c-0.1,0.1-0.3,0.3-0.4,0.4
	c-0.1,0.1-0.2,0.2-0.3,0.3c-0.1,0.1-0.3,0.3-0.4,0.4c-0.1,0.1-0.2,0.2-0.3,0.4c-0.1,0.2-0.2,0.3-0.3,0.5c-0.1,0.1-0.2,0.3-0.3,0.4
	c-0.1,0.2-0.2,0.4-0.3,0.5c-0.1,0.1-0.2,0.3-0.2,0.4c-0.1,0.2-0.2,0.4-0.3,0.6c-0.1,0.1-0.1,0.3-0.2,0.4c-0.1,0.3-0.2,0.5-0.4,0.8
	c-0.1,0.2-0.2,0.4-0.2,0.6c-0.1,0.3-0.2,0.5-0.3,0.8c-0.1,0.2-0.1,0.4-0.2,0.6c-0.1,0.2-0.1,0.4-0.2,0.6c-0.1,0.2-0.1,0.4-0.2,0.6
	c-0.1,0.2-0.1,0.4-0.2,0.6c-0.1,0.2-0.1,0.5-0.2,0.7c0,0.2-0.1,0.4-0.1,0.6c-0.1,0.2-0.1,0.5-0.2,0.7c0,0.2-0.1,0.4-0.1,0.6
	c0,0.3-0.1,0.5-0.1,0.8c0,0.2-0.1,0.4-0.1,0.6c0,0.3-0.1,0.6-0.1,0.9c0,0.2,0,0.4-0.1,0.5c0,0.3-0.1,0.6-0.1,0.9c0,0.1,0,0.3,0,0.4
	c-0.2,1.7-0.2,3.6-0.2,5.4c0,0.1,0,0.1,0,0.2c0,0.4,0,0.8,0,1.3c0,0.1,0,0.2,0,0.3c0,0.4,0,0.8,0,1.2c0,0.1,0,0.3,0,0.4
	c0,0.4,0,0.8,0.1,1.2c0,0.1,0,0.3,0,0.4c0,0.4,0.1,0.9,0.1,1.3c0,0.1,0,0.2,0,0.3c0,0.5,0.1,0.9,0.1,1.4c0,0.1,0,0.2,0,0.2
	c0.3,2.7,0.8,5.4,1.4,8.1c0,0,0,0,0,0c-0.2,0.1-0.3,0.3-0.5,0.4c0,0-0.1,0-0.1,0.1c-0.2,0.1-0.3,0.3-0.5,0.4c0,0-0.1,0-0.1,0.1
	c-0.2,0.1-0.4,0.3-0.6,0.4c0,0,0,0,0,0c-0.7,0.5-1.4,0.9-2.1,1.4c0,0,0,0-0.1,0c-0.2,0.1-0.5,0.3-0.7,0.4c0,0,0,0,0,0
	c-2.3,1.3-4.9,2.4-7.4,2.7c0,0,0,0,0,0c-1.2-5.7-1.4-14-0.1-25.9c0,0-3.9-9.3-11.5-12.1l0,0c0-0.1-0.1-0.2-0.2-0.3
	c0-0.1-0.1-0.1-0.1-0.2c0-0.1-0.1-0.2-0.1-0.3c0-0.1-0.1-0.1-0.1-0.2c0-0.1-0.1-0.2-0.2-0.3c-0.1-0.1-0.1-0.2-0.2-0.3
	c0-0.1-0.1-0.2-0.1-0.2c-0.1-0.2-0.2-0.3-0.3-0.5c0,0,0-0.1-0.1-0.1c-0.1-0.2-0.3-0.4-0.4-0.6c0-0.1-0.1-0.1-0.1-0.2
	c-0.1-0.2-0.2-0.3-0.3-0.5c0-0.1-0.1-0.1-0.1-0.2c-0.1-0.2-0.2-0.3-0.3-0.5c-0.1-0.1-0.1-0.1-0.2-0.2c-0.1-0.2-0.3-0.3-0.4-0.5
	c-0.1-0.1-0.1-0.1-0.2-0.2c-0.2-0.2-0.3-0.4-0.5-0.6c0,0-0.1-0.1-0.1-0.1c-0.4-0.5-0.8-0.9-1.3-1.4c0,0-0.1-0.1-0.1-0.1
	c-0.2-0.2-0.4-0.4-0.6-0.5c-0.1-0.1-0.1-0.1-0.2-0.2c-0.2-0.2-0.4-0.3-0.6-0.5c-0.1-0.1-0.1-0.1-0.2-0.2c-0.2-0.1-0.4-0.3-0.6-0.4
	c-0.1,0-0.1-0.1-0.2-0.1c-0.2-0.2-0.5-0.3-0.7-0.5c0,0-0.1,0-0.1-0.1c-0.3-0.2-0.6-0.3-0.9-0.5c0,0,0,0,0,0
	c-0.3-0.1-0.6-0.3-0.9-0.4c-0.1,0-0.2-0.1-0.3-0.1c-0.2-0.1-0.5-0.2-0.7-0.3c-0.1,0-0.2-0.1-0.3-0.1c-0.2-0.1-0.5-0.1-0.7-0.2
	c-0.1,0-0.2-0.1-0.3-0.1c-0.2-0.1-0.5-0.1-0.7-0.1c-0.1,0-0.2,0-0.3,0c-0.3,0-0.6-0.1-1-0.1c0,0-0.1,0-0.1,0c-0.4,0-0.7,0-1.1,0
	c-0.1,0-0.2,0-0.3,0c-0.3,0-0.6,0-0.9,0.1c-0.1,0-0.3,0-0.4,0.1c-0.3,0-0.5,0.1-0.8,0.1c-0.2,0-0.3,0.1-0.5,0.1
	c-0.3,0.1-0.5,0.1-0.8,0.2c-0.2,0-0.3,0.1-0.5,0.1c-0.3,0.1-0.6,0.2-0.9,0.3c-0.1,0.1-0.3,0.1-0.4,0.2c-0.4,0.2-0.9,0.4-1.3,0.6
	c-0.2,0.1-0.4,0.2-0.6,0.4c-0.1,0-0.1,0.1-0.2,0.1c-0.2,0.1-0.4,0.3-0.5,0.4c0,0-0.1,0-0.1,0.1c-0.2,0.2-0.4,0.4-0.6,0.6
	c0,0.1-0.1,0.1-0.1,0.2c-0.2,0.2-0.3,0.4-0.5,0.6c0,0.1-0.1,0.1-0.1,0.2c-0.2,0.3-0.4,0.5-0.5,0.8c0,0.1-0.1,0.1-0.1,0.2
	c-0.1,0.2-0.3,0.5-0.4,0.7c0,0.1-0.1,0.2-0.1,0.2c-0.2,0.3-0.3,0.6-0.5,1c0,0.1-0.1,0.1-0.1,0.2c-0.1,0.3-0.3,0.6-0.4,0.9
	c0,0.1-0.1,0.2-0.1,0.3c0,0,0,0.1,0,0.1c-0.2-0.1-0.3-0.3-0.5-0.4c-0.6-0.4-1.1-0.9-1.7-1.3c-6.5-4.8-12.8-7.7-18.7-9.3
	c-0.5-0.1-1.1-0.3-1.6-0.4c-2.7-0.6-5.2-0.9-7.8-1c-1,0-2-0.1-3,0c-1,0-1.9,0.1-2.9,0.2c-1.9,0.2-3.7,0.5-5.5,0.9
	c-1.3,0.3-2.6,0.6-3.9,1c-2.1,0.7-4,1.4-5.9,2.3c-1.1,0.5-2.2,1.1-3.2,1.6c-8.8,4.8-14.3,10.8-15.1,11.8c-0.6-0.5-1.3-1-1.9-1.4
	c-0.6-1-1.7-2.9-3.1-3.8l2.7,3.5c-0.3-0.2-0.5-0.4-0.8-0.5c-1.6-2.5-3.5-4.7-5.6-6.8l0,0c-0.2-0.2-0.3-0.3-0.5-0.5
	c-0.1-0.1-0.2-0.2-0.3-0.3c-0.4-0.4-0.9-0.8-1.4-1.2c-0.1-0.1-0.2-0.1-0.3-0.2c-0.4-0.3-0.9-0.7-1.3-1C80,24,79.9,24,79.8,23.9
	c-0.5-0.3-1-0.7-1.5-1c-0.1-0.1-0.2-0.1-0.4-0.2c-0.5-0.3-1-0.6-1.5-0.9c0,0-0.1,0-0.1,0c-0.5-0.3-1.1-0.6-1.7-0.8
	c-0.1-0.1-0.3-0.1-0.4-0.2c-0.6-0.3-1.2-0.5-1.8-0.7c-0.1,0-0.1,0-0.2-0.1c-0.6-0.2-1.1-0.4-1.7-0.6c-0.1,0-0.3-0.1-0.4-0.1
	c-0.6-0.2-1.3-0.4-1.9-0.5c-0.1,0-0.2-0.1-0.4-0.1c-0.6-0.1-1.2-0.3-1.8-0.4c-0.1,0-0.2,0-0.4-0.1c-0.7-0.1-1.4-0.2-2.1-0.3
	c-0.2,0-0.3,0-0.5-0.1c-0.7-0.1-1.3-0.1-2-0.2c-0.1,0-0.1,0-0.2,0c-0.7,0-1.5-0.1-2.3-0.1c-0.2,0-0.4,0-0.5,0c-0.8,0-1.6,0-2.4,0
	c0,0-0.1,0-0.1,0c-0.8,0-1.5,0.1-2.3,0.2c-0.2,0-0.4,0-0.6,0.1c-0.8,0.1-1.7,0.2-2.5,0.3c-0.1,0-0.3,0-0.4,0.1
	c-0.8,0.1-1.5,0.2-2.3,0.4c-0.2,0-0.3,0.1-0.5,0.1c-0.9,0.2-1.8,0.4-2.7,0.6c-0.2,0-0.4,0.1-0.6,0.1c-0.3,0.1-0.6,0.1-0.9,0.2
	c-2.8-5-8.8-10.7-20.4-6.5c-18.8,6.7-9.6,79.5-0.9,85.1c1.9,1.3,4.6,3.9,7.6,6.1c-6.1,20.1-0.9,60,5.3,71.2l6.4,6.1
	c1.2,1,2.4,2,3.7,2.9c1,2.3,2,4,3.1,4.6c7.8,5.1,28.3,33.5,25.5-42.7c2.7-1.8,5.9-3.4,9-3.7c1.2,5.7,1.4,14,0.1,25.9
	c0,0,3.9,9.3,11.5,12.1c2,3.9,9.6,16.6,22.6,9.9c1.4-0.7,2.8-2.3,3.9-4.4c3.6,3.5,7.8,7,9.8,6.6c6.1-1.3,10.6-4.3,13.2-11l4.2,4.2
	c3.8,4.3,9.2,7.9,16.7,10.3c5.8,1.8,11.4,2.3,16.7,1.6c0,0,0,0,0,0c-0.1,0.4-0.3,0.7-0.4,1.1c0,0,0,0,0,0.1c-0.1,0.3-0.3,0.7-0.5,1
	c0,0,0,0.1,0,0.1c-0.2,0.3-0.3,0.6-0.5,0.9c0,0,0,0.1-0.1,0.1c-0.2,0.3-0.3,0.6-0.5,0.9c0,0.1-0.1,0.1-0.1,0.2
	c-0.2,0.3-0.3,0.5-0.5,0.8c0,0.1-0.1,0.1-0.1,0.2c-0.2,0.3-0.3,0.5-0.5,0.8c-0.1,0.1-0.1,0.2-0.2,0.2c-0.2,0.2-0.4,0.5-0.5,0.7
	c-0.1,0.1-0.1,0.2-0.2,0.3c-0.2,0.2-0.4,0.4-0.5,0.6c-0.1,0.1-0.2,0.2-0.3,0.3c-0.2,0.2-0.4,0.4-0.5,0.6c-0.1,0.1-0.2,0.2-0.3,0.3
	c-0.2,0.2-0.4,0.4-0.6,0.5c-0.1,0.1-0.2,0.2-0.4,0.3c-0.2,0.2-0.4,0.3-0.6,0.5c-0.1,0.1-0.3,0.2-0.4,0.3c-0.2,0.1-0.4,0.3-0.5,0.4
	c-0.2,0.1-0.3,0.2-0.5,0.4c-0.2,0.1-0.3,0.3-0.5,0.4c-0.2,0.1-0.4,0.3-0.6,0.4c-0.2,0.1-0.3,0.2-0.5,0.3c-0.2,0.1-0.5,0.3-0.7,0.4
	c-0.1,0.1-0.3,0.2-0.4,0.2c-0.4,0.2-0.8,0.4-1.2,0.6c-0.5,0.2-0.9,0.5-1.3,0.7c-0.1,0.1-0.3,0.1-0.4,0.2c-0.3,0.2-0.6,0.3-0.8,0.5
	c-0.2,0.1-0.3,0.2-0.5,0.3c-0.2,0.1-0.5,0.3-0.7,0.4c-0.1,0.1-0.3,0.2-0.4,0.3c-0.2,0.1-0.4,0.3-0.6,0.4c-0.1,0.1-0.3,0.2-0.4,0.3
	c-0.2,0.1-0.4,0.3-0.6,0.4c-0.1,0.1-0.2,0.2-0.4,0.3c-0.2,0.2-0.4,0.3-0.6,0.5c-0.1,0.1-0.2,0.1-0.3,0.2c-0.3,0.2-0.5,0.4-0.8,0.7
	c0,0,0,0-0.1,0.1c-0.2,0.2-0.4,0.4-0.6,0.6c-0.1,0.1-0.2,0.2-0.2,0.2c-0.1,0.1-0.3,0.3-0.4,0.4c-0.1,0.1-0.2,0.2-0.2,0.3
	c-0.1,0.1-0.2,0.3-0.3,0.4c-0.1,0.1-0.1,0.2-0.2,0.3c-0.1,0.1-0.2,0.3-0.3,0.4c-0.1,0.1-0.1,0.2-0.2,0.3c-0.1,0.1-0.2,0.3-0.3,0.4
	c-0.1,0.1-0.1,0.2-0.2,0.2c-0.1,0.1-0.2,0.3-0.2,0.4c0,0.1-0.1,0.1-0.1,0.2c-0.1,0.2-0.2,0.4-0.3,0.6c0,0,0,0.1,0,0.1
	c-0.1,0.2-0.1,0.3-0.2,0.5c0,0.1,0,0.2-0.1,0.2c0,0.1-0.1,0.3-0.1,0.4c0,0.1,0,0.2-0.1,0.2c0,0.1,0,0.2-0.1,0.4c0,0.1,0,0.2,0,0.3
	c0,0.1,0,0.2,0,0.4c0,0.1,0,0.2,0,0.2c0,0.1,0,0.2,0,0.4c0,0.1,0,0.2,0,0.2c0,0.1,0,0.3,0,0.4c0,0.1,0,0.1,0,0.2
	c0,0.2,0.1,0.4,0.1,0.6c0,0,0,0.1,0,0.1c0,0.1,0.1,0.3,0.1,0.4c0,0.1,0,0.1,0.1,0.2c0,0.1,0.1,0.2,0.1,0.3c0,0.1,0.1,0.2,0.1,0.2
	c0,0.1,0.1,0.2,0.1,0.3c0,0.1,0.1,0.2,0.1,0.2c0,0.1,0.1,0.2,0.1,0.3c0,0.1,0.1,0.1,0.1,0.2c0.1,0.1,0.1,0.2,0.2,0.3
	c0,0.1,0.1,0.1,0.1,0.2c0.1,0.1,0.1,0.2,0.2,0.4c0,0.1,0.1,0.1,0.1,0.2c0.1,0.2,0.2,0.3,0.3,0.5c0,0,0.1,0.1,0.1,0.1
	c0.1,0.1,0.2,0.2,0.3,0.4c0,0.1,0.1,0.1,0.1,0.2c0.1,0.1,0.2,0.2,0.2,0.3c0.1,0.1,0.1,0.1,0.2,0.2c0.1,0.1,0.2,0.2,0.2,0.3
	c0.1,0.1,0.1,0.1,0.2,0.2c0.1,0.1,0.2,0.2,0.2,0.3c0,0,0.1,0.1,0.1,0.1c1.7,1.8,6,6.8,6.7,8c3.1,5.4,10.9,9,10.9,9
	c34.1,0.2,41-21.7,41.7-52.3c3.2,1.1,6.3,1.8,9,2.2c2.3,0.5,4.8,0.7,7.4,0.7c0.1,0,0.2,0,0.2,0l0,0c2.8,0,5.9-0.4,9.1-1.2
	c10.5-2.4,18.4-8.3,23.6-15.9c0.1,0.1,0.1,0.1,0.2,0.2c0,0,0,0,0,0c0.2,0.2,0.4,0.4,0.6,0.6c0,0,0,0,0,0c0.2,0.2,0.4,0.4,0.7,0.6
	c0,0,0,0,0,0c0.2,0.2,0.5,0.4,0.7,0.7c0,0,0.1,0.1,0.1,0.1c0.1,0.1,0.2,0.2,0.3,0.3c0.1,0.1,0.2,0.2,0.3,0.3c0,0,0.1,0.1,0.1,0.1
	c0.2,0.2,0.5,0.5,0.7,0.7c0,0,0,0,0,0c0.3,0.2,0.5,0.5,0.8,0.8l9.4,9.4c7.6,7.6,19.2,18.6,21.5-22.1c2.1,2.3,4.6,4.5,7.3,6.4
	c1.1,1.6,2.3,3.1,3.6,4.6c0,0,0,0,0,0.1c0,0.3,0,0.5,0,0.8c0,0.1,0,0.3,0,0.4c0,1,0,1.9,0,2.7c0,0,0,0,0,0c0,0.8,0,1.6,0,2.1
	c0,0.2,0,0.4,0,0.6c0,0.5,0,1,0.1,1.6c0,0.2,0,0.3,0.1,0.5c0,0.3,0.1,0.7,0.1,1c0,0.2,0.1,0.4,0.1,0.6c0.1,0.3,0.1,0.6,0.2,0.9
	c0.1,0.2,0.1,0.4,0.2,0.6c0.1,0.3,0.2,0.6,0.3,0.8c0.1,0.2,0.2,0.4,0.3,0.7c0.1,0.3,0.2,0.5,0.3,0.8c0.1,0.2,0.2,0.4,0.3,0.6
	c0.1,0.2,0.2,0.5,0.4,0.7c0.1,0.2,0.2,0.4,0.4,0.6c0.1,0.2,0.3,0.5,0.4,0.7c0.1,0.2,0.3,0.4,0.4,0.6c0.1,0.2,0.3,0.4,0.5,0.6
	c0.2,0.2,0.3,0.4,0.5,0.6c0.2,0.2,0.3,0.4,0.5,0.6c0.2,0.2,0.3,0.4,0.5,0.6c0.2,0.2,0.3,0.4,0.5,0.6c0.2,0.2,0.4,0.4,0.6,0.6
	c0.2,0.2,0.4,0.3,0.5,0.5c0.2,0.2,0.4,0.4,0.6,0.5c0.2,0.2,0.4,0.3,0.6,0.4c0.2,0.2,0.4,0.3,0.6,0.5c0.2,0.1,0.4,0.3,0.6,0.4
	c0.2,0.2,0.5,0.3,0.7,0.5c0.2,0.1,0.3,0.2,0.5,0.3c0.7,0.4,1.3,0.8,2,1.1c0,0,0.1,0,0.1,0c5.9,13.1,25.7,20,34.3,0.9l3-10.7
	c0.1-1.3,0-3.3-0.2-5.6c16.2-5.4,20.3-15.1,23.9-42.1c0.5,0.3,1,0.6,1.6,0.9c6.6,3.2,13.7-17.1,14.8-36.4
	C405.4,106.7,394.5,104.5,393.8,103.5z M243.5,152.2c-0.4-0.1-0.8-0.1-1.2-0.1c-0.2,0-0.4,0-0.6,0c-0.4,0-0.8,0.1-1.2,0.2
	c-0.2,0.1-0.4,0.1-0.6,0.2c-0.3,0.1-0.7,0.2-1,0.4c-0.3,0.1-0.5,0.2-0.8,0.4c-0.6,0.3-1.3,0.7-1.9,1.1c-0.7,0.4-1.3,0.9-1.9,1.4
	c-0.3,0.2-0.5,0.5-0.8,0.7c0,0,0,0,0,0c-0.3,0.2-0.7,0.5-1.1,0.6c-0.1,0.1-0.2,0.1-0.3,0.2c-0.3,0.1-0.6,0.3-0.9,0.4
	c-0.1,0-0.2,0.1-0.3,0.1c-0.4,0.1-0.8,0.2-1.3,0.3c0,0-0.1,0-0.2,0c-0.4,0.1-0.8,0.1-1.2,0.1c-0.1,0-0.2,0-0.4,0c-0.4,0-0.8,0-1.2,0
	c-0.1,0-0.1,0-0.2,0c-0.5,0-1-0.1-1.5-0.2c-0.1,0-0.1,0-0.2,0c-0.4-0.1-0.9-0.2-1.3-0.3c-0.1,0-0.2,0-0.3-0.1
	c-0.5-0.1-1-0.2-1.5-0.4c0,0,0,0,0,0c0.1-1.8,1.2-3.7,3.4-5.4c0,0,2.5-2.6,5.8-4.7c2.8,0.6,6,0.3,9.2-0.5c0.3,0.1,0.7,0.2,1,0.3
	c0.3,0.2,0.6,0.5,0.9,0.7c0,0,0,0,0,0c0.3,0.2,0.6,0.4,1,0.7c0,0,0,0,0,0c0.3,0.2,0.6,0.4,0.9,0.5c0,0,0.1,0.1,0.1,0.1
	c0.3,0.2,0.6,0.3,1,0.5c0,0,0,0,0,0c0.2,0.4,0.4,0.8,0.7,1.2c0.4,0.7,0.9,1.4,1.4,2.1C245.8,152.5,244.5,152.3,243.5,152.2z
	 M167.1,158.3c-0.1,0-0.1,0-0.2,0c-0.2,0-0.4-0.1-0.6-0.1c0,0-0.1,0-0.1,0c-0.2,0-0.5-0.1-0.7-0.2c-2-5.1-1.1-10.2,5.6-11.2
	c0,0,3-0.9,6.5-1c-0.1,0.6-0.3,1.2-0.4,1.9c-0.1,0.3-0.2,0.6-0.3,0.9c-0.1,0.2-0.1,0.4-0.2,0.6c-0.2,0.6-0.4,1.1-0.6,1.7
	c0,0,0,0,0,0c-0.1,0.4-0.3,0.7-0.5,1.1c-0.1,0.1-0.1,0.2-0.2,0.3c-0.1,0.2-0.2,0.5-0.3,0.7c-0.1,0.1-0.1,0.2-0.2,0.3
	c-0.1,0.2-0.2,0.4-0.3,0.6c-0.1,0.1-0.1,0.2-0.2,0.3c-0.1,0.2-0.2,0.4-0.4,0.5c-0.1,0.1-0.1,0.2-0.2,0.3c-0.2,0.2-0.3,0.4-0.5,0.6
	c0,0-0.1,0.1-0.1,0.1c-0.2,0.2-0.4,0.4-0.6,0.6c-0.1,0.1-0.1,0.1-0.2,0.1c-0.1,0.1-0.3,0.3-0.5,0.4c-0.1,0.1-0.1,0.1-0.2,0.2
	c-0.1,0.1-0.3,0.2-0.4,0.3c-0.1,0-0.2,0.1-0.2,0.1c-0.1,0.1-0.3,0.2-0.4,0.2c-0.1,0-0.1,0.1-0.2,0.1c-0.2,0.1-0.4,0.1-0.6,0.2
	c0,0-0.1,0-0.1,0c-0.2,0.1-0.5,0.1-0.7,0.2c0,0-0.1,0-0.1,0c-0.2,0-0.4,0.1-0.6,0.1c-0.1,0-0.1,0-0.2,0c-0.2,0-0.3,0-0.5,0
	c-0.1,0-0.1,0-0.2,0C167.5,158.3,167.3,158.3,167.1,158.3z M140.9,61.8c0,0.1,0,0.2-0.1,0.4c-0.1,0.4-0.2,0.8-0.2,1.2
	c0,0.2-0.1,0.4-0.1,0.6c-0.1,0.4-0.2,0.8-0.3,1.2c-0.1,0.2-0.1,0.4-0.2,0.6c-0.2,0.6-0.4,1.2-0.7,1.8c0,0,0,0,0,0
	c-0.2,0.4-0.3,0.8-0.5,1.1c-0.1,0.1-0.1,0.2-0.2,0.3c-0.1,0.2-0.2,0.5-0.4,0.7c-0.1,0.1-0.1,0.2-0.2,0.3c-0.1,0.2-0.2,0.4-0.4,0.6
	c-0.1,0.1-0.1,0.2-0.2,0.3c-0.1,0.2-0.3,0.4-0.4,0.6c0,0.1-0.1,0.1-0.1,0.2c-0.2,0.3-0.4,0.5-0.6,0.7c0,0-0.1,0-0.1,0.1
	c-0.2,0.2-0.4,0.4-0.6,0.5c-0.1,0.1-0.1,0.1-0.2,0.2c-0.2,0.1-0.3,0.3-0.5,0.4c-0.1,0-0.1,0.1-0.2,0.1c-0.2,0.1-0.3,0.2-0.5,0.3
	c0,0-0.1,0.1-0.1,0.1c-0.5,0.3-1,0.5-1.4,0.6c0,0,0,0,0,0c-0.2,0.1-0.5,0.1-0.7,0.2c0,0-0.1,0-0.1,0c-0.2,0-0.4,0.1-0.7,0.1
	c0,0-0.1,0-0.1,0c-1,0.1-2.1-0.1-3.1-0.4c0,0,0,0,0,0c-2.2-5.4-1.4-10.9,5.7-11.8C133.7,62.9,137,62,140.9,61.8z M182.1,110.2
	c0,0-0.1,0-0.1,0c-0.4-0.2-0.8-0.3-1.2-0.5c0,0-0.1,0-0.1,0c-0.4-0.2-0.9-0.3-1.3-0.4c0,0,0,0,0,0c-3.3-1.1-6.4-1.7-9.4-1.9
	c2.6-2.4,5-5.1,7-8l8.2,8.3c0.7,0.6,1.4,1.3,2.1,1.8c-0.1,0.1-0.2,0.1-0.2,0.2c0,0,0,0,0,0c0,0,0,0,0,0c0,0-0.1,0.1-0.1,0.1
	c0,0,0,0,0,0c0,0,0,0,0,0c-0.1,0.1-0.3,0.2-0.4,0.3c0,0,0,0,0,0c0,0,0,0,0,0c0,0,0,0,0,0c0,0,0,0,0,0c0,0,0,0,0,0
	c-0.1,0.1-0.2,0.2-0.4,0.3c0,0,0,0,0,0s0,0,0,0c0,0-0.1,0.1-0.1,0.1c0,0,0,0,0,0c0,0,0,0,0,0c-0.1,0.1-0.2,0.1-0.3,0.2c0,0,0,0,0,0
	c0,0,0,0,0,0c-0.1,0-0.1,0.1-0.1,0.1c-0.1,0.1-0.2,0.1-0.2,0.2c0,0-0.1,0.1-0.1,0.1c-0.1,0.1-0.2,0.1-0.2,0.2c0,0,0,0,0,0
	c0,0,0,0,0,0c0,0-0.1,0.1-0.1,0.1c0,0,0,0,0,0c0,0,0,0,0,0c-0.4-0.2-0.9-0.4-1.3-0.6c0,0-0.1,0-0.1,0
	C182.9,110.5,182.5,110.3,182.1,110.2z M135.1,121.6c-0.1,0.1-0.1,0.1-0.2,0.2c0,0,0,0-0.1,0.1c-0.1,0.1-0.1,0.1-0.2,0.2
	c0,0,0,0.1-0.1,0.1c0,0-0.1,0.1-0.1,0.1c0,0-0.1,0.1-0.1,0.1c0,0-0.1,0.1-0.1,0.1c0,0-0.1,0.1-0.1,0.1c0,0,0,0-0.1,0.1c0,0,0,0,0,0
	c-0.3-1.1-0.6-2.2-1.1-3.1c1.3,0.2,2.6,0.3,3.9,0.4C136.2,120.5,135.6,121.1,135.1,121.6C135.1,121.6,135.1,121.6,135.1,121.6z
	 M105.5,114.7c-0.6-1-1.7-2.9-3.1-3.8l2.7,3.5c-0.3-0.2-0.5-0.4-0.8-0.5c-0.8-1.2-1.7-2.4-2.6-3.6c1.5-0.9,2.8-2.6,4-4.9l1.5,1.5
	c2.7,2.8,6,5.4,10.2,7.5c-0.4,0.1-0.9,0.2-1.3,0.4c-2.3,0.8-4.2,2-5.8,3.7C108.7,117.2,107.2,115.9,105.5,114.7z M67.2,62.6
	c1.2,5.7,1.4,14,0.1,25.9c0,0,2.1,5.1,6.3,8.9c-0.1,0-0.2,0-0.3,0c-0.8,0-1.6,0-2.4,0c0,0-0.1,0-0.1,0c-0.8,0-1.5,0.1-2.3,0.2
	c-0.2,0-0.4,0-0.6,0.1c-0.8,0.1-1.7,0.2-2.5,0.3c-0.1,0-0.3,0-0.4,0.1c-0.8,0.1-1.5,0.2-2.3,0.4c-0.2,0-0.3,0.1-0.5,0.1
	c-0.9,0.2-1.8,0.4-2.7,0.6c-0.2,0-0.4,0.1-0.6,0.1c-0.3,0.1-0.6,0.1-0.9,0.2c-0.1-0.2-0.3-0.5-0.4-0.7c0.9-7.8,1.1-18.3,0.6-32.4
	C60.8,64.6,64,63,67.2,62.6z M257.2,117.4c0,0,0,0.1,0,0.1c0,1,0,1.9-0.1,2.9c-1.2-1.6-2.5-3.1-4-4.4c0,0-0.1-0.1-0.1-0.1
	c-0.4-0.3-0.7-0.7-1.1-1c-0.1-0.1-0.3-0.2-0.4-0.3c-0.4-0.3-0.7-0.6-1.1-0.8c-0.2-0.1-0.4-0.3-0.6-0.4c-0.4-0.2-0.7-0.5-1.1-0.7
	c-0.2-0.1-0.5-0.3-0.7-0.4c-0.3-0.2-0.7-0.4-1.1-0.6c-0.4-0.2-0.9-0.5-1.3-0.7c-0.4-0.2-0.8-0.4-1.2-0.6c-0.4-0.2-0.8-0.3-1.2-0.5
	c-0.3-0.1-0.6-0.2-0.9-0.3c-0.1,0-0.2-0.1-0.3-0.1c0.5-0.2,1-0.4,1.5-0.6c4,2.8,8.5,4.7,13.7,5.5
	C257.3,115.2,257.2,116.3,257.2,117.4z M259.8,162.9c0,0,0-0.1,0-0.1c-0.1-0.4-0.2-0.8-0.4-1.2c0,0,0,0,0,0c0.4,0.1,0.8,0.1,1.2,0.1
	c0.2,1,0.4,1.9,0.5,2.9c0,0,0,0,0,0c-0.3-0.1-0.7-0.2-1-0.3C260,163.8,259.9,163.3,259.8,162.9z"/>
<g>
	<g>
		<path class="st1" d="M174.2,96.6c10.1,9.5,25.9,13.4,49.3,4.8c0,0,4.2-1.6,9.2-3.7c7.2,5.1,16.3,7.3,27.5,4.7
			C308.1,91,288.7,29,288.7,29s-4.4-3.9-9.5-4.9c-0.8-3.8-1.5-6.1-1.5-6.1s-19.9-17.7-23.5,12.9c0,0-1,20.6-10.4,22.2
			c-0.7,0.1-1.3,0.1-1.9,0.1c-0.9-2.7-1.3-5.3-1-7c0,0-1.1-20.1-13-21.1c-2.4-7-7.5-14.3-18.4-9.5c-8.5,3.7-11,21.7-6.8,39.4
			c-3,2.3-7.7,5.5-12.1,6c-1.2-5.7-1.4-14-0.1-25.9c0,0-3.9-9.3-11.5-12.1c-2-3.9-9.6-16.6-22.6-9.9c-10.6,5.4-15,53.1,7.6,73.3"/>
		<g id="XMLID_2458_">
			<path id="XMLID_2470_" class="st2" d="M280.5,30.9c-1.1-7.7-2.8-12.9-2.8-12.9s-19.9-17.7-23.5,12.9c0,0-1,20.6-10.4,22.2
				c-9.4,1.6-14.9-12.8-13.9-17.9c0,0-1.6-27.9-20.4-19.6s-8.2,87.2,39.7,75.8c25.8-6.1,32.1-27,32.4-44.9"/>
			<g id="XMLID_2468_">
				<path id="XMLID_2469_" class="st2" d="M205.8,52.3c0,0-33,32.6-26.3-28.3c0,0-7.9-18.8-23.2-11s-17.7,104.5,56.2,77.4
					c0,0,19.9-7.6,25.2-11.5"/>
			</g>
			<line id="XMLID_2467_" class="st2" x1="172.1" y1="87.3" x2="175.2" y2="88.7"/>
			<path id="XMLID_2466_" class="st2" d="M244,66.7c0,0,1.2,2.5-0.7,3.6"/>
			<path id="XMLID_2465_" class="st2" d="M276.8,61.5c0,0-0.6,2.3-1.2,3.1"/>
			<path id="XMLID_2464_" class="st2" d="M258.3,29.7c0,0,1-4.3,0-4.3"/>
			<path id="XMLID_2463_" class="st2" d="M163.9,15.5c0,0,4,0.6,3.6,1.2"/>
			<path id="XMLID_2462_" class="st2" d="M189.9,66.9c0,0,4.7-0.7,5-1.6"/>
			<path id="XMLID_2461_" class="st2" d="M213.7,19.4c0,0-3.1,1.5-4,3"/>
			<line id="XMLID_2460_" class="st2" x1="243.8" y1="55.7" x2="247.1" y2="54.8"/>
			<line id="XMLID_2459_" class="st2" x1="250.8" y1="86.3" x2="254.1" y2="85.4"/>
		</g>
		<path id="XMLID_2457_" class="st2" d="M287.6,38.4c0,0-3.8-2.2-5.1-4.7"/>
		<path id="XMLID_2456_" class="st2" d="M271.6,93.4c0,0-3.8-2.2-5.1-4.7"/>
		<path id="XMLID_2455_" class="st2" d="M227.6,95.4c0,0-3.8-2.2-5.1-4.7"/>
		<path id="XMLID_2454_" class="st2" d="M236.6,38.4c0,0-3.8-2.2-5.1-4.7"/>
		<path id="XMLID_2453_" class="st2" d="M186.6,37.4c0,0-3.8-2.2-5.1-4.7"/>
	</g>
	<g>
		<path class="st1" d="M96.2,95.9c4.3,4.5,10.2,8.3,18.2,10.8c46.3,14.7,83.5-49.7,45.6-77.6c-0.4-0.3-0.9-0.6-1.3-1
			c-2.4-3.7-5.6-7.1-9.7-10C111-9.7,81.4,25.3,81.4,25.3s-17.5,40.2,5.5,61.3 M122.7,51.9c0,0,3.4-1,7.2-1.1
			c-0.3,1.7-0.8,3.6-1.6,5.7c-2.7,7-7,8.5-11.3,7.2C114.8,58.3,115.6,52.9,122.7,51.9z"/>
		<g id="XMLID_2439_">
			<path id="XMLID_2452_" class="st2" d="M125.1,23.7"/>
			<path id="XMLID_2449_" class="st2" d="M160.5,31.4c-2.5-4.9-6.3-9.4-11.5-13.2C111-9.7,81.4,25.3,81.4,25.3s-24.3,55.7,22,70.5
				c34.6,11,64.1-22.2,61-51.3 M128.2,56.6c-8.8,22.9-35.9-13-16.6-15.7C111.7,40.9,137,33.7,128.2,56.6z"/>
			<path id="XMLID_2448_" class="st2" d="M134,14.6"/>
			<line id="XMLID_2447_" class="st2" x1="90.7" y1="84.5" x2="93.8" y2="85.9"/>
			<path id="XMLID_2446_" class="st2" d="M137.3,87.3c0,0-0.5,2.7-2.8,2.5"/>
			<path id="XMLID_2445_" class="st2" d="M131.7,57c0,0-0.6,2.3-1.2,3.1"/>
			<path id="XMLID_2444_" class="st2" d="M159.5,55.3c0,0,1-4.3,0-4.3"/>
			<path id="XMLID_2443_" class="st2" d="M131.8,14c0,0,4,0.6,3.6,1.2"/>
			<path id="XMLID_2442_" class="st2" d="M105.8,63.8c0,0,3.9,2.7,4.7,2.2"/>
			<path id="XMLID_2441_" class="st2" d="M88.3,26.1c0,0-3.1,1.5-4,3"/>
			<line id="XMLID_2440_" class="st2" x1="106.6" y1="38.1" x2="109.8" y2="37.2"/>
		</g>
		<path id="XMLID_2438_" class="st2" d="M145.6,100.4c0,0-3.8-2.2-5.1-4.7"/>
		<path id="XMLID_2437_" class="st2" d="M172.6,54.4c0,0-3.8-2.2-5.1-4.7"/>
		<path id="XMLID_2436_" class="st2" d="M113.6,50.4c0,0-3.8-2.2-5.1-4.7"/>
	</g>
	<g>
		<g id="XMLID_2425_">
			<path id="XMLID_2435_" class="st1" d="M45.3,25.4c0,0-3.9-19.2-22.8-12.4s-9.6,79.5-0.9,85.1C30.3,103.7,54.7,138.3,45.3,25.4z"
				/>
			<path id="XMLID_2434_" class="st1" d="M40.9,60.3c0,0,33-32.6,26.3,28.3c0,0,7.9,18.8,23.2,11S108.1-4.9,34.3,22.2"/>
			<line id="XMLID_2433_" class="st1" x1="30.4" y1="97.3" x2="33.5" y2="98.7"/>
			<path id="XMLID_2432_" class="st1" d="M86.7,89.2c0,0,1.2,2.5-0.7,3.6"/>
			<path id="XMLID_2431_" class="st1" d="M94,57.9c0,0-0.6,2.3-1.2,3.1"/>
			<path id="XMLID_2430_" class="st1" d="M41.6,77.3c0,0,1-4.3,0-4.3"/>
			<path id="XMLID_2429_" class="st1" d="M64.9,47.7c0,0,4,0.6,3.6,1.2"/>
			<path id="XMLID_2428_" class="st1" d="M25.6,68c0,0,4.7-0.7,5-1.6"/>
			<path id="XMLID_2427_" class="st1" d="M49.4,23.1c0,0-3.1,1.5-4,3"/>
			<line id="XMLID_2426_" class="st1" x1="21.2" y1="28.2" x2="24.4" y2="27.3"/>
		</g>
		<g>
			<path id="XMLID_2424_" class="st2" d="M34.3,14.4c0,0-3.9-19.2-22.8-12.4s-9.6,79.5-0.9,85.1C19.3,92.7,43.7,127.3,34.3,14.4z"/>
			<path id="XMLID_2423_" class="st3" d="M29.9,49.3c0,0,33-32.6,26.3,28.3c0,0,7.9,18.8,23.2,11S97.1-15.9,23.3,11.2"/>
			<path id="XMLID_2422_" class="st2" d="M72.8,16.2c-10.1-9.7-25.9-13.6-49.5-5"/>
			<path id="XMLID_2421_" class="st4" d="M81.9,29.2c10.7,22.8,6.1,55-2.4,59.4c-15.3,7.9-23.2-11-23.2-11
				c6.7-60.9-26.3-28.3-26.3-28.3"/>
			<line id="XMLID_2420_" class="st2" x1="19.4" y1="86.3" x2="22.5" y2="87.7"/>
			<path id="XMLID_2419_" class="st2" d="M75.7,78.2c0,0,1.2,2.5-0.7,3.6"/>
			<path id="XMLID_2418_" class="st2" d="M83,46.9c0,0-0.6,2.3-1.2,3.1"/>
			<path id="XMLID_2417_" class="st2" d="M30.6,66.3c0,0,1-4.3,0-4.3"/>
			<path id="XMLID_2416_" class="st2" d="M53.9,36.7c0,0,4,0.6,3.6,1.2"/>
			<path id="XMLID_2415_" class="st2" d="M14.6,57c0,0,4.7-0.7,5-1.6"/>
			<path id="XMLID_2414_" class="st2" d="M38.4,12.1c0,0-3.1,1.5-4,3"/>
			<line id="XMLID_2413_" class="st2" x1="10.2" y1="17.2" x2="13.4" y2="16.3"/>
			<path class="st2" d="M29.4,48.9"/>
		</g>
		<path id="XMLID_2412_" class="st2" d="M79.9,24.4c0,0-1.6-3.3-3.5-4.5"/>
		<path id="XMLID_2411_" class="st2" d="M44.6,50.4c0,0-3.8-2.2-5.1-4.7"/>
	</g>
	<g>
		<path class="st1" d="M136.6,174.9c3.8,4.3,9.2,7.9,16.7,10.3c5.8,1.8,11.4,2.3,16.7,1.6c-2.3,6-6.3,10.8-12.7,14
			c-15.6,7.7-13.4,15.2-8.6,20.1c1.7,1.8,6,6.8,6.7,8c3.1,5.4,10.9,9,10.9,9c47.5,0.3,42.2-42.4,41-91.4c0.2-2.4,0.2-4.9-0.1-7.3
			c0-0.4,0-0.8,0-1.3c-0.3-23.3-5.6-30.8-11.4-31.8c-0.1-0.3-0.2-0.5-0.2-0.8c0-0.1-0.1-0.3-0.1-0.4c-0.1-0.2-0.2-0.5-0.2-0.7
			c0-0.1-0.1-0.3-0.1-0.4c-0.1-0.2-0.2-0.4-0.3-0.7c0-0.1-0.1-0.2-0.1-0.4c-0.1-0.2-0.2-0.5-0.3-0.7c0-0.1-0.1-0.2-0.1-0.2
			c-0.1-0.3-0.3-0.6-0.4-0.9c0-0.1-0.1-0.1-0.1-0.2c-0.1-0.2-0.2-0.4-0.3-0.6c-0.1-0.1-0.1-0.2-0.2-0.3c-0.1-0.2-0.2-0.3-0.3-0.5
			c-0.1-0.1-0.1-0.2-0.2-0.3c-0.1-0.1-0.2-0.3-0.3-0.4c-0.1-0.1-0.1-0.2-0.2-0.2c-0.1-0.1-0.2-0.3-0.3-0.4c-0.1-0.1-0.1-0.1-0.2-0.2
			c-0.2-0.2-0.3-0.4-0.5-0.5c0,0,0,0,0,0c-0.2-0.2-0.3-0.3-0.5-0.4c-0.1,0-0.1-0.1-0.2-0.1c-0.1-0.1-0.2-0.2-0.4-0.3
			c-0.1,0-0.1-0.1-0.2-0.1c-0.1-0.1-0.2-0.2-0.3-0.2c-0.1,0-0.1-0.1-0.2-0.1c-0.1-0.1-0.2-0.1-0.4-0.2c-0.1,0-0.1-0.1-0.2-0.1
			c-0.1-0.1-0.3-0.1-0.5-0.2c0,0-0.1,0-0.1,0c-0.2-0.1-0.4-0.1-0.6-0.2c-0.1,0-0.1,0-0.2,0c-0.1,0-0.3-0.1-0.4-0.1
			c-0.1,0-0.1,0-0.2,0c-0.1,0-0.2,0-0.4-0.1c-0.1,0-0.1,0-0.2,0c-0.1,0-0.2,0-0.4,0c-0.1,0-0.1,0-0.2,0c-0.1,0-0.3,0-0.4,0
			c-0.1,0-0.1,0-0.2,0c-0.2,0-0.4,0-0.6,0c0,0-0.1,0-0.1,0c-0.2,0-0.3,0-0.5,0c-0.1,0-0.1,0-0.2,0c-0.1,0-0.3,0-0.4,0.1
			c-0.1,0-0.1,0-0.2,0c-0.1,0-0.2,0-0.4,0.1c-0.1,0-0.1,0-0.2,0c-0.1,0-0.3,0.1-0.4,0.1c-0.1,0-0.1,0-0.2,0.1
			c-0.2,0.1-0.3,0.1-0.5,0.2c0,0,0,0,0,0c-0.2,0.1-0.4,0.1-0.6,0.2c-0.1,0-0.1,0-0.2,0.1c-0.1,0-0.3,0.1-0.4,0.2
			c-0.1,0-0.1,0.1-0.2,0.1c-0.1,0-0.2,0.1-0.3,0.2c-0.1,0-0.1,0.1-0.2,0.1c-0.1,0.1-0.2,0.1-0.3,0.2c-0.1,0-0.1,0.1-0.2,0.1
			c-0.1,0.1-0.3,0.1-0.4,0.2c0,0-0.1,0-0.1,0.1c-0.2,0.1-0.3,0.2-0.5,0.3c0,0-0.1,0-0.1,0.1c-0.1,0.1-0.3,0.1-0.4,0.2
			c-0.1,0-0.1,0.1-0.2,0.1c-0.1,0.1-0.2,0.1-0.3,0.2c-0.1,0-0.1,0.1-0.2,0.1c-0.1,0.1-0.2,0.1-0.3,0.2c-0.1,0-0.1,0.1-0.2,0.1
			c-0.1,0.1-0.2,0.1-0.3,0.2c0,0-0.1,0.1-0.1,0.1c-0.1,0.1-0.3,0.2-0.4,0.3c0,0,0,0-0.1,0c-0.1,0.1-0.2,0.2-0.4,0.3
			c0,0-0.1,0.1-0.1,0.1c-0.1,0.1-0.2,0.1-0.3,0.2c-0.1,0-0.1,0.1-0.1,0.1c-0.1,0.1-0.2,0.1-0.2,0.2c0,0-0.1,0.1-0.1,0.1
			c-0.1,0.1-0.2,0.1-0.2,0.2c0,0-0.1,0.1-0.1,0.1c0,0,0,0,0,0c-29.2-14-50.9,11.6-50.9,11.6s-15.4,35.4,4.8,54.1 M160.1,135.8
			c0,0,3-0.9,6.5-1c-0.3,1.5-0.8,3.2-1.5,5.2c-2.5,6.6-6.6,8.2-10.7,7C152.5,141.8,153.4,136.7,160.1,135.8z"/>
		<g id="XMLID_2394_">
			<path id="XMLID_2408_" class="st2" d="M182.5,105.7c-33.5-24.6-59.7,6.3-59.7,6.3s-21.5,49.2,19.4,62.2
				C183.2,187.2,216,130.3,182.5,105.7z M165.1,140c-8.5,22.2-34.7-12.6-16-15.2C149.1,124.8,173.6,117.8,165.1,140z"/>
			<path id="XMLID_2407_" class="st3" d="M171.4,102.5c0,0,26.1-27.9,26.7,24.5c0.6,52.4,9.4,100.3-40.8,99.9c0,0-27.3-12.7,0-26.2
				c13.4-6.6,16-20.2,15.7-37.4"/>
			<path id="XMLID_2406_" class="st2" d="M161.5,110.5"/>
			<path id="XMLID_2405_" class="st2" d="M169.4,102.5"/>
			<path id="XMLID_2404_" class="st2" d="M198.1,127.7c0.6,52.2,9.2,99.6-40.8,99.3c0,0-27.3-12.7,0-26.2
				c13.4-6.6,16-20.2,15.7-37.4"/>
			<path id="XMLID_2403_" class="st2" d="M171.4,102.5c0,0,18.6-19.8,24.7,5.4"/>
			<line id="XMLID_2402_" class="st2" x1="152.8" y1="220.1" x2="155.9" y2="221.5"/>
			<path id="XMLID_2401_" class="st2" d="M179.8,214.9c0,0,1.2,2.5-0.7,3.6"/>
			<path id="XMLID_2400_" class="st2" d="M193.2,188.6c0,0-0.6,2.3-1.2,3.1"/>
			<path id="XMLID_2399_" class="st2" d="M190.8,155.1c0,0,1-4.3,0-4.3"/>
			<path id="XMLID_2398_" class="st2" d="M133.2,166.2c0,0,4,0.6,3.6,1.2"/>
			<path id="XMLID_2397_" class="st2" d="M182.3,123c0,0,4.7-0.7,5-1.6"/>
			<path id="XMLID_2396_" class="st2" d="M133.6,110.2c0,0-3.1,1.5-4,3"/>
			<line id="XMLID_2395_" class="st2" x1="167.4" y1="146.4" x2="164.5" y2="148.2"/>
		</g>
		<path id="XMLID_2393_" class="st2" d="M152.6,134.4c0,0-3.8-2.2-5.1-4.7"/>
		<path id="XMLID_2392_" class="st2" d="M165.4,181.7c0,0-4.4,0.2-6.8-1.1"/>
		<path id="XMLID_2391_" class="st2" d="M186.6,229.4c0,0-3.8-2.2-5.1-4.7"/>
		<path id="XMLID_2390_" class="st2" d="M202.2,117.5c0,0-2.8-2.3-3.7-4.8"/>
	</g>
	<g>
		<path class="st1" d="M271.2,185.3c10.4,10.3,28,27,19.7-88.5c0,0-2.4-13.7-12.5-15.9c-2.4-6.1-8.3-15-21.3-9.6
			c-18.8,7.9-9.6,92.9-0.9,99.4c1.5,1.1,3.4,3.2,5.5,5.2"/>
		<g>
			<path id="XMLID_2389_" class="st2" d="M279.7,84.7c-1.1-4.4-6.2-20.2-22.5-13.4c-18.8,7.9-9.6,92.9-0.9,99.4
				c8.5,6.5,32.1,45.5,24.1-77.5"/>
			<path id="XMLID_2388_" class="st2" d="M272.2,168.5c0,0,1.2,2.5-0.7,3.6"/>
			<path id="XMLID_2387_" class="st2" d="M278.3,128.1c0,0,0.3,2.3,0,3.3"/>
			<path id="XMLID_2386_" class="st2" d="M254,144c0,0,1-4.3,0-4.3"/>
			<path id="XMLID_2385_" class="st2" d="M259.4,75.9c0,0-3.1,1.5-4,3"/>
		</g>
		<path id="XMLID_2384_" class="st2" d="M283.6,186.4c0,0-3.8-2.2-5.1-4.7"/>
		<path id="XMLID_2383_" class="st2" d="M289.6,102.4c0,0-3.8-2.2-5.1-4.7"/>
	</g>
	<g>
		<path class="st1" d="M195.2,177.9c5.9,6.3,15.2,8.9,21.8,10c2.3,0.5,4.8,0.7,7.4,0.7c0.1,0,0.2,0,0.2,0l0,0c2.8,0,5.9-0.4,9.1-1.2
			c12.9-2.9,21.7-11.2,26.7-21.3c-0.6-8.5-6-11.5-11.2-12.9c-0.2-1-0.4-1.9-0.7-2.7c2.3,0.3,4.7-0.2,7.1-1.9c9.4-6.8,8.3-9.4,8.7-12
			c0,0,0,0,0,0c0.4-2.6-2-6.9-2-6.9l0,0c-2.8-7.3-7.5-13.7-14.3-17.8c-5.2-8.4-13.7-14.5-25.4-15.6c-29.3-2.9-41.4,16.1-46,27.6
			c0,0-1,1.7-1.8,5.1c-0.6,2-0.7,3.7-0.6,4.5c-0.4,6.3,0.6,15.8,6.6,28.2 M232.5,141.2c-3.3-0.5-6.7,1.5-9.2,3.6
			c-0.3,0.2-0.5,0.5-0.8,0.7c-3,2.2-7.5,2.2-11.8,0.8c0.1-1.8,1.2-3.7,3.4-5.4c0,0,2.5-2.6,5.8-4.7c2.8,0.6,6,0.3,9.2-0.5
			c0.3,0.1,0.7,0.2,1,0.3c1.2,1,2.6,1.9,4,2.5c0.2,0.4,0.4,0.8,0.7,1.2c0.4,0.7,0.9,1.4,1.4,2.1
			C234.8,141.5,233.5,141.3,232.5,141.2z"/>
		<path id="XMLID_2382_" class="st1" d="M212.2,130.5c5.4,11.3,24.1,4.3,29.8-1.6"/>
		<path id="XMLID_2381_" class="st2" d="M212.2,130.5c5.4,11.3,24.1,4.3,29.8-1.6"/>
		<g>
			<g>
				<path id="XMLID_2380_" class="st2" d="M250.5,116.9c-4.7-10.8-14-19.2-28-20.6c-29.3-2.9-41.4,16.1-46,27.6c0,0-1,1.7-1.8,5.1
					c-0.6,2-0.7,3.7-0.6,4.5c-0.4,6.3,0.6,15.8,6.6,28.2c4.8,10.2,17.1,13.8,25.3,15.1c2.3,0.5,4.8,0.7,7.4,0.7c0.1,0,0.2,0,0.2,0
					l0,0c2.8,0,5.9-0.4,9.1-1.2c12.9-2.9,21.7-11.2,26.7-21.3c-0.8-11.7-10.8-13.1-16.9-14c-3.3-0.5-6.7,1.5-9.2,3.6
					c-0.3,0.2-0.5,0.5-0.8,0.7c-8.7,6.4-31.4-6.2-19.5-15.6c0,0,4.1-4.3,8.8-6.3h0c0,0,4-2,7.2-0.9c1.3,0.4,2.4,1.4,3.1,3.1
					c0,0.1,0.1,0.2,0.1,0.3c0.4,0.8,0.8,1.7,1.4,2.6c3.9,6.4,12.7,14.8,20.8,9c9.4-6.8,8.3-9.4,8.7-12c0,0,0,0,0,0"/>
				<line id="XMLID_2379_" class="st2" x1="185.4" y1="161" x2="187.4" y2="163.7"/>
				<path id="XMLID_2378_" class="st2" d="M241.2,158.1c0,0,1.2,2.5-0.7,3.6"/>
				<path id="XMLID_2377_" class="st2" d="M250.8,125.7c0,0-0.6,2.3-1.2,3.1"/>
				<path id="XMLID_2376_" class="st2" d="M197.4,129.3c0,0,1-4.3,0-4.3"/>
				<path id="XMLID_2375_" class="st2" d="M219.4,116.6c0,0,4,0.6,3.6,1.2"/>
				<path id="XMLID_2374_" class="st2" d="M214.9,173.3c0,0,4.7-0.7,5-1.6"/>
				<path id="XMLID_2373_" class="st2" d="M190.7,110.5c0,0-3.1,1.5-4,3"/>
				<line id="XMLID_2372_" class="st2" x1="237.2" y1="136.4" x2="240.4" y2="135.5"/>
			</g>
			<g>
				<path id="XMLID_2371_" class="st2" d="M223.6,128.7c3.9,6.4,12.7,14.8,20.8,9c9.4-6.8,8.3-9.4,8.7-12c0,0,0,0,0,0"/>
				<path id="XMLID_2370_" class="st2" d="M250.5,116.9c-4.7-10.8-14-19.2-28-20.6c-29.3-2.9-41.4,16.1-46,27.6c0,0-1,1.7-1.8,5.1
					c-0.6,2-0.7,3.7-0.6,4.5c-0.4,6.3,0.6,15.8,6.6,28.2c4.8,10.2,17.1,13.8,25.3,15.1c2.3,0.5,4.8,0.7,7.4,0.7c0.1,0,0.2,0,0.2,0
					l0,0c2.8,0,5.9-0.4,9.1-1.2c12.9-2.9,21.7-11.2,26.7-21.3c-0.8-11.7-10.8-13.1-16.9-14c-3.3-0.5-6.7,1.5-9.2,3.6
					c-0.3,0.2-0.5,0.5-0.8,0.7c-8.7,6.4-31.4-6.2-19.5-15.6c0,0,4.1-4.3,8.8-6.3h0c0,0,4-2,7.2-0.9c1.3,0.4,2.4,1.4,3.1,3.1"/>
				<line id="XMLID_1883_" class="st2" x1="185.4" y1="161" x2="187.4" y2="163.7"/>
				<path id="XMLID_1832_" class="st2" d="M241.2,158.1c0,0,1.2,2.5-0.7,3.6"/>
				<path id="XMLID_1831_" class="st2" d="M250.8,125.7c0,0-0.6,2.3-1.2,3.1"/>
				<path id="XMLID_1830_" class="st2" d="M197.4,129.3c0,0,1-4.3,0-4.3"/>
				<path id="XMLID_1829_" class="st2" d="M219.4,116.6c0,0,4,0.6,3.6,1.2"/>
				<path id="XMLID_1828_" class="st2" d="M214.9,173.3c0,0,4.7-0.7,5-1.6"/>
				<path id="XMLID_1827_" class="st2" d="M190.7,110.5c0,0-3.1,1.5-4,3"/>
				<line id="XMLID_1826_" class="st2" x1="237.2" y1="136.4" x2="240.4" y2="135.5"/>
			</g>
		</g>
		<path id="XMLID_1825_" class="st2" d="M210.6,138.4c0,0-3.8-2.2-5.1-4.7"/>
		<path id="XMLID_1824_" class="st2" d="M249.9,146.4c0,0-2.7-1.1-4.1-2.7"/>
		<path id="XMLID_1823_" class="st2" d="M210.2,183.5c0,0-4.3-0.9-6.4-2.7"/>
		<path id="XMLID_1822_" class="st2" d="M255.6,165.4c0,0-3.8-2.2-5.1-4.7"/>
		<path id="XMLID_1821_" class="st2" d="M256.6,128c0,0,1.5,0.9,2.6,2.1"/>
	</g>
	<g>
		<g id="XMLID_1810_">
			<path id="XMLID_1820_" class="st1" d="M60.3,105.4c0,0-3.9-19.2-22.8-12.4c-18.8,6.7-9.6,79.5-0.9,85.1S69.7,218.3,60.3,105.4z"
				/>
			<path id="XMLID_1819_" class="st1" d="M55.9,140.3c0,0,33-32.6,26.3,28.3c0,0,7.9,18.8,23.2,11s17.7-104.5-56.2-77.4"/>
			<line id="XMLID_1818_" class="st1" x1="45.4" y1="177.3" x2="48.5" y2="178.7"/>
			<path id="XMLID_1817_" class="st1" d="M101.7,169.2c0,0,1.2,2.5-0.7,3.6"/>
			<path id="XMLID_1816_" class="st1" d="M109,137.9c0,0-0.6,2.3-1.2,3.1"/>
			<path id="XMLID_1815_" class="st1" d="M56.6,157.3c0,0,1-4.3,0-4.3"/>
			<path id="XMLID_1814_" class="st1" d="M79.9,127.7c0,0,4,0.6,3.6,1.2"/>
			<path id="XMLID_1813_" class="st1" d="M40.6,148c0,0,4.7-0.7,5-1.6"/>
			<path id="XMLID_1812_" class="st1" d="M64.4,103.1c0,0-3.1,1.5-4,3"/>
			<line id="XMLID_1811_" class="st1" x1="36.2" y1="108.2" x2="39.4" y2="107.3"/>
		</g>
		<g>
			<path id="XMLID_1809_" class="st2" d="M29.9,170.5c10.4,8.9,27.5,21.6,19.4-76.1c0,0-3.9-19.2-22.8-12.4
				c-17.3,6.2-10.9,68.1-3,82.5"/>
			<path id="XMLID_1808_" class="st3" d="M44.9,129.3c0,0,33-32.6,26.3,28.3c0,0,7.9,18.8,23.2,11s17.7-104.5-56.2-77.4"/>
			<path id="XMLID_1807_" class="st2" d="M87.8,96.2c-10.1-9.7-25.9-13.6-49.5-5"/>
			<path id="XMLID_1806_" class="st4" d="M96.9,109.2c10.7,22.8,6.1,55-2.4,59.4c-15.3,7.9-23.2-11-23.2-11
				c6.7-60.9-26.3-28.3-26.3-28.3"/>
			<line id="XMLID_1794_" class="st2" x1="34.4" y1="166.3" x2="37.5" y2="167.7"/>
			<path id="XMLID_1793_" class="st2" d="M90.7,158.2c0,0,1.2,2.5-0.7,3.6"/>
			<path id="XMLID_1792_" class="st2" d="M98,126.9c0,0-0.6,2.3-1.2,3.1"/>
			<path id="XMLID_1791_" class="st2" d="M45.6,146.3c0,0,1-4.3,0-4.3"/>
			<path id="XMLID_1790_" class="st2" d="M68.9,116.7c0,0,4,0.6,3.6,1.2"/>
			<path id="XMLID_1789_" class="st2" d="M29.6,137c0,0,4.7-0.7,5-1.6"/>
			<path id="XMLID_1788_" class="st2" d="M53.4,92.1c0,0-3.1,1.5-4,3"/>
			<line id="XMLID_1787_" class="st2" x1="25.2" y1="97.2" x2="28.4" y2="96.3"/>
			<path class="st2" d="M44.4,128.9"/>
		</g>
		<path id="XMLID_1786_" class="st2" d="M94.9,104.4c0,0-1.6-3.3-3.5-4.5"/>
	</g>
	<g>
		<path class="st1" d="M108.9,96.2c2.2,0.9,5.1,1.1,8.9,0.3c27.8-6,4.7-26.1,4.7-26.1c-3.3-3.8-6.8-4.3-9.8-2.9
			c-1.3-0.9-2.2-1.4-2.2-1.4c-15.5-12.1-23.5,25.5-8,28"/>
		<path class="st1" d="M108.4,174.2c3.8,3.8,8.5,8,10.7,7.6c12.5-2.6,18.3-12.4,15.1-46.5c0,0,4.1-21.5-10.9-21.4"/>
		<g>
			<path id="XMLID_1785_" class="st2" d="M122.2,79.2c0.9,4.3-1.5,9.2-11.3,13.4c-26.2,11.2-18.2-40.4-0.4-26.5c0,0,3,1.7,5.9,4.4"
				/>
			<path id="XMLID_1784_" class="st2" d="M105.7,90.9c0,0,4.7-0.7,5-1.6"/>
			<path id="XMLID_1783_" class="st2" d="M103.2,68c0,0-3.1,1.5-4,3"/>
		</g>
		<path id="XMLID_1782_" class="st2" d="M120.8,73.6c0,0-1-0.6-1.2-1"/>
		<g>
			<g>
				<path class="st2" d="M109.1,102.8c-1.3,0.2-2.6,0.6-4.1,1.1c-18.7,6.3-13.7,45.8-4.6,60.8"/>
				<g>
					<g id="XMLID_1780_">
						<path id="XMLID_1781_" class="st2" d="M103.9,169c1.4,1.2,2.8,1.7,4.2,1.4c12.5-2.6,18.3-12.4,15.1-46.5"/>
					</g>
					<line id="XMLID_1779_" class="st2" x1="103.3" y1="162.7" x2="106.4" y2="164.1"/>
					<path id="XMLID_1778_" class="st2" d="M118.9,153c0,0,1.2,2.5-0.7,3.6"/>
					<path id="XMLID_1777_" class="st2" d="M99.8,116.8c0,0-0.6,2.3-1.2,3.1"/>
					<path id="XMLID_1776_" class="st2" d="M119.6,118.3c0,0,1-4.3,0-4.3"/>
					<path id="XMLID_1775_" class="st2" d="M108.9,106c0,0,4,0.6,3.6,1.2"/>
				</g>
			</g>
			<g>
				<g id="XMLID_1773_">
					<path id="XMLID_1774_" class="st2" d="M123.4,113.2c-1.1-6.8-5.3-13.4-18.4-9c-23.6,7.9-9.4,69.2,3.1,66.6s18.3-12.4,15.1-46.5
						"/>
				</g>
				<line id="XMLID_1772_" class="st2" x1="103.3" y1="163.1" x2="106.4" y2="164.4"/>
				<path id="XMLID_1771_" class="st2" d="M118.9,153.3c0,0,1.2,2.5-0.7,3.6"/>
				<path id="XMLID_1770_" class="st2" d="M99.8,117.1c0,0-0.6,2.3-1.2,3.1"/>
				<path id="XMLID_1768_" class="st2" d="M119.6,118.6c0,0,1-4.3,0-4.3"/>
				<path id="XMLID_1767_" class="st2" d="M108.9,106.3c0,0,4,0.6,3.6,1.2"/>
			</g>
		</g>
		<path id="XMLID_1766_" class="st2" d="M124.6,172.4c0,0-3.8-2.2-5.1-4.7"/>
	</g>
	<g>
		<g>
			<path class="st1" d="M382.7,92.4c0.3-10.5-1.1-19.3-3.7-26.5c0,0,0.1,0,0.1,0c0,0,0,0,0,0c0.2,0.1,0.3,0.2,0.3,0.2
				s1.4-12.3-0.6-18.8c-0.2-2.2-1.2-5-3.1-8.5c0,0,0-0.1,0-0.1l0,0c-0.4-0.7-0.9-1.5-1.4-2.3c-3-4.7-7-8.5-11.3-11.4
				c-4.7-7.1-11.4-12-18.3-15.2c-0.6-3-3.2-5.9-7-4.4c0,0-0.5,0.5-1.1,1.2c-29.8-12.9-39.2,5.6-42.1,21.5c-2.7,0.1-5.3,0.2-7.7,0.4
				c-24.6,1.6-18,11-18,11c0.7,1.4,2.9,2.7,5.4,3.9c1.4,0.7,3.2,1.5,5.4,2.2c-1.4,2.5,0.2,4.9,0.2,4.9c0.1,0.3,0.4,0.6,0.6,0.8
				c-4.2,10-5.8,21.3-6.1,32.6c-5.3-4.9-11.5-8.2-11.7,2.8c-0.5,19.3,4.8,40.1,11.7,37.5c0.8-0.3,1.4-0.6,2-1c0.9,3.4,2,6.3,3.2,8.4
				c0.9,4.2,1.6,7.5,2,9.6c1.9,9.7,8,21,18.4,28.2c1.1,1.6,2.3,3.1,3.7,4.6c0,2.9,0,5.5,0,6.7c0,8.1,5.7,15.4,12.7,18.6
				c5.9,13.1,25.7,20,34.3,0.9l3-10.7c0.1-1.3,0-3.3-0.2-5.6c16.2-5.4,20.3-15.1,23.9-42.1c0.5,0.3,1,0.6,1.6,0.9
				c6.6,3.2,13.7-17.1,14.8-36.4C394.4,95.4,382.8,93.3,382.7,92.4z"/>
			<g id="XMLID_1560_">
				<path id="XMLID_1765_" class="st3" d="M342.6,178.3c0.2-3.7-1-14.2-1.3-17.7c-0.2-3.1-0.7-5.8-1.3-8.1
					c12.1-20.7-21.4-44.5-33.4-17.9c-3.7,8.3-3.3,24.4-3.2,27.2c0.1,3.5,0.2,15.6,0.2,18.6c0.1,17.4,25.8,31.2,36,8.5"/>
				<g id="XMLID_1561_">
					<g id="XMLID_1761_">
						<path id="XMLID_1764_" class="st3" d="M281.7,91.8c0,0-18.7-24.7-19.1-5.4s4.8,40.1,11.7,37.5s7-8.3,7-8.3"/>
						<path id="XMLID_1763_" class="st3" d="M275.6,93.2c0,0-7.3-11.3-9.1-6"/>
						<path id="XMLID_1762_" class="st3" d="M278.4,101c0,0-10.7-2.8-9.1,3.4c1.6,6.2,5.4,10.3,7.3,3.5"/>
					</g>
					<path id="XMLID_1760_" class="st3" d="M337.7,5.1c0,0-7,6.2,1.7,9S345.3,2,337.7,5.1z"/>
					<path id="XMLID_1759_" class="st3" d="M371.8,78.7c0,3.6-0.3,7.4-0.7,11.5c-7.8,66-5.7,78.1-37.2,84.8
						c-31.6,6.7-48.8-16.3-52.3-33.9S252.8,28.8,322.9,20.1c0,0,40.6,2.9,47.8,44.6"/>
					<path id="XMLID_1758_" class="st3" d="M367.9,35.9c-0.2-2.2-1.2-5-3.1-8.5c0,0,0-0.1,0-0.1l0,0c-0.4-0.7-0.9-1.5-1.4-2.3
						c-6.2-9.8-16.5-15.4-25.8-18.3c-40.1-18-44.1,20-44.3,34.4c0,1.4,18.1-0.1,34.5-4.3c20.9,8.4,40.6,17.8,40.6,17.8
						S369.8,42.4,367.9,35.9z"/>
					<path id="XMLID_1757_" class="st3" d="M291.1,54.7c0,0,38.1-3.7,24.3,27S259.1,76.1,291.1,54.7z"/>
					<path id="XMLID_1756_" class="st3" d="M287.5,75.8c0,0,5.7-2.3,5.1,3.6S283.6,80.9,287.5,75.8z"/>
					<path id="XMLID_1755_" class="st3" d="M332.7,95.8c0,0,10,7.4,22.9,2.9"/>
					<path id="XMLID_1753_" class="st3" d="M329.2,100.7c0,0-10.1-12.5-9.7-19.5"/>
					<path id="XMLID_1752_" class="st3" d="M308.3,96.1c0,0-16.1,3.5-19.5,2"/>
					<g id="XMLID_1749_">
						<path id="XMLID_1751_" class="st3" d="M311.6,102.1c0.4,3.3,1.5,5.6,3.6,6c1.2,0.2,2.2,0.2,3,0c0.7-0.2,1.2-0.4,1.7-0.7"/>
						<path id="XMLID_1750_" class="st3" d="M322.5,62.3c0,0-7.7,20.5-9.8,35"/>
					</g>
					<path id="XMLID_1748_" class="st3" d="M333.5,58.9c0,0-28,24.6,6.9,35.8S363.9,46.4,333.5,58.9z"/>
					<path id="XMLID_1747_" class="st3" d="M352.9,79.3c0,0,5.7-2.3,5.1,3.6C357.3,88.8,348.9,84.3,352.9,79.3z"/>
					<path id="XMLID_1719_" class="st3" d="M305,169.2c0,0-6.6,6.1,7.1,8.8c13.8,2.7,22.7-0.9,20.1-6.1"/>
					<path id="XMLID_1718_" class="st3" d="M335.7,54c0,0-12.9,1.5-3.7,10.5s26.9,0.3,25.9-2.9C357,58.4,355.3,53,335.7,54z"/>
					<path id="XMLID_1717_" class="st3" d="M283.4,46.3c0,0,21.4-8.7,46.5-3.2s38.2,11.4,38.2,11.4c-8-27.7-56.7-27.9-81.3-26.3
						s-18,11-18,11S272.5,43.7,283.4,46.3z"/>
					<path id="XMLID_1716_" class="st3" d="M283.4,46.3c0,0-42.4-11.8,16.3-14.4s68.4,22.6,68.4,22.6S313.8,31.1,283.4,46.3z"/>
					<g id="XMLID_1710_">
						<path id="XMLID_1715_" class="st3" d="M308,103.8c0,0-7.4,8.7,4.5,11.1"/>
						<path id="XMLID_1714_" class="st3" d="M328.5,103.8c0,0,7.9,6.6-3.2,11.1"/>
						<path id="XMLID_1713_" class="st3" d="M324.9,111.1c-1.7,0.4-3.4-2.2-2.2-1.9c1.1,0.3,2.8-2,4.1,0"/>
						<path id="XMLID_1712_" class="st3" d="M312.6,110.3c1,0.6-1.3,1.9-1.3,1.9c-2.3-0.1-2.8-1.9-1.6-2.9"/>
						<path id="XMLID_1711_" class="st3" d="M319.3,99.3c0,0,2.3-0.1,2.9,0.7"/>
					</g>
					<path id="XMLID_1709_" class="st3" d="M303.6,109.2c0,0-6.5,3.2-8.4,4"/>
					<line id="XMLID_1708_" class="st3" x1="284.5" y1="111.9" x2="287.2" y2="113"/>
					<path id="XMLID_1707_" class="st3" d="M333.1,107.4c0,0,7.6,3.6,8.3,3.5"/>
					<path id="XMLID_1706_" class="st3" d="M365.4,75c0,0,1,2.2-0.6,3.2"/>
					<path id="XMLID_1705_" class="st3" d="M359.5,97.4c0,0-0.5,2-1,2.7"/>
					<path id="XMLID_1704_" class="st3" d="M360.1,58.5c0,0,0.8-3.7,0-3.7"/>
					<path id="XMLID_1703_" class="st3" d="M305.7,45.8c0,0,3.5,0.5,3.2,1.1"/>
					<path id="XMLID_1702_" class="st3" d="M327.2,52.4c0,0,4.1-0.6,4.4-1.4"/>
					<path id="XMLID_1701_" class="st3" d="M296.3,153c0,0,3,0.6,3.2,1.3"/>
					<path id="XMLID_1700_" class="st3" d="M344.5,154.2c0,0-2.7,1.3-3.5,2.6"/>
					<path id="XMLID_1699_" class="st3" d="M298.3,48.5c0,0-19.8-1.1-10.7,9.9c9.2,11,25.5-0.2,26.8-5S298.3,48.5,298.3,48.5z"/>
					<path id="XMLID_1698_" class="st3" d="M288.8,88.5"/>
					<path id="XMLID_1690_" class="st3" d="M308.3,90.8"/>
					<line id="XMLID_1589_" class="st3" x1="351.8" y1="112.6" x2="354.7" y2="111.8"/>
					<path id="XMLID_1588_" class="st3" d="M363.2,98.9c0,0,20.7-23,19.5-3.8c-1.2,19.3-8.2,39.5-14.8,36.4
						c-6.6-3.2-6.2-8.9-6.2-8.9"/>
					<path id="XMLID_1587_" class="st3" d="M369.2,100.7c0,0,8.2-10.6,9.6-5.2"/>
					<path id="XMLID_1586_" class="st3" d="M365.7,108.3c0,0,10.9-1.9,8.8,4.2c-2.1,6-6.2,9.8-7.5,2.8"/>
					<path id="XMLID_1585_" class="st3" d="M289,87.5c0,0-5.5,0.8-3.1,3.4c2.4,2.6,3.6-0.6,7.7,1.5"/>
					<path id="XMLID_1584_" class="st3" d="M357.3,89.9c0,0,5.5,0.8,3.1,3.4c-2.4,2.6-3.6-0.6-7.7,1.5"/>
					<path id="XMLID_1583_" class="st3" d="M351.3,89.4c0,0-12.8-0.9-20.4,1.1"/>
					<path id="XMLID_1582_" class="st3" d="M295.2,86.3c0,0,7.5-1.4,15.9,1.2"/>
					<g id="XMLID_1570_">
						<path id="XMLID_1581_" class="st3" d="M311.3,126.4c0,0,38.1-3.7,24.3,27C321.8,184.2,279.3,147.8,311.3,126.4z"/>
						<path id="XMLID_1580_" class="st3" d="M312.7,157.2c-3.8-1.6-8.1,9.9-12.1-0.8s20.2-0.8,20.2-0.8s7.6,2.5,10.5,3.9"/>
						<path id="XMLID_1579_" class="st3" d="M331.8,159.5c1.4-1.6,2.7-3.7,3.8-6.1c13.8-30.7-24.3-27-24.3-27
							c-11.9,7.9-13.5,17.9-10.1,25.8c4.1-3,19.7,3.3,19.7,3.3s7.6,2.5,10.5,3.9"/>
						<g id="XMLID_1572_">
							<path id="XMLID_1578_" class="st3" d="M302.4,133.8c0,0,5.7-2.3,5.1,3.6C306.9,143.2,298.5,138.8,302.4,133.8z"/>
							<path id="XMLID_1577_" class="st3" d="M308.6,133.8c0,0,5.7-2.3,5.1,3.6C313,143.2,304.7,138.8,308.6,133.8z"/>
							<path id="XMLID_1576_" class="st3" d="M314.8,133.8c0,0,5.7-2.3,5.1,3.6C319.2,143.2,310.9,138.8,314.8,133.8z"/>
							<path id="XMLID_1575_" class="st3" d="M321,133.8c0,0,5.7-2.3,5.1,3.6C325.4,143.2,317,138.8,321,133.8z"/>
							<path id="XMLID_1574_" class="st3" d="M327.1,133.8c0,0,5.7-2.3,5.1,3.6C331.5,143.2,323.2,138.8,327.1,133.8z"/>
							<path id="XMLID_1573_" class="st3" d="M333.3,133.8c0,0,5.7-2.3,5.1,3.6C337.7,143.2,329.4,138.8,333.3,133.8z"/>
						</g>
						<path id="XMLID_1571_" class="st3" d="M308.7,133.9c0,0,5.3-2.1,5.1,3h0.1c-0.1-0.9,0.2-1.9,1-3c0,0,5.3-2.1,5.1,3h0
							c-0.1-0.9,0.2-1.9,1-3c0,0,5.3-2.1,5.1,3h0.1c-0.1-0.9,0.2-1.9,1-3c0,0,5.3-2.1,5.1,3h0c-0.1-0.9,0.2-1.9,1-3
							c0,0,1.3-0.5,2.6-0.4c-6.9-8.7-24.6-6.9-24.6-6.9c-3.3,2.2-5.8,4.6-7.6,7c1.6-0.3,4-0.2,3.9,3.3h0
							C307.7,136,307.9,135,308.7,133.9z"/>
					</g>
					<g id="XMLID_1564_">
						<path id="XMLID_1569_" class="st3" d="M305.7,130c0,0-20.5,2.7-9.1,10.1S305.7,130,305.7,130z"/>
						<path id="XMLID_1568_" class="st3" d="M302.6,124c0,0-16.9-0.9-9.1,7.8s21.7-0.2,22.8-3.9C317.5,124.2,302.6,124,302.6,124z"
							/>
						<path id="XMLID_1567_" class="st3" d="M336.4,128.3c0,0-8.2-2.8-6.8,7.7c1.4,10.4,15.7,8.6,16.5,5.6S348.4,133.6,336.4,128.3z
							"/>
						<path id="XMLID_1566_" class="st3" d="M329.4,125.6c0,0-24-3-0.3,8.5C352.7,145.6,356.7,129.2,329.4,125.6z"/>
					</g>
					<path id="XMLID_1563_" class="st3" d="M349.3,12c0,0,1.9,1.5,0.8,3.1"/>
					<line id="XMLID_1562_" class="st3" x1="299.3" y1="27.7" x2="300.4" y2="25"/>
				</g>
			</g>
			<g id="XMLID_493_">
				<path id="XMLID_1559_" class="st2" d="M342.6,178.7c0.2-3.7-1-14.2-1.3-17.7c-0.2-3.1-0.7-5.8-1.3-8.1
					c12.1-20.7-21.4-44.5-33.4-17.9c-3.7,8.3-3.3,24.4-3.2,27.2c0.1,3.5,0.2,15.6,0.2,18.6c0.1,17.4,25.8,31.2,36,8.5"/>
				<g id="XMLID_494_">
					<g id="XMLID_1459_">
						<path id="XMLID_1558_" class="st2" d="M281.7,92.3c0,0-18.7-24.7-19.1-5.4s4.8,40.1,11.7,37.5s7-8.3,7-8.3"/>
						<path id="XMLID_1557_" class="st2" d="M275.6,93.6c0,0-7.3-11.3-9.1-6"/>
						<path id="XMLID_1556_" class="st2" d="M278.4,101.4c0,0-10.7-2.8-9.1,3.4c1.6,6.2,5.4,10.3,7.3,3.5"/>
					</g>
					<path id="XMLID_1235_" class="st2" d="M337.7,5.5c0,0-7,6.2,1.7,9S345.3,2.4,337.7,5.5z"/>
					<path id="XMLID_1234_" class="st2" d="M348.7,170.5c-3.9,2.1-8.8,3.6-14.9,4.9c-31.6,6.7-48.8-16.3-52.3-33.9
						S252.8,29.2,322.9,20.5c0,0,39.8,2.9,47.6,43.4"/>
					<path id="XMLID_1233_" class="st2" d="M348.7,170.5"/>
					<path id="XMLID_1232_" class="st2" d="M371.8,79.2c0,3.6-0.3,7.4-0.7,11.4c-3.8,32.1-5.3,51.4-9.4,63.6"/>
					<path id="XMLID_1141_" class="st2" d="M367.9,36.3c-0.2-2.2-1.2-5-3.1-8.5c0,0,0-0.1,0-0.1l0,0c-0.4-0.7-0.9-1.5-1.4-2.3
						c-6.2-9.8-16.5-15.4-25.8-18.3c-40.1-18-44.1,20-44.3,34.4c0,1.4,18.1-0.1,34.5-4.3c20.9,8.4,40.6,17.8,40.6,17.8
						s0.7-6.2,0.4-12.2"/>
					<path id="XMLID_1140_" class="st2" d="M291.1,55.1c0,0,38.1-3.7,24.3,27S259.1,76.5,291.1,55.1z"/>
					<path id="XMLID_1139_" class="st2" d="M287.5,76.3c0,0,5.7-2.3,5.1,3.6S283.6,81.4,287.5,76.3z"/>
					<path id="XMLID_1138_" class="st2" d="M332.7,96.2c0,0,10,7.4,22.9,2.9"/>
					<path id="XMLID_1137_" class="st2" d="M329.2,101.2c0,0-10.1-12.5-9.7-19.5"/>
					<path id="XMLID_1095_" class="st2" d="M308.3,96.6c0,0-16.1,3.5-19.5,2"/>
					<g id="XMLID_1092_">
						<path id="XMLID_1094_" class="st2" d="M311.6,102.5c0.4,3.3,1.5,5.6,3.6,6c1.2,0.2,2.2,0.2,3,0c0.7-0.2,1.2-0.4,1.7-0.7"/>
						<path id="XMLID_1093_" class="st2" d="M322.5,62.7c0,0-7.7,20.5-9.8,35"/>
					</g>
					<path id="XMLID_1091_" class="st2" d="M333.5,59.3c0,0-28,24.6,6.9,35.8S363.9,46.8,333.5,59.3z"/>
					<path id="XMLID_1090_" class="st2" d="M352.9,79.7c0,0,5.7-2.3,5.1,3.6C357.3,89.2,348.9,84.8,352.9,79.7z"/>
					<path id="XMLID_1089_" class="st2" d="M305,169.6c0,0-6.6,6.1,7.1,8.8c13.8,2.7,22.7-0.9,20.1-6.1"/>
					<path id="XMLID_1088_" class="st2" d="M335.7,54.4c0,0-12.9,1.5-3.7,10.5S359,65.3,358,62C357,58.8,355.3,53.5,335.7,54.4z"/>
					<path id="XMLID_1087_" class="st2" d="M283.4,46.8c0,0,21.4-8.7,46.5-3.2S368.1,55,368.1,55c-8-27.7-56.7-27.9-81.3-26.3
						c-24.6,1.6-18,11-18,11S272.5,44.1,283.4,46.8z"/>
					<path id="XMLID_1086_" class="st2" d="M283.4,46.8c0,0-42.4-11.8,16.3-14.4S368.1,55,368.1,55S313.8,31.5,283.4,46.8z"/>
					<g id="XMLID_1080_">
						<path id="XMLID_1085_" class="st2" d="M308,104.2c0,0-7.4,8.7,4.5,11.1"/>
						<path id="XMLID_1084_" class="st2" d="M328.5,104.2c0,0,7.9,6.6-3.2,11.1"/>
						<path id="XMLID_1083_" class="st2" d="M324.9,111.5c-1.7,0.4-3.4-2.2-2.2-1.9c1.1,0.3,2.8-2,4.1,0"/>
						<path id="XMLID_1082_" class="st2" d="M312.6,110.7c1,0.6-1.3,1.9-1.3,1.9c-2.3-0.1-2.8-1.9-1.6-2.9"/>
						<path id="XMLID_1081_" class="st2" d="M319.3,99.7c0,0,2.3-0.1,2.9,0.7"/>
					</g>
					<path id="XMLID_1079_" class="st2" d="M303.6,109.6c0,0-6.5,3.2-8.4,4"/>
					<line id="XMLID_533_" class="st2" x1="284.5" y1="112.3" x2="287.2" y2="113.5"/>
					<path id="XMLID_532_" class="st2" d="M333.1,107.8c0,0,7.6,3.6,8.3,3.5"/>
					<path id="XMLID_531_" class="st2" d="M365.4,75.4c0,0,1,2.2-0.6,3.2"/>
					<path id="XMLID_530_" class="st2" d="M359.5,97.8c0,0-0.5,2-1,2.7"/>
					<path id="XMLID_529_" class="st2" d="M360.1,58.9c0,0,0.8-3.7,0-3.7"/>
					<path id="XMLID_528_" class="st2" d="M305.7,46.3c0,0,3.5,0.5,3.2,1.1"/>
					<path id="XMLID_527_" class="st2" d="M327.2,52.9c0,0,4.1-0.6,4.4-1.4"/>
					<path id="XMLID_526_" class="st2" d="M296.3,153.4c0,0,3,0.6,3.2,1.3"/>
					<path id="XMLID_525_" class="st2" d="M344.5,154.7c0,0-2.7,1.3-3.5,2.6"/>
					<path id="XMLID_524_" class="st2" d="M298.3,49c0,0-19.8-1.1-10.7,9.9c9.2,11,25.5-0.2,26.8-5S298.3,49,298.3,49z"/>
					<path id="XMLID_523_" class="st2" d="M288.8,88.9"/>
					<path id="XMLID_522_" class="st2" d="M308.3,91.2"/>
					<line id="XMLID_521_" class="st2" x1="351.8" y1="113" x2="354.7" y2="112.2"/>
					<path id="XMLID_520_" class="st2" d="M363.2,99.3c0,0,20.7-23,19.5-3.8c-1.2,19.3-8.2,39.5-14.8,36.4c-6.6-3.2-6.2-8.9-6.2-8.9
						"/>
					<path id="XMLID_519_" class="st2" d="M369.2,101.1c0,0,8.2-10.6,9.6-5.2"/>
					<path id="XMLID_518_" class="st2" d="M365.7,108.7c0,0,10.9-1.9,8.8,4.2c-2.1,6-6.2,9.8-7.5,2.8"/>
					<path id="XMLID_517_" class="st2" d="M289,87.9c0,0-5.5,0.8-3.1,3.4c2.4,2.6,3.6-0.6,7.7,1.5"/>
					<path id="XMLID_516_" class="st2" d="M357.3,90.3c0,0,5.5,0.8,3.1,3.4c-2.4,2.6-3.6-0.6-7.7,1.5"/>
					<path id="XMLID_515_" class="st2" d="M351.3,89.9c0,0-12.8-0.9-20.4,1.1"/>
					<path id="XMLID_514_" class="st2" d="M295.2,86.7c0,0,7.5-1.4,15.9,1.2"/>
					<g id="XMLID_502_">
						<path id="XMLID_513_" class="st2" d="M311.3,126.8c0,0,38.1-3.7,24.3,27C321.8,184.6,279.3,148.2,311.3,126.8z"/>
						<path id="XMLID_512_" class="st2" d="M312.7,157.6c-3.8-1.6-8.1,9.9-12.1-0.8s20.2-0.8,20.2-0.8s7.6,2.5,10.5,3.9"/>
						<path id="XMLID_511_" class="st2" d="M331.8,160c1.4-1.6,2.7-3.7,3.8-6.1c13.8-30.7-24.3-27-24.3-27
							c-11.9,7.9-13.5,17.9-10.1,25.8c4.1-3,19.7,3.3,19.7,3.3s7.6,2.5,10.5,3.9"/>
						<g id="XMLID_504_">
							<path id="XMLID_510_" class="st2" d="M302.4,134.2c0,0,5.7-2.3,5.1,3.6C306.9,143.7,298.5,139.3,302.4,134.2z"/>
							<path id="XMLID_509_" class="st2" d="M308.6,134.2c0,0,5.7-2.3,5.1,3.6C313,143.7,304.7,139.3,308.6,134.2z"/>
							<path id="XMLID_508_" class="st2" d="M314.8,134.2c0,0,5.7-2.3,5.1,3.6C319.2,143.7,310.9,139.3,314.8,134.2z"/>
							<path id="XMLID_507_" class="st2" d="M321,134.2c0,0,5.7-2.3,5.1,3.6C325.4,143.7,317,139.3,321,134.2z"/>
							<path id="XMLID_506_" class="st2" d="M327.1,134.2c0,0,5.7-2.3,5.1,3.6C331.5,143.7,323.2,139.3,327.1,134.2z"/>
							<path id="XMLID_505_" class="st2" d="M333.3,134.2c0,0,5.7-2.3,5.1,3.6C337.7,143.7,329.4,139.3,333.3,134.2z"/>
						</g>
						<path id="XMLID_503_" class="st2" d="M308.7,134.4c0,0,5.3-2.1,5.1,3h0.1c-0.1-0.9,0.2-1.9,1-3c0,0,5.3-2.1,5.1,3h0
							c-0.1-0.9,0.2-1.9,1-3c0,0,5.3-2.1,5.1,3h0.1c-0.1-0.9,0.2-1.9,1-3c0,0,5.3-2.1,5.1,3h0c-0.1-0.9,0.2-1.9,1-3
							c0,0,1.3-0.5,2.6-0.4c-6.9-8.7-24.6-6.9-24.6-6.9c-3.3,2.2-5.8,4.6-7.6,7c1.6-0.3,4-0.2,3.9,3.3h0
							C307.7,136.4,307.9,135.4,308.7,134.4z"/>
					</g>
					<g id="XMLID_497_">
						<path id="XMLID_501_" class="st2" d="M305.7,130.5c0,0-20.5,2.7-9.1,10.1S305.7,130.5,305.7,130.5z"/>
						<path id="XMLID_500_" class="st2" d="M302.6,124.4c0,0-16.9-0.9-9.1,7.8s21.7-0.2,22.8-3.9S302.6,124.4,302.6,124.4z"/>
						<path id="XMLID_499_" class="st2" d="M336.4,128.8c0,0-8.2-2.8-6.8,7.7s15.7,8.6,16.5,5.6S348.4,134.1,336.4,128.8z"/>
						<path id="XMLID_498_" class="st2" d="M329.4,126c0,0-24-3-0.3,8.5C352.7,146.1,356.7,129.6,329.4,126z"/>
					</g>
					<path id="XMLID_496_" class="st2" d="M349.3,12.5c0,0,1.9,1.5,0.8,3.1"/>
					<line id="XMLID_495_" class="st2" x1="299.3" y1="28.1" x2="300.4" y2="25.4"/>
				</g>
			</g>
			<path id="XMLID_492_" class="st2" d="M350.2,186.4c0,0-3.1-3.6-5.4-4.3"/>
			<path id="XMLID_491_" class="st2" d="M374.2,139.4c0,0-2.3-1.8-3.1-3.7"/>
			<path id="XMLID_490_" class="st2" d="M375.1,61.7c0,0-1.1-2.8-2.4-3.8"/>
		</g>
	</g>
</g>
</svg>
