<?xml version="1.0" encoding="utf-8"?>
<!-- Generator: Adobe Illustrator 22.1.0, SVG Export Plug-In . SVG Version: 6.00 Build 0)  -->
<svg version="1.1" id="Layer_1" xmlns="http://www.w3.org/2000/svg" xmlns:xlink="http://www.w3.org/1999/xlink" x="0px" y="0px"
	 viewBox="0 0 464.1 1401.5" style="enable-background:new 0 0 464.1 1401.5;" xml:space="preserve">
<style type="text/css">
	.st0{opacity:0.1;fill:#231F20;stroke:#231F20;stroke-miterlimit:10;enable-background:new    ;}
	.st1{fill:#A36B78;stroke:#584C4F;stroke-width:2;stroke-linecap:round;stroke-miterlimit:10;}
	.st2{fill:#A36B78;stroke:#584C4F;stroke-width:2;stroke-linecap:round;stroke-linejoin:round;stroke-miterlimit:10;}
	.st3{fill:#FFD767;stroke:#584C4F;stroke-width:2;stroke-miterlimit:10;}
	.st4{fill:#A36B78;}
	.st5{fill:none;stroke:#584C4F;stroke-width:2;stroke-linecap:round;stroke-miterlimit:10;}
	.st6{fill:#BEAB72;}
	.st7{fill:#584C4F;stroke:#584C4F;stroke-width:2;stroke-linecap:round;stroke-miterlimit:10;}
	.st8{fill:#FFFFFF;stroke:#584C4F;stroke-width:2;stroke-linecap:round;stroke-miterlimit:10;}
</style>
<g id="Layer_5">
</g>
<g id="Layer_3">
</g>
<g>
	<path class="st0" d="M362.4,1400.9c30.3,0.8,253.1-20.1,180-124.4c-36.7-52.4-121.6-68.1-197-70.8c-1.4-56.4-2.9-144.7,0.2-183
		c9.9,0.4,11-13.6,2.7-16.8c0.4-5.2,0.4-12.7,0.1-22.8V983c0-8.3-0.2-17.8-0.5-28c-0.1-30.8,0.7-64.9,1.8-96
		c6.1-8.1,15.7-22.8,14.7-18.9c-1.7,6.4-27.2,132.9-6.1,55.2c21-77.7,12.8-28.2,12.8-28.2c0.1,106.6,8.9,21.4,11.5,8
		s20.8,71,17.5,29.3c-3.4-41.7,0.1-45.3,7.2-10.5c7.1,34.7,3.4-47.1,3.4-47.1s-1.2-18.2-5.5-22.6c-0.1-1.7-0.2-3.6-0.3-5.9
		c9.6-2.4,4.5-9-0.6-13.5c-0.5-11.9-1.1-27.3-1.6-44.6c0.1-0.1,0.1-0.2,0.1-0.3l0.1-0.1c0.1-0.4,0.2-1,0.3-1.7
		c0.3-2,0.4-4.1,0.5-6.1c0.5-6.2,0.9-15.3,1.2-25.2c2-0.8,3.6-2.4,4.9-4.5c0.2-0.2,0.3-0.4,0.4-0.6c8.3-15.4,0.4-56.9-5.9-73.3
		c-0.4-1.1-0.8-2.5-1.2-4c0-0.1-0.1-0.3-0.1-0.4c0.1-2.4,0.2-4.7,0.3-7c0.1-2.7,0.3-5.5,0.4-8.4c10.5,0.3,11-15.6,0.8-17.3
		c0.5-10.6,1-22.4,1.5-34.9c21.7-18.1,9.2-174-1.3-188.9c-2.5-3.6-9.8-7.1-19.6-10.4c-0.7-0.7-1.4-1.3-2.1-2
		c-0.1-0.1-0.1-0.1-0.2-0.2c-0.8-0.7-1.5-1.3-2.3-1.9c-0.1-0.1-0.2-0.2-0.3-0.3c-0.7-0.6-1.5-1.2-2.3-1.7c-0.1-0.1-0.3-0.2-0.4-0.3
		c-0.8-0.5-1.6-1-2.4-1.5c-0.1,0-0.3-0.1-0.4-0.2c-0.8-0.5-1.6-1-2.5-1.4c-0.1-0.1-0.2-0.1-0.3-0.2c-0.9-0.4-1.8-0.9-2.7-1.3
		c-0.1-0.1-0.1-0.1-0.2-0.1c-0.9-0.4-1.8-0.8-2.8-1.2c-0.1,0-0.1-0.1-0.2-0.1c-1-0.4-1.9-0.8-2.9-1.1c-0.1,0-0.3-0.1-0.4-0.1
		c-1-0.3-1.9-0.6-2.9-0.9c-0.2,0-0.3-0.1-0.5-0.1c-1-0.3-1.9-0.5-2.9-0.8c-0.2,0-0.3-0.1-0.5-0.1c-1-0.2-2-0.5-3-0.7
		c-0.1,0-0.3-0.1-0.4-0.1c-1-0.3-2.1-0.5-3.1-0.7c0,0-0.1,0-0.2,0c-1.1-0.2-2.1-0.4-3.2-0.6h-0.1c-1.1-0.2-2.1-0.3-3.2-0.5
		c-0.1-0.1-0.3-0.1-0.4-0.1c-1-0.1-2.1-0.3-3.1-0.4c-0.2-0.1-0.3-0.1-0.5-0.1c-1-0.1-1.9-0.2-2.9-0.3l0,0c0.1-0.7,0.1-1.4,0.1-2.2
		c0.1-1.9,0.1-5.4,0.1-9.6c4-3,3.4-6.3,2.2-8.5c0.5-0.3,0.9-0.5,1.4-0.8c0.1,0,0.1,0,0.1,0c0.8-0.4,1.6-0.9,2.3-1.4
		c0.1-0.1,0.2-0.1,0.3-0.2c0.6-0.4,1.3-0.9,1.9-1.3c0.1-0.1,0.2-0.1,0.3-0.2c0.8-0.5,1.5-1.1,2.2-1.6l0,0c0.7-0.5,1.3-1.1,2-1.6
		c0.1,0,0.2-0.1,0.3-0.2c1.3-1.1,2.6-2.2,3.9-3.4c0.1-0.1,0.1-0.1,0.2-0.2c0.6-0.6,1.2-1.2,1.8-1.8l0,0c0.7-0.6,1.3-1.3,1.9-1.9l0,0
		c0.6-0.6,1.1-1.3,1.7-1.9l0.1-0.1c1.1-1.3,2.2-2.7,3.2-4l0.1-0.1c1.1-1.4,2.1-2.8,3-4.2l0,0l0,0c6.2-9.3,10.3-19.3,12.2-28.5
		c1.2-0.5,2.5-1.2,3.9-2.1c8.8-5.5,7.5-9.6,2.9-12.5c1-0.7,2-1.6,2.9-2.6c7.5-8,2.9-11.6-3.3-13.1c0.3-1.5,0.6-3.1,0.9-4.7
		c1.7,1.3,3.8,2.5,6.4,3.5c12.9,4.7,22.8-33.1,21.9-68.1c-0.2-7.4-1.9-11.2-4.5-12.7c4.6-12.1,2.4-26.7-12.3-39.4
		c12.2-15.7-11.2-16.8-18.8-16.7c-0.7-1.5-1.4-2.9-2.2-4.3c6.8-1.6,12.1-3.7,16-5.7c4.6-2.1,8.8-4.5,10-7
		c0.5-0.6,11.4-17.1-33.8-19.9c-4.4-0.3-9.2-0.5-14.4-0.7c-5.4-28.9-23.2-62.5-79-39.1c-1.1-1.3-2.1-2.2-2.1-2.2
		c-7.1-2.9-12,2.5-13.1,7.9c-13.3,5.9-26.3,15-34.9,28.4c-1,1.5-1.8,2.9-2.6,4.2l0,0c0,0-0.1,0-0.1,0.1c-3.6,6.4-5.4,11.4-5.8,15.4
		c-3.7,11.9-1,34.2-1,34.2s0.2-0.1,0.6-0.3c0,0.1,0,0.1,0,0.1s0,0,0.1,0c-0.1,0.2-0.1,0.4-0.2,0.6c-0.2,0.7-0.5,1.4-0.7,2.1
		c-0.2,0.6-0.3,1.1-0.5,1.6c-0.2,0.7-0.4,1.4-0.6,2.1c-0.2,0.5-0.3,1-0.5,1.6c-0.2,0.7-0.4,1.5-0.6,2.2c-0.1,0.5-0.3,1.1-0.4,1.7
		c-0.2,0.7-0.3,1.5-0.5,2.2c-0.1,0.6-0.3,1.2-0.4,1.8c-0.1,0.8-0.3,1.5-0.4,2.3c-0.1,0.6-0.2,1.3-0.3,1.9c-0.2,0.8-0.3,1.6-0.4,2.4
		c-0.1,0.7-0.2,1.3-0.3,2c-0.1,0.8-0.2,1.6-0.3,2.4c-0.1,0.7-0.1,1.4-0.2,2.1c-0.1,0.8-0.1,1.7-0.2,2.5c-0.1,0.7-0.2,1.4-0.2,2.1
		c0,0.8-0.1,1.7-0.1,2.6c0,0.7-0.1,1.5-0.1,2.2c0,0.9,0,1.8,0,2.7c0,0.7,0,1.5,0,2.2c0,1,0.1,1.9,0.1,2.9c0,0.7,0,1.5,0,2.2
		c0.1,1,0.1,2.1,0.2,3.1c0,0.8,0.1,1.5,0.1,2.2c0.1,1.2,0.2,2.4,0.3,3.6c0,0.7,0,1.3,0.1,1.9c0.2,1.8,0.4,3.6,0.6,5.5
		c0,0.1,0,0.1,0,0.1c0.1,0.9,0.2,1.9,0.3,2.8c-10.8-8.4-23.6-14.3-22.3,6.2c2.2,34.9,15.4,71.8,27.8,66c1.1-0.6,2.1-1.1,3-1.7
		c0.3,2.2,0.6,4.3,0.9,6.4c0.3,2.2,0.7,4.4,1,6.5c0.8,5.2,1.7,10.1,2.7,14.5c0.8,3.5,1.6,6.8,2.5,9.9c0.2,0.8,0.5,1.6,0.7,2.3
		c1.5,4.4,3.1,8.4,4.9,11.9c0.3,0.6,0.6,1.1,0.9,1.7c0.6,1.2,1.3,2.3,2,3.3c0.4,0.5,0.7,1,1.1,1.5c1.3,1.8,2.7,3.4,4.2,4.9
		c6,6.1,13.8,10.3,24.2,13.6c-0.4,4.2-0.5,8.1-0.4,10.4l1.9,6.4c-17,2.8-30,8-37.9,14.4c-7,2.1-17.6,5.9-26,12.1
		c-6.1,4.5-11.1,10.2-12.7,17.4c-0.2,0.8-0.3,1.7-0.4,2.5c-0.2,1.6-0.4,3.7-0.6,6.2c-5.6,30-10.1,89.5-7,130.3
		c-1.6,29.7-3,53.8-4.1,59c-0.5,2.8-2.1,11.5-3.8,23.1c-0.2,1.5-0.4,2.9-0.6,4.4c-5.4,39.4-11,106.6,11.7,112
		c0.5,16.6,1.2,30,1.2,30s0.2,0,0.5,0c0.8,5.9,2.6,12.1,5.4,18.4c-0.1,2.7-0.2,5.2-0.3,7.7c-6.2,2.5-3.9,8.5-0.6,13.3
		c-0.2,3.8-0.4,7.2-0.5,10c-0.7,1.1-1.7,2.8-3,4.9c-10.2,16.7-36.2,61.5-24.3,61.7c0.1,0,0.3,0,0.4,0c0.3,0,0.6,0,0.9,0
		c0.1,0,0.3,0,0.5,0s0.5,0,0.7,0s0.3,0,0.5,0s0.4,0,0.6,0s0.3,0,0.5,0c0.2-0.1,0.4-0.1,0.6-0.1c0.1-0.1,0.3-0.1,0.4-0.1
		c0.2,0,0.4-0.1,0.6-0.1c0.1-0.1,0.2-0.1,0.3-0.1c0.2,0,0.4-0.1,0.6-0.1c0.1-0.1,0.2-0.1,0.3-0.1c0.2-0.1,0.4-0.1,0.6-0.2
		c0.1-0.1,0.1-0.1,0.2-0.1c0.2-0.1,0.4-0.1,0.6-0.2h0.1c0.2,0,0.4-0.1,0.6-0.2l0,0c1.4-0.7,2.2-1.5,2.7-2.3
		c-0.1,0.3-0.1,0.7-0.2,1.1v0.1c-0.1,0.1-0.1,0.3-0.1,0.5c0,0,0,0.1,0,0.2c-0.1,0.2-0.1,0.5-0.1,0.7s0,0.3,0,0.5c0,0.1,0,0.3,0,0.4
		c0,0.1,0,0.3,0,0.4c0,0.1,0,0.3,0,0.4s0,0.3,0,0.5c0,0.1,0,0.2,0,0.3c0,0.3,0,0.5,0,0.8c0,0.1,0,0.2,0,0.3c0,0.2,0,0.4,0,0.6
		c0,0.1,0,0.2,0,0.3c0.1,0.2,0.1,0.5,0.1,0.7c0,0.1,0,0.1,0,0.2c0,0.3,0.1,0.5,0.1,0.8c0,0.1,0,0.1,0,0.2c0,0.2,0,0.4,0.1,0.6
		c0.1,0.1,0.1,0.1,0.1,0.2c0.1,0.3,0.1,0.5,0.2,0.7c0,0.1,0,0.1,0,0.1c0.1,0.3,0.2,0.5,0.3,0.7c0.1,0,0.1,0.1,0.1,0.1
		c0.1,0.2,0.2,0.3,0.3,0.5l0.1,0.1c0.1,0.2,0.3,0.3,0.4,0.5l0,0c0.2,0.2,0.3,0.4,0.5,0.5l0.1,0.1c0.2,0.1,0.3,0.2,0.5,0.3
		c0.1,0,0.1,0.1,0.2,0.1c0.2,0.1,0.4,0.1,0.6,0.2l0,0c0.2,0,0.4,0.1,0.7,0.1c0.1,0,0.1,0,0.2,0c0.2,0,0.4,0,0.6,0c0,0,0.1,0,0.2,0
		c0.3,0,0.6,0,0.9-0.1l0,0c0.3,0,0.7-0.1,1-0.2c0.1,0,0.2-0.1,0.3-0.1c0.2-0.1,0.5-0.2,0.8-0.3c0.1,0,0.2-0.1,0.3-0.1
		c0.4-0.1,0.8-0.3,1.2-0.5l0,0l0.3-3l0,0c0,0,0.1,0.1,0.1,0.2c0,0.1,0.1,0.1,0.1,0.2c0.1,0.1,0.1,0.2,0.2,0.3c0,0.1,0.1,0.1,0.1,0.2
		c0.1,0.1,0.1,0.2,0.2,0.3c0,0.1,0.1,0.1,0.1,0.2c3.2,4.8,10.6,13.5,16.8,2.3l2.2-0.9c5,4.1,15.5,10.3,13.9-10.6
		c1.8,0.2,4,0.1,6.9-0.3l0,0c0.5-0.1,1.1-0.2,1.7-0.3h0.1c0.6-0.2,1.2-0.3,1.8-0.4c0.1,0,0.3-0.1,0.4-0.1c0.6-0.1,1.3-0.2,1.9-0.4
		l0,0c1.3-0.3,2.4-0.7,3.5-1.2c0.7,24.7,1.1,50.2,1,73.8c-0.3,10.2-0.5,19.6-0.5,28v0.1c-0.6,21.1,0.3,30.5,2.1,32.7
		c4.1,34.1,2.3,133.8,0.8,193.6c-19.2,1.9-31,3.7-31,3.7c-49.9,11.9-89.1,39.5-110.5,108.8C73.8,1391.3,332.1,1400.2,362.4,1400.9z
		 M231.7,840.4c-4.8-8.7-9.7-15.3-9.7-15.3h-0.1c-0.1-1.9-0.2-5.2-0.3-9.6c2.8,0.8,5.8,1.6,9.1,2.4
		C231.1,825,231.4,832.5,231.7,840.4z M350,850.8c0.5-13.5,1-26.2,1.6-37.8c7.7-3,14.7-6.7,20.8-10.8c-0.2,9.2-0.5,16.3-0.6,20.5
		h-0.2C360.2,834.1,355.4,839.3,350,850.8z M315.4,1205.4c-17.4,0.1-33.8,0.8-48.4,1.7c-1.4-40.2-2.4-96.1-0.1-140.3
		c0.6-11.3,1.2-25.3,1.9-41c9.3-3.3,7-14.3,0.7-16.9c2.4-59.1,5.3-135.4,8.5-185.9c5.7,0.2,11.9,0.2,18.5,0.1c2.6,0,5.2-0.2,7.7-0.3
		c4.4,69.8,8.2,189.2,11.1,244C317.6,1110.3,316.6,1165.3,315.4,1205.4z"/>
	<g>
		<g>
			<g id="XMLID_4075_">
				<path id="XMLID_4076_" class="st1" d="M425.9,600.8c17.3-5.1,17.6,21.1,2.4,16.9"/>
			</g>
			<path id="XMLID_4074_" class="st1" d="M405.7,354.3c-2.8,67.9-11.4,184.3-6.5,215.7c6.9,43.9,0,252.7,0,252.7l33.8,2.9
				c0,0-6.4-118.3-2.3-198.8c2.3-44.4,5.1-130,8.4-199.6"/>
			<g id="XMLID_4072_">
				<path id="XMLID_4073_" class="st1" d="M430,819.3c6.6-2.3,8.2,24.2,8.2,24.2s3.7,84.5-3.4,48.6c-7.1-36-10.5-32.3-7.2,10.8
					c3.3,43.1-14.9-44-17.5-30.3s-11.5,101.8-11.5-8.3c0,0,8.2-51.1-12.8,29.1s4.5-50.4,6.1-57.1s-25.7,39.1-18.2,20.2
					s11.6-23.6,25.5-38.1"/>
			</g>
			<path id="XMLID_4071_" class="st1" d="M412.2,604.1c0.4-1.2,6-2.4,6-2.4"/>
			<path id="XMLID_4070_" class="st1" d="M424.5,612.3c-1,3.5-5.5,2.7-5.5,2.7"/>
			<path id="XMLID_4069_" class="st2" d="M425.8,814.9c27.2-1.4,0-19.7,0-19.7"/>
		</g>
		<path id="XMLID_4068_" class="st3" d="M394.8,353.1c18.2,4.8,33.5,10.4,37.4,16.1c11.1,16.3,24.5,195.9-2.9,196.9
			c-27.4,1-31.2-0.2-30.6-9.9c0.6-9.8-12-122.6-7.6-131.1"/>
		<g>
			<path class="st1" d="M327.4,1307.9c-0.1,2.5,0.6,4.7,2.7,6.8c0.5,0.5,1.1,1,1.8,1.5c2.3,1.7,6.1,2.9,10.8,3.9
				c3.6,0.7,7.7,1.2,12.3,1.6c2.9,0.3,5.9,0.5,9.1,0.6c2.4,0.2,4.9,0.2,7.4,0.3c2.5-0.1,5-0.2,7.4-0.3c3.2-0.2,6.2-0.4,9.1-0.6
				c4.6-0.3,8.7-0.9,12.3-1.6c4.7-0.9,8.5-2.2,10.8-3.9c0.7-0.5,1.3-1,1.8-1.5c1.6-1.6,2.4-3.3,2.6-5.1
				c-17.7-7.4-32.6-20.1-36.4-41.6c-2.1-2-3.4-3.2-3.4-3.2s-0.4-0.6-1.1-1.4c-0.1-0.2-0.3-0.4-0.5-0.6c0-0.1-0.1-0.3-0.1-0.4
				c-0.3-1-0.5-2.6-0.7-4.8l-1.7-0.1l-1.7,0.1l-30.5,2.7c-0.2,7.8-0.3,12.7-0.3,13.8c0,0.1,0,0.2,0,0.2s0.1,0,0.3,0
				c-1.7,6.7-3.8,12.2-5.8,16.9c-2.1,5-4.1,9.1-5.2,12.6C327.9,1305.3,327.6,1306.7,327.4,1307.9z"/>
			<path class="st1" d="M326,763.3c6.9,11.2,12.9,226.7,17,307.2s-2.3,198.8-2.3,198.8l33.8-2.9c0,0-6.5-196.8-0.6-248.4
				c1.8-2.2,2.7-12,2.1-33.8v-0.1c0-8.7-0.2-18.5-0.5-29c-0.5-89.3,6.8-204.9,6.8-204.9"/>
			<g>
				<g id="XMLID_4066_">
					<path id="XMLID_4067_" class="st1" d="M435.2,1321.8c-4.4-9.8,7.7-8.6,7.7-8.6C453,1319.9,439.5,1331.4,435.2,1321.8z"/>
				</g>
				<g id="XMLID_4064_">
					<path id="XMLID_4065_" class="st1" d="M427.3,1321.3c-4.8-10.8,8.6-9.5,8.6-9.5C447.2,1319.3,432.2,1332.1,427.3,1321.3z"/>
				</g>
				<g id="XMLID_4062_">
					<path id="XMLID_4063_" class="st1" d="M417.4,1320.6c-5.6-12.6,10-11.1,10-11.1C440.5,1318.3,423.1,1333.2,417.4,1320.6z"/>
				</g>
				<g id="XMLID_4060_">
					<path id="XMLID_4061_" class="st1" d="M405.2,1319.9c-6.5-14.4,11.4-12.7,11.4-12.7C431.6,1317.3,411.6,1334.3,405.2,1319.9z"
						/>
				</g>
				<path id="XMLID_4059_" class="st1" d="M378.4,1319.2c1.4-5.9,18.8-20,28.6-6.2c9.8,13.8-11.4,12.4-11.4,12.4
					S377,1325.2,378.4,1319.2z"/>
			</g>
			<path id="XMLID_4058_" class="st1" d="M349.5,1004.5c0-3.7,4.6-4,4.6-4"/>
			<path id="XMLID_4057_" class="st1" d="M367,1030.8c-0.3,1.3-5.7,3-5.7,3"/>
			<g id="XMLID_4055_">
				<path id="XMLID_4056_" class="st1" d="M373.3,1257.5c17.9,2.2,7.7,26.4-4.5,16.4"/>
			</g>
			<g id="XMLID_4053_">
				<path id="XMLID_4054_" class="st1" d="M368,1007.7c17.3-5.1,17.6,21.1,2.4,16.9"/>
			</g>
		</g>
		<path class="st1" d="M211.8,763.7c0,0,0.2,0,0.5,0c1.1,8.3,3.9,17,8.8,26.1c0,0,2.7,30.5,102.9,28.9c61.4-1,100.2-31,106.4-65.1
			l0.1-0.1c0.1-0.3,0.2-1,0.3-1.7c0.3-2.1,0.4-4.2,0.5-6.3c1.5-22.4,2.6-81.3,2.6-81.3l-222.1,8.3
			C208.1,690.3,211.8,763.7,211.8,763.7z"/>
		<g>
			<path class="st3" d="M229.9,726.2c4.7-1.1,10.4-2.2,16.9-3.1l154.3-8.1c8-0.1,18.8,2.5,18.8,2.5c8.6,4.7,14.1,2.9,17.3-2.7
				c0.2-0.2,0.3-0.4,0.4-0.6c8.3-15.9,0.4-58.8-5.9-75.7c-0.4-1.1-0.8-2.5-1.2-4.1c-7.6-31.3-7.5-148.8-4.7-221.3
				c0.3-7.8,0.2-14.7-0.1-20.8c-2.7-53.6-57.6-54.2-93.1-55.7c-37.6-1.6-65.1,5.9-78.5,17.1c-7,2.1-17.6,6.1-26,12.5
				c-6.1,4.6-11.1,10.6-12.7,18c-0.2,0.9-0.3,1.7-0.4,2.6c-2.9,26.4-8.8,187.4-11.7,202c-0.5,2.9-2.1,11.8-3.8,23.8
				c-0.2,1.5-0.4,3-0.6,4.5C192.3,666.9,185.4,759.3,229.9,726.2z"/>
			<path class="st3" d="M419.9,717.6c8.6,4.7,14.1,2.9,17.3-2.7c0.2-0.2,0.3-0.4,0.4-0.6c8.3-15.9,0.4-58.8-5.9-75.7
				c-0.4-1.1-0.8-2.5-1.2-4.1c-7.6-31.3-7.5-148.8-4.7-221.3c0.1-1.8,0.2-3.5,0.2-5.2"/>
			<path class="st3" d="M424.1,380.4c-9.9-41.7-58.8-42.3-91.5-43.7c-37.6-1.6-65.1,5.9-78.5,17.1c-7,2.1-17.6,6.1-26,12.5
				c-6.1,4.6-11.1,10.6-12.7,18c-0.2,0.9-0.3,1.7-0.4,2.6c-2.9,26.4-8.8,187.4-11.7,202c-0.5,2.9-2.1,11.8-3.8,23.8
				c-0.2,1.5-0.4,3-0.6,4.5c-6.6,49.7-13.5,142.1,31.1,109.1c4.7-1.1,10.4-2.2,16.9-3.1l154.3-8.1"/>
		</g>
		<path id="XMLID_4052_" class="st1" d="M219.3,716.4c7.2-27.5-10.2-214.6-10.2-214.6"/>
		<g>
			<path id="XMLID_4051_" class="st4" d="M295.9,352.2c19,42.5,67.4,16.6,67.5-16c0-5.8,0.1-28.3,0.3-35c0.1-5.2,1-35.4-6-51
				c-22.4-50-85.4-5.3-62.6,33.6c-1.3,4.2-2.1,9.2-2.5,15.1c-0.4,6.5-2.7,26.3-2.3,33.2"/>
			<path id="XMLID_4050_" class="st5" d="M299.2,358.5c-1.2-1.8-2.3-3.9-3.3-6.2l-5.6-20.1c-0.5-7,1.9-26.8,2.3-33.2
				c0.4-5.9,1.2-10.9,2.5-15.1c-22.8-38.9,40.1-83.6,62.6-33.6c7,15.6,6.1,45.8,6,51c-0.1,6.7-0.3,29.2-0.3,35
				c-0.1,27.5-34.7,50.3-56.9,31"/>
		</g>
		<g>
			<path class="st1" d="M311.3,763.3c-6.9,11.2-12.9,226.7-17,307.2s2.3,198.8,2.3,198.8l-33.8-2.9c0,0,6.5-196.8,0.6-248.4
				c-1.8-2.2-2.7-12-2.1-33.8v-0.1c0-8.7,0.2-18.5,0.5-29c0.5-89.3-6.8-204.9-6.8-204.9"/>
			<path id="XMLID_4049_" class="st1" d="M278.8,1002.3c-3.2-1.8-5.7,2.1-5.7,2.1"/>
			<path id="XMLID_4048_" class="st1" d="M281,1031.7c0.3,1.3,5.7,3,5.7,3"/>
			<g id="XMLID_4046_">
				<path id="XMLID_4047_" class="st1" d="M263.9,1276.3c-17.9-2.2-7.7-26.4,4.5-16.4"/>
			</g>
			<g id="XMLID_4044_">
				<path id="XMLID_4045_" class="st1" d="M292.7,1029c17.9-2.2,7.7-26.4-4.5-16.4"/>
			</g>
			<g>
				<path class="st1" d="M250.9,1313.7c-0.1,2.5,0.6,4.7,2.7,6.8c0.5,0.5,1.1,1,1.8,1.5c2.3,1.7,6.1,2.9,10.8,3.9
					c3.6,0.7,7.7,1.2,12.3,1.6c2.9,0.3,5.9,0.5,9.1,0.6c2.4,0.2,4.9,0.2,7.4,0.3c2.5-0.1,5-0.2,7.4-0.3c3.2-0.2,6.2-0.4,9.1-0.6
					c4.6-0.3,8.7-0.9,12.3-1.6c4.7-0.9,8.5-2.2,10.8-3.9c0.7-0.5,1.3-1,1.8-1.5c1.6-1.6,2.4-3.3,2.6-5.1
					c-17.7-7.4-32.6-20.1-36.4-41.6c-2.1-2-3.4-3.2-3.4-3.2s-0.4-0.6-1.1-1.4c-0.1-0.2-0.3-0.4-0.5-0.6c0-0.1-0.1-0.3-0.1-0.4
					c-0.3-1-0.5-2.6-0.7-4.8l-1.7-0.1l-1.7,0.1l-30.5,2.7c-0.2,7.8-0.3,12.7-0.3,13.8c0,0.1,0,0.2,0,0.2s0.1,0,0.3,0
					c-1.7,6.7-3.8,12.2-5.8,16.9c-2.1,5-4.1,9.1-5.2,12.6C251.4,1311.1,251.1,1312.4,250.9,1313.7z"/>
				<g>
					<g id="XMLID_4042_">
						<path id="XMLID_4043_" class="st1" d="M358.7,1327.5c-4.4-9.8,7.7-8.6,7.7-8.6C376.5,1325.7,363,1337.2,358.7,1327.5z"/>
					</g>
					<g id="XMLID_4040_">
						<path id="XMLID_4041_" class="st1" d="M350.8,1327.1c-4.8-10.8,8.6-9.5,8.6-9.5C370.7,1325.1,355.7,1337.9,350.8,1327.1z"/>
					</g>
					<g id="XMLID_4038_">
						<path id="XMLID_4039_" class="st1" d="M340.9,1326.4c-5.6-12.6,10-11.1,10-11.1C364,1324.1,346.6,1339,340.9,1326.4z"/>
					</g>
					<g id="XMLID_4036_">
						<path id="XMLID_4037_" class="st1" d="M328.7,1325.7c-6.5-14.4,11.4-12.7,11.4-12.7C355.1,1323,335.1,1340.1,328.7,1325.7z"/>
					</g>
					<path id="XMLID_4035_" class="st1" d="M301.9,1325c1.4-5.9,18.8-20,28.6-6.2c9.8,13.8-11.4,12.4-11.4,12.4
						S300.5,1330.9,301.9,1325z"/>
				</g>
			</g>
		</g>
		<g>
			<path class="st6" d="M270.9,433.5c0.6,13.8,8,14.4,24.2,12.3c16.3-2.1,7.4-32.7,5.6-42.2c-1.9-9.5-29.3,0.7-29.3,0.7
				S270.3,419.7,270.9,433.5z"/>
			<g>
				<path id="XMLID_4015_" class="st1" d="M270.9,410.8c-1.9-3,1.6-5.8,1.6-5.8"/>
				<path id="XMLID_4014_" class="st1" d="M303.9,408.4c-1.5-2.3-6.5-4.7-6.5-4.7"/>
				<path id="XMLID_4013_" class="st1" d="M271.1,419.1c-0.9,2.7,0.6,8,0.6,8"/>
				<path id="XMLID_4012_" class="st1" d="M290.9,445.6c2.8,0.6,7.9-1.5,7.9-1.5"/>
				<path id="XMLID_4011_" class="st1" d="M280.2,442.8c-3.4,1.3-5.3-2.8-5.3-2.8"/>
				<path id="XMLID_4010_" class="st1" d="M304.8,423.2c-1-1.2-1.9-4.9-1.9-4.9"/>
				<line id="XMLID_4009_" class="st5" x1="288.7" y1="402.4" x2="283.3" y2="402.6"/>
				<path id="XMLID_4008_" class="st1" d="M304.9,440.5c1-2.6-0.2-8-0.2-8"/>
			</g>
			<g>
				<path id="XMLID_4007_" class="st1" d="M365.8,771.8c2.5,3.4-0.8,9.2-0.8,9.2"/>
				<path id="XMLID_4006_" class="st1" d="M361.8,763c-0.6-2.8-4.5-6.7-4.5-6.7"/>
				<path id="XMLID_4005_" class="st1" d="M355.9,797.6c2.1-1.8,3.7-7.1,3.7-7.1"/>
			</g>
		</g>
		<g id="XMLID_3715_">
			<g id="XMLID_4001_">
				<path id="XMLID_4004_" class="st1" d="M405.1,214.1c0,0,0.2,10.8,13.1,15.7c12.9,4.9,22.8-34.1,21.9-70.3s-35.9,10.2-35.9,10.2"
					/>
				<path id="XMLID_4003_" class="st1" d="M432.8,160.9c-3.4-10-17.1,11.2-17.1,11.2"/>
				<path id="XMLID_4002_" class="st1" d="M414.1,199.8c3.5,12.9,10.7,5.1,13.6-6.5c2.9-11.7-17.2-6.4-17.2-6.4"/>
			</g>
			<path id="XMLID_4000_" class="st7" d="M296,23.7c16.3-5.3,3.2-16.8,3.2-16.8C284.9,1,279.7,29,296,23.7z"/>
			<path id="XMLID_3999_" class="st1" d="M404.7,261.9c-6.5,33-38.9,76.3-98.1,63.7s-55.4-35.4-70-159.2S326.9,35,326.9,35
				C458.5,51.3,411.2,228.9,404.7,261.9z"/>
			<path class="st0" d="M236.7,166.5c14.7,123.8,10.7,146.5,69.9,159.1c41.9,8.9,70.3-10.2,85.7-33.8c-15.6,9.9-36,14.7-61.3,9.3
				c-59.2-12.5-55.2-35.3-69.9-159.1c-4.8-41,3.4-69.2,16.6-88.7C252.8,70.4,229.2,103.3,236.7,166.5z"/>
			<path id="XMLID_3998_" class="st3" d="M241.5,99.8c0,0,37-17.6,76.2-33.4c30.9,7.7,64.8,10.6,64.8,8c-0.2-27-7.8-98.3-83-64.5
				c-17.5,5.4-36.7,16-48.4,34.4c-1,1.5-1.8,2.9-2.6,4.3l0,0c0,0-0.1,0-0.1,0.1c-3.6,6.6-5.4,11.8-5.8,15.9
				C238.9,76.8,241.5,99.8,241.5,99.8z"/>
			<path id="XMLID_3997_" class="st1" d="M294.9,182.5c24.2,8.6,42.9-5.4,42.9-5.4"/>
			<path id="XMLID_3996_" class="st1" d="M420.2,181.4c-6.4,2.8-36.6-3.7-36.6-3.7"/>
			<path id="XMLID_3995_" class="st1" d="M312.5,320c-5.1,9.7,11.8,16.5,37.6,11.4s13.4-16.6,13.4-16.6"/>
			<path id="XMLID_3994_" class="st3" d="M428.5,70.8c0,0,12.3-17.6-33.9-20.6c-46.1-2.9-137.4-2.6-152.5,49.4
				c0,0,24.5-11,71.7-21.3s87.3,6,87.3,6C421.6,79.3,428.5,70.8,428.5,70.8z"/>
			<path id="XMLID_3993_" class="st1" d="M242.1,99.6c0,0,18.2-47.2,128.4-42.3s30.6,27,30.6,27C344,55.6,242.1,99.6,242.1,99.6z"/>
			<g>
				<path id="XMLID_3992_" class="st1" d="M362.8,149.7c0.6,13.1-18.3,36.6-18.3,36.6"/>
				<g id="XMLID_3989_">
					<path id="XMLID_3991_" class="st1" d="M361.9,198.9c0.8,0.4,1.8,0.9,3.1,1.2c1.5,0.4,3.5,0.5,5.7,0.1c4-0.8,6-5.1,6.7-11.3"/>
					<path id="XMLID_3990_" class="st1" d="M375.5,179.8c-4.1-27.2-18.5-65.7-18.5-65.7"/>
				</g>
				<g id="XMLID_3983_">
					<path id="XMLID_3988_" class="st1" d="M375.7,212.9c22.4-4.6,8.5-20.8,8.5-20.8"/>
					<path id="XMLID_3987_" class="st1" d="M351.9,212.9c-20.9-8.5-6.1-20.8-6.1-20.8"/>
					<path id="XMLID_3986_" class="st1" d="M352.6,205.8c-3.1-0.8-5.8,0.3-3.4-3.5c2.4-3.8,5.5,0.6,7.6,0
						C358.9,201.6,355.7,206.6,352.6,205.8z"/>
					<path id="XMLID_3985_" class="st1" d="M375.5,204.2c2.3-1.3,4.7-2.4,5.5-1.8c2.2,1.8,1.2,5.2-3,5.4
						C378,207.8,373.7,205.3,375.5,204.2z"/>
					<path id="XMLID_3984_" class="st1" d="M357.5,185.1c1-1.5,5.4-1.4,5.4-1.4"/>
				</g>
				<path id="XMLID_3982_" class="st1" d="M408.1,209.5c-3.5-1.3-15.7-7.4-15.7-7.4"/>
				<path id="XMLID_3981_" class="st1" d="M321.4,205.5c1.4,0.1,15.6-6.7,15.6-6.7"/>
			</g>
			<path id="XMLID_3980_" class="st1" d="M277.7,144c-3.2-1.8-1.2-6-1.2-6"/>
			<path id="XMLID_3979_" class="st1" d="M289.6,185.1c-1.1-1.3-2-5-2-5"/>
			<path id="XMLID_3978_" class="st1" d="M286.4,100c-1.6,0,0,7,0,7"/>
			<path id="XMLID_3977_" class="st1" d="M382.7,85.3c-0.7-1.1,5.9-2,5.9-2"/>
			<path id="XMLID_3976_" class="st1" d="M339.9,93.1c0.5,1.5,8.2,2.6,8.2,2.6"/>
			<path id="XMLID_3975_" class="st1" d="M379.7,286.7c0.4-1.2,6-2.4,6-2.4"/>
			<path id="XMLID_3974_" class="st1" d="M345.6,291.5c-1.5-2.4-6.6-4.8-6.6-4.8"/>
			<path id="XMLID_3973_" class="st1" d="M391,163.4"/>
			<path id="XMLID_3972_" class="st1" d="M354.4,167.7"/>
			<line id="XMLID_3971_" class="st5" x1="296.6" y1="207.1" x2="302" y2="208.5"/>
			<path id="XMLID_3970_" class="st1" d="M254.2,227.2c0,0,0.7,10.7-11.7,16.7s-25.6-32.1-27.8-68.2c-2.2-36.1,36.7,7.1,36.7,7.1"/>
			<path id="XMLID_3969_" class="st1" d="M222.2,176.6c2.6-10.3,18,9.7,18,9.7"/>
			<path id="XMLID_3968_" class="st1" d="M244.1,213.6c-2.4,13.1-10.2,6-14.1-5.3s16.6-7.8,16.6-7.8"/>
			<g>
				<path id="XMLID_3967_" class="st8" d="M370.4,150.6C344.5,93,416,99.9,416,99.9C476,140,396.3,208.2,370.4,150.6z"/>
				<path id="XMLID_3965_" class="st8" d="M323.5,175.2c65.4-21.1,12.9-67.3,12.9-67.3C279.3,84.4,258.1,196.3,323.5,175.2z"/>
				<path id="XMLID_3963_" class="st7" d="M290.5,113c-1.8,6,31.4,22.4,48.6,5.4s-6.9-19.8-6.9-19.8C295.4,96.8,292.3,107,290.5,113
					z"/>
				<path id="XMLID_3962_" class="st7" d="M372.2,97.7c2.4,8.8,33,30,50.2,9.3c17.2-20.7-20-18.6-20-18.6S369.8,88.9,372.2,97.7z"/>
				<g id="XMLID_3957_">
					<path id="XMLID_3959_" class="st1" d="M303.1,176.9c1.3,0.5,2.7,0.7,4.2,0.8c12.9,0.8,33.9-10.4,33.9-10.4
						c-14.2-3.7-38.3-2.1-38.3-2.1l-11.3,0.8c0,0-10.3,1.4-5.8,6.3c1.9,2,3.7,1.8,5.5,1.3c0.5-0.1,0.9-0.3,1.4-0.4
						C294.9,172.6,302.2,176.4,303.1,176.9z"/>
					<path id="XMLID_3958_" class="st1" d="M419.8,161.5c0,0,10.3,1.4,5.8,6.3c-4.5,4.8-6.2,0.2-14.4,2.7
						c-25.1,7.7-32.8-9.1-32.8-9.1c15.7-4.9,29.8-2.2,29.8-2.2L419.8,161.5z"/>
				</g>
				<path id="XMLID_3966_" class="st7" d="M369.2,161.4c-1.2-11.1,9.5-6.8,9.5-6.8C386.1,164.2,370.4,172.5,369.2,161.4z"/>
				<path id="XMLID_3964_" class="st7" d="M286.5,167.9c-1.2-11.1,9.5-6.8,9.5-6.8C303.4,170.6,287.7,179,286.5,167.9z"/>
			</g>
			<g id="XMLID_3952_">
				<path id="XMLID_3956_" class="st7" d="M408.5,260.2c21.4-13.9-17-18.9-17-18.9S387.1,274.1,408.5,260.2z"/>
				<path id="XMLID_3955_" class="st7" d="M371.5,237.3c2.1,7,28.1,23.8,42.8,7.4c14.6-16.4-17.1-14.7-17.1-14.7
					S369.4,230.3,371.5,237.3z"/>
				<path id="XMLID_3954_" class="st7" d="M315.6,263.1c1.6,5.6,28.4,9,31-10.6c2.6-19.6-12.8-14.4-12.8-14.4
					C311.4,248.1,314,257.5,315.6,263.1z"/>
				<path id="XMLID_3953_" class="st7" d="M347.6,248.9c44.4-21.6-0.6-16-0.6-16C295.7,239.7,303.2,270.5,347.6,248.9z"/>
			</g>
			<g id="XMLID_3716_">
				<path id="XMLID_3951_" class="st1" d="M350.6,260.1c13,23.3,36.6,0,36.6,0"/>
				<path id="XMLID_3718_" class="st1" d="M370.5,256.4c4.8-6.9,11.3,0,11.3,0"/>
				<path id="XMLID_3717_" class="st1" d="M370.5,256.4c-4.8-6.9-11.3,0-11.3,0"/>
			</g>
		</g>
		<path id="XMLID_3714_" class="st1" d="M296.5,368.7c1.5,2.5,3.2,3.8,4.9,4.4"/>
		<path id="XMLID_3713_" class="st1" d="M362.7,363.5c1.5-2,2-4.3,2-4.3"/>
		<path id="XMLID_3712_" class="st1" d="M348.8,379c0.7-0.2,1.3-0.5,1.8-0.8"/>
		<path id="XMLID_3695_" class="st3" d="M407.8,449.2c-8.9,27-3.4,214.8-3.4,214.8"/>
	</g>
</g>
<g>
	<path class="st1" d="M0.5,367.6c9.2,8.5,17.5,16,24.4,22.3c1.8,1.6,3.5,3.2,5.3,4.8C89.3,449,163.9,532.1,163.9,532.1l21.8-26
		c0,0-63.5-59.5-115.6-111.3c24.8,0.4,45.2,1.2,55.9,2.9c25.2,4,104.9-0.8,170.5-4.3l-64.4-33.9c-60.9,2.6-126.1,4.9-162.9,6.7
		c-8.4,0.5-17.3,0.8-26.4,1C29.1,367.6,14.8,367.7,0.5,367.6z"/>
	<g id="XMLID_20_">
		<path id="XMLID_32_" class="st4" d="M184.6,504.8l-28.3,17.7c0,0,19.3,79.6,29.8,69.5c5.6-5.4,6.3-8.8,5.7-11
			c4,5.4,12.1,14.4,16,2.4l-2-2.4c4.7,1.2,19.4,4.1,15.3-9.8l0.8-2.3c6.6-0.5,18.5-3.4,2.1-17.5c2.2-1.7,4.9-4.8,7.9-10
			C247.5,515.1,184.6,504.8,184.6,504.8z"/>
		<path id="XMLID_31_" class="st1" d="M156.3,522.5c0,0,19.3,79.6,29.8,69.5c5.6-5.4,6.3-8.8,5.7-11c4,5.4,12.1,14.4,16,2.4l-2-2.4
			c4.7,1.2,19.4,4.1,15.3-9.8l0.8-2.3c6.6-0.5,18.5-3.4,2.1-17.5c2.2-1.7,4.9-4.8,7.9-10c15.6-26.3-47.3-36.6-47.3-36.6"/>
		<g id="XMLID_24_">
			<g id="XMLID_26_">
				<path id="XMLID_30_" class="st2" d="M207.8,583.4c-5.2,16-18.2-5.6-18.2-5.6c0.1,0.7,7,4.1-3.5,14.2
					c-10.6,10.2-29.8-69.5-29.8-69.5"/>
				<path id="XMLID_29_" class="st2" d="M220.8,570.3c5.9,17.7-16.3,10.3-16.3,10.3"/>
				<path id="XMLID_28_" class="st2" d="M218.6,537.2c-6.6,5.4-2.3,30.4,13.3,4.2c15.6-26.3-47.3-36.6-47.3-36.6"/>
				<path id="XMLID_27_" class="st2" d="M210.1,539.4l12,10.5c24.8,20-3.8,19.2-3.8,19.2"/>
			</g>
			<path id="XMLID_25_" class="st2" d="M143.2,501.9c-13.1,15.2,15.4,15.4,15.4,15.4"/>
		</g>
		<path id="XMLID_23_" class="st1" d="M209.7,559.3c-2.5-5-10-11.2-10-11.2"/>
		<path id="XMLID_22_" class="st1" d="M200.6,573.7c0.9-1-3.8-6.2-3.8-6.2"/>
		<path id="XMLID_21_" class="st2" d="M180.5,563.8c0,0-2.5-10.7-4.7-14.9"/>
	</g>
	<g id="XMLID_54_">
		<path id="XMLID_55_" class="st1" d="M5.9,375.7c-11.1-14.2,13.2-24.1,14.8-8.4"/>
	</g>
	<path id="XMLID_52_" class="st1" d="M18.6,371.5c2.6-2.6,6.1,0.4,6.1,0.4"/>
	<path id="XMLID_51_" class="st1" d="M22.8,384c-1.2,0.7-6.2-1.9-6.2-1.9"/>
	<path id="XMLID_34_" class="st3" d="M302,404.9c-4.8-18.2-10.4-33.5-16.1-37.4C269.6,356.4,90.1,343,89,370.4
		c-1,27.4,0.2,31.2,9.9,30.6c9.8-0.6,122.6,12,131.1,7.6"/>
</g>
</svg>
