<?xml version="1.0" encoding="utf-8"?>
<!-- Generator: Adobe Illustrator 22.1.0, SVG Export Plug-In . SVG Version: 6.00 Build 0)  -->
<svg version="1.1" id="Layer_1" xmlns="http://www.w3.org/2000/svg" xmlns:xlink="http://www.w3.org/1999/xlink" x="0px" y="0px"
	 viewBox="0 0 258.1 282.1" style="enable-background:new 0 0 258.1 282.1;" xml:space="preserve">
<style type="text/css">
	.st0{fill:#80D0DF;}
</style>
<path class="st0" d="M258,0c-3.5,1.1-5.2,3.1-4.7,7c0.3,2.3-0.3,4.6-0.4,6.9c-0.1,2.3-1.1,3.7-3.5,4c-3.1,0.4-5.3,1.7-5.6,5.2
	c-0.1,2-1.8,3.1-3,4.4c-6.7,6.7-8.7,14.6-5.7,23.7c0.4,1.1,0.9,2.5,0.6,3.3c-3.3,8-5.6,16.6-13.2,22c-3,2.2-5.7,6.3-10.1,1.9
	c-0.9-0.9-2.5-0.1-2.9,1.1c-1.2,3.6-3.3,6.7-4.2,10.5c-1.1,4.4-2.7,8.6-2.7,13.3c0,0.3-0.2,0.7-0.4,0.9
	c-7.9,3.9-10.4,12.5-15.4,18.8c-5.9,7.4-11.7,14.5-19.5,19.9c-1,0.7-1.3,1.9-1.3,3.1c-0.1,3.2-2.2,5.5-4.8,6.5
	c-3.5,1.3-5.8,4.5-9.2,5.7c-0.7,0.2-1.6,1.3-1.5,1.7c1,5-3.1,6.5-6,8.7c-2.3,1.8-4.6,3.3-4.7,6.6c0,0.5-0.3,1.2-0.6,1.3
	c-8.7,3.5-11.5,12.4-17,18.8c-3.2,3.7-8.1,6.4-8.7,12.1c-0.1,1-1,2-2,2c-3.4,0.2-5.1,4.1-6.8,4.5c-4.7,1.1-7.3,4.5-11,6.4
	c-6.8,3.6-13.6,6.8-18.4,13c-2.9,3.8-6,7.1-10.4,9c-0.8,0.3-1.5,0.7-2.1,1.3c-4.5,4.3-7.6,10.9-15.6,9.8c-5,7.4-14.8,7.5-20.9,13.6
	c-3,3-8.4,3.8-12.9,4.9C9.9,273,0.6,279.1,0,282c84.7,0,169.3,0,254,0.1c3.4,0,4.1-0.7,4.1-4.1C258,185.3,258,92.7,258,0z"/>
<path class="st0" d="M-546.6,260c2.7-3.6,6.7-4.1,10.6-4c2,0.1,3-0.1,3.6-2.1c0.7-1.9,2.6-2.9,4.1-4.3c1.4-1.2,2.8-2.5,3.6-4
	c1.2-2.4,0.7-4.9-0.6-7.2c-2-3.4-4.8,0.3-8.6-1.1c6.2-1.8,7-6.3,4.9-9.8c-4.8-8-2.2-12.7,4.7-17.5c3.9-2.7,3.6-8.1,3.1-12.6
	c-0.5-4.7,0.2-8.9,3.6-12.3c2.6-2.6,3.9-5.6,4.7-9.1c0.9-3.9,4.2-3.7,7.2-3.2c7,1.2,14.4,1,20.8,5.2c2.6,1.8,6.1,1.7,8.4-1.6
	c0.5-0.8,1.5-1.4,2.4-1.6c11.5-2.8,11.5-2.8,17.8-7.7c1,2.3-1.1,4.4-0.6,7.1c1.8-0.9,3.8-2.4,5.2-1c1.4,1.4-0.1,3.4-0.4,5.2
	c-0.2,1.7-3.4,4.9,0.3,4.9c3.3,0,7.4,6.8,10.2-0.5c0.5-1.2,0.5-2.9,2.5-2.1c1.6,0.6,2.5,1.7,1.9,3.5c-0.7,2.1-0.1,3.5,1.5,4.8
	c1.6,1.1,3.1,3.7,5,2.3c1.5-1.1,3.8-2.9,2.8-5.6c-0.3-0.7-0.1-1.1,0.5-1.6c3.4-2.5,3.2-2.5,2.9-3.6c-1.2-4.6-3.2-8.2-8.9-6.5
	c-1.5,0.4-3,1.4-4.3,2.3c-5,3.5-4.7,2.6-8.1-2.2c-2.2-3.1-0.3-8.5-5.5-9.6c-0.3-0.1-0.5-1.6-0.3-2.3c1-4.1-0.8-8.5,1.1-12.6
	c0.2-0.4,0.1-1.4-0.1-1.4c-4.7-1.1-4.5-7.5-9.7-8.3c-5.1-0.7-8.2-3.3-6.6-9.3c0.5-1.8,0.4-3.7-2-5c-3.7-2-3.3-6.1,0.8-7.7
	c4.4-1.7,7.2-5.3,10.2-8.5c2.9-3.1,2.1-5.1-1.9-6.2c-1.3-0.3-2.9-0.3-2.7-2.2c0.2-1.7,1.6-1.3,2.7-1.1c1.3,0.2,1.9-0.4,2.1-1.5
	c0.2-1.2,1-2.1,2-1.6c7.9,3.5,10.1-6.2,16.3-7.2c1.1-0.2,3.2-4.7,0.5-7.4c-1.2-1.2-2-2.3-0.4-3.7c0.9-0.8,1.7-1.8,3-0.8
	c1.1,0.9,2.4,1.8,1.7,3.7c-0.5,1.3-1.6,3.1,0.3,3.9c1.4,0.5,2.9-0.6,3.8-1.8c1.6-2.2,3.3-1.5,5.5-1.1c4.5,0.9,9.2,1.8,13.8,0.9
	c2.2-0.4,3.4-0.1,3,2.3c-0.4,2.5,0.7,3.9,2.2,5.7c2.2,2.5,4.8,4.9,4.5,8.9c-0.1,1.2,0.4,3.4,2.4,3.2c3.7-0.4,6.9,3.4,10.8,0.9
	c1-0.7,2.3-0.1,2.6,1.5c0.2,1.2,0,2.6-1.5,2.7c-7.7,0.7-8.6,3.1-3.5,9.2c1.3,1.6-0.5,6.2-1.4,9.3c-0.8,3-0.7,5.2,2.5,6.4
	c0.6,0.2,1.4,0.6,1.6,1.2c2.6,7.2,9.9,6.7,15.2,9.3c1.3,1.5,3.6,2.2,3.8,4.6c-3.3,0.6-5.4-2.3-8.2-2.9c-1.4-0.3-3-1.2-4.1,0.3
	c-0.7,1,0.3,2.2,0.8,3.2c0.9,1.6,1.6,1.8,3.5,0.7c2.1-1.2,13.7,4.9,14.3,7.3c0.3,1.2,0,2.7-0.5,3.8c-3.4,7.3-6.8,14.6-12.4,20.8
	c-2.4,2.6-5.5,6-2.7,10.8c1.5,2.6-1.4,5.4-1.4,8.5c0,2-0.2,3.6,1,5.2c1.9,2.5,1.2,4.9-1.6,5.4c-6.3,1.1-3.5,4.3-1.7,6.8
	c2,2.8,4.9,4.8,0.3,7.9c-1.7,1.1-0.3,2.6,1.5,3c2.6,0.5,5.3,0.6,7.2,3.2c-2.5,1.1-4.6,0.1-6.7-0.5c-4.4-1.3-7.9,0.8-8.7,5.2
	c-0.2,1-0.1,1.5,0.9,1.8c5.3,1.6,2.7,4.6,0.8,6.9c-2.7,3.2-2.6,5.8,0.9,8c1.4,0.9,3.1,1.3,4.5,2.2c2.3,1.4,4.8,3,4.6,6.1
	c-0.2,3.1-2.6,4.9-5.5,5.7c-0.5,0.1-0.9,0.1-1.4,0.2c-0.4,0.1-1,0.1-1.1,0.3c-0.2,0.9,0.5,0.8,1,0.9c0.5,0,0.9,0,1.4-0.1
	c3.3,3.7,7.8,5.4,12.3,7.2c1.1,0.4,2.4,0.8,1.9,2.4c-0.4,1.2-1.4,1.9-2.8,1.6c-7.1-1.6-15-1.6-17.8-10.9c-0.8-2.6-4.1-2.5-5.5,0.1
	c-1.7,3.3-5.7,5.8-4.6,10.5c0.2,0.8-0.5,2-1.1,2.7c-2.2,2.2-1.5,4,1,6c-4.6-3.4-6.4-0.9-8.1,2.7c-0.9,1.9-2,4.1-3.7,5.3
	c-5.5,3.9-6,10.5-7.7,15.9c-1.3,3.9,1,9.1,2.7,13.5c0.1,0.3,0.3,0.6,0.5,0.8c5.8,8.6,5.8,8.7-1.4,15.9c-0.4,0.4-1.6,0.7-1.6,1
	c0.5,6.4-4.3,6.9-8.6,7.8c-1.9,0.4-0.4,2.4-1.3,2.6c-2.6,0.8-3.7,5.7-7.8,2.7c-1.3-1-4.2-1.7-4.9-1.3c-8.2,4.4-19.4,1.8-25.7,11.1
	c-3.6,5.3-10.1,5.6-15.3,1.8c-6.4-4.7-7.7-4.5-14.2-0.1c-3.1,2.1-5.7,4.8-9.4,6.2c-5.5,2.1-9.5,0.2-9.5-5.5c0-5.5-2.4-6.1-7-5.7
	c-9.3,0.8-9.8,1.1-11.3,10.6c-0.2,1.2-0.2,2.3-1.8,2.5c-3.1,0.4-9.3-3-10.3-6.2c-0.5-1.4-1.3-2.4-2.5-2.9c-3.3-1.3-7.5-0.9-8.5-6.1
	c-0.2-1.1-4.4-0.4-6.6,0.1c-7.5,1.7-12.4-2.1-16.9-7.3c-1.9-2.2-2.3-6.1-6.6-5.7c-0.8,0.1-1.7-1.2-1.1-1.8c2.7-2.4,0.8-5.3,0.9-8
	c0.4-7.1,7-14.6,15.1-17.2c2.6-0.8,7.2-0.1,6.7-4.1c-0.3-2.1-4.3-3.4-7.4-3.3c-0.8,0-1.8,0.3-2.1-0.7c-0.2-0.9,0.4-1.8,1.3-1.8
	c2.2,0,1.2-5.9,5.1-2.6c0.6,0.5,1.7,1,1.3,1.8c-2.3,4.9,2.5,2.4,3.9,4.7c0.4-2.3-1.9-3.3,0.1-5.2c3.2-3.2,0.9-8.6,3.6-12.4
	c0.2-0.2,0-0.6,0-0.9c-5.4,1.7-2-4.7-5.1-5.6c-1.2-0.3-2.9-2.1-1.5-4c1.2-1.7,2.9-1.4,4.5-0.4c2.5,1.6,4.2,0.8,5.1-1.7
	c1-2.5-3.4-3.1-2.3-6c0.9-2.3,4.1-0.2,5.1-3.6c0.8-3,5.6-4.5,5.9-8.7c-2-1.2-5,0.6-6.5-2.1c0.9-1,1.7-1.9,2.6-2.9l0,0
	c0.9,0.8,2.2,2.6,2.7,2.4C-546.3,263.5-546.3,261.7-546.6,260z"/>
<path class="st0" d="M-381.8,25.7c2.4-1.5,4.8-4.9,8.7-1.9c3.1,2.4,2.7,9.7-0.5,13.1c-1.3,1.4-8.6,2-9.8,0.8
	C-386.2,34.8-385.7,30-381.8,25.7z"/>
<path class="st0" d="M-344.1,81.7c2.2,2.4,3.2,4.5,1,6.5c-2.1,1.8-4.6,4-7.3,1.1c-1.9-2-2.6-4.7-0.2-7.1
	C-348.4,79.9-346,80.2-344.1,81.7z"/>
<path class="st0" d="M-326.6,386c-7-1.3-12.1-6-18.3-8.5c-1.7-0.7-4.2-2.5-2.9-4.4c1.2-1.7,3.6-0.3,5,1.3c3.3,3.9,7.9,5.8,12.2,8.1
	C-329.1,383.3-328,384.8-326.6,386z"/>
<path class="st0" d="M-437.9,413.5c3.3,0.8,11.6,9.9,11.8,12.7c0.1,0.6-0.2,1.3-0.6,1.7c-0.5,0.6-1.3,0.4-1.7-0.2
	C-431.6,423.2-436.3,419.6-437.9,413.5z"/>
<path class="st0" d="M-362.6,214.9c2.6-2.5,4.7-3.5,7.2-1.4c1.8,1.6,2.1,3.4,0.4,5.2c-1.9,2-4.3,2.6-6.7,0.7
	C-363.5,217.9-364,216.1-362.6,214.9z"/>
<path class="st0" d="M-550.7,261.8c-0.9,1-1.7,1.9-2.6,2.9c-2.3-1.9-2.2,0.7-3,1.6c-1.1,1.4-2.1,3.5-4.2,2.4
	c-2.4-1.2-1.4-3.4-0.6-5.2c0.8-1.9,2.4-4.1,4.4-2.3C-554.5,263.1-552.6,261.2-550.7,261.8z"/>
<path class="st0" d="M-368.5,148.3c-0.2-2.4-2.5-3.1-3.8-4.6c1.5-0.2,1.6-0.9,1.3-2.3c-0.4-1.7,0.9-2.8,2.5-3.1
	c1.1-0.2,2.4,0.1,3.1,1.1c0.9,1.4,0.9,3.7-0.4,3.9C-369.3,144-364.5,148.5-368.5,148.3z"/>
<path class="st0" d="M-378.7,251.9c-1-2-0.7-3.6,0.7-4.8c1.5-1.3,3.5-0.8,4.6,0.3c1.5,1.6,0.5,3.5-0.9,4.8
	C-376,253.9-377.3,251.9-378.7,251.9z"/>
<path class="st0" d="M-360.2,318.3c5.6,2.3,7.6,6.3,9.3,10.5C-353.9,325.7-358.7,324.4-360.2,318.3z"/>
<path class="st0" d="M-373.9,308.7c-3.5-1-6.5-2.7-7.3-7C-377,302.6-375.2,305.3-373.9,308.7z"/>
<path class="st0" d="M-379.1,7.3c1.1-1,2.4-2.9,4-1.5c1.8,1.5,0.3,3.4-0.8,4.7c-1,1.2-2.5,2.7-4.1,1.2
	C-381.5,10.3-380.1,8.7-379.1,7.3z"/>
<path class="st0" d="M-581.4,301.6c1.4-1.4,2.9-1.6,4.4-0.3c1.3,1.1,1.6,2.7,0.6,4c-1.1,1.4-2.8,1.8-4.4,0.6
	C-582.3,304.7-582.5,303.2-581.4,301.6z"/>
<path class="st0" d="M-573.5,282.7c-1.8,1.1-3.5,1-4.7-0.3c-1.3-1.4-1.1-3.2,0-4.5c1.2-1.3,2.8-0.7,3.9,0.4
	C-573,279.6-572.9,281.2-573.5,282.7z"/>
<path class="st0" d="M-389.9,67.4c-1.2-1.4-1-3,0.2-4c1.4-1.2,3.1-1,4.4,0.4c1.1,1.1,0.8,2.4-0.2,3.5C-387,69-388.5,68.1-389.9,67.4
	z"/>
<path class="st0" d="M-600.3,291.9c1.3-0.4,2.5-1.1,3.7,0.1c1,1.1,1.3,2.3,0.1,3.5c-1,1-2.4,1.5-3.5,0.5
	C-601.4,294.8-600.8,293.3-600.3,291.9z"/>
<path class="st0" d="M-523.9,384.9c-0.8-1.9-0.8-3.7,0.6-5.2c0.8-0.9,2.3-1.4,3-0.4c1.4,1.9,0.3,3.8-1.2,5.3
	C-522.1,385.3-523,386-523.9,384.9z"/>
<path class="st0" d="M-343.3,126.8c-1-1.1-1.3-2.3-0.1-3.4c1.6-1.5,2.7-0.1,3.8,0.8c1,0.8,1.6,1.9,0.4,2.9
	C-340.5,128.1-342,128-343.3,126.8z"/>
<path class="st0" d="M-379.1,282.2c0.9-0.9,2-0.8,2.9,0.2c1.3,1.5,1.2,3-0.2,4.3c-1,0.9-2.1,0.9-2.7-0.5
	C-379.7,284.9-380.9,283.6-379.1,282.2z"/>
<path class="st0" d="M-452.5,83.5c-1,1.2-2.1,1.5-3.3,0.3c-0.9-0.9-2.2-2-0.9-3.3c1-1.1,2.7-1.5,4-0.5
	C-451.6,81-451.4,82.3-452.5,83.5z"/>
<path class="st0" d="M-388.5,46.1c-0.9-1.2-0.4-2.3,0.5-3.3c0.8-0.9,1.7-1.6,2.8-0.5c1.1,1.1,1.1,2.3,0.1,3.4
	C-385.9,46.7-387.1,47.3-388.5,46.1z"/>
<path class="st0" d="M-401.1,88c-0.9-0.8-1.8-1.8-0.9-2.6c1.1-1.1,2.7-1.1,3.9,0.1c0.8,0.7,0.9,1.8,0.2,2.7
	C-399.1,89.6-400.2,88.7-401.1,88z"/>
<path class="st0" d="M-371.2,126.9c-0.7-0.9-0.6-1.8,0.1-2.6c0.8-1,2-1.3,3-0.7c1.3,0.8,0.8,2.2,0,3
	C-368.9,127.4-370.1,127.5-371.2,126.9z"/>
<path class="st0" d="M-546.6,260c0.3,1.7,0.3,3.5-1.4,4.1c-0.5,0.2-1.8-1.5-2.7-2.4C-549.3,261.2-547.9,260.6-546.6,260z"/>
<path class="st0" d="M-383.2,267.8c0.5-0.1,0.9-0.1,1.4-0.2c0,0.4,0,0.8,0,1.2c-0.5,0-0.9,0-1.4,0.1
	C-383.2,268.6-383.2,268.2-383.2,267.8z"/>
<path class="st0" d="M-383.2,269c-0.5-0.1-1.3,0-1-0.9c0-0.2,0.7-0.2,1.1-0.3C-383.2,268.2-383.2,268.6-383.2,269z"/>
<g>
	<path class="st0" d="M24.4,258.6c-2.7-0.8-6.9-0.3-7.2-5.2c-0.3-3.9,5.4-8.5,10.1-8.4c1.9,0.1,7.2,5.1,7.1,6.7
		C34.1,255.9,30.2,258.7,24.4,258.6z"/>
	<path class="st0" d="M150.1,146.5c0.9,0.3,1.7,1.4,1.9-0.1c0.1-1.1-1.2-3,1.2-2.7c1.8,0.3,3.1,1.8,4.2,3.3c0.2,0.3,0.3,1,0.1,1.3
		c-1.7,3-1.5,4.4,1.8,5.9c2.8,1.3,4.4,3.5,6.1,5.7c0.8,1,1,2.7-0.2,3.6c-1.1,0.8-2.3-0.1-2.9-1.1c-2.2-4-5.2-6.6-9.7-7.6
		c-2-0.5-3.8-2.1-4.8-4.2C146.8,148,146.8,146.1,150.1,146.5z"/>
	<path class="st0" d="M147.3,227.3c-0.2,0.3-0.4,0.8-0.6,0.8c-4.8,0.5-2.4,2.3-0.8,4.2c0.8,1,2.9,1.7,1.2,3.5
		c-1.5,1.5-2.6-0.1-3.9-0.5c-7.5-2.7-5-10-7-15.2c-0.6-1.5,1.1-2.1,2.1-1c2.5,2.8,4.7,5.8,8.5,7
		C147.1,226.1,147.2,226.9,147.3,227.3z"/>
	<path class="st0" d="M162.7,257.9c-4.3-3.2-7.7-6.9-9.6-11.7c-0.7-1.9-0.6-4.2,1.9-4.9c2.4-0.8,4,0.8,4.6,2.8
		C160.9,248.6,161.7,253.3,162.7,257.9z"/>
	<path class="st0" d="M40.9,193.2c0.3-3.2,1.2-5.4,4.2-5.1c2.8,0.3,6.1,0.8,5.7,4.7c-0.2,2.8-1.8,5.1-5.1,4.9
		C42.5,197.6,41.1,195.6,40.9,193.2z"/>
	<path class="st0" d="M237.1,9c3.7,6.1,3.6,13,5.9,19.3c0.6,1.7,0.9,4.8-1.3,5.1c-2.1,0.3-2.6-2.5-2.3-4.6c0.7-5.1-1-9.7-2.1-14.5
		C236.8,12.6,237.1,10.8,237.1,9z"/>
	<path class="st0" d="M153.4,138.2c-2.9,0.6,1.5,3.6-1.1,4c-2.1,0.4-3.1-1.3-3.7-3.3c-0.6-2.3-3-2.4-4.6-3.4c-1-0.6-2.1-1.3-1.8-2.7
		c0.2-1.3,1.3-1.8,2.5-2.2c1.2-0.4,2.7-0.4,2.9,1c0.4,2.9,2.3,3.8,4.6,4.6C153,136.5,153.4,137.1,153.4,138.2z"/>
	<path class="st0" d="M178.1,171.6c-6.2-5-6.4-7.6-1.7-14.4c0.9-1.3,1.7-0.8,2.3-0.1c1,1.3,1.8,2.7,2.6,4.1l0.1-0.1
		c-4.3,2.5-5.4,5.8-3.4,10.4L178.1,171.6z"/>
	<path class="st0" d="M152.6,118.1c-3.6-0.3-5.8-1.1-5.9-4.4c-0.1-2.4,1.2-3.9,3.6-3.7c2.8,0.1,4.8,1.5,5,4.5
		C155.4,116.8,154.4,118.4,152.6,118.1z"/>
	<path class="st0" d="M91.7,91.1c-4.7-1.3,0.5,3.6-3.1,2.7c-2.3-0.6-5.5,0-5.9-3.5c-0.2-1.7,0.1-4,2.8-3.7
		C88,86.9,89.2,89,91.7,91.1z"/>
	<path class="st0" d="M106.9,167c-1.7,1.8-0.6,3.9-0.9,5.9c-1.1-1-1.7-0.6-2.6,0.6c-1,1.4-2.7,1.2-4,0.2c-0.9-0.7-1.6-1.8-1.2-3.1
		c0.4-1.6,2.2-3.1,3.2-2.3C104.1,170.4,104.4,163.9,106.9,167z"/>
	<path class="st0" d="M125.5,187.2c3.1,3.8,2.9,7.9,2.1,12.1c-0.1,0.7-0.4,1.8-1.5,1.6c-1.2-0.3-2.5-1.9-2-2.4
		C127.5,194.9,124.7,190.9,125.5,187.2z"/>
	<path class="st0" d="M190.8,105.5c-0.8,2.1-2.2,2.9-4,2.7c-2-0.2-2.9-2.1-2.8-3.6c0.2-2.2,2.3-2.7,4.2-2.6
		C190.5,102.1,189.9,104.4,190.8,105.5z"/>
	<path class="st0" d="M227.9,47.4c-2-5.7-0.4-9.9,1.6-14C229.3,37.7,231.5,42.2,227.9,47.4z"/>
	<path class="st0" d="M229.9,64c1.6,3.3,2.3,6.6-0.4,10.1C227.5,70.4,228.3,67.2,229.9,64z"/>
	<path class="st0" d="M8.9,268.9c-1.5-0.1-3.7,0.1-3.8-2c-0.1-2.4,2.3-2.5,4-2.6c1.6-0.1,3.7,0.1,3.7,2.2
		C12.7,268.7,10.6,268.7,8.9,268.9z"/>
	<path class="st0" d="M60.9,236.9c-0.2,1.8-1.6,2.7-3.1,2.5c-1.8-0.2-2.8-1.7-2.7-3.6c0.1-1.6,1.3-2.2,2.8-2.2
		C60.1,233.6,60.5,235.3,60.9,236.9z"/>
	<path class="st0" d="M134.5,134.3c2,0.6,3.5,1.8,3.6,4.1c0,1.3-0.7,2.5-2.1,1.9c-1.8-0.8-3.8-1.7-3.9-4.1
		C132,134.8,133.1,134.3,134.5,134.3z"/>
	<path class="st0" d="M74,162.5c-0.2,1.5-0.9,2.5-2.5,2.4c-2.1-0.2-1.8-2-1.9-3.4c-0.1-1.3,0.3-2.5,1.9-2.2
		C73.1,159.6,74,160.7,74,162.5z"/>
	<path class="st0" d="M213.7,85.5c-1.3-0.1-1.9-0.9-1.8-2.3c0.2-1.9,1.4-2.9,3.3-2.7c1.3,0.1,2,1,1.4,2.4
		C216.1,84.2,215.9,86,213.7,85.5z"/>
	<path class="st0" d="M114.7,272.8c1.6-0.1,2.5,0.6,2.5,2.3c-0.1,1.3-0.1,2.9-1.8,2.9c-1.5-0.1-2.9-1-3-2.7
		C112.2,273.8,113,272.7,114.7,272.8z"/>
	<path class="st0" d="M44,250c-0.3,1.5-1.5,1.8-2.8,1.8c-1.2,0-2.3-0.2-2.3-1.8c0.1-1.6,1-2.4,2.5-2.4C42.8,247.7,44,248.2,44,250z"
		/>
	<path class="st0" d="M83.7,231.5c0,1.2-0.2,2.5-1.3,2.4c-1.5-0.1-2.6-1.3-2.6-3c0-1,0.8-1.9,1.8-1.9
		C83.6,228.9,83.6,230.4,83.7,231.5z"/>
	<path class="st0" d="M126.2,221.9c-2.1-2.2-2.7-4.1-1.7-6.3c0.1-0.2,1-0.3,1.2-0.1C127.3,217.2,127.1,219.1,126.2,221.9z"/>
	<path class="st0" d="M182.1,148.5c0,1.3-0.3,2.2-1.5,2.3c-1.3,0.1-2.3-0.4-2.5-1.7c-0.2-1.1,0.7-1.9,1.6-2.1
		C180.9,146.7,181.9,147.2,182.1,148.5z"/>
	<path class="st0" d="M92.7,183.3c-0.2,1.1-0.9,1.7-2,1.7c-1.3,0-2.3-0.6-2.5-1.8c-0.2-1.5,1.1-2,2.2-2
		C91.5,181.2,92.5,182,92.7,183.3z"/>
	<path class="st0" d="M181.3,161.2c1.2,0.3,0.5,2.1,1.8,2.3l-0.1-0.1c-0.4-0.9-3.6,0.2-1.6-2.3C181.4,161.1,181.3,161.2,181.3,161.2
		z"/>
	<path class="st0" d="M-6.9,280.9l0,0.1c0,0-0.1-0.2-0.1-0.2C-7,280.9-6.9,280.9-6.9,280.9z"/>
	<path class="st0" d="M178,171.5l0.2,0C178.1,171.5,178,171.6,178,171.5C178.1,171.6,178,171.5,178,171.5z"/>
	<path class="st0" d="M205.7,98.2c-0.4-0.3-0.7-0.6-1.1-0.9c0.3-0.3,0.6-0.6,0.9-0.8c0.3,0.3,0.7,0.7,1,1
		C206.3,97.7,206,97.9,205.7,98.2z"/>
	<path class="st0" d="M206.6,97.4c0.3,0.4,0.8,0.9,0.1,1.3c-0.2,0.1-0.6-0.4-0.9-0.6C206,97.9,206.3,97.7,206.6,97.4z"/>
	<path class="st0" d="M75.8,51.4c3.1-0.6,4.6,0.9,4.9,3.3c0.5,3,0.5,6.2-2.8,7.7c-3,1.4-6.3,2.2-9.3,3.4c-2.9,1.1-5.9-0.2-7.2-1.9
		c-1.6-2.1,1-4.6,2.9-5.5C68.5,56.4,70.1,50.1,75.8,51.4z"/>
</g>
</svg>
