<?xml version="1.0" encoding="utf-8"?>
<!-- Generator: Adobe Illustrator 22.1.0, SVG Export Plug-In . SVG Version: 6.00 Build 0)  -->
<svg version="1.1" id="Layer_1" xmlns="http://www.w3.org/2000/svg" xmlns:xlink="http://www.w3.org/1999/xlink" x="0px" y="0px"
	 viewBox="0 0 672.9 216.8" style="enable-background:new 0 0 672.9 216.8;" xml:space="preserve">
<style type="text/css">
	.st0{fill:#EFE4DA;stroke:#5C5B4B;stroke-miterlimit:10;}
	.st1{fill:#F3FAFC;stroke:#5C5B4B;stroke-miterlimit:10;}
</style>
<g id="Layer_5">
</g>
<g id="Layer_3">
</g>
<g>
	<g id="XMLID_299_">
		<path id="XMLID_305_" class="st0" d="M488.4,86.9"/>
		<path id="XMLID_302_" class="st0" d="M514.6,81.4c-41.9-30.8-74.7,7.9-74.7,7.9s-26.9,61.6,24.3,77.8
			C515.5,183.4,556.6,112.2,514.6,81.4z M495.5,125.4c-12.8,33.3-52.1-18.9-24.1-22.7C471.4,102.7,508.3,92.2,495.5,125.4z"/>
		<path id="XMLID_301_" class="st0" d="M498.5,76.8"/>
		<path id="XMLID_300_" class="st0" d="M498.5,74.7c0,0,33.2-31.7,34,27.9s11.9,114.1-52,113.7c0,0-34.8-14.5,0-29.8
			c17-7.5,20.4-23,20-42.5"/>
	</g>
	<g id="XMLID_270_">
		<path id="XMLID_286_" class="st1" d="M477.4,75.9"/>
		<path id="XMLID_283_" class="st1" d="M503.6,70.4c-41.9-30.8-74.7,7.9-74.7,7.9s-26.9,61.6,24.3,77.8
			C504.5,172.4,545.6,101.2,503.6,70.4z M484.5,114.4c-12.8,33.3-52.1-18.9-24.1-22.7C460.4,91.7,497.3,81.2,484.5,114.4z"/>
		<path id="XMLID_282_" class="st1" d="M487.5,65.8"/>
		<path id="XMLID_281_" class="st1" d="M487.5,63.7c0,0,33.2-31.7,34,27.9s11.9,114.1-52,113.7c0,0-34.8-14.5,0-29.8
			c17-7.5,20.4-23,20-42.5"/>
		<path id="XMLID_280_" class="st1" d="M480.8,86.3"/>
		<path id="XMLID_279_" class="st1" d="M488.7,78.3"/>
		<line id="XMLID_278_" class="st1" x1="472.2" y1="195.9" x2="475.3" y2="197.3"/>
		<path id="XMLID_277_" class="st1" d="M499.1,186.7c0,0,1.2,2.5-0.7,3.6"/>
		<path id="XMLID_276_" class="st1" d="M512.6,164.4c0,0-0.6,2.3-1.2,3.1"/>
		<path id="XMLID_275_" class="st1" d="M510.1,108.9c0,0,1-4.3,0-4.3"/>
		<path id="XMLID_274_" class="st1" d="M452.6,142c0,0,4,0.6,3.6,1.2"/>
		<path id="XMLID_273_" class="st1" d="M501.7,76.8c0,0,4.7-0.7,5-1.6"/>
		<path id="XMLID_272_" class="st1" d="M452.9,75c0,0-3.1,1.5-4,3"/>
		<line id="XMLID_271_" class="st1" x1="497.7" y1="122.2" x2="494.8" y2="124"/>
	</g>
</g>
</svg>
