<?xml version="1.0" encoding="utf-8"?>
<!-- Generator: Adobe Illustrator 22.1.0, SVG Export Plug-In . SVG Version: 6.00 Build 0)  -->
<svg version="1.1" id="Layer_1" xmlns="http://www.w3.org/2000/svg" xmlns:xlink="http://www.w3.org/1999/xlink" x="0px" y="0px"
	 viewBox="0 0 576.3 200" style="enable-background:new 0 0 576.3 200;" xml:space="preserve">
<style type="text/css">
	.st0{fill:#FFFFFF;stroke:#231F20;stroke-miterlimit:10;}
	.st1{fill:#FFF5EB;stroke:#5C5B4B;stroke-linecap:round;stroke-miterlimit:10;}
</style>
<g id="Layer_5">
</g>
<g id="Layer_3">
</g>
<g id="XMLID_27834_">
	<path id="XMLID_27838_" class="st0" d="M12.2,121.2c0,0-4.2,81.7,22.4,65S44,55.8,31.7,49.9S12.2,121.2,12.2,121.2z"/>
	<path id="XMLID_27835_" class="st0" d="M40.4,145.7c1.8,0.7,3.8,1.4,5.8,2.1c56.6,17.4,102.1-58.7,55.7-91.5
		c-46.4-32.9-82.7,8.4-82.7,8.4s-16.7,37-1.2,62.8 M73.3,112C41,132.5,38.5,61.8,66,76.7C66,76.7,105.6,91.5,73.3,112z"/>
</g>
<g id="XMLID_27827_">
	<path id="XMLID_27833_" class="st0" d="M488.4,70.2"/>
	<path id="XMLID_27830_" class="st0" d="M514.6,64.7c-41.9-30.8-74.7,7.9-74.7,7.9s-26.9,61.6,24.3,77.8
		C515.5,166.7,556.6,95.5,514.6,64.7z M495.5,108.7c-12.8,33.3-52.1-18.9-24.1-22.7C471.4,85.9,508.3,75.4,495.5,108.7z"/>
	<path id="XMLID_27829_" class="st0" d="M498.5,60"/>
	<path id="XMLID_27828_" class="st0" d="M498.5,57.9c0,0,33.2-31.7,34,27.9s11.9,114.1-52,113.7c0,0-34.8-14.5,0-29.8
		c17-7.5,20.4-23,20-42.5"/>
</g>
<g id="XMLID_27824_">
	<path id="XMLID_27826_" class="st0" d="M168.3,33.2c0,0-5.3-30-30.5-19.4S125,138,136.7,146.8C148.3,155.6,180.9,209.8,168.3,33.2z
		"/>
	<path id="XMLID_27825_" class="st0" d="M161.8,97.8c0,0,42-41.5,33.5,36c0,0,10,24,29.5,14s22.5-133-71.5-98.5"/>
</g>
<g id="XMLID_27820_">
	<g id="XMLID_27822_">
		<path id="XMLID_27823_" class="st0" d="M574.8,96.1c0,0,6.8-35.6-23.2-25.5c-30.1,10.1-11.9,88.1,4,84.8
			C571.4,152.1,578.8,139.6,574.8,96.1z"/>
	</g>
	<path id="XMLID_27821_" class="st0" d="M558.4,22.2c0,0,33.8,19.4,0.5,33.7C525.6,70.2,535.7,4.4,558.4,22.2z"/>
</g>
<g id="XMLID_27817_">
	<path id="XMLID_27819_" class="st0" d="M375.5,70c0,0-4.1-20-23.7-13s-10,82.9-0.9,88.7S385.3,187.7,375.5,70z"/>
	<path id="XMLID_27818_" class="st0" d="M371,106.3c0,0,34.4-34,27.4,29.5c0,0,8.2,19.6,24.1,11.5c16-8.2,18.4-108.9-58.5-80.6"/>
</g>
<path id="XMLID_26900_" class="st0" d="M273.2,83.5c0,0-2-35-25.7-24.7s-10.4,109.5,49.8,95.2c60.2-14.3,35.9-92.2,35.9-92.2
	s-25-22.3-29.5,16.2c0,0-1.3,25.8-13.1,27.9C279,108,272,90,273.2,83.5z"/>
<g id="XMLID_19_">
	<path id="XMLID_23_" class="st1" d="M1.2,110.2c0,0-4.2,81.7,22.4,65S33,44.8,20.7,38.9S1.2,110.2,1.2,110.2z"/>
	<path id="XMLID_20_" class="st1" d="M29.4,134.7c1.8,0.7,3.8,1.4,5.8,2.1C91.9,154.1,137.4,78.1,91,45.2
		C44.5,12.3,8.3,53.6,8.3,53.6s-16.7,37-1.2,62.8 M62.3,101C30,121.5,27.5,50.8,55,65.7C55,65.7,94.6,80.5,62.3,101z"/>
</g>
<g id="XMLID_12_">
	<path id="XMLID_18_" class="st1" d="M477.4,59.2"/>
	<path id="XMLID_15_" class="st1" d="M503.6,53.7c-41.9-30.8-74.7,7.9-74.7,7.9s-26.9,61.6,24.3,77.8
		C504.5,155.7,545.6,84.5,503.6,53.7z M484.5,97.7c-12.8,33.3-52.1-18.9-24.1-22.7C460.4,74.9,497.3,64.4,484.5,97.7z"/>
	<path id="XMLID_14_" class="st1" d="M487.5,49"/>
	<path id="XMLID_13_" class="st1" d="M487.5,46.9c0,0,33.2-31.7,34,27.9s11.9,114.1-52,113.7c0,0-34.8-14.5,0-29.8
		c17-7.5,20.4-23,20-42.5"/>
</g>
<g id="XMLID_9_">
	<path id="XMLID_11_" class="st1" d="M157.3,22.2c0,0-5.3-30-30.5-19.4S114,127,125.7,135.8C137.3,144.6,169.9,198.8,157.3,22.2z"/>
	<path id="XMLID_10_" class="st1" d="M150.8,86.8c0,0,42-41.5,33.5,36c0,0,10,24,29.5,14s22.5-133-71.5-98.5"/>
</g>
<g id="XMLID_5_">
	<g id="XMLID_7_">
		<path id="XMLID_8_" class="st1" d="M563.8,85.1c0,0,6.8-35.6-23.2-25.5c-30.1,10.1-11.9,88.1,4,84.8
			C560.4,141.1,567.8,128.6,563.8,85.1z"/>
	</g>
	<path id="XMLID_6_" class="st1" d="M547.4,11.2c0,0,33.8,19.4,0.5,33.7C514.6,59.2,524.7-6.6,547.4,11.2z"/>
</g>
<g id="XMLID_2_">
	<path id="XMLID_4_" class="st1" d="M364.5,59c0,0-4.1-20-23.7-13s-10,82.9-0.9,88.7S374.3,176.7,364.5,59z"/>
	<path id="XMLID_3_" class="st1" d="M360,95.3c0,0,34.4-34,27.4,29.5c0,0,8.2,19.6,24.1,11.5c16-8.2,18.4-108.9-58.5-80.6"/>
</g>
<path id="XMLID_1_" class="st1" d="M262.2,72.5c0,0-2-35-25.7-24.7s-10.4,109.5,49.8,95.2c60.2-14.3,35.9-92.2,35.9-92.2
	s-25-22.3-29.5,16.2c0,0-1.3,25.8-13.1,27.9C268,97,261,79,262.2,72.5z"/>
</svg>
