<?xml version="1.0" encoding="utf-8"?>
<!-- Generator: Adobe Illustrator 22.1.0, SVG Export Plug-In . SVG Version: 6.00 Build 0)  -->
<svg version="1.1" id="Layer_1" xmlns="http://www.w3.org/2000/svg" xmlns:xlink="http://www.w3.org/1999/xlink" x="0px" y="0px"
	 viewBox="0 0 1304.6 721" style="enable-background:new 0 0 1304.6 721;" xml:space="preserve">
<style type="text/css">
	.st0{opacity:0.2;}
	.st1{fill:#5D5B4C;}
	.st2{fill:#A9D277;stroke:#90A55E;stroke-linecap:round;stroke-miterlimit:10;}
</style>
<g id="Layer_5">
</g>
<g id="Layer_3">
</g>
<g>
	<g class="st0">
		<path class="st1" d="M1283.9,68.4c0.1-0.7,0-18.7-0.3-30.5c0.1-0.3,0.2-0.5,0.2-0.8c0.1-0.2,0.1-7,0.1-7.2
			c0.1-1.7-0.7-3.5-3.7-4.9c-0.9-0.5-1.9-1-2.9-1.2c-0.2-0.1-7.2-0.1-7.4-0.1c-0.4,0-0.9,0-1.3,0.1c-22-0.3-76.4,0-101.1,0.2
			c-0.4-0.1-0.7-0.2-1.1-0.2c-1.5-0.2-6.8-0.1-8.2,0c-0.7,0-1.4,0.2-2,0.3c-0.8,0-1.3,0-1.3,0c-0.9,0-1.6,0.3-2.1,0.6
			c-23.5-0.2-74.6,0.1-98.4,0.2c-0.4-0.1-0.7-0.2-1.1-0.2c-0.1,0-0.1,0-0.2,0c-0.5-0.2-1.1-0.4-1.6-0.5c-0.2-0.1-7.2-0.1-7.4-0.1
			c-0.4,0-0.9,0-1.3,0.1c-21.8-0.3-75.7,0-100.6,0.2c-0.2-0.1-0.5-0.3-0.8-0.4c-0.9-0.5-1.9-1-2.9-1.2c-0.2-0.1-7.2-0.1-7.4-0.1
			c-0.4,0-0.9,0-1.3,0.1c-22-0.3-76.4,0-101.1,0.2c-0.4-0.1-0.7-0.2-1.1-0.2c-1.5-0.2-6.8-0.1-8.2,0c-0.3,0-0.7,0.1-1,0.1
			c-0.4,0-0.6,0-0.6,0c-0.4,0-0.9,0-1.3,0.1c-22-0.3-76.4,0-101.1,0.2c-0.4-0.1-0.7-0.2-1.1-0.2c-0.1,0-0.1,0-0.2,0
			c-0.5-0.2-1.1-0.4-1.6-0.5c-0.2-0.1-7.2-0.1-7.4-0.1c-0.4,0-0.9,0-1.3,0.1c-22-0.3-76.4,0-101.1,0.2c-0.4-0.1-0.7-0.2-1.1-0.2
			c-1.5-0.2-6.8-0.1-8.2,0c-0.7,0-1.4,0.2-2,0.3c-0.8,0-1.3,0-1.3,0c-0.9,0-1.6,0.3-2.1,0.6c-23.5-0.2-74.6,0.1-98.4,0.2
			c-0.4-0.1-0.7-0.2-1.1-0.2c-0.1,0-0.1,0-0.2,0c-0.5-0.2-1.1-0.4-1.6-0.5c-0.2-0.1-7.2-0.1-7.4-0.1c-0.4,0-0.9,0-1.3,0.1
			c-21.8-0.3-75.7,0-100.6,0.2c-0.2-0.1-0.5-0.3-0.8-0.4c-0.9-0.5-1.9-1-2.9-1.2c-0.2-0.1-7.2-0.1-7.4-0.1c-0.4,0-0.9,0-1.3,0.1
			c-22-0.3-76.4,0-101.1,0.2c-0.4-0.1-0.7-0.2-1.1-0.2c-0.1,0-0.1,0-0.2,0c-0.5-0.2-1.1-0.4-1.6-0.5c-0.2-0.1-7.2-0.1-7.4-0.1
			c-0.4,0-0.9,0-1.3,0.1c-22-0.3-76.4,0-101.1,0.2c-0.4-0.1-0.7-0.2-1.1-0.2c-1.5-0.2-6.8-0.1-8.2,0c-0.7,0-1.4,0.2-2,0.3
			c-0.8,0-1.3,0-1.3,0c-0.9,0-1.6,0.3-2.1,0.6C113,21.7,61.9,22,38.1,22.1c-0.4-0.1-0.7-0.2-1.1-0.2c-1.5-0.2-6.8-0.1-8.2,0
			c-0.7,0-1.4,0.2-2,0.3c-0.8,0-1.3,0-1.3,0c-2.6,0.1-3.9,1.9-4.2,4.1c0,0.4-0.1,1-0.1,1.7l0,0c0,0,0,0.2,0,0.5c0,0.7,0,1.5,0,2.3
			c0,8.7,0.1,34.7,0,35.3c-0.1,0.8,0.1,38.9,0,39.5c0,0.6,0,17.2,0.3,28.9c-0.1,0.3-0.1,0.6-0.2,0.8c0,0.4-0.1,1-0.1,1.7l0,0
			c0,0,0,0.2,0,0.5c0,0.7,0,1.5,0,2.3c0,0.7,0,1.5,0,2.5c0,0.4,0,0.8,0,1.1c0,10.7,0.1,31.3,0,31.7c-0.1,0.8,0.1,38.9,0,39.5
			c0,0.6,0,17,0.2,28.7c-0.1,0.3-0.1,0.5-0.2,0.8c0,0.4-0.1,1-0.1,1.7l0,0c0,0,0,0.2,0,0.5c0,0.7,0,1.5,0,2.3s0,1.6,0,2.6
			c0,0.4,0,0.8,0,1.1s0,0.7,0,1.1l0,0c0,11,0.1,30,0,30.5c-0.1,0.8,0.1,38.9,0,39.5c0,0.6,0,17,0.2,28.7c-0.1,0.3-0.1,0.5-0.2,0.8
			c0,0.4-0.1,1-0.1,1.7l0,0c0,0,0,0.2,0,0.5c0,0.7,0,1.5,0,2.3s0,1.7,0,2.7c0,0.4,0,0.8,0,1.1c0,0.3,0,0.7,0,1.1l0,0
			c0,11,0.1,30,0,30.5c-0.1,0.8,0.1,38.9,0,39.5c0,0.6,0,17.2,0.3,28.9c-0.1,0.3-0.1,0.6-0.2,0.8c0,0.4-0.1,1-0.1,1.7l0,0
			c0,0,0,0.2,0,0.5c0,0.7,0,1.5,0,2.3c0,0.7,0,1.5,0,2.5c0,0.4,0,0.8,0,1.1c0,10.7,0.1,31.3,0,31.7c-0.1,0.8,0.1,38.9,0,39.5
			c0,0.6,0,17.5,0.3,29.2c-0.1,0.3-0.1,0.6-0.2,0.9c0,0.4-0.1,1-0.1,1.7l0,0c0,0,0,0.2,0,0.5c0,0.7,0,1.5,0,2.3c0,0.6,0,1.3,0,2.1
			c0,0.4,0,0.8,0,1.1c0,10.6,0.1,31.6,0,32.1c-0.1,0.8,0.1,38.9,0,39.5c-0.1,0.7,0,18.7,0.3,30.5c-0.1,0.3-0.2,0.5-0.2,0.8
			c-0.1,0.2-0.1,7-0.1,7.2c-0.1,1.7,0.7,3.5,3.7,4.9c0.9,0.5,1.9,1,2.9,1.2c0.2,0.1,7.2,0.1,7.4,0.1c0.4,0,0.9,0,1.3-0.1
			c22,0.3,76.4,0,101.1-0.2c0.4,0.1,0.7,0.2,1.1,0.2c1.5,0.2,6.8,0.1,8.2,0c0.7,0,1.4-0.2,2-0.3c0.8,0,1.3,0,1.3,0
			c0.9,0,1.6-0.3,2.1-0.6c23.5,0.2,74.6-0.1,98.4-0.2c0.4,0.1,0.7,0.2,1.1,0.2c0.1,0,0.1,0,0.2,0c0.5,0.2,1.1,0.4,1.6,0.5
			c0.2,0.1,7.2,0.1,7.4,0.1c0.4,0,0.9,0,1.3-0.1c21.8,0.3,75.7,0,100.6-0.2c0.2,0.1,0.5,0.3,0.8,0.4c0.9,0.5,1.9,1,2.9,1.2
			c0.2,0.1,7.2,0.1,7.4,0.1c0.4,0,0.9,0,1.3-0.1c22,0.3,76.4,0,101.1-0.2c0.4,0.1,0.7,0.2,1.1,0.2c0.1,0,0.1,0,0.2,0
			c0.5,0.2,1.1,0.4,1.6,0.5c0.2,0.1,7.2,0.1,7.4,0.1c0.4,0,0.9,0,1.3-0.1c22,0.3,76.4,0,101.1-0.2c0.4,0.1,0.7,0.2,1.1,0.2
			c1.5,0.2,6.8,0.1,8.2,0c0.7,0,1.4-0.2,2-0.3c0.8,0,1.3,0,1.3,0c0.9,0,1.6-0.3,2.1-0.6c23.5,0.2,74.6-0.1,98.4-0.2
			c0.4,0.1,0.7,0.2,1.1,0.2c0.1,0,0.1,0,0.2,0c0.5,0.2,1.1,0.4,1.6,0.5c0.2,0.1,7.2,0.1,7.4,0.1c0.4,0,0.9,0,1.3-0.1
			c22,0.3,76.4,0,101.1-0.2c0.4,0.1,0.7,0.2,1.1,0.2c1.5,0.2,6.8,0.1,8.2,0c0.3,0,0.7-0.1,1-0.1c0.4,0,0.6,0,0.6,0
			c0.4,0,0.9,0,1.3-0.1c21.8,0.3,75.7,0,100.6-0.2c0.2,0.1,0.5,0.3,0.8,0.4c0.9,0.5,1.9,1,2.9,1.2c0.2,0.1,7.2,0.1,7.4,0.1
			c0.4,0,0.9,0,1.3-0.1c22,0.3,76.4,0,101.1-0.2c0.4,0.1,0.7,0.2,1.1,0.2c0.1,0,0.1,0,0.2,0c0.5,0.2,1.1,0.4,1.6,0.5
			c0.2,0.1,7.2,0.1,7.4,0.1c0.4,0,0.9,0,1.3-0.1c22,0.3,76.4,0,101.1-0.2c0.4,0.1,0.7,0.2,1.1,0.2c1.5,0.2,6.8,0.1,8.2,0
			c0.7,0,1.4-0.2,2-0.3c0.8,0,1.3,0,1.3,0c0.9,0,1.6-0.3,2.1-0.6c23.5,0.2,74.6-0.1,98.4-0.2c0.4,0.1,0.7,0.2,1.1,0.2
			c1.5,0.2,6.8,0.1,8.2,0c0.7,0,1.4-0.2,2-0.3c0.8,0,1.3,0,1.3,0c2.6-0.1,3.9-1.9,4.2-4.1c0-0.4,0.1-1,0.1-1.7l0,0c0,0,0-0.2,0-0.5
			c0-0.7,0-1.5,0-2.3c0-8.7-0.1-34.7,0-35.3c0.1-0.8-0.1-38.9,0-39.5c0-0.6,0-17.5-0.3-29.2c0.1-0.3,0.1-0.6,0.2-0.9
			c0-0.4,0.1-1,0.1-1.7l0,0c0,0,0-0.2,0-0.5c0-0.7,0-1.5,0-2.3c0-0.6,0-1.3,0-2.1c0-0.4,0-0.8,0-1.1c0-10.6-0.1-31.6,0-32.1
			c0.1-0.8-0.1-38.9,0-39.5c0-0.6,0-17.2-0.3-28.9c0.1-0.3,0.1-0.6,0.2-0.8c0-0.4,0.1-1,0.1-1.7l0,0c0,0,0-0.2,0-0.5
			c0-0.7,0-1.5,0-2.3c0-0.7,0-1.5,0-2.4c0-0.4,0-0.8,0-1.1c0-0.3,0-0.7,0-1.1l0,0c0-10.9-0.1-30.2,0-30.7c0.1-0.8-0.1-38.9,0-39.5
			c0-0.6,0-17-0.2-28.7c0.1-0.3,0.1-0.5,0.2-0.8c0-0.4,0.1-1,0.1-1.7l0,0c0,0,0-0.2,0-0.5c0-0.7,0-1.5,0-2.3c0-0.7,0-1.6,0-2.6
			c0-0.4,0-0.8,0-1.1c0-0.3,0-0.7,0-1l0,0c0-11-0.1-30,0-30.5c0.1-0.8-0.1-38.9,0-39.5c0-0.6,0-17-0.2-28.7c0.1-0.3,0.1-0.5,0.2-0.8
			c0-0.4,0.1-1,0.1-1.7l0,0c0,0,0-0.2,0-0.5c0-0.7,0-1.5,0-2.3c0-0.7,0-1.6,0-2.6c0-0.4,0-0.8,0-1.1s0-0.7,0-1l0,0
			c0-11-0.1-30,0-30.5c0.1-0.8-0.1-38.9,0-39.5c0-0.6,0-17.2-0.3-28.9c0.1-0.3,0.1-0.6,0.2-0.8c0-0.4,0.1-1,0.1-1.7l0,0
			c0,0,0-0.2,0-0.5c0-0.7,0-1.5,0-2.3c0-0.7,0-1.5,0-2.4c0-0.4,0-0.8,0-1.1s0-0.7,0-1.1l0,0c0-10.9-0.1-30.2,0-30.7
			C1284,107.1,1283.9,69.1,1283.9,68.4z M1242,99.4c0,0.6,0.1,34.6,0,35.3c0,0.4,0,17.6,0,27.4l0,0c0,0.3,0,0.6,0,1c0,0.3,0,0.6,0,1
			c0,0.8,0,1.5,0,2.2s0,1.4,0,2c0,0.2,0,0.4,0,0.4l0,0c0,0.6,0,1.2-0.1,1.5c0,0.3-0.1,0.5-0.2,0.8c0.2,10.4,0.3,25.3,0.2,25.8
			c0,0.6,0.1,34.6,0,35.3c0,0.4,0,17.4,0,27.2l0,0c0,0.3,0,0.6,0,0.9s0,0.6,0,1c0,0.9,0,1.7,0,2.3c0,0.7,0,1.4,0,2
			c0,0.2,0,0.4,0,0.4l0,0c0,0.6,0,1.2-0.1,1.5c0,0.3-0.1,0.5-0.2,0.7c0.2,10.4,0.3,25.1,0.2,25.7c0,0.6,0.1,34.6,0,35.3
			c0,0.4,0,17.4,0,27.2l0,0c0,0.3,0,0.6,0,0.9s0,0.6,0,1c0,0.9,0,1.7,0,2.3c0,0.7,0,1.4,0,2c0,0.2,0,0.4,0,0.4l0,0
			c0,0.6,0,1.2-0.1,1.5c0,0.3-0.1,0.5-0.2,0.7c0.2,10.4,0.3,25.1,0.2,25.6c0,0.6,0.1,34.6,0,35.3c0,0.4,0,17.6,0,27.4l0,0
			c0,0.3,0,0.6,0,1c0,0.3,0,0.6,0,1c0,0.8,0,1.5,0,2.2s0,1.4,0,2c0,0.2,0,0.4,0,0.4l0,0c0,0.6,0,1.2-0.1,1.5c0,0.3-0.1,0.5-0.2,0.8
			c0.2,10.4,0.3,25.3,0.2,25.8c0,0.6,0.1,34.6,0,35.3c0,0.4,0,19.2,0,28.7c0,0.3,0,0.6,0,1c0,0.7,0,1.3,0,1.9c0,0.7,0,1.4,0,2
			c0,0.2,0,0.4,0,0.4l0,0c0,0.6,0,1.2-0.1,1.5c0,0.3-0.1,0.5-0.2,0.8c0.2,10.5,0.3,25.5,0.2,26.1c0,0.6,0.1,34.6,0,35.3
			c0,0.5,0,23.8,0,31.5c0,0.7,0,1.4,0,2c0,0.2,0,0.4,0,0.4l0,0c0,0.6,0,1.2-0.1,1.5c-0.2,1.9-1.5,3.5-3.9,3.6c0,0-0.5,0-1.2,0
			c-0.6,0.2-1.3,0.3-1.9,0.3c-1.3,0.1-6.3,0.1-7.6,0c-0.4,0-0.7-0.1-1-0.2c-22.2,0.2-69.9,0.4-91.8,0.2c-0.5,0.3-1.2,0.5-2,0.6
			c0,0-0.5,0-1.2,0c-0.6,0.2-1.3,0.3-1.9,0.3c-1.3,0.1-6.3,0.1-7.6,0c-0.4,0-0.7-0.1-1-0.2c-23.1,0.2-73.9,0.4-94.4,0.2
			c-0.4,0.1-0.8,0.1-1.2,0.1c-0.2,0-6.8,0-6.9-0.1c-0.5-0.1-1-0.3-1.5-0.5c-0.1,0-0.1,0-0.2,0c-0.4,0-0.7-0.1-1-0.2
			c-23.1,0.2-73.9,0.4-94.4,0.2c-0.4,0.1-0.8,0.1-1.2,0.1c-0.2,0-6.8,0-6.9-0.1c-1-0.2-1.9-0.6-2.7-1.1c-0.3-0.1-0.5-0.2-0.7-0.4
			c-23.3,0.2-73.6,0.4-94,0.2c-0.4,0.1-0.8,0.1-1.2,0.1c0,0-0.3,0-0.6,0s-0.6,0.1-0.9,0.1c-1.3,0.1-6.3,0.1-7.6,0
			c-0.4,0-0.7-0.1-1-0.2c-23.1,0.2-73.9,0.4-94.4,0.2c-0.4,0.1-0.8,0.1-1.2,0.1c-0.2,0-6.8,0-6.9-0.1c-0.5-0.1-1-0.3-1.5-0.5
			c-0.1,0-0.1,0-0.2,0c-0.4,0-0.7-0.1-1-0.2c-22.2,0.2-69.9,0.4-91.8,0.2c-0.5,0.3-1.2,0.5-2,0.6c0,0-0.5,0-1.2,0
			c-0.6,0.2-1.3,0.3-1.9,0.3c-1.3,0.1-6.3,0.1-7.6,0c-0.4,0-0.7-0.1-1-0.2c-23.1,0.2-73.9,0.4-94.4,0.2c-0.4,0.1-0.8,0.1-1.2,0.1
			c-0.2,0-6.8,0-6.9-0.1c-0.5-0.1-1-0.3-1.5-0.5c-0.1,0-0.1,0-0.2,0c-0.4,0-0.7-0.1-1-0.2c-23.1,0.2-73.9,0.4-94.4,0.2
			c-0.4,0.1-0.8,0.1-1.2,0.1c-0.2,0-6.8,0-6.9-0.1c-1-0.2-1.9-0.6-2.7-1.1c-0.3-0.1-0.5-0.2-0.7-0.4c-23.3,0.2-73.6,0.4-94,0.2
			c-0.4,0.1-0.8,0.1-1.2,0.1c-0.2,0-6.8,0-6.9-0.1c-0.5-0.1-1-0.3-1.5-0.5c-0.1,0-0.1,0-0.2,0c-0.4,0-0.7-0.1-1-0.2
			c-22.2,0.2-69.9,0.4-91.8,0.2c-0.5,0.3-1.2,0.5-2,0.6c0,0-0.5,0-1.2,0c-0.6,0.2-1.3,0.3-1.9,0.3c-1.3,0.1-6.3,0.1-7.6,0
			c-0.4,0-0.7-0.1-1-0.2c-23.1,0.2-73.9,0.4-94.4,0.2c-0.4,0.1-0.8,0.1-1.2,0.1c-0.2,0-6.8,0-6.9-0.1c-1-0.2-1.9-0.6-2.7-1.1
			c-2.7-1.2-3.5-2.8-3.4-4.3c0-0.2,0-6.2,0.1-6.4c0-0.2,0.1-0.5,0.2-0.7c-0.2-10.5-0.3-26.6-0.3-27.2c0-0.6-0.1-34.6,0-35.3
			c0-0.4,0-19.2,0-28.7c0-0.3,0-0.6,0-0.9c0-0.7,0-1.3,0-1.9c0-0.7,0-1.4,0-2c0-0.2,0-0.4,0-0.4l0,0c0-0.6,0-1.2,0.1-1.5
			c0-0.3,0.1-0.5,0.2-0.8c-0.2-10.5-0.3-25.5-0.2-26.1c0-0.6-0.1-34.6,0-35.3c0-0.4,0-18.8,0-28.4c0-0.3,0-0.6,0-1
			c0-0.8,0-1.6,0-2.2c0-0.7,0-1.4,0-2c0-0.2,0-0.4,0-0.4l0,0c0-0.6,0-1.2,0.1-1.5c0-0.3,0.1-0.5,0.2-0.8
			c-0.2-10.4-0.3-25.3-0.2-25.8c0-0.6-0.1-34.6,0-35.3c0-0.4,0-17.4,0-27.2l0,0c0-0.3,0-0.6,0-1c0-0.3,0-0.6,0-1c0-0.9,0-1.7,0-2.4
			c0-0.7,0-1.4,0-2c0-0.2,0-0.4,0-0.4l0,0c0-0.6,0-1.2,0.1-1.5c0-0.3,0.1-0.5,0.2-0.7c-0.2-10.4-0.3-25.1-0.2-25.6
			c0-0.6-0.1-34.6,0-35.3c0-0.4,0-17.4,0-27.2l0,0c0-0.3,0-0.6,0-1c0-0.3,0-0.6,0-1c0-0.9,0-1.7,0-2.3c0-0.7,0-1.4,0-2
			c0-0.2,0-0.4,0-0.4l0,0c0-0.6,0-1.2,0.1-1.5c0-0.3,0.1-0.5,0.2-0.7c-0.2-10.4-0.3-25.1-0.2-25.7c0-0.6-0.1-34.6,0-35.3
			c0-0.4,0-18.8,0-28.4c0-0.3,0-0.6,0-1c0-0.8,0-1.6,0-2.2c0-0.7,0-1.4,0-2c0-0.2,0-0.4,0-0.4l0,0c0-0.6,0-1.2,0.1-1.5
			c0-0.3,0.1-0.5,0.2-0.8c-0.2-10.4-0.3-25.3-0.2-25.8c0-0.6-0.1-34.6,0-35.3c0-0.5,0-23.8,0-31.5c0-0.7,0-1.4,0-2
			c0-0.2,0-0.4,0-0.4l0,0c0-0.6,0-1.2,0.1-1.5c0.2-1.9,1.5-3.5,3.9-3.6c0,0,0.5,0,1.2,0c0.6-0.2,1.3-0.3,1.9-0.3
			c1.3-0.1,6.3-0.1,7.6,0c0.4,0,0.7,0.1,1,0.2c22.2-0.2,69.9-0.4,91.8-0.2c0.5-0.3,1.2-0.5,2-0.6c0,0,0.5,0,1.2,0
			c0.6-0.2,1.3-0.3,1.9-0.3c1.3-0.1,6.3-0.1,7.6,0c0.4,0,0.7,0.1,1,0.2c23.1-0.2,73.9-0.4,94.4-0.2c0.4-0.1,0.8-0.1,1.2-0.1
			c0.2,0,6.8,0,6.9,0.1c0.5,0.1,1,0.3,1.5,0.5c0.1,0,0.1,0,0.2,0c0.4,0,0.7,0.1,1,0.2c23.1-0.2,73.9-0.4,94.4-0.2
			c0.4-0.1,0.8-0.1,1.2-0.1c0.2,0,6.8,0,6.9,0.1c1,0.2,1.9,0.6,2.7,1.1c0.3,0.1,0.5,0.2,0.7,0.4c23.3-0.2,73.6-0.4,94-0.2
			c0.4-0.1,0.8-0.1,1.2-0.1c0.2,0,6.8,0,6.9,0.1c0.5,0.1,1,0.3,1.5,0.5c0.1,0,0.1,0,0.2,0c0.4,0,0.7,0.1,1,0.2
			c22.2-0.2,69.9-0.4,91.8-0.2c0.5-0.3,1.2-0.5,2-0.6c0,0,0.5,0,1.2,0c0.6-0.2,1.3-0.3,1.9-0.3c1.3-0.1,6.3-0.1,7.6,0
			c0.4,0,0.7,0.1,1,0.2c23.1-0.2,73.9-0.4,94.4-0.2c0.4-0.1,0.8-0.1,1.2-0.1c0.2,0,6.8,0,6.9,0.1c0.5,0.1,1,0.3,1.5,0.5
			c0.1,0,0.1,0,0.2,0c0.4,0,0.7,0.1,1,0.2c23.1-0.2,73.9-0.4,94.4-0.2c0.4-0.1,0.8-0.1,1.2-0.1c0,0,0.3,0,0.6,0s0.6-0.1,0.9-0.1
			c1.3-0.1,6.3-0.1,7.6,0c0.4,0,0.7,0.1,1,0.2c23.1-0.2,73.9-0.4,94.4-0.2c0.4-0.1,0.8-0.1,1.2-0.1c0.2,0,6.8,0,6.9,0.1
			c1,0.2,1.9,0.6,2.7,1.1c0.3,0.1,0.5,0.2,0.7,0.4c23.3-0.2,73.6-0.4,94-0.2c0.4-0.1,0.8-0.1,1.2-0.1c0.2,0,6.8,0,6.9,0.1
			c0.5,0.1,1,0.3,1.5,0.5c0.1,0,0.1,0,0.2,0c0.4,0,0.7,0.1,1,0.2c22.2-0.2,69.9-0.4,91.8-0.2c0.5-0.3,1.2-0.5,2-0.6c0,0,0.5,0,1.2,0
			c0.6-0.2,1.3-0.3,1.9-0.3c1.3-0.1,6.3-0.1,7.6,0c0.4,0,0.7,0.1,1,0.2c23.1-0.2,73.9-0.4,94.4-0.2c0.4-0.1,0.8-0.1,1.2-0.1
			c0.2,0,6.8,0,6.9,0.1c1,0.2,1.9,0.6,2.7,1.1c2.7,1.2,3.5,2.8,3.4,4.3c0,0.2,0,6.2-0.1,6.4c0,0.2-0.1,0.5-0.2,0.7
			C1241.9,82.7,1242,98.8,1242,99.4z"/>
	</g>
	<path class="st2" d="M1304.1,50.7c0.1-0.7,0-19.9-0.3-32.4c0.1-0.3,0.2-0.6,0.2-0.8c0.1-0.2,0.1-7.4,0.1-7.6
		c0.1-1.8-0.8-3.7-3.8-5.2c-0.9-0.6-1.9-1.1-3-1.3c-0.2-0.1-7.5-0.1-7.7-0.1c-0.4,0-0.9,0-1.3,0.1c-22.7-0.3-78.8,0-104.4,0.2
		c-0.4-0.1-0.7-0.2-1.1-0.2c-1.5-0.2-7-0.1-8.4,0c-0.7,0-1.4,0.2-2.1,0.4c-0.8,0-1.3,0-1.3,0c-0.9,0-1.6,0.3-2.2,0.7
		c-24.2-0.2-77,0.1-101.5,0.3c-0.4-0.1-0.7-0.2-1.1-0.2c-0.1,0-0.1,0-0.2,0c-0.5-0.2-1.1-0.4-1.7-0.5c-0.2-0.1-7.5-0.1-7.7-0.1
		c-0.4,0-0.9,0-1.3,0.1c-22.5-0.3-78.1,0-103.9,0.2c-0.3-0.2-0.5-0.3-0.8-0.4c-0.9-0.6-1.9-1.1-3-1.3c-0.2-0.1-7.5-0.1-7.7-0.1
		c-0.4,0-0.9,0-1.3,0.1c-22.7-0.3-78.8,0-104.4,0.2c-0.4-0.1-0.7-0.2-1.1-0.2c-1.5-0.2-7-0.1-8.4,0c-0.3,0-0.7,0.1-1,0.1
		c-0.4,0-0.6,0-0.7,0c-0.4,0-0.9,0-1.3,0.1C799,2.5,742.9,2.8,717.3,3c-0.4-0.1-0.7-0.2-1.1-0.2c-0.1,0-0.1,0-0.2,0
		c-0.5-0.2-1.1-0.4-1.7-0.5C714,2,706.7,2,706.5,2c-0.4,0-0.9,0-1.3,0.1c-22.7-0.3-78.8,0-104.4,0.2c-0.4-0.1-0.7-0.2-1.1-0.2
		c-1.5-0.2-7-0.1-8.4,0c-0.7,0-1.4,0.2-2.1,0.4c-0.8,0-1.3,0-1.3,0c-0.9,0-1.6,0.3-2.2,0.7c-24.2-0.2-77,0.1-101.5,0.3
		c-0.4-0.1-0.7-0.2-1.1-0.2c-0.1,0-0.1,0-0.2,0c-0.5-0.2-1.1-0.4-1.7-0.5c-0.2-0.1-7.5-0.1-7.7-0.1c-0.4,0-0.9,0-1.3,0.1
		c-22.5-0.3-78.1,0-103.9,0.2c-0.3-0.2-0.5-0.3-0.8-0.4c-0.9-0.6-1.9-1.1-3-1.3c-0.2-0.1-7.5-0.1-7.7-0.1c-0.4,0-0.9,0-1.3,0.1
		c-22.7-0.3-78.8,0-104.4,0.2c-0.4-0.1-0.7-0.2-1.1-0.2c-0.1,0-0.1,0-0.2,0c-0.5-0.2-1.1-0.4-1.7-0.5c-0.2-0.1-7.5-0.1-7.7-0.1
		c-0.4,0-0.9,0-1.3,0.1c-22.7-0.3-78.8,0-104.4,0.2c-0.4-0.1-0.7-0.2-1.1-0.2c-1.5-0.2-7-0.1-8.4,0c-0.7,0-1.4,0.2-2.1,0.4
		c-0.8,0-1.3,0-1.3,0c-0.9,0-1.6,0.3-2.2,0.7C95.4,1.7,42.6,2,18.1,2.2C17.7,2.1,17.4,2,17,2c-1.5-0.2-7-0.1-8.4,0
		C7.7,1.7,7,1.8,6.3,2C5.4,2,5,2,4.9,2c-2.7,0.1-4,2-4.3,4.3c0,0.4-0.1,1-0.1,1.8l0,0c0,0,0,0.2,0,0.5c0,0.8,0,1.6,0,2.4
		c0,9.2,0.1,36.9,0,37.5c-0.1,0.9,0.1,41.3,0,42.1c-0.1,0.7,0,18.3,0.3,30.7c-0.1,0.3-0.1,0.6-0.2,0.9c0,0.4-0.1,1-0.1,1.8l0,0
		c0,0,0,0.2,0,0.5c0,0.8,0,1.6,0,2.4s0,1.6,0,2.6c0,0.4,0,0.8,0,1.1c0,11.4,0.1,33.3,0,33.8c-0.1,0.9,0.1,41.3,0,42.1
		c-0.1,0.7,0,18.1,0.3,30.6c-0.1,0.3-0.1,0.6-0.2,0.9c0,0.4-0.1,1-0.1,1.8l0,0c0,0,0,0.2,0,0.5c0,0.8,0,1.6,0,2.4c0,0.8,0,1.7,0,2.8
		c0,0.4,0,0.8,0,1.2s0,0.7,0,1.1l0,0c0,11.7,0.1,31.9,0,32.4c-0.1,0.9,0.1,41.3,0,42.1c-0.1,0.7,0,18.1,0.3,30.5
		c-0.1,0.3-0.1,0.6-0.2,0.9c0,0.4-0.1,1-0.1,1.8l0,0c0,0,0,0.2,0,0.5c0,0.8,0,1.6,0,2.4s0,1.8,0,2.8c0,0.4,0,0.8,0,1.2
		c0,0.4,0,0.7,0,1.1l0,0c0,11.7,0.1,31.9,0,32.4c-0.1,0.9,0.1,41.3,0,42.1c-0.1,0.7,0,18.3,0.3,30.7c-0.1,0.3-0.1,0.6-0.2,0.9
		c0,0.4-0.1,1-0.1,1.8l0,0c0,0,0,0.2,0,0.5c0,0.8,0,1.6,0,2.4s0,1.6,0,2.6c0,0.4,0,0.8,0,1.1c0,11.4,0.1,33.3,0,33.8
		c-0.1,0.9,0.1,41.3,0,42.1c-0.1,0.7,0,18.6,0.3,31.1c-0.1,0.3-0.1,0.6-0.2,0.9c0,0.4-0.1,1-0.1,1.8l0,0c0,0,0,0.2,0,0.5
		c0,0.8,0,1.6,0,2.4c0,0.7,0,1.4,0,2.3c0,0.4,0,0.8,0,1.1c0,11.3,0.1,33.6,0,34.1c-0.1,0.9,0.1,41.3,0,42.1
		c-0.1,0.7,0,19.9,0.3,32.4c-0.1,0.3-0.2,0.6-0.2,0.8c-0.1,0.2-0.1,7.4-0.1,7.6c-0.1,1.8,0.8,3.7,3.8,5.2c0.9,0.6,1.9,1.1,3,1.3
		c0.2,0.1,7.5,0.1,7.7,0.1c0.4,0,0.9,0,1.3-0.1c22.7,0.3,78.8,0,104.4-0.2c0.4,0.1,0.7,0.2,1.1,0.2c1.5,0.2,7,0.1,8.4,0
		c0.7,0,1.4-0.2,2.1-0.4c0.8,0,1.3,0,1.3,0c0.9,0,1.6-0.3,2.2-0.7c24.2,0.2,77-0.1,101.5-0.3c0.4,0.1,0.7,0.2,1.1,0.2
		c0.1,0,0.1,0,0.2,0c0.5,0.2,1.1,0.4,1.7,0.5c0.2,0.1,7.5,0.1,7.7,0.1c0.4,0,0.9,0,1.3-0.1c22.5,0.3,78.1,0,103.9-0.2
		c0.3,0.2,0.5,0.3,0.8,0.4c0.9,0.6,1.9,1.1,3,1.3c0.2,0.1,7.5,0.1,7.7,0.1c0.4,0,0.9,0,1.3-0.1c22.7,0.3,78.8,0,104.4-0.2
		c0.4,0.1,0.7,0.2,1.1,0.2c0.1,0,0.1,0,0.2,0c0.5,0.2,1.1,0.4,1.7,0.5c0.2,0.1,7.5,0.1,7.7,0.1c0.4,0,0.9,0,1.3-0.1
		c22.7,0.3,78.8,0,104.4-0.2c0.4,0.1,0.7,0.2,1.1,0.2c1.5,0.2,7,0.1,8.4,0c0.7,0,1.4-0.2,2.1-0.4c0.8,0,1.3,0,1.3,0
		c0.9,0,1.6-0.3,2.2-0.7c24.2,0.2,77-0.1,101.5-0.3c0.4,0.1,0.7,0.2,1.1,0.2c0.1,0,0.1,0,0.2,0c0.5,0.2,1.1,0.4,1.7,0.5
		c0.2,0.1,7.5,0.1,7.7,0.1c0.4,0,0.9,0,1.3-0.1c22.7,0.3,78.8,0,104.4-0.2c0.4,0.1,0.7,0.2,1.1,0.2c1.5,0.2,7,0.1,8.4,0
		c0.3,0,0.7-0.1,1-0.1c0.4,0,0.6,0,0.7,0c0.4,0,0.9,0,1.3-0.1c22.5,0.3,78.1,0,103.9-0.2c0.3,0.2,0.5,0.3,0.8,0.4
		c0.9,0.6,1.9,1.1,3,1.3c0.2,0.1,7.5,0.1,7.7,0.1c0.4,0,0.9,0,1.3-0.1c22.7,0.3,78.8,0,104.4-0.2c0.4,0.1,0.7,0.2,1.1,0.2
		c0.1,0,0.1,0,0.2,0c0.5,0.2,1.1,0.4,1.7,0.5c0.2,0.1,7.5,0.1,7.7,0.1c0.4,0,0.9,0,1.3-0.1c22.7,0.3,78.8,0,104.4-0.2
		c0.4,0.1,0.7,0.2,1.1,0.2c1.5,0.2,7,0.1,8.4,0c0.7,0,1.4-0.2,2.1-0.4c0.8,0,1.3,0,1.3,0c0.9,0,1.6-0.3,2.2-0.7
		c24.2,0.2,77-0.1,101.5-0.3c0.4,0.1,0.7,0.2,1.1,0.2c1.5,0.2,7,0.1,8.4,0c0.7,0,1.4-0.2,2.1-0.4c0.8,0,1.3,0,1.3,0
		c2.7-0.1,4-2,4.3-4.3c0-0.4,0.1-1,0.1-1.8l0,0c0,0,0-0.2,0-0.5c0-0.8,0-1.6,0-2.4c0-9.2-0.1-36.9,0-37.5c0.1-0.9-0.1-41.3,0-42.1
		c0.1-0.7,0-18.6-0.3-31.1c0.1-0.3,0.1-0.6,0.2-0.9c0-0.4,0.1-1,0.1-1.8l0,0c0,0,0-0.2,0-0.5c0-0.8,0-1.6,0-2.4c0-0.7,0-1.4,0-2.2
		c0-0.4,0-0.8,0-1.2c0-11.3-0.1-33.6,0-34.1c0.1-0.9-0.1-41.3,0-42.1c0.1-0.7,0-18.3-0.3-30.7c0.1-0.3,0.1-0.6,0.2-0.9
		c0-0.4,0.1-1,0.1-1.8l0,0c0,0,0-0.2,0-0.5c0-0.8,0-1.6,0-2.4c0-0.7,0-1.6,0-2.6c0-0.5,0-0.9,0-1.2c0-0.4,0-0.7,0-1.1l0,0
		c0-11.6-0.1-32.1,0-32.6c0.1-0.9-0.1-41.3,0-42.1c0-0.7,0-18.1-0.3-30.5c0.1-0.3,0.1-0.6,0.2-0.9c0-0.4,0.1-1,0.1-1.8l0,0
		c0,0,0-0.2,0-0.5c0-0.8,0-1.6,0-2.4s0-1.7,0-2.8c0-0.5,0-0.9,0-1.2c0-0.4,0-0.7,0-1.1l0,0c0-11.7-0.1-31.9,0-32.4
		c0.1-0.9-0.1-41.3,0-42.1c0-0.7,0-18.1-0.3-30.6c0.1-0.3,0.1-0.6,0.2-0.9c0-0.4,0.1-1,0.1-1.8l0,0c0,0,0-0.2,0-0.5
		c0-0.8,0-1.6,0-2.4c0-0.8,0-1.7,0-2.8c0-0.5,0-0.9,0-1.2c0-0.4,0-0.7,0-1.1l0,0c0-11.7-0.1-31.9,0-32.4c0.1-0.9-0.1-41.3,0-42.1
		c0.1-0.7,0-18.3-0.3-30.7c0.1-0.3,0.1-0.6,0.2-0.9c0-0.4,0.1-1,0.1-1.8l0,0c0,0,0-0.2,0-0.5c0-0.8,0-1.6,0-2.4c0-0.7,0-1.6,0-2.6
		c0-0.5,0-0.9,0-1.2c0-0.4,0-0.7,0-1.1l0,0c0-11.6-0.1-32.1,0-32.6C1304.1,91.9,1304,51.5,1304.1,50.7z M1260.8,83.7
		c-0.1,0.7,0.1,36.8,0,37.6c0,0.4,0,18.8,0,29.1l0,0c0,0.3,0,0.7,0,1s0,0.6,0,1c0,0.9,0,1.6,0,2.3s0,1.5,0,2.2c0,0.3,0,0.4,0,0.5
		l0,0c0,0.7,0,1.3-0.1,1.6c0,0.3-0.1,0.5-0.2,0.8c0.2,11.1,0.3,26.9,0.2,27.5c-0.1,0.7,0.1,36.8,0,37.6c0,0.4,0,18.6,0,29l0,0
		c0,0.3,0,0.7,0,1s0,0.7,0,1.1c0,0.9,0,1.8,0,2.5s0,1.5,0,2.2c0,0.3,0,0.4,0,0.5l0,0c0,0.7,0,1.3-0.1,1.6c0,0.3-0.1,0.5-0.2,0.8
		c0.2,11.1,0.3,26.7,0.2,27.3c-0.1,0.7,0.1,36.8,0,37.6c0,0.4,0,18.5,0,28.9l0,0c0,0.3,0,0.7,0,1s0,0.7,0,1.1c0,0.9,0,1.8,0,2.5
		s0,1.5,0,2.2c0,0.3,0,0.4,0,0.5l0,0c0,0.7,0,1.3-0.1,1.6c0,0.3-0.1,0.5-0.2,0.8c0.2,11.1,0.3,26.7,0.2,27.3
		c-0.1,0.7,0.1,36.8,0,37.6c0,0.4,0,18.8,0,29.1l0,0c0,0.3,0,0.7,0,1s0,0.6,0,1c0,0.9,0,1.6,0,2.3c0,0.7,0,1.5,0,2.2
		c0,0.3,0,0.4,0,0.5l0,0c0,0.7,0,1.3-0.1,1.6c0,0.3-0.1,0.5-0.2,0.8c0.2,11.1,0.3,26.9,0.2,27.5c-0.1,0.7,0.1,36.8,0,37.6
		c0,0.5,0,20.4,0,30.5c0,0.3,0,0.6,0,1c0,0.7,0,1.4,0,2c0,0.7,0,1.5,0,2.2c0,0.3,0,0.4,0,0.5l0,0c0,0.7,0,1.3-0.1,1.6
		c0,0.3-0.1,0.6-0.2,0.8c0.2,11.1,0.3,27.1,0.2,27.8c-0.1,0.7,0.1,36.8,0,37.6c0,0.5,0,25.3,0,33.5c0,0.7,0,1.5,0,2.2
		c0,0.3,0,0.4,0,0.5l0,0c0,0.7,0,1.3-0.1,1.6c-0.2,2.1-1.5,3.7-4,3.9c0,0-0.5,0-1.3,0c-0.7,0.2-1.3,0.3-2,0.3
		c-1.3,0.1-6.5,0.1-7.9,0c-0.4,0-0.7-0.1-1.1-0.2c-22.9,0.2-72.1,0.4-94.8,0.2c-0.6,0.3-1.2,0.6-2.1,0.6c0,0-0.5,0-1.3,0
		c-0.7,0.2-1.3,0.3-2,0.3c-1.3,0.1-6.5,0.1-7.9,0c-0.4,0-0.7-0.1-1.1-0.2c-23.8,0.2-76.2,0.5-97.4,0.2c-0.4,0.1-0.8,0.1-1.2,0.1
		c-0.2,0-7,0-7.2-0.1c-0.5-0.1-1.1-0.3-1.5-0.5c-0.1,0-0.1,0-0.2,0c-0.4,0-0.7-0.1-1.1-0.2c-23.8,0.2-76.2,0.5-97.4,0.2
		c-0.4,0.1-0.8,0.1-1.2,0.1c-0.2,0-7,0-7.2-0.1c-1-0.2-2-0.6-2.8-1.2c-0.3-0.1-0.5-0.3-0.8-0.4c-24,0.2-75.9,0.5-97,0.2
		c-0.4,0.1-0.8,0.1-1.2,0.1c0,0-0.3,0-0.6,0c-0.3,0.1-0.6,0.1-1,0.1c-1.3,0.1-6.5,0.1-7.9,0c-0.4,0-0.7-0.1-1.1-0.2
		c-23.8,0.2-76.2,0.5-97.4,0.2c-0.4,0.1-0.8,0.1-1.2,0.1c-0.2,0-7,0-7.2-0.1c-0.5-0.1-1.1-0.3-1.5-0.5c-0.1,0-0.1,0-0.2,0
		c-0.4,0-0.7-0.1-1.1-0.2c-22.9,0.2-72.1,0.4-94.8,0.2c-0.6,0.3-1.2,0.6-2.1,0.6c0,0-0.5,0-1.3,0c-0.7,0.2-1.3,0.3-2,0.3
		c-1.3,0.1-6.5,0.1-7.9,0c-0.4,0-0.7-0.1-1.1-0.2c-23.8,0.2-76.2,0.5-97.4,0.2c-0.4,0.1-0.8,0.1-1.2,0.1c-0.2,0-7,0-7.2-0.1
		c-0.5-0.1-1.1-0.3-1.5-0.5c-0.1,0-0.1,0-0.2,0c-0.4,0-0.7-0.1-1.1-0.2c-23.8,0.2-76.2,0.5-97.4,0.2c-0.4,0.1-0.8,0.1-1.2,0.1
		c-0.2,0-7,0-7.2-0.1c-1-0.2-2-0.6-2.8-1.2c-0.3-0.1-0.5-0.3-0.8-0.4c-24,0.2-75.9,0.5-97,0.2c-0.4,0.1-0.8,0.1-1.2,0.1
		c-0.2,0-7,0-7.2-0.1c-0.5-0.1-1.1-0.3-1.5-0.5c-0.1,0-0.1,0-0.2,0c-0.4,0-0.7-0.1-1.1-0.2c-22.9,0.2-72.1,0.4-94.8,0.2
		c-0.6,0.3-1.2,0.6-2.1,0.6c0,0-0.5,0-1.3,0c-0.7,0.2-1.3,0.3-2,0.3c-1.3,0.1-6.5,0.1-7.9,0c-0.4,0-0.7-0.1-1.1-0.2
		c-23.8,0.2-76.2,0.5-97.4,0.2c-0.4,0.1-0.8,0.1-1.2,0.1c-0.2,0-7,0-7.2-0.1c-1-0.2-2-0.6-2.8-1.2c-2.8-1.3-3.6-3-3.5-4.6
		c0-0.2,0-6.6,0.1-6.8c0-0.3,0.1-0.5,0.2-0.8c-0.3-11.1-0.3-28.3-0.3-28.9c0.1-0.7-0.1-36.8,0-37.6c0-0.5,0-20.4,0-30.5
		c0-0.3,0-0.6,0-1c0-0.8,0-1.4,0-2c0-0.7,0-1.5,0-2.2c0-0.3,0-0.4,0-0.5l0,0c0-0.7,0-1.3,0.1-1.6c0-0.3,0.1-0.6,0.2-0.8
		c-0.2-11.1-0.3-27.1-0.2-27.8s-0.1-36.8,0-37.6c0-0.5,0-20,0-30.2c0-0.3,0-0.6,0-1c0-0.9,0-1.7,0-2.3c0-0.7,0-1.5,0-2.2
		c0-0.3,0-0.4,0-0.5l0,0c0-0.7,0-1.3,0.1-1.6c0-0.3,0.1-0.5,0.2-0.8c-0.2-11.1-0.3-26.9-0.2-27.5c0.1-0.7-0.1-36.8,0-37.6
		c0-0.4,0-18.5,0-28.9l0,0c0-0.3,0-0.7,0-1s0-0.6,0-1c0-0.9,0-1.8,0-2.5s0-1.5,0-2.2c0-0.3,0-0.4,0-0.5l0,0c0-0.7,0-1.3,0.1-1.6
		c0-0.3,0.1-0.5,0.2-0.8c-0.2-11.1-0.3-26.7-0.2-27.3c0.1-0.7-0.1-36.8,0-37.6c0-0.4,0-18.6,0-29l0,0c0-0.3,0-0.7,0-1s0-0.6,0-1
		c0-0.9,0-1.8,0-2.5s0-1.5,0-2.2c0-0.3,0-0.4,0-0.5l0,0c0-0.7,0-1.3,0.1-1.6c0-0.3,0.1-0.5,0.2-0.8C43,239,42.9,223.4,43,222.8
		c0.1-0.7-0.1-36.8,0-37.6c0-0.5,0-20,0-30.2c0-0.3,0-0.6,0-1c0-0.9,0-1.7,0-2.3c0-0.7,0-1.5,0-2.2c0-0.3,0-0.4,0-0.5l0,0
		c0-0.7,0-1.3,0.1-1.6c0-0.3,0.1-0.5,0.2-0.8c-0.2-11.1-0.3-26.9-0.2-27.5c0.1-0.7-0.1-36.8,0-37.6c0-0.5,0-25.3,0-33.5
		c0-0.7,0-1.5,0-2.2c0-0.3,0-0.4,0-0.5l0,0c0-0.7,0-1.3,0.1-1.6c0.2-2.1,1.5-3.7,4-3.9c0,0,0.5,0,1.3,0c0.7-0.2,1.3-0.3,2-0.3
		c1.3-0.1,6.5-0.1,7.9,0c0.4,0,0.7,0.1,1.1,0.2c22.9-0.2,72.1-0.4,94.8-0.2c0.6-0.3,1.2-0.6,2.1-0.6c0,0,0.5,0,1.3,0
		c0.7-0.2,1.3-0.3,2-0.3c1.3-0.1,6.5-0.1,7.9,0c0.4,0,0.7,0.1,1.1,0.2c23.8-0.2,76.2-0.5,97.4-0.2c0.4-0.1,0.8-0.1,1.2-0.1
		c0.2,0,7,0,7.2,0.1c0.5,0.1,1.1,0.3,1.5,0.5c0.1,0,0.1,0,0.2,0c0.4,0,0.7,0.1,1.1,0.2c23.8-0.2,76.2-0.5,97.4-0.2
		c0.4-0.1,0.8-0.1,1.2-0.1c0.2,0,7,0,7.2,0.1c1,0.2,2,0.6,2.8,1.2c0.3,0.1,0.5,0.3,0.8,0.4c24-0.2,75.9-0.5,97-0.2
		c0.4-0.1,0.8-0.1,1.2-0.1c0.2,0,7,0,7.2,0.1c0.5,0.1,1.1,0.3,1.5,0.5c0.1,0,0.1,0,0.2,0c0.4,0,0.7,0.1,1.1,0.2
		c22.9-0.2,72.1-0.4,94.8-0.2c0.6-0.3,1.2-0.6,2.1-0.6c0,0,0.5,0,1.3,0c0.7-0.2,1.3-0.3,2-0.3c1.3-0.1,6.5-0.1,7.9,0
		c0.4,0,0.7,0.1,1.1,0.2c23.8-0.2,76.2-0.5,97.4-0.2c0.4-0.1,0.8-0.1,1.2-0.1c0.2,0,7,0,7.2,0.1c0.5,0.1,1.1,0.3,1.5,0.5
		c0.1,0,0.1,0,0.2,0c0.4,0,0.7,0.1,1.1,0.2c23.8-0.2,76.2-0.5,97.4-0.2c0.4-0.1,0.8-0.1,1.2-0.1c0,0,0.3,0,0.6,0
		c0.3-0.1,0.6-0.1,1-0.1c1.3-0.1,6.5-0.1,7.9,0c0.4,0,0.7,0.1,1.1,0.2c23.8-0.2,76.2-0.5,97.4-0.2c0.4-0.1,0.8-0.1,1.2-0.1
		c0.2,0,7,0,7.2,0.1c1,0.2,2,0.6,2.8,1.2c0.3,0.1,0.5,0.3,0.8,0.4c24-0.2,75.9-0.5,97-0.2c0.4-0.1,0.8-0.1,1.2-0.1
		c0.2,0,7,0,7.2,0.1c0.5,0.1,1.1,0.3,1.5,0.5c0.1,0,0.1,0,0.2,0c0.4,0,0.7,0.1,1.1,0.2c22.9-0.2,72.1-0.4,94.8-0.2
		c0.6-0.3,1.2-0.6,2.1-0.6c0,0,0.5,0,1.3,0c0.7-0.2,1.3-0.3,2-0.3c1.3-0.1,6.5-0.1,7.9,0c0.4,0,0.7,0.1,1.1,0.2
		c23.8-0.2,76.2-0.5,97.4-0.2c0.4-0.1,0.8-0.1,1.2-0.1c0.2,0,7,0,7.2,0.1c1,0.2,2,0.6,2.8,1.2c2.8,1.3,3.6,3,3.5,4.6
		c0,0.2,0,6.6-0.1,6.8c0,0.3-0.1,0.5-0.2,0.8C1260.8,65.9,1260.8,83.1,1260.8,83.7z"/>
</g>
</svg>
