<?xml version="1.0" encoding="utf-8"?>
<!-- Generator: Adobe Illustrator 22.1.0, SVG Export Plug-In . SVG Version: 6.00 Build 0)  -->
<svg version="1.1" id="Layer_1" xmlns="http://www.w3.org/2000/svg" xmlns:xlink="http://www.w3.org/1999/xlink" x="0px" y="0px"
	 viewBox="0 0 239.1 721.5" style="enable-background:new 0 0 239.1 721.5;" xml:space="preserve">
<style type="text/css">
	.st0{opacity:0.1;fill:#231F20;stroke:#231F20;stroke-miterlimit:10;enable-background:new    ;}
	.st1{fill:#A36B78;stroke:#584C4F;stroke-width:2;stroke-linecap:round;stroke-miterlimit:10;}
	.st2{fill:#A36B78;stroke:#584C4F;stroke-width:2;stroke-linecap:round;stroke-linejoin:round;stroke-miterlimit:10;}
	.st3{fill:#FFD767;stroke:#584C4F;stroke-width:2;stroke-miterlimit:10;}
	.st4{fill:#A36B78;}
	.st5{fill:none;stroke:#584C4F;stroke-width:2;stroke-linecap:round;stroke-miterlimit:10;}
	.st6{fill:#BEAB72;}
	.st7{fill:#584C4F;stroke:#584C4F;stroke-width:2;stroke-linecap:round;stroke-miterlimit:10;}
	.st8{fill:#FFFFFF;stroke:#584C4F;stroke-width:2;stroke-linecap:round;stroke-miterlimit:10;}
</style>
<g id="Layer_5">
</g>
<g id="Layer_3">
</g>
<g>
	<path class="st0" d="M238,680.4c-11-35.7-31.1-49.8-56.8-56c0,0-6.1-0.9-16-1.9c-0.8-30.7-1.7-82,0.4-99.6c0.9-1.1,1.4-6,1.1-16.8
		V506c0-4.3-0.1-9.2-0.2-14.4c-0.1-12.1,0.2-25.3,0.5-37.9c0.5,0.2,1.2,0.5,1.8,0.6l0,0c0.3,0.1,0.6,0.2,0.9,0.2
		c0.1,0,0.2,0,0.2,0.1c0.3,0.1,0.6,0.2,0.9,0.2c0,0,0,0,0.1,0c0.3,0.1,0.6,0.1,0.9,0.2l0,0c1.5,0.2,2.6,0.2,3.5,0.2
		c-0.9,10.7,4.6,7.6,7.2,5.4l1.1,0.5c3.2,5.8,7,1.2,8.6-1.2c0,0,0-0.1,0.1-0.1c0-0.1,0.1-0.1,0.1-0.2l0.1-0.1c0-0.1,0.1-0.1,0.1-0.2
		c0-0.1,0.1-0.1,0.1-0.1c0-0.1,0.1-0.1,0.1-0.2l0,0l0.2,1.6l0,0c0.2,0.1,0.4,0.2,0.6,0.3c0.1,0,0.2,0.1,0.2,0.1
		c0.2,0.1,0.3,0.1,0.4,0.2c0.1,0,0.1,0,0.2,0.1c0.2,0.1,0.4,0.1,0.5,0.2l0,0c0.2,0,0.3,0.1,0.5,0.1c0.1,0,0.1,0,0.2,0
		c0.1,0,0.2,0,0.3,0h0.1c0.2,0,0.2-0.1,0.4-0.1l0,0c0.1,0,0.2-0.1,0.3-0.2c0,0,0.1,0,0.1-0.1c0.1-0.1,0.2-0.1,0.2-0.2
		c0,0,0.1,0,0.1-0.1c0.1-0.1,0.2-0.2,0.2-0.2l0,0c0.1-0.1,0.2-0.2,0.2-0.2c0,0,0-0.1,0.1-0.1c0.1-0.1,0.1-0.2,0.2-0.2v-0.1
		c0.1-0.1,0.1-0.2,0.2-0.4l0,0c0.1-0.1,0.1-0.2,0.1-0.3v-0.1c0-0.1,0.1-0.2,0.1-0.3V459c0-0.2,0.1-0.3,0.1-0.4v-0.1
		c0-0.1,0-0.2,0-0.3c0-0.1,0-0.1,0-0.2c0-0.1,0-0.2,0-0.3c0-0.1,0-0.1,0-0.2c0-0.2,0-0.3,0-0.4s0-0.1,0-0.2c0-0.1,0-0.2,0-0.3
		c0-0.1,0-0.2,0-0.2s0-0.2,0-0.2s0-0.2,0-0.2s0-0.2,0-0.2c0-0.2,0-0.2,0-0.4c0-0.1,0-0.1,0-0.2c0-0.1,0-0.2,0-0.3c0,0,0,0,0-0.1
		c0-0.2-0.1-0.4-0.1-0.5c0.2,0.4,0.7,0.9,1.4,1.2l0,0c0.1,0.1,0.2,0.1,0.3,0.2h0.1c0.1,0,0.2,0.1,0.3,0.1h0.1c0.1,0,0.2,0.1,0.3,0.1
		c0.1,0,0.1,0,0.2,0c0.1,0,0.2,0.1,0.3,0.1c0.1,0,0.1,0,0.2,0c0.1,0,0.2,0,0.3,0.1c0.1,0,0.2,0,0.2,0c0.1,0,0.2,0,0.3,0
		c0.1,0,0.2,0,0.2,0c0.1,0,0.2,0,0.3,0c0.1,0,0.2,0,0.2,0c0.2,0,0.2,0,0.4,0c0.1,0,0.2,0,0.3,0c0.2,0,0.3,0,0.5,0c0.1,0,0.2,0,0.2,0
		c6.1-0.2-7.2-23.1-12.5-31.8c-0.7-1.1-1.2-1.9-1.6-2.5c-0.1-1.5-0.2-3.2-0.2-5.1c1.6-2.5,2.9-5.6-0.3-6.8c-0.1-1.2-0.1-2.6-0.2-4
		c1.5-3.3,2.3-6.4,2.7-9.5c0.2,0,0.2,0,0.2,0s0.4-6.8,0.6-15.4c11.7-2.8,8.8-37.3,6-57.6c-0.1-0.8-0.2-1.5-0.3-2.3
		c-0.9-6-1.7-10.4-1.9-11.8c-0.5-2.6-1.3-15-2.1-30.4c1.6-20.9-0.7-51.6-3.6-67c-0.1-1.3-0.2-2.4-0.3-3.2c-0.1-0.5-0.2-0.9-0.2-1.2
		c-0.9-3.7-3.4-6.6-6.5-9c-4.4-3.2-9.7-5.1-13.4-6.2c-4-3.3-10.7-6-19.5-7.4l0.9-3.3c0.1-1.2,0-3.2-0.2-5.4c5.4-1.7,9.3-3.9,12.5-7
		c0.8-0.8,1.5-1.6,2.1-2.5c0.2-0.2,0.4-0.5,0.5-0.8c0.4-0.5,0.7-1.1,1-1.6c0.2-0.3,0.3-0.6,0.5-0.9c0.9-1.8,1.8-3.8,2.5-6.1
		c0.2-0.4,0.2-0.8,0.4-1.2c0.5-1.6,0.9-3.3,1.3-5.1c0.5-2.3,0.9-4.7,1.4-7.5c0.2-1.1,0.3-2.2,0.5-3.3c0.2-1.1,0.3-2.2,0.5-3.3
		c0.5,0.3,1,0.6,1.6,0.9c6.4,3,13.2-16,14.3-33.9c0.6-10.5-5.9-7.6-11.5-3.2c0.1-0.5,0.1-0.9,0.2-1.4l0,0c0.2-0.9,0.2-1.9,0.3-2.9
		c0-0.3,0.1-0.6,0.1-0.9c0.1-0.6,0.1-1.2,0.2-1.9c0-0.4,0-0.7,0.1-1.1c0-0.5,0.1-1.1,0.1-1.6c0-0.4,0-0.8,0-1.2c0-0.5,0-1,0-1.5
		c0-0.4,0-0.8,0-1.2c0-0.5,0-0.9,0-1.4c0-0.4,0-0.8-0.1-1.1c0-0.5,0-0.9-0.1-1.3c0-0.4-0.1-0.7-0.1-1.1c0-0.5-0.1-0.9-0.1-1.3
		c0-0.4-0.1-0.7-0.1-1.1c-0.1-0.4-0.1-0.9-0.2-1.2c-0.1-0.3-0.1-0.7-0.2-1c-0.1-0.4-0.1-0.8-0.2-1.2c-0.1-0.3-0.1-0.6-0.2-1
		c-0.1-0.4-0.2-0.8-0.2-1.2c-0.1-0.3-0.2-0.6-0.2-0.9c-0.1-0.4-0.2-0.8-0.2-1.2c-0.1-0.3-0.2-0.6-0.2-0.9c-0.1-0.4-0.2-0.8-0.3-1.1
		c-0.1-0.3-0.2-0.5-0.2-0.9c-0.1-0.4-0.2-0.7-0.3-1.1c-0.1-0.2-0.2-0.5-0.2-0.8c-0.2-0.4-0.2-0.7-0.4-1.1c0-0.1-0.1-0.2-0.1-0.3h0.1
		l0,0c0.2,0.1,0.3,0.2,0.3,0.2s1.4-11.5-0.5-17.6c-0.2-2-1.1-4.7-3-7.9c0-0.1,0-0.1,0-0.1l0,0c-0.4-0.7-0.9-1.4-1.3-2.2
		c-4.7-6.6-11.3-11.3-18.1-14.3c-0.5-2.8-3-5.5-6.7-4c0,0-0.5,0.5-1.1,1.2c-28.7-12.1-37.8,5.2-40.6,20.1c-2.6,0.1-5.1,0.2-7.4,0.4
		c-23.3,1.4-17.6,9.9-17.4,10.2c0.6,1.2,2.7,2.5,5.1,3.6c2,1,4.7,2.1,8.3,3c-0.4,0.7-0.8,1.5-1.2,2.2c-3.9,0-16,0.5-9.7,8.6
		c-7.6,6.5-8.6,14-6.3,20.3c-1.3,0.8-2.2,2.7-2.3,6.5c-0.5,18,4.6,37.4,11.3,35c1.3-0.5,2.4-1.1,3.3-1.8c0.2,0.9,0.3,1.6,0.5,2.4
		c-3.2,0.8-5.5,2.6-1.7,6.8c0.5,0.5,1,0.9,1.5,1.3c-2.3,1.5-3,3.6,1.5,6.4c0.7,0.5,1.4,0.8,2,1.1c1,4.7,3.1,9.9,6.3,14.6l0,0l0,0
		c0.5,0.7,1,1.4,1.6,2.1c0,0,0,0.1,0.1,0.1c0.5,0.7,1.1,1.4,1.6,2l0.1,0.1c0.3,0.3,0.5,0.6,0.9,1l0,0c0.3,0.3,0.6,0.7,0.9,1l0,0
		c0.3,0.3,0.6,0.6,0.9,0.9l0.1,0.1c0.6,0.6,1.3,1.2,2,1.8c0.1,0.1,0.1,0.1,0.2,0.2c0.3,0.3,0.7,0.5,1,0.8l0,0
		c0.4,0.3,0.7,0.5,1.1,0.8c0.1,0,0.1,0.1,0.2,0.1c0.3,0.2,0.7,0.5,1,0.7c0.1,0,0.1,0.1,0.2,0.1c0.4,0.2,0.8,0.5,1.2,0.7l0,0
		c0.2,0.2,0.5,0.3,0.7,0.4c-0.6,1.2-0.9,2.8,1.1,4.4c0,2.2,0,4,0,4.9c0,0.4,0,0.8,0.1,1.2l0,0c-0.5,0.1-1,0.1-1.5,0.2
		c-0.1,0-0.2,0-0.2,0c-0.5,0.1-1.1,0.2-1.6,0.2c-0.1,0-0.2,0-0.2,0c-0.5,0.1-1.1,0.2-1.6,0.2H109c-0.5,0.1-1.1,0.2-1.6,0.3
		c-0.1,0-0.1,0-0.2,0c-0.5,0.1-1.1,0.2-1.6,0.3c-0.1,0-0.2,0-0.2,0.1c-0.5,0.2-1,0.2-1.6,0.4c-0.1,0-0.2,0.1-0.2,0.1
		c-0.5,0.2-1,0.3-1.5,0.4c-0.1,0-0.2,0.1-0.2,0.1c-0.5,0.2-1,0.3-1.5,0.5c-0.1,0-0.2,0.1-0.2,0.1c-0.5,0.2-1,0.4-1.5,0.5
		c0,0-0.1,0-0.1,0.1c-0.5,0.2-1,0.4-1.5,0.6h-0.1c-0.5,0.2-0.9,0.5-1.4,0.7c-0.1,0-0.1,0.1-0.2,0.1c-0.5,0.2-0.9,0.5-1.3,0.7
		c-0.1,0.1-0.2,0.1-0.2,0.2c-0.4,0.2-0.9,0.5-1.2,0.8c-0.1,0.1-0.2,0.1-0.2,0.2c-0.4,0.3-0.8,0.5-1.2,0.9c-0.1,0.1-0.1,0.1-0.2,0.2
		c-0.4,0.3-0.8,0.6-1.2,0.9l-0.1,0.1c-0.4,0.3-0.8,0.7-1.1,1c-5.1,1.7-8.8,3.5-10.1,5.4c-5.4,7.7-11.8,87.8-0.6,97.1
		c0.2,6.5,0.5,12.5,0.8,18c-5.2,0.9-5,9,0.4,8.9c0.1,1.5,0.2,3,0.2,4.3c0.1,1.2,0.2,2.4,0.2,3.6c0,0.1,0,0.2-0.1,0.2
		c-0.2,0.8-0.4,1.5-0.6,2c-3.3,8.4-7.3,29.7-3,37.7c0.1,0.1,0.2,0.2,0.2,0.3c0.6,1.1,1.5,1.9,2.5,2.3c0.2,5.1,0.4,9.7,0.6,13
		c0,1,0.2,2.1,0.3,3.1c0.1,0.4,0.1,0.7,0.2,0.9c0,0,0,0,0,0.1c0,0.1,0,0.1,0,0.2c-0.2,8.9-0.5,16.8-0.8,22.9
		c-2.6,2.3-5.3,5.7-0.3,6.9c-0.1,1.2-0.1,2.2-0.2,3c-2.2,2.3-2.8,11.6-2.8,11.6s-1.9,42.1,1.7,24.2c3.7-17.9,5.4-16,3.7,5.4
		c-1.7,21.4,7.6-22,9-15.1c1.3,6.8,5.9,50.7,5.9-4.1c0,0-4.2-25.5,6.6,14.5s-2.3-25.1-3.1-28.4c-0.5-2,4.4,5.5,7.6,9.7
		c0.5,16,1,33.5,0.9,49.3c-0.2,5.2-0.2,10.1-0.2,14.4v0.1c-0.2,5.2-0.2,9,0.1,11.8c-4.3,1.6-3.7,8.9,1.4,8.6
		c1.6,19.7,0.9,65.1,0.1,94.1C70.5,621.9,26.9,630,8,657c-37.6,53.6,77,64.4,92.6,64C116.1,720.6,248.9,716,238,680.4z M168.2,421.1
		c1.7-0.4,3.3-0.8,4.7-1.2c-0.1,2.3-0.2,4-0.2,4.9h-0.1c0,0-2.5,3.3-5,7.9C167.9,428.6,168.1,424.7,168.2,421.1z M95.8,423.6
		L95.8,423.6c-0.2-2.1-0.2-5.8-0.4-10.6c3.1,2.1,6.7,4,10.7,5.5c0.3,5.9,0.5,12.5,0.9,19.5C104.2,432.1,101.7,429.5,95.8,423.6z
		 M124.8,549.1c1.5-28.2,3.4-89.6,5.7-125.5c1.3,0.1,2.6,0.2,4,0.2c3.4,0.1,6.5,0,9.6-0.1c1.6,26,3.1,65.2,4.4,95.6
		c-3.2,1.3-4.4,7,0.4,8.7c0.3,8.1,0.7,15.3,0.9,21.1c1.2,22.7,0.6,51.5-0.1,72.2c-7.5-0.5-16-0.9-24.9-0.9
		C124.1,599.8,123.6,571.5,124.8,549.1z"/>
	<g>
		<g>
			<g id="XMLID_4075_">
				<path id="XMLID_4076_" class="st1" d="M66.6,318.2c-7.9,2.2-7.6-11.3,1.2-8.7"/>
			</g>
			<path id="XMLID_4074_" class="st1" d="M61.1,220.3c1.7,35.8,3.1,79.8,4.3,102.6c2.1,41.4-1.2,102.2-1.2,102.2l17.4-1.5
				c0,0-3.6-107.4,0-129.9c2.6-16.2-1.9-76-3.3-110.9"/>
			<g id="XMLID_4072_">
				<path id="XMLID_4073_" class="st1" d="M81.7,421.4c7.2,7.5,9.3,9.9,13.1,19.6c3.8,9.7-10.2-13.9-9.3-10.4
					c0.9,3.4,13.9,70.6,3.1,29.3s-6.6-14.9-6.6-14.9c0,56.6-4.6,11.4-5.9,4.3s-10.7,37.8-9,15.6c1.7-22.1-0.1-24.1-3.7-5.6
					c-3.7,18.4-1.7-25-1.7-25s0.9-13.6,4.2-12.5"/>
			</g>
			<path id="XMLID_4071_" class="st1" d="M71.9,309.9c0,0,2.9,0.6,3,1.2"/>
			<path id="XMLID_4070_" class="st1" d="M71.4,316.8c0,0-2.3,0.4-2.8-1.4"/>
			<path id="XMLID_4069_" class="st2" d="M68,409.5c0,0-14,9.4,0,10.1"/>
		</g>
		<path id="XMLID_4068_" class="st3" d="M85.8,219.2c2.3,4.4-4.2,62.4-3.9,67.4c0.3,5-1.6,5.6-15.7,5.1
			c-14.1-0.5-7.2-92.9-1.5-101.3c2-3,9.9-5.8,19.2-8.3"/>
		<g>
			<path class="st1" d="M118,671c-0.5-1.8-1.6-3.9-2.6-6.5c-1-2.4-2.1-5.2-3-8.7c0.1,0,0.2,0,0.2,0s0-0.1,0-0.2
				c0-0.5-0.1-3.1-0.2-7.1l-15.7-1.4l-0.9-0.1l-0.9,0.1c-0.1,1.1-0.2,1.9-0.4,2.5c0,0.1,0,0.2-0.1,0.2c-0.1,0.2-0.2,0.2-0.3,0.3
				c-0.4,0.5-0.5,0.7-0.5,0.7s-0.7,0.6-1.8,1.6c-1.9,11.1-9.7,17.6-18.8,21.4c0.1,0.9,0.5,1.8,1.3,2.6c0.2,0.2,0.5,0.5,0.9,0.8
				c1.2,0.9,3.1,1.6,5.5,2c1.9,0.4,4,0.6,6.3,0.9c1.5,0.2,3,0.2,4.7,0.3c1.2,0.1,2.5,0.1,3.8,0.2c1.3,0,2.6-0.1,3.8-0.2
				c1.6-0.1,3.2-0.2,4.7-0.3c2.3-0.2,4.4-0.5,6.3-0.9c2.4-0.5,4.4-1.2,5.5-2c0.4-0.2,0.7-0.5,0.9-0.8c1.1-1.1,1.5-2.2,1.4-3.5
				C118.4,672.4,118.3,671.7,118,671z"/>
			<path class="st1" d="M90.3,386.4c0,0,3.7,59.4,3.5,105.3c-0.2,5.4-0.2,10.4-0.2,14.9v0.1c-0.3,11.2,0.2,16.2,1.1,17.4
				c3,26.5-0.3,127.7-0.3,127.7l17.4,1.5c0,0-3.3-60.8-1.2-102.2s5.2-152.3,8.8-157.9"/>
			<g>
				<g id="XMLID_4066_">
					<path id="XMLID_4067_" class="st1" d="M59.2,675.8c0,0,6.2-0.6,4,4.4C60.9,685.3,54,679.3,59.2,675.8z"/>
				</g>
				<g id="XMLID_4064_">
					<path id="XMLID_4065_" class="st1" d="M62.8,675.1c0,0,6.9-0.7,4.4,4.9C64.6,685.6,56.9,679,62.8,675.1z"/>
				</g>
				<g id="XMLID_4062_">
					<path id="XMLID_4063_" class="st1" d="M67.1,673.9c0,0,8-0.8,5.1,5.7C69.4,686.1,60.3,678.4,67.1,673.9z"/>
				</g>
				<g id="XMLID_4060_">
					<path id="XMLID_4061_" class="st1" d="M72.7,672.7c0,0,9.2-0.9,5.8,6.5C75.2,686.7,65,677.9,72.7,672.7z"/>
				</g>
				<path id="XMLID_4059_" class="st1" d="M83.5,682.1c0,0-10.9,0.7-5.8-6.4c5.1-7.1,14,0.2,14.7,3.2C93,682,83.5,682.1,83.5,682.1z
					"/>
			</g>
			<path id="XMLID_4058_" class="st1" d="M104.9,515c0,0,2.3,0.2,2.3,2"/>
			<path id="XMLID_4057_" class="st1" d="M101.1,532.2c0,0-2.8-0.9-3-1.6"/>
			<g id="XMLID_4055_">
				<path id="XMLID_4056_" class="st1" d="M97.2,655.6c-6.3,5.1-11.5-7.3-2.3-8.5"/>
			</g>
			<g id="XMLID_4053_">
				<path id="XMLID_4054_" class="st1" d="M96.5,527.4c-7.9,2.2-7.6-11.3,1.2-8.7"/>
			</g>
		</g>
		<path class="st1" d="M178,346.4l-114.2-4.3c0,0,0.5,30.3,1.3,41.8c0,1.1,0.2,2.2,0.3,3.3c0.1,0.4,0.1,0.7,0.2,0.9c0,0,0,0,0,0.1
			c3.2,17.5,23.2,33,54.7,33.5c51.5,0.9,52.9-14.9,52.9-14.9c2.6-4.7,4-9.2,4.5-13.5c0.2,0,0.2,0,0.2,0S179.9,355.5,178,346.4z"/>
		<g>
			<path class="st3" d="M184.6,317.9c-0.1-0.8-0.2-1.6-0.3-2.3c-0.9-6.1-1.7-10.7-1.9-12.2c-1.5-7.6-4.5-90.3-6-103.8
				c-0.1-0.5-0.2-0.9-0.2-1.3c-0.9-3.8-3.4-6.8-6.5-9.3c-4.4-3.3-9.7-5.4-13.4-6.5c-6.8-5.8-21-9.6-40.3-8.8
				c-18.3,0.8-46.5,1.1-47.9,28.6c-0.2,3.1-0.2,6.7,0,10.7c1.4,37.3,1.5,97.7-2.4,113.8c-0.2,0.8-0.4,1.6-0.6,2.1
				c-3.3,8.7-7.3,30.7-3,38.9c0.1,0.1,0.2,0.2,0.2,0.3c1.6,2.9,4.4,3.8,8.9,1.4c0,0,5.5-1.3,9.7-1.3l79.3,4.1c3.3,0.5,6.3,1,8.7,1.6
				C191.6,391,188.1,343.5,184.6,317.9z"/>
			<path class="st3" d="M67.8,210.3c0,0.9,0.1,1.7,0.1,2.6c1.4,37.3,1.5,97.7-2.4,113.8c-0.2,0.8-0.4,1.6-0.6,2.1
				c-3.3,8.7-7.3,30.7-3,38.9c0.1,0.1,0.2,0.2,0.2,0.3c1.6,2.9,4.4,3.8,8.9,1.4"/>
			<path class="st3" d="M80.6,368.2l79.3,4.1c3.3,0.5,6.3,1,8.7,1.6c23,17,19.4-30.5,16-56.1c-0.1-0.8-0.2-1.6-0.3-2.3
				c-0.9-6.1-1.7-10.7-1.9-12.2c-1.5-7.6-4.5-90.3-6-103.8c-0.1-0.5-0.2-0.9-0.2-1.3c-0.9-3.8-3.4-6.8-6.5-9.3
				c-4.4-3.3-9.7-5.4-13.4-6.5c-6.8-5.8-21-9.6-40.3-8.8c-16.8,0.7-42,1-47,22.5"/>
		</g>
		<path id="XMLID_4052_" class="st1" d="M179.4,258.5c0,0-9,96.2-5.3,110.4"/>
		<g>
			<path id="XMLID_4051_" class="st4" d="M137.6,171.4c0.2-3.6-1-13.8-1.2-17c-0.2-3-0.6-5.6-1.3-7.8c11.8-20-20.6-43-32.2-17.3
				c-3.6,8-3.1,23.6-3.1,26.2c0.1,3.4,0.2,15,0.2,18c0.1,16.7,24.9,30,34.7,8.3"/>
			<path id="XMLID_4050_" class="st5" d="M129.3,189.4c-11.4,9.9-29.2-1.8-29.3-16c0-3-0.1-14.6-0.2-18c-0.1-2.6-0.5-18.2,3.1-26.2
				c11.5-25.7,43.9-2.7,32.2,17.3c0.6,2.2,1.1,4.7,1.3,7.8c0.2,3.3,1.4,13.5,1.2,17l-3,10.3c-0.5,1.2-1.1,2.3-1.7,3.2"/>
		</g>
		<g>
			<path class="st1" d="M155.8,386.4c0,0-3.7,59.4-3.5,105.3c0.2,5.4,0.2,10.4,0.2,14.9v0.1c0.3,11.2-0.2,16.2-1.1,17.4
				c-3,26.5,0.3,127.7,0.3,127.7l-17.4,1.5c0,0,3.3-60.8,1.2-102.2s-5.2-152.3-8.8-157.9"/>
			<path id="XMLID_4049_" class="st1" d="M146.5,517.1c0,0-1.2-1.9-3-1.1"/>
			<path id="XMLID_4048_" class="st1" d="M139.5,532.6c0,0,2.8-0.9,3-1.6"/>
			<g id="XMLID_4046_">
				<path id="XMLID_4047_" class="st1" d="M148.8,648.4c6.3-5.1,11.5,7.3,2.3,8.5"/>
			</g>
			<g id="XMLID_4044_">
				<path id="XMLID_4045_" class="st1" d="M138.6,521.3c-6.3-5.1-11.5,7.3-2.3,8.5"/>
			</g>
			<g>
				<path class="st1" d="M157.4,674c-0.5-1.8-1.6-3.9-2.6-6.5c-1-2.4-2.1-5.2-3-8.7c0.1,0,0.2,0,0.2,0s0-0.1,0-0.2
					c0-0.5-0.1-3.1-0.2-7.1l-15.7-1.4l-0.9-0.1l-0.9,0.1c-0.1,1.1-0.2,1.9-0.4,2.5c0,0.1,0,0.2-0.1,0.2c-0.1,0.2-0.2,0.2-0.3,0.3
					c-0.4,0.5-0.5,0.7-0.5,0.7s-0.7,0.6-1.8,1.6c-1.9,11.1-9.7,17.6-18.8,21.4c0.1,0.9,0.5,1.8,1.3,2.6c0.2,0.2,0.5,0.5,0.9,0.8
					c1.2,0.9,3.1,1.6,5.5,2c1.9,0.4,4,0.6,6.3,0.9c1.5,0.2,3,0.2,4.7,0.3c1.2,0.1,2.5,0.1,3.8,0.2c1.3,0,2.6-0.1,3.8-0.2
					c1.6-0.1,3.2-0.2,4.7-0.3c2.3-0.2,4.4-0.5,6.3-0.9c2.4-0.5,4.4-1.2,5.5-2c0.4-0.2,0.7-0.5,0.9-0.8c1.1-1.1,1.5-2.2,1.4-3.5
					C157.8,675.5,157.6,674.8,157.4,674z"/>
				<g>
					<g id="XMLID_4042_">
						<path id="XMLID_4043_" class="st1" d="M98.5,678.8c0,0,6.2-0.6,4,4.4C100.2,688.1,93.3,682.2,98.5,678.8z"/>
					</g>
					<g id="XMLID_4040_">
						<path id="XMLID_4041_" class="st1" d="M102.1,678.1c0,0,6.9-0.7,4.4,4.9C104,688.6,96.3,681.9,102.1,678.1z"/>
					</g>
					<g id="XMLID_4038_">
						<path id="XMLID_4039_" class="st1" d="M106.5,676.9c0,0,8-0.8,5.1,5.7C108.7,689.1,99.7,681.4,106.5,676.9z"/>
					</g>
					<g id="XMLID_4036_">
						<path id="XMLID_4037_" class="st1" d="M112,675.7c0,0,9.2-0.9,5.8,6.5C114.6,689.6,104.3,680.9,112,675.7z"/>
					</g>
					<path id="XMLID_4035_" class="st1" d="M122.8,685.1c0,0-10.9,0.7-5.8-6.4c5.1-7.1,14,0.2,14.7,3.2
						C132.4,685,122.8,685.1,122.8,685.1z"/>
				</g>
			</g>
		</g>
		<g>
			<g id="XMLID_4033_">
				<path id="XMLID_4034_" class="st1" d="M171,310c6.3-5.1,11.5,7.3,2.3,8.5"/>
			</g>
			<path id="XMLID_4032_" class="st1" d="M178.3,239.1c-1.3,31.3-2.5,64.8-3.4,83.8C172.7,364.3,176,425,176,425l-17.4-1.5
				c0,0,3.6-107.4,0-129.9c-2-12.9,0.4-53.9,2.2-87.7"/>
			<path id="XMLID_4031_" class="st1" d="M167.9,310.3c0,0,2.3,0.2,2.3,2"/>
			<path id="XMLID_4030_" class="st1" d="M167.2,316.9c0,0-2.8-0.9-3-1.6"/>
			<g id="XMLID_4017_">
				<path id="XMLID_4029_" class="st4" d="M154.6,453.1c3,0.8,5.1,0.9,6.5,0.8c-0.9,11.1,4.6,7.8,7.2,5.6l1.2,0.5
					c3.6,6.5,7.9,0.2,9.1-2l0.2,1.6c5.8,3,5.4-3.3,5-6.7c0.5,1,2.1,2,6.1,1.9c7.6-0.2-14.5-36.1-14.5-36.1l-16.7,3.9
					C158.6,422.6,139.4,449.3,154.6,453.1z"/>
				<path id="XMLID_4028_" class="st1" d="M158.6,422.6c0,0-19.1,26.6-3.9,30.5c3,0.8,5.1,0.9,6.5,0.8c-0.9,11.1,4.6,7.8,7.2,5.6
					l1.2,0.5c3.6,6.5,7.9,0.2,9.1-2l0.2,1.6c5.8,3,5.4-3.3,5-6.7c0.5,1,2.1,2,6.1,1.9c7.6-0.2-14.5-36.1-14.5-36.1"/>
				<g id="XMLID_4021_">
					<g id="XMLID_4023_">
						<path id="XMLID_4027_" class="st2" d="M175.2,418.8c0,0,22,36,14.5,36.1c-7.5,0.2-6.2-3.6-6.5-3.9c0,0,3.1,12.6-4.6,8.6"/>
						<path id="XMLID_4026_" class="st2" d="M178.9,457.4c0,0-5.4,10.7-9.7,2.2"/>
						<path id="XMLID_4025_" class="st2" d="M158.6,422.6c0,0-19.1,26.6-3.9,30.5c15.3,3.8,7.6-6.8,3.3-6.4"/>
						<path id="XMLID_4024_" class="st2" d="M169.6,458.4c0,0-10,10.7-8.3-5.6l0.5-8.2"/>
					</g>
					<path id="XMLID_4022_" class="st2" d="M172.6,417.8c0,0,10.3-10.4,0-11.2"/>
				</g>
				<path id="XMLID_4020_" class="st1" d="M168.8,444c0,0-0.5,5,0.4,7.7"/>
				<path id="XMLID_4019_" class="st1" d="M176.9,450c0,0,0.2,3.6,0.9,3.7"/>
				<path id="XMLID_4018_" class="st2" d="M177.8,435.5c0.7,2.3,3.7,7.2,3.7,7.2"/>
			</g>
		</g>
		<path id="XMLID_4016_" class="st3" d="M152.8,222.2c-2.3,4.4,4.2,62.4,3.9,67.4c-0.3,5,1.6,5.6,15.7,5.1
			c14.1-0.5,7.2-92.9,1.5-101.3c-2-3-9.9-5.8-19.2-8.3"/>
		<g>
			<path class="st6" d="M147.3,208.5c0,0-14.1-5.2-15-0.4c-0.9,4.9-5.4,20.6,2.9,21.7c8.3,1.1,12.1,0.8,12.5-6.3
				C147.8,216.4,147.3,208.5,147.3,208.5z"/>
			<g>
				<path id="XMLID_4015_" class="st1" d="M146.8,208.8c0,0,1.8,1.4,0.8,3"/>
				<path id="XMLID_4014_" class="st1" d="M134,208.1c0,0-2.6,1.2-3.3,2.4"/>
				<path id="XMLID_4013_" class="st1" d="M147.2,220.2c0,0,0.8-2.7,0.3-4.1"/>
				<path id="XMLID_4012_" class="st1" d="M133.3,228.9c0,0,2.6,1.1,4,0.8"/>
				<path id="XMLID_4011_" class="st1" d="M145.5,226.8c0,0-0.9,2.1-2.7,1.5"/>
				<path id="XMLID_4010_" class="st1" d="M131.2,215.7c0,0-0.5,1.9-1,2.6"/>
				<line id="XMLID_4009_" class="st5" x1="141.2" y1="207.6" x2="138.4" y2="207.5"/>
				<path id="XMLID_4008_" class="st1" d="M130.2,223c0,0-0.6,2.8-0.1,4.1"/>
			</g>
			<g>
				<path id="XMLID_4007_" class="st1" d="M99.2,402.2c0,0-1.7-3-0.4-4.7"/>
				<path id="XMLID_4006_" class="st1" d="M103.2,389.5c0,0-2,2-2.3,3.4"/>
				<path id="XMLID_4005_" class="st1" d="M102,407.1c0,0,0.9,2.7,1.9,3.7"/>
			</g>
		</g>
		<g id="XMLID_3715_">
			<g id="XMLID_4001_">
				<path id="XMLID_4004_" class="st1" d="M79,87.8c0,0-18-23.8-18.4-5.2c-0.5,18.6,4.6,38.7,11.3,36.2c6.7-2.5,6.7-8,6.7-8"/>
				<path id="XMLID_4003_" class="st1" d="M73.2,89c0,0-7-10.9-8.8-5.8"/>
				<path id="XMLID_4002_" class="st1" d="M75.8,96.6c0,0-10.4-2.7-8.8,3.3c1.5,6,5.1,10,7,3.3"/>
			</g>
			<path id="XMLID_4000_" class="st7" d="M133,4.1c0,0-6.8,5.9,1.6,8.6C143.1,15.5,140.4,1.1,133,4.1z"/>
			<path id="XMLID_3999_" class="st1" d="M118.8,18.6c0,0,53.9,3.9,46.4,67.6c-7.6,63.7-5.5,75.3-36,81.8
				c-30.4,6.5-47.1-15.8-50.4-32.8S51.1,27,118.8,18.6z"/>
			<path class="st0" d="M144.1,28c6.8,10,11.1,24.5,8.6,45.6c-7.6,63.7-5.5,75.3-36,81.8c-13,2.8-23.5,0.3-31.5-4.8
				c7.9,12.1,22.6,22,44.1,17.4c30.4-6.5,28.4-18.1,36-81.8C169,53.7,156.9,36.8,144.1,28z"/>
			<path id="XMLID_3998_" class="st3" d="M162.2,33.8c-0.2-2.1-1.1-4.8-3-8.2c0-0.1,0-0.1,0-0.1l0,0c-0.4-0.7-0.9-1.5-1.3-2.3
				c-6-9.4-15.9-14.9-24.9-17.7C94.2-11.8,90.3,24.9,90.2,38.7c0,1.3,17.4-0.2,33.3-4.1c20.2,8.1,39.2,17.2,39.2,17.2
				S164.1,40.1,162.2,33.8z"/>
			<path id="XMLID_3997_" class="st1" d="M113.2,91.6c0,0,9.7,7.2,22,2.8"/>
			<path id="XMLID_3996_" class="st1" d="M89.6,91.9c0,0-15.5,3.3-18.8,1.9"/>
			<path id="XMLID_3995_" class="st1" d="M100,162.4c0,0-6.4,5.9,6.8,8.5c13.3,2.6,22-0.9,19.4-5.9"/>
			<path id="XMLID_3994_" class="st3" d="M80.7,43.9c0,0,20.6-8.4,44.9-3s36.8,11,36.8,11c-7.8-26.7-54.7-26.9-78.5-25.4
				C60.2,28,66.6,36.9,66.6,36.9S70.1,41.4,80.7,43.9z"/>
			<path id="XMLID_3993_" class="st1" d="M80.7,43.9c0,0-40.9-11.4,15.7-13.9s66,21.8,66,21.8S110,29.2,80.7,43.9z"/>
			<g>
				<path id="XMLID_3992_" class="st1" d="M109.8,96.3c0,0-9.7-12.1-9.4-18.8"/>
				<g id="XMLID_3989_">
					<path id="XMLID_3991_" class="st1" d="M92.8,97.7c0.4,3.2,1.4,5.4,3.5,5.8c1.2,0.2,2.1,0.2,3,0c0.7-0.2,1.2-0.4,1.6-0.6"/>
					<path id="XMLID_3990_" class="st1" d="M103.3,59.2c0,0-7.4,19.8-9.5,33.8"/>
				</g>
				<g id="XMLID_3983_">
					<path id="XMLID_3988_" class="st1" d="M89.3,99.3c0,0-7.2,8.3,4.4,10.7"/>
					<path id="XMLID_3987_" class="st1" d="M109.1,99.3c0,0,7.6,6.3-3.1,10.7"/>
					<path id="XMLID_3986_" class="st1" d="M103.5,104.6c1.1,0.3,2.7-1.9,3.9,0s-0.2,1.4-1.8,1.8C104,106.8,102.4,104.3,103.5,104.6
						z"/>
					<path id="XMLID_3985_" class="st1" d="M92.6,107.4c-2.2-0.2-2.7-1.9-1.6-2.7c0.4-0.3,1.6,0.2,2.8,0.9
						C94.7,106.1,92.6,107.4,92.6,107.4z"/>
					<path id="XMLID_3984_" class="st1" d="M100.3,95c0,0,2.3-0.1,2.8,0.7"/>
				</g>
				<path id="XMLID_3982_" class="st1" d="M85.1,104.5c0,0-6.3,3.1-8.1,3.8"/>
				<path id="XMLID_3981_" class="st1" d="M113.6,102.8c0,0,7.3,3.5,8,3.4"/>
			</g>
			<path id="XMLID_3980_" class="st1" d="M144.7,71.5c0,0,1,2.1-0.6,3"/>
			<path id="XMLID_3979_" class="st1" d="M139,93.1c0,0-0.5,1.9-1,2.6"/>
			<path id="XMLID_3978_" class="st1" d="M139.7,55.6c0,0,0.8-3.6,0-3.6"/>
			<path id="XMLID_3977_" class="st1" d="M87.1,43.4c0,0,3.4,0.5,3,1"/>
			<path id="XMLID_3976_" class="st1" d="M107.9,49.8c0,0,4-0.5,4.2-1.3"/>
			<path id="XMLID_3975_" class="st1" d="M88.6,146.8c0,0,2.9,0.6,3,1.2"/>
			<path id="XMLID_3974_" class="st1" d="M112.6,148c0,0-2.6,1.2-3.3,2.5"/>
			<path id="XMLID_3973_" class="st1" d="M85.9,84.6"/>
			<path id="XMLID_3972_" class="st1" d="M104.7,86.8"/>
			<line id="XMLID_3971_" class="st5" x1="131.6" y1="107.8" x2="134.4" y2="107"/>
			<path id="XMLID_3970_" class="st1" d="M157.6,94.5c0,0,20-22.3,18.8-3.7s-7.9,38.1-14.3,35.1c-6.4-3.1-6-8.6-6-8.6"/>
			<path id="XMLID_3969_" class="st1" d="M163.4,96.3c0,0,7.9-10.3,9.3-5"/>
			<path id="XMLID_3968_" class="st1" d="M160.1,103.7c0,0,10.5-1.8,8.5,4c-2,5.8-6,9.5-7.2,2.7"/>
			<g>
				<path id="XMLID_3967_" class="st8" d="M73,51.9c0,0,36.8-3.6,23.5,26.1S42.1,72.5,73,51.9z"/>
				<path id="XMLID_3966_" class="st7" d="M69.5,72.4c0,0,5.5-2.2,4.9,3.5C73.8,81.5,65.8,77.3,69.5,72.4z"/>
				<path id="XMLID_3965_" class="st8" d="M113.9,56c0,0-27,23.7,6.6,34.6S143.2,43.9,113.9,56z"/>
				<path id="XMLID_3964_" class="st7" d="M132.7,75.6c0,0,5.5-2.2,4.9,3.5C136.9,84.8,128.8,80.5,132.7,75.6z"/>
				<path id="XMLID_3963_" class="st7" d="M116.1,51.3c0,0-12.4,1.4-3.5,10.2c8.9,8.7,25.9,0.3,25-2.8
					C136.6,55.5,135,50.3,116.1,51.3z"/>
				<path id="XMLID_3962_" class="st7" d="M80,46c0,0-19.1-1.1-10.3,9.6s24.6-0.2,25.8-4.8C96.8,46.2,80,46,80,46z"/>
				<g id="XMLID_3957_">
					<path id="XMLID_3959_" class="st1" d="M136.4,89.6c0.2,0.1,0.5,0.2,0.7,0.2c0.9,0.2,1.9,0.4,2.8-0.7c2.3-2.5-3-3.3-3-3.3
						l-5.8-0.4c0,0-12.4-0.9-19.7,1.1c0,0,10.8,5.8,17.4,5.4c0.8-0.1,1.5-0.2,2.2-0.4C131.5,91.3,135.2,89.3,136.4,89.6z"/>
					<path id="XMLID_3958_" class="st1" d="M77,82.4c0,0,7.2-1.4,15.3,1.2c0,0-4,8.6-16.9,4.7c-4.2-1.3-5.1,1.1-7.4-1.4
						c-2.3-2.5,3-3.3,3-3.3L77,82.4z"/>
				</g>
			</g>
			<g id="XMLID_3952_">
				<path id="XMLID_3956_" class="st7" d="M85.6,124.7c0,0-19.8,2.6-8.7,9.7C87.9,141.5,85.6,124.7,85.6,124.7z"/>
				<path id="XMLID_3955_" class="st7" d="M82.6,118.8c0,0-16.3-0.9-8.8,7.6c7.6,8.4,20.9-0.2,22-3.8
					C96.9,119,82.6,118.8,82.6,118.8z"/>
				<path id="XMLID_3954_" class="st7" d="M115.2,123c0,0-7.9-2.6-6.6,7.4s15.1,8.3,16,5.4C125.4,132.9,126.8,128.1,115.2,123z"/>
				<path id="XMLID_3953_" class="st7" d="M108.4,120.3c0,0-23.1-2.9-0.3,8.3S134.8,123.8,108.4,120.3z"/>
			</g>
			<g id="XMLID_3716_">
				<path id="XMLID_3951_" class="st1" d="M87.8,134.3c0,0,12.1,12,18.8,0"/>
				<path id="XMLID_3718_" class="st1" d="M90.6,132.4c0,0,3.3-3.5,5.8,0"/>
				<path id="XMLID_3717_" class="st1" d="M102.2,132.4c0,0-3.3-3.5-5.8,0"/>
			</g>
		</g>
		<path id="XMLID_3714_" class="st1" d="M131.9,192.4c0.9-0.3,1.7-1,2.6-2.3"/>
		<path id="XMLID_3713_" class="st1" d="M99.3,185.3c0,0,0.2,1.2,1,2.2"/>
		<path id="XMLID_3712_" class="st1" d="M106.7,195c0.3,0.2,0.6,0.3,0.9,0.4"/>
		<path id="XMLID_3695_" class="st3" d="M78.9,342c0,0,2.8-96.6-1.7-110.5"/>
	</g>
</g>
</svg>
