<?xml version="1.0" encoding="utf-8"?>
<!-- Generator: Adobe Illustrator 22.1.0, SVG Export Plug-In . SVG Version: 6.00 Build 0)  -->
<svg version="1.1" id="Layer_1" xmlns="http://www.w3.org/2000/svg" xmlns:xlink="http://www.w3.org/1999/xlink" x="0px" y="0px"
	 viewBox="0 0 1174.2 409.1" style="enable-background:new 0 0 1174.2 409.1;" xml:space="preserve">
<style type="text/css">
	.st0{opacity:0.1;}
	.st1{fill:#584C4F;stroke:#584C4F;stroke-width:6;stroke-linecap:round;stroke-miterlimit:10;}
	.st2{fill:#FFD767;stroke:#584C4F;stroke-width:6;stroke-miterlimit:10;}
	.st3{fill:#FFFAF2;stroke:#584C4F;stroke-width:6;stroke-miterlimit:10;}
</style>
<g id="Layer_5">
</g>
<g id="Layer_3">
</g>
<g>
	<g class="st0">
		<path class="st1" d="M846,210.4c-0.6-51.5-25.6-34.9-32.3-29.4c-34.7-13.9-60.2,16.1-60.2,16.1s-1.4,3.3-3,8.5
			c-7.1-19.2-23.3-34-53.9-26.1c-3-5.2-9.2-11.2-21.3-6.8c-5.1,1.8-8.2,8.3-9.9,16.9c-3-5.6-9.1-9.1-21.4-5c-4.6,1.5-8,4.6-10.5,8.8
			c-1.6-29.7-7.1-58.5-12.5-62.7c-8.8-7-30.1-42.5-32.6,31.1c-12.6-2.6-25.9,0.1-37,10.8c-5.8,5.5-9.8,11.1-12.6,16.6
			c-2.7-7-7.5-13.5-14.8-18.8c-42.7-31.3-76,8-76,8s-2.3,5.2-4.3,13.1c-11.2-20.1-34.6-34.5-60.6-26.2c-45.9,14.6-29,65.7-25,76
			c-15.2-8-18.3-22.7-17.9-40.7l2.2-69.3c0,0-36.3-31.7-37.1,27.9c-0.8,59.6-13,114.1,56.8,113.7c0,0,16.6-6.3,16.9-15
			c13.5,6.3,32.8,9.1,54.6-6.9c5.6-4.1,9.8-9,12.6-14.3c4.6,8.9,12.9,16.6,26.7,21c13.5,4.3,26.2,2.6,37-2.8
			c3.7,4.8,10.4,8.1,22,1.3c9-5.3,10.7-11.9,9.4-18c2.8,5,5.2,7.9,5.2,7.9c4.1,6.1,34.4,17.6,51.7,14.2c4.4,5,11.2,8.1,21.7,3.5
			c5.3-2.3,8.9-9.8,11.1-20.1c3.8,15.2,10.6,27,17,25.6c10.6-2.2,17.3-8.5,19.5-25.1c1.9,8.9,4.4,15.5,6.8,17.1
			c8.2,5.3,29.5,34.9,26.6-44.5c9.6-6.3,26-11,21,34.6c0,0,8.2,19.6,24.1,11.5c2.2-1.1,4.2-4.1,5.7-8.2c4.6,8.6,12.6,15.9,26,20.2
			c12.3,3.9,24,2.8,34.1-1.7c-2.6,9.3-7.9,16.5-17.9,21c-34.8,15.3,0,29.8,0,29.8C857.9,324.5,846.7,270.1,846,210.4z M390.3,229.8
			c-28-3.8,11.3-56,24.1-22.7C427.1,240.4,390.3,229.8,390.3,229.8z M471,203c0,0,18.9-34.1,33.7-1C519.5,235.2,453.6,225.9,471,203
			z M536.4,227.5c0-0.1,0.1-0.2,0.1-0.3c0.1,0.3,0.2,0.6,0.3,0.9C536.7,227.9,536.5,227.7,536.4,227.5z M582,226.1
			c-7.6,2.3-15.2,0.6-14.8-8.8c0,0-0.8-7.2,1.2-13.1v0c0,0,1.3-5.3,4.8-7.3c1.4-0.8,3.2-1.1,5.3-0.4c0.1,0,0.2,0.1,0.4,0.1
			c1,0.3,2.2,0.6,3.5,0.7c1.9,0.3,4,0.4,6.2,0.4c0.2,8.1,0.6,16.9,1.1,26.5c-2.4,0.4-4.5,1-6,1.4C582.6,225.8,582,226.1,582,226.1z
			 M809,233.2c-12.8,33.3-52.1-18.9-24.1-22.7C784.9,210.5,821.8,200,809,233.2z"/>
		<path class="st1" d="M651.4,169.9c33.3-14.3-0.5-33.7-0.5-33.7C628.2,118.5,618.1,184.2,651.4,169.9z"/>
	</g>
	<path id="XMLID_29984_" class="st2" d="M340.2,187.7c-0.4,19.5,3.3,35,21.9,42.5c38,15.3,0,29.8,0,29.8
		c-69.8,0.4-57.6-54-56.8-113.7s37.1-27.9,37.1-27.9L340.2,187.7z"/>
	<g id="XMLID_29981_">
		<path id="XMLID_29983_" class="st2" d="M551.4,159.7c-36.8,35.4-4.9,73.5-4.9,73.5c5.1,7.7,51.2,23.6,61.6,8.7l0,0
			c10.4-14.9-0.5-23.7-6.8-28.8c-4.9-4-13.8-1.8-17.5-0.6c-1.1,0.3-1.7,0.6-1.7,0.6c-7.6,2.3-15.2,0.6-14.8-8.8
			c0,0-0.8-7.2,1.2-13.1v0c0,0,1.3-5.3,4.8-7.3c1.4-0.8,3.2-1.1,5.3-0.4c0.1,0,0.2,0.1,0.4,0.1c1,0.3,2.2,0.5,3.5,0.7
			c9,1.4,23.8-0.1,24.8-12.3c1.2-14.1-2.1-15.1-4.2-17.5c0,0,0,0,0,0c-2.1-2.5-8-3.6-8-3.6l0,0C580.5,145.6,564.4,147.2,551.4,159.7
			z"/>
		<path id="XMLID_29982_" class="st2" d="M594,240.8c3.7,7.7,11.2,16.5,25.9,10.1c24-10.5,12.2-124.3,1.1-133.1
			c-10.8-8.6-40.6-60.3-30.9,101.1"/>
	</g>
	<path id="XMLID_29978_" class="st2" d="M383.2,152.4c-51.2,16.3-24.3,77.8-24.3,77.8s32.7,38.6,74.7,7.9
		C475.4,207.3,434.3,136.1,383.2,152.4z M390.3,216.8c-28-3.8,11.3-56,24.1-22.7C427.1,227.4,390.3,216.8,390.3,216.8z"/>
	<g id="XMLID_29971_">
		<path id="XMLID_29977_" class="st2" d="M801.9,181.7"/>
		<path id="XMLID_29974_" class="st2" d="M828.1,176.2c-41.9-30.8-74.7,7.9-74.7,7.9s-26.9,61.6,24.3,77.8
			C828.9,278.2,870,207,828.1,176.2z M809,220.2c-12.8,33.3-52.1-18.9-24.1-22.7C784.9,197.5,821.8,187,809,220.2z"/>
		<path id="XMLID_29973_" class="st2" d="M812,171.6"/>
		<path id="XMLID_29972_" class="st2" d="M812,169.5c0,0,33.2-31.7,34,27.9s11.9,114.1-52,113.7c0,0-34.8-14.5,0-29.8
			c17-7.5,20.4-23,20-42.5"/>
	</g>
	<g id="XMLID_29963_">
		<g id="XMLID_29965_">
			<path id="XMLID_29970_" class="st2" d="M497.3,163.7"/>
			<path id="XMLID_29967_" class="st2" d="M524.1,157.5c-42.7-31.3-76,8-76,8s-27.3,62.7,24.8,79.2
				C524.9,261.3,566.7,188.8,524.1,157.5z M504.7,189.1c14.7,33.1-51.1,23.8-33.7,1C471,190,490,155.9,504.7,189.1z"/>
			<path id="XMLID_29966_" class="st2" d="M507.3,153.5"/>
		</g>
		<path id="XMLID_29964_" class="st2" d="M505.4,231.3c0,0,3.8,25.4,26.5,12c22.8-13.4-1.2-35.5-1.2-35.5"/>
	</g>
	<g id="XMLID_29959_">
		<g id="XMLID_29961_">
			<path id="XMLID_29962_" class="st2" d="M667.2,197.2c0,0,6.8-35.6-23.2-25.5c-30.1,10.1-11.9,88.1,4,84.8
				C663.9,253.1,671.2,240.6,667.2,197.2z"/>
		</g>
		<path id="XMLID_29960_" class="st2" d="M650.9,123.2c0,0,33.8,19.4,0.5,33.7C618.1,171.2,628.2,105.5,650.9,123.2z"/>
	</g>
	<g id="XMLID_29929_">
		<path id="XMLID_29958_" class="st2" d="M699,172.7c0,0-4.1-20-23.7-13c-19.6,7-10,82.9-0.9,88.7
			C683.4,254.3,708.8,290.4,699,172.7z"/>
		<path id="XMLID_29957_" class="st2" d="M694.5,209c0,0,34.4-34,27.4,29.5c0,0,8.2,19.6,24.1,11.5c16-8.2,18.4-108.9-58.5-80.6"/>
	</g>
	<path id="XMLID_30424_" class="st3" d="M340.2,174.7c-0.4,19.5,3.3,35,21.9,42.5c38,15.3,0,29.8,0,29.8
		c-69.8,0.4-57.6-54-56.8-113.7s37.1-27.9,37.1-27.9L340.2,174.7z"/>
	<g id="XMLID_30421_">
		<path id="XMLID_30423_" class="st3" d="M551.4,146.7c-36.8,35.4-4.9,73.5-4.9,73.5c5.1,7.7,51.2,23.6,61.6,8.7l0,0
			c10.4-14.9-0.5-23.7-6.8-28.8c-4.9-4-13.8-1.8-17.5-0.6c-1.1,0.3-1.7,0.6-1.7,0.6c-7.6,2.3-15.2,0.6-14.8-8.8
			c0,0-0.8-7.2,1.2-13.1v0c0,0,1.3-5.3,4.8-7.3c1.4-0.8,3.2-1.1,5.3-0.4c0.1,0,0.2,0.1,0.4,0.1c1,0.3,2.2,0.5,3.5,0.7
			c9,1.4,23.8-0.1,24.8-12.3c1.2-14.1-2.1-15.1-4.2-17.5c0,0,0,0,0,0c-2.1-2.5-8-3.6-8-3.6l0,0C580.5,132.6,564.4,134.2,551.4,146.7
			z"/>
		<path id="XMLID_30422_" class="st3" d="M594,227.8c3.7,7.7,11.2,16.5,25.9,10.1c24-10.5,12.2-124.3,1.1-133.1
			c-10.8-8.6-40.6-60.3-30.9,101.1"/>
	</g>
	<path id="XMLID_30418_" class="st3" d="M383.2,139.4c-51.2,16.3-24.3,77.8-24.3,77.8s32.7,38.6,74.7,7.9
		C475.4,194.3,434.3,123.1,383.2,139.4z M390.3,203.8c-28-3.8,11.3-56,24.1-22.7C427.1,214.4,390.3,203.8,390.3,203.8z"/>
	<g id="XMLID_30411_">
		<path id="XMLID_30417_" class="st3" d="M801.9,168.7"/>
		<path id="XMLID_30414_" class="st3" d="M828.1,163.2c-41.9-30.8-74.7,7.9-74.7,7.9s-26.9,61.6,24.3,77.8
			C828.9,265.2,870,194,828.1,163.2z M809,207.2c-12.8,33.3-52.1-18.9-24.1-22.7C784.9,184.5,821.8,174,809,207.2z"/>
		<path id="XMLID_30413_" class="st3" d="M812,158.6"/>
		<path id="XMLID_30412_" class="st3" d="M812,156.5c0,0,33.2-31.7,34,27.9s11.9,114.1-52,113.7c0,0-34.8-14.5,0-29.8
			c17-7.5,20.4-23,20-42.5"/>
	</g>
	<g id="XMLID_30403_">
		<g id="XMLID_30405_">
			<path id="XMLID_30410_" class="st3" d="M497.3,150.7"/>
			<path id="XMLID_30407_" class="st3" d="M524.1,144.5c-42.7-31.3-76,8-76,8s-27.3,62.7,24.8,79.2
				C524.9,248.3,566.7,175.8,524.1,144.5z M504.7,176.1c14.7,33.1-51.1,23.8-33.7,1C471,177,490,142.9,504.7,176.1z"/>
			<path id="XMLID_30406_" class="st3" d="M507.3,140.5"/>
		</g>
		<path id="XMLID_30404_" class="st3" d="M505.4,218.3c0,0,3.8,25.4,26.5,12c22.8-13.4-1.2-35.5-1.2-35.5"/>
	</g>
	<g id="XMLID_30399_">
		<g id="XMLID_30401_">
			<path id="XMLID_30402_" class="st3" d="M667.2,184.2c0,0,6.8-35.6-23.2-25.5c-30.1,10.1-11.9,88.1,4,84.8
				C663.9,240.1,671.2,227.6,667.2,184.2z"/>
		</g>
		<path id="XMLID_30400_" class="st3" d="M650.9,110.2c0,0,33.8,19.4,0.5,33.7C618.1,158.2,628.2,92.5,650.9,110.2z"/>
	</g>
	<g id="XMLID_30396_">
		<path id="XMLID_30398_" class="st3" d="M699,159.7c0,0-4.1-20-23.7-13c-19.6,7-10,82.9-0.9,88.7
			C683.4,241.3,708.8,277.4,699,159.7z"/>
		<path id="XMLID_30397_" class="st3" d="M694.5,196c0,0,34.4-34,27.4,29.5c0,0,8.2,19.6,24.1,11.5c16-8.2,18.4-108.9-58.5-80.6"/>
	</g>
</g>
</svg>
