<?xml version="1.0" encoding="utf-8"?>
<!-- Generator: Adobe Illustrator 22.1.0, SVG Export Plug-In . SVG Version: 6.00 Build 0)  -->
<svg version="1.1" id="Layer_1" xmlns="http://www.w3.org/2000/svg" xmlns:xlink="http://www.w3.org/1999/xlink" x="0px" y="0px"
	 viewBox="0 0 159.7 548.5" style="enable-background:new 0 0 159.7 548.5;" xml:space="preserve">
<style type="text/css">
	.st0{fill:#EEE3D9;stroke:#5D5B4C;stroke-miterlimit:10;}
	.st1{fill:#FCF4E9;stroke:#5C5B4B;stroke-linecap:round;stroke-miterlimit:10;}
	.st2{fill:#FCF4E9;}
	.st3{fill:#FCF4E9;stroke:#5C5B4B;stroke-linecap:round;stroke-linejoin:round;stroke-miterlimit:10;}
	.st4{fill:none;stroke:#5C5B4B;stroke-linecap:round;stroke-miterlimit:10;}
</style>
<g>
	<path class="st0" d="M149.1,343.2c-0.4-0.7-0.7-1.3-1.1-1.8c-0.3-0.5-0.6-1-0.8-1.4c-0.2-0.3-0.3-0.5-0.4-0.7
		c-0.1-1.2-0.1-2.6-0.2-4.2c1.3-2,2.3-4.6-0.2-5.6c-0.6-16.8-1.4-45.3-0.3-67c0.1-1.2,0.1-2.5,0.2-3.8c4-1.4,3-6.2,0.3-7.2
		c0.2-4.6,0.4-9.7,0.6-15.2c8.3-9.4,3.3-73.1-1-79.3c-0.9-1.3-7.1-6.8-7.5-7.5c-1.6-2.3-7.8-4.6-15.3-6.6l0,0.2
		c-0.6-0.2-1.2-0.4-1.9-0.6c-7.7-2.5-18-4.2-29.2-5c12.5-4.3,15.2-12.1,18-34.6c0.7,0.9,1.7,1.8,3.2,2.5c5,2.4,10.3-12.9,11.1-27.3
		c0.5-7.8-8.6-13.5-10.7-13.2c-0.2-6.9-1.4-12.7-3.3-17.5c0.3,0.1,0.5,0.2,0.5,0.2c0,0,0,0,0,0c0.2,0.1,0.2,0.1,0.2,0.1
		s1.1-9.3-0.4-14.1c-0.2-1.7-0.9-3.7-2.3-6.4c0,0,0-0.1,0-0.1l0,0c-0.3-0.6-0.6-1.1-1-1.7c-2.2-3.4-5-6.1-8.1-8.3
		C96.1,12,91.1,8.5,86.1,6.1c-0.4-2.2-2.4-4.5-5.2-3.3c0,0-0.4,0.4-0.8,0.9C57.6-5.9,50.5,8,48.3,20c-2.1,0.1-4,0.2-5.8,0.3
		C24.1,21.4,29,28.5,29,28.5c0.5,1,2.2,2,4.1,2.9c0.9,0.4,1.9,0.9,3.1,1.3c-0.7,1.7,0.4,3.3,0.4,3.3c0.3,0.6,0.9,1.1,1.7,1.6
		c-4.4,9.8-5.4,21.6-5,32.7c-4.2-4.2-9.9-8.3-10.1,0.9c-0.4,14.5,3.6,30.2,8.8,28.2c0.4-0.1,0.7-0.3,1-0.5c1.5,5,3.5,8.3,5.8,8.1
		c1.6,7,6,14.9,13.2,20.1c0.8,1.1,1.7,2.2,2.7,3.3c0,2,0,3.7,0,4.6c0,0.4,0,0.8,0.1,1.2c0,0.1,0,0.2,0,0.4c0,0.3,0.1,0.5,0.1,0.8
		c0,0.1,0,0.1,0,0.2c-12.2,0.9-23.1,2.8-30.3,5.5l0-0.2c-8.3,1.9-15.5,4.1-17.3,6.6c-4.4,6.1-11.1,69.8-3,79.3
		c0.2,5.6,0.4,10.8,0.6,15.5c-4.2,0.7-4,7.4,0.3,7.3c0.1,1.2,0.1,2.4,0.2,3.5c1.2,23.5,0.2,54.8-0.5,70.8c-2.1,1.9-4.2,4.7-0.3,5.7
		c0,1-0.1,1.8-0.1,2.5c-1.8,1.9-2.2,9.5-2.2,9.5S0.8,378,3.7,363.4c2.9-14.7,4.3-13.2,3,4.4c-0.7,9,0.9,4.1,2.8-2
		c0,7.1,0.3,12.7,1.8,5.1c2.9-14.7,4.3-13.2,3,4.4c-0.7,8.8,0.8,4.3,2.7-1.7c0.6,1.6,1.1,0.9,1.4-4.5c1.4-4.6,2.7-8.4,3.1-6.2
		c0.9,5,3.9,34.1,4.6,8.7c1.9,6.3,1.4,1.5,0.1-6.1c0-1.8,0-3.8,0-6c0,0-3.4-20.9,5.2,11.9s-1.8-20.6-2.5-23.3
		c-0.6-2.3,7.3,10.7,7.9,10.1c0.3,10.3,0.5,21,0.4,30.9c-0.1,4.3-0.2,8.3-0.2,11.8c0,0,0,0,0,0.1c-0.1,5-0.1,8.4,0.1,10.6
		c-1.5,1.8-1.1,4.9,1,5.8c1.7,21.2,0.1,80.1-0.4,95.3c-5.6,1-3.9,7.4-0.4,7.6c0,0.1,0,0.1,0,0.2c0,0.3,0,0.4,0,0.4s0.1,0,0.1,0
		c-1.5,5.7-3.7,9.3-4.5,12.1c-0.1,0.3-0.2,0.6-0.2,0.9c-0.1,0.3-0.1,0.6-0.1,0.8c0,0.1,0,0.1,0,0.2c-0.6,0-1,0-1,0
		c-0.6,0.4-1.1,0.9-1.3,1.4c-0.9-1-3.1-0.8-3.1-0.8c-4.1,2.8,8.9,15,10.6,11c0,0,0,0,0,0c1,1.7,3.6,2.5,4.8-0.1c0-0.1,0-0.1,0.1-0.2
		c0.3,0.2,0.7,0.3,1.1,0.5c1,1.3,2.7,1.9,4.1,1c1.3,0.2,2.6,0.3,4.1,0.5c0.3,0,0.6,0,0.8-0.1c0.6,0.1,1.2,0.1,1.8-0.2
		c1.3-0.2,2.4-0.3,3.4-0.6c1.6,1,4.7,0.8,4.7,0.8s7.6-0.1,7-2.5c-0.4-1.5-3.2-4.3-6.3-4.8c0,0,0,0,0-0.1c-0.8-2.7-3.1-6.4-4.5-12.1
		c0.1,0,0.1,0,0.1,0c0,0,0-0.1,0-0.4c0-0.1,0-0.3,0-0.5c0-0.8,0-2.2-0.1-4c-0.1-0.2-0.1-0.5-0.2-0.9l-0.1,0
		c-0.5-10-2.3-50.3-0.8-78.9c1.2-23.7,2.8-75.9,4.7-105c4.9,1.3,10.3,2.1,16.2,2.2c4.7,0.1,8.8,0,12.5-0.3c1.6,29.9,3,74.3,4.1,95.6
		c1.5,28.6-0.3,68.9-0.8,78.9l-0.2,0c0,0.4-0.1,0.7-0.2,0.9c0,1.8-0.1,3.2-0.1,4c0,0.2,0,0.3,0,0.5c0,0.3,0,0.4,0,0.4s0.1,0,0.1,0
		c-1.5,5.7-3.7,9.3-4.5,12.1c0,0,0,0,0,0.1c-3.1,0.6-5.9,3.3-6.3,4.8c-0.6,2.4,7.9,6,7.5,7.5c-0.6,2.4,7,2.5,7,2.5s3,0.2,4.7-0.8
		c1,0.2,2.2,0.4,3.4,0.6c0.6,0.3,1.2,0.3,1.8,0.2c0.3,0,0.6,0,0.8,0.1c1.5-0.1,2.9-0.3,4.1-0.5c1.4,0.9,3.1,0.3,4.1-1
		c0.4-0.1,0.8-0.3,1.1-0.5c0,0.1,0,0.1,0.1,0.2c1.2,2.6,3.8,1.8,4.8,0.1c0,0,0,0,0,0c1.8,4,7.3-0.7,3.1-3.5c0,0-2.2-0.2-3.1,0.8
		c-0.3-0.5-0.7-1-1.3-1.4c0,0-0.4,0-1,0c0-0.1,0-0.1,0-0.2c0-0.3-0.1-0.5-0.1-0.8c-0.1-0.3-0.1-0.6-0.2-0.9
		c-0.1-0.3-0.2-0.5-0.3-0.8c1.1-1,1.4-2.9-0.7-4.3c0,0-0.5,0-1.1,0c-0.8-1.9-1.7-4.2-2.4-7c0.1,0,0.1,0,0.1,0c0,0,0-0.1,0-0.4
		c0-0.1,0-0.2,0-0.3c5.5-1.1,3.5-7.9-0.2-7.6c-0.5-15.3-2.1-74.2-0.4-95.3c3.3-1.3,2.9-5,1-6.6c0.1-2.2,0.2-5.4,0-9.8c0,0,0,0,0-0.1
		c0-3.5-0.1-7.5-0.2-11.8c-0.1-21.2,0.9-46.1,1.7-63.2c2.8-2.3,3-4.3,3-4.3c2-3.7,3.2-7.3,3.6-10.7c0.1,0,0.2,0,0.2,0
		s0.3-5,0.4-11.4c0.5-0.1,0.9-0.3,1.3-0.6c-0.3,13.9-0.6,24.9-0.7,27.8l0,0c0,0-15.2,21.2-3.1,24.2c0.3,0.1,0.7,0.2,1,0.2
		c0.1,0,0.2,0,0.3,0.1c0.2,0,0.4,0.1,0.6,0.1c0.1,0,0.2,0,0.4,0.1c0.2,0,0.3,0,0.4,0.1c0.1,0,0.1,0,0.2,0c-0.2,3.3,0.9,6,4.6,6.9
		c0.3,0.1,0.7,0.2,1,0.2c0.1,0,0.2,0,0.3,0.1c0.2,0,0.4,0.1,0.6,0.1c0.1,0,0.2,0,0.4,0.1c0.2,0,0.3,0,0.4,0.1c0.1,0,0.2,0,0.4,0
		c0.1,0,0.2,0,0.3,0c0.3,0,0.6,0,0.8,0.1c0,0,0.1,0,0.1,0c0.2,0,0.3,0,0.4,0c0,0,0.1,0,0.1,0c0.1,0,0.3,0,0.4,0c0,0,0,0,0,0
		c0,0,0,0,0,0c0,0.2,0,0.4,0,0.6c0,0.1,0,0.2,0,0.3c0,0.2,0,0.4,0,0.5c0,0.1,0,0.2,0,0.2c0,0.6,0,1.1,0.1,1.5c0,0.1,0,0.1,0,0.2
		c0,0.1,0,0.3,0.1,0.4c0,0,0,0.1,0,0.1c0.1,0.4,0.2,0.7,0.3,1c0,0,0,0.1,0,0.1c0,0.1,0.1,0.2,0.1,0.2c0,0,0,0,0,0.1
		c0.1,0.2,0.2,0.3,0.3,0.4c0,0,0,0,0,0c0.1,0.1,0.1,0.1,0.2,0.1c0,0,0,0,0.1,0c0.1,0,0.1,0.1,0.2,0.1c0,0,0,0,0,0
		c0.1,0.1,0.3,0.1,0.4,0.1c0,0,0,0,0,0c0.1,0,0.1,0,0.2,0c0,0,0,0,0.1,0c0.1,0,0.1,0,0.2,0c0,0,0,0,0,0c0.2,0,0.3,0,0.5-0.1
		c0,0,0,0,0,0c0.1,0,0.1,0,0.2-0.1c0,0,0,0,0.1,0c0.3-0.1,0.7-0.3,1-0.4c0,0,0,0,0,0c0.6-0.3,1.1-0.8,1.6-1.1l0.9,0.4
		c2.5,4.7,5.6,1,6.9-1c0,0,0,0,0-0.1c0,0,0.1-0.1,0.1-0.1c0,0,0-0.1,0.1-0.1c0,0,0-0.1,0.1-0.1c0,0,0-0.1,0.1-0.1c0,0,0-0.1,0.1-0.1
		c0,0,0,0,0,0l0.1,1.3c0,0,0,0,0,0c0.2,0.1,0.3,0.2,0.5,0.2c0,0,0.1,0,0.1,0.1c0.1,0,0.2,0.1,0.3,0.1c0,0,0.1,0,0.1,0
		c0.1,0,0.3,0.1,0.4,0.1c0,0,0,0,0,0c0.1,0,0.2,0,0.4,0c0,0,0.1,0,0.1,0c0.1,0,0.2,0,0.3,0c0,0,0.1,0,0.1,0c0.1,0,0.2,0,0.3-0.1
		c0,0,0,0,0,0c0.1,0,0.2-0.1,0.3-0.1c0,0,0,0,0.1,0c0.1,0,0.1-0.1,0.2-0.1c0,0,0,0,0,0c0.1-0.1,0.1-0.1,0.2-0.2c0,0,0,0,0,0
		c0.1-0.1,0.1-0.1,0.2-0.2c0,0,0,0,0-0.1c0-0.1,0.1-0.1,0.1-0.2c0,0,0,0,0-0.1c0-0.1,0.1-0.2,0.1-0.3c0,0,0,0,0,0
		c0-0.1,0.1-0.2,0.1-0.3c0,0,0-0.1,0-0.1c0-0.1,0-0.2,0.1-0.3c0,0,0,0,0-0.1c0-0.1,0-0.2,0.1-0.3c0,0,0,0,0-0.1c0-0.1,0-0.2,0-0.3
		c0,0,0-0.1,0-0.1c0-0.1,0-0.2,0-0.3c0,0,0-0.1,0-0.1c0-0.1,0-0.2,0-0.3c0,0,0-0.1,0-0.1c0-0.1,0-0.1,0-0.2c0-0.1,0-0.1,0-0.2
		c0-0.1,0-0.1,0-0.2c0-0.1,0-0.1,0-0.2c0,0,0-0.1,0-0.1c0-0.1,0-0.3,0-0.4c0,0,0-0.1,0-0.1c0-0.1,0-0.2,0-0.2c0,0,0,0,0,0
		c0-0.2,0-0.3-0.1-0.5c0,0.1,0.1,0.2,0.2,0.3c0,0,0,0,0.1,0.1c0,0.1,0.1,0.1,0.1,0.2c0.1,0,0.1,0.1,0.2,0.1c0,0,0.1,0.1,0.1,0.1
		c0.1,0.1,0.2,0.1,0.3,0.2c0,0,0.1,0,0.1,0.1c0.1,0.1,0.3,0.1,0.4,0.2c0,0,0.1,0,0.1,0c0.2,0.1,0.3,0.1,0.5,0.1c0,0,0.1,0,0.1,0
		c0.2,0,0.4,0.1,0.7,0.1c0,0,0.1,0,0.1,0c0.3,0,0.5,0.1,0.8,0.1c0,0,0,0,0.1,0c0.3,0,0.6,0,1,0C162.4,367.3,153.7,351.2,149.1,343.2
		z M36.2,356.3c-3-7.7-4.7-9.7-10.4-15.6l-0.1,0c-0.2-5.9-0.8-26.2-1.1-47.3c0.7,0.4,1.5,0.6,2.4,0.6c0.1,3.7,0.3,7,0.4,9.4
		c0,0.9,0.1,1.7,0.2,2.6c0,0.3,0.1,0.6,0.1,0.7c0,0,0,0,0,0c0.9,4.9,3.4,9.5,7.3,13.5c0.5,9.7,1.1,23.2,1.5,37.4
		C36.6,357.4,36.5,357,36.2,356.3z"/>
	<g>
		<path class="st1" d="M20.3,157.8c0,0,1.2,6.3,57.2,8.8s79.3-12.5,44-24.1C86.2,130.9-6.8,137.5,20.3,157.8z"/>
		<path class="st1" d="M117.2,273.6l-90.8-3.4c0,0,0.5,24.1,1.1,33.2c0,0.9,0.1,1.7,0.2,2.6c0,0.3,0.1,0.6,0.1,0.7c0,0,0,0,0,0
			c2.5,13.9,18.4,26.2,43.5,26.6c40.9,0.7,42.1-11.8,42.1-11.8c2-3.7,3.2-7.3,3.6-10.7c0.1,0,0.2,0,0.2,0S118.7,280.9,117.2,273.6z"
			/>
		<g>
			<path class="st1" d="M34.3,305.4c0,0,3,47.2,2.8,83.7c-0.1,4.3-0.2,8.3-0.2,11.8c0,0,0,0,0,0.1c-0.3,8.9,0.1,12.9,0.8,13.8
				c2.4,21.1-0.2,101.5-0.2,101.5l13.8,1.2c0,0-2.6-48.3-0.9-81.2c1.7-32.9,4.1-121,7-125.5"/>
			<path class="st1" d="M51.3,515.3l-6.9-0.6l-6.9,0.6c0,0.4-0.1,0.7-0.2,0.9c0,1.8-0.1,3.2-0.1,4c0,0.2,0,0.3,0,0.5
				c0,0.3,0,0.4,0,0.4c0,0,0.1,0,0.1,0c-1.5,5.7-3.7,9.3-4.5,12.1c-0.1,0.3-0.2,0.6-0.2,0.9c-0.1,0.3-0.1,0.5-0.1,0.8
				c0,0.5,0,1,0.2,1.5c0.2,0.5,0.5,0.9,0.9,1.3c0.2,0.2,0.5,0.4,0.7,0.6c1.7,1.3,5.4,2,10.1,2.3c4.6-0.4,8.3-1,10.1-2.3
				c0.3-0.2,0.5-0.4,0.7-0.6c0.4-0.4,0.7-0.9,0.9-1.3c0.2-0.5,0.2-0.9,0.2-1.5c0-0.3-0.1-0.5-0.1-0.8c-0.1-0.3-0.1-0.6-0.2-0.9
				c-0.8-2.7-3.1-6.4-4.5-12.1c0.1,0,0.1,0,0.1,0c0,0,0-0.1,0-0.4c0-0.1,0-0.3,0-0.5c0-0.8,0-2.2-0.1-4
				C51.4,515.9,51.4,515.6,51.3,515.3z"/>
			<g>
				<g id="XMLID_2801_">
					<path id="XMLID_2802_" class="st1" d="M44.2,533c0,0,7.3-0.7,4.7,5.2C46.3,544.1,38.1,537.1,44.2,533z"/>
				</g>
				<g id="XMLID_2799_">
					<path id="XMLID_2800_" class="st1" d="M31.5,534.9c0,0,5.5-0.5,3.5,3.9S26.9,538,31.5,534.9z"/>
				</g>
				<path id="XMLID_2798_" class="st1" d="M55.2,540.5c0,0-8.7,0.6-4.7-5.1c4-5.6,11.1,0.1,11.7,2.5
					C62.8,540.4,55.2,540.5,55.2,540.5z"/>
				<g id="XMLID_2796_">
					<path id="XMLID_2797_" class="st1" d="M37.4,534c0,0,6.4-0.6,4.1,4.5C39.2,543.7,32.1,537.6,37.4,534z"/>
				</g>
				<g id="XMLID_2794_">
					<path id="XMLID_2795_" class="st1" d="M26.3,535.5c0,0,4.9-0.5,3.1,3.5C27.7,542.9,22.2,538.2,26.3,535.5z"/>
				</g>
			</g>
			<path id="XMLID_2793_" class="st1" d="M45.9,407.7c0,0,1.9,0.1,1.9,1.6"/>
			<path id="XMLID_2792_" class="st1" d="M42.9,421.3c0,0-2.2-0.7-2.3-1.2"/>
			<g id="XMLID_2790_">
				<path id="XMLID_2791_" class="st1" d="M39.8,519.4c-5,4.1-9.2-5.8-1.8-6.7"/>
			</g>
			<g id="XMLID_2788_">
				<path id="XMLID_2789_" class="st1" d="M40.6,417.5c-6.2,1.7-6.1-9,1-6.9"/>
			</g>
		</g>
		<g>
			<path class="st1" d="M111.5,305.4c0,0-3,47.2-2.8,83.7c0.1,4.3,0.2,8.3,0.2,11.8c0,0,0,0,0,0.1c0.3,8.9-0.1,12.9-0.8,13.8
				c-2.4,21.1,0.2,101.5,0.2,101.5l-13.8,1.2c0,0,2.6-48.3,0.9-81.2c-1.7-32.9-4.1-121-7-125.5"/>
			<path class="st1" d="M108.2,515.3l-6.9-0.6l-6.9,0.6c0,0.4-0.1,0.7-0.2,0.9c0,1.8-0.1,3.2-0.1,4c0,0.2,0,0.3,0,0.5
				c0,0.3,0,0.4,0,0.4c0,0,0.1,0,0.1,0c-1.5,5.7-3.7,9.3-4.5,12.1c-0.1,0.3-0.2,0.6-0.2,0.9c-0.1,0.3-0.1,0.5-0.1,0.8
				c0,0.5,0,1,0.2,1.5c0.2,0.5,0.5,0.9,0.9,1.3c0.2,0.2,0.5,0.4,0.7,0.6c1.7,1.3,5.4,2,10.1,2.3c4.6-0.4,8.3-1,10.1-2.3
				c0.3-0.2,0.5-0.4,0.7-0.6c0.4-0.4,0.7-0.9,0.9-1.3c0.2-0.5,0.2-0.9,0.2-1.5c0-0.3-0.1-0.5-0.1-0.8c-0.1-0.3-0.1-0.6-0.2-0.9
				c-0.8-2.7-3.1-6.4-4.5-12.1c0.1,0,0.1,0,0.1,0c0,0,0-0.1,0-0.4c0-0.1,0-0.3,0-0.5c0-0.8,0-2.2-0.1-4
				C108.3,515.9,108.2,515.6,108.2,515.3z"/>
			<g>
				<g id="XMLID_2786_">
					<path id="XMLID_2787_" class="st1" d="M101.4,533c0,0-7.3-0.7-4.7,5.2C99.4,544.1,107.5,537.1,101.4,533z"/>
				</g>
				<g id="XMLID_2784_">
					<path id="XMLID_2785_" class="st1" d="M114.1,534.9c0,0-5.5-0.5-3.5,3.9C112.6,543.2,118.7,538,114.1,534.9z"/>
				</g>
				<path id="XMLID_2783_" class="st1" d="M90.5,540.5c0,0,8.7,0.6,4.7-5.1c-4-5.6-11.1,0.1-11.7,2.5
					C82.8,540.4,90.5,540.5,90.5,540.5z"/>
				<g id="XMLID_2781_">
					<path id="XMLID_2782_" class="st1" d="M108.2,534c0,0-6.4-0.6-4.1,4.5C106.5,543.7,113.6,537.6,108.2,534z"/>
				</g>
				<g id="XMLID_2779_">
					<path id="XMLID_2780_" class="st1" d="M118.6,535.5c0,0-4.9-0.5-3.1,3.5C117.2,542.9,122.7,538.2,118.6,535.5z"/>
				</g>
			</g>
			<path id="XMLID_2778_" class="st1" d="M98.3,407.7c0,0,1-1.6,2.3-0.9"/>
			<path id="XMLID_2777_" class="st1" d="M103.8,420.1c0,0-2.2-0.7-2.3-1.2"/>
			<g id="XMLID_2775_">
				<path id="XMLID_2776_" class="st1" d="M106,513.7c5-4.1,9.2,5.8,1.8,6.7"/>
			</g>
			<g id="XMLID_1765_">
				<path id="XMLID_2774_" class="st1" d="M104.5,411c5-4.1,9.2,5.8,1.8,6.7"/>
			</g>
		</g>
		<g>
			<g id="XMLID_1763_">
				<path id="XMLID_1764_" class="st1" d="M135.6,244.7c5-4.1,9.2,5.8,1.8,6.7"/>
			</g>
			<path id="XMLID_1762_" class="st1" d="M141.7,178.8c-1.2,27.4-2.3,59.1-3.2,76.2c-1.7,32.9,0.9,81.2,0.9,81.2l-13.8-1.2
				c0,0,2.8-85.4,0-103.3c-1.9-11.9,1-53.5,2.4-81.7"/>
			<path id="XMLID_1761_" class="st1" d="M133.1,244.9c0,0,1.9,0.1,1.9,1.6"/>
			<path id="XMLID_1760_" class="st1" d="M132.5,250.2c0,0-2.2-0.7-2.3-1.2"/>
			<g id="XMLID_1719_">
				<path id="XMLID_1759_" class="st2" d="M122.5,358.5c2.4,0.6,4.1,0.8,5.2,0.6c-0.7,8.8,3.6,6.2,5.7,4.5l0.9,0.4
					c2.8,5.2,6.2,0.1,7.2-1.6l0.1,1.3c4.6,2.3,4.4-2.6,3.9-5.3c0.5,0.8,1.6,1.6,4.8,1.6c6-0.1-11.5-28.7-11.5-28.7l-13.3,3.1
					C125.6,334.3,110.4,355.4,122.5,358.5z"/>
				<path id="XMLID_1758_" class="st1" d="M125.6,334.3c0,0-15.2,21.2-3.1,24.2c2.4,0.6,4.1,0.8,5.2,0.6c-0.7,8.8,3.6,6.2,5.7,4.5
					l0.9,0.4c2.8,5.2,6.2,0.1,7.2-1.6l0.1,1.3c4.6,2.3,4.4-2.6,3.9-5.3c0.5,0.8,1.6,1.6,4.8,1.6c6-0.1-11.5-28.7-11.5-28.7"/>
				<g id="XMLID_1750_">
					<g id="XMLID_1752_">
						<path id="XMLID_1757_" class="st3" d="M138.9,331.2c0,0,17.5,28.6,11.5,28.7s-5-2.9-5.1-3.1c0,0,2.5,10-3.6,6.9"/>
						<path id="XMLID_1756_" class="st3" d="M141.8,361.9c0,0-4.3,8.6-7.7,1.8"/>
						<path id="XMLID_1755_" class="st3" d="M125.6,334.3c0,0-15.2,21.2-3.1,24.2c12.1,3.1,6.1-5.4,2.6-5.1"/>
						<path id="XMLID_1753_" class="st3" d="M134.5,362.6c0,0-8,8.5-6.6-4.5l0.4-6.5"/>
					</g>
					<path id="XMLID_1751_" class="st3" d="M136.8,330.4c0,0,8.2-8.3,0-8.9"/>
				</g>
				<path id="XMLID_1749_" class="st1" d="M133.8,351.2c0,0-0.4,4,0.3,6.1"/>
				<path id="XMLID_1748_" class="st1" d="M140.3,355.9c0,0,0.1,2.9,0.7,2.9"/>
				<path id="XMLID_1747_" class="st3" d="M140.9,344.5c0.6,1.8,3,5.7,3,5.7"/>
			</g>
		</g>
		<g>
			<g id="XMLID_1717_">
				<path id="XMLID_1718_" class="st1" d="M6.4,251.2c-6.2,1.7-6.1-9,1-6.9"/>
			</g>
			<path id="XMLID_1716_" class="st1" d="M2.8,190.7c1,24.2,1.9,49.6,2.7,64.2c1.7,32.9-0.9,81.2-0.9,81.2l13.8-1.2
				c0,0-2.8-85.4,0-103.3c1.5-9.4,0-37.3-1.4-62.5"/>
			<g id="XMLID_1714_">
				<path id="XMLID_1715_" class="st1" d="M18.3,333.3c5.7,5.9,7.4,7.9,10.4,15.6s-8.1-11-7.4-8.3c0.7,2.7,11.1,56.1,2.5,23.3
					S18.5,352,18.5,352c0,45-3.6,9-4.7,3.4c-1.1-5.6-8.5,30-7.1,12.4s0-19.1-3-4.4c-2.9,14.7-1.4-19.9-1.4-19.9s0.7-10.8,3.4-9.9"/>
			</g>
			<path id="XMLID_1713_" class="st1" d="M10.5,244.7c0,0,2.3,0.5,2.4,1"/>
			<path id="XMLID_1712_" class="st1" d="M10.2,250.1c0,0-1.8,0.3-2.2-1.1"/>
			<path id="XMLID_1711_" class="st3" d="M7.4,323.8c0,0-11.1,7.5,0,8.1"/>
		</g>
		<g>
			<path id="XMLID_1710_" class="st1" d="M24.6,142.7c-8.3,1.9-15.5,4.1-17.3,6.6c-4.7,6.5-12.1,79.8-1,80.5s12.7,0.3,12.6-3.7
				c-0.1-4,6.2-49.9,4.5-53.5"/>
			<path id="XMLID_1709_" class="st1" d="M121.9,172.3c-1.8,3.5,3.3,49.6,3.1,53.6c-0.2,4,1.3,4.5,12.5,4s5.7-73.8,1.2-80.5
				c-1.6-2.3-7.8-4.6-15.3-6.6"/>
			<path class="st2" d="M24.5,146.5c-6,6.1-4.3,14.3-4.3,14.3s2.2,86.9,0.9,97.7c-1.2,10.2-4,36,6.5,35.3c0.8,0,1.6-0.2,2.5-0.5
				c1,0,4.5,0,9.6,0.1l63.1,3.3c4.1,0.6,7.5,1.3,9.6,2.1c1.4,0.5,2.7,0.7,3.8,0.7c10.5,0.1,7.5-23.6,6.4-35.2
				c-1.2-12.8,4-107.7,4-107.7l-0.5,4.2c0.1-2.7,0.2-4.2,0.2-4.2s-0.2-5.3-0.9-7.9c-0.2-0.8-0.6-1.6-1.2-2.3"/>
			<g>
				<path class="st4" d="M29.8,293.6c-13.1,4.6-10-23.8-8.7-34.5c1.3-10.7-0.9-97-0.9-97"/>
				<path class="st4" d="M102.9,297c-17.2-2.5-48.1-3.1-63.6-3.3"/>
				<path class="st4" d="M126.2,158c0,0-5.2,94.2-4,106.8c1.2,12.7,4.8,39.6-9.8,34.2c-0.9-0.3-1.9-0.6-3.2-0.9"/>
			</g>
			<path id="XMLID_1708_" class="st1" d="M118.3,203.8c0,0-7.1,76.5-4.2,87.7"/>
			<path id="XMLID_1707_" class="st1" d="M26,240.4c0,0,2.2-76.8-1.4-87.8"/>
			<g>
				<g>
					<path id="XMLID_1706_" class="st1" d="M111.4,159c0,0,1.4,1.1,0.6,2.4"/>
					<path id="XMLID_1705_" class="st1" d="M101.2,158.4c0,0-2,1-2.6,1.9"/>
					<path id="XMLID_1704_" class="st1" d="M111.7,168c0,0,0.6-2.2,0.3-3.3"/>
					<path id="XMLID_1703_" class="st1" d="M100.7,174.9c0,0,2.1,0.8,3.2,0.6"/>
					<path id="XMLID_1702_" class="st1" d="M110.4,173.2c0,0-0.8,1.7-2.1,1.2"/>
					<path id="XMLID_1701_" class="st1" d="M99,164.4c0,0-0.4,1.5-0.8,2"/>
					<line id="XMLID_1700_" class="st1" x1="107" y1="158" x2="104.8" y2="157.9"/>
					<path id="XMLID_1699_" class="st1" d="M98.2,170.2c0,0-0.5,2.2-0.1,3.3"/>
				</g>
				<g>
					<path id="XMLID_1698_" class="st1" d="M66.9,318c0,0-1.3-2.4-0.3-3.8"/>
					<path id="XMLID_1690_" class="st1" d="M70.1,307.9c0,0-1.6,1.6-1.8,2.7"/>
					<path id="XMLID_1589_" class="st1" d="M69.2,321.9c0,0,0.7,2.2,1.5,2.9"/>
				</g>
			</g>
			<path class="st1" d="M21.7,151.4"/>
		</g>
		<path id="XMLID_1588_" class="st1" d="M79.9,149.2c0.7-0.3,1.4-0.8,2-1.8"/>
		<path id="XMLID_1587_" class="st1" d="M54,143.5c0,0,0.2,0.9,0.8,1.8"/>
		<g>
			<path id="XMLID_1586_" class="st2" d="M84.6,133.3c0.2-2.8-0.8-10.9-1-13.6c-0.2-2.4-0.5-4.5-1-6.2C91.9,97.7,66.2,79.4,57,99.9
				c-2.9,6.4-2.5,18.7-2.4,20.8c0.1,2.7,0.1,11.9,0.1,14.3c0.1,13.3,19.8,23.9,27.6,6.5"/>
			<path id="XMLID_1585_" class="st4" d="M57.1,142.9c-1.5-2.3-2.4-5.1-2.4-7.9c0-2.4-0.1-11.6-0.1-14.3c-0.1-2.1-0.4-14.5,2.4-20.8
				c9.2-20.4,34.9-2.2,25.6,13.7c0.5,1.7,0.9,3.8,1,6.2c0.2,2.6,1.1,10.7,1,13.6l-2.3,8.2c-0.8,1.7-1.7,3.2-2.7,4.4"/>
			<path id="XMLID_1584_" class="st4" d="M57.1,142.9"/>
			<path id="XMLID_1583_" class="st4" d="M76.1,149c-5.2,3-11.5,1.4-15.9-2.6"/>
		</g>
		<g>
			<g id="XMLID_1572_">
				<g id="XMLID_1573_">
					<path id="XMLID_1582_" class="st1" d="M69.8,15.4c0,0,42.1,3,36.2,52.7c-5.9,49.6-4.3,58.7-28,63.8s-36.7-12.3-39.3-25.5
						C36,93,17,21.9,69.8,15.4z"/>
					<path id="XMLID_1581_" class="st1" d="M59.6,128.4c0,0-4.5,5,5.9,6.1c10.5,1.1,17-2.2,14.6-5.9"/>
					<path id="XMLID_1580_" class="st1" d="M102.5,73.4c0,0,15.6-17.3,14.7-2.8S111,100.3,106,97.9s-4.7-6.7-4.7-6.7"/>
					<path id="XMLID_1579_" class="st1" d="M106.9,74.8c0,0,6.2-8,7.2-3.9"/>
					<path id="XMLID_1578_" class="st1" d="M104.4,80.5c0,0,8.2-1.4,6.6,3.1c-1.6,4.5-4.7,7.4-5.7,2.1"/>
					<g id="XMLID_1574_">
						<path id="XMLID_1577_" class="st1" d="M37.6,75.3c0,0-14-18.6-14.4-4.1s3.6,30.2,8.8,28.2c5.2-2,5.2-6.3,5.2-6.3"/>
						<path id="XMLID_1576_" class="st1" d="M33,76.3c0,0-5.5-8.5-6.8-4.5"/>
						<path id="XMLID_1575_" class="st1" d="M35.1,82.2c0,0-8.1-2.1-6.9,2.6c1.2,4.7,4,7.8,5.5,2.6"/>
					</g>
				</g>
			</g>
			<path id="XMLID_1571_" class="st1" d="M47.2,42.2c0,0,29.2-2.8,18.7,20.7S22.6,58.6,47.2,42.2z"/>
			<path id="XMLID_1570_" class="st1" d="M43.2,56c0,0,4.4-1.8,3.9,2.8S40.2,59.9,43.2,56z"/>
			<path id="XMLID_1569_" class="st1" d="M79.7,43.4c0,0-21.5,18.9,5.3,27.5S103,33.8,79.7,43.4z"/>
			<path id="XMLID_1568_" class="st1" d="M93.4,57.8c0,0,4.4-1.8,3.9,2.8S90.4,61.7,93.4,57.8z"/>
			<path id="XMLID_1567_" class="st1" d="M81.4,37.6c0,0-9.9,1.1-2.8,8.1s20.6,0.2,19.9-2.2C97.7,41,96.5,36.9,81.4,37.6z"/>
			<path id="XMLID_1566_" class="st1" d="M52.7,37.5c0,0-15.2-0.9-8.2,7.6s19.5-0.2,20.5-3.8C66.1,37.7,52.7,37.5,52.7,37.5z"/>
			<path id="XMLID_1564_" class="st1" d="M45.6,67.3c0,0-4.2,0.6-2.4,2.6c1.9,2,2.8-0.5,5.9,1.1"/>
			<path id="XMLID_1563_" class="st1" d="M98,67.2c0,0,4.2,0.6,2.4,2.6c-1.9,2-2.8-0.5-5.9,1.1"/>
			<path id="XMLID_1562_" class="st1" d="M93.3,66.8c0,0-9.8-0.7-15.7,0.8"/>
			<path id="XMLID_1561_" class="st1" d="M50.4,66.4c0,0,5.8-1.1,12.2,0.9"/>
			<g>
				<path id="XMLID_1560_" class="st1" d="M76.4,78.3c0,0-7.7-9.6-7.5-15"/>
				<g id="XMLID_1557_">
					<path id="XMLID_1559_" class="st1" d="M62.9,79.4c0.3,2.5,1.1,4.3,2.8,4.6c0.9,0.2,1.7,0.1,2.3,0c0.5-0.1,1-0.3,1.3-0.5"/>
					<path id="XMLID_1558_" class="st1" d="M71.2,48.8c0,0-5.9,15.7-7.6,26.9"/>
				</g>
				<g id="XMLID_1232_">
					<path id="XMLID_1556_" class="st1" d="M60.1,80.7c0,0-5.7,6.6,3.5,8.5"/>
					<path id="XMLID_1459_" class="st1" d="M75.8,80.7c0,0,6.1,5-2.5,8.5"/>
					<path id="XMLID_1235_" class="st1" d="M71.3,84.8c0.9,0.2,2.1-1.5,3.1,0c1,1.5-0.1,1.1-1.4,1.4C71.8,86.6,70.5,84.6,71.3,84.8z
						"/>
					<path id="XMLID_1234_" class="st1" d="M62.7,87.1c-1.7-0.1-2.1-1.5-1.2-2.2c0.3-0.3,1.3,0.2,2.2,0.7
						C64.4,86.1,62.7,87.1,62.7,87.1z"/>
					<path id="XMLID_1233_" class="st1" d="M68.8,77.2c0,0,1.8,0,2.2,0.6"/>
				</g>
			</g>
			<g>
				<g id="XMLID_1137_">
					<path id="XMLID_1141_" class="st1" d="M58.3,97.9c0,0-15.6,3-6.5,8.1S58.3,97.9,58.3,97.9z"/>
					<path id="XMLID_1140_" class="st1" d="M55.7,93.4c0,0-13,0.1-6.6,6.4s16.6-1.1,17.3-4S55.7,93.4,55.7,93.4z"/>
					<path id="XMLID_1139_" class="st1" d="M81.7,95.3c0,0-6.4-1.7-4.9,6.2c1.5,7.9,12.4,5.9,12.9,3.6
						C90.3,102.7,91.1,98.8,81.7,95.3z"/>
					<path id="XMLID_1138_" class="st1" d="M76.2,93.5c0,0-18.5-1.2,0.1,6.5S97.3,95,76.2,93.5z"/>
				</g>
				<g id="XMLID_1092_">
					<path id="XMLID_1095_" class="st1" d="M60.7,104.9c0,0,9.6,9.5,15,0"/>
					<path id="XMLID_1094_" class="st1" d="M62.9,103.4c0,0,2.7-2.8,4.6,0"/>
					<path id="XMLID_1093_" class="st1" d="M72.1,103.4c0,0-2.7-2.8-4.6,0"/>
				</g>
			</g>
			<g>
				<path id="XMLID_1091_" class="st1" d="M80.8,2.8c0,0-5.3,4.6,1.3,6.7S86.6,0.5,80.8,2.8z"/>
				<path id="XMLID_1090_" class="st1" d="M103.5,26c-0.2-1.7-0.9-3.7-2.3-6.4c0,0,0-0.1,0-0.1l0,0c-0.3-0.6-0.6-1.1-1-1.7
					C95.4,10.5,87.7,6.2,80.7,4.1c-30.2-13.5-33.2,15-33.3,25.9c0,1,13.6-0.1,26-3.2c15.7,6.3,30.5,13.4,30.5,13.4
					S105,30.9,103.5,26z"/>
				<path id="XMLID_1089_" class="st1" d="M40,33.9c0,0,16.1-6.5,35-2.4s28.7,8.6,28.7,8.6c-6-20.8-42.7-21-61.1-19.8
					C24.1,21.4,29,28.5,29,28.5S31.8,31.9,40,33.9z"/>
				<path id="XMLID_1088_" class="st1" d="M40,33.9c0,0-31.9-8.8,12.3-10.8s51.4,17,51.4,17S62.8,22.4,40,33.9z"/>
				<path id="XMLID_1087_" class="st1" d="M89.6,8.1c0,0,1.4,1.1,0.6,2.4"/>
				<line id="XMLID_1086_" class="st1" x1="51.9" y1="19.8" x2="52.8" y2="17.8"/>
			</g>
			<path id="XMLID_1085_" class="st1" d="M78.8,74.1c0,0,7.6,5.7,17.5,2.2"/>
			<path id="XMLID_1084_" class="st1" d="M60,74.4c0,0-12.3,2.7-15,1.5"/>
			<path id="XMLID_1083_" class="st1" d="M56.4,84.3c0,0-5,2.5-6.4,3"/>
			<line id="XMLID_1082_" class="st1" x1="41.8" y1="86.4" x2="43.9" y2="87.3"/>
			<path id="XMLID_1081_" class="st1" d="M79.1,83c0,0,5.8,2.8,6.4,2.7"/>
			<path id="XMLID_1080_" class="st1" d="M103.8,58.1c0,0,0.8,1.7-0.5,2.4"/>
			<path id="XMLID_1079_" class="st1" d="M99.3,75.3c0,0-0.4,1.5-0.8,2.1"/>
			<path id="XMLID_533_" class="st1" d="M101,46.7c0,0,0.6-2.9,0-2.9"/>
			<path id="XMLID_532_" class="st1" d="M52,33.4c0,0,2.7,0.4,2.4,0.8"/>
			<path id="XMLID_531_" class="st1" d="M68.6,38.5c0,0,3.2-0.5,3.3-1.1"/>
			<path id="XMLID_530_" class="st1" d="M53.2,117.9c0,0,2.3,0.5,2.4,1"/>
			<path id="XMLID_529_" class="st1" d="M87.8,118.9c0,0-2.1,1-2.7,2"/>
		</g>
		<path id="XMLID_528_" class="st1" d="M59.8,151.3c0.2,0.1,0.5,0.2,0.7,0.3"/>
	</g>
</g>
<path id="XMLID_2_" class="st1" d="M108.7,43.9c0,0-1.8,0.6-2.3-0.8"/>
<path id="XMLID_1_" class="st1" d="M95.7,128.5c0,0,1.6,1.6,2.8,1.9"/>
<path id="XMLID_3_" class="st1" d="M112.2,99.2c0,0,1.6,1.6,2.8,1.9"/>
</svg>
