<?xml version="1.0" encoding="utf-8"?>
<!-- Generator: Adobe Illustrator 23.0.3, SVG Export Plug-In . SVG Version: 6.00 Build 0)  -->
<svg version="1.1" id="Layer_1" xmlns="http://www.w3.org/2000/svg" xmlns:xlink="http://www.w3.org/1999/xlink" x="0px" y="0px"
	 viewBox="0 0 288 310.5" style="enable-background:new 0 0 288 310.5;" xml:space="preserve">
<style type="text/css">
	.st0{opacity:0.1;}
	.st1{fill:#584C4F;}
	.st2{opacity:0.1;enable-background:new    ;}
	.st3{fill:#FFF5DC;}
	.st4{fill:#231F20;}
	.st5{fill:#CE91A4;}
	.st6{fill:#FFFFFF;}
</style>
<g id="Layer_5" class="st0">
</g>
<g id="Layer_3" class="st0">
</g>
<g>
	<g>
		<g>
			<path class="st1" d="M238,110.1c-0.2-4.2-0.7-8.6-1.3-13c-0.6-3.8-1.4-7.7-2.4-11.4c-2-7.1-4.8-14-8.6-20.4
				c-1.9-3.3-4.2-6.6-6.7-9.7c-1.9-2.5-4-4.9-6.2-7.1c-0.1-0.1-0.3-0.2-0.4-0.3l-0.2-0.2c-2.6-2.6-5.5-5.2-8.9-7.8
				c-3.3-2.6-6.7-5-10.2-7.1c-6.4-3.9-13.6-7.1-21.4-9.6c-3.6-1.2-7.4-2.2-11.7-3.2c-2.4-0.6-4.3-1-6.1-1.3
				c-1.4-0.3-2.9-0.5-4.4-0.6c-7.9-1.9-13-2.3-13-2.3C6.9,31.9,53.6,206.7,59.9,239.2c0.8,4,2,8.2,3.5,12.3
				c2,5.2,18.1,29.8,24.5,35.2c2.9,2.5,6.1,4.7,9.5,6.8c13.6,8.2,30.9,12.6,51.9,9.6c2.3-0.3,4.7-0.8,7.2-1.3
				c26.3-5.6,55.1-50.6,57.5-64.4c3.2-18.8,5.7-43.3,9.4-75.6c0.3-0.4,0.7-0.9,1-1.3c0.6-0.8,1.2-1.6,1.8-2.4
				c1.3-1.7,2.2-3.1,2.9-4.5c1.1-1.5,1.9-2.8,2.6-4.1c1.1-2,1.8-4.1,2.5-6c0.6-2,1.2-4.1,1.7-6.4c0.9-4.2,1.6-8.6,1.9-13.5
				C238.2,119.4,238.2,114.8,238,110.1z"/>
		</g>
		<g>
			<line class="st1" x1="224.3" y1="132.5" x2="223.2" y2="163.7"/>
		</g>
		<g class="st0">
			<path class="st1" d="M238.7,111.8c-0.2-4.2-0.7-8.6-1.3-13c-0.6-3.8-1.4-7.7-2.4-11.4c-2-7.1-4.8-14-8.6-20.4
				c-1.9-3.3-4.2-6.6-6.7-9.7c-1.9-2.5-4-4.9-6.2-7.1c-0.1-0.1-0.3-0.2-0.4-0.3l-0.2-0.2c-2.6-2.6-5.5-5.1-8.8-7.8
				c2.2,2.8,4.1,5.7,5.9,8.6c3.7,6.4,6.6,13.2,8.6,20.4c1,3.8,1.9,7.6,2.4,11.4c0.7,4.4,1.1,8.8,1.3,13c0.2,4.7,0.2,9.3-0.1,13.5
				c-0.3,4.9-1,9.3-1.9,13.5c-0.5,2.3-1.1,4.4-1.7,6.4c-0.6,2-1.4,4.1-2.5,6c-0.7,1.3-1.5,2.6-2.6,4.1c-0.7,1.4-1.6,2.8-2.9,4.5
				c-0.6,0.8-1.2,1.6-1.8,2.4c-0.3,0.4-0.7,0.9-1,1.3c-3.7,32.3-6.2,56.9-9.4,75.6c-2.4,13.8-31.2,58.8-57.5,64.4
				c-2.4,0.5-4.8,0.9-7.2,1.3c-21,3-38.2-1.4-51.9-9.6c-0.9-0.5-1.6-1.1-2.5-1.6c3.7,5,7.2,9.4,9.5,11.3c2.9,2.5,6.1,4.7,9.5,6.8
				c13.6,8.2,30.9,12.6,51.9,9.6c2.3-0.3,4.7-0.8,7.2-1.3c26.3-5.6,55.1-50.6,57.5-64.4c3.2-18.8,5.7-43.3,9.4-75.6
				c0.3-0.4,0.7-0.9,1-1.3c0.6-0.8,1.2-1.6,1.8-2.4c1.3-1.7,2.2-3.1,2.9-4.5c1.1-1.5,1.9-2.8,2.6-4.1c1.1-2,1.8-4.1,2.5-6
				c0.6-2,1.2-4.1,1.7-6.4c0.9-4.2,1.6-8.6,1.9-13.5C238.9,121.1,239,116.5,238.7,111.8z"/>
		</g>
		<g class="st0">
			<path class="st1" d="M77.1,257.4C70.8,224.9,24.1,50.1,153.7,34c0,0,5.2,0.4,13,2.3c1.5,0.2,2.9,0.4,4.4,0.6
				c1.8,0.3,3.7,0.7,6.1,1.3c4.3,1,8.1,2.1,11.7,3.2c7.7,2.5,14.9,5.7,21.4,9.6c3.5,2.1,6.9,4.5,10.2,7.1c0,0,0,0,0.1,0.1
				c-0.3-0.4-0.6-0.7-0.8-1.1c-1.9-2.5-4-4.9-6.2-7.1c-0.1-0.1-0.3-0.2-0.4-0.3l-0.2-0.2c-2.6-2.6-5.5-5.2-8.9-7.8
				c-3.3-2.6-6.7-5-10.2-7.1c-6.4-3.9-13.6-7.1-21.4-9.6c-3.6-1.2-7.4-2.2-11.7-3.2c-2.4-0.6-4.3-1-6.1-1.3
				c-1.4-0.3-2.9-0.5-4.4-0.6c-7.9-1.9-13-2.3-13-2.3C7.6,33.6,54.3,208.4,60.7,240.9c0.8,4,2,8.2,3.5,12.3
				c2,5.2,18.1,29.8,24.5,35.2c2.2,1.8,4.6,3.5,7,5.2c-6.6-9.1-13.8-20.5-15.1-23.9C79.1,265.6,77.9,261.4,77.1,257.4z"/>
		</g>
		<g id="XMLID_685_">
			<path class="st1" d="M151.3,297.2c0,0,9.7,13.1-15.7,13.3c-25.4,0.2-40.2-9.3-33.6-17.6"/>
		</g>
		<g>
			<g class="st2">
				<path class="st1" d="M216.1,190.5c-3.6,3-8,10.7-8,10.7l-1.6,23.6l0.3,7c0,0,0,0.4,0.1,1c0.3,1.9,1.3,6,4.7,7.9
					c2.6,1.4,4.5-5.7,5.5-16c1.7-7.5,3-17,3.6-26.5C221.3,188.6,218.9,188.1,216.1,190.5z"/>
			</g>
			<g>
				<path class="st1" d="M206.4,197.8l1,11.6c0,0,0.1,0.6,0.3,1.6c0.8,3.1,3.7,10,13.6,13.1c7.4,2.3,13-9.4,15.9-26.5
					c4.8-12.3,8.7-28.2,10.5-43.8c1.8-15.7-5.1-16.6-13.4-12.6c-10.5,5-23.3,17.7-23.3,17.7"/>
			</g>
			<g id="XMLID_684_">
				<path class="st1" d="M224.3,160.7c0,0,16.3-18.9,18.3-8.7"/>
			</g>
			<g id="XMLID_683_">
				<path class="st1" d="M217.1,174.4c0,0,20.4-2.4,16,8.6c-4.5,11-12.5,17.6-14.2,4.5"/>
			</g>
			<g id="XMLID_682_" class="st0">
				<path class="st1" d="M217.1,174.4c0,0,20.4-2.4,16,8.6c-4.5,11-12.5,17.6-14.2,4.5"/>
			</g>
		</g>
		<g id="XMLID_681_" class="st0">
			<path class="st1" d="M151.3,297.2c0,0,9.7,13.1-15.7,13.3c-25.4,0.2-40.2-9.3-33.6-17.6"/>
		</g>
		<g id="XMLID_680_">
			<path class="st1" d="M123.1,159.9c0,0,11.4,17.9,34.7,18.5"/>
		</g>
		<g id="XMLID_679_">
			<path class="st1" d="M78.2,170.2c0,0-25.6,5.9-31,3.4"/>
		</g>
		<g id="XMLID_671_">
			<g id="XMLID_678_">
				<path class="st1" d="M118.3,165.9c0,0-5.3-19.2-0.9-24.1"/>
			</g>
			<g id="XMLID_675_">
				<g id="XMLID_677_">
					<path class="st1" d="M103.7,162.6c-1.8,0.8-3,1.8-3.9,2.8c-0.7,0.8-1.2,1.7-1.5,2.4"/>
				</g>
				<g id="XMLID_676_">
					<path class="st1" d="M102.3,129.8c0,0-3.7,16.7-4.2,28.4"/>
				</g>
			</g>
			<g id="XMLID_672_">
				<g id="XMLID_674_">
					<path class="st1" d="M86.5,168.6c0,0-15,15.6,13.5,13.7"/>
				</g>
				<g id="XMLID_673_">
					<path class="st1" d="M123.6,168.5c0,0,15.4,14.6-12.1,13.1"/>
				</g>
			</g>
		</g>
		<g id="XMLID_670_">
			<path class="st1" d="M88.2,178.2c0,0,11.5,16.6,33.5-0.2"/>
		</g>
		<g>
			<path class="st1" d="M130.4,213.1c-5.9-5.4-11.5-8.4-16.6-9.8c0.4-0.6,0.9-1.2,1.3-1.9H95.4c0,0,0.6,1.2,1.8,2.6
				c-8.2,3-13.2,9.1-13.2,9.1l-13.5,10.7c0,0,37.3,29.1,73.4,0L130.4,213.1z"/>
		</g>
		<g id="XMLID_669_">
			<path class="st1" d="M85.2,211.1c7.8-5.9,22.6-12.9,40.8-2.2"/>
		</g>
		<g id="XMLID_668_">
			<path class="st1" d="M71,224.4c0,0,37.3,29.1,73.4,0"/>
		</g>
		<g id="XMLID_667_">
			<path class="st1" d="M84.6,225.7c0,0,14.5-9.6,22-1.3c0,0,3.6-12.2,21.6-0.8"/>
		</g>
		<g id="XMLID_666_">
			<path class="st1" d="M93.2,200.7c0,0,11.2,20.6,24.3,0"/>
		</g>
		<g>
			<g id="XMLID_665_">
				<path class="st1" d="M44.2,104.5c0,0,63.7-1.1,43.7,45.2S-7.4,133.9,44.2,104.5z"/>
			</g>
			<g id="XMLID_664_">
				<path class="st1" d="M40.5,136.1c0,0,11.4-3.6,10.1,5.7C49.3,151.1,32.6,144.1,40.5,136.1z"/>
			</g>
			<g id="XMLID_663_">
				<path class="st1" d="M140.5,111c0,0-45.3,36.3,14.5,57.4S191,94.1,140.5,111z"/>
			</g>
			<g id="XMLID_662_">
				<path class="st1" d="M169.1,140.4c0,0,11.4-3.6,10.1,5.7S161.3,148.4,169.1,140.4z"/>
			</g>
			<g id="XMLID_661_">
				<path class="st1" d="M183.1,166.7c0.4,0.1,0.9,0.3,1.3,0.4c1.7,0.5,3.3,0.7,5-1.3c4.2-4.8-5.3-6.3-5.3-6.3l-10.4-0.8
					c0,0-22.2-1.6-35.3,2c0,0,19.3,11,31.2,10.2c1.4-0.1,2.7-0.3,3.8-0.8C174.4,169.8,181.1,166.1,183.1,166.7z"/>
			</g>
			<g id="XMLID_660_">
				<path class="st1" d="M56.4,152.9c0,0,13.8-2.6,29,2.2c0,0-7.5,16.5-32,9c-8-2.5-9.7,2.1-14.1-2.7c-4.4-4.8,5.7-6.3,5.7-6.3
					L56.4,152.9z"/>
			</g>
			<g id="XMLID_659_">
				<path class="st1" d="M135.2,109.7c0,0-25.2-5-6.1-9.7s53.1,7.7,50.8,10S173.8,116.3,135.2,109.7z"/>
			</g>
			<g id="XMLID_658_">
				<path class="st1" d="M60.6,108.8c0,0-39.5,0.9-21.2-8.2s50.7,0.2,53.3,4.1C95.3,108.6,60.6,108.8,60.6,108.8z"/>
			</g>
		</g>
	</g>
	<g>
		<g>
			<path class="st3" d="M238,95.6c-0.2-4.2-0.7-8.6-1.3-13c-0.6-3.8-1.4-7.7-2.4-11.4c-2-7.1-4.8-14-8.6-20.4
				c-1.9-3.3-4.2-6.6-6.7-9.7c-1.9-2.5-4-4.9-6.2-7.1c-0.1-0.1-0.3-0.2-0.4-0.3l-0.2-0.2c-2.6-2.6-5.5-5.2-8.9-7.8
				c-3.3-2.6-6.7-5-10.2-7.1c-6.4-3.9-13.6-7.1-21.4-9.6c-3.6-1.2-7.4-2.2-11.7-3.2c-2.4-0.6-4.3-1-6.1-1.3
				c-1.4-0.3-2.9-0.5-4.4-0.6c-7.9-1.9-13-2.3-13-2.3C6.9,17.4,53.6,192.2,59.9,224.7c0.8,4,2,8.2,3.5,12.3
				c2,5.2,18.1,29.8,24.5,35.2c2.9,2.5,6.1,4.7,9.5,6.8c13.6,8.2,30.9,12.6,51.9,9.6c2.3-0.3,4.7-0.8,7.2-1.3
				c26.3-5.6,55.1-50.6,57.5-64.4c3.2-18.8,5.7-43.3,9.4-75.6c0.3-0.4,0.7-0.9,1-1.3c0.6-0.8,1.2-1.6,1.8-2.4
				c1.3-1.7,2.2-3.1,2.9-4.5c1.1-1.5,1.9-2.8,2.6-4.1c1.1-2,1.8-4.1,2.5-6c0.6-2,1.2-4.1,1.7-6.4c0.9-4.2,1.6-8.6,1.9-13.5
				C238.2,104.8,238.2,100.3,238,95.6z"/>
			<g>
				<path class="st1" d="M239.5,95.6c-1.1-19.6-6.4-38.5-18.4-54.3c-10.8-14.1-25.9-25.1-42.5-31.6c-8.8-3.5-18.1-5.7-27.4-7.3
					c-5.8-1-11.6-3-17.5-2.2C122,1.9,110.5,5,99.9,10.3c-38.7,19.1-52.5,61.6-54.5,102c-1.8,35.4,4.1,70.6,11.5,105.1
					c1.7,7.9,2.9,16.3,6.8,23.5c5.7,10.5,12.8,21.2,20.8,30c10,11,26,17.4,40.5,19.4c15.3,2.2,32.8,0.9,46.1-7.7
					c11.5-7.5,20.8-18.1,28.8-29.2c6.2-8.7,13.3-18.9,15.6-29.5c3.3-15.2,4.4-31.1,6.2-46.4c0.6-5,1.1-9.9,1.7-14.9
					c0.6-5.5,0.3-12.1,3.3-16.8c2.1-3.4,4.7-6.5,6.6-10c2.1-3.9,3.4-8.4,4.3-12.8C239.4,114,239.9,104.8,239.5,95.6
					c-0.1-1.9-3.1-1.9-3,0c0.4,9.5,0,19.1-2.3,28.4c-1.1,4.6-2.7,9-5.3,13c-2,3.2-5.2,6.4-6.8,9.7c-1.5,3.2-1.1,8.7-1.5,12.3
					c-0.6,5.1-1.1,10.1-1.7,15.2c-0.9,8.4-1.9,16.7-3,25.1c-1.4,11.5-2.1,23.4-7.3,33.9c-5.8,11.8-13.7,22.8-22.6,32.5
					c-9.2,10-19.8,18.6-33.5,21c-18.1,3.2-37,1.1-53.1-8.2c-11.8-6.8-19-16.9-26.4-28.1c-2.7-4.1-5.6-8.3-7.7-12.8
					c-2.3-4.9-3.3-10.3-4.4-15.6c-6.2-30.1-12.1-60.1-12.8-91c-0.8-37.6,5.4-80.6,35.5-106.5c7.9-6.8,17.2-12,27-15.6
					C121.3,5,132.8,1.8,144.1,4c18,3.5,35.5,7.4,51.1,17.6c15.9,10.5,28.9,25.3,35.4,43.4c3.5,9.8,5.2,20.2,5.8,30.6
					C236.6,97.5,239.6,97.5,239.5,95.6z"/>
			</g>
		</g>
		<g>
			<line class="st3" x1="224.3" y1="118" x2="223.2" y2="149.2"/>
			<g>
				<path class="st1" d="M222.8,118c-0.4,10.4-0.7,20.8-1.1,31.2c-0.1,1.9,2.9,1.9,3,0c0.4-10.4,0.7-20.8,1.1-31.2
					C225.8,116,222.8,116,222.8,118L222.8,118z"/>
			</g>
		</g>
		<g class="st0">
			<path class="st1" d="M238.7,97.3c-0.2-4.2-0.7-8.6-1.3-13c-0.6-3.8-1.4-7.7-2.4-11.4c-2-7.1-4.8-14-8.6-20.4
				c-1.9-3.3-4.2-6.6-6.7-9.7c-1.9-2.5-4-4.9-6.2-7.1c-0.1-0.1-0.3-0.2-0.4-0.3l-0.2-0.2c-2.6-2.6-5.5-5.1-8.8-7.8
				c2.2,2.8,4.1,5.7,5.9,8.6c3.7,6.4,6.6,13.2,8.6,20.4c1,3.8,1.9,7.6,2.4,11.4c0.7,4.4,1.1,8.8,1.3,13c0.2,4.7,0.2,9.3-0.1,13.5
				c-0.3,4.9-1,9.3-1.9,13.5c-0.5,2.3-1.1,4.4-1.7,6.4c-0.6,2-1.4,4.1-2.5,6c-0.7,1.3-1.5,2.6-2.6,4.1c-0.7,1.4-1.6,2.8-2.9,4.5
				c-0.6,0.8-1.2,1.6-1.8,2.4c-0.3,0.4-0.7,0.9-1,1.3c-3.7,32.3-6.2,56.9-9.4,75.6c-2.4,13.8-31.2,58.8-57.5,64.4
				c-2.4,0.5-4.8,0.9-7.2,1.3c-21,3-38.2-1.4-51.9-9.6c-0.9-0.5-1.6-1.1-2.5-1.6c3.7,5,7.2,9.4,9.5,11.3c2.9,2.5,6.1,4.7,9.5,6.8
				c13.6,8.2,30.9,12.6,51.9,9.6c2.3-0.3,4.7-0.8,7.2-1.3c26.3-5.6,55.1-50.6,57.5-64.4c3.2-18.8,5.7-43.3,9.4-75.6
				c0.3-0.4,0.7-0.9,1-1.3c0.6-0.8,1.2-1.6,1.8-2.4c1.3-1.7,2.2-3.1,2.9-4.5c1.1-1.5,1.9-2.8,2.6-4.1c1.1-2,1.8-4.1,2.5-6
				c0.6-2,1.2-4.1,1.7-6.4c0.9-4.2,1.6-8.6,1.9-13.5C238.9,106.6,239,102,238.7,97.3z"/>
			<g>
				<path class="st1" d="M240.2,97.3c-0.8-14.2-3.6-28.3-10.1-41.1c-6-11.8-14.7-21.6-25-29.9c-1.2-1-3.5,0.3-2.4,1.8
					c16.4,21.6,21.7,51.4,16.4,77.8c-1.3,6.6-3.5,12.1-7,17.8c-1.4,2.3-2.8,4.5-4.5,6.6c-1.6,2.1-1.6,3.6-1.9,6.3
					c-1.4,12.7-2.8,25.5-4.3,38.2c-1.2,10.3-2.5,20.5-4.2,30.8c-1.1,6.4-3.7,12.1-6.9,17.8c-8.9,15.9-21.1,32-36.6,42
					c-10.6,6.9-23.5,8.4-36,8c-13.4-0.5-26.6-4.4-37.7-11.9c-1.2-0.8-2.9,0.8-2.1,2.1c6.8,9.2,14.1,16.2,24.5,21.4
					c9.4,4.7,19.7,7.3,30.1,7.9c10.4,0.6,22.2-0.1,31.8-4.3c7.9-3.4,14.8-9.1,20.9-15.2c11.8-11.7,22.5-26.2,28.9-41.6
					c2.7-6.7,3.3-14.1,4.3-21.3c1.5-10.6,2.7-21.3,3.9-31.9c0.9-7.8,1.8-15.6,2.6-23.4c0.8-7,5.6-11.4,8.9-17.5
					C240.2,125.7,240.8,110.4,240.2,97.3c-0.1-1.9-3.1-1.9-3,0c0.5,12.3,0,25.9-5.2,37.2c-2,4.3-5,8.5-7.9,12.3
					c-3.1,4-2.4,10.8-3,15.8c-2.3,20.5-3.7,41.6-7.8,61.8c-2.7,13.1-12.4,26-20.6,36.1c-5.8,7.1-12.2,13.9-19.6,19.3
					c-7.6,5.6-15.5,8.2-24.9,9.4c-12.8,1.6-25.9,0.5-38-4.2c-12.4-4.8-21.8-12.4-29.7-23.1c-0.7,0.7-1.4,1.4-2.1,2.1
					c9.5,6.4,20.5,10.3,31.9,11.7c11.6,1.5,25.2,1.1,36.2-3.3c17.4-6.9,30.9-23.6,40.9-38.8c4.3-6.5,8.4-13.4,11-20.7
					c2.8-7.8,3.2-16.7,4.2-24.9c1.7-12.7,3.1-25.5,4.5-38.3c0.8-6.9,0.6-14.1,4.6-20c3.6-5.3,6.8-10.4,8.6-16.6
					c8.4-28.4,2.8-63-15.1-86.6c-0.8,0.6-1.6,1.2-2.4,1.8c9.6,7.8,17.9,16.8,23.8,27.8c6.8,12.7,9.7,26.8,10.5,41.1
					C237.3,99.2,240.3,99.2,240.2,97.3z"/>
			</g>
		</g>
		<g class="st0">
			<path class="st1" d="M77.1,242.9c-6.4-32.5-53.1-207.3,76.5-223.4c0,0,5.2,0.4,13,2.3c1.5,0.2,2.9,0.4,4.4,0.6
				c1.8,0.3,3.7,0.7,6.1,1.3c4.3,1,8.1,2.1,11.7,3.2c7.7,2.5,14.9,5.7,21.4,9.6c3.5,2.1,6.9,4.5,10.2,7.1c0,0,0,0,0.1,0.1
				c-0.3-0.4-0.6-0.7-0.8-1.1c-1.9-2.5-4-4.9-6.2-7.1c-0.1-0.1-0.3-0.2-0.4-0.3l-0.2-0.2c-2.6-2.6-5.5-5.2-8.9-7.8
				c-3.3-2.6-6.7-5-10.2-7.1c-6.4-3.9-13.6-7.1-21.4-9.6c-3.6-1.2-7.4-2.2-11.7-3.2c-2.4-0.6-4.3-1-6.1-1.3
				c-1.4-0.3-2.9-0.5-4.4-0.6c-7.9-1.9-13-2.3-13-2.3C7.6,19.1,54.3,193.9,60.7,226.4c0.8,4,2,8.2,3.5,12.3
				c2,5.2,18.1,29.8,24.5,35.2c2.2,1.8,4.6,3.5,7,5.2c-6.6-9.1-13.8-20.5-15.1-23.9C79.1,251.1,77.9,246.9,77.1,242.9z"/>
			<g>
				<path class="st1" d="M78.6,242.5c-6.5-33.1-13.4-65.7-13.3-99.6c0.1-42.5,11.1-90.1,52.1-111.2c6.2-3.2,12.8-5.6,19.5-7.4
					c6.3-1.7,13.5-3.8,20.1-2.9c22.1,3.2,44.9,9.1,62.6,23.5c1.2,1,3.5-0.4,2.4-1.8C207.1,24,186,12,162.9,6.3
					c-5.7-1.4-11.5-2.4-17.3-3.5c-3.1-0.6-6.4-1.4-9.6-1.1c-7.7,0.6-15.7,2.7-23,5.2c-25.8,8.7-45.3,27.7-55.7,52.7
					c-10.4,24.9-12.3,52.8-11.2,79.4c1,23.3,4.6,46.5,9.3,69.4c2.1,10.2,3.5,21.9,7.7,31.4c3.2,7.3,8.3,14.2,12.9,20.6
					c5.6,7.9,11,14.5,19.1,19.9c1.2,0.8,2.9-0.8,2.1-2.1C88.9,267.1,81.5,256.3,78.6,242.5c-0.4-1.9-3.3-1.1-2.9,0.8
					c2.9,14.1,10.4,25.1,18.7,36.6c0.7-0.7,1.4-1.4,2.1-2.1c-13-8.7-22.4-23.5-29.7-37.1c-4.3-8.2-5.5-18.5-7.4-27.5
					c-4.3-20.4-7.9-40.9-9.6-61.7c-3.9-48.7,1.5-109.9,49.7-135.6c7.4-3.9,15.3-6.8,23.4-8.8c4-1,8.2-1.8,12.3-2.3
					c4.3-0.6,8.7,0.7,12.8,1.6c13.6,3,26.7,5.5,39.3,11.9c12.3,6.3,23.5,15.3,31.9,26.3c0.8-0.6,1.6-1.2,2.4-1.8
					c-15.4-12.5-34.1-18.9-53.4-22.2c-6.9-1.2-12.7-2.9-19.6-1.8c-6.7,1.1-13.3,2.6-19.6,4.8c-21.5,7.4-39.2,22-50.2,42
					C57.7,104,60.2,152.4,66.4,194.4c2.4,16.5,6.1,32.6,9.3,48.9C76.1,245.2,79,244.4,78.6,242.5z"/>
			</g>
		</g>
		<g id="XMLID_657_">
			<path class="st3" d="M151.3,282.7c0,0,9.7,13.1-15.7,13.3c-25.4,0.2-40.2-9.3-33.6-17.6"/>
			<g>
				<path class="st1" d="M150,283.4c6.2,8.5-6.7,10.8-12.7,11c-5.2,0.2-43.3-2.4-34.1-15.3c1.1-1.6-1.5-3.1-2.6-1.5
					c-3.7,5.1-0.6,10.2,4.1,13.3c9.1,5.9,22,6.9,32.5,6.5c5.6-0.2,15.2-0.8,17-7.6c0.7-2.7-0.2-5.8-1.8-8
					C151.5,280.4,148.9,281.9,150,283.4L150,283.4z"/>
			</g>
		</g>
		<g>
			<g class="st2">
				<path class="st4" d="M216.1,176c-3.6,3-8,10.7-8,10.7l-1.6,23.6l0.3,7c0,0,0,0.4,0.1,1c0.3,1.9,1.3,6,4.7,7.9
					c2.6,1.4,4.5-5.7,5.5-16c1.7-7.5,3-17,3.6-26.5C221.3,174.1,218.9,173.6,216.1,176z"/>
				<g>
					<path class="st1" d="M215,174.9c-3,2.7-6.8,7-8.2,10.9c-0.6,1.7-0.5,3.9-0.6,5.7c-0.4,6.5-1.3,13.2-1.2,19.7c0,2.9,0,6.1,0.8,9
						c0.7,2.8,3.2,7.9,6.7,7.6c3.2-0.3,4.1-5.4,4.7-7.8c1.6-7.2,2.6-14.7,3.6-22c0.4-3,5.1-31.4-5.4-23.3c-1.5,1.2,0,3.8,1.5,2.6
						c2.8-2.1,2.5,2.7,2.4,4.6c-0.1,4-0.6,8.1-1,12.1c-0.9,7.3-2.2,14.5-3.3,21.7c-0.3,1.8-0.6,7-2.1,8.3c-1.4,1.2-2.3-0.4-3.1-2
						c-0.6-1-0.9-2.3-1.1-3.4c-0.5-2.6-0.5-5.5-0.5-8.1c0.1-5.6,0.7-11.2,1.1-16.7c0.1-2.2-0.1-4.9,0.5-7c-0.4,1.4,0.3-0.2,0.6-0.6
						c0.6-0.8,1-1.7,1.6-2.5c1.6-2.4,3.3-4.7,5.5-6.7C218.6,175.7,216.4,173.6,215,174.9z"/>
				</g>
			</g>
			<g>
				<path class="st3" d="M206.4,183.3l1,11.6c0,0,0.1,0.6,0.3,1.6c0.8,3.1,3.7,10,13.6,13.1c7.4,2.3,13-9.4,15.9-26.5
					c4.8-12.3,8.7-28.2,10.5-43.8c1.8-15.7-5.1-16.6-13.4-12.6c-10.5,5-23.3,17.7-23.3,17.7"/>
				<g>
					<path class="st1" d="M204.9,183.3c0.6,7.4,0.2,15.2,5.4,21.2c3.1,3.5,9,7.5,14,6.8c4.7-0.7,7.5-5.7,9.3-9.6
						c3.4-7.5,4.4-15.8,7-23.6c3.2-9.4,5.6-19.2,7.2-29c1.2-7.4,5.6-27.3-7.9-25.8c-6.6,0.7-12.8,5.5-17.8,9.4
						c-4.2,3.3-8.3,6.8-12.1,10.6c-1.4,1.4,0.7,3.5,2.1,2.1c3.1-3,6.3-5.9,9.7-8.6c5-4,11.5-9.6,18.1-10.5
						c14.1-1.8,1.4,39.3-0.7,46.1c-1.2,4-2.9,7.9-3.9,12c-1,4.2-1.7,8.3-3.1,12.4c-1.1,3.3-2.6,7-5.1,9.5c-3,3-5.9,2.1-9.4,0.3
						c-9.6-5-9.1-13.9-9.9-23.2C207.8,181.4,204.8,181.4,204.9,183.3L204.9,183.3z"/>
				</g>
			</g>
			<g id="XMLID_656_">
				<path class="st3" d="M224.3,146.2c0,0,16.3-18.9,18.3-8.7"/>
				<g>
					<path class="st1" d="M225.3,147.2c2-2.3,4.2-4.5,6.4-6.5c1.8-1.6,8.2-7.6,9.3-2.8c0.4,1.9,3.3,1.1,2.9-0.8
						c-2.6-11.6-17.6,4.3-20.8,8C222,146.6,224.1,148.7,225.3,147.2L225.3,147.2z"/>
				</g>
			</g>
			<g id="XMLID_655_">
				<path class="st3" d="M217.1,159.9c0,0,20.4-2.4,16,8.6c-4.5,11-12.5,17.6-14.2,4.5"/>
				<g>
					<path class="st1" d="M217.1,161.4c4.1-0.5,10.9-1,14.1,2c3,2.9-1.4,8.9-3.2,11.4c-0.9,1.3-2.8,3.9-4.6,4
						c-2.5,0.1-2.9-4.5-3.1-6.1c-0.3-1.9-3.2-1.1-2.9,0.8c0.7,4.6,3.4,10.8,9,7.3c2.6-1.7,4.6-4.6,6-7.3c1.4-2.4,3-5.4,2.8-8.3
						c-0.6-7.7-12.6-7.4-18.1-6.7C215.2,158.7,215.2,161.7,217.1,161.4L217.1,161.4z"/>
				</g>
			</g>
			<g id="XMLID_654_" class="st0">
				<path class="st1" d="M217.1,159.9c0,0,20.4-2.4,16,8.6c-4.5,11-12.5,17.6-14.2,4.5"/>
				<g>
					<path class="st1" d="M217.1,161.4c4.1-0.5,10.9-1,14.1,2c3,2.9-1.4,8.9-3.2,11.4c-0.9,1.3-2.8,3.9-4.6,4
						c-2.5,0.1-2.9-4.5-3.1-6.1c-0.3-1.9-3.2-1.1-2.9,0.8c0.7,4.6,3.4,10.8,9,7.3c2.6-1.7,4.6-4.6,6-7.3c1.4-2.4,3-5.4,2.8-8.3
						c-0.6-7.7-12.6-7.4-18.1-6.7C215.2,158.7,215.2,161.7,217.1,161.4L217.1,161.4z"/>
				</g>
			</g>
		</g>
		<g id="XMLID_653_" class="st0">
			<path class="st1" d="M151.3,282.7c0,0,9.7,13.1-15.7,13.3c-25.4,0.2-40.2-9.3-33.6-17.6"/>
			<g>
				<path class="st1" d="M150,283.4c6.2,8.5-6.7,10.8-12.7,11c-5.2,0.2-43.3-2.4-34.1-15.3c1.1-1.6-1.5-3.1-2.6-1.5
					c-3.7,5.1-0.6,10.2,4.1,13.3c9.1,5.9,22,6.9,32.5,6.5c5.6-0.2,15.2-0.8,17-7.6c0.7-2.7-0.2-5.8-1.8-8
					C151.5,280.4,148.9,281.9,150,283.4L150,283.4z"/>
			</g>
		</g>
		<g id="XMLID_652_">
			<g>
				<path class="st1" d="M121.8,146.2c7.7,12,22.2,18.7,36,19.3c1.9,0.1,1.9-2.9,0-3c-12.7-0.5-26.3-6.7-33.4-17.8
					C123.3,143,120.7,144.5,121.8,146.2L121.8,146.2z"/>
			</g>
		</g>
		<g id="XMLID_651_">
			<g>
				<path class="st1" d="M77.8,154.3c-4.1,0.9-8.3,1.8-12.4,2.5c-5.2,0.9-12.7,2.9-17.8,0.9c-1.8-0.7-2.6,2.2-0.8,2.9
					c5.1,2,12.1,0.3,17.3-0.5c4.9-0.8,9.7-1.7,14.5-2.8C80.5,156.8,79.7,153.9,77.8,154.3L77.8,154.3z"/>
			</g>
		</g>
		<g id="XMLID_643_">
			<g id="XMLID_650_">
				<path class="st3" d="M118.3,151.4c0,0-5.3-19.2-0.9-24.1"/>
				<g>
					<path class="st1" d="M119.8,151c-0.7-2.7-1.3-5.5-1.8-8.2c-0.7-3.9-2.2-10.9,0.6-14.4c1.2-1.5-0.9-3.6-2.1-2.1
						c-5,6.4-1.5,18.5,0.5,25.5C117.4,153.6,120.3,152.8,119.8,151L119.8,151z"/>
				</g>
			</g>
			<g id="XMLID_647_">
				<g id="XMLID_649_">
					<path class="st3" d="M103.7,148.1c-1.8,0.8-3,1.8-3.9,2.8c-0.7,0.8-1.2,1.7-1.5,2.4"/>
					<g>
						<path class="st1" d="M102.9,146.8c-2.6,1.2-4.7,3.2-6,5.7c-0.8,1.7,1.8,3.3,2.6,1.5c1-2.2,2.7-3.6,4.9-4.7
							C106.2,148.6,104.7,146,102.9,146.8L102.9,146.8z"/>
					</g>
				</g>
				<g id="XMLID_648_">
					<path class="st3" d="M102.3,115.3c0,0-3.7,16.7-4.2,28.4"/>
					<g>
						<path class="st1" d="M100.9,114.9c-2.1,9.4-3.8,19.1-4.3,28.8c-0.1,1.9,2.9,1.9,3,0c0.5-9.4,2.1-18.8,4.2-28
							C104.2,113.8,101.3,113,100.9,114.9L100.9,114.9z"/>
					</g>
				</g>
			</g>
			<g id="XMLID_644_">
				<g id="XMLID_646_">
					<path class="st3" d="M86.5,154.1c0,0-15,15.6,13.5,13.7"/>
					<g>
						<path class="st1" d="M85.5,153c-2.2,2.3-4.4,5.7-4.4,9c0.2,8.5,13.6,7.6,19,7.3c1.9-0.1,1.9-3.1,0-3c-3.4,0.2-16.8,1.5-16-5
							c0.3-2.3,1.9-4.5,3.5-6.1C88.9,153.7,86.8,151.6,85.5,153L85.5,153z"/>
					</g>
				</g>
				<g id="XMLID_645_">
					<path class="st3" d="M123.6,154c0,0,15.4,14.6-12.1,13.1"/>
					<g>
						<path class="st1" d="M122.6,155c1.6,1.5,3.4,3.6,3.8,5.9c1.1,6-11.9,4.8-14.8,4.7c-1.9-0.1-1.9,2.9,0,3c5,0.2,18.1,1,17.9-7.1
							c-0.1-3.2-2.5-6.4-4.8-8.5C123.3,151.6,121.2,153.7,122.6,155L122.6,155z"/>
					</g>
				</g>
			</g>
		</g>
		<g id="XMLID_642_">
			<path class="st3" d="M88.2,163.7c0,0,11.5,16.6,33.5-0.2"/>
			<g>
				<path class="st1" d="M86.9,164.4c8.8,12.5,25.2,8,35.5,0.3c1.5-1.1,0-3.7-1.5-2.6c-8.8,6.5-23.6,11.8-31.4,0.7
					C88.4,161.4,85.8,162.9,86.9,164.4L86.9,164.4z"/>
			</g>
		</g>
		<g>
			<path class="st5" d="M130.4,198.6c-5.9-5.4-11.5-8.4-16.6-9.8c0.4-0.6,0.9-1.2,1.3-1.9H95.4c0,0,0.6,1.2,1.8,2.6
				c-8.2,3-13.2,9.1-13.2,9.1l-13.5,10.7c0,0,37.3,29.1,73.4,0L130.4,198.6z"/>
			<g>
				<path class="st3" d="M131.4,197.5c-5.1-4.5-10.6-8.2-17.2-10.2c0.3,0.7,0.6,1.5,0.9,2.2c0.5-0.6,0.9-1.2,1.3-1.9
					c0.6-1-0.2-2.3-1.3-2.3c-6.6,0-13.2,0-19.7,0c-1.1,0-1.9,1.3-1.3,2.3c0.5,0.9,1.2,1.8,1.8,2.6c0.3-0.7,0.6-1.5,0.9-2.2
					c-5.9,2.4-10.1,6-14.7,10.1c-4,3.5-8.4,6.7-12.6,10.1c-0.6,0.5-0.6,1.7,0,2.1c7.2,5.6,16.2,9.5,25,11.6
					c18.2,4.4,35.9-0.1,50.6-11.6c0.6-0.5,0.6-1.7,0-2.1C140.4,204.7,135.9,201.1,131.4,197.5c-1.5-1.2-3.6,0.9-2.1,2.1
					c4.5,3.6,9,7.2,13.5,10.7c0-0.7,0-1.4,0-2.1c-14.5,11.3-32.2,15.2-50,10.2c-7.2-2-16.1-6.2-21.3-10.2c0,0.7,0,1.4,0,2.1
					c3.9-3.1,7.8-6.2,11.7-9.3c4.7-3.8,8.5-7.8,14.4-10.1c0.8-0.3,1.5-1.3,0.9-2.2c-0.6-0.9-1.3-1.7-1.8-2.6
					c-0.4,0.8-0.9,1.5-1.3,2.3c6.6,0,13.2,0,19.7,0c-0.4-0.8-0.9-1.5-1.3-2.3c-0.4,0.6-0.8,1.3-1.3,1.9c-0.6,0.8,0,2,0.9,2.2
					c6.1,1.8,11.2,5.2,15.9,9.4C130.7,200.9,132.9,198.8,131.4,197.5z"/>
			</g>
		</g>
		<g id="XMLID_641_">
			<g>
				<path class="st1" d="M86,197.9c12.1-8.9,26.2-9.6,39.3-2.2c1.7,0.9,3.2-1.6,1.5-2.6c-14-7.8-29.4-7.3-42.3,2.2
					C82.9,196.4,84.4,199,86,197.9L86,197.9z"/>
			</g>
		</g>
		<g id="XMLID_640_">
			<g>
				<path class="st1" d="M70,210.9c7.2,5.6,16.2,9.5,25,11.6c18.2,4.4,35.9-0.1,50.6-11.6c1.5-1.2-0.6-3.3-2.1-2.1
					c-14.5,11.3-32.2,15.2-50,10.2c-7.2-2-16.1-6.2-21.3-10.2C70.6,207.6,68.5,209.7,70,210.9L70,210.9z"/>
			</g>
		</g>
		<g id="XMLID_579_">
			<g>
				<path class="st1" d="M85.3,212.4c5.7-3.7,14.6-7,20.2-1.5c0.8,0.8,2.2,0.4,2.5-0.7c2.7-8.7,14.8-2.7,19.4,0.1
					c1.7,1,3.2-1.6,1.5-2.6c-6.6-4.1-20.4-9.3-23.8,1.7c0.8-0.2,1.7-0.4,2.5-0.7c-6.6-6.5-16.9-3.5-23.8,1.1
					C82.2,210.9,83.7,213.5,85.3,212.4L85.3,212.4z"/>
			</g>
		</g>
		<g id="XMLID_275_">
			<path class="st3" d="M93.2,186.2c0,0,11.2,20.6,24.3,0"/>
			<g>
				<path class="st1" d="M91.9,187c2,3.7,5.3,7.3,9.2,9c7.7,3.2,13.8-3.1,17.7-9c1.1-1.6-1.5-3.1-2.6-1.5c-4,5.9-10,11.4-16.7,6
					c-2-1.6-3.8-3.8-5-6C93.6,183.8,91,185.3,91.9,187L91.9,187z"/>
			</g>
		</g>
		<g>
			<g id="XMLID_274_">
				<path class="st6" d="M44.2,89.9c0,0,63.7-1.1,43.7,45.2S-7.4,119.4,44.2,89.9z"/>
				<g>
					<path class="st1" d="M44.2,91.4c16.8-0.3,44.7,4.8,46.1,25.8c0.9,14.5-8.5,32.2-24.3,33c-12.9,0.6-25.7-7.9-32.6-18.3
						c-4-6-6.4-13.4-5-20.7c1.8-9.1,8.9-15.5,16.6-20c1.7-1,0.2-3.6-1.5-2.6c-13.9,8.1-22.7,22.2-16.2,38.2
						c5.4,13.1,18.6,23.8,32.7,26c16.7,2.6,27.8-9.3,31.9-24.5c4.1-15-2.3-27.6-16.3-33.9c-9.6-4.3-20.9-6.2-31.5-6
						C42.3,88.5,42.3,91.5,44.2,91.4z"/>
				</g>
			</g>
			<g id="XMLID_273_">
				<path class="st1" d="M40.5,121.6c0,0,11.4-3.6,10.1,5.7C49.3,136.6,32.6,129.6,40.5,121.6z"/>
				<g>
					<path class="st1" d="M40.9,123c1.6-0.5,3.3-0.8,5-0.6c3.1,0.3,4.3,3.4,2.8,6.1c-1.3,2.4-4.5,1.9-6.5,0.7
						c-2.8-1.7-2.8-4.4-0.6-6.6c1.3-1.4-0.8-3.5-2.1-2.1c-2.4,2.5-3.5,6-1.3,9c1.7,2.4,4.9,3.9,7.9,3.7c7.2-0.5,8.7-11.9,1.4-13.6
						c-2.4-0.6-5.1-0.2-7.4,0.5C38.2,120.7,39,123.6,40.9,123z"/>
				</g>
			</g>
			<g id="XMLID_269_">
				<path class="st6" d="M140.5,96.5c0,0-45.3,36.3,14.5,57.4S191,79.6,140.5,96.5z"/>
				<g>
					<path class="st1" d="M139.5,95.4c-7.3,5.9-14.1,14.6-16.2,23.8c-4.7,20.4,17.9,32,34,37c12,3.7,27.4,3.7,32.8-9.9
						c4.7-11.9,0-26.4-7.1-36.3C173,96,156.7,89.7,140.1,95c-1.8,0.6-1,3.5,0.8,2.9c13.6-4.4,27.2-0.6,36.7,10.1
						c7.6,8.6,13,21.4,10.9,33c-2.3,13-14.4,16.1-26,13.5c-15.1-3.4-40.3-14.2-36.5-33.8c1.8-9.1,8.5-17.5,15.6-23.2
						C143.1,96.3,141,94.2,139.5,95.4z"/>
				</g>
			</g>
			<g id="XMLID_268_">
				<path class="st1" d="M169.1,125.9c0,0,11.4-3.6,10.1,5.7C177.9,140.9,161.3,133.9,169.1,125.9z"/>
				<g>
					<path class="st1" d="M169.5,127.4c1.6-0.5,3.3-0.8,5-0.6c3.1,0.3,4.3,3.4,2.8,6.1c-1.3,2.4-4.5,1.9-6.5,0.7
						c-2.8-1.7-2.8-4.4-0.6-6.6c1.3-1.4-0.8-3.5-2.1-2.1c-2.4,2.5-3.5,6-1.3,9c1.7,2.4,4.9,3.9,7.9,3.7c7.2-0.5,8.7-11.9,1.4-13.6
						c-2.4-0.6-5.1-0.2-7.4,0.5C166.9,125,167.7,127.9,169.5,127.4z"/>
				</g>
			</g>
			<g id="XMLID_267_">
				<path class="st5" d="M183.1,152.2c0.4,0.1,0.9,0.3,1.3,0.4c1.7,0.5,3.3,0.7,5-1.3c4.2-4.8-5.3-6.3-5.3-6.3l-10.4-0.8
					c0,0-22.2-1.6-35.3,2c0,0,19.3,11,31.2,10.2c1.4-0.1,2.7-0.3,3.8-0.8C174.4,155.3,181.1,151.5,183.1,152.2z"/>
				<g>
					<path class="st1" d="M182.7,153.6c3.3,1,6.8,1.1,8.6-2.5c0.9-1.8,0.7-3.6-0.7-5c-3-3-8.4-2.7-12.2-3c-13.3-1-27.3-1.7-40.4,1.7
						c-1.2,0.3-1.5,2.1-0.4,2.7c6.4,3.6,13.4,6.7,20.4,8.8c4.2,1.2,8.9,2.2,13.3,1.5c3.9-0.7,7.8-4.6,11.8-4.1c1.9,0.2,1.9-2.8,0-3
						c-3.4-0.4-6.6,2.1-9.5,3.3c-4.8,1.9-9.9,0.8-14.7-0.5c-6.8-2-13.5-5-19.7-8.5c-0.1,0.9-0.2,1.8-0.4,2.7c11-2.9,22.9-2.7,34.2-2
						c2.9,0.2,5.8,0.4,8.7,0.7c1.3,0.1,2,0.1,2.9,0.3c0.9,0.2,2.3,0.4,3,1c3.2,2.6-1.5,3.9-4,3.1C181.7,150.1,180.9,153,182.7,153.6
						z"/>
				</g>
			</g>
			<g id="XMLID_266_">
				<path class="st5" d="M56.4,138.3c0,0,13.8-2.6,29,2.2c0,0-7.5,16.5-32,9c-8-2.5-9.7,2.1-14.1-2.7c-4.4-4.8,5.7-6.3,5.7-6.3
					L56.4,138.3z"/>
				<g>
					<path class="st1" d="M56.8,139.8c9.3-1.7,19.3-0.5,28.3,2.2c-0.3-0.7-0.6-1.5-0.9-2.2c-5.6,12-20.6,10.6-31.1,8.1
						c-3.3-0.8-6.5,0.3-9.7-0.3c-2.6-0.5-4.4-2.8-1.9-4.5c0.9-0.6,2.3-0.8,3.4-1C48.7,141.2,52.8,140.6,56.8,139.8
						c1.9-0.4,1.1-3.3-0.8-2.9c-5,0.9-12.1,1.1-16.6,3.8c-2.3,1.4-3.4,3.5-2,6c2,3.6,5.3,3.9,8.9,3.6c6.1-0.5,11.9,2.4,18,2.6
						c4.3,0.1,8.6-0.6,12.5-2.4c4-1.9,8-5.2,9.9-9.3c0.4-0.9,0.1-1.9-0.9-2.2c-9.5-2.8-20-4-29.8-2.2
						C54.1,137.2,54.9,140.1,56.8,139.8z"/>
				</g>
			</g>
			<g id="XMLID_157_">
				<path class="st1" d="M135.2,95.2c0,0-25.2-5-6.1-9.7s53.1,7.7,50.8,10S173.8,101.8,135.2,95.2z"/>
				<g>
					<path class="st1" d="M135.6,93.8c-1.8-0.4-3.7-0.8-5.5-1.4c-1.5-0.4-3-0.9-4.4-1.6c-1.9-0.9-2.8-1.4-0.6-2.5
						c9.3-4.6,22.5-2.3,32.1-0.2c4.6,1,9.2,2.3,13.7,3.9c1.8,0.7,3.6,1.3,5.3,2.2c0.4,0.2,1.1,0.7,1.5,0.8c1.5,0.3-0.2,0.7,1-0.5
						c-1.8,2-4.7,2.4-7.2,2.6C159.6,98.2,147.2,95.7,135.6,93.8c-1.9-0.3-2.7,2.6-0.8,2.9c12.3,2.1,26,5.1,38.6,3.3
						c2.2-0.3,8.7-1.7,8.1-5.2c-0.4-2.3-4.6-3.6-6.4-4.4c-5.8-2.5-12-4.2-18.2-5.5c-6.9-1.4-14-2.4-21.1-2
						c-4.2,0.3-11.7,0.7-14.5,4.3c-4.5,5.8,10.4,8.7,13.6,9.4C136.7,97,137.5,94.1,135.6,93.8z"/>
				</g>
			</g>
			<g id="XMLID_264_">
				<path class="st1" d="M60.6,94.3c0,0-39.5,0.9-21.2-8.2s50.7,0.2,53.3,4.1C95.3,94.1,60.6,94.3,60.6,94.3z"/>
				<g>
					<path class="st1" d="M60.6,92.8c-5.1,0.1-10.1,0-15.2-0.4c-1.6-0.1-8.1-0.2-9.1-1.9c-1-1.9,8.4-4.9,9.7-5.3
						c11.7-3.1,24.9-1.4,36.3,1.9c2,0.6,3.9,1.2,5.8,2c0.7,0.3,1.5,0.9,2.2,1.1c0.2,0.1,0.4,0.3,0.6,0.4c1.3,0.5-1,0.2,0.5-0.5
						c-2.8,1.3-6.2,1.5-9.2,1.8C75.1,92.5,67.8,92.7,60.6,92.8c-1.9,0-1.9,3,0,3c8.6-0.1,17.3-0.2,25.9-1.4c2.1-0.3,7.2-0.5,7.8-3.3
						c0.7-2.8-3.9-4.4-5.8-5.1c-12.6-5.2-28.6-7.1-41.9-4c-3.4,0.8-20.5,7.4-10.3,11.7c7.1,3,16.8,2.3,24.4,2.1
						C62.5,95.7,62.6,92.7,60.6,92.8z"/>
				</g>
			</g>
		</g>
	</g>
</g>
</svg>
