<?xml version="1.0" encoding="utf-8"?>
<!-- Generator: Adobe Illustrator 23.0.3, SVG Export Plug-In . SVG Version: 6.00 Build 0)  -->
<svg version="1.1" id="Layer_1" xmlns="http://www.w3.org/2000/svg" xmlns:xlink="http://www.w3.org/1999/xlink" x="0px" y="0px"
	 viewBox="0 0 74.3 64.2" style="enable-background:new 0 0 74.3 64.2;" xml:space="preserve">
<style type="text/css">
	.st0{opacity:0.1;}
	.st1{fill:#FFFFFF;}
	.st2{fill:#2C2C2C;}
</style>
<g id="Layer_5" class="st0">
</g>
<g id="Layer_3" class="st0">
</g>
<g>
	<g id="XMLID_866_">
		<path class="st1" d="M72.4,62c0,0,0.2,0.5-0.6,0.5c-26.7,0.6-69.2,0-69.2,0C1.8,62.4,2,62,2,62C0.9,46.9,2,18.8,2,18.8
			s-0.2-0.5,0.6-0.5c41.5-1.1,69.6,0,69.6,0c0.8,0.1,0.6,0.5,0.6,0.5S73,42.4,72.4,62z"/>
		<g>
			<path class="st2" d="M70.9,62c-0.1-1.8-10.6-0.8-12.5-0.8c-4.8,0-9.6,0.1-14.4,0.1c-8.8,0-17.6,0-26.5-0.1
				c-3.1,0-6.2-0.1-9.4-0.1c-1.5,0-3.7-0.5-5.1-0.1c-0.2,0,0,1.6,0.5-0.1c0.4-1.6-0.2-4.2-0.3-5.9C3.1,50.4,3,45.8,3.1,41.2
				c0-6.6-0.8-14.1,0.4-20.6c0.1-0.3-0.2-1.4,0.1-1.6c-0.8,0.7,4.8,0.7,4.9,0.7c6.3-0.1,12.6-0.2,18.8-0.3c9.3-0.1,18.6-0.1,28,0
				c5,0.1,10.4,0.8,15.3,0.3c0.4,0,0.9,0.2,1.3,0c0.7-0.2-0.5-1-0.6-0.8c-0.7,2.1,0,5.5,0,7.8C71.4,38.5,71.2,50.2,70.9,62
				c-0.1,1.9,2.9,1.9,3,0c0.3-9.9,0.4-19.8,0.4-29.7c0-4.6-0.3-9.3,0-13.8c0-0.5-0.3-1.1-0.7-1.3c-1.7-0.8-3.6-0.6-5.4-0.6
				c-5.1-0.1-10.2-0.2-15.3-0.3c-8-0.1-16-0.1-24,0c-5,0-9.9,0.1-14.9,0.2c-3.9,0.1-9.2-0.8-12.8,0.7c-0.4,0.2-0.8,0.8-0.7,1.3
				c0.4,5.3-0.3,10.9-0.4,16.2C0,39.5,0,44.4,0.1,49.2c0.1,4.3,0.8,8.8,0.4,13c0,0.5,0.3,1.1,0.7,1.3c2.1,1,4.9,0.5,7.2,0.5
				c6.2,0.1,12.5,0.1,18.7,0.2c8,0,16,0.1,24,0c4.2,0,8.5,0,12.7-0.1c2.9,0,6.6,0.5,9.2-0.6c0.4-0.2,0.8-0.8,0.7-1.3
				c0-0.1,0-0.2,0-0.2C73.8,60.1,70.8,60.1,70.9,62z"/>
		</g>
	</g>
	<g id="XMLID_865_">
		<path class="st1" d="M64.5,26.8c0,0,0.2-1.2-0.8-1.3c0,0-17.5-1.4-39.1,0c-1,0.1-0.8,1.3-0.8,1.3s-0.2,15.8,0.4,26.9
			c0,0-0.2,1.2,0.8,1.3c0,0,16.7,1,38.4,0c1,0,0.8-1.3,0.8-1.3L64.5,26.8z"/>
		<g>
			<path class="st2" d="M66,26.8c0.1-2.9-2.8-2.8-4.9-2.9c-6.4-0.4-12.8-0.5-19.2-0.4c-4.8,0-9.6,0.2-14.4,0.5
				c-2.3,0.1-4.4-0.2-5.2,2.2c-0.3,0.9-0.1,2.4-0.1,3.4c0,3.1,0,6.3,0,9.4c0,4,0.1,8,0.2,12c0.1,1.8-0.4,4.1,1.4,5.2
				c2.1,1.3,6.4,0.6,8.7,0.7c8.3,0.2,16.7,0.2,25-0.1c4-0.1,7.8,0.9,8.1-3.7C66.2,44.4,65.9,35.6,66,26.8c0-1.9-3-1.9-3,0
				c-0.1,6.1-0.2,12.2-0.2,18.3c0,1.7,0.8,6.8-0.1,8.2c-0.6,0.8-4.6,0.4-6,0.4c-3.8,0.1-7.5,0.2-11.3,0.2c-5.2,0-10.5-0.1-15.7-0.2
				c-1.2,0-2.8,0.2-4-0.2c-0.1,0-0.6,0.1-0.7,0c1.1,0.9,0.5-2.7,0.5-3.4c-0.2-5.9-0.3-11.8-0.2-17.7c0-1.2-0.6-4,0-5.1
				s5.3-0.6,7-0.7c7.3-0.3,14.6-0.3,21.9-0.1c2.3,0.1,4.7,0.2,7,0.3c0.6,0,1.3,0,1.8,0.1c1.2,0.3,0.1-0.3,0.1-0.2
				C62.9,28.8,65.9,28.8,66,26.8z"/>
		</g>
	</g>
	<g>
		<g>
			<path class="st1" d="M56.6,2.4C52.2,6.9,47,12,42.2,16.7c-0.2-0.2-0.4-0.4-0.5-0.6C58.9-0.7,56.6,2.4,56.6,2.4z"/>
			<g>
				<path class="st2" d="M55.6,1.3c-4.7,4.8-9.5,9.6-14.4,14.3c0.7,0,1.4,0,2.1,0c-0.2-0.2-0.4-0.4-0.5-0.6c0,0.7,0,1.4,0,2.1
					c4.3-4.2,8.6-8.5,13.1-12.5c0.4-0.4,1.4-1,1.5-1.2c-0.2,0.6-2.4-1.3-1.9-2c0,0,0,0.1-0.1,0.1C54.3,3.1,56.9,4.6,58,3
					c1.3-1.8-1.1-2.8-2.5-2c-1.4,0.9-2.7,2.3-3.9,3.4c-3.7,3.4-7.3,7-10.9,10.5c-0.6,0.6-0.6,1.5,0,2.1c0.2,0.2,0.4,0.4,0.5,0.6
					c0.6,0.6,1.5,0.6,2.1,0c4.9-4.7,9.7-9.5,14.4-14.3C59,2.1,56.9-0.1,55.6,1.3z"/>
			</g>
		</g>
		<g>
			<path class="st1" d="M27.4,1.8c4.5,4.4,9.6,9.6,14.3,14.4c-0.2,0.2-0.4,0.4-0.6,0.5C24.3-0.5,27.4,1.8,27.4,1.8z"/>
			<g>
				<path class="st2" d="M26.3,2.8c4.8,4.7,9.6,9.5,14.3,14.4c0-0.7,0-1.4,0-2.1c-0.2,0.2-0.4,0.4-0.6,0.5c0.7,0,1.4,0,2.1,0
					C37.9,11.3,33.6,7,29.6,2.5c-0.4-0.4-1-1.4-1.2-1.5C29,1.2,27.1,3.4,26.3,2.8c0.1,0.1,0.2,0.1,0.2,0.2c1.6,1.1,3.1-1.5,1.5-2.6
					c-1.8-1.3-2.8,1.1-2,2.5c0.9,1.4,2.3,2.7,3.4,3.9c3.4,3.7,6.9,7.3,10.5,10.9c0.6,0.6,1.5,0.6,2.1,0c0.2-0.2,0.4-0.4,0.6-0.5
					c0.6-0.6,0.6-1.5,0-2.1c-4.7-4.8-9.5-9.7-14.3-14.4C27.1-0.6,24.9,1.5,26.3,2.8z"/>
			</g>
		</g>
		<g>
			<path class="st1" d="M41.7,16.2c0.2,0.2,0.4,0.4,0.5,0.6c-0.2,0.2-0.4,0.4-0.6,0.5c-0.2-0.2-0.4-0.4-0.5-0.6
				C41.3,16.5,41.5,16.3,41.7,16.2z"/>
			<g>
				<path class="st2" d="M40.6,17.2c0.2,0.2,0.4,0.4,0.5,0.6c0-0.7,0-1.4,0-2.1c-0.2,0.2-0.4,0.4-0.6,0.5c0.7,0,1.4,0,2.1,0
					c-0.2-0.2-0.4-0.4-0.5-0.6c0,0.7,0,1.4,0,2.1c0.2-0.2,0.4-0.4,0.6-0.5c0.6-0.6,0.6-1.6,0-2.1c-0.6-0.6-1.5-0.6-2.1,0
					c-0.2,0.2-0.4,0.4-0.6,0.5c-0.6,0.6-0.6,1.5,0,2.1c0.2,0.2,0.4,0.4,0.5,0.6c0.6,0.6,1.5,0.6,2.1,0c0.2-0.2,0.4-0.4,0.6-0.5
					c0.6-0.6,0.6-1.5,0-2.1c-0.2-0.2-0.4-0.4-0.5-0.6c-0.6-0.6-1.6-0.6-2.1,0S40.1,16.6,40.6,17.2z"/>
			</g>
		</g>
	</g>
</g>
</svg>
