<?xml version="1.0" encoding="utf-8"?>
<!-- Generator: Adobe Illustrator 23.0.3, SVG Export Plug-In . SVG Version: 6.00 Build 0)  -->
<svg version="1.1" id="Layer_1" xmlns="http://www.w3.org/2000/svg" xmlns:xlink="http://www.w3.org/1999/xlink" x="0px" y="0px"
	 viewBox="0 0 178.7 52.4" style="enable-background:new 0 0 178.7 52.4;" xml:space="preserve">
<style type="text/css">
	.st0{fill:#FFFFFF;}
	.st1{fill:#2C2C2C;}
</style>
<g>
	<g>
		<path class="st0" d="M33.4,42.4c-0.1-1.1-0.5-2-1.1-2.7c0,0,0,0,0,0c-0.1-0.3-0.3-0.6-0.5-0.9c0.3-1.4,0.3-2.8,0.2-4.2
			c0-0.4-0.1-0.8-0.2-1.3c0-0.4,0-0.8-0.1-1.1c-0.1-1.2-0.4-2.4-0.8-3.5c-0.3-0.6-0.5-1.2-0.9-1.8c-0.4-0.6-0.8-1.2-1.3-1.7
			c-0.8-1-1.9-1.9-3-2.7c-1.1-0.8-2.3-1.3-3.5-1.7c-0.5-0.2-1.1-0.3-1.7-0.3c-0.8-0.1-1.5-0.2-2.3-0.2c0,0-0.1,0-0.1,0
			c-1.3,0-2.7,0.2-4,0.4c-2.3,0.3-4.5,1.1-6.4,2.5c-0.3,0.2-0.7,0.5-1,0.8c-0.1,0.1-0.2,0.2-0.4,0.3c-0.4,0.4-0.8,0.8-1.2,1.2
			c-0.4,0.5-0.9,1.1-1.2,1.7c-0.6,1-1.1,2.1-1.6,3.2c-0.6,1.4-0.8,3-1,4.5c-0.1,1.4,0,2.9,0.3,4.3c0.3,1.4,0.8,2.7,1.5,3.9
			c0.3,0.5,0.6,1.1,1,1.6c0.5,0.6,0.9,1.2,1.5,1.8c0.5,0.5,1.1,1,1.7,1.4c0.5,0.4,1.1,0.8,1.7,1.1c0.6,0.4,1.3,0.7,2,0.9
			c0.6,0.3,1.3,0.4,2,0.6c3.2,0.7,6.6,0.2,9.6-1.1c0.7,0.4,1.4,0.7,2.3,0.8c0,0,0,0,0,0c0.1,0,0.1,0.1,0.2,0.1
			c0.4,0.2,0.9,0.3,1.4,0.4c0.5,0.1,1,0.1,1.5,0c0.5-0.1,1-0.2,1.5-0.5c0.3-0.2,0.6-0.3,0.9-0.6c0.1-0.1,0.2-0.1,0.3-0.2
			c0,0,0,0,0,0c0.2-0.1,0.3-0.3,0.5-0.4c0.2-0.1,0.3-0.3,0.3-0.5c0.2-0.3,0.5-0.7,0.7-1c0.5-0.8,0.7-1.7,0.9-2.5
			c0.2-0.8,0.2-1.6,0.1-2.3C33.5,42.6,33.5,42.5,33.4,42.4z M20.6,36.5c0,0.2-0.1,0.4-0.2,0.5c-0.1,0.2-0.2,0.4-0.2,0.6
			c-0.1,0.2-0.2,0.3-0.3,0.5c-0.1,0.1-0.1,0.2-0.2,0.2c-0.1,0.1-0.2,0.2-0.4,0.3c-0.1,0.1-0.2,0.1-0.3,0.1c-0.1,0-0.1,0-0.2,0
			c0,0,0,0-0.1,0.1c-0.1,0.1-0.1,0.1-0.2,0.1c-0.1,0.1-0.2,0.1-0.3,0.1c-0.1,0-0.3,0-0.4,0c0,0,0,0,0,0c-0.1,0-0.1,0-0.2,0
			c-0.2,0-0.4,0-0.6,0c-0.1,0-0.2,0-0.2,0c0,0-0.1,0-0.1,0c-0.2,0.1-0.4,0.1-0.6,0.1c-0.2,0.1-0.3,0.1-0.5,0.2c-0.2,0-0.4,0-0.5,0
			c-0.1,0-0.2,0-0.3,0c-0.3-0.1-0.5-0.1-0.8-0.3c-0.2-0.1-0.3-0.2-0.5-0.4c-0.1-0.1-0.2-0.3-0.4-0.4c-0.1-0.1-0.1-0.2-0.2-0.4
			c-0.1-0.2-0.2-0.4-0.3-0.6c-0.1-0.3-0.2-0.7-0.2-1c0-0.3,0-0.7,0-1.1c0,0,0,0,0,0c0,0,0,0,0,0c0-0.2,0-0.4,0.1-0.7
			c0-0.1,0.1-0.3,0.1-0.4c0,0,0,0,0,0c0,0,0-0.1,0-0.1c0,0,0,0,0,0c0-0.1,0-0.2,0.1-0.2c0.1-0.2,0.2-0.5,0.3-0.6
			c0.1-0.1,0.2-0.3,0.3-0.4c0.1-0.1,0.2-0.2,0.3-0.3c0.1-0.1,0.3-0.2,0.4-0.2c0,0,0,0,0,0c0,0,0,0,0,0c0.1-0.1,0.2-0.3,0.4-0.3
			c0.1,0,0.2-0.1,0.3-0.1c0.1,0,0.2,0,0.3,0c0,0,0.1,0,0.1,0c0.1,0,0.2-0.1,0.2-0.1c0,0,0,0,0,0c0.1-0.1,0.1-0.3,0.2-0.4
			c0.1-0.1,0.1-0.2,0.2-0.2c0.4-0.3,0.9-0.3,1.3,0c0.2,0.1,0.3,0.3,0.4,0.6c0.1,0,0.2-0.1,0.3-0.1c0.1,0,0.2,0,0.3,0
			c0.1,0,0.2,0,0.3,0.1c0.1,0,0.2,0.1,0.3,0.1c0.3,0.2,0.5,0.4,0.7,0.8c0.1,0.2,0.3,0.4,0.3,0.7c0.1,0.1,0.1,0.1,0.2,0.2
			c0.1,0.1,0.1,0.2,0.2,0.3c0.1,0.1,0.1,0.2,0.2,0.3c0.1,0.2,0.2,0.4,0.2,0.6c0,0.2,0.1,0.4,0.1,0.6c0,0.2,0,0.4,0,0.6
			C20.7,36.1,20.7,36.3,20.6,36.5z"/>
		<g>
			<path class="st1" d="M34.9,42c-0.3-1.3-1.2-2.2-1.5-3.4c-0.2-0.7,0.2-2,0.2-2.7c0-2.6-0.3-5.6-1.3-8c-1.9-4.6-6.3-8.1-11.2-8.9
				C10.1,17.1-0.2,25,0,36.3c0.1,5.1,2.6,9.9,6.6,12.9c1.8,1.3,3.9,2.3,6.1,2.8c3.2,0.7,5.8-0.3,8.9-0.5c3.3-0.2,6.3,2.4,10-0.6
				C34.1,48.8,35.4,45.1,34.9,42c-0.3-1.9-3.2-1.1-2.9,0.8c0.8,4.6-2.9,7-6.9,5.9c-0.4-0.1-1.6-0.8-2.3-0.8c-2.1,0-4.1,1.4-6.4,1.4
				C6.8,49.4,0.8,39.6,4,30.9c2.9-8,13.7-12,21-7.1c3.6,2.5,4.8,5.7,5.3,9.9c0.2,1.8-0.3,3.7,0,5.5c0.2,1.1,1.4,2.5,1.6,3.6
				C32.4,44.7,35.3,43.9,34.9,42z"/>
			<path class="st1" d="M19.2,36.1c-0.1,0.4-0.2,0.9-0.5,1.2c0.2-0.2-0.2,0-0.4,0.1c-0.5,0.2-0.6,0.4,0,0.3c-0.3,0.1-0.9,0-1.2,0
				c-0.3,0-1.8,0.4-2.2,0.2c-0.8-0.4-0.9-1.7-0.8-2.5c0-0.3,0-0.5,0.1-0.7c0.2-0.5,0.4-0.5,0.6-1c0,0.1,0.6-0.5,0.1-0.3
				c-0.4,0.2,0.4,0,0.6,0c0.3-0.1,0.7-0.3,0.9-0.5c0.5-0.6,0.1,0-0.2-0.3c0.3,0.6,1.1,0.8,1.7,0.7c0,0,0.7,1.2,0.7,1.3
				c0.4,0.7,0.5,1.3,0.4,2.1c-0.2,1.9,2.8,1.9,3,0c0.3-2.6-1.7-7-4.9-6.2c0.6,0.2,1.1,0.5,1.7,0.7c-1.1-2-3.7-2.1-4.8,0
				c0.3-0.2,0.6-0.5,0.9-0.7c0.6,0.1,0.6,0.1,0,0c-0.2,0-0.5,0.1-0.7,0.1c-0.6,0.1-0.9,0.5-1.3,0.8c0.8-0.5-0.6,0.4-0.7,0.5
				c-0.4,0.4-0.6,0.9-0.8,1.3c-0.5,1.3-0.6,2.8-0.3,4.2c0.5,2.1,2.2,3.9,4.4,3.6c0.6-0.1,0.8-0.2,1.2-0.3c0.3,0,2.2-0.2,0.6-0.1
				c1,0,1.6-0.1,2.4-0.7c-0.4,0.1-0.7,0.3-1.1,0.4c1.9-0.2,2.7-1.7,3.2-3.4C22.6,35.1,19.7,34.3,19.2,36.1z"/>
		</g>
	</g>
	<g>
		<path class="st0" d="M68.1,34.5c-0.2-0.4-0.5-0.9-0.7-1.3c-0.3-0.7-0.7-1.4-1.2-2c-0.9-1.1-1.8-2.2-2.9-3c-0.6-0.5-1.3-1-2-1.4
			c-0.4-0.2-0.9-0.5-1.3-0.7c-0.3-0.2-0.6-0.3-0.9-0.5c-1.1-0.5-2.2-1-3.4-1.2c-0.5-0.1-1-0.1-1.5-0.2c0.1-1,0.2-2,0.2-3.1
			c0.1-1.2,0.1-2.5,0.1-3.7c0.1-0.4,0.1-0.8,0.1-1.2c0.1-1.3,0.1-2.5-0.1-3.8c-0.1-1.4-0.3-2.8-0.7-4.1c-0.2-0.7-0.4-1.3-0.7-2
			c-0.2-0.6-0.5-1.1-0.9-1.6c-0.4-0.5-0.8-1.1-1.3-1.5c-0.5-0.4-1-0.8-1.6-1.1c-0.3-0.2-0.7-0.3-1.1-0.4c-0.4-0.1-0.7-0.1-1.1-0.2
			c-0.7-0.1-1.5,0-2.2,0.1c-0.9,0.2-1.7,0.5-2.5,1c-0.5,0.3-0.9,0.6-1.3,1c-0.4,0.3-0.7,0.7-1,1.1c-0.7,0.8-1.3,1.6-1.7,2.5
			c-0.4,0.8-0.7,1.7-0.9,2.6c-0.1,0.7-0.2,1.5,0,2.2c0,0,0,0,0,0.1c-0.1,0.1-0.2,0.3-0.2,0.4c-0.6,3.7-0.9,7.4-0.7,11.1
			c0.1,1.9,0.2,3.8,0.5,5.7c0,0.1,0,0.3,0.1,0.4c0,0.9,0,1.9,0.1,2.8c0,0.6,0,1.3,0.1,1.9c0.1,1.1,0.1,2.3,0.3,3.4
			c-0.1,0.8-0.2,1.6-0.3,2.3c-0.1,0.9-0.1,1.9,0,2.8c0,0.5,0.1,1,0.2,1.5c0.1,0.3,0.1,0.7,0.3,1c0.2,0.5,0.4,0.9,0.7,1.3
			c0.3,0.4,0.6,0.8,1,1.2c0.4,0.4,0.8,0.8,1.3,1.1c0.3,0.2,0.6,0.5,1,0.6c0.3,0.1,0.6,0.3,0.9,0.4c0.2,0.1,0.3,0.1,0.5,0.2
			c0.1,0,0.3,0.1,0.4,0.1c0.2,0,0.5,0.1,0.7,0.1c0,0,0,0,0,0c0.2,0,0.5,0,0.7-0.1c0,0,0,0,0,0c0.3,0,0.6,0.1,0.9,0.1
			c0.1,0,0.2,0,0.2,0c1,0,2-0.2,2.9-0.6c0.4-0.2,0.8-0.3,1.2-0.6c0.7,0.3,1.3,0.5,2,0.7c0.8,0.2,1.6,0.3,2.4,0.4
			c0.4,0,0.8,0.1,1.2,0.1c0.4,0,0.7,0,1.1-0.1c0.8-0.1,1.6-0.2,2.3-0.4c0.8-0.2,1.6-0.5,2.3-0.8c0.6-0.3,1.2-0.6,1.7-1
			c0.7-0.5,1.3-1,1.8-1.7c0.5-0.6,0.9-1.2,1.3-2c0.1-0.1,0.1-0.2,0.2-0.4c0.2-0.1,0.3-0.2,0.5-0.4c0.4-0.4,0.8-0.8,1.1-1.2
			c0.2-0.3,0.4-0.7,0.6-1c0.2-0.5,0.4-0.9,0.5-1.4c0.1-0.5,0.2-1,0.1-1.5c0-0.5-0.1-1.1-0.2-1.6C68.9,36.4,68.6,35.4,68.1,34.5z
			 M59.2,39c0,0.1-0.1,0.3-0.1,0.4c0,0.2-0.1,0.3-0.2,0.4c0,0.1-0.1,0.2-0.1,0.2c0,0.1-0.1,0.1-0.1,0.2c0,0.1-0.1,0.1-0.1,0.1
			c-0.1,0.2-0.2,0.3-0.3,0.5c-0.1,0.2-0.3,0.4-0.5,0.5c-0.1,0-0.1,0.1-0.2,0.1c-0.1,0-0.1,0-0.2,0c-0.1,0-0.1,0-0.2,0
			c-0.1,0-0.1,0-0.2,0c-0.1,0.2-0.2,0.3-0.3,0.4c-0.3,0.2-0.7,0.3-1,0c-0.1-0.1-0.1-0.1-0.2-0.2c-0.1-0.1-0.1-0.2-0.2-0.3
			c0,0,0,0,0,0c-0.1,0-0.1,0-0.2-0.1c0,0-0.1,0-0.1,0c-0.1,0-0.1,0-0.2,0c-0.1,0-0.1-0.1-0.2-0.1c-0.1,0-0.2-0.1-0.3-0.2
			c0,0,0,0,0,0c0,0,0,0,0,0c-0.1,0-0.2-0.1-0.3-0.2c-0.1-0.1-0.1-0.1-0.2-0.2c-0.1-0.1-0.1-0.2-0.2-0.3c-0.1-0.1-0.1-0.3-0.2-0.5
			c0-0.1,0-0.1,0-0.2c0,0,0,0,0,0c0,0,0,0,0-0.1c0,0,0,0,0,0c0-0.1-0.1-0.2-0.1-0.3c0-0.2-0.1-0.3-0.1-0.5c0,0,0,0,0,0c0,0,0,0,0,0
			c0-0.3,0-0.5,0-0.8c0-0.2,0.1-0.5,0.1-0.7c0-0.1,0.1-0.3,0.2-0.4c0-0.1,0.1-0.2,0.1-0.3c0.1-0.1,0.2-0.2,0.3-0.3
			c0.1-0.1,0.2-0.2,0.3-0.3c0.2-0.1,0.4-0.2,0.5-0.2c0.1,0,0.2,0,0.2,0c0.1,0,0.3,0,0.4,0c0.1,0,0.2,0.1,0.4,0.1
			c0.1,0,0.3,0,0.4,0.1c0,0,0,0,0.1,0c0.1,0,0.1,0,0.2,0c0.1,0,0.3,0,0.4,0c0,0,0.1,0,0.1,0c0,0,0,0,0,0c0.1,0,0.2,0,0.3,0
			c0.1,0,0.2,0.1,0.2,0.1c0.1,0,0.1,0.1,0.1,0.1c0,0,0,0,0,0c0,0,0.1,0,0.1,0c0.1,0,0.2,0.1,0.2,0.1c0.1,0,0.2,0.1,0.3,0.2
			c0.1,0,0.1,0.1,0.1,0.2c0.1,0.1,0.1,0.2,0.2,0.3c0.1,0.1,0.1,0.3,0.2,0.4c0,0.1,0.1,0.3,0.1,0.4c0,0.1,0.1,0.3,0.1,0.5
			C59.3,38.7,59.3,38.8,59.2,39z"/>
		<g>
			<path class="st1" d="M69.4,33.8c-3.3-5.8-8.2-10.2-15.1-11c0.5,0.5,1,1,1.5,1.5c0.5-6.4,1.6-14.5-2.2-20.2
				C51,0.2,46-0.9,41.9,1.6c-2.4,1.4-4.4,4.2-5.3,6.8c-0.5,1.4-0.3,2.5-0.4,4c0.1,0.6,0.1,0.5,0-0.3c-0.3,0.7-0.5,1.4-0.4,2.2
				c-1.3,8.4,0.6,16.5,0.4,24.9C36,44.5,36.4,50,42.5,51.9c3.5,1.2,7.1-0.6,10.7,0.1C63.4,53.8,73.9,43.9,69.4,33.8
				c-0.8-1.8-3.4-0.2-2.6,1.5c1.6,3.5,0.3,5.6-1.6,8.6c-1.2,1.8-2.2,3.2-4.3,4.2c-1.9,0.9-4.1,1.3-6.2,1.1c-1.5-0.1-3.1-1.1-4.6-1.1
				c-2.1,0-4.2,1.7-6.5,1c-6.1-1.8-4.4-9.6-4.7-14.4c-0.3-4.5-0.9-9.1-0.8-13.7c0.1-3.7,0.1-9.4,1.6-12.9c3.1-6.9,10.7-6,12.6,0.6
				c1.4,4.9,0.7,10.5,0.3,15.4c-0.1,0.9,0.7,1.4,1.5,1.5c5.8,0.6,9.8,4.7,12.5,9.5C67.8,37,70.4,35.5,69.4,33.8z"/>
			<path class="st1" d="M57.8,38.6c-0.1,0.4-0.1,0.5-0.3,0.8c-0.2,0.2-0.3,0.3-0.4,0.6c-0.2,0.3-0.2,0.3,0.3,0.2
				c-0.6-0.1-1.4,0.1-1.7,0.7c0.3-0.5,1.5,0.4,0.8-0.3C56.3,40.2,56,40,55.7,40c-0.1,0-0.3,0-0.4-0.1c-0.5,0-0.5,0.1-0.1,0.1
				c0.5-0.3,0.3,0.3,0-0.2c-0.2-0.4-0.3-0.6-0.4-1.1c0-0.3,0-1.1,0.3-1.3c0.2-0.1,1,0.2,1.2,0.2c0.1,0,0.3,0,0.4-0.1
				c-0.2,0-0.2,0.1-0.1,0c0,0,0.9,0.1,0.9,0c-0.8-0.3-1-0.3-0.6,0c0.1,0.1,0.3,0.2,0.5,0.3c0.5,0.1,0.5,0.1,0.2,0
				c-0.3-0.1-0.3-0.1-0.1,0.1c0,0.3,0.1,0.6,0.1,1c-0.1,1.9,2.9,1.9,3,0c0.1-1.8-0.8-3.8-2.8-4c0.4,0.1,0.7,0.3,1.1,0.4
				c-0.3-0.2-0.5-0.4-0.9-0.5c-0.1,0-1.3-0.3-1.3-0.1c0.8,0,0.9,0,0.3-0.1c-0.2,0-0.4,0-0.6,0c-0.5,0.1-0.5,0.1-0.1,0
				c-0.2-0.1-0.5-0.2-0.8-0.2c-1.8-0.2-3.2,1.2-3.6,2.9c-0.2,1-0.2,2.2,0.2,3.2c0.2,0.4,0.4,0.8,0.7,1.2c0.1,0.2,1.3,0.9,0.5,0.4
				c0.4,0.3,0.7,0.6,1.1,0.7c0.2,0,0.4,0.1,0.6,0.1c0.6-0.1,0.5-0.1-0.1,0c-0.3-0.2-0.6-0.5-0.9-0.7c0.9,1.8,3.3,1.7,4.2,0
				c-0.6,0.2-1.1,0.5-1.7,0.7c2.1,0.5,3.6-1.7,4-3.6C61.1,37.5,58.2,36.7,57.8,38.6z"/>
		</g>
	</g>
	<g>
		<path class="st0" d="M104.1,34.5c0-0.4-0.1-0.8-0.2-1.3c0-0.4,0-0.8-0.1-1.1c-0.1-1.2-0.4-2.4-0.8-3.5c-0.3-0.6-0.5-1.2-0.9-1.8
			c-0.4-0.6-0.8-1.2-1.3-1.7c-0.8-1-1.9-1.9-3-2.7c-1.1-0.8-2.3-1.3-3.5-1.7c-0.5-0.2-1.1-0.3-1.7-0.3c-0.8-0.1-1.5-0.2-2.3-0.2
			c0,0-0.1,0-0.1,0c-1.3,0-2.7,0.2-4,0.4c-2.3,0.3-4.5,1.1-6.4,2.5c-0.3,0.2-0.7,0.5-1,0.8c-0.1,0.1-0.2,0.2-0.4,0.3
			c-0.4,0.4-0.8,0.8-1.2,1.2c-0.4,0.5-0.9,1.1-1.2,1.7c-0.6,1-1.1,2.1-1.6,3.2c-0.6,1.4-0.8,3-1,4.5c-0.1,1.4,0,2.9,0.3,4.3
			c0.3,1.4,0.8,2.7,1.5,3.9c0.3,0.5,0.6,1.1,1,1.6c0.5,0.6,0.9,1.2,1.5,1.8c0.5,0.5,1.1,1,1.7,1.4c0.5,0.4,1.1,0.8,1.7,1.1
			c0.6,0.4,1.3,0.7,2,0.9c0.6,0.3,1.3,0.4,2,0.6c4,0.9,8.2-0.1,11.7-2.1c0.9-0.5,1.7-1.1,2.5-1.8c0.6-0.5,1.1-1.1,1.5-1.8
			c0.4-0.4,0.7-0.8,1-1.2c0.4-0.6,0.8-1.2,1-1.8c0.4-0.8,0.6-1.6,0.8-2.4C104.3,37.7,104.3,36.1,104.1,34.5z M92.8,36.5
			c0,0.2-0.1,0.4-0.2,0.5c-0.1,0.2-0.2,0.4-0.2,0.6c-0.1,0.2-0.2,0.3-0.3,0.5c-0.1,0.1-0.1,0.2-0.2,0.2c-0.1,0.1-0.2,0.2-0.4,0.3
			c-0.1,0.1-0.2,0.1-0.3,0.1c-0.1,0-0.1,0-0.2,0c0,0,0,0-0.1,0.1c-0.1,0.1-0.1,0.1-0.2,0.1c-0.1,0.1-0.2,0.1-0.3,0.1
			c-0.1,0-0.3,0-0.4,0c0,0,0,0,0,0c-0.1,0-0.1,0-0.2,0c-0.2,0-0.4,0-0.6,0c-0.1,0-0.2,0-0.2,0c0,0-0.1,0-0.1,0
			c-0.2,0.1-0.4,0.1-0.6,0.1c-0.2,0.1-0.3,0.1-0.5,0.2c-0.2,0-0.4,0-0.5,0c-0.1,0-0.2,0-0.3,0c-0.3-0.1-0.5-0.1-0.8-0.3
			c-0.2-0.1-0.3-0.2-0.5-0.4c-0.1-0.1-0.2-0.3-0.4-0.4c-0.1-0.1-0.1-0.2-0.2-0.4c-0.1-0.2-0.2-0.4-0.3-0.6c-0.1-0.3-0.2-0.7-0.2-1
			c0-0.3,0-0.7,0-1.1c0,0,0,0,0,0c0,0,0,0,0,0c0-0.2,0-0.4,0.1-0.7c0-0.1,0.1-0.3,0.1-0.4c0,0,0,0,0,0c0,0,0-0.1,0-0.1c0,0,0,0,0,0
			c0-0.1,0-0.2,0.1-0.2c0.1-0.2,0.2-0.5,0.3-0.6c0.1-0.1,0.2-0.3,0.3-0.4c0.1-0.1,0.2-0.2,0.3-0.3c0.1-0.1,0.3-0.2,0.4-0.2
			c0,0,0,0,0,0c0,0,0,0,0,0c0.1-0.1,0.2-0.3,0.4-0.3c0.1,0,0.2-0.1,0.3-0.1c0.1,0,0.2,0,0.3,0c0,0,0.1,0,0.1,0
			c0.1,0,0.2-0.1,0.2-0.1c0,0,0,0,0,0c0.1-0.1,0.1-0.3,0.2-0.4c0.1-0.1,0.1-0.2,0.2-0.2c0.4-0.3,0.9-0.3,1.3,0
			c0.2,0.1,0.3,0.3,0.4,0.6c0.1,0,0.2-0.1,0.3-0.1c0.1,0,0.2,0,0.3,0c0.1,0,0.2,0,0.3,0.1c0.1,0,0.2,0.1,0.3,0.1
			c0.3,0.2,0.5,0.4,0.7,0.8c0.1,0.2,0.3,0.4,0.3,0.7c0.1,0.1,0.1,0.1,0.2,0.2c0.1,0.1,0.1,0.2,0.2,0.3c0.1,0.1,0.1,0.2,0.2,0.3
			c0.1,0.2,0.2,0.4,0.2,0.6c0,0.2,0.1,0.4,0.1,0.6c0,0.2,0,0.4,0,0.6C92.9,36.1,92.8,36.3,92.8,36.5z"/>
		<g>
			<path class="st1" d="M105.6,34.1c-0.7-4.9-1.6-8.6-5.5-11.9c-3.2-2.6-7-3.7-11.1-3.4c-9.8,0.6-17.4,8-16.8,18.2
				c0.5,8.4,7.6,15.3,16.1,15.3c9.9,0,17.9-7.9,17.3-17.8c-0.1-1.9-3.1-1.9-3,0c0.5,8.2-6,14.9-14.3,14.8c-7.4,0-13.3-6.4-13.1-13.8
				c0.3-8.4,7-13.9,15.2-13.8c8.2,0.1,11.2,6.1,12.3,13.2C103,36.8,105.9,36,105.6,34.1z"/>
			<path class="st1" d="M91.4,36.1c-0.1,0.4-0.2,0.9-0.5,1.2c0.2-0.2-0.2,0-0.4,0.1c-0.5,0.2-0.6,0.4,0,0.3c-0.3,0.1-0.9,0-1.2,0
				c-0.3,0-1.8,0.4-2.2,0.2c-0.8-0.4-0.9-1.7-0.8-2.5c0-0.3,0-0.5,0.1-0.7c0.2-0.5,0.4-0.5,0.6-1c0,0.1,0.6-0.5,0.1-0.3
				c-0.4,0.2,0.4,0,0.6,0c0.3-0.1,0.7-0.3,0.9-0.5c0.5-0.6,0.1,0-0.2-0.3c0.3,0.6,1.1,0.8,1.7,0.7c0,0,0.7,1.2,0.7,1.3
				c0.4,0.7,0.5,1.3,0.4,2.1c-0.2,1.9,2.8,1.9,3,0c0.3-2.6-1.7-7-4.9-6.2c0.6,0.2,1.1,0.5,1.7,0.7c-1.1-2-3.8-2.1-4.8,0
				c0.3-0.2,0.6-0.5,0.9-0.7c0.6,0.1,0.6,0.1,0,0c-0.2,0-0.5,0.1-0.7,0.1c-0.6,0.2-0.9,0.5-1.3,0.8c0.8-0.5-0.6,0.4-0.7,0.5
				c-0.4,0.4-0.6,0.9-0.8,1.3c-0.5,1.3-0.6,2.8-0.3,4.2c0.5,2.1,2.2,3.9,4.4,3.6c0.6-0.1,0.8-0.2,1.2-0.3c0.3,0,2.2-0.2,0.6-0.1
				c1,0,1.6-0.1,2.4-0.7c-0.4,0.1-0.7,0.3-1.1,0.4c1.9-0.2,2.7-1.7,3.2-3.4C94.8,35.1,91.9,34.3,91.4,36.1z"/>
		</g>
	</g>
</g>
<g>
	<path class="st0" d="M177.2,21c0-0.1,0-0.1,0-0.2c0.3-0.5,0.3-1.1,0.1-1.6c-0.2-0.5-0.5-1-1-1.2c0,0-0.1,0-0.1,0
		c-0.1-0.1-0.1-0.2-0.2-0.3c-0.4-0.5-0.8-0.9-1.3-1.2c-0.1,0-0.1-0.1-0.2-0.1c-0.4-0.3-0.8-0.6-1.3-0.7c-0.2-0.1-0.4-0.1-0.7-0.1
		c0-1,0-2-0.1-3c-0.1-1.4-0.3-2.8-0.7-4.1c-0.2-0.7-0.4-1.3-0.7-2c-0.2-0.6-0.5-1.1-0.8-1.6c-0.3-0.5-0.7-1.1-1.2-1.5
		c-0.5-0.4-0.9-0.8-1.5-1.1c-0.3-0.2-0.6-0.3-1-0.4c-0.3-0.1-0.7-0.1-1-0.2c-0.1,0-0.1,0-0.2,0c-0.6-0.1-1.3-0.1-1.9,0
		c-0.5,0.1-0.9,0.1-1.3,0.3c-0.4,0.1-0.7,0.3-1,0.5c-0.5,0.3-1.1,0.7-1.5,1.2c-0.3,0.3-0.5,0.7-0.7,1.1c-0.1,0.2-0.2,0.3-0.3,0.5
		c-0.1,0.2-0.2,0.3-0.3,0.5c0,0,0,0,0,0c-0.4,0.6-0.8,1.1-1,1.8c-0.4,0.8-0.7,1.7-0.8,2.6c-0.1,0.7-0.1,1.5,0,2.2c0,0,0,0,0,0.1
		c-0.1,0.1-0.2,0.3-0.2,0.4c-0.1,0.9-0.3,1.9-0.4,2.8c-0.2,0-0.4,0-0.6,0c-0.2,0-0.4,0-0.6,0c-0.6,0.1-1.1,0.2-1.6,0.4
		c-0.5,0.2-0.9,0.5-1.4,0.8c-0.2,0.2-0.4,0.4-0.6,0.6c-0.2,0.2-0.3,0.4-0.5,0.6c-0.2,0.3-0.4,0.7-0.4,1c-0.1,0.3-0.1,0.7-0.1,1.1
		c0,0.5,0.2,0.9,0.3,1.3c0.1,0.5,0.2,0.7,0.4,1.2c0.1,0.2,0.3,0.4,0.4,0.6c0.2,0.2,0.3,0.5,0.6,0.7c0.7,0.6,1.6,1,2.6,1.1
		c0.3,0,0.6,0.1,0.8,0.1c0.1,0.1,0.2,0.1,0.4,0.1c0.1,1.4,0.2,2.9,0.4,4.3c0,0.1,0,0.3,0.1,0.4c0,0.9,0,1.9,0.1,2.8
		c0,0.6,0,1.3,0.1,1.9c0.1,1.1,0.1,2.3,0.2,3.4c-0.1,0.8-0.2,1.6-0.3,2.3c-0.1,0.9,0,1.9,0,2.8c0,0.5,0.1,1,0.2,1.5
		c0.1,0.3,0.1,0.7,0.3,1c0.2,0.5,0.4,0.9,0.7,1.3c0.3,0.4,0.6,0.8,0.9,1.2c0.4,0.4,0.8,0.8,1.2,1.1c0.3,0.2,0.6,0.5,0.9,0.6
		c0.3,0.1,0.6,0.3,0.8,0.4c0.1,0.1,0.3,0.1,0.4,0.2c0.1,0,0.3,0.1,0.4,0.1c0.2,0,0.4,0.1,0.6,0.1c0,0,0,0,0,0c0.1,0,0.2,0,0.2,0
		c0.2,0,0.3,0,0.5-0.1c0,0,0,0,0,0c0.3,0,0.5,0.1,0.8,0.1c0.1,0,0.1,0,0.2,0c0.9,0,1.9-0.2,2.7-0.6c0.5-0.2,0.9-0.4,1.3-0.7
		c0.4-0.2,0.7-0.5,1-0.8c0.6-0.7,1-1.5,1.3-2.3c0.3-0.9,0.4-1.8,0.4-2.7c0.1-1.9-0.2-3.8-0.3-5.6c0-0.2,0-0.3,0-0.5
		c0.2-1.7,0.3-3.4,0.3-5.2c0-0.4,0.1-0.8,0.1-1.1c0-0.2,0.1-0.5,0.1-0.7c0.2-1.7,0.4-3.4,0.5-5.1c0.1,0,0.2,0.1,0.2,0.1
		c0.3,0.1,0.7,0.2,1.1,0.2c0.2,0,0.3,0,0.4,0c0.4-0.1,0.7-0.2,1.1-0.4c0.2-0.1,0.4-0.3,0.6-0.5c0,0,0.1-0.1,0.1-0.1
		c0.2-0.1,0.4-0.2,0.5-0.3c0.6-0.2,1.2-0.9,1.1-1.6c0,0,0,0,0,0C177.3,22.1,177.3,21.6,177.2,21z"/>
	<g>
		<path class="st1" d="M178.6,20.6c-0.4-1.4,0.2-1.5-0.4-2.8c-0.1-0.3-1.4-1.3-0.9-0.8c-1.3-1.3-2.6-2.4-4.4-2.8
			c0.4,0.5,0.7,1,1.1,1.4c0-6.9-2.8-18.2-12.3-15.1c-2.8,0.9-4.5,3.7-5.7,6.2c-0.9,1.8-0.9,3.2-1.1,5.1c-0.1,1.4,0,0.5,0,0.5
			c-0.1,1-0.4,2.3-0.5,3.4c0.5-0.5,1-1,1.5-1.5c-3.3,0.1-7,1.8-7.2,5.6c-0.3,4.7,3,5.8,6.6,7.1c-0.4-0.5-0.7-1-1.1-1.4
			c0.2,3.7,0.7,7.4,0.7,11.1c0.1,2.8-0.6,5.9,0.1,8.7c0.9,3.7,4.1,6.8,7.9,7.1c4,0.3,7.9-1.5,9.4-5.4c1.1-3,0.2-6.3,0.2-9.4
			c-0.1-4,0.6-8.1,1-12.1c-0.6,0.5-1.3,1-1.9,1.4c4,1.5,7.1-2.2,7.1-5.8c0-1.9-3-1.9-3,0c0,1.5-1.1,3.7-3.3,2.9
			c-1-0.4-1.8,0.6-1.9,1.4c-0.4,4.2-1,8.4-1,12.6c0,4.6,1,12.6-6.6,11.3c-5.5-0.9-5.1-6.3-5-10.5c0.1-4.5-0.5-8.9-0.8-13.4
			c0-0.7-0.4-1.2-1.1-1.4c-1.7-0.6-3.1,0.4-4.1-2.8c-0.8-2.6,1.6-4,4-4.1c0.9,0,1.4-0.7,1.5-1.5c0.4-3.5,0.6-7.3,2.8-10.2
			c2.4-3.2,6.5-3,8.7,0.2c1.9,2.7,2.1,6.8,2.1,10c0,0.6,0.5,1.3,1.1,1.4c2.7,0.6,3.1,2.2,3.7,4.3C176.3,23.3,179.1,22.5,178.6,20.6z
			"/>
	</g>
</g>
<g>
	<path class="st0" d="M146.8,27.3C146.8,27.3,146.8,27.3,146.8,27.3c0.2-0.8,0.1-1.5,0-2.3c-0.1-0.9-0.5-1.8-0.9-2.6
		c-0.5-0.9-1.1-1.7-1.7-2.5c-0.3-0.4-0.7-0.7-1-1.1c-0.4-0.4-0.9-0.7-1.3-1c-0.7-0.5-1.6-0.8-2.5-1c-0.7-0.2-1.5-0.2-2.2-0.1
		c-0.4,0-0.7,0.1-1.1,0.2c-0.4,0.1-0.7,0.2-1.1,0.4c-0.6,0.3-1.1,0.6-1.6,1.1c-0.5,0.4-0.9,1-1.3,1.5c-0.3,0.5-0.6,1.1-0.9,1.6
		c-0.3,0.7-0.5,1.3-0.7,2c-0.4,1.3-0.6,2.7-0.7,4.1c-0.1,1.3-0.2,2.5-0.1,3.8c0,0.4,0.1,0.8,0.1,1.2c0,0.6,0,1.3,0,1.9
		c0.1,0.4,0.2,0.8,0.2,1.1c-0.3,0.2-0.6,0.5-0.9,0.8c-0.1,0.1-0.3,0.3-0.4,0.4c-0.2,0.1-0.4,0.2-0.7,0.3c-0.4,0.1-0.7,0.2-1.1,0.3
		c-0.2,0-0.5,0-0.7,0c-0.2,0-0.4-0.1-0.6-0.2c-0.1-0.1-0.3-0.1-0.4-0.2c-0.1,0-0.1-0.1-0.2-0.1c-0.3-0.2-0.5-0.5-0.7-0.7
		c-0.4-0.5-0.7-1-0.9-1.6c-0.4-1.1-0.7-2.3-0.9-3.5c-0.2-1.5-0.2-3.1,0-4.6c0.1-0.8,0.3-1.7,0.6-2.5c0-0.1,0.1-0.2,0.1-0.3
		c0.1-0.3,0-1.6-0.1-1.8c-0.4-0.7-0.9-1.3-1.4-1.9c-0.3-0.4-0.7-0.7-1-1.1c-0.4-0.4-0.9-0.7-1.3-1c-0.7-0.5-1.6-0.8-2.5-1
		c-0.7-0.2-1.5-0.2-2.2-0.1c-0.4,0-0.7,0.1-1.1,0.2c-0.4,0.1-0.7,0.2-1.1,0.4c-0.6,0.3-1.1,0.6-1.6,1.1c-0.5,0.4-0.9,1-1.3,1.5
		c-0.3,0.5-0.6,1.1-0.9,1.6c-0.3,0.7-0.5,1.3-0.7,2c-0.1,0.4-0.2,0.8-0.3,1.3c-0.1,1.3-0.1,2.5,0,3.8c0.1,1.1,0.2,2.3,0.4,3.4
		c0.3,1.6,0.9,3.2,1.7,4.7c0.1,0.2,0.2,0.3,0.3,0.5c0.1,0.3,0.2,0.6,0.3,1c0.6,1.8,1.6,3.4,2.8,4.8c0.5,0.7,1.1,1.3,1.7,1.9
		c0.7,0.7,1.5,1.3,2.3,1.9c1.4,1.1,3.1,1.8,4.7,2.5c0.8,0.3,1.7,0.6,2.5,0.8c0.3,0.1,0.6,0.1,0.9,0.2c0.9,0.2,1.8,0.3,2.7,0.3
		c0.1,0,0.1,0.1,0.2,0.1c0.1,0,0.2,0,0.3,0c0,0,0,0,0,0c0,0,0,0,0,0c0.6,0.1,1.3,0.1,1.9,0.1c0.1,0,0.1,0,0.2,0c0.5,0,1.1,0,1.6-0.1
		c0,0,0.1,0,0.1,0c0.4,0,0.7,0.1,1.1,0.1c0,0,0,0,0,0c0.4,0,0.8-0.1,1.2-0.1c0.6-0.1,1.2-0.4,1.8-0.6c0.1-0.1,0.2-0.1,0.3-0.2
		c0.3,0.2,0.6,0.4,0.9,0.5c0.4,0.2,0.8,0.2,1.2,0.2c0.3,0,0.6,0,0.9-0.1c1.8-0.3,3.6-1.3,4.8-2.9c0.3-0.4,0.5-0.8,0.7-1.2
		c0.2-0.4,0.4-0.9,0.6-1.4c0.3-0.9,0.5-1.9,0.6-2.9c0-0.1,0-0.1,0-0.2c0.1-0.4,0.2-0.7,0.3-1.1c0.2-0.9,0.4-1.8,0.6-2.8
		c0-0.3,0.1-0.5,0.1-0.8c0-3.2-0.3-6.4-0.8-9.6C147,27.6,146.9,27.4,146.8,27.3z"/>
	<g>
		<path class="st1" d="M148.2,27.7c2.1-9.3-11.5-17.5-17.3-8.7c-1.4,2.1-2,4.7-2.4,7.1c-0.2,1.7,0.9,8-0.3,9.1
			c-3.2,3.1-4.1-4.5-4.2-5.7c-0.1-1.9,0.6-3.6,0.8-5.5c0.1-1.8-0.1-2.6-1-4.1c-2.6-4-7.9-6.2-12.2-3.8c-4.6,2.6-5.4,8.4-5,13.1
			c1.2,12.8,9.8,21.2,22.2,22.9c-0.5-0.5-1-1-1.5-1.5c0,0,0,0,0,0c0,0.9,0.7,1.4,1.5,1.5c2.8,0.3,5.1-0.2,7.8-0.4
			c0.9-0.1,1.5,0.4,3.1,0.3c1.8-0.1,3.6-1,5-2.1c5-4.2,6.4-18,3.4-23.4c-0.9-1.7-3.5-0.2-2.6,1.5c1.7,3,0.8,9.2,0.1,12.4
			c-0.2,0.8-0.2,1.9-0.5,2.7c-0.3,2-1.4,3.7-3.1,5c-1.6,0.8-3,0.9-4.4,0.3c-3,0.4-5.7,1-8.9,0.6c0.5,0.5,1,1,1.5,1.5c0,0,0,0,0,0
			c0-0.9-0.7-1.4-1.5-1.5c-8.4-1.1-14-5-17.2-12.8c-1.7-4.2-3.2-9.1-1.6-13.5c1.8-5.1,9.1-6.7,11.3-0.8c1,2.5-0.6,6.1-0.2,9
			c0.3,2.1,0.8,4.5,2.3,6.2c2.5,2.8,5.4,1.4,7.8-0.6c0.4-0.4,0.5-1,0.4-1.5c-0.9-4.3-0.8-10.4,1.6-14.2c3.8-6,13.5-0.2,12.1,6
			C144.9,28.8,147.8,29.6,148.2,27.7z"/>
	</g>
</g>
</svg>
