<?xml version="1.0" encoding="utf-8"?>
<!-- Generator: Adobe Illustrator 22.1.0, SVG Export Plug-In . SVG Version: 6.00 Build 0)  -->
<svg version="1.1" id="Layer_1" xmlns="http://www.w3.org/2000/svg" xmlns:xlink="http://www.w3.org/1999/xlink" x="0px" y="0px"
	 viewBox="0 0 513 385" style="enable-background:new 0 0 513 385;" xml:space="preserve">
<style type="text/css">
	.st0{fill:#A36B78;stroke:#584C4F;stroke-linecap:round;stroke-miterlimit:10;}
	.st1{fill:#E6C86B;stroke:#584C4F;stroke-miterlimit:10;}
	.st2{fill:#FCDE82;stroke:#584C4F;stroke-miterlimit:10;}
	.st3{fill:#FFD767;stroke:#584C4F;stroke-miterlimit:10;}
	.st4{opacity:0.1;fill:#231F20;stroke:#231F20;stroke-miterlimit:10;}
</style>
<g id="Layer_5">
</g>
<g id="Layer_3">
</g>
<g>
	<path class="st0" d="M274.3,387.2c0,0-1.2,8.5-0.3,10.6c0.9,2.1,4.4,0.9,4-0.4s0.1-10-1.1-10.3
		C275.7,386.9,274.5,386.6,274.3,387.2z"/>
	<path id="XMLID_240_" class="st0" d="M277.9,636.8c-1.8-38.4-3.4-85.6-4.6-110.1c-2.3-44.4,1.3-109.6,1.3-109.6l-18.7,1.6
		c0,0,3.8,115.2,0,139.4c-2.7,17.3,2.1,81.5,3.6,119"/>
	<path id="XMLID_239_" class="st0" d="M270.6,433.9c0,0,15-10.1,0-10.9"/>
	<g>
		<path class="st0" d="M266.2,390.4c0,0,8.5,1.2,10.6,0.3c2.1-0.9,0.9-4.4-0.4-4c-1.3,0.4-10-0.1-10.3,1.1S265.6,390.2,266.2,390.4z
			"/>
		<path class="st0" d="M269.3,390.3c0,0-3,1-3-1s-1-4,2-4s3,2,3,2S272.3,389.3,269.3,390.3z"/>
	</g>
	<path class="st0" d="M252.6,418.2c0,0-3.3-8.6,3.3-8.6s13.1-2.9,13.1,5.8s-6.6,8.6-6.6,8.6S255.9,426.8,252.6,418.2z"/>
	<path class="st0" d="M263.7,412.1c0,0-2.8-17.1,2.8-17.1s11.3-5.7,11.3,11.4s-5.6,17.1-5.6,17.1S266.5,429.2,263.7,412.1z"/>
	<path class="st0" d="M271.9,383.8c0,0-3.9,9.6-3.4,12.4c0.5,2.8,5.4,2.7,5.3,1c-0.1-1.7,3-11.7,1.5-12.5
		C273.7,383.9,272.2,383.1,271.9,383.8z"/>
	<g>
		<path class="st0" d="M261.2,385.9c0,0,9.6,3.9,12.4,3.4c2.8-0.5,2.7-5.4,1-5.3c-1.7,0.1-11.7-3-12.5-1.5S260.6,385.6,261.2,385.9z
			"/>
		<path class="st0" d="M264.4,387.4c0,0-3,1-3-1s-1-4,2-4s3,2,3,2S267.4,386.4,264.4,387.4z"/>
	</g>
	<path class="st0" d="M266.5,383.1c0,0-1.5,11.3-0.1,14.1c1.3,2.8,6.4,1.4,5.8-0.4c-0.6-1.8,0-13.3-1.9-13.7
		C268.5,382.7,266.7,382.4,266.5,383.1z"/>
	<g>
		<path class="st0" d="M255.4,388.4c0,0,11.3,1.5,14.1,0.1c2.8-1.3,1.4-6.4-0.4-5.8s-13.3,0-13.7,1.9
			C255,386.4,254.7,388.3,255.4,388.4z"/>
		<path class="st0" d="M258.2,389.1c0,0-3,1-3-1s-1-4,2-4s3,2,3,2S261.2,388.1,258.2,389.1z"/>
	</g>
	<g>
		<path class="st0" d="M251.1,405.2c0,0,7.3-8.5,7.8-11.4c0.5-2.9-4.1-4.1-4.7-2.4c-0.5,1.7-7.3,10.8-6.1,12
			S250.5,405.8,251.1,405.2z"/>
		<path class="st0" d="M252.7,403.5c0,0-1.4,2.8-2.8,1.4s-3.5-2.1-1.4-4.2s3.5-0.7,3.5-0.7S254.1,400.7,252.7,403.5z"/>
	</g>
	<path class="st0" d="M253.9,393.5c0,0,8.5,7.3,11.4,7.8c2.9,0.5,4.1-4.1,2.4-4.7s-10.8-7.3-12-6.1S253.3,392.9,253.9,393.5z"/>
	<g>
		<g id="XMLID_232_">
			<path id="XMLID_238_" class="st1" d="M241.3,380.6c0,0-1.3-6.2-7.4-4c-6.1,2.2-3.1,25.8-0.3,27.6
				C236.4,406,244.3,417.2,241.3,380.6z"/>
			<path id="XMLID_237_" class="st1" d="M239.9,391.9c0,0,10.7-10.6,8.5,9.2c0,0,2.5,6.1,7.5,3.6c5-2.5,5.7-33.9-18.2-25.1"/>
			<path id="XMLID_236_" class="st2" d="M252.7,381.7c0,0-1,0.5-1.3,1"/>
			<path id="XMLID_235_" class="st2" d="M237.2,377.2c0,0-1,0.5-1.3,1"/>
			<path id="XMLID_234_" class="st2" d="M240.5,402c-0.3,0.2-0.5,0.4-0.6,0.6"/>
			<path id="XMLID_233_" class="st2" d="M257.7,396.2c0,0-0.3,0.2-0.7,0.4"/>
		</g>
		<g id="XMLID_221_">
			<path id="XMLID_231_" class="st3" d="M238.5,383.3c0,0-1.3-6.2-7.4-4c-6.1,2.2-3.1,25.8-0.3,27.6
				C233.7,408.7,241.6,420,238.5,383.3z"/>
			<path id="XMLID_230_" class="st3" d="M237.1,394.7c0,0,10.7-10.6,8.5,9.2c0,0,2.5,6.1,7.5,3.6c5-2.5,5.7-33.9-18.2-25.1"/>
			<line id="XMLID_229_" class="st3" x1="233.7" y1="406.7" x2="234.7" y2="407.1"/>
			<path id="XMLID_228_" class="st3" d="M252,404c0,0,0.4,0.8-0.2,1.2"/>
			<path id="XMLID_227_" class="st3" d="M254.3,393.9c0,0-0.2,0.7-0.4,1"/>
			<path id="XMLID_226_" class="st3" d="M237.3,400.2c0,0,0.3-1.4,0-1.4"/>
			<path id="XMLID_225_" class="st3" d="M244.9,390.6c0,0,1.3,0.2,1.2,0.4"/>
			<path id="XMLID_224_" class="st3" d="M232.1,397.2c0,0,1.5-0.2,1.6-0.5"/>
			<path id="XMLID_223_" class="st3" d="M239.9,382.6c0,0-1,0.5-1.3,1"/>
			<line id="XMLID_222_" class="st3" x1="230.7" y1="384.3" x2="231.8" y2="384"/>
			<path class="st4" d="M237.8,381.4c-0.9-1.6-2.9-3.5-6.6-2.1c-1,0.4-1.8,1.3-2.3,2.6c3.5-1.1,5.3,0.7,6.2,2.3
				c18.2-4.7,20,16.3,17.1,23.6c0.3-0.1,0.7-0.2,1.1-0.4C257.9,405,258.8,376,237.8,381.4z"/>
		</g>
	</g>
	<path class="st0" d="M247.8,414.8c0,0,9.4,3,11.9,2.3c2.6-0.7,2.3-5.4,0.6-5.2c-1.6,0.2-11.3-2-11.9-0.5S247.2,414.5,247.8,414.8z"
		/>
	<g>
		<path class="st0" d="M249.8,401.5c0,0-3,9.4-2.3,11.9c0.7,2.6,5.4,2.3,5.2,0.6c-0.2-1.6,2-11.3,0.5-11.9
			C251.6,401.5,250,400.8,249.8,401.5z"/>
		<path class="st0" d="M249.6,401.6c0,0,1.4-2.8,2.8-1.4c1.4,1.4,3.5,2.1,1.4,4.2c-2.1,2.1-3.5,0.7-3.5,0.7S248.2,404.4,249.6,401.6
			z"/>
	</g>
</g>
</svg>
