<?xml version="1.0" encoding="utf-8"?>
<!-- Generator: Adobe Illustrator 22.1.0, SVG Export Plug-In . SVG Version: 6.00 Build 0)  -->
<svg version="1.1" id="Layer_1" xmlns="http://www.w3.org/2000/svg" xmlns:xlink="http://www.w3.org/1999/xlink" x="0px" y="0px"
	 viewBox="0 0 513 385" style="enable-background:new 0 0 513 385;" xml:space="preserve">
<style type="text/css">
	.st0{fill:#A36B78;stroke:#584C4F;stroke-linecap:round;stroke-miterlimit:10;}
	.st1{fill:#E6C86B;stroke:#584C4F;stroke-miterlimit:10;}
	.st2{fill:#FCDE82;stroke:#584C4F;stroke-miterlimit:10;}
	.st3{fill:#FFD767;stroke:#584C4F;stroke-miterlimit:10;}
	.st4{opacity:0.1;fill:#231F20;stroke:#231F20;stroke-miterlimit:10;}
</style>
<g id="Layer_5">
</g>
<g id="Layer_3">
</g>
<g>
	<g>
		<g>
			<path id="XMLID_24912_" class="st0" d="M244.1,499.5c-1.8-32.4-6.8-87.8-4.7-102.8c3-21-1.9-120.5-1.9-120.5l16.1-1.6
				c0,0-2.2,56.4,0.4,94.8c1.4,21.2,3.4,61.9,5.5,95.1"/>
			<path class="st0" d="M240,280.5c-1.4-0.5-2.9-1.5-4.4-3.3c-0.1-0.1-0.2-0.1-0.4-0.2c-2.1-1.1-6.1-8.6-6.1-8.6c0-0.1,0-0.2,0-0.2
				c-2.1-1.2-6-8.6-6-8.6c-0.2-0.6,1.1-1.1,2.4-1.7c0.9-0.4,3.4,2.9,5.2,5.2c0-2,0.3-5.7,0-6.2c-1.2-1.7-2.1-8.9-2.3-11.1
				c-0.3-0.1-0.6-0.3-0.8-0.6c-1.5-2.1-2.3-11.7-2.3-11.7c0-0.7,1.4-0.7,2.9-0.7s3.1,9.6,3.8,11c0.2,0.3,0.1,0.7-0.2,1.1
				c1.3,1.9,2.6,9.4,3.2,10.6c0.1,0.1,1,0.1,1.6,0.1c0.4,0,0.9-0.4,0.8-0.7c-1-2-0.4-9.3-0.2-11.5c-0.3-0.2-0.6-0.5-0.7-0.8
				c-1.2-2.4-0.1-12.2-0.1-12.2c0.2-0.7,1.7-0.4,3.3-0.1c1.6,0.3,1.3,10.3,1.8,11.8c0.1,0.4,0,0.8-0.4,1.1c1,2.1,0.8,9.9,1.3,11.3
				c0.1,0.2,2-0.2,2-0.6c-0.4-2,1.8-8.3,2.5-10.2c-0.2-0.2-0.4-0.6-0.4-0.9c-0.5-2.4,2.8-10.8,2.8-10.8c0.3-0.6,1.6,0.1,2.9,0.7
				c1.4,0.6-1.2,9.3-1.1,10.8c0,0.4-0.2,0.7-0.6,0.8c0.4,2.1-1.5,8.9-1.4,10.2c1.3,0.1,2.4,0.4,3.4,1c-0.1-2.9,0.4-7,0.4-7
				c0-0.1,0-0.1,0.1-0.2c-0.8-1.9,0.1-9.1,0.1-9.1c0.1-0.5,1.2-0.3,2.3-0.1c1.1,0.2,0.8,7.7,1.1,8.9c0.1,0.5-0.3,0.9-0.9,1.1
				c0.5,1.9,0.4,7.2,0.6,8.1c0.1,0.5-0.2,4.9-0.2,7.8c0.1,6.1-1.5,9.7-3.4,11.8"/>
			<path class="st0" d="M252.8,277.1c-0.2,0.2-0.5,0.5-0.7,0.7"/>
			<path id="XMLID_24911_" class="st0" d="M250.2,275.5c13,0.4,0.1,9.4,0.1,9.4"/>
			<path class="st0" d="M238.6,233.2c0,0,1.1,0.1,1.1-1.6s-1.1-1.1-2.1-1.2c-1.1-0.1-0.6,1.6-0.6,1.6
				C237.5,233.7,238.6,233.2,238.6,233.2z"/>
			<path class="st0" d="M227.7,236.1c0,0,1.1,0,1.1-1.6s-1.1-1.1-2.2-1.1c-1.1,0-0.5,1.6-0.5,1.6
				C226.6,236.7,227.7,236.1,227.7,236.1z"/>
			<path class="st0" d="M255.4,242c0,0,1.1,0,1.1-1.6s-1.1-1.1-2.2-1.1c-1.1,0-0.5,1.6-0.5,1.6C254.3,242.6,255.4,242,255.4,242z"/>
			<path class="st0" d="M250.5,235.8c0,0,1.2,0.4,1.8-1.6c0.5-1.9-0.9-1.6-2.2-1.9S249,234,249,234
				C249.1,236.1,250.5,235.8,250.5,235.8z"/>
			<path class="st0" d="M225.8,261.2c0,0,1-0.3,0.6-1.8c-0.5-1.6-1.3-0.7-2.4-0.4c-1.1,0.3-0.1,1.7-0.1,1.7
				C224.9,262,225.8,261.2,225.8,261.2z"/>
			<path id="XMLID_24910_" class="st0" d="M253.5,258.5c-0.3,3.2-2.3-0.1-2.3-0.1"/>
			<path id="XMLID_24909_" class="st0" d="M248.1,258.8c-0.3,3.2-2.3-0.1-2.3-0.1"/>
			<path id="XMLID_24908_" class="st0" d="M242.3,258.7c-0.3,3.2-2.3-0.1-2.3-0.1"/>
			<path id="XMLID_24907_" class="st0" d="M236.8,258.9c-0.3,3.2-2.3-0.1-2.3-0.1"/>
			<path id="XMLID_24906_" class="st0" d="M231.2,269.2c-5.1,2.5-2-3.6-2-3.6"/>
			<path id="XMLID_24905_" class="st0" d="M231.7,246.7c-0.1,1.2-0.4,1.5-0.8,1.4"/>
			<path id="XMLID_24904_" class="st0" d="M240.3,244.9c-0.5,0.3-1,0.5-1.4,0.7"/>
			<path id="XMLID_24903_" class="st0" d="M249.8,245.6"/>
			<path id="XMLID_24902_" class="st0" d="M249.7,246.3c-0.2,0.6-0.4,0.7-0.7,0.6"/>
			<path id="XMLID_24901_" class="st0" d="M254.9,249.7"/>
			<path id="XMLID_24900_" class="st0" d="M255,250.6c-0.2,0.2-0.5,0.1-0.8,0"/>
			<path id="XMLID_24899_" class="st0" d="M228.7,237.3c-0.9,0.8-1.4,0.8-1.6,0.4"/>
			<path id="XMLID_24898_" class="st0" d="M239.4,234.7c-0.6,0-1.2,0-1.6,0"/>
			<path id="XMLID_24897_" class="st0" d="M250.2,236.7c-0.5,0.3-0.8,0.2-1-0.1"/>
			<path id="XMLID_24896_" class="st0" d="M255.4,242.9c-0.1,0.2-0.5,0.1-0.8,0.1"/>
		</g>
		<path id="XMLID_24895_" class="st0" d="M250,252.2c0,0.2-0.1,0.8-0.1,1c-0.1,0.2-0.2,0.4-0.5,0.4c-0.1,0-4.5-0.4-4.9-0.6
			c-0.5-0.2-0.6-0.5-0.6-0.8c0,0,0.1-0.8,0.1-0.9c0.1-0.2,0.2-0.3,0.3-0.4c0.1-0.1,0.2-0.1,0.3-0.1c0.4,0,4.7,0.5,4.8,0.5
			C249.9,251.4,250.1,251.9,250,252.2z"/>
		<path id="XMLID_24894_" class="st0" d="M249.5,253.4c0.1,0,0.1-0.2,0.1-0.2"/>
		<path id="XMLID_24893_" class="st0" d="M244.5,251.1c0.1-0.1,0.2-0.1,0.2-0.1"/>
	</g>
</g>
<g>
	<g>
		<g>
			<g id="XMLID_17789_">
				<path id="XMLID_17795_" class="st1" d="M220.3,155.6c0,0-1.3-6.2-7.4-4c-6.1,2.2-3.1,25.8-0.3,27.6
					C215.4,181,223.3,192.2,220.3,155.6z"/>
				<path id="XMLID_17794_" class="st1" d="M218.9,166.9c0,0,10.7-10.6,8.5,9.2c0,0,2.5,6.1,7.5,3.6c5-2.5,5.7-33.9-18.2-25.1"/>
				<path id="XMLID_17793_" class="st2" d="M231.7,156.7c0,0-1,0.5-1.3,1"/>
				<path id="XMLID_17792_" class="st2" d="M216.2,152.2c0,0-1,0.5-1.3,1"/>
				<path id="XMLID_17791_" class="st2" d="M219.5,177c-0.3,0.2-0.5,0.4-0.6,0.6"/>
				<path id="XMLID_17790_" class="st2" d="M236.7,171.2c0,0-0.3,0.2-0.7,0.4"/>
			</g>
			<g id="XMLID_17778_">
				<path id="XMLID_17788_" class="st3" d="M217.5,158.3c0,0-1.3-6.2-7.4-4c-6.1,2.2-3.1,25.8-0.3,27.6
					C212.7,183.7,220.6,195,217.5,158.3z"/>
				<path id="XMLID_17787_" class="st3" d="M216.1,169.7c0,0,10.7-10.6,8.5,9.2c0,0,2.5,6.1,7.5,3.6c5-2.5,5.7-33.9-18.2-25.1"/>
				<line id="XMLID_17786_" class="st3" x1="212.7" y1="181.7" x2="213.7" y2="182.1"/>
				<path id="XMLID_17785_" class="st3" d="M231,179c0,0,0.4,0.8-0.2,1.2"/>
				<path id="XMLID_17784_" class="st3" d="M233.3,168.9c0,0-0.2,0.7-0.4,1"/>
				<path id="XMLID_17783_" class="st3" d="M216.3,175.2c0,0,0.3-1.4,0-1.4"/>
				<path id="XMLID_17782_" class="st3" d="M223.9,165.6c0,0,1.3,0.2,1.2,0.4"/>
				<path id="XMLID_17781_" class="st3" d="M211.1,172.2c0,0,1.5-0.2,1.6-0.5"/>
				<path id="XMLID_17780_" class="st3" d="M218.9,157.6c0,0-1,0.5-1.3,1"/>
				<line id="XMLID_17779_" class="st3" x1="209.7" y1="159.3" x2="210.8" y2="159"/>
				<path class="st4" d="M216.8,156.4c-0.9-1.6-2.9-3.5-6.6-2.1c-1,0.4-1.8,1.3-2.3,2.6c3.5-1.1,5.3,0.7,6.2,2.3
					c18.2-4.7,20,16.3,17.1,23.6c0.3-0.1,0.7-0.2,1.1-0.4C236.9,180,237.8,151,216.8,156.4z"/>
			</g>
		</g>
	</g>
</g>
</svg>
