<?xml version="1.0" encoding="utf-8"?>
<!-- Generator: Adobe Illustrator 22.1.0, SVG Export Plug-In . SVG Version: 6.00 Build 0)  -->
<svg version="1.1" id="Layer_1" xmlns="http://www.w3.org/2000/svg" xmlns:xlink="http://www.w3.org/1999/xlink" x="0px" y="0px"
	 viewBox="0 0 485.1 377.3" style="enable-background:new 0 0 485.1 377.3;" xml:space="preserve">
<style type="text/css">
	.st0{opacity:0.1;fill:#231F20;stroke:#231F20;stroke-miterlimit:10;enable-background:new    ;}
	.st1{fill:#E6C86B;stroke:#584C4F;stroke-width:2;stroke-miterlimit:10;}
	.st2{fill:#FCDE82;stroke:#584C4F;stroke-width:2;stroke-miterlimit:10;}
	.st3{fill:none;stroke:#584C4F;stroke-width:2;stroke-miterlimit:10;}
	.st4{fill:#FCDB77;stroke:#584C4F;stroke-width:2;stroke-miterlimit:10;}
	.st5{fill:#FFD767;stroke:#584C4F;stroke-width:2;stroke-miterlimit:10;}
	.st6{fill:#FFFAF2;stroke:#584C4F;stroke-width:2;stroke-miterlimit:10;}
	.st7{fill:#FFF5D0;stroke:#584C4F;stroke-width:2;stroke-miterlimit:10;}
	.st8{fill:#FFF0C2;stroke:#584C4F;stroke-width:2;stroke-miterlimit:10;}
	.st9{fill:#FDF7E0;stroke:#584C4F;stroke-width:2;stroke-miterlimit:10;}
	.st10{fill:#FBE391;stroke:#584C4F;stroke-width:2;stroke-miterlimit:10;}
	.st11{fill:#FBE7A0;stroke:#584C4F;stroke-width:2;stroke-miterlimit:10;}
	.st12{fill:#FDEBB0;stroke:#584C4F;stroke-width:2;stroke-miterlimit:10;}
</style>
<g id="Layer_5">
</g>
<g id="Layer_3">
</g>
<g>
	<path class="st0" d="M285.2,77c-1.2,6.6,5.9,25.3,18.1,23.2c4.8-0.8,7.9-5.5,9.9-10.9c-11.5,0.9-18.2-16.9-17-23.3
		c0,0-2.1-36.2-26.5-25.5c-3.6,1.6-6.3,5.1-8.3,10C283.2,43.7,285.2,77,285.2,77z"/>
	<g>
		<g id="XMLID_10821_">
			<path id="XMLID_10829_" class="st1" d="M307.1,55c0,0-2.1-36.2-26.5-25.5s-10.5,113.1,51.6,98.2S369,32.5,369,32.5
				s-25.8-23-30.4,16.8c0,0-1.4,26.7-13.4,28.8C313.1,80.2,305.9,61.7,307.1,55z"/>
			<g id="XMLID_10827_">
				<path id="XMLID_10828_" class="st1" d="M275.9,77.3c0,0-42.7,42.4-34.2-36.6c0,0-10.2-24.4-30-14.2S189,162,284.7,126.7
					c0,0,25.8-9.8,32.7-15"/>
			</g>
			<path id="XMLID_10826_" class="st2" d="M237.1,42.7c0,0-4,1.9-5.2,3.8"/>
			<path id="XMLID_10825_" class="st2" d="M299.1,42.6c0,0-4,1.9-5.2,3.8"/>
			<path id="XMLID_10824_" class="st2" d="M242.2,86.7c0,0-4,1.9-5.2,3.8"/>
			<path id="XMLID_10823_" class="st2" d="M310.2,75.6c0,0-4,1.9-5.2,3.8"/>
			<path id="XMLID_10822_" class="st2" d="M363.1,33.5c0,0-4,1.9-5.2,3.8"/>
		</g>
		<g id="XMLID_10753_">
			<path id="XMLID_10820_" class="st2" d="M296.2,66c0,0-2.1-36.2-26.5-25.5s-10.5,113.1,51.6,98.2S358,43.5,358,43.5
				s-25.8-23-30.4,16.8c0,0-1.4,26.7-13.4,28.8C302.1,91.2,295,72.7,296.2,66z"/>
			<g id="XMLID_10818_">
				<path id="XMLID_10819_" class="st2" d="M264.9,88.3c0,0-42.7,42.4-34.2-36.6c0,0-10.2-24.4-30-14.2S178,173,273.7,137.7
					c0,0,25.8-9.8,32.7-15"/>
			</g>
			<line id="XMLID_10817_" class="st3" x1="221.3" y1="133.9" x2="225.3" y2="135.5"/>
			<path id="XMLID_10816_" class="st2" d="M314.4,106.9c0,0,1.6,3.3-1,4.7"/>
			<path id="XMLID_10815_" class="st2" d="M357,100c0,0-0.7,3-1.6,4"/>
			<path id="XMLID_10814_" class="st2" d="M333,58.9c0,0,1.3-5.6,0-5.6"/>
			<path id="XMLID_10813_" class="st2" d="M210.5,40.7c0,0,5.2,0.7,4.7,1.6"/>
			<path id="XMLID_10807_" class="st2" d="M244.3,107.3c0,0,6.1-0.9,6.5-2"/>
			<path id="XMLID_10806_" class="st2" d="M275.1,45.7c0,0-4,1.9-5.2,3.8"/>
			<line id="XMLID_10791_" class="st3" x1="314.2" y1="92.6" x2="318.4" y2="91.5"/>
			<line id="XMLID_10790_" class="st3" x1="323.4" y1="132.3" x2="327.6" y2="131.2"/>
			<path class="st0" d="M285.2,77c-1.2,6.6,5.9,25.3,18.1,23.2c4.8-0.8,7.9-5.5,9.9-10.9c-11.5,0.9-18.2-16.9-17-23.3
				c0,0-2.1-36.2-26.5-25.5c-3.6,1.6-6.3,5.1-8.3,10C283.2,43.7,285.2,77,285.2,77z"/>
		</g>
	</g>
	<path class="st0" d="M219.6,62.7c-6.9,63.9,19.8,48.4,30.2,40.1c-0.3-1.4-0.6-2.8-0.9-4.1c-11.1,3.7-23.2-1.6-18.3-47
		c0,0-10.2-24.4-30-14.2c-2.6,1.3-4.9,4.6-6.8,9.3C210.9,41.8,219.6,62.7,219.6,62.7z"/>
	<path class="st0" d="M358.1,43.6c0,0-19.7-17.6-27.8,4.5c8.2-1.2,16.8,6.5,16.8,6.5s14.6,46.6-5.8,75.3
		C377.1,104.4,358.1,43.6,358.1,43.6z"/>
</g>
<g>
	<g>
		<g id="XMLID_10643_">
			<path id="XMLID_10738_" class="st1" d="M202.1,33.2c-49.3-36-87.6,9.4-87.6,9.4S83,115,143.2,134
				C203.2,152.9,251.4,69.2,202.1,33.2z M175.3,83c-11.3,29.7-46.5-16.8-21.5-20.3C153.7,62.8,186.6,53.3,175.3,83z"/>
			<path id="XMLID_10658_" class="st2" d="M194.1,33.8c0,0-4,1.9-5.2,3.8"/>
			<path id="XMLID_10657_" class="st2" d="M174.1,24.8c0,0-4,1.9-5.2,3.8"/>
		</g>
	</g>
	<g id="XMLID_10269_">
		<path id="XMLID_10642_" class="st4" d="M160.2,51.4"/>
		<path id="XMLID_10614_" class="st4" d="M191.1,44.2c-49.3-36-87.6,9.4-87.6,9.4S72,126,132.2,145
			C192.2,163.9,240.4,80.2,191.1,44.2z M164.3,94.1c-11.3,29.7-46.5-16.8-21.5-20.3C142.8,73.8,175.6,64.3,164.3,94.1z"/>
		<path id="XMLID_10613_" class="st4" d="M171.8,39.6"/>
		<line id="XMLID_10612_" class="st3" x1="115.8" y1="130.3" x2="119.8" y2="132.1"/>
		<path id="XMLID_10611_" class="st4" d="M176.2,133.9c0,0-0.7,3.6-3.6,3.2"/>
		<path id="XMLID_10610_" class="st4" d="M168.8,94.6c0,0-0.7,3-1.6,4"/>
		<path id="XMLID_10274_" class="st4" d="M204.9,92.3c0,0,1.3-5.6,0-5.6"/>
		<path id="XMLID_10273_" class="st4" d="M168.9,38.8c0,0,5.2,0.7,4.7,1.6"/>
		<path id="XMLID_10272_" class="st4" d="M135.2,103.5c0,0,5.1,3.5,6.1,2.9"/>
		<path id="XMLID_10271_" class="st4" d="M112.4,54.5c0,0-4,1.9-5.2,3.8"/>
		<line id="XMLID_10270_" class="st3" x1="136.2" y1="70.1" x2="140.4" y2="69"/>
		<path class="st0" d="M191.1,44.2c-49.3-36-87.6,9.4-87.6,9.4s-0.3,0.6-0.7,1.6c14.6-11,43.4-24.9,77.3,0
			c27.7,20.3,24.6,55.7,5.8,79.4C213.7,112.5,223.6,67.9,191.1,44.2z"/>
	</g>
</g>
<g>
	<g id="XMLID_10262_">
		<path id="XMLID_10268_" class="st1" d="M55.5,29.7c0,0-5.1-24.9-29.5-16s-12.2,103.1-0.9,110.4C36.3,131.4,67.9,176.3,55.5,29.7z"
			/>
		<path id="XMLID_10267_" class="st1" d="M50,75c0,0,42.7-42.4,34.2,36.6c0,0,10.2,24.4,30,14.2S137-9.7,41.2,25.5"/>
		<path id="XMLID_10266_" class="st2" d="M101.1,34c0,0-4,1.9-5.2,3.8"/>
		<path id="XMLID_10265_" class="st2" d="M39.1,16.1c0,0-4,1.9-5.2,3.8"/>
		<path id="XMLID_10264_" class="st2" d="M52.5,115.6c-1,0.7-2,1.5-2.5,2.3"/>
		<path id="XMLID_10263_" class="st2" d="M121.2,91.9c0,0-1.3,0.6-2.7,1.5"/>
	</g>
	<g id="XMLID_6178_">
		<path id="XMLID_10261_" class="st5" d="M44.5,40.8c0,0-5.1-24.9-29.5-16s-12.2,103-0.9,110.3C25.4,142.4,57,187.3,44.5,40.8z"/>
		<path id="XMLID_10260_" class="st5" d="M39,86.1c0,0,42.7-42.4,34.2,36.6c0,0,10.2,24.4,30,14.2S126,1.4,30.2,36.6"/>
		<line id="XMLID_10259_" class="st3" x1="25.4" y1="134.2" x2="29.4" y2="135.9"/>
		<path id="XMLID_10258_" class="st5" d="M98.5,123.5c0,0,1.6,3.3-1,4.7"/>
		<path id="XMLID_10257_" class="st5" d="M107.9,82.8c0,0-0.7,3-1.6,4"/>
		<path id="XMLID_10256_" class="st5" d="M39.9,108.2c0,0,1.3-5.6,0-5.6"/>
		<path id="XMLID_10255_" class="st5" d="M70,69.7c0,0,5.2,0.7,4.7,1.6"/>
		<path id="XMLID_10254_" class="st5" d="M19.1,96.1c0,0,6.1-0.9,6.5-2"/>
		<path id="XMLID_6180_" class="st5" d="M49.9,37.9c0,0-4,1.9-5.2,3.8"/>
		<line id="XMLID_6179_" class="st3" x1="13.2" y1="44.5" x2="17.5" y2="43.4"/>
		<path class="st0" d="M41.5,33.2c-3.7-6.5-11.4-13.9-26.5-8.5c-4,1.4-7,5.2-9.2,10.4C19.7,30.9,27,38,30.5,44.2
			c72.8-18.8,80.1,65,68.6,94.4c1.4-0.4,2.8-0.9,4.3-1.7C122.3,127.1,125.7,11.4,41.5,33.2z"/>
	</g>
</g>
<path id="XMLID_6175_" class="st1" d="M295.9,135.9c0,0-9-6.3-12.9-1.4c-3.9,5-10.6,13.4-2.5,29.8c7.9,16.5,37.7,2.8,40.6-4.9"/>
<path id="XMLID_6172_" class="st6" d="M316.2,265.7c-1.2-9.1-3.3-12.8-6.1-14.4c0,0-14.6-5.4-18.6,8.4s8.3,16.5,9.9,16.4
	C303.1,276,317.4,274.8,316.2,265.7z M306.8,264.8c-0.4,0.8-1.3,1.4-3.7,2c-2.4,0.5-3.1-3.3-3.1-3.7c-0.1-0.4,0.4-3.8,4.2-3
	C307.9,260.8,306.8,264.8,306.8,264.8z"/>
<g>
	<g id="XMLID_6160_">
		<path id="XMLID_6163_" class="st6" d="M338.5,269.8"/>
		<path id="XMLID_6162_" class="st6" d="M347,269.3c0-3.6-0.3-8.6,1.1-9.7c1.8-1.5,7.9-0.9,7,2.9c-0.5,2.2-0.5,4.7-0.5,6.4
			c0,1.2,0.1,2.2,0.1,2.5c0,1,0.4,3,3.7,3.3c4.4,0.5,5-0.9,5-4s3.6-18-9.1-20.6c-8.9-1.8-13.6,3.2-15.6,7.3"/>
		<path id="XMLID_6161_" class="st6" d="M347.4,259"/>
	</g>
	<g id="XMLID_6155_">
		<path id="XMLID_6159_" class="st6" d="M345.7,255.4c-1.4-2.4-3.8-4.4-7.7-5.2c-12.7-2.6-16.8,8.8-16.8,11.5c0,1.5,0.3,5.1,0.9,8.1
			"/>
		<path id="XMLID_6158_" class="st6" d="M322.2,269.9c0.5,2.6,8.5,0.6,8.5-0.5c0-3.6-0.3-8.6,1.1-9.7c1.5-1.2,5.8-1,6.9,1.1
			c0.2,0.5,0.3,1.1,0.2,1.8c-0.5,2.2-0.5,4.7-0.5,6.4c0,1.2,0.1,2.2,0.1,2.5c0,1,0.4,3,3.7,3.3c4.4,0.5,5-0.9,5-4
			c0-1.6,0.9-6.1,0.2-10.6"/>
		<path id="XMLID_6157_" class="st6" d="M331.2,259.1"/>
		<path id="XMLID_6156_" class="st6" d="M331.2,259.1c0.2,5.1-0.1,11-0.7,13.2c0,0-2.4,4.3-6.1,2.3s-4-22.7-1.7-23.6s6.7-3,7.8,1.8"
			/>
	</g>
</g>
<path id="XMLID_6154_" class="st6" d="M281.9,264.5c-0.6,0.2-1.2,1-1.8,1.7c-0.2,0.2-0.3,0.4-0.5,0.6c-0.1,0.2-0.6,0.6-0.7,0.6
	c-1.9,0.9-5.5,1.9-7-1.9c-0.1-0.3-0.3-1.4-0.3-1.7c0-0.5,0-1.1,0.1-1.5c0.4-4,1.7-5.8,3-6c1.5-0.2,4.4,0.9,5.2,2.8
	c0,0,0.8,3.6,2.8,3.1s5.8-2.6,2.8-6.5s-6-8-14.3-5.1c-8.4,2.9-6.8,13.5-6.5,14.3c0.3,0.7,4.7,15.5,16,8.9
	C292.2,267.4,283.1,264.1,281.9,264.5z"/>
<path id="XMLID_6153_" class="st7" d="M284.9,146.9c0,0-9-6.3-12.9-1.4c-3.9,5-10.6,13.4-2.5,29.8c7.9,16.5,37.7,2.8,40.6-4.9"/>
<g>
	<g id="XMLID_6113_">
		<path id="XMLID_6115_" class="st1" d="M236.7,132.3c-43.6-31.8-77.4,8.2-77.4,8.2s-27.7,63.8,25.3,80.7
			C237.8,238.1,280.2,164.1,236.7,132.3z M214.2,176.9c-10.9,28.8-45-16.3-20.8-19.7C193.4,157.2,225.2,148,214.2,176.9z"/>
		<path id="XMLID_6114_" class="st1" d="M219.7,128.3c0,0,33.8-36.3,34.7,31.7c0.8,68,12.3,130-52.8,129.7c0,0-35.4-16.4-0.1-34
			c17.3-8.5,20.8-26.3,20.3-48.5"/>
	</g>
	<g id="XMLID_5195_">
		<path id="XMLID_6112_" class="st8" d="M198.4,149.7"/>
		<path id="XMLID_6109_" class="st8" d="M225.7,143.3c-43.6-31.8-77.4,8.2-77.4,8.2s-27.7,63.8,25.3,80.7
			C226.8,249.1,269.2,175.2,225.7,143.3z M203.3,187.9c-10.9,28.8-45-16.3-20.8-19.7C182.4,168.2,214.2,159.1,203.3,187.9z"/>
		<path id="XMLID_6108_" class="st8" d="M208.7,139.3"/>
		<path id="XMLID_6107_" class="st8" d="M208.7,139.3c0,0,33.8-36.3,34.7,31.7s12.3,130-52.8,129.7c0,0-35.4-16.4-0.1-34
			c17.3-8.5,20.8-26.3,20.3-48.5"/>
		<line id="XMLID_6106_" class="st3" x1="187.4" y1="291.9" x2="191.5" y2="293.6"/>
		<path id="XMLID_6105_" class="st8" d="M222.4,285c0,0,1.6,3.3-1,4.7"/>
		<path id="XMLID_6104_" class="st8" d="M239.9,250.9c0,0-0.7,3-1.6,4"/>
		<path id="XMLID_6103_" class="st8" d="M236.6,207.5c0,0,1.3-5.6,0-5.6"/>
		<path id="XMLID_5199_" class="st8" d="M161.9,222c0,0,5.2,0.7,4.7,1.6"/>
		<path id="XMLID_5198_" class="st8" d="M225.5,165.8c0,0,6.1-0.9,6.5-2"/>
		<path id="XMLID_5197_" class="st8" d="M162.3,149.3c0,0-4,1.9-5.2,3.8"/>
		<line id="XMLID_5196_" class="st3" x1="206.2" y1="196.3" x2="202.4" y2="198.5"/>
	</g>
	<path class="st0" d="M243.6,182.1c0.2-3.2,0.2-6.3-0.2-9.4c0-0.5,0-1.1,0-1.6c-0.7-53.4-21.8-42.5-30.7-35.3
		c-37-16.3-64.4,15.9-64.4,15.9s-0.3,0.7-0.8,1.9c11.2-8.1,30.7-17.2,54.1-6.9c9-7.1,30-18.1,30.7,35.3c0,0.5,0,1.1,0,1.6
		c0.4,3.1,0.4,6.3,0.2,9.4c1.1,40.8,4.3,78.3-9.8,99.7C249.3,275.5,244.8,231.2,243.6,182.1z"/>
	<path id="XMLID_5194_" class="st2" d="M244.3,127.7c0,0-4,1.9-5.2,3.8"/>
	<path id="XMLID_5193_" class="st2" d="M198.3,123.8c0,0-4,1.9-5.2,3.8"/>
	<path id="XMLID_5192_" class="st2" d="M192.4,187.8c0,0-4,1.9-5.2,3.8"/>
	<path id="XMLID_5191_" class="st2" d="M251.7,215.6c-1.2,0.7-2.8,1.8-3.5,2.9"/>
	<path id="XMLID_5190_" class="st2" d="M250.5,238.7c0,0-0.7,0.4-1.7,0.9"/>
</g>
<g>
	<g>
		<path id="XMLID_5189_" class="st1" d="M331,149.2L331,149.2c-5.7-15.2-18.2-27.1-37.4-29c-38-3.7-53.7,21-59.6,35.9
			c0,0-1.3,2.2-2.3,6.6c-0.8,2.6-1,4.8-0.8,5.8c-0.5,8.2,0.8,20.4,8.6,36.6c6.3,13.2,22.2,17.9,32.8,19.5c3,0.6,6.2,1,9.6,0.9
			c0.2,0,0.3,0,0.3,0l0,0c3.7-0.1,7.6-0.5,11.8-1.5c16.7-3.8,28.2-14.5,34.6-27.7c-1.1-15.2-14.1-17-21.9-18.2
			c-4.3-0.6-8.6,2-12,4.7c-0.4,0.3-0.7,0.6-1,0.9c-11.3,8.3-40.8-7.9-25.2-20.2c0,0,5.3-5.6,11.5-8.1l0,0c0,0,5.1-2.6,9.3-1.1
			c1.6,0.6,3.1,1.8,4.1,4c0,0.1,0.1,0.2,0.2,0.4c0.5,1,1.1,2.2,1.8,3.3c5.1,8.3,16.5,19.2,27,11.6c12.2-8.8,10.8-12.1,11.3-15.5l0,0
			C334.1,154.7,331,149.2,331,149.2z"/>
	</g>
	<g>
		<path id="XMLID_5188_" class="st7" d="M320,160.2L320,160.2c-5.7-15.2-18.2-27.1-37.4-29c-38-3.7-53.7,21-59.6,35.9
			c0,0-1.3,2.2-2.3,6.6c-0.8,2.6-1,4.8-0.8,5.8c-0.5,8.2,0.8,20.4,8.6,36.6c6.3,13.2,22.2,17.9,32.8,19.5c3,0.6,6.2,1,9.6,0.9
			c0.2,0,0.3,0,0.3,0l0,0c3.7-0.1,7.6-0.5,11.8-1.5c16.7-3.8,28.2-14.5,34.6-27.7c-1.1-15.2-14.1-17-21.9-18.2
			c-4.3-0.6-8.6,2-12,4.7c-0.4,0.3-0.7,0.6-1,0.9c-11.3,8.3-40.8-7.9-25.2-20.2c0,0,5.3-5.6,11.5-8.1l0,0c0,0,5.1-2.6,9.3-1.1
			c1.6,0.6,3.1,1.8,4.1,4c0,0.1,0.1,0.2,0.2,0.4c0.5,1,1.1,2.2,1.8,3.3c5.1,8.3,16.5,19.2,27,11.6c12.2-8.8,10.8-12.1,11.3-15.5l0,0
			C323.1,165.7,320,160.2,320,160.2z"/>
		<line id="XMLID_5187_" class="st3" x1="234.8" y1="215.1" x2="237.4" y2="218.6"/>
		<path id="XMLID_5186_" class="st7" d="M307.2,211.1c0,0,1.6,3.3-1,4.7"/>
		<path id="XMLID_5185_" class="st7" d="M319.5,169.1c0,0-0.7,3-1.6,4"/>
		<path id="XMLID_5184_" class="st7" d="M250.3,174c0,0,1.3-5.6,0-5.6"/>
		<path id="XMLID_5183_" class="st7" d="M278.7,157.4c0,0,5.2,0.7,4.7,1.6"/>
		<path id="XMLID_5182_" class="st7" d="M273.1,231c0,0,6.1-0.9,6.5-2"/>
		<path id="XMLID_5181_" class="st7" d="M241.5,149.6c0,0-4,1.9-5.2,3.8"/>
		<line id="XMLID_5180_" class="st3" x1="301.9" y1="183.1" x2="306.1" y2="181.9"/>
	</g>
	<path class="st0" d="M320,160.2L320,160.2c-5.7-15.2-18.2-27.1-37.4-29c-26.5-2.7-42.2,8.6-51.2,20.7c9.3-6.9,22.3-11.4,40.2-9.7
		c19.1,1.9,31.5,13.8,37.3,29l0,0c0,0,3.1,5.6,2.5,9l0,0c-0.2,1.5-0.1,3-0.9,4.9c0.2-0.1,0.4-0.2,0.6-0.4
		c12.2-8.8,10.8-12.1,11.3-15.5l0,0C323.1,165.7,320,160.2,320,160.2z"/>
	<path id="XMLID_5179_" class="st2" d="M329.3,154.6c0,0-4,1.9-5.2,3.8"/>
	<path id="XMLID_5178_" class="st2" d="M296.3,124.6c0,0-4,1.9-5.2,3.8"/>
	<path id="XMLID_5177_" class="st2" d="M269.4,185.7c0,0-4,1.9-5.2,3.8"/>
	<path id="XMLID_5176_" class="st2" d="M324.4,196.6c0,0-4,1.9-5.2,3.8"/>
</g>
<g>
	<g>
		<path id="XMLID_5175_" class="st1" d="M353.9,106.3c0,0-5.2-29-29.5-18.7c-24.4,10.2-12.2,120.4-0.9,129
			C334.8,225.2,366.4,277.4,353.9,106.3z"/>
	</g>
	<g>
		<path id="XMLID_5174_" class="st9" d="M342.9,117.3c0,0-5.2-29-29.5-18.7c-24.4,10.2-12.2,120.4-0.9,129S355.4,288.4,342.9,117.3z
			"/>
		<path id="XMLID_5173_" class="st9" d="M333.1,224.6c0,0,1.6,3.3-1,4.7"/>
		<path id="XMLID_5172_" class="st9" d="M340.9,172.3c0,0,0.4,3,0.1,4.3"/>
		<path id="XMLID_5171_" class="st9" d="M309.5,192.9c0,0,1.3-5.6,0-5.6"/>
		<path id="XMLID_5153_" class="st9" d="M316.3,104.6c0,0-4,1.9-5.2,3.8"/>
	</g>
	<path class="st0" d="M342.9,117.3c0,0-5.2-29-29.5-18.7c-3.5,1.5-6.3,5-8.4,10c22.2-7.1,26.9,19.8,26.9,19.8
		c4.8,65.4,3.1,98.2-1.4,113.2C341.4,243.7,350.7,223.7,342.9,117.3z"/>
	<path id="XMLID_5152_" class="st2" d="M348.7,189.3c1.3,0.1,2.7,0,3.7-0.4"/>
	<path id="XMLID_5145_" class="st2" d="M347.8,212.2c0,0,1.3,0.1,2.8,0.1"/>
	<path id="XMLID_5144_" class="st2" d="M348.6,102.3c0,0-4.4,0.7-6,2.3"/>
</g>
<path id="XMLID_3926_" class="st5" d="M258.7,274.1c-0.4,0.8-1.3,1.4-3.7,2c-2.4,0.6-3.1-3.3-3.1-3.7c-0.1-0.4,0.4-3.8,4.2-3
	C259.8,270.1,258.7,274.1,258.7,274.1z"/>
<g>
	<g id="XMLID_6147_">
		<path id="XMLID_6152_" class="st1" d="M72.1,114.3c0,0-5.1-24.9-29.5-16s-12.3,103.1-1,110.4S84.6,260.8,72.1,114.3z"/>
		<path id="XMLID_6151_" class="st1" d="M66.6,159.6c0,0,42.7-42.4,34.2,36.6c0,0,10.2,24.4,30,14.2c19.9-10.2,22.7-135.5-73-100.2"
			/>
		<path id="XMLID_6150_" class="st2" d="M112.2,112.9c0,0-4,1.9-5.2,3.8"/>
		<path id="XMLID_6149_" class="st2" d="M128.3,127.9c0,0-4,1.9-5.2,3.8"/>
		<path id="XMLID_6148_" class="st2" d="M54.2,101c0,0-2.3,1.1-3.9,2.5"/>
	</g>
	<g id="XMLID_6136_">
		<path id="XMLID_6146_" class="st10" d="M61.2,125.3c0,0-5.1-24.9-29.5-16s-12.3,103.1-1,110.4C41.9,226.9,73.6,271.8,61.2,125.3z"
			/>
		<path id="XMLID_6145_" class="st10" d="M55.6,170.6c0,0,42.7-42.4,34.2,36.6c0,0,10.2,24.4,30,14.2c19.9-10.2,22.7-135.5-73-100.2
			"/>
		<line id="XMLID_6144_" class="st3" x1="43.4" y1="222" x2="47.4" y2="223.8"/>
		<path id="XMLID_6143_" class="st10" d="M116.5,211.4c0,0,1.6,3.3-1,4.7"/>
		<path id="XMLID_6142_" class="st10" d="M125.9,170.8c0,0-0.7,3-1.6,4"/>
		<path id="XMLID_6141_" class="st10" d="M58,196.1c0,0,1.3-5.6,0-5.6"/>
		<path id="XMLID_6140_" class="st10" d="M88,157.6c0,0,5.2,0.7,4.7,1.6"/>
		<path id="XMLID_6139_" class="st10" d="M37.2,184.1c0,0,6.1-0.9,6.5-2"/>
		<path id="XMLID_6138_" class="st10" d="M68,125.8c0,0-4,1.9-5.2,3.8"/>
		<line id="XMLID_6137_" class="st3" x1="31.3" y1="132.5" x2="35.6" y2="131.4"/>
		<path class="st0" d="M57.6,117.1c-3.7-6.5-11.4-13.9-26.5-8.5c-4,1.4-7,5.2-9.2,10.4c13.9-4.2,21.2,2.9,24.7,9.1
			c72.8-18.8,80.1,65,68.6,94.4c1.4-0.4,2.8-0.9,4.3-1.7C138.4,211.1,141.8,95.4,57.6,117.1z"/>
	</g>
	<path id="XMLID_6135_" class="st2" d="M136.7,193.5c-1,0.7-2,1.5-2.5,2.3"/>
	<path id="XMLID_6134_" class="st2" d="M69.4,200c0,0-1.3,0.6-2.7,1.5"/>
</g>
<g>
	<g>
		<g id="XMLID_6132_">
			<path id="XMLID_6133_" class="st1" d="M159,156.4c0,0,6.9-36.2-23.7-26s-11.9,89.7,4.3,86.3C155.7,213.4,163.1,200.7,159,156.4z"
				/>
		</g>
	</g>
	<g>
		<g id="XMLID_6130_">
			<path id="XMLID_6131_" class="st11" d="M148,167.5c0,0,6.9-36.2-23.7-26c-30.7,10.3-11.9,89.7,4.3,86.3
				C144.7,224.5,152.1,211.8,148,167.5z"/>
		</g>
		<line id="XMLID_6129_" class="st3" x1="122.2" y1="217.9" x2="126.2" y2="219.7"/>
		<path id="XMLID_6128_" class="st11" d="M142.4,205.3c0,0,1.6,3.3-1,4.7"/>
		<path id="XMLID_6127_" class="st11" d="M117.6,158.3c0,0-0.7,3-1.6,4"/>
		<path id="XMLID_6126_" class="st11" d="M143.2,160.3c0,0,1.3-5.6,0-5.6"/>
		<path id="XMLID_6125_" class="st11" d="M129.3,144.3c0,0,5.2,0.7,4.7,1.6"/>
	</g>
	<g>
		<path id="XMLID_6124_" class="st1" d="M136.2,87.2c0,0,34.5,19.6,0.6,34.3S113.1,69.1,136.2,87.2z"/>
		<path id="XMLID_6123_" class="st2" d="M145.2,100.9c0,0-4,1.9-5.2,3.8"/>
	</g>
	<g>
		<path id="XMLID_6122_" class="st12" d="M131.2,92.2c0,0,34.5,19.6,0.6,34.3S108.1,74.1,131.2,92.2z"/>
		<path id="XMLID_6121_" class="st12" d="M125.2,124.4c0,0,6.1-0.9,6.5-2"/>
		<path id="XMLID_6120_" class="st12" d="M121.9,94.6c0,0-4,1.9-5.2,3.8"/>
	</g>
	<path id="XMLID_6119_" class="st2" d="M145.9,134.7c-1.3,0.7-3.1,1.9-3.8,3.1"/>
	<path id="XMLID_6118_" class="st2" d="M154.4,199.9c0,0-1,0.5-2.2,1.2"/>
	<path class="st0" d="M148,167.5c0,0,6.9-36.2-23.7-26c-5.5,1.9-9.4,6-12.1,11.4c0.4-0.1,0.7-0.3,1.1-0.4c30.6-10.4,23.7,26,23.7,26
		c2.2,24,1.1,38.7-3,47.7C146.3,220.9,151.6,206.4,148,167.5z"/>
	<path class="st0" d="M126.2,97.2c0,0,21.7,12.4,13.7,24.9c19.3-13.8-8.8-29.9-8.8-29.9c-7.3-5.7-13.3-2.9-17,3
		C117.5,93.4,121.6,93.6,126.2,97.2z"/>
</g>
</svg>
