<?xml version="1.0" encoding="utf-8"?>
<!-- Generator: Adobe Illustrator 23.0.3, SVG Export Plug-In . SVG Version: 6.00 Build 0)  -->
<svg version="1.1" id="Layer_1" xmlns="http://www.w3.org/2000/svg" xmlns:xlink="http://www.w3.org/1999/xlink" x="0px" y="0px"
	 viewBox="0 0 42.8 43" style="enable-background:new 0 0 42.8 43;" xml:space="preserve">
<style type="text/css">
	.st0{fill:#FFFFFF;}
	.st1{fill:#2C2C2C;}
</style>
<g>
	<path class="st0" d="M41.2,32.6c-0.1-0.6-0.3-1.2-0.5-1.8c-0.3-0.7-0.6-1.3-0.9-1.9c-0.7-1.2-1.5-2.3-2.4-3.4
		c-0.8-1-1.7-1.9-2.6-2.7c-0.3-0.3-0.6-0.5-0.9-0.7c-0.4-0.4-0.8-0.9-1.3-1.3c0.5-0.6,1.1-1.2,1.6-1.9c0.1-0.1,0.2-0.2,0.4-0.3
		c1.4-1.2,2.9-2.4,4.2-3.7c0.6-0.7,1.2-1.4,1.6-2.2c0.4-0.8,0.6-1.7,0.7-2.6c0-0.5-0.1-0.9-0.2-1.4c-0.1-0.5-0.3-1-0.5-1.5
		c-0.4-0.9-1-1.7-1.6-2.5c-0.1-0.1-0.1-0.1-0.2-0.2C38.3,4.2,38,4,37.8,3.9c0,0,0,0,0,0c-0.1-0.2-0.3-0.4-0.4-0.6c0,0,0,0,0,0
		c-0.2-0.2-0.4-0.3-0.5-0.4c-0.1-0.1-0.2-0.2-0.4-0.2c-0.1-0.1-0.3-0.2-0.4-0.2c-0.3-0.1-0.6-0.3-0.9-0.4c-0.4-0.1-0.8-0.2-1.2-0.3
		c-0.6-0.1-1.1-0.1-1.7-0.1c-0.5,0-1,0.1-1.5,0.2c-0.5,0.1-1,0.2-1.4,0.4c-0.3,0.1-0.6,0.3-0.9,0.5c-0.4,0.3-0.8,0.6-1.2,1
		c-0.7,0.6-1.4,1.2-2,1.9c-0.5,0.6-1,1.2-1.5,1.8c-0.9,0.7-1.7,1.5-2.6,2.2c-0.2,0.2-0.5,0.4-0.7,0.6c-0.6-0.5-1.1-1-1.7-1.4
		c-0.1-0.1-0.2-0.2-0.3-0.4c-1.2-1.4-2.4-2.9-3.7-4.2c-0.7-0.6-1.4-1.2-2.2-1.6c-0.8-0.4-1.7-0.6-2.6-0.7c-0.5,0-0.9,0.1-1.4,0.2
		C7.9,2.3,7.4,2.5,7,2.7C6,3.1,5.2,3.7,4.5,4.4C4.4,4.4,4.4,4.5,4.3,4.5C4.1,4.7,3.9,5,3.8,5.2c0,0,0,0,0,0C3.5,5.3,3.3,5.5,3.2,5.6
		c0,0,0,0,0,0C3,5.8,2.8,6,2.7,6.2C2.6,6.3,2.5,6.5,2.4,6.6C2.4,6.7,2.3,6.9,2.2,7C2.1,7.3,2,7.6,1.9,7.9C1.8,8.3,1.7,8.7,1.6,9.1
		c-0.1,0.6-0.1,1.1-0.1,1.7c0,0.5,0.1,1,0.2,1.5c0.1,0.5,0.2,1,0.4,1.4c0.1,0.3,0.3,0.6,0.5,0.9c0.3,0.4,0.6,0.8,1,1.2
		c0.6,0.7,1.2,1.4,1.9,2c0.6,0.5,1.2,1,1.8,1.5c0.5,0.6,1,1.2,1.5,1.7c-1.2,1.3-2.3,2.7-3.3,4.2c-0.1,0.1-0.1,0.3-0.1,0.5
		c0,0,0,0,0,0c-0.6,0.4-1.1,1-1.6,1.6c-0.5,0.7-0.9,1.6-1.2,2.5c-0.3,1-0.5,2-0.6,3c0,0.5-0.1,1,0,1.5c0,0.6,0.1,1.1,0.2,1.7
		c0.2,0.9,0.6,1.7,1,2.4C3.6,39,4.1,39.5,4.7,40c0.3,0.2,0.6,0.4,0.9,0.6c0.3,0.2,0.7,0.3,1,0.5c0.6,0.2,1.2,0.3,1.9,0.4
		c0.6,0,1.3,0,1.9-0.2c0.6-0.1,1.2-0.3,1.8-0.5c0.7-0.3,1.3-0.6,1.9-0.9c1.2-0.7,2.3-1.5,3.4-2.4c1-0.8,1.9-1.7,2.7-2.6
		c0.2-0.2,0.4-0.5,0.6-0.8c1.4,1.2,2.8,2.3,4.2,3.3c0.1,0.1,0.3,0.1,0.5,0.1c0,0,0,0,0,0c0.4,0.6,1,1.1,1.6,1.6
		c0.7,0.5,1.6,0.9,2.5,1.2c1,0.3,2,0.5,3,0.6c0.5,0,1,0.1,1.5,0c0.6,0,1.1-0.1,1.7-0.2c0.9-0.2,1.7-0.6,2.4-1
		c0.6-0.4,1.2-0.9,1.7-1.5c0.2-0.3,0.4-0.6,0.6-0.9c0.2-0.3,0.3-0.7,0.5-1c0.2-0.6,0.3-1.2,0.4-1.9C41.4,33.9,41.3,33.2,41.2,32.6z"
		/>
	<g>
		<path class="st1" d="M42.6,32.2c-1.6-5.4-5.2-8.6-9.1-12.5c0,0.7,0,1.4,0,2.1c2.8-3.2,7.6-5.7,8.6-10.1c0.8-3.5-1.1-7-3.7-9.3
			c-7.5-6.6-14.1,2.2-19.2,6.9c0.7,0,1.4,0,2.1,0c-3.2-2.7-5.6-7.4-9.9-8.5C8.1,0,4.7,1.8,2.4,4.3c-2,2.2-2.8,4.9-2.2,8
			c0.8,4.4,4.9,6.7,7.6,9.8c0-0.7,0-1.4,0-2.1c-0.8,1-1.7,2-2.5,3c1.1-1.5-2.3,3.4-0.7,1.4c-1.1,1.3-2.2,2-3,3.7
			c-1.8,3.7-1.8,8.8,1,12.1c5.8,6.6,15.1,0.2,19.2-5c-0.7,0-1.4,0-2.1,0c1.5,1.3,3.2,2.4,4.7,3.6c-0.7-0.5,0.4,0.5,1.2,1.1
			c2.4,2.1,6.1,2.9,9.3,2.5C40.3,41.8,43.4,37.4,42.6,32.2c-0.3-1.9-3.2-1.1-2.9,0.8c0.9,6.3-6.7,7.9-11.1,5.2
			c-2.3-1.4-4.8-3.5-6.8-5.2c-0.6-0.5-1.6-0.7-2.1,0c-2.9,3.6-9.9,9.9-14.4,5.4c-5.2-5.2,1-12.2,4.5-16.4c0.5-0.7,0.6-1.5,0-2.1
			C6.8,16.4-0.2,11.6,4.5,6.5c0.3-0.3,0.7-0.8,1-1c3.5-2.2,6.2-1.8,9.1,0.9c1.7,1.6,3,3.5,4.8,5c0.6,0.5,1.5,0.6,2.1,0
			c3.8-3.5,9.4-11.5,15-6.8c7.1,6-1.4,10.8-5.1,15c-0.5,0.6-0.6,1.5,0,2.1c3.5,3.5,6.8,6.3,8.3,11.2C40.3,34.8,43.2,34.1,42.6,32.2z
			"/>
	</g>
</g>
</svg>
