<?xml version="1.0" encoding="utf-8"?>
<!-- Generator: Adobe Illustrator 22.1.0, SVG Export Plug-In . SVG Version: 6.00 Build 0)  -->
<svg version="1.1" id="Layer_1" xmlns="http://www.w3.org/2000/svg" xmlns:xlink="http://www.w3.org/1999/xlink" x="0px" y="0px"
	 viewBox="0 0 41.8 42.6" style="enable-background:new 0 0 41.8 42.6;" xml:space="preserve">
<style type="text/css">
	.st0{opacity:0.1;fill:#36423E;stroke:#36423E;stroke-linecap:round;stroke-miterlimit:10;}
	.st1{fill:#FCF4E9;stroke:#221F1F;stroke-miterlimit:10;}
</style>
<path class="st0" d="M35.2,7.3c-0.8-0.4-1.7-0.7-2.7-1c-2.1-0.6-4.5-0.8-7-0.8c-1.6,0-3.3,0-5.3,0.2c-1,0.1-4.1,0.1-5.5,0
	C12.1,5.6,8.3,6,7.1,9.1c-0.3,0.8-1.5,7.3-1.6,10.4c-0.1,6.6,1.1,14.3,1.2,14.5c0.7,3.5,2.6,6,7.3,7.2c2.1,0.6,4.5,0.8,7,0.8
	c2.4,0,10.3,0,12.6-0.2s4.8-1,5.7-3.3c0.3-0.7,1.1-4.4,1.4-5.4c0.3-1.1,0.8-17.6,0.5-20C40.9,10.1,39.5,7,35.2,7.3z"/>
<path class="st1" d="M36.2,8c-0.3-2.9-1.7-6-6-5.8c-0.8-0.4-1.7-0.7-2.7-1c-2.1-0.6-4.5-0.8-7-0.8c-1.6,0-3.3,0-5.3,0.2
	c-1,0.1-4.1,0.1-5.5,0C7.1,0.6,3.3,1,2.1,4.1c-0.3,0.8-1.5,7.3-1.6,10.4c-0.1,6.6,1.1,14.3,1.2,14.5c0.7,3.5,2.6,6,7.3,7.2
	c2.1,0.6,4.5,0.8,7,0.8c2.4,0,10.3,0,12.6-0.2c2.3-0.2,4.8-1,5.7-3.3c0.3-0.7,1.1-4.4,1.4-5.4C36,26.9,36.5,10.4,36.2,8z"/>
<path id="XMLID_1886_" class="st1" d="M26.8,18.2C34,34.5,1.5,29.9,10.1,18.6C10.1,18.6,19.5,1.8,26.8,18.2z"/>
<path id="XMLID_1888_" class="st1" d="M32.2,6.2c2.2,4.9-7.5,3.5-5,0.1C27.3,6.4,30.1,1.4,32.2,6.2z"/>
</svg>
