<?xml version="1.0" encoding="utf-8"?>
<!-- Generator: Adobe Illustrator 22.1.0, SVG Export Plug-In . SVG Version: 6.00 Build 0)  -->
<svg version="1.1" id="Layer_1" xmlns="http://www.w3.org/2000/svg" xmlns:xlink="http://www.w3.org/1999/xlink" x="0px" y="0px"
	 viewBox="0 0 464.1 1401.5" style="enable-background:new 0 0 464.1 1401.5;" xml:space="preserve">
<style type="text/css">
	.st0{opacity:0.1;fill:#231F20;stroke:#231F20;stroke-miterlimit:10;enable-background:new    ;}
	.st1{fill:#A36B78;stroke:#584C4F;stroke-width:2;stroke-linecap:round;stroke-miterlimit:10;}
	.st2{fill:#A36B78;stroke:#584C4F;stroke-width:2;stroke-linecap:round;stroke-linejoin:round;stroke-miterlimit:10;}
	.st3{fill:#FFD767;stroke:#584C4F;stroke-width:2;stroke-miterlimit:10;}
	.st4{fill:#A36B78;}
	.st5{fill:none;stroke:#584C4F;stroke-width:2;stroke-linecap:round;stroke-miterlimit:10;}
	.st6{fill:#BEAB72;}
	.st7{fill:#584C4F;stroke:#584C4F;stroke-width:2;stroke-linecap:round;stroke-miterlimit:10;}
	.st8{fill:#FFFFFF;stroke:#584C4F;stroke-width:2;stroke-linecap:round;stroke-miterlimit:10;}
</style>
<g id="Layer_5">
</g>
<g id="Layer_3">
</g>
<g>
	<path class="st0" d="M262.9,1401.2c30.3,1.1,253.3-17.9,181.1-122.8c-36.2-52.7-121-69.2-196.4-72.5c-0.9-56.4-1.6-144.7,1.8-183
		c9.9,0.5,11.1-13.5,2.8-16.8c0.4-5.2,0.5-12.7,0.3-22.8l0-0.1c0.1-8.3,0-17.8-0.3-28c0.2-30.8,1.3-64.9,2.6-96
		c6.2-8,15.9-22.7,14.9-18.8c-1.8,6.4-28.4,132.7-6.6,55.1c21.7-77.5,13-28.1,13-28.1c-0.8,106.6,8.7,21.5,11.4,8.1
		c2.7-13.4,20.2,71.2,17.2,29.5c-3-41.7,0.5-45.3,7.3-10.4c6.8,34.8,3.8-47.1,3.8-47.1s-1-18.2-5.3-22.6c-0.1-1.7-0.2-3.6-0.2-5.9
		c9.6-2.3,4.6-9-0.5-13.5c-0.4-11.9-0.9-27.3-1.2-44.6c0.1-0.1,0.1-0.2,0.1-0.3l0.1-0.1c0.1-0.4,0.2-1,0.3-1.7
		c0.3-2,0.4-4.1,0.6-6.1c0.6-6.2,1-15.3,1.4-25.2c2-0.8,3.6-2.4,4.9-4.5c0.2-0.2,0.3-0.4,0.4-0.6c8.4-15.3,0.9-56.9-5.3-73.3
		c-0.4-1.1-0.8-2.5-1.2-4c0-0.1-0.1-0.3-0.1-0.4c0.1-2.4,0.2-4.7,0.4-7c0.1-2.7,0.3-5.5,0.5-8.4c10.5,0.4,11.1-15.5,1-17.3
		c0.6-10.6,1.2-22.4,1.8-34.9c21.9-17.9,10.7-173.9,0.3-188.9c-2.5-3.6-9.7-7.2-19.5-10.6c-0.7-0.7-1.4-1.3-2.1-2
		c-0.1-0.1-0.1-0.1-0.2-0.2c-0.8-0.7-1.5-1.3-2.3-1.9c-0.1-0.1-0.2-0.2-0.3-0.3c-0.7-0.6-1.5-1.2-2.3-1.7c-0.1-0.1-0.3-0.2-0.4-0.3
		c-0.8-0.5-1.6-1-2.4-1.5c-0.1,0-0.3-0.1-0.4-0.2c-0.8-0.5-1.6-1-2.5-1.4c-0.1-0.1-0.2-0.1-0.3-0.2c-0.9-0.4-1.8-0.9-2.7-1.3
		c-0.1-0.1-0.1-0.1-0.2-0.1c-0.9-0.4-1.8-0.8-2.8-1.2c-0.1,0-0.1-0.1-0.2-0.1c-1-0.4-1.9-0.8-2.9-1.1c-0.1,0-0.3-0.1-0.4-0.1
		c-1-0.3-1.9-0.6-2.9-0.9c-0.2,0-0.3-0.1-0.5-0.1c-1-0.3-1.9-0.5-2.9-0.8c-0.2,0-0.3-0.1-0.5-0.1c-1-0.2-2-0.5-3-0.7
		c-0.1,0-0.3-0.1-0.4-0.1c-1-0.3-2.1-0.5-3.1-0.7c0,0-0.1,0-0.2,0c-1.1-0.2-2.1-0.4-3.2-0.6l-0.1,0c-1.1-0.2-2.1-0.3-3.2-0.5
		c-0.1-0.1-0.3-0.1-0.4-0.1c-1-0.1-2.1-0.3-3.1-0.4c-0.2-0.1-0.3-0.1-0.5-0.1c-1-0.1-1.9-0.2-2.9-0.3l0,0c0.1-0.7,0.1-1.4,0.1-2.2
		c0.1-1.9,0.1-5.4,0.2-9.6c4-3,3.5-6.3,2.3-8.5c0.5-0.3,0.9-0.5,1.4-0.8c0.1,0,0.1,0,0.1,0c0.8-0.4,1.6-0.9,2.3-1.4
		c0.1-0.1,0.2-0.1,0.3-0.2c0.6-0.4,1.3-0.9,1.9-1.3c0.1-0.1,0.2-0.1,0.3-0.2c0.8-0.5,1.5-1.1,2.2-1.6l0,0c0.7-0.5,1.3-1.1,2-1.6
		c0.1,0,0.2-0.1,0.3-0.2c1.3-1.1,2.6-2.2,3.9-3.4c0.1-0.1,0.1-0.1,0.2-0.2c0.6-0.6,1.2-1.2,1.8-1.8l0,0c0.7-0.6,1.3-1.3,1.9-1.9l0,0
		c0.6-0.6,1.1-1.3,1.7-1.9l0.1-0.1c1.1-1.3,2.2-2.7,3.2-4l0.1-0.1c1.1-1.4,2.1-2.8,3-4.2l0,0l0,0c6.3-9.2,10.5-19.2,12.4-28.4
		c1.2-0.5,2.5-1.2,3.9-2.1c8.8-5.4,7.6-9.5,3-12.5c1-0.7,2-1.6,2.9-2.6c7.6-7.9,3-11.6-3.2-13.1c0.3-1.5,0.6-3.1,0.9-4.7
		c1.7,1.3,3.8,2.5,6.4,3.6c12.9,4.8,23.1-32.9,22.5-67.9c-0.1-7.4-1.8-11.2-4.4-12.7c4.7-12.1,2.6-26.7-12-39.5
		c12.3-15.6-11.1-16.9-18.7-16.9c-0.7-1.5-1.4-2.9-2.2-4.3c6.8-1.5,12.1-3.6,16-5.6c4.6-2.1,8.8-4.4,10.1-6.9
		c0.5-0.6,11.5-17-33.6-20.2c-4.4-0.3-9.2-0.6-14.4-0.8c-5.1-28.9-22.7-62.7-78.7-39.8c-1.1-1.3-2.1-2.2-2.1-2.2
		c-7.1-3-12,2.4-13.2,7.8c-13.4,5.8-26.4,14.8-35.1,28.1c-1,1.5-1.8,2.9-2.6,4.2l0,0c0,0-0.1,0-0.1,0.1c-3.7,6.4-5.5,11.4-5.9,15.3
		c-3.8,11.9-1.3,34.2-1.3,34.2s0.2-0.1,0.6-0.3c0,0.1,0,0.1,0,0.1s0,0,0.1,0c-0.1,0.2-0.1,0.4-0.2,0.6c-0.2,0.7-0.5,1.4-0.7,2.1
		c-0.2,0.6-0.3,1.1-0.5,1.6c-0.2,0.7-0.4,1.4-0.6,2.1c-0.2,0.5-0.3,1-0.5,1.6c-0.2,0.7-0.4,1.5-0.6,2.2c-0.1,0.5-0.3,1.1-0.4,1.7
		c-0.2,0.7-0.3,1.5-0.5,2.2c-0.1,0.6-0.3,1.2-0.4,1.8c-0.1,0.8-0.3,1.5-0.4,2.3c-0.1,0.6-0.2,1.3-0.3,1.9c-0.2,0.8-0.3,1.6-0.4,2.4
		c-0.1,0.7-0.2,1.3-0.3,2c-0.1,0.8-0.2,1.6-0.3,2.4c-0.1,0.7-0.1,1.4-0.2,2.1c-0.1,0.8-0.1,1.7-0.2,2.5c-0.1,0.7-0.2,1.4-0.2,2.1
		c0,0.8-0.1,1.7-0.1,2.6c0,0.7-0.1,1.5-0.1,2.2c0,0.9,0,1.8,0,2.7c0,0.7,0,1.5,0,2.2c0,1,0.1,1.9,0.1,2.9c0,0.7,0,1.5,0,2.2
		c0.1,1,0.1,2.1,0.2,3.1c0,0.8,0.1,1.5,0.1,2.2c0.1,1.2,0.2,2.4,0.3,3.6c0,0.7,0,1.3,0.1,1.9c0.2,1.8,0.4,3.6,0.6,5.5
		c0,0.1,0,0.1,0,0.1c0.1,0.9,0.2,1.9,0.3,2.8c-10.7-8.5-23.5-14.5-22.4,6c1.9,34.9,14.8,71.9,27.2,66.2c1.1-0.6,2.1-1.1,3-1.7
		c0.3,2.2,0.6,4.3,0.8,6.4c0.3,2.2,0.7,4.4,0.9,6.5c0.8,5.2,1.6,10.1,2.6,14.5c0.8,3.5,1.5,6.8,2.4,9.9c0.2,0.8,0.5,1.6,0.7,2.3
		c1.5,4.4,3,8.4,4.8,11.9c0.3,0.6,0.6,1.1,0.9,1.7c0.6,1.2,1.3,2.3,2,3.3c0.4,0.5,0.7,1,1.1,1.5c1.3,1.8,2.7,3.4,4.2,4.9
		c5.9,6.2,13.7,10.4,24.1,13.8c-0.4,4.2-0.6,8.1-0.5,10.4l1.8,6.4c-17,2.7-30.1,7.7-38,14.1c-7,2-17.7,5.7-26.1,11.9
		C104,388.4,99,394,97.3,401.2c-0.2,0.8-0.3,1.7-0.4,2.5c-0.2,1.6-0.4,3.7-0.7,6.2c-5.9,29.9-10.9,89.4-8.1,130.2
		c-1.9,29.7-3.5,53.8-4.6,59c-0.5,2.8-2.2,11.5-4,23.1c-0.2,1.5-0.4,2.9-0.6,4.4c-5.7,39.4-11.9,106.5,10.7,112.1
		c0.4,16.6,0.9,30,0.9,30s0.2,0,0.5,0c0.7,5.9,2.5,12.1,5.2,18.4c-0.1,2.7-0.2,5.2-0.4,7.7c-6.2,2.4-4,8.5-0.7,13.3
		c-0.2,3.8-0.5,7.2-0.6,10c-0.7,1.1-1.7,2.8-3,4.9c-10.3,16.6-36.7,61.2-24.8,61.5c0.1,0,0.3,0,0.4,0c0.3,0,0.6,0,0.9,0
		c0.1,0,0.3,0,0.5,0s0.5,0,0.7,0s0.3,0,0.5,0c0.2,0,0.4,0,0.6,0c0.2,0,0.3,0,0.5,0c0.2-0.1,0.4-0.1,0.6-0.1c0.1-0.1,0.3-0.1,0.4-0.1
		c0.2,0,0.4-0.1,0.6-0.1c0.1-0.1,0.2-0.1,0.3-0.1c0.2,0,0.4-0.1,0.6-0.1c0.1-0.1,0.2-0.1,0.3-0.1c0.2-0.1,0.4-0.1,0.6-0.2
		c0.1-0.1,0.1-0.1,0.2-0.1c0.2-0.1,0.4-0.1,0.6-0.2l0.1,0c0.2,0,0.4-0.1,0.6-0.2l0,0c1.4-0.7,2.2-1.5,2.7-2.3
		c-0.1,0.3-0.1,0.7-0.2,1.1l0,0.1c-0.1,0.1-0.1,0.3-0.1,0.5c0,0,0,0.1,0,0.2c-0.1,0.2-0.1,0.5-0.1,0.7c0,0.2,0,0.3,0,0.5
		c0,0.1,0,0.3,0,0.4c0,0.1,0,0.3,0,0.4c0,0.1,0,0.3,0,0.4c0,0.1,0,0.3,0,0.5c0,0.1,0,0.2,0,0.3c0,0.3,0,0.5,0,0.8c0,0.1,0,0.2,0,0.3
		c0,0.2,0,0.4,0,0.6c0,0.1,0,0.2,0,0.3c0.1,0.2,0.1,0.5,0.1,0.7c0,0.1,0,0.1,0,0.2c0,0.3,0.1,0.5,0.1,0.8c0,0.1,0,0.1,0,0.2
		c0,0.2,0,0.4,0.1,0.6c0.1,0.1,0.1,0.1,0.1,0.2c0.1,0.3,0.1,0.5,0.2,0.7c0,0.1,0,0.1,0,0.1c0.1,0.3,0.2,0.5,0.3,0.7
		c0.1,0,0.1,0.1,0.1,0.1c0.1,0.2,0.2,0.3,0.3,0.5l0.1,0.1c0.1,0.2,0.3,0.3,0.4,0.5l0,0c0.2,0.2,0.3,0.4,0.5,0.5l0.1,0.1
		c0.2,0.1,0.3,0.2,0.5,0.3c0.1,0,0.1,0.1,0.2,0.1c0.2,0.1,0.4,0.1,0.6,0.2l0,0c0.2,0,0.4,0.1,0.7,0.1c0.1,0,0.1,0,0.2,0
		c0.2,0,0.4,0,0.6,0c0,0,0.1,0,0.2,0c0.3,0,0.6,0,0.9-0.1l0,0c0.3,0,0.7-0.1,1-0.2c0.1,0,0.2-0.1,0.3-0.1c0.2-0.1,0.5-0.2,0.8-0.3
		c0.1,0,0.2-0.1,0.3-0.1c0.4-0.1,0.8-0.3,1.2-0.5l0,0l0.3-3l0,0c0,0,0.1,0.1,0.1,0.2c0,0.1,0.1,0.1,0.1,0.2c0.1,0.1,0.1,0.2,0.2,0.3
		c0,0.1,0.1,0.1,0.1,0.2c0.1,0.1,0.1,0.2,0.2,0.3c0,0.1,0.1,0.1,0.1,0.2c3.2,4.8,10.5,13.6,16.8,2.4l2.2-0.9
		c5,4.1,15.4,10.4,14-10.5c1.8,0.2,4,0.1,6.9-0.2l0,0c0.5-0.1,1.1-0.2,1.7-0.3l0.1,0c0.6-0.2,1.2-0.3,1.8-0.4c0.1,0,0.3-0.1,0.4-0.1
		c0.6-0.1,1.3-0.2,1.9-0.4l0,0c1.3-0.3,2.4-0.7,3.5-1.2c0.5,24.7,0.7,50.2,0.4,73.8c-0.4,10.2-0.7,19.6-0.7,28l0,0.1
		c-0.8,21.1,0,30.5,1.8,32.7c3.8,34.1,1.1,133.8-0.9,193.6c-19.2,1.7-31,3.4-31,3.4c-50,11.5-89.4,38.7-111.4,107.8
		C-25.6,1389.1,232.6,1400.2,262.9,1401.2z M137.1,839.6c-4.7-8.7-9.6-15.4-9.6-15.4l-0.1,0c-0.1-1.9-0.2-5.2-0.2-9.6
		c2.8,0.8,5.8,1.7,9.1,2.5C136.6,824.2,136.9,831.7,137.1,839.6z M255.3,851c0.6-13.5,1.2-26.2,1.9-37.8c7.7-2.9,14.8-6.6,20.9-10.6
		c-0.3,9.2-0.6,16.3-0.8,20.5l-0.2,0C265.6,834.4,260.8,839.6,255.3,851z M217.6,1205.3c-17.4-0.1-33.8,0.5-48.4,1.3
		c-1-40.2-1.6-96.1,1.1-140.3c0.7-11.3,1.4-25.3,2.3-41c9.3-3.2,7.1-14.2,0.8-16.9c2.9-59.1,6.5-135.3,10.1-185.8
		c5.7,0.2,11.9,0.3,18.5,0.3c2.6,0,5.2-0.2,7.7-0.2c3.8,69.8,6.5,189.3,9,244.1C220.6,1110.2,219.1,1165.2,217.6,1205.3z"/>
	<g>
		<g>
			<g id="XMLID_4075_">
				<path id="XMLID_4076_" class="st1" d="M333.4,601.7c17.3-4.9,17.4,21.3,2.3,16.9"/>
			</g>
			<path id="XMLID_4074_" class="st1" d="M315.3,355c-3.4,67.9-13,184.2-8.4,215.6c6.5,44-2.2,252.7-2.2,252.7l33.8,3.2
				c0,0-5.4-118.4-0.6-198.8c2.7-44.4,6.2-130,10.1-199.5"/>
			<g id="XMLID_4072_">
				<path id="XMLID_4073_" class="st1" d="M335.6,820.2c6.6-2.2,8,24.3,8,24.3s3,84.5-3.8,48.6c-6.8-36.1-10.2-32.4-7.3,10.7
					c2.9,43.1-14.5-44.1-17.2-30.5s-12.4,101.7-11.4-8.4c0,0,8.6-51-13.1,29c-21.7,80,4.9-50.4,6.6-57c1.7-6.7-26,38.9-18.4,20
					s11.8-23.5,25.8-37.9"/>
			</g>
			<path id="XMLID_4071_" class="st1" d="M319.6,604.9c0.4-1.2,6-2.3,6-2.3"/>
			<path id="XMLID_4070_" class="st1" d="M331.9,613.2c-1,3.5-5.5,2.7-5.5,2.7"/>
			<path id="XMLID_4069_" class="st2" d="M331.4,815.8c27.2-1.2,0.2-19.7,0.2-19.7"/>
		</g>
		<path id="XMLID_4068_" class="st3" d="M304.4,353.7c18.2,5,33.4,10.7,37.3,16.4c11,16.4,22.8,196.1-4.6,196.9
			c-27.4,0.8-31.2-0.5-30.5-10.2c0.7-9.8-10.9-122.7-6.5-131.2"/>
		<g>
			<path class="st1" d="M228.7,1307.9c-0.1,2.5,0.6,4.7,2.6,6.8c0.5,0.5,1.1,1,1.8,1.5c2.3,1.7,6.1,3,10.8,4
				c3.6,0.7,7.7,1.3,12.3,1.7c2.9,0.3,5.9,0.6,9.1,0.7c2.4,0.2,4.9,0.2,7.4,0.4c2.5-0.1,5-0.2,7.4-0.2c3.2-0.2,6.2-0.3,9.1-0.5
				c4.6-0.3,8.7-0.8,12.3-1.5c4.7-0.9,8.5-2.1,10.8-3.8c0.7-0.5,1.3-1,1.8-1.5c1.6-1.6,2.4-3.3,2.6-5.1c-17.6-7.6-32.4-20.4-36-41.9
				c-2.1-2-3.4-3.2-3.4-3.2s-0.4-0.6-1.1-1.4c-0.1-0.2-0.3-0.4-0.5-0.6c0-0.1-0.1-0.3-0.1-0.4c-0.3-1-0.5-2.6-0.7-4.8l-1.7-0.1
				l-1.7,0.1l-30.5,2.4c-0.3,7.8-0.4,12.7-0.4,13.8c0,0.1,0,0.2,0,0.2s0.1,0,0.3,0c-1.8,6.7-3.9,12.2-5.9,16.8
				c-2.1,5-4.2,9.1-5.3,12.6C229.2,1305.3,228.9,1306.7,228.7,1307.9z"/>
			<path class="st1" d="M232.1,763.3c6.8,11.3,10.9,226.8,14.3,307.3s-4,198.8-4,198.8l33.8-2.6c0,0-4.8-196.8,1.6-248.4
				c1.8-2.2,2.8-12,2.4-33.8l0-0.1c0.1-8.7,0-18.5-0.2-29c0.3-89.3,8.6-204.8,8.6-204.8"/>
			<g>
				<g id="XMLID_4066_">
					<path id="XMLID_4067_" class="st1" d="M336.4,1322.7c-4.3-9.8,7.8-8.5,7.8-8.5C354.2,1321,340.6,1332.4,336.4,1322.7z"/>
				</g>
				<g id="XMLID_4064_">
					<path id="XMLID_4065_" class="st1" d="M328.5,1322.2c-4.7-10.8,8.7-9.4,8.7-9.4C348.4,1320.3,333.3,1333,328.5,1322.2z"/>
				</g>
				<g id="XMLID_4062_">
					<path id="XMLID_4063_" class="st1" d="M318.6,1321.4c-5.5-12.6,10.1-11,10.1-11C341.7,1319.3,324.2,1334,318.6,1321.4z"/>
				</g>
				<g id="XMLID_4060_">
					<path id="XMLID_4061_" class="st1" d="M306.4,1320.6c-6.4-14.5,11.5-12.6,11.5-12.6C332.8,1318.2,312.7,1335,306.4,1320.6z"/>
				</g>
				<path id="XMLID_4059_" class="st1" d="M279.6,1319.6c1.5-5.9,19-19.8,28.7-6c9.7,13.9-11.5,12.3-11.5,12.3
					S278.2,1325.6,279.6,1319.6z"/>
			</g>
			<path id="XMLID_4058_" class="st1" d="M253.5,1004.7c0-3.7,4.6-4,4.6-4"/>
			<path id="XMLID_4057_" class="st1" d="M270.7,1031.2c-0.3,1.3-5.7,3-5.7,3"/>
			<g id="XMLID_4055_">
				<path id="XMLID_4056_" class="st1" d="M275,1257.9c17.9,2.4,7.5,26.5-4.6,16.4"/>
			</g>
			<g id="XMLID_4053_">
				<path id="XMLID_4054_" class="st1" d="M271.9,1008.1c17.3-4.9,17.4,21.3,2.3,16.9"/>
			</g>
		</g>
		<path class="st1" d="M117.9,762.7c0,0,0.2,0,0.5,0c1,8.3,3.8,17,8.6,26.2c0,0,2.4,30.5,102.6,29.8c61.4-0.5,100.5-30.1,107-64.2
			l0.1-0.1c0.1-0.3,0.2-1,0.3-1.7c0.3-2.1,0.4-4.2,0.6-6.3c1.7-22.4,3.3-81.3,3.3-81.3l-222.2,6.4
			C114.8,689.3,117.9,762.7,117.9,762.7z"/>
		<g>
			<path class="st3" d="M136.3,725.4c4.7-1.1,10.4-2.1,16.9-3l154.4-6.8c8,0,18.8,2.7,18.8,2.7c8.6,4.8,14.1,3,17.3-2.5
				c0.2-0.2,0.3-0.4,0.4-0.6c8.4-15.8,0.9-58.8-5.2-75.7c-0.4-1.1-0.8-2.5-1.2-4.1c-7.3-31.4-6.2-148.9-2.8-221.3
				c0.4-7.8,0.3-14.7,0.1-20.8c-2.2-53.6-57.1-54.7-92.6-56.5c-37.6-1.9-65.1,5.3-78.6,16.4c-7,2-17.7,5.9-26.1,12.3
				c-6.1,4.5-11.2,10.5-12.9,17.9c-0.2,0.9-0.3,1.7-0.4,2.6c-3.1,26.4-10.4,187.3-13.5,201.9c-0.5,2.9-2.2,11.8-4,23.8
				c-0.2,1.5-0.4,3-0.6,4.5C99.2,665.7,91.5,758.1,136.3,725.4z"/>
			<path class="st3" d="M326.4,718.4c8.6,4.8,14.1,3,17.3-2.5c0.2-0.2,0.3-0.4,0.4-0.6c8.4-15.8,0.9-58.8-5.2-75.7
				c-0.4-1.1-0.8-2.5-1.2-4.1c-7.3-31.4-6.2-148.9-2.8-221.3c0.1-1.8,0.2-3.5,0.2-5.2"/>
			<path class="st3" d="M333.5,381.3c-9.5-41.8-58.4-42.8-91.1-44.5c-37.6-1.9-65.1,5.3-78.6,16.4c-7,2-17.7,5.9-26.1,12.3
				c-6.1,4.5-11.2,10.5-12.9,17.9c-0.2,0.9-0.3,1.7-0.4,2.6c-3.1,26.4-10.4,187.3-13.5,201.9c-0.5,2.9-2.2,11.8-4,23.8
				c-0.2,1.5-0.4,3-0.6,4.5c-7,49.6-14.7,142,30.1,109.4c4.7-1.1,10.4-2.1,16.9-3l154.4-6.8"/>
		</g>
		<path id="XMLID_4052_" class="st1" d="M125.8,715.5c7.4-27.4-8.3-214.7-8.3-214.7"/>
		<g>
			<path id="XMLID_4051_" class="st4" d="M205.5,352c18.6,42.7,67.3,17.2,67.6-15.4c0.1-5.8,0.3-28.3,0.6-35
				c0.1-5.2,1.3-35.4-5.6-51.1c-22-50.2-85.4-6-62.9,33.1c-1.3,4.2-2.2,9.2-2.6,15.1c-0.5,6.5-2.9,26.3-2.6,33.2"/>
			<path id="XMLID_4050_" class="st5" d="M208.8,358.3c-1.2-1.8-2.3-3.9-3.2-6.2l-5.4-20.1c-0.4-7,2.1-26.8,2.6-33.2
				c0.5-5.9,1.3-10.9,2.6-15.1c-22.5-39.1,40.8-83.2,62.9-33.1c6.9,15.7,5.7,45.9,5.6,51.1c-0.2,6.7-0.6,29.2-0.6,35
				c-0.3,27.5-35.1,50-57.2,30.5"/>
		</g>
		<g>
			<path class="st1" d="M217.4,763.2c-7,11.1-14.9,226.6-19.7,307c-4.8,80.5,0.6,198.8,0.6,198.8l-33.8-3.2c0,0,8.2-196.7,2.8-248.4
				c-1.8-2.2-2.6-12-1.8-33.8l0-0.1c0.1-8.7,0.4-18.5,0.8-29c1.3-89.3-5-205-5-205"/>
			<path id="XMLID_4049_" class="st1" d="M182.8,1001.9c-3.2-1.8-5.7,2.1-5.7,2.1"/>
			<path id="XMLID_4048_" class="st1" d="M184.7,1031.3c0.3,1.3,5.7,3,5.7,3"/>
			<g id="XMLID_4046_">
				<path id="XMLID_4047_" class="st1" d="M165.5,1275.7c-17.9-2.4-7.5-26.5,4.6-16.4"/>
			</g>
			<g id="XMLID_4044_">
				<path id="XMLID_4045_" class="st1" d="M196.4,1028.7c17.9-2,7.9-26.3-4.4-16.4"/>
			</g>
			<g>
				<path class="st1" d="M152.2,1313c-0.1,2.5,0.6,4.7,2.6,6.8c0.5,0.5,1.1,1,1.8,1.5c2.3,1.7,6.1,3,10.8,4
					c3.6,0.7,7.7,1.3,12.3,1.7c2.9,0.3,5.9,0.6,9.1,0.7c2.4,0.2,4.9,0.2,7.4,0.4c2.5-0.1,5-0.2,7.4-0.2c3.2-0.2,6.2-0.3,9.1-0.5
					c4.6-0.3,8.7-0.8,12.3-1.5c4.7-0.9,8.5-2.1,10.8-3.8c0.7-0.5,1.3-1,1.8-1.5c1.6-1.6,2.4-3.3,2.6-5.1
					c-17.6-7.6-32.4-20.4-36-41.9c-2.1-2-3.4-3.2-3.4-3.2s-0.4-0.6-1.1-1.4c-0.1-0.2-0.3-0.4-0.5-0.6c0-0.1-0.1-0.3-0.1-0.4
					c-0.3-1-0.5-2.6-0.7-4.8l-1.7-0.1l-1.7,0.1l-30.5,2.4c-0.3,7.8-0.4,12.7-0.4,13.8c0,0.1,0,0.2,0,0.2s0.1,0,0.3,0
					c-1.8,6.7-3.9,12.2-5.9,16.8c-2.1,5-4.2,9.1-5.3,12.6C152.7,1310.4,152.4,1311.7,152.2,1313z"/>
				<g>
					<g id="XMLID_4042_">
						<path id="XMLID_4043_" class="st1" d="M259.8,1327.8c-4.3-9.8,7.8-8.5,7.8-8.5C277.6,1326.1,264,1337.5,259.8,1327.8z"/>
					</g>
					<g id="XMLID_4040_">
						<path id="XMLID_4041_" class="st1" d="M251.9,1327.3c-4.7-10.8,8.7-9.4,8.7-9.4C271.9,1325.5,256.7,1338.1,251.9,1327.3z"/>
					</g>
					<g id="XMLID_4038_">
						<path id="XMLID_4039_" class="st1" d="M242,1326.5c-5.5-12.6,10.1-11,10.1-11C265.2,1324.4,247.6,1339.2,242,1326.5z"/>
					</g>
					<g id="XMLID_4036_">
						<path id="XMLID_4037_" class="st1" d="M229.8,1325.7c-6.4-14.5,11.5-12.6,11.5-12.6C256.3,1323.2,236.1,1340.2,229.8,1325.7z"
							/>
					</g>
					<path id="XMLID_4035_" class="st1" d="M203.1,1324.8c1.5-5.9,19-19.8,28.7-6c9.7,13.9-11.5,12.3-11.5,12.3
						S201.6,1330.7,203.1,1324.8z"/>
				</g>
			</g>
		</g>
		<g>
			<g id="XMLID_4033_">
				<path id="XMLID_4034_" class="st1" d="M128.1,617.3c-17.9-2.4-7.5-26.5,4.6-16.4"/>
			</g>
			<path id="XMLID_4032_" class="st1" d="M154.4,398.8c2.9,65.6,7,145.4,2.8,170.5C150,613.2,155,822,155,822l-33.8,2.6
				c0,0,7.4-118.2,4-198.8c-1.5-36.8-3.2-102-5.3-163"/>
			<path id="XMLID_4031_" class="st1" d="M134.2,605.4c0-3.7,4.6-4,4.6-4"/>
			<path id="XMLID_4030_" class="st1" d="M145.9,611.4c-0.3,1.3-5.7,3-5.7,3"/>
			<g id="XMLID_4017_">
				<path id="XMLID_4029_" class="st4" d="M155.2,820.2l-32.4-7.8c0,0-43.3,69.5-28.7,70c7.8,0.2,10.7-1.7,11.8-3.7
					c-1.1,6.6-1.8,18.7,9.5,13.1l0.3-3.1c2.4,4.2,10.7,16.7,17.7,4.1l2.2-1c5,4.3,15.4,10.8,14-10.8c2.8,0.3,6.9,0.1,12.7-1.4
					C191.9,872.4,155.2,820.2,155.2,820.2z"/>
				<path id="XMLID_4028_" class="st1" d="M122.7,812.5c0,0-43.3,69.5-28.7,70c7.8,0.2,10.7-1.7,11.8-3.7
					c-1.1,6.6-1.8,18.7,9.5,13.1l0.3-3.1c2.4,4.2,10.7,16.7,17.7,4.1l2.2-1c5,4.3,15.4,10.8,14-10.8c2.8,0.3,6.9,0.1,12.7-1.4
					c29.7-7.2-7.1-59.4-7.1-59.4"/>
				<g id="XMLID_4021_">
					<g id="XMLID_4023_">
						<path id="XMLID_4027_" class="st2" d="M115.3,891.8c-15.1,7.6-8.8-16.9-8.8-16.9c-0.4,0.6,2,7.9-12.6,7.5
							c-14.7-0.4,28.7-70,28.7-70"/>
						<path id="XMLID_4026_" class="st2" d="M133.8,892c-8.4,16.5-18.8-4.5-18.8-4.5"/>
						<path id="XMLID_4025_" class="st2" d="M155.9,867.1c-8.5-0.9-23.4,19.7,6.3,12.5c29.7-7.2-7.1-59.4-7.1-59.4"/>
						<path id="XMLID_4024_" class="st2" d="M148.5,862.7l0.9,15.9c3,31.7-16.4,10.8-16.4,10.8"/>
					</g>
					<path id="XMLID_4022_" class="st2" d="M128.2,788.7c-20,1.3-0.2,21.8-0.2,21.8"/>
				</g>
				<path id="XMLID_4020_" class="st1" d="M134,876.4c1.7-5.3,0.9-15,0.9-15"/>
				<path id="XMLID_4019_" class="st1" d="M117.2,880c1.4-0.1,1.8-7.1,1.8-7.1"/>
				<path id="XMLID_4018_" class="st2" d="M110.2,858.6c0,0,5.9-9.3,7.3-13.8"/>
			</g>
		</g>
		<path id="XMLID_4016_" class="st3" d="M166.6,358.4c-18.2,4.6-33.6,10.1-37.5,15.8c-11.2,16.2-26.2,195.6,1.2,196.9
			c27.4,1.2,31.2,0.1,30.7-9.6c-0.5-9.8,13.1-122.5,8.7-131"/>
		<g>
			<path class="st6" d="M179.8,433c0.5,13.8,7.9,14.5,24.1,12.5c16.3-2,7.7-32.6,6-42.1c-1.8-9.5-29.3,0.4-29.3,0.4
				S179.4,419.2,179.8,433z"/>
			<g>
				<path id="XMLID_4015_" class="st1" d="M180,410.3c-1.9-3,1.7-5.8,1.7-5.8"/>
				<path id="XMLID_4014_" class="st1" d="M213.1,408.2c-1.5-2.3-6.5-4.8-6.5-4.8"/>
				<path id="XMLID_4013_" class="st1" d="M180.2,418.6c-0.9,2.7,0.5,8,0.5,8"/>
				<path id="XMLID_4012_" class="st1" d="M199.7,445.3c2.8,0.6,7.9-1.4,7.9-1.4"/>
				<path id="XMLID_4011_" class="st1" d="M189.1,442.4c-3.4,1.3-5.3-2.8-5.3-2.8"/>
				<path id="XMLID_4010_" class="st1" d="M213.8,423c-1-1.2-1.9-4.9-1.9-4.9"/>
				<line id="XMLID_4009_" class="st5" x1="197.9" y1="402.1" x2="192.5" y2="402.2"/>
				<path id="XMLID_4008_" class="st1" d="M213.8,440.3c1-2.6-0.1-8-0.1-8"/>
			</g>
			<g>
				<path id="XMLID_4007_" class="st1" d="M271.8,772.1c2.5,3.4-0.9,9.2-0.9,9.2"/>
				<path id="XMLID_4006_" class="st1" d="M267.9,763.3c-0.6-2.8-4.4-6.7-4.4-6.7"/>
				<path id="XMLID_4005_" class="st1" d="M261.7,797.9c2.1-1.8,3.8-7.1,3.8-7.1"/>
			</g>
		</g>
		<g id="XMLID_3715_">
			<g id="XMLID_4001_">
				<path id="XMLID_4004_" class="st1" d="M315.9,214.8c0,0,0.1,10.8,13,15.8c12.9,5,23.1-33.9,22.5-70.1c-0.6-36.2-36,9.9-36,9.9"
					/>
				<path id="XMLID_4003_" class="st1" d="M344.1,161.9c-3.3-10-17.2,11.1-17.2,11.1"/>
				<path id="XMLID_4002_" class="st1" d="M325.1,200.6c3.4,12.9,10.7,5.2,13.7-6.4c3-11.7-17.1-6.5-17.1-6.5"/>
			</g>
			<path id="XMLID_4000_" class="st7" d="M208.5,23.5c16.3-5.2,3.3-16.8,3.3-16.8C197.6,0.7,192.2,28.6,208.5,23.5z"/>
			<path id="XMLID_3999_" class="st1" d="M315.1,262.6c-6.8,32.9-39.6,76-98.7,62.8c-59.1-13.1-55.1-35.9-68.6-159.8
				S239.3,35,239.3,35C370.8,52.5,321.9,229.7,315.1,262.6z"/>
			<path class="st0" d="M148,165.7c13.6,123.9,9.4,146.6,68.5,159.7c41.8,9.3,70.4-9.6,86-33.1c-15.7,9.8-36.1,14.4-61.4,8.8
				c-59.1-13-54.9-35.8-68.5-159.7c-4.4-41,4-69.2,17.4-88.6C164.9,69.8,141,102.5,148,165.7z"/>
			<path id="XMLID_3998_" class="st3" d="M153.3,99.1c0,0,37.2-17.3,76.5-32.7c30.8,8,64.7,11.2,64.7,8.6c0-27-6.9-98.4-82.4-65.2
				c-17.5,5.2-36.8,15.7-48.7,34c-1,1.5-1.8,2.9-2.6,4.3l0,0c0,0-0.1,0-0.1,0.1c-3.7,6.6-5.5,11.8-5.9,15.8
				C150.9,76.1,153.3,99.1,153.3,99.1z"/>
			<path id="XMLID_3997_" class="st1" d="M206,182.3c24.1,8.8,42.9-5,42.9-5"/>
			<path id="XMLID_3996_" class="st1" d="M331.3,182.2c-6.4,2.7-36.6-4-36.6-4"/>
			<path id="XMLID_3995_" class="st1" d="M222.4,319.9c-5.2,9.7,11.7,16.6,37.5,11.7c25.8-4.9,13.5-16.5,13.5-16.5"/>
			<path id="XMLID_3994_" class="st3" d="M340.6,71.7c0,0,12.5-17.5-33.7-20.9C260.8,47.5,169.5,47,154,98.9
				c0,0,24.6-10.8,71.9-20.7s87.2,6.8,87.2,6.8C333.6,80.2,340.6,71.7,340.6,71.7z"/>
			<path id="XMLID_3993_" class="st1" d="M154,98.9c0,0,18.6-47,128.8-41.2S313.1,85,313.1,85C256.2,55.8,154,98.9,154,98.9z"/>
			<g>
				<path id="XMLID_3992_" class="st1" d="M274.2,150c0.5,13.1-18.6,36.4-18.6,36.4"/>
				<g id="XMLID_3989_">
					<path id="XMLID_3991_" class="st1" d="M272.9,199.2c0.8,0.4,1.8,0.9,3.1,1.2c1.5,0.4,3.5,0.5,5.7,0.1c4-0.8,6-5,6.8-11.2"/>
					<path id="XMLID_3990_" class="st1" d="M286.6,180.3c-3.9-27.2-17.9-65.9-17.9-65.9"/>
				</g>
				<g id="XMLID_3983_">
					<path id="XMLID_3988_" class="st1" d="M286.6,213.4c22.4-4.4,8.7-20.7,8.7-20.7"/>
					<path id="XMLID_3987_" class="st1" d="M262.8,213.1c-20.8-8.7-5.9-20.9-5.9-20.9"/>
					<path id="XMLID_3986_" class="st1" d="M263.5,206.1c-3.1-0.8-5.8,0.2-3.4-3.5s5.5,0.6,7.6,0.1
						C269.9,201.9,266.6,206.9,263.5,206.1z"/>
					<path id="XMLID_3985_" class="st1" d="M286.4,204.7c2.3-1.3,4.7-2.4,5.5-1.8c2.2,1.8,1.2,5.2-3,5.4
						C288.9,208.3,284.6,205.7,286.4,204.7z"/>
					<path id="XMLID_3984_" class="st1" d="M268.6,185.4c1-1.5,5.4-1.4,5.4-1.4"/>
				</g>
				<path id="XMLID_3982_" class="st1" d="M319,210.2c-3.5-1.3-15.6-7.5-15.6-7.5"/>
				<path id="XMLID_3981_" class="st1" d="M232.3,205.5c1.4,0.1,15.7-6.6,15.7-6.6"/>
			</g>
			<path id="XMLID_3980_" class="st1" d="M189.2,143.6c-3.2-1.8-1.1-6-1.1-6"/>
			<path id="XMLID_3979_" class="st1" d="M200.7,184.8c-1.1-1.3-2-5-2-5"/>
			<path id="XMLID_3978_" class="st1" d="M198.2,99.7c-1.6,0-0.1,7-0.1,7"/>
			<path id="XMLID_3977_" class="st1" d="M294.7,85.8c-0.7-1.1,5.9-1.9,5.9-1.9"/>
			<path id="XMLID_3976_" class="st1" d="M251.8,93.2c0.5,1.5,8.2,2.7,8.2,2.7"/>
			<path id="XMLID_3975_" class="st1" d="M289.9,287.2c0.4-1.2,6-2.3,6-2.3"/>
			<path id="XMLID_3974_" class="st1" d="M255.8,291.7c-1.5-2.4-6.6-4.9-6.6-4.9"/>
			<path id="XMLID_3973_" class="st1" d="M302.3,164"/>
			<path id="XMLID_3972_" class="st1" d="M265.7,168"/>
			<line id="XMLID_3971_" class="st5" x1="207.5" y1="206.9" x2="212.9" y2="208.3"/>
			<path id="XMLID_3970_" class="st1" d="M164.9,226.6c0,0,0.6,10.7-11.8,16.6c-12.5,5.9-25.3-32.3-27.2-68.4s36.6,7.4,36.6,7.4"/>
			<path id="XMLID_3969_" class="st1" d="M133.4,175.7c2.7-10.3,17.9,9.9,17.9,9.9"/>
			<path id="XMLID_3968_" class="st1" d="M155,212.9c-2.5,13.1-10.3,5.9-14.1-5.4s16.7-7.7,16.7-7.7"/>
			<g>
				<path id="XMLID_3967_" class="st8" d="M281.8,151c-25.4-57.8,46-50.3,46-50.3C387.5,141.3,307.2,208.8,281.8,151z"/>
				<path id="XMLID_3966_" class="st7" d="M314.7,137.1c-1.1-11.1,9.6-6.7,9.6-6.7C331.6,140,315.8,148.2,314.7,137.1z"/>
				<path id="XMLID_3965_" class="st8" d="M234.7,175.2c65.6-20.5,13.5-67.2,13.5-67.2C191.3,84,169.1,195.7,234.7,175.2z"/>
				<path id="XMLID_3964_" class="st7" d="M202,142.6c-1.1-11.1,9.6-6.7,9.6-6.7C218.8,145.5,203.1,153.7,202,142.6z"/>
				<path id="XMLID_3963_" class="st7" d="M202.2,112.7c-1.9,6,31.2,22.7,48.6,5.8s-6.7-19.9-6.7-19.9
					C207.3,96.6,204.1,106.7,202.2,112.7z"/>
				<path id="XMLID_3962_" class="st7" d="M284.1,98.1c2.3,8.8,32.7,30.3,50.1,9.7s-19.8-18.8-19.8-18.8S281.7,89.3,284.1,98.1z"/>
				<g id="XMLID_3957_">
					<path id="XMLID_3959_" class="st1" d="M214.3,176.7c1.3,0.5,2.7,0.7,4.2,0.8c12.9,0.9,34-10.1,34-10.1
						c-14.2-3.8-38.3-2.4-38.3-2.4l-11.3,0.7c0,0-10.3,1.3-5.9,6.2c1.9,2,3.7,1.8,5.5,1.3c0.5-0.1,0.9-0.3,1.4-0.4
						C206.1,172.4,213.4,176.2,214.3,176.7z"/>
					<path id="XMLID_3958_" class="st1" d="M331.1,162.3c0,0,10.3,1.5,5.7,6.4c-4.5,4.8-6.2,0.1-14.4,2.6
						c-25.2,7.5-32.7-9.4-32.7-9.4c15.7-4.8,29.8-1.9,29.8-1.9L331.1,162.3z"/>
				</g>
			</g>
			<g id="XMLID_3952_">
				<path id="XMLID_3956_" class="st7" d="M318.9,260.9c21.5-13.7-16.8-19-16.8-19S297.4,274.7,318.9,260.9z"/>
				<path id="XMLID_3955_" class="st7" d="M282.1,237.7c2,7,27.9,24,42.7,7.8c14.7-16.3-17-14.8-17-14.8S280.1,230.7,282.1,237.7z"
					/>
				<path id="XMLID_3954_" class="st7" d="M226,263c1.6,5.6,28.3,9.2,31.1-10.3c2.8-19.6-12.7-14.5-12.7-14.5
					C222,248,224.5,257.4,226,263z"/>
				<path id="XMLID_3953_" class="st7" d="M258.1,249.1c44.6-21.2-0.5-16-0.5-16C206.3,239.5,213.6,270.3,258.1,249.1z"/>
			</g>
			<g id="XMLID_3716_">
				<path id="XMLID_3951_" class="st1" d="M261,260.3c12.8,23.4,36.6,0.3,36.6,0.3"/>
				<path id="XMLID_3718_" class="st1" d="M281,256.8c4.9-6.9,11.3,0.1,11.3,0.1"/>
				<path id="XMLID_3717_" class="st1" d="M281,256.8c-4.7-6.9-11.3-0.1-11.3-0.1"/>
			</g>
		</g>
		<path id="XMLID_3714_" class="st1" d="M206,368.5c1.5,2.5,3.2,3.8,4.9,4.4"/>
		<path id="XMLID_3713_" class="st1" d="M272.2,363.8c1.5-2,2-4.3,2-4.3"/>
		<path id="XMLID_3712_" class="st1" d="M258.2,379.2c0.7-0.2,1.3-0.5,1.8-0.8"/>
		<path id="XMLID_3695_" class="st3" d="M316.6,449.9c-9.1,26.9-5.3,214.8-5.3,214.8"/>
	</g>
</g>
</svg>
