<?xml version="1.0" encoding="utf-8"?>
<!-- Generator: Adobe Illustrator 22.1.0, SVG Export Plug-In . SVG Version: 6.00 Build 0)  -->
<svg version="1.1" id="Layer_1" xmlns="http://www.w3.org/2000/svg" xmlns:xlink="http://www.w3.org/1999/xlink" x="0px" y="0px"
	 viewBox="0 0 513 385" style="enable-background:new 0 0 513 385;" xml:space="preserve">
<style type="text/css">
	.st0{fill:#FFD767;stroke:#584C4F;stroke-miterlimit:10;}
	.st1{fill:#FFFAF2;stroke:#584C4F;stroke-miterlimit:10;}
</style>
<g id="Layer_5">
</g>
<g id="Layer_3">
</g>
<g>
	<g>
		<path class="st0" d="M277.1,321.6c-0.7-1.5-2.6-2.6-4.2-2c-0.9,0.3-1.6,1.2-2.3,1.7c-0.4,0.3-0.9,0.6-1.4,0.5
			c-0.9-0.2-1.3-1.2-1.5-2c-0.3-1.3-0.2-2.7-0.6-4c-0.3-1.1-1.1-2.1-2.3-2.2c-0.9-0.1-1.9,0.3-2.1,1.4c-0.2,1,0.6,1.9,1,2.8
			c0.3,0.5,0.4,1.1,0.4,1.7c-0.1,0.5-0.3,1-0.7,1.1l-0.5,0.1c-0.7,0.2-1.5,0.1-2.2-0.3c-1.2-0.7-1.6-2-1.9-3.3
			c-0.2-1.3-0.2-2.6-0.7-3.8c-0.4-1-1.1-2-2.2-2.3c-2.1-0.6-3.6,1.5-4.3,3.2c-0.4,0.9-0.8,2-0.6,3c0.2,0.5,0.6,0.9,1.1,1.1
			c0.7,0.3,1.4,0.5,2,0.9c1.3,0.7,2.4,2,2,3.5c-0.2,0.6-0.5,1.1-1.1,1.4c-0.6,0.2-1.3,0-1.9-0.3c-1-0.5-1.9-1.3-3.1-1.2
			c-0.8,0.1-1.7,0.6-1.5,1.5c0.3,1.1,1.8,1.2,2.7,1.4c0.6,0.1,1.3,0.4,1.5,1c0.4,1-0.8,1.4-1.5,1.7c-1.8,0.8-2.9,2.7-2.9,4.6
			c0,2,1.1,3.9,3,4.5c1.9,0.6,4.1,0,5.5-1.4c0.8-0.8,1.1-1.8,1.3-2.9c0.1-0.7,0.3-1.5,1-1.9c0.5-0.3,1.5-0.4,1.8,0.3
			c0.2,0.6-0.3,1.1,0,1.7c0.2,0.5,0.7,0.7,1.1,0.9c1.1,0.4,2.4,0.8,3.6,0.5c0.8-0.2,1.7-0.9,1.8-1.8c0.2-1.3-1.3-1.8-1.9-2.7
			c-0.6-1-0.5-2.3,0.2-3.2c0.8-1,2-1.1,3.2-0.9c1.1,0.2,2.1,0.7,3.3,0.9c1,0.2,2.1,0,3-0.5C276.8,325.5,278,323.5,277.1,321.6z"/>
		<path class="st1" d="M253.2,322c-10.7,3.4-5.1,16.3-5.1,16.3s6.9,8.1,15.6,1.6C272.5,333.6,263.9,318.6,253.2,322z M263,339.2
			c-7.9,5.8-14.1-1.5-14.1-1.5s-5.1-11.6,4.6-14.7C263.2,320,270.9,333.4,263,339.2z"/>
		<g id="XMLID_19_">
			<path id="XMLID_20_" class="st1" d="M268.2,341.2C268.2,341.2,268.2,341.2,268.2,341.2c0-0.2,0-0.3,0-0.3c0,0,0-0.2,0-0.4
				c0-0.2,0-0.4,0-0.4c0-0.1,0-0.4,0-0.5c0,0,0-0.6,0-0.6c0-0.2,0-0.6,0-0.7c0-0.1,0-1.6-0.1-1.9c0,0,0,0,0,0c0-0.3,0-0.5,0-0.7
				c0-0.5,0-1.5,0-1.9c0,0,0-1.7,0-1.7c0,0,0,0,0-0.1c0-0.3,0-0.7,0-0.8c0,0,0-1.7,0-1.7c0-0.2-0.3-0.4-0.8-0.4c0,0-0.9,0-1.9,0
				c-0.1,0-0.1,0-0.2,0c-0.2,0-17.1,0-17.3,0c-0.1,0-0.1,0-0.2,0c-1,0-1.8,0-1.9,0c-0.5,0-0.8,0.2-0.8,0.4c0,0,0,0.2,0,0.3
				c0,0.1,0,1.3,0,1.3c0,0,0,0.5,0,1c0,0,0,0,0,0c0,0,0,0.2,0,0.3c0,0.1,0,1.3,0,1.3c0,0,0,1.5,0,2c0,0.2,0,0.4,0,0.7c0,0,0,0,0,0
				c0,0.2-0.1,1.7-0.1,1.9c0,0.1,0,1.3,0,1.3c0,0.1,0,1,0,1c0,0,0,0.1,0,0.2c0,0.1,0,0.1,0,0.1c0,0,0,0.3,0,0.5c0,0.1,0,0.1,0,0.2
				c0,0,0,0.1,0,0.1c0,0.3,0,0.5,0,0.5c0,0.1,0,1,0,1c0,0.1,0,0.3,0,0.5c0,0.1,0,0.1,0,0.2c0,0.1,0,0.2,0,0.4c0,0.1,0,0.1,0,0.1
				c0,0,0,0.1,0.1,0.1c0,0.4,0,1.4,0,1.9c0,0.2,0,0.5,0,0.8c0,0,0,0,0,0.1c0,0.2-0.1,1.8-0.1,1.9c0,0.1,0,0.2,0,0.2c0,0.1,0,0.8,0,1
				c0,0.1,0,0.2,0,0.2c0,0,0,0.1,0,0.1c0,0.5,0,1.1,0,1.2c0,0.1,0,0.2,0,0.2c0,0.1,0,0.8,0,1c0,0.1,0,0.2,0,0.2
				c0,0.1,0.1,0.3,0.7,0.4c0.4,0,3.7,0,4.8,0c1.6,0,10.3,0,12,0c1.1,0,4.4,0,4.8,0c0.6-0.1,0.7-0.2,0.7-0.4c0,0,0-0.1,0-0.2
				c0-0.1,0-0.3,0-0.3c0,0,0-0.1,0-0.2c0-0.2,0-0.6,0-0.7c0-0.1,0-0.7,0-1.2c0,0,0-0.1,0-0.1c0,0,0-0.1,0-0.2c0-0.1,0-0.3,0-0.3
				c0,0,0-0.1,0-0.2c0-0.2,0-0.6,0-0.7c0-0.1,0-1.6-0.1-1.9c0,0,0,0,0-0.1c0-0.3,0-0.5,0-0.8c0-0.5,0.1-2,0-2c0,0,0-0.1,0-0.1
				c0-0.1,0-0.3,0-0.4c0,0,0-1.1,0-1.1c0,0,0,0,0,0c0-0.1,0-0.1,0-0.2c0-0.1,0-0.2,0-0.3c0,0,0,0,0-0.1c0-0.2,0-0.4,0-0.4
				c0,0,0-0.1,0-0.1C268.3,341.5,268.2,341.3,268.2,341.2z"/>
		</g>
	</g>
</g>
</svg>
