<?xml version="1.0" encoding="utf-8"?>
<!-- Generator: Adobe Illustrator 22.1.0, SVG Export Plug-In . SVG Version: 6.00 Build 0)  -->
<svg version="1.1" id="Layer_1" xmlns="http://www.w3.org/2000/svg" xmlns:xlink="http://www.w3.org/1999/xlink" x="0px" y="0px"
	 viewBox="0 0 513 385" style="enable-background:new 0 0 513 385;" xml:space="preserve">
<style type="text/css">
	.st0{fill:#FFD767;stroke:#584C4F;stroke-miterlimit:10;}
	.st1{fill:#FFFAF2;stroke:#584C4F;stroke-miterlimit:10;}
</style>
<g id="Layer_5">
</g>
<g id="Layer_3">
</g>
<g>
	<g>
		<path class="st0" d="M492.6-42.4c-4.9-10.2-17.8-17.9-29-13.9c-5.5,1.9-9.5,6.5-13.9,10.2c-3.4-2.5-7.4-6.4-7.4-11
			c0.1-7.8,9.9-7.7,15.3-8c15.2-0.6,27.9-11.2,33.5-25c5.8-14,3.4-30.7-8.7-40.6c-11.6-9.6-29.1-11.7-42.8-5.6
			c-8.2,3.7-13,9.9-17.7,17.2c-2.9,4.5-6.7,10-12.3,10.9c-4.5,0.7-11.6-1.5-11.7-7c0-4.6,5-7.4,4.9-12.1c-0.2-3.8-2.7-6.9-5.4-9.4
			c-6.3-5.9-15-12.1-23.8-13.5c-6.6-1-14.4,1.7-17.8,7.7c-5,8.8,4.1,16,5.8,24.1c1,4.7,0,9.5-2.3,13.7c-3-5.4-7.3-10.2-13.5-11.8
			c-11.1-3-19.7,4.7-25.3,13.6c-4.9-3.9-9.6-8.2-14.9-11.4c-2.6-1.6-5.4-2.8-8.2-3.6c-0.5-4.4-1-8.8-2.3-13.1
			c-2.3-7.5-7.5-14.5-15.8-15.5c-6.5-0.8-13.4,2.3-14.5,9.4c-1.1,6.9,3.9,13.4,7.1,19.1c0.4,0.6,0.7,1.3,1,1.9
			c-7.1,3.2-13.2,8.8-15.9,15.8c-1.4-1.8-3-3.4-4.8-4.9c-3.3-2.7-7-4.8-11-6.3c-1.4-3.5-2.3-7.3-2.9-11c-1.5-8.8-1.6-18-5-26.5
			c-2.9-7-7.8-14-15.5-16.1c-14.6-4-24.9,10.7-29.9,22.3c-2.7,6.2-5.9,14.2-3.9,21c1.1,3.7,4,6.2,7.5,7.9c4.4,2.1,9.1,3.4,13.4,5.8
			c-5.5,3.7-9.3,8.8-13.1,14.6c-2.3,3.6-5.3,7.9-9.3,9.9c-1.6-0.4-3.3-0.5-5.1-0.4c-2.3-2.2-5-3.9-8.1-4.8c-0.5-0.1-1-0.2-1.5-0.3
			c0-0.2,0-0.4,0-0.6c0-4.6,5-7.4,4.9-12.1c-0.2-3.8-2.7-6.9-5.4-9.4c-6.3-5.9-15-12.1-23.8-13.5c-6.6-1-14.4,1.7-17.8,7.7
			c-5,8.8,4.1,16,5.8,24.1c1.8,8.6-3,17.8-10.3,22.4c-8.3,5.2-17.6,2.5-25.1-2.6c-7.1-4.8-13.2-11.2-20.6-15.7
			c-6.8-4.1-14.6-5.6-22.5-4.7c-14.4,1.8-28.8,13.1-27.7,28.9C25.8-52.2,36-39.2,49.2-38.8c7.5,0.3,14.3-3.9,21.4-5.8
			c3.8-1,8-1.5,11.4,0.8c5.7,3.9,5.6,12.2,4.7,18.3c-1.4,10.1-5.8,19.6-6.6,29.9c-0.6,8.7,1.8,17.8,10,22.2c6.4,3.4,14.7,3,18.6-3.8
			c3.9-6.7,1.4-15.3,0.4-22.5c-0.6-4.7,0-9.1,2.3-13.2c1.8-3.2,4.7-6,8.1-5.8l3.8,0.5c5.5,0.1,11,3.6,14.6,8
			c1.5,1.9,2.7,3.8,3.5,5.9c-4-2.3-8.2-4-13.2-3.6c-5.5,0.5-11.8,4-10.2,10.4c1.9,7.9,12.2,8.1,18.5,9.7c1.9,0.5,4.2,1.2,6.2,2.4
			c-0.2,1.3-0.4,2.5-0.7,3.7c-0.8,3.8-1.8,7.6-2.8,11.4c-0.9,0.4-1.8,0.8-2.6,1.1c-12.7,5.5-19.8,18.7-20,32.2
			c-0.2,9.8,3.6,19.3,10.6,25.6c0.5,24.5,20.5,44.2,45.1,44.2c2.7,0,7.3,1.9,12.8,4.9c-0.4,0.7-0.5,1.5-0.3,2.5
			c1,3.9,6.1,4.1,9.2,4.9c1.9,0.5,4.4,1.5,5.2,3.5c1.3,3.3-2.9,4.9-5.2,5.9c-6.3,2.8-9.9,9.4-10,16.1c-0.1,6.9,3.6,13.5,10.4,15.7
			c6.5,2.1,14.2,0.1,19-4.7c2.9-2.9,3.9-6.3,4.6-10.2c0.4-2,1-4.5,2.5-5.9c2.2,2.4,4.1,4.7,5.7,7c0,0.2,0,0.5,0.1,0.7
			c0.4,1.5,1.3,2.4,2.5,3c2.8,3.9,5.6,7.4,8.4,10.4c-0.6,0.3-1.2,0.5-1.6,0.7c-0.7,0.3-1.4,0.7-2.1,1.1c-0.2,0-0.4,0-0.6,0
			c-0.6-0.5-1.2-1-2-1.2c-3.7-1-6.2,2.7-7.5,5.6c-0.7,1.5-1.5,3.6-1,5.2c0.3,0.9,1,1.6,1.9,2c0.5,0.2,1,0.4,1.5,0.6
			c-0.1,0.9-0.2,1.8-0.2,2.8c0,2.2,0.3,4.4,1,6.4c-0.2-0.1-0.4-0.2-0.6-0.3c-1.8-0.9-3.2-2.2-5.3-2c-1.4,0.1-2.9,1-2.6,2.6
			c0.5,2,3.1,2,4.6,2.4c1,0.2,2.2,0.7,2.6,1.7c0.6,1.6-1.5,2.4-2.6,2.9c-3.2,1.4-5,4.7-5,8.1c-0.1,3.4,1.8,6.8,5.2,7.9
			c3.2,1.1,7.1,0.1,9.5-2.4c1.4-1.5,1.9-3.2,2.3-5.1c0.2-1.2,0.6-2.7,1.7-3.3c0.9-0.5,2.6-0.6,3.1,0.5c0.3,0.6,0,1.3-0.1,1.9
			c-0.4,0.4-0.7,1-0.5,1.7c0.5,2,3.1,2,4.6,2.4c1,0.2,2.2,0.7,2.6,1.7c0.6,1.6-1.5,2.4-2.6,2.9c-3.2,1.4-5,4.7-5,8.1
			c-0.1,3.4,1.8,6.8,5.2,7.9c1.9,0.6,3.9,0.5,5.8-0.1c-0.4,0.6-0.7,1.2-0.8,1.8c-0.2,0.9,0.1,1.9,0.9,2.4c1.1,0.7,2.1-0.5,3.2-0.6
			c1.1-0.2,2.3,0.5,2.9,1.5c0.6,1.1,0.2,2.3-0.5,3.3c-0.7,0.9-1.5,1.7-2.2,2.6c-0.6,0.9-0.8,1.9-0.7,2.9c0.2,1.9,1.6,3.8,3.6,3.8
			c1.6-0.1,3.4-1.3,3.5-3c0.1-1-0.4-1.9-0.6-2.8c-0.1-0.5-0.2-1,0.2-1.5c0.5-0.7,1.6-0.7,2.4-0.5c1.3,0.2,2.5,0.9,3.9,1
			c1.1,0.1,2.3-0.2,3-1.2c0.5-0.8,0.5-1.9-0.4-2.5c-0.9-0.5-2-0.3-2.9-0.2c-0.6,0.1-1.2,0-1.7-0.4c-0.4-0.2-0.8-0.6-0.7-1.1l0.1-0.5
			c0-0.7,0.5-1.4,1.1-1.9c1.1-0.8,2.5-0.7,3.8-0.4c1.3,0.3,2.5,0.8,3.8,0.9c1.1,0,2.3-0.2,3-1.1c1.4-1.7,0-3.9-1.2-5.2
			c-0.7-0.7-1.5-1.6-2.5-1.7c-0.6-0.1-1.1,0.2-1.5,0.5c-0.6,0.5-1,1.1-1.6,1.5c-1.2,0.9-2.8,1.4-4,0.4c-0.5-0.4-0.8-0.9-0.8-1.6
			c0-0.6,0.4-1.1,0.9-1.5c1.6,0.5,3.4,0.8,4.9,0.4c1.5-0.3,2.9-1.5,3.1-3.1c0.3-2.3-2.2-3-3.2-4.6c-1.1-1.7-0.8-4,0.3-5.6
			c1.3-1.8,3.5-2,5.5-1.5c1.9,0.4,3.7,1.3,5.7,1.6c1.8,0.3,3.6,0,5.1-0.9c2.9-1.6,5-5.2,3.5-8.4c-0.2-0.4-0.4-0.8-0.7-1.1
			c1.4,0.3,2.8,0.5,4.1,0.2c1.5-0.3,2.9-1.5,3.1-3.1c0.3-2.3-2.2-3-3.2-4.6c-1.1-1.7-0.8-4,0.3-5.6c1.3-1.8,3.5-2,5.5-1.5
			c1.9,0.4,3.7,1.3,5.7,1.6c1.8,0.3,3.6,0,5.1-0.9c2.9-1.6,5-5.2,3.5-8.4c-1.2-2.6-4.4-4.5-7.3-3.5c-1.6,0.6-2.7,2-4.1,3
			c-0.7,0.5-1.6,1-2.5,0.8c-1.5-0.3-2.2-2.1-2.5-3.5c-0.5-2.3-0.4-4.6-1.1-6.9c-0.6-1.9-1.9-3.6-3.9-3.9c-1.6-0.2-3.4,0.6-3.6,2.3
			c-0.3,1.7,1,3.4,1.8,4.8c0.5,0.9,0.8,1.9,0.6,3c-0.1,0.8-0.5,1.6-1.2,1.9l-0.1,0c-1.1-0.9-2.2-1.8-2.9-2.9
			c-2.2-3.3-1.7-8,0.6-11.2c2.6-3.6,7-3.9,11-3c3.8,0.9,7.5,2.6,11.3,3.2c3.6,0.6,7.1,0,10.3-1.7c5.8-3.2,10-10.3,6.9-16.8
			c-0.4-0.8-0.9-1.5-1.4-2.3c2.7,0.7,5.6,1,8.2,0.4c2.9-0.6,5.8-3.1,6.2-6.2c0.6-4.5-4.4-6.1-6.5-9.2c-2.2-3.3-1.7-8,0.6-11.2
			c2.6-3.6,7-3.9,11-3c3.8,0.9,7.5,2.6,11.3,3.2c3.6,0.6,7.1,0,10.3-1.7c5.8-3.2,10-10.3,6.9-16.8c-2-4.2-6.7-7.5-11.4-7.5
			c11.8-1.8,20.9-11.9,21.2-24.1c1.1-0.4,2.2-0.9,3.2-1.5c11.6-6.3,20-20.6,13.9-33.6c-0.7-1.4-1.5-2.7-2.4-4
			c0.2-0.1,0.5-0.2,0.7-0.3c5.1,1.2,10.5,1.7,15.3,0.6c5.9-1.3,11.6-6.2,12.5-12.4c0.5-3.6-0.7-6.2-2.7-8.4c3-3.8,5.4-8.1,5.7-12.6
			c0.3-4.3-1.6-8-4.5-11.1c-3.1-3.3-6.6-6.1-9.7-9.4c5.3-6.5,13.8-7.2,21.6-5.4c7.6,1.7,14.9,5.1,22.6,6.4
			c7.1,1.2,14.2-0.1,20.5-3.5C490.3-15.1,498.7-29.4,492.6-42.4z"/>
		<path class="st1" d="M252.9,256.8c-10.7,3.4-5.1,16.3-5.1,16.3s6.9,8.1,15.6,1.6C272.2,268.3,263.6,253.4,252.9,256.8z
			 M262.8,273.9c-7.9,5.8-14.1-1.5-14.1-1.5s-5.1-11.6,4.6-14.7C262.9,254.7,270.7,268.1,262.8,273.9z"/>
		<g id="XMLID_11_">
			<path id="XMLID_12_" class="st1" d="M268,276C268,276,268,276,268,276c0-0.2,0-0.3,0-0.3c0,0,0-0.2,0-0.4c0-0.2,0-0.4,0-0.4
				c0-0.1,0-0.4,0-0.5c0,0,0-0.6,0-0.7c0-0.2,0-0.6,0-0.7c0-0.1,0-1.6-0.1-1.9c0,0,0,0,0,0c0-0.3,0-0.5,0-0.7c0-0.5,0-1.5,0-1.9
				c0,0,0-1.7,0-1.7c0,0,0,0,0-0.1c0-0.3,0-0.6,0-0.8c0,0,0-1.7,0-1.7c0-0.2-0.3-0.4-0.8-0.4c0,0-0.9,0-1.9,0c-0.1,0-0.1,0-0.2,0
				c-0.2,0-17.1,0-17.3,0c-0.1,0-0.1,0-0.2,0c-1,0-1.8,0-1.9,0c-0.5,0-0.8,0.2-0.8,0.4c0,0.1,0,0.2,0,0.3c0,0.1,0,1.3,0,1.3
				c0,0,0,0.5,0,1c0,0,0,0,0,0c0,0,0,0.2,0,0.3c0,0.1,0,1.3,0,1.3c0,0,0,1.5,0,2c0,0.2,0,0.4,0,0.7c0,0,0,0,0,0
				c0,0.2-0.1,1.7-0.1,1.9c0,0.1,0,1.3,0,1.3c0,0.1,0,1,0,1c0,0,0,0.1,0,0.2c0,0.1,0,0.1,0,0.1c0,0,0,0.3,0,0.5c0,0.1,0,0.1,0,0.2
				c0,0,0,0,0,0.1c0,0.3,0,0.5,0,0.5c0,0.1,0,1,0,1c0,0.1,0,0.3,0,0.5c0,0.1,0,0.1,0,0.2c0,0.1,0,0.2,0,0.4c0,0.1,0,0.1,0,0.1
				c0,0,0,0.1,0.1,0.1c0,0.4,0,1.4,0,1.9c0,0.2,0,0.5,0,0.8c0,0,0,0,0,0.1c0,0.2-0.1,1.8-0.1,1.9c0,0.1,0,0.2,0,0.2c0,0.1,0,0.8,0,1
				c0,0.1,0,0.2,0,0.2c0,0,0,0.1,0,0.1c0,0.5,0,1.1,0,1.2c0,0.1,0,0.2,0,0.2c0,0.1,0,0.8,0,1c0,0.1,0,0.2,0,0.2
				c0,0.1,0.1,0.3,0.7,0.4c0.4,0,3.7,0,4.8,0c1.6,0,10.3,0,12,0c1.1,0,4.4,0,4.8,0c0.6-0.1,0.7-0.2,0.7-0.4c0,0,0-0.1,0-0.2
				c0-0.1,0-0.3,0-0.3c0,0,0-0.1,0-0.2c0-0.2,0-0.6,0-0.7c0-0.1,0-0.7,0-1.2c0,0,0-0.1,0-0.1c0,0,0-0.1,0-0.2c0-0.1,0-0.3,0-0.3
				c0,0,0-0.1,0-0.2c0-0.2,0-0.6,0-0.7c0-0.1,0-1.7-0.1-1.9c0,0,0,0,0-0.1c0-0.3,0-0.5,0-0.8c0-0.5,0.1-2,0-2c0,0,0-0.1,0-0.1
				c0-0.1,0-0.3,0-0.4c0,0,0-1.1,0-1.2c0,0,0,0,0,0c0-0.1,0-0.1,0-0.2c0-0.1,0-0.2,0-0.3c0,0,0,0,0-0.1c0-0.2,0-0.4,0-0.4
				c0,0,0,0,0-0.1C268,276.2,268,276,268,276z"/>
		</g>
	</g>
</g>
</svg>
