<?xml version="1.0" encoding="utf-8"?>
<!-- Generator: Adobe Illustrator 23.0.3, SVG Export Plug-In . SVG Version: 6.00 Build 0)  -->
<svg version="1.1" id="Layer_1" xmlns="http://www.w3.org/2000/svg" xmlns:xlink="http://www.w3.org/1999/xlink" x="0px" y="0px"
	 viewBox="0 0 422 422" style="enable-background:new 0 0 422 422;" xml:space="preserve">
<style type="text/css">
	.st0{opacity:0.1;enable-background:new    ;}
	.st1{fill:#FFFFFF;}
	.st2{fill:#2C2C2C;}
	.st3{opacity:0.1;}
</style>
<g>
	<g>
		<g>
			<g>
				<g>
					<g class="st0">
						<path class="st1" d="M288.4,255.1c-3.6,3-7.9,10.5-7.9,10.5l-1.6,23.2l0.3,6.9c0,0,0,0.4,0.1,0.9c0.3,1.9,1.2,6,4.6,7.8
							c2.5,1.4,4.4-5.6,5.4-15.8c1.6-7.3,3-16.8,3.6-26.1C293.6,253.2,291.2,252.7,288.4,255.1z"/>
						<g>
							<path class="st2" d="M287.4,254c-2.9,2.6-6.5,6.9-8,10.6c-0.7,1.7-0.5,3.8-0.7,5.6c-0.4,6.4-1.3,12.8-1.2,19.2
								c0,2.9,0,6.1,0.7,8.9c0.7,2.8,3.1,8.2,6.7,7.8c3.2-0.3,4.1-5.5,4.6-7.9c1.6-7.3,2.6-14.9,3.6-22.4c0.4-3,4.7-29.9-5.5-22.1
								c-1.5,1.2,0,3.8,1.5,2.6c2.7-2.1,2.4,2.7,2.4,4.5c-0.1,3.7-0.5,7.4-0.9,11c-0.8,7.3-2.2,14.5-3.3,21.8c-0.3,1.8-0.5,7-2,8.4
								c-2.3,2-4.1-3.4-4.4-5.5c-0.4-2.5-0.5-5.1-0.4-7.6c0.1-5.6,0.8-11.4,1.1-17c0.1-1.5,0.2-3,0.3-4.5c0-0.6,0.4-2.4,0-1.2
								c1.4-3.6,4.8-7.6,7.6-10.1C290.9,254.8,288.8,252.7,287.4,254z"/>
						</g>
					</g>
					<g>
						<path class="st1" d="M279,262.3l0.9,11.4c0,0,0,0.6,0.3,1.6c0.8,3.1,3.6,9.9,13.4,12.9c7.3,2.3,12.8-9.3,15.7-26.1
							c4.7-12.2,8.6-27.8,10.4-43.1c1.8-15.5-5-16.3-13.2-12.5c-10.4,4.9-22.9,17.4-22.9,17.4"/>
						<g>
							<path class="st2" d="M277.5,262.3c0.6,7.3,0.2,15,5.4,20.9c3.1,3.5,8.9,7.5,13.8,6.6c4.8-0.8,7.6-6.1,9.4-10.1
								c3.2-7.5,4.3-15.7,6.9-23.3c3.1-9.1,5.3-18.4,6.8-27.8c1.2-7.2,5.5-26.7-7.6-25.4c-6.5,0.6-12.7,5.4-17.6,9.2
								c-4.2,3.3-8.3,6.8-12.1,10.5c-1.4,1.4,0.7,3.5,2.1,2.1c3.2-3.2,6.6-6.2,10.2-9c4.7-3.8,11-9,17.2-9.8
								c13.7-1.8,1.5,38-0.4,44.6c-1.3,4.3-3,8.4-4.1,12.7c-0.9,3.8-1.5,7.5-2.7,11.2c-1.1,3.5-2.6,7.3-5.1,10.1
								c-3,3.2-6,2.4-9.6,0.4c-9.2-5-8.8-13.7-9.5-22.8C280.3,260.4,277.3,260.4,277.5,262.3L277.5,262.3z"/>
						</g>
					</g>
					<g id="XMLID_39453_">
						<path class="st1" d="M296.5,225.7c0,0,16.1-18.6,18-8.5"/>
						<g>
							<path class="st2" d="M297.6,226.8c2-2.3,4.1-4.4,6.3-6.4c1.8-1.6,8.1-7.5,9.1-2.8c0.4,1.9,3.3,1.1,2.9-0.8
								c-2.6-11.4-17.4,4.2-20.5,7.9C294.2,226.1,296.3,228.2,297.6,226.8L297.6,226.8z"/>
						</g>
					</g>
					<g id="XMLID_39452_">
						<path class="st1" d="M289.5,239.3c0,0,20.1-2.4,15.7,8.5s-12.3,17.3-14,4.4"/>
						<g>
							<path class="st2" d="M289.5,240.8c4-0.5,10.7-1,13.8,1.9c3,2.8-1.4,8.8-3.1,11.2c-0.9,1.3-2.7,3.8-4.5,3.9
								c-2.4,0.1-2.8-4.4-3.1-6c-0.3-1.9-3.2-1.1-2.9,0.8c0.7,4.6,3.4,10.6,8.9,7.2c2.6-1.6,4.5-4.5,5.9-7.1c1.3-2.4,3-5.3,2.8-8.2
								c-0.6-7.6-12.4-7.3-17.8-6.7C287.6,238,287.6,241,289.5,240.8L289.5,240.8z"/>
						</g>
					</g>
					<g id="XMLID_39451_" class="st3">
						<path class="st1" d="M289.5,239.3c0,0,20.1-2.4,15.7,8.5s-12.3,17.3-14,4.4"/>
						<g>
							<path class="st2" d="M289.5,240.8c4-0.5,10.7-1,13.8,1.9c3,2.8-1.4,8.8-3.1,11.2c-0.9,1.3-2.7,3.8-4.5,3.9
								c-2.4,0.1-2.8-4.4-3.1-6c-0.3-1.9-3.2-1.1-2.9,0.8c0.7,4.6,3.4,10.6,8.9,7.2c2.6-1.6,4.5-4.5,5.9-7.1c1.3-2.4,3-5.3,2.8-8.2
								c-0.6-7.6-12.4-7.3-17.8-6.7C287.6,238,287.6,241,289.5,240.8L289.5,240.8z"/>
						</g>
					</g>
				</g>
				<g>
					<path class="st1" d="M112,184c0.2-4.2,0.7-8.5,1.3-12.8c0.6-3.8,1.4-7.6,2.4-11.3c1.9-7,4.8-13.8,8.4-20
						c1.9-3.3,4.1-6.5,6.6-9.6c1.9-2.4,3.9-4.8,6.1-7c0.1-0.1,0.3-0.2,0.4-0.3l0.2-0.2c2.6-2.6,5.4-5.1,8.7-7.7
						c3.3-2.6,6.6-4.9,10-7c6.3-3.8,13.4-7,21.1-9.5c3.5-1.1,7.3-2.2,11.5-3.2c2.3-0.6,4.3-1,6-1.3c1.4-0.3,2.8-0.5,4.3-0.6
						c7.7-1.9,12.8-2.3,12.8-2.3c127.6,15.8,81.6,187.9,75.4,220c-0.8,3.9-1.9,8-3.5,12.2c-1.9,5.2-17.9,29.4-24.2,34.7
						c-2.9,2.4-6,4.7-9.3,6.7c-13.4,8.1-30.5,12.4-51.1,9.5c-2.3-0.3-4.7-0.7-7.1-1.3c-25.9-5.5-54.3-49.8-56.6-63.4
						c-3.2-18.5-5.6-42.6-9.3-74.5c-0.3-0.4-0.7-0.9-1-1.3c-0.6-0.8-1.2-1.6-1.8-2.4c-1.3-1.7-2.2-3.1-2.9-4.5
						c-1.1-1.5-1.9-2.8-2.6-4.1c-1.1-1.9-1.8-4-2.4-6c-0.6-2-1.2-4-1.7-6.3c-0.9-4.1-1.5-8.5-1.9-13.3
						C111.8,193.1,111.8,188.6,112,184z"/>
					<g>
						<path class="st2" d="M113.5,184c1.2-21,7.6-41.1,21.9-56.9c12.3-13.6,28.7-23.1,46.2-28.2c8.1-2.3,16.4-3.9,24.7-5.4
							c5.8-1,10.9-0.2,16.7,1.1c10.6,2.3,20.9,6,30.2,11.7c34.3,20.8,44.7,62.2,45.7,99.8c0.9,32.5-4.5,64.8-11.3,96.5
							c-1.6,7.3-2.6,15.1-5.9,21.9c-4.9,10-12,19.8-19.1,28.3c-9.3,11.1-24.4,17.7-38.5,19.9c-15.9,2.5-33.6,0.9-46.9-8.6
							c-11.3-8.1-20.6-19.3-28.2-30.9c-5.6-8.5-10.8-17.4-12.4-27.6c-2.5-15.5-4.2-31.2-6-46.8c-0.5-4.1-0.9-8.3-1.4-12.4
							c-0.4-4-0.1-9.3-2-12.8c-1.7-3.1-4.3-5.9-6.2-8.9c-2.7-4.2-4.2-8.8-5.4-13.7C113.5,202.2,113.1,193.1,113.5,184
							c0.1-1.9-2.9-1.9-3,0c-0.4,9.1,0,18.2,2,27.1c0.9,4,2.1,8.1,3.9,11.9c1.9,3.7,4.5,7,6.7,10.5c2.9,4.6,2.7,10.5,3.3,15.8
							c0.6,4.9,1.1,9.8,1.7,14.7c1,8.6,2,17.1,3.1,25.7c1.5,11.2,2.4,22,7.5,32.2c6.1,12,14.2,23.3,23.4,33
							c9.2,9.7,19.8,18,33.2,20.3c16.7,2.9,34.1,1.6,49.6-5.8c12.6-6,20.6-14.7,28.4-25.9c7.2-10.4,13-19.8,15.5-32.4
							c6.4-31.1,12.6-62,13.1-93.9c0.6-38.7-6.9-82.8-39.4-107.9c-8.5-6.6-18.2-11.4-28.4-14.7c-6-1.9-12.1-3.3-18.3-4.2
							c-6.3-0.9-12,0.8-18.2,1.9c-18.3,3.3-35.9,9.1-50.8,20.5c-14.1,10.8-25.1,24.7-31,41.6c-3.3,9.6-4.8,19.6-5.4,29.7
							C110.4,185.9,113.4,185.9,113.5,184z"/>
					</g>
				</g>
				<g>
					<line class="st1" x1="125.5" y1="206.1" x2="126.6" y2="236.8"/>
					<g>
						<path class="st2" d="M124,206.1c0.4,10.3,0.7,20.5,1.1,30.8c0.1,1.9,3.1,1.9,3,0c-0.4-10.3-0.7-20.5-1.1-30.8
							C126.9,204.1,123.9,204.1,124,206.1L124,206.1z"/>
					</g>
				</g>
				<g class="st3">
					<path class="st2" d="M111.3,185.7c0.2-4.2,0.7-8.5,1.3-12.8c0.6-3.8,1.4-7.6,2.4-11.3c1.9-7,4.8-13.8,8.4-20
						c1.9-3.3,4.1-6.5,6.6-9.6c1.9-2.4,3.9-4.8,6.1-7c0.1-0.1,0.3-0.2,0.4-0.3l0.2-0.2c2.5-2.5,5.4-5,8.7-7.7
						c-2.1,2.8-4.1,5.6-5.8,8.5c-3.7,6.3-6.5,13-8.4,20c-1,3.7-1.8,7.5-2.4,11.3c-0.7,4.4-1.1,8.7-1.3,12.8
						c-0.2,4.7-0.2,9.1,0.1,13.3c0.3,4.8,1,9.2,1.9,13.3c0.5,2.3,1.1,4.3,1.7,6.3c0.6,1.9,1.4,4,2.4,6c0.7,1.3,1.5,2.6,2.6,4.1
						c0.7,1.4,1.6,2.8,2.9,4.5c0.6,0.8,1.2,1.6,1.8,2.4c0.3,0.4,0.7,0.9,1,1.3c3.6,31.8,6.1,56,9.3,74.5
						c2.3,13.6,30.7,57.9,56.6,63.4c2.4,0.5,4.8,0.9,7.1,1.3c20.6,2.9,37.7-1.4,51.1-9.5c0.8-0.5,1.6-1.1,2.4-1.6
						c-3.6,5-7.1,9.3-9.3,11.1c-2.9,2.4-6,4.7-9.3,6.7c-13.4,8.1-30.5,12.4-51.1,9.5c-2.3-0.3-4.7-0.7-7.1-1.3
						c-25.9-5.5-54.3-49.8-56.6-63.4c-3.2-18.5-5.6-42.6-9.3-74.5c-0.3-0.4-0.7-0.9-1-1.3c-0.6-0.8-1.2-1.6-1.8-2.4
						c-1.3-1.7-2.2-3.1-2.9-4.5c-1.1-1.5-1.9-2.8-2.6-4.1c-1.1-1.9-1.8-4-2.4-6c-0.6-2-1.2-4-1.7-6.3c-0.9-4.1-1.5-8.5-1.9-13.3
						C111.1,194.8,111,190.4,111.3,185.7z"/>
					<g>
						<path class="st2" d="M112.8,185.7c0.8-14.3,3.8-28.4,10.6-41c5.7-10.6,13.8-19.3,23.1-26.8c-0.8-0.6-1.6-1.2-2.4-1.8
							c-16.3,21.6-21.5,50.9-16.7,77.3c1,5.3,2.3,10.9,4.9,15.7c1.3,2.5,3,5,4.6,7.3c0.6,0.9,1.4,1.8,2,2.7c1.9,3,1.9,5.6,2.3,9
							c1.4,12.8,2.8,25.6,4.4,38.3c1.2,9.7,2,19.8,4.2,29.4c1.5,6.7,5.1,13,8.6,18.8c9.5,15.8,22.3,32.2,38.7,41.2
							c10.8,5.9,24.6,6.9,36.6,5.9c12.6-1,24.9-4.9,35.4-12c-0.7-0.7-1.4-1.4-2.1-2.1c-6.8,9.2-14.4,16-24.9,20.9
							c-10,4.7-21.1,6.7-32.1,6.6c-10.3-0.2-20.7-1.5-29.6-6.9c-7.4-4.5-13.8-10.5-19.5-17c-9.6-10.7-20-24.3-24-38.3
							c-2.1-7.4-2.6-15.6-3.6-23.2c-1.3-10.3-2.5-20.7-3.7-31.1c-0.4-3.6-0.8-7.1-1.2-10.7c-0.4-3.4-0.1-8.3-1.3-11.4
							c-1.6-4.1-5.4-7.8-7.7-11.7C112.6,213.8,112.2,198.5,112.8,185.7c0.1-1.9-2.9-1.9-3,0c-0.5,12.1,0.3,24.9,4.8,36.3
							c1.7,4.3,4.4,8.1,7,11.9c4.1,6.1,3.9,14.2,4.7,21.4c1.3,11.5,2.6,23,4.1,34.5c1,7.9,1.5,16.4,3.7,24
							c4.3,14.8,15.1,28.9,25.2,40.1c6,6.7,12.8,13,20.6,17.5c8.4,4.8,18,6.2,27.6,6.6c12.2,0.5,24.4-1.5,35.5-6.6
							c11.3-5.1,19.4-12.4,26.6-22.3c0.9-1.2-0.8-2.9-2.1-2.1c-9.6,6.5-20.8,10.3-32.3,11.4c-11.2,1.1-24.4,0.6-34.7-4.4
							c-16.3-7.9-29-24.1-38.4-39.1c-3.6-5.8-7.5-12.2-9.2-18.9c-2.2-8.4-2.8-17.5-3.9-26.2c-1.4-11.5-2.7-23.1-4-34.6
							c-0.6-4.9,0.1-13-2.9-17c-3.4-4.7-7.1-9.5-9.1-15c-4.7-13-5-27.7-3.5-41.3c1.8-16.3,7.2-31.5,17.1-44.6
							c1.1-1.5-1.1-2.8-2.4-1.8c-10,8.1-18.5,17.5-24.4,29c-6.5,12.7-9.4,26.7-10.2,40.9C109.6,187.6,112.6,187.6,112.8,185.7z"/>
					</g>
				</g>
				<g class="st3">
					<path class="st2" d="M270.4,329.1c6.3-32,52.3-204.2-75.4-220c0,0-5.1,0.4-12.8,2.3c-1.4,0.2-2.9,0.4-4.3,0.6
						c-1.7,0.3-3.7,0.7-6,1.3c-4.2,1-8,2-11.5,3.2c-7.6,2.5-14.7,5.7-21.1,9.5c-3.4,2.1-6.8,4.4-10,7c0,0,0,0-0.1,0.1
						c0.3-0.4,0.6-0.7,0.8-1.1c1.9-2.4,3.9-4.8,6.1-7c0.1-0.1,0.3-0.2,0.4-0.3l0.2-0.2c2.6-2.6,5.4-5.1,8.7-7.7
						c3.3-2.6,6.6-4.9,10-7c6.3-3.8,13.4-7,21.1-9.5c3.5-1.1,7.3-2.2,11.5-3.2c2.3-0.6,4.3-1,6-1.3c1.4-0.3,2.8-0.5,4.3-0.6
						c7.7-1.9,12.8-2.3,12.8-2.3c127.6,15.8,81.6,187.9,75.4,220c-0.8,3.9-1.9,8-3.5,12.2c-1.9,5.2-17.9,29.4-24.2,34.7
						c-2.2,1.8-4.5,3.5-6.9,5.1c6.5-9,13.6-20.2,14.8-23.5C268.5,337.1,269.6,333,270.4,329.1z"/>
					<g>
						<path class="st2" d="M271.8,329.5c6.8-34.4,13.9-68.4,13.2-103.7c-0.9-43.3-14.3-90.2-57-109.4c-11.2-5-25.7-10.2-38.1-8.2
							c-22.1,3.6-44.1,9.3-61.8,23.7c0.8,0.6,1.6,1.2,2.4,1.8c15.3-19.9,38.4-31.6,62.7-36.3c5-1,10-2,15-2.8
							c3.5-0.5,6.7,0.1,10.2,0.7c7.2,1.3,14.3,3.2,21,6c24.4,9.8,41.5,29.8,50.1,54.3c15.5,44.1,8.6,94.2-0.6,138.9
							c-1.9,9.3-3.4,19.3-6.6,28.2c-2.5,7.1-7.4,13.6-11.6,19.7c-5.6,8.2-11.1,15.3-19.4,20.9c0.7,0.7,1.4,1.4,2.1,2.1
							C261.6,354.2,268.9,343.4,271.8,329.5c0.4-1.9-2.5-2.7-2.9-0.8c-2.8,13.6-10.1,24.2-18.1,35.3c-0.9,1.2,0.8,2.9,2.1,2.1
							c13.1-8.8,22.4-23.2,29.9-36.9c4.7-8.5,5.9-18.8,7.9-28.3c4.5-21.2,8.2-42.6,9.8-64.2c3.7-50.2-3.9-112.3-55.3-136
							c-7.4-3.4-15.2-5.9-23.2-7.5c-3.7-0.8-7.8-1.8-11.6-1.7c-5.1,0.2-10.2,1.8-15.2,2.7c-26.2,4.5-50.8,16.8-67.2,38.1
							c-1.1,1.5,1.1,2.8,2.4,1.8c16.4-13.3,35.9-17.9,56-22.1c2.8-0.6,5.9-1.4,8.7-1.4c3.6,0,7.5,1.1,11,1.9
							c5.8,1.3,11.6,3,17.2,5.2c20.4,8.1,36.2,23.6,45.6,43.3c18,37.6,15,83.2,8.8,123.2c-2.3,15-5.7,29.7-8.6,44.5
							C268.6,330.6,271.5,331.4,271.8,329.5z"/>
					</g>
				</g>
				<g id="XMLID_39448_">
					<path class="st1" d="M197.3,368.3c0,0-9.6,12.9,15.4,13.1s39.6-9.1,33.1-17.4"/>
					<g>
						<path class="st2" d="M196,367.5c-1.6,2.2-2.5,5.2-1.8,7.9c1.8,6.6,11.3,7.3,16.8,7.5c10.4,0.4,23.1-0.6,32.1-6.4
							c4.6-3,7.7-8.1,4.1-13.1c-1.1-1.6-3.7-0.1-2.6,1.5c9.1,12.7-28.4,15.2-33.5,15.1c-5.9-0.2-18.5-2.5-12.4-10.8
							C199.8,367.4,197.2,365.9,196,367.5L196,367.5z"/>
					</g>
				</g>
				<g>
					<g id="XMLID_39447_">
						<line class="st1" x1="173.2" y1="260.5" x2="168" y2="259.1"/>
						<g>
							<path class="st2" d="M173.6,259c-1.7-0.5-3.5-0.9-5.2-1.4c-1.9-0.5-2.7,2.4-0.8,2.9c1.7,0.5,3.5,0.9,5.2,1.4
								C174.6,262.4,175.4,259.5,173.6,259L173.6,259z"/>
						</g>
					</g>
					<g id="XMLID_39446_">
						<path class="st1" d="M215.4,239.6c0,0,18.2-22.7,17.6-35.2"/>
						<g>
							<path class="st2" d="M216.4,240.7c3.5-4.3,6.7-9,9.6-13.7c4.1-6.7,8.6-14.5,8.5-22.6c0-1.9-3-1.9-3,0
								c0.1,7.9-4.6,15.6-8.7,22.1c-2.6,4.2-5.4,8.3-8.5,12.1C213.1,240.1,215.2,242.2,216.4,240.7L216.4,240.7z"/>
						</g>
					</g>
					<g id="XMLID_39439_">
						<g id="XMLID_39445_">
							<path class="st1" d="M254.7,245.2c0,0,13.4,15.6-8.2,20"/>
							<g>
								<path class="st2" d="M253.6,246.3c1.6,1.9,2.9,4.3,3.4,6.6c1.6,6.9-5.3,9.6-10.9,10.9c-1.9,0.4-1.1,3.3,0.8,2.9
									c6.4-1.4,13.9-4.8,13.3-12.6c-0.3-3.6-2.2-7.2-4.5-10C254.5,242.7,252.4,244.8,253.6,246.3L253.6,246.3z"/>
							</g>
						</g>
						<g id="XMLID_39444_">
							<path class="st1" d="M216.6,245.2c0,0-14.3,11.8,5.8,20"/>
							<g>
								<path class="st2" d="M215.6,244.1c-2.5,2.1-4.6,5.2-5.2,8.4c-1.3,7.2,5.6,11.5,11.3,13.9c1.8,0.7,3.3-1.8,1.5-2.6
									c-4.9-2.1-11.8-5.8-9.5-12.2c0.8-2.1,2.3-4,4-5.5C219.2,245,217,242.9,215.6,244.1L215.6,244.1z"/>
							</g>
						</g>
						<g id="XMLID_39443_">
							<path class="st1" d="M248.7,260.3c4.1-0.2,5-3.5,2.9-5.2c-0.8-0.6-3,0.4-5.3,1.8C244.6,257.9,248.7,260.3,248.7,260.3z"/>
							<g>
								<path class="st2" d="M248.7,261.8c2.3-0.2,4.9-1.2,5.4-3.8c0.5-2.4-1.4-4.9-3.9-4.4c-1.5,0.3-3.1,1.1-4.4,1.9
									c-1,0.6-1.6,1.6-1.2,2.8c0.5,1.5,2.1,2.6,3.4,3.3c1.7,1,3.2-1.6,1.5-2.6c-0.6-0.3-1.2-0.7-1.7-1.2c-0.1-0.1-0.4-0.4-0.4-0.4
									c0.1,0-0.2,0.5-0.2,0.7c-0.2,0.2-0.1,0.2,0.2-0.1c0.1-0.1,0.2-0.1,0.3-0.2c0.2-0.1,0.5-0.3,0.7-0.4c0.5-0.2,0.9-0.5,1.4-0.7
									c0.3-0.1,0.7-0.2,1-0.3c0,0,0,0-0.1-0.1c-0.3-0.1,0.1,0.1,0.2,0.2c0.2,0.3,0.3,0.5,0.2,0.8c-0.2,0.9-1.5,1.3-2.5,1.4
									C246.8,259,246.7,262,248.7,261.8z"/>
							</g>
						</g>
						<g id="XMLID_39442_">
							<path class="st1" d="M233.1,237.1c0,0-4.2-0.1-5.2,1.3"/>
							<g>
								<path class="st2" d="M233.1,235.6c-2,0-5,0.1-6.3,1.8c-0.5,0.6-0.6,1.5,0,2.1c0.5,0.5,1.6,0.6,2.1,0c0.7-1,2.9-0.9,4.2-0.9
									C235,238.6,235,235.6,233.1,235.6L233.1,235.6z"/>
							</g>
						</g>
						<g id="XMLID_39441_">
							<path class="st1" d="M245.6,233.4c0,0,2.4,3.5,4.2,3.4"/>
							<g>
								<path class="st2" d="M244.3,234.2c1.2,1.8,3.1,4.1,5.5,4.1c1.9,0,1.9-3,0-3c-0.1,0-0.1,0-0.1,0c-0.2-0.1-0.5-0.2-0.7-0.4
									c-0.4-0.3-0.7-0.6-1-1c-0.3-0.3-0.6-0.7-0.9-1c-0.1-0.1-0.1-0.1,0,0c0-0.1-0.1-0.1-0.1-0.2c0,0-0.1-0.1-0.1-0.1
									c-0.5-0.7-1.3-1-2.1-0.5C244.2,232.5,243.8,233.5,244.3,234.2L244.3,234.2z"/>
							</g>
						</g>
						<g id="XMLID_39440_">
							<path class="st1" d="M225.3,255.4c-3.8-1.5-6,1.1-4.7,3.5c0.5,0.9,3,0.8,5.5,0.5C228,259.3,225.3,255.4,225.3,255.4z"/>
							<g>
								<path class="st2" d="M225.6,254c-2.3-0.8-5.3-0.6-6.6,1.8c-0.5,1-0.5,2.2-0.1,3.3c0.5,1.3,1.5,1.8,2.9,2
									c1.5,0.2,3.2,0.2,4.7-0.2c1.1-0.2,1.7-1.1,1.7-2.2c0-1.4-0.9-2.9-1.7-4.1c-1.1-1.6-3.7-0.1-2.6,1.5c0.4,0.6,0.8,1.2,1.1,1.9
									c0.1,0.1,0.1,0.4,0.2,0.5c0,0.2,0,0.2,0,0.1c0-0.2,0.1-0.3,0.2-0.4c0.4-0.2,0.4-0.2,0.1-0.2c-0.3,0-0.5,0.1-0.8,0.1
									c-0.4,0-0.9,0.1-1.3,0.1c-0.6,0-1.3,0.1-1.9-0.2c0.4,0.2,0,0.1,0-0.4c0-0.2,0-0.3,0.1-0.5c0.5-1.1,2.3-0.6,3.1-0.3
									C226.7,257.5,227.5,254.6,225.6,254z"/>
							</g>
						</g>
					</g>
					<g id="XMLID_39438_">
						<path class="st1" d="M261.6,254.9c0,0,11.8,5.8,15.1,7.1"/>
						<g>
							<path class="st2" d="M260.8,256.2c5.1,2.5,10.2,5.2,15.5,7.3c1.8,0.7,2.6-2.2,0.8-2.9c-5-2-9.9-4.6-14.8-7
								C260.6,252.7,259.1,255.3,260.8,256.2L260.8,256.2z"/>
						</g>
					</g>
					<g id="XMLID_39437_">
						<path class="st1" d="M208.2,251.7c0,0-13.7,6.6-15,6.4"/>
						<g>
							<path class="st2" d="M207.4,250.4c-2.1,1-4.3,2-6.4,3c-2.1,1-5.7,3.2-7.8,3.2c-1.9,0-1.9,3,0,3c2.7,0,5.8-2,8.2-3.1
								c2.5-1.1,5.1-2.3,7.6-3.5C210.7,252.1,209.2,249.5,207.4,250.4L207.4,250.4z"/>
						</g>
					</g>
					<g id="XMLID_39433_">
						<g id="XMLID_39436_">
							<path class="st1" d="M227.4,170.1c0,0,11.5,30.7,16.5,56"/>
							<g>
								<path class="st2" d="M226,170.5c6.8,18.2,12.7,36.9,16.5,56c0.4,1.9,3.3,1.1,2.9-0.8c-3.8-19-9.7-37.8-16.5-56
									C228.2,167.9,225.3,168.7,226,170.5L226,170.5z"/>
							</g>
						</g>
						<g id="XMLID_39435_">
							<path class="st1" d="M246.7,241c3.6,5.1,5.3,9.5,4.2,12.6c-0.8,2.3-2,3.7-3.3,4.6c-1.1,0.7-2.1,1.1-3.1,1.2"/>
							<g>
								<path class="st2" d="M245.4,241.8c3.4,4.9,7.8,14.1-1.3,16.2c-1.9,0.4-1.1,3.3,0.8,2.9c3.9-0.9,7-4,7.7-8
									c0.8-4.5-2.2-9.1-4.6-12.6C246.9,238.7,244.3,240.2,245.4,241.8L245.4,241.8z"/>
							</g>
						</g>
						<g id="XMLID_39434_">
							<path class="st1" d="M231,259.4c0,0,3.9,1.6,5.4,0.6"/>
							<g>
								<path class="st2" d="M230.6,260.8c1.9,0.8,4.6,1.6,6.5,0.5c1.7-1,0.2-3.6-1.5-2.6c-1,0.6-3.2-0.4-4.2-0.8
									c-0.8-0.3-1.6,0.3-1.8,1C229.3,259.8,229.9,260.5,230.6,260.8L230.6,260.8z"/>
							</g>
						</g>
					</g>
				</g>
				<g>
					<g id="XMLID_39432_">
						<path class="st1" d="M255,337.2c0,0-5.4,1.2-5.8,2.3"/>
						<g>
							<path class="st2" d="M254.6,335.8c-1,0.2-2.1,0.5-3.1,0.8c-1.2,0.4-3,0.9-3.6,2.2c-0.8,1.7,1.8,3.3,2.6,1.5c0.1-0.1,0,0,0,0
								c0.2-0.1,0.5-0.3,0.7-0.4c0.6-0.3,1.2-0.4,1.8-0.6c0.8-0.2,1.6-0.4,2.4-0.6C257.3,338.3,256.5,335.4,254.6,335.8L254.6,335.8
								z"/>
						</g>
					</g>
					<g id="XMLID_39431_">
						<path class="st1" d="M209.8,339.6c0,0,4.9,2.3,6.4,4.7"/>
						<g>
							<path class="st2" d="M209,340.9c2,1,4.6,2.2,5.8,4.2c1.1,1.6,3.7,0.1,2.6-1.5c-1.6-2.4-4.4-4-6.9-5.2
								C208.8,337.4,207.3,340,209,340.9L209,340.9z"/>
						</g>
					</g>
					<g id="XMLID_39430_">
						<path class="st1" d="M248.8,302.8c0,0-6.3-6.6-10.9,0"/>
						<g>
							<path class="st2" d="M249.9,301.8c-1.3-1.4-3.1-2.6-5-3.1c-3.4-1-6.2,0.7-8.2,3.4c-1.2,1.6,1.4,3,2.6,1.5
								c2.4-3.3,6-2.3,8.5,0.3C249.1,305.3,251.2,303.1,249.9,301.8L249.9,301.8z"/>
						</g>
					</g>
					<g id="XMLID_39429_">
						<path class="st1" d="M227,302.8c0,0,6.3-6.6,10.9,0"/>
						<g>
							<path class="st2" d="M228.1,303.9c2.5-2.6,6.1-3.6,8.5-0.3c1.1,1.5,3.7,0,2.6-1.5c-2-2.7-4.8-4.4-8.2-3.4
								c-1.9,0.5-3.7,1.7-5,3.1C224.6,303.1,226.7,305.3,228.1,303.9L228.1,303.9z"/>
						</g>
					</g>
					<g class="st3">
						<path class="st2" d="M246.8,315.9c0,0-2.3,11.1-11.1,3.8C226.9,312.5,248.8,309,246.8,315.9z"/>
						<g>
							<path class="st2" d="M245.3,315.5c-0.4,1.7-1.2,3.8-2.7,4.8c-1.7,1-3.6,0-5.1-1c-0.8-0.6-2.6-1.8-2.4-3
								C235.6,313.2,246.1,312.7,245.3,315.5c-0.5,1.9,2.4,2.7,2.9,0.8c1.9-7.1-9.7-6-13.3-4c-7.7,4.4,2.8,13.8,8.7,10.8
								c2.5-1.3,4-4.1,4.5-6.8C248.6,314.4,245.7,313.6,245.3,315.5z"/>
						</g>
					</g>
					<g id="XMLID_39428_">
						<path class="st1" d="M230.4,313.4c5.1-2,11,11.9,16.4-1c3.7-8.9-10.5-6.1-19.9-3.4"/>
						<g>
							<path class="st2" d="M230.8,314.9c3.4-0.9,6.7,4.4,10.3,4.6c4.3,0.2,7.5-5.3,7.8-9c0.7-9.8-17.9-4.1-22.4-2.9
								c-1.9,0.5-1.1,3.4,0.8,2.9c3.9-1.1,7.9-2.1,11.9-2.5c1.5-0.1,3.5-0.3,5,0.2c2.6,1,1.6,3.2,0.5,5.2c-4.1,7.5-8.9-3.1-14.7-1.5
								C228.1,312.5,228.9,315.4,230.8,314.9L230.8,314.9z"/>
						</g>
					</g>
				</g>
				<g>
					<g class="st0">
						<path class="st2" d="M133.6,255.1c3.6,3,7.9,10.5,7.9,10.5l1.6,23.2l-0.3,6.9c0,0,0,0.4-0.1,0.9c-0.3,1.9-1.2,6-4.6,7.8
							c-2.5,1.4-4.4-5.6-5.4-15.8c-1.6-7.3-3-16.8-3.6-26.1C128.4,253.2,130.8,252.7,133.6,255.1z"/>
						<g>
							<path class="st2" d="M132.5,256.1c2.8,2.5,6.3,6.5,7.6,10.1c-0.5-1.3,0,0.7,0,1.2c0.1,1.5,0.2,3,0.3,4.5
								c0.4,5.6,1.1,11.3,1.1,17c0,2.3-0.1,4.8-0.3,7.1c-0.3,2.2-2.3,7.9-4.5,6c-1.6-1.4-1.7-6.4-2-8.4c-1.1-7.3-2.5-14.5-3.3-21.8
								c-0.4-3.4-0.7-6.7-0.9-10.1c-0.1-1.6-0.6-7.6,2.3-5.4c1.5,1.2,3-1.4,1.5-2.6c-9-6.9-6.5,13.2-6.2,16.2
								c0.8,7.6,2.4,15,3.4,22.5c0.5,3.4,0.8,10.6,4.1,12.9c6,4.4,8.6-9,8.8-12.7c0.3-6.3-0.4-12.6-0.8-19c-0.2-2.7,0.2-6.2-0.7-8.8
								c-1.3-3.9-5.3-8.3-8.2-11C133.2,252.7,131.1,254.8,132.5,256.1z"/>
						</g>
					</g>
					<g>
						<path class="st1" d="M143.1,262.3l-0.9,11.4c0,0,0,0.6-0.3,1.6c-0.8,3.1-3.6,9.9-13.4,12.9c-7.3,2.3-12.8-9.3-15.7-26.1
							c-4.7-12.2-8.6-27.8-10.4-43.1c-1.8-15.5,5-16.3,13.2-12.5c10.4,4.9,22.9,17.4,22.9,17.4"/>
						<g>
							<path class="st2" d="M141.6,262.3c-0.8,9.1-0.3,17.8-9.5,22.8c-3.6,1.9-6.7,2.7-9.6-0.4c-2.5-2.7-4-6.6-5.1-10.1
								c-1.2-3.7-1.9-7.4-2.7-11.2c-1-4.3-2.8-8.5-4.1-12.7c-2-6.6-14.2-46.3-0.4-44.6c6.3,0.8,12.5,6,17.2,9.8
								c3.5,2.8,6.9,5.8,10.2,9c1.4,1.4,3.5-0.8,2.1-2.1c-7.4-7.3-16.5-15.9-26.7-19.1c-12.8-4-12.7,10.1-11.5,18.8
								c1.2,9.2,3.1,18.3,5.7,27.2c1.2,4,2.7,7.9,4,11.9c1.4,4.5,1.9,9.2,3.3,13.7c1.5,4.7,3.7,10.6,8.2,13.3
								c4.4,2.7,9.7,0.1,13.5-2.6c8.2-5.9,7.8-14.7,8.6-23.8C144.7,260.4,141.7,260.4,141.6,262.3L141.6,262.3z"/>
						</g>
					</g>
					<g id="XMLID_39427_">
						<path class="st1" d="M125.5,225.7c0,0-16.1-18.6-18-8.5"/>
						<g>
							<path class="st2" d="M126.6,224.7c-3.1-3.6-17.9-19.3-20.5-7.9c-0.4,1.9,2.5,2.7,2.9,0.8c1.1-4.7,7.3,1.2,9.1,2.8
								c2.2,2,4.4,4.1,6.3,6.4C125.7,228.2,127.8,226.1,126.6,224.7L126.6,224.7z"/>
						</g>
					</g>
					<g id="XMLID_39426_">
						<path class="st1" d="M132.5,239.3c0,0-20.1-2.4-15.7,8.5s12.3,17.3,14,4.4"/>
						<g>
							<path class="st2" d="M132.5,237.8c-5.4-0.6-17.2-0.9-17.8,6.7c-0.2,2.8,1.4,5.8,2.8,8.2c1.4,2.6,3.2,5.3,5.7,7
								c5.5,3.7,8.4-2.3,9.1-7c0.3-1.9-2.6-2.7-2.9-0.8c-0.2,1.6-0.6,5.8-2.8,6c-1.7,0.2-3.5-2.3-4.4-3.4c-1.9-2.5-6.5-8.7-3.5-11.7
								c3.1-3,9.9-2.4,13.8-1.9C134.4,241,134.4,238,132.5,237.8L132.5,237.8z"/>
						</g>
					</g>
					<g id="XMLID_39425_" class="st3">
						<path class="st1" d="M132.5,239.3c0,0-20.1-2.4-15.7,8.5s12.3,17.3,14,4.4"/>
						<g>
							<path class="st2" d="M132.5,237.8c-5.4-0.6-17.2-0.9-17.8,6.7c-0.2,2.8,1.4,5.8,2.8,8.2c1.4,2.6,3.2,5.3,5.7,7
								c5.5,3.7,8.4-2.3,9.1-7c0.3-1.9-2.6-2.7-2.9-0.8c-0.2,1.6-0.6,5.8-2.8,6c-1.7,0.2-3.5-2.3-4.4-3.4c-1.9-2.5-6.5-8.7-3.5-11.7
								c3.1-3,9.9-2.4,13.8-1.9C134.4,241,134.4,238,132.5,237.8L132.5,237.8z"/>
						</g>
					</g>
				</g>
				<g id="XMLID_39424_" class="st3">
					<path class="st2" d="M197.3,368.3c0,0-9.6,12.9,15.4,13.1s39.6-9.1,33.1-17.4"/>
					<g>
						<path class="st2" d="M196,367.5c-1.6,2.2-2.5,5.2-1.8,7.9c1.8,6.6,11.3,7.3,16.8,7.5c10.4,0.4,23.1-0.6,32.1-6.4
							c4.6-3,7.7-8.1,4.1-13.1c-1.1-1.6-3.7-0.1-2.6,1.5c9.1,12.7-28.4,15.2-33.5,15.1c-5.9-0.2-18.5-2.5-12.4-10.8
							C199.8,367.4,197.2,365.9,196,367.5L196,367.5z"/>
					</g>
				</g>
			</g>
			<g>
				<g id="XMLID_4188_" class="st3">
					<path class="st2" d="M287,188.3c0,0-52.4-0.8-36,34.4S329.4,210.7,287,188.3z"/>
					<g>
						<path class="st2" d="M287,186.8c-15.9-0.2-42.9,5.1-40.5,26.1c1.4,12.5,10.3,23.9,23.6,23.9c11.5,0,23.1-7.1,29.1-16.7
							c8.4-13.4,1.2-26.2-11.5-33.1c-1.7-0.9-3.2,1.7-1.5,2.6c10.5,5.7,17.6,15.7,11.4,27.4c-4.8,9-15,15.8-25.2,16.8
							c-12.5,1.2-21.2-8.6-22.9-20.5c-1.6-11.2,7.2-17.6,16.9-20.6c6.6-2,13.7-3,20.6-2.9C288.9,189.9,288.9,186.9,287,186.8z"/>
					</g>
				</g>
				<g id="XMLID_4091_" class="st3">
					<path class="st2" d="M207.7,193.3c0,0,37.3,27.6-12,43.7S166.2,180.4,207.7,193.3z"/>
					<g>
						<path class="st2" d="M207,194.6c4.4,3.2,9,8.4,11.3,13.7c6.5,15-11.4,23.5-22.9,27.2c-8.5,2.7-21.8,4.8-26-5.6
							c-3.2-8,0.5-17.8,5.3-24.4c7.8-10.4,20.2-14.5,32.7-10.8c1.9,0.5,2.6-2.3,0.8-2.9c-12.2-3.6-24.8-0.4-33.5,9
							c-6.6,7.3-11.5,18.5-8.7,28.4c3.1,11,14.6,12.8,24.4,10.7c12.4-2.5,33.7-10.7,32.3-26.7c-0.8-8.6-7.5-16.4-14.2-21.3
							C206.9,190.8,205.4,193.4,207,194.6z"/>
					</g>
				</g>
				<g id="XMLID_39423_">
					<path class="st1" d="M209.4,231.6c0,0-18.1,13.5-41.6,5.2"/>
					<g>
						<path class="st2" d="M208.6,230.3c-11.4,8.4-27.3,9.5-40.4,5.1c-1.8-0.6-2.6,2.3-0.8,2.9c13.8,4.6,30.7,3.5,42.7-5.4
							C211.7,231.8,210.2,229.2,208.6,230.3L208.6,230.3z"/>
					</g>
				</g>
				<g id="XMLID_39422_">
					<path class="st1" d="M253.8,232.2c0,0,29.3,6.3,35.5,3.6"/>
					<g>
						<path class="st2" d="M253.4,233.7c5.5,1.2,11,2.2,16.5,3c6,0.9,13.9,2.8,19.8,0.6c1.8-0.7,1-3.6-0.8-2.9
							c-5.9,2.2-14.4,0-20.4-0.9c-4.8-0.8-9.6-1.6-14.3-2.6C252.3,230.4,251.5,233.3,253.4,233.7L253.4,233.7z"/>
					</g>
				</g>
				<g id="XMLID_39421_">
					<path class="st1" d="M149.9,193.7c0,0-1.9,4,1.2,5.8"/>
					<g>
						<path class="st2" d="M148.6,193c-1.3,2.8-1.1,6.1,1.7,7.8c1.6,1,3.2-1.6,1.5-2.6c-0.9-0.5-1.1-1.4-1-2.4
							c0-0.4,0.2-0.7,0.3-1.1c0.1-0.3,0.2-0.6,0.1-0.3C152,192.7,149.4,191.2,148.6,193L148.6,193z"/>
					</g>
				</g>
				<g id="XMLID_39420_">
					<path class="st1" d="M160.7,234.6c0,0,0.9,3.6,1.9,4.9"/>
					<g>
						<path class="st2" d="M159.2,235c0.4,1.8,1,3.8,2.1,5.3c0.5,0.7,1.3,1,2.1,0.5c0.6-0.4,1-1.4,0.5-2.1c-1-1.3-1.4-3-1.8-4.5
							C161.7,232.3,158.8,233.1,159.2,235L159.2,235z"/>
					</g>
				</g>
				<g id="XMLID_39419_">
					<path class="st1" d="M159.5,163.7c0,0-1.5-6.8,0-6.8"/>
					<g>
						<path class="st2" d="M160.9,163.3c-0.2-0.8-0.3-1.7-0.5-2.5c-0.1-0.6-0.2-1.3-0.2-1.9c0-0.2,0.1-0.7,0-0.9
							c-0.1-0.3,0.6,0.2-0.8,0.4c1.9-0.2,1.9-3.2,0-3c-3.6,0.4-2,6.5-1.4,8.7C158.5,166,161.3,165.2,160.9,163.3L160.9,163.3z"/>
					</g>
				</g>
				<g id="XMLID_39418_">
					<path class="st1" d="M272.8,140.7c0,0-6.4,0.9-5.7,2"/>
					<g>
						<path class="st2" d="M272.4,139.3c-2,0.3-8.1,0.9-6.6,4.2c0.8,1.8,3.4,0.2,2.6-1.5c0,0-0.1,1.6-0.3,1.5c0,0,0.3-0.2,0.3-0.2
							c0.1,0,0.3-0.1,0.6-0.2c0.6-0.2,1.2-0.3,1.9-0.5c0.8-0.2,1.6-0.3,2.4-0.4c0.8-0.1,1.2-1.1,1-1.8
							C274,139.4,273.2,139.1,272.4,139.3L272.4,139.3z"/>
					</g>
				</g>
				<g id="XMLID_39417_">
					<path class="st1" d="M233.6,152.7c0,0-7.5-1.1-7.9-2.5"/>
					<g>
						<path class="st2" d="M234,151.3c-1.1-0.2-2.2-0.4-3.3-0.6c-0.8-0.2-1.6-0.4-2.4-0.6c-0.3-0.1-0.7-0.2-1-0.4
							c-0.3-0.2-0.2-0.1-0.3-0.2c-0.8-1.8-3.4-0.2-2.6,1.5c0.7,1.5,3.1,2,4.6,2.4c1.4,0.3,2.8,0.6,4.3,0.8
							C235.1,154.4,235.9,151.5,234,151.3L234,151.3z"/>
					</g>
				</g>
				<g>
					<g id="XMLID_39416_">
						<path class="st1" d="M287,178.3c0,0-52.4-0.8-36,34.4S329.4,200.7,287,178.3z"/>
						<g>
							<path class="st2" d="M287,176.8c-15.9-0.2-42.9,5.1-40.5,26.1c1.4,12.5,10.3,23.9,23.6,23.9c11.5,0,23.1-7.1,29.1-16.7
								c8.4-13.4,1.2-26.2-11.5-33.1c-1.7-0.9-3.2,1.7-1.5,2.6c10.5,5.7,17.6,15.7,11.4,27.4c-4.8,9-15,15.8-25.2,16.8
								c-12.5,1.2-21.2-8.6-22.9-20.5c-1.6-11.2,7.2-17.6,16.9-20.6c6.6-2,13.7-3,20.6-2.9C288.9,179.9,288.9,176.9,287,176.8z"/>
						</g>
					</g>
					<g id="XMLID_39415_">
						<path class="st1" d="M283.8,200.3c0,0-9.4-3-8.3,4.7C276.5,212.6,290.2,206.9,283.8,200.3z"/>
						<g>
							<path class="st2" d="M284.2,198.8c-4-1.3-9.9-0.8-10.3,4.5c-0.2,3,1.2,5.9,4.2,6.7c2.5,0.6,5.3-0.3,7.1-2.1
								c2.6-2.6,1.9-6.1-0.4-8.6c-1.3-1.4-3.4,0.7-2.1,2.1c1.6,1.7,1.7,3.7-0.5,5c-1.5,0.9-4,1.3-5-0.5c-1.1-2.1-0.3-4.4,2.1-4.6
								c1.3-0.1,2.8,0.1,4,0.5C285.2,202.3,286,199.4,284.2,198.8z"/>
						</g>
					</g>
					<g id="XMLID_39414_">
						<path class="st1" d="M207.7,183.3c0,0,37.3,27.6-12,43.7S166.2,170.4,207.7,183.3z"/>
						<g>
							<path class="st2" d="M207,184.6c4.4,3.2,9,8.4,11.3,13.7c6.5,15-11.4,23.5-22.9,27.2c-8.5,2.7-21.8,4.8-26-5.6
								c-3.2-8,0.5-17.8,5.3-24.4c7.8-10.4,20.2-14.5,32.7-10.8c1.9,0.5,2.6-2.3,0.8-2.9c-12.2-3.6-24.8-0.4-33.5,9
								c-6.6,7.3-11.5,18.5-8.7,28.4c3.1,11,14.6,12.8,24.4,10.7c12.4-2.5,33.7-10.7,32.3-26.7c-0.8-8.6-7.5-16.4-14.2-21.3
								C206.9,180.8,205.4,183.4,207,184.6z"/>
						</g>
					</g>
					<g id="XMLID_39413_">
						<path class="st1" d="M183.4,203.8c0,0-9.4-3-8.3,4.7S189.8,210.4,183.4,203.8z"/>
						<g>
							<path class="st2" d="M183.8,202.4c-4-1.3-9.9-0.8-10.3,4.5c-0.2,3,1.2,5.9,4.2,6.7c2.5,0.6,5.3-0.3,7.1-2.1
								c2.6-2.6,1.9-6.1-0.4-8.6c-1.3-1.4-3.4,0.7-2.1,2.1c1.6,1.7,1.7,3.7-0.5,5c-1.5,0.9-4,1.3-5-0.5c-1.1-2.1-0.3-4.4,2.1-4.6
								c1.3-0.1,2.8,0.1,4,0.5C184.8,205.9,185.6,203,183.8,202.4z"/>
						</g>
					</g>
					<g id="XMLID_39412_">
						<path class="st1" d="M172.7,225.4c-0.4,0.1-0.7,0.2-1.1,0.3c-1.4,0.4-2.7,0.6-4.1-1.1c-3.4-4,4.4-5.1,4.4-5.1l8.6-0.7
							c0,0,18.2-1.3,29,1.7c0,0-15.9,9-25.6,8.4c-1.1-0.1-2.2-0.3-3.2-0.7C179.8,228,174.4,224.9,172.7,225.4z"/>
						<g>
							<path class="st2" d="M172.3,224c-1.6,0.5-5.2-0.5-3.1-2.1c0.6-0.4,1.5-0.6,2.2-0.8c0.9-0.2,1.2-0.2,2.4-0.3
								c2.4-0.2,4.8-0.4,7.2-0.6c9.2-0.6,19-0.7,28,1.7c-0.1-0.9-0.2-1.8-0.4-2.7c-5,2.8-10.4,5.3-15.9,6.9c-4.1,1.2-8.2,2-12.3,0.4
								c-2.5-1-4.9-2.9-7.8-2.6c-1.9,0.2-1.9,3.2,0,3c3.2-0.3,6.2,2.7,9.3,3.3c3.8,0.8,8-0.1,11.6-1.2c5.8-1.7,11.4-4.2,16.7-7.2
								c1.1-0.6,0.9-2.4-0.4-2.7c-11.4-3-23.5-2.2-35.2-1.3c-2.9,0.2-7.1,0.3-8.9,3.1c-1.1,1.6-0.7,3.3,0.5,4.7
								c1.9,2.2,4.2,2.1,6.8,1.3C174.9,226.3,174.1,223.4,172.3,224z"/>
						</g>
					</g>
					<g id="XMLID_39411_">
						<path class="st1" d="M277,214.1c0,0-11.4-2.2-23.9,1.8c0,0,6.2,13.6,26.3,7.4c6.6-2,8,1.7,11.6-2.2c3.7-4-4.7-5.1-4.7-5.1
							L277,214.1z"/>
						<g>
							<path class="st2" d="M277.4,212.6c-8.2-1.5-16.8-0.5-24.7,1.8c-1,0.3-1.3,1.3-0.9,2.2c1.5,3.3,4.7,6,7.9,7.6
								c9,4.5,17.1-0.4,26.2,0.1c4.5,0.2,11-4.9,5.3-8.4C287.4,213.5,281.5,213.4,277.4,212.6c-1.9-0.4-2.7,2.5-0.8,2.9
								c3.2,0.6,6.4,1.1,9.5,1.8c0.7,0.2,1.4,0.3,2.1,0.5c3.1,1.1,1.6,3.1-1.1,3.6c-2.6,0.5-5.3-0.3-8.1,0.4
								c-8.4,2-20.2,2.8-24.6-6.7c-0.3,0.7-0.6,1.5-0.9,2.2c7.3-2.1,15.5-3.2,23.1-1.8C278.5,215.9,279.3,213,277.4,212.6z"/>
						</g>
					</g>
				</g>
			</g>
		</g>
		<g>
			<g class="st3">
				<path class="st2" d="M113.9,206.6c0-0.1-0.1-0.2-0.1-0.3c-0.3-1,0.8-1.9,1.7-1.7c0-0.1,0-0.2-0.1-0.3c-0.1-0.9,0.4-1.6,1.1-1.9
					c-0.2-1-0.4-2-0.5-3c0-0.5,0.1-0.8,0.4-1.1c-0.2-3.5-0.5-7-0.7-10.5c-0.2-1.3-0.4-2.6-0.3-3.9c0-0.1,0-0.2,0-0.3
					c-0.1-0.9-0.1-1.8-0.2-2.6c0-0.7,0.6-1.2,1.3-1.2c0-0.4,0-0.8,0-1.3c0-0.8,0.6-1.4,1.2-1.6c-1.8-2.3-3.2-4.9-4-7.9
					c-0.3-0.9,0.2-1.7,0.9-2.1c-0.4-1.5,1.2-2.7,2.6-2.1c0.1,0,0.2,0,0.2,0c-0.1-0.5-0.3-1.1-0.3-1.7c-0.3-1.6,1.1-2.8,2.7-2.2
					c-0.5-0.8-1.1-1.6-1.6-2.4c-0.4-0.6-0.3-1.4,0-2c-2.4-3.1-4.2-6.6-5.4-10.4c-0.3-1,0.4-2,1.3-2.3c-1.1-1.9,1.5-3.5,3.1-2.2
					c0.4,0.4,0.9,0.7,1.3,1.1c0-0.2,0-0.3-0.1-0.5c-0.1-1.1,1-1.9,1.9-1.9c0.2,0,0.4,0,0.6,0c-0.4-0.8-0.9-1.5-1.3-2.3
					c-0.8-0.4-1.5-1.1-2.1-2.2c-0.7-1.2,0.9-2.4,1.9-1.5c0,0,0,0,0,0c0.4-0.3,1-0.5,1.6-0.3c0.3,0.1,0.5,0.1,0.8,0.2
					c0.1-0.2,0.2-0.4,0.3-0.6c-0.5-0.8-0.8-1.7-1.1-2.8c-0.2-1,0.3-2,1.3-2.3c0.5-0.1,1-0.2,1.4-0.3c-0.6-0.8-1.2-1.7-1.9-2.5
					c-0.8-1.1,0.3-2.9,1.6-2.8c1,0.1,1.9,0.2,2.7,0.5c0.4-0.3,0.7-0.6,1.1-0.7c0-0.1-0.1-0.2-0.1-0.4c-0.4-1.1,0.6-2.5,1.8-2.4
					c0.5,0,0.9,0.1,1.3,0.2c-0.1-0.6,0.2-1.2,0.7-1.6c-0.3-0.3-0.6-0.6-0.9-0.9c-0.9-1,0.1-2.2,1.2-2.1c1.6,0.3,3.2,0.2,4.6-0.3
					c-1.1-1-2.2-1.9-3.4-2.9c-0.8-0.7-0.1-2,0.8-2c0.7,0,1.3,0,2,0c-0.3-0.6-0.6-1.1-1-1.6c-0.6-0.9-0.1-2.6,1.1-2.7
					c1.1-0.2,2.2-0.2,3.2-0.2c-0.2-0.8,0.3-1.8,1-2.1c-0.3-1,0.1-2.2,1-2.5c-0.7-0.8-1.4-1.7-2.1-2.6c-0.6-0.9,0-2.5,1.1-2.7
					c0.5-0.1,1.1-0.2,1.6-0.2c-1-1.1-0.4-2.6,0.8-3c-0.1-1.2,1.3-2.2,2.4-1.9c2.1,0.4,4.1,1,6,1.8c0.4-0.4,1.1-0.7,1.8-0.5
					c0.3,0.1,0.5,0.1,0.8,0.2c-0.3-1.5,1.6-2.4,2.8-1.8c0.8,0.4,1.5,0.8,2.3,1.2c-0.1-1.2,1.1-2.4,2.4-2c3,0.8,5.7,1.9,8.3,3.4
					c0.5-0.4,1.1-0.7,1.8-0.5c1.3,0.4,2.6,0.9,3.8,1.5c0.3-0.9,1.2-1.4,2.2-0.9c1-0.9,2.1-1.8,3.1-2.8c-0.5-1.5,1.3-2.3,2.3-1.6
					c0.1-0.9,1-1.7,2-1c3.4,2.4,6.4,5.1,9.1,8.1c0.3,0.1,0.5,0.1,0.8,0.2c0.2,0,0.5,0,0.7,0.1c0,0,0.1,0,0.1,0.1
					c0.5,0.1,1,0.3,1.5,0.4c0.6,0,1.2,0.1,1.7,0.1c0.2-0.8,1.3-1.4,2.2-0.7c0.8,0.6,1.6,1.1,2.4,1.4c0.6,0.1,1.2,0.3,1.8,0.4
					c0.6,0.1,1.1,0.1,1.7,0c-0.8-1.4-1.5-2.8-2.3-4.3c-0.5-1,0.6-2.5,1.7-1.7c2.3,1.8,4.7,3.1,7.4,4.1c-0.6-0.5-1.3-0.9-2.2-1.3
					c-1.4-0.7-0.2-2.8,1.3-2.1c2.2,1.1,4.3,2,6.6,2.6c-0.7-0.7-1.5-1.2-2.4-1.8c-0.4-0.2-0.9-0.4-1.3-0.7c-1.4-0.8-0.2-2.8,1.2-2.1
					c0.5,0.2,1,0.5,1.4,0.7c1.4,0.7,2.7,1.3,4.1,1.9c0-0.2,0-0.5,0.1-0.7c-1-0.5-2-1.1-2.9-1.6c-1.1-0.7-0.4-2.6,0.9-2.2
					c3.1,1,6,2.4,8.6,4.3c0.1,0,0.2,0.1,0.4,0.1c0.2-0.1,0.5-0.1,0.8,0c0.9,0.4,1.8,0.8,2.7,1.1c0.2-0.3,0.5-0.6,1-0.5
					c2.8,0.3,4.5,1,6.6,2.8c0.1,0.1,0.2,0.2,0.2,0.3c1.7,0.3,3.3,0.7,5,1c0.3,0.1,0.5,0.2,0.6,0.4c0.2,0,0.3,0.1,0.5,0.1
					c0.2,0,0.4,0,0.7,0c1.1,0,2.2,0.1,3.3,0.5c0,0,0,0,0,0c-0.1-0.1-0.3-0.2-0.4-0.3c-1.7-1.2-0.2-3.9,1.7-2.9
					c5.5,3,10.9,6.3,16.1,9.8c1,0.5,1.9,1.1,2.8,1.9c0,0,0,0,0.1,0.1c1.7,1.2,3.4,2.4,5,3.6c1.7,1,3.4,2.1,5.2,3.1
					c0.4,0.3,0.4,0.7,0.1,1c0.1,0.1,0.3,0.2,0.4,0.3c3.2,1.5,5.7,3.7,7.8,6.8c1.1,1.6-1.3,3.2-2.6,2c-0.3-0.2-0.5-0.4-0.8-0.7
					c-0.2,0.8-0.8,1.5-1.7,1.4c0.6,0.6,1.2,1.3,1.8,1.9c0.1,0,0.2,0.1,0.2,0.1c0.3,0.2,0.5,0.5,0.5,0.7c1.6,1.8,3.1,3.7,4.5,5.7
					c0.5,0.7-0.4,1.4-1.1,1.1c-0.8-0.4-1.5-0.8-2.1-1.3c0.5,0.7,1,1.5,1.5,2.2c0.5,0.7-0.6,1.4-1.2,0.9c-1.3-1.1-2.7-2.3-4-3.4
					l1.1,2.9c0.7,1.9-2,2.6-3,1.3c-0.5-0.7-1-1.3-1.6-1.8c-0.5,0.4-1.2,0.6-1.8,0.3c0.1,0.2,0.1,0.4,0.1,0.6
					c0.1,0.1,0.3,0.2,0.4,0.4c0.1-0.2,0.3-0.3,0.5-0.2c2.5,1.2,4,2.6,5.5,4.9c0.3,0.4,0,0.9-0.4,1.1c0.7,0.7,1.4,1.4,2,2.1
					c1.6,1.2,3.2,2.5,4.8,4c0.7,0.7-0.2,1.8-1.1,1.4c-1.1-0.6-2.2-1.3-3.3-2c-0.2,0-0.5,0-0.7,0c0.7,0.8,1.4,1.5,2.1,2.3
					c0.5,0.5,0.2,1.2-0.3,1.4c0.4,0.6,0.7,1.1,1,1.8c0.2,0.5,0,1.1-0.5,1.3c0.1,0.1,0.2,0.2,0.3,0.3c0.3,0.4,0.3,0.8,0.1,1.1
					c0.5,0.5,1.1,0.9,1.7,1.4c0.5,0.3,0.6,1.1,0.1,1.5c0.3,0.2,0.6,0.4,0.9,0.5c1,0.3,0.6,1.8-0.4,1.6c-1.6-0.4-2.6-1-3.9-2.1
					c-0.6-0.5-0.1-1.4,0.5-1.5c-0.7-0.6-1.3-1.3-1.9-2.1c-0.3-0.4-0.3-0.8,0-1.1c-0.4-0.5-0.8-0.9-1.2-1.4c-0.8-0.8,0.4-1.9,1.2-1.2
					c0.1,0,0.2,0.1,0.3,0.1c-0.8-1-1.8-1.9-3.1-2.7c-0.9-0.5-0.2-1.8,0.7-1.6c-0.4-0.4-0.7-0.8-1.1-1.2c-0.4-0.4-0.3-0.9,0-1.2
					c-1.3-0.7-2.4-1.8-3.2-3.3c-0.3-0.6,0.1-1.1,0.6-1.3c0.1-0.2,0.2-0.3,0.3-0.4c-0.2-0.2-0.5-0.4-0.7-0.6
					c-0.4,0.4-1.1,0.5-1.7,0.3c-0.6,0.7-1.5,1-2.4,0.4c0,0,0,0,0,0c-0.5,0.2-1.1-0.1-1.5-0.4c-0.3-0.3-0.6-0.7-0.8-1.1
					c-3.8-2.4-7.6-4.7-11.4-7.1c-0.3,0.4-0.8,0.5-1.2,0.3c-0.1,0.7-0.5,1.3-1.2,1.6l-0.4,0.2c-0.7,0.2-1.5-0.2-1.9-0.8
					c0,0,0-0.1,0-0.1c-3.5-1.7-7-3.4-10.5-5c-0.3-0.1-1.3-0.7-2.5-1.3c-0.4,0.4-1.1,0.7-1.7,0.3c-0.8-0.4-1.6-0.8-2.3-1.2
					c-0.3,0.5-0.9,0.8-1.6,0.7c-0.4,1-1.8,1.8-3,1.3c-1.3-0.6-2.7-1.2-4-1.9c-0.4,1.1-1.6,1.8-2.9,1.2c-1.2-0.6-2.4-1.3-3.6-2
					c0,0-0.1,0-0.1,0c-1.5-0.1-3.1-0.3-4.6-0.5c0.4,0.8,0.8,1.6,1.1,2.5c0.3,0.9-0.5,2-1.5,2c-1.1-0.1-2.1-0.2-3.1-0.4
					c-0.3,0.3-0.7,0.6-1.1,0.9c0.2,0.7-0.6,1.5-1.4,1.4c-0.1,0-0.2,0-0.3-0.1c-0.2,0.1-0.5,0.1-0.7,0.1c-0.3-0.1-0.6-0.1-0.9-0.2
					c-0.4,0.4-0.9,0.6-1.5,0.4c-0.7-0.3-1.5-0.6-2.2-1c-0.1,0.2-0.2,0.4-0.3,0.6c0.1,0.1,0.2,0.3,0.3,0.4c0.8,1.2-0.5,2.6-1.8,2.3
					c-2.2-0.6-4.3-1.3-6.4-2.1c-0.3,0-0.6-0.1-0.9-0.2c-0.1-0.1-0.2-0.2-0.3-0.2c-0.7-0.3-1.3-0.6-2-0.9c0,0,0,0,0,0
					c0.3,0.5,0.6,1,0.9,1.5c0.4,0.6,0.2,1.4-0.3,1.9c0.5,1.4-1,3.4-2.5,2.3c0,0,0,0,0,0c-0.1,0-0.2,0-0.3,0
					c-1.3-0.1-2.5-0.3-3.7-0.6c-0.2,0.2-0.5,0.4-0.8,0.5c-0.3,0.7-1.1,1.3-1.9,1c-0.3-0.1-0.5-0.2-0.8-0.2c-0.1,0-0.3,0.1-0.4,0.1
					c0.4,0.3,0.8,0.7,1.2,1c1.4,1.1-0.1,3.6-1.7,3c-0.7-0.3-1.4-0.6-2.1-0.9c0,0.1-0.1,0.2-0.1,0.3c0.1,0.1,0.1,0.2,0.2,0.2
					c0.4,0.5,0.5,0.9,0.5,1.4c1.2,0.9,2.4,1.8,3.5,2.7c1.6,1.2,0.7,3.6-1.4,3.2c-3-0.5-5.8-1.4-8.5-2.6c0.4,0.9,0.9,1.8,1.6,2.7
					c1.1,1.4,0.1,3.3-1.7,3c-0.7-0.1-1.4-0.2-2-0.4c-0.2,0.4-0.5,0.7-0.9,0.9c0.2,1.1-0.5,2.3-1.7,2.2c-0.4,0-0.7-0.1-1.1-0.1
					c0.6,0.8,1.2,1.5,1.8,2.3c1.2,1.5-1,3.2-2.4,2.4c-2.9-1.6-5.7-3.1-8.6-4.7c-0.3,0-0.7,0-1-0.2c-1.2-0.8-2.4-1.5-3.7-2
					c0,0.3,0.1,0.7,0.1,1c0.1,1.2-1.2,2-2.3,1.7c-1.4-0.4-2.6-0.8-3.8-1.5c-0.2,0-0.5,0.1-0.8,0c-0.6,0.2-1.4,0.2-1.9-0.3
					c-1-0.8-1.9-1.5-2.9-2c-0.3,0.4-0.8,0.7-1.4,0.8c0.2,0.5,0.4,1,0.6,1.5c0.4,0.9-0.3,1.8-1.1,2.1c0.5,0.7,0.3,1.5-0.1,2
					c0.1,0.8-0.5,1.6-1.2,1.9l4.4,1.3c1.5,0.5,1.8,3.2,0,3.4c-0.6,0.1-1.3,0.2-1.9,0.3c1.6,2.3,2.5,5.1,0.4,7.4
					c-1.3,1.4-3,1.9-4.6,1.5c-0.1,0.5-0.3,0.9-0.4,1.4c0.1,0.9-0.2,1.6-0.9,2c0.2,0.5,0.4,1.1,0.7,1.6c0.3,0.7-0.6,1.2-1.2,0.9
					l-0.2-0.1c0.3,0.9-0.7,1.8-1.7,1.3c-0.3-0.1-0.6-0.3-0.8-0.4c0.2,0.6-0.2,1.4-0.9,1.5c0.4,0.7,0.6,1.4,0.5,2.3
					c0,0,0.1,0.1,0.2,0.1c0.8,0.7,0.5,2-0.2,2.6c0.3,0.8-0.1,1.6-0.8,2c1.3,0.5,2.3,1.1,3.3,2.2c0.8,0.7,0,2.3-1.1,1.9
					c0,0-0.1,0-0.1,0c0,0,0,0,0,0.1c0.6,0.3,0.7,0.9,0.4,1.3c0.4,0.3,0.9,0.5,1.3,0.8c0.1,0,0.2,0.1,0.3,0.1c1.2,0.6,0.3,2.2-0.9,2
					c-0.1,0-0.2,0-0.3-0.1c-0.1,0.7-0.1,1.2,0.1,1.7c1.1,0.4,2.1,0.9,3.2,1.7c0.9,0.7,0.4,2.6-0.9,2.1c-0.1,0-0.2-0.1-0.3-0.1
					c0,0,0,0,0,0c0,0,0,0,0,0c-0.9-0.4-1.8-0.8-2.5-1.4c-0.3-0.1-0.5-0.2-0.8-0.3c0.1,0.1,0.2,0.2,0.3,0.3c1,0.8-0.3,2.3-1.3,1.7
					c-0.6-0.1-1.1-0.3-1.7-0.4c0,0,0,0.1,0,0.1c0.4,0.4,0.7,0.7,1.1,1.1c0.3,0.3,0.5,0.8,0.4,1.2c1.6,0.9,3,2,4.3,3.5
					c0.7,0.7,0,2.1-1,1.7c-0.5-0.1-0.9-0.3-1.4-0.5c0.3,0.2,0.6,0.5,0.9,0.8c0.7,0.7,0,2.1-1,1.7c-1.6-0.6-2.9-1.3-4-2.2
					c0,0,0,0-0.1,0c0.2,0.3,0.3,0.6,0.3,0.8c0.2,0.5,0.4,0.9,0.6,1.3c1.4,0.7,2.6,1.7,3.7,3c0.6,0.7,0.1,1.6-0.6,1.7
					c0.1,0.1,0.3,0.2,0.4,0.4c0.8,0.7,0,2-1,1.7c-0.5-0.1-1.1-0.3-1.5-0.5c0.7,1.1,1.5,2.1,2.4,3.1c1.3,1.2,2.7,2.3,3.9,3.6
					c0.8,0.7-0.3,2.2-1.2,1.5c-0.1-0.1-0.1-0.1-0.2-0.2c0,0,0,0,0,0c0,0,0,0,0,0c-1.9-1.5-3.6-3.1-5-4.8c-0.9-0.8-1.8-1.6-2.7-2.4
					c0.2,0.4,0.3,0.8,0.5,1.2c0.2,0.2-0.1,0.6-0.3,0.4c-0.8-0.6-1.3-1-1.7-1.6c-0.4,0.2-0.9,0.3-1.4,0.1c-0.1-0.1-0.2-0.1-0.3-0.2
					c0,0-0.1,0-0.1,0.1c2.5,2.9,4.7,5.9,7.1,8.9c0.6,0.7,0.1,2.1-1,1.7c-2.4-0.8-4.6-1.9-6.7-3.4c-0.1,0-0.1-0.1-0.2-0.1
					c-0.1,0-0.3-0.1-0.4-0.2c-1.4-0.8-2.8-1.6-4.1-2.4c0,0.8-1,1.5-1.8,1l-1.9-1.3c-0.3,0.1-0.6,0-0.9-0.2c-0.6-0.5-1.2-1-1.8-1.4
					c0.1,1,0.1,1.9,0.2,2.9c0.1,1.6-2.4,1.6-2.5,0c-0.2-2.2-0.3-4.4-0.5-6.6c-0.1-0.1-0.1-0.2-0.2-0.4c-0.3,0-0.6-0.1-0.9-0.4
					c-1.7-2.2-3-4.4-4-7C112.1,207.3,113,206.6,113.9,206.6z"/>
				<g>
					<path class="st2" d="M115.3,206.2c0.2,0,0.4-0.1,0.5-0.1c0.9-0.1,1.2-1.1,1-1.8c0.2-0.2,0.4-0.5,0.7-0.7c0.4-0.3,0.5-1,0.4-1.5
						c-0.3-1.5-1.9-20.5-1-20.8c0.6-0.2,1.1-0.8,1.1-1.4c0.2-0.5,0.3-1.1,0.5-1.6c0.6-0.4,1.1-1.4,0.5-2.1c-1.2-1.7-6.2-9.5-1.7-9.9
						c1-0.1,1.7-0.9,1.4-1.9c0.3-0.7,0.6-1.3,0.9-2c1.1,0.1,1.9-1.4,1.3-2.3c-1.1-1.6-1.2-3.4-2-5c-0.8-1.6-6.4-8.6-4.2-10.1
						c0.6-0.4,0.8-1,0.7-1.7c0.6,0.1,1.2,0.2,1.8,0.4c1.2,1.1,2.7,0,2.5-1.5c0.3-0.2,0.7-0.3,1-0.5c1.2,0,1.8-1.3,1.3-2.3
						c-1.4-2.5-1.7-2.3-3.8-4.2c0.5,0.5,1.2,0.5,1.8,0.2c0.4,0,0.9,0,1.3,0c0.7,0.2,1.3-0.1,1.7-0.7c0.6-1,0.7-5.2,1.1-5.3
						c0.9-0.2,1.5-1.4,0.9-2.2c-1.7-2.4,1.3-2.4,3-3.5c0.5-0.3,0.9-1.1,0.7-1.7c0.4-0.2,0.8-0.5,1.1-0.7c0.7,0.1,1.7-0.2,1.8-1
						c0.2-0.4,0.3-0.8,0.5-1.3c0.4-0.5,0.2-1.4-0.2-1.8c0.3,0.3,3.7-0.6,4.3-0.8c1-0.3,1.5-1.8,0.7-2.5c-0.8-0.7-3.9-2.4-1.6-2.4
						c1.1,0,1.9-1.3,1.3-2.3c-0.4-2,0.3-2.8,2.1-2.3c0.6,0,1.4-0.5,1.4-1.1c0-0.1,1.6-3.9,1.6-4c0.7-0.6,0.5-1.5,0-2.1
						c-0.1-1-0.3-2-0.4-3c0.8-0.1,1.9-0.9,1.4-1.9c-1.3-3.1,4.1-2.5,5.2-2.1c0.8,0.3,1.7,0.8,2.6,0.9c0.8,0.1,1.1-0.6,2.2-0.4
						c0.7,0.2,1.7-0.2,1.8-1c1.1-0.6,2.1-0.5,3,0.3c0.8,0.4,2,0.1,2.2-0.9c0.6-2.4,7.6,2,8.6,2.3c1.8,0.5,3.3,0,5.4,0.9
						c0.6,0.3,1.4,0.3,1.8-0.2c0.5-0.6,3-1.7,3.7-2.3c0.2-0.2,2.3-2.6,2.4-2.6c0.6,0.2,1.4-0.1,1.7-0.7c0.4-1,8.1,7,9.1,7.6
						c1.4,0.9,3.9,1,5.5,1.2c0.5,0,1-0.3,1.3-0.7c-0.5,0.7,6.5,1.9,6.8,1.9c1.2,0,1.8-1.3,1.3-2.3c-0.5-0.9-1-1.9-1.5-2.8
						c0.7-0.2,1.2,0.1,1.7,0.9c1.6,0.4,3.3,1.7,4.9,2.3c1.7,0.7,2.5-1.8,1.2-2.7c-2.2-1.4-0.1,0.2,0.8,0.7c1.2,0.6,2.5,0.9,3.7,1.3
						c1.4,0.4,2.6-1.6,1.5-2.5c-0.9-0.7-2.1-1.7-2.8-1.7c0.3,0,3.2,1.8,4,2.2c1.1,0.5,2.1-0.1,2.3-1.3c0-0.2,0.1-0.5,0.1-0.7
						c0.1-0.5-0.3-1.1-0.7-1.3c-4.1-2.2,1.3,0.7,2.4,1.3c1.2,0.6,2.2,1.4,3.4,2c3,1.4,5.6,0.3,8.3,1.6c1.2,0.6,1.9,1.6,3.1,2.1
						c1.4,0.7,4.1,1.1,5.6,1.4c1.6,0.4,4.3,1.3,5.7,0.4c1-0.6,0.9-1.9,0-2.6c2.2,1.6,5.4,2.6,7.9,4.1c2.9,1.8,5.8,3.6,8.6,5.5
						c1.1,0.8,11.6,8,11.8,7.6c-0.2,0.5,0,1.1,0.4,1.5c0.8,0.7,1.7,1.1,2.6,1.6c0.9,0.6,1.8,1.2,2.6,2c0.9,0.7,1.5,1.5,1.7,2.7
						c-0.7-0.6-1.9-0.6-2.4,0.3c-0.3,0.2-0.5,0.5-0.8,0.7c-1.1,0.3-1.5,1.7-0.7,2.5c0.8,0.9,1.6,1.8,2.4,2.6
						c0.6,0.7,1.2,1.6,1.9,2.2c0.5,0.5,3.9,2.7,1.4,1.1c-1.2-0.8-2.9,0.8-2.1,2.1c0.5,1.4,1,1.5,1.4,0.1c-0.9-0.8-1.8-1.5-2.7-2.3
						c-1-0.9-3.1-0.1-2.5,1.5c0.8,2.2,1.3,3.4-1,0.8c-0.5-0.5-1.2-0.5-1.8-0.2c-0.4,0-0.7,0.1-1.1,0.1c-1-0.1-1.6,1-1.4,1.9
						c0.2,0.8,0.4,1.1,0.9,1.6c0.4,0.4,0.9,0.6,1.5,0.4c0.4-0.1,4.1,3.4,4.2,3.3c-0.6,0.6-0.6,1.6,0,2.1c1.4,1.4,4.2,5,6,4.8
						c0.7-0.1-2.1-1.8-3.2-1.8c-1.3,0-1.9,1.6-1.1,2.6c0.4,0.7,1,1.2,1.7,1.6c-0.4,0.5-0.6,1.2-0.2,1.8c0.3,0.4,0.5,0.8,0.7,1.2
						c-0.6,0.6-0.5,1.5,0,2.1c0,0,0,0,0,0c-0.2,0.5,0,1.1,0.4,1.5c-0.3-0.3,1.4,1.4,1.6,1c-0.3,0.7-0.2,1.6,0.5,2.1
						c-0.4-0.6-0.7-1.1-1.1-1.7c0.6-0.5,0.5-1.6,0-2.1c-0.5-0.5-1.3-2.1-1.6-2.4c-1.3-1.1,0.6,0.3-2-1c1.5,0.8,3-1.1,1.8-2.4
						c-1.2-1.3-1.5-2.1-3.1-1.7c1.2-0.3,1.4-1.7,0.7-2.5c-0.3-0.2-0.6-0.4-0.9-0.6c0.4-0.8,0.2-1.5-0.5-2.1c-2.9-2-2.8-1.6-1.8-3
						c0.5-0.7,0-1.6-0.5-2.1c-0.2-0.2-0.5-0.4-0.7-0.6c-0.4-0.3-1.1-0.2-1.5,0c-2,1-3.3,0.4-4.8-0.6c-3.7-2.6-7.7-4.8-11.5-7.2
						c-0.4-0.3-1.1-0.3-1.5,0c-0.1,0-0.3,0.1-0.4,0.1c-0.7-0.1-1.2,0.5-1.4,1.1c-0.5,1.2-9.4-3.9-10.9-4.6c-1.2-0.6-2.5-1.6-3.8-1.9
						c-1.3-0.4-2.2,0.1-3.7-0.7c-0.6-0.3-1.3-0.2-1.8,0.2c-2,1.7-4.6,0.9-6.8-0.1c-0.8-0.4-1.6-0.2-2.1,0.5
						c-0.9,1.3-3.9-1.3-4.8-1.5c-1.4-0.4-3.3-0.3-4.7-0.5c-1.3-0.2-2.3,0.9-1.7,2.2c0,0.1-4.3,3.4-4.7,3.7c-0.8,0.4-3.4,0.5-4.8-0.1
						c-0.7-0.3-1.7-0.2-2.1,0.5c-0.1,0.2-0.2,0.4-0.3,0.6c-0.2,0.5-0.3,1.1,0,1.5c-0.1-0.1-4.8-1-5.4-1.3c-1.2-0.5-2.4-1-3.6-1.5
						c-0.9-0.4-2.4,0.1-2.3,1.3c0.3,2.6,1.8,4.7-1.7,4.1c-2.9-0.5-4.2,0.3-6.9,0.9c-1,0.3-1.5,1.8-0.7,2.5c0.2,1.2-0.2,1.4-1.2,0.6
						c-0.6-0.2-1.4,0.2-1.7,0.7c0,0.1-0.1,0.2-0.1,0.3c-0.3,0.6-0.2,1.3,0.2,1.8c0.3,0.3,0.4,1.2,0.7,1.6c0.5,0.6,1.7,0.9,2.1,1.6
						c1.4,2.9-5.6-0.2-6.9-0.8c-1.3-0.5-2.2,1.2-1.7,2.2c0.7,0.7,0.9,1.5,0.6,2.3c0.2,1.1-0.1,1.3-1.1,0.7c0,0-1.1,0.1-1.2,0.2
						c-1.1,0.4-1.7,2.9-2.9,2.7c-1.1-0.1-2,1.4-1.3,2.3c2.7,3.5-4.5-0.5-5.5-1c-2.1-1.1-4.2-2.2-6.4-3.2c-0.9-0.4-2.4,0.1-2.3,1.3
						c0.2,2-8.7-2-9.3-2.4c-0.6-0.4-1.3-0.2-1.8,0.2c-0.2,0.1-0.5,0.3-0.7,0.4c-0.7,0.3-1.4,1-1,1.8c0,0.7-0.1,1.5-0.1,2.2
						c-0.4,0.3-0.5,1-0.4,1.5c0.1,0.8-0.1,1.6-0.6,2.2c-1,0.7-1,2.3,0.4,2.7c1,0.3,6.6,1.5,2.5,2.1c-1,0.1-1.4,1.5-0.9,2.2
						c1.9,2.3,0.9,4.5-2.9,6.6c-0.7-0.1-1.3,0.5-1.4,1.1c-0.1,0.4-0.5,2.3-0.9,2.7c-0.3,0.4-0.6,1-0.4,1.5c0.5,0.3,1,0.5,1.5,0.8
						c-1.1-0.5-2.1,0.1-2.3,1.3c-0.1-0.1-0.1-0.3-0.2-0.4c-0.8-0.4-2.1-0.1-2.2,0.9c-0.1,0.2-0.1,0.4-0.2,0.6c-0.5,0.4-1,1-0.7,1.7
						c0.6,1.5,1.3,4.2,0.1,5.6c-0.6,0.7-0.6,1.9,0.3,2.4c1.2,0.6,2.4,1.1,3.7,1.4c-1.3-0.6-2.9,0.6-2.1,2.1c0.1,0.1,0.3,0.5,0.3,0.2
						c-0.1,0.7,0.1,1.3,0.7,1.7c0.9,1.1,1.4,1.2,1.7,0.2c-1-0.2-1.8,0.5-1.9,1.4c-0.3,3.5,1.7,3,4.4,4.1c-0.7-0.3-1.7-0.3-2.1,0.5
						c0,0,0,0,0,0c0.7-0.2,1.4-0.4,2.1-0.5c-1.1-0.7-2.4-1.4-3.7-1.8c-1.4-0.5-2.6,1.6-1.5,2.5c0.9-0.8,0.5-1.1-1.2-1
						c-1.1-0.3-2.2,0.7-1.8,1.8c0.8,2.4,3.6,4.5,5.4,5.2c-1.4-0.5-2.5,1.5-1.5,2.5c-0.2-0.2-1.2-1.8-2.3-2.1
						c-0.3-0.1-0.5-0.2-0.8-0.2c-0.9-0.1-1.8,1-1.4,1.9c0.3,0.9,0.6,1.9,1.2,2.6c0.4,0.6,3,2.8,3.5,2.6c-0.8,0.4-1,1.8-0.3,2.4
						c-0.2-0.3-0.4-0.6-0.6-1c-1.2-0.4-2.4,1.1-1.7,2.2c0.7,1,1.4,2,2.2,2.9c0.5,0.6,1.1,1.2,1.8,1.7c0.8,1.1,1.9,1.7,3.4,1.6
						c-0.6-0.5-1.6-0.7-2.1,0c0,0,0,0,0,0c0.7,0,1.4,0,2.1,0c-2.5-2.5-5.1-4.9-7.7-7.3c-1-0.9-3.1-0.1-2.5,1.5
						c0.1,0.4,0.3,0.8,0.4,1.1c0.4-0.5,0.7-1,1.1-1.4c1-0.2-1.9-1.5-2.1-1.5c-0.7-0.1-1.5-0.2-2.1,0.1c-0.9,0.5-0.9,1.6-0.3,2.4
						c1.5,1.8,3.6,3.8,4.7,5.9c1,1.8,1.4,1.8-1,0.5c-2.5-1.3-4.8-2.9-7.3-4.2c-0.9-0.5-1.8,0-2.2,0.9c0.2-0.4-3.6-2.3-3.9-2.5
						c-0.9-0.7-2.7-0.4-2.6,1.1c0.3,3.8,0.4-1.1,0.4-2.1c-0.1-0.8,0-1.7-0.3-2.4c-0.3-0.6-5.9-6.9-4.6-7.2c1.9-0.4,1.1-3.3-0.8-2.9
						c-2.8,0.6-2.8,2.7-1.8,5c0.9,2.2,2.2,3.9,3.5,5.8c1.1,1.7,1.1,2.9,1.3,5c0.2,2,0.4,4.3,2.9,4.3c3.2,0,2.6-3.4,2.5-5.6
						c-0.9,0.4-1.7,0.7-2.6,1.1c2.4,1.9,7.1,5.7,8.9,1.2c-0.7,0.3-1.5,0.6-2.2,0.9c2.7,1.5,10.5,8,13.8,5.9c1.2-0.8,1.2-2.1,0.8-3.3
						c-1-3.2-5.3-7-7.4-9.5c-0.1,0.8-0.2,1.6-0.3,2.4c-0.9,0.5-1.2-0.4-0.5,0.3c-0.1-0.1,2.7,1.3,2.2,1.1c0.7,0.2,1,0.5,1.8,0.3
						c0.6-0.1,1.1-0.8,1.1-1.4c0-0.8-0.2-1.1-0.5-1.9c-0.8,0.5-1.7,1-2.5,1.5c2.6,2.3,5.2,4.8,7.7,7.3c0.5,0.5,1.6,0.6,2.1,0
						c0,0,0,0,0,0c-0.7,0-1.4,0-2.1,0c1.3,1.1,3.4,0.9,4-1c1-3-5.1-6.7-6.6-8.9c-0.6,0.7-1.1,1.5-1.7,2.2c2.8,1,7-1.2,3.6-4.1
						c-0.1,0.8-0.2,1.6-0.3,2.4c4.8-2.5-2.5-6.3-3.3-8.6c-0.5,0.6-1,1.3-1.4,1.9c0.9,0.1,2.5,2.1,3.9,2.2c0.7,0,1.6-0.1,2.1-0.5
						c1.7-1.5,0.5-3.4-0.8-4.5c-0.5,0.8-1,1.7-1.5,2.5c2,0.8,4.7,0.6,4.5-2.2c-0.2-3.2-5.3-4.1-6.2-6.7c-0.6,0.6-1.2,1.2-1.8,1.8
						c1.6,0.4,3.6,1.2,4.8-0.6c0.8-1.2,0.4-2.6-0.6-3.4c-0.5,0.8-1,1.7-1.5,2.5c0.6,0.2,2.3,1,2.9,1.5c0.6,0.4,1.7,0.2,2.1-0.5
						c0,0,0,0,0,0c-0.7,0.2-1.4,0.4-2.1,0.5c1.6,0.7,3.3,0.3,3.8-1.6c0.8-3.1-3.8-3.2-3.7-5.1c-0.6,0.5-1.3,1-1.9,1.4
						c1.4,0.3,3-0.3,3.4-1.7c0.7-2.1-1.3-3-2.8-3.9c0.2,0.6,0.5,1.1,0.7,1.7c0.2-1.3,0-1.4-0.6-2.5c-0.7,0.7-1.4,1.4-2.1,2.1
						c1.5,0.6,3.2-0.1,3.6-1.7c0.7-2.5-2.4-4.1-4.2-5c0.1,0.8,0.2,1.6,0.3,2.4c2.4-2.7,1.9-5.6,0.7-8.5c-0.2,0.6-0.5,1.1-0.7,1.7
						c1.1-0.8,1.4-1,1.6-2.4c-0.7,0.3-1.5,0.6-2.2,0.9c2.3,1.3,4.5,0.6,4.7-2.2c-0.8,0.4-1.5,0.9-2.3,1.3c1.1,0.5,2.6,0.4,3.3-0.8
						c0.3-0.6,0.1-1.2,0.2-1.8c0.2-1.5,0-2.3,0.6-4.2c-0.5,0.4-1,0.7-1.4,1.1c6.9,0.7,8.5-6.2,5.5-11.1c-0.3,0.7-0.6,1.5-0.9,2.2
						c2.6-0.4,5.5-1.9,3.8-5c-1.1-2-4.2-2.3-6.2-2.9c0.1,0.9,0.2,1.8,0.4,2.7c2.5-1.8,3.7-6.4,2.5-9.2c-0.3,0.6-0.7,1.2-1,1.8
						c0.9-0.4,1.3-0.6,2.1-1.2c-0.6,0.1-1.2,0.2-1.8,0.2c3.1,2,14.4,7.8,13.8-0.2c-0.8,0.4-1.5,0.9-2.3,1.3c3,1.4,6,3,9,4.6
						c1.8,1,4.1,3,6.4,2.7c4.6-0.7,2.3-5,0.7-7.1c-0.4,0.8-0.9,1.5-1.3,2.3c1.9,0.2,2.4-0.2,3.7-1.3c0.3-0.3,0.3-1.3,0.6-1.4
						c0.1-0.1,2.5,0.1,2.6,0.1c4.5-1.2,1.5-5.4,0.2-7.8c-0.6,0.7-1.1,1.5-1.7,2.2c2.6,1.1,10.7,5.2,12.3,0.5c0.5-1.5-0.1-2.5-1-3.6
						c-0.7-0.8-1.9-1.2-2.7-2c-0.7-0.7-0.9-1.6-1.6-2.3c0.1,0.6,0.2,1.2,0.2,1.8c0-0.1,0.1-0.2,0.1-0.3c-0.6,0.2-1.1,0.5-1.7,0.7
						c1.9,0.8,4,1.7,5.5-0.3c1.6-2.1,0.3-3.9-1.4-5.4c-0.2,0.8-0.4,1.7-0.7,2.5c0.6-0.2,1.6,0.2,2.3,0c0.7-0.2,1.2-0.9,1.9-1.1
						c2.4-0.5,2.3,0.9,4.5,0.7c1.5-0.2,2.2-1.5,2.7-2.8c0.2-0.5,0.5-1.6,0.4-2.2c-0.1-1.1-1-1.8-1-2.6c-0.8,0.4-1.5,0.9-2.3,1.3
						c3,1.4,7.4,4,10.7,3.6c1.2-0.1,2.3-0.5,2.8-1.8c0.3-0.7,0.3-3.1-0.2-2.2c-0.7,0.2-1.4,0.4-2.1,0.5c1.9,0.9,3.1,1.1,5.1,1
						c2-0.1,2.2-0.6,3.8-1.4c1.4-0.7,3.7,0,5-1.2c2-1.7,0.6-4.2-0.3-6c-0.6,0.7-1.1,1.5-1.7,2.2c1.5,0.2,3.7,0,5,0.5
						c1.1,0.4,2.1,1.6,3.3,1.9c2.1,0.6,3.4-0.1,4.6-1.9c-0.7,0.2-1.4,0.4-2.1,0.5c4.3,2,6.8,2.9,10.4-0.4c-0.6,0.1-1.2,0.2-1.8,0.2
						c2.1,1.1,3.2,1,5.2,1.4c3.3,0.7,7.9,3.4,10.8,5.1c2.7,1.6,5.3,2.8,6.9-1.1c-0.5,0.4-1,0.7-1.4,1.1c2.1,0.2,3.2,1.2,5.3,2.5
						c1.6,1,3.4,1.9,4.9,3c0,0,2.3,2.2,3.2,2.5c1.1,0.3,5.4-0.4,5.7-0.2c-0.2-0.7-0.4-1.4-0.5-2.1c-2.2,3,0,5.1,2.8,7.1
						c-0.2-0.7-0.4-1.4-0.5-2.1c-0.9,1.9,0,2.8,1.4,4.2c0.2-0.8,0.4-1.7,0.7-2.5c-5.2,1.2,0.5,5.3,1.8,6.8c0.6-0.8,1.2-1.6,1.8-2.4
						c-1.7-0.8-3.9-0.5-3.9,1.8c0,1.1,0.9,1.9,1.2,2.6c0.8,1.5,1.2,2.3,2.6,3.8c0-0.7,0-1.4,0-2.1c-0.2,0.2-0.5,0.4-0.7,0.6
						c-0.4,0.4-0.5,1-0.4,1.5c0.5,2.2,4.6,5.3,6.9,3.7c2.2-1.5,0.6-3.6-1.1-4.6c0.2,0.7,0.4,1.4,0.5,2.1c0.7-1.6,0.4-2-0.5-3.4
						c-0.3-0.2-0.6-0.4-1-0.3c0.1-0.3,0.1-0.5,0-0.8c-0.4-0.3-0.5-1.2-0.9-1.6c0,0.7,0,1.4,0,2.1c1.7-1.5,0.8-3.2-0.2-4.9
						c-0.1,0.6-0.2,1.2-0.2,1.8c2.1-2.3,0-4-1.7-5.8c-0.4,0.9-0.7,1.7-1.1,2.6c1.8,0,5.4,4.3,6.6,0.4c1-3-5.6-6.9-7.3-8.5
						c0,0.7,0,1.4,0,2.1c1.6-1.6,0.5-3.2-0.8-4.7c-1-1.1-2.2-2.2-3.5-3c-0.4-0.2-1-0.7-1.5-0.8c-1.4-0.2,0,0.1,0.1,0.3
						c-0.5,0.6-1,1.3-1.4,1.9c1.3,0.1,1.5,0.1,2.6-0.5c-0.6-0.1-1.2-0.2-1.8-0.2c1.5,1.7,3.7,4.4,6.2,2.2c1.9-1.7,0.5-4.1-0.2-6
						c-0.8,0.5-1.7,1-2.5,1.5c1.5,1.3,4.4,5.2,6.8,3.6c2.2-1.4,0.2-3.6-0.8-5.1c-0.7,0.7-1.4,1.4-2.1,2.1c1.6,1,5.1,2.8,5.5-0.5
						c0.5-3.2-5.5-8-7.5-10.2c-0.2,0.8-0.4,1.7-0.7,2.5c1.5-0.5,1.8-0.7,2.6-2.1c-0.8,0.1-1.6,0.2-2.4,0.3c3.3,2.9,7.8,0.4,5.3-3.8
						c-1-1.6-2.5-2.9-3.9-4.1c-1-0.8-3.1-1.5-3.5-1.9c-0.2-0.2-0.4-1.4-0.7-1.8c-1-1.2-3.6-2.1-4.8-3c-3.4-2.2-6.6-4.8-10.1-7
						c-4.3-2.8-9.6-7.2-14.5-8.8c-4.1-1.3-6.3,3.3-2.8,5.8c0-0.9,0-1.7,0-2.6c-0.3,0.2-4.8-1.2-5.7-1.4c-2.6-0.6-3.9-1.7-6.3-2.8
						c-3.3-1.5-6.4-0.9-9.7-2.5c-2.2-1.1-7.3-5.1-9.9-3.1c-0.8,0.6-1.3,1.9-1,2.9c0.2,0.7,3.3,3.2,3.3,2.6c0.8-0.4,1.5-0.9,2.3-1.3
						c-2.2-1-6.8-4.7-9-1.9c-2.4,3,2.6,4.8,4.2,6.2c0.5-0.8,1-1.7,1.5-2.5c-2.3-0.7-7.7-4.7-9.9-1.5c-1.8,2.6,1.3,3.9,3,5.1
						c0.4-0.9,0.8-1.8,1.2-2.7c-2.4-0.9-7.2-5.6-9.9-3.8c-2.9,1.9,0.4,6.1,1.4,7.9c0.4-0.8,0.9-1.5,1.3-2.3c-3.9,0-4.9-2.2-8.4-1.7
						c-1.9,0.3,2.6,1.5-2.3,0.1c-1.6-0.5-2.3-1.6-3.5-2.7c-2-1.9-8.8-9.7-11.1-4.3c0.6-0.2,1.1-0.5,1.7-0.7c-1.9-0.6-2.9,0-4.1,1.5
						c-0.8,1-1.1,1.8-2.4,2.5c-1.4,0.8-1.3,0.2-2.6,1.6c0.6-0.1,1.2-0.2,1.8-0.2c-3.4-1.5-6.6-1.7-9.9-3.1c-3.3-1.3-7.4-2.8-8.5,1.7
						c0.7-0.3,1.5-0.6,2.2-0.9c-2.7-1.4-6.7-2.7-7.4,1.5c0.6-0.3,1.2-0.7,1.8-1c-1.4-0.3-2.7,0-4-0.2c-2.1-0.3-4.3-1.9-6.5-1.1
						c-2.6,1-4,4.2-3.1,6.7c0.5-0.6,1-1.3,1.4-1.9c-5.7,0.7-4.7,4.5-1.7,8.1c0-0.7,0-1.4,0-2.1c-1.4,1.2-2.2,3.5-2.4,5.3
						c0.5-0.4,1-0.7,1.4-1.1c-5,0-7.4,2.1-4.6,6.8c0.4-0.8,0.9-1.5,1.3-2.3c-1.8,0-4.1-0.1-4.6,2.2c-0.6,2.4,2.5,4.1,4,5.4
						c0.2-0.8,0.4-1.7,0.7-2.5c-2.1,0.6-5.5-0.5-6.8,1.7c-0.9,1.6,0,2.9,1.2,4.1c-0.1-0.6-0.2-1.2-0.2-1.8c-0.7,0.9-0.7,0.9-0.8,2
						c0.6-0.3,1.2-0.7,1.8-1c-2.7-0.4-6.1,0.9-4.8,4.4c0.2-0.6,0.5-1.1,0.7-1.7c-2,1.2-4.2-1-5.9,1.5c-1.5,2.3,0.4,4.3,1.8,6.1
						c0.3-0.7,0.6-1.5,0.9-2.2c-1.7,0.4-3,0.8-3.7,2.5c-0.4,1,0.9,4,0.8,4.1c0.6-0.2,1.1-0.5,1.7-0.7c-1.4-0.4-2.3-0.3-3.6,0.3
						c0.6,0.1,1.2,0.2,1.8,0.2c-1.4-1.2-3.7-0.9-4.5,0.9c-1.1,2.6,2.4,5,3.5,6.9c0.4-0.8,0.9-1.5,1.3-2.3c-2.6,0-4.2,1.7-3.9,4.3
						c0.8-0.5,1.7-1,2.5-1.5c-2.9-2.6-8-2.5-6.9,2.6c0.2-0.6,0.5-1.1,0.7-1.7c-3.1,2-1.9,4.7-0.6,7.6c1,2.4,2.9,4.6,3.8,7
						c0.6,1.8,0.8,2.8,2,4.6c0.4-0.8,0.9-1.5,1.3-2.3c-3.8-0.5-4.4,2.7-3.8,5.8c0.5-0.6,1-1.3,1.4-1.9c-8.3,0.8-4.2,10-0.9,14.4
						c0.2-0.7,0.4-1.4,0.5-2.1c-1.6,1.2-2,2.1-2,4.2c0.4-0.5,0.7-1,1.1-1.4c-4.3,1.5-2,8.7-1.8,12.1c0.2,3.3,0.7,6.9,0.3,10.1
						c-0.2,1.4-0.9,3-0.6,4.4c0.3-0.6,0.7-1.2,1-1.8c-1.9,0.3-3.3,1.8-2.6,3.8C113,208.8,115.9,208.1,115.3,206.2z"/>
				</g>
			</g>
			<g>
				<path class="st1" d="M116.8,123.5c-0.5-0.8-0.9-1.7-1.2-2.9c-0.2-1,0.3-2.1,1.4-2.4c0.5-0.1,1-0.3,1.5-0.3
					c-0.7-0.9-1.3-1.8-2-2.7c-0.9-1.2,0.3-3,1.7-2.9c1.1,0.1,2,0.3,2.8,0.6c0.4-0.4,0.8-0.6,1.2-0.7c0-0.1-0.1-0.2-0.1-0.4
					c-0.4-1.1,0.6-2.6,1.9-2.5c0.5,0,0.9,0.1,1.4,0.2c-0.1-0.6,0.2-1.3,0.7-1.7c-0.3-0.3-0.6-0.6-0.9-0.9c-1-1,0.1-2.3,1.3-2.1
					c1.7,0.3,3.3,0.2,4.8-0.4c-1.2-1-2.3-2-3.5-3c-0.8-0.7-0.1-2.1,0.9-2.1c0.7,0,1.4,0,2.1,0c-0.3-0.6-0.6-1.1-1-1.7
					c-0.6-1-0.1-2.7,1.2-2.9c1.2-0.2,2.3-0.2,3.3-0.2c-0.2-0.9,0.3-1.8,1.1-2.2c-0.3-1,0.1-2.3,1-2.6c-0.8-0.9-1.5-1.8-2.1-2.7
					c-0.7-1,0-2.7,1.2-2.9c0.6-0.1,1.1-0.2,1.6-0.2c-1-1.2-0.4-2.7,0.8-3.1c-0.1-1.2,1.3-2.2,2.5-2c2.2,0.4,4.3,1,6.2,1.9
					c0.5-0.4,1.1-0.7,1.9-0.5c0.3,0.1,0.6,0.1,0.8,0.2c-0.3-1.5,1.7-2.5,3-1.9c0.8,0.4,1.6,0.8,2.4,1.2c-0.1-1.2,1.1-2.5,2.5-2.1
					c3.1,0.8,6,2,8.7,3.5c0.5-0.5,1.2-0.7,1.9-0.5c1.4,0.4,2.7,0.9,4,1.5c0.3-0.9,1.3-1.5,2.3-1c1.1-1,2.1-1.9,3.2-2.9
					c-0.5-1.6,1.3-2.4,2.4-1.6c0.1-1,1.1-1.8,2.1-1.1c3.6,2.5,6.7,5.3,9.5,8.5c0.3,0.1,0.5,0.1,0.8,0.2c0.2,0,0.5,0,0.7,0.1
					c0,0,0.1,0,0.1,0.1c0.5,0.1,1,0.3,1.5,0.4c0.6,0,1.2,0.1,1.8,0.2c0.2-0.8,1.4-1.4,2.2-0.7c0.8,0.7,1.7,1.2,2.5,1.5
					c0.6,0.1,1.2,0.3,1.9,0.5c0.6,0.1,1.2,0.1,1.8,0c-0.8-1.5-1.6-3-2.4-4.4c-0.6-1,0.7-2.6,1.8-1.8c2.4,1.9,4.9,3.3,7.7,4.2
					c-0.7-0.5-1.4-0.9-2.3-1.3c-1.5-0.8-0.2-2.9,1.3-2.2c2.2,1.2,4.5,2.1,6.9,2.7c-0.8-0.7-1.6-1.3-2.6-1.8
					c-0.5-0.2-0.9-0.5-1.4-0.7c-1.5-0.8-0.2-2.9,1.3-2.2c0.5,0.2,1,0.5,1.5,0.8c1.4,0.7,2.9,1.4,4.3,2c0-0.2,0-0.5,0.1-0.7
					c-1-0.5-2.1-1.1-3.1-1.7c-1.2-0.7-0.4-2.8,1-2.3c3.3,1.1,6.2,2.5,8.9,4.4c0.1,0,0.2,0.1,0.4,0.2c0.2-0.1,0.5-0.1,0.8,0
					c1,0.4,1.9,0.8,2.9,1.2c0.2-0.3,0.6-0.6,1-0.5c2.9,0.3,4.7,1.1,6.9,3c0.1,0.1,0.2,0.2,0.2,0.3c1.7,0.4,3.5,0.7,5.2,1.1
					c0.3,0.1,0.5,0.2,0.6,0.4c0.2,0,0.4,0.1,0.5,0.1c0.2,0,0.4,0,0.7,0c1.1,0,2.3,0.2,3.5,0.5c0,0,0,0,0,0c-0.2-0.1-0.3-0.2-0.5-0.3
					c-1.8-1.3-0.2-4.1,1.8-3c5.8,3.1,11.4,6.6,16.8,10.2c1,0.5,2,1.2,2.9,2c0,0,0,0,0.1,0.1c1.8,1.2,3.5,2.5,5.2,3.8
					c1.8,1.1,3.6,2.2,5.4,3.3c0.4,0.3,0.4,0.8,0.1,1.1c0.1,0.1,0.3,0.2,0.4,0.3c3.3,1.6,6,3.9,8.2,7.1c1.2,1.7-1.3,3.4-2.7,2.1
					c-0.3-0.2-0.5-0.5-0.8-0.7c-0.2,0.9-0.9,1.6-1.7,1.5c0.6,0.7,1.2,1.3,1.8,2c0.1,0,0.2,0.1,0.2,0.1c0.3,0.2,0.5,0.5,0.6,0.8
					c1.6,1.9,3.2,3.8,4.7,5.9c0.5,0.7-0.5,1.4-1.1,1.1c-0.8-0.4-1.5-0.8-2.2-1.3c0.5,0.8,1.1,1.5,1.6,2.3c0.5,0.8-0.6,1.5-1.2,0.9
					c-1.4-1.2-2.8-2.4-4.2-3.6l1.1,3c0.7,2-2.1,2.8-3.1,1.3c-0.5-0.7-1-1.3-1.6-1.9c-0.5,0.5-1.2,0.7-1.9,0.3
					c0.1,0.2,0.1,0.4,0.1,0.6c0.1,0.1,0.3,0.3,0.4,0.4c0.1-0.2,0.3-0.3,0.5-0.2c2.6,1.3,4.2,2.7,5.8,5.1c0.3,0.4,0,0.9-0.4,1.1
					c0.8,0.7,1.5,1.4,2.1,2.2c1.7,1.3,3.4,2.6,5,4.1c0.8,0.7-0.2,1.9-1.1,1.4c-1.2-0.6-2.3-1.3-3.4-2.1c-0.3,0-0.5,0-0.7,0
					c0.7,0.8,1.4,1.6,2.2,2.4c0.5,0.5,0.2,1.3-0.3,1.5c0.4,0.6,0.7,1.2,1,1.9c0.3,0.6,0,1.2-0.6,1.3c0.1,0.1,0.2,0.2,0.3,0.3
					c0.4,0.4,0.3,0.9,0.1,1.2c0.5,0.5,1.1,0.9,1.8,1.4c0.5,0.3,0.6,1.2,0.1,1.5c0.3,0.2,0.7,0.4,1,0.6c1.1,0.3,0.6,1.9-0.5,1.7
					c-1.7-0.4-2.7-1-4.1-2.2c-0.6-0.5-0.2-1.4,0.5-1.6c-0.7-0.7-1.4-1.4-2-2.2c-0.3-0.4-0.3-0.9-0.1-1.2c-0.4-0.5-0.9-1-1.3-1.4
					c-0.8-0.9,0.4-2,1.3-1.3c0.1,0,0.2,0.1,0.3,0.1c-0.9-1.1-1.9-2-3.2-2.8c-0.9-0.6-0.2-1.9,0.7-1.6c-0.4-0.4-0.8-0.9-1.2-1.3
					c-0.4-0.4-0.3-0.9,0-1.2c-1.4-0.8-2.5-1.9-3.3-3.5c-0.3-0.6,0.1-1.2,0.6-1.3c0.1-0.2,0.2-0.3,0.3-0.5c-0.2-0.2-0.5-0.4-0.8-0.6
					c-0.4,0.4-1.1,0.6-1.8,0.3c-0.6,0.7-1.6,1-2.5,0.5c-0.6,0.2-1.2-0.1-1.6-0.4c-0.4-0.3-0.6-0.7-0.9-1.1c-4-2.5-7.9-4.9-11.9-7.4
					c-0.4,0.4-0.8,0.6-1.2,0.3c-0.1,0.7-0.5,1.4-1.2,1.6l-0.5,0.2c-0.7,0.3-1.6-0.2-1.9-0.8c0,0,0-0.1,0-0.1
					c-3.6-1.8-7.3-3.5-10.9-5.3c-0.3-0.2-1.3-0.7-2.7-1.4c-0.4,0.4-1.1,0.7-1.8,0.4c-0.8-0.4-1.6-0.8-2.4-1.3
					c-0.3,0.5-1,0.9-1.6,0.7c-0.4,1.1-1.9,1.9-3.1,1.3c-1.4-0.6-2.8-1.3-4.2-1.9c-0.4,1.1-1.7,1.9-3,1.2c-1.3-0.7-2.5-1.4-3.7-2.1
					c-0.1,0-0.1,0-0.2,0c-1.6-0.1-3.2-0.3-4.8-0.5c0.4,0.8,0.8,1.7,1.2,2.6c0.3,1-0.5,2.1-1.6,2c-1.1-0.1-2.2-0.2-3.3-0.4
					c-0.3,0.4-0.7,0.7-1.2,0.9c0.2,0.8-0.6,1.6-1.5,1.4c-0.1,0-0.2,0-0.3-0.1c-0.2,0.1-0.5,0.1-0.8,0.1c-0.3-0.1-0.6-0.1-0.9-0.2
					c-0.4,0.4-1,0.6-1.5,0.4c-0.8-0.3-1.5-0.6-2.3-1c-0.1,0.2-0.2,0.4-0.3,0.6c0.1,0.1,0.2,0.3,0.3,0.4c0.8,1.2-0.5,2.7-1.8,2.4
					c-2.3-0.6-4.5-1.3-6.7-2.2c-0.3,0-0.6-0.1-0.9-0.3c-0.1-0.1-0.2-0.2-0.4-0.2c-0.7-0.3-1.4-0.6-2-0.9c0.3,0.5,0.6,1.1,0.9,1.6
					c0.4,0.7,0.2,1.5-0.3,2c0.6,1.5-1,3.6-2.6,2.4c-0.1,0-0.2,0-0.3,0c-1.4-0.1-2.6-0.3-3.9-0.6c-0.2,0.2-0.5,0.4-0.8,0.5
					c-0.3,0.8-1.1,1.3-2,1.1c-0.3-0.1-0.5-0.2-0.8-0.2c-0.1,0.1-0.3,0.1-0.4,0.1c0.4,0.4,0.8,0.7,1.2,1.1c1.4,1.1-0.1,3.8-1.8,3.1
					c-0.7-0.3-1.5-0.6-2.2-0.9c0,0.1-0.1,0.2-0.1,0.3c0.1,0.1,0.1,0.2,0.2,0.2c0.4,0.5,0.6,1,0.5,1.4c1.2,0.9,2.5,1.9,3.7,2.8
					c1.7,1.3,0.7,3.7-1.4,3.3c-3.1-0.5-6-1.4-8.8-2.7c0.4,1,1,1.9,1.7,2.8c1.2,1.5,0.1,3.4-1.8,3.1c-0.7-0.1-1.4-0.3-2.1-0.4
					c-0.2,0.4-0.5,0.7-0.9,0.9c0.2,1.1-0.5,2.4-1.8,2.3c-0.4,0-0.7-0.1-1.1-0.1c0.6,0.8,1.2,1.6,1.8,2.4c1.2,1.6-1.1,3.3-2.5,2.5
					c-3-1.6-6-3.2-9-4.9c-0.3,0-0.7,0-1-0.2c-1.3-0.8-2.5-1.5-3.8-2.1c0,0.3,0.1,0.7,0.1,1c0.1,1.2-1.3,2.1-2.4,1.8
					c-1.5-0.4-2.8-0.9-4-1.6c-0.3,0-0.5,0.1-0.8,0c-0.6,0.2-1.4,0.2-2-0.3c-1-0.9-2-1.6-3-2.1c-0.4,0.4-0.8,0.7-1.5,0.8
					c0.2,0.5,0.4,1,0.6,1.6c0.4,0.9-0.3,1.9-1.2,2.2c0.5,0.7,0.4,1.5-0.1,2.1c0.1,0.9-0.5,1.7-1.3,1.9l4.5,1.3
					c1.6,0.5,1.9,3.3,0,3.6c-0.7,0.1-1.3,0.2-2,0.3c1.7,2.4,2.6,5.3,0.4,7.7c-1.3,1.4-3.2,2-4.8,1.6c-0.1,0.5-0.3,0.9-0.4,1.4
					c0.1,0.9-0.2,1.7-0.9,2.1c0.2,0.6,0.5,1.1,0.7,1.7c0.3,0.8-0.6,1.2-1.2,0.9l-0.2-0.1c0.3,0.9-0.7,1.9-1.7,1.4
					c-0.3-0.1-0.6-0.3-0.8-0.4c0.2,0.6-0.3,1.4-0.9,1.5c0.4,0.7,0.6,1.5,0.6,2.4c0.1,0,0.1,0.1,0.2,0.1c0.8,0.8,0.5,2.1-0.2,2.7
					c0.4,0.8-0.1,1.7-0.8,2.1c1.3,0.5,2.4,1.2,3.5,2.3c0.8,0.8,0,2.4-1.1,2c0,0-0.1,0-0.1,0c0,0,0,0,0,0.1c0.6,0.3,0.7,0.9,0.4,1.4
					c0.5,0.3,0.9,0.6,1.4,0.9c0.1,0,0.2,0.1,0.3,0.1c1.3,0.6,0.3,2.3-0.9,2.1c-0.1,0-0.2,0-0.3-0.1c-0.1,0.7-0.1,1.3,0.1,1.8
					c1.1,0.4,2.2,1,3.3,1.8c1,0.7,0.5,2.7-0.9,2.2c-0.1,0-0.2-0.1-0.3-0.1c-1-0.4-1.8-0.9-2.6-1.4c-0.3-0.1-0.5-0.2-0.8-0.3
					c0.1,0.1,0.2,0.2,0.3,0.3c1,0.8-0.3,2.4-1.4,1.8c-0.6-0.1-1.2-0.3-1.8-0.4c0,0,0,0.1,0,0.1c0.4,0.4,0.8,0.7,1.1,1.1
					c0.4,0.4,0.5,0.8,0.5,1.2c1.7,0.9,3.1,2.1,4.5,3.6c0.7,0.8,0,2.2-1.1,1.8c-0.5-0.2-1-0.3-1.4-0.5c0.3,0.3,0.6,0.5,1,0.9
					c0.7,0.7,0,2.2-1.1,1.8c-1.6-0.6-3-1.4-4.2-2.3c0,0,0,0-0.1,0c0.2,0.3,0.3,0.6,0.3,0.9c0.2,0.5,0.4,0.9,0.7,1.3
					c1.4,0.8,2.7,1.8,3.8,3.2c0.6,0.8,0.1,1.7-0.6,1.8c0.2,0.1,0.3,0.2,0.5,0.4c0.8,0.7-0.1,2-1,1.8c-0.6-0.2-1.1-0.3-1.6-0.5
					c0.8,1.1,1.6,2.2,2.5,3.2c1.4,1.2,2.8,2.4,4.1,3.7c0.8,0.8-0.3,2.3-1.2,1.6c-0.1-0.1-0.1-0.1-0.2-0.2c0,0,0,0,0,0
					c-2-1.5-3.7-3.2-5.3-5c-0.9-0.8-1.8-1.7-2.8-2.5c0.2,0.4,0.3,0.8,0.5,1.2c0.2,0.2-0.1,0.6-0.3,0.5c-0.8-0.6-1.4-1.1-1.7-1.6
					c-0.4,0.3-0.9,0.3-1.5,0.1c-0.1-0.1-0.2-0.1-0.3-0.2c0,0-0.1,0.1-0.1,0.1c2.6,3,4.9,6.2,7.4,9.2c0.6,0.8,0.1,2.2-1,1.8
					c-2.5-0.8-4.8-2-7-3.5c-0.1,0-0.1-0.1-0.2-0.1c-0.1,0-0.3-0.1-0.4-0.2c-1.4-0.8-2.9-1.6-4.3-2.5c0,0.8-1.1,1.6-1.9,1.1l-2-1.3
					c-0.3,0.1-0.6,0-0.9-0.2c-0.6-0.5-1.3-1-1.9-1.5c0.1,1,0.1,2,0.2,3c0.1,1.7-2.5,1.7-2.6,0c-0.2-2.3-0.3-4.6-0.5-6.9
					c-0.1-0.1-0.2-0.3-0.2-0.4c-0.3,0-0.7-0.1-0.9-0.4c-1.8-2.3-3.1-4.6-4.2-7.3c-0.4-1,0.6-1.8,1.5-1.7c0-0.1-0.1-0.2-0.1-0.3
					c-0.3-1.1,0.8-2,1.8-1.8c0-0.1,0-0.2-0.1-0.3c-0.1-0.9,0.4-1.7,1.1-1.9c-0.2-1-0.4-2-0.5-3.2c0-0.5,0.1-0.8,0.4-1.1
					c-0.2-3.6-0.5-7.3-0.7-10.9c-0.2-1.3-0.4-2.7-0.3-4.1c0-0.1,0-0.2,0-0.3c-0.1-0.9-0.1-1.8-0.2-2.8c0-0.8,0.7-1.3,1.4-1.3
					c0-0.4,0-0.9,0-1.3c0-0.8,0.6-1.5,1.3-1.7c-1.9-2.4-3.3-5.1-4.2-8.2c-0.3-0.9,0.2-1.8,0.9-2.2c-0.4-1.6,1.3-2.8,2.7-2.2
					c0.1,0,0.2,0,0.2,0c-0.1-0.6-0.3-1.1-0.4-1.7c-0.3-1.7,1.2-3,2.8-2.3c-0.5-0.8-1.1-1.7-1.6-2.5c-0.1-0.2-0.2-0.5-0.3-0.7"/>
				<g>
					<path class="st2" d="M118.1,122.8c0.3-1.1,0.5-2.3,0.8-3.4c0.9-0.2,1.5-1.4,0.9-2.2c-1.8-2.5,1.4-2.6,3.2-3.7
						c0.5-0.3,0.9-1.1,0.7-1.7c0.4-0.3,0.8-0.5,1.3-0.8c0.7,0.1,1.7-0.2,1.8-1c0.2-0.4,0.4-0.9,0.6-1.3c0.4-0.5,0.2-1.4-0.2-1.8
						c0.2,0.2,4-0.8,4.5-0.9c1-0.3,1.5-1.8,0.7-2.5c-0.8-0.7-4.1-2.6-1.6-2.6c1.1,0,1.9-1.3,1.3-2.3c-1-1.8,0.6-2.5,2.2-2.5
						c0.6,0,1.4-0.5,1.4-1.1c0-0.1,1.7-4.1,1.7-4.2c0.7-0.6,0.5-1.5,0-2.1c-0.1-1.1-0.3-2.2-0.4-3.2c0.8-0.1,1.9-0.9,1.4-1.9
						c-1.3-3.3,4.3-2.6,5.5-2.3c0.9,0.3,1.8,0.8,2.6,0.9c0.9,0.1,1.1-0.7,2.3-0.4c0.7,0.2,1.7-0.2,1.8-1c1.2-0.6,2.2-0.6,3.2,0.2
						c0.8,0.4,2,0.1,2.2-0.9c0.6-2.6,7.9,2,9.1,2.4c1.9,0.5,3.5,0,5.7,1c0.8,0.3,1.6,0.2,2.1-0.5c0.1-0.1,2.9-1.4,3.1-1.6
						c0.4-0.3,2.9-3.2,3.1-3.2c0.6,0.2,1.4-0.1,1.7-0.7c0.6-1.3,8.6,7.4,9.4,7.8c1.6,1,4,1.2,5.8,1.3c0.5,0,1-0.3,1.3-0.7
						c-0.5,0.7,6.8,2,7.1,2c1.2,0,1.8-1.3,1.3-2.3c-1.1-2.1-2.9-3.6,0.3-2.2c1.7,0.8,3.3,1.7,5.1,2.4c1.7,0.7,2.5-1.8,1.2-2.7
						c-2.3-1.5,0.1,0.2,0.9,0.6c1.2,0.6,2.6,0.9,3.8,1.3c1.4,0.4,2.6-1.6,1.5-2.5c-0.9-0.7-2.3-1.6-2.9-1.9c0.9,0.3,3,1.7,4.3,2.2
						c1.1,0.5,2.1-0.1,2.3-1.3c0-0.2,0.1-0.5,0.1-0.7c0.1-0.5-0.3-1.1-0.7-1.3c-3.9-2.1,1.4,0.6,2.5,1.3c1.2,0.7,2.3,1.5,3.5,2.1
						c3,1.4,5.5,0.4,8.2,1.5c1.3,0.6,2.3,1.7,3.5,2.3c1.6,0.8,4.1,1.1,5.8,1.5c1.6,0.4,4.7,1.4,6.1,0.5c1-0.6,0.9-1.9,0-2.6
						c0.9,0.6,3.3,1.3,4.5,1.9c1.3,0.7,2.6,1.5,3.8,2.3c2.8,1.7,5.5,3.5,8.3,5.3c1.3,0.9,12.9,8.7,13,8.4c-0.2,0.5,0,1.1,0.4,1.5
						c0.8,0.7,1.8,1.1,2.7,1.7c1,0.6,1.9,1.3,2.7,2.1c1,0.7,1.6,1.6,1.7,2.9c-0.7-0.6-1.9-0.6-2.4,0.3c-0.3,0.3-0.6,0.5-0.8,0.8
						c-1.1,0.3-1.5,1.7-0.7,2.5c0.9,0.9,1.7,1.8,2.5,2.8c0.6,0.7,1.2,1.6,1.9,2.3c0.5,0.5,4,2.9,1.4,1.2c-1.2-0.8-2.9,0.8-2.1,2.1
						c0.5,1.5,1,1.5,1.4,0.2c-0.9-0.8-1.9-1.6-2.8-2.4c-1-0.9-3.1-0.1-2.5,1.5c1,2.7,1.3,3.6-1.1,0.9c-0.5-0.5-1.2-0.5-1.8-0.2
						c-0.4,0-0.8,0.1-1.2,0.1c-1-0.1-1.6,1-1.4,1.9c0.2,0.8,0.4,1.1,0.9,1.6c0.4,0.4,0.9,0.6,1.5,0.4c0.4-0.1,4.4,3.6,4.4,3.5
						c-0.6,0.6-0.6,1.6,0,2.1c1.5,1.5,4.3,5.1,6.2,5c0.4,0-2.1-1.9-3.3-1.9c-1.3,0-1.9,1.6-1.1,2.6c0.5,0.7,1.1,1.3,1.8,1.7
						c-0.4,0.5-0.6,1.2-0.2,1.8c0.3,0.4,0.6,0.9,0.7,1.4c-0.6,0.6-0.5,1.5,0,2.1c0,0,0,0,0,0c-0.2,0.5,0,1.1,0.4,1.5
						c-0.3-0.3,1.5,1.4,1.7,1.1c-0.3,0.7-0.2,1.6,0.5,2.1c0.2-1-0.2-1.6-1.2-1.7c0.6-0.5,0.5-1.6,0-2.1c-0.6-0.6-1.3-2.2-1.7-2.5
						c-1.2-1.1,0.6,0.2-2-1.1c1.5,0.8,3-1.1,1.8-2.4c-1.1-1.2-1.6-2.3-3.2-1.9c1.2-0.3,1.4-1.7,0.7-2.5c-0.3-0.2-0.6-0.5-0.9-0.7
						c0.4-0.8,0.2-1.6-0.5-2.1c-1.3-0.8-2.9-1.8-1.9-3.2c0.5-0.7,0-1.6-0.5-2.1c-0.3-0.2-0.5-0.4-0.8-0.6c-0.4-0.3-1.1-0.2-1.5,0
						c-2.1,1.1-3.5,0.5-5.2-0.8c-3.8-2.7-7.9-4.9-11.9-7.4c-0.4-0.3-1.1-0.3-1.5,0c-0.2,0-0.3,0.1-0.5,0.1c-0.7-0.1-1.2,0.5-1.4,1.1
						c-0.6,1.4-9.2-3.7-10.8-4.5c-1.4-0.7-2.9-1.8-4.4-2.2c-1.4-0.4-2.5,0-4-0.8c-0.6-0.3-1.3-0.2-1.8,0.2c-2,1.8-4.9,0.9-7.1-0.1
						c-0.8-0.4-1.6-0.2-2.1,0.5c-1,1.5-4.1-1.3-5.1-1.6c-1.5-0.4-3.5-0.3-4.9-0.5c-1.3-0.2-2.3,0.9-1.7,2.2c0.1,0.1-4.4,3.6-4.9,3.9
						c-0.9,0.5-3.6,0.6-5.1-0.1c-0.7-0.3-1.7-0.2-2.1,0.5c-0.1,0.2-0.2,0.4-0.3,0.6c-0.2,0.5-0.3,1.1,0,1.5c0,0-5.1-1-5.7-1.2
						c-1.3-0.5-2.5-1-3.8-1.6c-1.3-0.6-2.8,0.7-2.1,2.1c0.6,1,0.9,3-0.3,3.8c-0.9,0.6-3.3-0.8-4.3-0.6c-1.5,0.2-3.1,1.1-4.6,1.4
						c-1,0.3-1.5,1.8-0.7,2.5c0.2,1.4-0.3,1.6-1.3,0.8c-0.6-0.2-1.4,0.2-1.7,0.7c0,0.1-0.1,0.2-0.1,0.3c-0.3,0.6-0.2,1.3,0.2,1.8
						c0.3,0.3,0.4,1.2,0.7,1.7c0.5,0.7,1.8,0.9,2.2,1.6c0.8,1.5,0.3,1.5-1.5,1.3c-1.7-0.1-4-1.3-5.4-1.9c-1.3-0.6-2.8,0.6-2.1,2.1
						c0.8,1.5,2.6,2.7,0.5,3.5c-0.4,0.2-1.4-0.4-2-0.2c-1.3,0.4-1.9,3.1-3.2,2.9c-1.1-0.1-2,1.4-1.3,2.3c3,3.9-4.3-0.1-5.4-0.7
						c-2.3-1.3-4.7-2.4-7.1-3.5c-0.9-0.4-2.4,0.1-2.3,1.3c0.2,2.2-8.9-1.9-9.8-2.5c-0.6-0.4-1.3-0.2-1.8,0.2
						c-0.3,0.2-0.5,0.3-0.8,0.5c-0.7,0.3-1.4,1-1,1.8c0,0.8-0.1,1.6-0.1,2.3c-0.4,0.3-0.5,1-0.4,1.5c0.1,0.9-0.1,1.7-0.7,2.4
						c-1,0.7-1,2.3,0.4,2.7c1.8,0.5,6.9,1.7,2.6,2.3c-1,0.1-1.4,1.5-0.9,2.2c2,2.4,1,4.7-3.1,7c-0.7-0.1-1.3,0.5-1.4,1.1
						c-0.1,0.4-0.5,2.4-0.9,2.8c-0.3,0.4-0.6,1-0.4,1.5c0.5,0.3,1,0.6,1.5,0.9c-1.1-0.5-2.1,0.1-2.3,1.3c-0.1-0.1-0.2-0.2-0.3-0.3
						c-0.8-0.4-2.1-0.1-2.2,0.9c-0.1,0.2-0.1,0.4-0.2,0.6c-0.5,0.4-1,1-0.7,1.7c0.7,1.6,1.3,4.4,0,5.9c-0.6,0.7-0.6,1.9,0.3,2.4
						c1.2,0.6,2.5,1.1,3.7,1.6c-1.3-0.6-2.9,0.6-2.1,2.1c0,0.1,0.3,0.5,0.3,0.3c-0.1,0.7,0.1,1.3,0.7,1.7c0.9,1.2,1.4,1.3,1.7,0.3
						c-1-0.2-1.8,0.5-1.9,1.4c-0.1,1.4,0,2.2,1,3.2c0,0,4.4,2.6,2.8,0.9c-0.7-0.7-2.1-1.2-3.1-1.5c-1.4-0.5-2.6,1.6-1.5,2.5
						c0.9-0.7,0.5-1-1.3-0.9c-1.1-0.3-2.2,0.7-1.8,1.8c0.8,2.3,3.7,4.8,5.5,5.5c-1.4-0.5-2.5,1.5-1.5,2.5c-0.6-0.5-1.8-2.2-3.3-2.2
						c-0.9-0.1-1.8,1-1.4,1.9c0.3,0.9,0.7,1.9,1.3,2.7c0.4,0.5,3.3,2.9,3.6,2.8c-0.8,0.4-1,1.8-0.3,2.4c-0.2-0.3-0.5-0.6-0.7-0.9
						c-1.2-0.4-2.4,1.1-1.7,2.2c1.1,1.5,5.4,7.8,7.5,6.5c-0.6,0.4-7.4-7-8-7.6c-1-0.9-3.1-0.1-2.5,1.5c0.1,0.4,0.3,0.8,0.4,1.2
						c0.4-0.5,0.7-1,1.1-1.4c0.2-0.5-0.1-0.9-0.6-1.2c-0.3-0.4-1-0.5-1.5-0.4c-0.8,0.3-1.4-0.4-2.3,0.1c-0.9,0.5-0.9,1.6-0.3,2.4
						c1.5,1.7,2.9,3.5,4.2,5.2c1.3,1.6,3.3,3.1,0.3,1.9c-2.8-1.1-5.7-3.3-8.3-4.8c-0.9-0.5-1.8,0-2.2,0.9c0.1-0.3-4.1-2.6-4.1-2.6
						c-0.9-0.7-2.7-0.4-2.6,1.1c0.3,4,0.3-1.3,0.2-2.2c-0.1-0.8,0-1.7-0.3-2.5c-0.3-0.6-6.3-7.2-4.8-7.6c0.8-0.2,1.3-1.1,1-1.8
						c0.2-0.1,0.4-0.1,0.6-0.2c0.9-0.1,1.2-1.1,1-1.8c0.2-0.3,0.5-0.5,0.7-0.8c0.4-0.3,0.5-1,0.4-1.5c-0.3-1.5-2-21.4-1-21.7
						c0.6-0.2,1.1-0.8,1.1-1.4c0.2-0.6,0.4-1.1,0.6-1.7c0.6-0.4,1.1-1.4,0.5-2.1c-1.3-1.8-6.5-10-1.7-10.4c1-0.1,1.7-0.9,1.4-1.9
						c0.3-0.7,0.7-1.4,1-2.2c1.1,0.1,1.9-1.4,1.3-2.3c-0.6-0.9-1.2-1.9-1.8-2.8c-0.7-1.8-3.6-1-2.9,0.8c0.5,1.3,1.3,2.4,2.1,3.6
						c0.4-0.8,0.9-1.5,1.3-2.3c-4-0.5-4.5,2.8-3.9,6c0.5-0.6,1-1.3,1.4-1.9c-8.6,0.8-4.3,10.4-0.9,14.9c0.2-0.7,0.4-1.4,0.5-2.1
						c-1.7,1.2-2,2.2-2,4.3c0.4-0.5,0.7-1,1.1-1.4c-4.5,1.5-2.1,9.1-1.8,12.6c0.3,3.4,0.6,7.1,0.3,10.5c-0.1,1.5-0.9,3.1-0.7,4.6
						c0.3-0.6,0.7-1.2,1-1.8c-1.9,0.3-3.4,1.8-2.7,3.9c0.3-0.6,0.7-1.2,1-1.8c-2.9,0.6-2.9,2.7-1.9,5.1c0.9,2.3,2.3,4,3.7,6
						c1.2,1.8,1.2,3,1.3,5.2c0.2,2,0.4,4.4,3,4.4c3.2,0,2.7-3.5,2.5-5.7c-0.9,0.4-1.7,0.7-2.6,1.1c2.5,2,7.3,5.9,9.1,1.3
						c-0.7,0.3-1.5,0.6-2.2,0.9c2.8,1.6,11.2,8.5,14.4,6c1.2-0.9,1.1-2.4,0.5-3.6c-1.5-3.3-5.2-6.7-7.6-9.5
						c-0.1,0.8-0.2,1.6-0.3,2.4c-1.6,0.9-1-0.4,0.1,0.4c-0.1,0,1,0.3,0.7,0.2c1.2,0.6,1.4,1.4,2.9,1.1c0.6-0.1,1.1-0.8,1.1-1.4
						c0-0.8-0.2-1.1-0.5-2c-0.8,0.5-1.7,1-2.5,1.5c1.9,1.7,7.3,9.6,10.8,8.1c1.3-0.5,1.5-1.8,1.3-3c-0.5-2.7-5.2-5.4-6.9-7.7
						c-0.6,0.7-1.1,1.5-1.7,2.2c2.9,1,7.1-1.2,3.7-4.1c-0.1,0.8-0.2,1.6-0.3,2.4c5-2.6-2.6-6.5-3.5-8.9c-0.5,0.6-1,1.3-1.4,1.9
						c1,0.1,2.6,2.2,4,2.3c0.7,0,1.6-0.1,2.2-0.5c1.7-1.5,0.5-3.5-0.8-4.6c-0.5,0.8-1,1.7-1.5,2.5c2.1,0.8,4.8,0.7,4.6-2.2
						c-0.2-3.3-5.6-4.2-6.5-7c-0.6,0.6-1.2,1.2-1.8,1.8c1.7,0.4,3.7,1.2,4.9-0.6c0.8-1.2,0.4-2.6-0.7-3.5c-0.5,0.8-1,1.7-1.5,2.5
						c1.9,0.7,5.4,3.7,6.8,0.3c1.4-3.4-3.9-3.5-3.7-5.7c-0.6,0.5-1.3,1-1.9,1.4c1.4,0.3,3-0.3,3.5-1.7c0.7-2.2-1.3-3.1-2.9-4
						c0.2,0.6,0.5,1.1,0.7,1.7c0.2-1.4,0-1.5-0.6-2.6c-0.7,0.7-1.4,1.4-2.1,2.1c1.5,0.7,3.3-0.1,3.7-1.7c0.7-2.6-2.5-4.2-4.4-5.1
						c0.1,0.8,0.2,1.6,0.3,2.4c2.5-2.8,2-5.8,0.7-8.8c-0.2,0.6-0.5,1.1-0.7,1.7c1.1-0.8,1.4-1,1.6-2.4c-0.7,0.3-1.5,0.6-2.2,0.9
						c2.4,1.3,4.6,0.6,4.8-2.2c-0.8,0.4-1.5,0.9-2.3,1.3c1.1,0.5,2.7,0.4,3.4-0.8c0.3-0.6,0.1-1.2,0.2-1.8c0.2-1.6,0-2.3,0.6-4.4
						c-0.5,0.4-1,0.7-1.4,1.1c7.2,0.8,8.8-6.4,5.6-11.5c-0.3,0.7-0.6,1.5-0.9,2.2c2.6-0.4,5.6-1.7,4-5c-1.1-2.2-4.5-2.5-6.6-3.1
						c0.1,0.9,0.2,1.8,0.4,2.7c2.6-1.9,3.8-6.6,2.6-9.6c-0.3,0.6-0.7,1.2-1,1.8c0.9-0.4,1.4-0.6,2.1-1.2c-0.6,0.1-1.2,0.2-1.8,0.2
						c3.2,2,15,8.2,14.3-0.1c-0.8,0.4-1.5,0.9-2.3,1.3c3.1,1.5,6.3,3.1,9.3,4.7c1.8,0.9,4.3,3.1,6.4,2.8c4.9-0.6,2.7-5,0.8-7.4
						c-0.4,0.8-0.9,1.5-1.3,2.3c2.5,0.3,2.5-0.5,4.1-1.8c0.3-0.3,0-0.9,0.4-1.1c0.1-0.1,2.4,0.2,2.7,0.2c4.6-1.3,1.5-5.6,0.2-8.1
						c-0.7,0.7-1.4,1.4-2.1,2.1c2.9,1.2,10.5,5.2,12.8,1.3c0.8-1.4,0.4-2.7-0.4-3.9c-0.8-1.1-2.2-1.5-3.1-2.5
						c-0.7-0.8-1-1.6-1.7-2.4c0.1,0.6,0.2,1.2,0.2,1.8c0-0.1,0.1-0.2,0.1-0.3c-0.6,0.2-1.1,0.5-1.7,0.7c2,0.8,4.1,1.8,5.7-0.3
						c1.7-2.2,0.3-4-1.4-5.5c-0.2,0.8-0.4,1.7-0.7,2.5c0.6-0.2,1.6,0.2,2.4,0c0.8-0.2,1.1-0.9,2-1.1c1.6-0.3,3.4,1,5,0.6
						c3.7-1,2.9-6.1,1.5-8.4c-0.7,0.7-1.4,1.4-2.1,2.1c3.2,1.4,8.4,4.6,11.9,3.7c1.1-0.3,1.9-1,2.2-2.1c0.2-0.7,0.2-2.8-0.2-2
						c-0.7,0.2-1.4,0.4-2.1,0.5c2,0.9,3.2,1.1,5.3,1c2-0.1,2.3-0.6,3.9-1.4c1.5-0.7,3.8,0,5.3-1.3c2.1-1.7,0.7-4.3-0.3-6.2
						c-0.6,0.7-1.1,1.5-1.7,2.2c1.5,0.2,3.8,0,5.2,0.6c1.2,0.4,2.2,1.7,3.5,2c2.2,0.6,3.5-0.1,4.7-1.9c-0.7,0.2-1.4,0.4-2.1,0.5
						c4.5,2.1,7,3,10.8-0.4c-0.6,0.1-1.2,0.2-1.8,0.2c2.2,1.2,3.3,1,5.4,1.5c3.4,0.8,7.8,3.5,10.8,5.3c2.9,1.7,5.8,3.1,7.4-1.1
						c-0.5,0.4-1,0.7-1.4,1.1c4.9,0.6,8.8,5.7,13.2,7.9c1.2,0.6,2.3,1,3.8,0.9c0.9-0.1,2.4-1,2.9-0.6c-0.2-0.7-0.4-1.4-0.5-2.1
						c-2.3,3,0,5.3,2.9,7.3c-0.2-0.7-0.4-1.4-0.5-2.1c-0.9,1.9,0.1,2.9,1.4,4.3c0.2-0.8,0.4-1.7,0.7-2.5c-5.3,1.2,0.6,5.5,1.9,6.9
						c0.6-0.8,1.2-1.6,1.8-2.4c-1.7-0.8-3.9-0.5-4,1.8c0,1.1,0.9,2,1.3,2.7c0.9,1.5,1.2,2.4,2.7,3.9c0-0.7,0-1.4,0-2.1
						c-0.2,0.2-0.5,0.4-0.7,0.6c-0.4,0.4-0.5,1-0.4,1.5c0.5,2.3,4.5,5.3,6.9,3.9c2.6-1.4,0.8-3.7-1-4.7c0.2,0.7,0.4,1.4,0.5,2.1
						c0.8-1.7,0.5-2-0.5-3.5c-0.3-0.3-0.7-0.4-1.1-0.4c0.1-0.3,0.1-0.5,0-0.8c-0.4-0.3-0.6-1.2-0.9-1.6c0,0.7,0,1.4,0,2.1
						c1.8-1.6,0.8-3.3-0.2-5c-0.1,0.6-0.2,1.2-0.2,1.8c2.1-2.4-0.1-4.1-1.8-6c-0.4,0.9-0.7,1.7-1.1,2.6c1.8,0,5.6,4.4,6.9,0.5
						c1-3.1-5.9-7.1-7.6-8.8c0,0.7,0,1.4,0,2.1c1.7-1.7,0.5-3.3-0.8-4.8c-1-1.2-2.3-2.3-3.7-3.1c-0.4-0.2-1-0.7-1.6-0.8
						c-1.4-0.2,0,0.1,0,0.2c-0.5,0.6-1,1.3-1.4,1.9c1.3,0.1,1.5,0.1,2.7-0.5c-0.6-0.1-1.2-0.2-1.8-0.2c1.6,1.8,3.9,4.6,6.5,2.2
						c1.8-1.7,0.4-4.2-0.3-6.1c-0.8,0.5-1.7,1-2.5,1.5c1.5,1.3,4.5,5.4,7,3.8c2.2-1.4,0.2-3.7-0.9-5.2c-0.7,0.7-1.4,1.4-2.1,2.1
						c1.6,1,5.2,2.9,5.7-0.4c0.3-1.7-1.9-3.6-2.8-4.8c-1.6-2-3.3-3.9-5-5.8c-0.2,0.8-0.4,1.7-0.7,2.5c1.6-0.5,1.8-0.7,2.6-2.2
						c-0.8,0.1-1.6,0.2-2.4,0.3c3.9,3.4,8.2-0.3,4.9-4.5c-2-2.6-5.5-4.2-7.2-5.9c-0.4-0.4-0.6-1.3-1.1-1.8c-1.5-1.5-4.3-2.5-6-3.7
						c-3.8-2.6-7.4-5.3-11.3-7.8c-3.9-2.5-8.8-6.6-13.2-7.8c-4.2-1.2-6.2,3.5-2.6,6c0-0.9,0-1.7,0-2.6c-0.3,0.2-5.1-1.3-5.9-1.5
						c-2.8-0.6-4.1-1.8-6.6-2.9c-3.2-1.4-6.1-0.7-9.2-2.2c-2.5-1.2-8.3-5.8-11.2-3.7c-0.8,0.6-1.3,1.9-1,3c0.2,0.9,3.4,3.1,3.5,2.7
						c0.8-0.4,1.5-0.9,2.3-1.3c-2.3-1-7.1-4.9-9.3-2c-2.4,3.1,2.7,5,4.4,6.3c0.5-0.8,1-1.7,1.5-2.5c-2.3-0.7-8-4.9-10.2-1.6
						c-1.8,2.6,1.4,4,3.1,5.2c0.4-0.9,0.8-1.8,1.2-2.7c-2.6-1-5.1-3.4-7.7-4.2c-1.1-0.3-1.9-0.4-2.8,0.5c-2.5,2.2,0.7,6,1.7,8
						c0.4-0.8,0.9-1.5,1.3-2.3c-3.4,0-4.1-2-6.7-2.2c-0.8-0.1-1.3,0.4-2,0.5c-0.9,0.1-1.4,0.5-2.8-0.1c-1.5-0.6-2.4-1.7-3.5-2.9
						c-2.2-2.1-8.9-9.7-11.2-4.2c0.6-0.2,1.1-0.5,1.7-0.7c-2.5-0.7-3,0.4-4.3,2.1c-1.6,2.1-4,2-5.3,4.1c0.7-0.2,1.4-0.4,2.1-0.5
						c-3.6-1.6-6.8-1.8-10.4-3.2c-3.4-1.4-7.7-2.9-8.8,1.7c0.7-0.3,1.5-0.6,2.2-0.9c-2.8-1.4-6.9-2.8-7.6,1.6c0.6-0.3,1.2-0.7,1.8-1
						c-1.5-0.4-2.8,0-4.2-0.3c-2.2-0.4-4.5-2-6.8-1.1c-2.7,1-4.1,4.4-3.2,6.9c0.5-0.6,1-1.3,1.4-1.9c-5.9,0.8-4.8,4.7-1.7,8.4
						c0-0.7,0-1.4,0-2.1c-1.5,1.2-2.2,3.6-2.5,5.5c0.5-0.4,1-0.7,1.4-1.1c-5.3,0-7.5,2.2-4.8,7c0.4-0.8,0.9-1.5,1.3-2.3
						c-1.9,0-4.2-0.1-4.7,2.2c-0.6,2.5,2.7,4.2,4.2,5.6c0.2-0.8,0.4-1.7,0.7-2.5c-2.1,0.6-5.7-0.6-7,1.7c-1,1.7,0,3,1.2,4.2
						c-0.1-0.6-0.2-1.2-0.2-1.8c-0.7,0.9-0.7,0.9-0.9,2.1c0.6-0.3,1.2-0.7,1.8-1c-2.8-0.4-6.3,0.9-5,4.5c0.2-0.6,0.5-1.1,0.7-1.7
						c-2.1,1.3-4.3-1.1-6.1,1.5c-1.6,2.3,0.5,4.4,1.8,6.3c0.3-0.7,0.6-1.5,0.9-2.2c-4.6,1-4.5,4.1-2.6,7.8
						C116.4,126,119,124.5,118.1,122.8L118.1,122.8z"/>
				</g>
			</g>
		</g>
		<g>
			<g class="st3">
				<path class="st2" d="M114.6,150.3c1.9-7,4.8-13.8,8.4-20c1.9-3.3,4.1-6.5,6.6-9.6c1.9-2.4,3.9-4.8,6.1-7
					c0.1-0.1,0.3-0.2,0.4-0.3l0.2-0.2c2.6-2.6,5.4-5.1,8.7-7.7c3.3-2.6,6.6-4.9,10-7c6.3-3.8,13.4-7,21.1-9.5
					c3.5-1.1,7.3-2.2,11.5-3.2c2.3-0.6,4.3-1,6-1.3c1.4-0.3,2.8-0.5,4.3-0.6c7.7-1.9,12.8-2.3,12.8-2.3c41.6,5.2,64.7,26.9,76.8,55
					c-2.7-0.4-5.6-0.7-8.6-1c0,0-0.1,0-0.1,0c-3.5-0.4-7.3-0.7-11.2-0.9c-1.2-0.1-2.4-0.1-3.7-0.2c-3.8-0.2-7.8-0.3-11.9-0.4
					c-3.9,0-8,0-12.1,0.2c-1.8,0.1-3.6,0.1-5.4,0.2c-11.7,0.7-24.1,2.1-36.9,4.8c0,0,0,0-0.1,0c-2.7,0.6-5.3,1.1-7.9,1.7
					c-0.6,0.1-1.2,0.3-1.8,0.4c-2.5,0.5-4.9,1.1-7.3,1.6c-0.4,0.1-0.8,0.2-1.2,0.3c-2.1,0.5-4.2,1-6.2,1.4c-0.5,0.1-1,0.2-1.5,0.4
					c-2.2,0.5-4.4,1-6.5,1.6c-0.5,0.1-1,0.2-1.5,0.4c-1.9,0.5-3.7,0.9-5.4,1.4c-0.4,0.1-0.7,0.2-1.1,0.3c-2,0.5-3.9,1-5.7,1.5
					c-0.5,0.1-1,0.3-1.5,0.4c-1.7,0.5-3.5,0.9-5.1,1.4c-0.2,0.1-0.4,0.1-0.6,0.2c-1.7,0.5-3.3,0.9-4.8,1.3c-0.5,0.1-0.9,0.3-1.4,0.4
					c-1.5,0.4-3.1,0.9-4.5,1.3c-0.3,0.1-0.6,0.2-0.9,0.3c-1.2,0.4-2.4,0.7-3.6,1.1c-0.4,0.1-0.7,0.2-1.1,0.3
					c-1.3,0.4-2.6,0.8-3.7,1.1c-0.3,0.1-0.6,0.2-1,0.3c-1,0.3-2,0.6-2.9,0.9c-0.2,0.1-0.5,0.2-0.7,0.2c-1.1,0.3-2.1,0.7-3,1
					c-0.3,0.1-0.5,0.2-0.8,0.3c-0.9,0.3-1.7,0.6-2.5,0.8c-0.1,0-0.2,0.1-0.4,0.1c-0.2,0.1-0.4,0.2-0.7,0.2c0,0,0-0.1,0-0.1
					C112.8,157.7,113.6,154,114.6,150.3z"/>
				<g>
					<path class="st2" d="M116.1,150.7c9.9-34.6,39.7-56.2,73.8-63.8c6.4-1.4,13.6-3.4,20.1-3.7c6.1-0.3,13,1.9,18.9,3.5
						c12.7,3.6,24.8,9.6,34.7,18.4c10.1,8.9,17.5,20.1,22.8,32.3c0.4-0.8,0.9-1.5,1.3-2.3c-31.9-4.2-63.9-3-95.3,3.7
						c-27.2,5.8-54.3,12.5-80.6,21.4c0.6,0.5,1.3,1,1.9,1.4C114.2,157.9,115.1,154.3,116.1,150.7c0.5-1.9-2.4-2.7-2.9-0.8
						c-1,3.9-2,7.8-2.5,11.8c-0.1,0.9,1.1,1.7,1.9,1.4c25.8-8.7,52.4-15.3,79.1-21c31.7-6.8,63.8-8.2,96-4c1.3,0.2,1.7-1.4,1.3-2.3
						c-10.6-24.3-29.8-42.5-55.2-50.8c-7.1-2.3-15.4-4.9-22.9-5c-5.8-0.1-11.9,2-17.5,3c-17.2,3-34,9.5-47.9,20.2
						c-15.5,12-26.9,27.6-32.3,46.6C112.6,151.7,115.5,152.5,116.1,150.7z"/>
				</g>
			</g>
			<g>
				<g id="XMLID_39408_">
					<path class="st1" d="M172.5,46.4c0,0,14.2,11.4-2.6,17.6S157.4,40.9,172.5,46.4z"/>
					<g>
						<path class="st2" d="M171.4,47.5c2.3,1.9,4.8,4.7,5.1,7.7c0.6,5.3-8.9,10.2-13.4,7.7c-3.3-1.8-2.9-6.9-1.7-9.9
							c1.8-4.6,5.9-6.7,10.7-5.2c1.8,0.6,2.6-2.3,0.8-2.9c-9.4-3.1-17.5,6.5-14.9,15.6c3.1,10.8,21.7,4.8,21.6-4.9c0-4-3-7.9-6-10.4
							C172.1,44.1,169.9,46.2,171.4,47.5z"/>
					</g>
				</g>
				<g id="XMLID_39407_">
					<path class="st1" d="M116.2,111c0.3-4.3,1.8-9.8,5.4-16.8c0-0.1,0.1-0.1,0.1-0.1l0,0c0.8-1.5,1.6-3,2.5-4.6
						C135.4,69.9,155,58,172.9,51.5c76.8-38.5,87.9,35.3,89.3,63.5c0.1,2.7-35.3,1.3-67.8-5.4c-40.2,18.2-77.8,38.2-77.8,38.2
						S112.8,123.9,116.2,111z"/>
					<g>
						<path class="st2" d="M117.7,111c0.5-6.1,3.2-11,5.4-16.5c-0.6,0.3-1.2,0.7-1.8,1c0,0,0,0,0,0c0.6,0.2,1.4-0.1,1.7-0.7
							c7.9-15.3,20.1-27,35.2-35.1c6.4-3.4,13.2-5.9,19.8-9c6.6-3.1,13.5-5.6,20.6-7.2c19.7-4.3,38,1.9,48.6,19.4
							c8.3,13.7,11.7,30.1,13.1,45.9c0.1,1.5,0.2,3,0.3,4.5c0.1,0.7-0.1,1.3,0.5,0.8c-0.3,0.3-1.3,0.3-1.7,0.4
							c-5.1,0.3-10.2,0.3-15.4,0c-8-0.4-16-1.2-23.9-2.2c-4.9-0.6-9.7-1.3-14.5-2.2c-3.3-0.6-8.2-2.5-11.5-2
							c-1.9,0.3-3.9,1.8-5.7,2.6c-2.6,1.2-5.2,2.4-7.8,3.6c-4.8,2.2-9.6,4.5-14.3,6.8c-8.4,4.1-16.8,8.2-25.2,12.4
							c-8.4,4.2-16.8,8.5-25.1,12.9c0.7,0.3,1.5,0.6,2.2,0.9c-1.8-11.6-3.2-24.5-0.5-36c0.4-1.9-2.4-2.7-2.9-0.8
							c-2.9,12.1-1.4,25.5,0.5,37.6c0.2,1,1.4,1.3,2.2,0.9c7.9-4.2,15.9-8.3,23.9-12.3c8-4,16-8,24.1-11.9c4.4-2.1,8.9-4.3,13.3-6.4
							c4.7-2.2,9.8-5.6,14.8-6.9c4.3-1.1,10.5,1.2,14.9,1.9c4.8,0.8,9.5,1.4,14.3,2c8.4,1,16.8,1.8,25.2,2.1
							c4.2,0.1,9.4,0.8,13.5-0.5c2.8-0.8,2.5-2.4,2.3-5c-1.1-16.5-4.3-33.7-12.4-48.3c-9.4-17-25.7-26.5-45.3-24.5
							c-7.2,0.7-14.3,2.6-21.1,5.2c-8.2,3.1-16.5,6.7-24.4,10.5c-17.2,8.4-31.4,21.1-40.2,38.2c0.6-0.2,1.1-0.5,1.7-0.7c0,0,0,0,0,0
							c-0.8-0.3-1.6,0.3-1.8,1c-2.3,5.8-4.9,11-5.5,17.3C114.5,112.9,117.5,112.9,117.7,111z"/>
					</g>
				</g>
				<g class="st3">
					<path class="st2" d="M116.2,110.6c0.3-4.3,1.8-9.8,5.4-16.8c0-0.1,0.1-0.1,0.1-0.1l0,0c0.8-1.5,1.6-3,2.5-4.6
						c11.3-19.6,30.9-31.5,48.8-37.9c4.3-2.2,8.4-4,12.4-5.5c-8.3,6.2-15.8,13.9-21.4,23.5c-0.9,1.6-1.7,3.1-2.5,4.6l0,0
						c0,0,0,0.1-0.1,0.1c-3.5,7-5.1,12.5-5.4,16.8c-3.1,12,0,33.8,0.4,36.5c-23,11.3-39.8,20.2-39.8,20.2S112.8,123.5,116.2,110.6z"
						/>
					<g>
						<path class="st2" d="M117.7,110.6c0.5-6.1,3.2-11,5.4-16.5c-0.6,0.3-1.2,0.7-1.8,1c0,0,0,0,0,0c0.6,0.2,1.4-0.1,1.7-0.7
							C136,69.1,160.2,57,185.7,47.2c-0.4-0.9-0.8-1.8-1.2-2.7c-10.3,7.8-18.5,17.2-24.4,28.6c0.6-0.2,1.1-0.5,1.7-0.7c0,0,0,0,0,0
							c-0.8-0.3-1.6,0.3-1.8,1c-2,5.1-4.3,9.6-5.2,15.1c-0.8,5-1.5,10-1.6,15.1c-0.1,8,0.7,16.1,1.9,24.1c0.2-0.6,0.5-1.1,0.7-1.7
							c-13.3,6.6-26.7,13.2-39.8,20.2c0.7,0.3,1.5,0.6,2.2,0.9c-1.8-11.6-3.2-24.5-0.5-36c0.4-1.9-2.4-2.7-2.9-0.8
							c-2.9,12.1-1.4,25.5,0.5,37.6c0.2,1,1.4,1.3,2.2,0.9c13.1-7,26.4-13.6,39.8-20.2c0.6-0.3,0.8-1.1,0.7-1.7
							c-1.2-7.7-1.8-15.5-1.7-23.3c0-4.7,0.7-9.3,1.5-13.9c0.9-5.6,3.2-10.2,5.3-15.4c-0.6,0.3-1.2,0.7-1.8,1c0,0,0,0,0,0
							c0.6,0.2,1.4-0.1,1.7-0.7c5.7-11,13.5-20.1,23.3-27.5c1.2-0.9,0.6-3.4-1.2-2.7c-26.3,10.2-51.1,22.6-64.6,48.7
							c0.6-0.2,1.1-0.5,1.7-0.7c0,0,0,0,0,0c-0.8-0.3-1.6,0.3-1.8,1c-2.3,5.8-4.9,11-5.5,17.3C114.5,112.6,117.5,112.5,117.7,110.6z
							"/>
					</g>
				</g>
				<g id="XMLID_39406_">
					<path class="st1" d="M282,124.4c0,0-42.4-15.2-91.1-2.3s-73.6,25.4-73.6,25.4c13.4-54.8,108.5-59.2,156.6-58.2
						s36.1,19.9,36.1,19.9S303.2,118.4,282,124.4z"/>
					<g>
						<path class="st2" d="M282.4,123c-19-6.7-40.7-8.4-60.6-7.3c-18.1,1.1-35.4,5.8-52.6,11c-12.8,3.9-25.5,8.2-37.9,13.1
							c-5,2-10,4-14.8,6.4c0.7,0.6,1.5,1.1,2.2,1.7c9.9-38.9,58.3-49.8,92.6-54.2c18.6-2.4,37.4-3.2,56.2-3
							c10.8,0.1,22.1,0.1,32.3,3.7c4.2,1.5,9.6,4.3,10,9.3c0.1,1.6-0.8,4.2-1.2,4.7c-5.8,7.9-18.2,11.9-27,14.5
							c-1.8,0.5-1.1,3.4,0.8,2.9c9.7-2.9,20.3-6.9,27.4-14.3c1.3-1.4,2.1-2.7,2.6-4.7c3.1-13-15.2-16.9-24.1-18.1
							c-21.3-2.8-44-1.4-65.3,0.6c-21.9,2-44.2,5.8-64.6,14.4c-19.5,8.2-37.3,22-42.7,43.4c-0.3,1.3,1,2.3,2.2,1.7
							c14.3-7.1,29.8-12.2,45-17c17.2-5.5,34.7-10.9,52.8-12.6c15.1-1.5,30.4-0.8,45.4,1.7c6.9,1.2,13.9,2.6,20.5,5
							C283.5,126.5,284.2,123.6,282.4,123z"/>
					</g>
				</g>
				<g>
					<g>
						<path class="st1" d="M273.9,97.4c-45.1-0.9-131.5,2.9-153.1,48.5c-2.3,1-3.4,1.6-3.4,1.6c13.4-54.8,108.5-59.2,156.6-58.2
							c42.4,0.9,38.1,15.7,36.5,19.1C307.8,103.4,299.1,97.9,273.9,97.4z"/>
						<g>
							<path class="st2" d="M273.9,95.9c-22.6-0.4-45.4,0.4-67.8,3.6c-23,3.3-47.3,9-66.5,22.7c-4.7,3.3-9,7.1-12.7,11.5
								c-3.5,4.1-5.5,10.1-10.3,12.5c0.7,0.6,1.5,1.1,2.2,1.7c8.2-32.2,43.8-44.9,72.9-51c16.8-3.5,33.9-5.1,51-5.9
								c16.3-0.7,33.8-1.7,49.8,1.4c6.7,1.3,21,5.5,16.6,15.2c0.9,0,1.7,0,2.6,0C305.4,96,284.8,96.2,273.9,95.9c-1.9,0-1.9,3,0,3
								c8.5,0.2,17.3,0.7,25.5,3.4c3.8,1.3,7.8,3.2,9.7,6.8c0.5,0.9,2.1,1,2.6,0c2.9-6.3-0.3-12.2-6.1-15.5
								c-7.3-4.2-16.4-5.1-24.7-5.6c-8.8-0.6-17.6-0.5-26.4-0.3c-35.3,0.6-74.3,3.6-106,20.8c-15.5,8.4-28.3,21.2-32.7,38.6
								c-0.3,1.3,1,2.3,2.2,1.7c1.9-0.9,3.3-1.4,4.4-3.1c1.4-2.1,2.5-4.5,3.9-6.6c3-4.3,6.7-8,10.7-11.4c8.8-7.2,19.3-12.3,30-16
								c22.8-8.1,47.3-11.1,71.4-12.4c11.8-0.6,23.6-0.8,35.4-0.5C275.8,98.9,275.8,95.9,273.9,95.9z"/>
						</g>
					</g>
					<g class="st0">
						<path class="st1" d="M282,124.4c0,0-42.4-15.2-91.1-2.3c-38.2,10.1-61.8,20-70.2,23.8c21.7-45.6,108-49.4,153.1-48.5
							c25.3,0.5,33.9,6,36.5,11c-0.2,0.5-0.4,0.7-0.4,0.7S303.2,118.4,282,124.4z"/>
						<g>
							<path class="st2" d="M282.4,123c-15.7-5.6-33.2-7.5-49.7-7.5c-30.5-0.2-60.1,9.3-88.5,19.5c-8.2,2.9-16.3,6.1-24.3,9.7
								c0.7,0.7,1.4,1.4,2.1,2.1c14.3-29.4,51.5-39,81.1-43.7c16.6-2.6,33.5-3.8,50.3-4.1c6.8-0.1,13.6-0.1,20.4,0
								c9.5,0.2,20.1,0.6,28.8,4.8c2.1,1,4.3,2.4,5.7,4.3c0.8,1.1,0.5,0.1,0.3,0.4c-0.3,0.6-1.1,1.2-1.6,1.6
								c-6.9,6.6-16.5,10.2-25.4,12.9c-1.8,0.5-1.1,3.4,0.8,2.9c8.9-2.6,17.9-6.2,25.1-12.2c2.4-2,5.4-4.2,3.2-7.3
								c-3.1-4.5-9.1-6.6-14.2-7.9c-9.6-2.4-19.7-2.6-29.5-2.6c-35.8-0.3-74,1.8-107.5,15.6c-16.5,6.8-32.2,17.3-40.2,33.7
								c-0.7,1.4,0.7,2.7,2.1,2.1c18.4-8.3,37.7-14.6,57.1-20.1c15.9-4.6,31.8-8.1,48.4-8.6c12.7-0.4,25.5,0.7,38,3.1
								c5.6,1.1,11.3,2.3,16.7,4.3C283.5,126.5,284.2,123.6,282.4,123z"/>
						</g>
					</g>
				</g>
			</g>
		</g>
		<g>
			<g id="XMLID_39405_" class="st3">
				<path class="st1" d="M197.2,159.1c0,0,23,2.7,6.6,18.9s-48.1,0.6-46.4-5.2C159.1,167,162.1,157.4,197.2,159.1z"/>
				<g>
					<path class="st2" d="M197.2,160.6c1.8,0.2,4.8,1,6.8,2c5.8,2.9,4.5,7.8,0.8,12.1c-9.5,11.2-25.8,10.6-38.2,4.7
						c-2.6-1.3-7.8-3.5-7.6-6.9c0.1-2,1.9-4.4,3.3-5.8C170.5,158.7,186.9,160.2,197.2,160.6c1.9,0.1,1.9-2.9,0-3
						c-11-0.5-26.3-1.5-35.6,5.8c-3.2,2.5-7.4,8.2-4.9,12.3c4.8,7.8,19.1,10.7,27.4,10.8c6.2,0.1,12.5-1.3,17.6-4.9
						c4-2.8,9-7.7,9.5-12.9c0.7-7.4-8-10.4-13.9-11.1C195.3,157.4,195.3,160.4,197.2,160.6z"/>
				</g>
			</g>
			<g id="XMLID_39404_" class="st3">
				<path class="st1" d="M267.2,154.5c0,0,35.5-2,19.1,17.7c-16.4,19.8-45.6-0.4-47.9-8.9C236,154.9,267.2,154.5,267.2,154.5z"/>
				<g>
					<path class="st2" d="M267.2,156c4.6-0.3,9.4,0,13.9,1c2.7,0.6,6.4,1.7,7.6,4.5c1.8,4.2-3.2,9.7-5.9,12.2
						c-9.5,8.7-23.1,5.7-33-0.6c-3.4-2.1-7.5-5.1-9.4-8.7c-1.9-3.6,2.4-4.9,5.3-5.8C252.6,156.6,260,156.1,267.2,156
						c1.9,0,1.9-3,0-3c-8.2,0.1-17.6,0.4-25.2,3.7c-9.6,4.1-2.9,12,2.8,16.4c9.6,7.5,23.9,12.3,35.3,6.1c6.6-3.5,17.5-15.5,8.7-22.3
						c-5.6-4.3-14.8-4.4-21.6-4.1C265.2,153.1,265.2,156.1,267.2,156z"/>
				</g>
			</g>
			<g id="XMLID_39403_">
				<path class="st1" d="M200.5,155.9c0,0,23,2.7,6.6,18.9s-48.1,0.6-46.4-5.2C162.4,163.8,165.3,154.2,200.5,155.9z"/>
				<g>
					<path class="st2" d="M200.5,157.4c1.8,0.2,4.8,1,6.8,2c5.8,2.9,4.5,7.8,0.8,12.1c-9.5,11.2-25.8,10.6-38.2,4.7
						c-2.6-1.3-7.8-3.5-7.6-6.9c0.1-2,1.9-4.4,3.3-5.8C173.8,155.5,190.1,156.9,200.5,157.4c1.9,0.1,1.9-2.9,0-3
						c-11-0.5-26.3-1.5-35.6,5.8c-3.2,2.5-7.4,8.2-4.9,12.3c4.8,7.8,19.1,10.7,27.4,10.8c6.2,0.1,12.5-1.3,17.6-4.9
						c4-2.8,9-7.7,9.5-12.9c0.7-7.4-8-10.4-13.9-11.1C198.5,154.2,198.6,157.2,200.5,157.4z"/>
				</g>
			</g>
			<g id="XMLID_39402_">
				<path class="st1" d="M270.4,151.2c0,0,35.5-2,19.1,17.7s-45.6-0.4-47.9-8.9C239.2,151.6,270.4,151.2,270.4,151.2z"/>
				<g>
					<path class="st2" d="M270.4,152.7c4.6-0.3,9.4,0,13.9,1c2.7,0.6,6.4,1.7,7.6,4.5c1.8,4.2-3.2,9.7-5.9,12.2
						c-9.5,8.7-23.1,5.7-33-0.6c-3.4-2.1-7.5-5.1-9.4-8.7c-1.9-3.6,2.4-4.9,5.3-5.8C255.8,153.3,263.3,152.8,270.4,152.7
						c1.9,0,1.9-3,0-3c-8.2,0.1-17.6,0.4-25.2,3.7c-9.6,4.1-2.9,12,2.8,16.4c9.6,7.5,23.9,12.3,35.3,6.1c6.6-3.5,17.5-15.5,8.7-22.3
						c-5.6-4.3-14.8-4.4-21.6-4.1C268.5,149.8,268.5,152.8,270.4,152.7z"/>
				</g>
			</g>
			<g id="XMLID_39401_">
				<path class="st1" d="M293.6,153.3c0,0-4.3,6.2-5.8,6"/>
				<g>
					<path class="st2" d="M292.3,152.6c-0.6,0.9-1.3,1.7-2,2.6c-0.6,0.7-1.1,1.3-1.8,2c-0.2,0.2-0.5,0.4-0.6,0.5
						c-0.1,0.1-0.3,0.2-0.4,0.2c0.1,0,0.5-0.1,0.2-0.1c-1.9-0.1-1.9,2.9,0,3c1.8,0.1,3.4-2,4.4-3.1c1-1.1,1.9-2.3,2.7-3.6
						C296,152.5,293.4,151,292.3,152.6L292.3,152.6z"/>
				</g>
			</g>
			<g id="XMLID_39400_">
				<path class="st1" d="M208.7,176.2c0,0-7.5-1.1-7.9-2.5"/>
				<g>
					<path class="st2" d="M209.1,174.8c-1.1-0.2-2.2-0.4-3.3-0.6c-0.8-0.2-1.6-0.4-2.4-0.6c-0.3-0.1-0.7-0.2-1-0.4
						c-0.3-0.2-0.2-0.1-0.3-0.2c-0.8-1.8-3.4-0.2-2.6,1.5c0.7,1.5,3.1,2,4.6,2.4c1.4,0.3,2.8,0.6,4.3,0.8
						C210.2,177.9,211,175,209.1,174.8L209.1,174.8z"/>
				</g>
			</g>
			<g id="XMLID_39399_">
				<path class="st1" d="M251.7,155.9c0,0-7.5-1.1-7.9-2.5"/>
				<g>
					<path class="st2" d="M252.1,154.5c-1.1-0.2-2.2-0.4-3.3-0.6c-0.8-0.2-1.6-0.4-2.4-0.6c-0.3-0.1-0.7-0.2-1-0.4
						c-0.3-0.2-0.2-0.1-0.3-0.2c-0.8-1.8-3.4-0.2-2.6,1.5c0.7,1.5,3.1,2,4.6,2.4c1.4,0.3,2.8,0.6,4.3,0.8
						C253.2,157.6,254,154.8,252.1,154.5L252.1,154.5z"/>
				</g>
			</g>
			<g id="XMLID_39398_">
				<path class="st1" d="M176.3,160.4c0,0,3.5-6.7,5-6.6"/>
				<g>
					<path class="st2" d="M177.6,161.2c0.5-1,1.1-1.9,1.6-2.9c0.4-0.7,0.9-1.5,1.4-2.1c0.2-0.3,0.5-0.5,0.7-0.7
						c0.2-0.2,0.4-0.2-0.1-0.1c1.9-0.1,1.9-3.1,0-3c-1.9,0.1-3.1,2.2-4.1,3.6c-0.8,1.2-1.6,2.5-2.2,3.8
						C174.1,161.4,176.7,162.9,177.6,161.2L177.6,161.2z"/>
				</g>
			</g>
			<g id="XMLID_39397_">
				<path class="st1" d="M173.4,174.4c0,0-5.6,5-7,4.4"/>
				<g>
					<path class="st2" d="M172.3,173.3c-0.8,0.7-1.6,1.4-2.5,2c-0.7,0.5-1.4,1-2.1,1.4c-0.3,0.2-0.6,0.3-0.9,0.5
						c-0.3,0.2-0.4,0-0.1,0.1c-1.9-0.6-2.6,2.3-0.8,2.9c1.7,0.5,3.7-1,5-2c1.2-0.9,2.4-1.8,3.5-2.8
						C175.9,174.1,173.7,172,172.3,173.3L172.3,173.3z"/>
				</g>
			</g>
		</g>
		<g>
			<g id="XMLID_39392_" class="st3">
				<g id="XMLID_39396_">
					<path class="st2" d="M252.2,290.3c0,0,37.1,4.9,16.4,18.3C248,321.9,252.2,290.3,252.2,290.3z"/>
					<g>
						<path class="st2" d="M252.2,291.8c-0.7-0.1,0.2,0,0.5,0.1c0.8,0.1,1.5,0.2,2.3,0.4c2.1,0.4,4.2,0.8,6.3,1.4
							c3.4,0.9,10.7,2.5,12,6.5c1.6,5-9.3,10.1-13,10.2c-5,0.2-6.3-5.7-6.7-9.6c-0.4-3.4-0.3-7,0.2-10.4c0.3-1.9-2.8-1.9-3,0
							c-0.9,7.1-1.3,22.6,8.8,23c5.8,0.3,15.2-5,16.7-10.9c1.4-5.5-5-8.5-9.1-10.1c-4.7-1.8-9.8-2.9-14.9-3.6
							C250.3,288.5,250.3,291.5,252.2,291.8z"/>
					</g>
				</g>
				<g id="XMLID_39395_">
					<path class="st2" d="M257.8,279.3c0,0,30.6-1.6,16.5,14.2s-39.3-0.4-41.4-7.1S257.8,279.3,257.8,279.3z"/>
					<g>
						<path class="st2" d="M257.8,280.8c5.1-0.3,11.3-0.3,15.9,2.1c4.5,2.4,2.2,6.5-0.5,9.5c-5,5.5-12.1,7.2-19.2,5.8
							c-5.6-1.1-11.2-3.7-15.6-7.4c-1.2-1-3.4-2.6-3.8-4.2c-0.4-1.9,1-2.4,2.8-3.1C243.6,281,251.2,280.9,257.8,280.8
							c1.9,0,1.9-3,0-3c-7.1,0.1-15.3,0.3-21.9,3c-7.9,3.3-3.1,9.4,1.8,13.2c8.5,6.4,21.1,10.5,31.2,5.5c5.5-2.7,15.5-12.5,7.9-18.2
							c-4.9-3.7-13.1-3.7-19-3.4C255.9,277.9,255.9,280.9,257.8,280.8z"/>
					</g>
				</g>
				<g id="XMLID_39394_">
					<path class="st2" d="M204.7,287.2c0,0,14.9-5,12.4,13.9s-28.4,15.6-29.9,10.2S183,296.8,204.7,287.2z"/>
					<g>
						<path class="st2" d="M205.1,288.6c4.8-1.6,9.4,0.2,10.5,5.4c2.1,10.4-4.6,18.9-14.7,19.9c-5.3,0.5-12.1,0.1-13-6
							c-1.6-10.2,9.9-15.9,17.6-19.4c1.8-0.8,0.2-3.4-1.5-2.6c-7.8,3.6-18.6,9.1-19.3,18.9c-0.4,5.3,1.3,9.5,6.5,11.2
							c6.6,2.1,15,1.3,20.7-2.9c6.5-4.8,9.4-16.1,5.3-23.3c-2.6-4.5-8.3-5.4-12.9-3.9C202.4,286.3,203.2,289.2,205.1,288.6z"/>
					</g>
				</g>
				<g id="XMLID_39393_">
					<path class="st2" d="M217.4,282.2c0,0,43.5-5.4,0.6,15.5S167.8,288.7,217.4,282.2z"/>
					<g>
						<path class="st2" d="M217.4,283.7c4-0.5,8.2-0.8,12.3-0.6c1.1,0.1,5.1,0,5.7,1.2c0.6,1.3-4.5,4.6-5.6,5.2
							c-6.2,4-13,7.4-19.9,10.1c-5,1.9-10.4,3.6-15.8,3.8c-3.9,0.2-12.2-0.9-8.7-6.6c2.2-3.6,6.6-5.9,10.4-7.5
							c6.9-3.1,14.5-4.6,22-5.6c1.9-0.3,1.1-3.1-0.8-2.9c-7.7,1-15.3,2.7-22.4,5.8c-4.1,1.8-8.4,4.2-11.2,7.9
							c-4.3,5.8-0.2,10.9,6.1,11.8c5.2,0.7,10.7-0.4,15.7-1.9c8.1-2.4,15.8-6.2,23.1-10.4c3.1-1.8,8.7-4.5,9.9-8.4
							c0.7-2.5-1.2-4-3.4-4.7c-5.4-1.6-11.9-0.8-17.4-0.1C215.5,280.9,215.5,283.9,217.4,283.7z"/>
					</g>
				</g>
			</g>
			<g id="XMLID_39381_">
				<g id="XMLID_39391_">
					<path class="st1" d="M255.5,287c0,0,37.1,4.9,16.4,18.3C251.2,318.7,255.5,287,255.5,287z"/>
					<g>
						<path class="st2" d="M255.5,288.5c-0.7-0.1,0.2,0,0.5,0.1c0.8,0.1,1.5,0.2,2.3,0.4c2.1,0.4,4.2,0.8,6.3,1.4
							c3.4,0.9,10.7,2.5,12,6.5c1.6,5-9.3,10.1-13,10.2c-5,0.2-6.3-5.7-6.7-9.6c-0.4-3.4-0.3-7,0.2-10.4c0.3-1.9-2.8-1.9-3,0
							c-0.9,7.1-1.3,22.6,8.8,23c5.8,0.3,15.2-5,16.7-10.9c1.4-5.5-5-8.5-9.1-10.1c-4.7-1.8-9.8-2.9-14.9-3.6
							C253.6,285.3,253.6,288.3,255.5,288.5z"/>
					</g>
				</g>
				<g id="XMLID_39390_">
					<path class="st1" d="M261,276c0,0,30.6-1.6,16.5,14.2c-14.1,15.8-39.3-0.4-41.4-7.1S261,276,261,276z"/>
					<g>
						<path class="st2" d="M261,277.5c5.1-0.3,11.3-0.3,15.9,2.1c4.5,2.4,2.2,6.5-0.5,9.5c-5,5.5-12.1,7.2-19.2,5.8
							c-5.6-1.1-11.2-3.7-15.6-7.4c-1.2-1-3.4-2.6-3.8-4.2c-0.4-1.9,1-2.4,2.8-3.1C246.9,277.8,254.4,277.6,261,277.5
							c1.9,0,1.9-3,0-3c-7.1,0.1-15.3,0.3-21.9,3c-7.9,3.3-3.1,9.4,1.8,13.2c8.5,6.4,21.1,10.5,31.2,5.5c5.5-2.7,15.5-12.5,7.9-18.2
							c-4.9-3.7-13.1-3.7-19-3.4C259.1,274.6,259.1,277.6,261,277.5z"/>
					</g>
				</g>
				<g id="XMLID_39389_">
					<path class="st1" d="M199.8,283.9c0,0,14.9-5,12.4,13.9c-2.5,18.9-28.4,15.6-29.9,10.2C180.7,302.6,178.1,293.5,199.8,283.9z"
						/>
					<g>
						<path class="st2" d="M200.2,285.4c4.8-1.6,9.4,0.2,10.5,5.4c2.1,10.4-4.6,18.9-14.7,19.9c-5.3,0.5-12.1,0.1-13-6
							c-1.6-10.2,9.9-15.9,17.6-19.4c1.8-0.8,0.2-3.4-1.5-2.6c-7.8,3.6-18.6,9.1-19.3,18.9c-0.4,5.3,1.3,9.5,6.5,11.2
							c6.6,2.1,15,1.3,20.7-2.9c6.5-4.8,9.4-16.1,5.3-23.3c-2.6-4.5-8.3-5.4-12.9-3.9C197.6,283.1,198.4,286,200.2,285.4z"/>
					</g>
				</g>
				<g id="XMLID_39388_">
					<path class="st1" d="M212.6,278.9c0,0,43.5-5.4,0.6,15.5S163,285.4,212.6,278.9z"/>
					<g>
						<path class="st2" d="M212.6,280.4c4-0.5,8.2-0.8,12.3-0.6c1.1,0.1,5.1,0,5.7,1.2c0.6,1.3-4.5,4.6-5.6,5.2
							c-6.2,4-13,7.4-19.9,10.1c-5,1.9-10.4,3.6-15.8,3.8c-3.9,0.2-12.2-0.9-8.7-6.6c2.2-3.6,6.6-5.9,10.4-7.5
							c6.9-3.1,14.5-4.6,22-5.6c1.9-0.3,1.1-3.1-0.8-2.9c-7.7,1-15.3,2.7-22.4,5.8c-4.1,1.8-8.4,4.2-11.2,7.9
							c-4.3,5.8-0.2,10.9,6.1,11.8c5.2,0.7,10.7-0.4,15.7-1.9c8.1-2.4,15.8-6.2,23.1-10.4c3.1-1.8,8.7-4.5,9.9-8.4
							c0.7-2.5-1.2-4-3.4-4.7c-5.4-1.6-11.9-0.8-17.4-0.1C210.7,277.6,210.6,280.6,212.6,280.4z"/>
					</g>
				</g>
				<g id="XMLID_39387_">
					<path class="st1" d="M186.8,290.6c0,0-7.5-1.1-7.9-2.5"/>
					<g>
						<path class="st2" d="M187.2,289.1c-1.1-0.2-2.2-0.4-3.3-0.6c-0.8-0.2-1.6-0.4-2.4-0.6c-0.3-0.1-0.7-0.2-1-0.4
							c-0.3-0.2-0.2-0.1-0.3-0.2c-0.8-1.8-3.4-0.2-2.6,1.5c0.7,1.5,3.1,2,4.6,2.4c1.4,0.3,2.8,0.6,4.3,0.8
							C188.3,292.3,189.1,289.4,187.2,289.1L187.2,289.1z"/>
					</g>
				</g>
				<g id="XMLID_39386_">
					<path class="st1" d="M280.1,291.4c0,0-7.5-1.1-7.9-2.5"/>
					<g>
						<path class="st2" d="M280.5,289.9c-1.1-0.2-2.2-0.4-3.3-0.6c-0.8-0.2-1.6-0.4-2.4-0.6c-0.3-0.1-0.7-0.2-1-0.4
							c-0.3-0.2-0.2-0.1-0.3-0.2c-0.8-1.8-3.4-0.2-2.6,1.5c0.7,1.5,3.1,2,4.6,2.4c1.4,0.3,2.8,0.6,4.3,0.8
							C281.6,293.1,282.4,290.2,280.5,289.9L280.5,289.9z"/>
					</g>
				</g>
				<g id="XMLID_39385_">
					<path class="st1" d="M241.3,279c0,0,4.9-5.8,6.3-5.4"/>
					<g>
						<path class="st2" d="M242.4,280.1c0.7-0.8,1.5-1.7,2.3-2.5c0.6-0.6,1.2-1.2,1.9-1.8c0.2-0.2,0.5-0.4,0.8-0.6
							c0.5-0.3,0.5-0.1,0-0.2c1.9,0.3,2.7-2.6,0.8-2.9c-1.9-0.3-3.5,1.4-4.8,2.6c-1.1,1-2.1,2.1-3,3.2
							C239,279.4,241.1,281.6,242.4,280.1L242.4,280.1z"/>
					</g>
				</g>
				<g id="XMLID_39384_">
					<path class="st1" d="M195.9,315.5c0,0,4.9-5.8,6.3-5.4"/>
					<g>
						<path class="st2" d="M196.9,316.6c0.7-0.8,1.5-1.7,2.3-2.5c0.6-0.6,1.2-1.2,1.9-1.8c0.2-0.2,0.5-0.4,0.8-0.6
							c0.5-0.3,0.5-0.1,0-0.2c1.9,0.3,2.7-2.6,0.8-2.9c-1.9-0.3-3.5,1.4-4.8,2.6c-1.1,1-2.1,2.1-3,3.2
							C193.6,315.9,195.7,318.1,196.9,316.6L196.9,316.6z"/>
					</g>
				</g>
				<g id="XMLID_39383_">
					<path class="st1" d="M266.1,302.4c0,0,6.9,3.1,6.9,4.6"/>
					<g>
						<path class="st2" d="M265.4,303.7c1,0.4,2,0.9,3,1.5c0.8,0.4,1.5,0.8,2.2,1.3c0.3,0.2,0.5,0.4,0.8,0.6c0.3,0.3,0.3,0.5,0.3,0
							c0.2,1.9,3.2,1.9,3,0c-0.2-1.9-2.2-3-3.7-3.9c-1.3-0.7-2.6-1.4-4-2C265.2,300.4,263.6,302.9,265.4,303.7L265.4,303.7z"/>
					</g>
				</g>
				<g id="XMLID_39382_">
					<path class="st1" d="M220.9,275.5c0,0,6.7,3.5,6.6,5"/>
					<g>
						<path class="st2" d="M220.1,276.7c1,0.5,1.9,1.1,2.9,1.7c0.7,0.4,1.4,0.9,2,1.4c0.3,0.2,0.5,0.5,0.8,0.7
							c0.2,0.2,0.2,0.4,0.1-0.1c0.1,1.9,3.1,1.9,3,0c-0.1-1.9-2.2-3.1-3.6-4.1c-1.2-0.8-2.5-1.6-3.8-2.2
							C219.9,273.3,218.4,275.8,220.1,276.7L220.1,276.7z"/>
					</g>
				</g>
			</g>
		</g>
	</g>
</g>
</svg>
