<?xml version="1.0" encoding="utf-8"?>
<!-- Generator: Adobe Illustrator 22.1.0, SVG Export Plug-In . SVG Version: 6.00 Build 0)  -->
<svg version="1.1" id="Layer_1" xmlns="http://www.w3.org/2000/svg" xmlns:xlink="http://www.w3.org/1999/xlink" x="0px" y="0px"
	 viewBox="0 0 268.6 365.6" style="enable-background:new 0 0 268.6 365.6;" xml:space="preserve">
<style type="text/css">
	.st0{fill:#FCF4E9;stroke:#5C5B4B;stroke-linecap:round;stroke-miterlimit:10;}
</style>
<g>
	<g>
		<g>
			<path class="st0" d="M160.3,159.9c0,0-2.6,42.3-2.5,75c0.1,3.9,0.2,7.4,0.2,10.6c0,0,0,0,0,0.1c0.2,8-0.1,11.6-0.7,12.4
				c-2.1,18.9,0.2,91,0.2,91l-12.2,1.1c0,0,2.3-43.3,0.8-72.8c-1.5-29.5-3.6-108.4-6.1-112.4"/>
			<path class="st0" d="M128.6,159.9c0,0-2.6,42.3-2.5,75c0.1,3.9,0.2,7.4,0.2,10.6c0,0,0,0,0,0.1c0.2,8-0.1,11.6-0.7,12.4
				c-2.1,18.9,0.2,91,0.2,91l-12.2,1.1c0,0,2.3-43.3,0.8-72.8c-1.5-29.5-3.6-108.4-6.1-112.4"/>
		</g>
		<g>
			<path id="XMLID_4802_" class="st0" d="M2.4,166.6c0,0-0.9,1.8,2.2,1.9c100.1,2.1,259.5-0.1,259.5-0.1c3.1-0.2,2.2-1.9,2.2-1.9
				c4.1-56.7,0-162.2,0-162.2s0.9-1.8-2.2-1.9C108.5-1.8,2.8,2.3,2.8,2.3c-3.1,0.2-2.2,1.9-2.2,1.9S0.4,93.1,2.4,166.6z"/>
			<path id="XMLID_4801_" class="st0" d="M7.8,18.8c0,0-1.2-6,5-6.2c0,0,107.8-7.1,240.5,0.1c6.2,0.3,5,6.2,5,6.2s1.2,78.3-2.2,133
				c0,0,1.2,6-5,6.2c0,0-102.7,4.9-236.1,0.1c-6.2-0.2-5-6.2-5-6.2L7.8,18.8z"/>
		</g>
		<path id="XMLID_4535_" class="st0" d="M94.2,349.1c0,0-0.4-0.7,1.6-0.7c0,0,34.5-0.8,77,0c2,0,1.6,0.7,1.6,0.7s0.4,8.8-0.7,15
			c0,0,0.4,0.7-1.6,0.7c0,0-32.9,0.5-75.6,0c-2,0-1.6-0.7-1.6-0.7L94.2,349.1z"/>
	</g>
</g>
</svg>
