<?xml version="1.0" encoding="utf-8"?>
<!-- Generator: Adobe Illustrator 22.1.0, SVG Export Plug-In . SVG Version: 6.00 Build 0)  -->
<svg version="1.1" id="Layer_1" xmlns="http://www.w3.org/2000/svg" xmlns:xlink="http://www.w3.org/1999/xlink" x="0px" y="0px"
	 viewBox="0 0 238.5 138.4" style="enable-background:new 0 0 238.5 138.4;" xml:space="preserve">
<style type="text/css">
	.st0{fill:#FCF4E9;stroke:#221F1F;stroke-miterlimit:10;}
</style>
<path class="st0" d="M235.7,50.8c6.4-16.2-2.5-36.7-2.5-36.7s-21.8-25.7-50-6.3c-11.6-6.5-28.4-11.2-47.8-2.4
	c-1.4-0.5-2.9-1.1-4.4-1.6c-7.7-2.5-15.3-3.5-22.5-3.3C97.3,0.3,84.9,3,71.6,10.4C60.9,2.4,40-7.3,15.4,10.7
	c-20.4,15-17.9,41.2-3.8,58.5c-14.1,17.3-16.6,43.5,3.8,58.5c24.6,18.1,45.5,8.3,56.3,0.3c13.2,7.5,25.6,10.1,36.8,9.9
	c7.2,0.2,14.8-0.8,22.5-3.3c1.5-0.5,3-1,4.4-1.6c19.5,8.8,36.3,4.1,47.8-2.4c28.2,19.4,50-6.3,50-6.3s9.8-22.4,1.5-38.9
	C231.6,79.2,234,55,235.7,50.8z"/>
<path class="st0" d="M122.8,12.8c3.8-2.8,7.4-5,11-6.7"/>
<path class="st0" d="M133.8,6.1c-3.6,1.7-7.3,4-11,6.7"/>
<path class="st0" d="M79.5,17.5c0,0-2.8-3.3-7.8-7"/>
<path class="st0" d="M199.7,20.9c0,0-6.2-7.3-16.6-13.1"/>
<line id="XMLID_4298_" class="st0" x1="209.9" y1="48.9" x2="207.3" y2="42.9"/>
<path id="XMLID_4284_" class="st0" d="M112.6,33c0,0-2.3-4.9,1.4-7"/>
<path id="XMLID_4262_" class="st0" d="M137.1,87.6c0,0,3.8,7.6,5.3,6.4"/>
<path id="XMLID_4260_" class="st0" d="M86.8,50.4c0,0,0.1-9.2-1.5-10"/>
<line id="XMLID_4259_" class="st0" x1="167.1" y1="13.9" x2="164" y2="12.6"/>
<line id="XMLID_4258_" class="st0" x1="47.1" y1="17.9" x2="44" y2="16.6"/>
<path class="st0" d="M122.8,125.6c3.8,2.8,7.4,5,11,6.7"/>
<path class="st0" d="M133.8,132.3c-3.6-1.7-7.3-4-11-6.7"/>
<path class="st0" d="M79.5,120.9c0,0-2.8,3.3-7.8,7"/>
<path class="st0" d="M199.7,117.5c0,0-6.2,7.3-16.6,13.1"/>
<line id="XMLID_6_" class="st0" x1="209.9" y1="89.5" x2="207.3" y2="95.5"/>
<path id="XMLID_5_" class="st0" d="M112.6,105.4c0,0-2.3,4.9,1.4,7"/>
<path id="XMLID_4_" class="st0" d="M137.1,50.8c0,0,3.8-7.6,5.3-6.4"/>
<path id="XMLID_3_" class="st0" d="M86.8,88c0,0,0.1,9.2-1.5,10"/>
<line id="XMLID_2_" class="st0" x1="167.1" y1="124.5" x2="164" y2="125.8"/>
<line id="XMLID_1_" class="st0" x1="47.1" y1="120.5" x2="44" y2="121.8"/>
</svg>
