<?xml version="1.0" encoding="utf-8"?>
<!-- Generator: Adobe Illustrator 22.1.0, SVG Export Plug-In . SVG Version: 6.00 Build 0)  -->
<svg version="1.1" id="Layer_1" xmlns="http://www.w3.org/2000/svg" xmlns:xlink="http://www.w3.org/1999/xlink" x="0px" y="0px"
	 viewBox="0 0 238.5 138.4" style="enable-background:new 0 0 238.5 138.4;" xml:space="preserve">
<style type="text/css">
	.st0{fill:#FCF4E9;stroke:#221F1F;stroke-miterlimit:10;}
</style>
<path class="st0" d="M196.5,52.2c-11.8-33.8-48-61.4-88.9-48.4c-20.6,6.6-32,18.5-37.8,32c-2,0.4-4,0.9-6,1.5
	c-19.4,6.2-27.9,18.6-30.9,31.9c-3.5-0.1-7.1,0.4-10.9,1.6C-13.1,82,5.3,124.3,5.3,124.3s21.8,25.7,50,6.3
	c11.9,6.7,29.2,11.5,49.3,1.7c16.2,6.8,37.8,9.4,62.2-4.4c10.8,8,31.7,17.8,56.3-0.3C254.5,104.7,231.8,55.4,196.5,52.2z"/>
<path class="st0" d="M115.7,125.6c-3.8,2.8-7.4,5-11,6.7"/>
<path class="st0" d="M104.7,132.3c3.6-1.7,7.3-4,11-6.7"/>
<path class="st0" d="M159,120.9c0,0,2.8,3.3,7.8,7"/>
<path class="st0" d="M38.8,117.5c0,0,6.2,7.3,16.6,13.1"/>
<line id="XMLID_3805_" class="st0" x1="28.6" y1="89.5" x2="31.2" y2="95.5"/>
<path id="XMLID_3804_" class="st0" d="M125.9,105.4c0,0,2.3,4.9-1.4,7"/>
<path id="XMLID_3803_" class="st0" d="M101.4,50.8c0,0-3.8-7.6-5.3-6.4"/>
<path id="XMLID_3802_" class="st0" d="M151.7,88c0,0-0.1,9.2,1.5,10"/>
<line id="XMLID_3806_" class="st0" x1="71.4" y1="124.5" x2="74.5" y2="125.8"/>
<line id="XMLID_3807_" class="st0" x1="191.4" y1="120.5" x2="194.5" y2="121.8"/>
</svg>
