<?xml version="1.0" encoding="utf-8"?>
<!-- Generator: Adobe Illustrator 22.1.0, SVG Export Plug-In . SVG Version: 6.00 Build 0)  -->
<svg version="1.1" id="Layer_1" xmlns="http://www.w3.org/2000/svg" xmlns:xlink="http://www.w3.org/1999/xlink" x="0px" y="0px"
	 viewBox="0 0 238.5 726.1" style="enable-background:new 0 0 238.5 726.1;" xml:space="preserve">
<style type="text/css">
	.st0{fill:#FCF4E9;stroke:#221F1F;stroke-miterlimit:10;}
</style>
<path class="st0" d="M233.2,14.1c0,0-21.8-25.7-50-6.3C171.3,1.1,154-3.7,133.8,6.1C117.6-0.8,96-3.4,71.7,10.4
	C60.9,2.4,40-7.3,15.4,10.7C-16,33.7,6.7,83,42,86.2c8.4,24.2,29.4,45.2,55.6,50.4c0,185.4,0,557.9,0,560.5c0,0.4,0,14.8,0,15.2
	c0,4.4,0.1,9,0.4,12.1c0.2,2.3,41.1-3.1,41.5,0c0.2,2.3,2.8,0.1,2.9,0c0.2-0.3,0.3-4,0.3-8.6c0-3,0-13.9,0-16.7
	c0-5.4,0-388.9,0-569.4c13.4-6.8,21.5-16.5,26.1-27.2c2-0.4,4-0.9,6-1.5c19.4-6.2,27.9-18.6,30.9-31.9c3.5,0.1,7.1-0.4,10.9-1.6
	C251.6,56.4,233.2,14.1,233.2,14.1z"/>
<path class="st0" d="M122.8,12.8c3.8-2.8,7.4-5,11-6.7"/>
<path class="st0" d="M133.8,6.1c-3.6,1.7-7.3,4-11,6.7"/>
<path class="st0" d="M79.5,17.5c0,0-2.8-3.3-7.8-7"/>
<path class="st0" d="M199.8,20.9c0,0-6.2-7.3-16.6-13.1"/>
<line id="XMLID_4298_" class="st0" x1="209.9" y1="48.9" x2="207.3" y2="42.9"/>
<path id="XMLID_4284_" class="st0" d="M112.6,33c0,0-2.3-4.9,1.4-7"/>
<path id="XMLID_4262_" class="st0" d="M137.1,87.6c0,0,3.8,7.6,5.3,6.4"/>
<path id="XMLID_4260_" class="st0" d="M86.8,50.4c0,0,0.1-9.2-1.5-10"/>
<line id="XMLID_4259_" class="st0" x1="167.1" y1="13.9" x2="164" y2="12.6"/>
<line id="XMLID_4258_" class="st0" x1="47.1" y1="17.9" x2="44" y2="16.6"/>
</svg>
