<?xml version="1.0" encoding="utf-8"?>
<!-- Generator: Adobe Illustrator 22.1.0, SVG Export Plug-In . SVG Version: 6.00 Build 0)  -->
<svg version="1.1" id="Layer_1" xmlns="http://www.w3.org/2000/svg" xmlns:xlink="http://www.w3.org/1999/xlink" x="0px" y="0px"
	 viewBox="0 0 266.6 82.9" style="enable-background:new 0 0 266.6 82.9;" xml:space="preserve">
<style type="text/css">
	.st0{opacity:0.1;fill:#231F20;stroke:#231F20;stroke-miterlimit:10;enable-background:new    ;}
	.st1{fill:#FFD767;stroke:#584C4F;stroke-width:2;stroke-miterlimit:10;}
	.st2{fill:#FFFAF2;stroke:#584C4F;stroke-width:2;stroke-miterlimit:10;}
</style>
<path class="st0" d="M259.8,33.9c-6.9-5-13-4.9-17.7-3.3c-0.5-0.4-1-0.8-1.6-1c-4.8-2.3-7.4,0.7-8.7,5.4c-4.5-4.8-11.3-7.5-18.7-5.1
	c-2.5,0.8-4.4,1.9-6,3.2c-3.3-7.2-9.8-12.3-21.2-10c-0.1-1.3-0.2-2.7-0.3-4.2c0,0-1.9-10.8-11-7c-3.7,1.6-5.2,9.4-5.3,18.3
	c-0.3-0.1-0.6-0.2-1-0.3h-0.1c-0.3-0.1-0.7-0.2-1-0.3c-0.1,0-0.2,0-0.3-0.1c-0.3-0.1-0.6-0.1-0.9-0.2c-0.1,0-0.2,0-0.3-0.1
	c-0.4-0.1-0.7-0.1-1.1-0.1h-0.1c-0.4,0-0.8-0.1-1.2-0.1c-0.1,0-0.2,0-0.3,0c-0.3,0-0.6,0-0.9,0c-0.1,0-0.3,0-0.4,0
	c-0.3,0-0.5,0-0.8,0c-0.1,0-0.3,0-0.4,0c-0.3,0-0.7,0.1-1,0.1c-0.1,0-0.1,0-0.2,0c-0.4,0.1-0.7,0.2-1.1,0.3c-0.1,0-0.3,0.1-0.4,0.1
	c-0.2,0.1-0.5,0.2-0.7,0.2c-0.1,0.1-0.3,0.1-0.4,0.2c-0.2,0.1-0.4,0.2-0.7,0.3c-0.1,0.1-0.3,0.1-0.4,0.2c-0.3,0.2-0.6,0.4-0.9,0.6
	c-0.1,0.1-0.2,0.1-0.2,0.2c-0.2,0.2-0.5,0.4-0.7,0.6c-0.1,0.1-0.2,0.2-0.3,0.3c-0.2,0.2-0.4,0.3-0.5,0.5c-0.1,0.1-0.2,0.2-0.3,0.4
	c-0.1,0.1-0.1,0.1-0.2,0.2c-0.1,0.1-0.2,0.3-0.3,0.4c-0.1,0.1-0.2,0.3-0.3,0.4c-0.2,0.3-0.4,0.6-0.5,0.9c-0.1,0.1-0.1,0.2-0.2,0.4
	c-0.2,0.4-0.3,0.8-0.5,1.2c-0.1,0.2-0.1,0.3-0.2,0.5c-0.1,0.3-0.2,0.6-0.3,0.9c-0.1,0.2-0.1,0.4-0.2,0.6c-0.1,0.3-0.1,0.7-0.2,1
	c0,0.2-0.1,0.4-0.1,0.7c0,0.1,0,0.2,0,0.2c-2-2-4.7-3.6-8.2-4.4c1.6-1.6,3.3-3.5,5.3-5.8c0,0,10.8-7.3,0.6-12.4
	c-5-2.5-11.2,2.1-15.6,7.8c-0.1-1.5-0.2-3-0.3-4.7c0,0-1.8-10.3-10.4-6.7c-3.4,1.4-4.8,8.4-5,16.5c-3.6-1.4-8.8-2.5-13.7-0.1
	c-1.3-1.7-3.6-2.8-7.7-0.4c-2.6,1.5-3.4,3.4-3.4,5.2c-4.5-5.1-11.5-8.1-19.1-5.7c-2.1,0.7-3.8,1.5-5.2,2.6c-0.1-0.3-0.1-0.5-0.1-0.5
	s-8.5-7.6-10,5.5c0,0-0.4,8.8-4.5,9.5c-4,0.7-6.4-5.5-6-7.6c0,0-0.7-11.9-8.7-8.4c-3.6,1.6-4.7,9.3-2.9,16.9
	c-3.4,2.7-12.3,7.8-9.9-13.2c0,0-3.4-8.1-9.9-4.7c-6.6,3.4-7.6,44.7,24,33.1c0,0,1.8-0.7,4-1.6c3.1,2.2,7,3.2,11.7,2
	c4.1-1,7-2.8,9.1-5.2c1.9,2,12.9,12.5,26.6,2.5c0.5-0.3,0.9-0.7,1.3-1.1c3.2,8.1,13,6.9,12.7-3.1c-0.5-14.4,4.5-15.6,10.1-13.4
	c0.7,0.3,1.5,0.5,2.3,0.6c0.8,8.1,2.5,15,4.1,16.2c3.2,2.4,11,14.7,11.7-11.3c4.1-2,10.5-3.1,8.5,11.6c0,0,3.4,6.5,10.1,3.8
	c0.6-0.3,1.2-0.8,1.7-1.6c0.2,0.1,0.4,0.2,0.6,0.3c0.1,0.1,0.3,0.1,0.4,0.2c0.2,0.1,0.4,0.2,0.6,0.3c0.1,0.1,0.3,0.1,0.4,0.2
	c0.2,0.1,0.4,0.2,0.7,0.2c0.1,0,0.3,0.1,0.4,0.1c0.3,0.1,0.7,0.2,1,0.3c0.1,0,0.3,0.1,0.4,0.1c0.2,0.1,0.5,0.1,0.7,0.2
	c0.2,0,0.3,0.1,0.5,0.1s0.4,0.1,0.6,0.1c0.2,0,0.4,0.1,0.5,0.1c0.2,0,0.5,0.1,0.7,0.1s0.3,0,0.5,0.1c0.4,0,0.7,0.1,1.1,0.1
	c0.2,0,0.4,0,0.5,0c0.2,0,0.4,0,0.6,0c0.2,0,0.4,0,0.6,0c0.2,0,0.4,0,0.6,0c0.2,0,0.4,0,0.6,0c0.2,0,0.5-0.1,0.7-0.1
	s0.5-0.1,0.7-0.1c0.3-0.1,0.5-0.1,0.8-0.2c0.2,0,0.3-0.1,0.5-0.2s0.4-0.1,0.6-0.2c0.2-0.1,0.3-0.1,0.5-0.2c0.2-0.1,0.4-0.2,0.6-0.3
	c0.2-0.1,0.3-0.2,0.5-0.2c0.2-0.1,0.4-0.3,0.7-0.4c0.2-0.1,0.4-0.2,0.6-0.4c0.2-0.2,0.4-0.3,0.6-0.5c0.1-0.1,0.3-0.2,0.4-0.4
	c0.2-0.2,0.3-0.3,0.5-0.5c0.1-0.1,0.2-0.3,0.4-0.4c0.1-0.1,0.1-0.1,0.2-0.2c0.1-0.1,0.2-0.2,0.3-0.4c0.1-0.2,0.2-0.3,0.3-0.5
	s0.2-0.4,0.4-0.6c0.1,0.2,0.3,0.3,0.4,0.4c3.6,2.8,13,17.9,12.4-20.2c4.3-2.6,10.8-3.8,8.7,15.5c0,0,3.6,8.6,10.6,5
	c0.1-0.1,0.3-0.2,0.4-0.3c4,3.4,13.5,9.3,24.9,0.9c0.1-0.1,0.3-0.2,0.4-0.3c1.6,8.5,5,24,9.2,22.2c2.2-0.9,4.6-8.2,5.9-17
	C262.6,65.9,273.5,43.9,259.8,33.9z M74.7,53c-10.1-1.4,4.1-20.1,8.7-8.2C87.9,56.8,74.7,53,74.7,53z M165.1,53.2
	c0,0.1-0.1,0.2-0.1,0.3v0.1c0,0.1-0.1,0.2-0.1,0.3c0,0,0,0.1-0.1,0.1c0,0.1-0.1,0.2-0.2,0.2l-0.1,0.1c-0.1,0.1-0.1,0.1-0.2,0.2
	l-0.1,0.1c-0.1,0.1-0.2,0.1-0.2,0.2l-0.1,0.1c-0.1,0-0.2,0.1-0.3,0.1s-0.1,0.1-0.2,0.1c-0.1,0-0.2,0.1-0.3,0.1s-0.1,0-0.2,0
	c-0.1,0-0.2,0-0.4,0c-0.1,0-0.2,0-0.3,0s-0.3,0-0.4,0c-0.1,0-0.2,0-0.3,0c-0.2,0-0.3,0-0.5-0.1c-0.1,0-0.2,0-0.3,0
	c-0.2,0-0.4-0.1-0.5-0.1s-0.3,0-0.4-0.1c-0.2,0-0.4-0.1-0.6-0.2c-0.1,0-0.3-0.1-0.4-0.1c-0.2-0.1-0.5-0.1-0.7-0.2
	c-0.2-0.1-0.3-0.1-0.5-0.2c-0.3-0.1-0.5-0.2-0.8-0.3c-0.2-0.1-0.3-0.1-0.5-0.2c-0.3-0.1-0.7-0.3-1-0.4c-0.1-0.1-0.3-0.1-0.4-0.2
	c0,0,0,0-0.1,0c0-1-0.1-1.9-0.3-2.9C157.6,52.2,161.5,53.1,165.1,53.2L165.1,53.2z M160.3,40.7L160.3,40.7c0-0.1,0.1-0.2,0.1-0.3
	s0-0.1,0.1-0.2c0-0.1,0.1-0.1,0.1-0.2c0-0.1,0.1-0.1,0.1-0.2c0-0.1,0.1-0.1,0.1-0.2c0-0.1,0.1-0.1,0.1-0.2l0.1-0.1
	c0.1-0.1,0.1-0.1,0.2-0.2l0.1-0.1c0.1-0.1,0.2-0.1,0.3-0.2c0,0,0.1,0,0.1-0.1c0.1,0,0.2-0.1,0.3-0.1h0.1c0.1,0,0.3-0.1,0.4-0.1h0.1
	c0.2,0,0.4,0,0.6,0l0,0c1.5,0,3.5,0.4,6.5,1.7c0.1,0.9,0.2,1.9,0.3,2.8C167.1,41.5,163.5,40.8,160.3,40.7z M215.7,53
	c-10.1-1.4,4.1-20.1,8.7-8.2C228.9,56.8,215.7,53,215.7,53z M252.9,49.7c-1.2,3.2-3.2,4.2-5.1,3.9c-5.3-0.8-10.9-11.1-3.5-12.1
	c0,0,1.2-0.3,2.7-0.5C250.5,40.7,256.2,41.3,252.9,49.7z"/>
<path id="XMLID_27835_" class="st1" d="M254.8,28.9c-6.9-5-13-4.9-17.7-3.3c-0.5-0.4-1-0.8-1.6-1c-9-4.4-10.2,10-10.1,18.9
	c0,0.6,0,1.2,0,1.8c0.1,2.8,0.3,4.7,0.3,4.7s4.4,30,10.1,27.6c2.2-0.9,4.6-8.2,5.9-17C257.6,60.9,268.5,38.9,254.8,28.9z
	 M247.9,44.7c-1.2,3.2-3.2,4.2-5.1,3.9c-5.3-0.8-10.9-11.1-3.5-12.1c0,0,1.2-0.3,2.7-0.5C245.5,35.7,251.2,36.3,247.9,44.7z"/>
<path id="XMLID_27844_" class="st1" d="M208.1,24.8c-18.4,5.9-8.7,28-8.7,28s11.8,13.9,26.9,2.8C241.3,44.6,226.5,19,208.1,24.8z
	 M210.7,48c-10.1-1.4,4.1-20.1,8.7-8.2C223.9,51.8,210.7,48,210.7,48z"/>
<path id="XMLID_38_" class="st2" d="M249.8,23.9c-6.9-5-13-4.9-17.7-3.3c-0.5-0.4-1-0.8-1.6-1c-9-4.4-10.2,10-10.1,18.9
	c0,0.6,0,1.2,0,1.8c0.1,2.8,0.3,4.7,0.3,4.7s4.4,30,10.1,27.6c2.2-0.9,4.6-8.2,5.9-17C252.6,55.9,263.5,33.9,249.8,23.9z
	 M242.9,39.7c-1.2,3.2-3.2,4.2-5.1,3.9c-5.3-0.8-10.9-11.1-3.5-12.1c0,0,1.2-0.3,2.7-0.5C240.5,30.7,246.2,31.3,242.9,39.7z"/>
<path id="XMLID_15_" class="st2" d="M203.1,19.8c-18.4,5.9-8.7,28-8.7,28s11.8,13.9,26.9,2.8C236.3,39.6,221.5,14,203.1,19.8z
	 M205.7,43c-10.1-1.4,4.1-20.1,8.7-8.2C218.9,46.8,205.7,43,205.7,43z"/>
<g id="XMLID_27832_">
	<path id="XMLID_27834_" class="st1" d="M180.6,13.8c0,0-1.9-10.8-11-7s-4.6,44.7-0.4,47.9S185.2,77.3,180.6,13.8z"/>
	<path id="XMLID_27833_" class="st1" d="M178.3,37c0,0,15.1-14.9,12.1,13c0,0,3.6,8.6,10.6,5c7-3.6,8.1-47.8-25.7-35.4"/>
</g>
<g id="XMLID_35_">
	<path id="XMLID_37_" class="st2" d="M175.6,8.8c0,0-1.9-10.8-11-7s-4.6,44.7-0.4,47.9S180.2,72.3,175.6,8.8z"/>
	<path id="XMLID_36_" class="st2" d="M173.3,32c0,0,15.1-14.9,12.1,13c0,0,3.6,8.6,10.6,5c7-3.6,8.1-47.8-25.7-35.4"/>
</g>
<g id="XMLID_27818_">
	<path id="XMLID_27821_" class="st1" d="M167.1,36.4c0,0,6.2-0.3,5.6-5.5c-0.5-4.1-18-11.7-25.1-2.7c-1.9,2.4-3,5.8-3,10.8l0,0
		c0.5,1.7,1.4,3.1,2.5,4.3c0.4,0.5,0.9,0.9,1.3,1.2c3.2,2.5,7.7,3.5,11.7,3.6c-0.6,2.2-3.2,3.5-11.8-0.7c0,0-6.2,0.3-5.6,5.5
		c0.5,4.1,18,11.7,25.1,2.6c1.9-2.4,3-5.8,3-10.8l0,0c-0.5-1.7-1.4-3.1-2.6-4.3c-0.4-0.5-0.9-0.9-1.3-1.2c-3.2-2.5-7.7-3.5-11.6-3.6
		C155.9,33.5,158.6,32.3,167.1,36.4z"/>
	<path id="XMLID_27820_" class="st1" d="M159.2,42.8c0,0,6,12.9-10.9,4.7c0,0-6.2,0.3-5.6,5.5c0.7,5.2,28.3,15.9,28.1-8.2"/>
	<path id="XMLID_27819_" class="st1" d="M156.2,41.1c0,0-6-12.9,10.9-4.7c0,0,6.2-0.3,5.6-5.5c-0.7-5.2-28.3-15.9-28.1,8.2"/>
</g>
<g id="XMLID_21_">
	<path id="XMLID_24_" class="st2" d="M162.1,31.4c0,0,6.2-0.3,5.6-5.5c-0.5-4.1-18-11.7-25.1-2.7c-1.9,2.4-3,5.8-3,10.8l0,0
		c0.5,1.7,1.4,3.1,2.5,4.3c0.4,0.5,0.9,0.9,1.3,1.2c3.2,2.5,7.7,3.5,11.7,3.6c-0.6,2.2-3.2,3.5-11.8-0.7c0,0-6.2,0.3-5.6,5.5
		c0.5,4.1,18,11.7,25.1,2.6c1.9-2.4,3-5.8,3-10.8l0,0c-0.5-1.7-1.4-3.1-2.6-4.3c-0.4-0.5-0.9-0.9-1.3-1.2c-3.2-2.5-7.7-3.5-11.6-3.6
		C150.9,28.5,153.6,27.3,162.1,31.4z"/>
	<path id="XMLID_23_" class="st2" d="M154.2,37.8c0,0,6,12.9-10.9,4.7c0,0-6.2,0.3-5.6,5.5c0.7,5.2,28.3,15.9,28.1-8.2"/>
	<path id="XMLID_22_" class="st2" d="M151.2,36.1c0,0-6-12.9,10.9-4.7c0,0,6.2-0.3,5.6-5.5c-0.7-5.2-28.3-15.9-28.1,8.2"/>
</g>
<g id="XMLID_27826_">
	<g id="XMLID_27830_">
		<path id="XMLID_27831_" class="st1" d="M141.8,25.3c0,0,10.8-7.3,0.6-12.4S117,32.3,121.9,35.5S131.8,37.4,141.8,25.3z"/>
	</g>
	<g id="XMLID_27827_">
		<path id="XMLID_27829_" class="st1" d="M126.9,22.8c-0.1-2.1-0.3-4.4-0.4-6.8c0,0-1.8-10.3-10.4-6.7c-8.6,3.6-4.4,42.5-0.4,45.5
			c3.2,2.5,11.2,15.2,11.8-12.7"/>
		<path id="XMLID_27828_" class="st1" d="M124.4,45.5c0,0,14.4-11.3,11.5,9.8c0,0,3.4,6.5,10.1,3.8s7.7-36.2-24.6-26.8"/>
	</g>
</g>
<g id="XMLID_27841_">
	<path id="XMLID_27843_" class="st1" d="M115.5,28.1c0,0-19.5-13.4-27.9,10.3s12.1,27.5,11.6,13s4.5-15.6,10.1-13.4
		S123,37.9,115.5,28.1z"/>
	<path id="XMLID_27842_" class="st1" d="M98.9,29.5c0,0-1.3-8.9-9.3-4.2C81.7,30,90,37.7,90,37.7"/>
</g>
<g id="XMLID_29_">
	<g id="XMLID_33_">
		<path id="XMLID_34_" class="st2" d="M136.8,20.3c0,0,10.8-7.3,0.6-12.4S112,27.3,116.9,30.5S126.8,32.4,136.8,20.3z"/>
	</g>
	<g id="XMLID_30_">
		<path id="XMLID_32_" class="st2" d="M121.9,17.8c-0.1-2.1-0.3-4.4-0.4-6.8c0,0-1.8-10.3-10.4-6.7c-8.6,3.6-4.4,42.5-0.4,45.5
			c3.2,2.5,11.2,15.2,11.8-12.7"/>
		<path id="XMLID_31_" class="st2" d="M119.4,40.5c0,0,14.4-11.3,11.5,9.8c0,0,3.4,6.5,10.1,3.8s7.7-36.2-24.6-26.8"/>
	</g>
</g>
<g id="XMLID_18_">
	<path id="XMLID_20_" class="st2" d="M110.5,23.1c0,0-19.5-13.4-27.9,10.3s12.1,27.5,11.6,13s4.5-15.6,10.1-13.4
		S118,32.9,110.5,23.1z"/>
	<path id="XMLID_19_" class="st2" d="M93.9,24.5c0,0-1.3-8.9-9.3-4.2C76.7,25,85,32.7,85,32.7"/>
</g>
<path id="XMLID_27838_" class="st1" d="M67.1,24.8c-18.4,5.9-8.7,28-8.7,28s11.8,13.9,26.9,2.8C100.3,44.6,85.5,19,67.1,24.8z
	 M69.7,48c-10.1-1.4,4.1-20.1,8.7-8.2C82.9,51.8,69.7,48,69.7,48z"/>
<path id="XMLID_41_" class="st2" d="M62.1,19.8c-18.4,5.9-8.7,28-8.7,28s11.8,13.9,26.9,2.8C95.3,39.6,80.5,14,62.1,19.8z M64.7,43
	c-10.1-1.4,4.1-20.1,8.7-8.2C77.9,46.8,64.7,43,64.7,43z"/>
<g id="XMLID_27822_">
	<path id="XMLID_27825_" class="st1" d="M41.3,34.3c0,0-0.7-11.9-8.7-8.4c-8.1,3.5-3.5,37.3,17,32.4s12.2-31.4,12.2-31.4
		s-8.5-7.6-10,5.5c0,0-0.4,8.8-4.5,9.5C43.2,42.6,40.9,36.5,41.3,34.3z"/>
	<g id="XMLID_27823_">
		<path id="XMLID_27824_" class="st1" d="M30.9,41.6c0,0-14.1,13.9-11.3-12.1c0,0-3.4-8.1-9.9-4.7c-6.6,3.4-7.6,44.7,24,33.1
			c0,0,8.5-3.2,10.8-4.9"/>
	</g>
</g>
<g id="XMLID_25_">
	<path id="XMLID_28_" class="st2" d="M36.3,29.3c0,0-0.7-11.9-8.7-8.4c-8.1,3.5-3.5,37.3,17,32.4s12.2-31.4,12.2-31.4
		s-8.5-7.6-10,5.5c0,0-0.4,8.8-4.5,9.5C38.2,37.6,35.9,31.5,36.3,29.3z"/>
	<g id="XMLID_26_">
		<path id="XMLID_27_" class="st2" d="M25.9,36.6c0,0-14.1,13.9-11.3-12.1c0,0-3.4-8.1-9.9-4.7c-6.6,3.4-7.6,44.7,24,33.1
			c0,0,8.5-3.2,10.8-4.9"/>
	</g>
</g>
</svg>
