<?xml version="1.0" encoding="utf-8"?>
<!-- Generator: Adobe Illustrator 22.1.0, SVG Export Plug-In . SVG Version: 6.00 Build 0)  -->
<svg version="1.1" id="Layer_1" xmlns="http://www.w3.org/2000/svg" xmlns:xlink="http://www.w3.org/1999/xlink" x="0px" y="0px"
	 viewBox="0 0 2227.8 1015.6" style="enable-background:new 0 0 2227.8 1015.6;" xml:space="preserve">
<style type="text/css">
	.st0{opacity:0.1;}
	.st1{fill:#231F20;stroke:#231F20;stroke-miterlimit:10;}
	.st2{fill:#A36B78;stroke:#584C4F;stroke-width:4;stroke-linecap:round;stroke-miterlimit:10;}
	.st3{fill:#B66C7E;stroke:#584C4F;stroke-width:4;stroke-miterlimit:10;}
	.st4{fill:#FFFAF2;stroke:#584C4F;stroke-width:2;stroke-miterlimit:10;}
</style>
<g id="Layer_5">
</g>
<g id="Layer_3">
</g>
<g>
	<g class="st0">
		<path id="XMLID_6293_" class="st1" d="M894.6,2238.6c14.6-312.3,27.4-695.9,37.5-895.2c18.3-361.1-10.3-891.5-10.3-891.5l151.7,13
			c0,0-31,936.7,0,1133.4c22.2,141-16.8,663.1-29.2,967.5"/>
		<path class="st1" d="M929.7,475.5c-18.2-19.7-33.7-53.5-33.7-111c0-26.7-4.2-67.6-2.7-72.9c2.5-8.9,0.1-58.2,4.9-76.6
			c-5.6-2.2-9.5-6.3-8.3-10.7c3.1-10.9-1.2-81.3,9.1-83.5s20.6-4.4,21.6,0.5c0,0,9.2,67.9,2.4,85.6c0.5,0.4,0.9,0.9,1,1.6
			c0,0,5.3,39.3,4.9,65.9c9.3-5.6,20.2-8.4,32.3-9.5c0.4-12.8-18.7-75.9-15.2-95.7c-3.8-1.6-6.2-4.3-5.9-7.8
			c0.8-13.9-24.7-95.3-12.2-101.7c12.5-6.3,25-12.7,27.7-7.3c0,0,31.8,78.2,27.4,100.7c-0.7,3.4-2.2,6.2-4.1,8.5
			c7,17.8,29,76.4,25.3,95.3c-0.7,3.4,17.8,7.1,18.5,4.9c4.1-12.7,1.3-86,10.5-106.3c-3.5-2.8-5.3-6.3-4.1-10
			c4.7-14.5,0.3-108.2,15.2-111.3c14.9-3.2,29.8-6.3,31.2,0.1c0,0,11.8,92.1,1,114.6c-1.6,3.4-4,5.9-6.7,7.9
			c2.4,21.1,9.4,89.3,0.3,108.3c-1.2,2.5,3.3,6.5,7.2,6.5c5.1,0,14.3-0.7,14.8-1.7c6-11.4,17.2-82.6,29-100.1
			c-2.5-3.4-3.5-7.1-1.7-10.4c6.8-13,20.4-104,34.1-104c13.6,0,27.3,0,27.3,6.5c0,0-6.8,91-20.4,110.6c-2,2.9-4.6,4.9-7.3,6.2
			c-1.8,20.8-8.5,87.9-19.9,104.3c-3.2,4.6,0.9,39.7,0.9,58.4c16.9-22.4,39.6-53.4,48.2-49.8c12.6,5.2,25.2,10.3,23,15.6
			c0,0-35.7,69.6-54.9,81.3c0.2,0.7,0.3,1.5,0,2.2c0,0-36.5,71.1-55.6,81.7c-1.3,0.7-2.5,1.2-3.8,1.6c-13.1,16.6-27,26.2-40.4,31.4"
			/>
		<path class="st1" d="M936.6,482.3c-2.3-2-4.6-4.3-6.9-6.7"/>
		<path id="XMLID_6292_" class="st1" d="M954.3,548.7c0,0-122.2-82.2,0-88.4"/>
		<path class="st1" d="M1073.8,63.4c0,0,5.1-15.2-5.1-15.2s-20.3-5.1-20.3,10.2s10.2,15.2,10.2,15.2S1068.7,78.7,1073.8,63.4z"/>
		<path class="st1" d="M1173.4,87.8c0,0,5.1-15.2-5.1-15.2s-20.3-5.1-20.3,10.2s10.2,15.2,10.2,15.2S1168.3,103.1,1173.4,87.8z"/>
		<path class="st1" d="M913.2,152.9c0,0,5.1-15.2-5.1-15.2c-10.2,0-20.3-5.1-20.3,10.2c0,15.2,10.2,15.2,10.2,15.2
			S908.1,168.1,913.2,152.9z"/>
		<path class="st1" d="M962.4,83c0,0,6.1-18.3-6.1-18.3s-24.5-6.2-24.5,12.2S944,95.2,944,95.2S956.3,101.3,962.4,83z"/>
		<path class="st1" d="M1205.9,315.7c0,0,5-15.1-5-15.1s-20.1-5-20.1,10.1s10.1,15.1,10.1,15.1S1200.8,330.8,1205.9,315.7z"/>
		<path id="XMLID_6291_" class="st1" d="M942.5,299.5c0,0-18.9,31.6-22.1,1.2"/>
		<path id="XMLID_6290_" class="st1" d="M993.6,301.4c0,0-18.9,31.6-22.1,1.2"/>
		<path id="XMLID_6289_" class="st1" d="M1048.2,299.5c0,0-18.9,31.6-22.1,1.2"/>
		<path id="XMLID_6288_" class="st1" d="M1099.3,301.4c0,0-18.9,31.6-22.1,1.2"/>
		<path id="XMLID_6287_" class="st1" d="M1150.2,364.6c0,0,30.2,57-18.3,34.1"/>
		<path id="XMLID_6286_" class="st1" d="M1131.9,199.9c-3.7,0.9-7-1.9-8.1-13.1"/>
		<path id="XMLID_6285_" class="st1" d="M1056,177.5c-3.7-1.5-8.2-3.6-13.6-6.4"/>
		<path id="XMLID_6284_" class="st1" d="M953,178.7"/>
		<path id="XMLID_6283_" class="st1" d="M961.1,191.8c-2.8,0.7-5.3-0.7-6.9-6.1"/>
		<path id="XMLID_6282_" class="st1" d="M906.4,218.2"/>
		<path id="XMLID_6281_" class="st1" d="M912.3,226.8c-2.9,0.8-6.2,1.2-7.6-0.4"/>
	</g>
	<g>
		<path id="XMLID_6280_" class="st2" d="M915.9,2216.6c14.6-312.3,27.4-695.9,37.5-895.2c18.3-361.1-10.3-891.5-10.3-891.5
			l151.7,12.9c0,0-31,936.7,0,1133.4c22.2,141-16.8,663.1-29.2,967.5"/>
		<path class="st2" d="M951,453.5c-18.2-19.8-33.7-53.5-33.7-111c0-26.7-4.2-67.6-2.7-72.9c2.5-8.9,0.1-58.2,4.9-76.6
			c-5.6-2.2-9.5-6.3-8.3-10.7c3.1-10.9-1.2-81.3,9.1-83.5s20.6-4.4,21.6,0.5c0,0,9.2,67.9,2.4,85.6c0.5,0.4,0.9,0.9,1,1.6
			c0,0,5.3,39.3,4.9,65.9c9.3-5.6,20.2-8.4,32.3-9.5c0.4-12.8-18.7-75.9-15.2-95.7c-3.8-1.6-6.2-4.3-5.9-7.8
			c0.8-13.9-24.7-95.3-12.2-101.7c12.5-6.3,25-12.7,27.7-7.3c0,0,31.8,78.2,27.4,100.7c-0.7,3.4-2.2,6.2-4.1,8.5
			c7,17.8,29,76.4,25.3,95.3c-0.7,3.4,17.8,7.1,18.5,4.9c4.1-12.7,1.3-86,10.5-106.3c-3.5-2.8-5.3-6.3-4.1-10
			c4.7-14.5,0.3-108.2,15.2-111.3c14.9-3.2,29.8-6.3,31.2,0.1c0,0,11.8,92.1,1,114.6c-1.6,3.4-4,5.9-6.7,7.9
			c2.4,21.1,9.4,89.3,0.3,108.3c-1.2,2.5,3.3,6.5,7.2,6.5c5.1,0,14.3-0.7,14.8-1.7c6-11.4,17.2-82.6,29-100.1
			c-2.5-3.4-3.5-7.1-1.7-10.4c6.8-13,20.4-104,34.1-104c13.6,0,27.3,0,27.3,6.5c0,0-6.8,91-20.4,110.6c-2,2.9-4.6,4.9-7.3,6.2
			c-1.8,20.8-8.5,87.9-19.9,104.3c-3.2,4.6,0.9,39.7,0.9,58.4c16.9-22.4,39.6-53.4,48.2-49.8c12.6,5.2,25.2,10.3,23,15.6
			c0,0-35.7,69.6-54.9,81.3c0.2,0.7,0.3,1.5,0,2.2c0,0-36.5,71.1-55.6,81.7c-1.3,0.7-2.5,1.2-3.8,1.6c-13.1,16.6-27,26.2-40.4,31.4"
			/>
		<path class="st2" d="M957.9,460.3c-2.3-2-4.6-4.3-6.9-6.7"/>
		<path id="XMLID_6279_" class="st2" d="M975.6,526.7c0,0-122.2-82.2,0-88.4"/>
		<path class="st3" d="M1092.9,27.9c0,0,4.3-15.5-5.8-15c-10.1,0.5-20.5-4.1-19.8,11.1c0.7,15.2,10.9,14.7,10.9,14.7
			S1088.6,43.3,1092.9,27.9z"/>
		<path class="st3" d="M1196.8,54.8c0,0,5.1-15.2-5.1-15.2s-20.3-5.1-20.3,10.2s10.1,15.2,10.1,15.2S1191.7,70.1,1196.8,54.8z"/>
		<path class="st3" d="M936.5,113.9c0,0,5.1-15.2-5.1-15.2c-10.2,0-20.3-5.1-20.3,10.2s10.2,15.2,10.2,15.2S931.4,129.1,936.5,113.9
			z"/>
		<path class="st3" d="M981,47.9c0,0,0.9-19.3-10.9-16c-11.8,3.3-25.2,0.8-20.2,18.5s16.8,14.3,16.8,14.3S980.1,67.2,981,47.9z"/>
		<path class="st3" d="M1220,294.9c0,0,9.1-13.1-0.6-15.9c-9.7-2.8-17.9-10.5-22.2,4c-4.3,14.5,5.4,17.3,5.4,17.3
			S1210.9,308,1220,294.9z"/>
		<path id="XMLID_6278_" class="st2" d="M963.8,277.5c0,0-18.9,31.6-22.1,1.2"/>
		<path id="XMLID_6276_" class="st2" d="M1015,279.4c0,0-18.9,31.6-22.1,1.2"/>
		<path id="XMLID_6273_" class="st2" d="M1069.6,277.5c0,0-18.9,31.6-22.1,1.2"/>
		<path id="XMLID_6272_" class="st2" d="M1120.7,279.4c0,0-18.9,31.6-22.1,1.2"/>
		<path id="XMLID_6271_" class="st2" d="M1171.5,342.6c0,0,30.2,57-18.3,34.1"/>
		<path id="XMLID_6270_" class="st2" d="M1153.2,177.9c-3.7,0.9-7-1.9-8.1-13.1"/>
		<path id="XMLID_6269_" class="st2" d="M1077.3,155.5c-3.7-1.5-8.2-3.6-13.6-6.4"/>
		<path id="XMLID_6268_" class="st2" d="M974.3,156.7"/>
		<path id="XMLID_6267_" class="st2" d="M982.4,169.8c-2.8,0.7-5.3-0.7-6.9-6.1"/>
		<path id="XMLID_6266_" class="st2" d="M927.7,196.2"/>
		<path id="XMLID_6265_" class="st2" d="M933.6,204.8c-2.9,0.8-6.2,1.2-7.6-0.4"/>
		<path id="XMLID_6264_" class="st2" d="M1186.6,79.3c-2,3.2-6.3,3.5-14.9-3.8"/>
		<path id="XMLID_6263_" class="st2" d="M1086,52.4c-4,0.3-8.9,0.4-15,0.2"/>
		<path id="XMLID_6262_" class="st2" d="M978.5,72.5c-1.5,2.4-4.2,3.2-9.2,0.5"/>
		<path id="XMLID_6261_" class="st2" d="M928.6,132.8c-2.9,0.8-6.2,1.2-7.6-0.4"/>
	</g>
	<path id="XMLID_6260_" class="st4" d="M978.8,210.6c1-0.2,41.2-5.8,44.8-5.7c0.5,0,1.8,0.6,2.6,1.3c1.1,1,2.6,2.5,3.2,4.3
		c0.1,0.2,1.2,7.8,1.2,8c0.5,2.3-0.6,4.9-5.4,7.3c-3.6,1.7-44.8,6.5-45.7,6.6c-2.8,0.3-4.5-1.5-5.1-3.9c-0.4-1.5-1.2-7.3-1.3-8.8
		C972.8,216,974.7,211.5,978.8,210.6z"/>
	<path id="XMLID_6259_" class="st4" d="M977.7,228.1c0,0-0.4,1.4,0.6,1.8"/>
	<path id="XMLID_6258_" class="st4" d="M1022.7,206.9c0,0,1.7,0.5,2.2,1.2"/>
</g>
</svg>
