<?xml version="1.0" encoding="utf-8"?>
<!-- Generator: Adobe Illustrator 22.1.0, SVG Export Plug-In . SVG Version: 6.00 Build 0)  -->
<svg version="1.1" id="Layer_1" xmlns="http://www.w3.org/2000/svg" xmlns:xlink="http://www.w3.org/1999/xlink" x="0px" y="0px"
	 viewBox="0 0 347.2 675.2" style="enable-background:new 0 0 347.2 675.2;" xml:space="preserve">
<style type="text/css">
	.st0{fill:#A36B78;stroke:#584C4F;stroke-width:2;stroke-linecap:round;stroke-miterlimit:10;}
	.st1{fill:#A36B78;stroke:#584C4F;stroke-width:2;stroke-linecap:round;stroke-linejoin:round;stroke-miterlimit:10;}
	.st2{fill:#FFD767;stroke:#584C4F;stroke-width:2;stroke-miterlimit:10;}
	.st3{fill:#A36B78;}
	.st4{fill:none;stroke:#584C4F;stroke-width:2;stroke-linecap:round;stroke-miterlimit:10;}
	.st5{fill:#BEAB72;}
	.st6{fill:#584C4F;stroke:#584C4F;stroke-width:2;stroke-linecap:round;stroke-miterlimit:10;}
	.st7{opacity:0.1;fill:#231F20;stroke:#231F20;stroke-miterlimit:10;enable-background:new    ;}
	.st8{fill:#FFFFFF;stroke:#584C4F;stroke-width:2;stroke-linecap:round;stroke-miterlimit:10;}
</style>
<g id="Layer_5">
</g>
<g id="Layer_3">
</g>
<g>
	<g>
		<path class="st0" d="M147.6,629.3c-0.6,1.2-0.7,2.3-0.1,3.7c0.1,0.3,0.3,0.6,0.5,1c0.7,1.3,2.2,2.5,4.2,3.9c1.6,1,3.4,2,5.4,3.1
			c1.3,0.7,2.6,1.3,4.1,2c1.1,0.6,2.3,1.1,3.4,1.6c1.2,0.5,2.4,0.9,3.5,1.3c1.5,0.6,2.9,1,4.3,1.5c2.2,0.7,4.2,1.2,6,1.6
			c2.3,0.5,4.3,0.6,5.7,0.3c0.4,0,0.8-0.2,1.1-0.3c1.1-0.5,1.8-1.1,2.2-1.9c-6.8-6.8-11.3-15.5-8.9-26.2c-0.6-1.3-1-2.1-1-2.1
			s0-0.4-0.2-0.9c0-0.1,0-0.3-0.1-0.4v-0.2c0.1-0.6,0.3-1.3,0.6-2.4l-0.8-0.4l-0.8-0.3l-14.6-4.6c-1.6,3.5-2.6,5.8-2.8,6.3
			c0,0.1,0,0.1,0,0.1s0,0.1,0.1,0.1c-2.1,2.8-4.1,4.9-5.9,6.7c-1.9,1.9-3.6,3.4-4.8,4.8C148.2,628.2,147.8,628.8,147.6,629.3z"/>
		<path class="st0" d="M160.8,614.1l16.2,5.1c0,0,15.3-40.6,29.2-74.5c5.5-13.5,10.8-25.9,14.9-34.3c0-0.4,0.1-0.8,0.1-1.2
			c1-1.1,1.4-6,1.1-16.9l0,0c0-4.4-0.1-9.3-0.2-14.5c0-5.1,0-10.3,0.1-15.6c0.4-41.5,3.3-86.9,3.3-86.9l-28.1,6.5
			c2.9,4.6,5.4,79.3,7.4,127.7c-1.7,4.9-3.3,9.3-4.7,13.1C186.6,560.6,161,614,160.8,614.1z"/>
		<g>
			<g id="XMLID_9162_">
				<path id="XMLID_9163_" class="st0" d="M194.6,656.3c-0.2-5.4,5.2-2.5,5.2-2.5C203.2,658.9,194.8,661.6,194.6,656.3z"/>
			</g>
			<g id="XMLID_9160_">
				<path id="XMLID_9161_" class="st0" d="M191.1,654.6c-0.1-5.9,5.8-2.7,5.8-2.7C200.7,657.5,191.3,660.5,191.1,654.6z"/>
			</g>
			<g id="XMLID_9158_">
				<path id="XMLID_9159_" class="st0" d="M186.7,652.4c-0.2-6.9,6.7-3.2,6.7-3.2C197.8,655.7,186.9,659.3,186.7,652.4z"/>
			</g>
			<g id="XMLID_9156_">
				<path id="XMLID_9157_" class="st0" d="M181.1,649.7c-0.2-7.9,7.7-3.7,7.7-3.7C193.8,653.6,181.3,657.6,181.1,649.7z"/>
			</g>
			<path id="XMLID_9155_" class="st0" d="M168.9,644.3c1.8-2.5,12.5-5.6,14.4,2.6s-7.6,3.5-7.6,3.5S167.1,646.8,168.9,644.3z"/>
		</g>
		<path id="XMLID_9154_" class="st0" d="M215.8,493.4c0.7-1.7,2.9-1,2.9-1"/>
		<path id="XMLID_9153_" class="st0" d="M218.8,508.9c-0.4,0.5-3.2,0.3-3.2,0.3"/>
		<g id="XMLID_9151_">
			<path id="XMLID_9152_" class="st0" d="M178.3,614.8c7.9,4.4-1.5,13.7-5.2,6.7"/>
		</g>
		<g id="XMLID_9149_">
			<path id="XMLID_9150_" class="st0" d="M223.7,498.4c9,1,4.1,13.1-2.1,8.3"/>
		</g>
	</g>
	<g>
		<g>
			<g id="XMLID_9147_">
				<path id="XMLID_9148_" class="st0" d="M228.7,300.9c8.7-2.5,8.8,10.6,1.2,8.5"/>
			</g>
			<path id="XMLID_9146_" class="st0" d="M218.6,177.6c-1.4,33.9-5.6,92.1-3.2,107.8c3.4,22,0,126.4,0,126.4l16.9,1.5
				c0,0-3.3-59.2-1.2-99.4c1.1-22.2,2.5-65,4.2-99.8"/>
			<g id="XMLID_9144_">
				<path id="XMLID_9145_" class="st0" d="M230.7,410c3.3-1.1,4.1,12.1,4.1,12.1s1.9,42.3-1.7,24.3c-3.5-18-5.3-16.1-3.6,5.4
					c1.6,21.6-7.5-22-8.8-15.1c-1.3,6.9-5.7,50.9-5.7-4.1c0,0,4.1-25.6-6.4,14.5s2.3-25.1,3.1-28.5s-12.9,19.5-9.1,10.1
					s5.9-11.8,12.8-19"/>
			</g>
			<path id="XMLID_9143_" class="st0" d="M221.9,302.6c0.2-0.6,3-1.2,3-1.2"/>
			<path id="XMLID_9142_" class="st0" d="M228.1,306.6c-0.6,1.8-2.8,1.4-2.8,1.4"/>
			<path id="XMLID_9141_" class="st1" d="M228.7,408c13.6-0.8,0-9.9,0-9.9"/>
		</g>
		<path id="XMLID_9140_" class="st2" d="M213.2,177.1c9.1,2.5,16.7,5.2,18.7,8.1c5.5,8.1,12.2,97.9-1.5,98.4s-15.6-0.1-15.3-5
			s-6-61.3-3.8-65.5"/>
		<path class="st0" d="M121.8,382.3c0,0,0.1,0,0.2,0c0.5,4.1,2,8.5,4.4,13c0,0,1.3,15.3,51.4,14.5c30.7-0.5,50.1-15.5,53.2-32.5h0.1
			c0.1-0.2,0.1-0.5,0.2-0.9c0.1-1,0.1-2.1,0.2-3.1c0.8-11.1,1.3-40.6,1.3-40.6l-111.1,4.1C119.8,345.7,121.8,382.3,121.8,382.3z"/>
		<g>
			<path class="st2" d="M130.8,363.7c2.3-0.5,5.2-1,8.4-1.5l77.2-4c4-0.1,9.4,1.2,9.4,1.2c4.4,2.3,7.1,1.4,8.7-1.4
				c0.1-0.1,0.1-0.2,0.2-0.3c4.1-8,0.2-29.4-3-37.9c-0.2-0.5-0.4-1.2-0.6-2c-3.7-15.6-3.7-74.4-2.3-110.6c0.1-3.9,0.1-7.3-0.1-10.4
				c-1.4-26.8-28.8-27.1-46.6-27.9c-18.8-0.8-32.5,3-39.2,8.6c-3.5,1-8.8,3-13,6.2c-3.1,2.3-5.6,5.3-6.4,9c-0.1,0.4-0.1,0.9-0.2,1.3
				c-1.5,13.2-4.5,93.7-5.9,101c-0.3,1.4-1,5.9-1.9,11.9c-0.1,0.7-0.2,1.4-0.3,2.2C111.9,334,108.5,380.2,130.8,363.7z"/>
			<path class="st2" d="M225.7,359.3c4.4,2.3,7.1,1.4,8.7-1.4c0.1-0.1,0.1-0.2,0.2-0.3c4.1-8,0.2-29.4-3-37.9
				c-0.2-0.5-0.4-1.2-0.6-2c-3.7-15.6-3.7-74.4-2.3-110.6c0-0.9,0.1-1.7,0.1-2.6"/>
			<path class="st2" d="M227.9,190.8c-5-20.9-29.4-21.2-45.8-21.9c-18.8-0.8-32.5,3-39.2,8.6c-3.5,1-8.8,3-13,6.2
				c-3.1,2.3-5.6,5.3-6.4,9c-0.1,0.4-0.1,0.9-0.2,1.3c-1.5,13.2-4.5,93.7-5.9,101c-0.3,1.4-1,5.9-1.9,11.9c-0.1,0.7-0.2,1.4-0.3,2.2
				c-3.3,24.8-6.7,71,15.6,54.5c2.3-0.5,5.2-1,8.4-1.5l77.2-4"/>
		</g>
		<path id="XMLID_9139_" class="st0" d="M125.4,358.7c3.6-13.7-5.1-107.3-5.1-107.3"/>
		<g>
			<path id="XMLID_9138_" class="st3" d="M163.6,176.6c9.6,21.2,33.7,8.3,33.8-8c0-2.9,0-14.1,0.1-17.5c0.1-2.6,0.5-17.7-3-25.5
				c-11.2-25-42.7-2.7-31.3,16.8c-0.6,2.2-1,4.7-1.2,7.6c-0.2,3.2-1.3,13.2-1.1,16.6"/>
			<path id="XMLID_9137_" class="st4" d="M165.4,179.9c-0.5-0.9-1.1-2-1.6-3.1l-2.8-10.1c-0.3-3.5,0.9-13.4,1.1-16.6
				c0.1-3,0.6-5.5,1.2-7.6c-11.4-19.5,20.1-41.8,31.3-16.8c3.5,7.8,3.1,22.9,3,25.5c-0.1,3.4-0.2,14.6-0.2,17.5
				c0,13.7-17.3,25.1-28.4,15.5"/>
		</g>
		<g>
			<g id="XMLID_9135_">
				<path id="XMLID_9136_" class="st0" d="M126.2,309.6c-9-1.1-3.9-13.2,2.2-8.2"/>
			</g>
			<path id="XMLID_9134_" class="st0" d="M138.5,200.2c1.7,32.8,4.1,72.6,2.1,85.2c-3.4,22,0,126.4,0,126.4l-16.9,1.5
				c0,0,3.2-59.2,1.1-99.4c-1-18.4-2.1-51-3.4-81.4"/>
			<path id="XMLID_9133_" class="st0" d="M129.2,303.7c0-1.9,2.3-2,2.3-2"/>
			<path id="XMLID_9132_" class="st0" d="M135.1,306.6c-0.2,0.6-2.9,1.5-2.9,1.5"/>
			<g id="XMLID_9018_">
				<path id="XMLID_9131_" class="st3" d="M140.6,411l-16.2-3.8c0,0-21.4,35-14.1,35.1c3.9,0.1,5.3-0.9,5.9-1.9
					c-0.5,3.3-0.8,9.4,4.8,6.5l0.1-1.5c1.3,2.1,5.5,8.4,8.9,2l1.1-0.5c2.5,2.1,7.7,5.3,6.9-5.5c1.5,0.1,3.5,0,6.4-0.8
					C159.2,436.9,140.6,411,140.6,411z"/>
				<path id="XMLID_9069_" class="st0" d="M124.4,407.2c0,0-21.4,35-14.1,35.1c3.9,0.1,5.3-0.9,5.9-1.9c-0.5,3.3-0.8,9.4,4.8,6.5
					l0.1-1.5c1.3,2.1,5.5,8.4,8.9,2l1.1-0.5c2.5,2.1,7.7,5.3,6.9-5.5c1.5,0.1,3.5,0,6.4-0.8c14.8-3.7-3.8-29.6-3.8-29.6"/>
				<g id="XMLID_9022_">
					<g id="XMLID_9025_">
						<path id="XMLID_9068_" class="st1" d="M120.8,446.9c-7.5,3.8-4.4-8.4-4.4-8.4c-0.1,0.3,1.1,3.9-6.2,3.8
							c-7.3-0.1,14.1-35.1,14.1-35.1"/>
						<path id="XMLID_9067_" class="st1" d="M130.2,446.9c-4.2,8.4-9.4-2.1-9.4-2.1"/>
						<path id="XMLID_9028_" class="st1" d="M141.2,434.4c-4.2-0.4-11.6,9.9,3.2,6.2s-3.8-29.6-3.8-29.6"/>
						<path id="XMLID_9027_" class="st1" d="M137.4,432.1l0.5,8c1.7,15.9-8.1,5.5-8.1,5.5"/>
					</g>
					<path id="XMLID_9023_" class="st1" d="M127,395.3c-10,0.8,0,10.9,0,10.9"/>
				</g>
				<path id="XMLID_9021_" class="st0" d="M130.2,439.1c0.8-2.6,0.4-7.5,0.4-7.5"/>
				<path id="XMLID_9020_" class="st0" d="M121.8,441c0.8,0,0.9-3.5,0.9-3.5"/>
				<path id="XMLID_9019_" class="st1" d="M118.3,430.4c0,0,2.9-4.8,3.6-7"/>
			</g>
		</g>
		<path id="XMLID_9017_" class="st2" d="M144.3,180c-9.1,2.5-16.8,5.2-18.7,8.1c-5.6,8.1-12.3,97.9,1.4,98.4s15.6-0.1,15.3-5
			s6-61.3,3.8-65.5"/>
		<g>
			<path class="st5" d="M151.2,217.3c0.3,6.9,4,7.2,12.1,6.1c8.2-1,3.7-16.3,2.8-21.1c-0.9-4.7-14.6,0.4-14.6,0.4
				S150.9,210.4,151.2,217.3z"/>
			<g>
				<path id="XMLID_9016_" class="st0" d="M151.2,205.9c-1-1.5,0.8-2.9,0.8-2.9"/>
				<path id="XMLID_9015_" class="st0" d="M167.7,204.8c-0.7-1.2-3.2-2.4-3.2-2.4"/>
				<path id="XMLID_9014_" class="st0" d="M151.3,210.1c-0.5,1.4,0.3,4,0.3,4"/>
				<path id="XMLID_9013_" class="st0" d="M161.3,223.4c1.3,0.3,3.9-0.8,3.9-0.8"/>
				<path id="XMLID_9012_" class="st0" d="M155.8,221.9c-1.7,0.7-2.6-1.4-2.6-1.4"/>
				<path id="XMLID_9011_" class="st0" d="M168.1,212.1c-0.5-0.5-0.9-2.4-0.9-2.4"/>
				<line id="XMLID_9010_" class="st4" x1="160.1" y1="201.7" x2="157.4" y2="201.8"/>
				<path id="XMLID_9009_" class="st0" d="M168.2,220.8c0.5-1.3-0.1-4-0.1-4"/>
			</g>
			<g>
				<path id="XMLID_9008_" class="st0" d="M198.7,386.4c1.3,1.7-0.4,4.6-0.4,4.6"/>
				<path id="XMLID_9007_" class="st0" d="M196.6,382.1c-0.3-1.4-2.2-3.4-2.2-3.4"/>
				<path id="XMLID_9006_" class="st0" d="M193.8,399.3c1-0.9,1.8-3.5,1.8-3.5"/>
			</g>
		</g>
		<g id="XMLID_8927_">
			<g id="XMLID_8981_">
				<path id="XMLID_9005_" class="st0" d="M218.3,107.7c0,0,0,5.4,6.5,7.8s11.4-17.1,11-35.2c-0.4-18.1-17.9,5.1-17.9,5.1"/>
				<path id="XMLID_9004_" class="st0" d="M232.2,81c-1.8-5-8.6,5.6-8.6,5.6"/>
				<path id="XMLID_8982_" class="st0" d="M222.8,100.4c1.7,6.5,5.4,2.6,6.8-3.2c1.5-5.9-8.6-3.2-8.6-3.2"/>
			</g>
			<path id="XMLID_8978_" class="st6" d="M163.8,12.4c8.2-2.6,1.6-8.4,1.6-8.4C158.2,1,155.6,15,163.8,12.4z"/>
			<path id="XMLID_8977_" class="st0" d="M218.1,131.4c-3.3,16.5-19.5,38.2-49.1,31.9s-27.8-17.7-35-79.6S179.2,18,179.2,18
				C245,26.2,221.4,114.9,218.1,131.4z"/>
			<path class="st7" d="M134.1,83.8c7.3,62,5.3,73.3,34.9,79.6c21,4.5,35.2-5.1,42.9-16.9c-7.8,4.9-18,7.3-30.7,4.6
				c-29.5-6.3-27.5-17.7-34.9-79.6c-2.4-20.4,1.7-34.5,8.3-44.3C142.2,35.7,130.4,52.2,134.1,83.8z"/>
			<path id="XMLID_8976_" class="st2" d="M136.6,50.4c0,0,18.5-8.8,38.1-16.7c15.5,3.8,32.4,5.3,32.4,4
				c-0.1-13.4-3.9-49.1-41.5-32.2c-8.8,2.7-18.3,8-24.2,17.2c-0.5,0.7-0.9,1.4-1.3,2.1l0,0H140c-1.8,3.4-2.7,6-2.9,8
				C135.2,38.9,136.6,50.4,136.6,50.4z"/>
			<path id="XMLID_8975_" class="st0" d="M163.2,91.8c12.1,4.3,21.5-2.7,21.5-2.7"/>
			<path id="XMLID_8974_" class="st0" d="M225.9,91.2c-3.2,1.4-18.3-1.8-18.3-1.8"/>
			<path id="XMLID_8973_" class="st0" d="M172,160.5c-2.5,4.8,5.9,8.2,18.8,5.7s6.7-8.3,6.7-8.3"/>
			<path id="XMLID_8972_" class="st2" d="M229.9,36c0,0,6.2-8.8-16.9-10.3c-23-1.4-68.6-1.3-76.2,24.7c0,0,12.4-5.5,35.9-10.7
				s43.6,3,43.6,3C226.6,40.2,229.9,36,229.9,36z"/>
			<path id="XMLID_8971_" class="st0" d="M136.8,50.4c0,0,9.1-23.7,64.2-21.2s15.3,13.5,15.3,13.5C187.8,28.3,136.8,50.4,136.8,50.4
				z"/>
			<g>
				<path id="XMLID_8970_" class="st0" d="M197.2,75.4c0.2,6.5-9.2,18.3-9.2,18.3"/>
				<g id="XMLID_8967_">
					<path id="XMLID_8969_" class="st0" d="M196.7,100c0.5,0.2,1,0.4,1.6,0.6c0.8,0.3,1.8,0.3,2.9,0.1c2-0.5,3-2.6,3.3-5.7"/>
					<path id="XMLID_8968_" class="st0" d="M203.5,90.4c-2-13.5-9.2-32.8-9.2-32.8"/>
				</g>
				<g id="XMLID_8961_">
					<path id="XMLID_8966_" class="st0" d="M203.7,107c11.1-2.3,4.2-10.4,4.2-10.4"/>
					<path id="XMLID_8965_" class="st0" d="M191.8,107c-10.5-4.2-3.1-10.4-3.1-10.4"/>
					<path id="XMLID_8964_" class="st0" d="M192.1,103.5c-1.6-0.5-2.9,0.1-1.7-1.8s2.7,0.3,3.8,0
						C195.2,101.3,193.6,103.8,192.1,103.5z"/>
					<path id="XMLID_8963_" class="st0" d="M203.5,102.6c1.2-0.7,2.4-1.2,2.8-0.9c1.1,0.9,0.6,2.6-1.5,2.7
						C204.8,104.4,202.6,103.2,203.5,102.6z"/>
					<path id="XMLID_8962_" class="st0" d="M194.5,93.1c0.5-0.8,2.7-0.7,2.7-0.7"/>
				</g>
				<path id="XMLID_8960_" class="st0" d="M219.8,105.3c-1.7-0.6-7.8-3.7-7.8-3.7"/>
				<path id="XMLID_8959_" class="st0" d="M176.5,103.2c0.7,0.1,7.8-3.3,7.8-3.3"/>
			</g>
			<path id="XMLID_8958_" class="st0" d="M154.6,72.5c-1.6-0.9-0.6-3-0.6-3"/>
			<path id="XMLID_8957_" class="st0" d="M160.6,93.1c-0.6-0.7-1-2.5-1-2.5"/>
			<path id="XMLID_8956_" class="st0" d="M159,50.5c-0.8,0,0,3.5,0,3.5"/>
			<path id="XMLID_8955_" class="st0" d="M207.2,43.2c-0.4-0.5,2.9-1,2.9-1"/>
			<path id="XMLID_8954_" class="st0" d="M185.7,47.1c0.3,0.8,4.1,1.3,4.1,1.3"/>
			<path id="XMLID_8953_" class="st0" d="M205.6,143.9c0.2-0.6,3-1.2,3-1.2"/>
			<path id="XMLID_8952_" class="st0" d="M188.6,146.3c-0.7-1.2-3.3-2.4-3.3-2.4"/>
			<path id="XMLID_8951_" class="st0" d="M211.3,82.2"/>
			<path id="XMLID_8950_" class="st0" d="M193,84.4"/>
			<line id="XMLID_8949_" class="st4" x1="164.1" y1="104.1" x2="166.8" y2="104.8"/>
			<path id="XMLID_8948_" class="st0" d="M142.9,114.1c0,0,0.3,5.3-5.9,8.3s-12.8-16.1-13.9-34.1c-1-18,18.4,3.6,18.4,3.6"/>
			<path id="XMLID_8947_" class="st0" d="M126.9,88.9c1.3-5.2,9,4.8,9,4.8"/>
			<path id="XMLID_8946_" class="st0" d="M137.9,107.4c-1.2,6.5-5.2,3-7.1-2.7s8.3-3.9,8.3-3.9"/>
			<g>
				<path id="XMLID_8945_" class="st8" d="M201,75.9c-13-28.9,22.8-25.4,22.8-25.4C253.8,70.5,214,104.8,201,75.9z"/>
				<path id="XMLID_8944_" class="st6" d="M217.4,68.7c-0.6-5.6,4.7-3.4,4.7-3.4C225.8,70.1,218,74.3,217.4,68.7z"/>
				<path id="XMLID_8943_" class="st8" d="M177.6,88.2c32.6-10.6,6.4-33.7,6.4-33.7C155.4,42.7,145,98.8,177.6,88.2z"/>
				<path id="XMLID_8942_" class="st6" d="M161,72c-0.6-5.6,4.8-3.4,4.8-3.4C169.5,73.3,161.6,77.6,161,72z"/>
				<path id="XMLID_8941_" class="st6" d="M161,57c-0.9,3,15.6,11.2,24.3,2.7s-3.4-9.9-3.4-9.9C163.5,48.9,161.9,54,161,57z"/>
				<path id="XMLID_8940_" class="st6" d="M201.9,49.3c1.2,4.5,16.5,15,25.1,4.7c8.6-10.3-10-9.3-10-9.3S200.7,44.8,201.9,49.3z"/>
				<g id="XMLID_8937_">
					<path id="XMLID_8939_" class="st0" d="M167.3,88.9c0.7,0.2,1.3,0.3,2.1,0.4c6.4,0.4,16.9-5.2,16.9-5.2
						c-7-1.9-19.1-1.1-19.1-1.1l-5.7,0.4c0,0-5.1,0.8-2.9,3.2c1,1,1.9,0.9,2.8,0.7c0.3,0,0.5-0.1,0.7-0.2
						C163.2,86.8,166.9,88.7,167.3,88.9z"/>
					<path id="XMLID_8938_" class="st0" d="M225.7,81.3c0,0,5.1,0.8,2.9,3.2c-2.3,2.4-3.1,0.1-7.2,1.3c-12.5,3.8-16.4-4.6-16.4-4.6
						c7.9-2.4,14.9-1.1,14.9-1.1L225.7,81.3z"/>
				</g>
			</g>
			<g id="XMLID_8932_">
				<path id="XMLID_8936_" class="st6" d="M220,130.7c10.7-7-8.5-9.5-8.5-9.5S209.3,137.6,220,130.7z"/>
				<path id="XMLID_8935_" class="st6" d="M201.5,119.1c1.1,3.5,14.1,11.9,21.4,3.7c7.3-8.1-8.5-7.3-8.5-7.3
					S200.4,115.6,201.5,119.1z"/>
				<path id="XMLID_8934_" class="st6" d="M173.6,132.1c0.8,2.8,14.2,4.5,15.5-5.3s-6.4-7.2-6.4-7.2
					C171.5,124.6,172.8,129.3,173.6,132.1z"/>
				<path id="XMLID_8933_" class="st6" d="M189.6,125c22.2-10.8-0.3-8-0.3-8C163.6,120.4,167.4,135.8,189.6,125z"/>
			</g>
			<g id="XMLID_8928_">
				<path id="XMLID_8931_" class="st0" d="M191.1,130.6c6.5,11.6,18.3,0,18.3,0"/>
				<path id="XMLID_8930_" class="st0" d="M201,128.7c2.5-3.5,5.7,0,5.7,0"/>
				<path id="XMLID_8929_" class="st0" d="M201,128.7c-2.4-3.5-5.6,0-5.6,0"/>
			</g>
		</g>
		<path id="XMLID_8926_" class="st0" d="M164.1,184.9c0.7,1.3,1.5,1.9,2.4,2.2"/>
		<path id="XMLID_8925_" class="st0" d="M197.1,182.2c0.8-1,1-2.1,1-2.1"/>
		<path id="XMLID_8924_" class="st0" d="M190.2,190c0.3-0.1,0.7-0.3,0.9-0.4"/>
		<path id="XMLID_8923_" class="st2" d="M219.7,225.1c-4.5,13.5-1.7,107.4-1.7,107.4"/>
	</g>
	<g>
		<path class="st0" d="M139.3,665.4c0,1.2,0.3,2.4,1.4,3.4c0.3,0.3,0.6,0.6,0.9,0.8c1.2,0.9,3,1.5,5.4,2c1.8,0.3,3.8,0.6,6.1,0.8
			c1.5,0.1,3,0.3,4.6,0.3c1.2,0.2,2.5,0.2,3.7,0.2c1.3-0.1,2.5-0.2,3.7-0.2c1.7-0.1,3.2-0.2,4.6-0.3c2.3-0.1,4.4-0.5,6.2-0.8
			c2.3-0.5,4.3-1.2,5.4-2c0.3-0.3,0.7-0.6,0.9-0.8c0.8-0.7,1.2-1.6,1.3-2.5c-8.8-3.7-16.3-10-18.2-20.8c-1-1-1.7-1.6-1.7-1.6
			s-0.2-0.3-0.6-0.7c0-0.1-0.1-0.2-0.2-0.3l-0.1-0.2c-0.1-0.5-0.2-1.3-0.3-2.4h-0.9h-0.8l-15.2,1.3c-0.1,3.9-0.2,6.4-0.2,6.9
			c0,0.1,0,0.1,0,0.1s0.1,0,0.2,0c-0.8,3.4-1.9,6.2-2.9,8.5c-1,2.5-2,4.5-2.6,6.3C139.7,664.1,139.6,664.8,139.3,665.4z"/>
		<path class="st0" d="M138.7,393.1c3.4,5.6,6.4,113.4,8.5,153.6c2,40.2-1.2,99.4-1.2,99.4l16.9-1.5c0,0-3.2-98.4-0.3-124.2
			c0.9-1.1,1.4-6,1.1-16.9l0,0c0-4.4-0.1-9.3-0.2-14.5c-0.2-44.6,3.4-102.4,3.4-102.4"/>
		<g>
			<g id="XMLID_8921_">
				<path id="XMLID_8922_" class="st0" d="M193.4,672.4c-2.3-4.9,3.8-4.3,3.8-4.3C202.3,671.4,195.5,677.2,193.4,672.4z"/>
			</g>
			<g id="XMLID_8919_">
				<path id="XMLID_8920_" class="st0" d="M189.4,672.2c-2.4-5.5,4.3-4.8,4.3-4.8C199.4,671.1,191.9,677.5,189.4,672.2z"/>
			</g>
			<g id="XMLID_8917_">
				<path id="XMLID_8918_" class="st0" d="M184.5,671.7c-2.8-6.3,5-5.5,5-5.5C196,670.6,187.3,678.1,184.5,671.7z"/>
			</g>
			<g id="XMLID_8915_">
				<path id="XMLID_8916_" class="st0" d="M178.4,671.4c-3.2-7.1,5.7-6.3,5.7-6.3C191.6,670.1,181.6,678.6,178.4,671.4z"/>
			</g>
			<path id="XMLID_8914_" class="st0" d="M165,671.1c0.7-2.9,9.4-10,14.3-3.1c4.9,6.9-5.7,6.2-5.7,6.2S164.3,674.1,165,671.1z"/>
		</g>
		<path id="XMLID_8913_" class="st0" d="M150.5,513.7c0-1.9,2.3-2,2.3-2"/>
		<path id="XMLID_8912_" class="st0" d="M159.3,526.9c-0.2,0.7-2.9,1.5-2.9,1.5"/>
		<g id="XMLID_8910_">
			<path id="XMLID_8911_" class="st0" d="M162.4,640.2c9,1.1,3.9,13.2-2.2,8.2"/>
		</g>
		<g id="XMLID_8908_">
			<path id="XMLID_8909_" class="st0" d="M159.8,515.3c8.6-2.5,8.8,10.6,1.2,8.5"/>
		</g>
	</g>
</g>
</svg>
