<?xml version="1.0" encoding="utf-8"?>
<!-- Generator: Adobe Illustrator 22.1.0, SVG Export Plug-In . SVG Version: 6.00 Build 0)  -->
<svg version="1.1" id="Layer_1" xmlns="http://www.w3.org/2000/svg" xmlns:xlink="http://www.w3.org/1999/xlink" x="0px" y="0px"
	 viewBox="0 0 513 385" style="enable-background:new 0 0 513 385;" xml:space="preserve">
<style type="text/css">
	.st0{fill:#A36B78;stroke:#584C4F;stroke-width:2;stroke-linecap:round;stroke-miterlimit:10;}
	.st1{fill:#B66C7E;stroke:#584C4F;stroke-width:2;stroke-miterlimit:10;}
	.st2{fill:#FFFAF2;stroke:#584C4F;stroke-width:2;stroke-miterlimit:10;}
</style>
<g>
	<g>
		<g>
			<path id="XMLID_17409_" class="st0" d="M-152.6,151.4c33.2,2.1,73.9,4.1,95.1,5.5c38.3,2.5,94.8,0.4,94.8,0.4l-1.6,16.1
				c0,0-99.5-4.8-120.5-1.9c-15,2.1-70.4-2.9-102.8-4.7"/>
			<path class="st0" d="M34.8,158c2.1-1.9,5.8-3.5,11.8-3.4c2.8,0.1,7.2-0.3,7.8-0.2c1,0.3,6.2,0.1,8.1,0.6c0.2-0.6,0.7-1,1.2-0.9
				c1.2,0.4,8.7,0,8.8,1.1c0.2,1.1,0.4,2.2-0.1,2.3c0,0-7.2,0.9-9.1,0.1c-0.1,0.1-0.1,0.1-0.2,0.1c0,0-4.2,0.5-7,0.4
				c0.6,1,0.8,2.2,1,3.5c1.3,0.1,8.1-1.9,10.2-1.5c0.2-0.4,0.5-0.6,0.8-0.6c1.5,0.1,10.2-2.5,10.8-1.1c0.7,1.4,1.3,2.7,0.7,3
				c0,0-8.4,3.2-10.8,2.8c-0.3-0.1-0.7-0.2-0.9-0.5c-1.9,0.7-8.2,3-10.2,2.5c-0.3-0.1-0.8,1.9-0.5,1.9c1.3,0.4,9.2,0.3,11.3,1.3
				c0.3-0.4,0.7-0.6,1.1-0.4c1.5,0.5,11.5,0.2,11.8,1.8c0.3,1.6,0.6,3.2-0.1,3.3c0,0-9.8,1.1-12.2-0.1c-0.3-0.2-0.6-0.4-0.8-0.7
				c-2.2,0.2-9.5,0.9-11.5-0.1c-0.3-0.1-0.7,0.3-0.7,0.8c0,0.6,0,1.5,0.2,1.6c1.2,0.7,8.7,2,10.6,3.2c0.4-0.2,0.8-0.3,1.1-0.2
				c1.4,0.8,11,2.4,11,3.8s-0.1,2.9-0.7,2.9c0,0-9.7-0.9-11.7-2.4c-0.3-0.2-0.5-0.5-0.7-0.8c-2.2-0.2-9.3-1.1-11-2.3
				c-0.5-0.4-4.2,0-6.2,0c2.3,1.8,5.6,4.3,5.2,5.2c-0.6,1.3-1.1,2.7-1.7,2.4c0,0-7.3-3.9-8.5-6c-0.1,0-0.2,0-0.2,0c0,0-7.5-4-8.6-6
				c-0.1-0.2-0.1-0.3-0.2-0.4c-1.8-1.4-2.8-2.9-3.3-4.3"/>
			<path class="st0" d="M34,158.7c0.2-0.2,0.5-0.5,0.7-0.7"/>
			<path id="XMLID_17408_" class="st0" d="M26.9,160.5c0,0,9-12.8,9.4,0.2"/>
			<path class="st1" d="M79.8,173.8c0,0,1.7,0.5,1.6-0.6c0-1.1,0.5-2.2-1.2-2.1c-1.6,0.1-1.6,1.1-1.6,1.1S78.1,173.3,79.8,173.8z"/>
			<path class="st1" d="M76.7,184.8c0,0,1.6,0.6,1.6-0.5c0-1.1,0.6-2.1-1.1-2.2c-1.6,0-1.6,1-1.6,1S75.1,184.2,76.7,184.8z"/>
			<path class="st1" d="M70.9,157c0,0,1.6,0.6,1.6-0.5c0-1.1,0.6-2.1-1.1-2.2c-1.6,0-1.6,1.1-1.6,1.1S69.3,156.5,70.9,157z"/>
			<path class="st1" d="M77.8,161.9c0,0,2.1,0.1,1.7-1.1c-0.3-1.2-0.1-2.7-1.9-2.2c-1.9,0.5-1.6,1.8-1.6,1.8S75.8,161.8,77.8,161.9z
				"/>
			<path class="st1" d="M51.2,186.9c0,0,1.4,1,1.7-0.1c0.3-1,1.2-1.9-0.4-2.4c-1.5-0.5-1.8,0.6-1.8,0.6S49.8,185.9,51.2,186.9z"/>
			<path id="XMLID_17407_" class="st0" d="M53.4,159.7c0,0-3.3-2.1-0.1-2.4"/>
			<path id="XMLID_17406_" class="st0" d="M53.2,165.1c0,0-3.3-2.1-0.1-2.4"/>
			<path id="XMLID_17405_" class="st0" d="M53.3,170.9c0,0-3.3-2.1-0.1-2.4"/>
			<path id="XMLID_17404_" class="st0" d="M53,176.4c0,0-3.3-2.1-0.1-2.4"/>
			<path id="XMLID_17403_" class="st0" d="M46.2,181.6c0,0-6.1,3.1-3.6-2"/>
			<path id="XMLID_17402_" class="st0" d="M63.7,180c-0.1-0.4,0.2-0.8,1.4-0.9"/>
			<path id="XMLID_17401_" class="st0" d="M66.2,171.9c0.2-0.4,0.4-0.9,0.7-1.4"/>
			<path id="XMLID_17400_" class="st0" d="M66.3,161"/>
			<path id="XMLID_17399_" class="st0" d="M64.9,161.8c-0.1-0.3,0.1-0.5,0.7-0.7"/>
			<path id="XMLID_17398_" class="st0" d="M62.1,156"/>
			<path id="XMLID_17397_" class="st0" d="M61.2,156.6c-0.1-0.3-0.1-0.6,0-0.8"/>
			<path id="XMLID_17396_" class="st0" d="M74.1,183.7c-0.3-0.2-0.3-0.7,0.4-1.6"/>
			<path id="XMLID_17395_" class="st0" d="M77.2,173c0-0.4,0-1,0-1.6"/>
			<path id="XMLID_17394_" class="st0" d="M75.2,161.6c-0.2-0.2-0.3-0.4-0.1-1"/>
			<path id="XMLID_17393_" class="st0" d="M68.9,156.2c-0.1-0.3-0.1-0.6,0.1-0.8"/>
		</g>
		<path id="XMLID_17392_" class="st2" d="M60.5,161.4c0,0.1,0.5,4.4,0.5,4.8c0,0-0.1,0.2-0.2,0.3c-0.1,0.1-0.3,0.3-0.5,0.3
			c0,0-0.8,0.1-0.8,0.1c-0.2,0.1-0.5-0.1-0.8-0.6c-0.2-0.4-0.6-4.8-0.6-4.9c0-0.3,0.2-0.5,0.4-0.5c0.2-0.1,0.8-0.1,1-0.1
			C60,160.7,60.4,160.9,60.5,161.4z"/>
		<path id="XMLID_17391_" class="st2" d="M58.7,161.2c0,0-0.2-0.1-0.2,0.1"/>
		<path id="XMLID_17390_" class="st2" d="M60.9,166.1c0,0,0,0.2-0.1,0.2"/>
	</g>
</g>
</svg>
