<?xml version="1.0" encoding="utf-8"?>
<!-- Generator: Adobe Illustrator 22.1.0, SVG Export Plug-In . SVG Version: 6.00 Build 0)  -->
<svg version="1.1" id="Layer_1" xmlns="http://www.w3.org/2000/svg" xmlns:xlink="http://www.w3.org/1999/xlink" x="0px" y="0px"
	 viewBox="0 0 485.4 377.3" style="enable-background:new 0 0 485.4 377.3;" xml:space="preserve">
<style type="text/css">
	.st0{opacity:0.1;fill:#231F20;stroke:#231F20;stroke-miterlimit:10;enable-background:new    ;}
	.st1{fill:#FFFAF2;stroke:#584C4F;stroke-width:2;stroke-miterlimit:10;}
	.st2{fill:none;stroke:#5B5B4B;stroke-linecap:round;stroke-miterlimit:10;}
	.st3{fill:#FFD767;stroke:#584C4F;stroke-width:2;stroke-miterlimit:10;}
	.st4{fill:none;stroke:#584C4F;stroke-width:2;stroke-linecap:round;stroke-miterlimit:10;}
	.st5{opacity:0.1;}
	.st6{fill:#231F20;stroke:#231F20;stroke-miterlimit:10;}
</style>
<g id="Layer_5">
</g>
<g id="Layer_3">
</g>
<g>
	<g>
		<g id="XMLID_5008_">
			<path id="XMLID_5028_" class="st0" d="M210.4,338.1c-1.9-0.1-72.8,0.2-79,1.4c-0.8,0.2-3,1.4-4.2,2.8c-1.7,2-3.9,5-4.5,8.3
				c-0.1,0.4-0.2,13.7-0.1,14.1c-0.3,4.1,2.2,8.4,11.2,11.3c6.6,2.1,79.1,0.1,80.8,0c4.9-0.3,7.4-3.7,7.9-8
				c0.3-2.8,0.2-12.9,0.1-15.5C222.1,346,217.6,338.6,210.4,338.1z"/>
			<path id="XMLID_5027_" class="st1" d="M200.4,328.1c-1.9-0.1-72.8,0.2-79,1.4c-0.8,0.2-3,1.4-4.2,2.8c-1.7,2-3.9,5-4.5,8.3
				c-0.1,0.4-0.2,13.7-0.1,14.1c-0.3,4.1,2.2,8.4,11.2,11.3c6.6,2.1,79.1,0.1,80.8,0c4.9-0.3,7.4-3.7,7.9-8
				c0.3-2.8,0.2-12.9,0.1-15.5C212.1,336,207.6,328.6,200.4,328.1z"/>
			<line id="XMLID_5026_" class="st2" x1="159.3" y1="328.4" x2="162" y2="329.6"/>
			<path id="XMLID_5025_" class="st1" d="M206.6,358.2c0,0,1.1,2.2-0.7,3.2"/>
			<path id="XMLID_5024_" class="st1" d="M123.4,332.8c0,0-2.7,1.3-3.6,2.6"/>
			<g id="XMLID_5021_">
				<path id="XMLID_5023_" class="st3" d="M160.1,338.5c0,0-1-4.7-5.6-3.1c-4.7,1.7-2.4,19.6-0.2,21
					C156.4,357.8,162.4,366.4,160.1,338.5z"/>
				<path id="XMLID_5022_" class="st3" d="M159,347.1c0,0,8.2-8.1,6.5,7c0,0,1.9,4.7,5.7,2.7c3.8-1.9,4.4-25.8-13.9-19.1"/>
			</g>
			<path id="XMLID_5020_" class="st0" d="M332.1,368.7c0.3-2.8,0.2-12.9,0.1-15.5c-0.3-5.8-3.8-12.1-9.6-14
				c-10.9,0.2-19.6,0.5-21.5,0.9c-0.8,0.2-3,1.4-4.2,2.8c-1.7,2-3.9,5-4.5,8.3c-0.1,0.4-0.2,13.7-0.1,14.1
				c-0.3,4.1,2.2,8.4,11.2,11.3c0.6,0.2,1.7,0.3,3.2,0.5c9.9-0.2,17.1-0.4,17.6-0.4C329.1,376.5,331.6,373,332.1,368.7z"/>
			<path id="XMLID_5019_" class="st1" d="M322.1,358.7c0.3-2.8,0.2-12.9,0.1-15.5c-0.3-5.8-3.8-12.1-9.6-14
				c-10.9,0.2-19.6,0.5-21.5,0.9c-0.8,0.2-3,1.4-4.2,2.8c-1.7,2-3.9,5-4.5,8.3c-0.1,0.4-0.2,13.7-0.1,14.1
				c-0.3,4.1,2.2,8.4,11.2,11.3c0.6,0.2,1.7,0.3,3.2,0.5c9.9-0.2,17.1-0.4,17.6-0.4C319.1,366.5,321.6,363,322.1,358.7z"/>
			<path id="XMLID_5018_" class="st4" d="M288.4,360.3c0,0,3.3,2.1,3.6,1.3"/>
			<path id="XMLID_5017_" class="st1" d="M312.6,334.3c0,0,3.1,1.9,2.5,2.3"/>
			<g id="XMLID_5014_">
				<path id="XMLID_5016_" class="st3" d="M299.1,338.1c0,0-1-4.7-5.6-3.1c-4.7,1.7-2.4,19.6-0.2,21
					C295.4,357.4,301.4,366,299.1,338.1z"/>
				<path id="XMLID_5015_" class="st3" d="M298,346.7c0,0,8.2-8.1,6.5,7c0,0,1.9,4.7,5.7,2.7c3.8-1.9,4.4-25.8-13.9-19.1"/>
			</g>
			<g id="XMLID_5010_" class="st5">
				<path id="XMLID_5013_" class="st6" d="M263.1,345.8c0,0-1.4-6-8.1-3.9c-6.7,2.1-3.4,24.9-0.3,26.6
					C257.8,370.3,266.4,381.1,263.1,345.8z"/>
				<g id="XMLID_5011_">
					<path id="XMLID_5012_" class="st6" d="M251.9,351.1c0,0-12.3-1.9-8.8,6.5s30.5,3.3,29.3-1.1C271.3,352.1,266.9,350,251.9,351.1
						z"/>
				</g>
			</g>
			<path id="XMLID_5009_" class="st1" d="M262.4,346.5c-0.8-3-3-4.9-8.9-5.5c-0.1-1.6-0.3-3.4-0.4-5.2c0,0-1.4-6-8.1-3.9
				c-2.6,0.8-3.6,4.6-3.9,9.1c-2.6-0.3-11-0.5-8.1,6.6c1.1,2.7,4.7,4,9,4.4c0.7,3.4,1.7,6,2.6,6.6c2.5,1.4,8.7,8.8,9.1-7.4
				C258.9,350.1,262.9,348.2,262.4,346.5z"/>
		</g>
	</g>
</g>
</svg>
