<?xml version="1.0" encoding="utf-8"?>
<!-- Generator: Adobe Illustrator 22.1.0, SVG Export Plug-In . SVG Version: 6.00 Build 0)  -->
<svg version="1.1" id="Layer_1" xmlns="http://www.w3.org/2000/svg" xmlns:xlink="http://www.w3.org/1999/xlink" x="0px" y="0px"
	 viewBox="0 0 513 385" style="enable-background:new 0 0 513 385;" xml:space="preserve">
<style type="text/css">
	.st0{fill:#A36B78;stroke:#584C4F;stroke-linecap:round;stroke-miterlimit:10;}
	.st1{fill:#E6C86B;stroke:#584C4F;stroke-miterlimit:10;}
	.st2{fill:#FCDE82;stroke:#584C4F;stroke-miterlimit:10;}
	.st3{fill:#FFD767;stroke:#584C4F;stroke-miterlimit:10;}
	.st4{opacity:0.1;fill:#231F20;stroke:#231F20;stroke-miterlimit:10;}
</style>
<g id="Layer_5">
</g>
<g id="Layer_3">
</g>
<g>
	<g>
		<path class="st0" d="M253.3,367.7c0,0-1.2,8.5-0.3,10.6c0.9,2.1,4.4,0.9,4-0.4s0.1-10-1.1-10.3S253.5,367.1,253.3,367.7z"/>
		<path id="XMLID_24732_" class="st0" d="M256.9,617.3c-1.8-38.4-3.4-85.6-4.6-110.1c-2.3-44.4,1.3-109.6,1.3-109.6l-18.7,1.6
			c0,0,3.8,115.2,0,139.4c-2.7,17.3,2.1,81.5,3.6,119"/>
		<path id="XMLID_24731_" class="st0" d="M249.6,414.3c0,0,15-10.1,0-10.9"/>
		<g>
			<path class="st0" d="M245.2,370.8c0,0,8.5,1.2,10.6,0.3c2.1-0.9,0.9-4.4-0.4-4c-1.3,0.4-10-0.1-10.3,1.1
				C244.9,369.4,244.6,370.7,245.2,370.8z"/>
			<path class="st0" d="M248.3,370.8c0,0-3,1-3-1s-1-4,2-4s3,2,3,2S251.3,369.8,248.3,370.8z"/>
		</g>
		<path class="st0" d="M231.6,398.6c0,0-3.3-8.6,3.3-8.6s13.1-2.9,13.1,5.8s-6.6,8.6-6.6,8.6S234.9,407.3,231.6,398.6z"/>
		<path class="st0" d="M242.7,392.5c0,0-2.8-17.1,2.8-17.1c5.6,0,11.3-5.7,11.3,11.4s-5.6,17.1-5.6,17.1S245.5,409.6,242.7,392.5z"
			/>
		<path class="st0" d="M250.9,364.2c0,0-3.9,9.6-3.4,12.4s5.4,2.7,5.3,1c-0.1-1.7,3-11.7,1.5-12.5
			C252.7,364.4,251.2,363.6,250.9,364.2z"/>
		<g>
			<path class="st0" d="M240.2,366.4c0,0,9.6,3.9,12.4,3.4c2.8-0.5,2.7-5.4,1-5.3c-1.7,0.1-11.7-3-12.5-1.5S239.6,366,240.2,366.4z"
				/>
			<path class="st0" d="M243.4,367.8c0,0-3,1-3-1s-1-4,2-4s3,2,3,2S246.4,366.8,243.4,367.8z"/>
		</g>
		<path class="st0" d="M245.5,363.6c0,0-1.5,11.3-0.1,14.1s6.4,1.4,5.8-0.4s0-13.3-1.9-13.7S245.7,362.8,245.5,363.6z"/>
		<g>
			<path class="st0" d="M234.4,368.9c0,0,11.3,1.5,14.1,0.1c2.8-1.3,1.4-6.4-0.4-5.8c-1.8,0.6-13.3,0-13.7,1.9
				C234,366.9,233.7,368.7,234.4,368.9z"/>
			<path class="st0" d="M237.2,369.6c0,0-3,1-3-1s-1-4,2-4s3,2,3,2S240.2,368.6,237.2,369.6z"/>
		</g>
		<g>
			<path class="st0" d="M230.1,385.7c0,0,7.3-8.5,7.8-11.4c0.5-2.9-4.1-4.1-4.7-2.4s-7.3,10.8-6.1,12S229.5,386.2,230.1,385.7z"/>
			<path class="st0" d="M231.7,384c0,0-1.4,2.8-2.8,1.4s-3.5-2.1-1.4-4.2c2.1-2.1,3.5-0.7,3.5-0.7S233.1,381.2,231.7,384z"/>
		</g>
		<path class="st0" d="M232.9,373.9c0,0,8.5,7.3,11.4,7.8c2.9,0.5,4.1-4.1,2.4-4.7c-1.7-0.5-10.8-7.3-12-6.1
			S232.3,373.4,232.9,373.9z"/>
		<g>
			<g id="XMLID_24724_">
				<path id="XMLID_24730_" class="st1" d="M220.3,361c0,0-1.3-6.2-7.4-4c-6.1,2.2-3.1,25.8-0.3,27.6
					C215.4,386.5,223.3,397.7,220.3,361z"/>
				<path id="XMLID_24729_" class="st1" d="M218.9,372.4c0,0,10.7-10.6,8.5,9.2c0,0,2.5,6.1,7.5,3.6c5-2.5,5.7-33.9-18.2-25.1"/>
				<path id="XMLID_24728_" class="st2" d="M231.7,362.1c0,0-1,0.5-1.3,1"/>
				<path id="XMLID_24727_" class="st2" d="M216.2,357.6c0,0-1,0.5-1.3,1"/>
				<path id="XMLID_24726_" class="st2" d="M219.5,382.5c-0.3,0.2-0.5,0.4-0.6,0.6"/>
				<path id="XMLID_24725_" class="st2" d="M236.7,376.6c0,0-0.3,0.2-0.7,0.4"/>
			</g>
			<g id="XMLID_24713_">
				<path id="XMLID_24723_" class="st3" d="M217.5,363.8c0,0-1.3-6.2-7.4-4c-6.1,2.2-3.1,25.8-0.3,27.6
					C212.7,389.2,220.6,400.4,217.5,363.8z"/>
				<path id="XMLID_24722_" class="st3" d="M216.1,375.1c0,0,10.7-10.6,8.5,9.2c0,0,2.5,6.1,7.5,3.6c5-2.5,5.7-33.9-18.2-25.1"/>
				<line id="XMLID_24721_" class="st3" x1="212.7" y1="387.1" x2="213.7" y2="387.6"/>
				<path id="XMLID_24720_" class="st3" d="M231,384.5c0,0,0.4,0.8-0.2,1.2"/>
				<path id="XMLID_24719_" class="st3" d="M233.3,374.3c0,0-0.2,0.7-0.4,1"/>
				<path id="XMLID_24718_" class="st3" d="M216.3,380.6c0,0,0.3-1.4,0-1.4"/>
				<path id="XMLID_24717_" class="st3" d="M223.9,371c0,0,1.3,0.2,1.2,0.4"/>
				<path id="XMLID_24716_" class="st3" d="M211.1,377.6c0,0,1.5-0.2,1.6-0.5"/>
				<path id="XMLID_24715_" class="st3" d="M218.9,363.1c0,0-1,0.5-1.3,1"/>
				<line id="XMLID_24714_" class="st3" x1="209.7" y1="364.7" x2="210.8" y2="364.4"/>
				<path class="st4" d="M216.8,361.9c-0.9-1.6-2.9-3.5-6.6-2.1c-1,0.4-1.8,1.3-2.3,2.6c3.5-1.1,5.3,0.7,6.2,2.3
					c18.2-4.7,20,16.3,17.1,23.6c0.3-0.1,0.7-0.2,1.1-0.4C236.9,385.4,237.8,356.5,216.8,361.9z"/>
			</g>
		</g>
		<path class="st0" d="M226.8,395.2c0,0,9.4,3,11.9,2.3c2.6-0.7,2.3-5.4,0.6-5.2c-1.6,0.2-11.3-2-11.9-0.5
			C226.8,393.4,226.2,395,226.8,395.2z"/>
		<g>
			<path class="st0" d="M228.8,381.9c0,0-3,9.4-2.3,11.9c0.7,2.6,5.4,2.3,5.2,0.6c-0.2-1.6,2-11.3,0.5-11.9
				C230.6,381.9,229,381.3,228.8,381.9z"/>
			<path class="st0" d="M228.6,382.1c0,0,1.4-2.8,2.8-1.4c1.4,1.4,3.5,2.1,1.4,4.2c-2.1,2.1-3.5,0.7-3.5,0.7
				S227.2,384.9,228.6,382.1z"/>
		</g>
	</g>
</g>
</svg>
