<?xml version="1.0" encoding="utf-8"?>
<!-- Generator: Adobe Illustrator 22.1.0, SVG Export Plug-In . SVG Version: 6.00 Build 0)  -->
<svg version="1.1" id="Layer_1" xmlns="http://www.w3.org/2000/svg" xmlns:xlink="http://www.w3.org/1999/xlink" x="0px" y="0px"
	 viewBox="0 0 212.9 291.7" style="enable-background:new 0 0 212.9 291.7;" xml:space="preserve">
<style type="text/css">
	.st0{fill:#A36B78;stroke:#584C4F;stroke-linecap:round;stroke-miterlimit:10;}
	.st1{fill:#A36B78;stroke:#584C4F;stroke-linecap:round;stroke-linejoin:round;stroke-miterlimit:10;}
	.st2{fill:#FFD767;stroke:#584C4F;stroke-miterlimit:10;}
	.st3{fill:#A36B78;}
	.st4{fill:none;stroke:#584C4F;stroke-linecap:round;stroke-miterlimit:10;}
	.st5{fill:#BEAB72;}
	.st6{fill:#584C4F;stroke:#584C4F;stroke-linecap:round;stroke-miterlimit:10;}
	.st7{opacity:0.1;fill:#231F20;stroke:#231F20;stroke-miterlimit:10;enable-background:new    ;}
	.st8{fill:#FFFFFF;stroke:#584C4F;stroke-linecap:round;stroke-miterlimit:10;}
</style>
<g id="Layer_5">
</g>
<g id="Layer_3">
</g>
<g>
	<g>
		<g id="XMLID_17204_">
			<path id="XMLID_17205_" class="st0" d="M95,227.6c0.7-2.5-3.6-2.4-2.7,0.4"/>
		</g>
		<path id="XMLID_17203_" class="st0" d="M64,225.8c11.3,0.5,25.2,1,32.5,1.4c13.1,0.7,32.3-0.4,32.3-0.4l-0.5,5.5
			c0,0-33.9-1.1-41.1,0c-5.1,0.8-24-0.6-35.1-1.1"/>
		<g id="XMLID_17201_">
			<path id="XMLID_17202_" class="st0" d="M127.6,232.3c2.4,2.3,3.1,2.9,6.2,4.1s-4.4-3.2-3.3-3c1.1,0.3,22.3,4.4,9.3,1
				s-4.7-2.1-4.7-2.1c17.9,0,3.6-1.4,1.3-1.9c-2.2-0.4,11.9-3.4,4.9-2.8c-7,0.5-7.6,0-1.8-1.2c5.8-1.2-7.9-0.6-7.9-0.6
				s-4.3,0.3-3.9,1.3"/>
		</g>
		<path id="XMLID_17200_" class="st0" d="M92.4,229.2c0,0,0.2,0.9,0.4,1"/>
		<path id="XMLID_17199_" class="st0" d="M94.5,229.1c0,0,0.1-0.7-0.4-0.9"/>
		<path id="XMLID_17198_" class="st1" d="M123.8,228c0,0,3-4.4,3.2,0"/>
	</g>
	<path id="XMLID_17197_" class="st2" d="M63.6,233.6c1.4,0.7,19.7-1.3,21.3-1.2c1.6,0.1,1.8-0.5,1.6-5c-0.2-4.5-29.4-2.3-32-0.5
		c-0.9,0.6-1.8,3.1-2.6,6.1"/>
	<g>
		<path class="st0" d="M206.5,243.8c-0.6-0.2-1.2-0.5-2-0.8c-0.8-0.3-1.7-0.7-2.7-0.9c0,0,0,0,0,0s0,0,0,0c-0.2,0-1,0-2.2,0l-0.4-5
			l0-0.3l0-0.3c0.4,0,0.6-0.1,0.8-0.1c0,0,0,0,0.1,0c0,0,0.1-0.1,0.1-0.1c0.1-0.1,0.2-0.2,0.2-0.2s0.2-0.2,0.5-0.6
			c3.5-0.6,5.6-3,6.8-5.9c0.3,0,0.6,0.2,0.8,0.4c0.1,0.1,0.2,0.2,0.2,0.3c0.3,0.4,0.5,1,0.6,1.8c0.1,0.6,0.2,1.3,0.3,2
			c0,0.5,0.1,1,0.1,1.5c0,0.4,0,0.8,0,1.2c0,0.4,0,0.8,0,1.2c0,0.5,0,1-0.1,1.5c-0.1,0.7-0.1,1.4-0.3,2c-0.2,0.8-0.4,1.4-0.6,1.8
			c-0.1,0.1-0.2,0.2-0.2,0.3c-0.3,0.3-0.7,0.5-1.1,0.4C207,243.9,206.8,243.9,206.5,243.8z"/>
		<path class="st0" d="M116.5,235.1c0,0,18.8,1.2,33.3,1.1c1.7,0,3.3-0.1,4.7-0.1h0c3.5-0.1,5.1,0,5.5,0.3c8.4,1,40.4-0.1,40.4-0.1
			l0.5,5.5c0,0-19.2-1-32.3-0.4s-48.1,1.6-49.9,2.8"/>
		<g>
			<g id="XMLID_17195_">
				<path id="XMLID_17196_" class="st0" d="M208,225.2c0,0-0.2,2,1.4,1.3C211,225.8,209.1,223.6,208,225.2z"/>
			</g>
			<g id="XMLID_17193_">
				<path id="XMLID_17194_" class="st0" d="M207.8,226.3c0,0-0.2,2.2,1.5,1.4C211.1,226.9,209,224.5,207.8,226.3z"/>
			</g>
			<g id="XMLID_17191_">
				<path id="XMLID_17192_" class="st0" d="M207.4,227.7c0,0-0.2,2.5,1.8,1.6C211.3,228.4,208.9,225.6,207.4,227.7z"/>
			</g>
			<g id="XMLID_17189_">
				<path id="XMLID_17190_" class="st0" d="M207.1,229.5c0,0-0.3,2.9,2.1,1.9C211.5,230.3,208.7,227,207.1,229.5z"/>
			</g>
			<path id="XMLID_17188_" class="st0" d="M210,232.9c0,0,0.2-3.4-2-1.9c-2.2,1.6,0,4.4,1,4.7C210,235.9,210,232.9,210,232.9z"/>
		</g>
		<path id="XMLID_17187_" class="st0" d="M157.2,239.6c0,0,0,0.7,0.7,0.7"/>
		<path id="XMLID_17186_" class="st0" d="M162.6,238.5c0,0-0.3-0.9-0.5-0.9"/>
		<g id="XMLID_17184_">
			<path id="XMLID_17185_" class="st0" d="M201.7,237.2c1.6-2-2.3-3.6-2.7-0.7"/>
		</g>
		<g id="XMLID_17182_">
			<path id="XMLID_17183_" class="st0" d="M161.1,237c0.7-2.5-3.6-2.4-2.7,0.4"/>
		</g>
	</g>
	<path class="st0" d="M103.9,262.8l-1.3-36.1c0,0,9.6,0.2,13.2,0.4c0.3,0,0.7,0,1,0.1c0.1,0,0.2,0,0.3,0l0,0
		c5.5,1,10.4,7.3,10.6,17.3c0.3,16.3-4.7,16.7-4.7,16.7c-1.5,0.8-2.9,1.3-4.2,1.4c0,0,0,0.1,0,0.1S106.8,263.4,103.9,262.8z"/>
	<g>
		<path class="st2" d="M94.9,264.9c-0.2,0-0.5-0.1-0.7-0.1c-2-0.3-3.4-0.5-3.9-0.6c-2.4-0.5-28.6-1.4-32.8-1.9c-0.1,0-0.3,0-0.4-0.1
			c-1.2-0.3-2.2-1.1-2.9-2.1c-1-1.4-1.7-3.1-2-4.2c-1.8-2.2-3-6.7-2.8-12.8c0.2-5.8,0.3-14.7,9.1-15.1c1,0,2.1-0.1,3.4,0
			c11.8,0.5,30.9,0.5,36-0.8c0.3-0.1,0.5-0.1,0.7-0.2c2.7-1,9.7-2.3,12.3-1c0,0,0.1,0,0.1,0.1c0.9,0.5,1.2,1.4,0.4,2.8
			c0,0-0.4,1.8-0.4,3.1l1.3,25.1c0.1,1.1,0.3,2,0.5,2.7C118,267.1,103,265.9,94.9,264.9z"/>
		<path class="st2" d="M60.9,227.9c0.3,0,0.6,0,0.8,0c11.8,0.5,30.9,0.5,36-0.8c0.3-0.1,0.5-0.1,0.7-0.2c2.7-1,9.7-2.3,12.3-1
			c0,0,0.1,0,0.1,0.1c0.9,0.5,1.2,1.4,0.4,2.8"/>
		<path class="st2" d="M110.8,232l1.3,25.1c0.1,1.1,0.3,2,0.5,2.7c5.4,7.3-9.7,6.1-17.7,5.1c-0.2,0-0.5-0.1-0.7-0.1
			c-2-0.3-3.4-0.5-3.9-0.6c-2.4-0.5-28.6-1.4-32.8-1.9c-0.1,0-0.3,0-0.4-0.1c-1.2-0.3-2.2-1.1-2.9-2.1c-1-1.4-1.7-3.1-2-4.2
			c-1.8-2.2-3-6.7-2.8-12.8c0.2-5.3,0.3-13.3,7.1-14.9"/>
	</g>
	<path id="XMLID_17181_" class="st0" d="M76.1,263.2c0,0,30.4-2.8,34.9-1.7"/>
	<g>
		<path id="XMLID_17180_" class="st3" d="M44.4,246.8c-0.8-0.7-2.9-3.3-3.6-4.1c-0.6-0.7-1.1-1.4-1.4-2c-7.1-1.9-5-14.2,3.3-11.1
			c2.6,1,6,4.6,6.6,5.2c0.7,0.8,3.3,3.4,4,4.1c3.7,3.8,1.1,12.3-5.9,9.6"/>
		<path id="XMLID_17179_" class="st4" d="M50.3,249c4.8-0.3,6.1-6.9,3-10.1c-0.7-0.7-3.2-3.3-4-4.1c-0.6-0.6-4-4.2-6.6-5.2
			c-8.3-3.2-10.4,9.2-3.3,11.1c0.3,0.6,0.8,1.3,1.4,2c0.7,0.8,2.7,3.3,3.6,4.1l3,1.7c0.4,0.1,0.7,0.3,1.1,0.3"/>
	</g>
	<g>
		<path class="st0" d="M116.5,255.8c0,0,18.8-1.2,33.3-1.1c1.7,0,3.3,0.1,4.7,0.1h0c3.5,0.1,5.1,0,5.5-0.3c8.4-1,40.4,0.1,40.4,0.1
			l0.5-5.5c0,0-19.2,1-32.3,0.4s-48.1-1.6-49.9-2.8"/>
		<path id="XMLID_17178_" class="st0" d="M157.8,252.8c0,0-0.6-0.4-0.3-0.9"/>
		<path id="XMLID_17177_" class="st0" d="M162.8,250.6c0,0-0.3,0.9-0.5,0.9"/>
		<g id="XMLID_17175_">
			<path id="XMLID_17176_" class="st0" d="M199.4,253.6c-1.6,2,2.3,3.6,2.7,0.7"/>
		</g>
		<g id="XMLID_17173_">
			<path id="XMLID_17174_" class="st0" d="M159.2,250.4c-1.6-2,2.3-3.6,2.7-0.7"/>
		</g>
		<g>
			<path class="st0" d="M207.5,256.3c-0.6-0.2-1.2-0.5-2-0.8c-0.8-0.3-1.7-0.7-2.7-0.9c0,0,0,0,0,0s0,0,0,0c-0.2,0-1,0-2.2,0l-0.4-5
				l0-0.3l0-0.3c0.4,0,0.6-0.1,0.8-0.1c0,0,0,0,0.1,0c0,0,0.1-0.1,0.1-0.1c0.1-0.1,0.2-0.2,0.2-0.2s0.2-0.2,0.5-0.6
				c3.5-0.6,5.6-3,6.8-5.9c0.3,0,0.6,0.2,0.8,0.4c0.1,0.1,0.2,0.2,0.2,0.3c0.3,0.4,0.5,1,0.6,1.8c0.1,0.6,0.2,1.3,0.3,2
				c0,0.5,0.1,1,0.1,1.5c0,0.4,0,0.8,0,1.2c0,0.4,0,0.8,0,1.2c0,0.5,0,1-0.1,1.5c-0.1,0.7-0.1,1.4-0.3,2c-0.2,0.8-0.4,1.4-0.6,1.8
				c-0.1,0.1-0.2,0.2-0.2,0.3c-0.3,0.3-0.7,0.5-1.1,0.4C207.9,256.4,207.7,256.3,207.5,256.3z"/>
			<g>
				<g id="XMLID_17171_">
					<path id="XMLID_17172_" class="st0" d="M209,237.6c0,0-0.2,2,1.4,1.3C211.9,238.2,210.1,236,209,237.6z"/>
				</g>
				<g id="XMLID_17169_">
					<path id="XMLID_17170_" class="st0" d="M208.8,238.8c0,0-0.2,2.2,1.5,1.4C212.1,239.4,210,236.9,208.8,238.8z"/>
				</g>
				<g id="XMLID_17167_">
					<path id="XMLID_17168_" class="st0" d="M208.4,240.2c0,0-0.2,2.5,1.8,1.6C212.2,240.9,209.8,238,208.4,240.2z"/>
				</g>
				<g id="XMLID_17165_">
					<path id="XMLID_17166_" class="st0" d="M208,241.9c0,0-0.3,2.9,2.1,1.9C212.4,242.7,209.6,239.5,208,241.9z"/>
				</g>
				<path id="XMLID_17164_" class="st0" d="M211,245.3c0,0,0.2-3.4-2-1.9c-2.2,1.6,0,4.4,1,4.7C210.9,248.4,211,245.3,211,245.3z"/>
			</g>
		</g>
	</g>
	<g>
		<path class="st5" d="M60.3,253.1c0,0-1.7-4.5-0.1-4.8c1.5-0.3,6.5-1.7,6.9,0.9c0.3,2.6,0.2,3.8-2,3.9
			C62.8,253.3,60.3,253.1,60.3,253.1z"/>
		<g>
			<path id="XMLID_17163_" class="st0" d="M60.4,252.9c0,0,0.5,0.6,0.9,0.3"/>
			<path id="XMLID_17162_" class="st0" d="M60.2,248.9c0,0,0.4-0.8,0.8-1.1"/>
			<path id="XMLID_17161_" class="st0" d="M64,253c0,0-0.9,0.2-1.3,0.1"/>
			<path id="XMLID_17160_" class="st0" d="M66.7,248.6c0,0,0.3,0.8,0.2,1.3"/>
			<path id="XMLID_17159_" class="st0" d="M66.1,252.5c0,0,0.7-0.3,0.5-0.9"/>
			<path id="XMLID_17158_" class="st0" d="M62.5,248c0,0,0.6-0.1,0.8-0.3"/>
			<line id="XMLID_17157_" class="st4" x1="60" y1="251.2" x2="60" y2="250.3"/>
			<path id="XMLID_17156_" class="st0" d="M64.8,247.7c0,0,0.9-0.2,1.3,0"/>
		</g>
		<g>
			<path id="XMLID_17155_" class="st0" d="M121.5,237.9c0,0-0.9-0.5-1.5-0.1"/>
			<path id="XMLID_17154_" class="st0" d="M117.5,239.1c0,0,0.6-0.6,1.1-0.7"/>
			<path id="XMLID_17153_" class="st0" d="M123.1,238.7c0,0,0.9,0.3,1.2,0.6"/>
		</g>
	</g>
	<g id="XMLID_17092_">
		<g id="XMLID_17149_">
			<path id="XMLID_17152_" class="st0" d="M38.8,215.1c0,0-1.3-9.4,3-5.3s7.6,9.7,5.6,10.6s-3.3-0.3-3.3-0.3"/>
			<path id="XMLID_17151_" class="st0" d="M40.4,214c0,0-0.9-4,0.7-3.3"/>
			<path id="XMLID_17150_" class="st0" d="M41.5,216.3c0,0,1.7-2.9,2.7-1.2c1,1.7,1.1,3.4-0.8,2.3"/>
		</g>
		<path id="XMLID_17148_" class="st6" d="M8,208.4c0,0,2.8-0.2,1.6,2.3C8.3,213.2,5.7,209.4,8,208.4z"/>
		<path id="XMLID_17147_" class="st0" d="M14.4,208.5c0,0-11.2,12.9,4.7,25.5c15.9,12.6,18.1,15.6,26.4,10.3s7-14.1,4-18.6
			S31.4,195.2,14.4,208.5z"/>
		<path class="st7" d="M10.9,216.2c0.7,3.8,3,7.9,8.3,12.1c15.9,12.5,18.1,15.6,26.3,10.3c3.5-2.3,5.3-5.2,6-8.1
			c0.9,4.5-0.1,9.9-6,13.7c-8.3,5.4-10.4,2.3-26.3-10.3C11.1,227.6,10,221.1,10.9,216.2z"/>
		<path id="XMLID_17146_" class="st2" d="M8.1,221.6c-0.4-0.5-0.8-1.3-1.2-2.5c0,0,0,0,0,0l0,0c-0.1-0.3-0.1-0.5-0.2-0.8
			c-0.8-3.5,0.2-6.9,1.6-9.5c4.8-12.5,13.8-5.2,17-2.1c0.3,0.3-3.9,3.9-8.4,6.5c-2.7,6.3-4.9,12.6-4.9,12.6S9.1,223.4,8.1,221.6z"/>
		<path id="XMLID_17145_" class="st0" d="M32,223.6c0,0-0.5,3.8-4.3,5.6"/>
		<path id="XMLID_17144_" class="st0" d="M37.4,218.4c0,0,4.2-2.7,4.6-3.8"/>
		<path id="XMLID_17143_" class="st0" d="M50.8,236.4c0,0,2.7-0.1,0.4,3.4c-2.4,3.6-5.1,4.7-5.6,3"/>
		<path id="XMLID_17142_" class="st2" d="M28.6,205.6c0,0-6.5,2.7-10.7,9.3s-5.8,10.7-5.8,10.7c-4.2-7.7,6.2-18.2,11.9-23.2
			c5.7-5,6.3-1.5,6.3-1.5S30.4,202.7,28.6,205.6z"/>
		<path id="XMLID_17141_" class="st0" d="M28.6,205.6c0,0,6.6-11.7-6.6,0.4s-9.9,19.6-9.9,19.6S18.8,208.9,28.6,205.6z"/>
		<g>
			<path id="XMLID_17140_" class="st0" d="M33.9,223.9c0,0-0.5-4.9-2.1-6.3"/>
			<g id="XMLID_17137_">
				<path id="XMLID_17139_" class="st0" d="M37.9,220.4c0.6,0.8,0.9,1.5,0.5,2.1c-0.2,0.3-0.4,0.5-0.7,0.6c-0.2,0.1-0.4,0.2-0.5,0.2
					"/>
				<path id="XMLID_17138_" class="st0" d="M27,214.1c0,0,6.1,2.8,9.7,5.4"/>
			</g>
			<g id="XMLID_17131_">
				<path id="XMLID_17136_" class="st0" d="M39.1,220c0,0,3.5,0.3,1.4,3.4"/>
				<path id="XMLID_17135_" class="st0" d="M34.7,224.4c0,0-0.3,3.1,3.1,1.7"/>
				<path id="XMLID_17134_" class="st0" d="M37.1,224.3c-0.2,0.3-1,0.2-0.9,0.9c0.2,0.7,0.3,0.3,0.8,0S37.3,224,37.1,224.3z"/>
				<path id="XMLID_17133_" class="st0" d="M40.2,222.5c0.5-0.5,0.2-1-0.3-1c-0.2,0-0.3,0.4-0.4,0.8
					C39.4,222.7,40.2,222.5,40.2,222.5z"/>
				<path id="XMLID_17132_" class="st0" d="M35.7,221.4c0,0-0.5,0.5-0.5,0.8"/>
			</g>
			<path id="XMLID_17130_" class="st0" d="M41.2,220.2c0,0,2.1-0.7,2.7-1"/>
			<path id="XMLID_17129_" class="st0" d="M34.4,226.2c0,0-0.9,2.4-1,2.6"/>
		</g>
		<path id="XMLID_17128_" class="st0" d="M20.5,226.1c0,0,0.3,0.7,0.8,0.6"/>
		<path id="XMLID_17127_" class="st0" d="M26.6,229.7c0,0,0.5,0.3,0.8,0.3"/>
		<path id="XMLID_17126_" class="st0" d="M18.1,221.4c0,0-1-0.6-0.8-0.8"/>
		<path id="XMLID_17125_" class="st0" d="M27.1,206.9c0,0-0.7,0.9-0.4,0.9"/>
		<path id="XMLID_17124_" class="st0" d="M23.9,213c0,0-1,0.8-1.2,0.6"/>
		<path id="XMLID_17123_" class="st0" d="M49.9,230.4c0,0-0.5,0.8-0.4,1"/>
		<path id="XMLID_17122_" class="st0" d="M44.8,236c0,0,0.9-0.3,1.3-0.2"/>
		<path id="XMLID_17121_" class="st0" d="M36.6,215.9"/>
		<path id="XMLID_17120_" class="st0" d="M32.9,220.6"/>
		<line id="XMLID_17119_" class="st4" x1="31.5" y1="231.3" x2="30.7" y2="231.8"/>
		<path id="XMLID_17118_" class="st0" d="M22.7,234.2c0,0-9.4-0.5-5,3.4s10.3,6.8,11,4.6c0.7-2.1-0.6-3.3-0.6-3.3"/>
		<path id="XMLID_17117_" class="st0" d="M21.9,235.8c0,0-4.1-0.5-3.2,1"/>
		<path id="XMLID_17116_" class="st0" d="M24.2,236.7c0,0-2.8,2-1,2.8c1.7,0.9,3.5,0.8,2.2-1"/>
		<g>
			<path id="XMLID_17115_" class="st8" d="M32.1,205.7c0,0-9,7.4,0.6,11.1C42.3,220.4,43.6,203.4,32.1,205.7z"/>
			<path id="XMLID_17114_" class="st6" d="M35.2,209.5c0,0-1.7,0.7-0.3,1.9C36.3,212.5,37.1,209.7,35.2,209.5z"/>
			<path id="XMLID_17113_" class="st8" d="M23.9,215.8c0,0,11.3-0.7,6.3,9.2C25.1,234.9,14.6,219.6,23.9,215.8z"/>
			<path id="XMLID_17112_" class="st6" d="M23,223.2c0,0-1.7,0.7-0.3,1.9C24.1,226.2,24.9,223.4,23,223.2z"/>
			<path id="XMLID_17111_" class="st6" d="M22.4,215.2c0,0,3.1-2.4,3.1,1.5c0,3.9-5.7,5.9-6.2,5C18.7,220.7,17.9,219.2,22.4,215.2z"
				/>
			<path id="XMLID_17110_" class="st6" d="M29.3,205.9c0,0,4-4.5,4.4-0.2c0.4,4.4-5.6,5.4-6.8,4.7S29.3,205.9,29.3,205.9z"/>
			<g id="XMLID_17107_">
				<path id="XMLID_17109_" class="st0" d="M26.4,228.3c0,0.1-0.1,0.1-0.1,0.2c-0.1,0.3-0.3,0.5-0.8,0.5c-1.1,0-0.1-1.4-0.1-1.4
					l1.2-1.4c0,0,2.6-3,4.6-4.2c0,0-1.1,3.7-2.7,5.1c-0.2,0.2-0.4,0.3-0.6,0.4C27.9,227.6,26.6,228,26.4,228.3z"/>
				<path id="XMLID_17108_" class="st0" d="M38.1,213.4c0,0-1.9,1.3-3.2,3.7c0,0,2.8,1,4.8-2.7c0.7-1.2,1.4-0.9,1.3-2
					c0-1.1-1.4-0.1-1.4-0.1L38.1,213.4z"/>
			</g>
		</g>
		<g id="XMLID_17102_">
			<path id="XMLID_17106_" class="st6" d="M45.6,224.8c0,0,5-3.8,4.1,0.2C48.8,229,45.6,224.8,45.6,224.8z"/>
			<path id="XMLID_17105_" class="st6" d="M44.9,222.8c0,0,3.4-3.8,3.7-0.3c0.2,3.6-4.7,4.6-5.8,4.1C41.8,226,44.9,222.8,44.9,222.8
				z"/>
			<path id="XMLID_17104_" class="st6" d="M38.6,231c0,0,1.2-2.4,3.1,0.2s-1.5,5.2-2.3,4.8S37.2,234.8,38.6,231z"/>
			<path id="XMLID_17103_" class="st6" d="M39.5,228.9c0,0,4.5-5.8,1.9,1.8C38.8,238.3,34.4,235.6,39.5,228.9z"/>
		</g>
		<g id="XMLID_17096_">
			<path id="XMLID_17101_" class="st0" d="M47.2,227.4c0,0,0,5.4-4.2,4.2"/>
			<path id="XMLID_17100_" class="st0" d="M46.2,227.6c0,0-1.5,0-1.3,1.3"/>
			<path id="XMLID_17099_" class="st0" d="M43.6,230.2c0,0,0-1.5,1.3-1.3"/>
		</g>
	</g>
	<path id="XMLID_17089_" class="st0" d="M55.2,248.2c-0.1,0.3-0.3,0.6-0.7,0.8"/>
	<path id="XMLID_17088_" class="st0" d="M52.9,237.9c0,0,0.4,0.1,0.7,0.3"/>
	<path id="XMLID_17086_" class="st0" d="M56,240.2c0,0.1,0.1,0.2,0.1,0.3"/>
	<path id="XMLID_17085_" class="st2" d="M102.5,231.5c0,0-30.5,0.9-34.9-0.6"/>
	<g>
		<path id="XMLID_16895_" class="st0" d="M110.9,287.5c0,0,3,4.4,3.2,0"/>
		<g>
			<path class="st0" d="M115.3,283.1c0,0-12.2,0.4-23.5,0.5c-4.8-4.8-9.1-9.3-10.7-11.4c-2.5-3.4-12.7-12.4-20.7-19.7l-0.2,7.9
				c8.4,7.6,18.5,17.1,23.9,22c0.4,0.4,0.9,0.8,1.4,1.3c1.5,1.4,3.1,2.9,4.6,4.4c2.1,0,4.2,0,6.3,0c10.1,0.1,19.4,0.6,19.4,0.6
				L115.3,283.1z"/>
			<g>
				<path id="XMLID_16894_" class="st0" d="M90.6,285c0,0,0.8-0.5,1-0.4"/>
				<path id="XMLID_16893_" class="st0" d="M92.1,286.7c0,0-0.4,0.6-0.9,0.3"/>
				<g id="XMLID_16891_">
					<path id="XMLID_16892_" class="st0" d="M91.3,288.1c-1.3,2.2-4.2-0.8-1.7-2.2"/>
				</g>
			</g>
			<path id="XMLID_16890_" class="st2" d="M63.8,255.2c1.5,0.3,14.5,13.4,15.7,14.4s1,1.5-1.9,4.9c-2.9,3.3-24.2-16.7-25.1-19.8
				c-0.3-1.1,0.5-3.6,1.8-6.4"/>
			<g id="XMLID_16830_">
				<path id="XMLID_16832_" class="st0" d="M112.6,283.1c2.3-2.3,3.1-2.9,6.2-4.1c3.1-1.2-4.4,3.2-3.3,3c1.1-0.3,22.3-4.4,9.3-1
					c-13,3.4-4.7,2.1-4.7,2.1c17.9,0,3.6,1.4,1.3,1.9c-2.2,0.4,11.9,3.4,4.9,2.8c-7-0.5-7.6,0-1.8,1.2s-7.9,0.5-7.9,0.5
					s-4.3-0.3-3.9-1.3"/>
			</g>
		</g>
	</g>
</g>
</svg>
