<?xml version="1.0" encoding="utf-8"?>
<!-- Generator: Adobe Illustrator 22.1.0, SVG Export Plug-In . SVG Version: 6.00 Build 0)  -->
<svg version="1.1" id="Layer_1" xmlns="http://www.w3.org/2000/svg" xmlns:xlink="http://www.w3.org/1999/xlink" x="0px" y="0px"
	 viewBox="0 0 457.8 13.6" style="enable-background:new 0 0 457.8 13.6;" xml:space="preserve">
<style type="text/css">
	.st0{fill:#FFD767;stroke:#584C4F;stroke-width:4;stroke-miterlimit:10;}
</style>
<path class="st0" d="M453.9,5.9c-3.6-2.3-15.3-3.3-29-3.5c-17.6-0.3-73.5-0.5-106.7,0.2c0,0-10.7-0.4-19,0.2
	c-13.4-0.8-50.3-0.9-82.4-0.6c-14.3,0-28.9,0.1-41.5,0.3c-2.6,0-5.8,0-8.8,0.1c-1.9-0.1-11.3-0.4-18.7,0.2
	C128.9,1.7,63.6,1.9,30.4,2.6c0,0-37-1.5-26.5,5.1c4,2.6,18.6,3.5,34.8,3.6c16.2,0,67.7,0.4,100.9-0.2c0,0,10.7,0.4,19-0.2
	c14.6,0.8,57,0.9,90.9,0.6c11.3,0,22.6-0.1,32.9-0.2c2.7,0,5.9,0,9-0.1c1.9,0.1,11.3,0.4,18.7-0.2c18.9,1.1,84.2,0.9,117.4,0.2
	C427.4,11,464.4,12.6,453.9,5.9z"/>
</svg>
