<?xml version="1.0" encoding="utf-8"?>
<!-- Generator: Adobe Illustrator 22.1.0, SVG Export Plug-In . SVG Version: 6.00 Build 0)  -->
<svg version="1.1" id="Layer_1" xmlns="http://www.w3.org/2000/svg" xmlns:xlink="http://www.w3.org/1999/xlink" x="0px" y="0px"
	 viewBox="0 0 100 100" style="enable-background:new 0 0 100 100;" xml:space="preserve">
<style type="text/css">
	.st0{opacity:0.1;enable-background:new    ;}
	.st1{fill:#231F20;stroke:#231F20;stroke-miterlimit:10;}
	.st2{fill:none;stroke:#231F20;stroke-miterlimit:10;}
	.st3{fill:#FFD767;stroke:#584C4F;stroke-width:2;stroke-miterlimit:10;}
	.st4{fill:#FFFAF2;stroke:#584C4F;stroke-width:2;stroke-miterlimit:10;}
	.st5{fill:none;stroke:#584C4F;stroke-width:2;stroke-miterlimit:10;}
</style>
<g>
	<g class="st0">
		<g>
			<path class="st1" d="M20,36.6c-4.8,5.3-8.6,10.4-3.6,15.5c1.1,1.1,5.7,5.6,6.6,6.6c3.1,3.6,10.6,7.2,25.1,10.8
				c34.3,8.6,21.4-26.2,21.4-26.2c-0.9-8.6-4-14.1-7.8-17.1c-0.8-0.7-4.6-4.8-5.9-6c-7.6-7.6-18.9-3.1-17.6,9.3
				C40.3,46.9,28.1,27.5,20,36.6z"/>
			<g id="XMLID_9_">
				<path id="XMLID_10_" class="st1" d="M69.6,43.3c0,0,12.9,34.8-21.4,26.2s-29-16.7-21-25.7s20.3,10.3,18.4-7.1
					C43.6,19.3,66.8,17.2,69.6,43.3z"/>
			</g>
		</g>
		<line id="XMLID_8_" class="st2" x1="63.8" y1="36" x2="62.7" y2="32.8"/>
		<path id="XMLID_7_" class="st1" d="M50.6,21.8c0,0-3.9-2.9-4.7-2.4"/>
		<path id="XMLID_6_" class="st1" d="M41.8,40.9c0,0-1.6-1.8-2.5-1.7"/>
	</g>
	<g>
		<g>
			<path class="st3" d="M24,40.5c-4.8,5.3-8.6,10.4-3.6,15.5c1.1,1.1,5.7,5.6,6.6,6.6c3.1,3.6,10.6,7.2,25.1,10.8
				C86.3,82,73.4,47.2,73.4,47.2c-0.9-8.6-4-14.1-7.8-17.1c-0.8-0.7-4.6-4.8-5.9-6c-7.6-7.6-18.9-3.1-17.6,9.3
				C44.3,50.8,32,31.4,24,40.5z"/>
			<g id="XMLID_4_">
				<path id="XMLID_5_" class="st4" d="M73.5,47.2c0,0,12.9,34.8-21.4,26.2s-29-16.7-21-25.7S51.4,58,49.6,40.6
					C47.5,23.2,70.7,21.1,73.5,47.2z"/>
			</g>
		</g>
		<line id="XMLID_3_" class="st5" x1="67.8" y1="39.9" x2="66.6" y2="36.7"/>
		<path id="XMLID_2_" class="st4" d="M54.6,25.7c0,0-3.9-2.9-4.7-2.4"/>
		<path id="XMLID_1_" class="st4" d="M45.8,44.8c0,0-1.6-1.8-2.5-1.7"/>
	</g>
</g>
</svg>
