<?xml version="1.0" encoding="utf-8"?>
<!-- Generator: Adobe Illustrator 22.1.0, SVG Export Plug-In . SVG Version: 6.00 Build 0)  -->
<svg version="1.1" id="Layer_1" xmlns="http://www.w3.org/2000/svg" xmlns:xlink="http://www.w3.org/1999/xlink" x="0px" y="0px"
	 viewBox="0 0 13.6 457.8" style="enable-background:new 0 0 13.6 457.8;" xml:space="preserve">
<style type="text/css">
	.st0{fill:#FFD767;stroke:#584C4F;stroke-width:4;stroke-miterlimit:10;}
</style>
<path class="st0" d="M5.9,3.9c-2.3,3.6-3.3,15.3-3.5,29c-0.3,17.6-0.5,73.5,0.2,106.7c0,0-0.4,10.7,0.2,19C2,172,1.9,208.9,2.1,241
	c0,14.3,0.1,28.9,0.3,41.5c0,2.6,0,5.8,0.1,8.8c-0.1,1.9-0.4,11.3,0.2,18.7c-1.1,18.9-0.8,84.2-0.2,117.4c0,0-1.5,37,5.1,26.5
	c2.6-4,3.5-18.6,3.6-34.8c0-16.2,0.4-67.7-0.2-100.9c0,0,0.4-10.7-0.2-19c0.8-14.6,0.9-57,0.6-90.9c0-11.3-0.1-22.6-0.2-32.9
	c0-2.7,0-5.9-0.1-9c0.1-1.9,0.4-11.3-0.2-18.7c1.1-18.9,0.9-84.2,0.2-117.4C11,30.4,12.6-6.6,5.9,3.9z"/>
</svg>
