<?xml version="1.0" encoding="utf-8"?>
<!-- Generator: Adobe Illustrator 23.0.3, SVG Export Plug-In . SVG Version: 6.00 Build 0)  -->
<svg version="1.1" id="Layer_1" xmlns="http://www.w3.org/2000/svg" xmlns:xlink="http://www.w3.org/1999/xlink" x="0px" y="0px"
	 viewBox="0 0 52.2 52.1" style="enable-background:new 0 0 52.2 52.1;" xml:space="preserve">
<style type="text/css">
	.st0{fill:#FFFFFF;}
	.st1{fill:#2C2C2C;}
</style>
<g>
	<path class="st0" d="M32.3,47.6c0.4-0.5,0.7-1.1,0.9-1.6c0.3-0.6,0.5-1.3,0.7-2c0.4-1.3,0.6-2.7,0.8-4.1c0.1-1.3,0.2-2.5,0.1-3.8
		c0-0.4-0.1-0.8-0.1-1.2c0-0.6,0-1.2,0-1.8c0.8,0,1.6-0.1,2.4-0.2c0.2,0,0.3,0,0.5,0c1.9,0.2,3.7,0.5,5.6,0.4c0.9,0,1.8-0.1,2.7-0.4
		c0.9-0.3,1.7-0.7,2.3-1.4c0.3-0.3,0.6-0.7,0.9-1.1c0.3-0.4,0.5-0.9,0.7-1.4c0.4-0.9,0.6-1.9,0.6-2.9c0-0.1,0-0.2,0-0.2
		c0-0.3,0-0.6-0.1-0.9c0,0,0,0,0,0c0.1-0.2,0.1-0.5,0.1-0.7c0,0,0,0,0,0c0-0.2,0-0.5-0.1-0.7c0-0.1,0-0.3-0.1-0.4
		c0-0.2-0.1-0.3-0.2-0.5c-0.1-0.3-0.2-0.6-0.4-0.9c-0.2-0.4-0.4-0.7-0.6-1c-0.3-0.5-0.7-0.9-1.1-1.3c-0.4-0.4-0.8-0.7-1.2-1
		c-0.4-0.3-0.9-0.5-1.3-0.7c-0.3-0.1-0.6-0.2-1-0.3c-0.5-0.1-1-0.2-1.5-0.2c-0.9-0.1-1.8-0.1-2.8-0.1c-0.8,0-1.6,0.1-2.3,0.2
		c-1.1-0.1-2.2-0.2-3.4-0.3c-0.3,0-0.6,0-1-0.1c0-0.7-0.1-1.5-0.2-2.2c0-0.2,0-0.3,0-0.5c0.2-1.9,0.5-3.7,0.4-5.6
		c0-0.9-0.1-1.8-0.4-2.7c-0.3-0.9-0.7-1.7-1.4-2.3c-0.3-0.3-0.7-0.6-1.1-0.9c-0.4-0.3-0.9-0.5-1.4-0.7c-0.9-0.4-1.9-0.6-2.9-0.6
		c-0.1,0-0.2,0-0.2,0c-0.3,0-0.6,0-0.9,0.1c0,0,0,0,0,0c-0.2-0.1-0.5-0.1-0.7-0.1c0,0,0,0,0,0c-0.2,0-0.5,0-0.7,0.1
		c-0.1,0-0.3,0-0.4,0.1c-0.2,0-0.3,0.1-0.5,0.2c-0.3,0.1-0.6,0.2-0.9,0.4c-0.4,0.2-0.7,0.4-1,0.6c-0.5,0.3-0.9,0.7-1.3,1.1
		c-0.4,0.4-0.7,0.8-1,1.2c-0.3,0.4-0.5,0.9-0.7,1.3c-0.1,0.3-0.2,0.6-0.3,1c-0.1,0.5-0.2,1-0.2,1.5c-0.1,0.9-0.1,1.8-0.1,2.8
		c0,0.8,0.1,1.6,0.2,2.3c-0.1,0.8-0.1,1.5-0.2,2.3c-1.8,0.1-3.5,0.3-5.3,0.5c-0.2,0-0.3,0.1-0.4,0.2c0,0,0,0-0.1,0
		c-0.7-0.2-1.5-0.2-2.2,0c-0.9,0.1-1.8,0.4-2.6,0.8c-0.9,0.4-1.8,1-2.5,1.7c-0.4,0.3-0.8,0.6-1.1,1c-0.4,0.4-0.7,0.8-1.1,1.3
		c-0.5,0.7-0.8,1.6-1,2.4c-0.2,0.7-0.2,1.5-0.2,2.2c0,0.4,0.1,0.7,0.2,1.1c0.1,0.4,0.2,0.7,0.4,1.1c0.3,0.6,0.6,1.1,1,1.6
		c0.4,0.5,0.9,0.9,1.5,1.3c0.5,0.4,1.1,0.7,1.6,0.9c0.6,0.3,1.3,0.5,2,0.7c1.3,0.4,2.7,0.6,4.1,0.8c1.3,0.1,2.5,0.2,3.8,0.1
		c0.3,0,0.6-0.1,1-0.1c0.1,1.8,0.3,3.6,0.5,5.4c0,0.2,0.1,0.3,0.2,0.4c0,0,0,0,0,0.1c-0.2,0.7-0.2,1.5,0,2.2
		c0.1,0.9,0.4,1.8,0.8,2.6c0.4,0.9,1,1.8,1.7,2.5c0.3,0.4,0.6,0.8,1,1.1c0.4,0.4,0.8,0.7,1.3,1.1c0.7,0.5,1.6,0.8,2.4,1
		c0.7,0.2,1.5,0.2,2.2,0.2c0.4,0,0.7-0.1,1.1-0.2c0.4-0.1,0.7-0.2,1.1-0.4c0.6-0.3,1.1-0.6,1.6-1C31.5,48.6,31.9,48.1,32.3,47.6z"/>
	<g>
		<path class="st1" d="M33.6,48.3c2.9-4.7,2.6-9.9,2.7-15.3c-0.5,0.5-1,1-1.5,1.5c4.7-0.3,10.4,1.7,14.4-1.7c2.3-2,3.2-5.5,3-8.5
			c-0.6-9.8-11.6-8.3-18.4-8.7c0.5,0.5,1,1,1.5,1.5C35,12.5,37,6.9,33.6,3c-2-2.3-5.4-3.1-8.3-3c-2.9,0.1-5.4,1.6-7.1,4
			c-2.6,3.6-1.3,8.2-1.7,12.3c0.5-0.5,1-1,1.5-1.5c-1.8,0.1-3.5,0.3-5.3,0.5c-0.3,0-1.6,0.4-0.1,0.3c-2.2,0.2-3.5-0.2-5.7,0.8
			c-3.5,1.6-6.6,4.8-7,8.8c-0.7,8.8,10.4,10.9,17,10.3c-0.5-0.5-1-1-1.5-1.5c0.1,2,0.5,4,0.7,5.9c-0.1-0.9,0,0.6,0,1.6
			c0.2,3.2,2.2,6.4,4.7,8.4C25.1,53.4,30.4,52.5,33.6,48.3c1.2-1.5-1.4-3-2.6-1.5c-4.4,5.8-11.3-0.5-11.8-5.8
			c-0.2-2.3-0.5-4.6-0.6-7c-0.1-0.7-0.6-1.6-1.5-1.5C12.4,32.9,1.5,32,3.1,24.7c1.4-6.4,9.7-6.5,14.9-6.9c0.9-0.1,1.4-0.6,1.5-1.5
			c0.4-4.7-1.1-13,5.9-13.3c8.8-0.3,6.5,8.4,6.8,14.1c0.1,0.8,0.6,1.5,1.5,1.5c5.2,0.3,14.8-1.2,15.3,6.1c0.6,9.2-8.7,6.5-14.3,6.8
			c-0.8,0-1.5,0.6-1.5,1.5c-0.1,4.8,0.4,9.5-2.3,13.8C30,48.4,32.6,49.9,33.6,48.3z"/>
	</g>
</g>
</svg>
