<?xml version="1.0" encoding="utf-8"?>
<!-- Generator: Adobe Illustrator 22.1.0, SVG Export Plug-In . SVG Version: 6.00 Build 0)  -->
<svg version="1.1" id="Layer_1" xmlns="http://www.w3.org/2000/svg" xmlns:xlink="http://www.w3.org/1999/xlink" x="0px" y="0px"
	 viewBox="0 0 1281 721.2" style="enable-background:new 0 0 1281 721.2;" xml:space="preserve">
<style type="text/css">
	.st0{fill:#A36B78;stroke:#584C4F;stroke-width:0.25;stroke-linecap:round;stroke-miterlimit:10;}
</style>
<g id="XMLID_12549_">
	<g id="XMLID_12567_">
		<line id="XMLID_12568_" class="st0" x1="641.2" y1="359.5" x2="641" y2="0.5"/>
	</g>
	<path id="XMLID_12566_" class="st0" d="M0.2,0.8l640.3,359.4L0.2,0.8z"/>
	<path id="XMLID_12565_" class="st0" d="M0.5,90.4l639.7,270.1L0.5,90.4z"/>
	<g id="XMLID_12563_">
		<path id="XMLID_12564_" class="st0" d="M0.5,180.4l639.7,180.1L0.5,180.4z"/>
	</g>
	<path id="XMLID_12562_" class="st0" d="M0.5,270.3l639.7,90.2L0.5,270.3z"/>
	<path id="XMLID_12561_" class="st0" d="M1280.5,0.8L640.2,360.2L1280.5,0.8z"/>
	<path id="XMLID_12560_" class="st0" d="M1280.2,90.4L640.5,360.5L1280.2,90.4z"/>
	<path id="XMLID_12559_" class="st0" d="M1280.2,180.4L640.5,360.5L1280.2,180.4z"/>
	<path id="XMLID_12558_" class="st0" d="M1280.2,270.3l-639.7,90.2L1280.2,270.3z"/>
	<line id="XMLID_12557_" class="st0" x1="640.5" y1="360.2" x2="800.5" y2="0.5"/>
	<line id="XMLID_12556_" class="st0" x1="960.5" y1="0.5" x2="640.5" y2="360.2"/>
	<line id="XMLID_12555_" class="st0" x1="1120.5" y1="0.5" x2="640.5" y2="360.2"/>
	<line id="XMLID_12554_" class="st0" x1="640.5" y1="360.2" x2="480.5" y2="0.5"/>
	<line id="XMLID_12553_" class="st0" x1="320.5" y1="0.5" x2="640.5" y2="360.2"/>
	<line id="XMLID_12552_" class="st0" x1="640.5" y1="360.2" x2="160.5" y2="0.5"/>
	<line id="XMLID_12551_" class="st0" x1="640.5" y1="360.2" x2="0.5" y2="315.6"/>
	<line id="XMLID_12550_" class="st0" x1="1280.5" y1="315.6" x2="640.5" y2="360.2"/>
</g>
<g id="XMLID_12527_">
	<g id="XMLID_12546_">
		<line id="XMLID_12548_" class="st0" x1="641.2" y1="361.7" x2="641" y2="720.7"/>
		<line id="XMLID_12547_" class="st0" x1="0.5" y1="361" x2="1280.5" y2="361"/>
	</g>
	<path id="XMLID_12545_" class="st0" d="M0.2,720.4L640.5,361L0.2,720.4z"/>
	<path id="XMLID_12544_" class="st0" d="M0.5,630.8l639.7-270.1L0.5,630.8z"/>
	<g id="XMLID_12542_">
		<path id="XMLID_12543_" class="st0" d="M0.5,540.9l639.7-180.1L0.5,540.9z"/>
	</g>
	<path id="XMLID_12541_" class="st0" d="M0.5,450.9l639.7-90.2L0.5,450.9z"/>
	<line id="XMLID_12540_" class="st0" x1="0.5" y1="361" x2="640.2" y2="360.7"/>
	<path id="XMLID_12539_" class="st0" d="M1280.5,720.4L640.2,361L1280.5,720.4z"/>
	<path id="XMLID_12538_" class="st0" d="M1280.2,630.8L640.5,360.7L1280.2,630.8z"/>
	<path id="XMLID_12537_" class="st0" d="M1280.2,540.9L640.5,360.7L1280.2,540.9z"/>
	<path id="XMLID_12536_" class="st0" d="M1280.2,450.9l-639.7-90.2L1280.2,450.9z"/>
	<line id="XMLID_12535_" class="st0" x1="640.5" y1="361" x2="800.5" y2="720.7"/>
	<line id="XMLID_12534_" class="st0" x1="960.5" y1="720.7" x2="640.5" y2="361"/>
	<line id="XMLID_12533_" class="st0" x1="1120.5" y1="720.7" x2="640.5" y2="361"/>
	<line id="XMLID_12532_" class="st0" x1="640.5" y1="361" x2="480.5" y2="720.7"/>
	<line id="XMLID_12531_" class="st0" x1="320.5" y1="720.7" x2="640.5" y2="361"/>
	<line id="XMLID_12530_" class="st0" x1="640.5" y1="361" x2="160.5" y2="720.7"/>
	<line id="XMLID_12529_" class="st0" x1="640.5" y1="361" x2="0.5" y2="405.6"/>
	<line id="XMLID_12528_" class="st0" x1="1280.5" y1="405.6" x2="640.5" y2="361"/>
</g>
</svg>
