<?xml version="1.0" encoding="utf-8"?>
<!-- Generator: Adobe Illustrator 22.1.0, SVG Export Plug-In . SVG Version: 6.00 Build 0)  -->
<svg version="1.1" id="Layer_1" xmlns="http://www.w3.org/2000/svg" xmlns:xlink="http://www.w3.org/1999/xlink" x="0px" y="0px"
	 viewBox="0 0 937.1 527.1" style="enable-background:new 0 0 937.1 527.1;" xml:space="preserve">
<style type="text/css">
	.st0{fill:#E6C86B;}
	.st1{fill:#E6C86B;stroke:#505050;stroke-width:0.25;stroke-miterlimit:10;}
</style>
<g>
	<g>
		<g>
			<rect id="XMLID_39731_" x="284.4" y="399.4" class="st0" width="18.3" height="36.6"/>
			<path id="XMLID_39730_" class="st1" d="M291.7,404.8c0,0,8.9-0.9,5.7,6.3C294.2,418.4,284.2,409.8,291.7,404.8z"/>
			<path id="XMLID_39729_" class="st1" d="M291.7,421.7c0,0,8.9-0.9,5.7,6.3C294.2,435.2,284.2,426.7,291.7,421.7z"/>
			<path class="st1" d="M292.8,407.3c0,0,0.4,1.2-0.4,3.3"/>
			<path class="st1" d="M294.9,407.2c0,0-0.3,2.4,0.2,3"/>
			<path class="st1" d="M292.8,428.1c0,0,0.4-1.2-0.4-3.3"/>
			<path class="st1" d="M294.9,428.2c0,0-0.3-2.4,0.2-3"/>
		</g>
		<g>
			<rect id="XMLID_39728_" x="674.7" y="402.3" class="st0" width="18.3" height="36.6"/>
			<path id="XMLID_39727_" class="st1" d="M681.9,407.7c0,0,8.9-0.9,5.7,6.3C684.4,421.3,674.4,412.8,681.9,407.7z"/>
			<path id="XMLID_39726_" class="st1" d="M681.9,424.6c0,0,8.9-0.9,5.7,6.3C684.4,438.1,674.4,429.6,681.9,424.6z"/>
			<path class="st1" d="M683,410.3c0,0,0.4,1.2-0.4,3.3"/>
			<path class="st1" d="M685.1,410.1c0,0-0.3,2.4,0.2,3"/>
			<path class="st1" d="M683,431c0,0,0.4-1.2-0.4-3.3"/>
			<path class="st1" d="M685.1,431.2c0,0-0.3-2.4,0.2-3"/>
		</g>
		<path class="st0" d="M284.4,91.9c0,0-9.5,34.4,4.4,35.1s59.3,6.6,59.3-13.2s-2.2-28.6-22-27.1C306.4,88.2,284.4,91.9,284.4,91.9z"
			/>
		<path class="st0" d="M277.8,154.1c0,0-9.5,34.4,4.4,35.1s59.3,6.6,59.3-13.2s-2.2-28.6-22-27.1S277.8,154.1,277.8,154.1z"/>
		<path class="st0" d="M528.9,108c0,0-9.5,34.4,4.4,35.1s59.3,6.6,59.3-13.2s-2.2-28.6-22-27.1S528.9,108,528.9,108z"/>
		<path class="st0" d="M622.6,153.4c0,0-9.5,34.4,4.4,35.1s59.3,6.6,59.3-13.2s-2.2-28.6-22-27.1S622.6,153.4,622.6,153.4z"/>
	</g>
</g>
</svg>
