<?xml version="1.0" encoding="utf-8"?>
<!-- Generator: Adobe Illustrator 22.1.0, SVG Export Plug-In . SVG Version: 6.00 Build 0)  -->
<svg version="1.1" id="Layer_1" xmlns="http://www.w3.org/2000/svg" xmlns:xlink="http://www.w3.org/1999/xlink" x="0px" y="0px"
	 viewBox="0 0 500 402.4" style="enable-background:new 0 0 500 402.4;" xml:space="preserve">
<style type="text/css">
	.st0{opacity:0.1;}
	.st1{fill:#5C5B4B;stroke:#5C5B4B;stroke-linecap:round;stroke-miterlimit:10;}
	.st2{fill:#FCF4E9;stroke:#5C5B4B;stroke-linecap:round;stroke-miterlimit:10;}
	.st3{fill:#FCF4E9;}
	.st4{fill:none;stroke:#5C5B4B;stroke-linecap:round;stroke-miterlimit:10;}
</style>
<g class="st0">
	<path id="XMLID_7678_" class="st1" d="M340.4,336.3c1.5,0.6,2.9,1.3,4.3,1.8c11.9,5.1,19.2,6.9,23.5,6.6c-0.3,0-0.5-0.1-0.8-0.2
		c0.3,0.1,0.6,0.1,0.9,0.2c0.1,0,0.2,0,0.2,0c0,0,0,0,0,0c0,0,0,0,0,0c0.7-0.1,1.2-0.2,1.8-0.4c2.3-1.5,2.9-3.4,2.5-5.6
		c-0.2-1.1-0.3-4.7-0.2-9.8c0.1-0.2,0.1-0.4,0.2-0.6c0.4-33.4,1.3-77.1,1.3-77.1s-13.2,1-11.9,2c0.9,0.6,0,33.2-0.3,60.8
		c0-0.1-0.1-0.1-0.1-0.2c0,2.2,0,4.2,0,6.1c0,2.9,0,5.6,0,8.3c0.1,0.2,0.2,0.5,0.2,0.7c-0.1,0.2-0.1,0.4-0.2,0.6
		c-1.8,0.1-3.9-0.1-6.1-0.6c-3.6-0.7-7.8-1.9-12.2-3.5c-11.8-4.2-25.2-10.4-33.7-13.5c-17.4-6.3-25.9-12.7-25.9-12.7l-5.5,13.2
		C286.2,312.9,318.9,327.1,340.4,336.3z"/>
	<g id="XMLID_7636_">
		<path id="XMLID_7641_" class="st1" d="M362.3,247.9c-0.1,0-0.1,0-0.1,0s0,1.8,0.1,4.8l11.6,1c0.1-0.9,0.2-1.5,0.3-1.9
			c0.4-0.4,0.6-0.7,0.6-0.7s7.8-8.6,15.2-10.4c6.7-1.7,28-5.4,13.4-4.8c2.7-0.9,3.4-1.8-2.8-2.3c-0.1-0.4-0.6-0.9-1.6-1.6
			c0.4-0.5-0.6-0.8-4.6-0.7c-11.1,0.2-30.2-1-34.5,2.2C356,236.4,360.2,239.5,362.3,247.9z"/>
		<path id="XMLID_7640_" class="st1" d="M397.6,236.3c25-1.8-0.2,2.5-7.6,4.4s-15.2,10.4-15.2,10.4s-0.2,0.3-0.6,0.7
			c-0.1,0.4-0.2,1-0.3,1.9l-11.6-1c-0.1-3-0.1-4.8-0.1-4.8s0,0,0.1,0c-2.2-8.4-6.3-11.6-2.5-14.4c4.4-3.2,23.5-2,34.5-2.2"/>
		<path id="XMLID_7639_" class="st1" d="M394.4,238c0,0,21.4-3.5,4.4-4.4"/>
		<path id="XMLID_7638_" class="st1" d="M398.7,231.9c5.7,3.6-3,3.3-3,3.3"/>
		<path id="XMLID_7637_" class="st1" d="M393.2,234.3c0,0,12.2-3.1,1.2-2.9"/>
	</g>
	<g>
		<path id="XMLID_8192_" class="st1" d="M207.3,207.6c0,0-7.8,3.8-32.2,4.8c-24.4,1-44,3.4-54-8c-10-11.4-49-45.9-49.2-48.1
			l-6.5,6.5c0,0,50.1,49.5,51.7,54.6c1.5,5.1,22.7,14.2,89.7,6.3"/>
		<g id="XMLID_8190_">
			<path id="XMLID_8191_" class="st1" d="M74.7,173.3c-6.6-1.7-8.7-2.3-14.3-6.5s10.6,4.2,8.9,2.6c-1.7-1.6-32.6-35-12-15.5
				s9,6.1,9,6.1c-19.8-32-1.4-8,1.8-4.5s-7.2-25-0.4-11.9s8.5,13.6,4.1,1.8c-4.4-11.7,9.7,13.5,9.7,13.5s4.3,8,2,8.5"/>
		</g>
		<path id="XMLID_8024_" class="st1" d="M190.6,225.6c-2.8,1.7-41.5,0.3-44.8,0.8c-3.3,0.4-3.8-0.8-4.1-10.2c-0.3-9.3,61.2-9.4,67-6
			c2,1.2,4.3,6.2,6.4,12.3"/>
	</g>
	<g>
		<path class="st1" d="M305.6,244.3L250,295.9c0,0,14.5,14,20.3,19c0.5,0.5,1.1,1,1.7,1.4c0.2,0.2,0.4,0.3,0.5,0.4c0,0,0,0,0,0
			c9.7,6.7,26.4,4.6,41.4-10c24.6-23.8,17.9-31.9,17.9-31.9c-1-3.4-2.4-6.2-4.2-8.4c0.1-0.1,0.1-0.1,0.1-0.1
			S310.8,247.7,305.6,244.3z"/>
		<g>
			<path class="st1" d="M295.3,227.8c-0.4-0.3-0.8-0.6-1.2-0.9c-3.3-2.5-5.8-4.3-6.7-4.8c-4.2-2.8-44.5-40.3-51.6-46
				c-0.2-0.2-0.5-0.4-0.7-0.5c-2.2-1.4-4.8-1.6-7.4-1.3c-3.6,0.5-23.7,8.6-32.4,18.1c-8.2,9-21.3,22.3-9,35.9c1.4,1.6,3,3.2,5,5
				c18.2,16.8,46.6,45.2,52.3,54.6c0.3,0.5,0.5,0.9,0.7,1.3c2.6,5.6,11,17.9,16.8,19.7c0.1,0,0.2,0,0.2,0.1c2.1,0.6,3.9-0.3,4.8-3.5
				c0,0,2-3.2,3.9-5.2l39.2-35.3c1.8-1.3,3.4-2.5,4.8-3.3C332.9,258.9,308.9,238.2,295.3,227.8z"/>
			<path class="st1" d="M270.1,300.3l39.2-35.3c1.8-1.3,3.4-2.5,4.8-3.3c18.7-2.8-5.2-23.5-18.8-33.9c-0.4-0.3-0.8-0.6-1.2-0.9
				c-3.3-2.5-5.8-4.3-6.7-4.8c-4.2-2.8-44.5-40.3-51.6-46c-0.2-0.2-0.5-0.4-0.7-0.5c-2.2-1.4-4.8-1.6-7.4-1.3
				c-3.6,0.5-23.7,8.6-32.4,18.1c-8.2,9-21.3,22.3-9,35.9c1.4,1.6,3,3.2,5,5c18.2,16.8,46.6,45.2,52.3,54.6c0.3,0.5,0.5,0.9,0.7,1.3
				c2.6,5.6,11,17.9,16.8,19.7c0.1,0,0.2,0,0.2,0.1c2.1,0.6,3.9-0.3,4.8-3.5"/>
		</g>
		<path id="XMLID_8167_" class="st1" d="M265,202.4c0,0,41,49.4,49.4,54.3"/>
		<g>
			<g>
				<path id="XMLID_8166_" class="st1" d="M204.9,224.1c0,0,1.5-0.2,1.8,1"/>
				<path id="XMLID_8165_" class="st1" d="M198.5,229.7c0,0-0.6,1.8-0.4,2.7"/>
				<path id="XMLID_8164_" class="st1" d="M210.4,229.2c0,0-0.9-1.6-1.8-2.1"/>
				<path id="XMLID_8163_" class="st1" d="M207.9,239.8c0,0,1.7-0.7,2.3-1.5"/>
				<path id="XMLID_8162_" class="st1" d="M212.7,233.1c0,0,0.5,1.4-0.6,2"/>
				<path id="XMLID_8161_" class="st1" d="M200.7,234.6c0,0,0.7,1.1,0.7,1.7"/>
				<line id="XMLID_8160_" class="st1" x1="201.7" y1="226.1" x2="200.3" y2="227.3"/>
				<path id="XMLID_8159_" class="st1" d="M203.7,238.5c0,0,1,1.6,1.9,2"/>
			</g>
			<g>
				<path id="XMLID_8158_" class="st1" d="M295.3,305.5c0,0-2.2-0.6-2.4-2"/>
				<path id="XMLID_8157_" class="st1" d="M291.2,297.7c0,0,0,1.9,0.5,2.7"/>
				<path id="XMLID_8156_" class="st1" d="M298.9,306.5c0,0,1.7,0.9,2.6,0.8"/>
			</g>
		</g>
		<g>
			<path id="XMLID_8148_" class="st1" d="M187.5,199.9c-1.8-1.6-6-6.9-7.4-8.6c-1.3-1.5-2.3-2.9-3.1-4.3c-14.9-3.9-10.5-29.9,7-23.2
				c5.5,2.1,12.5,9.6,13.8,10.9c1.6,1.7,7,7.1,8.4,8.5c7.8,7.9,2.4,25.8-12.5,20.2"/>
			<path id="XMLID_8147_" class="st1" d="M207.4,184.9c-0.4-0.6-0.8-1.1-1.3-1.6c-1.4-1.4-6.8-6.9-8.4-8.5
				c-1.2-1.3-8.3-8.8-13.8-10.9c-17.5-6.7-21.9,19.3-7,23.2c0.7,1.3,1.7,2.7,3.1,4.3c1.5,1.7,5.7,7,7.4,8.6l6.2,3.5
				c11.7,4.5,17.6-5.7,15.7-14.1"/>
		</g>
		<g id="XMLID_8067_">
			<g id="XMLID_8135_">
				<path id="XMLID_8138_" class="st1" d="M140.5,166.5c0,0-19.7-2.7-11.1,6.2s20.3,16,22.3,11.7c1.9-4.3-0.6-6.9-0.6-6.9"/>
				<path id="XMLID_8137_" class="st1" d="M138.3,169.8c0,0-8.4-1.8-6.8,1.4"/>
				<path id="XMLID_8136_" class="st1" d="M143.1,172.1c0,0-6.1,3.6-2.6,5.7c3.5,2.1,7.1,2.2,4.9-1.7"/>
			</g>
			<path id="XMLID_8134_" class="st1" d="M123.7,104.6c0,0-0.4,6,4.8,3.3C133.8,105.2,125.7,99.7,123.7,104.6z"/>
			<path id="XMLID_8133_" class="st1" d="M123.8,118.1c0,0,27.2-23.5,53.5,9.9s32.8,38,21.6,55.3s-29.5,14.7-39.1,8.3
				C150.3,185.3,95.9,153.9,123.8,118.1z"/>
			<path id="XMLID_8132_" class="st1" d="M151.3,104.9c-1.1-0.9-2.8-1.7-5.2-2.4c0,0,0,0,0,0l0,0c-0.5-0.1-1.1-0.3-1.7-0.4
				c-7.3-1.6-14.5,0.5-20,3.4c-26.3,10-10.9,29.1-4.5,35.6c0.6,0.6,8.1-8.2,13.7-17.6c13.3-5.7,26.5-10.3,26.5-10.3
				S155.2,106.9,151.3,104.9z"/>
			<path id="XMLID_8131_" class="st1" d="M155.5,155.1c0,0,7.9-1.1,11.7-9.1"/>
			<path id="XMLID_8130_" class="st1" d="M144.6,166.3c0,0-5.7,8.9-7.9,9.7"/>
			<path id="XMLID_8129_" class="st1" d="M182.5,194.5c0,0-0.2,5.8,7.2,0.8c7.5-5,9.9-10.7,6.3-11.9"/>
			<path id="XMLID_8128_" class="st1" d="M117.8,147.9c0,0,5.7-13.6,19.6-22.5s22.5-12.2,22.5-12.2c-16.2-8.9-38.3,13.1-48.8,24.9
				s-3.2,13.1-3.2,13.1S111.6,151.7,117.8,147.9z"/>
			<path id="XMLID_8127_" class="st1" d="M117.8,147.9c0,0-24.6,13.9,0.9-13.9s41.2-20.8,41.2-20.8S124.6,127.2,117.8,147.9z"/>
			<g>
				<path id="XMLID_8126_" class="st1" d="M156.1,158.9c0,0-10.3-1.1-13.3-4.4"/>
				<g id="XMLID_8123_">
					<path id="XMLID_8125_" class="st1" d="M148.8,167.5c1.7,1.3,3.2,1.9,4.4,1.1c0.6-0.4,1.1-0.9,1.4-1.4c0.2-0.4,0.4-0.7,0.5-1"/>
					<path id="XMLID_8124_" class="st1" d="M135.6,144.5c0,0,5.8,12.8,11.4,20.3"/>
				</g>
				<g id="XMLID_8117_">
					<path id="XMLID_8122_" class="st1" d="M147.9,169.9c0,0,0.6,7.3,7.1,3"/>
					<path id="XMLID_8121_" class="st1" d="M157.2,160.6c0,0,6.6-0.6,3.6,6.5"/>
					<path id="XMLID_8120_" class="st1" d="M157,165.7c0.7-0.4,0.4-2.2,1.8-1.8c1.5,0.3,0.6,0.7,0,1.7S156.3,166.1,157,165.7z"/>
					<path id="XMLID_8119_" class="st1" d="M153.2,172.2c-1.1,1-2.1,0.4-2-0.6c0-0.4,0.9-0.7,1.8-0.9
						C153.6,170.6,153.2,172.2,153.2,172.2z"/>
					<path id="XMLID_8118_" class="st1" d="M151,162.7c0,0,1-1.1,1.6-1"/>
				</g>
				<path id="XMLID_8116_" class="st1" d="M148.3,174.3c0,0-1.5,4.4-2,5.6"/>
				<path id="XMLID_8115_" class="st1" d="M160.9,160.1c0,0,5.1-1.8,5.4-2.2"/>
			</g>
			<path id="XMLID_8114_" class="st1" d="M160.9,130.8c0,0,1.5,0.5,1.1,1.7"/>
			<path id="XMLID_8113_" class="st1" d="M168.3,143.7c0,0,0.7,1.1,0.7,1.7"/>
			<path id="XMLID_8112_" class="st1" d="M151,125.7c0,0-1.3-2.1-1.7-1.7"/>
			<path id="XMLID_8111_" class="st1" d="M120.6,144.7c0,0,1.8-1.4,1.9-0.9"/>
			<path id="XMLID_8110_" class="st1" d="M133.3,137.9c0,0,1.6-2.1,1.3-2.6"/>
			<path id="XMLID_8109_" class="st1" d="M169.8,192.5c0,0,1.6-1,2-0.9"/>
			<path id="XMLID_8108_" class="st1" d="M181.7,181.8c0,0-0.6,1.8-0.4,2.8"/>
			<path id="XMLID_8107_" class="st1" d="M139.3,164.6"/>
			<path id="XMLID_8106_" class="st1" d="M149.2,156.8"/>
			<line id="XMLID_8105_" class="st1" x1="171.7" y1="154" x2="172.7" y2="152.4"/>
			<path id="XMLID_8104_" class="st1" d="M174.2,139.1c0,0-1.1-19.8,7.1-10.6c8.2,9.3,14.2,21.6,9.8,23.2s-6.9-1.2-6.9-1.2"/>
			<path id="XMLID_8103_" class="st1" d="M177.8,137.2c0,0-1.1-8.6,2-6.7"/>
			<path id="XMLID_8102_" class="st1" d="M179.6,142.2c0,0,4.1-5.8,5.9-2.1c1.8,3.7,1.6,7.3-2.1,4.7"/>
			<path id="XMLID_8101_" class="st1" d="M139.1,138c0,0-1.5,23.8,19.4,13.1C179.3,140.5,147.2,118.5,139.1,138z"/>
			<path id="XMLID_8100_" class="st1" d="M157.1,138.4c0,0,1.6-3.6,3.9-0.7S157.6,142.5,157.1,138.4z"/>
			<path id="XMLID_8099_" class="st1" d="M137.9,134.7c0,0-5.2,6.5,3.1,6.4s12.3-12,10.4-13.1C149.5,127.1,146.4,125.4,137.9,134.7z
				"/>
			<path id="XMLID_8098_" class="st1" d="M163.9,141.2c0,0,2.9-2.1,2.9,0.1c0.1,2.3-1.9,1.4-2.8,4.2"/>
			<path id="XMLID_8097_" class="st1" d="M161,143.8c0,0-6.2,5.4-8.8,9.7"/>
			<g id="XMLID_8085_">
				<path id="XMLID_8089_" class="st1" d="M158,183.5c0,0-8.1,10.5,0.5,8.7S158,183.5,158,183.5z"/>
				<path id="XMLID_8088_" class="st1" d="M153.9,182.2c0,0-8.1,7.2-0.6,7.7c7.5,0.4,9.7-9.9,8.6-12.1S153.9,182.2,153.9,182.2z"/>
				<path id="XMLID_8087_" class="st1" d="M171.2,168.8c0,0-5,2.5,0.4,6.6c5.4,4.1,11-3.2,10-4.9C180.7,168.7,179,165.8,171.2,168.8
					z"/>
				<path id="XMLID_8086_" class="st1" d="M166.7,170.8c0,0-12.2,9.5,3.7,4S180.8,160,166.7,170.8z"/>
			</g>
			<g id="XMLID_8081_">
				<path id="XMLID_8084_" class="st1" d="M163.6,187c0,0,11.3-0.1,8.8-8.8"/>
				<path id="XMLID_8083_" class="st1" d="M164,184.8c0,0-0.1-3.2,2.7-2.7"/>
				<path id="XMLID_8082_" class="st1" d="M169.5,179.4c0,0-3.2-0.1-2.7,2.7"/>
			</g>
			<g>
				<path id="XMLID_8072_" class="st1" d="M118,155.3c0,0,15.6-19,23.3,1.2C148.9,176.7,113.1,179.5,118,155.3z"/>
				<path id="XMLID_8071_" class="st1" d="M125.9,166.5c0,0,1.6-3.6,3.9-0.7S126.5,170.6,125.9,166.5z"/>
				<path id="XMLID_8070_" class="st1" d="M118.5,149.2c0,0-9.5,8.5-0.3,9.3s11.4-11.7,9.9-14.4
					C126.5,141.4,118.5,149.2,118.5,149.2z"/>
				<path id="XMLID_8069_" class="st1" d="M131.9,171.1c0,0-2.1,2.9,0.1,2.9c2.3,0.1,1.4-1.9,4.2-2.8"/>
				<path id="XMLID_8068_" class="st1" d="M134.2,167.7c0,0,2.8-4.1,7.7-6.7"/>
			</g>
		</g>
		<path id="XMLID_8066_" class="st1" d="M197.9,206.8c-0.5,0.3-1.3,0.3-2.2,0.1"/>
		<path id="XMLID_8065_" class="st1" d="M212.9,185.4c0,0,0.4,0.7,0.6,1.5"/>
		<path id="XMLID_8064_" class="st1" d="M201,207.8c4.9-1.3,7.6-6,7.9-10.9"/>
		<path id="XMLID_8063_" class="st1" d="M214.1,193.4c0,0.2-0.1,0.4-0.2,0.6"/>
		<path id="XMLID_8062_" class="st1" d="M298.5,266.3c0,0-46.7-44-51.1-52.7"/>
		<path id="XMLID_8025_" class="st1" d="M246.3,284c0,0,15.6,14.2,14.9,17.7"/>
	</g>
	<g id="XMLID_7916_">
		<path id="XMLID_7921_" class="st1" d="M429.3,282.1C429.2,282,429.2,282,429.3,282.1c-0.1-0.1-1.3,1.2-3.4,3.4l7.5,8.9
			c0.7-0.6,1.2-1,1.5-1.1c0.5,0,0.9-0.1,0.9-0.1s11.6-0.5,18.1,3.4c5.9,3.6,23.7,16,12.8,6.1c2.5,1.3,3.7,1.1-0.4-3.6
			c0.2-0.4,0.2-1.1,0-2.3c0.6-0.1,0.1-1-2.7-3.8c-8-7.7-20.6-22.1-26-22.9C433,269.4,433.7,274.6,429.3,282.1z"/>
		<path id="XMLID_7920_" class="st1" d="M462.4,298.8c19,16.3-2,1.6-8.5-2.3c-6.5-3.9-18.1-3.4-18.1-3.4s-0.3,0-0.9,0.1
			c-0.3,0.2-0.9,0.6-1.5,1.1l-7.5-8.9c2.1-2.2,3.3-3.5,3.3-3.5s0,0,0.1,0.1c4.4-7.5,3.7-12.6,8.4-11.9c5.4,0.8,18,15.2,26,22.9"/>
		<path id="XMLID_7919_" class="st1" d="M458.9,297.7c0,0,17.6,12.7,6.2,0"/>
		<path id="XMLID_7918_" class="st1" d="M466.2,296.5c1.5,6.5-4.4,0.2-4.4,0.2"/>
		<path id="XMLID_7917_" class="st1" d="M460.7,294.2c0,0,10.9,6.5,2.9-1.2"/>
	</g>
	<path id="XMLID_8022_" class="st1" d="M313.4,273.6c0,0,5.4,9.2,19.1,21.7c13.7,12.5,40.8,44.9,48.9,35
		c8.1-9.9,45.6-43.8,45.1-45.1s9.3,7.5,9.3,7.5s-52.1,48.9-55.3,53.5s-9.8,3.3-25.9-13.2c-16.1-16.5-43.9-45.5-51.4-49.2"/>
	<g>
		<path id="XMLID_8195_" class="st1" d="M235.4,192.5c0,0-7-1.2-12.1-3.6s-55.9-16.3-54.3-31.1s0-75.6,0-75.6l-11-1.5
			c0,0,1.8,85.4-0.6,90.9c-2.4,5.5,51.1,21.5,71.5,34.5"/>
		<g id="XMLID_8193_">
			<path id="XMLID_8194_" class="st1" d="M158.2,82c-3.5-5.9-4.5-7.8-5.5-14.7c-1-6.9,4.5,10.5,4.5,8.1c0-2.4,1.7-47.8,2.4-19.5
				c0.8,28.3,2,10.7,2,10.7c8.6-36.6,4.7-6.6,4.5-1.9c-0.2,4.8,12.6-22.8,8.2-8.7s-3.6,15.6,1.6,4.2c5.2-11.4-2.7,16.4-2.7,16.4
				s-2.6,8.7-4.6,7.4"/>
		</g>
		<path id="XMLID_8023_" class="st1" d="M226.2,188.1c-2.1-2.5-39.5-12.9-42.5-14.3c-3-1.4-3.9-0.4-7,8.4c-3.2,8.8,55.5,27.4,62,26
			c2.3-0.5,6-4.6,9.9-9.8"/>
	</g>
</g>
<g>
	<path id="XMLID_303_" class="st2" d="M330.4,327.3c1.5,0.6,2.9,1.3,4.3,1.8c11.9,5.1,19.2,6.9,23.5,6.6c-0.3,0-0.5-0.1-0.8-0.2
		c0.3,0.1,0.6,0.1,0.9,0.2c0.1,0,0.2,0,0.2,0c0,0,0,0,0,0c0,0,0,0,0,0c0.7-0.1,1.2-0.2,1.8-0.4c2.3-1.5,2.9-3.4,2.5-5.6
		c-0.2-1.1-0.3-4.7-0.2-9.8c0.1-0.2,0.1-0.4,0.2-0.6c0.4-33.4,1.3-77.1,1.3-77.1s-13.2,1-11.9,2c0.9,0.6,0,33.2-0.3,60.8
		c0-0.1-0.1-0.1-0.1-0.2c0,2.2,0,4.2,0,6.1c0,2.9,0,5.6,0,8.3c0.1,0.2,0.2,0.5,0.2,0.7c-0.1,0.2-0.1,0.4-0.2,0.6
		c-1.8,0.1-3.9-0.1-6.1-0.6c-3.6-0.7-7.8-1.9-12.2-3.5c-11.8-4.2-25.2-10.4-33.7-13.5c-17.4-6.3-25.9-12.7-25.9-12.7l-5.5,13.2
		C276.2,303.9,308.9,318.1,330.4,327.3z"/>
	<g id="XMLID_296_">
		<path id="XMLID_301_" class="st2" d="M352.3,238.9c-0.1,0-0.1,0-0.1,0s0,1.8,0.1,4.8l11.6,1c0.1-0.9,0.2-1.5,0.3-1.9
			c0.4-0.4,0.6-0.7,0.6-0.7s7.8-8.6,15.2-10.4c6.7-1.7,28-5.4,13.4-4.8c2.7-0.9,3.4-1.8-2.8-2.3c-0.1-0.4-0.6-0.9-1.6-1.6
			c0.4-0.5-0.6-0.8-4.6-0.7c-11.1,0.2-30.2-1-34.5,2.2C346,227.4,350.2,230.5,352.3,238.9z"/>
		<path id="XMLID_300_" class="st2" d="M387.6,227.3c25-1.8-0.2,2.5-7.6,4.4s-15.2,10.4-15.2,10.4s-0.2,0.3-0.6,0.7
			c-0.1,0.4-0.2,1-0.3,1.9l-11.6-1c-0.1-3-0.1-4.8-0.1-4.8s0,0,0.1,0c-2.2-8.4-6.3-11.6-2.5-14.4c4.4-3.2,23.5-2,34.5-2.2"/>
		<path id="XMLID_299_" class="st2" d="M384.4,229c0,0,21.4-3.5,4.4-4.4"/>
		<path id="XMLID_298_" class="st2" d="M388.7,222.9c5.7,3.6-3,3.3-3,3.3"/>
		<path id="XMLID_297_" class="st2" d="M383.2,225.3c0,0,12.2-3.1,1.2-2.9"/>
	</g>
	<g>
		<path id="XMLID_295_" class="st2" d="M197.3,198.6c0,0-7.8,3.8-32.2,4.8c-24.4,1-44,3.4-54-8s-49-45.9-49.2-48.1l-6.5,6.5
			c0,0,50.1,49.5,51.7,54.6c1.5,5.1,22.7,14.2,89.7,6.3"/>
		<g id="XMLID_293_">
			<path id="XMLID_294_" class="st2" d="M64.7,164.3c-6.6-1.7-8.7-2.3-14.3-6.5s10.6,4.2,8.9,2.6c-1.7-1.6-32.6-35-12-15.5
				s9,6.1,9,6.1c-19.8-32-1.4-8,1.8-4.5c3.2,3.5-7.2-25-0.4-11.9s8.5,13.6,4.1,1.8c-4.4-11.7,9.7,13.5,9.7,13.5s4.3,8,2,8.5"/>
		</g>
		<path id="XMLID_292_" class="st2" d="M180.6,216.6c-2.8,1.7-41.5,0.3-44.8,0.8c-3.3,0.4-3.8-0.8-4.1-10.2c-0.3-9.3,61.2-9.4,67-6
			c2,1.2,4.3,6.2,6.4,12.3"/>
	</g>
	<g>
		<path class="st2" d="M295.6,235.3L240,286.9c0,0,14.5,14,20.3,19c0.5,0.5,1.1,1,1.7,1.4c0.2,0.2,0.4,0.3,0.5,0.4c0,0,0,0,0,0
			c9.7,6.7,26.4,4.6,41.4-10c24.6-23.8,17.9-31.9,17.9-31.9c-1-3.4-2.4-6.2-4.2-8.4c0.1-0.1,0.1-0.1,0.1-0.1
			S300.8,238.7,295.6,235.3z"/>
		<g>
			<path class="st3" d="M285.3,218.8c-0.4-0.3-0.8-0.6-1.2-0.9c-3.3-2.5-5.8-4.3-6.7-4.8c-4.2-2.8-44.5-40.3-51.6-46
				c-0.2-0.2-0.5-0.4-0.7-0.5c-2.2-1.4-4.8-1.6-7.4-1.3c-3.6,0.5-23.7,8.6-32.4,18.1c-8.2,9-21.3,22.3-9,35.9c1.4,1.6,3,3.2,5,5
				c18.2,16.8,46.6,45.2,52.3,54.6c0.3,0.5,0.5,0.9,0.7,1.3c2.6,5.6,11,17.9,16.8,19.7c0.1,0,0.2,0,0.2,0.1c2.1,0.6,3.9-0.3,4.8-3.5
				c0,0,2-3.2,3.9-5.2l39.2-35.3c1.8-1.3,3.4-2.5,4.8-3.3C322.9,249.9,298.9,229.2,285.3,218.8z"/>
			<path class="st2" d="M260.1,291.3l39.2-35.3c1.8-1.3,3.4-2.5,4.8-3.3c18.7-2.8-5.2-23.5-18.8-33.9c-0.4-0.3-0.8-0.6-1.2-0.9
				c-3.3-2.5-5.8-4.3-6.7-4.8c-4.2-2.8-44.5-40.3-51.6-46c-0.2-0.2-0.5-0.4-0.7-0.5c-2.2-1.4-4.8-1.6-7.4-1.3
				c-3.6,0.5-23.7,8.6-32.4,18.1c-8.2,9-21.3,22.3-9,35.9c1.4,1.6,3,3.2,5,5c18.2,16.8,46.6,45.2,52.3,54.6c0.3,0.5,0.5,0.9,0.7,1.3
				c2.6,5.6,11,17.9,16.8,19.7c0.1,0,0.2,0,0.2,0.1c2.1,0.6,3.9-0.3,4.8-3.5"/>
		</g>
		<path id="XMLID_291_" class="st2" d="M255,193.4c0,0,41,49.4,49.4,54.3"/>
		<g>
			<g>
				<path id="XMLID_290_" class="st2" d="M194.9,215.1c0,0,1.5-0.2,1.8,1"/>
				<path id="XMLID_289_" class="st2" d="M188.5,220.7c0,0-0.6,1.8-0.4,2.7"/>
				<path id="XMLID_288_" class="st2" d="M200.4,220.2c0,0-0.9-1.6-1.8-2.1"/>
				<path id="XMLID_287_" class="st2" d="M197.9,230.8c0,0,1.7-0.7,2.3-1.5"/>
				<path id="XMLID_286_" class="st2" d="M202.7,224.1c0,0,0.5,1.4-0.6,2"/>
				<path id="XMLID_285_" class="st2" d="M190.7,225.6c0,0,0.7,1.1,0.7,1.7"/>
				<line id="XMLID_284_" class="st2" x1="191.7" y1="217.1" x2="190.3" y2="218.3"/>
				<path id="XMLID_283_" class="st2" d="M193.7,229.5c0,0,1,1.6,1.9,2"/>
			</g>
			<g>
				<path id="XMLID_282_" class="st2" d="M285.3,296.5c0,0-2.2-0.6-2.4-2"/>
				<path id="XMLID_281_" class="st2" d="M281.2,288.7c0,0,0,1.9,0.5,2.7"/>
				<path id="XMLID_280_" class="st2" d="M288.9,297.5c0,0,1.7,0.9,2.6,0.8"/>
			</g>
		</g>
		<g>
			<path id="XMLID_279_" class="st3" d="M177.5,190.9c-1.8-1.6-6-6.9-7.4-8.6c-1.3-1.5-2.3-2.9-3.1-4.3c-14.9-3.9-10.5-29.9,7-23.2
				c5.5,2.1,12.5,9.6,13.8,10.9c1.6,1.7,7,7.1,8.4,8.5c7.8,7.9,2.4,25.8-12.5,20.2"/>
			<path id="XMLID_278_" class="st4" d="M197.4,175.9c-0.4-0.6-0.8-1.1-1.3-1.6c-1.4-1.4-6.8-6.9-8.4-8.5
				c-1.2-1.3-8.3-8.8-13.8-10.9c-17.5-6.7-21.9,19.3-7,23.2c0.7,1.3,1.7,2.7,3.1,4.3c1.5,1.7,5.7,7,7.4,8.6l6.2,3.5
				c11.7,4.5,17.6-5.7,15.7-14.1"/>
		</g>
		<g id="XMLID_221_">
			<g id="XMLID_274_">
				<path id="XMLID_277_" class="st2" d="M130.5,157.5c0,0-19.7-2.7-11.1,6.2s20.3,16,22.3,11.7c1.9-4.3-0.6-6.9-0.6-6.9"/>
				<path id="XMLID_276_" class="st2" d="M128.3,160.8c0,0-8.4-1.8-6.8,1.4"/>
				<path id="XMLID_275_" class="st2" d="M133.1,163.1c0,0-6.1,3.6-2.6,5.7c3.5,2.1,7.1,2.2,4.9-1.7"/>
			</g>
			<path id="XMLID_273_" class="st2" d="M113.7,95.6c0,0-0.4,6,4.8,3.3C123.8,96.2,115.7,90.7,113.7,95.6z"/>
			<path id="XMLID_272_" class="st2" d="M113.8,109.1c0,0,27.2-23.5,53.5,9.9s32.8,38,21.6,55.3s-29.5,14.7-39.1,8.3
				C140.3,176.3,85.9,144.9,113.8,109.1z"/>
			<path id="XMLID_271_" class="st2" d="M141.3,95.9c-1.1-0.9-2.8-1.7-5.2-2.4c0,0,0,0,0,0l0,0c-0.5-0.1-1.1-0.3-1.7-0.4
				c-7.3-1.6-14.5,0.5-20,3.4c-26.3,10-10.9,29.1-4.5,35.6c0.6,0.6,8.1-8.2,13.7-17.6c13.3-5.7,26.5-10.3,26.5-10.3
				S145.2,97.9,141.3,95.9z"/>
			<path id="XMLID_270_" class="st2" d="M145.5,146.1c0,0,7.9-1.1,11.7-9.1"/>
			<path id="XMLID_269_" class="st2" d="M134.6,157.3c0,0-5.7,8.9-7.9,9.7"/>
			<path id="XMLID_268_" class="st2" d="M172.5,185.5c0,0-0.2,5.8,7.2,0.8c7.5-5,9.9-10.7,6.3-11.9"/>
			<path id="XMLID_267_" class="st2" d="M107.8,138.9c0,0,5.7-13.6,19.6-22.5s22.5-12.2,22.5-12.2c-16.2-8.9-38.3,13.1-48.8,24.9
				s-3.2,13.1-3.2,13.1S101.6,142.7,107.8,138.9z"/>
			<path id="XMLID_266_" class="st2" d="M107.8,138.9c0,0-24.6,13.9,0.9-13.9s41.2-20.8,41.2-20.8S114.6,118.2,107.8,138.9z"/>
			<g>
				<path id="XMLID_265_" class="st2" d="M146.1,149.9c0,0-10.3-1.1-13.3-4.4"/>
				<g id="XMLID_262_">
					<path id="XMLID_264_" class="st2" d="M138.8,158.5c1.7,1.3,3.2,1.9,4.4,1.1c0.6-0.4,1.1-0.9,1.4-1.4c0.2-0.4,0.4-0.7,0.5-1"/>
					<path id="XMLID_263_" class="st2" d="M125.6,135.5c0,0,5.8,12.8,11.4,20.3"/>
				</g>
				<g id="XMLID_256_">
					<path id="XMLID_261_" class="st2" d="M137.9,160.9c0,0,0.6,7.3,7.1,3"/>
					<path id="XMLID_260_" class="st2" d="M147.2,151.6c0,0,6.6-0.6,3.6,6.5"/>
					<path id="XMLID_259_" class="st2" d="M147,156.7c0.7-0.4,0.4-2.2,1.8-1.8c1.5,0.3,0.6,0.7,0,1.7S146.3,157.1,147,156.7z"/>
					<path id="XMLID_258_" class="st2" d="M143.2,163.2c-1.1,1-2.1,0.4-2-0.6c0-0.4,0.9-0.7,1.8-0.9
						C143.6,161.6,143.2,163.2,143.2,163.2z"/>
					<path id="XMLID_257_" class="st2" d="M141,153.7c0,0,1-1.1,1.6-1"/>
				</g>
				<path id="XMLID_255_" class="st2" d="M138.3,165.3c0,0-1.5,4.4-2,5.6"/>
				<path id="XMLID_254_" class="st2" d="M150.9,151.1c0,0,5.1-1.8,5.4-2.2"/>
			</g>
			<path id="XMLID_253_" class="st2" d="M150.9,121.8c0,0,1.5,0.5,1.1,1.7"/>
			<path id="XMLID_252_" class="st2" d="M158.3,134.7c0,0,0.7,1.1,0.7,1.7"/>
			<path id="XMLID_251_" class="st2" d="M141,116.7c0,0-1.3-2.1-1.7-1.7"/>
			<path id="XMLID_250_" class="st2" d="M110.6,135.7c0,0,1.8-1.4,1.9-0.9"/>
			<path id="XMLID_249_" class="st2" d="M123.3,128.9c0,0,1.6-2.1,1.3-2.6"/>
			<path id="XMLID_248_" class="st2" d="M159.8,183.5c0,0,1.6-1,2-0.9"/>
			<path id="XMLID_247_" class="st2" d="M171.7,172.8c0,0-0.6,1.8-0.4,2.8"/>
			<path id="XMLID_246_" class="st2" d="M129.3,155.6"/>
			<path id="XMLID_245_" class="st2" d="M139.2,147.8"/>
			<line id="XMLID_244_" class="st2" x1="161.7" y1="145" x2="162.7" y2="143.4"/>
			<path id="XMLID_243_" class="st2" d="M164.2,130.1c0,0-1.1-19.8,7.1-10.6c8.2,9.3,14.2,21.6,9.8,23.2s-6.9-1.2-6.9-1.2"/>
			<path id="XMLID_242_" class="st2" d="M167.8,128.2c0,0-1.1-8.6,2-6.7"/>
			<path id="XMLID_241_" class="st2" d="M169.6,133.2c0,0,4.1-5.8,5.9-2.1c1.8,3.7,1.6,7.3-2.1,4.7"/>
			<path id="XMLID_240_" class="st2" d="M129.1,129c0,0-1.5,23.8,19.4,13.1C169.3,131.5,137.2,109.5,129.1,129z"/>
			<path id="XMLID_239_" class="st2" d="M147.1,129.4c0,0,1.6-3.6,3.9-0.7C153.4,131.7,147.6,133.5,147.1,129.4z"/>
			<path id="XMLID_238_" class="st2" d="M127.9,125.7c0,0-5.2,6.5,3.1,6.4s12.3-12,10.4-13.1C139.5,118.1,136.4,116.4,127.9,125.7z"
				/>
			<path id="XMLID_237_" class="st2" d="M153.9,132.2c0,0,2.9-2.1,2.9,0.1c0.1,2.3-1.9,1.4-2.8,4.2"/>
			<path id="XMLID_236_" class="st2" d="M151,134.8c0,0-6.2,5.4-8.8,9.7"/>
			<g id="XMLID_231_">
				<path id="XMLID_235_" class="st2" d="M148,174.5c0,0-8.1,10.5,0.5,8.7S148,174.5,148,174.5z"/>
				<path id="XMLID_234_" class="st2" d="M143.9,173.2c0,0-8.1,7.2-0.6,7.7c7.5,0.4,9.7-9.9,8.6-12.1S143.9,173.2,143.9,173.2z"/>
				<path id="XMLID_233_" class="st2" d="M161.2,159.8c0,0-5,2.5,0.4,6.6c5.4,4.1,11-3.2,10-4.9C170.7,159.7,169,156.8,161.2,159.8z
					"/>
				<path id="XMLID_232_" class="st2" d="M156.7,161.8c0,0-12.2,9.5,3.7,4S170.8,151,156.7,161.8z"/>
			</g>
			<g id="XMLID_227_">
				<path id="XMLID_230_" class="st2" d="M153.6,178c0,0,11.3-0.1,8.8-8.8"/>
				<path id="XMLID_229_" class="st2" d="M154,175.8c0,0-0.1-3.2,2.7-2.7"/>
				<path id="XMLID_228_" class="st2" d="M159.5,170.4c0,0-3.2-0.1-2.7,2.7"/>
			</g>
			<g>
				<path id="XMLID_226_" class="st2" d="M108,146.3c0,0,15.6-19,23.3,1.2S103.1,170.5,108,146.3z"/>
				<path id="XMLID_225_" class="st2" d="M115.9,157.5c0,0,1.6-3.6,3.9-0.7S116.5,161.6,115.9,157.5z"/>
				<path id="XMLID_224_" class="st2" d="M108.5,140.2c0,0-9.5,8.5-0.3,9.3s11.4-11.7,9.9-14.4C116.5,132.4,108.5,140.2,108.5,140.2
					z"/>
				<path id="XMLID_223_" class="st2" d="M121.9,162.1c0,0-2.1,2.9,0.1,2.9c2.3,0.1,1.4-1.9,4.2-2.8"/>
				<path id="XMLID_222_" class="st2" d="M124.2,158.7c0,0,2.8-4.1,7.7-6.7"/>
			</g>
		</g>
		<path id="XMLID_220_" class="st2" d="M187.9,197.8c-0.5,0.3-1.3,0.3-2.2,0.1"/>
		<path id="XMLID_219_" class="st2" d="M202.9,176.4c0,0,0.4,0.7,0.6,1.5"/>
		<path id="XMLID_218_" class="st4" d="M191,198.8c4.9-1.3,7.6-6,7.9-10.9"/>
		<path id="XMLID_217_" class="st2" d="M204.1,184.4c0,0.2-0.1,0.4-0.2,0.6"/>
		<path id="XMLID_216_" class="st2" d="M288.5,257.3c0,0-46.7-44-51.1-52.7"/>
		<path id="XMLID_215_" class="st2" d="M236.3,275c0,0,15.6,14.2,14.9,17.7"/>
	</g>
	<g id="XMLID_208_">
		<path id="XMLID_213_" class="st2" d="M419.3,273.1C419.2,273,419.2,273,419.3,273.1c-0.1-0.1-1.3,1.2-3.4,3.4l7.5,8.9
			c0.7-0.6,1.2-1,1.5-1.1c0.5,0,0.9-0.1,0.9-0.1s11.6-0.5,18.1,3.4c5.9,3.6,23.7,16,12.8,6.1c2.5,1.3,3.7,1.1-0.4-3.6
			c0.2-0.4,0.2-1.1,0-2.3c0.6-0.1,0.1-1-2.7-3.8c-8-7.7-20.6-22.1-26-22.9C423,260.4,423.7,265.6,419.3,273.1z"/>
		<path id="XMLID_212_" class="st2" d="M452.4,289.8c19,16.3-2,1.6-8.5-2.3c-6.5-3.9-18.1-3.4-18.1-3.4s-0.3,0-0.9,0.1
			c-0.3,0.2-0.9,0.6-1.5,1.1l-7.5-8.9c2.1-2.2,3.3-3.5,3.3-3.5s0,0,0.1,0.1c4.4-7.5,3.7-12.6,8.4-11.9c5.4,0.8,18,15.2,26,22.9"/>
		<path id="XMLID_211_" class="st2" d="M448.9,288.7c0,0,17.6,12.7,6.2,0"/>
		<path id="XMLID_210_" class="st2" d="M456.2,287.5c1.5,6.5-4.4,0.2-4.4,0.2"/>
		<path id="XMLID_209_" class="st2" d="M450.7,285.2c0,0,10.9,6.5,2.9-1.2"/>
	</g>
	<path id="XMLID_207_" class="st2" d="M303.4,264.6c0,0,5.4,9.2,19.1,21.7c13.7,12.5,40.8,44.9,48.9,35c8.1-9.9,45.6-43.8,45.1-45.1
		s9.3,7.5,9.3,7.5s-52.1,48.9-55.3,53.5s-9.8,3.3-25.9-13.2c-16.1-16.5-43.9-45.5-51.4-49.2"/>
	<g>
		<path id="XMLID_206_" class="st2" d="M225.4,183.5c0,0-7-1.2-12.1-3.6s-55.9-16.3-54.3-31.1s0-75.6,0-75.6l-11-1.5
			c0,0,1.8,85.4-0.6,90.9c-2.4,5.5,51.1,21.5,71.5,34.5"/>
		<g id="XMLID_204_">
			<path id="XMLID_205_" class="st2" d="M148.2,73c-3.5-5.9-4.5-7.8-5.5-14.7c-1-6.9,4.5,10.5,4.5,8.1c0-2.4,1.7-47.8,2.4-19.5
				c0.8,28.3,2,10.7,2,10.7c8.6-36.6,4.7-6.6,4.5-1.9c-0.2,4.8,12.6-22.8,8.2-8.7s-3.6,15.6,1.6,4.2c5.2-11.4-2.7,16.4-2.7,16.4
				s-2.6,8.7-4.6,7.4"/>
		</g>
		<path id="XMLID_203_" class="st2" d="M216.2,179.1c-2.1-2.5-39.5-12.9-42.5-14.3c-3-1.4-3.9-0.4-7,8.4c-3.2,8.8,55.5,27.4,62,26
			c2.3-0.5,6-4.6,9.9-9.8"/>
	</g>
</g>
</svg>
