<?xml version="1.0" encoding="utf-8"?>
<!-- Generator: Adobe Illustrator 22.1.0, SVG Export Plug-In . SVG Version: 6.00 Build 0)  -->
<svg version="1.1" id="Layer_1" xmlns="http://www.w3.org/2000/svg" xmlns:xlink="http://www.w3.org/1999/xlink" x="0px" y="0px"
	 viewBox="0 0 500 402.4" style="enable-background:new 0 0 500 402.4;" xml:space="preserve">
<style type="text/css">
	.st0{opacity:0.1;}
	.st1{fill:#5C5B4B;stroke:#5C5B4B;stroke-linecap:round;stroke-miterlimit:10;}
	.st2{fill:#FCF4E9;stroke:#5C5B4B;stroke-linecap:round;stroke-miterlimit:10;}
	.st3{fill:#FCF4E9;}
	.st4{fill:none;stroke:#5C5B4B;stroke-linecap:round;stroke-miterlimit:10;}
</style>
<g class="st0">
	<path id="XMLID_7914_" class="st1" d="M279.6,282.3c0,0,6.2,7.1,30.2,18.1s42.5,21.6,57.3,14.3c14.8-7.3,67.9-25.6,69-27.7l3.8,9.1
		c0,0-70.6,28.7-74.2,33.1c-3.6,4.4-28.5,4.8-92.2-30.8"/>
	<g id="XMLID_7836_">
		<path id="XMLID_7841_" class="st1" d="M440.2,284.5c0-0.1,0-0.1,0-0.1s-1.6,0.7-4.4,1.9l3.5,11.1c0.9-0.3,1.5-0.4,1.9-0.5
			c0.5,0.2,0.9,0.3,0.9,0.3s10.9,4,15.4,10.1c4.1,5.6,15.8,23.8,9.5,10.5c1.8,2.1,3,2.5,1-3.5c0.3-0.3,0.6-0.9,0.8-2.1
			c0.6,0.2,0.5-0.9-1.1-4.5c-4.5-10.2-10.6-28.3-15.2-31.1C448.4,274.2,447.1,279.3,440.2,284.5z"/>
		<path id="XMLID_7840_" class="st1" d="M464.3,312.6c11.3,22.4-2.4,0.8-7-5.4c-4.5-6.1-15.4-10.1-15.4-10.1s-0.3-0.1-0.9-0.3
			c-0.4,0-1,0.2-1.9,0.5l-3.5-11.1c2.8-1.2,4.4-1.9,4.4-1.9s0,0,0,0.1c7-5.2,8.3-10.3,12.3-7.8c4.7,2.8,10.8,20.9,15.2,31.1"/>
		<path id="XMLID_7839_" class="st1" d="M461.6,310.3c0,0,11.4,18.4,5.7,2.4"/>
		<path id="XMLID_7838_" class="st1" d="M468.8,312c-1.1,6.6-4.2-1.5-4.2-1.5"/>
		<path id="XMLID_7837_" class="st1" d="M464.6,307.8c0,0,7.6,10.1,3.1,0"/>
	</g>
	<g>
		<path id="XMLID_8080_" class="st1" d="M160.9,231.5c0,0-3.4,5.5-7.2,8.9s-33.3,41.4-45.2,35C96.7,268.9,44.8,249,44.8,249
			l-5.2,8.8c0,0,72.6,28.3,76.5,32.2c3.8,4,36-35.6,54.1-48.2"/>
		<g id="XMLID_8078_">
			<path id="XMLID_8079_" class="st1" d="M46.4,261c-6.4,2.5-8.4,3.2-15.4,3.1s11.1-2.7,8.8-3.1c-2.3-0.4-46.9-9.4-18.8-5.5
				c28.1,3.8,10.9-0.2,10.9-0.2c-34.7-14.4-5.8-5.7-1.1-4.7s-20.4-16.2-7.3-9.5c13.2,6.7,14.8,6.1,4.4-0.9
				c-10.4-6.9,15.8,5.3,15.8,5.3s8.1,4,6.6,5.8"/>
		</g>
		<path id="XMLID_8074_" class="st1" d="M162.6,253.4c-0.9,3.1-30.8,27.9-33,30.4c-2.2,2.5-3.4,1.9-9.9-4.8s39.4-47.7,46-49.1
			c2.3-0.5,7.4,1.8,13,4.9"/>
	</g>
	<g>
		<path class="st1" d="M270.6,223.8l-31.6,69c0,0,18.7,7.3,26,9.8c0.7,0.3,1.4,0.5,2.1,0.7c0.2,0.1,0.5,0.1,0.6,0.1c0,0,0,0,0,0
			c11.6,2.5,26.1-5.8,34.5-25.1c13.6-31.4,4.3-36.3,4.3-36.3c-2.2-2.7-4.6-4.8-7.1-6.2c0-0.1,0.1-0.2,0.1-0.2
			S276.7,224.9,270.6,223.8z"/>
		<g>
			<path class="st1" d="M254.8,212.5c-0.5-0.1-1-0.3-1.5-0.4c-4-1-7-1.7-8-1.9c-5-1-56.6-20.2-65.3-22.7c-0.3-0.1-0.6-0.1-0.9-0.2
				c-2.6-0.5-5.1,0.3-7.4,1.7c-3.1,1.8-18.6,17-23,29.1c-4.2,11.4-11.1,28.8,5.4,36.7c1.9,0.9,4.1,1.8,6.6,2.7
				c23.2,8.6,60.4,23.9,69.2,30.4c0.4,0.3,0.8,0.6,1.1,0.9c4.5,4.2,17,12.3,23.1,11.8c0.1,0,0.2,0,0.2,0c2.2-0.3,3.5-1.8,3.1-5.1
				c0,0,0.6-3.7,1.7-6.3l22.7-47.6c1.1-1.9,2.2-3.6,3.2-4.9C301.4,226.8,271.3,216.9,254.8,212.5z"/>
			<path class="st1" d="M259.3,289.1l22.7-47.6c1.1-1.9,2.2-3.6,3.2-4.9c16.3-9.8-13.8-19.7-30.4-24.1c-0.5-0.1-1-0.3-1.5-0.4
				c-4-1-7-1.7-8-1.9c-5-1-56.6-20.2-65.3-22.7c-0.3-0.1-0.6-0.1-0.9-0.2c-2.6-0.5-5.1,0.3-7.4,1.7c-3.1,1.8-18.6,17-23,29.1
				c-4.2,11.4-11.1,28.8,5.4,36.7c1.9,0.9,4.1,1.8,6.6,2.7c23.2,8.6,60.4,23.9,69.2,30.4c0.4,0.3,0.8,0.6,1.1,0.9
				c4.5,4.2,17,12.3,23.1,11.8c0.1,0,0.2,0,0.2,0c2.2-0.3,3.5-1.8,3.1-5.1"/>
		</g>
		<path id="XMLID_8050_" class="st1" d="M217,200.6c0,0,56.8,29.9,66.4,31.3"/>
		<g>
			<g>
				<path id="XMLID_8049_" class="st1" d="M169.8,243.7c0,0,1.3-0.8,2,0.3"/>
				<path id="XMLID_8048_" class="st1" d="M166.1,251.3c0,0,0.1,1.9,0.7,2.7"/>
				<path id="XMLID_8047_" class="st1" d="M176.8,246.3c0,0-1.5-1.2-2.4-1.2"/>
				<path id="XMLID_8046_" class="st1" d="M178.7,257.1c0,0,1.3-1.3,1.5-2.3"/>
				<path id="XMLID_8045_" class="st1" d="M180.5,249c0,0,1,1.1,0.2,2"/>
				<path id="XMLID_8044_" class="st1" d="M170,255c0,0,1,0.8,1.3,1.3"/>
				<line id="XMLID_8043_" class="st1" x1="167.6" y1="246.7" x2="166.8" y2="248.4"/>
				<path id="XMLID_8042_" class="st1" d="M174.2,257.4c0,0,1.5,1.1,2.5,1.1"/>
			</g>
			<g>
				<path id="XMLID_8041_" class="st1" d="M284.5,284.3c0,0-2.3,0.3-3-0.9"/>
				<path id="XMLID_8040_" class="st1" d="M277.7,278.6c0,0,0.7,1.7,1.5,2.3"/>
				<path id="XMLID_8039_" class="st1" d="M288.2,283.8c0,0,1.9,0.2,2.7-0.2"/>
			</g>
		</g>
		<g>
			<path id="XMLID_8038_" class="st1" d="M144.5,228c-2.2-0.8-8.2-4.1-10.2-5.1c-1.8-0.9-3.3-1.8-4.4-2.8
				c-15.3,2.1-21.1-23.6-2.4-24.2c5.8-0.2,15.3,4.1,16.9,4.8c2.1,0.9,9.2,3.9,11,4.7c10.3,4.3,12.1,22.9-3.8,23.4"/>
			<path id="XMLID_8030_" class="st1" d="M157.1,206.5c-0.6-0.4-1.2-0.7-1.8-1c-1.8-0.8-8.9-3.8-11-4.7c-1.6-0.7-11-5-16.9-4.8
				c-18.7,0.6-12.8,26.3,2.4,24.2c1.2,0.9,2.6,1.9,4.4,2.8c2,1,7.9,4.3,10.2,5.1l7.1,0.9c12.5-0.4,14-12,9.1-19"/>
		</g>
		<g id="XMLID_7950_">
			<g id="XMLID_8018_">
				<path id="XMLID_8021_" class="st1" d="M88.3,215.1c0,0-19.2,5-7.9,10c11.3,5,24.9,7,25.1,2.3c0.1-4.7-3.2-6.2-3.2-6.2"/>
				<path id="XMLID_8020_" class="st1" d="M87.5,219c0,0-8.5,1.5-5.8,3.9"/>
				<path id="XMLID_8019_" class="st1" d="M92.9,219.3c0,0-4.3,5.6-0.2,6.2c4.1,0.6,7.4-0.6,3.8-3.4"/>
			</g>
			<path id="XMLID_8017_" class="st1" d="M49.1,164.4c0,0,1.9,5.7,5.7,1.2S49.1,159.1,49.1,164.4z"/>
			<path id="XMLID_8016_" class="st1" d="M54.3,176.8c0,0,16.1-32.1,53.3-11.3s44.9,22.5,41.1,42.9c-3.8,20.3-21.7,24.9-32.9,22.6
				S42.3,220.5,54.3,176.8z"/>
			<path id="XMLID_8015_" class="st1" d="M74.7,154.1c-1.4-0.4-3.2-0.5-5.8-0.2c0,0-0.1,0-0.1,0l0,0c-0.5,0.1-1.1,0.1-1.7,0.2
				c-7.3,1.3-13.2,6-17.2,10.8c-20.5,19.3,1,31,9.5,34.6c0.8,0.3,4.3-10.7,5.9-21.5C75.6,167.7,86,158.3,86,158.3
				S79,154.5,74.7,154.1z"/>
			<path id="XMLID_8014_" class="st1" d="M97.7,198.8c0,0,6.9-4.1,7.3-12.8"/>
			<path id="XMLID_8013_" class="st1" d="M92,213.4c0,0-1.9,10.4-3.6,12"/>
			<path id="XMLID_8012_" class="st1" d="M137.9,224.9c0,0,2,5.4,7-2.1s5-13.7,1.3-13.4"/>
			<path id="XMLID_8011_" class="st1" d="M60.2,206.6c0,0,0.1-14.8,9.5-28.3s16.1-19.8,16.1-19.8c-18.4-2-30.4,26.7-35.5,41.7
				c-5.1,14.9,2.1,13.4,2.1,13.4S56,212.5,60.2,206.6z"/>
			<path id="XMLID_8010_" class="st1" d="M60.2,206.6c0,0-17.4,22.2-4.5-13.2s30.1-35,30.1-35S58.6,184.9,60.2,206.6z"/>
			<g>
				<path id="XMLID_8009_" class="st1" d="M99.8,202.1c0,0-9.9,2.9-13.9,1"/>
				<g id="XMLID_8006_">
					<path id="XMLID_8008_" class="st1" d="M96.3,212.9c2.1,0.6,3.7,0.5,4.4-0.7c0.4-0.7,0.6-1.3,0.7-1.8c0.1-0.4,0.1-0.8,0-1.1"/>
					<path id="XMLID_8007_" class="st1" d="M75.4,196.6c0,0,10.3,9.6,18.3,14.4"/>
				</g>
				<g id="XMLID_8000_">
					<path id="XMLID_8005_" class="st1" d="M96.4,215.4c0,0,3.3,6.5,7.7,0"/>
					<path id="XMLID_8004_" class="st1" d="M101.5,203.3c0,0,5.8-3.1,5.8,4.6"/>
					<path id="XMLID_8003_" class="st1" d="M103.2,208.1c0.5-0.6-0.5-2.1,1-2.4c1.5-0.3,0.8,0.4,0.7,1.5
						C104.7,208.3,102.7,208.7,103.2,208.1z"/>
					<path id="XMLID_8002_" class="st1" d="M102.2,215.5c-0.6,1.3-1.8,1.2-2.1,0.2c-0.1-0.3,0.6-0.9,1.3-1.5
						C102,213.8,102.2,215.5,102.2,215.5z"/>
					<path id="XMLID_8001_" class="st1" d="M96.5,207.6c0,0,0.5-1.4,1.1-1.5"/>
				</g>
				<path id="XMLID_7999_" class="st1" d="M98.5,219.3c0,0,0.3,4.6,0.3,5.9"/>
				<path id="XMLID_7998_" class="st1" d="M104.7,201.4c0,0,4-3.6,4.1-4"/>
			</g>
			<path id="XMLID_7997_" class="st1" d="M93.4,174.3c0,0,1.6-0.1,1.7,1.2"/>
			<path id="XMLID_7996_" class="st1" d="M105.3,183.4c0,0,1.1,0.8,1.3,1.3"/>
			<path id="XMLID_7995_" class="st1" d="M82.4,173.4c0,0-2-1.4-2.2-0.9"/>
			<path id="XMLID_7994_" class="st1" d="M61.5,202.6c0,0,1.1-2,1.4-1.6"/>
			<path id="XMLID_7993_" class="st1" d="M70.7,191.4c0,0,0.7-2.6,0.3-2.9"/>
			<path id="XMLID_7992_" class="st1" d="M125.3,227.9c0,0,1.1-1.6,1.5-1.6"/>
			<path id="XMLID_7991_" class="st1" d="M132.2,213.5c0,0,0.1,1.9,0.7,2.7"/>
			<path id="XMLID_7990_" class="st1" d="M86.5,213.8"/>
			<path id="XMLID_7989_" class="st1" d="M92.6,202.8"/>
			<line id="XMLID_7988_" class="st1" x1="112.4" y1="191.6" x2="112.6" y2="189.7"/>
			<path id="XMLID_7987_" class="st1" d="M109,176.9c0,0-8.6-17.9,2.6-12.5s21.4,14.6,17.9,17.7c-3.5,3.1-6.8,1.5-6.8,1.5"/>
			<path id="XMLID_7986_" class="st1" d="M111.5,173.8c0,0-4.3-7.5-0.7-6.9"/>
			<path id="XMLID_7985_" class="st1" d="M115.2,177.7c0,0,1.6-6.9,4.6-4.2s4.3,6.1-0.2,5.1"/>
			<path id="XMLID_7984_" class="st1" d="M76.1,189.3c0,0,7.7,22.6,22.9,4.7S76.1,168.2,76.1,189.3z"/>
			<path id="XMLID_7983_" class="st1" d="M92.9,182.8c0,0,0-4,3.4-2.1C99.6,182.5,94.9,186.4,92.9,182.8z"/>
			<path id="XMLID_7982_" class="st1" d="M73.7,186.8c0,0-2.3,8,5.3,4.8c7.6-3.2,6.8-15.8,4.6-16.1C81.6,175.3,78,174.9,73.7,186.8z
				"/>
			<path id="XMLID_7981_" class="st1" d="M100.3,182.8c0,0,1.8-3.1,2.8-1c0.9,2.1-1.2,2-1,4.9"/>
			<path id="XMLID_7980_" class="st1" d="M98.5,186.3c0,0-3.7,7.4-4.4,12.4"/>
			<g id="XMLID_7968_">
				<path id="XMLID_7979_" class="st1" d="M111,224.1c0,0-3.4,12.8,3.7,7.8C121.9,227,111,224.1,111,224.1z"/>
				<path id="XMLID_7971_" class="st1" d="M106.7,224.5c0,0-4.7,9.8,2.4,7.3s5.2-12.9,3.3-14.5C110.4,215.7,106.7,224.5,106.7,224.5
					z"/>
				<path id="XMLID_7970_" class="st1" d="M117.5,205.5c0,0-3.6,4.2,2.9,5.9c6.5,1.7,9-7.2,7.4-8.4
					C126.2,201.8,123.6,199.8,117.5,205.5z"/>
				<path id="XMLID_7969_" class="st1" d="M114.2,209c0,0-7.7,13.5,5,2.3S123,193.7,114.2,209z"/>
			</g>
			<g id="XMLID_7956_">
				<path id="XMLID_7967_" class="st1" d="M117.5,225.2c0,0,10.4-4.4,4.8-11.5"/>
				<path id="XMLID_7966_" class="st1" d="M117,223.1c0,0-1.3-3,1.5-3.6"/>
				<path id="XMLID_7957_" class="st1" d="M120,215.9c0,0-3,1.2-1.5,3.6"/>
			</g>
			<g>
				<path id="XMLID_7955_" class="st1" d="M63.2,213.4c0,0,7.2-23.5,22-7.8S68,237.6,63.2,213.4z"/>
				<path id="XMLID_7954_" class="st1" d="M74.8,220.7c0,0,0-4,3.4-2.1C81.5,220.4,76.9,224.3,74.8,220.7z"/>
				<path id="XMLID_7953_" class="st1" d="M61.3,207.6c0,0-5.5,11.5,3.2,8.7c8.8-2.7,6.1-15.1,3.6-17.1S61.3,207.6,61.3,207.6z"/>
				<path id="XMLID_7952_" class="st1" d="M82.1,222.7c0,0-0.9,3.5,1.2,2.7c2.1-0.8,0.5-2.3,2.8-4.2"/>
				<path id="XMLID_7951_" class="st1" d="M82.9,218.7c0,0,1-4.8,4.6-9.1"/>
			</g>
		</g>
		<path id="XMLID_7949_" class="st1" d="M156.8,230.4c-0.4,0.4-1,0.8-2,1"/>
		<path id="XMLID_7948_" class="st1" d="M162.4,204.9c0,0,0.7,0.4,1.1,1.2"/>
		<path id="XMLID_7947_" class="st1" d="M160,230.1c4-3,4.8-8.4,3.1-13.1"/>
		<path id="XMLID_7946_" class="st1" d="M166.5,211.8c0,0.2,0,0.4,0,0.7"/>
		<path id="XMLID_7945_" class="st1" d="M272.5,246.9c0,0-60-22.8-67.3-29.1"/>
		<path id="XMLID_7915_" class="st1" d="M231,283.2c0,0,19.8,7.1,20.5,10.6"/>
	</g>
	<path id="XMLID_7843_" class="st1" d="M285.8,247.9c0,0,7.4,1.7,13.5,1.4c6.1-0.3,62.3,6.8,66.8-8.5c4.5-15.3,31.1-75.1,31.1-75.1
		l11.6,3c0,0-37,84.1-36.9,90.6c0.1,6.5-59.6,0.3-85.3,4.9"/>
	<g id="XMLID_7815_">
		<path id="XMLID_7820_" class="st1" d="M397.7,165.1c-0.1,0-0.1,0-0.1,0s-0.6,1.6-1.7,4.5l10.3,5.4c0.4-0.8,0.7-1.3,1-1.6
			c0.5-0.3,0.8-0.4,0.8-0.4s10.5-4.9,18.1-3.8c6.8,1,28,5.7,14.2,0.7c2.8,0.2,3.8-0.4-1.7-3.2c0-0.4-0.2-1.1-0.9-2.1
			c0.5-0.3-0.3-1-3.9-2.4c-10.3-4-27.5-12.5-32.8-11.2C396.3,152,398.9,156.4,397.7,165.1z"/>
		<path id="XMLID_7819_" class="st1" d="M434.7,167.9c23.8,7.8-1.2,2.3-8.7,1.1c-7.5-1.1-18.1,3.8-18.1,3.8s-0.3,0.2-0.8,0.4
			c-0.2,0.3-0.6,0.8-1,1.6l-10.3-5.4c1.1-2.8,1.7-4.5,1.7-4.5s0,0,0.1,0c1.2-8.6-1.4-13.1,3.2-14.2c5.3-1.3,22.4,7.2,32.8,11.2"/>
		<path id="XMLID_7818_" class="st1" d="M431.1,168.1c0,0,21.1,5,5.7-2.4"/>
		<path id="XMLID_7817_" class="st1" d="M437.4,164.2c3.9,5.5-4,1.9-4,1.9"/>
		<path id="XMLID_7816_" class="st1" d="M431.5,164.3c0,0,12.5,1.8,2.2-2.2"/>
	</g>
	<g>
		<path id="XMLID_8077_" class="st1" d="M190,202c0,0-8.9,3.6-12.7,3.4s-62.4,0.7-73.8-6c-11.3-6.7-59.2-26.2-59.2-26.2L39,183
			c0,0,64,24.2,67.2,27.8c3.1,3.7,78.9,4.3,84.6,5.7"/>
		<g id="XMLID_8075_">
			<path id="XMLID_8076_" class="st1" d="M45.2,186.5c-6.4,2.5-8.4,3.2-15.4,3.1s11.1-2.7,8.8-3.1c-2.3-0.4-46.9-9.4-18.8-5.5
				c28.1,3.8,10.9-0.2,10.9-0.2c-34.7-14.4-5.8-5.7-1.1-4.7s-20.4-16.2-7.3-9.5s14.8,6.1,4.4-0.9c-10.4-6.9,15.8,5.3,15.8,5.3
				s8.1,4,6.6,5.8"/>
		</g>
		<path id="XMLID_8073_" class="st1" d="M173,198.1c-2.9-1.5-41.5,2.7-44.8,2.4c-3.3-0.2-3.7,1.1-3.4,10.4c0.3,9.3,61.7,5,67.3,1.2
			c2-1.3,3.9-6.5,5.5-12.8"/>
	</g>
</g>
<g>
	<path id="XMLID_101_" class="st2" d="M269.6,273.3c0,0,6.2,7.1,30.2,18.1s42.5,21.6,57.3,14.3c14.8-7.3,67.9-25.6,69-27.7l3.8,9.1
		c0,0-70.6,28.7-74.2,33.1c-3.6,4.4-28.5,4.8-92.2-30.8"/>
	<g id="XMLID_94_">
		<path id="XMLID_99_" class="st2" d="M430.2,275.5c0-0.1,0-0.1,0-0.1s-1.6,0.7-4.4,1.9l3.5,11.1c0.9-0.3,1.5-0.4,1.9-0.5
			c0.5,0.2,0.9,0.3,0.9,0.3s10.9,4,15.4,10.1c4.1,5.6,15.8,23.8,9.5,10.5c1.8,2.1,3,2.5,1-3.5c0.3-0.3,0.6-0.9,0.8-2.1
			c0.6,0.2,0.5-0.9-1.1-4.5c-4.5-10.2-10.6-28.3-15.2-31.1C438.4,265.2,437.1,270.3,430.2,275.5z"/>
		<path id="XMLID_98_" class="st2" d="M454.3,303.6c11.3,22.4-2.4,0.8-7-5.4c-4.5-6.1-15.4-10.1-15.4-10.1s-0.3-0.1-0.9-0.3
			c-0.4,0-1,0.2-1.9,0.5l-3.5-11.1c2.8-1.2,4.4-1.9,4.4-1.9s0,0,0,0.1c7-5.2,8.3-10.3,12.3-7.8c4.7,2.8,10.8,20.9,15.2,31.1"/>
		<path id="XMLID_97_" class="st2" d="M451.6,301.3c0,0,11.4,18.4,5.7,2.4"/>
		<path id="XMLID_96_" class="st2" d="M458.8,303c-1.1,6.6-4.2-1.5-4.2-1.5"/>
		<path id="XMLID_95_" class="st2" d="M454.6,298.8c0,0,7.6,10.1,3.1,0"/>
	</g>
	<g>
		<path id="XMLID_93_" class="st2" d="M150.9,222.5c0,0-3.4,5.5-7.2,8.9s-33.3,41.4-45.2,35C86.7,259.9,34.8,240,34.8,240l-5.2,8.8
			c0,0,72.6,28.3,76.5,32.2c3.8,4,36-35.6,54.1-48.2"/>
		<g id="XMLID_91_">
			<path id="XMLID_92_" class="st2" d="M36.4,252c-6.4,2.5-8.4,3.2-15.4,3.1s11.1-2.7,8.8-3.1s-46.9-9.4-18.8-5.5
				c28.1,3.8,10.9-0.2,10.9-0.2c-34.7-14.4-5.8-5.7-1.1-4.7s-20.4-16.2-7.3-9.5c13.2,6.7,14.8,6.1,4.4-0.9
				c-10.4-6.9,15.8,5.3,15.8,5.3s8.1,4,6.6,5.8"/>
		</g>
		<path id="XMLID_90_" class="st2" d="M152.6,244.4c-0.9,3.1-30.8,27.9-33,30.4c-2.2,2.5-3.4,1.9-9.9-4.8s39.4-47.7,46-49.1
			c2.3-0.5,7.4,1.8,13,4.9"/>
	</g>
	<g>
		<path class="st2" d="M260.6,214.8l-31.6,69c0,0,18.7,7.3,26,9.8c0.7,0.3,1.4,0.5,2.1,0.7c0.2,0.1,0.5,0.1,0.6,0.1c0,0,0,0,0,0
			c11.6,2.5,26.1-5.8,34.5-25.1c13.6-31.4,4.3-36.3,4.3-36.3c-2.2-2.7-4.6-4.8-7.1-6.2c0-0.1,0.1-0.2,0.1-0.2
			S266.7,215.9,260.6,214.8z"/>
		<g>
			<path class="st3" d="M244.8,203.5c-0.5-0.1-1-0.3-1.5-0.4c-4-1-7-1.7-8-1.9c-5-1-56.6-20.2-65.3-22.7c-0.3-0.1-0.6-0.1-0.9-0.2
				c-2.6-0.5-5.1,0.3-7.4,1.7c-3.1,1.8-18.6,17-23,29.1c-4.2,11.4-11.1,28.8,5.4,36.7c1.9,0.9,4.1,1.8,6.6,2.7
				c23.2,8.6,60.4,23.9,69.2,30.4c0.4,0.3,0.8,0.6,1.1,0.9c4.5,4.2,17,12.3,23.1,11.8c0.1,0,0.2,0,0.2,0c2.2-0.3,3.5-1.8,3.1-5.1
				c0,0,0.6-3.7,1.7-6.3l22.7-47.6c1.1-1.9,2.2-3.6,3.2-4.9C291.4,217.8,261.3,207.9,244.8,203.5z"/>
			<path class="st2" d="M249.3,280.1l22.7-47.6c1.1-1.9,2.2-3.6,3.2-4.9c16.3-9.8-13.8-19.7-30.4-24.1c-0.5-0.1-1-0.3-1.5-0.4
				c-4-1-7-1.7-8-1.9c-5-1-56.6-20.2-65.3-22.7c-0.3-0.1-0.6-0.1-0.9-0.2c-2.6-0.5-5.1,0.3-7.4,1.7c-3.1,1.8-18.6,17-23,29.1
				c-4.2,11.4-11.1,28.8,5.4,36.7c1.9,0.9,4.1,1.8,6.6,2.7c23.2,8.6,60.4,23.9,69.2,30.4c0.4,0.3,0.8,0.6,1.1,0.9
				c4.5,4.2,17,12.3,23.1,11.8c0.1,0,0.2,0,0.2,0c2.2-0.3,3.5-1.8,3.1-5.1"/>
		</g>
		<path id="XMLID_89_" class="st2" d="M207,191.6c0,0,56.8,29.9,66.4,31.3"/>
		<g>
			<g>
				<path id="XMLID_88_" class="st2" d="M159.8,234.7c0,0,1.3-0.8,2,0.3"/>
				<path id="XMLID_87_" class="st2" d="M156.1,242.3c0,0,0.1,1.9,0.7,2.7"/>
				<path id="XMLID_86_" class="st2" d="M166.8,237.3c0,0-1.5-1.2-2.4-1.2"/>
				<path id="XMLID_85_" class="st2" d="M168.7,248.1c0,0,1.3-1.3,1.5-2.3"/>
				<path id="XMLID_84_" class="st2" d="M170.5,240c0,0,1,1.1,0.2,2"/>
				<path id="XMLID_83_" class="st2" d="M160,246c0,0,1,0.8,1.3,1.3"/>
				<line id="XMLID_82_" class="st2" x1="157.6" y1="237.7" x2="156.8" y2="239.4"/>
				<path id="XMLID_81_" class="st2" d="M164.2,248.4c0,0,1.5,1.1,2.5,1.1"/>
			</g>
			<g>
				<path id="XMLID_80_" class="st2" d="M274.5,275.3c0,0-2.3,0.3-3-0.9"/>
				<path id="XMLID_79_" class="st2" d="M267.7,269.6c0,0,0.7,1.7,1.5,2.3"/>
				<path id="XMLID_78_" class="st2" d="M278.2,274.8c0,0,1.9,0.2,2.7-0.2"/>
			</g>
		</g>
		<g>
			<path id="XMLID_77_" class="st3" d="M134.5,219c-2.2-0.8-8.2-4.1-10.2-5.1c-1.8-0.9-3.3-1.8-4.4-2.8
				c-15.3,2.1-21.1-23.6-2.4-24.2c5.8-0.2,15.3,4.1,16.9,4.8c2.1,0.9,9.2,3.9,11,4.7c10.3,4.3,12.1,22.9-3.8,23.4"/>
			<path id="XMLID_76_" class="st4" d="M147.1,197.5c-0.6-0.4-1.2-0.7-1.8-1c-1.8-0.8-8.9-3.8-11-4.7c-1.6-0.7-11-5-16.9-4.8
				c-18.7,0.6-12.8,26.3,2.4,24.2c1.2,0.9,2.6,1.9,4.4,2.8c2,1,7.9,4.3,10.2,5.1l7.1,0.9c12.5-0.4,14-12,9.1-19"/>
		</g>
		<g id="XMLID_19_">
			<g id="XMLID_72_">
				<path id="XMLID_75_" class="st2" d="M78.3,206.1c0,0-19.2,5-7.9,10c11.3,5,24.9,7,25.1,2.3c0.1-4.7-3.2-6.2-3.2-6.2"/>
				<path id="XMLID_74_" class="st2" d="M77.5,210c0,0-8.5,1.5-5.8,3.9"/>
				<path id="XMLID_73_" class="st2" d="M82.9,210.3c0,0-4.3,5.6-0.2,6.2c4.1,0.6,7.4-0.6,3.8-3.4"/>
			</g>
			<path id="XMLID_71_" class="st2" d="M39.1,155.4c0,0,1.9,5.7,5.7,1.2S39.1,150.1,39.1,155.4z"/>
			<path id="XMLID_70_" class="st2" d="M44.3,167.8c0,0,16.1-32.1,53.3-11.3s44.9,22.5,41.1,42.9c-3.8,20.3-21.7,24.9-32.9,22.6
				S32.3,211.5,44.3,167.8z"/>
			<path id="XMLID_69_" class="st2" d="M64.7,145.1c-1.4-0.4-3.2-0.5-5.8-0.2c0,0-0.1,0-0.1,0l0,0c-0.5,0.1-1.1,0.1-1.7,0.2
				c-7.3,1.3-13.2,6-17.2,10.8c-20.5,19.3,1,31,9.5,34.6c0.8,0.3,4.3-10.7,5.9-21.5C65.6,158.7,76,149.3,76,149.3
				S69,145.5,64.7,145.1z"/>
			<path id="XMLID_68_" class="st2" d="M87.7,189.8c0,0,6.9-4.1,7.3-12.8"/>
			<path id="XMLID_67_" class="st2" d="M82,204.4c0,0-1.9,10.4-3.6,12"/>
			<path id="XMLID_66_" class="st2" d="M127.9,215.9c0,0,2,5.4,7-2.1s5-13.7,1.3-13.4"/>
			<path id="XMLID_65_" class="st2" d="M50.2,197.6c0,0,0.1-14.8,9.5-28.3s16.1-19.8,16.1-19.8c-18.4-2-30.4,26.7-35.5,41.7
				c-5.1,14.9,2.1,13.4,2.1,13.4S46,203.5,50.2,197.6z"/>
			<path id="XMLID_64_" class="st2" d="M50.2,197.6c0,0-17.4,22.2-4.5-13.2s30.1-35,30.1-35S48.6,175.9,50.2,197.6z"/>
			<g>
				<path id="XMLID_63_" class="st2" d="M89.8,193.1c0,0-9.9,2.9-13.9,1"/>
				<g id="XMLID_60_">
					<path id="XMLID_62_" class="st2" d="M86.3,203.9c2.1,0.6,3.7,0.5,4.4-0.7c0.4-0.7,0.6-1.3,0.7-1.8c0.1-0.4,0.1-0.8,0-1.1"/>
					<path id="XMLID_61_" class="st2" d="M65.4,187.6c0,0,10.3,9.6,18.3,14.4"/>
				</g>
				<g id="XMLID_54_">
					<path id="XMLID_59_" class="st2" d="M86.4,206.4c0,0,3.3,6.5,7.7,0"/>
					<path id="XMLID_58_" class="st2" d="M91.5,194.3c0,0,5.8-3.1,5.8,4.6"/>
					<path id="XMLID_57_" class="st2" d="M93.2,199.1c0.5-0.6-0.5-2.1,1-2.4c1.5-0.3,0.8,0.4,0.7,1.5
						C94.7,199.3,92.7,199.7,93.2,199.1z"/>
					<path id="XMLID_56_" class="st2" d="M92.2,206.5c-0.6,1.3-1.8,1.2-2.1,0.2c-0.1-0.3,0.6-0.9,1.3-1.5
						C92,204.8,92.2,206.5,92.2,206.5z"/>
					<path id="XMLID_55_" class="st2" d="M86.5,198.6c0,0,0.5-1.4,1.1-1.5"/>
				</g>
				<path id="XMLID_53_" class="st2" d="M88.5,210.3c0,0,0.3,4.6,0.3,5.9"/>
				<path id="XMLID_52_" class="st2" d="M94.7,192.4c0,0,4-3.6,4.1-4"/>
			</g>
			<path id="XMLID_51_" class="st2" d="M83.4,165.3c0,0,1.6-0.1,1.7,1.2"/>
			<path id="XMLID_50_" class="st2" d="M95.3,174.4c0,0,1.1,0.8,1.3,1.3"/>
			<path id="XMLID_49_" class="st2" d="M72.4,164.4c0,0-2-1.4-2.2-0.9"/>
			<path id="XMLID_48_" class="st2" d="M51.5,193.6c0,0,1.1-2,1.4-1.6"/>
			<path id="XMLID_47_" class="st2" d="M60.7,182.4c0,0,0.7-2.6,0.3-2.9"/>
			<path id="XMLID_46_" class="st2" d="M115.3,218.9c0,0,1.1-1.6,1.5-1.6"/>
			<path id="XMLID_45_" class="st2" d="M122.2,204.5c0,0,0.1,1.9,0.7,2.7"/>
			<path id="XMLID_44_" class="st2" d="M76.5,204.8"/>
			<path id="XMLID_43_" class="st2" d="M82.6,193.8"/>
			<line id="XMLID_42_" class="st2" x1="102.4" y1="182.6" x2="102.6" y2="180.7"/>
			<path id="XMLID_41_" class="st2" d="M99,167.9c0,0-8.6-17.9,2.6-12.5s21.4,14.6,17.9,17.7c-3.5,3.1-6.8,1.5-6.8,1.5"/>
			<path id="XMLID_40_" class="st2" d="M101.5,164.8c0,0-4.3-7.5-0.7-6.9"/>
			<path id="XMLID_39_" class="st2" d="M105.2,168.7c0,0,1.6-6.9,4.6-4.2s4.3,6.1-0.2,5.1"/>
			<path id="XMLID_38_" class="st2" d="M66.1,180.3c0,0,7.7,22.6,22.9,4.7S66.1,159.2,66.1,180.3z"/>
			<path id="XMLID_37_" class="st2" d="M82.9,173.8c0,0,0-4,3.4-2.1C89.6,173.5,84.9,177.4,82.9,173.8z"/>
			<path id="XMLID_36_" class="st2" d="M63.7,177.8c0,0-2.3,8,5.3,4.8c7.6-3.2,6.8-15.8,4.6-16.1C71.6,166.3,68,165.9,63.7,177.8z"
				/>
			<path id="XMLID_35_" class="st2" d="M90.3,173.8c0,0,1.8-3.1,2.8-1c0.9,2.1-1.2,2-1,4.9"/>
			<path id="XMLID_34_" class="st2" d="M88.5,177.3c0,0-3.7,7.4-4.4,12.4"/>
			<g id="XMLID_29_">
				<path id="XMLID_33_" class="st2" d="M101,215.1c0,0-3.4,12.8,3.7,7.8C111.9,218,101,215.1,101,215.1z"/>
				<path id="XMLID_32_" class="st2" d="M96.7,215.5c0,0-4.7,9.8,2.4,7.3s5.2-12.9,3.3-14.5C100.4,206.7,96.7,215.5,96.7,215.5z"/>
				<path id="XMLID_31_" class="st2" d="M107.5,196.5c0,0-3.6,4.2,2.9,5.9c6.5,1.7,9-7.2,7.4-8.4
					C116.2,192.8,113.6,190.8,107.5,196.5z"/>
				<path id="XMLID_30_" class="st2" d="M104.2,200c0,0-7.7,13.5,5,2.3S113,184.7,104.2,200z"/>
			</g>
			<g id="XMLID_25_">
				<path id="XMLID_28_" class="st2" d="M107.5,216.2c0,0,10.4-4.4,4.8-11.5"/>
				<path id="XMLID_27_" class="st2" d="M107,214.1c0,0-1.3-3,1.5-3.6"/>
				<path id="XMLID_26_" class="st2" d="M110,206.9c0,0-3,1.2-1.5,3.6"/>
			</g>
			<g>
				<path id="XMLID_24_" class="st2" d="M53.2,204.4c0,0,7.2-23.5,22-7.8S58,228.6,53.2,204.4z"/>
				<path id="XMLID_23_" class="st2" d="M64.8,211.7c0,0,0-4,3.4-2.1C71.5,211.4,66.9,215.3,64.8,211.7z"/>
				<path id="XMLID_22_" class="st2" d="M51.3,198.6c0,0-5.5,11.5,3.2,8.7c8.8-2.7,6.1-15.1,3.6-17.1S51.3,198.6,51.3,198.6z"/>
				<path id="XMLID_21_" class="st2" d="M72.1,213.7c0,0-0.9,3.5,1.2,2.7c2.1-0.8,0.5-2.3,2.8-4.2"/>
				<path id="XMLID_20_" class="st2" d="M72.9,209.7c0,0,1-4.8,4.6-9.1"/>
			</g>
		</g>
		<path id="XMLID_18_" class="st2" d="M146.8,221.4c-0.4,0.4-1,0.8-2,1"/>
		<path id="XMLID_17_" class="st2" d="M152.4,195.9c0,0,0.7,0.4,1.1,1.2"/>
		<path id="XMLID_16_" class="st4" d="M150,221.1c4-3,4.8-8.4,3.1-13.1"/>
		<path id="XMLID_15_" class="st2" d="M156.5,202.8c0,0.2,0,0.4,0,0.7"/>
		<path id="XMLID_14_" class="st2" d="M262.5,237.9c0,0-60-22.8-67.3-29.1"/>
		<path id="XMLID_13_" class="st2" d="M221,274.2c0,0,19.8,7.1,20.5,10.6"/>
	</g>
	<path id="XMLID_12_" class="st2" d="M275.8,238.9c0,0,7.4,1.7,13.5,1.4c6.1-0.3,62.3,6.8,66.8-8.5c4.5-15.3,31.1-75.1,31.1-75.1
		l11.6,3c0,0-37,84.1-36.9,90.6c0.1,6.5-59.6,0.3-85.3,4.9"/>
	<g id="XMLID_5_">
		<path id="XMLID_10_" class="st2" d="M387.7,156.1c-0.1,0-0.1,0-0.1,0s-0.6,1.6-1.7,4.5l10.3,5.4c0.4-0.8,0.7-1.3,1-1.6
			c0.5-0.3,0.8-0.4,0.8-0.4s10.5-4.9,18.1-3.8c6.8,1,28,5.7,14.2,0.7c2.8,0.2,3.8-0.4-1.7-3.2c0-0.4-0.2-1.1-0.9-2.1
			c0.5-0.3-0.3-1-3.9-2.4c-10.3-4-27.5-12.5-32.8-11.2C386.3,143,388.9,147.4,387.7,156.1z"/>
		<path id="XMLID_9_" class="st2" d="M424.7,158.9c23.8,7.8-1.2,2.3-8.7,1.1c-7.5-1.1-18.1,3.8-18.1,3.8s-0.3,0.2-0.8,0.4
			c-0.2,0.3-0.6,0.8-1,1.6l-10.3-5.4c1.1-2.8,1.7-4.5,1.7-4.5s0,0,0.1,0c1.2-8.6-1.4-13.1,3.2-14.2c5.3-1.3,22.4,7.2,32.8,11.2"/>
		<path id="XMLID_8_" class="st2" d="M421.1,159.1c0,0,21.1,5,5.7-2.4"/>
		<path id="XMLID_7_" class="st2" d="M427.4,155.2c3.9,5.5-4,1.9-4,1.9"/>
		<path id="XMLID_6_" class="st2" d="M421.5,155.3c0,0,12.5,1.8,2.2-2.2"/>
	</g>
	<g>
		<path id="XMLID_4_" class="st2" d="M180,193c0,0-8.9,3.6-12.7,3.4s-62.4,0.7-73.8-6c-11.3-6.7-59.2-26.2-59.2-26.2L29,174
			c0,0,64,24.2,67.2,27.8c3.1,3.7,78.9,4.3,84.6,5.7"/>
		<g id="XMLID_2_">
			<path id="XMLID_3_" class="st2" d="M35.2,177.5c-6.4,2.5-8.4,3.2-15.4,3.1s11.1-2.7,8.8-3.1s-46.9-9.4-18.8-5.5
				c28.1,3.8,10.9-0.2,10.9-0.2c-34.7-14.4-5.8-5.7-1.1-4.7s-20.4-16.2-7.3-9.5s14.8,6.1,4.4-0.9c-10.4-6.9,15.8,5.3,15.8,5.3
				s8.1,4,6.6,5.8"/>
		</g>
		<path id="XMLID_1_" class="st2" d="M163,189.1c-2.9-1.5-41.5,2.7-44.8,2.4c-3.3-0.2-3.7,1.1-3.4,10.4c0.3,9.3,61.7,5,67.3,1.2
			c2-1.3,3.9-6.5,5.5-12.8"/>
	</g>
</g>
</svg>
