<?xml version="1.0" encoding="utf-8"?>
<!-- Generator: Adobe Illustrator 22.1.0, SVG Export Plug-In . SVG Version: 6.00 Build 0)  -->
<svg version="1.1" id="Layer_1" xmlns="http://www.w3.org/2000/svg" xmlns:xlink="http://www.w3.org/1999/xlink" x="0px" y="0px"
	 viewBox="0 0 27 16.6" style="enable-background:new 0 0 27 16.6;" xml:space="preserve">
<style type="text/css">
	.st0{fill:#FFD767;stroke:#584C4F;stroke-width:2;stroke-miterlimit:10;}
</style>
<g id="Layer_5">
</g>
<g id="Layer_3">
</g>
<g id="XMLID_4_">
	<path id="XMLID_6_" class="st0" d="M24.8,2.9c0,0-7.7-5.3-11,4.1s4.8,10.9,4.6,5.1c-0.2-5.7,1.8-6.2,4-5.3
		C24.6,7.7,27.8,6.8,24.8,2.9z"/>
	<path id="XMLID_5_" class="st0" d="M18.3,3.5c0,0-0.5-3.5-3.7-1.7c-3.1,1.9,0.2,4.9,0.2,4.9"/>
</g>
<g id="XMLID_7_">
	<g id="XMLID_9_">
		<path id="XMLID_14_" class="st0" d="M9,3.6"/>
		<path id="XMLID_11_" class="st0" d="M12.8,2.7C6.7-1.8,2,3.8,2,3.8s-3.9,8.9,3.5,11.3C13,17.5,18.9,7.2,12.8,2.7z M10.1,7.2
			c2.1,4.7-7.3,3.4-4.8,0.1C5.3,7.4,8,2.5,10.1,7.2z"/>
		<path id="XMLID_10_" class="st0" d="M10.5,2.2"/>
	</g>
</g>
</svg>
