<?xml version="1.0" encoding="utf-8"?>
<!-- Generator: Adobe Illustrator 22.1.0, SVG Export Plug-In . SVG Version: 6.00 Build 0)  -->
<svg version="1.1" id="Layer_1" xmlns="http://www.w3.org/2000/svg" xmlns:xlink="http://www.w3.org/1999/xlink" x="0px" y="0px"
	 viewBox="0 0 455.7 306.5" style="enable-background:new 0 0 455.7 306.5;" xml:space="preserve">
<style type="text/css">
	.st0{opacity:0.1;}
	.st1{fill:#9CB767;stroke:#90A55E;stroke-miterlimit:10;}
	.st2{fill:#A9D277;stroke:#90A55E;stroke-linecap:round;stroke-miterlimit:10;}
	.st3{fill:#A9D277;}
	.st4{fill:none;stroke:#90A55E;stroke-linecap:round;stroke-miterlimit:10;}
	.st5{fill:#FCF4E9;stroke:#90A55E;stroke-width:1.25;stroke-linecap:round;stroke-miterlimit:10;}
	.st6{fill:#FCF4E9;}
	.st7{fill:none;stroke:#90A55E;stroke-width:1.25;stroke-linecap:round;stroke-miterlimit:10;}
	.st8{fill:#90A55E;stroke:#90A55E;stroke-width:1.25;stroke-linecap:round;stroke-miterlimit:10;}
	.st9{fill:#A5C670;stroke:#90A55E;stroke-linecap:round;stroke-miterlimit:10;}
</style>
<g class="st0">
	<path class="st1" d="M292,267.8c-0.1-0.2-0.3-0.4-0.4-0.6c0-0.1-0.1-0.1-0.1-0.2c-0.1-0.2-0.2-0.3-0.3-0.4
		c-0.1-0.1-0.1-0.1-0.2-0.2c-0.1-0.1-0.3-0.3-0.4-0.4c-0.1-0.1-0.1-0.1-0.2-0.2c-0.2-0.2-0.4-0.4-0.6-0.5c0,0,0,0,0,0
		c-0.2-0.2-0.4-0.3-0.7-0.4c-0.1,0-0.2-0.1-0.2-0.1c-0.2-0.1-0.4-0.2-0.6-0.3c-0.1,0-0.2-0.1-0.3-0.1c-0.2-0.1-0.4-0.2-0.6-0.2
		c-0.1,0-0.2-0.1-0.3-0.1c-0.3-0.1-0.6-0.2-1-0.3c0,0,0,0,0,0c0,0,0,0,0,0c-0.5-0.1-0.9-0.2-1.3-0.2c-0.1,0-0.3,0-0.4,0
		c-0.3,0-0.6,0-0.8,0c-0.2,0-0.3,0-0.5,0c-0.2,0-0.5,0-0.7,0c-0.1,0-0.3,0-0.4,0c-0.2,0-0.5,0.1-0.7,0.1c-0.1,0-0.3,0.1-0.4,0.1
		c-0.2,0.1-0.4,0.1-0.6,0.2c-0.1,0-0.2,0.1-0.3,0.1c-0.2,0.1-0.4,0.2-0.7,0.3c-0.1,0-0.2,0.1-0.2,0.1c-0.3,0.1-0.5,0.3-0.8,0.4
		c0,0,0,0,0,0c-0.3,0.2-0.5,0.3-0.8,0.5c-0.2-0.2-0.5-0.3-0.8-0.5c0,0,0,0-0.1,0c-0.2-0.1-0.5-0.3-0.7-0.4c-0.1,0-0.2-0.1-0.2-0.1
		c-0.2-0.1-0.5-0.2-0.7-0.3c-0.1,0-0.2-0.1-0.3-0.1c-0.3-0.1-0.7-0.2-1-0.3c0,0,0,0,0,0c0,0,0,0,0,0c-0.3-0.1-0.6-0.1-0.9-0.2
		c-0.1,0-0.2,0-0.3,0c-0.2,0-0.4-0.1-0.6-0.1c-0.1,0-0.2,0-0.3,0c-0.2,0-0.4,0-0.6,0c-0.1,0-0.2,0-0.2,0c-0.2,0-0.4,0-0.6,0
		c-0.1,0-0.1,0-0.2,0c-0.2,0-0.4,0-0.6,0.1c0,0-0.1,0-0.1,0c-0.2,0-0.4,0.1-0.6,0.1c0,0-0.1,0-0.1,0c-0.2,0.1-0.4,0.1-0.6,0.2
		c0,0,0,0,0,0c-0.2,0.1-0.4,0.1-0.7,0.2c-0.1-0.1-0.2-0.2-0.3-0.3c0,0-0.1-0.1-0.1-0.1c-0.1,0-0.1-0.1-0.2-0.1
		c-0.1,0-0.1-0.1-0.2-0.1c-0.1,0-0.1-0.1-0.2-0.1c-0.1,0-0.1,0-0.2,0c-0.1,0-0.2,0-0.2,0c0,0-0.1,0-0.1,0c-0.1,0-0.3,0-0.4,0
		c-0.1,0-0.1,0-0.2,0c-0.1,0-0.2,0-0.2,0c-0.1,0-0.1,0-0.2,0c-0.1,0-0.2,0-0.2,0c-0.1,0-0.1,0-0.2,0c-0.1,0-0.2,0-0.3,0.1
		c-0.1,0-0.1,0-0.2,0c-0.1,0-0.3,0.1-0.4,0.1c0,0-0.1,0-0.1,0c-0.1,0-0.2,0.1-0.3,0.1c-0.1,0-0.1,0-0.2,0.1c-0.1,0-0.2,0.1-0.2,0.1
		c-0.1,0-0.1,0-0.2,0.1c-0.1,0-0.1,0.1-0.2,0.1c-0.1,0.1-0.3,0.1-0.4,0.2c-0.1,0-0.1,0.1-0.2,0.2c0,0,0,0,0,0.1
		c-0.1,0.1-0.1,0.2-0.2,0.4c0,0,0,0,0,0.1c-0.1,0.1-0.1,0.3-0.2,0.5c0,0,0,0.1,0,0.1c-0.1,0.2-0.1,0.4-0.1,0.7c0,0,0,0,0,0.1
		c-0.1,0.5-0.2,1.1-0.2,1.8c0,0,0,0,0,0c-0.1,0.7-0.1,1.4-0.1,2.2c0,0,0,0,0,0c-0.7-1.4-1.6-2.3-2.6-2.8c0,0-0.2-0.1-0.4-0.1
		c-0.2-0.3-0.4-0.7-0.6-0.9c0,0,0,0,0,0c-0.2-0.3-0.4-0.5-0.6-0.7c0,0,0,0-0.1-0.1c-0.2-0.2-0.4-0.4-0.6-0.6c0,0,0,0-0.1,0
		c-0.2-0.2-0.4-0.3-0.7-0.4c0,0,0,0,0,0c0,0,0,0,0,0c0,0,0,0-0.1,0c0,0,0,0,0,0c0,0-0.1,0-0.1,0c0,0,0,0,0,0
		c-1.6-0.5-10.3-2.9-13.6,5.2c-0.7-0.8-1.5-1.6-2.4-2.2c-0.1-0.2-0.3-0.3-0.4-0.5c0,0,0,0,0-0.1c-0.3-0.4-0.7-0.8-1-1.2
		c-0.1-0.1-0.2-0.2-0.2-0.2c-0.1-0.1-0.2-0.1-0.2-0.2c-0.1-0.1-0.2-0.2-0.3-0.2c-0.1-0.1-0.2-0.1-0.2-0.2c-0.1-0.1-0.2-0.1-0.3-0.2
		c-0.1-0.1-0.2-0.1-0.3-0.2c-0.1-0.1-0.2-0.1-0.3-0.2c-0.1-0.1-0.2-0.1-0.3-0.1c-0.1-0.1-0.2-0.1-0.3-0.2c-0.1,0-0.2-0.1-0.3-0.1
		c-0.1,0-0.2-0.1-0.4-0.1c-0.1,0-0.2-0.1-0.3-0.1c-0.1,0-0.3-0.1-0.4-0.1c-0.1,0-0.2,0-0.3-0.1c-0.1,0-0.3,0-0.5,0
		c-0.1,0-0.2,0-0.4,0c-0.2,0-0.3,0-0.5,0c-0.1,0-0.3,0-0.4,0c-0.2,0-0.4,0-0.6,0.1c-0.1,0-0.3,0-0.4,0.1c-0.2,0-0.5,0.1-0.7,0.2
		c-0.1,0-0.2,0-0.3,0.1c-0.4,0.1-0.7,0.2-1.1,0.3c-1.2,0.4-2.1,1-2.9,1.8c0,0-0.1,0.1-0.1,0.1c-0.4,0.5-0.8,1-1.1,1.5
		c-0.3,0.6-0.6,1.2-0.7,1.8s-0.3,1.2-0.4,1.8c0,0.3-0.1,0.6-0.1,0.8c0,0.8,0,1.5,0,2.1c0,0.2,0,0.4,0.1,0.6c0,0.2,0.1,0.4,0.1,0.5
		c0,0,0,0,0,0c0,0,0,0.1,0,0.1c0,0.1,0,0.1,0.1,0.2c0,0,0,0,0,0c0.1,0.3,0.2,0.6,0.4,1.1c0,0,0,0,0,0c0.2,0.5,0.4,1,0.7,1.6
		c0,0,0,0,0,0c0.1,0.2,0.2,0.4,0.3,0.6c0,0,0,0,0,0c0.2,0.4,0.5,0.8,0.8,1.2c0,0,0,0,0,0c0.1,0.2,0.3,0.4,0.4,0.5c0,0,0,0,0,0
		c0.3,0.4,0.6,0.7,1,1c0,0,0,0,0,0c0.2,0.1,0.3,0.3,0.5,0.4c0,0,0.1,0,0.1,0.1c0.2,0.1,0.4,0.3,0.6,0.4c1.9,2.8,5.2,5.5,10.3,2.5
		c2.6-1.5,3.8-2.8,4.2-3.8l0,0c0.2,0.2,0.4,0.4,0.7,0.6c0,0,0,0,0,0c0.2,0.2,0.5,0.3,0.7,0.5c0,0,0,0,0,0c2,3.6,6.4,4.5,7.2,4.4
		c1.1-0.1,8.8-0.7,10.9-4.9c0.1,0.2,0.2,0.3,0.3,0.5c0,0,0,0,0.1,0.1c0.1,0.1,0.2,0.2,0.4,0.3l0,0l0,0c0.2,0.1,0.3,0.2,0.5,0.2
		c0.1,0,0.1,0,0.2,0.1c0.1,0,0.2,0.1,0.3,0.1c0.1,0,0.1,0,0.2,0c0.1,0,0.1,0,0.2,0c0.1,0,0.1,0,0.2,0c0.4,1.3,0.9,2.3,1.5,2.6
		c2.9,1.5,4.7-1.8,4.7-1.8c0.4-1.5,0.6-5.4,0.6-9c0.1-0.3,0.3-0.6,0.5-0.8c0.5-0.4,1.4-0.6,2.4-0.6c-0.3,1.7-0.4,3.5-0.4,4.8l0,0
		c0,0.2,0,0.4,0,0.7c0,0.4,0,0.8,0,1c0,0.1,0,0.2,0,0.3c0,0.1,0,0.2,0,0.3c0.1,0.8,0.6,1.9,2.7,2.2c0,0,0.1,0,0.1,0c0,0,0,0,0,0
		c0,0,0.1,0,0.1,0c0,0.2,0,0.3,0,0.4c0,0.7,0.3,2.3,2.9,2.6c3.4,0.4,3.8-0.7,3.8-3.1c0-1.2,0.6-4.4,0.2-7.7c0.1-0.4,0.3-0.7,0.5-0.9
		c0.5-0.4,1.4-0.6,2.4-0.6c0,0,0,0,0,0c-0.3,1.7-0.4,3.5-0.4,4.7c0,0,0,0,0,0c0,0.9,0,1.7,0,1.9c0,0.2,0,0.4,0.1,0.7
		c0.1,0.5,0.5,1.1,1.3,1.5c0.3,0.2,0.7,0.3,1.2,0.4c0.1,0,0.2,0,0.3,0.1c0,0,0,0,0,0c0,0,0.1,0,0.1,0c0,0.2,0,0.3,0,0.4
		c0,0.7,0.3,2.3,2.9,2.6c3.4,0.4,3.8-0.7,3.8-3.1C296.1,280.5,298.2,271.3,292,267.8z M252.6,274.2c0,0.2,0,0.4-0.1,0.5c0,0,0,0,0,0
		c0,0.1,0,0.1,0,0.1c0,0,0,0,0,0c0,0,0,0,0,0c0,0,0,0,0,0c0,0.1-0.1,0.1-0.1,0.2c0,0,0,0-0.1,0.1c0,0-0.1,0.1-0.1,0.1
		c0,0-0.1,0.1-0.1,0.1c0,0-0.1,0.1-0.1,0.1c0,0-0.1,0.1-0.1,0.1c0,0-0.1,0.1-0.1,0.1c-0.1,0-0.1,0.1-0.2,0.1c-0.1,0-0.1,0.1-0.2,0.1
		c-0.1,0-0.1,0.1-0.2,0.1c-0.1,0-0.1,0.1-0.2,0.1c-0.1,0-0.2,0.1-0.2,0.1c-0.1,0-0.1,0-0.2,0.1c-0.1,0-0.2,0.1-0.3,0.1
		C250.3,275.6,250.8,274.2,252.6,274.2C252.6,274.2,252.6,274.2,252.6,274.2z M237.5,273c0.2,0.2,0.4,0.5,0.5,0.7
		c0,0,0.2,1.1,0.8,1.8c-0.6-0.4-1.2-0.6-1.7-0.7c0,0,0,0,0,0c-0.1,0-0.2,0-0.3,0c0,0,0,0,0,0c-0.1,0-0.1,0-0.2,0c0,0,0,0,0,0
		c-0.1,0-0.1,0-0.1,0c-0.1,0-0.2,0.1-0.4,0.2c-0.1,0.1-0.2,0.2-0.3,0.3c-0.2,0.2-0.4,0.5-0.7,0.8c-0.1,0.1-0.1,0.2-0.2,0.2
		c-0.1,0.1-0.1,0.2-0.2,0.2c0,0-0.1,0.1-0.1,0.1c-0.1,0.1-0.4,0.3-0.4,0.4c0,0,0,0,0,0c-0.2,0.1-0.3,0.1-0.5,0.2c0,0,0,0,0,0
		c-0.2,0.1-0.4,0.1-0.6,0.2c0,0,0,0,0,0c-0.4,0.1-0.9,0.2-1.4,0.2c0,0,0,0,0,0c0-0.2,0-0.3,0-0.4c0-0.4,0-0.8,0.1-1.2
		c0.3-3.1,1.3-4.5,2.3-4.6c0.4,0,0.9,0,1.4,0.1c0,0,0,0,0,0c0,0.1,0.1,0.2,0.1,0.3c0,0,0,0,0,0c0,0.1,0.1,0.2,0.1,0.3c0,0,0,0,0,0
		c0.1,0.2,0.2,0.3,0.4,0.5c0,0,0,0,0.1,0.1c0.1,0,0.1,0.1,0.2,0.1c0,0,0.1,0,0.1,0.1c0.1,0,0.1,0.1,0.2,0.1c0,0,0.1,0,0.1,0
		c0.1,0,0.1,0,0.2,0c0,0,0.1,0,0.1,0c0.1,0,0.2,0,0.3,0c0,0,0,0,0,0c0,0,0,0,0,0C237.3,273,237.4,273,237.5,273
		C237.5,273,237.5,273,237.5,273z M239.9,277.7c0-0.2,0-0.3,0-0.5c0,0,0,0,0-0.1c0-0.1,0-0.3-0.1-0.4c0,0,0,0,0,0
		c-0.1-0.3-0.3-0.5-0.5-0.8c0,0,0,0,0,0c0.2,0.1,0.5,0.2,0.8,0.1c0,0,0,0,0,0c0,0.3,0.1,0.6,0.2,0.9c0,0,0,0.1,0,0.1
		c0.1,0.3,0.1,0.5,0.2,0.8C240.3,277.8,240.1,277.8,239.9,277.7C239.9,277.7,239.9,277.7,239.9,277.7z"/>
	<path class="st1" d="M220.9,283.2c0-0.6-0.1-1.3-0.6-1.8c-0.3-0.4-0.8-0.7-1.5-0.8c-0.2,0-0.3-0.1-0.5-0.1c-0.1,0-0.3,0-0.4,0
		c0-0.1,0-0.2,0-0.3c0,0,0-0.1,0-0.1c0-0.1,0-0.2,0-0.3c0,0,0,0,0-0.1c0-0.1-0.1-0.3-0.1-0.4c0,0,0-0.1,0-0.1c0-0.1-0.1-0.2-0.1-0.3
		c0,0,0-0.1-0.1-0.1c-0.1-0.1-0.1-0.2-0.2-0.3c0,0,0,0,0-0.1c-0.1-0.1-0.2-0.2-0.3-0.3c0,0-0.1-0.1-0.1-0.1
		c-0.1-0.1-0.2-0.1-0.4-0.2c0,0-0.1,0-0.2-0.1c-0.2-0.1-0.4-0.1-0.6-0.2c-0.4-0.1-0.7-0.1-1-0.1s-0.5,0.1-0.8,0.2
		c-0.2,0.1-0.4,0.2-0.6,0.3s-0.3,0.3-0.4,0.4c-0.3,0.5-0.5,1-0.5,1.3c0,0.1,0,0.2,0,0.2s0,0.1,0,0.2c0,0.2,0.1,0.6,0.3,0.9
		c0,0.1,0.1,0.2,0.1,0.3c0.3,0.8,1,1.7,2,1.4c0.2,0,0.4-0.1,0.6-0.1c0,0.1,0,0.2,0,0.3c0,0,0,0.1,0,0.2c0,0.2,0.1,0.6,0.3,0.9
		c0,0.1,0.1,0.2,0.1,0.3c0.3,0.8,1,1.7,2,1.4c0.4-0.1,0.7-0.2,1-0.2c0.1,0,0.3-0.1,0.4-0.1c0.2-0.1,0.3-0.1,0.5-0.2
		c0.3-0.2,0.5-0.3,0.7-0.5c0.1-0.1,0.1-0.1,0.2-0.2c0-0.1,0.1-0.1,0.1-0.2C220.8,284.2,220.9,283.8,220.9,283.2
		C220.9,283.2,220.9,283.2,220.9,283.2z"/>
	<path class="st1" d="M386.5,297.3l-3.9,3.5C383.9,300.3,385.2,299.3,386.5,297.3z"/>
	<path class="st1" d="M333.8,293.2l-1.6-3.4C332.2,289.8,332.6,291.6,333.8,293.2z"/>
	<path class="st1" d="M432.8,147c0.2-1.4,0.3-2.7,0.5-4.2c2.7-23.1,0.1-41-5.4-54.9c0.6,0.3,1,0.4,1,0.4c0,0,0,0,0,0
		c0.3,0.1,0.5,0.2,0.5,0.2s2.1-18-0.8-27.5c-0.3-3.2-1.7-7.3-4.5-12.4c0-0.1,0-0.1,0-0.1l0,0c-0.6-1.1-1.3-2.2-2-3.4
		c-6.8-10.7-16.9-18-27.3-22.8c-0.8-4.4-4.6-8.7-10.2-6.4c0,0-0.8,0.7-1.6,1.8c-43.5-18.8-57.4,8.2-61.6,31.5
		c-4,0.1-7.8,0.3-11.3,0.6c-36,2.3-26.4,16-26.4,16l0,0c1,2,4.2,3.9,7.8,5.6c3.3,1.7,7.7,3.5,13.6,4.9c0,0,0.1,0,0.3-0.1
		c-1.8,3.1-3.4,6.4-4.8,9.8c-1.8-1.1-4.2-2.5-6.9-3c-0.8-3.8-1.5-6.1-1.5-6.1S272.1,59.3,268.6,90c0,0-1,20.6-10.4,22.2
		c-0.7,0.1-1.3,0.1-1.9,0.1c-0.9-2.7-1.3-5.3-1-7c0,0-1.1-20.1-13-21.1c-2.4-7-7.5-14.3-18.4-9.5c-8.5,3.7-11,21.7-6.8,39.4
		c-3,2.3-7.7,5.5-12.1,6c-1.2-5.7-1.4-14-0.1-25.9c0,0-3.9-9.3-11.5-12.1c-2-3.9-9.6-16.6-22.6-9.9c-1.7,0.9-3.3,2.9-4.6,5.8
		c-0.2-0.2-0.5-0.4-0.7-0.6c-37.9-27.9-67.6,7.1-67.6,7.1s-0.7,1.6-1.6,4.2c-2-2.1-4.2-4-6.7-5.6c-1.6-2.5-3.5-4.7-5.6-6.8l0,0
		c-0.2-0.2-0.3-0.3-0.5-0.5c-0.1-0.1-0.2-0.2-0.3-0.3c-0.4-0.4-0.9-0.8-1.4-1.2c-0.1-0.1-0.2-0.1-0.3-0.2c-0.4-0.3-0.9-0.7-1.3-1
		C80,73.1,79.9,73,79.8,73c-0.5-0.3-1-0.7-1.5-1c-0.1-0.1-0.2-0.1-0.4-0.2c-0.5-0.3-1-0.6-1.6-0.9c0,0-0.1,0-0.1,0
		c-0.5-0.3-1.1-0.6-1.7-0.8c-0.1-0.1-0.3-0.1-0.4-0.2c-0.6-0.3-1.2-0.5-1.8-0.7c-0.1,0-0.1,0-0.2-0.1c-0.6-0.2-1.1-0.4-1.7-0.6
		c-0.1,0-0.3-0.1-0.4-0.1c-0.6-0.2-1.3-0.4-1.9-0.5c-0.1,0-0.2-0.1-0.4-0.1c-0.6-0.1-1.2-0.3-1.8-0.4c-0.1,0-0.2,0-0.4-0.1
		c-0.7-0.1-1.4-0.2-2.1-0.3c-0.2,0-0.3,0-0.5-0.1c-0.7-0.1-1.3-0.1-2-0.2c-0.1,0-0.1,0-0.2,0c-0.7,0-1.5-0.1-2.3-0.1
		c-0.2,0-0.4,0-0.5,0c-0.8,0-1.6,0-2.4,0c0,0-0.1,0-0.1,0c-0.8,0-1.5,0.1-2.3,0.2c-0.2,0-0.4,0-0.6,0.1c-0.8,0.1-1.7,0.2-2.5,0.3
		c-0.1,0-0.3,0-0.4,0.1c-0.8,0.1-1.5,0.2-2.3,0.4c-0.2,0-0.3,0.1-0.5,0.1c-0.9,0.2-1.8,0.4-2.7,0.6c-0.2,0-0.4,0.1-0.6,0.1
		c-0.3,0.1-0.6,0.1-0.9,0.2c-2.8-5-8.8-10.7-20.4-6.5c-18.8,6.7-9.6,79.5-0.9,85.1c0.6,0.4,1.4,1,2.2,1.7
		c-16.6,10.3-7.6,78.9,0.8,84.3c2,1.3,4.9,4.1,7.9,6.4c1,2.3,2,4,3.1,4.6c7.8,5.1,28.3,33.5,25.5-42.7c2.7-1.8,5.9-3.4,9-3.7
		c1.2,5.7,1.4,14,0.1,25.9c0,0,3.9,9.3,11.5,12.1c2,3.9,9.6,16.6,22.6,9.9c1.9-1,3.6-3.4,5-6.7c0.3,0,0.7,0,1-0.1
		c0.2,0,0.4-0.1,0.6-0.1c3,7.2,6.8,11.9,10.4,11.1c5.8-1.2,10.2-4,12.9-10.1c3.8,5.7,9.9,10.6,19.2,13.5c5.8,1.8,11.4,2.3,16.7,1.6
		c-2.3,6-6.3,10.8-12.7,14c-21.3,10.5-9.4,20.5-3.1,24.5c0.7,7.4,12.1,12.7,12.1,12.7c37.9,0.3,42.2-26.9,41.8-62.9
		c5.5,8.4,16.5,11.6,23.9,12.8c2.3,0.5,4.8,0.7,7.4,0.7c0.1,0,0.2,0,0.2,0l0,0c2.8,0,5.9-0.4,9.1-1.2c10.5-2.4,18.4-8.3,23.6-15.9
		c2.2,2,5.1,5.3,8.1,7.6c0.6,1.2,1.3,2.1,1.9,2.6c6.6,5,22.1,29.4,25.2-16.3c5.3,10.8,13.9,21.1,25.7,27.8c0,5.1,0.1,9.9,0.1,11.9
		c0,0.6,0,1.2,0.1,1.9c0,0.1,0,0.2,0,0.3c0.1,0.6,0.1,1.2,0.2,1.8c0,0.1,0,0.2,0.1,0.3c0.1,0.6,0.2,1.2,0.3,1.8c0,0.1,0,0.1,0,0.2
		c0.1,0.6,0.3,1.1,0.5,1.7c0,0.1,0,0.2,0.1,0.2c0.2,0.6,0.4,1.1,0.6,1.7c0,0.1,0.1,0.2,0.1,0.3c0.2,0.5,0.4,1.1,0.7,1.6
		c0,0.1,0.1,0.2,0.1,0.2c0.2,0.5,0.5,1,0.8,1.5c0,0,0,0.1,0.1,0.1c0.3,0.5,0.6,1,0.9,1.5c0,0.1,0.1,0.1,0.1,0.2l0,0
		c1.6,2.6,3.7,4.9,5.9,7l0,0c0,0,0.1,0.1,0.1,0.1c0.5,0.4,1,0.8,1.5,1.2c0.1,0,0.1,0.1,0.2,0.1c0.5,0.4,1.1,0.8,1.6,1.2c0,0,0,0,0,0
		c0.5,0.4,1.1,0.7,1.7,1.1c0.1,0,0.1,0.1,0.2,0.1c0.5,0.3,1.1,0.6,1.6,0.9c0.1,0,0.2,0.1,0.3,0.1c0.5,0.3,1.1,0.5,1.7,0.8
		c0.1,0,0.2,0.1,0.3,0.1c0.6,0.2,1.1,0.5,1.7,0.7c0.1,0,0.2,0.1,0.3,0.1c0.6,0.2,1.2,0.4,1.8,0.6c0,0,0.1,0,0.1,0
		c0.6,0.2,1.2,0.3,1.8,0.4c0,0,0.1,0,0.1,0c0.6,0.1,1.2,0.2,1.8,0.3c0.1,0,0.2,0,0.3,0c0.6,0.1,1.2,0.1,1.8,0.1c0.1,0,0.2,0,0.3,0
		c0.6,0,1.2,0,1.8,0c0.1,0,0.2,0,0.3,0c0.6,0,1.2-0.1,1.8-0.2c0.1,0,0.1,0,0.2,0c0.6-0.1,1.3-0.2,1.9-0.4c0,0,0,0,0,0
		c0.6-0.2,1.2-0.3,1.8-0.6c0.1,0,0.1,0,0.2-0.1c0.6-0.2,1.2-0.4,1.7-0.7c0.1,0,0.2-0.1,0.3-0.1c0.6-0.3,1.1-0.6,1.7-0.9
		c0,0,0.1,0,0.1-0.1l0,0c2.5-1.4,4.8-3.4,7-6.1l0,0c0,0,0.1-0.1,0.1-0.1c0.4-0.5,0.8-1,1.2-1.6c0.1-0.1,0.1-0.2,0.2-0.3
		c0.4-0.5,0.7-1.1,1.1-1.6c0.1-0.1,0.1-0.2,0.2-0.3c0.4-0.6,0.7-1.3,1.1-1.9c0.1-0.1,0.2-0.3,0.2-0.4c0.4-0.7,0.7-1.4,1.1-2.2
		l4.4-16c0.1-1.5,0-3.8-0.1-6.3c24.7-8.3,30-23.5,35.5-67.5c1.4,1.7,3.3,3.5,6.3,4.9c9.7,4.7,20-25,21.7-53.2
		C456.3,128,441.6,138.9,432.8,147z M237.8,160.4c0,0,4.2-1.6,9.2-3.7c4.4,3.1,9.5,5.2,15.4,5.7c-0.6,4.7-0.8,9.8-0.9,15.1
		c-5.3-7-13.2-12-23.7-13.1c-18.1-1.8-29.7,4.8-36.9,12.8c-1.5-1.7-3.2-2.6-4.9-2.9c-0.1-0.3-0.2-0.5-0.2-0.8c0-0.1-0.1-0.3-0.1-0.4
		c-0.1-0.2-0.2-0.5-0.2-0.7c0-0.1-0.1-0.3-0.1-0.4c-0.1-0.2-0.2-0.4-0.3-0.7c0-0.1-0.1-0.2-0.1-0.4c-0.1-0.2-0.2-0.5-0.3-0.7
		c0-0.1-0.1-0.2-0.1-0.2c-0.1-0.3-0.3-0.6-0.4-0.9c0-0.1-0.1-0.1-0.1-0.2c-0.1-0.2-0.2-0.4-0.3-0.6c-0.1-0.1-0.1-0.2-0.2-0.3
		c-0.1-0.2-0.2-0.3-0.3-0.5c-0.1-0.1-0.1-0.2-0.2-0.3c-0.1-0.1-0.2-0.3-0.3-0.4c-0.1-0.1-0.1-0.2-0.2-0.2c-0.1-0.1-0.2-0.3-0.3-0.4
		c-0.1-0.1-0.1-0.1-0.2-0.2c-0.2-0.2-0.3-0.4-0.5-0.5c0,0,0,0,0,0c-0.2-0.2-0.3-0.3-0.5-0.4c-0.1,0-0.1-0.1-0.2-0.1
		c-0.1-0.1-0.2-0.2-0.4-0.3c-0.1,0-0.1-0.1-0.2-0.1c-0.1-0.1-0.2-0.2-0.3-0.2c-0.1,0-0.1-0.1-0.2-0.1c-0.1-0.1-0.2-0.1-0.4-0.2
		c-0.1,0-0.1-0.1-0.2-0.1c-0.1-0.1-0.3-0.1-0.4-0.2c0,0-0.1,0-0.1,0c-0.2-0.1-0.4-0.1-0.6-0.2c-0.1,0-0.1,0-0.2,0
		c-0.1,0-0.3-0.1-0.4-0.1c-0.1,0-0.1,0-0.2,0c-0.1,0-0.2,0-0.4-0.1c-0.1,0-0.1,0-0.2,0c-0.1,0-0.2,0-0.4,0c-0.1,0-0.1,0-0.2,0
		c-0.1,0-0.3,0-0.4,0c-0.1,0-0.1,0-0.2,0c-0.2,0-0.4,0-0.6,0c0,0-0.1,0-0.1,0c-0.2,0-0.3,0-0.5,0c-0.1,0-0.1,0-0.2,0
		c-0.1,0-0.3,0-0.4,0.1c-0.1,0-0.1,0-0.2,0c-0.1,0-0.2,0-0.4,0.1c-0.1,0-0.1,0-0.2,0c-0.1,0-0.3,0.1-0.4,0.1c-0.1,0-0.1,0-0.2,0.1
		c-0.2,0.1-0.3,0.1-0.5,0.2c0,0,0,0,0,0c-0.2,0.1-0.4,0.1-0.6,0.2c-0.1,0-0.1,0-0.2,0.1c-0.1,0-0.3,0.1-0.4,0.2
		c-0.1,0-0.1,0.1-0.2,0.1c-0.1,0.1-0.2,0.1-0.3,0.2c-0.1,0-0.1,0.1-0.2,0.1c-0.1,0.1-0.2,0.1-0.4,0.2c-0.1,0-0.1,0.1-0.2,0.1
		c-0.1,0.1-0.3,0.1-0.4,0.2c0,0-0.1,0-0.1,0.1c-0.2,0.1-0.3,0.2-0.5,0.3c0,0-0.1,0-0.1,0.1c-0.1,0.1-0.3,0.1-0.4,0.2
		c-0.1,0-0.1,0.1-0.2,0.1c-0.1,0.1-0.2,0.1-0.3,0.2c-0.1,0-0.1,0.1-0.2,0.1c-0.1,0.1-0.2,0.1-0.3,0.2c-0.1,0-0.1,0.1-0.2,0.1
		c-0.1,0.1-0.2,0.1-0.3,0.2c0,0-0.1,0.1-0.1,0.1c-0.1,0.1-0.3,0.2-0.4,0.3c0,0,0,0-0.1,0c-0.1,0.1-0.2,0.2-0.4,0.3
		c0,0-0.1,0.1-0.1,0.1c-0.1,0.1-0.2,0.1-0.3,0.2c-0.1,0-0.1,0.1-0.1,0.1c-0.1,0.1-0.2,0.1-0.2,0.2c0,0-0.1,0.1-0.1,0.1
		c-0.1,0.1-0.2,0.1-0.2,0.2c0,0-0.1,0.1-0.1,0.1c0,0,0,0,0,0c-4.5-2.2-8.8-3.4-12.9-3.9c8.2-3.5,15.3-9.4,20.6-16.5
		c0.3,0.2,0.6,0.4,0.9,0.6C192.1,162.9,209.2,170.9,237.8,160.4z M125,178.1c-1.9-5.4-6.6-9.6-17.6-5.9c-2.6,0.9-4.7,2.4-6.5,4.4
		c-2.4-3-5.2-5.5-8.5-7.6c-1.6-2.5-3.5-4.7-5.6-6.8l0,0c-0.2-0.2-0.3-0.3-0.5-0.5c-0.1-0.1-0.2-0.2-0.3-0.3
		c-0.4-0.4-0.9-0.8-1.4-1.2c-0.1-0.1-0.2-0.1-0.3-0.2c-0.4-0.3-0.9-0.7-1.3-1c-0.1-0.1-0.2-0.1-0.2-0.2c-0.5-0.3-1-0.7-1.5-1
		c-0.1-0.1-0.2-0.1-0.4-0.2c-0.5-0.3-1-0.6-1.6-0.9c0,0-0.1,0-0.1,0c-0.5-0.3-1.1-0.6-1.7-0.8c-0.1-0.1-0.3-0.1-0.4-0.2
		c-0.6-0.3-1.2-0.5-1.8-0.7c-0.1,0-0.1,0-0.2-0.1c-0.6-0.2-1.1-0.4-1.7-0.6c-0.1,0-0.3-0.1-0.4-0.1c-0.6-0.2-1.3-0.4-1.9-0.5
		c-0.1,0-0.2-0.1-0.4-0.1c-0.6-0.1-1.2-0.3-1.8-0.4c-0.1,0-0.2,0-0.4-0.1c-0.7-0.1-1.4-0.2-2.1-0.3c-0.2,0-0.3,0-0.5-0.1
		c-0.7-0.1-1.3-0.1-2-0.2c-0.1,0-0.1,0-0.2,0c-0.7,0-1.5-0.1-2.3-0.1c-0.2,0-0.4,0-0.5,0c-0.8,0-1.6,0-2.4,0c0,0-0.1,0-0.1,0
		c-0.6,0-1.2,0.1-1.9,0.1c1.3-8,1.9-19.9,1.3-37.2c2.7-1.8,5.9-3.4,9-3.7c1.2,5.7,1.4,14,0.1,25.9c0,0,3.9,9.3,11.5,12.1
		c1.9,3.8,9.2,15.9,21.6,10.4c0.6,0.5,1.2,0.9,1.8,1.2c2.4,4.4,7.1,6.6,14.9,3.3c1.9-0.8,3.5-1.6,4.8-2.5c2.6,1.4,5.5,2.6,8.7,3.7
		c3.2,1,6.3,1.6,9.4,1.9C132.9,171,127.6,175.6,125,178.1z M133.3,122.8c-2.2-5.4-1.4-10.9,5.7-11.8c0,0,3.4-1,7.2-1.1
		c-0.3,1.7-0.8,3.6-1.6,5.7C141.9,122.6,137.5,124.1,133.3,122.8z M160.4,203.9c0,0,3-0.9,6.5-1c-0.3,1.5-0.8,3.2-1.5,5.2
		c-2.5,6.6-6.6,8.2-10.7,7C152.8,209.9,153.7,204.8,160.4,203.9z M229.3,209c0,0,2.5-2.6,5.8-4.7c0.4,0.1,0.9,0.2,1.4,0.2
		c0.5,1.6,1.1,3.3,2,5.1c0.4,0.9,0.9,1.6,1.5,2.3c-0.5,0.3-1,0.7-1.4,1.1c-0.3,0.2-0.5,0.5-0.8,0.7c-3,2.2-7.5,2.2-11.8,0.8
		C226.1,212.6,227.1,210.7,229.3,209z M263.7,218.6c0.4,0.1,0.8,0.1,1.2,0.1c0.2,1,0.4,2,0.5,2.9c-0.3-0.1-0.7-0.2-1-0.3
		C264.3,220.3,264,219.4,263.7,218.6z"/>
	<path class="st1" d="M344.9,305.5l-1.4-0.6C343.9,305.1,344.4,305.4,344.9,305.5z"/>
</g>
<g>
	<g>
		<g id="XMLID_11308_">
			<path id="XMLID_11320_" class="st1" d="M244.2,94.3c0,0-1.6-27.9-20.4-19.6s-8.2,87.2,39.7,75.8C311.4,139,292,77.1,292,77.1
				S272.1,59.3,268.6,90c0,0-1,20.6-10.4,22.2C248.8,113.8,243.3,99.4,244.2,94.3z"/>
			<g id="XMLID_11318_">
				<path id="XMLID_11319_" class="st1" d="M220.1,111.3c0,0-33,32.6-26.3-28.3c0,0-7.9-18.8-23.2-11s-17.7,104.5,56.2,77.4
					c0,0,19.9-7.6,25.2-11.5"/>
			</g>
			<line id="XMLID_11317_" class="st1" x1="186.4" y1="146.4" x2="189.5" y2="147.8"/>
			<path id="XMLID_11316_" class="st1" d="M258.3,125.8c0,0,1.2,2.5-0.7,3.6"/>
			<path id="XMLID_11315_" class="st1" d="M291.1,120.6c0,0-0.6,2.3-1.2,3.1"/>
			<path id="XMLID_11314_" class="st1" d="M272.7,88.8c0,0,1-4.3,0-4.3"/>
			<path id="XMLID_11313_" class="st1" d="M178.3,74.6c0,0,4,0.6,3.6,1.2"/>
			<path id="XMLID_11312_" class="st1" d="M204.2,126c0,0,4.7-0.7,5-1.6"/>
			<path id="XMLID_11311_" class="st1" d="M228,78.5c0,0-3.1,1.5-4,3"/>
			<line id="XMLID_11310_" class="st1" x1="258.1" y1="114.8" x2="261.4" y2="113.9"/>
			<line id="XMLID_11309_" class="st1" x1="265.1" y1="145.4" x2="268.4" y2="144.5"/>
		</g>
		<g id="XMLID_11295_">
			<path id="XMLID_11307_" class="st2" d="M283.8,79c-1.1-7.7-2.8-12.9-2.8-12.9S261.1,48.3,257.6,79c0,0-1,20.6-10.4,22.2
				s-14.9-12.8-13.9-17.9c0,0-1.6-27.9-20.4-19.6s-8.2,87.2,39.7,75.8c25.8-6.1,32.1-27,32.4-44.9"/>
			<g id="XMLID_11305_">
				<path id="XMLID_11306_" class="st2" d="M209.1,100.3c0,0-33,32.6-26.3-28.3c0,0-7.9-18.8-23.2-11s-17.7,104.5,56.2,77.4
					c0,0,19.9-7.6,25.2-11.5"/>
			</g>
			<line id="XMLID_11304_" class="st2" x1="175.4" y1="135.4" x2="178.5" y2="136.8"/>
			<path id="XMLID_11303_" class="st2" d="M247.3,114.8c0,0,1.2,2.5-0.7,3.6"/>
			<path id="XMLID_11302_" class="st2" d="M280.1,109.6c0,0-0.6,2.3-1.2,3.1"/>
			<path id="XMLID_11301_" class="st2" d="M261.7,77.8c0,0,1-4.3,0-4.3"/>
			<path id="XMLID_11300_" class="st2" d="M167.3,63.6c0,0,4,0.6,3.6,1.2"/>
			<path id="XMLID_11299_" class="st2" d="M193.2,115c0,0,4.7-0.7,5-1.6"/>
			<path id="XMLID_11298_" class="st2" d="M217,67.5c0,0-3.1,1.5-4,3"/>
			<line id="XMLID_11297_" class="st2" x1="247.1" y1="103.8" x2="250.4" y2="102.9"/>
			<line id="XMLID_11296_" class="st2" x1="254.1" y1="134.4" x2="257.4" y2="133.5"/>
		</g>
		<g id="XMLID_11281_">
			<path id="XMLID_11294_" class="st1" d="M141.4,82.8"/>
			<path id="XMLID_11291_" class="st1" d="M165.3,77.3c-37.9-27.9-67.6,7.1-67.6,7.1s-24.3,55.7,22,70.5
				C166,169.6,203.2,105.1,165.3,77.3z M144.6,115.7c-8.8,22.9-35.9-13-16.6-15.7C128,100,153.4,92.7,144.6,115.7z"/>
			<path id="XMLID_11290_" class="st1" d="M150.4,73.7"/>
			<line id="XMLID_11289_" class="st1" x1="107.1" y1="143.6" x2="110.2" y2="144.9"/>
			<path id="XMLID_11288_" class="st1" d="M153.6,146.4c0,0-0.5,2.7-2.8,2.5"/>
			<path id="XMLID_11287_" class="st1" d="M148,116.1c0,0-0.6,2.3-1.2,3.1"/>
			<path id="XMLID_11286_" class="st1" d="M175.8,114.3c0,0,1-4.3,0-4.3"/>
			<path id="XMLID_11285_" class="st1" d="M148.1,73.1c0,0,4,0.6,3.6,1.2"/>
			<path id="XMLID_11284_" class="st1" d="M122.1,122.9c0,0,3.9,2.7,4.7,2.2"/>
			<path id="XMLID_11283_" class="st1" d="M104.6,85.2c0,0-3.1,1.5-4,3"/>
			<line id="XMLID_11282_" class="st1" x1="122.9" y1="97.2" x2="126.2" y2="96.3"/>
		</g>
		<g id="XMLID_11267_">
			<path id="XMLID_11280_" class="st2" d="M130.4,71.8"/>
			<path id="XMLID_11277_" class="st2" d="M165.8,79.5c-2.5-4.9-6.3-9.4-11.5-13.2c-37.9-27.9-67.6,7.1-67.6,7.1s-24.3,55.7,22,70.5
				c34.6,11,64.1-22.2,61-51.3 M133.6,104.7c-8.8,22.9-35.9-13-16.6-15.7C117,89,142.4,81.7,133.6,104.7z"/>
			<path id="XMLID_11276_" class="st2" d="M139.4,62.7"/>
			<line id="XMLID_11275_" class="st2" x1="96.1" y1="132.6" x2="99.2" y2="133.9"/>
			<path id="XMLID_11274_" class="st2" d="M142.6,135.4c0,0-0.5,2.7-2.8,2.5"/>
			<path id="XMLID_11273_" class="st2" d="M137,105.1c0,0-0.6,2.3-1.2,3.1"/>
			<path id="XMLID_11272_" class="st2" d="M164.8,103.3c0,0,1-4.3,0-4.3"/>
			<path id="XMLID_11271_" class="st2" d="M137.1,62.1c0,0,4,0.6,3.6,1.2"/>
			<path id="XMLID_11270_" class="st2" d="M111.1,111.9c0,0,3.9,2.7,4.7,2.2"/>
			<path id="XMLID_11269_" class="st2" d="M93.6,74.2c0,0-3.1,1.5-4,3"/>
			<line id="XMLID_11268_" class="st2" x1="111.9" y1="86.2" x2="115.2" y2="85.3"/>
		</g>
		<g id="XMLID_11256_">
			<path id="XMLID_11266_" class="st1" d="M45.3,74.5c0,0-3.9-19.2-22.8-12.4s-9.6,79.5-0.9,85.1C30.3,152.8,54.7,187.4,45.3,74.5z"
				/>
			<path id="XMLID_11265_" class="st1" d="M40.9,109.4c0,0,33-32.6,26.3,28.3c0,0,7.9,18.8,23.2,11s17.7-104.5-56.2-77.4"/>
			<line id="XMLID_11264_" class="st1" x1="30.4" y1="146.4" x2="33.5" y2="147.8"/>
			<path id="XMLID_11263_" class="st1" d="M86.7,138.2c0,0,1.2,2.5-0.7,3.6"/>
			<path id="XMLID_11262_" class="st1" d="M94,107c0,0-0.6,2.3-1.2,3.1"/>
			<path id="XMLID_11261_" class="st1" d="M41.6,126.4c0,0,1-4.3,0-4.3"/>
			<path id="XMLID_11260_" class="st1" d="M64.9,96.8c0,0,4,0.6,3.6,1.2"/>
			<path id="XMLID_11259_" class="st1" d="M25.6,117.1c0,0,4.7-0.7,5-1.6"/>
			<path id="XMLID_11258_" class="st1" d="M49.4,72.2c0,0-3.1,1.5-4,3"/>
			<line id="XMLID_11257_" class="st1" x1="21.2" y1="77.3" x2="24.4" y2="76.4"/>
		</g>
		<g>
			<path id="XMLID_11255_" class="st2" d="M34.3,63.5c0,0-3.9-19.2-22.8-12.4s-9.6,79.5-0.9,85.1C19.3,141.8,43.7,176.4,34.3,63.5z"
				/>
			<path id="XMLID_11254_" class="st3" d="M29.9,98.4c0,0,33-32.6,26.3,28.3c0,0,7.9,18.8,23.2,11S97.1,33.2,23.3,60.3"/>
			<path id="XMLID_11253_" class="st2" d="M72.8,65.2c-10.1-9.7-25.9-13.6-49.5-5"/>
			<path id="XMLID_11252_" class="st4" d="M81.9,78.2c10.7,22.8,6.1,55-2.4,59.4c-15.3,7.9-23.2-11-23.2-11
				c6.7-60.9-26.3-28.3-26.3-28.3"/>
			<line id="XMLID_11251_" class="st2" x1="19.4" y1="135.4" x2="22.5" y2="136.8"/>
			<path id="XMLID_11250_" class="st2" d="M75.7,127.2c0,0,1.2,2.5-0.7,3.6"/>
			<path id="XMLID_11249_" class="st2" d="M83,96c0,0-0.6,2.3-1.2,3.1"/>
			<path id="XMLID_11248_" class="st2" d="M30.6,115.4c0,0,1-4.3,0-4.3"/>
			<path id="XMLID_11247_" class="st2" d="M53.9,85.8c0,0,4,0.6,3.6,1.2"/>
			<path id="XMLID_11246_" class="st2" d="M14.6,106.1c0,0,4.7-0.7,5-1.6"/>
			<path id="XMLID_11245_" class="st2" d="M38.4,61.2c0,0-3.1,1.5-4,3"/>
			<line id="XMLID_11244_" class="st2" x1="10.2" y1="66.3" x2="13.4" y2="65.4"/>
			<path class="st2" d="M29.4,98"/>
		</g>
		<g id="XMLID_11233_">
			<path id="XMLID_11243_" class="st1" d="M48.3,160.5c0,0-3.9-19.2-22.8-12.4c-18.8,6.7-9.6,79.5-0.9,85.1
				C33.3,238.8,57.7,273.4,48.3,160.5z"/>
			<path id="XMLID_11242_" class="st1" d="M43.9,195.4c0,0,33-32.6,26.3,28.3c0,0,7.9,18.8,23.2,11s17.7-104.5-56.2-77.4"/>
			<line id="XMLID_11241_" class="st1" x1="33.4" y1="232.4" x2="36.5" y2="233.8"/>
			<path id="XMLID_11240_" class="st1" d="M89.7,224.2c0,0,1.2,2.5-0.7,3.6"/>
			<path id="XMLID_11239_" class="st1" d="M97,193c0,0-0.6,2.3-1.2,3.1"/>
			<path id="XMLID_11238_" class="st1" d="M44.6,212.4c0,0,1-4.3,0-4.3"/>
			<path id="XMLID_11237_" class="st1" d="M67.9,182.8c0,0,4,0.6,3.6,1.2"/>
			<path id="XMLID_11236_" class="st1" d="M28.6,203.1c0,0,4.7-0.7,5-1.6"/>
			<path id="XMLID_11235_" class="st1" d="M52.4,158.2c0,0-3.1,1.5-4,3"/>
			<line id="XMLID_11234_" class="st1" x1="24.2" y1="163.3" x2="27.4" y2="162.4"/>
		</g>
		<g>
			<path id="XMLID_11232_" class="st2" d="M37.3,149.5c0,0-3.9-19.2-22.8-12.4c-18.8,6.7-9.6,79.5-0.9,85.1
				C22.3,227.8,46.7,262.4,37.3,149.5z"/>
			<path id="XMLID_11231_" class="st3" d="M32.9,184.4c0,0,33-32.6,26.3,28.3c0,0,7.9,18.8,23.2,11s17.7-104.5-56.2-77.4"/>
			<path id="XMLID_11230_" class="st2" d="M75.8,151.2c-10.1-9.7-25.9-13.6-49.5-5"/>
			<path id="XMLID_11229_" class="st4" d="M84.9,164.2c10.7,22.8,6.1,55-2.4,59.4c-15.3,7.9-23.2-11-23.2-11
				c6.7-60.9-26.3-28.3-26.3-28.3"/>
			<line id="XMLID_11228_" class="st2" x1="22.4" y1="221.4" x2="25.5" y2="222.8"/>
			<path id="XMLID_11227_" class="st2" d="M78.7,213.2c0,0,1.2,2.5-0.7,3.6"/>
			<path id="XMLID_11226_" class="st2" d="M86,182c0,0-0.6,2.3-1.2,3.1"/>
			<path id="XMLID_11225_" class="st2" d="M33.6,201.4c0,0,1-4.3,0-4.3"/>
			<path id="XMLID_11224_" class="st2" d="M56.9,171.8c0,0,4,0.6,3.6,1.2"/>
			<path id="XMLID_11223_" class="st2" d="M17.6,192.1c0,0,4.7-0.7,5-1.6"/>
			<path id="XMLID_11222_" class="st2" d="M41.4,147.2c0,0-3.1,1.5-4,3"/>
			<line id="XMLID_11221_" class="st2" x1="13.2" y1="152.3" x2="16.4" y2="151.4"/>
			<path class="st2" d="M32.4,184"/>
		</g>
		<path id="XMLID_11220_" class="st2" d="M79.9,84.5c0,0-1.6-3.3-3.5-4.5"/>
		<g>
			<g>
				<g id="XMLID_11218_">
					<path id="XMLID_11219_" class="st1" d="M125.6,192.3c0,0,5.4-27.9-18.3-20s-9.4,69.2,3.1,66.6S128.7,226.4,125.6,192.3z"/>
				</g>
				<line id="XMLID_11217_" class="st1" x1="105.7" y1="231.1" x2="108.8" y2="232.5"/>
				<path id="XMLID_11216_" class="st1" d="M121.2,221.4c0,0,1.2,2.5-0.7,3.6"/>
				<path id="XMLID_11215_" class="st1" d="M102.1,185.2c0,0-0.6,2.3-1.2,3.1"/>
				<path id="XMLID_11214_" class="st1" d="M121.9,186.7c0,0,1-4.3,0-4.3"/>
				<path id="XMLID_11213_" class="st1" d="M111.2,174.4c0,0,4,0.6,3.6,1.2"/>
			</g>
			<g>
				<g id="XMLID_11211_">
					<path id="XMLID_11212_" class="st2" d="M114.7,170.2c-1.1-6.8-5.3-13.4-18.4-9c-23.6,7.9-9.4,69.2,3.1,66.6
						s18.3-12.4,15.1-46.5"/>
				</g>
				<line id="XMLID_11210_" class="st2" x1="94.7" y1="220.1" x2="97.8" y2="221.5"/>
				<path id="XMLID_11209_" class="st2" d="M110.2,210.4c0,0,1.2,2.5-0.7,3.6"/>
				<path id="XMLID_11208_" class="st2" d="M91.1,174.2c0,0-0.6,2.3-1.2,3.1"/>
				<path id="XMLID_11207_" class="st2" d="M110.9,175.7c0,0,1-4.3,0-4.3"/>
				<path id="XMLID_11206_" class="st2" d="M100.2,163.4c0,0,4,0.6,3.6,1.2"/>
			</g>
			<g>
				<path id="XMLID_11205_" class="st1" d="M105.7,127.2c0,0,26.6,15.2,0.4,26.5S87.9,113.3,105.7,127.2z"/>
				<path id="XMLID_11204_" class="st1" d="M101,152c0,0,4.7-0.7,5-1.6"/>
				<path id="XMLID_11203_" class="st1" d="M98.6,129.1c0,0-3.1,1.5-4,3"/>
			</g>
			<g>
				<path id="XMLID_11202_" class="st2" d="M113.5,136.2c0.9,4.3-1.5,9.2-11.3,13.4c-26.2,11.2-18.2-40.4-0.4-26.5
					c0,0,3,1.7,5.9,4.4"/>
				<path id="XMLID_11201_" class="st2" d="M97,148c0,0,4.7-0.7,5-1.6"/>
				<path id="XMLID_11200_" class="st2" d="M94.6,125.1c0,0-3.1,1.5-4,3"/>
			</g>
		</g>
		<g id="XMLID_11185_">
			<path id="XMLID_11199_" class="st1" d="M161.8,178.6"/>
			<path id="XMLID_11196_" class="st1" d="M182.8,173.7c-33.5-24.6-59.7,6.3-59.7,6.3s-21.5,49.2,19.4,62.2
				C183.5,255.3,216.3,198.4,182.8,173.7z M165.5,208c-8.5,22.2-34.7-12.6-16-15.2C149.4,192.9,174,185.9,165.5,208z"/>
			<path id="XMLID_11195_" class="st1" d="M169.7,170.6"/>
			<path id="XMLID_11194_" class="st1" d="M169.7,170.6c0,0,26.1-27.9,26.7,24.5c0.6,52.4,9.4,100.3-40.8,99.9c0,0-27.3-12.7,0-26.2
				c13.4-6.6,16-20.2,15.7-37.4"/>
			<line id="XMLID_11193_" class="st1" x1="153.2" y1="288.2" x2="156.3" y2="289.6"/>
			<path id="XMLID_11192_" class="st1" d="M180.1,283c0,0,1.2,2.5-0.7,3.6"/>
			<path id="XMLID_11191_" class="st1" d="M193.6,256.7c0,0-0.6,2.3-1.2,3.1"/>
			<path id="XMLID_11190_" class="st1" d="M191.1,223.2c0,0,1-4.3,0-4.3"/>
			<path id="XMLID_11189_" class="st1" d="M133.6,234.3c0,0,4,0.6,3.6,1.2"/>
			<path id="XMLID_11188_" class="st1" d="M182.7,191.1c0,0,4.7-0.7,5-1.6"/>
			<path id="XMLID_11187_" class="st1" d="M133.9,178.3c0,0-3.1,1.5-4,3"/>
			<line id="XMLID_11186_" class="st1" x1="167.7" y1="214.5" x2="164.8" y2="216.3"/>
		</g>
		<g id="XMLID_11168_">
			<path id="XMLID_11182_" class="st2" d="M171.8,162.7c-33.5-24.6-59.7,6.3-59.7,6.3s-21.5,49.2,19.4,62.2
				C172.5,244.3,205.3,187.4,171.8,162.7z M154.5,197c-8.5,22.2-34.7-12.6-16-15.2C138.4,181.9,163,174.9,154.5,197z"/>
			<path id="XMLID_11181_" class="st3" d="M160.7,159.6c0,0,26.1-27.9,26.7,24.5c0.6,52.4,9.4,100.3-40.8,99.9c0,0-27.3-12.7,0-26.2
				c13.4-6.6,16-20.2,15.7-37.4"/>
			<path id="XMLID_11180_" class="st2" d="M150.8,167.6"/>
			<path id="XMLID_11179_" class="st2" d="M158.7,159.6"/>
			<path id="XMLID_11178_" class="st2" d="M187.4,184.8c0.6,52.2,9.2,99.6-40.8,99.3c0,0-27.3-12.7,0-26.2
				c13.4-6.6,16-20.2,15.7-37.4"/>
			<path id="XMLID_11177_" class="st2" d="M160.7,159.6c0,0,18.6-19.8,24.7,5.4"/>
			<line id="XMLID_11176_" class="st2" x1="142.2" y1="277.2" x2="145.3" y2="278.6"/>
			<path id="XMLID_11175_" class="st2" d="M169.1,272c0,0,1.2,2.5-0.7,3.6"/>
			<path id="XMLID_11174_" class="st2" d="M182.6,245.7c0,0-0.6,2.3-1.2,3.1"/>
			<path id="XMLID_11173_" class="st2" d="M180.1,212.2c0,0,1-4.3,0-4.3"/>
			<path id="XMLID_11172_" class="st2" d="M122.6,223.3c0,0,4,0.6,3.6,1.2"/>
			<path id="XMLID_11171_" class="st2" d="M171.7,180.1c0,0,4.7-0.7,5-1.6"/>
			<path id="XMLID_11170_" class="st2" d="M122.9,167.3c0,0-3.1,1.5-4,3"/>
			<line id="XMLID_11169_" class="st2" x1="156.7" y1="203.5" x2="153.8" y2="205.3"/>
		</g>
		<path id="XMLID_11167_" class="st2" d="M250.5,176.6c0,0-7-4.9-9.9-1.1c-3,3.8-8.2,10.3-2,23c6.1,12.7,29.1,2.2,31.3-3.7"/>
		<g>
			<path id="XMLID_11166_" class="st1" d="M266.6,186.8L266.6,186.8c-4.4-11.7-14-20.9-28.7-22.4c-29.3-2.9-41.4,16.1-46,27.6
				c0,0-1,1.7-1.8,5.1c-0.6,2-0.7,3.7-0.6,4.5c-0.4,6.3,0.6,15.8,6.6,28.2c4.8,10.2,17.1,13.8,25.3,15.1c2.3,0.5,4.8,0.7,7.4,0.7
				c0.1,0,0.2,0,0.2,0l0,0c2.8,0,5.9-0.4,9.1-1.2c12.9-2.9,21.7-11.2,26.7-21.3c-0.8-11.7-10.8-13.1-16.9-14
				c-3.3-0.5-6.7,1.5-9.2,3.6c-0.3,0.2-0.5,0.5-0.8,0.7c-8.7,6.4-31.4-6.2-19.5-15.6c0,0,4.1-4.3,8.8-6.3h0c0,0,4-2,7.2-0.9
				c1.3,0.4,2.4,1.4,3.1,3.1c0,0.1,0.1,0.2,0.1,0.3c0.4,0.8,0.8,1.7,1.4,2.6c3.9,6.4,12.7,14.8,20.8,9c9.4-6.8,8.3-9.4,8.7-12
				c0,0,0,0,0,0C268.9,191.1,266.6,186.8,266.6,186.8z"/>
			<line id="XMLID_11165_" class="st1" x1="200.8" y1="229.1" x2="202.8" y2="231.8"/>
			<path id="XMLID_11164_" class="st1" d="M256.6,226.1c0,0,1.2,2.5-0.7,3.6"/>
			<path id="XMLID_11163_" class="st1" d="M266.1,193.7c0,0-0.6,2.3-1.2,3.1"/>
			<path id="XMLID_11162_" class="st1" d="M212.8,197.4c0,0,1-4.3,0-4.3"/>
			<path id="XMLID_11161_" class="st1" d="M234.7,184.6c0,0,4,0.6,3.6,1.2"/>
			<path id="XMLID_11160_" class="st1" d="M230.3,241.4c0,0,4.7-0.7,5-1.6"/>
			<path id="XMLID_11159_" class="st1" d="M206,178.6c0,0-3.1,1.5-4,3"/>
			<line id="XMLID_11158_" class="st1" x1="252.5" y1="204.5" x2="255.8" y2="203.6"/>
		</g>
		<path id="XMLID_11157_" class="st2" d="M239.5,176.6c0,0-7-4.9-9.9-1.1c-3,3.8-8.2,10.3-2,23c6.1,12.7,29.1,2.2,31.3-3.7"/>
		<path id="XMLID_11156_" class="st2" d="M228.5,165.6c0,0-7-4.9-9.9-1.1c-3,3.8-8.2,10.3-2,23c6.1,12.7,29.1,2.2,31.3-3.7"/>
		<g>
			<path id="XMLID_11155_" class="st2" d="M254.8,174c-4.7-10.8-14-19.2-28-20.6c-29.3-2.9-41.4,16.1-46,27.6c0,0-1,1.7-1.8,5.1
				c-0.6,2-0.7,3.7-0.6,4.5c-0.4,6.3,0.6,15.8,6.6,28.2c4.8,10.2,17.1,13.8,25.3,15.1c2.3,0.5,4.8,0.7,7.4,0.7c0.1,0,0.2,0,0.2,0
				l0,0c2.8,0,5.9-0.4,9.1-1.2c12.9-2.9,21.7-11.2,26.7-21.3c-0.8-11.7-10.8-13.1-16.9-14c-3.3-0.5-6.7,1.5-9.2,3.6
				c-0.3,0.2-0.5,0.5-0.8,0.7c-8.7,6.4-31.4-6.2-19.5-15.6c0,0,4.1-4.3,8.8-6.3h0c0,0,4-2,7.2-0.9c1.3,0.4,2.4,1.4,3.1,3.1
				c0,0.1,0.1,0.2,0.1,0.3c0.4,0.8,0.8,1.7,1.4,2.6c3.9,6.4,12.7,14.8,20.8,9c9.4-6.8,8.3-9.4,8.7-12c0,0,0,0,0,0"/>
			<line id="XMLID_11154_" class="st2" x1="189.8" y1="218.1" x2="191.8" y2="220.8"/>
			<path id="XMLID_10881_" class="st2" d="M245.6,215.1c0,0,1.2,2.5-0.7,3.6"/>
			<path id="XMLID_10880_" class="st2" d="M255.1,182.7c0,0-0.6,2.3-1.2,3.1"/>
			<path id="XMLID_10879_" class="st2" d="M201.8,186.4c0,0,1-4.3,0-4.3"/>
			<path id="XMLID_10878_" class="st2" d="M223.7,173.6c0,0,4,0.6,3.6,1.2"/>
			<path id="XMLID_10877_" class="st2" d="M219.3,230.4c0,0,4.7-0.7,5-1.6"/>
			<path id="XMLID_10876_" class="st2" d="M195,167.6c0,0-3.1,1.5-4,3"/>
			<line id="XMLID_10875_" class="st2" x1="241.5" y1="193.5" x2="244.8" y2="192.6"/>
		</g>
		<g>
			<path id="XMLID_10874_" class="st1" d="M295.2,153.9c0,0-3.9-22.4-22.8-14.5c-18.8,7.9-9.6,92.9-0.9,99.4
				C280.3,245.4,304.7,285.8,295.2,153.9z"/>
			<path id="XMLID_10873_" class="st1" d="M287.5,236.6c0,0,1.2,2.5-0.7,3.6"/>
			<path id="XMLID_10872_" class="st1" d="M293.6,196.2c0,0,0.3,2.3,0,3.3"/>
			<path id="XMLID_10871_" class="st1" d="M269.4,212.1c0,0,1-4.3,0-4.3"/>
			<path id="XMLID_10870_" class="st1" d="M274.8,144c0,0-3.1,1.5-4,3"/>
		</g>
		<g>
			<path id="XMLID_10869_" class="st2" d="M284,141.7c-1.1-4.4-6.2-20.2-22.5-13.4c-18.8,7.9-9.6,92.9-0.9,99.4
				c8.5,6.5,32.1,45.5,24.1-77.5"/>
			<path id="XMLID_10868_" class="st2" d="M276.5,225.6c0,0,1.2,2.5-0.7,3.6"/>
			<path id="XMLID_10867_" class="st2" d="M282.6,185.2c0,0,0.3,2.3,0,3.3"/>
			<path id="XMLID_10866_" class="st2" d="M258.4,201.1c0,0,1-4.3,0-4.3"/>
			<path id="XMLID_10865_" class="st2" d="M263.8,133c0,0-3.1,1.5-4,3"/>
		</g>
		<g>
			<path class="st1" d="M281,256.8c-1.1-1.9-2.9-3.4-5.9-4.1c-3.9-0.8-6.7,0.1-8.7,1.6c-1-0.7-2.2-1.3-3.8-1.6
				c-2.6-0.5-4.8-0.3-6.5,0.4c-1.3-1.6-3.9-0.4-5.3,0.2c-0.7,0.3-1.1,2.9-1.1,6.1c-0.7-1.4-1.6-2.3-2.6-2.8c0,0-0.2-0.1-0.4-0.1
				c-0.7-1.4-1.6-2.3-2.6-2.9c0,0-10.2-3.8-13.9,5.1c-0.7-0.8-1.5-1.6-2.4-2.2c-2.2-2.8-4.6-5.4-10.5-3.3c-6.4,2.2-5.3,10.4-5,11
				c0.1,0.4,1.6,5.3,5.1,7.3c1.9,2.8,5.2,5.5,10.3,2.5c2.6-1.5,3.8-2.8,4.2-3.8c0.5,0.4,0.9,0.8,1.4,1c2,3.6,6.4,4.5,7.2,4.4
				c1.1-0.1,8.8-0.7,10.9-4.9c0.2,0.4,0.5,0.7,0.8,0.8c0.6,0.3,1.1,0.4,1.5,0.4c0.4,1.3,0.9,2.3,1.5,2.6c2.9,1.5,4.7-1.8,4.7-1.8
				c0.4-1.5,0.6-5.4,0.6-9c0.1-0.3,0.3-0.6,0.5-0.8c0.5-0.4,1.4-0.6,2.4-0.6c-0.3,1.7-0.4,3.5-0.4,4.8c0,0.9,0,1.7,0,1.9
				c0,0.7,0.3,2.3,2.9,2.6c0,0,0.1,0,0.1,0c0,0.2,0,0.3,0,0.4c0,0.7,0.3,2.3,2.9,2.6c3.4,0.4,3.8-0.7,3.8-3.1c0-1.2,0.6-4.4,0.2-7.7
				c0.1-0.4,0.3-0.7,0.5-0.9c0.5-0.4,1.4-0.6,2.4-0.6c-0.3,1.7-0.4,3.5-0.4,4.8c0,0.9,0,1.7,0,1.9c0,0.7,0.3,2.3,2.9,2.6
				c0,0,0.1,0,0.1,0c0,0.2,0,0.3,0,0.4c0,0.7,0.3,2.3,2.9,2.6c3.4,0.4,3.8-0.7,3.8-3.1C285.1,269.5,287.2,260.3,281,256.8z
				 M241.5,263.9c-0.2,0.5-0.8,1-2.2,1.4c0.1-0.7,0.6-2.1,2.4-2.1C241.6,263.6,241.5,263.9,241.5,263.9z M220.6,266.3
				c0-0.4,0-0.8,0.1-1.2c0.3-3.1,1.3-4.5,2.3-4.6c0.4,0,0.9,0,1.4,0.1c0.3,0.8,0.9,1.7,1.9,1.4c0.1,0,0.2-0.1,0.3-0.1
				c0.2,0.2,0.4,0.5,0.5,0.7c0,0,0.2,1.1,0.8,1.8c-0.9-0.6-2-0.9-2.4-0.8c-0.5,0.2-0.9,0.7-1.4,1.3c-0.1,0.2-0.2,0.3-0.4,0.5
				c-0.1,0.1-0.4,0.4-0.5,0.5c-0.7,0.3-1.6,0.6-2.6,0.6C220.6,266.5,220.6,266.4,220.6,266.3z M228.3,265c0.2,0.1,0.5,0.2,0.8,0.1
				c0,0,0,0,0,0c0.1,0.7,0.2,1.3,0.4,1.8c-0.2-0.1-0.5-0.1-0.7-0.2C229,266,228.7,265.4,228.3,265z"/>
			<path class="st1" d="M207.7,269.6c-0.3-0.1-0.6-0.1-0.8-0.1c0.1-1-0.2-2.5-2.2-2.9c-2.9-0.6-3.3,2-3.2,2.3c0,0.3,0.5,3.3,2.4,2.9
				c0.2,0,0.4-0.1,0.6-0.1c0,0.1,0,0.2,0,0.3c0,0.3,0.5,3.3,2.4,2.9c1.9-0.4,2.6-0.9,2.9-1.5C209.8,273.2,210.6,270.2,207.7,269.6z"
				/>
		</g>
		<g>
			<path id="XMLID_10864_" class="st1" d="M209.8,273.2c-0.3,0.6-1,1.1-2.9,1.5c-1.9,0.4-2.4-2.5-2.4-2.9c0-0.3,0.3-2.9,3.2-2.3
				C210.6,270.2,209.8,273.2,209.8,273.2z"/>
			<path id="XMLID_10861_" class="st2" d="M248.7,264.6c-0.9-7.1-2.6-9.9-4.7-11.1c0,0-11.2-4.2-14.3,6.4
				c-3.1,10.6,6.4,12.7,7.7,12.7C238.7,272.6,249.7,271.7,248.7,264.6z M241.5,263.9c-0.3,0.6-1,1.1-2.9,1.5
				c-1.9,0.4-2.4-2.5-2.4-2.9c0-0.3,0.3-2.9,3.2-2.3C242.4,260.8,241.5,263.9,241.5,263.9z"/>
			<g>
				<g id="XMLID_10857_">
					<path id="XMLID_10860_" class="st2" d="M262.8,267.9"/>
					<path id="XMLID_10859_" class="st2" d="M269.4,267.5c0-2.8-0.2-6.6,0.9-7.5c1.4-1.1,6.1-0.7,5.4,2.2c-0.4,1.7-0.4,3.6-0.4,5
						c0,0.9,0,1.7,0,1.9c0,0.7,0.3,2.3,2.9,2.6c3.4,0.4,3.8-0.7,3.8-3.1s2.8-13.8-7-15.9c-6.8-1.4-10.5,2.5-12,5.7"/>
					<path id="XMLID_10858_" class="st2" d="M269.8,259.6"/>
				</g>
				<g id="XMLID_10853_">
					<path id="XMLID_10856_" class="st2" d="M250.3,267.9c0.4,2,6.6,0.5,6.6-0.4c0-2.8-0.2-6.6,0.9-7.5c1.2-0.9,4.5-0.8,5.3,0.9
						c0.2,0.4,0.2,0.8,0.1,1.4c-0.4,1.7-0.4,3.6-0.4,5c0,0.9,0,1.7,0,1.9c0,0.7,0.3,2.3,2.9,2.6c3.4,0.4,3.8-0.7,3.8-3.1
						c0-2.4,2.8-13.8-7-15.9c-9.8-2-13,6.8-12.9,8.9C249.6,262.8,249.9,265.5,250.3,267.9"/>
					<path id="XMLID_10855_" class="st2" d="M257.3,259.6"/>
					<path id="XMLID_10854_" class="st2" d="M257.3,259.6c0.2,3.9,0,8.5-0.5,10.2c0,0-1.8,3.3-4.7,1.8c-2.9-1.5-3.1-17.5-1.3-18.2
						c1.8-0.7,5.2-2.3,6,1.4"/>
				</g>
			</g>
			<path id="XMLID_10852_" class="st2" d="M225.4,263.7c-0.5,0.2-0.9,0.7-1.4,1.3c-0.1,0.2-0.2,0.3-0.4,0.5
				c-0.1,0.1-0.4,0.4-0.5,0.5c-1.4,0.7-4.2,1.5-5.4-1.4c-0.1-0.2-0.2-1.1-0.2-1.3c0-0.4,0-0.8,0.1-1.2c0.3-3.1,1.3-4.5,2.3-4.6
				c1.2-0.2,3.4,0.7,4,2.2c0,0,0.6,2.8,2.2,2.4c1.6-0.4,4.5-2,2.2-5c-2.3-3-4.6-6.2-11.1-4c-6.4,2.2-5.3,10.4-5,11
				c0.2,0.6,3.6,12,12.3,6.9C233.3,265.9,226.3,263.4,225.4,263.7z"/>
			<path id="XMLID_10851_" class="st2" d="M206.8,270.2c-0.3,0.6-1,1.1-2.9,1.5c-1.9,0.4-2.4-2.5-2.4-2.9c0-0.3,0.3-2.9,3.2-2.3
				C207.6,267.2,206.8,270.2,206.8,270.2z"/>
		</g>
	</g>
	<g>
		<path id="XMLID_10850_" class="st5" d="M371.5,289.8c1.3-0.5,2.7-1.5,3.9-3.5"/>
		<path id="XMLID_10849_" class="st5" d="M321.2,278.8c0,0,0.4,1.8,1.6,3.4"/>
		<g>
			<path id="XMLID_10848_" class="st6" d="M380.8,258.9c0.3-5.5-1.5-21.3-1.9-26.4c-0.3-4.7-1-8.7-2-12
				c18.1-30.9-31.9-66.5-49.8-26.7c-5.6,12.4-4.9,36.4-4.8,40.6c0.1,5.3,0.2,23.2,0.3,27.8c0.1,25.9,38.5,46.5,53.7,12.7"/>
			<path id="XMLID_10847_" class="st7" d="M327.3,277.6c-2.9-4.6-4.7-9.8-4.7-15.4c0-4.6-0.1-22.5-0.3-27.8
				c-0.1-4.1-0.8-28.1,4.8-40.6c17.9-39.8,67.9-4.2,49.8,26.7c1,3.4,1.7,7.3,2,12c0.3,5.1,2.2,20.9,1.9,26.4l-4.4,16
				c-1.5,3.4-3.3,6.2-5.2,8.5"/>
			<path id="XMLID_10846_" class="st7" d="M327.3,277.6"/>
			<path id="XMLID_10845_" class="st7" d="M364.2,289.5c-10.1,5.9-22.4,2.7-30.9-5"/>
		</g>
		<g>
			<g id="XMLID_10834_">
				<g id="XMLID_10835_">
					<path id="XMLID_10844_" class="st5" d="M351.9,29.4c0,0,81.8,5.9,70.4,102.5S414,246.2,367.8,256s-71.5-23.9-76.5-49.7
						S249.2,42.1,351.9,29.4z"/>
					<path id="XMLID_10843_" class="st5" d="M332.1,249.4c0,0-8.8,9.8,11.6,11.9c20.4,2.1,33-4.3,28.4-11.6"/>
					<path id="XMLID_10842_" class="st5" d="M415.5,142.4c0,0,30.3-33.7,28.6-5.5s-12,57.9-21.7,53.2c-9.7-4.7-9.1-13-9.1-13"/>
					<path id="XMLID_10841_" class="st5" d="M424.2,145c0,0,12-15.6,14-7.6"/>
					<path id="XMLID_10840_" class="st5" d="M419.2,156.2c0,0,16-2.8,12.9,6.1c-3,8.9-9.1,14.4-11,4.1"/>
					<g id="XMLID_10836_">
						<path id="XMLID_10839_" class="st5" d="M289.3,146c0,0-27.3-36.2-28-7.9s7,58.7,17.1,54.9c10.1-3.8,10.2-12.2,10.2-12.2"/>
						<path id="XMLID_10838_" class="st5" d="M280.3,148c0,0-10.7-16.5-13.3-8.7"/>
						<path id="XMLID_10837_" class="st5" d="M284.4,159.5c0,0-15.7-4.1-13.4,5c2.3,9.1,7.8,15.1,10.6,5.1"/>
					</g>
				</g>
			</g>
			<path id="XMLID_10833_" class="st5" d="M308,81.6c0,0,56.9-5.5,36.3,40.3S260.2,113.5,308,81.6z"/>
			<path id="XMLID_10832_" class="st8" d="M300.3,108.6c0,0,8.5-3.4,7.6,5.4S294.4,116.1,300.3,108.6z"/>
			<path id="XMLID_10831_" class="st5" d="M371.2,84c0,0-41.8,36.7,10.2,53.5S416.6,65.3,371.2,84z"/>
			<path id="XMLID_10830_" class="st8" d="M397.8,112.1c0,0,8.5-3.4,7.6,5.4C404.4,126.2,392,119.6,397.8,112.1z"/>
			<path id="XMLID_10829_" class="st8" d="M374.6,72.8c0,0-19.2,2.2-5.5,15.7c13.7,13.5,40.1,0.5,38.7-4.3
				C406.4,79.4,403.9,71.3,374.6,72.8z"/>
			<path id="XMLID_10828_" class="st8" d="M318.8,72.5c0,0-29.6-1.7-15.9,14.8s38-0.4,39.9-7.4C344.8,72.8,318.8,72.5,318.8,72.5z"
				/>
			<path id="XMLID_10827_" class="st5" d="M304.8,130.5c0,0-8.2,1.2-4.6,5c3.6,3.9,5.4-0.9,11.5,2.2"/>
			<path id="XMLID_10826_" class="st5" d="M406.8,130.2c0,0,8.2,1.2,4.6,5s-5.4-0.9-11.5,2.2"/>
			<path id="XMLID_10825_" class="st5" d="M397.8,129.6c0,0-19.2-1.3-30.5,1.6"/>
			<path id="XMLID_10824_" class="st5" d="M314.1,128.8c0,0,11.2-2.1,23.7,1.7"/>
			<g>
				<path id="XMLID_10823_" class="st5" d="M364.7,152c0,0-15-18.7-14.5-29.1"/>
				<g id="XMLID_10820_">
					<path id="XMLID_10822_" class="st5" d="M338.5,154c0.6,4.9,2.2,8.4,5.4,9c1.8,0.3,3.3,0.2,4.5,0c1-0.2,1.9-0.6,2.5-1"/>
					<path id="XMLID_10821_" class="st5" d="M354.8,94.6c0,0-11.5,30.6-14.7,52.3"/>
				</g>
				<g id="XMLID_10814_">
					<path id="XMLID_10819_" class="st5" d="M333.1,156.6c0,0-11.1,12.9,6.7,16.5"/>
					<path id="XMLID_10818_" class="st5" d="M363.7,156.6c0,0,11.8,9.8-4.8,16.5"/>
					<path id="XMLID_10817_" class="st5" d="M355,164.6c1.7,0.5,4.2-3,6.1,0s-0.2,2.2-2.7,2.8S353.3,164.1,355,164.6z"/>
					<path id="XMLID_10816_" class="st5" d="M338.1,169c-3.4-0.2-4.2-2.9-2.4-4.3c0.6-0.5,2.5,0.4,4.3,1.4
						C341.5,167.1,338.1,169,338.1,169z"/>
					<path id="XMLID_10815_" class="st5" d="M350.1,149.8c0,0,3.5-0.1,4.3,1.1"/>
				</g>
			</g>
			<g>
				<g id="XMLID_10809_">
					<path id="XMLID_10813_" class="st8" d="M329.6,190.1c0,0-30.3,5.8-12.7,15.8C334.6,215.9,329.6,190.1,329.6,190.1z"/>
					<path id="XMLID_10812_" class="st8" d="M324.5,181.3c0,0-25.3,0.1-12.9,12.4c12.4,12.3,32.3-2.1,33.7-7.8
						C346.6,180.3,324.5,181.3,324.5,181.3z"/>
					<path id="XMLID_10811_" class="st8" d="M375.2,184.9c0,0-12.5-3.4-9.5,12c3,15.4,24.1,11.5,25.1,7
						C391.8,199.4,393.4,191.8,375.2,184.9z"/>
					<path id="XMLID_10810_" class="st8" d="M364.5,181.4c0,0-36-2.4,0.2,12.7S405.5,184.4,364.5,181.4z"/>
				</g>
				<g id="XMLID_10805_">
					<path id="XMLID_10808_" class="st5" d="M334.2,203.6c0,0,18.7,18.5,29.1,0"/>
					<path id="XMLID_10807_" class="st5" d="M338.5,200.7c0,0,5.2-5.5,9,0"/>
					<path id="XMLID_10806_" class="st5" d="M356.4,200.7c0,0-5.2-5.5-9,0"/>
				</g>
			</g>
			<g>
				<path id="XMLID_10804_" class="st2" d="M372.4,7.1c0,0-10.2,9,2.5,13.1C387.7,24.3,383.6,2.5,372.4,7.1z"/>
				<path id="XMLID_10803_" class="st2" d="M416.5,52.1c-0.3-3.2-1.7-7.3-4.5-12.4c0-0.1,0-0.1,0-0.1l0,0c-0.6-1.1-1.3-2.2-2-3.4
					c-9.1-14.3-24.1-22.6-37.7-26.8c-58.7-26.4-64.6,29.3-64.8,50.3c0,2,26.4-0.2,50.5-6.2c30.6,12.3,59.4,26.1,59.4,26.1
					S419.5,61.6,416.5,52.1z"/>
				<path id="XMLID_10802_" class="st2" d="M292.9,67.5c0,0,31.3-12.7,68.1-4.7s55.9,16.6,55.9,16.6c-11.7-40.5-83-40.8-119-38.5
					c-36,2.3-26.4,16-26.4,16S276.9,63.6,292.9,67.5z"/>
				<path id="XMLID_10801_" class="st9" d="M292.9,67.5c0,0-62.1-17.2,23.9-21c86-3.8,100.1,33,100.1,33S337.4,45.1,292.9,67.5z"/>
				<path id="XMLID_10800_" class="st2" d="M389.5,17.2c0,0,2.8,2.2,1.2,4.6"/>
				<line id="XMLID_10799_" class="st2" x1="316.2" y1="40.1" x2="317.9" y2="36.2"/>
			</g>
			<path id="XMLID_10798_" class="st5" d="M369.4,143.7c0,0,14.9,11.1,34.1,4.3"/>
			<path id="XMLID_10797_" class="st5" d="M333,144.2c0,0-24,5.2-29.1,2.9"/>
			<path id="XMLID_10796_" class="st5" d="M326,163.7c0,0-9.7,4.8-12.5,5.9"/>
			<line id="XMLID_10795_" class="st5" x1="297.5" y1="167.7" x2="301.5" y2="169.5"/>
			<path id="XMLID_10794_" class="st5" d="M370.1,161c0,0,11.3,5.4,12.4,5.3"/>
			<path id="XMLID_10793_" class="st5" d="M418.2,112.6c0,0,1.6,3.3-1,4.7"/>
			<path id="XMLID_10792_" class="st5" d="M409.4,146.1c0,0-0.7,3-1.6,4"/>
			<path id="XMLID_10791_" class="st5" d="M412.7,90.4c0,0,1.3-5.6,0-5.6"/>
			<path id="XMLID_10790_" class="st5" d="M317.4,64.5c0,0,5.2,0.7,4.7,1.6"/>
			<path id="XMLID_10789_" class="st5" d="M349.6,74.4c0,0,6.1-0.9,6.5-2.1"/>
			<path id="XMLID_10788_" class="st5" d="M319.7,229c0,0,4.4,1,4.7,1.9"/>
			<path id="XMLID_10787_" class="st5" d="M387.1,231c0,0-4,1.9-5.2,3.9"/>
		</g>
		<path id="XMLID_10786_" class="st5" d="M332.5,293.9c0.4,0.3,0.9,0.5,1.4,0.6"/>
	</g>
</g>
</svg>
