<?xml version="1.0" encoding="utf-8"?>
<!-- Generator: Adobe Illustrator 22.1.0, SVG Export Plug-In . SVG Version: 6.00 Build 0)  -->
<svg version="1.1" id="Layer_1" xmlns="http://www.w3.org/2000/svg" xmlns:xlink="http://www.w3.org/1999/xlink" x="0px" y="0px"
	 viewBox="0 0 1280 720" style="enable-background:new 0 0 1280 720;" xml:space="preserve">
<style type="text/css">
	.st0{fill:#F7C872;stroke:#5B5B4B;stroke-miterlimit:10;}
</style>
<path class="st0" d="M1472.1,275.2c-7.6-6-16.2-10.1-25.3-12.6c0.1-43,0.1-86,0.2-129c0.1-46.3,0.3-92.7,0.2-139
	c-0.1-42.7-1-85.4-6.8-127.8c-5.7-41.1-16.2-82-35.3-120.4c-9-18-19.5-35.8-34-51.3c-13.9-14.8-31.7-26.4-51.8-35
	c-41.9-17.9-90.3-24.3-136.1-31.7c-53.7-8.6-107.8-15.8-162.1-21.7c-110.4-11.9-221.7-18.1-333-18.5
	c-110.8-0.4-221.7,4.8-331.7,15.7c-54.3,5.4-108.5,12.2-162.3,20.3c-18.4,2.8-37,5.8-55.4,9.6c-51.3,4-102,14-149.2,35.1
	c-61.1,27.3-116.7,72.4-145.8,133.8c-35.2,74.4-24.7,161,2.5,236.1c14.5,40,43.9,271,40.8,272.3c-13.8,5.9,8.6,11.5,6.2,1.8
	c-0.3-1.1-2.1-0.7-1.8,0.5c0.6,2.4-9.2,5.4-3.5-0.7c1.4-1.5-0.8,39.7,0.1,61.4c1,24.7,2.3,52.3,15.8,73.8
	c5.4,8.6,13.3,15.7,23.3,18.3c15.9,4.2,31.3-3.6,45.3-10.1c17.3-8.1,34.7-16.2,52-24.2c16.5-7.7,33.2-17.1,51.1-21.1
	c14.5-3.3,29.4-1.3,41.7,7.1c10.2,6.9,17.8,17.1,23.8,27.8c6.5,11.5,11.4,23.8,15.9,36.2c4.4,12,7.7,25.1,14,36.3
	c6.1,10.8,16.3,18.6,29.2,16.9c12.9-1.7,24.1-11.2,31.2-21.5c8.7-12.5,13-27.6,20.4-40.8c4-7.1,9-13,14.9-18.6
	c4.9-4.6,9.7-9.4,12-15.9c5.4-15.4-3.8-30.9-2.2-46.4c0.8-7.1,4.2-14.3,9.5-19.1c5.3-4.9,13.1-6.7,18.2-0.5c4.9,5.9,10,11.3,16.1,16
	c6.2,4.7,12.8,7.8,19.7,11.5c0.6,0.3,1.3,0.3,1.4,1c0,0.3-3.8,3.2-4.1,3.6c-2.1,2.1-3.9,4.4-5.5,6.9c-3.4,5.3-5.6,11.3-6.5,17.5
	c-0.9,6.2-0.3,12.5,1.6,18.4c0.1,0.2,0.4,0.4,0.6,0.2c5.9-7.5,14.7-4.6,21.3,0.3c7.2,5.4,12.2,12.7,16,20.7
	c10,20.9,20.1,41.8,30.1,62.7c5.1,10.6,10.1,21.2,15.2,31.7c4.3,9,8.3,18.2,13.3,26.8c7.1,12.4,17.6,26.8,32.9,29
	c15.7,2.2,26.8-10,37.2-19.6c6.8-6.3,14-11.2,22.9-14.2c8.7-3,17.8-4.4,26.7-6.2c15.5-3.2,29.6-8.5,39.5-21.5
	c9.4-12.4,14.1-27.6,21.8-41.1c4.6-8,10.4-15.3,18.3-20.1c9.2-5.6,19.8-7.7,29.6-11.9c7.7-3.3,14.5-8.1,18.7-15.4
	c3.1-2.8,6.1-5.7,8.9-8.7c3.9-4.3,10.9-11.1,6.6-17.3c-3-4.3-9.6-4.9-14.4-5.3c-6.6-0.6-12.6-1.1-18.3-4.9
	c-10.9-7.1-16.3-20.9-16.2-33.6c0.1-14.8,8.9-27.6,20.7-36c7.1-5.1,15.2-8.7,23.6-11.1c1.4-0.4,2.8-0.8,4.3-1.1
	c-5.4,5.1-9.5,11.5-11.5,18.9c-0.1,0.5,0.7,0.8,0.9,0.2c2.1-7.8,6.6-14.5,12.5-19.6c2.1-0.5,4.2-0.8,6.3-1.2
	c1.3-0.2,2.5-0.4,3.8-0.5c1.5-0.2,2-0.5,2.2,1.2c0.4,2.8,0.4,5.6,0.8,8.4c0,0.2,0.3,0.2,0.3,0c0-3.4-0.1-6.8-0.3-10.3
	c0-0.2-0.2-0.5-0.4-0.4c-3.6,0.3-7.4,0.8-11.2,1.6c5.2-4,11.3-6.9,17.9-8.4c11.3-2.5,22.7,0.1,32.5,5.7c2.5,5,4.2,10.2,5,15.7
	c2.5,16.2-3.8,54.6,15.5,49.1c4.3-1.2,8.5-2.6,12.7-4.1c0.9,4.8,1.7,9.7,2.6,14.4c3.3,17.2,8.1,37.6,25.1,46.3
	c2.6,1.3,3.5,0.7,3.1,3.5c-0.2,1.6-4.3,5.6-5.5,7.1c-5.4,7-10.5,14.2-15.5,21.5c-9.1,13.4-17.5,27.3-25.2,41.5
	c-8,14.9-22.6,42.7-4.3,56.1c18.4,13.5,41.7-9.1,60.9,0.4c19.8,9.8,9.1,39,25.1,51.8c9,7.2,21,3.6,30.8,0.2
	c16.9-5.9,33.7-12,50.5-18c30.3-10.8,61.7-20.1,91.2-32.9c15.9-6.9,36-21,27.9-41c-6.6-16.3-26.2-23.1-38.1-34.6
	c-10.6-10.2-11.7-22.1-4.2-35c8.5-14.7,18.5-28.6,27.8-42.8c9.8-14.9,19.1-30.3,29.4-44.9c1.1-1.5,3-4.9,4.7-5.7
	c2.2,0.3,4.4,0.7,6.7,1c5.3-1.4,7.7,0.2,7.2,4.6c0.3,2.8,0,5.6,0.1,8.3c0.1,4,0.7,7.7,2.6,11.3c8.2,15.5,30.9,18.1,46,12.9
	c25-8.6,38.3-35.4,61.8-46.4c10.9-5.1,24.6-6.7,36-2.2c13.9,5.5,18.4,19.7,13.7,33.3c-7.6,22.2-28.4,40-17.6,65.2
	c9.9,23.1,34.9,32.6,58.6,33.1c40.2,0.7,106.7-14.1,112.9-62.8c1.9-14.7-2-30.4,5.5-44.1c4.9-9,13.6-14.9,22.7-19.1
	c18.8-8.5,40-11.2,58.2-21.1c16.7-9.1,27.7-24.9,26.3-44.4C1499,305.2,1487.2,287.1,1472.1,275.2z"/>
</svg>
