<?xml version="1.0" encoding="utf-8"?>
<!-- Generator: Adobe Illustrator 22.1.0, SVG Export Plug-In . SVG Version: 6.00 Build 0)  -->
<svg version="1.1" id="Layer_1" xmlns="http://www.w3.org/2000/svg" xmlns:xlink="http://www.w3.org/1999/xlink" x="0px" y="0px"
	 viewBox="0 0 357.8 304.2" style="enable-background:new 0 0 357.8 304.2;" xml:space="preserve">
<style type="text/css">
	.st0{opacity:0.1;}
	.st1{fill:#092D30;}
	.st2{fill:#FFD767;stroke:#584C4F;stroke-width:4;stroke-miterlimit:10;}
	.st3{opacity:0.1;enable-background:new    ;}
	.st4{fill:#231F20;stroke:#231F20;stroke-width:4;stroke-miterlimit:10;}
	.st5{fill:none;stroke:#231F20;stroke-width:4;stroke-miterlimit:10;}
	.st6{fill:#FFFAF2;stroke:#584C4F;stroke-width:4;stroke-miterlimit:10;}
	.st7{fill:none;stroke:#584C4F;stroke-width:4;stroke-miterlimit:10;}
	.st8{fill:#FFFFFF;stroke:#584C4F;stroke-width:4;stroke-linecap:round;stroke-miterlimit:10;}
</style>
<g id="Layer_5">
</g>
<g id="Layer_3">
</g>
<g class="st0">
	<path id="XMLID_10346_" class="st1" d="M280.7,115c0,0,3.8,22.7,21.9,14.7c18.1-7.9,9.2-93.9,0.8-100.6
		C295.1,22.4,271.7-18.5,280.7,115z"/>
	<path id="XMLID_10345_" class="st1" d="M255.4,115c0,0,3.8,22.7,21.9,14.7c18.1-7.9,9.2-93.9,0.8-100.6S246.3-18.5,255.4,115z"/>
	<path id="XMLID_10342_" class="st1" d="M211.5,57.6c-38.7,12.3-18.4,58.8-18.4,58.8s24.7,29.2,56.4,6
		C281.1,99.1,250.1,45.3,211.5,57.6z M216.8,106.3c-21.2-2.9,8.5-42.3,18.2-17.1C244.6,114.3,216.8,106.3,216.8,106.3z"/>
	<g id="XMLID_10339_">
		<path id="XMLID_10341_" class="st1" d="M207.2,64.6c0,0-41-28.2-58.7,21.6s25.4,57.6,24.4,27.3c-1-30.3,9.4-32.8,21.3-28.1
			C206.2,90,222.9,85,207.2,64.6z"/>
		<path id="XMLID_10340_" class="st1" d="M172.3,67.4c0,0-2.7-18.7-19.4-8.8s0.9,26.1,0.9,26.1"/>
	</g>
	<path id="XMLID_10338_" class="st1" d="M114.3,125.6c-31.1-21.8-11.9-53.5-11.9-53.5c2.9-6.2,35-23.1,44.3-13.3l0,0
		c9.3,9.8,2.3,17.5-1.8,21.9c-3.2,3.5-10,2.9-12.8,2.4c-0.8-0.2-1.4-0.2-1.4-0.2c-5.8-0.8-11.3,1.2-9.9,8.2c0,0,0.2,5.4,2.3,9.5l0,0
		c0,0,1.5,3.7,4.4,4.8c1.1,0.5,2.4,0.5,4-0.3c0.1-0.1,0.2-0.1,0.2-0.2c0.7-0.3,1.5-0.7,2.5-0.9c6.5-2,17.5-2.6,19.6,6.2
		c2.4,10.2,0.2,11.3-1.1,13.4l0,0c-1.3,2-5.4,3.6-5.4,3.6l0,0C137.3,132.7,125.3,133.3,114.3,125.6z"/>
	<g id="XMLID_10334_">
		<path id="XMLID_10337_" class="st1" d="M95.6,82c0,0,13.1-0.7,11.6-11.6c-1.1-8.7-37.7-24.6-52.7-5.6c-3.9,4.9-6.3,12.2-6.3,22.7
			v0.1c1.1,3.6,2.9,6.6,5.4,9.1c0.9,1,1.9,1.8,2.8,2.5c6.7,5.1,16.2,7.4,24.5,7.6c-1.2,4.7-6.8,7.3-24.7-1.4c0,0-13.1,0.7-11.6,11.6
			c1.1,8.7,37.8,24.6,52.7,5.6c3.9-5,6.3-12.2,6.3-22.7v-0.1c-1.1-3.6-2.9-6.6-5.4-9.1c-0.9-1-1.9-1.8-2.8-2.5
			c-6.9-5.3-16.2-7.5-24.6-7.7C72.1,75.8,77.7,73.3,95.6,82z"/>
		<path id="XMLID_10336_" class="st1" d="M79,95.5c0,0,12.5,27-22.8,9.8c0,0-13.1,0.7-11.6,11.6s59.3,33.3,58.9-17.2"/>
		<path id="XMLID_10335_" class="st1" d="M72.7,91.7c0,0-12.5-27,22.8-9.8c0,0,13.1-0.7,11.6-11.6c-1.4-11-59.3-33.3-58.9,17.2"/>
	</g>
</g>
<g>
	<path id="XMLID_10331_" class="st2" d="M280.7,124.8c0,0,3.8,22.7,21.9,14.7c18.1-7.9,9.2-93.9,0.8-100.6
		C295.1,32.2,271.7-8.6,280.7,124.8z"/>
	<path id="XMLID_10330_" class="st2" d="M255.4,124.8c0,0,3.8,22.7,21.9,14.7c18.1-7.9,9.2-93.9,0.8-100.6S246.3-8.6,255.4,124.8z"
		/>
	<path id="XMLID_10327_" class="st2" d="M211.5,67.4c-38.7,12.3-18.4,58.8-18.4,58.8s24.7,29.2,56.4,6
		C281.1,108.9,250.1,55.1,211.5,67.4z M216.8,116.1c-21.2-2.9,8.5-42.3,18.2-17.1C244.6,124.1,216.8,116.1,216.8,116.1z"/>
	<g id="XMLID_10324_">
		<path id="XMLID_10326_" class="st2" d="M207.2,74.4c0,0-41-28.2-58.7,21.6s25.4,57.6,24.4,27.3c-1-30.3,9.4-32.8,21.3-28.1
			C206.2,99.9,222.9,94.9,207.2,74.4z"/>
		<path id="XMLID_10325_" class="st2" d="M172.3,77.3c0,0-2.7-18.7-19.4-8.8c-16.7,9.8,0.9,26.1,0.9,26.1"/>
	</g>
	<path id="XMLID_10323_" class="st2" d="M114.3,135.4C83.3,113.6,102.4,82,102.4,82c2.9-6.2,35-23.1,44.3-13.3l0,0
		c9.3,9.8,2.3,17.5-1.8,21.9c-3.2,3.5-10,2.9-12.8,2.4c-0.8-0.2-1.4-0.2-1.4-0.2c-5.8-0.8-11.3,1.2-9.9,8.2c0,0,0.2,5.4,2.3,9.5l0,0
		c0,0,1.5,3.7,4.4,4.8c1.1,0.5,2.4,0.5,4-0.3c0.1-0.1,0.2-0.1,0.2-0.2c0.7-0.3,1.5-0.7,2.5-0.9c6.5-2,17.5-2.6,19.6,6.2
		c2.4,10.2,0.2,11.3-1.1,13.4l0,0c-1.3,2-5.4,3.6-5.4,3.6l0,0C137.3,142.5,125.3,143.1,114.3,135.4z"/>
	<g id="XMLID_10319_">
		<path id="XMLID_10322_" class="st2" d="M95.6,91.8c0,0,13.1-0.7,11.6-11.6c-1.1-8.7-37.7-24.6-52.7-5.6
			c-3.9,4.9-6.3,12.2-6.3,22.7v0.1c1.1,3.6,2.9,6.6,5.4,9.1c0.9,1,1.9,1.8,2.8,2.5c6.7,5.1,16.2,7.4,24.5,7.6
			c-1.2,4.7-6.8,7.3-24.7-1.4c0,0-13.1,0.7-11.6,11.6c1.1,8.7,37.8,24.6,52.7,5.6c3.9-5,6.3-12.2,6.3-22.7v-0.1
			c-1.1-3.6-2.9-6.6-5.4-9.1c-0.9-1-1.9-1.8-2.8-2.5c-6.9-5.3-16.2-7.5-24.6-7.7C72.1,85.7,77.7,83.1,95.6,91.8z"/>
		<path id="XMLID_10321_" class="st2" d="M79,105.3c0,0,12.5,27-22.8,9.8c0,0-13.1,0.7-11.6,11.6s59.3,33.3,58.9-17.2"/>
		<path id="XMLID_10320_" class="st2" d="M72.7,101.5c0,0-12.5-27,22.8-9.8c0,0,13.1-0.7,11.6-11.6c-1.4-10.9-59.3-33.2-58.9,17.3"
			/>
	</g>
</g>
<g class="st3">
	<g>
		<path class="st4" d="M166.8,174.4c-14.3,0.8-26.9,2.6-27.1,16.8c0,3.2,0.2,16,0,18.8c-0.6,9.5,4.8,25.1,20.2,50.7
			c36.4,60.6,67.3-6.9,67.3-6.9c10.9-13.5,14.3-25.7,13.1-35.2c-0.2-2.2,0.2-13.3,0.2-16.8c0-21.6-22.4-31.1-38-11.7
			C180.9,217.8,191,173,166.8,174.4z"/>
		<g id="XMLID_9_">
			<path id="XMLID_10_" class="st4" d="M227.4,254c0,0-30.9,67.5-67.3,6.9s-17.4-64.7,6.7-66.1s14.1,43.2,36,16
				C224.6,183.3,260.3,213.2,227.4,254z"/>
		</g>
	</g>
	<line id="XMLID_8_" class="st5" x1="229.6" y1="235.6" x2="232.5" y2="229.4"/>
	<path id="XMLID_7_" class="st4" d="M231,196.8c0,0-1.4-9.5-3.2-10.1"/>
	<path id="XMLID_6_" class="st4" d="M191.6,211.4c0,0,0.4-4.8-1.2-5.9"/>
</g>
<g>
	<g>
		<path class="st2" d="M166.9,185.5c-14.3,0.8-26.9,2.6-27.1,16.8c0,3.2,0.2,16,0,18.8c-0.6,9.5,4.8,25.1,20.2,50.7
			c36.4,60.6,67.3-6.9,67.3-6.9c10.9-13.5,14.3-25.7,13.1-35.2c-0.2-2.2,0.2-13.3,0.2-16.8c0-21.6-22.4-31.1-38-11.7
			C181,228.9,191.1,184.1,166.9,185.5z"/>
		<g id="XMLID_4_">
			<path id="XMLID_5_" class="st6" d="M227.5,265.1c0,0-30.9,67.5-67.3,6.9s-17.4-64.7,6.7-66.1s14.1,43.2,36,16
				C224.7,194.4,260.4,224.3,227.5,265.1z"/>
		</g>
	</g>
	<line id="XMLID_3_" class="st7" x1="229.7" y1="246.7" x2="232.5" y2="240.5"/>
	<path id="XMLID_2_" class="st6" d="M231.1,207.9c0,0-1.4-9.5-3.2-10.1"/>
	<path id="XMLID_1_" class="st6" d="M191.7,222.5c0,0,0.4-4.8-1.2-5.9"/>
</g>
<g>
	<path id="XMLID_21_" class="st8" d="M280.8,137.6c0,0,3.8,22.7,21.9,14.7c18.1-7.9,9.2-93.9,0.8-100.6
		C295.2,45.1,271.7,4.2,280.8,137.6z"/>
	<path id="XMLID_20_" class="st8" d="M255.4,137.6c0,0,3.8,22.7,21.9,14.7c18.1-7.9,9.2-93.9,0.8-100.6
		C269.8,45.1,246.4,4.2,255.4,137.6z"/>
	<path id="XMLID_19_" class="st8" d="M211.5,80.3c-38.7,12.3-18.4,58.8-18.4,58.8s24.7,29.2,56.4,6C281.2,121.8,250.1,68,211.5,80.3
		z M216.9,128.9c-21.2-2.9,8.5-42.3,18.2-17.1C244.7,137,216.9,128.9,216.9,128.9z"/>
	<g id="XMLID_16_">
		<path id="XMLID_18_" class="st8" d="M207.2,87.2c0,0-41-28.2-58.7,21.6s25.4,57.6,24.4,27.3c-1-30.3,9.4-32.8,21.3-28.1
			C206.2,112.7,222.9,107.7,207.2,87.2z"/>
		<path id="XMLID_17_" class="st8" d="M172.4,90.1c0,0-2.7-18.7-19.4-8.8s0.9,26.1,0.9,26.1"/>
	</g>
	<path id="XMLID_15_" class="st8" d="M114.4,148.3c-31.1-21.8-11.9-53.5-11.9-53.5c2.9-6.2,35-23.1,44.3-13.3l0,0
		c9.3,9.8,2.3,17.5-1.8,21.9c-3.2,3.5-10,2.9-12.8,2.4c-0.8-0.2-1.4-0.2-1.4-0.2c-5.8-0.8-11.3,1.2-9.9,8.2c0,0,0.2,5.4,2.3,9.5l0,0
		c0,0,1.5,3.7,4.4,4.8c1.1,0.5,2.4,0.5,4-0.3c0.1-0.1,0.2-0.1,0.2-0.2c0.7-0.3,1.5-0.7,2.5-0.9c6.5-2,17.5-2.6,19.6,6.2
		c2.4,10.2,0.2,11.3-1.1,13.4l0,0c-1.3,2-5.4,3.6-5.4,3.6l0,0C137.4,155.4,125.3,156,114.4,148.3z"/>
	<g id="XMLID_11_">
		<path id="XMLID_14_" class="st8" d="M95.6,104.6c0,0,13.1-0.7,11.6-11.6c-1.1-8.7-37.7-24.6-52.7-5.6c-3.9,4.9-6.3,12.2-6.3,22.7
			v0.1c1.1,3.6,2.9,6.6,5.4,9.1c0.9,1,1.9,1.8,2.8,2.5c6.7,5.1,16.2,7.4,24.5,7.6c-1.2,4.7-6.8,7.3-24.7-1.4c0,0-13.1,0.7-11.6,11.6
			c1.1,8.7,37.8,24.6,52.7,5.6c3.9-5,6.3-12.2,6.3-22.7v-0.1c-1.1-3.6-2.9-6.6-5.4-9.1c-0.9-1-1.9-1.8-2.8-2.5
			c-6.9-5.3-16.2-7.5-24.6-7.7C72.1,98.5,77.7,95.9,95.6,104.6z"/>
		<path id="XMLID_13_" class="st8" d="M79.1,118.1c0,0,12.5,27-22.8,9.8c0,0-13.1,0.7-11.6,11.6c1.4,11,59.3,33.3,58.9-17.2"/>
		<path id="XMLID_12_" class="st8" d="M72.8,114.4c0,0-12.5-27,22.8-9.8c0,0,13.1-0.7,11.6-11.6C105.8,82,48,59.7,48.3,110.2"/>
	</g>
</g>
</svg>
