<?xml version="1.0" encoding="utf-8"?>
<!-- Generator: Adobe Illustrator 22.1.0, SVG Export Plug-In . SVG Version: 6.00 Build 0)  -->
<svg version="1.1" id="Layer_1" xmlns="http://www.w3.org/2000/svg" xmlns:xlink="http://www.w3.org/1999/xlink" x="0px" y="0px"
	 viewBox="0 0 36.5 24.5" style="enable-background:new 0 0 36.5 24.5;" xml:space="preserve">
<style type="text/css">
	.st0{opacity:0.1;fill:#231F20;stroke:#231F20;stroke-miterlimit:10;enable-background:new    ;}
	.st1{fill:#FFD767;stroke:#584C4F;stroke-miterlimit:10;}
</style>
<g id="Layer_5">
</g>
<g id="Layer_3">
</g>
<path class="st0" d="M16.9,3.9c-1.1-2.1-7.7,4.5-7.7,4.5s0,0-0.1,0H0.5V19h8.6h0.1c0,0,6.6,6.6,7.7,4.5C17.7,22,17.7,5.4,16.9,3.9z"
	/>
<path class="st1" d="M26,0.5c5.5,0,10,4.5,10,10s-4.5,10-10,10"/>
<path class="st1" d="M24.2,3c4.1,0,7.5,3.4,7.5,7.5S28.4,18,24.2,18"/>
<path class="st1" d="M19.9,0.9c-1.1-2.1-7.7,4.5-7.7,4.5s0,0-0.1,0H3.5V16h8.6h0.1c0,0,6.6,6.6,7.7,4.5C20.7,19,20.7,2.4,19.9,0.9z"
	/>
<path class="st1" d="M22.5,5.5c2.8,0,5,2.2,5,5s-2.2,5-5,5"/>
</svg>
