<?xml version="1.0" encoding="utf-8"?>
<!-- Generator: Adobe Illustrator 23.0.3, SVG Export Plug-In . SVG Version: 6.00 Build 0)  -->
<svg version="1.1" id="Layer_1" xmlns="http://www.w3.org/2000/svg" xmlns:xlink="http://www.w3.org/1999/xlink" x="0px" y="0px"
	 viewBox="0 0 807.6 60.4" style="enable-background:new 0 0 807.6 60.4;" xml:space="preserve">
<style type="text/css">
	.st0{fill:#2C2C2C;stroke:#2C2C2C;stroke-linecap:round;stroke-linejoin:round;stroke-miterlimit:10;}
</style>
<path class="st0" d="M1.7,25.1C4.1,11.4,11.9,5.1,21,3.2c11.7-1.8,48.9-2.7,71,0.9c0,0,7.2-2.7,12.7,0.9c8.9-4.6,33.4-5.5,54.8-3.6
	c9.5,0,19.2,0.9,27.6,1.8c1.8,0,3.8,0,5.9,0.9c1.2,0,7.5-1.8,12.4,0.9c8.8-4.6,33-5.5,54.3-3.6c10.3,0,21,0.9,30.1,1.8
	c0.7,0,1.5,0,2.3,0c1.2,0,2.4,0,3.5,0.9c0,0,7.2-2.7,12.7,0.9c8.9-4.6,33.4-5.5,54.8-3.6c9.5,0,19.2,0.9,27.6,1.8
	c1.8,0,3.8,0,5.9,0.9c1.2,0,7.5-1.8,12.4,0.9c8.8-4.6,33-5.5,54.3-3.6c10.3,0,21,0.9,30.1,1.8c0.7,0,1.5,0,2.3,0
	c1.2,0,2.4,0,3.5,0.9c0,0,7.2-2.7,12.7,0.9c8.9-4.6,33.4-5.5,54.8-3.6c9.5,0,19.2,0.9,27.6,1.8c1.3,0,2.7,0,4.2,0
	c1.3,0,3.2-0.9,5.3,0c2.1,0,4.8,0,7.3,0.9c7-2.7,20.1-3.6,34.3-3.6c7.8,0,16.1,0,23.9,0.9c7.8,0,15.6,0.9,22.5,1.8
	c0.8,0,1.7,0,2.7,0c1.4,0,3.2,0,4.9,0c2.5-0.9,7-0.9,10.7,1.8c12.6-6.4,56-5.5,78.1-0.9c0,0,24.6-9.1,17.7,31
	C803.2,50.6,793.5,57,782.7,57s-45,2.7-67.1-1.8c0,0-7.1,2.7-12.7-0.9c-9.7,5.5-37.9,5.5-60.4,3.6c-7.5,0-15-0.9-21.9-1.8
	c-1.3,0-2.8,0-4.3,0c-1.3,0-3.3,0.9-5.4,0c-2.1,0-4.8,0-7.3-0.9c-6.9,2.7-19.9,3.6-33.8,3.6c-9.7,0-20.1,0-29.5-0.9
	c-5.9,0-11.8-0.9-17.2-0.9c-0.8,0-1.8,0-2.7,0c-1.5,0-3.2,0-5,0c-2.5,0.9-7,0.9-10.7-1.8c-9.7,4.6-37.7,5.5-60.1,3.6
	c-8.2,0-16.6-0.9-24.1-1.8c-0.8,0-1.7,0-2.5,0c-1.2,0-2.4,0-3.5-0.9c0,0-7.1,2.7-12.7-0.9c-9.7,5.5-37.9,5.5-60.4,3.6
	c-7.5,0-15-0.9-21.9-1.8c-1.8,0-3.9,0-6-0.9c-1.2,0-7.5,1.8-12.4-0.9c-9.7,4.6-37.7,5.5-60.1,3.6c-8.2,0-16.6-0.9-24.1-1.8
	c-0.8,0-1.7,0-2.5,0c-1.2,0-2.4,0-3.5-0.9c0,0-7.1,2.7-12.7-0.9c-9.7,5.5-37.9,5.5-60.4,3.6c-7.5,0-15-0.9-21.9-1.8
	c-1.8,0-3.9,0-6-0.9c-1.2,0-7.5,1.8-12.4-0.9c-12.5,6.4-56,5.5-78.1,0.9C19.4,56.1-5.2,65.2,1.7,25.1z"/>
</svg>
