<?xml version="1.0" encoding="utf-8"?>
<!-- Generator: Adobe Illustrator 23.0.3, SVG Export Plug-In . SVG Version: 6.00 Build 0)  -->
<svg version="1.1" id="Layer_1" xmlns="http://www.w3.org/2000/svg" xmlns:xlink="http://www.w3.org/1999/xlink" x="0px" y="0px"
	 viewBox="0 0 148.3 73.5" style="enable-background:new 0 0 148.3 73.5;" xml:space="preserve">
<style type="text/css">
	.st0{opacity:0.1;}
	.st1{fill:#FFFFFF;}
	.st2{fill:#2C2C2C;}
</style>
<g id="Layer_5" class="st0">
</g>
<g id="Layer_3" class="st0">
</g>
<g>
	<path class="st1" d="M59.5,36.2c0-0.4-0.1-0.8-0.1-1.2c0-1.2,0-2.5-0.1-3.7c-0.1-3.1-0.5-6.1-0.8-9.2c-0.1-0.6-0.1-1.2-0.2-1.9
		c0-1.7-0.1-3.4-0.3-5.2c0-0.2,0-0.3,0-0.5c0.1-1.9,0.4-3.7,0.3-5.6c0-0.9-0.2-1.8-0.5-2.7c-0.3-0.9-0.8-1.7-1.4-2.3
		c-0.3-0.3-0.7-0.6-1.1-0.8C55,2.8,54.5,2.6,54,2.4c-0.9-0.4-1.9-0.6-2.9-0.6c-0.1,0-0.2,0-0.2,0c-0.3,0-0.6,0-0.9,0.1c0,0,0,0,0,0
		c-0.2-0.1-0.5-0.1-0.7-0.1c0,0,0,0,0,0c-0.2,0-0.5,0-0.7,0.1c-0.1,0-0.3,0.1-0.4,0.1C48,2,47.8,2,47.7,2.1
		c-0.3,0.1-0.6,0.2-0.9,0.4c-0.4,0.2-0.7,0.4-1,0.6c-0.5,0.3-0.9,0.7-1.3,1.1c-0.4,0.4-0.7,0.8-1,1.2c-0.3,0.4-0.5,0.9-0.7,1.3
		c-0.1,0.3-0.2,0.6-0.3,1c-0.1,0.5-0.1,1-0.2,1.5c-0.1,0.9-0.1,1.9,0,2.8c0.1,0.8,0.2,1.6,0.3,2.3c-0.1,1.1-0.2,2.2-0.3,3.4
		c0,0.6-0.1,1.3-0.1,1.9c-0.1,0.9-0.1,1.9-0.1,2.8c0,0.1,0,0.3-0.1,0.4c-0.3,1.9-0.5,3.8-0.5,5.7c-0.1,3.7,0.1,7.4,0.7,11.1
		c0,0.2,0.1,0.3,0.2,0.4c0,0,0,0,0,0.1c-0.2,0.7-0.1,1.5,0,2.2c0.1,0.9,0.5,1.8,0.9,2.6c0.5,0.9,1.1,1.7,1.7,2.5
		c0.3,0.4,0.7,0.7,1,1.1c0.4,0.4,0.9,0.7,1.3,1c0.7,0.5,1.6,0.8,2.5,1c0.7,0.2,1.5,0.2,2.2,0.1c0.4,0,0.7-0.1,1.1-0.2
		c0.4-0.1,0.7-0.2,1.1-0.4c0.6-0.3,1.1-0.6,1.6-1.1c0.5-0.4,0.9-1,1.3-1.5c0.3-0.5,0.6-1.1,0.9-1.6c0.3-0.7,0.5-1.3,0.7-2
		c0.4-1.3,0.6-2.7,0.7-4.1C59.6,38.7,59.6,37.4,59.5,36.2z"/>
	<g>
		<path class="st2" d="M61,36.2c-0.8-7.5-1.9-15.9-1.3-23.4C60.1,7.2,59.3,1.9,53,0.5c-2.8-0.6-5.6-0.3-8,1.3
			c-5.4,3.7-3.9,9.5-4.1,15.1c-0.3,7.4-1.6,14.9-0.2,22.3c0.4,2.2,0.2,0.2,0.3,1c0.1,1.1-0.1,2.2,0.2,3.3c0.7,2.6,2.4,5.1,4.5,6.7
			c3.2,2.5,7.6,2.9,10.8,0.3C60.6,47.3,61.1,41,61,36.2c-0.1-1.9-3.1-1.9-3,0c0.1,3.7,0,9.3-3.2,12c-3.2,2.7-7.3,0.5-9.3-2.5
			c-1.2-1.8-1.1-3.6-1.4-5.5c-1.4-8.5-0.2-16.4,0-24.9c0.1-4.2-1.2-10.4,4.5-11.9c3.8-1,7.9,1.6,8.3,5.6c0.2,2-0.4,4.1-0.4,6.1
			c0,2.3,0.3,4.7,0.5,7c0.4,4.7,0.5,9.4,1,14C58.2,38.1,61.2,38.1,61,36.2z"/>
	</g>
</g>
<g>
	<path class="st1" d="M33.6,37.4c-0.2-1-0.6-1.9-1-2.8c-0.2-0.4-0.5-0.9-0.7-1.3c-0.3-0.7-0.7-1.4-1.2-2c-0.9-1.1-1.8-2.2-2.9-3
		c-0.6-0.5-1.3-1-2-1.4c-0.4-0.2-0.9-0.5-1.3-0.7c-0.3-0.2-0.6-0.3-0.9-0.5c-1.1-0.5-2.2-1-3.4-1.2c-0.5-0.1-1-0.1-1.5-0.2
		c0.1-1,0.2-2,0.2-3.1c0.1-1.2,0.1-2.5,0.1-3.7c0.1-0.4,0.1-0.8,0.1-1.2c0.1-1.3,0.1-2.5-0.1-3.8c-0.1-1.4-0.3-2.8-0.7-4.1
		c-0.2-0.7-0.4-1.3-0.7-2c-0.2-0.6-0.5-1.1-0.9-1.6c-0.4-0.5-0.8-1.1-1.3-1.5c-0.5-0.4-1-0.8-1.6-1.1c-0.3-0.2-0.7-0.3-1.1-0.4
		c-0.4-0.1-0.7-0.1-1.1-0.2c-0.7-0.1-1.5,0-2.2,0.1c-0.9,0.2-1.7,0.5-2.5,1C6.6,3.2,6.2,3.6,5.8,4C5.4,4.3,5.1,4.7,4.8,5
		C4.1,5.8,3.5,6.7,3.1,7.6c-0.4,0.8-0.7,1.7-0.9,2.6c-0.1,0.7-0.2,1.5,0,2.2c0,0,0,0,0,0.1C2.1,12.6,2,12.7,2,12.9
		C1.4,16.6,1.1,20.3,1.2,24c0.1,1.9,0.2,3.8,0.5,5.7c0,0.1,0,0.3,0.1,0.4c0,0.9,0,1.9,0.1,2.8c0,0.6,0,1.3,0.1,1.9
		C2,36,2.1,37.1,2.2,38.2C2.1,39,2,39.8,2,40.6c-0.1,0.9-0.1,1.9,0,2.8c0,0.5,0.1,1,0.2,1.5c0.1,0.3,0.1,0.7,0.3,1
		c0.2,0.5,0.4,0.9,0.7,1.3c0.3,0.4,0.6,0.8,1,1.2c0.4,0.4,0.8,0.8,1.3,1.1c0.3,0.2,0.6,0.5,1,0.6c0.3,0.1,0.6,0.3,0.9,0.4
		c0.2,0.1,0.3,0.1,0.5,0.2c0.1,0,0.3,0.1,0.4,0.1c0.2,0,0.5,0.1,0.7,0.1c0,0,0,0,0,0c0.2,0,0.5,0,0.7-0.1c0,0,0,0,0,0
		c0.3,0,0.6,0.1,0.9,0.1c0.1,0,0.2,0,0.2,0c1,0,2-0.2,2.9-0.6c0.4-0.2,0.8-0.3,1.2-0.6c0.7,0.3,1.3,0.5,2,0.7
		c0.8,0.2,1.6,0.3,2.4,0.4c0.4,0,0.8,0.1,1.2,0.1c0.4,0,0.7,0,1.1-0.1c0.8-0.1,1.6-0.2,2.3-0.4c0.8-0.2,1.6-0.5,2.3-0.8
		c0.6-0.3,1.2-0.6,1.7-1c0.7-0.5,1.3-1,1.8-1.7c0.5-0.6,0.9-1.2,1.3-2c0.1-0.1,0.1-0.2,0.2-0.4c0.2-0.1,0.3-0.2,0.5-0.4
		c0.4-0.4,0.8-0.8,1.1-1.2c0.2-0.3,0.4-0.7,0.6-1c0.2-0.5,0.4-0.9,0.5-1.4c0.1-0.5,0.2-1,0.1-1.5C33.8,38.5,33.7,37.9,33.6,37.4z
		 M23.7,39c0,0.1-0.1,0.3-0.1,0.4c0,0.2-0.1,0.3-0.2,0.4c0,0.1-0.1,0.2-0.1,0.2c0,0.1-0.1,0.1-0.1,0.2c0,0.1-0.1,0.1-0.1,0.1
		c-0.1,0.2-0.2,0.3-0.3,0.5c-0.1,0.2-0.3,0.4-0.5,0.5c-0.1,0-0.1,0.1-0.2,0.1c-0.1,0-0.1,0-0.2,0c-0.1,0-0.1,0-0.2,0
		c-0.1,0-0.1,0-0.2,0c-0.1,0.2-0.2,0.3-0.3,0.4c-0.3,0.2-0.7,0.3-1,0c-0.1-0.1-0.1-0.1-0.2-0.2c-0.1-0.1-0.1-0.2-0.2-0.3
		c0,0,0,0,0,0c-0.1,0-0.1,0-0.2-0.1c0,0-0.1,0-0.1,0c-0.1,0-0.1,0-0.2,0c-0.1,0-0.1-0.1-0.2-0.1c-0.1,0-0.2-0.1-0.3-0.2c0,0,0,0,0,0
		c0,0,0,0,0,0c-0.1,0-0.2-0.1-0.3-0.2c-0.1-0.1-0.1-0.1-0.2-0.2c-0.1-0.1-0.1-0.2-0.2-0.3c-0.1-0.1-0.1-0.3-0.2-0.5
		c0-0.1,0-0.1,0-0.2c0,0,0,0,0,0c0,0,0,0,0-0.1c0,0,0,0,0,0c0-0.1-0.1-0.2-0.1-0.3c0-0.2-0.1-0.3-0.1-0.5c0,0,0,0,0,0c0,0,0,0,0,0
		c0-0.3,0-0.5,0-0.8c0-0.2,0.1-0.5,0.1-0.7c0-0.1,0.1-0.3,0.2-0.4c0-0.1,0.1-0.2,0.1-0.3c0.1-0.1,0.2-0.2,0.3-0.3
		c0.1-0.1,0.2-0.2,0.3-0.3c0.2-0.1,0.4-0.2,0.5-0.2c0.1,0,0.2,0,0.2,0c0.1,0,0.3,0,0.4,0c0.1,0,0.2,0.1,0.4,0.1c0.1,0,0.3,0,0.4,0.1
		c0,0,0,0,0.1,0c0.1,0,0.1,0,0.2,0c0.1,0,0.3,0,0.4,0c0,0,0.1,0,0.1,0c0,0,0,0,0,0c0.1,0,0.2,0,0.3,0c0.1,0,0.2,0.1,0.2,0.1
		c0.1,0,0.1,0.1,0.1,0.1c0,0,0,0,0,0c0,0,0.1,0,0.1,0c0.1,0,0.2,0.1,0.2,0.1c0.1,0,0.2,0.1,0.3,0.2c0.1,0,0.1,0.1,0.1,0.2
		c0.1,0.1,0.1,0.2,0.2,0.3c0.1,0.1,0.1,0.3,0.2,0.4c0,0.1,0.1,0.3,0.1,0.4c0,0.1,0.1,0.3,0.1,0.5C23.7,38.7,23.7,38.9,23.7,39z"/>
	<g>
		<path class="st2" d="M35,37c-2.2-7.4-8.4-13.3-16.3-14.1c0.5,0.5,1,1,1.5,1.5C20.8,17.2,21.4-4.9,7.5,1C4.7,2.2,2.3,5.2,1.2,8.1
			C1,8.8,0.8,9.5,0.7,10.2c0,0.3-0.2,3.8,0,2c-0.4,4-1.1,7.8-0.9,11.8c0.1,3.9,0.7,7.8,0.8,11.7c0.2,5.9-1.3,12.4,5.1,15.7
			c3.1,1.6,5.5,0.3,8.8,0.1c2.8-0.2,5.3,1,8.2,0.6c2.1-0.3,4.2-1,5.9-2.3c3.8-2.7,7.1-7.8,6.5-12.4c-0.2-1.9-3.2-1.9-3,0
			c0.5,3.6-3.3,9.2-6.7,10.8c-1.9,0.9-4.1,1.3-6.2,1.1c-1.5-0.1-3.1-1.1-4.6-1.1c-2.1,0-4.2,1.7-6.5,1C2,47.5,3.8,39.7,3.5,34.9
			c-0.3-4.5-0.9-9.1-0.8-13.7c0.1-3.7,0.1-9.4,1.6-12.9C7.5,1.4,15,2.3,16.9,9c1.4,4.9,0.7,10.5,0.3,15.4c-0.1,0.9,0.7,1.4,1.5,1.5
			c6.5,0.7,11.6,5.9,13.4,11.9C32.7,39.7,35.6,38.9,35,37z"/>
		<path class="st2" d="M22.2,38.6c-0.1,0.4-0.1,0.5-0.3,0.8c-0.2,0.2-0.3,0.3-0.4,0.6c-0.2,0.3-0.2,0.3,0.3,0.2
			c-0.6-0.1-1.4,0.1-1.7,0.7c0.3-0.5,1.5,0.4,0.8-0.3c-0.2-0.2-0.5-0.4-0.8-0.5c-0.1,0-0.3,0-0.4-0.1c-0.5,0-0.5,0.1-0.1,0.1
			c0.5-0.3,0.3,0.3,0-0.2c-0.2-0.4-0.3-0.6-0.4-1.1c0-0.3,0-1.1,0.3-1.3c0.2-0.1,1,0.2,1.2,0.2c0.1,0,0.3,0,0.4-0.1
			c-0.2,0-0.2,0.1-0.1,0c0,0,0.9,0.1,0.9,0c-0.8-0.3-1-0.3-0.6,0c0.1,0.1,0.3,0.2,0.5,0.3c0.5,0.1,0.5,0.1,0.2,0
			c-0.3-0.1-0.3-0.1-0.1,0.1c0,0.3,0.1,0.6,0.1,1c-0.1,1.9,2.9,1.9,3,0c0.1-1.8-0.8-3.8-2.8-4c0.4,0.1,0.7,0.3,1.1,0.4
			c-0.3-0.2-0.5-0.4-0.9-0.5c-0.1,0-1.3-0.3-1.3-0.1c0.8,0,0.9,0,0.3-0.1c-0.2,0-0.4,0-0.6,0c-0.5,0.1-0.5,0.1-0.1,0
			c-0.2-0.1-0.5-0.2-0.8-0.2c-1.8-0.2-3.2,1.2-3.6,2.9c-0.2,1-0.2,2.2,0.2,3.2c0.2,0.4,0.4,0.8,0.7,1.2c0.1,0.2,1.3,0.9,0.5,0.4
			c0.4,0.3,0.7,0.6,1.1,0.7c0.2,0,0.4,0.1,0.6,0.1c0.6-0.1,0.5-0.1-0.1,0c-0.3-0.2-0.6-0.5-0.9-0.7c0.9,1.8,3.3,1.7,4.2,0
			c-0.6,0.2-1.1,0.5-1.7,0.7c2.1,0.5,3.6-1.7,4-3.6C25.5,37.5,22.7,36.7,22.2,38.6z"/>
	</g>
</g>
<g>
	<path class="st1" d="M146.8,33.3c0-0.4-0.1-0.8-0.2-1.3c0-0.4,0-0.8-0.1-1.1c-0.1-1.2-0.4-2.4-0.8-3.5c-0.3-0.6-0.5-1.2-0.9-1.8
		c-0.4-0.6-0.8-1.2-1.3-1.7c-0.8-1-1.9-1.9-3-2.7c-1.1-0.8-2.3-1.3-3.5-1.7c-0.5-0.2-1.1-0.3-1.7-0.3c-0.8-0.1-1.5-0.2-2.3-0.2
		c0,0-0.1,0-0.1,0c-1.3,0-2.7,0.2-4,0.4c-2.3,0.3-4.5,1.1-6.4,2.5c-0.3,0.2-0.7,0.5-1,0.8c-0.1,0.1-0.2,0.2-0.4,0.3
		c-0.4,0.4-0.8,0.8-1.2,1.2c-0.4,0.5-0.9,1.1-1.2,1.7c-0.6,1-1.1,2.1-1.6,3.2c-0.6,1.4-0.8,3-1,4.5c-0.1,1.4,0,2.9,0.3,4.3
		c0.3,1.4,0.8,2.7,1.5,3.9c0.3,0.5,0.6,1.1,1,1.6c0.5,0.6,0.9,1.2,1.5,1.8c0.5,0.5,1.1,1,1.7,1.4c0.5,0.4,1.1,0.8,1.7,1.1
		c0.6,0.4,1.3,0.7,2,0.9c0.6,0.3,1.3,0.4,2,0.6c1.3,0.3,2.6,0.3,3.8,0.3c-0.2,1.1-0.3,2.2-0.4,3.3c-0.1,0.8-0.1,1.7-0.1,2.5
		c0,0.1,0,0.1,0,0.2c-0.1,0.1-0.1,0.2-0.2,0.3c-0.2,0.2-0.3,0.4-0.5,0.5c-0.2,0.1-0.4,0.3-0.7,0.4c-0.2,0.1-0.3,0.1-0.5,0.1
		c-0.2,0-0.4,0-0.5,0c-0.1,0-0.2,0-0.3-0.1c-0.1-0.1-0.2-0.3-0.3-0.4c-0.3-0.3-0.7-0.5-1.2-0.7c-0.1,0-0.1,0-0.2-0.1
		c-0.3-0.1-0.7-0.1-1.1-0.1c0,0,0,0,0,0c-0.1-0.1-0.2-0.1-0.2-0.2c-0.4-0.3-0.9-0.5-1.4-0.7c-0.5-0.2-1.1-0.3-1.7-0.3
		c-0.4,0-0.8,0-1.2,0c-0.6,0.1-1.2,0.2-1.7,0.4c-1.1,0.4-2.1,1.1-2.9,1.9c-0.9,1-1.5,2.2-1.8,3.4c-0.1,0.4-0.1,0.8-0.2,1.2
		c0,0.2,0,0.5,0,0.7c0,0.4,0.1,0.7,0.1,1.1c0,0.3,0.1,0.5,0.2,0.8c0.4,1.1,1,2.2,1.9,3c0.3,0.3,0.7,0.6,1.1,0.9
		c0.1,0.3,0.3,0.6,0.5,0.9c0.2,0.2,0.4,0.5,0.6,0.7c0.2,0.2,0.4,0.4,0.7,0.6c0.6,0.5,1.3,0.9,2.1,1.2c0.4,0.2,0.8,0.3,1.3,0.4
		c0.5,0.1,1,0.2,1.5,0.2c0.7,0.1,1.4,0.1,2,0c0.7-0.1,1.3-0.2,1.9-0.4c0.2,0,0.4,0.1,0.6,0.1c0.5,0.1,0.9,0.1,1.4,0.1
		c0.5,0,1-0.1,1.5-0.2c0.9-0.2,1.8-0.6,2.7-1.1c0.9-0.5,1.7-1.1,2.4-1.7c0.2,0,0.3-0.1,0.5-0.2c0.4-0.1,0.8-0.2,1.2-0.4
		c0.9-0.4,1.7-1.1,2.5-1.9c0.7-0.8,1.3-1.8,1.8-2.9c0.1-0.2,0.1-0.3,0.2-0.5c0.8-1.5,1.3-3.4,1.4-5.2c0,0,0-0.1,0-0.1
		c0.1-0.2,0.1-0.4,0.2-0.6c0.5-1.5,0.8-3,0.9-4.5c0-0.3,0-0.6,0-0.9c0.2-0.7,0.3-1.5,0.4-2.2c0.4-3,0.6-6,0.4-9
		c0-0.3-0.1-0.6-0.1-0.8c0.1-0.4,0.2-0.8,0.3-1.2C146.9,36.5,147,34.9,146.8,33.3z M135.4,35.3c0,0.2-0.1,0.4-0.2,0.5
		c-0.1,0.2-0.2,0.4-0.2,0.6c-0.1,0.2-0.2,0.3-0.3,0.5c-0.1,0.1-0.1,0.2-0.2,0.2c-0.1,0.1-0.2,0.2-0.4,0.3c-0.1,0.1-0.2,0.1-0.3,0.1
		c-0.1,0-0.1,0-0.2,0c0,0,0,0-0.1,0.1c-0.1,0.1-0.1,0.1-0.2,0.1c-0.1,0.1-0.2,0.1-0.3,0.1c-0.1,0-0.3,0-0.4,0c0,0,0,0,0,0
		c-0.1,0-0.1,0-0.2,0c-0.2,0-0.4,0-0.6,0c-0.1,0-0.2,0-0.2,0c0,0-0.1,0-0.1,0c-0.2,0.1-0.4,0.1-0.6,0.1c-0.2,0.1-0.3,0.1-0.5,0.2
		c-0.2,0-0.4,0-0.5,0c-0.1,0-0.2,0-0.3,0c-0.3-0.1-0.5-0.1-0.8-0.3c-0.2-0.1-0.3-0.2-0.5-0.4c-0.1-0.1-0.2-0.3-0.4-0.4
		c-0.1-0.1-0.1-0.2-0.2-0.4c-0.1-0.2-0.2-0.4-0.3-0.6c-0.1-0.3-0.2-0.7-0.2-1c0-0.3,0-0.7,0-1.1c0,0,0,0,0,0c0,0,0,0,0,0
		c0-0.2,0-0.4,0.1-0.7c0-0.1,0.1-0.3,0.1-0.4c0,0,0,0,0,0c0,0,0-0.1,0-0.1c0,0,0,0,0,0c0-0.1,0-0.2,0.1-0.2c0.1-0.2,0.2-0.5,0.3-0.6
		c0.1-0.1,0.2-0.3,0.3-0.4c0.1-0.1,0.2-0.2,0.3-0.3c0.1-0.1,0.3-0.2,0.4-0.2c0,0,0,0,0,0c0,0,0,0,0,0c0.1-0.1,0.2-0.3,0.4-0.3
		c0.1,0,0.2-0.1,0.3-0.1c0.1,0,0.2,0,0.3,0c0,0,0.1,0,0.1,0c0.1,0,0.2-0.1,0.2-0.1c0,0,0,0,0,0c0.1-0.1,0.1-0.3,0.2-0.4
		c0.1-0.1,0.1-0.2,0.2-0.2c0.4-0.3,0.9-0.3,1.3,0c0.2,0.1,0.3,0.3,0.4,0.6c0.1,0,0.2-0.1,0.3-0.1c0.1,0,0.2,0,0.3,0
		c0.1,0,0.2,0,0.3,0.1c0.1,0,0.2,0.1,0.3,0.1c0.3,0.2,0.5,0.4,0.7,0.8c0.1,0.2,0.3,0.4,0.3,0.7c0.1,0.1,0.1,0.1,0.2,0.2
		c0.1,0.1,0.1,0.2,0.2,0.3c0.1,0.1,0.1,0.2,0.2,0.3c0.1,0.2,0.2,0.4,0.2,0.6c0,0.2,0.1,0.4,0.1,0.6c0,0.2,0,0.4,0,0.6
		C135.5,34.9,135.5,35.1,135.4,35.3z"/>
	<g>
		<path class="st2" d="M148.2,32.9c-1-6.6-3.2-12.2-10.1-14.6c-6.1-2.1-14-0.3-18.5,4.3c-10.7,10.9-2.4,28.4,12.1,28.5
			c-0.5-0.5-1-1-1.5-1.5c-0.2,1.3,0,3.2-0.5,4.5c-0.8,2.3,0.4,0.9-0.8,1c0.1,0-1.4-0.7-1.7-0.9c-0.5-0.1-1-0.1-1.5-0.2
			c0.8,0.1,0.7,0-0.2-0.3c-3.8-1.1-7.4-1.1-10.3,2.1c-5.5,6.1,0.3,15.4,7.2,17.2c3.1,0.8,8.2,0.4,11.1-0.7c4.2-1.5,8.6-4.3,10.6-8.4
			c1.8-3.5,2.3-7.9,2.8-11.7c0.4-3.1,0.8-6.3,0.8-9.5c0-3.2,0.6-6.3,0.4-9.5c-0.1-1.9-3.1-1.9-3,0c0.1,2.2-0.4,4.3-0.5,6.4
			c-0.1,2.2,0.2,4.5,0,6.7c-0.3,3.7-0.9,7.4-1.7,11.1c-0.4,2.1-0.8,4.8-2.2,6.5c-1.3,1.6-3.9,3.1-5.8,4.2c-3,1.8-10.3,3.2-13.6,1.1
			c-3.8-2.3-7.5-8.2-3.3-11.8c1.9-1.6,5.3-1.3,7.7-0.5c0.8,0.3,1.6,1,2.4,1.2c5.4,1,4.7-5.4,5.1-8.7c0.1-0.8-0.8-1.5-1.5-1.5
			c-12.3-0.1-19.2-15.5-9.2-24.1c3.8-3.3,10.4-4.5,15.2-2.5c5.6,2.3,6.8,6.8,7.6,12.3C145.6,35.6,148.5,34.8,148.2,32.9z"/>
		<path class="st2" d="M134,34.9c-0.1,0.4-0.2,0.9-0.5,1.2c0.2-0.2-0.2,0-0.4,0.1c-0.5,0.2-0.6,0.4,0,0.3c-0.3,0.1-0.9,0-1.2,0
			c-0.3,0-1.8,0.4-2.2,0.2c-0.8-0.4-0.9-1.7-0.8-2.5c0-0.3,0-0.5,0.1-0.7c0.2-0.5,0.4-0.5,0.6-1c0,0.1,0.6-0.5,0.1-0.3
			c-0.4,0.2,0.4,0,0.6,0c0.3-0.1,0.7-0.3,0.9-0.5c0.5-0.6,0.1,0-0.2-0.3c0.3,0.6,1.1,0.8,1.7,0.7c0,0,0.7,1.2,0.7,1.3
			c0.4,0.7,0.5,1.3,0.4,2.1c-0.2,1.9,2.8,1.9,3,0c0.3-2.6-1.7-7-4.9-6.2c0.6,0.2,1.1,0.5,1.7,0.7c-1.1-2-3.7-2.1-4.8,0
			c0.3-0.2,0.6-0.5,0.9-0.7c0.6,0.1,0.6,0.1,0,0c-0.2,0-0.5,0.1-0.7,0.1c-0.6,0.1-0.9,0.5-1.3,0.8c0.8-0.5-0.6,0.4-0.7,0.5
			c-0.4,0.4-0.6,0.9-0.8,1.3c-0.5,1.3-0.6,2.8-0.3,4.2c0.5,2.1,2.2,3.9,4.4,3.6c0.6-0.1,0.8-0.2,1.2-0.3c0.3,0,2.2-0.2,0.6-0.1
			c1,0,1.6-0.1,2.4-0.7c-0.4,0.1-0.7,0.3-1.1,0.4c1.9-0.2,2.7-1.7,3.2-3.4C137.4,33.8,134.5,33.1,134,34.9z"/>
	</g>
</g>
<g>
	<path class="st1" d="M103,34.3c0-0.4-0.1-0.8-0.2-1.3c0-0.4,0-0.8-0.1-1.1c-0.1-1.2-0.4-2.4-0.8-3.5c-0.3-0.6-0.5-1.2-0.9-1.8
		c-0.4-0.6-0.8-1.2-1.3-1.7c-0.8-1-1.9-1.9-3-2.7c-1.1-0.8-2.3-1.3-3.5-1.7c-0.5-0.2-1.1-0.3-1.7-0.3c-0.8-0.1-1.5-0.2-2.3-0.2
		c0,0-0.1,0-0.1,0c-1.3,0-2.7,0.2-4,0.4c-2.3,0.3-4.5,1.1-6.4,2.5c-0.3,0.2-0.7,0.5-1,0.8c-0.1,0.1-0.2,0.2-0.4,0.3
		c-0.4,0.4-0.8,0.8-1.2,1.2c-0.4,0.5-0.9,1.1-1.2,1.7c-0.6,1-1.1,2.1-1.6,3.2c-0.6,1.4-0.8,3-1,4.5c-0.1,1.4,0,2.9,0.3,4.3
		c0.3,1.4,0.8,2.7,1.5,3.9c0.3,0.5,0.6,1.1,1,1.6c0.5,0.6,0.9,1.2,1.5,1.8c0.5,0.5,1.1,1,1.7,1.4c0.5,0.4,1.1,0.8,1.7,1.1
		c0.6,0.4,1.3,0.7,2,0.9c0.6,0.3,1.3,0.4,2,0.6c4,0.9,8.2-0.1,11.7-2.1c0.9-0.5,1.7-1.1,2.5-1.8c0.6-0.5,1.1-1.1,1.5-1.8
		c0.4-0.4,0.7-0.8,1-1.2c0.4-0.6,0.8-1.2,1-1.8c0.4-0.8,0.6-1.6,0.8-2.4C103.1,37.6,103.2,35.9,103,34.3z M91.6,36.3
		c0,0.2-0.1,0.4-0.2,0.5c-0.1,0.2-0.2,0.4-0.2,0.6c-0.1,0.2-0.2,0.3-0.3,0.5c-0.1,0.1-0.1,0.2-0.2,0.2c-0.1,0.1-0.2,0.2-0.4,0.3
		c-0.1,0.1-0.2,0.1-0.3,0.1c-0.1,0-0.1,0-0.2,0c0,0,0,0-0.1,0.1c-0.1,0.1-0.1,0.1-0.2,0.1c-0.1,0.1-0.2,0.1-0.3,0.1
		c-0.1,0-0.3,0-0.4,0c0,0,0,0,0,0c-0.1,0-0.1,0-0.2,0c-0.2,0-0.4,0-0.6,0c-0.1,0-0.2,0-0.2,0c0,0-0.1,0-0.1,0
		c-0.2,0.1-0.4,0.1-0.6,0.1c-0.2,0.1-0.3,0.1-0.5,0.2c-0.2,0-0.4,0-0.5,0c-0.1,0-0.2,0-0.3,0c-0.3-0.1-0.5-0.1-0.8-0.3
		c-0.2-0.1-0.3-0.2-0.5-0.4c-0.1-0.1-0.2-0.3-0.4-0.4c-0.1-0.1-0.1-0.2-0.2-0.4c-0.1-0.2-0.2-0.4-0.3-0.6c-0.1-0.3-0.2-0.7-0.2-1
		c0-0.3,0-0.7,0-1.1c0,0,0,0,0,0c0,0,0,0,0,0c0-0.2,0-0.4,0.1-0.7c0-0.1,0.1-0.3,0.1-0.4c0,0,0,0,0,0c0,0,0-0.1,0-0.1c0,0,0,0,0,0
		c0-0.1,0-0.2,0.1-0.2c0.1-0.2,0.2-0.5,0.3-0.6c0.1-0.1,0.2-0.3,0.3-0.4c0.1-0.1,0.2-0.2,0.3-0.3c0.1-0.1,0.3-0.2,0.4-0.2
		c0,0,0,0,0,0c0,0,0,0,0,0c0.1-0.1,0.2-0.3,0.4-0.3c0.1,0,0.2-0.1,0.3-0.1c0.1,0,0.2,0,0.3,0c0,0,0.1,0,0.1,0c0.1,0,0.2-0.1,0.2-0.1
		c0,0,0,0,0,0c0.1-0.1,0.1-0.3,0.2-0.4c0.1-0.1,0.1-0.2,0.2-0.2c0.4-0.3,0.9-0.3,1.3,0c0.2,0.1,0.3,0.3,0.4,0.6
		c0.1,0,0.2-0.1,0.3-0.1c0.1,0,0.2,0,0.3,0c0.1,0,0.2,0,0.3,0.1c0.1,0,0.2,0.1,0.3,0.1c0.3,0.2,0.5,0.4,0.7,0.8
		c0.1,0.2,0.3,0.4,0.3,0.7c0.1,0.1,0.1,0.1,0.2,0.2c0.1,0.1,0.1,0.2,0.2,0.3c0.1,0.1,0.1,0.2,0.2,0.3c0.1,0.2,0.2,0.4,0.2,0.6
		c0,0.2,0.1,0.4,0.1,0.6c0,0.2,0,0.4,0,0.6C91.7,35.9,91.7,36.1,91.6,36.3z"/>
	<g>
		<path class="st2" d="M104.4,33.9c-0.7-4.9-1.6-8.6-5.5-11.9c-3.2-2.6-7-3.7-11.1-3.4c-9.8,0.6-17.4,8-16.8,18.2
			c0.5,8.4,7.6,15.3,16.1,15.3c9.9,0,17.9-7.9,17.3-17.8c-0.1-1.9-3.1-1.9-3,0c0.5,8.2-6,14.9-14.3,14.8c-7.4,0-13.3-6.4-13.1-13.8
			c0.3-8.4,7-13.9,15.2-13.8c8.2,0.1,11.2,6.1,12.3,13.2C101.8,36.7,104.7,35.8,104.4,33.9z"/>
		<path class="st2" d="M90.2,35.9c-0.1,0.4-0.2,0.9-0.5,1.2c0.2-0.2-0.2,0-0.4,0.1c-0.5,0.2-0.6,0.4,0,0.3c-0.3,0.1-0.9,0-1.2,0
			c-0.3,0-1.8,0.4-2.2,0.2c-0.8-0.4-0.9-1.7-0.8-2.5c0-0.3,0-0.5,0.1-0.7c0.2-0.5,0.4-0.5,0.6-1c0,0.1,0.6-0.5,0.1-0.3
			c-0.4,0.2,0.4,0,0.6,0c0.3-0.1,0.7-0.3,0.9-0.5c0.5-0.6,0.1,0-0.2-0.3c0.3,0.6,1.1,0.8,1.7,0.7c0,0,0.7,1.2,0.7,1.3
			c0.4,0.7,0.5,1.3,0.4,2.1c-0.2,1.9,2.8,1.9,3,0c0.3-2.6-1.7-7-4.9-6.2c0.6,0.2,1.1,0.5,1.7,0.7c-1.1-2-3.7-2-4.8,0
			c0.3-0.2,0.6-0.5,0.9-0.7c0.6,0.1,0.6,0.1,0,0c-0.2,0-0.5,0.1-0.7,0.1c-0.6,0.2-0.9,0.5-1.3,0.8c0.8-0.5-0.6,0.4-0.7,0.5
			C83,32,82.7,32.5,82.5,33c-0.5,1.3-0.6,2.8-0.3,4.2c0.5,2.1,2.2,3.9,4.4,3.6c0.6-0.1,0.8-0.2,1.2-0.3c0.3,0,2.2-0.2,0.6-0.1
			c1,0,1.6-0.1,2.4-0.7c-0.4,0.1-0.7,0.3-1.1,0.4c1.9-0.2,2.7-1.7,3.2-3.4C93.6,34.9,90.7,34.1,90.2,35.9z"/>
	</g>
</g>
</svg>
