<?xml version="1.0" encoding="utf-8"?>
<!-- Generator: Adobe Illustrator 22.1.0, SVG Export Plug-In . SVG Version: 6.00 Build 0)  -->
<svg version="1.1" id="Layer_1" xmlns="http://www.w3.org/2000/svg" xmlns:xlink="http://www.w3.org/1999/xlink" x="0px" y="0px"
	 viewBox="0 0 401 401" style="enable-background:new 0 0 401 401;" xml:space="preserve">
<style type="text/css">
	.st0{fill:#FCF4E9;stroke:#221F1F;stroke-miterlimit:10;}
	.st1{fill:#082D30;stroke:#082D30;stroke-linecap:round;stroke-miterlimit:10;}
</style>
<path id="XMLID_1135_" class="st0" d="M80.7,188c-24.4-17.2-9.4-42.1-9.4-42.1c2.3-4.9,27.6-18.2,34.9-10.5c0,0,0,0,0,0
	c7.3,7.7,1.8,13.8-1.4,17.3c-2.5,2.7-7.8,2.2-10.1,1.9c-0.7-0.1-1.1-0.2-1.1-0.2c-4.6-0.7-8.8,1-7.8,6.4c0,0,0.2,4.2,1.8,7.5l0,0
	c0,0,1.2,2.9,3.5,3.8c0.9,0.3,1.9,0.4,3.1-0.2c0.1,0,0.1-0.1,0.2-0.1c0.6-0.3,1.2-0.5,2-0.7c5.1-1.6,13.8-2,15.4,4.9
	c1.9,8.1,0.1,8.9-0.9,10.5c0,0,0,0,0,0c-1,1.6-4.3,2.8-4.3,2.8l0,0C98.8,193.6,89.3,194,80.7,188z"/>
<path id="XMLID_1129_" class="st0" d="M148.3,155.1c-23.4,7.5-11.1,35.6-11.1,35.6s15,17.7,34.2,3.6
	C190.5,180.2,171.7,147.6,148.3,155.1z M151.5,184.6c-12.8-1.7,5.2-25.6,11-10.4C168.4,189.4,151.5,184.6,151.5,184.6z"/>
<g id="XMLID_1123_">
	<path id="XMLID_1127_" class="st0" d="M91.2,217.9c0,0-4.1-2.9-5.8-0.6c-1.7,2.2-4.8,6-1.2,13.4c3.6,7.4,17,1.3,18.2-2.2"/>
	<path id="XMLID_1125_" class="st0" d="M106.2,224.2L106.2,224.2c-2.5-6.6-7.9-11.7-16.1-12.6c-16.5-1.7-23.3,9-25.8,15.5
		c0,0-0.6,1-1,2.9c-0.3,1.1-0.4,2.1-0.3,2.5c-0.2,3.6,0.4,8.8,3.7,15.8c2.7,5.7,9.6,7.7,14.2,8.5c1.3,0.3,2.7,0.4,4.2,0.4
		c0.1,0,0.1,0,0.1,0l0,0c1.6,0,3.3-0.2,5.1-0.6c7.2-1.7,12.2-6.3,15-11.9c-0.5-6.6-6.1-7.4-9.5-7.9c-1.8-0.3-3.7,0.8-5.2,2
		c-0.2,0.1-0.3,0.3-0.4,0.4c-4.9,3.6-17.6-3.5-10.9-8.8c0,0,2.3-2.4,5-3.5h0c0,0,2.2-1.1,4-0.5c0.7,0.2,1.3,0.8,1.8,1.7
		c0,0.1,0,0.1,0.1,0.2c0.2,0.4,0.5,0.9,0.8,1.4c2.2,3.6,7.1,8.3,11.7,5c5.3-3.8,4.7-5.3,4.9-6.7l0,0
		C107.5,226.6,106.2,224.2,106.2,224.2z"/>
</g>
<g id="XMLID_1051_">
	<path id="XMLID_1121_" class="st1" d="M202.4,229.2"/>
	<path id="XMLID_1057_" class="st0" d="M214.4,226.7c-19.2-14.1-34.2,3.6-34.2,3.6s-12.3,28.2,11.1,35.6
		C214.8,273.4,233.6,240.8,214.4,226.7z M205.6,246.8c-5.8,15.2-23.8-8.7-11-10.4C194.6,236.4,211.5,231.6,205.6,246.8z"/>
	<path id="XMLID_1055_" class="st0" d="M207,224.5"/>
	<path id="XMLID_1053_" class="st0" d="M207,223.6c0,0,15.2-14.5,15.6,12.8c0.3,27.3,5.5,52.2-23.8,52c0,0-15.9-6.6,0-13.6
		c7.8-3.4,9.3-10.5,9.2-19.5"/>
</g>
<g id="XMLID_1016_">
	<g id="XMLID_1020_">
		<path id="XMLID_1036_" class="st1" d="M144.6,240.8"/>
		<path id="XMLID_1024_" class="st0" d="M156.9,238c-19.5-14.3-34.8,3.7-34.8,3.7s-12.5,28.7,11.3,36.3
			C157.3,285.5,176.4,252.3,156.9,238z M148,252.4c6.8,15.2-23.4,10.9-15.4,0.4C132.6,252.9,141.3,237.3,148,252.4z"/>
		<path id="XMLID_1022_" class="st0" d="M149.2,236.1"/>
	</g>
	<path id="XMLID_1018_" class="st0" d="M148.3,271.7c0,0,1.7,11.6,12.1,5.5c10.4-6.1-0.6-16.3-0.6-16.3"/>
</g>
<g id="XMLID_1010_">
	<path id="XMLID_1014_" class="st0" d="M334.2,159.3c0,0-24.9-17.1-35.6,13.1c-10.7,30.2,15.4,34.9,14.8,16.6s5.7-19.9,12.9-17
		C333.5,174.7,343.7,171.7,334.2,159.3z"/>
	<path id="XMLID_1012_" class="st0" d="M313,161.1c0,0-1.7-11.3-11.8-5.3c-10.1,6,0.6,15.8,0.6,15.8"/>
</g>
<path id="XMLID_1004_" class="st0" d="M263.5,235.7c0,0-0.9-16-11.7-11.3c-10.8,4.7-4.7,50.1,22.8,43.6
	c27.6-6.5,16.4-42.2,16.4-42.2s-11.5-10.2-13.5,7.4c0,0-0.6,11.8-6,12.8C266.1,247,262.9,238.7,263.5,235.7z"/>
<path id="XMLID_1002_" class="st0" d="M196.5,185.1c0,0,2.3,13.7,13.3,8.9s5.6-56.9,0.5-60.9C205.2,129.1,191,104.3,196.5,185.1z"/>
<path id="XMLID_1138_" class="st0" d="M247.8,155.1c-23.4,7.5-11.1,35.6-11.1,35.6s15,17.7,34.2,3.6
	C290,180.2,271.2,147.6,247.8,155.1z M251.1,184.6c-12.8-1.7,5.2-25.6,11-10.4C267.9,189.4,251.1,184.6,251.1,184.6z"/>
<path id="XMLID_1144_" class="st0" d="M28.8,251.1c0,0,2.3,13.7,13.3,8.9c11-4.8,5.6-56.9,0.5-60.9C37.5,195,23.3,170.2,28.8,251.1z
	"/>
<g id="XMLID_1146_">
	<path id="XMLID_1150_" class="st0" d="M352.2,227.6c0,0-4.1-2.9-5.8-0.6c-1.7,2.2-4.8,6-1.2,13.4s17,1.3,18.2-2.2"/>
	<path id="XMLID_1148_" class="st0" d="M367.2,234L367.2,234c-2.5-6.6-7.9-11.7-16.1-12.6c-16.5-1.7-23.3,9-25.8,15.5
		c0,0-0.6,1-1,2.9c-0.3,1.1-0.4,2.1-0.3,2.5c-0.2,3.6,0.4,8.8,3.7,15.8c2.7,5.7,9.6,7.7,14.2,8.5c1.3,0.3,2.7,0.4,4.2,0.4
		c0.1,0,0.1,0,0.1,0l0,0c1.6,0,3.3-0.2,5.1-0.6c7.2-1.7,12.2-6.3,15-11.9c-0.5-6.6-6.1-7.4-9.5-7.9c-1.8-0.3-3.7,0.8-5.2,2
		c-0.2,0.1-0.3,0.3-0.4,0.4c-4.9,3.6-17.6-3.5-10.9-8.8c0,0,2.3-2.4,5-3.5h0c0,0,2.2-1.1,4-0.5c0.7,0.2,1.3,0.8,1.8,1.7
		c0,0.1,0,0.1,0.1,0.2c0.2,0.4,0.5,0.9,0.8,1.4c2.2,3.6,7.1,8.3,11.7,5c5.3-3.8,4.7-5.3,4.9-6.7l0,0
		C368.5,236.4,367.2,234,367.2,234z"/>
</g>
</svg>
