<?xml version="1.0" encoding="utf-8"?>
<!-- Generator: Adobe Illustrator 22.1.0, SVG Export Plug-In . SVG Version: 6.00 Build 0)  -->
<svg version="1.1" id="Layer_1" xmlns="http://www.w3.org/2000/svg" xmlns:xlink="http://www.w3.org/1999/xlink" x="0px" y="0px"
	 viewBox="0 0 1280 720" style="enable-background:new 0 0 1280 720;" xml:space="preserve">
<style type="text/css">
	.st0{fill:#F7C872;stroke:#5B5B4B;stroke-miterlimit:10;}
</style>
<path class="st0" d="M1329.1-229.1c-29-61.4-84.6-106.5-145.8-133.8c-75.3-33.6-159.6-39.2-241-36.7c-91,2.9-182.1,12.3-272.6,22.2
	c-36.4,4-72.8,8.3-109.2,13c-23.1-2.8-46.3-5.5-69.5-8c-90.5-9.9-181.6-19.3-272.6-22.2c-81.4-2.6-165.6,3.1-241,36.7
	c-61.1,27.3-116.7,72.4-145.8,133.8c-35.2,74.4-24.7,161,2.5,236.1c14.5,40,33.5,78.1,53.3,115.6c14.6,27.7,43.9,90.2,23.2,96.1
	c-0.7,0.2-0.9,1-0.4,1.5c6.8,7.3,13.5,14.6,20.3,21.9c-5,14.1,2.6,31.6,11,43.3c8.1,11.2,17.9,21.6,22.3,35
	c4.7,14.4,2.3,29.8,5.2,44.5c4.2,21.1,17.2,41.2,36.3,51.5c17.8,9.6,39.3,8.5,56.3-2.4c8.1-5.2,14.9-12.6,18.7-21.4
	c4.2-9.7,2.3-20.5,6-30.1c7.3-18.7,31,0.1,41.1,6.9c11.5,7.8,22.6,16.9,29.6,29.1c14.2,24.5,2.8,55.1,17.6,79.2
	c5.1,8.4,13.3,16.2,23.5,17.3c10.2,1.1,18.1-5.2,25.7-11.1c21.3-16.7,46.6-14.4,72-16.8c19.2-1.8,38.2-8.3,47.4-26.6
	c8.7-17.1,6.6-37.7,5.4-56.2c-1.4-20.5-4-44.5,8.1-62.5c2.5-3.7,3.3-4.6,6.2-0.7c1.8,2.4,3.4,4.9,4.8,7.6c3,5.6,5,11.7,6.5,17.9
	c2.9,11.5,4,23.4,5.7,35.2c3.1,21.4,8.6,42.7,25.8,57.2c15.4,13.1,35.7,18.3,55.4,20.2c22,2.1,44.7,0.7,66.6-2.4
	c36.1-5.2,86.5-21.8,81-67.4c-1.7-14.2-7.9-27.6-8.3-41.9c-0.1-5.6,0.5-11.3,2.4-16.6c2.3-6.4,9-17.3,17.1-13c14.5,7.7,7,28,7,40.3
	c0.1,11.2,6.1,18.5,15,24.6c10.4,7,30.9,18.3,21.9,33.9c-0.2,0.3-0.1,0.8,0.1,1c22.3,23.3,56.4-1.2,71.5-20.8
	c18.2-23.6,32.8-68.2,69.3-66.7c18.1,0.7,32.3,14.3,49.9,17.1c14.4,2.2,27.4-4.2,37.1-14.5c10.7-11.3,17.7-25.7,23.4-40
	c1.1-2.8,1.4-4.2,4.9-4c2.7,0.1,5.8,1.7,8.2,2.9c4,1.9,9.1,5,11.6,8.9c2.5,3.8-0.5,5-1.8,8.5c-1,2.9-1.2,6.1-0.8,9.1
	c2,15.5,15.4,23.6,29.2,27.5c9.2,2.6,18.6,4,27.6,7.2c10,3.6,19.4,8.8,28.6,14.2c14.9,8.7,30.6,19.1,48,21.5
	c12.8,1.8,26.8-0.7,37.9-7.5c9.9-6.1,17.2-16.1,16.6-28.1c-1-18.5-19-32.8-12-52.2c7.8-21.7,36.5-26.3,50.6-8
	c6.6,8.6,6,19.6,9.5,29.5c2,5.7,5.8,10.8,10.3,14.8c7.7,6.8,20,12.8,30.3,8.7c13.1-5.1,11.3-20.6,8.8-31.7c-2.2-9.6-3.7-18.9,1.1-28
	c3.2-6,8.2-10.8,13.2-15.2c9.9-8.6,21.5-15.9,29.1-26.8c8-11.5,8.2-25.5,1.1-37.5c-7.7-13-5.1-67.8,5.9-88.8
	c19.8-37.6,38.8-75.7,53.3-115.6C1353.8-68.1,1364.3-154.7,1329.1-229.1z"/>
</svg>
