<?xml version="1.0" encoding="utf-8"?>
<!-- Generator: Adobe Illustrator 22.1.0, SVG Export Plug-In . SVG Version: 6.00 Build 0)  -->
<svg version="1.1" id="Layer_1" xmlns="http://www.w3.org/2000/svg" xmlns:xlink="http://www.w3.org/1999/xlink" x="0px" y="0px"
	 viewBox="0 0 258.1 282.1" style="enable-background:new 0 0 258.1 282.1;" xml:space="preserve">
<style type="text/css">
	.st0{fill:#80D0DF;}
</style>
<path class="st0" d="M258,282.1c-3.5-1.1-5.2-3.1-4.7-7c0.3-2.3-0.3-4.6-0.4-6.9c-0.1-2.3-1.1-3.7-3.5-4c-3.1-0.4-5.3-1.7-5.6-5.2
	c-0.1-2-1.8-3.1-3-4.4c-6.7-6.7-8.7-14.6-5.7-23.7c0.4-1.1,0.9-2.5,0.6-3.3c-3.3-8-5.6-16.6-13.2-22c-3-2.2-5.7-6.3-10.1-1.9
	c-0.9,0.9-2.5,0.1-2.9-1.1c-1.2-3.6-3.3-6.7-4.2-10.5c-1.1-4.4-2.7-8.6-2.7-13.3c0-0.3-0.2-0.7-0.4-0.9
	c-7.9-3.9-10.4-12.5-15.4-18.8c-5.9-7.4-11.7-14.5-19.5-19.9c-1-0.7-1.3-1.9-1.3-3.1c-0.1-3.2-2.2-5.5-4.8-6.5
	c-3.5-1.3-5.8-4.5-9.2-5.7c-0.7-0.2-1.6-1.3-1.5-1.7c1-5-3.1-6.5-6-8.7c-2.3-1.8-4.6-3.3-4.7-6.6c0-0.5-0.3-1.2-0.6-1.3
	c-8.7-3.5-11.5-12.4-17-18.8c-3.2-3.7-8.1-6.4-8.7-12.1c-0.1-1-1-2-2-2c-3.4-0.2-5.1-4.1-6.8-4.5c-4.7-1.1-7.3-4.5-11-6.4
	c-6.8-3.6-13.6-6.8-18.4-13c-2.9-3.8-6-7.1-10.4-9c-0.8-0.3-1.5-0.7-2.1-1.3c-4.5-4.3-7.6-10.9-15.6-9.8c-5-7.4-14.8-7.5-20.9-13.6
	c-3-3-8.4-3.8-12.9-4.9C9.9,9,0.6,2.9,0,0.1c84.7,0,169.3,0,254-0.1c3.4,0,4.1,0.7,4.1,4.1C258,96.8,258,189.4,258,282.1z"/>
<g>
	<path class="st0" d="M124.5,173c-2.6-2.6-4.6-2.2-5.3-3.8c4.3-1.1,4.2-0.9,7.6,2.7c1.7,1.8,3.1-0.4,4.6-1c0-1.8-2.1-1.6-2.5-3.4
		c1.9-0.2,4.4,0,3.1-3.4c-0.6-1.4,0.3-2.8,2.1-1.1c1.3,1.3,2.5,0.9,3.2-0.5c1-1.9-0.5-2.9-1.9-3.3c-6.1-2.1-12.3-3.9-18.4-5.9
		c-1.5-0.5-4.6,0.1-4-2.5c0.5-2.3,3.3-1.8,5.2-1.2c4.3,1.3,8.5,2.6,12.9,3.7c3.3,0.8,7.2-0.5,10,2.8c0.7,0.8,2.5-0.5,3.3-1.6
		c0.9-1.3,0.8-2.8,0-4.3c-3-5.8-5.6-10.8-13.2-13.2c-5-1.6-9.3-1.8-13.9-1.4c-8.4,0.6-11.4-2.1-13.3-11.3c-0.4-2.1,1.2-4.5-1.2-6.5
		c-1.5-1.3,0.7-1.7,1.4-2.3c4.9-3.8,5-5.5,1-10.4c-1.6-1.9-2.7-4.1-4.2-6.1c-1.6-2.2-2.9-5.4-6.6-2.6c-0.8,0.6-2,0.3-2.3-1
		c-0.4-1.4-0.5-2.8,1.1-3.4c3.1-1,2.5-3.5,1.2-4.6c-2.7-2.1-4.3-5.3-7.8-6.8c-6.8-3.1-9-10.4-12.8-16.1c-0.9-1.3-1.6-2.9-2.9-3.7
		c-7.5-4.8-11.3-13.6-19.6-17.6c-2.7-1.3-4.8-2.4-7.8-0.9c-2.8,1.4-5.9,1.4-8.4-1c-2.3-2.3-3.4-5.1-1.6-8.1c0.9-1.6-0.1-2.4-0.8-3.5
		c-3.4-5.2-3.1-10.3,0.8-14.5c3-3.2,9.9-3.5,14.5-1.1c9.2,4.9,16.5,11.7,22.9,20c3.7,4.8,10.4,6.3,14.6,10.9c0.9,1,2.2,1.3,2.8,2.7
		c2.9,6.8,9.1,10.7,14.1,15.6c3.2,3.1,8,2.3,11.3,5.2c0.9,0.8,2.9,0.3,3.9-1.2c1.1-1.5,1.5-3.7,0.4-4.7c-5.8-5.3-6.6-12-6.6-19.3
		c0-4.2,0.4-8,1.8-12c3.4-10.3,8.8-16.9,20.7-15.9c1.4,0.1,3.6-0.8,4.4-2c3.1-4.5,6.8-7.3,12.4-8.7c4.6-1.1,8.5-0.9,9.9,4
		c2.8,9.4,5.3,19.2,4.9,28.9c-0.4,10.8,2.8,20,6.7,29.6c3.4,8.5,8.7,16.5,9.5,26.1c0.2,2.4,0.8,4.5-2.2,6.3c-3.7,2.2-2.1,6.1-0.9,9
		c4.4,10.2,6.2,21.3,9.6,31.8c1.2,3.6,2,6.9,7,4.7c2.5-1.1,4.6,0,5.7,2.8c1.6,4.1,5.8,7.6,2.5,12.8c-0.8,1.2,0.3,2.6,1.5,3.3
		c8.2,5.1,12.1,13.6,16.7,21.4c2.6,4.4,5.5,8.8,7.4,13.5c2.6,6.4,4.9,13,6.1,19.8c0.6,3.3-2.6,6.6-4.5,9.6c-2.5,3.9-3.8,8-1.7,12.1
		c3.9,7.6,2.2,16,4.2,23.9c0.6,2.6,0.7,5.3,1.2,7.9c1,5-2.3,8.3-5.1,11.2c-3.1,3.2-8.8,1.2-10.6-3c-1.5-3.3-2.8-6.7-4.4-10.1
		c-1.5-3.3-3.4-4.8-6.8-1.8c-3.5,3.1-7.4,4.7-12.4,3.7c-4-0.8-7-1.6-8.4-6.3c-0.6-2.2-1.6-6-5.9-5.2c-1.2,0.2-1-1.4-1.1-2.3
		c-0.4-7.6-2.7-14.9-4.5-22.2c-2.3-9.3-3-18.6-2.2-28.1c0.5-5.2-1.8-7.8-6.9-7.3c-4,0.4-7.9,1.2-11.8,1.9
		c-7.1,1.2-13.1-0.5-18.8-5.3c-5.5-4.7-11.8-8.4-17.8-12.4c-2-1.4-4.4-1.2-6.8-1.4c-9.5-0.6-19.1,0.1-28.6-1.9
		c-2.8-0.6-5.6,0.6-8.4,1c-3.4,0.5-5.3-1.2-5.8-4.1c-0.4-3,1.4-4.9,4.5-5.2c1.3-0.1,2.7-0.8,3.9-0.5c11.6,2.2,23.5,0.4,35.1,2.2
		C116,175.5,119.2,172.1,124.5,173z M130.9,186.3c5.4,2.4,8.1-3.6,12.6-4.8c2-0.5,5-2.6,3.8-4.9c-1-2-3.6-3.8-6.7-3.2
		c-3.3,0.6-6.6,0.8-9.8,1.7c-3.5,0.9-4.1,4.1-4.2,7.1C126.6,184.6,127.7,186.4,130.9,186.3z"/>
	<path class="st0" d="M10.5,73.3c2.5,1.2,6.7,1.6,6.2,6.4c-0.4,3.9-6.9,7.4-11.5,6.4c-1.9-0.4-6.2-6.3-5.8-7.9
		C0.4,74.3,4.8,72.2,10.5,73.3z"/>
	<path class="st0" d="M74.7,79.6c-0.8-0.4-1.5-1.7-1.9-0.2c-0.3,1.1,0.7,3.2-1.7,2.4c-1.7-0.6-2.7-2.3-3.6-4c-0.2-0.3-0.1-1,0.1-1.3
		c2.2-2.6,2.3-4-0.7-6.1c-2.5-1.7-3.7-4.2-5-6.7c-0.6-1.1-0.5-2.9,0.8-3.5c1.2-0.6,2.3,0.5,2.7,1.6c1.4,4.3,3.9,7.4,8.2,9.3
		c1.9,0.8,3.4,2.8,4,5C78.3,78.6,77.9,80.5,74.7,79.6z"/>
	<path class="st0" d="M91.8,0.5c0.3-0.3,0.5-0.7,0.7-0.7c4.9,0.4,2.8-1.9,1.6-4c-0.6-1.1-2.6-2.2-0.5-3.7c1.7-1.2,2.5,0.5,3.8,1.2
		c6.9,4,3.2,10.7,4.2,16.2c0.3,1.6-1.5,1.9-2.3,0.6c-1.9-3.2-3.6-6.5-7.1-8.4C91.9,1.7,91.9,1,91.8,0.5z"/>
	<path class="st0" d="M82.1-32.4c3.7,3.9,6.4,8.2,7.4,13.2c0.4,2-0.1,4.2-2.7,4.5c-2.5,0.3-3.8-1.5-4-3.6
		C82.3-22.9,82.3-27.6,82.1-32.4z"/>
	<path class="st0" d="M70,87.1c3-0.1-0.9-3.8,1.8-3.8c2.1,0,2.9,1.8,3,3.9c0.2,2.3,2.5,2.9,3.9,4.2c0.9,0.8,1.8,1.7,1.3,3
		c-0.5,1.2-1.7,1.6-2.8,1.7c-1.2,0.2-2.7-0.1-2.6-1.5c0.1-2.9-1.6-4.1-3.7-5.3C70.1,88.9,69.7,88.1,70,87.1z"/>
	<path class="st0" d="M51.7,49.8c5.2,6,5,8.6-0.9,14.5c-1.1,1.1-1.8,0.5-2.2-0.3c-0.8-1.4-1.2-3-1.9-4.5l-0.1,0.1
		c4.7-1.7,6.4-4.7,5.2-9.6L51.7,49.8z"/>
	<path class="st0" d="M122.3,144.4c4.4,2.1,0.2-3.7,3.5-2.1c2.1,1,5.4,1,5.2,4.5c-0.1,1.7-0.8,3.9-3.4,3.1
		C125.2,149.2,124.3,146.9,122.3,144.4z"/>
	<path class="st0" d="M106.1,43.9c-2.4-4.3-1.5-8.3,0.1-12.3c0.2-0.6,0.7-1.7,1.7-1.3c1.1,0.5,2.1,2.3,1.5,2.8
		C105.6,35.9,107.6,40.3,106.1,43.9z"/>
	<path class="st0" d="M27.6,66c1.4,0.4,3.7,0.5,3.4,2.6c-0.3,2.4-2.7,2.1-4.4,1.8c-1.6-0.2-3.7-0.7-3.2-2.9
		C23.8,65.5,25.8,65.8,27.6,66z"/>
	<path class="st0" d="M87.9,94.3c-1.9-0.9-3.1-2.4-2.8-4.7c0.2-1.3,1.1-2.4,2.4-1.5c1.6,1.1,3.4,2.3,3.1,4.7
		C90.4,94.3,89.3,94.5,87.9,94.3z"/>
	<path class="st0" d="M111.6,9.6c1.7,2.6,1.9,4.5,0.6,6.5c-0.1,0.2-1.1,0.1-1.2-0.1C109.7,14,110.2,12.2,111.6,9.6z"/>
	<path class="st0" d="M43.6,71.9c0.2-1.3,0.7-2.1,1.9-2c1.3,0.1,2.2,0.8,2.1,2.1c0,1.1-1,1.8-2,1.8C44.4,73.8,43.5,73.2,43.6,71.9z"
		/>
	<path class="st0" d="M46.6,59.5c-1.1-0.5-0.1-2.2-1.4-2.5l0.1,0.1c0.2,0.9,3.5,0.4,1.2,2.5C46.5,59.6,46.6,59.5,46.6,59.5z"/>
	<path class="st0" d="M45.2,56.9l0-0.1C45.3,56.8,45.3,57,45.2,56.9C45.3,57,45.2,56.9,45.2,56.9z"/>
	<path class="st0" d="M51.7,49.9l-0.2,0c0,0,0.1-0.1,0.1-0.1C51.7,49.8,51.7,49.9,51.7,49.9z"/>
	<path class="st0" d="M130.9,186.3c-3.2,0.1-4.3-1.7-4.3-4.1c0.1-3,0.6-6.2,4.2-7.1c3.2-0.8,6.5-1,9.8-1.7c3.1-0.6,5.8,1.2,6.7,3.2
		c1.2,2.4-1.8,4.4-3.8,4.9C139,182.7,136.3,188.7,130.9,186.3z"/>
</g>
</svg>
