<?xml version="1.0" encoding="utf-8"?>
<!-- Generator: Adobe Illustrator 22.1.0, SVG Export Plug-In . SVG Version: 6.00 Build 0)  -->
<svg version="1.1" id="Layer_1" xmlns="http://www.w3.org/2000/svg" xmlns:xlink="http://www.w3.org/1999/xlink" x="0px" y="0px"
	 viewBox="0 0 321.7 181.2" style="enable-background:new 0 0 321.7 181.2;" xml:space="preserve">
<style type="text/css">
	.st0{fill:#D4AF6B;}
	.st1{fill:none;stroke:#584C4F;stroke-linecap:round;stroke-miterlimit:10;}
	.st2{fill:#FFD767;}
</style>
<g id="Layer_5">
</g>
<g id="Layer_3">
</g>
<path class="st0" d="M294.1,164.6c-1.4-0.7-13.3-6.7-13.3-6.7H41.6c0,0-11.9,6-13.3,6.7c-1.6,0.9-22.4,13.5-26.7,16.1h319.2
	C316.5,178.1,295.8,165.4,294.1,164.6z"/>
<path class="st0" d="M290,160.9c14.8,10.2,30.3,19.6,30.3,19.6H0.3c0,0,130.3-73.5,140.7-78.9c8.4-4.3,18.1-11.3,19.6-11.3
	c0.6,0,4.6,2.3,8.8,4.8C174.9,98.4,275.2,150.7,290,160.9z"/>
<path class="st1" d="M0.5,0.5c0,0,89.9,50.2,96.3,53.3c6.4,3.1,41.7,23.8,44.1,25.9"/>
<path class="st1" d="M321.2,0.5c0,0-90.1,50.2-96.5,53.3c-6.5,3.1-41.8,23.8-44.2,25.9"/>
<g>
	<path class="st1" d="M161,180.2c0,0,0.2-26,0.7-47.8l-0.5-41.8"/>
	<path class="st1" d="M161,90.8c0,0,10.5,24.8,20,45.2l20,44.5"/>
	<path class="st1" d="M241.2,180.8c0,0-31.2-34.2-40.5-45S161,90.5,161,90.5"/>
	<path class="st1" d="M161,90.2c0,0,36.5,27.2,59.8,45.2s60.2,45,60.2,45"/>
	<path class="st1" d="M320.5,180.5c0,0-70.5-40.5-79.2-45.2S161,90,161,90"/>
	<path class="st1" d="M161,90.8c0,0-10.5,24.8-20,45.2l-20,44.5"/>
	<path class="st1" d="M80.8,180.8c0,0,31.2-34.2,40.5-45S161,90.5,161,90.5"/>
	<path class="st1" d="M161,90.2c0,0-36.5,27.2-59.8,45.2s-60.2,45-60.2,45"/>
	<path class="st1" d="M1.5,180.5c0,0,70.5-40.5,79.2-45.2S161,90,161,90"/>
</g>
<path class="st0" d="M141.5,101.4c12.4,0.1,28,0.2,39.5,0.2"/>
<path class="st1" d="M39.8,158c0,0,39.8,0,55-0.5s60.8,1,71.2,0.8s49.8-1.5,85-0.8s29.5,0.5,29.5,0.5"/>
<path class="st1" d="M79.8,135.5c0,0,27.2,0,31.5-0.2s69.8,0.2,73,0.2s56.8,0,56.8,0"/>
<path class="st1" d="M120,113c0,0,17,0,23.2-0.2s58.5,0.2,58.5,0.2"/>
<g>
	<g>
		
			<rect id="XMLID_16625_" x="42.8" y="23.7" transform="matrix(-1 -2.532120e-11 2.532120e-11 -1 321.3358 180.4593)" class="st2" width="235.8" height="133.1"/>
	</g>
	<g>
		<path class="st1" d="M280.2,157.6c0-0.3,0-0.6,0-0.9c-0.7-7.7-0.9-127.8-0.2-131c0.1-0.8,0.2-1.5,0.1-2.1"/>
		<path class="st1" d="M41.6,157.6c0.4,0.1,0.9,0.1,1.5,0.1c7-0.6,100.6-1.3,138.9,0s97.8,0,97.8,0s0.2,0,0.5,0"/>
		<path class="st1" d="M41.7,23.4c0,0.3,0.1,0.6,0.1,1c1.3,6.9-0.9,91.2-0.2,109c0.4,11-0.8,19.5-0.1,24.2"/>
		<path class="st1" d="M280,23.6c-4.9,0-179.6-0.9-238.3,0"/>
	</g>
</g>
</svg>
