<?xml version="1.0" encoding="utf-8"?>
<!-- Generator: Adobe Illustrator 22.1.0, SVG Export Plug-In . SVG Version: 6.00 Build 0)  -->
<svg version="1.1" id="Layer_1" xmlns="http://www.w3.org/2000/svg" xmlns:xlink="http://www.w3.org/1999/xlink" x="0px" y="0px"
	 viewBox="0 0 757.6 560" style="enable-background:new 0 0 757.6 560;" xml:space="preserve">
<style type="text/css">
	.st0{fill:#FFD767;stroke:#584C4F;stroke-width:2;stroke-miterlimit:10;}
	.st1{fill:#584C4F;stroke:#584C4F;stroke-width:2;stroke-miterlimit:10;}
</style>
<path class="st0" d="M754.1,558.7h0.2c0,0,4.4-391.3,1-403.7c-4-12.7-6.6-16-20.6-18c-4.5-0.7-7.4-3.8-8.5-7.8
	c-1.8-6.6-2.9-13.4-4.3-20.1c-1.6-7.2-3.7-14.5-4.4-21.8c-0.6-6.4,0.5-13,1-19.5c0.3-3.9,1.3-7.8,1.1-11.7c-0.1-1.6-2.1-4-3.7-4.4
	c-1.7-0.4-4.7,0.5-5.7,1.9c-1.5,2-2.4,4.3-1.5,7.7c3.6,14.4,2.4,28.3-7.8,40.1c-1.3,1.5-3.2,3.1-4.9,3.3
	c-11.1,1.2-15.6,8.7-18.4,18.2c-1.4,4.9-4.5,8.8-9.8,10.3c-4.3,1.2-7.7-0.3-9.6-4.4c-5.4-11.7-15.1-12.6-23.2-2.6
	c-2,2.5-5.8,4-9.1,4.7c-3.5,0.7-5.8-1.2-6.7-5.4c-1.7-8.7-4.8-17.2-6.1-25.8c-4.8-31.6-0.5-52-0.6-66.3c0-2,0.3-4.1,0.3-6.1
	c0.1-3.2-2-5-4.7-4.4c-2,0.4-4.4,2.4-5,4.3c-0.9,2.5-0.1,5.6-0.1,8.4c-0.1,13.8,5.3,40.6-0.4,64.9c-0.8,3.8-2.1,7.7-3.4,11.5
	c-1.7,4.9-4.5,9.6-5,13.9c-0.7,5.7-5.6,8.9-11,8.2c-7.1-1-12.9-5.7-12.9-13.9c-0.1-14.1-1.2-28.3-1.8-42.4c-0.2-3.9-1.6-6.4-5.7-6.7
	c-3.5-0.2-7.1,2.6-7.6,6.2c-1,7.6-1.9,15.3-2.8,22.9c-1,8.5-6.3,14-14.7,15.1c-7.8,0.9-12.4-1.6-15.3-9.8c-4.7-13.3-3.1-27-2.7-40.6
	c0.1-1.6,0.5-3.1,0.5-4.7c0.1-3-0.4-6-4.3-6c-3.8,0-5.5,2.9-5.8,6.1c-0.1,2.2,1.6,4.6,1.4,6.8c-0.6,7.1-1,14.4-2.8,21.2
	c-1.8,6.7-15.9,8.2-21.3,2.6c-4-4.1-7-8.9-7-14.8c0-8.6,0.4-17.2,0.7-25.8c0.1-2.1,0.7-4.4,0-6.1c-0.3-0.8-1-1.6-1.8-2.3
	c-1.4-1.3-3.5-1.2-4.9,0.1c-0.8,0.7-1.3,1.4-1.4,2.2c-0.4,4.1,0,8.2,0.4,12.3c1.1,10.7,0.8,21.4-3.2,31.5c-1.4,3.5-3.5,6.7-5.6,9.9
	c-6.2,1.6-12,5.3-15.9,10.5c-4.1,5.4-5.7,12.3-9.7,17.6c-4.9,6.4-11.2,3.4-18.7,2.7c-2.2-1.8-3.8-4.4-4.6-7.4
	c-2.5-9.1-4-18.4-5.9-27.6c-2.1-10-5.1-19.9-6-30c-1.3-13.2,1.5-27.1,2.8-40.2c0.3-2.7,0.5-5.7-2.2-7.6c-1.3-0.8-2.9-1.1-4.4-1
	c-3.7,0.3-7.4,2.8-8.2,6.5s0.3,7.5,1.1,11.2c3.8,17.9,0.3,36.4-11.8,50.4c-1.7,2-4.3,4.3-6.7,4.5c-13.6,1.5-19.9,9.8-23.9,20.9
	c-2.7-1.1-5.7-1.8-8.8-1.8c-5.9,0-11.2,2.3-15.1,6.1c-0.9-11.1-5.7-19.6-11.5-19.6c-4.9,0-9.1,6.1-10.8,14.8
	c-1.6,0.2-3.2,0.8-4.8,1.5c-4.4,2-6.5,6.5-10.4,8.8c-4.2,2.4-11,2.2-15.6,1.1c-1.5-0.4-3.1-0.9-4.2-2.1c-1-1.1-1.4-2.6-1.8-4.1
	c-8.4-32.3-8.8-66.4-7.6-99.5c0.1-2-0.6-4-1.9-5.5c-4.9-5.5-11.3,3.5-11.7,8c-0.5,5.5,2,10.7,2.6,16.1c0.6,5.9,0.6,12,0.4,18
	c-0.2,8.5-1.1,17-2.6,25.4c-0.6,3-1.2,6-1.9,9c-2.9,12.2-8.7,45.7-25.7,43.4c-9.8-1.3-17.7-7.8-17.8-19.1
	c-0.1-19.4-1.6-38.9-2.4-58.3c-0.2-5.2-2.1-8.7-7.8-9.1c-4.9-0.3-9.9,3.6-10.5,8.5c-1.4,10.4-2.5,20.9-3.8,31.4
	c-1.5,11.7-8.7,19.3-20.3,20.8c-10.6,1.4-17-2.2-21-13.4c-6.5-18.3-4.3-37.1-3.7-55.8c0-2.2,0.5-4.3,0.6-6.5
	c0.1-4.1-0.5-8.2-5.9-8.2c-7.6,0-8,6.7-7.1,12.3c0.7,3.9,0.9,10.2,0.5,14.1c-0.5,5-1.2,9.9-2,14.9c-2.2,13.5-20.5,19.6-30.6,9.2
	c-5.4-5.6-9.6-12.2-9.6-20.3c0.1-11.8,0.7-23.7,1-35.5c0.1-2.8,1-5.9,0-8.3c-0.3-0.8-0.9-1.5-1.5-2.2c-2.5-2.6-6.9-2.4-9,0.6
	c-0.3,0.5-0.5,1-0.6,1.6c-0.6,5.5-0.1,11.2,0.5,16.8c1.5,14.8,1.1,29.5-4.4,43.3c-3.2,7.9-8.9,14.8-13,22.4c-3.2,6-6,12.2-8.3,18.5
	c-1.5,4.1-2.9,7.8-7.6,8.5c-5.2,0.7-6.7-3-7.4-7.1c-0.6-3.4-1.3-6.8-1.1-10.1c0.4-6.9,1.5-13.7,1.9-20.6c0.3-5.9-3-10.3-7.2-10.3
	c-4.6,0-8.1,4.4-8.3,10.4c-0.5,15.9-0.8,31.7-1.5,47.5c-0.4,8.1-1.7,16.1-9,21.4v0.9H1v410.3v2.4 M81.4,117.3
	c-1.1,8.4-8.6,13.6-16.9,13.7c-6.9,0.1-10.5-2.4-10.3-8.6c0.3-13.2,3-25.9,12.6-35.8c2.1-2.2,6.3-4.6,8.5-3.8
	c2.8,0.9,6.1,4.8,6.3,7.7C82.3,99.4,82.6,108.5,81.4,117.3z M97.9,118.3c-3.5,0.4-4.9-1.8-6.3-5.1c-2.4-5.9,0.6-11.1,1-16.6
	c0-0.9,1.7-2.2,2.6-2.2c0.9,0,2.4,1.2,2.7,2.2c1.4,4.6,2,9.2,3.2,13.8l0.1,1.4C101.3,114.7,101.5,117.8,97.9,118.3z"/>
<g>
	<path class="st1" d="M125.6,289.6c0.5,0.4,1.1,0.9,1.6,1.4c0,0-8.7-16.7-34.7-16.2c-26-0.5-34.7,16.2-34.7,16.2
		c0.5-0.5,1.1-1,1.6-1.4c6.1-6.8,18.6-11.5,33.1-11.5S119.5,282.8,125.6,289.6z"/>
	<path class="st1" d="M75,197.7c0.4,0.6,0.8,1.1,1.2,1.7c0,0-6.3-20-25-19.4c-18.7-0.5-25,19.4-25,19.4c0.4-0.6,0.8-1.2,1.2-1.7
		c4.5-8.1,13.5-13.7,23.9-13.7C61.8,184,70.8,189.6,75,197.7z"/>
	<path class="st1" d="M226.1,438.9c0.6,0.9,1.2,1.8,1.8,2.7c0,0-10-31.6-39.7-30.7c-29.7-0.9-39.7,30.7-39.7,30.7
		c0.6-1,1.2-1.9,1.8-2.7c7.1-13,21.4-21.8,37.9-21.8S219.1,425.9,226.1,438.9z"/>
	<path class="st1" d="M118.3,523.9c0.4,0.6,0.8,1.2,1.2,1.8c0,0-6.8-21.5-27-20.9c-20.2-0.7-27,20.9-27,20.9
		c0.4-0.6,0.8-1.2,1.2-1.8c4.8-8.8,14.5-14.8,25.8-14.8S113.5,515.1,118.3,523.9z"/>
	<path class="st1" d="M196.4,224.2c0.4,0.6,0.8,1.2,1.2,1.8c0,0-6.6-21.1-26.4-20.5c-19.7-0.6-26.4,20.5-26.4,20.5
		c0.4-0.6,0.8-1.2,1.2-1.8c4.7-8.6,14.2-14.5,25.2-14.5S191.7,215.6,196.4,224.2z"/>
	<path class="st1" d="M635.6,289.6c0.5,0.4,1.1,0.9,1.6,1.4c0,0-8.7-16.7-34.7-16.2c-26-0.5-34.7,16.2-34.7,16.2
		c0.5-0.5,1.1-1,1.6-1.4c6.1-6.8,18.6-11.5,33.1-11.5S629.5,282.8,635.6,289.6z"/>
	<path class="st1" d="M585.1,197.7c0.4,0.6,0.8,1.1,1.2,1.7c0,0-6.3-20-25-19.4c-18.7-0.5-25,19.4-25,19.4c0.4-0.6,0.8-1.2,1.2-1.7
		c4.5-8.1,13.5-13.7,23.9-13.7S580.8,189.6,585.1,197.7z"/>
	<path class="st1" d="M736.1,438.9c0.6,0.9,1.2,1.8,1.8,2.7c0,0-10-31.6-39.7-30.7c-29.7-0.9-39.7,30.7-39.7,30.7
		c0.6-1,1.2-1.9,1.8-2.7c7.1-13,21.4-21.8,37.9-21.8C714.8,417.1,729.1,425.9,736.1,438.9z"/>
	<path class="st1" d="M628.3,523.9c0.4,0.6,0.8,1.2,1.2,1.8c0,0-6.8-21.5-27-20.9c-20.2-0.7-27,20.9-27,20.9
		c0.4-0.6,0.8-1.2,1.2-1.8c4.8-8.8,14.5-14.8,25.8-14.8C613.8,509.1,623.5,515.1,628.3,523.9z"/>
	<path class="st1" d="M706.4,224.2c0.4,0.6,0.8,1.2,1.2,1.8c0,0-6.6-21.1-26.4-20.5c-19.7-0.6-26.4,20.5-26.4,20.5
		c0.4-0.6,0.8-1.2,1.2-1.8c4.7-8.6,14.2-14.5,25.2-14.5S701.7,215.6,706.4,224.2z"/>
</g>
</svg>
