<?xml version="1.0" encoding="utf-8"?>
<!-- Generator: Adobe Illustrator 23.0.3, SVG Export Plug-In . SVG Version: 6.00 Build 0)  -->
<svg version="1.1" id="Layer_1" xmlns="http://www.w3.org/2000/svg" xmlns:xlink="http://www.w3.org/1999/xlink" x="0px" y="0px"
	 viewBox="0 0 240.8 109" style="enable-background:new 0 0 240.8 109;" xml:space="preserve">
<style type="text/css">
	.st0{fill:#2C2C2C;}
	.st1{fill:#FFFFFF;}
</style>
<g>
	<path class="st0" d="M119.3,37.1c-0.7,0.6-1.3,1.3-1.9,2c-0.9,1-1.5,2.2-2.1,3.4c-0.1,0.1-0.1,0.3-0.2,0.4
		c-0.2,0.2-0.3,0.4-0.5,0.6c-0.8,1.3-1.3,2.6-1.6,4.1c-0.2,0.7-0.3,1.3-0.4,2c-0.1,0.8-0.1,1.6-0.1,2.4c0.1,1.4,0.4,2.8,0.8,4.1
		c0.3,0.9,0.6,1.8,1.1,2.6c0.3,0.6,0.7,1.3,1.1,1.8c0,0.1,0,0.1,0.1,0.2c0,0.1,0.1,0.1,0.1,0.2c0,0,0,0,0,0c0,0,0,0,0,0
		c0.3,0.4,0.5,0.8,0.8,1.2c0,0,0.1,0.1,0.1,0.1c0.3,0.3,0.6,0.7,0.9,1c0,0,0,0.1,0.1,0.1c0.1,0.2,0.3,0.5,0.5,0.7c0,0,0,0,0,0
		c0.2,0.2,0.4,0.5,0.7,0.7c0.4,0.3,0.8,0.6,1.3,0.8c0.2,0.1,0.4,0.2,0.6,0.3c0,0,0,0,0,0c1,0.6,2.2,1.1,3.4,1.2c0.3,0,0.6,0,0.9,0
		c0.3,0,0.5,0,0.8-0.1c0.3-0.1,0.6-0.2,0.9-0.3c0.3-0.1,0.6-0.3,0.9-0.5c0.2-0.1,0.4-0.3,0.6-0.5c0.2-0.3,0.5-0.5,0.7-0.8
		c0.2-0.3,0.4-0.7,0.6-1.1c0.1-0.1,0.1-0.2,0.2-0.3c0.2-0.3,0.4-0.6,0.5-0.9c0-0.1,0.1-0.2,0.1-0.3c0.1-0.1,0.1-0.2,0.2-0.2
		c0.3-0.4,0.5-0.9,0.6-1.4c0-0.2,0.1-0.4,0.1-0.6c0.2-0.6,0.2-1.4-0.1-1.9c-0.1-0.2-0.2-0.3-0.3-0.5c-0.1-0.2-0.3-0.3-0.5-0.5
		c-0.1-0.1-0.2-0.1-0.2-0.2c-0.1-0.2-0.3-0.3-0.4-0.5c-0.3-0.3-0.6-0.6-1-0.9c-0.4-0.3-0.8-0.5-1.2-0.7c-0.7-0.4-1.5-0.6-2.3-0.7
		c-0.2,0-0.3,0-0.5,0c-0.2-0.1-0.4-0.2-0.5-0.2c-0.3-0.2-0.5-0.3-0.8-0.5c-0.1-0.1-0.2-0.3-0.4-0.4c-0.1-0.1-0.1-0.3-0.2-0.4
		c0-0.2-0.1-0.4-0.1-0.5c0-0.3,0-0.5,0.1-0.8c0.1-0.5,0.3-0.9,0.5-1.4c0.5-0.8,1.1-1.6,1.7-2.3c0.9-0.9,1.8-1.6,2.9-2.3
		c0.7-0.4,1.3-0.7,2.1-0.9c0.2-0.1,0.4-0.1,0.7-0.1c0.5-0.1,1-0.1,1.6-0.1c0.6,0,1.1,0,1.7-0.1c0.7,0,1.4-0.2,2-0.4
		c0.6-0.2,1.2-0.5,1.7-0.8c0.3-0.2,0.5-0.5,0.8-0.8c0.3-0.3,0.5-0.7,0.6-1.1c0.2-0.3,0.2-0.7,0.3-1.1c0-0.2,0.1-0.4,0.1-0.6
		c0-0.3,0-0.6-0.1-0.9c-0.1-0.4-0.2-0.7-0.3-1c-0.1-0.5-0.4-0.9-0.6-1.3c-0.3-0.6-0.7-1.1-1-1.6c0,0,0,0,0,0c0,0,0,0,0,0
		c-0.1-0.2-0.2-0.3-0.3-0.5c-0.1-0.2-0.3-0.3-0.5-0.5c-0.1-0.1-0.2-0.2-0.3-0.2c-0.1,0-0.1-0.1-0.2-0.1c-0.3-0.2-0.6-0.5-0.9-0.7
		c-0.4-0.2-0.8-0.4-1.3-0.6c-0.5-0.2-1-0.3-1.4-0.3c-0.9-0.1-1.9,0-2.8,0.1c-1,0.2-2,0.5-2.9,0.8c-0.9,0.4-1.8,0.8-2.7,1.3
		C122.4,34.7,120.8,35.8,119.3,37.1z"/>
	<path class="st0" d="M138,49c-0.1-0.4-0.3-0.7-0.5-1c-0.2-0.2-0.4-0.4-0.6-0.6c-0.1-0.1-0.3-0.2-0.5-0.4c-0.2-0.2-0.5-0.3-0.8-0.4
		c-0.3-0.1-0.7-0.3-1-0.4c-0.5-0.2-1.1-0.2-1.7-0.3c-0.2,0-0.5,0-0.7,0c-0.4,0-0.8,0-1.2,0.1c-0.4,0-0.8,0.1-1.1,0.2
		c-0.4,0-0.9,0-1.3,0.1c-0.1,0-0.1,0-0.2,0c-0.2,0-0.4,0-0.6,0c-0.5,0-0.9,0-1.4,0c-0.1,0-0.3,0-0.4,0c0,0,0,0,0,0
		c-0.3,0-0.6,0-0.8,0c-0.2,0-0.5,0.1-0.7,0.1c-0.2,0-0.3,0.1-0.4,0.1c0,0-0.1,0-0.1,0.1c-0.1,0-0.3,0-0.4,0c-0.3,0-0.5,0.1-0.7,0.1
		c-0.3,0.1-0.5,0.2-0.8,0.3c-0.2,0.1-0.3,0.2-0.4,0.3c-0.2,0.2-0.4,0.3-0.6,0.5c-0.2,0.2-0.4,0.4-0.5,0.6c-0.1,0.2-0.3,0.4-0.3,0.6
		c-0.1,0.2-0.1,0.4-0.1,0.7c0,0.2,0,0.4,0.1,0.6c0.1,0.2,0.2,0.4,0.3,0.6c0,0.1,0,0.2,0,0.3c0,0.2,0.2,0.4,0.3,0.6
		c0.1,0.1,0.2,0.2,0.3,0.4c0.1,0.3,0.4,0.5,0.7,0.7c0.1,0.1,0.2,0.2,0.4,0.2c0.3,0.2,0.6,0.4,0.9,0.5c0.3,0.1,0.7,0.3,1.1,0.3
		c0.2,0,0.4,0.1,0.6,0.1c0.3,0.1,0.7,0.2,1,0.3c0.6,0.1,1.2,0.1,1.8,0.1c0,0,0.1,0,0.1,0c0.1,0,0.2,0.1,0.2,0.1c0.9,0.3,2.1,0.4,3,0
		c0.2-0.1,0.3-0.2,0.5-0.2c0.2-0.1,0.4-0.3,0.5-0.4c0,0,0,0,0,0c0.2,0,0.3-0.1,0.5-0.1c0.1,0,0.2,0,0.3,0c0.2,0,0.5,0,0.7,0
		c0.2,0,0.4-0.1,0.6-0.1c0.3-0.1,0.6-0.2,0.8-0.3c0,0,0,0,0,0c0,0,0,0,0,0c0.3-0.1,0.6-0.1,0.9-0.3c0.2-0.1,0.4-0.2,0.6-0.3
		c0.2-0.1,0.4-0.3,0.6-0.4c0.2-0.2,0.4-0.4,0.6-0.7c0.1-0.1,0.1-0.2,0.1-0.3c0,0,0,0,0,0c0,0,0-0.1,0-0.1c0,0,0,0,0,0
		c0.1-0.1,0.2-0.3,0.2-0.4c0.1-0.2,0.1-0.5,0.1-0.7c0,0,0,0,0,0c0,0,0,0,0,0C138.2,49.8,138.1,49.4,138,49z"/>
	<path class="st0" d="M112.9,49c0,0.9,0,1.8,0.1,2.7c0.1,1.3,0.5,2.6,0.9,3.9c0,0.1,0.1,0.3,0.2,0.4c0,0.3,0.1,0.5,0.1,0.8
		c0.3,1.4,1,2.8,1.7,4c0.4,0.6,0.8,1.1,1.2,1.7c0.5,0.6,1.1,1.2,1.6,1.7c1,1,2.2,1.7,3.5,2.4c0.8,0.4,1.7,0.8,2.6,1.1
		c0.7,0.2,1.4,0.4,2.1,0.5c0,0,0.1,0.1,0.1,0.1c0.1,0,0.1,0,0.2,0.1c0,0,0,0,0,0c0,0,0,0,0,0c0.5,0.1,1,0.2,1.5,0.3c0,0,0.1,0,0.1,0
		c0.4,0,0.9,0.1,1.3,0.1c0,0,0.1,0,0.1,0c0.3,0.1,0.5,0.1,0.8,0.2c0,0,0,0,0,0c0.3,0,0.6,0,0.9,0c0.5,0,1-0.2,1.5-0.3
		c0.2-0.1,0.4-0.2,0.6-0.3c0,0,0,0,0,0c1.2-0.3,2.3-0.8,3.3-1.5c0.2-0.2,0.5-0.4,0.7-0.6c0.2-0.2,0.3-0.4,0.5-0.6
		c0.2-0.3,0.3-0.6,0.4-0.9c0.1-0.3,0.2-0.6,0.3-1c0-0.3,0.1-0.5,0.1-0.8c0-0.4,0-0.7-0.1-1.1c-0.1-0.4-0.2-0.8-0.3-1.2
		c0-0.1,0-0.2,0-0.3c-0.1-0.3-0.2-0.7-0.3-1c0-0.1-0.1-0.2-0.1-0.3c0-0.1,0-0.2,0-0.3c-0.1-0.5-0.3-0.9-0.6-1.4
		c-0.1-0.2-0.2-0.3-0.4-0.5c-0.3-0.6-0.8-1.1-1.5-1.3c-0.2-0.1-0.4-0.1-0.6-0.1c-0.2,0-0.5,0-0.7,0c-0.1,0-0.2,0-0.3,0
		c-0.2,0-0.4,0-0.6,0c-0.4,0-0.9,0-1.3,0.1c-0.5,0.1-0.9,0.2-1.4,0.3c-0.8,0.2-1.5,0.7-2.2,1.2c-0.1,0.1-0.2,0.2-0.4,0.3
		c-0.2,0.1-0.4,0.2-0.6,0.2c-0.3,0.1-0.6,0.1-0.9,0.2c-0.2,0-0.4,0-0.6-0.1c-0.2,0-0.3-0.1-0.4-0.2c-0.2-0.1-0.3-0.2-0.4-0.3
		c-0.2-0.2-0.3-0.4-0.5-0.6c-0.2-0.4-0.4-0.9-0.6-1.3c-0.3-0.9-0.4-1.9-0.4-2.8c0-1.2,0.1-2.4,0.4-3.6c0.2-0.7,0.5-1.4,0.8-2.1
		c0.1-0.2,0.2-0.4,0.4-0.6c0.3-0.4,0.7-0.8,1-1.2c0.4-0.4,0.8-0.8,1.1-1.2c0.5-0.5,0.8-1.1,1.2-1.7c0.3-0.6,0.5-1.1,0.6-1.8
		c0.1-0.4,0-0.7,0-1.1c0-0.4-0.2-0.8-0.3-1.2c-0.1-0.4-0.3-0.7-0.5-1c-0.1-0.2-0.2-0.3-0.4-0.5c-0.2-0.2-0.4-0.4-0.7-0.6
		c-0.3-0.2-0.6-0.4-0.9-0.5c-0.4-0.2-0.9-0.4-1.4-0.5c-0.6-0.2-1.2-0.3-1.9-0.4c0,0,0,0,0,0c0,0,0,0,0,0c-0.2-0.1-0.4-0.1-0.6-0.1
		c-0.2,0-0.5,0-0.7,0c-0.1,0-0.3,0-0.4,0.1c-0.1,0-0.2,0-0.2,0.1c-0.4,0-0.7,0.1-1.1,0.2c-0.4,0.1-0.9,0.3-1.3,0.5
		c-0.4,0.2-0.9,0.5-1.2,0.8c-0.7,0.6-1.3,1.3-1.9,2c-0.6,0.8-1,1.7-1.4,2.6c-0.4,0.9-0.7,1.8-1,2.8C113.3,45.1,113,47.1,112.9,49z"
		/>
</g>
<g>
	<path class="st0" d="M73.1,48.1c0.2-0.5,0.2-1,0.3-1.5c0-0.4,0-0.8-0.1-1.2c-0.1-0.5-0.2-1-0.4-1.5c-0.1-0.2-0.2-0.4-0.3-0.5
		c0-0.1,0-0.3,0-0.4c0-0.8-0.1-1.6-0.2-2.3c-0.2-0.8-0.5-1.6-0.8-2.3c-0.3-0.6-0.7-1.1-1.1-1.7c-0.5-0.7-1.1-1.3-1.7-1.8
		c-0.6-0.5-1.2-1-1.9-1.4c-0.3-0.2-0.6-0.4-0.9-0.5c-0.4-0.2-0.7-0.3-1.1-0.5c-0.7-0.3-1.5-0.6-2.3-0.8c-0.8-0.2-1.7-0.3-2.5-0.4
		c-1.5-0.1-3,0.1-4.5,0.6c-0.7,0.2-1.5,0.6-2.1,1c-0.7,0.4-1.3,0.9-1.9,1.5c-1.1,1-2,2.2-2.7,3.5c-0.3,0.6-0.6,1.1-0.8,1.7
		c-0.3,0.8-0.6,1.6-0.7,2.4c-0.2,0.8-0.2,1.5-0.3,2.3c0,0.5,0,1,0,1.4c0,0.1,0,0.2,0,0.3c-0.1,1,0.1,1.9,0.3,2.9
		c0.2,0.9,0.6,1.8,1,2.6c0.5,0.9,1.1,1.7,1.7,2.4c0.5,0.6,1.2,1.1,1.9,1.5c0.5,0.3,1.1,0.5,1.7,0.7c1.1,0.4,2.4,0.4,3.6,0.5
		c0.3,0,0.7,0,1,0c0.5,0,1,0,1.5,0c0.8,0,1.6-0.2,2.4-0.3c1.4-0.3,2.7-0.8,4-1.4c0.7-0.3,1.3-0.7,1.9-1.2c0.4-0.2,0.8-0.5,1.2-0.8
		c0.8-0.6,1.6-1.3,2.2-2c0.3-0.4,0.6-0.9,0.9-1.3C72.7,49.1,72.9,48.6,73.1,48.1z"/>
	<path class="st0" d="M40.7,46.2c0,0.4,0.1,0.8,0.1,1.2c0,1.2,0,2.5,0.1,3.7c0.1,3.1,0.5,6.1,0.8,9.2c0.1,0.6,0.1,1.2,0.2,1.9
		c0,1.7,0.1,3.4,0.3,5.2c0,0.2,0,0.3,0,0.5c-0.1,1.9-0.4,3.7-0.3,5.6c0,0.9,0.2,1.8,0.5,2.7c0.3,0.9,0.8,1.7,1.4,2.3
		c0.3,0.3,0.7,0.6,1.1,0.8c0.4,0.3,0.9,0.5,1.4,0.7c0.9,0.4,1.9,0.6,2.9,0.6c0.1,0,0.2,0,0.2,0c0.3,0,0.6,0,0.9-0.1c0,0,0,0,0,0
		c0.2,0.1,0.5,0.1,0.7,0.1c0,0,0,0,0,0c0.2,0,0.5,0,0.7-0.1c0.1,0,0.3-0.1,0.4-0.1c0.2,0,0.3-0.1,0.5-0.2c0.3-0.1,0.6-0.2,0.9-0.4
		c0.4-0.2,0.7-0.4,1-0.6c0.5-0.3,0.9-0.7,1.3-1.1c0.4-0.4,0.7-0.8,1-1.2c0.3-0.4,0.5-0.9,0.7-1.3c0.1-0.3,0.2-0.6,0.3-1
		c0.1-0.5,0.1-1,0.2-1.5c0.1-0.9,0.1-1.9,0-2.8c-0.1-0.8-0.2-1.6-0.3-2.3c0.1-1.1,0.2-2.2,0.3-3.4c0-0.6,0.1-1.3,0.1-1.9
		c0.1-0.9,0.1-1.9,0.1-2.8c0-0.1,0-0.3,0.1-0.4c0.3-1.9,0.5-3.8,0.5-5.7c0.1-3.7-0.1-7.4-0.7-11.1c0-0.2-0.1-0.3-0.2-0.4
		c0,0,0,0,0-0.1c0.2-0.7,0.1-1.5,0-2.2c-0.1-0.9-0.5-1.8-0.9-2.6c-0.5-0.9-1.1-1.7-1.7-2.5c-0.3-0.4-0.7-0.7-1-1.1
		c-0.4-0.4-0.9-0.7-1.3-1c-0.7-0.5-1.6-0.8-2.5-1c-0.7-0.2-1.5-0.2-2.2-0.1c-0.4,0-0.7,0.1-1.1,0.2c-0.4,0.1-0.7,0.2-1.1,0.4
		c-0.6,0.3-1.1,0.6-1.6,1.1c-0.5,0.4-0.9,1-1.3,1.5c-0.3,0.5-0.6,1.1-0.9,1.6c-0.3,0.7-0.5,1.3-0.7,2c-0.4,1.3-0.6,2.7-0.7,4.1
		C40.7,43.7,40.6,44.9,40.7,46.2z"/>
	<path class="st1" d="M60.8,46.6c-0.1,0-0.2,0.1-0.4,0.1c-0.1,0.1-0.3,0.1-0.4,0.1c0,0,0,0,0,0c0,0-0.1,0.1-0.2,0.1
		c-0.1,0.1-0.3,0.1-0.4,0.2c0,0-0.1,0-0.1,0c0,0,0,0,0,0c-0.1,0.1-0.2,0.1-0.2,0.1c-0.1,0-0.2,0-0.3,0c-0.1,0-0.1,0-0.2,0
		c0,0,0,0-0.1,0c0,0-0.1,0-0.1,0.1c-0.1,0-0.2,0-0.3,0c-0.1,0-0.2,0-0.3-0.1c-0.1,0-0.1-0.1-0.2-0.1c-0.1-0.1-0.2-0.1-0.3-0.2
		c-0.1-0.1-0.2-0.2-0.3-0.3c-0.1-0.1-0.2-0.2-0.3-0.3c-0.1-0.1-0.2-0.2-0.3-0.4c-0.1-0.1-0.1-0.3-0.2-0.4c-0.1-0.1-0.1-0.3-0.1-0.4
		c0-0.2,0-0.3,0-0.5c0-0.1,0-0.2,0-0.3c0-0.1,0-0.2,0-0.2c0-0.1,0-0.1,0-0.2c0-0.2,0-0.4,0-0.5c0-0.3,0.1-0.5,0.2-0.7
		c0-0.1,0.1-0.1,0.1-0.2c0,0,0.1-0.1,0.1-0.1c0,0,0.1-0.1,0.2-0.1c0.1,0,0.1,0,0.2-0.1c0-0.2,0-0.3,0.1-0.5c0.1-0.3,0.5-0.5,0.8-0.5
		c0.1,0,0.1,0,0.2,0.1c0.1,0,0.2,0.1,0.3,0.2c0,0,0,0,0,0c0.1,0,0.1,0,0.2,0c0,0,0.1,0,0.1-0.1c0.1,0,0.1-0.1,0.2-0.1
		c0.1,0,0.2,0,0.2,0c0.1,0,0.2,0,0.4,0.1c0,0,0,0,0,0c0,0,0,0,0,0c0.1,0,0.2,0,0.4,0c0.1,0,0.2,0,0.3,0.1c0.1,0,0.2,0.1,0.3,0.2
		c0.1,0.1,0.3,0.2,0.4,0.3c0,0,0.1,0.1,0.1,0.1c0,0,0,0,0,0c0,0,0,0,0,0c0,0,0,0,0,0c0.1,0.1,0.1,0.1,0.2,0.2
		c0.1,0.1,0.2,0.3,0.3,0.4c0,0,0,0,0,0c0,0,0,0,0,0c0.1,0.2,0.2,0.5,0.3,0.7c0.1,0.2,0.2,0.5,0.2,0.7c0,0.2,0,0.3,0,0.5
		c0,0.1,0,0.2,0,0.3c0,0.1,0,0.3-0.1,0.4c0,0.1-0.1,0.3-0.2,0.4c-0.1,0.2-0.2,0.3-0.4,0.4c-0.1,0.1-0.1,0.1-0.2,0.1
		C61,46.5,60.9,46.5,60.8,46.6L60.8,46.6L60.8,46.6z"/>
</g>
<g>
	<path class="st0" d="M93.7,47.4c-0.2,0.4-0.4,0.9-0.5,1.4c-0.1,0.3-0.1,0.5-0.1,0.8c0,0.2,0,0.4,0.1,0.5c0.1,0.2,0.1,0.3,0.2,0.4
		c0.1,0.2,0.2,0.3,0.4,0.4c0.2,0.2,0.5,0.4,0.8,0.5c0.2,0.1,0.4,0.2,0.5,0.2c0.2,0,0.3,0,0.5,0c0.1,0,0.2,0,0.3,0.1
		c0-1.2-0.1-2.5-0.3-3.7c0-0.2,0-0.3,0-0.5c0.1-1,0.2-1.9,0.3-2.9c-0.1,0.1-0.2,0.2-0.3,0.3C94.8,45.8,94.2,46.6,93.7,47.4z"/>
	<path class="st0" d="M89.3,62.4c-0.2-0.2-0.5-0.4-0.7-0.7c0,0,0,0,0,0c-0.2-0.2-0.3-0.5-0.5-0.7c0,0,0-0.1-0.1-0.1
		c-0.3-0.3-0.6-0.6-0.9-1c0,0-0.1-0.1-0.1-0.1c-0.3-0.4-0.6-0.8-0.8-1.2c0,0,0,0,0,0c0,0,0,0,0,0c0-0.1-0.1-0.1-0.1-0.2
		c0,0,0-0.1-0.1-0.2c-0.4-0.6-0.8-1.2-1.1-1.8c-0.4-0.8-0.8-1.7-1.1-2.6c-0.4-1.4-0.7-2.7-0.8-4.1c0-0.8,0-1.6,0.1-2.4
		c0.1-0.7,0.2-1.4,0.4-2c0.3-1.4,0.9-2.8,1.6-4.1c0.1-0.2,0.3-0.4,0.5-0.6c0.1-0.1,0.1-0.3,0.2-0.4c0.6-1.2,1.3-2.3,2.1-3.4
		c0.5-0.6,1.1-1.2,1.6-1.7c-0.3,0-0.6-0.1-1-0.1c-0.1,0-0.2,0-0.2,0c-0.3,0-0.6,0-0.9,0.1c0,0,0,0,0,0c-0.2-0.1-0.5-0.1-0.7-0.1
		c0,0,0,0,0,0c-0.2,0-0.5,0-0.7,0.1c-0.1,0-0.3,0.1-0.4,0.1c-0.2,0-0.3,0.1-0.5,0.2c-0.3,0.1-0.6,0.2-0.9,0.4
		c-0.4,0.2-0.7,0.4-1,0.6c-0.5,0.3-0.9,0.7-1.3,1.1c-0.4,0.4-0.7,0.8-1,1.2c-0.3,0.4-0.5,0.9-0.7,1.3c-0.1,0.3-0.2,0.6-0.3,1
		c-0.1,0.5-0.1,1-0.2,1.5c-0.1,0.9-0.1,1.9,0,2.8c0.1,0.8,0.2,1.6,0.3,2.3c-0.1,1.1-0.2,2.2-0.3,3.4c0,0.5,0,0.9-0.1,1.4
		c0,0.1,0,0.2,0,0.2c0,0.2,0.1,0.3,0.2,0.4c0,0,0,0,0,0.1c-0.2,0.7-0.1,1.5,0,2.2c0.1,0.9,0.5,1.8,0.9,2.6c0.5,0.9,1.1,1.7,1.7,2.5
		c0.3,0.4,0.7,0.7,1,1.1c0.4,0.4,0.9,0.7,1.3,1c0.7,0.5,1.6,0.8,2.5,1c0.7,0.2,1.5,0.2,2.2,0.1c0.4,0,0.7-0.1,1.1-0.2
		c0.1,0,0.2-0.1,0.2-0.1c-0.1-0.1-0.3-0.1-0.4-0.2C90.1,62.9,89.6,62.7,89.3,62.4z"/>
	<path class="st0" d="M109.8,38.4c0-0.4-0.1-0.9-0.2-1.3c-0.1-0.6-0.3-1.2-0.5-1.7c-0.3-0.7-0.5-1.4-0.9-2c0,0,0,0,0,0c0,0,0,0,0,0
		c-0.1-0.2-0.2-0.4-0.3-0.6c-0.1-0.2-0.3-0.4-0.4-0.6c-0.1-0.1-0.2-0.2-0.3-0.3c-0.1-0.1-0.1-0.1-0.2-0.2c-0.2-0.3-0.5-0.6-0.8-0.9
		c-0.4-0.3-0.8-0.6-1.2-0.8c-0.4-0.2-0.9-0.4-1.4-0.5c-0.9-0.2-1.8-0.2-2.8-0.1c-1,0.1-2,0.4-3,0.8c-0.9,0.4-1.9,0.8-2.8,1.3
		c-1.8,1-3.5,2.3-5.1,3.7c-0.1,0.1-0.2,0.2-0.3,0.3c0.7,0.2,1.3,0.4,1.9,0.8c0.5,0.3,0.9,0.6,1.3,1c0.4,0.3,0.7,0.7,1,1.1
		c0.6,0.9,1,1.9,1.2,3c0.2,1.1,0.2,2.2,0.2,3.3c-0.1,1.1-0.2,2.3-0.3,3.4c0.8-0.8,1.7-1.6,2.7-2.2c0.7-0.4,1.4-0.7,2.1-1
		c0.2,0,0.5-0.1,0.7-0.1c0.5,0,1,0,1.6,0c0.6,0,1.1,0.1,1.7,0.1c0.7,0,1.4-0.1,2.1-0.3c0.6-0.2,1.2-0.5,1.7-0.9
		c0.3-0.2,0.6-0.6,0.8-0.9c0.3-0.4,0.5-0.8,0.7-1.3c0.2-0.4,0.3-0.8,0.4-1.3c0.1-0.2,0.1-0.5,0.1-0.7
		C109.8,39.2,109.8,38.8,109.8,38.4z"/>
	<path class="st0" d="M95.9,42.1c0-0.9-0.2-1.8-0.5-2.7c-0.3-0.9-0.8-1.7-1.4-2.3c-0.3-0.3-0.7-0.6-1.1-0.8
		c-0.4-0.3-0.9-0.5-1.4-0.7c-0.6-0.2-1.3-0.4-1.9-0.5c-0.6,0.5-1.1,1.1-1.6,1.7c-0.9,1-1.5,2.2-2.1,3.4c-0.1,0.1-0.1,0.3-0.2,0.4
		c-0.2,0.2-0.3,0.4-0.5,0.6c-0.8,1.3-1.3,2.6-1.6,4.1c-0.2,0.7-0.3,1.3-0.4,2c-0.1,0.8-0.1,1.6-0.1,2.4c0.1,1.4,0.4,2.8,0.8,4.1
		c0.3,0.9,0.6,1.8,1.1,2.6c0.3,0.6,0.7,1.3,1.1,1.8c0,0.1,0,0.1,0.1,0.2c0,0.1,0.1,0.1,0.1,0.2c0,0,0,0,0,0c0,0,0,0,0,0
		c0.3,0.4,0.5,0.8,0.8,1.2c0,0,0.1,0.1,0.1,0.1c0.3,0.3,0.6,0.7,0.9,1c0,0,0,0.1,0.1,0.1c0.1,0.2,0.3,0.5,0.5,0.7c0,0,0,0,0,0
		c0.2,0.2,0.4,0.5,0.7,0.7c0.4,0.3,0.8,0.6,1.3,0.8c0.1,0.1,0.3,0.1,0.4,0.2c0.3-0.1,0.6-0.2,0.8-0.3c0.6-0.3,1.1-0.6,1.6-1.1
		c0.5-0.4,0.9-1,1.3-1.5c0.3-0.5,0.6-1.1,0.9-1.6c0.3-0.6,0.5-1.2,0.7-1.9c-0.1-0.6-0.1-1.2-0.2-1.7c-0.1-0.6-0.1-1.2-0.2-1.9
		c0-0.5,0-1,0-1.5c-0.1,0-0.2,0-0.3-0.1c-0.2,0-0.3,0-0.5,0c-0.2-0.1-0.4-0.2-0.5-0.2c-0.3-0.2-0.5-0.3-0.8-0.5
		c-0.1-0.1-0.2-0.3-0.4-0.4c-0.1-0.1-0.1-0.3-0.2-0.4c0-0.2-0.1-0.4-0.1-0.5c0-0.3,0-0.5,0.1-0.8c0.1-0.5,0.3-0.9,0.5-1.4
		c0.5-0.8,1.1-1.6,1.7-2.3c0.1-0.1,0.2-0.2,0.3-0.3C95.9,43.9,95.9,43,95.9,42.1z"/>
</g>
<path class="st0" d="M172.7,50.3c-0.3-0.9-0.6-1.7-1.1-2.4c0-0.1-0.1-0.2-0.1-0.2c-0.4-0.7-0.8-1.4-1.4-2c-0.1-0.1-0.2-0.3-0.3-0.4
	c-0.4-0.4-0.9-0.8-1.5-1c0,0-0.1,0-0.1-0.1c-0.4-0.3-0.9-0.4-1.2-0.5c-0.4-0.1-0.8-0.2-1.2-0.3c-0.8-0.2-1.6-0.2-2.6-0.2l0,0
	c-0.9-0.1-1.7-0.2-2.4-0.2c-0.2,0-0.3,0-0.5,0c-0.7,0-1.4,0-2,0.1c0,0,0,0-0.1,0c0,0-0.1,0.1-0.1,0.1c0,0-0.1,0.1-0.1,0.1
	c0,0-0.1,0-0.1,0.1c0,0-0.1,0-0.2,0c0,0-0.1,0-0.1,0c-0.1,0-0.1,0-0.2,0c0,0-0.1,0-0.1,0c0,0-0.1,0-0.1,0c0,0,0,0-0.1,0
	c-0.1,0-0.1,0-0.2,0c-0.1,0-0.2-0.1-0.2-0.1c0,0,0,0,0,0c0,0,0,0,0-0.1c0,0,0,0,0-0.1c0,0,0,0,0-0.1c-0.1,0-0.1,0-0.2,0
	c-0.1-0.1-0.2-0.2-0.1-0.3c0,0,0,0,0-0.1c0,0,0-0.1,0.1-0.1c0,0,0,0,0,0c0,0,0,0,0-0.1c0,0,0,0,0,0c0,0,0,0,0-0.1c0,0,0,0,0-0.1
	c0,0,0-0.1,0.1-0.1c0,0,0,0,0,0c0,0,0,0,0,0c0,0,0-0.1,0-0.1c0,0,0-0.1,0-0.1c0,0,0-0.1,0.1-0.1c0,0,0.1-0.1,0.1-0.1c0,0,0,0,0.1,0
	c0,0,0,0,0,0c0,0,0,0,0,0c0,0,0,0,0,0c0,0,0.1,0,0.1-0.1c0.1,0,0.1,0,0.2-0.1c0,0,0,0,0,0c0,0,0,0,0,0c0,0,0,0,0,0c0,0,0,0,0,0
	c0.4-0.2,0.8-0.4,1.2-0.5c0.5-0.1,1-0.2,1.5-0.2c0.4,0,0.7,0.1,1.2,0.1l0,0l0.1,0c0.1,0,0.1,0,0.2,0c0.4,0.1,0.7,0.1,1.1,0.2
	l0.6,0.1c0.6,0.1,1.3,0.2,2,0.3c0.3,0,0.7,0,1,0c0.5,0,0.9,0,1.4-0.1c0.2,0,0.4,0,0.6,0c0.1,0,0.2,0,0.4,0c0.2,0,0.4-0.1,0.7-0.1
	c0.3-0.1,0.6-0.2,0.8-0.3c0.3-0.1,0.5-0.3,0.7-0.4c0.2-0.1,0.4-0.3,0.6-0.5c0.2-0.2,0.4-0.4,0.5-0.6c0,0,0.1-0.1,0.1-0.1
	c0.3-0.3,0.5-0.6,0.7-1c0.1-0.2,0.1-0.4,0.2-0.5l0-0.1c0-0.1,0.1-0.2,0.1-0.4c0-0.2,0.1-0.4,0.1-0.6c0-0.2,0-0.5,0-0.6l0-0.1
	c0-0.3-0.1-0.5-0.2-0.7c-0.1-0.3-0.2-0.6-0.3-0.8c-0.1-0.2-0.2-0.4-0.3-0.6c0-0.2-0.1-0.3-0.2-0.5c-0.2-0.2-0.4-0.4-0.5-0.6
	c-0.1-0.1-0.2-0.1-0.3-0.2l0,0l0,0c-0.1-0.1-0.1-0.1-0.2-0.1c0,0-0.1,0-0.1-0.1c0,0-0.1,0-0.1-0.1c0,0,0,0,0,0l0,0l0,0
	c-0.1-0.2-0.2-0.3-0.3-0.4c-0.3-0.3-0.7-0.5-1.1-0.7c-0.5-0.2-1.1-0.5-1.7-0.7c-0.3-0.1-0.6-0.2-1-0.2c-0.8-0.2-1.7-0.3-2.7-0.3
	c-0.1,0-0.2,0-0.3,0c-0.5,0-1,0-1.5,0.1c-0.1,0-0.1,0-0.2,0c0,0,0,0-0.1,0c0,0-0.1,0-0.2,0c-0.2,0-0.3,0-0.5,0
	c-0.6,0-1.2,0.1-1.9,0.2c-0.8,0.2-1.7,0.4-2.5,0.8c-0.9,0.4-1.7,0.8-2.5,1.3c-0.8,0.5-1.5,1.2-2.1,1.9c-0.4,0.5-0.8,1.1-1.1,1.6
	c-0.4,0.5-0.7,1-1,1.6c-0.3,0.6-0.5,1.2-0.7,1.9c-0.1,0.3-0.2,0.6-0.3,1c-0.2,0.4-0.3,0.9-0.3,1.3c-0.1,0.9-0.1,1.8,0,2.7
	c0,0.3,0,0.6,0,0.9c0,0.3,0,0.5,0,0.8c0,0.1,0,0.1,0,0.2c0,0,0,0.1,0,0.1l0,0.2l0.1,0.4c0.1,0.3,0.2,0.7,0.3,1.1
	c0.1,0.3,0.2,0.6,0.4,0.8c0,0,0,0,0,0.1c0,0,0,0.1,0,0.1c0.1,0.1,0.1,0.2,0.2,0.3c0,0,0,0.1,0.1,0.1c0.1,0.1,0.2,0.3,0.4,0.4
	c0,0,0,0,0.1,0.1c0,0,0.1,0.1,0.1,0.1l0.4-0.3l0,0l-0.3,0.3c0.1,0.1,0.2,0.2,0.3,0.3l0,0l0,0c0,0,0,0,0,0c0.1,0.1,0.2,0.1,0.2,0.2
	c0,0,0,0,0,0l0.1,0l0.1,0.1l0.1,0.1c0,0,0,0,0.1,0l0.1,0.1c0,0,0,0,0,0c0.1,0.1,0.3,0.2,0.4,0.3c0,0,0,0,0.1,0c0,0,0,0,0.1,0l0.1,0
	c0.2,0.1,0.4,0.2,0.5,0.2c0.1,0,0.2,0.1,0.3,0.1c0,0,0.1,0,0.1,0l0.1,0c0,0,0.1,0,0.1,0l0.2,0.1c0,0,0.1,0,0.1,0l0.2,0.1l0.1,0
	l0.2-0.5c0,0,0,0,0,0l-0.1,0.5c0,0,0,0,0.1,0c0.1,0,0.2,0.1,0.3,0.1l0.1,0l0.2,0.1l0.1,0l0.1,0l0.2,0c0,0,0.1,0,0.1,0
	c0,0,0.1,0,0.1,0l0.1,0l0,0l0.1,0l0.2,0l0.1,0c0.2,0,0.4,0.1,0.5,0.1c0.1,0,0.3,0,0.4,0c0,0,0,0,0.1,0c0.4,0,0.7,0.1,1.1,0.1
	c0,0,0.1,0,0.1,0c0,0,0.1,0,0.1,0c0.2,0,0.4-0.1,0.7-0.1c0,0,0.1,0,0.1,0l0.1,0c0,0,0.1,0,0.1,0c0,0,0.1,0,0.1,0
	c0.1,0,0.2-0.1,0.3-0.1c0,0,0,0,0,0c0,0,0.1,0,0.1,0c0,0,0,0,0.1,0c0,0,0.1,0,0.1,0c0,0,0.1,0,0.1,0c0,0,0,0,0.1,0
	c0.1,0,0.2,0,0.2,0l0.1,0c0.3,0,0.5-0.1,0.7-0.1c0,0,0,0,0,0h0c0,0,0.1,0,0.1,0c0.3,0,0.6-0.1,1-0.2l0.2,0c0.8,0.1,1.4,0.3,1.9,0.5
	c0.4,0.2,0.7,0.3,1,0.5c0.1,0.1,0.2,0.2,0.3,0.3c0.1,0.1,0.1,0.2,0.1,0.3c0,0,0,0.1,0,0.1c0,0.1,0,0.2-0.1,0.3c0,0.1,0,0.1-0.1,0.2
	c0,0.1-0.1,0.1-0.1,0.2c-0.1,0.1-0.1,0.1-0.2,0.2c0,0-0.1,0-0.1,0c-0.2,0.1-0.4,0.2-0.5,0.2l-0.1,0.1c0,0-0.1,0-0.1,0.1
	c-0.2,0-0.4,0.1-0.6,0.1l-0.1,0c-0.5,0-1-0.2-1.5-0.3c-0.2-0.1-0.5-0.1-0.7-0.2c-0.4-0.1-0.7-0.2-1.1-0.3c-0.3-0.1-0.6-0.1-1-0.2
	c-0.4-0.1-0.8-0.1-1.1-0.1c-0.4,0-0.8,0-1.2,0.1c-0.1,0-0.2,0.1-0.3,0.1c-0.2,0-0.3,0-0.5,0c-0.1,0-0.3,0-0.4,0
	c-1,0-1.8,0.1-2.6,0.4c-1.2,0.3-2.1,0.8-2.8,1.4c-0.9,0.8-1.6,2-1.7,3.2c0,0.4-0.1,0.7-0.1,1c0,0.3,0.1,0.7,0.1,1.1
	c0,0.1,0,0.2,0.1,0.3c0,0.1,0,0.1,0.1,0.2c0,0,0,0,0,0c0,0,0,0,0,0.1c0,0,0,0,0,0.1c0,0.1,0.1,0.2,0.2,0.3l0.1,0.1l0,0.1
	c0.1,0.1,0.1,0.1,0.2,0.2l0.2,0.3c0.1,0.1,0.2,0.2,0.3,0.4c0.2,0.3,0.6,0.7,1,1.1c0,0,0,0,0.1,0c0.1,0.1,0.2,0.1,0.3,0.2
	c0.1,0.1,0.2,0.1,0.3,0.2c0,0,0,0,0,0c0,0,0.1,0,0.1,0.1l0.3-0.4c0,0,0,0,0,0l-0.2,0.4l0.1,0c0.1,0,0.1,0.1,0.2,0.1l0.1,0
	c0.2,0.1,0.4,0.2,0.6,0.2l0.3,0.1l0.1,0l0.1,0l0.1,0.1c0,0,0,0,0,0l0.1,0l0.1,0c0.1,0.1,0.3,0.1,0.4,0.2c0.1,0,0.1,0,0.2,0
	c0.3,0.1,0.7,0.1,1,0.1c0,0,0.1,0,0.1,0c0.1,0,0.2,0,0.3,0c0.1,0.1,0.2,0.1,0.3,0.1c0.4,0,0.9,0,1.3,0c0.4,0,0.9,0,1.3,0
	c0.4,0,0.8-0.1,1.2-0.1l0,0c0.3,0,0.7,0,1,0c0.3,0,0.6,0,1,0l0.3,0l0.3,0c0.2,0,0.4,0,0.6,0c0.2,0,0.4,0,0.6,0l0.1,0
	c0.3,0,0.6,0,1-0.1c0.1,0,0.3,0,0.4,0c0.6-0.1,1.2-0.2,1.9-0.4c0.6-0.2,1.2-0.4,1.7-0.7c0.6-0.4,1.2-0.8,1.6-1.2
	c0.3-0.3,0.5-0.6,0.7-0.9c0.2-0.3,0.4-0.6,0.6-0.9c0.1-0.2,0.2-0.4,0.3-0.7c0-0.1,0.1-0.1,0.1-0.2c0.2-0.4,0.4-0.8,0.6-1.3
	c0.2-0.4,0.3-0.9,0.4-1.4c0-0.2,0.1-0.4,0.1-0.7c0-0.1,0-0.2,0.1-0.2c0.3-0.8,0.5-1.7,0.6-2.6C173.2,53,173.1,51.6,172.7,50.3z
	 M161.1,39.9L161.1,39.9L161.1,39.9z M153.3,51L153.3,51L153.3,51z M158.9,51.5L158.9,51.5L158.9,51.5z"/>
<path class="st0" d="M177.5,47.1c0.3,0.9,0.6,1.7,1.1,2.4c0,0.1,0.1,0.2,0.1,0.2c0.4,0.7,0.8,1.4,1.4,2c0.1,0.1,0.2,0.3,0.3,0.4
	c0.4,0.4,0.9,0.8,1.5,1c0,0,0.1,0,0.1,0.1c0.4,0.3,0.9,0.4,1.2,0.5c0.4,0.1,0.8,0.2,1.2,0.3c0.8,0.2,1.6,0.2,2.6,0.2l0,0
	c0.9,0.1,1.7,0.2,2.4,0.2c0.2,0,0.3,0,0.5,0c0.7,0,1.4,0,2-0.1c0,0,0,0,0.1,0c0,0,0.1-0.1,0.1-0.1c0,0,0.1-0.1,0.1-0.1
	c0,0,0.1,0,0.1-0.1c0,0,0.1,0,0.2,0c0,0,0.1,0,0.1,0c0.1,0,0.1,0,0.2,0c0,0,0.1,0,0.1,0c0,0,0.1,0,0.1,0c0,0,0,0,0.1,0
	c0.1,0,0.1,0,0.2,0c0.1,0,0.2,0.1,0.2,0.1c0,0,0,0,0,0c0,0,0,0,0,0.1c0,0,0,0,0,0.1c0,0,0,0,0,0.1c0.1,0,0.1,0,0.2,0
	c0.1,0.1,0.2,0.2,0.1,0.3c0,0,0,0,0,0.1c0,0,0,0.1-0.1,0.1c0,0,0,0,0,0c0,0,0,0,0,0.1c0,0,0,0,0,0c0,0,0,0,0,0.1c0,0,0,0,0,0.1
	c0,0,0,0.1-0.1,0.1c0,0,0,0,0,0c0,0,0,0,0,0c0,0,0,0.1,0,0.1c0,0,0,0.1,0,0.1c0,0,0,0.1-0.1,0.1c0,0-0.1,0.1-0.1,0.1c0,0,0,0-0.1,0
	c0,0,0,0,0,0c0,0,0,0,0,0c0,0,0,0,0,0c0,0-0.1,0-0.1,0.1c-0.1,0-0.1,0-0.2,0.1c0,0,0,0,0,0c0,0,0,0,0,0c0,0,0,0,0,0c0,0,0,0,0,0
	c-0.4,0.2-0.8,0.4-1.2,0.5c-0.5,0.1-1,0.2-1.5,0.2c-0.4,0-0.7-0.1-1.2-0.1l0,0l-0.1,0c-0.1,0-0.1,0-0.2,0c-0.4-0.1-0.7-0.1-1.1-0.2
	l-0.6-0.1c-0.6-0.1-1.3-0.2-2-0.3c-0.3,0-0.7,0-1,0c-0.5,0-0.9,0-1.4,0.1c-0.2,0-0.4,0-0.6,0c-0.1,0-0.2,0-0.4,0
	c-0.2,0-0.4,0.1-0.7,0.1c-0.3,0.1-0.6,0.2-0.8,0.3c-0.3,0.1-0.5,0.3-0.7,0.4c-0.2,0.1-0.4,0.3-0.6,0.5c-0.2,0.2-0.4,0.4-0.5,0.6
	c0,0-0.1,0.1-0.1,0.1c-0.3,0.3-0.5,0.6-0.7,1c-0.1,0.2-0.1,0.4-0.2,0.5l0,0.1c0,0.1-0.1,0.2-0.1,0.4c0,0.2-0.1,0.4-0.1,0.6
	c0,0.2,0,0.5,0,0.6l0,0.1c0,0.3,0.1,0.5,0.2,0.7c0.1,0.3,0.2,0.6,0.3,0.8c0.1,0.2,0.2,0.4,0.3,0.6c0,0.2,0.1,0.3,0.2,0.5
	c0.2,0.2,0.4,0.4,0.5,0.6c0.1,0.1,0.2,0.1,0.3,0.2l0,0l0,0c0.1,0.1,0.1,0.1,0.2,0.1c0,0,0.1,0,0.1,0.1c0,0,0.1,0,0.1,0.1
	c0,0,0,0,0,0l0,0l0,0c0.1,0.2,0.2,0.3,0.3,0.4c0.3,0.3,0.7,0.5,1.1,0.7c0.5,0.2,1.1,0.5,1.7,0.7c0.3,0.1,0.6,0.2,1,0.2
	c0.8,0.2,1.7,0.3,2.7,0.3c0.1,0,0.2,0,0.3,0c0.5,0,1,0,1.5-0.1c0.1,0,0.1,0,0.2,0c0,0,0,0,0.1,0c0,0,0.1,0,0.2,0c0.2,0,0.3,0,0.5,0
	c0.6,0,1.2-0.1,1.9-0.2c0.8-0.2,1.7-0.4,2.5-0.8c0.9-0.4,1.7-0.8,2.5-1.3c0.8-0.5,1.5-1.2,2.1-1.9c0.4-0.5,0.8-1.1,1.1-1.6
	c0.4-0.5,0.7-1,1-1.6c0.3-0.6,0.5-1.2,0.7-1.9c0.1-0.3,0.2-0.6,0.3-1c0.2-0.4,0.3-0.9,0.3-1.3c0.1-0.9,0.1-1.8,0-2.7
	c0-0.3,0-0.6,0-0.9c0-0.3,0-0.5,0-0.8c0-0.1,0-0.1,0-0.2c0,0,0-0.1,0-0.1l0-0.2l-0.1-0.4c-0.1-0.3-0.2-0.7-0.3-1.1
	c-0.1-0.3-0.2-0.6-0.4-0.8c0,0,0,0,0-0.1c0,0,0-0.1,0-0.1c-0.1-0.1-0.1-0.2-0.2-0.3c0,0,0-0.1-0.1-0.1c-0.1-0.1-0.2-0.3-0.4-0.4
	c0,0,0,0-0.1-0.1c0,0-0.1-0.1-0.1-0.1l-0.4,0.3l0,0l0.3-0.3c-0.1-0.1-0.2-0.2-0.3-0.3l0,0l0,0c0,0,0,0,0,0c-0.1-0.1-0.2-0.1-0.2-0.2
	c0,0,0,0,0,0l-0.1,0l-0.1-0.1l-0.1-0.1c0,0,0,0-0.1,0l-0.1-0.1c0,0,0,0,0,0c-0.1-0.1-0.3-0.2-0.4-0.3c0,0,0,0-0.1,0c0,0,0,0-0.1,0
	l-0.1,0c-0.2-0.1-0.4-0.2-0.5-0.2c-0.1,0-0.2-0.1-0.3-0.1c0,0-0.1,0-0.1,0l-0.1,0c0,0-0.1,0-0.1,0l-0.2-0.1c0,0-0.1,0-0.1,0
	l-0.2-0.1l-0.1,0l-0.2,0.5c0,0,0,0,0,0l0.1-0.5c0,0,0,0-0.1,0c-0.1,0-0.2-0.1-0.3-0.1l-0.1,0l-0.2-0.1l-0.1,0l-0.1,0l-0.2,0
	c0,0-0.1,0-0.1,0c0,0-0.1,0-0.1,0l-0.1,0l0,0l-0.1,0l-0.2,0l-0.1,0c-0.2,0-0.4-0.1-0.5-0.1c-0.1,0-0.3,0-0.4,0c0,0,0,0-0.1,0
	c-0.4,0-0.7-0.1-1.1-0.1c0,0-0.1,0-0.1,0c0,0-0.1,0-0.1,0c-0.2,0-0.4,0.1-0.7,0.1c0,0-0.1,0-0.1,0l-0.1,0c0,0-0.1,0-0.1,0
	c0,0-0.1,0-0.1,0c-0.1,0-0.2,0.1-0.3,0.1c0,0,0,0,0,0c0,0-0.1,0-0.1,0c0,0,0,0-0.1,0c0,0-0.1,0-0.1,0c0,0-0.1,0-0.1,0c0,0,0,0-0.1,0
	c-0.1,0-0.2,0-0.2,0l-0.1,0c-0.3,0-0.5,0.1-0.7,0.1c0,0,0,0,0,0h0c0,0-0.1,0-0.1,0c-0.3,0-0.6,0.1-1,0.2l-0.2,0
	c-0.8-0.1-1.4-0.3-1.9-0.5c-0.4-0.2-0.7-0.3-1-0.5c-0.1-0.1-0.2-0.2-0.3-0.3c-0.1-0.1-0.1-0.2-0.1-0.3c0,0,0-0.1,0-0.1
	c0-0.1,0-0.2,0.1-0.3c0-0.1,0-0.1,0.1-0.2c0-0.1,0.1-0.1,0.1-0.2c0.1-0.1,0.1-0.1,0.2-0.2c0,0,0.1,0,0.1,0c0.2-0.1,0.4-0.2,0.5-0.2
	l0.1-0.1c0,0,0.1,0,0.1-0.1c0.2,0,0.4-0.1,0.6-0.1l0.1,0c0.5,0,1,0.2,1.5,0.3c0.2,0.1,0.5,0.1,0.7,0.2c0.4,0.1,0.7,0.2,1.1,0.3
	c0.3,0.1,0.6,0.1,1,0.2c0.4,0.1,0.8,0.1,1.1,0.1c0.4,0,0.8,0,1.2-0.1c0.1,0,0.2-0.1,0.3-0.1c0.2,0,0.3,0,0.5,0c0.1,0,0.3,0,0.4,0
	c1,0,1.8-0.1,2.6-0.4c1.2-0.3,2.1-0.8,2.8-1.4c0.9-0.8,1.6-2,1.7-3.2c0-0.4,0.1-0.7,0.1-1c0-0.3-0.1-0.7-0.1-1.1
	c0-0.1,0-0.2-0.1-0.3c0-0.1,0-0.1-0.1-0.2c0,0,0,0,0,0c0,0,0,0,0-0.1c0,0,0,0,0-0.1c0-0.1-0.1-0.2-0.2-0.3l-0.1-0.1l0-0.1
	c-0.1-0.1-0.1-0.1-0.2-0.2l-0.2-0.3c-0.1-0.1-0.2-0.2-0.3-0.4c-0.2-0.3-0.6-0.7-1-1.1c0,0,0,0-0.1,0c-0.1-0.1-0.2-0.1-0.3-0.2
	c-0.1-0.1-0.2-0.1-0.3-0.2c0,0,0,0,0,0c0,0-0.1,0-0.1-0.1l-0.3,0.4c0,0,0,0,0,0l0.2-0.4l-0.1,0c-0.1,0-0.1-0.1-0.2-0.1l-0.1,0
	c-0.2-0.1-0.4-0.2-0.6-0.2l-0.3-0.1l-0.1,0l-0.1,0l-0.1-0.1c0,0,0,0,0,0l-0.1,0l-0.1,0c-0.1-0.1-0.3-0.1-0.4-0.2c-0.1,0-0.1,0-0.2,0
	c-0.3-0.1-0.7-0.1-1-0.1c0,0-0.1,0-0.1,0c-0.1,0-0.2,0-0.3,0c-0.1-0.1-0.2-0.1-0.3-0.1c-0.4,0-0.9,0-1.3,0c-0.4,0-0.9,0-1.3,0
	c-0.4,0-0.8,0.1-1.2,0.1l0,0c-0.3,0-0.7,0-1,0c-0.3,0-0.6,0-1,0l-0.3,0l-0.3,0c-0.2,0-0.4,0-0.6,0c-0.2,0-0.4,0-0.6,0l-0.1,0
	c-0.3,0-0.6,0-1,0.1c-0.1,0-0.3,0-0.4,0c-0.6,0.1-1.2,0.2-1.9,0.4c-0.6,0.2-1.2,0.4-1.7,0.7c-0.6,0.4-1.2,0.8-1.6,1.2
	c-0.3,0.3-0.5,0.6-0.7,0.9c-0.2,0.3-0.4,0.6-0.6,0.9c-0.1,0.2-0.2,0.4-0.3,0.7c0,0.1-0.1,0.1-0.1,0.2c-0.2,0.4-0.4,0.8-0.6,1.3
	c-0.2,0.4-0.3,0.9-0.4,1.4c0,0.2-0.1,0.4-0.1,0.7c0,0.1,0,0.2-0.1,0.2c-0.3,0.8-0.5,1.7-0.6,2.6C177,44.3,177.1,45.8,177.5,47.1z
	 M189.1,57.5L189.1,57.5L189.1,57.5z M196.9,46.3L196.9,46.3L196.9,46.3z M191.3,45.8L191.3,45.8L191.3,45.8z"/>
</svg>
