<?xml version="1.0" encoding="utf-8"?>
<!-- Generator: Adobe Illustrator 22.1.0, SVG Export Plug-In . SVG Version: 6.00 Build 0)  -->
<svg version="1.1" id="Layer_1" xmlns="http://www.w3.org/2000/svg" xmlns:xlink="http://www.w3.org/1999/xlink" x="0px" y="0px"
	 viewBox="0 0 483.5 85.7" style="enable-background:new 0 0 483.5 85.7;" xml:space="preserve">
<style type="text/css">
	.st0{fill:#FDF5EA;stroke:#5B5B4B;stroke-linecap:round;stroke-miterlimit:10;}
	.st1{fill:#D4AF6B;}
	.st2{fill:#F7C872;}
	.st3{fill:none;stroke:#5B5B4B;stroke-linecap:round;stroke-miterlimit:10;}
</style>
<g>
	<path class="st0" d="M483,38.1c0-5.8-0.1-12.2-0.2-14.5c-0.5-10.5-6.9-22.2-17.2-23.1c-2.4-0.2-84.5,0.2-107.5,1.7
		C254.8,2.4,65.1,3,43.2,4.4c-0.7,0-1.7,0.2-2.9,0.3C26.5,5.1,15.8,5.6,13.2,6.1C12,6.4,8.8,8.4,7.1,10.7c-2.4,3.1-5.5,8-6.4,13.2
		c-0.1,0.4-0.2,8.9-0.2,15.4c0,0.8,0,1.6,0,2.3c0,2,0,3.6,0,4.4c0,0,0,0.1,0,0.1c0,0.2,0,0.4,0,0.4c-0.4,6.5,3.1,13.4,16,18
		c9.4,3.4,113,0.2,115.3,0c0.6,0,1.2-0.1,1.7-0.2c113,0.4,304.5-1.3,310.3-1.5c6.3-0.1,11.7-0.6,16.3-1.3c6.6-0.2,10.8-0.3,11.2-0.4
		c7.1-0.4,10.6-6,11.3-12.8c0.2-1.6,0.2-4.8,0.3-8.3C483,39.4,483,38.8,483,38.1z"/>
	<g>
		<path class="st1" d="M354.1,10.1c-31.3,0-70.9,0.1-111,0.2C156,10.6,66,11,51.6,11.7c-0.7,0-1.7,0.1-2.8,0.2
			c-13.3,0.2-23.6,0.6-26.1,1c-1.1,0.2-4.2,1.6-5.8,3.3c-2.3,2.3-5.3,5.8-6.1,9.5c-0.1,0.3-0.2,6.4-0.2,11c0,0.6,0,1.1,0,1.6
			c0,1.4,0,2.6,0,3.1c0,0,0,0.1,0,0.1c0,0.2,0,0.3,0,0.3c-0.4,4.7,3,9.6,15.3,12.9c9,2.4,108.5,0.1,110.8,0c0.6,0,1.1-0.1,1.7-0.2
			c62.9,0.2,151.1-0.2,215.3-0.5"/>
		<path class="st2" d="M353.7,54.2c46.6-0.2,80.5-0.5,82.8-0.5c6-0.1,11.2-0.4,15.7-1c6.3-0.1,10.3-0.2,10.8-0.3
			c6.8-0.3,10.2-4.3,10.9-9.2c0.2-1.1,0.2-3.4,0.3-6c0-0.5,0-0.9,0-1.4c0-4.2-0.1-8.7-0.2-10.4c-0.5-7.6-6.7-16-16.5-16.6
			c-2.3-0.1-81.2,0.1-103.3,1.2"/>
	</g>
	<path class="st0" d="M64.7,59.1c0,0,2.5,25.3,13.4,26s15.2-8.3,15.2-8.3s-3.1-13.6,1.5-16"/>
	<path class="st3" d="M473.9,25.5c-0.5-7.6-6.7-16-16.5-16.6c-2.3-0.1-81.2,0.1-103.3,1.2c-31.3,0-70.9,0.1-111,0.2
		C156,10.6,66,11,51.6,11.7c-0.7,0-1.7,0.1-2.8,0.2c-13.3,0.2-23.6,0.6-26.1,1c-1.1,0.2-4.2,1.6-5.8,3.3c-2.3,2.3-5.3,5.8-6.1,9.5
		c-0.1,0.3-0.2,6.4-0.2,11c0,0.6,0,1.1,0,1.6c0,1.4,0,2.6,0,3.1c0,0,0,0.1,0,0.1c0,0.2,0,0.3,0,0.3c-0.4,4.7,3,9.6,15.3,12.9
		c9,2.4,108.5,0.1,110.8,0c0.6,0,1.1-0.1,1.7-0.2c62.9,0.2,151.1-0.2,215.3-0.5c46.6-0.2,80.5-0.5,82.8-0.5c6-0.1,11.2-0.4,15.7-1
		c6.3-0.1,10.3-0.2,10.8-0.3c6.8-0.3,10.2-4.3,10.9-9.2c0.2-1.1,0.2-3.4,0.3-6c0-0.5,0-0.9,0-1.4C474.1,31.7,474.1,27.2,473.9,25.5z
		"/>
</g>
</svg>
