<?xml version="1.0" encoding="utf-8"?>
<!-- Generator: Adobe Illustrator 22.1.0, SVG Export Plug-In . SVG Version: 6.00 Build 0)  -->
<svg version="1.1" id="Layer_1" xmlns="http://www.w3.org/2000/svg" xmlns:xlink="http://www.w3.org/1999/xlink" x="0px" y="0px"
	 viewBox="0 0 267.4 83.6" style="enable-background:new 0 0 267.4 83.6;" xml:space="preserve">
<style type="text/css">
	.st0{opacity:0.1;fill:#231F20;stroke:#231F20;stroke-miterlimit:10;enable-background:new    ;}
	.st1{fill:#FFD767;stroke:#584C4F;stroke-width:2;stroke-miterlimit:10;}
	.st2{fill:#FFFAF2;stroke:#584C4F;stroke-width:2;stroke-miterlimit:10;}
</style>
<path class="st0" d="M149.1,36c12-5.2-0.2-12.1-0.2-12.1C140.8,17.5,137.2,41.2,149.1,36z"/>
<path class="st0" d="M42.4,65c0,0.1,0.1,0.3,0.1,0.5c0,0,0,0.1,0.1,0.1c0.1,0.1,0.1,0.2,0.2,0.3c0,0.1,0.1,0.1,0.1,0.2
	c0.1,0.1,0.2,0.2,0.3,0.4l0.1,0.1c0.2,0.2,0.3,0.3,0.5,0.5c0,0,0.1,0,0.1,0.1c0.2,0.1,0.3,0.3,0.5,0.4c0.1,0.1,0.2,0.1,0.2,0.2
	c0.2,0.1,0.3,0.2,0.5,0.3c0.1,0.1,0.2,0.1,0.3,0.2c0.2,0.1,0.4,0.2,0.6,0.3c0.1,0.1,0.2,0.1,0.3,0.2c0.3,0.2,0.6,0.3,0.9,0.5
	c0.1,0,0.2,0.1,0.3,0.1c0.2,0.1,0.4,0.2,0.7,0.3c0.1,0.1,0.3,0.1,0.4,0.2c0.2,0.1,0.4,0.2,0.6,0.3c0.1,0.1,0.3,0.1,0.4,0.2
	c0.2,0.1,0.4,0.2,0.7,0.2c0.1,0,0.3,0.1,0.4,0.1c0.3,0.1,0.7,0.2,1,0.3c0.1,0,0.3,0.1,0.4,0.1c0.2,0.1,0.5,0.1,0.7,0.2
	c0.2,0,0.3,0.1,0.5,0.1s0.4,0.1,0.6,0.1s0.4,0.1,0.5,0.1c0.2,0,0.5,0.1,0.7,0.1s0.3,0,0.5,0.1c0.4,0,0.7,0.1,1.1,0.1
	c0.2,0,0.4,0,0.5,0c0.2,0,0.4,0,0.6,0s0.4,0,0.6,0s0.4,0,0.6,0s0.4,0,0.6,0s0.5-0.1,0.7-0.1s0.5-0.1,0.7-0.1
	c0.3-0.1,0.5-0.1,0.8-0.2c0.2,0,0.3-0.1,0.5-0.2s0.4-0.1,0.6-0.2c0.2-0.1,0.3-0.1,0.5-0.2c0.2-0.1,0.4-0.2,0.6-0.3
	c0.2-0.1,0.3-0.2,0.5-0.2c0.2-0.1,0.4-0.3,0.7-0.4c0.2-0.1,0.4-0.2,0.6-0.4c0.2-0.2,0.4-0.3,0.6-0.5c0.1-0.1,0.3-0.2,0.4-0.4
	c0.2-0.2,0.3-0.3,0.5-0.5c0.1-0.1,0.2-0.3,0.4-0.4c0.1-0.1,0.1-0.1,0.2-0.2c0.1-0.1,0.2-0.2,0.3-0.4c0,0,0-0.1,0.1-0.1
	c2.6,2.8,6.7,3.9,9.6,4.4c1,0.2,2.1,0.3,3.3,0.3c0.1,0,0.1,0,0.1,0l0,0c1.3,0,2.6-0.2,4-0.5c3.3-0.7,5.9-2.3,8-4.3
	c3.4,7.5,12.7,6.1,12.4-3.7c-0.9-14.4,4-15.5,9.7-13.3c1.1,0.4,2.3,0.7,3.5,0.7c1.7,6.7,4.9,15.1,8.3,19c0.4,0.6,0.9,1.1,1.6,1.5
	c0.7,0.5,1.3,0.7,2,0.7c0.6,0,1.1-0.1,1.5-0.2l0,0c1.7-0.4,2.7-1.3,3.2-2.4c2-2.5,4-6.4,5.5-10.7c1,7.2,4.1,13.8,6.9,13.2
	c4-0.8,6.5-3.3,7.2-10.2c1.3,2.6,3.4,5.1,6.7,7.4c5.2,3.7,10.9,3.4,15.7,0.8l0,0c0,0,2-0.7,2.6-1.7l0,0c0.1-0.2,0.3-0.4,0.4-0.6
	c2.6,2.5,6.4,3.5,9.1,3.9c1,0.2,2.1,0.3,3.3,0.3c0.1,0,0.1,0,0.1,0l0,0c1.3,0,2.6-0.2,4-0.5c3.4-0.8,6.2-2.4,8.3-4.6
	c0.1,0.1,0.2,0.2,0.3,0.3c0,0,0.1,0,0.1,0.1c0.2,0.1,0.3,0.3,0.5,0.4c0.1,0.1,0.2,0.1,0.2,0.2c0.2,0.1,0.3,0.2,0.5,0.3
	c0.1,0.1,0.2,0.1,0.3,0.2c0.2,0.1,0.4,0.2,0.6,0.3c0.1,0.1,0.2,0.1,0.3,0.2c0.3,0.2,0.6,0.3,0.9,0.5c0.1,0,0.2,0.1,0.3,0.1
	c0.2,0.1,0.4,0.2,0.7,0.3c0.1,0.1,0.3,0.1,0.4,0.2c0.2,0.1,0.4,0.2,0.6,0.3c0.1,0.1,0.3,0.1,0.4,0.2c0.2,0.1,0.4,0.2,0.7,0.2
	c0.1,0,0.3,0.1,0.4,0.1c0.3,0.1,0.7,0.2,1,0.3c0.1,0,0.3,0.1,0.4,0.1c0.2,0.1,0.5,0.1,0.7,0.2c0.2,0,0.3,0.1,0.5,0.1
	s0.4,0.1,0.6,0.1c0.2,0,0.4,0.1,0.5,0.1c0.2,0,0.5,0.1,0.7,0.1s0.3,0,0.5,0.1c0.4,0,0.7,0.1,1.1,0.1c0.2,0,0.4,0,0.5,0
	c0.2,0,0.4,0,0.6,0c0.2,0,0.4,0,0.6,0c0.2,0,0.4,0,0.6,0c0.2,0,0.4,0,0.6,0c0.2,0,0.5-0.1,0.7-0.1s0.5-0.1,0.7-0.1
	c0.3-0.1,0.5-0.1,0.8-0.2c0.2,0,0.3-0.1,0.5-0.2s0.4-0.1,0.6-0.2c0.2-0.1,0.3-0.1,0.5-0.2s0.4-0.2,0.6-0.3c0.2-0.1,0.3-0.2,0.5-0.2
	c0.2-0.1,0.4-0.3,0.7-0.4c0.2-0.1,0.4-0.2,0.6-0.4c0.2-0.2,0.4-0.3,0.6-0.5c0.1-0.1,0.3-0.2,0.4-0.4c0.2-0.2,0.3-0.3,0.5-0.5
	c0.1-0.1,0.2-0.3,0.4-0.4c0.1-0.1,0.1-0.1,0.2-0.2c0.1-0.1,0.2-0.2,0.3-0.4c0.1-0.2,0.2-0.3,0.3-0.5c0.2-0.2,0.3-0.5,0.4-0.8
	c0.1-0.2,0.2-0.3,0.3-0.5c0.2-0.4,0.3-0.7,0.5-1.2c0.1-0.2,0.1-0.4,0.2-0.5c0.1-0.3,0.2-0.6,0.3-0.9c0.1-0.2,0.1-0.4,0.2-0.6
	c0.1-0.3,0.1-0.7,0.2-1c0-0.2,0.1-0.4,0.1-0.7c0.1-0.4,0.1-0.8,0.1-1.2c0-0.2,0-0.4,0.1-0.6c0-0.6,0.1-1.3,0.1-2l0,0l0,0l0,0l0,0
	c-0.5-1.7-1.4-3.1-2.6-4.3c-0.4-0.5-0.9-0.9-1.3-1.2c-3.2-2.5-7.7-3.5-11.6-3.6l0,0c0-0.1,0-0.2,0.1-0.2c0-0.1,0-0.1,0.1-0.2
	c0-0.1,0.1-0.1,0.1-0.2c0-0.1,0.1-0.1,0.1-0.2c0-0.1,0.1-0.1,0.1-0.2c0-0.1,0.1-0.1,0.1-0.2l0.1-0.1c0.1-0.1,0.1-0.1,0.2-0.2
	l0.1-0.1c0.1-0.1,0.2-0.1,0.3-0.2c0,0,0.1,0,0.1-0.1c0.1,0,0.2-0.1,0.3-0.1h0.1c0.1,0,0.3-0.1,0.4-0.1h0.1c0.2,0,0.4,0,0.6,0l0,0
	c1.8,0,4.6,0.7,8.8,2.7c0,0,5.5-0.3,5.6-4.6c0-0.3,0-0.6,0-0.9c0-0.2-0.1-0.3-0.1-0.5c0,0,0-0.1-0.1-0.1c-0.1-0.1-0.1-0.2-0.2-0.4
	l-0.1-0.1c-0.1-0.1-0.2-0.3-0.3-0.4c0,0,0-0.1-0.1-0.1c-0.3-0.3-0.7-0.7-1.2-1.1l-0.1-0.1c-0.2-0.1-0.4-0.3-0.6-0.4l-0.1-0.1
	c-0.2-0.2-0.5-0.3-0.8-0.5c0,0,0,0-0.1,0c-0.6-0.3-1.2-0.7-1.9-1c-0.1,0-0.1-0.1-0.2-0.1c-0.3-0.1-0.6-0.2-0.9-0.4
	c-0.1,0-0.1-0.1-0.2-0.1c-0.3-0.1-0.7-0.3-1-0.4c0,0,0,0-0.1,0c-0.4-0.1-0.8-0.2-1.2-0.4h-0.1c-0.3-0.1-0.7-0.2-1-0.3
	c-0.1,0-0.2,0-0.3-0.1c-0.3-0.1-0.6-0.1-0.9-0.2c-0.1,0-0.2,0-0.3-0.1c-0.4-0.1-0.7-0.1-1.1-0.1h-0.1c-0.4,0-0.8-0.1-1.2-0.1
	c-0.1,0-0.2,0-0.3,0c-0.3,0-0.6,0-0.9,0c-0.1,0-0.3,0-0.4,0c-0.3,0-0.5,0-0.8,0c-0.1,0-0.3,0-0.4,0c-0.3,0-0.7,0.1-1,0.1
	c-0.1,0-0.1,0-0.2,0c-0.4,0.1-0.7,0.2-1.1,0.3c-0.1,0-0.3,0.1-0.4,0.1c-0.2,0.1-0.5,0.2-0.7,0.2c-0.1,0.1-0.3,0.1-0.4,0.2
	c-0.2,0.1-0.4,0.2-0.7,0.3c-0.1,0.1-0.3,0.1-0.4,0.2c-0.3,0.2-0.6,0.4-0.9,0.6c-0.1,0.1-0.2,0.1-0.2,0.2c-0.2,0.2-0.5,0.4-0.7,0.6
	c-0.1,0.1-0.2,0.2-0.3,0.3c-0.2,0.2-0.4,0.3-0.5,0.5c-0.1,0.1-0.2,0.2-0.3,0.4c-0.1,0.1-0.1,0.1-0.2,0.2c-0.1,0.1-0.2,0.3-0.3,0.4
	c-0.1,0.1-0.2,0.3-0.3,0.4c-0.2,0.3-0.4,0.6-0.5,0.9c-0.1,0.1-0.1,0.2-0.2,0.4l0,0c-2.3-3.3-5.9-5.7-10.8-6.2
	c-9.4-0.9-14.8,3.2-17.8,7.5c0.6-1.8,0.3-3.9-1.9-6.2l0,0c-4.4-4.7-19.7,3.4-21.1,6.3c0,0-0.5,0.9-1.1,2.3c-0.4-3.3-2.2-6.7-8.5-4.6
	c-0.6,0.2-1.2,0.5-1.7,0.8c0-0.4-0.1-0.7-0.2-0.9c-1.6-2.7-3.6-15-13.4,10c-7.6-19.3-10.5-16.3-12.1-12.7c-3.4-1.7-9.8-3.8-15.7-1
	c-1.3-1.7-3.6-2.8-7.7-0.4c-1.2,0.7-2.1,1.5-2.6,2.4c-2.2-1.9-5-3.2-8.4-3.6c-6.7-0.7-11.4,1.3-14.6,4l0,0c-0.2-0.1-0.4-0.3-0.6-0.4
	l-0.1-0.1c-0.2-0.2-0.5-0.3-0.8-0.5c0,0,0,0-0.1,0c-0.6-0.3-1.2-0.7-1.9-1c-0.1,0-0.1-0.1-0.2-0.1c-0.3-0.1-0.6-0.2-0.9-0.4
	c-0.1,0-0.1-0.1-0.2-0.1c-0.3-0.1-0.7-0.3-1-0.4c0,0,0,0-0.1,0c-0.4-0.1-0.8-0.2-1.2-0.4h-0.1c-0.3-0.1-0.7-0.2-1-0.3
	c-0.1,0-0.2,0-0.3-0.1c-0.3-0.1-0.6-0.1-0.9-0.2c-0.1,0-0.2,0-0.3-0.1c-0.4-0.1-0.7-0.1-1.1-0.1h-0.1c-0.4,0-0.8-0.1-1.2-0.1
	c-0.1,0-0.2,0-0.3,0c-0.3,0-0.6,0-0.9,0c-0.1,0-0.3,0-0.4,0c-0.3,0-0.5,0-0.8,0c-0.1,0-0.3,0-0.4,0c-0.3,0-0.7,0.1-1,0.1
	c-0.1,0-0.1,0-0.2,0c-0.4,0.1-0.7,0.2-1.1,0.3c-0.1,0-0.3,0.1-0.4,0.1c-0.2,0.1-0.5,0.2-0.7,0.2c-0.1,0.1-0.3,0.1-0.4,0.2
	c-0.2,0.1-0.4,0.2-0.7,0.3c-0.1,0.1-0.3,0.1-0.4,0.2c-0.3,0.2-0.6,0.4-0.9,0.6c-0.1,0.1-0.2,0.1-0.2,0.2c-0.2,0.2-0.5,0.4-0.7,0.6
	c-0.1,0.1-0.2,0.2-0.3,0.3c-0.2,0.2-0.4,0.3-0.5,0.5c-0.1,0.1-0.2,0.2-0.3,0.4c-0.1,0.1-0.1,0.1-0.2,0.2c-0.1,0.1-0.2,0.3-0.3,0.4
	c-0.1,0.1-0.2,0.3-0.3,0.4c-0.2,0.3-0.4,0.6-0.5,0.9c-0.1,0.1-0.1,0.2-0.2,0.4c-0.2,0.4-0.3,0.8-0.5,1.2c-0.1,0.2-0.1,0.3-0.2,0.5
	c-0.1,0.3-0.2,0.6-0.3,0.9c-0.1,0.2-0.1,0.4-0.2,0.6c-0.1,0.3-0.1,0.7-0.2,1c0,0.2-0.1,0.4-0.1,0.7c-0.1,0.4-0.1,0.8-0.1,1.2
	c0,0.2,0,0.4-0.1,0.6c0,0.6-0.1,1.3-0.1,2l0,0l0,0l0,0c0.5,1.7,1.4,3.1,2.5,4.3c0.4,0.5,0.9,0.9,1.3,1.2c3.2,2.5,7.7,3.5,11.7,3.6
	l0,0c0,0.1-0.1,0.2-0.1,0.3v0.1c0,0.1-0.1,0.2-0.1,0.3c0,0,0,0.1-0.1,0.1c0,0.1-0.1,0.2-0.2,0.2l-0.1,0.1c-0.1,0.1-0.1,0.1-0.2,0.2
	l-0.1,0.1c-0.1,0.1-0.2,0.1-0.2,0.2l-0.1,0.1c-0.1,0-0.2,0.1-0.3,0.1s-0.1,0.1-0.2,0.1c-0.1,0-0.2,0.1-0.3,0.1s-0.1,0-0.2,0
	c-0.1,0-0.2,0-0.4,0c-0.1,0-0.2,0-0.3,0c-0.1,0-0.3,0-0.4,0c-0.1,0-0.2,0-0.3,0c-0.2,0-0.3,0-0.5-0.1c-0.1,0-0.2,0-0.3,0
	c-0.2,0-0.4-0.1-0.5-0.1c-0.1,0-0.2,0-0.4-0.1c-0.2,0-0.4-0.1-0.6-0.2c-0.1,0-0.3-0.1-0.4-0.1c-0.2-0.1-0.5-0.2-0.7-0.2
	c-0.1,0-0.3-0.1-0.4-0.1c-0.3-0.1-0.6-0.2-0.8-0.3c-0.1-0.1-0.3-0.1-0.4-0.2c-0.3-0.1-0.7-0.3-1.1-0.5c-0.1,0-0.2-0.1-0.3-0.1
	c-0.5-0.2-1-0.5-1.5-0.7c0,0-5.5,0.3-5.6,4.6C42.3,64.3,42.3,64.6,42.4,65L42.4,65z M188.3,50.8c0,0,1.4-1.4,3.1-2.4
	c0.2,0.8,0.5,1.6,0.9,2.5c1.4,2.9,4.6,3.2,7.7,2.4c1.9,1.6,4.3,2.5,6.6,0.9c0.3-0.2,0.5-0.4,0.7-0.5c0.4,0.6,0.8,1.1,1.2,1.6
	s0.9,0.9,1.3,1.2c3.2,2.5,7.7,3.5,11.7,3.6l0,0c0,0.1-0.1,0.2-0.1,0.3v0.1c0,0.1-0.1,0.2-0.1,0.3c0,0,0,0.1-0.1,0.1
	c0,0.1-0.1,0.2-0.2,0.2l-0.1,0.1c-0.1,0.1-0.1,0.1-0.2,0.2l-0.1,0.1c-0.1,0.1-0.2,0.1-0.2,0.2l-0.1,0.1c-0.1,0-0.2,0.1-0.3,0.1
	s-0.1,0.1-0.2,0.1c-0.1,0-0.2,0.1-0.3,0.1s-0.1,0-0.2,0c-0.1,0-0.2,0-0.4,0c-0.1,0-0.2,0-0.3,0s-0.3,0-0.4,0c-0.1,0-0.2,0-0.3,0
	c-0.2,0-0.3,0-0.5-0.1c-0.1,0-0.2,0-0.3,0c-0.2,0-0.4-0.1-0.5-0.1s-0.2,0-0.4-0.1c-0.2,0-0.4-0.1-0.6-0.2c-0.1,0-0.3-0.1-0.4-0.1
	c-0.2-0.1-0.5-0.2-0.7-0.2c-0.1,0-0.3-0.1-0.4-0.1c-0.3-0.1-0.6-0.2-0.8-0.3c-0.1-0.1-0.3-0.1-0.4-0.2c-0.3-0.1-0.7-0.3-1.1-0.5
	c-0.1,0-0.2-0.1-0.3-0.1c-0.5-0.2-1-0.5-1.5-0.7c0,0-0.7,0-1.5,0.3c-1.3-3.1-4.7-3.6-6.9-3.9c-1.4-0.2-2.9,0.7-4.1,1.6
	c-0.1,0.1-0.2,0.2-0.3,0.3C193.1,60.5,183,55,188.3,50.8z M169.6,48.8c0,0,0.2,0.1,0.6,0.1c1.4,0.2,4.6,0.5,6.1-1.1
	c0.3-0.3,0.7-0.7,1-1.1c-0.3,0.6-0.5,1.1-0.7,1.6c0,0-0.5,0.8-0.8,2.3c-0.3,0.9-0.3,1.6-0.3,2c-0.1,1.5,0,3.5,0.6,5.9
	c-1.7-0.2-3.5,0.1-4.9,0.5c-0.4,0.1-0.8,0.3-1.2,0.4c0,0-0.1,0-0.1,0.1c-0.7,0.4-1.4,0.3-1.9,0.1c-1.4-0.5-2.1-2.3-2.1-2.3l0,0
	c-1-2-1.1-4.5-1.1-4.5C164.2,49.4,166.8,48.4,169.6,48.8z M76.1,50.8c0,0,1.4-1.4,3.1-2.4c0.2,0.8,0.5,1.6,0.9,2.5
	c1.4,2.9,4.6,3.2,7.7,2.4c1.3,1.1,2.9,1.9,4.5,1.7c-0.1,0.4-0.2,0.9-0.3,1.3c-1-0.3-2.1-0.5-2.9-0.6c-1.4-0.2-2.9,0.7-4.1,1.6
	c-0.1,0.1-0.2,0.2-0.3,0.3C80.8,60.5,70.8,55,76.1,50.8z M54.9,47.7C54.9,47.6,54.9,47.6,54.9,47.7c0-0.1,0.1-0.2,0.1-0.3
	s0-0.1,0.1-0.2c0-0.1,0.1-0.1,0.1-0.2c0-0.1,0.1-0.1,0.1-0.2c0-0.1,0.1-0.1,0.1-0.2c0-0.1,0.1-0.1,0.1-0.2l0.1-0.1
	c0.1-0.1,0.1-0.1,0.2-0.2l0.1-0.1c0.1-0.1,0.2-0.1,0.3-0.2c0,0,0.1,0,0.1-0.1c0.1,0,0.2-0.1,0.3-0.1h0.1c0.1,0,0.3-0.1,0.4-0.1h0.1
	c0.2,0,0.4,0,0.6,0l0,0c1.5,0,3.7,0.5,6.8,1.8c-0.1,0.3-0.2,0.5-0.3,0.8c0,0-0.3,0.5-0.6,1.4C61,48.3,57.8,47.7,54.9,47.7z"/>
<g id="XMLID_1202_">
	<path id="XMLID_1661_" class="st1" d="M80.6,35.9c0,0-3.2-2.2-4.6-0.5c-1.4,1.8-3.7,4.7-0.9,10.5c2.8,5.8,13.3,1,14.3-1.7"/>
	<path id="XMLID_1660_" class="st1" d="M92.4,40.9L92.4,40.9c-2-5.2-6.2-9.2-12.7-9.9c-12.9-1.3-18.3,7.1-20.3,12.2
		c0,0-0.5,0.8-0.8,2.3c-0.3,0.9-0.3,1.6-0.3,2c-0.2,2.8,0.3,6.9,2.9,12.4c2.1,4.5,7.6,6.1,11.1,6.7c1,0.2,2.1,0.3,3.3,0.3
		c0.1,0,0.1,0,0.1,0l0,0c1.3,0,2.6-0.2,4-0.5c5.7-1.3,9.6-4.9,11.8-9.4c-0.4-5.2-4.8-5.8-7.5-6.2c-1.4-0.2-2.9,0.7-4.1,1.6
		c-0.1,0.1-0.2,0.2-0.3,0.3c-3.8,2.8-13.9-2.7-8.6-6.9c0,0,1.8-1.9,3.9-2.8l0,0c0,0,1.8-0.9,3.2-0.4c0.6,0.2,1.1,0.6,1.4,1.4
		c0,0,0,0.1,0.1,0.1c0.2,0.3,0.4,0.7,0.6,1.1c1.7,2.8,5.6,6.5,9.2,4c4.2-3,3.7-4.1,3.8-5.3l0,0C93.4,42.8,92.4,40.9,92.4,40.9z"/>
</g>
<g id="XMLID_1198_">
	<g id="XMLID_1200_">
		<path id="XMLID_1201_" class="st1" d="M149.8,45.5c0,0,2.5-12.8-8.4-9.2c-10.9,3.6-4.3,31.7,1.4,30.5
			C148.5,65.6,151.3,61.1,149.8,45.5z"/>
	</g>
	<path id="XMLID_1199_" class="st1" d="M144,18.9c0,0,12.2,7,0.2,12.1S135.8,12.5,144,18.9z"/>
</g>
<g id="XMLID_1192_">
	<path id="XMLID_1197_" class="st1" d="M121.5,59.4c0,0-1.6,7.4,5.2,7.4c6.8,0,14.8-27.3,12.9-30.5
		C137.7,33.1,135.4,17.6,121.5,59.4z"/>
	<path id="XMLID_1196_" class="st1" d="M130.9,59.5c0,0,1.6,7.4-5.2,7.4c-6.8,0-14.8-27.3-12.9-30.5c1.7-2.8,3.8-15.9,14.6,13.1"/>
</g>
<g id="XMLID_1187_">
	<path id="XMLID_1191_" class="st1" d="M61.6,43.3c0,0,6.2-0.3,5.6-5.5c-0.5-4.1-18-11.7-25.1-2.7c-1.9,2.4-3,5.8-3,10.8l0,0
		c0.5,1.7,1.4,3.1,2.5,4.3c0.4,0.5,0.9,0.9,1.3,1.2c3.2,2.5,7.7,3.5,11.7,3.6c-0.6,2.2-3.2,3.5-11.8-0.7c0,0-6.2,0.3-5.6,5.5
		c0.5,4.1,18,11.7,25.1,2.6c1.9-2.4,3-5.8,3-10.8l0,0c-0.5-1.7-1.4-3.1-2.6-4.3c-0.4-0.5-0.9-0.9-1.3-1.2c-3.1-2.3-7.6-3.3-11.5-3.4
		C50.5,40.4,53.1,39.2,61.6,43.3z"/>
	<path id="XMLID_1190_" class="st1" d="M53.8,49.8c0,0,6,12.9-10.9,4.7c0,0-6.2,0.3-5.6,5.5c0.6,5.2,28.3,15.8,28.1-8.2"/>
	<path id="XMLID_1189_" class="st1" d="M50.8,48c0,0-6-12.9,10.9-4.7c0,0,6.2-0.3,5.6-5.5S38.9,21.9,39.1,46"/>
</g>
<g id="XMLID_1663_">
	<path id="XMLID_1665_" class="st1" d="M116.6,35.1c0,0-19.5-13.4-27.9,10.3s12.1,27.5,11.6,13s4.4-15.6,10.1-13.4
		C116.1,47.2,124,44.8,116.6,35.1z"/>
	<path id="XMLID_1664_" class="st1" d="M100,36.5c0,0-1.3-8.9-9.3-4.2s0.4,12.4,0.4,12.4"/>
</g>
<path id="XMLID_1666_" class="st1" d="M156.7,64.1c-14.8-10.4-5.7-25.5-5.7-25.5c1.4-3,16.7-11,21.1-6.3l0,0
	c4.4,4.7,1.1,8.3-0.8,10.4c-1.5,1.7-4.7,1.4-6.1,1.1c-0.4-0.1-0.6-0.1-0.6-0.1c-2.8-0.4-5.3,0.6-4.7,3.9c0,0,0.1,2.6,1.1,4.5l0,0
	c0,0,0.7,1.8,2.1,2.3c0.5,0.2,1.2,0.2,1.9-0.1c0,0,0.1,0,0.1-0.1c0.3-0.2,0.7-0.3,1.2-0.4c3.1-1,8.3-1.2,9.3,3
	c1.2,4.9,0.1,5.4-0.5,6.4l0,0c-0.6,1-2.6,1.7-2.6,1.7l0,0C167.7,67.5,162,67.8,156.7,64.1z"/>
<g id="XMLID_1667_">
	<path id="XMLID_1669_" class="st1" d="M192.8,35.9c0,0-3.2-2.2-4.6-0.5c-1.4,1.8-3.7,4.7-0.9,10.5s13.3,1,14.3-1.7"/>
	<path id="XMLID_1668_" class="st1" d="M204.6,40.9L204.6,40.9c-2-5.2-6.2-9.2-12.7-9.9c-12.9-1.3-18.3,7.1-20.3,12.2
		c0,0-0.5,0.8-0.8,2.3c-0.3,0.9-0.3,1.6-0.3,2c-0.2,2.8,0.3,6.9,2.9,12.4c2.1,4.5,7.6,6.1,11.1,6.7c1,0.2,2.1,0.3,3.3,0.3
		c0.1,0,0.1,0,0.1,0l0,0c1.3,0,2.6-0.2,4-0.5c5.7-1.3,9.6-4.9,11.8-9.4c-0.4-5.2-4.8-5.8-7.5-6.2c-1.4-0.2-2.9,0.7-4.1,1.6
		c-0.1,0.1-0.2,0.2-0.3,0.3c-3.8,2.8-13.9-2.7-8.6-6.9c0,0,1.8-1.9,3.9-2.8l0,0c0,0,1.8-0.9,3.2-0.4c0.6,0.2,1.1,0.6,1.4,1.4
		c0,0,0,0.1,0.1,0.1c0.2,0.3,0.4,0.7,0.6,1.1c1.7,2.8,5.6,6.5,9.2,4c4.2-3,3.7-4.1,3.8-5.3l0,0C205.6,42.8,204.6,40.9,204.6,40.9z"
		/>
</g>
<g id="XMLID_1662_">
	<path id="XMLID_1672_" class="st1" d="M223.5,43.3c0,0,6.2-0.3,5.6-5.5c-0.5-4.1-18-11.7-25.1-2.7c-1.9,2.4-3,5.8-3,10.8l0,0
		c0.5,1.7,1.4,3.1,2.5,4.3c0.4,0.5,0.9,0.9,1.3,1.2c3.2,2.5,7.7,3.5,11.7,3.6c-0.6,2.2-3.2,3.5-11.8-0.7c0,0-6.2,0.3-5.6,5.5
		c0.5,4.1,18,11.7,25.1,2.6c1.9-2.4,3-5.8,3-10.8l0,0c-0.5-1.7-1.4-3.1-2.6-4.3c-0.4-0.5-0.9-0.9-1.3-1.2c-3.2-2.5-7.7-3.5-11.6-3.6
		C212.3,40.4,215,39.2,223.5,43.3z"/>
	<path id="XMLID_1671_" class="st1" d="M215.7,49.8c0,0,6,12.9-10.9,4.7c0,0-6.2,0.3-5.6,5.5c0.7,5.2,28.3,15.9,28.1-8.2"/>
	<path id="XMLID_1670_" class="st1" d="M212.7,48c0,0-6-12.9,10.9-4.7c0,0,6.2-0.3,5.6-5.5c-0.7-5.2-28.3-15.9-28.1,8.2"/>
</g>
<g id="XMLID_82_">
	<path id="XMLID_84_" class="st2" d="M75.6,30.9c0,0-3.2-2.2-4.6-0.5c-1.4,1.8-3.7,4.7-0.9,10.5c2.8,5.8,13.3,1,14.3-1.7"/>
	<path id="XMLID_83_" class="st2" d="M87.4,35.9L87.4,35.9c-2-5.2-6.2-9.2-12.7-9.9c-12.9-1.3-18.3,7.1-20.3,12.2
		c0,0-0.5,0.8-0.8,2.3c-0.3,0.9-0.3,1.6-0.3,2c-0.2,2.8,0.3,6.9,2.9,12.4c2.1,4.5,7.6,6.1,11.1,6.7c1,0.2,2.1,0.3,3.3,0.3
		c0.1,0,0.1,0,0.1,0l0,0c1.3,0,2.6-0.2,4-0.5c5.7-1.3,9.6-4.9,11.8-9.4c-0.4-5.2-4.8-5.8-7.5-6.2c-1.4-0.2-2.9,0.7-4.1,1.6
		c-0.1,0.1-0.2,0.2-0.3,0.3c-3.8,2.8-13.9-2.7-8.6-6.9c0,0,1.8-1.9,3.9-2.8l0,0c0,0,1.8-0.9,3.2-0.4c0.6,0.2,1.1,0.6,1.4,1.4
		c0,0,0,0.1,0.1,0.1c0.2,0.3,0.4,0.7,0.6,1.1c1.7,2.8,5.6,6.5,9.2,4c4.2-3,3.7-4.1,3.8-5.3l0,0C88.4,37.8,87.4,35.9,87.4,35.9z"/>
</g>
<g id="XMLID_78_">
	<g id="XMLID_80_">
		<path id="XMLID_81_" class="st2" d="M144.8,40.5c0,0,2.5-12.8-8.4-9.2c-10.9,3.6-4.3,31.7,1.4,30.5
			C143.5,60.6,146.3,56.1,144.8,40.5z"/>
	</g>
	<path id="XMLID_79_" class="st2" d="M139,13.9c0,0,12.2,7,0.2,12.1S130.8,7.5,139,13.9z"/>
</g>
<g id="XMLID_75_">
	<path id="XMLID_77_" class="st2" d="M116.5,54.4c0,0-1.6,7.4,5.2,7.4c6.8,0,14.8-27.3,12.9-30.5C132.7,28.1,130.4,12.6,116.5,54.4z
		"/>
	<path id="XMLID_76_" class="st2" d="M125.9,54.5c0,0,1.6,7.4-5.2,7.4c-6.8,0-14.8-27.3-12.9-30.5c1.7-2.8,3.8-15.9,14.6,13.1"/>
</g>
<g id="XMLID_71_">
	<path id="XMLID_74_" class="st2" d="M56.6,38.3c0,0,6.2-0.3,5.6-5.5c-0.5-4.1-18-11.7-25.1-2.7c-1.9,2.4-3,5.8-3,10.8l0,0
		c0.5,1.7,1.4,3.1,2.5,4.3c0.4,0.5,0.9,0.9,1.3,1.2c3.2,2.5,7.7,3.5,11.7,3.6c-0.6,2.2-3.2,3.5-11.8-0.7c0,0-6.2,0.3-5.6,5.5
		c0.5,4.1,18,11.7,25.1,2.6c1.9-2.4,3-5.8,3-10.8l0,0c-0.5-1.7-1.4-3.1-2.6-4.3c-0.4-0.5-0.9-0.9-1.3-1.2c-3.1-2.3-7.6-3.3-11.5-3.4
		C45.5,35.4,48.1,34.2,56.6,38.3z"/>
	<path id="XMLID_73_" class="st2" d="M48.8,44.8c0,0,6,12.9-10.9,4.7c0,0-6.2,0.3-5.6,5.5c0.6,5.2,28.3,15.8,28.1-8.2"/>
	<path id="XMLID_72_" class="st2" d="M45.8,43c0,0-6-12.9,10.9-4.7c0,0,6.2-0.3,5.6-5.5S33.9,16.9,34.1,41"/>
</g>
<g id="XMLID_68_">
	<path id="XMLID_70_" class="st2" d="M111.6,30.1c0,0-19.5-13.4-27.9,10.3s12.1,27.5,11.6,13s4.4-15.6,10.1-13.4
		S119,39.8,111.6,30.1z"/>
	<path id="XMLID_69_" class="st2" d="M95,31.5c0,0-1.3-8.9-9.3-4.2s0.4,12.4,0.4,12.4"/>
</g>
<path id="XMLID_67_" class="st2" d="M151.7,59.1c-14.8-10.4-5.7-25.5-5.7-25.5c1.4-3,16.7-11,21.1-6.3l0,0c4.4,4.7,1.1,8.3-0.8,10.4
	c-1.5,1.7-4.7,1.4-6.1,1.1c-0.4-0.1-0.6-0.1-0.6-0.1c-2.8-0.4-5.3,0.6-4.7,3.9c0,0,0.1,2.6,1.1,4.5l0,0c0,0,0.7,1.8,2.1,2.3
	c0.5,0.2,1.2,0.2,1.9-0.1c0,0,0.1,0,0.1-0.1c0.3-0.2,0.7-0.3,1.2-0.4c3.1-1,8.3-1.2,9.3,3c1.2,4.9,0.1,5.4-0.5,6.4l0,0
	c-0.6,1-2.6,1.7-2.6,1.7l0,0C162.7,62.5,157,62.8,151.7,59.1z"/>
<g id="XMLID_64_">
	<path id="XMLID_66_" class="st2" d="M187.8,30.9c0,0-3.2-2.2-4.6-0.5c-1.4,1.8-3.7,4.7-0.9,10.5s13.3,1,14.3-1.7"/>
	<path id="XMLID_65_" class="st2" d="M199.6,35.9L199.6,35.9c-2-5.2-6.2-9.2-12.7-9.9c-12.9-1.3-18.3,7.1-20.3,12.2
		c0,0-0.5,0.8-0.8,2.3c-0.3,0.9-0.3,1.6-0.3,2c-0.2,2.8,0.3,6.9,2.9,12.4c2.1,4.5,7.6,6.1,11.1,6.7c1,0.2,2.1,0.3,3.3,0.3
		c0.1,0,0.1,0,0.1,0l0,0c1.3,0,2.6-0.2,4-0.5c5.7-1.3,9.6-4.9,11.8-9.4c-0.4-5.2-4.8-5.8-7.5-6.2c-1.4-0.2-2.9,0.7-4.1,1.6
		c-0.1,0.1-0.2,0.2-0.3,0.3c-3.8,2.8-13.9-2.7-8.6-6.9c0,0,1.8-1.9,3.9-2.8l0,0c0,0,1.8-0.9,3.2-0.4c0.6,0.2,1.1,0.6,1.4,1.4
		c0,0,0,0.1,0.1,0.1c0.2,0.3,0.4,0.7,0.6,1.1c1.7,2.8,5.6,6.5,9.2,4c4.2-3,3.7-4.1,3.8-5.3l0,0C200.6,37.8,199.6,35.9,199.6,35.9z"
		/>
</g>
<g id="XMLID_60_">
	<path id="XMLID_63_" class="st2" d="M218.5,38.3c0,0,6.2-0.3,5.6-5.5c-0.5-4.1-18-11.7-25.1-2.7c-1.9,2.4-3,5.8-3,10.8l0,0
		c0.5,1.7,1.4,3.1,2.5,4.3c0.4,0.5,0.9,0.9,1.3,1.2c3.2,2.5,7.7,3.5,11.7,3.6c-0.6,2.2-3.2,3.5-11.8-0.7c0,0-6.2,0.3-5.6,5.5
		c0.5,4.1,18,11.7,25.1,2.6c1.9-2.4,3-5.8,3-10.8l0,0c-0.5-1.7-1.4-3.1-2.6-4.3c-0.4-0.5-0.9-0.9-1.3-1.2c-3.2-2.5-7.7-3.5-11.6-3.6
		C207.3,35.4,210,34.2,218.5,38.3z"/>
	<path id="XMLID_62_" class="st2" d="M210.7,44.8c0,0,6,12.9-10.9,4.7c0,0-6.2,0.3-5.6,5.5c0.7,5.2,28.3,15.9,28.1-8.2"/>
	<path id="XMLID_61_" class="st2" d="M207.7,43c0,0-6-12.9,10.9-4.7c0,0,6.2-0.3,5.6-5.5c-0.7-5.2-28.3-15.9-28.1,8.2"/>
</g>
</svg>
