<?xml version="1.0" encoding="utf-8"?>
<!-- Generator: Adobe Illustrator 22.1.0, SVG Export Plug-In . SVG Version: 6.00 Build 0)  -->
<svg version="1.1" id="Layer_1" xmlns="http://www.w3.org/2000/svg" xmlns:xlink="http://www.w3.org/1999/xlink" x="0px" y="0px"
	 viewBox="0 0 513 385" style="enable-background:new 0 0 513 385;" xml:space="preserve">
<style type="text/css">
	.st0{fill:#FFFAF2;stroke:#584C4F;stroke-miterlimit:10;}
	.st1{fill:#FFD767;stroke:#584C4F;stroke-miterlimit:10;}
	.st2{fill:#A36B78;stroke:#584C4F;stroke-linecap:round;stroke-miterlimit:10;}
	.st3{fill:#A36B78;}
	.st4{fill:#A36B78;stroke:#584C4F;stroke-linecap:round;stroke-linejoin:round;stroke-miterlimit:10;}
	.st5{fill:#584C4F;stroke:#584C4F;stroke-linecap:round;stroke-miterlimit:10;}
</style>
<g id="Layer_5">
</g>
<g id="Layer_3">
</g>
<g>
	<polygon class="st0" points="512,367.9 503.7,372.8 503.2,361.7 	"/>
	<g>
		<path class="st1" d="M442,368c0,6.5,1,9.4,9.6,8.9c0.5,0,0.9-0.1,1.4-0.1c-4.9-0.6-5.6-3.5-5.6-8.8c0-3.5,5.7-4.5,11.9-4.7
			C451.4,363.1,442,363.6,442,368z"/>
		<path class="st1" d="M447.4,368c0,5.3,0.6,8.2,5.6,8.8c4.5-0.3,9.1-0.7,12.4-1.1c1.2,0.2,2.8,0.3,4.8,0.2c0.5,0,0.9-0.1,1.4-0.1
			c6.3-0.4,12.8-1.1,15.6-1.4c8.2-0.5,16.6-1.6,16.6-1.6s4.2-11.3-1.9-11.6c-1.9-0.1-5.2-0.3-8.7-0.4c-5.2-0.1-11.1,0-14.5,1.4
			c-0.2,0-0.5,0-0.7,0c-4.9-0.1-10.3,0-13.8,1.2c-1.4-0.1-3-0.2-4.7-0.2C453.1,363.5,447.4,364.6,447.4,368z"/>
	</g>
	<g>
		<path id="XMLID_810_" class="st2" d="M332.7,209.3c23.2,25.2,48.1,52,62,67.4c30.3,33.6,79.9,78,79.9,78L460.1,367
			c0,0-80.2-85.7-100.4-100.4c-11.6-8.4-41.3-42-66-69.4"/>
		<g id="XMLID_798_">
			<path id="XMLID_809_" class="st3" d="M464.3,382.9c3-1.5,4.9-2.8,6-3.9c5.9,9.2,8.5,2.9,9.4-0.5l1.3-0.4c6.9,2.7,6.7-5.3,6.5-7.8
				l1,1.1c6.6-1.7,2.7-6.3,0.3-8.6c1.1,0.4,3,0.2,6.3-2.6c6.3-5.3-33.6-18.2-33.6-18.2l-11.9,14.4
				C449.6,356.6,449.1,390.4,464.3,382.9z"/>
			<path id="XMLID_808_" class="st2" d="M449.6,356.6c0,0-0.5,33.8,14.7,26.3c3-1.5,4.9-2.8,6-3.9c5.9,9.2,8.5,2.9,9.4-0.5l1.3-0.4
				c6.9,2.7,6.7-5.3,6.5-7.8l1,1.1c6.6-1.7,2.7-6.3,0.3-8.6c1.1,0.4,3,0.2,6.3-2.6c6.3-5.3-33.6-18.2-33.6-18.2"/>
			<g id="XMLID_803_">
				<path id="XMLID_807_" class="st4" d="M461.5,342.2c0,0,39.9,12.9,33.6,18.2c-6.3,5.3-7.4,1.5-7.8,1.4c0,0,10.1,7.6,1.2,9.9"/>
				<path id="XMLID_806_" class="st4" d="M487.5,369.7c0,0,1.8,12.1-6.9,8.3"/>
				<path id="XMLID_805_" class="st4" d="M449.6,356.6c0,0-0.5,33.8,14.7,26.3c15.2-7.4,2.5-10.5-1-7.2"/>
				<path id="XMLID_804_" class="st4" d="M480.1,376.7c0,0-2.3,15.2-10.4,1.3l-4.4-6.7"/>
			</g>
			<path id="XMLID_802_" class="st4" d="M466.4,351.7c0,0-0.1-16-8.6-8.6"/>
			<path id="XMLID_801_" class="st2" d="M470.9,366.1c0,0,2.6,4.2,4.9,5.7"/>
			<path id="XMLID_800_" class="st2" d="M481.4,365.2c0,0,2.3,2.7,2.9,2.3"/>
			<path id="XMLID_799_" class="st4" d="M473.6,353.4c2,1.3,7.4,3,7.4,3"/>
		</g>
		<g id="XMLID_796_">
			<path id="XMLID_797_" class="st2" d="M382,269.6c0.9-8.8,14.6-3.3,8.3,4.7"/>
		</g>
		<path id="XMLID_795_" class="st2" d="M383.9,271.5c0,0-0.1-2,1.4-2.2"/>
		<path id="XMLID_794_" class="st2" d="M389.5,271.3c0,0-0.4,2.4-0.9,2.6"/>
	</g>
	<polygon class="st5" points="509.5,369.4 510.3,368.5 510.1,367.9 510.5,367.6 510.2,366.6 512,367.9 	"/>
</g>
</svg>
