<?xml version="1.0" encoding="utf-8"?>
<!-- Generator: Adobe Illustrator 22.1.0, SVG Export Plug-In . SVG Version: 6.00 Build 0)  -->
<svg version="1.1" id="Layer_1" xmlns="http://www.w3.org/2000/svg" xmlns:xlink="http://www.w3.org/1999/xlink" x="0px" y="0px"
	 viewBox="0 0 464.1 1401.5" style="enable-background:new 0 0 464.1 1401.5;" xml:space="preserve">
<style type="text/css">
	.st0{opacity:0.1;fill:#231F20;stroke:#231F20;stroke-miterlimit:10;enable-background:new    ;}
	.st1{fill:#A36B78;stroke:#584C4F;stroke-width:2;stroke-linecap:round;stroke-miterlimit:10;}
	.st2{fill:#A36B78;stroke:#584C4F;stroke-width:2;stroke-linecap:round;stroke-linejoin:round;stroke-miterlimit:10;}
	.st3{fill:#FFD767;stroke:#584C4F;stroke-width:2;stroke-miterlimit:10;}
	.st4{fill:#A36B78;}
	.st5{fill:none;stroke:#584C4F;stroke-width:2;stroke-linecap:round;stroke-miterlimit:10;}
	.st6{fill:#BEAB72;}
	.st7{fill:#584C4F;stroke:#584C4F;stroke-width:2;stroke-linecap:round;stroke-miterlimit:10;}
	.st8{fill:#FFFFFF;stroke:#584C4F;stroke-width:2;stroke-linecap:round;stroke-miterlimit:10;}
</style>
<g id="Layer_5">
</g>
<g id="Layer_3">
</g>
<g>
	<path class="st0" d="M462.4,1322c-21.4-69.3-60.6-96.9-110.5-108.8c0,0-11.8-1.8-31-3.7c-1.5-59.8-3.3-159.5,0.8-193.6
		c1.8-2.2,2.7-11.6,2.1-32.7v-0.1c0-8.4-0.2-17.8-0.5-28c-0.1-23.6,0.3-49.1,1-73.8c1.1,0.5,2.2,0.9,3.5,1.2l0,0
		c0.6,0.2,1.3,0.3,1.9,0.4c0.1,0,0.3,0.1,0.4,0.1c0.6,0.1,1.2,0.2,1.8,0.4h0.1c0.6,0.1,1.2,0.2,1.7,0.3l0,0c2.9,0.4,5.1,0.5,6.9,0.3
		c-1.6,20.9,8.9,14.7,13.9,10.6l2.2,0.9c6.2,11.2,13.6,2.5,16.8-2.3c0-0.1,0.1-0.1,0.1-0.2c0.1-0.1,0.1-0.2,0.2-0.3
		c0-0.1,0.1-0.1,0.1-0.2c0.1-0.1,0.1-0.2,0.2-0.3c0-0.1,0.1-0.1,0.1-0.2c0-0.1,0.1-0.2,0.1-0.2l0,0l0.3,3l0,0
		c0.4,0.2,0.8,0.4,1.2,0.5c0.1,0,0.2,0.1,0.3,0.1c0.3,0.1,0.6,0.2,0.8,0.3c0.1,0,0.2,0.1,0.3,0.1c0.3,0.1,0.7,0.2,1,0.2l0,0
		c0.3,0.1,0.6,0.1,0.9,0.1c0.1,0,0.2,0,0.2,0c0.2,0,0.4,0,0.6,0c0.1,0,0.1,0,0.2,0c0.3,0,0.5-0.1,0.7-0.1l0,0
		c0.2-0.1,0.4-0.1,0.6-0.2c0.1,0,0.1-0.1,0.2-0.1c0.2-0.1,0.3-0.2,0.5-0.3l0.1-0.1c0.2-0.1,0.3-0.3,0.5-0.5l0,0
		c0.1-0.2,0.3-0.3,0.4-0.5l0.1-0.1c0.1-0.2,0.2-0.3,0.3-0.5c0,0,0-0.1,0.1-0.1c0.1-0.2,0.2-0.4,0.3-0.7c0,0,0,0,0-0.1
		c0.1-0.2,0.1-0.4,0.2-0.7c0-0.1,0-0.1,0.1-0.2c0.1-0.2,0.1-0.4,0.1-0.6c0-0.1,0-0.1,0-0.2c0-0.3,0.1-0.5,0.1-0.8c0-0.1,0-0.1,0-0.2
		c0-0.2,0-0.5,0.1-0.7c0-0.1,0-0.2,0-0.3c0-0.2,0-0.4,0-0.6c0-0.1,0-0.2,0-0.3c0-0.3,0-0.5,0-0.8c0-0.1,0-0.2,0-0.3
		c0-0.2,0-0.4,0-0.5s0-0.3,0-0.4c0-0.1,0-0.3,0-0.4c0-0.1,0-0.3,0-0.4c0-0.2,0-0.3,0-0.5s0-0.5-0.1-0.7c0-0.1,0-0.2,0-0.2
		c0-0.2,0-0.4-0.1-0.5v-0.1c-0.1-0.4-0.1-0.8-0.2-1.1c0.5,0.8,1.3,1.6,2.7,2.3l0,0c0.2,0.1,0.4,0.2,0.6,0.2h0.1
		c0.2,0.1,0.4,0.1,0.6,0.2c0.1,0,0.1,0,0.2,0.1c0.2,0.1,0.4,0.1,0.6,0.2c0.1,0,0.2,0,0.3,0.1c0.2,0,0.4,0.1,0.6,0.1
		c0.1,0,0.2,0,0.3,0.1c0.2,0,0.4,0.1,0.6,0.1c0.1,0,0.3,0,0.4,0.1c0.2,0,0.4,0,0.6,0.1c0.2,0,0.3,0,0.5,0s0.4,0,0.6,0s0.3,0,0.5,0
		s0.5,0,0.7,0s0.4,0,0.5,0c0.3,0,0.6,0,0.9,0c0.1,0,0.3,0,0.4,0c11.9-0.2-14.1-45-24.3-61.7c-1.3-2.1-2.3-3.8-3-4.9
		c-0.1-2.8-0.3-6.2-0.5-10c3.3-4.8,5.6-10.8-0.6-13.3c-0.1-2.5-0.2-5-0.3-7.7c2.8-6.3,4.6-12.5,5.4-18.4c0.3,0,0.5,0,0.5,0
		s0.7-13.4,1.2-30c22.7-5.4,17.1-72.6,11.7-112c-0.2-1.5-0.4-2.9-0.6-4.4c-1.7-11.6-3.3-20.3-3.8-23.1c-1.1-5.2-2.5-29.3-4.1-59
		c3.1-40.8-1.4-100.3-7-130.3c-0.2-2.5-0.4-4.6-0.6-6.2c-0.1-0.8-0.2-1.7-0.4-2.5c-1.6-7.2-6.6-12.9-12.7-17.4
		c-8.4-6.2-19-10-26-12.1c-7.9-6.4-20.9-11.6-37.9-14.4l1.9-6.4c0.1-2.3,0-6.2-0.4-10.4c10.4-3.3,18.2-7.5,24.2-13.6
		c1.5-1.5,2.9-3.1,4.2-4.9c0.4-0.5,0.7-1,1.1-1.5c0.7-1,1.4-2.1,2-3.3c0.3-0.6,0.6-1.1,0.9-1.7c1.8-3.5,3.4-7.5,4.9-11.9
		c0.2-0.7,0.5-1.5,0.7-2.3c0.9-3.1,1.7-6.4,2.5-9.9c1-4.4,1.9-9.3,2.7-14.5c0.3-2.1,0.7-4.3,1-6.5c0.3-2.1,0.6-4.2,0.9-6.4
		c0.9,0.6,1.9,1.1,3,1.7c12.4,5.8,25.6-31.1,27.8-66c1.3-20.5-11.5-14.6-22.3-6.2c0.1-0.9,0.2-1.9,0.3-2.8c0,0,0,0,0-0.1
		c0.2-1.9,0.4-3.7,0.6-5.5c0.1-0.6,0.1-1.2,0.1-1.9c0.1-1.2,0.2-2.4,0.3-3.6c0-0.7,0.1-1.4,0.1-2.2c0.1-1,0.1-2.1,0.2-3.1
		c0-0.7,0-1.5,0-2.2c0-1,0.1-1.9,0.1-2.9c0-0.7,0-1.5,0-2.2c0-0.9,0-1.8,0-2.7c0-0.7-0.1-1.5-0.1-2.2c0-0.9-0.1-1.8-0.1-2.6
		c0-0.7-0.1-1.4-0.2-2.1c-0.1-0.8-0.1-1.7-0.2-2.5c-0.1-0.7-0.1-1.4-0.2-2.1c-0.1-0.8-0.2-1.6-0.3-2.4c-0.1-0.7-0.2-1.3-0.3-2
		c-0.1-0.8-0.2-1.6-0.4-2.4c-0.1-0.6-0.2-1.3-0.3-1.9c-0.1-0.8-0.3-1.5-0.4-2.3c-0.1-0.6-0.3-1.2-0.4-1.8c-0.2-0.7-0.3-1.5-0.5-2.2
		c-0.1-0.6-0.3-1.2-0.4-1.7c-0.2-0.7-0.4-1.5-0.6-2.2c-0.2-0.6-0.3-1.1-0.5-1.6c-0.2-0.7-0.4-1.4-0.6-2.1c-0.2-0.5-0.3-1-0.5-1.6
		c-0.2-0.7-0.5-1.4-0.7-2.1c-0.1-0.2-0.1-0.4-0.2-0.6c0.1,0,0.1,0,0.1,0s0,0,0-0.1c0.4,0.2,0.6,0.3,0.6,0.3s2.7-22.3-1-34.2
		c-0.4-4-2.2-9-5.8-15.4c0-0.1-0.1-0.1-0.1-0.1l0,0c-0.8-1.3-1.6-2.7-2.6-4.2C325.3,60,312.3,50.9,299,45c-1.1-5.4-6-10.8-13.1-7.9
		c0,0-1,0.9-2.1,2.2c-55.8-23.4-73.6,10.2-79,39.1c-5.2,0.2-10,0.4-14.4,0.7c-45.2,2.8-34.3,19.3-33.8,19.9c1.2,2.5,5.4,4.9,10,7
		c3.9,2,9.2,4.1,16,5.7c-0.8,1.4-1.5,2.8-2.2,4.3c-7.6-0.1-31,1-18.8,16.7c-14.7,12.7-16.9,27.3-12.3,39.4
		c-2.6,1.5-4.3,5.3-4.5,12.7c-0.9,35,9,72.8,21.9,68.1c2.6-1,4.7-2.2,6.4-3.5c0.3,1.6,0.6,3.2,0.9,4.7c-6.2,1.5-10.8,5.1-3.3,13.1
		c0.9,1,1.9,1.9,2.9,2.6c-4.6,2.9-5.9,7,2.9,12.5c1.4,0.9,2.7,1.6,3.9,2.1c1.9,9.2,6,19.2,12.2,28.5l0,0l0,0c0.9,1.4,1.9,2.8,3,4.2
		l0.1,0.1c1,1.3,2.1,2.7,3.2,4l0.1,0.1c0.6,0.6,1.1,1.3,1.7,1.9l0,0c0.6,0.6,1.2,1.3,1.9,1.9l0,0c0.6,0.6,1.2,1.2,1.8,1.8
		c0.1,0.1,0.1,0.1,0.2,0.2c1.3,1.2,2.6,2.3,3.9,3.4c0.1,0.1,0.2,0.2,0.3,0.2c0.7,0.5,1.3,1.1,2,1.6l0,0c0.7,0.5,1.4,1.1,2.2,1.6
		c0.1,0.1,0.2,0.1,0.3,0.2c0.6,0.4,1.3,0.9,1.9,1.3c0.1,0.1,0.2,0.1,0.3,0.2c0.7,0.5,1.5,1,2.3,1.4c0,0,0,0,0.1,0
		c0.5,0.3,0.9,0.5,1.4,0.8c-1.2,2.2-1.8,5.5,2.2,8.5c0,4.2,0,7.7,0.1,9.6c0,0.8,0,1.5,0.1,2.2l0,0c-1,0.1-1.9,0.2-2.9,0.3
		c-0.2,0-0.3,0-0.5,0.1c-1,0.1-2.1,0.3-3.1,0.4c-0.1,0-0.3,0-0.4,0.1c-1.1,0.2-2.1,0.3-3.2,0.5h-0.1c-1.1,0.2-2.1,0.4-3.2,0.6
		c-0.1,0-0.2,0-0.2,0c-1,0.2-2.1,0.4-3.1,0.7c-0.1,0-0.3,0.1-0.4,0.1c-1,0.2-2,0.5-3,0.7c-0.2,0-0.3,0.1-0.5,0.1
		c-1,0.3-1.9,0.5-2.9,0.8c-0.2,0-0.3,0.1-0.5,0.1c-1,0.3-1.9,0.6-2.9,0.9c-0.1,0-0.3,0.1-0.4,0.1c-1,0.3-1.9,0.7-2.9,1.1
		c-0.1,0-0.1,0.1-0.2,0.1c-1,0.4-1.9,0.8-2.8,1.2c-0.1,0-0.1,0-0.2,0.1c-0.9,0.4-1.8,0.9-2.7,1.3c-0.1,0.1-0.2,0.1-0.3,0.2
		c-0.9,0.4-1.7,0.9-2.5,1.4c-0.1,0.1-0.3,0.2-0.4,0.2c-0.8,0.5-1.6,1-2.4,1.5c-0.1,0.1-0.3,0.2-0.4,0.3c-0.8,0.5-1.6,1.1-2.3,1.7
		c-0.1,0.1-0.2,0.2-0.3,0.3c-0.8,0.6-1.5,1.2-2.3,1.9c-0.1,0.1-0.1,0.1-0.2,0.2c-0.7,0.7-1.4,1.3-2.1,2c-9.8,3.3-17.1,6.8-19.6,10.4
		c-10.5,14.9-23,170.8-1.3,188.9c0.5,12.5,1,24.3,1.5,34.9c-10.2,1.7-9.7,17.6,0.8,17.3c0.1,2.9,0.3,5.7,0.4,8.4
		c0.1,2.3,0.2,4.6,0.3,7c0,0.1-0.1,0.3-0.1,0.4c-0.4,1.5-0.8,2.9-1.2,4c-6.3,16.4-14.2,57.9-5.9,73.3c0.1,0.2,0.2,0.4,0.4,0.6
		c1.3,2.1,2.9,3.7,4.9,4.5c0.3,9.9,0.7,19,1.2,25.2c0.1,2,0.2,4.1,0.5,6.1c0.1,0.7,0.2,1.3,0.3,1.7l0.1,0.1c0,0.1,0,0.2,0.1,0.3
		c-0.5,17.3-1.1,32.7-1.6,44.6c-5.1,4.5-10.2,11.1-0.6,13.5c-0.1,2.3-0.2,4.2-0.3,5.9c-4.3,4.4-5.5,22.6-5.5,22.6
		s-3.7,81.8,3.4,47.1c7.1-34.8,10.6-31.2,7.2,10.5c-3.3,41.7,14.9-42.7,17.5-29.3s11.4,98.6,11.5-8c0,0-8.2-49.5,12.8,28.2
		c21.1,77.7-4.4-48.8-6.1-55.2c-1-3.9,8.6,10.8,14.7,18.9c1.1,31.1,1.9,65.2,1.8,96c-0.3,10.2-0.5,19.7-0.5,28v0.1
		c-0.3,10.1-0.3,17.6,0.1,22.8c-8.3,3.2-7.2,17.2,2.7,16.8c3.1,38.3,1.6,126.6,0.2,183c-75.4,2.7-160.3,18.4-197,70.8
		c-73.1,104.3,149.7,125.2,180,124.4C225.4,1400.2,483.7,1391.3,462.4,1322z M326.8,817.9c3.3-0.8,6.3-1.6,9.1-2.4
		c-0.1,4.4-0.2,7.7-0.3,9.6h-0.1c0,0-4.9,6.6-9.7,15.3C326.1,832.5,326.4,825,326.8,817.9z M185.9,822.7h-0.2
		c-0.1-4.2-0.4-11.3-0.6-20.5c6.1,4.1,13.1,7.8,20.8,10.8c0.6,11.6,1.1,24.3,1.6,37.8C202.1,839.3,197.3,834.1,185.9,822.7z
		 M242.2,1066.8c2.9-54.8,6.7-174.2,11.1-244c2.5,0.1,5.1,0.3,7.7,0.3c6.6,0.1,12.8,0.1,18.5-0.1c3.2,50.5,6.1,126.8,8.5,185.9
		c-6.3,2.6-8.6,13.6,0.7,16.9c0.7,15.7,1.3,29.7,1.9,41c2.3,44.2,1.3,100.1-0.1,140.3c-14.6-0.9-31-1.6-48.4-1.7
		C240.9,1165.3,239.9,1110.3,242.2,1066.8z"/>
	<g>
		<g>
			<g id="XMLID_4075_">
				<path id="XMLID_4076_" class="st1" d="M129.2,617.7c-15.2,4.2-14.9-22,2.4-16.9"/>
			</g>
			<path id="XMLID_4074_" class="st1" d="M118.4,427.2c3.3,69.6,6.1,155.2,8.4,199.6c4.1,80.5-2.3,198.8-2.3,198.8l33.8-2.9
				c0,0-6.9-208.8,0-252.7c4.9-31.4-3.7-147.8-6.5-215.7"/>
			<g id="XMLID_4072_">
				<path id="XMLID_4073_" class="st1" d="M158.3,818.4c13.9,14.5,18,19.2,25.5,38.1s-19.8-26.9-18.2-20.2s27.1,137.3,6.1,57.1
					s-12.8-29.1-12.8-29.1c0,110.1-8.9,22-11.5,8.3s-20.8,73.4-17.5,30.3c3.3-43.1-0.1-46.8-7.2-10.8c-7.1,35.9-3.4-48.6-3.4-48.6
					s1.6-26.5,8.2-24.2"/>
			</g>
			<path id="XMLID_4071_" class="st1" d="M139.3,601.7c0,0,5.6,1.2,6,2.4"/>
			<path id="XMLID_4070_" class="st1" d="M138.5,615c0,0-4.5,0.8-5.5-2.7"/>
			<path id="XMLID_4069_" class="st2" d="M131.7,795.2c0,0-27.2,18.3,0,19.7"/>
		</g>
		<path id="XMLID_4068_" class="st3" d="M166.4,425.1c4.4,8.5-8.2,121.3-7.6,131.1c0.6,9.7-3.2,10.9-30.6,9.9s-14-180.6-2.9-196.9
			c3.9-5.7,19.2-11.3,37.4-16.1"/>
		<g>
			<path class="st1" d="M229.1,1303.8c-1.1-3.5-3.1-7.6-5.2-12.6c-2-4.7-4.1-10.2-5.8-16.9c0.2,0,0.3,0,0.3,0s0-0.1,0-0.2
				c0-1.1-0.1-6-0.3-13.8l-30.5-2.7l-1.7-0.1l-1.7,0.1c-0.2,2.2-0.4,3.8-0.7,4.8c0,0.1-0.1,0.3-0.1,0.4c-0.2,0.2-0.4,0.4-0.5,0.6
				c-0.7,0.8-1.1,1.4-1.1,1.4s-1.3,1.2-3.4,3.2c-3.8,21.5-18.7,34.2-36.4,41.6c0.2,1.8,1,3.5,2.6,5.1c0.5,0.5,1.1,1,1.8,1.5
				c2.3,1.7,6.1,3,10.8,3.9c3.6,0.7,7.7,1.3,12.3,1.6c2.9,0.2,5.9,0.4,9.1,0.6c2.4,0.1,4.9,0.2,7.4,0.3c2.5-0.1,5-0.1,7.4-0.3
				c3.2-0.1,6.2-0.3,9.1-0.6c4.6-0.4,8.7-0.9,12.3-1.6c4.7-1,8.5-2.2,10.8-3.9c0.7-0.5,1.3-1,1.8-1.5c2.1-2.1,2.8-4.3,2.7-6.8
				C229.9,1306.7,229.6,1305.3,229.1,1303.8z"/>
			<path class="st1" d="M175.2,750.2c0,0,7.3,115.6,6.8,204.9c-0.3,10.5-0.5,20.3-0.5,29v0.1c-0.6,21.8,0.3,31.6,2.1,33.8
				c5.9,51.6-0.6,248.4-0.6,248.4l33.8,2.9c0,0-6.4-118.3-2.3-198.8c4.1-80.5,10.1-296,17-307.2"/>
			<g>
				<g id="XMLID_4066_">
					<path id="XMLID_4067_" class="st1" d="M114.6,1313.2c0,0,12.1-1.2,7.7,8.6C118,1331.4,104.5,1319.9,114.6,1313.2z"/>
				</g>
				<g id="XMLID_4064_">
					<path id="XMLID_4065_" class="st1" d="M121.6,1311.8c0,0,13.4-1.3,8.6,9.5C125.3,1332.1,110.3,1319.3,121.6,1311.8z"/>
				</g>
				<g id="XMLID_4062_">
					<path id="XMLID_4063_" class="st1" d="M130.1,1309.5c0,0,15.6-1.5,10,11.1C134.4,1333.2,117,1318.3,130.1,1309.5z"/>
				</g>
				<g id="XMLID_4060_">
					<path id="XMLID_4061_" class="st1" d="M140.9,1307.2c0,0,17.9-1.7,11.4,12.7C145.9,1334.3,125.9,1317.3,140.9,1307.2z"/>
				</g>
				<path id="XMLID_4059_" class="st1" d="M161.9,1325.4c0,0-21.2,1.4-11.4-12.4s27.2,0.3,28.6,6.2
					C180.5,1325.2,161.9,1325.4,161.9,1325.4z"/>
			</g>
			<path id="XMLID_4058_" class="st1" d="M203.4,1000.5c0,0,4.6,0.3,4.6,4"/>
			<path id="XMLID_4057_" class="st1" d="M196.2,1033.8c0,0-5.4-1.7-5.7-3"/>
			<g id="XMLID_4055_">
				<path id="XMLID_4056_" class="st1" d="M188.7,1273.9c-12.2,10-22.4-14.2-4.5-16.4"/>
			</g>
			<g id="XMLID_4053_">
				<path id="XMLID_4054_" class="st1" d="M187.1,1024.6c-15.2,4.2-14.9-22,2.4-16.9"/>
			</g>
		</g>
		<path class="st1" d="M345.7,672.5l-222.1-8.3c0,0,1.1,58.9,2.6,81.3c0.1,2.1,0.2,4.2,0.5,6.3c0.1,0.7,0.2,1.4,0.3,1.7l0.1,0.1
			c6.2,34.1,45,64.1,106.4,65.1c100.2,1.6,102.9-28.9,102.9-28.9c4.9-9.1,7.7-17.8,8.8-26.1c0.3,0,0.5,0,0.5,0
			S349.4,690.3,345.7,672.5z"/>
		<g>
			<path class="st3" d="M358.6,617.1c-0.2-1.5-0.4-3-0.6-4.5c-1.7-12-3.3-20.9-3.8-23.8c-2.9-14.6-8.8-175.6-11.7-202
				c-0.1-0.9-0.2-1.7-0.4-2.6c-1.6-7.4-6.6-13.4-12.7-18c-8.4-6.4-19-10.4-26-12.5c-13.4-11.2-40.9-18.7-78.5-17.1
				c-35.5,1.5-90.4,2.1-93.1,55.7c-0.3,6.1-0.4,13-0.1,20.8c2.8,72.5,2.9,190-4.7,221.3c-0.4,1.6-0.8,3-1.2,4.1
				c-6.3,16.9-14.2,59.8-5.9,75.7c0.1,0.2,0.2,0.4,0.4,0.6c3.2,5.6,8.7,7.4,17.3,2.7c0,0,10.8-2.6,18.8-2.5l154.3,8.1
				c6.5,0.9,12.2,2,16.9,3.1C372.1,759.3,365.2,666.9,358.6,617.1z"/>
			<path class="st3" d="M131.5,408c0,1.7,0.1,3.4,0.2,5.2c2.8,72.5,2.9,190-4.7,221.3c-0.4,1.6-0.8,3-1.2,4.1
				c-6.3,16.9-14.2,59.8-5.9,75.7c0.1,0.2,0.2,0.4,0.4,0.6c3.2,5.6,8.7,7.4,17.3,2.7"/>
			<path class="st3" d="M156.3,715.1l154.3,8.1c6.5,0.9,12.2,2,16.9,3.1c44.6,33,37.7-59.4,31.1-109.1c-0.2-1.5-0.4-3-0.6-4.5
				c-1.7-12-3.3-20.9-3.8-23.8c-2.9-14.6-8.8-175.6-11.7-202c-0.1-0.9-0.2-1.7-0.4-2.6c-1.6-7.4-6.6-13.4-12.7-18
				c-8.4-6.4-19-10.4-26-12.5c-13.4-11.2-40.9-18.7-78.5-17.1c-32.7,1.4-81.6,2-91.5,43.7"/>
		</g>
		<path id="XMLID_4052_" class="st1" d="M348.4,501.8c0,0-17.4,187.1-10.2,214.6"/>
		<g>
			<path id="XMLID_4051_" class="st4" d="M267.2,332.1c0.4-6.9-1.9-26.7-2.3-33.2c-0.4-5.9-1.2-10.9-2.5-15.1
				c22.8-38.9-40.2-83.6-62.6-33.6c-7,15.6-6.1,45.8-6,51c0.2,6.7,0.3,29.2,0.3,35c0.1,32.6,48.5,58.5,67.5,16"/>
			<path id="XMLID_4050_" class="st5" d="M251,367.3c-22.2,19.3-56.8-3.5-56.9-31c0-5.8-0.2-28.3-0.3-35c-0.1-5.2-1-35.4,6-51
				c22.5-50,85.4-5.3,62.6,33.6c1.3,4.2,2.1,9.2,2.5,15.1c0.4,6.4,2.8,26.2,2.3,33.2l-5.6,20.1c-1,2.3-2.1,4.4-3.3,6.2"/>
		</g>
		<g>
			<path class="st1" d="M302.5,750.2c0,0-7.3,115.6-6.8,204.9c0.3,10.5,0.5,20.3,0.5,29v0.1c0.6,21.8-0.3,31.6-2.1,33.8
				c-5.9,51.6,0.6,248.4,0.6,248.4l-33.8,2.9c0,0,6.4-118.3,2.3-198.8s-10.1-296-17-307.2"/>
			<path id="XMLID_4049_" class="st1" d="M284.4,1004.4c0,0-2.5-3.9-5.7-2.1"/>
			<path id="XMLID_4048_" class="st1" d="M270.8,1034.7c0,0,5.4-1.7,5.7-3"/>
			<g id="XMLID_4046_">
				<path id="XMLID_4047_" class="st1" d="M289.1,1259.9c12.2-10,22.4,14.2,4.5,16.4"/>
			</g>
			<g id="XMLID_4044_">
				<path id="XMLID_4045_" class="st1" d="M269.3,1012.6c-12.2-10-22.4,14.2-4.5,16.4"/>
			</g>
			<g>
				<path class="st1" d="M305.6,1309.6c-1.1-3.5-3.1-7.6-5.2-12.6c-2-4.7-4.1-10.2-5.8-16.9c0.2,0,0.3,0,0.3,0s0-0.1,0-0.2
					c0-1.1-0.1-6-0.3-13.8l-30.5-2.7l-1.7-0.1l-1.7,0.1c-0.2,2.2-0.4,3.8-0.7,4.8c0,0.1-0.1,0.3-0.1,0.4c-0.2,0.2-0.4,0.4-0.5,0.6
					c-0.7,0.8-1.1,1.4-1.1,1.4s-1.3,1.2-3.4,3.2c-3.8,21.5-18.7,34.2-36.4,41.6c0.2,1.8,1,3.5,2.6,5.1c0.5,0.5,1.1,1,1.8,1.5
					c2.3,1.7,6.1,3,10.8,3.9c3.6,0.7,7.7,1.3,12.3,1.6c2.9,0.2,5.9,0.4,9.1,0.6c2.4,0.1,4.9,0.2,7.4,0.3c2.5-0.1,5-0.1,7.4-0.3
					c3.2-0.1,6.2-0.3,9.1-0.6c4.6-0.4,8.7-0.9,12.3-1.6c4.7-1,8.5-2.2,10.8-3.9c0.7-0.5,1.3-1,1.8-1.5c2.1-2.1,2.8-4.3,2.7-6.8
					C306.4,1312.4,306.1,1311.1,305.6,1309.6z"/>
				<g>
					<g id="XMLID_4042_">
						<path id="XMLID_4043_" class="st1" d="M191.1,1318.9c0,0,12.1-1.2,7.7,8.6C194.5,1337.2,181,1325.7,191.1,1318.9z"/>
					</g>
					<g id="XMLID_4040_">
						<path id="XMLID_4041_" class="st1" d="M198.1,1317.6c0,0,13.4-1.3,8.6,9.5C201.8,1337.9,186.8,1325.1,198.1,1317.6z"/>
					</g>
					<g id="XMLID_4038_">
						<path id="XMLID_4039_" class="st1" d="M206.6,1315.3c0,0,15.6-1.5,10,11.1C210.9,1339,193.5,1324.1,206.6,1315.3z"/>
					</g>
					<g id="XMLID_4036_">
						<path id="XMLID_4037_" class="st1" d="M217.4,1313c0,0,17.9-1.7,11.4,12.7C222.4,1340.1,202.4,1323,217.4,1313z"/>
					</g>
					<path id="XMLID_4035_" class="st1" d="M238.4,1331.2c0,0-21.2,1.4-11.4-12.4s27.2,0.3,28.6,6.2
						C257,1330.9,238.4,1331.2,238.4,1331.2z"/>
				</g>
			</g>
		</g>
		<g>
			<g id="XMLID_4033_">
				<path id="XMLID_4034_" class="st1" d="M332.2,601.8c12.2-10,22.4,14.2,4.5,16.4"/>
			</g>
			<path id="XMLID_4032_" class="st1" d="M346.2,463.9c-2.6,60.9-4.9,126.1-6.7,162.9c-4.1,80.5,2.3,198.8,2.3,198.8l-33.8-2.9
				c0,0,6.9-208.8,0-252.7c-4-25.2,0.8-104.9,4.3-170.5"/>
			<path id="XMLID_4031_" class="st1" d="M326.1,602.3c0,0,4.6,0.3,4.6,4"/>
			<path id="XMLID_4030_" class="st1" d="M324.7,615.2c0,0-5.4-1.7-5.7-3"/>
			<g id="XMLID_4017_">
				<path id="XMLID_4029_" class="st4" d="M300.3,880.2c5.8,1.5,9.9,1.8,12.7,1.5c-1.6,21.6,8.9,15.2,13.9,10.9l2.2,1
					c6.9,12.7,15.3,0.3,17.7-3.9l0.3,3.1c11.2,5.7,10.6-6.4,9.6-13c1.1,2,4,3.9,11.8,3.8c14.6-0.3-28.1-70.2-28.1-70.2l-32.5,7.5
					C307.9,820.9,270.7,872.7,300.3,880.2z"/>
				<path id="XMLID_4028_" class="st1" d="M307.9,820.9c0,0-37.2,51.8-7.6,59.3c5.8,1.5,9.9,1.8,12.7,1.5
					c-1.6,21.6,8.9,15.2,13.9,10.9l2.2,1c6.9,12.7,15.3,0.3,17.7-3.9l0.3,3.1c11.2,5.7,10.6-6.4,9.6-13c1.1,2,4,3.9,11.8,3.8
					c14.6-0.3-28.1-70.2-28.1-70.2"/>
				<g id="XMLID_4021_">
					<g id="XMLID_4023_">
						<path id="XMLID_4027_" class="st2" d="M340.4,813.4c0,0,42.8,69.9,28.1,70.2c-14.6,0.3-12.1-7-12.5-7.6c0,0,6.1,24.5-8.9,16.8
							"/>
						<path id="XMLID_4026_" class="st2" d="M347.4,888.5c0,0-10.5,20.9-18.8,4.3"/>
						<path id="XMLID_4025_" class="st2" d="M307.9,820.9c0,0-37.2,51.8-7.6,59.3s14.9-13.2,6.4-12.4"/>
						<path id="XMLID_4024_" class="st2" d="M329.5,890.2c0,0-19.6,20.8-16.3-10.9l1-15.9"/>
					</g>
					<path id="XMLID_4022_" class="st2" d="M335.1,811.4c0,0,20-20.3,0-21.8"/>
				</g>
				<path id="XMLID_4020_" class="st1" d="M327.8,862.2c0,0-0.9,9.7,0.8,15"/>
				<path id="XMLID_4019_" class="st1" d="M343.6,873.9c0,0,0.3,7,1.7,7.1"/>
				<path id="XMLID_4018_" class="st2" d="M345.3,845.8c1.4,4.5,7.2,13.9,7.2,13.9"/>
			</g>
		</g>
		<path id="XMLID_4016_" class="st3" d="M296.8,431c-4.4,8.5,8.2,121.3,7.6,131.1c-0.6,9.7,3.2,10.9,30.6,9.9
			c27.4-1.1,14-180.6,2.9-196.9c-3.9-5.7-19.2-11.3-37.4-16.1"/>
		<g>
			<path class="st6" d="M286.1,404.3c0,0-27.4-10.2-29.3-0.7c-1.8,9.5-10.7,40.1,5.6,42.2c16.2,2.1,23.6,1.5,24.2-12.3
				S286.1,404.3,286.1,404.3z"/>
			<g>
				<path id="XMLID_4015_" class="st1" d="M285,405c0,0,3.5,2.8,1.6,5.8"/>
				<path id="XMLID_4014_" class="st1" d="M260.1,403.7c0,0-5,2.4-6.5,4.7"/>
				<path id="XMLID_4013_" class="st1" d="M285.8,427.1c0,0,1.5-5.3,0.6-8"/>
				<path id="XMLID_4012_" class="st1" d="M258.7,444.1c0,0,5.1,2.1,7.9,1.5"/>
				<path id="XMLID_4011_" class="st1" d="M282.6,440c0,0-1.9,4.1-5.3,2.8"/>
				<path id="XMLID_4010_" class="st1" d="M254.6,418.3c0,0-0.9,3.7-1.9,4.9"/>
				<line id="XMLID_4009_" class="st5" x1="274.2" y1="402.6" x2="268.8" y2="402.4"/>
				<path id="XMLID_4008_" class="st1" d="M252.8,432.5c0,0-1.2,5.4-0.2,8"/>
			</g>
			<g>
				<path id="XMLID_4007_" class="st1" d="M192.5,781c0,0-3.3-5.8-0.8-9.2"/>
				<path id="XMLID_4006_" class="st1" d="M200.2,756.3c0,0-3.9,3.9-4.5,6.7"/>
				<path id="XMLID_4005_" class="st1" d="M197.9,790.5c0,0,1.6,5.3,3.7,7.1"/>
			</g>
		</g>
		<g id="XMLID_3715_">
			<g id="XMLID_4001_">
				<path id="XMLID_4004_" class="st1" d="M153.3,169.7c0,0-35-46.4-35.9-10.2s9,75.2,21.9,70.3s13.1-15.7,13.1-15.7"/>
				<path id="XMLID_4003_" class="st1" d="M141.8,172.1c0,0-13.7-21.2-17.1-11.2"/>
				<path id="XMLID_4002_" class="st1" d="M147,186.9c0,0-20.1-5.3-17.2,6.4c2.9,11.6,10.1,19.4,13.6,6.5"/>
			</g>
			<path id="XMLID_4000_" class="st7" d="M258.3,6.9c0,0-13.1,11.5,3.2,16.8S272.6,1,258.3,6.9z"/>
			<path id="XMLID_3999_" class="st1" d="M230.6,35c0,0,104.9,7.6,90.3,131.4s-10.8,146.6-70,159.2s-91.6-30.7-98.1-63.7
				S99,51.3,230.6,35z"/>
			<path class="st0" d="M279.8,53.3C293,72.8,301.2,101,296.4,142c-14.7,123.8-10.7,146.6-69.9,159.1c-25.3,5.4-45.7,0.6-61.3-9.3
				c15.4,23.6,43.8,42.7,85.7,33.8c59.2-12.6,55.2-35.3,69.9-159.1C328.3,103.3,304.7,70.4,279.8,53.3z"/>
			<path id="XMLID_3998_" class="st3" d="M314.9,64.6c-0.4-4.1-2.2-9.3-5.8-15.9c0-0.1-0.1-0.1-0.1-0.1l0,0
				c-0.8-1.4-1.6-2.8-2.6-4.3c-11.7-18.4-30.9-29-48.4-34.4c-75.2-33.8-82.8,37.5-83,64.5c0,2.6,33.9-0.3,64.8-8
				C279,82.2,316,99.8,316,99.8S318.6,76.8,314.9,64.6z"/>
			<path id="XMLID_3997_" class="st1" d="M219.7,177.1c0,0,18.7,14,42.9,5.4"/>
			<path id="XMLID_3996_" class="st1" d="M173.9,177.7c0,0-30.2,6.5-36.6,3.7"/>
			<path id="XMLID_3995_" class="st1" d="M194,314.8c0,0-12.4,11.5,13.4,16.6s42.7-1.7,37.6-11.4"/>
			<path id="XMLID_3994_" class="st3" d="M156.4,84.3c0,0,40.1-16.3,87.3-6s71.7,21.3,71.7,21.3c-15.1-52-106.4-52.3-152.5-49.4
				c-46.2,3-33.9,20.6-33.9,20.6S135.9,79.3,156.4,84.3z"/>
			<path id="XMLID_3993_" class="st1" d="M156.4,84.3c0,0-79.6-22.1,30.6-27s128.4,42.3,128.4,42.3S213.5,55.6,156.4,84.3z"/>
			<g>
				<path id="XMLID_3992_" class="st1" d="M213,186.3c0,0-18.9-23.5-18.3-36.6"/>
				<g id="XMLID_3989_">
					<path id="XMLID_3991_" class="st1" d="M180.1,188.9c0.7,6.2,2.7,10.5,6.7,11.3c2.2,0.4,4.2,0.3,5.7-0.1
						c1.3-0.3,2.3-0.8,3.1-1.2"/>
					<path id="XMLID_3990_" class="st1" d="M200.5,114.1c0,0-14.4,38.5-18.5,65.7"/>
				</g>
				<g id="XMLID_3983_">
					<path id="XMLID_3988_" class="st1" d="M173.3,192.1c0,0-13.9,16.2,8.5,20.8"/>
					<path id="XMLID_3987_" class="st1" d="M211.7,192.1c0,0,14.8,12.3-6.1,20.8"/>
					<path id="XMLID_3986_" class="st1" d="M200.7,202.3c2.1,0.6,5.2-3.8,7.6,0s-0.3,2.7-3.4,3.5S198.6,201.6,200.7,202.3z"/>
					<path id="XMLID_3985_" class="st1" d="M179.5,207.8c-4.2-0.2-5.2-3.6-3-5.4c0.8-0.6,3.2,0.5,5.5,1.8
						C183.8,205.3,179.5,207.8,179.5,207.8z"/>
					<path id="XMLID_3984_" class="st1" d="M194.6,183.7c0,0,4.4-0.1,5.4,1.4"/>
				</g>
				<path id="XMLID_3982_" class="st1" d="M165.1,202.1c0,0-12.2,6.1-15.7,7.4"/>
				<path id="XMLID_3981_" class="st1" d="M220.5,198.8c0,0,14.2,6.8,15.6,6.7"/>
			</g>
			<path id="XMLID_3980_" class="st1" d="M281,138c0,0,2,4.2-1.2,6"/>
			<path id="XMLID_3979_" class="st1" d="M269.9,180.1c0,0-0.9,3.7-2,5"/>
			<path id="XMLID_3978_" class="st1" d="M271.1,107c0,0,1.6-7,0-7"/>
			<path id="XMLID_3977_" class="st1" d="M168.9,83.3c0,0,6.6,0.9,5.9,2"/>
			<path id="XMLID_3976_" class="st1" d="M209.4,95.7c0,0,7.7-1.1,8.2-2.6"/>
			<path id="XMLID_3975_" class="st1" d="M171.8,284.3c0,0,5.6,1.2,6,2.4"/>
			<path id="XMLID_3974_" class="st1" d="M218.5,286.7c0,0-5.1,2.4-6.6,4.8"/>
			<path id="XMLID_3973_" class="st1" d="M166.5,163.4"/>
			<path id="XMLID_3972_" class="st1" d="M203.1,167.7"/>
			<line id="XMLID_3971_" class="st5" x1="255.5" y1="208.5" x2="260.9" y2="207.1"/>
			<path id="XMLID_3970_" class="st1" d="M306.1,182.8c0,0,38.9-43.2,36.7-7.1c-2.2,36.1-15.4,74.2-27.8,68.2s-11.7-16.7-11.7-16.7"
				/>
			<path id="XMLID_3969_" class="st1" d="M317.3,186.3c0,0,15.4-20,18-9.7"/>
			<path id="XMLID_3968_" class="st1" d="M310.9,200.5c0,0,20.5-3.5,16.6,7.8s-11.7,18.4-14.1,5.3"/>
			<g>
				<path id="XMLID_3967_" class="st8" d="M141.5,99.9c0,0,71.5-6.9,45.6,50.7S81.5,140,141.5,99.9z"/>
				<path id="XMLID_3966_" class="st7" d="M124.8,134.6c0,0,10.7-4.3,9.5,6.8S117.4,144.2,124.8,134.6z"/>
				<path id="XMLID_3965_" class="st8" d="M221.1,107.9c0,0-52.5,46.2,12.9,67.3S278.2,84.4,221.1,107.9z"/>
				<path id="XMLID_3964_" class="st7" d="M227.5,141.1c0,0,10.7-4.3,9.5,6.8S220.1,150.6,227.5,141.1z"/>
				<path id="XMLID_3963_" class="st7" d="M225.3,98.6c0,0-24.1,2.8-6.9,19.8s50.4,0.6,48.6-5.4S262.1,96.8,225.3,98.6z"/>
				<path id="XMLID_3962_" class="st7" d="M155.1,88.4c0,0-37.2-2.1-20,18.6s47.8-0.5,50.2-9.3S155.1,88.4,155.1,88.4z"/>
				<g id="XMLID_3957_">
					<path id="XMLID_3959_" class="st1" d="M264.8,173.2c0.5,0.1,0.9,0.3,1.4,0.4c1.8,0.5,3.6,0.7,5.5-1.3c4.5-4.9-5.8-6.3-5.8-6.3
						l-11.3-0.8c0,0-24.1-1.6-38.3,2.1c0,0,21,11.2,33.9,10.4c1.5-0.1,2.9-0.3,4.2-0.8C255.3,176.4,262.6,172.6,264.8,173.2z"/>
					<path id="XMLID_3958_" class="st1" d="M149.3,159.2c0,0,14.1-2.7,29.8,2.2c0,0-7.7,16.8-32.8,9.1c-8.2-2.5-9.9,2.1-14.4-2.7
						c-4.5-4.9,5.8-6.3,5.8-6.3L149.3,159.2z"/>
				</g>
			</g>
			<g id="XMLID_3952_">
				<path id="XMLID_3956_" class="st7" d="M166,241.3c0,0-38.4,5-17,18.9C170.4,274.1,166,241.3,166,241.3z"/>
				<path id="XMLID_3955_" class="st7" d="M160.3,230c0,0-31.7-1.7-17.1,14.7c14.7,16.4,40.7-0.4,42.8-7.4S160.3,230,160.3,230z"/>
				<path id="XMLID_3954_" class="st7" d="M223.7,238.1c0,0-15.4-5.2-12.8,14.4s29.4,16.2,31,10.6S246.1,248.1,223.7,238.1z"/>
				<path id="XMLID_3953_" class="st7" d="M210.5,232.9c0,0-45-5.6-0.6,16S261.8,239.7,210.5,232.9z"/>
			</g>
			<g id="XMLID_3716_">
				<path id="XMLID_3951_" class="st1" d="M170.3,260.1c0,0,23.6,23.3,36.6,0"/>
				<path id="XMLID_3718_" class="st1" d="M175.7,256.4c0,0,6.5-6.9,11.3,0"/>
				<path id="XMLID_3717_" class="st1" d="M198.3,256.4c0,0-6.5-6.9-11.3,0"/>
			</g>
		</g>
		<path id="XMLID_3714_" class="st1" d="M256.1,373.1c1.7-0.6,3.4-1.9,4.9-4.4"/>
		<path id="XMLID_3713_" class="st1" d="M192.8,359.2c0,0,0.5,2.3,2,4.3"/>
		<path id="XMLID_3712_" class="st1" d="M206.9,378.2c0.5,0.3,1.1,0.6,1.8,0.8"/>
		<path id="XMLID_3695_" class="st3" d="M153.1,664c0,0,5.5-187.8-3.4-214.8"/>
	</g>
</g>
</svg>
