<?xml version="1.0" encoding="utf-8"?>
<!-- Generator: Adobe Illustrator 22.1.0, SVG Export Plug-In . SVG Version: 6.00 Build 0)  -->
<svg version="1.1" id="Layer_1" xmlns="http://www.w3.org/2000/svg" xmlns:xlink="http://www.w3.org/1999/xlink" x="0px" y="0px"
	 viewBox="0 0 322 181.2" style="enable-background:new 0 0 322 181.2;" xml:space="preserve">
<style type="text/css">
	.st0{fill:#D4AF6B;}
	.st1{fill:none;stroke:#584C4F;stroke-linecap:round;stroke-miterlimit:10;}
	.st2{fill:#FFD767;}
</style>
<g id="Layer_5">
</g>
<g id="Layer_3">
</g>
<path class="st0" d="M259.9,145.9c0,0,1.4-0.3,2,0.4c0.6,0.7,61.2,34,59.4,34.2c-1.8,0.2-315.6-0.6-316.8-0.4s-4.3,0.1-3.3-0.4
	s59.5-33.9,60.3-33.9C62.2,145.7,259.9,145.9,259.9,145.9z"/>
<path class="st0" d="M289.7,160.7c14.8,10.2,30.3,19.6,30.3,19.6H0c0,0,130.3-73.5,140.7-78.9c8.4-4.3,18.1-11.3,19.6-11.3
	c0.6,0,4.6,2.3,8.8,4.8C174.6,98.2,275,150.4,289.7,160.7z"/>
<path class="st1" d="M0.7,0.5c0,0,89.9,50.2,96.3,53.3c6.4,3.1,41.7,23.8,44.1,25.9"/>
<path class="st1" d="M321.5,0.5c0,0-90.1,50.2-96.5,53.3c-6.5,3.1-41.8,23.8-44.2,25.9"/>
<g>
	<path class="st1" d="M161.2,180.2c0,0,0.2-26,0.7-47.8l-0.5-41.8"/>
	<path class="st1" d="M161.2,90.8c0,0,10.5,24.8,20,45.2l20,44.5"/>
	<path class="st1" d="M241.5,180.8c0,0-31.2-34.2-40.5-45s-39.8-45.2-39.8-45.2"/>
	<path class="st1" d="M161.2,90.2c0,0,36.5,27.2,59.8,45.2s60.2,45,60.2,45"/>
	<path class="st1" d="M320.7,180.5c0,0-70.5-40.5-79.2-45.2S161.2,90,161.2,90"/>
	<path class="st1" d="M161.2,90.8c0,0-10.5,24.8-20,45.2l-20,44.5"/>
	<path class="st1" d="M81,180.8c0,0,31.2-34.2,40.5-45s39.8-45.2,39.8-45.2"/>
	<path class="st1" d="M161.2,90.2c0,0-36.5,27.2-59.8,45.2s-60.3,45-60.3,45"/>
	<path class="st1" d="M1.7,180.5c0,0,70.5-40.5,79.2-45.2S161.2,90,161.2,90"/>
</g>
<path class="st0" d="M141.7,101.4c12.4,0.1,28,0.2,39.5,0.2"/>
<path class="st1" d="M40,158c0,0,39.8,0,55-0.5s60.8,1,71.2,0.8s49.8-1.5,85-0.8s29.5,0.5,29.5,0.5"/>
<path class="st1" d="M80,135.5c0,0,27.2,0,31.5-0.2s69.8,0.2,73,0.2s56.8,0,56.8,0"/>
<path class="st1" d="M120.2,113c0,0,17,0,23.2-0.2S202,113,202,113"/>
<g>
	<g>
		
			<rect id="XMLID_16624_" x="62.7" y="34.9" transform="matrix(-1 -2.534918e-11 2.534918e-11 -1 321.8665 180.6149)" class="st2" width="196.5" height="110.9"/>
	</g>
	<g>
		<path class="st1" d="M260.5,146.4c0-0.2,0-0.5,0-0.7c-0.6-6.4-0.7-106.5-0.2-109.2c0.1-0.6,0.2-1.2,0.1-1.8"/>
		<path class="st1" d="M61.7,146.4c0.4,0.1,0.8,0.1,1.2,0.1c5.9-0.5,83.8-1,115.7,0c31.9,1,81.5,0,81.5,0s0.2,0,0.4,0"/>
		<path class="st1" d="M61.8,34.6c0,0.3,0.1,0.5,0.1,0.8c1.1,5.7-0.7,76-0.2,90.8c0.3,9.2-0.7,16.3-0.1,20.2"/>
		<path class="st1" d="M260.4,34.8c-4.1,0-149.7-0.8-198.5,0"/>
	</g>
</g>
</svg>
