<?xml version="1.0" encoding="utf-8"?>
<!-- Generator: Adobe Illustrator 22.1.0, SVG Export Plug-In . SVG Version: 6.00 Build 0)  -->
<svg version="1.1" id="Layer_1" xmlns="http://www.w3.org/2000/svg" xmlns:xlink="http://www.w3.org/1999/xlink" x="0px" y="0px"
	 viewBox="0 0 672.9 216.8" style="enable-background:new 0 0 672.9 216.8;" xml:space="preserve">
<style type="text/css">
	.st0{fill:#EFE4DA;stroke:#5C5B4B;stroke-miterlimit:10;}
	.st1{fill:#FFFAF2;stroke:#5C5B4B;stroke-miterlimit:10;}
</style>
<g id="Layer_5">
</g>
<g id="Layer_3">
</g>
<g>
	<g>
		<g>
			<path class="st0" d="M667,146.5c-1.3-2.3-3.5-4.1-7.2-5c-4.7-1-8.1,0.1-10.5,1.9c-1.2-0.8-2.7-1.6-4.6-1.9
				c-3.2-0.6-5.8-0.4-7.9,0.5c-1.6-1.9-4.7-0.5-6.4,0.2c-0.8,0.4-1.3,3.5-1.3,7.4c-0.8-1.7-1.9-2.8-3.2-3.4c0,0-0.2-0.1-0.5-0.1
				c-0.8-1.7-1.9-2.8-3.2-3.5c0,0-12.4-4.6-16.9,6.2c-0.8-1-1.8-1.9-2.9-2.7c-2.7-3.4-5.6-6.5-12.7-4c-7.8,2.7-6.4,12.6-6.1,13.3
				c0.1,0.5,1.9,6.4,6.2,8.9c2.3,3.4,6.3,6.7,12.5,3c3.2-1.8,4.6-3.4,5.1-4.6c0.6,0.5,1.1,1,1.7,1.2c2.4,4.4,7.8,5.5,8.7,5.3
				c1.3-0.1,10.7-0.8,13.2-5.9c0.2,0.5,0.6,0.8,1,1c0.7,0.4,1.3,0.5,1.8,0.5c0.5,1.6,1.1,2.8,1.8,3.2c3.5,1.8,5.7-2.2,5.7-2.2
				c0.5-1.8,0.7-6.5,0.7-10.9c0.1-0.4,0.4-0.7,0.6-1c0.6-0.5,1.7-0.7,2.9-0.7c-0.4,2.1-0.5,4.2-0.5,5.8c0,1.1,0,2.1,0,2.3
				c0,0.8,0.4,2.8,3.5,3.2h0.1c0,0.2,0,0.4,0,0.5c0,0.8,0.4,2.8,3.5,3.2c4.1,0.5,4.6-0.8,4.6-3.8c0-1.5,0.7-5.3,0.2-9.3
				c0.1-0.5,0.4-0.8,0.6-1.1c0.6-0.5,1.7-0.7,2.9-0.7c-0.4,2.1-0.5,4.2-0.5,5.8c0,1.1,0,2.1,0,2.3c0,0.8,0.4,2.8,3.5,3.2h0.1
				c0,0.2,0,0.4,0,0.5c0,0.8,0.4,2.8,3.5,3.2c4.1,0.5,4.6-0.8,4.6-3.8C671.9,161.9,674.5,150.8,667,146.5z M619.1,155.2
				c-0.2,0.6-1,1.2-2.7,1.7c0.1-0.8,0.7-2.5,2.9-2.5C619.2,154.7,619.1,155.2,619.1,155.2z M593.7,158c0-0.5,0-1,0.1-1.5
				c0.4-3.8,1.6-5.5,2.8-5.6c0.5,0,1.1,0,1.7,0.1c0.4,1,1.1,2.1,2.3,1.7c0.1,0,0.2-0.1,0.4-0.1c0.2,0.2,0.5,0.6,0.6,0.8
				c0,0,0.2,1.3,1,2.2c-1.1-0.7-2.4-1.1-2.9-1c-0.6,0.2-1.1,0.8-1.7,1.6c-0.1,0.2-0.2,0.4-0.5,0.6c-0.1,0.1-0.5,0.5-0.6,0.6
				c-0.8,0.4-1.9,0.7-3.2,0.7C593.7,158.2,593.7,158.1,593.7,158z M603.1,156.4c0.2,0.1,0.6,0.2,1,0.1l0,0c0.1,0.8,0.2,1.6,0.5,2.2
				c-0.2-0.1-0.6-0.1-0.8-0.2C603.9,157.6,603.6,157,603.1,156.4z"/>
		</g>
		<path id="XMLID_194_" class="st0" d="M582.7,166.5c-0.4,0.7-1.2,1.3-3.5,1.8c-2.3,0.5-2.9-3-2.9-3.5c0-0.4,0.4-3.5,3.9-2.8
			C583.6,162.7,582.7,166.5,582.7,166.5z"/>
		<path id="XMLID_193_" class="st1" d="M627.8,155.9c-1.1-8.6-3.2-12-5.7-13.5c0,0-13.6-5.1-17.3,7.8c-3.8,12.9,7.8,15.4,9.3,15.4
			C615.7,165.6,629,164.5,627.8,155.9z M619.1,155.2c-0.4,0.7-1.2,1.3-3.5,1.8c-2.3,0.5-2.9-3-2.9-3.5c0-0.4,0.4-3.5,3.9-2.8
			C620.2,151.4,619.1,155.2,619.1,155.2z"/>
		<g>
			<g id="XMLID_189_">
				<path id="XMLID_192_" class="st1" d="M644.9,159.9"/>
				<path id="XMLID_191_" class="st1" d="M652.9,159.5c0-3.4-0.2-8,1.1-9.1c1.7-1.3,7.4-0.8,6.5,2.7c-0.5,2.1-0.5,4.4-0.5,6.1
					c0,1.1,0,2.1,0,2.3c0,0.8,0.4,2.8,3.5,3.2c4.1,0.5,4.6-0.8,4.6-3.8c0-2.9,3.4-16.7-8.5-19.3c-8.2-1.7-12.7,3-14.5,6.9"/>
				<path id="XMLID_190_" class="st1" d="M653.4,149.9"/>
			</g>
			<g id="XMLID_185_">
				<path id="XMLID_188_" class="st1" d="M629.8,159.9c0.5,2.4,8,0.6,8-0.5c0-3.4-0.2-8,1.1-9.1c1.5-1.1,5.5-1,6.4,1.1
					c0.2,0.5,0.2,1,0.1,1.7c-0.5,2.1-0.5,4.4-0.5,6.1c0,1.1,0,2.1,0,2.3c0,0.8,0.4,2.8,3.5,3.2c4.1,0.5,4.6-0.8,4.6-3.8
					c0-2.9,3.4-16.7-8.5-19.3c-11.9-2.4-15.8,8.2-15.6,10.8C628.9,153.8,629.3,157,629.8,159.9"/>
				<path id="XMLID_187_" class="st1" d="M638.2,149.9"/>
				<path id="XMLID_186_" class="st1" d="M638.2,149.9c0.2,4.7,0,10.3-0.6,12.4c0,0-2.2,4-5.7,2.2c-3.5-1.8-3.8-21.2-1.6-22.1
					s6.3-2.8,7.3,1.7"/>
			</g>
		</g>
		<path id="XMLID_184_" class="st1" d="M599.6,154.8c-0.6,0.2-1.1,0.8-1.7,1.6c-0.1,0.2-0.2,0.4-0.5,0.6c-0.1,0.1-0.5,0.5-0.6,0.6
			c-1.7,0.8-5.1,1.8-6.5-1.7c-0.1-0.2-0.2-1.3-0.2-1.6c0-0.5,0-1,0.1-1.5c0.4-3.8,1.6-5.5,2.8-5.6c1.5-0.2,4.1,0.8,4.8,2.7
			c0,0,0.7,3.4,2.7,2.9s5.5-2.4,2.7-6.1s-5.6-7.5-13.5-4.8c-7.8,2.7-6.4,12.6-6.1,13.3c0.2,0.7,4.4,14.5,14.9,8.4
			C609.1,157.6,600.7,154.5,599.6,154.8z"/>
		<path id="XMLID_24_" class="st1" d="M581,164.8c-0.4,0.7-1.2,1.3-3.5,1.8c-2.3,0.5-2.9-3-2.9-3.5c0-0.4,0.4-3.5,3.9-2.8
			C582,161.1,581,164.8,581,164.8z"/>
	</g>
</g>
</svg>
