<?xml version="1.0" encoding="utf-8"?>
<!-- Generator: Adobe Illustrator 22.1.0, SVG Export Plug-In . SVG Version: 6.00 Build 0)  -->
<svg version="1.1" id="Layer_1" xmlns="http://www.w3.org/2000/svg" xmlns:xlink="http://www.w3.org/1999/xlink" x="0px" y="0px"
	 viewBox="0 0 34.1 73.2" style="enable-background:new 0 0 34.1 73.2;" xml:space="preserve">
<style type="text/css">
	.st0{opacity:0.1;}
	.st1{fill:#092D30;}
	.st2{fill:#FDF5EA;}
	.st3{fill:#FDF5EA;stroke:#5B5B4B;stroke-linecap:round;stroke-miterlimit:10;}
	.st4{fill:#FDF5EA;stroke:#5B5B4B;stroke-linecap:round;stroke-linejoin:round;stroke-miterlimit:10;}
</style>
<g id="Layer_5">
</g>
<g id="Layer_3">
</g>
<g class="st0">
	<path class="st1" d="M21.6,73.2c0.2-6.6,0.3-11.9,0.4-15.4c1.3-0.9,2.5-2.5,3.5-5c0,0,0.8-2.1,0.8-4.3c0.1,0,0.3-0.1,0.4-0.1
		c0.9,0,1.8-0.2,2.5-0.7c0.6-0.2,1-0.3,1-0.3c0.5-0.2,0.3-1-0.1-2.1c-0.1-1.6-0.7-3.9-1.2-5.5c0.1-0.3,0.1-0.7,0-1.2
		c0,0-0.4-2.8-2.2-2.2c-0.4,0.1-0.7,0.2-1.1,0.3c0.4-0.3,0.8-0.8,1.3-1.2c0,0,0,0,0,0c0.6-0.6,0.8-1.2-0.1-2.2
		c-0.1-0.1-0.3-0.2-0.4-0.3c-0.7-1.5-1.8-3.3-2.6-4.7c0.2-0.2,0.4-0.3,0.4-0.3c0.6-0.6-0.6-1.8-1.8-2.9c-0.9-0.9-6.3,2.7-9.6,4.8
		c-0.2-0.1-0.4-0.2-0.6-0.2c0.2-2.2,0-5.4-0.2-7.9c2.7-2.5,7.4-12,8.4-14.2c0.6-0.7,1.2-1.7,0.1-2.4c-1.7-1.1-2.8-3-4.4-0.5
		c-0.3,0.4-0.4,0.8-0.6,1.1c-1.5,1.6-3.6,4.8-5.5,7.5c0.3-1.2,0.5-2.3,0.7-3.1c0.2-0.4,0.5-1.1,0.3-1.6c0,0,0,0,0,0
		c0.1-0.9-1.5-1.1-3.1-1.3c-0.1,0-0.1,0-0.2,0C7.5,7.4,7.1,7.8,6.9,8.6c0,0,0,0,0,0c-0.9,1.6-1.9,4.5-2.8,7c-1.5,0-2.9-0.7-2.9,1.5
		c0,0.1,0,0.1,0,0.2c-0.3,1.7-0.3,4.7-0.3,6.8C0,25.9,0.4,32.9,0,34.1c-0.1,0.4,0.2,0.8,0.6,1.1c-0.2,1.6-0.3,3.5-0.3,5.8
		c0,9.8,1.8,13.9,3.4,15.7c0,0.4,0,0.9,0.1,1.4c-5.3,1.4-2.5,5.1,0.3,7.7c0.1,2.2,0.2,4.7,0.3,7.4 M23,35.5c0,0.2,0.1,0.3,0.2,0.5
		c0,0,0.4,0.9,1,1.2c-0.7,0.3-1.1,0.9-0.4,2.2c0.2,0.3,0.3,0.6,0.5,0.8c0,1,0.1,2.2,0.2,3.4c-1.1,0.1-2.2,0.3-3.2,0.4
		c-2.3-0.1-4.6-0.4-6.6-0.4c0.3-2.4,0.5-5.8,0.2-8.7c1.6-0.9,3.5-2.3,5.2-3.6C21,32.8,22.1,34.3,23,35.5z"/>
	<g>
		<path class="st1" d="M3.8,23.9c0,0,1.2,8.5,0.3,10.6s-4.4,0.9-4-0.4s-0.1-10,1.1-10.3S3.7,23.3,3.8,23.9z"/>
		<path id="XMLID_3178_" class="st1" d="M22.2,53.4c0,0-0.3,7.8-0.6,19.8"/>
		<path id="XMLID_3177_" class="st1" d="M4.5,73.2C4,60.3,3.5,51.8,3.5,51.8"/>
		<path id="XMLID_3142_" class="st1" d="M7.5,68.5c0,0-15-10.1,0-10.9"/>
		<path class="st1" d="M19.2,59c2.1-0.3,4.7-1.7,6.4-6.1c0,0,3.3-8.6-3.3-8.6c-5.3,0-10.7-1.9-12.5,2"/>
		<path class="st1" d="M14.4,46.7c0,0,2.8-17.1-2.8-17.1S0.4,23.9,0.4,41c0,10.7,2.2,14.7,3.9,16.2"/>
		<g>
			<path class="st1" d="M17.8,44.5c1.6,0.2,11.3-2,11.9-0.5c0.6,1.5,1.3,3.1,0.6,3.4c0,0-9.4,3-11.9,2.3"/>
			<g>
				<path class="st1" d="M28.3,37.8c0,0,2.5,7,1.7,9c-0.8,2-5.4,2-5.1,0.8c0.3-1.2-1.5-8.6,0.1-9.1S28.1,37.3,28.3,37.8z"/>
				<path class="st1" d="M29,38.7c0,0-0.4-2.8-2.2-2.2s-4.2,0.5-2.9,3c1.3,2.5,3.2,1.8,3.2,1.8S29.4,41.5,29,38.7z"/>
			</g>
		</g>
		<g>
			<path class="st1" d="M1.1,27.3c-0.4-0.3-0.6-0.6-0.5-1C1,25,0.5,16.3,1.7,16c1.3-0.3,2.5-0.5,2.7,0.1c0,0,1.2,8.5,0.3,10.6
				c-0.2,0.4-0.5,0.7-0.9,0.9"/>
			<path class="st1" d="M4.9,17.9c0,0,0.8-2.2-0.8-2.2s-3-0.7-3,1.5s1.5,2.2,1.5,2.2S4.2,20.1,4.9,17.9z"/>
		</g>
		<path class="st1" d="M4.4,32.8c0.1-1.7-3-11.7-1.5-12.5s3.1-1.6,3.4-0.9c0,0,3.9,9.6,3.4,12.4"/>
		<g>
			<path class="st1" d="M3.1,23c-0.9-0.7-1.4-1.8-0.9-2.5c1-1.6,4.3-13.5,5.9-13.2c1.6,0.2,3.2,0.4,3.1,1.3c0,0-2.5,12-4.4,14.3
				c-0.5,0.6-1.1,0.8-1.7,0.9"/>
			<path class="st1" d="M10.7,10.6c0,0,1.5-2.1-0.2-2.5c-1.6-0.5-3-1.7-3.7,0.6s1,2.8,1,2.8S9.2,12.6,10.7,10.6z"/>
		</g>
		<path class="st1" d="M5.9,31.5c0.6-1.8,0-13.3,1.9-13.7c1.8-0.4,3.7-0.8,3.8,0c0,0,1.5,11.3,0.1,14.1"/>
		<g>
			<path class="st1" d="M24.5,37.3c0,0-5.4-6.5-5.7-8.8c-0.2-2.3,3.6-3.6,4-2.3c0.3,1.4,5.2,8.3,4.2,9.4
				C25.9,36.7,24.9,37.7,24.5,37.3z"/>
			<path class="st1" d="M23.2,36c0,0,1,2.2,2.2,1c1.2-1.2,3-1.9,1.4-3.5c-1.6-1.6-2.8-0.4-2.8-0.4S22.2,33.8,23.2,36z"/>
		</g>
		<path class="st1" d="M10.6,31.2c2.1-0.9,10.7-7.2,11.8-6c1.2,1.2,2.4,2.4,1.8,2.9c0,0-8.5,7.3-11.4,7.8"/>
		<path class="st1" d="M10.4,31.3c0.1,0,0.1,0,0.2-0.1"/>
		<g>
			<path class="st1" d="M6.9,20.6c-0.5-0.9-0.7-1.9,0-2.5c1.7-1.5,8.6-14,10.5-13.2s3.7,1.4,3.4,2.4c0,0-6,12.8-9,14.9
				c-0.7,0.5-1.4,0.6-2,0.5"/>
			<path class="st1" d="M19.8,8.3c0,0,2.5-2,0.8-3.1c-1.7-1.1-2.8-3-4.4-0.5s0,3.6,0,3.6S17.3,10.3,19.8,8.3z"/>
		</g>
	</g>
</g>
<g>
	<path class="st2" d="M24.6,70.2c0.2-6.6,0.3-11.9,0.4-15.4c1.3-0.9,2.5-2.5,3.5-5c0,0,0.8-2.1,0.8-4.3c0.1,0,0.3-0.1,0.4-0.1
		c0.9,0,1.8-0.2,2.5-0.7c0.6-0.2,1-0.3,1-0.3c0.5-0.2,0.3-1-0.1-2.1c-0.1-1.6-0.7-3.9-1.2-5.5c0.1-0.3,0.1-0.7,0-1.2
		c0,0-0.4-2.8-2.2-2.2c-0.4,0.1-0.7,0.2-1.1,0.3c0.4-0.3,0.8-0.8,1.3-1.2c0,0,0,0,0,0c0.6-0.6,0.8-1.2-0.1-2.2
		c-0.1-0.1-0.3-0.2-0.4-0.3c-0.7-1.5-1.8-3.3-2.6-4.7c0.2-0.2,0.4-0.3,0.4-0.3c0.6-0.6-0.6-1.8-1.8-2.9c-0.9-0.9-6.3,2.7-9.6,4.8
		c-0.2-0.1-0.4-0.2-0.6-0.2c0.2-2.2,0-5.4-0.2-7.9c2.7-2.5,7.4-12,8.4-14.2c0.6-0.7,1.2-1.7,0.1-2.4c-1.7-1.1-2.8-3-4.4-0.5
		c-0.3,0.4-0.4,0.8-0.6,1.1c-1.5,1.6-3.6,4.8-5.5,7.5c0.3-1.2,0.5-2.3,0.7-3.1c0.2-0.4,0.5-1.1,0.3-1.6c0,0,0,0,0,0
		c0.1-0.9-1.5-1.1-3.1-1.3c-0.1,0-0.1,0-0.2,0c-0.4,0.1-0.8,0.4-1.1,1.3c0,0,0,0,0,0c-0.9,1.6-1.9,4.5-2.8,7c-1.5,0-2.9-0.7-2.9,1.5
		c0,0.1,0,0.1,0,0.2c-0.3,1.7-0.3,4.7-0.3,6.8C3,22.9,3.4,29.9,3,31.1c-0.1,0.4,0.2,0.8,0.6,1.1c-0.2,1.6-0.3,3.5-0.3,5.8
		c0,9.8,1.8,13.9,3.4,15.7c0,0.4,0,0.9,0.1,1.4c-5.3,1.4-2.5,5.1,0.3,7.7c0.1,2.2,0.2,4.7,0.3,7.4 M26,32.5c0,0.2,0.1,0.3,0.2,0.5
		c0,0,0.4,0.9,1,1.2c-0.7,0.3-1.1,0.9-0.4,2.2c0.2,0.3,0.3,0.6,0.5,0.8c0,1,0.1,2.2,0.2,3.4c-1.1,0.1-2.2,0.3-3.2,0.4
		c-2.3-0.1-4.6-0.4-6.6-0.4c0.3-2.4,0.5-5.8,0.2-8.7c1.6-0.9,3.5-2.3,5.2-3.6C24,29.8,25.1,31.3,26,32.5z"/>
	<g>
		<path class="st3" d="M6.8,20.9c0,0,1.2,8.5,0.3,10.6s-4.4,0.9-4-0.4c0.4-1.3-0.1-10,1.1-10.3S6.7,20.3,6.8,20.9z"/>
		<path id="XMLID_3141_" class="st3" d="M25.2,50.4c0,0-0.3,7.8-0.6,19.8"/>
		<path id="XMLID_3140_" class="st3" d="M7.5,70.2C7,57.3,6.5,48.8,6.5,48.8"/>
		<path id="XMLID_3139_" class="st4" d="M10.5,65.5c0,0-15-10.1,0-10.9"/>
		<path class="st3" d="M22.2,56c2.1-0.3,4.7-1.7,6.4-6.1c0,0,3.3-8.6-3.3-8.6c-5.3,0-10.7-1.9-12.5,2"/>
		<path class="st3" d="M17.4,43.7c0,0,2.8-17.1-2.8-17.1S3.4,20.9,3.4,38c0,10.7,2.2,14.7,3.9,16.2"/>
		<g>
			<path class="st3" d="M20.8,41.5c1.6,0.2,11.3-2,11.9-0.5s1.3,3.1,0.6,3.4c0,0-9.4,3-11.9,2.3"/>
			<g>
				<path class="st3" d="M27.6,40.7c-0.3-2.4-0.5-4.9,0.4-5.3c1.5-0.6,3.1-1.1,3.3-0.7c0,0,2.5,7,1.7,9c-0.8,2-5.4,2-5.1,0.8"/>
				<path class="st3" d="M32,35.7c0,0-0.4-2.8-2.2-2.2s-4.2,0.5-2.9,3c1.3,2.5,3.2,1.8,3.2,1.8S32.4,38.5,32,35.7z"/>
			</g>
		</g>
		<g>
			<path class="st3" d="M4.1,24.3c-0.4-0.3-0.6-0.6-0.5-1C4,22,3.5,13.3,4.7,13c1.3-0.3,2.5-0.5,2.7,0.1c0,0,1.2,8.5,0.3,10.6
				c-0.2,0.4-0.5,0.7-0.9,0.9"/>
			<path class="st3" d="M7.9,14.9c0,0,0.8-2.2-0.8-2.2s-3-0.7-3,1.5s1.5,2.2,1.5,2.2S7.2,17.1,7.9,14.9z"/>
		</g>
		<path class="st3" d="M7.4,29.8c0.1-1.7-3-11.7-1.5-12.5s3.1-1.6,3.4-0.9c0,0,3.9,9.6,3.4,12.4"/>
		<g>
			<path class="st3" d="M6.1,20c-0.9-0.7-1.4-1.8-0.9-2.5c1-1.6,4.3-13.5,5.9-13.2c1.6,0.2,3.2,0.4,3.1,1.3c0,0-2.5,12-4.4,14.3
				c-0.5,0.6-1.1,0.8-1.7,0.9"/>
			<path class="st3" d="M13.7,7.6c0,0,1.5-2.1-0.2-2.5c-1.6-0.5-3-1.7-3.7,0.6s1,2.8,1,2.8S12.2,9.6,13.7,7.6z"/>
		</g>
		<path class="st3" d="M8.9,28.5c0.6-1.8,0-13.3,1.9-13.7c1.8-0.4,3.7-0.8,3.8,0c0,0,1.5,11.3,0.1,14.1"/>
		<g>
			<path class="st3" d="M27.5,34.3c0,0-5.4-6.5-5.7-8.8c-0.2-2.3,3.6-3.6,4-2.3c0.3,1.4,5.2,8.3,4.2,9.4
				C28.9,33.7,27.9,34.7,27.5,34.3z"/>
			<path class="st3" d="M26.2,33c0,0,1,2.2,2.2,1c1.2-1.2,3-1.9,1.4-3.5c-1.6-1.6-2.8-0.4-2.8-0.4S25.2,30.8,26.2,33z"/>
		</g>
		<path class="st3" d="M13.6,28.2c2.1-0.9,10.7-7.2,11.8-6c1.2,1.2,2.4,2.4,1.8,2.9c0,0-8.5,7.3-11.4,7.8"/>
		<path class="st3" d="M13.4,28.3c0.1,0,0.1,0,0.2-0.1"/>
		<g>
			<path class="st3" d="M9.9,17.6c-0.5-0.9-0.7-1.9,0-2.5c1.7-1.5,8.6-14,10.5-13.2s3.7,1.4,3.4,2.4c0,0-6,12.8-9,14.9
				c-0.7,0.5-1.4,0.6-2,0.5"/>
			<path class="st3" d="M22.8,5.3c0,0,2.5-2,0.8-3.1c-1.7-1.1-2.8-3-4.4-0.5s0,3.6,0,3.6S20.3,7.3,22.8,5.3z"/>
		</g>
	</g>
</g>
</svg>
