<?xml version="1.0" encoding="utf-8"?>
<!-- Generator: Adobe Illustrator 22.1.0, SVG Export Plug-In . SVG Version: 6.00 Build 0)  -->
<svg version="1.1" id="Layer_1" xmlns="http://www.w3.org/2000/svg" xmlns:xlink="http://www.w3.org/1999/xlink" x="0px" y="0px"
	 viewBox="0 0 432.1 385" style="enable-background:new 0 0 432.1 385;" xml:space="preserve">
<style type="text/css">
	.st0{fill:#A36B78;stroke:#584C4F;stroke-linecap:round;stroke-miterlimit:10;}
	.st1{fill:#A36B78;stroke:#584C4F;stroke-linecap:round;stroke-linejoin:round;stroke-miterlimit:10;}
	.st2{fill:#FFD767;stroke:#584C4F;stroke-miterlimit:10;}
	.st3{fill:#A36B78;}
	.st4{fill:none;stroke:#584C4F;stroke-linecap:round;stroke-miterlimit:10;}
	.st5{fill:#BEAB72;}
	.st6{fill:#584C4F;stroke:#584C4F;stroke-linecap:round;stroke-miterlimit:10;}
	.st7{opacity:0.1;fill:#231F20;stroke:#231F20;stroke-miterlimit:10;enable-background:new    ;}
	.st8{fill:#FFFFFF;stroke:#584C4F;stroke-linecap:round;stroke-miterlimit:10;}
</style>
<g id="Layer_5">
</g>
<g id="Layer_3">
</g>
<g>
	<g>
		<g>
			<g id="XMLID_1936_">
				<path id="XMLID_1937_" class="st0" d="M224.9,268.1c2.5,0.7,2.4-3.6-0.4-2.7"/>
			</g>
			<path id="XMLID_1935_" class="st0" d="M226.6,237.1c-0.5,11.3-1,25.2-1.4,32.5c-0.7,13.1,0.4,32.3,0.4,32.3l-5.5-0.5
				c0,0,1.1-33.9,0-41.1c-0.8-5.1,0.6-24,1.1-35.1"/>
			<g id="XMLID_1933_">
				<path id="XMLID_1934_" class="st0" d="M220.2,300.7c-2.3,2.4-2.9,3.1-4.1,6.2c-1.2,3.1,3.2-4.4,3-3.3c-0.3,1.1-4.4,22.3-1,9.3
					c3.4-13,2.1-4.7,2.1-4.7c0,17.9,1.4,3.6,1.9,1.3c0.4-2.2,3.4,11.9,2.8,4.9c-0.5-7,0-7.6,1.2-1.8c1.2,5.8,0.6-7.9,0.6-7.9
					s-0.3-4.3-1.3-3.9"/>
			</g>
			<path id="XMLID_1932_" class="st0" d="M223.2,265.5c0,0-0.9,0.2-1,0.4"/>
			<path id="XMLID_1931_" class="st0" d="M223.4,267.6c0,0,0.7,0.1,0.9-0.4"/>
			<path id="XMLID_1930_" class="st1" d="M224.5,296.9c0,0,4.4,3,0,3.2"/>
		</g>
		<path id="XMLID_1929_" class="st2" d="M218.8,236.8c-0.7,1.4,1.3,19.7,1.2,21.3c-0.1,1.6,0.5,1.8,5,1.6c4.5-0.2,2.3-29.4,0.5-32
			c-0.6-0.9-3.1-1.8-6.1-2.6"/>
		<g>
			<path class="st0" d="M208.6,379.6c0.2-0.6,0.5-1.2,0.8-2c0.3-0.8,0.7-1.7,0.9-2.7c0,0,0,0,0,0s0,0,0,0c0-0.2,0-1,0-2.2l5-0.4
				l0.3,0l0.3,0c0,0.4,0.1,0.6,0.1,0.8c0,0,0,0,0,0.1c0,0,0.1,0.1,0.1,0.1c0.1,0.1,0.2,0.2,0.2,0.2s0.2,0.2,0.6,0.5
				c0.6,3.5,3,5.6,5.9,6.8c0,0.3-0.2,0.6-0.4,0.8c-0.1,0.1-0.2,0.2-0.3,0.2c-0.4,0.3-1,0.5-1.8,0.6c-0.6,0.1-1.3,0.2-2,0.3
				c-0.5,0-1,0.1-1.5,0.1c-0.4,0-0.8,0-1.2,0c-0.4,0-0.8,0-1.2,0c-0.5,0-1,0-1.5-0.1c-0.7-0.1-1.4-0.1-2-0.3
				c-0.8-0.2-1.4-0.4-1.8-0.6c-0.1-0.1-0.2-0.2-0.3-0.2c-0.3-0.3-0.5-0.7-0.4-1.1C208.5,380.1,208.6,379.9,208.6,379.6z"/>
			<path class="st0" d="M217.4,289.6c0,0-1.2,18.8-1.1,33.3c0,1.7,0.1,3.3,0.1,4.7v0c0.1,3.5,0,5.1-0.3,5.5
				c-1,8.4,0.1,40.4,0.1,40.4l-5.5,0.5c0,0,1-19.2,0.4-32.3c-0.7-13.1-1.6-48.1-2.8-49.9"/>
			<g>
				<g id="XMLID_1927_">
					<path id="XMLID_1928_" class="st0" d="M227.3,381.2c0,0-2-0.2-1.3,1.4C226.7,384.1,228.9,382.3,227.3,381.2z"/>
				</g>
				<g id="XMLID_1925_">
					<path id="XMLID_1926_" class="st0" d="M226.1,380.9c0,0-2.2-0.2-1.4,1.5C225.5,384.2,228,382.2,226.1,380.9z"/>
				</g>
				<g id="XMLID_1923_">
					<path id="XMLID_1924_" class="st0" d="M224.7,380.6c0,0-2.5-0.2-1.6,1.8C224,384.4,226.9,382,224.7,380.6z"/>
				</g>
				<g id="XMLID_1921_">
					<path id="XMLID_1922_" class="st0" d="M223,380.2c0,0-2.9-0.3-1.9,2.1C222.2,384.6,225.4,381.8,223,380.2z"/>
				</g>
				<path id="XMLID_1920_" class="st0" d="M219.6,383.1c0,0,3.4,0.2,1.9-2c-1.6-2.2-4.4,0-4.7,1
					C216.5,383.1,219.6,383.1,219.6,383.1z"/>
			</g>
			<path id="XMLID_1919_" class="st0" d="M212.8,330.3c0,0-0.7,0-0.7,0.7"/>
			<path id="XMLID_1918_" class="st0" d="M214,335.7c0,0,0.9-0.3,0.9-0.5"/>
			<g id="XMLID_1916_">
				<path id="XMLID_1917_" class="st0" d="M215.2,374.8c2,1.6,3.6-2.3,0.7-2.7"/>
			</g>
			<g id="XMLID_1914_">
				<path id="XMLID_1915_" class="st0" d="M215.5,334.2c2.5,0.7,2.4-3.6-0.4-2.7"/>
			</g>
		</g>
		<path class="st0" d="M189.7,277l36.1-1.3c0,0-0.2,9.6-0.4,13.2c0,0.3,0,0.7-0.1,1c0,0.1,0,0.2,0,0.3l0,0
			c-1,5.5-7.3,10.4-17.3,10.6c-16.3,0.3-16.7-4.7-16.7-4.7c-0.8-1.5-1.3-2.9-1.4-4.2c0,0-0.1,0-0.1,0S189.1,279.9,189.7,277z"/>
		<g>
			<path class="st2" d="M187.6,268c0-0.2,0.1-0.5,0.1-0.7c0.3-2,0.5-3.4,0.6-3.9c0.5-2.4,1.4-28.6,1.9-32.8c0-0.1,0-0.3,0.1-0.4
				c0.3-1.2,1.1-2.2,2.1-2.9c1.4-1,3.1-1.7,4.2-2c2.2-1.8,6.7-3,12.8-2.8c5.8,0.2,14.7,0.3,15.1,9.1c0,1,0.1,2.1,0,3.4
				c-0.5,11.8-0.5,30.9,0.8,36c0.1,0.3,0.1,0.5,0.2,0.7c1,2.7,2.3,9.7,1,12.3c0,0,0,0.1-0.1,0.1c-0.5,0.9-1.4,1.2-2.8,0.4
				c0,0-1.8-0.4-3.1-0.4l-25.1,1.3c-1.1,0.1-2,0.3-2.7,0.5C185.4,291.1,186.5,276.1,187.6,268z"/>
			<path class="st2" d="M224.5,234c0,0.3,0,0.6,0,0.8c-0.5,11.8-0.5,30.9,0.8,36c0.1,0.3,0.1,0.5,0.2,0.7c1,2.7,2.3,9.7,1,12.3
				c0,0,0,0.1-0.1,0.1c-0.5,0.9-1.4,1.2-2.8,0.4"/>
			<path class="st2" d="M220.5,283.9l-25.1,1.3c-1.1,0.1-2,0.3-2.7,0.5c-7.3,5.4-6.1-9.7-5.1-17.7c0-0.2,0.1-0.5,0.1-0.7
				c0.3-2,0.5-3.4,0.6-3.9c0.5-2.4,1.4-28.6,1.9-32.8c0-0.1,0-0.3,0.1-0.4c0.3-1.2,1.1-2.2,2.1-2.9c1.4-1,3.1-1.7,4.2-2
				c2.2-1.8,6.7-3,12.8-2.8c5.3,0.2,13.3,0.3,14.9,7.1"/>
		</g>
		<g>
			<path id="XMLID_1912_" class="st3" d="M202.5,221.6c-0.1-1.1,0.3-4.3,0.4-5.4c0.1-1,0.2-1.8,0.4-2.5c-3.7-6.3,6.5-13.6,10.2-5.5
				c1.1,2.5,1,7.4,1,8.3c0,1.1,0,4.7,0,5.7c0,5.3-7.9,9.5-11,2.6"/>
			<path id="XMLID_1911_" class="st4" d="M205.1,227.4c3.6,3.1,9.2-0.6,9.3-5c0-0.9,0-4.6,0-5.7c0-0.8,0.2-5.8-1-8.3
				c-3.7-8.1-13.9-0.9-10.2,5.5c-0.2,0.7-0.3,1.5-0.4,2.5c-0.1,1-0.5,4.3-0.4,5.4l0.9,3.3c0.2,0.4,0.3,0.7,0.5,1"/>
		</g>
		<g>
			<path class="st0" d="M196.7,289.6c0,0,1.2,18.8,1.1,33.3c0,1.7-0.1,3.3-0.1,4.7v0c-0.1,3.5,0,5.1,0.3,5.5
				c1,8.4-0.1,40.4-0.1,40.4l5.5,0.5c0,0-1-19.2-0.4-32.3c0.7-13.1,1.6-48.1,2.8-49.9"/>
			<path id="XMLID_1910_" class="st0" d="M199.7,331c0,0,0.4-0.6,0.9-0.3"/>
			<path id="XMLID_1909_" class="st0" d="M201.9,335.9c0,0-0.9-0.3-0.9-0.5"/>
			<g id="XMLID_1907_">
				<path id="XMLID_1908_" class="st0" d="M198.9,372.5c-2-1.6-3.6,2.3-0.7,2.7"/>
			</g>
			<g id="XMLID_1905_">
				<path id="XMLID_1906_" class="st0" d="M202.1,332.3c2-1.6,3.6,2.3,0.7,2.7"/>
			</g>
			<g>
				<path class="st0" d="M196.2,380.6c0.2-0.6,0.5-1.2,0.8-2c0.3-0.8,0.7-1.7,0.9-2.7c0,0,0,0,0,0s0,0,0,0c0-0.2,0-1,0-2.2l5-0.4
					l0.3,0l0.3,0c0,0.4,0.1,0.6,0.1,0.8c0,0,0,0,0,0.1c0,0,0.1,0.1,0.1,0.1c0.1,0.1,0.2,0.2,0.2,0.2s0.2,0.2,0.6,0.5
					c0.6,3.5,3,5.6,5.9,6.8c0,0.3-0.2,0.6-0.4,0.8c-0.1,0.1-0.2,0.2-0.3,0.2c-0.4,0.3-1,0.5-1.8,0.6c-0.6,0.1-1.3,0.2-2,0.3
					c-0.5,0-1,0.1-1.5,0.1c-0.4,0-0.8,0-1.2,0c-0.4,0-0.8,0-1.2,0c-0.5,0-1,0-1.5-0.1c-0.7-0.1-1.4-0.1-2-0.3
					c-0.8-0.2-1.4-0.4-1.8-0.6c-0.1-0.1-0.2-0.2-0.3-0.2c-0.3-0.3-0.5-0.7-0.4-1.1C196.1,381,196.1,380.8,196.2,380.6z"/>
				<g>
					<g id="XMLID_1903_">
						<path id="XMLID_1904_" class="st0" d="M214.8,382.1c0,0-2-0.2-1.3,1.4C214.3,385.1,216.5,383.2,214.8,382.1z"/>
					</g>
					<g id="XMLID_1901_">
						<path id="XMLID_1902_" class="st0" d="M213.7,381.9c0,0-2.2-0.2-1.4,1.5C213.1,385.2,215.5,383.1,213.7,381.9z"/>
					</g>
					<g id="XMLID_1899_">
						<path id="XMLID_1900_" class="st0" d="M212.3,381.5c0,0-2.5-0.2-1.6,1.8C211.6,385.4,214.4,382.9,212.3,381.5z"/>
					</g>
					<g id="XMLID_1897_">
						<path id="XMLID_1898_" class="st0" d="M210.5,381.1c0,0-2.9-0.3-1.9,2.1C209.7,385.5,213,382.8,210.5,381.1z"/>
					</g>
					<path id="XMLID_1896_" class="st0" d="M207.1,384.1c0,0,3.4,0.2,1.9-2s-4.4,0-4.7,1C204.1,384,207.1,384.1,207.1,384.1z"/>
				</g>
			</g>
		</g>
		<g>
			<path class="st5" d="M199.4,233.4c0,0,4.5-1.7,4.8-0.1c0.3,1.5,1.7,6.5-0.9,6.9c-2.6,0.3-3.8,0.2-3.9-2
				C199.2,235.9,199.4,233.4,199.4,233.4z"/>
			<g>
				<path id="XMLID_1895_" class="st0" d="M199.6,233.5c0,0-0.6,0.5-0.3,0.9"/>
				<path id="XMLID_1894_" class="st0" d="M203.6,233.3c0,0,0.8,0.4,1.1,0.8"/>
				<path id="XMLID_1893_" class="st0" d="M199.4,237.1c0,0-0.2-0.9-0.1-1.3"/>
				<path id="XMLID_1892_" class="st0" d="M203.8,239.9c0,0-0.8,0.3-1.3,0.2"/>
				<path id="XMLID_1891_" class="st0" d="M199.9,239.2c0,0,0.3,0.7,0.9,0.5"/>
				<path id="XMLID_1890_" class="st0" d="M204.5,235.7c0,0,0.1,0.6,0.3,0.8"/>
				<line id="XMLID_1889_" class="st4" x1="201.3" y1="233.1" x2="202.2" y2="233.1"/>
				<path id="XMLID_1888_" class="st0" d="M204.8,238c0,0,0.2,0.9,0,1.3"/>
			</g>
			<g>
				<path id="XMLID_1887_" class="st0" d="M214.6,294.6c0,0,0.5-0.9,0.1-1.5"/>
				<path id="XMLID_1886_" class="st0" d="M213.3,290.6c0,0,0.6,0.6,0.7,1.1"/>
				<path id="XMLID_1885_" class="st0" d="M213.7,296.2c0,0-0.3,0.9-0.6,1.2"/>
			</g>
		</g>
		<g id="XMLID_1829_">
			<g id="XMLID_1881_">
				<path id="XMLID_1884_" class="st0" d="M221,195.2c0,0,5.7-7.5,5.8-1.7s-1.5,12.2-3.6,11.4c-2.1-0.8-2.1-2.6-2.1-2.6"/>
				<path id="XMLID_1883_" class="st0" d="M222.8,195.6c0,0,2.2-3.4,2.8-1.8"/>
				<path id="XMLID_1882_" class="st0" d="M222,198c0,0,3.3-0.9,2.8,1c-0.5,1.9-1.6,3.2-2.2,1.1"/>
			</g>
			<path id="XMLID_1880_" class="st6" d="M203.9,168.8c0,0,2.1,1.9-0.5,2.7C200.7,172.4,201.6,167.8,203.9,168.8z"/>
			<path id="XMLID_1879_" class="st0" d="M208.4,173.3c0,0-17.1,1.2-14.7,21.4s1.8,23.8,11.4,25.9c9.6,2,14.9-5,16-10.4
				C222.1,204.9,229.8,176,208.4,173.3z"/>
			<path class="st7" d="M200.4,176.3c-2.1,3.2-3.5,7.8-2.7,14.4c2.4,20.1,1.7,23.8,11.4,25.9c4.1,0.9,7.4,0.1,10-1.5
				c-2.5,3.8-7.1,6.9-13.9,5.5c-9.6-2-9-5.7-11.4-25.9C192.5,184.4,196.4,179.1,200.4,176.3z"/>
			<path id="XMLID_1878_" class="st2" d="M194.7,178.2c0.1-0.7,0.4-1.5,0.9-2.6c0,0,0,0,0,0l0,0c0.1-0.2,0.3-0.5,0.4-0.7
				c1.9-3,5-4.7,7.9-5.6c12.2-5.5,13.5,6.1,13.5,10.5c0,0.4-5.5,0-10.5-1.3c-6.4,2.6-12.4,5.4-12.4,5.4S194.1,180.1,194.7,178.2z"/>
			<path id="XMLID_1877_" class="st0" d="M210.2,196.4c0,0-3,2.3-7,0.9"/>
			<path id="XMLID_1876_" class="st0" d="M217.6,196.5c0,0,4.9,1.1,6,0.6"/>
			<path id="XMLID_1875_" class="st0" d="M214.4,218.8c0,0,2,1.9-2.2,2.7c-4.2,0.8-6.9-0.3-6.1-1.9"/>
			<path id="XMLID_1874_" class="st2" d="M220.5,181.4c0,0-6.5-2.7-14.2-1c-7.7,1.7-11.7,3.5-11.7,3.5c2.5-8.5,17.3-8.5,24.8-8
				c7.5,0.5,5.5,3.3,5.5,3.3S223.8,180.5,220.5,181.4z"/>
			<path id="XMLID_1873_" class="st0" d="M220.5,181.4c0,0,12.9-3.6-5-4.4c-17.9-0.8-20.9,6.9-20.9,6.9S211.2,176.7,220.5,181.4z"/>
			<g>
				<path id="XMLID_1872_" class="st0" d="M211.3,197.9c0,0,3.1-3.8,3-6"/>
				<g id="XMLID_1869_">
					<path id="XMLID_1871_" class="st0" d="M216.6,198.4c-0.1,1-0.4,1.7-1.1,1.8c-0.4,0.1-0.7,0-0.9,0c-0.2,0-0.4-0.1-0.5-0.2"/>
					<path id="XMLID_1870_" class="st0" d="M213.3,186.2c0,0,2.3,6.3,3,10.7"/>
				</g>
				<g id="XMLID_1863_">
					<path id="XMLID_1868_" class="st0" d="M217.7,198.9c0,0,2.3,2.6-1.4,3.4"/>
					<path id="XMLID_1867_" class="st0" d="M211.5,198.9c0,0-2.4,2,1,3.4"/>
					<path id="XMLID_1866_" class="st0" d="M213.3,200.5c-0.3,0.1-0.8-0.6-1.2,0s0,0.4,0.6,0.6C213.1,201.2,213.6,200.4,213.3,200.5
						z"/>
					<path id="XMLID_1865_" class="st0" d="M216.7,201.4c0.7,0,0.8-0.6,0.5-0.9c-0.1-0.1-0.5,0.1-0.9,0.3
						C216,201,216.7,201.4,216.7,201.4z"/>
					<path id="XMLID_1864_" class="st0" d="M214.3,197.5c0,0-0.7,0-0.9,0.2"/>
				</g>
				<path id="XMLID_1862_" class="st0" d="M219.1,200.5c0,0,2,1,2.6,1.2"/>
				<path id="XMLID_1861_" class="st0" d="M210,200c0,0-2.3,1.1-2.5,1.1"/>
			</g>
			<path id="XMLID_1860_" class="st0" d="M200.2,190.1c0,0-0.3,0.7,0.2,1"/>
			<path id="XMLID_1859_" class="st0" d="M202,196.9c0,0,0.1,0.6,0.3,0.8"/>
			<path id="XMLID_1858_" class="st0" d="M201.8,185c0,0-0.3-1.1,0-1.1"/>
			<path id="XMLID_1857_" class="st0" d="M218.4,181.2c0,0-1.1,0.1-1,0.3"/>
			<path id="XMLID_1856_" class="st0" d="M211.9,183.2c0,0-1.3-0.2-1.3-0.4"/>
			<path id="XMLID_1855_" class="st0" d="M218,213.9c0,0-0.9,0.2-1,0.4"/>
			<path id="XMLID_1854_" class="st0" d="M210.4,214.3c0,0,0.8,0.4,1.1,0.8"/>
			<path id="XMLID_1853_" class="st0" d="M218.8,194.2"/>
			<path id="XMLID_1852_" class="st0" d="M212.9,194.9"/>
			<line id="XMLID_1851_" class="st4" x1="204.4" y1="201.5" x2="203.5" y2="201.3"/>
			<path id="XMLID_1850_" class="st0" d="M196.1,197.4c0,0-6.3-7-6-1.2c0.4,5.9,2.5,12.1,4.5,11.1s1.9-2.7,1.9-2.7"/>
			<path id="XMLID_1849_" class="st0" d="M194.3,197.9c0,0-2.5-3.3-2.9-1.6"/>
			<path id="XMLID_1848_" class="st0" d="M195.3,200.2c0,0-3.3-0.6-2.7,1.3c0.6,1.8,1.9,3,2.3,0.9"/>
			<g>
				<path id="XMLID_1847_" class="st8" d="M222.9,183.9c0,0-11.6-1.1-7.4,8.2C219.7,201.5,232.6,190.4,222.9,183.9z"/>
				<path id="XMLID_1846_" class="st6" d="M222.4,188.7c0,0-1.7-0.7-1.5,1.1C221,191.6,223.6,190.3,222.4,188.7z"/>
				<path id="XMLID_1845_" class="st8" d="M209.9,185.2c0,0,8.5,7.5-2.1,10.9C197.2,199.6,200.7,181.4,209.9,185.2z"/>
				<path id="XMLID_1844_" class="st6" d="M204,189.8c0,0-1.7-0.7-1.5,1.1C202.7,192.7,205.2,191.3,204,189.8z"/>
				<path id="XMLID_1843_" class="st6" d="M209.3,183.7c0,0,3.9,0.5,1.1,3.2s-8.2,0.1-7.9-0.9C202.8,185,203.3,183.4,209.3,183.7z"
					/>
				<path id="XMLID_1842_" class="st6" d="M220.7,182c0,0,6-0.3,3.3,3c-2.8,3.4-7.8-0.1-8.2-1.5C215.4,182.1,220.7,182,220.7,182z"
					/>
				<g id="XMLID_1839_">
					<path id="XMLID_1841_" class="st0" d="M202.8,195.8c-0.1,0-0.1,0-0.2,0.1c-0.3,0.1-0.6,0.1-0.9-0.2c-0.7-0.8,0.9-1,0.9-1
						l1.8-0.1c0,0,3.9-0.3,6.2,0.3c0,0-3.4,1.8-5.5,1.7c-0.2,0-0.5,0-0.7-0.1C204.4,196.3,203.2,195.7,202.8,195.8z"/>
					<path id="XMLID_1840_" class="st0" d="M221.6,193.5c0,0-2.3-0.4-4.8,0.4c0,0,1.3,2.7,5.3,1.5c1.3-0.4,1.6,0.3,2.3-0.4
						c0.7-0.8-0.9-1-0.9-1L221.6,193.5z"/>
				</g>
			</g>
			<g id="XMLID_1834_">
				<path id="XMLID_1838_" class="st6" d="M218.9,206.9c0,0,6.2,0.8,2.8,3.1C218.2,212.2,218.9,206.9,218.9,206.9z"/>
				<path id="XMLID_1837_" class="st6" d="M219.8,205c0,0,5.2-0.3,2.8,2.4c-2.4,2.7-6.6-0.1-7-1.2C215.3,205.1,219.8,205,219.8,205z
					"/>
				<path id="XMLID_1836_" class="st6" d="M209.5,206.4c0,0,2.5-0.8,2.1,2.3c-0.4,3.2-4.8,2.6-5,1.7
					C206.3,209.5,205.9,208,209.5,206.4z"/>
				<path id="XMLID_1835_" class="st6" d="M211.7,205.5c0,0,7.3-0.9,0.1,2.6S203.3,206.6,211.7,205.5z"/>
			</g>
			<g id="XMLID_1830_">
				<path id="XMLID_1833_" class="st0" d="M218.2,209.9c0,0-3.8,3.8-6,0"/>
				<path id="XMLID_1832_" class="st0" d="M217.3,209.3c0,0-1.1-1.1-1.8,0"/>
				<path id="XMLID_1831_" class="st0" d="M213.7,209.3c0,0,1.1-1.1,1.8,0"/>
			</g>
		</g>
		<path id="XMLID_1828_" class="st0" d="M204.3,228.3c-0.3-0.1-0.6-0.3-0.8-0.7"/>
		<path id="XMLID_1827_" class="st0" d="M214.5,226.1c0,0-0.1,0.4-0.3,0.7"/>
		<path id="XMLID_1826_" class="st0" d="M212.3,229.1c-0.1,0-0.2,0.1-0.3,0.1"/>
		<path id="XMLID_1825_" class="st2" d="M221,275.6c0,0-0.9-30.5,0.6-34.9"/>
		<g>
			<g id="XMLID_1783_">
				<path id="XMLID_1784_" class="st0" d="M197.6,202.3c2,1.6,3.6-2.3,0.7-2.7"/>
			</g>
			<path id="XMLID_1782_" class="st0" d="M199.9,224.7c-0.4-9.9-0.8-20.5-1.1-26.5c-0.7-13.1,0.4-32.3,0.4-32.3l-5.5,0.5
				c0,0,1.1,33.9,0,41.1c-0.7,4.1,0.1,17.1,0.7,27.7"/>
			<path id="XMLID_1781_" class="st0" d="M196.6,202.2c0,0,0.7,0,0.7-0.7"/>
			<path id="XMLID_1780_" class="st0" d="M196.4,200.1c0,0-0.9,0.3-0.9,0.5"/>
			<g id="XMLID_1767_">
				<path id="XMLID_1779_" class="st3" d="M192.4,157c0.9-0.2,1.6-0.3,2.1-0.2c-0.3-3.5,1.4-2.5,2.3-1.8l0.4-0.2
					c1.1-2.1,2.5,0,2.9,0.6l0-0.5c1.8-0.9,1.7,1,1.6,2.1c0.2-0.3,0.7-0.6,1.9-0.6c2.4,0-4.6,11.4-4.6,11.4l-5.3-1.2
					C193.6,166.7,187.6,158.2,192.4,157z"/>
				<path id="XMLID_1778_" class="st0" d="M193.6,166.7c0,0-6-8.4-1.2-9.6c0.9-0.2,1.6-0.3,2.1-0.2c-0.3-3.5,1.4-2.5,2.3-1.8
					l0.4-0.2c1.1-2.1,2.5,0,2.9,0.6l0-0.5c1.8-0.9,1.7,1,1.6,2.1c0.2-0.3,0.7-0.6,1.9-0.6c2.4,0-4.6,11.4-4.6,11.4"/>
				<g id="XMLID_1771_">
					<g id="XMLID_1773_">
						<path id="XMLID_1777_" class="st1" d="M198.9,167.9c0,0,7-11.4,4.6-11.4c-2.4,0-2,1.1-2,1.2c0,0,1-4-1.4-2.7"/>
						<path id="XMLID_1776_" class="st1" d="M200.1,155.7c0,0-1.7-3.4-3.1-0.7"/>
						<path id="XMLID_1775_" class="st1" d="M193.6,166.7c0,0-6-8.4-1.2-9.6c4.8-1.2,2.4,2.1,1,2"/>
						<path id="XMLID_1774_" class="st1" d="M197.2,155.4c0,0-3.2-3.4-2.7,1.8l0.2,2.6"/>
					</g>
					<path id="XMLID_1772_" class="st1" d="M198.1,168.2c0,0,3.3,3.3,0,3.5"/>
				</g>
				<path id="XMLID_1770_" class="st0" d="M196.9,159.9c0,0-0.1-1.6,0.1-2.4"/>
				<path id="XMLID_1769_" class="st0" d="M199.5,158c0,0,0-1.1,0.3-1.2"/>
				<path id="XMLID_1768_" class="st1" d="M199.7,162.6c0.2-0.7,1.2-2.3,1.2-2.3"/>
			</g>
		</g>
		<path id="XMLID_1766_" class="st2" d="M191.8,230c-0.7-1.4,1.3-19.7,1.2-21.3c-0.1-1.6,0.5-1.8,5-1.6c4.5,0.2,2.3,29.4,0.5,32
			c-0.6,0.9-3.1,1.8-6.1,2.6"/>
	</g>
	<g>
		<path class="st0" d="M225.1,161.6c0,0-5.1,0.7-6.4,0.2c-1.2-0.5-0.6-2.7,0.2-2.4c0.8,0.2,6-0.1,6.2,0.7
			C225.3,160.7,225.5,161.5,225.1,161.6z"/>
		<path id="XMLID_1497_" class="st0" d="M216.9,25.6c-1.1,23.1-2,51.4-2.8,66.1c-1.4,26.7,0.8,65.8,0.8,65.8l-11.2-1
			c0,0,2.3-69.2,0-83.7c-1.6-10.4,1.2-49,2.2-71.4"/>
		<path id="XMLID_1496_" class="st0" d="M212.5,147.5c0,0,9,6.1,0,6.5"/>
		<g>
			<path class="st0" d="M223.2,166.4c0,0-0.7-5.1-0.2-6.4c0.5-1.2,2.7-0.6,2.4,0.2c-0.2,0.8,0.1,6-0.7,6.2S223.3,166.8,223.2,166.4z
				"/>
			<path class="st0" d="M223.2,164.6c0,0-0.6,1.8,0.6,1.8c1.2,0,2.4,0.6,2.4-1.2s-1.2-1.8-1.2-1.8S223.8,162.8,223.2,164.6z"/>
		</g>
		<path class="st0" d="M201.9,163.8c0,0,2.3,5.1,5.1,2.3c2.8-2.8,6.8-4.4,3.1-8c-3.7-3.7-6.5-0.9-6.5-0.9S199.6,158.8,201.9,163.8z"
			/>
		<path class="st0" d="M209.2,161.7c0,0,6.1,8.5,8.5,6.1c2.4-2.4,7.2-2.4-0.1-9.6c-7.3-7.3-9.7-4.9-9.7-4.9S203.1,153.2,209.2,161.7
			z"/>
		<path class="st0" d="M227.1,163.1c0,0-5.8,2.3-7.4,2c-1.7-0.3-1.6-3.2-0.6-3.2s7-1.8,7.5-0.9S227.5,162.9,227.1,163.1z"/>
		<g>
			<path class="st0" d="M225.9,169.4c0,0-2.3-5.8-2-7.4s3.2-1.6,3.2-0.6c-0.1,1,1.8,7,0.9,7.5C227,169.4,226.1,169.8,225.9,169.4z"
				/>
			<path class="st0" d="M225,167.5c0,0-0.6,1.8,0.6,1.8c1.2,0,2.4,0.6,2.4-1.2s-1.2-1.8-1.2-1.8S225.6,165.7,225,167.5z"/>
		</g>
		<path class="st0" d="M227.5,166.3c0,0-6.8,0.9-8.5,0.1c-1.7-0.8-0.8-3.8,0.3-3.5c1.1,0.3,8,0,8.2,1.1S228,166.2,227.5,166.3z"/>
		<g>
			<path class="st0" d="M224.3,172.9c0,0-0.9-6.8-0.1-8.5c0.8-1.7,3.8-0.8,3.5,0.3c-0.3,1.1,0,8-1.1,8.2
				C225.5,173.2,224.5,173.4,224.3,172.9z"/>
			<path class="st0" d="M223.9,171.3c0,0-0.6,1.8,0.6,1.8c1.2,0,2.4,0.6,2.4-1.2c0-1.8-1.2-1.8-1.2-1.8S224.5,169.5,223.9,171.3z"/>
		</g>
		<g>
			<path class="st0" d="M220.5,176.1c0,0,0.5-6.7,1.5-8.2s3.5,0,3,1c-0.5,1-1.5,7.7-2.5,7.7S220.5,176.5,220.5,176.1z"/>
			<path class="st0" d="M220.5,174.6c0,0-0.6,1.8,0.6,1.8s2.4,0.6,2.4-1.2s-1.2-1.8-1.2-1.8S221.1,172.8,220.5,174.6z"/>
		</g>
		<path class="st0" d="M224.3,169.9c0,0-6.7-0.5-8.2-1.5s0-3.5,1-3c1,0.5,7.7,1.5,7.7,2.5S224.8,169.9,224.3,169.9z"/>
		<path class="st0" d="M199.1,164.2c0,0,5.6-1.8,7.2-1.4c1.5,0.4,1.4,3.2,0.4,3.1c-1-0.1-6.8,1.2-7.2,0.3S198.7,164.4,199.1,164.2z"
			/>
		<g>
			<path class="st0" d="M200.3,172.2c0,0-1.8-5.6-1.4-7.2c0.4-1.5,3.2-1.4,3.1-0.4c-0.1,1,1.2,6.8,0.3,7.2S200.4,172.6,200.3,172.2z
				"/>
			<path class="st0" d="M200.2,172.1c0,0,0.8,1.7,1.7,0.8c0.8-0.8,2.1-1.3,0.8-2.5c-1.3-1.3-2.1-0.4-2.1-0.4
				S199.3,170.4,200.2,172.1z"/>
		</g>
	</g>
</g>
</svg>
