<?xml version="1.0" encoding="utf-8"?>
<!-- Generator: Adobe Illustrator 22.1.0, SVG Export Plug-In . SVG Version: 6.00 Build 0)  -->
<svg version="1.1" id="Layer_1" xmlns="http://www.w3.org/2000/svg" xmlns:xlink="http://www.w3.org/1999/xlink" x="0px" y="0px"
	 viewBox="0 0 259.2 642.9" style="enable-background:new 0 0 259.2 642.9;" xml:space="preserve">
<style type="text/css">
	.st0{fill:#A36B78;stroke:#584C4F;stroke-width:2;stroke-linecap:round;stroke-miterlimit:10;}
	.st1{fill:#A36B78;stroke:#584C4F;stroke-width:2;stroke-linecap:round;stroke-linejoin:round;stroke-miterlimit:10;}
	.st2{fill:#FFD767;stroke:#584C4F;stroke-width:2;stroke-miterlimit:10;}
	.st3{fill:#A36B78;}
	.st4{fill:none;stroke:#584C4F;stroke-width:2;stroke-linecap:round;stroke-miterlimit:10;}
	.st5{fill:#BEAB72;}
	.st6{fill:#584C4F;stroke:#584C4F;stroke-width:2;stroke-linecap:round;stroke-miterlimit:10;}
	.st7{opacity:0.1;fill:#231F20;stroke:#231F20;stroke-miterlimit:10;enable-background:new    ;}
	.st8{fill:#FFFFFF;stroke:#584C4F;stroke-width:2;stroke-linecap:round;stroke-miterlimit:10;}
</style>
<g id="Layer_5">
</g>
<g id="Layer_3">
</g>
<g>
	<g>
		<path class="st0" d="M166.2,628.3c-0.1,1.2,0.2,2.4,1.3,3.4c0.2,0.3,0.6,0.6,0.9,0.8c1.2,0.9,3.1,1.5,5.4,2
			c1.9,0.3,3.9,0.6,6.2,0.8c1.5,0.1,3,0.3,4.6,0.3c1.2,0.2,2.5,0.2,3.7,0.2c1.3-0.1,2.5-0.2,3.7-0.2c1.7-0.1,3.2-0.2,4.6-0.3
			c2.4-0.1,4.4-0.5,6.2-0.8c2.3-0.5,4.2-1.2,5.4-2c0.3-0.3,0.7-0.6,0.9-0.8c0.8-0.7,1.2-1.6,1.3-2.5c-8.9-3.7-16.3-10-18.2-20.8
			c-1-1-1.7-1.6-1.7-1.6s-0.3-0.3-0.6-0.7c0-0.1-0.1-0.2-0.2-0.3l-0.1-0.2c-0.1-0.5-0.2-1.3-0.3-2.4h-0.8h-0.8l-15.2,1.3
			c-0.1,3.9-0.2,6.4-0.2,6.9c0,0.1,0,0.1,0,0.1s0.1,0,0.2,0c-0.8,3.4-1.9,6.2-2.9,8.5c-1,2.5-2,4.5-2.6,6.3
			C166.8,627.1,166.6,627.8,166.2,628.3z"/>
		<path class="st0" d="M173.2,609l16.9-1.5c0,0-1.4-43.3-1.5-80c0-14.5,0.2-28,0.7-37.4c-0.2-0.4-0.3-0.8-0.4-1.2
			c0.4-1.3-1.1-6-5.5-16l0,0c-1.7-4-3.7-8.5-5.8-13.3c-2-4.6-3.9-9.5-5.9-14.4c-15.5-38.4-30.2-81.5-30.2-81.5L118,380.5
			c4.4,3.2,35.4,71.2,55.7,115.2c0.2,5.3,0.4,10,0.6,14C176.4,549.9,173.2,609.1,173.2,609z"/>
		<g>
			<g id="XMLID_11522_">
				<path id="XMLID_11529_" class="st0" d="M220.5,635.3c-2.2-4.9,3.8-4.3,3.8-4.3C229.3,634.4,222.6,640.1,220.5,635.3z"/>
			</g>
			<g id="XMLID_11520_">
				<path id="XMLID_11521_" class="st0" d="M216.5,635.1c-2.4-5.5,4.3-4.8,4.3-4.8C226.4,634.1,218.9,640.5,216.5,635.1z"/>
			</g>
			<g id="XMLID_11518_">
				<path id="XMLID_11519_" class="st0" d="M211.5,634.7c-2.8-6.3,5-5.5,5-5.5C223.1,633.6,214.4,641,211.5,634.7z"/>
			</g>
			<g id="XMLID_11516_">
				<path id="XMLID_11517_" class="st0" d="M205.4,634.3c-3.2-7.1,5.7-6.3,5.7-6.3C218.6,633.1,208.6,641.6,205.4,634.3z"/>
			</g>
			<path id="XMLID_11515_" class="st0" d="M192,634c0.7-2.9,9.4-10,14.3-3.1s-5.7,6.2-5.7,6.2S191.3,637,192,634z"/>
		</g>
		<path id="XMLID_11514_" class="st0" d="M177.6,476.7c0-1.9,2.3-2,2.3-2"/>
		<path id="XMLID_11513_" class="st0" d="M186.3,489.8c-0.1,0.7-2.8,1.5-2.8,1.5"/>
		<g id="XMLID_11511_">
			<path id="XMLID_11512_" class="st0" d="M189.4,603.2c9,1.1,3.9,13.2-2.2,8.2"/>
		</g>
		<g id="XMLID_11507_">
			<path id="XMLID_11508_" class="st0" d="M186.8,478.2c8.6-2.5,8.8,10.6,1.2,8.5"/>
		</g>
	</g>
	<g>
		<g>
			<g id="XMLID_11630_">
				<path id="XMLID_11631_" class="st0" d="M153.1,300.9c8.6-2.5,8.8,10.6,1.2,8.5"/>
			</g>
			<path id="XMLID_11629_" class="st0" d="M143,177.6c-1.4,33.9-5.6,92.1-3.2,107.8c3.4,22,0,126.4,0,126.4l16.9,1.5
				c0,0-3.3-59.2-1.2-99.4c1.2-22.2,2.5-65,4.2-99.8"/>
			<g id="XMLID_11627_">
				<path id="XMLID_11628_" class="st0" d="M155.1,410c3.3-1.1,4.1,12.1,4.1,12.1s1.8,42.3-1.7,24.3s-5.3-16.1-3.6,5.4
					c1.6,21.6-7.4-22-8.8-15.1c-1.4,6.9-5.8,50.9-5.8-4.1c0,0,4.1-25.6-6.4,14.5s2.3-25.1,3.1-28.5s-12.9,19.5-9.1,10.1
					s5.9-11.8,12.8-19"/>
			</g>
			<path id="XMLID_11626_" class="st0" d="M146.2,302.6c0.2-0.6,3-1.2,3-1.2"/>
			<path id="XMLID_11625_" class="st0" d="M152.4,306.6c-0.6,1.8-2.8,1.4-2.8,1.4"/>
			<path id="XMLID_11624_" class="st1" d="M153,408c13.6-0.8,0-9.9,0-9.9"/>
		</g>
		<path id="XMLID_11623_" class="st2" d="M137.5,177.1c9.1,2.5,16.8,5.2,18.7,8.1c5.6,8.1,12.3,97.9-1.4,98.4
			c-13.7,0.5-15.6-0.1-15.3-5s-6-61.3-3.8-65.5"/>
		<path class="st0" d="M46.2,382.3c0,0,0.1,0,0.2,0c0.5,4.1,2,8.5,4.4,13c0,0,1.3,15.3,51.4,14.5c30.7-0.5,50.1-15.5,53.2-32.5l0,0
			c0.1-0.2,0.2-0.5,0.2-0.9c0.1-1,0.2-2.1,0.2-3.1c0.7-11.1,1.3-40.6,1.3-40.6L46,336.8C44.2,345.7,46.2,382.3,46.2,382.3z"/>
		<g>
			<path class="st2" d="M55.1,363.7c2.3-0.5,5.2-1,8.4-1.5l77.2-4c4-0.1,9.4,1.2,9.4,1.2c4.4,2.3,7.1,1.4,8.7-1.4
				c0.1-0.1,0.2-0.2,0.2-0.3c4.2-8,0.3-29.4-2.9-37.9c-0.2-0.5-0.4-1.2-0.6-2c-3.7-15.6-3.7-74.4-2.3-110.6
				c0.1-3.9,0.1-7.3-0.1-10.4c-1.4-26.8-28.8-27.1-46.6-27.9c-18.8-0.8-32.5,3-39.2,8.6c-3.5,1-8.8,3-13,6.2c-3.1,2.3-5.6,5.3-6.4,9
				c-0.1,0.4-0.1,0.9-0.2,1.3c-1.5,13.2-4.5,93.7-5.9,101c-0.3,1.4-1,5.9-1.9,11.9c-0.1,0.7-0.2,1.4-0.3,2.2
				C36.3,334,32.8,380.2,55.1,363.7z"/>
			<path class="st2" d="M149.9,359.3c4.4,2.3,7.1,1.4,8.7-1.4c0.1-0.1,0.2-0.2,0.2-0.3c4.2-8,0.3-29.4-2.9-37.9
				c-0.2-0.5-0.4-1.2-0.6-2c-3.7-15.6-3.7-74.4-2.3-110.6c0-0.9,0.1-1.7,0.1-2.6"/>
			<path class="st2" d="M152.2,190.8c-5-20.9-29.4-21.2-45.8-21.9c-18.8-0.8-32.5,3-39.2,8.6c-3.5,1-8.8,3-13,6.2
				c-3.1,2.3-5.6,5.3-6.4,9c-0.1,0.4-0.1,0.9-0.2,1.3c-1.5,13.2-4.5,93.7-5.9,101c-0.3,1.4-1,5.9-1.9,11.9c-0.1,0.7-0.2,1.4-0.3,2.2
				c-3.3,24.8-6.7,71,15.6,54.5c2.3-0.5,5.2-1,8.4-1.5l77.2-4"/>
		</g>
		<path id="XMLID_11622_" class="st0" d="M49.8,358.7c3.6-13.7-5.1-107.3-5.1-107.3"/>
		<g>
			<path id="XMLID_11621_" class="st3" d="M88,176.6c9.6,21.2,33.7,8.3,33.8-8c0-2.9,0-14.1,0.1-17.5c0.1-2.6,0.5-17.7-3-25.5
				c-11.2-25-42.7-2.7-31.3,16.8c-0.6,2.2-1,4.7-1.2,7.6c-0.2,3.2-1.3,13.2-1.1,16.6"/>
			<path id="XMLID_11620_" class="st4" d="M89.8,179.9c-0.5-0.9-1.1-2-1.6-3.1l-2.8-10.1c-0.3-3.5,0.9-13.4,1.1-16.6
				c0.1-3,0.6-5.5,1.2-7.6c-11.4-19.5,20.1-41.8,31.3-16.8c3.5,7.8,3.1,22.9,3,25.5c-0.1,3.4-0.2,14.6-0.2,17.5
				c0,13.7-17.3,25.1-28.4,15.5"/>
		</g>
		<g>
			<g id="XMLID_11618_">
				<path id="XMLID_11619_" class="st0" d="M50.6,309.6c-9-1.1-3.9-13.2,2.2-8.2"/>
			</g>
			<path id="XMLID_11617_" class="st0" d="M62.9,200.2c1.7,32.8,4.1,72.6,2.1,85.2c-3.4,22,0,126.4,0,126.4l-16.9,1.5
				c0,0,3.2-59.2,1.1-99.4c-1-18.4-2.1-51-3.4-81.4"/>
			<path id="XMLID_11616_" class="st0" d="M53.5,303.7c0-1.9,2.3-2,2.3-2"/>
			<path id="XMLID_11615_" class="st0" d="M59.4,306.6c-0.2,0.6-2.9,1.5-2.9,1.5"/>
			<g id="XMLID_11602_">
				<path id="XMLID_11614_" class="st3" d="M64.9,411l-16.2-3.8c0,0-21.4,35-14.1,35.1c3.9,0.1,5.3-0.9,5.9-1.9
					c-0.5,3.3-0.8,9.4,4.8,6.5l0.1-1.5c1.3,2.1,5.5,8.4,8.9,2l1.1-0.5c2.5,2.1,7.7,5.3,6.9-5.5c1.5,0.1,3.5,0,6.4-0.8
					C83.5,436.9,64.9,411,64.9,411z"/>
				<path id="XMLID_11613_" class="st0" d="M48.7,407.2c0,0-21.4,35-14.1,35.1c3.9,0.1,5.3-0.9,5.9-1.9c-0.5,3.3-0.8,9.4,4.8,6.5
					l0.1-1.5c1.3,2.1,5.5,8.4,8.9,2l1.1-0.5c2.5,2.1,7.7,5.3,6.9-5.5c1.5,0.1,3.5,0,6.4-0.8c14.8-3.7-3.8-29.6-3.8-29.6"/>
				<g id="XMLID_11606_">
					<g id="XMLID_11608_">
						<path id="XMLID_11612_" class="st1" d="M45.2,446.9c-7.5,3.8-4.4-8.4-4.4-8.4c-0.1,0.3,1.1,3.9-6.2,3.8
							c-7.3-0.1,14.1-35.1,14.1-35.1"/>
						<path id="XMLID_11611_" class="st1" d="M54.6,446.9c-4.2,8.4-9.4-2.1-9.4-2.1"/>
						<path id="XMLID_11610_" class="st1" d="M65.5,434.4c-4.2-0.4-11.6,9.9,3.2,6.2S64.9,411,64.9,411"/>
						<path id="XMLID_11609_" class="st1" d="M61.7,432.1l0.5,8c1.7,15.9-8.1,5.5-8.1,5.5"/>
					</g>
					<path id="XMLID_11607_" class="st1" d="M51.3,395.3c-10,0.8,0,10.9,0,10.9"/>
				</g>
				<path id="XMLID_11605_" class="st0" d="M54.6,439.1c0.8-2.6,0.4-7.5,0.4-7.5"/>
				<path id="XMLID_11604_" class="st0" d="M46.2,441c0.8,0,0.9-3.5,0.9-3.5"/>
				<path id="XMLID_11603_" class="st1" d="M42.6,430.4c0,0,2.9-4.8,3.6-7"/>
			</g>
		</g>
		<path id="XMLID_11601_" class="st2" d="M68.7,180c-9.1,2.5-16.8,5.2-18.7,8.1c-5.6,8.1-12.3,97.9,1.4,98.4s15.6-0.1,15.3-5
			s6-61.3,3.8-65.5"/>
		<g>
			<path class="st5" d="M75.5,217.3c0.3,6.9,4,7.2,12.1,6.1c8.2-1,3.7-16.3,2.8-21.1c-0.9-4.7-14.6,0.4-14.6,0.4
				S75.2,210.4,75.5,217.3z"/>
			<g>
				<path id="XMLID_11600_" class="st0" d="M75.6,205.9c-1-1.5,0.8-2.9,0.8-2.9"/>
				<path id="XMLID_11599_" class="st0" d="M92,204.8c-0.7-1.2-3.2-2.4-3.2-2.4"/>
				<path id="XMLID_11598_" class="st0" d="M75.7,210.1c-0.5,1.4,0.3,4,0.3,4"/>
				<path id="XMLID_11597_" class="st0" d="M85.6,223.4c1.3,0.3,3.9-0.8,3.9-0.8"/>
				<path id="XMLID_11596_" class="st0" d="M80.2,221.9c-1.7,0.7-2.6-1.4-2.6-1.4"/>
				<path id="XMLID_11595_" class="st0" d="M92.5,212.1c-0.5-0.5-0.9-2.4-0.9-2.4"/>
				<line id="XMLID_11594_" class="st4" x1="84.5" y1="201.7" x2="81.8" y2="201.8"/>
				<path id="XMLID_11593_" class="st0" d="M92.6,220.8c0.5-1.3-0.1-4-0.1-4"/>
			</g>
			<g>
				<path id="XMLID_11592_" class="st0" d="M123,386.4c1.3,1.7-0.4,4.6-0.4,4.6"/>
				<path id="XMLID_11591_" class="st0" d="M121,382.1c-0.3-1.4-2.2-3.4-2.2-3.4"/>
				<path id="XMLID_11590_" class="st0" d="M118.1,399.3c1-0.9,1.8-3.5,1.8-3.5"/>
			</g>
		</g>
		<g id="XMLID_11534_">
			<g id="XMLID_11586_">
				<path id="XMLID_11589_" class="st0" d="M142.6,107.7c0,0,0.1,5.4,6.6,7.8c6.4,2.4,11.4-17.1,10.9-35.2
					c-0.4-18.1-17.9,5.1-17.9,5.1"/>
				<path id="XMLID_11588_" class="st0" d="M156.5,81c-1.7-5-8.5,5.6-8.5,5.6"/>
				<path id="XMLID_11587_" class="st0" d="M147.2,100.4c1.7,6.5,5.4,2.6,6.8-3.2c1.4-5.9-8.6-3.2-8.6-3.2"/>
			</g>
			<path id="XMLID_11585_" class="st6" d="M88.1,12.4C96.3,9.8,89.7,4,89.7,4C82.6,1,79.9,15,88.1,12.4z"/>
			<path id="XMLID_11584_" class="st0" d="M142.5,131.5c-3.3,16.5-19.5,38.1-49.1,31.8s-27.8-17.7-35-79.6S103.6,18,103.6,18
				C169.4,26.2,145.8,115,142.5,131.5z"/>
			<path class="st7" d="M58.5,83.8c7.3,62,5.3,73.3,34.9,79.6c21,4.5,35.2-5.1,42.9-16.9c-7.8,4.9-18,7.3-30.7,4.6
				c-29.5-6.3-27.5-17.7-34.9-79.6C68.3,51.1,72.4,37,79,27.2C66.5,35.7,54.7,52.2,58.5,83.8z"/>
			<path id="XMLID_11583_" class="st2" d="M60.9,50.4c0,0,18.5-8.8,38.1-16.7c15.4,3.8,32.4,5.3,32.4,4
				c-0.1-13.4-3.9-49.1-41.5-32.2c-8.8,2.7-18.3,8-24.2,17.2c-0.5,0.7-0.9,1.4-1.3,2.1l0,0h-0.1c-1.8,3.4-2.7,6-2.9,8
				C59.6,38.9,60.9,50.4,60.9,50.4z"/>
			<path id="XMLID_11582_" class="st0" d="M87.5,91.8c12.1,4.3,21.5-2.7,21.5-2.7"/>
			<path id="XMLID_11581_" class="st0" d="M150.2,91.2c-3.2,1.4-18.3-1.8-18.3-1.8"/>
			<path id="XMLID_11580_" class="st0" d="M96.4,160.5c-2.5,4.8,5.9,8.2,18.8,5.7s6.7-8.3,6.7-8.3"/>
			<path id="XMLID_11579_" class="st2" d="M154.4,35.9c0,0,6.2-8.8-16.9-10.3c-23.1-1.4-68.7-1.3-76.3,24.7c0,0,12.2-5.4,35.8-10.6
				s43.7,3,43.7,3C150.9,40.2,154.4,35.9,154.4,35.9z"/>
			<path id="XMLID_11578_" class="st0" d="M61.2,50.3c0,0,9.1-23.6,64.2-21.1s15.3,13.5,15.3,13.5C112.1,28.3,61.2,50.3,61.2,50.3z"
				/>
			<g>
				<path id="XMLID_11577_" class="st0" d="M121.6,75.4c0.2,6.5-9.2,18.3-9.2,18.3"/>
				<g id="XMLID_11574_">
					<path id="XMLID_11576_" class="st0" d="M121,100c0.5,0.2,1,0.4,1.6,0.6c0.8,0.3,1.8,0.3,2.9,0.1c2-0.5,3-2.6,3.3-5.7"/>
					<path id="XMLID_11575_" class="st0" d="M127.8,90.4c-2-13.5-9.2-32.8-9.2-32.8"/>
				</g>
				<g id="XMLID_11568_">
					<path id="XMLID_11573_" class="st0" d="M128,107c11.1-2.3,4.2-10.4,4.2-10.4"/>
					<path id="XMLID_11572_" class="st0" d="M116.1,107c-10.5-4.2-3.1-10.4-3.1-10.4"/>
					<path id="XMLID_11571_" class="st0" d="M116.4,103.5c-1.6-0.5-2.9,0.1-1.7-1.8s2.7,0.3,3.8,0
						C119.6,101.3,118,103.8,116.4,103.5z"/>
					<path id="XMLID_11570_" class="st0" d="M127.8,102.6c1.2-0.7,2.4-1.2,2.8-0.9c1.1,0.9,0.6,2.6-1.5,2.7
						C129.1,104.4,127,103.2,127.8,102.6z"/>
					<path id="XMLID_11569_" class="st0" d="M118.9,93.1c0.5-0.8,2.7-0.7,2.7-0.7"/>
				</g>
				<path id="XMLID_11567_" class="st0" d="M144.1,105.3c-1.7-0.6-7.8-3.7-7.8-3.7"/>
				<path id="XMLID_11566_" class="st0" d="M100.8,103.2c0.7,0.1,7.8-3.3,7.8-3.3"/>
			</g>
			<path id="XMLID_11565_" class="st0" d="M79,72.5c-1.6-0.9-0.6-3-0.6-3"/>
			<path id="XMLID_11564_" class="st0" d="M84.9,93.1c-0.6-0.7-1-2.5-1-2.5"/>
			<path id="XMLID_11563_" class="st0" d="M83.3,50.5c-0.8,0,0,3.5,0,3.5"/>
			<path id="XMLID_11562_" class="st0" d="M131.5,43.2c-0.4-0.5,2.9-1,2.9-1"/>
			<path id="XMLID_11561_" class="st0" d="M110.1,47.1c0.3,0.8,4.1,1.3,4.1,1.3"/>
			<path id="XMLID_11560_" class="st0" d="M130,143.9c0.2-0.6,3-1.2,3-1.2"/>
			<path id="XMLID_11559_" class="st0" d="M112.9,146.3c-0.7-1.2-3.3-2.4-3.3-2.4"/>
			<path id="XMLID_11558_" class="st0" d="M135.6,82.2"/>
			<path id="XMLID_11557_" class="st0" d="M117.3,84.4"/>
			<line id="XMLID_11556_" class="st4" x1="88.4" y1="104.1" x2="91.1" y2="104.8"/>
			<path id="XMLID_11555_" class="st0" d="M67.2,114.1c0,0,0.3,5.3-5.9,8.3s-12.8-16.1-13.9-34.1c-1-18,18.4,3.6,18.4,3.6"/>
			<path id="XMLID_11554_" class="st0" d="M51.2,88.9c1.3-5.2,9,4.8,9,4.8"/>
			<path id="XMLID_11553_" class="st0" d="M62.2,107.4c-1.2,6.5-5.2,3-7.1-2.7s8.3-3.9,8.3-3.9"/>
			<g>
				<path id="XMLID_11552_" class="st8" d="M125.3,75.9c-13-28.9,22.8-25.4,22.8-25.4C178.1,70.5,138.3,104.8,125.3,75.9z"/>
				<path id="XMLID_11551_" class="st6" d="M141.7,68.7c-0.5-5.6,4.8-3.4,4.8-3.4C150.2,70.1,142.2,74.3,141.7,68.7z"/>
				<path id="XMLID_11550_" class="st8" d="M101.9,88.2c32.7-10.6,6.4-33.7,6.4-33.7C79.8,42.7,69.2,98.8,101.9,88.2z"/>
				<path id="XMLID_11549_" class="st6" d="M85.3,72c-0.6-5.6,4.8-3.4,4.8-3.4C93.8,73.3,85.9,77.6,85.3,72z"/>
				<path id="XMLID_11548_" class="st6" d="M85.3,57c-0.9,3,15.6,11.2,24.3,2.7s-3.4-9.9-3.4-9.9C87.8,48.9,86.2,54,85.3,57z"/>
				<path id="XMLID_11547_" class="st6" d="M126.2,49.3c1.2,4.5,16.5,15,25.1,4.7c8.6-10.3-10-9.3-10-9.3S125,44.8,126.2,49.3z"/>
				<g id="XMLID_11544_">
					<path id="XMLID_11546_" class="st0" d="M91.7,88.9c0.7,0.2,1.3,0.3,2.1,0.4c6.4,0.4,16.9-5.2,16.9-5.2
						c-7-1.9-19.1-1.1-19.1-1.1l-5.7,0.4c0,0-5.1,0.8-2.9,3.2c1,1,1.9,0.9,2.8,0.7c0.3,0,0.5-0.1,0.7-0.2
						C87.6,86.8,91.2,88.7,91.7,88.9z"/>
					<path id="XMLID_11545_" class="st0" d="M150,81.3c0,0,5.1,0.8,2.9,3.2c-2.3,2.4-3.1,0.1-7.2,1.3c-12.5,3.8-16.4-4.6-16.4-4.6
						c7.8-2.4,14.9-1.1,14.9-1.1L150,81.3z"/>
				</g>
			</g>
			<g id="XMLID_11539_">
				<path id="XMLID_11543_" class="st6" d="M144.4,130.7c10.7-7-8.5-9.5-8.5-9.5S133.7,137.6,144.4,130.7z"/>
				<path id="XMLID_11542_" class="st6" d="M125.9,119.1c1,3.5,14.1,11.9,21.4,3.7c7.2-8.1-8.6-7.3-8.6-7.3S124.9,115.6,125.9,119.1
					z"/>
				<path id="XMLID_11541_" class="st6" d="M97.9,132.1c0.8,2.8,14.2,4.5,15.5-5.3s-6.4-7.2-6.4-7.2
					C95.8,124.6,97.1,129.3,97.9,132.1z"/>
				<path id="XMLID_11540_" class="st6" d="M113.9,125c22.2-10.8-0.3-8-0.3-8C88,120.4,91.7,135.8,113.9,125z"/>
			</g>
			<g id="XMLID_11535_">
				<path id="XMLID_11538_" class="st0" d="M115.4,130.6c6.5,11.6,18.3,0,18.3,0"/>
				<path id="XMLID_11537_" class="st0" d="M125.3,128.7c2.5-3.5,5.7,0,5.7,0"/>
				<path id="XMLID_11536_" class="st0" d="M125.3,128.7c-2.4-3.5-5.6,0-5.6,0"/>
			</g>
		</g>
		<path id="XMLID_11533_" class="st0" d="M88.4,184.9c0.7,1.3,1.5,1.9,2.4,2.2"/>
		<path id="XMLID_11532_" class="st0" d="M121.5,182.2c0.8-1,1-2.1,1-2.1"/>
		<path id="XMLID_11531_" class="st0" d="M114.5,190c0.3-0.1,0.7-0.3,0.9-0.4"/>
		<path id="XMLID_11530_" class="st2" d="M144,225.1c-4.5,13.5-1.7,107.4-1.7,107.4"/>
	</g>
	<g>
		<path class="st0" d="M117.7,633.1c-0.1,1.2,0.2,2.4,1.3,3.4c0.2,0.3,0.5,0.6,0.9,0.8c1.2,0.9,3.1,1.5,5.4,2
			c1.9,0.3,3.9,0.6,6.2,0.8c1.5,0.1,3,0.3,4.6,0.3c1.2,0.2,2.5,0.2,3.7,0.2c1.3-0.1,2.5-0.2,3.7-0.2c1.7-0.1,3.2-0.2,4.6-0.3
			c2.4-0.1,4.4-0.5,6.2-0.8c2.3-0.5,4.2-1.2,5.4-2c0.3-0.3,0.7-0.6,0.9-0.8c0.8-0.7,1.2-1.6,1.3-2.5c-8.9-3.7-16.3-10-18.2-20.8
			c-1-1-1.7-1.6-1.7-1.6s-0.3-0.3-0.6-0.7c0-0.1-0.1-0.2-0.2-0.3l-0.1-0.2c-0.1-0.5-0.2-1.3-0.3-2.4H140h-0.8l-15.2,1.3
			c0,3.9-0.1,6.4-0.1,6.9c0,0.1,0,0.1,0,0.1s0,0,0.1,0c-0.8,3.4-1.9,6.2-2.9,8.5c-1,2.5-2,4.5-2.6,6.3
			C118.3,631.9,118.1,632.6,117.7,633.1z"/>
		<path class="st0" d="M124.7,613.8l16.9-1.5c0,0-1.4-43.3-1.5-80c0-14.5,0.2-28,0.7-37.4c-0.2-0.4-0.3-0.8-0.4-1.2
			c0.4-1.3-1.1-6-5.5-16l0,0c-1.7-4-3.7-8.5-5.8-13.3c-2-4.6-3.9-9.5-5.9-14.4C107.7,411.6,93,368.5,93,368.5l-23.5,16.8
			c4.4,3.2,35.4,71.2,55.7,115.2c0.2,5.3,0.4,10,0.6,14C127.9,554.7,124.7,613.9,124.7,613.8z"/>
		<g>
			<g id="XMLID_11645_">
				<path id="XMLID_11646_" class="st0" d="M172,640.1c-2.3-4.9,3.8-4.3,3.8-4.3C180.8,639.2,174.1,644.9,172,640.1z"/>
			</g>
			<g id="XMLID_11643_">
				<path id="XMLID_11644_" class="st0" d="M168,639.9c-2.4-5.5,4.3-4.8,4.3-4.8C177.9,638.9,170.4,645.3,168,639.9z"/>
			</g>
			<g id="XMLID_11641_">
				<path id="XMLID_11642_" class="st0" d="M163,639.5c-2.8-6.3,5-5.5,5-5.5C174.6,638.4,165.9,645.8,163,639.5z"/>
			</g>
			<g id="XMLID_11639_">
				<path id="XMLID_11640_" class="st0" d="M156.9,639.1c-3.2-7.1,5.7-6.3,5.7-6.3C170.1,637.9,160.1,646.4,156.9,639.1z"/>
			</g>
			<path id="XMLID_11638_" class="st0" d="M143.5,638.8c0.7-2.9,9.4-10,14.3-3.1c4.9,6.9-5.7,6.2-5.7,6.2S142.8,641.8,143.5,638.8z"
				/>
		</g>
		<path id="XMLID_11637_" class="st0" d="M129.1,481.5c0-1.9,2.3-2,2.3-2"/>
		<path id="XMLID_11636_" class="st0" d="M137.8,494.6c-0.1,0.7-2.8,1.5-2.8,1.5"/>
		<g id="XMLID_11634_">
			<path id="XMLID_11635_" class="st0" d="M140.9,608c9,1.1,3.9,13.2-2.2,8.2"/>
		</g>
		<g id="XMLID_11632_">
			<path id="XMLID_11633_" class="st0" d="M138.3,483c8.6-2.5,8.8,10.6,1.2,8.5"/>
		</g>
	</g>
</g>
</svg>
