<?xml version="1.0" encoding="utf-8"?>
<!-- Generator: Adobe Illustrator 22.1.0, SVG Export Plug-In . SVG Version: 6.00 Build 0)  -->
<svg version="1.1" id="Layer_1" xmlns="http://www.w3.org/2000/svg" xmlns:xlink="http://www.w3.org/1999/xlink" x="0px" y="0px"
	 viewBox="0 0 121.6 60.5" style="enable-background:new 0 0 121.6 60.5;" xml:space="preserve">
<style type="text/css">
	.st0{opacity:0.1;fill:#5D5C4C;stroke:#5D5C4C;stroke-linecap:round;stroke-miterlimit:10;enable-background:new    ;}
	.st1{fill:#FFD767;stroke:#584C4F;stroke-width:2;stroke-miterlimit:10;}
	.st2{fill:#FFFAF2;stroke:#584C4F;stroke-width:2;stroke-miterlimit:10;}
</style>
<g id="Layer_5">
</g>
<g id="Layer_3">
</g>
<path id="XMLID_53_" class="st0" d="M0.6,35.5C0.5,38.1,0.4,48.2,0.7,51c0.5,4.3,3,7.7,7.9,8c1.7,0.1,74.2,2.1,80.8,0
	c9-2.9,11.5-7.2,11.2-11.3c0.1-0.4,0-13.7-0.1-14.1c-0.6-3.3-2.8-6.3-4.5-8.3c-1.2-1.4-3.4-2.6-4.2-2.8c-6.2-1.2-77.1-1.5-79-1.4
	C5.6,21.6,1.2,28.9,0.6,35.5z"/>
<path class="st1" d="M10.7,40.9c0.5,4.3,3,7.7,7.9,8c1.7,0.1,74.2,2.1,80.8,0c4.2-1.4,7-3,8.7-4.8c1.7-1.8,9.1-8.8,10.6-10.7
	s2-3.8,1.9-5.8c0.1-0.4,0-13.7-0.1-14.1c-0.6-3.3-2.8-6.3-4.5-8.3c-1.2-1.4-3.4-2.6-4.2-2.8c-6.2-1.2-77.1-1.5-79-1.4
	c-2.5,0.2-4.7,1.2-6.5,2.8c-2.2,1.9-7.8,8.4-9.1,9.3c-3.8,2.7-6.1,7.8-6.4,12.4C10.6,28,10.5,38.2,10.7,40.9z"/>
<g id="XMLID_49_">
	<g>
		<path id="XMLID_52_" class="st2" d="M20.6,15.5c-0.1,2.6-0.2,12.7,0.1,15.5c0.5,4.3,3,7.7,7.9,8c1.7,0.1,74.2,2.1,80.8,0
			c9-2.9,11.5-7.2,11.2-11.3c0.1-0.4,0-13.7-0.1-14.1c-0.6-3.3-2.8-6.3-4.5-8.3c-1.2-1.4-3.4-2.6-4.2-2.8c-6.2-1.2-77.1-1.5-79-1.4
			C25.6,1.6,21.2,8.9,20.6,15.5z"/>
		<path id="XMLID_51_" class="st2" d="M27.3,34.4c-1.8-1-0.7-3.2-0.7-3.2"/>
		<path id="XMLID_50_" class="st2" d="M113.4,8.3c-0.9-1.3-3.6-2.6-3.6-2.6"/>
	</g>
</g>
<path id="XMLID_48_" class="st1" d="M22.4,39.7c-2.3,1-5.4,5.4-5.4,5.4"/>
<g id="XMLID_4600_">
	<g id="XMLID_4329_">
		<path id="XMLID_4335_" class="st1" d="M67.2,18.1"/>
		<path id="XMLID_4332_" class="st1" d="M71.1,17.2c-6.1-4.5-10.8,1.1-10.8,1.1s-3.9,8.9,3.5,11.3C71.2,32,77.1,21.6,71.1,17.2z
			 M68.3,21.7c2.1,4.7-7.3,3.4-4.8,0.1C63.5,21.8,66.2,17,68.3,21.7z"/>
		<path id="XMLID_4331_" class="st1" d="M68.7,16.6"/>
	</g>
	<path id="XMLID_4330_" class="st1" d="M68.4,27.7c0,0,0.5,3.6,3.8,1.7s-0.2-5-0.2-5"/>
</g>
<g id="XMLID_4362_">
	<path id="XMLID_4371_" class="st1" d="M86.3,17.4c0,0-7.7-5.3-11,4.1s4.8,10.9,4.6,5.1c-0.2-5.7,1.8-6.2,4-5.3S89.3,21.2,86.3,17.4
		z"/>
	<path id="XMLID_4370_" class="st1" d="M79.8,17.9c0,0-0.5-3.5-3.7-1.7c-3.1,1.9,0.2,4.9,0.2,4.9"/>
</g>
<g id="XMLID_4556_">
	<path id="XMLID_4377_" class="st1" d="M57.2,9.8c0,0-4.7-4.5-4.8,4S50.7,30,59.8,29.9c0,0,4.9-2.1,0-4.2c-2.4-1.1-2.9-3.3-2.8-6"/>
	<path id="XMLID_4378_" class="st1" d="M56.1,19.5c0,0,3.5,1,3.1-2.8s-4.7-1.9-4.7-1.9"/>
</g>
<g id="XMLID_415_">
	<path id="XMLID_4375_" class="st1" d="M52.1,20.6c0,0,2.5-0.1,2.2-2.2c-0.2-1.6-7.1-4.6-9.9-1.1c-0.7,0.9-1.2,2.3-1.2,4.3
		c0,0,0,0,0,0c0.2,0.7,0.6,1.2,1,1.7c0.2,0.2,0.4,0.3,0.5,0.5c1.3,1,3,1.4,4.6,1.4c-0.2,0.9-1.3,1.4-4.7-0.3c0,0-2.5,0.1-2.2,2.2
		c0.2,1.6,7.1,4.6,9.9,1c0.7-0.9,1.2-2.3,1.2-4.3c0,0,0,0,0,0c-0.2-0.7-0.6-1.2-1-1.7c-0.2-0.2-0.4-0.3-0.5-0.5
		c-1.3-1-3-1.4-4.6-1.4C47.6,19.5,48.7,19,52.1,20.6z"/>
	<path id="XMLID_4414_" class="st1" d="M48.9,23.2c0,0,2.4,5.1-4.3,1.8c0,0-2.5,0.1-2.2,2.2s11.2,6.3,11.1-3.2"/>
	<path id="XMLID_4415_" class="st1" d="M47.8,22.5c0,0-2.4-5.1,4.3-1.8c0,0,2.5-0.1,2.2-2.2s-11.2-6.3-11.1,3.2"/>
</g>
<g id="XMLID_1_">
	<path id="XMLID_3_" class="st1" d="M90,9.8c0,0-4.7-4.5-4.8,4S83.5,30,92.6,29.9c0,0,4.9-2.1,0-4.2c-2.4-1.1-2.9-3.3-2.8-6"/>
	<path id="XMLID_2_" class="st1" d="M88.9,19.5c0,0,3.5,1,3.1-2.8c-0.4-3.7-4.7-1.9-4.7-1.9"/>
</g>
</svg>
