<?xml version="1.0" encoding="utf-8"?>
<!-- Generator: Adobe Illustrator 22.1.0, SVG Export Plug-In . SVG Version: 6.00 Build 0)  -->
<svg version="1.1" id="Layer_1" xmlns="http://www.w3.org/2000/svg" xmlns:xlink="http://www.w3.org/1999/xlink" x="0px" y="0px"
	 viewBox="0 0 100 100" style="enable-background:new 0 0 100 100;" xml:space="preserve">
<style type="text/css">
	.st0{opacity:0.1;enable-background:new    ;}
	.st1{fill:#231F20;stroke:#231F20;stroke-miterlimit:10;}
	.st2{fill:none;stroke:#231F20;stroke-miterlimit:10;}
	.st3{fill:#FFD767;stroke:#584C4F;stroke-width:2;stroke-miterlimit:10;}
	.st4{fill:#FFFAF2;stroke:#584C4F;stroke-width:2;stroke-miterlimit:10;}
	.st5{fill:none;stroke:#584C4F;stroke-width:2;stroke-miterlimit:10;}
</style>
<g>
	<g class="st0">
		<g>
			<path class="st1" d="M43.2,66.1c-1.3,12.4,9.9,16.9,17.6,9.3c1.2-1.2,5-5.3,5.9-6c3.8-2.9,6.9-8.4,7.8-17.1
				c0,0,12.9-34.8-21.4-26.2C38.6,29.7,31.2,33.3,28,36.9c-0.9,1.1-5.5,5.5-6.6,6.6C16.4,48.6,20.2,53.7,25,59
				C33.1,68.1,45.3,48.7,43.2,66.1z"/>
			<g id="XMLID_9_">
				<path id="XMLID_10_" class="st1" d="M50.6,58.9c1.9-17.4-10.4,1.9-18.4-7.1s-13.3-17.2,21-25.7s21.4,26.2,21.4,26.2
					C71.8,78.4,48.6,76.3,50.6,58.9z"/>
			</g>
		</g>
		<line id="XMLID_8_" class="st2" x1="67.7" y1="62.8" x2="68.9" y2="59.6"/>
		<path id="XMLID_7_" class="st1" d="M50.9,76.3c0.8,0.4,4.7-2.4,4.7-2.4"/>
		<path id="XMLID_6_" class="st1" d="M44.4,56.4c1,0.2,2.5-1.7,2.5-1.7"/>
	</g>
	<g>
		<g>
			<path class="st3" d="M47.2,62.2c-1.3,12.4,9.9,16.9,17.6,9.3c1.2-1.2,5-5.3,5.9-6c3.8-2.9,6.9-8.4,7.8-17.1
				c0,0,12.9-34.8-21.4-26.2C42.6,25.8,35.1,29.4,32,33c-0.9,1.1-5.5,5.5-6.6,6.6c-4.9,5.1-1.1,10.2,3.6,15.5
				C37,64.2,49.3,44.8,47.2,62.2z"/>
			<g id="XMLID_4_">
				<path id="XMLID_5_" class="st4" d="M54.6,55c1.9-17.4-10.4,1.9-18.4-7.1s-13.3-17.2,21-25.7s21.4,26.2,21.4,26.2
					C75.8,74.5,52.6,72.4,54.6,55z"/>
			</g>
		</g>
		<line id="XMLID_3_" class="st5" x1="71.6" y1="58.9" x2="72.8" y2="55.7"/>
		<path id="XMLID_2_" class="st4" d="M54.9,72.4c0.8,0.4,4.7-2.4,4.7-2.4"/>
		<path id="XMLID_1_" class="st4" d="M48.3,52.5c1,0.2,2.5-1.7,2.5-1.7"/>
	</g>
</g>
</svg>
