<?xml version="1.0" encoding="utf-8"?>
<!-- Generator: Adobe Illustrator 22.1.0, SVG Export Plug-In . SVG Version: 6.00 Build 0)  -->
<svg version="1.1" id="Layer_1" xmlns="http://www.w3.org/2000/svg" xmlns:xlink="http://www.w3.org/1999/xlink" x="0px" y="0px"
	 viewBox="0 0 485.1 377.3" style="enable-background:new 0 0 485.1 377.3;" xml:space="preserve">
<style type="text/css">
	.st0{opacity:0.1;fill:#231F20;stroke:#231F20;stroke-miterlimit:10;enable-background:new    ;}
	.st1{fill:#A36B78;stroke:#584C4F;stroke-width:2;stroke-linecap:round;stroke-miterlimit:10;}
	.st2{fill:#584C4F;stroke:#584C4F;stroke-width:2;stroke-linecap:round;stroke-miterlimit:10;}
	.st3{fill:#FFD767;stroke:#584C4F;stroke-width:2;stroke-miterlimit:10;}
	.st4{fill:none;stroke:#584C4F;stroke-width:2;stroke-linecap:round;stroke-miterlimit:10;}
	.st5{fill:#B66C7E;stroke:#584C4F;stroke-width:2;stroke-miterlimit:10;}
	.st6{opacity:0.5;fill:#FFFFFF;stroke:#584C4F;stroke-width:2;stroke-miterlimit:10;enable-background:new    ;}
	.st7{fill:#FFFFFF;stroke:#584C4F;stroke-width:2;stroke-linecap:round;stroke-miterlimit:10;}
</style>
<g id="Layer_5">
</g>
<g id="Layer_3">
</g>
<g>
	<g>
		<g>
			<path class="st0" d="M469.3,129.2c0.1-0.7,0.2-1.3,0.2-2v-0.1c0.2-1.4,0.3-2.7,0.4-4c0-0.5,0.1-0.9,0.1-1.4
				c0.1-0.9,0.1-1.8,0.2-2.6c0-0.5,0.1-1,0.1-1.6c0-0.8,0.1-1.6,0.1-2.3c0-0.5,0-1.1,0-1.6c0-0.7,0-1.4,0-2.2c0-0.5,0-1.1,0-1.6
				c0-0.7,0-1.4,0-2c0-0.5,0-1-0.1-1.6c0-0.7-0.1-1.3-0.1-1.9c0-0.5-0.1-1-0.1-1.5c-0.1-0.6-0.1-1.3-0.2-1.9c0-0.5-0.1-1-0.2-1.5
				c-0.1-0.6-0.1-1.2-0.2-1.8c-0.1-0.5-0.1-0.9-0.2-1.4c-0.1-0.6-0.2-1.2-0.3-1.8c-0.1-0.4-0.1-0.9-0.2-1.3
				c-0.1-0.6-0.2-1.2-0.4-1.8c-0.1-0.4-0.2-0.8-0.2-1.2c-0.1-0.7-0.3-1.3-0.5-2c-0.1-0.3-0.2-0.6-0.2-0.9c-0.2-0.8-0.5-1.7-0.7-2.5
				c0-0.1-0.1-0.2-0.1-0.3c-0.3-0.9-0.6-1.8-0.9-2.7c-0.1-0.2-0.1-0.3-0.2-0.5c0-0.1,0-0.1-0.1-0.2h0.1l0,0c0.3,0.1,0.4,0.2,0.4,0.2
				s1.9-16-0.7-24.4c-0.3-2.9-1.5-6.4-4-11c0-0.1,0-0.1,0-0.1l0,0c-0.5-1-1.1-1.9-1.8-3c-6-9.5-15-16-24.2-20.2
				c-0.7-3.9-4.1-7.7-9-5.7c0,0-0.7,0.6-1.5,1.6c-38.6-16.7-50.9,7.3-54.6,27.9c-3.6,0.1-6.9,0.3-10,0.5
				c-31.9,2-23.4,14.2-23.4,14.2l0,0c0.9,1.8,3.8,3.5,7,5c2.7,1.4,6.3,2.9,11,4.1c-7.6,14.3-10.5,31.5-10.9,48.6
				c-6.8-6.3-14.9-10.6-15.2,3.6c-0.6,25,6.2,52,15.1,48.6c1.8-0.7,3.3-1.6,4.4-2.5c2,11.2,4.1,20,5,24.7c1.1,5.6,3.3,11.6,6.5,17.4
				l0,0l0,0c0.2,0.4,0.5,0.8,0.7,1.2c0.1,0.2,0.3,0.5,0.4,0.7c0.2,0.4,0.5,0.8,0.7,1.2c0.2,0.2,0.3,0.5,0.5,0.7
				c0.5,0.7,1,1.5,1.5,2.2c0.1,0.2,0.3,0.4,0.4,0.5c0.3,0.3,0.5,0.7,0.8,1c0.2,0.3,0.4,0.5,0.6,0.8c0.3,0.3,0.5,0.7,0.8,1
				c0.2,0.3,0.5,0.6,0.7,0.8c0.3,0.3,0.5,0.6,0.8,0.9c0.5,0.5,1,1,1.5,1.5c0.3,0.3,0.5,0.5,0.8,0.8s0.6,0.6,0.9,0.9
				c0.3,0.3,0.6,0.5,0.9,0.8s0.7,0.6,1,0.9c0.3,0.2,0.5,0.5,0.8,0.7c0.6,0.5,1.2,0.9,1.8,1.4c0.2,0.2,0.5,0.4,0.7,0.5
				c0.4,0.3,0.9,0.6,1.3,0.9c0.3,0.2,0.6,0.4,0.9,0.6c0.4,0.3,0.9,0.6,1.4,0.8c0.3,0.2,0.5,0.3,0.8,0.5c0.4,0.3,0.9,0.5,1.3,0.7l0,0
				c-0.3,0.8-0.4,1.8,0,2.8c0,3.9,0,7.3,0.1,8.9c0.1,22.5,33.5,40.4,46.7,11.1l3.9-13.9c0.1-1.6,0-4.3-0.2-7.3
				c10.5-3.5,17.1-8.3,21.6-16.7c0.3-0.6,0.6-1.2,0.9-1.8c0.4-0.9,0.9-1.9,1.3-2.9c1.2-2.9,2.2-6.2,3.1-10c0.6-2.4,1.1-4.9,1.6-7.6
				c0.9-4.7,1.7-9.9,2.4-15.7c0.6,0.4,1.3,0.8,2.1,1.2c8.6,4.1,17.7-22.2,19.2-47.2C485.7,119.1,476.8,123.3,469.3,129.2z"/>
			<g id="XMLID_5029_">
				<path id="XMLID_5142_" class="st1" d="M421.7,252.6c0.3-4.8-1.3-18.5-1.6-22.9c-0.3-4.1-0.9-7.5-1.7-10.5
					c15.8-26.9-27.8-57.8-43.3-23.2c-4.8,10.8-4.2,31.7-4.1,35.2c0.1,4.6,0.2,20.2,0.2,24.2c0.1,22.5,33.5,40.4,46.7,11.1"/>
				<g id="XMLID_5030_">
					<g id="XMLID_5114_">
						<path id="XMLID_5123_" class="st1" d="M342.8,140.5c0,0-24.2-32.1-24.8-7c-0.6,25,6.2,52,15.1,48.6c8.9-3.4,9.1-10.8,9.1-10.8
							"/>
						<path id="XMLID_5116_" class="st1" d="M334.8,142.2c0,0-9.5-14.7-11.8-7.8"/>
						<path id="XMLID_5115_" class="st1" d="M338.4,152.4c0,0-13.9-3.6-11.9,4.4s7,13.4,9.4,4.5"/>
					</g>
					<path id="XMLID_5113_" class="st2" d="M415.4,28c0,0-9.1,8,2.2,11.6S425.2,23.9,415.4,28z"/>
					<path id="XMLID_5112_" class="st1" d="M396.2,47.4c0,0,72.5,5.2,62.4,90.8s-7.4,101.3-48.3,110c-40.9,8.7-63.3-21.2-67.8-44
						S305.2,58.7,396.2,47.4z"/>
					<path class="st0" d="M427.1,58c8,13.3,12.6,32,9.5,58.2c-10.1,85.6-7.4,101.3-48.3,110c-15.9,3.4-28.9,0.9-39.3-4.6
						c10,17.8,30.4,33.2,61.3,26.6c40.9-8.7,38.2-24.4,48.3-110C464.1,92,445.4,69.2,427.1,58z"/>
					<path id="XMLID_5090_" class="st3" d="M454.5,67.9c-0.3-2.9-1.5-6.4-4-11c0-0.1,0-0.1,0-0.1l0,0c-0.5-1-1.1-1.9-1.8-3
						c-8.1-12.7-21.4-20-33.4-23.8c-52.1-23.3-57.4,26-57.5,44.7c0,1.8,23.4-0.2,44.8-5.5c27.1,10.9,52.6,23.1,52.6,23.1
						S457.1,76.3,454.5,67.9z"/>
					<path id="XMLID_5089_" class="st1" d="M408.9,145.6c0,0,12.9,9.7,29.6,3.7"/>
					<path id="XMLID_5088_" class="st1" d="M404.3,152c0,0-13.1-16.3-12.6-25.3"/>
					<path id="XMLID_5087_" class="st1" d="M377.2,146.1c0,0-20.9,4.5-25.3,2.6"/>
					<g id="XMLID_5084_">
						<path id="XMLID_5086_" class="st1" d="M381.5,153.8c0.5,4.3,1.9,7.3,4.7,7.8c1.6,0.3,2.9,0.2,3.9,0c0.9-0.2,1.6-0.5,2.2-0.8"
							/>
						<path id="XMLID_5085_" class="st1" d="M395.6,102.1c0,0-10,26.6-12.8,45.4"/>
					</g>
					<path id="XMLID_5083_" class="st1" d="M372.9,240.8c0,0-8.6,7.9,9.2,11.4c17.8,3.5,29.5-1.2,26-7.9"/>
					<path id="XMLID_5082_" class="st3" d="M344.9,81.5c0,0,27.7-11.3,60.3-4.1c32.6,7.2,49.5,14.8,49.5,14.8
						c-10.3-36-73.5-36.3-105.4-34.2c-31.9,2-23.4,14.2-23.4,14.2S330.8,78.1,344.9,81.5z"/>
					<path id="XMLID_5081_" class="st1" d="M344.9,81.5c0,0-55-15.3,21.1-18.6s88.7,29.3,88.7,29.3S384.4,61.7,344.9,81.5z"/>
					<g id="XMLID_5075_">
						<path id="XMLID_5080_" class="st1" d="M376.8,156c0,0-9.6,11.2,5.9,14.4"/>
						<path id="XMLID_5079_" class="st1" d="M403.4,156c0,0,10.2,8.5-4.2,14.4"/>
						<path id="XMLID_5078_" class="st1" d="M398.7,165.4c-2.2,0.5-4.4-2.8-2.9-2.4s3.6-2.6,5.3,0"/>
						<path id="XMLID_5077_" class="st1" d="M382.8,164.4c1.2,0.7-1.7,2.4-1.7,2.4c-2.9-0.2-3.6-2.5-2.1-3.7"/>
						<path id="XMLID_5076_" class="st1" d="M391.6,150.2c0,0,3-0.1,3.7,1"/>
					</g>
					<path id="XMLID_5074_" class="st1" d="M371.1,162.9c0,0-8.4,4.2-10.8,5.1"/>
					<line id="XMLID_5073_" class="st4" x1="346.4" y1="166.5" x2="349.9" y2="168"/>
					<path id="XMLID_5072_" class="st1" d="M409.4,160.6c0,0,9.8,4.7,10.8,4.6"/>
					<path id="XMLID_5071_" class="st1" d="M451.3,118.6c0,0,1.4,2.9-0.8,4.1"/>
					<path id="XMLID_5070_" class="st1" d="M443.6,147.7c0,0-0.6,2.6-1.4,3.5"/>
					<path id="XMLID_5069_" class="st1" d="M444.5,97.2c0,0,1.1-4.9,0-4.9"/>
					<path id="XMLID_5068_" class="st1" d="M373.8,80.8c0,0,4.6,0.6,4.1,1.4"/>
					<path id="XMLID_5067_" class="st1" d="M401.8,89.4c0,0,5.3-0.8,5.6-1.8"/>
					<path id="XMLID_5066_" class="st1" d="M361.7,219.8c0,0,3.8,0.8,4.1,1.7"/>
					<path id="XMLID_5065_" class="st1" d="M424.2,221.4c0,0-3.5,1.7-4.5,3.3"/>
					<path id="XMLID_5064_" class="st1" d="M351.9,136.2"/>
					<path id="XMLID_5063_" class="st1" d="M377.2,139.2"/>
					<line id="XMLID_5062_" class="st4" x1="433.7" y1="167.4" x2="437.4" y2="166.4"/>
					<path id="XMLID_5061_" class="st1" d="M448.4,149.6c0,0,26.9-29.9,25.3-4.9c-1.5,25-10.6,51.3-19.2,47.2s-8.1-11.6-8.1-11.6"/>
					<path id="XMLID_5060_" class="st1" d="M456.2,152c0,0,10.7-13.8,12.4-6.7"/>
					<path id="XMLID_5059_" class="st1" d="M451.7,161.8c0,0,14.1-2.4,11.4,5.4c-2.7,7.8-8.1,12.7-9.8,3.7"/>
					<g id="XMLID_5047_">
						<path id="XMLID_5058_" class="st5" d="M381.1,185.3c0,0,49.4-4.8,31.5,35.1S339.6,213,381.1,185.3z"/>
						<path id="XMLID_5057_" class="st5" d="M382.9,225.2c-4.9-2.1-10.5,12.8-15.6-1.1c-5.2-13.9,26.2-1.1,26.2-1.1s9.9,3.3,13.6,5"
							/>
						<path id="XMLID_5056_" class="st6" d="M407.8,228.3c1.8-2.1,3.5-4.7,4.9-7.9c17.9-39.9-31.5-35.1-31.5-35.1
							c-15.4,10.3-17.5,23.2-13.1,33.4c5.3-3.9,25.5,4.3,25.5,4.3s9.9,3.3,13.6,5"/>
						<g id="XMLID_5049_">
							<path id="XMLID_5055_" class="st7" d="M369.6,194.9c0,0,7.4-3,6.6,4.7C375.4,207.2,364.5,201.4,369.6,194.9z"/>
							<path id="XMLID_5054_" class="st7" d="M377.6,194.9c0,0,7.4-3,6.6,4.7C383.4,207.2,372.5,201.4,377.6,194.9z"/>
							<path id="XMLID_5053_" class="st7" d="M385.6,194.9c0,0,7.4-3,6.6,4.7C391.4,207.2,380.5,201.4,385.6,194.9z"/>
							<path id="XMLID_5052_" class="st7" d="M393.6,194.9c0,0,7.4-3,6.6,4.7C399.4,207.2,388.6,201.4,393.6,194.9z"/>
							<path id="XMLID_5051_" class="st7" d="M401.7,194.9c0,0,7.4-3,6.6,4.7C407.4,207.2,396.6,201.4,401.7,194.9z"/>
							<path id="XMLID_5050_" class="st7" d="M409.7,194.9c0,0,7.4-3,6.6,4.7C415.4,207.2,404.6,201.4,409.7,194.9z"/>
						</g>
						<path id="XMLID_5048_" class="st5" d="M377.8,195.1c0,0,6.9-2.7,6.6,3.9h0.1c-0.1-1.2,0.3-2.5,1.3-3.9c0,0,6.9-2.7,6.6,3.9
							h0.1c-0.1-1.2,0.3-2.5,1.3-3.9c0,0,6.8-2.7,6.6,3.9h0.1c-0.1-1.2,0.3-2.5,1.3-3.9c0,0,6.9-2.7,6.6,3.9h0.1
							c-0.1-1.2,0.3-2.5,1.3-3.9c0,0,1.7-0.7,3.4-0.5c-9-11.2-31.9-9-31.9-9c-4.3,2.9-7.5,6-9.9,9.1c2-0.4,5.2-0.3,5.1,4.3l0,0
							C376.4,197.8,376.7,196.5,377.8,195.1z"/>
					</g>
					<g id="XMLID_5042_">
						<path id="XMLID_5046_" class="st2" d="M373.9,190c0,0-26.6,3.5-11.8,13.1S373.9,190,373.9,190z"/>
						<path id="XMLID_5045_" class="st2" d="M369.9,182.2c0,0-21.9-1.2-11.8,10.1s28.2-0.3,29.6-5.1
							C389.1,182.4,369.9,182.2,369.9,182.2z"/>
						<path id="XMLID_5044_" class="st2" d="M413.7,187.8c0,0-10.7-3.6-8.8,10c1.8,13.5,20.3,11.2,21.4,7.3
							C427.4,201.2,429.2,194.7,413.7,187.8z"/>
						<path id="XMLID_5043_" class="st2" d="M404.6,184.2c0,0-31.1-3.9-0.4,11.1S440.1,188.9,404.6,184.2z"/>
					</g>
					<path id="XMLID_5041_" class="st1" d="M430.5,37c0,0,2.5,2,1.1,4.1"/>
					<line id="XMLID_5040_" class="st4" x1="365.5" y1="57.3" x2="367" y2="53.7"/>
					<g>
						<path id="XMLID_5039_" class="st7" d="M355.5,91.9c0,0,49.2-4.8,31.4,34.9C369.1,166.4,314.2,119.5,355.5,91.9z"/>
						<path id="XMLID_5038_" class="st2" d="M350.9,119.2c0,0,7.4-3,6.5,4.6C356.6,131.5,345.8,125.8,350.9,119.2z"/>
						<path id="XMLID_5037_" class="st7" d="M410.1,97.4c0,0-36.1,31.7,8.8,46.2C463.9,158.1,449.4,81.2,410.1,97.4z"/>
						<path id="XMLID_5036_" class="st2" d="M435.2,123.6c0,0,7.4-3,6.5,4.6C440.9,135.9,430.1,130.2,435.2,123.6z"/>
						<path id="XMLID_5035_" class="st2" d="M413.1,91c0,0-16.6,1.9-4.7,13.6c11.8,11.7,34.7,0.4,33.4-3.7
							C440.5,96.7,438.4,89.8,413.1,91z"/>
						<path id="XMLID_5034_" class="st2" d="M364.8,84c0,0-25.6-1.5-13.7,12.8s32.8-0.3,34.5-6.4C387.3,84.3,364.8,84,364.8,84z"/>
						<g id="XMLID_5031_">
							<path id="XMLID_5033_" class="st1" d="M440.2,142.3c0.3,0.1,0.6,0.2,1,0.3c1.3,0.3,2.4,0.5,3.7-0.9c3.1-3.4-4-4.4-4-4.4
								l-7.8-0.6c0,0-16.5-1.1-26.3,1.4c0,0,14.4,7.7,23.3,7.1c1-0.1,2-0.2,2.9-0.6C433.7,144.5,438.7,141.9,440.2,142.3z"/>
							<path id="XMLID_5032_" class="st1" d="M360.8,132.7c0,0,9.7-1.8,20.4,1.5c0,0-5.3,11.5-22.5,6.2c-5.6-1.7-6.8,1.5-9.9-1.9
								s4-4.4,4-4.4L360.8,132.7z"/>
						</g>
					</g>
				</g>
			</g>
		</g>
	</g>
</g>
</svg>
