<?xml version="1.0" encoding="utf-8"?>
<!-- Generator: Adobe Illustrator 22.1.0, SVG Export Plug-In . SVG Version: 6.00 Build 0)  -->
<svg version="1.1" id="Layer_1" xmlns="http://www.w3.org/2000/svg" xmlns:xlink="http://www.w3.org/1999/xlink" x="0px" y="0px"
	 viewBox="0 0 123.1 62" style="enable-background:new 0 0 123.1 62;" xml:space="preserve">
<style type="text/css">
	.st0{fill:#FFD767;stroke:#584C4F;stroke-width:2;stroke-miterlimit:10;}
	.st1{fill:#FFFAF2;stroke:#584C4F;stroke-width:2;stroke-miterlimit:10;}
</style>
<g id="Layer_5">
</g>
<g id="Layer_3">
</g>
<path id="XMLID_2386_" class="st0" d="M98.8,12.7c-1.9-0.1-72.8,0.2-79,1.4c-0.8,0.2-3,1.4-4.2,2.8c-1.7,2-3.9,5-4.5,8.3
	C11,25.6,10.9,38.9,11,39.3c-0.3,4.1,2.2,8.4,11.2,11.3c6.6,2.1,79.1,0.1,80.8,0c4.9-0.3,7.4-3.7,7.9-8c0.3-2.8,0.2-12.9,0.1-15.5
	C110.4,20.5,105.9,13.2,98.8,12.7z"/>
<g id="XMLID_2382_">
	<g>
		<path id="XMLID_2385_" class="st0" d="M98.8,2.7c-1.9-0.1-72.8,0.2-79,1.4c-0.8,0.2-3,1.4-4.2,2.8c-1.7,2-3.9,5-4.5,8.3
			C11,15.6,10.9,28.9,11,29.3c-0.3,4.1,2.2,8.4,11.2,11.3c6.6,2.1,79.1,0.1,80.8,0c4.9-0.3,7.4-3.7,7.9-8c0.3-2.8,0.2-12.9,0.1-15.5
			C110.4,10.5,105.9,3.2,98.8,2.7z"/>
		<path id="XMLID_2384_" class="st0" d="M105,32.8c0,0,1.1,2.2-0.7,3.2"/>
		<path id="XMLID_2383_" class="st0" d="M21.8,7.3c0,0-2.7,1.3-3.6,2.6"/>
	</g>
</g>
<g>
	<path id="XMLID_2381_" class="st1" d="M98.8,2.7c-1.9-0.1-72.8,0.2-79,1.4c-0.8,0.2-3,1.4-4.2,2.8c-1.7,2-3.9,5-4.5,8.3
		C11,15.6,10.9,28.9,11,29.3c-0.3,4.1,2.2,8.4,11.2,11.3c6.6,2.1,79.1,0.1,80.8,0c4.9-0.3,7.4-3.7,7.9-8c0.3-2.8,0.2-12.9,0.1-15.5
		C110.4,10.5,105.9,3.2,98.8,2.7z"/>
	<path id="XMLID_2380_" class="st0" d="M105,32.8c0,0,1.1,2.2-0.7,3.2"/>
	<path id="XMLID_2379_" class="st0" d="M21.8,7.3c0,0-2.7,1.3-3.6,2.6"/>
</g>
<g id="XMLID_18_">
	<path id="XMLID_20_" class="st0" d="M89.9,18.2c0,0-7.7-5.3-11,4.1s4.8,10.9,4.6,5.1c-0.2-5.7,1.8-6.2,4-5.3
		C89.7,23,92.8,22,89.9,18.2z"/>
	<path id="XMLID_19_" class="st0" d="M83.3,18.7c0,0-0.5-3.5-3.7-1.7s0.2,4.9,0.2,4.9"/>
</g>
<g id="XMLID_15_">
	<path id="XMLID_17_" class="st0" d="M62,10.6c0,0-4.7-4.5-4.8,4s-1.7,16.2,7.4,16.2c0,0,4.9-2.1,0-4.2c-2.4-1.1-2.9-3.3-2.8-6"/>
	<path id="XMLID_16_" class="st0" d="M60.9,20.3c0,0,3.5,1,3.1-2.8c-0.4-3.7-4.7-1.9-4.7-1.9"/>
</g>
<g id="XMLID_27_">
	<path id="XMLID_29_" class="st0" d="M74,18.5c0,0-1.3-0.9-1.8-0.2c-0.5,0.7-1.5,1.9-0.4,4.2c1.1,2.3,5.3,0.4,5.7-0.7"/>
	<path id="XMLID_28_" class="st0" d="M78.6,20.5L78.6,20.5c-0.8-2-2.4-3.6-5-3.9c-5.1-0.5-7.2,2.8-8,4.8c0,0-0.2,0.3-0.3,0.9
		c-0.1,0.4-0.1,0.6-0.1,0.8c-0.1,1.1,0.1,2.7,1.1,4.9c0.8,1.8,3,2.4,4.4,2.6c0.4,0.1,0.8,0.1,1.3,0.1c0,0,0,0,0,0l0,0
		c0.5,0,1-0.1,1.6-0.2c2.2-0.5,3.8-1.9,4.7-3.7c-0.1-2-1.9-2.3-2.9-2.4c-0.6-0.1-1.2,0.3-1.6,0.6c0,0-0.1,0.1-0.1,0.1
		c-1.5,1.1-5.5-1.1-3.4-2.7c0,0,0.7-0.8,1.5-1.1h0c0,0,0.7-0.4,1.2-0.2c0.2,0.1,0.4,0.2,0.5,0.5c0,0,0,0,0,0
		c0.1,0.1,0.1,0.3,0.2,0.4c0.7,1.1,2.2,2.6,3.6,1.6c1.6-1.2,1.4-1.6,1.5-2.1l0,0C79,21.3,78.6,20.5,78.6,20.5z"/>
</g>
<g id="XMLID_24_">
	<path id="XMLID_26_" class="st0" d="M41.8,18.5c0,0-1.3-0.9-1.8-0.2s-1.5,1.9-0.4,4.2c1.1,2.3,5.3,0.4,5.7-0.7"/>
	<path id="XMLID_25_" class="st0" d="M46.5,20.5L46.5,20.5c-0.8-2-2.4-3.6-5-3.9c-5.1-0.5-7.2,2.8-8,4.8c0,0-0.2,0.3-0.3,0.9
		C33,22.7,33,23,33,23.1c-0.1,1.1,0.1,2.7,1.1,4.9c0.8,1.8,3,2.4,4.4,2.6c0.4,0.1,0.8,0.1,1.3,0.1c0,0,0,0,0,0l0,0
		c0.5,0,1-0.1,1.6-0.2c2.2-0.5,3.8-1.9,4.7-3.7c-0.1-2-1.9-2.3-2.9-2.4c-0.6-0.1-1.2,0.3-1.6,0.6c0,0-0.1,0.1-0.1,0.1
		c-1.5,1.1-5.5-1.1-3.4-2.7c0,0,0.7-0.8,1.5-1.1h0c0,0,0.7-0.4,1.2-0.2c0.2,0.1,0.4,0.2,0.5,0.5c0,0,0,0,0,0
		c0.1,0.1,0.1,0.3,0.2,0.4c0.7,1.1,2.2,2.6,3.6,1.6c1.6-1.2,1.4-1.6,1.5-2.1l0,0C46.9,21.3,46.5,20.5,46.5,20.5z"/>
</g>
<g id="XMLID_21_">
	<path id="XMLID_23_" class="st0" d="M51.2,18.6c0,0-0.6-2.8-3.4-1.8c-2.8,1-1.4,11.8-0.1,12.6C49,30.2,52.6,35.3,51.2,18.6z"/>
	<path id="XMLID_22_" class="st0" d="M50.6,23.8c0,0,4.9-4.8,3.9,4.2c0,0,1.2,2.8,3.4,1.6c2.3-1.2,2.6-15.5-8.3-11.5"/>
</g>
</svg>
