<?xml version="1.0" encoding="utf-8"?>
<!-- Generator: Adobe Illustrator 22.1.0, SVG Export Plug-In . SVG Version: 6.00 Build 0)  -->
<svg version="1.1" id="Layer_1" xmlns="http://www.w3.org/2000/svg" xmlns:xlink="http://www.w3.org/1999/xlink" x="0px" y="0px"
	 viewBox="0 0 347.2 675.2" style="enable-background:new 0 0 347.2 675.2;" xml:space="preserve">
<style type="text/css">
	.st0{fill:#A36B78;stroke:#584C4F;stroke-width:2;stroke-linecap:round;stroke-miterlimit:10;}
	.st1{fill:#A36B78;stroke:#584C4F;stroke-width:2;stroke-linecap:round;stroke-linejoin:round;stroke-miterlimit:10;}
	.st2{fill:#FFD767;stroke:#584C4F;stroke-width:2;stroke-miterlimit:10;}
	.st3{fill:#A36B78;}
	.st4{fill:none;stroke:#584C4F;stroke-width:2;stroke-linecap:round;stroke-miterlimit:10;}
	.st5{fill:#BEAB72;}
	.st6{fill:#584C4F;stroke:#584C4F;stroke-width:2;stroke-linecap:round;stroke-miterlimit:10;}
	.st7{opacity:0.1;fill:#231F20;stroke:#231F20;stroke-miterlimit:10;enable-background:new    ;}
	.st8{fill:#FFFFFF;stroke:#584C4F;stroke-width:2;stroke-linecap:round;stroke-miterlimit:10;}
</style>
<g id="Layer_5">
</g>
<g id="Layer_3">
</g>
<g>
	<g>
		<path class="st0" d="M60.3,644.3c-0.6,1.2-0.7,2.3-0.1,3.7c0.1,0.3,0.3,0.6,0.5,1c0.7,1.3,2.2,2.5,4.2,3.9c1.6,1,3.4,2,5.4,3.1
			c1.3,0.7,2.6,1.3,4.1,2c1.1,0.6,2.3,1.1,3.4,1.6c1.2,0.5,2.4,0.9,3.5,1.3c1.5,0.6,2.9,1,4.3,1.5c2.2,0.7,4.2,1.2,6,1.6
			c2.3,0.5,4.3,0.6,5.7,0.3c0.4,0,0.8-0.2,1.1-0.3c1.1-0.5,1.8-1.1,2.2-1.9c-6.8-6.8-11.3-15.5-8.9-26.2c-0.6-1.3-1-2.1-1-2.1
			s0-0.4-0.2-0.9c0-0.1,0-0.3-0.1-0.4v-0.2c0.1-0.6,0.3-1.3,0.6-2.4l-0.8-0.4l-0.8-0.3l-14.6-4.6c-1.6,3.5-2.6,5.8-2.8,6.3
			c0,0.1,0,0.1,0,0.1s0,0.1,0.1,0.1c-2.1,2.8-4.1,4.9-5.9,6.7c-1.9,1.9-3.6,3.4-4.8,4.8C60.9,643.2,60.5,643.8,60.3,644.3z"/>
		<path class="st0" d="M163.7,392.5c1.1,6.5-37.4,107.2-50.9,145.2s-39.1,91.4-39.1,91.4l16.2,5.1c0,0,34.7-92.2,47.3-114.9
			c1.2-0.7,3.5-5,7.4-15.2l0,0c1.6-4,3.4-8.6,5.3-13.5c16.8-41.4,42.3-93.4,42.3-93.4"/>
		<g>
			<g id="XMLID_8589_">
				<path id="XMLID_8590_" class="st0" d="M107.3,671.3c-0.2-5.4,5.2-2.5,5.2-2.5C115.9,673.9,107.5,676.6,107.3,671.3z"/>
			</g>
			<g id="XMLID_8587_">
				<path id="XMLID_8588_" class="st0" d="M103.7,669.6c-0.1-5.9,5.8-2.7,5.8-2.7C113.3,672.5,104,675.5,103.7,669.6z"/>
			</g>
			<g id="XMLID_8585_">
				<path id="XMLID_8586_" class="st0" d="M99.4,667.4c-0.2-6.9,6.7-3.2,6.7-3.2C110.4,670.7,99.5,674.3,99.4,667.4z"/>
			</g>
			<g id="XMLID_8583_">
				<path id="XMLID_8584_" class="st0" d="M93.8,664.7c-0.2-7.9,7.7-3.7,7.7-3.7C106.5,668.6,94,672.6,93.8,664.7z"/>
			</g>
			<path id="XMLID_8582_" class="st0" d="M81.5,659.3c1.8-2.5,12.5-5.6,14.4,2.6s-7.6,3.5-7.6,3.5S79.8,661.8,81.5,659.3z"/>
		</g>
		<path id="XMLID_8581_" class="st0" d="M128.4,508.4c0.7-1.7,2.9-1,2.9-1"/>
		<path id="XMLID_8580_" class="st0" d="M131.5,523.9c-0.4,0.5-3.2,0.3-3.2,0.3"/>
		<g id="XMLID_8578_">
			<path id="XMLID_8579_" class="st0" d="M91,629.8c7.9,4.4-1.5,13.7-5.2,6.7"/>
		</g>
		<g id="XMLID_8576_">
			<path id="XMLID_8577_" class="st0" d="M136.3,513.4c9,1,4.1,13.1-2.1,8.3"/>
		</g>
	</g>
	<g>
		<g>
			<g id="XMLID_8574_">
				<path id="XMLID_8575_" class="st0" d="M218.1,349c8.6-2.5,8.8,10.6,1.2,8.5"/>
			</g>
			<path id="XMLID_8573_" class="st0" d="M208,225.7c-1.4,34-5.6,92.2-3.2,107.9c3.4,22,0,126.4,0,126.4l16.9,1.5
				c0,0-3.3-59.2-1.2-99.4c1.2-22.2,2.5-65,4.2-99.8"/>
			<g id="XMLID_8571_">
				<path id="XMLID_8572_" class="st0" d="M220.1,458.2c3.3-1.1,4.1,12.1,4.1,12.1s1.8,42.3-1.7,24.3c-3.5-18-5.3-16.1-3.6,5.4
					c1.6,21.6-7.4-22-8.8-15.1s-5.8,50.9-5.8-4.1c0,0,4.1-25.6-6.4,14.5s2.3-25.1,3.1-28.5s-12.9,19.5-9.1,10.1s5.9-11.8,12.8-19"/>
			</g>
			<path id="XMLID_8570_" class="st0" d="M211.2,350.7c0.2-0.6,3-1.2,3-1.2"/>
			<path id="XMLID_8569_" class="st0" d="M217.4,354.8c-0.6,1.8-2.8,1.4-2.8,1.4"/>
			<path id="XMLID_8568_" class="st1" d="M218,456.2c13.6-0.8,0-9.9,0-9.9"/>
		</g>
		<path id="XMLID_8567_" class="st2" d="M202.5,225.3c9.1,2.5,16.8,5.2,18.7,8.1c5.6,8.1,12.3,97.9-1.4,98.4s-15.6-0.1-15.3-5
			s-6-61.4-3.8-65.6"/>
		<path class="st0" d="M111.2,430.4c0,0,0.1,0,0.2,0c0.5,4.1,2,8.5,4.4,13c0,0,1.3,15.3,51.4,14.5c30.7-0.5,50.1-15.5,53.2-32.5l0,0
			c0.1-0.2,0.2-0.5,0.2-0.9c0.1-1,0.2-2.1,0.2-3.1c0.7-11.1,1.3-40.6,1.3-40.6L111,384.9C109.2,393.8,111.2,430.4,111.2,430.4z"/>
		<g>
			<path class="st2" d="M120.2,411.8c2.3-0.5,5.2-1,8.4-1.5l77.2-4c4-0.1,9.4,1.2,9.4,1.2c4.4,2.3,7.1,1.4,8.7-1.4
				c0.1-0.1,0.2-0.2,0.2-0.3c4.2-8,0.3-29.4-2.9-37.9c-0.2-0.5-0.4-1.2-0.6-2c-3.8-15.6-3.8-74.4-2.4-110.6
				c0.1-3.9,0.1-7.3-0.1-10.4c-1.4-26.8-28.8-27.1-46.6-27.9c-18.8-0.8-32.5,3-39.2,8.6c-3.5,1-8.8,3-13,6.2c-3.1,2.3-5.6,5.3-6.4,9
				c-0.1,0.4-0.1,0.9-0.2,1.3c-1.5,13.2-4.5,93.7-5.9,101c-0.3,1.4-1,5.9-1.9,11.9c-0.1,0.7-0.2,1.4-0.3,2.2
				C101.3,382.1,97.8,428.3,120.2,411.8z"/>
			<path class="st2" d="M214.9,407.5c4.4,2.3,7.1,1.4,8.7-1.4c0.1-0.1,0.2-0.2,0.2-0.3c4.2-8,0.3-29.4-2.9-37.9
				c-0.2-0.5-0.4-1.2-0.6-2c-3.7-15.6-3.7-74.4-2.3-110.6c0-0.9,0.1-1.7,0.1-2.6"/>
			<path class="st2" d="M217.2,238.9c-5-20.9-29.4-21.2-45.8-21.9c-18.8-0.8-32.5,3-39.2,8.6c-3.5,1-8.8,3-13,6.2
				c-3.1,2.3-5.6,5.3-6.4,9c-0.1,0.4-0.1,0.9-0.2,1.3c-1.5,13.2-4.5,93.7-5.9,101c-0.3,1.4-1,5.9-1.9,11.9c-0.1,0.7-0.2,1.4-0.3,2.2
				c-3.3,24.8-6.7,71,15.6,54.5c2.3-0.5,5.2-1,8.4-1.5l77.2-4"/>
		</g>
		<path id="XMLID_8566_" class="st0" d="M114.8,406.9c3.6-13.7-5.1-107.3-5.1-107.3"/>
		<g>
			<path id="XMLID_8565_" class="st3" d="M153,224.7c9.6,21.2,33.7,8.3,33.8-8c0-2.9,0-14.1,0.1-17.5c0.1-2.6,0.5-17.7-3-25.5
				c-11.2-25-42.7-2.6-31.3,16.8c-0.6,2.2-1,4.7-1.2,7.6c-0.2,3.2-1.3,13.2-1.1,16.6"/>
			<path id="XMLID_8564_" class="st4" d="M154.8,228c-0.5-0.9-1.1-2-1.6-3.1l-2.8-10.1c-0.3-3.5,0.9-13.4,1.1-16.6
				c0.1-3,0.6-5.5,1.2-7.6c-11.4-19.5,20.1-41.8,31.3-16.8c3.5,7.8,3.1,22.9,3,25.5c-0.1,3.4-0.2,14.6-0.2,17.5
				c0,13.7-17.3,25.1-28.4,15.5"/>
		</g>
		<g>
			<g id="XMLID_8562_">
				<path id="XMLID_8563_" class="st0" d="M115.6,357.8c-9-1.1-3.9-13.2,2.2-8.2"/>
			</g>
			<path id="XMLID_8561_" class="st0" d="M127.9,248.4c1.7,32.7,4.1,72.6,2.1,85.2c-3.4,22,0,126.4,0,126.4l-16.9,1.5
				c0,0,3.2-59.2,1.1-99.4c-1-18.4-2.1-51-3.4-81.5"/>
			<path id="XMLID_8560_" class="st0" d="M118.5,351.8c0-1.9,2.3-2,2.3-2"/>
			<path id="XMLID_8559_" class="st0" d="M124.4,354.8c-0.2,0.6-2.9,1.5-2.9,1.5"/>
			<g id="XMLID_8546_">
				<path id="XMLID_8558_" class="st3" d="M129.9,459.2l-16.2-3.8c0,0-21.4,35-14.1,35.1c3.9,0.1,5.3-0.9,5.9-1.9
					c-0.5,3.3-0.8,9.4,4.8,6.5l0.1-1.5c1.3,2.1,5.5,8.4,8.9,2l1.1-0.5c2.5,2.1,7.7,5.3,6.9-5.5c1.5,0.1,3.5,0,6.4-0.8
					C148.5,485,129.9,459.1,129.9,459.2z"/>
				<path id="XMLID_8557_" class="st0" d="M113.7,455.3c0,0-21.4,35-14.1,35.1c3.9,0.1,5.3-0.9,5.9-1.9c-0.5,3.3-0.8,9.4,4.8,6.5
					l0.1-1.5c1.3,2.1,5.5,8.4,8.9,2l1.1-0.5c2.5,2.1,7.7,5.3,6.9-5.5c1.5,0.1,3.5,0,6.4-0.8c14.8-3.7-3.8-29.6-3.8-29.6"/>
				<g id="XMLID_8550_">
					<g id="XMLID_8552_">
						<path id="XMLID_8556_" class="st1" d="M110.2,495.1c-7.5,3.8-4.4-8.4-4.4-8.4c-0.1,0.3,1.1,3.9-6.2,3.8
							c-7.3-0.1,14.1-35.1,14.1-35.1"/>
						<path id="XMLID_8555_" class="st1" d="M119.6,495c-4.2,8.4-9.4-2.1-9.4-2.1"/>
						<path id="XMLID_8554_" class="st1" d="M130.5,482.5c-4.2-0.4-11.6,9.9,3.2,6.2s-3.8-29.6-3.8-29.6"/>
						<path id="XMLID_8553_" class="st1" d="M126.7,480.3l0.5,8c1.7,15.9-8.1,5.5-8.1,5.5"/>
					</g>
					<path id="XMLID_8551_" class="st1" d="M116.3,443.5c-10,0.8,0,10.9,0,10.9"/>
				</g>
				<path id="XMLID_8549_" class="st0" d="M119.6,487.3c0.8-2.6,0.4-7.5,0.4-7.5"/>
				<path id="XMLID_8548_" class="st0" d="M111.2,489.1c0.8,0,0.9-3.5,0.9-3.5"/>
				<path id="XMLID_8547_" class="st1" d="M107.6,478.6c0,0,2.9-4.8,3.6-7"/>
			</g>
		</g>
		<path id="XMLID_8545_" class="st2" d="M133.7,228.2c-9.1,2.5-16.8,5.2-18.7,8.1c-5.6,8.1-12.3,97.9,1.4,98.4s15.6-0.1,15.3-5
			s6-61.3,3.8-65.5"/>
		<g>
			<path class="st5" d="M140.5,265.4c0.3,6.9,4,7.1,12.1,6.1c8.2-1.1,3.7-16.3,2.8-21.1c-0.9-4.7-14.6,0.4-14.6,0.4
				S140.2,258.5,140.5,265.4z"/>
			<g>
				<path id="XMLID_8527_" class="st0" d="M140.6,254.1c-1-1.5,0.8-2.9,0.8-2.9"/>
				<path id="XMLID_8526_" class="st0" d="M157,252.9c-0.7-1.2-3.2-2.4-3.2-2.4"/>
				<path id="XMLID_8525_" class="st0" d="M140.7,258.2c-0.5,1.4,0.3,4,0.3,4"/>
				<path id="XMLID_8524_" class="st0" d="M150.6,271.5c1.3,0.3,3.9-0.8,3.9-0.8"/>
				<path id="XMLID_8523_" class="st0" d="M145.2,270.1c-1.7,0.6-2.6-1.4-2.6-1.4"/>
				<path id="XMLID_8522_" class="st0" d="M157.5,260.2c-0.5-0.5-0.9-2.4-0.9-2.4"/>
				<line id="XMLID_8521_" class="st4" x1="149.5" y1="249.9" x2="146.8" y2="250"/>
				<path id="XMLID_8520_" class="st0" d="M157.6,268.9c0.5-1.3-0.1-4-0.1-4"/>
			</g>
			<g>
				<path id="XMLID_8519_" class="st0" d="M188,434.6c1.3,1.7-0.4,4.6-0.4,4.6"/>
				<path id="XMLID_8518_" class="st0" d="M186,430.2c-0.3-1.4-2.2-3.4-2.2-3.4"/>
				<path id="XMLID_8517_" class="st0" d="M183.1,447.4c1-0.9,1.8-3.5,1.8-3.5"/>
			</g>
		</g>
		<g id="XMLID_8439_">
			<g id="XMLID_8513_">
				<path id="XMLID_8516_" class="st0" d="M207.6,155.7c0,0,0.1,5.4,6.6,7.8c6.4,2.5,11.4-17,10.9-35.1c-0.4-18.1-17.9,5.1-17.9,5.1
					"/>
				<path id="XMLID_8515_" class="st0" d="M221.5,129.1c-1.7-5-8.5,5.6-8.5,5.6"/>
				<path id="XMLID_8514_" class="st0" d="M212.2,148.5c1.7,6.5,5.4,2.6,6.8-3.2c1.5-5.9-8.6-3.2-8.6-3.2"/>
			</g>
			<path id="XMLID_8512_" class="st6" d="M153.1,60.5c8.2-2.6,1.6-8.4,1.6-8.4C147.6,49.2,145,63.2,153.1,60.5z"/>
			<path id="XMLID_8511_" class="st0" d="M207.5,179.6c-3.3,16.5-19.5,38.2-49.1,31.9s-27.8-17.7-35-79.6s45.2-65.7,45.2-65.7
				C234.4,74.3,210.8,163.1,207.5,179.6z"/>
			<path class="st7" d="M123.5,131.9c7.3,62,5.3,73.3,34.9,79.6c21,4.5,35.2-5.1,42.9-16.9c-7.8,4.9-18,7.3-30.7,4.6
				c-29.5-6.3-27.5-17.7-34.9-79.6c-2.4-20.5,1.7-34.5,8.3-44.3C131.5,83.9,119.7,100.3,123.5,131.9z"/>
			<path id="XMLID_8510_" class="st2" d="M125.9,98.6c0,0,18.5-8.8,38.1-16.7c15.5,3.8,32.4,5.3,32.4,4
				c-0.1-13.4-3.9-49.1-41.5-32.2c-8.8,2.7-18.3,8-24.2,17.2c-0.5,0.7-0.9,1.4-1.3,2.1l0,0c0,0-0.1,0-0.1,0.1
				c-1.8,3.3-2.7,5.9-2.9,7.9C124.6,87.1,125.9,98.6,125.9,98.6z"/>
			<path id="XMLID_8509_" class="st0" d="M152.5,139.9c12.1,4.3,21.5-2.7,21.5-2.7"/>
			<path id="XMLID_8508_" class="st0" d="M215.2,139.4c-3.2,1.3-18.3-1.9-18.3-1.9"/>
			<path id="XMLID_8507_" class="st0" d="M161.4,208.7c-2.5,4.8,5.9,8.2,18.8,5.7s6.7-8.3,6.7-8.3"/>
			<path id="XMLID_8506_" class="st2" d="M219.4,84.1c0,0,6.1-8.8-17-10.3c-23-1.5-68.6-1.3-76.2,24.7c0,0,12.4-5.5,35.9-10.7
				s43.6,3,43.6,3C215.9,88.3,219.4,84.1,219.4,84.1z"/>
			<path id="XMLID_8505_" class="st0" d="M126.2,98.5c0,0,9.1-23.7,64.2-21.2c55.1,2.4,15.3,13.5,15.3,13.5
				C177.1,76.5,126.2,98.5,126.2,98.5z"/>
			<g>
				<path id="XMLID_8504_" class="st0" d="M186.6,123.5c0.2,6.5-9.2,18.3-9.2,18.3"/>
				<g id="XMLID_8501_">
					<path id="XMLID_8503_" class="st0" d="M186,148c0.5,0.2,1,0.5,1.6,0.6c0.8,0.3,1.8,0.3,2.9,0.1c2-0.4,3-2.5,3.3-5.6"/>
					<path id="XMLID_8502_" class="st0" d="M192.8,138.5c-2-13.5-9.2-32.8-9.2-32.8"/>
				</g>
				<g id="XMLID_8495_">
					<path id="XMLID_8500_" class="st0" d="M193,155.1c11.1-2.3,4.2-10.4,4.2-10.4"/>
					<path id="XMLID_8499_" class="st0" d="M181.1,155.1c-10.5-4.3-3.1-10.4-3.1-10.4"/>
					<path id="XMLID_8498_" class="st0" d="M181.4,151.6c-1.6-0.4-2.9,0.1-1.7-1.8s2.7,0.3,3.8,0S183,152,181.4,151.6z"/>
					<path id="XMLID_8497_" class="st0" d="M192.8,150.8c1.2-0.7,2.4-1.2,2.8-0.9c1.1,0.9,0.6,2.6-1.5,2.7
						C194.1,152.6,192,151.3,192.8,150.8z"/>
					<path id="XMLID_8496_" class="st0" d="M183.9,141.2c0.5-0.8,2.7-0.7,2.7-0.7"/>
				</g>
				<path id="XMLID_8494_" class="st0" d="M209.2,153.4c-1.8-0.6-7.9-3.7-7.9-3.7"/>
				<path id="XMLID_8493_" class="st0" d="M165.8,151.5c0.7,0,7.8-3.4,7.8-3.4"/>
			</g>
			<path id="XMLID_8492_" class="st0" d="M144,120.7c-1.6-0.9-0.6-3-0.6-3"/>
			<path id="XMLID_8491_" class="st0" d="M149.9,141.2c-0.6-0.7-1-2.5-1-2.5"/>
			<path id="XMLID_8490_" class="st0" d="M148.3,98.7c-0.8,0,0,3.5,0,3.5"/>
			<path id="XMLID_8489_" class="st0" d="M196.5,91.3c-0.4-0.6,2.9-1,2.9-1"/>
			<path id="XMLID_8488_" class="st0" d="M175.1,95.2c0.3,0.7,4.1,1.3,4.1,1.3"/>
			<path id="XMLID_8486_" class="st0" d="M195,192c0.2-0.6,3-1.2,3-1.2"/>
			<path id="XMLID_8485_" class="st0" d="M177.9,194.4c-0.7-1.2-3.3-2.4-3.3-2.4"/>
			<path id="XMLID_8484_" class="st0" d="M200.6,130.4"/>
			<path id="XMLID_8483_" class="st0" d="M182.3,132.5"/>
			<line id="XMLID_8482_" class="st4" x1="153.4" y1="152.2" x2="156.1" y2="152.9"/>
			<path id="XMLID_8481_" class="st0" d="M132.2,162.2c0,0,0.3,5.4-5.9,8.4s-12.8-16-13.9-34.1c-1-18,18.4,3.6,18.4,3.6"/>
			<path id="XMLID_8480_" class="st0" d="M116.2,137c1.3-5.2,9,4.8,9,4.8"/>
			<path id="XMLID_8479_" class="st0" d="M127.2,155.5c-1.2,6.5-5.2,3-7.1-2.7s8.3-3.9,8.3-3.9"/>
			<g>
				<path id="XMLID_8478_" class="st8" d="M190.3,124c-13-28.8,22.8-25.4,22.8-25.4C243.1,118.7,203.3,152.8,190.3,124z"/>
				<path id="XMLID_8477_" class="st6" d="M206.7,116.9c-0.6-5.6,4.8-3.4,4.8-3.4C215.2,118.3,207.3,122.4,206.7,116.9z"/>
				<path id="XMLID_8476_" class="st8" d="M166.9,136.3c32.6-10.6,6.4-33.7,6.4-33.7C144.8,90.9,134.3,146.9,166.9,136.3z"/>
				<path id="XMLID_8475_" class="st6" d="M150.3,120.1c-0.6-5.6,4.8-3.4,4.8-3.4C158.8,121.5,150.9,125.7,150.3,120.1z"/>
				<path id="XMLID_8474_" class="st6" d="M150.3,105.2c-0.9,3,15.6,11.2,24.3,2.7s-3.4-9.9-3.4-9.9
					C152.8,97.1,151.2,102.2,150.3,105.2z"/>
				<path id="XMLID_8452_" class="st6" d="M191.2,97.5c1.2,4.5,16.5,15,25.1,4.7c8.6-10.3-10-9.3-10-9.3S190,93,191.2,97.5z"/>
				<g id="XMLID_8449_">
					<path id="XMLID_8451_" class="st0" d="M156.7,137.2c0.7,0.2,1.3,0.3,2.1,0.4c6.4,0.4,16.9-5.2,16.9-5.2
						c-7-1.9-19.1-1.1-19.1-1.1l-5.7,0.4c0,0-5.1,0.8-2.9,3.2c1,1,1.9,0.8,2.8,0.6c0.3,0,0.5-0.1,0.7-0.2
						C152.6,135,156.2,136.9,156.7,137.2z"/>
					<path id="XMLID_8450_" class="st0" d="M215,129.5c0,0,5.1,0.7,2.9,3.1c-2.3,2.5-3.1,0.2-7.2,1.4c-12.5,3.8-16.4-4.6-16.4-4.6
						c7.8-2.4,14.9-1.1,14.9-1.1L215,129.5z"/>
				</g>
			</g>
			<g id="XMLID_8444_">
				<path id="XMLID_8448_" class="st6" d="M209.4,178.8c10.7-7-8.5-9.5-8.5-9.5S198.7,185.7,209.4,178.8z"/>
				<path id="XMLID_8447_" class="st6" d="M190.9,167.3c1,3.5,14,11.9,21.4,3.7c7.2-8.2-8.6-7.3-8.6-7.3S189.9,163.8,190.9,167.3z"
					/>
				<path id="XMLID_8446_" class="st6" d="M162.9,180.2c0.8,2.8,14.2,4.5,15.5-5.3s-6.4-7.2-6.4-7.2
					C160.8,172.7,162.1,177.4,162.9,180.2z"/>
				<path id="XMLID_8445_" class="st6" d="M178.9,173.1c22.2-10.8-0.3-8-0.3-8C153,168.5,156.7,183.9,178.9,173.1z"/>
			</g>
			<g id="XMLID_8440_">
				<path id="XMLID_8443_" class="st0" d="M180.4,178.7c6.5,11.6,18.3,0,18.3,0"/>
				<path id="XMLID_8442_" class="st0" d="M190.3,176.9c2.5-3.4,5.7,0,5.7,0"/>
				<path id="XMLID_8441_" class="st0" d="M190.3,176.9c-2.4-3.4-5.6,0-5.6,0"/>
			</g>
		</g>
		<path id="XMLID_8438_" class="st0" d="M153.4,233c0.7,1.3,1.5,1.9,2.4,2.2"/>
		<path id="XMLID_8437_" class="st0" d="M186.5,230.4c0.8-1,1-2.1,1-2.1"/>
		<path id="XMLID_8436_" class="st0" d="M179.5,238.2c0.3-0.1,0.7-0.3,0.9-0.4"/>
		<path id="XMLID_8435_" class="st2" d="M209,273.3c-4.5,13.5-1.7,107.4-1.7,107.4"/>
	</g>
	<g>
		<path class="st0" d="M227.7,669.7c0.2,1.3,0.8,2.3,2,3.1c0.3,0.2,0.6,0.4,1,0.6c1.3,0.7,3.3,0.9,5.7,0.9c1.8,0,3.9-0.1,6.2-0.4
			c1.4-0.1,2.9-0.3,4.5-0.6c1.2-0.2,2.5-0.4,3.7-0.6c1.2-0.3,2.4-0.6,3.6-0.9c1.5-0.4,3-0.8,4.4-1.2c2.3-0.6,4.2-1.3,5.9-2
			c2.2-0.9,3.9-1.9,4.9-3c0.3-0.3,0.5-0.6,0.7-0.9c0.7-1,0.9-1.9,0.8-2.8c-9.4-1.9-18-6.6-21.9-16.9c-1.2-0.7-2-1.2-2-1.2
			s-0.3-0.3-0.7-0.6c-0.1,0-0.2-0.1-0.3-0.2c0-0.1-0.1-0.2-0.1-0.2c-0.2-0.5-0.5-1.2-0.8-2.3l-0.8,0.1l-0.8,0.2l-14.7,4.3
			c0.7,3.8,1.1,6.3,1.2,6.8c0,0.1,0,0.1,0,0.1s0,0,0.1,0c-0.2,3.5-0.7,6.4-1.2,8.9c-0.5,2.7-1.1,4.9-1.3,6.7
			C227.7,668.4,227.7,669.1,227.7,669.7z"/>
		<path class="st0" d="M230.5,649.3l16.3-4.7c0,0-9.8-42.1-17.1-78.1c-2.8-14.2-5.3-27.5-6.6-36.8c-0.2-0.4-0.4-0.7-0.6-1.1
			c0.2-1.4-2.2-5.7-8.5-14.6l0,0c-2.5-3.6-5.3-7.6-8.3-11.9c-2.8-4.2-5.7-8.6-8.6-13c-22.6-34.7-45.5-74.1-45.5-74.1l-19.9,21.1
			c5,2.3,48.6,62.9,77.1,102.1c1.3,5.1,2.4,9.7,3.4,13.6C222.1,590.8,230.5,649.5,230.5,649.3z"/>
		<g>
			<g id="XMLID_8433_">
				<path id="XMLID_8434_" class="st0" d="M282,666c-3.2-4.4,2.9-5,2.9-5C290.5,663.3,285,670.3,282,666z"/>
			</g>
			<g id="XMLID_8431_">
				<path id="XMLID_8432_" class="st0" d="M278,666.5c-3.4-4.8,3.3-5.5,3.3-5.5C287.6,663.6,281.5,671.3,278,666.5z"/>
			</g>
			<g id="XMLID_8429_">
				<path id="XMLID_8430_" class="st0" d="M273.1,667.1c-4-5.6,3.8-6.4,3.8-6.4C284.2,663.8,277.1,672.8,273.1,667.1z"/>
			</g>
			<g id="XMLID_8427_">
				<path id="XMLID_8428_" class="st0" d="M267,668c-4.5-6.4,4.4-7.3,4.4-7.3C279.7,664.1,271.6,674.4,267,668z"/>
			</g>
			<path id="XMLID_8426_" class="st0" d="M253.9,670.2c0.1-3,7.3-11.6,13.4-5.8s-4.4,7.2-4.4,7.2S253.7,673.3,253.9,670.2z"/>
		</g>
		<path id="XMLID_8425_" class="st0" d="M208.9,518.7c-0.3-1.8,1.9-2.4,1.9-2.4"/>
		<path id="XMLID_8424_" class="st0" d="M220.1,530c0,0.6-2.5,2-2.5,2"/>
		<g id="XMLID_8422_">
			<path id="XMLID_8423_" class="st0" d="M245.3,640.5c9-0.6,6.4,12.2-0.6,8.5"/>
		</g>
		<g id="XMLID_8420_">
			<path id="XMLID_8421_" class="st0" d="M218.4,518.5c8-4.1,10.7,8.7,2.8,8.1"/>
		</g>
	</g>
</g>
</svg>
