<?xml version="1.0" encoding="utf-8"?>
<!-- Generator: Adobe Illustrator 23.0.3, SVG Export Plug-In . SVG Version: 6.00 Build 0)  -->
<svg version="1.1" id="Layer_1" xmlns="http://www.w3.org/2000/svg" xmlns:xlink="http://www.w3.org/1999/xlink" x="0px" y="0px"
	 viewBox="0 0 79 47" style="enable-background:new 0 0 79 47;" xml:space="preserve">
<style type="text/css">
	.st0{opacity:0.1;}
	.st1{fill:#FFFFFF;}
	.st2{fill:#2C2C2C;}
</style>
<g id="Layer_5" class="st0">
</g>
<g id="Layer_3" class="st0">
</g>
<g>
	<g>
		<g>
			<path class="st1" d="M1.9,3.7c0,0,0.8-1.6,2.6-1.5c0,0,68.5,0.1,70.5,0c1.7-0.1,2.6,1.5,2.6,1.5s0.1,38.7-0.8,40.3
				c0,0-0.8,1.6-2.6,1.5c0,0-10.4,0.1-23.1,0.2c0-0.1,0-0.2-0.1-0.3c-0.4-0.3-11-11-11-11c-0.3-0.3-0.8,0-0.8,0
				c-1.3,1.2-10.8,11.1-10.8,11.1s-0.1,0.2-0.1,0.4c-11.4,0-20.9-0.1-23-0.3c-1.7-0.2-2.6-1.5-2.6-1.5S1.5,8.2,1.9,3.7z"/>
			<g>
				<path class="st2" d="M3.2,4.4c1-1.5,5.2-0.8,6.5-0.8c4.4,0,8.8,0,13.2,0c11.4,0,22.7,0,34.1,0c4.2,0,8.5,0,12.7,0
					c1.2,0,5.7-0.6,6.3,0.2c0.4,0.5,0,2.7,0,3.3c0,2.3,0,4.6,0,6.8c0,5.7-0.1,11.4-0.2,17c0,2.6-0.1,5.3-0.2,7.9
					c0,0.9,0.3,3.6-0.3,4.4c-1.2,1.4-6.5,0.6-7.9,0.6c-5.4,0-10.9,0.1-16.3,0.1c0.5,0.4,1,0.7,1.4,1.1c-1.1-2.6-4.6-5-6.5-6.9
					c-1.5-1.5-3.9-5.3-6.2-5.5c-2.5-0.3-5,3.8-6.6,5.3c-1.8,1.8-5.8,4.6-6.5,7.2c0.5-0.4,1-0.7,1.4-1.1c-5,0-10,0-15-0.1
					c-2.5,0-7.3,0.7-9.3-1.1C4,43,4.3,44.2,4.1,42.9c-0.1-0.6,0-1.3-0.1-2c-0.1-2.3-0.1-4.5-0.2-6.8C3.5,24,2.5,13.4,3.3,3.3
					c0.2-1.9-2.8-1.9-3,0c-0.9,11.5,0.2,23.4,0.6,34.9C1,41.1,0.2,44.5,3.3,46c2.3,1.1,5.5,0.7,7.9,0.7c5.6,0.1,11.3,0.1,16.9,0.1
					c0.6,0,1.3-0.5,1.4-1.1c-0.1,0.5,0.9-1,1.4-1.4c1.2-1.3,2.4-2.5,3.6-3.8c1.1-1.2,2.3-2.4,3.4-3.5c0.5-0.5,1.1-1,1.5-1.5
					c0.6-0.7-0.4-0.3-0.6-0.4c2,1,4,4.1,5.6,5.6c1.2,1.2,4.8,4.3,5,4.9c0.3,0.6,0.7,1.1,1.4,1.1c5.4,0,10.9-0.1,16.3-0.1
					c2.3,0,4.9,0.3,7.2-0.1c4.1-0.8,3.9-3.8,4.1-7.2c0.5-11.4,0.8-23.1,0.4-34.5c-0.3-6.5-10-4.5-14.6-4.5c-12.9,0-25.9,0-38.8,0
					c-5.8,0-11.5,0-17.3,0c-2.8,0-6-0.5-7.8,2.2C-0.4,4.6,2.2,6.1,3.2,4.4z"/>
			</g>
		</g>
		<g>
			<path class="st1" d="M39.2,34.3c0,0,0.6-0.3,0.8,0c0,0,10.7,10.8,11,11c0.1,0.1,0.1,0.2,0.1,0.3c-7.4,0-15.5,0.1-22.9,0.1
				c0-0.2,0.1-0.4,0.1-0.4S37.9,35.4,39.2,34.3z"/>
			<g>
				<path class="st2" d="M39.6,35.7c-0.7,0.3-0.6-0.7-0.2,0c0.2,0.4,0.8,0.8,1.1,1.1c1.3,1.3,2.6,2.6,3.8,3.8s2.4,2.4,3.6,3.6
					c0.4,0.4,1.9,2,1.8,1.6c0.5-0.6,1-1.3,1.4-1.9c-7.6,0-15.3,0.1-22.9,0.1c0.5,0.6,1,1.3,1.4,1.9c-0.1,0.5,0.9-1,1.3-1.4
					c1.1-1.1,2.2-2.3,3.3-3.4c1.9-2,3.8-4.1,5.9-6c1.4-1.3-0.7-3.4-2.1-2.1c-2.4,2.2-4.6,4.6-6.9,7c-1.3,1.4-3.9,3.1-4.4,5.1
					C26.5,46,27.2,47,28.1,47c7.6,0,15.3,0,22.9-0.1c0.9,0,1.8-1,1.4-1.9c-1.2-2.9-5-5.4-7.1-7.6c-1.4-1.4-4.2-5.7-6.7-4.8
					C37,33.5,37.7,36.4,39.6,35.7z"/>
			</g>
		</g>
	</g>
	<g>
		<g>
			<path class="st1" d="M47,23.9c0-0.2,0-0.3,0-0.5c0-0.7,0-1.3,0.2-2s0.4-1.5,0.7-2.3c0,0,0.1-0.1,0.2-0.2c0.4-1.2,1-2.2,1.9-3
				c0.8-0.9,1.8-1.6,3-2c0.6-0.4,1.2-0.7,1.9-1c0,0,0.5,0,1.2,0c0.8-0.3,1.5-0.4,2.3-0.3c0.2,0,0.3,0,0.5,0c0.7,0,1.3,0,2,0.2
				s1.5,0.4,2.3,0.7c0,0,0.1,0.1,0.2,0.2c1.2,0.4,2.2,1,3,1.9c0.9,0.8,1.6,1.8,2,3c0.4,0.6,0.7,1.2,1,1.9c0,0,0,0.5,0,1.2
				c0.3,0.8,0.4,1.5,0.3,2.3c0,0.2,0,0.3,0,0.5c0,0.7,0,1.3-0.2,2s-0.4,1.5-0.7,2.3c0,0-0.1,0.1-0.2,0.2c-0.4,1.2-1,2.2-1.9,3
				c-0.8,0.9-1.8,1.6-3,2c-0.6,0.4-1.2,0.7-1.9,1c0,0-0.5,0-1.2,0c-0.8,0.3-1.5,0.4-2.3,0.3c-0.2,0-0.3,0-0.5,0c-0.7,0-1.3,0-2-0.2
				s-1.5-0.4-2.3-0.7c0,0-0.1-0.1-0.2-0.2c-1.2-0.4-2.2-1-3-1.9c-0.9-0.8-1.6-1.8-2-3c-0.4-0.6-0.7-1.2-1-1.9c0,0,0-0.5,0-1.2
				C47.1,25.4,47,24.6,47,23.9z"/>
			<g>
				<path class="st2" d="M48.5,23.9C48.3,11.1,67.6,11.3,68.1,24c0.2,5.6-4.6,9.5-9.9,9.7C52.5,34,48.7,29.2,48.5,23.9
					c-0.1-1.9-3.1-1.9-3,0c0.3,7.1,5.3,13,12.7,12.9c7.2-0.1,12.9-5.4,12.9-12.7C70.9,7.4,45.2,7.4,45.5,24
					C45.5,25.8,48.5,25.8,48.5,23.9z"/>
			</g>
		</g>
		<g>
			<path class="st1" d="M9.1,23.9c0-0.2,0-0.3,0-0.5c0-0.7,0-1.3,0.2-2s0.4-1.5,0.7-2.3c0,0,0.1-0.1,0.2-0.2c0.4-1.2,1-2.2,1.9-3
				c0.8-0.9,1.8-1.6,3-2c0.6-0.4,1.2-0.7,1.9-1c0,0,0.5,0,1.2,0c0.8-0.3,1.5-0.4,2.3-0.3c0.2,0,0.3,0,0.5,0c0.7,0,1.3,0,2,0.2
				s1.5,0.4,2.3,0.7c0,0,0.1,0.1,0.2,0.2c1.2,0.4,2.2,1,3,1.9c0.9,0.8,1.6,1.8,2,3c0.4,0.6,0.7,1.2,1,1.9c0,0,0,0.5,0,1.2
				c0.3,0.8,0.4,1.5,0.3,2.3c0,0.2,0,0.3,0,0.5c0,0.7,0,1.3-0.2,2s-0.4,1.5-0.7,2.3c0,0-0.1,0.1-0.2,0.2c-0.4,1.2-1,2.2-1.9,3
				c-0.8,0.9-1.8,1.6-3,2c-0.6,0.4-1.2,0.7-1.9,1c0,0-0.5,0-1.2,0c-0.8,0.3-1.5,0.4-2.3,0.3c-0.2,0-0.3,0-0.5,0c-0.7,0-1.3,0-2-0.2
				s-1.5-0.4-2.3-0.7c0,0-0.1-0.1-0.2-0.2c-1.2-0.4-2.2-1-3-1.9c-0.9-0.8-1.6-1.8-2-3c-0.4-0.6-0.7-1.2-1-1.9c0,0,0-0.5,0-1.2
				C9.2,25.4,9.1,24.6,9.1,23.9z"/>
			<g>
				<path class="st2" d="M10.6,23.9C10.4,11.1,29.7,11.3,30.2,24c0.2,5.6-4.6,9.5-9.9,9.7C14.7,34,10.9,29.2,10.6,23.9
					c-0.1-1.9-3.1-1.9-3,0c0.3,7.1,5.3,13,12.7,12.9c7.2-0.1,12.9-5.4,12.9-12.7C33,7.4,7.3,7.4,7.6,24
					C7.7,25.8,10.7,25.8,10.6,23.9z"/>
			</g>
		</g>
	</g>
</g>
</svg>
