<?xml version="1.0" encoding="utf-8"?>
<!-- Generator: Adobe Illustrator 23.0.3, SVG Export Plug-In . SVG Version: 6.00 Build 0)  -->
<svg version="1.1" id="Layer_1" xmlns="http://www.w3.org/2000/svg" xmlns:xlink="http://www.w3.org/1999/xlink" x="0px" y="0px"
	 viewBox="0 0 340.1 73.3" style="enable-background:new 0 0 340.1 73.3;" xml:space="preserve">
<style type="text/css">
	.st0{fill:#FFFFFF;}
	.st1{fill:#2C2C2C;}
	.st2{fill:none;}
</style>
<g>
	<path class="st0" d="M261.3,42.8c-0.1-0.7-0.2-1.4-0.3-2.1c-0.2-0.8-0.4-1.6-0.7-2.3c-0.2-0.7-0.5-1.3-0.8-1.9
		c-0.3-0.7-0.7-1.3-1.1-1.9c-0.2-0.3-0.4-0.5-0.6-0.8c-0.1-0.2-0.1-0.4-0.2-0.7c-0.2-0.6-0.6-1.1-1-1.6c-0.4-0.6-1-1-1.6-1.5
		c-0.4-0.3-0.7-0.5-1.1-0.8c-0.8-0.5-1.6-0.8-2.4-1.2c-1.2-0.5-2.4-0.8-3.6-1c-0.6-0.1-1.2-0.1-1.7-0.1c-0.5,0-0.9,0.1-1.4,0.1
		c-0.5,0.1-1,0.2-1.5,0.4c-0.2,0.1-0.3,0.1-0.5,0.2c0.1-1.3,0.2-2.6,0.3-3.9c0.1-3.7-0.1-7.4-0.7-11.1c0-0.2-0.1-0.3-0.2-0.4
		c0,0,0,0,0-0.1c0.2-0.7,0.1-1.5,0-2.2c-0.1-0.9-0.5-1.8-0.9-2.6c-0.5-0.9-1.1-1.7-1.7-2.5c-0.3-0.4-0.7-0.7-1-1.1
		c-0.4-0.4-0.9-0.7-1.3-1c-0.7-0.5-1.6-0.8-2.5-1c-0.7-0.2-1.5-0.2-2.2-0.1c-0.4,0-0.7,0.1-1.1,0.2c-0.4,0.1-0.7,0.2-1.1,0.4
		c-0.6,0.3-1.1,0.6-1.6,1.1c-0.5,0.4-0.9,1-1.3,1.5c-0.3,0.5-0.6,1.1-0.9,1.6c-0.3,0.7-0.5,1.3-0.7,2c-0.4,1.3-0.6,2.7-0.7,4.1
		c-0.1,1.3-0.2,2.5-0.1,3.8c0,0.4,0.1,0.8,0.1,1.2c0,1.2,0,2.5,0.1,3.7c0.1,3.1,0.5,6.1,0.8,9.2c0.1,0.6,0.1,1.2,0.2,1.9
		c0,1.7,0.1,3.4,0.3,5.2c0,0.2,0,0.3,0,0.5c-0.1,1.9-0.4,3.7-0.3,5.6c0,0.9,0.2,1.8,0.5,2.7c0.1,0.2,0.1,0.3,0.2,0.5
		c0.3,0.7,0.7,1.3,1.2,1.8c0.3,0.3,0.7,0.6,1.1,0.8c0.4,0.3,0.9,0.5,1.4,0.7c0.9,0.4,1.9,0.6,2.9,0.6c0.1,0,0.2,0,0.2,0
		c0.3,0,0.6,0,0.9-0.1c0,0,0,0,0,0c0.2,0.1,0.5,0.1,0.7,0.1c0,0,0,0,0,0c0.2,0,0.5,0,0.7-0.1c0.1,0,0.3-0.1,0.4-0.1
		c0.2,0,0.3-0.1,0.5-0.2c0.3-0.1,0.6-0.2,0.9-0.4c0.4-0.2,0.7-0.4,1-0.6c0.5-0.3,0.9-0.7,1.3-1.1c0.2-0.2,0.3-0.4,0.5-0.5
		c0.2-0.2,0.3-0.4,0.5-0.7c0.1-0.2,0.2-0.4,0.3-0.5c0.4-0.6,0.8-1.1,1.2-1.7c0.6-0.8,1.1-1.7,1.6-2.6c0.2-0.1,0.3-0.1,0.5-0.2
		c0.3-0.1,0.6-0.1,0.9-0.2c0.3,0,0.6,0,0.9,0.1c0.3,0.1,0.5,0.2,0.8,0.3c0.2,0.1,0.5,0.3,0.7,0.5c0.2,0.2,0.4,0.4,0.6,0.6
		c0.1,0.2,0.2,0.4,0.3,0.6c0,0.1,0.1,0.3,0.1,0.4c0,0.4,0,0.8-0.1,1.1c-0.1,0.5-0.2,1-0.2,1.6c0,1.1,0.6,2.2,1.7,2.6
		c0,0,0.1,0,0.1,0c0.2,0.5,0.5,0.9,0.9,1.3c0.6,0.5,1.2,1,1.9,1.1c0.4,0.1,0.8,0.2,1.2,0.2c0.5,0,1-0.1,1.5-0.2
		c0.5-0.1,1-0.3,1.4-0.5c0.3-0.1,0.5-0.2,0.7-0.4c0.4-0.2,0.7-0.4,1-0.7c0.3-0.3,0.6-0.7,0.9-1c0.2-0.3,0.4-0.7,0.6-1.1
		c0.1-0.2,0.2-0.5,0.3-0.8c0.2-0.7,0.4-1.5,0.4-2.3C261.4,44.3,261.3,43.6,261.3,42.8z"/>
	<g>
		<path class="st1" d="M262.8,42.8c-1.1-9.3-9.6-21-20.4-16.6c0.6,0.5,1.3,1,1.9,1.4c0.4-4.1,0.4-8.1-0.1-12.2
			c-0.1-1.2-0.5-2.4-0.6-3.5c0.2,1.5,0.1-0.9,0-1.4c-0.3-4.5-4.1-9.3-8.5-10.3c-11.7-2.7-11.6,13.8-11.3,20.8
			c0.2,4,0.8,7.9,1.1,11.9c0.2,3.7-0.4,7.5,0,11.1c0.4,4.1,3,7.2,7.2,7.8c2.8,0.4,5.4,0.2,7.7-1.5c1.6-1.1,2.5-2.6,3.6-4.1
			c1.2-1.8,1.2-3.5,2.9-2c1.6,1.4,0.5,2.3,1.1,4c0.3,0.8,0.8,1.2,1.3,1.8c0.3,0.3,1.3,1.4,1.6,1.7c1.8,1.4,3.6,2,5.9,1.5
			C261.3,52.4,263,47.5,262.8,42.8c-0.1-1.9-3.1-1.9-3,0c0.2,3.8-2,9.6-6.7,6.8c-2.7-1.6-2-2.5-2.7-5.5c-0.5-2-1.7-3.5-3.9-3.8
			c-3.5-0.5-4.3,2.6-6.1,5c-2.7,3.7-5.1,4.6-9.1,3c-4.9-1.9-3.3-6.2-3.2-10.5c0-2.5-0.2-5-0.5-7.5c-0.6-6.5-1.9-13.7-0.6-20.2
			c0.4-2,1.1-4.4,2.8-5.8c4.9-4.1,10.1,2.3,10.9,6.8c0.9,5.3,1.1,11.1,0.6,16.6c-0.1,0.9,1,1.8,1.9,1.4c8.7-3.5,15.7,6.1,16.6,13.7
			C260,44.7,263,44.7,262.8,42.8z"/>
	</g>
</g>
<g>
	<path class="st0" d="M186.8,42.8c-0.1-0.7-0.2-1.4-0.3-2.1c-0.2-0.8-0.4-1.6-0.7-2.3c-0.2-0.7-0.5-1.3-0.8-1.9
		c-0.3-0.7-0.7-1.3-1.1-1.9c-0.2-0.3-0.4-0.5-0.6-0.8c-0.1-0.2-0.1-0.4-0.2-0.7c-0.2-0.6-0.6-1.1-1-1.6c-0.4-0.6-1-1-1.6-1.5
		c-0.4-0.3-0.7-0.5-1.1-0.8c-0.4-0.3-0.9-0.5-1.4-0.7c0.9-0.6,1.8-1.5,2.2-2.5c0.1-0.3,0.2-0.5,0.2-0.7c0.1-0.3,0.1-0.6,0.1-0.8
		c0,0,0,0,0,0c0.1-0.2,0.3-0.4,0.4-0.6c0.1-0.1,0.2-0.2,0.3-0.3c0.2-0.2,0.4-0.4,0.6-0.7c0.2-0.2,0.3-0.5,0.5-0.7
		c0.2-0.4,0.3-0.7,0.5-1.1c0,0,0,0,0-0.1c0,0,0,0,0,0c0.2-0.4,0.5-0.7,0.6-1.1c0.1-0.3,0.2-0.6,0.3-0.9c0.1-0.3,0.1-0.6,0.1-0.9
		c0-0.4,0-0.8-0.1-1.2c0-0.1-0.1-0.2-0.1-0.4c0,0,0,0,0,0c0,0,0-0.1,0-0.1c0,0,0,0,0,0c0-0.2-0.1-0.4-0.2-0.6
		c-0.2-0.3-0.3-0.6-0.5-0.8c0,0,0,0,0,0c0,0,0,0,0,0c-0.3-0.4-0.7-0.7-1.1-0.9c-0.4-0.3-0.9-0.4-1.5-0.5c-0.4-0.1-0.7,0-1.1,0
		c-0.3,0-0.5,0.1-0.8,0.1c-0.4,0.1-0.8,0.2-1.2,0.3c-0.4,0.2-0.9,0.4-1.3,0.6c-0.7,0.4-1.3,0.8-1.9,1.3c-0.2,0.2-0.5,0.4-0.7,0.6
		c-0.4,0.4-0.7,0.8-1.1,1.2c-0.3,0.4-0.6,0.8-0.9,1.2c-0.4,0.4-0.8,0.9-1.1,1.4c-0.1,0.1-0.1,0.1-0.2,0.2c-0.2,0.2-0.3,0.3-0.5,0.5
		c-0.3,0.3-0.7,0.7-1,1c0-3.2-0.2-6.4-0.8-9.5c0-0.2-0.1-0.3-0.2-0.4c0,0,0,0,0-0.1c0.2-0.7,0.1-1.5,0-2.2c-0.1-0.9-0.5-1.8-0.9-2.6
		c-0.5-0.9-1.1-1.7-1.7-2.5c-0.3-0.4-0.7-0.7-1-1.1c-0.4-0.4-0.9-0.7-1.3-1c-0.7-0.5-1.6-0.8-2.5-1c-0.7-0.2-1.5-0.2-2.2-0.1
		c-0.4,0-0.7,0.1-1.1,0.2c-0.4,0.1-0.7,0.2-1.1,0.4c-0.6,0.3-1.1,0.6-1.6,1.1c-0.5,0.4-0.9,1-1.3,1.5c-0.3,0.5-0.6,1.1-0.9,1.6
		c-0.3,0.7-0.5,1.3-0.7,2c-0.4,1.3-0.6,2.7-0.7,4.1c-0.1,1.3-0.2,2.5-0.1,3.8c0,0.4,0.1,0.8,0.1,1.2c0,1.2,0,2.5,0.1,3.7
		c0.1,3.1,0.5,6.1,0.8,9.2c0.1,0.6,0.1,1.2,0.2,1.9c0,1.7,0.1,3.4,0.3,5.2c0,0.2,0,0.3,0,0.5c-0.1,1.9-0.4,3.7-0.3,5.6
		c0,0.9,0.2,1.8,0.5,2.7c0.1,0.2,0.1,0.3,0.2,0.5c0.3,0.7,0.7,1.3,1.2,1.8c0.3,0.3,0.7,0.6,1.1,0.8c0.4,0.3,0.9,0.5,1.4,0.7
		c0.9,0.4,1.9,0.6,2.9,0.6c0.1,0,0.2,0,0.2,0c0.3,0,0.6,0,0.9-0.1c0,0,0,0,0,0c0.2,0.1,0.5,0.1,0.7,0.1c0,0,0,0,0,0
		c0.2,0,0.5,0,0.7-0.1c0.1,0,0.3-0.1,0.4-0.1c0.2,0,0.3-0.1,0.5-0.2c0.3-0.1,0.6-0.2,0.9-0.4c0.4-0.2,0.7-0.4,1-0.6
		c0.5-0.3,0.9-0.7,1.3-1.1c0.2-0.2,0.3-0.4,0.5-0.5c0.2-0.2,0.3-0.4,0.5-0.7c0.1-0.2,0.2-0.4,0.3-0.5c0.4-0.6,0.8-1.1,1.2-1.7
		c0.6-0.8,1.1-1.7,1.6-2.6c0.2-0.1,0.3-0.1,0.5-0.2c0.3-0.1,0.6-0.1,0.9-0.2c0.3,0,0.6,0,0.9,0.1c0.3,0.1,0.5,0.2,0.8,0.3
		c0.2,0.1,0.5,0.3,0.7,0.5c0.2,0.2,0.4,0.4,0.6,0.6c0.1,0.2,0.2,0.4,0.3,0.6c0,0.1,0.1,0.3,0.1,0.4c0,0.4,0,0.8-0.1,1.1
		c-0.1,0.5-0.2,1-0.2,1.6c0,1.1,0.6,2.2,1.7,2.6c0,0,0.1,0,0.1,0c0.2,0.5,0.5,0.9,0.9,1.3c0.6,0.5,1.2,1,1.9,1.1
		c0.4,0.1,0.8,0.2,1.2,0.2c0.5,0,1-0.1,1.5-0.2c0.5-0.1,1-0.3,1.4-0.5c0.3-0.1,0.5-0.2,0.7-0.4c0.4-0.2,0.7-0.4,1-0.7
		c0.3-0.3,0.6-0.7,0.9-1c0.2-0.3,0.4-0.7,0.6-1.1c0.1-0.2,0.2-0.5,0.3-0.8c0.2-0.7,0.4-1.5,0.4-2.3
		C186.9,44.3,186.8,43.6,186.8,42.8z"/>
	<g>
		<path class="st1" d="M188.3,42.8c-0.7-6.2-3.9-12.5-9.5-15.5c0,0.9,0,1.7,0,2.6c1.6-1.2,2.3-2.3,3.1-4.1c0.6-1.1,1-1.7,1.8-3.1
			c0.9-1.5,1.9-4.9,1.3-6.6c-1-2.7-3.4-4.2-6.3-3.9c-5.2,0.5-8,5.5-11.2,8.9c0.9,0.4,1.7,0.7,2.6,1.1c0-3.4-0.5-6.7-0.9-10.1
			c0-0.1,0.1,0.9,0-0.5c-0.1-1.2,0-2.2-0.4-3.4c-1.4-4.3-5.5-8.2-10.2-8.2c-11.5,0.1-9.6,17.6-9,24.7c0.3,3.9,0.9,7.8,1,11.7
			c0.1,2.9-0.7,5.9-0.1,8.8c0.8,4.3,4.4,6.7,8.7,6.9c2.7,0.2,4.9-0.5,6.9-2.3c1.4-1.2,2.4-2.8,3.4-4.3c1-1.6,2.1-3.3,3.4-0.2
			c0.4,0.9-0.3,2.3,0.2,3.4c0.6,1.2,2.3,2.8,3.2,3.5c1.6,1.2,3.4,1.6,5.5,1.2C186.8,52.4,188.6,47.5,188.3,42.8
			c-0.1-1.9-3.1-1.9-3,0c0.2,3.8-2,9.6-6.7,6.8c-2.5-1.5-2.2-1.9-2.8-4.9c-0.4-2.1-1-3.8-3.4-4.4c-6.2-1.4-6.3,9.5-13.2,8.8
			c-8.3-0.8-5.5-9.5-5.9-15.2c-0.4-6.2-1.1-12.4-1.3-18.6c-0.2-5.6,3-17,10.8-10.5c4.2,3.5,4.1,12.5,4.1,17.4c0,1.3,1.7,2,2.6,1.1
			c1.9-2,10.4-12.9,12.6-6.2c0.6,1.8-1.1,4-2,5.5c-0.7,1.1-2.2,4.1-2.9,4.7c-0.8,0.6-1.1,2,0,2.6c4.5,2.4,7.4,7.9,8,12.9
			C185.5,44.7,188.5,44.7,188.3,42.8z"/>
	</g>
</g>
<g>
	<path class="st2" d="M95.1,35.9c-0.1-0.2-0.1-0.4-0.2-0.6c-0.1-0.1-0.1-0.2-0.2-0.3c0-0.1-0.1-0.2-0.2-0.3
		c-0.1-0.1-0.1-0.1-0.2-0.2c-0.1-0.2-0.2-0.5-0.3-0.7c-0.2-0.3-0.4-0.6-0.7-0.8C93.2,33,93.1,33,93,32.9c-0.1,0-0.2,0-0.3-0.1
		c-0.1,0-0.2,0-0.3,0c-0.1,0-0.2,0-0.3,0.1c-0.1-0.2-0.2-0.4-0.4-0.6c-0.4-0.3-0.9-0.4-1.3,0c-0.1,0.1-0.2,0.1-0.2,0.2
		c-0.1,0.1-0.2,0.2-0.2,0.4c0,0,0,0,0,0c-0.1,0-0.2,0.1-0.2,0.1c0,0-0.1,0-0.1,0c-0.1,0-0.2,0-0.3,0c-0.1,0-0.2,0.1-0.3,0.1
		c-0.1,0.1-0.3,0.2-0.4,0.3c0,0,0,0,0,0c0,0,0,0,0,0c-0.1,0.1-0.3,0.1-0.4,0.2c-0.1,0.1-0.2,0.2-0.3,0.3c-0.1,0.1-0.2,0.2-0.3,0.4
		c-0.1,0.2-0.2,0.4-0.3,0.6c0,0.1,0,0.2-0.1,0.2c0,0,0,0,0,0c0,0,0,0.1,0,0.1c0,0,0,0,0,0c0,0.1-0.1,0.3-0.1,0.4
		c0,0.2-0.1,0.4-0.1,0.7c0,0,0,0,0,0c0,0,0,0,0,0c0,0.4,0,0.7,0,1.1c0,0.3,0.1,0.7,0.2,1c0.1,0.2,0.2,0.4,0.3,0.6
		c0.1,0.1,0.1,0.2,0.2,0.4c0.1,0.2,0.2,0.3,0.4,0.4c0.1,0.1,0.3,0.3,0.5,0.4c0.2,0.2,0.5,0.2,0.8,0.3c0.1,0,0.2,0,0.3,0
		c0.2,0,0.4,0,0.5,0c0.2,0,0.3-0.1,0.5-0.2c0.2,0,0.4,0,0.6-0.1c0,0,0.1,0,0.1,0c0.1,0,0.2,0,0.2,0c0.2,0,0.4,0,0.6,0
		c0.1,0,0.1,0,0.2,0c0,0,0,0,0,0c0.1,0,0.3,0,0.4,0c0.1,0,0.2-0.1,0.3-0.1c0.1,0,0.1-0.1,0.2-0.1c0,0,0,0,0.1-0.1c0.1,0,0.1,0,0.2,0
		c0.1,0,0.2-0.1,0.3-0.1c0.1-0.1,0.2-0.2,0.4-0.3c0.1-0.1,0.1-0.2,0.2-0.2c0.1-0.1,0.2-0.3,0.3-0.5c0.1-0.2,0.2-0.4,0.2-0.6
		c0.1-0.2,0.1-0.4,0.2-0.5c0-0.2,0.1-0.4,0.1-0.6c0-0.2,0-0.4,0-0.6C95.2,36.3,95.1,36.1,95.1,35.9z"/>
	<g>
		<path class="st0" d="M106.5,35.7c0-0.4-0.1-0.8-0.2-1.3c0-0.4,0-0.8-0.1-1.1c-0.1-1.2-0.4-2.4-0.8-3.5c-0.3-0.6-0.5-1.2-0.9-1.8
			c-0.4-0.6-0.8-1.2-1.3-1.7c-0.8-1-1.9-1.9-3-2.7c-1.1-0.8-2.3-1.3-3.5-1.7c-0.5-0.2-1.1-0.3-1.7-0.3c-0.8-0.1-1.5-0.2-2.3-0.2
			c0,0-0.1,0-0.1,0c-1.3,0-2.7,0.2-4,0.4c-2.3,0.3-4.5,1.1-6.4,2.5c-0.3,0.2-0.7,0.5-1,0.8c-0.1,0.1-0.2,0.2-0.4,0.3
			c-0.4,0.4-0.8,0.8-1.2,1.2c-0.4,0.5-0.9,1.1-1.2,1.7c-0.6,1-1.1,2.1-1.6,3.2c-0.6,1.4-0.8,3-1,4.5c-0.1,1.4,0,2.9,0.3,4.3
			c0.3,1.4,0.8,2.7,1.5,3.9c0.3,0.5,0.6,1.1,1,1.6c0.5,0.6,0.9,1.2,1.5,1.8c0.5,0.5,1.1,1,1.7,1.4c0.5,0.4,1.1,0.8,1.7,1.1
			c0.6,0.4,1.3,0.7,2,0.9c0.6,0.3,1.3,0.4,2,0.6c4,0.9,8.2-0.1,11.7-2.1c0.9-0.5,1.7-1.1,2.5-1.8c0.6-0.5,1.1-1.1,1.5-1.8
			c0.4-0.4,0.7-0.8,1-1.2c0.4-0.6,0.8-1.2,1-1.8c0.4-0.8,0.6-1.6,0.8-2.4C106.6,39,106.7,37.3,106.5,35.7z M95.2,37.7
			c0,0.2-0.1,0.4-0.2,0.5c-0.1,0.2-0.2,0.4-0.2,0.6c-0.1,0.2-0.2,0.3-0.3,0.5c-0.1,0.1-0.1,0.2-0.2,0.2c-0.1,0.1-0.2,0.2-0.4,0.3
			c-0.1,0.1-0.2,0.1-0.3,0.1c-0.1,0-0.1,0-0.2,0c0,0,0,0-0.1,0.1c-0.1,0.1-0.1,0.1-0.2,0.1c-0.1,0.1-0.2,0.1-0.3,0.1
			c-0.1,0-0.3,0-0.4,0c0,0,0,0,0,0c-0.1,0-0.1,0-0.2,0c-0.2,0-0.4,0-0.6,0c-0.1,0-0.2,0-0.2,0c0,0-0.1,0-0.1,0
			c-0.2,0.1-0.4,0.1-0.6,0.1c-0.2,0.1-0.3,0.1-0.5,0.2c-0.2,0-0.4,0-0.5,0c-0.1,0-0.2,0-0.3,0c-0.3-0.1-0.5-0.1-0.8-0.3
			c-0.2-0.1-0.3-0.2-0.5-0.4c-0.1-0.1-0.2-0.3-0.4-0.4c-0.1-0.1-0.1-0.2-0.2-0.4c-0.1-0.2-0.2-0.4-0.3-0.6c-0.1-0.3-0.2-0.7-0.2-1
			c0-0.3,0-0.7,0-1.1c0,0,0,0,0,0c0,0,0,0,0,0c0-0.2,0-0.4,0.1-0.7c0-0.1,0.1-0.3,0.1-0.4c0,0,0,0,0,0c0,0,0-0.1,0-0.1c0,0,0,0,0,0
			c0-0.1,0-0.2,0.1-0.2c0.1-0.2,0.2-0.5,0.3-0.6c0.1-0.1,0.2-0.3,0.3-0.4c0.1-0.1,0.2-0.2,0.3-0.3c0.1-0.1,0.3-0.2,0.4-0.2
			c0,0,0,0,0,0c0,0,0,0,0,0c0.1-0.1,0.2-0.3,0.4-0.3c0.1,0,0.2-0.1,0.3-0.1c0.1,0,0.2,0,0.3,0c0,0,0.1,0,0.1,0
			c0.1,0,0.2-0.1,0.2-0.1c0,0,0,0,0,0c0.1-0.1,0.1-0.3,0.2-0.4c0.1-0.1,0.1-0.2,0.2-0.2c0.4-0.3,0.9-0.3,1.3,0
			c0.2,0.1,0.3,0.3,0.4,0.6c0.1,0,0.2-0.1,0.3-0.1c0.1,0,0.2,0,0.3,0c0.1,0,0.2,0,0.3,0.1c0.1,0,0.2,0.1,0.3,0.1
			c0.3,0.2,0.5,0.4,0.7,0.8c0.1,0.2,0.2,0.4,0.3,0.7c0.1,0.1,0.1,0.1,0.2,0.2c0.1,0.1,0.1,0.2,0.2,0.3c0.1,0.1,0.1,0.2,0.2,0.3
			c0.1,0.2,0.2,0.4,0.2,0.6c0,0.2,0.1,0.4,0.1,0.6c0,0.2,0,0.4,0,0.6C95.2,37.3,95.2,37.5,95.2,37.7z"/>
		<g>
			<path class="st1" d="M108,35.3c-0.7-4.9-1.6-8.6-5.5-11.9c-3.2-2.6-7-3.7-11.1-3.4c-9.8,0.6-17.4,8-16.8,18.2
				c0.5,8.4,7.6,15.3,16.1,15.3c9.9,0,17.9-7.9,17.3-17.8c-0.1-1.9-3.1-1.9-3,0c0.5,8.2-6,14.9-14.3,14.8c-7.4,0-13.3-6.4-13.1-13.8
				c0.3-8.4,7-13.9,15.2-13.8c8.2,0.1,11.2,6.1,12.3,13.2C105.3,38,108.2,37.2,108,35.3z"/>
			<path class="st1" d="M93.7,37.3c-0.1,0.4-0.2,0.9-0.5,1.2c0.2-0.2-0.2,0-0.4,0.1c-0.5,0.2-0.6,0.4,0,0.3c-0.3,0.1-0.9,0-1.2,0
				c-0.3,0-1.8,0.4-2.2,0.2c-0.8-0.4-0.9-1.7-0.8-2.5c0.1-0.7,0.2-1.3,0.8-1.7c0.5-0.4,0.2-0.1,0.8-0.3c0.3-0.1,0.7-0.2,0.9-0.5
				c0.5-0.6,0.1,0-0.2-0.3c0.3,0.6,1.1,0.8,1.7,0.7c0,0,0.7,1.2,0.7,1.3c0.4,0.7,0.5,1.3,0.4,2.1c-0.2,1.9,2.8,1.9,3,0
				c0.3-2.6-1.7-7-4.9-6.2c0.6,0.2,1.1,0.5,1.7,0.7c-1.1-2-3.7-2-4.8,0c0.3-0.2,0.6-0.5,0.9-0.7c-0.2,0.1-0.7,0.1-1,0.3
				c-0.2,0.1-1.5,1-0.7,0.5c-0.8,0.6-1.4,1.1-1.8,2.1c-0.5,1.4-0.6,3-0.2,4.4c0.5,2,2.4,3.7,4.6,3.3c0.6-0.1,0.6-0.2,1-0.2
				c0.3,0,2.2-0.2,0.6-0.1c1,0,1.6-0.1,2.4-0.7c-0.4,0.1-0.7,0.3-1.1,0.4c1.9-0.2,2.7-1.7,3.2-3.4C97.2,36.3,94.3,35.5,93.7,37.3z"
				/>
		</g>
	</g>
</g>
<g>
	<path class="st0" d="M338.6,36.8c-0.1-0.5-0.2-1-0.4-1.5c-0.1-0.2-0.2-0.4-0.3-0.5c0-0.1,0-0.3,0-0.4c0-0.8-0.1-1.6-0.2-2.3
		c-0.2-0.8-0.5-1.6-0.8-2.3c-0.3-0.6-0.7-1.1-1.1-1.7c-0.5-0.7-1.1-1.3-1.7-1.8c-0.6-0.5-1.2-1-1.9-1.4c-0.3-0.2-0.6-0.4-0.9-0.5
		c-0.4-0.2-0.7-0.3-1.1-0.5c-0.7-0.3-1.5-0.6-2.3-0.8c-0.8-0.2-1.7-0.3-2.5-0.4c-1.5-0.1-3,0.1-4.5,0.6c-0.7,0.2-1.5,0.6-2.1,1
		c-0.1,0-0.2,0.1-0.2,0.2c-0.2-0.1-0.3-0.2-0.5-0.4c-0.7-0.5-1.6-0.8-2.5-1c-0.7-0.2-1.5-0.2-2.2-0.1c-0.4,0-0.7,0.1-1.1,0.2
		c-0.4,0.1-0.7,0.2-1.1,0.4c-0.6,0.3-1.1,0.6-1.6,1.1c-0.5,0.4-0.9,1-1.3,1.5c-0.3,0.5-0.6,1.1-0.9,1.6c-0.3,0.7-0.5,1.3-0.7,2
		c-0.4,1.3-0.6,2.7-0.7,4.1c-0.1,1.3-0.2,2.5-0.1,3.8c0,0.4,0.1,0.8,0.1,1.2c0,1.2,0,2.5,0.1,3.7c0.1,3.1,0.5,6.1,0.8,9.2
		c0.1,0.6,0.1,1.2,0.2,1.9c0,1.7,0.1,3.4,0.3,5.2c0,0.2,0,0.3,0,0.5c-0.1,1.9-0.4,3.7-0.3,5.6c0,0.9,0.2,1.8,0.5,2.7
		c0.3,0.9,0.8,1.7,1.4,2.3c0.3,0.3,0.7,0.6,1.1,0.8c0.4,0.3,0.9,0.5,1.4,0.7c0.9,0.4,1.9,0.6,2.9,0.6c0.1,0,0.2,0,0.2,0
		c0.3,0,0.6,0,0.9-0.1c0,0,0,0,0,0c0.2,0.1,0.5,0.1,0.7,0.1c0,0,0,0,0,0c0.2,0,0.5,0,0.7-0.1c0.1,0,0.3-0.1,0.4-0.1
		c0.2,0,0.3-0.1,0.5-0.2c0.3-0.1,0.6-0.2,0.9-0.4c0.4-0.2,0.7-0.4,1-0.6c0.5-0.3,0.9-0.7,1.3-1.1c0.4-0.4,0.7-0.8,1-1.2
		c0.3-0.4,0.5-0.9,0.7-1.3c0.1-0.3,0.2-0.6,0.3-1c0.1-0.5,0.1-1,0.2-1.5c0.1-0.9,0.1-1.9,0-2.8c-0.1-0.8-0.2-1.6-0.3-2.3
		c0.1-1.1,0.2-2.2,0.3-3.4c0-0.6,0.1-1.3,0.1-1.9c0.1-0.9,0.1-1.9,0.1-2.8c0-0.1,0-0.3,0.1-0.4c0.1-0.9,0.3-1.9,0.3-2.8
		c0.4,0,0.9,0,1.3,0c0.8,0,1.6-0.2,2.4-0.3c1.4-0.3,2.7-0.8,4-1.4c0.7-0.3,1.3-0.7,1.9-1.2c0.4-0.2,0.8-0.5,1.2-0.8
		c0.8-0.6,1.6-1.3,2.2-2c0.3-0.4,0.6-0.9,0.9-1.3c0.3-0.4,0.4-0.9,0.6-1.4c0.2-0.5,0.2-1,0.3-1.5C338.6,37.6,338.6,37.2,338.6,36.8z
		 M327.3,36.5c0,0.1,0,0.3-0.1,0.4c0,0.1-0.1,0.3-0.2,0.4c-0.1,0.2-0.2,0.3-0.4,0.4c-0.1,0.1-0.1,0.1-0.2,0.1
		c-0.1,0.1-0.2,0.1-0.4,0.1c-0.1,0-0.2,0.1-0.4,0.1c-0.1,0.1-0.3,0.1-0.4,0.1c0,0,0,0,0,0c0,0-0.1,0.1-0.2,0.1
		c-0.1,0.1-0.3,0.1-0.4,0.2c0,0-0.1,0-0.1,0c0,0,0,0,0,0c-0.1,0.1-0.2,0.1-0.2,0.1c-0.1,0-0.2,0-0.3,0c-0.1,0-0.1,0-0.2,0
		c0,0,0,0-0.1,0c0,0-0.1,0-0.1,0.1c-0.1,0-0.2,0-0.3,0c-0.1,0-0.2,0-0.3-0.1c-0.1,0-0.1-0.1-0.2-0.1c-0.1-0.1-0.2-0.1-0.3-0.2
		c-0.1-0.1-0.2-0.2-0.3-0.3c-0.1-0.1-0.2-0.2-0.3-0.3c-0.1-0.1-0.2-0.2-0.3-0.4c-0.1-0.1-0.1-0.3-0.2-0.4c-0.1-0.1-0.1-0.3-0.1-0.4
		c0-0.2,0-0.3,0-0.5c0-0.1,0-0.2,0-0.3c0-0.1,0-0.2,0-0.2c0-0.1,0-0.1,0-0.2c0-0.2,0-0.4,0-0.5c0-0.3,0.1-0.5,0.2-0.7
		c0-0.1,0.1-0.1,0.1-0.2c0,0,0.1-0.1,0.1-0.1c0,0,0.1-0.1,0.2-0.1c0.1,0,0.1,0,0.2-0.1c0-0.2,0-0.3,0.1-0.5c0.1-0.3,0.5-0.5,0.8-0.5
		c0.1,0,0.1,0,0.2,0.1c0.1,0,0.2,0.1,0.3,0.2c0,0,0,0,0,0c0.1,0,0.1,0,0.2,0c0,0,0.1,0,0.1-0.1c0.1,0,0.1-0.1,0.2-0.1
		c0.1,0,0.2,0,0.2,0c0.1,0,0.2,0,0.4,0.1c0,0,0,0,0,0c0,0,0,0,0,0c0.1,0,0.2,0,0.4,0c0.1,0,0.2,0,0.3,0.1c0.1,0,0.2,0.1,0.3,0.2
		c0.1,0.1,0.3,0.2,0.4,0.3c0,0,0.1,0.1,0.1,0.1c0,0,0,0,0,0c0,0,0,0,0,0c0,0,0,0,0,0c0.1,0.1,0.1,0.1,0.2,0.2
		c0.1,0.1,0.2,0.3,0.3,0.4c0,0,0,0,0,0c0,0,0,0,0,0c0.1,0.2,0.2,0.5,0.3,0.7c0.1,0.2,0.2,0.5,0.2,0.7c0,0.2,0,0.3,0,0.5
		C327.3,36.3,327.3,36.4,327.3,36.5z"/>
	<g>
		<path class="st1" d="M340,36.4c-1.3-4.9-1.5-8.9-6-12.2c-2-1.5-4.4-2.5-6.9-2.8c-3.1-0.5-5.1,0.5-8,1c-2.1,0.4,1,0.9-1.8-0.4
			c-1.1-0.5-2.7-0.7-3.9-0.6c-1.8,0.2-3.5,0.9-4.8,2.1c-4.3,3.9-4.2,10.9-4,16.2c0.2,4.6,0.7,9.2,1.1,13.8c0.3,4.2-0.6,8.6,0.1,12.7
			c0.8,5,4.6,7.1,9.3,7.2c3.8,0.1,7.3-1.8,8.9-5.6c1-2.5,0.6-5.1,0.5-7.6c-0.1-4,0.3-8.1,0.7-12.1c-0.5,0.5-1,1-1.5,1.5
			c7,0.1,16.6-4.6,16.3-12.6c-0.1-1.9-3.1-1.9-3,0c0.3,6.3-8,9.7-13.3,9.6c-0.9,0-1.4,0.7-1.5,1.5c-0.3,3-0.5,5.9-0.6,8.8
			c-0.2,3.7,1.2,8.5-1.6,11.6c-1.4,1.6-2.7,2-4.5,1.9c-1.8,0-4.9-1.1-6-2.4c-1.6-1.9-0.6-5.7-0.6-7.9c0.3-7-1-14.3-1.3-21.3
			c-0.2-5,1.1-19.5,10.2-13.1c0.4,0.3,1.1,0.3,1.5,0c4-2.8,10.3-1.5,13.7,1.6c3,2.7,3.1,6.3,4,9.9C337.6,39.1,340.5,38.3,340,36.4z"
			/>
		<path class="st1" d="M325.8,36.1c-0.1,0.6-0.8,0.6-1.3,0.8c-0.2,0.1-0.4,0.1-0.5,0.2c-1.1,0.6,0.2-0.1,0.2,0c0,0-1.1-0.1-0.7,0
			c-0.2-0.1-0.4-0.4-0.5-0.6c-0.1-0.3-0.1-0.6-0.1-0.8c0.1-0.2,0.1-0.4,0-0.7c0.1-0.4,0-0.3-0.2,0c0.7-0.2,1.1-0.8,1.1-1.4
			c0,0.7-1.4,0.4-0.5,0.7c0.3,0.1,0.7,0,1,0c1.4-0.3-0.3-0.1,0.1-0.1c0.2,0,0.4,0,0.6,0.1c0.6,0.4,0.8,1.4,0.8,2
			c-0.1,1.9,2.9,1.9,3,0c0.1-2.1-1.4-4.7-3.7-5c-1.2-0.2,0.9,0.1-0.3-0.1c-0.4-0.1-0.7-0.1-1,0c-0.1,0-0.3,0.1-0.4,0.2
			c-0.6,0.2-0.2,0.3,1.1,0.1c-0.2-0.2-0.6-0.3-0.9-0.4c-1.6-0.4-2.8,0.9-2.8,2.4c0.4-0.5,0.7-1,1.1-1.4c-1.7,0.4-1.9,2.1-2,3.6
			c-0.1,1.8,1,3.6,2.8,4.2c0.4,0.1,0.7,0.1,1.1,0.1c1.2,0-1.1,0,0.4,0c0.5,0,0.8-0.1,1.3-0.3c1.1-0.5-0.9,0.4,0.2,0
			c0.6-0.3,1-0.2,1.7-0.6c0.8-0.5,1.3-1.3,1.5-2.2C329.1,35,326.2,34.2,325.8,36.1z"/>
	</g>
</g>
<g>
	<path class="st0" d="M144.1,26.8c0-0.4-0.1-0.9-0.2-1.3c-0.1-0.6-0.3-1.2-0.5-1.7c-0.3-0.7-0.5-1.4-0.9-2c0,0,0,0,0,0c0,0,0,0,0,0
		c-0.1-0.2-0.2-0.4-0.3-0.6c-0.1-0.2-0.3-0.4-0.4-0.6c-0.1-0.1-0.2-0.2-0.3-0.3c-0.1-0.1-0.1-0.1-0.2-0.2c-0.2-0.3-0.5-0.6-0.8-0.9
		c-0.4-0.3-0.8-0.6-1.2-0.8c-0.4-0.2-0.9-0.4-1.4-0.5c-0.9-0.2-1.8-0.2-2.8-0.1c-1,0.1-2,0.4-3,0.8c-0.9,0.4-1.9,0.8-2.8,1.3
		c-1.7,1-3.4,2.2-4.9,3.6c-0.2,0-0.4-0.1-0.7-0.1c-0.3,0-0.6-0.1-1-0.1c-0.1,0-0.2,0-0.2,0c-0.3,0-0.6,0-0.9,0.1c0,0,0,0,0,0
		c-0.2-0.1-0.5-0.1-0.7-0.1c0,0,0,0,0,0c-0.2,0-0.5,0-0.7,0.1c-0.1,0-0.3,0.1-0.4,0.1c-0.2,0-0.3,0.1-0.5,0.2
		c-0.3,0.1-0.6,0.2-0.9,0.4c-0.4,0.2-0.7,0.4-1,0.6c-0.5,0.3-0.9,0.7-1.3,1.1c-0.4,0.4-0.7,0.8-1,1.2c-0.3,0.4-0.5,0.9-0.7,1.3
		c-0.1,0.3-0.2,0.6-0.3,1c-0.1,0.5-0.1,1-0.2,1.5c-0.1,0.9-0.1,1.9,0,2.8c0.1,0.8,0.2,1.6,0.3,2.3c-0.1,1.1-0.2,2.2-0.3,3.4
		c0,0.5,0,0.9-0.1,1.4c0,0.1,0,0.2,0,0.2c0,0.2,0.1,0.3,0.2,0.4c0,0,0,0,0,0.1c-0.2,0.7-0.1,1.5,0,2.2c0.1,0.9,0.5,1.8,0.9,2.6
		c0.5,0.9,1.1,1.7,1.7,2.5c0.3,0.4,0.7,0.7,1,1.1c0.4,0.4,0.9,0.7,1.3,1c0.7,0.5,1.6,0.8,2.5,1c0.7,0.2,1.5,0.2,2.2,0.1
		c0.4,0,0.7-0.1,1.1-0.2c0.1,0,0.2-0.1,0.2-0.1c0.3-0.1,0.6-0.2,0.8-0.3c0.6-0.3,1.1-0.6,1.6-1.1c0.5-0.4,0.9-1,1.3-1.5
		c0.3-0.5,0.6-1.1,0.9-1.6c0.3-0.6,0.5-1.2,0.7-1.9c-0.1-0.6-0.1-1.2-0.2-1.7c-0.1-0.6-0.1-1.2-0.2-1.9c0-0.5,0-1,0-1.5
		c0-1.2-0.1-2.5-0.3-3.7c0-0.2,0-0.3,0-0.5c0,0,0,0,0-0.1c0.7-0.7,1.4-1.3,2.2-1.8c0.7-0.4,1.4-0.7,2.1-1c0.2,0,0.5-0.1,0.7-0.1
		c0.5,0,1,0,1.6,0c0.6,0,1.1,0.1,1.7,0.1c0.7,0,1.4-0.1,2.1-0.3c0.6-0.2,1.2-0.5,1.7-0.9c0.3-0.2,0.6-0.6,0.8-0.9
		c0.3-0.4,0.5-0.8,0.7-1.3c0.2-0.4,0.3-0.8,0.4-1.3c0.1-0.2,0.1-0.5,0.1-0.7C144.1,27.6,144.1,27.2,144.1,26.8z"/>
	<g>
		<path class="st1" d="M145.6,26.8c-0.5-3.9-1.6-7.8-5.5-9.8c-2.6-1.4-5.6-0.9-8.3,0.1c-1.6,0.6-3,1.4-4.4,2.3
			c-0.8,0.5-2.4,2.3-3.2,2.5c-1,0.4-2.8-0.3-3.9-0.1c-2,0.3-3.8,1.4-5.1,2.8c-4,4.2-2.6,11.3-2.6,16.5c0,1.4,0.1-1,0.2,0.2
			c0.1,1.4-0.1,2.5,0.4,4c0.8,2.6,2.9,5.4,5.3,6.8c3.7,2.3,8.4,1.6,11.1-1.7c1.7-2.1,2.3-4.2,2.2-6.8c-0.1-1.3-1.2-6-0.5-7
			c0.9-1.5,3.4-1.7,5.1-1.9C141.7,34.3,145.4,33,145.6,26.8c0.1-1.9-2.9-1.9-3,0c-0.2,6.9-6.3,3.8-10.2,5.6c-2,0.9-3.6,2.1-4,4.2
			c-0.9,4.5,3,11.6-3.4,13.7c-5.8,1.9-8.8-5-9.1-9.4c-0.2-3.8-0.8-8.6,0.7-12.2c1.8-4.2,3.6-3.8,7-3.9c3.6-0.1,5.9-3.6,9.3-4.9
			c5.8-2.1,9,1.6,9.7,6.8C142.9,28.7,145.9,28.7,145.6,26.8z"/>
	</g>
</g>
<g>
	<path class="st0" d="M217.7,36.2c-0.3-0.9-0.6-1.7-1.1-2.4c0-0.1-0.1-0.2-0.1-0.2c-0.4-0.7-0.8-1.4-1.4-2c-0.1-0.1-0.2-0.3-0.3-0.4
		c-0.4-0.4-0.9-0.8-1.5-1c0,0-0.1,0-0.1-0.1c-0.4-0.3-0.9-0.4-1.2-0.5c-0.4-0.1-0.8-0.2-1.2-0.3c-0.8-0.2-1.6-0.2-2.6-0.2l0,0
		c-0.9-0.1-1.7-0.2-2.4-0.2c-0.2,0-0.3,0-0.5,0c-0.7,0-1.4,0.1-2,0.1c0,0,0,0-0.1,0c0,0-0.1,0.1-0.1,0.1c0,0-0.1,0.1-0.1,0.1
		c0,0-0.1,0-0.1,0.1c0,0-0.1,0-0.2,0c0,0-0.1,0-0.1,0c-0.1,0-0.1,0-0.2,0c0,0-0.1,0-0.1,0c0,0-0.1,0-0.1,0c0,0,0,0-0.1,0
		c-0.1,0-0.1,0-0.2,0c-0.1,0-0.2-0.1-0.2-0.1c0,0,0,0,0,0c0,0,0,0,0-0.1c0,0,0,0,0-0.1c0,0,0,0,0-0.1c-0.1,0-0.1,0-0.2,0
		c-0.1-0.1-0.2-0.2-0.1-0.3c0,0,0,0,0-0.1c0,0,0-0.1,0.1-0.1c0,0,0,0,0,0c0,0,0,0,0-0.1c0,0,0,0,0,0c0,0,0,0,0-0.1c0,0,0,0,0-0.1
		c0,0,0-0.1,0.1-0.1c0,0,0,0,0,0c0,0,0,0,0,0c0,0,0-0.1,0-0.1c0,0,0-0.1,0-0.1c0,0,0-0.1,0.1-0.1c0,0,0.1-0.1,0.1-0.1c0,0,0,0,0.1,0
		c0,0,0,0,0,0c0,0,0,0,0,0c0,0,0,0,0,0c0,0,0.1,0,0.1-0.1c0.1,0,0.1,0,0.2-0.1c0,0,0,0,0,0c0,0,0,0,0,0c0,0,0,0,0,0c0,0,0,0,0,0
		c0.4-0.2,0.8-0.4,1.2-0.5c0.5-0.1,1-0.2,1.5-0.2c0.4,0,0.7,0.1,1.2,0.1l0,0l0.1,0c0.1,0,0.1,0,0.2,0c0.4,0.1,0.7,0.1,1.1,0.2
		l0.6,0.1c0.6,0.1,1.3,0.2,2,0.3c0.3,0,0.7,0,1,0c0.5,0,0.9,0,1.4-0.1c0.2,0,0.4,0,0.6,0c0.1,0,0.2,0,0.4,0c0.2,0,0.4-0.1,0.7-0.1
		c0.3-0.1,0.6-0.2,0.8-0.3c0.3-0.1,0.5-0.3,0.7-0.4c0.2-0.1,0.4-0.3,0.6-0.5c0.2-0.2,0.4-0.4,0.5-0.6c0,0,0.1-0.1,0.1-0.1
		c0.3-0.3,0.5-0.6,0.7-1c0.1-0.2,0.1-0.4,0.2-0.5l0-0.1c0-0.1,0.1-0.2,0.1-0.4c0-0.2,0.1-0.4,0.1-0.6c0-0.2,0-0.5,0-0.6l0-0.1
		c0-0.3-0.1-0.5-0.2-0.7c-0.1-0.3-0.2-0.6-0.2-0.8c-0.1-0.2-0.2-0.4-0.3-0.6c0-0.2-0.1-0.3-0.2-0.5c-0.2-0.2-0.4-0.4-0.5-0.6
		c-0.1-0.1-0.2-0.1-0.3-0.2l0,0l0,0c-0.1-0.1-0.1-0.1-0.2-0.1c0,0-0.1,0-0.1-0.1c0,0-0.1,0-0.1-0.1c0,0,0,0,0,0l0,0l0,0
		c-0.1-0.2-0.2-0.3-0.3-0.4c-0.3-0.3-0.7-0.5-1.1-0.7c-0.5-0.2-1.1-0.5-1.7-0.7c-0.3-0.1-0.6-0.2-1-0.2c-0.8-0.2-1.7-0.3-2.7-0.3
		c-0.1,0-0.2,0-0.3,0c-0.5,0-1,0-1.5,0.1c-0.1,0-0.1,0-0.2,0c0,0,0,0-0.1,0c0,0-0.1,0-0.2,0c-0.2,0-0.3,0-0.5,0
		c-0.6,0-1.2,0.1-1.9,0.2c-0.8,0.2-1.7,0.4-2.5,0.8c-0.9,0.4-1.7,0.8-2.5,1.3c-0.8,0.5-1.5,1.2-2.1,1.9c-0.4,0.5-0.8,1.1-1.1,1.6
		c-0.4,0.5-0.7,1-1,1.6c-0.3,0.6-0.5,1.2-0.7,1.9c-0.1,0.3-0.2,0.6-0.3,1c-0.2,0.4-0.3,0.9-0.3,1.3c-0.1,0.9-0.1,1.8,0,2.7
		c0,0.3,0,0.6,0,0.9c0,0.3,0,0.5,0,0.8c0,0.1,0,0.1,0,0.2c0,0,0,0.1,0,0.1l0,0.2l0.1,0.4c0.1,0.3,0.2,0.7,0.3,1.1
		c0.1,0.3,0.2,0.6,0.4,0.8c0,0,0,0,0,0.1c0,0,0,0.1,0,0.1c0.1,0.1,0.1,0.2,0.2,0.3c0,0,0,0.1,0.1,0.1c0.1,0.1,0.2,0.3,0.4,0.4
		c0,0,0,0,0,0.1c0,0,0.1,0.1,0.1,0.1l0.4-0.3l0,0l-0.3,0.3c0.1,0.1,0.2,0.2,0.3,0.3l0,0l0,0c0,0,0,0,0,0c0.1,0.1,0.2,0.1,0.2,0.2
		c0,0,0,0,0,0l0.1,0l0.1,0.1l0.1,0.1c0,0,0,0,0.1,0l0.1,0.1c0,0,0,0,0,0c0.1,0.1,0.3,0.2,0.4,0.3c0,0,0,0,0.1,0c0,0,0,0,0.1,0l0.1,0
		c0.2,0.1,0.4,0.2,0.5,0.2c0.1,0,0.2,0.1,0.3,0.1c0,0,0.1,0,0.1,0l0.1,0c0,0,0.1,0,0.1,0l0.2,0.1c0,0,0.1,0,0.1,0l0.2,0.1l0.1,0
		l0.2-0.4c0,0,0,0,0,0l-0.1,0.5c0,0,0,0,0.1,0c0.1,0,0.2,0.1,0.3,0.1l0.1,0l0.2,0.1l0.1,0l0.1,0l0.2,0c0,0,0.1,0,0.1,0
		c0,0,0.1,0,0.1,0l0.1,0l0,0l0.1,0l0.2,0l0.1,0c0.2,0,0.4,0.1,0.5,0.1c0.1,0,0.3,0,0.4,0c0,0,0,0,0.1,0c0.4,0,0.7,0.1,1.1,0.1
		c0,0,0.1,0,0.1,0c0,0,0.1,0,0.1,0c0.2,0,0.4-0.1,0.7-0.1c0,0,0.1,0,0.1,0l0.1,0c0,0,0.1,0,0.1,0c0,0,0.1,0,0.1,0
		c0.1,0,0.2-0.1,0.3-0.1c0,0,0,0,0,0c0,0,0.1,0,0.1,0c0,0,0,0,0.1,0c0,0,0.1,0,0.1,0c0,0,0.1,0,0.1,0c0,0,0,0,0.1,0
		c0.1,0,0.2,0,0.2,0l0.1,0c0.3,0,0.5-0.1,0.7-0.1c0,0,0,0,0,0h0c0,0,0.1,0,0.1,0c0.3,0,0.6-0.1,1-0.2l0.2,0c0.8,0.1,1.4,0.3,1.9,0.5
		c0.4,0.2,0.7,0.3,1,0.5c0.1,0.1,0.2,0.2,0.3,0.3c0.1,0.1,0.1,0.2,0.1,0.3c0,0,0,0.1,0,0.1c0,0.1,0,0.2-0.1,0.3c0,0.1,0,0.1-0.1,0.2
		c0,0.1-0.1,0.1-0.1,0.2c-0.1,0.1-0.1,0.1-0.2,0.2c0,0-0.1,0-0.1,0c-0.2,0.1-0.4,0.2-0.5,0.2l-0.1,0.1c0,0-0.1,0-0.1,0.1
		c-0.2,0-0.4,0.1-0.6,0.1l-0.1,0c-0.5,0-1-0.2-1.5-0.3c-0.2-0.1-0.5-0.1-0.7-0.2c-0.4-0.1-0.7-0.2-1.1-0.3c-0.3-0.1-0.6-0.1-1-0.2
		c-0.4-0.1-0.8-0.1-1.1-0.1c-0.4,0-0.8,0-1.2,0.1c-0.1,0-0.2,0.1-0.3,0.1c-0.2,0-0.3,0-0.5,0c-0.1,0-0.3,0-0.4,0
		c-1,0-1.8,0.1-2.6,0.4c-1.2,0.3-2.1,0.8-2.8,1.4c-0.9,0.8-1.6,2-1.7,3.2c0,0.4-0.1,0.7-0.1,1c0,0.3,0.1,0.7,0.1,1.1
		c0,0.1,0,0.2,0.1,0.3c0,0.1,0,0.1,0.1,0.2c0,0,0,0,0,0c0,0,0,0,0,0.1c0,0,0,0,0,0.1c0,0.1,0.1,0.2,0.2,0.3l0.1,0.1l0,0.1
		c0.1,0.1,0.1,0.1,0.2,0.2l0.2,0.3c0.1,0.1,0.2,0.2,0.3,0.4c0.2,0.3,0.6,0.7,1,1.1c0,0,0,0,0.1,0c0.1,0.1,0.2,0.1,0.3,0.2
		c0.1,0.1,0.2,0.1,0.3,0.2c0,0,0,0,0,0c0,0,0.1,0,0.1,0.1l0.3-0.4c0,0,0,0,0,0l-0.2,0.4l0.1,0c0.1,0,0.1,0.1,0.2,0.1l0.1,0
		c0.2,0.1,0.4,0.2,0.6,0.2l0.3,0.1l0.1,0l0.1,0l0.1,0.1c0,0,0,0,0,0l0.1,0l0.1,0c0.1,0.1,0.3,0.1,0.4,0.2c0.1,0,0.1,0,0.2,0
		c0.3,0.1,0.7,0.1,1,0.1c0,0,0.1,0,0.1,0c0.1,0,0.2,0,0.3,0c0.1,0.1,0.2,0.1,0.3,0.1c0.4,0,0.9,0,1.3,0c0.4,0,0.9,0,1.3,0
		c0.4,0,0.8-0.1,1.2-0.1l0,0c0.3,0,0.7,0,1,0c0.3,0,0.6,0,1,0l0.3,0l0.3,0c0.2,0,0.4,0,0.6,0c0.2,0,0.4,0,0.6,0l0.1,0
		c0.3,0,0.6,0,1-0.1c0.1,0,0.3,0,0.4,0c0.6-0.1,1.2-0.2,1.9-0.4c0.6-0.2,1.2-0.4,1.7-0.7c0.6-0.4,1.2-0.8,1.6-1.2
		c0.3-0.3,0.5-0.6,0.7-0.9c0.2-0.3,0.4-0.6,0.6-0.9c0.1-0.2,0.2-0.4,0.3-0.7c0-0.1,0.1-0.1,0.1-0.2c0.2-0.4,0.4-0.8,0.6-1.3
		c0.2-0.4,0.3-0.9,0.4-1.4c0-0.2,0.1-0.4,0.1-0.7c0-0.1,0-0.2,0.1-0.2c0.3-0.8,0.5-1.7,0.6-2.6C218.2,39,218.1,37.5,217.7,36.2z"/>
	<g>
		<path class="st1" d="M219.2,35.8c-1.9-5.1-4.9-7.8-10.3-8.3c-1.7-0.2-4.5-0.8-6.1-0.1c-1.1,0.5,0.3-0.2,0.3,1.3
			c0-0.7-0.5-1.3-1.1-1.4c0.4,0.1-0.3,3,0.5,2c0,0,0.5-0.6,0.4-0.7c0.2,0.1-0.1-1.2-0.1-1.2c-0.2,0.9,0.3,1.5-0.1,1.3
			c-0.3-0.1,0.6,0,0.1,0c-0.3,0,1.6-0.6,1.8-0.6c1.8-0.2,3.6,0.6,5.4,0.7c3.6,0.2,7.4-0.4,8.9-4.1c1-2.4,0.1-5.8-2.1-7.3
			c-0.4,0.9-0.8,1.8-1.2,2.7c0,0,0,0,0,0c1.4,0.5,2.5-1.5,1.5-2.5c-0.6-0.6-0.5-0.6-0.2,0c-0.2,0.7-0.4,1.4-0.5,2.1c0,0,0,0,0,0
			c1.4-0.9,0.5-3.4-1.2-2.7c0,0,0,0,0,0c0.6,0.2,1.1,0.5,1.7,0.7c-4.8-6.4-17.7-2.6-21.7,2.8c-3.1,4.3-5,12.4-0.8,16.7
			c0.6,0.6,1.5,0.5,2.1,0c0.1-0.1,0.2-0.2,0.4-0.3c-0.7,0-1.4,0-2.1,0c0,0,0,0,0,0c0-0.7,0-1.4,0-2.1c-0.1,0.1-0.2,0.2-0.3,0.3
			c-0.6,0.6-0.6,1.6,0,2.1c0.1,0.1,0.2,0.2,0.3,0.3c0.6,0.5,1.5,0.6,2.1,0c0,0,0,0,0,0c-0.7,0-1.4,0-2.1,0c0.7,0.7,2,1.5,3.5,1.9
			c0.8,0.2,1.6-0.3,1.8-1c0.1-0.1,0.1-0.3,0.2-0.4c-0.6,0.3-1.2,0.7-1.8,1c0,0,0,0,0,0c-0.3-0.6-0.7-1.2-1-1.8
			c0,0.2-0.1,0.3-0.1,0.5c-0.2,0.8,0.3,1.6,1,1.8c1.8,0.5,3.7,0.7,5.6,0.5c0.5,0,0.9-0.3,1.4-0.3c0.5,0,1.1,0,1.6-0.1
			c0.6-0.1,2.2,0,2.1-0.3c0,0-0.8,0.3-0.8,0.3c-5-2-15.1-1.7-16.3,5.2c-0.5,3,1,6,3.7,7.4c0.7,0.4,1.6,0.2,2.1-0.5
			c0.1-0.1,0.2-0.3,0.3-0.4c-0.7,0.2-1.4,0.4-2.1,0.5c0,0,0,0,0,0c-0.2-0.7-0.4-1.4-0.5-2.1c-0.1,0.1-0.1,0.3-0.2,0.4
			c-0.4,0.7-0.2,1.7,0.5,2.1c3.8,2,7.6,1.3,11.8,1.1C216.5,53,221.1,44.5,219.2,35.8c-0.4-1.9-3.3-1.1-2.9,0.8
			c0.9,3.9-0.3,10.4-4.1,12.7c-2.3,1.3-5,1-7.5,1.1c-2.6,0.1-5.2,0.5-7.6-0.7c0.2,0.7,0.4,1.4,0.5,2.1c0.1-0.1,0.1-0.3,0.2-0.4
			c0.4-0.7,0.2-1.7-0.5-2.1c0,0,0,0,0,0c-0.7-0.4-1.6-0.2-2.1,0.5c-0.1,0.1-0.2,0.3-0.3,0.4c0.7-0.2,1.4-0.4,2.1-0.5
			c-0.8-0.4-2.1-2.1-2.1-2.2c-2.3-6.2,7.4-6,10.6-5.3c2,0.4,8.1,0.4,5.7-3.5c-2.2-3.4-8.6-1-12-1.9c0.3,0.6,0.7,1.2,1,1.8
			c0-0.2,0.1-0.3,0.1-0.5c0.2-0.8-0.3-1.6-1-1.8c0,0,0,0,0,0c-0.8-0.2-1.6,0.3-1.8,1c-0.1,0.1-0.1,0.3-0.2,0.4
			c0.6-0.3,1.2-0.7,1.8-1c-1.3-0.3-2-1-2.2-1.1c-0.6-0.6-1.5-0.6-2.1,0c0,0,0,0,0,0c0.7,0,1.4,0,2.1,0c-0.1-0.1-0.2-0.2-0.3-0.3
			c0,0.7,0,1.4,0,2.1c0.1-0.1,0.2-0.2,0.3-0.3c0.6-0.6,0.6-1.5,0-2.1c0,0,0,0,0,0c-0.6-0.6-1.5-0.5-2.1,0c-0.1,0.1-0.2,0.2-0.4,0.3
			c0.7,0,1.4,0,2.1,0c-2.6-2.7-1.3-8.3,0.1-11.1c2-4,5.7-5.9,10-6.3c1.3-0.1,6.3-0.4,7.7,1.5c0.4,0.5,1,0.9,1.7,0.7c0,0,0,0,0,0
			c-0.4-0.9-0.8-1.8-1.2-2.7c0,0,0,0,0,0c-0.7,0.5-0.9,1.3-0.5,2.1c0.1,0.3,0.8,0.7,0.7,0.6c0.5-0.8,1-1.7,1.5-2.5c0,0,0,0,0,0
			c-1.7-0.6-2.5,1.8-1.2,2.7c2.1,1.4,0.7,4.5-0.9,5.4c-2.1,1.1-4.8,0.4-7.1,0c-1.3-0.2-3-0.5-4.6,0.1c-0.8,0.3-2.8,1.5-0.9,0.4
			c-0.6,0.3,0.1-0.5-0.6,0.2c-1,1-1,0.7-1.2,1.9c-0.3,1.7,1.2-0.5,0.8-1.1c0-0.1-0.7,0.6-0.7,0.7c0.1,1.1-0.4,2.1,1.1,2.5
			c-0.4-0.5-0.7-1-1.1-1.4c0.1,1.9,1.8,1.8,3.1,1.8c1.2,0-0.2-0.2-0.2-0.2c1.2-0.2,2.6-0.1,3.9,0c4.8,0.3,7.6,1.6,9.4,6.3
			C217,38.4,219.9,37.6,219.2,35.8z"/>
	</g>
</g>
<g>
	<path class="st0" d="M69.4,32.2c0.1-0.3,0.1-0.6,0.1-0.9c-0.1-0.7-0.2-1.5-0.3-2.2c0-0.2-0.1-0.3-0.2-0.4c0,0,0,0,0-0.1
		c0.2-0.7,0.1-1.5,0-2.2c-0.1-0.9-0.5-1.8-0.9-2.6c-0.5-0.9-1.1-1.7-1.7-2.5c-0.3-0.4-0.7-0.7-1-1.1c-0.4-0.4-0.9-0.7-1.3-1
		c-0.7-0.5-1.6-0.8-2.5-1c-0.7-0.2-1.5-0.2-2.2-0.1c-0.4,0-0.7,0.1-1.1,0.2c-0.4,0.1-0.7,0.2-1.1,0.4c-0.6,0.3-1.1,0.6-1.6,1.1
		c-0.5,0.4-0.9,1-1.3,1.5c-0.3,0.5-0.6,1.1-0.9,1.6c-0.3,0.7-0.5,1.3-0.7,2c-0.1,0.5-0.3,1.1-0.4,1.6c-0.2,0.8-0.3,1.7-0.4,2.5
		C52,30.2,52,31.5,52,32.7c0,0.4,0.1,0.8,0.1,1.2c0,1.1,0,2.2,0,3.3c-0.2,0.1-0.4,0.3-0.6,0.4c-0.5,0.3-1,0.4-1.6,0.6
		c-0.3,0.1-0.5,0.1-0.8,0.1c-0.2,0.1-0.4,0.1-0.6,0.1c-0.2,0-0.4,0.1-0.7,0.1c-0.2,0-0.4,0-0.5,0c-0.3,0-0.5,0-0.8,0
		c-0.3,0-0.6-0.1-1-0.1c-0.4-0.1-0.9-0.2-1.3-0.4c-0.2-0.1-0.5-0.2-0.7-0.3c-0.2-0.1-0.4-0.1-0.5-0.2c-0.4-0.2-0.7-0.4-1-0.6
		c-0.1-0.9-0.2-1.7-0.4-2.6c0-0.2-0.1-0.3-0.2-0.4c0,0,0,0,0-0.1c0.2-0.7,0.1-1.5,0-2.2c-0.1-0.9-0.5-1.8-0.9-2.6
		c0-0.1-0.1-0.1-0.1-0.2c-0.4-0.8-1-1.6-1.6-2.3c-0.3-0.4-0.7-0.7-1-1.1c-0.4-0.4-0.9-0.7-1.3-1c-0.7-0.5-1.6-0.8-2.5-1
		c-0.7-0.2-1.5-0.2-2.2-0.1c-0.4,0-0.7,0.1-1.1,0.2c-0.4,0.1-0.7,0.2-1.1,0.4c-0.6,0.3-1.1,0.6-1.6,1.1c-0.5,0.4-0.9,1-1.3,1.5
		c-0.3,0.5-0.6,1-0.8,1.5c0,0.1-0.1,0.1-0.1,0.2c-0.2,0.4-0.3,0.8-0.4,1.2c0,0,0,0,0,0l0,0c-0.1,0.3-0.2,0.6-0.3,0.8
		c-0.4,1.3-0.6,2.7-0.7,4.1c0,0.2,0,0.5-0.1,0.7c-0.4,0.3-0.8,0.7-1.1,1.1c-0.1,0.2-0.2,0.3-0.4,0.5c-0.2,0.1-0.4,0.3-0.6,0.4
		c-0.4,0.2-0.7,0.3-1.1,0.4c-0.2,0-0.5,0.1-0.7,0.1c-0.2,0-0.4-0.1-0.6-0.1c-0.2-0.1-0.4-0.2-0.6-0.3c-0.1-0.1-0.2-0.2-0.3-0.2
		c-0.1-2.5-0.3-5-0.7-7.5c0-0.2-0.1-0.3-0.2-0.4c0,0,0,0,0-0.1c0.2-0.7,0.1-1.5,0-2.2c-0.1-0.7-0.4-1.5-0.7-2.2
		c-0.1-0.2-0.1-0.3-0.2-0.5c-0.5-0.9-1.1-1.7-1.7-2.5c-0.3-0.4-0.7-0.7-1-1.1c-0.4-0.4-0.9-0.7-1.3-1c-0.7-0.5-1.6-0.8-2.5-1
		C10.1,18,9.3,17.9,8.6,18c-0.4,0-0.7,0.1-1.1,0.2c-0.4,0.1-0.7,0.2-1.1,0.4c-0.6,0.3-1.1,0.6-1.6,1.1c-0.5,0.4-0.9,1-1.3,1.5
		c-0.3,0.5-0.6,1.1-0.9,1.6c-0.3,0.7-0.5,1.3-0.7,2c-0.4,1.3-0.6,2.7-0.7,4.1c0,0.1,0,0.1,0,0.2c0,0.4,0.1,0.7,0.2,1.1
		c0.1,0.7,0.3,1.4,0.4,2.1c0.1,0.4,0.2,0.9,0.4,1.3c0.5,1.6,1.3,3.1,2.1,4.6c0.1,0.2,0.2,0.3,0.3,0.5c0.1,0.3,0.2,0.6,0.4,0.9
		c0.8,1.7,1.9,3.2,3.2,4.5c0.6,0.6,1.2,1.2,1.9,1.8c0.8,0.6,1.6,1.2,2.5,1.7c1.5,0.9,3.2,1.5,4.9,2c0,0,0,0,0.1,0
		c0.3,0.1,0.6,0.2,0.9,0.2c0.9,0.2,1.8,0.3,2.7,0.4c0.9,0.1,1.8,0.1,2.7,0c0.1,0,0.1,0,0.2,0c0.1,0,0.2,0,0.3,0c0,0,0,0,0,0
		c0,0,0,0,0,0c0.4,0,0.7,0,1.1,0c0.3,0,0.6,0,0.9,0c0.1,0,0.1,0,0.2,0c0.5-0.1,1.1-0.1,1.6-0.2c0,0,0.1,0,0.1,0c0.4,0,0.7,0,1.1,0
		c0,0,0,0,0,0c0.4,0,0.8-0.1,1.2-0.2c0.6-0.2,1.2-0.5,1.8-0.8c0.2-0.1,0.5-0.3,0.7-0.5c0,0,0,0,0,0c0.2-0.1,0.5-0.3,0.7-0.4
		c0.9,0.6,1.9,1.2,2.9,1.6c0.2,0.1,0.3,0.1,0.5,0.2c0,0,0,0,0,0c0.3,0.3,0.6,0.6,0.9,0.8c0.4,0.2,0.8,0.4,1.2,0.6
		c0.9,0.3,1.8,0.5,2.7,0.5c0,0,0.1,0,0.1,0c0.4,0,0.8,0,1.1,0c1.2,0.2,2.4,0.2,3.7,0.2c0.6,0.1,1.1,0.1,1.7,0.1c0.6,0,1.1,0,1.7,0
		c0.5,0,1.1,0,1.6-0.1c0,0,0,0,0,0c0.3,0,0.5,0,0.8-0.1c0.3,0,0.5-0.1,0.8-0.1c0.4-0.1,0.8-0.1,1.2-0.2c0.1,0,0.2,0,0.3-0.1
		c0.2-0.1,0.4-0.2,0.6-0.4c1.9-0.3,3.9-0.8,5.7-1.5c1.2-0.5,2.4-1,3.4-1.8c0.9-0.7,1.6-1.5,2.2-2.5c0.3-0.5,0.5-1,0.7-1.6
		c0.1-0.3,0.2-0.6,0.3-0.9c0.3-0.7,0.6-1.5,0.8-2.2c0-0.2,0.1-0.3,0.1-0.5c0.2-1,0.3-2,0.4-3c0-0.1,0-0.2,0-0.3
		c0.1-0.3,0.2-0.7,0.2-1.1c0-0.1,0-0.2,0-0.4c0-0.1-0.1-0.1-0.2-0.2c0-0.1,0-0.2,0-0.3c0.1-0.5,0.1-1,0.2-1.5
		C69.2,33,69.3,32.6,69.4,32.2z"/>
	<g>
		<path class="st1" d="M70.9,32.6c0.2-1.1,0.1-2.2-0.1-3.3c-0.4-2.1,0.1,1.2-0.1-1.7c-0.3-3.3-1.7-6.2-4.1-8.4
			c-4-3.7-10.2-3.4-13.3,1.3c-1.6,2.5-2.3,5.6-2.5,8.5c-0.3,3.9,1.3,9.1-4.5,8c-2.3-0.5-2-0.9-2.8-2.4c-0.9-1.7,0.1,0.7-0.2-1.9
			c-0.2-2.8-1.2-5.2-3.1-7.3c-3.7-4.2-10-5.2-13.8-0.6c-1.8,2.2-2.2,4.8-2.9,7.5c-0.3,1.1-0.1,2.1-1.2,2.9c-2.9,1.9-1.8-2.6-2-4.5
			c-0.6-4.3-0.2-0.3-0.4-2.5c-0.1-1.6-0.1-2.7-0.8-4.2c-1.1-2.7-3.4-5.5-6.1-6.6c-4.9-2.1-9.6,0.5-11.6,5.1c-3,7-0.3,14.3,3.8,20.2
			c4.6,6.5,11.7,8.8,19.2,9.1c-0.5-0.5-1-1-1.5-1.5c0,0,0,0,0,0c0,0.8,0.7,1.5,1.5,1.5c1.6,0,3.5,0,5.2-0.3c3.1-0.6,3.4-2.3,6.3-0.5
			c1.1,0.6,3.1,1.9,5.3,2.2c3.5,0.5,7.5,0.8,11,0.4c5.2-0.5,12.3-2.2,15.4-6.7C70.5,42.3,69.7,37,70.9,32.6c0.5-1.9-2.4-2.7-2.9-0.8
			c-0.5,1.9-0.5,3.7-0.5,5.2c-0.3,6.5-3.9,10.8-10.2,12.2c-8,1.9-15.6,1.8-22.8-2.6c-0.5-0.3-1-0.3-1.5,0c-2.8,1.5-5.3,2.1-8.5,2.1
			c0.5,0.5,1,1,1.5,1.5c0,0,0,0,0,0c0-0.8-0.7-1.5-1.5-1.5c-5.9-0.2-11.4-1.6-15.5-6.3C4.9,38,1.8,31,3.5,25.2
			c0.9-3.1,3.2-6.4,7-5.6c4.5,0.9,5.8,5.1,6.3,8.9c0.3,2.4,0.1,6.1,1,8.3c0.4,0.9,1,1.5,2,1.8c2.5,0.7,5.6-1.4,6.4-3.7
			c0.7-2,0.4-4.4,1.4-6.5c2.5-5.2,8.8-4.6,11.5,0.4c1.7,3.1,0.1,7.9,3.5,9.8c2.6,1.5,6,1.7,8.8,0.6c1.9-0.7,2.2-1.1,2.5-3
			c0.5-4-0.6-7.7,0.7-11.7c1.7-5.2,6.8-6.8,10.8-2.4c1.7,1.9,3.2,6.7,2.7,9.5C67.7,33.7,70.5,34.5,70.9,32.6z"/>
	</g>
</g>
<g>
	<path class="st0" d="M298.7,35.7c0-0.4-0.1-0.8-0.2-1.3c0-0.4,0-0.8-0.1-1.1c-0.1-1.2-0.4-2.4-0.8-3.5c-0.3-0.6-0.5-1.2-0.9-1.8
		c-0.4-0.6-0.8-1.2-1.3-1.7c-0.8-1-1.9-1.9-3-2.7c-1.1-0.8-2.3-1.3-3.5-1.7c-0.5-0.2-1.1-0.3-1.7-0.3c-0.8-0.1-1.5-0.2-2.3-0.2
		c0,0-0.1,0-0.1,0c-1.3,0-2.7,0.2-4,0.4c-2.3,0.3-4.5,1.1-6.4,2.5c-0.3,0.2-0.7,0.5-1,0.8c-0.1,0.1-0.2,0.2-0.4,0.3
		c-0.4,0.4-0.8,0.8-1.2,1.2c-0.4,0.5-0.9,1.1-1.2,1.7c-0.6,1-1.1,2.1-1.6,3.2c-0.6,1.4-0.8,3-1,4.5c-0.1,1.4,0,2.9,0.3,4.3
		c0.3,1.4,0.8,2.7,1.5,3.9c0.3,0.5,0.6,1.1,1,1.6c0.5,0.6,0.9,1.2,1.5,1.8c0.5,0.5,1.1,1,1.7,1.4c0.5,0.4,1.1,0.8,1.7,1.1
		c0.6,0.4,1.3,0.7,2,0.9c0.6,0.3,1.3,0.4,2,0.6c4,0.9,8.2-0.1,11.7-2.1c0.9-0.5,1.7-1.1,2.5-1.8c0.6-0.5,1.1-1.1,1.5-1.8
		c0.4-0.4,0.7-0.8,1-1.2c0.4-0.6,0.8-1.2,1-1.8c0.4-0.8,0.6-1.6,0.8-2.4C298.8,39,298.8,37.3,298.7,35.7z M287.3,37.7
		c0,0.2-0.1,0.4-0.2,0.5c-0.1,0.2-0.2,0.4-0.2,0.6c-0.1,0.2-0.2,0.3-0.3,0.5c-0.1,0.1-0.1,0.2-0.2,0.2c-0.1,0.1-0.2,0.2-0.4,0.3
		c-0.1,0.1-0.2,0.1-0.3,0.1c-0.1,0-0.1,0-0.2,0c0,0,0,0-0.1,0.1c-0.1,0.1-0.1,0.1-0.2,0.1c-0.1,0.1-0.2,0.1-0.3,0.1
		c-0.1,0-0.3,0-0.4,0c0,0,0,0,0,0c-0.1,0-0.1,0-0.2,0c-0.2,0-0.4,0-0.6,0c-0.1,0-0.2,0-0.2,0c0,0-0.1,0-0.1,0
		c-0.2,0.1-0.4,0.1-0.6,0.1c-0.2,0.1-0.3,0.1-0.5,0.2c-0.2,0-0.4,0-0.5,0c-0.1,0-0.2,0-0.3,0c-0.3-0.1-0.5-0.1-0.8-0.3
		c-0.2-0.1-0.3-0.2-0.5-0.4c-0.1-0.1-0.2-0.3-0.4-0.4c-0.1-0.1-0.1-0.2-0.2-0.4c-0.1-0.2-0.2-0.4-0.3-0.6c-0.1-0.3-0.2-0.7-0.2-1
		c0-0.3,0-0.7,0-1.1c0,0,0,0,0,0c0,0,0,0,0,0c0-0.2,0-0.4,0.1-0.7c0-0.1,0.1-0.3,0.1-0.4c0,0,0,0,0,0c0,0,0-0.1,0-0.1c0,0,0,0,0,0
		c0-0.1,0-0.2,0.1-0.2c0.1-0.2,0.2-0.5,0.3-0.6c0.1-0.1,0.2-0.3,0.3-0.4c0.1-0.1,0.2-0.2,0.3-0.3c0.1-0.1,0.3-0.2,0.4-0.2
		c0,0,0,0,0,0c0,0,0,0,0,0c0.1-0.1,0.2-0.3,0.4-0.3c0.1,0,0.2-0.1,0.3-0.1c0.1,0,0.2,0,0.3,0c0,0,0.1,0,0.1,0c0.1,0,0.2-0.1,0.2-0.1
		c0,0,0,0,0,0c0.1-0.1,0.1-0.3,0.2-0.4c0.1-0.1,0.1-0.2,0.2-0.2c0.4-0.3,0.9-0.3,1.3,0c0.2,0.1,0.3,0.3,0.4,0.6
		c0.1,0,0.2-0.1,0.3-0.1c0.1,0,0.2,0,0.3,0c0.1,0,0.2,0,0.3,0.1c0.1,0,0.2,0.1,0.3,0.1c0.3,0.2,0.5,0.4,0.7,0.8
		c0.1,0.2,0.3,0.4,0.3,0.7c0.1,0.1,0.1,0.1,0.2,0.2c0.1,0.1,0.1,0.2,0.2,0.3c0.1,0.1,0.1,0.2,0.2,0.3c0.1,0.2,0.2,0.4,0.2,0.6
		c0,0.2,0.1,0.4,0.1,0.6c0,0.2,0,0.4,0,0.6C287.4,37.3,287.4,37.5,287.3,37.7z"/>
	<g>
		<path class="st1" d="M300.1,35.3c-0.7-4.9-1.6-8.6-5.5-11.9c-3.2-2.6-7-3.7-11.1-3.4c-9.8,0.6-17.4,8-16.8,18.2
			c0.5,8.4,7.6,15.3,16.1,15.3c9.9,0,17.9-7.9,17.3-17.8c-0.1-1.9-3.1-1.9-3,0c0.5,8.2-6,14.9-14.3,14.8c-7.4,0-13.3-6.4-13.1-13.8
			c0.3-8.4,7-13.9,15.2-13.8c8.2,0.1,11.2,6.1,12.3,13.2C297.5,38,300.4,37.2,300.1,35.3z"/>
		<path class="st1" d="M285.9,37.3c-0.1,0.4-0.2,0.9-0.5,1.2c0.2-0.2-0.2,0-0.4,0.1c-0.5,0.2-0.6,0.4,0,0.3c-0.3,0.1-0.9,0-1.2,0
			c-0.3,0-1.8,0.4-2.2,0.2c-0.8-0.4-0.9-1.7-0.8-2.5c0.1-0.7,0.2-1.3,0.8-1.7c0.5-0.4,0.2-0.1,0.8-0.3c0.3-0.1,0.7-0.2,0.9-0.5
			c0.5-0.6,0.1,0-0.2-0.3c0.3,0.6,1.1,0.8,1.7,0.7c0,0,0.7,1.2,0.7,1.3c0.4,0.7,0.5,1.3,0.4,2.1c-0.2,1.9,2.8,1.9,3,0
			c0.3-2.6-1.7-7-4.9-6.2c0.6,0.2,1.1,0.5,1.7,0.7c-1.1-2-3.7-2-4.8,0c0.3-0.2,0.6-0.5,0.9-0.7c-0.2,0.1-0.7,0.1-1,0.3
			c-0.2,0.1-1.5,1-0.7,0.5c-0.8,0.6-1.4,1.1-1.8,2.1c-0.5,1.4-0.6,3-0.2,4.4c0.5,2,2.4,3.7,4.6,3.3c0.6-0.1,0.6-0.2,1-0.2
			c0.3,0,2.2-0.2,0.6-0.1c1,0,1.6-0.1,2.4-0.7c-0.4,0.1-0.7,0.3-1.1,0.4c1.9-0.2,2.7-1.7,3.2-3.4C289.3,36.3,286.4,35.5,285.9,37.3z
			"/>
	</g>
</g>
</svg>
