<?xml version="1.0" encoding="utf-8"?>
<!-- Generator: Adobe Illustrator 23.0.3, SVG Export Plug-In . SVG Version: 6.00 Build 0)  -->
<svg version="1.1" id="Layer_1" xmlns="http://www.w3.org/2000/svg" xmlns:xlink="http://www.w3.org/1999/xlink" x="0px" y="0px"
	 viewBox="0 0 339.9 81.2" style="enable-background:new 0 0 339.9 81.2;" xml:space="preserve">
<style type="text/css">
	.st0{fill:#FFFFFF;}
	.st1{fill:#2C2C2C;}
	.st2{fill:none;}
</style>
<g>
	<path class="st0" d="M260.3,46.8c-0.1-0.7-0.2-1.4-0.3-2.1c-0.2-0.8-0.4-1.6-0.7-2.3c-0.2-0.7-0.5-1.3-0.8-1.9
		c-0.3-0.7-0.7-1.3-1.1-1.9c-0.2-0.3-0.4-0.5-0.6-0.8c-0.1-0.2-0.1-0.4-0.2-0.7c-0.2-0.6-0.6-1.1-1-1.6c-0.4-0.6-1-1-1.6-1.5
		c-0.4-0.3-0.7-0.5-1.1-0.8c-0.8-0.5-1.6-0.8-2.4-1.2c-1.2-0.5-2.4-0.8-3.6-1c-0.6-0.1-1.2-0.1-1.7-0.1s-0.9,0.1-1.4,0.1
		c-0.5,0.1-1,0.2-1.5,0.4c-0.2,0.1-0.3,0.1-0.5,0.2c0.1-1.3,0.2-2.6,0.3-3.9c0.1-3.7-0.1-7.4-0.7-11.1c0-0.2-0.1-0.3-0.2-0.4
		c0,0,0,0,0-0.1c0.2-0.7,0.1-1.5,0-2.2c-0.1-0.9-0.5-1.8-0.9-2.6c-0.5-0.9-1.1-1.7-1.7-2.5c-0.3-0.4-0.7-0.7-1-1.1
		c-0.4-0.4-0.9-0.7-1.3-1c-0.7-0.5-1.6-0.8-2.5-1c-0.7-0.2-1.5-0.2-2.2-0.1c-0.4,0-0.7,0.1-1.1,0.2c-0.4,0.1-0.7,0.2-1.1,0.4
		c-0.6,0.3-1.1,0.6-1.6,1.1c-0.5,0.4-0.9,1-1.3,1.5c-0.3,0.5-0.6,1.1-0.9,1.6c-0.3,0.7-0.5,1.3-0.7,2c-0.4,1.3-0.6,2.7-0.7,4.1
		c-0.1,1.3-0.2,2.5-0.1,3.8c0,0.4,0.1,0.8,0.1,1.2c0,1.2,0,2.5,0.1,3.7c0.1,3.1,0.5,6.1,0.8,9.2c0.1,0.6,0.1,1.2,0.2,1.9
		c0,1.7,0.1,3.4,0.3,5.2c0,0.2,0,0.3,0,0.5c-0.1,1.9-0.4,3.7-0.3,5.6c0,0.9,0.2,1.8,0.5,2.7c0.1,0.2,0.1,0.3,0.2,0.5
		c0.3,0.7,0.7,1.3,1.2,1.8c0.3,0.3,0.7,0.6,1.1,0.8c0.4,0.3,0.9,0.5,1.4,0.7c0.9,0.4,1.9,0.6,2.9,0.6c0.1,0,0.2,0,0.2,0
		c0.3,0,0.6,0,0.9-0.1l0,0c0.2,0.1,0.5,0.1,0.7,0.1l0,0c0.2,0,0.5,0,0.7-0.1c0.1,0,0.3-0.1,0.4-0.1c0.2,0,0.3-0.1,0.5-0.2
		c0.3-0.1,0.6-0.2,0.9-0.4c0.4-0.2,0.7-0.4,1-0.6c0.5-0.3,0.9-0.7,1.3-1.1c0.2-0.2,0.3-0.4,0.5-0.5c0.2-0.2,0.3-0.4,0.5-0.7
		c0.1-0.2,0.2-0.4,0.3-0.5c0.4-0.6,0.8-1.1,1.2-1.7c0.6-0.8,1.1-1.7,1.6-2.6c0.2-0.1,0.3-0.1,0.5-0.2c0.3-0.1,0.6-0.1,0.9-0.2
		c0.3,0,0.6,0,0.9,0.1c0.3,0.1,0.5,0.2,0.8,0.3c0.2,0.1,0.5,0.3,0.7,0.5s0.4,0.4,0.6,0.6c0.1,0.2,0.2,0.4,0.3,0.6
		c0,0.1,0.1,0.3,0.1,0.4c0,0.4,0,0.8-0.1,1.1c-0.1,0.5-0.2,1-0.2,1.6c0,1.1,0.6,2.2,1.7,2.6h0.1c0.2,0.5,0.5,0.9,0.9,1.3
		c0.6,0.5,1.2,1,1.9,1.1c0.4,0.1,0.8,0.2,1.2,0.2c0.5,0,1-0.1,1.5-0.2c0.5-0.1,1-0.3,1.4-0.5c0.3-0.1,0.5-0.2,0.7-0.4
		c0.4-0.2,0.7-0.4,1-0.7s0.6-0.7,0.9-1c0.2-0.3,0.4-0.7,0.6-1.1c0.1-0.2,0.2-0.5,0.3-0.8c0.2-0.7,0.4-1.5,0.4-2.3
		C260.4,48.3,260.3,47.6,260.3,46.8z"/>
	<g>
		<path class="st1" d="M261.8,46.8c-1.1-9.3-9.6-21-20.4-16.6c0.6,0.5,1.3,1,1.9,1.4c0.4-4.1,0.4-8.1-0.1-12.2
			c-0.1-1.2-0.5-2.4-0.6-3.5c0.2,1.5,0.1-0.9,0-1.4c-0.3-4.5-4.1-9.3-8.5-10.3C222.4,1.5,222.5,18,222.8,25c0.2,4,0.8,7.9,1.1,11.9
			c0.2,3.7-0.4,7.5,0,11.1c0.4,4.1,3,7.2,7.2,7.8c2.8,0.4,5.4,0.2,7.7-1.5c1.6-1.1,2.5-2.6,3.6-4.1c1.2-1.8,1.2-3.5,2.9-2
			c1.6,1.4,0.5,2.3,1.1,4c0.3,0.8,0.8,1.2,1.3,1.8c0.3,0.3,1.3,1.4,1.6,1.7c1.8,1.4,3.6,2,5.9,1.5C260.3,56.4,262,51.5,261.8,46.8
			c-0.1-1.9-3.1-1.9-3,0c0.2,3.8-2,9.6-6.7,6.8c-2.7-1.6-2-2.5-2.7-5.5c-0.5-2-1.7-3.5-3.9-3.8c-3.5-0.5-4.3,2.6-6.1,5
			c-2.7,3.7-5.1,4.6-9.1,3c-4.9-1.9-3.3-6.2-3.2-10.5c0-2.5-0.2-5-0.5-7.5c-0.6-6.5-1.9-13.7-0.6-20.2c0.4-2,1.1-4.4,2.8-5.8
			c4.9-4.1,10.1,2.3,10.9,6.8c0.9,5.3,1.1,11.1,0.6,16.6c-0.1,0.9,1,1.8,1.9,1.4c8.7-3.5,15.7,6.1,16.6,13.7
			C259,48.7,262,48.7,261.8,46.8z"/>
	</g>
</g>
<g>
	<path class="st0" d="M185.8,46.8c-0.1-0.7-0.2-1.4-0.3-2.1c-0.2-0.8-0.4-1.6-0.7-2.3c-0.2-0.7-0.5-1.3-0.8-1.9
		c-0.3-0.7-0.7-1.3-1.1-1.9c-0.2-0.3-0.4-0.5-0.6-0.8c-0.1-0.2-0.1-0.4-0.2-0.7c-0.2-0.6-0.6-1.1-1-1.6c-0.4-0.6-1-1-1.6-1.5
		c-0.4-0.3-0.7-0.5-1.1-0.8c-0.4-0.3-0.9-0.5-1.4-0.7c0.9-0.6,1.8-1.5,2.2-2.5c0.1-0.3,0.2-0.5,0.2-0.7c0.1-0.3,0.1-0.6,0.1-0.8l0,0
		c0.1-0.2,0.3-0.4,0.4-0.6c0.1-0.1,0.2-0.2,0.3-0.3c0.2-0.2,0.4-0.4,0.6-0.7c0.2-0.2,0.3-0.5,0.5-0.7c0.2-0.4,0.3-0.7,0.5-1.1
		c0,0,0,0,0-0.1l0,0c0.2-0.4,0.5-0.7,0.6-1.1c0.1-0.3,0.2-0.6,0.3-0.9s0.1-0.6,0.1-0.9c0-0.4,0-0.8-0.1-1.2c0-0.1-0.1-0.2-0.1-0.4
		l0,0v-0.1l0,0c0-0.2-0.1-0.4-0.2-0.6c-0.2-0.3-0.3-0.6-0.5-0.8l0,0l0,0c-0.3-0.4-0.7-0.7-1.1-0.9c-0.4-0.3-0.9-0.4-1.5-0.5
		c-0.4-0.1-0.7,0-1.1,0c-0.3,0-0.5,0.1-0.8,0.1c-0.4,0.1-0.8,0.2-1.2,0.3c-0.4,0.2-0.9,0.4-1.3,0.6c-0.7,0.4-1.3,0.8-1.9,1.3
		c-0.2,0.2-0.5,0.4-0.7,0.6c-0.4,0.4-0.7,0.8-1.1,1.2c-0.3,0.4-0.6,0.8-0.9,1.2c-0.4,0.4-0.8,0.9-1.1,1.4c-0.1,0.1-0.1,0.1-0.2,0.2
		c-0.2,0.2-0.3,0.3-0.5,0.5c-0.3,0.3-0.7,0.7-1,1c0-3.2-0.2-6.4-0.8-9.5c0-0.2-0.1-0.3-0.2-0.4c0,0,0,0,0-0.1c0.2-0.7,0.1-1.5,0-2.2
		c-0.1-0.9-0.5-1.8-0.9-2.6c-0.5-0.9-1.1-1.7-1.7-2.5c-0.3-0.4-0.7-0.7-1-1.1c-0.4-0.4-0.9-0.7-1.3-1c-0.7-0.5-1.6-0.8-2.5-1
		c-0.7-0.2-1.5-0.2-2.2-0.1c-0.4,0-0.7,0.1-1.1,0.2c-0.4,0.1-0.7,0.2-1.1,0.4c-0.6,0.3-1.1,0.6-1.6,1.1c-0.5,0.4-0.9,1-1.3,1.5
		c-0.3,0.5-0.6,1.1-0.9,1.6c-0.3,0.7-0.5,1.3-0.7,2c-0.4,1.3-0.6,2.7-0.7,4.1c-0.1,1.3-0.2,2.5-0.1,3.8c0,0.4,0.1,0.8,0.1,1.2
		c0,1.2,0,2.5,0.1,3.7c0.1,3.1,0.5,6.1,0.8,9.2c0.1,0.6,0.1,1.2,0.2,1.9c0,1.7,0.1,3.4,0.3,5.2c0,0.2,0,0.3,0,0.5
		c-0.1,1.9-0.4,3.7-0.3,5.6c0,0.9,0.2,1.8,0.5,2.7c0.1,0.2,0.1,0.3,0.2,0.5c0.3,0.7,0.7,1.3,1.2,1.8c0.3,0.3,0.7,0.6,1.1,0.8
		c0.4,0.3,0.9,0.5,1.4,0.7c0.9,0.4,1.9,0.6,2.9,0.6c0.1,0,0.2,0,0.2,0c0.3,0,0.6,0,0.9-0.1l0,0c0.2,0.1,0.5,0.1,0.7,0.1l0,0
		c0.2,0,0.5,0,0.7-0.1c0.1,0,0.3-0.1,0.4-0.1c0.2,0,0.3-0.1,0.5-0.2c0.3-0.1,0.6-0.2,0.9-0.4c0.4-0.2,0.7-0.4,1-0.6
		c0.5-0.3,0.9-0.7,1.3-1.1c0.2-0.2,0.3-0.4,0.5-0.5c0.2-0.2,0.3-0.4,0.5-0.7c0.1-0.2,0.2-0.4,0.3-0.5c0.4-0.6,0.8-1.1,1.2-1.7
		c0.6-0.8,1.1-1.7,1.6-2.6c0.2-0.1,0.3-0.1,0.5-0.2c0.3-0.1,0.6-0.1,0.9-0.2c0.3,0,0.6,0,0.9,0.1c0.3,0.1,0.5,0.2,0.8,0.3
		c0.2,0.1,0.5,0.3,0.7,0.5s0.4,0.4,0.6,0.6c0.1,0.2,0.2,0.4,0.3,0.6c0,0.1,0.1,0.3,0.1,0.4c0,0.4,0,0.8-0.1,1.1
		c-0.1,0.5-0.2,1-0.2,1.6c0,1.1,0.6,2.2,1.7,2.6h0.1c0.2,0.5,0.5,0.9,0.9,1.3c0.6,0.5,1.2,1,1.9,1.1c0.4,0.1,0.8,0.2,1.2,0.2
		c0.5,0,1-0.1,1.5-0.2c0.5-0.1,1-0.3,1.4-0.5c0.3-0.1,0.5-0.2,0.7-0.4c0.4-0.2,0.7-0.4,1-0.7s0.6-0.7,0.9-1c0.2-0.3,0.4-0.7,0.6-1.1
		c0.1-0.2,0.2-0.5,0.3-0.8c0.2-0.7,0.4-1.5,0.4-2.3C185.9,48.3,185.8,47.6,185.8,46.8z"/>
	<g>
		<path class="st1" d="M187.3,46.8c-0.7-6.2-3.9-12.5-9.5-15.5c0,0.9,0,1.7,0,2.6c1.6-1.2,2.3-2.3,3.1-4.1c0.6-1.1,1-1.7,1.8-3.1
			c0.9-1.5,1.9-4.9,1.3-6.6c-1-2.7-3.4-4.2-6.3-3.9c-5.2,0.5-8,5.5-11.2,8.9c0.9,0.4,1.7,0.7,2.6,1.1c0-3.4-0.5-6.7-0.9-10.1
			c0-0.1,0.1,0.9,0-0.5c-0.1-1.2,0-2.2-0.4-3.4c-1.4-4.3-5.5-8.2-10.2-8.2c-11.5,0.1-9.6,17.6-9,24.7c0.3,3.9,0.9,7.8,1,11.7
			c0.1,2.9-0.7,5.9-0.1,8.8c0.8,4.3,4.4,6.7,8.7,6.9c2.7,0.2,4.9-0.5,6.9-2.3c1.4-1.2,2.4-2.8,3.4-4.3c1-1.6,2.1-3.3,3.4-0.2
			c0.4,0.9-0.3,2.3,0.2,3.4c0.6,1.2,2.3,2.8,3.2,3.5c1.6,1.2,3.4,1.6,5.5,1.2C185.8,56.4,187.6,51.5,187.3,46.8
			c-0.1-1.9-3.1-1.9-3,0c0.2,3.8-2,9.6-6.7,6.8c-2.5-1.5-2.2-1.9-2.8-4.9c-0.4-2.1-1-3.8-3.4-4.4c-6.2-1.4-6.3,9.5-13.2,8.8
			c-8.3-0.8-5.5-9.5-5.9-15.2c-0.4-6.2-1.1-12.4-1.3-18.6c-0.2-5.6,3-17,10.8-10.5c4.2,3.5,4.1,12.5,4.1,17.4c0,1.3,1.7,2,2.6,1.1
			c1.9-2,10.4-12.9,12.6-6.2c0.6,1.8-1.1,4-2,5.5c-0.7,1.1-2.2,4.1-2.9,4.7c-0.8,0.6-1.1,2,0,2.6c4.5,2.4,7.4,7.9,8,12.9
			C184.5,48.7,187.5,48.7,187.3,46.8z"/>
	</g>
</g>
<g>
	<path class="st2" d="M94.1,39.9c-0.1-0.2-0.1-0.4-0.2-0.6c-0.1-0.1-0.1-0.2-0.2-0.3c0-0.1-0.1-0.2-0.2-0.3s-0.1-0.1-0.2-0.2
		c-0.1-0.2-0.2-0.5-0.3-0.7c-0.2-0.3-0.4-0.6-0.7-0.8c-0.1,0-0.2,0-0.3-0.1c-0.1,0-0.2,0-0.3-0.1c-0.1,0-0.2,0-0.3,0
		c-0.1,0-0.2,0-0.3,0.1c-0.1-0.2-0.2-0.4-0.4-0.6c-0.4-0.3-0.9-0.4-1.3,0c-0.1,0.1-0.2,0.1-0.2,0.2c-0.1,0.1-0.2,0.2-0.2,0.4l0,0
		c-0.1,0-0.2,0.1-0.2,0.1h-0.1c-0.1,0-0.2,0-0.3,0c-0.1,0-0.2,0.1-0.3,0.1c-0.1,0.1-0.3,0.2-0.4,0.3l0,0l0,0
		c-0.1,0.1-0.3,0.1-0.4,0.2c-0.1,0.1-0.2,0.2-0.3,0.3c-0.1,0.1-0.2,0.2-0.3,0.4c-0.1,0.2-0.2,0.4-0.3,0.6c0,0.1,0,0.2-0.1,0.2l0,0
		v0.1l0,0c0,0.1-0.1,0.3-0.1,0.4c0,0.2-0.1,0.4-0.1,0.7l0,0l0,0c0,0.4,0,0.7,0,1.1c0,0.3,0.1,0.7,0.2,1c0.1,0.2,0.2,0.4,0.3,0.6
		c0.1,0.1,0.1,0.2,0.2,0.4s0.2,0.3,0.4,0.4c0.1,0.1,0.3,0.3,0.5,0.4c0.2,0.2,0.5,0.2,0.8,0.3c0.1,0,0.2,0,0.3,0c0.2,0,0.4,0,0.5,0
		c0.2,0,0.3-0.1,0.5-0.2c0.2,0,0.4,0,0.6-0.1h0.1c0.1,0,0.2,0,0.2,0c0.2,0,0.4,0,0.6,0c0.1,0,0.1,0,0.2,0l0,0c0.1,0,0.3,0,0.4,0
		s0.2-0.1,0.3-0.1c0.1,0,0.1-0.1,0.2-0.1c0,0,0,0,0.1-0.1c0.1,0,0.1,0,0.2,0s0.2-0.1,0.3-0.1c0.1-0.1,0.2-0.2,0.4-0.3
		c0.1-0.1,0.1-0.2,0.2-0.2c0.1-0.1,0.2-0.3,0.3-0.5c0.1-0.2,0.2-0.4,0.2-0.6c0.1-0.2,0.1-0.4,0.2-0.5c0-0.2,0.1-0.4,0.1-0.6
		c0-0.2,0-0.4,0-0.6C94.2,40.3,94.1,40.1,94.1,39.9z"/>
	<g>
		<path class="st0" d="M105.5,39.7c0-0.4-0.1-0.8-0.2-1.3c0-0.4,0-0.8-0.1-1.1c-0.1-1.2-0.4-2.4-0.8-3.5c-0.3-0.6-0.5-1.2-0.9-1.8
			c-0.4-0.6-0.8-1.2-1.3-1.7c-0.8-1-1.9-1.9-3-2.7c-1.1-0.8-2.3-1.3-3.5-1.7c-0.5-0.2-1.1-0.3-1.7-0.3c-0.8-0.1-1.5-0.2-2.3-0.2
			h-0.1c-1.3,0-2.7,0.2-4,0.4c-2.3,0.3-4.5,1.1-6.4,2.5c-0.3,0.2-0.7,0.5-1,0.8c-0.1,0.1-0.2,0.2-0.4,0.3c-0.4,0.4-0.8,0.8-1.2,1.2
			c-0.4,0.5-0.9,1.1-1.2,1.7c-0.6,1-1.1,2.1-1.6,3.2c-0.6,1.4-0.8,3-1,4.5c-0.1,1.4,0,2.9,0.3,4.3c0.3,1.4,0.8,2.7,1.5,3.9
			c0.3,0.5,0.6,1.1,1,1.6c0.5,0.6,0.9,1.2,1.5,1.8c0.5,0.5,1.1,1,1.7,1.4c0.5,0.4,1.1,0.8,1.7,1.1c0.6,0.4,1.3,0.7,2,0.9
			c0.6,0.3,1.3,0.4,2,0.6c4,0.9,8.2-0.1,11.7-2.1c0.9-0.5,1.7-1.1,2.5-1.8c0.6-0.5,1.1-1.1,1.5-1.8c0.4-0.4,0.7-0.8,1-1.2
			c0.4-0.6,0.8-1.2,1-1.8c0.4-0.8,0.6-1.6,0.8-2.4C105.6,43,105.7,41.3,105.5,39.7z M94.2,41.7c0,0.2-0.1,0.4-0.2,0.5
			c-0.1,0.2-0.2,0.4-0.2,0.6c-0.1,0.2-0.2,0.3-0.3,0.5c-0.1,0.1-0.1,0.2-0.2,0.2c-0.1,0.1-0.2,0.2-0.4,0.3c-0.1,0.1-0.2,0.1-0.3,0.1
			c-0.1,0-0.1,0-0.2,0c0,0,0,0-0.1,0.1s-0.1,0.1-0.2,0.1c-0.1,0.1-0.2,0.1-0.3,0.1c-0.1,0-0.3,0-0.4,0l0,0c-0.1,0-0.1,0-0.2,0
			c-0.2,0-0.4,0-0.6,0c-0.1,0-0.2,0-0.2,0h-0.1c-0.2,0.1-0.4,0.1-0.6,0.1c-0.2,0.1-0.3,0.1-0.5,0.2c-0.2,0-0.4,0-0.5,0s-0.2,0-0.3,0
			c-0.3-0.1-0.5-0.1-0.8-0.3c-0.2-0.1-0.3-0.2-0.5-0.4c-0.1-0.1-0.2-0.3-0.4-0.4c-0.1-0.1-0.1-0.2-0.2-0.4s-0.2-0.4-0.3-0.6
			c-0.1-0.3-0.2-0.7-0.2-1s0-0.7,0-1.1l0,0l0,0c0-0.2,0-0.4,0.1-0.7c0-0.1,0.1-0.3,0.1-0.4l0,0v-0.1l0,0c0-0.1,0-0.2,0.1-0.2
			c0.1-0.2,0.2-0.5,0.3-0.6c0.1-0.1,0.2-0.3,0.3-0.4c0.1-0.1,0.2-0.2,0.3-0.3c0.1-0.1,0.3-0.2,0.4-0.2l0,0l0,0
			c0.1-0.1,0.2-0.3,0.4-0.3c0.1,0,0.2-0.1,0.3-0.1c0.1,0,0.2,0,0.3,0h0.1c0.1,0,0.2-0.1,0.2-0.1l0,0c0.1-0.1,0.1-0.3,0.2-0.4
			c0.1-0.1,0.1-0.2,0.2-0.2c0.4-0.3,0.9-0.3,1.3,0c0.2,0.1,0.3,0.3,0.4,0.6c0.1,0,0.2-0.1,0.3-0.1c0.1,0,0.2,0,0.3,0
			c0.1,0,0.2,0,0.3,0.1c0.1,0,0.2,0.1,0.3,0.1c0.3,0.2,0.5,0.4,0.7,0.8c0.1,0.2,0.2,0.4,0.3,0.7c0.1,0.1,0.1,0.1,0.2,0.2
			c0.1,0.1,0.1,0.2,0.2,0.3s0.1,0.2,0.2,0.3c0.1,0.2,0.2,0.4,0.2,0.6c0,0.2,0.1,0.4,0.1,0.6c0,0.2,0,0.4,0,0.6
			C94.2,41.3,94.2,41.5,94.2,41.7z"/>
		<g>
			<path class="st1" d="M107,39.3c-0.7-4.9-1.6-8.6-5.5-11.9c-3.2-2.6-7-3.7-11.1-3.4c-9.8,0.6-17.4,8-16.8,18.2
				c0.5,8.4,7.6,15.3,16.1,15.3c9.9,0,17.9-7.9,17.3-17.8c-0.1-1.9-3.1-1.9-3,0c0.5,8.2-6,14.9-14.3,14.8c-7.4,0-13.3-6.4-13.1-13.8
				c0.3-8.4,7-13.9,15.2-13.8S103,33,104.1,40.1C104.3,42,107.2,41.2,107,39.3z"/>
			<path class="st1" d="M92.7,41.3c-0.1,0.4-0.2,0.9-0.5,1.2c0.2-0.2-0.2,0-0.4,0.1c-0.5,0.2-0.6,0.4,0,0.3c-0.3,0.1-0.9,0-1.2,0
				c-0.3,0-1.8,0.4-2.2,0.2c-0.8-0.4-0.9-1.7-0.8-2.5c0.1-0.7,0.2-1.3,0.8-1.7c0.5-0.4,0.2-0.1,0.8-0.3c0.3-0.1,0.7-0.2,0.9-0.5
				c0.5-0.6,0.1,0-0.2-0.3c0.3,0.6,1.1,0.8,1.7,0.7c0,0,0.7,1.2,0.7,1.3c0.4,0.7,0.5,1.3,0.4,2.1c-0.2,1.9,2.8,1.9,3,0
				c0.3-2.6-1.7-7-4.9-6.2c0.6,0.2,1.1,0.5,1.7,0.7c-1.1-2-3.7-2-4.8,0c0.3-0.2,0.6-0.5,0.9-0.7c-0.2,0.1-0.7,0.1-1,0.3
				c-0.2,0.1-1.5,1-0.7,0.5c-0.8,0.6-1.4,1.1-1.8,2.1c-0.5,1.4-0.6,3-0.2,4.4c0.5,2,2.4,3.7,4.6,3.3c0.6-0.1,0.6-0.2,1-0.2
				c0.3,0,2.2-0.2,0.6-0.1c1,0,1.6-0.1,2.4-0.7c-0.4,0.1-0.7,0.3-1.1,0.4c1.9-0.2,2.7-1.7,3.2-3.4C96.2,40.3,93.3,39.5,92.7,41.3z"
				/>
		</g>
	</g>
</g>
<g>
	<path class="st0" d="M337.6,40.8c-0.1-0.5-0.2-1-0.4-1.5c-0.1-0.2-0.2-0.4-0.3-0.5c0-0.1,0-0.3,0-0.4c0-0.8-0.1-1.6-0.2-2.3
		c-0.2-0.8-0.5-1.6-0.8-2.3c-0.3-0.6-0.7-1.1-1.1-1.7c-0.5-0.7-1.1-1.3-1.7-1.8s-1.2-1-1.9-1.4c-0.3-0.2-0.6-0.4-0.9-0.5
		c-0.4-0.2-0.7-0.3-1.1-0.5c-0.7-0.3-1.5-0.6-2.3-0.8c-0.8-0.2-1.7-0.3-2.5-0.4c-1.5-0.1-3,0.1-4.5,0.6c-0.7,0.2-1.5,0.6-2.1,1
		c-0.1,0-0.2,0.1-0.2,0.2c-0.2-0.1-0.3-0.2-0.5-0.4c-0.7-0.5-1.6-0.8-2.5-1c-0.7-0.2-1.5-0.2-2.2-0.1c-0.4,0-0.7,0.1-1.1,0.2
		s-0.7,0.2-1.1,0.4c-0.6,0.3-1.1,0.6-1.6,1.1c-0.5,0.4-0.9,1-1.3,1.5c-0.3,0.5-0.6,1.1-0.9,1.6c-0.3,0.7-0.5,1.3-0.7,2
		c-0.4,1.3-0.6,2.7-0.7,4.1c-0.1,1.3-0.2,2.5-0.1,3.8c0,0.4,0.1,0.8,0.1,1.2c0,1.2,0,2.5,0.1,3.7c0.1,3.1,0.5,6.1,0.8,9.2
		c0.1,0.6,0.1,1.2,0.2,1.9c0,1.7,0.1,3.4,0.3,5.2c0,0.2,0,0.3,0,0.5c-0.1,1.9-0.4,3.7-0.3,5.6c0,0.9,0.2,1.8,0.5,2.7
		c0.3,0.9,0.8,1.7,1.4,2.3c0.3,0.3,0.7,0.6,1.1,0.8c0.4,0.3,0.9,0.5,1.4,0.7c0.9,0.4,1.9,0.6,2.9,0.6c0.1,0,0.2,0,0.2,0
		c0.3,0,0.6,0,0.9-0.1l0,0c0.2,0.1,0.5,0.1,0.7,0.1l0,0c0.2,0,0.5,0,0.7-0.1c0.1,0,0.3-0.1,0.4-0.1c0.2,0,0.3-0.1,0.5-0.2
		c0.3-0.1,0.6-0.2,0.9-0.4c0.4-0.2,0.7-0.4,1-0.6c0.5-0.3,0.9-0.7,1.3-1.1s0.7-0.8,1-1.2c0.3-0.4,0.5-0.9,0.7-1.3
		c0.1-0.3,0.2-0.6,0.3-1c0.1-0.5,0.1-1,0.2-1.5c0.1-0.9,0.1-1.9,0-2.8c-0.1-0.8-0.2-1.6-0.3-2.3c0.1-1.1,0.2-2.2,0.3-3.4
		c0-0.6,0.1-1.3,0.1-1.9c0.1-0.9,0.1-1.9,0.1-2.8c0-0.1,0-0.3,0.1-0.4c0.1-0.9,0.3-1.9,0.3-2.8c0.4,0,0.9,0,1.3,0
		c0.8,0,1.6-0.2,2.4-0.3c1.4-0.3,2.7-0.8,4-1.4c0.7-0.3,1.3-0.7,1.9-1.2c0.4-0.2,0.8-0.5,1.2-0.8c0.8-0.6,1.6-1.3,2.2-2
		c0.3-0.4,0.6-0.9,0.9-1.3c0.3-0.4,0.4-0.9,0.6-1.4s0.2-1,0.3-1.5C337.6,41.6,337.6,41.2,337.6,40.8z M326.3,40.5
		c0,0.1,0,0.3-0.1,0.4c0,0.1-0.1,0.3-0.2,0.4c-0.1,0.2-0.2,0.3-0.4,0.4c-0.1,0.1-0.1,0.1-0.2,0.1c-0.1,0.1-0.2,0.1-0.4,0.1
		c-0.1,0-0.2,0.1-0.4,0.1c-0.1,0.1-0.3,0.1-0.4,0.1l0,0c0,0-0.1,0.1-0.2,0.1c-0.1,0.1-0.3,0.1-0.4,0.2h-0.1l0,0
		c-0.1,0.1-0.2,0.1-0.2,0.1c-0.1,0-0.2,0-0.3,0c-0.1,0-0.1,0-0.2,0c0,0,0,0-0.1,0c0,0-0.1,0-0.1,0.1c-0.1,0-0.2,0-0.3,0
		c-0.1,0-0.2,0-0.3-0.1c-0.1,0-0.1-0.1-0.2-0.1c-0.1-0.1-0.2-0.1-0.3-0.2c-0.1-0.1-0.2-0.2-0.3-0.3c-0.1-0.1-0.2-0.2-0.3-0.3
		c-0.1-0.1-0.2-0.2-0.3-0.4c-0.1-0.1-0.1-0.3-0.2-0.4c-0.1-0.1-0.1-0.3-0.1-0.4c0-0.2,0-0.3,0-0.5c0-0.1,0-0.2,0-0.3s0-0.2,0-0.2
		c0-0.1,0-0.1,0-0.2c0-0.2,0-0.4,0-0.5c0-0.3,0.1-0.5,0.2-0.7c0-0.1,0.1-0.1,0.1-0.2l0.1-0.1c0,0,0.1-0.1,0.2-0.1s0.1,0,0.2-0.1
		c0-0.2,0-0.3,0.1-0.5c0.1-0.3,0.5-0.5,0.8-0.5c0.1,0,0.1,0,0.2,0.1c0.1,0,0.2,0.1,0.3,0.2l0,0c0.1,0,0.1,0,0.2,0c0,0,0.1,0,0.1-0.1
		c0.1,0,0.1-0.1,0.2-0.1s0.2,0,0.2,0c0.1,0,0.2,0,0.4,0.1l0,0l0,0c0.1,0,0.2,0,0.4,0c0.1,0,0.2,0,0.3,0.1c0.1,0,0.2,0.1,0.3,0.2
		c0.1,0.1,0.3,0.2,0.4,0.3l0.1,0.1l0,0l0,0l0,0c0.1,0.1,0.1,0.1,0.2,0.2c0.1,0.1,0.2,0.3,0.3,0.4l0,0l0,0c0.1,0.2,0.2,0.5,0.3,0.7
		c0.1,0.2,0.2,0.5,0.2,0.7s0,0.3,0,0.5C326.3,40.3,326.3,40.4,326.3,40.5z"/>
	<g>
		<path class="st1" d="M339,40.4c-1.3-4.9-1.5-8.9-6-12.2c-2-1.5-4.4-2.5-6.9-2.8c-3.1-0.5-5.1,0.5-8,1c-2.1,0.4,1,0.9-1.8-0.4
			c-1.1-0.5-2.7-0.7-3.9-0.6c-1.8,0.2-3.5,0.9-4.8,2.1c-4.3,3.9-4.2,10.9-4,16.2c0.2,4.6,0.7,9.2,1.1,13.8c0.3,4.2-0.6,8.6,0.1,12.7
			c0.8,5,4.6,7.1,9.3,7.2c3.8,0.1,7.3-1.8,8.9-5.6c1-2.5,0.6-5.1,0.5-7.6c-0.1-4,0.3-8.1,0.7-12.1c-0.5,0.5-1,1-1.5,1.5
			c7,0.1,16.6-4.6,16.3-12.6c-0.1-1.9-3.1-1.9-3,0c0.3,6.3-8,9.7-13.3,9.6c-0.9,0-1.4,0.7-1.5,1.5c-0.3,3-0.5,5.9-0.6,8.8
			c-0.2,3.7,1.2,8.5-1.6,11.6c-1.4,1.6-2.7,2-4.5,1.9c-1.8,0-4.9-1.1-6-2.4c-1.6-1.9-0.6-5.7-0.6-7.9c0.3-7-1-14.3-1.3-21.3
			c-0.2-5,1.1-19.5,10.2-13.1c0.4,0.3,1.1,0.3,1.5,0c4-2.8,10.3-1.5,13.7,1.6c3,2.7,3.1,6.3,4,9.9C336.6,43.1,339.5,42.3,339,40.4z"
			/>
		<path class="st1" d="M324.8,40.1c-0.1,0.6-0.8,0.6-1.3,0.8c-0.2,0.1-0.4,0.1-0.5,0.2c-1.1,0.6,0.2-0.1,0.2,0c0,0-1.1-0.1-0.7,0
			c-0.2-0.1-0.4-0.4-0.5-0.6c-0.1-0.3-0.1-0.6-0.1-0.8c0.1-0.2,0.1-0.4,0-0.7c0.1-0.4,0-0.3-0.2,0c0.7-0.2,1.1-0.8,1.1-1.4
			c0,0.7-1.4,0.4-0.5,0.7c0.3,0.1,0.7,0,1,0c1.4-0.3-0.3-0.1,0.1-0.1c0.2,0,0.4,0,0.6,0.1c0.6,0.4,0.8,1.4,0.8,2
			c-0.1,1.9,2.9,1.9,3,0c0.1-2.1-1.4-4.7-3.7-5c-1.2-0.2,0.9,0.1-0.3-0.1c-0.4-0.1-0.7-0.1-1,0c-0.1,0-0.3,0.1-0.4,0.2
			c-0.6,0.2-0.2,0.3,1.1,0.1c-0.2-0.2-0.6-0.3-0.9-0.4c-1.6-0.4-2.8,0.9-2.8,2.4c0.4-0.5,0.7-1,1.1-1.4c-1.7,0.4-1.9,2.1-2,3.6
			c-0.1,1.8,1,3.6,2.8,4.2c0.4,0.1,0.7,0.1,1.1,0.1c1.2,0-1.1,0,0.4,0c0.5,0,0.8-0.1,1.3-0.3c1.1-0.5-0.9,0.4,0.2,0
			c0.6-0.3,1-0.2,1.7-0.6c0.8-0.5,1.3-1.3,1.5-2.2C328.1,39,325.2,38.2,324.8,40.1z"/>
	</g>
</g>
<g>
	<path class="st0" d="M143.1,30.8c0-0.4-0.1-0.9-0.2-1.3c-0.1-0.6-0.3-1.2-0.5-1.7c-0.3-0.7-0.5-1.4-0.9-2l0,0l0,0
		c-0.1-0.2-0.2-0.4-0.3-0.6s-0.3-0.4-0.4-0.6c-0.1-0.1-0.2-0.2-0.3-0.3c-0.1-0.1-0.1-0.1-0.2-0.2c-0.2-0.3-0.5-0.6-0.8-0.9
		c-0.4-0.3-0.8-0.6-1.2-0.8c-0.4-0.2-0.9-0.4-1.4-0.5c-0.9-0.2-1.8-0.2-2.8-0.1s-2,0.4-3,0.8c-0.9,0.4-1.9,0.8-2.8,1.3
		c-1.7,1-3.4,2.2-4.9,3.6c-0.2,0-0.4-0.1-0.7-0.1c-0.3,0-0.6-0.1-1-0.1c-0.1,0-0.2,0-0.2,0c-0.3,0-0.6,0-0.9,0.1l0,0
		c-0.2-0.1-0.5-0.1-0.7-0.1l0,0c-0.2,0-0.5,0-0.7,0.1c-0.1,0-0.3,0.1-0.4,0.1c-0.2,0-0.3,0.1-0.5,0.2c-0.3,0.1-0.6,0.2-0.9,0.4
		c-0.4,0.2-0.7,0.4-1,0.6c-0.5,0.3-0.9,0.7-1.3,1.1s-0.7,0.8-1,1.2c-0.3,0.4-0.5,0.9-0.7,1.3c-0.1,0.3-0.2,0.6-0.3,1
		c-0.1,0.5-0.1,1-0.2,1.5c-0.1,0.9-0.1,1.9,0,2.8c0.1,0.8,0.2,1.6,0.3,2.3c-0.1,1.1-0.2,2.2-0.3,3.4c0,0.5,0,0.9-0.1,1.4
		c0,0.1,0,0.2,0,0.2c0,0.2,0.1,0.3,0.2,0.4c0,0,0,0,0,0.1c-0.2,0.7-0.1,1.5,0,2.2c0.1,0.9,0.5,1.8,0.9,2.6c0.5,0.9,1.1,1.7,1.7,2.5
		c0.3,0.4,0.7,0.7,1,1.1c0.4,0.4,0.9,0.7,1.3,1c0.7,0.5,1.6,0.8,2.5,1c0.7,0.2,1.5,0.2,2.2,0.1c0.4,0,0.7-0.1,1.1-0.2
		c0.1,0,0.2-0.1,0.2-0.1c0.3-0.1,0.6-0.2,0.8-0.3c0.6-0.3,1.1-0.6,1.6-1.1c0.5-0.4,0.9-1,1.3-1.5c0.3-0.5,0.6-1.1,0.9-1.6
		c0.3-0.6,0.5-1.2,0.7-1.9c-0.1-0.6-0.1-1.2-0.2-1.7c-0.1-0.6-0.1-1.2-0.2-1.9c0-0.5,0-1,0-1.5c0-1.2-0.1-2.5-0.3-3.7
		c0-0.2,0-0.3,0-0.5c0,0,0,0,0-0.1c0.7-0.7,1.4-1.3,2.2-1.8c0.7-0.4,1.4-0.7,2.1-1c0.2,0,0.5-0.1,0.7-0.1c0.5,0,1,0,1.6,0
		s1.1,0.1,1.7,0.1c0.7,0,1.4-0.1,2.1-0.3c0.6-0.2,1.2-0.5,1.7-0.9c0.3-0.2,0.6-0.6,0.8-0.9c0.3-0.4,0.5-0.8,0.7-1.3
		c0.2-0.4,0.3-0.8,0.4-1.3c0.1-0.2,0.1-0.5,0.1-0.7C143.1,31.6,143.1,31.2,143.1,30.8z"/>
	<g>
		<path class="st1" d="M144.6,30.8c-0.5-3.9-1.6-7.8-5.5-9.8c-2.6-1.4-5.6-0.9-8.3,0.1c-1.6,0.6-3,1.4-4.4,2.3
			c-0.8,0.5-2.4,2.3-3.2,2.5c-1,0.4-2.8-0.3-3.9-0.1c-2,0.3-3.8,1.4-5.1,2.8c-4,4.2-2.6,11.3-2.6,16.5c0,1.4,0.1-1,0.2,0.2
			c0.1,1.4-0.1,2.5,0.4,4c0.8,2.6,2.9,5.4,5.3,6.8c3.7,2.3,8.4,1.6,11.1-1.7c1.7-2.1,2.3-4.2,2.2-6.8c-0.1-1.3-1.2-6-0.5-7
			c0.9-1.5,3.4-1.7,5.1-1.9C140.7,38.3,144.4,37,144.6,30.8c0.1-1.9-2.9-1.9-3,0c-0.2,6.9-6.3,3.8-10.2,5.6c-2,0.9-3.6,2.1-4,4.2
			c-0.9,4.5,3,11.6-3.4,13.7c-5.8,1.9-8.8-5-9.1-9.4c-0.2-3.8-0.8-8.6,0.7-12.2c1.8-4.2,3.6-3.8,7-3.9c3.6-0.1,5.9-3.6,9.3-4.9
			c5.8-2.1,9,1.6,9.7,6.8C141.9,32.7,144.9,32.7,144.6,30.8z"/>
	</g>
</g>
<g>
	<path class="st0" d="M216.7,40.2c-0.3-0.9-0.6-1.7-1.1-2.4c0-0.1-0.1-0.2-0.1-0.2c-0.4-0.7-0.8-1.4-1.4-2c-0.1-0.1-0.2-0.3-0.3-0.4
		c-0.4-0.4-0.9-0.8-1.5-1c0,0-0.1,0-0.1-0.1c-0.4-0.3-0.9-0.4-1.2-0.5c-0.4-0.1-0.8-0.2-1.2-0.3c-0.8-0.2-1.6-0.2-2.6-0.2l0,0
		c-0.9-0.1-1.7-0.2-2.4-0.2c-0.2,0-0.3,0-0.5,0c-0.7,0-1.4,0.1-2,0.1c0,0,0,0-0.1,0l-0.1,0.1l-0.1,0.1c0,0-0.1,0-0.1,0.1
		c0,0-0.1,0-0.2,0h-0.1c-0.1,0-0.1,0-0.2,0h-0.1h-0.1c0,0,0,0-0.1,0s-0.1,0-0.2,0c-0.1,0-0.2-0.1-0.2-0.1l0,0c0,0,0,0,0-0.1
		c0,0,0,0,0-0.1c0,0,0,0,0-0.1c-0.1,0-0.1,0-0.2,0c-0.1-0.1-0.2-0.2-0.1-0.3c0,0,0,0,0-0.1c0,0,0-0.1,0.1-0.1l0,0c0,0,0,0,0-0.1l0,0
		c0,0,0,0,0-0.1c0,0,0,0,0-0.1c0,0,0-0.1,0.1-0.1l0,0l0,0v-0.1v-0.1c0,0,0-0.1,0.1-0.1l0.1-0.1c0,0,0,0,0.1,0l0,0l0,0l0,0
		c0,0,0.1,0,0.1-0.1c0.1,0,0.1,0,0.2-0.1l0,0l0,0l0,0l0,0c0.4-0.2,0.8-0.4,1.2-0.5c0.5-0.1,1-0.2,1.5-0.2c0.4,0,0.7,0.1,1.2,0.1l0,0
		h0.1c0.1,0,0.1,0,0.2,0c0.4,0.1,0.7,0.1,1.1,0.2l0.6,0.1c0.6,0.1,1.3,0.2,2,0.3c0.3,0,0.7,0,1,0c0.5,0,0.9,0,1.4-0.1
		c0.2,0,0.4,0,0.6,0c0.1,0,0.2,0,0.4,0s0.4-0.1,0.7-0.1c0.3-0.1,0.6-0.2,0.8-0.3c0.3-0.1,0.5-0.3,0.7-0.4s0.4-0.3,0.6-0.5
		c0.2-0.2,0.4-0.4,0.5-0.6l0.1-0.1c0.3-0.3,0.5-0.6,0.7-1c0.1-0.2,0.1-0.4,0.2-0.5v-0.1c0-0.1,0.1-0.2,0.1-0.4
		c0-0.2,0.1-0.4,0.1-0.6s0-0.5,0-0.6V26c0-0.3-0.1-0.5-0.2-0.7c-0.1-0.3-0.2-0.6-0.2-0.8c-0.1-0.2-0.2-0.4-0.3-0.6
		c0-0.2-0.1-0.3-0.2-0.5c-0.2-0.2-0.4-0.4-0.5-0.6c-0.1-0.1-0.2-0.1-0.3-0.2l0,0l0,0c-0.1-0.1-0.1-0.1-0.2-0.1c0,0-0.1,0-0.1-0.1
		c0,0-0.1,0-0.1-0.1l0,0l0,0l0,0c-0.1-0.2-0.2-0.3-0.3-0.4c-0.3-0.3-0.7-0.5-1.1-0.7c-0.5-0.2-1.1-0.5-1.7-0.7
		c-0.3-0.1-0.6-0.2-1-0.2c-0.8-0.2-1.7-0.3-2.7-0.3c-0.1,0-0.2,0-0.3,0c-0.5,0-1,0-1.5,0.1c-0.1,0-0.1,0-0.2,0c0,0,0,0-0.1,0
		c0,0-0.1,0-0.2,0c-0.2,0-0.3,0-0.5,0c-0.6,0-1.2,0.1-1.9,0.2c-0.8,0.2-1.7,0.4-2.5,0.8c-0.9,0.4-1.7,0.8-2.5,1.3s-1.5,1.2-2.1,1.9
		c-0.4,0.5-0.8,1.1-1.1,1.6c-0.4,0.5-0.7,1-1,1.6s-0.5,1.2-0.7,1.9c-0.1,0.3-0.2,0.6-0.3,1c-0.2,0.4-0.3,0.9-0.3,1.3
		c-0.1,0.9-0.1,1.8,0,2.7c0,0.3,0,0.6,0,0.9c0,0.3,0,0.5,0,0.8c0,0.1,0,0.1,0,0.2v0.1v0.2L193,37c0.1,0.3,0.2,0.7,0.3,1.1
		c0.1,0.3,0.2,0.6,0.4,0.8c0,0,0,0,0,0.1v0.1c0.1,0.1,0.1,0.2,0.2,0.3c0,0,0,0.1,0.1,0.1c0.1,0.1,0.2,0.3,0.4,0.4c0,0,0,0,0,0.1
		l0.1,0.1l0.4-0.3l0,0l-0.3,0.3c0.1,0.1,0.2,0.2,0.3,0.3l0,0l0,0l0,0c0.1,0.1,0.2,0.1,0.2,0.2l0,0h0.1l0.1,0.1l0.1,0.1
		c0,0,0,0,0.1,0l0.1,0.1l0,0c0.1,0.1,0.3,0.2,0.4,0.3c0,0,0,0,0.1,0c0,0,0,0,0.1,0h0.1c0.2,0.1,0.4,0.2,0.5,0.2s0.2,0.1,0.3,0.1h0.1
		h0.1h0.1l0.2,0.1h0.1l0.2,0.1h0.1l0.2-0.4l0,0l-0.1,0.5c0,0,0,0,0.1,0s0.2,0.1,0.3,0.1h0.1l0.2,0.1h0.1h0.1h0.2h0.1h0.1h0.1l0,0
		h0.1h0.2h0.1c0.2,0,0.4,0.1,0.5,0.1s0.3,0,0.4,0c0,0,0,0,0.1,0c0.4,0,0.7,0.1,1.1,0.1h0.1h0.1c0.2,0,0.4-0.1,0.7-0.1h0.1h0.1h0.1
		h0.1c0.1,0,0.2-0.1,0.3-0.1l0,0h0.1c0,0,0,0,0.1,0h0.1h0.1c0,0,0,0,0.1,0s0.2,0,0.2,0h0.1c0.3,0,0.5-0.1,0.7-0.1l0,0l0,0h0.1
		c0.3,0,0.6-0.1,1-0.2h0.2c0.8,0.1,1.4,0.3,1.9,0.5c0.4,0.2,0.7,0.3,1,0.5c0.1,0.1,0.2,0.2,0.3,0.3s0.1,0.2,0.1,0.3v0.1
		c0,0.1,0,0.2-0.1,0.3c0,0.1,0,0.1-0.1,0.2c0,0.1-0.1,0.1-0.1,0.2c-0.1,0.1-0.1,0.1-0.2,0.2h-0.1c-0.2,0.1-0.4,0.2-0.5,0.2l-0.1,0.1
		c0,0-0.1,0-0.1,0.1c-0.2,0-0.4,0.1-0.6,0.1h-0.1c-0.5,0-1-0.2-1.5-0.3c-0.2-0.1-0.5-0.1-0.7-0.2c-0.4-0.1-0.7-0.2-1.1-0.3
		c-0.3-0.1-0.6-0.1-1-0.2c-0.4-0.1-0.8-0.1-1.1-0.1c-0.4,0-0.8,0-1.2,0.1c-0.1,0-0.2,0.1-0.3,0.1c-0.2,0-0.3,0-0.5,0
		c-0.1,0-0.3,0-0.4,0c-1,0-1.8,0.1-2.6,0.4c-1.2,0.3-2.1,0.8-2.8,1.4c-0.9,0.8-1.6,2-1.7,3.2c0,0.4-0.1,0.7-0.1,1s0.1,0.7,0.1,1.1
		c0,0.1,0,0.2,0.1,0.3c0,0.1,0,0.1,0.1,0.2l0,0c0,0,0,0,0,0.1c0,0,0,0,0,0.1s0.1,0.2,0.2,0.3l0.1,0.1v0.1c0.1,0.1,0.1,0.1,0.2,0.2
		l0.2,0.3c0.1,0.1,0.2,0.2,0.3,0.4c0.2,0.3,0.6,0.7,1,1.1c0,0,0,0,0.1,0c0.1,0.1,0.2,0.1,0.3,0.2c0.1,0.1,0.2,0.1,0.3,0.2l0,0
		c0,0,0.1,0,0.1,0.1l0.3-0.4l0,0l-0.2,0.4h0.1c0.1,0,0.1,0.1,0.2,0.1h0.1c0.2,0.1,0.4,0.2,0.6,0.2l0.3,0.1h0.1h0.1l0.1,0.1l0,0h0.1
		h0.1c0.1,0.1,0.3,0.1,0.4,0.2c0.1,0,0.1,0,0.2,0c0.3,0.1,0.7,0.1,1,0.1h0.1c0.1,0,0.2,0,0.3,0c0.1,0.1,0.2,0.1,0.3,0.1
		c0.4,0,0.9,0,1.3,0c0.4,0,0.9,0,1.3,0c0.4,0,0.8-0.1,1.2-0.1l0,0c0.3,0,0.7,0,1,0s0.6,0,1,0h0.3h0.3c0.2,0,0.4,0,0.6,0
		c0.2,0,0.4,0,0.6,0h0.1c0.3,0,0.6,0,1-0.1c0.1,0,0.3,0,0.4,0c0.6-0.1,1.2-0.2,1.9-0.4c0.6-0.2,1.2-0.4,1.7-0.7
		c0.6-0.4,1.2-0.8,1.6-1.2c0.3-0.3,0.5-0.6,0.7-0.9c0.2-0.3,0.4-0.6,0.6-0.9c0.1-0.2,0.2-0.4,0.3-0.7c0-0.1,0.1-0.1,0.1-0.2
		c0.2-0.4,0.4-0.8,0.6-1.3c0.2-0.4,0.3-0.9,0.4-1.4c0-0.2,0.1-0.4,0.1-0.7c0-0.1,0-0.2,0.1-0.2c0.3-0.8,0.5-1.7,0.6-2.6
		C217.2,43,217.1,41.5,216.7,40.2z"/>
	<g>
		<path class="st1" d="M218.2,39.8c-1.9-5.1-4.9-7.8-10.3-8.3c-1.7-0.2-4.5-0.8-6.1-0.1c-1.1,0.5,0.3-0.2,0.3,1.3
			c0-0.7-0.5-1.3-1.1-1.4c0.4,0.1-0.3,3,0.5,2c0,0,0.5-0.6,0.4-0.7c0.2,0.1-0.1-1.2-0.1-1.2c-0.2,0.9,0.3,1.5-0.1,1.3
			c-0.3-0.1,0.6,0,0.1,0c-0.3,0,1.6-0.6,1.8-0.6c1.8-0.2,3.6,0.6,5.4,0.7c3.6,0.2,7.4-0.4,8.9-4.1c1-2.4,0.1-5.8-2.1-7.3
			c-0.4,0.9-0.8,1.8-1.2,2.7l0,0c1.4,0.5,2.5-1.5,1.5-2.5c-0.6-0.6-0.5-0.6-0.2,0c-0.2,0.7-0.4,1.4-0.5,2.1l0,0
			c1.4-0.9,0.5-3.4-1.2-2.7l0,0c0.6,0.2,1.1,0.5,1.7,0.7c-4.8-6.4-17.7-2.6-21.7,2.8c-3.1,4.3-5,12.4-0.8,16.7
			c0.6,0.6,1.5,0.5,2.1,0c0.1-0.1,0.2-0.2,0.4-0.3c-0.7,0-1.4,0-2.1,0l0,0c0-0.7,0-1.4,0-2.1c-0.1,0.1-0.2,0.2-0.3,0.3
			c-0.6,0.6-0.6,1.6,0,2.1c0.1,0.1,0.2,0.2,0.3,0.3c0.6,0.5,1.5,0.6,2.1,0l0,0c-0.7,0-1.4,0-2.1,0c0.7,0.7,2,1.5,3.5,1.9
			c0.8,0.2,1.6-0.3,1.8-1c0.1-0.1,0.1-0.3,0.2-0.4c-0.6,0.3-1.2,0.7-1.8,1l0,0c-0.3-0.6-0.7-1.2-1-1.8c0,0.2-0.1,0.3-0.1,0.5
			c-0.2,0.8,0.3,1.6,1,1.8c1.8,0.5,3.7,0.7,5.6,0.5c0.5,0,0.9-0.3,1.4-0.3s1.1,0,1.6-0.1c0.6-0.1,2.2,0,2.1-0.3l-0.8,0.3
			c-5-2-15.1-1.7-16.3,5.2c-0.5,3,1,6,3.7,7.4c0.7,0.4,1.6,0.2,2.1-0.5c0.1-0.1,0.2-0.3,0.3-0.4c-0.7,0.2-1.4,0.4-2.1,0.5l0,0
			c-0.2-0.7-0.4-1.4-0.5-2.1c-0.1,0.1-0.1,0.3-0.2,0.4c-0.4,0.7-0.2,1.7,0.5,2.1c3.8,2,7.6,1.3,11.8,1.1
			C215.5,57,220.1,48.5,218.2,39.8c-0.4-1.9-3.3-1.1-2.9,0.8c0.9,3.9-0.3,10.4-4.1,12.7c-2.3,1.3-5,1-7.5,1.1
			c-2.6,0.1-5.2,0.5-7.6-0.7c0.2,0.7,0.4,1.4,0.5,2.1c0.1-0.1,0.1-0.3,0.2-0.4c0.4-0.7,0.2-1.7-0.5-2.1l0,0
			c-0.7-0.4-1.6-0.2-2.1,0.5c-0.1,0.1-0.2,0.3-0.3,0.4c0.7-0.2,1.4-0.4,2.1-0.5c-0.8-0.4-2.1-2.1-2.1-2.2c-2.3-6.2,7.4-6,10.6-5.3
			c2,0.4,8.1,0.4,5.7-3.5c-2.2-3.4-8.6-1-12-1.9c0.3,0.6,0.7,1.2,1,1.8c0-0.2,0.1-0.3,0.1-0.5c0.2-0.8-0.3-1.6-1-1.8l0,0
			c-0.8-0.2-1.6,0.3-1.8,1c-0.1,0.1-0.1,0.3-0.2,0.4c0.6-0.3,1.2-0.7,1.8-1c-1.3-0.3-2-1-2.2-1.1c-0.6-0.6-1.5-0.6-2.1,0l0,0
			c0.7,0,1.4,0,2.1,0c-0.1-0.1-0.2-0.2-0.3-0.3c0,0.7,0,1.4,0,2.1c0.1-0.1,0.2-0.2,0.3-0.3c0.6-0.6,0.6-1.5,0-2.1l0,0
			c-0.6-0.6-1.5-0.5-2.1,0c-0.1,0.1-0.2,0.2-0.4,0.3c0.7,0,1.4,0,2.1,0c-2.6-2.7-1.3-8.3,0.1-11.1c2-4,5.7-5.9,10-6.3
			c1.3-0.1,6.3-0.4,7.7,1.5c0.4,0.5,1,0.9,1.7,0.7l0,0c-0.4-0.9-0.8-1.8-1.2-2.7l0,0c-0.7,0.5-0.9,1.3-0.5,2.1
			c0.1,0.3,0.8,0.7,0.7,0.6c0.5-0.8,1-1.7,1.5-2.5l0,0c-1.7-0.6-2.5,1.8-1.2,2.7c2.1,1.4,0.7,4.5-0.9,5.4c-2.1,1.1-4.8,0.4-7.1,0
			c-1.3-0.2-3-0.5-4.6,0.1c-0.8,0.3-2.8,1.5-0.9,0.4c-0.6,0.3,0.1-0.5-0.6,0.2c-1,1-1,0.7-1.2,1.9c-0.3,1.7,1.2-0.5,0.8-1.1
			c0-0.1-0.7,0.6-0.7,0.7c0.1,1.1-0.4,2.1,1.1,2.5c-0.4-0.5-0.7-1-1.1-1.4c0.1,1.9,1.8,1.8,3.1,1.8c1.2,0-0.2-0.2-0.2-0.2
			c1.2-0.2,2.6-0.1,3.9,0c4.8,0.3,7.6,1.6,9.4,6.3C216,42.4,218.9,41.6,218.2,39.8z"/>
	</g>
</g>
<g>
	<path class="st0" d="M68.4,36.2c0.1-0.3,0.1-0.6,0.1-0.9c-0.1-0.7-0.2-1.5-0.3-2.2c0-0.2-0.1-0.3-0.2-0.4c0,0,0,0,0-0.1
		c0.2-0.7,0.1-1.5,0-2.2c-0.1-0.9-0.5-1.8-0.9-2.6c-0.5-0.9-1.1-1.7-1.7-2.5c-0.3-0.4-0.7-0.7-1-1.1c-0.4-0.4-0.9-0.7-1.3-1
		c-0.7-0.5-1.6-0.8-2.5-1c-0.7-0.2-1.5-0.2-2.2-0.1c-0.4,0-0.7,0.1-1.1,0.2c-0.4,0.1-0.7,0.2-1.1,0.4c-0.6,0.3-1.1,0.6-1.6,1.1
		c-0.5,0.4-0.9,1-1.3,1.5c-0.3,0.5-0.6,1.1-0.9,1.6c-0.3,0.7-0.5,1.3-0.7,2c-0.1,0.5-0.3,1.1-0.4,1.6c-0.2,0.8-0.3,1.7-0.4,2.5
		c0.1,1.2,0.1,2.5,0.1,3.7c0,0.4,0.1,0.8,0.1,1.2c0,1.1,0,2.2,0,3.3c-0.2,0.1-0.4,0.3-0.6,0.4c-0.5,0.3-1,0.4-1.6,0.6
		c-0.3,0.1-0.5,0.1-0.8,0.1c-0.2,0.1-0.4,0.1-0.6,0.1c-0.2,0-0.4,0.1-0.7,0.1c-0.2,0-0.4,0-0.5,0c-0.3,0-0.5,0-0.8,0s-0.6-0.1-1-0.1
		c-0.4-0.1-0.9-0.2-1.3-0.4c-0.2-0.1-0.5-0.2-0.7-0.3s-0.4-0.1-0.5-0.2c-0.4-0.2-0.7-0.4-1-0.6c-0.1-0.9-0.2-1.7-0.4-2.6
		c0-0.2-0.1-0.3-0.2-0.4c0,0,0,0,0-0.1c0.2-0.7,0.1-1.5,0-2.2c-0.1-0.9-0.5-1.8-0.9-2.6c0-0.1-0.1-0.1-0.1-0.2
		c-0.4-0.8-1-1.6-1.6-2.3c-0.3-0.4-0.7-0.7-1-1.1c-0.4-0.4-0.9-0.7-1.3-1c-0.7-0.5-1.6-0.8-2.5-1c-0.7-0.2-1.5-0.2-2.2-0.1
		c-0.4,0-0.7,0.1-1.1,0.2s-0.7,0.2-1.1,0.4C28,28.2,27.5,28.5,27,29c-0.5,0.4-0.9,1-1.3,1.5c-0.3,0.5-0.6,1-0.8,1.5
		c0,0.1-0.1,0.1-0.1,0.2c-0.2,0.4-0.3,0.8-0.4,1.2l0,0l0,0c-0.1,0.3-0.2,0.6-0.3,0.8c-0.4,1.3-0.6,2.7-0.7,4.1c0,0.2,0,0.5-0.1,0.7
		c-0.4,0.3-0.8,0.7-1.1,1.1c-0.1,0.2-0.2,0.3-0.4,0.5c-0.2,0.1-0.4,0.3-0.6,0.4c-0.4,0.2-0.7,0.3-1.1,0.4c-0.2,0-0.5,0.1-0.7,0.1
		s-0.4-0.1-0.6-0.1c-0.2-0.1-0.4-0.2-0.6-0.3c-0.1-0.1-0.2-0.2-0.3-0.2c-0.1-2.5-0.3-5-0.7-7.5c0-0.2-0.1-0.3-0.2-0.4c0,0,0,0,0-0.1
		c0.2-0.7,0.1-1.5,0-2.2s-0.4-1.5-0.7-2.2c-0.1-0.2-0.1-0.3-0.2-0.5c-0.5-0.9-1.1-1.7-1.7-2.5c-0.3-0.4-0.7-0.7-1-1.1
		c-0.4-0.4-0.9-0.7-1.3-1c-0.7-0.5-1.6-0.8-2.5-1c-0.5-0.4-1.3-0.5-2-0.4c-0.4,0-0.7,0.1-1.1,0.2s-0.7,0.2-1.1,0.4
		c-0.6,0.3-1.1,0.6-1.6,1.1c-0.5,0.4-0.9,1-1.3,1.5c-0.3,0.5-0.6,1.1-0.9,1.6c-0.3,0.7-0.5,1.3-0.7,2c-0.4,1.3-0.6,2.7-0.7,4.1
		c0,0.1,0,0.1,0,0.2c0,0.4,0.1,0.7,0.2,1.1c0.1,0.7,0.3,1.4,0.4,2.1c0.1,0.4,0.2,0.9,0.4,1.3c0.5,1.6,1.3,3.1,2.1,4.6
		c0.1,0.2,0.2,0.3,0.3,0.5C3.7,43,3.8,43.3,4,43.6c0.8,1.7,1.9,3.2,3.2,4.5c0.6,0.6,1.2,1.2,1.9,1.8c0.8,0.6,1.6,1.2,2.5,1.7
		c1.5,0.9,3.2,1.5,4.9,2c0,0,0,0,0.1,0c0.3,0.1,0.6,0.2,0.9,0.2c0.9,0.2,1.8,0.3,2.7,0.4c0.9,0.1,1.8,0.1,2.7,0c0.1,0,0.1,0,0.2,0
		s0.2,0,0.3,0l0,0l0,0c0.4,0,0.7,0,1.1,0c0.3,0,0.6,0,0.9,0c0.1,0,0.1,0,0.2,0c0.5-0.1,1.1-0.1,1.6-0.2h0.1c0.4,0,0.7,0,1.1,0l0,0
		c0.4,0,0.8-0.1,1.2-0.2c0.6-0.2,1.2-0.5,1.8-0.8c0.2-0.1,0.5-0.3,0.7-0.5l0,0c0.2-0.1,0.5-0.3,0.7-0.4c0.9,0.6,1.9,1.2,2.9,1.6
		c0.2,0.1,0.3,0.1,0.5,0.2l0,0c0.3,0.3,0.6,0.6,0.9,0.8c0.4,0.2,0.8,0.4,1.2,0.6c0.9,0.3,1.8,0.5,2.7,0.5h0.1c0.4,0,0.8,0,1.1,0
		c1.2,0.2,2.4,0.2,3.7,0.2c0.6,0.1,1.1,0.1,1.7,0.1c0.6,0,1.1,0,1.7,0c0.5,0,1.1,0,1.6-0.1l0,0c0.3,0,0.5,0,0.8-0.1
		c0.3,0,0.5-0.1,0.8-0.1c0.4-0.1,0.8-0.1,1.2-0.2c0.1,0,0.2,0,0.3-0.1c0.2-0.1,0.4-0.2,0.6-0.4c1.9-0.3,3.9-0.8,5.7-1.5
		c1.2-0.5,2.4-1,3.4-1.8c0.9-0.7,1.6-1.5,2.2-2.5c0.3-0.5,0.5-1,0.7-1.6c0.1-0.3,0.2-0.6,0.3-0.9c0.3-0.7,0.6-1.5,0.8-2.2
		c0-0.2,0.1-0.3,0.1-0.5c0.2-1,0.3-2,0.4-3c0-0.1,0-0.2,0-0.3c0.1-0.3,0.2-0.7,0.2-1.1c0-0.1,0-0.2,0-0.4c0-0.1-0.1-0.1-0.2-0.2
		c0-0.1,0-0.2,0-0.3c0.1-0.5,0.1-1,0.2-1.5C68.2,37,68.3,36.6,68.4,36.2z"/>
	<g>
		<path class="st1" d="M69.9,36.6c0.2-1.1,0.1-2.2-0.1-3.3c-0.4-2.1,0.1,1.2-0.1-1.7c-0.3-3.3-1.7-6.2-4.1-8.4
			c-4-3.7-10.2-3.4-13.3,1.3C50.7,27,50,30.1,49.8,33c-0.3,3.9,1.3,9.1-4.5,8c-2.3-0.5-2-0.9-2.8-2.4c-0.9-1.7,0.1,0.7-0.2-1.9
			c-0.2-2.8-1.2-5.2-3.1-7.3c-3.7-4.2-10-5.2-13.8-0.6c-1.8,2.2-2.2,4.8-2.9,7.5c-0.3,1.1-0.1,2.1-1.2,2.9c-2.9,1.9-1.8-2.6-2-4.5
			c-0.6-4.3-0.2-0.3-0.4-2.5c-0.1-1.6-0.1-2.7-0.8-4.2c-1.1-2.7-3.4-5.5-6.1-6.6c-4.9-2.1-9.6,0.5-11.6,5.1c-3,7-0.3,14.3,3.8,20.2
			c4.6,6.5,11.7,8.8,19.2,9.1c-0.5-0.5-1-1-1.5-1.5l0,0c0,0.8,0.7,1.5,1.5,1.5c1.6,0,3.5,0,5.2-0.3c3.1-0.6,3.4-2.3,6.3-0.5
			c1.1,0.6,3.1,1.9,5.3,2.2c3.5,0.5,7.5,0.8,11,0.4c5.2-0.5,12.3-2.2,15.4-6.7C69.5,46.3,68.7,41,69.9,36.6c0.5-1.9-2.4-2.7-2.9-0.8
			s-0.5,3.7-0.5,5.2c-0.3,6.5-3.9,10.8-10.2,12.2c-8,1.9-15.6,1.8-22.8-2.6c-0.5-0.3-1-0.3-1.5,0c-2.8,1.5-5.3,2.1-8.5,2.1
			c0.5,0.5,1,1,1.5,1.5l0,0c0-0.8-0.7-1.5-1.5-1.5c-5.9-0.2-11.4-1.6-15.5-6.3C3.9,42,0.8,35,2.5,29.2c0.9-3.1,3.2-6.4,7-5.6
			c4.5,0.9,5.8,5.1,6.3,8.9c0.3,2.4,0.1,6.1,1,8.3c0.4,0.9,1,1.5,2,1.8c2.5,0.7,5.6-1.4,6.4-3.7c0.7-2,0.4-4.4,1.4-6.5
			c2.5-5.2,8.8-4.6,11.5,0.4c1.7,3.1,0.1,7.9,3.5,9.8c2.6,1.5,6,1.7,8.8,0.6c1.9-0.7,2.2-1.1,2.5-3c0.5-4-0.6-7.7,0.7-11.7
			c1.7-5.2,6.8-6.8,10.8-2.4c1.7,1.9,3.2,6.7,2.7,9.5C66.7,37.7,69.5,38.5,69.9,36.6z"/>
	</g>
</g>
<g>
	<path class="st0" d="M297.7,39.7c0-0.4-0.1-0.8-0.2-1.3c0-0.4,0-0.8-0.1-1.1c-0.1-1.2-0.4-2.4-0.8-3.5c-0.3-0.6-0.5-1.2-0.9-1.8
		c-0.4-0.6-0.8-1.2-1.3-1.7c-0.8-1-1.9-1.9-3-2.7c-1.1-0.8-2.3-1.3-3.5-1.7c-0.5-0.2-1.1-0.3-1.7-0.3c-0.8-0.1-1.5-0.2-2.3-0.2h-0.1
		c-1.3,0-2.7,0.2-4,0.4c-2.3,0.3-4.5,1.1-6.4,2.5c-0.3,0.2-0.7,0.5-1,0.8c-0.1,0.1-0.2,0.2-0.4,0.3c-0.4,0.4-0.8,0.8-1.2,1.2
		c-0.4,0.5-0.9,1.1-1.2,1.7c-0.6,1-1.1,2.1-1.6,3.2c-0.6,1.4-0.8,3-1,4.5c-0.1,1.4,0,2.9,0.3,4.3c0.3,1.4,0.8,2.7,1.5,3.9
		c0.3,0.5,0.6,1.1,1,1.6c0.5,0.6,0.9,1.2,1.5,1.8c0.5,0.5,1.1,1,1.7,1.4c0.5,0.4,1.1,0.8,1.7,1.1c0.6,0.4,1.3,0.7,2,0.9
		c0.6,0.3,1.3,0.4,2,0.6c4,0.9,8.2-0.1,11.7-2.1c0.9-0.5,1.7-1.1,2.5-1.8c0.6-0.5,1.1-1.1,1.5-1.8c0.4-0.4,0.7-0.8,1-1.2
		c0.4-0.6,0.8-1.2,1-1.8c0.4-0.8,0.6-1.6,0.8-2.4C297.8,43,297.8,41.3,297.7,39.7z M286.3,41.7c0,0.2-0.1,0.4-0.2,0.5
		c-0.1,0.2-0.2,0.4-0.2,0.6c-0.1,0.2-0.2,0.3-0.3,0.5c-0.1,0.1-0.1,0.2-0.2,0.2c-0.1,0.1-0.2,0.2-0.4,0.3c-0.1,0.1-0.2,0.1-0.3,0.1
		c-0.1,0-0.1,0-0.2,0c0,0,0,0-0.1,0.1s-0.1,0.1-0.2,0.1c-0.1,0.1-0.2,0.1-0.3,0.1c-0.1,0-0.3,0-0.4,0l0,0c-0.1,0-0.1,0-0.2,0
		c-0.2,0-0.4,0-0.6,0c-0.1,0-0.2,0-0.2,0h-0.1c-0.2,0.1-0.4,0.1-0.6,0.1c-0.2,0.1-0.3,0.1-0.5,0.2c-0.2,0-0.4,0-0.5,0s-0.2,0-0.3,0
		c-0.3-0.1-0.5-0.1-0.8-0.3c-0.2-0.1-0.3-0.2-0.5-0.4c-0.1-0.1-0.2-0.3-0.4-0.4c-0.1-0.1-0.1-0.2-0.2-0.4s-0.2-0.4-0.3-0.6
		c-0.1-0.3-0.2-0.7-0.2-1s0-0.7,0-1.1l0,0l0,0c0-0.2,0-0.4,0.1-0.7c0-0.1,0.1-0.3,0.1-0.4l0,0v-0.1l0,0c0-0.1,0-0.2,0.1-0.2
		c0.1-0.2,0.2-0.5,0.3-0.6c0.1-0.1,0.2-0.3,0.3-0.4c0.1-0.1,0.2-0.2,0.3-0.3c0.1-0.1,0.3-0.2,0.4-0.2l0,0l0,0
		c0.1-0.1,0.2-0.3,0.4-0.3c0.1,0,0.2-0.1,0.3-0.1c0.1,0,0.2,0,0.3,0h0.1c0.1,0,0.2-0.1,0.2-0.1l0,0c0.1-0.1,0.1-0.3,0.2-0.4
		c0.1-0.1,0.1-0.2,0.2-0.2c0.4-0.3,0.9-0.3,1.3,0c0.2,0.1,0.3,0.3,0.4,0.6c0.1,0,0.2-0.1,0.3-0.1c0.1,0,0.2,0,0.3,0
		c0.1,0,0.2,0,0.3,0.1c0.1,0,0.2,0.1,0.3,0.1c0.3,0.2,0.5,0.4,0.7,0.8c0.1,0.2,0.3,0.4,0.3,0.7c0.1,0.1,0.1,0.1,0.2,0.2
		c0.1,0.1,0.1,0.2,0.2,0.3s0.1,0.2,0.2,0.3c0.1,0.2,0.2,0.4,0.2,0.6c0,0.2,0.1,0.4,0.1,0.6c0,0.2,0,0.4,0,0.6
		C286.4,41.3,286.4,41.5,286.3,41.7z"/>
	<g>
		<path class="st1" d="M299.1,39.3c-0.7-4.9-1.6-8.6-5.5-11.9c-3.2-2.6-7-3.7-11.1-3.4c-9.8,0.6-17.4,8-16.8,18.2
			c0.5,8.4,7.6,15.3,16.1,15.3c9.9,0,17.9-7.9,17.3-17.8c-0.1-1.9-3.1-1.9-3,0c0.5,8.2-6,14.9-14.3,14.8c-7.4,0-13.3-6.4-13.1-13.8
			c0.3-8.4,7-13.9,15.2-13.8s11.2,6.1,12.3,13.2C296.5,42,299.4,41.2,299.1,39.3z"/>
		<path class="st1" d="M284.9,41.3c-0.1,0.4-0.2,0.9-0.5,1.2c0.2-0.2-0.2,0-0.4,0.1c-0.5,0.2-0.6,0.4,0,0.3c-0.3,0.1-0.9,0-1.2,0
			c-0.3,0-1.8,0.4-2.2,0.2c-0.8-0.4-0.9-1.7-0.8-2.5c0.1-0.7,0.2-1.3,0.8-1.7c0.5-0.4,0.2-0.1,0.8-0.3c0.3-0.1,0.7-0.2,0.9-0.5
			c0.5-0.6,0.1,0-0.2-0.3c0.3,0.6,1.1,0.8,1.7,0.7c0,0,0.7,1.2,0.7,1.3c0.4,0.7,0.5,1.3,0.4,2.1c-0.2,1.9,2.8,1.9,3,0
			c0.3-2.6-1.7-7-4.9-6.2c0.6,0.2,1.1,0.5,1.7,0.7c-1.1-2-3.7-2-4.8,0c0.3-0.2,0.6-0.5,0.9-0.7c-0.2,0.1-0.7,0.1-1,0.3
			c-0.2,0.1-1.5,1-0.7,0.5c-0.8,0.6-1.4,1.1-1.8,2.1c-0.5,1.4-0.6,3-0.2,4.4c0.5,2,2.4,3.7,4.6,3.3c0.6-0.1,0.6-0.2,1-0.2
			c0.3,0,2.2-0.2,0.6-0.1c1,0,1.6-0.1,2.4-0.7c-0.4,0.1-0.7,0.3-1.1,0.4c1.9-0.2,2.7-1.7,3.2-3.4C288.3,40.3,285.4,39.5,284.9,41.3z
			"/>
	</g>
</g>
</svg>
