<?xml version="1.0" encoding="utf-8"?>
<!-- Generator: Adobe Illustrator 22.1.0, SVG Export Plug-In . SVG Version: 6.00 Build 0)  -->
<svg version="1.1" id="Layer_1" xmlns="http://www.w3.org/2000/svg" xmlns:xlink="http://www.w3.org/1999/xlink" x="0px" y="0px"
	 viewBox="0 0 1280 720" style="enable-background:new 0 0 1280 720;" xml:space="preserve">
<style type="text/css">
	.st0{fill:#FFFFFF;stroke:#584C4F;stroke-width:2;stroke-miterlimit:10;}
	.st1{fill:#584C4F;stroke:#584C4F;stroke-width:2;stroke-miterlimit:10;}
	.st2{fill:#584C4F;}
	.st3{fill:#78CEF9;stroke:#584C4F;stroke-width:2;stroke-miterlimit:10;}
</style>
<g>
	<g>
		<path id="XMLID_354_" class="st0" d="M309.5,521.7c-0.8-0.2-1.2,2.4-1.2,2.4s0,60.4,0.4,62.9c0,0,0.4,2.5,1.2,2.4
			c0,0,30.4,1,33.1-0.1c0.8-0.3,1.2-2.4,1.2-2.4s0.6-55.7,0.4-62.7c0,0-0.4-2.5-1.2-2.4C343.3,521.8,310.4,522,309.5,521.7z"/>
		<g>
			<path class="st0" d="M334.1,586.9c0,0,0-4,0.1-9.9c-0.2-0.1-0.5-0.2-1-0.2c0,0-32.9,0-33.8,0c-0.5,0-0.9,0.2-1.1,0.3
				c0.1,5.5,0.1,9.3,0.2,9.9c0,0,0.4,2.5,1.2,2.4c0,0,13.1,0.4,22.8,0.4c5.1,0,9.3-0.1,10.2-0.5C333.7,589,334.1,586.9,334.1,586.9z
				"/>
			<path class="st1" d="M333.3,576.8c0.4,0,0.8,0.1,1,0.2c0.2-16.3,0.4-47.7,0.3-52.8c0,0-0.4-2.5-1.2-2.4c0,0-32.9,0.2-33.8-0.1
				c-0.8-0.2-1.2,2.4-1.2,2.4s0,35.2,0.2,53c0.2-0.1,0.5-0.3,1.1-0.3C300.4,576.8,333.3,576.8,333.3,576.8z"/>
		</g>
		<g>
			<g>
				<path id="XMLID_347_" class="st2" d="M317.8,578.6c0,0,7.4,5.2,0.2,8.6S308.8,577.5,317.8,578.6z"/>
				<g>
					<path id="XMLID_339_" class="st2" d="M317.2,580.4c0,0,4.4,3.1,0.1,5.1C313.1,587.5,311.9,579.8,317.2,580.4z"/>
				</g>
			</g>
		</g>
	</g>
	<g>
		<g>
			<path class="st0" d="M286.8,717.9c5.2,0.2,36.5-0.1,52.8-0.3c5.9-0.1,9.9-0.1,9.9-0.1s2-0.4,2.4-1.2c0.1-0.4,0.3-1.3,0.3-2.6
				c-0.1-5.8-0.3-10.4-0.3-10.4c0.1-0.8-2.4-1.2-2.4-1.2c-0.6-0.1-4.4-0.2-9.9-0.2c-17.7-0.2-53-0.2-53-0.2s-1.8,0.3-2.2,0.9
				c0,1.6,0,3.1,0,4.5c0,2.6,0,6.2,0,10C284.9,717.6,286.8,717.9,286.8,717.9z"/>
			<path class="st0" d="M296.8,717.9c5.2,0.2,36.5-0.1,52.8-0.3c5.9-0.1,9.9-0.1,9.9-0.1s2-0.4,2.4-1.2c0.1-0.4,0.3-1.3,0.3-2.6
				c-0.1-5.8-0.3-10.4-0.3-10.4c0.1-0.8-2.4-1.2-2.4-1.2c-0.6-0.1-4.4-0.2-9.9-0.2c-17.7-0.2-53-0.2-53-0.2s-1.8,0.3-2.2,0.9
				c0,1.6,0,3.1,0,4.5c0,2.6,0,6.2,0,10C294.9,717.6,296.8,717.9,296.8,717.9z"/>
		</g>
		<g>
			<path class="st0" d="M359.9,701.9c-5.2,0.2-36.5-0.1-52.8-0.3c-5.9-0.1-9.9-0.1-9.9-0.1s-2-0.4-2.4-1.2c-0.1-0.4-0.3-1.3-0.3-2.6
				c0.1-5.8,0.3-10.4,0.3-10.4c-0.1-0.8,2.4-1.2,2.4-1.2c0.6-0.1,4.4-0.2,9.9-0.2c17.7-0.2,53-0.2,53-0.2s1.8,0.3,2.2,0.9
				c0,1.6,0,3.1,0,4.5c0,2.6,0,6.2,0,10C361.8,701.6,359.9,701.9,359.9,701.9z"/>
			<path class="st0" d="M349.9,701.9c-5.2,0.2-36.5-0.1-52.8-0.3c-5.9-0.1-9.9-0.1-9.9-0.1s-2-0.4-2.4-1.2c-0.1-0.4-0.3-1.3-0.3-2.6
				c0.1-5.8,0.3-10.4,0.3-10.4c-0.1-0.8,2.4-1.2,2.4-1.2c0.6-0.1,4.4-0.2,9.9-0.2c17.7-0.2,53-0.2,53-0.2s1.8,0.3,2.2,0.9
				c0,1.6,0,3.1,0,4.5c0,2.6,0,6.2,0,10C351.8,701.6,349.9,701.9,349.9,701.9z"/>
		</g>
		<g>
			<path class="st0" d="M286.8,685.9c5.2,0.2,36.5-0.1,52.8-0.3c5.9-0.1,9.9-0.1,9.9-0.1s2-0.4,2.4-1.2c0.1-0.4,0.3-1.3,0.3-2.6
				c-0.1-5.8-0.3-10.4-0.3-10.4c0.1-0.8-2.4-1.2-2.4-1.2c-0.6-0.1-4.4-0.2-9.9-0.2c-17.7-0.2-53-0.2-53-0.2s-1.8,0.3-2.2,0.9
				c0,1.6,0,3.1,0,4.5c0,2.6,0,6.2,0,10C284.9,685.6,286.8,685.9,286.8,685.9z"/>
			<path class="st0" d="M296.8,685.9c5.2,0.2,36.5-0.1,52.8-0.3c5.9-0.1,9.9-0.1,9.9-0.1s2-0.4,2.4-1.2c0.1-0.4,0.3-1.3,0.3-2.6
				c-0.1-5.8-0.3-10.4-0.3-10.4c0.1-0.8-2.4-1.2-2.4-1.2c-0.6-0.1-4.4-0.2-9.9-0.2c-17.7-0.2-53-0.2-53-0.2s-1.8,0.3-2.2,0.9
				c0,1.6,0,3.1,0,4.5c0,2.6,0,6.2,0,10C294.9,685.6,296.8,685.9,296.8,685.9z"/>
		</g>
		<g>
			<path class="st0" d="M359.9,669.9c-5.2,0.2-36.5-0.1-52.8-0.3c-5.9-0.1-9.9-0.1-9.9-0.1s-2-0.4-2.4-1.2c-0.1-0.4-0.3-1.3-0.3-2.6
				c0.1-5.8,0.3-10.4,0.3-10.4c-0.1-0.8,2.4-1.2,2.4-1.2c0.6-0.1,4.4-0.2,9.9-0.2c17.7-0.2,53-0.2,53-0.2s1.8,0.3,2.2,0.9
				c0,1.6,0,3.1,0,4.5c0,2.6,0,6.2,0,10C361.8,669.6,359.9,669.9,359.9,669.9z"/>
			<path class="st0" d="M349.9,669.9c-5.2,0.2-36.5-0.1-52.8-0.3c-5.9-0.1-9.9-0.1-9.9-0.1s-2-0.4-2.4-1.2c-0.1-0.4-0.3-1.3-0.3-2.6
				c0.1-5.8,0.3-10.4,0.3-10.4c-0.1-0.8,2.4-1.2,2.4-1.2c0.6-0.1,4.4-0.2,9.9-0.2c17.7-0.2,53-0.2,53-0.2s1.8,0.3,2.2,0.9
				c0,1.6,0,3.1,0,4.5c0,2.6,0,6.2,0,10C351.8,669.6,349.9,669.9,349.9,669.9z"/>
		</g>
		<g>
			<path class="st0" d="M286.8,653.9c5.2,0.2,36.5-0.1,52.8-0.3c5.9-0.1,9.9-0.1,9.9-0.1s2-0.4,2.4-1.2c0.1-0.4,0.3-1.3,0.3-2.6
				c-0.1-5.8-0.3-10.4-0.3-10.4c0.1-0.8-2.4-1.2-2.4-1.2c-0.6-0.1-4.4-0.2-9.9-0.2c-17.7-0.2-53-0.2-53-0.2s-1.8,0.3-2.2,0.9
				c0,1.6,0,3.1,0,4.5c0,2.6,0,6.2,0,10C284.9,653.6,286.8,653.9,286.8,653.9z"/>
			<path class="st0" d="M296.8,653.9c5.2,0.2,36.5-0.1,52.8-0.3c5.9-0.1,9.9-0.1,9.9-0.1s2-0.4,2.4-1.2c0.1-0.4,0.3-1.3,0.3-2.6
				c-0.1-5.8-0.3-10.4-0.3-10.4c0.1-0.8-2.4-1.2-2.4-1.2c-0.6-0.1-4.4-0.2-9.9-0.2c-17.7-0.2-53-0.2-53-0.2s-1.8,0.3-2.2,0.9
				c0,1.6,0,3.1,0,4.5c0,2.6,0,6.2,0,10C294.9,653.6,296.8,653.9,296.8,653.9z"/>
		</g>
		<g>
			<path class="st0" d="M359.9,637.9c-5.2,0.2-36.5-0.1-52.8-0.3c-5.9-0.1-9.9-0.1-9.9-0.1s-2-0.4-2.4-1.2c-0.1-0.4-0.3-1.3-0.3-2.6
				c0.1-5.8,0.3-10.4,0.3-10.4c-0.1-0.8,2.4-1.2,2.4-1.2c0.6-0.1,4.4-0.2,9.9-0.2c17.7-0.2,53-0.2,53-0.2s1.8,0.3,2.2,0.9
				c0,1.6,0,3.1,0,4.5c0,2.6,0,6.2,0,10C361.8,637.6,359.9,637.9,359.9,637.9z"/>
			<path class="st0" d="M349.9,637.9c-5.2,0.2-36.5-0.1-52.8-0.3c-5.9-0.1-9.9-0.1-9.9-0.1s-2-0.4-2.4-1.2c-0.1-0.4-0.3-1.3-0.3-2.6
				c0.1-5.8,0.3-10.4,0.3-10.4c-0.1-0.8,2.4-1.2,2.4-1.2c0.6-0.1,4.4-0.2,9.9-0.2c17.7-0.2,53-0.2,53-0.2s1.8,0.3,2.2,0.9
				c0,1.6,0,3.1,0,4.5c0,2.6,0,6.2,0,10C351.8,637.6,349.9,637.9,349.9,637.9z"/>
		</g>
		<g>
			<path class="st0" d="M286.8,621.9c5.2,0.2,36.5-0.1,52.8-0.3c5.9-0.1,9.9-0.1,9.9-0.1s2-0.4,2.4-1.2c0.1-0.4,0.3-1.3,0.3-2.6
				c-0.1-5.8-0.3-10.4-0.3-10.4c0.1-0.8-2.4-1.2-2.4-1.2c-0.6-0.1-4.4-0.2-9.9-0.2c-17.7-0.2-53-0.2-53-0.2s-1.8,0.3-2.2,0.9
				c0,1.6,0,3.1,0,4.5c0,2.6,0,6.2,0,10C284.9,621.6,286.8,621.9,286.8,621.9z"/>
			<path class="st0" d="M296.8,621.9c5.2,0.2,36.5-0.1,52.8-0.3c5.9-0.1,9.9-0.1,9.9-0.1s2-0.4,2.4-1.2c0.1-0.4,0.3-1.3,0.3-2.6
				c-0.1-5.8-0.3-10.4-0.3-10.4c0.1-0.8-2.4-1.2-2.4-1.2c-0.6-0.1-4.4-0.2-9.9-0.2c-17.7-0.2-53-0.2-53-0.2s-1.8,0.3-2.2,0.9
				c0,1.6,0,3.1,0,4.5c0,2.6,0,6.2,0,10C294.9,621.6,296.8,621.9,296.8,621.9z"/>
		</g>
		<g>
			<path class="st0" d="M359.9,605.9c-5.2,0.2-36.5-0.1-52.8-0.3c-5.9-0.1-9.9-0.1-9.9-0.1s-2-0.4-2.4-1.2c-0.1-0.4-0.3-1.3-0.3-2.6
				c0.1-5.8,0.3-10.4,0.3-10.4c-0.1-0.8,2.4-1.2,2.4-1.2c0.6-0.1,4.4-0.2,9.9-0.2c17.7-0.2,53-0.2,53-0.2s1.8,0.3,2.2,0.9
				c0,1.6,0,3.1,0,4.5c0,2.6,0,6.2,0,10C361.8,605.6,359.9,605.9,359.9,605.9z"/>
			<path class="st0" d="M349.9,605.9c-5.2,0.2-36.5-0.1-52.8-0.3c-5.9-0.1-9.9-0.1-9.9-0.1s-2-0.4-2.4-1.2c-0.1-0.4-0.3-1.3-0.3-2.6
				c0.1-5.8,0.3-10.4,0.3-10.4c-0.1-0.8,2.4-1.2,2.4-1.2c0.6-0.1,4.4-0.2,9.9-0.2c17.7-0.2,53-0.2,53-0.2s1.8,0.3,2.2,0.9
				c0,1.6,0,3.1,0,4.5c0,2.6,0,6.2,0,10C351.8,605.6,349.9,605.9,349.9,605.9z"/>
		</g>
	</g>
	<g>
		<path class="st3" d="M871.8,637c1.3-14.8-2.8-40.1-0.8-44.6c0.9-2.1,0.8-3.8-0.2-5.3c-5-7.3-30.4-7.9-41.2-7.8
			c-3.6-0.5-5.8-0.6-5.8-0.6c-2.2,0.4-4.4,0.9-6.4,1.4c-28.5,3.3-37.1,9.5-38.1,15.4c-0.8,4.6,2.9,98.5,2.9,101.4
			c-0.1,5.4,5.8,10.4,7.3,12.1c3.4,3.7,20,7.9,49.9,4.7c29.9-3.3,27.8-5.9,34.6-21.1c0.5-1.1,0.7-2.1,0.6-3.1
			C874.2,686.7,869.9,657.9,871.8,637z"/>
		<path id="XMLID_355_" class="st3" d="M786.5,608.8c-3.4-3.7-28.2-23.5,38.3-29.4c0,0,53.1-2.2,46.3,13s-4.7,17.8-34.6,21.1"/>
		<path id="XMLID_357_" class="st3" d="M827.7,679.7c0,0,53.1-2.2,46.3,13s-4.7,17.8-34.6,21.1c-29.9,3.3-46.5-0.9-49.9-4.7
			c-2.6-2.8-17.2-14.6,3.7-22.8"/>
		<path class="st3" d="M839.4,587.4c-0.1-0.3,0.6-22,0-23.7c-1.4-4.1-3.6-3.7-15.6-4c-12.1-0.3-12.5,7.1-12.5,7.1
			c0.3,1.3,0,23.7,0,23.7"/>
		<path id="XMLID_361_" class="st3" d="M826.8,572.2c-2.1,0.3-4.4,0.4-6.6,0.3"/>
		<path id="XMLID_358_" class="st3" d="M816,571.8c-2.4-0.8-4.2-2.3-4.7-4.9c0,0,0.4-7.4,12.5-7.1s14.3-0.1,15.6,4
			c1.4,4.1-2.7,6.6-5.9,7.2"/>
		<g>
			<path class="st0" d="M839.4,553.7c-1.4-4.1-3.6-3.7-15.6-4c-12.1-0.3-12.5,7.1-12.5,7.1c0.1,0.7,0,4,0,4c1.9,9.1,19,4.8,22.2,4.1
				c3.2-0.6,7.3-3.2,5.9-7.2C839.4,557.6,839.9,555.1,839.4,553.7z"/>
			<path id="XMLID_359_" class="st0" d="M811.3,556.8c0,0,0.4-7.4,12.5-7.1c12.1,0.3,14.3-0.1,15.6,4c1.4,4.1-2.7,6.6-5.9,7.2
				C830.3,561.6,813.2,566,811.3,556.8z"/>
		</g>
	</g>
	<g>
		<path class="st3" d="M898.9,699.1c-0.3,5.4,5.4,10.6,6.8,12.4c3.3,3.9,19.7,8.8,49.7,6.7c30-2,28-4.7,35.5-19.6
			c0.5-1.1,0.8-2.1,0.7-3.1c-0.1-1.6-2.8-49.3-1.6-52.1c0.9-2.1,0.8-3.8-0.2-5.3c-5-7.3-30.4-7.9-41.2-7.8c-3.6-0.5-5.8-0.6-5.8-0.6
			c-2.2,0.4-4.4,0.9-6.4,1.4c-28.5,3.3-37.1,9.5-38.1,15.4C898,647.9,898.9,698.1,898.9,699.1z"/>
		<path id="XMLID_584_" class="st3" d="M905.5,659.8c-3.4-3.7-28.2-23.5,38.3-29.4c0,0,53.1-2.2,46.3,13s-4.7,17.8-34.6,21.1"/>
		<path id="XMLID_583_" class="st3" d="M945.1,683.7c0,0,53.2,0,45.7,14.9s-5.5,17.6-35.5,19.6s-46.4-2.8-49.7-6.7
			c-2.4-2.9-16.5-15.3,4.7-22.7"/>
		<path class="st3" d="M958.4,638.4c-0.1-0.3,0.6-22,0-23.7c-1.4-4.1-3.6-3.7-15.6-4c-12.1-0.3-12.5,7.1-12.5,7.1
			c0.3,1.3,0,23.7,0,23.7"/>
		<path id="XMLID_582_" class="st3" d="M945.8,623.2c-2.1,0.3-4.4,0.4-6.6,0.3"/>
		<path id="XMLID_581_" class="st3" d="M935,622.8c-2.4-0.8-4.2-2.3-4.7-4.9c0,0,0.4-7.4,12.5-7.1s14.3-0.1,15.6,4
			c1.4,4.1-2.7,6.6-5.9,7.2"/>
		<g>
			<path class="st0" d="M958.4,604.7c-1.4-4.1-3.6-3.7-15.6-4c-12.1-0.3-12.5,7.1-12.5,7.1c0.1,0.7,0,4,0,4c1.9,9.1,19,4.8,22.2,4.1
				c3.2-0.6,7.3-3.2,5.9-7.2C958.4,608.6,958.9,606.1,958.4,604.7z"/>
			<path id="XMLID_580_" class="st0" d="M930.3,607.8c0,0,0.4-7.4,12.5-7.1c12.1,0.3,14.3-0.1,15.6,4c1.4,4.1-2.7,6.6-5.9,7.2
				C949.3,612.6,932.2,617,930.3,607.8z"/>
		</g>
	</g>
</g>
</svg>
