<?xml version="1.0" encoding="utf-8"?>
<!-- Generator: Adobe Illustrator 22.1.0, SVG Export Plug-In . SVG Version: 6.00 Build 0)  -->
<svg version="1.1" id="Layer_1" xmlns="http://www.w3.org/2000/svg" xmlns:xlink="http://www.w3.org/1999/xlink" x="0px" y="0px"
	 viewBox="0 0 1280 720" style="enable-background:new 0 0 1280 720;" xml:space="preserve">
<style type="text/css">
	.st0{fill:#FFD767;stroke:#584C4F;stroke-width:4;stroke-miterlimit:10;}
</style>
<path class="st0" d="M-104,524.1c18.4,54.8,36.8,109.5,55.2,164.3c8.8,26.2,16.5,53.1,26.7,78.8c4.6,11.7,14.5,29,29.4,26.5
	c3.8,6,9.6,10.9,16.4,13.6c7,2.7,14.4,2.5,21.3-0.4c9.3-3.9,17-11.7,27.1-13.8c32.4-6.8,37.9,47.2,70.2,44c14-1.4,22.6-14.8,28-26.4
	c3.5-7.5,6.2-15.4,8.6-23.4c3.3-11,8.1-27.1,22.9-25.2c10.9,1.4,18.6,12.6,22.9,21.9c4,8.8,5.2,18.7,8.4,27.8
	c4.6,12.9,13.7,26.6,29.4,24.1c16.6-2.7,26.4-20.5,39.9-28.8c20.9-12.9,47.3-6.1,70-3.1c15.5,2.1,32.2,1.7,46.6-5.1
	c6.3-2.9,12-7.2,15.8-13c4.4-6.7,5.1-14.3,6.4-22.1c0.8-5,1.9-10.5,5.7-14.2c5.8-5.6,14.2-3.6,19.9,1c9.7,7.8,10.3,21.1,13.7,32.2
	c4.5,14.6,15.6,25.8,29.5,31.9c13.4,6,29.3,7.2,43.2,1.8c6.4-2.5,13.5-6.5,17-12.6c4-7,0-12.5-5-17.6c-16.8-17.3-3-43.3,18.5-47.9
	c23.7-5,49,9.8,66,25c15.8,14.1,28,33.1,30.7,54.5c2.5,19.6-3.8,66,15.5,59.3c9.5-3.3,18.7-7.3,27.5-12c9.4-5,18.2-12.4,28.3-16.1
	c11.6-4.2,19.6,2.1,30.3,5c6.3,1.7,12.9,1.2,18.9-1.6c14.2-6.5,23.3-21.9,30-35.3c7.6-15.2,18.1-35.1,36.3-39.2
	c19.9-4.4,30.6,16.5,45.7,24.8c22.5,12.3,48.3-0.6,68.8-11c12.8-6.4,25.6-13.4,39.4-17.5c6.3-1.8,12.8-3,19.4-2.8
	c3.4,0.1,6.7,0.6,10,1.5c1.3,0.4,2.8,0.7,4,1.4c3.5,1.8,1.6,1.8-0.6,4.3c-9.3,10.4-11.6,26.8-4.5,39c7.1,12.1,22.2,18.9,35.9,16
	c7.8-1.7,14.7-6.1,21.5-10c10.1-5.9,18.6-9,30.4-7.1c10.7,1.7,24.2,1.4,24.3-12.6c0.1-12.4-8.8-23.9-7.1-36.4
	c1.5-11.2,13.3-13.9,22.3-9.1c10.3,5.4,13.5,16.9,16.6,27.2c5.8,19.1,17,32.8,30.9,46.8c5.2,5.3,10.5,9.9,18.4,9
	c8.6-1,17.3-6.4,24.8-10.4c32-17.3,59.9-42,81.1-71.5c5.4,2.9,12.8,3.3,18.2,0.8c16.4-7.4,15-31.8,15-46.4
	c0.1-57.5,0.1-114.9,0.2-172.4c0.1-56,0.3-112.1,0.2-168.1c-0.1-51.6-1-103.3-6.8-154.6c-5.7-49.7-16.2-99.2-35.3-145.6
	c-9-21.7-19.5-43.3-34-62c-13.9-17.9-31.7-31.9-51.8-42.3c-41.9-21.7-90.3-29.4-136.1-38.3c-53.7-10.4-107.8-19.2-162.1-26.2
	c-110.4-14.4-221.7-21.9-333-22.4c-110.8-0.5-221.7,5.8-331.7,19C237-92.4,182.8-84.2,129-74.3c-49.1,9-99.3,19.7-142,46.7
	C-49.8-4.2-79.8,29.9-98.1,69.5c-21.5,46.6-26.6,98.6-45.6,146.1c-9.2,23-23.9,44.3-28.4,69c-4.6,25.8,4.6,51.1,12.7,75.1
	C-140.8,414.6-122.4,469.3-104,524.1z"/>
</svg>
