<?xml version="1.0" encoding="utf-8"?>
<!-- Generator: Adobe Illustrator 22.1.0, SVG Export Plug-In . SVG Version: 6.00 Build 0)  -->
<svg version="1.1" id="Layer_1" xmlns="http://www.w3.org/2000/svg" xmlns:xlink="http://www.w3.org/1999/xlink" x="0px" y="0px"
	 viewBox="0 0 513 385" style="enable-background:new 0 0 513 385;" xml:space="preserve">
<style type="text/css">
	.st0{fill:#FFFAF2;stroke:#584C4F;stroke-miterlimit:10;}
	.st1{fill:#FFD767;stroke:#584C4F;stroke-miterlimit:10;}
	.st2{fill:#A36B78;stroke:#584C4F;stroke-linecap:round;stroke-miterlimit:10;}
	.st3{fill:#A36B78;}
	.st4{fill:#A36B78;stroke:#584C4F;stroke-linecap:round;stroke-linejoin:round;stroke-miterlimit:10;}
	.st5{fill:#584C4F;stroke:#584C4F;stroke-linecap:round;stroke-miterlimit:10;}
</style>
<g id="Layer_5">
</g>
<g id="Layer_3">
</g>
<g>
	<polygon class="st0" points="494.9,1.6 499.8,9.9 488.7,10.5 	"/>
	<g>
		<path class="st1" d="M495,71.6c6.5,0,9.4-1,8.9-9.6c0-0.5-0.1-0.9-0.1-1.4c-0.6,4.9-3.5,5.6-8.8,5.6c-3.5,0-4.5-5.7-4.7-11.9
			C490.1,62.2,490.6,71.6,495,71.6z"/>
		<path class="st1" d="M495,66.2c5.3,0,8.2-0.6,8.8-5.6c-0.3-4.5-0.7-9.1-1.1-12.4c0.2-1.2,0.3-2.8,0.2-4.8c0-0.5-0.1-0.9-0.1-1.4
			c-0.4-6.3-1.1-12.8-1.4-15.6c-0.5-8.2-1.6-16.6-1.6-16.6s-11.3-4.2-11.6,1.9c-0.1,1.9-0.3,5.2-0.4,8.7c-0.1,5.2,0,11.1,1.4,14.5
			c0,0.2,0,0.5,0,0.7c-0.1,4.9,0,10.3,1.2,13.8c-0.1,1.4-0.2,3-0.2,4.7C490.5,60.5,491.6,66.2,495,66.2z"/>
	</g>
	<g>
		<path id="XMLID_810_" class="st2" d="M336.3,180.9c25.2-23.2,52-48.1,67.4-62c33.6-30.3,78-79.9,78-79.9L494,53.6
			c0,0-85.7,80.2-100.4,100.4c-8.4,11.6-42,41.3-69.4,66"/>
		<g id="XMLID_798_">
			<path id="XMLID_809_" class="st3" d="M509.9,49.3c-1.5-3-2.8-4.9-3.9-6c9.2-5.9,2.9-8.5-0.5-9.4l-0.4-1.3
				c2.7-6.9-5.3-6.7-7.8-6.5l1.1-1c-1.7-6.6-6.3-2.7-8.6-0.3c0.4-1.1,0.2-3-2.6-6.3c-5.3-6.3-18.2,33.6-18.2,33.6L483.6,64
				C483.6,64,517.4,64.5,509.9,49.3z"/>
			<path id="XMLID_808_" class="st2" d="M483.6,64c0,0,33.8,0.5,26.3-14.7c-1.5-3-2.8-4.9-3.9-6c9.2-5.9,2.9-8.5-0.5-9.4l-0.4-1.3
				c2.7-6.9-5.3-6.7-7.8-6.5l1.1-1c-1.7-6.6-6.3-2.7-8.6-0.3c0.4-1.1,0.2-3-2.6-6.3c-5.3-6.3-18.2,33.6-18.2,33.6"/>
			<g id="XMLID_803_">
				<path id="XMLID_807_" class="st4" d="M469.2,52.1c0,0,12.9-39.9,18.2-33.6c5.3,6.3,1.5,7.4,1.4,7.8c0,0,7.6-10.1,9.9-1.2"/>
				<path id="XMLID_806_" class="st4" d="M496.7,26.2c0,0,12.1-1.8,8.3,6.9"/>
				<path id="XMLID_805_" class="st4" d="M483.6,64c0,0,33.8,0.5,26.3-14.7s-10.5-2.5-7.2,1"/>
				<path id="XMLID_804_" class="st4" d="M503.7,33.5c0,0,15.2,2.3,1.3,10.4l-6.7,4.4"/>
			</g>
			<path id="XMLID_802_" class="st4" d="M478.7,47.2c0,0-16,0.1-8.6,8.6"/>
			<path id="XMLID_801_" class="st2" d="M493.1,42.7c0,0,4.2-2.6,5.7-4.9"/>
			<path id="XMLID_800_" class="st2" d="M492.2,32.2c0,0,2.7-2.3,2.3-2.9"/>
			<path id="XMLID_799_" class="st4" d="M480.4,40.1c1.3-2,3-7.4,3-7.4"/>
		</g>
		<g id="XMLID_796_">
			<path id="XMLID_797_" class="st2" d="M396.6,131.6c-8.8-0.9-3.3-14.6,4.7-8.3"/>
		</g>
		<path id="XMLID_795_" class="st2" d="M398.5,129.7c0,0-2,0.1-2.2-1.4"/>
		<path id="XMLID_794_" class="st2" d="M398.3,124.2c0,0,2.4,0.4,2.6,0.9"/>
	</g>
	<polygon class="st5" points="496.4,4.1 495.5,3.3 494.9,3.6 494.6,3.1 493.6,3.4 494.9,1.6 	"/>
</g>
</svg>
