<?xml version="1.0" encoding="utf-8"?>
<!-- Generator: Adobe Illustrator 22.1.0, SVG Export Plug-In . SVG Version: 6.00 Build 0)  -->
<svg version="1.1" id="Layer_1" xmlns="http://www.w3.org/2000/svg" xmlns:xlink="http://www.w3.org/1999/xlink" x="0px" y="0px"
	 viewBox="0 0 513 385" style="enable-background:new 0 0 513 385;" xml:space="preserve">
<style type="text/css">
	.st0{fill:#E6C86B;stroke:#584C4F;stroke-miterlimit:10;}
	.st1{fill:#FCDE82;stroke:#584C4F;stroke-miterlimit:10;}
	.st2{fill:#FFD767;stroke:#584C4F;stroke-miterlimit:10;}
	.st3{fill:none;stroke:#584C4F;stroke-miterlimit:10;}
	.st4{opacity:0.1;fill:#231F20;stroke:#231F20;stroke-miterlimit:10;enable-background:new    ;}
</style>
<g id="Layer_5">
</g>
<g id="Layer_3">
</g>
<g>
	<g>
		<g>
			<g id="XMLID_17789_">
				<path id="XMLID_17795_" class="st0" d="M220.1,155.6c0,0-1.4-6.2-7.5-3.9c-6.1,2.3-2.6,25.9,0.2,27.6S223.7,192.2,220.1,155.6z"
					/>
				<path id="XMLID_17794_" class="st0" d="M218.9,167c0,0,10.5-10.8,8.7,9.1c0,0,2.6,6.1,7.6,3.5c5-2.6,5.1-34-18.6-24.8"/>
				<path id="XMLID_17793_" class="st1" d="M231.5,156.5c0,0-1,0.5-1.3,1"/>
				<path id="XMLID_17792_" class="st1" d="M215.9,152.3c0,0-1,0.5-1.3,1"/>
				<path id="XMLID_17791_" class="st1" d="M219.7,177c-0.3,0.2-0.5,0.4-0.6,0.6"/>
				<path id="XMLID_17790_" class="st1" d="M236.8,170.9c0,0-0.3,0.2-0.7,0.4"/>
			</g>
			<g id="XMLID_17778_">
				<path id="XMLID_17788_" class="st2" d="M217.3,158.4c0,0-1.4-6.2-7.5-3.9c-6.1,2.3-2.6,25.9,0.2,27.6
					C213,183.9,221.1,195,217.3,158.4z"/>
				<path id="XMLID_17787_" class="st2" d="M216.1,169.8c0,0,10.5-10.8,8.7,9.1c0,0,2.6,6.1,7.6,3.5c5-2.6,5.1-34-18.6-24.8"/>
				<line id="XMLID_17786_" class="st3" x1="212.9" y1="181.9" x2="214" y2="182.2"/>
				<path id="XMLID_17785_" class="st2" d="M231.2,178.8c0,0,0.4,0.8-0.2,1.2"/>
				<path id="XMLID_17784_" class="st2" d="M233.3,168.7c0,0-0.2,0.7-0.4,1"/>
				<path id="XMLID_17783_" class="st2" d="M216.4,175.3c0,0,0.3-1.4,0-1.4"/>
				<path id="XMLID_17782_" class="st2" d="M223.9,165.6c0,0,1.3,0.2,1.2,0.4"/>
				<path id="XMLID_17781_" class="st2" d="M211.2,172.4c0,0,1.5-0.2,1.6-0.5"/>
				<path id="XMLID_17780_" class="st2" d="M218.7,157.7c0,0-1,0.5-1.3,1"/>
				<line id="XMLID_17779_" class="st3" x1="209.6" y1="159.5" x2="210.6" y2="159.2"/>
				<path class="st4" d="M216.6,156.5c-0.9-1.6-3-3.4-6.6-2c-1,0.4-1.8,1.3-2.3,2.6c3.5-1.2,5.3,0.6,6.2,2.2
					c18.1-5,20.3,15.9,17.5,23.3c0.3-0.1,0.7-0.2,1.1-0.4C237.1,179.7,237.5,150.7,216.6,156.5z"/>
			</g>
		</g>
	</g>
</g>
</svg>
