<?xml version="1.0" encoding="utf-8"?>
<!-- Generator: Adobe Illustrator 22.1.0, SVG Export Plug-In . SVG Version: 6.00 Build 0)  -->
<svg version="1.1" id="Layer_1" xmlns="http://www.w3.org/2000/svg" xmlns:xlink="http://www.w3.org/1999/xlink" x="0px" y="0px"
	 viewBox="0 0 607.5 642.9" style="enable-background:new 0 0 607.5 642.9;" xml:space="preserve">
<style type="text/css">
	.st0{fill:#A36B78;stroke:#584C4F;stroke-width:2;stroke-linecap:round;stroke-miterlimit:10;}
	.st1{fill:#A36B78;stroke:#584C4F;stroke-width:2;stroke-linecap:round;stroke-linejoin:round;stroke-miterlimit:10;}
	.st2{fill:#FFD767;stroke:#584C4F;stroke-width:2;stroke-miterlimit:10;}
	.st3{fill:#A36B78;}
	.st4{fill:none;stroke:#584C4F;stroke-width:2;stroke-linecap:round;stroke-miterlimit:10;}
	.st5{fill:#BEAB72;}
	.st6{fill:#584C4F;stroke:#584C4F;stroke-width:2;stroke-linecap:round;stroke-miterlimit:10;}
	.st7{opacity:0.1;fill:#231F20;stroke:#231F20;stroke-miterlimit:10;enable-background:new    ;}
	.st8{fill:#FFFFFF;stroke:#584C4F;stroke-width:2;stroke-linecap:round;stroke-miterlimit:10;}
</style>
<g id="Layer_5">
</g>
<g id="Layer_3">
</g>
<g>
	<g>
		<g id="XMLID_12217_">
			<path id="XMLID_12218_" class="st0" d="M219.5,264.5c-7.6,2.1-7.4-11,1.2-8.5"/>
		</g>
		<path id="XMLID_12216_" class="st0" d="M214.1,169.3c1.7,34.8,3,77.6,4.2,99.8c2,40.2-1.2,99.4-1.2,99.4L234,367
			c0,0-3.5-104.4,0-126.4c2.4-15.7-1.9-73.9-3.2-107.9"/>
		<g id="XMLID_12214_">
			<path id="XMLID_12215_" class="st0" d="M234.1,364.9c6.9,7.2,9,9.6,12.8,19s-9.9-13.5-9.1-10.1c0.8,3.4,13.6,68.6,3.1,28.5
				s-6.4-14.5-6.4-14.5c0,55-4.5,11-5.8,4.1s-10.4,36.7-8.8,15.1c1.7-21.5,0-23.4-3.6-5.4s-1.7-24.3-1.7-24.3s0.8-13.2,4.1-12.1"/>
		</g>
		<path id="XMLID_12213_" class="st0" d="M224.6,256.5c0,0,2.8,0.6,3,1.2"/>
		<path id="XMLID_12212_" class="st0" d="M224.2,263.2c0,0-2.2,0.4-2.8-1.4"/>
		<path id="XMLID_12211_" class="st1" d="M220.8,353.3c0,0-13.6,9.1,0,9.9"/>
	</g>
	<path id="XMLID_12210_" class="st2" d="M238.1,168.2c2.2,4.2-4.1,60.7-3.8,65.6c0.3,4.9-1.6,5.5-15.3,5s-7-90.3-1.4-98.4
		c1.9-2.9,9.6-5.6,18.7-8.1"/>
	<g>
		<path class="st0" d="M269.5,607.6c-0.5-1.8-1.5-3.8-2.6-6.3c-1-2.3-2-5.1-2.9-8.5c0.1,0,0.2,0,0.2,0s0,0,0-0.1c0-0.5,0-3-0.2-6.9
			l-15.2-1.3H248h-0.8c-0.1,1.1-0.2,1.9-0.4,2.4v0.2c-0.1,0.1-0.2,0.2-0.2,0.3c-0.3,0.4-0.5,0.7-0.5,0.7s-0.7,0.6-1.7,1.6
			c-1.9,10.8-9.3,17.1-18.2,20.8c0.1,0.9,0.5,1.8,1.3,2.5c0.2,0.2,0.6,0.5,0.9,0.8c1.2,0.8,3,1.5,5.4,2c1.8,0.3,3.8,0.7,6.1,0.8
			c1.5,0.1,3,0.2,4.5,0.3c1.2,0,2.5,0.1,3.7,0.2c1.2,0,2.5,0,3.7-0.2c1.6,0,3.1-0.2,4.5-0.3c2.3-0.2,4.4-0.5,6.2-0.8
			c2.3-0.5,4.2-1.1,5.4-2c0.4-0.2,0.7-0.5,0.9-0.8c1-1,1.4-2.2,1.3-3.4C269.9,609,269.7,608.3,269.5,607.6z"/>
		<path class="st0" d="M242.5,330.8c0,0,3.7,57.8,3.4,102.4c-0.2,5.2-0.2,10.1-0.2,14.5l0,0c-0.3,10.9,0.2,15.8,1,16.9
			c3,25.8-0.3,124.2-0.3,124.2l16.9,1.5c0,0-3.2-59.2-1.2-99.4s5-148,8.5-153.6"/>
		<g>
			<g id="XMLID_12208_">
				<path id="XMLID_12209_" class="st0" d="M212.2,612.3c0,0,6-0.6,3.9,4.3C213.9,621.4,207.2,615.6,212.2,612.3z"/>
			</g>
			<g id="XMLID_12206_">
				<path id="XMLID_12207_" class="st0" d="M215.7,611.6c0,0,6.7-0.7,4.3,4.8C217.6,621.7,210.1,615.3,215.7,611.6z"/>
			</g>
			<g id="XMLID_12204_">
				<path id="XMLID_12205_" class="st0" d="M220,610.4c0,0,7.8-0.8,5,5.5C222.1,622.3,213.4,614.8,220,610.4z"/>
			</g>
			<g id="XMLID_12202_">
				<path id="XMLID_12203_" class="st0" d="M225.4,609.3c0,0,9-0.8,5.7,6.3C227.9,622.8,217.9,614.3,225.4,609.3z"/>
			</g>
			<path id="XMLID_12201_" class="st0" d="M235.9,618.4c0,0-10.6,0.7-5.7-6.2s13.6,0.2,14.3,3.1
				C245.2,618.3,235.9,618.4,235.9,618.4z"/>
		</g>
		<path id="XMLID_12200_" class="st0" d="M256.6,455.9c0,0,2.3,0.1,2.3,2"/>
		<path id="XMLID_12199_" class="st0" d="M253,472.6c0,0-2.7-0.8-2.8-1.5"/>
		<g id="XMLID_12197_">
			<path id="XMLID_12198_" class="st0" d="M249.3,592.6c-6.1,5-11.2-7.1-2.2-8.2"/>
		</g>
		<g id="XMLID_12195_">
			<path id="XMLID_12196_" class="st0" d="M248.5,468c-7.6,2.1-7.4-11,1.2-8.5"/>
		</g>
	</g>
	<path class="st0" d="M327.8,291.9l-111.1-4.1c0,0,0.6,29.5,1.3,40.6c0,1,0.1,2.1,0.2,3.1c0,0.4,0.1,0.7,0.1,0.9l0,0
		c3.1,17,22.5,32,53.2,32.5c50.1,0.8,51.5-14.5,51.5-14.5c2.5-4.5,3.8-8.9,4.4-13c0.2,0,0.2,0,0.2,0S329.6,300.8,327.8,291.9z"/>
	<g>
		<path class="st2" d="M334.2,264.2c-0.1-0.8-0.2-1.5-0.3-2.2c-0.8-6-1.6-10.5-1.9-11.9c-1.5-7.3-4.4-87.8-5.9-101
			c0-0.4-0.1-0.9-0.2-1.3c-0.8-3.7-3.3-6.7-6.3-9c-4.2-3.2-9.5-5.2-13-6.2c-6.7-5.6-20.5-9.4-39.2-8.6c-17.8,0.8-45.2,1.1-46.5,27.9
			c-0.2,3.1-0.2,6.5-0.1,10.4c1.4,36.2,1.5,95-2.3,110.6c-0.2,0.8-0.4,1.5-0.6,2c-3.2,8.5-7.1,29.9-3,37.9c0,0.1,0.1,0.2,0.2,0.3
			c1.6,2.8,4.3,3.7,8.6,1.4c0,0,5.4-1.3,9.4-1.2l77.2,4c3.2,0.5,6.1,1,8.4,1.5C341,335.3,337.5,289.1,334.2,264.2z"/>
		<path class="st2" d="M220.7,159.7c0,0.9,0,1.7,0.1,2.6c1.4,36.2,1.5,95-2.3,110.6c-0.2,0.8-0.4,1.5-0.6,2
			c-3.2,8.5-7.1,29.9-3,37.9c0,0.1,0.1,0.2,0.2,0.3c1.6,2.8,4.3,3.7,8.6,1.4"/>
		<path class="st2" d="M233.1,313.2l77.1,4c3.2,0.5,6.1,1,8.5,1.5c22.3,16.5,18.9-29.7,15.5-54.5c-0.1-0.8-0.2-1.5-0.3-2.2
			c-0.8-6-1.6-10.5-1.9-11.9c-1.5-7.3-4.4-87.8-5.9-101c0-0.4-0.1-0.9-0.2-1.3c-0.8-3.7-3.3-6.7-6.3-9c-4.2-3.2-9.5-5.2-13-6.2
			c-6.7-5.6-20.5-9.4-39.2-8.6c-16.4,0.7-40.8,1-45.8,21.9"/>
	</g>
	<path id="XMLID_12194_" class="st0" d="M329.1,206.6c0,0-8.7,93.6-5.1,107.3"/>
	<g>
		<path id="XMLID_12193_" class="st3" d="M288.5,121.7c0.2-3.4-1-13.4-1.2-16.6c-0.2-2.9-0.6-5.4-1.2-7.6
			c11.4-19.4-20.1-41.7-31.3-16.7c-3.5,7.8-3,22.9-3,25.5c0.1,3.4,0.1,14.6,0.1,17.5c0.1,16.3,24.2,29.2,33.8,8"/>
		<path id="XMLID_12192_" class="st4" d="M280.4,139.3c-11.1,9.6-28.4-1.8-28.5-15.5c0-2.9-0.1-14.1-0.1-17.5
			c-0.1-2.6-0.5-17.7,3-25.5c11.2-25,42.7-2.7,31.3,16.8c0.6,2.1,1,4.6,1.2,7.6c0.2,3.2,1.4,13.1,1.1,16.6l-2.8,10.1
			c-0.5,1.1-1,2.2-1.6,3.1"/>
	</g>
	<g>
		<path class="st0" d="M306.2,330.8c0,0-3.6,57.8-3.4,102.4c0.1,5.2,0.2,10.1,0.2,14.5l0,0c0.3,10.9-0.2,15.8-1.1,16.9
			c-2.9,25.8,0.3,124.2,0.3,124.2l-16.9,1.5c0,0,3.2-59.2,1.2-99.4c-2.1-40.2-5.1-148-8.5-153.6"/>
		<path id="XMLID_12191_" class="st0" d="M297.1,457.9c0,0-1.2-2-2.9-1"/>
		<path id="XMLID_12190_" class="st0" d="M290.3,473c0,0,2.7-0.8,2.8-1.5"/>
		<g id="XMLID_12188_">
			<path id="XMLID_12189_" class="st0" d="M299.5,585.6c6.1-5,11.2,7.1,2.2,8.2"/>
		</g>
		<g id="XMLID_12186_">
			<path id="XMLID_12187_" class="st0" d="M289.6,462c-6.1-5-11.2,7.1-2.2,8.2"/>
		</g>
		<g>
			<path class="st0" d="M307.7,610.5c-0.5-1.8-1.5-3.8-2.6-6.3c-1-2.3-2-5.1-2.9-8.5c0.1,0,0.2,0,0.2,0s0,0,0-0.1c0-0.5,0-3-0.2-6.9
				l-15.2-1.3h-0.8h-0.9c-0.1,1.1-0.2,1.9-0.3,2.4v0.2c-0.1,0.1-0.2,0.2-0.2,0.3c-0.4,0.4-0.6,0.7-0.6,0.7s-0.6,0.6-1.7,1.6
				c-1.9,10.8-9.4,17.1-18.2,20.8c0.1,0.9,0.5,1.8,1.3,2.5c0.2,0.2,0.5,0.5,0.9,0.8c1.1,0.8,3,1.5,5.4,2c1.8,0.3,3.9,0.7,6.2,0.8
				c1.5,0.1,3,0.2,4.5,0.3c1.2,0,2.5,0.1,3.7,0.2c1.2,0,2.5,0,3.7-0.2c1.6,0,3.1-0.2,4.5-0.3c2.3-0.2,4.4-0.5,6.2-0.8
				c2.3-0.5,4.2-1.1,5.4-2c0.4-0.2,0.7-0.5,0.9-0.8c1-1,1.4-2.2,1.3-3.4C308.1,611.9,308,611.2,307.7,610.5z"/>
			<g>
				<g id="XMLID_12184_">
					<path id="XMLID_12185_" class="st0" d="M250.5,615.1c0,0,6.1-0.6,3.9,4.3C252.2,624.3,245.4,618.5,250.5,615.1z"/>
				</g>
				<g id="XMLID_12182_">
					<path id="XMLID_12183_" class="st0" d="M254,614.5c0,0,6.7-0.7,4.3,4.8C255.8,624.6,248.3,618.2,254,614.5z"/>
				</g>
				<g id="XMLID_12180_">
					<path id="XMLID_12181_" class="st0" d="M258.2,613.3c0,0,7.8-0.8,5,5.5C260.4,625.2,251.7,617.7,258.2,613.3z"/>
				</g>
				<g id="XMLID_12178_">
					<path id="XMLID_12179_" class="st0" d="M263.6,612.2c0,0,9-0.8,5.7,6.3C266.1,625.7,256.1,617.2,263.6,612.2z"/>
				</g>
				<path id="XMLID_12177_" class="st0" d="M274.1,621.3c0,0-10.6,0.7-5.7-6.2s13.6,0.2,14.3,3.1
					C283.4,621.1,274.1,621.3,274.1,621.3z"/>
			</g>
		</g>
	</g>
	<g>
		<g id="XMLID_12175_">
			<path id="XMLID_12176_" class="st0" d="M321,256.6c6.1-5,11.2,7.1,2.2,8.2"/>
		</g>
		<path id="XMLID_12174_" class="st0" d="M328,187.6c-1.3,30.4-2.5,63.1-3.4,81.4c-2,40.2,1.2,99.4,1.2,99.4l-16.9-1.5
			c0,0,3.5-104.4,0-126.4c-2-12.6,0.4-52.4,2.2-85.2"/>
		<path id="XMLID_12173_" class="st0" d="M318,256.8c0,0,2.3,0.1,2.3,2"/>
		<path id="XMLID_12172_" class="st0" d="M317.3,263.3c0,0-2.7-0.9-2.9-1.5"/>
		<g id="XMLID_12159_">
			<path id="XMLID_12171_" class="st3" d="M305.1,395.8c2.9,0.8,4.9,0.9,6.3,0.8c-0.8,10.8,4.5,7.6,7,5.5l1.1,0.5
				c3.5,6.4,7.7,0.1,8.9-2l0.1,1.5c5.6,2.9,5.3-3.2,4.8-6.5c0.5,1,2,2,5.9,1.9c7.3-0.1-14-35.1-14-35.1l-16.2,3.8
				C308.9,366.1,290.3,392,305.1,395.8z"/>
			<path id="XMLID_12170_" class="st0" d="M308.9,366.1c0,0-18.6,25.9-3.8,29.6c2.9,0.8,4.9,0.9,6.3,0.8c-0.8,10.8,4.5,7.6,7,5.5
				l1.1,0.5c3.5,6.4,7.7,0.1,8.9-2l0.1,1.5c5.6,2.9,5.3-3.2,4.8-6.5c0.5,1,2,2,5.9,1.9c7.3-0.1-14-35.1-14-35.1"/>
			<g id="XMLID_12163_">
				<g id="XMLID_12165_">
					<path id="XMLID_12169_" class="st1" d="M325.1,362.4c0,0,21.4,35,14,35.1c-7.3,0.1-6-3.5-6.2-3.8c0,0,3,12.2-4.5,8.4"/>
					<path id="XMLID_12168_" class="st1" d="M328.6,399.9c0,0-5.2,10.5-9.4,2.1"/>
					<path id="XMLID_12167_" class="st1" d="M308.9,366.1c0,0-18.6,25.9-3.8,29.6c14.8,3.8,7.4-6.6,3.2-6.2"/>
					<path id="XMLID_12166_" class="st1" d="M319.7,400.8c0,0-9.8,10.4-8.1-5.5l0.5-8"/>
				</g>
				<path id="XMLID_12164_" class="st1" d="M322.5,361.4c0,0,10-10.1,0-10.9"/>
			</g>
			<path id="XMLID_12162_" class="st0" d="M318.8,386.8c0,0-0.5,4.9,0.4,7.5"/>
			<path id="XMLID_12161_" class="st0" d="M326.7,392.6c0,0,0.2,3.5,0.9,3.5"/>
			<path id="XMLID_12160_" class="st1" d="M327.6,378.6c0.7,2.2,3.6,7,3.6,7"/>
		</g>
	</g>
	<path id="XMLID_12158_" class="st2" d="M303.3,171.2c-2.2,4.2,4.1,60.6,3.8,65.5s1.6,5.5,15.3,5s7-90.3,1.5-98.4
		c-2-2.9-9.6-5.6-18.7-8.1"/>
	<g>
		<path class="st5" d="M298,157.8c0,0-13.7-5.1-14.6-0.4c-0.9,4.8-5.4,20.1,2.8,21.1c8.1,1.1,11.8,0.8,12.1-6.1
			C298.5,165.5,298,157.8,298,157.8z"/>
		<g>
			<path id="XMLID_12157_" class="st0" d="M297.4,158.2c0,0,1.8,1.4,0.8,2.9"/>
			<path id="XMLID_12156_" class="st0" d="M285,157.5c0,0-2.5,1.2-3.2,2.4"/>
			<path id="XMLID_12155_" class="st0" d="M297.8,169.2c0,0,0.8-2.6,0.3-4"/>
			<path id="XMLID_12154_" class="st0" d="M284.3,177.7c0,0,2.5,1.1,3.9,0.8"/>
			<path id="XMLID_12153_" class="st0" d="M296.2,175.7c0,0-0.9,2.1-2.6,1.4"/>
			<path id="XMLID_12152_" class="st0" d="M282.2,164.8c0,0-0.4,1.9-0.9,2.4"/>
			<line id="XMLID_12151_" class="st4" x1="292" y1="157" x2="289.3" y2="156.9"/>
			<path id="XMLID_12150_" class="st0" d="M281.3,171.9c0,0-0.6,2.7-0.1,4"/>
		</g>
		<g>
			<path id="XMLID_12149_" class="st0" d="M251.2,346.2c0,0-1.7-2.9-0.4-4.6"/>
			<path id="XMLID_12148_" class="st0" d="M255,333.8c0,0-1.9,2-2.2,3.4"/>
			<path id="XMLID_12147_" class="st0" d="M253.9,350.9c0,0,0.8,2.6,1.8,3.5"/>
		</g>
	</g>
	<g id="XMLID_11466_">
		<g id="XMLID_12143_">
			<path id="XMLID_12146_" class="st0" d="M312.6,33.8c0,0,23.2-17.5,5.1-18c-18.1-0.5-37.6,4.5-35.2,11c2.5,6.5,7.9,6.6,7.9,6.6"/>
			<path id="XMLID_12145_" class="st0" d="M311.4,28c0,0,10.6-6.8,5.6-8.5"/>
			<path id="XMLID_12144_" class="st0" d="M304,30.6c0,0,2.7-10-3.2-8.6c-5.8,1.4-9.7,5.1-3.2,6.8"/>
		</g>
		<path id="XMLID_12142_" class="st6" d="M394,86.3c0,0-5.8-6.6-8.4,1.6S397,93.4,394,86.3z"/>
		<path id="XMLID_12141_" class="st0" d="M380,72.4c0,0-3.8,52.4-65.7,45.2s-73.3-5.4-79.6-35s15.3-45.8,31.8-49.1
			S371.8,6.6,380,72.4z"/>
		<path class="st7" d="M370.8,97c-9.8,6.6-23.9,10.7-44.4,8.3c-61.9-7.4-73.3-5.4-79.5-35c-2.7-12.7-0.3-22.8,4.6-30.6
			c-11.8,7.7-21.3,21.9-16.9,42.8c6.3,29.6,17.6,27.6,79.5,34.9C345.8,121.3,362.3,109.5,370.8,97z"/>
		<path id="XMLID_12140_" class="st2" d="M365.2,114.6c2.1-0.2,4.7-1.1,8-2.9v-0.1l0,0c0.7-0.4,1.4-0.8,2.2-1.3
			c9.2-5.9,14.5-15.4,17.2-24.2c16.9-37.6-18.8-41.4-32.2-41.5c-1.3,0,0.2,16.9,4,32.4c-7.9,19.6-16.7,38.1-16.7,38.1
			S359.1,116.4,365.2,114.6z"/>
		<path id="XMLID_12139_" class="st0" d="M308.9,67c0,0-7,9.3-2.7,21.5"/>
		<path id="XMLID_12138_" class="st0" d="M308.6,44.1c0,0-3.2-15.1-1.9-18.3"/>
		<path id="XMLID_12137_" class="st0" d="M240.1,54.1c0,0-5.8-6.2-8.3,6.7s0.9,21.4,5.7,18.8"/>
		<path id="XMLID_12136_" class="st2" d="M355.3,35.3c0,0,8.1,20.1,3,43.7c-5.2,23.6-10.7,35.8-10.7,35.8
			c26-7.6,26.2-53.2,24.7-76.2C370.8,15.5,362,21.7,362,21.7S357.8,25.1,355.3,35.3z"/>
		<path id="XMLID_12135_" class="st0" d="M355.3,35.3c0,0,11-39.8,13.5,15.3c2.4,55.1-21.2,64.2-21.2,64.2S369.7,63.9,355.3,35.3z"
			/>
		<g>
			<path id="XMLID_12134_" class="st0" d="M304.3,63.6c0,0,11.8-9.4,18.3-9.1"/>
			<g id="XMLID_12131_">
				<path id="XMLID_12133_" class="st0" d="M303,47.2c-3.1,0.3-5.2,1.3-5.6,3.3c-0.2,1.1-0.2,2.1,0,2.8c0.1,0.7,0.4,1.2,0.6,1.6"/>
				<path id="XMLID_12132_" class="st0" d="M340.4,57.4c0,0-19.2-7.2-32.9-9.3"/>
			</g>
			<g id="XMLID_12125_">
				<path id="XMLID_12130_" class="st0" d="M301.4,43.8c0,0-8.1-6.9-10.4,4.2"/>
				<path id="XMLID_12129_" class="st0" d="M301.4,63c0,0-6.2,7.4-10.4-3.1"/>
				<path id="XMLID_12128_" class="st0" d="M296.3,57.5c-0.3,1.1,1.9,2.6,0,3.8s-1.3-0.2-1.8-1.7C294.2,58,296.7,56.4,296.3,57.5z"
					/>
				<path id="XMLID_12127_" class="st0" d="M293.6,46.9c0.1-2.1,1.8-2.6,2.7-1.5c0.3,0.4-0.2,1.6-0.9,2.7
					C294.8,49,293.6,46.9,293.6,46.9z"/>
				<path id="XMLID_12126_" class="st0" d="M305.6,54.4c0,0,0,2.2-0.7,2.7"/>
			</g>
			<path id="XMLID_12124_" class="st0" d="M296.4,39.7c0,0-3.1-6.1-3.7-7.8"/>
			<path id="XMLID_12122_" class="st0" d="M298.1,67.4c0,0-3.4,7.1-3.3,7.8"/>
		</g>
		<path id="XMLID_12121_" class="st0" d="M328.5,97.6c0,0-2.1,1-3-0.6"/>
		<path id="XMLID_12120_" class="st0" d="M307.4,92.1c0,0-1.9-0.4-2.5-1"/>
		<path id="XMLID_12119_" class="st0" d="M344,92.7c0,0,3.5,0.8,3.5,0"/>
		<path id="XMLID_12118_" class="st0" d="M355.8,41.6c0,0-0.5,3.3-1,2.9"/>
		<path id="XMLID_12117_" class="st0" d="M349.6,61.8c0,0,0.5,3.8,1.3,4.1"/>
		<path id="XMLID_12116_" class="st0" d="M255.3,43c0,0-0.6,2.8-1.2,3"/>
		<path id="XMLID_12115_" class="st0" d="M254.1,66.4c0,0-1.2-2.6-2.4-3.3"/>
		<path id="XMLID_12114_" class="st0" d="M315.8,40.4"/>
		<path id="XMLID_12113_" class="st0" d="M313.6,58.7"/>
		<line id="XMLID_12112_" class="st4" x1="293.2" y1="84.9" x2="293.9" y2="87.6"/>
		<path id="XMLID_12111_" class="st0" d="M306.1,110.2c0,0,21.6,19.4,3.6,18.4c-18.1-1.1-37.1-7.7-34.1-13.9s8.4-5.9,8.4-5.9"/>
		<path id="XMLID_12110_" class="st0" d="M304.3,115.8c0,0,10,7.7,4.9,9"/>
		<path id="XMLID_12109_" class="st0" d="M297.2,112.6c0,0,1.8,10.2-3.9,8.3c-5.6-1.9-9.2-5.9-2.6-7.1"/>
		<g>
			<path id="XMLID_12108_" class="st8" d="M347.5,27.9c0,0,3.5,35.8-25.3,22.8C293.4,37.7,327.5-2.1,347.5,27.9z"/>
			<path id="XMLID_12107_" class="st6" d="M332.7,29.5c0,0,2.1,5.3-3.4,4.8S327.9,25.8,332.7,29.5z"/>
			<path id="XMLID_12106_" class="st8" d="M343.5,67.7c0,0-23.1-26.3-33.7,6.4C299.3,106.8,355.3,96.2,343.5,67.7z"/>
			<path id="XMLID_12105_" class="st6" d="M329.4,85.9c0,0,2.1,5.4-3.4,4.8S324.7,82.2,329.4,85.9z"/>
			<path id="XMLID_12104_" class="st6" d="M348.2,69.8c0,0-1.4-12.1-9.9-3.4S338,91.6,341,90.7S349.1,88.2,348.2,69.8z"/>
			<path id="XMLID_12103_" class="st6" d="M353.3,34.7c0,0,1.1-18.6-9.3-10c-10.3,8.6,0.2,23.9,4.6,25.1S353.3,34.7,353.3,34.7z"/>
			<g id="XMLID_11476_">
				<path id="XMLID_12102_" class="st0" d="M310.9,89.5c-0.1,0.2-0.2,0.4-0.2,0.7c-0.2,0.9-0.4,1.8,0.6,2.8c2.5,2.2,3.2-2.9,3.2-2.9
					l0.4-5.7c0,0,0.8-12.1-1.1-19.2c0,0-5.6,10.5-5.2,16.9c0,0.8,0.1,1.4,0.4,2.1C309.3,84.8,311.2,88.4,310.9,89.5z"/>
				<path id="XMLID_12101_" class="st0" d="M317.9,31.8c0,0,1.3,7.1-1.1,14.9c0,0-8.4-3.8-4.5-16.4c1.2-4.1-1-4.9,1.3-7.2
					c2.5-2.2,3.2,2.9,3.2,2.9L317.9,31.8z"/>
			</g>
		</g>
		<g id="XMLID_11471_">
			<path id="XMLID_11475_" class="st6" d="M276.8,40.1c0,0-2.5-19.2-9.5-8.5C260.4,42.3,276.8,40.1,276.8,40.1z"/>
			<path id="XMLID_11474_" class="st6" d="M282.5,37.3c0,0,0.8-15.8-7.3-8.6c-8.2,7.3,0.2,20.3,3.7,21.4S282.5,37.3,282.5,37.3z"/>
			<path id="XMLID_11473_" class="st6" d="M278.4,69c0,0,2.6-7.7-7.2-6.4s-8.1,14.7-5.3,15.5C268.7,78.9,273.4,80.2,278.4,69z"/>
			<path id="XMLID_11472_" class="st6" d="M281,62.4c0,0,2.8-22.5-8-0.3S277.6,88,281,62.4z"/>
		</g>
		<g id="XMLID_11467_">
			<path id="XMLID_11470_" class="st0" d="M267.4,42.3c0,0-11.7,11.8,0,18.3"/>
			<path id="XMLID_11469_" class="st0" d="M269.3,45c0,0,3.5,3.2,0,5.6"/>
			<path id="XMLID_11468_" class="st0" d="M269.3,56.3c0,0,3.5-3.2,0-5.7"/>
		</g>
	</g>
	<path id="XMLID_11465_" class="st0" d="M283,142.2c0.9-0.3,1.7-0.9,2.5-2.2"/>
	<path id="XMLID_11464_" class="st0" d="M251.3,135.3c0,0,0.2,1.1,1,2.1"/>
	<path id="XMLID_11463_" class="st0" d="M258.4,144.8c0.2,0.1,0.5,0.3,0.9,0.4"/>
	<path id="XMLID_11462_" class="st2" d="M231.5,287.7c0,0,2.8-93.9-1.7-107.4"/>
</g>
</svg>
