<?xml version="1.0" encoding="utf-8"?>
<!-- Generator: Adobe Illustrator 22.1.0, SVG Export Plug-In . SVG Version: 6.00 Build 0)  -->
<svg version="1.1" id="Layer_1" xmlns="http://www.w3.org/2000/svg" xmlns:xlink="http://www.w3.org/1999/xlink" x="0px" y="0px"
	 viewBox="0 0 168.1 270.5" style="enable-background:new 0 0 168.1 270.5;" xml:space="preserve">
<style type="text/css">
	.st0{opacity:0.1;fill:#231F20;stroke:#231F20;stroke-miterlimit:10;enable-background:new    ;}
	.st1{fill:#A36B78;stroke:#584C4F;stroke-width:2;stroke-linecap:round;stroke-miterlimit:10;}
	.st2{fill:#584C4F;stroke:#584C4F;stroke-width:2;stroke-linecap:round;stroke-miterlimit:10;}
	.st3{fill:#FFD767;stroke:#584C4F;stroke-width:2;stroke-miterlimit:10;}
	.st4{fill:none;stroke:#584C4F;stroke-width:2;stroke-linecap:round;stroke-miterlimit:10;}
	.st5{fill:#B66C7E;stroke:#584C4F;stroke-width:2;stroke-miterlimit:10;}
	.st6{opacity:0.5;fill:#FFFFFF;stroke:#584C4F;stroke-width:2;stroke-miterlimit:10;enable-background:new    ;}
	.st7{fill:#FFFFFF;stroke:#584C4F;stroke-width:2;stroke-linecap:round;stroke-miterlimit:10;}
</style>
<g id="Layer_5">
</g>
<g id="Layer_3">
</g>
<g>
	<g>
		<g>
			<path class="st0" d="M15.7,153.6c-0.1,0.7-0.2,1.3-0.2,2v0.1c-0.2,1.4-0.3,2.7-0.4,4c0,0.5-0.1,0.9-0.1,1.4
				c-0.1,0.9-0.1,1.8-0.2,2.6c0,0.5-0.1,1-0.1,1.6c0,0.8-0.1,1.6-0.1,2.3c0,0.5,0,1.1,0,1.6c0,0.7,0,1.4,0,2.2c0,0.5,0,1.1,0,1.6
				c0,0.7,0,1.4,0,2c0,0.5,0,1,0.1,1.6c0,0.7,0.1,1.3,0.1,1.9c0,0.5,0.1,1,0.1,1.5c0.1,0.6,0.1,1.3,0.2,1.9c0,0.5,0.1,1,0.2,1.5
				c0.1,0.6,0.1,1.2,0.2,1.8c0.1,0.5,0.1,0.9,0.2,1.4c0.1,0.6,0.2,1.2,0.3,1.8c0.1,0.4,0.1,0.9,0.2,1.3c0.1,0.6,0.2,1.2,0.4,1.8
				c0.1,0.4,0.2,0.8,0.2,1.2c0.1,0.7,0.3,1.3,0.5,2c0.1,0.3,0.2,0.6,0.2,0.9c0.2,0.8,0.5,1.7,0.7,2.5c0,0.1,0.1,0.2,0.1,0.3
				c0.3,0.9,0.6,1.8,0.9,2.7c0.1,0.2,0.1,0.3,0.2,0.5c0,0.1,0,0.1,0.1,0.2h-0.1l0,0c-0.3-0.1-0.4-0.2-0.4-0.2s-1.9,16,0.7,24.4
				c0.3,2.9,1.5,6.4,4,11c0,0.1,0,0.1,0,0.1l0,0c0.5,1,1.1,1.9,1.8,3c6,9.5,15,16,24.2,20.2c0.7,3.9,4.1,7.7,9,5.7
				c0,0,0.7-0.6,1.5-1.6c38.6,16.7,50.9-7.3,54.6-27.9c3.6-0.1,6.9-0.3,10-0.5c31.9-2,23.4-14.2,23.4-14.2l0,0c-0.9-1.8-3.8-3.5-7-5
				c-2.7-1.4-6.3-2.9-11-4.1c7.6-14.3,10.5-31.5,10.9-48.6c6.8,6.3,14.9,10.6,15.2-3.6c0.6-25-6.2-52-15.1-48.6
				c-1.8,0.7-3.3,1.6-4.4,2.5c-2-11.2-4.1-20-5-24.7c-1.1-5.6-3.3-11.6-6.5-17.4l0,0l0,0c-0.2-0.4-0.5-0.8-0.7-1.2
				c-0.1-0.2-0.3-0.5-0.4-0.7c-0.2-0.4-0.5-0.8-0.7-1.2c-0.2-0.2-0.3-0.5-0.5-0.7c-0.5-0.7-1-1.5-1.5-2.2c-0.1-0.2-0.3-0.4-0.4-0.5
				c-0.3-0.3-0.5-0.7-0.8-1c-0.2-0.3-0.4-0.5-0.6-0.8c-0.3-0.3-0.5-0.7-0.8-1c-0.2-0.3-0.5-0.6-0.7-0.8c-0.3-0.3-0.5-0.6-0.8-0.9
				c-0.5-0.5-1-1-1.5-1.5c-0.3-0.3-0.5-0.5-0.8-0.8s-0.6-0.6-0.9-0.9c-0.3-0.3-0.6-0.5-0.9-0.8s-0.7-0.6-1-0.9
				c-0.3-0.2-0.5-0.5-0.8-0.7c-0.6-0.5-1.2-0.9-1.8-1.4c-0.2-0.2-0.5-0.4-0.7-0.5c-0.4-0.3-0.9-0.6-1.3-0.9
				c-0.3-0.2-0.6-0.4-0.9-0.6c-0.4-0.3-0.9-0.6-1.4-0.8c-0.3-0.2-0.5-0.3-0.8-0.5c-0.4-0.3-0.9-0.5-1.3-0.7l0,0
				c0.3-0.8,0.4-1.8,0-2.8c0-3.9,0-7.3-0.1-8.9c-0.1-22.5-33.5-40.4-46.7-11.1l-3.9,13.9c-0.1,1.6,0,4.3,0.2,7.3
				C42.3,52.2,35.7,57,31.2,65.4c-0.3,0.6-0.6,1.2-0.9,1.8c-0.4,0.9-0.9,1.9-1.3,2.9c-1.2,2.9-2.2,6.2-3.1,10
				c-0.6,2.4-1.1,4.9-1.6,7.6c-0.9,4.7-1.7,9.9-2.4,15.7c-0.6-0.4-1.3-0.8-2.1-1.2c-8.6-4.1-17.7,22.2-19.2,47.2
				C-0.7,163.7,8.2,159.5,15.7,153.6z"/>
			<g id="XMLID_5029_">
				<path id="XMLID_5142_" class="st1" d="M63.3,30.2C63,35,64.6,48.7,64.9,53.1c0.3,4.1,0.9,7.5,1.7,10.5
					c-15.8,26.9,27.8,57.8,43.3,23.2c4.8-10.8,4.2-31.7,4.1-35.2c-0.1-4.6-0.2-20.2-0.2-24.2C113.7,4.9,80.3-13,67.1,16.3"/>
				<g id="XMLID_5030_">
					<g id="XMLID_5114_">
						<path id="XMLID_5123_" class="st1" d="M142.2,142.3c0,0,24.2,32.1,24.8,7c0.6-25-6.2-52-15.1-48.6c-8.9,3.4-9.1,10.8-9.1,10.8
							"/>
						<path id="XMLID_5116_" class="st1" d="M150.2,140.6c0,0,9.5,14.7,11.8,7.8"/>
						<path id="XMLID_5115_" class="st1" d="M146.6,130.4c0,0,13.9,3.6,11.9-4.4s-7-13.4-9.4-4.5"/>
					</g>
					<path id="XMLID_5113_" class="st2" d="M69.6,254.8c0,0,9.1-8-2.2-11.6C56.1,239.6,59.8,258.9,69.6,254.8z"/>
					<path id="XMLID_5112_" class="st1" d="M88.8,235.4c0,0-72.5-5.2-62.4-90.8s7.4-101.3,48.3-110c40.9-8.7,63.3,21.2,67.8,44
						S179.8,224.1,88.8,235.4z"/>
					<path class="st0" d="M57.9,224.8c-8-13.3-12.6-32-9.5-58.2C58.5,81,55.8,65.3,96.7,56.6c15.9-3.4,28.9-0.9,39.3,4.6
						C126,43.4,105.6,28,74.7,34.6c-40.9,8.7-38.2,24.4-48.3,110C20.9,190.8,39.6,213.6,57.9,224.8z"/>
					<path id="XMLID_5090_" class="st3" d="M30.5,214.9c0.3,2.9,1.5,6.4,4,11c0,0.1,0,0.1,0,0.1l0,0c0.5,1,1.1,1.9,1.8,3
						c8.1,12.7,21.4,20,33.4,23.8c52.1,23.3,57.4-26,57.5-44.7c0-1.8-23.4,0.2-44.8,5.5c-27.1-10.9-52.6-23.1-52.6-23.1
						S27.9,206.5,30.5,214.9z"/>
					<path id="XMLID_5089_" class="st1" d="M76.1,137.2c0,0-12.9-9.7-29.6-3.7"/>
					<path id="XMLID_5088_" class="st1" d="M80.7,130.8c0,0,13.1,16.3,12.6,25.3"/>
					<path id="XMLID_5087_" class="st1" d="M107.8,136.7c0,0,20.9-4.5,25.3-2.6"/>
					<g id="XMLID_5084_">
						<path id="XMLID_5086_" class="st1" d="M103.5,129c-0.5-4.3-1.9-7.3-4.7-7.8c-1.6-0.3-2.9-0.2-3.9,0c-0.9,0.2-1.6,0.5-2.2,0.8"
							/>
						<path id="XMLID_5085_" class="st1" d="M89.4,180.7c0,0,10-26.6,12.8-45.4"/>
					</g>
					<path id="XMLID_5083_" class="st1" d="M112.1,42c0,0,8.6-7.9-9.2-11.4c-17.8-3.5-29.5,1.2-26,7.9"/>
					<path id="XMLID_5082_" class="st3" d="M140.1,201.3c0,0-27.7,11.3-60.3,4.1s-49.5-14.8-49.5-14.8c10.3,36,73.5,36.3,105.4,34.2
						c31.9-2,23.4-14.2,23.4-14.2S154.2,204.7,140.1,201.3z"/>
					<path id="XMLID_5081_" class="st1" d="M140.1,201.3c0,0,55,15.3-21.1,18.6c-76.1,3.3-88.7-29.3-88.7-29.3
						S100.6,221.1,140.1,201.3z"/>
					<g id="XMLID_5075_">
						<path id="XMLID_5080_" class="st1" d="M108.2,126.8c0,0,9.6-11.2-5.9-14.4"/>
						<path id="XMLID_5079_" class="st1" d="M81.6,126.8c0,0-10.2-8.5,4.2-14.4"/>
						<path id="XMLID_5078_" class="st1" d="M86.3,117.4c2.2-0.5,4.4,2.8,2.9,2.4s-3.6,2.6-5.3,0"/>
						<path id="XMLID_5077_" class="st1" d="M102.2,118.4c-1.2-0.7,1.7-2.4,1.7-2.4c2.9,0.2,3.6,2.5,2.1,3.7"/>
						<path id="XMLID_5076_" class="st1" d="M93.4,132.6c0,0-3,0.1-3.7-1"/>
					</g>
					<path id="XMLID_5074_" class="st1" d="M113.9,119.9c0,0,8.4-4.2,10.8-5.1"/>
					<line id="XMLID_5073_" class="st4" x1="138.6" y1="116.3" x2="135.1" y2="114.8"/>
					<path id="XMLID_5072_" class="st1" d="M75.6,122.2c0,0-9.8-4.7-10.8-4.6"/>
					<path id="XMLID_5071_" class="st1" d="M33.7,164.2c0,0-1.4-2.9,0.8-4.1"/>
					<path id="XMLID_5070_" class="st1" d="M41.4,135.1c0,0,0.6-2.6,1.4-3.5"/>
					<path id="XMLID_5069_" class="st1" d="M40.5,185.6c0,0-1.1,4.9,0,4.9"/>
					<path id="XMLID_5068_" class="st1" d="M111.2,202c0,0-4.6-0.6-4.1-1.4"/>
					<path id="XMLID_5067_" class="st1" d="M83.2,193.4c0,0-5.3,0.8-5.6,1.8"/>
					<path id="XMLID_5066_" class="st1" d="M123.3,63c0,0-3.8-0.8-4.1-1.7"/>
					<path id="XMLID_5065_" class="st1" d="M60.8,61.4c0,0,3.5-1.7,4.5-3.3"/>
					<path id="XMLID_5064_" class="st1" d="M133.1,146.6"/>
					<path id="XMLID_5063_" class="st1" d="M107.8,143.6"/>
					<line id="XMLID_5062_" class="st4" x1="51.3" y1="115.4" x2="47.6" y2="116.4"/>
					<path id="XMLID_5061_" class="st1" d="M36.6,133.2c0,0-26.9,29.9-25.3,4.9c1.5-25,10.6-51.3,19.2-47.2s8.1,11.6,8.1,11.6"/>
					<path id="XMLID_5060_" class="st1" d="M28.8,130.8c0,0-10.7,13.8-12.4,6.7"/>
					<path id="XMLID_5059_" class="st1" d="M33.3,121c0,0-14.1,2.4-11.4-5.4c2.7-7.8,8.1-12.7,9.8-3.7"/>
					<g id="XMLID_5047_">
						<path id="XMLID_5058_" class="st5" d="M103.9,97.5c0,0-49.4,4.8-31.5-35.1S145.4,69.8,103.9,97.5z"/>
						<path id="XMLID_5057_" class="st5" d="M102.1,57.6c4.9,2.1,10.5-12.8,15.6,1.1c5.2,13.9-26.2,1.1-26.2,1.1s-9.9-3.3-13.6-5"/>
						<path id="XMLID_5056_" class="st6" d="M77.2,54.5c-1.8,2.1-3.5,4.7-4.9,7.9c-17.9,39.9,31.5,35.1,31.5,35.1
							c15.4-10.3,17.5-23.2,13.1-33.4c-5.3,3.9-25.5-4.3-25.5-4.3s-9.9-3.3-13.6-5"/>
						<g id="XMLID_5049_">
							<path id="XMLID_5055_" class="st7" d="M115.4,87.9c0,0-7.4,3-6.6-4.7C109.6,75.6,120.5,81.4,115.4,87.9z"/>
							<path id="XMLID_5054_" class="st7" d="M107.4,87.9c0,0-7.4,3-6.6-4.7C101.6,75.6,112.5,81.4,107.4,87.9z"/>
							<path id="XMLID_5053_" class="st7" d="M99.4,87.9c0,0-7.4,3-6.6-4.7C93.6,75.6,104.5,81.4,99.4,87.9z"/>
							<path id="XMLID_5052_" class="st7" d="M91.4,87.9c0,0-7.4,3-6.6-4.7C85.6,75.6,96.4,81.4,91.4,87.9z"/>
							<path id="XMLID_5051_" class="st7" d="M83.3,87.9c0,0-7.4,3-6.6-4.7C77.6,75.6,88.4,81.4,83.3,87.9z"/>
							<path id="XMLID_5050_" class="st7" d="M75.3,87.9c0,0-7.4,3-6.6-4.7C69.6,75.6,80.4,81.4,75.3,87.9z"/>
						</g>
						<path id="XMLID_5048_" class="st5" d="M107.2,87.7c0,0-6.9,2.7-6.6-3.9h-0.1c0.1,1.2-0.3,2.5-1.3,3.9c0,0-6.9,2.7-6.6-3.9
							h-0.1c0.1,1.2-0.3,2.5-1.3,3.9c0,0-6.8,2.7-6.6-3.9h-0.1c0.1,1.2-0.3,2.5-1.3,3.9c0,0-6.9,2.7-6.6-3.9h-0.1
							c0.1,1.2-0.3,2.5-1.3,3.9c0,0-1.7,0.7-3.4,0.5c9,11.2,31.9,9,31.9,9c4.3-2.9,7.5-6,9.9-9.1c-2,0.4-5.2,0.3-5.1-4.3l0,0
							C108.6,85,108.3,86.3,107.2,87.7z"/>
					</g>
					<g id="XMLID_5042_">
						<path id="XMLID_5046_" class="st2" d="M111.1,92.8c0,0,26.6-3.5,11.8-13.1S111.1,92.8,111.1,92.8z"/>
						<path id="XMLID_5045_" class="st2" d="M115.1,100.6c0,0,21.9,1.2,11.8-10.1s-28.2,0.3-29.6,5.1
							C95.9,100.4,115.1,100.6,115.1,100.6z"/>
						<path id="XMLID_5044_" class="st2" d="M71.3,95c0,0,10.7,3.6,8.8-10c-1.8-13.5-20.3-11.2-21.4-7.3
							C57.6,81.6,55.8,88.1,71.3,95z"/>
						<path id="XMLID_5043_" class="st2" d="M80.4,98.6c0,0,31.1,3.9,0.4-11.1S44.9,93.9,80.4,98.6z"/>
					</g>
					<path id="XMLID_5041_" class="st1" d="M54.5,245.8c0,0-2.5-2-1.1-4.1"/>
					<line id="XMLID_5040_" class="st4" x1="119.5" y1="225.5" x2="118" y2="229.1"/>
					<g>
						<path id="XMLID_5039_" class="st7" d="M129.5,190.9c0,0-49.2,4.8-31.4-34.9C115.9,116.4,170.8,163.3,129.5,190.9z"/>
						<path id="XMLID_5038_" class="st2" d="M134.1,163.6c0,0-7.4,3-6.5-4.6C128.4,151.3,139.2,157,134.1,163.6z"/>
						<path id="XMLID_5037_" class="st7" d="M74.9,185.4c0,0,36.1-31.7-8.8-46.2C21.1,124.7,35.6,201.6,74.9,185.4z"/>
						<path id="XMLID_5036_" class="st2" d="M49.8,159.2c0,0-7.4,3-6.5-4.6C44.1,146.9,54.9,152.6,49.8,159.2z"/>
						<path id="XMLID_5035_" class="st2" d="M71.9,191.8c0,0,16.6-1.9,4.7-13.6c-11.8-11.7-34.7-0.4-33.4,3.7
							C44.5,186.1,46.6,193,71.9,191.8z"/>
						<path id="XMLID_5034_" class="st2" d="M120.2,198.8c0,0,25.6,1.5,13.7-12.8s-32.8,0.3-34.5,6.4S120.2,198.8,120.2,198.8z"/>
						<g id="XMLID_5031_">
							<path id="XMLID_5033_" class="st1" d="M44.8,140.5c-0.3-0.1-0.6-0.2-1-0.3c-1.3-0.3-2.4-0.5-3.7,0.9c-3.1,3.4,4,4.4,4,4.4
								l7.8,0.6c0,0,16.5,1.1,26.3-1.4c0,0-14.4-7.7-23.3-7.1c-1,0.1-2,0.2-2.9,0.6C51.3,138.3,46.3,140.9,44.8,140.5z"/>
							<path id="XMLID_5032_" class="st1" d="M124.2,150.1c0,0-9.7,1.8-20.4-1.5c0,0,5.3-11.5,22.5-6.2c5.6,1.7,6.8-1.5,9.9,1.9
								s-4,4.4-4,4.4L124.2,150.1z"/>
						</g>
					</g>
				</g>
			</g>
		</g>
	</g>
</g>
</svg>
