<?xml version="1.0" encoding="utf-8"?>
<!-- Generator: Adobe Illustrator 22.1.0, SVG Export Plug-In . SVG Version: 6.00 Build 0)  -->
<svg version="1.1" id="Layer_1" xmlns="http://www.w3.org/2000/svg" xmlns:xlink="http://www.w3.org/1999/xlink" x="0px" y="0px"
	 viewBox="0 0 247.1 271.1" style="enable-background:new 0 0 247.1 271.1;" xml:space="preserve">
<style type="text/css">
	.st0{fill:#80D0DF;}
</style>
<path class="st0" d="M247.1,271c-4.1-2.4-7.6-6.1-13-5.1c-1.9,0.3-4,0.1-6-0.1c-1.3-0.1-3.3-0.5-3.2-1.8c0.4-4.8-2.6-5.7-6.2-6.6
	c-1.6-0.4-2.8-2.2-4.2-3.5c-1.2-1.1-2.3-2.8-3.7-3.3c-8.5-3.2-12.6-11.3-19-16.8c-6-5.2-12.3-10.1-20.6-10.8c-4-0.3-4.8-2.8-5.2-6
	c-0.7-6.1-2.3-6.9-7.6-4c-3.5,1.9-5.3,0.3-6.5-2.8c-1.8-4.2-3.3-8.6-9.4-7.6c-1.5,0.2-2.5-1.2-2.1-2.7c1-3.7-0.9-4.7-4.1-5.1
	c-0.9-0.1-2.4-0.9-2.5-1.4c-0.5-7.7-8.7-9.6-11.6-15.6c-0.7-1.5-1.8-2.8-2.3-4.4c-1.3-4.7-4-7.9-8.7-9.5c-2.2-0.8-3.9-2.3-5.1-4.5
	c-2.3-4.3-5.2-7.7-10.9-7c-2.1,0.3-2.1-1.7-2.3-3.2c-0.2-2,0.4-4.3-1.3-5.7c-6.2-5-8.4-12.5-12.7-18.6c-2.8-4-6.3-7.4-7.8-12.4
	c-0.6-2-3.3-2.9-5.4-3.1c-7.6-0.5-11.4-3.6-12.9-10.9c-0.2-0.9-0.5-2.3-1.2-2.6c-5.9-2.3-5.2-8-6.5-12.6c-0.6-2-0.7-4.3-2.9-4.8
	c-4.1-0.8-5.8-3.6-5.9-7c-0.3-6.8-6.8-10-8.7-16c-0.7-2.3-1.3-4.7-2.1-7c-0.6-1.9-1.3-4-3-5.1c-3.1-2-3.9-4.7-3.6-8.1
	c0.2-3-0.4-4.8-4.4-4.6c-5.3,0.3-5.7-5-5.1-7.9C10.6,17.3,9,13.3,6,9.5c-2.3-3-2.9-7-5.9-9.5c0,88.9,0,177.8-0.1,266.7
	c0,3.6,0.7,4.4,4.3,4.4C85.3,271,166.2,271,247.1,271z"/>
<g>
	<path class="st0" d="M120.1,99c3,2.1,5,1.3,5.9,2.8c-4,1.8-4,1.7-7.9-1.3c-2-1.5-3,1-4.4,1.8c0.3,1.8,2.4,1.2,3,3
		c-1.9,0.5-4.3,0.8-2.4,3.9c0.8,1.3,0.2,2.8-1.8,1.4c-1.5-1-2.6-0.5-3.1,1c-0.7,2.1,1,2.7,2.5,2.9c6.4,0.9,12.8,1.6,19.2,2.5
		c1.6,0.2,4.5-0.9,4.3,1.7c-0.1,2.4-3,2.3-4.9,2.1c-4.4-0.6-8.8-1-13.3-1.3c-3.4-0.2-7,1.7-10.3-1c-0.8-0.7-2.4,0.9-2.9,2.2
		c-0.6,1.5-0.3,2.9,0.7,4.2c4,5.2,7.5,9.6,15.4,10.7c5.2,0.7,9.5,0.1,14-1.1c8.1-2.1,11.6,0.1,15.1,8.8c0.8,2-0.4,4.6,2.3,6.2
		c1.7,1-0.4,1.8-1,2.5c-4.2,4.6-4,6.3,0.9,10.4c1.9,1.6,3.4,3.5,5.2,5.2c2,1.9,3.8,4.8,7,1.3c0.7-0.8,1.9-0.7,2.5,0.5
		c0.6,1.3,1,2.7-0.5,3.5c-2.8,1.5-1.8,3.9-0.3,4.7c3,1.6,5.2,4.4,8.9,5.3c7.3,1.8,10.7,8.7,15.5,13.5c1.1,1.1,2.1,2.6,3.5,3.2
		c8.2,3.4,13.6,11.3,22.5,13.8c2.9,0.8,5.1,1.5,7.8-0.5c2.5-1.9,5.6-2.4,8.4-0.5c2.6,1.8,4.2,4.4,3,7.7c-0.6,1.7,0.5,2.3,1.4,3.3
		c4.3,4.5,4.9,9.6,1.8,14.4c-2.4,3.7-9.1,5.2-14.1,3.6c-10-3.2-18.4-8.6-26.1-15.6c-4.5-4.1-11.4-4.3-16.4-8.1
		c-1-0.8-2.4-0.9-3.2-2.2c-4.1-6.2-10.8-8.9-16.6-12.8c-3.7-2.5-8.3-0.8-12-3.1c-1.1-0.7-2.9,0.2-3.6,1.9c-0.8,1.7-0.8,3.9,0.4,4.7
		c6.7,4.2,8.6,10.6,9.9,17.8c0.8,4.2,1,7.9,0.4,12.2c-1.5,10.7-5.7,18.2-17.5,19.3c-1.4,0.1-3.4,1.4-4,2.7c-2.2,5-5.4,8.4-10.6,10.8
		c-4.3,1.9-8.2,2.4-10.5-2.2c-4.4-8.8-8.6-18-9.9-27.6c-1.5-10.7-6.3-19.1-11.9-27.9c-4.9-7.8-11.5-14.7-14-24
		c-0.6-2.3-1.6-4.3,1-6.6c3.3-2.8,1-6.4-0.8-9c-6.2-9.3-9.9-19.8-15.1-29.6c-1.8-3.4-3.2-6.4-7.8-3.4c-2.3,1.5-4.5,0.9-6.2-1.8
		c-2.3-3.8-7-6.5-4.7-12.2c0.5-1.3-0.7-2.5-2-3c-9-3.5-14.3-11.2-20.2-18.1c-3.3-3.9-7-7.6-9.7-11.9C8.9,86.1,5.5,80,3,73.6
		c-1.2-3.1,1.4-7,2.8-10.2c1.8-4.3,2.3-8.5-0.5-12.2c-5.2-6.8-5.1-15.4-8.4-22.7c-1.1-2.4-1.6-5.1-2.6-7.5C-7.5,16.2-4.9,12.3-2.6,9
		c2.5-3.7,8.4-2.7,11,1c2.1,3,4,6.1,6.1,9.1c2,3,4.2,4.1,7,0.6c2.9-3.7,6.4-5.9,11.5-5.8c4.1,0.1,7.2,0.4,9.4,4.7
		c1,2,2.7,5.6,6.8,4.1c1.2-0.4,1.3,1.1,1.5,2.1c1.8,7.4,5.3,14.2,8.4,21.1c3.9,8.7,6.3,17.8,7.2,27.3c0.5,5.2,3.1,7.4,8.1,6
		c3.8-1.1,7.5-2.6,11.3-3.9c6.8-2.4,13-1.8,19.4,1.9c6.2,3.6,13.1,6.1,19.8,9.1c2.2,1,4.6,0.4,6.9,0.1c9.5-1.1,18.8-3.5,28.4-3.2
		c2.9,0.1,5.4-1.6,8.1-2.5c3.2-1.1,5.4,0.2,6.4,3c1,2.9-0.5,5-3.5,5.9c-1.3,0.4-2.5,1.2-3.8,1.2c-11.8-0.1-23.2,3.8-34.9,4.1
		C128,95,125.5,98.9,120.1,99z M111.4,87c-5.7-1.4-7.3,5-11.5,6.9c-1.9,0.9-4.4,3.4-2.9,5.5c1.3,1.8,4.2,3.1,7.2,1.9
		c3.1-1.2,6.3-2,9.3-3.4c3.3-1.5,3.3-4.8,2.8-7.7C116,87.9,114.5,86.4,111.4,87z"/>
	<path class="st0" d="M185.8,182c0.9,0.3,1.7,1.4,1.9-0.1c0.1-1.1-1.2-3,1.2-2.7c1.8,0.3,3.1,1.8,4.2,3.3c0.2,0.3,0.3,1,0.1,1.3
		c-1.7,3-1.5,4.4,1.8,5.9c2.8,1.3,4.4,3.5,6.1,5.7c0.8,1,1,2.7-0.2,3.6c-1.1,0.8-2.3-0.1-2.9-1.1c-2.2-4-5.2-6.6-9.7-7.6
		c-2-0.5-3.8-2.1-4.8-4.2C182.4,183.6,182.5,181.7,185.8,182z"/>
	<path class="st0" d="M183,262.9c-0.2,0.3-0.4,0.8-0.6,0.8c-4.8,0.5-2.4,2.3-0.8,4.2c0.8,1,2.9,1.7,1.2,3.5
		c-1.5,1.5-2.6-0.1-3.9-0.5c-7.5-2.7-5-10-7-15.2c-0.6-1.5,1.1-2.1,2.1-1c2.5,2.8,4.7,5.8,8.5,7C182.7,261.7,182.8,262.5,183,262.9z
		"/>
	<path class="st0" d="M198.4,293.5c-4.3-3.2-7.7-6.9-9.6-11.7c-0.7-1.9-0.6-4.2,1.9-4.9c2.4-0.8,4,0.8,4.6,2.8
		C196.5,284.2,197.4,288.9,198.4,293.5z"/>
	<path class="st0" d="M189,173.8c-2.9,0.6,1.5,3.6-1.1,4c-2.1,0.4-3.1-1.3-3.7-3.3c-0.6-2.3-3-2.4-4.6-3.4c-1-0.6-2.1-1.3-1.8-2.7
		c0.2-1.3,1.3-1.8,2.5-2.2c1.2-0.4,2.7-0.4,2.9,1c0.4,2.9,2.3,3.8,4.6,4.6C188.6,172.1,189.1,172.7,189,173.8z"/>
	<path class="st0" d="M213.7,207.2c-6.2-5-6.4-7.6-1.7-14.4c0.9-1.3,1.7-0.8,2.3-0.1c1,1.3,1.8,2.7,2.6,4.1l0.1-0.1
		c-4.3,2.5-5.4,5.8-3.4,10.4L213.7,207.2z"/>
	<path class="st0" d="M127.4,126.7c-4.7-1.3,0.5,3.6-3.1,2.7c-2.3-0.6-5.5,0-5.9-3.5c-0.2-1.7,0.1-4,2.8-3.7
		C123.7,122.5,124.9,124.6,127.4,126.7z"/>
	<path class="st0" d="M161.2,222.7c3.1,3.8,2.9,7.9,2.1,12.1c-0.1,0.7-0.4,1.8-1.5,1.6c-1.2-0.3-2.5-1.9-2-2.4
		C163.1,230.5,160.4,226.5,161.2,222.7z"/>
	<path class="st0" d="M234.5,187c-1.5-0.1-3.7,0.1-3.8-2c-0.1-2.4,2.3-2.5,4-2.6c1.6-0.1,3.7,0.1,3.7,2.2
		C238.4,186.8,236.3,186.9,234.5,187z"/>
	<path class="st0" d="M170.1,169.9c2,0.6,3.5,1.8,3.6,4.1c0,1.3-0.7,2.5-2.1,1.9c-1.8-0.8-3.8-1.7-3.9-4.1
		C167.6,170.3,168.7,169.9,170.1,169.9z"/>
	<path class="st0" d="M161.9,257.5c-2.1-2.2-2.7-4.1-1.7-6.3c0.1-0.2,1-0.3,1.2-0.1C163,252.8,162.8,254.7,161.9,257.5z"/>
	<path class="st0" d="M217.7,184c0,1.3-0.3,2.2-1.5,2.3c-1.3,0.1-2.3-0.4-2.5-1.7c-0.2-1.1,0.7-1.9,1.6-2.1
		C216.6,182.3,217.6,182.8,217.7,184z"/>
	<path class="st0" d="M216.9,196.8c1.2,0.3,0.5,2.1,1.8,2.3l-0.1-0.1c-0.4-0.9-3.6,0.2-1.6-2.3C217.1,196.7,216.9,196.8,216.9,196.8
		z"/>
	<path class="st0" d="M218.8,199.1l0,0.1c0,0-0.1-0.2-0.1-0.2C218.7,199,218.8,199.1,218.8,199.1z"/>
	<path class="st0" d="M213.6,207.1l0.2,0C213.8,207.1,213.7,207.2,213.6,207.1C213.7,207.2,213.6,207.1,213.6,207.1z"/>
	<path class="st0" d="M111.4,87c3.1-0.6,4.6,0.9,4.9,3.3c0.5,3,0.5,6.2-2.8,7.7c-3,1.4-6.3,2.2-9.3,3.4c-2.9,1.1-5.9-0.2-7.2-1.9
		c-1.6-2.1,1-4.6,2.9-5.5C104.1,92,105.7,85.6,111.4,87z"/>
</g>
</svg>
