<?xml version="1.0" encoding="utf-8"?>
<!-- Generator: Adobe Illustrator 22.1.0, SVG Export Plug-In . SVG Version: 6.00 Build 0)  -->
<svg version="1.1" id="Layer_1" xmlns="http://www.w3.org/2000/svg" xmlns:xlink="http://www.w3.org/1999/xlink" x="0px" y="0px"
	 viewBox="0 0 346.3 214.7" style="enable-background:new 0 0 346.3 214.7;" xml:space="preserve">
<style type="text/css">
	.st0{opacity:0.1;fill:#231F20;stroke:#231F20;stroke-miterlimit:10;enable-background:new    ;}
	.st1{fill:#FFD767;stroke:#584C4F;stroke-width:2;stroke-miterlimit:10;}
	.st2{fill:#FFFAF2;stroke:#584C4F;stroke-width:2;stroke-miterlimit:10;}
	.st3{fill:none;stroke:#584C4F;stroke-width:2;stroke-miterlimit:10;}
	.st4{opacity:0.1;enable-background:new    ;}
	.st5{fill:#231F20;stroke:#231F20;stroke-miterlimit:10;}
</style>
<path class="st0" d="M88.1,112.7c0,0,0.3-7.1-0.1-12.6c0.7-12.4,0.6-55.5,0.1-77.4c0,0,1-24.4-3.4-17.5c-1.7,2.7-2.3,12.3-2.4,23
	c0,10.7-0.3,44.7,0.2,66.6c0,0-0.3,7.1,0.1,12.6c-0.7,12.4-0.6,55.5-0.1,77.4c0,0-1,24.4,3.4,17.5c1.5-2.3,2.2-10.1,2.3-19.1
	C88.4,171.5,88.5,134.6,88.1,112.7z"/>
<path class="st1" d="M91.1,109.7c0,0,0.3-7.1-0.1-12.6c0.7-12.4,0.6-55.5,0.1-77.4c0,0,1-24.4-3.4-17.5c-1.7,2.7-2.3,12.3-2.4,23
	c0,10.7-0.3,44.7,0.2,66.6c0,0-0.3,7.1,0.1,12.6c-0.7,12.4-0.6,55.5-0.1,77.4c0,0-1,24.4,3.4,17.5c1.5-2.3,2.2-10.1,2.3-19.1
	C91.4,168.5,91.5,131.6,91.1,109.7z"/>
<path class="st0" d="M0.5,81.3C0.9,74.2,1.8,68,8.8,67.9c1.6,0,7.9,0.1,9.3,0c4.7-0.3,12.4,2.4,25.1,10c3.3,2,5.8,3.9,7.7,5.8
	c15.5,15.4-11,27.6-11,27.6c-7,5.7-13.4,7.2-18.2,6.4c-1.9,0-6.1,0.1-7.6,0.1c-10.7,0-15.4-11.1-5.8-18.8C22,88.3-0.2,93.3,0.5,81.3
	z"/>
<g>
	<g>
		<path class="st1" d="M18.3,99c-9.6,7.7-4.9,18.8,5.8,18.8c1.7,0,7.2-0.2,8.3-0.1c4.7,0.6,10.7-1.1,17.4-6.5
			c0,0,33.4-15.3,3.4-33.3c-12.7-7.6-20.4-10.3-25.1-10c-1.4,0.1-7.7,0-9.3,0c-7,0.1-7.9,6.3-8.3,13.4C9.8,93.3,32,88.3,18.3,99z"/>
		<g id="XMLID_498_">
			<path id="XMLID_499_" class="st2" d="M28.5,99.1c13.5-10.8-8.6-5.9-7.9-17.8S23.3,60,53.3,78s-3.4,33.3-3.4,33.3
				C29.7,127.6,14.9,109.9,28.5,99.1z"/>
		</g>
	</g>
	<line id="XMLID_497_" class="st3" x1="37.7" y1="113.8" x2="40.8" y2="112.4"/>
	<path id="XMLID_496_" class="st2" d="M16.6,111.5c0.3,0.9,5,1.6,5,1.6"/>
	<path id="XMLID_495_" class="st2" d="M25.9,93c0.5,0.8,2.9,0.6,2.9,0.6"/>
</g>
<g class="st4">
	<path class="st5" d="M345.2,165.9c-0.3-21.9-10.9-14.8-13.8-12.5c-14.8-5.9-25.6,6.8-25.6,6.8s-0.6,1.4-1.3,3.6
		c-3.5-6.7-10.2-11.1-21.6-8.2c-1.3-2.2-3.9-4.7-9.1-2.9c-1.9,0.7-3.1,2.8-3.9,5.7c-1.5-0.8-3.7-1-6.9,0.1
		c-3.9,1.3-5.9,5.3-6.6,10.2c-2.5-3.9-6.3-7-12.1-8.2c1.9-1.9,3.9-4.1,6.2-6.9c0,0,12.8-8.6,0.7-14.7c-5.9-2.9-13.2,2.5-18.5,9.2
		c-0.1-1.8-0.2-3.6-0.4-5.5c0,0-2.1-12.1-12.3-7.9c-4.9,2-6.3,13.6-5.9,25.5c-5.3-6.3-13.8-10.1-23.1-7.2c-4,1.3-6.8,3.2-8.9,5.4
		c-5.3-5.3-13.1-8.1-21.4-5.4c-3.7,1.2-6.4,2.9-8.4,5c-0.7-0.8-1.4-1.7-2.3-2.5c-4.6-4.4-10-5.6-15.2-4.7
		c-1-32.1-10.6-16.9-14.6-13.9c-5,3.7-10.2,52.1,0.5,56.6c4.2,1.7,7.1,0.9,9-0.8c6.8,1.6,18.8-2.7,21.9-5.4
		c3.7,3.5,15.8,13,30.6,2.1c0.4-0.3,0.7-0.6,1.1-0.9c4.8,4,15.9,10.6,29.2,0.9c2.1-1.6,3.7-3.4,4.9-5.3c0.7,2.3,1.4,3.9,2.2,4.4
		c3.8,2.9,13,17.4,13.9-13.4c4.8-2.4,12.4-3.7,10,13.8c0,0,4.1,7.7,12,4.5c1.5-0.6,2.7-2.5,3.5-5.1c1.6,3.9,3.7,6.5,5.7,6.1
		c3.4-0.7,5.9-2.4,7.3-6.3c0.5,1.1,0.9,1.9,1.4,2.2c3.5,2.2,12.5,14.9,11.3-18.9c4.1-2.7,11-4.7,8.9,14.7c0,0,3.5,8.4,10.3,4.9
		c1-0.5,2-2,2.6-4.1c2.1,2.6,5.1,4.9,9.6,6.3c5.2,1.7,10.2,1.2,14.5-0.7c-1.1,3.9-3.3,7-7.6,8.9c-14.8,6.5,0,12.7,0,12.7
		C350.3,214.4,345.6,191.3,345.2,165.9z M143.6,174.6c0.1,4-3.1,4.8-6.3,3.8c0,0-0.3-0.1-0.7-0.3c-0.5-0.2-1.3-0.4-2.1-0.5
		c0.2-4.1,0.4-7.9,0.5-11.3c0.8,0,1.5-0.1,2.2-0.2c0.6-0.1,1.1-0.2,1.5-0.3c0.1,0,0.1,0,0.2,0c0.9-0.3,1.7-0.2,2.3,0.2
		c1.5,0.9,2.1,3.1,2.1,3.1v0C143.9,171.5,143.6,174.6,143.6,174.6z M164,180.5c-11.9-1.6,4.8-23.8,10.2-9.7
		C179.7,185,164,180.5,164,180.5z M194.3,180.5c-11.9-1.6,4.8-23.8,10.2-9.7C210,185,194.3,180.5,194.3,180.5z M329.5,175.6
		c-5.4,14.1-22.1-8.1-10.2-9.7C319.3,165.9,335,161.5,329.5,175.6z"/>
	<path class="st5" d="M266.3,152.2c14.2-6.1-0.2-14.3-0.2-14.3C256.5,130.4,252.1,158.3,266.3,152.2z"/>
	<path class="st5" d="M298.2,94.4C298.2,94.4,298.2,94.4,298.2,94.4c0-0.1-0.1-0.3-0.1-0.4c0,0,0-0.1,0-0.1
		c-0.1-0.1-0.1-0.3-0.2-0.4c0,0,0-0.1-0.1-0.1c-0.1-0.1-0.1-0.2-0.2-0.3c0,0-0.1-0.1-0.1-0.1c-0.1-0.1-0.2-0.3-0.3-0.4
		c-0.1-0.1-0.1-0.1-0.2-0.2c-0.1-0.1-0.2-0.2-0.3-0.3c-0.1-0.1-0.2-0.1-0.2-0.2c-0.1-0.1-0.2-0.2-0.4-0.3c-0.1-0.1-0.2-0.1-0.2-0.2
		c-0.1-0.1-0.3-0.2-0.4-0.3c-0.1-0.1-0.2-0.2-0.4-0.3c-0.1-0.1-0.2-0.2-0.4-0.2c-0.1-0.1-0.2-0.1-0.3-0.2c-0.2-0.1-0.4-0.2-0.6-0.4
		c-0.1-0.1-0.2-0.1-0.4-0.2c-0.1-0.1-0.3-0.1-0.4-0.2c-0.1-0.1-0.3-0.2-0.4-0.2c-0.2-0.1-0.4-0.2-0.6-0.3c-0.1-0.1-0.3-0.1-0.4-0.2
		c-0.2-0.1-0.4-0.2-0.5-0.2c-0.2-0.1-0.3-0.1-0.5-0.2c-0.2-0.1-0.4-0.2-0.6-0.2c-0.1-0.1-0.3-0.1-0.4-0.1c-0.3-0.1-0.5-0.2-0.8-0.3
		c-0.1,0-0.2-0.1-0.4-0.1c-0.2-0.1-0.4-0.1-0.7-0.2c-0.1,0-0.2-0.1-0.4-0.1c-0.3-0.1-0.6-0.2-0.9-0.2c-0.1,0-0.2-0.1-0.4-0.1
		c-0.3-0.1-0.5-0.1-0.8-0.2c-0.1,0-0.2,0-0.2,0c-0.3-0.1-0.7-0.1-1-0.2c-0.1,0-0.2,0-0.3,0c-0.3,0-0.7-0.1-1-0.1c-0.1,0-0.1,0-0.2,0
		c-0.3,0-0.6-0.1-0.9-0.1c-0.1,0-0.2,0-0.2,0c-0.4,0-0.7,0-1.1,0c-0.1,0-0.1,0-0.2,0c-0.3,0-0.7,0-1,0c0,0-0.1,0-0.1,0
		c-0.4,0-0.7,0.1-1.1,0.1c-0.1,0-0.1,0-0.2,0c-0.7,0.1-1.4,0.2-2.2,0.4c-0.1,0-0.1,0-0.2,0c-0.4,0.1-0.7,0.2-1,0.3c0,0-0.1,0-0.1,0
		c-0.3,0.1-0.7,0.2-1,0.4c0,0,0,0-0.1,0c-0.3,0.1-0.7,0.3-1,0.5c0,0-0.1,0-0.1,0.1c-0.6,0.4-1.3,0.8-1.8,1.3c0,0-0.1,0.1-0.1,0.1
		c-0.6,0.5-1.1,1.1-1.6,1.7c0,0,0,0,0,0c0,0,0,0,0,0c-0.3,0.3-0.5,0.7-0.7,1c0,0,0,0.1-0.1,0.1c-0.5,0.7-0.9,1.6-1.2,2.5
		c0,0,0,0.1-0.1,0.1c-0.2,0.4-0.3,0.9-0.5,1.4c0,0.1,0,0.1-0.1,0.2c-0.3,1-0.5,2-0.6,3.2c0,0.1,0,0.2,0,0.3
		c-0.1,0.6-0.1,1.1-0.2,1.7c0,0.1,0,0.2,0,0.3c0,0.6-0.1,1.3,0,1.9c0,0,0,0,0,0v0c0,0,0,0,0,0.1l0,0c0.6,2,1.7,3.7,3,5.1
		c0.5,0.6,1.1,1,1.6,1.4c3.8,2.9,9.1,4.2,13.8,4.3c0,0,0,0,0,0c0,0.1-0.1,0.2-0.1,0.3c0,0,0,0.1-0.1,0.2c0,0.1-0.1,0.2-0.1,0.3
		c0,0,0,0.1-0.1,0.1c-0.1,0.1-0.1,0.2-0.2,0.3c0,0-0.1,0.1-0.1,0.1c-0.1,0.1-0.2,0.2-0.2,0.2c0,0-0.1,0.1-0.1,0.1
		c-0.1,0.1-0.2,0.1-0.3,0.2c-0.1,0-0.1,0.1-0.2,0.1c-0.1,0.1-0.2,0.1-0.3,0.1c-0.1,0-0.1,0.1-0.2,0.1c-0.1,0-0.3,0.1-0.4,0.1
		c-0.1,0-0.2,0-0.3,0.1c-0.1,0-0.3,0-0.4,0c-0.1,0-0.2,0-0.3,0c-0.2,0-0.3,0-0.5,0c-0.1,0-0.2,0-0.4,0c-0.2,0-0.4,0-0.6-0.1
		c-0.1,0-0.3,0-0.4,0c-0.2,0-0.4-0.1-0.6-0.1c-0.2,0-0.3-0.1-0.5-0.1c-0.2-0.1-0.5-0.1-0.7-0.2c-0.2,0-0.3-0.1-0.5-0.1
		c-0.3-0.1-0.5-0.2-0.8-0.3c-0.2-0.1-0.3-0.1-0.5-0.2c-0.3-0.1-0.6-0.2-1-0.4c-0.2-0.1-0.3-0.1-0.5-0.2c-0.4-0.2-0.8-0.3-1.3-0.5
		c-0.1-0.1-0.2-0.1-0.4-0.2c-0.6-0.3-1.2-0.5-1.8-0.8c0,0-3.1,0.2-5.1,2c-7.2-3.2-8.6-9.8-8.5-18.1l0-0.1c3,0.1,7.6-1,6.7-8.6
		c-0.6-4.9-3.3-6.6-6.3-6.9l0.4-13.8c0,0-14.1-13.5-14.5,11.9c0,3.9-0.2,7.7-0.3,11.5c-3.8-2.8-9.2-4-16.6-2.1
		c-1.3-2.2-3.9-4.7-9.1-2.9c-1.3,0.5-2.3,1.6-3,3.3c-2.5-2-5.6-3.4-9.4-3.7c-9.1-0.9-15.1,2.3-18.9,6.3c0,0,0,0,0,0
		c-1.9-3.2-4.3-17.7-15.8,11.9c-11.1-28.2-13.7-16.1-15.6-12.2c-2.7-3.2-6.6-5.4-11.6-5.9c-15.3-1.5-21.6,8.4-24,14.4
		c0,0-0.5,0.9-0.9,2.7c-0.3,1.1-0.4,1.9-0.3,2.3c-0.2,3.3,0.3,8.2,3.4,14.7c2.5,5.3,8.9,7.2,13.2,7.9c1.2,0.3,2.5,0.4,3.9,0.4
		c0.1,0,0.1,0,0.1,0l0,0c1.5,0,3.1-0.2,4.8-0.6c6.7-1.5,11.3-5.8,13.9-11.1c-0.4-6.1-5.7-6.8-8.8-7.3c-1.7-0.3-3.5,0.8-4.8,1.9
		c-0.1,0.1-0.3,0.2-0.4,0.4c-4.5,3.3-16.4-3.2-10.1-8.1c0,0,1.6-1.7,3.6-2.8c0.2,0.9,0.6,1.9,1.1,3c1.6,3.4,5.5,3.7,9.1,2.8
		c2.2,1.9,5.1,3,7.8,1.1c0.7-0.5,1.3-1,1.8-1.4c2.1,7.3,5.5,15.5,9,19.6c0.4,0.7,1.1,1.4,2,1.8c0.8,0.5,1.5,0.8,2.3,0.8
		c3.2,0,4.8-1.4,5.6-3.1c2-2.5,4-6.3,5.7-10.5c0.5,1.6,1.2,3.4,2.1,5.3c2.5,5.3,8.9,7.2,13.2,7.9c1.2,0.3,2.5,0.4,3.9,0.4
		c0.1,0,0.1,0,0.1,0l0,0c1.5,0,3.1-0.2,4.8-0.6c4.3-1,7.8-3.1,10.4-6c0.5,1.2,1,2.1,1.5,2.4c3.5,2.2,12.5,14.9,11.3-18.9
		c4.1-2.7,11-4.7,8.9,14.7c0,0,3.5,8.4,10.3,4.9c0.6-0.3,1.1-0.9,1.6-1.6c3.4,3.3,8.6,5.2,16.4,5.2c0,0,2.6-1.1,4.5-2.8
		c0.1,0.1,0.2,0.1,0.3,0.2c0,0,0.1,0,0.1,0.1c0.6,0.3,1.3,0.6,2,0.8c0,0,0.1,0,0.1,0c0.4,0.1,0.7,0.3,1.1,0.4c0,0,0,0,0,0
		c0.7,0.2,1.5,0.5,2.3,0.6c0,0,0,0,0,0c0.8,0.2,1.6,0.3,2.4,0.5c0,0,0,0,0,0c2,0.3,4.1,0.4,6.1,0.1c0,0,0,0,0,0
		c2-0.2,3.9-0.8,5.6-1.8c0,0,0,0,0,0c0.7-0.4,1.3-0.8,1.9-1.3c0,0,0,0,0,0c0.9-0.8,1.8-1.7,2.5-2.9c0,0,0,0,0-0.1
		c0.5-0.8,0.9-1.6,1.3-2.5c0,0,0-0.1,0-0.1c0.2-0.4,0.3-0.9,0.5-1.4c0-0.1,0-0.1,0-0.2c0.3-1,0.5-2.1,0.6-3.2c0-0.1,0-0.2,0-0.3
		c0.1-0.6,0.1-1.1,0.2-1.7c0-0.1,0-0.2,0-0.3c0-0.6,0.1-1.3,0-2l0,0v0c-0.6-2-1.7-3.7-3-5.1c-0.5-0.6-1.1-1-1.6-1.4
		c-3.8-2.9-9.1-4.1-13.8-4.3c0,0,0,0,0,0c0-0.1,0.1-0.2,0.1-0.3c0-0.1,0-0.1,0.1-0.2c0-0.1,0.1-0.2,0.1-0.2c0-0.1,0.1-0.1,0.1-0.2
		c0-0.1,0.1-0.1,0.1-0.2c0.1-0.1,0.1-0.1,0.2-0.2c0-0.1,0.1-0.1,0.2-0.1c0.1-0.1,0.1-0.1,0.2-0.2c0,0,0.1-0.1,0.2-0.1
		c0.1-0.1,0.2-0.1,0.3-0.2c0,0,0.1,0,0.2-0.1c0.1-0.1,0.3-0.1,0.4-0.2c0,0,0.1,0,0.1,0c0.2,0,0.3-0.1,0.5-0.1c0,0,0.1,0,0.1,0
		c0.2,0,0.4-0.1,0.7-0.1c0,0,0,0,0,0c2.1-0.1,5.4,0.8,10.4,3.2c0,0,6.5-0.3,6.6-5.5C298.2,95.1,298.2,94.8,298.2,94.4z M209.2,109.8
		c-1.7-0.3-3.5,0.8-4.8,1.9c-0.1,0.1-0.3,0.2-0.4,0.4c-4.5,3.3-16.4-3.2-10.1-8.1c0,0,1.6-1.7,3.6-2.8c0.2,0.9,0.6,1.9,1.1,3
		c1.6,3.4,5.5,3.7,9.1,2.8c1.2,1.1,2.7,1.9,4.2,2c0,0.5,0.1,0.9,0.1,1.4C210.9,110,210,109.9,209.2,109.8z"/>
	<path class="st5" d="M317.4,100.8c-4.3,0.6-7.6,1.4-8.3,2.2c-1.6,2-9.9,7,8.5,7.2c0.1,2.1,0.2,4.3,0.4,6.8c0,0,1.1,6.6,6.4,4.3
		c2.2-1,3-5.8,3.1-11.3c2.1-0.1,4.3-0.2,6.7-0.4c0,0,6.6-1.1,4.3-6.4c-1-2.2-6-3.1-11.7-3.1c-0.6-4.3-1.4-7.6-2.2-8.3
		C322.7,90.3,317.6,81.9,317.4,100.8z"/>
	<path class="st5" d="M114.7,44.9c0.1,3.3,0.3,5.6,0.3,5.6S120.2,85.8,127,83c2.6-1.1,5.4-9.6,7-20.1c5.9,0.1,11.2-2.3,15.2-6.2
		c4.2,8.3,14.8,6.5,14.5-4.9c-0.6-17.1,5.3-18.4,12-15.8c0.4,0.1,0.7,0.3,1.1,0.4c-0.8,8.6,2.9,17.1,2.9,17.1s12.5,14.7,28.9,5.2
		c0.4,0.8,0.9,1.5,1.4,1.9c0.2,0.2,0.4,0.3,0.6,0.4c6.2,3.3,10.2-3.9,10.2-3.9c0.9-3.3,1.4-11.6,1.2-19.5c0.3-0.7,0.6-1.3,1-1.6
		c2.5-2,9.7-1.7,11.5,1.9c0.4,0.8,0.5,1.8,0.3,3c-0.8,3.7-0.9,7.9-0.8,10.8c0,2,0.1,3.7,0.1,4.2c0,1.6,0.7,4.9,6.2,5.6
		c7.3,0.8,8.3-1.5,8.3-6.7c0-2.5,1.4-9.5,0.5-16.6c0.3-0.9,0.7-1.6,1.2-2c2.2-1.7,8-1.7,10.6,0.8c1,1,1.5,2.3,1.1,4.1
		c-0.8,3.7-0.9,7.9-0.8,10.8c0,2,0.1,3.7,0.1,4.2c0,0.9,0.2,2.4,1.4,3.6c0.9,0.9,2.4,1.7,4.8,2c4.1,0.5,6.3-0.1,7.3-1.6
		c5.7,2.6,13.8,3.6,22.9-3.1c17.8-13.1,0.3-43.4-21.4-36.5c-2.9,0.9-5.2,2.2-7.1,3.7c-2.2-1.7-5-3.1-8.6-3.9
		c-8.4-1.8-14.6,0.2-19,3.5l0,0c-0.1-0.1-0.2-0.2-0.4-0.3c-0.3-0.2-0.6-0.4-0.9-0.6c-0.1-0.1-0.3-0.2-0.4-0.2
		c-0.3-0.2-0.7-0.4-1.1-0.6c-0.1-0.1-0.2-0.1-0.3-0.2c-0.4-0.2-0.9-0.4-1.3-0.6c-0.1,0-0.1-0.1-0.2-0.1c-1.1-0.4-2.3-0.8-3.6-1.1
		l0,0c0,0,0,0,0,0c-5.7-1.2-10.4-0.7-14.2,0.8c-0.1-0.1-0.2-0.2-0.3-0.3c-3-2.9-8.2-0.5-11.2,0.7c-0.3,0.1-0.5,0.4-0.7,0.8
		c-4.8-2.8-10.6-3.9-16.9-1.9c-3,0.9-5.3,2.3-7.2,3.8c-1.3-0.9-11.8-7.3-21.4-2.7c-1.6-2-4.3-3.3-9.1-0.5c-2,1.2-3.1,2.5-3.7,3.9
		c-7.8-5.4-14.9-5.2-20.2-3.4c-0.6-0.5-1.2-0.9-1.9-1.2c-10.6-5.2-12,11.8-11.9,22.4C114.7,43.4,114.7,44.1,114.7,44.9z M289.3,38.1
		c5.4,14.1-10.2,9.7-10.2,9.7c-1.2-0.2-2.2-0.6-2.8-1.1c0.1-2.3,0.2-4.8-0.1-7.4C279.1,34,286.2,29.8,289.3,38.1z M203.2,38.1
		c5.4,14.1-10.2,9.7-10.2,9.7C181.1,46.2,197.8,24,203.2,38.1z M131.1,34.4c0,0,1.4-0.4,3.2-0.6c4.3-0.4,10.9,0.3,7.1,10.2
		c-1.5,3.8-3.8,5-6.1,4.6C128.9,47.8,122.4,35.6,131.1,34.4z"/>
	<path class="st5" d="M300.2,75.7c0,0,13,8.9,18.6-6.9c5.6-15.8-8-18.3-7.7-8.7s-3,10.4-6.8,8.9C300.6,67.6,295.3,69.2,300.2,75.7z"
		/>
</g>
<g id="XMLID_4319_">
	<path id="XMLID_4325_" class="st1" d="M323.5,154.2"/>
	<path id="XMLID_4322_" class="st1" d="M334.7,151.9c-17.8-13.1-31.8,3.3-31.8,3.3s-11.4,26.2,10.3,33.1
		C335,195.3,352.5,165,334.7,151.9z M326.5,170.6c-5.4,14.1-22.1-8.1-10.2-9.7C316.3,160.9,332,156.5,326.5,170.6z"/>
	<path id="XMLID_4321_" class="st1" d="M327.8,149.9"/>
	<path id="XMLID_4320_" class="st1" d="M327.8,149c0,0,14.1-13.5,14.5,11.9s5.1,48.5-22.1,48.3c0,0-14.8-6.2,0-12.7
		c7.2-3.2,8.7-9.8,8.5-18.1"/>
</g>
<g id="XMLID_39_">
	<path id="XMLID_41_" class="st1" d="M281,153.2c0,0-1.7-8.5-10.1-5.5c-8.4,3-4.2,35.2-0.4,37.7S285.2,203.3,281,153.2z"/>
	<path id="XMLID_40_" class="st1" d="M279.1,168.7c0,0,14.6-14.4,11.7,12.5c0,0,3.5,8.4,10.3,4.9c6.8-3.5,7.8-46.3-24.9-34.3"/>
</g>
<g id="XMLID_4599_">
	<g id="XMLID_4339_">
		<path id="XMLID_4340_" class="st1" d="M270,164.4c0,0,2.9-15.1-9.9-10.8c-12.8,4.3-5.1,37.5,1.7,36
			C268.6,188.2,271.7,182.8,270,164.4z"/>
	</g>
	<path id="XMLID_4338_" class="st1" d="M263.1,132.9c0,0,14.4,8.2,0.2,14.3C249.1,153.3,253.5,125.4,263.1,132.9z"/>
</g>
<g id="XMLID_13436_">
	<g id="XMLID_4349_">
		<path id="XMLID_4350_" class="st1" d="M247.7,148.7c0,0,12.8-8.6,0.7-14.7c-12.1-6-30.1,22.9-24.3,26.7
			C229.9,164.5,235.9,162.9,247.7,148.7z"/>
	</g>
	<g id="XMLID_4346_">
		<path id="XMLID_422_" class="st1" d="M230.1,145.7c-0.1-2.5-0.3-5.2-0.5-8c0,0-2.1-12.1-12.3-7.9c-10.2,4.3-5.2,50.3-0.5,53.9
			c3.8,2.9,13.3,17.9,13.9-15"/>
		<path id="XMLID_4347_" class="st1" d="M227.1,172.5c0,0,17.1-13.3,13.6,11.6c0,0,4.1,7.7,12,4.5c7.9-3.2,9.1-42.7-29-31.7"/>
	</g>
</g>
<path id="XMLID_42_" class="st1" d="M188.3,148.1c-21.8,6.9-10.3,33.1-10.3,33.1s13.9,16.4,31.8,3.3
	C227.5,171.5,210,141.2,188.3,148.1z M191.3,175.5c-11.9-1.6,4.8-23.8,10.2-9.7C207,180,191.3,175.5,191.3,175.5z"/>
<g id="XMLID_4351_">
	<g id="XMLID_14379_">
		<g id="XMLID_14387_">
			<path id="XMLID_14390_" class="st1" d="M230.9,48.2"/>
			<path id="XMLID_14389_" class="st1" d="M245.1,47.3c-0.1-6.1-0.5-14.4,1.9-16.3c3.1-2.4,13.1-1.5,11.8,4.9
				c-0.8,3.7-0.9,7.9-0.8,10.8c0,2,0.1,3.7,0.1,4.2c0,1.6,0.7,4.9,6.2,5.6c7.3,0.8,8.3-1.5,8.3-6.7c0-5.2,6-30.1-15.2-34.5
				c-14.8-3.1-22.7,5.4-26.1,12.3"/>
			<path id="XMLID_14388_" class="st1" d="M245.9,30.1"/>
		</g>
		<g id="XMLID_14383_">
			<path id="XMLID_14386_" class="st1" d="M203.7,48.2c0.8,4.4,14.3,1,14.3-0.9c-0.1-6.1-0.5-14.4,1.9-16.3c2.5-2,9.7-1.7,11.5,1.9
				c0.4,0.8,0.5,1.8,0.3,3c-0.8,3.7-0.9,7.9-0.8,10.8c0,2,0.1,3.7,0.1,4.2c0,1.6,0.7,4.9,6.2,5.6c7.3,0.8,8.3-1.5,8.3-6.7
				c0-5.2,6-30.1-15.2-34.5S202.1,30,202.1,34.5C202.2,37,202.7,43,203.7,48.2"/>
			<path id="XMLID_14385_" class="st1" d="M218.7,30"/>
			<path id="XMLID_14384_" class="st1" d="M218.7,30c0.4,8.5-0.1,18.4-1.1,22.1c0,0-4,7.2-10.2,3.9s-6.7-38-2.9-39.6s11.3-5,13.1,3"
				/>
		</g>
	</g>
	<g id="XMLID_4358_">
		<path id="XMLID_15187_" class="st1" d="M230.9,48.2"/>
		<path id="XMLID_4294_" class="st1" d="M245.9,33.1c0.3-0.9,0.7-1.6,1.2-2c3.1-2.4,13.1-1.5,11.8,4.9c-0.8,3.7-0.9,7.9-0.8,10.8
			c0,2,0.1,3.7,0.1,4.2c0,1.6,0.7,4.9,6.2,5.6c7.3,0.8,8.3-1.5,8.3-6.7c0-5.2,6-30.1-15.2-34.5c-8.4-1.8-14.6,0.2-19,3.5"/>
		<path id="XMLID_4359_" class="st1" d="M245.9,30.1"/>
	</g>
	<g id="XMLID_4352_">
		<path id="XMLID_4357_" class="st1" d="M240.8,20.9c-2.4-2.6-5.8-4.7-10.6-5.7"/>
		<path id="XMLID_4356_" class="st1" d="M240.8,20.9"/>
		<path id="XMLID_4354_" class="st1" d="M218.7,30"/>
		<path id="XMLID_4353_" class="st1" d="M218.7,30c0.4,8.5-0.1,18.4-1.1,22.1c0,0-4,7.2-10.2,3.9s-6.7-38-2.9-39.6
			c3.8-1.6,11.3-5,13.1,3"/>
	</g>
</g>
<path id="XMLID_86_" class="st1" d="M273.1,15.4c-21.8,6.9-10.3,33.1-10.3,33.1s13.9,16.4,31.8,3.3C312.3,38.7,294.8,8.4,273.1,15.4
	z M276.1,42.8c-11.9-1.6,4.8-23.8,10.2-9.7C291.8,47.2,276.1,42.8,276.1,42.8z"/>
<g id="XMLID_4355_">
	<path id="XMLID_4361_" class="st1" d="M223.4,87.4c0,0-1.7-8.5-10.1-5.5c-8.4,3-4.2,35.2-0.4,37.7
		C216.8,122.1,227.6,137.4,223.4,87.4z"/>
	<path id="XMLID_4360_" class="st1" d="M221.5,102.8c0,0,14.6-14.4,11.7,12.5c0,0,3.5,8.4,10.3,4.9c6.8-3.5,7.8-46.3-24.9-34.3"/>
</g>
<g id="XMLID_4556_">
	<path id="XMLID_4377_" class="st1" d="M253.8,63.5c0,0-14.1-13.5-14.5,11.9c-0.3,25.4-5.1,48.5,22.1,48.3c0,0,14.8-6.2,0-12.7
		c-7.2-3.2-8.7-9.8-8.5-18.1"/>
	<path id="XMLID_4378_" class="st1" d="M250.4,92.5c0,0,10.5,2.9,9.2-8.2s-14-5.6-14-5.6"/>
</g>
<g id="XMLID_4171_">
	<path id="XMLID_421_" class="st1" d="M160.7,114.9c0,0-1.9,8.7,6.1,8.7c8,0,17.5-32.3,15.3-36C179.9,83.9,177.1,65.6,160.7,114.9z"
		/>
	<path id="XMLID_4407_" class="st1" d="M171.8,115c0,0,1.9,8.7-6.1,8.7c-8,0-17.5-32.3-15.3-36c2-3.4,4.4-18.9,17.2,15.5"/>
</g>
<g id="XMLID_415_">
	<path id="XMLID_4375_" class="st1" d="M288.6,95.9c0,0,7.4-0.4,6.6-6.5c-0.6-4.9-21.2-13.8-29.7-3.1c-2.2,2.8-3.6,6.9-3.5,12.8
		c0,0,0,0.1,0,0.1c0.6,2,1.7,3.7,3,5.1c0.5,0.6,1.1,1,1.6,1.4c3.8,2.9,9.1,4.2,13.8,4.3c-0.7,2.7-3.8,4.1-13.9-0.8
		c0,0-7.4,0.4-6.6,6.5c0.6,4.9,21.3,13.8,29.7,3.1c2.2-2.8,3.6-6.9,3.5-12.8c0,0,0,0,0,0c-0.6-2-1.7-3.7-3-5.1
		c-0.5-0.6-1.1-1-1.6-1.4c-3.8-2.9-9.1-4.2-13.8-4.3C275.4,92.5,278.5,91,288.6,95.9z"/>
	<path id="XMLID_4414_" class="st1" d="M279.3,103.5c0,0,7.1,15.2-12.8,5.5c0,0-7.4,0.4-6.6,6.5c0.8,6.2,33.4,18.8,33.2-9.7"/>
	<path id="XMLID_4415_" class="st1" d="M275.8,101.4c0,0-7.1-15.2,12.8-5.5c0,0,7.4-0.4,6.6-6.5c-0.8-6.2-33.4-18.8-33.2,9.7"/>
</g>
<g id="XMLID_25_">
	<path id="XMLID_38_" class="st1" d="M202,87.2c0,0-3.8-2.6-5.4-0.6c-1.6,2.1-4.4,5.6-1.1,12.5c3.3,6.9,15.7,1.2,16.9-2"/>
	<path id="XMLID_26_" class="st1" d="M215.9,93.1L215.9,93.1c-2.3-6.1-7.3-10.9-15-11.7c-15.3-1.5-21.6,8.4-24,14.4
		c0,0-0.5,0.9-0.9,2.7c-0.3,1.1-0.4,1.9-0.3,2.3c-0.2,3.3,0.3,8.2,3.4,14.7c2.5,5.3,8.9,7.2,13.2,7.9c1.2,0.3,2.5,0.4,3.9,0.4
		c0.1,0,0.1,0,0.1,0l0,0c1.5,0,3.1-0.2,4.8-0.6c6.7-1.5,11.3-5.8,13.9-11.1c-0.4-6.1-5.7-6.8-8.8-7.3c-1.7-0.3-3.5,0.8-4.8,1.9
		c-0.1,0.1-0.3,0.2-0.4,0.4c-4.5,3.3-16.4-3.2-10.1-8.1c0,0,2.1-2.2,4.6-3.3h0c0,0,2.1-1.1,3.7-0.5c0.7,0.2,1.2,0.7,1.6,1.6
		c0,0,0,0.1,0.1,0.1c0.2,0.4,0.4,0.9,0.7,1.3c2.1,3.3,6.6,7.7,10.9,4.7c4.9-3.5,4.3-4.9,4.5-6.3l0,0
		C217.2,95.3,215.9,93.1,215.9,93.1z"/>
</g>
<g id="XMLID_2593_">
	<path id="XMLID_4316_" class="st1" d="M140.2,87.2c0,0-3.8-2.6-5.4-0.6s-4.4,5.6-1.1,12.5c3.3,6.9,15.7,1.2,16.9-2"/>
	<path id="XMLID_4315_" class="st1" d="M154.1,93.1L154.1,93.1c-2.3-6.1-7.3-10.9-15-11.7c-15.3-1.5-21.6,8.4-24,14.4
		c0,0-0.5,0.9-0.9,2.7c-0.3,1.1-0.4,1.9-0.3,2.3c-0.2,3.3,0.3,8.2,3.4,14.7c2.5,5.3,8.9,7.2,13.2,7.9c1.2,0.3,2.5,0.4,3.9,0.4
		c0.1,0,0.1,0,0.1,0l0,0c1.5,0,3.1-0.2,4.8-0.6c6.7-1.5,11.3-5.8,13.9-11.1c-0.4-6.1-5.7-6.8-8.8-7.3c-1.7-0.3-3.5,0.8-4.8,1.9
		c-0.1,0.1-0.3,0.2-0.4,0.4c-4.5,3.3-16.4-3.2-10.1-8.1c0,0,2.1-2.2,4.6-3.3h0c0,0,2.1-1.1,3.7-0.5c0.7,0.2,1.2,0.7,1.6,1.6
		c0,0,0,0.1,0.1,0.1c0.2,0.4,0.4,0.9,0.7,1.3c2.1,3.3,6.6,7.7,10.9,4.7c4.9-3.5,4.3-4.9,4.5-6.3l0,0
		C155.3,95.3,154.1,93.1,154.1,93.1z"/>
</g>
<path id="XMLID_4286_" class="st1" d="M158,148.1c-21.8,6.9-10.3,33.1-10.3,33.1s13.9,16.4,31.8,3.3
	C197.2,171.5,179.7,141.2,158,148.1z M161,175.5c-11.9-1.6,4.8-23.8,10.2-9.7C176.7,180,161,175.5,161,175.5z"/>
<g id="XMLID_4555_">
	<path id="XMLID_4337_" class="st1" d="M147.3,150.6c15.6,15,2.1,31.2,2.1,31.2c-2.2,3.3-21.8,10-26.2,3.7l0,0
		c-4.4-6.4,0.2-10.1,2.9-12.2c2.1-1.7,5.9-0.7,7.5-0.2c0.5,0.1,0.7,0.3,0.7,0.3c3.2,1,6.5,0.3,6.3-3.8c0,0,0.3-3.1-0.5-5.6l0,0
		c0,0-0.5-2.2-2.1-3.1c-0.6-0.3-1.3-0.5-2.3-0.2c0,0-0.1,0-0.2,0c-0.4,0.1-0.9,0.2-1.5,0.3c-3.8,0.6-10.1-0.1-10.5-5.2
		c-0.5-6,0.9-6.4,1.8-7.5c0,0,0,0,0,0c0.9-1,3.4-1.6,3.4-1.6l0,0C134.9,144.6,141.7,145.3,147.3,150.6z"/>
	<path id="XMLID_423_" class="st1" d="M132,157.7c-0.1,6.3-0.5,13.8-1.1,22.7c0,0-2.2,12.7-13,8.3s-5.4-52.9-0.5-56.6
		c4-3,13.9-18.8,14.6,15.7"/>
</g>
<path id="XMLID_83_" class="st1" d="M186.9,15.4c-21.8,6.9-10.3,33.1-10.3,33.1s13.9,16.4,31.8,3.3C226.2,38.7,208.7,8.4,186.9,15.4
	z M190,42.8c-11.9-1.6,4.8-23.8,10.2-9.7C205.6,47.2,190,42.8,190,42.8z"/>
<g id="XMLID_4362_">
	<path id="XMLID_4371_" class="st1" d="M179.9,19.3c0,0-23.1-15.9-33,12.2s14.3,32.5,13.7,15.4s5.3-18.4,12-15.8
		C179.4,33.6,188.8,30.8,179.9,19.3z"/>
	<path id="XMLID_4370_" class="st1" d="M160.3,20.9c0,0-1.5-10.5-10.9-5s0.5,14.7,0.5,14.7"/>
</g>
<path id="XMLID_5593_" class="st1" d="M315,112.1c0,0,1.1,6.6,6.4,4.3c5.3-2.3,2.7-27.5,0.2-29.5C319.2,85,312.4,73,315,112.1z"/>
<path id="XMLID_51_" class="st1" d="M331.3,104.7c0,0,6.6-1.1,4.3-6.4s-27.5-2.7-29.5-0.2C304.2,100.5,292.2,107.4,331.3,104.7z"/>
<path id="XMLID_4419_" class="st1" d="M146.4,20.4c-8.1-6-15.4-5.8-21-3.9c-0.6-0.5-1.2-0.9-1.9-1.2c-10.6-5.2-12,11.8-11.9,22.4
	c0,0.7,0,1.4,0,2.2c0.1,3.3,0.3,5.6,0.3,5.6S117.2,80.8,124,78c2.6-1.1,5.4-9.6,7-20.1C149.7,58.3,162.6,32.3,146.4,20.4z
	 M138.3,39.1c-1.5,3.8-3.8,5-6.1,4.6c-6.3-1-12.8-13.1-4.2-14.3c0,0,1.4-0.4,3.2-0.6C135.5,28.4,142.1,29.1,138.3,39.1z"/>
<path id="XMLID_76_" class="st1" d="M297.2,70.7c0,0,13,8.9,18.6-6.9c5.6-15.8-8-18.3-7.7-8.7c0.3,9.6-3,10.4-6.8,8.9
	C297.6,62.6,292.3,64.2,297.2,70.7z"/>
<g id="XMLID_195_">
	<path id="XMLID_201_" class="st2" d="M320.5,149.2"/>
	<path id="XMLID_198_" class="st2" d="M331.7,146.9c-17.8-13.1-31.8,3.3-31.8,3.3s-11.4,26.2,10.3,33.1
		C332,190.3,349.5,160,331.7,146.9z M323.5,165.6c-5.4,14.1-22.1-8.1-10.2-9.7C313.3,155.9,329,151.5,323.5,165.6z"/>
	<path id="XMLID_197_" class="st2" d="M324.8,144.9"/>
	<path id="XMLID_196_" class="st2" d="M324.8,144c0,0,14.1-13.5,14.5,11.9s5.1,48.5-22.1,48.3c0,0-14.8-6.2,0-12.7
		c7.2-3.2,8.7-9.8,8.5-18.1"/>
</g>
<g id="XMLID_192_">
	<path id="XMLID_194_" class="st2" d="M278,148.2c0,0-1.7-8.5-10.1-5.5c-8.4,3-4.2,35.2-0.4,37.7S282.2,198.3,278,148.2z"/>
	<path id="XMLID_193_" class="st2" d="M276.1,163.7c0,0,14.6-14.4,11.7,12.5c0,0,3.5,8.4,10.3,4.9c6.8-3.5,7.8-46.3-24.9-34.3"/>
</g>
<g id="XMLID_188_">
	<g id="XMLID_190_">
		<path id="XMLID_191_" class="st2" d="M267,159.4c0,0,2.9-15.1-9.9-10.8c-12.8,4.3-5.1,37.5,1.7,36
			C265.6,183.2,268.7,177.8,267,159.4z"/>
	</g>
	<path id="XMLID_189_" class="st2" d="M260.1,127.9c0,0,14.4,8.2,0.2,14.3C246.1,148.3,250.5,120.4,260.1,127.9z"/>
</g>
<g id="XMLID_182_">
	<g id="XMLID_186_">
		<path id="XMLID_187_" class="st2" d="M244.7,143.7c0,0,12.8-8.6,0.7-14.7c-12.1-6-30.1,22.9-24.3,26.7
			C226.9,159.5,232.9,157.9,244.7,143.7z"/>
	</g>
	<g id="XMLID_183_">
		<path id="XMLID_185_" class="st2" d="M227.1,140.7c-0.1-2.5-0.3-5.2-0.5-8c0,0-2.1-12.1-12.3-7.9c-10.2,4.3-5.2,50.3-0.5,53.9
			c3.8,2.9,13.3,17.9,13.9-15"/>
		<path id="XMLID_184_" class="st2" d="M224.1,167.5c0,0,17.1-13.3,13.6,11.6c0,0,4.1,7.7,12,4.5c7.9-3.2,9.1-42.7-29-31.7"/>
	</g>
</g>
<path id="XMLID_179_" class="st2" d="M185.3,143.1c-21.8,6.9-10.3,33.1-10.3,33.1s13.9,16.4,31.8,3.3
	C224.5,166.5,207,136.2,185.3,143.1z M188.3,170.5c-11.9-1.6,4.8-23.8,10.2-9.7C204,175,188.3,170.5,188.3,170.5z"/>
<g id="XMLID_160_">
	<g id="XMLID_170_">
		<g id="XMLID_175_">
			<path id="XMLID_178_" class="st2" d="M227.9,43.2"/>
			<path id="XMLID_177_" class="st2" d="M242.1,42.3c-0.1-6.1-0.5-14.4,1.9-16.3c3.1-2.4,13.1-1.5,11.8,4.9
				c-0.8,3.7-0.9,7.9-0.8,10.8c0,2,0.1,3.7,0.1,4.2c0,1.6,0.7,4.9,6.2,5.6c7.3,0.8,8.3-1.5,8.3-6.7c0-5.2,6-30.1-15.2-34.5
				c-14.8-3.1-22.7,5.4-26.1,12.3"/>
			<path id="XMLID_176_" class="st2" d="M242.9,25.1"/>
		</g>
		<g id="XMLID_171_">
			<path id="XMLID_174_" class="st2" d="M200.7,43.2c0.8,4.4,14.3,1,14.3-0.9c-0.1-6.1-0.5-14.4,1.9-16.3c2.5-2,9.7-1.7,11.5,1.9
				c0.4,0.8,0.5,1.8,0.3,3c-0.8,3.7-0.9,7.9-0.8,10.8c0,2,0.1,3.7,0.1,4.2c0,1.6,0.7,4.9,6.2,5.6c7.3,0.8,8.3-1.5,8.3-6.7
				c0-5.2,6-30.1-15.2-34.5S199.1,25,199.1,29.5C199.2,32,199.7,38,200.7,43.2"/>
			<path id="XMLID_173_" class="st2" d="M215.7,25"/>
			<path id="XMLID_172_" class="st2" d="M215.7,25c0.4,8.5-0.1,18.4-1.1,22.1c0,0-4,7.2-10.2,3.9s-6.7-38-2.9-39.6s11.3-5,13.1,3"/>
		</g>
	</g>
	<g id="XMLID_166_">
		<path id="XMLID_169_" class="st2" d="M227.9,43.2"/>
		<path id="XMLID_168_" class="st2" d="M242.9,28.1c0.3-0.9,0.7-1.6,1.2-2c3.1-2.4,13.1-1.5,11.8,4.9c-0.8,3.7-0.9,7.9-0.8,10.8
			c0,2,0.1,3.7,0.1,4.2c0,1.6,0.7,4.9,6.2,5.6c7.3,0.8,8.3-1.5,8.3-6.7c0-5.2,6-30.1-15.2-34.5c-8.4-1.8-14.6,0.2-19,3.5"/>
		<path id="XMLID_167_" class="st2" d="M242.9,25.1"/>
	</g>
	<g id="XMLID_161_">
		<path id="XMLID_165_" class="st2" d="M237.8,15.9c-2.4-2.6-5.8-4.7-10.6-5.7"/>
		<path id="XMLID_164_" class="st2" d="M237.8,15.9"/>
		<path id="XMLID_163_" class="st2" d="M215.7,25"/>
		<path id="XMLID_162_" class="st2" d="M215.7,25c0.4,8.5-0.1,18.4-1.1,22.1c0,0-4,7.2-10.2,3.9s-6.7-38-2.9-39.6s11.3-5,13.1,3"/>
	</g>
</g>
<path id="XMLID_157_" class="st2" d="M270.1,10.4c-21.8,6.9-10.3,33.1-10.3,33.1s13.9,16.4,31.8,3.3
	C309.3,33.7,291.8,3.4,270.1,10.4z M273.1,37.8c-11.9-1.6,4.8-23.8,10.2-9.7C288.8,42.2,273.1,37.8,273.1,37.8z"/>
<g id="XMLID_154_">
	<path id="XMLID_156_" class="st2" d="M220.4,82.4c0,0-1.7-8.5-10.1-5.5c-8.4,3-4.2,35.2-0.4,37.7
		C213.8,117.1,224.6,132.4,220.4,82.4z"/>
	<path id="XMLID_155_" class="st2" d="M218.5,97.8c0,0,14.6-14.4,11.7,12.5c0,0,3.5,8.4,10.3,4.9c6.8-3.5,7.8-46.3-24.9-34.3"/>
</g>
<g id="XMLID_151_">
	<path id="XMLID_153_" class="st2" d="M250.8,58.5c0,0-14.1-13.5-14.5,11.9c-0.3,25.4-5.1,48.5,22.1,48.3c0,0,14.8-6.2,0-12.7
		c-7.2-3.2-8.7-9.8-8.5-18.1"/>
	<path id="XMLID_152_" class="st2" d="M247.4,87.5c0,0,10.5,2.9,9.2-8.2s-14-5.6-14-5.6"/>
</g>
<g id="XMLID_148_">
	<path id="XMLID_150_" class="st2" d="M157.7,109.9c0,0-1.9,8.7,6.1,8.7c8,0,17.5-32.3,15.3-36C176.9,78.9,174.1,60.6,157.7,109.9z"
		/>
	<path id="XMLID_149_" class="st2" d="M168.8,110c0,0,1.9,8.7-6.1,8.7c-8,0-17.5-32.3-15.3-36c2-3.4,4.4-18.9,17.2,15.5"/>
</g>
<g id="XMLID_144_">
	<path id="XMLID_147_" class="st2" d="M285.6,90.9c0,0,7.4-0.4,6.6-6.5c-0.6-4.9-21.2-13.8-29.7-3.1c-2.2,2.8-3.6,6.9-3.5,12.8
		c0,0,0,0.1,0,0.1c0.6,2,1.7,3.7,3,5.1c0.5,0.6,1.1,1,1.6,1.4c3.8,2.9,9.1,4.2,13.8,4.3c-0.7,2.7-3.8,4.1-13.9-0.8
		c0,0-7.4,0.4-6.6,6.5c0.6,4.9,21.3,13.8,29.7,3.1c2.2-2.8,3.6-6.9,3.5-12.8c0,0,0,0,0,0c-0.6-2-1.7-3.7-3-5.1
		c-0.5-0.6-1.1-1-1.6-1.4c-3.8-2.9-9.1-4.2-13.8-4.3C272.4,87.5,275.5,86,285.6,90.9z"/>
	<path id="XMLID_146_" class="st2" d="M276.3,98.5c0,0,7.1,15.2-12.8,5.5c0,0-7.4,0.4-6.6,6.5c0.8,6.2,33.4,18.8,33.2-9.7"/>
	<path id="XMLID_145_" class="st2" d="M272.8,96.4c0,0-7.1-15.2,12.8-5.5c0,0,7.4-0.4,6.6-6.5c-0.8-6.2-33.4-18.8-33.2,9.7"/>
</g>
<g id="XMLID_141_">
	<path id="XMLID_143_" class="st2" d="M199,82.2c0,0-3.8-2.6-5.4-0.6c-1.6,2.1-4.4,5.6-1.1,12.5c3.3,6.9,15.7,1.2,16.9-2"/>
	<path id="XMLID_142_" class="st2" d="M212.9,88.1L212.9,88.1c-2.3-6.1-7.3-10.9-15-11.7c-15.3-1.5-21.6,8.4-24,14.4
		c0,0-0.5,0.9-0.9,2.7c-0.3,1.1-0.4,1.9-0.3,2.3c-0.2,3.3,0.3,8.2,3.4,14.7c2.5,5.3,8.9,7.2,13.2,7.9c1.2,0.3,2.5,0.4,3.9,0.4
		c0.1,0,0.1,0,0.1,0l0,0c1.5,0,3.1-0.2,4.8-0.6c6.7-1.5,11.3-5.8,13.9-11.1c-0.4-6.1-5.7-6.8-8.8-7.3c-1.7-0.3-3.5,0.8-4.8,1.9
		c-0.1,0.1-0.3,0.2-0.4,0.4c-4.5,3.3-16.4-3.2-10.1-8.1c0,0,2.1-2.2,4.6-3.3h0c0,0,2.1-1.1,3.7-0.5c0.7,0.2,1.2,0.7,1.6,1.6
		c0,0,0,0.1,0.1,0.1c0.2,0.4,0.4,0.9,0.7,1.3c2.1,3.3,6.6,7.7,10.9,4.7c4.9-3.5,4.3-4.9,4.5-6.3l0,0
		C214.2,90.3,212.9,88.1,212.9,88.1z"/>
</g>
<g id="XMLID_138_">
	<path id="XMLID_140_" class="st2" d="M137.2,82.2c0,0-3.8-2.6-5.4-0.6s-4.4,5.6-1.1,12.5c3.3,6.9,15.7,1.2,16.9-2"/>
	<path id="XMLID_139_" class="st2" d="M151.1,88.1L151.1,88.1c-2.3-6.1-7.3-10.9-15-11.7c-15.3-1.5-21.6,8.4-24,14.4
		c0,0-0.5,0.9-0.9,2.7c-0.3,1.1-0.4,1.9-0.3,2.3c-0.2,3.3,0.3,8.2,3.4,14.7c2.5,5.3,8.9,7.2,13.2,7.9c1.2,0.3,2.5,0.4,3.9,0.4
		c0.1,0,0.1,0,0.1,0l0,0c1.5,0,3.1-0.2,4.8-0.6c6.7-1.5,11.3-5.8,13.9-11.1c-0.4-6.1-5.7-6.8-8.8-7.3c-1.7-0.3-3.5,0.8-4.8,1.9
		c-0.1,0.1-0.3,0.2-0.4,0.4c-4.5,3.3-16.4-3.2-10.1-8.1c0,0,2.1-2.2,4.6-3.3h0c0,0,2.1-1.1,3.7-0.5c0.7,0.2,1.2,0.7,1.6,1.6
		c0,0,0,0.1,0.1,0.1c0.2,0.4,0.4,0.9,0.7,1.3c2.1,3.3,6.6,7.7,10.9,4.7c4.9-3.5,4.3-4.9,4.5-6.3l0,0
		C152.3,90.3,151.1,88.1,151.1,88.1z"/>
</g>
<path id="XMLID_135_" class="st2" d="M155,143.1c-21.8,6.9-10.3,33.1-10.3,33.1s13.9,16.4,31.8,3.3
	C194.2,166.5,176.7,136.2,155,143.1z M158,170.5c-11.9-1.6,4.8-23.8,10.2-9.7C173.7,175,158,170.5,158,170.5z"/>
<g id="XMLID_132_">
	<path id="XMLID_134_" class="st2" d="M144.3,145.6c15.6,15,2.1,31.2,2.1,31.2c-2.2,3.3-21.8,10-26.2,3.7l0,0
		c-4.4-6.4,0.2-10.1,2.9-12.2c2.1-1.7,5.9-0.7,7.5-0.2c0.5,0.1,0.7,0.3,0.7,0.3c3.2,1,6.5,0.3,6.3-3.8c0,0,0.3-3.1-0.5-5.6l0,0
		c0,0-0.5-2.2-2.1-3.1c-0.6-0.3-1.3-0.5-2.3-0.2c0,0-0.1,0-0.2,0c-0.4,0.1-0.9,0.2-1.5,0.3c-3.8,0.6-10.1-0.1-10.5-5.2
		c-0.5-6,0.9-6.4,1.8-7.5c0,0,0,0,0,0c0.9-1,3.4-1.6,3.4-1.6l0,0C131.9,139.6,138.7,140.3,144.3,145.6z"/>
	<path id="XMLID_133_" class="st2" d="M129,152.7c-0.1,6.3-0.5,13.8-1.1,22.7c0,0-2.2,12.7-13,8.3s-5.4-52.9-0.5-56.6
		c4-3,13.9-18.8,14.6,15.7"/>
</g>
<path id="XMLID_129_" class="st2" d="M183.9,10.4c-21.8,6.9-10.3,33.1-10.3,33.1s13.9,16.4,31.8,3.3
	C223.2,33.7,205.7,3.4,183.9,10.4z M187,37.8c-11.9-1.6,4.8-23.8,10.2-9.7C202.6,42.2,187,37.8,187,37.8z"/>
<g id="XMLID_126_">
	<path id="XMLID_128_" class="st2" d="M176.9,14.3c0,0-23.1-15.9-33,12.2s14.3,32.5,13.7,15.4s5.3-18.4,12-15.8
		C176.4,28.6,185.8,25.8,176.9,14.3z"/>
	<path id="XMLID_127_" class="st2" d="M157.3,15.9c0,0-1.5-10.5-10.9-5s0.5,14.7,0.5,14.7"/>
</g>
<path id="XMLID_125_" class="st2" d="M312,107.1c0,0,1.1,6.6,6.4,4.3c5.3-2.3,2.7-27.5,0.2-29.5C316.2,80,309.4,68,312,107.1z"/>
<path id="XMLID_124_" class="st2" d="M328.3,99.7c0,0,6.6-1.1,4.3-6.4s-27.5-2.7-29.5-0.2C301.2,95.5,289.2,102.4,328.3,99.7z"/>
<path id="XMLID_82_" class="st2" d="M143.4,15.4c-8.1-6-15.4-5.8-21-3.9c-0.6-0.5-1.2-0.9-1.9-1.2c-10.6-5.2-12,11.8-11.9,22.4
	c0,0.7,0,1.4,0,2.2c0.1,3.3,0.3,5.6,0.3,5.6S114.2,75.8,121,73c2.6-1.1,5.4-9.6,7-20.1C146.7,53.3,159.6,27.3,143.4,15.4z
	 M135.3,34.1c-1.5,3.8-3.8,5-6.1,4.6c-6.3-1-12.8-13.1-4.2-14.3c0,0,1.4-0.4,3.2-0.6C132.5,23.4,139.1,24.1,135.3,34.1z"/>
<path id="XMLID_77_" class="st2" d="M294.2,65.7c0,0,13,8.9,18.6-6.9c5.6-15.8-8-18.3-7.7-8.7c0.3,9.6-3,10.4-6.8,8.9
	S289.3,59.2,294.2,65.7z"/>
</svg>
