<?xml version="1.0" encoding="utf-8"?>
<!-- Generator: Adobe Illustrator 22.1.0, SVG Export Plug-In . SVG Version: 6.00 Build 0)  -->
<svg version="1.1" id="Layer_1" xmlns="http://www.w3.org/2000/svg" xmlns:xlink="http://www.w3.org/1999/xlink" x="0px" y="0px"
	 viewBox="0 0 418 311.9" style="enable-background:new 0 0 418 311.9;" xml:space="preserve">
<style type="text/css">
	.st0{fill:#EF6087;}
</style>
<path class="st0" d="M329.7,65.3c0.5-0.3,0-2.4,0-3.6l0,0c1.3,0,2.6,0,3.9,0c1.1,3-2.3,4-2.7,6.3c3.3,2.5,7.6-0.1,10.4,1.3
	c3.2,1.6,3.8-2.3,6.1-1.4c2.9,1.1,0.3,4.7,2.9,5.7c2.4,0.9,4.2,0.2,4.6-2.7c0.3-1.8,1.3-3.3,3.3-3.1c2.3,0.2,2.6,2.7,2,3.8
	c-1.4,2.9,5.6,4.6,0.8,7.5c0.2,0.2,0.4,0.6,0.7,0.6c4.6,0.5,7.1,5.9,11.6,5.6c2.7-0.2,1.9,2.2,3.9,3.4c-0.7-2.6,4.2-4.5-0.9-6.1
	c-0.9-0.3-0.5-1.4-0.5-2.2c0.1-5,3.8-0.4,5.3-2c0.6-0.6,1.7-0.5,2.2,0.3c0.6,0.9-0.2,1.4-0.8,2c-2.1,2.2-3.9,6.1-2.5,7.7
	c2.6,3.1,5.2-0.9,7.5-2.2c7.4-4.3,17.3-4.2,22.9,0.2c2.1,1.6,3,5,6.6,4.6c0.8-0.1,1.2,1.5,0.6,2c-3.1,2.9-0.5,5.8-0.1,8.7
	c0.8,6.8,0.4,13-5.9,17.5c-1.8,1.3-5.2,3.9-4.5,4.8c3.2,4.2,0.1,7.1-1.1,10.4c-0.4,1.2-0.2,2.5,0.5,3.8c1.6,2.9,0.1,9.8-2.3,11.8
	c-1.3,1.1-2.1,0.3-3.1-0.3c-8.1-5.3-8.6-5.1-15.4,1.3c-3.4,3.1-4.6,5.4-0.5,9c4.3,3.9,3.1,8.1-2.2,10.8c-3.5,1.7-7.3,1.9-10.9,2.8
	c-7.6,1.8-8.7,2.7-9.4,10.6c-0.6,6.5-5.1,11.1-11.5,10.2c-11.2-1.6-16.6,8.5-25.4,11.7c-0.7,0.2-2.2,2.9-2.3,4.5
	c-0.5,5.1-4.9,2.6-7.2,4c-0.8,0.5-1.2-2-2.8-0.8c-3.6,2.7-7.2,5.9-11.6,1.2c-0.2-0.2-1.2,0.6-1.8,0.6c-10.2,0.6-10.2,0.6-12.8-9.5
	c-0.1-0.4-0.1-0.7-0.3-1c-2.2-4.1-4.5-9.3-8.3-11c-5.2-2.4-10.4-6.4-17-4.9c-2,0.4-4.3-0.2-6.4-0.8c-3.7-1.1-6.8-1.4-7.4,4.3
	c0.1-3.2-0.8-4.9-3.9-4.7c-0.9,0.1-2.2-0.2-2.7-0.9c-2.8-3.9-7.2-2.7-10.9-3.6c-2.8-0.7-5.1,1.7-3.7,4c5,8.2-0.2,14.1-3.8,20.5
	c-0.6,1.2-1.8,1.5-3,1c-1.6-0.7-0.9-1.9-0.5-3c1.7-4.5,3.4-9,2.9-14c0.3-0.3,0.7-0.7,1-1c0.3-0.4,0.9-0.9,0.1-1.3
	c-0.1-0.1-0.6,0.4-0.9,0.6c-0.4,0.3-0.7,0.6-1.1,0.9c-2.6,1.6-5.4,2.2-7.9,0.3c-2.4-1.8-1.9-4.8-1.5-7.4c0.2-1.6,1-3.2,1.3-4.8
	c0.8-4.1-1.1-5.9-5.3-6c-3-0.1-6.9-0.2-4.6-5.2c0.5-1,0.2-1.4-0.7-1.9c-3.8-2.3-7.7-1.2-9.7,3c-1,2-1.7,4.3-4.1,5.4
	c-0.7-3.2,1-5.3,2.4-7.5c1-1.6,0.8-3.6-1.2-3.1c-5.4,1.4-5-2.2-5.7-5.5c-0.7-3-1.2-7.2-6.2-3.3c-2.2,1.8-4.4,0.7-5.1-2.4
	c-0.4-1.9-1.7-2.9-3.2-4.2c-2.3-2-6.4-1.8-7.3-4.6c-1.7-5.3-6.4-5.2-9.9-5.2c-8.3,0-16-2.3-23.7-4.7c-1.2-0.3-2.5-1.1-3.2-2.1
	c-1.4-2.1,1.8-14.8,4.1-15.6c2.1-0.7,2.4-1.4,1.8-3.1c-0.4-1-0.6-2.5-1.8-2.7c-1.8-0.3-2.2,1.6-2.9,2.8c-1.4,2.6-0.7,6-3.3,8.1
	c-1.7-1.8-0.6-3.9-0.9-5.9c1.6-5.7,6.9-10.8,3.2-17.5c-0.3-0.5,0-1.4,0.2-2c1.3-3.2-0.4-4.7-3.1-6.1c-2.9-1.5-7.5-3.1-7.8-5.2
	c-1.1-7.9-3.6-8.8-9.2-3.5c-1,1-2.2,0.3-3-0.7c-1-1.2-0.6-2.6,0.6-2.9c4.4-1.2,3.7-6.2,6.5-8.6c1.6-1.3,0.2-3.2-0.7-3.9
	c-3.1-2.4-3.2-6-3.6-9.3c-0.3-2.2-0.6-4.1-2.7-5.4c-2-1.2-1.5-2.3,0.3-3.7c3.7-2.9,6.2-6.9,8.5-10.9c1.2-1.9,1.8-3.7,4.5-3.4
	c1.5,0.2,3.4-0.2,3.9-1.6c0.7-1.9-1.4-2.3-2.7-2.8c-2-0.7-1.7-2.3-1.7-3.7c0.1-1.6,1.5-1.6,2.6-1.7c2.2-0.2,2.5,1.1,2.6,2.8
	c0.2,3.8,4.9,5.3,5.8,4.6c4.8-4,13.5,0.9,16.2-7.4c0.4-1,1.6-1,2.6-0.4s1.8,0.6,2.5-0.5c0.6-1,1.3-2.3,2.7-1.3
	c1.5,1.1,0.4,2.2-0.2,3.4c-1.9,3.7-1,5.7,3.3,5.6c4.4-0.1,8.9,0.2,13.1-1.9c3.9-1.9,7.3,0.6,6.3,4.6c-0.6,2.6,0.8,4,2.4,4.8
	c5.5,2.8,5.4,6.8,2.5,11.1c-2.9,4.4,2,8.6-0.3,12.8c-0.1,0.1,0.6,0.9,1,1c4.3,1.3,6.3,5.6,10.1,7.6c0.7,0.4,1.6,1.6,1.5,1.8
	c-2.7,4.6,2.7,6.8,3.5,10.5c1.3,5.7,2.1,6.1-3.8,7.5c-1.6,0.3-3.2,0.8-4.6,1.6c-5,3.2-3.6,7-1,11c0.6,1,0.4,1.1,4.6,0.3
	c0.7-0.2,1.1,0,1.5,0.7c1.4,2.6,4.3,2.1,6.1,1.7c2.3-0.5,1.4-3.3,1.6-5.2c0.2-2.1-0.5-3.5-2.5-4.3c-1.7-0.7-1.9-2.2-1.3-3.8
	c0.8-2,2.1-0.9,3.3-0.5c7.3,2.8,5-4.8,7.2-7.3c2.4-2.8-2.1-2.5-3.5-3.5c-1.5-1-4-1.2-4.1-3.2s2.3-2.4,4.2-3.2
	c-1.7-2.1-4.6-2-5.7-4.3c7.9-1.4,7.9-1.4,17.7-8.1c0.8-0.5,2-0.8,2.9-0.7c4,0.4,6.3-2.1,6.8-5.2c1.1-7.6,6.2-12.9,10-19
	c1.6-2.6,3.7-5.2,7.2-3.2c3.1,1.8,6.3,2.8,9.9,2.6c4.8-0.3,8.4,1.9,11.6,5.5c3,3.4,6.7,7.2,11.4,6.1c8.1-1.9,13.4-0.7,16.1,8.2
	c1.2,4,5.1,6.3,10.6,2.9c-1.5,3.7-6.1,3.3-4.9,7.1c0.7,2.5,2.4,4.6,4.9,5.3c1.7,0.5,3.6,0.2,5.4,0c2-0.2,4-1,5.9-0.2
	c2,0.9,2.7,0.2,4-1.3c2.6-3.1,5.6-5.7,10.1-5.3C326.9,65.3,328.2,66.6,329.7,65.3z"/>
<path class="st0" d="M51.3,37.4c0.1,1.6-5.2,6.6-7.1,6.7c-4.7,0.1-10.4-4.5-10.1-8.4c0.3-4.9,4.5-4.4,7.2-5.2
	C47.1,30.4,51.1,33.2,51.3,37.4z"/>
<path class="st0" d="M62.7,91.4c3.3-0.2,4.9,2.1,5.1,4.9c0.4,3.9-2.9,4.4-5.7,4.7c-3,0.3-3.9-1.9-4.2-5.1
	C58.1,93.5,59.4,91.5,62.7,91.4z"/>
<path class="st0" d="M273.1,306.6c1.1-4.8,2.8-9.4,2.1-14.5c-0.3-2.1,0.2-4.9,2.3-4.6c2.2,0.3,1.9,3.4,1.3,5.1
	c-2.3,6.3-2.2,13.2-5.9,19.3C272.9,310.1,272.6,308.3,273.1,306.6z"/>
<path class="st0" d="M371.9,264c0.2,0.7-0.2,1.4-1,1.4c-0.6,0-1.3-0.3-1.7-0.7c-1.9-2-3.2-14.3-1.6-17.3
	C371.1,252.6,370.6,258.5,371.9,264z"/>
<path class="st0" d="M4.9,0.1C2.9,4.7,4,8,8.3,10.5l-0.1-0.1c-0.8,1.4-1.6,2.8-2.6,4.1c-0.6,0.7-1.4,1.2-2.3-0.1C-1.4,7.6-1.2,5,5,0
	L4.9,0.1z"/>
<path class="st0" d="M172.2,174.6c-0.2,3-2.2,4.4-5,4.5c-2.4,0.2-3.7-1.3-3.6-3.7c0.1-3.3,2.3-4.1,5.9-4.4
	C171.3,170.7,172.3,172.3,172.2,174.6z"/>
<path class="st0" d="M333.2,57.2c0.1-2.6,2.7-2.3,4.7-1.7c1.9,0.6,4.2,1.3,3.5,3.9c-0.6,2.4-2.8,1.7-4.6,1.6c-1.1,0-3-1.8-3.1,1.2
	c-1.3,0-2.6,0-3.9,0C330.7,60.4,333.3,60.2,333.2,57.2z"/>
<path class="st0" d="M118.3,120.8c-1,0.8-2.8-0.7-3.2-2.3c-0.4-1.3,0.3-2.4,1.2-3.1c1.3-1,3-1.2,4,0.2c0.9,1.2,1.5,1.6,2.6,0.6
	c0.3,2-0.8,4.1,0.9,5.9C121.3,125.2,121.1,118.7,118.3,120.8z"/>
<path class="st0" d="M205.1,187.1c-1.9,0.1-4-0.4-4.2-2.6c-0.1-1.5,0.8-3.4,2.8-3.6c1.8-0.2,3.2,0.6,4,2.7
	C206.8,184.7,207.4,187,205.1,187.1z"/>
<path class="st0" d="M246.5,255.7c-2-4.1-3.6-8.3-1.6-14C248.5,246.9,246.2,251.4,246.5,255.7z"/>
<path class="st0" d="M246.4,215c2.7,3.5,2,6.8,0.4,10.1C245.2,221.9,244.4,218.7,246.4,215z"/>
<path class="st0" d="M29.7,22.6c0,2.1-2.1,2.3-3.7,2.2c-1.7-0.1-4.1-0.2-4-2.6c0.1-2.1,2.3-1.9,3.8-2C27.6,20.4,29.6,20.4,29.7,22.6
	z"/>
<path class="st0" d="M382.8,69.1c-0.2,2-1.6,3-3.4,2.9c-1.7-0.1-2.6-1.4-2.6-3.1c0.1-2,1.2-2.9,3.2-3.1
	C381.9,66.1,382.9,67.2,382.8,69.1z"/>
<path class="st0" d="M357.9,55.6c-0.1-1.5,0.5-3.2,2.3-3.2c1.7,0,3.3,1.1,3.4,3c0.1,1.8-0.9,3-2.9,3.7
	C359.1,58.5,358,57.4,357.9,55.6z"/>
<path class="st0" d="M74.8,55.5c-1.5,0-2.7-0.6-2.8-2.2c-0.1-1.9,0.9-3.4,2.7-3.6c1.5-0.2,2.9,0.7,3.1,2.5
	C77.4,53.8,77,55.5,74.8,55.5z"/>
<path class="st0" d="M388.2,48.2c0,1.5-1.3,2.2-2.7,2.3c-1.7,0.1-2.4-0.9-2.5-2.4c-0.1-1.6,1.2-2.1,2.4-2.8
	C386.8,45.8,388.3,46.4,388.2,48.2z"/>
<path class="st0" d="M401.9,165.8c-2.1,0.1-4.2-0.3-4.7-2.6c-0.3-1.3,1.1-2,2.3-2c2,0,3.3,1.1,4.2,3
	C403.9,165.6,402.8,165.8,401.9,165.8z"/>
<path class="st0" d="M88.4,129.8c-1.6,0.3-2-0.9-1.9-2.2c0.1-1.4-0.2-3.2,1.9-3.4c1.6-0.1,2.3,0.9,2.5,2.4
	C90.9,128.4,90,129.5,88.4,129.8z"/>
<path class="st0" d="M233.5,206.2c0.6,1.4-0.1,2.3-1.4,2.4c-1.9,0.2-3.1-0.8-3.3-2.7c-0.1-1.4,0.5-2.2,1.8-2.3
	C232.8,203.1,233,204.9,233.5,206.2z"/>
<path class="st0" d="M129.3,13.8c0.1-1.7,1.5-2.6,3-2.7c1.7,0,1.7,1.6,1.8,2.9c0,1.7-0.9,2.4-2.5,2.3
	C129.9,16.4,129.1,15.3,129.3,13.8z"/>
<path class="st0" d="M58.4,41.5c-1.5,0-2.4-0.8-2.5-2.4c0-1.6,1.1-1.8,2.3-1.8c1.3,0,2.5,0.3,2.8,1.8C60.9,40.9,59.7,41.4,58.4,41.5
	z"/>
<path class="st0" d="M98.6,60.1c-1,0-1.8-0.9-1.8-1.9c0-1.7,1.1-2.9,2.6-3c1.1-0.1,1.3,1.2,1.3,2.4C100.5,58.7,100.5,60.2,98.6,60.1
	z"/>
<path class="st0" d="M6.6,24.7c-0.9-0.2-1.8-1-1.6-2.1c0.2-1.3,1.2-1.8,2.5-1.7C8.7,21,9,21.9,9,23.2C8.9,24.4,7.8,24.9,6.6,24.7z"
	/>
<path class="st0" d="M107.4,107.9c-1.1,0-2.4-0.5-2.2-2c0.2-1.2,1.2-1.8,2.5-1.8c1.1,0,1.8,0.6,2,1.7
	C109.4,107.1,108.4,107.9,107.4,107.9z"/>
<path class="st0" d="M329.8,62.1c0,1.3,0.5,3.3,0,3.6c-1.6,0.8-2.9-0.4-4-1.7C327.2,63.4,328.5,62.8,329.8,62.1z"/>
<path class="st0" d="M8.3,10.5C6.3,8,9.5,9.1,9.9,8.2L10,8.1c-1.3,0.2-0.6,2-1.8,2.3C8.2,10.4,8.3,10.5,8.3,10.5z"/>
<path class="st0" d="M11.7,304.4c0.2-0.1,0.5,0.1,0.7,0.2c-0.2,0.2-0.3,0.4-0.5,0.6c-0.3,0.3-0.5,0.3-0.6-0.2
	C11.4,304.8,11.5,304.5,11.7,304.4z"/>
<path class="st0" d="M6.4,308.8c0.6-0.2,1.2-0.4,1.1-1.2v-0.1C7.7,308.4,8,309.4,6.4,308.8C6.4,308.8,6.5,308.9,6.4,308.8z"/>
<path class="st0" d="M7.5,307.5c0.4,0.2,0.8,0.3,1.2,0.3c-0.1,0.1-0.2,0.3-0.2,0.4C8.1,307.9,7.8,307.7,7.5,307.5
	C7.5,307.5,7.5,307.6,7.5,307.5z"/>
<path class="st0" d="M9.9,8.3L10,8.1v0.1C10,8.2,9.9,8.2,9.9,8.3z"/>
<path class="st0" d="M4.9,0.1C5,0,5,0.1,5.1,0.1H4.9C4.9,0.1,5,0,4.9,0.1z"/>
<path class="st0" d="M5.7,310.1c0.3-0.4,0.6-0.9,0.9-1.2l-0.1-0.1c0,0.4,0.1,0.7,0.2,1.1c-0.4,0-0.7,0-1.1,0.1L5.7,310.1z"/>
<path class="st0" d="M10.3,306.8c-0.2,0-0.3-0.2-0.4-0.3c0.1-0.1,0.2-0.3,0.3-0.3c0.2,0,0.3,0.2,0.4,0.3
	C10.5,306.6,10.4,306.8,10.3,306.8z"/>
<path class="st0" d="M5.5,310c0.1,0.3,0.1,0.7,0.1,1c-0.1-0.1-0.3-0.1-0.4-0.1c0.2-0.3,0.4-0.6,0.5-0.8C5.7,310.1,5.6,310,5.5,310z"
	/>
<path class="st0" d="M223.4,191.6c-0.3,0.3-0.7,0.7-1,1c-0.3-0.2-0.6-0.5-0.9-0.8c0.4-0.3,0.7-0.6,1.1-0.9
	C222.9,191.2,223.2,191.4,223.4,191.6z"/>
<path class="st0" d="M222.7,191c0.3-0.2,0.7-0.7,0.9-0.6c0.7,0.4,0.2,0.9-0.1,1.3C223.2,191.4,222.9,191.2,222.7,191z"/>
</svg>
