<?xml version="1.0" encoding="utf-8"?>
<!-- Generator: Adobe Illustrator 22.1.0, SVG Export Plug-In . SVG Version: 6.00 Build 0)  -->
<svg version="1.1" id="Layer_1" xmlns="http://www.w3.org/2000/svg" xmlns:xlink="http://www.w3.org/1999/xlink" x="0px" y="0px"
	 viewBox="0 0 1282 722" style="enable-background:new 0 0 1282 722;" xml:space="preserve">
<style type="text/css">
	.st0{fill:#A36B78;stroke:#584C4F;stroke-width:4;stroke-linecap:round;stroke-miterlimit:10;}
	.st1{fill:#B66C7E;stroke:#584C4F;stroke-width:4;stroke-miterlimit:10;}
	.st2{fill:#FFFAF2;stroke:#584C4F;stroke-width:2;stroke-miterlimit:10;}
	.st3{fill:#FFD767;stroke:#584C4F;stroke-width:2;stroke-miterlimit:10;}
</style>
<g id="Layer_5">
</g>
<g id="Layer_3">
</g>
<g>
	<g>
		<path id="XMLID_6280_" class="st0" d="M-367.7,107.7C-235,116-72,123.9,12.7,129.5c153.4,10.2,379.1,1.5,379.1,1.5l-6.5,64.4
			c0,0-398.1-19.4-481.9-7.5c-60.1,8.5-281.8-11.5-411.2-18.8"/>
		<path class="st0" d="M381.8,134.3c8.5-7.6,23-14,47.4-13.6c11.4,0.2,28.8-1.3,31-0.7c3.8,1.1,24.7,0.4,32.5,2.6
			c1-2.4,2.7-4,4.6-3.5c4.6,1.4,34.6,0,35.4,4.4c0.9,4.4,1.7,8.8-0.4,9.2c0,0-28.9,3.5-36.4,0.5c-0.2,0.2-0.4,0.4-0.7,0.4
			c0,0-16.7,2-28.1,1.6c2.3,4,3.4,8.6,3.8,13.8c5.4,0.3,32.4-7.4,40.8-5.8c0.7-1.6,1.9-2.6,3.4-2.5c5.9,0.4,40.7-9.9,43.3-4.5
			c2.6,5.4,5.2,10.7,2.9,11.8c0,0-33.5,13-43,11c-1.4-0.3-2.6-1-3.6-1.8c-7.6,2.9-32.7,11.8-40.7,10.1c-1.4-0.3-3.1,7.5-2.2,7.8
			c5.4,1.8,36.6,1.1,45.1,5.2c1.2-1.5,2.7-2.2,4.3-1.7c6.1,2.1,46,0.8,47.2,7.2c1.3,6.4,2.5,12.7-0.2,13.3c0,0-39.2,4.4-48.7-0.3
			c-1.4-0.7-2.5-1.7-3.3-2.9c-9,0.9-38,3.4-46.1-0.6c-1.1-0.5-2.8,1.4-2.8,3c0,2.2,0.2,6.1,0.6,6.3c4.8,2.6,35,7.9,42.4,13
			c1.5-1,3-1.4,4.4-0.7c5.5,3,44.1,9.4,44,15.2c-0.1,5.8-0.2,11.6-2.9,11.6c0,0-38.6-3.5-46.9-9.4c-1.2-0.9-2.1-2-2.6-3.1
			c-8.8-0.9-37.3-4.2-44.2-9.2c-1.9-1.4-16.9,0.1-24.8,0c9.4,7.3,22.4,17.2,20.9,20.8c-2.3,5.3-4.5,10.6-6.8,9.7
			c0,0-29.4-15.6-34.2-23.9c-0.3,0.1-0.6,0.1-0.9,0c0,0-30-16-34.4-24.2c-0.3-0.6-0.5-1.1-0.7-1.6c-7-5.7-11-11.7-13.1-17.4"/>
		<path class="st0" d="M378.8,137.1c0.9-1,1.9-1.9,2.9-2.9"/>
		<path id="XMLID_6279_" class="st0" d="M350.5,144.2c0,0,35.8-51.4,37.6,0.6"/>
		<path class="st1" d="M561.8,197.4c0,0,6.6,1.9,6.4-2.4c-0.1-4.3,1.9-8.7-4.6-8.5c-6.5,0.2-6.3,4.5-6.3,4.5
			S555.3,195.5,561.8,197.4z"/>
		<path class="st1" d="M549.7,241.4c0,0,6.4,2.3,6.5-2.1c0.1-4.3,2.3-8.6-4.2-8.7c-6.5-0.1-6.5,4.2-6.5,4.2S543.2,239.1,549.7,241.4
			z"/>
		<path class="st1" d="M526.3,130.3c0,0,6.4,2.3,6.5-2.1c0.1-4.3,2.3-8.6-4.2-8.7c-6.5-0.1-6.5,4.2-6.5,4.2S519.8,128.1,526.3,130.3
			z"/>
		<path class="st1" d="M554,149.7c0,0,8.2,0.5,6.9-4.5c-1.3-5-0.2-10.7-7.7-8.7c-7.6,2-6.2,7-6.2,7S545.8,149.2,554,149.7z"/>
		<path class="st1" d="M447.4,249.7c0,0,5.5,4,6.8-0.2c1.3-4.1,4.6-7.5-1.6-9.5c-6.1-1.9-7.4,2.2-7.4,2.2S441.9,245.7,447.4,249.7z"
			/>
		<path id="XMLID_6278_" class="st0" d="M456.5,140.9c0,0-13.3-8.2-0.4-9.4"/>
		<path id="XMLID_6276_" class="st0" d="M455.4,162.6c0,0-13.3-8.2-0.4-9.4"/>
		<path id="XMLID_6273_" class="st0" d="M455.8,185.8c0,0-13.3-8.2-0.4-9.4"/>
		<path id="XMLID_6272_" class="st0" d="M454.7,207.6c0,0-13.3-8.2-0.4-9.4"/>
		<path id="XMLID_6271_" class="st0" d="M427.5,228.7c0,0-24.4,12.5-14.4-8"/>
		<path id="XMLID_6270_" class="st0" d="M497.6,222.1c-0.4-1.6,0.9-3,5.6-3.4"/>
		<path id="XMLID_6269_" class="st0" d="M507.6,189.9c0.7-1.6,1.6-3.5,2.8-5.7"/>
		<path id="XMLID_6268_" class="st0" d="M507.8,146.1"/>
		<path id="XMLID_6267_" class="st0" d="M502.2,149.5c-0.3-1.2,0.3-2.2,2.6-2.9"/>
		<path id="XMLID_6266_" class="st0" d="M491.3,126"/>
		<path id="XMLID_6265_" class="st0" d="M487.6,128.5c-0.3-1.2-0.5-2.6,0.2-3.2"/>
		<path id="XMLID_6264_" class="st0" d="M539.3,236.9c-1.3-0.9-1.4-2.7,1.7-6.3"/>
		<path id="XMLID_6263_" class="st0" d="M551.4,194.3c-0.1-1.7-0.1-3.8,0-6.4"/>
		<path id="XMLID_6262_" class="st0" d="M543.6,148.5c-1-0.7-1.3-1.8-0.2-3.9"/>
		<path id="XMLID_6261_" class="st0" d="M518.3,126.9c-0.3-1.2-0.5-2.6,0.2-3.2"/>
	</g>
	<path id="XMLID_6260_" class="st2" d="M484.9,147.7c0.1,0.4,2.2,17.6,2.1,19.1c0,0.2-0.3,0.8-0.6,1.1c-0.4,0.5-1.1,1.1-1.8,1.3
		c-0.1,0-3.3,0.5-3.4,0.5c-1,0.2-2.1-0.3-3.1-2.3c-0.7-1.5-2.5-19.1-2.5-19.5c-0.1-1.2,0.7-1.9,1.7-2.1c0.6-0.2,3.1-0.5,3.8-0.5
		C482.6,145.1,484.5,145.9,484.9,147.7z"/>
	<path id="XMLID_6259_" class="st2" d="M477.4,147.1c0,0-0.6-0.2-0.8,0.2"/>
	<path id="XMLID_6258_" class="st2" d="M486.1,166.4c0,0-0.2,0.7-0.5,0.9"/>
</g>
<g>
	<path class="st3" d="M709.7,274.7c-2.7-5.7-9.9-10-16.3-7.8c-3.6,1.3-6.1,4.5-9.1,6.7c-1.6,1.2-3.5,2.2-5.5,1.7
		c-3.4-0.8-4.9-4.8-5.6-7.8c-1.2-5.1-0.9-10.4-2.4-15.4c-1.3-4.2-4.2-8.1-8.8-8.7c-3.6-0.5-7.5,1.3-8.1,5.2c-0.6,3.9,2.2,7.5,4,10.7
		c1.2,2.1,1.7,4.3,1.4,6.7c-0.3,1.8-1.1,3.7-2.8,4.2l-1.9,0.5c-2.6,1-5.9,0.4-8.4-1c-4.7-2.6-6.3-7.8-7.2-12.8
		c-0.8-5-0.9-10.1-2.8-14.8c-1.6-3.9-4.4-7.8-8.7-9c-8.2-2.2-14,6-16.7,12.5c-1.5,3.5-3.3,8-2.2,11.8c0.6,2.1,2.3,3.5,4.2,4.4
		c2.6,1.2,5.3,2,7.8,3.4c5,2.8,9.3,7.7,7.7,13.8c-0.6,2.3-2.1,4.4-4.4,5.2c-2.5,0.9-5.1,0.1-7.3-1.1c-3.9-2-7.2-5-11.9-4.6
		c-3.1,0.3-6.6,2.2-5.7,5.8c1,4.4,6.8,4.5,10.3,5.4c2.1,0.5,5,1.6,5.8,3.9c1.4,3.7-3.2,5.5-5.8,6.6c-7.1,3.1-11.1,10.5-11.2,18.1
		c-0.1,7.7,4.1,15.1,11.6,17.6c7.3,2.4,15.9,0.1,21.3-5.3c3.2-3.2,4.3-7.1,5.2-11.4c0.6-2.7,1.3-6,3.9-7.4c2-1.2,5.8-1.5,6.8,1.2
		c0.8,2.2-1,4.4-0.1,6.7c0.8,1.7,2.6,2.8,4.3,3.5c4.1,1.7,9.4,3,13.8,2c3.3-0.7,6.5-3.4,7-6.9c0.7-5.1-4.9-6.8-7.2-10.3
		c-2.4-3.7-1.9-9,0.7-12.5c3-4,7.9-4.4,12.4-3.4c4.3,0.9,8.3,2.9,12.7,3.6c4,0.7,8-0.1,11.5-2C708.5,289.9,713.2,282,709.7,274.7z"
		/>
	<path class="st2" d="M620.5,228.6c-85.8,27.3-40.8,130.6-40.8,130.6s54.9,64.8,125.2,13.2C775.2,320.7,706.3,201.2,620.5,228.6z
		 M699.5,365.9C636.3,412.4,586.8,354,586.8,354s-40.5-92.9,36.7-117.5C700.8,212,762.8,319.5,699.5,365.9z"/>
	<g id="XMLID_1_">
		<path id="XMLID_2_" class="st2" d="M741.3,382.1c0,0,0-0.1,0-0.2c0-1.1,0.1-2.1,0.1-2.5c0-0.3,0-1.4,0-2.9c0-1.8,0-3.4,0-3.5
			c-0.1-0.8,0.1-3.5,0-4.1c0,0-0.1-4.7-0.1-5.2c0.1-1.4,0.2-4.5,0.1-5.3c0-0.9-0.2-12.9-0.5-14.8c0-0.1,0-0.2,0-0.3
			c0.1-2.1,0.2-4.1,0.1-5.5c0.3-4.2,0.2-11.9,0-15c0.3-0.3,0.4-13.4,0.3-13.8c0-0.2-0.1-0.3-0.1-0.5c0-2.7-0.1-5.2-0.2-6.7
			c0.3-0.3,0.4-13.4,0.3-13.8c-0.2-1.6-2.5-3.4-6.2-3.5c-0.4,0-7.1,0-15,0c-0.5,0-0.9-0.1-1.3-0.1c-1.7-0.1-137-0.1-138.7,0
			c-0.5,0-0.9,0-1.3,0.1c-7.8,0-14.5,0-15,0c-3.7,0.1-6,1.9-6.2,3.5c0,0.4-0.1,1.5,0,2.4c0,0.7,0,10.4,0,10.5c0,0.2,0,3.9,0.1,7.9
			c0,0.1,0,0.1,0,0.2c0,0.4-0.1,1.5,0,2.4c0,0.7,0,10.4,0,10.5c0,0.3,0,11.8,0.3,16c0,1.5,0,3.4,0.1,5.5c0,0.1,0,0.2,0,0.3
			c-0.2,1.8-0.5,13.8-0.5,14.8c0,0.7,0,10.4,0,10.5c-0.1,0.6,0,8,0,8.1c0,0.3,0,0.8,0,1.4c0,0.6,0,0.9,0,1.1c0,0.3,0,2.1,0,4.1
			c0,0.6,0,1.2,0,1.7c0,0.2,0,0.4,0,0.6c0,2.2,0,4.1,0,4.1c-0.1,0.6,0,8,0,8.1c-0.1,0.7,0.1,2.5,0.1,3.9c0,0.5-0.1,0.9-0.1,1.3
			c0,0.5-0.1,2-0.1,3c0,0.5,0,0.9,0,1c0,0.3,0.1,0.6,0.4,1c-0.2,3.3-0.3,11.1,0,15.4c0,1.6,0.1,3.7,0.2,6c0,0.2,0,0.3,0,0.5
			c-0.2,1.9-0.5,14.1-0.5,15.1c0,0.8,0,1.5,0,1.5c-0.1,0.7,0,6.7,0,7.7c0,0.8,0,1.5,0,1.5c0,0.3,0,0.5,0.2,0.8
			c-0.1,4.1-0.2,8.9-0.2,9.5c0,0.8,0,1.5,0,1.5c-0.1,0.7,0,6.7,0,7.7c0,0.8,0,1.5,0,1.5c-0.2,1,1.1,2.1,5.7,2.8
			c2.8,0.4,29.3,0.1,38.2,0c13.2,0.2,82.7,0.2,95.9,0c8.9,0.1,35.4,0.4,38.2,0c4.6-0.7,5.9-1.8,5.7-2.8c0,0,0-0.7,0-1.5
			c0-1,0-2.1,0-2.5c0-0.3-0.1-0.8-0.1-1.3c0.1-1.4,0.2-4.6,0.1-5.4c0-0.6-0.1-5.4-0.2-9.5c0.2-0.3,0.2-0.5,0.2-0.8c0,0,0-0.7,0-1.5
			c0-1,0-2.1,0-2.5c0-0.3-0.1-0.8-0.1-1.3c0.1-1.4,0.2-4.6,0.1-5.4c0-1-0.2-13.2-0.5-15.1c0-0.1,0-0.3,0-0.5c0.1-2.3,0.2-4.4,0.2-6
			c0.3-4.3,0.4-16,0.3-16.4c0,0,0-0.4,0-1c0-1,0-2.6-0.1-3c0-0.3,0-8.8,0-9.2c0-0.1,0-0.2,0-0.3c0-0.5,0-0.9,0-1.4c0-1,0.1-2,0-2.4
			c0,0,0-0.2,0-0.4c0-1.9,0-3.2,0-3.3c0,0,0-0.4,0-1C741.3,384.1,741.3,382.6,741.3,382.1z"/>
	</g>
</g>
</svg>
