<?xml version="1.0" encoding="utf-8"?>
<!-- Generator: Adobe Illustrator 22.1.0, SVG Export Plug-In . SVG Version: 6.00 Build 0)  -->
<svg version="1.1" id="Layer_1" xmlns="http://www.w3.org/2000/svg" xmlns:xlink="http://www.w3.org/1999/xlink" x="0px" y="0px"
	 viewBox="0 0 485.4 377.3" style="enable-background:new 0 0 485.4 377.3;" xml:space="preserve">
<style type="text/css">
	.st0{opacity:0.1;fill:#231F20;stroke:#231F20;stroke-miterlimit:10;enable-background:new    ;}
	.st1{fill:#FFFAF2;stroke:#584C4F;stroke-width:2;stroke-miterlimit:10;}
	.st2{fill:none;stroke:#5B5B4B;stroke-linecap:round;stroke-miterlimit:10;}
	.st3{fill:#FFD767;stroke:#584C4F;stroke-width:2;stroke-miterlimit:10;}
	.st4{fill:none;stroke:#584C4F;stroke-width:2;stroke-linecap:round;stroke-miterlimit:10;}
	.st5{opacity:0.1;}
	.st6{fill:#231F20;stroke:#231F20;stroke-miterlimit:10;}
	.st7{fill:#E6C86B;stroke:#584C4F;stroke-width:2;stroke-miterlimit:10;}
	.st8{fill:#FCDE82;stroke:#584C4F;stroke-width:2;stroke-miterlimit:10;}
	.st9{fill:none;stroke:#584C4F;stroke-width:2;stroke-miterlimit:10;}
	.st10{fill:#FCDB77;stroke:#584C4F;stroke-width:2;stroke-miterlimit:10;}
	.st11{fill:#FFF5D0;stroke:#584C4F;stroke-width:2;stroke-miterlimit:10;}
	.st12{fill:#FBE391;stroke:#584C4F;stroke-width:2;stroke-miterlimit:10;}
	.st13{fill:#FBE7A0;stroke:#584C4F;stroke-width:2;stroke-miterlimit:10;}
	.st14{fill:#FDEBB0;stroke:#584C4F;stroke-width:2;stroke-miterlimit:10;}
	.st15{fill:#FFF0C2;stroke:#584C4F;stroke-width:2;stroke-miterlimit:10;}
	.st16{fill:#FDF7E0;stroke:#584C4F;stroke-width:2;stroke-miterlimit:10;}
	.st17{fill:#A36B78;stroke:#584C4F;stroke-width:2;stroke-linecap:round;stroke-miterlimit:10;}
	.st18{fill:#584C4F;stroke:#584C4F;stroke-width:2;stroke-linecap:round;stroke-miterlimit:10;}
	.st19{fill:#B66C7E;stroke:#584C4F;stroke-width:2;stroke-miterlimit:10;}
	.st20{opacity:0.5;fill:#FFFFFF;stroke:#584C4F;stroke-width:2;stroke-miterlimit:10;enable-background:new    ;}
	.st21{fill:#FFFFFF;stroke:#584C4F;stroke-width:2;stroke-linecap:round;stroke-miterlimit:10;}
</style>
<g id="Layer_5">
</g>
<g id="Layer_3">
</g>
<g>
	<g>
		<g id="XMLID_5008_">
			<path id="XMLID_5028_" class="st0" d="M210.4,338.1c-1.9-0.1-72.8,0.2-79,1.4c-0.8,0.2-3,1.4-4.2,2.8c-1.7,2-3.9,5-4.5,8.3
				c-0.1,0.4-0.2,13.7-0.1,14.1c-0.3,4.1,2.2,8.4,11.2,11.3c6.6,2.1,79.1,0.1,80.8,0c4.9-0.3,7.4-3.7,7.9-8
				c0.3-2.8,0.2-12.9,0.1-15.5C222.1,346,217.6,338.6,210.4,338.1z"/>
			<path id="XMLID_5027_" class="st1" d="M200.4,328.1c-1.9-0.1-72.8,0.2-79,1.4c-0.8,0.2-3,1.4-4.2,2.8c-1.7,2-3.9,5-4.5,8.3
				c-0.1,0.4-0.2,13.7-0.1,14.1c-0.3,4.1,2.2,8.4,11.2,11.3c6.6,2.1,79.1,0.1,80.8,0c4.9-0.3,7.4-3.7,7.9-8
				c0.3-2.8,0.2-12.9,0.1-15.5C212.1,336,207.6,328.6,200.4,328.1z"/>
			<line id="XMLID_5026_" class="st2" x1="159.3" y1="328.4" x2="162" y2="329.6"/>
			<path id="XMLID_5025_" class="st1" d="M206.6,358.2c0,0,1.1,2.2-0.7,3.2"/>
			<path id="XMLID_5024_" class="st1" d="M123.4,332.8c0,0-2.7,1.3-3.6,2.6"/>
			<g id="XMLID_5021_">
				<path id="XMLID_5023_" class="st3" d="M160.1,338.5c0,0-1-4.7-5.6-3.1c-4.7,1.7-2.4,19.6-0.2,21
					C156.4,357.8,162.4,366.4,160.1,338.5z"/>
				<path id="XMLID_5022_" class="st3" d="M159,347.1c0,0,8.2-8.1,6.5,7c0,0,1.9,4.7,5.7,2.7c3.8-1.9,4.4-25.8-13.9-19.1"/>
			</g>
			<path id="XMLID_5020_" class="st0" d="M332.1,368.7c0.3-2.8,0.2-12.9,0.1-15.5c-0.3-5.8-3.8-12.1-9.6-14
				c-10.9,0.2-19.6,0.5-21.5,0.9c-0.8,0.2-3,1.4-4.2,2.8c-1.7,2-3.9,5-4.5,8.3c-0.1,0.4-0.2,13.7-0.1,14.1
				c-0.3,4.1,2.2,8.4,11.2,11.3c0.6,0.2,1.7,0.3,3.2,0.5c9.9-0.2,17.1-0.4,17.6-0.4C329.1,376.5,331.6,373,332.1,368.7z"/>
			<path id="XMLID_5019_" class="st1" d="M322.1,358.7c0.3-2.8,0.2-12.9,0.1-15.5c-0.3-5.8-3.8-12.1-9.6-14
				c-10.9,0.2-19.6,0.5-21.5,0.9c-0.8,0.2-3,1.4-4.2,2.8c-1.7,2-3.9,5-4.5,8.3c-0.1,0.4-0.2,13.7-0.1,14.1
				c-0.3,4.1,2.2,8.4,11.2,11.3c0.6,0.2,1.7,0.3,3.2,0.5c9.9-0.2,17.1-0.4,17.6-0.4C319.1,366.5,321.6,363,322.1,358.7z"/>
			<path id="XMLID_5018_" class="st4" d="M288.4,360.3c0,0,3.3,2.1,3.6,1.3"/>
			<path id="XMLID_5017_" class="st1" d="M312.6,334.3c0,0,3.1,1.9,2.5,2.3"/>
			<g id="XMLID_5014_">
				<path id="XMLID_5016_" class="st3" d="M299.1,338.1c0,0-1-4.7-5.6-3.1c-4.7,1.7-2.4,19.6-0.2,21
					C295.4,357.4,301.4,366,299.1,338.1z"/>
				<path id="XMLID_5015_" class="st3" d="M298,346.7c0,0,8.2-8.1,6.5,7c0,0,1.9,4.7,5.7,2.7c3.8-1.9,4.4-25.8-13.9-19.1"/>
			</g>
			<g id="XMLID_5010_" class="st5">
				<path id="XMLID_5013_" class="st6" d="M263.1,345.8c0,0-1.4-6-8.1-3.9c-6.7,2.1-3.4,24.9-0.3,26.6
					C257.8,370.3,266.4,381.1,263.1,345.8z"/>
				<g id="XMLID_5011_">
					<path id="XMLID_5012_" class="st6" d="M251.9,351.1c0,0-12.3-1.9-8.8,6.5s30.5,3.3,29.3-1.1C271.3,352.1,266.9,350,251.9,351.1
						z"/>
				</g>
			</g>
			<path id="XMLID_5009_" class="st1" d="M262.4,346.5c-0.8-3-3-4.9-8.9-5.5c-0.1-1.6-0.3-3.4-0.4-5.2c0,0-1.4-6-8.1-3.9
				c-2.6,0.8-3.6,4.6-3.9,9.1c-2.6-0.3-11-0.5-8.1,6.6c1.1,2.7,4.7,4,9,4.4c0.7,3.4,1.7,6,2.6,6.6c2.5,1.4,8.7,8.8,9.1-7.4
				C258.9,350.1,262.9,348.2,262.4,346.5z"/>
		</g>
		<g>
			<path class="st0" d="M381.1,22.2c0,0-19.7-17.6-27.8,4.5c-6,0.8-11.7,6.4-13.7,23.2c0,0-0.5,9.7-3.6,17.9
				c-11.5,0.9-18.2-16.9-17-23.3c0,0-2-36.2-26.5-25.5c-3.6,1.6-6.3,5.1-8.2,10c-0.9,0.3-1.8,0.6-2.8,1c-10.3,4.5-13.8,25.4-9.8,47
				c-11.1,3.7-23.2-1.6-18.2-47c0,0-10.2-24.4-30-14.3c-2.5,1.3-4.8,4.5-6.6,9c-0.9-0.8-1.9-1.5-2.9-2.3
				c-49.2-36.1-87.6,9.2-87.6,9.2s-0.1,0.2-0.2,0.6c-10.7-17.8-30-29.1-61.7-21C60.8,4.7,53.1-2.7,38,2.7c-4,1.4-7,5.2-9.2,10.4
				c-0.6,0.2-1.2,0.4-1.8,0.6c-24.4,8.7-12.4,103.1-1.1,110.4c3.3,2.1,8.4,7.5,13.6,10.4c-1.6,30.5,5.8,69.6,12.9,74.2
				c7.1,4.6,22.4,24.3,29.5,1.1c8.5,1,16-10.3,14.7-61.3c10-1.5,19.4,6.9,14.9,47.8c0,0,10,23.9,29.4,14.6c2.9,4.4,6.1,6.8,9.3,6.2
				c5.8-1.2,10.5-3.7,14-8.3c4.9,5.3,11.8,9.8,21.2,12.8c13.4,4.3,26.1,2.7,37-2.4c-0.6,9.4-2.4,17.7-6.4,24.4
				c-0.9,0.5-1.8,1-2.7,1.5c-9.3,4.6-13.7,9.1-15.1,13.2c-28.3,16.6,4.1,31.7,4.1,31.7c22,0.2,35.2-6.8,43.1-18.7
				c14.2-9.3,19.6-26.2,21.3-47.5c2.3,0.6,4.5,1,6.5,1.3c3,0.6,6.2,1,9.6,0.9c0.2,0,0.3,0,0.3,0l0,0c3.7-0.1,7.6-0.5,11.8-1.5
				c10.5-2.4,19-7.5,25.4-14.3c1.3,3.4,2.6,5.8,3.9,6.8c7,5.3,21.7,27.3,29,3.1c10.5,2.1,19.6-16.4,13.3-113.3
				C399.2,80.3,381.1,22.2,381.1,22.2z M196.8,156.9c7.2-1.4,26.4-3.3,18.7,18.8C207.2,176,198,165.4,196.8,156.9z M70.1,64
				c7.9-1.1,15.4,3.8,16,25.8c-3.6-3.1-8.8-5.2-16-4C70.3,79.5,70.3,72.2,70.1,64z M176.8,81.7c-4.5-6.5-12.7-11.3-12.7-11.3
				c-2-1.6-3.9-2.5-5.7-2.9c-0.7-1.7-1.2-3.4-1.4-5.1C164.1,61,184.8,58.5,176.8,81.7z M276.2,158.4c0.7-0.4,1.4-0.9,2.1-1.2
				c0.6,2.4,1.5,4.9,2.9,7.7c4,8.3,13.6,9,22.4,6.6c0.7,0.6,1.4,1.2,2.1,1.7c-0.1,0.1-0.2,0.1-0.2,0.2
				C295.8,180.5,272.6,169.4,276.2,158.4z"/>
			<path class="st0" d="M286.1,77.5c-1.2,6.6,5.9,25.3,18.1,23.2c4.8-0.8,7.9-5.5,9.9-10.9c-11.5,0.9-18.2-16.9-17-23.3
				c0,0-2-36.2-26.5-25.5c-3.6,1.6-6.3,5.1-8.3,10C284.2,44.2,286.1,77.5,286.1,77.5z"/>
			<g>
				<g id="XMLID_10821_">
					<path id="XMLID_10829_" class="st7" d="M308.1,55.5c0,0-2-36.2-26.5-25.5s-10.7,113.1,51.4,98.3s37-95.2,37-95.2
						s-25.8-23-30.4,16.7c0,0-1.4,26.7-13.5,28.8S306.9,62.2,308.1,55.5z"/>
					<g id="XMLID_10827_">
						<path id="XMLID_10828_" class="st7" d="M276.8,77.7c0,0-42.8,42.3-34.1-36.7c0,0-10.2-24.4-30-14.3S189.8,162.2,285.5,127
							c0,0,25.8-9.8,32.7-14.9"/>
					</g>
					<path id="XMLID_10826_" class="st8" d="M238.1,43.1c0,0-4,1.9-5.2,3.8"/>
					<path id="XMLID_10825_" class="st8" d="M300.1,43.1c0,0-4,1.9-5.2,3.8"/>
					<path id="XMLID_10824_" class="st8" d="M243.1,87.1c0,0-4,1.9-5.2,3.8"/>
					<path id="XMLID_10823_" class="st8" d="M311.1,76.1c0,0-4,1.9-5.2,3.8"/>
					<path id="XMLID_10822_" class="st8" d="M364.1,34.1c0,0-4,1.9-5.2,3.8"/>
				</g>
				<g id="XMLID_10753_">
					<path id="XMLID_10820_" class="st8" d="M297.1,66.5c0,0-2-36.2-26.5-25.5s-10.7,113.1,51.4,98.3s37-95.2,37-95.2
						s-25.8-23-30.4,16.7c0,0-1.4,26.7-13.5,28.8S295.9,73.2,297.1,66.5z"/>
					<g id="XMLID_10818_">
						<path id="XMLID_10819_" class="st8" d="M265.8,88.7c0,0-42.8,42.3-34.1-36.7c0,0-10.2-24.4-30-14.3S178.8,173.2,274.5,138
							c0,0,25.8-9.8,32.7-14.9"/>
					</g>
					<line id="XMLID_10817_" class="st9" x1="222.1" y1="134.2" x2="226.1" y2="135.9"/>
					<path id="XMLID_10816_" class="st8" d="M315.3,107.4c0,0,1.6,3.3-1,4.7"/>
					<path id="XMLID_10815_" class="st8" d="M357.9,100.6c0,0-0.7,3-1.6,4"/>
					<path id="XMLID_10814_" class="st8" d="M334,59.4c0,0,1.3-5.6,0-5.6"/>
					<path id="XMLID_10813_" class="st8" d="M211.5,41c0,0,5.2,0.7,4.7,1.6"/>
					<path id="XMLID_10807_" class="st8" d="M245.2,107.7c0,0,6.1-0.9,6.5-2"/>
					<path id="XMLID_10806_" class="st8" d="M276.1,46.1c0,0-4,1.9-5.2,3.8"/>
					<line id="XMLID_10791_" class="st9" x1="315.1" y1="93.1" x2="319.3" y2="92"/>
					<line id="XMLID_10790_" class="st9" x1="324.2" y1="132.8" x2="328.4" y2="131.7"/>
					<path class="st0" d="M286.1,77.5c-1.2,6.6,5.9,25.3,18.1,23.2c4.8-0.8,7.9-5.5,9.9-10.9c-11.5,0.9-18.2-16.9-17-23.3
						c0,0-2-36.2-26.5-25.5c-3.6,1.6-6.3,5.1-8.3,10C284.2,44.2,286.1,77.5,286.1,77.5z"/>
				</g>
			</g>
			<path class="st0" d="M220.6,63c-7,63.9,19.7,48.4,30.1,40.2c-0.3-1.4-0.6-2.8-0.9-4.1c-11.1,3.7-23.2-1.6-18.2-47
				c0,0-10.2-24.4-30-14.3c-2.6,1.3-4.9,4.6-6.8,9.3C211.9,42.1,220.6,63,220.6,63z"/>
			<path class="st0" d="M359.1,44.2c0,0-19.7-17.6-27.8,4.5c8.2-1.2,16.8,6.5,16.8,6.5s14.5,46.6-5.9,75.3
				C378,105,359.1,44.2,359.1,44.2z"/>
			<g>
				<g id="XMLID_10643_">
					<path id="XMLID_10738_" class="st7" d="M203.1,33.5c-49.2-36.1-87.6,9.2-87.6,9.2S83.9,115,144,134.1
						C204,153.2,252.3,69.6,203.1,33.5z M176.2,83.3C164.8,113,129.7,66.4,154.7,63C154.7,63,187.6,53.6,176.2,83.3z"/>
					<path id="XMLID_10658_" class="st8" d="M195.1,34.1c0,0-4,1.9-5.2,3.8"/>
					<path id="XMLID_10657_" class="st8" d="M175.1,25.1c0,0-4,1.9-5.2,3.8"/>
				</g>
			</g>
			<g id="XMLID_10269_">
				<path id="XMLID_10642_" class="st10" d="M161.2,51.6"/>
				<path id="XMLID_10614_" class="st10" d="M192.1,44.5c-49.2-36.1-87.6,9.2-87.6,9.2S72.9,126,133,145.1
					C193,164.2,241.3,80.6,192.1,44.5z M165.2,94.3C153.8,124,118.7,77.4,143.7,74C143.7,74,176.6,64.6,165.2,94.3z"/>
				<path id="XMLID_10613_" class="st10" d="M172.8,39.9"/>
				<line id="XMLID_10612_" class="st9" x1="116.6" y1="130.5" x2="120.6" y2="132.3"/>
				<path id="XMLID_10611_" class="st10" d="M177,134.2c0,0-0.7,3.6-3.6,3.2"/>
				<path id="XMLID_10610_" class="st10" d="M169.7,94.9c0,0-0.7,3-1.6,4"/>
				<path id="XMLID_10274_" class="st10" d="M205.8,92.6c0,0,1.3-5.6,0-5.6"/>
				<path id="XMLID_10273_" class="st10" d="M169.9,39.1c0,0,5.2,0.7,4.7,1.6"/>
				<path id="XMLID_10272_" class="st10" d="M136.1,103.7c0,0,5.1,3.5,6.1,2.9"/>
				<path id="XMLID_10271_" class="st10" d="M113.4,54.7c0,0-4,1.9-5.2,3.8"/>
				<line id="XMLID_10270_" class="st9" x1="137.1" y1="70.3" x2="141.3" y2="69.2"/>
				<path class="st0" d="M192.1,44.5c-49.2-36.1-87.6,9.2-87.6,9.2s-0.3,0.6-0.7,1.6c14.6-11,43.4-24.8,77.3,0.1
					c27.7,20.3,24.5,55.7,5.7,79.4C214.6,112.8,224.5,68.3,192.1,44.5z"/>
			</g>
			<g>
				<g id="XMLID_10262_">
					<path id="XMLID_10268_" class="st7" d="M56.5,29.8c0,0-5.1-24.9-29.5-16.1s-12.4,103.1-1.1,110.4
						C37.1,131.4,68.7,176.4,56.5,29.8z"/>
					<path id="XMLID_10267_" class="st7" d="M50.9,75.1c0,0,42.8-42.3,34.1,36.7c0,0,10.2,24.4,30,14.3S138-9.4,42.2,25.7"/>
					<path id="XMLID_10266_" class="st8" d="M102.1,34.1c0,0-4,1.9-5.2,3.8"/>
					<path id="XMLID_10265_" class="st8" d="M40.1,16.1c0,0-4,1.9-5.2,3.8"/>
					<path id="XMLID_10264_" class="st8" d="M53.4,115.7c-1,0.7-2,1.5-2.5,2.3"/>
					<path id="XMLID_10263_" class="st8" d="M122.1,92.1c0,0-1.3,0.6-2.7,1.5"/>
				</g>
				<g id="XMLID_6178_">
					<path id="XMLID_10261_" class="st3" d="M45.5,40.8c0,0-5.1-24.9-29.5-16.1S3.6,127.8,14.9,135.1S57.7,187.4,45.5,40.8z"/>
					<path id="XMLID_10260_" class="st3" d="M39.9,86.1c0,0,42.8-42.3,34.1,36.7c0,0,10.2,24.4,30,14.3S127,1.6,31.2,36.7"/>
					<line id="XMLID_10259_" class="st9" x1="26.2" y1="134.2" x2="30.2" y2="135.9"/>
					<path id="XMLID_10258_" class="st3" d="M99.3,123.6c0,0,1.6,3.3-1,4.7"/>
					<path id="XMLID_10257_" class="st3" d="M108.8,83c0,0-0.7,3-1.6,4"/>
					<path id="XMLID_10256_" class="st3" d="M40.8,108.2c0,0,1.3-5.6,0-5.6"/>
					<path id="XMLID_10255_" class="st3" d="M70.9,69.8c0,0,5.2,0.7,4.7,1.6"/>
					<path id="XMLID_10254_" class="st3" d="M20,96.1c0,0,6.1-0.9,6.5-2"/>
					<path id="XMLID_6180_" class="st3" d="M50.9,38c0,0-4,1.9-5.2,3.8"/>
					<line id="XMLID_6179_" class="st9" x1="14.2" y1="44.5" x2="18.5" y2="43.4"/>
					<path class="st0" d="M42.5,33.2c-3.7-6.5-11.4-13.9-26.5-8.5c-4,1.4-7,5.2-9.2,10.4C20.7,30.9,28,38,31.5,44.2
						c72.8-18.7,80,65.1,68.4,94.5c1.4-0.4,2.8-0.9,4.3-1.7C123.1,127.3,126.7,11.6,42.5,33.2z"/>
				</g>
			</g>
			<path class="st0" d="M360.8,100.9c0,0-5.1-29-29.5-18.8c-3.5,1.5-6.3,5-8.4,10c-0.8,0.3-1.7,0.6-2.6,1c-0.4,0.2-0.8,0.4-1.2,0.6
				c-0.1,0.1-0.2,0.2-0.3,0.2c-0.3,0.2-0.5,0.4-0.8,0.6c-0.1,0.1-0.2,0.2-0.4,0.3c-0.3,0.2-0.5,0.4-0.7,0.7
				c-0.1,0.1-0.2,0.2-0.3,0.3c-0.3,0.3-0.5,0.5-0.7,0.8c-0.1,0.1-0.2,0.2-0.3,0.3c-0.3,0.3-0.5,0.7-0.8,1.1c0,0.1-0.1,0.1-0.1,0.2
				c-1,1.4-1.8,3.1-2.6,4.9l0,0l0,0c-1.5,3.6-2.7,8-3.6,12.9c-2.4-0.6-5-1.1-7.6-1.4c-19.7-2-33.5,3.7-42.9,11.8
				c-6.5-20.4-20.3-12.8-27.2-7.4c-26-11.5-47.2,0.9-57.5,9.3c-3.3-4.8-9.5-7.4-20.9-3.6c-0.8,0.3-1.5,0.6-2.3,0.9
				c-0.8-1.5-1.6-3-2.5-4.5c0.4-0.2,0.9-0.3,1.3-0.5c7-3,11.1-6.2,13.2-9.5c19.3-13.8-8.7-29.9-8.7-29.9c-7.3-5.7-13.3-2.9-17,3
				c-5.1,2.8-8.4,10.4-9.1,18.1c-10.5-4.9-23.9-6.1-41-1.8C82.6,94,74.9,86.6,59.8,92c-4,1.4-7,5.2-9.2,10.4
				c-0.6,0.2-1.2,0.4-1.8,0.6C24,112,36,206.4,47.3,213.7c7.1,4.6,22.4,24.3,29.5,1.1c8.5,1,16-10.3,14.7-61.3
				c10-1.5,19.4,6.9,14.9,47.8c0,0,10,23.9,29.4,14.6c2.9,4.4,6.1,6.8,9.3,6.2c5.8-1.2,10.5-3.7,14-8.3c4.9,5.3,11.8,9.8,21.2,12.8
				c13.4,4.3,26.1,2.7,37-2.4c-0.6,9.4-2.4,17.7-6.4,24.4c-0.9,0.5-1.8,1-2.7,1.5c-9.3,4.6-13.7,9.1-15.1,13.2
				c-28.3,16.6,4.1,31.7,4.1,31.7c19.9,0.1,32.6-5.6,40.7-15.5l0,0c0.9-1,1.7-2.1,2.4-3.3c14.2-9.3,19.6-26.2,21.3-47.5
				c2.3,0.6,4.5,1,6.5,1.3c3,0.6,6.2,1,9.6,0.9c0.2,0,0.3,0,0.3,0l0,0c3.7-0.1,7.6-0.5,11.8-1.5c10.5-2.4,19-7.5,25.4-14.3
				c1.3,3.4,2.6,5.8,3.9,6.8c4.4,3.3,11.8,13.2,18.5,14.1l0,0c0.5,0.1,1,0.1,1.5,0l0,0c0.2,0,0.3,0,0.5-0.1l0,0
				c0.5-0.1,1-0.2,1.4-0.4l0,0c0.1-0.1,0.3-0.1,0.4-0.2c0,0,0,0,0.1,0c0.5-0.2,0.9-0.6,1.4-0.9l0,0c0.1-0.1,0.3-0.2,0.4-0.4
				c0,0,0,0,0.1-0.1s0.3-0.3,0.4-0.4l0,0c0.3-0.3,0.6-0.7,0.8-1.1c0,0,0-0.1,0.1-0.1c0.1-0.2,0.2-0.3,0.3-0.5l0.1-0.1
				c0.1-0.2,0.2-0.4,0.3-0.6c0,0,0-0.1,0.1-0.1c0.3-0.5,0.5-1,0.8-1.5c0,0,0-0.1,0.1-0.1c0.1-0.2,0.2-0.4,0.3-0.7
				c0-0.1,0.1-0.1,0.1-0.2c0.1-0.2,0.2-0.5,0.3-0.7c0-0.1,0-0.1,0.1-0.2c0.2-0.6,0.5-1.3,0.7-2c0-0.1,0-0.1,0.1-0.2
				c0.1-0.2,0.1-0.4,0.2-0.6C359,227.3,368.4,207.3,360.8,100.9z M271.2,163.4c1.4-0.9,2.9-1.8,4.5-2.4l0,0c0,0,5.1-2.6,9.3-1.1
				c1.6,0.6,3.1,1.8,4.1,4c0,0.1,0.1,0.2,0.2,0.4c0.5,1,1.1,2.2,1.8,3.3c2.2,3.6,5.7,7.7,9.7,10.6c-0.1,0.1-0.2,0.1-0.2,0.2
				C290.8,185.5,267.6,174.4,271.2,163.4z M191.8,161.9c7.2-1.4,26.4-3.3,18.7,18.8C202.2,181,193,170.4,191.8,161.9z"/>
			<g>
				<g id="XMLID_6176_">
					<path id="XMLID_6177_" class="st7" d="M169.8,156.7c0,0,7-36.2-23.7-26s-12.1,89.7,4.1,86.3C166.4,213.7,173.8,201,169.8,156.7
						z"/>
				</g>
			</g>
			<path id="XMLID_6175_" class="st7" d="M296.7,136.4c0,0-9-6.3-12.9-1.4c-3.9,5-10.6,13.4-2.6,29.8c7.9,16.5,37.7,2.9,40.6-4.8"/>
			<path id="XMLID_6172_" class="st1" d="M316.8,266.2c-1.2-9.1-3.3-12.8-6.1-14.4c0,0-14.6-5.4-18.6,8.4s8.3,16.5,9.9,16.4
				C303.7,276.5,318,275.3,316.8,266.2z M307.4,265.3c-0.4,0.8-1.3,1.4-3.7,2c-2.4,0.5-3.1-3.3-3.1-3.7c-0.1-0.4,0.4-3.8,4.2-3
				C308.5,261.3,307.4,265.3,307.4,265.3z"/>
			<g>
				<g id="XMLID_6160_">
					<path id="XMLID_6163_" class="st1" d="M339.1,270.4"/>
					<path id="XMLID_6162_" class="st1" d="M347.6,269.9c0-3.6-0.3-8.6,1.1-9.7c1.8-1.5,7.9-0.9,7,2.9c-0.5,2.2-0.5,4.7-0.5,6.4
						c0,1.2,0.1,2.2,0.1,2.5c0,1,0.4,3,3.7,3.3c4.4,0.5,5-0.9,5-4s3.6-18-9.1-20.6c-8.9-1.8-13.6,3.2-15.6,7.3"/>
					<path id="XMLID_6161_" class="st1" d="M348,259.6"/>
				</g>
				<g id="XMLID_6155_">
					<path id="XMLID_6159_" class="st1" d="M346.3,256c-1.4-2.4-3.8-4.4-7.7-5.2c-12.7-2.6-16.8,8.8-16.8,11.5
						c0,1.5,0.3,5.1,0.9,8.1"/>
					<path id="XMLID_6158_" class="st1" d="M322.8,270.4c0.5,2.6,8.5,0.6,8.5-0.5c0-3.6-0.3-8.6,1.1-9.7c1.5-1.2,5.8-1,6.9,1.1
						c0.2,0.5,0.3,1.1,0.2,1.8c-0.5,2.2-0.5,4.7-0.5,6.4c0,1.2,0.1,2.2,0.1,2.5c0,1,0.4,3,3.7,3.3c4.4,0.5,5-0.9,5-4
						c0-1.6,0.9-6.1,0.2-10.6"/>
					<path id="XMLID_6157_" class="st1" d="M331.8,259.6"/>
					<path id="XMLID_6156_" class="st1" d="M331.8,259.6c0.2,5.1-0.1,11-0.7,13.2c0,0-2.4,4.3-6.1,2.3s-4-22.7-1.7-23.6
						s6.7-3,7.8,1.8"/>
				</g>
			</g>
			<path id="XMLID_6154_" class="st1" d="M282.5,265c-0.6,0.2-1.2,1-1.8,1.7c-0.2,0.2-0.3,0.4-0.5,0.6c-0.1,0.2-0.6,0.6-0.7,0.6
				c-1.9,0.9-5.5,1.9-7-1.9c-0.1-0.3-0.3-1.4-0.3-1.7c0-0.5,0-1.1,0.1-1.5c0.4-4,1.7-5.8,3-6c1.5-0.2,4.4,0.9,5.2,2.8
				c0,0,0.8,3.6,2.8,3.1s5.8-2.6,2.8-6.5s-6-8-14.3-5.1c-8.4,2.9-6.8,13.5-6.5,14.3c0.3,0.7,4.7,15.5,16,8.9
				C292.8,267.9,283.7,264.6,282.5,265z"/>
			<path class="st0" d="M68.9,117.7c-3.7-6.5-11.4-13.9-26.5-8.5c-4,1.4-7,5.2-9.2,10.4c13.9-4.2,21.2,2.9,24.7,9.1
				c72.8-18.7,80,65.1,68.4,94.5c1.4-0.4,2.8-0.9,4.3-1.7C149.6,211.8,153.2,96.1,68.9,117.7z"/>
			<path id="XMLID_6153_" class="st11" d="M285.7,147.4c0,0-9-6.3-12.9-1.4c-3.9,5-10.6,13.4-2.6,29.8c7.9,16.5,37.7,2.9,40.6-4.8"
				/>
			<path class="st0" d="M283.7,195.2c-0.1,0.1-0.2,0.1-0.2,0.2c-9.7,7.2-32.9-3.9-29.3-14.9c-4,2.6-7,5.7-7,5.7
				c-15.5,12.2,14,28.6,25.2,20.2c0.3-0.3,0.7-0.6,1-0.9c3.3-2.8,7.7-5.4,12-4.7c7.8,1.2,20.9,3,21.9,18.2c-1.4,2.9-3.1,5.6-5,8.2
				c7-5.1,12.3-11.7,16-19.2c-0.7-9.6-6.1-13.8-12-16c-1.4,1.3-3.2,2.7-5.4,4.3C295.1,200.5,288.9,198.9,283.7,195.2z"/>
			<g>
				<g id="XMLID_6147_">
					<path id="XMLID_6152_" class="st7" d="M83,114.4c0,0-5.1-24.9-29.5-16.1S41,201.4,52.3,208.7S95.2,260.9,83,114.4z"/>
					<path id="XMLID_6151_" class="st7" d="M77.4,159.7c0,0,42.8-42.3,34.1,36.7c0,0,10.2,24.4,30,14.3
						c19.9-10.2,22.9-135.5-72.8-100.3"/>
					<path id="XMLID_6150_" class="st8" d="M123.1,113.1c0,0-4,1.9-5.2,3.8"/>
					<path id="XMLID_6149_" class="st8" d="M139.1,128.1c0,0-4,1.9-5.2,3.8"/>
					<path id="XMLID_6148_" class="st8" d="M65.1,101.1c0,0-2.3,1.1-3.9,2.5"/>
				</g>
				<g id="XMLID_6136_">
					<path id="XMLID_6146_" class="st12" d="M72,125.4c0,0-5.1-24.9-29.5-16.1S30,212.4,41.3,219.7S84.2,271.9,72,125.4z"/>
					<path id="XMLID_6145_" class="st12" d="M66.4,170.7c0,0,42.8-42.3,34.1,36.7c0,0,10.2,24.4,30,14.3
						c19.9-10.2,22.9-135.5-72.8-100.3"/>
					<line id="XMLID_6144_" class="st9" x1="54.1" y1="222.1" x2="58.1" y2="223.9"/>
					<path id="XMLID_6143_" class="st12" d="M127.2,211.6c0,0,1.6,3.3-1,4.7"/>
					<path id="XMLID_6142_" class="st12" d="M136.7,171c0,0-0.7,3-1.6,4"/>
					<path id="XMLID_6141_" class="st12" d="M68.7,196.2c0,0,1.3-5.6,0-5.6"/>
					<path id="XMLID_6140_" class="st12" d="M98.8,157.7c0,0,5.2,0.7,4.7,1.6"/>
					<path id="XMLID_6139_" class="st12" d="M47.9,184.1c0,0,6.1-0.9,6.5-2"/>
					<path id="XMLID_6138_" class="st12" d="M78.8,125.9c0,0-4,1.9-5.2,3.8"/>
					<line id="XMLID_6137_" class="st9" x1="42.1" y1="132.5" x2="46.4" y2="131.4"/>
					<path class="st0" d="M68.5,117.2c-3.7-6.5-11.4-13.9-26.5-8.5c-4,1.4-7,5.2-9.2,10.4c13.9-4.2,21.2,2.9,24.7,9.1
						c72.8-18.7,80,65.1,68.4,94.5c1.4-0.4,2.8-0.9,4.3-1.7C149.1,211.3,152.7,95.6,68.5,117.2z"/>
				</g>
				<path id="XMLID_6135_" class="st8" d="M147.4,193.7c-1,0.7-2,1.5-2.5,2.3"/>
				<path id="XMLID_6134_" class="st8" d="M80.1,200.1c0,0-1.3,0.6-2.7,1.5"/>
			</g>
			<g>
				<g>
					<g id="XMLID_6132_">
						<path id="XMLID_6133_" class="st7" d="M169.8,156.7c0,0,7-36.2-23.7-26s-12.1,89.7,4.1,86.3
							C166.4,213.7,173.8,201,169.8,156.7z"/>
					</g>
				</g>
				<g>
					<g id="XMLID_6130_">
						<path id="XMLID_6131_" class="st13" d="M158.8,167.7c0,0,7-36.2-23.7-26s-12.1,89.7,4.1,86.3
							C155.4,224.7,162.8,212,158.8,167.7z"/>
					</g>
					<line id="XMLID_6129_" class="st9" x1="132.9" y1="218.1" x2="136.9" y2="219.9"/>
					<path id="XMLID_6128_" class="st13" d="M153.1,205.5c0,0,1.6,3.3-1,4.7"/>
					<path id="XMLID_6127_" class="st13" d="M128.4,158.5c0,0-0.7,3-1.6,4"/>
					<path id="XMLID_6126_" class="st13" d="M154,160.5c0,0,1.3-5.6,0-5.6"/>
					<path id="XMLID_6125_" class="st13" d="M140.1,144.5c0,0,5.2,0.7,4.7,1.6"/>
				</g>
				<g>
					<path id="XMLID_6124_" class="st7" d="M147.1,87.4c0,0,34.5,19.7,0.5,34.3S124,69.3,147.1,87.4z"/>
					<path id="XMLID_6123_" class="st8" d="M156.1,101.1c0,0-4,1.9-5.2,3.8"/>
				</g>
				<g>
					<path id="XMLID_6122_" class="st14" d="M142.1,92.4c0,0,34.5,19.7,0.5,34.3S119,74.3,142.1,92.4z"/>
					<path id="XMLID_6121_" class="st14" d="M136,124.6c0,0,6.1-0.9,6.5-2"/>
					<path id="XMLID_6120_" class="st14" d="M132.8,94.8c0,0-4,1.9-5.2,3.8"/>
				</g>
				<path id="XMLID_6119_" class="st8" d="M156.7,134.9c-1.3,0.7-3.1,1.9-3.8,3.1"/>
				<path id="XMLID_6118_" class="st8" d="M165.1,200.1c0,0-1,0.5-2.2,1.2"/>
				<path class="st0" d="M158.8,167.7c0,0,7-36.2-23.7-26c-5.5,1.9-9.4,6-12.1,11.4c0.4-0.1,0.7-0.3,1.1-0.4
					c30.6-10.3,23.7,26,23.7,26c2.2,24,1,38.7-3.1,47.7C157,221.1,162.3,206.6,158.8,167.7z"/>
				<path class="st0" d="M137.1,97.4c0,0,21.7,12.4,13.7,24.9c19.3-13.8-8.7-29.9-8.7-29.9c-7.3-5.7-13.3-2.9-17,3
					C128.4,93.6,132.5,93.8,137.1,97.4z"/>
			</g>
			<g>
				<g id="XMLID_6113_">
					<path id="XMLID_6115_" class="st7" d="M237.5,132.7c-43.5-31.9-77.4,8.1-77.4,8.1s-27.8,63.8,25.2,80.7
						C238.4,238.5,281,164.6,237.5,132.7z M215,177.2c-11,28.8-45-16.4-20.8-19.7C194.2,157.5,226,148.4,215,177.2z"/>
					<path id="XMLID_6114_" class="st7" d="M220.5,128.6c0,0,33.9-36.2,34.6,31.8s12.1,130-53,129.6c0,0-35.4-16.5,0-34
						c17.3-8.5,20.8-26.3,20.4-48.5"/>
				</g>
				<g id="XMLID_5195_">
					<path id="XMLID_6112_" class="st15" d="M199.2,150"/>
					<path id="XMLID_6109_" class="st15" d="M226.5,143.7c-43.5-31.9-77.4,8.1-77.4,8.1s-27.8,63.8,25.2,80.7
						C227.4,249.5,270,175.6,226.5,143.7z M204,188.2c-11,28.8-45-16.4-20.8-19.7C183.2,168.5,215,159.4,204,188.2z"/>
					<path id="XMLID_6108_" class="st15" d="M209.5,139.6"/>
					<path id="XMLID_6107_" class="st15" d="M209.5,139.6c0,0,33.9-36.2,34.6,31.8s12.1,130-53,129.6c0,0-35.4-16.5,0-34
						c17.3-8.5,20.8-26.3,20.4-48.5"/>
					<line id="XMLID_6106_" class="st9" x1="188" y1="292.2" x2="192.1" y2="293.9"/>
					<path id="XMLID_6105_" class="st15" d="M223,285.4c0,0,1.6,3.3-1,4.7"/>
					<path id="XMLID_6104_" class="st15" d="M240.5,251.3c0,0-0.7,3-1.6,4"/>
					<path id="XMLID_6103_" class="st15" d="M237.3,207.9c0,0,1.3-5.6,0-5.6"/>
					<path id="XMLID_5199_" class="st15" d="M162.6,222.2c0,0,5.2,0.7,4.7,1.6"/>
					<path id="XMLID_5198_" class="st15" d="M226.3,166.2c0,0,6.1-0.9,6.5-2"/>
					<path id="XMLID_5197_" class="st15" d="M163.1,149.5c0,0-4,1.9-5.2,3.8"/>
					<line id="XMLID_5196_" class="st9" x1="206.9" y1="196.6" x2="203.1" y2="198.8"/>
				</g>
				<path class="st0" d="M244.3,182.5c0.2-3.2,0.2-6.3-0.2-9.4c0-0.5,0-1.1,0-1.6c-0.6-53.4-21.7-42.5-30.6-35.4
					c-37-16.4-64.4,15.8-64.4,15.8s-0.3,0.7-0.8,1.9c11.2-8.1,30.7-17.1,54.1-6.8c9-7.1,30-18,30.6,35.4c0,0.5,0,1.1,0,1.6
					c0.4,3.1,0.4,6.3,0.2,9.4c1,40.8,4.2,78.3-10,99.7C249.9,275.9,245.5,231.6,244.3,182.5z"/>
				<path id="XMLID_5194_" class="st8" d="M245.1,128.1c0,0-4,1.9-5.2,3.8"/>
				<path id="XMLID_5193_" class="st8" d="M199.1,124.1c0,0-4,1.9-5.2,3.8"/>
				<path id="XMLID_5192_" class="st8" d="M193.1,188.1c0,0-4,1.9-5.2,3.8"/>
				<path id="XMLID_5191_" class="st8" d="M252.4,216c-1.2,0.7-2.8,1.8-3.5,2.9"/>
				<path id="XMLID_5190_" class="st8" d="M251.1,239.1c0,0-0.7,0.4-1.7,0.9"/>
			</g>
			<g>
				<g>
					<path id="XMLID_5189_" class="st7" d="M331.8,149.7L331.8,149.7c-5.7-15.2-18.2-27.1-37.3-29.1c-38-3.8-53.7,20.9-59.7,35.8
						c0,0-1.3,2.2-2.3,6.6c-0.8,2.6-1,4.8-0.8,5.8c-0.5,8.2,0.8,20.4,8.5,36.6c6.3,13.2,22.2,17.9,32.8,19.6c3,0.6,6.2,1,9.6,0.9
						c0.2,0,0.3,0,0.3,0l0,0c3.7-0.1,7.6-0.5,11.8-1.5c16.7-3.8,28.2-14.5,34.6-27.6c-1.1-15.2-14.1-17-21.9-18.2
						c-4.3-0.6-8.6,2-12,4.7c-0.4,0.3-0.7,0.6-1,0.9c-11.3,8.3-40.8-8-25.2-20.2c0,0,5.3-5.6,11.5-8.1l0,0c0,0,5.1-2.6,9.3-1.1
						c1.6,0.6,3.1,1.8,4.1,4c0,0.1,0.1,0.2,0.2,0.4c0.5,1,1.1,2.2,1.8,3.3c5.1,8.3,16.5,19.2,27,11.6c12.2-8.8,10.8-12.1,11.3-15.5
						l0,0C334.9,155.2,331.8,149.7,331.8,149.7z"/>
				</g>
				<g>
					<path id="XMLID_5188_" class="st11" d="M320.8,160.7L320.8,160.7c-5.7-15.2-18.2-27.1-37.3-29.1c-38-3.8-53.7,20.9-59.7,35.8
						c0,0-1.3,2.2-2.3,6.6c-0.8,2.6-1,4.8-0.8,5.8c-0.5,8.2,0.8,20.4,8.5,36.6c6.3,13.2,22.2,17.9,32.8,19.6c3,0.6,6.2,1,9.6,0.9
						c0.2,0,0.3,0,0.3,0l0,0c3.7-0.1,7.6-0.5,11.8-1.5c16.7-3.8,28.2-14.5,34.6-27.6c-1.1-15.2-14.1-17-21.9-18.2
						c-4.3-0.6-8.6,2-12,4.7c-0.4,0.3-0.7,0.6-1,0.9c-11.3,8.3-40.8-8-25.2-20.2c0,0,5.3-5.6,11.5-8.1l0,0c0,0,5.1-2.6,9.3-1.1
						c1.6,0.6,3.1,1.8,4.1,4c0,0.1,0.1,0.2,0.2,0.4c0.5,1,1.1,2.2,1.8,3.3c5.1,8.3,16.5,19.2,27,11.6c12.2-8.8,10.8-12.1,11.3-15.5
						l0,0C323.9,166.2,320.8,160.7,320.8,160.7z"/>
					<line id="XMLID_5187_" class="st9" x1="235.5" y1="215.5" x2="238.1" y2="219"/>
					<path id="XMLID_5186_" class="st11" d="M307.9,211.6c0,0,1.6,3.3-1,4.7"/>
					<path id="XMLID_5185_" class="st11" d="M320.3,169.6c0,0-0.7,3-1.6,4"/>
					<path id="XMLID_5184_" class="st11" d="M251.1,174.4c0,0,1.3-5.6,0-5.6"/>
					<path id="XMLID_5183_" class="st11" d="M279.5,157.8c0,0,5.2,0.7,4.7,1.6"/>
					<path id="XMLID_5182_" class="st11" d="M273.8,231.4c0,0,6.1-0.9,6.5-2"/>
					<path id="XMLID_5181_" class="st11" d="M242.3,150c0,0-4,1.9-5.2,3.8"/>
					<line id="XMLID_5180_" class="st9" x1="302.6" y1="183.6" x2="306.8" y2="182.4"/>
				</g>
				<path class="st0" d="M320.8,160.7L320.8,160.7c-5.7-15.2-18.2-27.1-37.3-29.1c-26.5-2.7-42.2,8.5-51.2,20.6
					c9.3-6.9,22.3-11.4,40.2-9.6c19.1,1.9,31.5,13.9,37.2,29.1l0,0c0,0,3.1,5.6,2.5,9l0,0c-0.2,1.5-0.1,3-0.9,4.9
					c0.2-0.1,0.4-0.2,0.6-0.4c12.2-8.8,10.8-12.1,11.3-15.5l0,0C323.9,166.2,320.8,160.7,320.8,160.7z"/>
				<path id="XMLID_5179_" class="st8" d="M330.1,155.1c0,0-4,1.9-5.2,3.8"/>
				<path id="XMLID_5178_" class="st8" d="M297.1,125.1c0,0-4,1.9-5.2,3.8"/>
				<path id="XMLID_5177_" class="st8" d="M270.1,186.1c0,0-4,1.9-5.2,3.8"/>
				<path id="XMLID_5176_" class="st8" d="M325.1,197.1c0,0-4,1.9-5.2,3.8"/>
			</g>
			<g>
				<g>
					<path id="XMLID_5175_" class="st7" d="M354.8,106.9c0,0-5.1-29-29.5-18.8s-12.4,120.4-1.1,129S367,278,354.8,106.9z"/>
				</g>
				<g>
					<path id="XMLID_5174_" class="st16" d="M343.8,117.9c0,0-5.1-29-29.5-18.8s-12.4,120.4-1.1,129S356,289,343.8,117.9z"/>
					<path id="XMLID_5173_" class="st16" d="M333.8,225.1c0,0,1.6,3.3-1,4.7"/>
					<path id="XMLID_5172_" class="st16" d="M341.7,172.9c0,0,0.4,3,0.1,4.3"/>
					<path id="XMLID_5171_" class="st16" d="M310.2,193.4c0,0,1.3-5.6,0-5.6"/>
					<path id="XMLID_5153_" class="st16" d="M317.2,105.1c0,0-4,1.9-5.2,3.8"/>
				</g>
				<path class="st0" d="M343.8,117.9c0,0-5.1-29-29.5-18.8c-3.5,1.5-6.3,5-8.4,10c22.2-7.1,26.9,19.8,26.9,19.8
					c4.7,65.4,2.9,98.2-1.6,113.2C342,244.3,351.4,224.3,343.8,117.9z"/>
				<path id="XMLID_5152_" class="st8" d="M349.4,189.9c1.3,0.1,2.7,0,3.7-0.4"/>
				<path id="XMLID_5145_" class="st8" d="M348.5,212.8c0,0,1.3,0.1,2.8,0.1"/>
				<path id="XMLID_5144_" class="st8" d="M349.5,102.9c0,0-4.4,0.7-6,2.3"/>
			</g>
			<path class="st0" d="M470.1,129.5c0.1-0.7,0.2-1.3,0.2-2v-0.1c0.2-1.4,0.3-2.7,0.4-4c0-0.5,0.1-0.9,0.1-1.4
				c0.1-0.9,0.1-1.8,0.2-2.6c0-0.5,0.1-1,0.1-1.6c0-0.8,0.1-1.6,0.1-2.3c0-0.5,0-1.1,0-1.6c0-0.7,0-1.4,0-2.2c0-0.5,0-1.1,0-1.6
				c0-0.7,0-1.4,0-2c0-0.5,0-1-0.1-1.6c0-0.7-0.1-1.3-0.1-1.9c0-0.5-0.1-1-0.1-1.5c-0.1-0.6-0.1-1.3-0.2-1.9c0-0.5-0.1-1-0.2-1.5
				c-0.1-0.6-0.1-1.2-0.2-1.8c-0.1-0.5-0.1-0.9-0.2-1.4c-0.1-0.6-0.2-1.2-0.3-1.8c-0.1-0.4-0.1-0.9-0.2-1.3
				c-0.1-0.6-0.2-1.2-0.4-1.8c-0.1-0.4-0.2-0.8-0.2-1.2c-0.1-0.7-0.3-1.3-0.5-2c-0.1-0.3-0.2-0.6-0.2-0.9c-0.2-0.8-0.5-1.7-0.7-2.5
				c0-0.1-0.1-0.2-0.1-0.3c-0.3-0.9-0.6-1.8-0.9-2.7c-0.1-0.2-0.1-0.3-0.2-0.5c0-0.1,0-0.1-0.1-0.2h0.1l0,0c0.3,0.1,0.4,0.2,0.4,0.2
				s1.9-16-0.7-24.4c-0.3-2.9-1.5-6.4-4-11c0-0.1,0-0.1,0-0.1l0,0c-0.5-1-1.1-1.9-1.8-3c-6-9.5-15-16-24.2-20.2
				c-0.7-3.9-4.1-7.7-9-5.7c0,0-0.7,0.6-1.5,1.6C387,2,374.7,26,371,46.6c-3.6,0.1-6.9,0.3-10,0.5c-31.9,2-23.4,14.2-23.4,14.2l0,0
				c0.9,1.8,3.8,3.5,7,5c2.7,1.4,6.3,2.9,11,4.1c-7.6,14.3-10.5,31.5-10.9,48.6c-6.8-6.3-14.9-10.6-15.2,3.6
				c-0.6,25,6.2,52,15.1,48.6c1.8-0.7,3.3-1.6,4.4-2.5c2,11.2,4.1,20,5,24.7c1.1,5.6,3.3,11.6,6.5,17.4l0,0l0,0
				c0.2,0.4,0.5,0.8,0.7,1.2c0.1,0.2,0.3,0.5,0.4,0.7c0.2,0.4,0.5,0.8,0.7,1.2c0.2,0.2,0.3,0.5,0.5,0.7c0.5,0.7,1,1.5,1.5,2.2
				c0.1,0.2,0.3,0.4,0.4,0.5c0.3,0.3,0.5,0.7,0.8,1c0.2,0.3,0.4,0.5,0.6,0.8c0.3,0.3,0.5,0.7,0.8,1c0.2,0.3,0.5,0.6,0.7,0.8
				c0.3,0.3,0.5,0.6,0.8,0.9c0.5,0.5,1,1,1.5,1.5c0.3,0.3,0.5,0.5,0.8,0.8s0.6,0.6,0.9,0.9c0.3,0.3,0.6,0.5,0.9,0.8s0.7,0.6,1,0.9
				c0.3,0.2,0.5,0.5,0.8,0.7c0.6,0.5,1.2,0.9,1.8,1.4c0.2,0.2,0.5,0.4,0.7,0.5c0.4,0.3,0.9,0.6,1.3,0.9c0.3,0.2,0.6,0.4,0.9,0.6
				c0.4,0.3,0.9,0.6,1.4,0.8c0.3,0.2,0.5,0.3,0.8,0.5c0.4,0.3,0.9,0.5,1.3,0.7l0,0c-0.3,0.8-0.4,1.8,0,2.8c0,3.9,0,7.3,0.1,8.9
				c0.1,22.5,33.5,40.4,46.7,11.1l3.9-13.9c0.1-1.6,0-4.3-0.2-7.3c10.5-3.5,17.1-8.3,21.6-16.7c0.3-0.6,0.6-1.2,0.9-1.8
				c0.4-0.9,0.9-1.9,1.3-2.9c1.2-2.9,2.2-6.2,3.1-10c0.6-2.4,1.1-4.9,1.6-7.6c0.9-4.7,1.7-9.9,2.4-15.7c0.6,0.4,1.3,0.8,2.1,1.2
				c8.6,4.1,17.7-22.2,19.2-47.2C486.5,119.4,477.6,123.6,470.1,129.5z"/>
			<g id="XMLID_5029_">
				<path id="XMLID_5142_" class="st17" d="M422.5,252.9c0.3-4.8-1.3-18.5-1.6-22.9c-0.3-4.1-0.9-7.5-1.7-10.5
					c15.8-26.9-27.8-57.8-43.3-23.2c-4.8,10.8-4.2,31.7-4.1,35.2c0.1,4.6,0.2,20.2,0.2,24.2c0.1,22.5,33.5,40.4,46.7,11.1"/>
				<g id="XMLID_5030_">
					<g id="XMLID_5114_">
						<path id="XMLID_5123_" class="st17" d="M343.6,140.8c0,0-24.2-32.1-24.8-7c-0.6,25,6.2,52,15.1,48.6
							c8.9-3.4,9.1-10.8,9.1-10.8"/>
						<path id="XMLID_5116_" class="st17" d="M335.6,142.5c0,0-9.5-14.7-11.8-7.8"/>
						<path id="XMLID_5115_" class="st17" d="M339.2,152.7c0,0-13.9-3.6-11.9,4.4s7,13.4,9.4,4.5"/>
					</g>
					<path id="XMLID_5113_" class="st18" d="M416.2,28.3c0,0-9.1,8,2.2,11.6S426,24.2,416.2,28.3z"/>
					<path id="XMLID_5112_" class="st17" d="M397,47.7c0,0,72.5,5.2,62.4,90.8s-7.4,101.3-48.3,110c-40.9,8.7-63.3-21.2-67.8-44
						S306,59,397,47.7z"/>
					<path class="st0" d="M427.9,58.3c8,13.3,12.6,32,9.5,58.2c-10.1,85.6-7.4,101.3-48.3,110c-15.9,3.4-28.9,0.9-39.3-4.6
						c10,17.8,30.4,33.2,61.3,26.6c40.9-8.7,38.2-24.4,48.3-110C464.9,92.3,446.2,69.5,427.9,58.3z"/>
					<path id="XMLID_5090_" class="st3" d="M455.3,68.2c-0.3-2.9-1.5-6.4-4-11c0-0.1,0-0.1,0-0.1l0,0c-0.5-1-1.1-1.9-1.8-3
						c-8.1-12.7-21.4-20-33.4-23.8C364,7,358.7,56.3,358.6,75c0,1.8,23.4-0.2,44.8-5.5C430.5,80.4,456,92.6,456,92.6
						S457.9,76.6,455.3,68.2z"/>
					<path id="XMLID_5089_" class="st17" d="M409.7,145.9c0,0,12.9,9.7,29.6,3.7"/>
					<path id="XMLID_5088_" class="st17" d="M405.1,152.3c0,0-13.1-16.3-12.6-25.3"/>
					<path id="XMLID_5087_" class="st17" d="M378,146.4c0,0-20.9,4.5-25.3,2.6"/>
					<g id="XMLID_5084_">
						<path id="XMLID_5086_" class="st17" d="M382.3,154.1c0.5,4.3,1.9,7.3,4.7,7.8c1.6,0.3,2.9,0.2,3.9,0c0.9-0.2,1.6-0.5,2.2-0.8"
							/>
						<path id="XMLID_5085_" class="st17" d="M396.4,102.4c0,0-10,26.6-12.8,45.4"/>
					</g>
					<path id="XMLID_5083_" class="st17" d="M373.7,241.1c0,0-8.6,7.9,9.2,11.4c17.8,3.5,29.5-1.2,26-7.9"/>
					<path id="XMLID_5082_" class="st3" d="M345.7,81.8c0,0,27.7-11.3,60.3-4.1c32.6,7.2,49.5,14.8,49.5,14.8
						c-10.3-36-73.5-36.3-105.4-34.2c-31.9,2-23.4,14.2-23.4,14.2S331.6,78.4,345.7,81.8z"/>
					<path id="XMLID_5081_" class="st17" d="M345.7,81.8c0,0-55-15.3,21.1-18.6s88.7,29.3,88.7,29.3S385.2,62,345.7,81.8z"/>
					<g id="XMLID_5075_">
						<path id="XMLID_5080_" class="st17" d="M377.6,156.3c0,0-9.6,11.2,5.9,14.4"/>
						<path id="XMLID_5079_" class="st17" d="M404.2,156.3c0,0,10.2,8.5-4.2,14.4"/>
						<path id="XMLID_5078_" class="st17" d="M399.5,165.7c-2.2,0.5-4.4-2.8-2.9-2.4s3.6-2.6,5.3,0"/>
						<path id="XMLID_5077_" class="st17" d="M383.6,164.7c1.2,0.7-1.7,2.4-1.7,2.4c-2.9-0.2-3.6-2.5-2.1-3.7"/>
						<path id="XMLID_5076_" class="st17" d="M392.4,150.5c0,0,3-0.1,3.7,1"/>
					</g>
					<path id="XMLID_5074_" class="st17" d="M371.9,163.2c0,0-8.4,4.2-10.8,5.1"/>
					<line id="XMLID_5073_" class="st4" x1="347.2" y1="166.8" x2="350.7" y2="168.3"/>
					<path id="XMLID_5072_" class="st17" d="M410.2,160.9c0,0,9.8,4.7,10.8,4.6"/>
					<path id="XMLID_5071_" class="st17" d="M452.1,118.9c0,0,1.4,2.9-0.8,4.1"/>
					<path id="XMLID_5070_" class="st17" d="M444.4,148c0,0-0.6,2.6-1.4,3.5"/>
					<path id="XMLID_5069_" class="st17" d="M445.3,97.5c0,0,1.1-4.9,0-4.9"/>
					<path id="XMLID_5068_" class="st17" d="M374.6,81.1c0,0,4.6,0.6,4.1,1.4"/>
					<path id="XMLID_5067_" class="st17" d="M402.6,89.7c0,0,5.3-0.8,5.6-1.8"/>
					<path id="XMLID_5066_" class="st17" d="M362.5,220.1c0,0,3.8,0.8,4.1,1.7"/>
					<path id="XMLID_5065_" class="st17" d="M425,221.7c0,0-3.5,1.7-4.5,3.3"/>
					<path id="XMLID_5064_" class="st17" d="M352.7,136.5"/>
					<path id="XMLID_5063_" class="st17" d="M378,139.5"/>
					<line id="XMLID_5062_" class="st4" x1="434.5" y1="167.7" x2="438.2" y2="166.7"/>
					<path id="XMLID_5061_" class="st17" d="M449.2,149.9c0,0,26.9-29.9,25.3-4.9c-1.5,25-10.6,51.3-19.2,47.2s-8.1-11.6-8.1-11.6"
						/>
					<path id="XMLID_5060_" class="st17" d="M457,152.3c0,0,10.7-13.8,12.4-6.7"/>
					<path id="XMLID_5059_" class="st17" d="M452.5,162.1c0,0,14.1-2.4,11.4,5.4c-2.7,7.8-8.1,12.7-9.8,3.7"/>
					<g id="XMLID_5047_">
						<path id="XMLID_5058_" class="st19" d="M381.9,185.6c0,0,49.4-4.8,31.5,35.1S340.4,213.3,381.9,185.6z"/>
						<path id="XMLID_5057_" class="st19" d="M383.7,225.5c-4.9-2.1-10.5,12.8-15.6-1.1c-5.2-13.9,26.2-1.1,26.2-1.1s9.9,3.3,13.6,5
							"/>
						<path id="XMLID_5056_" class="st20" d="M408.6,228.6c1.8-2.1,3.5-4.7,4.9-7.9c17.9-39.9-31.5-35.1-31.5-35.1
							c-15.4,10.3-17.5,23.2-13.1,33.4c5.3-3.9,25.5,4.3,25.5,4.3s9.9,3.3,13.6,5"/>
						<g id="XMLID_5049_">
							<path id="XMLID_5055_" class="st21" d="M370.4,195.2c0,0,7.4-3,6.6,4.7C376.2,207.5,365.3,201.7,370.4,195.2z"/>
							<path id="XMLID_5054_" class="st21" d="M378.4,195.2c0,0,7.4-3,6.6,4.7C384.2,207.5,373.3,201.7,378.4,195.2z"/>
							<path id="XMLID_5053_" class="st21" d="M386.4,195.2c0,0,7.4-3,6.6,4.7C392.2,207.5,381.3,201.7,386.4,195.2z"/>
							<path id="XMLID_5052_" class="st21" d="M394.4,195.2c0,0,7.4-3,6.6,4.7C400.2,207.5,389.4,201.7,394.4,195.2z"/>
							<path id="XMLID_5051_" class="st21" d="M402.5,195.2c0,0,7.4-3,6.6,4.7C408.2,207.5,397.4,201.7,402.5,195.2z"/>
							<path id="XMLID_5050_" class="st21" d="M410.5,195.2c0,0,7.4-3,6.6,4.7C416.2,207.5,405.4,201.7,410.5,195.2z"/>
						</g>
						<path id="XMLID_5048_" class="st19" d="M378.6,195.4c0,0,6.9-2.7,6.6,3.9h0.1c-0.1-1.2,0.3-2.5,1.3-3.9c0,0,6.9-2.7,6.6,3.9
							h0.1c-0.1-1.2,0.3-2.5,1.3-3.9c0,0,6.8-2.7,6.6,3.9h0.1c-0.1-1.2,0.3-2.5,1.3-3.9c0,0,6.9-2.7,6.6,3.9h0.1
							c-0.1-1.2,0.3-2.5,1.3-3.9c0,0,1.7-0.7,3.4-0.5c-9-11.2-31.9-9-31.9-9c-4.3,2.9-7.5,6-9.9,9.1c2-0.4,5.2-0.3,5.1,4.3l0,0
							C377.2,198.1,377.5,196.8,378.6,195.4z"/>
					</g>
					<g id="XMLID_5042_">
						<path id="XMLID_5046_" class="st18" d="M374.7,190.3c0,0-26.6,3.5-11.8,13.1S374.7,190.3,374.7,190.3z"/>
						<path id="XMLID_5045_" class="st18" d="M370.7,182.5c0,0-21.9-1.2-11.8,10.1s28.2-0.3,29.6-5.1
							C389.9,182.7,370.7,182.5,370.7,182.5z"/>
						<path id="XMLID_5044_" class="st18" d="M414.5,188.1c0,0-10.7-3.6-8.8,10c1.8,13.5,20.3,11.2,21.4,7.3
							C428.2,201.5,430,195,414.5,188.1z"/>
						<path id="XMLID_5043_" class="st18" d="M405.4,184.5c0,0-31.1-3.9-0.4,11.1S440.9,189.2,405.4,184.5z"/>
					</g>
					<path id="XMLID_5041_" class="st17" d="M431.3,37.3c0,0,2.5,2,1.1,4.1"/>
					<line id="XMLID_5040_" class="st4" x1="366.3" y1="57.6" x2="367.8" y2="54"/>
					<g>
						<path id="XMLID_5039_" class="st21" d="M356.3,92.2c0,0,49.2-4.8,31.4,34.9C369.9,166.7,315,119.8,356.3,92.2z"/>
						<path id="XMLID_5038_" class="st18" d="M351.7,119.5c0,0,7.4-3,6.5,4.6C357.4,131.8,346.6,126.1,351.7,119.5z"/>
						<path id="XMLID_5037_" class="st21" d="M410.9,97.7c0,0-36.1,31.7,8.8,46.2C464.7,158.4,450.2,81.5,410.9,97.7z"/>
						<path id="XMLID_5036_" class="st18" d="M436,123.9c0,0,7.4-3,6.5,4.6C441.7,136.2,430.9,130.5,436,123.9z"/>
						<path id="XMLID_5035_" class="st18" d="M413.9,91.3c0,0-16.6,1.9-4.7,13.6c11.8,11.7,34.7,0.4,33.4-3.7
							C441.3,97,439.2,90.1,413.9,91.3z"/>
						<path id="XMLID_5034_" class="st18" d="M365.6,84.3c0,0-25.6-1.5-13.7,12.8s32.8-0.3,34.5-6.4
							C388.1,84.6,365.6,84.3,365.6,84.3z"/>
						<g id="XMLID_5031_">
							<path id="XMLID_5033_" class="st17" d="M441,142.6c0.3,0.1,0.6,0.2,1,0.3c1.3,0.3,2.4,0.5,3.7-0.9c3.1-3.4-4-4.4-4-4.4
								l-7.8-0.6c0,0-16.5-1.1-26.3,1.4c0,0,14.4,7.7,23.3,7.1c1-0.1,2-0.2,2.9-0.6C434.5,144.8,439.5,142.2,441,142.6z"/>
							<path id="XMLID_5032_" class="st17" d="M361.6,133c0,0,9.7-1.8,20.4,1.5c0,0-5.3,11.5-22.5,6.2c-5.6-1.7-6.8,1.5-9.9-1.9
								s4-4.4,4-4.4L361.6,133z"/>
						</g>
					</g>
				</g>
			</g>
		</g>
	</g>
	<path id="XMLID_3926_" class="st3" d="M259.3,274.5c-0.4,0.8-1.3,1.4-3.7,2s-3.1-3.3-3.1-3.7c-0.1-0.4,0.4-3.8,4.2-3
		C260.4,270.5,259.3,274.5,259.3,274.5z"/>
</g>
</svg>
