<?xml version="1.0" encoding="utf-8"?>
<!-- Generator: Adobe Illustrator 23.0.3, SVG Export Plug-In . SVG Version: 6.00 Build 0)  -->
<svg version="1.1" id="Layer_1" xmlns="http://www.w3.org/2000/svg" xmlns:xlink="http://www.w3.org/1999/xlink" x="0px" y="0px"
	 viewBox="0 0 354.2 294.4" style="enable-background:new 0 0 354.2 294.4;" xml:space="preserve">
<style type="text/css">
	.st0{opacity:0.1;}
	.st1{fill:#2C2C2C;}
	.st2{fill:#FFFFFF;}
</style>
<g id="Layer_5" class="st0">
</g>
<g id="Layer_3" class="st0">
</g>
<g>
	<g>
		<g>
			<g>
				<path class="st1" d="M211.2,225.4c-0.9-1.5-2.7-2.5-4.4-2.8c-0.6-0.1-1.1-0.2-1.7-0.2c-0.1,0-0.1,0-0.2,0
					c-0.6,0-1.2,0.1-1.8,0.2c-0.7,0.1-1.4,0.3-2.1,0.5c-1.3,0.4-2.5,0.9-3.8,1.4c-2.6,1.1-5.1,2.2-7.5,3.6c-2.3,1.3-4.5,2.8-6.4,4.6
					c-1.6,1.5-3,3.3-4.4,5c-1.6,2-3.1,4-4.7,6.1c-0.6,0.8-1.2,1.7-1.8,2.5c-0.6,0.9-1.2,1.8-1.7,2.7c-0.7,1.2-1.3,2.5-1.8,3.8
					c-1.7,3-3.2,6.2-4.7,9.3c-0.6,1.4-1.2,2.7-1.7,4.1c-0.4,1.1-0.8,2.2-1.2,3.3c-0.4,1.2-0.7,2.5-1,3.7c-0.3,1.5-0.5,3.1-0.7,4.6
					c-0.2,1.8-0.3,3.6-0.3,5.4c0,0.8,0,1.6,0.1,2.4c0.1,0.9,0.2,1.8,0.4,2.6c0.5,1.6,1.5,3.4,3.1,4.1c0.4,0.2,0.8,0.4,1.2,0.4
					c0.7,0.2,1.3,0.2,2,0c1-0.2,1.8-0.7,2.5-1.4c0.4-0.5,0.9-1.1,1.2-1.7c0.2-0.4,0.4-0.9,0.5-1.3c1-1.2,1.7-2.6,2.4-4
					c0.8-1.6,1.4-3.2,2-4.8c0.5-1.4,0.8-2.8,1.3-4.2c0.4-1.4,0.9-2.8,1.5-4.2c0.4-1.2,0.9-2.4,1.4-3.6c1.4-3.2,3.1-6.2,5-9.1
					c1-1.5,1.9-3.1,2.8-4.6c0.5-0.9,1-1.7,1.6-2.5c0.4-0.7,0.9-1.3,1.4-1.9c2.5-3,5.2-5.8,8.1-8.5c0.1-0.1,0.1-0.1,0.2-0.2
					c0.5-0.3,0.9-0.7,1.4-1c1-0.8,1.9-1.5,2.9-2.3c0.2-0.1,0.3-0.2,0.5-0.4c0.9-0.7,1.8-1.4,2.7-2.1c0.8-0.6,1.6-1.2,2.5-1.7
					c0.7-0.5,1.4-1,2-1.6c0.5-0.4,1-1,1.3-1.5s0.5-1,0.6-1.5c0.2-0.7,0.2-1.3,0-2C211.6,226.2,211.4,225.8,211.2,225.4z"/>
				<g>
					<path class="st1" d="M212.2,224.3c-3.3-4.1-8.4-3.7-12.9-2.2c-6.1,2.1-12.4,5-17.1,9.5c-10.3,10-18.7,24.7-22.7,38.5
						c-1.6,5.7-3.1,13.5-1,19.2c1.4,3.8,5.5,6.5,9.4,4.4c4.6-2.4,7-10.5,8.5-15.1c2.5-8.1,5.9-15.2,10.3-22.5
						c4.5-7.4,10.2-13.1,17-18.3c4.4-3.4,11-6.3,8.8-12.9c-0.6-1.8-3.5-1-2.9,0.8c1.8,5.4-9.5,10.7-13.2,14
						c-4.4,3.9-8.4,8.3-11.4,13.4c-3.8,6.2-7.4,12.2-9.8,19.1c-1,2.9-1.7,5.8-2.8,8.7c-1,2.6-3.6,8.9-6.3,10.1
						c-8.9,3.8-4-19.6-3-22.6c2.4-6.7,5.7-13.9,9.5-19.9c4.2-6.6,9.5-14,16.2-18.2c4.8-3,16.3-9.8,21.1-3.8
						C211.3,228,213.4,225.8,212.2,224.3z"/>
				</g>
			</g>
			<g>
				<path class="st1" d="M265.8,227.7c0-0.5,0-1.2-0.2-1.6c-0.1-0.5-0.4-1-0.6-1.5s-0.6-0.9-1-1.3c-0.2-0.2-0.4-0.4-0.6-0.5
					c-0.4-0.3-0.7-0.6-1.1-0.8s-1-0.5-1.3-0.6c-0.2-0.1-0.5-0.2-0.7-0.2c-0.6-0.1-1.2-0.2-1.8-0.3c-0.4,0-0.8-0.1-1.2-0.1
					c-0.1,0-0.3,0-0.4,0c-1.5,0.1-2.8,0.4-4.2,0.9c-0.8,0.3-1.5,0.6-2.3,0.9c-0.7,0.3-1.4,0.6-2,1c-1.9,1-3.5,2.4-5.1,3.8
					c-1,0.8-1.9,1.8-2.8,2.7c-0.1,0.1-0.1,0.1-0.2,0.2c-0.3,0.2-0.6,0.3-0.9,0.5c-1.1,0.7-2.2,1.5-3.2,2.3c-2,1.7-3.8,3.5-5.7,5.3
					c-0.9,0.9-1.7,1.8-2.5,2.7c-1,1.1-1.8,2.2-2.7,3.3c-0.8,1-1.6,2-2.3,3.1c-0.4,0.5-0.7,1.1-1,1.6c-0.5,0.7-0.8,1.6-1.1,2.4
					c-0.9,2.3-1.6,4.6-2.1,7c-0.5,2.3-1,4.6-1.6,6.9c-0.6,2.4-1.2,4.9-1.7,7.3c-0.3,1.5-0.5,3-0.7,4.5c-0.1,1.2-0.2,2.4-0.3,3.7
					c0,1.5,0.1,2.9,0.4,4.3c0.2,1.2,0.7,2.3,1.2,3.3c0.6,1,1.5,1.8,2.4,2.5c0.4,0.3,1,0.5,1.5,0.6c0.4,0.1,0.9,0.1,1.3,0.2
					c0.4,0,0.9,0,1.3-0.1c0.5-0.2,1-0.3,1.4-0.6c0.4-0.3,0.9-0.7,1.3-1c0.5-0.4,0.9-1,1.3-1.5c0.2-0.2,0.3-0.4,0.5-0.7
					c0.5-0.8,0.8-1.7,1.1-2.5c0.4-1.1,0.6-2.4,0.8-3.6c0.5-2.7,0.7-5.4,0.8-8.1c0-1.4,0.1-2.7,0.2-4.1c0.2-1.4,0.6-2.7,1.1-4
					c0.5-1,1-2.1,1.5-3.1c0.6-1.3,1.3-2.5,2-3.8c1.3-2.4,2.9-4.7,4.5-6.9c0.8-1,1.8-2,2.6-3c0.4-0.5,0.9-1.1,1.4-1.6
					s0.9-1.1,1.4-1.7c0.9-1.1,1.8-2.1,2.8-3.1s2-1.9,3.1-2.7c1.7-1.2,3.5-2.3,5.4-3.2c2.2-1,4.4-1.9,6.4-3.2
					C264.3,232,265.7,230,265.8,227.7z M258.4,226.9L258.4,226.9v-0.1C258.4,226.8,258.4,226.8,258.4,226.9z"/>
				<g>
					<path class="st1" d="M267.3,227.7c-0.4-12.2-16.1-8.2-22.3-3.7c-2.6,1.9-4.7,4.3-7.4,6.1c-3,2-5.6,4.6-8.1,7.2
						c-5.2,5.3-9.5,10.9-11.5,18.1c-2.1,7.6-11.7,35.4,2.4,37.7c4.7,0.7,8-3.5,9.4-7.5c1.2-3.6,1.5-7.6,1.6-11.3
						c0.2-4.7,1.1-8.2,3.3-12.4c3.6-7,8.9-14.1,14.8-19.5c5.4-5,16.5-6,17.8-14.3c0.3-1.9-2.6-2.7-2.9-0.8
						c-0.8,5.3-6.6,6.4-10.6,8.5c-2.8,1.5-5.2,3.2-7.4,5.4c-3.7,3.7-7.4,8.1-10.3,12.4c-3.2,4.8-6.8,10.6-7.4,16.4
						c-0.4,3.7-0.2,7.4-0.9,11.1c-0.7,3.8-5.2,14.1-10.2,6.4c-4.3-6.6,0.4-18.5,2-25.4c1-4.2,1.8-8.6,3.9-12.4
						c2.1-3.8,5.3-7.3,8.3-10.4c4.3-4.4,9.2-8.2,14-12.1c3.8-3.1,18.4-9.9,18.7,0.3C264.4,229.6,267.4,229.6,267.3,227.7z"/>
					<path class="st1" d="M257.6,225.6L257.6,225.6c0.7,0.6,1.5,1.1,2.2,1.7v-0.1c-1-0.1-2-0.3-2.9-0.4v0.1
						c-0.1,0.8,0.8,1.5,1.5,1.5c0.9,0,1.4-0.7,1.5-1.5v-0.1c0.1-0.7-0.6-1.4-1.3-1.5c-0.7-0.1-1.5,0.3-1.6,1.1v0.1
						c-0.1,0.6,0,1.2,0.5,1.6c0.5,0.3,1.1,0.4,1.7,0.1l0,0c0.7-0.4,1-1.3,0.5-2.1C259.3,225.4,258.3,225.1,257.6,225.6z"/>
				</g>
			</g>
			<g>
				<path class="st1" d="M307.4,227.7c-0.2-0.4-0.5-0.7-0.9-1c-0.3-0.3-0.6-0.5-1-0.7c-1.8-0.9-3.8-1.2-5.7-1.2
					c-1.2,0-2.3,0.2-3.5,0.4c-0.7,0.1-1.3,0.2-1.9,0.4c-1.2,0.2-2.3,0.7-3.4,1.1c-1.4,0.5-2.8,1.1-4.2,1.7c-1.4,0.7-2.5,1.6-3.7,2.5
					c-0.9,0.8-1.8,1.6-2.6,2.4c-0.9,0.9-1.7,1.7-2.6,2.6c-1.7,1.7-3.6,3.4-5.3,5c-1.7,1.6-3.5,3.3-5,5.2c-0.5,0.7-1,1.4-1.5,2.1
					c-0.3,0.5-0.6,1.1-1,1.6c-0.7,1.3-1.3,2.6-1.8,4c-0.7,2.1-1.3,4.2-1.8,6.4c-0.3,1.2-0.6,2.4-0.9,3.6s-0.4,2.4-0.6,3.5
					c-0.3,1.4-0.5,2.9-0.6,4.4c-0.2,2.4-0.3,4.9-0.3,7.4c0,1.2,0.1,2.3,0.2,3.5c0.1,0.8,0.2,1.7,0.4,2.5c0.1,0.4,0.2,0.8,0.3,1.2
					c0.2,0.5,0.4,1,0.7,1.5c0.3,0.4,0.6,0.7,0.9,1.1c0.3,0.3,0.7,0.6,1.1,0.8c0.5,0.3,1,0.5,1.6,0.6s1.2,0.2,1.7,0.1
					c0.6-0.1,1.1-0.1,1.7-0.3c0.5-0.2,1.1-0.4,1.6-0.7c1-0.6,1.8-1.5,2.5-2.4c0.6-0.8,0.9-1.7,1.3-2.7s0.4-2.1,0.6-3.1
					c0.1-0.6,0.1-1.2,0.1-1.8c0-1.2-0.1-2.3-0.2-3.5s-0.1-2.4-0.2-3.7c0-1.1,0.1-2.2,0.2-3.3c0.2-1.4,0.5-2.8,0.8-4.1
					c0.4-1.5,0.8-2.9,1.4-4.2c0.8-1.8,1.8-3.6,2.8-5.3s2.1-3.3,3.2-4.9c0.1-0.1,0.2-0.3,0.3-0.4c0.8-1.1,1.7-2.1,2.6-3.1
					c0.8-1,1.7-1.9,2.6-2.7c1.4-1,3-1.8,4.6-2.5c1-0.4,2-0.8,3-1.1c1.1-0.4,2.3-0.9,3.4-1.3c1.3-0.5,2.6-1.1,3.9-1.7
					c1.3-0.6,2.4-1.6,3.5-2.4c0.8-0.6,1.4-1.4,1.9-2.3c0.2-0.4,0.5-1,0.5-1.5c0.1-0.7,0.2-1.6,0-2.3
					C307.8,228.6,307.7,228.1,307.4,227.7z"/>
				<g>
					<path class="st1" d="M308.4,226.6c-3.5-4-9.2-3.6-14-2.5c-7.1,1.6-11.9,5.2-17,10.2s-11.2,9.5-14.4,16.1
						c-2.9,6-4.2,13.1-5,19.6c-0.7,5.3-1.9,13.6,1.2,18.4c2.6,4.2,8.3,4.3,11.9,1.3c4.9-4.2,3.6-11,3.6-16.6
						c-0.1-7.7,3-14.6,7.4-20.8c2.2-3.1,4.8-6.3,8.1-8.2c3.6-2,7.7-3,11.4-4.7c5-2.4,9.9-6.7,7.1-12.5c-0.8-1.7-3.4-0.2-2.6,1.5
						c3.5,7.3-14.2,11.2-18.1,13.5s-6.8,6.4-9.3,10.1c-3,4.5-5.3,9.1-6.4,14.4c-1.2,5.9,2.2,16.9-3.2,21
						c-10.9,8.2-8.3-15.5-7.7-19.7c1-6.8,2.5-14.1,6.6-19.7c2.3-3.2,5.4-5.7,8.2-8.4c2.6-2.5,5.1-5.3,7.9-7.6
						c4.7-3.9,17.1-9,22.2-3.3C307.6,230.2,309.7,228,308.4,226.6z"/>
				</g>
			</g>
		</g>
		<g>
			<path class="st1" d="M47.5,44.9c0-1.1,0.1-2.2,0.2-3.3c0.2-1.5,0.3-3,0.7-4.5c0.1-0.5,0.3-1,0.5-1.5c0.2-0.6,0.4-1.1,0.6-1.7
				c0.7-2,1.4-4,2.5-5.8c0.6-0.9,1.2-1.9,2-2.7c0.2-0.2,0.5-0.4,0.7-0.7c0.9-1.5,2-3,3.3-4.2c1.8-1.8,4.1-2.9,6.4-4
				c2.2-1,4.3-2,6.6-2.8c1.1-0.4,2.3-0.6,3.5-0.9c1.1-0.2,2.3-0.5,3.5-0.7c1.4-0.2,2.8-0.4,4.2-0.5c1.2-0.1,2.4-0.3,3.5-0.3
				c0.6,0,1.2,0,1.8,0c1.8,0,3.7,0.1,5.5,0.1c2.5,0.1,5,0.2,7.5,0.4c1.1,0.1,2.2,0.2,3.2,0.2c1.2,0.1,2.4,0.2,3.7,0.2
				c2.5,0,5,0.1,7.5,0.2c0.3,0,0.6,0,0.9,0.1c1.7,0,3.3-0.1,5-0.1c0.8,0,1.7,0,2.5,0c1.5,0,3.1,0,4.6,0.2c1.5,0.1,3,0.3,4.5,0.5
				c1.2,0.2,2.5,0.4,3.7,0.6c2.4,0.4,4.8,0.8,7.1,1.4c1.2,0.3,2.4,0.7,3.5,1.1s2.2,0.7,3.2,1.2c2.3,0.9,4.3,2.2,6.4,3.5
				c1.8,1.1,3.6,2.2,5.3,3.3c1.8,1.2,3.7,2.3,5.5,3.5c0.9,0.6,1.8,1.2,2.7,1.7c1.1,0.7,2.2,1.6,3.2,2.4c1.8,1.4,3.6,2.8,5.3,4.4
				c0.8,0.8,1.6,1.5,2.4,2.4c0.9,1.2,1.9,2.4,2.7,3.6c1.3,1.9,2.5,3.9,3.7,5.9c1.3,2.2,2.3,4.4,3.4,6.7c0.2,0.5,0.5,1,0.7,1.5
				c0.3,0.5,0.7,1.1,1,1.6c0.6,0.9,1.1,1.7,1.6,2.6c0.6,0.9,1.1,1.9,1.6,2.8c0.7,1.3,1.2,2.6,1.7,3.9c0.1,0.3,0.3,0.7,0.4,1
				c0.5,0.8,1,1.7,1.5,2.5c0.6,1,1.2,1.9,1.7,2.9c1.3,2.6,2.3,5.4,3.5,8.1c1,2.3,2,4.5,2.9,6.8s1.6,4.6,2.4,6.9
				c0.4,1.1,0.6,2.3,0.9,3.4c0.3,1.1,0.6,2.2,0.9,3.3c0.6,2.3,1.2,4.7,1.6,7c0.4,2.6,0.9,5.3,1.1,7.9c0.2,2.5,0.2,5,0.3,7.5
				c0.1,2.4,0.3,4.8,0.4,7.3c0.1,2.4,0.1,4.8,0,7.2c-0.1,1.2-0.1,2.4-0.2,3.6c-0.1,1.5-0.3,2.9-0.5,4.4c-0.2,1.2-0.4,2.3-0.6,3.5
				c-0.1,0.5-0.3,1-0.5,1.5c-0.1,0.1-0.1,0.3-0.2,0.4c0,0.1,0,0.2,0,0.3c0,0.6,0,1.2,0,1.8c-0.1,0.8-0.1,1.6-0.3,2.3
				c-0.2,0.9-0.5,1.7-0.9,2.5c-0.2,0.5-0.5,1-0.8,1.5c-0.8,1.3-1.9,2.3-3.2,3s-2.6,1.3-4,1.6s-2.8,0.5-4.3,0.6
				c-1.1,0.1-2.3,0-3.4-0.2c-1.5-0.2-2.9-0.4-4.3-0.9c-2.2-0.7-4.2-1.6-6.3-2.7c-1-0.5-1.9-1-2.8-1.5c-1.1-0.6-2.2-1.1-3.2-1.8
				c-2.1-1.4-3.9-3.1-5.5-5c-1.5-1.8-3-3.8-4.5-5.6s-3-3.5-4.6-5.1c-0.8-0.8-1.7-1.5-2.6-2.2c-0.9-0.8-1.8-1.6-2.7-2.4
				c-1.8-1.5-3.6-3-5.4-4.5c-1.6-1.3-3-2.8-4.4-4.4c-0.7-0.8-1.4-1.6-2.1-2.3c-0.8-0.8-1.7-1.6-2.6-2.3c-3.6-2.7-7.3-5.2-10.9-7.8
				c-0.2-0.1-0.3-0.2-0.5-0.3c-0.9-0.6-1.9-1.1-2.8-1.7c-1-0.6-1.9-1.2-2.8-1.8c-0.8-0.5-1.5-1.1-2.2-1.6c-0.9-0.7-1.8-1.3-2.7-2
				c-1.5-1.2-3.1-2.3-4.7-3.3c-1.7-1.1-3.4-2.1-5.1-3.2c-3.3-2.2-6.5-4.7-9.7-7.1c-1.9-1.4-3.9-2.7-6-3.9c-2.1-1.3-4.2-2.6-6.3-4
				C89,87.1,87,85.7,85,84.2c-1.9-1.4-4-2.6-5.9-3.8c-2.1-1.4-4.3-2.7-6.4-4.1c-2.3-1.6-4.5-3.3-6.7-5c-1.8-1.4-3.4-3.2-5.1-4.7
				c-1.8-1.5-3.6-3-5.4-4.6c-0.9-0.8-1.8-1.5-2.5-2.4c-0.9-1-1.8-2.1-2.6-3.2c-0.8-1.1-1.4-2.4-1.9-3.7c-0.2-0.5-0.4-1.1-0.5-1.7
				c-0.2-0.9-0.3-1.9-0.4-2.8C47.5,47.3,47.5,46.1,47.5,44.9z"/>
			<g>
				<path class="st1" d="M49,44.9c0.4-8.5,3.3-14.8,8.4-21.5c5.1-6.6,15.4-9.1,23.3-10.1c8.3-1,16.5,0,24.7,0.4
					c7.2,0.4,14.4,0,21.6,0.4c8.5,0.5,17.8,2.1,25.4,6.1c6.4,3.4,12.8,7.6,18.6,11.9c6.8,5.1,11.7,10.8,15.7,18.3
					c3.5,6.5,6.6,13.4,10.3,19.8c8,14,14.3,30.7,15.5,46.9c0.6,8.1,1,16.5,0.4,24.7c-0.2,3.6-1.2,6.8-1.8,10.2
					c-0.7,4.2-0.4,7.9-4.6,10.5c-7.9,5-18.2,0.3-25.2-3.9c-7-4.1-10.7-11.6-16.5-16.9c-5.6-5.1-11.3-9.9-16.7-15.2
					c-5.1-5.1-11.7-8.9-17.7-12.8c-7.1-4.5-14.2-9.6-21-14.6c-7.3-5.3-14.9-10-22.3-15.2c-7.9-5.5-16.3-10.1-23.4-16.7
					c-3.2-2.9-6.8-5.5-9.8-8.7C50.2,54.7,48.9,50.4,49,44.9c0-1.9-3-1.9-3,0c-0.1,7.8,2.6,13.1,8.4,18.3
					c6.6,5.9,13.2,11.7,20.7,16.6c15.8,10.2,31.8,20.4,46.9,31.7c7.4,5.5,15.9,10,22.9,16.2c3,2.7,5.4,5.9,8.5,8.5
					c3.8,3.2,7.8,6.2,11.3,9.7c3,3.2,5.5,6.8,8.4,10c2.8,3.2,6.2,5.2,9.9,7.2c6.3,3.3,12.9,5.7,20.1,4.1c6.2-1.3,10.3-5.5,10.9-12
					c0.3-3.2,1.2-6.2,1.6-9.5c0.6-4.9,0.7-9.8,0.5-14.7c-0.3-9-0.5-17.8-2.6-26.6c-2.3-9.4-5.7-18.2-9.4-27.1
					c-2.9-6.9-6.6-13.8-10.5-20.2c-4.6-7.5-7.5-15.9-14.1-22c-5.9-5.5-12.9-9.7-19.7-13.9c-8.1-5-15.7-7.8-25.1-9.2
					c-9.1-1.4-18.2-0.9-27.3-1.2c-10-0.4-19.8-1.7-29.7-0.1c-8.1,1.4-17.4,4.4-22.6,10.9c-5.7,7-8.7,14.2-9,23.3
					C45.9,46.8,48.9,46.8,49,44.9z"/>
			</g>
		</g>
		<g>
			<path class="st1" d="M335.9,216.3c0.2-1.1,0.4-2.1,0.6-3.2c0.1-0.8,0.1-1.6,0.2-2.5c0-0.8,0-1.6,0-2.3c0-1.3-0.2-2.5-0.2-3.8
				c-0.2-3.2-0.7-6.3-1.2-9.5c-0.5-3.3-1.2-6.6-2.1-9.7c-1.1-3.5-2.2-7.1-3.6-10.5c-0.3-0.8-0.7-1.7-1.1-2.5
				c-0.6-1.2-1.5-2.5-2.3-3.6c-0.4-0.6-0.9-1.2-1.4-1.8c-1-1.3-2.2-2.4-3.5-3.5s-2.5-2.2-3.9-3.2c-0.9-0.7-1.8-1.3-2.7-1.8
				c-0.7-0.6-1.5-1.2-2.2-1.8c-1.2-0.8-2.3-1.7-3.6-2.4c-1.3-0.9-2.7-1.7-4-2.6c-1.1-0.8-2.2-1.6-3.3-2.4c-2.6-1.8-5.4-3.4-8.2-4.8
				c-1.4-0.7-2.9-1.4-4.3-2.1c-1.4-0.7-2.9-1.4-4.3-2.1c-1.5-0.7-3-1.4-4.5-2c-0.2-0.1-0.5-0.2-0.8-0.3c-1.3-0.4-2.5-0.8-3.8-1.1
				c-1.6-0.4-3.2-0.9-4.9-1.3c-1.8-0.5-3.6-0.8-5.4-1.2c-0.6-0.2-1.3-0.3-1.9-0.5c-1.3-0.4-2.5-0.7-3.8-1c-1.5-0.3-3-0.4-4.5-0.7
				c-1.6-0.4-3.3-0.8-4.9-1c-1.1-0.2-2.2-0.4-3.3-0.6c-1.1-0.3-2.2-0.6-3.3-0.8c-1.3-0.3-2.5-0.6-3.8-1c-2.7-0.8-5.5-1.4-8.2-1.9
				c-1.8-0.4-3.7-0.8-5.5-1.1c-1.7-0.3-3.4-0.6-5.1-0.9c-2.8-0.6-5.6-1.3-8.3-1.9c-1.9-0.4-3.8-0.8-5.7-1.2
				c-1.6-0.3-3.2-0.6-4.8-0.8c-3-0.3-6-0.5-9.1-0.8c-1.6-0.1-3.2-0.2-4.7-0.4c-1.5-0.1-3-0.3-4.5-0.3c-2.1-0.1-4.3-0.1-6.4,0
				c-2,0.1-4.1,0.2-6.1,0.3c-6,0.3-12.1,0-18.1,0.5c-3,0.2-5.9,0.7-8.8,1.4c-1.6,0.4-3.2,1-4.8,1.5c-1.2,0.4-2.5,0.8-3.7,1.3
				c-2.6,0.8-5.2,1.5-7.8,2.2c-1.7,0.5-3.4,1.2-5.1,1.8c-1.5,0.5-2.9,1.1-4.3,1.7c-2.3,1-4.5,2.1-6.6,3.3c-0.5,0.2-1.1,0.3-1.6,0.5
				c-1.5,0.5-3,0.9-4.5,1.3c-1.7,0.5-3.3,1-5,1.5c-3.1,0.9-6.1,1.9-9.2,2.8c-1.8,0.6-3.6,1.1-5.4,1.9c-1.5,0.6-2.9,1.5-4.3,2.4
				c-0.9,0.5-1.8,1.1-2.6,1.7c-0.7,0.5-1.5,0.9-2.2,1.4c-1.3,1-2.6,2-3.8,3c-4.7,4-9.4,8.1-14.1,12.1c-2.4,2.1-4.6,4.2-6.8,6.5
				c-2.3,2.5-4.7,4.9-6.8,7.6c-1,1.3-2,2.5-2.9,3.8c-1.1,1.6-2,3.3-2.9,5c-1.4,2.8-2.8,5.5-4,8.4c-0.8,1.9-1.6,3.8-2.2,5.8
				c-0.8,2.4-1.4,4.9-1.9,7.4c-0.4,2.3-0.4,4.7,0,7.1c0.4,2.1,1.1,4,1.7,6c0.5,1.6,0.9,3.3,1.5,4.9c0.5,1.3,1.1,2.5,1.6,3.7
				c0.5,1.3,0.9,2.6,1.4,3.9c0.6,1.6,1.6,3,2.6,4.4c0.4,0.6,0.7,1.1,1.1,1.7c0.3,1.1,0.7,2.1,1.2,3.1c0.4,0.9,1.1,1.8,1.6,2.6
				c0.4,0.6,0.9,1.2,1.4,1.8c0.1,0.1,0.1,0.1,0.2,0.2c0.3,0.4,0.6,0.8,0.9,1.1c1.2,1.3,2.5,2.5,4,3.5c1.3,0.9,2.6,1.7,3.9,2.6
				c1.3,0.9,2.6,1.8,4,2.6c1.7,1,3.5,1.9,5.3,2.7c1.4,0.7,2.8,1.4,4.2,2c1.4,0.7,2.8,1.3,4.2,1.9c1.4,0.6,2.7,1.3,4.1,1.9
				c1.5,0.7,2.9,1.3,4.4,1.8c0.6,0.2,1.1,0.4,1.7,0.6c0.4,0.2,0.9,0.4,1.3,0.6c5.8,2.8,12.4,3.9,18.8,4.1c3.4,0.1,6.7-0.1,10.1-0.4
				c1.4-0.2,2.9-0.4,4.3-0.7c1.9-0.4,3.6-0.9,5.4-1.5c1.4-0.5,2.8-1.1,4.1-1.7c1.3-0.7,2.5-1.5,3.8-2.3c2.7-1.7,5.6-3.1,8.5-4.5
				c2.7-1.3,5.6-2.2,8.3-3.7c1.8-0.9,3.4-2.1,4.9-3.4c1.2-1,2.4-2.1,3.4-3.2c0.9-0.9,1.7-1.8,2.7-2.6c1-0.9,2.1-1.8,3.2-2.6
				c2-1.6,4.3-3,6.4-4.4c0.8-0.5,1.5-0.9,2.3-1.3c1-0.5,2-0.9,3.1-1.3c1.9-0.8,3.8-1.7,5.7-2.5c2.1-0.6,4.2-1.2,6.3-1.6
				c2.2-0.4,4.4-0.8,6.6-0.9c2,0,3.9,0.2,5.8,0.5c0.9,0.3,1.8,0.8,2.7,1.2c2,1,4,2,6,3c1.2,0.6,2.3,1.3,3.5,2
				c1.2,0.8,2.4,1.7,3.6,2.6c1.3,0.8,2.5,1.7,3.9,2.4c1.9,1,3.8,2,5.8,3c0.4,0.2,0.9,0.4,1.3,0.6c0.5,0.4,1,0.7,1.5,1.1
				c1.2,0.9,2.5,1.8,3.8,2.6c1.3,0.9,2.6,1.8,4,2.6c1.3,0.8,2.7,1.6,4,2.3c1.8,0.9,3.6,1.8,5.5,2.6c2.9,1.2,5.8,2.3,8.8,3.4
				c1.4,0.5,2.8,1,4.2,1.5s2.9,0.9,4.3,1.3c0.7,0.2,1.5,0.4,2.2,0.5c0.2,0.1,0.5,0.1,0.7,0.2c0.4,0.1,0.8,0.2,1.1,0.2
				c0.5,0.1,1,0.2,1.5,0.3c2.7,0.5,5.5,0.7,8.3,0.9c3.3,0.2,6.7,0,9.9-0.7c3.2-0.7,6.3-1.9,9.4-3.1c2.6-1.1,5-2.6,7.5-3.9
				c2.4-1.3,4.9-2.5,7.3-3.8c3-1.6,6-3.4,8.6-5.7c0.6-0.5,1.1-1.1,1.6-1.6c0.8-0.9,1.6-1.8,2.3-2.7c0.4-0.5,0.7-1.1,1-1.6
				c0.4-0.7,0.9-1.4,1.3-2.1c0.7-1.3,1.4-2.6,2.2-3.8c0.8-1.2,1.7-2.4,2.5-3.6c2-2.9,3.5-6.2,4.8-9.5
				C334.4,222.5,335.3,219.4,335.9,216.3z"/>
			<g>
				<path class="st1" d="M337.4,216.7c2.6-12.6-0.8-27-5.1-38.8c-4-11.1-11.9-17.7-21.5-24.1c-10-6.8-20.4-14-32.2-17.6
					c-11.8-3.7-24-5-35.9-8.1c-6.5-1.7-13-3.1-19.6-4.4c-7-1.3-13.8-3.4-20.9-4.3c-13.4-1.6-26.4-1.2-39.8-1
					c-13.8,0.2-26.7,3.8-39.6,8.6c-6.4,2.4-12.2,5.4-18.8,7.3c-7,2.1-14.7,3.7-21.1,7.3c-11.4,6.5-22.1,16.5-31.1,25.8
					c-9.2,9.5-16.1,20.4-19.9,33.2c-3.4,11.4,0.3,23.5,5.8,33.8c2.3,4.3,4.5,8.8,7.5,12.6c3.8,4.6,9.3,7.9,14.4,10.7
					c21,11.3,47.9,22.9,70.6,9.3c5.8-3.5,12.1-5.7,18-8.9c5.9-3.3,10-8.9,15.5-12.9c4.9-3.6,10.2-6.4,15.9-8.5
					c7.9-2.8,15.6-3.3,23.2,0.5c6.3,3.2,11.9,7.5,18.2,10.7c6.1,3.1,11.3,7.6,17.5,10.7c11.9,5.9,25.9,10.8,39.4,10.5
					c6.4-0.2,12.6-2.1,18.3-4.8c6.9-3.3,14.5-6.9,20.6-11.6c5.2-4,7.7-9.4,11.2-14.7C332.5,231.4,335.5,224.5,337.4,216.7
					c0.4-1.9-2.5-2.7-2.9-0.8c-1.6,7-4.2,13.5-8.3,19.5c-3.2,4.7-5.6,10.1-9.9,13.9c-4.9,4.4-11.4,6.9-17.1,10
					c-6.1,3.4-12.5,6.2-19.5,6.7c-12.3,0.9-24.3-3.5-35.4-8.2c-5.2-2.2-10.1-5.1-14.8-8.3c-5-3.4-10.6-5.9-15.5-9.4
					c-4.3-3-8.9-5.7-13.7-7.8c-4.9-2.1-10.6-1.2-15.7-0.1c-10.2,2.2-20,7.5-27.6,14.6c-2.5,2.3-4.7,4.9-7.5,6.8
					c-2.7,1.9-5.8,3.1-8.8,4.4c-5.4,2.3-10.2,5.9-15.6,8.3c-12.9,5.8-28.5,4-41.1-1.1c-10.5-4.3-21.2-8.8-30.6-15.3
					c-5.2-3.6-7.3-7.3-10-12.7c-1.4-2.7-3.1-4.8-4.2-7.7c-1.1-3-2.3-5.9-3.3-8.9c-2.1-6.8-2.9-12.5-0.9-19.4
					c2-6.6,5.1-13.6,8.8-19.5c7.2-11.3,18.3-20,28.4-28.6c4.3-3.7,8.8-7.3,13.9-10c6.7-3.5,14.9-5.1,22.2-7.1
					c5.5-1.6,10.3-4.4,15.6-6.4c6.4-2.4,13.2-4.3,19.8-6.3c6.2-1.9,12.6-2.1,19-2.2c6.7-0.1,13.3-0.7,20-0.5
					c13.1,0.3,25.5,2.8,38.3,5.4c13.1,2.7,26.2,5.5,39.2,8.2c12.6,2.7,24.3,6.5,35.6,12.7c5.4,3,10.6,6.8,15.6,10.4
					c5.7,4.1,11.6,8.2,15.3,14.3c3.6,6,5.5,13.5,6.9,20.3c1.5,7.7,2.8,16,1.2,23.7C334.1,217.8,337,218.6,337.4,216.7z"/>
			</g>
		</g>
		<g>
			<path class="st1" d="M351.7,44.9c0-1.1-0.1-2.2-0.2-3.3c-0.2-1.5-0.3-3-0.7-4.5c-0.1-0.5-0.3-1-0.5-1.5c-0.2-0.6-0.4-1.1-0.6-1.7
				c-0.7-2-1.4-4-2.5-5.8c-0.6-0.9-1.2-1.9-2-2.7c-0.2-0.2-0.5-0.4-0.7-0.7c-0.9-1.5-2-3-3.3-4.2c-1.8-1.8-4.1-2.9-6.4-4
				c-2.2-1-4.3-2-6.6-2.8c-1.1-0.4-2.3-0.6-3.5-0.9c-1.1-0.2-2.3-0.5-3.5-0.7c-1.4-0.2-2.8-0.4-4.2-0.5c-1.2-0.1-2.4-0.3-3.5-0.3
				c-0.6,0-1.2,0-1.8,0c-1.8,0-3.7,0.1-5.5,0.1c-2.5,0.1-5,0.2-7.5,0.4c-1.1,0.1-2.2,0.2-3.2,0.2c-1.2,0.1-2.4,0.2-3.7,0.2
				c-2.5,0-5,0.1-7.5,0.2c-0.3,0-0.6,0-0.9,0.1c-1.7,0-3.3-0.1-5-0.1c-0.8,0-1.7,0-2.5,0c-1.5,0-3.1,0-4.6,0.2
				c-1.5,0.1-3,0.3-4.5,0.5c-1.2,0.2-2.5,0.4-3.7,0.6c-2.4,0.4-4.8,0.8-7.1,1.4c-1.2,0.3-2.4,0.7-3.5,1.1s-2.2,0.7-3.2,1.2
				c-2.3,0.9-4.3,2.2-6.4,3.5c-1.8,1.1-3.6,2.2-5.3,3.3c-1.8,1.2-3.7,2.3-5.5,3.5c-0.9,0.6-1.8,1.2-2.7,1.7
				c-1.1,0.7-2.2,1.6-3.2,2.4c-1.8,1.4-3.6,2.8-5.3,4.4c-0.8,0.8-1.6,1.5-2.4,2.4c-0.9,1.2-1.9,2.4-2.7,3.6
				c-1.3,1.9-2.5,3.9-3.7,5.9c-1.3,2.2-2.3,4.4-3.4,6.7c-0.2,0.5-0.5,1-0.7,1.5c-0.3,0.5-0.7,1.1-1,1.6c-0.6,0.9-1.1,1.7-1.6,2.6
				c-0.6,0.9-1.1,1.9-1.6,2.8c-0.7,1.3-1.2,2.6-1.7,3.9c-0.1,0.3-0.3,0.7-0.4,1c-0.5,0.8-1,1.7-1.5,2.5c-0.6,1-1.2,1.9-1.7,2.9
				c-1.3,2.6-2.3,5.4-3.5,8.1c-1,2.3-2,4.5-2.9,6.8s-1.6,4.6-2.4,6.9c-0.4,1.1-0.6,2.3-0.9,3.4c-0.3,1.1-0.6,2.2-0.9,3.3
				c-0.6,2.3-1.2,4.7-1.6,7c-0.4,2.6-0.9,5.3-1.1,7.9c-0.2,2.5-0.2,5-0.3,7.5c-0.1,2.4-0.3,4.8-0.4,7.3c-0.1,2.4-0.1,4.8,0,7.2
				c0.1,1.2,0.1,2.4,0.2,3.6c0.1,1.5,0.3,2.9,0.5,4.4c0.2,1.2,0.4,2.3,0.6,3.5c0.1,0.5,0.3,1,0.5,1.5c0.1,0.1,0.1,0.3,0.2,0.4
				c0,0.1,0,0.2,0,0.3c0,0.6,0,1.2,0,1.8c0.1,0.8,0.1,1.6,0.3,2.3c0.2,0.9,0.5,1.7,0.9,2.5c0.2,0.5,0.5,1,0.8,1.5
				c0.8,1.3,1.9,2.3,3.2,3s2.6,1.3,4,1.6s2.8,0.5,4.3,0.6c1.1,0.1,2.3,0,3.4-0.2c1.5-0.2,2.9-0.4,4.3-0.9c2.2-0.7,4.2-1.6,6.3-2.7
				c1-0.5,1.9-1,2.8-1.5c1.1-0.6,2.2-1.1,3.2-1.8c2.1-1.4,3.9-3.1,5.5-5c1.5-1.8,3-3.8,4.5-5.6s3-3.5,4.6-5.1
				c0.8-0.8,1.7-1.5,2.6-2.2c0.9-0.8,1.8-1.6,2.7-2.4c1.8-1.5,3.6-3,5.4-4.5c1.6-1.3,3-2.8,4.4-4.4c0.7-0.8,1.4-1.6,2.1-2.3
				c0.8-0.8,1.7-1.6,2.6-2.3c3.6-2.7,7.3-5.2,10.9-7.8c0.2-0.1,0.3-0.2,0.5-0.3c0.9-0.6,1.9-1.1,2.8-1.7c1-0.6,1.9-1.2,2.8-1.8
				c0.8-0.5,1.5-1.1,2.2-1.6c0.9-0.7,1.8-1.3,2.7-2c1.5-1.2,3.1-2.3,4.7-3.3c1.7-1.1,3.4-2.1,5.1-3.2c3.3-2.2,6.5-4.7,9.7-7.1
				c1.9-1.4,3.9-2.7,6-3.9c2.1-1.3,4.2-2.6,6.3-4c2.1-1.3,4.1-2.7,6.1-4.2c1.9-1.4,4-2.6,5.9-3.8c2.1-1.4,4.3-2.7,6.4-4.1
				c2.3-1.6,4.5-3.3,6.7-5c1.8-1.4,3.4-3.2,5.1-4.7c1.8-1.5,3.6-3,5.4-4.6c0.9-0.8,1.8-1.5,2.5-2.4c0.9-1,1.8-2.1,2.6-3.2
				c0.8-1.1,1.4-2.4,1.9-3.7c0.2-0.5,0.4-1.1,0.5-1.7c0.2-0.9,0.3-1.9,0.4-2.8C351.8,47.3,351.8,46.1,351.7,44.9z"/>
			<g>
				<path class="st1" d="M353.2,44.9c-0.3-7.5-2.2-14.7-7-20.6c-4.8-6-10.1-9.6-17.6-12c-8.4-2.7-17.4-2.7-26.1-2.2
					c-8.9,0.5-17.7,0.9-26.6,0.9c-8.5,0.1-17.5,1.4-25.5,4.3c-7.8,2.8-15,8.2-21.8,12.8c-6.5,4.4-12,9.5-16.1,16.2
					c-2.4,3.9-4.1,8.1-6.4,12c-1.9,3.3-3.8,6.4-5.3,9.9c-3.7,8.2-8.2,16-11.2,24.6c-2.9,8.2-5.2,16.9-6,25.6
					c-0.8,9.4-1.3,19.2-0.2,28.6c0.4,3.3,1.3,6.4,1.7,9.6c0.3,3.1,1.1,6.1,3.2,8.5c9.4,10.7,29.7,1.5,37.4-6.7
					c3.2-3.4,5.7-7.3,8.9-10.6c3.2-3.4,7-6.2,10.6-9.2c3.3-2.8,6-6.2,9.2-9c3.7-3.3,8.2-6.3,12.3-9c17.4-11.2,33.8-23.7,51.2-34.9
					c8.5-5.4,15.9-11.1,23.6-17.6C348.7,60,353.3,54.7,353.2,44.9c0-1.9-3-1.9-3,0c0.1,9.7-5.3,14.3-12.2,20.2
					c-6.5,5.6-12.9,10.5-20.1,15.1c-13.6,8.5-26.8,17.7-39.9,27c-6,4.2-12,8.3-18,12.5c-2.9,2.1-5.9,4-8.5,6.4
					c-2.7,2.6-5,5.5-7.9,7.9c-6.2,5.2-11.9,10.1-16.9,16.4c-5.2,6.6-12.5,11.8-20.8,13.7c-3.9,0.9-8.6,1-12.3-0.9
					c-5.1-2.6-4.7-6.1-5.7-10.9c-1.5-7.5-2.2-14.4-1.9-22.1c0.4-8.4,0.5-16.7,2.5-24.9c1.9-8,4.6-15.5,7.8-23.1
					c1.8-4.1,3.6-8,5.8-11.9c1.7-2.9,2.7-6.2,4.5-9.1c4.1-6.8,7.2-14.3,12.1-20.6c4.8-6.1,11.8-10.2,18.3-14.3
					c7-4.5,13.8-8.7,22.1-10.4c8.5-1.7,16.7-1.7,25.3-1.9c9.1-0.2,18.2-1.3,27.4-1.2c9.1,0.1,20,2.1,27.3,7.9
					c7.2,5.7,10.7,15.2,11.1,24.2C350.3,46.8,353.3,46.8,353.2,44.9z"/>
			</g>
		</g>
		<g>
			<g>
				<path class="st1" d="M92.3,171.9c-0.1-2.7-0.4-5.4-0.8-8c-0.2-1.1-0.3-2.3-0.7-3.4c-0.4-1.4-0.9-2.7-1.6-4
					c-0.7-1.2-1.6-2.4-2.5-3.4c-0.7-0.8-1.4-1.5-2.2-2.2c-1.8-1.6-3.9-3-5.9-4.3c-1.2-0.7-2.5-1.4-3.8-1.9c-1.1-0.4-2.2-0.8-3.3-1.1
					c-1.5-0.3-2.9-0.4-4.4-0.6c-1.2-0.1-2.3-0.3-3.5-0.4c-2.4-0.2-4.8-0.5-7.2-0.6s-4.7-0.2-7.1-0.2c-0.8,0-1.7,0-2.5,0
					c-0.4,0-0.8,0-1.2,0c-1.2,0-2.5,0.1-3.7,0.2c-2.7,0.3-5.4,0.7-7.9,1.4c-1.9,0.5-3.8,1.3-5.6,2.1c-0.4,0.1-0.9,0.2-1.3,0.2
					c-0.3,0.1-0.6,0.2-0.9,0.2c-1.3,0.4-2.6,0.9-3.9,1.5c-1,0.5-1.8,1.1-2.7,1.7c-1,0.8-2,1.5-3,2.3c-0.8,0.7-1.7,1.5-2.4,2.3
					c-0.7,0.5-1.5,1.1-2.2,1.7c-0.9,0.7-1.7,1.5-2.4,2.3c-1,1.1-1.9,2.3-2.7,3.6c-0.6,1-1.2,2.1-1.7,3.1c-0.6,1.2-1.3,2.5-1.8,3.7
					c-0.4,1-0.8,2-1,3c-0.6,2.6-0.7,5.2-0.8,7.9c-0.1,2.4-0.2,4.9,0,7.3c0.1,2.6,0.4,5.2,0.8,7.9c0.4,2.4,0.8,4.8,1.4,7.1
					c0.6,2.5,1.3,5,2.8,7.1c0.8,1.2,1.8,2.3,2.8,3.4c0.8,0.8,1.6,1.6,2.4,2.4c0.4,0.4,0.9,0.8,1.3,1.1l0.1,0.1
					c0.7,0.7,1.5,1.3,2.2,1.9c0.8,0.7,1.6,1.4,2.5,2.1c0.9,0.8,1.9,1.5,2.9,2.2c0.9,0.6,1.9,1.2,2.9,1.6c1.3,0.6,2.6,1.2,4,1.7
					c1.1,0.4,2.2,0.8,3.3,1.2c1.1,0.4,2.2,0.8,3.4,1.2c1,0.4,1.9,0.7,2.9,1.1c0.5,0.2,1.1,0.4,1.6,0.6c0.6,0.2,1.1,0.4,1.7,0.5
					c1,0.3,2.1,0.5,3.1,0.9c1.2,0.5,2.6,0.6,3.9,0.7c1.4,0.1,2.7,0,4-0.2c2.1-0.3,4.2-0.8,6.3-1.5c1.4-0.5,2.8-1.1,4.2-1.7
					c1.1-0.5,2.1-1.1,3.2-1.6c0.7-0.4,1.5-0.7,2.2-1.1c0.4-0.2,0.8-0.3,1.2-0.5c-0.1,0-0.1,0-0.2,0.1c1.2-0.5,2.4-1.1,3.4-1.8
					c0.9-0.6,1.7-1.2,2.5-1.8c0.5-0.4,1-0.8,1.6-1.3c1.7-1.3,3.5-2.6,5.1-4.2c0.8-0.8,1.6-1.5,2.3-2.3c0.9-1.1,1.7-2.2,2.4-3.4
					c1.2-2.2,2.2-4.6,2.9-7c0.4-1.3,0.6-2.7,0.8-4.1c0.1-0.5,0.2-1,0.3-1.4c0.3-1.1,0.7-2.2,1-3.4c0.3-1.1,0.6-2.3,0.9-3.4
					c0.5-2.5,0.7-5.1,0.5-7.6c0-0.4-0.1-0.7-0.1-1.1c0.1-1,0.2-2,0.2-3C92.3,176.8,92.4,174.4,92.3,171.9z"/>
				<g>
					<path class="st1" d="M93.8,171.9c-0.3-7.1-1.1-14.3-6-19.9c-4.9-5.5-11.9-9.4-19.2-10.3c-15.7-1.8-32.5-2.9-47.1,4.7
						c-6.5,3.4-13.2,9.6-16.8,16c-4,7.2-4.8,14.2-4.7,22.4c0.1,7.8,0.8,18,5.2,24.6c3.7,5.5,10.4,11.3,16.1,14.7
						c3.9,2.2,8.3,3.5,12.5,5c3.9,1.5,7.9,3.2,12.1,3.8c8.5,1.2,15.9-3.4,23.4-6.6c1.8-0.8,0.2-3.3-1.5-2.6c-0.1,0-0.1,0-0.2,0.1
						c0.5,0.9,1,1.7,1.5,2.6c8.3-3.7,16.7-11.2,19.9-19.8C93.3,195.6,94,183.6,93.8,171.9c0-1.9-3-1.9-3,0c0.1,5,0.1,10.3-0.2,15.3
						c-0.4,5.1-2.1,10.8-3.4,15.7c-2.5,9.2-10.9,17-19.5,20.9c-1.8,0.8-0.2,3.3,1.5,2.6c0.1,0,0.1,0,0.2-0.1c-0.5-0.9-1-1.7-1.5-2.6
						c-8.6,3.7-15.8,8.1-25.4,5.2c-8.6-2.6-17.7-5.5-24.7-11.3c-2.9-2.4-5.8-4.8-8.2-7.7c-3.5-4-4.5-8.9-5.4-14
						c-1.6-9.3-2.4-20.5,1.8-29.2c7.8-16.3,26.2-23.5,43.4-23.3c8.6,0.1,19.6-0.3,27.4,3.8c4.4,2.3,8.8,5.7,11.3,10.1
						c2.4,4.4,2.6,9.7,2.9,14.6C90.9,173.8,93.9,173.9,93.8,171.9z"/>
				</g>
			</g>
			<g>
				<path class="st1" d="M209.4,191.6c-0.1-4.5-1-8.9-1.7-13.3c-0.5-4-1.1-8.1-1.7-12.1c-0.3-1.9-0.6-3.9-1-5.8
					c-0.4-1.8-0.8-3.6-1.1-5.4c-0.8-3.8-1.7-7.6-3-11.3c-0.1-0.2-0.2-0.4-0.2-0.6c-0.3-1.4-0.6-2.8-1.1-4.2c-0.5-1.7-1-3.3-1.7-4.9
					c-1-2.3-2-4.5-3.4-6.5c-1.3-1.8-2.8-3.4-4.2-5.2l-0.1-0.1c-1.2-1.6-2.5-3.2-3.7-4.7c-1.2-1.4-2.5-2.9-3.9-4.1
					c-1.7-1.5-3.6-2.8-5.5-4.1c-1.6-1.1-3.3-2-5.1-2.8c-2.2-0.9-4.4-1.8-6.6-2.4c-1.8-0.5-3.7-1-5.5-1.4c-3.6-0.9-7.1-2.2-10.6-3.1
					c-4.2-1.1-8.6-1.6-12.9-2.1c-2.1-0.2-4.2-0.4-6.3-0.6c-2-0.1-4-0.3-6-0.4c-1.5,0-3-0.1-4.6-0.1c-0.6,0-1.2,0-1.8,0
					c-2.5,0.1-5,0.4-7.4,0.8c-3.9,0.7-7.8,1.6-11.6,2.7c-4.1,1.2-8,2.9-11.9,4.7c-3.4,1.7-6.9,3.2-10,5.3c-3.2,2.2-6.5,4.4-9.7,6.7
					c-1.6,1.2-3.3,2.3-4.9,3.5c-1.9,1.4-3.8,3-5.6,4.5c-1.4,1.1-2.8,2.3-4.1,3.5s-2.4,2.4-3.6,3.7c-3.1,3.3-6,6.8-8.4,10.6
					c-2.3,3.6-4.2,7.5-5.7,11.5c-1.4,3.8-1.8,7.9-2.3,11.9c-0.2,1.2-0.3,2.4-0.5,3.6c-0.1,0.3-0.3,0.6-0.4,0.8
					c-1,2.2-1.8,4.4-2.6,6.6c-0.6,1.9-1.2,3.8-1.7,5.7c-0.6,2.4-0.8,4.8-0.8,7.3s0.3,5,0.7,7.4c0.6,4,1.6,7.9,2.4,11.8
					c0.4,1.9,0.9,3.8,1.3,5.7c0.4,1.4,0.7,2.7,1.1,4.1c0.1,0.5,0.2,0.9,0.2,1.4c0.3,1.9,0.7,3.8,1.1,5.7c0.4,1.6,0.9,3.1,1.5,4.5
					c0.1,0.5,0.2,0.9,0.3,1.4c0.5,1.9,0.9,3.8,1.5,5.7c0.3,0.9,0.5,1.8,0.8,2.7c0.4,1.3,1,2.6,1.6,3.9c0.5,1.1,1.1,2.2,1.8,3.2
					c0.2,0.4,0.5,0.8,0.7,1.1c0.8,1.2,1.7,2.4,2.6,3.5c1.2,1.5,2.8,2.6,4.4,3.7c1.5,1.2,3.1,2.3,4.7,3.2c0.8,0.5,1.6,1,2.4,1.4
					c1.4,0.7,2.9,1.3,4.3,1.8c0.7,0.3,1.4,0.5,2.2,0.7c0.1,0.1,0.3,0.1,0.4,0.2c0.9,0.6,1.8,1.3,2.8,1.8c2.9,1.7,6.1,2.9,9.2,4.2
					c0.1,0.1,0.3,0.1,0.4,0.2c3.9,1.8,7.6,4,11.7,5.3c4.2,1.4,8.6,2,13,2.3c2,0.1,3.9,0.1,5.9-0.2c1.3-0.1,2.7-0.3,4-0.5
					c0.7-0.1,1.4-0.2,2.2-0.4c0.1,0,0.2,0,0.2-0.1c2.3,0.2,4.6-0.2,6.9-0.5c1.9-0.3,3.7-0.8,5.6-1.4c2-0.6,4-1.1,5.9-1.7
					c2-0.6,4-1,6-1.6c4.2-1.2,8.4-2.6,12.4-4.3c1.7-0.8,3.4-1.7,5.1-2.7c1.7-1,3.5-1.9,5.3-2.8c1.4-0.7,2.8-1.4,4.3-2
					c3.4-1.4,6.7-2.9,9.8-4.9c3.7-2.4,7.1-5.2,10.1-8.5c2.3-2.5,4.4-5.3,6.6-8c2.9-3.5,5.7-7.1,8.1-11c1-1.6,2-3.3,3-5
					c0.9-1.7,1.6-3.5,2.4-5.2c0.9-2,1.8-4,2.7-6.1c0.3-0.8,0.6-1.5,0.9-2.3c0.3-0.9,0.5-1.9,0.7-2.8c0.5-2.4,0.9-4.8,1.2-7.2
					C209.3,195.7,209.4,193.6,209.4,191.6z"/>
				<g>
					<path class="st1" d="M210.9,191.6c-0.5-10.4-2.4-21.3-4.3-31.6c-1.7-8.9-3.8-18.4-7.3-26.8c-3-7.2-8.9-14.5-14.5-19.9
						c-6.9-6.7-15.3-9.7-24.4-12.1c-5.4-1.4-10.6-3.4-16.1-4.3c-4.7-0.8-9.4-1.2-14.2-1.5c-9.8-0.8-19.1-0.3-28.6,2.2
						c-18.5,4.9-36.3,16.6-50.1,29.6c-6.9,6.5-12.9,14.3-16.6,23.1c-1.9,4.5-2.9,9.1-3.5,13.9c-0.7,5.4-3,10-4.6,15.2
						c-2.9,9.6-0.9,19,1.2,28.5c2.2,10.1,4.6,20.2,7.5,30.1c2.2,7.7,6.2,14.3,12.6,19.1c3,2.3,6.2,4.3,9.7,5.7
						c4.2,1.7,7.9,4,12.1,5.8c9.4,4.1,18,8.8,28.3,9.6c4.3,0.4,8.4-0.1,12.7-0.7c4.9-0.7,9.5-0.9,14.3-2.3c10.8-3,21.1-5.8,31-11.2
						c9.6-5.2,19.6-8.4,27.4-16.4C197.9,232.8,210.9,212.9,210.9,191.6c0-1.9-3-1.9-3,0c0,19.3-10.9,35.1-22.7,49.4
						c-6.3,7.6-13.5,12.4-22.5,16.4s-17.1,9-26.6,11.7c-17.2,4.8-36.5,10-53.6,2.1c-3.2-1.5-6.4-3.1-9.7-4.5
						c-3.7-1.5-7-3.9-10.6-5.4c-8-3.2-15.2-7.1-19.9-14.6c-4.8-7.7-6.7-18-8.5-26.8c-1.8-9-4.9-17.9-5.6-27.2
						c-0.4-4.8,0.3-9.4,1.8-14c1.4-4.2,3.4-8,4-12.5c1.4-10.6,4.8-19.7,11.5-28.2c10.7-13.5,26.5-24.7,42-32.1
						c18.1-8.6,37.3-9.4,56.8-6c5.2,0.9,10.1,2.8,15.2,4.1c5.4,1.4,10.8,2.8,15.6,5.7c7.6,4.6,14.7,12.7,19.3,20.4
						c4.6,7.8,6.6,18.3,8.5,27.1c2.3,11.1,4.5,23,5,34.3C208,193.5,211,193.5,210.9,191.6z"/>
				</g>
			</g>
			<g>
				<path class="st1" d="M191.7,228.7c2.6-0.6,5.2-1.4,7.7-2.2c1.1-0.4,2.2-0.7,3.2-1.3c1.3-0.6,2.5-1.4,3.6-2.3c1.1-0.9,2-2,2.9-3
					c0.7-0.8,1.2-1.7,1.7-2.5c1.3-2.1,2.3-4.3,3.2-6.6c0.5-1.3,0.9-2.7,1.2-4.1c0.2-1.1,0.4-2.3,0.5-3.4c0-1.5-0.1-3-0.2-4.4
					c-0.1-1.2-0.2-2.4-0.3-3.5c-0.2-2.4-0.4-4.8-0.7-7.2s-0.7-4.7-1.1-7c-0.1-0.8-0.3-1.7-0.4-2.5c-0.1-0.4-0.1-0.8-0.2-1.2
					c-0.3-1.2-0.6-2.4-0.9-3.6c-0.7-2.6-1.7-5.1-2.8-7.6c-0.9-1.8-1.9-3.5-3.1-5.1c-0.1-0.4-0.3-0.8-0.5-1.2
					c-0.1-0.3-0.3-0.6-0.4-0.9c-0.6-1.2-1.4-2.4-2.2-3.5c-0.6-0.9-1.4-1.6-2.2-2.4c-0.9-0.9-1.8-1.7-2.8-2.5c-0.9-0.7-1.7-1.4-2.7-2
					c-0.7-0.6-1.4-1.2-2.1-1.8c-0.8-0.7-1.7-1.4-2.7-2c-1.3-0.8-2.6-1.4-4-2c-1.1-0.4-2.3-0.8-3.4-1.1c-1.3-0.4-2.6-0.8-4-1.1
					c-1-0.2-2.1-0.4-3.1-0.5c-2.6-0.1-5.3,0.2-7.9,0.6c-2.4,0.4-4.8,0.7-7.2,1.3c-2.6,0.6-5.1,1.3-7.6,2.2c-2.3,0.8-4.5,1.7-6.8,2.6
					c-2.3,1-4.7,2.2-6.5,4.1c-1,1-1.9,2.2-2.8,3.4c-0.7,0.9-1.3,1.8-1.9,2.8c-0.3,0.5-0.6,1-0.9,1.5c0,0,0,0.1-0.1,0.1
					c-0.6,0.8-1,1.7-1.5,2.5c-0.5,0.9-1.1,1.8-1.6,2.8c-0.6,1.1-1.2,2.1-1.7,3.2c-0.5,1-0.8,2.1-1.1,3.1c-0.4,1.4-0.7,2.8-0.9,4.2
					c-0.2,1.1-0.4,2.3-0.6,3.4c-0.2,1.2-0.4,2.4-0.6,3.5c-0.2,1-0.3,2-0.5,3c-0.1,0.6-0.2,1.1-0.3,1.7c-0.1,0.6-0.1,1.2-0.2,1.8
					c-0.1,1.1-0.1,2.2-0.4,3.2c-0.3,1.3-0.2,2.7,0,4c0.1,1.4,0.4,2.6,0.9,3.9c0.7,2,1.6,4,2.6,5.9c0.7,1.3,1.6,2.6,2.4,3.8
					c0.7,1,1.4,1.9,2.1,2.9c0.5,0.7,1,1.3,1.5,2c0.2,0.4,0.5,0.7,0.7,1c0-0.1-0.1-0.1-0.1-0.2c0.7,1.1,1.5,2.1,2.4,3
					c0.8,0.7,1.5,1.5,2.3,2.2c0.5,0.4,1,0.9,1.5,1.3c1.6,1.5,3.2,3,5,4.2c0.9,0.6,1.7,1.3,2.7,1.9c1.2,0.7,2.5,1.2,3.8,1.7
					c2.4,0.8,4.9,1.4,7.4,1.6c1.4,0.1,2.8,0.1,4.2,0c0.5,0,1,0,1.5,0.1c1.2,0.1,2.3,0.3,3.5,0.4c1.2,0.1,2.3,0.2,3.5,0.3
					c2.6,0.1,5.1-0.2,7.6-0.9c0.3-0.1,0.7-0.2,1-0.3c1-0.1,2-0.2,3-0.3C186.9,229.6,189.3,229.2,191.7,228.7z"/>
				<g>
					<path class="st1" d="M192.1,230.2c7-1.6,13.9-3.6,18.4-9.5c4.9-6.3,7.1-14,6.5-21.8c-1.2-15.5-3.1-31.7-13-44.4
						c-4.5-5.8-11.8-11.2-18.8-13.6c-7.8-2.7-14.9-2.1-22.9-0.5c-7.2,1.4-16.3,3.8-22.1,8.6c-5.1,4.3-9.4,11.9-12,18
						c-1.9,4.5-2.4,9.6-3.3,14.3c-0.7,4-1.6,8.1-1.6,12.1c0,8.8,6,15.5,10.6,22.3c1.1,1.6,3.7,0.1,2.6-1.5c0-0.1-0.1-0.1-0.1-0.2
						c-0.9,0.5-1.7,1-2.6,1.5c5.4,7.9,14.5,14.9,24.1,16.4C169.4,233.7,180.8,232.4,192.1,230.2c1.9-0.4,1.1-3.3-0.8-2.9
						c-4.9,1-9.9,1.9-14.9,2.4c-4.9,0.5-10-0.3-14.9-0.4c-9.9-0.3-19.6-7.2-25.2-15.3c-1.1-1.6-3.7-0.1-2.6,1.5
						c0,0.1,0.1,0.1,0.1,0.2c0.9-0.5,1.7-1,2.6-1.5c-4.7-7.2-10.7-13.6-10-22.8c0.7-9.3,2.3-19.7,7-27.9c2-3.5,4-7.3,6.8-10.3
						c3.2-3.5,7.4-5.2,11.8-6.8c8.5-3.1,19.1-6.1,28-3.9c17.5,4.3,28.7,20.7,31.7,37.7c1.6,8.8,4.1,20.1,1.3,28.8
						c-1.6,5-4.4,10.4-8.8,13.5c-3.7,2.6-8.7,3.7-13.1,4.8C189.4,227.7,190.2,230.6,192.1,230.2z"/>
				</g>
			</g>
		</g>
		<g>
			<g>
				<path class="st1" d="M305,225.9c2,1.3,4.3,2.1,6.4,3.2c1.9,0.9,3.7,1.9,5.4,3.2c1.1,0.9,2.1,1.8,3.1,2.7c1,1,1.9,2.1,2.8,3.1
					c0.5,0.6,0.9,1.1,1.4,1.7c0.5,0.5,0.9,1,1.4,1.6c0.9,1,1.8,2,2.6,3c1.6,2.2,3.2,4.5,4.5,6.9c0.7,1.2,1.3,2.5,2,3.8
					c0.5,1,1,2,1.5,3.1c0.5,1.3,0.9,2.6,1.1,4c0.1,1.4,0.2,2.7,0.2,4.1c0.1,2.7,0.2,5.5,0.8,8.1c0.2,1.2,0.4,2.4,0.8,3.6
					c0.3,0.9,0.6,1.8,1.1,2.5c0.2,0.2,0.3,0.4,0.5,0.7c0.4,0.5,0.8,1.1,1.3,1.5c0.4,0.4,0.8,0.7,1.3,1c0.4,0.3,0.9,0.4,1.4,0.6
					c0.4,0.1,0.9,0.1,1.3,0.1s0.9-0.1,1.3-0.2c0.5-0.2,1.1-0.3,1.5-0.6c1-0.7,1.9-1.4,2.4-2.5c0.6-1,1-2.1,1.2-3.3
					c0.2-1.4,0.4-2.9,0.4-4.3c0-1.2-0.2-2.5-0.3-3.7c-0.1-1.5-0.4-3-0.7-4.5c-0.5-2.5-1.1-4.9-1.7-7.3c-0.6-2.3-1-4.6-1.6-6.9
					c-0.6-2.4-1.2-4.7-2.1-7c-0.3-0.8-0.7-1.6-1.1-2.4c-0.3-0.6-0.7-1.1-1-1.6c-0.7-1.1-1.5-2.1-2.3-3.1c-0.9-1.1-1.7-2.3-2.7-3.3
					c-0.8-0.9-1.7-1.8-2.5-2.7c-1.8-1.9-3.7-3.7-5.7-5.3c-1-0.8-2.1-1.7-3.2-2.3c-0.3-0.2-0.6-0.3-0.9-0.5c-0.1-0.1-0.1-0.1-0.2-0.2
					c-0.9-0.9-1.8-1.8-2.8-2.7c-1.6-1.4-3.2-2.8-5.1-3.8c-0.7-0.3-1.3-0.7-2-1s-1.5-0.7-2.3-0.9c-1.4-0.5-2.8-0.7-4.2-0.9
					c-0.1,0-0.3,0-0.4,0c-0.4,0-0.8,0-1.2,0.1c-0.6,0-1.2,0.1-1.8,0.3c-0.2,0.1-0.5,0.1-0.7,0.2c-0.3,0.1-1,0.4-1.3,0.6
					c-0.4,0.2-0.8,0.5-1.1,0.8c-0.2,0.2-0.4,0.3-0.6,0.5c-0.3,0.4-0.7,0.8-1,1.3c-0.2,0.5-0.4,1-0.6,1.5c-0.1,0.4-0.2,1.1-0.2,1.6
					C301.6,222.7,303.1,224.7,305,225.9z M309,219.4v0.1l0,0C309,219.5,309,219.4,309,219.4z"/>
				<g>
					<path class="st1" d="M304.2,227.2c3.4,2,7.2,3.3,10.5,5.4c3.3,2.2,5.7,5.2,8.3,8.2c4.9,5.7,10.7,12.7,12.4,20.3
						c1.5,6.8-0.4,14.5,3.8,20.7c2.8,4,7.4,5.5,11.4,2.1c4.8-4.1,3.7-12,2.8-17.5c-1.3-7.8-2.8-17.1-6.3-24.2
						c-3.2-6.7-9.4-12.9-15.1-17.5c-2.4-2-4.8-3.6-7.1-5.7c-2.6-2.3-5.3-4.2-8.6-5.5c-4.3-1.8-9.9-2.5-13.7,0.9
						C298.3,218.4,300,224,304.2,227.2c1.5,1.2,3-1.4,1.5-2.6c-5.6-4.2-1.1-9.7,4.2-9.7c3.3,0,6.8,1.6,9.6,3.4
						c2.5,1.6,4.3,4,6.7,5.8c3,2.3,5.8,4.2,8.4,6.9c6.1,6.1,10.5,12.1,12.5,20.5c1.9,7.7,5.1,16.7,3.9,24.6c-0.5,3.7-3,9.2-8.1,5.4
						c-1.1-0.9-2.1-2.9-2.5-4.1c-1.4-4-1.4-8.5-1.6-12.7c-0.3-5.8-2.8-10.7-5.8-15.7c-2.9-4.8-6.6-8.9-10.2-13.1
						c-4.9-5.6-10.8-7.8-17.1-11.4C304.1,223.7,302.6,226.2,304.2,227.2z"/>
					<path class="st1" d="M307.5,219.8v0.1c0.7-0.6,1.5-1.1,2.2-1.7l0,0c0.2,0.4,0.5,0.9,0.7,1.3v-0.1c-0.1-0.8-0.6-1.5-1.5-1.5
						c-0.7,0-1.6,0.7-1.5,1.5c0.1,0.6,0.2,1.1,0.8,1.4c0.5,0.3,1.2,0.2,1.7-0.1c0.5-0.4,0.6-0.9,0.5-1.6V219c-0.1-0.8-1.1-1.2-1.8-1
						C307.7,218.1,307.4,218.9,307.5,219.8z"/>
				</g>
			</g>
			<g>
				<path class="st1" d="M260,220.3c0.2-0.4,0.5-0.7,0.9-1c0.3-0.3,0.6-0.5,1-0.7c1.8-0.9,3.8-1.2,5.7-1.2c1.2,0,2.3,0.2,3.5,0.4
					c0.7,0.1,1.3,0.2,1.9,0.4c1.2,0.2,2.3,0.7,3.4,1.1c1.4,0.5,2.8,1.1,4.2,1.7c1.4,0.7,2.5,1.6,3.7,2.5c0.9,0.8,1.8,1.6,2.6,2.4
					c0.9,0.9,1.7,1.7,2.6,2.6c1.7,1.7,3.6,3.4,5.3,5c1.7,1.6,3.5,3.3,5,5.2c0.5,0.7,1,1.4,1.5,2.1c0.3,0.5,0.6,1.1,1,1.6
					c0.7,1.3,1.3,2.6,1.8,4c0.7,2.1,1.3,4.2,1.8,6.4c0.3,1.2,0.6,2.4,0.9,3.6c0.3,1.2,0.4,2.4,0.6,3.5c0.3,1.4,0.5,2.9,0.6,4.4
					c0.2,2.4,0.3,4.9,0.3,7.4c0,1.2-0.1,2.3-0.2,3.5c-0.1,0.8-0.2,1.7-0.4,2.5c-0.1,0.4-0.2,0.8-0.3,1.2c-0.2,0.5-0.4,1-0.7,1.5
					c-0.3,0.4-0.6,0.7-0.9,1.1c-0.3,0.3-0.7,0.6-1.1,0.8c-0.5,0.3-1,0.5-1.6,0.6s-1.2,0.2-1.7,0.1c-0.6-0.1-1.1-0.1-1.7-0.3
					c-0.5-0.2-1.1-0.4-1.6-0.7c-1-0.6-1.8-1.5-2.5-2.4c-0.6-0.8-0.9-1.7-1.3-2.7s-0.4-2.1-0.6-3.1c-0.1-0.6-0.1-1.2-0.1-1.8
					c0-1.2,0.1-2.3,0.2-3.5s0.1-2.4,0.2-3.7c0-1.1-0.1-2.2-0.2-3.3c-0.2-1.4-0.5-2.8-0.8-4.1c-0.4-1.5-0.8-2.9-1.4-4.2
					c-0.8-1.8-1.8-3.6-2.8-5.3s-2.1-3.3-3.2-4.9c-0.1-0.1-0.2-0.3-0.3-0.4c-0.8-1.1-1.7-2.1-2.6-3.1c-0.8-1-1.7-1.9-2.6-2.7
					c-1.4-1-3-1.8-4.6-2.5c-1-0.4-2-0.8-3-1.1c-1.1-0.4-2.3-0.9-3.4-1.3c-1.3-0.5-2.6-1.1-3.9-1.7c-1.3-0.6-2.4-1.6-3.5-2.4
					c-0.8-0.6-1.4-1.4-1.9-2.3c-0.2-0.4-0.5-1-0.5-1.5c-0.1-0.7-0.2-1.6,0-2.3C259.5,221.2,259.7,220.7,260,220.3z"/>
				<g>
					<path class="st1" d="M261.1,221.4c5-5.7,17.5-0.6,22.2,3.3c2.8,2.3,5.2,5.1,7.9,7.6c2.8,2.7,5.9,5.2,8.2,8.4
						c4.1,5.6,5.6,12.9,6.6,19.5c0.7,4.2,3.3,28.1-7.6,19.9c-5.4-4-2-14.5-3.1-20.3c-1-5.6-3.4-10.4-6.5-15.1
						c-2.4-3.7-5.4-7.8-9.3-10.1c-4-2.3-21.6-6.2-18.1-13.5c0.8-1.7-1.8-3.3-2.6-1.5c-2.2,4.5,0.1,8,4,10.7
						c6.3,4.4,14.2,4.7,19.5,10.8c4.5,5.2,8.5,11.4,9.9,18.1c1.4,6.6-1.5,14.4,2,20.5c2.2,3.8,7.4,6.4,11.6,3.9
						c4.9-3,4.3-10.7,4.1-15.6c-0.3-7.1-1.7-14.3-3.9-21.1c-2.2-6.5-6.4-10.9-11.3-15.5c-5.6-5.3-10.3-10.8-17.7-13.5
						c-5.5-2-13.5-3.6-17.9,1.4C257.7,220.7,259.8,222.8,261.1,221.4z"/>
				</g>
			</g>
			<g>
				<path class="st1" d="M217.8,224.3c0.1-0.5,0.3-1,0.6-1.4c0.4-0.5,1-1.3,1.6-1.6c0.5-0.3,1.1-0.5,1.7-0.7
					c0.4-0.1,0.8-0.2,1.2-0.2c0.7-0.1,1.3-0.2,2-0.2h0.1c0.9,0,1.8,0.1,2.6,0.3c0.9,0.2,1.8,0.4,2.7,0.8c1.2,0.5,2.4,1,3.5,1.6
					c0.9,0.5,1.6,1.1,2.4,1.7c0.7,0.5,1.4,1.1,2.1,1.6c1,0.8,2,1.7,2.9,2.7c1.8,1.9,3.5,3.9,5,6c1.4,2,2.6,4.2,3.9,6.3
					c1.3,2.3,2.6,4.7,3.6,7.2c0.9,2.2,1.4,4.6,2,6.9s1.3,4.6,1.7,7c0.3,1.5,0.4,3.1,0.6,4.6c0.1,1.2,0.2,2.4,0.1,3.6
					c0,0.8-0.1,1.6-0.2,2.4c0,0.1,0,0.2,0.1,0.3c0.3,1.5,0.5,3,0.5,4.5s-0.3,3-0.6,4.5c-0.2,1.1-0.5,2.2-1,3.2
					c-0.3,0.7-0.6,1.5-1,2.2s-0.9,1.3-1.4,1.9c-0.4,0.4-0.7,0.9-1.1,1.3c-1.6,1.4-3.8,2-5.8,2c-1.9,0-3.9-0.8-5.1-2.3
					c-0.5-0.6-1-1.2-1.4-1.9c-0.3-0.6-0.6-1.3-0.8-2c-0.2-0.6-0.2-1.3-0.3-1.9c-0.1-0.4,0-0.9,0-1.3c0.1-0.5,0.1-1,0.3-1.5
					c0.2-0.8,0.6-1.5,1-2.2c0.5-0.9,1.1-1.8,1.7-2.7c0.1-0.4,0.2-0.9,0.3-1.4c0.3-2.7,0.2-5.4-0.1-8c-0.2-1.5-0.5-2.9-0.8-4.4
					c-0.4-1.6-0.8-3.2-1.1-4.8c-0.3-1.6-0.6-3.3-1-4.9c-0.3-1.4-0.8-2.8-1.3-4.1c-0.4-0.8-0.7-1.6-1.2-2.3c-0.4-0.8-0.9-1.5-1.5-2.2
					c-1-1.3-2.2-2.6-3.3-3.8c-0.6-0.7-1.4-1.3-2.1-1.8c-0.7-0.6-1.4-1.1-2-1.6c-0.3-0.3-0.7-0.5-1-0.8c0.2,0.1,0.3,0.2,0.5,0.4
					c-1.2-0.9-2.4-1.9-3.6-2.9c-0.3-0.1-0.6-0.2-0.9-0.3c-1.1-0.3-2-1.2-2.3-2.3c-0.6-0.4-1.1-0.9-1.6-1.4c-0.2-0.2-0.3-0.4-0.5-0.6
					c-0.3-0.4-0.6-0.8-0.9-1.1c-0.3-0.4-0.5-1-0.7-1.5C217.6,226,217.6,225,217.8,224.3z"/>
				<g>
					<path class="st1" d="M219.1,225.1c3.3-7.7,14.3-0.8,18.1,2.3c5.3,4.4,9.1,10.1,12.4,16.1c3.6,6.6,5.9,14.5,6.8,22
						c0.3,2.7,0,5.2,0.1,7.8c0.2,4.1,0.6,7.3-0.9,11.3c-1.9,5-8.1,10-12.7,3.9c-2.8-3.7-0.9-6.8,0.8-10.4c2.1-4.4,1.1-10.3,0.1-14.9
						c-1.2-5.6-1.9-11.7-4.6-16.8c-2.5-4.7-6.6-8.2-10.8-11.4c-0.5,0.9-1,1.7-1.5,2.6c0.2,0.1,0.3,0.2,0.5,0.4
						c1.3,1,3.2-1.3,1.8-2.4c-3.2-2.6-10.5-6.5-10-11.3c0.2-1.9-2.8-1.9-3,0c-0.7,6.5,6.6,10.1,10.9,13.4c0.6-0.8,1.2-1.6,1.8-2.4
						c-0.2-0.1-0.3-0.2-0.5-0.4c-1.5-1.2-3,1.4-1.5,2.6c6.1,4.7,10.5,9.8,12.1,17.5c1.6,8,4.4,15.6,0.9,23.5
						c-3.5,7.8,1.8,18.5,11.5,14.9c4.8-1.8,7.1-7,8-11.7c0.5-2.6,0.5-4.9,0.2-7.5c-0.3-3.2,0-6.4-0.5-9.6
						c-1.6-13.1-7.3-26.6-16.5-36.2c-5.1-5.3-21.3-16.5-26.3-4.9C215.7,225.3,218.3,226.9,219.1,225.1z"/>
				</g>
			</g>
		</g>
	</g>
	<g>
		<g>
			<g>
				<path class="st2" d="M211.2,215.6c-0.9-1.5-2.7-2.5-4.4-2.8c-0.6-0.1-1.1-0.2-1.7-0.2c-0.1,0-0.1,0-0.2,0
					c-0.6,0-1.2,0.1-1.8,0.2c-0.7,0.1-1.4,0.3-2.1,0.5c-1.3,0.4-2.5,0.9-3.8,1.4c-2.6,1.1-5.1,2.2-7.5,3.6c-2.3,1.3-4.5,2.8-6.4,4.6
					c-1.6,1.5-3,3.3-4.4,5c-1.6,2-3.1,4-4.7,6.1c-0.6,0.8-1.2,1.7-1.8,2.5c-0.6,0.9-1.2,1.8-1.7,2.7c-0.7,1.2-1.3,2.5-1.8,3.8
					c-1.7,3-3.2,6.2-4.7,9.3c-0.6,1.4-1.2,2.7-1.7,4.1c-0.4,1.1-0.8,2.2-1.2,3.3c-0.4,1.2-0.7,2.5-1,3.7c-0.3,1.5-0.5,3.1-0.7,4.6
					c-0.2,1.8-0.3,3.6-0.3,5.4c0,0.8,0,1.6,0.1,2.4c0.1,0.9,0.2,1.8,0.4,2.6c0.5,1.6,1.5,3.4,3.1,4.1c0.4,0.2,0.8,0.4,1.2,0.4
					c0.7,0.2,1.3,0.2,2,0c1-0.2,1.8-0.7,2.5-1.4c0.4-0.5,0.9-1.1,1.2-1.7c0.2-0.4,0.4-0.9,0.5-1.3c1-1.2,1.7-2.6,2.4-4
					c0.8-1.6,1.4-3.2,2-4.8c0.5-1.4,0.8-2.8,1.3-4.2c0.4-1.4,0.9-2.8,1.5-4.2c0.4-1.2,0.9-2.4,1.4-3.6c1.4-3.2,3.1-6.2,5-9.1
					c1-1.5,1.9-3.1,2.8-4.6c0.5-0.9,1-1.7,1.6-2.5c0.4-0.7,0.9-1.3,1.4-1.9c2.5-3,5.2-5.8,8.1-8.5c0.1-0.1,0.1-0.1,0.2-0.2
					c0.5-0.3,0.9-0.7,1.4-1c1-0.8,1.9-1.5,2.9-2.3c0.2-0.1,0.3-0.2,0.5-0.4c0.9-0.7,1.8-1.4,2.7-2.1c0.8-0.6,1.6-1.2,2.5-1.7
					c0.7-0.5,1.4-1,2-1.6c0.5-0.4,1-1,1.3-1.5s0.5-1,0.6-1.5c0.2-0.7,0.2-1.3,0-2C211.6,216.4,211.4,216,211.2,215.6z"/>
				<g>
					<path class="st1" d="M212.2,214.6c-3.3-4.1-8.4-3.7-12.9-2.2c-6.1,2.1-12.4,5-17.1,9.5c-10.3,10-18.7,24.7-22.7,38.5
						c-1.6,5.7-3.1,13.5-1,19.2c1.4,3.8,5.5,6.5,9.4,4.4c4.6-2.4,7-10.5,8.5-15.1c2.5-8.1,5.9-15.2,10.3-22.5
						c4.5-7.4,10.2-13.1,17-18.3c4.4-3.4,11-6.3,8.8-12.9c-0.6-1.8-3.5-1-2.9,0.8c1.8,5.4-9.5,10.7-13.2,14
						c-4.4,3.9-8.4,8.3-11.4,13.4c-3.8,6.2-7.4,12.2-9.8,19.1c-1,2.9-1.7,5.8-2.8,8.7c-1,2.6-3.6,8.9-6.3,10.1
						c-8.9,3.8-4-19.6-3-22.6c2.4-6.7,5.7-13.9,9.5-19.9c4.2-6.6,9.5-14,16.2-18.2c4.8-3,16.3-9.8,21.1-3.8
						C211.3,218.2,213.4,216.1,212.2,214.6z"/>
				</g>
			</g>
			<g>
				<path class="st2" d="M265.8,218c0-0.5,0-1.2-0.2-1.6c-0.1-0.5-0.4-1-0.6-1.5s-0.6-0.9-1-1.3c-0.2-0.2-0.4-0.4-0.6-0.5
					c-0.4-0.3-0.7-0.6-1.1-0.8s-1-0.5-1.3-0.6c-0.2-0.1-0.5-0.2-0.7-0.2c-0.6-0.1-1.2-0.2-1.8-0.3c-0.4,0-0.8-0.1-1.2-0.1
					c-0.1,0-0.3,0-0.4,0c-1.5,0.1-2.8,0.4-4.2,0.9c-0.8,0.3-1.5,0.6-2.3,0.9c-0.7,0.3-1.4,0.6-2,1c-1.9,1-3.5,2.4-5.1,3.8
					c-1,0.8-1.9,1.8-2.8,2.7c-0.1,0.1-0.1,0.1-0.2,0.2c-0.3,0.2-0.6,0.3-0.9,0.5c-1.1,0.7-2.2,1.5-3.2,2.3c-2,1.7-3.8,3.5-5.7,5.3
					c-0.9,0.9-1.7,1.8-2.5,2.7c-1,1.1-1.8,2.2-2.7,3.3c-0.8,1-1.6,2-2.3,3.1c-0.4,0.5-0.7,1.1-1,1.6c-0.5,0.7-0.8,1.6-1.1,2.4
					c-0.9,2.3-1.6,4.6-2.1,7c-0.5,2.3-1,4.6-1.6,6.9c-0.6,2.4-1.2,4.9-1.7,7.3c-0.3,1.5-0.5,3-0.7,4.5c-0.1,1.2-0.2,2.4-0.3,3.7
					c0,1.5,0.1,2.9,0.4,4.3c0.2,1.2,0.7,2.3,1.2,3.3c0.6,1,1.5,1.8,2.4,2.5c0.4,0.3,1,0.5,1.5,0.6c0.4,0.1,0.9,0.1,1.3,0.2
					c0.4,0,0.9,0,1.3-0.1c0.5-0.2,1-0.3,1.4-0.6c0.4-0.3,0.9-0.7,1.3-1c0.5-0.4,0.9-1,1.3-1.5c0.2-0.2,0.3-0.4,0.5-0.7
					c0.5-0.8,0.8-1.7,1.1-2.5c0.4-1.1,0.6-2.4,0.8-3.6c0.5-2.7,0.7-5.4,0.8-8.1c0-1.4,0.1-2.7,0.2-4.1c0.2-1.4,0.6-2.7,1.1-4
					c0.5-1,1-2.1,1.5-3.1c0.6-1.3,1.3-2.5,2-3.8c1.3-2.4,2.9-4.7,4.5-6.9c0.8-1,1.8-2,2.6-3c0.4-0.5,0.9-1.1,1.4-1.6
					s0.9-1.1,1.4-1.7c0.9-1.1,1.8-2.1,2.8-3.1s2-1.9,3.1-2.7c1.7-1.2,3.5-2.3,5.4-3.2c2.2-1,4.4-1.9,6.4-3.2
					C264.3,222.3,265.7,220.3,265.8,218z M258.4,217.1L258.4,217.1V217C258.4,217,258.4,217,258.4,217.1z"/>
				<g>
					<path class="st1" d="M267.3,218c-0.4-12.2-16.1-8.2-22.3-3.7c-2.6,1.9-4.7,4.3-7.4,6.1c-3,2-5.6,4.6-8.1,7.2
						c-5.2,5.3-9.5,10.9-11.5,18.1c-2.1,7.6-11.7,35.4,2.4,37.7c4.7,0.7,8-3.5,9.4-7.5c1.2-3.6,1.5-7.6,1.6-11.3
						c0.2-4.7,1.1-8.2,3.3-12.4c3.6-7,8.9-14.1,14.8-19.5c5.4-5,16.5-6,17.8-14.3c0.3-1.9-2.6-2.7-2.9-0.8
						c-0.8,5.3-6.6,6.4-10.6,8.5c-2.8,1.5-5.2,3.2-7.4,5.4c-3.7,3.7-7.4,8.1-10.3,12.4c-3.2,4.8-6.8,10.6-7.4,16.4
						c-0.4,3.7-0.2,7.4-0.9,11.1c-0.7,3.8-5.2,14.1-10.2,6.4c-4.3-6.6,0.4-18.5,2-25.4c1-4.2,1.8-8.6,3.9-12.4
						c2.1-3.8,5.3-7.3,8.3-10.4c4.3-4.4,9.2-8.2,14-12.1c3.8-3.1,18.4-9.9,18.7,0.3C264.4,219.9,267.4,219.9,267.3,218z"/>
					<path class="st1" d="M257.6,215.8L257.6,215.8c0.7,0.6,1.5,1.1,2.2,1.7v-0.1c-1-0.1-2-0.3-2.9-0.4v0.1
						c-0.1,0.8,0.8,1.5,1.5,1.5c0.9,0,1.4-0.7,1.5-1.5V217c0.1-0.7-0.6-1.4-1.3-1.5c-0.7-0.1-1.5,0.3-1.6,1.1v0.1
						c-0.1,0.6,0,1.2,0.5,1.6c0.5,0.3,1.1,0.4,1.7,0.1l0,0c0.7-0.4,1-1.3,0.5-2.1C259.3,215.7,258.3,215.4,257.6,215.8z"/>
				</g>
			</g>
			<g>
				<path class="st2" d="M307.4,217.9c-0.2-0.4-0.5-0.7-0.9-1c-0.3-0.3-0.6-0.5-1-0.7c-1.8-0.9-3.8-1.2-5.7-1.2
					c-1.2,0-2.3,0.2-3.5,0.4c-0.7,0.1-1.3,0.2-1.9,0.4c-1.2,0.2-2.3,0.7-3.4,1.1c-1.4,0.5-2.8,1.1-4.2,1.7c-1.4,0.7-2.5,1.6-3.7,2.5
					c-0.9,0.8-1.8,1.6-2.6,2.4c-0.9,0.9-1.7,1.7-2.6,2.6c-1.7,1.7-3.6,3.4-5.3,5c-1.7,1.6-3.5,3.3-5,5.2c-0.5,0.7-1,1.4-1.5,2.1
					c-0.3,0.5-0.6,1.1-1,1.6c-0.7,1.3-1.3,2.6-1.8,4c-0.7,2.1-1.3,4.2-1.8,6.4c-0.3,1.2-0.6,2.4-0.9,3.6c-0.3,1.2-0.4,2.4-0.6,3.5
					c-0.3,1.4-0.5,2.9-0.6,4.4c-0.2,2.4-0.3,4.9-0.3,7.4c0,1.2,0.1,2.3,0.2,3.5c0.1,0.8,0.2,1.7,0.4,2.5c0.1,0.4,0.2,0.8,0.3,1.2
					c0.2,0.5,0.4,1,0.7,1.5c0.3,0.4,0.6,0.7,0.9,1.1c0.3,0.3,0.7,0.6,1.1,0.8c0.5,0.3,1,0.5,1.6,0.6s1.2,0.2,1.7,0.1
					c0.6-0.1,1.1-0.1,1.7-0.3c0.5-0.2,1.1-0.4,1.6-0.7c1-0.6,1.8-1.5,2.5-2.4c0.6-0.8,0.9-1.7,1.3-2.7s0.4-2.1,0.6-3.1
					c0.1-0.6,0.1-1.2,0.1-1.8c0-1.2-0.1-2.3-0.2-3.5s-0.1-2.4-0.2-3.7c0-1.1,0.1-2.2,0.2-3.3c0.2-1.4,0.5-2.8,0.8-4.1
					c0.4-1.5,0.8-2.9,1.4-4.2c0.8-1.8,1.8-3.6,2.8-5.3s2.1-3.3,3.2-4.9c0.1-0.1,0.2-0.3,0.3-0.4c0.8-1.1,1.7-2.1,2.6-3.1
					c0.8-1,1.7-1.9,2.6-2.7c1.4-1,3-1.8,4.6-2.5c1-0.4,2-0.8,3-1.1c1.1-0.4,2.3-0.9,3.4-1.3c1.3-0.5,2.6-1.1,3.9-1.7
					c1.3-0.6,2.4-1.6,3.5-2.4c0.8-0.6,1.4-1.4,1.9-2.3c0.2-0.4,0.5-1,0.5-1.5c0.1-0.7,0.2-1.6,0-2.3
					C307.8,218.8,307.7,218.3,307.4,217.9z"/>
				<g>
					<path class="st1" d="M308.4,216.8c-3.5-4-9.2-3.6-14-2.5c-7.1,1.6-11.9,5.2-17,10.2s-11.2,9.5-14.4,16.1
						c-2.9,6-4.2,13.1-5,19.6c-0.7,5.3-1.9,13.6,1.2,18.4c2.6,4.2,8.3,4.3,11.9,1.3c4.9-4.2,3.6-11,3.6-16.6
						c-0.1-7.7,3-14.6,7.4-20.8c2.2-3.1,4.8-6.3,8.1-8.2c3.6-2,7.7-3,11.4-4.7c5-2.4,9.9-6.7,7.1-12.5c-0.8-1.7-3.4-0.2-2.6,1.5
						c3.5,7.3-14.2,11.2-18.1,13.5s-6.8,6.4-9.3,10.1c-3,4.5-5.3,9.1-6.4,14.4c-1.2,5.9,2.2,16.9-3.2,21
						c-10.9,8.2-8.3-15.5-7.7-19.7c1-6.8,2.5-14.1,6.6-19.7c2.3-3.2,5.4-5.7,8.2-8.4c2.6-2.5,5.1-5.3,7.9-7.6
						c4.7-3.9,17.1-9,22.2-3.3C307.6,220.4,309.7,218.3,308.4,216.8z"/>
				</g>
			</g>
		</g>
		<g>
			<path class="st2" d="M47.5,35.1c0-1.1,0.1-2.2,0.2-3.3c0.2-1.5,0.3-3,0.7-4.5c0.1-0.5,0.3-1,0.5-1.5c0.2-0.6,0.4-1.1,0.6-1.7
				c0.7-2,1.4-4,2.5-5.8c0.6-0.9,1.2-1.9,2-2.7c0.2-0.2,0.5-0.4,0.7-0.7c0.9-1.5,2-3,3.3-4.2c1.8-1.8,4.1-2.9,6.4-4
				c2.2-1,4.3-2,6.6-2.8c1.1-0.3,2.3-0.5,3.5-0.8c1.1-0.2,2.3-0.5,3.5-0.7c1.3-0.2,2.7-0.3,4.1-0.5c1.2-0.1,2.4-0.3,3.5-0.3
				c0.6,0,1.2,0,1.8,0c1.8,0,3.7,0.1,5.5,0.1c2.5,0.1,5,0.2,7.5,0.4c1.1,0.1,2.2,0.2,3.2,0.2c1.2,0.1,2.4,0.2,3.7,0.2
				c2.5,0,5,0.1,7.5,0.2c0.3,0,0.6,0,0.9,0.1c1.7,0,3.3-0.1,5-0.1c0.8,0,1.7,0,2.5,0c1.5,0,3.1,0,4.6,0.2c1.5,0.1,3,0.3,4.5,0.5
				c1.2,0.2,2.5,0.4,3.7,0.6c2.4,0.4,4.8,0.8,7.1,1.4c1.2,0.3,2.4,0.7,3.5,1.1s2.2,0.7,3.2,1.2c2.3,0.9,4.3,2.2,6.4,3.5
				c1.8,1.1,3.6,2.2,5.3,3.3c1.8,1.2,3.7,2.3,5.5,3.5c0.9,0.6,1.8,1.2,2.7,1.7c1.1,0.7,2.2,1.6,3.2,2.4c1.8,1.4,3.6,2.8,5.3,4.4
				c0.8,0.8,1.6,1.5,2.4,2.4c0.9,1.2,1.9,2.4,2.7,3.6c1.3,1.9,2.5,3.9,3.7,5.9c1.3,2.2,2.3,4.4,3.4,6.7c0.2,0.5,0.5,1,0.7,1.5
				c0.3,0.5,0.7,1.1,1,1.6c0.6,0.9,1.1,1.7,1.6,2.6c0.6,0.9,1.1,1.9,1.6,2.8c0.7,1.3,1.2,2.6,1.7,3.9c0.1,0.3,0.3,0.7,0.4,1
				c0.5,0.8,1,1.7,1.5,2.5c0.6,1,1.2,1.9,1.7,2.9c1.3,2.6,2.3,5.4,3.5,8.1c1,2.3,2,4.5,2.9,6.8s1.6,4.6,2.4,6.9
				c0.4,1.1,0.6,2.3,0.9,3.4c0.3,1.1,0.6,2.2,0.9,3.3c0.6,2.3,1.2,4.7,1.6,7c0.4,2.6,0.9,5.3,1.1,7.9c0.2,2.5,0.2,5,0.3,7.5
				c0.1,2.4,0.3,4.8,0.4,7.3c0.1,2.4,0.1,4.8,0,7.2c-0.1,1.2-0.1,2.4-0.2,3.6c-0.1,1.5-0.3,2.9-0.5,4.4c-0.2,1.2-0.4,2.3-0.6,3.5
				c-0.1,0.5-0.3,1-0.5,1.5c-0.1,0.1-0.1,0.3-0.2,0.4c0,0.1,0,0.2,0,0.3c0,0.6,0,1.2,0,1.8c-0.1,0.8-0.1,1.6-0.3,2.3
				c-0.2,0.9-0.5,1.7-0.9,2.5c-0.2,0.5-0.5,1-0.8,1.5c-0.8,1.3-1.9,2.3-3.2,3s-2.6,1.3-4,1.6s-2.8,0.5-4.3,0.6
				c-1.1,0.1-2.3,0-3.4-0.2c-1.5-0.2-2.9-0.4-4.3-0.9c-2.2-0.7-4.2-1.6-6.3-2.7c-1-0.5-1.9-1-2.8-1.5c-1.1-0.6-2.2-1.1-3.2-1.8
				c-2.1-1.4-3.9-3.1-5.5-5c-1.5-1.8-3-3.8-4.5-5.6s-3-3.5-4.6-5.1c-0.8-0.8-1.7-1.5-2.6-2.2c-0.9-0.8-1.8-1.6-2.7-2.4
				c-1.8-1.5-3.6-3-5.4-4.5c-1.6-1.3-3-2.8-4.4-4.4c-0.7-0.8-1.4-1.6-2.1-2.3c-0.8-0.8-1.7-1.6-2.6-2.3c-3.6-2.7-7.3-5.2-10.9-7.8
				c-0.2-0.1-0.3-0.2-0.5-0.3c-0.9-0.6-1.9-1.1-2.8-1.7c-1-0.6-1.9-1.2-2.8-1.8c-0.8-0.5-1.5-1.1-2.2-1.6c-0.9-0.7-1.8-1.3-2.7-2
				c-1.5-1.2-3.1-2.3-4.7-3.3c-1.7-1.1-3.4-2.1-5.1-3.2c-3.3-2.2-6.5-4.7-9.7-7.1c-1.9-1.4-3.9-2.7-6-3.9c-2.1-1.3-4.2-2.6-6.3-4
				c-2.1-1.3-4.1-2.7-6.1-4.2c-1.9-1.4-4-2.6-5.9-3.8c-2.1-1.4-4.3-2.7-6.4-4.1c-2.3-1.6-4.5-3.3-6.7-5c-1.8-1.4-3.4-3.2-5.1-4.7
				c-1.8-1.5-3.6-3-5.4-4.6c-0.9-0.8-1.8-1.5-2.5-2.4c-0.9-1-1.8-2.1-2.6-3.2c-0.8-1.1-1.4-2.4-1.9-3.7c-0.2-0.5-0.4-1.1-0.5-1.7
				c-0.2-0.9-0.3-1.9-0.4-2.8C47.5,37.5,47.5,36.3,47.5,35.1z"/>
			<g>
				<path class="st1" d="M49,35.1c0.4-8.5,3.3-14.8,8.4-21.5C62.5,7,72.8,4.5,80.7,3.5c8.3-1,16.5,0,24.7,0.4
					c7.2,0.4,14.4,0,21.6,0.4c8.5,0.5,17.8,2.1,25.4,6.1c6.4,3.4,12.8,7.6,18.6,11.9c6.8,5.1,11.7,10.8,15.7,18.3
					c3.5,6.5,6.6,13.4,10.3,19.8c8,14,14.3,30.7,15.5,46.9c0.6,8.1,1,16.5,0.4,24.7c-0.2,3.6-1.2,6.8-1.8,10.2
					c-0.7,4.2-0.4,7.9-4.6,10.5c-7.9,5-18.2,0.3-25.2-3.9c-7-4.1-10.7-11.6-16.5-16.9c-5.6-5.1-11.3-9.9-16.7-15.2
					c-5.1-5.1-11.7-8.9-17.7-12.8c-7.1-4.5-14.2-9.6-21-14.6c-7.3-5.3-14.9-10-22.3-15.2C79.2,68.6,70.8,64,63.7,57.4
					c-3.2-2.9-6.8-5.5-9.8-8.7C50.2,44.9,48.9,40.6,49,35.1c0-1.9-3-1.9-3,0c-0.1,7.8,2.6,13.1,8.4,18.3C61,59.3,67.6,65.1,75.1,70
					c15.8,10.2,31.8,20.4,46.9,31.7c7.4,5.5,15.9,10,22.9,16.2c3,2.7,5.4,5.9,8.5,8.5c3.8,3.2,7.8,6.2,11.3,9.7
					c3,3.2,5.5,6.8,8.4,10c2.8,3.2,6.2,5.2,9.9,7.2c6.3,3.3,12.9,5.7,20.1,4.1c6.2-1.3,10.3-5.5,10.9-12c0.3-3.2,1.2-6.2,1.6-9.5
					c0.6-4.9,0.7-9.8,0.5-14.7c-0.3-9-0.5-17.8-2.6-26.6c-2.3-9.4-5.7-18.2-9.4-27.1c-2.9-6.9-6.6-13.8-10.5-20.2
					c-4.6-7.5-7.5-15.9-14.1-22c-5.9-5.5-12.9-9.7-19.7-13.9c-8.1-5-15.7-7.8-25.1-9.2c-9.1-1.4-18.2-0.9-27.3-1.2
					c-10-0.4-19.8-1.7-29.7-0.1c-8.1,1.4-17.4,4.5-22.6,10.9c-5.7,7-8.7,14.2-9,23.3C45.9,37.1,48.9,37.1,49,35.1z"/>
			</g>
		</g>
		<g>
			<path class="st2" d="M335.9,206.5c0.2-1.1,0.4-2.1,0.6-3.2c0.1-0.8,0.1-1.6,0.2-2.5c0-0.8,0-1.6,0-2.3c0-1.3-0.2-2.5-0.2-3.8
				c-0.2-3.2-0.7-6.3-1.2-9.5c-0.5-3.3-1.2-6.6-2.1-9.7c-1.1-3.5-2.2-7.1-3.6-10.5c-0.3-0.8-0.7-1.7-1.1-2.5
				c-0.6-1.2-1.5-2.5-2.3-3.6c-0.4-0.6-0.9-1.2-1.4-1.8c-1-1.3-2.2-2.4-3.5-3.5s-2.5-2.2-3.9-3.2c-0.9-0.7-1.8-1.3-2.7-1.8
				c-0.7-0.6-1.5-1.2-2.2-1.8c-1.2-0.8-2.3-1.7-3.6-2.4c-1.3-0.9-2.7-1.7-4-2.6c-1.1-0.8-2.2-1.6-3.3-2.4c-2.6-1.8-5.4-3.4-8.2-4.8
				c-1.4-0.7-2.9-1.4-4.3-2.1c-1.4-0.7-2.9-1.4-4.3-2.1c-1.5-0.7-3-1.4-4.5-2c-0.2-0.1-0.5-0.2-0.8-0.3c-1.3-0.4-2.5-0.8-3.8-1.1
				c-1.6-0.4-3.2-0.9-4.9-1.3c-1.8-0.5-3.6-0.8-5.4-1.2c-0.6-0.2-1.3-0.3-1.9-0.5c-1.3-0.4-2.5-0.7-3.8-1c-1.5-0.3-3-0.4-4.5-0.7
				c-1.6-0.4-3.3-0.8-4.9-1c-1.1-0.2-2.2-0.4-3.3-0.6c-1.1-0.3-2.2-0.6-3.3-0.8c-1.3-0.3-2.5-0.6-3.8-1c-2.7-0.8-5.5-1.4-8.2-1.9
				c-1.8-0.4-3.7-0.8-5.5-1.1c-1.7-0.3-3.4-0.6-5.1-0.9c-2.8-0.6-5.6-1.3-8.3-1.9c-1.9-0.4-3.8-0.8-5.7-1.2
				c-1.6-0.3-3.2-0.6-4.8-0.8c-3-0.3-6-0.5-9.1-0.8c-1.6-0.1-3.2-0.2-4.7-0.4c-1.5-0.1-3-0.3-4.5-0.3c-2.1-0.1-4.3-0.1-6.4,0
				c-2,0.1-4.1,0.2-6.1,0.3c-6,0.3-12.1,0-18.1,0.5c-3,0.2-5.9,0.7-8.8,1.4c-1.6,0.4-3.2,1-4.8,1.5c-1.2,0.4-2.5,0.8-3.7,1.3
				c-2.6,0.8-5.2,1.5-7.8,2.2c-1.7,0.5-3.4,1.2-5.1,1.8c-1.5,0.5-2.9,1.1-4.3,1.7c-2.3,1-4.5,2.1-6.6,3.3c-0.5,0.2-1.1,0.3-1.6,0.5
				c-1.5,0.5-3,0.9-4.5,1.3c-1.7,0.5-3.3,1-5,1.5c-3.1,0.9-6.1,1.9-9.2,2.8c-1.8,0.6-3.6,1.1-5.4,1.9c-1.5,0.6-2.9,1.5-4.3,2.4
				c-0.9,0.5-1.8,1.1-2.6,1.7c-0.7,0.5-1.5,0.9-2.2,1.4c-1.3,1-2.6,2-3.8,3c-4.7,4-9.4,8.1-14.1,12.1c-2.4,2.1-4.6,4.2-6.8,6.5
				c-2.3,2.5-4.7,4.9-6.8,7.6c-1,1.3-2,2.5-2.9,3.8c-1.1,1.6-2,3.3-2.9,5c-1.4,2.8-2.8,5.5-4,8.4c-0.8,1.9-1.6,3.8-2.2,5.8
				c-0.8,2.4-1.4,4.9-1.9,7.4c-0.4,2.3-0.4,4.7,0,7.1c0.4,2.1,1.1,4,1.7,6c0.5,1.6,0.9,3.3,1.5,4.9c0.5,1.3,1.1,2.5,1.6,3.7
				c0.5,1.3,0.9,2.6,1.4,3.9c0.6,1.6,1.6,3,2.6,4.4c0.4,0.6,0.7,1.1,1.1,1.7c0.3,1.1,0.7,2.1,1.2,3.1c0.4,0.9,1.1,1.8,1.6,2.6
				c0.4,0.6,0.9,1.2,1.4,1.8c0.1,0.1,0.1,0.1,0.2,0.2c0.3,0.4,0.6,0.8,0.9,1.1c1.2,1.3,2.5,2.5,4,3.5c1.3,0.9,2.6,1.7,3.9,2.6
				c1.3,0.9,2.6,1.8,4,2.6c1.7,1,3.5,1.9,5.3,2.7c1.4,0.7,2.8,1.4,4.2,2c1.4,0.7,2.8,1.3,4.2,1.9c1.4,0.6,2.7,1.3,4.1,1.9
				c1.5,0.7,2.9,1.3,4.4,1.8c0.6,0.2,1.1,0.4,1.7,0.6c0.4,0.2,0.9,0.4,1.3,0.6c5.8,2.8,12.4,3.9,18.8,4.1c3.4,0.1,6.7-0.1,10.1-0.4
				c1.4-0.2,2.9-0.4,4.3-0.7c1.9-0.4,3.6-0.9,5.4-1.5c1.4-0.5,2.8-1.1,4.1-1.7c1.3-0.7,2.5-1.5,3.8-2.3c2.7-1.7,5.6-3.1,8.5-4.5
				c2.7-1.3,5.6-2.2,8.3-3.7c1.8-0.9,3.4-2.1,4.9-3.4c1.2-1,2.4-2.1,3.4-3.2c0.9-0.9,1.7-1.8,2.7-2.6c1-0.9,2.1-1.8,3.2-2.6
				c2-1.6,4.3-3,6.4-4.4c0.8-0.5,1.5-0.9,2.3-1.3c1-0.5,2-0.9,3.1-1.3c1.9-0.8,3.8-1.7,5.7-2.5c2.1-0.6,4.2-1.2,6.3-1.6
				c2.2-0.4,4.4-0.8,6.6-0.9c2,0,3.9,0.2,5.8,0.5c0.9,0.3,1.8,0.8,2.7,1.2c2,1,4,2,6,3c1.2,0.6,2.3,1.3,3.5,2
				c1.2,0.8,2.4,1.7,3.6,2.6c1.3,0.8,2.5,1.7,3.9,2.4c1.9,1,3.8,2,5.8,3c0.4,0.2,0.9,0.4,1.3,0.6c0.5,0.4,1,0.7,1.5,1.1
				c1.2,0.9,2.5,1.8,3.8,2.6c1.3,0.9,2.6,1.8,4,2.6c1.3,0.8,2.7,1.6,4,2.3c1.8,0.9,3.6,1.8,5.5,2.6c2.9,1.2,5.8,2.3,8.8,3.4
				c1.4,0.5,2.8,1,4.2,1.5s2.9,0.9,4.3,1.3c0.7,0.2,1.5,0.4,2.2,0.5c0.2,0.1,0.5,0.1,0.7,0.2c0.4,0.1,0.8,0.2,1.1,0.2
				c0.5,0.1,1,0.2,1.5,0.3c2.7,0.5,5.5,0.7,8.3,0.9c3.3,0.2,6.7,0,9.9-0.7c3.2-0.7,6.3-1.9,9.4-3.1c2.6-1.1,5-2.6,7.5-3.9
				c2.4-1.3,4.9-2.5,7.3-3.8c3-1.6,6-3.4,8.6-5.7c0.6-0.5,1.1-1.1,1.6-1.6c0.8-0.9,1.6-1.8,2.3-2.7c0.4-0.5,0.7-1.1,1-1.6
				c0.4-0.7,0.9-1.4,1.3-2.1c0.7-1.3,1.4-2.6,2.2-3.8c0.8-1.2,1.7-2.4,2.5-3.6c2-2.9,3.5-6.2,4.8-9.5
				C334.4,212.7,335.3,209.6,335.9,206.5z"/>
			<g>
				<path class="st1" d="M337.4,206.9c2.6-12.6-0.8-27-5.1-38.8c-4-11.1-11.9-17.7-21.5-24.1c-10-6.8-20.4-14-32.2-17.6
					c-11.8-3.7-24-5-35.9-8.1c-6.5-1.7-13-3.1-19.6-4.4c-7-1.3-13.8-3.4-20.9-4.3c-13.4-1.6-26.4-1.2-39.8-1
					c-13.8,0.2-26.7,3.8-39.6,8.6c-6.4,2.4-12.2,5.4-18.8,7.3c-7,2.1-14.7,3.7-21.1,7.3c-11.4,6.5-22.1,16.5-31.1,25.8
					c-9.2,9.5-16.1,20.4-19.9,33.2c-3.4,11.4,0.3,23.5,5.8,33.8c2.3,4.3,4.5,8.8,7.5,12.6c3.8,4.6,9.3,7.9,14.4,10.7
					c21,11.3,47.9,22.9,70.6,9.3c5.8-3.5,12.1-5.7,18-8.9c5.9-3.3,10-8.9,15.5-12.9c4.9-3.6,10.2-6.4,15.9-8.5
					c7.9-2.8,15.6-3.3,23.2,0.5c6.3,3.2,11.9,7.5,18.2,10.7c6.1,3.1,11.3,7.6,17.5,10.7c11.9,5.9,25.9,10.8,39.4,10.5
					c6.4-0.2,12.6-2.1,18.3-4.8c6.9-3.3,14.5-6.9,20.6-11.6c5.2-4,7.7-9.4,11.2-14.7C332.5,221.6,335.5,214.8,337.4,206.9
					c0.4-1.9-2.5-2.7-2.9-0.8c-1.6,7-4.2,13.5-8.3,19.5c-3.2,4.7-5.6,10.1-9.9,13.9c-4.9,4.4-11.4,6.9-17.1,10
					c-6.1,3.4-12.5,6.2-19.5,6.7c-12.3,0.9-24.3-3.5-35.4-8.2c-5.2-2.2-10.1-5.1-14.8-8.3c-5-3.4-10.6-5.9-15.5-9.4
					c-4.3-3-8.9-5.7-13.7-7.8c-4.9-2.1-10.6-1.2-15.7-0.1c-10.2,2.2-20,7.5-27.6,14.6c-2.5,2.3-4.7,4.9-7.5,6.8
					c-2.7,1.9-5.8,3.1-8.8,4.4c-5.4,2.3-10.2,5.9-15.6,8.3c-12.9,5.8-28.5,4-41.1-1.1c-10.5-4.3-21.2-8.8-30.6-15.3
					c-5.2-3.6-7.3-7.3-10-12.7c-1.4-2.7-3.1-4.8-4.2-7.7c-1.1-3-2.3-5.9-3.3-8.9c-2.1-6.8-2.9-12.5-0.9-19.4
					c2-6.6,5.1-13.6,8.8-19.5c7.2-11.3,18.3-20,28.4-28.6c4.3-3.7,8.8-7.3,13.9-10c6.7-3.5,14.9-5.1,22.2-7.1
					c5.5-1.6,10.3-4.4,15.6-6.4c6.4-2.4,13.2-4.3,19.8-6.3c6.2-1.9,12.6-2.1,19-2.2c6.7-0.1,13.3-0.7,20-0.5
					c13.1,0.3,25.5,2.8,38.3,5.4c13.1,2.7,26.2,5.5,39.2,8.2c12.6,2.7,24.3,6.5,35.6,12.7c5.4,3,10.6,6.8,15.6,10.4
					c5.7,4.1,11.6,8.2,15.3,14.3c3.6,6,5.5,13.5,6.9,20.3c1.5,7.7,2.8,16,1.2,23.7C334.1,208,337,208.8,337.4,206.9z"/>
			</g>
		</g>
		<g>
			<path class="st2" d="M351.7,35.1c0-1.1-0.1-2.2-0.2-3.3c-0.2-1.5-0.3-3-0.7-4.5c-0.1-0.5-0.3-1-0.5-1.5c-0.2-0.6-0.4-1.1-0.6-1.7
				c-0.7-2-1.4-4-2.5-5.8c-0.6-0.9-1.2-1.9-2-2.7c-0.2-0.2-0.5-0.4-0.7-0.7c-0.9-1.5-2-3-3.3-4.2c-1.8-1.8-4.1-2.9-6.4-4
				c-2.2-1-4.3-2-6.6-2.8c-1.1-0.4-2.3-0.6-3.5-0.9c-1.1-0.2-2.3-0.5-3.5-0.7c-1.4-0.2-2.8-0.4-4.2-0.5c-1.2-0.1-2.4-0.3-3.5-0.3
				c-0.6,0-1.2,0-1.8,0c-1.8,0-3.7,0.1-5.5,0.1c-2.5,0.1-5,0.2-7.5,0.4c-1.1,0.1-2.2,0.2-3.2,0.2c-1.2,0.1-2.4,0.2-3.7,0.2
				c-2.5,0-5,0.1-7.5,0.2c-0.3,0-0.6,0-0.9,0.1c-1.7,0-3.3-0.1-5-0.1c-0.8,0-1.7,0-2.5,0c-1.5,0-3.1,0-4.6,0.2
				c-1.5,0.1-3,0.3-4.5,0.5c-1.2,0.2-2.5,0.4-3.7,0.6c-2.4,0.4-4.8,0.8-7.1,1.4c-1.2,0.3-2.4,0.7-3.5,1.1s-2.2,0.7-3.2,1.2
				c-2.3,0.9-4.3,2.2-6.4,3.5c-1.8,1.1-3.6,2.2-5.3,3.3c-1.8,1.2-3.7,2.3-5.5,3.5c-0.9,0.6-1.8,1.2-2.7,1.7
				c-1.1,0.7-2.2,1.6-3.2,2.4c-1.8,1.4-3.6,2.8-5.3,4.4c-0.8,0.8-1.6,1.5-2.4,2.4c-0.9,1.2-1.9,2.4-2.7,3.6
				c-1.3,1.9-2.5,3.9-3.7,5.9c-1.3,2.2-2.3,4.4-3.4,6.7c-0.2,0.5-0.5,1-0.7,1.5c-0.3,0.5-0.7,1.1-1,1.6c-0.6,0.9-1.1,1.7-1.6,2.6
				c-0.6,0.9-1.1,1.9-1.6,2.8c-0.7,1.3-1.2,2.6-1.7,3.9c-0.1,0.3-0.3,0.7-0.4,1c-0.5,0.8-1,1.7-1.5,2.5c-0.6,1-1.2,1.9-1.7,2.9
				c-1.3,2.6-2.3,5.4-3.5,8.1c-1,2.3-2,4.5-2.9,6.8s-1.6,4.6-2.4,6.9c-0.4,1.1-0.6,2.3-0.9,3.4c-0.3,1.1-0.6,2.2-0.9,3.3
				c-0.6,2.3-1.2,4.7-1.6,7c-0.4,2.6-0.9,5.3-1.1,7.9c-0.2,2.5-0.2,5-0.3,7.5c-0.1,2.4-0.3,4.8-0.4,7.3c-0.1,2.4-0.1,4.8,0,7.2
				c0.1,1.2,0.1,2.4,0.2,3.6c0.1,1.5,0.3,2.9,0.5,4.4c0.2,1.2,0.4,2.3,0.6,3.5c0.1,0.5,0.3,1,0.5,1.5c0.1,0.1,0.1,0.3,0.2,0.4
				c0,0.1,0,0.2,0,0.3c0,0.6,0,1.2,0,1.8c0.1,0.8,0.1,1.6,0.3,2.3c0.2,0.9,0.5,1.7,0.9,2.5c0.2,0.5,0.5,1,0.8,1.5
				c0.8,1.3,1.9,2.3,3.2,3s2.6,1.3,4,1.6s2.8,0.5,4.3,0.6c1.1,0.1,2.3,0,3.4-0.2c1.5-0.2,2.9-0.4,4.3-0.9c2.2-0.7,4.2-1.6,6.3-2.7
				c1-0.5,1.9-1,2.8-1.5c1.1-0.6,2.2-1.1,3.2-1.8c2.1-1.4,3.9-3.1,5.5-5c1.5-1.8,3-3.8,4.5-5.6s3-3.5,4.6-5.1
				c0.8-0.8,1.7-1.5,2.6-2.2c0.9-0.8,1.8-1.6,2.7-2.4c1.8-1.5,3.6-3,5.4-4.5c1.6-1.3,3-2.8,4.4-4.4c0.7-0.8,1.4-1.6,2.1-2.3
				c0.8-0.8,1.7-1.6,2.6-2.3c3.6-2.7,7.3-5.2,10.9-7.8c0.2-0.1,0.3-0.2,0.5-0.3c0.9-0.6,1.9-1.1,2.8-1.7c1-0.6,1.9-1.2,2.8-1.8
				c0.8-0.5,1.5-1.1,2.2-1.6c0.9-0.7,1.8-1.3,2.7-2c1.5-1.2,3.1-2.3,4.7-3.3c1.7-1.1,3.4-2.1,5.1-3.2c3.3-2.2,6.5-4.7,9.7-7.1
				c1.9-1.4,3.9-2.7,6-3.9c2.1-1.3,4.2-2.6,6.3-4c2.1-1.3,4.1-2.7,6.1-4.2c1.9-1.4,4-2.6,5.9-3.8c2.1-1.4,4.3-2.7,6.4-4.1
				c2.3-1.6,4.5-3.3,6.7-5c1.8-1.4,3.4-3.2,5.1-4.7c1.8-1.5,3.6-3,5.4-4.6c0.9-0.8,1.8-1.5,2.5-2.4c0.9-1,1.8-2.1,2.6-3.2
				c0.8-1.1,1.4-2.4,1.9-3.7c0.2-0.5,0.4-1.1,0.5-1.7c0.2-0.9,0.3-1.9,0.4-2.8C351.8,37.5,351.8,36.3,351.7,35.1z"/>
			<g>
				<path class="st1" d="M353.2,35.1c-0.3-7.5-2.2-14.7-7-20.6c-4.8-6-10.1-9.6-17.6-12c-8.4-2.7-17.4-2.7-26.1-2.2
					c-8.9,0.5-17.7,0.9-26.6,0.9c-8.5,0.1-17.5,1.4-25.5,4.3c-7.8,2.8-15,8.2-21.8,12.8c-6.5,4.4-12,9.5-16.1,16.2
					c-2.4,3.9-4.1,8.1-6.4,12c-1.9,3.3-3.8,6.4-5.3,9.9c-3.7,8.2-8.2,16-11.2,24.6c-2.9,8.2-5.2,16.9-6,25.6
					c-0.8,9.4-1.3,19.2-0.2,28.6c0.4,3.3,1.3,6.4,1.7,9.6c0.3,3.1,1.1,6.1,3.2,8.5c9.4,10.7,29.7,1.5,37.4-6.7
					c3.2-3.4,5.7-7.3,8.9-10.6c3.2-3.4,7-6.2,10.6-9.2c3.3-2.8,6-6.2,9.2-9c3.7-3.3,8.2-6.3,12.3-9c17.4-11.2,33.8-23.7,51.2-34.9
					c8.5-5.4,15.9-11.1,23.6-17.6C348.7,50.2,353.3,44.9,353.2,35.1c0-1.9-3-1.9-3,0c0.1,9.7-5.3,14.3-12.2,20.2
					c-6.5,5.6-12.9,10.5-20.1,15.1c-13.5,8.5-26.8,17.7-39.8,27c-6,4.2-12,8.3-18,12.5c-2.9,2.1-5.9,4-8.5,6.4
					c-2.7,2.6-5,5.5-7.9,7.9c-6.2,5.2-11.9,10.1-16.9,16.4c-5.2,6.6-12.5,11.8-20.8,13.7c-3.9,0.9-8.6,1-12.3-0.9
					c-5.1-2.6-4.7-6.1-5.7-10.9c-1.5-7.5-2.2-14.4-1.9-22.1c0.4-8.4,0.5-16.7,2.5-24.9c1.9-8,4.6-15.5,7.8-23.1
					c1.8-4.1,3.6-8,5.8-11.9c1.7-2.9,2.7-6.2,4.5-9.1c4.1-6.8,7.2-14.3,12.1-20.6c4.8-6.1,11.8-10.2,18.3-14.3
					c7-4.5,13.8-8.7,22.1-10.4c8.5-1.7,16.7-1.7,25.3-1.9c9.1-0.2,18.2-1.3,27.4-1.2c9.1,0.1,20,2.1,27.3,7.9
					c7.2,5.7,10.7,15.2,11.1,24.2C350.3,37.1,353.3,37.1,353.2,35.1z"/>
			</g>
		</g>
		<g>
			<g>
				<path class="st2" d="M92.3,162.2c-0.1-2.7-0.4-5.4-0.8-8c-0.2-1.1-0.3-2.3-0.7-3.4c-0.4-1.4-0.9-2.7-1.6-4
					c-0.7-1.2-1.6-2.4-2.5-3.4c-0.7-0.8-1.4-1.5-2.2-2.2c-1.8-1.6-3.9-3-5.9-4.3c-1.2-0.7-2.5-1.4-3.8-1.9c-1.1-0.4-2.2-0.8-3.3-1.1
					c-1.5-0.3-2.9-0.4-4.4-0.6c-1.2-0.1-2.3-0.3-3.5-0.4c-2.4-0.2-4.8-0.5-7.2-0.6s-4.7-0.2-7.1-0.2c-0.8,0-1.7,0-2.5,0
					c-0.4,0-0.8,0-1.2,0c-1.2,0-2.5,0.1-3.7,0.2c-2.7,0.3-5.4,0.7-7.9,1.4c-1.9,0.5-3.8,1.3-5.6,2.1c-0.4,0.1-0.9,0.2-1.3,0.2
					c-0.3,0.1-0.6,0.2-0.9,0.2c-1.3,0.4-2.6,0.9-3.9,1.5c-1,0.5-1.8,1.1-2.7,1.7c-1,0.8-2,1.5-3,2.3c-0.8,0.7-1.7,1.5-2.4,2.3
					c-0.7,0.5-1.5,1.1-2.2,1.7c-0.9,0.7-1.7,1.5-2.4,2.3c-1,1.1-1.9,2.3-2.7,3.6c-0.6,1-1.2,2.1-1.7,3.1c-0.6,1.2-1.3,2.5-1.8,3.7
					c-0.4,1-0.8,2-1,3c-0.6,2.6-0.7,5.2-0.8,7.9c-0.1,2.4-0.2,4.9,0,7.3c0.1,2.6,0.4,5.2,0.8,7.9c0.4,2.4,0.8,4.8,1.4,7.1
					c0.6,2.5,1.3,5,2.8,7.1c0.8,1.2,1.8,2.3,2.8,3.4c0.8,0.8,1.6,1.6,2.4,2.4c0.4,0.4,0.9,0.8,1.3,1.1l0.1,0.1
					c0.7,0.7,1.5,1.3,2.2,1.9c0.8,0.7,1.6,1.4,2.5,2.1c0.9,0.8,1.9,1.5,2.9,2.2c0.9,0.6,1.9,1.2,2.9,1.6c1.3,0.6,2.6,1.2,4,1.7
					c1.1,0.4,2.2,0.8,3.3,1.2c1.1,0.4,2.2,0.8,3.4,1.2c1,0.4,1.9,0.7,2.9,1.1c0.5,0.2,1.1,0.4,1.6,0.6c0.6,0.2,1.1,0.4,1.7,0.5
					c1,0.3,2.1,0.5,3.1,0.9c1.2,0.5,2.6,0.6,3.9,0.7c1.4,0.1,2.7,0,4-0.2c2.1-0.3,4.2-0.8,6.3-1.5c1.4-0.5,2.8-1.1,4.2-1.7
					c1.1-0.5,2.1-1.1,3.2-1.6c0.7-0.4,1.5-0.7,2.2-1.1c0.4-0.2,0.8-0.3,1.2-0.5c-0.1,0-0.1,0-0.2,0.1c1.2-0.5,2.4-1.1,3.4-1.8
					c0.9-0.6,1.7-1.2,2.5-1.8c0.5-0.4,1-0.8,1.6-1.3c1.7-1.3,3.5-2.6,5.1-4.2c0.8-0.8,1.6-1.5,2.3-2.3c0.9-1.1,1.7-2.2,2.4-3.4
					c1.2-2.2,2.2-4.6,2.9-7c0.4-1.3,0.6-2.7,0.8-4.1c0.1-0.5,0.2-1,0.3-1.4c0.3-1.1,0.7-2.2,1-3.4c0.3-1.1,0.6-2.3,0.9-3.4
					c0.5-2.5,0.7-5.1,0.5-7.6c0-0.4-0.1-0.7-0.1-1.1c0.1-1,0.2-2,0.2-3C92.3,167.1,92.4,164.6,92.3,162.2z"/>
				<g>
					<path class="st1" d="M93.8,162.2c-0.3-7.1-1.1-14.3-6-19.9c-4.9-5.5-11.9-9.4-19.2-10.3c-15.7-1.8-32.5-2.9-47.1,4.7
						c-6.5,3.4-13.2,9.6-16.8,16c-4,7.2-4.8,14.2-4.7,22.4c0.1,7.8,0.8,18,5.2,24.6c3.7,5.5,10.4,11.3,16.1,14.7
						c3.9,2.2,8.3,3.5,12.5,5c3.9,1.5,7.9,3.2,12.1,3.8c8.5,1.2,15.9-3.4,23.4-6.6c1.8-0.8,0.2-3.3-1.5-2.6c-0.1,0-0.1,0-0.2,0.1
						c0.5,0.9,1,1.7,1.5,2.6c8.3-3.7,16.7-11.2,19.9-19.8C93.3,185.8,94,173.8,93.8,162.2c0-1.9-3-1.9-3,0c0.1,5,0.1,10.3-0.2,15.3
						c-0.4,5.1-2.1,10.8-3.4,15.7c-2.5,9.2-10.9,17-19.5,20.9c-1.8,0.8-0.2,3.3,1.5,2.6c0.1,0,0.1,0,0.2-0.1c-0.5-0.9-1-1.7-1.5-2.6
						c-8.6,3.7-15.8,8.1-25.4,5.2c-8.6-2.6-17.7-5.5-24.7-11.3c-2.9-2.4-5.8-4.8-8.2-7.7c-3.5-4-4.5-8.9-5.4-14
						C2.6,176.9,1.8,165.7,6,157c7.8-16.3,26.2-23.5,43.4-23.3c8.6,0.1,19.6-0.3,27.4,3.8c4.4,2.3,8.8,5.7,11.3,10.1
						c2.4,4.4,2.6,9.7,2.9,14.6C90.9,164.1,93.9,164.1,93.8,162.2z"/>
				</g>
			</g>
			<g>
				<path class="st2" d="M209.4,181.8c-0.1-4.5-1-8.9-1.7-13.3c-0.5-4-1.1-8.1-1.7-12.1c-0.3-1.9-0.6-3.9-1-5.8
					c-0.4-1.8-0.8-3.6-1.1-5.4c-0.8-3.8-1.7-7.6-3-11.3c-0.1-0.2-0.2-0.4-0.2-0.6c-0.3-1.4-0.6-2.8-1.1-4.2c-0.5-1.7-1-3.3-1.7-4.9
					c-1-2.3-2-4.5-3.4-6.5c-1.3-1.8-2.8-3.4-4.2-5.2l-0.1-0.1c-1.2-1.6-2.5-3.2-3.7-4.7c-1.2-1.4-2.5-2.9-3.9-4.1
					c-1.7-1.5-3.6-2.8-5.5-4.1c-1.6-1.1-3.3-2-5.1-2.8c-2.2-0.9-4.4-1.8-6.6-2.4c-1.8-0.5-3.7-1-5.5-1.4c-3.6-0.9-7.1-2.2-10.6-3.1
					c-4.2-1.1-8.6-1.6-12.9-2.1c-2.1-0.2-4.2-0.4-6.3-0.6c-2-0.1-4-0.3-6-0.4c-1.5,0-3-0.1-4.6-0.1c-0.6,0-1.2,0-1.8,0
					c-2.5,0.1-5,0.4-7.4,0.8c-3.9,0.7-7.8,1.6-11.6,2.7c-4.1,1.2-8,2.9-11.9,4.7c-3.4,1.7-6.9,3.2-10,5.3c-3.2,2.2-6.5,4.4-9.7,6.7
					c-1.6,1.2-3.3,2.3-4.9,3.5c-1.9,1.4-3.8,3-5.6,4.5c-1.4,1.1-2.8,2.3-4.1,3.5s-2.4,2.4-3.6,3.7c-3.1,3.3-6,6.8-8.4,10.6
					c-2.3,3.6-4.2,7.5-5.7,11.5c-1.4,3.8-1.8,7.9-2.3,11.9c-0.2,1.2-0.3,2.4-0.5,3.6c-0.1,0.3-0.3,0.6-0.4,0.8
					c-1,2.2-1.8,4.4-2.6,6.6c-0.6,1.9-1.2,3.8-1.7,5.7c-0.6,2.4-0.8,4.8-0.8,7.3s0.3,5,0.7,7.4c0.6,4,1.6,7.9,2.4,11.8
					c0.4,1.9,0.9,3.8,1.3,5.7c0.4,1.4,0.7,2.7,1.1,4.1c0.1,0.5,0.2,0.9,0.2,1.4c0.3,1.9,0.7,3.8,1.1,5.7c0.4,1.6,0.9,3.1,1.5,4.5
					c0.1,0.5,0.2,0.9,0.3,1.4c0.5,1.9,0.9,3.8,1.5,5.7c0.3,0.9,0.5,1.8,0.8,2.7c0.4,1.3,1,2.6,1.6,3.9c0.5,1.1,1.1,2.2,1.8,3.2
					c0.2,0.4,0.5,0.8,0.7,1.1c0.8,1.2,1.7,2.4,2.6,3.5c1.2,1.5,2.8,2.6,4.4,3.7c1.5,1.2,3.1,2.3,4.7,3.2c0.8,0.5,1.6,1,2.4,1.4
					c1.4,0.7,2.9,1.3,4.3,1.8c0.7,0.3,1.4,0.5,2.2,0.7c0.1,0.1,0.3,0.1,0.4,0.2c0.9,0.6,1.8,1.3,2.8,1.8c2.9,1.7,6.1,2.9,9.2,4.2
					c0.1,0.1,0.3,0.1,0.4,0.2c3.9,1.8,7.6,4,11.7,5.3c4.2,1.4,8.6,2,13,2.3c2,0.1,3.9,0.1,5.9-0.2c1.3-0.1,2.7-0.3,4-0.5
					c0.7-0.1,1.4-0.2,2.2-0.4c0.1,0,0.2,0,0.2-0.1c2.3,0.2,4.6-0.2,6.9-0.5c1.9-0.3,3.7-0.8,5.6-1.4c2-0.6,4-1.1,5.9-1.7
					c2-0.6,4-1,6-1.6c4.2-1.2,8.4-2.6,12.4-4.3c1.7-0.8,3.4-1.7,5.1-2.7c1.7-1,3.5-1.9,5.3-2.8c1.4-0.7,2.8-1.4,4.3-2
					c3.4-1.4,6.7-2.9,9.8-4.9c3.7-2.4,7.1-5.2,10.1-8.5c2.3-2.5,4.4-5.3,6.6-8c2.9-3.5,5.7-7.1,8.1-11c1-1.6,2-3.3,3-5
					c0.9-1.7,1.6-3.5,2.4-5.2c0.9-2,1.8-4,2.7-6.1c0.3-0.8,0.6-1.5,0.9-2.3c0.3-0.9,0.5-1.9,0.7-2.8c0.5-2.4,0.9-4.8,1.2-7.2
					C209.3,185.9,209.4,183.9,209.4,181.8z"/>
				<g>
					<path class="st1" d="M210.9,181.8c-0.5-10.4-2.4-21.3-4.3-31.6c-1.7-8.9-3.8-18.4-7.3-26.8c-3-7.2-8.9-14.5-14.5-19.9
						c-6.9-6.7-15.3-9.7-24.4-12.1c-5.4-1.4-10.6-3.4-16.1-4.3c-4.7-0.8-9.4-1.2-14.2-1.5c-9.8-0.8-19.1-0.3-28.6,2.2
						c-18.5,4.9-36.3,16.6-50.1,29.6c-6.9,6.5-12.9,14.3-16.6,23.1c-1.9,4.5-2.9,9.1-3.5,13.9c-0.7,5.4-3,10-4.6,15.2
						c-2.9,9.6-0.9,19,1.2,28.5c2.2,10.1,4.6,20.2,7.5,30.1c2.2,7.7,6.2,14.3,12.6,19.1c3,2.3,6.2,4.3,9.7,5.7
						c4.2,1.7,7.9,4,12.1,5.8c9.4,4.1,18,8.8,28.3,9.6c4.3,0.4,8.4-0.1,12.7-0.7c4.9-0.7,9.5-0.9,14.3-2.3c10.8-3,21.1-5.8,31-11.2
						c9.6-5.2,19.6-8.4,27.4-16.4C197.9,223,210.9,203.1,210.9,181.8c0-1.9-3-1.9-3,0c0,19.3-10.9,35.1-22.7,49.4
						c-6.3,7.6-13.5,12.4-22.5,16.4s-17.1,9-26.6,11.7c-17.2,4.8-36.5,10-53.6,2.1c-3.2-1.5-6.4-3.1-9.7-4.5
						c-3.7-1.5-7-3.9-10.6-5.4c-8-3.2-15.2-7.1-19.9-14.6c-4.8-7.7-6.7-18-8.5-26.8c-1.8-9-4.9-17.9-5.6-27.2
						c-0.4-4.8,0.3-9.4,1.8-14c1.4-4.2,3.4-8,4-12.5c1.4-10.6,4.8-19.7,11.5-28.2c10.7-13.5,26.5-24.7,42-32.1
						c18.1-8.6,37.3-9.4,56.8-6c5.2,0.9,10.1,2.8,15.2,4.1c5.4,1.4,10.8,2.8,15.6,5.7c7.6,4.6,14.7,12.7,19.3,20.4
						c4.6,7.8,6.6,18.3,8.5,27.1c2.3,11.1,4.5,23,5,34.3C208,183.7,211,183.7,210.9,181.8z"/>
				</g>
			</g>
			<g>
				<path class="st2" d="M191.7,219c2.6-0.6,5.2-1.4,7.7-2.2c1.1-0.4,2.2-0.7,3.2-1.3c1.3-0.6,2.5-1.4,3.6-2.3c1.1-0.9,2-2,2.9-3
					c0.7-0.8,1.2-1.7,1.7-2.5c1.3-2.1,2.3-4.3,3.2-6.6c0.5-1.3,0.9-2.7,1.2-4.1c0.2-1.1,0.4-2.3,0.5-3.4c0-1.5-0.1-3-0.2-4.4
					c-0.1-1.2-0.2-2.4-0.3-3.5c-0.2-2.4-0.4-4.8-0.7-7.2s-0.7-4.7-1.1-7c-0.1-0.8-0.3-1.7-0.4-2.5c-0.1-0.4-0.1-0.8-0.2-1.2
					c-0.3-1.2-0.6-2.4-0.9-3.6c-0.7-2.6-1.7-5.1-2.8-7.6c-0.9-1.8-1.9-3.5-3.1-5.1c-0.1-0.4-0.3-0.8-0.5-1.2
					c-0.1-0.3-0.3-0.6-0.4-0.9c-0.6-1.2-1.4-2.4-2.2-3.5c-0.6-0.9-1.4-1.6-2.2-2.4c-0.9-0.9-1.8-1.7-2.8-2.5c-0.9-0.7-1.7-1.4-2.7-2
					c-0.7-0.6-1.4-1.2-2.1-1.8c-0.8-0.7-1.7-1.4-2.7-2c-1.3-0.8-2.6-1.4-4-2c-1.1-0.4-2.3-0.8-3.4-1.1c-1.3-0.4-2.6-0.8-4-1.1
					c-1-0.2-2.1-0.4-3.1-0.5c-2.6-0.1-5.3,0.2-7.9,0.6c-2.4,0.4-4.8,0.7-7.2,1.3c-2.6,0.6-5.1,1.3-7.6,2.2c-2.3,0.8-4.5,1.7-6.8,2.6
					c-2.3,1-4.7,2.2-6.5,4.1c-1,1-1.9,2.2-2.8,3.4c-0.7,0.9-1.3,1.8-1.9,2.8c-0.3,0.5-0.6,1-0.9,1.5c0,0,0,0.1-0.1,0.1
					c-0.6,0.8-1,1.7-1.5,2.5c-0.5,0.9-1.1,1.8-1.6,2.8c-0.6,1.1-1.2,2.1-1.7,3.2c-0.5,1-0.8,2.1-1.1,3.1c-0.4,1.4-0.7,2.8-0.9,4.2
					c-0.2,1.1-0.4,2.3-0.6,3.4c-0.2,1.2-0.4,2.4-0.6,3.5c-0.2,1-0.3,2-0.5,3c-0.1,0.6-0.2,1.1-0.3,1.7c-0.1,0.6-0.1,1.2-0.2,1.8
					c-0.1,1.1-0.1,2.2-0.4,3.2c-0.3,1.3-0.2,2.7,0,4c0.1,1.4,0.4,2.6,0.9,3.9c0.7,2,1.6,4,2.6,5.9c0.7,1.3,1.6,2.6,2.4,3.8
					c0.7,1,1.4,1.9,2.1,2.9c0.5,0.7,1,1.3,1.5,2c0.2,0.4,0.5,0.7,0.7,1c0-0.1-0.1-0.1-0.1-0.2c0.7,1.1,1.5,2.1,2.4,3
					c0.8,0.7,1.5,1.5,2.3,2.2c0.5,0.4,1,0.9,1.5,1.3c1.6,1.5,3.2,3,5,4.2c0.9,0.6,1.7,1.3,2.7,1.9c1.2,0.7,2.5,1.2,3.8,1.7
					c2.4,0.8,4.9,1.4,7.4,1.6c1.4,0.1,2.8,0.1,4.2,0c0.5,0,1,0,1.5,0.1c1.2,0.1,2.3,0.3,3.5,0.4c1.2,0.1,2.3,0.2,3.5,0.3
					c2.6,0.1,5.1-0.2,7.6-0.9c0.3-0.1,0.7-0.2,1-0.3c1-0.1,2-0.2,3-0.3C186.9,219.9,189.3,219.5,191.7,219z"/>
				<g>
					<path class="st1" d="M192.1,220.4c7-1.6,13.9-3.6,18.4-9.5c4.9-6.3,7.1-14,6.5-21.8c-1.2-15.5-3.1-31.7-13-44.4
						c-4.5-5.8-11.8-11.2-18.8-13.6c-7.8-2.7-14.9-2.1-22.9-0.5c-7.2,1.4-16.3,3.8-22.1,8.6c-5.1,4.3-9.4,11.9-12,18
						c-1.9,4.5-2.4,9.6-3.3,14.3c-0.7,4-1.6,8.1-1.6,12.1c0,8.8,6,15.5,10.6,22.3c1.1,1.6,3.7,0.1,2.6-1.5c0-0.1-0.1-0.1-0.1-0.2
						c-0.9,0.5-1.7,1-2.6,1.5c5.4,7.9,14.5,14.9,24.1,16.4C169.4,224,180.8,222.7,192.1,220.4c1.9-0.4,1.1-3.3-0.8-2.9
						c-4.9,1-9.9,1.9-14.9,2.4c-4.9,0.5-10-0.3-14.9-0.4c-9.9-0.3-19.6-7.2-25.2-15.3c-1.1-1.6-3.7-0.1-2.6,1.5
						c0,0.1,0.1,0.1,0.1,0.2c0.9-0.5,1.7-1,2.6-1.5c-4.7-7.2-10.7-13.6-10-22.8c0.7-9.3,2.3-19.7,7-27.9c2-3.5,4-7.3,6.8-10.3
						c3.2-3.5,7.4-5.2,11.8-6.8c8.5-3.1,19.1-6.1,28-3.9c17.5,4.3,28.7,20.7,31.7,37.7c1.6,8.8,4.1,20.1,1.3,28.8
						c-1.6,5-4.4,10.4-8.8,13.5c-3.7,2.6-8.7,3.7-13.1,4.8C189.4,218,190.2,220.9,192.1,220.4z"/>
				</g>
			</g>
		</g>
		<g>
			<g>
				<path class="st2" d="M305,216.2c2,1.3,4.3,2.1,6.4,3.2c1.9,0.9,3.7,1.9,5.4,3.2c1.1,0.9,2.1,1.8,3.1,2.7c1,1,1.9,2.1,2.8,3.1
					c0.5,0.6,0.9,1.1,1.4,1.7c0.5,0.5,0.9,1,1.4,1.6c0.9,1,1.8,2,2.6,3c1.6,2.2,3.2,4.5,4.5,6.9c0.7,1.2,1.3,2.5,2,3.8
					c0.5,1,1,2,1.5,3.1c0.5,1.3,0.9,2.6,1.1,4c0.1,1.4,0.2,2.7,0.2,4.1c0.1,2.7,0.2,5.5,0.8,8.1c0.2,1.2,0.4,2.4,0.8,3.6
					c0.3,0.9,0.6,1.8,1.1,2.5c0.2,0.2,0.3,0.4,0.5,0.7c0.4,0.5,0.8,1.1,1.3,1.5c0.4,0.4,0.8,0.7,1.3,1c0.4,0.3,0.9,0.4,1.4,0.6
					c0.4,0.1,0.9,0.1,1.3,0.1s0.9-0.1,1.3-0.2c0.5-0.2,1.1-0.3,1.5-0.6c1-0.7,1.9-1.4,2.4-2.5c0.6-1,1-2.1,1.2-3.3
					c0.2-1.4,0.4-2.9,0.4-4.3c0-1.2-0.2-2.5-0.3-3.7c-0.1-1.5-0.4-3-0.7-4.5c-0.5-2.5-1.1-4.9-1.7-7.3c-0.6-2.3-1-4.6-1.6-6.9
					c-0.6-2.4-1.2-4.7-2.1-7c-0.3-0.8-0.7-1.6-1.1-2.4c-0.3-0.6-0.7-1.1-1-1.6c-0.7-1.1-1.5-2.1-2.3-3.1c-0.9-1.1-1.7-2.3-2.7-3.3
					c-0.8-0.9-1.7-1.8-2.5-2.7c-1.8-1.9-3.7-3.7-5.7-5.3c-1-0.8-2.1-1.7-3.2-2.3c-0.3-0.2-0.6-0.3-0.9-0.5c-0.1-0.1-0.1-0.1-0.2-0.2
					c-0.9-0.9-1.8-1.8-2.8-2.7c-1.6-1.4-3.2-2.8-5.1-3.8c-0.7-0.3-1.3-0.7-2-1s-1.5-0.7-2.3-0.9c-1.4-0.5-2.8-0.7-4.2-0.9
					c-0.1,0-0.3,0-0.4,0c-0.4,0-0.8,0-1.2,0.1c-0.6,0-1.2,0.1-1.8,0.3c-0.2,0.1-0.5,0.1-0.7,0.2c-0.3,0.1-1,0.4-1.3,0.6
					c-0.4,0.2-0.8,0.5-1.1,0.8c-0.2,0.2-0.4,0.3-0.6,0.5c-0.3,0.4-0.7,0.8-1,1.3c-0.2,0.5-0.4,1-0.6,1.5c-0.1,0.4-0.2,1.1-0.2,1.6
					C301.6,212.9,303.1,214.9,305,216.2z M309,209.6v0.1l0,0V209.6z"/>
				<g>
					<path class="st1" d="M304.2,217.5c3.4,2,7.2,3.3,10.5,5.4c3.3,2.2,5.7,5.2,8.3,8.2c4.9,5.7,10.7,12.7,12.4,20.3
						c1.5,6.8-0.4,14.5,3.8,20.7c2.8,4,7.4,5.5,11.4,2.1c4.8-4.1,3.7-12,2.8-17.5c-1.3-7.8-2.8-17.1-6.3-24.2
						c-3.2-6.7-9.4-12.9-15.1-17.5c-2.4-2-4.8-3.6-7.1-5.7c-2.6-2.3-5.3-4.2-8.6-5.5c-4.3-1.8-9.9-2.5-13.7,0.9
						C298.3,208.6,300,214.2,304.2,217.5c1.5,1.2,3-1.4,1.5-2.6c-5.6-4.2-1.1-9.7,4.2-9.7c3.3,0,6.8,1.6,9.6,3.4
						c2.5,1.6,4.3,4,6.7,5.8c3,2.3,5.8,4.2,8.4,6.9c6.1,6.1,10.5,12.1,12.5,20.5c1.9,7.7,5.1,16.7,3.9,24.6c-0.5,3.7-3,9.2-8.1,5.4
						c-1.1-0.9-2.1-2.9-2.5-4.1c-1.4-4-1.4-8.5-1.6-12.7c-0.3-5.8-2.8-10.7-5.8-15.7c-2.9-4.8-6.6-8.9-10.2-13.1
						c-4.9-5.6-10.8-7.8-17.1-11.4C304.1,213.9,302.6,216.5,304.2,217.5z"/>
					<path class="st1" d="M307.5,210v0.1c0.7-0.6,1.5-1.1,2.2-1.7l0,0c0.2,0.4,0.5,0.9,0.7,1.3v-0.1c-0.1-0.8-0.6-1.5-1.5-1.5
						c-0.7,0-1.6,0.7-1.5,1.5c0.1,0.6,0.2,1.1,0.8,1.4c0.5,0.3,1.2,0.2,1.7-0.1c0.5-0.4,0.6-0.9,0.5-1.6v-0.1
						c-0.1-0.8-1.1-1.2-1.8-1C307.7,208.4,307.4,209.2,307.5,210z"/>
				</g>
			</g>
			<g>
				<path class="st2" d="M260,210.6c0.2-0.4,0.5-0.7,0.9-1c0.3-0.3,0.6-0.5,1-0.7c1.8-0.9,3.8-1.2,5.7-1.2c1.2,0,2.3,0.2,3.5,0.4
					c0.7,0.1,1.3,0.2,1.9,0.4c1.2,0.2,2.3,0.7,3.4,1.1c1.4,0.5,2.8,1.1,4.2,1.7c1.4,0.7,2.5,1.6,3.7,2.5c0.9,0.8,1.8,1.6,2.6,2.4
					c0.9,0.9,1.7,1.7,2.6,2.6c1.7,1.7,3.6,3.4,5.3,5c1.7,1.6,3.5,3.3,5,5.2c0.5,0.7,1,1.4,1.5,2.1c0.3,0.5,0.6,1.1,1,1.6
					c0.7,1.3,1.3,2.6,1.8,4c0.7,2.1,1.3,4.2,1.8,6.4c0.3,1.2,0.6,2.4,0.9,3.6c0.3,1.2,0.4,2.4,0.6,3.5c0.3,1.4,0.5,2.9,0.6,4.4
					c0.2,2.4,0.3,4.9,0.3,7.4c0,1.2-0.1,2.3-0.2,3.5c-0.1,0.8-0.2,1.7-0.4,2.5c-0.1,0.4-0.2,0.8-0.3,1.2c-0.2,0.5-0.4,1-0.7,1.5
					c-0.3,0.4-0.6,0.7-0.9,1.1c-0.3,0.3-0.7,0.6-1.1,0.8c-0.5,0.3-1,0.5-1.6,0.6s-1.2,0.2-1.7,0.1c-0.6-0.1-1.1-0.1-1.7-0.3
					c-0.5-0.2-1.1-0.4-1.6-0.7c-1-0.6-1.8-1.5-2.5-2.4c-0.6-0.8-0.9-1.7-1.3-2.7s-0.4-2.1-0.6-3.1c-0.1-0.6-0.1-1.2-0.1-1.8
					c0-1.2,0.1-2.3,0.2-3.5s0.1-2.4,0.2-3.7c0-1.1-0.1-2.2-0.2-3.3c-0.2-1.4-0.5-2.8-0.8-4.1c-0.4-1.5-0.8-2.9-1.4-4.2
					c-0.8-1.8-1.8-3.6-2.8-5.3s-2.1-3.3-3.2-4.9c-0.1-0.1-0.2-0.3-0.3-0.4c-0.8-1.1-1.7-2.1-2.6-3.1c-0.8-1-1.7-1.9-2.6-2.7
					c-1.4-1-3-1.8-4.6-2.5c-1-0.4-2-0.8-3-1.1c-1.1-0.4-2.3-0.9-3.4-1.3c-1.3-0.5-2.6-1.1-3.9-1.7c-1.3-0.6-2.4-1.6-3.5-2.4
					c-0.8-0.6-1.4-1.4-1.9-2.3c-0.2-0.4-0.5-1-0.5-1.5c-0.1-0.7-0.2-1.6,0-2.3C259.5,211.5,259.7,211,260,210.6z"/>
				<g>
					<path class="st1" d="M261.1,211.6c5-5.7,17.5-0.6,22.2,3.3c2.8,2.3,5.2,5.1,7.9,7.6c2.8,2.7,5.9,5.2,8.2,8.4
						c4.1,5.6,5.6,12.9,6.6,19.5c0.7,4.2,3.3,28.1-7.6,19.9c-5.4-4-2-14.5-3.1-20.3c-1-5.6-3.4-10.4-6.5-15.1
						c-2.4-3.7-5.4-7.8-9.3-10.1c-4-2.3-21.6-6.2-18.1-13.5c0.8-1.7-1.8-3.3-2.6-1.5c-2.2,4.5,0.1,8,4,10.7
						c6.3,4.4,14.2,4.7,19.5,10.8c4.5,5.2,8.5,11.4,9.9,18.1c1.4,6.6-1.5,14.4,2,20.5c2.2,3.8,7.4,6.4,11.6,3.9
						c4.9-3,4.3-10.7,4.1-15.6c-0.3-7.1-1.7-14.3-3.9-21.1c-2.2-6.5-6.4-10.9-11.3-15.5c-5.6-5.3-10.3-10.8-17.7-13.5
						c-5.5-2-13.5-3.6-17.9,1.4C257.7,210.9,259.8,213.1,261.1,211.6z"/>
				</g>
			</g>
			<g>
				<path class="st2" d="M217.8,214.6c0.1-0.5,0.3-1,0.6-1.4c0.4-0.5,1-1.3,1.6-1.6c0.5-0.3,1.1-0.5,1.7-0.7
					c0.4-0.1,0.8-0.2,1.2-0.2c0.7-0.1,1.3-0.2,2-0.2h0.1c0.9,0,1.8,0.1,2.6,0.3c0.9,0.2,1.8,0.4,2.7,0.8c1.2,0.5,2.4,1,3.5,1.6
					c0.9,0.5,1.6,1.1,2.4,1.7c0.7,0.5,1.4,1.1,2.1,1.6c1,0.8,2,1.7,2.9,2.7c1.8,1.9,3.5,3.9,5,6c1.4,2,2.6,4.2,3.9,6.3
					c1.3,2.3,2.6,4.7,3.6,7.2c0.9,2.2,1.4,4.6,2,6.9c0.6,2.3,1.3,4.6,1.7,7c0.3,1.5,0.4,3.1,0.6,4.6c0.1,1.2,0.2,2.4,0.1,3.6
					c0,0.8-0.1,1.6-0.2,2.4c0,0.1,0,0.2,0.1,0.3c0.3,1.5,0.5,3,0.5,4.5s-0.3,3-0.6,4.5c-0.2,1.1-0.5,2.2-1,3.2
					c-0.3,0.7-0.6,1.5-1,2.2s-0.9,1.3-1.4,1.9c-0.4,0.4-0.7,0.9-1.1,1.3c-1.6,1.4-3.8,2-5.8,2c-1.9,0-3.9-0.8-5.1-2.3
					c-0.5-0.6-1-1.2-1.4-1.9c-0.3-0.6-0.6-1.3-0.8-2c-0.2-0.6-0.2-1.3-0.3-1.9c-0.1-0.4,0-0.9,0-1.3c0.1-0.5,0.1-1,0.3-1.5
					c0.2-0.8,0.6-1.5,1-2.2c0.5-0.9,1.1-1.8,1.7-2.7c0.1-0.4,0.2-0.9,0.3-1.4c0.3-2.7,0.2-5.4-0.1-8c-0.2-1.5-0.5-2.9-0.8-4.4
					c-0.4-1.6-0.8-3.2-1.1-4.8s-0.6-3.3-1-4.9c-0.3-1.4-0.8-2.8-1.3-4.1c-0.4-0.8-0.7-1.6-1.2-2.3c-0.4-0.8-0.9-1.5-1.5-2.2
					c-1-1.3-2.2-2.6-3.3-3.8c-0.6-0.7-1.4-1.3-2.1-1.8c-0.7-0.6-1.4-1.1-2-1.6c-0.3-0.3-0.7-0.5-1-0.8c0.2,0.1,0.3,0.2,0.5,0.4
					c-1.2-0.9-2.4-1.9-3.6-2.9c-0.3-0.1-0.6-0.2-0.9-0.3c-1.1-0.3-2-1.2-2.3-2.3c-0.6-0.4-1.1-0.9-1.6-1.4c-0.2-0.2-0.3-0.4-0.5-0.6
					c-0.3-0.4-0.6-0.8-0.9-1.1c-0.3-0.4-0.5-1-0.7-1.5C217.6,216.2,217.6,215.2,217.8,214.6z"/>
				<g>
					<path class="st1" d="M219.1,215.3c3.3-7.7,14.3-0.8,18.1,2.3c5.3,4.4,9.1,10.1,12.4,16.1c3.6,6.6,5.9,14.5,6.8,22
						c0.3,2.7,0,5.2,0.1,7.8c0.2,4.1,0.6,7.3-0.9,11.3c-1.9,5-8.1,10-12.7,3.9c-2.8-3.7-0.9-6.8,0.8-10.4c2.1-4.4,1.1-10.3,0.1-14.9
						c-1.2-5.6-1.9-11.7-4.6-16.8c-2.5-4.7-6.6-8.2-10.8-11.4c-0.5,0.9-1,1.7-1.5,2.6c0.2,0.1,0.3,0.2,0.5,0.4
						c1.3,1,3.2-1.3,1.8-2.4c-3.2-2.6-10.5-6.5-10-11.3c0.2-1.9-2.8-1.9-3,0c-0.7,6.5,6.6,10.1,10.9,13.4c0.6-0.8,1.2-1.6,1.8-2.4
						c-0.2-0.1-0.3-0.2-0.5-0.4c-1.5-1.2-3,1.4-1.5,2.6c6.1,4.7,10.5,9.8,12.1,17.5c1.6,8,4.4,15.6,0.9,23.5
						c-3.5,7.8,1.8,18.5,11.5,14.9c4.8-1.8,7.1-7,8-11.7c0.5-2.6,0.5-4.9,0.2-7.5c-0.3-3.2,0-6.4-0.5-9.6
						c-1.6-13.1-7.3-26.6-16.5-36.2c-5.1-5.3-21.3-16.5-26.3-4.9C215.7,215.6,218.3,217.1,219.1,215.3z"/>
				</g>
			</g>
		</g>
	</g>
	<g>
		<path class="st2" d="M154,142.7c0,0-4,1-6,3"/>
		<g>
			<path class="st1" d="M153.6,141.3c-2.4,0.6-4.9,1.7-6.7,3.4c-1.4,1.3,0.7,3.5,2.1,2.1c1.4-1.4,3.5-2.1,5.3-2.6
				C156.2,143.7,155.4,140.8,153.6,141.3L153.6,141.3z"/>
		</g>
	</g>
	<g>
		<path class="st2" d="M36,141.3c0,0-4.1,0.3-6.4,1.9"/>
		<g>
			<path class="st1" d="M36,139.8c-2.5,0.2-5.1,0.7-7.2,2.1c-1.6,1.1-0.1,3.7,1.5,2.6c1.6-1.1,3.7-1.5,5.7-1.7
				C37.9,142.6,37.9,139.6,36,139.8L36,139.8z"/>
		</g>
	</g>
</g>
</svg>
