<?xml version="1.0" encoding="utf-8"?>
<!-- Generator: Adobe Illustrator 23.0.3, SVG Export Plug-In . SVG Version: 6.00 Build 0)  -->
<svg version="1.1" id="Layer_1" xmlns="http://www.w3.org/2000/svg" xmlns:xlink="http://www.w3.org/1999/xlink" x="0px" y="0px"
	 viewBox="0 0 57 51.7" style="enable-background:new 0 0 57 51.7;" xml:space="preserve">
<style type="text/css">
	.st0{fill:#2C2C2C;}
	.st1{fill:#FFFFFF;}
	.st2{fill:#FFFFFF;stroke:#FFFFFF;stroke-miterlimit:10;}
</style>
<g>
	<g>
		<g>
			<path class="st0" d="M9.8,28.7c0-0.3,0-0.5,0-0.8c0-0.3,0.1-0.5,0.1-0.8c0-0.3,0-0.5,0-0.8c0.1-0.7,0.1-1.4,0.3-2.1
				c0.2-0.6,0.4-1.1,0.6-1.6c-1,0.1-1.9,0.6-2.5,1.3c-0.3,0.2-0.5,0.4-0.7,0.6c-0.3,0.3-0.5,0.6-0.7,0.9c-0.3,0.4-0.3,0.9-0.3,1.4
				c0,1,0.6,1.9,1.3,2.5c0.6,0.5,1.4,0.9,2.3,0.9c0-0.1-0.1-0.2-0.1-0.3C9.9,29.5,9.8,29.1,9.8,28.7z"/>
			<g>
				<path class="st0" d="M11.3,28.7c-0.1-1.7,0.1-3.7,0.8-5.3c0.4-0.9,0-2.4-1.3-2.3c-2.4,0.3-5,2.2-5.7,4.6c-0.8,2.9,1.8,5.6,4.5,6
					c1,0.2,2.3-0.6,1.8-1.8C11.4,29.5,11.3,29.1,11.3,28.7c-0.2-1.9-3.2-1.9-3,0c0.1,0.7,0.1,1.4,0.4,2c0.6-0.6,1.2-1.2,1.8-1.8
					c-1.3-0.2-3.1-1.2-2.2-2.8c0.4-0.7,1.7-1.8,2.6-1.9c-0.4-0.8-0.9-1.5-1.3-2.3c-0.9,2.1-1.4,4.5-1.2,6.8
					C8.4,30.6,11.4,30.6,11.3,28.7z"/>
			</g>
		</g>
		<g>
			<path class="st0" d="M50.6,23.7c0-0.1,0-0.1,0-0.2c-0.2-0.9-1.1-1.5-2-1.5c-0.2,0-0.3,0-0.5,0.1c-0.1,0-0.1,0-0.2,0.1
				c0,0-0.1,0-0.1,0c-0.1,0-0.2,0-0.3,0c0.2,0.4,0.4,0.9,0.6,1.4c0.4,1.1,0.4,2.2,0.3,3.3c0,1-0.1,1.9-0.3,2.9
				c0.2-0.1,0.4-0.1,0.6-0.3c0.7-0.4,1.2-1,1.7-1.6c0.5-0.6,0.7-1.5,0.7-2.3C51.3,24.8,51,24.2,50.6,23.7z"/>
			<g>
				<path class="st0" d="M52.1,23.3c-0.2-1-0.9-1.9-1.8-2.3c-0.9-0.5-2.1-0.3-2.7-0.3c-1.2,0-1.8,1.3-1.3,2.3c0.9,2,0.8,4.2,0.4,6.4
					c-0.2,1,0.7,2.2,1.8,1.8c3.3-1.1,5.3-5,3.4-8.2c-1-1.6-3.6-0.1-2.6,1.5c0.9,1.4-0.1,3.2-1.6,3.8c0.6,0.6,1.2,1.2,1.8,1.8
					c0.6-3,0.6-5.9-0.7-8.7c-0.4,0.8-0.9,1.5-1.3,2.3c0.6,0,1.4-0.3,1.6,0.5C49.6,26,52.5,25.2,52.1,23.3z"/>
			</g>
		</g>
		<g>
			<path class="st1" d="M48.2,23.5c-0.2-0.5-0.4-0.9-0.6-1.4c-0.4-0.9-1-1.7-1.8-2.4c-0.2-0.1-0.3-0.3-0.5-0.4
				c-0.2-0.2-0.5-0.5-0.7-0.7c-0.4-0.4-0.9-0.8-1.2-1.3c-0.6-0.7-1.3-1.3-1.8-2c-0.3-0.4-0.6-0.8-0.9-1.2c-0.4-0.4-0.8-0.8-1.3-1.1
				c-0.4-0.5-0.9-1-1.4-1.5c-1.2-1.1-2.6-1.9-4.2-2.3C32.9,9.1,32,9,31.1,8.9c-0.8-0.1-1.6-0.2-2.3-0.2c-0.4,0-0.8,0-1.3,0.1
				c-0.4,0-0.9,0.1-1.3,0.2c-0.5,0-0.9-0.1-1.4,0C24.5,9,24.2,9,23.9,9c-0.4-0.1-0.8-0.1-1.2-0.1c0,0-0.1,0-0.1,0
				c-0.4,0-1.1,0.1-1.4,0.2c-0.5,0.1-0.9,0.3-1.4,0.5c-0.6,0.3-1.2,0.8-1.7,1.2c-0.7,0.6-1.2,1.5-1.7,2.3c-0.6,0.9-1.2,1.8-1.7,2.8
				c-0.2,0.4-0.4,0.8-0.6,1.2c-0.2,0.4-0.5,0.8-0.6,1.2c-0.2,0.4-0.4,0.8-0.7,1.2c-0.3,0.4-0.6,0.9-0.9,1.3
				c-0.4,0.6-0.8,1.2-1.1,1.9c-0.2,0.5-0.5,1.1-0.6,1.6c-0.2,0.7-0.3,1.4-0.3,2.1c0,0.3,0,0.5,0,0.8c0,0.2-0.1,0.5-0.1,0.8
				c0,0.3,0,0.5,0,0.8c0,0.4,0.1,0.9,0.2,1.3c0,0.1,0.1,0.2,0.1,0.3c0.1,0.3,0.2,0.6,0.4,0.9c0.7,1.6,2,2.5,3.1,3.8
				c0.6,0.7,1.4,1.4,2.1,2c1,0.9,2,2,3.2,2.7c0.5,0.3,1,0.5,1.5,0.7c0.7,0.3,1.4,0.6,2.2,0.9c0.5,0.2,1,0.2,1.5,0.3
				c0.5,0.1,1.1,0.2,1.6,0.2c0.9,0.2,1.7,0.3,2.6,0.4c1.4,0.2,2.9,0.1,4.3-0.1c0,0,0.1,0,0.1,0c0.2,0,0.4,0,0.6,0
				c1.2-0.1,2.6-0.2,3.7-0.7c0.8-0.3,1.6-0.6,2.3-1.1c0.7-0.4,1.4-1,2-1.6c0.4-0.4,0.8-0.8,1.2-1.2c0.3-0.3,0.7-0.7,1.1-1
				c0.7-0.6,1.3-1.2,1.9-1.9c0.5-0.5,1-1.1,1.4-1.7c0.6-0.8,0.9-1.7,1.2-2.6c0.1-0.2,0.1-0.4,0.2-0.6c0.2-0.9,0.3-1.9,0.3-2.9
				C48.5,25.7,48.5,24.5,48.2,23.5z"/>
			<g>
				<path class="st0" d="M49.6,23.1C48.5,20.5,47,19,45.1,17c-2.3-2.3-4.2-5-6.8-7C34,6.6,27.9,7,22.7,7.4c-4.9,0.3-7,3.7-9.3,7.7
					c-2.5,4.3-5.6,8.3-5.2,13.5c0.4,4.6,4.9,8.6,8.4,11.2c4.5,3.4,10.5,4.1,15.9,3.5C42.5,42.5,51.6,33.5,49.6,23.1
					c-0.4-1.9-3.3-1.1-2.9,0.8c1.8,9.4-7.8,16.5-16.3,16.8c-4.8,0.2-9.6-1.1-13.2-4.3c-2.9-2.6-6-5.2-5.8-9.3
					c0.2-3.9,2.8-7.1,4.7-10.4c2.2-4,4.3-6.2,8.8-6.2c5.1,0,8.8-0.4,13.1,3.3c2.8,2.5,7.4,6.8,8.8,10.2
					C47.4,25.6,50.3,24.9,49.6,23.1z"/>
			</g>
		</g>
	</g>
	<g>
		<g>
			<path class="st0" d="M35.9,20.6c-0.5-1.7-2.1-3-3.9-3c-0.3,0-0.7,0-1,0.1c-0.1,0-0.2,0.1-0.3,0.1c-0.1,0-0.1,0-0.2,0
				c-2.3-0.2-4.5,0.9-6,2.7c-0.5,0.3-1,0.7-1.5,1.2c-0.6,0.5-1,1.2-1.4,1.8c-0.5,0.8-0.7,1.8-0.7,2.8c0,1.9,1.2,3.8,2.6,5
				c2.4,2,5.9,2.6,8.8,1.1c1.5-0.8,2.5-2,3.5-3.3c1-1.3,1.5-3,1.5-4.5c0-1.3-0.5-2.5-1.3-3.6C36,20.9,36,20.7,35.9,20.6z"/>
			<g>
				<path class="st0" d="M37.4,20.2c-4-9.9-21.6,0-17.2,9.2c2.2,4.6,8.3,6.8,12.9,4.3c2.2-1.2,4.2-3.5,5.1-5.9
					c0.4-1.2,0.7-2.5,0.6-3.7C38.6,22.6,37.7,21.6,37.4,20.2c-0.4-1.9-3.3-1.1-2.9,0.8c0.3,1.4,1.2,2,1.3,3.6c0.1,1.9-1,3.7-2.3,5
					c-2.5,2.6-6.2,3-9,0.6c-7.7-6.7,7.8-14.4,10-9.1C35.2,22.8,38.1,22,37.4,20.2z"/>
			</g>
		</g>
	</g>
	<path class="st2" d="M26,17c0,0-5.7,0.7-5,2.6c0.6,1.8,2.2,4.9,3,3.5c0.8-1.5,0.9-4.3,2.7-4S27.3,16.8,26,17z"/>
</g>
</svg>
