<?xml version="1.0" encoding="utf-8"?>
<!-- Generator: Adobe Illustrator 24.2.0, SVG Export Plug-In . SVG Version: 6.00 Build 0)  -->
<svg version="1.1" id="Layer_1" xmlns="http://www.w3.org/2000/svg" xmlns:xlink="http://www.w3.org/1999/xlink" x="0px" y="0px"
	 viewBox="0 0 1019.28 584.84" style="enable-background:new 0 0 1019.28 584.84;" xml:space="preserve">
<style type="text/css">
	.st0{fill:#2C2C2C;}
</style>
<g>
	<path class="st0" d="M154.35,61.91c-5.87,0.9-11.66,2.28-17.34,4.01c-11.29,3.44-22.02,8.52-31.91,14.96
		c-5.03,3.27-9.82,6.92-14.43,10.75c-4.44,3.69-8.66,7.66-12.65,11.83c-4.17,4.35-7.99,9.01-11.66,13.79
		c-3.6,4.7-6.93,9.62-10.06,14.65c-12.79,20.59-21.54,43.57-26.73,67.21c-2.72,12.36-4.33,24.97-5.09,37.6
		c-0.76,12.52-0.59,25.11,0.37,37.61c1.93,24.89,7.33,49.47,15.97,72.89c4.22,11.44,9.26,22.62,15.4,33.16
		c5.97,10.24,13.06,19.86,20.85,28.79c15.49,17.76,34.8,32.35,56.31,42.02c11.06,4.98,22.68,8.68,34.62,10.8
		c6.06,1.08,12.19,1.74,18.34,1.93c5.93,0.18,11.87-0.15,17.76-0.85c6.16-0.75,12.25-1.89,18.22-3.6
		c5.75-1.65,11.32-3.93,16.69-6.54c5.21-2.54,10.18-5.57,14.89-8.95c4.83-3.47,9.37-7.33,13.48-11.62
		c4.19-4.39,7.93-9.23,11.36-14.23c3.27-4.77,6.15-9.81,8.71-14.99c5.42-10.97,9.04-22.77,11.54-34.72
		c2.6-12.43,3.95-25.1,4.2-37.78c0.25-12.93-0.68-25.87-2.4-38.69c-1.73-12.86-4.42-25.58-7.96-38.05c0.41-2.75,0.78-5.51,1.12-8.28
		c1.56-12.58,2.22-25.22,2.12-37.9c-0.1-12.59-0.93-25.19-3.04-37.61c-1.01-5.93-2.42-11.79-4.03-17.58
		c-1.59-5.69-3.48-11.31-5.68-16.79c-2.2-5.49-4.75-10.84-7.73-15.96c-2.94-5.06-6.37-9.81-10.01-14.38
		c-7.32-9.18-16-17.16-25.65-23.82c-9.81-6.78-20.74-12.11-32.13-15.66c-5.65-1.76-11.45-3.03-17.3-3.93
		c-6.04-0.93-12.13-1.45-18.25-1.49c-0.2,0-0.4,0-0.6,0C165.84,60.46,160.08,61.04,154.35,61.91L154.35,61.91L154.35,61.91z
		 M187.95,70.31c9.7,1.39,19.19,3.89,28.25,7.62c9.1,3.91,17.69,8.89,25.58,14.89c7.72,6.05,14.62,13.03,20.66,20.75
		c2.85,3.74,5.48,7.63,7.85,11.68c2.43,4.15,4.53,8.49,6.43,12.91c5.61,13.48,9.41,27.74,11.43,42.19
		c1.59,12.05,2.15,24.23,2.12,36.37c-0.02,8.3-0.47,16.59-1.25,24.85c-2.41-7.22-5.1-14.36-8.07-21.38
		c-4.84-11.49-10.33-22.66-16.68-33.39c-6.26-10.57-13.4-20.6-21.09-30.18c-1.54-1.92-3.11-3.81-4.71-5.67
		c0.31-0.08,0.59-0.28,0.77-0.59c0.34-0.58,0.17-1.47-0.47-1.79c-1.38-0.69-2.78-1.36-4.18-2.02c-5.01-5.54-10.28-10.83-15.78-15.89
		c-8.9-8.18-18.46-15.75-28.69-22.2c-4.97-3.14-10.16-5.91-15.43-8.51c-5.69-2.81-11.56-5.32-17.56-7.41
		c-5.92-2.06-12-3.48-18.21-4.27c-5.43-0.69-10.92-0.81-16.38-0.49c-4.76,0.28-9.54,0.92-14.21,1.96
		c6.44-4.34,13.23-8.14,20.39-11.23c9.7-4.01,19.87-6.83,30.26-8.32C168.62,68.98,178.32,69.07,187.95,70.31L187.95,70.31
		L187.95,70.31z M138.11,101.15c7.76,1.18,15.25,3.57,22.5,6.56c6.44,2.77,12.71,5.95,18.78,9.45c6.01,3.47,11.74,7.41,17.25,11.62
		c2.72,2.13,5.4,4.32,8.02,6.58c-0.02-0.01-0.04-0.01-0.07-0.02c-2.92-0.88-5.87-1.66-8.84-2.35c-3.2-0.74-6.44-1.27-9.68-1.75
		c-6.12-0.92-12.29-1.5-18.49-1.23c-5.87,0.25-11.74,1.41-17.38,2.99c-5.58,1.56-10.96,3.78-16.07,6.52
		c-5.08,2.72-9.82,6.02-14.31,9.63c-4.56,3.66-8.73,7.77-12.55,12.21c-3.78,4.39-7.16,9.11-10.28,13.98
		c-3.24,5.04-6.14,10.29-8.73,15.7c-5.26,10.94-9.18,22.54-12.05,34.32c-5.93,24.37-6.9,49.81-3.74,74.65
		c1.53,12.06,4.02,24.01,7.66,35.61c1.79,5.69,3.93,11.28,6.23,16.79c2.22,5.31,4.7,10.5,7.54,15.5c2.79,4.9,6.05,9.49,9.61,13.85
		c3.66,4.49,7.7,8.68,12.09,12.46c4.19,3.61,8.77,6.69,13.67,9.24c4.98,2.58,10.27,4.57,15.67,6.07c5.37,1.49,10.92,2.35,16.48,2.61
		c5.85,0.27,11.72-0.27,17.49-1.21c5.82-0.95,11.56-2.49,17.1-4.52c5.43-1.99,10.65-4.55,15.67-7.42
		c10.03-5.75,19.11-13.03,27.13-21.35c3.98-4.13,7.69-8.52,11.19-13.06c3.6-4.66,6.97-9.48,10.09-14.47
		c6.34-10.15,11.56-20.95,16.09-32.02c4.54-11.09,8.02-22.58,10.83-34.22c0.68,3.69,1.27,7.4,1.79,11.12
		c2.5,19.24,3.06,38.85,0.6,58.13c-1.89,13.53-4.99,26.96-10.19,39.62c-3.82,8.83-8.68,17.22-14.49,24.89
		c-2.33,2.96-4.81,5.79-7.46,8.48c-2.51,2.54-5.21,4.88-8.01,7.09c-6.51,4.91-13.56,9.04-21.03,12.31
		c-7.92,3.25-16.2,5.37-24.67,6.58c-9.74,1.21-19.54,1.25-29.28,0.04c-11.75-1.66-23.25-4.88-34.22-9.41
		c-12.1-5.19-23.49-11.95-33.95-19.94c-11.03-8.64-20.82-18.72-29.44-29.77c-4.6-6.03-8.86-12.31-12.67-18.86
		c-3.95-6.79-7.39-13.88-10.48-21.1c-8.79-21.03-14.71-43.21-17.82-65.79c-2.96-22.72-3.08-45.88-0.13-68.61
		c1.25-9.03,3.03-17.98,5.34-26.79c-1.2,11.21-1.37,22.52-1.39,33.79c-0.01,6.37,0.16,12.73,0.61,19.09
		c0.48,6.63,1.28,13.24,2.31,19.79c0.97,6.19,2.64,12.26,4.36,18.27c0.82,2.86,1.69,5.7,2.65,8.53c1.03,3.05,2.13,6.07,3.17,9.12
		c1.36,4,2.73,7.99,4.16,11.96c1.22,3.4,2.47,6.77,3.9,10.09c0.44,0.75,1.04,1.35,1.78,1.79c1.15,0.67,2.55,0.86,3.84,0.5
		c1.24-0.34,2.32-1.18,2.98-2.29c0.62-1.06,0.95-2.65,0.5-3.84c-1.17-3.07-2.14-6.22-3.16-9.34c-0.93-2.85-1.83-5.72-2.73-8.57
		c-1.75-5.53-3.65-11.01-5.27-16.57c-1.19-4.08-2.23-8.22-3.2-12.35c-0.93-3.94-1.64-7.91-2.2-11.91
		c-0.75-5.81-1.27-11.64-1.58-17.49c-0.32-6.09-0.31-12.19-0.25-18.29c0.12-11.74,0.5-23.49,1.98-35.15
		c1.04-7.38,2.65-14.63,4.52-21.84c1.85-7.13,4.06-14.17,6.85-20.98c1.46-3.36,3.06-6.65,4.88-9.83c1.89-3.32,4.06-6.48,6.37-9.52
		c4.37-5.54,9.26-10.65,14.78-15.06c3.47-2.6,7.15-4.87,11.11-6.64c4.84-1.91,9.9-3.14,15.05-3.91
		C123.96,100.35,131.08,100.31,138.11,101.15L138.11,101.15L138.11,101.15z M262.2,113.25c0.05,0.07,0.1,0.14,0.16,0.2
		C262.31,113.39,262.25,113.32,262.2,113.25L262.2,113.25L262.2,113.25z M262.49,113.63c0.1,0.13,0.2,0.25,0.3,0.38
		C262.69,113.89,262.59,113.76,262.49,113.63L262.49,113.63L262.49,113.63z M76.64,125.99c-0.08,0.11-0.16,0.21-0.24,0.31
		C76.48,126.2,76.56,126.09,76.64,125.99L76.64,125.99L76.64,125.99z M172.09,132.49c3.71,0.05,7.41,0.43,11.08,0.91
		c3.73,0.52,7.46,1.12,11.14,1.92c3.73,0.81,7.4,1.85,11.04,2.97c1.35,0.41,2.7,0.84,4.04,1.27c10.06,9.16,19.31,19.21,27.68,29.94
		c6.56,8.57,12.58,17.54,18,26.88c5.43,9.34,10.2,19.07,14.44,29c6.33,15.14,11.42,30.8,15.08,46.79c-1.06,5.51-2.26,11-3.61,16.45
		c-2.89,11.72-6.66,23.18-11.35,34.3c-3.15,7.38-6.67,14.59-10.63,21.56c-3.96,6.97-8.45,13.62-13.34,19.97
		c0.09-0.12,0.18-0.24,0.27-0.35c-6.91,8.9-14.65,17.17-23.55,24.11c-7.58,5.81-15.78,10.81-24.56,14.57
		c0.02-0.01,0.03-0.01,0.05-0.02c-7.39,3.08-15.14,5.14-23.07,6.27c-6.68,0.88-13.4,1.05-20.09,0.19
		c-6.69-0.96-13.2-2.78-19.45-5.34c-2.71-1.15-5.34-2.43-7.9-3.86c-2.74-1.54-5.33-3.32-7.82-5.24
		c-6.27-4.94-11.78-10.75-16.7-17.02c-2.95-3.83-5.58-7.87-7.95-12.09c-2.55-4.53-4.74-9.25-6.77-14.03
		c0.01,0.01,0.01,0.03,0.02,0.04c-3.33-7.95-6.18-16.06-8.41-24.38c-2.3-8.54-3.95-17.26-5.13-26.03
		c-2.39-18.23-2.53-36.68-0.15-54.92c2.22-16.39,6.41-32.47,12.84-47.72c-0.03,0.09-0.07,0.18-0.11,0.27
		c4.81-11.26,10.9-21.98,18.36-31.7c-0.06,0.08-0.12,0.16-0.19,0.24c2.61-3.35,5.37-6.54,8.36-9.56c2.9-2.94,6.04-5.65,9.3-8.19
		c5.76-4.4,11.94-8.18,18.61-11.06c6.54-2.71,13.39-4.56,20.4-5.56C165.38,132.64,168.72,132.44,172.09,132.49L172.09,132.49
		L172.09,132.49z M183.29,133.42c0.06,0.01,0.11,0.01,0.17,0.02C183.41,133.43,183.35,133.42,183.29,133.42L183.29,133.42
		L183.29,133.42z M64.58,146.58c-0.09,0.2-0.17,0.4-0.26,0.6C64.41,146.99,64.5,146.79,64.58,146.58L64.58,146.58L64.58,146.58z
		 M269.62,225.62c0.11,0.26,0.22,0.53,0.34,0.79C269.85,226.15,269.73,225.88,269.62,225.62L269.62,225.62L269.62,225.62z
		 M74.46,246.48c-0.01,0.04-0.01,0.08-0.02,0.13C74.44,246.57,74.45,246.52,74.46,246.48L74.46,246.48L74.46,246.48z M288.85,295.33
		c0.03,0.21,0.06,0.41,0.08,0.62C288.91,295.75,288.88,295.54,288.85,295.33L288.85,295.33L288.85,295.33z M269.74,322.71
		c-0.03,0.06-0.05,0.13-0.08,0.19C269.68,322.84,269.71,322.77,269.74,322.71L269.74,322.71L269.74,322.71z M88.18,351.73
		c0.02,0.05,0.04,0.1,0.06,0.15C88.23,351.83,88.21,351.78,88.18,351.73L88.18,351.73L88.18,351.73z M53.17,352.21
		c0.07,0.17,0.14,0.34,0.22,0.51C53.31,352.55,53.24,352.38,53.17,352.21L53.17,352.21L53.17,352.21z M135.05,403.79
		c0.03,0.01,0.07,0.03,0.1,0.04C135.12,403.82,135.09,403.81,135.05,403.79L135.05,403.79L135.05,403.79z M105.42,422.25
		c0.09,0.07,0.18,0.14,0.27,0.21C105.6,422.38,105.51,422.32,105.42,422.25L105.42,422.25L105.42,422.25z"/>
	<path class="st0" d="M179.44,61.62c-0.27,1.48-0.57,2.95-0.83,4.43c-0.26,1.44-0.42,2.9-0.6,4.35c-0.42,3.38-0.77,6.76-1.1,10.15
		c-0.3,3.13-0.56,6.26-0.78,9.4c-0.11,1.57-0.22,3.14-0.32,4.7c-0.05,0.78-0.1,1.57-0.14,2.35c-0.05,0.78-0.12,1.57-0.13,2.36
		c-0.05,2.78-0.11,5.56-0.16,8.34c-0.23,12.15-0.46,24.29-0.69,36.44c-0.06,3.15-0.12,6.3-0.18,9.45c-0.01,0.41,0.03,0.82,0.05,1.23
		c0.07,1.41,0.13,2.82,0.2,4.23c0.53,11.49,1.07,22.99,1.61,34.48c0.16,3.47,0.32,6.95,0.49,10.42c-0.31,1.2-0.63,2.4-0.94,3.6
		c-1.67,6.42-3.27,12.87-4.9,19.3c-0.11,0.44,0.57,0.63,0.69,0.19c1.59-6.32,3.2-12.63,4.8-18.94c0.15-0.59,0.3-1.19,0.46-1.78
		c0.25,5.27,0.49,10.53,0.74,15.8c0.06,1.2,0.17,2.41,0.27,3.61c0.36,4.23,0.73,8.46,1.09,12.69c1.61,18.74,3.21,37.48,4.84,56.22
		c1.69,19.37,3.39,38.74,5.08,58.11c0.16,1.88,0.28,3.76,0.42,5.64c0.42,5.85,0.85,11.7,1.27,17.54c0.41,5.66,0.82,11.31,1.24,16.96
		c0.09,1.23,0.18,2.45,0.27,3.68c0.07,0.93,0.06,1.86,0.09,2.8c0.18,5.7,0.36,11.4,0.53,17.09c0.07,2.07,0.13,4.13,0.19,6.2
		c0.03,0.93,0,1.87-0.02,2.81c-0.09,4.81-0.17,9.62-0.26,14.43c-0.04,2.15-0.13,4.31-0.2,6.47c-0.03,0.88-0.05,1.76-0.08,2.64
		c-0.36-0.65-0.73-1.3-1.09-1.95c-0.77-1.37-1.55-2.74-2.32-4.11c-1.61-2.87-3.23-5.74-4.79-8.63c-0.87-1.61-3.07-2.11-4.61-1.21
		c-0.75,0.44-1.32,1.17-1.55,2.01c-0.25,0.91-0.08,1.77,0.34,2.6c1.49,2.95,3.06,5.87,4.61,8.79c0.81,1.51,1.64,3.02,2.46,4.52
		c0.76,1.4,1.52,2.8,2.31,4.19c0.49,0.86,1.01,1.69,1.57,2.5c0.65,0.94,1.38,1.83,2.09,2.73c0.04,0.05,0.07,0.09,0.11,0.14
		c0.32,0.53,0.74,0.96,1.28,1.28c0.56,0.32,1.16,0.49,1.8,0.49s1.24-0.16,1.8-0.49c0.53-0.32,0.96-0.74,1.28-1.28
		c0.27-0.64,0.56-1.26,0.82-1.9c0.24-0.59,0.38-1.11,0.49-1.74c0.26-1.45,0.29-2.93,0.28-4.4c-0.01-1.25,0-2.5,0.01-3.74
		c0.02-2.82,0.04-5.64,0.06-8.45c0.03-4.57-0.04-9.14-0.06-13.7c0-1.21,0.03-2.43-0.03-3.64c-0.1-1.95-0.19-3.91-0.29-5.87
		c-0.29-5.93-0.58-11.85-0.88-17.78c-0.05-0.93-0.06-1.87-0.14-2.8c-0.1-1.23-0.21-2.45-0.31-3.68c-0.48-5.65-0.95-11.31-1.43-16.96
		c-0.5-5.85-0.99-11.69-1.49-17.54c-0.16-1.88-0.31-3.76-0.48-5.64c-1.84-19.37-3.67-38.74-5.51-58.11
		c-0.59-6.22-1.13-12.44-1.69-18.67c-1.14-12.52-2.27-25.03-3.41-37.55c-0.39-4.23-0.77-8.46-1.15-12.69
		c-0.11-1.2-0.22-2.4-0.28-3.61c-0.47-9.53-0.95-19.06-1.42-28.59c-0.01-0.28-0.03-0.55-0.04-0.83c0.37-1.09,0.78-2.18,1.22-3.25
		c-0.01,0.03-0.02,0.06-0.03,0.09c0.38-0.87,0.77-1.73,1.18-2.58c0.42-0.88,0.79-1.76,1.31-2.59c0.41-0.5,0.85-0.94,1.34-1.35
		c0.22,2.32,0.44,4.65,0.67,6.97c0.06,0.64,0.17,1.27,0.25,1.91c0.25,1.87,0.49,3.74,0.74,5.61c1.59,12,3.17,24.01,4.76,36.02
		c0.42,3.16,0.84,6.33,1.25,9.49c0.35,2.65,0.77,5.29,1.16,7.94c1.66,11.23,3.31,22.46,4.97,33.7c0.1,0.65,0.19,1.3,0.29,1.94
		c0.73,5.42,1.46,10.83,2.2,16.25c0.44,3.24,0.88,6.48,1.32,9.71c0.54,4.02,1.32,8,2.03,11.99c0.15,0.84,1.43,0.77,1.62,0
		c0.15-0.62,0.31-1.24,0.46-1.87c0.11-0.48,0.16-1.06,0.22-1.54c0.18-1.45,0.13-2.92,0.14-4.38c0.01-1.16,0.06-2.32,0.09-3.48
		c0.09-2.62,0.18-5.24,0.27-7.86c0.06-1.75,0.06-3.51,0.08-5.26c0.05-2.92,0.09-5.84,0.14-8.76c0.01-1.01,0-2.01-0.03-3.02
		c-0.09-2.73-0.18-5.45-0.27-8.18c-0.17-5.22-0.3-10.44-0.58-15.66c-0.35-6.46-0.75-12.92-1.36-19.36c-0.29-3.07-0.66-6.14-1.03-9.2
		c-0.37-3.09-0.76-6.17-1.2-9.25c-0.43-3.04-0.92-6.07-1.48-9.09c-0.59-3.17-1.33-6.29-2.08-9.43c-1.25-5.26-2.39-10.65-4.56-15.63
		c-0.53-1.2-1.1-2.38-1.73-3.53c-0.56-1.01-1.2-1.97-1.86-2.91c-0.99-1.42-2.15-2.87-3.64-3.79c-0.52-5.87-1.05-11.74-1.58-17.61
		c-0.81-8.95-1.61-17.9-2.41-26.84c-0.08-0.94-0.07-1.89-0.11-2.83c-0.09-2.47-0.19-4.94-0.28-7.4c-0.24-6.31-0.48-12.61-0.72-18.91
		c-0.08-2.23-0.17-4.45-0.25-6.68c-0.02-0.7-0.07-1.41-0.07-2.11c-0.01-5.2-0.01-10.41-0.02-15.62c-0.01-7.41,0.02-14.81,0.06-22.21
		c0-0.85-0.59-1.62-1.41-1.85c-0.15-0.04-0.32-0.06-0.48-0.06C180.49,60.21,179.6,60.75,179.44,61.62L179.44,61.62L179.44,61.62z
		 M179.07,159.04c-0.07-1.41-0.14-2.82-0.21-4.23c-0.02-0.41-0.06-0.82-0.06-1.23c0.05-3.15,0.1-6.31,0.15-9.45
		c0.19-11.74,0.38-23.49,0.56-35.23c0.05-3.12,0.1-6.24,0.15-9.36c0.01-0.5,0.03-1,0.06-1.51c0,0.43,0.01,0.85,0.01,1.28
		c0.03,2.6,0.2,5.21,0.32,7.82c0.28,6.24,0.56,12.48,0.84,18.72c0.18,3.99,0.36,7.97,0.54,11.96c0.02,0.58,0.1,1.15,0.16,1.72
		c0.17,1.83,0.35,3.66,0.52,5.5c1.15,12.03,2.3,24.05,3.45,36.09c0.03,0.35,0.07,0.69,0.1,1.04c-0.41,0.28-0.78,0.64-1.1,0.95
		c-0.73,0.69-1.17,1.53-1.59,2.43c-0.58,1.24-1.18,2.48-1.7,3.74c-0.22,0.53-0.43,1.06-0.63,1.59
		C180.13,180.25,179.6,169.64,179.07,159.04L179.07,159.04L179.07,159.04z M189.28,190.03c-0.08-0.6-0.11-1.22-0.16-1.82
		c-0.15-1.64-0.3-3.28-0.44-4.92c0.01,0.01,0.02,0.01,0.03,0.02c0.84,0.69,1.55,1.48,2.22,2.32c-0.01-0.01-0.02-0.03-0.03-0.04
		c0.01,0.02,0.02,0.03,0.04,0.05c0.01,0.01,0.02,0.02,0.02,0.03c-0.01-0.01-0.01-0.02-0.02-0.02c1.69,2.25,3.07,4.67,4.2,7.24
		c0-0.01,0-0.01-0.01-0.02c0.01,0.02,0.01,0.04,0.02,0.05c0.01,0.01,0.01,0.02,0.02,0.04c0,0,0-0.01-0.01-0.01
		c2.23,5.39,3.43,11.11,4.78,16.77c0.76,3.19,1.45,6.4,2.03,9.64c0.59,3.27,1.07,6.57,1.51,9.86c0-0.03-0.01-0.07-0.01-0.11
		c0.84,6.37,1.6,12.76,2.15,19.16c0.55,6.45,0.88,12.91,1.21,19.37c0.08,1.55,0.09,3.11,0.14,4.66c0.09,3.15,0.18,6.29,0.28,9.44
		c0.07,2.47,0.15,4.93,0.22,7.39c0.03,1.11-0.01,2.22-0.03,3.33c-0.07,3.04-0.15,6.08-0.22,9.12c-0.03,1.47-0.05,2.95-0.12,4.42
		c-0.12,2.32-0.25,4.63-0.37,6.94c-0.04,0.76-0.08,1.52-0.12,2.27c-0.08,1.57-0.11,3.15-0.24,4.72c-0.29-1.87-0.57-3.74-0.83-5.62
		c-1.15-9.18-2.29-18.36-3.44-27.54c-0.32-2.52-0.7-5.04-1.05-7.56c-0.85-6.09-1.71-12.18-2.56-18.27c-0.84-6-1.67-11.99-2.52-17.98
		C193.75,225.31,191.51,207.67,189.28,190.03L189.28,190.03L189.28,190.03z M184.4,184.39c-0.01,0.01-0.01,0.02-0.02,0.03
		C184.38,184.41,184.39,184.4,184.4,184.39L184.4,184.39L184.4,184.39z M195.16,192.94c0-0.01-0.01-0.02-0.01-0.02
		c-0.01-0.01-0.01-0.02-0.02-0.04C195.14,192.9,195.15,192.92,195.16,192.94L195.16,192.94L195.16,192.94z M190.94,185.64
		C190.93,185.64,190.93,185.64,190.94,185.64c-0.01-0.01-0.01-0.01-0.01-0.01C190.93,185.63,190.93,185.63,190.94,185.64
		L190.94,185.64L190.94,185.64z"/>
	<path class="st0" d="M274.61,223.65c-2,0.04-4,0.11-6,0.18c-1,0.04-2,0.08-3,0.12c-0.83,0.03-1.67,0.04-2.5,0.1
		c-0.47,0.03-0.93,0.07-1.4,0.11c-6.82,0.55-13.64,1.1-20.46,1.65c-6.19,0.5-12.38,1-18.58,1.5c-0.79,0.06-1.57,0.17-2.35,0.27
		c-2.67,0.33-5.35,0.66-8.02,0.99c-12.98,1.59-25.96,3.18-38.94,4.78c-1.24,0.15-2.47,0.34-3.7,0.52c-2.95,0.42-5.9,0.84-8.85,1.26
		c-8.04,1.14-16.08,2.28-24.12,3.43c-3.12,0.44-6.25,0.89-9.38,1.33c-1.22,0.17-2.46,0.3-3.67,0.52c-1.7,0.32-3.42,0.58-5.12,0.88
		c-3.75,0.64-7.49,1.28-11.24,1.92c-6.09,1.04-12.17,2.08-18.26,3.12c-1.35,0.04-2.7,0.08-4.05,0.11
		c-6.53,0.12-13.06,0.24-19.59,0.36c-2.56,0.05-5.12,0.09-7.69,0.14c-4.58,0.08-9.16,0.44-13.73,0.68c-0.62,0.03-1.16,0.4-1.33,1.01
		c-0.16,0.57,0.09,1.28,0.63,1.56c0.65,0.33,1.29,0.65,1.97,0.91c0.73,0.28,1.53,0.39,2.29,0.51c0.78,0.13,1.57,0.23,2.35,0.36
		c0.75,0.13,1.49,0.28,2.24,0.42c0.72,0.14,1.45-0.19,1.66-0.94c0.15-0.55-0.1-1.23-0.6-1.53c1.69-0.07,3.38-0.12,5.07-0.14
		c3.26-0.04,6.52-0.08,9.79-0.12c1.39-0.02,2.77-0.04,4.16-0.05c-0.11,0.02-0.23,0.04-0.34,0.07c-1.45,0.29-2.91,0.57-4.37,0.86
		c-2.54,0.5-5.12,0.78-7.66,1.29c-1.32,0.27-2.61,0.64-3.87,1.13c-0.56,0.22-1.07,0.47-1.58,0.79c-0.55,0.34-1.07,0.76-1.61,1.12
		c-0.89,0.58-1.37,1.59-1.08,2.65c0.27,0.97,1.23,1.77,2.26,1.72c4.18-0.19,8.36-0.22,12.54-0.51c4.21-0.3,8.41-0.89,12.58-1.51
		c4.14-0.61,8.26-1.32,12.38-2.01c2.26-0.38,4.52-0.74,6.77-1.11c6.39-1.07,12.78-2.14,19.17-3.21c6.39-1.07,12.79-2.15,19.18-3.22
		c6.23-0.39,12.47-0.78,18.7-1.17c5.97-0.37,11.94-0.75,17.91-1.12c3.64-0.23,7.27-0.59,10.9-0.89c8.01-0.66,16.01-1.32,24.01-1.98
		c3.53-0.29,7.07-0.55,10.6-0.89c7.06-0.69,14.12-1.39,21.19-2.08c4.33-0.43,8.67-0.77,12.99-1.34c6.41-0.83,12.82-1.66,19.22-2.5
		c5.28-0.69,10.52-1.58,15.8-2.29c1.81-0.23,3.63-0.45,5.43-0.74c0.93-0.15,1.85-0.33,2.76-0.55c1.06-0.24,2.1-0.62,3.15-0.92
		c1.24-0.36,2.12-1.49,2.12-2.79c0-0.52-0.13-1.01-0.4-1.46c-0.35-0.6-1.02-1.2-1.73-1.33c-1.85-0.34-3.69-0.76-5.55-1.1
		c-2.16-0.4-4.35-0.57-6.54-0.7c-2.55-0.15-5.11-0.2-7.67-0.2C277.81,223.6,276.21,223.62,274.61,223.65L274.61,223.65
		L274.61,223.65z M210.82,234.54c2.9-0.35,5.81-0.69,8.71-1.04c0.93-0.11,1.86-0.25,2.8-0.33c5.72-0.45,11.44-0.9,17.16-1.34
		c6.93-0.54,13.87-1.09,20.8-1.63c0.79-0.06,1.58-0.12,2.38-0.19c1.64-0.13,3.29-0.15,4.93-0.22c3.84-0.15,7.69-0.27,11.53-0.28
		c-2.31,0.4-4.63,0.8-6.94,1.2c-1.87,0.33-3.75,0.58-5.63,0.86c-3.95,0.59-7.91,1.18-11.87,1.78c-1.33,0.2-2.67,0.4-4,0.6
		c-5.53,0.65-11.06,1.23-16.59,1.85c-3.84,0.43-7.68,0.86-11.52,1.28c-1.7,0.19-3.4,0.4-5.09,0.57c-4.9,0.48-9.79,0.9-14.69,1.35
		c-7.78,0.72-15.57,1.43-23.36,2.15c-2.79,0.26-5.58,0.51-8.38,0.71c4.5-0.73,9.01-1.46,13.51-2.18c6.85-1.1,13.71-2.22,20.57-3.28
		c0.7-0.11,1.38-0.74,1.73-1.33c0.02-0.03,0.04-0.06,0.05-0.1C208.23,234.84,209.53,234.69,210.82,234.54L210.82,234.54
		L210.82,234.54z"/>
	<path class="st0" d="M154.14,471.23c-0.44,0.12-0.72,0.6-0.59,1.05c1.33,4.7,2.64,9.4,3.94,14.11c0.66,2.37,1.23,4.75,1.81,7.14
		c0.06,1.3,0.13,2.6,0.19,3.9c0.05,0.88,0.1,1.76,0.18,2.64c0.2,2.29,0.41,4.58,0.61,6.86c0.1,1.18,0.18,2.36,0.33,3.53
		c0.43,3.53,0.86,7.07,1.33,10.59c0.27,2,0.55,3.99,0.84,5.98c0.12,0.78,0.25,1.56,0.39,2.35c0.08,0.44,0.16,0.89,0.24,1.34
		c0.1,0.55,0.22,1.1,0.36,1.65c0.18,0.69,0.53,1.34,0.82,1.99c0.22,0.49,0.8,0.86,1.29,0.99c0.39,0.1,0.77,0.1,1.15,0
		c0.36-0.1,0.68-0.29,0.95-0.56c0.26-0.22,0.53-0.42,0.77-0.66c0.47-0.48,0.74-1.1,0.99-1.7c0.39-0.93,0.56-1.91,0.79-2.88
		c0.18-0.75,0.4-1.49,0.61-2.23c0.4-1.44,0.76-2.89,1.23-4.3c0.51-1.51,1-3.02,1.55-4.52c0.27-0.71,0.51-1.44,0.8-2.14
		c0.26-0.63,0.53-1.27,0.79-1.9c0.45-0.95,0.9-1.87,1.4-2.79c0.34-0.62,0.16-1.42-0.47-1.78c-0.64-0.38-1.39-0.12-1.79,0.47
		c-0.58,0.87-1.17,1.76-1.66,2.68c-0.38,0.72-0.76,1.44-1.14,2.16c-0.41,0.78-0.75,1.6-1.12,2.39c-0.3,0.65-0.58,1.31-0.85,1.98
		c-0.41,0.99-0.81,1.98-1.22,2.98c-0.21,0.51-0.36,1.03-0.54,1.55c-0.35,1.06-0.7,2.12-1.05,3.18c-0.01,0.03-0.02,0.07-0.03,0.1
		c-0.1-0.47-0.2-0.95-0.3-1.42c-0.33-1.65-0.64-3.31-0.94-4.97c-0.25-1.43-0.52-2.87-0.75-4.31c-0.18-1.12-0.36-2.25-0.54-3.37
		c0.31-0.19,0.52-0.54,0.54-0.94c0.06-1.12,0.13-2.24,0.1-3.37c-0.04-1.29-0.12-2.58-0.22-3.87c-0.11-1.49-0.23-2.99-0.38-4.48
		c-0.2-2.05-0.41-4.11-0.62-6.16c-0.34-3.41-0.65-6.82-0.95-10.23c-0.11-1.27-0.22-2.54-0.32-3.82c-0.09-1.11-0.18-2.22-0.27-3.33
		c-0.11-1.34-0.27-2.67-0.42-4.01c0-0.24-0.06-0.45-0.18-0.66c-0.17-0.29-0.45-0.51-0.78-0.6c-0.66-0.18-1.44,0.22-1.6,0.91
		c-0.13,0.57-0.28,1.12-0.4,1.69c-0.11,0.6-0.15,1.22-0.19,1.82c-0.09,1.27-0.1,2.55-0.09,3.83c0.01,1.18,0.05,2.37,0.08,3.55
		c0.01,0.44,0.02,0.88,0.03,1.33c-0.11-0.37-0.21-0.74-0.32-1.12c-1.12-4.01-2.24-8.02-3.38-12.02c-0.11-0.37-0.45-0.62-0.83-0.62
		C154.29,471.2,154.22,471.21,154.14,471.23L154.14,471.23L154.14,471.23z M175.66,514.13c-0.01,0.03-0.03,0.07-0.04,0.1
		C175.63,514.2,175.65,514.16,175.66,514.13L175.66,514.13L175.66,514.13z"/>
	<path class="st0" d="M219.2,465.15c-0.28,1.26-0.6,2.5-0.76,3.79c-0.18,1.42-0.24,2.85-0.32,4.28c-0.05,0.97-0.13,1.94-0.2,2.91
		c-0.1,1.4-0.19,2.8-0.3,4.2c-0.05,0.78-0.14,1.57-0.16,2.35c-0.06,2.16-0.11,4.31-0.17,6.47c-0.03,1.15-0.06,2.3-0.09,3.45
		c-0.05,1.76-0.02,3.52-0.02,5.28c0,0.74,0.62,1.35,1.35,1.35c0.74,0,1.35-0.62,1.35-1.35c0-1.68-0.03-3.36,0.02-5.04
		c0.03-0.99,0.06-1.97,0.08-2.95c0.07-2.33,0.13-4.66,0.19-6.99c0.01-0.4,0.05-0.8,0.08-1.19c0.09-1.26,0.19-2.53,0.28-3.79
		c0.08-1.01,0.15-2.02,0.23-3.03c0.02,0.77,0.03,1.53,0.05,2.3c0.03,0.95,0.06,1.89,0.09,2.84c0.09,2.63,0.17,5.26,0.26,7.89
		c0.14,4.15,0.26,8.29,0.36,12.44c0.02,0.75,0.04,1.5,0.05,2.26c0.01,0.94,0,1.88,0.08,2.82c0.1,1.11,0.39,2.16,0.66,3.25
		c0.17,0.69,0.77,1.26,1.45,1.45c0.37,0.1,0.74,0.1,1.1,0c0.35-0.1,0.66-0.28,0.92-0.53c0.01-0.01,0.02-0.01,0.02-0.02
		c0.29-0.22,0.58-0.43,0.86-0.66c0.51-0.41,0.78-1.03,1.02-1.61c0.44-1.06,0.59-2.19,0.71-3.33c0.11-1.09,0.13-2.18,0.26-3.27
		c0.02-0.2,0.03-0.4,0.06-0.6c0.13-1.47,0.26-2.94,0.4-4.41c0.15,0.03,0.3,0.04,0.46,0.04c1.41,0,2.47-1.15,2.52-2.52
		c0.06-1.68,0.05-3.35,0.02-5.02c-0.02-0.79-0.1-1.58-0.16-2.37c-0.06-0.81-0.17-1.63-0.28-2.44c-0.15-1-0.4-1.94-0.67-2.92
		c-0.16-0.57-0.54-1.07-1.06-1.38c-0.73-0.43-1.59-0.39-2.32,0c-0.45,0.24-1.01,0.62-1.25,1.1c-0.13,0.25-0.25,0.5-0.34,0.76
		c-0.1,0.36-0.16,0.75-0.19,1.12c-0.08,1.08-0.22,2.16-0.31,3.25c-0.08,0.9-0.15,1.81-0.23,2.71c-0.14,1.68-0.28,3.36-0.42,5.03
		c-0.02,0.27-0.04,0.55-0.07,0.82c-0.08-1.46-0.15-2.91-0.24-4.37c-0.23-4.12-0.41-8.24-0.61-12.36c-0.09-1.93-0.13-3.87-0.28-5.81
		c-0.09-1.2-0.26-2.39-0.53-3.57c-0.25-1.08-0.84-2-1.33-2.98c-0.24-0.48-0.72-0.7-1.21-0.7C220,464.1,219.35,464.48,219.2,465.15
		L219.2,465.15L219.2,465.15z"/>
	<path class="st0" d="M159.44,474.81c-1.22,0.75-2.48,1.44-3.71,2.18c-1.36,0.81-2.61,1.76-3.84,2.76
		c-2.35,1.91-4.48,4.09-6.58,6.27c-4.27,4.42-8.46,8.91-12.33,13.7c-3.88,4.81-7.56,9.82-10.85,15.05c-0.78,1.24-1.52,2.5-2.26,3.76
		c-0.77,1.3-1.56,2.59-2.31,3.9c-0.03,0.05-0.06,0.11-0.09,0.16c-0.52,0.48-1.05,0.96-1.59,1.42c-1.06,0.89-2.12,1.77-3.18,2.66
		c-4.68,3.9-9.35,7.8-14.03,11.7c-1.89,1.58-3.78,3.15-5.67,4.73c-0.61,0.51-1.22,1.02-1.84,1.52c-4.22,3.37-8.43,6.75-12.65,10.12
		c-1.36,1.09-2.73,2.18-4.09,3.27c-0.42,0.33-0.81,0.69-1.22,1.04c-1.08,0.93-2.17,1.86-3.25,2.78c-3.06,2.62-6.11,5.25-9.13,7.92
		c-1.33,1.18-2.68,2.34-3.98,3.56c-0.93,0.88-1.86,1.75-2.79,2.63c-0.38,0.36-0.75,0.73-1.11,1.1c-0.49,0.5-0.97,1.01-1.42,1.55
		c-0.52,0.6-0.97,1.26-1.43,1.9c-0.44,0.6-0.48,1.55-0.29,2.23c0.2,0.73,0.68,1.35,1.33,1.73c0.67,0.39,1.48,0.5,2.23,0.29
		c0.23-0.1,0.46-0.19,0.69-0.29c0.43-0.26,0.78-0.6,1.04-1.04c0.2-0.27,0.39-0.54,0.58-0.81c0.98-1.19,2.1-2.26,3.2-3.34
		c0.91-0.88,1.82-1.76,2.73-2.65c0.58-0.56,1.18-1.09,1.78-1.64c1.14-1.05,2.27-2.09,3.41-3.14c3.34-3.07,6.75-6.05,10.13-9.07
		c0.81-0.72,1.62-1.42,2.45-2.1c2.13-1.75,4.25-3.51,6.38-5.26c2.31-1.91,4.62-3.81,6.93-5.71c0.81-0.66,1.62-1.32,2.41-2
		c6.33-5.41,12.67-10.81,19.01-16.22c-0.11,0.78-0.16,1.56-0.11,2.34c0.08,1.23,0.5,2.5,1.63,3.14c0.54,0.3,1.17,0.36,1.77,0.43
		c0.56,0.06,1.14,0.03,1.7-0.02c1.53-0.15,3.03-0.66,4.43-1.27c1.42-0.61,2.8-1.3,4.19-1.97c0.91-0.44,1.83-0.85,2.72-1.32
		c1.79-0.93,3.59-1.86,5.38-2.79c-0.12,0.12-0.24,0.24-0.36,0.36c-0.77,0.77-1.54,1.54-2.3,2.32c-1.51,1.56-2.9,3.2-4.24,4.89
		c-1.31,1.66-2.58,3.34-3.66,5.16c-0.52,0.89-0.98,1.81-1.33,2.78c-0.39,1.09-0.52,2.26-0.8,3.38c-0.14,0.55,0.17,1.31,0.8,1.4
		c0.72,0.11,1.41,0.3,2.14,0.18c0.81-0.13,1.54-0.48,2.28-0.8c3.58-1.45,7.12-2.99,10.66-4.54c0.53-0.23,0.64-0.99,0.38-1.44
		c-0.32-0.54-0.92-0.61-1.44-0.38c-2.25,0.98-4.51,1.96-6.77,2.92c-0.78,0.31-1.55,0.62-2.32,0.93c-0.32,0.13-0.64,0.25-0.96,0.38
		c-0.71,0.28-1.41,0.6-2.16,0.75c-0.03,0-0.07,0-0.11,0c0.19-0.8,0.37-1.61,0.66-2.38c0.87-1.94,2.09-3.69,3.37-5.38
		c-0.04,0.05-0.07,0.09-0.11,0.14c0.04-0.05,0.08-0.1,0.12-0.16c0.02-0.03,0.04-0.06,0.07-0.09c-0.02,0.02-0.03,0.05-0.05,0.07
		c0.9-1.16,1.82-2.3,2.78-3.42c1.03-1.19,2.12-2.31,3.23-3.42c1.27-1.26,2.55-2.51,3.89-3.7c1.24-1.1,2.47-2.21,3.7-3.31
		c0.36-0.32,0.72-0.64,1.07-0.96c0.51-0.46,1.02-0.92,1.55-1.37c0.78-0.48,1.56-0.98,2.35-1.47c0.65-0.41,0.9-1.25,0.5-1.93
		c-0.18-0.32-0.49-0.55-0.84-0.65c-0.4-0.11-0.72-0.02-1.09,0.14c-0.53,0.23-1.01,0.55-1.47,0.89c-1.01,0.61-2.02,1.23-3.06,1.79
		c-1.06,0.58-2.11,1.15-3.16,1.73c-1.51,0.82-3.02,1.66-4.56,2.44c-1.19,0.6-2.37,1.2-3.56,1.8c-0.73,0.36-1.44,0.75-2.17,1.1
		c-2.14,1-4.26,2.02-6.42,2.97c-1.1,0.45-2.24,0.82-3.42,1.02c-0.53,0.04-1.06,0.04-1.6,0c-0.04-0.01-0.07-0.02-0.11-0.02
		c-0.03-0.11-0.05-0.22-0.08-0.33c-0.05-0.61-0.02-1.22,0.05-1.83c0.22-1.43,0.63-2.81,1.17-4.16c0.01-0.03,0.02-0.05,0.04-0.08
		c2.14-1.85,4.19-3.79,6.25-5.72c4.63-4.31,9.18-8.7,13.61-13.22c2.15-2.19,4.24-4.44,6.36-6.65c1.98-2.06,4.01-4.09,5.98-6.17
		c1.99-2.11,3.89-4.29,5.66-6.58c1.72-2.24,3.37-4.63,4.32-7.31c0.61-1.72,0.91-3.54,1.44-5.29c0.36-1.18-0.66-2.26-1.76-2.26
		C160.02,474.56,159.72,474.63,159.44,474.81L159.44,474.81L159.44,474.81z M157.35,480.05c-0.13,0.41-0.28,0.82-0.43,1.23
		c-0.46,1.01-1.04,1.96-1.65,2.9c-0.6,0.93-1.25,1.83-1.93,2.71c-3.5,4.45-7.62,8.34-11.6,12.36c-2.16,2.18-4.27,4.41-6.44,6.58
		c-2.24,2.24-4.51,4.43-6.8,6.61c-0.91,0.87-1.83,1.73-2.75,2.58c2.35-3.65,4.91-7.16,7.56-10.59c3.21-4.13,6.64-8.06,10.22-11.87
		c1.76-1.87,3.55-3.7,5.36-5.52c1.83-1.84,3.72-3.61,5.76-5.23C155.52,481.15,156.43,480.58,157.35,480.05L157.35,480.05
		L157.35,480.05z M131.14,546.25c-0.07,0.03-0.14,0.06-0.21,0.09C131,546.31,131.07,546.28,131.14,546.25L131.14,546.25
		L131.14,546.25z M129.65,540.53c0,0.01-0.01,0.01-0.01,0.02c0.01-0.01,0.02-0.02,0.03-0.03
		C129.66,540.52,129.65,540.53,129.65,540.53L129.65,540.53L129.65,540.53z"/>
	<path class="st0" d="M252.2,482.35c-0.78,0.22-1.45,0.74-1.86,1.43c-0.72,1.23-0.48,2.76,0.49,3.77c0.56,0.59,1.07,1.22,1.72,1.73
		c0.73,0.58,1.47,1.12,2.24,1.63c1.47,0.97,3.05,1.78,4.64,2.55c1.48,0.72,2.98,1.39,4.47,2.08c0.48,0.23,0.96,0.47,1.45,0.68
		c2.79,1.26,5.58,2.51,8.37,3.77c1.66,0.75,3.32,1.49,4.98,2.24c0.84,0.53,1.68,1.06,2.53,1.58c3.01,1.89,6.01,3.77,9.01,5.65
		c0.53,0.33,1.09,0.63,1.59,1c0.51,0.38,1.02,0.75,1.53,1.12c5.47,4,10.94,8,16.41,11.99c0.27,0.2,0.54,0.4,0.81,0.59
		c2.47,2.08,4.93,4.16,7.39,6.24c-2.82-1.39-5.63-2.79-8.42-4.24c-4.57-2.37-9.15-4.73-13.68-7.18c-3.29-1.78-6.59-3.56-9.88-5.34
		c-1.28-0.69-2.58-1.37-3.84-2.1c-5.76-3.34-11.51-6.69-17.27-10.03c-1.09-0.64-2.18-1.27-3.27-1.9c-0.34-0.2-0.69-0.39-1.02-0.6
		c-2.32-1.49-4.64-2.98-6.95-4.47c-2.39-1.53-4.77-3.06-7.16-4.6c-0.54-0.35-1.08-0.69-1.62-1.04c-0.75-0.48-1.56-0.9-2.34-1.33
		c-1.28-0.71-2.57-1.4-3.85-2.1c-0.44-0.25-1-0.19-1.36,0.17c-0.44,0.44-0.42,1.14,0,1.59c1.32,1.4,2.64,2.79,3.99,4.15
		c1.19,1.2,2.39,2.41,3.59,3.61c1.87,1.89,3.68,3.85,5.51,5.78c3.83,4.03,7.63,8.08,11.44,12.13c1.34,1.42,2.68,2.84,4.04,4.24
		c1.54,1.58,3.09,3.15,4.58,4.77c1.56,1.7,2.98,3.5,4.4,5.32c0,0,0,0,0,0c1.41,1.84,2.75,3.72,3.69,5.85
		c0.39,0.99,0.66,1.99,0.81,3.05c0.09,0.78,0.12,1.55,0.05,2.33c-0.22,1.1-0.61,2.16-0.96,3.22c-0.31,0.93-0.62,1.86-0.93,2.78
		c-0.17,0.49,0.6,0.69,0.77,0.21c0.64-1.85,1.33-3.72,1.84-5.61c0.19-0.71,0.17-1.46,0.14-2.18c-0.03-0.73-0.15-1.45-0.3-2.16
		c-0.34-1.64-1.12-3.17-1.98-4.59c-0.86-1.44-1.9-2.78-2.92-4.11c-1.08-1.4-2.17-2.79-3.33-4.12c-2.41-2.77-5.05-5.34-7.55-8.03
		c-3.55-3.82-7.07-7.68-10.57-11.54c-2.37-2.63-4.75-5.25-7.12-7.88c-0.79-0.87-1.58-1.74-2.37-2.61c-0.22-0.24-0.44-0.48-0.66-0.72
		c0.1,0.06,0.19,0.13,0.29,0.19c0.95,0.64,1.9,1.28,2.85,1.92c3.1,2.08,6.19,4.17,9.29,6.25c1.26,0.85,2.5,1.74,3.8,2.52
		c2.43,1.47,4.85,2.93,7.28,4.4c3.24,1.96,6.48,3.92,9.72,5.87c1.46,0.88,2.91,1.8,4.39,2.65c5.25,3.01,10.5,6.02,15.76,9.03
		c8.77,5.03,17.59,9.96,26.41,14.89c1.07,0.6,2.18,1.16,3.27,1.73c0.95,0.5,1.89,1.01,2.85,1.5c1.84,0.93,3.68,1.86,5.53,2.77
		c0.9,0.72,1.79,1.46,2.74,2.1c1.45,0.98,2.91,1.96,4.36,2.94c2.07,1.39,4.19,2.68,6.32,3.99c3.87,2.39,7.74,4.81,11.86,6.76
		c1.85,0.88,3.76,1.67,5.72,2.27c0.78,0.24,1.53,0.51,2.34,0.64c0.69,0.11,1.25,0.2,1.91,0.14c0.52,0.02,1.01-0.07,1.47-0.27
		c0.74-0.21,1.39-0.58,1.93-1.12c0.61-0.55,1.18-1.31,1.35-2.14c0.01-0.08,0.03-0.15,0.05-0.23c0.21-0.77,0.21-1.55,0-2.32
		c-0.1-0.57-0.34-1.09-0.68-1.55c-0.23-0.29-0.45-0.58-0.68-0.88c-0.38-0.31-0.76-0.61-1.15-0.9c-0.61-0.43-1.29-0.8-1.97-1.13
		c-2.52-1.25-5.14-2.31-7.74-3.37c-2.53-1.03-5.07-2.06-7.61-3.08c-2.23-0.89-4.44-1.82-6.65-2.74c-0.04-0.02-0.07-0.03-0.11-0.05
		c-0.16-0.1-0.32-0.2-0.48-0.3c-2.15-1.39-4.3-2.78-6.45-4.17c-0.23-0.14-0.43-0.32-0.65-0.48c-0.61-0.45-1.21-0.91-1.82-1.37
		c-0.77-0.58-1.54-1.16-2.31-1.74c-2.11-1.83-4.22-3.65-6.34-5.48c-1.53-1.33-3.12-2.59-4.68-3.89c-2.77-2.3-5.55-4.6-8.33-6.9
		c-0.74-0.61-1.47-1.26-2.25-1.81c-0.51-0.37-1.03-0.74-1.54-1.1c-0.66-0.47-1.32-0.94-1.98-1.41c2.1,0.78,4.21,1.56,6.32,2.32
		c10.09,3.62,20.21,7.15,30.39,10.51c1.58,0.52,3.32-0.59,3.74-2.13c0.22-0.78,0.1-1.64-0.31-2.34c-0.41-0.71-1.05-1.15-1.82-1.4
		c-10.53-3.42-21-7.05-31.44-10.74c-9.27-3.28-18.42-6.87-27.57-10.48c-2.09-1.27-4.19-2.54-6.28-3.81
		c-2.08-1.26-4.16-2.52-6.24-3.78c-0.64-0.39-1.36-0.68-2.02-1.02c-1.65-0.83-3.31-1.66-4.96-2.49c-2.01-1.01-4.01-2.08-6.08-2.98
		c-1.65-0.72-3.3-1.43-4.95-2.15c-0.44-0.19-0.88-0.38-1.32-0.57c-1.67-0.72-3.4-1.28-5.11-1.9c-0.28-0.07-0.55-0.11-0.83-0.11
		C252.75,482.23,252.47,482.27,252.2,482.35L252.2,482.35L252.2,482.35z M370.13,554.95c-0.04,0.01-0.07,0.01-0.11,0.01
		C370.05,554.96,370.09,554.96,370.13,554.95L370.13,554.95L370.13,554.95z"/>
	<path class="st0" d="M229.5,0.03c-2.92,0.1-5.84,0.42-8.73,0.86c-5.56,0.84-10.89,2.93-16.13,4.88c-5.4,2.01-10.56,4.5-15.68,7.1
		c-0.83,0.42-1.66,0.86-2.47,1.31c-1.09-1.15-2.26-2.23-3.51-3.23c-1.92-1.53-3.94-2.86-6.18-3.88c-2.47-1.12-5.04-1.9-7.69-2.42
		c-2.49-0.49-5.05-0.74-7.59-0.79c-2.74-0.05-5.48,0.3-8.16,0.79c-2.45,0.45-4.84,1.19-7.18,2.05c-2.62,0.96-5.18,2.13-7.62,3.49
		c-2.26,1.26-4.33,2.83-6.34,4.43c-2.1,1.67-4.04,3.54-5.9,5.47c-2.86,2.96-5.38,6.21-7.56,9.67c-2.31,1.87-4.48,3.93-6.46,6.14
		c-1.69,1.89-3.24,3.92-4.74,5.95c-1.6,2.17-3.29,4.32-4.58,6.69c-1.11,2.06-1.57,4.32-1.82,6.62c-0.27,2.49,0.11,5.01,0.99,7.34
		c1.72,4.55,5.02,8.51,8.85,11.44c3.9,2.98,8.37,5.09,13.05,6.55c5.05,1.57,10.47,2.02,15.74,1.93c2.02-0.03,4.02-0.18,6.01-0.43
		c1.23,0.43,2.48,0.84,3.74,1.19c3.05,0.85,6.23,1.19,9.38,1.39c5.67,0.35,11.37,0.19,17.03-0.29c5.83-0.5,11.57-1.55,17.2-3.12
		c2.6-0.73,5.14-1.64,7.69-2.53c2.97-1.04,5.82-2.31,8.62-3.72c2.35-1.18,4.65-2.46,6.89-3.83c2.39-1.46,4.65-3.11,6.89-4.79
		c4.48-3.34,8.79-6.9,12.56-11.04c3.73-4.1,6.84-8.78,9.5-13.63c2.72-4.97,5.1-10.22,6.59-15.7c0.72-2.64,1.16-5.39,1.49-8.1
		c0.17-1.42,0.06-2.95-0.24-4.35c-0.32-1.53-1.01-2.99-1.83-4.31c-0.76-1.23-1.74-2.37-2.75-3.41c-1-1.03-2.21-1.9-3.41-2.69
		c-1.15-0.76-2.51-1.24-3.79-1.71c-1.23-0.45-2.52-0.69-3.81-0.88C235.38,0.15,233.27,0,231.13,0C230.59,0,230.04,0.01,229.5,0.03
		L229.5,0.03L229.5,0.03z M235.09,11.72c1.13,0.2,2.24,0.47,3.32,0.85c0.46,0.23,0.9,0.49,1.32,0.78c0.52,0.46,1.01,0.94,1.48,1.46
		c0.23,0.34,0.45,0.69,0.64,1.05c0.03,0.11,0.06,0.23,0.09,0.34c0.02,0.69-0.02,1.36-0.08,2.05c-0.28,1.78-0.63,3.55-1.08,5.3
		c-0.56,2.2-1.33,4.35-2.19,6.45c-2.38,5.47-5.3,10.74-8.88,15.52c-3.49,4.33-7.63,8.05-12.01,11.48c-2.74,2.08-5.53,4.07-8.48,5.85
		c-3.03,1.83-6.2,3.52-9.45,4.96c-3.5,1.43-7.09,2.72-10.71,3.81c-3.92,1.17-7.92,2.03-11.97,2.62c-2.66,0.33-5.34,0.57-8.02,0.71
		c0.71-0.32,1.42-0.64,2.12-0.97c2.38-1.13,4.69-2.42,6.94-3.78c2.23-1.35,4.44-2.74,6.48-4.36c0.91-0.72,1.76-1.48,2.56-2.32
		c0.86-0.9,1.6-1.94,2.34-2.95c1.62-2.25,2.81-4.75,3.86-7.31c0.94-2.31,1.53-4.76,1.95-7.21c0.49-2.81,0.7-5.65,0.62-8.49
		c-0.15-4.97-1.43-9.85-3.41-14.39c1.42-0.67,2.85-1.32,4.27-1.98c1.73-0.81,3.47-1.6,5.23-2.36c3.51-1.44,7.11-2.69,10.7-3.92
		c3.58-1.23,7.21-2.28,10.95-2.87C227.48,11.58,231.32,11.34,235.09,11.72L235.09,11.72L235.09,11.72z M166.45,11.91
		c2.43,0.38,4.79,0.97,7.08,1.86c1.81,0.82,3.49,1.83,5.09,3.02c0.52,0.42,1.03,0.86,1.52,1.31c-0.5,0.36-0.98,0.73-1.47,1.09
		c-1.37,1.03-2.69,2.1-3.98,3.24c-1.84,1.63-3.58,3.34-5.2,5.19c-0.81,0.93-1.33,1.94-1.33,3.2c0,1.2,0.48,2.36,1.33,3.2
		c1.76,1.75,4.65,1.73,6.41,0c1.26-1.24,2.63-2.34,4.02-3.42c1.61-1.2,3.25-2.34,4.96-3.4c0.49-0.31,1-0.6,1.5-0.89
		c0.18,0.37,0.35,0.74,0.52,1.12c1.09,2.74,1.86,5.58,2.3,8.5c0.31,2.9,0.25,5.79-0.09,8.67c-0.44,2.83-1.14,5.58-2.2,8.24
		c-0.94,2.09-2.05,4.06-3.4,5.92c-1.09,1.34-2.31,2.51-3.66,3.59c-5,3.8-10.51,6.93-16.26,9.41c-2.64,1.09-5.31,2.13-8.03,3.04
		c-0.21-0.02-0.41-0.04-0.62-0.07c-4.9-0.79-9.62-2.54-14.2-4.43c-4.96-2.16-9.69-4.92-14.03-8.15c-1.75-1.4-3.37-2.92-4.8-4.65
		c-0.87-1.21-1.64-2.47-2.28-3.81c-0.25-0.67-0.45-1.35-0.61-2.04c-0.01-0.24-0.01-0.48,0.01-0.73c0.27-1.37,0.7-2.69,1.08-4.04
		c0.48-1.7,1.07-3.36,1.73-4.99c1.89-4.28,4.23-8.44,7.02-12.19c1.17-1.46,2.41-2.88,3.71-4.24c2.02-0.78,4.1-1.37,6.25-1.71
		c2.21-0.19,4.46-0.04,6.66,0.23c2.88,0.45,5.61,1.42,8.31,2.51c1.91,0.82,3.79,1.7,5.46,2.94c1.51,1.24,2.91,2.57,4.15,4.08
		c1.14,1.52,2.05,3.14,2.81,4.88c0.73,1.84,1.28,3.7,1.58,5.64c0.25,2.55-0.1,5.12-0.44,7.65c-0.59,3.54-1.44,7.01-2.32,10.48
		c-0.17,0.69,0.22,1.42,0.92,1.62c0.68,0.19,1.44-0.22,1.62-0.92c0.93-3.67,1.91-7.34,2.44-11.09c0.34-2.39,0.67-4.78,0.57-7.19
		c-0.09-2.39-0.84-4.79-1.69-7.01c-0.83-2.16-1.93-4.2-3.36-6.02c-1.44-1.83-3.13-3.58-5.03-4.94c-2.13-1.53-4.57-2.59-6.99-3.58
		c-2.38-0.97-4.77-1.81-7.31-2.24c-1.23-0.2-2.48-0.31-3.72-0.41c-1.46-0.1-2.9-0.14-4.36,0.05c-0.06,0.01-0.12,0.02-0.18,0.02
		c0.24-0.2,0.48-0.39,0.72-0.59c2.79-2.08,5.78-3.79,8.97-5.19c3.2-1.29,6.49-2.25,9.9-2.8C160.5,11.54,163.47,11.57,166.45,11.91
		L166.45,11.91L166.45,11.91z M166.21,38.41c0.03,0.08,0.07,0.16,0.1,0.23C166.28,38.57,166.24,38.49,166.21,38.41L166.21,38.41
		L166.21,38.41z M113.37,40.32c-1.02,2.54-1.88,5.15-2.59,7.81c-0.35,1.3-0.53,2.7-0.43,4.05c0.1,1.33,0.42,2.62,0.86,3.88
		c0.98,2.77,2.53,5.24,4.35,7.53c3.2,4.03,7.51,7.05,11.83,9.78c2.09,1.32,4.21,2.58,6.42,3.69c0.49,0.24,0.98,0.48,1.47,0.71
		c-1.45-0.06-2.89-0.17-4.33-0.34c-3.43-0.5-6.73-1.38-9.95-2.67c-2.73-1.18-5.32-2.6-7.72-4.36c-1.68-1.33-3.18-2.81-4.52-4.48
		c-1.09-1.46-2.02-3-2.77-4.66c-0.36-0.95-0.64-1.9-0.83-2.89c-0.14-1.35-0.12-2.68,0.03-4.04c0.17-1.05,0.41-2.07,0.78-3.08
		c0.8-1.77,1.87-3.36,2.99-4.94c1.21-1.71,2.43-3.42,3.7-5.09C112.89,40.91,113.13,40.62,113.37,40.32L113.37,40.32L113.37,40.32z
		 M167.33,51.76c-0.01,0.08-0.02,0.15-0.03,0.23C167.31,51.91,167.32,51.84,167.33,51.76L167.33,51.76L167.33,51.76z M113.44,70.52
		c0.04,0.03,0.08,0.06,0.11,0.09C113.52,70.58,113.48,70.55,113.44,70.52L113.44,70.52L113.44,70.52z"/>
	<path class="st0" d="M55.4,284.75c0,0.71,0.6,1.31,1.31,1.31c0.71,0,1.31-0.6,1.31-1.31c0-0.71-0.6-1.31-1.31-1.31
		C56,283.44,55.4,284.04,55.4,284.75L55.4,284.75L55.4,284.75z"/>
	<path class="st0" d="M17.75,240.16c-1.89,0.76-3.51,2.02-5.01,3.39c-2.92,2.67-4.9,6.25-6.43,9.85c-1.2,2.82-2.19,5.72-2.95,8.68
		c-0.49,0.82-0.94,1.66-1.33,2.53c-0.72,1.61-1.29,3.24-1.64,4.97c-0.21,1.06-0.33,2.15-0.39,3.23c-0.06,1.06,0.14,2.14,0.32,3.19
		c0.11,0.7,0.37,1.38,0.62,2.04c0.12,0.33,0.26,0.66,0.4,0.98c0.03,4.64,0.51,9.28,1.42,13.81c0.87,4.3,2.34,8.45,4.13,12.45
		c1.75,3.91,4.09,7.54,7.05,10.64c1.46,1.53,3.13,2.85,4.83,4.11c1.77,1.31,3.7,2.41,5.69,3.33c4.01,1.86,8.4,3.09,12.84,3.09
		c2.01,0,4.04-0.41,5.95-1.03c2.11-0.69,4.16-1.7,5.99-2.95c0.89-0.6,1.73-1.28,2.52-2c0.78-0.7,1.42-1.54,2.06-2.37
		c1.24-1.62,2.22-3.4,3.03-5.27c0.82-1.9,1.51-3.82,2.02-5.83c0.6-2.34,0.87-4.78,1-7.19c0.25-4.71-0.4-9.46-1.24-14.09
		c-0.83-4.57-2.27-8.99-4.1-13.26c-1.71-3.99-3.86-7.77-6.49-11.24c-1.36-1.8-2.81-3.52-4.44-5.09c-1.72-1.65-3.69-3.08-5.69-4.35
		c-1.93-1.22-4.04-2.17-6.19-2.93c-0.93-0.33-1.89-0.54-2.86-0.68c-0.26-0.04-0.52-0.08-0.78-0.11c-0.42-1.23-0.84-2.45-1.46-3.6
		c-0.42-0.78-1.04-1.49-1.61-2.16c-0.67-0.8-1.49-1.48-2.37-2.03c-0.72-0.45-1.52-0.64-2.34-0.64
		C19.44,239.63,18.56,239.84,17.75,240.16L17.75,240.16L17.75,240.16z M19.93,244.02c0.1,0.01,0.2,0.02,0.3,0.04
		C20.13,244.04,20.03,244.03,19.93,244.02L19.93,244.02L19.93,244.02z M20.37,244.09c0.2,0.1,0.38,0.21,0.57,0.34
		c0.6,0.51,1.14,1.08,1.64,1.68c0.41,0.59,0.74,1.21,1.03,1.86c0.02,0.04,0.03,0.08,0.05,0.12c-2.99,0.4-5.8,1.4-8.55,2.68
		c-1.13,0.52-2.2,1.17-3.21,1.9c0.69-1.35,1.48-2.66,2.38-3.9c0.96-1.19,2.04-2.28,3.23-3.25c0.64-0.46,1.29-0.88,2-1.22
		c0.25-0.08,0.49-0.15,0.74-0.21C20.29,244.09,20.33,244.09,20.37,244.09L20.37,244.09L20.37,244.09z M20,244.11
		c-0.06,0.01-0.12,0.02-0.18,0.02C19.89,244.13,19.95,244.12,20,244.11L20,244.11L20,244.11z M24.62,257.15c0,0.04,0,0.07,0,0.11
		c-0.15,3.35-0.24,6.7-0.16,10.05c0.14,6.82,1.07,13.66,2.58,20.31c0.93,4.07,2.16,8.05,3.4,12.02c0.33,1.06,0.67,2.12,1,3.18
		c0.47,1.49,0.78,3.02,1.39,4.47c0.24,0.57,0.51,1.1,0.85,1.61c0.39,0.59,0.87,1.13,1.32,1.67c0.02,0.02,0.03,0.04,0.05,0.07
		c0.39,0.51,0.83,0.86,1.51,0.86c0.61,0,1.21-0.33,1.51-0.86c0.47-0.82,0.99-1.6,1.46-2.42c0.48-0.85,0.73-1.76,0.91-2.71
		c0.45-2.26,0.44-4.59,0.33-6.87c-0.23-4.62-0.83-9.23-1.69-13.77c-0.89-4.67-2-9.32-3.28-13.89c-0.61-2.21-1.29-4.41-1.99-6.59
		c-0.37-1.16-0.73-2.33-1.12-3.49c1.58,2.59,3.16,5.19,4.74,7.79c3.82,6.28,7.67,12.55,11.51,18.82c0.68,1.11,1.36,2.22,2.05,3.33
		c0.1,0.17,0.23,0.3,0.39,0.41c0.08,0.51,0.16,1.02,0.24,1.53c0.42,3.42,0.56,6.87,0.18,10.3c-0.4,2.52-1.05,4.98-1.99,7.34
		c-0.63,1.4-1.37,2.74-2.26,3.99c-0.67,0.8-1.4,1.52-2.21,2.19c-1.2,0.86-2.46,1.59-3.81,2.2c-1.1,0.43-2.22,0.76-3.39,0.97
		c-1.45,0.14-2.89,0.1-4.33-0.06c-2.28-0.37-4.49-0.98-6.64-1.83c-2.4-1.07-4.65-2.4-6.76-3.97c-1.75-1.4-3.33-2.94-4.74-4.69
		c-2.01-2.7-3.6-5.66-4.95-8.75c-0.87-2.11-1.62-4.25-2.23-6.46c-0.53-1.91-0.94-3.86-1.26-5.82c0.67,0.82,1.35,1.64,2.02,2.46
		c1.97,2.42,3.94,4.84,6.37,6.81c0.28,0.22,0.57,0.44,0.85,0.66c0.65,0.38,1.36,0.57,2.11,0.57c1.11,0,2.18-0.45,2.96-1.23
		c0.78-0.78,1.23-1.85,1.23-2.96c0-1.05-0.42-2.26-1.23-2.96c-1.6-1.4-2.92-3.02-4.28-4.64c-1.39-1.83-2.79-3.65-4.2-5.47
		c-0.61-0.8-1.19-1.62-1.71-2.49c-0.59-0.98-1.12-2.02-1.59-3.07c-0.25-0.67-0.45-1.34-0.6-2.04c-0.02-0.49-0.01-0.97,0.02-1.45
		c0.22-1.14,0.54-2.25,0.94-3.34c0.66-1.42,1.47-2.75,2.39-4.02c1.34-1.68,2.79-3.27,4.44-4.65c1.14-0.8,2.34-1.45,3.6-2.03
		C21.88,257.83,23.23,257.42,24.62,257.15L24.62,257.15L24.62,257.15z M27.25,265.02c-0.02-1.89,0.02-3.77,0.08-5.66
		c0.01-0.48,0.03-0.96,0.04-1.43c0.38,1,0.75,1.99,1.13,2.98c0.69,1.84,1.27,3.73,1.87,5.6c0.89,2.73,1.72,5.48,2.47,8.25
		c1.45,5.39,2.72,10.86,3.52,16.38c0.28,2.13,0.49,4.26,0.67,6.4c0.18,2.2,0.24,4.41-0.01,6.61c-0.11,0.7-0.25,1.39-0.49,2.06
		c-0.08,0.16-0.16,0.31-0.24,0.46c-0.18-0.29-0.34-0.6-0.48-0.91c-0.48-1.27-0.82-2.58-1.24-3.87c-0.17-0.52-0.35-1.04-0.52-1.56
		c-0.55-1.65-1.09-3.29-1.64-4.93c-2.02-6.07-3.45-12.32-4.33-18.66C27.56,272.85,27.3,268.95,27.25,265.02L27.25,265.02
		L27.25,265.02z M40.44,268.65c-1.53-2.52-3.05-5.03-4.58-7.55c0.13,0.09,0.25,0.18,0.37,0.27c1.87,1.54,3.53,3.29,5.05,5.18
		c2.49,3.32,4.55,6.91,6.22,10.71c0.88,2.16,1.62,4.36,2.25,6.59C46.63,278.78,43.53,273.72,40.44,268.65L40.44,268.65L40.44,268.65
		z M12.09,265.56c-0.05,0.07-0.11,0.14-0.16,0.21C11.99,265.69,12.04,265.62,12.09,265.56L12.09,265.56L12.09,265.56z"/>
	<path class="st0" d="M292.02,209.6c-2.11,0.72-3.97,2.02-5.56,3.57c-1.72,1.68-2.71,3.84-3.53,6.07c-0.32,0.87-0.58,1.76-0.83,2.66
		c-0.3,1.12-0.41,2.3-0.56,3.44c-0.17,1.23-0.3,2.47-0.42,3.71c-0.08,0.79-0.16,1.59-0.24,2.38c-0.16,1.68-0.09,3.36,0.12,5.02
		c-0.56,3.5-0.84,7.03-0.87,10.59c-0.03,4.41,0.33,8.84,1.27,13.16c0.41,1.88,0.87,3.76,1.57,5.56c0.35,0.91,0.78,1.77,1.3,2.6
		c0.6,0.95,1.36,1.82,2.14,2.65c2.79,2.98,6.53,4.9,10.45,5.93c3.9,1.03,8.04,0.99,11.95,0.06c3.93-0.93,7.33-3.43,9.87-6.5
		c0.66-0.8,1.26-1.64,1.82-2.51c0.54-0.86,0.94-1.8,1.33-2.73c0.77-1.87,1.27-3.82,1.6-5.82c0.33-2,0.51-4.02,0.58-6.05
		c0.07-2.14-0.09-4.25-0.38-6.37c-0.58-4.3-1.76-8.53-3.18-12.63c-1.47-4.24-3.47-8.34-5.83-12.16c-1.16-1.86-2.5-3.63-3.94-5.28
		c-1.57-1.78-3.48-3.27-5.43-4.59c-1.78-1.2-3.79-2.21-5.87-2.77c-1.13-0.3-2.34-0.42-3.5-0.5c-0.21-0.02-0.42-0.02-0.64-0.02
		C294.16,209.06,293.03,209.26,292.02,209.6L292.02,209.6L292.02,209.6z M296.45,217.43c0.75,0.14,1.47,0.32,2.19,0.58
		c1.52,0.71,2.95,1.59,4.31,2.57c1.52,1.24,2.85,2.64,4.08,4.17c2.44,3.3,4.44,6.92,6.08,10.68c0.91,2.23,1.67,4.52,2.36,6.82
		c0.7,2.32,1.27,4.68,1.63,7.07c0.35,3.07,0.32,6.19-0.05,9.26c-0.27,1.74-0.68,3.44-1.31,5.09c-0.52,1.14-1.15,2.2-1.89,3.21
		c-0.84,1.03-1.76,1.97-2.79,2.82c-0.77,0.56-1.56,1.04-2.42,1.44c-1.33,0.51-2.69,0.85-4.09,1.07c-1.63,0.18-3.24,0.19-4.87,0.01
		c-1.76-0.27-3.47-0.73-5.13-1.38c-1.26-0.58-2.43-1.28-3.55-2.1c-0.97-0.8-1.86-1.67-2.66-2.64c-0.51-0.72-0.93-1.46-1.3-2.26
		c-1.22-3.08-1.96-6.36-2.44-9.63c-0.58-4.54-0.67-9.14-0.3-13.69c0.14,0.02,0.28,0.02,0.42,0.02c0.96,0,1.89-0.39,2.57-1.07
		c0.62-0.62,1.16-1.66,1.06-2.57c-0.17-1.64-0.08-3.26,0.09-4.9c0.16-1.03,0.32-2.07,0.47-3.1c0.18-1.15,0.36-2.31,0.58-3.45
		c0.26-1.37,0.73-2.7,1.24-4c0.25-0.55,0.53-1.08,0.85-1.59c0.21,0.11,0.41,0.23,0.62,0.36c0.05,0.05,0.1,0.1,0.15,0.16
		c0.16,0.24,0.29,0.47,0.42,0.72c0.42,1.12,0.68,2.3,1.04,3.44c0.12,0.38,0.24,0.76,0.35,1.14c0.51,1.67,1.03,3.33,1.55,5
		c0.54,1.75,1.05,3.49,1.55,5.25c2.07,7.33,4.13,14.66,6.17,21.99c0.22,0.78,1.06,1.26,1.84,1.05c0.79-0.22,1.27-1.06,1.05-1.84
		c-2.28-8.24-4.59-16.48-6.91-24.71c-0.82-2.91-1.75-5.8-2.62-8.69c-0.21-0.69-0.38-1.39-0.56-2.09c-0.2-0.82-0.48-1.59-0.83-2.36
		c-0.28-0.61-0.71-1.14-1.23-1.58c0.04-0.02,0.09-0.05,0.13-0.07c0.23-0.08,0.46-0.14,0.7-0.2
		C295.49,217.38,295.97,217.39,296.45,217.43L296.45,217.43L296.45,217.43z M292.01,220.02c0.03,0.02,0.07,0.05,0.1,0.08
		C292.07,220.07,292.04,220.04,292.01,220.02L292.01,220.02L292.01,220.02z"/>
</g>
<g>
	<path class="st0" d="M811.89,85.04c-11.82,0.2-23.63,1.19-35.3,3.04c-11.53,1.83-22.94,4.63-34.05,8.21
		c-10.84,3.48-21.36,7.93-31.49,13.11c-9.95,5.08-19.4,11.04-28.24,17.88c-8.69,6.72-16.86,14.12-23.94,22.54
		c-7.09,8.44-12.84,17.97-17.49,27.95c-1.27,2.71-2.44,5.47-3.52,8.25c-2.9,5.51-5.45,11.2-7.66,17.04
		c-4.03,10.62-6.71,21.68-8.17,32.93c-1.42,10.94-1.3,22.1,0.12,33.03c0.72,5.59,1.78,11.11,3.28,16.55
		c1.45,5.25,3.41,10.35,5.65,15.31c4.51,10.01,10.59,19.27,17.57,27.72c3.2,3.88,6.68,7.49,10.36,10.89
		c6.25,8.9,13.35,17.21,21.09,24.84c7.81,7.71,16.43,14.58,25.47,20.78c18.65,12.8,39.35,22.39,60.98,28.94
		c22.36,6.77,45.77,9.91,69.1,10.09c11.78,0.09,23.55-0.71,35.19-2.48c11.28-1.71,22.42-4.45,33.23-8.11
		c10.58-3.58,20.78-8.22,30.46-13.78c9.49-5.46,18.43-11.98,26.23-19.68c7.76-7.66,14.45-16.5,19.91-25.93
		c5.55-9.6,9.58-20.09,12.28-30.83c2.78-11.04,3.9-22.44,3.55-33.82c-0.18-5.9-0.82-11.77-1.72-17.6c-0.86-5.61-2.11-11.15-3.7-16.6
		c-3.23-11.06-7.9-21.71-13.23-31.9c-5.19-9.95-11.34-19.37-18.19-28.26c-0.58-0.75-1.16-1.49-1.74-2.23
		c0.59-1.29,1.12-2.61,1.59-3.95c0.95-2.72,1.61-5.56,2.16-8.39c0.5-2.56,0.8-5.18,0.94-7.78c0.15-2.73-0.05-5.46-0.43-8.16
		c-0.75-5.31-2.21-10.47-4.22-15.44c-1.96-4.84-4.48-9.39-7.52-13.64c-3.09-4.32-6.67-8.28-10.5-11.96
		c-3.83-3.68-7.97-7.03-12.33-10.06c-4.54-3.15-9.35-5.89-14.27-8.38c-4.89-2.47-9.92-4.68-15.03-6.65
		c-5.39-2.07-10.92-3.77-16.49-5.25c-11.22-2.99-22.72-5.07-34.25-6.47c-10.18-1.24-20.44-1.8-30.7-1.8
		C815.19,84.99,813.54,85.01,811.89,85.04L811.89,85.04L811.89,85.04z M816.86,88.73c11.45-0.02,22.89,0.73,34.24,2.24
		c-0.11-0.01-0.23-0.03-0.34-0.05c8.74,1.19,17.43,2.82,26.01,4.87c8.72,2.09,17.28,4.79,25.55,8.26c-0.14-0.06-0.29-0.12-0.43-0.18
		c9.87,4.19,19.45,9.18,28,15.7c6.1,4.76,11.71,10.17,16.48,16.26c1.65,2.16,3.18,4.4,4.57,6.74c1.4,2.35,2.59,4.82,3.68,7.34
		c-0.06-0.13-0.11-0.27-0.17-0.4c2.14,5.1,3.69,10.4,4.5,15.86c0.23,1.81,0.38,3.62,0.4,5.45c0.02,2.15-0.17,4.3-0.45,6.43
		c-0.64,4.36-1.66,8.73-3.29,12.83c-6.95-8.49-14.55-16.46-22.74-23.77c-5.86-8.31-12.44-16.14-19.67-23.29
		c-7.92-7.84-16.8-14.72-26.18-20.72c-9.51-6.09-19.67-11.11-30.24-15.07c-10.72-4.02-21.91-6.78-33.21-8.59
		c-23.26-3.72-47.21-3.2-70.24,1.85c-11.19,2.45-22.11,6.04-32.65,10.53c-10.17,4.33-19.85,9.64-29,15.84
		c-9.2,6.22-17.86,13.31-25.69,21.18c-3.57,3.58-6.96,7.34-10.18,11.26c0.88-1.26,1.79-2.49,2.73-3.72
		c7.49-9.6,16.49-17.89,26.1-25.33c6.32-4.84,12.92-9.25,19.82-13.22c7.14-4.09,14.55-7.69,22.13-10.92
		c18.05-7.6,37.22-12.63,56.62-15.26c-0.04,0-0.07,0.01-0.11,0.01C794.29,89.39,805.57,88.75,816.86,88.73L816.86,88.73
		L816.86,88.73z M816.8,107.49c14.55,2.04,28.86,5.72,42.44,11.35c12.2,5.24,23.69,12.05,34.24,20.1
		c-4.23-2.19-8.53-4.23-12.88-6.14c-10.65-4.65-21.64-8.45-32.9-11.33c-11.36-2.92-23.02-4.84-34.73-5.57
		c-11.68-0.73-23.43-0.19-35.02,1.34c-11.52,1.53-22.84,4.08-33.87,7.76c-10.79,3.6-21.2,8.33-30.99,14.12
		c-9.6,5.68-18.61,12.48-26.6,20.26c-3.93,3.83-7.58,7.94-10.95,12.27c-3.42,4.39-6.54,9-9.23,13.88
		c-2.71,4.94-4.96,10.14-6.92,15.42c-1.95,5.23-3.51,10.61-4.78,16.04c-1.31,5.62-2.23,11.32-2.93,17.05
		c-0.71,5.81-1.05,11.65-1.06,17.5c-0.03,22.49,6.05,45.24,18.24,64.22c2.99,4.65,6.36,9.06,9.92,13.28
		c3.48,4.12,7.25,7.99,11.22,11.65c8.14,7.5,17.36,13.83,27.04,19.17c9.85,5.43,20.31,9.67,31.1,12.84
		c11.09,3.26,22.5,5.47,33.96,6.96c11.81,1.54,23.75,2.03,35.65,1.64c11.77-0.39,23.55-1.68,35.11-3.94
		c11.18-2.19,22.18-5.5,32.73-9.8c5.34-2.18,10.57-4.63,15.61-7.44c4.74-2.64,9.29-5.64,13.66-8.84c4.51-3.3,8.82-6.86,12.87-10.71
		c4.01-3.81,7.64-7.98,11-12.38c6.77-8.87,12.17-18.67,16.18-29.09c4.09-10.62,6.22-21.95,7.2-33.26
		c0.99-11.52,0.23-23.07-1.66-34.46c-1.66-9.98-4.42-19.73-8.1-29.13c0.36-0.48,0.71-0.97,1.05-1.47c0.13,0.16,0.25,0.32,0.38,0.49
		c9.89,12.94,18.2,27.06,24.62,42.04c2.36,5.66,4.42,11.43,6.08,17.33c1.63,5.79,2.79,11.73,3.63,17.68
		c1.37,10.73,1.55,21.58,0.19,32.32c-1.48,10.46-4.27,20.71-8.34,30.45c-3.83,8.83-8.78,17.09-14.61,24.73
		c-2.88,3.69-5.96,7.22-9.24,10.56c-3.37,3.43-6.99,6.58-10.78,9.53c-10.27,7.84-21.63,14.24-33.51,19.29
		c-15.14,6.3-31.14,10.53-47.39,12.76c-20.9,2.73-42.2,2.44-63.08-0.34c-10.09-1.39-20.08-3.39-29.91-6.07
		c-9.58-2.61-18.97-5.9-28.13-9.74c-16.39-6.97-31.9-15.94-46.02-26.8c-5.91-4.59-11.53-9.52-16.81-14.82
		c-3.71-3.72-7.24-7.62-10.6-11.66c0.85,0.64,1.71,1.27,2.57,1.89c4.41,3.19,9,6.12,13.68,8.87c4.68,2.74,9.48,5.3,14.4,7.57
		c10.3,4.75,21.13,8.2,32.06,11.19c11.18,3.06,22.46,5.85,33.91,7.76c5.97,0.99,11.98,1.77,18,2.42c5.94,0.64,11.88,1,17.84,1.13
		c2.87,0.06,5.73,0.08,8.6,0.09c1.56,0.01,3.11,0.04,4.67,0.01c1.98-0.04,3.96-0.09,5.94-0.13c5.2-0.11,10.39-0.23,15.58-0.34
		c4.93-0.11,9.86-0.24,14.79-0.37c5.32-0.13,10.65-0.26,15.96-0.58c0.98-0.06,1.84-0.35,2.54-1.05c0.67-0.67,1.06-1.59,1.06-2.54
		c0-1.87-1.64-3.72-3.6-3.6c-4.67,0.28-9.36,0.39-14.04,0.53c-4.15,0.12-8.31,0.22-12.46,0.33c-8.41,0.21-16.83,0.39-25.25,0.58
		c-1.49,0.03-2.98,0.01-4.47,0.01c-4.06-0.01-8.13-0.04-12.19-0.15c-7.84-0.22-15.63-1.01-23.4-2.03
		c-6.12-0.83-12.22-1.84-18.27-3.1c-5.85-1.22-11.65-2.71-17.44-4.19c-11.22-2.88-22.36-6.13-33.07-10.58
		c-6.27-2.69-12.31-5.86-18.2-9.31c-5.79-3.4-11.38-7.13-16.71-11.21c-3.87-3.01-7.57-6.21-11.08-9.63
		c-3.59-3.51-6.88-7.29-9.97-11.25c-0.3-0.4-0.6-0.8-0.9-1.2c-2.21-4.2-4.22-8.5-6.08-12.86c-2.84-6.78-5.25-13.72-7.24-20.8
		c-2.03-7.22-3.5-14.58-4.52-22.01c0,0,0,0.01,0,0.01c0-0.01,0-0.01,0-0.02c-0.02-0.13-0.04-0.26-0.05-0.39
		c0.01,0.06,0.02,0.12,0.03,0.19c-1.78-13.75-1.91-27.65-0.34-41.42c1.79-7.13,4.13-14.12,6.96-20.91
		c4.84-11.25,11.17-21.73,18.6-31.45c4.12-5.28,8.54-10.32,13.26-15.08c4.76-4.81,9.88-9.27,15.21-13.44
		c11.45-8.77,23.92-16.14,37.17-21.83c14.35-5.98,29.44-10.13,44.84-12.27C784.37,105.33,800.7,105.4,816.8,107.49L816.8,107.49
		L816.8,107.49z M726.99,105.92c-0.13,0.06-0.25,0.11-0.37,0.16C726.74,106.03,726.86,105.98,726.99,105.92L726.99,105.92
		L726.99,105.92z M823.7,125.73c17.51,2.43,34.67,7.32,50.98,14.12c7.61,3.24,15.03,6.92,22.2,11.06
		c6.96,4.01,13.64,8.51,20.02,13.4c1.97,1.53,3.9,3.1,5.81,4.7c7.83,10.62,14.51,22.08,19.71,34.21c0.49,1.17,0.96,2.35,1.41,3.54
		c-0.42,0.62-0.32,1.52,0.21,2.05c0.21,0.21,0.45,0.34,0.71,0.41c3.49,9.61,5.97,19.57,7.41,29.71c0.72,5.61,1.12,11.24,1.14,16.9
		c0.02,5.62-0.36,11.25-1.07,16.83c-1.34,9.49-3.7,18.79-7.35,27.66c-3.69,8.55-8.42,16.63-14.07,24.04
		c-5.57,7.06-12.04,13.28-19.12,18.8c-4.15,3.16-8.48,6.08-12.96,8.76c-4.86,2.91-9.97,5.4-15.17,7.64
		c-7.16,2.99-14.52,5.46-22,7.51c-7.66,2.1-15.48,3.59-23.35,4.68c-19.17,2.49-38.63,2.53-57.79,0.02
		c-7.98-1.11-15.89-2.65-23.7-4.6c-7.82-1.94-15.52-4.4-22.96-7.48c-11.05-4.74-21.57-10.8-31.14-18.09
		c-8.19-6.4-15.54-13.8-21.94-21.98c-2.67-3.5-5.15-7.13-7.41-10.91c-2.35-3.91-4.38-8.01-6.18-12.2
		c-3.84-9.3-6.51-19.06-7.92-29.03c-1.46-11.6-1.19-23.35,0.32-34.94c1.64-11.57,4.55-22.93,9.04-33.73c1.63-3.77,3.44-7.45,5.49-11
		c2.1-3.64,4.5-7.11,7.05-10.46c6.21-7.89,13.39-14.94,21.29-21.12c9.88-7.54,20.7-13.77,32.12-18.67
		c13.85-5.75,28.42-9.59,43.26-11.66C793,123.93,808.44,123.79,823.7,125.73L823.7,125.73L823.7,125.73z M892.91,138.5
		c0.09,0.07,0.17,0.13,0.26,0.2C893.08,138.64,892.99,138.57,892.91,138.5L892.91,138.5L892.91,138.5z M657.65,170.18
		c-0.1,0.13-0.2,0.26-0.31,0.4C657.44,170.44,657.55,170.31,657.65,170.18L657.65,170.18L657.65,170.18z M681.36,176.99
		c-0.07,0.09-0.13,0.17-0.2,0.26C681.23,177.16,681.3,177.07,681.36,176.99L681.36,176.99L681.36,176.99z M681.04,177.41
		c-0.1,0.13-0.2,0.25-0.3,0.38C680.84,177.66,680.94,177.54,681.04,177.41L681.04,177.41L681.04,177.41z M949.98,196.52
		c0.44,0.53,0.87,1.06,1.3,1.59c-0.12,0.19-0.25,0.38-0.38,0.57C950.6,197.96,950.29,197.24,949.98,196.52L949.98,196.52
		L949.98,196.52z M668.37,199.2c-0.06,0.13-0.11,0.27-0.17,0.4C668.26,199.46,668.32,199.33,668.37,199.2L668.37,199.2L668.37,199.2
		z M632.55,219.75c-0.01,0.05-0.01,0.1-0.02,0.14c0-0.03,0.01-0.07,0.01-0.1C632.55,219.78,632.55,219.76,632.55,219.75
		L632.55,219.75L632.55,219.75z M659.58,231.96c-0.02,0.12-0.03,0.24-0.05,0.37C659.54,232.21,659.56,232.09,659.58,231.96
		L659.58,231.96L659.58,231.96z M978.42,243.33c0.12,0.28,0.24,0.56,0.36,0.85C978.66,243.9,978.54,243.62,978.42,243.33
		L978.42,243.33L978.42,243.33z M628.4,253.13c0.58,8.44,1.81,16.83,3.61,25.08c1.58,7.23,3.69,14.34,6.21,21.3
		c-0.68-1.42-1.33-2.85-1.95-4.3c-1.63-3.97-3.01-8.02-4.13-12.17c-1.18-4.39-2.03-8.88-2.67-13.38
		C628.77,264.17,628.41,258.65,628.4,253.13L628.4,253.13L628.4,253.13z M988.04,277.72c0.02,0.15,0.04,0.3,0.06,0.45
		C988.08,278.02,988.06,277.87,988.04,277.72L988.04,277.72L988.04,277.72z M988.14,278.46c0.01,0.09,0.02,0.17,0.04,0.26
		C988.16,278.63,988.15,278.54,988.14,278.46L988.14,278.46L988.14,278.46z M666.82,295.88c0.07,0.16,0.14,0.32,0.2,0.48
		C666.96,296.2,666.89,296.04,666.82,295.88L666.82,295.88L666.82,295.88z M732.95,359.35c0.12,0.05,0.24,0.1,0.36,0.15
		C733.19,359.45,733.07,359.4,732.95,359.35L732.95,359.35L732.95,359.35z M779.98,371.71c0.11,0.01,0.22,0.03,0.33,0.04
		C780.2,371.74,780.09,371.72,779.98,371.71L779.98,371.71L779.98,371.71z M780.63,371.8c0.12,0.02,0.25,0.03,0.37,0.05
		C780.87,371.83,780.75,371.81,780.63,371.8L780.63,371.8L780.63,371.8z M945.27,385.97c-0.12,0.1-0.25,0.19-0.37,0.29
		C945.02,386.17,945.15,386.07,945.27,385.97L945.27,385.97L945.27,385.97z M632.6,263.98C632.6,263.98,632.6,263.98,632.6,263.98
		c-0.01-0.06-0.02-0.13-0.03-0.2C632.58,263.85,632.59,263.91,632.6,263.98L632.6,263.98L632.6,263.98z"/>
	<path class="st0" d="M621.31,215.53c-2.61,0.37-5.03,1.18-7.42,2.31c-2.19,1.04-4.27,2.4-6.16,3.9c-2.03,1.62-3.79,3.48-5.44,5.48
		c-0.75,0.91-1.44,1.84-2.05,2.84c-0.58,0.96-0.95,2.04-1.23,3.12c-0.54,2.07-0.56,4.29-0.04,6.36c-1.05,1.45-2.04,2.95-2.95,4.48
		c-1.2,2.02-2.22,4.16-3.16,6.32c-1.1,2.5-2.05,5.06-2.65,7.73c-0.52,2.31-0.73,4.71-0.52,7.07c0.22,2.43,0.77,4.79,1.61,7.08
		c0.78,2.13,1.77,4.18,3.04,6.07c0.65,0.96,1.39,1.87,2.17,2.72c0.9,0.98,1.98,1.78,3.04,2.59c1.65,1.26,3.54,2.21,5.44,3.04
		c2.29,1,4.64,1.82,7.06,2.47c2.42,0.64,4.89,1.03,7.38,1.21c2.71,0.2,5.44,0.02,8.14-0.22c2.49-0.22,4.97-0.52,7.45-0.85
		c2.93-0.39,5.83-0.89,8.7-1.61c2.25-0.56,4.44-1.31,6.63-2.07c1.25-0.43,2.46-0.95,3.67-1.47c1.35-0.59,2.53-1.4,3.67-2.33
		c1.01-0.82,1.77-1.8,2.55-2.83c0.64-0.85,1.19-1.73,1.68-2.68c1.34-2.59,2.1-5.34,2.2-8.26c0.05-1.43-0.22-2.89-0.44-4.29
		c-0.21-1.37-0.63-2.7-1.08-4c-0.98-2.87-2.28-5.63-3.99-8.13c-1.74-2.55-3.81-4.88-5.99-7.05c-1.17-1.17-2.51-2.16-3.82-3.16
		c-1.11-0.86-2.29-1.63-3.47-2.39c-0.75-0.49-1.51-0.95-2.28-1.39c0.53-0.72,1.07-1.44,1.58-2.18c0.66-0.96,1.2-2.01,1.72-3.05
		c0.58-1.15,1.02-2.41,1.07-3.7c0.05-1.08-0.09-2.15-0.31-3.22c-0.27-1.32-1.01-2.44-1.88-3.45c-0.71-0.82-1.71-1.47-2.64-2.04
		c-0.99-0.61-2.12-1.03-3.22-1.41c-2.19-0.77-4.63-0.82-6.93-0.58c-1.31-0.88-2.75-1.56-4.24-2.09c-1.23-0.44-2.56-0.6-3.89-0.6
		C623.29,215.29,622.28,215.39,621.31,215.53L621.31,215.53L621.31,215.53z M625.8,219.25c0.12,0.02,0.24,0.04,0.35,0.07
		c-2.98,0.92-5.86,2.2-8.58,3.67c-4.42,2.39-8.47,5.57-12.08,9.04c-0.83,0.8-1.63,1.63-2.41,2.48c0.11-0.53,0.25-1.04,0.43-1.56
		c0.43-0.91,0.97-1.74,1.57-2.55c1.7-2.15,3.55-4.15,5.69-5.86c2.06-1.52,4.23-2.85,6.57-3.88c1.59-0.61,3.21-1.05,4.89-1.33
		C623.42,219.19,624.59,219.15,625.8,219.25L625.8,219.25L625.8,219.25z M634.18,224.71c1.02,1.5,1.88,3.11,2.62,4.77
		c0.6,1.46,1.12,2.96,1.55,4.48c-0.2,0.3-0.4,0.59-0.6,0.89c-1.19-0.56-2.39-1.1-3.6-1.62c-1.3-0.56-2.6-1.14-3.91-1.68
		c-1.32-0.54-2.72-0.95-4.12-1.25c-0.76-0.16-1.58-0.28-2.34-0.34c-0.77-0.07-1.52-0.02-2.29,0.01c-1.74,0.07-3.28,1.13-3.75,2.86
		c-0.28,1.01-0.13,2.1,0.39,3c0.46,0.77,1.39,1.66,2.33,1.79c1.06,0.14,2.03,0.39,3.02,0.76c2.54,1.16,4.93,2.62,7.36,4.02
		c0.31,0.18,0.63,0.36,0.94,0.54c-1.01,1.07-2.09,2.07-3.22,3c-1.33,0.98-2.74,1.79-4.26,2.46c-1.26,0.48-2.54,0.85-3.87,1.08
		c-1.21,0.12-2.4,0.12-3.61,0.01c-1.11-0.2-2.16-0.52-3.21-0.93c-1.92-0.89-3.75-1.95-5.44-3.22c-0.93-0.77-1.76-1.61-2.53-2.52
		c0.16-0.22,0.33-0.44,0.49-0.66c2.78-3.5,5.92-6.64,9.42-9.42c2.94-2.2,6.06-4.11,9.41-5.59c2.57-1.05,5.19-1.92,7.92-2.37
		C633.32,224.75,633.75,224.72,634.18,224.71L634.18,224.71L634.18,224.71z M638.47,225.39c0.02,0.01,0.03,0.01,0.05,0.02
		c0.56,0.27,1.1,0.57,1.61,0.92c0.16,0.14,0.32,0.29,0.47,0.45c0.05,0.08,0.1,0.17,0.14,0.25c0.09,0.28,0.16,0.56,0.22,0.84
		c0.02,0.29,0.03,0.58,0.02,0.87c-0.09,0.37-0.2,0.72-0.33,1.08c-0.06,0.14-0.12,0.28-0.19,0.42
		C639.92,228.58,639.24,226.95,638.47,225.39L638.47,225.39L638.47,225.39z M622.57,254.19c2.28-0.35,4.49-1.29,6.53-2.33
		c2.27-1.16,4.27-2.85,6.1-4.6c0.49-0.47,0.97-0.95,1.43-1.44c1.09,0.69,2.16,1.42,3.21,2.18c-0.06,0.23-0.14,0.46-0.22,0.69
		c-0.38,0.75-0.8,1.47-1.29,2.15c-1.68,2.02-3.78,3.62-5.84,5.23c0.09-0.07,0.17-0.13,0.26-0.2c-0.26,0.2-0.52,0.4-0.77,0.6
		c-0.55,0.43-0.85,1.09-0.46,1.75c0.32,0.55,1.19,0.88,1.75,0.46c2.17-1.67,4.45-3.31,6.34-5.3c1.02-1.07,1.91-2.31,2.5-3.66
		c2.28,1.9,4.34,4.05,6.2,6.37c0.62,0.84,1.2,1.71,1.74,2.61c0.56,0.93,1.03,1.91,1.46,2.9c0.65,1.66,1.19,3.35,1.52,5.1
		c0.06,0.72,0.07,1.43,0.02,2.16c-0.15,0.74-0.36,1.47-0.62,2.19c-0.38,0.79-0.81,1.55-1.31,2.27c-0.28,0.32-0.58,0.62-0.89,0.9
		c-0.95,0.63-1.97,1.15-3.02,1.62c-3.01,1.23-6.06,2.29-9.21,3.1c-3.4,0.87-6.87,1.4-10.34,1.88c-3.59,0.46-7.19,0.73-10.8,0.36
		c-3.08-0.5-6.12-1.34-9.02-2.49c-1.56-0.7-3.05-1.51-4.44-2.5c-0.76-0.64-1.45-1.33-2.09-2.09c-0.96-1.34-1.76-2.77-2.44-4.27
		c-0.64-1.66-1.13-3.36-1.43-5.12c-0.12-1.26-0.1-2.51,0.03-3.77c0.46-2.7,1.31-5.28,2.34-7.82c0.79-1.81,1.63-3.59,2.6-5.31
		c0.22-0.39,0.44-0.77,0.67-1.15c1.5,1.74,3.37,3.12,5.3,4.34c1.97,1.26,4.09,2.32,6.33,2.98c1.15,0.34,2.39,0.45,3.58,0.53
		c0.29,0.02,0.57,0.03,0.85,0.03C620.3,254.51,621.44,254.36,622.57,254.19L622.57,254.19L622.57,254.19z M598.6,269.14
		c0.03,0.07,0.06,0.14,0.09,0.21C598.66,269.28,598.63,269.21,598.6,269.14L598.6,269.14L598.6,269.14z"/>
	<path class="st0" d="M980.23,169.96c-2.27,0.41-4.46,1.19-6.58,2.1c-1.26,0.53-2.48,1.12-3.68,1.77c-1.74-0.32-3.49-0.56-5.24-0.79
		c-2.66-0.34-5.34-0.64-8.02-0.83c-2.55-0.18-5.1-0.21-7.65-0.2c-2.68,0.01-5.36,0.1-8.03,0.34c-2.83,0.25-5.59,0.8-8.33,1.51
		c-2.54,0.66-4.97,1.59-7.29,2.81c-2.07,1.1-2.68,3.93-1.54,5.89c0.56,0.96,1.49,1.68,2.57,1.98c0.38,0.05,0.76,0.1,1.14,0.15
		c0.76,0,1.47-0.19,2.13-0.56c2.58-1,5.38-1.47,8.11-1.87c4.36-0.52,8.78-0.37,13.15-0.26c2.6,0.07,5.19,0.25,7.78,0.5
		c-0.73,0.77-1.42,1.56-2.09,2.37c-3.04,3.69-5.19,7.96-7.35,12.2c-1.11,2.18-2.15,4.4-2.93,6.73c-0.81,2.41-1.11,5.03-1.2,7.56
		c-0.17,4.81,1.41,9.46,3.8,13.57c0.77,1.33,1.66,2.56,2.65,3.71c-0.45,0.14-0.82,0.48-0.96,0.98c-0.2,0.73,0.24,1.61,1.01,1.78
		c1.18,0.27,2.36,0.52,3.54,0.75c1.17,0.98,2.41,1.88,3.69,2.72c4.03,2.65,8.6,4.57,13.25,5.8c2.37,0.63,4.8,1,7.24,1.27
		c2.42,0.27,4.87,0.33,7.3,0.2c2.36-0.12,4.75-0.49,7.03-1.16c1.16-0.34,2.29-0.85,3.39-1.34c1.16-0.51,2.26-1.13,3.34-1.8
		c1.96-1.22,3.81-2.73,5.38-4.42c1.63-1.77,2.88-3.84,3.85-6.03c1.92-4.36,2.99-9.16,2.57-13.94c-0.44-5.02-2.11-9.79-4.39-14.26
		c-0.65-1.28-1.4-2.52-2.21-3.7c0.14-0.44,0.26-0.89,0.36-1.34c0.5-2.14,0.43-4.5,0.08-6.66c-0.4-2.4-1.27-4.55-2.6-6.58
		c-1.22-1.86-2.77-3.51-4.33-5.08c-1.63-1.64-3.4-3.17-5.4-4.34c-1.88-1.1-4.09-1.62-6.24-1.86c-0.81-0.09-1.62-0.13-2.43-0.13
		C983.47,169.49,981.85,169.66,980.23,169.96L980.23,169.96L980.23,169.96z M987.73,173.87c1.12,0.18,2.2,0.44,3.26,0.84
		c0.97,0.46,1.87,1.02,2.75,1.66c2.17,1.72,4.17,3.7,5.92,5.85c0.77,1.03,1.45,2.1,1.99,3.28c0.41,1.07,0.68,2.16,0.87,3.29
		c0.11,0.95,0.15,1.9,0.13,2.85c-1.14-1.28-2.35-2.49-3.61-3.64c-1.82-1.65-3.78-3.15-5.77-4.59c-1.98-1.43-4.07-2.66-6.26-3.75
		c-2.28-1.13-4.65-2.09-7.04-2.98c-1.09-0.4-2.18-0.78-3.29-1.13c1.97-0.75,3.99-1.33,6.08-1.66
		C984.41,173.71,986.06,173.7,987.73,173.87L987.73,173.87L987.73,173.87z M964.62,183.19c2.61,0.41,5.19,0.95,7.73,1.69
		c2.65,0.76,5.26,1.65,7.81,2.69c1.8,0.79,3.56,1.67,5.26,2.67c1.7,0.99,3.31,2.13,4.88,3.31c2.49,1.99,4.8,4.17,6.83,6.63
		c0.61,0.83,1.18,1.68,1.71,2.55c-0.43,0.85-0.88,1.69-1.36,2.52c-1.15,1.99-2.49,3.88-3.88,5.7c0.09-0.11,0.17-0.21,0.25-0.32
		c-1.3,1.67-2.68,3.27-4.16,4.79c-1.56,1.6-3.27,3.05-5.02,4.43c-3.73,2.83-7.75,5.22-12.04,7.09c0.05-0.02,0.1-0.04,0.14-0.06
		c-0.05,0.02-0.1,0.04-0.15,0.06c-0.07,0.03-0.13,0.06-0.2,0.09c0.06-0.03,0.12-0.06,0.19-0.08c-2.97,1.22-5.99,2.14-9.17,2.6
		c-0.28,0.03-0.57,0.06-0.85,0.09c-1.21-0.7-2.38-1.46-3.5-2.28c-1.46-1.18-2.79-2.46-3.97-3.91c-1.2-1.63-2.2-3.37-3.04-5.21
		c-0.59-1.47-1.04-2.96-1.31-4.52c-0.21-1.99-0.18-3.97,0.05-5.95c0.32-1.98,0.93-3.85,1.68-5.71c1.04-2.42,2.19-4.79,3.4-7.13
		c1.24-2.42,2.63-4.76,4.26-6.94C961.51,186.27,963.01,184.67,964.62,183.19L964.62,183.19L964.62,183.19z M980.73,187.79
		c0.1,0.04,0.2,0.08,0.29,0.12C980.92,187.87,980.82,187.83,980.73,187.79L980.73,187.79L980.73,187.79z M979.23,226.98
		c4.28-2.34,8.26-5.24,11.83-8.56c3.46-3.22,6.44-7.02,8.97-11.01c0.24-0.38,0.48-0.76,0.7-1.15c0.16,0.33,0.31,0.67,0.46,1.01
		c0.86,2.17,1.52,4.39,1.9,6.69c0.15,1.63,0.14,3.23-0.02,4.85c-0.32,1.88-0.81,3.71-1.49,5.5c-0.52,1.14-1.12,2.22-1.83,3.24
		c-0.91,1.09-1.92,2.06-3.02,2.97c-1.47,1.07-3.02,2-4.68,2.77c-1.69,0.64-3.42,1.06-5.2,1.33c-3.29,0.36-6.59,0.34-9.88-0.05
		c-3.4-0.51-6.72-1.38-9.92-2.66c-0.02-0.01-0.04-0.02-0.06-0.03C971.29,230.94,975.4,229.07,979.23,226.98L979.23,226.98
		L979.23,226.98z M984.49,219.98c-0.04,0.03-0.09,0.07-0.13,0.1C984.4,220.05,984.45,220.01,984.49,219.98L984.49,219.98
		L984.49,219.98z M959.29,227.53c0.07,0.05,0.13,0.1,0.2,0.15C959.42,227.63,959.35,227.58,959.29,227.53L959.29,227.53
		L959.29,227.53z M972.6,226.95c0,0,0.01,0,0.01,0c0,0,0.01,0,0.01,0C972.61,226.94,972.61,226.95,972.6,226.95L972.6,226.95
		L972.6,226.95z"/>
	<path class="st0" d="M809.98,389.56c-0.66,0.18-1.01,0.74-1.06,1.39c-0.15,1.86-0.26,3.74-0.2,5.61c0.03,0.89,0.07,1.78,0.11,2.67
		c-0.25,0.51-0.47,1.02-0.69,1.53c-0.98,2.32-2.01,4.62-3.02,6.93c-0.17,0.39-0.27,0.73-0.15,1.16c0.1,0.37,0.36,0.7,0.69,0.9
		c0.35,0.21,0.77,0.26,1.16,0.15c0.34-0.09,0.76-0.36,0.9-0.69c0.47-1.08,0.94-2.15,1.41-3.23c-0.03,0.92-0.06,1.83-0.09,2.74
		c-0.06,1.67-0.22,3.33-0.35,5c-0.28,3.74-0.74,7.46-1.19,11.18c-0.51,3.4-1.05,6.8-1.68,10.19c-0.61,3.32-1.4,6.62-2.13,9.91
		c-0.19,0.86-0.39,1.72-0.58,2.58c-0.2,0.9,0.26,1.83,1.19,2.09c0.87,0.24,1.88-0.28,2.09-1.18c0.88-3.7,1.77-7.4,2.61-11.11
		c0.21-0.91,0.35-1.84,0.53-2.76c0.13-0.7,0.24-1.39,0.36-2.09c0.31-1.84,0.6-3.69,0.87-5.54c0.41-2.8,0.7-5.62,0.97-8.44
		c0.12,0.26,0.25,0.51,0.45,0.73c0.33,0.34,0.71,0.53,1.17,0.62c0.58,0.12,1.28-0.05,1.56-0.63c0.23-0.47,0.44-0.94,0.57-1.45
		c0.15-0.56,0.21-1.13,0.29-1.71c0.08-0.61,0.11-1.22,0.15-1.83c0.05-0.75,0.07-1.51,0.09-2.26c0.06-1.76,0.12-3.51,0.18-5.26
		c0.07-2.26,0.08-4.54-0.14-6.78c-0.06-0.57-0.15-1.14-0.27-1.7c-0.12-0.54-0.33-1.04-0.56-1.55c-0.09-0.2-0.2-0.37-0.33-0.55
		c-0.17-0.22-0.4-0.52-0.67-0.64c-0.24-0.12-0.48-0.22-0.74-0.28c-0.41-0.1-0.78-0.04-1.19,0.01c-0.01,0-0.01,0-0.02,0.01
		c-0.02-0.53-0.07-1.05-0.1-1.58c-0.02-0.29-0.04-0.59-0.06-0.88c-0.03-0.38-0.05-0.76-0.1-1.15c-0.02-0.22-0.06-0.45-0.11-0.67
		c-0.05-0.27-0.21-0.54-0.33-0.79c-0.21-0.46-0.76-0.71-1.26-0.71C810.23,389.51,810.1,389.53,809.98,389.56L809.98,389.56
		L809.98,389.56z M813.46,397.96c-0.06,0.03-0.13,0.05-0.19,0.08C813.33,398.02,813.39,397.99,813.46,397.96L813.46,397.96
		L813.46,397.96z M812.77,398.08C812.77,398.08,812.77,398.08,812.77,398.08C812.77,398.08,812.77,398.08,812.77,398.08
		C812.77,398.08,812.77,398.08,812.77,398.08C812.77,398.08,812.77,398.08,812.77,398.08L812.77,398.08L812.77,398.08z
		 M812.89,398.41C812.89,398.41,812.89,398.42,812.89,398.41c0.18,0.5,0.3,1.01,0.38,1.52c0.36,2.94,0.25,5.93,0.17,8.89
		c-0.03,1.19-0.09,2.37-0.13,3.55c-0.03,0.68-0.05,1.35-0.1,2.02c-0.37-1.46-0.6-2.96-0.81-4.44c0.02-0.26,0.03-0.52,0.04-0.77
		c0.02-1.04,0.04-2.07,0.06-3.1c0.03-1.05,0.07-2.1,0.05-3.16c-0.03-1.25-0.06-2.51-0.09-3.76c0-0.07,0-0.14-0.01-0.21
		c0.04-0.05,0.07-0.11,0.11-0.16C812.67,398.66,812.78,398.53,812.89,398.41L812.89,398.41L812.89,398.41z M807.5,425.05
		c-0.01,0.07-0.02,0.14-0.03,0.21C807.48,425.19,807.49,425.12,807.5,425.05L807.5,425.05L807.5,425.05z"/>
	<path class="st0" d="M830.2,374.01c-0.57,0.16-0.99,0.6-1.16,1.16c-0.22,0.73-0.49,1.42-0.55,2.19c-0.06,0.72,0,1.42,0.08,2.13
		c0.2,1.62,0.47,3.23,0.82,4.83c0.28,1.29,0.59,2.57,0.9,3.85c0.34,1.41,0.68,2.83,1.02,4.24c0.55,2.28,1.23,4.54,1.93,6.77
		c0.95,3.02,2.14,5.96,3.38,8.88c1.24,2.91,2.62,5.76,4.22,8.51c1.57,2.7,3.35,5.28,5.25,7.75c1.87,2.45,3.85,4.84,6.02,7.02
		c2.64,2.66,5.52,5.1,8.44,7.45c0.43,0.35,1.02,0.43,1.45,0c0.37-0.37,0.43-1.1,0-1.45c-2.53-2.04-5-4.17-7.36-6.4
		c-2.38-2.26-4.51-4.78-6.52-7.37c0,0,0,0,0,0c-1.9-2.48-3.67-5.06-5.26-7.75c-1.62-2.72-2.96-5.6-4.2-8.52
		c0.03,0.09,0.07,0.18,0.11,0.26c-1.29-3.07-2.47-6.18-3.42-9.37c-0.48-1.62-0.91-3.25-1.32-4.88c-0.15-0.59-0.3-1.17-0.42-1.77
		c-0.66-3.2-1.39-6.39-1.85-9.63c-0.15-1.16-0.28-2.34-0.24-3.51c0.39,0.34,0.74,0.69,1.07,1.09c1.67,2.23,2.85,4.76,3.97,7.3
		c0.78,1.75,1.55,3.51,2.39,5.23c1,2.03,1.99,4.07,2.99,6.1c1.41,2.88,2.83,5.77,4.24,8.65c0.44,0.9,0.88,1.81,1.33,2.71
		c0.65,1.33,1.38,2.63,2.08,3.93c3.08,5.68,6.34,11.26,9.86,16.68c1.76,2.7,3.59,5.34,5.47,7.96c0.98,1.36,1.96,2.7,3,4.01
		c1.86,2.34,3.73,4.67,5.6,7.01c0.45,0.56,0.88,1.15,1.35,1.68c0.7,0.81,1.4,1.61,2.1,2.41c2.14,2.45,4.29,4.88,6.46,7.3
		c2.13,2.37,4.37,4.65,6.8,6.72c0.64,0.54,1.3,0.89,2.15,0.89c0.81,0,1.59-0.33,2.16-0.89c0.57-0.57,0.89-1.35,0.89-2.15
		c0-0.73-0.3-1.68-0.89-2.16c-0.68-0.54-1.35-1.08-2-1.66c-0.5-0.45-1.01-0.9-1.5-1.35c-0.89-0.79-1.71-1.66-2.56-2.5
		c-0.68-0.66-1.33-1.36-1.99-2.04c-0.76-0.79-1.53-1.56-2.28-2.36c-1.75-1.87-3.51-3.74-5.26-5.61c-1.31-1.4-2.52-2.92-3.77-4.38
		c-1.78-2.09-3.62-4.14-5.3-6.31c0.12,0.16,0.25,0.33,0.38,0.49c-3.95-5.11-7.68-10.37-11.11-15.84c-1.72-2.74-3.37-5.52-4.99-8.32
		c-1.01-1.75-2.06-3.5-2.97-5.3c-2.5-4.91-5-9.82-7.51-14.72c-0.93-1.84-1.89-3.66-2.77-5.53c-1.18-2.5-2.26-5.04-3.67-7.42
		c-0.7-1.18-1.5-2.35-2.44-3.36c-0.47-0.52-1.08-0.93-1.65-1.34c-0.55-0.4-1.13-0.76-1.67-1.17c-0.22-0.16-0.52-0.23-0.81-0.23
		C830.5,373.95,830.34,373.97,830.2,374.01L830.2,374.01L830.2,374.01z"/>
	<path class="st0" d="M790.05,34.4c-2.16,0.26-4.28,0.67-6.36,1.31c-3.84,1.19-7.41,3.23-10.6,5.66c-1.6,1.21-3.12,2.5-4.56,3.91
		c-1.53,1.5-2.87,3.16-4.16,4.87c-2.14,2.84-3.74,6.04-4.84,9.41c-1.46,2.32-2.58,4.82-3.61,7.35c-0.95,2.34-1.93,4.65-2.53,7.11
		c-0.96,3.95-1.18,8.12-0.52,12.13c0.32,1.93,0.96,3.76,1.74,5.54c0.83,1.89,2.01,3.57,3.38,5.11c1.28,1.44,2.85,2.64,4.45,3.71
		c1.74,1.16,3.66,2.02,5.6,2.79c7.82,3.08,16.74,3.48,24.91,1.68c1.89-0.41,3.67-1.14,5.43-1.94c1.85-0.84,3.61-1.9,5.3-3.03
		c1.58-1.05,3.1-2.21,4.6-3.39c0.71-0.55,1.38-1.15,2.01-1.78c0.81-0.8,1.51-1.72,2.2-2.62c1.14-1.48,2.15-3.04,3.03-4.69
		c0.99-1.86,1.73-3.85,2.35-5.86c0.56-1.82,0.96-3.7,1.26-5.58c0.34-2.15,0.55-4.32,0.58-6.5c0.02-2.01-0.17-4.03-0.44-6.02
		c-0.3-2.27-0.71-4.52-1.19-6.77c-0.39-1.84-0.85-3.67-1.42-5.47c-0.64-2.02-1.48-3.96-2.43-5.84c-0.83-1.65-1.78-3.22-2.94-4.65
		c-1.22-1.5-2.76-2.66-4.45-3.61c-1.62-0.91-3.41-1.57-5.2-2.08c-1.95-0.56-3.99-0.83-6.01-0.96c-0.53-0.03-1.07-0.05-1.6-0.05
		C792.7,34.14,791.37,34.24,790.05,34.4L790.05,34.4L790.05,34.4z M797.53,41.26c1.74,0.28,3.43,0.73,5.07,1.37
		c0.94,0.43,1.83,0.92,2.68,1.51c0.53,0.46,1.01,0.95,1.46,1.49c1.27,1.75,2.32,3.68,3.2,5.65c0.82,2.03,1.46,4.12,2,6.25
		c0.63,2.47,1.14,4.97,1.52,7.49c0.21,1.68,0.34,3.37,0.35,5.07c0.01,1.6-0.13,3.2-0.33,4.79c-0.45,3.01-1.19,5.97-2.33,8.79
		c-0.94,2.07-2.11,4-3.47,5.83c-0.68,0.86-1.4,1.67-2.2,2.42c-0.79,0.75-1.65,1.42-2.51,2.08c0.09-0.07,0.18-0.14,0.27-0.21
		c-2.75,2.12-5.61,4.04-8.79,5.46c-2.22,0.89-4.53,1.42-6.89,1.76c-3.5,0.43-7.03,0.51-10.54,0.08c-3.17-0.48-6.28-1.27-9.26-2.48
		c-1.79-0.79-3.48-1.76-5.05-2.93c-1.1-0.9-2.1-1.88-3-2.98c-0.84-1.14-1.53-2.36-2.11-3.65c-0.64-1.6-1.1-3.24-1.36-4.94
		c-0.25-2.29-0.2-4.57,0.08-6.85c0.24-1.57,0.57-3.11,1.05-4.63c0.25-0.79,0.54-1.57,0.84-2.34c0.09,0.79,0.23,1.57,0.4,2.34
		c0.43,1.89,1.27,3.72,2.16,5.43c0.99,1.89,2.29,3.62,3.64,5.27c2.44,2.98,5.71,5.27,9.12,7.01c1.76,0.9,3.62,1.66,5.5,2.29
		c2.13,0.71,4.35,1.08,6.57,1.31c2,0.2,4-0.04,5.97-0.35c2.1-0.34,4.13-1.1,6.02-2.07c0.93-0.48,1.75-1.16,2.56-1.81
		c0.66-0.54,1.23-1.18,1.78-1.83c1.36-1.62,2.54-3.38,3.42-5.3c0.68-1.48,1.23-2.99,1.5-4.6c0.16-0.97,0.27-1.91,0.21-2.89
		c-0.05-0.96-0.23-1.95-0.45-2.89c-0.39-1.68-1.08-3.35-1.89-4.86c-0.22-0.4-0.45-0.8-0.7-1.19c0-0.05-0.01-0.1-0.02-0.15
		c-0.32-1.87-0.64-3.74-0.96-5.61c-0.59-3.43-1.7-6.74-3.14-9.89c-1.42-3.1-3.84-5.98-7.04-7.3c-1.72-0.71-3.5-1.06-5.35-1.22
		c-0.01,0-0.02,0-0.03,0c1.1-0.29,2.21-0.51,3.34-0.69C793.06,41.05,795.29,41.02,797.53,41.26L797.53,41.26L797.53,41.26z
		 M789.08,44.85c1.15,0.18,2.26,0.48,3.35,0.9c0.65,0.3,1.24,0.65,1.81,1.07c0.81,0.66,1.52,1.38,2.17,2.19
		c0.94,1.31,1.65,2.72,2.28,4.2c-0.04-0.09-0.07-0.18-0.11-0.26c1.09,2.66,1.9,5.42,2.38,8.25c0.03,0.17,0.06,0.35,0.09,0.52
		c-0.16-0.25-0.33-0.5-0.51-0.74c-0.48-0.61-0.95-1.23-1.42-1.84c-0.45-0.59-0.89-1.14-1.37-1.69c-0.49-0.56-1.03-1.05-1.58-1.55
		c-0.75-0.69-1.63-1.11-2.66-1.11c-0.99,0-1.96,0.4-2.66,1.11c-1.45,1.45-1.46,3.88,0,5.32c0.56,0.56,1.08,1.12,1.57,1.73
		c0.67,0.91,1.31,1.86,1.9,2.82c0.46,0.76,0.93,1.52,1.39,2.27c0.75,1.22,1.54,2.43,2.16,3.71c0.36,0.97,0.65,1.96,0.84,2.97
		c0.03,0.44,0.04,0.87,0.01,1.31c-0.16,0.79-0.38,1.55-0.67,2.31c-0.61,1.29-1.34,2.52-2.17,3.69c-0.51,0.61-1.05,1.18-1.64,1.71
		c-0.59,0.4-1.21,0.74-1.85,1.05c-1.19,0.44-2.4,0.75-3.65,0.96c-1.35,0.12-2.68,0.11-4.03-0.02c-2.12-0.35-4.17-0.94-6.16-1.74
		c-2.07-0.92-4.04-2.02-5.87-3.36c-1.24-1.03-2.35-2.16-3.36-3.41c-1.07-1.45-2-2.98-2.76-4.61c-0.38-0.99-0.68-2-0.87-3.05
		c-0.11-1.31-0.08-2.61,0.06-3.92c0.35-2.16,0.93-4.27,1.74-6.31c0.95-2.09,2.15-4.04,3.52-5.89c1.89-2.36,4.03-4.47,6.39-6.36
		c0.36-0.17,0.72-0.33,1.09-0.49c2.05-0.83,4.15-1.44,6.33-1.76C786.24,44.68,787.65,44.69,789.08,44.85L789.08,44.85L789.08,44.85z
		 M778.75,46.48c-0.03,0.01-0.07,0.03-0.1,0.04C778.68,46.51,778.72,46.49,778.75,46.48L778.75,46.48L778.75,46.48z"/>
	<path class="st0" d="M874.81,525.7c-0.45,0.26-0.78,0.7-0.92,1.19c-0.02,0.18-0.05,0.36-0.07,0.53c0,0.36,0.09,0.7,0.27,1.01
		c0.6,1.35,1.23,2.67,1.92,3.97c0.6,1.13,1.25,2.24,1.9,3.35c1.92,3.29,4.19,6.39,5.74,9.88c0.14,0.38,0.26,0.77,0.34,1.17
		c0.02,0.31,0.03,0.62,0.01,0.93c-0.01,0.04-0.02,0.08-0.03,0.12c-0.27,0.09-0.55,0.15-0.84,0.21c-0.8,0.05-1.61-0.03-2.41-0.09
		c-0.46-0.03-0.93-0.06-1.39-0.09c-0.86-0.06-1.72-0.09-2.57-0.18c-1.82-0.19-3.63-0.38-5.45-0.57c-1.8-0.24-3.6-0.51-5.4-0.76
		c-0.71-0.1-1.43-0.2-2.14-0.3c-0.5-0.07-1.01-0.2-1.51-0.3c-2.34-0.48-4.69-0.95-7.04-1.42c-0.54-0.11-1.08-0.22-1.61-0.33
		c-0.55-0.11-1.09-0.3-1.64-0.45c-2.23-0.61-4.47-1.21-6.71-1.82c-0.68-0.18-1.36-0.37-2.03-0.58c-1.11-0.36-2.21-0.75-3.32-1.12
		c-0.24-0.08-0.49-0.16-0.74-0.23c-0.35-0.5-0.69-1-1.04-1.5c-0.25-0.36-0.7-0.52-1.1-0.29c-0.36,0.21-0.54,0.74-0.29,1.1
		c0.02,0.02,0.03,0.05,0.05,0.07c-0.2-0.04-0.4-0.09-0.6-0.13c-0.9-0.21-1.62,0.55-1.44,1.44c0.05,0.22,0.1,0.5,0.23,0.7
		c0.19,0.28,0.39,0.53,0.63,0.77c0.19,0.18,0.37,0.37,0.55,0.55c0.31,0.31,0.62,0.62,0.95,0.93c0.77,0.73,1.55,1.47,2.32,2.21
		c0.64,0.62,1.29,1.23,1.93,1.86c0.37,0.36,0.74,0.71,1.11,1.07c0.16,0.15,0.31,0.3,0.46,0.45c0.38,0.36,0.7,0.74,1.17,0.96
		c0.31,0.15,0.64,0.18,0.95,0c0.34-0.2,0.59-0.68,0.43-1.07c-0.08-0.21-0.16-0.41-0.28-0.61c-0.07-0.14-0.2-0.27-0.29-0.4
		c-0.17-0.24-0.34-0.48-0.51-0.71c-0.28-0.39-0.56-0.78-0.84-1.17c-0.48-0.67-0.96-1.33-1.45-2c-0.21-0.29-0.41-0.58-0.62-0.87
		c0.35,0.12,0.7,0.25,1.06,0.37c0.7,0.24,1.41,0.44,2.12,0.64c2.27,0.65,4.54,1.3,6.81,1.95c0.46,0.13,0.94,0.3,1.41,0.4
		c0.61,0.14,1.22,0.28,1.83,0.41c2.32,0.52,4.65,1.05,6.98,1.57c1.22,0.28,2.45,0.5,3.68,0.73c1.81,0.33,3.62,0.68,5.44,0.99
		c1.82,0.3,3.65,0.61,5.48,0.91c0.84,0.14,1.68,0.25,2.52,0.38c0.44,0.07,0.88,0.13,1.33,0.2c0.97,0.15,1.94,0.34,2.93,0.4
		c0.52,0.03,1.05-0.07,1.55-0.14c0.58-0.08,1.09-0.22,1.63-0.47c0.4-0.19,0.78-0.46,1.06-0.8c0.21-0.26,0.39-0.49,0.54-0.78
		c0.15-0.28,0.27-0.61,0.37-0.92c0.16-0.46,0.19-0.98,0.25-1.46c0.07-0.58,0.01-1.15-0.07-1.72c-0.18-1.23-0.71-2.36-1.23-3.48
		c-0.45-0.95-0.91-1.89-1.45-2.81c-0.49-0.83-1.01-1.66-1.53-2.48c-0.48-0.75-0.96-1.5-1.45-2.25c-1.78-2.78-3.63-5.51-5.24-8.39
		c-0.35-0.63-1.04-0.98-1.73-0.98C875.46,525.44,875.11,525.52,874.81,525.7L874.81,525.7L874.81,525.7z M883.95,547.97
		C883.95,547.97,883.95,547.98,883.95,547.97c-0.03,0.03-0.06,0.05-0.08,0.07C883.9,548.02,883.93,547.99,883.95,547.97
		L883.95,547.97L883.95,547.97z"/>
	<path class="st0" d="M789.48,481.12c-0.39,0.18-0.77,0.34-1.14,0.56c-0.31,0.19-0.59,0.42-0.88,0.63
		c-0.31,0.23-0.62,0.46-0.94,0.68c-0.52,0.38-1.04,0.77-1.57,1.16c-0.5,0.38-1,0.76-1.5,1.15c-0.72,0.48-1.44,0.97-2.17,1.46
		c-2.83,1.9-5.66,3.8-8.49,5.7c-1.1,0.74-2.21,1.46-3.32,2.18c-2.93,1.92-5.86,3.84-8.79,5.75c-3.57,2.34-7.12,4.69-10.73,6.97
		c-5.18,3.29-10.37,6.57-15.56,9.86c-4.11,2.61-8.19,5.27-12.29,7.91c-2.34,1.51-4.66,3.05-7,4.58c-1.9,1.25-3.8,2.49-5.7,3.75
		c-2.4,1.59-4.82,3.15-7.26,4.7c-0.43,0.27-0.75,0.65-0.88,1.15c-0.13,0.5-0.06,1.04,0.2,1.48c0.25,0.43,0.67,0.75,1.14,0.88
		c0.45,0.12,1.09,0.1,1.48-0.2c2.32-1.74,4.63-3.49,6.96-5.22c1.87-1.38,3.72-2.78,5.61-4.14c1.4-1.01,2.8-2.02,4.2-3.04
		c0.83-0.6,1.65-1.23,2.5-1.81c2.31-1.59,4.63-3.18,6.94-4.77c1.71-1.18,3.41-2.39,5.15-3.54c2.21-1.46,4.43-2.93,6.64-4.39
		c3.98-2.62,7.97-5.22,11.92-7.89c5.42-3.66,10.83-7.32,16.25-10.98c0.29-0.2,0.58-0.4,0.88-0.59c-1.13,0.91-2.26,1.81-3.39,2.72
		c-0.17,0.14-0.14,0.42,0,0.57c0.17,0.16,0.39,0.14,0.57,0c4.07-3.26,8.12-6.56,12.22-9.8c0.49-0.34,0.98-0.68,1.47-1.02
		c1.08-0.75,2.15-1.5,3.23-2.25c1.37-0.95,2.68-1.99,4-3.01c0,0,0,0,0,0c0.22-0.17,0.44-0.33,0.65-0.5
		c0.18-0.13,0.27-0.35,0.14-0.55c-0.08-0.13-0.2-0.19-0.34-0.19C789.62,481.07,789.55,481.09,789.48,481.12L789.48,481.12
		L789.48,481.12z M789.24,482.32c0.01-0.01,0.03-0.02,0.04-0.03C789.27,482.3,789.25,482.31,789.24,482.32L789.24,482.32
		L789.24,482.32z"/>
	<path class="st0" d="M915.16,479.3c-0.52,0.02-1.02,0.11-1.53,0.2c-1.22,0.22-1.44,2.12-0.35,2.66c4.2,2.07,8.41,4.11,12.61,6.16
		c0.71,0.34,1.55,0.2,1.97-0.52c0.03-0.05,0.06-0.11,0.08-0.17c3.32,1.48,6.64,2.97,9.96,4.49c4.49,2.06,8.93,4.23,13.35,6.43
		c4.96,2.45,9.89,4.94,14.81,7.47c4.48,2.3,8.92,4.7,13.42,6.96c2.31,1.16,4.62,2.31,6.97,3.38c2.42,1.09,4.84,2.16,7.26,3.25
		c2.43,1.1,4.86,2.21,7.31,3.29c1.27,0.56,2.54,1.1,3.82,1.64c1.06,0.45,2.13,0.89,3.16,1.4c0.94,0.47,1.88,0.93,2.8,1.44
		c1.16,0.65,2.3,1.34,3.41,2.07c1.53,1.01,3.72,0.31,4.61-1.21c0.46-0.78,0.58-1.73,0.34-2.6c-0.24-0.88-0.8-1.52-1.55-2.01
		c-2.27-1.48-4.62-2.79-7.11-3.87c-2.68-1.17-5.38-2.27-8.08-3.39c-4.56-1.91-9.14-3.75-13.71-5.63c-2.35-1-4.68-2.02-7.01-3.07
		c-2.26-1.02-4.5-2.07-6.75-3.1c-4.93-2.25-9.88-4.45-14.83-6.63c-4.85-2.14-9.69-4.3-14.53-6.46c-4.46-1.98-8.98-3.85-13.5-5.72
		c-2.77-1.15-5.53-2.29-8.3-3.43c-1.66-0.71-3.3-1.48-4.99-2.12c-0.79-0.3-1.6-0.53-2.43-0.71c-0.35-0.08-0.8-0.19-1.17-0.19
		C915.2,479.3,915.18,479.3,915.16,479.3L915.16,479.3L915.16,479.3z"/>
</g>
</svg>
