<?xml version="1.0" encoding="utf-8"?>
<!-- Generator: Adobe Illustrator 23.0.3, SVG Export Plug-In . SVG Version: 6.00 Build 0)  -->
<svg version="1.1" id="Layer_1" xmlns="http://www.w3.org/2000/svg" xmlns:xlink="http://www.w3.org/1999/xlink" x="0px" y="0px"
	 viewBox="0 0 47.5 47.5" style="enable-background:new 0 0 47.5 47.5;" xml:space="preserve">
<style type="text/css">
	.st0{fill:#FFFFFF;}
	.st1{fill:#2C2C2C;}
</style>
<g>
	<path class="st0" d="M45.9,23.2c-0.1-0.7-0.3-1.5-0.7-2.1c-0.2-0.3-0.4-0.6-0.7-0.9c-0.2-0.2-0.5-0.4-0.7-0.5
		c-0.2-0.2-0.4-0.3-0.5-0.4c-0.1-0.1-0.2-0.1-0.3-0.2c-0.2-0.1-0.4-0.2-0.6-0.2c-0.3-0.1-0.7-0.2-1-0.3c-0.4-0.1-0.8-0.1-1.2-0.2
		c-0.2,0-0.4,0-0.7-0.1c0,0,0.1,0,0.1-0.1c0.3-0.3,0.6-0.6,0.8-1c0.2-0.3,0.4-0.5,0.5-0.8c0.2-0.4,0.3-0.7,0.5-1.1
		c0.3-0.7,0.5-1.5,0.6-2.3c0-0.2,0-0.4,0-0.6c0-0.3,0-0.6,0-0.8c0-0.2-0.1-0.4-0.2-0.6c-0.1-0.2-0.1-0.4-0.2-0.6
		c-0.1-0.4-0.2-0.7-0.4-1.1C41,9.2,41,9,40.9,8.9c-0.1-0.1-0.1-0.3-0.2-0.4c-0.2-0.5-0.5-0.8-0.9-1.2c-0.2-0.2-0.5-0.4-0.7-0.6
		c-0.6-0.5-1.3-0.9-2-1c-0.4-0.1-0.7-0.1-1.1-0.1c-0.3,0-0.6,0.1-0.9,0.1c-0.2,0-0.5,0-0.7,0.1c-0.1,0-0.2,0.1-0.3,0.1
		C33.9,6,33.7,6,33.5,6.1c-0.3,0.2-0.6,0.3-0.9,0.5c-0.4,0.2-0.7,0.5-1,0.7c-0.3,0.2-0.5,0.4-0.8,0.7c-0.2,0.2-0.3,0.3-0.5,0.5
		c0-0.1,0-0.2,0-0.4c0-0.3-0.1-0.6-0.2-1c-0.1-0.4-0.3-0.7-0.4-1.1c-0.3-0.7-0.7-1.4-1.2-2C28.3,4,28.2,3.8,28,3.7
		c-0.2-0.2-0.4-0.4-0.6-0.6c-0.2-0.1-0.4-0.2-0.5-0.3c-0.2-0.1-0.4-0.2-0.6-0.3c-0.3-0.2-0.7-0.4-1-0.5c-0.1-0.1-0.3-0.1-0.4-0.2
		c-0.1-0.1-0.3-0.1-0.4-0.2c-0.5-0.2-1-0.2-1.5-0.2c-0.3,0-0.6,0-0.9,0.1c-0.7,0.1-1.5,0.3-2.1,0.7C19.6,2.5,19.3,2.7,19,3
		c-0.2,0.2-0.4,0.5-0.5,0.7c-0.2,0.2-0.3,0.4-0.4,0.5c-0.1,0.1-0.1,0.2-0.2,0.3c-0.1,0.2-0.2,0.4-0.2,0.6c-0.1,0.3-0.2,0.7-0.3,1
		c-0.1,0.4-0.1,0.8-0.2,1.2c0,0.3-0.1,0.6-0.1,1c-0.2-0.2-0.4-0.4-0.6-0.5c-0.3-0.2-0.6-0.4-0.9-0.6c-0.4-0.3-0.9-0.5-1.4-0.7
		c-0.4-0.1-0.9-0.2-1.3-0.3c-0.4,0-0.8,0-1.2,0.1c-0.1,0-0.3,0.1-0.4,0.1c-0.2,0.1-0.5,0.2-0.7,0.3c0,0,0,0,0,0c0,0-0.1,0-0.1,0.1
		c-0.1,0.1-0.3,0.1-0.4,0.2C10,7.2,9.9,7.3,9.8,7.3c0,0,0,0,0,0c-0.3,0.2-0.7,0.5-1,0.7C8.5,8.3,8.3,8.5,8.1,8.7
		C7.9,9,7.6,9.2,7.4,9.5c-0.3,0.3-0.5,0.6-0.8,1C6.2,11,6,11.7,5.8,12.3c-0.1,0.3-0.1,0.7-0.2,1c0,0.3,0,0.6,0,0.8
		c0,0.2,0,0.4,0.1,0.6C5.8,15,5.9,15.3,6,15.5c0.2,0.4,0.4,0.7,0.6,1.1c0.2,0.3,0.4,0.5,0.6,0.8c0.3,0.3,0.6,0.6,1,0.8
		c0.1,0.1,0.2,0.1,0.3,0.2c-0.1,0-0.3,0-0.4,0c-0.4,0-0.8,0-1.3,0.1c-0.3,0-0.7,0.1-1,0.2c-0.5,0.1-1,0.3-1.5,0.5
		c-0.4,0.2-0.7,0.5-1.1,0.7c-0.3,0.2-0.6,0.6-0.8,0.9c-0.1,0.1-0.1,0.3-0.2,0.4C2.1,21.3,2,21.5,2,21.8c0,0,0,0,0,0
		c0,0,0,0.1-0.1,0.1c-0.1,0.1-0.1,0.3-0.1,0.4c0,0.1-0.1,0.3-0.1,0.4c0,0,0,0,0,0c-0.1,0.4-0.1,0.8-0.2,1.2c0,0.3,0,0.6,0,1
		c0,0.3,0,0.7,0,1c0,0.4,0.1,0.8,0.1,1.2c0.1,0.7,0.4,1.3,0.7,1.9c0.2,0.3,0.4,0.6,0.6,0.8c0.2,0.2,0.4,0.4,0.6,0.6
		c0.2,0.1,0.3,0.3,0.5,0.4c0.2,0.1,0.5,0.2,0.7,0.3c0.4,0.2,0.8,0.2,1.2,0.3c0.3,0,0.7,0.1,1,0.1c0.2,0,0.4,0,0.6,0
		c-0.1,0.1-0.1,0.2-0.2,0.2c-0.3,0.4-0.5,0.9-0.7,1.4c-0.1,0.4-0.2,0.9-0.3,1.3c0,0.4,0,0.8,0.1,1.2c0,0.1,0.1,0.3,0.1,0.4
		c0.1,0.2,0.2,0.5,0.3,0.7c0,0,0,0,0,0c0,0,0,0.1,0.1,0.1c0.1,0.1,0.1,0.3,0.2,0.4c0.1,0.1,0.2,0.2,0.2,0.3c0,0,0,0,0,0
		c0.2,0.3,0.5,0.7,0.7,1c0.2,0.3,0.4,0.5,0.7,0.7c0.2,0.2,0.5,0.5,0.8,0.7c0.3,0.3,0.6,0.5,1,0.8c0.6,0.4,1.2,0.6,1.8,0.8
		c0.3,0.1,0.7,0.1,1,0.2c0.3,0,0.6,0,0.8,0c0.2,0,0.4,0,0.6-0.1c0.2-0.1,0.5-0.2,0.7-0.3c0.4-0.2,0.7-0.4,1.1-0.6
		c0.1-0.1,0.2-0.2,0.4-0.3c0,0.1,0,0.1,0,0.2c0,0.3,0.1,0.7,0.2,1c0.1,0.5,0.3,1,0.5,1.5c0.2,0.4,0.5,0.7,0.7,1.1
		c0.2,0.3,0.6,0.6,0.9,0.8c0.1,0.1,0.3,0.1,0.4,0.2c0.2,0.1,0.4,0.2,0.7,0.3c0,0,0,0,0,0c0,0,0.1,0,0.1,0.1c0.1,0.1,0.3,0.1,0.4,0.1
		c0.1,0,0.3,0.1,0.4,0.1c0,0,0,0,0,0c0.4,0.1,0.8,0.1,1.2,0.2c0.3,0,0.6,0,1,0c0.3,0,0.7,0,1,0c0.4,0,0.8-0.1,1.2-0.1
		c0.7-0.1,1.3-0.4,1.9-0.7c0.3-0.2,0.6-0.4,0.8-0.6c0.2-0.2,0.4-0.4,0.6-0.6c0.1-0.2,0.3-0.3,0.4-0.5c0.1-0.2,0.2-0.5,0.3-0.7
		c0.2-0.4,0.2-0.8,0.3-1.2c0-0.3,0.1-0.7,0.1-1c0-0.1,0-0.2,0-0.2c0.2,0.1,0.4,0.3,0.6,0.4c0.4,0.2,0.7,0.3,1.1,0.5
		c0.7,0.3,1.5,0.5,2.3,0.6c0.2,0,0.4,0,0.6,0c0.3,0,0.6,0,0.8,0c0.2,0,0.4-0.1,0.6-0.2c0.2-0.1,0.4-0.1,0.6-0.2
		c0.4-0.1,0.7-0.2,1.1-0.4c0.1-0.1,0.3-0.1,0.4-0.2c0.1-0.1,0.3-0.1,0.4-0.2c0.5-0.2,0.8-0.5,1.2-0.9c0.2-0.2,0.4-0.5,0.6-0.7
		c0.5-0.6,0.9-1.3,1-2c0.1-0.4,0.1-0.7,0.1-1.1c0-0.3-0.1-0.6-0.1-0.9c0-0.2,0-0.5-0.1-0.7c0-0.1-0.1-0.2-0.1-0.3
		c-0.1-0.2-0.1-0.4-0.2-0.6c-0.2-0.3-0.3-0.6-0.5-0.9c-0.2-0.4-0.5-0.7-0.7-1c0,0,0,0,0,0c0.1,0,0.2,0,0.2-0.1
		c0.4-0.1,0.7-0.3,1.1-0.4c0.7-0.3,1.4-0.7,2-1.2c0.2-0.1,0.3-0.3,0.5-0.4c0.2-0.2,0.4-0.4,0.6-0.6c0.1-0.2,0.2-0.4,0.3-0.5
		c0.1-0.2,0.2-0.4,0.3-0.6c0.2-0.3,0.4-0.7,0.5-1c0.1-0.1,0.1-0.3,0.2-0.4c0.1-0.1,0.1-0.3,0.2-0.4c0.2-0.5,0.2-1,0.2-1.5
		C46,23.8,46,23.5,45.9,23.2z"/>
	<g>
		<path class="st1" d="M47.4,22.8c-0.9-4.1-4.1-5.7-7.9-6c0.4,0.9,0.7,1.7,1.1,2.6c3.6-3.1,3.7-9.3,0.7-12.8
			c-3.5-3.9-8.7-2.5-11.9,0.9c0.9,0.4,1.7,0.7,2.6,1.1c-0.5-4.4-3.9-8.2-8.5-8.5c-5.1-0.3-7.4,3.9-7.8,8.3c0.9-0.4,1.7-0.7,2.6-1.1
			C9.5,0-1.5,14,7.7,19.6c0.3-0.9,0.5-1.9,0.8-2.8C-2.6,16-2.8,33.6,7.6,33.1c-0.4-0.8-0.9-1.5-1.3-2.3c-4.5,6.7,5.4,16.3,11.9,10.8
			c-0.9-0.4-1.7-0.7-2.6-1.1c0.9,9.5,16.7,9.2,16.3-0.3c-0.8,0.4-1.5,0.9-2.3,1.3c7.8,4.7,18.2-3.4,11.4-11.3
			c-0.2,0.8-0.4,1.7-0.7,2.5c4.2-1.3,7.4-5,7-9.6c-0.2-1.9-3.2-1.9-3,0c0.3,3.2-1.8,5.8-4.8,6.7c-1.1,0.3-1.4,1.7-0.7,2.5
			c4.3,5-3.2,9.3-7.8,6.6c-0.9-0.6-2.3,0.2-2.3,1.3c0.3,5.5-9.7,6-10.3,0.3c-0.1-1.3-1.5-1.9-2.6-1.1c-3.6,3.1-9.9-3.1-7.2-7.1
			c0.6-0.9-0.2-2.3-1.3-2.3c-6.2,0.3-6.6-10.8,0.9-10.3c1.5,0.1,2-2.1,0.8-2.8C3.9,13.8,10.7,4.9,16,9.4c1,0.9,2.5,0.3,2.6-1.1
			c0.5-6.7,9.5-6.4,10.3,0.2c0.1,1.2,1.6,2.1,2.6,1.1c5.5-5.9,12.6,2.7,6.9,7.6c-1.1,0.9-0.1,2.5,1.1,2.6c2.5,0.2,4.4,1,5.1,3.8
			C44.9,25.5,47.8,24.7,47.4,22.8z"/>
	</g>
</g>
<g>
	<g>
		<path class="st0" d="M19.2,28.8c0.3,0.2,0.5,0.4,0.8,0.5c0.4,0.2,0.7,0.3,1.1,0.5c0.7,0.3,1.5,0.5,2.3,0.6c0.2,0,0.4,0,0.6,0
			c0.3,0,0.6,0,0.8,0c0.2,0,0.4-0.1,0.6-0.2c0.2-0.1,0.4-0.1,0.6-0.2c0.4-0.1,0.7-0.2,1.1-0.4c0.1-0.1,0.3-0.1,0.4-0.2
			c0.1-0.1,0.3-0.1,0.4-0.2c0.5-0.2,0.8-0.5,1.2-0.9c0.2-0.2,0.4-0.5,0.6-0.7c0.5-0.6,0.9-1.3,1-2c0.1-0.4,0.1-0.7,0.1-1.1
			c0-0.3-0.1-0.6-0.1-0.9c0-0.2,0-0.5-0.1-0.7c0-0.1-0.1-0.2-0.1-0.3c-0.1-0.2-0.1-0.4-0.2-0.6c-0.2-0.3-0.3-0.6-0.5-0.9
			c-0.2-0.4-0.5-0.7-0.7-1c-0.2-0.3-0.4-0.5-0.7-0.8c-0.3-0.3-0.6-0.6-0.9-0.8c-0.3-0.2-0.6-0.4-0.9-0.6c-0.4-0.3-0.9-0.5-1.4-0.7
			c-0.4-0.1-0.9-0.2-1.3-0.3c-0.4,0-0.8,0-1.2,0.1c-0.1,0-0.3,0.1-0.4,0.1c-0.2,0.1-0.5,0.2-0.7,0.3c0,0,0,0,0,0c0,0-0.1,0-0.1,0.1
			c-0.1,0.1-0.3,0.1-0.4,0.2c-0.1,0.1-0.2,0.2-0.3,0.2c0,0,0,0,0,0c-0.3,0.2-0.7,0.5-1,0.7c-0.3,0.2-0.5,0.4-0.7,0.7
			c-0.2,0.2-0.5,0.5-0.7,0.8c-0.3,0.3-0.5,0.6-0.8,1c-0.4,0.6-0.6,1.2-0.8,1.8c-0.1,0.3-0.1,0.7-0.2,1c0,0.3,0,0.6,0,0.8
			c0,0.2,0,0.4,0.1,0.6c0.1,0.3,0.2,0.5,0.3,0.7c0.2,0.4,0.4,0.7,0.6,1.1c0.2,0.3,0.4,0.5,0.6,0.8C18.6,28.3,18.9,28.6,19.2,28.8z"
			/>
	</g>
	<g>
		<path class="st1" d="M18.5,30.1c3.8,2.3,9,2.5,12.1-1c3.3-3.7,1.6-8.8-2-11.6c-3.2-2.6-6.6-2.3-9.3-0.1c-4.2,3.4-5.7,8.9-1.1,12.6
			c1.5,1.2,3.6-0.9,2.1-2.1c-1.4-1.1-2.5-2.4-2-4.4c0.4-1.6,1.9-3.2,3.3-4.1c1.8-1.2,3.7-0.8,5.4,0.6c2.3,2,3.6,5.5,0.8,7.7
			c-2.4,1.8-5.3,1.3-7.7-0.1C18.3,26.5,16.8,29.1,18.5,30.1z"/>
	</g>
</g>
</svg>
