<?xml version="1.0" encoding="utf-8"?>
<!-- Generator: Adobe Illustrator 23.0.3, SVG Export Plug-In . SVG Version: 6.00 Build 0)  -->
<svg version="1.1" id="Layer_1" xmlns="http://www.w3.org/2000/svg" xmlns:xlink="http://www.w3.org/1999/xlink" x="0px" y="0px"
	 viewBox="0 0 590.7 109" style="enable-background:new 0 0 590.7 109;" xml:space="preserve">
<style type="text/css">
	.st0{fill:#2C2C2C;}
	.st1{fill:#FFFFFF;}
</style>
<g>
	<g>
		<path class="st0" d="M588.8,54.6c-0.8-14.2-10.5-30-26-31.2c-4-0.3-157.3,0.4-170.7,3c-1.7,0.3-6.5,3.1-9.2,6.1
			c-3.7,4.3-8.3,10.8-9.6,17.9c-0.3,0.8-0.4,29.7-0.3,30.5c-0.6,8.8,4.7,18.1,24.2,24.4c14.2,4.6,170.9,0.2,174.4,0
			c10.7-0.6,16-8.1,17.1-17.3C589.3,82.1,589.1,60.1,588.8,54.6z"/>
		<g>
			<path class="st0" d="M590.3,54.6c-0.9-12.5-7.5-25.6-19.5-30.7c-4.9-2.1-9.8-2-14.9-2c-17.2,0-34.4,0.1-51.6,0.2
				c-22.8,0.2-45.6,0.4-68.3,0.9c-14.1,0.3-28.8-0.4-42.8,1.7c-10.6,1.6-19.9,15.5-21.3,25.4c-1.2,8.5-0.4,17.6-0.4,26.2
				c0,8.3,0.7,15.2,7.3,21.1c6.3,5.6,14.9,9.3,23.3,10.2c16.5,1.8,33.4,1.3,50,1.3c22.6,0,45.3-0.4,67.9-0.8
				c15.8-0.3,31.6-0.7,47.3-1.1c5.8-0.2,11.6-0.6,16.2-4.8c8.6-7.7,7.1-21.2,7-31.6C590.5,65.2,590.5,59.9,590.3,54.6
				c-0.1-1.9-3.1-1.9-3,0c0.5,10.4,0.8,21.1,0,31.5c-0.7,10.4-6.8,17.3-17.3,17.8c-12.3,0.6-24.6,0.7-36.9,0.9
				c-39.3,0.9-78.9,2-118.2,0.6c-5.1-0.2-10.4-0.2-15.4-1.1c-9.6-1.8-22.6-8.4-24.7-18.9c-1.5-7.4-0.3-16.2-0.2-23.7
				c0-3.5-0.2-7.2,0.2-10.7c0.8-6.9,6.4-15.7,12.3-20.1c4.8-3.6,9.4-3.5,15.1-3.8c7.4-0.4,14.8-0.6,22.1-0.8
				c20.5-0.5,40.9-0.8,61.4-1c19-0.2,38-0.3,57-0.4c13.2,0,27.3-2.3,36.8,9.3c4.7,5.8,7.3,13.1,7.9,20.4
				C587.4,56.5,590.4,56.5,590.3,54.6z"/>
		</g>
	</g>
	<g id="XMLID_4307_">
		<g id="XMLID_4310_">
			<path class="st1" d="M541.1,1.8c-4-0.3-157.3,0.4-170.7,3c-1.7,0.3-6.5,3.1-9.2,6.1c-3.7,4.3-8.3,10.8-9.6,17.9
				c-0.3,0.8-0.4,29.7-0.3,30.5c-0.6,8.8,4.7,18.1,24.2,24.4c14.2,4.6,170.9,0.2,174.4,0c10.7-0.6,16-8.1,17.1-17.3
				c0.7-5.9,0.4-27.9,0.1-33.4C566.4,18.8,556.7,3,541.1,1.8z"/>
			<g>
				<path class="st0" d="M541.1,0.3c-11.2-0.7-22.7,0-33.9,0C485.1,0.5,463,0.7,440.9,1c-19.4,0.3-38.7,0.5-58.1,1.4
					c-4.3,0.2-9.3-0.1-13.4,1.2c-10.3,3.2-19,17.3-19.3,27.6c-0.3,9.1-0.2,18.2-0.2,27.3c0,10.1,5,17,13.8,21.8
					c13.2,7.4,27.9,6.6,42.5,6.8c41.9,0.7,83.9-0.3,125.8-1.4c11.9-0.3,28,1.9,34.3-10.9c2.3-4.6,2.5-9.7,2.6-14.8
					c0.2-6.4,0.1-12.8,0-19.2c-0.2-12.1-2.1-23.9-11.2-32.7C553.1,3.6,547.5,1,541.1,0.3c-1.9-0.2-1.9,2.8,0,3
					c15.6,1.6,24,17.2,24.6,31.5c0.4,10.4,1.1,21.4-0.2,31.8c-1.3,10-8.2,15.4-17.9,15.7c-4.8,0.1-9.6,0.3-14.4,0.4
					c-39.2,1-78.3,1.8-117.5,1.5c-8.1-0.1-16.1-0.2-24.2-0.5c-4.8-0.2-9.9-0.1-14.6-1.2c-10.4-2.4-23.7-9.6-24.2-21.6
					c-0.3-7.7,0-15.5,0.1-23.2c0-3.3-0.2-7.2,0.6-10.1c2-7.8,7.8-16.7,15.2-20.4c3.9-2,9.2-1.6,13.5-1.8c17.5-0.8,35-1.1,52.5-1.3
					c34.6-0.5,69.3-1.1,103.9-0.8c0.9,0,1.7,0,2.6,0C543.1,3.4,543.1,0.4,541.1,0.3z"/>
			</g>
		</g>
		<g id="XMLID_4309_">
			<path class="st1" d="M554.6,62.6c0,0,2.3,4.8-1.4,7"/>
			<g>
				<path class="st0" d="M553.3,63.3c-0.1-0.3,0,0.1,0.1,0.4c0.1,0.4,0.3,0.9,0.3,1.3c0.2,1.3-0.2,2.4-1.3,3.2
					c-1.6,1-0.1,3.6,1.5,2.6c3.2-2,3.4-5.8,1.9-9C555.1,60.1,552.5,61.6,553.3,63.3L553.3,63.3z"/>
			</g>
		</g>
		<g id="XMLID_4308_">
			<path class="st1" d="M374.9,16.3c0,0-5.9,2.8-7.7,5.6"/>
			<g>
				<path class="st0" d="M374.1,15c-3,1.4-6.3,3.4-8.2,6.2c-1.1,1.6,1.5,3.1,2.6,1.5c1.6-2.3,4.7-3.9,7.1-5.1
					C377.4,16.7,375.9,14.1,374.1,15L374.1,15z"/>
			</g>
		</g>
	</g>
</g>
<g>
	<g>
		<path class="st0" d="M217.3,54.6c-0.8-14.2-10.5-30-26-31.2c-35-2.6-139.2-3.1-170.7,3c-1.7,0.3-6.5,3.1-9.2,6.1
			c-3.7,4.3-8.3,10.8-9.6,17.9c-0.3,0.8-0.4,29.7-0.3,30.5C0.9,89.7,6.3,99,25.7,105.3c14.2,4.6,170.9,0.2,174.4,0
			c10.7-0.6,16-8.1,17.1-17.3C217.9,82.1,217.6,60.1,217.3,54.6z"/>
		<g>
			<path class="st0" d="M218.8,54.6c-0.8-11.3-6.2-23.1-16.3-29.1c-7.9-4.7-17.9-4.1-26.8-4.4c-23.7-1-47.5-1.1-71.2-0.9
				c-23.1,0.2-46.2,0.6-69.2,2.8c-8.2,0.8-16.5,1-23,6.6C4.7,36.1,0.3,45.9,0.1,55.8C0,64,0,72.2,0,80.4C0,88.7,3.5,95,10.4,99.8
				c11.9,8.3,24.5,8.4,38.4,8.8c38.2,1,76.4,0,114.6-0.8c11.7-0.3,23.4-0.4,35-0.9c7-0.3,13.4-2.7,17.2-9c5-8.5,3.6-20.4,3.5-29.8
				C219.1,63.6,219.1,59.1,218.8,54.6c-0.1-1.9-3.1-1.9-3,0c0.5,9.3,0.5,18.7,0.2,28c-0.3,10.6-4.2,20.5-16.3,21.2
				c-8.8,0.6-17.6,0.5-26.4,0.7c-35.6,0.8-71.3,1.6-107,1.3c-12.2-0.1-24.6,0.2-36.7-1.3c-8.1-1-17.1-5.3-22.5-11.5
				C2.3,87.4,3,80.7,3,73.9C3,66.3,2.4,58.4,3.3,51c0.7-6,5.3-13.3,9.7-17.9c3.7-3.8,7.6-5.3,12.7-6c19.2-2.8,38.8-3.1,58.2-3.6
				c23.2-0.5,46.4-0.5,69.6-0.1c9.3,0.2,18.6,0.4,27.9,0.9c4.1,0.2,8.3,0.2,12.3,0.9c6.7,1.3,12.3,5.7,16.1,11.2
				c3.6,5.4,5.7,11.7,6.2,18.1C216,56.5,219,56.5,218.8,54.6z"/>
		</g>
	</g>
	<g id="XMLID_4167_">
		<g id="XMLID_4306_">
			<path class="st1" d="M212.9,1.8c-4-0.3-157.3,0.4-170.7,3c-1.7,0.3-6.5,3.1-9.2,6.1c-3.7,4.3-8.3,10.8-9.6,17.9
				c-0.3,0.8-0.4,29.7-0.3,30.5c-0.6,8.8,4.7,18.1,24.2,24.4c14.2,4.6,170.9,0.2,174.4,0c10.7-0.6,16-8.1,17.1-17.3
				c0.7-5.9,0.4-27.9,0.1-33.4C238.1,18.8,228.4,3,212.9,1.8z"/>
			<g>
				<path class="st0" d="M212.9,0.3c-11.2-0.7-22.7,0-33.9,0c-22.1,0.1-44.2,0.3-66.3,0.6C93.3,1.2,73.9,1.5,54.5,2.4
					c-4.3,0.2-9.3-0.1-13.4,1.2c-10.3,3.2-19,17.3-19.3,27.6c-0.3,9.1-0.2,18.2-0.2,27.3c0,10.1,5,17,13.8,21.8
					c13.2,7.4,27.9,6.6,42.5,6.8c41.9,0.7,83.9-0.3,125.8-1.4c11.9-0.3,28,1.9,34.3-10.9c2.3-4.6,2.5-9.7,2.6-14.8
					c0.2-6.4,0.1-12.8,0-19.2c-0.2-12.1-2.1-23.9-11.2-32.7C224.9,3.6,219.3,1,212.9,0.3c-1.9-0.2-1.9,2.8,0,3
					c15.6,1.6,24,17.2,24.6,31.5c0.4,10.4,1.1,21.4-0.2,31.8c-1.3,10-8.2,15.4-17.9,15.7c-4.8,0.1-9.6,0.3-14.4,0.4
					c-39.2,1-78.3,1.8-117.5,1.5c-8.1-0.1-16.1-0.2-24.2-0.5c-4.8-0.2-9.9-0.1-14.6-1.2C38.4,80.2,25,72.9,24.6,60.9
					c-0.3-7.7,0-15.5,0.1-23.2c0-3.3-0.2-7.2,0.6-10.1c2-7.8,7.8-16.7,15.2-20.4c3.9-2,9.2-1.6,13.5-1.8c17.5-0.8,35-1.1,52.5-1.3
					C141,3.5,175.7,3,210.3,3.3c0.9,0,1.7,0,2.6,0C214.8,3.4,214.8,0.4,212.9,0.3z"/>
			</g>
		</g>
		<g id="XMLID_4305_">
			<path class="st1" d="M226.3,62.6c0,0,2.3,4.8-1.4,7"/>
			<g>
				<path class="st0" d="M225,63.3c-0.1-0.3,0,0.1,0.1,0.4c0.1,0.4,0.3,0.9,0.3,1.3c0.2,1.3-0.2,2.4-1.3,3.2c-1.6,1-0.1,3.6,1.5,2.6
					c3.2-2,3.4-5.8,1.9-9C226.8,60.1,224.2,61.6,225,63.3L225,63.3z"/>
			</g>
		</g>
		<g id="XMLID_4304_">
			<path class="st1" d="M46.6,16.3c0,0-5.9,2.8-7.7,5.6"/>
			<g>
				<path class="st0" d="M45.9,15c-3,1.4-6.3,3.4-8.2,6.2c-1.1,1.6,1.5,3.1,2.6,1.5c1.6-2.3,4.7-3.9,7.1-5.1
					C49.1,16.7,47.6,14.1,45.9,15L45.9,15z"/>
			</g>
		</g>
	</g>
</g>
<g>
	<g>
		<path class="st1" d="M163.3,36.3c0.2-0.5,0.5-1,1-1.2c0,0,0.1,0,0.1,0c0.1-0.1,0.1-0.2,0.2-0.3c0.4-0.5,0.8-0.9,1.3-1.2
			c0.1,0,0.1-0.1,0.2-0.1c0.4-0.3,0.8-0.6,1.3-0.7c0.2-0.1,0.4-0.1,0.7-0.1c0-1,0-2,0.1-3c0.1-1.4,0.3-2.8,0.7-4.1
			c0.2-0.7,0.4-1.3,0.7-2c0.2-0.6,0.5-1.1,0.8-1.6c0.3-0.5,0.7-1.1,1.2-1.5c0.4-0.4,0.9-0.8,1.5-1.1c0.3-0.1,0.6-0.3,1-0.4
			c0.3-0.1,0.7-0.1,1-0.2c0.1,0,0.1,0,0.2,0c0.6-0.1,1.3-0.1,1.9,0c0.4,0.1,0.9,0.1,1.3,0.3c0.4,0.1,0.7,0.3,1,0.5
			c0.5,0.3,1.1,0.7,1.4,1.2c0.3,0.3,0.5,0.7,0.7,1.1c0.1,0.2,0.2,0.3,0.3,0.5c0.1,0.2,0.2,0.3,0.3,0.5c0,0,0,0,0,0
			c0.4,0.6,0.7,1.1,1,1.7c0.4,0.8,0.7,1.7,0.8,2.6c0.1,0.7,0.1,1.5,0,2.2c0,0,0,0,0,0.1c0.1,0.1,0.2,0.3,0.2,0.4
			c0.1,0.7,0.2,1.5,0.2,2.2c0.2,0,0.5,0,0.7,0c0.2,0,0.4,0,0.6,0c0.5,0.1,1.1,0.2,1.6,0.4c0.5,0.2,0.9,0.4,1.3,0.8
			c0.2,0.2,0.4,0.3,0.6,0.5c0.2,0.2,0.3,0.4,0.5,0.6c0.2,0.3,0.4,0.7,0.4,1c0.1,0.3,0.1,0.7,0.1,1.1c0,0.5-0.2,0.9-0.3,1.3
			c-0.1,0.5-0.2,0.7-0.4,1.2c-0.1,0.2-0.3,0.4-0.4,0.6c-0.2,0.2-0.3,0.5-0.6,0.6c-0.7,0.6-1.6,1-2.6,1.1c-0.3,0-0.6,0.1-0.8,0.1
			c-0.1,0-0.2,0.1-0.3,0.1c-0.1,1.6-0.2,3.2-0.4,4.8c0,0.1,0,0.3-0.1,0.4c0,0.9,0,1.8-0.1,2.8c0,0.6,0,1.3-0.1,1.9
			c-0.1,1.1-0.1,2.2-0.2,3.3c0.1,0.8,0.2,1.5,0.3,2.3c0.1,0.9,0,1.8,0,2.8c0,0.5-0.1,1-0.2,1.5c-0.1,0.3-0.1,0.7-0.3,1
			c-0.2,0.5-0.4,0.9-0.7,1.3c-0.3,0.4-0.6,0.8-0.9,1.2c-0.4,0.4-0.8,0.8-1.2,1.1c-0.3,0.2-0.6,0.5-0.9,0.6c-0.3,0.1-0.6,0.3-0.8,0.4
			c-0.1,0.1-0.3,0.1-0.4,0.2c-0.1,0-0.3,0.1-0.4,0.1c-0.2,0-0.4,0.1-0.6,0.1c0,0,0,0,0,0c-0.1,0-0.2,0-0.2,0c-0.2,0-0.3,0-0.5-0.1
			c0,0,0,0,0,0c-0.3,0-0.5,0.1-0.8,0.1c-0.1,0-0.1,0-0.2,0c-0.9,0-1.9-0.2-2.7-0.6c-0.5-0.2-0.9-0.4-1.3-0.7c-0.4-0.2-0.7-0.5-1-0.8
			c-0.6-0.7-1-1.4-1.3-2.3c-0.3-0.9-0.4-1.8-0.4-2.7c-0.1-1.9,0.2-3.7,0.3-5.6c0-0.2,0-0.3,0-0.5c-0.2-1.7-0.3-3.4-0.3-5.1
			c0-0.4-0.1-0.8-0.1-1.1c0-0.2-0.1-0.5-0.1-0.7c-0.2-1.7-0.3-3.4-0.5-5.1c-0.1,0-0.2,0.1-0.2,0.1c-0.3,0.1-0.7,0.2-1.1,0.2
			c-0.1,0-0.3,0-0.4,0c-0.4-0.1-0.7-0.2-1.1-0.4c-0.2-0.1-0.4-0.3-0.6-0.5c0,0-0.1-0.1-0.1-0.1c-0.2-0.1-0.4-0.2-0.5-0.3
			c-0.6-0.2-1.2-0.9-1.1-1.6c0,0,0,0,0,0c-0.1-0.5-0.1-1.1,0-1.6c0-0.1,0-0.1,0-0.1C163.2,37.4,163.1,36.8,163.3,36.3z"/>
		<g>
			<path class="st0" d="M164.6,37c0.7-1.3,2.5-2.7,3.9-2.9c0.6-0.1,1.1-0.8,1.1-1.4c0-3.2,0.1-7.2,2-9.9c2.3-3.2,6.4-3.2,8.8,0.1
				c2,2.7,2.2,6,2.5,9.3c0.1,0.8,0.6,1.5,1.5,1.5c2,0,5,1.5,4.1,4c-0.5,1.4-2.9,2.3-4.1,2.7c-0.7,0.3-1.1,0.7-1.1,1.4
				c-0.3,4.4-1,8.9-0.9,13.3c0.1,4.2,0.7,10.3-4.9,11c-0.4,0.1-1.2,0.1-1.6,0c-5.8-1.4-5.2-5.6-5-10.3c0.2-4.5-0.5-9-0.9-13.5
				c-0.1-0.9-0.9-1.8-1.9-1.4c-3.3,1.3-3.2-2.8-3.4-4.6c-0.2-1.9-3.2-1.9-3,0c0.2,2.7-0.3,4.4,1.9,6.2c1.5,1.2,3.3,2,5.3,1.2
				c-0.6-0.5-1.3-1-1.9-1.4c0.4,4,1,8.1,1,12.1c0,3-0.9,6.2,0.1,9.2c1.4,4,5.4,5.9,9.4,5.6c3.6-0.3,6.8-3.1,7.8-6.5
				c0.8-2.9,0.2-6.2,0.2-9.2c0.1-3.9,0.5-7.7,0.8-11.6c-0.4,0.5-0.7,1-1.1,1.4c3.5-1.4,6.8-2.4,6.5-7.1c-0.2-3.7-4-5.5-7.3-5.5
				c0.5,0.5,1,1,1.5,1.5c-0.1-0.9-0.2-1.7-0.3-2.6c-0.1-1.2-0.1,1.1-0.2-0.1c-0.1-2-0.1-3.6-1-5.6c-1.2-2.5-2.9-5.2-5.7-6.2
				c-9.4-3.1-12.2,8.2-12.2,15c0.4-0.5,0.7-1,1.1-1.4c-2.6,0.6-4.7,2.5-5.7,4.3C161.1,37.2,163.6,38.7,164.6,37z"/>
		</g>
	</g>
	<g>
		<path class="st1" d="M170.5,39.6c-0.3-0.7-0.5-1.4-0.9-2c0,0,0,0,0,0c0,0,0,0,0,0c-0.1-0.2-0.2-0.4-0.3-0.6
			c-0.1-0.2-0.3-0.4-0.4-0.6c-0.1-0.1-0.2-0.2-0.3-0.3c-0.1-0.1-0.1-0.1-0.2-0.2c-0.2-0.3-0.5-0.6-0.8-0.9c-0.4-0.3-0.8-0.6-1.2-0.8
			c-0.4-0.2-0.9-0.4-1.4-0.5c-0.9-0.2-1.8-0.2-2.7-0.1c-1,0.1-2,0.4-2.9,0.8c-0.9,0.4-1.9,0.8-2.8,1.3c-1.7,1-3.4,2.2-4.9,3.6
			c-0.2,0-0.4-0.1-0.6-0.2c-0.3,0-0.6-0.1-0.9-0.1c-0.1,0-0.1,0-0.2,0c-0.3,0-0.6,0-0.9,0.1c0,0,0,0,0,0c-0.2-0.1-0.5-0.1-0.7-0.1
			c0,0,0,0,0,0c-0.2,0-0.5,0-0.7,0.1c-0.1,0-0.3,0.1-0.4,0.1c-0.2,0-0.3,0.1-0.5,0.2c-0.3,0.1-0.6,0.2-0.9,0.4
			c-0.3,0.2-0.7,0.4-1,0.6c-0.5,0.3-0.9,0.7-1.3,1.1c-0.4,0.4-0.7,0.8-1,1.2c-0.3,0.4-0.5,0.9-0.7,1.3c-0.1,0.3-0.2,0.6-0.3,1
			c-0.1,0.5-0.1,1-0.2,1.5c-0.1,0.9-0.1,1.8,0,2.8c0.1,0.8,0.2,1.5,0.3,2.3c-0.1,1.1-0.2,2.2-0.2,3.3c0,0.5,0,0.9-0.1,1.4
			c0,0.1,0,0.2,0,0.2c0,0.2,0.1,0.3,0.2,0.4c0,0,0,0,0,0.1c-0.2,0.7-0.1,1.5,0,2.2c0.1,0.9,0.5,1.8,0.9,2.6c0.5,0.9,1.1,1.7,1.7,2.5
			c0.3,0.4,0.7,0.7,1,1.1c0.4,0.4,0.8,0.7,1.3,1c0.7,0.5,1.6,0.8,2.4,1c0.7,0.2,1.5,0.2,2.2,0.1c0.4,0,0.7-0.1,1.1-0.2
			c0.1,0,0.2,0,0.2-0.1c0.3-0.1,0.5-0.2,0.8-0.3c0.6-0.3,1.1-0.6,1.6-1.1c0.5-0.4,0.9-0.9,1.3-1.5c0.3-0.5,0.6-1.1,0.9-1.6
			c0.3-0.6,0.5-1.2,0.7-1.9c-0.1-0.6-0.1-1.2-0.2-1.7c-0.1-0.6-0.1-1.2-0.2-1.9c0-0.5,0-1,0-1.4c0-1.2-0.1-2.5-0.3-3.7
			c0-0.2,0-0.3,0-0.5c0,0,0,0,0-0.1c0.7-0.6,1.4-1.2,2.2-1.7c0.7-0.4,1.4-0.7,2.1-1c0.2,0,0.5-0.1,0.7-0.1c0.5,0,1,0,1.5,0
			c0.6,0,1.1,0.1,1.7,0.1c0.7,0,1.4-0.1,2.1-0.3c0.6-0.2,1.2-0.5,1.7-0.9c0.3-0.2,0.6-0.6,0.8-0.9c0.3-0.4,0.5-0.8,0.7-1.2
			c0.2-0.4,0.3-0.8,0.4-1.3c0.1-0.2,0.1-0.5,0.1-0.7c0-0.4,0.1-0.7,0-1.1c0-0.4-0.1-0.9-0.2-1.3C170.9,40.7,170.7,40.1,170.5,39.6z"
			/>
		<g>
			<path class="st0" d="M172,39.2c-1.1-2.8-2.7-6.3-6.9-7.1c-3.2-0.6-6.5,0.7-9.2,2.3c-1.3,0.7-2.7,2.3-4.1,2.8
				c-0.8,0.3-0.8,0.2-1.9,0.3c-3.6,0.3-6.4,0.8-8.6,4.3c-1.7,2.6-1.4,5.5-1.3,8.5c0.1,1.9-0.3,4-0.2,5.9c0,0.3,0.4,1.9,0.3,0.3
				c0.2,5.3,2.5,11,8.4,12.3c4.3,1,7.9-1.4,9.7-5.3c1.4-3,0.5-6.3,0.4-9.5c-0.1-2.5,0.2-3.1,3.1-3.6c1.6-0.3,3.3,0.2,4.9-0.1
				C172.2,49.3,173.3,43.9,172,39.2c-0.5-1.9-3.4-1.1-2.9,0.8c1.1,3.8-0.1,7.3-4.7,7.5c-1.7,0-2.9-0.1-4.5,0.5
				c-1.7,0.7-3.9,2-4.3,3.8c-1.2,4.5,3.1,10.7-2.6,13.6c-5.9,3.1-9.5-3.9-9.8-8.6c-0.4-5.9-1.4-16.6,7-16.2c3.5,0.2,4.8-2.3,7.9-3.9
				c4.8-2.5,9-1.5,11,3.4C169.8,41.7,172.7,41,172,39.2z"/>
		</g>
	</g>
	<g>
		<path class="st1" d="M143.8,59.2c-0.1-1.1-0.5-2-1.1-2.7c0,0,0,0,0,0c-0.1-0.3-0.3-0.6-0.5-0.8c0.3-1.4,0.3-2.8,0.2-4.2
			c0-0.4-0.1-0.8-0.2-1.3c0-0.4,0-0.8-0.1-1.1c-0.1-1.2-0.4-2.3-0.8-3.4c-0.2-0.6-0.5-1.2-0.9-1.8c-0.4-0.6-0.8-1.2-1.2-1.7
			c-0.8-1-1.9-1.9-3-2.6c-1.1-0.7-2.2-1.3-3.5-1.7c-0.5-0.2-1.1-0.3-1.7-0.3c-0.8-0.1-1.5-0.2-2.3-0.2c0,0-0.1,0-0.1,0
			c-1.3,0-2.7,0.2-4,0.4c-2.3,0.3-4.5,1.1-6.3,2.5c-0.3,0.2-0.7,0.5-1,0.8c-0.1,0.1-0.2,0.2-0.4,0.3c-0.4,0.4-0.8,0.8-1.2,1.2
			c-0.4,0.5-0.8,1.1-1.2,1.7c-0.6,1-1.1,2.1-1.5,3.1c-0.6,1.4-0.8,2.9-1,4.4c-0.1,1.4,0,2.9,0.3,4.3c0.3,1.4,0.8,2.7,1.4,3.9
			c0.3,0.5,0.6,1.1,1,1.5c0.5,0.6,0.9,1.2,1.5,1.8c0.5,0.5,1.1,1,1.6,1.4c0.5,0.4,1.1,0.8,1.7,1.1c0.6,0.4,1.3,0.7,2,0.9
			c0.6,0.3,1.3,0.4,2,0.6c3.2,0.7,6.6,0.2,9.6-1.1c0.7,0.4,1.4,0.7,2.2,0.8c0,0,0,0,0,0c0.1,0,0.1,0.1,0.2,0.1
			c0.4,0.2,0.9,0.3,1.3,0.4c0.5,0.1,1,0.1,1.5,0c0.5-0.1,1-0.2,1.5-0.5c0.3-0.2,0.6-0.3,0.9-0.5c0.1-0.1,0.2-0.1,0.3-0.2
			c0,0,0,0,0,0c0.2-0.1,0.3-0.3,0.5-0.4c0.1-0.1,0.3-0.3,0.3-0.5c0.2-0.3,0.5-0.7,0.7-1c0.5-0.8,0.7-1.6,0.9-2.5
			c0.2-0.8,0.2-1.6,0.1-2.3C143.8,59.4,143.8,59.3,143.8,59.2z"/>
		<g>
			<path class="st0" d="M145.2,58.8c-0.3-1.3-1.2-2.2-1.5-3.4c-0.2-0.7,0.2-1.9,0.2-2.6c0-2.6-0.3-5.6-1.3-8
				c-1.9-4.6-6.3-8-11.1-8.8c-10.8-1.9-21,6-20.8,17.2c0.1,5,2.6,9.8,6.6,12.8c1.8,1.3,3.9,2.3,6,2.8c3.2,0.7,5.8-0.3,8.9-0.5
				c3.3-0.2,6.2,2.4,9.9-0.6C144.5,65.6,145.7,61.9,145.2,58.8c-0.3-1.9-3.2-1.1-2.9,0.8c0.8,4.7-2.9,6.7-6.9,5.9
				c-0.5-0.1-1.5-0.8-2.2-0.8c-2.1,0-4.1,1.4-6.4,1.4c-9.5,0.1-15.5-9.6-12.3-18.3c2.9-7.9,13.6-11.9,20.9-7
				c3.6,2.4,4.8,5.6,5.2,9.8c0.2,1.8-0.3,3.7,0,5.5c0.2,1.1,1.4,2.5,1.6,3.6C142.8,61.5,145.6,60.7,145.2,58.8z"/>
		</g>
	</g>
	<g>
		<path class="st1" d="M116.9,35.8c-0.2-0.5-0.6-0.9-1-1.1c0,0-0.1,0-0.1,0c-0.1-0.1-0.1-0.2-0.2-0.3c-0.4-0.5-0.8-0.8-1.4-1.1
			c-0.1,0-0.1-0.1-0.2-0.1c-0.4-0.3-0.8-0.5-1.3-0.7c-0.2-0.1-0.4-0.1-0.7-0.1c0-1-0.1-2-0.2-3c-0.2-1.4-0.4-2.7-0.8-4.1
			c-0.2-0.7-0.5-1.3-0.7-2c-0.3-0.6-0.5-1.1-0.9-1.6c-0.4-0.5-0.8-1-1.2-1.4c-0.5-0.4-1-0.8-1.5-1c-0.3-0.1-0.7-0.3-1-0.4
			c-0.3-0.1-0.7-0.1-1-0.1c-0.1,0-0.1,0-0.2,0c-0.6-0.1-1.3-0.1-1.9,0c-0.4,0.1-0.9,0.2-1.3,0.3c-0.3,0.1-0.7,0.3-1,0.5
			c-0.5,0.3-1,0.7-1.4,1.2c-0.3,0.3-0.5,0.7-0.7,1.1c-0.1,0.2-0.2,0.3-0.3,0.5c-0.1,0.2-0.2,0.3-0.2,0.5c0,0,0,0,0,0
			c-0.4,0.6-0.7,1.2-1,1.8c-0.4,0.8-0.6,1.7-0.7,2.6c-0.1,0.7-0.1,1.5,0.1,2.2c0,0,0,0,0,0.1c-0.1,0.1-0.2,0.3-0.2,0.4
			c-0.1,0.7-0.1,1.5-0.2,2.2c-0.2,0-0.5,0-0.7,0c-0.2,0-0.4,0-0.6,0c-0.5,0.1-1.1,0.3-1.6,0.5c-0.5,0.2-0.9,0.5-1.3,0.8
			c-0.2,0.2-0.4,0.4-0.6,0.6c-0.2,0.2-0.3,0.4-0.4,0.7c-0.2,0.3-0.3,0.7-0.4,1c-0.1,0.3-0.1,0.7-0.1,1.1c0.1,0.5,0.2,0.9,0.4,1.3
			c0.1,0.5,0.2,0.7,0.4,1.1c0.1,0.2,0.3,0.4,0.4,0.6c0.2,0.2,0.4,0.5,0.6,0.6c0.8,0.6,1.7,0.9,2.6,1c0.3,0,0.6,0.1,0.8,0.1
			c0.1,0,0.2,0.1,0.3,0.1c0.1,1.6,0.3,3.2,0.6,4.8c0,0.1,0.1,0.3,0.1,0.4c0,0.9,0.1,1.8,0.2,2.8c0,0.6,0.1,1.3,0.1,1.9
			c0.1,1.1,0.2,2.2,0.4,3.3c-0.1,0.8-0.1,1.5-0.2,2.3c0,0.9,0,1.8,0.1,2.8c0.1,0.5,0.1,1,0.2,1.5c0.1,0.3,0.2,0.7,0.3,1
			c0.2,0.5,0.4,0.9,0.7,1.3c0.3,0.4,0.6,0.8,1,1.2c0.4,0.4,0.8,0.7,1.2,1.1c0.3,0.2,0.6,0.4,1,0.6c0.3,0.1,0.6,0.3,0.9,0.4
			c0.1,0.1,0.3,0.1,0.4,0.1c0.1,0,0.3,0.1,0.4,0.1c0.2,0,0.4,0.1,0.6,0.1c0,0,0,0,0,0c0.1,0,0.2,0,0.2,0c0.2,0,0.3,0,0.5-0.1
			c0,0,0,0,0,0c0.3,0,0.5,0,0.8,0c0.1,0,0.1,0,0.2,0c0.9-0.1,1.9-0.3,2.7-0.7c0.4-0.2,0.9-0.4,1.3-0.7c0.3-0.3,0.7-0.5,1-0.9
			c0.6-0.7,1-1.5,1.2-2.4c0.2-0.9,0.3-1.8,0.3-2.7c0-1.9-0.3-3.7-0.5-5.6c0-0.2,0-0.3,0-0.5c0.1-1.7,0.1-3.4,0.1-5.1
			c0-0.4,0.1-0.8,0.1-1.1c0-0.2,0-0.5,0.1-0.7c0.1-1.7,0.2-3.4,0.3-5.1c0.1,0,0.2,0.1,0.2,0.1c0.3,0.1,0.7,0.2,1.1,0.1
			c0.1,0,0.3,0,0.4-0.1c0.4-0.1,0.7-0.2,1.1-0.4c0.2-0.1,0.4-0.3,0.6-0.5c0,0,0.1-0.1,0.1-0.1c0.2-0.1,0.4-0.2,0.5-0.4
			c0.6-0.2,1.1-0.9,1-1.6c0,0,0,0,0,0c0.1-0.5,0.1-1.1-0.1-1.6c0,0,0-0.1,0-0.1C117.1,36.9,117.1,36.3,116.9,35.8z"/>
		<g>
			<path class="st0" d="M118.2,35c-1.1-1.9-3.2-3.7-5.8-4.1c0.4,0.5,0.7,1,1.1,1.4c-0.2-6.8-3.4-18-12.7-14.6
				c-2.8,1-4.3,3.7-5.5,6.4c-0.8,1.8-0.8,3.2-0.9,5.1c-0.1,1.4,0,0.5,0,0.5c0,0.9-0.2,1.9-0.3,2.8c0.5-0.5,1-1,1.5-1.5
				c-3.3,0.2-7,2-7.2,5.7c-0.2,4.7,3.2,5.7,6.7,6.9c-0.4-0.5-0.7-1-1.1-1.4c0.4,3.9,1,7.7,1.2,11.6c0.2,2.8-0.4,5.9,0.4,8.7
				c1,3.6,4.3,6.7,8.1,6.8c3.7,0.1,7.6-1.5,9-5.2c1.2-3.2,0.2-6.5,0.1-9.8c-0.2-4,0.3-8.1,0.5-12.1c-0.6,0.5-1.3,1-1.9,1.4
				c2,0.7,3.7-0.1,5.2-1.4c2.2-1.8,1.6-3.6,1.7-6.2c0.1-1.9-2.9-1.9-3,0c-0.1,1.3,0.3,3.1-0.3,3.9c-0.5,0.7-2.2,1.1-2.8,0.9
				c-1-0.3-1.8,0.5-1.9,1.4c-0.2,4.2-0.7,8.4-0.5,12.6c0.2,4.6,1.4,12.3-6.1,11.5c-5.4-0.6-5.4-6-5.4-10.2c0-4.6-0.9-9.2-1.3-13.8
				c-0.1-0.7-0.4-1.2-1.1-1.4c-1.1-0.4-0.9-0.3-2.5-1.3c-2.3-0.7-2.3-1.8-0.2-3.3c0.3-1.5,1.1-2.2,2.3-2.1c0.8,0,1.4-0.7,1.5-1.5
				c0.2-3.2,0.3-6.5,2.2-9.4c2.2-3.2,6.3-3.6,8.8-0.5c2,2.6,2.3,6.8,2.4,9.9c0,0.6,0.4,1.3,1.1,1.4c1.4,0.3,3.3,1.6,4,2.8
				C116.6,38.2,119.2,36.7,118.2,35z"/>
		</g>
	</g>
	<g>
		<path class="st1" d="M93,49.5c0-0.1-0.1-0.2-0.1-0.2c-0.4-0.7-0.8-1.4-1.4-2c-0.1-0.1-0.2-0.3-0.3-0.4c-0.4-0.4-0.9-0.8-1.5-1
			c0,0-0.1,0-0.1-0.1c-0.4-0.3-0.9-0.4-1.2-0.5c-0.4-0.1-0.8-0.2-1.2-0.3c-0.8-0.2-1.6-0.2-2.5-0.2h0c-0.9-0.1-1.7-0.2-2.4-0.2
			c-0.2,0-0.3,0-0.5,0c-0.7,0-1.4,0-2,0.1c0,0,0,0-0.1,0c0,0-0.1,0.1-0.1,0.1c0,0-0.1,0.1-0.1,0.1c0,0-0.1,0-0.1,0.1
			c0,0-0.1,0-0.2,0c0,0-0.1,0-0.1,0c-0.1,0-0.1,0-0.2,0c0,0-0.1,0-0.1,0c0,0-0.1,0-0.1,0c0,0,0,0-0.1,0c-0.1,0-0.1,0-0.2,0
			c-0.1,0-0.2-0.1-0.2-0.1c0,0,0,0,0,0c0,0,0,0,0-0.1c0,0,0,0,0-0.1c0,0,0,0,0-0.1c-0.1,0-0.1,0-0.2,0c-0.1-0.1-0.1-0.2-0.1-0.3
			c0,0,0,0,0-0.1c0,0,0-0.1,0.1-0.1c0,0,0,0,0,0c0,0,0,0,0-0.1c0,0,0,0,0,0c0,0,0,0,0-0.1c0,0,0,0,0-0.1c0,0,0-0.1,0.1-0.1
			c0,0,0,0,0,0c0,0,0,0,0,0c0,0,0-0.1,0-0.1c0,0,0-0.1,0-0.1c0,0,0-0.1,0.1-0.1c0,0,0.1-0.1,0.1-0.1c0,0,0,0,0.1,0c0,0,0,0,0,0
			c0,0,0,0,0,0c0,0,0,0,0,0c0,0,0.1,0,0.1-0.1c0.1,0,0.1,0,0.2-0.1c0,0,0,0,0,0c0,0,0,0,0,0c0,0,0,0,0,0c0,0,0,0,0,0
			c0.4-0.2,0.8-0.4,1.2-0.5c0.5-0.1,1-0.2,1.5-0.2c0.4,0,0.7,0.1,1.2,0.1l0,0l0.1,0c0.1,0,0.1,0,0.2,0c0.4,0,0.7,0.1,1.1,0.2
			l0.6,0.1c0.6,0.1,1.3,0.2,1.9,0.3c0.3,0,0.7,0,1,0c0.5,0,0.9,0,1.4-0.1c0.2,0,0.4,0,0.6,0c0.1,0,0.2,0,0.4,0
			c0.2,0,0.4-0.1,0.7-0.1c0.3-0.1,0.6-0.2,0.8-0.3c0.3-0.1,0.5-0.3,0.7-0.4c0.2-0.1,0.4-0.3,0.6-0.5c0.2-0.2,0.4-0.4,0.5-0.6
			c0,0,0.1-0.1,0.1-0.1c0.3-0.3,0.5-0.6,0.7-1c0.1-0.2,0.1-0.4,0.2-0.5l0-0.1c0-0.1,0.1-0.2,0.1-0.4c0-0.2,0-0.4,0.1-0.6
			c0-0.2,0-0.5,0-0.6l0-0.1c0-0.3-0.1-0.5-0.2-0.7c-0.1-0.3-0.2-0.6-0.2-0.8c-0.1-0.2-0.2-0.4-0.3-0.6c0-0.2-0.1-0.3-0.2-0.5
			c-0.2-0.2-0.4-0.4-0.5-0.6c-0.1-0.1-0.2-0.1-0.3-0.2l0,0l0,0c-0.1-0.1-0.1-0.1-0.2-0.1c0,0-0.1,0-0.1-0.1c0,0-0.1,0-0.1-0.1
			c0,0,0,0,0,0l0,0l0,0c-0.1-0.2-0.2-0.3-0.3-0.4c-0.3-0.3-0.7-0.5-1.1-0.7c-0.5-0.2-1-0.5-1.7-0.6c-0.3-0.1-0.6-0.2-1-0.2
			c-0.8-0.2-1.7-0.3-2.7-0.3c-0.1,0-0.2,0-0.3,0c-0.5,0-1,0-1.5,0.1c-0.1,0-0.1,0-0.2,0c0,0,0,0-0.1,0c0,0-0.1,0-0.2,0
			c-0.1,0-0.3,0-0.4,0c-0.6,0-1.2,0.1-1.9,0.2c-0.8,0.2-1.7,0.4-2.5,0.8c-0.8,0.4-1.7,0.8-2.5,1.3c-0.8,0.5-1.5,1.2-2.1,1.9
			c-0.4,0.5-0.8,1-1.1,1.6c-0.4,0.4-0.7,1-1,1.6c-0.3,0.5-0.5,1.2-0.7,1.9c-0.1,0.3-0.2,0.6-0.3,1c-0.1,0.4-0.3,0.9-0.3,1.3
			c-0.1,0.9-0.1,1.8,0,2.6c0,0.3,0,0.6,0,0.9c0,0.3,0,0.5,0,0.8c0,0.1,0,0.1,0,0.2c0,0,0,0.1,0,0.1l0,0.2l0.1,0.4
			c0.1,0.3,0.2,0.7,0.3,1.1c0.1,0.3,0.2,0.5,0.4,0.8c0,0,0,0,0,0.1c0,0,0,0.1,0,0.1c0.1,0.1,0.1,0.2,0.2,0.3c0,0,0,0.1,0.1,0.1
			c0.1,0.1,0.2,0.3,0.4,0.4c0,0,0,0,0,0.1c0,0,0.1,0.1,0.1,0.1l0.4-0.3l0,0L72,51.9c0.1,0.1,0.2,0.2,0.3,0.3l0,0h0c0,0,0,0,0,0
			c0.1,0.1,0.1,0.1,0.2,0.2c0,0,0,0,0,0l0.1,0l0.1,0.1l0.1,0.1c0,0,0,0,0.1,0l0.1,0.1c0,0,0,0,0,0c0.1,0.1,0.3,0.2,0.4,0.3
			c0,0,0,0,0.1,0c0,0,0,0,0.1,0l0.1,0c0.2,0.1,0.4,0.2,0.5,0.2c0.1,0,0.2,0.1,0.3,0.1c0,0,0.1,0,0.1,0l0.1,0c0,0,0.1,0,0.1,0
			l0.2,0.1c0,0,0.1,0,0.1,0l0.2,0.1l0.1,0l0.2-0.4c0,0,0,0,0,0l-0.1,0.5c0,0,0,0,0.1,0c0.1,0,0.2,0.1,0.3,0.1l0.1,0l0.2,0.1l0.1,0
			l0.1,0l0.2,0c0,0,0.1,0,0.1,0c0,0,0.1,0,0.1,0l0.1,0l0,0l0.1,0l0.2,0l0.1,0c0.2,0,0.4,0.1,0.5,0.1c0.1,0,0.3,0,0.4,0
			c0,0,0,0,0.1,0c0.4,0,0.7,0.1,1.1,0.1c0,0,0.1,0,0.1,0c0,0,0.1,0,0.1,0c0.2,0,0.4-0.1,0.6-0.1c0,0,0.1,0,0.1,0l0.1,0
			c0,0,0.1,0,0.1,0c0,0,0.1,0,0.1,0c0.1,0,0.2-0.1,0.3-0.1c0,0,0,0,0,0c0,0,0.1,0,0.1,0c0,0,0,0,0.1,0c0,0,0.1,0,0.1,0
			c0,0,0.1,0,0.1,0c0,0,0,0,0.1,0c0.1,0,0.2,0,0.2,0l0.1,0c0.3,0,0.5-0.1,0.7-0.1c0,0,0,0,0,0h0c0,0,0.1,0,0.1,0
			c0.3,0,0.6-0.1,0.9-0.2l0.2,0c0.8,0.1,1.3,0.3,1.9,0.5c0.4,0.2,0.7,0.3,1,0.5c0.1,0.1,0.2,0.2,0.3,0.3c0.1,0.1,0.1,0.2,0.1,0.3
			c0,0,0,0.1,0,0.1c0,0.1,0,0.2-0.1,0.3c0,0.1,0,0.1-0.1,0.2c0,0.1-0.1,0.1-0.1,0.2c-0.1,0.1-0.1,0.1-0.2,0.2c0,0-0.1,0-0.1,0
			c-0.2,0.1-0.4,0.2-0.5,0.2l-0.1,0.1c0,0-0.1,0-0.1,0.1c-0.2,0-0.4,0.1-0.6,0.1h-0.1c-0.5,0-1-0.2-1.5-0.3
			c-0.2-0.1-0.5-0.1-0.7-0.2c-0.4-0.1-0.7-0.2-1.1-0.3c-0.3-0.1-0.6-0.1-1-0.2c-0.4-0.1-0.8-0.1-1.1-0.1c-0.4,0-0.8,0-1.2,0.1
			c-0.1,0-0.2,0.1-0.3,0.1c-0.2,0-0.3,0-0.5,0c-0.1,0-0.3,0-0.4,0c-1,0-1.8,0.1-2.6,0.4c-1.2,0.3-2.1,0.8-2.8,1.4
			c-0.9,0.8-1.5,1.9-1.7,3.1c0,0.4-0.1,0.7-0.1,1c0,0.3,0.1,0.7,0.1,1.1c0,0.1,0,0.2,0.1,0.3c0,0.1,0,0.1,0.1,0.2c0,0,0,0,0,0
			c0,0,0,0,0,0.1c0,0,0,0,0,0.1c0,0.1,0.1,0.2,0.2,0.3l0.1,0.1l0,0.1c0.1,0.1,0.1,0.1,0.2,0.2l0.2,0.3c0.1,0.1,0.2,0.2,0.3,0.4
			c0.2,0.3,0.6,0.7,1,1.1c0,0,0,0,0.1,0c0.1,0.1,0.2,0.1,0.3,0.2c0.1,0.1,0.2,0.1,0.3,0.2c0,0,0,0,0,0c0,0,0.1,0,0.1,0.1L73,66
			c0,0,0,0,0,0l-0.2,0.4l0.1,0c0.1,0,0.1,0.1,0.2,0.1l0.1,0c0.2,0.1,0.4,0.2,0.6,0.2l0.3,0.1l0.1,0l0.1,0l0.1,0.1c0,0,0,0,0,0l0.1,0
			l0.1,0c0.1,0.1,0.3,0.1,0.4,0.2c0.1,0,0.1,0,0.2,0c0.3,0.1,0.7,0.1,1,0.1c0,0,0.1,0,0.1,0c0.1,0,0.2,0,0.3,0
			c0.1,0.1,0.2,0.1,0.3,0.1c0.4,0,0.9,0,1.3,0c0.4,0,0.9,0,1.3,0c0.4,0,0.8-0.1,1.2-0.1l0,0c0.3,0,0.6,0,1,0c0.3,0,0.6,0,0.9,0h0.3
			l0.3,0c0.2,0,0.4,0,0.6,0c0.2,0,0.4,0,0.6,0l0.1,0c0.3,0,0.6,0,1-0.1c0.1,0,0.3,0,0.4,0c0.6-0.1,1.2-0.2,1.8-0.4
			c0.6-0.2,1.2-0.4,1.7-0.7c0.6-0.4,1.2-0.8,1.6-1.2c0.3-0.3,0.5-0.6,0.7-0.9c0.2-0.3,0.4-0.6,0.6-0.9c0.1-0.2,0.2-0.4,0.3-0.7
			c0-0.1,0.1-0.1,0.1-0.2c0.2-0.4,0.4-0.8,0.6-1.3c0.2-0.4,0.3-0.9,0.4-1.4c0-0.2,0.1-0.4,0.1-0.7c0-0.1,0-0.2,0.1-0.2
			c0.3-0.8,0.5-1.7,0.6-2.6c0.2-1.6,0.1-3-0.3-4.3C93.9,51,93.5,50.2,93,49.5z"/>
		<g>
			<path class="st0" d="M94.3,48.7c-1.9-4.1-5.5-5.2-9.7-5.5c-1.1-0.1-4.8-0.8-5.7,0.1c-0.4,0.4,0.2,0.1,0.2,0.1
				c-0.6,1,0.3-5.6,0.5,1.1c0-0.7-0.5-1.3-1.1-1.4c0.4,0.1-0.3,3,0.5,2c0,0,0.5-0.6,0.4-0.7c0,0,0.1-0.4,0.1-0.5
				c-1.3-0.7,1.3-0.6-0.2-0.1c0.5-0.1-0.8,1.6,0,0.6c0.1-0.2-0.8,0.3-0.3,0.1c0.3-0.1,0.7-0.6,0.9-0.7c1.9-0.3,4.1,0.4,6,0.6
				c3.7,0.4,7.8-0.1,9.4-4c1-2.4,0.1-5.8-2.1-7.2c-0.4,0.9-0.8,1.8-1.2,2.7c0,0,0,0,0,0c1.4,0.5,2.5-1.5,1.5-2.5
				c-0.7-0.6-0.5-0.6-0.2,0c-0.1,0.6-0.2,1.2-0.2,1.8c0,0,0,0,0,0c1.2-0.9-0.1-3-1.5-2.5c0,0,0,0,0,0c0.6,0.2,1.1,0.5,1.7,0.7
				c-4.8-6.4-17.6-2.6-21.5,2.8c-3.1,4.3-5,12.3-0.8,16.6c0.6,0.6,1.5,0.5,2.1,0c0.1-0.1,0.2-0.2,0.4-0.3c-0.7,0-1.4,0-2.1,0
				c0,0,0,0,0,0c0-0.7,0-1.4,0-2.1c-0.1,0.1-0.2,0.2-0.3,0.3c-0.6,0.6-0.6,1.6,0,2.1c0.2,0.2,0.8,0.5,1,0.7c0.7,0.8-1.2-0.7-0.4-0.2
				c0.3,0.2,0.5,0.4,0.7,0.6c0.8,0.5,1.6,0.9,2.5,1.1c0.8,0.2,1.6-0.3,1.8-1c0.1-0.1,0.1-0.3,0.2-0.4c-0.6,0.3-1.2,0.7-1.8,1
				c0,0,0,0,0,0c-0.3-0.6-0.7-1.2-1-1.8c0,0.2-0.1,0.3-0.1,0.5c-0.2,0.8,0.3,1.6,1,1.8c1.8,0.5,3.7,0.7,5.5,0.5
				c0.4,0,0.8-0.3,1.2-0.3c0.4,0,0.8-0.2,1.2-0.2c-0.1,0,3,0.3,2.7-0.3c0-0.1-0.9,0.5-1,0.5c-5.1-1.4-14.9-2.2-16.2,5.1
				c-0.5,3,1,6,3.7,7.4c0.7,0.4,1.6,0.2,2.1-0.5c0.1-0.1,0.2-0.3,0.2-0.4c-0.7,0.2-1.4,0.4-2.1,0.5c0,0,0,0,0,0
				c-0.2-0.7-0.4-1.4-0.5-2.1c-0.1,0.1-0.1,0.3-0.2,0.4c-0.4,0.7-0.2,1.7,0.5,2.1c3.9,2,8,1.4,12.3,1.1C94,68.2,99,57,94.3,48.7
				c-0.9-1.7-3.5-0.2-2.6,1.5c2.1,3.7,1.4,10.4-1.8,13.6c-2.3,2.3-5.4,1.9-8.3,2c-2.8,0.1-5.5,0.6-8.1-0.7c0.2,0.7,0.4,1.4,0.5,2.1
				c0.1-0.1,0.1-0.3,0.2-0.4c0.4-0.7,0.2-1.7-0.5-2.1c0,0,0,0,0,0c-0.7-0.4-1.6-0.2-2.1,0.5c-0.1,0.1-0.2,0.3-0.2,0.4
				c0.7-0.2,1.4-0.4,2.1-0.5c-0.8-0.4-2.1-2.1-2.1-2.2c-0.8-3,3.4-5.4,5.8-5.6c1.9-0.1,3.5,0.2,5.4,0.5c2.2,0.4,7.3-0.4,4.8-3.9
				c-2.3-3.1-8.5-0.9-11.8-1.7c0.3,0.6,0.7,1.2,1,1.8c0-0.2,0.1-0.3,0.1-0.5c0.2-0.7-0.3-1.7-1-1.8c0,0,0,0,0,0
				c-0.8-0.2-1.6,0.2-1.8,1c-0.1,0.1-0.1,0.3-0.2,0.4c0.6-0.3,1.2-0.7,1.8-1c-0.6-0.2-1.2-0.4-1.8-0.8c-0.5-0.3,0.1,0-0.2-0.2
				c-0.2-0.1-0.5-0.3-0.6-0.4c-1.3-1,1.1,0.9,0.2,0c0,0.7,0,1.4,0,2.1c0.1-0.1,0.2-0.2,0.3-0.3c0.6-0.6,0.6-1.5,0-2.1c0,0,0,0,0,0
				c-0.6-0.6-1.5-0.5-2.1,0c-0.1,0.1-0.2,0.2-0.4,0.3c0.7,0,1.4,0,2.1,0c-2.6-2.7-1.3-8.3,0.1-11c2-3.9,5.7-5.9,9.9-6.2
				c1.3-0.1,6.3-0.4,7.7,1.4c0.4,0.5,1,0.9,1.7,0.7c0,0,0,0,0,0c-0.5-0.8-1-1.7-1.5-2.5c0,0,0,0,0,0c-0.6,0.4-0.5,1.3-0.2,1.8
				c0.1,0.3,0.8,0.7,0.7,0.6c0.5-0.8,1-1.7,1.5-2.5c0,0,0,0,0,0c-1.7-0.6-2.5,1.8-1.2,2.7c2.1,1.4,0.7,4.5-0.9,5.3
				c-2.1,1.1-4.8,0.3-7,0c-1.3-0.2-3-0.5-4.6,0.1c-1.8,0.7-1.7,1.6-0.5,0.3c-0.3,0.3-0.8,0.2-1,0.3c-0.9,0.4,0.6-0.6-0.1,0.1
				c-0.2,0.2-0.5,0.3-0.7,0.6c-0.5,0.9-0.4,0.2-0.5,1.3c-0.1,1.8,1.1-0.8,0.8-1.1c0-0.1-0.7,0.6-0.7,0.7c0.1,1.1-0.4,2.1,1.1,2.5
				c-0.4-0.5-0.7-1-1.1-1.4c0.1,1.8,1.7,1.8,3,1.8c0.2,0,2.1-0.6-0.3-0.2c1.1-0.2,2.4-0.1,3.5-0.1c3.6,0.1,7.2,0.6,8.9,4.2
				C92.6,52,95.2,50.5,94.3,48.7z"/>
		</g>
	</g>
	<g>
		<path class="st1" d="M127,56.9c0.2,0,0.3-0.1,0.5-0.2c0.2,0,0.4,0,0.6-0.1c0,0,0.1,0,0.1,0c0.1,0,0.2,0,0.2,0c0.2,0,0.4,0,0.6,0
			c0.1,0,0.1,0,0.2,0c0,0,0,0,0,0c0.1,0,0.3,0,0.4,0c0.1,0,0.2-0.1,0.3-0.1c0.1,0,0.1-0.1,0.2-0.1c0,0,0,0,0.1-0.1
			c0.1,0,0.1,0,0.2,0c0.1,0,0.2-0.1,0.3-0.1c0.1-0.1,0.2-0.2,0.4-0.3c0.1-0.1,0.1-0.2,0.2-0.2c0.1-0.1,0.2-0.3,0.3-0.5
			c0.1-0.2,0.2-0.4,0.2-0.6c0.1-0.2,0.1-0.3,0.2-0.5c0-0.2,0.1-0.4,0.1-0.6c0-0.2,0-0.4,0-0.6c0-0.2-0.1-0.4-0.1-0.6
			c-0.1-0.2-0.1-0.4-0.2-0.6c-0.1-0.1-0.1-0.2-0.2-0.3c0-0.1-0.1-0.2-0.2-0.3c-0.1-0.1-0.1-0.1-0.2-0.2c-0.1-0.2-0.2-0.5-0.3-0.7
			c-0.2-0.3-0.4-0.6-0.7-0.8c-0.1-0.1-0.2-0.1-0.3-0.1c-0.1,0-0.2,0-0.3-0.1c-0.1,0-0.2,0-0.3,0c-0.1,0-0.2,0-0.3,0.1
			c-0.1-0.2-0.2-0.4-0.4-0.6c-0.4-0.3-0.9-0.4-1.3,0c-0.1,0.1-0.2,0.1-0.2,0.2c-0.1,0.1-0.2,0.2-0.2,0.4c0,0,0,0,0,0
			c-0.1,0-0.2,0.1-0.2,0.1c0,0-0.1,0-0.1,0c-0.1,0-0.2,0-0.3,0c-0.1,0-0.2,0.1-0.3,0.1c-0.1,0.1-0.3,0.2-0.4,0.3c0,0,0,0,0,0
			c0,0,0,0,0,0c-0.1,0.1-0.3,0.1-0.4,0.2c-0.1,0.1-0.2,0.2-0.3,0.3c-0.1,0.1-0.2,0.2-0.3,0.4c-0.1,0.2-0.2,0.4-0.3,0.6
			c0,0.1,0,0.2-0.1,0.2c0,0,0,0,0,0c0,0,0,0.1,0,0.1c0,0,0,0,0,0c0,0.1-0.1,0.3-0.1,0.4c0,0.2-0.1,0.4-0.1,0.7c0,0,0,0,0,0
			c0,0,0,0,0,0c0,0.3,0,0.7,0,1.1c0,0.3,0.1,0.7,0.2,1c0.1,0.2,0.2,0.4,0.3,0.6c0.1,0.1,0.1,0.2,0.2,0.4c0.1,0.2,0.2,0.3,0.4,0.4
			c0.1,0.1,0.3,0.3,0.4,0.4c0.2,0.2,0.5,0.2,0.8,0.3c0.1,0,0.2,0,0.3,0C126.6,57,126.8,57,127,56.9L127,56.9L127,56.9z"/>
		<g>
			<path class="st0" d="M127.4,58.4c0.7-0.2,0.3-0.1,1-0.2c0.3,0,0.7,0,1-0.1c-0.7-0.1-0.8-0.1-0.4,0c0.9-0.1,1.5-0.1,2.2-0.8
				c-0.4,0.1-0.7,0.3-1.1,0.4c2.8-0.2,3.9-3.8,3.1-6.1c-0.7-2-2.3-4.4-4.7-3.8c0.6,0.2,1.1,0.5,1.7,0.7c-1.1-2-3.7-2-4.8,0
				c0.3-0.2,0.6-0.5,0.9-0.7c0.5,0.1,0.6,0.1,0.2,0c-0.2,0-0.3,0-0.5,0c-0.4,0-0.7,0.1-1,0.3c-0.2,0.1-1.2,0.9-0.4,0.3
				c-0.3,0.2-0.6,0.4-0.9,0.6c-0.8,0.7-1.1,1.8-1.3,2.9c-0.5,2.9,1,6.6,4.5,6.3c1.9-0.2,1.9-3.2,0-3c-1.6,0.1-1.9-2.3-1.4-3.5
				c0.1-0.3,0.5-0.5,0.6-0.8c0.1-0.1,0.2-0.2,0.3-0.3c-0.4-0.1-0.5-0.1-0.2,0c0.4-0.1,0.8,0,1.2-0.3c0.9-0.6,0.3-0.3,0.1-0.6
				c0.3,0.6,1.1,0.8,1.7,0.7c0,0,0.9,1.5,0.9,1.7c0.2,0.6,0.2,1.2,0,1.8c0,0.1-0.5,0.9-0.2,0.6c-0.2,0.2-0.8,0.3-1.1,0.4
				c0.2,0,0.3,0,0.5,0c-0.3-0.1-0.5-0.1-0.8,0c-0.6,0-1.4,0.1-2.2,0.3C124.8,56.1,125.5,59,127.4,58.4z"/>
		</g>
	</g>
</g>
<g>
	<g>
		<path class="st1" d="M409.3,50.6c0-0.4-0.1-0.8-0.1-1.2c0-1.2,0-2.5-0.1-3.7c-0.1-3.1-0.5-6.1-0.8-9.2c-0.1-0.6-0.1-1.2-0.2-1.9
			c0-1.7-0.1-3.4-0.3-5.2c0-0.2,0-0.3,0-0.5c0.1-1.9,0.4-3.7,0.3-5.6c0-0.9-0.2-1.8-0.5-2.7c-0.3-0.9-0.8-1.7-1.4-2.3
			c-0.3-0.3-0.7-0.6-1.1-0.8c-0.4-0.3-0.9-0.5-1.4-0.7c-0.9-0.4-1.9-0.6-2.9-0.6c-0.1,0-0.2,0-0.2,0c-0.3,0-0.6,0-0.9,0.1
			c0,0,0,0,0,0c-0.2-0.1-0.5-0.1-0.7-0.1c0,0,0,0,0,0c-0.2,0-0.5,0-0.7,0.1c-0.1,0-0.3,0.1-0.4,0.1c-0.2,0-0.3,0.1-0.5,0.2
			c-0.3,0.1-0.6,0.2-0.9,0.4c-0.4,0.2-0.7,0.4-1,0.6c-0.5,0.3-0.9,0.7-1.3,1.1c-0.4,0.4-0.7,0.8-1,1.2c-0.3,0.4-0.5,0.9-0.7,1.3
			c-0.1,0.3-0.2,0.6-0.3,1c-0.1,0.5-0.1,1-0.2,1.5c-0.1,0.9-0.1,1.9,0,2.8c0.1,0.8,0.2,1.6,0.3,2.3c-0.1,1.1-0.2,2.2-0.3,3.4
			c0,0.6-0.1,1.3-0.1,1.9c-0.1,0.9-0.1,1.9-0.1,2.8c0,0.1,0,0.3-0.1,0.4c-0.3,1.9-0.5,3.8-0.5,5.7c-0.1,3.7,0.1,7.4,0.7,11.1
			c0,0.2,0.1,0.3,0.2,0.4c0,0,0,0,0,0.1c-0.2,0.7-0.1,1.5,0,2.2c0.1,0.9,0.5,1.8,0.9,2.6c0.5,0.9,1.1,1.7,1.7,2.5
			c0.3,0.4,0.7,0.7,1,1.1c0.4,0.4,0.9,0.7,1.3,1c0.7,0.5,1.6,0.8,2.5,1c0.7,0.2,1.5,0.2,2.2,0.1c0.4,0,0.7-0.1,1.1-0.2
			c0.4-0.1,0.7-0.2,1.1-0.4c0.6-0.3,1.1-0.6,1.6-1.1c0.5-0.4,0.9-1,1.3-1.5c0.3-0.5,0.6-1.1,0.9-1.6c0.3-0.7,0.5-1.3,0.7-2
			c0.4-1.3,0.6-2.7,0.7-4.1C409.3,53.1,409.4,51.9,409.3,50.6z"/>
		<g>
			<path class="st0" d="M410.8,50.6c-0.8-7.5-1.9-15.9-1.3-23.4c0.4-5.5-0.4-10.8-6.7-12.2c-2.8-0.6-5.6-0.3-8,1.3
				c-5.4,3.7-3.9,9.5-4.1,15.1c-0.3,7.4-1.6,14.9-0.2,22.3c0.4,2.2,0.2,0.2,0.3,1c0.1,1.1-0.1,2.2,0.2,3.3c0.7,2.6,2.4,5.1,4.5,6.7
				c3.2,2.5,7.6,2.9,10.8,0.3C410.4,61.7,410.9,55.4,410.8,50.6c-0.1-1.9-3.1-1.9-3,0c0.1,3.7,0,9.3-3.2,12
				c-3.2,2.7-7.3,0.5-9.3-2.5c-1.2-1.8-1.1-3.6-1.4-5.5c-1.4-8.5-0.2-16.4,0-24.9c0.1-4.2-1.2-10.4,4.5-11.9c3.8-1,7.9,1.6,8.3,5.6
				c0.2,2-0.4,4.1-0.4,6.1c0,2.3,0.3,4.7,0.5,7c0.4,4.7,0.5,9.4,1,14C408,52.5,411,52.5,410.8,50.6z"/>
		</g>
	</g>
	<g>
		<g>
			<path class="st1" d="M465.7,57.2c0-0.1,0-0.2-0.1-0.3c-0.1-1.1-0.5-2-1.1-2.7c0,0,0,0,0,0c-0.1-0.3-0.3-0.6-0.5-0.9
				c0.3-1.4,0.3-2.8,0.2-4.2c0-0.4-0.1-0.8-0.2-1.3c0-0.4,0-0.8-0.1-1.1c-0.1-1.2-0.4-2.4-0.8-3.5c-0.2-0.6-0.5-1.2-0.9-1.8
				c-0.4-0.6-0.8-1.2-1.3-1.7c-0.8-1-1.9-1.9-3-2.7c-1.1-0.8-2.3-1.3-3.5-1.7c-0.5-0.2-1.1-0.3-1.7-0.3c-0.8-0.1-1.5-0.2-2.3-0.2
				c0,0-0.1,0-0.1,0c-1.3,0-2.7,0.2-4,0.4c-2.3,0.3-4.5,1.1-6.4,2.5c-0.3,0.2-0.7,0.5-1,0.8c-0.1,0.1-0.2,0.2-0.4,0.3
				c-0.4,0.4-0.8,0.8-1.2,1.2c-0.4,0.5-0.9,1.1-1.2,1.7c-0.6,1-1.1,2.1-1.6,3.2c-0.6,1.4-0.8,3-1,4.5c-0.1,1.4,0,2.9,0.3,4.3
				c0.3,1.4,0.8,2.7,1.5,3.9c0.3,0.5,0.6,1.1,1,1.6c0.5,0.6,0.9,1.2,1.5,1.8c0.5,0.5,1.1,1,1.7,1.4c0.5,0.4,1.1,0.8,1.7,1.1
				c0.6,0.4,1.3,0.7,2,0.9c0.6,0.3,1.3,0.4,2,0.6c3.2,0.7,6.6,0.2,9.6-1.1c0.7,0.4,1.4,0.7,2.3,0.8c0,0,0,0,0,0
				c0.1,0,0.1,0.1,0.2,0.1c0.4,0.2,0.9,0.3,1.4,0.4c0.5,0.1,1,0.1,1.5,0c0.5-0.1,1-0.2,1.5-0.5c0.3-0.2,0.6-0.3,0.9-0.6
				c0.1-0.1,0.2-0.1,0.3-0.2c0,0,0,0,0,0c0.2-0.1,0.3-0.3,0.5-0.4c0.2-0.1,0.3-0.3,0.3-0.5c0.2-0.3,0.5-0.7,0.7-1
				c0.5-0.8,0.7-1.6,0.9-2.5C465.8,58.7,465.8,57.9,465.7,57.2z"/>
			<g>
				<path class="st0" d="M467.1,56.8c-0.3-1.9-1.2-3.2-1.4-4.9c-0.4-3.1,0-6.1-1.1-9.1c-1.6-4.1-5.4-7.7-9.7-8.9
					c-10.5-3-21.3,3.9-22.5,14.7c-1.2,10.5,7.8,19.5,18.3,18.1c1.5-0.2,3.1-1,4.7-0.9c0.4,0,2.8,0.7,1.4,0.4c2.2,0.6,3.7,1.1,5.9,0
					c3.2-1.6,4.7-5.5,4.6-8.9c-0.1-1.9-3.1-1.9-3,0c0.2,4.5-2.2,7.2-6.9,6c-1-0.3-1.5-0.7-2.5-0.8c-1.8-0.1-4.2,1.3-6.2,1.4
					C438.3,64,432.5,52.9,436.7,44c3.8-8,15.8-10.5,22.3-4.2c2.9,2.8,3.7,6.7,3.7,10.7c0,1.7-0.3,2.2,0,3.6c0.3,1.2,1.3,2.2,1.5,3.6
					C464.6,59.5,467.5,58.7,467.1,56.8z"/>
			</g>
		</g>
		<g>
			<path class="st1" d="M447.8,53.9c0.2,0,0.3-0.1,0.5-0.2c0.2,0,0.4,0,0.6-0.1c0,0,0.1,0,0.1,0c0.1,0,0.2,0,0.2,0
				c0.2,0,0.4,0,0.6,0c0.1,0,0.1,0,0.2,0c0,0,0,0,0,0c0.1,0,0.3,0,0.4,0c0.1,0,0.2-0.1,0.3-0.1c0.1,0,0.1-0.1,0.2-0.1
				c0,0,0,0,0.1-0.1c0.1,0,0.1,0,0.2,0c0.1,0,0.2-0.1,0.3-0.1c0.1-0.1,0.2-0.2,0.4-0.3c0.1-0.1,0.1-0.2,0.2-0.2
				c0.1-0.1,0.2-0.3,0.3-0.5c0.1-0.2,0.2-0.4,0.2-0.6c0.1-0.2,0.1-0.4,0.2-0.5c0-0.2,0.1-0.4,0.1-0.6c0-0.2,0-0.4,0-0.6
				c0-0.2-0.1-0.4-0.1-0.6c-0.1-0.2-0.1-0.4-0.2-0.6c-0.1-0.1-0.1-0.2-0.2-0.3c0-0.1-0.1-0.2-0.2-0.3c-0.1-0.1-0.1-0.1-0.2-0.2
				c-0.1-0.2-0.2-0.5-0.3-0.7c-0.2-0.3-0.4-0.6-0.7-0.8c-0.1-0.1-0.2-0.1-0.3-0.1c-0.1,0-0.2,0-0.3-0.1c-0.1,0-0.2,0-0.3,0
				c-0.1,0-0.2,0-0.3,0.1c-0.1-0.2-0.2-0.4-0.4-0.6c-0.4-0.3-0.9-0.4-1.3,0c-0.1,0.1-0.2,0.1-0.2,0.2c-0.1,0.1-0.2,0.2-0.2,0.4
				c0,0,0,0,0,0c-0.1,0-0.2,0.1-0.2,0.1c0,0-0.1,0-0.1,0c-0.1,0-0.2,0-0.3,0c-0.1,0-0.2,0.1-0.3,0.1c-0.1,0.1-0.3,0.2-0.4,0.3
				c0,0,0,0,0,0c0,0,0,0,0,0c-0.1,0.1-0.3,0.1-0.4,0.2c-0.1,0.1-0.2,0.2-0.3,0.3c-0.1,0.1-0.2,0.2-0.3,0.4c-0.1,0.2-0.2,0.4-0.3,0.6
				c0,0.1,0,0.2-0.1,0.2c0,0,0,0,0,0c0,0,0,0.1,0,0.1c0,0,0,0,0,0c0,0.1-0.1,0.3-0.1,0.4c0,0.2-0.1,0.4-0.1,0.7c0,0,0,0,0,0
				c0,0,0,0,0,0c0,0.4,0,0.7,0,1.1c0,0.3,0.1,0.7,0.2,1c0.1,0.2,0.2,0.4,0.3,0.6c0.1,0.1,0.1,0.2,0.2,0.4c0.1,0.2,0.2,0.3,0.4,0.4
				c0.1,0.1,0.3,0.3,0.5,0.4c0.2,0.2,0.5,0.2,0.8,0.3c0.1,0,0.2,0,0.3,0C447.5,54,447.7,54,447.8,53.9L447.8,53.9L447.8,53.9z"/>
			<g>
				<path class="st0" d="M448.2,55.4c0.7-0.2,0.3-0.1,1-0.2c0.3,0,0.7,0,1-0.1c-0.7-0.1-0.8-0.1-0.4,0c0.9-0.1,1.5-0.1,2.2-0.8
					c-0.4,0.1-0.7,0.3-1.1,0.4c2.8-0.2,3.9-3.8,3.1-6.1c-0.7-2-2.3-4.4-4.7-3.8c0.6,0.2,1.1,0.5,1.7,0.7c-1.1-2-3.7-2-4.8,0
					c0.3-0.2,0.6-0.5,0.9-0.7c0.5,0.1,0.6,0.1,0.2,0.1c-0.2,0-0.3,0-0.5,0c-0.4,0-0.7,0.1-1,0.3c-0.2,0.1-1.2,0.9-0.4,0.3
					c-0.3,0.2-0.6,0.4-0.9,0.6c-0.8,0.7-1.1,1.9-1.3,2.9c-0.5,2.9,1,6.6,4.5,6.4c1.9-0.2,1.9-3.2,0-3c-1.7,0.1-1.9-2.3-1.4-3.5
					c0.1-0.3,0.5-0.5,0.6-0.8c0.1-0.1,0.2-0.2,0.3-0.3c-0.4-0.1-0.5-0.1-0.1,0c0.4-0.1,0.8,0,1.2-0.3c0.9-0.6,0.3-0.3,0.2-0.6
					c0.3,0.6,1.1,0.8,1.7,0.7c0,0,0.9,1.5,1,1.7c0.2,0.6,0.2,1.2,0,1.8c0,0.1-0.5,0.9-0.2,0.6c-0.2,0.2-0.8,0.3-1.1,0.4
					c0.2,0,0.3,0,0.5,0c-0.3-0.1-0.5-0.1-0.8,0c-0.6,0-1.4,0.1-2.2,0.3C445.6,53.1,446.4,56,448.2,55.4z"/>
			</g>
		</g>
	</g>
	<g>
		<path class="st1" d="M434.5,58.2c-0.1-0.4-0.2-0.8-0.3-1.2c0-0.1,0-0.2,0-0.3c-0.1-0.3-0.2-0.7-0.3-1c0-0.1-0.1-0.2-0.1-0.3
			c0-0.1,0-0.2,0-0.3c-0.1-0.5-0.3-0.9-0.6-1.4c-0.1-0.2-0.2-0.3-0.4-0.5c-0.3-0.6-0.8-1.1-1.5-1.3c-0.2-0.1-0.4-0.1-0.6-0.1
			c-0.2,0-0.5,0-0.7,0c-0.1,0-0.2,0-0.3,0c-0.2,0-0.4,0-0.6,0c-0.4,0-0.9,0-1.3,0.1c-0.5,0.1-0.9,0.2-1.4,0.3
			c-0.5,0.2-1.1,0.4-1.6,0.7c-0.2,0.1-0.4,0.3-0.6,0.4c-0.1,0.1-0.2,0.2-0.4,0.3c-0.2,0.1-0.4,0.2-0.6,0.2c-0.3,0.1-0.6,0.1-0.9,0.2
			c-0.2,0-0.4,0-0.6-0.1c-0.2,0-0.3-0.1-0.4-0.2c-0.2-0.1-0.3-0.2-0.4-0.3c-0.2-0.2-0.3-0.4-0.5-0.6c-0.2-0.4-0.4-0.9-0.6-1.3
			c-0.1-0.3-0.2-0.7-0.2-1.1c0,0,0-0.1,0-0.1c0.2,0,0.3,0,0.5,0.1c0.3,0.1,0.7,0.2,1,0.3c0.6,0.1,1.2,0.1,1.8,0.1c0,0,0.1,0,0.1,0
			c0.1,0,0.2,0.1,0.2,0.1c0.9,0.3,2.1,0.4,3,0c0.2-0.1,0.3-0.2,0.5-0.2c0.2-0.1,0.4-0.3,0.5-0.4c0,0,0,0,0,0c0.2,0,0.3-0.1,0.5-0.1
			c0.1,0,0.2,0,0.3,0c0.2,0,0.5,0,0.7,0c0.2,0,0.4-0.1,0.6-0.1c0.3-0.1,0.6-0.2,0.8-0.3c0,0,0,0,0,0c0,0,0,0,0,0
			c0.3-0.1,0.6-0.1,0.9-0.3c0.2-0.1,0.4-0.2,0.6-0.3c0.2-0.1,0.4-0.3,0.6-0.4c0.2-0.2,0.4-0.4,0.6-0.7c0.1-0.1,0.1-0.2,0.1-0.3
			c0,0,0,0,0,0c0,0,0-0.1,0-0.1c0,0,0,0,0,0c0.1-0.1,0.2-0.3,0.2-0.4c0.1-0.2,0.1-0.5,0.1-0.7c0,0,0,0,0,0c0,0,0,0,0,0
			c0-0.4,0-0.7-0.1-1.1c-0.1-0.4-0.3-0.7-0.5-1c-0.2-0.2-0.4-0.4-0.6-0.6c-0.1-0.1-0.3-0.2-0.5-0.4c-0.2-0.2-0.5-0.3-0.8-0.4
			c-0.3-0.1-0.7-0.3-1-0.4c-0.5-0.2-1.1-0.2-1.7-0.3c-0.2,0-0.5,0-0.7,0c-0.4,0-0.8,0-1.2,0.1c-0.4,0-0.8,0.1-1.1,0.2
			c-0.4,0-0.9,0-1.3,0.1c-0.1,0-0.1,0-0.2,0c-0.2,0-0.4,0-0.6,0c-0.5,0-0.9,0-1.4,0c-0.1,0-0.1,0-0.2,0c0.5-0.4,1-0.7,1.5-1.1
			c0.7-0.4,1.3-0.7,2.1-0.9c0.2-0.1,0.4-0.1,0.7-0.1c0.5-0.1,1-0.1,1.6-0.1c0.6,0,1.1,0,1.7-0.1c0.7,0,1.4-0.2,2-0.4
			c0.6-0.2,1.2-0.5,1.7-0.8c0.3-0.2,0.5-0.5,0.8-0.8c0.3-0.3,0.5-0.7,0.6-1.1c0.2-0.3,0.2-0.7,0.3-1.1c0-0.2,0.1-0.4,0.1-0.6
			c0-0.3,0-0.6-0.1-0.9c-0.1-0.4-0.2-0.7-0.3-1c-0.1-0.5-0.4-0.9-0.6-1.3c-0.3-0.6-0.7-1.1-1-1.6c0,0,0,0,0,0c0,0,0,0,0,0
			c-0.1-0.2-0.2-0.3-0.3-0.5c-0.1-0.2-0.3-0.3-0.5-0.5c-0.1-0.1-0.2-0.2-0.3-0.2c-0.1,0-0.1-0.1-0.2-0.1c-0.3-0.2-0.6-0.5-0.9-0.7
			c-0.4-0.2-0.8-0.4-1.3-0.6c-0.5-0.2-1-0.3-1.4-0.3c-0.9-0.1-1.9,0-2.8,0.1c-1,0.2-2,0.5-2.9,0.8c-0.9,0.4-1.8,0.8-2.7,1.3
			c-0.3,0.2-0.6,0.4-0.9,0.5c-0.1,0-0.1,0-0.2,0c-0.2,0-0.5,0-0.7,0c-0.1,0-0.3,0-0.4,0.1c-0.1,0-0.2,0-0.2,0.1
			c-0.4,0-0.7,0.1-1.1,0.2c-0.4,0.1-0.9,0.3-1.3,0.5c-0.4,0.2-0.9,0.5-1.2,0.8c-0.7,0.6-1.3,1.3-1.9,2c-0.6,0.8-1,1.7-1.4,2.6
			c-0.4,0.9-0.7,1.8-1,2.8c-0.4,1.4-0.7,2.9-0.9,4.3c-0.2,0.7-0.3,1.3-0.3,2c-0.1,0.8-0.1,1.6-0.1,2.4c0.1,1.4,0.4,2.8,0.8,4.1
			c0.3,0.9,0.6,1.8,1.1,2.6c0.3,0.6,0.7,1.3,1.1,1.8c0,0.1,0,0.1,0.1,0.2c0,0.1,0.1,0.1,0.1,0.2h0c0,0,0,0,0,0
			c0.3,0.4,0.5,0.8,0.8,1.2c0,0,0.1,0.1,0.1,0.1c0.3,0.3,0.6,0.7,0.9,1c0,0,0,0.1,0.1,0.1c0.1,0.2,0.3,0.5,0.5,0.7c0,0,0,0,0,0
			c0.2,0.2,0.4,0.5,0.7,0.7c0.4,0.3,0.8,0.6,1.3,0.8c0.2,0.1,0.4,0.2,0.6,0.3c0,0,0,0,0,0c0.3,0.2,0.7,0.4,1,0.5
			c0.2,0.1,0.3,0.2,0.5,0.3c0.8,0.4,1.7,0.8,2.6,1.1c0.7,0.2,1.4,0.4,2.1,0.5c0,0,0.1,0.1,0.1,0.1c0.1,0,0.1,0,0.2,0.1c0,0,0,0,0,0
			c0,0,0,0,0,0c0.5,0.1,1,0.2,1.5,0.3c0,0,0.1,0,0.1,0c0.4,0,0.9,0.1,1.3,0.1c0,0,0.1,0,0.1,0c0.3,0.1,0.5,0.1,0.8,0.2c0,0,0,0,0,0
			c0.3,0,0.6,0,0.9,0c0.5,0,1-0.2,1.5-0.3c0.2-0.1,0.4-0.2,0.6-0.3c0,0,0,0,0,0c1.2-0.3,2.3-0.8,3.3-1.5c0.2-0.2,0.5-0.4,0.7-0.6
			c0.2-0.2,0.3-0.4,0.5-0.6c0.2-0.3,0.3-0.6,0.4-0.9c0.1-0.3,0.2-0.6,0.3-1c0-0.3,0.1-0.5,0.1-0.8C434.6,58.9,434.6,58.6,434.5,58.2
			z"/>
		<g>
			<path class="st0" d="M435.9,57.8c-0.7-2.6-1.2-6.3-4.6-7.3c-1.4-0.4-3.3-0.2-4.7,0.2c-2.1,0.5-4.9,3.9-5.6-0.6
				c-0.6,0.6-1.2,1.2-1.8,1.8c2.6,0.4,3.1,0.8,5.5,0.8c0.8,0,1.5-0.3,2.2-0.5c0.2,0,2.1-0.9,1.1-0.5c2.7-0.9,4.7-0.4,6.3-3.4
				c0.7-1.2,0.7-3.9-1.1-5.6c-3-2.8-8.1-1.9-11.7-1.5c0.3,0.9,0.5,1.9,0.8,2.8c4.3-3.1,16.3-1.3,13.3-10.6C434,28.4,429,25.2,423,27
				c-2.6,0.8-4,2-6.4,2.4c-3.9,0.6-6.4,3.5-7.9,7c-3.2,7.4-3.1,14.9,1,21.8c0.4-0.8,0.9-1.5,1.3-2.3c0,0,0,0,0,0
				c-1.1,0-1.9,1.3-1.3,2.3c2.9,4.7,7.1,6.8,12.4,8.1c-0.4-0.5-0.7-1-1.1-1.4c0,0,0,0,0,0c0,0.6,0.5,1.3,1.1,1.4
				c5.8,1.3,14.5-0.3,13.9-7.9c-0.2-1.9-3.2-1.9-3,0c0.4,5.5-6.2,5.9-10.1,5c0.4,0.5,0.7,1,1.1,1.4c0,0,0,0,0,0
				c0-0.6-0.5-1.3-1.1-1.4c-4.4-1.1-8.2-2.7-10.6-6.7c-0.4,0.8-0.9,1.5-1.3,2.3c0,0,0,0,0,0c1.1,0,1.9-1.3,1.3-2.3
				c-2.8-4.7-3.3-9-2.3-14.3c0.7-3.6,2.3-8.7,6.3-9.8c1-0.3,1.9-0.1,2.9-0.4c4.2-1.4,9.5-4.7,12.6,0.4c1.3,2.2,2.1,4.7-1.1,6.3
				c-1.4,0.7-3.4,0.2-4.9,0.4c-2,0.3-3.4,1.2-5,2.3c-1.1,0.8-0.9,3,0.8,2.8c2.2-0.2,5.9-0.9,7.9-0.2c2.7,1,3.1,2.7,0.9,4
				c-2.9,1.7-7.2,1.4-10.4,1c-1.2-0.2-2,0.6-1.8,1.8c0.4,2.9,2.4,5.5,5.5,4.6c2-0.6,3.9-2.9,6.3-2.1c2.4,0.8,2.5,3.1,3.1,5.2
				C433.6,60.5,436.4,59.7,435.9,57.8z"/>
		</g>
	</g>
	<g>
		<path class="st1" d="M531.4,53.5c-0.1-1.1-0.2-2.3-0.4-3.4c-0.3-1.6-0.9-3.2-1.7-4.7c-0.1-0.2-0.2-0.3-0.3-0.5
			c-0.1-0.3-0.2-0.6-0.3-1c-0.6-1.8-1.6-3.4-2.8-4.8c-0.5-0.7-1.1-1.3-1.7-1.9c-0.7-0.7-1.5-1.3-2.3-1.9c-1.4-1.1-3.1-1.8-4.7-2.5
			c-0.8-0.3-1.7-0.6-2.5-0.8c-0.3-0.1-0.6-0.1-0.9-0.2c-0.9-0.2-1.8-0.3-2.7-0.3c-0.1,0-0.1-0.1-0.2-0.1c-0.1,0-0.2,0-0.3,0
			c0,0,0,0,0,0c0,0,0,0,0,0c-0.6-0.1-1.3-0.1-1.9-0.1c-0.1,0-0.1,0-0.2,0c-0.5,0-1.1,0-1.6,0.1c0,0-0.1,0-0.1,0
			c-0.4,0-0.7-0.1-1.1-0.1c0,0,0,0,0,0c-0.4,0-0.8,0.1-1.2,0.1c-0.6,0.1-1.2,0.4-1.8,0.6c-0.3,0.1-0.5,0.3-0.8,0.4c0,0,0,0,0,0
			c-1,0.4-1.9,0.9-2.8,1.5c-0.3-0.3-0.6-0.7-0.9-1c-0.6-0.5-1.2-1-1.9-1.2c-0.4-0.2-0.8-0.2-1.2-0.2c-0.3,0-0.6,0-0.9,0.1
			c-1.8,0.3-3.6,1.3-4.8,2.9c-0.3,0.4-0.5,0.8-0.7,1.2c-0.2,0.5-0.4,0.9-0.6,1.4c-0.3,0.9-0.5,1.9-0.6,2.9c0,0.1,0,0.1,0,0.2
			c-0.1,0.4-0.2,0.7-0.3,1.1c-0.2,0.9-0.4,1.8-0.6,2.8c0,0.3-0.1,0.5-0.1,0.8c0,3.2,0.3,6.4,0.8,9.6c0,0.2,0.1,0.3,0.2,0.4
			c0,0,0,0,0,0.1c-0.2,0.7-0.1,1.5,0,2.2c0.1,0.9,0.5,1.8,0.9,2.6c0.5,0.9,1.1,1.7,1.7,2.5c0.3,0.4,0.7,0.7,1,1.1
			c0.4,0.4,0.9,0.7,1.3,1c0.7,0.5,1.6,0.8,2.5,1c0.7,0.2,1.5,0.2,2.2,0.1c0.4,0,0.7-0.1,1.1-0.2c0.4-0.1,0.7-0.2,1.1-0.4
			c0.6-0.3,1.1-0.6,1.6-1.1c0.5-0.4,0.9-1,1.3-1.5c0.3-0.5,0.6-1.1,0.9-1.6c0.3-0.7,0.5-1.3,0.7-2c0.4-1.3,0.6-2.7,0.7-4.1
			c0.1-1.3,0.2-2.5,0.1-3.8c0-0.4-0.1-0.8-0.1-1.2c0-0.4,0-0.8,0-1.1c0.5-0.1,1-0.1,1.5-0.3c0.6-0.2,1.1-0.4,1.7-0.6
			c0.9-0.4,1.8-1,2.6-1.8c0.1-0.1,0.3-0.3,0.4-0.4c0.2-0.1,0.4-0.2,0.7-0.3c0.4-0.1,0.7-0.2,1.1-0.3c0.2,0,0.5,0,0.7,0
			c0.2,0,0.4,0.1,0.6,0.2c0.1,0.1,0.3,0.1,0.4,0.2c0.1,0,0.1,0.1,0.2,0.1c0.3,0.2,0.5,0.5,0.7,0.7c0.4,0.5,0.7,1,0.9,1.6
			c0.4,1.1,0.7,2.3,0.9,3.5c0.2,1.5,0.2,3.1,0,4.6c-0.1,0.8-0.3,1.7-0.6,2.5c0,0.1-0.1,0.2-0.1,0.3c-0.1,0.3,0,1.6,0.1,1.8
			c0.4,0.7,0.9,1.3,1.4,1.9c0.3,0.4,0.7,0.7,1,1.1c0.4,0.4,0.9,0.7,1.3,1c0.7,0.5,1.6,0.8,2.5,1c0.7,0.2,1.5,0.2,2.2,0.1
			c0.4,0,0.7-0.1,1.1-0.2c0.4-0.1,0.7-0.2,1.1-0.4c0.6-0.3,1.1-0.6,1.6-1.1c0.5-0.4,0.9-1,1.3-1.5c0.3-0.5,0.6-1.1,0.9-1.6
			c0.3-0.7,0.5-1.3,0.7-2c0.1-0.4,0.2-0.8,0.3-1.3C531.5,56,531.5,54.8,531.4,53.5z"/>
		<g>
			<path class="st0" d="M532.9,53.5c-1.3-13.1-9.3-22-22.3-23.7c0.5,0.5,1,1,1.5,1.5c0,0,0,0,0,0c0-0.9-0.7-1.4-1.5-1.5
				c-4.7-0.5-8.2,0.2-12.3,2.7c0.6,0.1,1.2,0.2,1.8,0.2c-4.5-5-11.5-2.3-13.5,3.8c-1.2,3.7-1.8,8-1.5,11.9c0.1,2.1,0.5,4.2,0.8,6.3
				c-0.2-1.3,0,1.6,0.1,2.3c0.8,6,7.7,11.8,13.8,9c6.6-3,6-11.9,6-17.8c-0.4,0.5-0.7,1-1.1,1.4c1.5-0.3,2.9-0.7,4.2-1.4
				c1.1-0.6,1.9-1.8,3.2-1.9c4.6-0.3,2.8,8.3,2.5,11.1c-0.4,3.3,1.3,5.9,4.3,7.7C527.7,70.9,533.1,61.1,532.9,53.5
				c-0.1-1.9-3.1-1.9-3,0c0.1,2.6,0,5.7-1.7,7.9c-2.6,3.3-7.1,2.8-9.7-0.4c-1.8-2.2-0.7-3.1-0.4-5.5c0.3-2.5,0.1-5.2-0.7-7.7
				c-0.7-1.9-1.7-4.1-3.8-4.7c-3.4-1-6.8,3.2-9.7,3.7c-0.6,0.1-1.1,0.8-1.1,1.4c0,4.1,0.5,8.5-1.6,12.3c-4.1,7.3-11.4,0.4-12.3-5.2
				c-0.6-3.7-1.3-8.1-0.7-11.9c0.2-1.4,0.6-2.8,0.8-4.1c0.4-1.8,0.6-2.2,1.8-3.8c0.7-1.9,1.9-2.4,3.8-1.7c1.5-0.5,2.6-0.2,3.3,1
				c0.4,0.5,1.3,0.6,1.8,0.2c3.6-2.2,6.6-2.7,10.8-2.3c-0.5-0.5-1-1-1.5-1.5c0,0,0,0,0,0c0,0.9,0.7,1.4,1.5,1.5
				c11.2,1.5,18.2,9.5,19.3,20.7C530.1,55.4,533.1,55.4,532.9,53.5z"/>
		</g>
	</g>
	<g>
		<path class="st1" d="M493.7,40.1c0-0.4-0.1-0.9-0.2-1.3c-0.1-0.6-0.3-1.2-0.5-1.7c-0.3-0.7-0.5-1.4-0.9-2c0,0,0,0,0,0c0,0,0,0,0,0
			c-0.1-0.2-0.2-0.4-0.3-0.6c-0.1-0.2-0.3-0.4-0.4-0.6c-0.1-0.1-0.2-0.2-0.3-0.3c-0.1-0.1-0.1-0.1-0.2-0.2c-0.2-0.3-0.5-0.6-0.8-0.9
			c-0.4-0.3-0.8-0.6-1.2-0.8c-0.4-0.2-0.9-0.4-1.4-0.5c-0.9-0.2-1.8-0.2-2.8-0.1c-1,0.1-2,0.4-3,0.8c-0.9,0.4-1.9,0.8-2.8,1.3
			c-1.7,1-3.4,2.2-4.9,3.6c-0.2,0-0.4-0.1-0.7-0.1c-0.3,0-0.6-0.1-1-0.1c-0.1,0-0.2,0-0.2,0c-0.3,0-0.6,0-0.9,0.1c0,0,0,0,0,0
			c-0.2-0.1-0.5-0.1-0.7-0.1c0,0,0,0,0,0c-0.2,0-0.5,0-0.7,0.1c-0.1,0-0.3,0.1-0.4,0.1c-0.2,0-0.3,0.1-0.5,0.2
			c-0.3,0.1-0.6,0.2-0.9,0.4c-0.4,0.2-0.7,0.4-1,0.6c-0.5,0.3-0.9,0.7-1.3,1.1c-0.4,0.4-0.7,0.8-1,1.2c-0.3,0.4-0.5,0.9-0.7,1.3
			c-0.1,0.3-0.2,0.6-0.3,1c-0.1,0.5-0.1,1-0.2,1.5c-0.1,0.9-0.1,1.9,0,2.8c0.1,0.8,0.2,1.6,0.3,2.3c-0.1,1.1-0.2,2.2-0.3,3.4
			c0,0.5,0,0.9-0.1,1.4c0,0.1,0,0.2,0,0.2c0,0.2,0.1,0.3,0.2,0.4c0,0,0,0,0,0.1c-0.2,0.7-0.1,1.5,0,2.2c0.1,0.9,0.5,1.8,0.9,2.6
			c0.5,0.9,1.1,1.7,1.7,2.5c0.3,0.4,0.7,0.7,1,1.1c0.4,0.4,0.9,0.7,1.3,1c0.7,0.5,1.6,0.8,2.5,1c0.7,0.2,1.5,0.2,2.2,0.1
			c0.4,0,0.7-0.1,1.1-0.2c0.1,0,0.2-0.1,0.2-0.1c0.3-0.1,0.6-0.2,0.8-0.3c0.6-0.3,1.1-0.6,1.6-1.1c0.5-0.4,0.9-1,1.3-1.5
			c0.3-0.5,0.6-1.1,0.9-1.6c0.3-0.6,0.5-1.2,0.7-1.9c-0.1-0.6-0.1-1.2-0.2-1.7c-0.1-0.6-0.1-1.2-0.2-1.9c0-0.5,0-1,0-1.5
			c0-1.2-0.1-2.5-0.3-3.7c0-0.2,0-0.3,0-0.5c0,0,0,0,0-0.1c0.7-0.7,1.4-1.3,2.2-1.8c0.7-0.4,1.4-0.7,2.1-1c0.2,0,0.5-0.1,0.7-0.1
			c0.5,0,1,0,1.6,0c0.6,0,1.1,0.1,1.7,0.1c0.7,0,1.4-0.1,2.1-0.3c0.6-0.2,1.2-0.5,1.7-0.9c0.3-0.2,0.6-0.6,0.8-0.9
			c0.3-0.4,0.5-0.8,0.7-1.3c0.2-0.4,0.3-0.8,0.4-1.3c0.1-0.2,0.1-0.5,0.1-0.7C493.7,40.9,493.8,40.5,493.7,40.1z"/>
		<g>
			<path class="st0" d="M495.2,40.1c-0.5-3.9-1.6-7.8-5.5-9.8c-2.6-1.4-5.6-0.9-8.3,0.1c-1.6,0.6-3,1.4-4.4,2.3
				c-0.8,0.5-2.4,2.3-3.2,2.5c-1,0.4-2.8-0.3-3.9-0.1c-2,0.3-3.8,1.4-5.1,2.8c-4,4.2-2.6,11.3-2.6,16.5c0,1.4,0.1-1,0.2,0.2
				c0.1,1.4-0.1,2.5,0.4,4c0.8,2.6,2.9,5.4,5.3,6.8c3.7,2.3,8.4,1.6,11.1-1.7c1.7-2.1,2.3-4.2,2.2-6.8c-0.1-1.3-1.2-6-0.5-7
				c0.9-1.5,3.4-1.7,5.1-1.9C491.3,47.6,495.1,46.3,495.2,40.1c0.1-1.9-2.9-1.9-3,0C492,47,485.9,44,482,45.7c-2,0.9-3.6,2.1-4,4.2
				c-0.9,4.5,3,11.6-3.4,13.7c-5.8,1.9-8.8-5-9.1-9.4c-0.2-3.8-0.8-8.6,0.7-12.2c1.8-4.2,3.6-3.8,7-3.9c3.6-0.1,5.9-3.6,9.3-4.9
				c5.8-2.1,9,1.6,9.7,6.8C492.5,42,495.5,42,495.2,40.1z"/>
		</g>
	</g>
</g>
<g>
	<g>
		<path class="st1" d="M290.2,48.1c0-0.4-0.1-0.8-0.2-1.3c0-0.4,0-0.8-0.1-1.1c-0.1-1.2-0.4-2.4-0.8-3.5c-0.3-0.6-0.5-1.2-0.9-1.8
			c-0.4-0.6-0.8-1.2-1.3-1.7c-0.8-1-1.9-1.9-3-2.7c-1.1-0.8-2.3-1.3-3.5-1.7c-0.5-0.2-1.1-0.3-1.7-0.3c-0.8-0.1-1.5-0.2-2.3-0.2
			c0,0-0.1,0-0.1,0c-1.3,0-2.7,0.2-4,0.4c-2.3,0.3-4.5,1.1-6.4,2.5c-0.3,0.2-0.7,0.5-1,0.8c-0.1,0.1-0.2,0.2-0.4,0.3
			c-0.4,0.4-0.8,0.8-1.2,1.2c-0.4,0.5-0.9,1.1-1.2,1.7c-0.6,1-1.1,2.1-1.6,3.2c-0.6,1.4-0.8,3-1,4.5c-0.1,1.4,0,2.9,0.3,4.3
			c0.3,1.4,0.8,2.7,1.5,3.9c0.3,0.5,0.6,1.1,1,1.6c0.5,0.6,0.9,1.2,1.5,1.8c0.5,0.5,1.1,1,1.7,1.4c0.5,0.4,1.1,0.8,1.7,1.1
			c0.6,0.4,1.3,0.7,2,0.9c0.6,0.3,1.3,0.4,2,0.6c4,0.9,8.2-0.1,11.7-2.1c0.9-0.5,1.7-1.1,2.5-1.8c0.6-0.5,1.1-1.1,1.5-1.8
			c0.4-0.4,0.7-0.8,1-1.2c0.4-0.6,0.8-1.2,1-1.8c0.4-0.8,0.6-1.6,0.8-2.4C290.3,51.3,290.4,49.7,290.2,48.1z"/>
		<g>
			<path class="st0" d="M291.6,47.7c-0.7-4.9-1.6-8.6-5.5-11.9c-3.2-2.6-7-3.7-11.1-3.4c-9.8,0.6-17.4,8-16.8,18.2
				c0.5,8.4,7.6,15.3,16.1,15.3c9.9,0,17.9-7.9,17.3-17.8c-0.1-1.9-3.1-1.9-3,0c0.5,8.2-6,14.9-14.3,14.8c-7.4,0-13.3-6.4-13.1-13.8
				c0.3-8.4,7-13.9,15.2-13.8c8.2,0.1,11.2,6.1,12.3,13.2C289,50.4,291.9,49.6,291.6,47.7z"/>
		</g>
	</g>
	<g>
		<path class="st1" d="M273.9,53c0.2,0,0.3-0.1,0.5-0.2c0.2,0,0.4,0,0.6-0.1c0,0,0.1,0,0.1,0c0.1,0,0.2,0,0.2,0c0.2,0,0.4,0,0.6,0
			c0.1,0,0.1,0,0.2,0c0,0,0,0,0,0c0.1,0,0.3,0,0.4,0c0.1,0,0.2-0.1,0.3-0.1c0.1,0,0.1-0.1,0.2-0.1c0,0,0,0,0.1-0.1
			c0.1,0,0.1,0,0.2,0c0.1,0,0.2-0.1,0.3-0.1c0.1-0.1,0.2-0.2,0.4-0.3c0.1-0.1,0.1-0.2,0.2-0.2c0.1-0.1,0.2-0.3,0.3-0.5
			c0.1-0.2,0.2-0.4,0.2-0.6c0.1-0.2,0.1-0.4,0.2-0.5c0-0.2,0.1-0.4,0.1-0.6c0-0.2,0-0.4,0-0.6c0-0.2-0.1-0.4-0.1-0.6
			c-0.1-0.2-0.1-0.4-0.2-0.6c-0.1-0.1-0.1-0.2-0.2-0.3c0-0.1-0.1-0.2-0.2-0.3c-0.1-0.1-0.1-0.1-0.2-0.2c-0.1-0.2-0.2-0.5-0.3-0.7
			c-0.2-0.3-0.4-0.6-0.7-0.8c-0.1-0.1-0.2-0.1-0.3-0.1c-0.1,0-0.2,0-0.3-0.1c-0.1,0-0.2,0-0.3,0c-0.1,0-0.2,0-0.3,0.1
			c-0.1-0.2-0.2-0.4-0.4-0.6c-0.4-0.3-0.9-0.4-1.3,0c-0.1,0.1-0.2,0.1-0.2,0.2c-0.1,0.1-0.2,0.2-0.2,0.4c0,0,0,0,0,0
			c-0.1,0-0.2,0.1-0.2,0.1c0,0-0.1,0-0.1,0c-0.1,0-0.2,0-0.3,0c-0.1,0-0.2,0.1-0.3,0.1c-0.1,0.1-0.3,0.2-0.4,0.3c0,0,0,0,0,0
			c0,0,0,0,0,0c-0.1,0.1-0.3,0.1-0.4,0.2c-0.1,0.1-0.2,0.2-0.3,0.3c-0.1,0.1-0.2,0.2-0.3,0.4c-0.1,0.2-0.2,0.4-0.3,0.6
			c0,0.1,0,0.2-0.1,0.2c0,0,0,0,0,0c0,0,0,0.1,0,0.1c0,0,0,0,0,0c0,0.1-0.1,0.3-0.1,0.4c0,0.2-0.1,0.4-0.1,0.7c0,0,0,0,0,0
			c0,0,0,0,0,0c0,0.4,0,0.7,0,1.1c0,0.3,0.1,0.7,0.2,1c0.1,0.2,0.2,0.4,0.3,0.6c0.1,0.1,0.1,0.2,0.2,0.4c0.1,0.2,0.2,0.3,0.4,0.4
			c0.1,0.1,0.3,0.3,0.5,0.4c0.2,0.2,0.5,0.2,0.8,0.3c0.1,0,0.2,0,0.3,0C273.5,53,273.7,53,273.9,53L273.9,53L273.9,53z"/>
		<g>
			<path class="st0" d="M274.3,54.4c0.7-0.2,0.3-0.1,1-0.2c0.3,0,0.7,0,1-0.1c-0.7-0.1-0.8-0.1-0.4,0c0.9-0.1,1.5-0.1,2.2-0.8
				c-0.4,0.1-0.7,0.3-1.1,0.4c2.8-0.2,3.9-3.8,3.1-6.1c-0.7-2-2.3-4.4-4.7-3.8c0.6,0.2,1.1,0.5,1.7,0.7c-1.1-2-3.7-2-4.8,0
				c0.3-0.2,0.6-0.5,0.9-0.7c0.5,0.1,0.6,0.1,0.2,0.1c-0.2,0-0.3,0-0.5,0c-0.4,0-0.7,0.1-1,0.3c-0.2,0.1-1.2,0.9-0.4,0.3
				c-0.3,0.2-0.6,0.4-0.9,0.6c-0.8,0.8-1.1,1.9-1.3,2.9c-0.5,2.9,1,6.6,4.5,6.4c1.9-0.2,1.9-3.2,0-3c-1.7,0.1-1.9-2.3-1.4-3.5
				c0.1-0.3,0.5-0.5,0.6-0.8c0.1-0.1,0.2-0.2,0.3-0.3c-0.4-0.1-0.5-0.1-0.1,0c0.4-0.1,0.8,0,1.2-0.3c0.9-0.6,0.3-0.3,0.2-0.6
				c0.3,0.6,1.1,0.8,1.7,0.7c0,0,0.9,1.5,1,1.7c0.2,0.6,0.2,1.2,0,1.8c0,0.1-0.5,0.9-0.2,0.6c-0.2,0.2-0.8,0.3-1.1,0.4
				c0.2,0,0.3,0,0.5,0c-0.3-0.1-0.5-0.1-0.8,0c-0.6,0-1.4,0.1-2.2,0.3C271.6,52.1,272.4,55,274.3,54.4z"/>
		</g>
	</g>
</g>
<g>
	<path class="st1" d="M329.2,38.3c0-0.4-0.1-0.9-0.2-1.3c-0.1-0.6-0.3-1.2-0.5-1.7c-0.3-0.7-0.5-1.4-0.9-2c0,0,0,0,0,0c0,0,0,0,0,0
		c-0.1-0.2-0.2-0.4-0.3-0.6c-0.1-0.2-0.3-0.4-0.4-0.6c-0.1-0.1-0.2-0.2-0.3-0.3c-0.1-0.1-0.1-0.1-0.2-0.2c-0.2-0.3-0.5-0.6-0.8-0.9
		c-0.4-0.3-0.8-0.6-1.2-0.8c-0.4-0.2-0.9-0.4-1.4-0.5c-0.9-0.2-1.8-0.2-2.8-0.1c-1,0.1-2,0.4-3,0.8c-0.9,0.4-1.9,0.8-2.8,1.3
		c-1.7,1-3.4,2.2-4.9,3.6c-0.2,0-0.4-0.1-0.7-0.1c-0.3,0-0.6-0.1-1-0.1c-0.1,0-0.2,0-0.2,0c-0.3,0-0.6,0-0.9,0.1c0,0,0,0,0,0
		c-0.2-0.1-0.5-0.1-0.7-0.1c0,0,0,0,0,0c-0.2,0-0.5,0-0.7,0.1c-0.1,0-0.3,0.1-0.4,0.1c-0.2,0-0.3,0.1-0.5,0.2
		c-0.3,0.1-0.6,0.2-0.9,0.4c-0.4,0.2-0.7,0.4-1,0.6c-0.5,0.3-0.9,0.7-1.3,1.1c-0.4,0.4-0.7,0.8-1,1.2c-0.3,0.4-0.5,0.9-0.7,1.3
		c-0.1,0.3-0.2,0.6-0.3,1c-0.1,0.5-0.1,1-0.2,1.5c-0.1,0.9-0.1,1.9,0,2.8c0.1,0.8,0.2,1.6,0.3,2.3c-0.1,1.1-0.2,2.2-0.3,3.4
		c0,0.5,0,0.9-0.1,1.4c0,0.1,0,0.2,0,0.2c0,0.2,0.1,0.3,0.2,0.4c0,0,0,0,0,0.1c-0.2,0.7-0.1,1.5,0,2.2c0.1,0.9,0.5,1.8,0.9,2.6
		c0.5,0.9,1.1,1.7,1.7,2.5c0.3,0.4,0.7,0.7,1,1.1c0.4,0.4,0.9,0.7,1.3,1c0.7,0.5,1.6,0.8,2.5,1c0.7,0.2,1.5,0.2,2.2,0.1
		c0.4,0,0.7-0.1,1.1-0.2c0.1,0,0.2-0.1,0.2-0.1c0.3-0.1,0.6-0.2,0.8-0.3c0.6-0.3,1.1-0.6,1.6-1.1c0.5-0.4,0.9-1,1.3-1.5
		c0.3-0.5,0.6-1.1,0.9-1.6c0.3-0.6,0.5-1.2,0.7-1.9c-0.1-0.6-0.1-1.2-0.2-1.7c-0.1-0.6-0.1-1.2-0.2-1.9c0-0.5,0-1,0-1.5
		c0-1.2-0.1-2.5-0.3-3.7c0-0.2,0-0.3,0-0.5c0,0,0,0,0-0.1c0.7-0.7,1.4-1.3,2.2-1.8c0.7-0.4,1.4-0.7,2.1-1c0.2,0,0.5-0.1,0.7-0.1
		c0.5,0,1,0,1.6,0c0.6,0,1.1,0.1,1.7,0.1c0.7,0,1.4-0.1,2.1-0.3c0.6-0.2,1.2-0.5,1.7-0.9c0.3-0.2,0.6-0.6,0.8-0.9
		c0.3-0.4,0.5-0.8,0.7-1.3c0.2-0.4,0.3-0.8,0.4-1.3c0.1-0.2,0.1-0.5,0.1-0.7C329.2,39,329.2,38.7,329.2,38.3z"/>
	<g>
		<path class="st0" d="M330.7,38.3c-0.5-3.9-1.6-7.8-5.5-9.8c-2.6-1.4-5.6-0.9-8.3,0.1c-1.6,0.6-3,1.4-4.4,2.3
			c-0.8,0.5-2.4,2.3-3.2,2.5c-1,0.4-2.8-0.3-3.9-0.1c-2,0.3-3.8,1.4-5.1,2.8c-4,4.2-2.6,11.3-2.6,16.5c0,1.4,0.1-1,0.2,0.2
			c0.1,1.4-0.1,2.5,0.4,4c0.8,2.6,2.9,5.4,5.3,6.8c3.7,2.3,8.4,1.6,11.1-1.7c1.7-2.1,2.3-4.2,2.2-6.8c-0.1-1.3-1.2-6-0.5-7
			c0.9-1.5,3.4-1.7,5.1-1.9C326.8,45.7,330.5,44.4,330.7,38.3c0.1-1.9-2.9-1.9-3,0c-0.2,6.9-6.3,3.8-10.2,5.6c-2,0.9-3.6,2.1-4,4.2
			c-0.9,4.5,3,11.6-3.4,13.7c-5.8,1.9-8.8-5-9.1-9.4c-0.2-3.8-0.8-8.6,0.7-12.2c1.8-4.2,3.6-3.8,7-3.9c3.6-0.1,5.9-3.6,9.3-4.9
			c5.8-2.1,9,1.6,9.7,6.8C328,40.2,331,40.2,330.7,38.3z"/>
	</g>
</g>
</svg>
