<?xml version="1.0" encoding="utf-8"?>
<!-- Generator: Adobe Illustrator 22.1.0, SVG Export Plug-In . SVG Version: 6.00 Build 0)  -->
<svg version="1.1" id="Layer_1" xmlns="http://www.w3.org/2000/svg" xmlns:xlink="http://www.w3.org/1999/xlink" x="0px" y="0px"
	 viewBox="0 0 321 182.3" style="enable-background:new 0 0 321 182.3;" xml:space="preserve">
<style type="text/css">
	.st0{fill:none;stroke:#584C4F;stroke-width:0.25;stroke-linecap:round;stroke-miterlimit:10;}
	.st1{fill:#D4AF6B;}
</style>
<g>
	<path class="st0" d="M160.8,181.3c0,0,0.2-26,0.7-47.8L161,91.8"/>
	<path class="st0" d="M160.8,91.8c0,0,10.5,24.8,20,45.2l20,44.5"/>
	<path class="st0" d="M241,181.8c0,0-31.2-34.2-40.5-45s-39.8-45.2-39.8-45.2"/>
	<path class="st0" d="M160.8,91.3c0,0,36.5,27.2,59.8,45.2s60.2,45,60.2,45"/>
	<path class="st0" d="M320.3,181.6c0,0-70.5-40.5-79.2-45.2s-80.2-45.2-80.2-45.2"/>
	<path class="st0" d="M160.8,91.8c0,0-10.5,24.8-20,45.2l-20,44.5"/>
	<path class="st0" d="M80.5,181.8c0,0,31.2-34.2,40.5-45s39.8-45.2,39.8-45.2"/>
	<path class="st0" d="M160.8,91.3c0,0-36.5,27.2-59.8,45.2s-60.2,45-60.2,45"/>
	<path class="st0" d="M160.8,91.1c0,0-71.5,40.5-80.2,45.2S1.3,181.6,1.3,181.6"/>
</g>
<path class="st1" d="M180.7,102.7c-11.5,0-27.1-0.1-39.5-0.2"/>
<path class="st0" d="M39.5,159c0,0,39.8,0,55-0.5s60.8,1,71.2,0.8s49.8-1.5,85-0.8s29.5,0.5,29.5,0.5"/>
<path class="st0" d="M79.5,136.5c0,0,27.2,0,31.5-0.2s69.8,0.2,73,0.2s56.8,0,56.8,0"/>
<path class="st0" d="M119.8,114c0,0,17,0,23.2-0.2s58.5,0.2,58.5,0.2"/>
</svg>
