<?xml version="1.0" encoding="utf-8"?>
<!-- Generator: Adobe Illustrator 22.1.0, SVG Export Plug-In . SVG Version: 6.00 Build 0)  -->
<svg version="1.1" id="Layer_1" xmlns="http://www.w3.org/2000/svg" xmlns:xlink="http://www.w3.org/1999/xlink" x="0px" y="0px"
	 viewBox="0 0 665.2 429.6" style="enable-background:new 0 0 665.2 429.6;" xml:space="preserve">
<style type="text/css">
	.st0{opacity:0.1;}
	.st1{opacity:0.1;fill:#231F20;stroke:#231F20;stroke-width:4;stroke-miterlimit:10;enable-background:new    ;}
	.st2{fill:#E6C86B;stroke:#584C4F;stroke-width:4;stroke-miterlimit:10;}
	.st3{fill:#FCDE82;stroke:#584C4F;stroke-width:4;stroke-miterlimit:10;}
	.st4{fill:none;stroke:#584C4F;stroke-width:4;stroke-miterlimit:10;}
	.st5{fill:#FCDB77;stroke:#584C4F;stroke-width:4;stroke-miterlimit:10;}
	.st6{fill:#FFD767;stroke:#584C4F;stroke-width:4;stroke-miterlimit:10;}
	.st7{fill:#FFF5D0;stroke:#584C4F;stroke-width:4;stroke-miterlimit:10;}
	.st8{fill:#FFF0C2;stroke:#584C4F;stroke-width:4;stroke-miterlimit:10;}
	.st9{fill:#FDF7E0;stroke:#584C4F;stroke-width:4;stroke-miterlimit:10;}
	.st10{fill:#FBE391;stroke:#584C4F;stroke-width:4;stroke-miterlimit:10;}
	.st11{fill:#FBE7A0;stroke:#584C4F;stroke-width:4;stroke-miterlimit:10;}
	.st12{fill:#FDEBB0;stroke:#584C4F;stroke-width:4;stroke-miterlimit:10;}
</style>
<g id="Layer_5" class="st0">
</g>
<g id="Layer_3" class="st0">
</g>
<g>
	<path class="st1" d="M402.7,203.9c-1.2,6.6,5.9,25.3,18.1,23.2c4.8-0.8,7.9-5.5,9.9-10.9c-11.5,0.9-18.2-16.9-17-23.3
		c0,0-2.1-36.2-26.5-25.5c-3.6,1.6-6.3,5.1-8.3,10C400.7,170.6,402.7,203.9,402.7,203.9z"/>
	<g>
		<g id="XMLID_44504_">
			<path id="XMLID_44512_" class="st2" d="M424.6,181.9c0,0-2.1-36.2-26.5-25.5s-10.5,113.1,51.6,98.2
				c62.1-14.9,36.8-95.2,36.8-95.2s-25.8-23-30.4,16.8c0,0-1.4,26.7-13.4,28.8C430.6,207.1,423.4,188.6,424.6,181.9z"/>
			<g id="XMLID_44510_">
				<path id="XMLID_44511_" class="st2" d="M393.4,204.2c0,0-42.7,42.4-34.2-36.6c0,0-10.2-24.4-30-14.2s-22.7,135.5,73,100.2
					c0,0,25.8-9.8,32.7-15"/>
			</g>
			<path id="XMLID_44509_" class="st3" d="M354.6,169.6c0,0-4,1.9-5.2,3.8"/>
			<path id="XMLID_44508_" class="st3" d="M416.6,169.5c0,0-4,1.9-5.2,3.8"/>
			<path id="XMLID_44507_" class="st3" d="M359.7,213.6c0,0-4,1.9-5.2,3.8"/>
			<path id="XMLID_44506_" class="st3" d="M427.7,202.5c0,0-4,1.9-5.2,3.8"/>
			<path id="XMLID_44505_" class="st3" d="M480.6,160.4c0,0-4,1.9-5.2,3.8"/>
		</g>
		<g id="XMLID_44491_">
			<path id="XMLID_44503_" class="st3" d="M413.7,192.9c0,0-2.1-36.2-26.5-25.5s-10.5,113.1,51.6,98.2
				c62.1-14.9,36.7-95.2,36.7-95.2s-25.8-23-30.4,16.8c0,0-1.4,26.7-13.4,28.8C419.6,218.1,412.5,199.6,413.7,192.9z"/>
			<g id="XMLID_44501_">
				<path id="XMLID_44502_" class="st3" d="M382.4,215.2c0,0-42.7,42.4-34.2-36.6c0,0-10.2-24.4-30-14.2s-22.7,135.5,73,100.2
					c0,0,25.8-9.8,32.7-15"/>
			</g>
			<line id="XMLID_44500_" class="st4" x1="338.8" y1="260.8" x2="342.8" y2="262.4"/>
			<path id="XMLID_44499_" class="st3" d="M431.9,233.8c0,0,1.6,3.3-1,4.7"/>
			<path id="XMLID_44498_" class="st3" d="M474.5,226.9c0,0-0.7,3-1.6,4"/>
			<path id="XMLID_44497_" class="st3" d="M450.5,185.8c0,0,1.3-5.6,0-5.6"/>
			<path id="XMLID_44496_" class="st3" d="M328,167.6c0,0,5.2,0.7,4.7,1.6"/>
			<path id="XMLID_44495_" class="st3" d="M361.8,234.2c0,0,6.1-0.9,6.5-2"/>
			<path id="XMLID_44494_" class="st3" d="M392.6,172.6c0,0-4,1.9-5.2,3.8"/>
			<line id="XMLID_44493_" class="st4" x1="431.7" y1="219.5" x2="435.9" y2="218.4"/>
			<line id="XMLID_44492_" class="st4" x1="440.9" y1="259.2" x2="445.1" y2="258.1"/>
			<path class="st1" d="M402.7,203.9c-1.2,6.6,5.9,25.3,18.1,23.2c4.8-0.8,7.9-5.5,9.9-10.9c-11.5,0.9-18.2-16.9-17-23.3
				c0,0-2.1-36.2-26.5-25.5c-3.6,1.6-6.3,5.1-8.3,10C400.7,170.6,402.7,203.9,402.7,203.9z"/>
		</g>
	</g>
	<path class="st1" d="M337.1,189.6c-6.9,63.9,19.8,48.4,30.2,40.1c-0.3-1.4-0.6-2.8-0.9-4.1c-11.1,3.7-23.2-1.6-18.3-47
		c0,0-10.2-24.4-30-14.2c-2.6,1.3-4.9,4.6-6.8,9.3C328.4,168.7,337.1,189.6,337.1,189.6z"/>
	<path class="st1" d="M475.6,170.5c0,0-19.7-17.6-27.8,4.5c8.2-1.2,16.8,6.5,16.8,6.5s14.6,46.6-5.8,75.3
		C494.6,231.3,475.6,170.5,475.6,170.5z"/>
</g>
<g>
	<g>
		<g id="XMLID_44487_">
			<path id="XMLID_44490_" class="st2" d="M319.6,160.1c-49.3-36-87.6,9.4-87.6,9.4s-31.5,72.4,28.7,91.4
				C320.7,279.8,368.9,196.1,319.6,160.1z M292.8,209.9c-11.3,29.7-46.5-16.8-21.5-20.3C271.2,189.7,304.1,180.2,292.8,209.9z"/>
			<path id="XMLID_44489_" class="st3" d="M311.6,160.7c0,0-4,1.9-5.2,3.8"/>
			<path id="XMLID_44488_" class="st3" d="M291.6,151.7c0,0-4,1.9-5.2,3.8"/>
		</g>
	</g>
	<g id="XMLID_44475_">
		<path id="XMLID_44486_" class="st5" d="M277.7,178.3"/>
		<path id="XMLID_44485_" class="st5" d="M308.6,171.1c-49.3-36-87.6,9.4-87.6,9.4s-31.5,72.4,28.7,91.4
			C309.7,290.8,357.9,207.1,308.6,171.1z M281.8,221c-11.3,29.7-46.5-16.8-21.5-20.3C260.3,200.7,293.1,191.2,281.8,221z"/>
		<path id="XMLID_44484_" class="st5" d="M289.3,166.5"/>
		<line id="XMLID_44483_" class="st4" x1="233.3" y1="257.2" x2="237.3" y2="259"/>
		<path id="XMLID_44482_" class="st5" d="M293.7,260.8c0,0-0.7,3.6-3.6,3.2"/>
		<path id="XMLID_44481_" class="st5" d="M286.3,221.5c0,0-0.7,3-1.6,4"/>
		<path id="XMLID_44480_" class="st5" d="M322.4,219.2c0,0,1.3-5.6,0-5.6"/>
		<path id="XMLID_44479_" class="st5" d="M286.4,165.7c0,0,5.2,0.7,4.7,1.6"/>
		<path id="XMLID_44478_" class="st5" d="M252.7,230.4c0,0,5.1,3.5,6.1,2.9"/>
		<path id="XMLID_44477_" class="st5" d="M229.9,181.4c0,0-4,1.9-5.2,3.8"/>
		<line id="XMLID_44476_" class="st4" x1="253.7" y1="197" x2="257.9" y2="195.9"/>
		<path class="st1" d="M308.6,171.1c-49.3-36-87.6,9.4-87.6,9.4s-0.3,0.6-0.7,1.6c14.6-11,43.4-24.9,77.3,0
			c27.7,20.3,24.6,55.7,5.8,79.4C331.2,239.4,341.1,194.8,308.6,171.1z"/>
	</g>
</g>
<g>
	<g id="XMLID_44468_">
		<path id="XMLID_44474_" class="st2" d="M173,156.6c0,0-5.1-24.9-29.5-16s-12.2,103.1-0.9,110.4C153.8,258.3,185.4,303.2,173,156.6
			z"/>
		<path id="XMLID_44473_" class="st2" d="M167.5,201.9c0,0,42.7-42.4,34.2,36.6c0,0,10.2,24.4,30,14.2s22.8-135.5-73-100.3"/>
		<path id="XMLID_44472_" class="st3" d="M218.6,160.9c0,0-4,1.9-5.2,3.8"/>
		<path id="XMLID_44471_" class="st3" d="M156.6,143c0,0-4,1.9-5.2,3.8"/>
		<path id="XMLID_44470_" class="st3" d="M170,242.5c-1,0.7-2,1.5-2.5,2.3"/>
		<path id="XMLID_44469_" class="st3" d="M238.7,218.8c0,0-1.3,0.6-2.7,1.5"/>
	</g>
	<g id="XMLID_44457_">
		<path id="XMLID_44467_" class="st6" d="M162,167.7c0,0-5.1-24.9-29.5-16s-12.2,103-0.9,110.3C142.9,269.3,174.5,314.2,162,167.7z"
			/>
		<path id="XMLID_44466_" class="st6" d="M156.5,213c0,0,42.7-42.4,34.2,36.6c0,0,10.2,24.4,30,14.2c19.8-10.2,22.8-135.5-73-100.3"
			/>
		<line id="XMLID_44465_" class="st4" x1="142.9" y1="261.1" x2="146.9" y2="262.8"/>
		<path id="XMLID_44464_" class="st6" d="M216,250.4c0,0,1.6,3.3-1,4.7"/>
		<path id="XMLID_44463_" class="st6" d="M225.4,209.7c0,0-0.7,3-1.6,4"/>
		<path id="XMLID_44462_" class="st6" d="M157.4,235.1c0,0,1.3-5.6,0-5.6"/>
		<path id="XMLID_44461_" class="st6" d="M187.5,196.6c0,0,5.2,0.7,4.7,1.6"/>
		<path id="XMLID_44460_" class="st6" d="M136.6,223c0,0,6.1-0.9,6.5-2"/>
		<path id="XMLID_44459_" class="st6" d="M167.4,164.8c0,0-4,1.9-5.2,3.8"/>
		<line id="XMLID_44458_" class="st4" x1="130.7" y1="171.4" x2="135" y2="170.3"/>
		<path class="st1" d="M159,160.1c-3.7-6.5-11.4-13.9-26.5-8.5c-4,1.4-7,5.2-9.2,10.4c13.9-4.2,21.2,2.9,24.7,9.1
			c72.8-18.8,80.1,65,68.6,94.4c1.4-0.4,2.8-0.9,4.3-1.7C239.8,254,243.2,138.3,159,160.1z"/>
	</g>
</g>
<path id="XMLID_44456_" class="st2" d="M413.4,262.8c0,0-9-6.3-12.9-1.4c-3.9,5-10.6,13.4-2.5,29.8c7.9,16.5,37.7,2.8,40.6-4.9"/>
<path id="XMLID_44444_" class="st7" d="M402.4,273.8c0,0-9-6.3-12.9-1.4c-3.9,5-10.6,13.4-2.5,29.8c7.9,16.5,37.7,2.8,40.6-4.9"/>
<g>
	<g id="XMLID_44441_">
		<path id="XMLID_44443_" class="st2" d="M354.2,259.2c-43.6-31.8-77.4,8.2-77.4,8.2s-27.7,63.8,25.3,80.7
			C355.3,365,397.7,291,354.2,259.2z M331.7,303.8c-10.9,28.8-45-16.3-20.8-19.7C310.9,284.1,342.7,274.9,331.7,303.8z"/>
		<path id="XMLID_44442_" class="st2" d="M337.2,255.2c0,0,33.8-36.3,34.7,31.7c0.8,68,12.3,130-52.8,129.7c0,0-35.4-16.4-0.1-34
			c17.3-8.5,20.8-26.3,20.3-48.5"/>
	</g>
	<g id="XMLID_44428_">
		<path id="XMLID_44440_" class="st8" d="M315.9,276.6"/>
		<path id="XMLID_44439_" class="st8" d="M343.2,270.2c-43.6-31.8-77.4,8.2-77.4,8.2s-27.7,63.8,25.3,80.7
			C344.3,376,386.7,302.1,343.2,270.2z M320.8,314.8c-10.9,28.8-45-16.3-20.8-19.7C299.9,295.1,331.7,286,320.8,314.8z"/>
		<path id="XMLID_44438_" class="st8" d="M326.2,266.2"/>
		<path id="XMLID_44437_" class="st8" d="M326.2,266.2c0,0,33.8-36.3,34.7,31.7s12.3,130-52.8,129.7c0,0-35.4-16.4-0.1-34
			c17.3-8.5,20.8-26.3,20.3-48.5"/>
		<line id="XMLID_44436_" class="st4" x1="304.9" y1="418.8" x2="309" y2="420.5"/>
		<path id="XMLID_44435_" class="st8" d="M339.9,411.9c0,0,1.6,3.3-1,4.7"/>
		<path id="XMLID_44434_" class="st8" d="M357.4,377.8c0,0-0.7,3-1.6,4"/>
		<path id="XMLID_44433_" class="st8" d="M354.1,334.4c0,0,1.3-5.6,0-5.6"/>
		<path id="XMLID_44432_" class="st8" d="M279.4,348.9c0,0,5.2,0.7,4.7,1.6"/>
		<path id="XMLID_44431_" class="st8" d="M343,292.7c0,0,6.1-0.9,6.5-2"/>
		<path id="XMLID_44430_" class="st8" d="M279.8,276.2c0,0-4,1.9-5.2,3.8"/>
		<line id="XMLID_44429_" class="st4" x1="323.7" y1="323.2" x2="319.9" y2="325.4"/>
	</g>
	<path class="st1" d="M361.1,309c0.2-3.2,0.2-6.3-0.2-9.4c0-0.5,0-1.1,0-1.6c-0.7-53.4-21.8-42.5-30.7-35.3
		c-37-16.3-64.4,15.9-64.4,15.9s-0.3,0.7-0.8,1.9c11.2-8.1,30.7-17.2,54.1-6.9c9-7.1,30-18.1,30.7,35.3c0,0.5,0,1.1,0,1.6
		c0.4,3.1,0.4,6.3,0.2,9.4c1.1,40.8,4.3,78.3-9.8,99.7C366.8,402.4,362.3,358.1,361.1,309z"/>
	<path id="XMLID_44427_" class="st3" d="M361.8,254.6c0,0-4,1.9-5.2,3.8"/>
	<path id="XMLID_44426_" class="st3" d="M315.8,250.7c0,0-4,1.9-5.2,3.8"/>
	<path id="XMLID_44425_" class="st3" d="M309.9,314.7c0,0-4,1.9-5.2,3.8"/>
	<path id="XMLID_44424_" class="st3" d="M369.2,342.5c-1.2,0.7-2.8,1.8-3.5,2.9"/>
	<path id="XMLID_44423_" class="st3" d="M368,365.6c0,0-0.7,0.4-1.7,0.9"/>
</g>
<g>
	<g>
		<path id="XMLID_44422_" class="st2" d="M448.5,276.1L448.5,276.1c-5.7-15.2-18.2-27.1-37.4-29c-38-3.7-53.7,21-59.6,35.9
			c0,0-1.3,2.2-2.3,6.6c-0.8,2.6-1,4.8-0.8,5.8c-0.5,8.2,0.8,20.4,8.6,36.6c6.3,13.2,22.2,17.9,32.8,19.5c3,0.6,6.2,1,9.6,0.9
			c0.2,0,0.3,0,0.3,0l0,0c3.7-0.1,7.6-0.5,11.8-1.5c16.7-3.8,28.2-14.5,34.6-27.7c-1.1-15.2-14.1-17-21.9-18.2
			c-4.3-0.6-8.6,2-12,4.7c-0.4,0.3-0.7,0.6-1,0.9c-11.3,8.3-40.8-7.9-25.2-20.2c0,0,5.3-5.6,11.5-8.1l0,0c0,0,5.1-2.6,9.3-1.1
			c1.6,0.6,3.1,1.8,4.1,4c0,0.1,0.1,0.2,0.2,0.4c0.5,1,1.1,2.2,1.8,3.3c5.1,8.3,16.5,19.2,27,11.6c12.2-8.8,10.8-12.1,11.3-15.5l0,0
			C451.6,281.6,448.5,276.1,448.5,276.1z"/>
	</g>
	<g>
		<path id="XMLID_44421_" class="st7" d="M437.5,287.1L437.5,287.1c-5.7-15.2-18.2-27.1-37.4-29c-38-3.7-53.7,21-59.6,35.9
			c0,0-1.3,2.2-2.3,6.6c-0.8,2.6-1,4.8-0.8,5.8c-0.5,8.2,0.8,20.4,8.6,36.6c6.3,13.2,22.2,17.9,32.8,19.5c3,0.6,6.2,1,9.6,0.9
			c0.2,0,0.3,0,0.3,0l0,0c3.7-0.1,7.6-0.5,11.8-1.5c16.7-3.8,28.2-14.5,34.6-27.7c-1.1-15.2-14.1-17-21.9-18.2
			c-4.3-0.6-8.6,2-12,4.7c-0.4,0.3-0.7,0.6-1,0.9c-11.3,8.3-40.8-7.9-25.2-20.2c0,0,5.3-5.6,11.5-8.1l0,0c0,0,5.1-2.6,9.3-1.1
			c1.6,0.6,3.1,1.8,4.1,4c0,0.1,0.1,0.2,0.2,0.4c0.5,1,1.1,2.2,1.8,3.3c5.1,8.3,16.5,19.2,27,11.6c12.2-8.8,10.8-12.1,11.3-15.5l0,0
			C440.6,292.6,437.5,287.1,437.5,287.1z"/>
		<line id="XMLID_44420_" class="st4" x1="352.3" y1="342" x2="354.9" y2="345.5"/>
		<path id="XMLID_44418_" class="st7" d="M424.7,338c0,0,1.6,3.3-1,4.7"/>
		<path id="XMLID_44417_" class="st7" d="M437,296c0,0-0.7,3-1.6,4"/>
		<path id="XMLID_44416_" class="st7" d="M367.8,300.9c0,0,1.3-5.6,0-5.6"/>
		<path id="XMLID_44415_" class="st7" d="M396.2,284.3c0,0,5.2,0.7,4.7,1.6"/>
		<path id="XMLID_44414_" class="st7" d="M390.6,357.9c0,0,6.1-0.9,6.5-2"/>
		<path id="XMLID_44413_" class="st7" d="M359,276.5c0,0-4,1.9-5.2,3.8"/>
		<line id="XMLID_44412_" class="st4" x1="419.4" y1="310" x2="423.6" y2="308.8"/>
	</g>
	<path class="st1" d="M437.5,287.1L437.5,287.1c-5.7-15.2-18.2-27.1-37.4-29c-26.5-2.7-42.2,8.6-51.2,20.7
		c9.3-6.9,22.3-11.4,40.2-9.7c19.1,1.9,31.5,13.8,37.3,29l0,0c0,0,3.1,5.6,2.5,9l0,0c-0.2,1.5-0.1,3-0.9,4.9
		c0.2-0.1,0.4-0.2,0.6-0.4c12.2-8.8,10.8-12.1,11.3-15.5l0,0C440.6,292.6,437.5,287.1,437.5,287.1z"/>
	<path id="XMLID_44411_" class="st3" d="M446.8,281.5c0,0-4,1.9-5.2,3.8"/>
	<path id="XMLID_44410_" class="st3" d="M413.8,251.5c0,0-4,1.9-5.2,3.8"/>
	<path id="XMLID_44409_" class="st3" d="M386.9,312.6c0,0-4,1.9-5.2,3.8"/>
	<path id="XMLID_44408_" class="st3" d="M441.9,323.5c0,0-4,1.9-5.2,3.8"/>
</g>
<g>
	<g>
		<path id="XMLID_44407_" class="st2" d="M471.4,233.2c0,0-5.2-29-29.5-18.7c-24.4,10.2-12.2,120.4-0.9,129
			C452.3,352.1,483.9,404.3,471.4,233.2z"/>
	</g>
	<g>
		<path id="XMLID_44406_" class="st9" d="M460.4,244.2c0,0-5.2-29-29.5-18.7c-24.4,10.2-12.2,120.4-0.9,129S472.9,415.3,460.4,244.2
			z"/>
		<path id="XMLID_44405_" class="st9" d="M450.6,351.5c0,0,1.6,3.3-1,4.7"/>
		<path id="XMLID_43774_" class="st9" d="M458.4,299.2c0,0,0.4,3,0.1,4.3"/>
		<path id="XMLID_43773_" class="st9" d="M427,319.8c0,0,1.3-5.6,0-5.6"/>
		<path id="XMLID_43772_" class="st9" d="M433.8,231.5c0,0-4,1.9-5.2,3.8"/>
	</g>
	<path class="st1" d="M460.4,244.2c0,0-5.2-29-29.5-18.7c-3.5,1.5-6.3,5-8.4,10c22.2-7.1,26.9,19.8,26.9,19.8
		c4.8,65.4,3.1,98.2-1.4,113.2C458.9,370.6,468.2,350.6,460.4,244.2z"/>
	<path id="XMLID_43771_" class="st3" d="M466.2,316.2c1.3,0.1,2.7,0,3.7-0.4"/>
	<path id="XMLID_43770_" class="st3" d="M465.3,339.1c0,0,1.3,0.1,2.8,0.1"/>
	<path id="XMLID_43769_" class="st3" d="M466.1,229.2c0,0-4.4,0.7-6,2.3"/>
</g>
<g>
	<g id="XMLID_43762_">
		<path id="XMLID_43767_" class="st2" d="M189.6,241.2c0,0-5.1-24.9-29.5-16s-12.3,103.1-1,110.4
			C170.4,342.9,202.1,387.7,189.6,241.2z"/>
		<path id="XMLID_43766_" class="st2" d="M184.1,286.5c0,0,42.7-42.4,34.2,36.6c0,0,10.2,24.4,30,14.2
			c19.9-10.2,22.7-135.5-73-100.2"/>
		<path id="XMLID_43765_" class="st3" d="M229.7,239.8c0,0-4,1.9-5.2,3.8"/>
		<path id="XMLID_43764_" class="st3" d="M245.8,254.8c0,0-4,1.9-5.2,3.8"/>
		<path id="XMLID_43763_" class="st3" d="M171.7,227.9c0,0-2.3,1.1-3.9,2.5"/>
	</g>
	<g id="XMLID_43751_">
		<path id="XMLID_43761_" class="st10" d="M178.7,252.2c0,0-5.1-24.9-29.5-16s-12.3,103.1-1,110.4
			C159.4,353.8,191.1,398.7,178.7,252.2z"/>
		<path id="XMLID_43760_" class="st10" d="M173.1,297.5c0,0,42.7-42.4,34.2,36.6c0,0,10.2,24.4,30,14.2
			c19.9-10.2,22.7-135.5-73-100.2"/>
		<line id="XMLID_43759_" class="st4" x1="160.9" y1="348.9" x2="164.9" y2="350.7"/>
		<path id="XMLID_43758_" class="st10" d="M234,338.3c0,0,1.6,3.3-1,4.7"/>
		<path id="XMLID_43757_" class="st10" d="M243.4,297.7c0,0-0.7,3-1.6,4"/>
		<path id="XMLID_43756_" class="st10" d="M175.5,323c0,0,1.3-5.6,0-5.6"/>
		<path id="XMLID_43755_" class="st10" d="M205.5,284.5c0,0,5.2,0.7,4.7,1.6"/>
		<path id="XMLID_43754_" class="st10" d="M154.7,311c0,0,6.1-0.9,6.5-2"/>
		<path id="XMLID_43753_" class="st10" d="M185.5,252.7c0,0-4,1.9-5.2,3.8"/>
		<line id="XMLID_43752_" class="st4" x1="148.8" y1="259.4" x2="153.1" y2="258.3"/>
		<path class="st1" d="M175.1,244c-3.7-6.5-11.4-13.9-26.5-8.5c-4,1.4-7,5.2-9.2,10.4c13.9-4.2,21.2,2.9,24.7,9.1
			c72.8-18.8,80.1,65,68.6,94.4c1.4-0.4,2.8-0.9,4.3-1.7C255.9,338,259.3,222.3,175.1,244z"/>
	</g>
	<path id="XMLID_43750_" class="st3" d="M254.2,320.4c-1,0.7-2,1.5-2.5,2.3"/>
	<path id="XMLID_43749_" class="st3" d="M186.9,326.9c0,0-1.3,0.6-2.7,1.5"/>
</g>
<g>
	<g>
		<g id="XMLID_43747_">
			<path id="XMLID_43748_" class="st2" d="M276.5,283.3c0,0,6.9-36.2-23.7-26c-30.6,10.2-11.9,89.7,4.3,86.3
				C273.2,340.3,280.6,327.6,276.5,283.3z"/>
		</g>
	</g>
	<g>
		<g id="XMLID_43745_">
			<path id="XMLID_43746_" class="st11" d="M265.5,294.4c0,0,6.9-36.2-23.7-26c-30.7,10.3-11.9,89.7,4.3,86.3
				C262.2,351.4,269.6,338.7,265.5,294.4z"/>
		</g>
		<line id="XMLID_43744_" class="st4" x1="239.7" y1="344.8" x2="243.7" y2="346.6"/>
		<path id="XMLID_43743_" class="st11" d="M259.9,332.2c0,0,1.6,3.3-1,4.7"/>
		<path id="XMLID_43742_" class="st11" d="M235.1,285.2c0,0-0.7,3-1.6,4"/>
		<path id="XMLID_43740_" class="st11" d="M260.7,287.2c0,0,1.3-5.6,0-5.6"/>
		<path id="XMLID_43739_" class="st11" d="M246.8,271.2c0,0,5.2,0.7,4.7,1.6"/>
	</g>
	<g>
		<path id="XMLID_43738_" class="st2" d="M253.7,214.1c0,0,34.5,19.6,0.6,34.3S230.6,196,253.7,214.1z"/>
		<path id="XMLID_43737_" class="st3" d="M262.7,227.8c0,0-4,1.9-5.2,3.8"/>
	</g>
	<g>
		<path id="XMLID_43736_" class="st12" d="M248.7,219.1c0,0,34.5,19.6,0.6,34.3S225.6,201,248.7,219.1z"/>
		<path id="XMLID_43735_" class="st12" d="M242.7,251.3c0,0,6.1-0.9,6.5-2"/>
		<path id="XMLID_43734_" class="st12" d="M239.4,221.5c0,0-4,1.9-5.2,3.8"/>
	</g>
	<path id="XMLID_43482_" class="st3" d="M263.4,261.6c-1.3,0.7-3.1,1.9-3.8,3.1"/>
	<path id="XMLID_42896_" class="st3" d="M271.9,326.8c0,0-1,0.5-2.2,1.2"/>
	<path class="st1" d="M265.5,294.4c0,0,6.9-36.2-23.7-26c-5.5,1.9-9.4,6-12.1,11.4c0.4-0.1,0.7-0.3,1.1-0.4
		c30.6-10.4,23.7,26,23.7,26c2.2,24,1.1,38.7-3,47.7C263.8,347.8,269.1,333.3,265.5,294.4z"/>
	<path class="st1" d="M243.7,224.1c0,0,21.7,12.4,13.7,24.9c19.3-13.8-8.8-29.9-8.8-29.9c-7.3-5.7-13.3-2.9-17,3
		C235,220.3,239.1,220.5,243.7,224.1z"/>
</g>
</svg>
