<?xml version="1.0" encoding="utf-8"?>
<!-- Generator: Adobe Illustrator 22.1.0, SVG Export Plug-In . SVG Version: 6.00 Build 0)  -->
<svg version="1.1" id="Layer_1" xmlns="http://www.w3.org/2000/svg" xmlns:xlink="http://www.w3.org/1999/xlink" x="0px" y="0px"
	 viewBox="0 0 607.5 642.9" style="enable-background:new 0 0 607.5 642.9;" xml:space="preserve">
<style type="text/css">
	.st0{fill:#A36B78;stroke:#584C4F;stroke-width:2;stroke-linecap:round;stroke-miterlimit:10;}
	.st1{fill:#A36B78;stroke:#584C4F;stroke-width:2;stroke-linecap:round;stroke-linejoin:round;stroke-miterlimit:10;}
	.st2{fill:#FFD767;stroke:#584C4F;stroke-width:2;stroke-miterlimit:10;}
	.st3{fill:#A36B78;}
	.st4{fill:none;stroke:#584C4F;stroke-width:2;stroke-linecap:round;stroke-miterlimit:10;}
	.st5{fill:#BEAB72;}
	.st6{fill:#584C4F;stroke:#584C4F;stroke-width:2;stroke-linecap:round;stroke-miterlimit:10;}
	.st7{opacity:0.1;fill:#231F20;stroke:#231F20;stroke-miterlimit:10;enable-background:new    ;}
	.st8{fill:#FFFFFF;stroke:#584C4F;stroke-width:2;stroke-linecap:round;stroke-miterlimit:10;}
</style>
<g id="Layer_5">
</g>
<g id="Layer_3">
</g>
<g>
	<g>
		<g id="XMLID_12217_">
			<path id="XMLID_12218_" class="st0" d="M249.7,632.8c2.1,7.6-11,7.4-8.5-1.2"/>
		</g>
		<path id="XMLID_12216_" class="st0" d="M154.5,638.2c34.8-1.7,77.6-3,99.8-4.2c40.2-2,99.4,1.2,99.4,1.2l-1.5-16.9
			c0,0-104.4,3.5-126.4,0c-15.7-2.4-73.9,1.9-107.9,3.2"/>
		<g id="XMLID_12214_">
			<path id="XMLID_12215_" class="st0" d="M350.1,618.2c7.2-6.9,9.6-9,19-12.8s-13.5,9.9-10.1,9.1c3.4-0.8,68.6-13.6,28.5-3.1
				s-14.5,6.4-14.5,6.4c55,0,11,4.5,4.1,5.8s36.7,10.4,15.1,8.8c-21.5-1.7-23.4,0-5.4,3.6c18,3.6-24.3,1.7-24.3,1.7
				s-13.2-0.8-12.1-4.1"/>
		</g>
		<path id="XMLID_12213_" class="st0" d="M241.7,627.7c0,0,0.6-2.8,1.2-3"/>
		<path id="XMLID_12212_" class="st0" d="M248.4,628.1c0,0,0.4,2.2-1.4,2.8"/>
		<path id="XMLID_12211_" class="st1" d="M338.5,631.5c0,0,9.1,13.6,9.9,0"/>
	</g>
	<path id="XMLID_12210_" class="st2" d="M153.4,614.2c4.2-2.2,60.7,4.1,65.6,3.8c4.9-0.3,5.5,1.6,5,15.3s-90.3,7-98.4,1.4
		c-2.9-1.9-5.6-9.6-8.1-18.7"/>
	<g>
		<path class="st0" d="M592.8,582.8c-1.8,0.5-3.8,1.5-6.3,2.6c-2.3,1-5.1,2-8.5,2.9c0-0.1,0-0.2,0-0.2s0,0-0.1,0c-0.5,0-3,0-6.9,0.2
			l-1.3,15.2l0,0.8l0,0.8c1.1,0.1,1.9,0.2,2.4,0.4c0,0,0.2,0,0.2,0c0.1,0.1,0.2,0.2,0.3,0.2c0.4,0.3,0.7,0.5,0.7,0.5
			s0.6,0.7,1.6,1.7c10.8,1.9,17.1,9.3,20.8,18.2c0.9-0.1,1.8-0.5,2.5-1.3c0.2-0.2,0.5-0.6,0.8-0.9c0.8-1.2,1.5-3,2-5.4
			c0.3-1.8,0.7-3.8,0.8-6.1c0.1-1.5,0.2-3,0.3-4.5c0-1.2,0.1-2.5,0.2-3.7c0-1.2,0-2.5-0.2-3.7c0-1.6-0.2-3.1-0.3-4.5
			c-0.2-2.3-0.5-4.4-0.8-6.2c-0.5-2.3-1.1-4.2-2-5.4c-0.2-0.4-0.5-0.7-0.8-0.9c-1-1-2.2-1.4-3.4-1.3
			C594.2,582.4,593.5,582.6,592.8,582.8z"/>
		<path class="st0" d="M316,609.8c0,0,57.8-3.7,102.4-3.4c5.2,0.2,10.1,0.2,14.5,0.2h0c10.9,0.3,15.8-0.2,16.9-1
			c25.8-3,124.2,0.3,124.2,0.3l1.5-16.9c0,0-59.2,3.2-99.4,1.2s-148-5-153.6-8.5"/>
		<g>
			<g id="XMLID_12208_">
				<path id="XMLID_12209_" class="st0" d="M597.5,640.1c0,0-0.6-6,4.3-3.9C606.6,638.4,600.8,645.1,597.5,640.1z"/>
			</g>
			<g id="XMLID_12206_">
				<path id="XMLID_12207_" class="st0" d="M596.8,636.6c0,0-0.7-6.7,4.8-4.3C606.9,634.7,600.5,642.2,596.8,636.6z"/>
			</g>
			<g id="XMLID_12204_">
				<path id="XMLID_12205_" class="st0" d="M595.6,632.3c0,0-0.8-7.8,5.5-5C607.5,630.2,600,638.9,595.6,632.3z"/>
			</g>
			<g id="XMLID_12202_">
				<path id="XMLID_12203_" class="st0" d="M594.5,626.9c0,0-0.8-9,6.3-5.7C608,624.4,599.5,634.4,594.5,626.9z"/>
			</g>
			<path id="XMLID_12201_" class="st0" d="M603.6,616.4c0,0,0.7,10.6-6.2,5.7s0.2-13.6,3.1-14.3
				C603.5,607.1,603.6,616.4,603.6,616.4z"/>
		</g>
		<path id="XMLID_12200_" class="st0" d="M441.1,595.7c0,0,0.1-2.3,2-2.3"/>
		<path id="XMLID_12199_" class="st0" d="M457.8,599.3c0,0-0.8,2.7-1.5,2.8"/>
		<g id="XMLID_12197_">
			<path id="XMLID_12198_" class="st0" d="M577.8,603c5,6.1-7.1,11.2-8.2,2.2"/>
		</g>
		<g id="XMLID_12195_">
			<path id="XMLID_12196_" class="st0" d="M453.2,603.8c2.1,7.6-11,7.4-8.5-1.2"/>
		</g>
	</g>
	<path class="st0" d="M277.1,524.5L273,635.6c0,0,29.5-0.6,40.6-1.3c1,0,2.1-0.1,3.1-0.2c0.4,0,0.7-0.1,0.9-0.1l0,0
		c17-3.1,32-22.5,32.5-53.2c0.8-50.1-14.5-51.5-14.5-51.5c-4.5-2.5-8.9-3.8-13-4.4c0-0.2,0-0.2,0-0.2S286,522.7,277.1,524.5z"/>
	<g>
		<path class="st2" d="M249.4,518.1c-0.8,0.1-1.5,0.2-2.2,0.3c-6,0.8-10.5,1.6-11.9,1.9c-7.3,1.5-87.8,4.4-101,5.9
			c-0.4,0-0.9,0.1-1.3,0.2c-3.7,0.8-6.7,3.3-9,6.3c-3.2,4.2-5.2,9.5-6.2,13c-5.6,6.7-9.4,20.5-8.6,39.2c0.8,17.8,1.1,45.2,27.9,46.5
			c3.1,0.2,6.5,0.2,10.4,0.1c36.2-1.4,95-1.5,110.6,2.3c0.8,0.2,1.5,0.4,2,0.6c8.5,3.2,29.9,7.1,37.9,3c0.1,0,0.2-0.1,0.3-0.2
			c2.8-1.6,3.7-4.3,1.4-8.6c0,0-1.3-5.4-1.2-9.4l4-77.2c0.5-3.2,1-6.1,1.5-8.4C320.5,511.3,274.3,514.8,249.4,518.1z"/>
		<path class="st2" d="M144.9,631.6c0.9,0,1.7,0,2.6-0.1c36.2-1.4,95-1.5,110.6,2.3c0.8,0.2,1.5,0.4,2,0.6c8.5,3.2,29.9,7.1,37.9,3
			c0.1,0,0.2-0.1,0.3-0.2c2.8-1.6,3.7-4.3,1.4-8.6"/>
		<path class="st2" d="M298.4,619.2l4-77.1c0.5-3.2,1-6.1,1.5-8.5c16.5-22.3-29.7-18.9-54.5-15.5c-0.8,0.1-1.5,0.2-2.2,0.3
			c-6,0.8-10.5,1.6-11.9,1.9c-7.3,1.5-87.8,4.4-101,5.9c-0.4,0-0.9,0.1-1.3,0.2c-3.7,0.8-6.7,3.3-9,6.3c-3.2,4.2-5.2,9.5-6.2,13
			c-5.6,6.7-9.4,20.5-8.6,39.2c0.7,16.4,1,40.8,21.9,45.8"/>
	</g>
	<path id="XMLID_12194_" class="st0" d="M191.8,523.2c0,0,93.6,8.7,107.3,5.1"/>
	<g>
		<path id="XMLID_12193_" class="st3" d="M106.9,563.8c-3.4-0.2-13.4,1-16.6,1.2c-2.9,0.2-5.4,0.6-7.6,1.2
			C63.3,554.8,41,586.3,66,597.5c7.8,3.5,22.9,3,25.5,3c3.4-0.1,14.6-0.1,17.5-0.1c16.3-0.1,29.2-24.2,8-33.8"/>
		<path id="XMLID_12192_" class="st4" d="M124.5,571.9c9.6,11.1-1.8,28.4-15.5,28.5c-2.9,0-14.1,0.1-17.5,0.1
			c-2.6,0.1-17.7,0.5-25.5-3c-25-11.2-2.7-42.7,16.8-31.3c2.1-0.6,4.6-1,7.6-1.2c3.2-0.2,13.1-1.4,16.6-1.1l10.1,2.8
			c1.1,0.5,2.2,1,3.1,1.6"/>
	</g>
	<g>
		<path class="st0" d="M316,546.1c0,0,57.8,3.6,102.4,3.4c5.2-0.1,10.1-0.2,14.5-0.2h0c10.9-0.3,15.8,0.2,16.9,1.1
			c25.8,2.9,124.2-0.3,124.2-0.3l1.5,16.9c0,0-59.2-3.2-99.4-1.2c-40.2,2.1-148,5.1-153.6,8.5"/>
		<path id="XMLID_12191_" class="st0" d="M443.1,555.2c0,0-2,1.2-1,2.9"/>
		<path id="XMLID_12190_" class="st0" d="M458.2,562c0,0-0.8-2.7-1.5-2.8"/>
		<g id="XMLID_12188_">
			<path id="XMLID_12189_" class="st0" d="M570.8,552.8c-5-6.1,7.1-11.2,8.2-2.2"/>
		</g>
		<g id="XMLID_12186_">
			<path id="XMLID_12187_" class="st0" d="M447.2,562.7c-5,6.1,7.1,11.2,8.2,2.2"/>
		</g>
		<g>
			<path class="st0" d="M595.7,544.6c-1.8,0.5-3.8,1.5-6.3,2.6c-2.3,1-5.1,2-8.5,2.9c0-0.1,0-0.2,0-0.2s0,0-0.1,0
				c-0.5,0-3,0-6.9,0.2l-1.3,15.2l0,0.8l0,0.9c1.1,0.1,1.9,0.2,2.4,0.3c0,0,0.2,0,0.2,0c0.1,0.1,0.2,0.2,0.3,0.2
				c0.4,0.4,0.7,0.6,0.7,0.6s0.6,0.6,1.6,1.7c10.8,1.9,17.1,9.4,20.8,18.2c0.9-0.1,1.8-0.5,2.5-1.3c0.2-0.2,0.5-0.5,0.8-0.9
				c0.8-1.1,1.5-3,2-5.4c0.3-1.8,0.7-3.9,0.8-6.2c0.1-1.5,0.2-3,0.3-4.5c0-1.2,0.1-2.5,0.2-3.7c0-1.2,0-2.5-0.2-3.7
				c0-1.6-0.2-3.1-0.3-4.5c-0.2-2.3-0.5-4.4-0.8-6.2c-0.5-2.3-1.1-4.2-2-5.4c-0.2-0.4-0.5-0.7-0.8-0.9c-1-1-2.2-1.4-3.4-1.3
				C597.1,544.2,596.4,544.3,595.7,544.6z"/>
			<g>
				<g id="XMLID_12184_">
					<path id="XMLID_12185_" class="st0" d="M600.3,601.8c0,0-0.6-6.1,4.3-3.9C609.5,600.1,603.7,606.9,600.3,601.8z"/>
				</g>
				<g id="XMLID_12182_">
					<path id="XMLID_12183_" class="st0" d="M599.7,598.3c0,0-0.7-6.7,4.8-4.3C609.8,596.5,603.4,604,599.7,598.3z"/>
				</g>
				<g id="XMLID_12180_">
					<path id="XMLID_12181_" class="st0" d="M598.5,594.1c0,0-0.8-7.8,5.5-5C610.4,591.9,602.9,600.6,598.5,594.1z"/>
				</g>
				<g id="XMLID_12178_">
					<path id="XMLID_12179_" class="st0" d="M597.4,588.7c0,0-0.8-9,6.3-5.7C610.9,586.2,602.4,596.2,597.4,588.7z"/>
				</g>
				<path id="XMLID_12177_" class="st0" d="M606.5,578.2c0,0,0.7,10.6-6.2,5.7s0.2-13.6,3.1-14.3
					C606.3,568.9,606.5,578.2,606.5,578.2z"/>
			</g>
		</g>
	</g>
	<g>
		<g id="XMLID_12175_">
			<path id="XMLID_12176_" class="st0" d="M241.8,531.3c-5-6.1,7.1-11.2,8.2-2.2"/>
		</g>
		<path id="XMLID_12174_" class="st0" d="M172.8,524.3c30.4,1.3,63.1,2.5,81.4,3.4c40.2,2,99.4-1.2,99.4-1.2l-1.5,16.9
			c0,0-104.4-3.5-126.4,0c-12.6,2-52.4-0.4-85.2-2.2"/>
		<path id="XMLID_12173_" class="st0" d="M242,534.3c0,0,0.1-2.3,2-2.3"/>
		<path id="XMLID_12172_" class="st0" d="M248.5,535c0,0-0.9,2.7-1.5,2.9"/>
		<g id="XMLID_12159_">
			<path id="XMLID_12171_" class="st3" d="M381,547.2c0.8-2.9,0.9-4.9,0.8-6.3c10.8,0.8,7.6-4.5,5.5-7l0.5-1.1
				c6.4-3.5,0.1-7.7-2-8.9l1.5-0.1c2.9-5.6-3.2-5.3-6.5-4.8c1-0.5,2-2,1.9-5.9c-0.1-7.3-35.1,14-35.1,14l3.8,16.2
				C351.3,543.4,377.2,562,381,547.2z"/>
			<path id="XMLID_12170_" class="st0" d="M351.3,543.4c0,0,25.9,18.6,29.6,3.8c0.8-2.9,0.9-4.9,0.8-6.3c10.8,0.8,7.6-4.5,5.5-7
				l0.5-1.1c6.4-3.5,0.1-7.7-2-8.9l1.5-0.1c2.9-5.6-3.2-5.3-6.5-4.8c1-0.5,2-2,1.9-5.9c-0.1-7.3-35.1,14-35.1,14"/>
			<g id="XMLID_12163_">
				<g id="XMLID_12165_">
					<path id="XMLID_12169_" class="st1" d="M347.6,527.2c0,0,35-21.4,35.1-14c0.1,7.3-3.5,6-3.8,6.2c0,0,12.2-3,8.4,4.5"/>
					<path id="XMLID_12168_" class="st1" d="M385.1,523.7c0,0,10.5,5.2,2.1,9.4"/>
					<path id="XMLID_12167_" class="st1" d="M351.3,543.4c0,0,25.9,18.6,29.6,3.8c3.8-14.8-6.6-7.4-6.2-3.2"/>
					<path id="XMLID_12166_" class="st1" d="M386,532.6c0,0,10.4,9.8-5.5,8.1l-8-0.5"/>
				</g>
				<path id="XMLID_12164_" class="st1" d="M346.6,529.8c0,0-10.1-10-10.9,0"/>
			</g>
			<path id="XMLID_12162_" class="st0" d="M372,533.5c0,0,4.9,0.5,7.5-0.4"/>
			<path id="XMLID_12161_" class="st0" d="M377.8,525.6c0,0,3.5-0.2,3.5-0.9"/>
			<path id="XMLID_12160_" class="st1" d="M363.8,524.7c2.2-0.7,7-3.6,7-3.6"/>
		</g>
	</g>
	<path id="XMLID_12158_" class="st2" d="M156.4,549c4.2,2.2,60.6-4.1,65.5-3.8c4.9,0.3,5.5-1.6,5-15.3c-0.5-13.7-90.3-7-98.4-1.5
		c-2.9,2-5.6,9.6-8.1,18.7"/>
	<g>
		<path class="st5" d="M143,554.3c0,0-5.1,13.7-0.4,14.6c4.8,0.9,20.1,5.4,21.1-2.8c1.1-8.1,0.8-11.8-6.1-12.1
			C150.7,553.8,143,554.3,143,554.3z"/>
		<g>
			<path id="XMLID_12157_" class="st0" d="M143.4,554.9c0,0,1.4-1.8,2.9-0.8"/>
			<path id="XMLID_12156_" class="st0" d="M142.7,567.3c0,0,1.2,2.5,2.4,3.2"/>
			<path id="XMLID_12155_" class="st0" d="M154.4,554.5c0,0-2.6-0.8-4-0.3"/>
			<path id="XMLID_12154_" class="st0" d="M162.9,568c0,0,1.1-2.5,0.8-3.9"/>
			<path id="XMLID_12153_" class="st0" d="M160.9,556.1c0,0,2.1,0.9,1.4,2.6"/>
			<path id="XMLID_12152_" class="st0" d="M150,570.1c0,0,1.9,0.4,2.4,0.9"/>
			<line id="XMLID_12151_" class="st4" x1="142.2" y1="560.3" x2="142.1" y2="563"/>
			<path id="XMLID_12150_" class="st0" d="M157.1,571c0,0,2.7,0.6,4,0.1"/>
		</g>
		<g>
			<path id="XMLID_12149_" class="st0" d="M331.4,601.1c0,0-2.9,1.7-4.6,0.4"/>
			<path id="XMLID_12148_" class="st0" d="M319,597.3c0,0,2,1.9,3.4,2.2"/>
			<path id="XMLID_12147_" class="st0" d="M336.1,598.4c0,0,2.6-0.8,3.5-1.8"/>
		</g>
	</g>
	<g id="XMLID_11466_">
		<g id="XMLID_12143_">
			<path id="XMLID_12146_" class="st0" d="M19,539.7c0,0-17.5-23.2-18-5.1c-0.5,18.1,4.5,37.6,11,35.2c6.5-2.5,6.6-7.9,6.6-7.9"/>
			<path id="XMLID_12145_" class="st0" d="M13.2,540.9c0,0-6.8-10.6-8.5-5.6"/>
			<path id="XMLID_12144_" class="st0" d="M15.8,548.3c0,0-10-2.7-8.6,3.2c1.4,5.8,5.1,9.7,6.8,3.2"/>
		</g>
		<path id="XMLID_12142_" class="st6" d="M71.5,458.3c0,0-6.6,5.8,1.6,8.4S78.6,455.3,71.5,458.3z"/>
		<path id="XMLID_12141_" class="st0" d="M57.6,472.3c0,0,52.4,3.8,45.2,65.7s-5.4,73.3-35,79.6S22,602.3,18.7,585.8
			S-8.2,480.5,57.6,472.3z"/>
		<path class="st7" d="M82.2,481.5c6.6,9.8,10.7,23.9,8.3,44.4c-7.4,61.9-5.4,73.3-35,79.5c-12.7,2.7-22.8,0.3-30.6-4.6
			c7.7,11.8,21.9,21.3,42.8,16.9c29.6-6.3,27.6-17.6,34.9-79.5C106.5,506.5,94.7,490,82.2,481.5z"/>
		<path id="XMLID_12140_" class="st2" d="M99.8,487.1c-0.2-2.1-1.1-4.7-2.9-8c0,0-0.1,0-0.1,0l0,0c-0.4-0.7-0.8-1.4-1.3-2.2
			c-5.9-9.2-15.4-14.5-24.2-17.2c-37.6-16.9-41.4,18.8-41.5,32.2c0,1.3,16.9-0.2,32.4-4c19.6,7.9,38.1,16.7,38.1,16.7
			S101.6,493.2,99.8,487.1z"/>
		<path id="XMLID_12139_" class="st0" d="M52.2,543.4c0,0,9.3,7,21.5,2.7"/>
		<path id="XMLID_12138_" class="st0" d="M29.3,543.7c0,0-15.1,3.2-18.3,1.9"/>
		<path id="XMLID_12137_" class="st0" d="M39.3,612.2c0,0-6.2,5.8,6.7,8.3s21.4-0.9,18.8-5.7"/>
		<path id="XMLID_12136_" class="st2" d="M20.5,497c0,0,20.1-8.1,43.7-3c23.6,5.2,35.8,10.7,35.8,10.7c-7.6-26-53.2-26.2-76.2-24.7
			c-23.1,1.5-16.9,10.3-16.9,10.3S10.3,494.5,20.5,497z"/>
		<path id="XMLID_12135_" class="st0" d="M20.5,497c0,0-39.8-11,15.3-13.5c55.1-2.4,64.2,21.2,64.2,21.2S49.1,482.6,20.5,497z"/>
		<g>
			<path id="XMLID_12134_" class="st0" d="M48.8,548c0,0-9.4-11.8-9.1-18.3"/>
			<g id="XMLID_12131_">
				<path id="XMLID_12133_" class="st0" d="M32.4,549.3c0.3,3.1,1.3,5.2,3.3,5.6c1.1,0.2,2.1,0.2,2.8,0c0.7-0.1,1.2-0.4,1.6-0.6"/>
				<path id="XMLID_12132_" class="st0" d="M42.6,511.9c0,0-7.2,19.2-9.3,32.9"/>
			</g>
			<g id="XMLID_12125_">
				<path id="XMLID_12130_" class="st0" d="M29,550.9c0,0-6.9,8.1,4.2,10.4"/>
				<path id="XMLID_12129_" class="st0" d="M48.2,550.9c0,0,7.4,6.2-3.1,10.4"/>
				<path id="XMLID_12128_" class="st0" d="M42.7,556c1.1,0.3,2.6-1.9,3.8,0c1.2,1.9-0.2,1.3-1.7,1.8
					C43.2,558.1,41.6,555.6,42.7,556z"/>
				<path id="XMLID_12127_" class="st0" d="M32.1,558.7c-2.1-0.1-2.6-1.8-1.5-2.7c0.4-0.3,1.6,0.2,2.7,0.9
					C34.2,557.5,32.1,558.7,32.1,558.7z"/>
				<path id="XMLID_12126_" class="st0" d="M39.6,546.7c0,0,2.2,0,2.7,0.7"/>
			</g>
			<path id="XMLID_12124_" class="st0" d="M24.9,555.9c0,0-6.1,3.1-7.8,3.7"/>
			<path id="XMLID_12122_" class="st0" d="M52.6,554.2c0,0,7.1,3.4,7.8,3.3"/>
		</g>
		<path id="XMLID_12121_" class="st0" d="M82.8,523.8c0,0,1,2.1-0.6,3"/>
		<path id="XMLID_12120_" class="st0" d="M77.3,544.9c0,0-0.4,1.9-1,2.5"/>
		<path id="XMLID_12119_" class="st0" d="M77.9,508.3c0,0,0.8-3.5,0-3.5"/>
		<path id="XMLID_12118_" class="st0" d="M26.8,496.5c0,0,3.3,0.5,2.9,1"/>
		<path id="XMLID_12117_" class="st0" d="M47,502.7c0,0,3.8-0.5,4.1-1.3"/>
		<path id="XMLID_12116_" class="st0" d="M28.2,597c0,0,2.8,0.6,3,1.2"/>
		<path id="XMLID_12115_" class="st0" d="M51.6,598.2c0,0-2.6,1.2-3.3,2.4"/>
		<path id="XMLID_12114_" class="st0" d="M25.6,536.5"/>
		<path id="XMLID_12113_" class="st0" d="M43.9,538.7"/>
		<line id="XMLID_12112_" class="st4" x1="70.1" y1="559.1" x2="72.8" y2="558.4"/>
		<path id="XMLID_12111_" class="st0" d="M95.4,546.2c0,0,19.4-21.6,18.4-3.6c-1.1,18.1-7.7,37.1-13.9,34.1s-5.9-8.4-5.9-8.4"/>
		<path id="XMLID_12110_" class="st0" d="M101,548c0,0,7.7-10,9-4.9"/>
		<path id="XMLID_12109_" class="st0" d="M97.8,555.1c0,0,10.2-1.8,8.3,3.9c-1.9,5.6-5.9,9.2-7.1,2.6"/>
		<g>
			<path id="XMLID_12108_" class="st8" d="M13.1,504.8c0,0,35.8-3.5,22.8,25.3C22.9,558.9-16.9,524.8,13.1,504.8z"/>
			<path id="XMLID_12107_" class="st6" d="M14.7,519.6c0,0,5.3-2.1,4.8,3.4S11,524.4,14.7,519.6z"/>
			<path id="XMLID_12106_" class="st8" d="M52.9,508.8c0,0-26.3,23.1,6.4,33.7C92,553,81.4,497,52.9,508.8z"/>
			<path id="XMLID_12105_" class="st6" d="M71.1,522.9c0,0,5.4-2.1,4.8,3.4S67.4,527.6,71.1,522.9z"/>
			<path id="XMLID_12104_" class="st6" d="M55,504.1c0,0-12.1,1.4-3.4,9.9s25.2,0.3,24.3-2.7S73.4,503.2,55,504.1z"/>
			<path id="XMLID_12103_" class="st6" d="M19.9,499c0,0-18.6-1.1-10,9.3c8.6,10.3,23.9-0.2,25.1-4.6S19.9,499,19.9,499z"/>
			<g id="XMLID_11476_">
				<path id="XMLID_12102_" class="st0" d="M74.7,541.4c0.2,0.1,0.4,0.2,0.7,0.2c0.9,0.2,1.8,0.4,2.8-0.6c2.2-2.5-2.9-3.2-2.9-3.2
					l-5.7-0.4c0,0-12.1-0.8-19.2,1.1c0,0,10.5,5.6,16.9,5.2c0.8,0,1.4-0.1,2.1-0.4C70,543,73.6,541.1,74.7,541.4z"/>
				<path id="XMLID_12101_" class="st0" d="M17,534.4c0,0,7.1-1.3,14.9,1.1c0,0-3.8,8.4-16.4,4.5c-4.1-1.2-4.9,1-7.2-1.3
					c-2.2-2.5,2.9-3.2,2.9-3.2L17,534.4z"/>
			</g>
		</g>
		<g id="XMLID_11471_">
			<path id="XMLID_11475_" class="st6" d="M25.3,575.5c0,0-19.2,2.5-8.5,9.5C27.5,591.9,25.3,575.5,25.3,575.5z"/>
			<path id="XMLID_11474_" class="st6" d="M22.5,569.8c0,0-15.8-0.8-8.6,7.3c7.3,8.2,20.3-0.2,21.4-3.7S22.5,569.8,22.5,569.8z"/>
			<path id="XMLID_11473_" class="st6" d="M54.2,573.9c0,0-7.7-2.6-6.4,7.2s14.7,8.1,15.5,5.3C64.1,583.6,65.4,578.9,54.2,573.9z"/>
			<path id="XMLID_11472_" class="st6" d="M47.6,571.3c0,0-22.5-2.8-0.3,8S73.2,574.7,47.6,571.3z"/>
		</g>
		<g id="XMLID_11467_">
			<path id="XMLID_11470_" class="st0" d="M27.5,584.9c0,0,11.8,11.7,18.3,0"/>
			<path id="XMLID_11469_" class="st0" d="M30.2,583c0,0,3.2-3.5,5.6,0"/>
			<path id="XMLID_11468_" class="st0" d="M41.5,583c0,0-3.2-3.5-5.7,0"/>
		</g>
	</g>
	<path id="XMLID_11465_" class="st0" d="M127.4,569.3c-0.3-0.9-0.9-1.7-2.2-2.5"/>
	<path id="XMLID_11464_" class="st0" d="M120.5,601c0,0,1.1-0.2,2.1-1"/>
	<path id="XMLID_11463_" class="st0" d="M130,593.9c0.1-0.2,0.3-0.5,0.4-0.9"/>
	<path id="XMLID_11462_" class="st2" d="M272.9,620.8c0,0-93.9-2.8-107.4,1.7"/>
</g>
</svg>
