<?xml version="1.0" encoding="utf-8"?>
<!-- Generator: Adobe Illustrator 22.1.0, SVG Export Plug-In . SVG Version: 6.00 Build 0)  -->
<svg version="1.1" id="Layer_1" xmlns="http://www.w3.org/2000/svg" xmlns:xlink="http://www.w3.org/1999/xlink" x="0px" y="0px"
	 viewBox="0 0 42.2 43.6" style="enable-background:new 0 0 42.2 43.6;" xml:space="preserve">
<style type="text/css">
	.st0{opacity:0.1;fill:#36423E;stroke:#36423E;stroke-linecap:round;stroke-miterlimit:10;}
	.st1{fill:#FCF4E9;stroke:#221F1F;stroke-miterlimit:10;}
</style>
<path class="st0" d="M40.2,10.1c-0.3-0.8-0.8-1.5-1.5-2c1-0.1,1.6-0.3,1.9-0.5c0,0,1-0.9,0.9-1.6c0-0.3-1-1.1-1.3-1.2
	c-1-0.3-4-0.4-6.1-0.4c-1.2,0-3.6,0-4.4,0c-1.6,0-3,0-4.2,0c-0.8,0-1.6,0-2.3,0c-0.8,0-1.6,0-2.4,0c-1.3,0-2.7,0-4.2,0
	c-0.8,0-3.3,0-4.4,0c-2.1,0-5.1,0-6.1,0.4C5.9,5,4.9,5.7,4.8,6.1C4.8,6.8,5.8,7.7,5.8,7.7C6.1,7.9,6.6,8,7.6,8.2
	c-0.6,0.5-1.2,1.1-1.5,2c-0.3,0.8-1.5,7.3-1.6,10.4c-0.1,6.6,1.1,14.3,1.2,14.5c0.4,1.8,1.1,3.4,2.3,4.6c1,2.2,3.4,2.9,5.6,3.1
	c0.7,0.1,2.1,0.1,3.6,0.1c0.9,0.1,1.8,0.1,2.7,0.1c0.5,0,1.4,0,2.4,0c0,0,0.1,0,0.1,0c0.1,0,0.4,0,0.6,0c0.3,0,0.6,0,0.7,0
	c0,0,0,0,0.1,0c1,0,1.8,0,2.4,0c0.9,0,1.9,0,2.8-0.1c1.5,0,2.8-0.1,3.5-0.1c2.2-0.2,4.6-0.9,5.6-3.1c1.3-1.2,2-2.8,2.4-4.6
	c0-0.2,1.3-7.9,1.2-14.5C41.7,17.5,40.5,10.9,40.2,10.1z"/>
<g>
	<path class="st1" d="M36.2,6.1c-1.2-3.1-5-3.5-7.6-3.4c-1,0-2.7,0-4,0c-1.3-0.2-2.7-0.3-4.2-0.2c-0.4,0-0.9,0-1.3,0
		c-0.4,0-0.8,0-1.2,0c-1.4,0-2.8,0.1-4.1,0.2c-1.3,0-3.1,0-4.1,0C7.1,2.6,3.3,3.1,2.1,6.1c-0.3,0.8-1.5,7.3-1.6,10.4
		c-0.1,6.6,1.1,14.3,1.2,14.5c0.4,1.8,1.1,3.4,2.3,4.6c1,2.2,3.4,2.9,5.6,3.1c0.7,0.1,2.1,0.1,3.6,0.1c0.9,0.1,1.8,0.1,2.7,0.1
		c0.6,0,1.7,0,2.9,0c1.4,0,2.6,0,3.3,0c0.9,0,1.9,0,2.8-0.1c1.5,0,2.8-0.1,3.5-0.1c2.2-0.2,4.6-0.9,5.6-3.1c1.3-1.2,2-2.8,2.4-4.6
		c0-0.2,1.3-7.9,1.2-14.5C37.7,13.5,36.5,6.9,36.2,6.1z"/>
	<path class="st1" d="M22.8,28.6c-0.3-1-1.1-1.1-1.6-1.1c-0.2,0-0.6,0-0.8,0c-0.3-0.1-0.6-0.1-0.9-0.1c-0.1,0-0.2,0-0.3,0
		c-0.1,0-0.2,0-0.3,0c-0.3,0-0.6,0-0.9,0.1c-0.3,0-0.6,0-0.9,0c-0.5,0-1.3,0.1-1.6,1.1c-0.1,0.2-0.3,2.3-0.3,3.3
		c0,2.1,0.2,4.5,0.3,4.6c0.1,0.6,0.2,1.1,0.5,1.5c0.2,0.7,0.7,0.9,1.2,1c0.2,0,0.4,0,0.8,0c0.2,0,0.4,0,0.6,0c0.1,0,0.4,0,0.6,0
		c0.3,0,0.6,0,0.7,0c0.2,0,0.4,0,0.6,0c0.3,0,0.6,0,0.8,0c0.5-0.1,1-0.3,1.2-1c0.3-0.4,0.4-0.9,0.5-1.5c0-0.1,0.3-2.5,0.3-4.6
		C23.1,31,22.8,28.9,22.8,28.6z"/>
	<path id="XMLID_2929_" class="st1" d="M21.8,32.6c0.8,1.8-2.8,1.3-1.9,0.1C19.9,32.6,21,30.7,21.8,32.6z"/>
	<g>
		<path class="st1" d="M16.2,11.8c-0.4-1-1.6-1.1-2.4-1.1c-0.3,0-0.9,0-1.3,0c-0.4-0.1-0.9-0.1-1.3-0.1c-0.1,0-0.3,0-0.4,0
			c-0.1,0-0.3,0-0.4,0c-0.4,0-0.9,0-1.3,0.1c-0.4,0-1,0-1.3,0c-0.8,0-2,0.1-2.4,1.1c-0.1,0.2-0.5,2.3-0.5,3.3c0,2.1,0.4,4.5,0.4,4.6
			c0.1,0.6,0.3,1.1,0.7,1.5c0.3,0.7,1.1,0.9,1.8,1c0.2,0,0.7,0,1.2,0c0.3,0,0.6,0,0.9,0c0.2,0,0.5,0,0.9,0c0.4,0,0.8,0,1.1,0
			c0.3,0,0.6,0,0.9,0c0.5,0,0.9,0,1.1,0c0.7-0.1,1.5-0.3,1.8-1c0.4-0.4,0.6-0.9,0.7-1.5c0-0.1,0.4-2.5,0.4-4.6
			C16.7,14.1,16.3,12,16.2,11.8z"/>
		<line class="st1" x1="10.8" y1="10.7" x2="10.7" y2="22.2"/>
		<line class="st1" x1="4.9" y1="16.4" x2="16.7" y2="16.4"/>
	</g>
	<g>
		<path class="st1" d="M32.8,11.8c-0.4-1-1.6-1.1-2.4-1.1c-0.3,0-0.9,0-1.3,0c-0.4-0.1-0.9-0.1-1.3-0.1c-0.1,0-0.3,0-0.4,0
			c-0.1,0-0.3,0-0.4,0c-0.4,0-0.9,0-1.3,0.1c-0.4,0-1,0-1.3,0c-0.8,0-2,0.1-2.4,1.1c-0.1,0.2-0.5,2.3-0.5,3.3c0,2.1,0.4,4.5,0.4,4.6
			c0.1,0.6,0.3,1.1,0.7,1.5c0.3,0.7,1.1,0.9,1.8,1c0.2,0,0.7,0,1.2,0c0.3,0,0.6,0,0.9,0c0.2,0,0.5,0,0.9,0c0.4,0,0.8,0,1.1,0
			c0.3,0,0.6,0,0.9,0c0.5,0,0.9,0,1.1,0c0.7-0.1,1.5-0.3,1.8-1c0.4-0.4,0.6-0.9,0.7-1.5c0-0.1,0.4-2.5,0.4-4.6
			C33.3,14.1,32.9,12,32.8,11.8z"/>
		<line class="st1" x1="27.4" y1="10.7" x2="27.4" y2="22.2"/>
		<line class="st1" x1="21.5" y1="16.4" x2="33.3" y2="16.4"/>
	</g>
	<path class="st1" d="M28.4,4.5c0.8,0,1.6,0,2.4-0.1c3.7-0.1,5.3-0.4,5.8-0.8c0,0,1-0.9,0.9-1.6c0-0.3-1-1.1-1.3-1.2
		c-1-0.3-4-0.4-6.1-0.4c-1.2,0-3.6,0-4.4,0c-1.6,0-3,0-4.2,0c-0.8,0-1.6,0-2.3,0c-0.8,0-1.6,0-2.4,0c-1.3,0-2.7,0-4.2,0
		c-0.8,0-3.3,0-4.4,0c-2.1,0-5.1,0-6.1,0.4C1.9,1,0.9,1.7,0.8,2.1C0.8,2.8,1.8,3.7,1.8,3.7c0.6,0.4,2.1,0.7,5.8,0.8"/>
	<path class="st1" d="M21.9,4.6c1.1,0,2.3,0,3.5,0"/>
	<path class="st1" d="M14.3,4.6c0.6,0,1.5,0,2.6,0"/>
</g>
</svg>
