<?xml version="1.0" encoding="utf-8"?>
<!-- Generator: Adobe Illustrator 23.0.3, SVG Export Plug-In . SVG Version: 6.00 Build 0)  -->
<svg version="1.1" id="Layer_1" xmlns="http://www.w3.org/2000/svg" xmlns:xlink="http://www.w3.org/1999/xlink" x="0px" y="0px"
	 viewBox="0 0 318 345.1" style="enable-background:new 0 0 318 345.1;" xml:space="preserve">
<style type="text/css">
	.st0{fill:#FFFFFF;}
	.st1{fill:#2C2C2C;}
</style>
<g>
	<g>
		<path class="st0" d="M211.4,163.3c-0.6-1.1-1.9-1.7-3.1-1.9c-0.4-0.1-0.8-0.1-1.2-0.1H207c-0.4,0-0.9,0.1-1.3,0.2
			c-0.5,0.1-1,0.2-1.4,0.3c-0.9,0.3-1.8,0.6-2.6,1c-1.8,0.7-3.5,1.6-5.2,2.5c-1.6,0.9-3.1,1.9-4.4,3.2c-1.1,1.1-2,2.3-3,3.5
			c-1.1,1.4-2.2,2.8-3.2,4.2c-0.4,0.6-0.9,1.2-1.3,1.8c-0.4,0.6-0.8,1.2-1.2,1.9c-0.5,0.9-0.9,1.7-1.2,2.6c-1.2,2.1-2.2,4.3-3.2,6.5
			c-0.4,0.9-0.8,1.9-1.2,2.9c-0.3,0.8-0.6,1.5-0.8,2.3c-0.3,0.8-0.5,1.7-0.7,2.6c-0.2,1-0.3,2.1-0.5,3.2c-0.1,1.2-0.2,2.5-0.2,3.8
			c0,0.6,0,1.1,0.1,1.7c0.1,0.6,0.1,1.2,0.3,1.8c0.3,1.1,1,2.3,2.2,2.9c0.3,0.2,0.5,0.3,0.8,0.3c0.5,0.1,0.9,0.1,1.4,0
			c0.7-0.1,1.2-0.5,1.7-1c0.3-0.3,0.6-0.8,0.8-1.2c0.1-0.3,0.3-0.6,0.4-0.9c0.7-0.9,1.2-1.8,1.6-2.8c0.5-1.1,0.9-2.2,1.3-3.4
			c0.3-1,0.6-2,0.9-2.9c0.3-1,0.6-2,1-3c0.3-0.8,0.6-1.7,0.9-2.5c1-2.2,2.1-4.3,3.4-6.3c0.7-1.1,1.3-2.1,1.9-3.2
			c0.4-0.6,0.7-1.2,1.1-1.8c0.3-0.5,0.6-0.9,0.9-1.3c1.7-2.1,3.6-4,5.6-5.9l0.1-0.1c0.3-0.2,0.6-0.5,0.9-0.7c0.7-0.5,1.3-1.1,2-1.6
			c0.1-0.1,0.2-0.2,0.3-0.3c0.6-0.5,1.3-1,1.9-1.5c0.6-0.4,1.1-0.8,1.7-1.2c0.5-0.3,1-0.7,1.4-1.1c0.4-0.3,0.7-0.7,0.9-1.1
			c0.2-0.3,0.3-0.7,0.4-1c0.1-0.5,0.1-0.9,0-1.4C211.7,163.9,211.6,163.6,211.4,163.3z"/>
		<g>
			<path class="st0" d="M212.5,162.3c-3.4-3.9-8.1-2.2-12.2-0.5c-6.5,2.8-10.5,6.7-14.7,12.3c-4,5.3-7,11.3-9.3,17.4
				c-1.8,4.8-4,12.8-1.2,17.6c1.8,3.2,5.7,3.6,8.2,1c4.9-5.1,5.3-13.8,8.5-19.8c3.4-6.4,7.5-12.2,13.2-16.7
				c3.4-2.7,9.6-5.4,7.8-10.7c-0.6-1.8-3.5-1-2.9,0.8c0.5,1.4-2.2,3.8-3.1,4.7c-0.4,0.4-1.1,0.8-1.5,1.2c-1.2,0.9-2.3,1.8-3.5,2.7
				c-2.9,2.4-5.7,5.2-7.8,8.4c-2.4,3.7-4.9,7.6-6.6,11.7c-0.9,2.3-1.6,4.6-2.3,6.9c-0.6,1.8-1.6,6.4-3.4,7.4c-0.3,0.8-1,0.8-2.3,0.1
				c-1.9,0.7-2.7,0.2-2.3-1.6c-0.5-1.5-0.1-3.8,0.1-5.3c0.3-2.5,0.8-4.8,1.7-7.1c1.7-4.6,3.9-9.5,6.6-13.6c2.6-4,5.7-8.4,9.6-11.3
				c3.3-2.4,11.6-7.7,15.2-3.6C211.7,165.8,213.8,163.7,212.5,162.3z"/>
		</g>
	</g>
	<g>
		<path class="st0" d="M249.4,164.8c0-0.3,0-0.8-0.1-1.1c-0.1-0.4-0.3-0.7-0.4-1c-0.2-0.3-0.4-0.6-0.7-0.9c-0.1-0.1-0.2-0.3-0.4-0.4
			c-0.2-0.2-0.5-0.4-0.8-0.6c-0.2-0.2-0.7-0.3-0.9-0.4c-0.2-0.1-0.3-0.1-0.5-0.2c-0.4-0.1-0.9-0.2-1.2-0.2s-0.5,0-0.8,0
			c-0.1,0-0.2,0-0.3,0c-1,0.1-2,0.3-2.9,0.6c-0.5,0.2-1.1,0.4-1.6,0.7c-0.5,0.2-0.9,0.4-1.4,0.7c-1.3,0.7-2.4,1.7-3.5,2.6
			c-0.7,0.6-1.3,1.2-1.9,1.9l-0.1,0.1c-0.2,0.1-0.4,0.2-0.6,0.4c-0.8,0.5-1.5,1.1-2.2,1.6c-1.4,1.2-2.7,2.4-3.9,3.7
			c-0.6,0.6-1.2,1.2-1.8,1.9c-0.7,0.7-1.3,1.5-1.9,2.3c-0.5,0.7-1.1,1.4-1.6,2.2c-0.3,0.4-0.5,0.7-0.7,1.1c-0.3,0.5-0.5,1.1-0.8,1.7
			c-0.6,1.6-1.1,3.2-1.5,4.9c-0.4,1.6-0.7,3.2-1.1,4.8c-0.4,1.7-0.8,3.4-1.1,5.1c-0.2,1-0.3,2.1-0.4,3.1c-0.1,0.9-0.2,1.7-0.2,2.6
			c0,1,0.1,2,0.3,3c0.1,0.8,0.5,1.6,0.9,2.3s1,1.2,1.7,1.7c0.3,0.2,0.7,0.3,1.1,0.4c0.3,0.1,0.6,0.1,0.9,0.1c0.3,0,0.6,0,0.9-0.1
			c0.3-0.1,0.7-0.2,1-0.4s0.6-0.5,0.9-0.7c0.3-0.3,0.6-0.7,0.9-1.1c0.1-0.2,0.2-0.3,0.3-0.5c0.4-0.5,0.6-1.2,0.8-1.7
			c0.3-0.8,0.4-1.7,0.6-2.5c0.3-1.9,0.5-3.8,0.5-5.7c0-0.9,0-1.9,0.1-2.8c0.2-0.9,0.4-1.9,0.7-2.8c0.3-0.7,0.7-1.4,1-2.1
			c0.4-0.9,0.9-1.8,1.3-2.6c0.9-1.7,2-3.3,3.1-4.8c0.6-0.7,1.2-1.4,1.8-2.1c0.3-0.4,0.6-0.7,0.9-1.1c0.3-0.4,0.7-0.8,1-1.2
			c0.6-0.8,1.2-1.5,1.9-2.2s1.4-1.3,2.1-1.9c1.2-0.9,2.4-1.6,3.8-2.2c1.5-0.7,3-1.3,4.5-2.2C248.4,167.8,249.4,166.4,249.4,164.8z
			 M244.2,164.2L244.2,164.2v-0.1C244.3,164.1,244.2,164.2,244.2,164.2z"/>
		<g>
			<path class="st0" d="M250.9,164.8c-0.4-4-3.4-6.3-7.3-6.3c-5.8,0.1-10.1,4.6-14.3,7.9c-4.7,3.8-10.1,8.8-12.4,14.6
				c-1.5,3.9-2.2,8.1-3.1,12.2c-0.7,3.3-1.5,6.8-1.2,10.1c0.3,3.8,2.9,8.6,7.5,7.4c5-1.3,5.7-8.1,5.9-12.1c0.3-4.4,1-7.6,3.1-11.5
				c2-3.6,4.8-6.9,7.6-10s6-4.5,9.6-6.4c2.4-1.3,4-2.8,4.5-5.6c0.3-1.9-2.6-2.7-2.9-0.8c-0.8,4.4-8.7,6.1-11.8,9.1
				c-3,2.8-5.8,6.3-8,9.7c-2,3.1-4.2,6.8-4.8,10.5c-0.4,2.7,0.6,15.1-5,14.1c-5.4-0.9-1.8-13.3-1.1-16.3c1.3-5.7,2.5-10.6,6.2-15.2
				c2.8-3.4,6.1-5.9,9.5-8.7c2.6-2.1,4.4-4.4,7.8-5.5c2.5-0.8,6.8-1.2,7.2,2.7C248.1,166.7,251.1,166.7,250.9,164.8z"/>
			<path class="st0" d="M243.5,162.9L243.5,162.9c0.8,0.4,1.5,0.9,2.3,1.3v-0.1c-1,0-2,0-3,0v0.1c-0.1,0.8,0.8,1.5,1.5,1.5
				c0.9,0,1.4-0.7,1.5-1.5v-0.1c0.1-0.8-0.8-1.5-1.5-1.5c-0.9,0-1.4,0.7-1.5,1.5v0.1c-0.2,1.1,1.4,1.9,2.3,1.3l0,0
				c0.7-0.4,1-1.3,0.5-2.1C245.1,162.8,244.2,162.5,243.5,162.9z"/>
		</g>
	</g>
	<g>
		<path class="st0" d="M278.3,164.6c-0.1-0.3-0.3-0.5-0.6-0.7c-0.2-0.2-0.4-0.4-0.7-0.5c-1.2-0.6-2.6-0.8-4-0.8
			c-0.8,0-1.6,0.2-2.4,0.3c-0.5,0.1-0.9,0.2-1.4,0.3c-0.8,0.2-1.6,0.5-2.4,0.8c-1,0.3-2,0.7-2.9,1.2s-1.7,1.1-2.6,1.8
			c-0.6,0.5-1.2,1.1-1.8,1.7c-0.6,0.6-1.2,1.2-1.8,1.8c-1.2,1.2-2.5,2.4-3.7,3.5s-2.4,2.3-3.4,3.6c-0.4,0.5-0.7,1-1.1,1.5
			c-0.2,0.4-0.4,0.7-0.7,1.1c-0.5,0.9-0.9,1.8-1.2,2.8c-0.5,1.4-0.9,2.9-1.3,4.4c-0.2,0.8-0.4,1.6-0.6,2.5c-0.2,0.8-0.3,1.6-0.4,2.5
			c-0.2,1-0.3,2-0.4,3c-0.2,1.7-0.2,3.4-0.2,5.1c0,0.8,0,1.6,0.1,2.4c0.1,0.6,0.1,1.2,0.3,1.7c0.1,0.3,0.1,0.5,0.2,0.8
			c0.1,0.4,0.3,0.7,0.5,1s0.4,0.5,0.6,0.8c0.2,0.2,0.5,0.4,0.7,0.6c0.4,0.2,0.7,0.3,1.1,0.4c0.4,0.1,0.8,0.1,1.2,0.1
			s0.8-0.1,1.2-0.2c0.4-0.1,0.7-0.3,1.1-0.5c0.7-0.4,1.3-1,1.7-1.7c0.4-0.6,0.6-1.2,0.9-1.9c0.2-0.7,0.3-1.5,0.4-2.2
			c0-0.4,0.1-0.8,0.1-1.2c0-0.8-0.1-1.6-0.2-2.4c-0.1-0.8-0.1-1.7-0.1-2.5s0.1-1.5,0.1-2.3c0.2-1,0.3-1.9,0.6-2.9c0.2-1,0.6-2,1-2.9
			c0.6-1.3,1.2-2.5,1.9-3.7c0.7-1.2,1.4-2.3,2.2-3.4c0.1-0.1,0.1-0.2,0.2-0.3c0.6-0.7,1.2-1.4,1.8-2.2c0.6-0.7,1.2-1.3,1.8-1.9
			c1-0.7,2.1-1.2,3.2-1.7c0.7-0.3,1.4-0.5,2.1-0.8c0.8-0.3,1.6-0.6,2.4-0.9c0.9-0.4,1.8-0.8,2.7-1.2c0.9-0.5,1.7-1.1,2.4-1.7
			c0.5-0.4,1-1,1.3-1.6c0.2-0.3,0.3-0.7,0.4-1c0.1-0.5,0.2-1.1,0-1.6C278.6,165.2,278.5,164.9,278.3,164.6z"/>
		<g>
			<path class="st0" d="M279.3,163.5c-3.5-4-10.2-2.3-14.3-0.5c-5.5,2.4-10.4,7.8-14.3,12.2c-4.5,5-6,11.6-6.9,18.1
				c-0.6,4.2-1.8,12,2.1,15.2c3.3,2.7,7.9,0.6,9.6-2.8c1-2,1-4.2,1-6.4c-0.2-3.9-0.2-7.4,1.3-11.2c1.3-3.3,3.4-6.6,5.9-9.2
				c2.9-3.1,6.5-3.8,10.2-5.5c3.9-1.8,8.2-4.9,5.8-9.7c-0.8-1.7-3.4-0.2-2.6,1.5c1.1,2.3-2.9,4.6-4.2,5.3c-1,0.5-1.9,0.8-2.9,1.2
				c-1.6,0.6-3.2,1.1-4.7,2c-2.8,1.6-4.9,4.3-6.7,6.9c-2.2,3.3-4,6.8-4.8,10.7c-0.7,3.7,0.5,7.6-0.4,11.2c-0.6,2.3-1.1,3-3.5,3.2
				c-3,0.3-3.1-1.3-3.3-4.3c-0.2-2.5,0.1-5.1,0.4-7.6c0.6-4.5,1.4-9.8,3.8-13.6c2.6-4.2,6.9-7.8,10.5-11.1
				c3.1-2.8,12.2-8.1,16.1-3.6C278.5,167.1,280.6,165,279.3,163.5z"/>
		</g>
	</g>
</g>
<g>
	<path class="st0" d="M298.1,156.6c0.2-0.7,0.3-1.5,0.4-2.2c0.1-0.6,0.1-1.1,0.1-1.7c0-0.5,0-1.1,0-1.6c0-0.9-0.1-1.8-0.2-2.6
		c-0.2-2.2-0.5-4.4-0.8-6.6c-0.4-2.3-0.8-4.5-1.5-6.8c-0.7-2.5-1.6-4.9-2.5-7.3c-0.2-0.6-0.5-1.2-0.8-1.7c-0.5-0.9-1.1-1.7-1.6-2.5
		c-0.3-0.4-0.6-0.8-0.9-1.2c-0.7-0.9-1.5-1.7-2.4-2.4c-0.9-0.8-1.8-1.5-2.7-2.2c-0.6-0.4-1.2-0.9-1.9-1.3c-0.5-0.4-1-0.8-1.6-1.2
		c-0.8-0.6-1.6-1.2-2.5-1.7c-0.9-0.6-1.9-1.2-2.8-1.8c-0.8-0.6-1.5-1.1-2.3-1.6c-1.8-1.2-3.7-2.3-5.7-3.3c-1-0.5-2-1-3-1.4
		c-1-0.5-2-1-3-1.4c-1-0.5-2.1-1-3.1-1.4c-0.2-0.1-0.3-0.1-0.5-0.2c-0.9-0.3-1.8-0.5-2.7-0.8c-1.1-0.3-2.3-0.6-3.4-0.9
		c-1.2-0.3-2.5-0.6-3.8-0.8c-0.5-0.1-0.9-0.2-1.3-0.4c-0.9-0.3-1.8-0.5-2.7-0.7c-1-0.2-2.1-0.3-3.1-0.4c-1.1-0.3-2.3-0.5-3.4-0.7
		c-0.8-0.1-1.5-0.2-2.3-0.4c-0.8-0.2-1.5-0.4-2.3-0.6c-0.9-0.2-1.8-0.4-2.6-0.7c-1.9-0.6-3.8-0.9-5.7-1.3c-1.3-0.3-2.5-0.6-3.8-0.8
		c-1.2-0.2-2.4-0.4-3.5-0.6c-1.9-0.4-3.9-0.9-5.8-1.3c-1.3-0.3-2.7-0.6-4-0.8c-1.1-0.2-2.2-0.4-3.3-0.5c-2.1-0.2-4.2-0.4-6.3-0.5
		c-1.1-0.1-2.2-0.2-3.3-0.2c-1-0.1-2.1-0.2-3.1-0.2c-1.5,0-3-0.1-4.4,0c-1.4,0-2.8,0.2-4.3,0.3c-4.2,0.2-8.4,0.1-12.5,0.4
		c-2.1,0.2-4.1,0.5-6.1,1c-1.1,0.3-2.2,0.7-3.3,1.1c-0.8,0.3-1.7,0.6-2.6,0.9c-1.8,0.6-3.6,1-5.4,1.6c-1.2,0.4-2.4,0.8-3.6,1.2
		c-1,0.4-2,0.8-3,1.2c-1.6,0.7-3.1,1.5-4.6,2.3c-0.4,0.1-0.8,0.2-1.1,0.4c-1,0.3-2.1,0.6-3.1,0.9c-1.2,0.3-2.3,0.7-3.5,1
		c-2.1,0.6-4.3,1.3-6.4,2c-1.3,0.4-2.5,0.8-3.7,1.3c-1,0.5-2,1.1-3,1.7c-0.6,0.4-1.2,0.8-1.8,1.2c-0.5,0.3-1,0.6-1.5,1
		c-0.9,0.7-1.8,1.4-2.6,2.1c-3.3,2.8-6.5,5.6-9.7,8.5c-1.6,1.4-3.2,2.9-4.7,4.5c-1.6,1.7-3.3,3.4-4.7,5.3c-0.7,0.9-1.4,1.8-2,2.7
		c-0.8,1.1-1.4,2.3-2,3.5c-1,1.9-1.9,3.9-2.8,5.9c-0.6,1.3-1.1,2.7-1.5,4c-0.6,1.7-1,3.4-1.3,5.1c-0.3,1.6-0.3,3.3,0,4.9
		c0.3,1.4,0.8,2.8,1.2,4.1c0.3,1.1,0.6,2.3,1.1,3.4c0.3,0.9,0.7,1.7,1.1,2.6c0.4,0.9,0.6,1.8,1,2.7c0.4,1.1,1.2,2.1,1.8,3.1
		c0.3,0.4,0.5,0.8,0.8,1.1c0.2,0.7,0.5,1.5,0.8,2.1s0.8,1.2,1.1,1.8c0.3,0.4,0.6,0.9,1,1.3l0.1,0.1c0.2,0.3,0.4,0.5,0.6,0.8
		c0.8,0.9,1.8,1.7,2.8,2.4c0.9,0.6,1.8,1.2,2.7,1.8c0.9,0.6,1.8,1.2,2.8,1.8c1.2,0.7,2.4,1.3,3.7,1.9c1,0.4,1.9,0.9,2.9,1.4
		s2,0.9,3,1.3c0.9,0.4,1.9,0.9,2.8,1.3c1,0.4,2,0.9,3.1,1.3c0.4,0.2,0.8,0.3,1.2,0.4c0.3,0.2,0.6,0.3,0.9,0.4
		c4.1,1.9,8.6,2.7,13.1,2.8c2.3,0.1,4.7-0.1,7-0.3c1-0.1,2-0.3,3-0.5c1.3-0.2,2.5-0.6,3.8-1c1-0.3,1.9-0.7,2.8-1.2
		c0.9-0.5,1.8-1.1,2.6-1.6c1.9-1.2,3.9-2.2,5.9-3.1c1.9-0.9,3.9-1.6,5.7-2.6c1.2-0.7,2.3-1.5,3.4-2.4c0.8-0.7,1.6-1.5,2.4-2.3
		c0.6-0.6,1.2-1.3,1.9-1.8c0.7-0.6,1.5-1.2,2.2-1.8c1.4-1.1,2.9-2.1,4.4-3.1c0.5-0.3,1.1-0.7,1.6-0.9c0.7-0.3,1.4-0.6,2.1-0.9
		c1.3-0.6,2.6-1.2,4-1.7c1.4-0.4,2.9-0.8,4.4-1.1s3-0.5,4.6-0.7c1.4,0,2.7,0.1,4,0.3c0.6,0.2,1.2,0.5,1.9,0.8
		c1.4,0.7,2.8,1.4,4.1,2.1c0.8,0.4,1.6,0.9,2.4,1.4c0.9,0.6,1.6,1.2,2.5,1.8s1.8,1.2,2.7,1.7c1.3,0.7,2.7,1.4,4,2.1
		c0.3,0.2,0.6,0.3,0.9,0.4c0.3,0.3,0.7,0.5,1,0.8c0.9,0.6,1.8,1.2,2.7,1.8s1.8,1.2,2.8,1.8c0.9,0.5,1.9,1.1,2.8,1.6
		c1.3,0.6,2.5,1.2,3.8,1.8c2,0.8,4.1,1.6,6.1,2.3c1,0.4,1.9,0.7,2.9,1.1c1,0.3,2,0.6,3,0.9c0.5,0.1,1,0.3,1.5,0.4
		c0.2,0,0.3,0.1,0.5,0.1c0.3,0.1,0.5,0.1,0.8,0.2c0.3,0.1,0.7,0.2,1.1,0.2c1.9,0.3,3.8,0.5,5.7,0.6c2.3,0.1,4.6,0,6.9-0.5
		c2.2-0.5,4.4-1.3,6.5-2.2c1.8-0.8,3.5-1.8,5.2-2.7s3.4-1.8,5.1-2.7c2.1-1.1,4.2-2.4,6-4c0.4-0.3,0.8-0.7,1.1-1.1
		c0.6-0.6,1.1-1.2,1.6-1.9c0.3-0.4,0.5-0.7,0.7-1.1c0.3-0.5,0.6-1,0.9-1.5c0.5-0.9,1-1.8,1.5-2.7s1.2-1.7,1.7-2.5
		c1.4-2.1,2.4-4.3,3.3-6.6C297,160.9,297.6,158.8,298.1,156.6z"/>
	<g>
		<path class="st0" d="M299.5,157c1.7-8.4-0.4-18.1-3.2-26c-2.9-8.3-8.1-13.1-15.2-17.9c-7.2-4.9-14.9-10.1-23.4-12.6
			c-8.6-2.6-17.6-3.6-26.3-5.9c-9.1-2.4-18.8-4.7-28.1-5.6c-9.6-0.9-19.1-0.7-28.8-0.4c-9.5,0.3-19.2,3.5-27.9,7.3
			c-4.7,2-9.1,3.6-13.9,5.1c-4.1,1.3-8.1,2.4-11.8,4.6c-8,4.9-15.5,11.9-21.9,18.8c-5.9,6.4-10.4,14-12.7,22.4
			c-2.3,8.1,0.6,16.7,4.6,23.9c3.8,6.9,7.3,11.3,14.3,15.3c14,8,33,16,48.7,7.8c4.1-2.1,7.9-4.4,12.1-6.3c4.1-1.9,6.7-4.8,10-7.7
			c7.2-6.5,19.3-12.6,28.8-8.2c9.1,4.2,16.8,11,25.8,15.3c8.2,3.9,17.5,7.2,26.7,7.1c4.8-0.1,9.5-1.5,13.8-3.6
			c4.9-2.4,10.3-4.9,14.5-8.4c3.6-3,5.5-7.2,8.1-11C296.6,166.7,298.4,162,299.5,157c0.4-1.9-2.5-2.7-2.9-0.8c-1,4.2-2.4,8.3-4.7,12
			c-2.3,3.7-4.5,8.2-7.8,11.1c-3.5,3.1-8,4.9-12,7.1c-4.9,2.7-10,4.7-15.7,4.6c-16.7-0.3-31.4-10.5-45-19.2
			c-5.7-3.7-10.7-5.5-17.4-4.2c-7,1.3-13.6,4.7-19.1,9.2c-3.1,2.6-5.5,5.7-9.1,7.5c-3.9,2-7.8,3.5-11.5,5.8
			c-7.9,4.7-18.7,5.3-27.3,2.5c-7.9-2.6-16.2-6.4-23.1-10.9c-6.6-4.2-9.9-10.6-12.7-17.8c-1.8-4.7-3.5-9.4-2.4-14.5
			c1-4.5,3-8.8,5.1-12.9c4.3-8.3,11.8-14.5,18.7-20.6c3.4-2.9,6.7-5.9,10.6-8.1s8.5-3.3,12.8-4.6c8.4-2.5,16.4-6,24.7-8.8
			c8.8-3,17.8-2.9,27.1-3.2c8.3-0.3,16.9,0.7,25,2.5c8.9,2,17.9,4.1,26.8,5.8c9.6,1.8,18.4,4,27.2,8.2c4.1,2,7.7,4.6,11.5,7.2
			c4,2.7,8.5,5.6,11.4,9.5c5.8,7.7,8.8,22.4,6.9,31.9C296.3,158.1,299.2,158.9,299.5,157z"/>
	</g>
</g>
<g>
	<g>
		<path class="st0" d="M226.5,26.7c-1.6-1.8-3.1-3.5-5-4.9c-1.7-1.4-3.7-2.5-5.7-3.3c-1.2-0.4-2.3-0.8-3.5-1.2
			c-1.6-0.4-3.2-0.6-4.9-0.5c-2.3,0.2-4.5,0.8-6.7,1.4c-1.8,0.5-3.7,1-5.5,1.7c-2.1,0.8-4.2,1.9-6.1,3.1l0,0
			c-1.2,0.8-2.4,1.7-3.5,2.7c-0.6,0.4-1.3,0.8-1.9,1.3c-1.8,1.3-3.5,2.7-5,4.4c-2.6,2.8-4.7,6.3-6.2,9.8c-1.6,3.8-3.1,7.5-4.4,11.4
			c-1.2,3.7-2.1,7.4-2.7,11.2c-0.6,3.7-0.8,7.3-1.4,11c-0.3,1.8-0.6,3.6-0.8,5.4c-0.2,2.3-0.5,4.7-0.4,7c0.2,4.3,1,8.6,2.1,12.8
			c1,3.8,2.8,7.3,4.3,10.9c0.9,2.2,1.9,4.3,2.9,6.5c0.4,0.9,0.9,1.7,1.4,2.5c0.7,1.1,1.6,2.2,2.6,3.2c0.5,0.6,1.1,1.1,1.8,1.6
			c1.3,0.9,2.6,1.8,4,2.4c1,0.4,2,0.8,3.1,1c1,0.2,2.2,0.2,3.2,0.2c0.9,0,1.7-0.1,2.6-0.2c1.8-0.3,3.5-0.5,5.2-1.1
			c1-0.4,2-0.9,3-1.3c1.2-0.6,2.6-1.2,3.7-1.9c1.2-0.8,2.4-1.7,3.4-2.7c1.3-1.3,2.5-2.6,3.7-4c1.2-1.3,2.3-2.6,3.4-4
			c2.5-3.1,4.5-6.7,6.6-10.1c2-3.3,4.1-6.5,6-9.8c0.9-1.5,1.7-3.2,2.5-4.8c0.8-1.7,1.6-3.4,2.3-5.1c0.9-2.3,1.7-4.6,2.5-6.9
			c0.6-2.1,0.8-4.3,0.8-6.4s0.2-4.2,0.2-6.3c0-2.1,0-4.2,0.2-6.3c0,0.5-0.1,1.1-0.1,1.6c0.1-1.5,0.2-3,0.3-4.5
			c0.2-1.8,0.3-3.5,0.3-5.3c0-0.8,0-1.5,0-2.3c0-1-0.2-2-0.4-3s-0.3-2-0.6-3c-0.2-1-0.6-1.9-0.9-2.8c-0.8-2.2-1.8-4.3-2.9-6.3
			C229,29.9,227.8,28.3,226.5,26.7z"/>
		<g>
			<path class="st0" d="M227.6,25.7c-5.5-6.3-13.1-11.3-21.9-10.1c-8.4,1.1-15.1,4.6-21.8,9.5c-15.7,11.5-18.7,31.3-21.3,49.3
				c-1.4,9.5-1.5,18.3,1.4,27.6c1.2,3.8,3,7.5,4.7,11.2c1.7,3.9,3.4,7.8,6.4,10.8c5.2,5.2,11.8,6.5,18.8,5c8.6-1.8,14.7-7.7,20-14.3
				c6.7-8.2,12.8-18.5,17-28.2c1.9-4.2,3.9-8.8,4.4-13.4c0.6-5.2,0.2-10.6,0.6-15.8c0.1-1.9-2.8-1.9-3,0c0,0.5-0.1,1.1-0.1,1.6
				c1,0,2,0,3,0c0.4-6,1-11.8-0.4-17.8C234.1,35.4,231.3,30.1,227.6,25.7c-1.2-1.5-3.3,0.6-2.1,2.1c7.7,9.3,8.2,19.6,7.4,31.1
				c-0.1,1.9,2.8,1.9,3,0c0-0.5,0.1-1.1,0.1-1.6c-1,0-2,0-3,0c-0.5,7.5,0.2,14.9-2.3,22.1c-2.8,7.9-7,14.8-11.4,22
				c-4.1,6.8-8.4,13.8-14.6,19.1c-6.3,5.5-16.3,8.6-24,4.2c-6.3-3.7-8.7-11.2-11.4-17.6c-3.4-7.9-5.4-16.4-4.6-25
				c1.4-15.6,3.6-34,13.1-47.1c4.4-6.1,12.5-11.8,19.6-14.2c5-1.7,10.2-3.1,15.3-1.6c5.3,1.5,9.1,4.7,12.7,8.7
				C226.7,29.2,228.8,27.1,227.6,25.7z"/>
		</g>
	</g>
	<g>
		<path class="st0" d="M214.8,101.2L214.8,101.2L214.8,101.2z"/>
		<g>
			<path class="st0" d="M216.1,101.9L216.1,101.9c0.4-0.7,0.2-1.7-0.5-2.1s-1.6-0.1-2.1,0.5l-0.2,0.4c-0.3,0.7,0.3,1.7,1,1.8
				c0.8,0.2,1.6-0.3,1.8-1C216.2,101.7,216.2,101.8,216.1,101.9c-0.9-0.5-1.7-1-2.6-1.5l0,0c-0.4,0.7-0.2,1.6,0.5,2.1
				C214.8,102.9,215.7,102.6,216.1,101.9z"/>
		</g>
	</g>
</g>
<g>
	<g>
		<path class="st1" d="M211.6,153.3c-0.6-1.1-1.9-1.7-3.1-1.9c-0.4-0.1-0.8-0.1-1.2-0.1h-0.1c-0.4,0-0.9,0.1-1.3,0.2
			c-0.5,0.1-1,0.2-1.4,0.3c-0.9,0.3-1.8,0.6-2.6,1c-1.8,0.7-3.5,1.6-5.2,2.5c-1.6,0.9-3.1,1.9-4.4,3.2c-1.1,1.1-2,2.3-3,3.5
			c-1.1,1.4-2.2,2.8-3.2,4.2c-0.4,0.6-0.9,1.2-1.3,1.8c-0.4,0.6-0.8,1.2-1.2,1.9c-0.5,0.9-0.9,1.7-1.2,2.6c-1.2,2.1-2.2,4.3-3.2,6.5
			c-0.4,0.9-0.8,1.9-1.2,2.9c-0.3,0.8-0.6,1.5-0.8,2.3c-0.3,0.8-0.5,1.7-0.7,2.6c-0.2,1-0.3,2.1-0.5,3.2c-0.1,1.2-0.2,2.5-0.2,3.8
			c0,0.6,0,1.1,0.1,1.7c0.1,0.6,0.1,1.2,0.3,1.8c0.3,1.1,1,2.3,2.2,2.9c0.3,0.2,0.5,0.3,0.8,0.3c0.5,0.1,0.9,0.1,1.4,0
			c0.7-0.1,1.2-0.5,1.7-1c0.3-0.3,0.6-0.8,0.8-1.2c0.1-0.3,0.3-0.6,0.4-0.9c0.7-0.9,1.2-1.8,1.6-2.8c0.5-1.1,0.9-2.2,1.3-3.4
			c0.3-1,0.6-2,0.9-2.9c0.3-1,0.6-2,1-3c0.3-0.8,0.6-1.7,0.9-2.5c1-2.2,2.1-4.3,3.4-6.3c0.7-1.1,1.3-2.1,1.9-3.2
			c0.4-0.6,0.7-1.2,1.1-1.8c0.3-0.5,0.6-0.9,0.9-1.3c1.7-2.1,3.6-4,5.6-5.9l0.1-0.1c0.3-0.2,0.6-0.5,0.9-0.7c0.7-0.5,1.3-1.1,2-1.6
			c0.1-0.1,0.2-0.2,0.3-0.3c0.6-0.5,1.3-1,1.9-1.5c0.6-0.4,1.1-0.8,1.7-1.2c0.5-0.3,1-0.7,1.4-1.1c0.4-0.3,0.7-0.7,0.9-1.1
			c0.2-0.3,0.3-0.7,0.4-1c0.1-0.5,0.1-0.9,0-1.4C211.9,153.9,211.8,153.6,211.6,153.3z"/>
		<g>
			<path class="st0" d="M212.7,152.3c-3.4-3.9-8.1-2.2-12.2-0.5c-6.5,2.8-10.5,6.7-14.7,12.3c-4,5.3-7,11.3-9.3,17.4
				c-1.8,4.8-4,12.8-1.2,17.6c1.8,3.2,5.7,3.6,8.2,1c4.9-5.1,5.3-13.8,8.5-19.8c3.4-6.4,7.5-12.2,13.2-16.7
				c3.4-2.7,9.6-5.4,7.8-10.7c-0.6-1.8-3.5-1-2.9,0.8c0.5,1.4-2.2,3.8-3.1,4.7c-0.4,0.4-1.1,0.8-1.5,1.2c-1.2,0.9-2.3,1.8-3.5,2.7
				c-2.9,2.4-5.7,5.2-7.8,8.4c-2.4,3.7-4.9,7.6-6.6,11.7c-0.9,2.3-1.6,4.6-2.3,6.9c-0.6,1.8-1.6,6.4-3.4,7.4c-0.3,0.8-1,0.8-2.3,0.1
				c-1.9,0.7-2.7,0.2-2.3-1.6c-0.5-1.5-0.1-3.8,0.1-5.3c0.3-2.5,0.8-4.8,1.7-7.1c1.7-4.6,3.9-9.5,6.6-13.6c2.6-4,5.7-8.4,9.6-11.3
				c3.3-2.4,11.6-7.7,15.2-3.6C211.8,155.8,214,153.7,212.7,152.3z"/>
		</g>
	</g>
	<g>
		<path class="st1" d="M249.6,154.8c0-0.3,0-0.8-0.1-1.1c-0.1-0.4-0.3-0.7-0.4-1c-0.2-0.3-0.4-0.6-0.7-0.9c-0.1-0.1-0.2-0.3-0.4-0.4
			c-0.2-0.2-0.5-0.4-0.8-0.6c-0.2-0.2-0.7-0.3-0.9-0.4c-0.2-0.1-0.3-0.1-0.5-0.2c-0.4-0.1-0.9-0.2-1.2-0.2s-0.5,0-0.8,0
			c-0.1,0-0.2,0-0.3,0c-1,0.1-2,0.3-2.9,0.6c-0.5,0.2-1.1,0.4-1.6,0.7c-0.5,0.2-0.9,0.4-1.4,0.7c-1.3,0.7-2.4,1.7-3.5,2.6
			c-0.7,0.6-1.3,1.2-1.9,1.9l-0.1,0.1c-0.2,0.1-0.4,0.2-0.6,0.4c-0.8,0.5-1.5,1.1-2.2,1.6c-1.4,1.2-2.7,2.4-3.9,3.7
			c-0.6,0.6-1.2,1.2-1.8,1.9c-0.7,0.7-1.3,1.5-1.9,2.3c-0.5,0.7-1.1,1.4-1.6,2.2c-0.3,0.4-0.5,0.7-0.7,1.1c-0.3,0.5-0.5,1.1-0.8,1.7
			c-0.6,1.6-1.1,3.2-1.5,4.9c-0.4,1.6-0.7,3.2-1.1,4.8c-0.4,1.7-0.8,3.4-1.1,5.1c-0.2,1-0.3,2.1-0.4,3.1c-0.1,0.9-0.2,1.7-0.2,2.6
			c0,1,0.1,2,0.3,3c0.1,0.8,0.5,1.6,0.9,2.3s1,1.2,1.7,1.7c0.3,0.2,0.7,0.3,1.1,0.4c0.3,0.1,0.6,0.1,0.9,0.1c0.3,0,0.6,0,0.9-0.1
			c0.3-0.1,0.7-0.2,1-0.4s0.6-0.5,0.9-0.7c0.3-0.3,0.6-0.7,0.9-1.1c0.1-0.2,0.2-0.3,0.3-0.5c0.4-0.5,0.6-1.2,0.8-1.7
			c0.3-0.8,0.4-1.7,0.6-2.5c0.3-1.9,0.5-3.8,0.5-5.7c0-0.9,0-1.9,0.1-2.8c0.2-0.9,0.4-1.9,0.7-2.8c0.3-0.7,0.7-1.4,1-2.1
			c0.4-0.9,0.9-1.8,1.3-2.6c0.9-1.7,2-3.3,3.1-4.8c0.6-0.7,1.2-1.4,1.8-2.1c0.3-0.4,0.6-0.7,0.9-1.1c0.3-0.4,0.7-0.8,1-1.2
			c0.6-0.8,1.2-1.5,1.9-2.2s1.4-1.3,2.1-1.9c1.2-0.9,2.4-1.6,3.8-2.2c1.5-0.7,3-1.3,4.5-2.2C248.6,157.8,249.6,156.4,249.6,154.8z
			 M244.4,154.2L244.4,154.2v-0.1C244.4,154.1,244.4,154.2,244.4,154.2z"/>
		<g>
			<path class="st0" d="M251.1,154.8c-0.4-4-3.4-6.3-7.3-6.3c-5.8,0.1-10.1,4.6-14.3,7.9c-4.7,3.8-10.1,8.8-12.4,14.6
				c-1.5,3.9-2.2,8.1-3.1,12.2c-0.7,3.3-1.5,6.8-1.2,10.1c0.3,3.8,2.9,8.6,7.5,7.4c5-1.3,5.7-8.1,5.9-12.1c0.3-4.4,1-7.6,3.1-11.5
				c2-3.6,4.8-6.9,7.6-10s6-4.5,9.6-6.4c2.4-1.3,4-2.8,4.5-5.6c0.3-1.9-2.6-2.7-2.9-0.8c-0.8,4.4-8.7,6.1-11.8,9.1
				c-3,2.8-5.8,6.3-8,9.7c-2,3.1-4.2,6.8-4.8,10.5c-0.4,2.7,0.6,15.1-5,14.1c-5.4-0.9-1.8-13.3-1.1-16.3c1.3-5.7,2.5-10.6,6.2-15.2
				c2.8-3.4,6.1-5.9,9.5-8.7c2.6-2.1,4.4-4.4,7.8-5.5c2.5-0.8,6.8-1.2,7.2,2.7C248.3,156.7,251.3,156.7,251.1,154.8z"/>
			<path class="st0" d="M243.7,152.9L243.7,152.9c0.8,0.4,1.5,0.9,2.3,1.3v-0.1c-1,0-2,0-3,0v0.1c-0.1,0.8,0.8,1.5,1.5,1.5
				c0.9,0,1.4-0.7,1.5-1.5v-0.1c0.1-0.8-0.8-1.5-1.5-1.5c-0.9,0-1.4,0.7-1.5,1.5v0.1c-0.2,1.1,1.4,1.9,2.3,1.3l0,0
				c0.7-0.4,1-1.3,0.5-2.1C245.3,152.8,244.4,152.5,243.7,152.9z"/>
		</g>
	</g>
	<g>
		<path class="st1" d="M278.5,154.6c-0.1-0.3-0.3-0.5-0.6-0.7c-0.2-0.2-0.4-0.4-0.7-0.5c-1.2-0.6-2.6-0.8-4-0.8
			c-0.8,0-1.6,0.2-2.4,0.3c-0.5,0.1-0.9,0.2-1.4,0.3c-0.8,0.2-1.6,0.5-2.4,0.8c-1,0.3-2,0.7-2.9,1.2s-1.7,1.1-2.6,1.8
			c-0.6,0.5-1.2,1.1-1.8,1.7c-0.6,0.6-1.2,1.2-1.8,1.8c-1.2,1.2-2.5,2.4-3.7,3.5s-2.4,2.3-3.4,3.6c-0.4,0.5-0.7,1-1.1,1.5
			c-0.2,0.4-0.4,0.7-0.7,1.1c-0.5,0.9-0.9,1.8-1.2,2.8c-0.5,1.4-0.9,2.9-1.3,4.4c-0.2,0.8-0.4,1.6-0.6,2.5c-0.2,0.8-0.3,1.6-0.4,2.5
			c-0.2,1-0.3,2-0.4,3c-0.2,1.7-0.2,3.4-0.2,5.1c0,0.8,0,1.6,0.1,2.4c0.1,0.6,0.1,1.2,0.3,1.7c0.1,0.3,0.1,0.5,0.2,0.8
			c0.1,0.4,0.3,0.7,0.5,1s0.4,0.5,0.6,0.8c0.2,0.2,0.5,0.4,0.7,0.6c0.4,0.2,0.7,0.3,1.1,0.4c0.4,0.1,0.8,0.1,1.2,0.1
			s0.8-0.1,1.2-0.2c0.4-0.1,0.7-0.3,1.1-0.5c0.7-0.4,1.3-1,1.7-1.7c0.4-0.6,0.6-1.2,0.9-1.9c0.2-0.7,0.3-1.5,0.4-2.2
			c0-0.4,0.1-0.8,0.1-1.2c0-0.8-0.1-1.6-0.2-2.4c-0.1-0.8-0.1-1.7-0.1-2.5s0.1-1.5,0.1-2.3c0.2-1,0.3-1.9,0.6-2.9c0.2-1,0.6-2,1-2.9
			c0.6-1.3,1.2-2.5,1.9-3.7c0.7-1.2,1.4-2.3,2.2-3.4c0.1-0.1,0.1-0.2,0.2-0.3c0.6-0.7,1.2-1.4,1.8-2.2c0.6-0.7,1.2-1.3,1.8-1.9
			c1-0.7,2.1-1.2,3.2-1.7c0.7-0.3,1.4-0.5,2.1-0.8c0.8-0.3,1.6-0.6,2.4-0.9c0.9-0.4,1.8-0.8,2.7-1.2c0.9-0.5,1.7-1.1,2.4-1.7
			c0.5-0.4,1-1,1.3-1.6c0.2-0.3,0.3-0.7,0.4-1c0.1-0.5,0.2-1.1,0-1.6C278.8,155.2,278.7,154.9,278.5,154.6z"/>
		<g>
			<path class="st0" d="M279.5,153.5c-3.5-4-10.2-2.3-14.3-0.5c-5.5,2.4-10.4,7.8-14.3,12.2c-4.5,5-6,11.6-6.9,18.1
				c-0.6,4.2-1.8,12,2.1,15.2c3.3,2.7,7.9,0.6,9.6-2.8c1-2,1-4.2,1-6.4c-0.2-3.9-0.2-7.4,1.3-11.2c1.3-3.3,3.4-6.6,5.9-9.2
				c2.9-3.1,6.5-3.8,10.2-5.5c3.9-1.8,8.2-4.9,5.8-9.7c-0.8-1.7-3.4-0.2-2.6,1.5c1.1,2.3-2.9,4.6-4.2,5.3c-1,0.5-1.9,0.8-2.9,1.2
				c-1.6,0.6-3.2,1.1-4.7,2c-2.8,1.6-4.9,4.3-6.7,6.9c-2.2,3.3-4,6.8-4.8,10.7c-0.7,3.7,0.5,7.6-0.4,11.2c-0.6,2.3-1.1,3-3.5,3.2
				c-3,0.3-3.1-1.3-3.3-4.3c-0.2-2.5,0.1-5.1,0.4-7.6c0.6-4.5,1.4-9.8,3.8-13.6c2.6-4.2,6.9-7.8,10.5-11.1
				c3.1-2.8,12.2-8.1,16.1-3.6C278.7,157.1,280.8,155,279.5,153.5z"/>
		</g>
	</g>
</g>
<g>
	<path class="st1" d="M298.3,146.6c0.2-0.7,0.3-1.5,0.4-2.2c0.1-0.6,0.1-1.1,0.1-1.7c0-0.5,0-1.1,0-1.6c0-0.9-0.1-1.8-0.2-2.6
		c-0.2-2.2-0.5-4.4-0.8-6.6c-0.4-2.3-0.8-4.5-1.5-6.8c-0.7-2.5-1.6-4.9-2.5-7.3c-0.2-0.6-0.5-1.2-0.8-1.7c-0.5-0.9-1.1-1.7-1.6-2.5
		c-0.3-0.4-0.6-0.8-0.9-1.2c-0.7-0.9-1.5-1.7-2.4-2.4c-0.9-0.8-1.8-1.5-2.7-2.2c-0.6-0.4-1.2-0.9-1.9-1.3c-0.5-0.4-1-0.8-1.6-1.2
		c-0.8-0.6-1.6-1.2-2.5-1.7c-0.9-0.6-1.9-1.2-2.8-1.8c-0.8-0.6-1.5-1.1-2.3-1.6c-1.8-1.2-3.7-2.3-5.7-3.3c-1-0.5-2-1-3-1.4
		c-1-0.5-2-1-3-1.4c-1-0.5-2.1-1-3.1-1.4c-0.2-0.1-0.3-0.1-0.5-0.2c-0.9-0.3-1.8-0.5-2.7-0.8c-1.1-0.3-2.3-0.6-3.4-0.9
		c-1.2-0.3-2.5-0.6-3.8-0.8c-0.5-0.1-0.9-0.2-1.3-0.4c-0.9-0.3-1.8-0.5-2.7-0.7c-1-0.2-2.1-0.3-3.1-0.4c-1.1-0.3-2.3-0.5-3.4-0.7
		c-0.8-0.1-1.5-0.2-2.3-0.4c-0.8-0.2-1.5-0.4-2.3-0.6c-0.9-0.2-1.8-0.4-2.6-0.7c-1.9-0.6-3.8-0.9-5.7-1.3c-1.3-0.3-2.5-0.6-3.8-0.8
		c-1.2-0.2-2.4-0.4-3.5-0.6c-1.9-0.4-3.9-0.9-5.8-1.3c-1.3-0.3-2.7-0.6-4-0.8c-1.1-0.2-2.2-0.4-3.3-0.5c-2.1-0.2-4.2-0.4-6.3-0.5
		c-1.1-0.1-2.2-0.2-3.3-0.2c-1-0.1-2.1-0.2-3.1-0.2c-1.5,0-3-0.1-4.4,0c-1.4,0-2.8,0.2-4.3,0.3c-4.2,0.2-8.4,0.1-12.5,0.4
		c-2.1,0.2-4.1,0.5-6.1,1c-1.1,0.3-2.2,0.7-3.3,1.1c-0.8,0.3-1.7,0.6-2.6,0.9c-1.8,0.6-3.6,1-5.4,1.6c-1.2,0.4-2.4,0.8-3.6,1.2
		c-1,0.4-2,0.8-3,1.2c-1.6,0.7-3.1,1.5-4.6,2.3c-0.4,0.1-0.8,0.2-1.1,0.4c-1,0.3-2.1,0.6-3.1,0.9c-1.2,0.3-2.3,0.7-3.5,1
		c-2.1,0.6-4.3,1.3-6.4,2c-1.3,0.4-2.5,0.8-3.7,1.3c-1,0.5-2,1.1-3,1.7c-0.6,0.4-1.2,0.8-1.8,1.2c-0.5,0.3-1,0.6-1.5,1
		c-0.9,0.7-1.8,1.4-2.6,2.1c-3.3,2.8-6.5,5.6-9.7,8.5c-1.6,1.4-3.2,2.9-4.7,4.5c-1.6,1.7-3.3,3.4-4.7,5.3c-0.7,0.9-1.4,1.8-2,2.7
		c-0.8,1.1-1.4,2.3-2,3.5c-1,1.9-1.9,3.9-2.8,5.9c-0.6,1.3-1.1,2.7-1.5,4c-0.6,1.7-1,3.4-1.3,5.1c-0.3,1.6-0.3,3.3,0,4.9
		c0.3,1.4,0.8,2.8,1.2,4.1c0.3,1.1,0.6,2.3,1.1,3.4c0.3,0.9,0.7,1.7,1.1,2.6c0.4,0.9,0.6,1.8,1,2.7c0.4,1.1,1.2,2.1,1.8,3.1
		c0.3,0.4,0.5,0.8,0.8,1.1c0.2,0.7,0.5,1.5,0.8,2.1s0.8,1.2,1.1,1.8c0.3,0.4,0.6,0.9,1,1.3l0.1,0.1c0.2,0.3,0.4,0.5,0.6,0.8
		c0.8,0.9,1.8,1.7,2.8,2.4c0.9,0.6,1.8,1.2,2.7,1.8c0.9,0.6,1.8,1.2,2.8,1.8c1.2,0.7,2.4,1.3,3.7,1.9c1,0.4,1.9,0.9,2.9,1.4
		s2,0.9,3,1.3c0.9,0.4,1.9,0.9,2.8,1.3c1,0.4,2,0.9,3.1,1.3c0.4,0.2,0.8,0.3,1.2,0.4c0.3,0.2,0.6,0.3,0.9,0.4
		c4.1,1.9,8.6,2.7,13.1,2.8c2.3,0.1,4.7-0.1,7-0.3c1-0.1,2-0.3,3-0.5c1.3-0.2,2.5-0.6,3.8-1c1-0.3,1.9-0.7,2.8-1.2
		c0.9-0.5,1.8-1.1,2.6-1.6c1.9-1.2,3.9-2.2,5.9-3.1c1.9-0.9,3.9-1.6,5.7-2.6c1.2-0.7,2.3-1.5,3.4-2.4c0.8-0.7,1.6-1.5,2.4-2.3
		c0.6-0.6,1.2-1.3,1.9-1.8c0.7-0.6,1.5-1.2,2.2-1.8c1.4-1.1,2.9-2.1,4.4-3.1c0.5-0.3,1.1-0.7,1.6-0.9c0.7-0.3,1.4-0.6,2.1-0.9
		c1.3-0.6,2.6-1.2,4-1.7c1.4-0.4,2.9-0.8,4.4-1.1s3-0.5,4.6-0.7c1.4,0,2.7,0.1,4,0.3c0.6,0.2,1.2,0.5,1.9,0.8
		c1.4,0.7,2.8,1.4,4.1,2.1c0.8,0.4,1.6,0.9,2.4,1.4c0.9,0.6,1.6,1.2,2.5,1.8s1.8,1.2,2.7,1.7c1.3,0.7,2.7,1.4,4,2.1
		c0.3,0.2,0.6,0.3,0.9,0.4c0.3,0.3,0.7,0.5,1,0.8c0.9,0.6,1.8,1.2,2.7,1.8s1.8,1.2,2.8,1.8c0.9,0.5,1.9,1.1,2.8,1.6
		c1.3,0.6,2.5,1.2,3.8,1.8c2,0.8,4.1,1.6,6.1,2.3c1,0.4,1.9,0.7,2.9,1.1c1,0.3,2,0.6,3,0.9c0.5,0.1,1,0.3,1.5,0.4
		c0.2,0,0.3,0.1,0.5,0.1c0.3,0.1,0.5,0.1,0.8,0.2c0.3,0.1,0.7,0.2,1.1,0.2c1.9,0.3,3.8,0.5,5.7,0.6c2.3,0.1,4.6,0,6.9-0.5
		c2.2-0.5,4.4-1.3,6.5-2.2c1.8-0.8,3.5-1.8,5.2-2.7s3.4-1.8,5.1-2.7c2.1-1.1,4.2-2.4,6-4c0.4-0.3,0.8-0.7,1.1-1.1
		c0.6-0.6,1.1-1.2,1.6-1.9c0.3-0.4,0.5-0.7,0.7-1.1c0.3-0.5,0.6-1,0.9-1.5c0.5-0.9,1-1.8,1.5-2.7s1.2-1.7,1.7-2.5
		c1.4-2.1,2.4-4.3,3.3-6.6C297.2,150.9,297.8,148.8,298.3,146.6z"/>
	<g>
		<path class="st0" d="M299.7,147c1.7-8.4-0.4-18.1-3.2-26c-2.9-8.3-8.1-13.1-15.2-17.9c-7.2-4.9-14.9-10.1-23.4-12.6
			c-8.6-2.6-17.6-3.6-26.3-5.9c-9.1-2.4-18.8-4.7-28.1-5.6c-9.6-0.9-19.1-0.7-28.8-0.4c-9.5,0.3-19.2,3.5-27.9,7.3
			c-4.7,2-9.1,3.6-13.9,5.1c-4.1,1.3-8.1,2.4-11.8,4.6c-8,4.9-15.5,11.9-21.9,18.8c-5.9,6.4-10.4,14-12.7,22.4
			c-2.3,8.1,0.6,16.7,4.6,23.9c3.8,6.9,7.3,11.3,14.3,15.3c14,8,33,16,48.7,7.8c4.1-2.1,7.9-4.4,12.1-6.3c4.1-1.9,6.7-4.8,10-7.7
			c7.2-6.5,19.3-12.6,28.8-8.2c9.1,4.2,16.8,11,25.8,15.3c8.2,3.9,17.5,7.2,26.7,7.1c4.8-0.1,9.5-1.5,13.8-3.6
			c4.9-2.4,10.3-4.9,14.5-8.4c3.6-3,5.5-7.2,8.1-11C296.8,156.7,298.6,152,299.7,147c0.4-1.9-2.5-2.7-2.9-0.8c-1,4.2-2.4,8.3-4.7,12
			c-2.3,3.7-4.5,8.2-7.8,11.1c-3.5,3.1-8,4.9-12,7.1c-4.9,2.7-10,4.7-15.7,4.6c-16.7-0.3-31.4-10.5-45-19.2
			c-5.7-3.7-10.7-5.5-17.4-4.2c-7,1.3-13.6,4.7-19.1,9.2c-3.1,2.6-5.5,5.7-9.1,7.5c-3.9,2-7.8,3.5-11.5,5.8
			c-7.9,4.7-18.7,5.3-27.3,2.5c-7.9-2.6-16.2-6.4-23.1-10.9c-6.6-4.2-9.9-10.6-12.7-17.8c-1.8-4.7-3.5-9.4-2.4-14.5
			c1-4.5,3-8.8,5.1-12.9c4.3-8.3,11.8-14.5,18.7-20.6c3.4-2.9,6.7-5.9,10.6-8.1s8.5-3.3,12.8-4.6c8.4-2.5,16.4-6,24.7-8.8
			c8.8-3,17.8-2.9,27.1-3.2c8.3-0.3,16.9,0.7,25,2.5c8.9,2,17.9,4.1,26.8,5.8c9.6,1.8,18.4,4,27.2,8.2c4.1,2,7.7,4.6,11.5,7.2
			c4,2.7,8.5,5.6,11.4,9.5c5.8,7.7,8.8,22.4,6.9,31.9C296.5,148.1,299.4,148.9,299.7,147z"/>
	</g>
</g>
<g>
	<g>
		<path class="st1" d="M226.7,16.7c-1.6-1.8-3.1-3.5-5-4.9c-1.7-1.4-3.7-2.5-5.7-3.3c-1.2-0.4-2.3-0.8-3.5-1.2
			c-1.6-0.4-3.2-0.6-4.9-0.5c-2.3,0.2-4.5,0.8-6.7,1.4c-1.8,0.5-3.7,1-5.5,1.7c-2.1,0.8-4.2,1.9-6.1,3.1l0,0
			c-1.2,0.8-2.4,1.7-3.5,2.7c-0.6,0.4-1.3,0.8-1.9,1.3c-1.8,1.3-3.5,2.7-5,4.4c-2.6,2.8-4.7,6.3-6.2,9.8c-1.6,3.8-3.1,7.5-4.4,11.4
			c-1.2,3.7-2.1,7.4-2.7,11.2c-0.6,3.7-0.8,7.3-1.4,11c-0.3,1.8-0.6,3.6-0.8,5.4c-0.2,2.3-0.5,4.7-0.4,7c0.2,4.3,1,8.6,2.1,12.8
			c1,3.8,2.8,7.3,4.3,10.9c0.9,2.2,1.9,4.3,2.9,6.5c0.4,0.9,0.9,1.7,1.4,2.5c0.7,1.1,1.6,2.2,2.6,3.2c0.5,0.6,1.1,1.1,1.8,1.6
			c1.3,0.9,2.6,1.8,4,2.4c1,0.4,2,0.8,3.1,1c1,0.2,2.2,0.2,3.2,0.2c0.9,0,1.7-0.1,2.6-0.2c1.8-0.3,3.5-0.5,5.2-1.1
			c1-0.4,2-0.9,3-1.3c1.2-0.6,2.6-1.2,3.7-1.9c1.2-0.8,2.4-1.7,3.4-2.7c1.3-1.3,2.5-2.6,3.7-4c1.2-1.3,2.3-2.6,3.4-4
			c2.5-3.1,4.5-6.7,6.6-10.1c2-3.3,4.1-6.5,6-9.8c0.9-1.5,1.7-3.2,2.5-4.8c0.8-1.7,1.6-3.4,2.3-5.1c0.9-2.3,1.7-4.6,2.5-6.9
			c0.6-2.1,0.8-4.3,0.8-6.4c0-2.1,0.2-4.2,0.2-6.3s0-4.2,0.2-6.3c0,0.5-0.1,1.1-0.1,1.6c0.1-1.5,0.2-3,0.3-4.5
			c0.2-1.8,0.3-3.5,0.3-5.3c0-0.8,0-1.5,0-2.3c0-1-0.2-2-0.4-3s-0.3-2-0.6-3c-0.2-1-0.6-1.9-0.9-2.8c-0.8-2.2-1.8-4.3-2.9-6.3
			C229.2,19.9,228,18.3,226.7,16.7z"/>
		<g>
			<path class="st0" d="M227.8,15.7c-5.5-6.3-13.1-11.3-21.9-10.1c-8.4,1.1-15.1,4.6-21.8,9.5c-15.7,11.5-18.7,31.3-21.3,49.3
				c-1.4,9.5-1.5,18.3,1.4,27.6c1.2,3.8,3,7.5,4.7,11.2c1.7,3.9,3.4,7.8,6.4,10.8c5.2,5.2,11.8,6.5,18.8,5c8.6-1.8,14.7-7.7,20-14.3
				c6.7-8.2,12.8-18.5,17-28.2c1.9-4.2,3.9-8.8,4.4-13.4c0.6-5.2,0.2-10.6,0.6-15.8c0.1-1.9-2.8-1.9-3,0c0,0.5-0.1,1.1-0.1,1.6
				c1,0,2,0,3,0c0.4-6,1-11.8-0.4-17.8C234.3,25.4,231.4,20.1,227.8,15.7c-1.2-1.5-3.3,0.6-2.1,2.1c7.7,9.3,8.2,19.6,7.4,31.1
				c-0.1,1.9,2.8,1.9,3,0c0-0.5,0.1-1.1,0.1-1.6c-1,0-2,0-3,0c-0.5,7.5,0.2,14.9-2.3,22.1c-2.8,7.9-7,14.8-11.4,22
				c-4.1,6.8-8.4,13.8-14.6,19.1c-6.3,5.5-16.3,8.6-24,4.2c-6.3-3.7-8.7-11.2-11.4-17.6c-3.4-7.9-5.4-16.4-4.6-25
				c1.4-15.6,3.6-34,13.1-47.1c4.4-6.1,12.5-11.8,19.6-14.2c5-1.7,10.2-3.1,15.3-1.6c5.3,1.5,9.1,4.7,12.7,8.7
				C226.9,19.2,229,17.1,227.8,15.7z"/>
		</g>
	</g>
	<g>
		<path class="st1" d="M215,91.2L215,91.2L215,91.2z"/>
		<g>
			<path class="st0" d="M216.3,91.9L216.3,91.9c0.4-0.7,0.2-1.7-0.5-2.1s-1.6-0.1-2.1,0.5l-0.2,0.4c-0.3,0.7,0.3,1.7,1,1.8
				c0.8,0.2,1.6-0.3,1.8-1C216.4,91.7,216.4,91.8,216.3,91.9c-0.9-0.5-1.7-1-2.6-1.5l0,0c-0.4,0.7-0.2,1.6,0.5,2.1
				C215,92.9,215.9,92.6,216.3,91.9z"/>
		</g>
	</g>
</g>
<g>
	<g>
		<path class="st0" d="M299.2,53.5c0-0.1,0-0.2,0-0.3c-0.5-0.9-1-1.8-1.6-2.7c-0.8-1-1.5-1.9-2.2-2.9c-0.4-0.6-0.8-1.1-1.2-1.7
			c-1-1.1-2-2.1-3.1-2.9c0.5,0.4,1,0.8,1.5,1.2c-1.8-1.4-3.5-2.8-5.1-4.2c-0.6-0.5-1.2-1-1.8-1.5c-0.3-0.3-0.5-0.6-0.8-0.8
			c-1-0.6-2.1-1.2-3.1-1.7c-0.4-0.1-0.7-0.3-1.1-0.4c-1.1-0.4-2.2-0.9-3.4-1.3c0.6,0.2,1.2,0.5,1.7,0.7c-2-0.8-4.1-1.3-6.2-1.9
			c-1.3-0.4-2.6-0.8-4-1c-0.3,0-0.5,0-0.8,0c-1.3,0-2.5-0.2-3.8-0.4c0,0-0.1,0-0.1,0.1c-0.1,0-0.1,0.1-0.2,0.1
			c-2.9-0.3-5.7,0.1-8.6,0.5c-2.4,0.3-4.7,0.9-7,1.6c-2.3,0.7-4.6,1.7-6.8,2.7c-0.7,0.3-1.4,0.6-2.2,0.9c-3.1,1.3-6.2,2.3-9.4,3.4
			c-1.6,0.5-3.1,1.1-4.6,1.7c-1.9,0.7-3.8,1.6-5.7,2.4c-1.5,0.7-3.1,1.4-4.6,2.2c-1.6,0.8-3,1.8-4.5,2.8c-3.2,2.2-6.4,4.5-9.4,6.9
			c-1.1,0.9-2.2,1.9-3.4,2.8c-1.3,1-2.6,1.9-3.9,2.9c0.2-0.2,0.5-0.4,0.7-0.6c-1.7,1.3-3.5,2.6-5.4,3.7s-3.8,2-5.7,3
			c-2.3,1.2-4.4,2.7-6.3,4.4c-0.8,0.6-1.5,1.3-2.2,2c-1,1-1.9,2.2-2.8,3.4c0.2-0.2,0.4-0.5,0.6-0.7c-1.1,1.4-2.1,2.9-3,4.5
			c-1,1.8-1.7,3.8-2.4,5.7c-0.5,1.5-1,3.1-1.4,4.7c-0.4,2-0.7,4.1-0.9,6.2c-0.2,1.8-0.3,3.5-0.2,5.3c0.1,2.2,0.3,4.4,0.7,6.6
			c0.3,1.6,0.7,3.1,1.2,4.6c0.6,2,1.3,3.9,2.3,5.7c0.4,0.7,0.9,1.3,1.3,1.9c0.7,1,1.5,1.9,2.3,2.8c0.5,0.5,1,0.9,1.5,1.4
			c0.6,0.6,1.3,1.1,2.1,1.5c0.7,0.4,1.4,0.6,2.2,0.9c0.7,0.2,1.5,0.4,2.2,0.5c1.7,0.3,3.3,0.6,5,0.9c2.2,0.5,4.4,0.8,6.7,0.8
			c3.5,0,7.1-0.1,10.6-0.1c1.8,0,3.6-0.1,5.5-0.1c1.8,0,3.5,0,5.3-0.1c1.4-0.1,2.9-0.2,4.3-0.3c1.7-0.1,3.4-0.4,5.2-0.7
			c2.7-0.4,5.3-1.1,7.9-1.8c1.2-0.3,2.4-0.7,3.6-1.1c1.2-0.4,2.4-0.7,3.6-1.1c2.8-0.8,5.4-2,8.1-3.2c-0.1,0-0.1,0.1-0.2,0.1
			c1.9-0.8,3.9-1.7,5.8-2.6c-0.3,0.1-0.5,0.2-0.8,0.3c0.3-0.1,0.6-0.2,0.9-0.4c1.9-0.8,3.9-1.5,5.8-2.4c1.5-0.7,2.9-1.5,4.4-2.3
			s2.8-1.8,4.1-2.8c1.5-1,2.9-2.1,4.3-3.2l-0.1,0.1c1-0.8,2.1-1.5,3.2-2.3s2.2-1.6,3.2-2.4c1.6-1.2,3.2-2.5,4.7-3.9
			c1.4-1.2,2.6-2.6,3.7-4c-0.1,0.2-0.3,0.3-0.4,0.5c1.1-1.4,2.2-2.8,3.3-4.2c1-1.3,1.9-2.6,2.8-4c1.9-2.9,3.5-5.9,5-8.9
			c0.9-1.8,1.6-3.7,2.1-5.6c0.5-2,0.8-4.1,1.1-6.2c0.4-3.6,0.4-7.3,0.5-10.9C299.6,56.5,299.4,55,299.2,53.5z"/>
		<g>
			<path class="st0" d="M300.7,53.1c-0.6-3.9-5.7-8.8-8.6-11.2c-0.6,0.8-1.2,1.6-1.8,2.4c0.5,0.4,1,0.8,1.5,1.2
				c1.3,1,3.2-1.3,1.8-2.4c-2.7-2.1-5.1-4.6-7.7-6.6c-2.4-1.8-5.5-2.8-8.3-3.9c-1.8-0.7-2.6,2.2-0.8,2.9c0.6,0.2,1.2,0.5,1.7,0.7
				c0.3-1,0.5-1.9,0.8-2.9c-6.3-2.3-12.4-3.4-18.9-3.3c-8.5,0.1-16.1,3.8-23.8,6.8c-7.5,2.9-15.3,5-22.3,8.9
				c-7.6,4.2-14.2,10.2-21.1,15.4c0.6,0.8,1.2,1.6,1.8,2.4c0.2-0.2,0.5-0.4,0.7-0.6c1.3-1-0.5-3.4-1.8-2.4
				c-7.9,5.9-16.8,8.9-22.9,17c-1.2,1.5,1.4,3,2.6,1.5c0.2-0.2,0.4-0.5,0.6-0.7c-0.9-0.5-1.7-1-2.6-1.5c-6.7,9-9.3,21-7.7,32.1
				c1.2,8.1,5.1,18.6,13.7,21.6c11,3.8,23.8,2.6,35.2,2.2c11.9-0.4,23.4-3.6,34.2-8.3c1.5-0.7,0.4-3.4-1.2-2.7
				c-0.1,0-0.1,0.1-0.2,0.1c0.4,0.9,0.8,1.8,1.2,2.7c1.9-0.9,3.9-1.7,5.8-2.6c1.8-0.8,0.2-3.3-1.5-2.6c-0.3,0.1-0.5,0.2-0.8,0.3
				c0.5,0.9,1,1.7,1.5,2.6c7.1-3,13.3-6.3,19.5-11.1c-0.6-0.8-1.2-1.6-1.8-2.4l-0.1,0.1c-1.3,1,0.4,3.4,1.8,2.4
				c5.3-4,11-7.6,15.1-12.8c-0.8-0.6-1.6-1.2-2.4-1.8c-0.1,0.2-0.3,0.3-0.4,0.5c-1,1.3,1.3,3.2,2.4,1.8c4.9-6.3,9.8-12.9,12.6-20.6
				c2.7-7.5,3.2-16.9,2.2-24.8c-0.2-1.9-3.2-1.9-3,0c0.9,7.1,0.6,15.7-1.6,22.6c-2.5,7.6-7.4,14.4-12.3,20.6
				c0.8,0.6,1.6,1.2,2.4,1.8c0.1-0.2,0.3-0.3,0.4-0.5c1-1.3-1.3-3.2-2.4-1.8c-4,5.1-9.4,8.6-14.5,12.4c0.6,0.8,1.2,1.6,1.8,2.4
				l0.1-0.1c1.3-1-0.5-3.4-1.8-2.4c-6.2,4.7-12.3,8-19.5,11.1c-1.8,0.8-0.2,3.3,1.5,2.6c0.3-0.1,0.5-0.2,0.8-0.3
				c-0.5-0.9-1-1.7-1.5-2.6c-1.9,0.9-3.8,1.8-5.8,2.6c-1.5,0.7-0.4,3.4,1.2,2.7c0.1,0,0.1-0.1,0.2-0.1c-0.4-0.9-0.8-1.8-1.2-2.7
				c-9.6,4.1-19.9,7.2-30.4,7.8c-10.4,0.6-21.3,1.1-31.5-0.8c-4.6-0.9-7.8-2-10.9-5.7c-3.4-4.1-5-9.2-5.8-14.4
				c-1.6-10.5,0.9-21.8,7.3-30.4c1.2-1.6-1.4-3-2.6-1.5c-0.2,0.2-0.4,0.5-0.6,0.7c0.9,0.5,1.7,1,2.6,1.5
				c5.8-7.6,14.5-10.4,21.9-15.9c-0.6-0.8-1.2-1.6-1.8-2.4c-0.2,0.2-0.5,0.4-0.7,0.6c-1.3,1,0.5,3.4,1.8,2.4
				c6-4.6,11.7-9.6,18.1-13.6c7.1-4.6,15.2-6.9,23.1-9.8c7.9-2.9,15.1-6.6,23.7-7.2c6.6-0.5,12.7,0.8,19,3.1
				c1.8,0.7,2.5-2.2,0.8-2.9c-0.6-0.2-1.2-0.5-1.7-0.7c-0.3,1-0.5,1.9-0.8,2.9c5.9,2.4,9.8,5.9,14.7,9.7c0.6-0.8,1.2-1.6,1.8-2.4
				c-0.5-0.4-1-0.8-1.5-1.2c-1.3-1-3.1,1.3-1.8,2.4c2.3,1.9,7.3,6.8,7.8,9.9C298.1,55.8,301,55,300.7,53.1z"/>
		</g>
	</g>
</g>
<g>
	<g>
		<path class="st1" d="M299.4,43.5c0-0.1,0-0.2,0-0.3c-0.5-0.9-1-1.8-1.6-2.7c-0.8-1-1.5-1.9-2.2-2.9c-0.4-0.6-0.8-1.1-1.2-1.7
			c-1-1.1-2-2.1-3.1-2.9c0.5,0.4,1,0.8,1.5,1.2c-1.8-1.4-3.5-2.8-5.1-4.2c-0.6-0.5-1.2-1-1.8-1.5c-0.3-0.3-0.5-0.6-0.8-0.8
			c-1-0.6-2.1-1.2-3.1-1.7c-0.4-0.1-0.7-0.3-1.1-0.4c-1.1-0.4-2.2-0.9-3.4-1.3c0.6,0.2,1.2,0.5,1.7,0.7c-2-0.8-4.1-1.3-6.2-1.9
			c-1.3-0.4-2.6-0.8-4-1c-0.3,0-0.5,0-0.8,0c-1.3,0-2.5-0.2-3.8-0.4c0,0-0.1,0-0.1,0.1c-0.1,0-0.1,0.1-0.2,0.1
			c-2.9-0.3-5.7,0.1-8.6,0.5c-2.4,0.3-4.7,0.9-7,1.6s-4.6,1.7-6.8,2.7c-0.7,0.3-1.4,0.6-2.2,0.9c-3.1,1.3-6.2,2.3-9.4,3.4
			c-1.6,0.5-3.1,1.1-4.6,1.7c-1.9,0.7-3.8,1.6-5.7,2.4c-1.5,0.7-3.1,1.4-4.6,2.2c-1.6,0.8-3,1.8-4.5,2.8c-3.2,2.2-6.4,4.5-9.4,6.9
			c-1.1,0.9-2.2,1.9-3.4,2.8c-1.3,1-2.6,1.9-3.9,2.9c0.2-0.2,0.5-0.4,0.7-0.6c-1.7,1.3-3.5,2.6-5.4,3.7c-1.9,1.1-3.8,2-5.7,3
			c-2.3,1.2-4.4,2.7-6.3,4.4c-0.8,0.6-1.5,1.3-2.2,2c-1,1-1.9,2.2-2.8,3.4c0.2-0.2,0.4-0.5,0.6-0.7c-1.1,1.4-2.1,2.9-3,4.5
			c-1,1.8-1.7,3.8-2.4,5.7c-0.5,1.5-1,3.1-1.4,4.7c-0.4,2-0.7,4.1-0.9,6.2c-0.2,1.8-0.3,3.5-0.2,5.3c0.1,2.2,0.3,4.4,0.7,6.6
			c0.3,1.6,0.7,3.1,1.2,4.6c0.6,2,1.3,3.9,2.3,5.7c0.4,0.7,0.9,1.3,1.3,1.9c0.7,1,1.5,1.9,2.3,2.8c0.5,0.5,1,0.9,1.5,1.4
			c0.6,0.6,1.3,1.1,2.1,1.5c0.7,0.4,1.4,0.6,2.2,0.9c0.7,0.2,1.5,0.4,2.2,0.5c1.7,0.3,3.3,0.6,5,0.9c2.2,0.5,4.4,0.8,6.7,0.8
			c3.5,0,7.1-0.1,10.6-0.1c1.8,0,3.6-0.1,5.5-0.1c1.8,0,3.5,0,5.3-0.1c1.4-0.1,2.9-0.2,4.3-0.3c1.7-0.1,3.4-0.4,5.2-0.7
			c2.7-0.4,5.3-1.1,7.9-1.8c1.2-0.3,2.4-0.7,3.6-1.1c1.2-0.4,2.4-0.7,3.6-1.1c2.8-0.8,5.4-2,8.1-3.2c-0.1,0-0.1,0.1-0.2,0.1
			c1.9-0.8,3.9-1.7,5.8-2.6c-0.3,0.1-0.5,0.2-0.8,0.3c0.3-0.1,0.6-0.2,0.9-0.4c1.9-0.8,3.9-1.5,5.8-2.4c1.5-0.7,2.9-1.5,4.4-2.3
			s2.8-1.8,4.1-2.8c1.5-1,2.9-2.1,4.3-3.2l-0.1,0.1c1-0.8,2.1-1.5,3.2-2.3s2.2-1.6,3.2-2.4c1.6-1.2,3.2-2.5,4.7-3.9
			c1.4-1.2,2.6-2.6,3.7-4c-0.1,0.2-0.3,0.3-0.4,0.5c1.1-1.4,2.2-2.8,3.3-4.2c1-1.3,1.9-2.6,2.8-4c1.9-2.9,3.5-5.9,5-8.9
			c0.9-1.8,1.6-3.7,2.1-5.6c0.5-2,0.8-4.1,1.1-6.2c0.4-3.6,0.4-7.3,0.5-10.9C299.8,46.5,299.6,45,299.4,43.5z"/>
		<g>
			<path class="st0" d="M300.9,43.1c-0.6-3.9-5.7-8.8-8.6-11.2c-0.6,0.8-1.2,1.6-1.8,2.4c0.5,0.4,1,0.8,1.5,1.2
				c1.3,1,3.2-1.3,1.8-2.4c-2.7-2.1-5.1-4.6-7.7-6.6c-2.4-1.8-5.5-2.8-8.3-3.9c-1.8-0.7-2.6,2.2-0.8,2.9c0.6,0.2,1.2,0.5,1.7,0.7
				c0.3-1,0.5-1.9,0.8-2.9c-6.3-2.3-12.4-3.4-18.9-3.3c-8.5,0.1-16.1,3.8-23.8,6.8c-7.5,2.9-15.3,5-22.3,8.9
				c-7.6,4.2-14.2,10.2-21.1,15.4c0.6,0.8,1.2,1.6,1.8,2.4c0.2-0.2,0.5-0.4,0.7-0.6c1.3-1-0.5-3.4-1.8-2.4
				c-7.9,5.9-16.8,8.9-22.9,17c-1.2,1.5,1.4,3,2.6,1.5c0.2-0.2,0.4-0.5,0.6-0.7c-0.9-0.5-1.7-1-2.6-1.5c-6.7,9-9.3,21-7.7,32.1
				c1.2,8.1,5.1,18.6,13.7,21.6c11,3.8,23.8,2.6,35.2,2.2c11.9-0.4,23.4-3.6,34.2-8.3c1.5-0.7,0.4-3.4-1.2-2.7
				c-0.1,0-0.1,0.1-0.2,0.1c0.4,0.9,0.8,1.8,1.2,2.7c1.9-0.9,3.9-1.7,5.8-2.6c1.8-0.8,0.2-3.3-1.5-2.6c-0.3,0.1-0.5,0.2-0.8,0.3
				c0.5,0.9,1,1.7,1.5,2.6c7.1-3,13.3-6.3,19.5-11.1c-0.6-0.8-1.2-1.6-1.8-2.4l-0.1,0.1c-1.3,1,0.4,3.4,1.8,2.4
				c5.3-4,11-7.6,15.1-12.8c-0.8-0.6-1.6-1.2-2.4-1.8c-0.1,0.2-0.3,0.3-0.4,0.5c-1,1.3,1.3,3.2,2.4,1.8c4.9-6.3,9.8-12.9,12.6-20.6
				c2.7-7.5,3.2-16.9,2.2-24.8c-0.2-1.9-3.2-1.9-3,0c0.9,7.1,0.6,15.7-1.6,22.6c-2.5,7.6-7.4,14.4-12.3,20.6
				c0.8,0.6,1.6,1.2,2.4,1.8c0.1-0.2,0.3-0.3,0.4-0.5c1-1.3-1.3-3.2-2.4-1.8c-4,5.1-9.4,8.6-14.5,12.4c0.6,0.8,1.2,1.6,1.8,2.4
				l0.1-0.1c1.3-1-0.5-3.4-1.8-2.4c-6.2,4.7-12.3,8-19.5,11.1c-1.8,0.8-0.2,3.3,1.5,2.6c0.3-0.1,0.5-0.2,0.8-0.3
				c-0.5-0.9-1-1.7-1.5-2.6c-1.9,0.9-3.8,1.8-5.8,2.6c-1.5,0.7-0.4,3.4,1.2,2.7c0.1,0,0.1-0.1,0.2-0.1c-0.4-0.9-0.8-1.8-1.2-2.7
				c-9.6,4.1-19.9,7.2-30.4,7.8c-10.4,0.6-21.3,1.1-31.5-0.8c-4.6-0.9-7.8-2-10.9-5.7c-3.4-4.1-5-9.2-5.8-14.4
				c-1.6-10.5,0.9-21.8,7.3-30.4c1.2-1.6-1.4-3-2.6-1.5c-0.2,0.2-0.4,0.5-0.6,0.7c0.9,0.5,1.7,1,2.6,1.5
				c5.8-7.6,14.5-10.4,21.9-15.9c-0.6-0.8-1.2-1.6-1.8-2.4c-0.2,0.2-0.5,0.4-0.7,0.6c-1.3,1,0.5,3.4,1.8,2.4
				c6-4.6,11.7-9.6,18.1-13.6c7.1-4.6,15.2-6.9,23.1-9.8c7.9-2.9,15.1-6.6,23.7-7.2c6.6-0.5,12.7,0.8,19,3.1
				c1.8,0.7,2.5-2.2,0.8-2.9c-0.6-0.2-1.2-0.5-1.7-0.7c-0.3,1-0.5,1.9-0.8,2.9c5.9,2.4,9.8,5.9,14.7,9.7c0.6-0.8,1.2-1.6,1.8-2.4
				c-0.5-0.4-1-0.8-1.5-1.2c-1.3-1-3.1,1.3-1.8,2.4c2.3,1.9,7.3,6.8,7.8,9.9C298.3,45.8,301.2,45,300.9,43.1z"/>
		</g>
	</g>
</g>
<g>
	<g>
		<path class="st0" d="M61.3,159.4c2.1-0.5,4.2-1.1,6.3-1.8c0.9-0.3,1.8-0.6,2.6-1c1-0.5,2-1.2,2.9-1.9s1.7-1.6,2.4-2.5
			c0.5-0.7,1-1.4,1.4-2.1c1-1.7,1.8-3.5,2.6-5.4c0.4-1.1,0.7-2.2,1-3.3c0.2-0.9,0.3-1.8,0.4-2.8c0-1.2-0.1-2.4-0.2-3.6
			c-0.1-1-0.1-1.9-0.2-2.9c-0.2-2-0.3-3.9-0.6-5.9c-0.3-1.9-0.6-3.8-0.9-5.7c-0.1-0.7-0.2-1.4-0.4-2c-0.1-0.3-0.1-0.6-0.2-1
			c-0.2-1-0.5-1.9-0.7-2.9c-0.6-2.1-1.4-4.2-2.3-6.2c-0.7-1.5-1.6-2.8-2.5-4.1c-0.1-0.3-0.3-0.7-0.4-1c-0.1-0.2-0.2-0.5-0.3-0.7
			c-0.5-1-1.1-2-1.8-2.9c-0.5-0.7-1.1-1.3-1.8-1.9c-0.8-0.7-1.5-1.4-2.3-2.1c-0.7-0.6-1.4-1.1-2.2-1.6c-0.5-0.5-1.1-1-1.7-1.5
			C61.7,92,61,91.5,60.2,91c-1-0.6-2.2-1.2-3.3-1.6c-0.9-0.3-1.8-0.6-2.8-0.9c-1.1-0.3-2.2-0.6-3.2-0.9c-0.8-0.2-1.7-0.3-2.6-0.4
			c-2.1-0.1-4.3,0.2-6.4,0.5c-2,0.3-3.9,0.6-5.9,1.1c-2.1,0.5-4.1,1.1-6.2,1.8c-1.9,0.6-3.7,1.4-5.5,2.2c-1.9,0.8-3.8,1.8-5.3,3.3
			c-0.8,0.9-1.5,1.8-2.3,2.7c-0.6,0.7-1.1,1.5-1.6,2.3c-0.2,0.4-0.5,0.8-0.7,1.2c0,0,0,0.1-0.1,0.1c-0.4,0.7-0.8,1.4-1.2,2.1
			c-0.4,0.8-0.9,1.5-1.3,2.3c-0.5,0.9-0.9,1.7-1.4,2.6c-0.4,0.8-0.6,1.7-0.9,2.6c-0.3,1.1-0.5,2.3-0.7,3.5c-0.2,0.9-0.3,1.9-0.5,2.8
			c-0.2,1-0.3,1.9-0.5,2.9c-0.2,0.8-0.3,1.6-0.4,2.5c-0.1,0.5-0.2,0.9-0.3,1.4c-0.1,0.5-0.1,1-0.2,1.4c-0.1,0.9-0.1,1.8-0.3,2.7
			c-0.2,1.1-0.1,2.2,0,3.3s0.4,2.1,0.8,3.2c0.6,1.7,1.3,3.3,2.2,4.8c0.6,1.1,1.3,2.1,2,3.1c0.6,0.8,1.2,1.5,1.7,2.3
			c0.4,0.5,0.8,1.1,1.2,1.6c0.2,0.3,0.4,0.6,0.6,0.9l-0.1-0.1c0.6,0.9,1.2,1.7,2,2.5c0.6,0.6,1.2,1.2,1.9,1.8
			c0.4,0.4,0.8,0.7,1.2,1.1c1.3,1.2,2.6,2.4,4.1,3.4c0.7,0.5,1.4,1.1,2.2,1.5c1,0.6,2,1,3.1,1.4c1.9,0.7,4,1.1,6,1.3
			c1.1,0.1,2.3,0.1,3.4,0c0.4,0,0.8,0,1.2,0c1,0,1.9,0.2,2.8,0.3c1,0.1,1.9,0.2,2.9,0.2c2.1,0.1,4.2-0.2,6.2-0.7
			c0.3-0.1,0.6-0.2,0.8-0.2c0.8-0.1,1.6-0.2,2.5-0.3C57.4,160.2,59.4,159.8,61.3,159.4z"/>
		<g>
			<path class="st0" d="M61.7,160.9c6.2-1.5,12.1-3.4,15.9-8.9c3.8-5.7,5-11.7,4.4-18.4c-1-12.4-2.9-26.9-12-36.4
				c-4.1-4.3-9.2-8.1-14.9-9.9c-6.4-2-12.3-1.4-18.9,0c-5.8,1.3-13.2,3.3-17.7,7.3c-4,3.5-7.3,9.5-9.4,14.3
				c-2.5,5.9-3.5,13.8-3.9,20.2c-0.5,8,4.5,13.7,8.6,19.9c1.1,1.6,3.7,0.1,2.6-1.5l-0.1-0.1c-0.9,0.5-1.7,1-2.6,1.5
				c4.9,6.8,12.6,12.7,21,13.6C44,163.5,52.7,162.7,61.7,160.9c1.9-0.4,1.1-3.3-0.8-2.9c-3.1,0.6-6.2,1-9.2,1.5
				c-4.3,0.7-7.8,0.3-12.1,0.2c-4.6-0.2-8.9-0.3-12.9-2.8c-3.7-2.3-7.7-5.8-10.3-9.4c-1.1-1.5-3.7-0.1-2.6,1.5l0.1,0.1
				c0.9-0.5,1.7-1,2.6-1.5c-4.2-6.3-9-11.6-8.1-19.7c0.7-6.7,1.5-14.2,4.7-20.2c3.5-6.5,7-11.6,14.2-14.5c6.5-2.6,14.9-5.1,21.9-4.2
				c14.6,1.9,24.9,15.8,27.7,29.4c1.5,7.1,3.5,16.3,1.8,23.5c-0.9,3.7-2.8,7.8-5.5,10.6c-3.3,3.4-8,4.5-12.5,5.6
				C59,158.4,59.8,161.3,61.7,160.9z"/>
		</g>
	</g>
	<g>
		<path class="st0" d="M202.9,114.7c0,0.1,0,0.2,0,0.3c-0.1-0.9-0.2-1.7-0.3-2.6c0,0.3,0.1,0.5,0.1,0.8c-0.1-0.4-0.1-0.9-0.2-1.3
			v0.1c-0.2-2-0.4-4-0.6-6c-0.2-2.2-0.3-4.4-0.7-6.6c-0.2-0.9-0.4-1.8-0.7-2.8c-0.2-0.9-0.5-1.8-0.7-2.6c-0.2-0.9-0.5-1.8-0.7-2.7
			c-0.3-0.9-0.6-1.8-0.9-2.7c-0.1-0.3-0.2-0.5-0.3-0.8l0,0v-0.1c0-0.2,0-0.3,0-0.5v-0.1c0-0.2,0-0.4,0-0.6l0,0l0,0
			c-0.1-0.3-0.2-0.6-0.2-0.9c-0.1-0.3-0.3-0.5-0.4-0.8c-0.1-0.1-0.1-0.2-0.2-0.3c-0.1-0.1-0.1-0.2-0.2-0.3l0,0
			c-0.4-0.6-0.7-1.1-1.1-1.7c0,0,0,0,0-0.1c0,0.2,0,0.5,0,0.7c0-0.1-0.1-0.2-0.1-0.3c0-0.1-0.1-0.2-0.1-0.3c0.1-0.1,0.1-0.2,0.2-0.3
			c0-0.1-0.1-0.1-0.1-0.2c-0.2-0.2-0.5-0.4-0.7-0.6c-0.3-0.5-0.6-1-1-1.4c-0.3-0.4-0.7-0.8-1-1.3c-0.3-0.4-0.6-0.8-0.9-1.1
			c-0.5-0.8-1-1.5-1.5-2.3c-0.2-0.3-0.5-0.6-0.8-1c-0.2-0.2-0.3-0.4-0.5-0.7c-0.3-0.4-0.5-0.8-0.8-1.1c-0.3-0.4-0.7-0.7-1-1
			s-0.5-0.6-0.8-0.8c-0.3-0.3-0.6-0.5-0.9-0.8c-0.4-0.4-0.9-0.8-1.3-1.2c0.1,0.1,0.3,0.2,0.4,0.4c-0.9-0.8-1.7-1.5-2.7-2.1
			c-0.9-0.6-1.7-1.2-2.5-1.9c-0.1-0.1-0.3-0.2-0.4-0.3c-0.6-0.5-1.2-1.1-1.8-1.7c-0.7-0.6-1.4-1.1-2.1-1.7c-0.7-0.5-1.4-1-2.1-1.5
			c-0.6-0.5-1.3-1-1.9-1.5c-0.2-0.2-0.4-0.3-0.6-0.5c-0.4-0.3-0.9-0.5-1.3-0.7c0,0,0,0,0.1,0c-0.1-0.1-0.2-0.1-0.4-0.2
			c-0.6-0.3-1.3-0.6-1.9-0.9c0,0,0.1,0,0.1,0.1c-0.9-0.4-1.7-0.8-2.6-1.2c-0.7-0.3-1.4-0.7-2.1-1.1c-0.9-0.4-1.8-0.8-2.7-1.2
			c-0.4-0.2-0.8-0.4-1.2-0.5c-0.3-0.1-0.7-0.2-1.1-0.3c-1.4-0.6-2.8-1.1-4.3-1.6c-0.2-0.1-0.5-0.2-0.7-0.3c-0.7-0.3-1.4-0.5-2.1-0.8
			c-1.3-0.5-2.6-1.1-3.9-1.6c-0.7-0.3-1.4-0.5-2.1-0.7c-0.8-0.2-1.5-0.3-2.3-0.4c-0.7,0-1.4,0-2.1,0c-0.9,0-1.7-0.1-2.6-0.1
			c0,0,0,0-0.1,0s-0.1,0-0.2,0c-0.1,0-0.2,0-0.3,0c-5-0.8-10.1-1.2-15.1-1.4c-1.2,0-2.4-0.1-3.6,0c-3.9,0-7.8,0.3-11.7,0.8
			c-4.9,0.6-9.7,1.6-14.4,3c-7.1,2-13.9,5.3-20.2,9.6c-0.1,0-0.1-0.1-0.2-0.1c-0.3-0.1-0.6-0.1-0.8-0.1c-0.6,0-1.2,0.2-1.7,0.5
			c-0.6,0.3-1.2,0.7-1.8,1c-0.2,0.3-0.4,0.5-0.6,0.7c-1.2,1.4-2.5,2.5-3.9,3.6c-0.4,0.3-0.8,0.6-1.2,0.9c-0.3,0.4-0.5,0.7-0.8,1.1
			c-0.6,0.8-1.2,1.5-1.9,2.2c-0.8,0.6-1.6,1.1-2.3,1.7c-0.2,0.2-0.4,0.4-0.6,0.5c-0.3,0.3-0.5,0.6-0.8,0.9c-0.5,0.6-1,1.1-1.4,1.6
			c-0.2,0.2-0.3,0.5-0.5,0.7c-0.9,1.4-1.7,2.9-2.6,4.4c-0.6,0.8-1.2,1.6-1.9,2.4c-0.1,0.1-0.2,0.2-0.2,0.3c-0.7,1.5-1.3,2.9-2,4.4
			c-0.8,1.7-1.7,3.4-2.4,5.2c-0.2,0.5-0.5,1.1-0.7,1.6c-0.6,2.3-1.2,4.6-2,6.9c-0.5,1.5-0.9,3-1.2,4.6c-0.2,3.2-0.3,6.4-0.5,9.6
			c-0.2,3.6-0.5,7.2-0.1,10.8c0.1,0.7,0.2,1.4,0.3,2.1c0.2,1.5,0.4,3,0.6,4.5c0,0.3,0.1,0.6,0.1,1c0.1,1,0.3,1.9,0.5,2.9
			c0.1,0.4,0.1,0.8,0.2,1.2v0.1c0.2,1.3,0.3,2.6,0.5,3.9c0-0.3-0.1-0.7-0.1-1v0.1v-0.1c0.1,1.2,0.3,2.5,0.6,3.6s0.7,2.2,1.1,3.3l0,0
			c0.1,0.2,0.1,0.4,0.2,0.6c0-0.1-0.1-0.2-0.1-0.3c0,0.1,0.1,0.2,0.1,0.3l0,0c0.2,0.5,0.4,1,0.6,1.4c0.1,0.3,0.3,0.7,0.4,1
			c0.3,0.9,0.6,1.7,0.9,2.6c0.2,0.5,0.3,1,0.5,1.5c0.1,0.4,0.2,0.8,0.4,1.1c0.2,0.4,0.3,0.8,0.5,1.2c0.1,0.2,0.2,0.5,0.3,0.7
			c0,0.1,0.1,0.1,0.1,0.2c0.1,0.1,0.1,0.3,0.2,0.4c0.4,0.6,0.9,1.2,1.2,1.9s0.6,1.5,0.9,2.2c0.1,0.3,0.2,0.5,0.3,0.8
			c0.1,0.2,0.2,0.4,0.3,0.6c0,0.1,0.1,0.2,0.1,0.2c0.1,0.2,0.2,0.4,0.3,0.5s0.1,0.2,0.2,0.3c0.1,0.1,0.2,0.2,0.3,0.4
			c0.5,0.7,1,1.3,1.4,2.2c0.1,0.3,0.2,0.6,0.3,0.9c0.2,0.5,0.4,1,0.7,1.4l0,0c0.2,0.2,0.3,0.4,0.5,0.5l0,0c-0.1-0.1-0.3-0.2-0.4-0.3
			l0,0l0,0l0,0c0.6,0.6,1.3,1.1,1.9,1.7c0.9,0.8,1.6,1.8,2.2,2.9c0.2,0.3,0.3,0.6,0.5,0.9c0.3,0.6,0.6,1.2,0.9,1.8
			c0,0.1,0.1,0.1,0.1,0.2c0.1,0.1,0.1,0.2,0.2,0.3l0,0c0.1,0.2,0.2,0.4,0.3,0.6c0.2,0.2,0.4,0.5,0.6,0.7c0.4,0.4,0.7,0.9,0.9,1.4
			c6.1,6.6,13.3,11.7,21,15.6c4.5,2.3,9.1,4.1,13.9,5.5c1.4,0.4,2.9,0.8,4.3,1.1c0.1,0.1,0.2,0.1,0.3,0.2c0.1,0,0.2,0,0.2,0
			c0.2,0,0.3,0,0.5,0c0.3,0,0.5,0,0.8,0h0.1c1.1,0,2.2,0,3.2,0s1.9,0,2.9,0c0.4,0,0.9,0,1.3-0.1l0,0h0.1c0.4,0,0.7,0,1.1-0.1
			c0.1,0,0.2,0,0.3,0c0.6,0,1.3-0.1,1.9-0.1c0.1,0,0.2,0,0.3,0c0.5,0,1.1,0,1.6,0c2.3,0,4.6-0.1,6.9-0.2c1.1-0.1,2.2,0,3.3,0h0.1
			c0.2,0,0.4,0,0.7,0c0.1,0,0.3,0,0.4,0s0.3,0,0.4,0c0.2,0,0.5,0,0.7,0c0.1,0,0.2,0,0.3,0c0.2,0,0.5,0,0.7,0c0.5,0,1.1,0,1.6,0
			c0.2,0,0.5,0,0.7,0c0,0,0,0,0.1,0s0.2,0,0.2,0c0.2,0,0.3,0,0.5,0c0.3,0,0.5,0,0.8,0c0.1,0,0.2,0,0.3,0s0.3,0,0.4,0
			c0.1,0,0.3,0,0.4,0l0,0c0.2,0,0.4,0,0.6,0c0.1,0,0.1,0,0.2,0c0,0,0,0,0.1,0l0,0h0.1c0.2,0,0.4-0.1,0.5-0.1l0,0
			c0.1,0,0.2-0.1,0.3-0.1h0.1c0.5-0.1,0.9-0.2,1.4-0.3c0.2,0,0.3-0.1,0.5-0.1c0.3-0.1,0.6-0.1,0.8-0.2c0.4-0.1,0.9-0.2,1.3-0.3h0.1
			l0,0c1.6-0.3,3.3-0.6,4.8-1.1c0.7-0.4,1.5-0.9,2.2-1.4c1.5-0.9,3.2-1.7,4.8-2.3c2.1-0.8,4.2-1.3,6.3-2.1c1.7-0.9,3.5-1.9,5.2-2.8
			c1.6-0.8,3.3-1.7,4.9-2.4c0.6-0.3,1.2-0.5,1.8-0.8c0.1-0.1,0.1-0.1,0.2-0.2c0.8-0.7,1.7-1.4,2.5-2.2c0.6-0.7,1.1-1.4,1.7-2.1
			c0.6-0.7,1.1-1.4,1.6-2.2c0.4-0.6,0.9-1,1.4-1.5c1-0.8,1.9-1.6,2.8-2.6c0.9-1,1.7-2.2,2.4-3.3c0.6-1,1.3-1.9,1.9-2.9
			c0.2-0.3,0.3-0.5,0.5-0.8c0.2-0.2,0.3-0.4,0.5-0.6c1.3-1.6,2.8-3,4.1-4.7c1-1.3,2-2.6,3-4c0.3-0.4,0.5-0.9,0.8-1.3l0,0
			c0-0.1,0.1-0.1,0.1-0.2c0.2-0.3,0.4-0.7,0.6-1c0.3-0.5,0.6-1,0.8-1.5l0,0c0.3-0.5,0.5-0.9,0.7-1.4l0.1-0.1l0,0
			c0.2-0.4,0.4-0.9,0.6-1.4l0,0c0.1-0.3,0.3-0.6,0.4-0.9c0.1-0.2,0.1-0.4,0.2-0.6c0-0.1,0.1-0.2,0.1-0.4l0,0c0.3-1.1,0.6-2.3,1-3.5
			v-0.1c0.1-0.3,0.2-0.6,0.3-1c0-0.1,0.1-0.2,0.1-0.4v-0.1c0.3-0.5,0.5-1,0.8-1.5c0.2-0.4,0.4-0.7,0.5-1.1c0.2-0.6,0.5-1.2,0.6-1.8
			c0.3-0.9,0.5-1.9,0.7-2.8c0.2-1,0.4-2,0.7-3c0.2-0.9,0.5-1.7,0.7-2.6c0.2-0.9,0.4-1.8,0.5-2.8c0.2-1.2,0.3-2.4,0.3-3.6
			c0-0.9,0.1-1.8,0.1-2.7c0-0.8,0-1.6,0-2.4C203.5,118.6,203.2,116.7,202.9,114.7z"/>
		<g>
			<path class="st0" d="M201.4,114.7c0,0.1,0,0.2,0,0.3c1,0,2,0,3,0c-0.1-0.9-0.2-1.7-0.3-2.6c-0.3-1.9-3.2-1.9-3,0
				c0,0.3,0.1,0.5,0.1,0.8c1,0,2,0,3,0c-0.1-0.4-0.1-0.9-0.2-1.3c-1,0-2,0-3,0v0.1c0.2,1.9,3.2,1.9,3,0c-0.8-7.3-1.3-14-3.5-21
				c-1-3.4-0.8-4.8-2.4-7.4c-0.8-1.3-2.6-0.7-2.8,0.8l0,0c0.9-0.3,1.9-0.5,2.8-0.8c-0.4-0.6-0.8-1.2-1.1-1.8
				c-0.7-1.3-2.8-0.7-2.8,0.8c0,0.2,0,0.5,0,0.7c0.9-0.3,1.9-0.5,2.8-0.8c-0.2-0.6-0.2-0.4-0.1,0.6c0.3-0.4,0.2-1.1,0-1.5
				c-1.3-2.4-3.7-4.9-5.3-7.1c-1.8-2.6-3.9-4.6-6.3-6.8c-0.7,0.7-1.4,1.4-2.1,2.1c0.1,0.1,0.3,0.2,0.4,0.4c0.7-0.7,1.4-1.4,2.1-2.1
				c-4.8-4.1-10.2-9.2-15.7-12.2c-0.5,0.9-1,1.7-1.5,2.6c0,0,0,0,0.1,0c0.5-0.9,1-1.7,1.5-2.6c-0.8-0.4-1.5-0.7-2.3-1.1
				c-1.7-0.8-3.3,1.8-1.5,2.6c0,0,0.1,0,0.1,0.1c0.5-0.9,1-1.7,1.5-2.6c-5.1-2.3-10.2-4.6-15.5-6.6c-2.5-0.9-4.9-2.2-7.5-2.8
				c-2.4-0.6-4.9-0.4-7.4-0.6c-5-0.4-13-1.5-19.2-1.5c-8,0-16.1,1.1-23.9,3.1C87.6,48.3,80,51,74.2,55.1c-0.4,0.3-1.7,1.6-2,1.7
				c-0.3,0.1-0.7-0.3-1-0.2c-0.5,0.2-1.1,0.1-1.7,0.2c-2.7,0.8-4.2,3.2-6.2,4.9C53.9,70,46.5,79.6,42.2,91.5c-3,8.3-3.6,16.3-4,25.1
				c-0.3,7.7,1.5,15.2,2.3,22.8c1,0,2,0,3,0c0-0.3-0.1-0.7-0.1-1c-0.2-1.9-3.2-1.9-3,0v0.1c1,0,2,0,3,0v-0.1c-1,0-2,0-3,0
				c0.4,2.8,1,5.3,2,7.9c0.7,1.8,3.6,1,2.9-0.8c0-0.1-0.1-0.2-0.1-0.3c-1,0.3-1.9,0.5-2.9,0.8c0,0.1,0.1,0.2,0.1,0.3
				c0.7,1.8,3.6,1,2.9-0.8l0,0c-1,0.3-1.9,0.5-2.9,0.8c2,5,3.9,9.9,6,14.8c1.1,2.6,2.8,6.1,4.7,8.1c0.7-0.7,1.4-1.4,2.1-2.1
				c-0.1-0.1-0.3-0.2-0.4-0.3c-1.5-1.2-3.6,0.8-2.1,2.1l0,0c0.7-0.7,1.4-1.4,2.1-2.1l0,0c-1-0.8-2.6-0.3-2.6,1.1
				c0,1.5,2.1,2.5,3,3.5c1.3,1.5,2.1,3.3,3,5c0.3,0.6,1.1,0.8,1.7,0.7l0,0c-0.6-0.2-1.1-0.5-1.7-0.7c5,8.8,16.3,15.5,25.1,19.7
				c5.2,2.5,11.1,5.1,16.8,5.9c3.2,0.5,6.7,0.2,9.9,0c-0.5-0.6-1-1.3-1.4-1.9l0,0c-0.3,0.9,0.5,2,1.4,1.9c7.4-0.4,15.1,0.2,22.5-0.7
				c0.8-0.1,1.6-0.5,2.3-0.6c0.2,0-1.1,0.3,0,0.5c-1-0.1-1.2,0.2-0.3,0c0.5-0.1,2.3-0.5,1.4-0.3c1.5-0.3,2.9-0.7,4.4-1
				c2.9-0.6,4.7-1.1,7.2-2.6c3.5-2,7.2-2.7,10.8-4.3c4.7-2,11-4.5,14.7-8.1c2-1.9,3.4-4.4,5.3-6.3c1.7-1.7,3.3-3.1,4.7-5.1
				c3.7-5.2,8.3-9.9,11.5-15.4c-0.8,0.1-1.6,0.2-2.4,0.3l0,0c0.6,0.7,1.9,0.5,2.4-0.3c0.8-1.4,1.6-2.9,2.3-4.3
				c0.3-0.6,0.2-1.3-0.2-1.8l0,0c0.1,0.6,0.2,1.2,0.2,1.8c0.2-0.5,0.4-0.9,0.6-1.4c-0.9-0.3-1.9-0.5-2.8-0.8l0,0
				c0,1.4,2.2,2.2,2.8,0.8s0.7-3.1,0.9-3.9c0.7-2.6,2.7-5.6,3.5-8.5c2.4-8.5,3.5-16.5,2.3-25.4C204.2,112.8,201.2,112.8,201.4,114.7
				c1.1,8.5,0.2,16.4-2.2,24.6c-0.7,2.3-1.9,4.3-2.6,6.6c-0.4,1.4-0.6,2.9-1,4.3c0.1,0.3,0.2,0.5,0.4,0.7c-0.4-1.5-0.7-1.5-0.9,0.1
				c0.9,0.3,1.9,0.5,2.8,0.8l0,0c0-1.4-2.1-2.2-2.8-0.8c-0.2,0.5-0.4,0.9-0.6,1.4c-0.3,0.6-0.3,1.3,0.2,1.8l0,0
				c-0.1-0.6-0.2-1.2-0.2-1.8c-0.8,1.5-1.5,2.9-2.3,4.3c0.8-0.1,1.6-0.2,2.4-0.3l0,0c-0.6-0.7-1.9-0.5-2.4,0.3
				c-3,5.1-7.4,9.3-10.8,14.2c-1.6,2.3-3.4,4-5.4,5.9c-1.6,1.7-2.7,3.7-4.3,5.4c-2.5,2.6-5.9,3.7-9.1,5.3c-3.2,1.6-6.2,3.1-9.6,4.2
				c-4.7,1.6-10.2,4.7-14.2,5.5c-1.1,0.2-2.8,0.4-3.8,0.9c-1.7,0.9,1.6-0.1-0.2,0.1c-0.4,0.1-1.3,0.5-1.9,0.5
				c-0.9,0.1,1.4-0.3,0.5-0.4c-0.5,0-1,0.1-1.5,0c-1.9-0.3-4.2,0.1-6.2,0.2c-5.1,0.1-10.3,0.2-15.4,0.5c0.5,0.6,1,1.3,1.4,1.9l0,0
				c0.3-0.9-0.5-1.9-1.4-1.9c-2.5,0.1-7,0.4-8.7,0.2c-5.2-0.6-11-3.2-15.7-5.3c-8.7-4-20-10.4-24.9-19c-0.3-0.6-1-0.8-1.7-0.7l0,0
				c0.6,0.2,1.1,0.5,1.7,0.7c-0.7-1.2-1.3-2.5-2-3.7c-0.3-0.5-3.6-4.1-3.6-3.3c-0.9,0.4-1.7,0.7-2.6,1.1l0,0
				c1.5,1.2,3.6-0.8,2.1-2.1l0,0c-0.7,0.7-1.4,1.4-2.1,2.1c0.1,0.1,0.3,0.2,0.4,0.3c1.5,1.2,3.5-0.7,2.1-2.1c-1.9-2-3.5-5.9-4.6-8.5
				c-1.9-4.3-3.7-8.6-5.4-13.1c-0.7-1.8-3.6-1-2.9,0.8l0,0c1-0.3,1.9-0.5,2.9-0.8c0-0.1-0.1-0.2-0.1-0.3c-0.7-1.8-3.6-1-2.9,0.8
				c0,0.1,0.1,0.2,0.1,0.3c1-0.3,1.9-0.5,2.9-0.8c-0.9-2.3-1.6-4.6-1.9-7.1c-0.2-1.9-3.2-1.9-3,0v0.1c0.2,1.9,3.2,1.9,3,0v-0.1
				c-1,0-2,0-3,0c0,0.3,0.1,0.7,0.1,1c0.2,1.9,3.2,1.9,3,0c-0.9-7.6-2.6-15.1-2.3-22.8c0.4-10.2,1.6-19.5,6-28.9
				c3.3-7,7-13,12.6-18.2c2.3-2.2,4.5-4.5,6.9-6.7c1.8-1.6,2.4-2.4,4.7-3.1c0.3-0.1,0.8,0.1,1.2,0c1.5-0.5,3.2-2.1,4.6-2.9
				c2-1.2,4-2.2,6.1-3.2c4.7-2.2,9.6-3.7,14.6-4.8c9.8-2.2,19.7-2.7,29.7-2c3,0.2,7.7,0.9,10,1.1c3,0.2,5.8,0.1,8.7,1.2
				c6.9,2.5,13.6,5.4,20.2,8.4c1.7,0.8,3.3-1.8,1.5-2.6c0,0-0.1,0-0.1-0.1c-0.5,0.9-1,1.7-1.5,2.6c0.8,0.4,1.5,0.7,2.3,1.1
				c1.7,0.8,3.3-1.8,1.5-2.6c0,0,0,0-0.1,0c-1.7-0.8-3.2,1.7-1.5,2.6c5.3,2.8,10.5,7.8,15.1,11.7c1.5,1.2,3.6-0.9,2.1-2.1
				c-0.1-0.1-0.3-0.2-0.4-0.4c-1.5-1.2-3.6,0.8-2.1,2.1c2.3,2,4.3,4.1,6,6.5c0.9,1.3,1.8,2.6,2.8,3.8c0.8,1.1,1.2,3,2.1,1.7
				c-0.3,0.4-0.2,1.1,0,1.5c0.1,0.2,0.2,0.4,0.3,0.6c0.7,1.4,2.8,0.6,2.8-0.8c0-0.2,0-0.5,0-0.7c-0.9,0.3-1.9,0.5-2.8,0.8
				c0.3,0.6,0.7,1.2,1.1,1.8c0.9,1.3,2.6,0.7,2.8-0.8l0,0c-0.9,0.3-1.9,0.5-2.8,0.8c1.1,1.8,1.5,4.7,2.1,6.7
				c2.1,6.7,2.6,13.3,3.4,20.2c1,0,2,0,3,0v-0.1c-0.2-1.9-3.2-1.9-3,0c0.1,0.4,0.1,0.9,0.2,1.3c0.2,1.9,3.2,1.9,3,0
				c0-0.3-0.1-0.5-0.1-0.8c-1,0-2,0-3,0c0.1,0.9,0.2,1.7,0.3,2.6c0.2,1.9,3.2,1.9,3,0c0-0.1,0-0.2,0-0.3
				C204.2,112.8,201.2,112.8,201.4,114.7z"/>
		</g>
	</g>
	<g>
		<path class="st0" d="M235.3,125.7c-0.1-1.2-0.2-2.4-0.4-3.6c-0.2,0-0.4-0.1-0.6-0.1c0-0.2-0.1-0.3-0.1-0.5c-0.3-1.7-0.8-3.4-1.4-5
			c-0.6-1.8-1.2-3.5-2-5.2c-0.3-0.6-0.6-1.2-0.9-1.8c-0.6-1.1-1.3-2-2.1-2.9c-1-1.2-2.1-2.3-3.3-3.3c-0.4-0.3-0.8-0.7-1.2-1
			c-0.1-0.1-0.1-0.2-0.2-0.3c-0.3-0.5-0.6-0.9-0.9-1.3c0.1,0,0.3-0.1,0.4-0.1c-0.1-0.1-0.2-0.1-0.3-0.2c-0.2-0.1-0.3-0.2-0.5-0.2
			l0,0l0,0l0,0c-0.5-0.2-0.9-0.4-1.3-0.7l0,0c-0.8-0.6-1.7-1.2-2.5-2c-0.4-0.4-0.8-0.8-1.1-1.3c-1.8-1-3.7-1.7-5.7-2.1
			c-1.9-0.4-3.9-0.6-5.9-0.6c0,0,0,0-0.1,0c-1.1,0-2.2,0.1-3.2,0.2c-0.2,0-0.4,0-0.6,0c-0.5-0.1-1-0.2-1.6-0.2
			c-1.2-0.2-2.4-0.3-3.6-0.4c-0.1,0-0.3,0-0.4,0c-0.7,0-1.5,0-2.2,0.1c-2.2,0.1-4.4,0.4-6.6,0.8c-1.6,0.3-3.1,0.8-4.6,1.3
			c-3.9,1.3-7.7,3.4-10.3,6.5c-0.8,1-1.6,2-2.3,3.1c-0.5,0.7-1.1,1.5-1.6,2.3c-0.9,1.4-1.8,2.8-2.6,4.3c-0.9,1.7-1.6,3.5-2.3,5.3
			c-0.5,1.4-0.9,2.9-1.2,4.4c-0.5,2.1-0.7,4.3-1,6.5c-0.2,1.6-0.1,3.3-0.1,4.9c0,2.5,0.1,5.1,0.6,7.6c0.4,1.9,1.2,3.8,2,5.5
			c0.7,1.6,1.7,3.1,2.6,4.5l0,0c0.1,0.1,0.3,0.2,0.4,0.2c1.8,1,3.4,2.1,5,3.4c0.4,0.4,0.8,0.7,1.2,1.2c0.4,0.4,0.8,0.8,1.2,1.2
			c0.6,0.7,1.2,1.4,1.7,2.2c0,0.1,0.1,0.1,0.1,0.2c0.1,0.2,0.3,0.4,0.4,0.7c0,0.1,0.1,0.1,0.1,0.2c0.1,0.1,0.1,0.2,0.2,0.3l0.1-0.1
			c0.3,0.2,0.6,0.4,0.9,0.6c-0.1,0-0.1-0.1-0.2-0.1c0.7,0.5,1.3,1,2,1.4c0.8,0.5,1.6,0.9,2.5,1.3c1.9,0.9,3.9,1.7,6,2.1
			c3.9,0.9,8,0.7,12,0.3c2.2-0.2,4.4-0.4,6.5-0.9c1.5-0.3,2.9-1,4.3-1.5c1.5-0.6,3-1.1,4.4-1.7c2-0.8,3.8-1.7,5.6-2.7
			c1-0.6,2-1.4,2.8-2.1c0.6-0.5,1.2-1.1,1.8-1.6c1.5-1.5,2.7-3.3,3.8-5.1c1.9-3.1,3.3-6.5,4.2-9.9c1-3.8,1.5-7.7,1.6-11.7
			c0-0.8-0.1-1.6-0.1-2.4C235,125.7,235.2,125.7,235.3,125.7z"/>
		<g>
			<path class="st0" d="M236.8,125.7c-0.1-1.2-0.2-2.4-0.4-3.6c-0.1-0.9-0.6-1.4-1.5-1.5c-0.2,0-0.4-0.1-0.6-0.1
				c0.5,0.4,1,0.7,1.4,1.1c-0.7-4.1-2.1-8.3-4.1-11.9c-2.1-3.9-5.6-6.3-8.1-9.8c-0.3,0.7-0.6,1.5-0.9,2.2c0.1,0,0.3-0.1,0.4-0.1
				c1.2-0.5,1.5-2,0.4-2.7c-3-1.8-5.5-4.6-8.9-5.8c-4.9-1.8-9.7-1-14.7-1.5c-10.9-1.1-23.4,1.5-30.3,10.7
				c-7.7,10.2-11.1,21.9-9.9,34.7c0.5,4.6,2.4,10.9,5.8,14.2c0.9,0.9,3.4,1.9,5.1,3.4c1.9,1.6,3.4,3.6,4.7,5.6c0.6,1,2,1,2.6,0
				l0.1-0.1c-0.7,0.2-1.4,0.4-2.1,0.5c0.3,0.2,0.6,0.4,0.9,0.6c1.4,1,3.2-1.3,1.8-2.4c-0.1,0-0.1-0.1-0.2-0.1
				c-0.6,0.8-1.2,1.6-1.8,2.4c12,8.9,28,6.2,40.7,0.5c13.7-6.1,20.2-21.8,19-36.2c-0.6,0.5-1.3,1-1.9,1.4c0.2,0,0.3,0.1,0.5,0.1
				c1.9,0.3,2.7-2.6,0.8-2.9c-0.2,0-0.3-0.1-0.5-0.1c-0.9-0.1-2,0.4-1.9,1.4c1.1,13.4-4.8,28-17.5,33.6c-11.8,5.2-26.6,7.7-37.7-0.5
				c-1.4-1-3.2,1.3-1.8,2.4c0.1,0,0.1,0.1,0.2,0.1c0.6-0.8,1.2-1.6,1.8-2.4c-0.3-0.2-0.6-0.4-0.9-0.6c-0.7-0.5-1.7-0.1-2.1,0.5
				l-0.1,0.1c0.9,0,1.7,0,2.6,0c-1.7-2.8-3.9-5.3-6.5-7.3c-1.3-1-3.3-1.8-4.5-2.9c-0.7-0.7-2.3-4.6-2.9-6.3
				c-4.2-11.2-0.6-25.6,5.9-35.2C177.4,96,188.4,94.4,201,95c4.3,0.2,8.6-0.6,12.7,1.2c2.5,1.1,4.3,3.4,6.7,4.7
				c1.2,0.7,0-0.1,1.5,0.8c0.1-0.9,0.2-1.8,0.4-2.7c-0.1,0-0.3,0.1-0.4,0.1c-0.8,0.3-1.5,1.3-0.9,2.2c2.3,3.3,5.5,5.5,7.6,9
				c2.1,3.6,3.5,8,4.2,12.1c0.1,0.7,0.8,1,1.4,1.1c0.2,0,0.4,0.1,0.6,0.1c-0.5-0.5-1-1-1.5-1.5c0.2,1.2,0.3,2.4,0.4,3.6
				C234,127.6,237,127.6,236.8,125.7z"/>
		</g>
	</g>
</g>
<g>
	<g>
		<path class="st1" d="M74.2,139.2c1.7-1.3,3.4-2.7,5-4.2c0.7-0.6,1.4-1.3,2-2c0.7-0.9,1.3-1.9,1.9-2.9c0.5-1,0.9-2.2,1.2-3.3
			c0.2-0.8,0.3-1.7,0.4-2.5c0.2-2,0.2-3.9,0.2-6c-0.1-1.2-0.3-2.3-0.4-3.4c-0.2-0.9-0.5-1.8-0.8-2.7c-0.5-1.1-1.1-2.2-1.7-3.2
			c-0.5-0.9-0.9-1.7-1.4-2.6c-1-1.7-1.9-3.4-3-5.1c-1-1.6-2.1-3.2-3.1-4.8c-0.4-0.6-0.8-1.2-1.2-1.7c-0.2-0.2-0.3-0.5-0.6-0.8
			c-0.6-0.8-1.2-1.5-1.8-2.4c-1.4-1.7-3-3.3-4.6-4.7c-1.3-1.1-2.6-1.9-4-2.7c-0.2-0.2-0.6-0.5-0.8-0.7c-0.2-0.1-0.4-0.4-0.6-0.5
			c-0.9-0.7-1.8-1.4-2.8-1.9c-0.7-0.4-1.5-0.7-2.4-1c-1-0.3-1.9-0.7-3-1c-0.9-0.3-1.7-0.4-2.7-0.6c-0.7-0.3-1.4-0.5-2.2-0.7
			c-0.9-0.3-1.7-0.4-2.7-0.6c-1-0.2-2.3-0.2-3.5-0.2c-0.9,0.1-1.9,0.2-2.9,0.3c-1.1,0.2-2.3,0.3-3.3,0.5c-0.8,0.1-1.7,0.4-2.5,0.7
			c-2,0.8-3.8,1.9-5.6,3.1c-1.7,1.1-3.3,2.1-4.9,3.4c-1.6,1.5-3.3,2.8-4.9,4.3c-1.5,1.3-2.8,2.8-4.1,4.3c-1.4,1.5-2.7,3.2-3.5,5.2
			c-0.4,1.1-0.6,2.3-1,3.4c-0.3,0.9-0.4,1.8-0.5,2.8c0,0.4-0.1,0.9-0.1,1.4c0,0,0,0.1-0.1,0.1c-0.1,0.8-0.2,1.6-0.2,2.4
			c0,0.9-0.2,1.7-0.2,2.6c-0.1,1-0.1,1.9-0.2,2.9c0,0.9,0.1,1.8,0.2,2.7c0.2,1.1,0.5,2.3,0.8,3.5c0.2,0.9,0.5,1.9,0.7,2.8
			c0.2,1,0.5,1.9,0.7,2.9c0.1,0.8,0.4,1.6,0.7,2.4c0.1,0.5,0.2,0.9,0.3,1.4s0.3,1,0.4,1.4c0.3,0.9,0.6,1.7,0.8,2.6
			c0.3,1.1,0.8,2,1.3,3s1.2,1.8,2,2.6c1.2,1.3,2.5,2.5,4,3.5c1,0.8,2,1.4,3.1,2c0.9,0.5,1.7,0.9,2.5,1.4c0.6,0.3,1.2,0.7,1.7,1
			c0.3,0.2,0.6,0.4,0.9,0.6l-0.1-0.1c0.9,0.6,1.8,1.1,2.8,1.5c0.8,0.3,1.6,0.6,2.5,0.9c0.5,0.2,1,0.3,1.5,0.5
			c1.7,0.6,3.4,1.1,5.1,1.4c0.8,0.2,1.7,0.4,2.6,0.5c1.2,0.1,2.2,0.1,3.4,0c2-0.1,4.1-0.6,6-1.3c1-0.4,2.1-0.8,3.1-1.4
			c0.4-0.2,0.7-0.3,1.1-0.5c0.9-0.4,1.8-0.6,2.7-0.9c1-0.3,1.8-0.6,2.7-1c2-0.8,3.8-1.9,5.4-3.2c0.2-0.2,0.5-0.4,0.6-0.5
			c0.7-0.4,1.4-0.8,2.2-1.3C71,141.5,72.6,140.3,74.2,139.2z"/>
		<g>
			<path class="st0" d="M75.2,140.4c5-3.9,9.7-8,10.9-14.6c1.1-6.8-0.2-12.7-3.5-18.6c-6-10.9-13.6-23.4-25.8-28.3
				c-5.5-2.3-11.7-3.6-17.6-3c-6.7,0.8-11.8,3.7-17.3,7.7C17.1,87.1,11.2,92,8.7,97.5c-2.2,4.8-2.8,11.7-2.7,16.9
				c0.1,6.4,2.4,14,4.7,20c2.8,7.5,9.7,10.7,16,14.7c1.7,1,3.4-1.4,1.8-2.4l-0.1-0.1c-0.6,0.8-1.1,1.6-1.8,2.4
				c7.2,4.2,16.7,6.5,24.7,3.8C60.1,150,67.7,145.7,75.2,140.4c1.6-1.1-0.3-3.5-1.9-2.3c-2.6,1.8-5.3,3.4-7.8,5.1
				c-3.6,2.4-7,3.5-11,5.1c-4.3,1.7-8.2,3.4-12.9,2.7c-4.3-0.6-9.4-2.2-13.2-4.4c-1.6-0.9-3.4,1.4-1.8,2.4l0.1,0.1
				c0.6-0.8,1.1-1.6,1.8-2.4c-6.4-4-13-6.9-15.4-14.7c-2.1-6.4-4.4-13.6-4-20.4c0.5-7.4,1.7-13.4,7-19c4.9-5,11.5-10.7,18.3-12.8
				c14.1-4.2,29.2,4.3,37.3,15.5c4.3,5.9,9.8,13.5,11.2,20.7c0.7,3.7,0.6,8.3-0.7,11.9c-1.6,4.5-5.5,7.4-9.1,10.2
				C71.7,139.2,73.6,141.5,75.2,140.4z"/>
		</g>
	</g>
	<g>
		<path class="st1" d="M203.1,104.7c0,0.1,0,0.2,0,0.3c-0.1-0.9-0.2-1.7-0.3-2.6c0,0.3,0.1,0.5,0.1,0.8c-0.1-0.4-0.1-0.9-0.2-1.3
			v0.1c-0.2-2-0.4-4-0.6-6c-0.2-2.2-0.3-4.4-0.7-6.6c-0.2-0.9-0.4-1.8-0.7-2.8c-0.2-0.9-0.5-1.8-0.7-2.6c-0.2-0.9-0.5-1.8-0.7-2.7
			c-0.3-0.9-0.6-1.8-0.9-2.7c-0.1-0.3-0.2-0.5-0.3-0.8l0,0v-0.1c0-0.2,0-0.3,0-0.5v-0.1c0-0.2,0-0.4,0-0.6l0,0l0,0
			c-0.1-0.3-0.2-0.6-0.2-0.9c-0.1-0.3-0.3-0.5-0.4-0.8c-0.1-0.1-0.1-0.2-0.2-0.3c-0.1-0.1-0.1-0.2-0.2-0.3l0,0
			c-0.4-0.6-0.7-1.1-1.1-1.7c0,0,0,0,0-0.1c0,0.2,0,0.5,0,0.7c0-0.1-0.1-0.2-0.1-0.3c0-0.1-0.1-0.2-0.1-0.3c0.1-0.1,0.1-0.2,0.2-0.3
			c0-0.1-0.1-0.1-0.1-0.2c-0.2-0.2-0.5-0.4-0.7-0.6c-0.3-0.5-0.6-1-1-1.4c-0.3-0.4-0.7-0.8-1-1.3c-0.3-0.4-0.6-0.8-0.9-1.1
			c-0.5-0.8-1-1.5-1.5-2.3c-0.2-0.3-0.5-0.6-0.8-1c-0.2-0.2-0.3-0.4-0.5-0.7c-0.3-0.4-0.5-0.8-0.8-1.1c-0.3-0.4-0.7-0.7-1-1
			s-0.5-0.6-0.8-0.8c-0.3-0.3-0.6-0.5-0.9-0.8c-0.4-0.4-0.9-0.8-1.3-1.2c0.1,0.1,0.3,0.2,0.4,0.4c-0.9-0.8-1.7-1.5-2.7-2.1
			c-0.9-0.6-1.7-1.2-2.5-1.9c-0.1-0.1-0.3-0.2-0.4-0.3c-0.6-0.5-1.2-1.1-1.8-1.7c-0.7-0.6-1.4-1.1-2.1-1.7c-0.7-0.5-1.4-1-2.1-1.5
			c-0.6-0.5-1.3-1-1.9-1.5c-0.2-0.2-0.4-0.3-0.6-0.5c-0.4-0.3-0.9-0.5-1.3-0.7c0,0,0,0,0.1,0c-0.1-0.1-0.2-0.1-0.4-0.2
			c-0.6-0.3-1.3-0.6-1.9-0.9c0,0,0.1,0,0.1,0.1c-0.9-0.4-1.7-0.8-2.6-1.2c-0.7-0.3-1.4-0.7-2.1-1.1c-0.9-0.4-1.8-0.8-2.7-1.2
			c-0.4-0.2-0.8-0.4-1.2-0.5c-0.3-0.1-0.7-0.2-1.1-0.3c-1.4-0.6-2.8-1.1-4.3-1.6c-0.2-0.1-0.5-0.2-0.7-0.3c-0.7-0.3-1.4-0.5-2.1-0.8
			c-1.3-0.5-2.6-1.1-3.9-1.6c-0.7-0.3-1.4-0.5-2.1-0.7c-0.8-0.2-1.5-0.3-2.3-0.4c-0.7,0-1.4,0-2.1,0c-0.9,0-1.7-0.1-2.6-0.1
			c0,0,0,0-0.1,0s-0.1,0-0.2,0c-0.1,0-0.2,0-0.3,0c-5-0.8-10.1-1.2-15.1-1.4c-1.2,0-2.4-0.1-3.6,0c-3.9,0-7.8,0.3-11.7,0.8
			c-4.9,0.6-9.7,1.6-14.4,3c-7.1,2-13.9,5.3-20.2,9.6c-0.1,0-0.1-0.1-0.2-0.1c-0.3-0.1-0.6-0.1-0.8-0.1c-0.6,0-1.2,0.2-1.7,0.5
			c-0.6,0.3-1.2,0.7-1.8,1c-0.2,0.3-0.4,0.5-0.6,0.7c-1.2,1.4-2.5,2.5-3.9,3.6c-0.4,0.3-0.8,0.6-1.2,0.9c-0.3,0.4-0.5,0.7-0.8,1.1
			c-0.6,0.8-1.2,1.5-1.9,2.2c-0.8,0.6-1.6,1.1-2.3,1.7c-0.2,0.2-0.4,0.4-0.6,0.5c-0.3,0.3-0.5,0.6-0.8,0.9c-0.5,0.6-1,1.1-1.4,1.6
			c-0.2,0.2-0.3,0.5-0.5,0.7C52.8,65,52,66.5,51.1,68c-0.6,0.8-1.2,1.6-1.9,2.4c-0.1,0.1-0.2,0.2-0.2,0.3c-0.7,1.5-1.3,2.9-2,4.4
			c-0.8,1.7-1.7,3.4-2.4,5.2c-0.2,0.5-0.5,1.1-0.7,1.6c-0.6,2.3-1.2,4.6-2,6.9c-0.5,1.5-0.9,3-1.2,4.6c-0.2,3.2-0.3,6.4-0.5,9.6
			c-0.2,3.6-0.5,7.2-0.1,10.8c0.1,0.7,0.2,1.4,0.3,2.1c0.2,1.5,0.4,3,0.6,4.5c0,0.3,0.1,0.6,0.1,1c0.1,1,0.3,1.9,0.5,2.9
			c0.1,0.4,0.1,0.8,0.2,1.2v0.1c0.2,1.3,0.3,2.6,0.5,3.9c0-0.3-0.1-0.7-0.1-1v0.1v-0.1c0.1,1.2,0.3,2.5,0.6,3.6s0.7,2.2,1.1,3.3l0,0
			c0.1,0.2,0.1,0.4,0.2,0.6c0-0.1-0.1-0.2-0.1-0.3c0,0.1,0.1,0.2,0.1,0.3l0,0c0.2,0.5,0.4,1,0.6,1.4c0.1,0.3,0.3,0.7,0.4,1
			c0.3,0.9,0.6,1.7,0.9,2.6c0.2,0.5,0.3,1,0.5,1.5c0.1,0.4,0.2,0.8,0.4,1.1c0.2,0.4,0.3,0.8,0.5,1.2c0.1,0.2,0.2,0.5,0.3,0.7
			c0,0.1,0.1,0.1,0.1,0.2c0.1,0.1,0.1,0.3,0.2,0.4c0.4,0.6,0.9,1.2,1.2,1.9s0.6,1.5,0.9,2.2c0.1,0.3,0.2,0.5,0.3,0.8
			c0.1,0.2,0.2,0.4,0.3,0.6c0,0.1,0.1,0.2,0.1,0.2c0.1,0.2,0.2,0.4,0.3,0.5s0.1,0.2,0.2,0.3c0.1,0.1,0.2,0.2,0.3,0.4
			c0.5,0.7,1,1.3,1.4,2.2c0.1,0.3,0.2,0.6,0.3,0.9c0.2,0.5,0.4,1,0.7,1.4l0,0c0.2,0.2,0.3,0.4,0.5,0.5l0,0c-0.1-0.1-0.3-0.2-0.4-0.3
			l0,0l0,0l0,0c0.6,0.6,1.3,1.1,1.9,1.7c0.9,0.8,1.6,1.8,2.2,2.9c0.2,0.3,0.3,0.6,0.5,0.9c0.3,0.6,0.6,1.2,0.9,1.8
			c0,0.1,0.1,0.1,0.1,0.2c0.1,0.1,0.1,0.2,0.2,0.3l0,0c0.1,0.2,0.2,0.4,0.3,0.6c0.2,0.2,0.4,0.5,0.6,0.7c0.4,0.4,0.7,0.9,0.9,1.4
			c6.1,6.6,13.3,11.7,21,15.6c4.5,2.3,9.1,4.1,13.9,5.5c1.4,0.4,2.9,0.8,4.3,1.1c0.1,0.1,0.2,0.1,0.3,0.2c0.1,0,0.2,0,0.2,0
			c0.2,0,0.3,0,0.5,0c0.3,0,0.5,0,0.8,0h0.1c1.1,0,2.2,0,3.2,0s1.9,0,2.9,0c0.4,0,0.9,0,1.3-0.1l0,0h0.1c0.4,0,0.7,0,1.1-0.1
			c0.1,0,0.2,0,0.3,0c0.6,0,1.3-0.1,1.9-0.1c0.1,0,0.2,0,0.3,0c0.5,0,1.1,0,1.6,0c2.3,0,4.6-0.1,6.9-0.2c1.1-0.1,2.2,0,3.3,0h0.1
			c0.2,0,0.4,0,0.7,0c0.1,0,0.3,0,0.4,0s0.3,0,0.4,0c0.2,0,0.5,0,0.7,0c0.1,0,0.2,0,0.3,0c0.2,0,0.5,0,0.7,0c0.5,0,1.1,0,1.6,0
			c0.2,0,0.5,0,0.7,0c0,0,0,0,0.1,0s0.2,0,0.2,0c0.2,0,0.3,0,0.5,0c0.3,0,0.5,0,0.8,0c0.1,0,0.2,0,0.3,0s0.3,0,0.4,0
			c0.1,0,0.3,0,0.4,0l0,0c0.2,0,0.4,0,0.6,0c0.1,0,0.1,0,0.2,0c0,0,0,0,0.1,0l0,0h0.1c0.2,0,0.4-0.1,0.5-0.1l0,0
			c0.1,0,0.2-0.1,0.3-0.1h0.1c0.5-0.1,0.9-0.2,1.4-0.3c0.2,0,0.3-0.1,0.5-0.1c0.3-0.1,0.6-0.1,0.8-0.2c0.4-0.1,0.9-0.2,1.3-0.3h0.1
			l0,0c1.6-0.3,3.3-0.6,4.8-1.1c0.7-0.4,1.5-0.9,2.2-1.4c1.5-0.9,3.2-1.7,4.8-2.3c2.1-0.8,4.2-1.3,6.3-2.1c1.7-0.9,3.5-1.9,5.2-2.8
			c1.6-0.8,3.3-1.7,4.9-2.4c0.6-0.3,1.2-0.5,1.8-0.8c0.1-0.1,0.1-0.1,0.2-0.2c0.8-0.7,1.7-1.4,2.5-2.2c0.6-0.7,1.1-1.4,1.7-2.1
			c0.6-0.7,1.1-1.4,1.6-2.2c0.4-0.6,0.9-1,1.4-1.5c1-0.8,1.9-1.6,2.8-2.6c0.9-1,1.7-2.2,2.4-3.3c0.6-1,1.3-1.9,1.9-2.9
			c0.2-0.3,0.3-0.5,0.5-0.8c0.2-0.2,0.3-0.4,0.5-0.6c1.3-1.6,2.8-3,4.1-4.7c1-1.3,2-2.6,3-4c0.3-0.4,0.5-0.9,0.8-1.3l0,0
			c0-0.1,0.1-0.1,0.1-0.2c0.2-0.3,0.4-0.7,0.6-1c0.3-0.5,0.6-1,0.8-1.5l0,0c0.3-0.5,0.5-0.9,0.7-1.4l0.1-0.1l0,0
			c0.2-0.4,0.4-0.9,0.6-1.4l0,0c0.1-0.3,0.3-0.6,0.4-0.9c0.1-0.2,0.1-0.4,0.2-0.6c0-0.1,0.1-0.2,0.1-0.4l0,0c0.3-1.1,0.7-2.3,1-3.5
			v-0.1c0.1-0.3,0.2-0.6,0.3-1c0-0.1,0.1-0.2,0.1-0.4v-0.1c0.3-0.5,0.5-1,0.8-1.5c0.2-0.4,0.4-0.7,0.5-1.1c0.2-0.6,0.5-1.2,0.6-1.8
			c0.3-0.9,0.5-1.9,0.7-2.8c0.2-1,0.4-2,0.7-3c0.2-0.9,0.5-1.7,0.7-2.6s0.4-1.8,0.5-2.8c0.2-1.2,0.3-2.4,0.3-3.6
			c0-0.9,0.1-1.8,0.1-2.7c0-0.8,0-1.6,0-2.4C203.7,108.6,203.4,106.7,203.1,104.7z"/>
		<g>
			<path class="st0" d="M201.6,104.7c0,0.1,0,0.2,0,0.3c1,0,2,0,3,0c-0.1-0.9-0.2-1.7-0.3-2.6c-0.3-1.9-3.2-1.9-3,0
				c0,0.3,0.1,0.5,0.1,0.8c1,0,2,0,3,0c-0.1-0.4-0.1-0.9-0.2-1.3c-1,0-2,0-3,0v0.1c0.2,1.9,3.2,1.9,3,0c-0.8-7.3-1.3-14-3.5-21
				c-1-3.4-0.8-4.8-2.4-7.4c-0.8-1.3-2.6-0.7-2.8,0.8l0,0c0.9-0.3,1.9-0.5,2.8-0.8c-0.4-0.6-0.8-1.2-1.1-1.8
				c-0.7-1.3-2.8-0.7-2.8,0.8c0,0.2,0,0.5,0,0.7c0.9-0.3,1.9-0.5,2.8-0.8c-0.2-0.6-0.2-0.4-0.1,0.6c0.3-0.4,0.2-1.1,0-1.5
				c-1.3-2.4-3.7-4.9-5.3-7.1c-1.8-2.6-3.9-4.6-6.3-6.8c-0.7,0.7-1.4,1.4-2.1,2.1c0.1,0.1,0.3,0.2,0.4,0.4c0.7-0.7,1.4-1.4,2.1-2.1
				c-4.8-4.1-10.2-9.2-15.7-12.2c-0.5,0.9-1,1.7-1.5,2.6c0,0,0,0,0.1,0c0.5-0.9,1-1.7,1.5-2.6c-0.8-0.4-1.5-0.7-2.3-1.1
				c-1.7-0.8-3.3,1.8-1.5,2.6c0,0,0.1,0,0.1,0.1c0.5-0.9,1-1.7,1.5-2.6c-5.1-2.3-10.2-4.6-15.5-6.6c-2.5-0.9-4.9-2.2-7.5-2.8
				c-2.4-0.6-4.9-0.4-7.4-0.6c-5-0.4-13-1.5-19.2-1.5c-8,0-16.1,1.1-23.9,3.1c-6.9,1.8-14.4,4.4-20.3,8.6c-0.4,0.3-1.7,1.6-2,1.7
				c-0.3,0.1-0.7-0.3-1-0.2c-0.5,0.2-1.1,0.1-1.7,0.2c-2.7,0.8-4.2,3.2-6.2,4.9c-9.3,8.3-16.7,17.9-21,29.8c-3,8.3-3.6,16.3-4,25.1
				c-0.3,7.7,1.5,15.2,2.3,22.8c1,0,2,0,3,0c0-0.3-0.1-0.7-0.1-1c-0.2-1.9-3.2-1.9-3,0v0.1c1,0,2,0,3,0v-0.1c-1,0-2,0-3,0
				c0.4,2.8,1,5.3,2,7.9c0.7,1.8,3.6,1,2.9-0.8c0-0.1-0.1-0.2-0.1-0.3c-1,0.3-1.9,0.5-2.9,0.8c0,0.1,0.1,0.2,0.1,0.3
				c0.7,1.8,3.6,1,2.9-0.8l0,0c-1,0.3-1.9,0.5-2.9,0.8c2,5,3.9,9.9,6,14.8c1.1,2.6,2.8,6.1,4.7,8.1c0.7-0.7,1.4-1.4,2.1-2.1
				c-0.1-0.1-0.3-0.2-0.4-0.3c-1.5-1.2-3.6,0.8-2.1,2.1l0,0c0.7-0.7,1.4-1.4,2.1-2.1l0,0c-1-0.8-2.6-0.3-2.6,1.1
				c0,1.5,2.1,2.5,3,3.5c1.3,1.5,2.1,3.3,3,5c0.3,0.6,1.1,0.8,1.7,0.7l0,0c-0.6-0.2-1.1-0.5-1.7-0.7c5,8.8,16.3,15.5,25.1,19.7
				c5.2,2.5,11.1,5.1,16.8,5.9c3.2,0.5,6.7,0.2,9.9,0c-0.5-0.6-1-1.3-1.4-1.9l0,0c-0.3,0.9,0.5,2,1.4,1.9c7.4-0.4,15.1,0.2,22.5-0.7
				c0.8-0.1,1.6-0.5,2.3-0.6c0.2,0-1.1,0.3,0,0.5c-1-0.1-1.2,0.2-0.3,0c0.5-0.1,2.3-0.5,1.4-0.3c1.5-0.3,2.9-0.7,4.4-1
				c2.9-0.6,4.7-1.1,7.2-2.6c3.5-2,7.2-2.7,10.8-4.3c4.7-2,11-4.5,14.7-8.1c2-1.9,3.4-4.4,5.3-6.3c1.7-1.7,3.3-3.1,4.7-5.1
				c3.7-5.2,8.3-9.9,11.5-15.4c-0.8,0.1-1.6,0.2-2.4,0.3l0,0c0.6,0.7,1.9,0.5,2.4-0.3c0.8-1.4,1.6-2.9,2.3-4.3
				c0.3-0.6,0.2-1.3-0.2-1.8l0,0c0.1,0.6,0.2,1.2,0.2,1.8c0.2-0.5,0.4-0.9,0.6-1.4c-0.9-0.3-1.9-0.5-2.8-0.8l0,0
				c0,1.4,2.2,2.2,2.8,0.8s0.7-3.1,0.9-3.9c0.7-2.6,2.7-5.6,3.5-8.5c2.4-8.5,3.5-16.5,2.3-25.4C204.4,102.8,201.4,102.8,201.6,104.7
				c1.1,8.5,0.2,16.4-2.2,24.6c-0.7,2.3-1.9,4.3-2.6,6.6c-0.4,1.4-0.6,2.9-1,4.3c0.1,0.3,0.2,0.5,0.4,0.7c-0.4-1.5-0.7-1.5-0.9,0.1
				c0.9,0.3,1.9,0.5,2.8,0.8l0,0c0-1.4-2.1-2.2-2.8-0.8c-0.2,0.5-0.4,0.9-0.6,1.4c-0.3,0.6-0.3,1.3,0.2,1.8l0,0
				c-0.1-0.6-0.2-1.2-0.2-1.8c-0.8,1.5-1.5,2.9-2.3,4.3c0.8-0.1,1.6-0.2,2.4-0.3l0,0c-0.6-0.7-1.9-0.5-2.4,0.3
				c-3,5.1-7.4,9.3-10.8,14.2c-1.6,2.3-3.4,4-5.4,5.9c-1.6,1.7-2.7,3.7-4.3,5.4c-2.5,2.6-5.9,3.7-9.1,5.3c-3.2,1.6-6.2,3.1-9.6,4.2
				c-4.7,1.6-10.2,4.7-14.2,5.5c-1.1,0.2-2.8,0.4-3.8,0.9c-1.7,0.9,1.6-0.1-0.2,0.1c-0.4,0.1-1.3,0.5-1.9,0.5
				c-0.9,0.1,1.4-0.3,0.5-0.4c-0.5,0-1,0.1-1.5,0c-1.9-0.3-4.2,0.1-6.2,0.2c-5.1,0.1-10.3,0.2-15.4,0.5c0.5,0.6,1,1.3,1.4,1.9l0,0
				c0.3-0.9-0.5-1.9-1.4-1.9c-2.5,0.1-7,0.4-8.7,0.2c-5.2-0.6-11-3.2-15.7-5.3c-8.7-4-20-10.4-24.9-19c-0.3-0.6-1-0.8-1.7-0.7l0,0
				c0.6,0.2,1.1,0.5,1.7,0.7c-0.7-1.2-1.3-2.5-2-3.7c-0.3-0.5-3.6-4.1-3.6-3.3c-0.9,0.4-1.7,0.7-2.6,1.1l0,0
				c1.5,1.2,3.6-0.8,2.1-2.1l0,0c-0.7,0.7-1.4,1.4-2.1,2.1c0.1,0.1,0.3,0.2,0.4,0.3c1.5,1.2,3.5-0.7,2.1-2.1c-1.9-2-3.5-5.9-4.6-8.5
				c-1.9-4.3-3.7-8.6-5.4-13.1c-0.7-1.8-3.6-1-2.9,0.8l0,0c1-0.3,1.9-0.5,2.9-0.8c0-0.1-0.1-0.2-0.1-0.3c-0.7-1.8-3.6-1-2.9,0.8
				c0,0.1,0.1,0.2,0.1,0.3c1-0.3,1.9-0.5,2.9-0.8c-0.9-2.3-1.6-4.6-1.9-7.1c-0.2-1.9-3.2-1.9-3,0v0.1c0.2,1.9,3.2,1.9,3,0v-0.1
				c-1,0-2,0-3,0c0,0.3,0.1,0.7,0.1,1c0.2,1.9,3.2,1.9,3,0c-0.9-7.6-2.6-15.1-2.3-22.8c0.4-10.2,1.6-19.5,6-28.9
				c3.3-7,7-13,12.6-18.2c2.3-2.2,4.5-4.5,6.9-6.7c1.8-1.6,2.4-2.4,4.7-3.1c0.3-0.1,0.8,0.1,1.2,0c1.5-0.5,3.2-2.1,4.6-2.9
				c2-1.2,4-2.2,6.1-3.2c4.7-2.2,9.6-3.7,14.6-4.8c9.8-2.2,19.7-2.7,29.7-2c3,0.2,7.7,0.9,10,1.1c3,0.2,5.8,0.1,8.7,1.2
				c6.9,2.5,13.6,5.4,20.2,8.4c1.7,0.8,3.3-1.8,1.5-2.6c0,0-0.1,0-0.1-0.1c-0.5,0.9-1,1.7-1.5,2.6c0.8,0.4,1.5,0.7,2.3,1.1
				c1.7,0.8,3.3-1.8,1.5-2.6c0,0,0,0-0.1,0c-1.7-0.8-3.2,1.7-1.5,2.6c5.3,2.8,10.5,7.8,15.1,11.7c1.5,1.2,3.6-0.9,2.1-2.1
				c-0.1-0.1-0.3-0.2-0.4-0.4c-1.5-1.2-3.6,0.8-2.1,2.1c2.3,2,4.3,4.1,6,6.5c0.9,1.3,1.8,2.6,2.8,3.8c0.8,1.1,1.2,3,2.1,1.7
				c-0.3,0.4-0.2,1.1,0,1.5c0.1,0.2,0.2,0.4,0.3,0.6c0.7,1.4,2.8,0.6,2.8-0.8c0-0.2,0-0.5,0-0.7c-0.9,0.3-1.9,0.5-2.8,0.8
				c0.3,0.6,0.7,1.2,1.1,1.8c0.9,1.3,2.6,0.7,2.8-0.8l0,0c-0.9,0.3-1.9,0.5-2.8,0.8c1.1,1.8,1.5,4.7,2.1,6.7
				c2.1,6.7,2.6,13.3,3.4,20.2c1,0,2,0,3,0v-0.1c-0.2-1.9-3.2-1.9-3,0c0.1,0.4,0.1,0.9,0.2,1.3c0.2,1.9,3.2,1.9,3,0
				c0-0.3-0.1-0.5-0.1-0.8c-1,0-2,0-3,0c0.1,0.9,0.2,1.7,0.3,2.6c0.2,1.9,3.2,1.9,3,0c0-0.1,0-0.2,0-0.3
				C204.4,102.8,201.4,102.8,201.6,104.7z"/>
		</g>
	</g>
	<g>
		<path class="st1" d="M230.5,138.4c0.6-1,1.3-2.1,1.8-3.1c-0.2-0.1-0.3-0.3-0.4-0.4c0.1-0.2,0.1-0.3,0.2-0.5
			c0.8-1.5,1.4-3.2,1.8-4.9c0.6-1.8,1.1-3.5,1.5-5.4c0.1-0.7,0.2-1.3,0.3-2c0.2-1.2,0.1-2.4,0-3.6c-0.1-1.6-0.3-3.1-0.7-4.6
			c-0.1-0.5-0.2-1-0.4-1.5c0-0.1,0-0.2,0-0.4c0.1-0.6,0-1.1,0-1.6c0.1,0.1,0.3,0.1,0.4,0.2c0-0.1-0.1-0.2-0.1-0.3
			c-0.1-0.2-0.1-0.3-0.3-0.5l0,0l0,0l0,0c-0.3-0.5-0.5-0.9-0.6-1.3l0,0c-0.3-1-0.7-2-0.8-3.1c-0.1-0.6-0.2-1.1-0.1-1.7
			c-0.9-1.9-2-3.6-3.4-5.1c-1.3-1.4-2.8-2.8-4.4-4c0,0,0,0-0.1-0.1c-0.9-0.7-1.8-1.2-2.7-1.7c-0.2-0.1-0.3-0.2-0.5-0.4
			c-0.3-0.4-0.7-0.8-1.2-1.1c-0.8-0.9-1.8-1.7-2.7-2.5c-0.1-0.1-0.2-0.2-0.3-0.2c-0.6-0.4-1.2-0.9-1.8-1.2c-1.8-1.2-3.8-2.3-5.8-3.3
			c-1.5-0.7-3-1.2-4.5-1.7c-3.9-1.3-8.2-1.8-12.1-0.8c-1.2,0.3-2.5,0.7-3.7,1.1c-0.8,0.3-1.8,0.6-2.7,0.9c-1.6,0.6-3.1,1.2-4.6,1.9
			c-1.7,0.8-3.4,1.9-5,2.9c-1.2,0.8-2.4,1.8-3.6,2.8c-1.6,1.4-3.1,3.1-4.7,4.7c-1.1,1.2-2,2.6-3,3.9c-1.5,2-2.9,4.2-4,6.5
			c-0.8,1.8-1.3,3.8-1.6,5.6c-0.4,1.7-0.5,3.5-0.6,5.2l0,0c0,0.1,0.1,0.3,0.2,0.4c0.9,1.9,1.5,3.7,2,5.7c0.1,0.6,0.2,1,0.3,1.7
			c0.1,0.6,0.2,1.1,0.3,1.7c0.1,0.9,0.1,1.8,0.1,2.8c-0.1,0.1,0,0.1,0,0.2c0,0.2,0,0.5-0.1,0.8c-0.1,0.1,0,0.1,0,0.2
			c0,0.1,0,0.2,0,0.4h0.1c0.1,0.3,0.2,0.7,0.4,1c-0.1-0.1,0-0.1-0.1-0.2c0.3,0.8,0.5,1.6,0.8,2.3c0.3,0.9,0.8,1.7,1.2,2.5
			c1,1.8,2.1,3.7,3.6,5.2c2.6,3,6,5.3,9.5,7.3c1.9,1.1,3.8,2.3,5.8,3.1c1.4,0.6,2.9,0.9,4.4,1.3c1.6,0.4,3.1,0.9,4.6,1.2
			c2.1,0.5,4.1,0.9,6.1,1.1c1.2,0.1,2.4,0.1,3.5,0c0.8,0,1.6-0.2,2.4-0.2c2.1-0.3,4.1-1.1,6.1-1.9c3.4-1.4,6.5-3.3,9.2-5.5
			c3.1-2.5,5.8-5.3,8.2-8.5c0.5-0.6,0.9-1.3,1.3-2C230.3,138.3,230.5,138.4,230.5,138.4z"/>
		<g>
			<path class="st0" d="M231.8,139.3c0.6-1,1.3-2.1,1.8-3.1c0.5-0.8,0.3-1.5-0.3-2.1c-0.2-0.1-0.3-0.3-0.4-0.4
				c0.2,0.6,0.4,1.2,0.5,1.7c1.9-3.7,3.2-7.9,3.7-12c0.6-4.4-0.8-8.4-0.7-12.7c-0.7,0.4-1.4,0.9-2,1.2c0.1,0.1,0.3,0.1,0.4,0.2
				c1.3,0.3,2.4-0.7,1.9-1.9c-1.4-3.2-1.7-7-3.7-9.9c-2.9-4.3-7.2-6.5-11-9.9c-8.1-7.3-19.8-12.6-30.8-9.3
				c-12.2,3.7-21.9,11.1-28.5,22.1c-2.3,4-4.5,10.2-3.7,14.9c0.2,1.3,1.6,3.5,2.1,5.8c0.6,2.4,0.6,4.9,0.5,7.3c-0.1,1.2,1,2,2.1,1.5
				h0.1c-0.7-0.3-1.4-0.5-2-0.8c0.1,0.3,0.2,0.7,0.4,1c0.5,1.6,3.3,0.8,2.9-0.9c-0.1-0.1,0-0.1-0.1-0.2c-1,0.3-1.9,0.6-2.9,0.9
				c4.4,14.3,18.9,21.6,32.5,24.5c14.7,3.2,29.2-5.6,36.7-18c-0.8,0-1.6,0-2.4,0c0.2,0.1,0.2,0.3,0.3,0.4c1.4,1.4,3.7-0.5,2.4-1.9
				c-0.2-0.1-0.2-0.3-0.3-0.4c-0.7-0.6-1.8-0.9-2.4,0c-7,11.5-20.4,19.7-34,16.7c-12.6-2.8-26-9.5-30.1-22.7
				c-0.5-1.6-3.3-0.8-2.9,0.9c0.1,0.1,0,0.1,0.1,0.2c1-0.3,1.9-0.6,2.9-0.9c-0.1-0.3-0.2-0.7-0.4-1c-0.3-0.8-1.3-1.1-2-0.8h-0.1
				c0.7,0.5,1.4,1,2.1,1.5c0.3-3.3,0-6.6-0.9-9.7c-0.5-1.6-1.6-3.4-1.9-5c-0.2-1,0.9-5.1,1.4-6.8c3.2-11.5,14.7-21,25.6-24.9
				c12.9-4.6,22.6,0.7,32.5,8.6c3.3,2.7,7.3,4.6,9.5,8.5c1.4,2.4,1.5,5.3,2.6,7.8c0.6,1.3,0.1-0.1,0.7,1.5c0.6-0.7,1.2-1.3,1.9-1.9
				c-0.1-0.1-0.3-0.1-0.4-0.2c-0.8-0.2-2,0.2-2,1.2c-0.1,4,1.2,7.7,0.8,11.8c-0.4,4.1-1.9,8.5-3.8,12.2c-0.3,0.6,0.1,1.3,0.5,1.7
				c0.2,0.1,0.3,0.3,0.4,0.4c-0.1-0.7-0.2-1.4-0.3-2.1c-0.5,1.1-1.2,2.1-1.8,3.1C228.4,139.2,230.8,141,231.8,139.3z"/>
		</g>
	</g>
</g>
<g>
	<g>
		<path class="st0" d="M276.6,163.4c1.4,0.9,3,1.5,4.5,2.2c1.3,0.6,2.6,1.3,3.8,2.2c0.8,0.6,1.5,1.2,2.2,1.9s1.3,1.4,1.9,2.2
			c0.3,0.4,0.6,0.8,1,1.2c0.3,0.4,0.6,0.7,1,1.1c0.6,0.7,1.2,1.4,1.8,2.1c1.1,1.5,2.2,3.1,3.2,4.8c0.5,0.9,0.9,1.7,1.4,2.6
			c0.4,0.7,0.7,1.4,1.1,2.1c0.3,0.9,0.6,1.8,0.8,2.7c0.1,0.9,0.1,1.9,0.2,2.8c0.1,1.9,0.2,3.8,0.5,5.6c0.2,0.8,0.3,1.7,0.6,2.5
			c0.2,0.6,0.4,1.2,0.8,1.7c0.1,0.2,0.2,0.3,0.3,0.5c0.3,0.3,0.6,0.8,0.9,1.1c0.3,0.2,0.6,0.5,0.9,0.7s0.7,0.3,1,0.4
			c0.3,0.1,0.6,0.1,0.9,0.1s0.6-0.1,0.9-0.1c0.4-0.1,0.7-0.2,1.1-0.5c0.7-0.5,1.3-1,1.7-1.7c0.4-0.7,0.7-1.5,0.8-2.3
			c0.2-1,0.3-2,0.2-3c0-0.9-0.1-1.7-0.2-2.6c-0.1-1-0.3-2.1-0.5-3.1c-0.4-1.7-0.8-3.4-1.2-5.1c-0.4-1.6-0.7-3.2-1.1-4.8
			c-0.4-1.7-0.8-3.3-1.5-4.9c-0.2-0.6-0.5-1.1-0.8-1.6c-0.2-0.4-0.5-0.8-0.7-1.1c-0.5-0.7-1.1-1.4-1.6-2.2c-0.6-0.8-1.2-1.6-1.9-2.3
			c-0.6-0.6-1.2-1.2-1.8-1.8c-1.3-1.3-2.6-2.6-4-3.7c-0.7-0.6-1.5-1.2-2.2-1.6c-0.2-0.1-0.4-0.2-0.7-0.4l-0.1-0.1
			c-0.6-0.6-1.3-1.3-1.9-1.9c-1.1-1-2.2-2-3.6-2.6c-0.5-0.2-0.9-0.5-1.4-0.7s-1-0.5-1.6-0.6c-1-0.3-1.9-0.5-2.9-0.6
			c-0.1,0-0.2,0-0.3,0c-0.3,0-0.5,0-0.8,0.1c-0.4,0-0.9,0.1-1.2,0.2c-0.2,0-0.3,0.1-0.5,0.2c-0.2,0.1-0.7,0.2-0.9,0.4
			c-0.3,0.2-0.5,0.4-0.8,0.6c-0.1,0.1-0.3,0.2-0.4,0.4c-0.2,0.3-0.5,0.6-0.7,0.9c-0.2,0.3-0.3,0.7-0.4,1s-0.1,0.8-0.1,1.1
			C274.3,161.2,275.3,162.6,276.6,163.4z"/>
		<g>
			<path class="st0" d="M275.9,164.7c4,2.2,7.9,3.6,11.1,7.1c2.5,2.7,5,5.6,6.9,8.7c2.6,4.2,3.6,7.8,4,12.7c0.2,2.6,0.4,5.5,1.6,7.9
				c1.7,3.4,5.3,5.7,8.8,3.3c4.9-3.3,3.1-11.1,2.1-15.8c-1.6-7.3-2.9-13.9-7.8-19.8c-2.3-2.7-4.9-5.5-7.8-7.5
				c-2.2-1.6-4.1-3.7-6.4-5.2c-3.7-2.4-9.4-4.4-13.2-1.3c-3.4,2.7-2.6,7.1,0.5,9.6c1.5,1.2,3.6-0.9,2.1-2.1
				c-3.4-2.6-0.6-6.2,2.6-6.1c3.3,0.1,6.6,2.4,8.9,4.5c2.9,2.7,6.1,4.8,8.9,7.6c4.2,4.3,6.4,8.6,7.8,14.4c1.1,4.6,4.3,12.4,1.8,16.9
				c0,1.8-0.8,2.4-2.5,1.9c-1.1,0.5-1.8,0.3-2.3-0.6c-0.9-0.8-1.2-2.1-1.5-3.2c-0.7-2.8-0.6-5.8-0.9-8.6c-0.4-3.7-2.3-7.1-4.2-10.2
				c-2.1-3.4-4.7-6.4-7.4-9.3c-3.4-3.7-7.4-5.2-11.7-7.6C275.7,161.2,274.2,163.8,275.9,164.7z"/>
		</g>
	</g>
	<g>
		<path class="st0" d="M245.4,159.6c0.1-0.3,0.3-0.5,0.6-0.7c0.2-0.2,0.4-0.4,0.7-0.5c1.2-0.6,2.6-0.8,4-0.8c0.8,0,1.6,0.2,2.4,0.3
			c0.5,0.1,0.9,0.2,1.4,0.3c0.8,0.2,1.6,0.5,2.4,0.7c1,0.3,2,0.7,2.9,1.2s1.8,1.1,2.6,1.8c0.6,0.5,1.2,1.1,1.8,1.7
			c0.6,0.6,1.2,1.2,1.8,1.8c1.2,1.2,2.5,2.3,3.7,3.5c1.2,1.1,2.4,2.2,3.5,3.6c0.4,0.5,0.7,1,1.1,1.5c0.2,0.4,0.5,0.7,0.7,1.1
			c0.5,0.9,0.9,1.8,1.3,2.8c0.5,1.4,0.9,2.9,1.3,4.4c0.2,0.8,0.4,1.6,0.6,2.5c0.2,0.8,0.3,1.6,0.4,2.5c0.2,1,0.4,2,0.5,3
			c0.2,1.7,0.2,3.4,0.3,5.1c0,0.8,0,1.6-0.1,2.4c-0.1,0.6-0.1,1.2-0.2,1.7c-0.1,0.3-0.1,0.5-0.2,0.8c-0.1,0.4-0.3,0.7-0.5,1
			s-0.4,0.5-0.6,0.8c-0.2,0.2-0.5,0.4-0.7,0.6c-0.4,0.2-0.7,0.4-1.1,0.5s-0.8,0.1-1.2,0.1c-0.4,0-0.8-0.1-1.2-0.2
			c-0.4-0.1-0.7-0.3-1.1-0.5c-0.7-0.4-1.3-1-1.8-1.7c-0.4-0.6-0.7-1.2-0.9-1.8c-0.3-0.7-0.3-1.5-0.4-2.2c-0.1-0.4-0.1-0.8-0.1-1.2
			c0-0.8,0.1-1.6,0.1-2.4c0.1-0.8,0.1-1.7,0.1-2.5s-0.1-1.5-0.1-2.3c-0.2-1-0.4-1.9-0.6-2.9c-0.3-1-0.6-2-1-2.9
			c-0.6-1.3-1.3-2.5-2-3.7s-1.4-2.3-2.3-3.4c-0.1-0.1-0.1-0.2-0.2-0.3c-0.6-0.7-1.2-1.4-1.8-2.1c-0.6-0.7-1.2-1.3-1.8-1.9
			c-1-0.7-2.1-1.2-3.2-1.7c-0.7-0.3-1.4-0.5-2.1-0.8c-0.8-0.3-1.6-0.6-2.4-0.9c-0.9-0.4-1.8-0.7-2.7-1.2c-0.9-0.4-1.7-1.1-2.4-1.7
			c-0.5-0.4-1-1-1.4-1.6c-0.2-0.3-0.3-0.7-0.4-1c-0.1-0.5-0.2-1.1,0-1.6C245,160.3,245.1,159.9,245.4,159.6z"/>
		<g>
			<path class="st0" d="M246.4,160.7c3.6-4.2,12.6,0.2,15.7,3c3.6,3.2,8.1,6.8,10.8,10.9c2.4,3.7,3.4,8.5,4.1,12.9
				c0.5,2.9,0.8,6,0.6,8.9c-0.1,1.2-0.2,3.7-1.2,4.5c-1.2,0.1-2.4,0.1-3.5,0.2c-1.3-0.9-2-2.1-2.1-3.5c-0.8-3.4,0.3-7-0.3-10.5
				c-0.7-4-2.4-7.5-4.7-10.8c-1.7-2.6-3.8-5.3-6.4-7c-2.6-1.6-14.8-4.4-12.7-8.9c0.8-1.7-1.8-3.3-2.6-1.5c-2.3,4.8,2,7.8,5.9,9.6
				c3.7,1.7,7.3,2.4,10.2,5.4c2.2,2.3,4.1,5.1,5.4,7.9c2,4.1,2.1,7.9,1.9,12.3c-0.1,2.2,0,4.4,1,6.3c1.7,3.4,6.3,5.5,9.6,2.7
				c3.8-3.2,2.5-11,1.9-15.2c-0.8-6.2-2.3-12.7-6.5-17.5c-4-4.5-9.3-10.3-15-12.7c-4.2-1.8-10.9-3.4-14.3,0.6
				C243,160,245.2,162.2,246.4,160.7z"/>
		</g>
	</g>
	<g>
		<path class="st0" d="M216,162.6c0.1-0.3,0.2-0.7,0.4-1c0.2-0.4,0.7-0.9,1.1-1.1c0.4-0.2,0.8-0.3,1.2-0.5c0.3-0.1,0.5-0.1,0.8-0.2
			c0.5-0.1,0.9-0.1,1.4-0.1h0.1c0.6,0,1.2,0.1,1.8,0.2c0.6,0.1,1.3,0.3,1.9,0.5c0.8,0.3,1.6,0.7,2.4,1.1c0.6,0.3,1.1,0.7,1.7,1.1
			c0.5,0.4,1,0.7,1.5,1.1c0.7,0.6,1.4,1.2,2,1.8c1.3,1.3,2.5,2.7,3.5,4.2c1,1.4,1.8,2.9,2.7,4.4c0.9,1.6,1.8,3.3,2.5,5
			c0.6,1.5,1,3.2,1.4,4.8s0.9,3.2,1.2,4.8c0.2,1,0.3,2.1,0.4,3.2c0.1,0.8,0.1,1.6,0.1,2.5c0,0.5-0.1,1.1-0.1,1.6c0,0.1,0,0.2,0,0.2
			c0.2,1,0.3,2.1,0.3,3.1s-0.2,2.1-0.4,3.1c-0.1,0.7-0.4,1.5-0.7,2.2c-0.2,0.5-0.4,1-0.7,1.5s-0.6,0.9-1,1.3
			c-0.2,0.3-0.5,0.6-0.8,0.9c-1.1,1-2.6,1.4-4.1,1.4c-1.3,0-2.7-0.6-3.6-1.6c-0.4-0.4-0.7-0.9-1-1.3c-0.2-0.4-0.4-0.9-0.6-1.4
			c-0.1-0.4-0.2-0.9-0.2-1.4c0-0.3,0-0.6,0-0.9c0-0.4,0.1-0.7,0.2-1c0.2-0.5,0.4-1.1,0.7-1.6c0.3-0.7,0.8-1.3,1.1-1.9
			c0.1-0.3,0.2-0.6,0.2-0.9c0.2-1.9,0.1-3.7-0.1-5.6c-0.2-1-0.4-2-0.6-3.1c-0.3-1.1-0.5-2.2-0.8-3.3c-0.2-1.1-0.4-2.3-0.7-3.4
			c-0.2-1-0.6-1.9-0.9-2.9c-0.2-0.6-0.5-1.1-0.8-1.6s-0.7-1-1-1.5c-0.7-0.9-1.5-1.8-2.3-2.6c-0.4-0.5-1-0.9-1.5-1.3
			c-0.5-0.4-0.9-0.8-1.4-1.1c-0.2-0.2-0.5-0.4-0.7-0.5c0.1,0.1,0.2,0.2,0.3,0.3c-0.8-0.7-1.7-1.3-2.5-2c-0.2-0.1-0.4-0.1-0.6-0.2
			c-0.8-0.2-1.4-0.8-1.6-1.6c-0.4-0.3-0.8-0.6-1.1-1c-0.1-0.1-0.2-0.3-0.4-0.4c-0.2-0.3-0.4-0.5-0.6-0.8c-0.2-0.3-0.3-0.7-0.5-1
			C215.9,163.7,215.9,163,216,162.6z"/>
		<g>
			<path class="st0" d="M217.5,163c1.7-4.1,8.4-0.5,10.5,1.1c4.4,3.2,7.6,7.8,10.1,12.6c2.4,4.6,4,10.3,4.5,15.4
				c0.3,3.2,0.7,7.7-0.1,10.7c-0.2,1-0.6,1.9-1.1,2.8c-6.2,2.4-8.9,1.4-8.1-2.9c0.4-1.6,1.6-2.8,2-4.4c0.8-3.6-0.3-7.6-1.1-11.1
				c-1.7-7.8-4-12.6-10.4-17.6c-0.5,0.9-1,1.7-1.5,2.6c0.1,0.1,0.2,0.2,0.3,0.3c1.3,1,3.2-1.3,1.8-2.4c-2.1-1.6-7.2-4.3-6.9-7.5
				c0.2-1.9-2.8-1.9-3,0c-0.5,4.7,4.7,7.2,7.7,9.6c0.6-0.8,1.2-1.6,1.8-2.4c-0.1-0.1-0.2-0.2-0.3-0.3c-1.5-1.2-3,1.4-1.5,2.6
				c6.8,5.2,9.9,13.5,10.2,22c0.2,4.9-3.9,8.8-1.3,13.6c2,3.7,6.6,4.8,10,2.5c4-2.6,4.8-7.9,4.7-12.3c-0.3-12-3.7-24.5-12.5-33.3
				c-4.1-4.1-15.2-10.9-18.7-2.5C213.8,163.9,216.7,164.7,217.5,163z"/>
		</g>
	</g>
</g>
<g>
	<g>
		<path class="st1" d="M276.8,153.4c1.4,0.9,3,1.5,4.5,2.2c1.3,0.6,2.6,1.3,3.8,2.2c0.8,0.6,1.5,1.2,2.2,1.9s1.3,1.4,1.9,2.2
			c0.3,0.4,0.6,0.8,1,1.2c0.3,0.4,0.6,0.7,1,1.1c0.6,0.7,1.2,1.4,1.8,2.1c1.1,1.5,2.2,3.1,3.2,4.8c0.5,0.9,0.9,1.7,1.4,2.6
			c0.4,0.7,0.7,1.4,1.1,2.1c0.3,0.9,0.6,1.8,0.8,2.7c0.1,0.9,0.1,1.9,0.2,2.8c0.1,1.9,0.2,3.8,0.5,5.6c0.2,0.8,0.3,1.7,0.6,2.5
			c0.2,0.6,0.4,1.2,0.8,1.7c0.1,0.2,0.2,0.3,0.3,0.5c0.3,0.3,0.6,0.8,0.9,1.1c0.3,0.2,0.6,0.5,0.9,0.7s0.7,0.3,1,0.4
			c0.3,0.1,0.6,0.1,0.9,0.1s0.6-0.1,0.9-0.1c0.4-0.1,0.7-0.2,1.1-0.5c0.7-0.5,1.3-1,1.7-1.7c0.4-0.7,0.7-1.5,0.8-2.3
			c0.2-1,0.3-2,0.2-3c0-0.9-0.1-1.7-0.2-2.6c-0.1-1-0.3-2.1-0.5-3.1c-0.4-1.7-0.8-3.4-1.2-5.1c-0.4-1.6-0.7-3.2-1.1-4.8
			c-0.4-1.7-0.8-3.3-1.5-4.9c-0.2-0.6-0.5-1.1-0.8-1.6c-0.2-0.4-0.5-0.8-0.7-1.1c-0.5-0.7-1.1-1.4-1.6-2.2c-0.6-0.8-1.2-1.6-1.9-2.3
			c-0.6-0.6-1.2-1.2-1.8-1.8c-1.3-1.3-2.6-2.6-4-3.7c-0.7-0.6-1.5-1.2-2.2-1.6c-0.2-0.1-0.4-0.2-0.7-0.4L292,151
			c-0.6-0.6-1.3-1.3-1.9-1.9c-1.1-1-2.2-2-3.6-2.6c-0.5-0.2-0.9-0.5-1.4-0.7s-1-0.5-1.6-0.6c-1-0.3-1.9-0.5-2.9-0.6
			c-0.1,0-0.2,0-0.3,0c-0.3,0-0.5,0-0.8,0.1c-0.4,0-0.9,0.1-1.2,0.2c-0.2,0-0.3,0.1-0.5,0.2c-0.2,0.1-0.7,0.2-0.9,0.4
			c-0.3,0.2-0.5,0.4-0.8,0.6c-0.1,0.1-0.3,0.2-0.4,0.4c-0.2,0.3-0.5,0.6-0.7,0.9c-0.2,0.3-0.3,0.7-0.4,1s-0.1,0.8-0.1,1.1
			C274.5,151.2,275.5,152.6,276.8,153.4z"/>
		<g>
			<path class="st0" d="M276.1,154.7c4,2.2,7.9,3.6,11.1,7.1c2.5,2.7,5,5.6,6.9,8.7c2.6,4.2,3.6,7.8,4,12.7c0.2,2.6,0.4,5.5,1.6,7.9
				c1.7,3.4,5.3,5.7,8.8,3.3c4.9-3.3,3.1-11.1,2.1-15.8c-1.6-7.3-2.9-13.9-7.8-19.8c-2.3-2.7-4.9-5.5-7.8-7.5
				c-2.2-1.6-4.1-3.7-6.4-5.2c-3.7-2.4-9.4-4.4-13.2-1.3c-3.4,2.7-2.6,7.1,0.5,9.6c1.5,1.2,3.6-0.9,2.1-2.1
				c-3.4-2.6-0.6-6.2,2.6-6.1c3.3,0.1,6.6,2.4,8.9,4.5c2.9,2.7,6.1,4.8,8.9,7.6c4.2,4.3,6.4,8.6,7.8,14.4c1.1,4.6,4.3,12.4,1.8,16.9
				c0,1.8-0.8,2.4-2.5,1.9c-1.1,0.5-1.8,0.3-2.3-0.6c-0.9-0.8-1.2-2.1-1.5-3.2c-0.7-2.8-0.6-5.8-0.9-8.6c-0.4-3.7-2.3-7.1-4.2-10.2
				c-2.1-3.4-4.7-6.4-7.4-9.3c-3.4-3.7-7.4-5.2-11.7-7.6C275.9,151.2,274.4,153.8,276.1,154.7z"/>
		</g>
	</g>
	<g>
		<path class="st1" d="M245.6,149.6c0.1-0.3,0.3-0.5,0.6-0.7c0.2-0.2,0.4-0.4,0.7-0.5c1.2-0.6,2.6-0.8,4-0.8c0.8,0,1.6,0.2,2.4,0.3
			c0.5,0.1,0.9,0.2,1.4,0.3c0.8,0.2,1.6,0.5,2.4,0.7c1,0.3,2,0.7,2.9,1.2s1.8,1.1,2.6,1.8c0.6,0.5,1.2,1.1,1.8,1.7
			c0.6,0.6,1.2,1.2,1.8,1.8c1.2,1.2,2.5,2.3,3.7,3.5c1.2,1.1,2.4,2.2,3.5,3.6c0.4,0.5,0.7,1,1.1,1.5c0.2,0.4,0.5,0.7,0.7,1.1
			c0.5,0.9,0.9,1.8,1.3,2.8c0.5,1.4,0.9,2.9,1.3,4.4c0.2,0.8,0.4,1.6,0.6,2.5c0.2,0.8,0.3,1.6,0.4,2.5c0.2,1,0.4,2,0.5,3
			c0.2,1.7,0.2,3.4,0.3,5.1c0,0.8,0,1.6-0.1,2.4c-0.1,0.6-0.1,1.2-0.2,1.7c-0.1,0.3-0.1,0.5-0.2,0.8c-0.1,0.4-0.3,0.7-0.5,1
			s-0.4,0.5-0.6,0.8c-0.2,0.2-0.5,0.4-0.7,0.6c-0.4,0.2-0.7,0.4-1.1,0.5s-0.8,0.1-1.2,0.1c-0.4,0-0.8-0.1-1.2-0.2
			c-0.4-0.1-0.7-0.3-1.1-0.5c-0.7-0.4-1.3-1-1.8-1.7c-0.4-0.6-0.7-1.2-0.9-1.8c-0.3-0.7-0.3-1.5-0.4-2.2c-0.1-0.4-0.1-0.8-0.1-1.2
			c0-0.8,0.1-1.6,0.1-2.4c0.1-0.8,0.1-1.7,0.1-2.5s-0.1-1.5-0.1-2.3c-0.2-1-0.4-1.9-0.6-2.9c-0.3-1-0.6-2-1-2.9
			c-0.6-1.3-1.3-2.5-2-3.7s-1.4-2.3-2.3-3.4c-0.1-0.1-0.1-0.2-0.2-0.3c-0.6-0.7-1.2-1.4-1.8-2.1c-0.6-0.7-1.2-1.3-1.8-1.9
			c-1-0.7-2.1-1.2-3.2-1.7c-0.7-0.3-1.4-0.5-2.1-0.8c-0.8-0.3-1.6-0.6-2.4-0.9c-0.9-0.4-1.8-0.7-2.7-1.2c-0.9-0.4-1.7-1.1-2.4-1.7
			c-0.5-0.4-1-1-1.4-1.6c-0.2-0.3-0.3-0.7-0.4-1c-0.1-0.5-0.2-1.1,0-1.6C245.2,150.3,245.3,149.9,245.6,149.6z"/>
		<g>
			<path class="st0" d="M246.6,150.7c3.6-4.2,12.6,0.2,15.7,3c3.6,3.2,8.1,6.8,10.8,10.9c2.4,3.7,3.4,8.5,4.1,12.9
				c0.5,2.9,0.8,6,0.6,8.9c-0.1,1.2-0.2,3.7-1.2,4.5c-1.2,0.1-2.4,0.1-3.5,0.2c-1.3-0.9-2-2.1-2.1-3.5c-0.8-3.4,0.3-7-0.3-10.5
				c-0.7-4-2.4-7.5-4.7-10.8c-1.7-2.6-3.8-5.3-6.4-7c-2.6-1.6-14.8-4.4-12.7-8.9c0.8-1.7-1.8-3.3-2.6-1.5c-2.3,4.8,2,7.8,5.9,9.6
				c3.7,1.7,7.3,2.4,10.2,5.4c2.2,2.3,4.1,5.1,5.4,7.9c2,4.1,2.1,7.9,1.9,12.3c-0.1,2.2,0,4.4,1,6.3c1.7,3.4,6.3,5.5,9.6,2.7
				c3.8-3.2,2.5-11,1.9-15.2c-0.8-6.2-2.3-12.7-6.5-17.5c-4-4.5-9.3-10.3-15-12.7c-4.2-1.8-10.9-3.4-14.3,0.6
				C243.2,150,245.4,152.2,246.6,150.7z"/>
		</g>
	</g>
	<g>
		<path class="st1" d="M216.2,152.6c0.1-0.3,0.2-0.7,0.4-1c0.2-0.4,0.7-0.9,1.1-1.1c0.4-0.2,0.8-0.3,1.2-0.5
			c0.3-0.1,0.5-0.1,0.8-0.2c0.5-0.1,0.9-0.1,1.4-0.1h0.1c0.6,0,1.2,0.1,1.8,0.2c0.6,0.1,1.3,0.3,1.9,0.5c0.8,0.3,1.6,0.7,2.4,1.1
			c0.6,0.3,1.1,0.7,1.7,1.1c0.5,0.4,1,0.7,1.5,1.1c0.7,0.6,1.4,1.2,2,1.8c1.3,1.3,2.5,2.7,3.5,4.2c1,1.4,1.8,2.9,2.7,4.4
			c0.9,1.6,1.8,3.3,2.5,5c0.6,1.5,1,3.2,1.4,4.8s0.9,3.2,1.2,4.8c0.2,1,0.3,2.1,0.4,3.2c0.1,0.8,0.1,1.6,0.1,2.5
			c0,0.5-0.1,1.1-0.1,1.6c0,0.1,0,0.2,0,0.2c0.2,1,0.3,2.1,0.3,3.1s-0.2,2.1-0.4,3.1c-0.1,0.7-0.4,1.5-0.7,2.2
			c-0.2,0.5-0.4,1-0.7,1.5s-0.6,0.9-1,1.3c-0.2,0.3-0.5,0.6-0.8,0.9c-1.1,1-2.6,1.4-4.1,1.4c-1.3,0-2.7-0.6-3.6-1.6
			c-0.4-0.4-0.7-0.9-1-1.3c-0.2-0.4-0.4-0.9-0.6-1.4c-0.1-0.4-0.2-0.9-0.2-1.4c0-0.3,0-0.6,0-0.9c0-0.4,0.1-0.7,0.2-1
			c0.2-0.5,0.4-1.1,0.7-1.6c0.3-0.7,0.8-1.3,1.1-1.9c0.1-0.3,0.2-0.6,0.2-0.9c0.2-1.9,0.1-3.7-0.1-5.6c-0.2-1-0.4-2-0.6-3.1
			c-0.3-1.1-0.5-2.2-0.8-3.3c-0.2-1.1-0.4-2.3-0.7-3.4c-0.2-1-0.6-1.9-0.9-2.9c-0.2-0.6-0.5-1.1-0.8-1.6s-0.7-1-1-1.5
			c-0.7-0.9-1.5-1.8-2.3-2.6c-0.4-0.5-1-0.9-1.5-1.3c-0.5-0.4-0.9-0.8-1.4-1.1c-0.2-0.2-0.5-0.4-0.7-0.5c0.1,0.1,0.2,0.2,0.3,0.3
			c-0.8-0.7-1.7-1.3-2.5-2c-0.2-0.1-0.4-0.1-0.6-0.2c-0.8-0.2-1.4-0.8-1.6-1.6c-0.4-0.3-0.8-0.6-1.1-1c-0.1-0.1-0.2-0.3-0.4-0.4
			c-0.2-0.3-0.4-0.5-0.6-0.8c-0.2-0.3-0.3-0.7-0.5-1C216.1,153.7,216.1,153,216.2,152.6z"/>
		<g>
			<path class="st0" d="M217.7,153c1.7-4.1,8.4-0.5,10.5,1.1c4.4,3.2,7.6,7.8,10.1,12.6c2.4,4.6,4,10.3,4.5,15.4
				c0.3,3.2,0.7,7.7-0.1,10.7c-0.2,1-0.6,1.9-1.1,2.8c-6.2,2.4-8.9,1.4-8.1-2.9c0.4-1.6,1.6-2.8,2-4.4c0.8-3.6-0.3-7.6-1.1-11.1
				c-1.7-7.8-4-12.6-10.4-17.6c-0.5,0.9-1,1.7-1.5,2.6c0.1,0.1,0.2,0.2,0.3,0.3c1.3,1,3.2-1.3,1.8-2.4c-2.1-1.6-7.2-4.3-6.9-7.5
				c0.2-1.9-2.8-1.9-3,0c-0.5,4.7,4.7,7.2,7.7,9.6c0.6-0.8,1.2-1.6,1.8-2.4c-0.1-0.1-0.2-0.2-0.3-0.3c-1.5-1.2-3,1.4-1.5,2.6
				c6.8,5.2,9.9,13.5,10.2,22c0.2,4.9-3.9,8.8-1.3,13.6c2,3.7,6.6,4.8,10,2.5c4-2.6,4.8-7.9,4.7-12.3c-0.3-12-3.7-24.5-12.5-33.3
				c-4.1-4.1-15.2-10.9-18.7-2.5C214,153.9,216.9,154.7,217.7,153z"/>
		</g>
	</g>
</g>
</svg>
