<?xml version="1.0" encoding="utf-8"?>
<!-- Generator: Adobe Illustrator 22.1.0, SVG Export Plug-In . SVG Version: 6.00 Build 0)  -->
<svg version="1.1" id="Layer_1" xmlns="http://www.w3.org/2000/svg" xmlns:xlink="http://www.w3.org/1999/xlink" x="0px" y="0px"
	 viewBox="0 0 1504.4 443.8" style="enable-background:new 0 0 1504.4 443.8;" xml:space="preserve">
<style type="text/css">
	.st0{opacity:0.1;fill:#584C4F;stroke:#584C4F;stroke-width:6;stroke-linecap:round;stroke-miterlimit:10;}
	.st1{fill:#FFD767;stroke:#584C4F;stroke-width:6;stroke-miterlimit:10;}
	.st2{fill:#FFFAF2;stroke:#584C4F;stroke-width:6;stroke-miterlimit:10;}
</style>
<g id="Layer_5">
</g>
<g id="Layer_3">
</g>
<path class="st0" d="M1032.3,165c6.1,6.3,34.5,16.6,51,13.4c4.4,5,11.2,8.1,21.7,3.5c24-10.5,12.2-124.3,1.1-133.1
	c-8.8-7-30.1-42.5-32.6,31.1c-12.6-2.6-25.9,0.1-37,10.8c-2.2,2.1-4.1,4.2-5.9,6.3c-6.3-6.8-15-11.5-26.1-12.6
	c-36-3.6-50.8,19.7-56.4,33.9c0,0-1.3,2.1-2.2,6.3c-0.7,2.5-0.9,4.6-0.8,5.5c-0.5,7.8,0.8,19.3,8,34.6c5.9,12.4,21,16.9,31,18.5
	c2.8,0.6,5.9,0.9,9.1,0.9c0.2,0,0.3,0,0.3,0l0,0c3.5-0.1,7.2-0.5,11.2-1.4C1016.7,179.9,1025.9,173.4,1032.3,165z M1053.3,122.1
	L1053.3,122.1c0,0,1.3-5.3,4.8-7.3c1.4-0.8,3.2-1.1,5.3-0.4c0.1,0,0.2,0.1,0.4,0.1c1,0.3,2.2,0.6,3.5,0.7c1.9,0.3,4,0.4,6.2,0.4
	c0.2,8.1,0.6,16.9,1.1,26.5c-2.4,0.4-4.5,1-6,1.4c-1.1,0.3-1.7,0.6-1.7,0.6c-7.6,2.3-15.2,0.6-14.8-8.8
	C1052.2,135.2,1051.4,128,1053.3,122.1z M980.6,125.6c0,0,3.7-3.9,8.5-6.6c0.6,2.2,1.4,4.5,2.7,7c3.8,8,12.9,8.8,21.4,6.6
	c1.9,1.6,4,3,6.2,3.9c0.2,1.2,0.4,2.3,0.7,3.4c-1.2-0.2-2.3-0.4-3.3-0.5c-4-0.6-8.2,1.9-11.3,4.5c-0.3,0.3-0.7,0.6-1,0.8
	C993.8,152.6,965.9,137.2,980.6,125.6z"/>
<path class="st0" d="M624.5,302.4c-5.4-14.4-17.2-25.7-35.2-27.5c-36-3.6-50.8,19.7-56.4,33.9c0,0-1.3,2.1-2.1,6.3
	c-0.7,2.5-0.9,4.6-0.8,5.5c-0.5,7.8,0.8,19.3,8,34.6c5.9,12.4,21,16.9,31,18.5c2.8,0.6,5.9,0.9,9.1,0.9c0.2,0,0.3,0,0.3,0l0,0
	c3.5-0.1,7.2-0.5,11.2-1.4c15.8-3.6,26.6-13.7,32.7-26.1c-1-14.3-13.3-16.1-20.7-17.2c-4-0.6-8.2,1.9-11.3,4.5
	c-0.3,0.3-0.7,0.6-1,0.8c-10.6,7.9-38.5-7.6-23.9-19.1c0,0,3.7-3.9,8.5-6.6c0.6,2.2,1.4,4.5,2.7,7c3.8,8,12.9,8.8,21.4,6.6
	c5.3,4.5,11.9,7,18.3,2.5c11.5-8.3,10.2-11.5,10.7-14.7l0,0C627.4,307.6,624.5,302.4,624.5,302.4L624.5,302.4z"/>
<path class="st0" d="M494.7,293.1c-34.7-13.9-60.2,16.1-60.2,16.1s-26.9,61.6,24.3,77.8c12.3,3.9,24,2.8,34.1-1.7
	c-2.6,9.3-7.9,16.5-17.9,21c-34.8,15.3,0,29.8,0,29.8c63.9,0.4,52.7-54,52-113.7C526.3,270.9,501.4,287.6,494.7,293.1z M490,345.2
	c-12.8,33.3-52.1-18.9-24.1-22.7C466,322.5,502.8,312,490,345.2z"/>
<path class="st0" d="M391,284.7c-30.1,10.1-11.9,88.1,4,84.8c15.9-3.3,23.2-15.8,19.2-59.2C414.3,310.2,421.1,274.6,391,284.7z"/>
<path class="st0" d="M398.4,269.9c33.3-14.3-0.5-33.7-0.5-33.7C375.2,218.5,365.1,284.2,398.4,269.9z"/>
<path class="st0" d="M307.6,279.5c-3-5.2-9.2-11.2-21.3-6.8c-19.6,7-10,82.9-0.9,88.7c8.2,5.3,29.5,34.9,26.6-44.5
	c9.6-6.3,26-11,21,34.6c0,0,8.2,19.6,24.1,11.5C372.4,355.1,375.3,262.2,307.6,279.5z"/>
<path class="st0" d="M664.3,247.4c-11.1-8.8-42.1-62.9-30.1,113.6c0,0,5,30,29,19.4C687.2,370,675.4,256.2,664.3,247.4z"/>
<path class="st0" d="M732.6,254.9c33.3-14.3-0.5-33.7-0.5-33.7C709.5,203.5,699.3,269.2,732.6,254.9z"/>
<path class="st0" d="M1156.6,282.2c-3-5.2-9.2-11.2-21.3-6.8c-4,1.4-6.8,5.8-8.6,11.8c-12.4-11.1-29.8-16.9-48.4-10.9
	c-7.8,2.5-13.8,6-18.3,10.2c-5-4.2-13.3-8.3-22.7-10.7c0,0,0,0-0.1,0c-1.7-0.4-3.4-0.8-5.2-1.1c-0.1,0-0.1,0-0.2,0
	c-0.5-0.1-1-0.2-1.5-0.2c-0.1,0-0.2,0-0.3,0c-0.5-0.1-1.1-0.1-1.6-0.2c0,0-0.1,0-0.1,0c-0.6-0.1-1.2-0.1-1.7-0.2c-0.1,0-0.1,0-0.2,0
	c-0.5,0-1-0.1-1.5-0.1c-0.2,0-0.3,0-0.5,0c-0.4,0-0.8,0-1.2,0c-0.2,0-0.4,0-0.5,0c-0.4,0-0.9,0-1.3,0c-0.1,0-0.2,0-0.4,0
	c-0.5,0-1.1,0-1.6,0.1c-0.2,0-0.4,0-0.6,0c-0.4,0-0.7,0.1-1,0.1c-0.2,0-0.5,0-0.7,0.1c-0.3,0-0.6,0.1-0.9,0.1
	c-0.2,0-0.5,0.1-0.7,0.1c-0.3,0-0.7,0.1-1,0.2c-0.3,0.1-0.6,0.1-0.9,0.2c-0.4,0.1-0.8,0.2-1.1,0.2c-0.3,0.1-0.5,0.1-0.7,0.2
	c-0.3,0.1-0.5,0.1-0.8,0.2c-0.3,0.1-0.5,0.1-0.8,0.2c-0.2,0.1-0.5,0.1-0.7,0.2c-0.3,0.1-0.5,0.2-0.8,0.3c-0.2,0.1-0.5,0.2-0.7,0.3
	c-0.5,0.2-1,0.4-1.4,0.6c-0.2,0.1-0.4,0.2-0.6,0.3c-0.3,0.1-0.5,0.3-0.8,0.4c-0.2,0.1-0.4,0.2-0.6,0.3c-0.3,0.1-0.5,0.3-0.8,0.4
	c-0.2,0.1-0.4,0.2-0.5,0.3c-0.3,0.2-0.5,0.3-0.8,0.5c-0.1,0.1-0.3,0.2-0.4,0.2c-0.5,0.3-1.1,0.7-1.6,1.1c-0.1,0.1-0.3,0.2-0.4,0.3
	c-0.3,0.2-0.5,0.4-0.8,0.6c-0.2,0.1-0.3,0.3-0.5,0.4c-0.2,0.2-0.5,0.4-0.7,0.7c-0.1,0.1-0.3,0.3-0.4,0.4c-0.8,0.8-1.6,1.7-2.4,2.6
	c-0.1,0.1-0.2,0.2-0.3,0.3c0,0-0.1,0.1-0.1,0.1c-0.2,0.3-0.4,0.6-0.7,0.9c-0.1,0.2-0.2,0.3-0.4,0.5c-0.2,0.3-0.4,0.6-0.6,0.9
	c-0.1,0.2-0.2,0.4-0.3,0.5c-0.2,0.3-0.4,0.7-0.6,1c-0.1,0.2-0.2,0.3-0.3,0.5c-0.4,0.7-0.7,1.4-1.1,2.2c-0.1,0.2-0.2,0.3-0.2,0.5
	c-9.1-10.5-23.5-16.1-45-10.6c-3-5.2-9.2-11.2-21.3-6.8c-0.8,0.3-1.6,0.7-2.3,1.3c-10.1-15.3-27.3-25-54.4-19.5
	c-0.2-3.7-0.5-7.6-0.8-11.5c0,0-5.3-30-30.5-19.4c-12.3,5.1-15.7,35-14.5,65.2c-12.6-13.8-31.8-21.7-52.6-15.1
	c-10,3.2-17,8.1-21.8,13.9c-5.5-40.1-33-13.9-33-13.9l2,69.3c0.4,19.5-3,35-20,42.5c-34.8,15.3,0,29.8,0,29.8
	c43.3,0.3,52.1-24.6,53.1-59.2c10.4,9.2,37.5,27.3,70.1,3.3c4.6-3.4,8.3-7.3,11-11.6c1.5,4.5,3.1,7.6,4.7,8.8
	c10.1,7.7,36.2,49.7,34.4-56.2c11.8-7.1,30.1-10.4,24.2,43.1c0,0,9.3,22.2,27.3,15c0.8,1.4,1.5,2.5,2.3,3
	c8.2,5.3,29.5,34.9,26.6-44.5c9.6-6.3,26-11,21,34.6c0,0,7.8,18.6,22.9,12c0.2,0.1,0.4,0.2,0.7,0.4c0.2,0.1,0.4,0.2,0.7,0.3
	c0.2,0.1,0.4,0.2,0.6,0.3c0.2,0.1,0.5,0.2,0.7,0.3c0.2,0.1,0.4,0.2,0.6,0.3c0.3,0.1,0.5,0.2,0.8,0.4c0.2,0.1,0.3,0.1,0.5,0.2
	c0.6,0.3,1.2,0.5,1.9,0.8c0.1,0,0.1,0.1,0.2,0.1c0.3,0.1,0.6,0.2,1,0.4c0.1,0.1,0.3,0.1,0.4,0.2c0.3,0.1,0.6,0.2,1,0.3
	c0.1,0,0.3,0.1,0.4,0.1c0.3,0.1,0.7,0.2,1.1,0.4c0,0,0,0,0,0c1.3,0.4,2.5,0.8,3.8,1.1c0.1,0,0.2,0,0.3,0.1c0.4,0.1,0.8,0.2,1.2,0.3
	c0.1,0,0.1,0,0.2,0c1.8,0.4,3.6,0.8,5.4,1.1c0,0,0.1,0,0.1,0c0.5,0.1,0.9,0.1,1.4,0.2c0,0,0,0,0,0c1.9,0.2,3.8,0.4,5.7,0.4
	c0,0,0,0,0,0c2.4,0.1,4.8,0,7.1-0.3c0,0,0,0,0,0c2.3-0.3,4.6-0.7,6.8-1.4c0,0,0,0,0,0c1.8-0.5,3.5-1.2,5.1-2c0,0,0,0,0,0
	c0.4-0.2,0.8-0.4,1.2-0.6c0,0,0,0,0,0c1.6-0.9,3.1-1.9,4.5-3.1c0,0,0.1-0.1,0.1-0.1c0.3-0.3,0.7-0.6,1-0.9c0,0,0.1-0.1,0.1-0.1
	c1.3-1.3,2.6-2.7,3.7-4.3c0.1-0.1,0.1-0.2,0.2-0.2c0.3-0.4,0.5-0.7,0.8-1.1c0.1-0.1,0.1-0.2,0.2-0.3c0.2-0.4,0.5-0.8,0.7-1.2
	c0,0,0-0.1,0.1-0.1c0.4-0.7,0.8-1.5,1.2-2.3c6.6,6.8,36.4,33.5,73.3,6.4c1-0.7,1.9-1.5,2.8-2.3c1,2.2,2,3.7,3,4.4
	c8.2,5.3,29.5,34.9,26.6-44.5c9.6-6.3,26-11,21,34.6c0,0,8.2,19.6,24.1,11.5C1221.4,357.8,1224.3,264.9,1156.6,282.2z M776.3,340.7
	c-28-3.8,11.3-56,24.1-22.7C813.2,351.2,776.3,340.7,776.3,340.7z M1029.6,341.7c-0.1,0.2-0.1,0.4-0.2,0.5c0,0,0,0,0,0
	c-0.1,0.2-0.1,0.3-0.2,0.5c0,0,0,0,0,0c-0.1,0.2-0.2,0.3-0.3,0.5c0,0,0,0,0,0c-0.1,0.1-0.2,0.3-0.3,0.4c0,0,0,0,0,0.1
	c-0.1,0.1-0.2,0.3-0.3,0.4c0,0,0,0-0.1,0.1c-0.1,0.1-0.2,0.2-0.3,0.4c0,0,0,0-0.1,0.1c-0.1,0.1-0.2,0.2-0.4,0.3c0,0-0.1,0-0.1,0.1
	c-0.1,0.1-0.3,0.2-0.4,0.3c0,0-0.1,0.1-0.1,0.1c-0.1,0.1-0.3,0.2-0.4,0.3c0,0-0.1,0.1-0.1,0.1c-0.1,0.1-0.3,0.1-0.5,0.2
	c-0.1,0-0.1,0-0.2,0.1c-0.2,0.1-0.3,0.1-0.5,0.2c-0.1,0-0.1,0-0.2,0.1c-0.2,0.1-0.3,0.1-0.5,0.1c-0.1,0-0.1,0-0.2,0.1
	c-0.2,0-0.4,0.1-0.5,0.1c-0.1,0-0.2,0-0.2,0c-0.2,0-0.4,0.1-0.6,0.1c-0.1,0-0.2,0-0.3,0c-0.2,0-0.4,0-0.6,0c-0.1,0-0.2,0-0.3,0
	c-0.2,0-0.4,0-0.6,0c-0.1,0-0.2,0-0.3,0c-0.2,0-0.4,0-0.7,0c-0.1,0-0.2,0-0.4,0c-0.2,0-0.5,0-0.7-0.1c-0.1,0-0.3,0-0.4,0
	c-0.2,0-0.5-0.1-0.7-0.1c-0.1,0-0.3,0-0.4-0.1c-0.2,0-0.5-0.1-0.8-0.1c-0.2,0-0.3-0.1-0.5-0.1c-0.3-0.1-0.5-0.1-0.8-0.2
	c-0.2,0-0.3-0.1-0.5-0.1c-0.3-0.1-0.6-0.1-0.9-0.2c-0.2,0-0.4-0.1-0.5-0.1c-0.3-0.1-0.6-0.2-0.9-0.3c-0.2-0.1-0.4-0.1-0.6-0.2
	c-0.3-0.1-0.6-0.2-1-0.3c-0.2-0.1-0.4-0.1-0.6-0.2c-0.3-0.1-0.7-0.2-1-0.4c-0.2-0.1-0.4-0.1-0.6-0.2c-0.4-0.1-0.7-0.3-1.1-0.4
	c-0.2-0.1-0.4-0.1-0.6-0.2c-0.4-0.2-0.8-0.3-1.2-0.5c-0.2-0.1-0.4-0.1-0.6-0.2c-0.4-0.2-0.9-0.4-1.3-0.6c0.2-2.3,0.3-4.7,0.3-7.2
	c7.9,3.9,17.2,5.7,25.6,5.9C1029.7,341.3,1029.6,341.5,1029.6,341.7C1029.6,341.7,1029.6,341.7,1029.6,341.7z M1016.4,306.5
	c0-0.1,0.1-0.3,0.1-0.4c0-0.1,0-0.1,0.1-0.2c0-0.1,0.1-0.2,0.1-0.4c0-0.1,0.1-0.1,0.1-0.2c0-0.1,0.1-0.2,0.1-0.3
	c0-0.1,0.1-0.2,0.1-0.2c0-0.1,0.1-0.2,0.1-0.3c0-0.1,0.1-0.2,0.1-0.3c0-0.1,0.1-0.1,0.1-0.2c0.1-0.1,0.1-0.2,0.2-0.3
	c0-0.1,0.1-0.1,0.1-0.2c0.1-0.1,0.2-0.2,0.2-0.3c0,0,0.1-0.1,0.1-0.1c0.1-0.1,0.2-0.2,0.3-0.3c0,0,0.1-0.1,0.1-0.1
	c0.1-0.1,0.2-0.2,0.4-0.3c0,0,0.1,0,0.1-0.1c0.1-0.1,0.3-0.2,0.4-0.3c0,0,0,0,0,0c0.2-0.1,0.3-0.2,0.5-0.3c0,0,0,0,0,0
	c4.3-2.1,12.6-1.3,28,6.1c-0.5,2.5-0.8,4.9-1,7.4C1038.3,309.4,1026.7,306.9,1016.4,306.5C1016.4,306.6,1016.4,306.5,1016.4,306.5z
	 M1085.3,340.7c-28-3.8,11.3-56,24.1-22.7C1122.2,351.2,1085.3,340.7,1085.3,340.7z"/>
<path class="st0" d="M296.8,181.2c13.5,4.3,26.2,2.6,37-2.8c3.7,4.8,10.4,8.1,22,1.3c14.8-8.7,9.8-21.2,4.5-28.8
	c9.1-19.2,7.4-42.5-12.3-57c-42.7-31.3-76,8-76,8s-2.8,6.5-4.9,15.8c-4.4-29.8-22.5-59.6-65.6-50.9c-0.2-3.7-0.5-7.6-0.8-11.5
	c0,0-5.3-30-30.5-19.4c-25.2,10.5-12.8,124.3-1.1,133.1c10.1,7.7,36.2,49.7,34.4-56.2c11.8-7.1,30.1-10.4,24.2,43.1
	c0,0,10,24,29.5,14c4.1-2.1,7.5-9.2,9.4-18.9C269.9,163.7,278.4,175.3,296.8,181.2z M295.1,126.5c0,0,18.9-34.1,33.7-1
	S277.6,149.4,295.1,126.5z"/>
<path class="st0" d="M433.9,164c0,0,8.2,19.6,24.1,11.5c5.5-2.8,9.3-16.5,9-32.1c3.7,12.2,10.5,20.4,10.5,20.4
	c4.1,6.1,34.4,17.6,51.7,14.2c4.4,5,11.2,8.1,21.7,3.5c24-10.5,12.2-124.3,1.1-133.1c-8.8-7-30.1-42.5-32.6,31.1
	c-12.6-2.6-25.9,0.1-37,10.8c-12.5,12-17.1,24.4-17.6,35.4c-5.5-22.7-21.7-42.6-56.2-33.7c-3-5.2-9.2-11.2-21.3-6.8
	c-19.6,7-10,82.9-0.9,88.7c8.2,5.3,29.5,34.9,26.6-44.5C422.6,123.1,438.9,118.3,433.9,164z M499.3,121.7L499.3,121.7
	c0,0,1.3-5.3,4.8-7.3c1.4-0.8,3.2-1.1,5.3-0.4c0.1,0,0.2,0.1,0.4,0.1c1,0.3,2.2,0.6,3.5,0.7c1.9,0.3,4,0.4,6.2,0.4
	c0.2,8.1,0.6,16.9,1.1,26.5c-2.4,0.4-4.5,1-6,1.4c-1.1,0.3-1.7,0.6-1.7,0.6c-7.6,2.3-15.2,0.6-14.8-8.8
	C498.2,134.8,497.4,127.6,499.3,121.7z"/>
<path class="st0" d="M706.9,159.5c-1.3-40.1,12.4-43.4,28.2-37.2c1.8,0.7,3.7,1.2,5.6,1.6c-3,19.7-0.7,46.8,30.9,56.8
	c13.5,4.3,26.2,2.6,37-2.8c3.7,4.8,10.4,8.1,22,1.3c2.6-1.5,4.6-3.2,6.1-4.9c9.3,19.6,29.4,0.4,29.4,0.4l-1.5-52.5
	c8.3-1.5,15.2-3.9,19.5-7.5c-0.2,39.3,6.1,68.7,53.2,68.4c0,0,34.8-14.5,0-29.8c-17-7.5-20.4-23-20-42.5l0-0.3
	c7.1,0.2,17.8-2.4,15.8-20.2c-1.3-11.5-7.8-15.5-14.7-16.3l1-32.5c0,0-17-16.2-26.9-3.7c-4-3-8.3-4.7-8.3-4.7
	c-46.8-0.3-53.4,28.8-53.2,67.9c-2.3-2.7-4.9-5.3-8.1-7.6c-31.8-23.3-58.4-7.5-69.9,2.1c-0.2-0.3-0.4-0.6-0.7-0.9
	c0,0-26.6-18.3-50.6-6.6c-3.6-4.6-10.1-7.7-21.3-1.1c-4,2.4-6.6,5-8,7.8c-0.9-2.4-2.5-5-5.1-7.6l0,0c-12.3-13-54.8,9.4-58.6,17.6
	c0,0-25.3,41.9,15.7,70.8c14.5,10.2,30.4,9.4,43.6,2.2l0,0c0,0,4.3-1.6,6.5-3.8C685.3,190,707.7,184.8,706.9,159.5z M884.1,62.9
	c0.5-0.2,1-0.4,1.5-0.7c-0.1,2.3-0.2,4.7-0.3,7.2c-0.1,9.2-0.5,18.3-0.8,27c-2.4-2.1-6-3.8-11.5-3.9c0,0-3.2,0-8.5-0.1
	C866,79.1,871.1,68.6,884.1,62.9z M769.8,125.9c0,0,18.9-34.1,33.7-1C818.2,158.1,752.3,148.8,769.8,125.9z M650.9,147
	c-1.2,0.4-2.3,0.8-3.3,1.2c-0.1,0.1-0.2,0.1-0.3,0.2c-2,1-3.8,0.9-5.3,0.4c-3.8-1.5-5.8-6.4-5.8-6.4v0c-2.8-5.5-3.1-12.6-3.1-12.6
	c-1.8-9.2,5.4-12,13.1-10.8c0,0,0.7,0.2,1.8,0.3c3.8,0.6,12.8,1.4,17-3.2c2.2-2.4,5.1-5.6,6.9-9.4c1.2,3.7,3.4,7.2,5.4,9.8
	c-0.9,2.1-1.8,4.4-2.7,6.8c-3.1,8.8-4.8,16.5-5.4,23.3C663.5,144.5,656.1,145.4,650.9,147z"/>
<path class="st0" d="M1223.5,93.1c-10.7-10.3-23.6-13.2-35.8-11c-2.4-75.5-25-39.7-34.3-32.6c-11.7,8.8-24.1,122.6,1.1,133.1
	c9.8,4.1,16.6,2.1,21.2-2c17.1,3.9,48.5-7.8,52.6-14C1228.3,166.6,1260.2,128.5,1223.5,93.1z M1207.7,137.7
	c0.4,9.5-7.2,11.2-14.8,8.8c0,0-0.7-0.3-1.7-0.6c-1.2-0.4-3-0.9-5-1.2c0.6-9.7,1-18.5,1.2-26.7c1.8,0,3.6-0.2,5.1-0.4
	c1.3-0.2,2.5-0.5,3.5-0.7c0.1,0,0.2-0.1,0.4-0.1c2.2-0.7,3.9-0.4,5.3,0.4c3.6,2.1,4.8,7.3,4.8,7.3l0,0
	C1208.5,130.5,1207.7,137.7,1207.7,137.7z"/>
<path class="st0" d="M1345.5,89.6c0,0-25-22.3-29.5,16.2c0,0-1.3,25.8-13.1,27.9s-18.7-16-17.5-22.4c0,0-2-35-25.7-24.7
	c-23.7,10.4-10.4,109.5,49.8,95.2c2.3-0.5,4.5-1.2,6.5-1.9c0,12.9-2.4,33.4-18.1,37.6c-23.2,6.3-20.4,32.3,5.5,31
	c22.7-1.2,46-17.2,43.8-101.7C1355.1,120.4,1345.5,89.6,1345.5,89.6z"/>
<g>
	<g id="XMLID_29852_">
		<path id="XMLID_29854_" class="st1" d="M1007,85.1c0,0-8.9-6.2-12.7-1.4S984,96.8,991.8,113c7.8,16.2,37,2.8,39.8-4.7"/>
		<path id="XMLID_29853_" class="st1" d="M1039.7,98.9L1039.7,98.9c-5.4-14.4-17.2-25.7-35.2-27.5c-36-3.6-50.8,19.7-56.4,33.9
			c0,0-1.3,2.1-2.2,6.3c-0.7,2.5-0.9,4.6-0.8,5.5c-0.5,7.8,0.8,19.3,8,34.6c5.9,12.4,21,16.9,31,18.5c2.8,0.6,5.9,0.9,9.1,0.9
			c0.2,0,0.3,0,0.3,0l0,0c3.5-0.1,7.2-0.5,11.2-1.4c15.8-3.6,26.6-13.7,32.7-26.1c-1-14.3-13.3-16.1-20.7-17.2
			c-4-0.6-8.2,1.9-11.3,4.5c-0.3,0.3-0.7,0.6-1,0.8c-10.6,7.9-38.5-7.6-23.9-19.1c0,0,5-5.3,10.8-7.7h0c0,0,4.9-2.5,8.8-1.1
			c1.5,0.5,2.9,1.7,3.8,3.8c0,0.1,0.1,0.2,0.2,0.3c0.4,1,1,2,1.7,3.2c4.8,7.8,15.6,18.2,25.6,11c11.5-8.3,10.2-11.5,10.7-14.7l0,0
			C1042.6,104.2,1039.7,98.9,1039.7,98.9z"/>
	</g>
	<g id="XMLID_29829_">
		<path id="XMLID_29831_" class="st1" d="M919.3,28.5c0,0-33.2-31.7-34,27.9s-11.9,114.1,52,113.7c0,0,34.8-14.5,0-29.8
			c-17-7.5-20.4-23-20-42.5"/>
		<path id="XMLID_29830_" class="st1" d="M911.4,96.7c0,0,24.8,6.9,21.7-19.4c-3-26.2-33-13.2-33-13.2"/>
	</g>
	<g id="XMLID_29867_">
		<path id="XMLID_29869_" class="st1" d="M1036.5,77.7c-36.8,35.4-4.9,73.5-4.9,73.5c5.1,7.7,51.2,23.6,61.6,8.7l0,0
			c10.4-14.9-0.5-23.7-6.8-28.8c-4.9-4-13.8-1.8-17.5-0.6c-1.1,0.3-1.7,0.6-1.7,0.6c-7.6,2.3-15.2,0.6-14.8-8.8
			c0,0-0.8-7.2,1.2-13.1l0,0c0,0,1.3-5.3,4.8-7.3c1.4-0.8,3.2-1.1,5.3-0.4c0.1,0,0.2,0.1,0.4,0.1c1,0.3,2.2,0.5,3.5,0.7
			c9,1.4,23.8-0.1,24.8-12.3c1.2-14.1-2.1-15.1-4.2-17.5c0,0,0,0,0,0c-2.1-2.5-8-3.6-8-3.6l0,0C1065.5,63.6,1049.4,65.2,1036.5,77.7
			z"/>
		<path id="XMLID_29868_" class="st1" d="M1079,158.8c3.7,7.7,11.2,16.5,25.9,10.1c24-10.5,12.2-124.3,1.1-133.1
			c-10.8-8.6-40.6-60.3-30.9,101.1"/>
	</g>
	<g id="XMLID_29736_">
		<path id="XMLID_29738_" class="st1" d="M591.8,275.5c0,0-8.9-6.2-12.7-1.4c-3.8,4.9-10.4,13.1-2.6,29.3c7.8,16.2,37,2.8,39.8-4.7"
			/>
		<path id="XMLID_29737_" class="st1" d="M624.5,289.4L624.5,289.4c-5.4-14.4-17.2-25.7-35.2-27.5c-36-3.6-50.8,19.7-56.4,33.9
			c0,0-1.3,2.1-2.2,6.3c-0.7,2.5-0.9,4.6-0.8,5.5c-0.5,7.8,0.8,19.3,8,34.6c5.9,12.4,21,16.9,31,18.5c2.8,0.6,5.9,0.9,9.1,0.9
			c0.2,0,0.3,0,0.3,0l0,0c3.5-0.1,7.2-0.5,11.2-1.4c15.8-3.6,26.6-13.7,32.7-26.1c-1-14.3-13.3-16.1-20.7-17.2
			c-4-0.6-8.2,1.9-11.3,4.5c-0.3,0.3-0.7,0.6-1,0.8c-10.6,7.9-38.5-7.6-23.9-19.1c0,0,5-5.3,10.8-7.7h0c0,0,4.9-2.5,8.8-1.1
			c1.5,0.5,2.9,1.7,3.8,3.8c0,0.1,0.1,0.2,0.2,0.3c0.4,1,1,2,1.7,3.2c4.8,7.8,15.6,18.2,25.6,11c11.5-8.3,10.2-11.5,10.7-14.7l0,0
			C627.4,294.6,624.5,289.4,624.5,289.4z"/>
	</g>
	<g id="XMLID_29729_">
		<path id="XMLID_29735_" class="st1" d="M482.9,293.7"/>
		<path id="XMLID_29732_" class="st1" d="M509.2,288.2c-41.9-30.8-74.7,7.9-74.7,7.9s-26.9,61.6,24.3,77.8
			C510,390.2,551.1,319,509.2,288.2z M490,332.2c-12.8,33.3-52.1-18.9-24.1-22.7C466,309.5,502.8,299,490,332.2z"/>
		<path id="XMLID_29731_" class="st1" d="M493,283.6"/>
		<path id="XMLID_29730_" class="st1" d="M493,281.5c0,0,33.2-31.7,34,27.9s11.9,114.1-52,113.7c0,0-34.8-14.5,0-29.8
			c17-7.5,20.4-23,20-42.5"/>
	</g>
	<g id="XMLID_29725_">
		<g id="XMLID_29727_">
			<path id="XMLID_29728_" class="st1" d="M414.3,297.2c0,0,6.8-35.6-23.2-25.5c-30.1,10.1-11.9,88.1,4,84.8
				C410.9,353.1,418.3,340.6,414.3,297.2z"/>
		</g>
		<path id="XMLID_29726_" class="st1" d="M397.9,223.2c0,0,33.8,19.4,0.5,33.7C365.1,271.2,375.2,205.5,397.9,223.2z"/>
	</g>
	<g id="XMLID_29722_">
		<path id="XMLID_29724_" class="st1" d="M310,272.7c0,0-4.1-20-23.7-13c-19.6,7-10,82.9-0.9,88.7
			C294.5,354.3,319.8,390.4,310,272.7z"/>
		<path id="XMLID_29723_" class="st1" d="M305.5,309c0,0,34.4-34,27.4,29.5c0,0,8.2,19.6,24.1,11.5c16-8.2,18.4-108.9-58.5-80.6"/>
	</g>
	<path id="XMLID_29721_" class="st1" d="M634.2,348c0,0,5,30,29,19.4c24-10.5,12.2-124.3,1.1-133.1
		C653.2,225.6,622.2,171.4,634.2,348z"/>
	<path id="XMLID_29751_" class="st1" d="M769.2,263.3c-51.2,16.3-24.3,77.8-24.3,77.8s32.7,38.6,74.7,7.9
		C861.5,318.2,820.4,247,769.2,263.3z M776.3,327.7c-28-3.8,11.3-56,24.1-22.7C813.2,338.2,776.3,327.7,776.3,327.7z"/>
	<g id="XMLID_29748_">
		<path id="XMLID_29750_" class="st1" d="M866.8,232.6c0,0-5.3-30-30.5-19.4s-12.8,124.3-1.1,133.1
			C846.8,355,879.4,409.2,866.8,232.6z"/>
		<path id="XMLID_29749_" class="st1" d="M860.3,297.2c0,0,42-41.5,33.5,36c0,0,10,24,29.5,14s22.5-133-71.5-98.5"/>
	</g>
	<g>
		<path id="XMLID_29747_" class="st1" d="M732.1,208.2c0,0,33.8,19.4,0.5,33.7C699.3,256.2,709.5,190.5,732.1,208.2z"/>
		<path id="XMLID_29746_" class="st1" d="M714.4,263.3c0,0,33.2-31.7,34,27.9s11.9,114.1-52,113.7c0,0-34.8-14.5,0-29.8
			c17-7.5,20.4-23,20-42.5"/>
	</g>
	<g id="XMLID_29743_">
		<path id="XMLID_29745_" class="st1" d="M948,275.3c0,0-4.1-20-23.7-13c-19.6,7-10,82.9-0.9,88.7C932.5,357,957.8,393.1,948,275.3z
			"/>
		<path id="XMLID_29744_" class="st1" d="M943.5,311.7c0,0,34.4-34,27.4,29.5c0,0,8.2,19.6,24.1,11.5c16-8.2,18.4-108.9-58.5-80.6"
			/>
	</g>
	<g id="XMLID_29739_">
		<path id="XMLID_29742_" class="st1" d="M1049.1,295.5c0,0,17.3-0.9,15.4-15.4c-1.5-11.5-49.9-32.5-69.7-7.4
			c-5.2,6.5-8.4,16.2-8.3,30c0,0,0,0.1,0,0.1c1.4,4.7,3.9,8.7,7.1,12c1.2,1.3,2.5,2.4,3.7,3.3c8.9,6.8,21.4,9.8,32.4,10.1
			c-1.6,6.2-9,9.7-32.7-1.8c0,0-17.3,0.9-15.4,15.4c1.5,11.5,50,32.5,69.8,7.4c5.2-6.6,8.4-16.2,8.3-30c0,0,0-0.1,0-0.1
			c-1.4-4.8-3.9-8.7-7.1-12c-1.2-1.3-2.5-2.4-3.7-3.3c-8.9-6.8-21.4-9.8-32.4-10.1C1018,287.4,1025.5,283.9,1049.1,295.5z"/>
		<path id="XMLID_29741_" class="st1" d="M1027.2,313.3c0,0,16.6,35.8-30.2,13c0,0-17.3,0.9-15.4,15.4c1.9,14.5,78.5,44.1,78-22.8"
			/>
		<path id="XMLID_29740_" class="st1" d="M1018.9,308.4c0,0-16.6-35.8,30.2-13c0,0,17.3-0.9,15.4-15.4s-78.5-44.1-78,22.8"/>
	</g>
	<path id="XMLID_29754_" class="st1" d="M1078.2,263.3c-51.2,16.3-24.3,77.8-24.3,77.8s32.7,38.6,74.7,7.9
		C1170.5,318.2,1129.4,247,1078.2,263.3z M1085.3,327.7c-28-3.8,11.3-56,24.1-22.7C1122.2,338.2,1085.3,327.7,1085.3,327.7z"/>
	<g id="XMLID_29757_">
		<path id="XMLID_29759_" class="st1" d="M1159,275.3c0,0-4.1-20-23.7-13c-19.6,7-10,82.9-0.9,88.7
			C1143.5,357,1168.8,393.1,1159,275.3z"/>
		<path id="XMLID_29758_" class="st1" d="M1154.5,311.7c0,0,34.4-34,27.4,29.5c0,0,8.2,19.6,24.1,11.5c16-8.2,18.4-108.9-58.5-80.6"
			/>
	</g>
	<path id="XMLID_29858_" class="st1" d="M624.5,162.4c-41.1-28.9-15.7-70.8-15.7-70.8c3.8-8.2,46.3-30.6,58.6-17.6l0,0
		c12.3,13,3,23.1-2.4,29c-4.2,4.6-13.2,3.8-17,3.2c-1.1-0.2-1.8-0.3-1.8-0.3c-7.7-1.1-14.9,1.6-13.1,10.8c0,0,0.3,7.1,3.1,12.6l0,0
		c0,0,2,4.9,5.8,6.4c1.5,0.6,3.2,0.6,5.3-0.4c0.1-0.1,0.2-0.1,0.3-0.2c0.9-0.4,2-0.9,3.3-1.2c8.6-2.7,23.2-3.4,25.9,8.2
		c3.2,13.5,0.2,15-1.5,17.7c0,0,0,0,0,0c-1.7,2.7-7.2,4.7-7.2,4.7l0,0C654.9,171.8,639,172.6,624.5,162.4z"/>
	<g id="XMLID_29855_">
		<path id="XMLID_29857_" class="st1" d="M482.5,77.3c-36.8,35.4-4.9,73.5-4.9,73.5c5.1,7.7,51.2,23.6,61.6,8.7l0,0
			c10.4-14.9-0.5-23.7-6.8-28.8c-4.9-4-13.8-1.8-17.5-0.6c-1.1,0.3-1.7,0.6-1.7,0.6c-7.6,2.3-15.2,0.6-14.8-8.8
			c0,0-0.8-7.2,1.2-13.1l0,0c0,0,1.3-5.3,4.8-7.3c1.4-0.8,3.2-1.1,5.3-0.4c0.1,0,0.2,0.1,0.4,0.1c1,0.3,2.2,0.5,3.5,0.7
			c9,1.4,23.8-0.1,24.8-12.3c1.2-14.1-2.1-15.1-4.2-17.5c0,0,0,0,0,0c-2.1-2.5-8-3.6-8-3.6l0,0C511.5,63.1,495.4,64.8,482.5,77.3z"
			/>
		<path id="XMLID_29856_" class="st1" d="M525,158.4c3.7,7.7,11.2,16.5,25.9,10.1c24-10.5,12.2-124.3,1.1-133.1
			c-10.8-8.6-40.6-60.3-30.9,101.1"/>
	</g>
	<g id="XMLID_29849_">
		<path id="XMLID_29851_" class="st1" d="M866.1,161.7c0,0-33.2,31.7-34-27.9s-11.9-114.1,52-113.7c0,0,34.8,14.5,0,29.8
			c-17,7.5-20.4,23-20,42.5"/>
		<path id="XMLID_29850_" class="st1" d="M852.5,110.7c20-1.7,35.4-6.6,36.7-18c0,0-0.5-12.7-16.1-13.2c0,0-3.8,0-9.9-0.1"/>
	</g>
	<g id="XMLID_29841_">
		<g id="XMLID_29843_">
			<path id="XMLID_29848_" class="st1" d="M321.3,87.2"/>
			<path id="XMLID_29845_" class="st1" d="M348.1,81c-42.7-31.3-76,8-76,8s-27.3,62.7,24.8,79.3C348.9,184.8,390.8,112.3,348.1,81z
				 M328.7,112.5c14.7,33.1-51.1,23.8-33.7,1C295.1,113.5,314,79.4,328.7,112.5z"/>
			<path id="XMLID_29844_" class="st1" d="M331.3,77"/>
		</g>
		<path id="XMLID_29842_" class="st1" d="M329.4,154.7c0,0,3.8,25.4,26.5,12s-1.2-35.5-1.2-35.5"/>
	</g>
	<g id="XMLID_29838_">
		<path id="XMLID_29840_" class="st1" d="M200.8,42.3c0,0-5.3-30-30.5-19.4s-12.8,124.3-1.1,133.1
			C180.8,164.8,213.4,218.9,200.8,42.3z"/>
		<path id="XMLID_29839_" class="st1" d="M194.3,106.9c0,0,42-41.5,33.5,36c0,0,10,24,29.5,14s22.5-133-71.5-98.5"/>
	</g>
	<g id="XMLID_29835_">
		<path id="XMLID_29837_" class="st1" d="M411,85.1c0,0-4.1-20-23.7-13s-10,82.9-0.9,88.7C395.5,166.7,420.8,202.8,411,85.1z"/>
		<path id="XMLID_29836_" class="st1" d="M406.5,121.5c0,0,34.4-34,27.4,29.5c0,0,8.2,19.6,24.1,11.5c16-8.2,18.4-108.9-58.5-80.6"
			/>
	</g>
	<g id="XMLID_29832_">
		<path id="XMLID_29834_" class="st1" d="M752.3,81.6c0,0-54.3-37.3-77.7,28.6c-23.4,66,33.6,76.3,32.3,36.2s12.4-43.4,28.2-37.2
			C750.9,115.4,773.1,108.8,752.3,81.6z"/>
		<path id="XMLID_29833_" class="st1" d="M706.1,85.5c0,0-3.6-24.7-25.7-11.7c-22.1,13,1.2,34.5,1.2,34.5"/>
	</g>
	<g id="XMLID_29859_">
		<g id="XMLID_29861_">
			<path id="XMLID_29866_" class="st1" d="M796,86.6"/>
			<path id="XMLID_29863_" class="st1" d="M822.8,80.4c-42.7-31.3-76,8-76,8s-27.3,62.7,24.8,79.3
				C823.6,184.2,865.5,111.7,822.8,80.4z M803.5,112c14.7,33.1-51.1,23.8-33.7,1C769.8,112.9,788.7,78.8,803.5,112z"/>
			<path id="XMLID_29862_" class="st1" d="M806.1,76.4"/>
		</g>
		<path id="XMLID_29860_" class="st1" d="M804.1,154.2c0,0,3.8,25.4,26.5,12s-1.2-35.5-1.2-35.5"/>
	</g>
	<g id="XMLID_29873_">
		<path id="XMLID_29875_" class="st1" d="M1223.5,80.1c36.8,35.4,4.9,73.5,4.9,73.5c-5.1,7.7-51.2,23.6-61.6,8.7l0,0
			c-10.4-14.9,0.5-23.7,6.8-28.8c4.9-4,13.8-1.8,17.5-0.6c1.1,0.3,1.7,0.6,1.7,0.6c7.6,2.3,15.2,0.6,14.8-8.8c0,0,0.8-7.2-1.2-13.1
			v0c0,0-1.3-5.3-4.8-7.3c-1.4-0.8-3.2-1.1-5.3-0.4c-0.1,0-0.2,0.1-0.4,0.1c-1,0.3-2.2,0.5-3.5,0.7c-9,1.4-23.8-0.1-24.8-12.3
			c-1.2-14.1,2.1-15.1,4.2-17.5c0,0,0,0,0,0c2.1-2.5,8-3.6,8-3.6l0,0C1194.4,66,1210.5,67.6,1223.5,80.1z"/>
		<path id="XMLID_29874_" class="st1" d="M1187.7,96.8c-0.3,14.9-1.2,32.5-2.7,53.3c0,0-5.3,30-30.5,19.4
			c-25.2-10.5-12.8-124.3-1.1-133.1c9.5-7.2,32.8-44.2,34.4,36.8"/>
	</g>
	<g id="XMLID_29870_">
		<path id="XMLID_29872_" class="st1" d="M1285.4,98.3c0,0-2-35-25.7-24.7s-10.4,109.5,49.8,95.2c60.2-14.3,35.9-92.2,35.9-92.2
			s-25-22.3-29.5,16.2c0,0-1.3,25.8-13.1,27.9C1291.2,122.8,1284.3,104.7,1285.4,98.3z"/>
		<path id="XMLID_29871_" class="st1" d="M1315.5,156.2c0,0,5.8,42-17.5,48.3s-20.4,32.3,5.5,31c25.9-1.3,52.6-22,41.2-142"/>
	</g>
</g>
<g>
	<g id="XMLID_30393_">
		<path id="XMLID_30395_" class="st2" d="M1007,71.1c0,0-8.9-6.2-12.7-1.4S984,82.8,991.8,99c7.8,16.2,37,2.8,39.8-4.7"/>
		<path id="XMLID_30394_" class="st2" d="M1039.7,84.9L1039.7,84.9c-5.4-14.4-17.2-25.7-35.2-27.5c-36-3.6-50.8,19.7-56.4,33.9
			c0,0-1.3,2.1-2.2,6.3c-0.7,2.5-0.9,4.6-0.8,5.5c-0.5,7.8,0.8,19.3,8,34.6c5.9,12.4,21,16.9,31,18.5c2.8,0.6,5.9,0.9,9.1,0.9
			c0.2,0,0.3,0,0.3,0l0,0c3.5-0.1,7.2-0.5,11.2-1.4c15.8-3.6,26.6-13.7,32.7-26.1c-1-14.3-13.3-16.1-20.7-17.2
			c-4-0.6-8.2,1.9-11.3,4.5c-0.3,0.3-0.7,0.6-1,0.8c-10.6,7.9-38.5-7.6-23.9-19.1c0,0,5-5.3,10.8-7.7h0c0,0,4.9-2.5,8.8-1.1
			c1.5,0.5,2.9,1.7,3.8,3.8c0,0.1,0.1,0.2,0.2,0.3c0.4,1,1,2,1.7,3.2c4.8,7.8,15.6,18.2,25.6,11c11.5-8.3,10.2-11.5,10.7-14.7l0,0
			C1042.6,90.2,1039.7,84.9,1039.7,84.9z"/>
	</g>
	<g id="XMLID_30390_">
		<path id="XMLID_30392_" class="st2" d="M919.3,14.5c0,0-33.2-31.7-34,27.9s-11.9,114.1,52,113.7c0,0,34.8-14.5,0-29.8
			c-17-7.5-20.4-23-20-42.5"/>
		<path id="XMLID_30391_" class="st2" d="M911.4,82.7c0,0,24.8,6.9,21.7-19.4c-3-26.2-33-13.2-33-13.2"/>
	</g>
	<g id="XMLID_30387_">
		<path id="XMLID_30389_" class="st2" d="M1036.5,63.7c-36.8,35.4-4.9,73.5-4.9,73.5c5.1,7.7,51.2,23.6,61.6,8.7l0,0
			c10.4-14.9-0.5-23.7-6.8-28.8c-4.9-4-13.8-1.8-17.5-0.6c-1.1,0.3-1.7,0.6-1.7,0.6c-7.6,2.3-15.2,0.6-14.8-8.8
			c0,0-0.8-7.2,1.2-13.1l0,0c0,0,1.3-5.3,4.8-7.3c1.4-0.8,3.2-1.1,5.3-0.4c0.1,0,0.2,0.1,0.4,0.1c1,0.3,2.2,0.5,3.5,0.7
			c9,1.4,23.8-0.1,24.8-12.3c1.2-14.1-2.1-15.1-4.2-17.5c0,0,0,0,0,0c-2.1-2.5-8-3.6-8-3.6l0,0C1065.5,49.6,1049.4,51.2,1036.5,63.7
			z"/>
		<path id="XMLID_30388_" class="st2" d="M1079,144.8c3.7,7.7,11.2,16.5,25.9,10.1c24-10.5,12.2-124.3,1.1-133.1
			c-10.8-8.6-40.6-60.3-30.9,101.1"/>
	</g>
	<g id="XMLID_30306_">
		<path id="XMLID_30308_" class="st2" d="M591.8,261.5c0,0-8.9-6.2-12.7-1.4c-3.8,4.9-10.4,13.1-2.6,29.3c7.8,16.2,37,2.8,39.8-4.7"
			/>
		<path id="XMLID_30307_" class="st2" d="M624.5,275.4L624.5,275.4c-5.4-14.4-17.2-25.7-35.2-27.5c-36-3.6-50.8,19.7-56.4,33.9
			c0,0-1.3,2.1-2.2,6.3c-0.7,2.5-0.9,4.6-0.8,5.5c-0.5,7.8,0.8,19.3,8,34.6c5.9,12.4,21,16.9,31,18.5c2.8,0.6,5.9,0.9,9.1,0.9
			c0.2,0,0.3,0,0.3,0l0,0c3.5-0.1,7.2-0.5,11.2-1.4c15.8-3.6,26.6-13.7,32.7-26.1c-1-14.3-13.3-16.1-20.7-17.2
			c-4-0.6-8.2,1.9-11.3,4.5c-0.3,0.3-0.7,0.6-1,0.8c-10.6,7.9-38.5-7.6-23.9-19.1c0,0,5-5.3,10.8-7.7h0c0,0,4.9-2.5,8.8-1.1
			c1.5,0.5,2.9,1.7,3.8,3.8c0,0.1,0.1,0.2,0.2,0.3c0.4,1,1,2,1.7,3.2c4.8,7.8,15.6,18.2,25.6,11c11.5-8.3,10.2-11.5,10.7-14.7l0,0
			C627.4,280.6,624.5,275.4,624.5,275.4z"/>
	</g>
	<g id="XMLID_30299_">
		<path id="XMLID_30305_" class="st2" d="M482.9,279.7"/>
		<path id="XMLID_30302_" class="st2" d="M509.2,274.2c-41.9-30.8-74.7,7.9-74.7,7.9s-26.9,61.6,24.3,77.8
			C510,376.2,551.1,305,509.2,274.2z M490,318.2c-12.8,33.3-52.1-18.9-24.1-22.7C466,295.5,502.8,285,490,318.2z"/>
		<path id="XMLID_30301_" class="st2" d="M493,269.6"/>
		<path id="XMLID_30300_" class="st2" d="M493,267.5c0,0,33.2-31.7,34,27.9s11.9,114.1-52,113.7c0,0-34.8-14.5,0-29.8
			c17-7.5,20.4-23,20-42.5"/>
	</g>
	<g id="XMLID_30295_">
		<g id="XMLID_30297_">
			<path id="XMLID_30298_" class="st2" d="M414.3,283.2c0,0,6.8-35.6-23.2-25.5c-30.1,10.1-11.9,88.1,4,84.8
				C410.9,339.1,418.3,326.6,414.3,283.2z"/>
		</g>
		<path id="XMLID_30296_" class="st2" d="M397.9,209.2c0,0,33.8,19.4,0.5,33.7C365.1,257.2,375.2,191.5,397.9,209.2z"/>
	</g>
	<g id="XMLID_30292_">
		<path id="XMLID_30294_" class="st2" d="M310,258.7c0,0-4.1-20-23.7-13c-19.6,7-10,82.9-0.9,88.7
			C294.5,340.3,319.8,376.4,310,258.7z"/>
		<path id="XMLID_30293_" class="st2" d="M305.5,295c0,0,34.4-34,27.4,29.5c0,0,8.2,19.6,24.1,11.5c16-8.2,18.4-108.9-58.5-80.6"/>
	</g>
	<path id="XMLID_30291_" class="st2" d="M634.2,334c0,0,5,30,29,19.4c24-10.5,12.2-124.3,1.1-133.1
		C653.2,211.6,622.2,157.4,634.2,334z"/>
	<path id="XMLID_30288_" class="st2" d="M769.2,249.3c-51.2,16.3-24.3,77.8-24.3,77.8s32.7,38.6,74.7,7.9
		C861.5,304.2,820.4,233,769.2,249.3z M776.3,313.7c-28-3.8,11.3-56,24.1-22.7C813.2,324.2,776.3,313.7,776.3,313.7z"/>
	<g id="XMLID_30285_">
		<path id="XMLID_30287_" class="st2" d="M866.8,218.6c0,0-5.3-30-30.5-19.4s-12.8,124.3-1.1,133.1
			C846.8,341,879.4,395.2,866.8,218.6z"/>
		<path id="XMLID_30286_" class="st2" d="M860.3,283.2c0,0,42-41.5,33.5,36c0,0,10,24,29.5,14s22.5-133-71.5-98.5"/>
	</g>
	<g>
		<path id="XMLID_30284_" class="st2" d="M732.1,194.2c0,0,33.8,19.4,0.5,33.7C699.3,242.2,709.5,176.5,732.1,194.2z"/>
		<path id="XMLID_30283_" class="st2" d="M714.4,249.3c0,0,33.2-31.7,34,27.9s11.9,114.1-52,113.7c0,0-34.8-14.5,0-29.8
			c17-7.5,20.4-23,20-42.5"/>
	</g>
	<g id="XMLID_30280_">
		<path id="XMLID_30282_" class="st2" d="M948,261.3c0,0-4.1-20-23.7-13c-19.6,7-10,82.9-0.9,88.7C932.5,343,957.8,379.1,948,261.3z
			"/>
		<path id="XMLID_30281_" class="st2" d="M943.5,297.7c0,0,34.4-34,27.4,29.5c0,0,8.2,19.6,24.1,11.5c16-8.2,18.4-108.9-58.5-80.6"
			/>
	</g>
	<g id="XMLID_30276_">
		<path id="XMLID_30279_" class="st2" d="M1049.1,281.5c0,0,17.3-0.9,15.4-15.4c-1.5-11.5-49.9-32.5-69.7-7.4
			c-5.2,6.5-8.4,16.2-8.3,30c0,0,0,0.1,0,0.1c1.4,4.7,3.9,8.7,7.1,12c1.2,1.3,2.5,2.4,3.7,3.3c8.9,6.8,21.4,9.8,32.4,10.1
			c-1.6,6.2-9,9.7-32.7-1.8c0,0-17.3,0.9-15.4,15.4c1.5,11.5,50,32.5,69.8,7.4c5.2-6.6,8.4-16.2,8.3-30c0,0,0-0.1,0-0.1
			c-1.4-4.8-3.9-8.7-7.1-12c-1.2-1.3-2.5-2.4-3.7-3.3c-8.9-6.8-21.4-9.8-32.4-10.1C1018,273.4,1025.5,269.9,1049.1,281.5z"/>
		<path id="XMLID_30278_" class="st2" d="M1027.2,299.3c0,0,16.6,35.8-30.2,13c0,0-17.3,0.9-15.4,15.4c1.9,14.5,78.5,44.1,78-22.8"
			/>
		<path id="XMLID_30277_" class="st2" d="M1018.9,294.4c0,0-16.6-35.8,30.2-13c0,0,17.3-0.9,15.4-15.4c-1.9-14.5-78.5-44.1-78,22.8"
			/>
	</g>
	<path id="XMLID_30273_" class="st2" d="M1078.2,249.3c-51.2,16.3-24.3,77.8-24.3,77.8s32.7,38.6,74.7,7.9
		C1170.5,304.2,1129.4,233,1078.2,249.3z M1085.3,313.7c-28-3.8,11.3-56,24.1-22.7C1122.2,324.2,1085.3,313.7,1085.3,313.7z"/>
	<g id="XMLID_30270_">
		<path id="XMLID_30272_" class="st2" d="M1159,261.3c0,0-4.1-20-23.7-13c-19.6,7-10,82.9-0.9,88.7
			C1143.5,343,1168.8,379.1,1159,261.3z"/>
		<path id="XMLID_30271_" class="st2" d="M1154.5,297.7c0,0,34.4-34,27.4,29.5c0,0,8.2,19.6,24.1,11.5c16-8.2,18.4-108.9-58.5-80.6"
			/>
	</g>
	<path id="XMLID_30200_" class="st2" d="M624.5,148.4c-41.1-28.9-15.7-70.8-15.7-70.8c3.8-8.2,46.3-30.6,58.6-17.6l0,0
		c12.3,13,3,23.1-2.4,29c-4.2,4.6-13.2,3.8-17,3.2c-1.1-0.2-1.8-0.3-1.8-0.3c-7.7-1.1-14.9,1.6-13.1,10.8c0,0,0.3,7.1,3.1,12.6l0,0
		c0,0,2,4.9,5.8,6.4c1.5,0.6,3.2,0.6,5.3-0.4c0.1-0.1,0.2-0.1,0.3-0.2c0.9-0.4,2-0.9,3.3-1.2c8.6-2.7,23.2-3.4,25.9,8.2
		c3.2,13.5,0.2,15-1.5,17.7c0,0,0,0,0,0c-1.7,2.7-7.2,4.7-7.2,4.7l0,0C654.9,157.8,639,158.6,624.5,148.4z"/>
	<g id="XMLID_30197_">
		<path id="XMLID_30199_" class="st2" d="M482.5,63.3c-36.8,35.4-4.9,73.5-4.9,73.5c5.1,7.7,51.2,23.6,61.6,8.7l0,0
			c10.4-14.9-0.5-23.7-6.8-28.8c-4.9-4-13.8-1.8-17.5-0.6c-1.1,0.3-1.7,0.6-1.7,0.6c-7.6,2.3-15.2,0.6-14.8-8.8
			c0,0-0.8-7.2,1.2-13.1l0,0c0,0,1.3-5.3,4.8-7.3c1.4-0.8,3.2-1.1,5.3-0.4c0.1,0,0.2,0.1,0.4,0.1c1,0.3,2.2,0.5,3.5,0.7
			c9,1.4,23.8-0.1,24.8-12.3c1.2-14.1-2.1-15.1-4.2-17.5c0,0,0,0,0,0c-2.1-2.5-8-3.6-8-3.6l0,0C511.5,49.1,495.4,50.8,482.5,63.3z"
			/>
		<path id="XMLID_30198_" class="st2" d="M525,144.4c3.7,7.7,11.2,16.5,25.9,10.1c24-10.5,12.2-124.3,1.1-133.1
			c-10.8-8.6-40.6-60.3-30.9,101.1"/>
	</g>
	<g id="XMLID_30194_">
		<path id="XMLID_30196_" class="st2" d="M866.1,147.7c0,0-33.2,31.7-34-27.9S820.2,5.7,884.1,6.1c0,0,34.8,14.5,0,29.8
			c-17,7.5-20.4,23-20,42.5"/>
		<path id="XMLID_30195_" class="st2" d="M852.5,96.7c20-1.7,35.4-6.6,36.7-18c0,0-0.5-12.7-16.1-13.2c0,0-3.8,0-9.9-0.1"/>
	</g>
	<g id="XMLID_30186_">
		<g id="XMLID_30188_">
			<path id="XMLID_30193_" class="st2" d="M321.3,73.2"/>
			<path id="XMLID_30190_" class="st2" d="M348.1,67c-42.7-31.3-76,8-76,8s-27.3,62.7,24.8,79.3C348.9,170.8,390.8,98.3,348.1,67z
				 M328.7,98.5c14.7,33.1-51.1,23.8-33.7,1C295.1,99.5,314,65.4,328.7,98.5z"/>
			<path id="XMLID_30189_" class="st2" d="M331.3,63"/>
		</g>
		<path id="XMLID_30187_" class="st2" d="M329.4,140.7c0,0,3.8,25.4,26.5,12s-1.2-35.5-1.2-35.5"/>
	</g>
	<g id="XMLID_30183_">
		<path id="XMLID_30185_" class="st2" d="M200.8,28.3c0,0-5.3-30-30.5-19.4s-12.8,124.3-1.1,133.1
			C180.8,150.8,213.4,204.9,200.8,28.3z"/>
		<path id="XMLID_30184_" class="st2" d="M194.3,92.9c0,0,42-41.5,33.5,36c0,0,10,24,29.5,14s22.5-133-71.5-98.5"/>
	</g>
	<g id="XMLID_30180_">
		<path id="XMLID_30182_" class="st2" d="M411,71.1c0,0-4.1-20-23.7-13s-10,82.9-0.9,88.7C395.5,152.7,420.8,188.8,411,71.1z"/>
		<path id="XMLID_30181_" class="st2" d="M406.5,107.5c0,0,34.4-34,27.4,29.5c0,0,8.2,19.6,24.1,11.5c16-8.2,18.4-108.9-58.5-80.6"
			/>
	</g>
	<g id="XMLID_30177_">
		<path id="XMLID_30179_" class="st2" d="M752.3,67.6c0,0-54.3-37.3-77.7,28.6c-23.4,66,33.6,76.3,32.3,36.2s12.4-43.4,28.2-37.2
			C750.9,101.4,773.1,94.8,752.3,67.6z"/>
		<path id="XMLID_30178_" class="st2" d="M706.1,71.5c0,0-3.6-24.7-25.7-11.7c-22.1,13,1.2,34.5,1.2,34.5"/>
	</g>
	<g id="XMLID_30169_">
		<g id="XMLID_30171_">
			<path id="XMLID_30176_" class="st2" d="M796,72.6"/>
			<path id="XMLID_30173_" class="st2" d="M822.8,66.4c-42.7-31.3-76,8-76,8s-27.3,62.7,24.8,79.3
				C823.6,170.2,865.5,97.7,822.8,66.4z M803.5,98c14.7,33.1-51.1,23.8-33.7,1C769.8,98.9,788.7,64.8,803.5,98z"/>
			<path id="XMLID_30172_" class="st2" d="M806.1,62.4"/>
		</g>
		<path id="XMLID_30170_" class="st2" d="M804.1,140.2c0,0,3.8,25.4,26.5,12s-1.2-35.5-1.2-35.5"/>
	</g>
	<g id="XMLID_30166_">
		<path id="XMLID_30168_" class="st2" d="M1223.5,66.1c36.8,35.4,4.9,73.5,4.9,73.5c-5.1,7.7-51.2,23.6-61.6,8.7l0,0
			c-10.4-14.9,0.5-23.7,6.8-28.8c4.9-4,13.8-1.8,17.5-0.6c1.1,0.3,1.7,0.6,1.7,0.6c7.6,2.3,15.2,0.6,14.8-8.8c0,0,0.8-7.2-1.2-13.1
			v0c0,0-1.3-5.3-4.8-7.3c-1.4-0.8-3.2-1.1-5.3-0.4c-0.1,0-0.2,0.1-0.4,0.1c-1,0.3-2.2,0.5-3.5,0.7c-9,1.4-23.8-0.1-24.8-12.3
			c-1.2-14.1,2.1-15.1,4.2-17.5c0,0,0,0,0,0c2.1-2.5,8-3.6,8-3.6l0,0C1194.4,52,1210.5,53.6,1223.5,66.1z"/>
		<path id="XMLID_30167_" class="st2" d="M1187.7,82.8c-0.3,14.9-1.2,32.5-2.7,53.3c0,0-5.3,30-30.5,19.4
			c-25.2-10.5-12.8-124.3-1.1-133.1c9.5-7.2,32.8-44.2,34.4,36.8"/>
	</g>
	<g id="XMLID_30163_">
		<path id="XMLID_30165_" class="st2" d="M1285.4,84.3c0,0-2-35-25.7-24.7s-10.4,109.5,49.8,95.2c60.2-14.3,35.9-92.2,35.9-92.2
			s-25-22.3-29.5,16.2c0,0-1.3,25.8-13.1,27.9C1291.2,108.8,1284.3,90.7,1285.4,84.3z"/>
		<path id="XMLID_30164_" class="st2" d="M1315.5,142.2c0,0,5.8,42-17.5,48.3s-20.4,32.3,5.5,31c25.9-1.3,52.6-22,41.2-142"/>
	</g>
</g>
</svg>
