<?xml version="1.0" encoding="utf-8"?>
<!-- Generator: Adobe Illustrator 22.1.0, SVG Export Plug-In . SVG Version: 6.00 Build 0)  -->
<svg version="1.1" id="Layer_1" xmlns="http://www.w3.org/2000/svg" xmlns:xlink="http://www.w3.org/1999/xlink" x="0px" y="0px"
	 viewBox="0 0 100 100" style="enable-background:new 0 0 100 100;" xml:space="preserve">
<style type="text/css">
	.st0{opacity:0.1;enable-background:new    ;}
	.st1{fill:#231F20;stroke:#231F20;stroke-miterlimit:10;}
	.st2{fill:none;stroke:#231F20;stroke-miterlimit:10;}
	.st3{fill:#FFD767;stroke:#584C4F;stroke-width:2;stroke-miterlimit:10;}
	.st4{fill:#FFFAF2;stroke:#584C4F;stroke-width:2;stroke-miterlimit:10;}
	.st5{fill:none;stroke:#584C4F;stroke-width:2;stroke-miterlimit:10;}
</style>
<g>
	<g class="st0">
		<g>
			<path class="st1" d="M75,59c4.8-5.3,8.6-10.4,3.6-15.5c-1.1-1.1-5.7-5.6-6.6-6.6c-3.1-3.6-10.6-7.2-25.1-10.8
				c-34.3-8.6-21.4,26.2-21.4,26.2c0.9,8.6,4,14.1,7.8,17.1c0.8,0.7,4.6,4.8,5.9,6c7.6,7.6,18.9,3.1,17.6-9.3
				C54.7,48.7,66.9,68.1,75,59z"/>
			<g id="XMLID_9_">
				<path id="XMLID_10_" class="st1" d="M25.4,52.3c0,0-12.9-34.8,21.4-26.2s29,16.7,21,25.7s-20.3-10.3-18.4,7.1
					C51.4,76.3,28.2,78.4,25.4,52.3z"/>
			</g>
		</g>
		<line id="XMLID_8_" class="st2" x1="31.1" y1="59.6" x2="32.3" y2="62.8"/>
		<path id="XMLID_7_" class="st1" d="M44.4,73.8c0,0,3.9,2.9,4.7,2.4"/>
		<path id="XMLID_6_" class="st1" d="M53.1,54.7c0,0,1.6,1.8,2.5,1.7"/>
	</g>
	<g>
		<g>
			<path class="st3" d="M71,55.2c4.8-5.3,8.6-10.4,3.6-15.5C73.5,38.5,68.9,34,68,33c-3.1-3.6-10.6-7.2-25.1-10.8
				C8.7,13.6,21.6,48.4,21.6,48.4c0.9,8.6,4,14.1,7.8,17.1c0.8,0.7,4.6,4.8,5.9,6c7.6,7.6,18.9,3.1,17.6-9.3
				C50.7,44.8,63,64.2,71,55.2z"/>
			<g id="XMLID_4_">
				<path id="XMLID_5_" class="st4" d="M21.5,48.4c0,0-12.9-34.8,21.4-26.2s29,16.7,21,25.7S43.6,37.7,45.4,55
					C47.4,72.4,24.2,74.5,21.5,48.4z"/>
			</g>
		</g>
		<line id="XMLID_3_" class="st5" x1="27.2" y1="55.7" x2="28.4" y2="58.9"/>
		<path id="XMLID_2_" class="st4" d="M40.4,69.9c0,0,3.9,2.9,4.7,2.4"/>
		<path id="XMLID_1_" class="st4" d="M49.2,50.8c0,0,1.6,1.8,2.5,1.7"/>
	</g>
</g>
</svg>
