<?xml version="1.0" encoding="utf-8"?>
<!-- Generator: Adobe Illustrator 22.1.0, SVG Export Plug-In . SVG Version: 6.00 Build 0)  -->
<svg version="1.1" id="Layer_1" xmlns="http://www.w3.org/2000/svg" xmlns:xlink="http://www.w3.org/1999/xlink" x="0px" y="0px"
	 viewBox="0 0 145.8 325.8" style="enable-background:new 0 0 145.8 325.8;" xml:space="preserve">
<style type="text/css">
	.st0{opacity:0.1;}
	.st1{fill:#584C4F;stroke:#584C4F;stroke-width:2;stroke-linecap:round;stroke-miterlimit:10;}
	.st2{fill:#A36B78;stroke:#584C4F;stroke-linecap:round;stroke-miterlimit:10;}
</style>
<g class="st0">
	<g id="XMLID_31754_">
		<path id="XMLID_31755_" class="st1" d="M12,80.7c0,0-0.5,0.1,1.1,0.1c50.1,0.1,129.7,0,129.7,0c1.6,0,1.1-0.1,1.1-0.1
			c2-2,0-5.6,0-5.6s0.5-0.1-1.1-0.1C65,74.9,12.2,75,12.2,75c-1.6,0-1.1,0.1-1.1,0.1S10.9,78.2,12,80.7z"/>
	</g>
	<g id="XMLID_31752_">
		<path id="XMLID_31753_" class="st1" d="M12,35.7c0,0-0.5,0.1,1.1,0.1c50.1,0.1,129.7,0,129.7,0c1.6,0,1.1-0.1,1.1-0.1
			c2-2,0-5.6,0-5.6s0.5-0.1-1.1-0.1C65,29.9,12.2,30,12.2,30c-1.6,0-1.1,0.1-1.1,0.1S10.9,33.2,12,35.7z"/>
	</g>
	<g id="XMLID_31750_">
		<path id="XMLID_31751_" class="st1" d="M12,125.7c0,0-0.5,0.1,1.1,0.1c50.1,0.1,129.7,0,129.7,0c1.6,0,1.1-0.1,1.1-0.1
			c2-2,0-5.6,0-5.6s0.5-0.1-1.1-0.1c-77.8-0.1-130.6,0-130.6,0c-1.6,0-1.1,0.1-1.1,0.1S10.9,123.2,12,125.7z"/>
	</g>
	<g id="XMLID_31748_">
		<path id="XMLID_31749_" class="st1" d="M12,170.7c0,0-0.5,0.1,1.1,0.1c50.1,0.1,129.7,0,129.7,0c1.6,0,1.1-0.1,1.1-0.1
			c2-2,0-5.6,0-5.6s0.5-0.1-1.1-0.1c-77.8-0.1-130.6,0-130.6,0c-1.6,0-1.1,0.1-1.1,0.1S10.9,168.2,12,170.7z"/>
	</g>
	<g id="XMLID_31746_">
		<path id="XMLID_31747_" class="st1" d="M12,125.7c0,0-0.5,0.1,1.1,0.1c50.1,0.1,129.7,0,129.7,0c1.6,0,1.1-0.1,1.1-0.1
			c2-2,0-5.6,0-5.6s0.5-0.1-1.1-0.1c-77.8-0.1-130.6,0-130.6,0c-1.6,0-1.1,0.1-1.1,0.1S10.9,123.2,12,125.7z"/>
	</g>
	<g id="XMLID_31744_">
		<path id="XMLID_31745_" class="st1" d="M12,215.7c0,0-0.5,0.1,1.1,0.1c50.1,0.1,129.7,0,129.7,0c1.6,0,1.1-0.1,1.1-0.1
			c2-2,0-5.6,0-5.6s0.5-0.1-1.1-0.1c-77.8-0.1-130.6,0-130.6,0c-1.6,0-1.1,0.1-1.1,0.1S10.9,213.2,12,215.7z"/>
	</g>
	<g id="XMLID_31741_">
		<path id="XMLID_31743_" class="st1" d="M25.8,13c0-1.6-0.1-1.1-0.1-1.1c-2-2-5.6,0-5.6,0S20,11.4,20,13
			c-0.1,51.2-0.1,91.6,0,113.2c-0.1,40.2,0,71.7,0,90c-0.1,64.9,0,107.4,0,107.4c0,1.6,0.1,1.1,0.1,1.1s3.1,0.1,5.6-0.9
			c0,0,0.1,0.5,0.1-1.1c0-32,0-76,0-103.6c0-30,0-66.1,0-90C25.9,79.4,25.8,13,25.8,13z"/>
		<path id="XMLID_31742_" class="st1" d="M135.8,126.2c0-21.6,0.1-62,0-113.2c0-1.6-0.1-1.1-0.1-1.1s-3.7-2-5.6,0
			c0,0-0.1-0.5-0.1,1.1c0,0-0.1,66.4,0,116.1c0,23.9,0,60,0,90c0,27.7,0,71.7,0,103.7c0,1.6,0.1,1.1,0.1,1.1c2.6,1,5.6,0.9,5.6,0.9
			s0.1,0.5,0.1-1.1c0,0,0.1-42.5,0-107.4C135.8,198,135.9,166.4,135.8,126.2z"/>
	</g>
	<g id="XMLID_31739_">
		<path id="XMLID_31740_" class="st1" d="M12,260.7c0,0-0.5,0.1,1.1,0.1c50.1,0.1,129.7,0,129.7,0c1.6,0,1.1-0.1,1.1-0.1
			c2-2,0-5.6,0-5.6s0.5-0.1-1.1-0.1c-77.8-0.1-130.6,0-130.6,0c-1.6,0-1.1,0.1-1.1,0.1S10.9,258.2,12,260.7z"/>
	</g>
	<g id="XMLID_31737_">
		<path id="XMLID_31738_" class="st1" d="M12,215.7c0,0-0.5,0.1,1.1,0.1c50.1,0.1,129.7,0,129.7,0c1.6,0,1.1-0.1,1.1-0.1
			c2-2,0-5.6,0-5.6s0.5-0.1-1.1-0.1c-77.8-0.1-130.6,0-130.6,0c-1.6,0-1.1,0.1-1.1,0.1S10.9,213.2,12,215.7z"/>
	</g>
	<g id="XMLID_31735_">
		<path id="XMLID_31736_" class="st1" d="M12,305.7c0,0-0.5,0.1,1.1,0.1c50.1,0.1,129.7,0,129.7,0c1.6,0,1.1-0.1,1.1-0.1
			c2-2,0-5.6,0-5.6s0.5-0.1-1.1-0.1c-77.8-0.1-130.6,0-130.6,0c-1.6,0-1.1,0.1-1.1,0.1S10.9,303.2,12,305.7z"/>
	</g>
</g>
<g id="XMLID_20_">
	<path id="XMLID_21_" class="st2" d="M2,70.7c0,0-0.5,0.1,1.1,0.1c50.1,0.1,129.7,0,129.7,0c1.6,0,1.1-0.1,1.1-0.1c2-2,0-5.6,0-5.6
		s0.5-0.1-1.1-0.1C55,64.9,2.2,65,2.2,65c-1.6,0-1.1,0.1-1.1,0.1S0.9,68.2,2,70.7z"/>
</g>
<g id="XMLID_18_">
	<path id="XMLID_19_" class="st2" d="M2,25.7c0,0-0.5,0.1,1.1,0.1c50.1,0.1,129.7,0,129.7,0c1.6,0,1.1-0.1,1.1-0.1c2-2,0-5.6,0-5.6
		s0.5-0.1-1.1-0.1C55,19.9,2.2,20,2.2,20c-1.6,0-1.1,0.1-1.1,0.1S0.9,23.2,2,25.7z"/>
</g>
<g id="XMLID_16_">
	<path id="XMLID_17_" class="st2" d="M2,115.7c0,0-0.5,0.1,1.1,0.1c50.1,0.1,129.7,0,129.7,0c1.6,0,1.1-0.1,1.1-0.1c2-2,0-5.6,0-5.6
		s0.5-0.1-1.1-0.1C55,109.9,2.2,110,2.2,110c-1.6,0-1.1,0.1-1.1,0.1S0.9,113.2,2,115.7z"/>
</g>
<g id="XMLID_14_">
	<path id="XMLID_15_" class="st2" d="M2,160.7c0,0-0.5,0.1,1.1,0.1c50.1,0.1,129.7,0,129.7,0c1.6,0,1.1-0.1,1.1-0.1c2-2,0-5.6,0-5.6
		s0.5-0.1-1.1-0.1C55,154.9,2.2,155,2.2,155c-1.6,0-1.1,0.1-1.1,0.1S0.9,158.2,2,160.7z"/>
</g>
<g id="XMLID_12_">
	<path id="XMLID_13_" class="st2" d="M2,115.7c0,0-0.5,0.1,1.1,0.1c50.1,0.1,129.7,0,129.7,0c1.6,0,1.1-0.1,1.1-0.1c2-2,0-5.6,0-5.6
		s0.5-0.1-1.1-0.1C55,109.9,2.2,110,2.2,110c-1.6,0-1.1,0.1-1.1,0.1S0.9,113.2,2,115.7z"/>
</g>
<g id="XMLID_10_">
	<path id="XMLID_11_" class="st2" d="M2,205.7c0,0-0.5,0.1,1.1,0.1c50.1,0.1,129.7,0,129.7,0c1.6,0,1.1-0.1,1.1-0.1c2-2,0-5.6,0-5.6
		s0.5-0.1-1.1-0.1C55,199.9,2.2,200,2.2,200c-1.6,0-1.1,0.1-1.1,0.1S0.9,203.2,2,205.7z"/>
</g>
<g id="XMLID_7_">
	<path id="XMLID_9_" class="st2" d="M15.8,3c0-1.6-0.1-1.1-0.1-1.1c-2-2-5.6,0-5.6,0S10,1.4,10,3C9.9,54.2,10,94.6,10,116.2
		c-0.1,40.2,0,71.7,0,90c-0.1,64.9,0,107.4,0,107.4c0,1.6,0.1,1.1,0.1,1.1s3.1,0.1,5.6-0.9c0,0,0.1,0.5,0.1-1.1c0-32,0-76,0-103.6
		c0-30,0-66.1,0-90C15.9,69.4,15.8,3,15.8,3z"/>
	<path id="XMLID_8_" class="st2" d="M125.8,116.2c0-21.6,0.1-62,0-113.2c0-1.6-0.1-1.1-0.1-1.1s-3.7-2-5.6,0c0,0-0.1-0.5-0.1,1.1
		c0,0-0.1,66.4,0,116.1c0,23.9,0,60,0,90c0,27.7,0,71.7,0,103.7c0,1.6,0.1,1.1,0.1,1.1c2.6,1,5.6,0.9,5.6,0.9s0.1,0.5,0.1-1.1
		c0,0,0.1-42.5,0-107.4C125.8,188,125.9,156.4,125.8,116.2z"/>
</g>
<g id="XMLID_5_">
	<path id="XMLID_6_" class="st2" d="M2,250.7c0,0-0.5,0.1,1.1,0.1c50.1,0.1,129.7,0,129.7,0c1.6,0,1.1-0.1,1.1-0.1c2-2,0-5.6,0-5.6
		s0.5-0.1-1.1-0.1C55,244.9,2.2,245,2.2,245c-1.6,0-1.1,0.1-1.1,0.1S0.9,248.2,2,250.7z"/>
</g>
<g id="XMLID_3_">
	<path id="XMLID_4_" class="st2" d="M2,205.7c0,0-0.5,0.1,1.1,0.1c50.1,0.1,129.7,0,129.7,0c1.6,0,1.1-0.1,1.1-0.1c2-2,0-5.6,0-5.6
		s0.5-0.1-1.1-0.1C55,199.9,2.2,200,2.2,200c-1.6,0-1.1,0.1-1.1,0.1S0.9,203.2,2,205.7z"/>
</g>
<g id="XMLID_1_">
	<path id="XMLID_2_" class="st2" d="M2,295.7c0,0-0.5,0.1,1.1,0.1c50.1,0.1,129.7,0,129.7,0c1.6,0,1.1-0.1,1.1-0.1c2-2,0-5.6,0-5.6
		s0.5-0.1-1.1-0.1C55,289.9,2.2,290,2.2,290c-1.6,0-1.1,0.1-1.1,0.1S0.9,293.2,2,295.7z"/>
</g>
</svg>
