<?xml version="1.0" encoding="utf-8"?>
<!-- Generator: Adobe Illustrator 22.1.0, SVG Export Plug-In . SVG Version: 6.00 Build 0)  -->
<svg version="1.1" id="Layer_1" xmlns="http://www.w3.org/2000/svg" xmlns:xlink="http://www.w3.org/1999/xlink" x="0px" y="0px"
	 viewBox="0 0 203 138.4" style="enable-background:new 0 0 203 138.4;" xml:space="preserve">
<style type="text/css">
	.st0{fill:#FCF4E9;stroke:#221F1F;stroke-miterlimit:10;}
</style>
<path class="st0" d="M154.1,35.2C137.8,10,107.3-7,73.6,3.8C36.7,15.5,29.3,44.4,30.6,69.2c-2.8,0.1-5.7,0.7-8.6,1.6
	C-13.1,82,5.3,124.3,5.3,124.3s22.5,26.5,51.3,5.4c1.2-0.9,2.3-1.8,3.3-2.8c15.4,9.3,38.7,16.9,65.9,4.6c14,7.4,35,11.6,58.8-5.9
	C221.8,98.3,195.7,40.3,154.1,35.2z"/>
<path class="st0" d="M66.4,117.5c-1.4,3.4-3.5,6.5-6.4,9.4"/>
<path class="st0" d="M125.9,131.5c5.5-2.5,11.1-5.7,16.8-10c1.1-0.8,2.2-1.7,3.2-2.5"/>
<line id="XMLID_3801_" class="st0" x1="18.4" y1="122.5" x2="21.5" y2="123.8"/>
<path id="XMLID_3800_" class="st0" d="M154.8,70.1c0,0,1.2,8.7-0.7,12.5"/>
<path id="XMLID_3799_" class="st0" d="M49.7,82.4c0,0,1-4.3,0-4.3"/>
<path id="XMLID_3772_" class="st0" d="M113.7,113.1c0,0,4.7-0.7,5-1.6"/>
</svg>
