<?xml version="1.0" encoding="utf-8"?>
<!-- Generator: Adobe Illustrator 22.1.0, SVG Export Plug-In . SVG Version: 6.00 Build 0)  -->
<svg version="1.1" id="Layer_1" xmlns="http://www.w3.org/2000/svg" xmlns:xlink="http://www.w3.org/1999/xlink" x="0px" y="0px"
	 viewBox="0 0 259.2 642.9" style="enable-background:new 0 0 259.2 642.9;" xml:space="preserve">
<style type="text/css">
	.st0{fill:#A36B78;stroke:#584C4F;stroke-width:2;stroke-linecap:round;stroke-miterlimit:10;}
	.st1{fill:#A36B78;stroke:#584C4F;stroke-width:2;stroke-linecap:round;stroke-linejoin:round;stroke-miterlimit:10;}
	.st2{fill:#FFD767;stroke:#584C4F;stroke-width:2;stroke-miterlimit:10;}
	.st3{fill:#A36B78;}
	.st4{fill:none;stroke:#584C4F;stroke-width:2;stroke-linecap:round;stroke-miterlimit:10;}
	.st5{fill:#BEAB72;}
	.st6{fill:#584C4F;stroke:#584C4F;stroke-width:2;stroke-linecap:round;stroke-miterlimit:10;}
	.st7{opacity:0.1;fill:#231F20;stroke:#231F20;stroke-miterlimit:10;enable-background:new    ;}
	.st8{fill:#FFFFFF;stroke:#584C4F;stroke-width:2;stroke-linecap:round;stroke-miterlimit:10;}
</style>
<g id="Layer_5">
</g>
<g id="Layer_3">
</g>
<g>
	<g>
		<g>
			<g id="XMLID_12099_">
				<path id="XMLID_12100_" class="st0" d="M112.4,491.1c-7.6,2.1-7.5-11,1.2-8.5"/>
			</g>
			<path id="XMLID_12060_" class="st0" d="M107,395.9c1.7,34.8,3.1,77.6,4.2,99.8c2.1,40.2-1.2,99.4-1.2,99.4l16.9-1.5
				c0,0-3.4-104.4,0-126.3c2.4-15.7-1.8-73.9-3.2-107.9"/>
			<g id="XMLID_12058_">
				<path id="XMLID_12059_" class="st0" d="M127,591.5c6.9,7.2,9,9.6,12.8,19c3.8,9.4-9.9-13.5-9.1-10.1c0.8,3.4,13.6,68.7,3.1,28.5
					c-10.5-40.1-6.4-14.5-6.4-14.5c0,55-4.4,11-5.8,4.2c-1.3-6.9-10.4,36.7-8.8,15.1c1.7-21.5-0.1-23.4-3.6-5.4
					c-3.6,18-1.7-24.3-1.7-24.3s0.8-13.2,4.1-12.1"/>
			</g>
			<path id="XMLID_12057_" class="st0" d="M117.5,483.1c0,0,2.8,0.6,3,1.2"/>
			<path id="XMLID_12056_" class="st0" d="M117.1,489.8c0,0-2.2,0.4-2.8-1.4"/>
			<path id="XMLID_12055_" class="st1" d="M113.7,579.9c0,0-13.6,9.2,0,9.9"/>
		</g>
		<path id="XMLID_12054_" class="st2" d="M131,394.8c2.2,4.2-4.1,60.7-3.8,65.6c0.3,4.9-1.6,5.5-15.3,5s-7-90.3-1.5-98.5
			c2-2.9,9.6-5.6,18.7-8"/>
		<path class="st0" d="M220.7,518.5l-111-4.2c0,0,0.5,29.5,1.3,40.7c0.1,1,0.1,2.1,0.2,3.1c0.1,0.4,0.1,0.7,0.2,0.9l0.1,0
			c3.1,17,22.5,32,53.2,32.5c50.1,0.8,51.4-14.5,51.4-14.5c2.4-4.5,3.9-8.9,4.4-13c0.1,0,0.2,0,0.2,0S222.5,527.4,220.7,518.5z"/>
		<g>
			<path class="st2" d="M227.1,490.8c-0.1-0.8-0.2-1.5-0.3-2.2c-0.9-6-1.6-10.5-1.9-11.9c-1.4-7.3-4.4-87.8-5.9-101
				c-0.1-0.5-0.1-0.9-0.2-1.3c-0.8-3.7-3.3-6.7-6.4-9c-4.2-3.2-9.5-5.2-13-6.2c-6.7-5.6-20.4-9.4-39.2-8.5
				c-17.8,0.8-45.2,1-46.5,27.9c-0.2,3-0.2,6.5-0.1,10.4c1.4,36.2,1.4,95-2.3,110.6c-0.2,0.8-0.4,1.5-0.6,2
				c-3.2,8.5-7.1,29.9-3,37.9c0.1,0.1,0.1,0.2,0.2,0.3c1.6,2.8,4.3,3.7,8.7,1.3c0,0,5.4-1.3,9.4-1.2l77.2,4c3.2,0.5,6.1,1,8.4,1.5
				C233.9,561.9,230.4,515.7,227.1,490.8z"/>
			<path class="st2" d="M113.6,386.3c0,0.9,0.1,1.7,0.1,2.6c1.4,36.2,1.4,95-2.3,110.6c-0.2,0.8-0.4,1.5-0.6,2
				c-3.2,8.5-7.1,29.9-3,37.8c0.1,0.1,0.1,0.2,0.2,0.3c1.6,2.8,4.3,3.7,8.7,1.4"/>
			<path class="st2" d="M126,539.8l77.1,4c3.2,0.5,6.1,1,8.4,1.5c22.3,16.5,18.9-29.7,15.6-54.5c-0.1-0.8-0.2-1.5-0.3-2.2
				c-0.9-6-1.6-10.5-1.9-11.9c-1.4-7.3-4.4-87.8-5.9-101c-0.1-0.5-0.1-0.9-0.2-1.3c-0.8-3.7-3.3-6.7-6.4-9c-4.2-3.2-9.5-5.2-13-6.2
				c-6.7-5.6-20.4-9.4-39.2-8.5c-16.3,0.7-40.8,1-45.7,21.9"/>
		</g>
		<path id="XMLID_12053_" class="st0" d="M222,433.2c0,0-8.7,93.6-5.1,107.3"/>
		<g>
			<path id="XMLID_12052_" class="st3" d="M181.4,348.3c0.2-3.4-0.9-13.4-1.1-16.6c-0.2-2.9-0.6-5.4-1.2-7.5
				c11.4-19.5-20.1-41.8-31.3-16.8c-3.5,7.8-3.1,22.9-3,25.5c0.1,3.4,0.2,14.6,0.2,17.5c0.1,16.3,24.2,29.2,33.8,8"/>
			<path id="XMLID_12051_" class="st4" d="M173.3,365.9c-11.1,9.6-28.4-1.8-28.4-15.5c0-2.9-0.1-14.1-0.1-17.5
				c-0.1-2.6-0.5-17.7,3-25.5c11.2-25,42.7-2.7,31.3,16.8c0.6,2.1,1.1,4.6,1.2,7.6c0.2,3.2,1.4,13.1,1.1,16.6l-2.8,10
				c-0.5,1.1-1.1,2.2-1.6,3.1"/>
		</g>
		<g>
			<g id="XMLID_12049_">
				<path id="XMLID_12050_" class="st0" d="M213.9,483.2c6.1-5,11.2,7.1,2.2,8.2"/>
			</g>
			<path id="XMLID_12048_" class="st0" d="M220.9,414.2c-1.3,30.5-2.4,63.1-3.4,81.5c-2.1,40.2,1.1,99.4,1.1,99.4l-16.9-1.5
				c0,0,3.4-104.4,0-126.4c-2-12.6,0.4-52.5,2.1-85.2"/>
			<path id="XMLID_12047_" class="st0" d="M210.9,483.4c0,0,2.3,0.1,2.3,2"/>
			<path id="XMLID_12046_" class="st0" d="M210.2,489.9c0,0-2.7-0.9-2.9-1.5"/>
			<g id="XMLID_12033_">
				<path id="XMLID_12045_" class="st3" d="M198,622.4c2.9,0.8,4.9,0.9,6.4,0.8c-0.8,10.8,4.4,7.6,6.9,5.5l1.1,0.5
					c3.4,6.4,7.6,0.2,8.9-2l0.1,1.5c5.6,2.9,5.3-3.2,4.8-6.5c0.6,1,2,2,5.9,1.9c7.3-0.2-14.1-35.1-14.1-35.1l-16.2,3.8
					C201.8,592.7,183.2,618.6,198,622.4z"/>
				<path id="XMLID_12044_" class="st0" d="M201.8,592.7c0,0-18.6,25.9-3.8,29.6c2.9,0.8,4.9,0.9,6.4,0.8c-0.8,10.8,4.4,7.6,6.9,5.5
					l1.1,0.5c3.4,6.4,7.6,0.2,8.9-2l0.1,1.5c5.6,2.9,5.3-3.2,4.8-6.5c0.6,1,2,2,5.9,1.9c7.3-0.2-14.1-35.1-14.1-35.1"/>
				<g id="XMLID_12037_">
					<g id="XMLID_12039_">
						<path id="XMLID_12043_" class="st1" d="M218,589c0,0,21.4,35,14.1,35.1c-7.3,0.2-6.1-3.5-6.2-3.8c0,0,3.1,12.2-4.4,8.4"/>
						<path id="XMLID_12042_" class="st1" d="M221.5,626.5c0,0-5.2,10.5-9.4,2.1"/>
						<path id="XMLID_12041_" class="st1" d="M201.8,592.7c0,0-18.6,25.9-3.8,29.6s7.4-6.6,3.2-6.2"/>
						<path id="XMLID_12040_" class="st1" d="M212.6,627.4c0,0-9.8,10.4-8.1-5.5l0.5-8"/>
					</g>
					<path id="XMLID_12038_" class="st1" d="M215.4,588c0,0,10-10.2,0-10.9"/>
				</g>
				<path id="XMLID_12036_" class="st0" d="M211.7,613.4c0,0-0.4,4.9,0.4,7.5"/>
				<path id="XMLID_12035_" class="st0" d="M219.6,619.2c0,0,0.1,3.5,0.9,3.5"/>
				<path id="XMLID_12034_" class="st1" d="M220.5,605.2c0.7,2.2,3.6,7,3.6,7"/>
			</g>
		</g>
		<path id="XMLID_12032_" class="st2" d="M196.2,397.8c-2.2,4.2,4.1,60.6,3.8,65.5c-0.3,4.9,1.6,5.5,15.3,5
			c13.7-0.5,7-90.3,1.4-98.5c-1.9-2.9-9.6-5.6-18.7-8"/>
		<g>
			<path class="st5" d="M190.9,384.4c0,0-13.7-5.1-14.6-0.4c-0.9,4.8-5.3,20,2.8,21.1c8.1,1,11.8,0.8,12.1-6.1
				S190.9,384.4,190.9,384.4z"/>
			<g>
				<path id="XMLID_12031_" class="st0" d="M190.3,384.8c0,0,1.8,1.4,0.8,2.9"/>
				<path id="XMLID_12030_" class="st0" d="M177.9,384.1c0,0-2.5,1.2-3.2,2.4"/>
				<path id="XMLID_12029_" class="st0" d="M190.7,395.8c0,0,0.8-2.6,0.3-4"/>
				<path id="XMLID_12028_" class="st0" d="M177.2,404.3c0,0,2.6,1.1,3.9,0.8"/>
				<path id="XMLID_12024_" class="st0" d="M189.1,402.3c0,0-0.9,2-2.6,1.4"/>
				<path id="XMLID_12023_" class="st0" d="M175.1,391.4c0,0-0.4,1.9-0.9,2.4"/>
				<line id="XMLID_12022_" class="st4" x1="184.9" y1="383.6" x2="182.2" y2="383.5"/>
				<path id="XMLID_12021_" class="st0" d="M174.2,398.5c0,0-0.6,2.7-0.1,4"/>
			</g>
			<g>
				<path id="XMLID_12020_" class="st0" d="M144.1,572.8c0,0-1.6-2.9-0.4-4.6"/>
				<path id="XMLID_12019_" class="st0" d="M147.9,560.4c0,0-1.9,2-2.2,3.4"/>
				<path id="XMLID_12018_" class="st0" d="M146.8,577.5c0,0,0.8,2.6,1.9,3.5"/>
			</g>
		</g>
		<g id="XMLID_11962_">
			<g id="XMLID_12014_">
				<path id="XMLID_12017_" class="st0" d="M124.5,267.1c0,0-17.5-23.2-18-5.1c-0.4,18.1,4.5,37.6,11,35.1c6.5-2.5,6.6-7.9,6.6-7.9"
					/>
				<path id="XMLID_12016_" class="st0" d="M118.7,268.3c0,0-6.8-10.6-8.6-5.6"/>
				<path id="XMLID_12015_" class="st0" d="M121.3,275.7c0,0-10.1-2.6-8.6,3.2c1.4,5.8,5.1,9.7,6.8,3.2"/>
			</g>
			<path id="XMLID_12013_" class="st6" d="M177,185.7c0,0-6.6,5.8,1.6,8.4C186.7,196.8,184.1,182.8,177,185.7z"/>
			<path id="XMLID_12012_" class="st0" d="M163.1,199.8c0,0,52.4,3.8,45.2,65.7s-5.4,73.3-35,79.6s-45.8-15.4-49-31.9
				S97.3,207.9,163.1,199.8z"/>
			<path class="st7" d="M187.7,208.9c6.6,9.8,10.7,23.9,8.3,44.4c-7.4,61.9-5.4,73.3-34.9,79.6c-12.6,2.7-22.8,0.3-30.6-4.6
				c7.7,11.8,21.9,21.4,42.8,16.9c29.6-6.3,27.6-17.6,34.9-79.5C212,233.9,200.2,217.5,187.7,208.9z"/>
			<path id="XMLID_12011_" class="st2" d="M205.3,214.6c-0.2-2.1-1.1-4.7-2.9-7.9c0-0.1-0.1-0.1-0.1-0.1l0,0
				c-0.4-0.7-0.8-1.4-1.3-2.2c-5.9-9.2-15.4-14.5-24.2-17.2c-37.6-16.9-41.4,18.8-41.5,32.2c0,1.3,16.9-0.1,32.4-4
				c19.6,7.9,38.1,16.7,38.1,16.7S207.1,220.7,205.3,214.6z"/>
			<path id="XMLID_12010_" class="st0" d="M157.7,270.8c0,0,9.3,7,21.4,2.7"/>
			<path id="XMLID_12009_" class="st0" d="M134.8,271.1c0,0-15.1,3.2-18.3,1.9"/>
			<path id="XMLID_12008_" class="st0" d="M144.8,339.7c0,0-6.2,5.8,6.7,8.3c12.9,2.6,21.4-0.9,18.8-5.7"/>
			<path id="XMLID_12007_" class="st2" d="M126,224.4c0,0,20-8.2,43.7-3c23.6,5.1,35.8,10.6,35.8,10.6c-7.6-26-53.2-26.1-76.2-24.7
				c-23.1,1.5-16.9,10.3-16.9,10.3S115.8,221.9,126,224.4z"/>
			<path id="XMLID_12006_" class="st0" d="M126,224.4c0,0-39.8-11.1,15.3-13.5c55.1-2.5,64.2,21.1,64.2,21.1S154.6,210.1,126,224.4z
				"/>
			<g>
				<path id="XMLID_12005_" class="st0" d="M154.3,275.4c0,0-9.4-11.8-9.1-18.3"/>
				<g id="XMLID_12002_">
					<path id="XMLID_12004_" class="st0" d="M137.9,276.7c0.4,3.1,1.4,5.2,3.4,5.6c1.1,0.2,2.1,0.2,2.8,0c0.7-0.1,1.2-0.4,1.6-0.6"
						/>
					<path id="XMLID_12003_" class="st0" d="M148.1,239.3c0,0-7.2,19.2-9.2,32.9"/>
				</g>
				<g id="XMLID_11996_">
					<path id="XMLID_12001_" class="st0" d="M134.5,278.3c0,0-6.9,8.1,4.2,10.4"/>
					<path id="XMLID_12000_" class="st0" d="M153.7,278.3c0,0,7.4,6.1-3.1,10.4"/>
					<path id="XMLID_11999_" class="st0" d="M148.2,283.4c1.1,0.3,2.6-1.9,3.8,0c1.2,1.9-0.2,1.4-1.7,1.8
						C148.7,285.6,147.1,283.1,148.2,283.4z"/>
					<path id="XMLID_11998_" class="st0" d="M137.6,286.2c-2.1-0.1-2.6-1.8-1.5-2.7c0.4-0.3,1.6,0.2,2.8,0.9
						C139.7,284.9,137.6,286.2,137.6,286.2z"/>
					<path id="XMLID_11997_" class="st0" d="M145.1,274.1c0,0,2.2,0,2.7,0.7"/>
				</g>
				<path id="XMLID_11995_" class="st0" d="M130.4,283.3c0,0-6.1,3.1-7.8,3.7"/>
				<path id="XMLID_11994_" class="st0" d="M158.1,281.7c0,0,7.1,3.4,7.8,3.4"/>
			</g>
			<path id="XMLID_11993_" class="st0" d="M188.3,251.3c0,0,1,2.1-0.6,3"/>
			<path id="XMLID_11992_" class="st0" d="M182.8,272.3c0,0-0.4,1.9-1,2.5"/>
			<path id="XMLID_11991_" class="st0" d="M183.4,235.8c0,0,0.8-3.5,0-3.5"/>
			<path id="XMLID_11990_" class="st0" d="M132.3,223.9c0,0,3.3,0.4,2.9,1"/>
			<path id="XMLID_11989_" class="st0" d="M152.5,230.1c0,0,3.9-0.6,4.1-1.3"/>
			<path id="XMLID_11988_" class="st0" d="M133.7,324.4c0,0,2.8,0.6,3,1.2"/>
			<path id="XMLID_11987_" class="st0" d="M157.1,325.6c0,0-2.6,1.2-3.3,2.4"/>
			<path id="XMLID_11986_" class="st0" d="M131.1,264"/>
			<path id="XMLID_11985_" class="st0" d="M149.4,266.1"/>
			<line id="XMLID_11984_" class="st4" x1="175.6" y1="286.5" x2="178.3" y2="285.8"/>
			<path id="XMLID_11983_" class="st0" d="M200.9,273.7c0,0,19.4-21.6,18.4-3.6c-1.1,18.1-7.7,37.1-13.9,34.1s-5.9-8.4-5.9-8.4"/>
			<path id="XMLID_11982_" class="st0" d="M206.5,275.4c0,0,7.7-10,9-4.9"/>
			<path id="XMLID_11981_" class="st0" d="M203.3,282.5c0,0,10.2-1.8,8.3,3.9s-5.9,9.2-7.1,2.6"/>
			<g>
				<path id="XMLID_11980_" class="st8" d="M118.6,232.2c0,0,35.7-3.4,22.8,25.4S88.6,252.3,118.6,232.2z"/>
				<path id="XMLID_11979_" class="st6" d="M120.2,247.1c0,0,5.3-2.1,4.8,3.4S116.5,251.9,120.2,247.1z"/>
				<path id="XMLID_11978_" class="st8" d="M158.4,236.2c0,0-26.2,23.1,6.4,33.7C197.5,280.4,186.9,224.5,158.4,236.2z"/>
				<path id="XMLID_11977_" class="st6" d="M176.6,250.3c0,0,5.4-2.1,4.8,3.4S172.9,255.1,176.6,250.3z"/>
				<path id="XMLID_11976_" class="st6" d="M160.5,231.6c0,0-12.1,1.4-3.4,9.9s25.2,0.3,24.3-2.7S178.9,230.7,160.5,231.6z"/>
				<path id="XMLID_11975_" class="st6" d="M125.4,226.5c0,0-18.6-1-10,9.3c8.6,10.4,23.9-0.2,25.1-4.6
					C141.7,226.7,125.4,226.5,125.4,226.5z"/>
				<g id="XMLID_11972_">
					<path id="XMLID_11974_" class="st0" d="M180.2,268.9c0.2,0.1,0.4,0.2,0.7,0.2c0.9,0.2,1.8,0.4,2.8-0.6c2.2-2.5-2.9-3.2-2.9-3.2
						l-5.6-0.4c0,0-12.1-0.8-19.2,1.1c0,0,10.5,5.6,16.9,5.2c0.8,0,1.4-0.1,2.1-0.4C175.5,270.5,179.1,268.6,180.2,268.9z"/>
					<path id="XMLID_11973_" class="st0" d="M122.5,261.9c0,0,7.1-1.3,14.9,1.1c0,0-3.8,8.4-16.4,4.6c-4.1-1.2-4.9,1-7.2-1.4
						c-2.2-2.5,2.9-3.1,2.9-3.1L122.5,261.9z"/>
				</g>
			</g>
			<g id="XMLID_11967_">
				<path id="XMLID_11971_" class="st6" d="M130.8,302.9c0,0-19.2,2.5-8.5,9.5C133,319.3,130.8,302.9,130.8,302.9z"/>
				<path id="XMLID_11970_" class="st6" d="M128,297.3c0,0-15.8-0.9-8.6,7.3c7.3,8.2,20.3-0.2,21.4-3.7S128,297.3,128,297.3z"/>
				<path id="XMLID_11969_" class="st6" d="M159.7,301.3c0,0-7.7-2.6-6.4,7.2c1.3,9.8,14.7,8.1,15.5,5.3
					C169.6,311,170.9,306.3,159.7,301.3z"/>
				<path id="XMLID_11968_" class="st6" d="M153.1,298.7c0,0-22.5-2.8-0.3,8C175,317.5,178.7,302.1,153.1,298.7z"/>
			</g>
			<g id="XMLID_11963_">
				<path id="XMLID_11966_" class="st0" d="M133,312.3c0,0,11.8,11.6,18.3,0"/>
				<path id="XMLID_11965_" class="st0" d="M135.7,310.5c0,0,3.2-3.4,5.6,0"/>
				<path id="XMLID_11964_" class="st0" d="M147,310.5c0,0-3.2-3.4-5.7,0"/>
			</g>
		</g>
		<path id="XMLID_11961_" class="st0" d="M175.9,368.8c0.9-0.3,1.7-0.9,2.4-2.2"/>
		<path id="XMLID_11960_" class="st0" d="M144.2,361.9c0,0,0.2,1.1,1,2.1"/>
		<path id="XMLID_11959_" class="st0" d="M151.3,371.4c0.2,0.1,0.6,0.3,0.9,0.4"/>
		<path id="XMLID_11958_" class="st2" d="M124.4,514.3c0,0,2.8-93.9-1.7-107.4"/>
	</g>
	<g>
		<path class="st0" d="M84.7,598.5c-0.6-1.8-1.6-3.8-2.6-6.3c-1-2.3-2.1-5.1-2.9-8.5c0.1,0,0.2,0,0.2,0s0,0,0-0.1
			c0-0.5-0.1-3-0.2-6.9l-15.2-1.3l-0.8,0l-0.8,0c-0.1,1.1-0.2,1.9-0.3,2.4c0,0-0.1,0.2-0.1,0.2c-0.1,0.1-0.2,0.2-0.2,0.3
			c-0.3,0.4-0.6,0.7-0.6,0.7s-0.7,0.6-1.7,1.6c-1.9,10.8-9.3,17.1-18.2,20.8c0.1,0.9,0.5,1.8,1.3,2.5c0.2,0.2,0.6,0.5,0.9,0.8
			c1.2,0.8,3.1,1.5,5.4,2c1.8,0.3,3.8,0.7,6.2,0.8c1.4,0.1,2.9,0.2,4.6,0.3c1.2,0,2.4,0.1,3.7,0.2c1.2,0,2.5,0,3.7-0.2
			c1.6,0,3.1-0.2,4.6-0.3c2.3-0.2,4.3-0.5,6.2-0.8c2.3-0.5,4.2-1.1,5.4-2c0.3-0.2,0.7-0.5,0.9-0.8c1.1-1,1.4-2.2,1.3-3.4
			C85.1,600,84.9,599.3,84.7,598.5z"/>
		<g>
			<g id="XMLID_11932_">
				<path id="XMLID_11933_" class="st0" d="M27.4,603.2c0,0,6-0.6,3.8,4.3C29.1,612.3,22.4,606.6,27.4,603.2z"/>
			</g>
			<g id="XMLID_11930_">
				<path id="XMLID_11931_" class="st0" d="M30.9,602.5c0,0,6.7-0.7,4.3,4.8C32.8,612.7,25.3,606.3,30.9,602.5z"/>
			</g>
			<g id="XMLID_11928_">
				<path id="XMLID_11929_" class="st0" d="M35.2,601.4c0,0,7.8-0.8,5,5.5C37.3,613.2,28.6,605.8,35.2,601.4z"/>
			</g>
			<g id="XMLID_11926_">
				<path id="XMLID_11927_" class="st0" d="M40.6,600.2c0,0,8.9-0.8,5.7,6.3C43.1,613.8,33.1,605.3,40.6,600.2z"/>
			</g>
			<path id="XMLID_11925_" class="st0" d="M51.1,609.3c0,0-10.6,0.7-5.7-6.2s13.6,0.2,14.3,3.1C60.4,609.2,51.1,609.3,51.1,609.3z"
				/>
		</g>
		<g id="XMLID_11923_">
			<path id="XMLID_11924_" class="st0" d="M64.5,583.6c-6.1,5-11.2-7.1-2.2-8.2"/>
		</g>
		<path class="st0" d="M156,568.6c0,0-43.5-38.3-74.8-70c-1.5-1.5-2.9-3-4.3-4.5c-2-2.1-4-4.1-5.8-6l0,0c-3.4-3.6-6-6.2-8-8
			c0.1,8.1,0.1,17.1,0.1,26.4c-0.2,35.1-1.5,73.3-1.5,73.3l16.9,1.4c0,0-1.6-28.9-1.8-60c27.1,29.5,53.9,58.8,54.8,62.7L156,568.6z"
			/>
		<path id="XMLID_11922_" class="st0" d="M71.8,479.9c0,0,2.3,0.1,2.3,2"/>
		<path id="XMLID_11921_" class="st0" d="M68.2,496.5c0,0-2.7-0.8-2.8-1.5"/>
		<g id="XMLID_11916_">
			<path id="XMLID_11920_" class="st0" d="M63.7,487.9c-7.6,2.1-7.4-11,1.2-8.5"/>
		</g>
	</g>
	<g>
		<path class="st0" d="M135.2,599.9c-0.6-1.8-1.6-3.8-2.6-6.3c-1-2.3-2.1-5.1-2.9-8.5c0.1,0,0.1,0,0.1,0s0,0,0-0.1
			c0-0.5-0.1-3-0.1-6.9l-15.3-1.3l-0.8,0l-0.8,0c-0.1,1.1-0.2,1.9-0.3,2.4c0,0-0.1,0.2-0.1,0.2c-0.1,0.1-0.2,0.2-0.2,0.3
			c-0.3,0.4-0.6,0.7-0.6,0.7s-0.7,0.6-1.7,1.6c-1.9,10.8-9.3,17.1-18.2,20.8c0.1,0.9,0.5,1.8,1.3,2.5c0.2,0.2,0.6,0.5,0.9,0.8
			c1.2,0.8,3.1,1.5,5.4,2c1.8,0.3,3.8,0.7,6.2,0.8c1.4,0.1,2.9,0.2,4.6,0.3c1.2,0,2.4,0.1,3.7,0.2c1.2,0,2.5,0,3.7-0.2
			c1.6,0,3.1-0.2,4.6-0.3c2.3-0.2,4.3-0.5,6.2-0.8c2.3-0.5,4.2-1.1,5.4-2c0.4-0.2,0.7-0.5,0.9-0.8c1.1-1,1.4-2.2,1.3-3.4
			C135.6,601.3,135.4,600.6,135.2,599.9z"/>
		<g>
			<g id="XMLID_11956_">
				<path id="XMLID_11957_" class="st0" d="M77.9,604.6c0,0,6-0.6,3.8,4.3C79.6,613.7,72.9,607.9,77.9,604.6z"/>
			</g>
			<g id="XMLID_11954_">
				<path id="XMLID_11955_" class="st0" d="M81.4,603.9c0,0,6.7-0.7,4.3,4.8C83.3,614,75.8,607.6,81.4,603.9z"/>
			</g>
			<g id="XMLID_11952_">
				<path id="XMLID_11953_" class="st0" d="M85.7,602.7c0,0,7.8-0.8,5,5.5C87.8,614.6,79.1,607.1,85.7,602.7z"/>
			</g>
			<g id="XMLID_11950_">
				<path id="XMLID_11951_" class="st0" d="M91.1,601.6c0,0,8.9-0.8,5.7,6.3C93.6,615.1,83.6,606.6,91.1,601.6z"/>
			</g>
			<path id="XMLID_11946_" class="st0" d="M101.6,610.7c0,0-10.6,0.7-5.7-6.2s13.6,0.2,14.3,3.1
				C110.9,610.6,101.6,610.7,101.6,610.7z"/>
		</g>
		<g id="XMLID_11944_">
			<path id="XMLID_11945_" class="st0" d="M115,584.9c-6.1,5-11.2-7.1-2.2-8.2"/>
		</g>
		<path class="st0" d="M206.5,570c0,0-43.5-38.3-74.8-70c-1.5-1.5-2.9-3-4.3-4.5c-2-2.1-4-4.1-5.8-6l0,0c-3.4-3.6-6-6.2-8-8
			c0.1,8.1,0.1,17.1,0.1,26.4c-0.2,35.1-1.5,73.3-1.5,73.3l16.9,1.4c0,0-1.6-28.9-1.8-60c27.1,29.5,53.9,58.8,54.8,62.7L206.5,570z"
			/>
		<path id="XMLID_11937_" class="st0" d="M122.3,481.2c0,0,2.3,0.1,2.3,2"/>
		<path id="XMLID_11936_" class="st0" d="M118.7,497.9c0,0-2.7-0.8-2.8-1.5"/>
		<g id="XMLID_11934_">
			<path id="XMLID_11935_" class="st0" d="M114.2,489.3c-7.6,2.1-7.4-11,1.2-8.5"/>
		</g>
	</g>
</g>
</svg>
