<?xml version="1.0" encoding="utf-8"?>
<!-- Generator: Adobe Illustrator 23.0.3, SVG Export Plug-In . SVG Version: 6.00 Build 0)  -->
<svg version="1.1" id="Layer_1" xmlns="http://www.w3.org/2000/svg" xmlns:xlink="http://www.w3.org/1999/xlink" x="0px" y="0px"
	 viewBox="0 0 306.2 109.2" style="enable-background:new 0 0 306.2 109.2;" xml:space="preserve">
<style type="text/css">
	.st0{fill:#FFFFFF;}
	.st1{fill:#2C2C2C;}
</style>
<g>
	<g>
		<g>
			<path class="st0" d="M131.5,56.7c0-0.5-0.1-1-0.2-1.5c0-1.6,0-3.2-0.1-4.8c-0.2-4-0.6-8-1.1-12c-0.1-0.8-0.2-1.6-0.3-2.4
				c0-2.3-0.1-4.5-0.4-6.8c0-0.2,0-0.4,0-0.6c0.2-2.5,0.6-4.9,0.5-7.4c0-1.2-0.2-2.4-0.6-3.5c-0.4-1.1-1-2.2-1.8-3
				c-0.4-0.4-0.9-0.8-1.4-1.1c-0.6-0.4-1.2-0.6-1.8-0.9c-1.2-0.5-2.5-0.7-3.8-0.8c-0.1,0-0.2,0-0.3,0c-0.4,0-0.8,0-1.1,0.1l0,0
				c-0.3-0.1-0.6-0.1-1-0.1c0,0,0,0-0.1,0c-0.3,0-0.6,0.1-0.9,0.1c-0.2,0-0.4,0.1-0.6,0.1c-0.2,0.1-0.4,0.1-0.6,0.2
				c-0.4,0.2-0.8,0.3-1.2,0.5c-0.5,0.2-0.9,0.5-1.3,0.8c-0.6,0.4-1.2,0.9-1.7,1.4s-0.9,1-1.3,1.6c-0.4,0.5-0.7,1.1-0.9,1.7
				c-0.2,0.4-0.3,0.8-0.4,1.3c-0.1,0.7-0.2,1.3-0.2,2c-0.1,1.2-0.1,2.4,0,3.6c0.1,1,0.2,2,0.4,3c-0.1,1.5-0.3,2.9-0.3,4.4
				c0,0.8-0.1,1.7-0.1,2.5c-0.1,1.2-0.1,2.4-0.1,3.7c0,0.2-0.1,0.4-0.1,0.6c-0.4,2.5-0.6,5-0.7,7.5c-0.2,4.8,0.2,9.7,1,14.5
				c0.1,0.2,0.2,0.4,0.3,0.6c0,0,0,0,0,0.1c-0.2,1-0.2,2,0,2.9c0.2,1.2,0.6,2.3,1.1,3.4c0.6,1.2,1.4,2.3,2.2,3.3
				c0.4,0.5,0.9,1,1.3,1.4c0.5,0.5,1.1,0.9,1.7,1.4c1,0.6,2.1,1.1,3.2,1.3c1,0.2,1.9,0.3,2.9,0.2c0.5-0.1,1-0.1,1.4-0.2
				c0.5-0.1,0.9-0.3,1.4-0.5c0.8-0.3,1.5-0.8,2.1-1.4s1.2-1.2,1.6-1.9c0.5-0.7,0.8-1.4,1.2-2.1c0.4-0.9,0.7-1.7,0.9-2.6
				c0.5-1.8,0.8-3.6,0.9-5.4C131.6,60,131.7,58.4,131.5,56.7z"/>
			<g>
				<path class="st0" d="M133,56.7c-0.8-6.8-1.1-13.9-1.6-20.8c-0.2-3.4-0.4-6.8-0.1-10.2c0.3-3.3,0.5-6.8-1-9.8
					c-3.2-6.5-13.1-7.4-18.3-3.1c-3.7,3-4.7,6.9-4.5,11.5c0.2,7-0.4,13.7-0.9,20.7c-0.2,3.6-0.1,7.3,0.2,11c0.1,1.6,0.2,3.3,0.6,4.9
					c0.4,1.8,0.3,0.5,0.4,1.1c0.4,5.1,1.6,9.4,6,12.8c4.1,3.2,10,3.6,14,0C132.6,70.5,133.3,62.7,133,56.7c-0.1-1.9-3.1-1.9-3,0
					c0.3,6.4-1.1,19.5-10.6,17.6c-6.4-1.2-7.8-7.5-8.6-12.7c-1.2-7.5-1.3-14.2-0.6-21.8c0.4-4.3,0.8-8.9,0.5-13.3
					c-0.4-5.6,0.4-12.4,7.4-13.3c5.9-0.7,10.3,2.8,10.4,8.8c0.1,5.5-0.4,10.8,0.2,16.3c0.7,6.1,0.7,12.3,1.3,18.4
					C130.2,58.6,133.2,58.6,133,56.7z"/>
			</g>
		</g>
	</g>
	<g>
		<g>
			<path class="st0" d="M246.5,61.6c-0.3-1.8-0.7-3.5-1.3-5.2c-0.7-1.9-1.5-3.8-2.7-5.1c-0.3-0.3-0.6-0.6-1-0.9s-0.7-0.5-1.1-0.6
				c-0.3-0.2-0.7-0.2-1-0.3c-0.5-0.1-1-0.1-1.5-0.1h-0.1c-0.8,0-1.6,0.2-2.4,0.5c0,0,0,0-0.1,0s-0.1,0-0.2,0c-0.5,0-1.1,0.3-1.5,0.6
				l-0.1,0.1c-0.4,0.2-0.8,0.5-1.2,0.8c-0.3,0.2-0.6,0.5-0.8,0.9s-0.4,0.9-0.4,1.5c0,0.1,0,0.3,0,0.4c-0.2,0.2-0.3,0.4-0.4,0.6
				c-0.8,1.7-1.3,3.7-1.5,5.8c-0.1,0.8-0.2,1.7-0.2,2.6c0,0.3,0,0.5,0,0.8c0,0.6,0,1.2,0,1.8c-0.1,0.4-0.1,0.8-0.2,1.2
				c-0.1,1.1-0.2,2.2-0.2,3.4c0,0.8,0,1.7,0.1,2.5c0,0.9,0,1.7,0.1,2.6l0,0c-0.1,1.4-0.1,2.9-0.1,4.3c0,1.1,0,2.2,0.1,3.3
				c0,0.1,0,0.1,0,0.2c-0.1,0.1-0.1,0.3-0.2,0.4c-0.2,0.3-0.4,0.5-0.6,0.7c-0.3,0.2-0.5,0.4-0.8,0.6c-0.2,0.1-0.4,0.2-0.6,0.3
				c-0.2,0-0.5,0.1-0.7,0.1c-0.1,0-0.3,0-0.4-0.1c-0.1-0.2-0.3-0.3-0.4-0.5c-0.5-0.4-1-0.6-1.6-0.7c-0.1,0-0.2,0-0.3-0.1
				c-0.5-0.1-0.9-0.1-1.4,0l0,0c-0.1-0.1-0.2-0.1-0.3-0.2c-0.6-0.3-1.3-0.5-2-0.7s-1.5-0.2-2.2-0.2c-0.5,0-1.1,0.1-1.6,0.2
				c-0.8,0.2-1.5,0.4-2.2,0.7c-1.4,0.7-2.7,1.6-3.6,2.9c-1,1.3-1.7,3-2,4.7c-0.1,0.5-0.1,1-0.1,1.5c0,0.3,0,0.6,0.1,0.9
				c0.1,0.5,0.2,0.9,0.3,1.4c0.1,0.3,0.2,0.7,0.3,1c0.6,1.4,1.6,2.7,2.8,3.7c0.5,0.4,1,0.7,1.5,1c0.2,0.4,0.5,0.8,0.8,1.1
				c0.3,0.3,0.5,0.6,0.8,0.9s0.6,0.5,1,0.7c0.9,0.6,1.8,1,2.8,1.3c0.6,0.2,1.1,0.3,1.7,0.4c0.6,0.1,1.3,0.1,2,0.1
				c0.9,0,1.8-0.1,2.6-0.2c0.8-0.2,1.7-0.4,2.5-0.7c0.3,0,0.5,0.1,0.8,0.1c0.6,0,1.2,0,1.8-0.1s1.3-0.3,1.9-0.5
				c1.2-0.4,2.3-1,3.3-1.7c1.1-0.7,2-1.6,3-2.5c0.2,0,0.4-0.2,0.6-0.4c0.5-0.1,1-0.4,1.5-0.6c1.1-0.7,2.1-1.6,3-2.8
				c0.8-1.1,1.5-2.5,2.1-3.9c0.1-0.2,0.1-0.4,0.2-0.7c0.8-2.1,1.3-4.5,1.2-7v-0.1c0-0.3,0.1-0.6,0.1-0.9c0.4-2,0.7-4,0.6-6
				c0-0.4-0.1-0.8-0.1-1.2c0.1-1,0.2-2,0.3-3C247.3,69.5,247.2,65.5,246.5,61.6z"/>
			<g>
				<path class="st0" d="M248,61.2c-1-5.2-2.9-12.7-9.3-13.2c-4.1-0.3-7.6,1.7-9,5.4c-2.1,5.6-2.6,11.6-2.6,17.6c0,2.9,0,5.9,0,8.8
					c0,1.6,0.8,3.7-1.3,3.8c-0.2,0-2-1-2.4-1.1c-1.6-0.4-2.6-0.9-5-1.2c-2.6-0.3-5.3,0.4-7.4,1.9c-4.8,3.2-6.4,10-3.3,14.9
					c6.4,10.1,19.8,10.8,29,4.4c2.8-2,5.7-3.4,7.7-6.4c1.9-2.9,3-6.5,3.3-9.9C248.4,77.9,249.2,69.6,248,61.2
					c-0.3-1.9-3.2-1.1-2.9,0.8c1,7.4,0.7,15.1-0.4,22.4c-0.6,3.8-0.7,7.6-3.3,10.7c-1.4,1.8-5.5,4.4-7.6,5.9
					c-2.7,1.8-5.6,1.9-8.7,2.4c-4.8,0.8-7.7,0.2-11.4-3.5c-1.7-1.7-3.7-2.7-4.4-5.2c-0.8-2.8,0.2-6.2,2.3-8.2c3.3-3,6.3-2,9.8-1
					c2.6,0.7,4.9,2.3,7.4,0c1.4-1.4,1.2-2.2,1.1-4.1c-0.1-2.9,0.1-5.7,0-8.5c-0.2-5.7-0.3-13.2,2.4-18.3c1.1-2,2.1-3.5,4.5-3.6
					c5.8-0.3,7.2,6.4,8.1,11C245.5,63.9,248.3,63.1,248,61.2z"/>
			</g>
		</g>
		<g>
			<path class="st0" d="M245.8,62.2c0.4-1.1,0.7-2.1,0.8-3.3c0.3-2.1,0.2-4.2-0.2-6.3c-0.1-0.5-0.2-1.1-0.4-1.6c0-0.5-0.1-1-0.2-1.5
				c-0.3-1.5-0.7-3-1.4-4.4c-0.4-0.8-0.8-1.5-1.3-2.2c-0.5-0.8-1.2-1.4-1.8-2.1c-1.2-1.2-2.7-2.3-4.2-3.1c-1.5-0.9-3.1-1.5-4.8-1.9
				c-0.7-0.2-1.5-0.2-2.2-0.3c-1,0-2-0.1-3,0H227c-1.7,0.1-3.5,0.5-5.1,1c-2.9,0.7-5.7,2-8,4c-0.4,0.4-0.8,0.7-1.2,1.1
				c-0.1,0.1-0.3,0.3-0.4,0.4c-0.5,0.5-1,1.1-1.5,1.7c-0.5,0.7-1,1.5-1.4,2.4c-0.7,1.4-1.2,2.8-1.7,4.3c-0.6,1.9-0.8,3.9-0.8,5.9
				c0,1.9,0.3,3.8,0.8,5.6c0.5,1.8,1.3,3.4,2.3,5c0.4,0.7,0.9,1.3,1.5,1.9c0.7,0.8,1.4,1.5,2.1,2.2c0.7,0.6,1.5,1.2,2.3,1.7
				c0.7,0.5,1.5,0.9,2.3,1.3c0.9,0.4,1.8,0.7,2.8,1c0.9,0.3,1.8,0.4,2.7,0.6c2.8,0.4,5.6,0.1,8.3-0.7"/>
			<g>
				<path class="st0" d="M247.3,62.6c2.9-9.6-0.5-21.1-9.4-26.2c-8.2-4.6-19.8-2.2-26.3,4.2c-6.6,6.5-8,17.9-3.5,26
					c4.9,8.8,14.8,12.1,24.3,9.7c1.9-0.5,1.1-3.4-0.8-2.9c-8.2,2.1-16.6-0.8-20.9-8.3c-3.9-6.8-2.7-16.8,3-22.3
					c5.6-5.5,15.7-7.7,22.7-3.8c7.8,4.3,10.6,14.6,8.1,22.8C243.8,63.7,246.7,64.4,247.3,62.6L247.3,62.6z"/>
			</g>
		</g>
		<g>
			<path class="st0" d="M225.7,60.9c0.2-0.1,0.4-0.2,0.6-0.3c0.3,0,0.5-0.1,0.8-0.2h0.1c0.1,0,0.2,0,0.3,0c0.3,0,0.5,0,0.8-0.1
				c0.1,0,0.1,0,0.2-0.1l0,0c0.2,0,0.3,0,0.5-0.1c0.1,0,0.3-0.1,0.4-0.2c0.1-0.1,0.2-0.1,0.2-0.2l0.1-0.1c0.1,0,0.2,0,0.2,0
				c0.2,0,0.3-0.1,0.4-0.2c0.2-0.1,0.3-0.3,0.4-0.4c0.1-0.1,0.2-0.2,0.2-0.3c0.1-0.2,0.2-0.4,0.3-0.6s0.2-0.5,0.3-0.8
				c0.1-0.2,0.1-0.5,0.2-0.7c0-0.3,0-0.5,0-0.8s-0.1-0.5-0.1-0.8c-0.1-0.3-0.1-0.5-0.2-0.7c-0.1-0.3-0.2-0.5-0.4-0.7
				c-0.1-0.1-0.2-0.3-0.3-0.4s-0.2-0.3-0.2-0.4c-0.1-0.1-0.2-0.2-0.2-0.3c-0.2-0.3-0.3-0.6-0.5-0.8c-0.3-0.4-0.6-0.7-1-0.9
				c-0.1-0.1-0.2-0.1-0.4-0.1c-0.1,0-0.2,0-0.3,0s-0.2,0-0.3,0s-0.2,0.1-0.4,0.1c-0.2-0.3-0.3-0.5-0.6-0.7c-0.5-0.4-1.3-0.4-1.7,0.1
				c-0.1,0.1-0.2,0.2-0.3,0.3c-0.1,0.2-0.2,0.3-0.3,0.5l0,0c-0.1,0-0.2,0.1-0.3,0.1s-0.1,0-0.2,0c-0.1,0-0.3,0-0.4,0.1
				c-0.1,0-0.2,0.1-0.4,0.2s-0.3,0.3-0.5,0.5l0,0l0,0c-0.2,0.1-0.4,0.2-0.5,0.4c-0.1,0.1-0.2,0.2-0.3,0.4c-0.1,0.2-0.2,0.3-0.3,0.5
				c-0.1,0.3-0.2,0.6-0.3,0.9c0,0.1,0,0.2-0.1,0.3l0,0v0.1l0,0c0,0.2-0.1,0.3-0.1,0.5c0,0.3,0,0.6,0,0.9l0,0l0,0
				c0,0.5,0.1,0.9,0.1,1.4c0.1,0.4,0.2,0.9,0.4,1.3c0.1,0.3,0.3,0.5,0.4,0.7c0.1,0.2,0.2,0.3,0.3,0.4c0.2,0.2,0.3,0.4,0.5,0.5
				c0.2,0.2,0.4,0.3,0.6,0.4c0.3,0.2,0.7,0.3,1,0.3c0.1,0,0.3,0,0.4,0C225.3,61,225.5,60.9,225.7,60.9L225.7,60.9L225.7,60.9z"/>
			<g>
				<path class="st0" d="M226.1,62.3c2-0.8,2.9-0.5,4.7-1.5c-0.8,0.4,0.2,0.1,0.4-0.1c0.3-0.2,0.6-0.5,0.9-0.8
					c0.7-0.9,1.1-2.1,1.3-3.2c0.4-3-2.6-8.8-6.3-7.5c0.6,0.2,1.1,0.5,1.7,0.7c-0.7-1.1-1.7-1.8-3.1-1.6c-0.7,0.1-2.8,1.2-2.5,2.3
					c1.2-0.8,1.4-1.1,0.6-0.9c-0.3,0-0.5,0.1-0.7,0.2c-0.5,0.2-0.7,0.6-1.1,0.9c-0.8,0.7-1.4,1.3-1.7,2.4s-0.3,0.9-0.4,2.3
					c0,1,0.1,2,0.4,2.9C220.9,61.1,223.2,62.8,226.1,62.3c1.9-0.3,1.1-3.2-0.8-2.9c-2.4,0.4-3-3.5-2.4-5.1c0.2-0.6,0.8-1.4,1.4-1.8
					c0.3-0.2,0.7-0.1,1-0.4c0.2-0.1,0.7-0.9,0.8-0.8c0.4,0.5,1,0.9,1.7,0.7c0.6-0.2,0.2-0.3,1,0.6c0.2,0.3,0.5,0.7,0.7,1
					c0.9,1.2,1.3,3.1,0,4.3c-1.1,1.1-3,0.8-4.3,1.4C223.6,60.2,224.3,63.1,226.1,62.3z"/>
			</g>
		</g>
	</g>
	<g>
		<g>
			<path class="st0" d="M99.6,64.5c-0.1-0.9-0.2-1.9-0.4-2.8c-0.2-1-0.6-2-0.9-3c-0.3-0.9-0.6-1.7-1-2.5c-0.4-0.9-0.9-1.6-1.5-2.4
				c-0.2-0.4-0.5-0.7-0.8-1c-0.1-0.3-0.2-0.6-0.3-0.9c-0.3-0.7-0.8-1.4-1.3-2.1c-0.6-0.7-1.3-1.3-2-1.9c-0.5-0.4-1-0.7-1.5-1
				c-1-0.6-2.1-1.1-3.1-1.5c-1.5-0.6-3.1-1.1-4.7-1.4c-0.8-0.1-1.5-0.2-2.3-0.2c-0.6,0-1.2,0.1-1.8,0.2c-0.7,0.1-1.3,0.3-2,0.5
				c-0.2,0.1-0.4,0.2-0.6,0.3c0.2-1.7,0.3-3.4,0.4-5.1c0.2-4.8-0.2-9.7-1-14.5c-0.1-0.2-0.2-0.4-0.3-0.6c0,0,0,0,0-0.1
				c0.2-1,0.2-2,0-2.9c-0.2-1.2-0.6-2.3-1.1-3.4c-0.6-1.2-1.4-2.3-2.2-3.3c-0.4-0.5-0.9-1-1.3-1.4c-0.5-0.5-1.1-0.9-1.7-1.4
				c-1-0.6-2.1-1.1-3.2-1.3c-1-0.2-1.9-0.3-2.9-0.2c-0.5,0.1-1,0.1-1.4,0.2c-0.5,0.1-0.9,0.3-1.4,0.5c-0.8,0.3-1.5,0.8-2.1,1.4
				c-0.6,0.6-1.2,1.2-1.6,1.9c-0.5,0.7-0.8,1.4-1.2,2.1c-0.4,0.9-0.7,1.7-0.9,2.6c-0.5,1.8-0.8,3.6-0.9,5.4
				c-0.2,1.6-0.2,3.3-0.1,4.9c0,0.5,0.1,1,0.2,1.5c0,1.6,0,3.2,0.1,4.8c0.2,4,0.6,8,1.1,12c0.1,0.8,0.2,1.6,0.3,2.4
				c0,2.3,0.1,4.5,0.4,6.8c0,0.2,0,0.4,0,0.6c-0.2,2.5-0.6,4.9-0.5,7.4c0,1.2,0.2,2.4,0.6,3.5c0.1,0.2,0.2,0.4,0.3,0.6
				c0.4,0.9,0.9,1.7,1.6,2.4c0.4,0.4,0.9,0.8,1.4,1.1c0.6,0.4,1.2,0.6,1.8,0.9c1.2,0.5,2.5,0.7,3.8,0.8c0.1,0,0.2,0,0.3,0
				c0.4,0,0.8,0,1.1-0.1l0,0c0.3,0.1,0.6,0.1,1,0.1c0,0,0,0,0.1,0c0.3,0,0.6-0.1,0.9-0.1c0.2,0,0.4-0.1,0.6-0.1
				c0.2-0.1,0.4-0.1,0.6-0.2c0.4-0.2,0.8-0.3,1.2-0.5c0.5-0.2,0.9-0.5,1.3-0.8c0.6-0.4,1.2-0.9,1.7-1.4c0.2-0.2,0.4-0.5,0.6-0.7
				c0.2-0.3,0.4-0.6,0.7-0.9c0.2-0.2,0.3-0.5,0.4-0.7c0.5-0.7,1.1-1.5,1.6-2.2c0.8-1.1,1.5-2.3,2.1-3.4c0.2-0.1,0.4-0.2,0.6-0.3
				c0.4-0.1,0.8-0.2,1.2-0.2c0.4,0,0.8,0,1.2,0.1c0.3,0.1,0.7,0.2,1,0.3c0.3,0.2,0.6,0.4,0.9,0.6c0.3,0.3,0.5,0.5,0.7,0.8
				c0.1,0.2,0.3,0.5,0.4,0.7c0,0.2,0.1,0.4,0.1,0.5c0,0.5,0,1-0.1,1.5c-0.1,0.7-0.2,1.4-0.3,2c-0.1,1.5,0.8,2.9,2.3,3.4h0.1
				c0.3,0.6,0.7,1.2,1.2,1.7c0.7,0.7,1.6,1.2,2.5,1.5c0.5,0.1,1,0.2,1.6,0.2c0.7,0,1.3-0.1,2-0.2c0.6-0.1,1.2-0.4,1.8-0.6
				c0.3-0.1,0.7-0.3,1-0.5c0.5-0.3,0.9-0.6,1.3-0.9c0.4-0.4,0.8-0.9,1.2-1.4c0.3-0.4,0.5-1,0.8-1.4c0.2-0.3,0.3-0.7,0.4-1
				c0.3-1,0.5-2,0.6-3C99.8,66.5,99.7,65.5,99.6,64.5z"/>
			<g>
				<path class="st0" d="M101.1,64.5C99.7,52.6,88.7,37.7,75,43.3c0.6,0.5,1.3,1,1.9,1.4c0.4-4.4,0.5-8.8,0.2-13.3
					c-0.3-3.6-0.7-6.3-0.9-8.4c-0.4-5.4-3.9-11-9-13.1C61.8,7.7,56.3,10,53.6,15c-3.7,6.8-2.8,15.5-2.4,22.9
					c0.5,8.4,1.7,16.4,1.2,24.7c-0.3,6.1,1.5,11.5,7.9,13.2c3.8,1,7.8,0.6,11-1.7c1.9-1.4,3.1-3.2,4.4-5.1c0.3-0.5,2.3-4.1,2.6-4.1
					c0.5-0.1,3.2,3.8,3.2,4c0.2,0.7-0.1,1.6,0.1,2.3c0.4,1.7,2.3,3.2,2.9,3.8c2.3,2.1,3.7,3.4,7.1,3.1
					C98.9,77.5,101.5,70.9,101.1,64.5c-0.1-1.9-3.1-1.9-3,0c0.3,4.7-1.7,11-7.4,10.6c-2.8-0.2-3.1-1.4-4.4-3
					c-1.3-1.7-1.5-1.8-1.6-3.9c-0.2-3.2-0.6-5.9-4.4-6.5c-5.3-0.8-6.5,5.7-9.4,8.8c-4.6,4.8-13.8,3.3-15.3-3.6
					c-0.8-3.7,0.3-7.5,0.1-11.3c-0.2-3.7-0.5-7.3-0.9-10.9c-0.8-7.6-2-16.5-0.2-24c1.2-4.7,4.2-9.7,9.9-8.5c4.9,1,8.1,6.2,8.7,10.8
					c1,7.1,1.5,14.4,0.8,21.7c-0.1,0.9,1,1.8,1.9,1.4c11.6-4.8,21.1,8.1,22.3,18.3C98.4,66.4,101.4,66.4,101.1,64.5z"/>
			</g>
		</g>
		<g>
			<g>
				<path class="st0" d="M73.2,70.1c0.2-0.2,0.3-0.5,0.4-0.7c-0.4,0.5-0.7,1-1.1,1.6C72.8,70.6,73,70.3,73.2,70.1z"/>
				<g>
					<path class="st0" d="M74.5,70.8c0.2-0.2,0.3-0.5,0.4-0.7c0.4-0.7,0.2-1.6-0.5-2.1c-0.8-0.4-1.6-0.1-2.1,0.5
						c-0.4,0.5-0.7,1-1.1,1.6S71,71.6,71.6,72c0.5,0.4,1.5,0.5,2-0.1C73.9,71.6,74.2,71.2,74.5,70.8c0.5-0.7,0.1-1.7-0.5-2.1
						c-0.8-0.4-1.6-0.1-2.1,0.5c-0.2,0.2-0.3,0.4-0.4,0.5c0.8,0.6,1.6,1.2,2.4,1.8c0.4-0.5,0.7-1,1.1-1.6c-0.9-0.5-1.7-1-2.6-1.5
						c-0.1,0.2-0.3,0.5-0.4,0.7c-0.5,0.7-0.1,1.7,0.5,2.1C73.2,71.8,74.1,71.5,74.5,70.8z"/>
				</g>
			</g>
			<g>
				<path class="st0" d="M74.9,49.6c0-0.6,0-1.2,0-1.8c0-0.2,0.1-0.4,0.1-0.6c0.1-0.8,0.2-1.6,0.3-2.4c0.2-1.7,0.3-3.4,0.4-5.1
					c0.2-4.8-0.2-9.7-1-14.5c-0.1-0.2-0.2-0.4-0.3-0.6c0,0,0,0,0-0.1c0.2-1,0.2-2,0-2.9c-0.2-1.2-0.6-2.3-1.1-3.4
					c-0.6-1.2-1.4-2.3-2.2-3.3c-0.4-0.5-0.9-1-1.3-1.4c-0.5-0.5-1.1-0.9-1.7-1.4c-1-0.6-2.1-1.1-3.2-1.3c-1-0.2-1.9-0.3-2.9-0.2
					c-0.5,0.1-1,0.1-1.4,0.2c-0.5,0.1-0.9,0.3-1.4,0.5c-0.8,0.3-1.5,0.8-2.1,1.4c-0.6,0.6-1.2,1.2-1.6,1.9c-0.5,0.7-0.8,1.4-1.2,2.1
					c-0.4,0.9-0.7,1.7-0.9,2.6c-0.5,1.8-0.8,3.6-0.9,5.4c-0.2,1.6-0.2,3.3-0.1,4.9c0,0.5,0.1,1,0.2,1.5c0,1.6,0,3.2,0.1,4.8
					c0.2,4,0.6,8,1.1,12c0.1,0.8,0.2,1.6,0.3,2.4c0,2.3,0.1,4.5,0.4,6.8c0,0.2,0,0.4,0,0.6c-0.2,2.5-0.6,4.9-0.5,7.4
					c0,1.2,0.2,2.4,0.6,3.5c0.1,0.2,0.2,0.4,0.3,0.6c0.4,0.9,0.9,1.7,1.6,2.4c0.4,0.4,0.9,0.8,1.4,1.1c0.6,0.4,1.2,0.6,1.8,0.9
					c1.2,0.5,2.5,0.7,3.8,0.8c0.1,0,0.2,0,0.3,0c0.4,0,0.8,0,1.1-0.1l0,0c0.3,0.1,0.6,0.1,1,0.1c0,0,0,0,0.1,0
					c0.3,0,0.6-0.1,0.9-0.1c0.2,0,0.4-0.1,0.6-0.1c0.2-0.1,0.4-0.1,0.6-0.2c0.4-0.2,0.8-0.3,1.2-0.5c0.5-0.2,0.9-0.5,1.3-0.8
					c0.6-0.4,1.2-0.9,1.7-1.4c0.2-0.2,0.4-0.5,0.6-0.7c0.4-0.5,0.7-1,1.1-1.6"/>
				<g>
					<path class="st0" d="M76.4,49.6c0.2-7.8,1.3-15.2,0.1-23c-0.4-2.2,0-4-1-7.1c-0.8-2.4-2.3-4.6-4-6.3c-3.6-3.8-9.6-5.5-14.2-2.4
						c-4.8,3.2-6.1,9.7-6.5,15c-0.5,7.9,0.8,15.9,1.4,23.7c0.4,4.2,0.4,8.1,0.2,12.3c-0.2,2.9-0.3,5.9,0.9,8.6
						c2.1,4.6,6.8,5.9,11.3,5.9c4.6,0,7.7-2.4,10.3-6.1c1.1-1.6-1.5-3.1-2.6-1.5c-2.2,3.2-5,5-8.8,4.7c-7.9-0.6-8.5-6.8-8-13.4
						c0.8-9.5-1.3-19.7-1.7-29.3c-0.2-5.2-0.3-11.9,3.5-15.9c5.7-6.1,13.5,0,15.2,6.4c2.4,9.4,1.1,19,0.8,28.6
						C73.4,51.5,76.4,51.5,76.4,49.6L76.4,49.6z"/>
				</g>
			</g>
		</g>
	</g>
	<g>
		<g>
			<path class="st0" d="M1.5,62.6c0,0.5,0.1,1,0.2,1.5c0,1.6,0,3.2,0.1,4.8c0.2,4,0.6,8,1.1,12c0.1,0.8,0.2,1.6,0.3,2.4
				c0,2.3,0.1,4.5,0.4,6.8c0,0.2,0,0.4,0,0.6c-0.2,2.5-0.6,4.9-0.5,7.4c0,1.2,0.2,2.4,0.6,3.5s1,2.2,1.8,3c0.4,0.4,0.9,0.8,1.4,1.1
				c0.6,0.4,1.2,0.6,1.8,0.9c1.2,0.5,2.5,0.7,3.8,0.8c0.1,0,0.2,0,0.3,0c0.4,0,0.8,0,1.1-0.1l0,0c0.3,0.1,0.6,0.1,1,0.1
				c0,0,0,0,0.1,0c0.3,0,0.6-0.1,0.9-0.1c0.2,0,0.4-0.1,0.6-0.1c0.2-0.1,0.4-0.1,0.6-0.2c0.4-0.2,0.8-0.3,1.2-0.5
				c0.5-0.2,0.9-0.5,1.3-0.8c0.6-0.4,1.2-0.9,1.7-1.4s0.9-1,1.3-1.6c0.4-0.5,0.7-1.1,0.9-1.7c0.2-0.4,0.3-0.8,0.4-1.3
				c0.1-0.7,0.2-1.3,0.2-2c0.1-1.2,0.1-2.4,0-3.6c-0.1-1-0.2-2-0.4-3c0.1-1.5,0.3-2.9,0.3-4.4c0-0.8,0.1-1.7,0.1-2.5
				c0.1-1.2,0.1-2.4,0.1-3.7c0-0.2,0.1-0.4,0.1-0.6c0.4-2.5,0.6-5,0.7-7.5c0.2-4.8-0.2-9.7-1-14.5c-0.1-0.2-0.2-0.4-0.3-0.6
				c0,0,0,0,0-0.1c0.2-1,0.2-2,0-2.9c-0.2-1.2-0.6-2.3-1.1-3.4c-0.6-1.2-1.4-2.3-2.2-3.3c-0.4-0.5-0.9-1-1.3-1.4
				c-0.5-0.5-1.1-0.9-1.7-1.4c-1-0.6-2.1-1.1-3.2-1.3c-1-0.2-1.9-0.3-2.9-0.2c-0.5,0.1-1,0.1-1.4,0.2C9.4,43.6,9,43.8,8.5,44
				c-0.8,0.3-1.5,0.8-2.1,1.4s-1.2,1.2-1.6,1.9C4.3,48,4,48.7,3.6,49.4c-0.4,0.9-0.7,1.7-0.9,2.6c-0.5,1.8-0.8,3.6-0.9,5.4
				C1.5,59.3,1.4,60.9,1.5,62.6z"/>
			<g>
				<path class="st0" d="M0,62.6c0.8,6.8,1.1,13.9,1.6,20.8c0.2,3.4,0.4,6.8,0.1,10.2c-0.3,3.3-0.5,6.8,1,9.8
					c3.2,6.5,13.1,7.4,18.3,3.1c3.7-3,4.7-6.9,4.5-11.5c-0.2-7,0.4-13.7,0.9-20.7c0.2-3.6,0.1-7.3-0.2-11c-0.1-1.6-0.2-3.3-0.6-4.9
					c-0.4-1.8-0.3-0.5-0.4-1.1c-0.4-5.1-1.6-9.4-6-12.8c-4.1-3.2-10-3.6-14,0C0.5,48.8-0.2,56.6,0,62.6c0.1,1.9,3.1,1.9,3,0
					C2.7,56.2,4.1,43.1,13.6,45c6.4,1.2,7.8,7.5,8.6,12.7c1.2,7.5,1.3,14.2,0.6,21.8c-0.4,4.3-0.8,8.9-0.5,13.3
					c0.4,5.6-0.4,12.4-7.4,13.3c-5.9,0.7-10.3-2.8-10.4-8.8C4.4,91.8,4.9,86.5,4.3,81C3.6,74.9,3.6,68.7,3,62.6
					C2.8,60.7-0.2,60.6,0,62.6z"/>
			</g>
		</g>
		<g>
			<path class="st0" d="M21.6,76.1c0.5,0,1.1,0.1,1.6,0.1c0.4,0,0.9,0,1.3,0c0.7,0,1.3,0.1,2,0c1,0,2.1-0.2,3.1-0.4
				c1.8-0.3,3.5-1,5.2-1.8c0.9-0.4,1.8-1,2.5-1.6c0.6-0.3,1.1-0.7,1.6-1.1c1.1-0.8,2.1-1.6,2.9-2.7c0.4-0.5,0.8-1.1,1.2-1.7
				c0.3-0.6,0.6-1.2,0.8-1.9c0.2-0.6,0.3-1.3,0.3-1.9c0-0.5,0-1-0.1-1.5c-0.1-0.7-0.3-1.4-0.5-2c-0.1-0.2-0.2-0.5-0.3-0.7
				c0-0.2,0-0.3,0-0.5c0.1-1-0.1-2-0.3-3c-0.2-1.1-0.6-2.1-1.1-3c-0.4-0.8-0.9-1.5-1.4-2.2c-0.7-0.9-1.4-1.6-2.2-2.4
				c-0.8-0.7-1.6-1.3-2.5-1.9c-0.4-0.3-0.8-0.5-1.2-0.7c-0.5-0.2-0.9-0.5-1.4-0.7c-1-0.4-2-0.7-3-1c-1.1-0.3-2.2-0.4-3.3-0.5
				c-2-0.2-4,0.1-5.8,0.7c-1,0.3-1.9,0.8-2.8,1.3s-1.7,1.2-2.5,1.9c-0.3,0.3-0.6,0.6-0.9,0.9"/>
			<g>
				<path class="st0" d="M21.6,77.6c7.4,0.3,14.3-1.3,19.9-6.5C46,67,45.6,63,44.7,57.5c-1.1-6.7-4.6-11.8-11.1-14.5
					c-7.1-2.9-14.5-1.6-19.8,3.8c-1.4,1.4,0.8,3.5,2.1,2.1c4.9-4.9,11.8-5.8,18-2.5c5.6,2.9,7,7,7.9,12.8c0.3,1.9,1.2,3.4,0.6,5.4
					c-0.6,2.3-2.4,4-4.2,5.3c-5,3.8-10.4,4.9-16.6,4.6C19.7,74.5,19.7,77.5,21.6,77.6L21.6,77.6z"/>
			</g>
		</g>
		<g>
			<path class="st0" d="M27.8,63.1c-0.2,0.1-0.3,0.1-0.5,0.1c-0.2,0.1-0.4,0.1-0.5,0.2c0,0,0,0-0.1,0s-0.1,0.1-0.2,0.1
				c-0.2,0.1-0.3,0.2-0.5,0.2c-0.1,0-0.1,0-0.2,0l0,0c-0.1,0.1-0.2,0.1-0.3,0.1c-0.1,0-0.2,0-0.3,0c-0.1,0-0.1,0-0.2,0h-0.1
				c-0.1,0-0.1,0-0.2,0.1c-0.1,0-0.2,0-0.3,0c-0.1,0-0.3,0-0.4-0.1c-0.1,0-0.2-0.1-0.3-0.1c-0.2-0.1-0.3-0.2-0.4-0.3
				c-0.2-0.1-0.3-0.2-0.5-0.4c-0.1-0.1-0.3-0.2-0.4-0.4c-0.1-0.2-0.2-0.3-0.3-0.5c-0.1-0.2-0.2-0.4-0.2-0.5
				c-0.1-0.2-0.1-0.4-0.1-0.5c0-0.2,0-0.4-0.1-0.6c0-0.1,0-0.2,0-0.4c0-0.1,0-0.2,0-0.3c0-0.1,0-0.2,0.1-0.2c0-0.2,0-0.5,0-0.7
				c0-0.4,0.1-0.7,0.3-0.9c0-0.1,0.1-0.2,0.2-0.2c0.1-0.1,0.1-0.1,0.2-0.2c0.1,0,0.1-0.1,0.2-0.1s0.2-0.1,0.3-0.1
				c0-0.2,0-0.5,0.1-0.6c0.2-0.4,0.6-0.7,1.1-0.6c0.1,0,0.2,0,0.3,0.1c0.1,0.1,0.2,0.1,0.4,0.2l0,0c0.1,0,0.2,0,0.2,0l0.1-0.1
				c0.1,0,0.2-0.1,0.3-0.1c0.1,0,0.2,0,0.3,0c0.1,0,0.3,0.1,0.5,0.1l0,0l0,0c0.2,0,0.3,0,0.5,0c0.1,0,0.2,0.1,0.4,0.1
				c0.1,0.1,0.3,0.1,0.4,0.2c0.2,0.1,0.3,0.3,0.5,0.4c0.1,0.1,0.1,0.1,0.2,0.2l0,0c0,0,0,0,0.1,0.1l0,0c0.1,0.1,0.2,0.2,0.3,0.3
				c0.1,0.2,0.3,0.3,0.4,0.5l0,0l0,0c0.2,0.3,0.3,0.6,0.4,0.9s0.2,0.6,0.3,0.9c0,0.2,0,0.4,0,0.6c0,0.1,0,0.3,0,0.4
				c0,0.2-0.1,0.3-0.1,0.5c-0.1,0.2-0.1,0.3-0.2,0.5s-0.3,0.4-0.5,0.6c-0.1,0.1-0.2,0.1-0.2,0.2C28.1,62.9,27.9,63,27.8,63.1
				L27.8,63.1L27.8,63.1z"/>
			<g>
				<path class="st0" d="M27.4,61.6c-0.7,0.1-1.2,0.3-1.8,0.6c-0.3,0.1-0.6,0.4-0.9,0.5c0.6-0.2,0.5-0.2,0.1-0.3
					c-0.8-0.3-0.1,0.3-0.8-0.1c-0.3-0.1-0.5-0.5-0.7-0.8c-0.1-0.2-0.4-2.5-0.1-2.6c0.6-0.2,1.1-0.8,1.1-1.4c0,0.5-0.9,0.3,0.2,0.5
					c0.4,0.1,0.7-0.1,1-0.1s0.8,0,1.2,0.3C27.4,58.9,28.5,61.1,27.4,61.6c-1.8,0.7-1,3.6,0.8,2.9c3.8-1.6,3-6.5,0.2-8.7
					c-0.3-0.3-0.7-0.5-1.2-0.7C27,55,25.4,54.8,26.3,55c-0.5-0.1-1-0.2-1.6-0.1c-0.2,0.1-0.4,0.2-0.6,0.3c1.2,0.3,1.5,0.3,1,0
					c-1.8-1.5-3.9,0.6-3.9,2.3c0.4-0.5,0.7-1,1.1-1.4c-3.4,0.9-2.6,6.4-0.6,8.3c0.6,0.5,1.3,1,2.1,1.1c0.4,0.1,0.7,0,1.1,0
					c-0.6,0.1-0.6,0,0.1,0c0.4,0,0.7-0.1,1.1-0.2c0.2-0.1,0.4-0.2,0.6-0.4c-0.2,0.1-0.3,0.2-0.5,0.3c0.7-0.2,1.1-0.5,1.8-0.7
					C30.1,64.2,29.3,61.3,27.4,61.6z"/>
			</g>
		</g>
	</g>
	<g>
		<g>
			<path class="st0" d="M192.4,65.8c-0.1-1.7-0.4-3.3-0.8-4.9c-0.5-1.9-1.1-3.7-2.2-5c-0.3-0.3-0.5-0.7-0.9-0.9
				c-0.3-0.3-0.7-0.5-1-0.7s-0.6-0.3-0.9-0.4c-0.5-0.1-0.9-0.2-1.4-0.2h-0.1c-0.8,0-1.6,0.1-2.3,0.3c0,0,0,0-0.1,0s-0.1,0-0.2,0
				c-0.5,0-1,0.2-1.5,0.5l-0.1,0.1c-0.4,0.2-0.8,0.4-1.2,0.6c-0.3,0.2-0.6,0.5-0.8,0.8c-0.2,0.4-0.5,0.8-0.5,1.4c0,0.1,0,0.3,0,0.4
				c-0.2,0.1-0.3,0.3-0.4,0.6c-0.9,1.6-1.5,3.4-1.9,5.3c-0.2,0.8-0.3,1.6-0.4,2.4c0,0.2-0.1,0.5-0.1,0.7c-0.1,0.6-0.1,1.1-0.1,1.7
				c-0.1,0.4-0.2,0.8-0.3,1.1c-0.2,1-0.4,2.1-0.5,3.1c-0.1,0.8-0.1,1.6-0.2,2.4c-0.1,0.8-0.1,1.6-0.1,2.4l0,0
				c-0.2,1.3-0.4,2.7-0.5,4c-0.1,1-0.1,2-0.1,3.1c0,0.1,0,0.1,0,0.2c-0.1,0.1-0.1,0.2-0.2,0.4c-0.2,0.2-0.4,0.4-0.6,0.6
				c-0.3,0.2-0.5,0.3-0.8,0.5c-0.2,0.1-0.4,0.1-0.6,0.2c-0.2,0-0.4,0-0.7,0c-0.1,0-0.3-0.1-0.4-0.1c-0.1-0.2-0.2-0.3-0.4-0.5
				c-0.4-0.4-0.9-0.6-1.4-0.8c-0.1,0-0.2-0.1-0.3-0.1c-0.4-0.1-0.9-0.1-1.3-0.1l0,0c-0.1-0.1-0.2-0.1-0.3-0.2
				c-0.5-0.4-1.2-0.6-1.8-0.8c-0.7-0.3-1.4-0.3-2.1-0.4c-0.5,0-1,0-1.5,0c-0.7,0.1-1.5,0.2-2.1,0.5c-1.4,0.5-2.6,1.3-3.6,2.4
				c-1.1,1.2-1.8,2.7-2.2,4.2c-0.1,0.5-0.2,1-0.2,1.4c0,0.3,0,0.6,0,0.9c0,0.4,0.1,0.9,0.2,1.3c0.1,0.3,0.1,0.6,0.2,0.9
				c0.5,1.4,1.3,2.7,2.3,3.7c0.4,0.4,0.9,0.8,1.3,1.1c0.2,0.4,0.4,0.7,0.6,1.1c0.2,0.3,0.5,0.6,0.7,0.9c0.3,0.3,0.6,0.5,0.9,0.7
				c0.8,0.6,1.6,1.1,2.5,1.5c0.5,0.2,1,0.4,1.6,0.5c0.6,0.2,1.2,0.2,1.8,0.3c0.8,0.1,1.7,0.1,2.5,0s1.6-0.2,2.4-0.4
				c0.2,0.1,0.5,0.1,0.7,0.1c0.6,0.1,1.1,0.1,1.7,0.1c0.6,0,1.2-0.1,1.8-0.3c1.2-0.3,2.2-0.7,3.3-1.3c1.1-0.6,2.1-1.3,3-2.1
				c0.2,0,0.4-0.1,0.6-0.3c0.5-0.1,1-0.2,1.5-0.5c1.1-0.5,2.1-1.3,3.1-2.4c0.9-1,1.7-2.2,2.3-3.5c0.1-0.2,0.2-0.4,0.3-0.6
				c0.9-1.9,1.6-4.2,1.7-6.5v-0.1c0.1-0.3,0.1-0.5,0.2-0.8c0.6-1.8,1-3.7,1-5.6c0-0.4,0-0.7,0-1.1c0.2-0.9,0.4-1.8,0.5-2.8
				C192.5,73.3,192.7,69.5,192.4,65.8z"/>
			<g>
				<path class="st0" d="M193.9,65.8c-0.5-4.7-1.5-11.7-6.8-13.4c-2.8-0.8-7.2,0-9.1,2.4c-3,3.8-3.5,9.6-4.2,14.3
					c-0.4,2.7-0.5,5.3-0.8,8c-0.1,1.3-0.3,2.5-0.5,3.8c-0.2,1.6,0.5,4.1-1.5,3.9c-0.6,0-1.5-0.9-2.2-1.2c-0.5-0.2-1.2,0-1.7-0.2
					c0.5,0.2,1.1,0.1-0.4-0.5c-2-0.8-4-1.2-6.2-0.8c-5.4,1-9.2,6-8.7,11.4c0.4,4.8,5.2,9.9,9.5,11.9c4.1,1.8,11.7,1.4,15.8-0.3
					c2.3-1,4.3-2.5,6.5-3.5c1.1-0.5,2.2-1.3,3.1-2.2c2.2-2.2,3.7-5.3,4.6-8.4C193.3,83.1,194.3,74.1,193.9,65.8
					c-0.1-1.9-3.1-1.9-3,0c0.4,7.2-0.7,14.4-2.1,21.4c-0.7,3.3-1.4,7.1-3.8,9.6c-1.7,1.8-5.5,3.7-7.8,5c-2.5,1.3-7.4,1.7-10.4,1.7
					c-4.7,0-7.9-3.2-10.4-6.7c-3.6-5,0.3-12.4,6.7-11.8c1.5,0.1,2.9,0.9,4.2,1.4c2.6,1.2,5.4,2.8,7.6-0.2c0.9-1.2,0.7-2.4,0.8-3.9
					c0.2-2.4,0.5-4.8,0.7-7.3c0.3-5.3,0.8-12,3.7-16.6c1-1.6,1.7-2.5,3.5-3c6-1.6,7.2,6.3,7.6,10.4
					C191.1,67.7,194.1,67.8,193.9,65.8z"/>
			</g>
		</g>
		<g>
			<path class="st0" d="M191.3,65.5c0.4-0.7,0.6-1.5,0.8-2.3c0.3-1.2,0.5-2.4,0.5-3.6c0-0.1,0-0.2,0-0.3c0.1-0.4,0.2-0.7,0.2-1.1
				c0-0.1,0-0.2,0-0.4c0-0.1-0.1-0.2-0.2-0.2c0-0.1,0-0.2,0-0.3c0.1-0.5,0.2-1,0.2-1.5c0.1-0.4,0.3-0.8,0.3-1.2
				c0.2-0.8,0.3-1.6,0.3-2.4s-0.1-1.6-0.2-2.4v-0.1c0.2-1.9,0.2-3.9-0.2-5.8c-0.2-1-0.5-2-1-2.9c-0.5-1.1-1.3-2.2-2.3-2.9
				c-0.3-0.2-0.6-0.4-0.9-0.5c-0.3-0.2-0.7-0.3-1-0.4s-0.6-0.1-0.9-0.2c-0.5-0.1-0.9-0.1-1.4-0.1h-0.1c-0.7,0-1.5,0.1-2.2,0.2
				c0,0,0,0-0.1,0s-0.1,0-0.2,0c-0.5,0-1,0.1-1.4,0.3c0,0-0.1,0-0.1,0.1c-0.4,0.1-0.7,0.3-1.1,0.4c-0.1,0-0.2,0.1-0.3,0.2
				c-0.2,0.1-0.3,0.2-0.4,0.3c-0.2,0.2-0.4,0.5-0.5,0.8c0,0.1,0,0.2,0,0.2c-0.2,0.1-0.3,0.2-0.4,0.3c-0.8,0.9-1.3,2.1-1.6,3.2
				c-0.2,0.6-0.3,1.3-0.3,1.9c0,0.5-0.1,0.9,0,1.4c0,0.5,0,1,0,1.5l0,0c-0.2,1.2-0.3,2.5-0.3,3.7c0,0.2,0,0.3,0,0.5
				c0,0.7,0.2,1.4,0.3,2c0,0.2,0,0.4-0.1,0.7c-0.1,0.5-0.2,0.9-0.4,1.3l0,0c0,0.1-0.1,0.1-0.1,0.2v0.1c0,0.1,0,0.2,0,0.3
				c0,0.3-0.1,0.6-0.1,0.9c-0.1,0.2-0.1,0.4-0.2,0.7c-0.1,0.3-0.3,0.5-0.5,0.8c-0.2,0.2-0.4,0.5-0.7,0.6c-0.3,0.2-0.5,0.4-0.8,0.5
				c-0.5,0.3-1.1,0.5-1.7,0.6c-0.3,0.1-0.6,0.1-0.9,0.2c-0.4,0.1-0.9,0.2-1.3,0.2c-0.8,0-1.7,0-2.5-0.2c-0.5-0.1-0.9-0.2-1.4-0.4
				c-0.3-0.1-0.5-0.2-0.8-0.4c-0.2-0.1-0.4-0.1-0.6-0.2c-0.6-0.3-1.3-0.6-1.8-1.1c-0.3-0.2-0.6-0.5-0.8-0.8
				c-0.3-0.4-0.5-0.8-0.7-1.3c-0.2-0.6-0.3-1.1-0.4-1.7v-0.1c0.2-0.6,0.3-1.1,0.3-1.7c0,0,0,0,0-0.1c0.2-0.7,0.4-1.3,0.5-2
				c0-0.2,0.1-0.4,0.1-0.6c0.3-2.2,0.3-4.4-0.1-6.7c-0.2-1-0.5-2-1-2.9c-0.5-1.1-1.3-2.2-2.3-2.9c-0.3-0.2-0.6-0.4-0.9-0.5
				c-0.3-0.2-0.7-0.3-1-0.4s-0.6-0.1-0.9-0.2c-0.4-0.1-0.9-0.1-1.3-0.1c0,0,0,0-0.1,0h-0.1c-0.7,0-1.5,0.1-2.2,0.2c0,0,0,0-0.1,0
				s-0.1,0-0.2,0c-0.5,0-1,0.1-1.4,0.3c0,0-0.1,0-0.1,0.1c-0.4,0.1-0.7,0.3-1.1,0.4c-0.3,0.1-0.6,0.3-0.8,0.5s-0.4,0.5-0.5,0.8
				c0,0.1,0,0.2,0,0.2c-0.2,0.1-0.3,0.2-0.4,0.3c-0.8,0.9-1.3,2.1-1.6,3.2c-0.2,0.6-0.3,1.3-0.3,1.9c0,0.5-0.1,0.9,0,1.4
				c0,0.5,0,1,0,1.5l0,0c-0.2,1.4-0.4,2.8-0.3,4.3c0.1,1.1,0.3,2.2,0.8,3.2c0.1,0.5,0.1,1,0.2,1.5c0.1,0.7,0.3,1.4,0.5,2
				c0.4,1.3,1,2.6,1.6,3.8c0.3,0.6,0.6,1.1,0.9,1.6c0.1,0.2,0.3,0.4,0.4,0.6c0.1,0.2,0.2,0.5,0.2,0.7c0.4,1.1,1,2,1.7,2.9
				c1.5,1.8,3.7,3.1,5.9,4c0.2,0.1,0.3,0.1,0.5,0.2l0,0c0.3,0.3,0.6,0.6,1,0.8c0.4,0.2,0.8,0.4,1.3,0.6c0.9,0.3,2,0.5,3,0.5
				c0.5,0,0.9,0,1.4,0c1.3,0.2,2.7,0.2,4,0.3c0.6,0.1,1.2,0.1,1.8,0.2c1.5,0.1,3,0.1,4.5-0.1c0.8-0.1,1.7-0.2,2.5-0.4
				c0.2-0.1,0.5-0.2,0.6-0.4"/>
			<g>
				<path class="st0" d="M192.6,66.3c1.2-2.7,1.5-5.5,1.8-8.4c0.1-0.6-0.1-1-0.1-1.6c0.1-1.8,0.7-3.3,0.7-5.2
					c-0.1-5.7-0.2-13.7-7.1-15.4c-3.5-0.9-7.8,0-10,2.8c-3.5,4.5-2.4,10.4-2.8,15.9c-0.3,3.4-2.7,5.5-6.4,5.2
					c-3.3-0.3-5.8-2.4-5.9-6c0-0.9,0.5-2.1,0.7-3c0.9-5.9-0.7-14.1-7.7-15.1c-12.5-1.8-13,12.8-10.9,21.6c0.9,3.8,2.6,7.3,4.5,10.6
					c1.8,3.1,5.3,4.6,7.6,5.9c3.4,1.8,5.7,2.3,9.6,2.6c3.6,0.2,8.9,1.1,12.2-0.9c1.6-1,0.1-3.6-1.5-2.6c-2.7,1.7-7.7,0.7-10.7,0.5
					s-5.5-0.9-8.2-2.1c-6.7-3-9.8-10.1-11.2-17c-0.9-4.6-1.1-13.6,4.3-15.4c8-2.6,9.8,7.1,8.7,13c-0.7,3.6-0.7,6.8,2.8,9
					c3.4,2.1,8.6,2.7,12,0.4c1.2-0.8,2-1.8,2.5-3.2c0.2-0.5,0.1-1.1,0.2-1.6c-0.3,1.2,0.2-0.4,0.3-0.6c0.9-4.9-1.4-11.5,2.5-15.6
					c1.3-1.4,3.1-1.9,5.1-1.8c6.2,0.4,6.2,6.9,6.2,11.5c0,4.5-0.1,10.7-1.8,14.7C189.2,66.5,191.8,68.1,192.6,66.3L192.6,66.3z"/>
			</g>
		</g>
	</g>
	<g>
		<g>
			<path class="st0" d="M304.6,63.7c-0.1-0.9-0.2-1.9-0.4-2.8c-0.2-1-0.6-2-0.9-3c-0.3-0.9-0.6-1.7-1-2.5c-0.4-0.9-0.9-1.6-1.5-2.4
				c-0.2-0.4-0.5-0.7-0.8-1c-0.1-0.3-0.2-0.6-0.3-0.9c-0.3-0.7-0.8-1.4-1.3-2.1c-0.6-0.7-1.3-1.3-2-1.9c-0.5-0.4-1-0.7-1.5-1
				c-1-0.6-2.1-1.1-3.1-1.5c-1.5-0.6-3.1-1.1-4.7-1.4c-0.8-0.1-1.5-0.2-2.3-0.2c-0.6,0-1.2,0.1-1.8,0.2c-0.7,0.1-1.3,0.3-2,0.5
				c-0.2,0.1-0.4,0.2-0.6,0.3c0.2-1.7,0.3-3.4,0.4-5.1c0.2-4.8-0.2-9.7-1-14.5c-0.1-0.2-0.2-0.4-0.3-0.6c0,0,0,0,0-0.1
				c0.2-1,0.2-2,0-2.9c-0.2-1.2-0.6-2.3-1.1-3.4c-0.6-1.2-1.4-2.3-2.2-3.3c-0.4-0.5-0.9-1-1.3-1.4c-0.5-0.5-1.1-0.9-1.7-1.4
				c-1-0.6-2.1-1.1-3.2-1.3c-1-0.2-1.9-0.3-2.9-0.2c-0.5,0.1-1,0.1-1.4,0.2c-0.5,0.1-0.9,0.3-1.4,0.5c-0.8,0.3-1.5,0.8-2.1,1.4
				c-0.6,0.6-1.2,1.2-1.6,1.9c-0.5,0.7-0.8,1.4-1.2,2.1c-0.4,0.9-0.7,1.7-0.9,2.6c-0.5,1.8-0.8,3.6-0.9,5.4
				c-0.2,1.6-0.2,3.3-0.1,4.9c0,0.5,0.1,1,0.2,1.5c0,1.6,0,3.2,0.1,4.8c0.2,4,0.6,8,1.1,12c0.1,0.8,0.2,1.6,0.3,2.4
				c0,2.3,0.1,4.5,0.4,6.8c0,0.2,0,0.4,0,0.6c-0.2,2.5-0.6,4.9-0.5,7.4c0,1.2,0.2,2.4,0.6,3.5c0.1,0.2,0.2,0.4,0.3,0.6
				c0.4,0.9,0.9,1.7,1.6,2.4c0.4,0.4,0.9,0.8,1.4,1.1c0.6,0.4,1.2,0.6,1.8,0.9c1.2,0.5,2.5,0.7,3.8,0.8c0.1,0,0.2,0,0.3,0
				c0.4,0,0.8,0,1.1-0.1l0,0c0.3,0.1,0.6,0.1,1,0.1c0,0,0,0,0.1,0c0.3,0,0.6-0.1,0.9-0.1c0.2,0,0.4-0.1,0.6-0.1
				c0.2-0.1,0.4-0.1,0.6-0.2c0.4-0.2,0.8-0.3,1.2-0.5c0.5-0.2,0.9-0.5,1.3-0.8c0.6-0.4,1.2-0.9,1.7-1.4c0.2-0.2,0.4-0.5,0.6-0.7
				c0.2-0.3,0.4-0.6,0.7-0.9c0.2-0.2,0.3-0.5,0.4-0.7c0.5-0.7,1.1-1.5,1.6-2.2c0.8-1.1,1.5-2.3,2.1-3.4c0.2-0.1,0.4-0.2,0.6-0.3
				c0.4-0.1,0.8-0.2,1.2-0.2c0.4,0,0.8,0,1.2,0.1c0.3,0.1,0.7,0.2,1,0.3c0.3,0.2,0.6,0.4,0.9,0.6c0.3,0.3,0.5,0.5,0.7,0.8
				c0.1,0.2,0.3,0.5,0.4,0.7c0,0.2,0.1,0.4,0.1,0.5c0,0.5,0,1-0.1,1.5c-0.1,0.7-0.2,1.4-0.3,2c-0.1,1.5,0.8,2.9,2.3,3.4h0.1
				c0.3,0.6,0.7,1.2,1.2,1.7c0.7,0.7,1.6,1.2,2.5,1.5c0.5,0.1,1,0.2,1.6,0.2c0.7,0,1.3-0.1,2-0.2c0.6-0.1,1.2-0.4,1.8-0.6
				c0.3-0.1,0.7-0.3,1-0.5c0.5-0.3,0.9-0.6,1.3-0.9c0.4-0.4,0.8-0.9,1.2-1.4c0.3-0.4,0.5-1,0.8-1.4c0.2-0.3,0.3-0.7,0.4-1
				c0.3-1,0.5-2,0.6-3C304.8,65.7,304.7,64.7,304.6,63.7z"/>
			<g>
				<path class="st0" d="M306.1,63.7c-1.4-11.9-12.4-26.8-26.1-21.2c0.6,0.5,1.3,1,1.9,1.4c0.4-4.4,0.5-8.8,0.2-13.3
					c-0.3-3.6-0.7-6.3-0.9-8.4c-0.4-5.4-3.9-11-9-13.1c-5.4-2.2-10.9,0.1-13.6,5.1c-3.7,6.8-2.8,15.5-2.4,22.9
					c0.5,8.4,1.7,16.4,1.2,24.7c-0.3,6.1,1.5,11.5,7.9,13.2c3.8,1,7.8,0.6,11-1.7c1.9-1.4,3.1-3.2,4.4-5.1c0.3-0.5,2.3-4.1,2.6-4.1
					c0.5-0.1,3.2,3.8,3.2,4c0.2,0.7-0.1,1.6,0.1,2.3c0.4,1.7,2.3,3.2,2.9,3.8c2.3,2.1,3.7,3.4,7.1,3.1
					C303.8,76.7,306.5,70,306.1,63.7c-0.1-1.9-3.1-1.9-3,0c0.3,4.7-1.7,11-7.4,10.6c-2.8-0.2-3.1-1.4-4.4-3
					c-1.3-1.7-1.5-1.8-1.6-3.9c-0.2-3.2-0.6-5.9-4.4-6.5c-5.3-0.8-6.5,5.7-9.4,8.8c-4.6,4.8-13.8,3.3-15.3-3.6
					c-0.8-3.7,0.3-7.5,0.1-11.3c-0.2-3.7-0.5-7.3-0.9-10.9c-0.8-7.6-2-16.5-0.2-24c1.2-4.7,4.2-9.7,9.9-8.5c4.9,1,8.1,6.2,8.7,10.8
					c1,7.1,1.5,14.4,0.8,21.7c-0.1,0.9,1,1.8,1.9,1.4c11.6-4.8,21.1,8.1,22.3,18.3C303.3,65.6,306.3,65.6,306.1,63.7z"/>
			</g>
		</g>
		<g>
			<path class="st0" d="M282.2,43.4c0,0-3.3,0.8-5,2.5"/>
			<g>
				<path class="st0" d="M281.8,41.9c-2,0.5-4.1,1.4-5.7,2.9c-1.4,1.3,0.7,3.5,2.1,2.1c1.2-1.1,2.8-1.7,4.3-2.1
					C284.5,44.3,283.7,41.4,281.8,41.9L281.8,41.9z"/>
			</g>
		</g>
	</g>
	<g>
		<g>
			<path class="st1" d="M131.5,48.4c0-0.5-0.1-1-0.2-1.5c0-1.6,0-3.2-0.1-4.8c-0.2-4-0.6-8-1.1-12c-0.1-0.8-0.2-1.6-0.3-2.4
				c0-2.3-0.1-4.5-0.4-6.8c0-0.2,0-0.4,0-0.6c0.2-2.5,0.6-4.9,0.5-7.4c0-1.2-0.2-2.4-0.6-3.5c-0.4-1.1-1-2.2-1.8-3
				c-0.4-0.4-0.9-0.8-1.4-1.1c-0.6-0.4-1.2-0.6-1.8-0.9c-1.2-0.5-2.5-0.7-3.8-0.8c-0.1,0-0.2,0-0.3,0c-0.4,0-0.8,0-1.1,0.1l0,0
				c-0.3-0.1-0.6-0.1-1-0.1c0,0,0,0-0.1,0c-0.3,0-0.6,0.1-0.9,0.1c-0.2,0-0.4,0.1-0.6,0.1c-0.2,0.1-0.4,0.1-0.6,0.2
				c-0.4,0.2-0.8,0.3-1.2,0.5c-0.5,0.2-0.9,0.5-1.3,0.8c-0.6,0.4-1.2,0.9-1.7,1.4s-0.9,1-1.3,1.6c-0.4,0.5-0.7,1.1-0.9,1.7
				c-0.2,0.4-0.3,0.8-0.4,1.3c-0.1,0.7-0.2,1.3-0.2,2c-0.1,1.2-0.1,2.4,0,3.6c0.1,1,0.2,2,0.4,3c-0.1,1.5-0.3,2.9-0.3,4.4
				c0,0.8-0.1,1.7-0.1,2.5c-0.1,1.2-0.1,2.4-0.1,3.7c0,0.2-0.1,0.4-0.1,0.6c-0.4,2.5-0.6,5-0.7,7.5c-0.2,4.8,0.2,9.7,1,14.5
				c0.1,0.2,0.2,0.4,0.3,0.6c0,0,0,0,0,0.1c-0.2,1-0.2,2,0,2.9c0.2,1.2,0.6,2.3,1.1,3.4c0.6,1.2,1.4,2.3,2.2,3.3
				c0.4,0.5,0.9,1,1.3,1.4c0.5,0.5,1.1,0.9,1.7,1.4c1,0.6,2.1,1.1,3.2,1.3c1,0.2,1.9,0.3,2.9,0.2c0.5-0.1,1-0.1,1.4-0.2
				c0.5-0.1,0.9-0.3,1.4-0.5c0.8-0.3,1.5-0.8,2.1-1.4s1.2-1.2,1.6-1.9c0.5-0.7,0.8-1.4,1.2-2.1c0.4-0.9,0.7-1.7,0.9-2.6
				c0.5-1.8,0.8-3.6,0.9-5.4C131.6,51.7,131.7,50,131.5,48.4z"/>
			<g>
				<path class="st0" d="M133,48.4c-0.8-6.8-1.1-13.9-1.6-20.8c-0.2-3.4-0.4-6.8-0.1-10.2c0.3-3.3,0.5-6.8-1-9.8
					c-3.2-6.5-13.1-7.4-18.3-3.1c-3.7,3-4.7,6.9-4.5,11.5c0.2,7-0.4,13.7-0.9,20.7c-0.2,3.6-0.1,7.3,0.2,11c0.1,1.6,0.2,3.3,0.6,4.9
					c0.4,1.8,0.3,0.5,0.4,1.1c0.4,5.1,1.6,9.4,6,12.8c4.1,3.2,10,3.6,14,0C132.6,62.2,133.3,54.4,133,48.4c-0.1-1.9-3.1-1.9-3,0
					c0.3,6.4-1.1,19.5-10.6,17.6c-6.4-1.2-7.8-7.5-8.6-12.7c-1.2-7.5-1.3-14.2-0.6-21.8c0.4-4.3,0.8-8.9,0.5-13.3
					c-0.4-5.6,0.4-12.4,7.4-13.3c5.9-0.7,10.3,2.8,10.4,8.8c0.1,5.5-0.4,10.8,0.2,16.3c0.7,6.1,0.7,12.3,1.3,18.4
					C130.2,50.3,133.2,50.3,133,48.4z"/>
			</g>
		</g>
	</g>
	<g>
		<g>
			<path class="st1" d="M246.5,53.3c-0.3-1.8-0.7-3.5-1.3-5.2c-0.7-1.9-1.5-3.8-2.7-5.1c-0.3-0.3-0.6-0.6-1-0.9s-0.7-0.5-1.1-0.6
				c-0.3-0.2-0.7-0.2-1-0.3c-0.5-0.1-1-0.1-1.5-0.1h-0.1c-0.8,0-1.6,0.2-2.4,0.5c0,0,0,0-0.1,0s-0.1,0-0.2,0c-0.5,0-1.1,0.3-1.5,0.6
				l-0.1,0.1c-0.4,0.2-0.8,0.5-1.2,0.8c-0.3,0.2-0.6,0.5-0.8,0.9s-0.4,0.9-0.4,1.5c0,0.1,0,0.3,0,0.4c-0.2,0.2-0.3,0.4-0.4,0.6
				c-0.8,1.7-1.3,3.7-1.5,5.8c-0.1,0.8-0.2,1.7-0.2,2.6c0,0.3,0,0.5,0,0.8c0,0.6,0,1.2,0,1.8c-0.1,0.4-0.1,0.8-0.2,1.2
				c-0.1,1.1-0.2,2.2-0.2,3.4c0,0.8,0,1.7,0.1,2.5c0,0.9,0,1.7,0.1,2.6l0,0c-0.1,1.4-0.1,2.9-0.1,4.3c0,1.1,0,2.2,0.1,3.3
				c0,0.1,0,0.1,0,0.2c-0.1,0.1-0.1,0.3-0.2,0.4c-0.2,0.3-0.4,0.5-0.6,0.7c-0.3,0.2-0.5,0.4-0.8,0.6c-0.2,0.1-0.4,0.2-0.6,0.3
				c-0.2,0-0.5,0.1-0.7,0.1c-0.1,0-0.3,0-0.4-0.1c-0.1-0.2-0.3-0.3-0.4-0.5c-0.5-0.4-1-0.6-1.6-0.7c-0.1,0-0.2,0-0.3-0.1
				c-0.5-0.1-0.9-0.1-1.4,0l0,0c-0.1-0.1-0.2-0.1-0.3-0.2c-0.6-0.3-1.3-0.5-2-0.7s-1.5-0.2-2.2-0.2c-0.5,0-1.1,0.1-1.6,0.2
				c-0.8,0.2-1.5,0.4-2.2,0.7c-1.4,0.7-2.7,1.6-3.6,2.9c-1,1.3-1.7,3-2,4.7c-0.1,0.5-0.1,1-0.1,1.5c0,0.3,0,0.6,0.1,0.9
				c0.1,0.5,0.2,0.9,0.3,1.4c0.1,0.3,0.2,0.7,0.3,1c0.6,1.4,1.6,2.7,2.8,3.7c0.5,0.4,1,0.7,1.5,1c0.2,0.4,0.5,0.8,0.8,1.1
				c0.3,0.3,0.5,0.6,0.8,0.9s0.6,0.5,1,0.7c0.9,0.6,1.8,1,2.8,1.3c0.6,0.2,1.1,0.3,1.7,0.4c0.6,0.1,1.3,0.1,2,0.1
				c0.9,0,1.8-0.1,2.6-0.2c0.8-0.2,1.7-0.4,2.5-0.7c0.3,0,0.5,0.1,0.8,0.1c0.6,0,1.2,0,1.8-0.1s1.3-0.3,1.9-0.5
				c1.2-0.4,2.3-1,3.3-1.7c1.1-0.7,2-1.6,3-2.5c0.2,0,0.4-0.2,0.6-0.4c0.5-0.1,1-0.4,1.5-0.6c1.1-0.7,2.1-1.6,3-2.8
				c0.8-1.1,1.5-2.5,2.1-3.9c0.1-0.2,0.1-0.4,0.2-0.7c0.8-2.1,1.3-4.5,1.2-7V76c0-0.3,0.1-0.6,0.1-0.9c0.4-2,0.7-4,0.6-6
				c0-0.4-0.1-0.8-0.1-1.2c0.1-1,0.2-2,0.3-3C247.3,61.1,247.2,57.2,246.5,53.3z"/>
			<g>
				<path class="st0" d="M248,52.9c-1-5.2-2.9-12.7-9.3-13.2c-4.1-0.3-7.6,1.7-9,5.4c-2.1,5.6-2.6,11.6-2.6,17.6c0,2.9,0,5.9,0,8.8
					c0,1.6,0.8,3.7-1.3,3.8c-0.2,0-2-1-2.4-1.1c-1.6-0.4-2.6-0.9-5-1.2c-2.6-0.3-5.3,0.4-7.4,1.9c-4.8,3.2-6.4,10-3.3,14.9
					c6.4,10.1,19.8,10.8,29,4.4c2.8-2,5.7-3.4,7.7-6.4c1.9-2.9,3-6.5,3.3-9.9C248.4,69.6,249.2,61.3,248,52.9
					c-0.3-1.9-3.2-1.1-2.9,0.8c1,7.4,0.7,15.1-0.4,22.4c-0.6,3.8-0.7,7.6-3.3,10.7c-1.4,1.8-5.5,4.4-7.6,5.9
					c-2.7,1.8-5.6,1.9-8.7,2.4c-4.8,0.8-7.7,0.2-11.4-3.5c-1.7-1.7-3.7-2.7-4.4-5.2c-0.8-2.8,0.2-6.2,2.3-8.2c3.3-3,6.3-2,9.8-1
					c2.6,0.7,4.9,2.3,7.4,0c1.4-1.4,1.2-2.2,1.1-4.1c-0.1-2.9,0.1-5.7,0-8.5c-0.2-5.7-0.3-13.2,2.4-18.3c1.1-2,2.1-3.5,4.5-3.6
					c5.8-0.3,7.2,6.4,8.1,11C245.5,55.6,248.3,54.8,248,52.9z"/>
			</g>
		</g>
		<g>
			<path class="st1" d="M245.8,53.9c0.4-1.1,0.7-2.1,0.8-3.3c0.3-2.1,0.2-4.2-0.2-6.3c-0.1-0.5-0.2-1.1-0.4-1.6c0-0.5-0.1-1-0.2-1.5
				c-0.3-1.5-0.7-3-1.4-4.4c-0.4-0.8-0.8-1.5-1.3-2.2c-0.5-0.8-1.2-1.4-1.8-2.1c-1.2-1.2-2.7-2.3-4.2-3.1c-1.5-0.9-3.1-1.5-4.8-1.9
				c-0.7-0.2-1.5-0.2-2.2-0.3c-1,0-2-0.1-3,0H227c-1.7,0.1-3.5,0.5-5.1,1c-2.9,0.7-5.7,2-8,4c-0.4,0.4-0.8,0.7-1.2,1.1
				c-0.1,0.1-0.3,0.3-0.4,0.4c-0.5,0.5-1,1.1-1.5,1.7c-0.5,0.7-1,1.5-1.4,2.4c-0.7,1.4-1.2,2.8-1.7,4.3c-0.6,1.9-0.8,3.9-0.8,5.9
				c0,1.9,0.3,3.8,0.8,5.6c0.5,1.8,1.3,3.4,2.3,5c0.4,0.7,0.9,1.3,1.5,1.9c0.7,0.8,1.4,1.5,2.1,2.2c0.7,0.6,1.5,1.2,2.3,1.7
				c0.7,0.5,1.5,0.9,2.3,1.3c0.9,0.4,1.8,0.7,2.8,1c0.9,0.3,1.8,0.4,2.7,0.6c2.8,0.4,5.6,0.1,8.3-0.7"/>
			<g>
				<path class="st0" d="M247.3,54.3c2.9-9.6-0.5-21.1-9.4-26.2c-8.2-4.6-19.8-2.2-26.3,4.2c-6.6,6.5-8,17.9-3.5,26
					c4.9,8.8,14.8,12.1,24.3,9.7c1.9-0.5,1.1-3.4-0.8-2.9c-8.2,2.1-16.6-0.8-20.9-8.3c-3.9-6.8-2.7-16.8,3-22.3
					c5.6-5.5,15.7-7.7,22.7-3.8c7.8,4.3,10.6,14.6,8.1,22.8C243.8,55.3,246.7,56.1,247.3,54.3L247.3,54.3z"/>
			</g>
		</g>
		<g>
			<path class="st0" d="M225.7,52.5c0.2-0.1,0.4-0.2,0.6-0.3c0.3,0,0.5-0.1,0.8-0.2h0.1c0.1,0,0.2,0,0.3,0c0.3,0,0.5,0,0.8-0.1
				c0.1,0,0.1,0,0.2-0.1l0,0c0.2,0,0.3,0,0.5-0.1c0.1,0,0.3-0.1,0.4-0.2c0.1-0.1,0.2-0.1,0.2-0.2l0.1-0.1c0.1,0,0.2,0,0.2,0
				c0.2,0,0.3-0.1,0.4-0.2c0.2-0.1,0.3-0.3,0.4-0.4c0.1-0.1,0.2-0.2,0.2-0.3c0.1-0.2,0.2-0.4,0.3-0.6s0.2-0.5,0.3-0.8
				c0.1-0.2,0.1-0.5,0.2-0.7c0-0.3,0-0.5,0-0.8s-0.1-0.5-0.1-0.8c-0.1-0.3-0.1-0.5-0.2-0.7c-0.1-0.3-0.2-0.5-0.4-0.7
				c-0.1-0.1-0.2-0.3-0.3-0.4s-0.2-0.3-0.2-0.4c-0.1-0.1-0.2-0.2-0.2-0.3c-0.2-0.3-0.3-0.6-0.5-0.8c-0.3-0.4-0.6-0.7-1-0.9
				c-0.1-0.1-0.2-0.1-0.4-0.1c-0.1,0-0.2,0-0.3,0s-0.2,0-0.3,0s-0.2,0.1-0.4,0.1c-0.2-0.3-0.3-0.5-0.6-0.7c-0.5-0.4-1.3-0.4-1.7,0.1
				c-0.1,0.1-0.2,0.2-0.3,0.3c-0.1,0.2-0.2,0.3-0.3,0.5l0,0c-0.1,0-0.2,0.1-0.3,0.1s-0.1,0-0.2,0c-0.1,0-0.3,0-0.4,0.1
				c-0.1,0-0.2,0.1-0.4,0.2s-0.3,0.3-0.5,0.5l0,0l0,0c-0.2,0.1-0.4,0.2-0.5,0.4c-0.1,0.1-0.2,0.2-0.3,0.4c-0.1,0.2-0.2,0.3-0.3,0.5
				c-0.1,0.3-0.2,0.6-0.3,0.9c0,0.1,0,0.2-0.1,0.3l0,0v0.1l0,0c0,0.2-0.1,0.3-0.1,0.5c0,0.3,0,0.6,0,0.9l0,0l0,0
				c0,0.5,0.1,0.9,0.1,1.4c0.1,0.4,0.2,0.9,0.4,1.3c0.1,0.3,0.3,0.5,0.4,0.7c0.1,0.2,0.2,0.3,0.3,0.4c0.2,0.2,0.3,0.4,0.5,0.5
				c0.2,0.2,0.4,0.3,0.6,0.4c0.3,0.2,0.7,0.3,1,0.3c0.1,0,0.3,0,0.4,0C225.3,52.6,225.5,52.6,225.7,52.5L225.7,52.5L225.7,52.5z"/>
			<g>
				<path class="st0" d="M226.1,54c2-0.8,2.9-0.5,4.7-1.5c-0.8,0.4,0.2,0.1,0.4-0.1c0.3-0.2,0.6-0.5,0.9-0.8
					c0.7-0.9,1.1-2.1,1.3-3.2c0.4-3-2.6-8.8-6.3-7.5c0.6,0.2,1.1,0.5,1.7,0.7c-0.7-1.1-1.7-1.8-3.1-1.6c-0.7,0.1-2.8,1.2-2.5,2.3
					c1.2-0.8,1.4-1.1,0.6-0.9c-0.3,0-0.5,0.1-0.7,0.2c-0.5,0.2-0.7,0.6-1.1,0.9c-0.8,0.7-1.4,1.3-1.7,2.4s-0.3,0.9-0.4,2.3
					c0,1,0.1,2,0.4,2.9C220.9,52.8,223.2,54.5,226.1,54c1.9-0.3,1.1-3.2-0.8-2.9c-2.4,0.4-3-3.5-2.4-5.1c0.2-0.6,0.8-1.4,1.4-1.8
					c0.3-0.2,0.7-0.1,1-0.4c0.2-0.1,0.7-0.9,0.8-0.8c0.4,0.5,1,0.9,1.7,0.7c0.6-0.2,0.2-0.3,1,0.6c0.2,0.3,0.5,0.7,0.7,1
					c0.9,1.2,1.3,3.1,0,4.3c-1.1,1.1-3,0.8-4.3,1.4C223.6,51.8,224.3,54.7,226.1,54z"/>
			</g>
		</g>
	</g>
	<g>
		<g>
			<path class="st1" d="M99.6,56.2c-0.1-0.9-0.2-1.9-0.4-2.8c-0.2-1-0.6-2-0.9-3c-0.3-0.9-0.6-1.7-1-2.5c-0.4-0.9-0.9-1.6-1.5-2.4
				c-0.2-0.4-0.5-0.7-0.8-1c-0.1-0.3-0.2-0.6-0.3-0.9c-0.3-0.7-0.8-1.4-1.3-2.1c-0.6-0.7-1.3-1.3-2-1.9c-0.5-0.4-1-0.7-1.5-1
				c-1-0.6-2.1-1.1-3.1-1.5c-1.5-0.6-3.1-1.1-4.7-1.4c-0.8-0.1-1.5-0.2-2.3-0.2c-0.6,0-1.2,0.1-1.8,0.2c-0.7,0.1-1.3,0.3-2,0.5
				c-0.2,0.1-0.4,0.2-0.6,0.3c0.2-1.7,0.3-3.4,0.4-5.1c0.2-4.8-0.2-9.7-1-14.5c-0.1-0.2-0.2-0.4-0.3-0.6c0,0,0,0,0-0.1
				c0.2-1,0.2-2,0-2.9c-0.2-1.2-0.6-2.3-1.1-3.4c-0.6-1.2-1.4-2.3-2.2-3.3c-0.4-0.5-0.9-1-1.3-1.4c-0.5-0.5-1.1-0.9-1.7-1.4
				c-1-0.6-2.1-1.1-3.2-1.3c-1-0.2-1.9-0.3-2.9-0.2c-0.5,0.1-1,0.1-1.4,0.2c-0.5,0.1-0.9,0.3-1.4,0.5c-0.8,0.3-1.5,0.8-2.1,1.4
				C56.6,5,56,5.6,55.6,6.3c-0.5,0.7-0.8,1.4-1.2,2.1c-0.4,0.9-0.7,1.7-0.9,2.6c-0.5,1.8-0.8,3.6-0.9,5.4c-0.2,1.6-0.2,3.3-0.1,4.9
				c0,0.5,0.1,1,0.2,1.5c0,1.6,0,3.2,0.1,4.8c0.2,4,0.6,8,1.1,12c0.1,0.8,0.2,1.6,0.3,2.4c0,2.3,0.1,4.5,0.4,6.8c0,0.2,0,0.4,0,0.6
				c-0.2,2.5-0.6,4.9-0.5,7.4c0,1.2,0.2,2.4,0.6,3.5c0.1,0.2,0.2,0.4,0.3,0.6c0.4,0.9,0.9,1.7,1.6,2.4c0.4,0.4,0.9,0.8,1.4,1.1
				c0.6,0.4,1.2,0.6,1.8,0.9c1.2,0.5,2.5,0.7,3.8,0.8c0.1,0,0.2,0,0.3,0c0.4,0,0.8,0,1.1-0.1l0,0c0.3,0.1,0.6,0.1,1,0.1
				c0,0,0,0,0.1,0c0.3,0,0.6-0.1,0.9-0.1c0.2,0,0.4-0.1,0.6-0.1c0.2-0.1,0.4-0.1,0.6-0.2c0.4-0.2,0.8-0.3,1.2-0.5
				c0.5-0.2,0.9-0.5,1.3-0.8c0.6-0.4,1.2-0.9,1.7-1.4c0.2-0.2,0.4-0.5,0.6-0.7c0.2-0.3,0.4-0.6,0.7-0.9c0.2-0.2,0.3-0.5,0.4-0.7
				c0.5-0.7,1.1-1.5,1.6-2.2c0.8-1.1,1.5-2.3,2.1-3.4c0.2-0.1,0.4-0.2,0.6-0.3c0.4-0.1,0.8-0.2,1.2-0.2c0.4,0,0.8,0,1.2,0.1
				c0.3,0.1,0.7,0.2,1,0.3c0.3,0.2,0.6,0.4,0.9,0.6c0.3,0.3,0.5,0.5,0.7,0.8c0.1,0.2,0.3,0.5,0.4,0.7c0,0.2,0.1,0.4,0.1,0.5
				c0,0.5,0,1-0.1,1.5c-0.1,0.7-0.2,1.4-0.3,2c-0.1,1.5,0.8,2.9,2.3,3.4h0.1c0.3,0.6,0.7,1.2,1.2,1.7c0.7,0.7,1.6,1.2,2.5,1.5
				c0.5,0.1,1,0.2,1.6,0.2c0.7,0,1.3-0.1,2-0.2c0.6-0.1,1.2-0.4,1.8-0.6c0.3-0.1,0.7-0.3,1-0.5c0.5-0.3,0.9-0.6,1.3-0.9
				c0.4-0.4,0.8-0.9,1.2-1.4c0.3-0.4,0.5-1,0.8-1.4c0.2-0.3,0.3-0.7,0.4-1c0.3-1,0.5-2,0.6-3C99.8,58.2,99.7,57.2,99.6,56.2z"/>
			<g>
				<path class="st0" d="M101.1,56.2C99.7,44.3,88.7,29.4,75,35c0.6,0.5,1.3,1,1.9,1.4c0.4-4.4,0.5-8.8,0.2-13.3
					c-0.3-3.6-0.7-6.3-0.9-8.4c-0.4-5.4-3.9-11-9-13.1c-5.4-2.2-10.9,0.1-13.6,5.1c-3.7,6.8-2.8,15.5-2.4,22.9
					c0.5,8.4,1.7,16.4,1.2,24.7c-0.3,6.1,1.5,11.5,7.9,13.2c3.8,1,7.8,0.6,11-1.7c1.9-1.4,3.1-3.2,4.4-5.1c0.3-0.5,2.3-4.1,2.6-4.1
					c0.5-0.1,3.2,3.8,3.2,4c0.2,0.7-0.1,1.6,0.1,2.3c0.4,1.7,2.3,3.2,2.9,3.8c2.3,2.1,3.7,3.4,7.1,3.1
					C98.9,69.2,101.5,62.5,101.1,56.2c-0.1-1.9-3.1-1.9-3,0c0.3,4.7-1.7,11-7.4,10.6c-2.8-0.2-3.1-1.4-4.4-3
					c-1.3-1.7-1.5-1.8-1.6-3.9c-0.2-3.2-0.6-5.9-4.4-6.5c-5.3-0.8-6.5,5.7-9.4,8.8c-4.6,4.8-13.8,3.3-15.3-3.6
					c-0.8-3.7,0.3-7.5,0.1-11.3c-0.2-3.7-0.5-7.3-0.9-10.9c-0.8-7.6-2-16.5-0.2-24c1.2-4.7,4.2-9.7,9.9-8.5c4.9,1,8.1,6.2,8.7,10.8
					c1,7.1,1.5,14.4,0.8,21.7c-0.1,0.9,1,1.8,1.9,1.4C87.5,33,97,45.9,98.2,56.1C98.4,58.1,101.4,58.1,101.1,56.2z"/>
			</g>
		</g>
		<g>
			<g>
				<g>
					<path class="st0" d="M74.5,62.5c0.2-0.2,0.3-0.5,0.4-0.7c0.4-0.7,0.2-1.6-0.5-2.1c-0.8-0.4-1.6-0.1-2.1,0.5
						c-0.4,0.5-0.7,1-1.1,1.6s-0.2,1.5,0.4,1.9c0.5,0.4,1.5,0.5,2-0.1C73.9,63.3,74.2,62.9,74.5,62.5c0.5-0.7,0.1-1.7-0.5-2.1
						c-0.8-0.4-1.6-0.1-2.1,0.5c-0.2,0.2-0.3,0.4-0.4,0.5c0.8,0.6,1.6,1.2,2.4,1.8c0.4-0.5,0.7-1,1.1-1.6c-0.9-0.5-1.7-1-2.6-1.5
						c-0.1,0.2-0.3,0.5-0.4,0.7c-0.5,0.7-0.1,1.7,0.5,2.1C73.2,63.5,74.1,63.2,74.5,62.5z"/>
				</g>
			</g>
			<g>
				<g>
					<path class="st0" d="M76.4,41.3c0.2-7.8,1.3-15.2,0.1-23c-0.4-2.2,0-4-1-7.1c-0.8-2.4-2.3-4.6-4-6.3c-3.6-3.8-9.6-5.5-14.2-2.4
						c-4.8,3.2-6.1,9.7-6.5,15c-0.5,7.9,0.8,15.9,1.4,23.7c0.4,4.2,0.4,8.1,0.2,12.3c-0.2,2.9-0.3,5.9,0.9,8.6
						c2.1,4.6,6.8,5.9,11.3,5.9c4.6,0,7.7-2.4,10.3-6.1c1.1-1.6-1.5-3.1-2.6-1.5c-2.2,3.2-5,5-8.8,4.7c-7.9-0.6-8.5-6.8-8-13.4
						c0.8-9.5-1.3-19.7-1.7-29.3c-0.2-5.2-0.3-11.9,3.5-15.9c5.7-6.1,13.5,0,15.2,6.4c2.4,9.4,1.1,19,0.8,28.6
						C73.4,43.2,76.4,43.2,76.4,41.3L76.4,41.3z"/>
				</g>
			</g>
		</g>
	</g>
	<g>
		<g>
			<path class="st1" d="M1.5,54.2c0,0.5,0.1,1,0.2,1.5c0,1.6,0,3.2,0.1,4.8c0.2,4,0.6,8,1.1,12c0.1,0.8,0.2,1.6,0.3,2.4
				c0,2.3,0.1,4.5,0.4,6.8c0,0.2,0,0.4,0,0.6c-0.2,2.5-0.6,4.9-0.5,7.4c0,1.2,0.2,2.4,0.6,3.5s1,2.2,1.8,3c0.4,0.4,0.9,0.8,1.4,1.1
				c0.6,0.4,1.2,0.6,1.8,0.9c1.2,0.5,2.5,0.7,3.8,0.8c0.1,0,0.2,0,0.3,0c0.4,0,0.8,0,1.1-0.1l0,0c0.3,0.1,0.6,0.1,1,0.1
				c0,0,0,0,0.1,0c0.3,0,0.6-0.1,0.9-0.1c0.2,0,0.4-0.1,0.6-0.1c0.2-0.1,0.4-0.1,0.6-0.2c0.4-0.2,0.8-0.3,1.2-0.5
				c0.5-0.2,0.9-0.5,1.3-0.8c0.6-0.4,1.2-0.9,1.7-1.4s0.9-1,1.3-1.6c0.4-0.5,0.7-1.1,0.9-1.7c0.2-0.4,0.3-0.8,0.4-1.3
				c0.1-0.7,0.2-1.3,0.2-2c0.1-1.2,0.1-2.4,0-3.6c-0.1-1-0.2-2-0.4-3c0.1-1.5,0.3-2.9,0.3-4.4c0-0.8,0.1-1.7,0.1-2.5
				c0.1-1.2,0.1-2.4,0.1-3.7c0-0.2,0.1-0.4,0.1-0.6c0.4-2.5,0.6-5,0.7-7.5c0.2-4.8-0.2-9.7-1-14.5c-0.1-0.2-0.2-0.4-0.3-0.6
				c0,0,0,0,0-0.1c0.2-1,0.2-2,0-2.9c-0.2-1.2-0.6-2.3-1.1-3.4c-0.6-1.2-1.4-2.3-2.2-3.3c-0.4-0.5-0.9-1-1.3-1.4
				c-0.5-0.5-1.1-0.9-1.7-1.4c-1-0.6-2.1-1.1-3.2-1.3c-1-0.2-1.9-0.3-2.9-0.2c-0.5,0.1-1,0.1-1.4,0.2c-0.5,0.1-0.9,0.3-1.4,0.5
				C7.7,35.9,7,36.4,6.4,37s-1.2,1.2-1.6,1.9C4.3,39.6,4,40.3,3.6,41c-0.4,0.9-0.7,1.7-0.9,2.6c-0.5,1.8-0.8,3.6-0.9,5.4
				C1.5,50.9,1.4,52.6,1.5,54.2z"/>
			<g>
				<path class="st0" d="M0,54.2C0.8,61,1.1,68.1,1.6,75c0.2,3.4,0.4,6.8,0.1,10.2c-0.3,3.3-0.5,6.8,1,9.8
					c3.2,6.5,13.1,7.4,18.3,3.1c3.7-3,4.7-6.9,4.5-11.5c-0.2-7,0.4-13.7,0.9-20.7c0.2-3.6,0.1-7.3-0.2-11c-0.1-1.6-0.2-3.3-0.6-4.9
					c-0.4-1.8-0.3-0.5-0.4-1.1c-0.4-5.1-1.6-9.4-6-12.8c-4.1-3.2-10-3.6-14,0C0.5,40.4-0.2,48.2,0,54.2c0.1,1.9,3.1,1.9,3,0
					c-0.3-6.4,1.1-19.5,10.6-17.6c6.4,1.2,7.8,7.5,8.6,12.7c1.2,7.5,1.3,14.2,0.6,21.8c-0.4,4.3-0.8,8.9-0.5,13.3
					c0.4,5.6-0.4,12.4-7.4,13.3C9,98.4,4.6,94.9,4.5,88.9c-0.1-5.5,0.4-10.8-0.2-16.3C3.6,66.5,3.6,60.3,3,54.2
					C2.8,52.3-0.2,52.3,0,54.2z"/>
			</g>
		</g>
		<g>
			<path class="st1" d="M21.6,67.8c0.5,0,1.1,0.1,1.6,0.1c0.4,0,0.9,0,1.3,0c0.7,0,1.3,0.1,2,0c1,0,2.1-0.2,3.1-0.4
				c1.8-0.3,3.5-1,5.2-1.8c0.9-0.4,1.8-1,2.5-1.6c0.6-0.3,1.1-0.7,1.6-1.1c1.1-0.8,2.1-1.6,2.9-2.7c0.4-0.5,0.8-1.1,1.2-1.7
				c0.3-0.6,0.6-1.2,0.8-1.9c0.2-0.6,0.3-1.3,0.3-1.9c0-0.5,0-1-0.1-1.5c-0.1-0.7-0.3-1.4-0.5-2c-0.1-0.2-0.2-0.5-0.3-0.7
				c0-0.2,0-0.3,0-0.5c0.1-1-0.1-2-0.3-3c-0.2-1.1-0.6-2.1-1.1-3c-0.4-0.8-0.9-1.5-1.4-2.2c-0.7-0.9-1.4-1.6-2.2-2.4
				c-0.8-0.7-1.6-1.3-2.5-1.9c-0.4-0.3-0.8-0.5-1.2-0.7c-0.5-0.2-0.9-0.5-1.4-0.7c-1-0.4-2-0.7-3-1c-1.1-0.3-2.2-0.4-3.3-0.5
				c-2-0.2-4,0.1-5.8,0.7c-1,0.3-1.9,0.8-2.8,1.3s-1.7,1.2-2.5,1.9c-0.3,0.3-0.6,0.6-0.9,0.9"/>
			<g>
				<path class="st0" d="M21.6,69.3c7.4,0.3,14.3-1.3,19.9-6.5c4.5-4.1,4.1-8.1,3.2-13.6c-1.1-6.7-4.6-11.8-11.1-14.5
					c-7.1-2.9-14.5-1.6-19.8,3.8c-1.4,1.4,0.8,3.5,2.1,2.1c4.9-4.9,11.8-5.8,18-2.5c5.6,2.9,7,7,7.9,12.8c0.3,1.9,1.2,3.4,0.6,5.4
					c-0.6,2.3-2.4,4-4.2,5.3c-5,3.8-10.4,4.9-16.6,4.6C19.7,66.2,19.7,69.2,21.6,69.3L21.6,69.3z"/>
			</g>
		</g>
		<g>
			<path class="st0" d="M27.8,54.7c-0.2,0.1-0.3,0.1-0.5,0.1c-0.2,0.1-0.4,0.1-0.5,0.2c0,0,0,0-0.1,0s-0.1,0.1-0.2,0.1
				c-0.2,0.1-0.3,0.2-0.5,0.2c-0.1,0-0.1,0-0.2,0l0,0c-0.1,0.1-0.2,0.1-0.3,0.1c-0.1,0-0.2,0-0.3,0c-0.1,0-0.1,0-0.2,0h-0.1
				c-0.1,0-0.1,0-0.2,0.1c-0.1,0-0.2,0-0.3,0c-0.1,0-0.3,0-0.4-0.1c-0.1,0-0.2-0.1-0.3-0.1c-0.2-0.1-0.3-0.2-0.4-0.3
				c-0.2-0.1-0.3-0.2-0.5-0.4c-0.1-0.1-0.3-0.2-0.4-0.4c-0.1-0.2-0.2-0.3-0.3-0.5c-0.1-0.2-0.2-0.4-0.2-0.5
				c-0.1-0.2-0.1-0.4-0.1-0.5c0-0.2,0-0.4-0.1-0.6c0-0.1,0-0.2,0-0.4c0-0.1,0-0.2,0-0.3c0-0.1,0-0.2,0.1-0.2c0-0.2,0-0.5,0-0.7
				c0-0.4,0.1-0.7,0.3-0.9c0-0.1,0.1-0.2,0.2-0.2c0.1-0.1,0.1-0.1,0.2-0.2c0.1,0,0.1-0.1,0.2-0.1S22.9,49,23,49c0-0.2,0-0.5,0.1-0.6
				c0.2-0.4,0.6-0.7,1.1-0.6c0.1,0,0.2,0,0.3,0.1c0.1,0.1,0.2,0.1,0.4,0.2l0,0c0.1,0,0.2,0,0.2,0l0.1-0.1c0.1,0,0.2-0.1,0.3-0.1
				c0.1,0,0.2,0,0.3,0c0.1,0,0.3,0.1,0.5,0.1l0,0l0,0c0.2,0,0.3,0,0.5,0c0.1,0,0.2,0.1,0.4,0.1c0.1,0.1,0.3,0.1,0.4,0.2
				c0.2,0.1,0.3,0.3,0.5,0.4c0.1,0.1,0.1,0.1,0.2,0.2l0,0c0,0,0,0,0.1,0.1l0,0c0.1,0.1,0.2,0.2,0.3,0.3c0.1,0.2,0.3,0.3,0.4,0.5l0,0
				l0,0c0.2,0.3,0.3,0.6,0.4,0.9s0.2,0.6,0.3,0.9c0,0.2,0,0.4,0,0.6c0,0.1,0,0.3,0,0.4c0,0.2-0.1,0.3-0.1,0.5
				c-0.1,0.2-0.1,0.3-0.2,0.5S29.2,54,29,54.2c-0.1,0.1-0.2,0.1-0.2,0.2C28.1,54.6,27.9,54.7,27.8,54.7L27.8,54.7L27.8,54.7z"/>
			<g>
				<path class="st0" d="M27.4,53.3c-0.7,0.1-1.2,0.3-1.8,0.6c-0.3,0.1-0.6,0.4-0.9,0.5c0.6-0.2,0.5-0.2,0.1-0.3
					C24,53.8,24.7,54.4,24,54c-0.3-0.1-0.5-0.5-0.7-0.8c-0.1-0.2-0.4-2.5-0.1-2.6c0.6-0.2,1.1-0.8,1.1-1.4c0,0.5-0.9,0.3,0.2,0.5
					c0.4,0.1,0.7-0.1,1-0.1s0.8,0,1.2,0.3C27.4,50.5,28.5,52.8,27.4,53.3c-1.8,0.7-1,3.6,0.8,2.9c3.8-1.6,3-6.5,0.2-8.7
					c-0.3-0.3-0.7-0.5-1.2-0.7c-0.2-0.1-1.8-0.3-0.9-0.1c-0.5-0.1-1-0.2-1.6-0.1c-0.2,0.1-0.4,0.2-0.6,0.3c1.2,0.3,1.5,0.3,1,0
					c-1.8-1.5-3.9,0.6-3.9,2.3c0.4-0.5,0.7-1,1.1-1.4c-3.4,0.9-2.6,6.4-0.6,8.3c0.6,0.5,1.3,1,2.1,1.1c0.4,0.1,0.7,0,1.1,0
					c-0.6,0.1-0.6,0,0.1,0c0.4,0,0.7-0.1,1.1-0.2c0.2-0.1,0.4-0.2,0.6-0.4c-0.2,0.1-0.3,0.2-0.5,0.3c0.7-0.2,1.1-0.5,1.8-0.7
					C30.1,55.9,29.3,53,27.4,53.3z"/>
			</g>
		</g>
	</g>
	<g>
		<g>
			<path class="st1" d="M192.4,57.5c-0.1-1.7-0.4-3.3-0.8-4.9c-0.5-1.9-1.1-3.7-2.2-5c-0.3-0.3-0.5-0.7-0.9-0.9
				c-0.3-0.3-0.7-0.5-1-0.7s-0.6-0.3-0.9-0.4c-0.5-0.1-0.9-0.2-1.4-0.2h-0.1c-0.8,0-1.6,0.1-2.3,0.3c0,0,0,0-0.1,0s-0.1,0-0.2,0
				c-0.5,0-1,0.2-1.5,0.5l-0.1,0.1c-0.4,0.2-0.8,0.4-1.2,0.6c-0.3,0.2-0.6,0.5-0.8,0.8c-0.2,0.4-0.5,0.8-0.5,1.4c0,0.1,0,0.3,0,0.4
				c-0.2,0.1-0.3,0.3-0.4,0.6c-0.9,1.6-1.5,3.4-1.9,5.3c-0.2,0.8-0.3,1.6-0.4,2.4c0,0.2-0.1,0.5-0.1,0.7c-0.1,0.6-0.1,1.1-0.1,1.7
				c-0.1,0.4-0.2,0.8-0.3,1.1c-0.2,1-0.4,2.1-0.5,3.1c-0.1,0.8-0.1,1.6-0.2,2.4c-0.1,0.8-0.1,1.6-0.1,2.4l0,0
				c-0.2,1.3-0.4,2.7-0.5,4c-0.1,1-0.1,2-0.1,3.1c0,0.1,0,0.1,0,0.2c-0.1,0.1-0.1,0.2-0.2,0.4c-0.2,0.2-0.4,0.4-0.6,0.6
				c-0.3,0.2-0.5,0.3-0.8,0.5c-0.2,0.1-0.4,0.1-0.6,0.2c-0.2,0-0.4,0-0.7,0c-0.1,0-0.3-0.1-0.4-0.1c-0.1-0.2-0.2-0.3-0.4-0.5
				c-0.4-0.4-0.9-0.6-1.4-0.8c-0.1,0-0.2-0.1-0.3-0.1c-0.4-0.1-0.9-0.1-1.3-0.1l0,0c-0.1-0.1-0.2-0.1-0.3-0.2
				c-0.5-0.4-1.2-0.6-1.8-0.8c-0.7-0.3-1.4-0.3-2.1-0.4c-0.5,0-1,0-1.5,0c-0.7,0.1-1.5,0.2-2.1,0.5c-1.4,0.5-2.6,1.3-3.6,2.4
				c-1.1,1.2-1.8,2.7-2.2,4.2c-0.1,0.5-0.2,1-0.2,1.4c0,0.3,0,0.6,0,0.9c0,0.4,0.1,0.9,0.2,1.3c0.1,0.3,0.1,0.6,0.2,0.9
				c0.5,1.4,1.3,2.7,2.3,3.7c0.4,0.4,0.9,0.8,1.3,1.1c0.2,0.4,0.4,0.7,0.6,1.1c0.2,0.3,0.5,0.6,0.7,0.9c0.3,0.3,0.6,0.5,0.9,0.7
				c0.8,0.6,1.6,1.1,2.5,1.5c0.5,0.2,1,0.4,1.6,0.5c0.6,0.2,1.2,0.2,1.8,0.3c0.8,0.1,1.7,0.1,2.5,0s1.6-0.2,2.4-0.4
				c0.2,0.1,0.5,0.1,0.7,0.1c0.6,0.1,1.1,0.1,1.7,0.1c0.6,0,1.2-0.1,1.8-0.3c1.2-0.3,2.2-0.7,3.3-1.3c1.1-0.6,2.1-1.3,3-2.1
				c0.2,0,0.4-0.1,0.6-0.3c0.5-0.1,1-0.2,1.5-0.5c1.1-0.5,2.1-1.3,3.1-2.4c0.9-1,1.7-2.2,2.3-3.5c0.1-0.2,0.2-0.4,0.3-0.6
				c0.9-1.9,1.6-4.2,1.7-6.5v-0.1c0.1-0.3,0.1-0.5,0.2-0.8c0.6-1.8,1-3.7,1-5.6c0-0.4,0-0.7,0-1.1c0.2-0.9,0.4-1.8,0.5-2.8
				C192.5,65,192.7,61.2,192.4,57.5z"/>
			<g>
				<path class="st0" d="M193.9,57.5c-0.5-4.7-1.5-11.7-6.8-13.4c-2.8-0.8-7.2,0-9.1,2.4c-3,3.8-3.5,9.6-4.2,14.3
					c-0.4,2.7-0.5,5.3-0.8,8c-0.1,1.3-0.3,2.5-0.5,3.8c-0.2,1.6,0.5,4.1-1.5,3.9c-0.6,0-1.5-0.9-2.2-1.2c-0.5-0.2-1.2,0-1.7-0.2
					c0.5,0.2,1.1,0.1-0.4-0.5c-2-0.8-4-1.2-6.2-0.8c-5.4,1-9.2,6-8.7,11.4c0.4,4.8,5.2,9.9,9.5,11.9c4.1,1.8,11.7,1.4,15.8-0.3
					c2.3-1,4.3-2.5,6.5-3.5c1.1-0.5,2.2-1.3,3.1-2.2c2.2-2.2,3.7-5.3,4.6-8.4C193.3,74.8,194.3,65.8,193.9,57.5
					c-0.1-1.9-3.1-1.9-3,0c0.4,7.2-0.7,14.4-2.1,21.4c-0.7,3.3-1.4,7.1-3.8,9.6c-1.7,1.8-5.5,3.7-7.8,5c-2.5,1.3-7.4,1.7-10.4,1.7
					c-4.7,0-7.9-3.2-10.4-6.7c-3.6-5,0.3-12.4,6.7-11.8c1.5,0.1,2.9,0.9,4.2,1.4c2.6,1.2,5.4,2.8,7.6-0.2c0.9-1.2,0.7-2.4,0.8-3.9
					c0.2-2.4,0.5-4.8,0.7-7.3c0.3-5.3,0.8-12,3.7-16.6c1-1.6,1.7-2.5,3.5-3c6-1.6,7.2,6.3,7.6,10.4
					C191.1,59.4,194.1,59.4,193.9,57.5z"/>
			</g>
		</g>
		<g>
			<path class="st1" d="M191.3,57.2c0.4-0.7,0.6-1.5,0.8-2.3c0.3-1.2,0.5-2.4,0.5-3.6c0-0.1,0-0.2,0-0.3c0.1-0.4,0.2-0.7,0.2-1.1
				c0-0.1,0-0.2,0-0.4c0-0.1-0.1-0.2-0.2-0.2c0-0.1,0-0.2,0-0.3c0.1-0.5,0.2-1,0.2-1.5c0.1-0.4,0.3-0.8,0.3-1.2
				c0.2-0.8,0.3-1.6,0.3-2.4s-0.1-1.6-0.2-2.4v-0.1c0.2-1.9,0.2-3.9-0.2-5.8c-0.2-1-0.5-2-1-2.9c-0.5-1.1-1.3-2.2-2.3-2.9
				c-0.3-0.2-0.6-0.4-0.9-0.5c-0.3-0.2-0.7-0.3-1-0.4s-0.6-0.1-0.9-0.2c-0.5-0.1-0.9-0.1-1.4-0.1h-0.1c-0.7,0-1.5,0.1-2.2,0.2
				c0,0,0,0-0.1,0s-0.1,0-0.2,0c-0.5,0-1,0.1-1.4,0.3c0,0-0.1,0-0.1,0.1c-0.4,0.1-0.7,0.3-1.1,0.4c-0.1,0-0.2,0.1-0.3,0.2
				c-0.2,0.1-0.3,0.2-0.4,0.3c-0.2,0.2-0.4,0.5-0.5,0.8c0,0.1,0,0.2,0,0.2c-0.2,0.1-0.3,0.2-0.4,0.3c-0.8,0.9-1.3,2.1-1.6,3.2
				c-0.2,0.6-0.3,1.3-0.3,1.9c0,0.5-0.1,0.9,0,1.4c0,0.5,0,1,0,1.5l0,0c-0.2,1.2-0.3,2.5-0.3,3.7c0,0.2,0,0.3,0,0.5
				c0,0.7,0.2,1.4,0.3,2c0,0.2,0,0.4-0.1,0.7c-0.1,0.5-0.2,0.9-0.4,1.3l0,0c0,0.1-0.1,0.1-0.1,0.2v0.1c0,0.1,0,0.2,0,0.3
				c0,0.3-0.1,0.6-0.1,0.9c-0.1,0.2-0.1,0.4-0.2,0.7c-0.1,0.3-0.3,0.5-0.5,0.8c-0.2,0.2-0.4,0.5-0.7,0.6c-0.3,0.2-0.5,0.4-0.8,0.5
				c-0.5,0.3-1.1,0.5-1.7,0.6c-0.3,0.1-0.6,0.1-0.9,0.2c-0.4,0.1-0.9,0.2-1.3,0.2c-0.8,0-1.7,0-2.5-0.2c-0.5-0.1-0.9-0.2-1.4-0.4
				c-0.3-0.1-0.5-0.2-0.8-0.4c-0.2-0.1-0.4-0.1-0.6-0.2c-0.6-0.3-1.3-0.6-1.8-1.1c-0.3-0.2-0.6-0.5-0.8-0.8
				c-0.3-0.4-0.5-0.8-0.7-1.3c-0.2-0.6-0.3-1.1-0.4-1.7v-0.1c0.2-0.6,0.3-1.1,0.3-1.7c0,0,0,0,0-0.1c0.2-0.7,0.4-1.3,0.5-2
				c0-0.2,0.1-0.4,0.1-0.6c0.3-2.2,0.3-4.4-0.1-6.7c-0.2-1-0.5-2-1-2.9c-0.5-1.1-1.3-2.2-2.3-2.9c-0.3-0.2-0.6-0.4-0.9-0.5
				c-0.3-0.2-0.7-0.3-1-0.4s-0.6-0.1-0.9-0.2c-0.4-0.1-0.9-0.1-1.3-0.1c0,0,0,0-0.1,0h-0.1c-0.7,0-1.5,0.1-2.2,0.2c0,0,0,0-0.1,0
				s-0.1,0-0.2,0c-0.5,0-1,0.1-1.4,0.3c0,0-0.1,0-0.1,0.1c-0.4,0.1-0.7,0.3-1.1,0.4c-0.3,0.1-0.6,0.3-0.8,0.5s-0.4,0.5-0.5,0.8
				c0,0.1,0,0.2,0,0.2c-0.2,0.1-0.3,0.2-0.4,0.3c-0.8,0.9-1.3,2.1-1.6,3.2c-0.2,0.6-0.3,1.3-0.3,1.9c0,0.5-0.1,0.9,0,1.4
				c0,0.5,0,1,0,1.5l0,0c-0.2,1.4-0.4,2.8-0.3,4.3c0.1,1.1,0.3,2.2,0.8,3.2c0.1,0.5,0.1,1,0.2,1.5c0.1,0.7,0.3,1.4,0.5,2
				c0.4,1.3,1,2.6,1.6,3.8c0.3,0.6,0.6,1.1,0.9,1.6c0.1,0.2,0.3,0.4,0.4,0.6c0.1,0.2,0.2,0.5,0.2,0.7c0.4,1.1,1,2,1.7,2.9
				c1.5,1.8,3.7,3.1,5.9,4c0.2,0.1,0.3,0.1,0.5,0.2l0,0c0.3,0.3,0.6,0.6,1,0.8c0.4,0.2,0.8,0.4,1.3,0.6c0.9,0.3,2,0.5,3,0.5
				c0.5,0,0.9,0,1.4,0c1.3,0.2,2.7,0.2,4,0.3c0.6,0.1,1.2,0.1,1.8,0.2c1.5,0.1,3,0.1,4.5-0.1c0.8-0.1,1.7-0.2,2.5-0.4
				c0.2-0.1,0.5-0.2,0.6-0.4"/>
			<g>
				<path class="st0" d="M192.6,58c1.2-2.7,1.5-5.5,1.8-8.4c0.1-0.6-0.1-1-0.1-1.6c0.1-1.8,0.7-3.3,0.7-5.2
					c-0.1-5.7-0.2-13.7-7.1-15.4c-3.5-0.9-7.8,0-10,2.8c-3.5,4.5-2.4,10.4-2.8,15.9c-0.3,3.4-2.7,5.5-6.4,5.2
					c-3.3-0.3-5.8-2.4-5.9-6c0-0.9,0.5-2.1,0.7-3c0.9-5.9-0.7-14.1-7.7-15.1c-12.5-1.8-13,12.8-10.9,21.6c0.9,3.8,2.6,7.3,4.5,10.6
					c1.8,3.1,5.3,4.6,7.6,5.9c3.4,1.8,5.7,2.3,9.6,2.6c3.6,0.2,8.9,1.1,12.2-0.9c1.6-1,0.1-3.6-1.5-2.6c-2.7,1.7-7.7,0.7-10.7,0.5
					s-5.5-0.9-8.2-2.1c-6.7-3-9.8-10.1-11.2-17c-0.9-4.6-1.1-13.6,4.3-15.4c8-2.6,9.8,7.1,8.7,13c-0.7,3.6-0.7,6.8,2.8,9
					c3.4,2.1,8.6,2.7,12,0.4c1.2-0.8,2-1.8,2.5-3.2c0.2-0.5,0.1-1.1,0.2-1.6c-0.3,1.2,0.2-0.4,0.3-0.6c0.9-4.9-1.4-11.5,2.5-15.6
					c1.3-1.4,3.1-1.9,5.1-1.8c6.2,0.4,6.2,6.9,6.2,11.5c0,4.5-0.1,10.7-1.8,14.7C189.2,58.2,191.8,59.7,192.6,58L192.6,58z"/>
			</g>
		</g>
	</g>
	<g>
		<g>
			<path class="st1" d="M304.6,55.4c-0.1-0.9-0.2-1.9-0.4-2.8c-0.2-1-0.6-2-0.9-3c-0.3-0.9-0.6-1.7-1-2.5c-0.4-0.9-0.9-1.6-1.5-2.4
				c-0.2-0.4-0.5-0.7-0.8-1c-0.1-0.3-0.2-0.6-0.3-0.9c-0.3-0.7-0.8-1.4-1.3-2.1c-0.6-0.7-1.3-1.3-2-1.9c-0.5-0.4-1-0.7-1.5-1
				c-1-0.6-2.1-1.1-3.1-1.5c-1.5-0.6-3.1-1.1-4.7-1.4c-0.8-0.1-1.5-0.2-2.3-0.2c-0.6,0-1.2,0.1-1.8,0.2c-0.7,0.1-1.3,0.3-2,0.5
				c-0.2,0.1-0.4,0.2-0.6,0.3c0.2-1.7,0.3-3.4,0.4-5.1c0.2-4.8-0.2-9.7-1-14.5c-0.1-0.2-0.2-0.4-0.3-0.6c0,0,0,0,0-0.1
				c0.2-1,0.2-2,0-2.9c-0.2-1.2-0.6-2.3-1.1-3.4c-0.6-1.2-1.4-2.3-2.2-3.3c-0.4-0.5-0.9-1-1.3-1.4c-0.5-0.5-1.1-0.9-1.7-1.4
				c-1-0.6-2.1-1.1-3.2-1.3c-1-0.2-1.9-0.3-2.9-0.2c-0.5,0.1-1,0.1-1.4,0.2c-0.5,0.1-0.9,0.3-1.4,0.5c-0.8,0.3-1.5,0.8-2.1,1.4
				c-0.6,0.6-1.2,1.2-1.6,1.9c-0.5,0.7-0.8,1.4-1.2,2.1c-0.4,0.9-0.7,1.7-0.9,2.6c-0.5,1.8-0.8,3.6-0.9,5.4
				c-0.2,1.6-0.2,3.3-0.1,4.9c0,0.5,0.1,1,0.2,1.5c0,1.6,0,3.2,0.1,4.8c0.2,4,0.6,8,1.1,12c0.1,0.8,0.2,1.6,0.3,2.4
				c0,2.3,0.1,4.5,0.4,6.8c0,0.2,0,0.4,0,0.6c-0.2,2.5-0.6,4.9-0.5,7.4c0,1.2,0.2,2.4,0.6,3.5c0.1,0.2,0.2,0.4,0.3,0.6
				c0.4,0.9,0.9,1.7,1.6,2.4c0.4,0.4,0.9,0.8,1.4,1.1c0.6,0.4,1.2,0.6,1.8,0.9c1.2,0.5,2.5,0.7,3.8,0.8c0.1,0,0.2,0,0.3,0
				c0.4,0,0.8,0,1.1-0.1l0,0c0.3,0.1,0.6,0.1,1,0.1c0,0,0,0,0.1,0c0.3,0,0.6-0.1,0.9-0.1c0.2,0,0.4-0.1,0.6-0.1
				c0.2-0.1,0.4-0.1,0.6-0.2c0.4-0.2,0.8-0.3,1.2-0.5c0.5-0.2,0.9-0.5,1.3-0.8c0.6-0.4,1.2-0.9,1.7-1.4c0.2-0.2,0.4-0.5,0.6-0.7
				c0.2-0.3,0.4-0.6,0.7-0.9c0.2-0.2,0.3-0.5,0.4-0.7c0.5-0.7,1.1-1.5,1.6-2.2c0.8-1.1,1.5-2.3,2.1-3.4c0.2-0.1,0.4-0.2,0.6-0.3
				c0.4-0.1,0.8-0.2,1.2-0.2c0.4,0,0.8,0,1.2,0.1c0.3,0.1,0.7,0.2,1,0.3c0.3,0.2,0.6,0.4,0.9,0.6c0.3,0.3,0.5,0.5,0.7,0.8
				c0.1,0.2,0.3,0.5,0.4,0.7c0,0.2,0.1,0.4,0.1,0.5c0,0.5,0,1-0.1,1.5c-0.1,0.7-0.2,1.4-0.3,2c-0.1,1.5,0.8,2.9,2.3,3.4h0.1
				c0.3,0.6,0.7,1.2,1.2,1.7c0.7,0.7,1.6,1.2,2.5,1.5c0.5,0.1,1,0.2,1.6,0.2c0.7,0,1.3-0.1,2-0.2c0.6-0.1,1.2-0.4,1.8-0.6
				c0.3-0.1,0.7-0.3,1-0.5c0.5-0.3,0.9-0.6,1.3-0.9c0.4-0.4,0.8-0.9,1.2-1.4c0.3-0.4,0.5-1,0.8-1.4c0.2-0.3,0.3-0.7,0.4-1
				c0.3-1,0.5-2,0.6-3C304.8,57.4,304.7,56.4,304.6,55.4z"/>
			<g>
				<path class="st0" d="M306.1,55.4c-1.4-11.9-12.4-26.8-26.1-21.2c0.6,0.5,1.3,1,1.9,1.4c0.4-4.4,0.5-8.8,0.2-13.3
					c-0.3-3.6-0.7-6.3-0.9-8.4c-0.4-5.4-3.9-11-9-13.1c-5.4-2.2-10.9,0.1-13.6,5.1c-3.7,6.8-2.8,15.5-2.4,22.9
					c0.5,8.4,1.7,16.4,1.2,24.7c-0.3,6.1,1.5,11.5,7.9,13.2c3.8,1,7.8,0.6,11-1.7c1.9-1.4,3.1-3.2,4.4-5.1c0.3-0.5,2.3-4.1,2.6-4.1
					c0.5-0.1,3.2,3.8,3.2,4c0.2,0.7-0.1,1.6,0.1,2.3c0.4,1.7,2.3,3.2,2.9,3.8c2.3,2.1,3.7,3.4,7.1,3.1
					C303.8,68.3,306.5,61.7,306.1,55.4c-0.1-1.9-3.1-1.9-3,0c0.3,4.7-1.7,11-7.4,10.6c-2.8-0.2-3.1-1.4-4.4-3
					c-1.3-1.7-1.5-1.8-1.6-3.9c-0.2-3.2-0.6-5.9-4.4-6.5c-5.3-0.8-6.5,5.7-9.4,8.8c-4.6,4.8-13.8,3.3-15.3-3.6
					c-0.8-3.7,0.3-7.5,0.1-11.3c-0.2-3.7-0.5-7.3-0.9-10.9c-0.8-7.6-2-16.5-0.2-24c1.2-4.7,4.2-9.7,9.9-8.5c4.9,1,8.1,6.2,8.7,10.8
					c1,7.1,1.5,14.4,0.8,21.7c-0.1,0.9,1,1.8,1.9,1.4c11.6-4.8,21.1,8.1,22.3,18.3C303.3,57.3,306.3,57.3,306.1,55.4z"/>
			</g>
		</g>
		<g>
			<path class="st1" d="M282.2,35c0,0-3.3,0.8-5,2.5"/>
			<g>
				<path class="st0" d="M281.8,33.6c-2,0.5-4.1,1.4-5.7,2.9c-1.4,1.3,0.7,3.5,2.1,2.1c1.2-1.1,2.8-1.7,4.3-2.1
					C284.5,36,283.7,33.1,281.8,33.6L281.8,33.6z"/>
			</g>
		</g>
	</g>
</g>
</svg>
