<?xml version="1.0" encoding="utf-8"?>
<!-- Generator: Adobe Illustrator 22.1.0, SVG Export Plug-In . SVG Version: 6.00 Build 0)  -->
<svg version="1.1" id="Layer_1" xmlns="http://www.w3.org/2000/svg" xmlns:xlink="http://www.w3.org/1999/xlink" x="0px" y="0px"
	 viewBox="0 0 607.5 642.9" style="enable-background:new 0 0 607.5 642.9;" xml:space="preserve">
<style type="text/css">
	.st0{fill:#A36B78;stroke:#584C4F;stroke-width:2;stroke-linecap:round;stroke-miterlimit:10;}
	.st1{fill:#A36B78;stroke:#584C4F;stroke-width:2;stroke-linecap:round;stroke-linejoin:round;stroke-miterlimit:10;}
	.st2{fill:#FFD767;stroke:#584C4F;stroke-width:2;stroke-miterlimit:10;}
	.st3{fill:#A36B78;}
	.st4{fill:none;stroke:#584C4F;stroke-width:2;stroke-linecap:round;stroke-miterlimit:10;}
	.st5{fill:#BEAB72;}
	.st6{fill:#584C4F;stroke:#584C4F;stroke-width:2;stroke-linecap:round;stroke-miterlimit:10;}
	.st7{opacity:0.1;fill:#231F20;stroke:#231F20;stroke-miterlimit:10;enable-background:new    ;}
	.st8{fill:#FFFFFF;stroke:#584C4F;stroke-width:2;stroke-linecap:round;stroke-miterlimit:10;}
</style>
<g id="Layer_5">
</g>
<g id="Layer_3">
</g>
<g>
	<g>
		<g id="XMLID_12217_">
			<path id="XMLID_12218_" class="st0" d="M386.7,256c8.6-2.5,8.8,10.6,1.2,8.5"/>
		</g>
		<path id="XMLID_12216_" class="st0" d="M376.6,132.7c-1.3,34-5.6,92.2-3.2,107.9c3.5,22,0,126.4,0,126.4l16.9,1.5
			c0,0-3.2-59.2-1.2-99.4c1.2-22.2,2.5-65,4.2-99.8"/>
		<g id="XMLID_12214_">
			<path id="XMLID_12215_" class="st0" d="M388.7,365.2c3.3-1.1,4.1,12.1,4.1,12.1s1.9,42.3-1.7,24.3s-5.3-16.1-3.6,5.4
				c1.6,21.6-7.5-22-8.8-15.1c-1.3,6.9-5.8,50.9-5.8-4.1c0,0,4.1-25.6-6.4,14.5s2.3-25.1,3.1-28.5c0.8-3.4-12.9,19.5-9.1,10.1
				c3.8-9.4,5.9-11.8,12.8-19"/>
		</g>
		<path id="XMLID_12213_" class="st0" d="M379.8,257.7c0.2-0.6,3-1.2,3-1.2"/>
		<path id="XMLID_12212_" class="st0" d="M386,261.8c-0.6,1.8-2.8,1.4-2.8,1.4"/>
		<path id="XMLID_12211_" class="st1" d="M386.6,363.2c13.6-0.8,0-9.9,0-9.9"/>
	</g>
	<path id="XMLID_12210_" class="st2" d="M371.1,132.3c9.1,2.5,16.8,5.2,18.7,8.1c5.6,8.1,12.3,97.9-1.4,98.4
		c-13.7,0.5-15.6-0.1-15.3-5c0.3-4.9-6-61.4-3.8-65.6"/>
	<g>
		<path class="st0" d="M337.3,609.6c-0.1,1.2,0.3,2.4,1.3,3.4c0.2,0.3,0.5,0.6,0.9,0.8c1.2,0.9,3.1,1.5,5.4,2
			c1.8,0.3,3.9,0.6,6.2,0.8c1.4,0.1,2.9,0.3,4.5,0.3c1.2,0.2,2.5,0.2,3.7,0.2c1.2-0.1,2.5-0.2,3.7-0.2c1.5-0.1,3-0.2,4.5-0.3
			c2.3-0.1,4.3-0.5,6.1-0.8c2.4-0.5,4.2-1.2,5.4-2c0.3-0.3,0.7-0.6,0.9-0.8c0.8-0.7,1.2-1.6,1.3-2.5c-8.9-3.7-16.3-10-18.2-20.8
			c-1-1-1.7-1.6-1.7-1.6s-0.2-0.3-0.5-0.7c0-0.1-0.1-0.2-0.2-0.3v-0.2c-0.2-0.5-0.3-1.3-0.4-2.4h-0.8h-0.8l-15.2,1.3
			c-0.2,3.9-0.2,6.4-0.2,6.9c0,0.1,0,0.1,0,0.1s0.1,0,0.2,0c-0.9,3.4-1.9,6.2-2.9,8.5c-1.1,2.5-2.1,4.5-2.6,6.3
			C337.7,608.3,337.5,609,337.3,609.6z"/>
		<path class="st0" d="M336.8,337.3c3.5,5.6,6.5,113.4,8.5,153.6s-1.2,99.4-1.2,99.4l16.9-1.5c0,0-3.3-98.4-0.3-124.2
			c0.8-1.1,1.3-6,1-16.9l0,0c0-4.4,0-9.3-0.2-14.5c-0.3-44.6,3.4-102.4,3.4-102.4"/>
		<g>
			<g id="XMLID_12208_">
				<path id="XMLID_12209_" class="st0" d="M391.3,616.6c-2.1-4.9,3.9-4.3,3.9-4.3C400.2,615.6,393.5,621.4,391.3,616.6z"/>
			</g>
			<g id="XMLID_12206_">
				<path id="XMLID_12207_" class="st0" d="M387.4,616.4c-2.4-5.5,4.3-4.8,4.3-4.8C397.3,615.3,389.8,621.7,387.4,616.4z"/>
			</g>
			<g id="XMLID_12204_">
				<path id="XMLID_12205_" class="st0" d="M382.4,615.9c-2.8-6.3,5-5.5,5-5.5C394,614.8,385.3,622.3,382.4,615.9z"/>
			</g>
			<g id="XMLID_12202_">
				<path id="XMLID_12203_" class="st0" d="M376.3,615.6c-3.3-7.1,5.7-6.3,5.7-6.3C389.5,614.3,379.5,622.8,376.3,615.6z"/>
			</g>
			<path id="XMLID_12201_" class="st0" d="M362.9,615.3c0.7-2.9,9.4-10,14.3-3.1c4.9,6.9-5.7,6.2-5.7,6.2S362.2,618.3,362.9,615.3z"
				/>
		</g>
		<path id="XMLID_12200_" class="st0" d="M348.5,457.9c0-1.9,2.3-2,2.3-2"/>
		<path id="XMLID_12199_" class="st0" d="M357.2,471.1c-0.1,0.7-2.8,1.5-2.8,1.5"/>
		<g id="XMLID_12197_">
			<path id="XMLID_12198_" class="st0" d="M360.3,584.4c9,1.1,3.9,13.2-2.2,8.2"/>
		</g>
		<g id="XMLID_12195_">
			<path id="XMLID_12196_" class="st0" d="M357.7,459.5c8.6-2.5,8.8,10.6,1.2,8.5"/>
		</g>
	</g>
	<path class="st0" d="M279.8,337.4c0,0,0,0,0.2,0c0.6,4.1,1.9,8.5,4.4,13c0,0,1.4,15.3,51.5,14.5c30.7-0.5,50.1-15.5,53.2-32.5l0,0
		c0-0.2,0.1-0.5,0.1-0.9c0.1-1,0.2-2.1,0.2-3.1c0.7-11.1,1.3-40.6,1.3-40.6l-111.1,4.1C277.8,300.8,279.8,337.4,279.8,337.4z"/>
	<g>
		<path class="st2" d="M288.7,318.8c2.3-0.5,5.2-1,8.4-1.5l77.2-4c4-0.1,9.4,1.2,9.4,1.2c4.3,2.3,7,1.4,8.6-1.4
			c0.1-0.1,0.2-0.2,0.2-0.3c4.1-8,0.2-29.4-3-37.9c-0.2-0.5-0.4-1.2-0.6-2c-3.8-15.6-3.7-74.4-2.3-110.6c0.1-3.9,0.1-7.3-0.1-10.4
			c-1.3-26.8-28.7-27.1-46.5-27.9c-18.7-0.8-32.5,3-39.2,8.6c-3.5,1-8.8,3-13,6.2c-3,2.3-5.5,5.3-6.3,9c-0.1,0.4-0.2,0.9-0.2,1.3
			c-1.5,13.2-4.4,93.7-5.9,101c-0.3,1.4-1.1,5.9-1.9,11.9c-0.1,0.7-0.2,1.4-0.3,2.2C269.9,289.1,266.4,335.3,288.7,318.8z"/>
		<path class="st2" d="M383.7,314.5c4.3,2.3,7,1.4,8.6-1.4c0.1-0.1,0.2-0.2,0.2-0.3c4.1-8,0.2-29.4-3-37.9c-0.2-0.5-0.4-1.2-0.6-2
			c-3.8-15.6-3.7-74.4-2.3-110.6c0.1-0.9,0.1-1.7,0.1-2.6"/>
		<path class="st2" d="M385.8,145.9c-5-20.9-29.4-21.2-45.8-21.9c-18.7-0.8-32.5,3-39.2,8.6c-3.5,1-8.8,3-13,6.2
			c-3,2.3-5.5,5.3-6.3,9c-0.1,0.4-0.2,0.9-0.2,1.3c-1.5,13.2-4.4,93.7-5.9,101c-0.3,1.4-1.1,5.9-1.9,11.9c-0.1,0.7-0.2,1.4-0.3,2.2
			c-3.4,24.8-6.8,71,15.5,54.5c2.4-0.5,5.3-1,8.5-1.5l77.1-4"/>
	</g>
	<path id="XMLID_12194_" class="st0" d="M283.4,313.9c3.6-13.7-5.1-107.3-5.1-107.3"/>
	<g>
		<path id="XMLID_12193_" class="st3" d="M321.7,131.8c9.6,21.2,33.7,8.3,33.8-8c0-2.9,0-14.1,0.1-17.5c0-2.6,0.5-17.7-3-25.5
			c-11.2-25-42.7-2.7-31.3,16.7c-0.6,2.2-1,4.7-1.2,7.6c-0.2,3.2-1.4,13.2-1.2,16.6"/>
		<path id="XMLID_12192_" class="st4" d="M323.4,135c-0.6-0.9-1.1-2-1.6-3.1l-2.8-10.1c-0.3-3.5,0.9-13.4,1.1-16.6
			c0.2-3,0.6-5.5,1.2-7.6c-11.4-19.5,20.1-41.8,31.3-16.8c3.5,7.8,3.1,22.9,3,25.5c0,3.4-0.1,14.6-0.1,17.5
			c-0.1,13.7-17.4,25.1-28.5,15.5"/>
	</g>
	<g>
		<path class="st0" d="M329.4,337.3c-3.4,5.6-6.4,113.4-8.5,153.6c-2,40.2,1.2,99.4,1.2,99.4l-16.9-1.5c0,0,3.2-98.4,0.3-124.2
			c-0.9-1.1-1.4-6-1.1-16.9l0,0c0-4.4,0.1-9.3,0.2-14.5c0.2-44.6-3.4-102.4-3.4-102.4"/>
		<path id="XMLID_12191_" class="st0" d="M313.2,456.9c-1.7-1-2.9,1-2.9,1"/>
		<path id="XMLID_12190_" class="st0" d="M314.3,471.5c0.1,0.7,2.8,1.5,2.8,1.5"/>
		<g id="XMLID_12188_">
			<path id="XMLID_12189_" class="st0" d="M305.7,593.8c-9-1.1-3.9-13.2,2.2-8.2"/>
		</g>
		<g id="XMLID_12186_">
			<path id="XMLID_12187_" class="st0" d="M320,470.2c9-1.1,3.9-13.2-2.2-8.2"/>
		</g>
		<g>
			<path class="st0" d="M299.1,612.5c-0.1,1.2,0.3,2.4,1.3,3.4c0.2,0.3,0.5,0.6,0.9,0.8c1.2,0.9,3.1,1.5,5.4,2
				c1.8,0.3,3.9,0.6,6.2,0.8c1.4,0.1,2.9,0.3,4.5,0.3c1.2,0.2,2.5,0.2,3.7,0.2c1.2-0.1,2.5-0.2,3.7-0.2c1.5-0.1,3-0.2,4.5-0.3
				c2.3-0.1,4.4-0.5,6.2-0.8c2.4-0.5,4.3-1.2,5.4-2c0.4-0.3,0.7-0.6,0.9-0.8c0.8-0.7,1.2-1.6,1.3-2.5c-8.8-3.7-16.3-10-18.2-20.8
				c-1.1-1-1.7-1.6-1.7-1.6s-0.2-0.3-0.6-0.7c0-0.1-0.1-0.2-0.2-0.3v-0.2c-0.1-0.5-0.2-1.3-0.3-2.4h-0.9h-0.8l-15.2,1.3
				c-0.2,3.9-0.2,6.4-0.2,6.9c0,0.1,0,0.1,0,0.1s0.1,0,0.2,0c-0.9,3.4-1.9,6.2-2.9,8.5c-1.1,2.5-2.1,4.5-2.6,6.3
				C299.4,611.2,299.3,611.9,299.1,612.5z"/>
			<g>
				<g id="XMLID_12184_">
					<path id="XMLID_12185_" class="st0" d="M353,619.4c-2.2-4.9,3.9-4.3,3.9-4.3C362,618.5,355.2,624.3,353,619.4z"/>
				</g>
				<g id="XMLID_12182_">
					<path id="XMLID_12183_" class="st0" d="M349.1,619.3c-2.4-5.5,4.3-4.8,4.3-4.8C359.1,618.2,351.6,624.6,349.1,619.3z"/>
				</g>
				<g id="XMLID_12180_">
					<path id="XMLID_12181_" class="st0" d="M344.2,618.8c-2.8-6.3,5-5.5,5-5.5C355.7,617.7,347,625.2,344.2,618.8z"/>
				</g>
				<g id="XMLID_12178_">
					<path id="XMLID_12179_" class="st0" d="M338.1,618.5c-3.3-7.1,5.7-6.3,5.7-6.3C351.3,617.2,341.3,625.7,338.1,618.5z"/>
				</g>
				<path id="XMLID_12177_" class="st0" d="M324.7,618.2c0.7-2.9,9.4-10,14.3-3.1s-5.7,6.2-5.7,6.2S324,621.1,324.7,618.2z"/>
			</g>
		</g>
	</g>
	<g>
		<g id="XMLID_12175_">
			<path id="XMLID_12176_" class="st0" d="M284.2,264.8c-9-1.1-3.9-13.2,2.2-8.2"/>
		</g>
		<path id="XMLID_12174_" class="st0" d="M296.3,155.3c1.8,32.8,4.2,72.6,2.2,85.2c-3.5,22,0,126.4,0,126.4l-16.9,1.5
			c0,0,3.2-59.2,1.2-99.4c-0.9-18.3-2.1-51-3.4-81.4"/>
		<path id="XMLID_12173_" class="st0" d="M287.1,258.8c0-1.9,2.3-2,2.3-2"/>
		<path id="XMLID_12172_" class="st0" d="M293,261.8c-0.2,0.6-2.9,1.5-2.9,1.5"/>
		<g id="XMLID_12159_">
			<path id="XMLID_12171_" class="st3" d="M298.4,366.2l-16.2-3.8c0,0-21.3,35-14,35.1c3.9,0.1,5.4-0.9,5.9-1.9
				c-0.5,3.3-0.8,9.4,4.8,6.5l0.1-1.5c1.2,2.1,5.4,8.4,8.9,2l1.1-0.5c2.5,2.1,7.8,5.3,7-5.5c1.4,0.1,3.4,0,6.3-0.8
				C317.1,392,298.5,366.1,298.4,366.2z"/>
			<path id="XMLID_12170_" class="st0" d="M282.2,362.3c0,0-21.3,35-14,35.1c3.9,0.1,5.4-0.9,5.9-1.9c-0.5,3.3-0.8,9.4,4.8,6.5
				l0.1-1.5c1.2,2.1,5.4,8.4,8.9,2l1.1-0.5c2.5,2.1,7.8,5.3,7-5.5c1.4,0.1,3.4,0,6.3-0.8c14.8-3.7-3.8-29.6-3.8-29.6"/>
			<g id="XMLID_12163_">
				<g id="XMLID_12165_">
					<path id="XMLID_12169_" class="st1" d="M279,402.1c-7.5,3.8-4.5-8.4-4.5-8.4c-0.2,0.3,1.1,3.9-6.2,3.8
						c-7.4-0.1,14-35.1,14-35.1"/>
					<path id="XMLID_12168_" class="st1" d="M288.2,402c-4.2,8.4-9.4-2.1-9.4-2.1"/>
					<path id="XMLID_12167_" class="st1" d="M299.1,389.5c-4.2-0.4-11.6,10,3.2,6.2c14.8-3.7-3.8-29.6-3.8-29.6"/>
					<path id="XMLID_12166_" class="st1" d="M295.3,387.3l0.5,8c1.7,15.9-8.1,5.5-8.1,5.5"/>
				</g>
				<path id="XMLID_12164_" class="st1" d="M284.9,350.5c-10,0.8,0,10.9,0,10.9"/>
			</g>
			<path id="XMLID_12162_" class="st0" d="M288.2,394.3c0.9-2.6,0.4-7.5,0.4-7.5"/>
			<path id="XMLID_12161_" class="st0" d="M279.8,396.1c0.7,0,0.9-3.5,0.9-3.5"/>
			<path id="XMLID_12160_" class="st1" d="M276.2,385.6c0,0,2.9-4.8,3.6-7"/>
		</g>
	</g>
	<path id="XMLID_12158_" class="st2" d="M302.2,135.2c-9.1,2.5-16.7,5.2-18.7,8.1c-5.5,8.1-12.2,97.9,1.5,98.4s15.6-0.1,15.3-5
		s6-61.3,3.8-65.5"/>
	<g>
		<path class="st5" d="M309.1,172.4c0.3,6.9,4,7.2,12.1,6.1c8.2-1,3.7-16.3,2.8-21.1c-0.9-4.7-14.6,0.4-14.6,0.4
			S308.9,165.5,309.1,172.4z"/>
		<g>
			<path id="XMLID_12157_" class="st0" d="M309.2,161.1c-1-1.5,0.8-2.9,0.8-2.9"/>
			<path id="XMLID_12156_" class="st0" d="M325.6,159.9c-0.7-1.2-3.2-2.4-3.2-2.4"/>
			<path id="XMLID_12155_" class="st0" d="M309.3,165.2c-0.5,1.4,0.3,4,0.3,4"/>
			<path id="XMLID_12154_" class="st0" d="M319.2,178.5c1.4,0.3,3.9-0.8,3.9-0.8"/>
			<path id="XMLID_12153_" class="st0" d="M313.8,177.1c-1.7,0.7-2.6-1.4-2.6-1.4"/>
			<path id="XMLID_12152_" class="st0" d="M326.1,167.2c-0.5-0.5-0.9-2.4-0.9-2.4"/>
			<line id="XMLID_12151_" class="st4" x1="318.1" y1="156.9" x2="315.4" y2="157"/>
			<path id="XMLID_12150_" class="st0" d="M326.2,175.9c0.5-1.3-0.1-4-0.1-4"/>
		</g>
		<g>
			<path id="XMLID_12149_" class="st0" d="M356.6,341.6c1.3,1.7-0.4,4.6-0.4,4.6"/>
			<path id="XMLID_12148_" class="st0" d="M354.6,337.2c-0.3-1.4-2.2-3.4-2.2-3.4"/>
			<path id="XMLID_12147_" class="st0" d="M351.7,354.4c1-0.9,1.8-3.5,1.8-3.5"/>
		</g>
	</g>
	<g id="XMLID_11466_">
		<g id="XMLID_12143_">
			<path id="XMLID_12146_" class="st0" d="M317,33.4c0,0,5.4-0.1,7.9-6.6c2.4-6.5-17.1-11.5-35.2-11s5.1,18,5.1,18"/>
			<path id="XMLID_12145_" class="st0" d="M290.4,19.5c-5,1.7,5.6,8.5,5.6,8.5"/>
			<path id="XMLID_12144_" class="st0" d="M309.8,28.8c6.5-1.7,2.6-5.4-3.2-6.8c-5.9-1.4-3.2,8.6-3.2,8.6"/>
		</g>
		<path id="XMLID_12142_" class="st6" d="M221.8,87.9c-2.6-8.2-8.4-1.6-8.4-1.6C210.4,93.4,224.4,96.1,221.8,87.9z"/>
		<path id="XMLID_12141_" class="st0" d="M340.9,33.5c16.5,3.3,38.1,19.5,31.8,49.1c-6.3,29.6-17.7,27.8-79.6,35
			s-65.7-45.2-65.7-45.2C235.6,6.6,324.4,30.2,340.9,33.5z"/>
		<path class="st7" d="M293.3,117.4c61.9-7.3,73.2-5.3,79.5-34.9c4.4-20.9-5.1-35.1-16.9-42.8c4.9,7.8,7.3,17.9,4.6,30.6
			c-6.2,29.6-17.6,27.6-79.5,35c-20.5,2.4-34.6-1.7-44.4-8.3C245.1,109.5,261.6,121.3,293.3,117.4z"/>
		<path id="XMLID_12140_" class="st2" d="M259.7,115.1c0,0-8.8-18.5-16.7-38.1c3.8-15.5,5.3-32.4,4-32.4
			c-13.4,0.1-49.1,3.9-32.2,41.5c2.7,8.8,8,18.3,17.2,24.2c0.8,0.5,1.5,0.9,2.2,1.3l0,0v0.1c3.3,1.8,5.9,2.7,8,2.9
			C248.3,116.4,259.7,115.1,259.7,115.1z"/>
		<path id="XMLID_12139_" class="st0" d="M301.2,88.5c4.3-12.2-2.7-21.5-2.7-21.5"/>
		<path id="XMLID_12138_" class="st0" d="M300.7,25.8c1.3,3.2-1.9,18.3-1.9,18.3"/>
		<path id="XMLID_12137_" class="st0" d="M369.9,79.6c4.8,2.6,8.2-5.9,5.7-18.8s-8.3-6.7-8.3-6.7"/>
		<path id="XMLID_12136_" class="st2" d="M245.4,21.7c0,0-8.8-6.2-10.3,16.9c-1.5,23-1.3,68.6,24.7,76.2c0,0-5.5-12.2-10.7-35.8
			c-5.1-23.6,3-43.7,3-43.7C249.6,25.1,245.4,21.7,245.4,21.7z"/>
		<path id="XMLID_12135_" class="st0" d="M259.8,114.8c0,0-23.6-9.1-21.2-64.2c2.5-55.1,13.5-15.3,13.5-15.3
			C237.7,63.9,259.8,114.8,259.8,114.8z"/>
		<g>
			<path id="XMLID_12134_" class="st0" d="M284.8,54.5c6.5-0.3,18.3,9.1,18.3,9.1"/>
			<g id="XMLID_12131_">
				<path id="XMLID_12133_" class="st0" d="M309.4,54.9c0.2-0.4,0.5-0.9,0.6-1.6c0.2-0.7,0.2-1.7,0-2.8c-0.4-2-2.5-3-5.6-3.3"/>
				<path id="XMLID_12132_" class="st0" d="M299.9,48.1c-13.7,2.1-32.9,9.3-32.9,9.3"/>
			</g>
			<g id="XMLID_12125_">
				<path id="XMLID_12130_" class="st0" d="M316.4,48c-2.3-11.1-10.4-4.2-10.4-4.2"/>
				<path id="XMLID_12129_" class="st0" d="M316.4,59.9C312.2,70.4,306,63,306,63"/>
				<path id="XMLID_12128_" class="st0" d="M312.9,59.6c-0.5,1.5,0.1,2.9-1.8,1.7s0.3-2.7,0-3.8C310.7,56.4,313.2,58,312.9,59.6z"/>
				<path id="XMLID_12127_" class="st0" d="M312,48.1c-0.7-1.1-1.2-2.3-0.9-2.7c0.9-1.1,2.6-0.6,2.7,1.5
					C313.8,46.9,312.6,49,312,48.1z"/>
				<path id="XMLID_12126_" class="st0" d="M302.5,57.1c-0.7-0.5-0.7-2.7-0.7-2.7"/>
			</g>
			<path id="XMLID_12124_" class="st0" d="M314.7,31.9c-0.6,1.7-3.7,7.8-3.7,7.8"/>
			<path id="XMLID_12122_" class="st0" d="M312.6,75.2c0.1-0.7-3.3-7.8-3.3-7.8"/>
		</g>
		<path id="XMLID_12121_" class="st0" d="M281.9,97c-0.9,1.6-3,0.6-3,0.6"/>
		<path id="XMLID_12120_" class="st0" d="M302.5,91.1c-0.6,0.6-2.5,1-2.5,1"/>
		<path id="XMLID_12119_" class="st0" d="M259.9,92.7c0,0.8,3.5,0,3.5,0"/>
		<path id="XMLID_12118_" class="st0" d="M252.6,44.5c-0.5,0.4-1-2.9-1-2.9"/>
		<path id="XMLID_12117_" class="st0" d="M256.5,65.9c0.8-0.3,1.3-4.1,1.3-4.1"/>
		<path id="XMLID_12116_" class="st0" d="M353.3,46c-0.6-0.2-1.2-3-1.2-3"/>
		<path id="XMLID_12115_" class="st0" d="M355.7,63.1c-1.2,0.7-2.4,3.3-2.4,3.3"/>
		<path id="XMLID_12114_" class="st0" d="M291.6,40.4"/>
		<path id="XMLID_12113_" class="st0" d="M293.8,58.7"/>
		<line id="XMLID_12112_" class="st4" x1="313.5" y1="87.6" x2="314.2" y2="84.9"/>
		<path id="XMLID_12111_" class="st0" d="M323.4,108.8c0,0,5.4-0.3,8.4,5.9s-16,12.8-34.1,13.9c-18,1,3.6-18.4,3.6-18.4"/>
		<path id="XMLID_12110_" class="st0" d="M298.2,124.8c-5.1-1.3,4.9-9,4.9-9"/>
		<path id="XMLID_12109_" class="st0" d="M316.7,113.8c6.6,1.2,3,5.2-2.6,7.1c-5.7,1.9-3.9-8.3-3.9-8.3"/>
		<g>
			<path id="XMLID_12108_" class="st8" d="M285.2,50.7c-28.8,13-25.3-22.8-25.3-22.8C279.9-2.1,314,37.7,285.2,50.7z"/>
			<path id="XMLID_12107_" class="st6" d="M278.1,34.3c-5.5,0.5-3.4-4.8-3.4-4.8C279.5,25.8,283.6,33.8,278.1,34.3z"/>
			<path id="XMLID_12106_" class="st8" d="M297.6,74.1c-10.6-32.7-33.7-6.4-33.7-6.4C252.1,96.2,308.1,106.8,297.6,74.1z"/>
			<path id="XMLID_12105_" class="st6" d="M281.4,90.7c-5.5,0.6-3.4-4.8-3.4-4.8C282.7,82.2,286.9,90.1,281.4,90.7z"/>
			<path id="XMLID_12104_" class="st6" d="M266.4,90.7c3,0.9,11.2-15.6,2.7-24.3s-9.9,3.4-9.9,3.4C258.3,88.2,263.4,89.8,266.4,90.7
				z"/>
			<path id="XMLID_12103_" class="st6" d="M258.8,49.8c4.4-1.2,14.9-16.5,4.6-25.1c-10.4-8.6-9.3,10-9.3,10S254.4,51,258.8,49.8z"/>
			<g id="XMLID_11476_">
				<path id="XMLID_12102_" class="st0" d="M298.4,84.2c0.3-0.7,0.4-1.3,0.4-2.1c0.4-6.4-5.2-16.9-5.2-16.9
					c-1.9,7.1-1.1,19.2-1.1,19.2l0.4,5.7c0,0,0.7,5.1,3.2,2.9c1-1,0.8-1.9,0.6-2.8c0-0.3-0.1-0.5-0.2-0.7
					C296.2,88.4,298.1,84.8,298.4,84.2z"/>
				<path id="XMLID_12101_" class="st0" d="M290.6,26c0,0,0.7-5.1,3.2-2.9c2.3,2.3,0.1,3.1,1.3,7.2c3.9,12.6-4.5,16.4-4.5,16.4
					c-2.4-7.8-1.1-14.9-1.1-14.9L290.6,26z"/>
			</g>
		</g>
		<g id="XMLID_11471_">
			<path id="XMLID_11475_" class="st6" d="M340.1,31.6c-7-10.7-9.5,8.5-9.5,8.5S347,42.3,340.1,31.6z"/>
			<path id="XMLID_11474_" class="st6" d="M328.5,50.1c3.5-1.1,11.9-14.1,3.7-21.4c-8.1-7.2-7.3,8.6-7.3,8.6S325,51.2,328.5,50.1z"
				/>
			<path id="XMLID_11473_" class="st6" d="M341.5,78.1c2.8-0.8,4.5-14.2-5.3-15.5S329,69,329,69C334,80.2,338.7,78.9,341.5,78.1z"/>
			<path id="XMLID_11472_" class="st6" d="M334.4,62.1c-10.8-22.2-8,0.3-8,0.3C329.8,88,345.2,84.3,334.4,62.1z"/>
		</g>
		<g id="XMLID_11467_">
			<path id="XMLID_11470_" class="st0" d="M340,60.6c11.7-6.5,0-18.3,0-18.3"/>
			<path id="XMLID_11469_" class="st0" d="M338.1,50.6c-3.5-2.4,0-5.6,0-5.6"/>
			<path id="XMLID_11468_" class="st0" d="M338.1,50.6c-3.5,2.5,0,5.7,0,5.7"/>
		</g>
	</g>
	<path id="XMLID_11465_" class="st0" d="M321.9,140c0.8,1.3,1.6,1.9,2.5,2.2"/>
	<path id="XMLID_11464_" class="st0" d="M355.1,137.4c0.8-1,1-2.1,1-2.1"/>
	<path id="XMLID_11463_" class="st0" d="M348.1,145.2c0.4-0.1,0.7-0.3,0.9-0.4"/>
	<path id="XMLID_11462_" class="st2" d="M377.6,180.3c-4.5,13.5-1.7,107.4-1.7,107.4"/>
</g>
</svg>
