<?xml version="1.0" encoding="utf-8"?>
<!-- Generator: Adobe Illustrator 22.1.0, SVG Export Plug-In . SVG Version: 6.00 Build 0)  -->
<svg version="1.1" id="Layer_1" xmlns="http://www.w3.org/2000/svg" xmlns:xlink="http://www.w3.org/1999/xlink" x="0px" y="0px"
	 viewBox="0 0 1281.1 721.2" style="enable-background:new 0 0 1281.1 721.2;" xml:space="preserve">
<style type="text/css">
	.st0{fill:none;stroke:#90A55E;stroke-width:0.25;stroke-linecap:round;stroke-miterlimit:10;}
</style>
<g>
	<g id="XMLID_1862_">
		<g id="XMLID_1872_">
			<rect id="XMLID_1880_" x="0.5" y="0.7" class="st0" width="1280" height="90"/>
			<rect id="XMLID_1879_" x="0.5" y="90.7" class="st0" width="1280" height="90"/>
			<rect id="XMLID_1878_" x="0.5" y="180.7" class="st0" width="1280" height="90"/>
			<rect id="XMLID_1877_" x="0.5" y="270.7" class="st0" width="1280" height="90"/>
			<rect id="XMLID_1876_" x="0.5" y="360.7" class="st0" width="1280" height="90"/>
			<rect id="XMLID_1875_" x="0.5" y="450.7" class="st0" width="1280" height="90"/>
			<rect id="XMLID_1874_" x="0.5" y="540.7" class="st0" width="1280" height="90"/>
			<rect id="XMLID_1873_" x="0.5" y="630.7" class="st0" width="1280" height="90"/>
		</g>
		<g id="XMLID_1863_">
			<rect id="XMLID_1871_" x="0.5" y="0.7" class="st0" width="160" height="720"/>
			<rect id="XMLID_1870_" x="160.5" y="0.7" class="st0" width="160" height="720"/>
			<rect id="XMLID_1869_" x="320.5" y="0.7" class="st0" width="160" height="720"/>
			<rect id="XMLID_1868_" x="480.5" y="0.7" class="st0" width="160" height="720"/>
			<rect id="XMLID_1867_" x="640.5" y="0.7" class="st0" width="160" height="720"/>
			<rect id="XMLID_1866_" x="800.5" y="0.7" class="st0" width="160" height="720"/>
			<rect id="XMLID_1865_" x="960.5" y="0.7" class="st0" width="160" height="720"/>
			<rect id="XMLID_1864_" x="1120.5" y="0.7" class="st0" width="160" height="720"/>
		</g>
	</g>
</g>
</svg>
