<?xml version="1.0" encoding="utf-8"?>
<!-- Generator: Adobe Illustrator 22.1.0, SVG Export Plug-In . SVG Version: 6.00 Build 0)  -->
<svg version="1.1" id="Layer_1" xmlns="http://www.w3.org/2000/svg" xmlns:xlink="http://www.w3.org/1999/xlink" x="0px" y="0px"
	 viewBox="0 0 121.6 60.5" style="enable-background:new 0 0 121.6 60.5;" xml:space="preserve">
<style type="text/css">
	.st0{opacity:0.1;fill:#5D5C4C;stroke:#5D5C4C;stroke-linecap:round;stroke-miterlimit:10;enable-background:new    ;}
	.st1{fill:#FFD767;stroke:#584C4F;stroke-width:2;stroke-miterlimit:10;}
	.st2{fill:#FFFAF2;stroke:#584C4F;stroke-width:2;stroke-miterlimit:10;}
</style>
<g id="Layer_5">
</g>
<g id="Layer_3">
</g>
<path id="XMLID_2388_" class="st0" d="M1.1,35.5C1,38.1,0.9,48.2,1.2,51c0.5,4.3,3,7.7,7.9,8c1.7,0.1,74.2,2.1,80.8,0
	c9-2.9,11.5-7.2,11.2-11.3c0.1-0.4,0-13.7-0.1-14.1c-0.6-3.3-2.8-6.3-4.5-8.3c-1.2-1.4-3.4-2.6-4.2-2.8c-6.2-1.2-77.1-1.5-79-1.4
	C6.1,21.6,1.7,28.9,1.1,35.5z"/>
<path class="st1" d="M11.2,40.9c0.5,4.3,3,7.7,7.9,8c1.7,0.1,74.2,2.1,80.8,0c4.2-1.4,7-3,8.7-4.8c1.7-1.8,9.1-8.8,10.6-10.7
	s2-3.8,1.9-5.8c0.1-0.4,0-13.7-0.1-14.1c-0.6-3.3-2.8-6.3-4.5-8.3c-1.2-1.4-3.4-2.6-4.2-2.8c-6.2-1.2-77.1-1.5-79-1.4
	c-2.5,0.2-4.7,1.2-6.5,2.8c-2.2,1.9-7.8,8.4-9.1,9.3c-3.8,2.7-6.1,7.8-6.4,12.4C11.1,28,11,38.2,11.2,40.9z"/>
<g id="XMLID_2366_">
	<g>
		<path id="XMLID_2369_" class="st2" d="M21.1,15.5C21,18.1,20.9,28.2,21.2,31c0.5,4.3,3,7.7,7.9,8c1.7,0.1,74.2,2.1,80.8,0
			c9-2.9,11.5-7.2,11.2-11.3c0.1-0.4,0-13.7-0.1-14.1c-0.6-3.3-2.8-6.3-4.5-8.3c-1.2-1.4-3.4-2.6-4.2-2.8c-6.2-1.2-77.1-1.5-79-1.4
			C26.1,1.6,21.7,8.9,21.1,15.5z"/>
		<path id="XMLID_2368_" class="st2" d="M27.8,34.4c-1.8-1-0.7-3.2-0.7-3.2"/>
		<path id="XMLID_2367_" class="st2" d="M113.9,8.3c-0.9-1.3-3.6-2.6-3.6-2.6"/>
	</g>
</g>
<path id="XMLID_2365_" class="st1" d="M22.9,39.7c-2.3,1-5.4,5.4-5.4,5.4"/>
<g id="XMLID_15_">
	<path id="XMLID_17_" class="st1" d="M88,17.3c0,0-1.2-0.9-1.8-0.2c-0.5,0.7-1.5,1.8-0.4,4.1s5.2,0.4,5.6-0.7"/>
	<path id="XMLID_16_" class="st1" d="M92.5,19.3L92.5,19.3c-0.8-2-2.4-3.6-4.9-3.8c-5-0.5-7.1,2.8-7.9,4.7c0,0-0.2,0.3-0.3,0.9
		c-0.1,0.3-0.1,0.6-0.1,0.8c-0.1,1.1,0.1,2.7,1.1,4.8c0.8,1.7,2.9,2.4,4.3,2.6c0.4,0.1,0.8,0.1,1.3,0.1l0,0l0,0c0.5,0,1-0.1,1.6-0.2
		c2.2-0.5,3.7-1.9,4.6-3.6c-0.1-2-1.9-2.2-2.9-2.4c-0.6-0.1-1.1,0.3-1.6,0.6l-0.1,0.1c-1.5,1.1-5.4-1.1-3.3-2.7c0,0,0.7-0.7,1.5-1.1
		l0,0c0,0,0.7-0.3,1.2-0.2c0.2,0.1,0.4,0.2,0.5,0.5l0,0c0.1,0.1,0.1,0.3,0.2,0.4c0.7,1.1,2.2,2.5,3.6,1.5c1.6-1.2,1.4-1.6,1.5-2.1
		l0,0C92.9,20,92.5,19.3,92.5,19.3z"/>
</g>
<g id="XMLID_12_">
	<path id="XMLID_14_" class="st1" d="M54.2,11.4c0,0-0.7-4.2-4.3-2.7s-1.8,17.4-0.2,18.6C51.4,28.5,56,36.1,54.2,11.4z"/>
	<path id="XMLID_13_" class="st1" d="M53.3,20.4c0,0,5.9-5.8,4.7,5c0,0,1.4,3.4,4.1,2s3.1-18.6-10-13.8"/>
</g>
<g id="XMLID_8_">
	<g id="XMLID_10_">
		<path id="XMLID_11_" class="st1" d="M68.7,21.1c0,0,1-5-3.2-3.6s-1.7,12.3,0.6,11.8C68.2,28.9,69.2,27.1,68.7,21.1z"/>
	</g>
	<path id="XMLID_9_" class="st1" d="M66.4,10.7c0,0,4.7,2.7,0.1,4.7S63.2,8.2,66.4,10.7z"/>
</g>
<g id="XMLID_5_">
	<path id="XMLID_7_" class="st1" d="M81.2,17c0,0-7.6-5.2-10.9,4s4.7,10.7,4.5,5.1s1.7-6.1,3.9-5.2C81,21.7,84.1,20.8,81.2,17z"/>
	<path id="XMLID_6_" class="st1" d="M74.8,17.5c0,0-0.5-3.4-3.6-1.6c-3.1,1.8,0.2,4.8,0.2,4.8"/>
</g>
</svg>
