<?xml version="1.0" encoding="utf-8"?>
<!-- Generator: Adobe Illustrator 22.1.0, SVG Export Plug-In . SVG Version: 6.00 Build 0)  -->
<svg version="1.1" id="Layer_1" xmlns="http://www.w3.org/2000/svg" xmlns:xlink="http://www.w3.org/1999/xlink" x="0px" y="0px"
	 viewBox="0 0 267.4 87.3" style="enable-background:new 0 0 267.4 87.3;" xml:space="preserve">
<style type="text/css">
	.st0{opacity:0.1;fill:#231F20;stroke:#231F20;stroke-miterlimit:10;enable-background:new    ;}
	.st1{fill:#FFD767;stroke:#584C4F;stroke-width:2;stroke-miterlimit:10;}
	.st2{fill:#FFFAF2;stroke:#584C4F;stroke-width:2;stroke-miterlimit:10;}
</style>
<path class="st0" d="M216.4,49.9L216.4,49.9c-1.9-5.1-6.1-9.1-12.5-9.7c-11-1.1-16.5,5-19,9.9c-0.7-1.7-1.7-3.3-3-4.8
	c-2-2.1-4.8-3.7-8.6-4.5c-7-1.5-12.1,0.2-15.8,2.9l0,0c-1.8-1.3-4-2.3-6.8-2.9l0,0l0,0c-4.8-1-8.6-0.6-11.8,0.7
	c-0.1-0.1-0.2-0.2-0.3-0.3c-2.5-2.4-6.8-0.4-9.3,0.6c-0.9,0.4-1.5,3-1.8,6.7c-4.3-6.2-11.9-10.3-20.4-7.6c-5.1,1.6-8,4.5-9.5,7.8
	c-3.1-7.4-9.5-12.8-20.9-10.6c-0.1-2.5-0.3-5.2-0.5-8c0,0-1.9-10.6-10.8-6.9s-4.5,44-0.4,47.1c3.5,2.6,12.1,16.5,12.2-15.9
	c4.2-2.5,10.6-3.6,8.5,15.3c0,0,3.5,8.5,10.4,5c1.3-0.7,2.4-2.7,3-5.5c2.6,2.6,13,11.5,25.8,2.1c1.5-1.1,2.7-2.3,3.6-3.6
	c0,0.2,0.1,0.3,0.1,0.5v0.1l0,0c0.6,2.7,1.4,4.9,2.4,5.9c0.2,0.2,0.5,0.4,0.7,0.6c5.2,2.7,8.6-3.3,8.6-3.3c0.8-2.8,1.1-9.7,1-16.2
	c0.2-0.6,0.5-1.1,0.9-1.4c2.1-1.7,8.1-1.4,9.6,1.6c0.3,0.7,0.4,1.5,0.2,2.5c-0.7,3.1-0.8,6.6-0.7,8.9c0,1.7,0.1,3,0.1,3.5
	c0,1.4,0.6,4.1,5.2,4.6c6.1,0.7,6.9-1.3,6.9-5.6c0-2.1,1.1-7.9,0.4-13.9c0.2-0.7,0.5-1.3,1-1.6c1.8-1.5,6.7-1.4,8.8,0.6
	c0.8,0.8,1.3,1.9,0.9,3.4c-0.7,3.1-0.8,6.6-0.7,8.9c0,1.7,0.1,3,0.1,3.5c0,0.8,0.2,2,1.2,3c0.8,0.8,2,1.4,4,1.7
	c6.1,0.7,6.9-1.3,6.9-5.6c0-0.2,0-0.4,0-0.6c2.2,4.1,7.3,5.6,10.8,6.2c1,0.2,2.1,0.3,3.2,0.3c0.1,0,0.1,0,0.1,0l0,0
	c1.2,0,2.5-0.2,4-0.5c5.6-1.3,9.4-4.8,11.6-9.2c-0.4-5.1-4.7-5.7-7.3-6.1c-1.4-0.2-2.9,0.7-4,1.6c-0.1,0.1-0.2,0.2-0.3,0.3
	c-3.8,2.8-13.6-2.7-8.4-6.8c0,0,1.3-1.4,3-2.3c0.2,0.8,0.5,1.6,0.9,2.5c1.4,2.8,4.6,3.1,7.6,2.3c1.9,1.6,4.2,2.5,6.5,0.9
	c4.1-2.9,3.6-4.1,3.8-5.2l0,0C217.5,51.8,216.4,49.9,216.4,49.9z M109.7,63.7c-9.9-1.3,4-19.8,8.5-8
	C122.7,67.4,109.7,63.7,109.7,63.7z"/>
<g id="XMLID_3835_">
	<path id="XMLID_3837_" class="st1" d="M200,40.1c0,0-3.1-2.2-4.5-0.5c-1.4,1.7-3.7,4.6-0.9,10.4s13.1,1,14.1-1.7"/>
	<path id="XMLID_3836_" class="st1" d="M211.5,45L211.5,45c-1.9-5.1-6.1-9.1-12.5-9.7c-12.7-1.3-18,7-20,12c0,0-0.4,0.7-0.8,2.2
		c-0.3,0.9-0.3,1.6-0.3,2c-0.2,2.7,0.3,6.8,2.8,12.2c2.1,4.4,7.4,6,11,6.5c1,0.2,2.1,0.3,3.2,0.3c0.1,0,0.1,0,0.1,0l0,0
		c1.2,0,2.5-0.2,4-0.5c5.6-1.3,9.4-4.8,11.6-9.2c-0.4-5.1-4.7-5.7-7.3-6.1c-1.4-0.2-2.9,0.7-4,1.6c-0.1,0.1-0.2,0.2-0.3,0.3
		c-3.8,2.8-13.6-2.7-8.4-6.8c0,0,1.8-1.9,3.8-2.7l0,0c0,0,1.7-0.9,3.1-0.4c0.5,0.2,1,0.6,1.4,1.3c0,0,0,0.1,0.1,0.1
		c0.2,0.3,0.4,0.7,0.6,1.1c1.7,2.8,5.5,6.4,9,3.9c4.1-2.9,3.6-4.1,3.8-5.2l0,0C212.6,46.9,211.5,45,211.5,45z"/>
</g>
<g id="XMLID_3816_">
	<g id="XMLID_3826_">
		<g id="XMLID_3831_">
			<path id="XMLID_3834_" class="st1" d="M146.4,63.3"/>
			<path id="XMLID_3833_" class="st1" d="M158.3,62.6c-0.1-5.1-0.4-12,1.6-13.5c2.6-2,10.9-1.2,9.8,4.1c-0.7,3.1-0.8,6.6-0.7,8.9
				c0,1.7,0.1,3,0.1,3.5c0,1.4,0.6,4.1,5.2,4.6c6.1,0.7,6.9-1.3,6.9-5.6s5-25-12.6-28.7c-12.3-2.6-18.9,4.5-21.7,10.2"/>
			<path id="XMLID_3832_" class="st1" d="M158.9,48.3"/>
		</g>
		<g id="XMLID_3827_">
			<path id="XMLID_3830_" class="st1" d="M123.8,63.3c0.7,3.6,11.9,0.9,11.9-0.7c-0.1-5.1-0.4-12,1.6-13.5c2.1-1.7,8.1-1.4,9.6,1.6
				c0.3,0.7,0.4,1.5,0.2,2.5c-0.7,3.1-0.8,6.6-0.7,8.9c0,1.7,0.1,3,0.1,3.5c0,1.4,0.6,4.1,5.2,4.6c6.1,0.7,6.9-1.3,6.9-5.6
				s5-25-12.6-28.7S122.5,48.2,122.5,52C122.5,54,123,59,123.8,63.3"/>
			<path id="XMLID_3829_" class="st1" d="M136.3,48.2"/>
			<path id="XMLID_3828_" class="st1" d="M136.3,48.2c0.3,7.1-0.1,15.3-0.9,18.4c0,0-3.3,6-8.5,3.2c-5.2-2.8-5.5-31.6-2.4-32.9
				c3.2-1.3,9.4-4.1,10.9,2.5"/>
		</g>
	</g>
	<g id="XMLID_3822_">
		<path id="XMLID_3825_" class="st1" d="M146.4,63.3"/>
		<path id="XMLID_3824_" class="st1" d="M158.9,50.8c0.2-0.8,0.6-1.3,1-1.7c2.6-2,10.9-1.2,9.8,4.1c-0.7,3.1-0.8,6.6-0.7,8.9
			c0,1.7,0.1,3,0.1,3.5c0,1.4,0.6,4.1,5.2,4.6c6.1,0.7,6.9-1.3,6.9-5.6s5-25-12.6-28.7c-7-1.5-12.1,0.2-15.8,2.9"/>
		<path id="XMLID_3823_" class="st1" d="M158.9,48.3"/>
	</g>
	<g id="XMLID_3817_">
		<path id="XMLID_3821_" class="st1" d="M154.7,40.7c-2-2.2-4.8-3.9-8.8-4.7"/>
		<path id="XMLID_3820_" class="st1" d="M154.7,40.7"/>
		<path id="XMLID_3819_" class="st1" d="M136.3,48.2"/>
		<path id="XMLID_3818_" class="st1" d="M136.3,48.2c0.3,7.1-0.1,15.3-0.9,18.4c0,0-3.3,6-8.5,3.2c-5.2-2.8-5.5-31.6-2.4-32.9
			c3.2-1.3,9.4-4.1,10.9,2.5"/>
	</g>
</g>
<path id="XMLID_3813_" class="st1" d="M102.3,36c-18.1,5.8-8.6,27.5-8.6,27.5s11.6,13.7,26.4,2.9C134.9,55.5,120.4,30.3,102.3,36z
	 M104.8,58.8c-9.9-1.3,4-19.8,8.5-8S104.8,58.8,104.8,58.8z"/>
<g id="XMLID_3810_">
	<path id="XMLID_3812_" class="st1" d="M71.3,25.2c0,0-1.9-10.6-10.8-6.9s-4.5,44-0.4,47.1C64.2,68.5,75.7,87.6,71.3,25.2z"/>
	<path id="XMLID_3811_" class="st1" d="M69,52c0,0,14.9-14.7,11.9,12.7c0,0,3.5,8.5,10.4,5s8-47.1-25.3-34.8"/>
</g>
<g id="XMLID_118_">
	<path id="XMLID_120_" class="st2" d="M195,35.1c0,0-3.1-2.2-4.5-0.5c-1.4,1.7-3.7,4.6-0.9,10.4s13.1,1,14.1-1.7"/>
	<path id="XMLID_119_" class="st2" d="M206.5,40L206.5,40c-1.9-5.1-6.1-9.1-12.5-9.7c-12.7-1.3-18,7-20,12c0,0-0.4,0.7-0.8,2.2
		c-0.3,0.9-0.3,1.6-0.3,2c-0.2,2.7,0.3,6.8,2.8,12.2c2.1,4.4,7.4,6,11,6.5c1,0.2,2.1,0.3,3.2,0.3c0.1,0,0.1,0,0.1,0l0,0
		c1.2,0,2.5-0.2,4-0.5c5.6-1.3,9.4-4.8,11.6-9.2c-0.4-5.1-4.7-5.7-7.3-6.1c-1.4-0.2-2.9,0.7-4,1.6c-0.1,0.1-0.2,0.2-0.3,0.3
		c-3.8,2.8-13.6-2.7-8.4-6.8c0,0,1.8-1.9,3.8-2.7l0,0c0,0,1.7-0.9,3.1-0.4c0.5,0.2,1,0.6,1.4,1.3c0,0,0,0.1,0.1,0.1
		c0.2,0.3,0.4,0.7,0.6,1.1c1.7,2.8,5.5,6.4,9,3.9c4.1-2.9,3.6-4.1,3.8-5.2l0,0C207.6,41.9,206.5,40,206.5,40z"/>
</g>
<g id="XMLID_99_">
	<g id="XMLID_109_">
		<g id="XMLID_114_">
			<path id="XMLID_117_" class="st2" d="M141.4,58.3"/>
			<path id="XMLID_116_" class="st2" d="M153.3,57.6c-0.1-5.1-0.4-12,1.6-13.5c2.6-2,10.9-1.2,9.8,4.1c-0.7,3.1-0.8,6.6-0.7,8.9
				c0,1.7,0.1,3,0.1,3.5c0,1.4,0.6,4.1,5.2,4.6c6.1,0.7,6.9-1.3,6.9-5.6s5-25-12.6-28.7c-12.3-2.6-18.9,4.5-21.7,10.2"/>
			<path id="XMLID_115_" class="st2" d="M153.9,43.3"/>
		</g>
		<g id="XMLID_110_">
			<path id="XMLID_113_" class="st2" d="M118.8,58.3c0.7,3.6,11.9,0.9,11.9-0.7c-0.1-5.1-0.4-12,1.6-13.5c2.1-1.7,8.1-1.4,9.6,1.6
				c0.3,0.7,0.4,1.5,0.2,2.5c-0.7,3.1-0.8,6.6-0.7,8.9c0,1.7,0.1,3,0.1,3.5c0,1.4,0.6,4.1,5.2,4.6c6.1,0.7,6.9-1.3,6.9-5.6
				s5-25-12.6-28.7S117.5,43.2,117.5,47C117.5,49,118,54,118.8,58.3"/>
			<path id="XMLID_112_" class="st2" d="M131.3,43.2"/>
			<path id="XMLID_111_" class="st2" d="M131.3,43.2c0.3,7.1-0.1,15.3-0.9,18.4c0,0-3.3,6-8.5,3.2c-5.2-2.8-5.5-31.6-2.4-32.9
				c3.2-1.3,9.4-4.1,10.9,2.5"/>
		</g>
	</g>
	<g id="XMLID_105_">
		<path id="XMLID_108_" class="st2" d="M141.4,58.3"/>
		<path id="XMLID_107_" class="st2" d="M153.9,45.8c0.2-0.8,0.6-1.3,1-1.7c2.6-2,10.9-1.2,9.8,4.1c-0.7,3.1-0.8,6.6-0.7,8.9
			c0,1.7,0.1,3,0.1,3.5c0,1.4,0.6,4.1,5.2,4.6c6.1,0.7,6.9-1.3,6.9-5.6s5-25-12.6-28.7c-7-1.5-12.1,0.2-15.8,2.9"/>
		<path id="XMLID_106_" class="st2" d="M153.9,43.3"/>
	</g>
	<g id="XMLID_100_">
		<path id="XMLID_104_" class="st2" d="M149.7,35.7c-2-2.2-4.8-3.9-8.8-4.7"/>
		<path id="XMLID_103_" class="st2" d="M149.7,35.7"/>
		<path id="XMLID_102_" class="st2" d="M131.3,43.2"/>
		<path id="XMLID_101_" class="st2" d="M131.3,43.2c0.3,7.1-0.1,15.3-0.9,18.4c0,0-3.3,6-8.5,3.2c-5.2-2.8-5.5-31.6-2.4-32.9
			c3.2-1.3,9.4-4.1,10.9,2.5"/>
	</g>
</g>
<path id="XMLID_96_" class="st2" d="M97.3,31c-18.1,5.8-8.6,27.5-8.6,27.5s11.6,13.7,26.4,2.9C129.9,50.5,115.4,25.3,97.3,31z
	 M99.8,53.8c-9.9-1.3,4-19.8,8.5-8S99.8,53.8,99.8,53.8z"/>
<g id="XMLID_93_">
	<path id="XMLID_95_" class="st2" d="M66.3,20.2c0,0-1.9-10.6-10.8-6.9s-4.5,44-0.4,47.1S70.7,82.6,66.3,20.2z"/>
	<path id="XMLID_94_" class="st2" d="M64,47c0,0,14.9-14.7,11.9,12.7c0,0,3.5,8.5,10.4,5c6.9-3.5,8-47.1-25.3-34.8"/>
</g>
</svg>
