<?xml version="1.0" encoding="utf-8"?>
<!-- Generator: Adobe Illustrator 22.1.0, SVG Export Plug-In . SVG Version: 6.00 Build 0)  -->
<svg version="1.1" id="Layer_1" xmlns="http://www.w3.org/2000/svg" xmlns:xlink="http://www.w3.org/1999/xlink" x="0px" y="0px"
	 viewBox="0 0 1280 720" style="enable-background:new 0 0 1280 720;" xml:space="preserve">
<style type="text/css">
	.st0{fill:#FFD767;stroke:#584C4F;stroke-width:4;stroke-miterlimit:10;}
</style>
<path class="st0" d="M1408.9,42c18.9-36,36.9-72.6,50.8-110.8c27.2-75.1,37.7-161.7,2.5-236.1c-29-61.4-84.6-106.5-145.8-133.8
	c-75.3-33.6-159.6-39.2-241-36.7c-91,2.9-182.1,12.3-272.6,22.2c-77.5,8.5-154.8,18.6-231.9,30.3c-18.2-2.2-36.5-4.3-54.7-6.3
	c-90.5-9.9-181.6-19.3-272.6-22.2c-81.4-2.6-165.6,3.1-241,36.7c-61.1,27.3-116.7,72.4-145.8,133.8c-35.2,74.4-24.7,161,2.5,236.1
	c14.5,40,33.5,78.1,53.3,115.6c1.5,2.8,3,5.8,4.5,8.8c-2.7-0.6-5.5-0.7-8.4-0.1c-12.5,2.5-20.4,15.4-25.1,26.2
	c-2.2,5.1-4,10.4-5.3,15.8c-21,22.4-30.2,55.5-20.6,86.5c4.8,15.4,12.6,29.6,20.5,43.5c6.7,11.7,14,23.1,22.5,33.5
	c15,18.2,36.7,37.5,62.2,34.6c22.7-2.6,37.3-22,52.7-36.6c8.6-8.2,18.7-16.2,31-16.9c17.1-1,29.8,12.2,40.3,24
	c12.4,14,24.7,28.2,37.1,42.3c10.8,12.3,21.2,27.6,34.5,37.2c10.7,7.8,23.6,7.1,36.1,5.7c12.3-1.4,24.4-4.2,35.8-9
	c11.3-4.7,21.9-11.4,30-20.6c9-10.2,12.3-21.8,15.8-34.6c2.6-9.3,6.7-19.5,17.1-22.4c8.6-2.4,17.9,1.6,24.2,7.5
	c16.6,15.3,10.6,40.6,5.7,59.7c-0.1,0.3,0.1,0.7,0.4,0.8c34.9,10.1,35.7,58.4,55.4,83.3c13.7,17.4,34.7,18.9,53.3,28.1
	c19.8,9.8,27.2,34.3,48.3,41.7c19.9,7,42-2.7,57.7-14.8c17.7-13.7,31.9-32.7,41.7-52.7c10.5-21.4,13.7-43.4,17.3-66.6
	c1.8-11.9,4.8-24.3,13.2-33.3c7.8-8.3,18.9-11.9,29.5-15.1c16.9-5.1,34.3-10.1,41.1-28.1c4.5-11.8,3.5-25.1,8.9-36.6
	c2.8-6,7.3-11.9,13.3-15c2.7-1.4,9-3.7,10.4,0.7c0.7,2.1-3,8.8-3.7,11.2c-7.7,25.5-11.5,52.2-11.3,78.8c0.1,12.9,1.2,25.7,3.2,38.4
	c1.9,11.8,3.7,25,9.7,35.6c5.5,9.6,14.9,16.3,23.5,23c9.5,7.4,19.1,14.6,28.9,21.6c20.1,14.3,41.3,27.6,64.3,36.8
	c11.5,4.6,23.5,8.2,35.8,10.2c4.9,0.8,9.8,1.4,14.7,1.6c2.9,0.2,6.6-0.4,9.4,0.2c3.5,0.7,2.8,1.4,3.2,4.7
	c2.1,20.1,25.5,25.1,41.8,22.1c12.6-2.3,25-7.2,37.1-11.3c11.4-3.9,22.7-8,33.8-12.9c22.1-9.6,43.7-22.1,60.1-40.1
	c14.4-15.8,25-35.9,27.9-57.3c3.1-22.5-4.3-41.6-16.6-60.1c-7.6-11.3-15.9-22.5-19.8-35.7c-3.9-13.3-3.6-31.4,9.6-39.5
	c8.8-5.5,23.7-6.7,30.3,3c5.6,8.2,2.4,19.1,4.4,28.3c5.4,24.3,33.3,2.2,43.8-4.8c12.4-8.2,24.8-16.4,37.1-24.7
	c1.3-0.9,14.3-8.3,15-10.3c-0.4,1.8-5.2,11.7-5.5,13c-4,17.9,3.2,37.4,15.4,50.6c15.2,16.6,37.7,24.3,59,28.9
	c21.9,4.8,47,10.1,68.4,0.7c13.7-6,23.9-17.2,31.8-29.8c19-30.4,26.4-68.8,53.2-94c18.1-16.9,43.2-21.4,63.6-34.5
	c13.9-8.9,24.1-22.1,30.1-37.4c12.2-31,7.5-70-15.7-94.8C1474.1,45.6,1441,40.6,1408.9,42z"/>
</svg>
