<?xml version="1.0" encoding="utf-8"?>
<!-- Generator: Adobe Illustrator 22.1.0, SVG Export Plug-In . SVG Version: 6.00 Build 0)  -->
<svg version="1.1" id="Layer_1" xmlns="http://www.w3.org/2000/svg" xmlns:xlink="http://www.w3.org/1999/xlink" x="0px" y="0px"
	 viewBox="0 0 1282 722" style="enable-background:new 0 0 1282 722;" xml:space="preserve">
<style type="text/css">
	.st0{fill:#A36B78;stroke:#584C4F;stroke-width:4;stroke-linecap:round;stroke-miterlimit:10;}
	.st1{fill:#B66C7E;stroke:#584C4F;stroke-width:4;stroke-miterlimit:10;}
	.st2{fill:#FFFAF2;stroke:#584C4F;stroke-width:2;stroke-miterlimit:10;}
	.st3{fill:#FFD767;stroke:#584C4F;stroke-width:2;stroke-miterlimit:10;}
</style>
<g id="Layer_5">
</g>
<g id="Layer_3">
</g>
<g>
	<g>
		<path id="XMLID_84_" class="st0" d="M-478.8,107.7c132.7,8.3,295.7,16.3,380.4,21.9c153.4,10.2,379.1,1.5,379.1,1.5l-6.5,64.4
			c0,0-398.1-19.4-481.9-7.5c-60.1,8.5-281.8-11.5-411.2-18.8"/>
		<path class="st0" d="M270.6,134.3c8.5-7.6,23-14,47.4-13.6c11.4,0.2,28.8-1.3,31-0.7c3.8,1.1,24.7,0.4,32.5,2.6
			c1-2.4,2.7-4,4.6-3.5c4.6,1.4,34.6,0,35.4,4.4c0.9,4.4,1.7,8.8-0.4,9.2c0,0-28.9,3.5-36.4,0.5c-0.2,0.2-0.4,0.4-0.7,0.4
			c0,0-16.7,2-28.1,1.6c2.3,4,3.4,8.6,3.8,13.8c5.4,0.3,32.4-7.4,40.8-5.8c0.7-1.6,1.9-2.6,3.4-2.5c5.9,0.4,40.7-9.9,43.3-4.5
			c2.6,5.4,5.2,10.7,2.9,11.8c0,0-33.5,13-43,11c-1.4-0.3-2.6-1-3.6-1.8c-7.6,2.9-32.7,11.8-40.7,10.1c-1.4-0.3-3.1,7.5-2.2,7.8
			c5.4,1.8,36.6,1.1,45.1,5.2c1.2-1.5,2.7-2.2,4.3-1.7c6.1,2.1,46,0.8,47.2,7.2c1.3,6.4,2.5,12.7-0.2,13.3c0,0-39.2,4.4-48.7-0.3
			c-1.4-0.7-2.5-1.7-3.3-2.9c-9,0.9-38,3.4-46.1-0.6c-1.1-0.5-2.8,1.4-2.8,3c0,2.2,0.2,6.1,0.6,6.3c4.8,2.6,35,7.9,42.4,13
			c1.5-1,3-1.4,4.4-0.7c5.5,3,44.1,9.4,44,15.2c-0.1,5.8-0.2,11.6-2.9,11.6c0,0-38.6-3.5-46.9-9.4c-1.2-0.9-2.1-2-2.6-3.1
			c-8.8-0.9-37.3-4.2-44.2-9.2c-1.9-1.4-16.9,0.1-24.8,0c9.4,7.3,22.4,17.2,20.9,20.8c-2.3,5.3-4.5,10.6-6.8,9.7
			c0,0-29.4-15.6-34.2-23.9c-0.3,0.1-0.6,0.1-0.9,0c0,0-30-16-34.4-24.2c-0.3-0.6-0.5-1.1-0.7-1.6c-7-5.7-11-11.7-13.1-17.4"/>
		<path class="st0" d="M267.7,137.1c0.9-1,1.9-1.9,2.9-2.9"/>
		<path id="XMLID_83_" class="st0" d="M239.3,144.2c0,0,35.8-51.4,37.6,0.6"/>
		<path class="st1" d="M450.6,197.4c0,0,6.6,1.9,6.4-2.4c-0.1-4.3,1.9-8.7-4.6-8.5c-6.5,0.2-6.3,4.5-6.3,4.5
			S444.1,195.5,450.6,197.4z"/>
		<path class="st1" d="M438.5,241.4c0,0,6.4,2.3,6.5-2.1s2.3-8.6-4.2-8.7c-6.5-0.1-6.5,4.2-6.5,4.2S432,239.1,438.5,241.4z"/>
		<path class="st1" d="M415.1,130.3c0,0,6.4,2.3,6.5-2.1s2.3-8.6-4.2-8.7c-6.5-0.1-6.5,4.2-6.5,4.2S408.7,128.1,415.1,130.3z"/>
		<path class="st1" d="M442.9,149.7c0,0,8.2,0.5,6.9-4.5c-1.3-5-0.2-10.7-7.7-8.7s-6.2,7-6.2,7S434.7,149.2,442.9,149.7z"/>
		<path class="st1" d="M336.3,249.7c0,0,5.5,4,6.8-0.2c1.3-4.1,4.6-7.5-1.6-9.5c-6.1-1.9-7.4,2.2-7.4,2.2S330.8,245.7,336.3,249.7z"
			/>
		<path id="XMLID_82_" class="st0" d="M345.4,140.9c0,0-13.3-8.2-0.4-9.4"/>
		<path id="XMLID_81_" class="st0" d="M344.2,162.6c0,0-13.3-8.2-0.4-9.4"/>
		<path id="XMLID_80_" class="st0" d="M344.7,185.8c0,0-13.3-8.2-0.4-9.4"/>
		<path id="XMLID_79_" class="st0" d="M343.5,207.6c0,0-13.3-8.2-0.4-9.4"/>
		<path id="XMLID_78_" class="st0" d="M316.3,228.7c0,0-24.4,12.5-14.4-8"/>
		<path id="XMLID_77_" class="st0" d="M386.5,222.1c-0.4-1.6,0.9-3,5.6-3.4"/>
		<path id="XMLID_76_" class="st0" d="M396.5,189.9c0.7-1.6,1.6-3.5,2.8-5.7"/>
		<path id="XMLID_75_" class="st0" d="M396.7,146.1"/>
		<path id="XMLID_74_" class="st0" d="M391,149.5c-0.3-1.2,0.3-2.2,2.6-2.9"/>
		<path id="XMLID_73_" class="st0" d="M380.2,126"/>
		<path id="XMLID_72_" class="st0" d="M376.5,128.5c-0.3-1.2-0.5-2.6,0.2-3.2"/>
		<path id="XMLID_71_" class="st0" d="M428.2,236.9c-1.3-0.9-1.4-2.7,1.7-6.3"/>
		<path id="XMLID_70_" class="st0" d="M440.3,194.3c-0.1-1.7-0.1-3.8,0-6.4"/>
		<path id="XMLID_69_" class="st0" d="M432.4,148.5c-1-0.7-1.3-1.8-0.2-3.9"/>
		<path id="XMLID_68_" class="st0" d="M407.1,126.9c-0.3-1.2-0.5-2.6,0.2-3.2"/>
	</g>
	<path id="XMLID_67_" class="st2" d="M373.7,147.7c0.1,0.4,2.2,17.6,2.1,19.1c0,0.2-0.3,0.8-0.6,1.1c-0.4,0.5-1.1,1.1-1.8,1.3
		c-0.1,0-3.3,0.5-3.4,0.5c-1,0.2-2.1-0.3-3.1-2.3c-0.7-1.5-2.5-19.1-2.5-19.5c-0.1-1.2,0.7-1.9,1.7-2.1c0.6-0.2,3.1-0.5,3.8-0.5
		C371.5,145.1,373.4,145.9,373.7,147.7z"/>
	<path id="XMLID_66_" class="st2" d="M366.3,147.1c0,0-0.6-0.2-0.8,0.2"/>
	<path id="XMLID_65_" class="st2" d="M375,166.4c0,0-0.2,0.7-0.5,0.9"/>
</g>
<g>
	<path class="st3" d="M812.7,366.8c-5.6-11.8-20.5-20.6-33.5-16c-7.4,2.6-12.5,9.3-18.7,13.8c-3.3,2.4-7.2,4.5-11.4,3.6
		c-7-1.6-10.1-9.8-11.6-16c-2.5-10.4-1.8-21.4-5-31.7c-2.7-8.7-8.6-16.7-18.2-17.9c-7.5-0.9-15.5,2.7-16.7,10.8
		c-1.3,8,4.5,15.5,8.2,22.1c2.4,4.3,3.5,8.9,2.8,13.8c-0.5,3.8-2.3,7.6-5.7,8.7l-3.9,1c-5.4,2-12.1,0.7-17.3-2.2
		c-9.6-5.4-13.1-16.2-14.8-26.4c-1.7-10.2-1.9-20.8-5.8-30.6c-3.3-8.1-9-16.2-17.9-18.6c-16.9-4.6-28.7,12.3-34.5,25.7
		c-3.1,7.1-6.8,16.4-4.5,24.2c1.3,4.3,4.6,7.2,8.6,9.1c5.3,2.5,11,4.1,16.1,7c10.4,5.7,19.2,15.9,15.9,28.4c-1.3,4.7-4.3,9.1-9,10.8
		c-5.1,1.8-10.5,0.1-15.1-2.3c-8.1-4.1-14.9-10.3-24.5-9.4c-6.3,0.6-13.6,4.6-11.8,12c2.2,9.1,14.1,9.4,21.3,11.2
		c4.4,1.1,10.2,3.4,12,8c2.9,7.6-6.7,11.3-11.9,13.6c-14.6,6.4-22.9,21.6-23.1,37.2c-0.3,15.9,8.4,31.2,24,36.3
		c15,4.9,32.8,0.3,43.9-10.9c6.6-6.7,8.9-14.6,10.7-23.5c1.1-5.5,2.7-12.3,7.9-15.3c4.1-2.4,11.9-3,14.1,2.4
		c1.8,4.5-2.1,9.1-0.1,13.7c1.6,3.6,5.3,5.7,8.8,7.1c8.4,3.4,19.3,6.1,28.4,4.1c6.8-1.5,13.4-7.1,14.4-14.3
		c1.5-10.5-10.1-14-14.9-21.3c-5-7.7-3.9-18.5,1.5-25.8c6.1-8.2,16.2-9.1,25.5-7c8.8,2,17.2,5.9,26.1,7.4c8.2,1.4,16.4-0.1,23.7-4
		C810.2,398.2,819.9,381.8,812.7,366.8z"/>
	<path class="st2" d="M620.9,370.3c-85.8,27.3-40.8,130.6-40.8,130.6s54.9,64.8,125.2,13.2C775.6,462.4,706.7,343,620.9,370.3z
		 M700,507.7c-63.3,46.5-112.7-11.9-112.7-11.9s-40.5-92.9,36.7-117.5C701.2,353.7,763.2,461.2,700,507.7z"/>
	<g id="XMLID_134_">
		<path id="XMLID_135_" class="st2" d="M741.7,523.9c0,0,0-0.1,0-0.2c0-1.1,0.1-2.1,0.1-2.5c0-0.3,0-1.4,0-2.9c0-1.8,0-3.4,0-3.5
			c-0.1-0.8,0.1-3.5,0-4.1c0,0-0.1-4.7-0.1-5.2c0.1-1.4,0.2-4.5,0.1-5.3c0-0.9-0.2-12.9-0.5-14.8c0-0.1,0-0.2,0-0.3
			c0.1-2.1,0.2-4.1,0.1-5.5c0.3-4.2,0.2-11.9,0-15c0.3-0.3,0.4-13.4,0.3-13.8c0-0.2-0.1-0.3-0.1-0.5c0-2.7-0.1-5.2-0.2-6.7
			c0.3-0.3,0.4-13.4,0.3-13.8c-0.2-1.6-2.5-3.4-6.2-3.5c-0.4,0-7.1,0-15,0c-0.5,0-0.9-0.1-1.3-0.1c-1.7-0.1-137-0.1-138.7,0
			c-0.5,0-0.9,0-1.3,0.1c-7.8,0-14.5,0-15,0c-3.7,0.1-6,1.9-6.2,3.5c0,0.4-0.1,1.5,0,2.4c0,0.7,0,10.4,0,10.5c0,0.2,0,3.9,0.1,7.9
			c0,0.1,0,0.1,0,0.2c0,0.4-0.1,1.5,0,2.4c0,0.7,0,10.4,0,10.5c0,0.3,0,11.8,0.3,16c0,1.5,0,3.4,0.1,5.5c0,0.1,0,0.2,0,0.3
			c-0.2,1.8-0.5,13.8-0.5,14.8c0,0.7,0,10.4,0,10.5c-0.1,0.6,0,8,0,8.1c0,0.3,0,0.8,0,1.4c0,0.6,0,0.9,0,1.1c0,0.3,0,2.1,0,4.1
			c0,0.6,0,1.2,0,1.7c0,0.2,0,0.4,0,0.6c0,2.2,0,4.1,0,4.1c-0.1,0.6,0,8,0,8.1c-0.1,0.7,0.1,2.5,0.1,3.9c0,0.5-0.1,0.9-0.1,1.3
			c0,0.5-0.1,2-0.1,3c0,0.5,0,0.9,0,1c0,0.3,0.1,0.6,0.4,1c-0.2,3.3-0.3,11.1,0,15.4c0,1.6,0.1,3.7,0.2,6c0,0.2,0,0.3,0,0.5
			c-0.2,1.9-0.5,14.1-0.5,15.1c0,0.8,0,1.5,0,1.5c-0.1,0.7,0,6.7,0,7.7c0,0.8,0,1.5,0,1.5c0,0.3,0,0.5,0.2,0.8
			c-0.1,4.1-0.2,8.9-0.2,9.5c0,0.8,0,1.5,0,1.5c-0.1,0.7,0,6.7,0,7.7c0,0.8,0,1.5,0,1.5c-0.2,1,1.1,2.1,5.7,2.8
			c2.8,0.4,29.3,0.1,38.2,0c13.2,0.2,82.7,0.2,95.9,0c8.9,0.1,35.4,0.4,38.2,0c4.6-0.7,5.9-1.8,5.7-2.8c0,0,0-0.7,0-1.5
			c0-1,0-2.1,0-2.5c0-0.3-0.1-0.8-0.1-1.3c0.1-1.4,0.2-4.6,0.1-5.4c0-0.6-0.1-5.4-0.2-9.5c0.2-0.3,0.2-0.5,0.2-0.8c0,0,0-0.7,0-1.5
			c0-1,0-2.1,0-2.5c0-0.3-0.1-0.8-0.1-1.3c0.1-1.4,0.2-4.6,0.1-5.4c0-1-0.2-13.2-0.5-15.1c0-0.1,0-0.3,0-0.5c0.1-2.3,0.2-4.4,0.2-6
			c0.3-4.3,0.4-16,0.3-16.4c0,0,0-0.4,0-1c0-1,0-2.6-0.1-3c0-0.3,0-8.8,0-9.2c0-0.1,0-0.2,0-0.3c0-0.5,0-0.9,0-1.4c0-1,0.1-2,0-2.4
			c0,0,0-0.2,0-0.4c0-1.9,0-3.2,0-3.3c0,0,0-0.4,0-1C741.8,525.9,741.7,524.3,741.7,523.9z"/>
	</g>
</g>
</svg>
