<?xml version="1.0" encoding="utf-8"?>
<!-- Generator: Adobe Illustrator 22.1.0, SVG Export Plug-In . SVG Version: 6.00 Build 0)  -->
<svg version="1.1" id="Layer_1" xmlns="http://www.w3.org/2000/svg" xmlns:xlink="http://www.w3.org/1999/xlink" x="0px" y="0px"
	 viewBox="0 0 464.1 1401.5" style="enable-background:new 0 0 464.1 1401.5;" xml:space="preserve">
<style type="text/css">
	.st0{opacity:0.1;fill:#231F20;stroke:#231F20;stroke-miterlimit:10;enable-background:new    ;}
	.st1{fill:#A36B78;stroke:#584C4F;stroke-width:2;stroke-linecap:round;stroke-miterlimit:10;}
	.st2{fill:#A36B78;stroke:#584C4F;stroke-width:2;stroke-linecap:round;stroke-linejoin:round;stroke-miterlimit:10;}
	.st3{fill:#FFD767;stroke:#584C4F;stroke-width:2;stroke-miterlimit:10;}
	.st4{fill:#A36B78;}
	.st5{fill:none;stroke:#584C4F;stroke-width:2;stroke-linecap:round;stroke-miterlimit:10;}
	.st6{fill:#BEAB72;}
	.st7{fill:#584C4F;stroke:#584C4F;stroke-width:2;stroke-linecap:round;stroke-miterlimit:10;}
	.st8{fill:#FFFFFF;stroke:#584C4F;stroke-width:2;stroke-linecap:round;stroke-miterlimit:10;}
</style>
<g id="Layer_5">
</g>
<g id="Layer_3">
</g>
<g>
	<path class="st0" d="M287.3,1399.7c30.3,0,252.5-26.7,176.7-129.1c-38.1-51.4-123.3-64.9-198.8-65.6c-2.9-56.3-6.7-144.6-4.6-182.9
		c9.9,0.1,10.6-13.9,2.3-16.9c0.3-5.2,0.1-12.7-0.5-22.8l0-0.1c-0.2-8.3-0.7-17.8-1.2-28c-0.9-30.8-1-64.9-0.7-96
		c5.9-8.3,15.1-23.2,14.2-19.3c-1.5,6.4-23.7,133.6-4.7,55.3c19-78.2,12.1-28.5,12.1-28.5c2.9,106.6,9.5,21.2,11.7,7.7
		s22.7,70.4,18.3,28.8c-4.5-41.6-1.1-45.3,6.9-10.7c8,34.5,2.2-47.2,2.2-47.2s-1.7-18.2-6.1-22.4c-0.1-1.7-0.3-3.6-0.5-5.9
		c9.5-2.7,4.3-9.1-1-13.5c-0.8-11.9-1.8-27.3-2.8-44.5c0.1-0.1,0.1-0.2,0.1-0.3l0.1-0.1c0.1-0.4,0.2-1,0.3-1.7
		c0.2-2,0.3-4.1,0.3-6.1c0.3-6.2,0.5-15.3,0.5-25.2c2-0.9,3.5-2.5,4.8-4.6c0.2-0.2,0.3-0.4,0.4-0.6c7.9-15.6-1.1-56.9-7.8-73.1
		c-0.4-1.1-0.9-2.5-1.3-4c0-0.1-0.1-0.3-0.1-0.4c0-2.4,0.1-4.7,0.1-7c0-2.7,0.2-5.5,0.2-8.4c10.5,0,10.6-15.9,0.3-17.3
		c0.2-10.6,0.4-22.4,0.6-34.9c21.2-18.7,4.6-174.2-6.2-188.8c-2.6-3.5-10-6.8-19.9-9.9c-0.7-0.7-1.4-1.3-2.2-1.9
		c-0.1-0.1-0.1-0.1-0.2-0.2c-0.8-0.7-1.5-1.3-2.3-1.8c-0.1-0.1-0.2-0.2-0.3-0.3c-0.7-0.6-1.5-1.2-2.3-1.6c-0.1-0.1-0.3-0.2-0.4-0.3
		c-0.8-0.5-1.6-1-2.4-1.4c-0.1,0-0.3-0.1-0.4-0.2c-0.8-0.5-1.6-1-2.5-1.3c-0.1-0.1-0.2-0.1-0.3-0.2c-0.9-0.4-1.8-0.9-2.7-1.2
		c-0.1-0.1-0.1-0.1-0.2-0.1c-0.9-0.4-1.8-0.8-2.8-1.1c-0.1,0-0.1-0.1-0.2-0.1c-1-0.4-1.9-0.7-2.9-1c-0.1,0-0.3-0.1-0.4-0.1
		c-1-0.3-1.9-0.6-2.9-0.8c-0.2,0-0.3-0.1-0.5-0.1c-1-0.3-1.9-0.5-2.9-0.7c-0.2,0-0.3-0.1-0.5-0.1c-1-0.2-2-0.4-3-0.6
		c-0.1,0-0.3-0.1-0.4-0.1c-1-0.3-2.1-0.4-3.1-0.6c0,0-0.1,0-0.2,0c-1.1-0.2-2.1-0.3-3.2-0.5l-0.1,0c-1.1-0.2-2.1-0.2-3.2-0.4
		c-0.1-0.1-0.3-0.1-0.4-0.1c-1-0.1-2.1-0.2-3.1-0.3c-0.2-0.1-0.3-0.1-0.5-0.1c-1-0.1-1.9-0.2-2.9-0.2l0,0c0.1-0.7,0.1-1.4,0-2.2
		c0.1-1.9,0-5.4-0.2-9.6c3.9-3.1,3.2-6.4,2-8.6c0.5-0.3,0.9-0.5,1.4-0.8c0.1,0,0.1,0,0.1,0c0.8-0.4,1.6-0.9,2.3-1.5
		c0.1-0.1,0.2-0.1,0.3-0.2c0.6-0.4,1.3-0.9,1.9-1.3c0.1-0.1,0.2-0.1,0.3-0.2c0.8-0.5,1.5-1.1,2.2-1.7l0,0c0.7-0.5,1.3-1.1,2-1.7
		c0.1,0,0.2-0.1,0.3-0.2c1.3-1.1,2.5-2.3,3.8-3.5c0.1-0.1,0.1-0.1,0.2-0.2c0.6-0.6,1.2-1.2,1.8-1.8l0,0c0.7-0.6,1.3-1.3,1.8-1.9l0,0
		c0.6-0.6,1.1-1.3,1.6-1.9l0.1-0.1c1.1-1.3,2.1-2.8,3.1-4.1l0.1-0.1c1.1-1.4,2-2.9,2.9-4.3l0,0l0,0c6-9.5,9.8-19.6,11.4-28.8
		c1.2-0.5,2.5-1.3,3.8-2.2c8.7-5.7,7.2-9.8,2.6-12.6c1-0.7,2-1.7,2.8-2.7c7.3-8.2,2.6-11.7-3.6-13c0.3-1.5,0.5-3.1,0.8-4.7
		c1.7,1.3,3.9,2.4,6.5,3.3c13,4.4,21.9-33.7,20.1-68.6c-0.4-7.4-2.2-11.1-4.8-12.6c4.3-12.2,1.7-26.8-13.3-39.1
		c11.8-16-11.6-16.5-19.2-16.2c-0.7-1.5-1.5-2.9-2.3-4.2c6.8-1.8,12-4,15.8-6.1c4.5-2.2,8.7-4.7,9.8-7.3c0.5-0.6,10.9-17.4-34.3-19
		C253,78,248.2,78,243,77.9c-6.2-28.7-24.8-61.9-80-37c-1.1-1.3-2.2-2.1-2.2-2.1c-7.2-2.7-11.9,2.8-12.9,8.2
		c-13.1,6.2-25.9,15.7-34.1,29.3c-1,1.5-1.7,2.9-2.5,4.3l0,0c0,0-0.1,0-0.1,0.1c-3.4,6.5-5.1,11.5-5.4,15.5
		c-3.4,12-0.1,34.2-0.1,34.2s0.2-0.1,0.6-0.3c0,0.1,0,0.1,0,0.1s0,0,0.1,0c-0.1,0.2-0.1,0.4-0.2,0.6c-0.2,0.7-0.5,1.4-0.6,2.1
		c-0.2,0.6-0.3,1.1-0.5,1.6c-0.2,0.7-0.4,1.4-0.5,2.1c-0.2,0.5-0.3,1-0.5,1.6c-0.2,0.7-0.4,1.5-0.5,2.2c-0.1,0.5-0.3,1.1-0.4,1.7
		c-0.2,0.7-0.3,1.5-0.4,2.2c-0.1,0.6-0.3,1.2-0.4,1.8c-0.1,0.8-0.3,1.5-0.3,2.3c-0.1,0.6-0.2,1.3-0.3,1.9c-0.2,0.8-0.3,1.6-0.3,2.4
		c-0.1,0.7-0.2,1.3-0.2,2c-0.1,0.8-0.2,1.6-0.2,2.4c-0.1,0.7-0.1,1.4-0.1,2.1c-0.1,0.8-0.1,1.7-0.1,2.5c-0.1,0.7-0.2,1.4-0.1,2.1
		c0,0.8-0.1,1.7,0,2.6c0,0.7-0.1,1.5,0,2.2c0,0.9,0,1.8,0.1,2.7c0,0.7,0,1.5,0.1,2.2c0,1,0.1,1.9,0.2,2.9c0,0.7,0,1.5,0.1,2.2
		c0.1,1,0.2,2.1,0.3,3.1c0,0.8,0.1,1.5,0.2,2.2c0.1,1.2,0.3,2.4,0.4,3.6c0,0.7,0,1.3,0.1,1.9c0.2,1.8,0.5,3.6,0.7,5.5
		c0,0.1,0,0.1,0,0.1c0.1,0.9,0.2,1.9,0.4,2.8c-11-8.1-24-13.7-22.1,6.8c3.1,34.8,17.3,71.4,29.5,65.2c1.1-0.6,2.1-1.2,3-1.8
		c0.4,2.2,0.7,4.3,1.1,6.4c0.4,2.2,0.8,4.4,1.2,6.5c0.9,5.2,2,10.1,3.1,14.4c0.9,3.5,1.8,6.8,2.8,9.8c0.2,0.8,0.5,1.6,0.8,2.3
		c1.6,4.4,3.3,8.3,5.2,11.8c0.3,0.6,0.6,1.1,0.9,1.7c0.6,1.2,1.4,2.3,2.1,3.2c0.4,0.5,0.7,1,1.1,1.5c1.3,1.8,2.8,3.3,4.3,4.8
		c6.2,5.9,14.1,9.9,24.5,13c-0.3,4.2-0.3,8.1-0.1,10.4l2.1,6.3c-16.9,3.2-29.8,8.8-37.5,15.4c-6.9,2.3-17.4,6.4-25.7,12.8
		c-6,4.7-10.8,10.5-12.2,17.7c-0.2,0.8-0.3,1.7-0.3,2.5c-0.2,1.6-0.3,3.7-0.4,6.2c-4.8,30.1-7.8,89.7-3.6,130.4
		C81.8,575,81,599.1,80,604.3c-0.4,2.8-1.8,11.6-3.2,23.2c-0.2,1.5-0.3,2.9-0.5,4.4C72,671.5,68.1,738.8,91,743.6
		c0.9,16.6,2,30,2,30s0.2,0,0.5,0c1,5.9,2.9,12,5.9,18.3c0,2.7-0.1,5.2-0.1,7.7c-6.1,2.7-3.7,8.6-0.3,13.3c-0.1,3.8-0.2,7.2-0.2,10
		c-0.7,1.1-1.6,2.8-2.9,5c-9.8,17-34.6,62.4-22.7,62.3c0.1,0,0.3,0,0.4,0c0.3,0,0.6,0,0.9,0c0.1,0,0.3,0,0.5,0c0.2,0,0.5,0,0.7,0
		c0.2,0,0.3,0,0.5,0s0.4,0,0.6,0c0.2,0,0.3,0,0.5,0c0.2-0.1,0.4-0.1,0.6-0.1c0.1-0.1,0.3-0.1,0.4-0.1c0.2,0,0.4-0.1,0.6-0.1
		c0.1-0.1,0.2-0.1,0.3-0.1c0.2,0,0.4-0.1,0.6-0.1c0.1-0.1,0.2-0.1,0.3-0.1c0.2-0.1,0.4-0.1,0.6-0.2c0.1-0.1,0.1-0.1,0.2-0.1
		c0.2-0.1,0.4-0.1,0.6-0.2l0.1,0c0.2,0,0.4-0.1,0.6-0.2l0,0c1.4-0.7,2.2-1.6,2.6-2.4c-0.1,0.3-0.1,0.7-0.2,1.1l0,0.1
		c-0.1,0.1-0.1,0.3-0.1,0.5c0,0,0,0.1,0,0.2c-0.1,0.2-0.1,0.5-0.1,0.7c0,0.2,0,0.3,0,0.5c0,0.1,0,0.3,0,0.4c0,0.1,0,0.3,0,0.4
		s0,0.3,0,0.4c0,0.1,0,0.3,0,0.5c0,0.1,0,0.2,0,0.3c0,0.3,0,0.5,0,0.8c0,0.1,0,0.2,0,0.3c0,0.2,0,0.4,0,0.6c0,0.1,0,0.2,0,0.3
		c0.1,0.2,0.1,0.5,0.1,0.7c0,0.1,0,0.1,0,0.2c0,0.3,0.1,0.5,0.1,0.8c0,0.1,0,0.1,0,0.2c0,0.2,0,0.4,0.1,0.6c0.1,0.1,0.1,0.1,0.1,0.2
		c0.1,0.3,0.1,0.5,0.2,0.7c0,0.1,0,0.1,0,0.1c0.1,0.3,0.2,0.5,0.3,0.7c0.1,0,0.1,0.1,0.1,0.1c0.1,0.2,0.2,0.3,0.3,0.5l0.1,0.1
		c0.1,0.2,0.3,0.3,0.4,0.5l0,0c0.2,0.2,0.3,0.4,0.5,0.5l0.1,0.1c0.2,0.1,0.3,0.2,0.5,0.3c0.1,0,0.1,0.1,0.2,0.1
		c0.2,0.1,0.4,0.1,0.6,0.2l0,0c0.2,0,0.4,0.1,0.7,0.1c0.1,0,0.1,0,0.2,0c0.2,0,0.4,0,0.6,0c0,0,0.1,0,0.2,0c0.3,0,0.6,0,0.9-0.1l0,0
		c0.3,0,0.7-0.1,1-0.2c0.1,0,0.2-0.1,0.3-0.1c0.2-0.1,0.5-0.2,0.8-0.3c0.1,0,0.2-0.1,0.3-0.1c0.4-0.1,0.8-0.3,1.2-0.5l0,0l0.2-3l0,0
		c0,0,0.1,0.1,0.1,0.2c0,0.1,0.1,0.1,0.1,0.2c0.1,0.1,0.1,0.2,0.2,0.3c0,0.1,0.1,0.1,0.1,0.2c0.1,0.1,0.1,0.2,0.2,0.3
		c0,0.1,0.1,0.1,0.1,0.2c3.3,4.7,10.9,13.2,16.9,1.9l2.2-1c5.1,4,15.8,9.9,13.6-11c1.8,0.2,4,0,6.9-0.5l0,0c0.5-0.1,1.1-0.2,1.7-0.3
		l0.1,0c0.6-0.2,1.2-0.3,1.8-0.4c0.1,0,0.3-0.1,0.4-0.1c0.6-0.1,1.3-0.2,1.9-0.4l0,0c1.3-0.3,2.4-0.8,3.5-1.3
		c1.3,24.7,2.4,50.2,2.9,73.7c0,10.2,0,19.6,0.2,28l0,0.1c0,21.1,1.1,30.5,3,32.6c5,34,5.8,133.7,5.9,193.5
		c-19.1,2.4-30.9,4.5-30.9,4.5c-49.6,13.2-88,41.8-107.6,111.7C-1.4,1397.7,257,1399.8,287.3,1399.7z M142,842.8
		c-5-8.6-10.1-15-10.1-15l-0.1,0c-0.1-1.9-0.3-5.2-0.6-9.6c2.8,0.7,5.8,1.4,9.2,2.2C141,827.4,141.5,834.9,142,842.8z M260.5,850.1
		c0.1-13.5,0.3-26.2,0.6-37.8c7.6-3.2,14.5-7.1,20.5-11.3c0,9.2-0.1,16.3-0.1,20.5l-0.2,0C270.3,833.1,265.6,838.5,260.5,850.1z
		 M235.2,1205.5c-17.4,0.6-33.8,1.7-48.3,3c-2.5-40.1-4.9-96-3.8-140.2c0.3-11.3,0.5-25.3,0.8-41c9.2-3.5,6.6-14.5,0.3-16.9
		c0.9-59.1,1.8-135.5,3.6-186.1c5.7,0.1,11.9-0.1,18.5-0.4c2.6-0.1,5.2-0.3,7.7-0.5c6.2,69.7,13.1,188.9,17.5,243.6
		C234.9,1110.4,235.4,1165.4,235.2,1205.5z"/>
	<g>
		<g>
			<g id="XMLID_4075_">
				<path id="XMLID_4076_" class="st1" d="M329.8,598.2c17.2-5.6,18.1,20.6,2.8,16.8"/>
			</g>
			<path id="XMLID_4074_" class="st1" d="M303.2,352.3c-1,68-6.6,184.5-0.9,215.8c8,43.7,6.6,252.6,6.6,252.6l33.9,2
				c0,0-9.5-118.1-7.5-198.7c1.1-44.4,1.7-130.1,3.2-199.8"/>
			<g id="XMLID_4072_">
				<path id="XMLID_4073_" class="st1" d="M339.7,816.5c6.5-2.5,8.8,24,8.8,24s5.9,84.4-2.1,48.7c-8-35.8-11.3-32-6.9,11
					c4.4,43-16-43.6-18.3-29.8c-2.2,13.8-8.8,102.1-11.7-8c0,0,6.9-51.3-12,29.4s3.2-50.5,4.6-57.2c1.4-6.7-24.7,39.8-17.7,20.7
					c7-19.1,11-23.9,24.5-38.8"/>
			</g>
			<path id="XMLID_4071_" class="st1" d="M316.2,601.9c0.4-1.2,5.9-2.6,5.9-2.6"/>
			<path id="XMLID_4070_" class="st1" d="M328.7,609.7c-0.9,3.5-5.4,2.8-5.4,2.8"/>
			<path id="XMLID_4069_" class="st2" d="M335.3,812.2c27.2-2.1-0.5-19.7-0.5-19.7"/>
		</g>
		<path id="XMLID_4068_" class="st3" d="M292.3,351.4c18.3,4.3,33.8,9.5,37.8,15.1c11.5,16,29.6,195.2,2.3,196.9
			c-27.4,1.7-31.2,0.6-30.8-9.1c0.3-9.8-15.2-122.2-11-130.9"/>
		<g>
			<path class="st1" d="M249.9,1307.6c0,2.5,0.7,4.7,2.9,6.7c0.5,0.5,1.1,1,1.8,1.5c2.3,1.6,6.2,2.7,10.9,3.6
				c3.6,0.6,7.7,1,12.3,1.3c2.9,0.2,5.9,0.3,9.1,0.4c2.4,0.1,4.9,0.1,7.4,0.1c2.5-0.2,5-0.3,7.4-0.5c3.2-0.3,6.2-0.6,9.1-0.8
				c4.6-0.4,8.7-1.1,12.3-1.9c4.7-1,8.4-2.4,10.7-4.2c0.7-0.5,1.3-1,1.8-1.5c1.6-1.6,2.3-3.4,2.5-5.2c-17.9-6.9-33.1-19.2-37.5-40.6
				c-2.2-1.9-3.5-3.1-3.5-3.1s-0.4-0.6-1.1-1.4c-0.1-0.2-0.3-0.4-0.5-0.6c0-0.1-0.1-0.3-0.1-0.4c-0.3-1-0.6-2.6-0.8-4.8l-1.7-0.1
				l-1.7,0.1l-30.4,3.5c0,7.8,0,12.7,0.1,13.8c0,0.1,0,0.2,0,0.2s0.1,0,0.3,0c-1.5,6.7-3.5,12.3-5.4,17c-2,5.1-3.9,9.2-4.9,12.7
				C250.3,1305,250.1,1306.4,249.9,1307.6z"/>
			<path class="st1" d="M234.2,763.3c7.2,11,18.8,226.3,25,306.6s2.9,198.8,2.9,198.8l33.7-3.8c0,0-11.6-196.6-7.1-248.3
				c1.7-2.2,2.4-12.1,1.2-33.8l0-0.1c-0.2-8.7-0.7-18.5-1.3-29c-2.8-89.3,1.4-205,1.4-205"/>
			<g>
				<g id="XMLID_4066_">
					<path id="XMLID_4067_" class="st1" d="M358,1318.7c-4.7-9.7,7.5-8.8,7.5-8.8C375.8,1316.3,362.6,1328.2,358,1318.7z"/>
				</g>
				<g id="XMLID_4064_">
					<path id="XMLID_4065_" class="st1" d="M350.1,1318.4c-5.1-10.7,8.3-9.7,8.3-9.7C369.9,1315.9,355.3,1329.1,350.1,1318.4z"/>
				</g>
				<g id="XMLID_4062_">
					<path id="XMLID_4063_" class="st1" d="M340.2,1318c-5.9-12.4,9.7-11.4,9.7-11.4C363.2,1315.1,346.2,1330.4,340.2,1318z"/>
				</g>
				<g id="XMLID_4060_">
					<path id="XMLID_4061_" class="st1" d="M328,1317.6c-6.9-14.2,11.1-13,11.1-13C354.3,1314.3,334.7,1331.8,328,1317.6z"/>
				</g>
				<path id="XMLID_4059_" class="st1" d="M301.2,1317.6c1.2-5.9,18.3-20.5,28.4-6.9c10.2,13.5-11.1,12.7-11.1,12.7
					S299.9,1323.6,301.2,1317.6z"/>
			</g>
			<path id="XMLID_4058_" class="st1" d="M264,1003.8c-0.1-3.7,4.5-4.1,4.5-4.1"/>
			<path id="XMLID_4057_" class="st1" d="M282.2,1029.6c-0.3,1.3-5.6,3.1-5.6,3.1"/>
			<g id="XMLID_4055_">
				<path id="XMLID_4056_" class="st1" d="M294.5,1256.1c18,1.7,8.4,26.2-4.1,16.5"/>
			</g>
			<g id="XMLID_4053_">
				<path id="XMLID_4054_" class="st1" d="M282.6,1006.5c17.2-5.6,18.1,20.6,2.8,16.8"/>
			</g>
		</g>
		<path class="st1" d="M120.1,766.7c0,0,0.2,0,0.5,0c1.3,8.3,4.3,16.9,9.5,25.9c0,0,3.5,30.4,103.6,26.2
			c61.4-2.6,99.4-33.6,104.7-67.9l0.1-0.1c0.1-0.3,0.2-1,0.3-1.7c0.2-2.1,0.3-4.2,0.3-6.3c0.9-22.4,0.5-81.3,0.5-81.3l-221.8,14.1
			C114.5,693.4,120.1,766.7,120.1,766.7z"/>
		<g>
			<path class="st3" d="M137.2,728.7c4.7-1.2,10.3-2.5,16.8-3.5L308,713c8-0.3,18.9,2,18.9,2c8.7,4.5,14.2,2.5,17.2-3.2
				c0.2-0.2,0.3-0.4,0.4-0.6c7.9-16.1-1.1-58.8-7.9-75.5c-0.4-1.1-0.9-2.5-1.3-4.1c-8.4-31.1-11.4-148.6-10.5-221.1
				c0.1-7.8-0.2-14.7-0.6-20.8c-4.1-53.5-59-52.7-94.5-53.2c-37.6-0.6-64.9,7.6-78,19.1c-6.9,2.3-17.4,6.6-25.7,13.2
				c-6,4.8-10.8,10.9-12.2,18.3c-0.2,0.9-0.3,1.7-0.3,2.6c-2.2,26.5-3.9,187.6-6.4,202.2c-0.4,2.9-1.8,11.9-3.2,23.9
				c-0.2,1.5-0.3,3-0.5,4.5C98.1,670.4,93.6,762.9,137.2,728.7z"/>
			<path class="st3" d="M326.9,715.1c8.7,4.5,14.2,2.5,17.2-3.2c0.2-0.2,0.3-0.4,0.4-0.6c7.9-16.1-1.1-58.8-7.9-75.5
				c-0.4-1.1-0.9-2.5-1.3-4.1c-8.4-31.1-11.4-148.6-10.5-221.1c0.1-1.8,0.1-3.5,0.1-5.2"/>
			<path class="st3" d="M322.3,377.9c-11-41.4-59.9-40.7-92.6-41.3c-37.6-0.6-64.9,7.6-78,19.1c-6.9,2.3-17.4,6.6-25.7,13.2
				c-6,4.8-10.8,10.9-12.2,18.3c-0.2,0.9-0.3,1.7-0.3,2.6c-2.2,26.5-3.9,187.6-6.4,202.2c-0.4,2.9-1.8,11.9-3.2,23.9
				c-0.2,1.5-0.3,3-0.5,4.5c-5.3,49.9-9.8,142.4,33.9,108.2c4.7-1.2,10.3-2.5,16.8-3.5l154-12.1"/>
		</g>
		<path id="XMLID_4052_" class="st1" d="M126.3,719.2c6.5-27.7-15.8-214.3-15.8-214.3"/>
		<g>
			<path id="XMLID_4051_" class="st4" d="M193.4,353.1c20.1,42,67.8,14.8,67.1-17.8c-0.2-5.8-0.6-28.3-0.6-35
				c0-5.2,0.1-35.4-7.3-50.8c-23.7-49.4-85.5-3.1-61.7,35.2c-1.2,4.2-1.9,9.3-2.1,15.2c-0.2,6.5-2,26.4-1.4,33.2"/>
			<path id="XMLID_4050_" class="st5" d="M196.8,359.3c-1.2-1.8-2.4-3.8-3.5-6.1l-6.1-19.9c-0.7-7,1.2-26.8,1.4-33.2
				c0.2-5.9,0.9-10.9,2.1-15.2c-23.8-38.3,37.9-84.6,61.7-35.2c7.4,15.4,7.3,45.6,7.3,50.8c0.1,6.7,0.5,29.2,0.6,35
				c0.6,27.5-33.4,51.2-56.1,32.5"/>
		</g>
		<g>
			<path class="st1" d="M219.5,763.6c-6.6,11.4-7,227-9,307.5c-2,80.6,7.5,198.7,7.5,198.7l-33.9-2c0,0,1.3-196.9-5.9-248.3
				c-1.9-2.2-3-11.9-3-33.7l0-0.1c-0.2-8.7-0.3-18.5-0.3-29c-1.8-89.3-12.2-204.7-12.2-204.7"/>
			<path id="XMLID_4049_" class="st1" d="M193.3,1003.4c-3.2-1.7-5.6,2.2-5.6,2.2"/>
			<path id="XMLID_4048_" class="st1" d="M196.3,1032.8c0.3,1.3,5.8,2.8,5.8,2.8"/>
			<g id="XMLID_4046_">
				<path id="XMLID_4047_" class="st1" d="M185.6,1277.7c-18-1.7-8.4-26.2,4.1-16.5"/>
			</g>
			<g id="XMLID_4044_">
				<path id="XMLID_4045_" class="st1" d="M207.9,1029.7c17.8-2.7,7-26.6-4.9-16.3"/>
			</g>
			<g>
				<path class="st1" d="M173.6,1315.4c0,2.5,0.7,4.7,2.9,6.7c0.5,0.5,1.1,1,1.8,1.5c2.3,1.6,6.2,2.7,10.9,3.6
					c3.6,0.6,7.7,1,12.3,1.3c2.9,0.2,5.9,0.3,9.1,0.4c2.4,0.1,4.9,0.1,7.4,0.1c2.5-0.2,5-0.3,7.4-0.5c3.2-0.3,6.2-0.6,9.1-0.8
					c4.6-0.4,8.7-1.1,12.3-1.9c4.7-1,8.4-2.4,10.7-4.2c0.7-0.5,1.3-1,1.8-1.5c1.6-1.6,2.3-3.4,2.5-5.2
					c-17.9-6.9-33.1-19.2-37.5-40.6c-2.2-1.9-3.5-3.1-3.5-3.1s-0.4-0.6-1.1-1.4c-0.1-0.2-0.3-0.4-0.5-0.6c0-0.1-0.1-0.3-0.1-0.4
					c-0.3-1-0.6-2.6-0.8-4.8l-1.7-0.1l-1.7,0.1l-30.4,3.5c0,7.8,0,12.7,0.1,13.8c0,0.1,0,0.2,0,0.2s0.1,0,0.3,0
					c-1.5,6.7-3.5,12.3-5.4,17c-2,5.1-3.9,9.2-4.9,12.7C174,1312.8,173.7,1314.1,173.6,1315.4z"/>
				<g>
					<g id="XMLID_4042_">
						<path id="XMLID_4043_" class="st1" d="M281.7,1326.4c-4.7-9.7,7.5-8.8,7.5-8.8C299.4,1324.1,286.2,1336,281.7,1326.4z"/>
					</g>
					<g id="XMLID_4040_">
						<path id="XMLID_4041_" class="st1" d="M273.8,1326.2c-5.1-10.7,8.3-9.7,8.3-9.7C293.6,1323.7,279,1336.9,273.8,1326.2z"/>
					</g>
					<g id="XMLID_4038_">
						<path id="XMLID_4039_" class="st1" d="M263.9,1325.8c-5.9-12.4,9.7-11.4,9.7-11.4C286.9,1322.9,269.9,1338.2,263.9,1325.8z"/>
					</g>
					<g id="XMLID_4036_">
						<path id="XMLID_4037_" class="st1" d="M251.7,1325.4c-6.9-14.2,11.1-13,11.1-13C278,1322,258.4,1339.6,251.7,1325.4z"/>
					</g>
					<path id="XMLID_4035_" class="st1" d="M224.8,1325.4c1.2-5.9,18.3-20.5,28.4-6.9c10.2,13.5-11.1,12.7-11.1,12.7
						S223.6,1331.3,224.8,1325.4z"/>
				</g>
			</g>
		</g>
		<g>
			<g id="XMLID_4033_">
				<path id="XMLID_4034_" class="st1" d="M125.3,621c-18-1.7-8.4-26.2,4.1-16.5"/>
			</g>
			<path id="XMLID_4032_" class="st1" d="M143.9,401.7c5.2,65.5,12.1,145,8.8,170.3c-5.7,44.1,6.6,252.6,6.6,252.6l-33.7,3.8
				c0,0,3.3-118.4-2.9-198.8c-2.8-36.7-6.8-101.9-11-162.7"/>
			<path id="XMLID_4031_" class="st1" d="M131,608.9c-0.1-3.7,4.5-4.1,4.5-4.1"/>
			<path id="XMLID_4030_" class="st1" d="M142.8,614.5c-0.3,1.3-5.6,3.1-5.6,3.1"/>
			<g id="XMLID_4017_">
				<path id="XMLID_4029_" class="st4" d="M159.4,822.8l-32.7-6.6c0,0-40.9,71-26.3,70.9c7.8-0.1,10.6-2.1,11.7-4.1
					c-0.8,6.6-1.1,18.7,9.9,12.7l0.2-3.1c2.5,4.1,11.2,16.3,17.8,3.4l2.2-1.1c5.1,4.2,15.8,10.3,13.6-11.3c2.8,0.2,6.9-0.2,12.7-1.8
					C197.9,873.7,159.4,822.8,159.4,822.8z"/>
				<path id="XMLID_4028_" class="st1" d="M126.7,816.2c0,0-40.9,71-26.3,70.9c7.8-0.1,10.6-2.1,11.7-4.1
					c-0.8,6.6-1.1,18.7,9.9,12.7l0.2-3.1c2.5,4.1,11.2,16.3,17.8,3.4l2.2-1.1c5.1,4.2,15.8,10.3,13.6-11.3c2.8,0.2,6.9-0.2,12.7-1.8
					c29.4-8.3-9.1-59.1-9.1-59.1"/>
				<g id="XMLID_4021_">
					<g id="XMLID_4023_">
						<path id="XMLID_4027_" class="st2" d="M122.1,895.7c-14.8,8.1-9.3-16.6-9.3-16.6c-0.4,0.6,2.3,7.8-12.3,7.9
							c-14.7,0.1,26.3-70.9,26.3-70.9"/>
						<path id="XMLID_4026_" class="st2" d="M140.6,895.3c-7.9,16.8-18.9-3.8-18.9-3.8"/>
						<path id="XMLID_4025_" class="st2" d="M161.8,869.7c-8.5-0.6-22.7,20.5,6.7,12.2s-9.1-59.1-9.1-59.1"/>
						<path id="XMLID_4024_" class="st2" d="M154.2,865.5l1.4,15.9c4.1,31.6-16,11.3-16,11.3"/>
					</g>
					<path id="XMLID_4022_" class="st2" d="M131.4,792.3c-20,2,0.6,21.8,0.6,21.8"/>
				</g>
				<path id="XMLID_4020_" class="st1" d="M140.1,879.7c1.6-5.3,0.4-15,0.4-15"/>
				<path id="XMLID_4019_" class="st1" d="M123.6,883.9c1.4-0.1,1.5-7.1,1.5-7.1"/>
				<path id="XMLID_4018_" class="st2" d="M115.8,862.8c0,0,5.6-9.5,6.8-14.1"/>
			</g>
		</g>
		<path id="XMLID_4016_" class="st3" d="M154.7,360.9c-18.1,5.3-33.2,11.3-37,17.1c-10.7,16.6-19.4,196.4,8.1,196.8
			c27.4,0.3,31.2-1,30.3-10.7c-0.9-9.8,8.8-122.9,4.2-131.3"/>
		<g>
			<path class="st6" d="M170.5,435c1,13.8,8.4,14.2,24.5,11.7c16.2-2.5,6.5-32.9,4.5-42.3c-2.1-9.4-29.3,1.5-29.3,1.5
				S169.6,421.2,170.5,435z"/>
			<g>
				<path id="XMLID_4015_" class="st1" d="M169.9,412.3c-2-2.9,1.4-5.8,1.4-5.8"/>
				<path id="XMLID_4014_" class="st1" d="M202.8,409.1c-1.6-2.3-6.6-4.5-6.6-4.5"/>
				<path id="XMLID_4013_" class="st1" d="M170.3,420.6c-0.8,2.7,0.8,8,0.8,8"/>
				<path id="XMLID_4012_" class="st1" d="M190.8,446.6c2.8,0.5,7.9-1.7,7.9-1.7"/>
				<path id="XMLID_4011_" class="st1" d="M180.1,444.1c-3.4,1.4-5.4-2.7-5.4-2.7"/>
				<path id="XMLID_4010_" class="st1" d="M204.1,423.8c-1-1.2-2-4.8-2-4.8"/>
				<line id="XMLID_4009_" class="st5" x1="187.5" y1="403.5" x2="182.1" y2="403.8"/>
				<path id="XMLID_4008_" class="st1" d="M204.7,441.1c0.9-2.6-0.4-8-0.4-8"/>
			</g>
			<g>
				<path id="XMLID_4007_" class="st1" d="M274.2,770.7c2.6,3.3-0.6,9.2-0.6,9.2"/>
				<path id="XMLID_4006_" class="st1" d="M270,762c-0.7-2.8-4.7-6.6-4.7-6.6"/>
				<path id="XMLID_4005_" class="st1" d="M265,796.8c2.1-1.9,3.5-7.2,3.5-7.2"/>
			</g>
		</g>
		<g id="XMLID_3715_">
			<g id="XMLID_4001_">
				<path id="XMLID_4004_" class="st1" d="M298.9,212.2c0,0,0.5,10.8,13.5,15.4c13,4.6,21.9-34.7,20.1-70.8s-35.6,11.1-35.6,11.1"/>
				<path id="XMLID_4003_" class="st1" d="M325.2,158.3c-3.7-9.9-16.8,11.6-16.8,11.6"/>
				<path id="XMLID_4002_" class="st1" d="M307.6,197.7c3.8,12.8,10.8,4.8,13.4-6.9c2.6-11.8-17.4-5.9-17.4-5.9"/>
			</g>
			<path id="XMLID_4000_" class="st7" d="M184.9,24.7c16.2-5.7,2.8-16.9,2.8-16.9C173.2,2.3,168.7,30.4,184.9,24.7z"/>
			<path id="XMLID_3999_" class="st1" d="M299.8,260c-5.6,33.2-36.9,77.3-96.4,66.2c-59.5-11-56.3-33.9-74.1-157.3
				s86.8-133.7,86.8-133.7C348,48,305.4,226.8,299.8,260z"/>
			<path class="st0" d="M129.3,169c17.9,123.4,14.5,146.2,74,157.2c42.1,7.8,70-12,84.8-36c-15.3,10.3-35.6,15.6-61,10.9
				c-59.5-10.9-56.1-33.8-74-157.2c-5.9-40.9,1.6-69.3,14.3-89.1C142.9,72.5,120.2,106,129.3,169z"/>
			<path id="XMLID_3998_" class="st3" d="M132.4,102.2c0,0,36.5-18.6,75.3-35.4c31.1,6.9,65.1,8.9,65,6.3
				c-0.9-27-10.4-98.1-84.7-62.3c-17.4,5.9-36.3,17-47.5,35.7c-1,1.5-1.7,2.9-2.5,4.4l0,0c0,0-0.1,0-0.1,0.1
				c-3.4,6.7-5.1,11.9-5.4,16C129.2,79.3,132.4,102.2,132.4,102.2z"/>
			<path id="XMLID_3997_" class="st1" d="M187.9,183.5c24.4,8,42.7-6.5,42.7-6.5"/>
			<path id="XMLID_3996_" class="st1" d="M313.2,179.1c-6.3,3-36.7-2.7-36.7-2.7"/>
			<path id="XMLID_3995_" class="st1" d="M209.1,320.5c-4.8,9.8,12.2,16.2,37.9,10.4c25.7-5.8,13-16.9,13-16.9"/>
			<path id="XMLID_3994_" class="st3" d="M318.6,68.3c0,0,11.8-17.9-34.4-19.7C238,46.9,146.7,49.6,133,102c0,0,24.2-11.6,71.1-23.2
				s87.4,3.7,87.4,3.7C311.9,77,318.6,68.3,318.6,68.3z"/>
			<path id="XMLID_3993_" class="st1" d="M133,102c0,0,17-47.7,127.2-45.6c110.3,2,31.3,26.2,31.3,26.2C233.7,55.3,133,102,133,102z
				"/>
			<g>
				<path id="XMLID_3992_" class="st1" d="M255,148.9c0.9,13.1-17.3,37.1-17.3,37.1"/>
				<g id="XMLID_3989_">
					<path id="XMLID_3991_" class="st1" d="M255.3,198.1c0.8,0.4,1.8,0.9,3.1,1.1c1.5,0.4,3.5,0.4,5.7,0c4-0.9,5.9-5.3,6.4-11.5"/>
					<path id="XMLID_3990_" class="st1" d="M268.4,178.7c-4.8-27.1-20.2-65.2-20.2-65.2"/>
				</g>
				<g id="XMLID_3983_">
					<path id="XMLID_3988_" class="st1" d="M269.5,211.8c22.3-5.2,8-21,8-21"/>
					<path id="XMLID_3987_" class="st1" d="M245.7,212.4c-21.1-7.9-6.6-20.6-6.6-20.6"/>
					<path id="XMLID_3986_" class="st1" d="M246.2,205.3c-3.1-0.7-5.8,0.5-3.5-3.4s5.5,0.5,7.6-0.2
						C252.4,200.9,249.3,206,246.2,205.3z"/>
					<path id="XMLID_3985_" class="st1" d="M269.1,203.1c2.3-1.4,4.6-2.5,5.5-1.9c2.2,1.7,1.3,5.2-2.9,5.5
						C271.7,206.6,267.3,204.2,269.1,203.1z"/>
					<path id="XMLID_3984_" class="st1" d="M250.6,184.4c1-1.5,5.4-1.5,5.4-1.5"/>
				</g>
				<path id="XMLID_3982_" class="st1" d="M301.8,207.5c-3.5-1.2-15.9-7-15.9-7"/>
				<path id="XMLID_3981_" class="st1" d="M215,205.8c1.4,0.1,15.4-7.1,15.4-7.1"/>
			</g>
			<path id="XMLID_3980_" class="st1" d="M169.7,145.4c-3.2-1.7-1.4-6-1.4-6"/>
			<path id="XMLID_3979_" class="st1" d="M182.7,186.2c-1.1-1.3-2.1-4.9-2.1-4.9"/>
			<path id="XMLID_3978_" class="st1" d="M177.3,101.2c-1.6,0,0.2,7,0.2,7"/>
			<path id="XMLID_3977_" class="st1" d="M273.2,84c-0.7-1.1,5.8-2.2,5.8-2.2"/>
			<path id="XMLID_3976_" class="st1" d="M230.6,92.9c0.5,1.5,8.3,2.4,8.3,2.4"/>
			<path id="XMLID_3975_" class="st1" d="M275.4,285.4c0.4-1.2,5.9-2.6,5.9-2.6"/>
			<path id="XMLID_3974_" class="st1" d="M241.5,291.1c-1.6-2.4-6.7-4.6-6.7-4.6"/>
			<path id="XMLID_3973_" class="st1" d="M283.5,161.9"/>
			<path id="XMLID_3972_" class="st1" d="M247,167.1"/>
			<line id="XMLID_3971_" class="st5" x1="190.3" y1="208" x2="195.7" y2="209.3"/>
			<path id="XMLID_3970_" class="st1" d="M148.4,229.2c0,0,1,10.7-11.3,17s-26.4-31.4-29.6-67.4s36.9,6.1,36.9,6.1"/>
			<path id="XMLID_3969_" class="st1" d="M115.1,179.5c2.3-10.4,18.2,9.2,18.2,9.2"/>
			<path id="XMLID_3968_" class="st1" d="M138,215.9c-2.1,13.2-10,6.3-14.2-4.9c-4.2-11.2,16.4-8.2,16.4-8.2"/>
			<g>
				<path id="XMLID_3967_" class="st8" d="M262.6,149.6c-27.4-56.9,44.3-51.9,44.3-51.9C367.9,136.3,290,206.5,262.6,149.6z"/>
				<path id="XMLID_3966_" class="st7" d="M295,134.6c-1.5-11.1,9.3-7,9.3-7C312,136.9,296.5,145.6,295,134.6z"/>
				<path id="XMLID_3965_" class="st8" d="M216.3,175.4c64.8-22.8,11.1-67.6,11.1-67.6C169.8,85.8,151.5,198.2,216.3,175.4z"/>
				<path id="XMLID_3964_" class="st7" d="M182.5,144c-1.5-11.1,9.3-7,9.3-7C199.5,146.3,184,155.1,182.5,144z"/>
				<path id="XMLID_3963_" class="st7" d="M181.7,114.1c-1.6,6,32,21.6,48.7,4.1S223,98.6,223,98.6
					C186.2,97.8,183.4,108.1,181.7,114.1z"/>
				<path id="XMLID_3962_" class="st7" d="M263,96.7c2.6,8.7,33.8,29.1,50.4,8s-20.5-18.1-20.5-18.1S260.4,87.9,263,96.7z"/>
				<g id="XMLID_3957_">
					<path id="XMLID_3959_" class="st1" d="M196,177.7c1.3,0.5,2.7,0.6,4.2,0.7c12.9,0.5,33.6-11.3,33.6-11.3
						c-14.3-3.3-38.3-1.1-38.3-1.1l-11.3,1.1c0,0-10.3,1.7-5.6,6.4c2,1.9,3.7,1.7,5.5,1.2c0.5-0.1,0.9-0.3,1.4-0.4
						C187.7,173.6,195.1,177.2,196,177.7z"/>
					<path id="XMLID_3958_" class="st1" d="M312.2,159.2c0,0,10.3,1.1,6,6.1c-4.4,4.9-6.2,0.4-14.3,3.1c-24.9,8.4-33-8.2-33-8.2
						c15.6-5.3,29.7-3,29.7-3L312.2,159.2z"/>
				</g>
			</g>
			<g id="XMLID_3952_">
				<path id="XMLID_3956_" class="st7" d="M303.5,258.2c21-14.5-17.5-18.4-17.5-18.4S282.5,272.6,303.5,258.2z"/>
				<path id="XMLID_3955_" class="st7" d="M265.9,236.3c2.3,6.9,28.7,23.1,43,6.3c14.2-16.8-17.5-14.2-17.5-14.2
					S263.7,229.3,265.9,236.3z"/>
				<path id="XMLID_3954_" class="st7" d="M210.7,263.5c1.7,5.6,28.6,8.3,30.7-11.4c2.1-19.7-13.2-14.1-13.2-14.1
					C206.2,248.6,209,258,210.7,263.5z"/>
				<path id="XMLID_3953_" class="st7" d="M242.4,248.5c43.8-22.8-1-16-1-16C190.2,240.6,198.5,271.2,242.4,248.5z"/>
			</g>
			<g id="XMLID_3716_">
				<path id="XMLID_3951_" class="st1" d="M245.7,259.6c13.6,23,36.6-1,36.6-1"/>
				<path id="XMLID_3718_" class="st1" d="M265.4,255.4c4.6-7,11.3-0.3,11.3-0.3"/>
				<path id="XMLID_3717_" class="st1" d="M265.4,255.4c-5-6.8-11.3,0.3-11.3,0.3"/>
			</g>
		</g>
		<path id="XMLID_3714_" class="st1" d="M194.4,369.6c1.6,2.5,3.3,3.7,5,4.3"/>
		<path id="XMLID_3713_" class="st1" d="M260.5,362.6c1.4-2,1.9-4.4,1.9-4.4"/>
		<path id="XMLID_3712_" class="st1" d="M247,378.5c0.7-0.2,1.3-0.5,1.8-0.8"/>
		<path id="XMLID_3695_" class="st3" d="M307.8,447.1c-8.2,27.2,2.2,214.8,2.2,214.8"/>
	</g>
</g>
</svg>
