<?xml version="1.0" encoding="utf-8"?>
<!-- Generator: Adobe Illustrator 22.1.0, SVG Export Plug-In . SVG Version: 6.00 Build 0)  -->
<svg version="1.1" id="Layer_1" xmlns="http://www.w3.org/2000/svg" xmlns:xlink="http://www.w3.org/1999/xlink" x="0px" y="0px"
	 viewBox="0 0 464.1 1401.5" style="enable-background:new 0 0 464.1 1401.5;" xml:space="preserve">
<style type="text/css">
	.st0{opacity:0.1;fill:#231F20;stroke:#231F20;stroke-miterlimit:10;enable-background:new    ;}
	.st1{fill:#A36B78;stroke:#584C4F;stroke-width:2;stroke-linecap:round;stroke-miterlimit:10;}
	.st2{fill:#A36B78;stroke:#584C4F;stroke-width:2;stroke-linecap:round;stroke-linejoin:round;stroke-miterlimit:10;}
	.st3{fill:#FFD767;stroke:#584C4F;stroke-width:2;stroke-miterlimit:10;}
	.st4{fill:#A36B78;}
	.st5{fill:none;stroke:#584C4F;stroke-width:2;stroke-linecap:round;stroke-miterlimit:10;}
	.st6{fill:#BEAB72;}
	.st7{fill:#584C4F;stroke:#584C4F;stroke-width:2;stroke-linecap:round;stroke-miterlimit:10;}
	.st8{fill:#FFFFFF;stroke:#584C4F;stroke-width:2;stroke-linecap:round;stroke-miterlimit:10;}
</style>
<g id="Layer_5">
</g>
<g id="Layer_3">
</g>
<g>
	<path class="st0" d="M457,1324c-20.8-69.5-59.8-97.4-109.5-109.8c0,0-11.8-1.9-31-4c-1-59.8-1.9-159.5,2.5-193.6
		c1.8-2.2,2.8-11.6,2.4-32.7l0-0.1c0.1-8.4,0-17.8-0.3-28c0.1-23.6,0.7-49.1,1.6-73.8c1.1,0.5,2.2,0.9,3.5,1.2l0,0
		c0.6,0.2,1.3,0.3,1.9,0.4c0.1,0,0.3,0.1,0.4,0.1c0.6,0.1,1.2,0.2,1.8,0.4l0.1,0c0.6,0.1,1.2,0.2,1.7,0.3l0,0
		c2.9,0.4,5.1,0.5,6.9,0.4c-1.8,20.9,8.8,14.8,13.8,10.7l2.2,0.9c6.1,11.3,13.6,2.6,16.8-2.2c0-0.1,0.1-0.1,0.1-0.2
		c0.1-0.1,0.1-0.2,0.2-0.3c0-0.1,0.1-0.1,0.1-0.2c0.1-0.1,0.1-0.2,0.2-0.3c0-0.1,0.1-0.1,0.1-0.2c0-0.1,0.1-0.2,0.1-0.2l0,0l0.3,3
		l0,0c0.4,0.2,0.8,0.4,1.2,0.5c0.1,0,0.2,0.1,0.3,0.1c0.3,0.1,0.6,0.2,0.8,0.3c0.1,0,0.2,0.1,0.3,0.1c0.3,0.1,0.7,0.2,1,0.2l0,0
		c0.3,0.1,0.6,0.1,0.9,0.1c0.1,0,0.2,0,0.2,0c0.2,0,0.4,0,0.6,0c0.1,0,0.1,0,0.2,0c0.3,0,0.5-0.1,0.7-0.1l0,0
		c0.2-0.1,0.4-0.1,0.6-0.2c0.1,0,0.1-0.1,0.2-0.1c0.2-0.1,0.3-0.2,0.5-0.3l0.1-0.1c0.2-0.1,0.3-0.3,0.5-0.5l0,0
		c0.1-0.2,0.3-0.3,0.4-0.5l0.1-0.1c0.1-0.2,0.2-0.3,0.3-0.5c0,0,0-0.1,0.1-0.1c0.1-0.2,0.2-0.4,0.3-0.7c0,0,0,0,0-0.1
		c0.1-0.2,0.1-0.4,0.2-0.7c0-0.1,0-0.1,0.1-0.2c0.1-0.2,0.1-0.4,0.1-0.6c0-0.1,0-0.1,0-0.2c0-0.3,0.1-0.5,0.1-0.8c0-0.1,0-0.1,0-0.2
		c0-0.2,0-0.5,0.1-0.7c0-0.1,0-0.2,0-0.3c0-0.2,0-0.4,0-0.6c0-0.1,0-0.2,0-0.3c0-0.3,0-0.5,0-0.8c0-0.1,0-0.2,0-0.3
		c0-0.2,0-0.4,0-0.5s0-0.3,0-0.4c0-0.1,0-0.3,0-0.4c0-0.1,0-0.3,0-0.4c0-0.2,0-0.3,0-0.5s0-0.5-0.1-0.7c0-0.1,0-0.2,0-0.2
		c0-0.2,0-0.4-0.1-0.5l0-0.1c-0.1-0.4-0.1-0.8-0.2-1.1c0.5,0.8,1.3,1.6,2.7,2.3l0,0c0.2,0.1,0.4,0.2,0.6,0.2l0.1,0
		c0.2,0.1,0.4,0.1,0.6,0.2c0.1,0,0.1,0,0.2,0.1c0.2,0.1,0.4,0.1,0.6,0.2c0.1,0,0.2,0,0.3,0.1c0.2,0,0.4,0.1,0.6,0.1
		c0.1,0,0.2,0,0.3,0.1c0.2,0,0.4,0.1,0.6,0.1c0.1,0,0.3,0,0.4,0.1c0.2,0,0.4,0,0.6,0.1c0.2,0,0.3,0,0.5,0c0.2,0,0.4,0,0.6,0
		c0.2,0,0.3,0,0.5,0c0.2,0,0.5,0,0.7,0c0.2,0,0.4,0,0.5,0c0.3,0,0.6,0,0.9,0c0.1,0,0.3,0,0.4,0c11.9-0.1-13.7-45.1-23.8-61.9
		c-1.3-2.1-2.3-3.8-3-4.9c-0.1-2.8-0.2-6.2-0.4-10c3.3-4.8,5.7-10.8-0.5-13.3c-0.1-2.5-0.2-5-0.2-7.7c2.9-6.3,4.7-12.5,5.6-18.4
		c0.3,0,0.5,0,0.5,0s0.8-13.4,1.5-30c22.7-5.2,17.7-72.4,12.7-111.9c-0.2-1.5-0.4-2.9-0.6-4.4c-1.6-11.6-3.1-20.3-3.6-23.1
		c-1.1-5.2-2.2-29.3-3.6-59c3.5-40.8-0.5-100.3-5.9-130.4c-0.2-2.5-0.4-4.6-0.5-6.2c-0.1-0.8-0.2-1.7-0.4-2.5
		c-1.5-7.2-6.5-13-12.5-17.5c-8.3-6.3-18.9-10.2-25.9-12.3c-7.8-6.5-20.8-11.8-37.8-14.7l2-6.4c0.1-2.3,0.1-6.2-0.3-10.4
		c10.4-3.2,18.3-7.3,24.3-13.4c1.5-1.5,2.9-3.1,4.2-4.9c0.4-0.5,0.7-1,1.1-1.5c0.7-1,1.4-2.1,2-3.3c0.3-0.6,0.6-1.1,0.9-1.7
		c1.8-3.5,3.5-7.5,5-11.9c0.2-0.7,0.5-1.5,0.7-2.3c0.9-3.1,1.8-6.4,2.6-9.9c1-4.4,2-9.3,2.8-14.5c0.3-2.1,0.7-4.3,1.1-6.5
		c0.3-2.1,0.6-4.2,1-6.4c0.9,0.6,1.9,1.1,3,1.7c12.3,5.9,25.9-30.9,28.4-65.8c1.5-20.5-11.4-14.7-22.2-6.4c0.1-0.9,0.2-1.9,0.3-2.8
		c0,0,0,0,0-0.1c0.2-1.9,0.4-3.7,0.6-5.5c0.1-0.6,0.1-1.2,0.1-1.9c0.1-1.2,0.2-2.4,0.3-3.6c0-0.7,0.1-1.4,0.1-2.2
		c0.1-1,0.1-2.1,0.2-3.1c0-0.7,0-1.5,0-2.2c0-1,0.1-1.9,0.1-2.9c0-0.7,0-1.5,0-2.2c0-0.9,0-1.8,0-2.7c0-0.7-0.1-1.5-0.1-2.2
		c0-0.9-0.1-1.8-0.1-2.6c0-0.7-0.1-1.4-0.2-2.1c-0.1-0.8-0.1-1.7-0.2-2.5c-0.1-0.7-0.1-1.4-0.2-2.1c-0.1-0.8-0.2-1.6-0.3-2.4
		c-0.1-0.7-0.2-1.3-0.3-2c-0.1-0.8-0.2-1.6-0.4-2.4c-0.1-0.6-0.2-1.3-0.3-1.9c-0.1-0.8-0.3-1.5-0.4-2.3c-0.1-0.6-0.3-1.2-0.4-1.8
		c-0.2-0.7-0.3-1.5-0.5-2.2c-0.1-0.6-0.3-1.2-0.4-1.7c-0.2-0.7-0.4-1.5-0.6-2.2c-0.2-0.6-0.3-1.1-0.5-1.6c-0.2-0.7-0.4-1.4-0.6-2.1
		c-0.2-0.5-0.3-1-0.5-1.6c-0.2-0.7-0.5-1.4-0.7-2.1c-0.1-0.2-0.1-0.4-0.2-0.6c0.1,0,0.1,0,0.1,0s0,0,0-0.1c0.4,0.2,0.6,0.3,0.6,0.3
		s2.9-22.3-0.7-34.2c-0.4-4-2.1-9-5.7-15.5c0-0.1-0.1-0.1-0.1-0.1l0,0c-0.8-1.3-1.6-2.7-2.6-4.2c-8.5-13.5-21.4-22.7-34.7-28.7
		c-1.1-5.4-5.9-10.9-13-8c0,0-1,0.9-2.1,2.2c-55.6-23.9-73.7,9.6-79.3,38.4c-5.2,0.2-10,0.3-14.4,0.6c-45.2,2.4-34.5,19-34,19.6
		c1.2,2.5,5.4,4.9,9.9,7.1c3.9,2,9.2,4.2,15.9,5.8c-0.8,1.4-1.5,2.8-2.2,4.3c-7.6-0.2-31,0.7-18.9,16.5
		c-14.8,12.6-17.1,27.2-12.6,39.3c-2.6,1.5-4.3,5.3-4.6,12.7c-1.2,35,8.4,72.9,21.3,68.3c2.6-1,4.7-2.2,6.4-3.4
		c0.3,1.6,0.6,3.2,0.9,4.7c-6.2,1.4-10.8,5-3.4,13.1c0.9,1,1.9,1.9,2.9,2.6c-4.6,2.9-6,6.9,2.8,12.5c1.4,0.9,2.7,1.6,3.9,2.1
		c1.8,9.2,5.8,19.3,12,28.6l0,0l0,0c0.9,1.4,1.9,2.8,3,4.2l0.1,0.1c1,1.3,2.1,2.7,3.2,4l0.1,0.1c0.6,0.6,1.1,1.3,1.7,1.9l0,0
		c0.6,0.6,1.2,1.3,1.9,1.9l0,0c0.6,0.6,1.2,1.2,1.8,1.8c0.1,0.1,0.1,0.1,0.2,0.2c1.3,1.2,2.6,2.3,3.9,3.4c0.1,0.1,0.2,0.2,0.3,0.2
		c0.7,0.5,1.3,1.1,2,1.6l0,0c0.7,0.5,1.4,1.1,2.2,1.6c0.1,0.1,0.2,0.1,0.3,0.2c0.6,0.4,1.3,0.9,1.9,1.3c0.1,0.1,0.2,0.1,0.3,0.2
		c0.7,0.5,1.5,1,2.3,1.4c0,0,0,0,0.1,0c0.5,0.3,0.9,0.5,1.4,0.8c-1.2,2.2-1.8,5.5,2.1,8.5c0,4.2-0.1,7.7,0,9.6c0,0.8,0,1.5,0.1,2.2
		l0,0c-1,0.1-1.9,0.2-2.9,0.3c-0.2,0-0.3,0-0.5,0.1c-1,0.1-2.1,0.3-3.1,0.4c-0.1,0-0.3,0-0.4,0.1c-1.1,0.2-2.1,0.3-3.2,0.5l-0.1,0
		c-1.1,0.2-2.1,0.4-3.2,0.6c-0.1,0-0.2,0-0.2,0c-1,0.2-2.1,0.4-3.1,0.7c-0.1,0-0.3,0.1-0.4,0.1c-1,0.2-2,0.5-3,0.7
		c-0.2,0-0.3,0.1-0.5,0.1c-1,0.3-1.9,0.5-2.9,0.8c-0.2,0-0.3,0.1-0.5,0.1c-1,0.3-1.9,0.6-2.9,0.9c-0.1,0-0.3,0.1-0.4,0.1
		c-1,0.3-1.9,0.7-2.9,1.1c-0.1,0-0.1,0.1-0.2,0.1c-1,0.4-1.9,0.8-2.8,1.2c-0.1,0-0.1,0-0.2,0.1c-0.9,0.4-1.8,0.9-2.7,1.3
		c-0.1,0.1-0.2,0.1-0.3,0.2c-0.9,0.4-1.7,0.9-2.5,1.4c-0.1,0.1-0.3,0.2-0.4,0.2c-0.8,0.5-1.6,1-2.4,1.5c-0.1,0.1-0.3,0.2-0.4,0.3
		c-0.8,0.5-1.6,1.1-2.3,1.7c-0.1,0.1-0.2,0.2-0.3,0.3c-0.8,0.6-1.5,1.2-2.3,1.9c-0.1,0.1-0.1,0.1-0.2,0.2c-0.7,0.7-1.4,1.3-2.1,2
		c-9.8,3.2-17.2,6.7-19.7,10.2c-10.6,14.8-24.5,170.6-2.9,188.9c0.4,12.5,0.8,24.3,1.2,34.9c-10.2,1.6-9.9,17.5,0.6,17.3
		c0.1,2.9,0.3,5.7,0.3,8.4c0.1,2.3,0.2,4.6,0.2,7c0,0.1-0.1,0.3-0.1,0.4c-0.4,1.5-0.8,2.9-1.2,4c-6.4,16.3-14.7,57.8-6.5,73.2
		c0.1,0.2,0.2,0.4,0.4,0.6c1.3,2.1,2.9,3.7,4.9,4.5c0.2,9.9,0.5,19,1,25.2c0.1,2,0.2,4.1,0.4,6.1c0.1,0.7,0.2,1.3,0.3,1.7l0.1,0.1
		c0,0.1,0,0.2,0.1,0.3c-0.7,17.3-1.4,32.7-2,44.6c-5.1,4.5-10.3,11-0.7,13.5c-0.1,2.3-0.2,4.2-0.4,5.9c-4.3,4.4-5.7,22.6-5.7,22.6
		s-4.4,81.8,3,47.1c7.4-34.7,10.9-31.1,7.1,10.6c-3.7,41.7,15.3-42.6,17.8-29.1s10.5,98.7,11.6-7.9c0,0-7.8-49.6,12.6,28.3
		c20.4,77.9-4-48.8-5.6-55.3c-1-3.9,8.5,10.9,14.5,19c0.8,31.1,1.3,65.2,1,96c-0.4,10.2-0.7,19.7-0.7,28l0,0.1
		c-0.4,10.1-0.5,17.6-0.1,22.8c-8.3,3.1-7.3,17.1,2.6,16.8c2.8,38.3,0.5,126.6-1.4,183c-75.4,2-160.5,17-197.6,69.1
		c-74,103.7,148.6,126.5,178.9,126C219.3,1400.1,477.7,1393.5,457,1324z M325.8,818.7c3.3-0.8,6.3-1.5,9.1-2.3
		c-0.1,4.4-0.3,7.7-0.4,9.6l-0.1,0c0,0-5,6.6-9.8,15.2C324.9,833.3,325.3,825.8,325.8,818.7z M184.8,822.3l-0.2,0
		c-0.1-4.2-0.3-11.3-0.4-20.5c6.1,4.2,13,7.9,20.7,11c0.5,11.6,0.9,24.3,1.3,37.8C200.9,839,196.1,833.8,184.8,822.3z M239,1066.9
		c3.4-54.8,8.2-174.1,13.2-243.9c2.5,0.1,5.1,0.3,7.7,0.4c6.6,0.2,12.8,0.2,18.5,0.1c2.8,50.5,5,126.8,6.9,186
		c-6.3,2.5-8.7,13.5,0.6,16.9c0.6,15.7,1,29.7,1.5,41c1.9,44.2,0.4,100.1-1.3,140.3c-14.6-1-31-1.9-48.4-2.1
		C236.8,1165.4,236.3,1110.4,239,1066.9z"/>
	<g>
		<g>
			<g id="XMLID_4075_">
				<path id="XMLID_4076_" class="st1" d="M129.9,616.8c-15.2,4.1-14.7-22.1,2.5-16.9"/>
			</g>
			<path id="XMLID_4074_" class="st1" d="M120.8,426.2c2.7,69.6,4.7,155.2,6.7,199.7c3.4,80.5-4,198.8-4,198.8l33.8-2.6
				c0,0-5.1-208.9,2.2-252.7c5.2-31.4-2.4-147.8-4.6-215.7"/>
			<g id="XMLID_4072_">
				<path id="XMLID_4073_" class="st1" d="M157.3,817.8c13.8,14.6,17.8,19.4,25.2,38.3c7.3,19-19.6-27.1-18-20.4
					c1.5,6.7,25.9,137.5,5.6,57.2s-12.5-29.2-12.5-29.2c-1,110.1-9.1,21.9-11.6,8.2c-2.5-13.7-21.4,73.2-17.8,30.1
					c3.7-43.1,0.3-46.8-7.1-10.9c-7.4,35.8-3-48.6-3-48.6s1.8-26.5,8.4-24.1"/>
			</g>
			<path id="XMLID_4071_" class="st1" d="M140.2,600.9c0,0,5.6,1.2,6,2.5"/>
			<path id="XMLID_4070_" class="st1" d="M139.3,614.2c0,0-4.5,0.8-5.5-2.7"/>
			<path id="XMLID_4069_" class="st2" d="M130.9,794.3c0,0-27.4,18.1-0.2,19.7"/>
		</g>
		<path id="XMLID_4068_" class="st3" d="M168.8,424.5c4.3,8.5-9.3,121.2-8.7,131c0.5,9.7-3.3,10.9-30.7,9.6s-12.4-180.7-1.2-196.9
			c3.9-5.7,19.3-11.1,37.5-15.8"/>
		<g>
			<path class="st1" d="M223.8,1303.8c-1.1-3.5-3-7.6-5.1-12.6c-2-4.7-4-10.2-5.7-16.9c0.2,0,0.3,0,0.3,0s0-0.1,0-0.2
				c0-1.1,0-6-0.2-13.8l-30.5-3l-1.7-0.1l-1.7,0.1c-0.2,2.2-0.4,3.8-0.7,4.8c0,0.1-0.1,0.3-0.1,0.4c-0.2,0.2-0.4,0.4-0.5,0.6
				c-0.7,0.8-1.1,1.4-1.1,1.4s-1.3,1.2-3.4,3.2c-4,21.5-19,34-36.8,41.3c0.2,1.8,1,3.5,2.6,5.1c0.5,0.5,1.1,1,1.8,1.5
				c2.3,1.7,6.1,3.1,10.8,4c3.6,0.7,7.7,1.4,12.3,1.7c2.9,0.2,5.9,0.5,9.1,0.7c2.4,0.1,4.9,0.2,7.4,0.4c2.5-0.1,5-0.1,7.4-0.2
				c3.2-0.1,6.2-0.2,9.1-0.5c4.6-0.4,8.7-0.8,12.3-1.5c4.7-1,8.5-2.1,10.8-3.8c0.7-0.5,1.3-1,1.8-1.5c2.1-2.1,2.8-4.3,2.8-6.8
				C224.6,1306.7,224.3,1305.3,223.8,1303.8z"/>
			<path class="st1" d="M174.8,749.7c0,0,6.3,115.7,5,205c-0.4,10.5-0.7,20.3-0.8,29l0,0.1c-0.8,21.8,0,31.6,1.8,33.8
				c5.4,51.6-2.8,248.4-2.8,248.4l33.8,3.2c0,0-5.4-118.4-0.6-198.8c4.8-80.5,12.7-295.9,19.7-307"/>
			<g>
				<g id="XMLID_4066_">
					<path id="XMLID_4067_" class="st1" d="M109.3,1312.2c0,0,12.1-1.1,7.6,8.7C112.5,1330.4,99.1,1318.8,109.3,1312.2z"/>
				</g>
				<g id="XMLID_4064_">
					<path id="XMLID_4065_" class="st1" d="M116.3,1310.8c0,0,13.4-1.2,8.5,9.6C119.8,1331.1,104.9,1318.2,116.3,1310.8z"/>
				</g>
				<g id="XMLID_4062_">
					<path id="XMLID_4063_" class="st1" d="M124.8,1308.6c0,0,15.6-1.4,9.9,11.2C128.9,1332.3,111.6,1317.3,124.8,1308.6z"/>
				</g>
				<g id="XMLID_4060_">
					<path id="XMLID_4061_" class="st1" d="M135.6,1306.4c0,0,17.9-1.5,11.3,12.8C140.4,1333.5,120.5,1316.4,135.6,1306.4z"/>
				</g>
				<path id="XMLID_4059_" class="st1" d="M156.5,1324.8c0,0-21.2,1.2-11.3-12.5s27.2,0.5,28.5,6.4
					C175.1,1324.7,156.5,1324.8,156.5,1324.8z"/>
			</g>
			<path id="XMLID_4058_" class="st1" d="M200.8,1000.2c0,0,4.6,0.3,4.6,4"/>
			<path id="XMLID_4057_" class="st1" d="M193.3,1033.5c0,0-5.4-1.7-5.7-3"/>
			<g id="XMLID_4055_">
				<path id="XMLID_4056_" class="st1" d="M183.7,1273.5c-12.3,9.9-22.3-14.4-4.4-16.4"/>
			</g>
			<g id="XMLID_4053_">
				<path id="XMLID_4054_" class="st1" d="M184.3,1024.2c-15.2,4.1-14.7-22.1,2.5-16.9"/>
			</g>
		</g>
		<path class="st1" d="M345.9,673.5l-222-10.2c0,0,0.6,58.9,1.9,81.3c0.1,2.1,0.2,4.2,0.4,6.3c0.1,0.7,0.2,1.4,0.3,1.7l0.1,0.1
			c5.9,34.2,44.4,64.5,105.8,66c100.2,2.5,103.1-28,103.1-28c5-9.1,7.9-17.7,9-26c0.3,0,0.5,0,0.5,0S349.5,691.3,345.9,673.5z"/>
		<g>
			<path class="st3" d="M359.3,618.2c-0.2-1.5-0.4-3-0.6-4.5c-1.6-12-3.1-20.9-3.6-23.8c-2.8-14.6-7.3-175.7-9.9-202.1
				c-0.1-0.9-0.2-1.7-0.4-2.6c-1.5-7.4-6.5-13.5-12.5-18.1c-8.3-6.5-18.9-10.6-25.9-12.7c-13.3-11.3-40.7-19.1-78.3-17.8
				c-35.5,1.2-90.4,1.3-93.6,54.9c-0.4,6.1-0.5,13-0.3,20.8c2.2,72.5,1.2,190-6.6,221.3c-0.4,1.6-0.8,3-1.2,4.1
				c-6.4,16.8-14.7,59.7-6.6,75.6c0.1,0.2,0.2,0.4,0.4,0.6c3.2,5.6,8.6,7.5,17.3,2.9c0,0,10.8-2.5,18.8-2.3l154.2,9.4
				c6.5,1,12.2,2.1,16.9,3.2C371.6,760.5,365.5,668.1,359.3,618.2z"/>
			<path class="st3" d="M134.1,407.1c0,1.7,0.1,3.4,0.2,5.2c2.2,72.5,1.2,190-6.6,221.3c-0.4,1.6-0.8,3-1.2,4.1
				c-6.4,16.8-14.7,59.7-6.6,75.6c0.1,0.2,0.2,0.4,0.4,0.6c3.2,5.6,8.6,7.5,17.3,2.9"/>
			<path class="st3" d="M156.2,714.4l154.2,9.4c6.5,1,12.2,2.1,16.9,3.2c44.3,33.4,38.2-59.1,32.1-108.8c-0.2-1.5-0.4-3-0.6-4.5
				c-1.6-12-3.1-20.9-3.6-23.8c-2.8-14.6-7.3-175.7-9.9-202.1c-0.1-0.9-0.2-1.7-0.4-2.6c-1.5-7.4-6.5-13.5-12.5-18.1
				c-8.3-6.5-18.9-10.6-25.9-12.7c-13.3-11.3-40.7-19.1-78.3-17.8c-32.7,1.1-81.6,1.3-91.9,42.9"/>
		</g>
		<path id="XMLID_4052_" class="st1" d="M350.1,502.8c0,0-19,186.9-12.1,214.5"/>
		<g>
			<path id="XMLID_4051_" class="st4" d="M270.4,332.4c0.5-6.9-1.7-26.7-2-33.2c-0.3-5.9-1.1-10.9-2.4-15.1
				c23.1-38.7-39.5-83.9-62.3-34.1c-7.1,15.5-6.5,45.7-6.4,50.9c0.1,6.7,0,29.2,0,35c-0.2,32.6,48,58.9,67.4,16.6"/>
			<path id="XMLID_4050_" class="st5" d="M253.9,367.5c-22.4,19.1-56.8-4-56.6-31.5c0.1-5.8,0-28.3,0-35c-0.1-5.2-0.7-35.4,6.4-50.9
				c22.9-49.8,85.4-4.6,62.3,34.1c1.3,4.2,2,9.2,2.4,15.1c0.3,6.4,2.6,26.2,2,33.2l-5.8,20.1c-1,2.3-2.1,4.4-3.4,6.2"/>
		</g>
		<g>
			<path class="st1" d="M302.1,750.8c0,0-8.3,115.5-8.6,204.8c0.2,10.5,0.3,20.3,0.2,29l0,0.1c0.4,21.8-0.6,31.6-2.4,33.8
				c-6.4,51.5-1.6,248.4-1.6,248.4l-33.8,2.6c0,0,7.4-118.2,4-198.8s-7.5-296.1-14.3-307.3"/>
			<path id="XMLID_4049_" class="st1" d="M281.7,1004.8c0,0-2.5-3.9-5.7-2.1"/>
			<path id="XMLID_4048_" class="st1" d="M267.9,1035c0,0,5.4-1.7,5.7-3"/>
			<g id="XMLID_4046_">
				<path id="XMLID_4047_" class="st1" d="M284.2,1260.4c12.3-9.9,22.3,14.4,4.4,16.4"/>
			</g>
			<g id="XMLID_4044_">
				<path id="XMLID_4045_" class="st1" d="M266.6,1012.9c-12.1-10.1-22.5,14-4.6,16.4"/>
			</g>
			<g>
				<path class="st1" d="M300.3,1310.2c-1.1-3.5-3-7.6-5.1-12.6c-2-4.7-4-10.2-5.7-16.9c0.2,0,0.3,0,0.3,0s0-0.1,0-0.2
					c0-1.1,0-6-0.2-13.8l-30.5-3l-1.7-0.1l-1.7,0.1c-0.2,2.2-0.4,3.8-0.7,4.8c0,0.1-0.1,0.3-0.1,0.4c-0.2,0.2-0.4,0.4-0.5,0.6
					c-0.7,0.8-1.1,1.4-1.1,1.4s-1.3,1.2-3.4,3.2c-4,21.5-19,34-36.8,41.3c0.2,1.8,1,3.5,2.6,5.1c0.5,0.5,1.1,1,1.8,1.5
					c2.3,1.7,6.1,3.1,10.8,4c3.6,0.7,7.7,1.4,12.3,1.7c2.9,0.2,5.9,0.5,9.1,0.7c2.4,0.1,4.9,0.2,7.4,0.4c2.5-0.1,5-0.1,7.4-0.2
					c3.2-0.1,6.2-0.2,9.1-0.5c4.6-0.4,8.7-0.8,12.3-1.5c4.7-1,8.5-2.1,10.8-3.8c0.7-0.5,1.3-1,1.8-1.5c2.1-2.1,2.8-4.3,2.8-6.8
					C301.1,1313,300.8,1311.7,300.3,1310.2z"/>
				<g>
					<g id="XMLID_4042_">
						<path id="XMLID_4043_" class="st1" d="M185.7,1318.5c0,0,12.1-1.1,7.6,8.7C188.9,1336.8,175.6,1325.2,185.7,1318.5z"/>
					</g>
					<g id="XMLID_4040_">
						<path id="XMLID_4041_" class="st1" d="M192.7,1317.3c0,0,13.4-1.2,8.5,9.6C196.2,1337.6,181.4,1324.7,192.7,1317.3z"/>
					</g>
					<g id="XMLID_4038_">
						<path id="XMLID_4039_" class="st1" d="M201.2,1315.1c0,0,15.6-1.4,9.9,11.2C205.3,1338.8,188.1,1323.7,201.2,1315.1z"/>
					</g>
					<g id="XMLID_4036_">
						<path id="XMLID_4037_" class="st1" d="M212.1,1312.8c0,0,17.9-1.5,11.3,12.8C216.8,1340,197,1322.7,212.1,1312.8z"/>
					</g>
					<path id="XMLID_4035_" class="st1" d="M232.9,1331.2c0,0-21.2,1.2-11.3-12.5s27.2,0.5,28.5,6.4
						C251.5,1331.1,232.9,1331.2,232.9,1331.2z"/>
				</g>
			</g>
		</g>
		<g>
			<g id="XMLID_4033_">
				<path id="XMLID_4034_" class="st1" d="M333.1,602.7c12.3-9.9,22.3,14.4,4.4,16.4"/>
			</g>
			<path id="XMLID_4032_" class="st1" d="M348.3,464.9c-3.1,60.9-6,126.1-8.1,162.8c-4.8,80.5,0.6,198.8,0.6,198.8l-33.8-3.2
				c0,0,8.7-208.7,2.2-252.7c-3.8-25.2,1.7-104.9,5.8-170.5"/>
			<path id="XMLID_4031_" class="st1" d="M327,603.1c0,0,4.6,0.3,4.6,4"/>
			<path id="XMLID_4030_" class="st1" d="M325.4,616c0,0-5.4-1.7-5.7-3"/>
			<g id="XMLID_4017_">
				<path id="XMLID_4029_" class="st4" d="M298.7,880.8c5.8,1.6,9.9,1.9,12.7,1.6c-1.8,21.6,8.8,15.3,13.8,11l2.2,1
					c6.8,12.8,15.3,0.4,17.7-3.7l0.3,3.1c11.1,5.8,10.7-6.3,9.7-12.9c1.1,2,4,3.9,11.8,3.9c14.6-0.2-27.5-70.4-27.5-70.4l-32.6,7.2
					C306.9,821.6,269.2,873,298.7,880.8z"/>
				<path id="XMLID_4028_" class="st1" d="M306.9,821.6c0,0-37.7,51.5-8.1,59.2c5.8,1.6,9.9,1.9,12.7,1.6
					c-1.8,21.6,8.8,15.3,13.8,11l2.2,1c6.8,12.8,15.3,0.4,17.7-3.7l0.3,3.1c11.1,5.8,10.7-6.3,9.7-12.9c1.1,2,4,3.9,11.8,3.9
					c14.6-0.2-27.5-70.4-27.5-70.4"/>
				<g id="XMLID_4021_">
					<g id="XMLID_4023_">
						<path id="XMLID_4027_" class="st2" d="M339.4,814.3c0,0,42.2,70.3,27.5,70.4c-14.6,0.2-12-7.1-12.4-7.7c0,0,5.9,24.6-9,16.7"
							/>
						<path id="XMLID_4026_" class="st2" d="M345.8,889.5c0,0-10.7,20.8-18.8,4.1"/>
						<path id="XMLID_4025_" class="st2" d="M306.9,821.6c0,0-37.7,51.5-8.1,59.2c29.5,7.8,15-13.1,6.5-12.3"/>
						<path id="XMLID_4024_" class="st2" d="M327.8,891c0,0-19.8,20.6-16.2-11l1.1-15.9"/>
					</g>
					<path id="XMLID_4022_" class="st2" d="M334.1,812.3c0,0,20.2-20.1,0.2-21.8"/>
				</g>
				<path id="XMLID_4020_" class="st1" d="M326.4,863c0,0-1,9.7,0.7,15"/>
				<path id="XMLID_4019_" class="st1" d="M342.1,874.9c0,0,0.2,7,1.6,7.1"/>
				<path id="XMLID_4018_" class="st2" d="M344,846.8c1.4,4.5,7.1,14,7.1,14"/>
			</g>
		</g>
		<path id="XMLID_4016_" class="st3" d="M299.2,431.6c-4.5,8.5,7.1,121.4,6.5,131.2c-0.7,9.7,3.1,10.9,30.5,10.2
			c27.4-0.9,15.6-180.5,4.6-196.9c-3.9-5.7-19.1-11.5-37.3-16.4"/>
		<g>
			<path class="st6" d="M288.7,404.8c0,0-27.3-10.4-29.3-1c-1.9,9.5-11,40,5.2,42.2c16.2,2.2,23.6,1.7,24.3-12.1
				C289.7,420.2,288.7,404.8,288.7,404.8z"/>
			<g>
				<path id="XMLID_4015_" class="st1" d="M287.6,405.5c0,0,3.5,2.8,1.5,5.8"/>
				<path id="XMLID_4014_" class="st1" d="M262.7,404c0,0-5,2.4-6.5,4.6"/>
				<path id="XMLID_4013_" class="st1" d="M288.2,427.6c0,0,1.5-5.3,0.7-8"/>
				<path id="XMLID_4012_" class="st1" d="M260.9,444.3c0,0,5.1,2.1,7.9,1.6"/>
				<path id="XMLID_4011_" class="st1" d="M284.9,440.5c0,0-1.9,4.1-5.3,2.8"/>
				<path id="XMLID_4010_" class="st1" d="M257.1,418.5c0,0-0.9,3.7-1.9,4.9"/>
				<line id="XMLID_4009_" class="st5" x1="276.8" y1="403" x2="271.4" y2="402.7"/>
				<path id="XMLID_4008_" class="st1" d="M255.1,432.7c0,0-1.2,5.4-0.3,8"/>
			</g>
			<g>
				<path id="XMLID_4007_" class="st1" d="M191.8,780.7c0,0-3.2-5.8-0.7-9.2"/>
				<path id="XMLID_4006_" class="st1" d="M199.7,756c0,0-3.9,3.9-4.6,6.7"/>
				<path id="XMLID_4005_" class="st1" d="M197.1,790.2c0,0,1.6,5.3,3.6,7.1"/>
			</g>
		</g>
		<g id="XMLID_3715_">
			<g id="XMLID_4001_">
				<path id="XMLID_4004_" class="st1" d="M157.9,169c0,0-34.6-46.7-35.8-10.5c-1.2,36.2,8.3,75.3,21.3,70.5
					c12.9-4.8,13.2-15.6,13.2-15.6"/>
				<path id="XMLID_4003_" class="st1" d="M146.4,171.3c0,0-13.5-21.3-17-11.3"/>
				<path id="XMLID_4002_" class="st1" d="M151.5,186.2c0,0-20.1-5.5-17.3,6.2c2.8,11.6,9.9,19.5,13.5,6.6"/>
			</g>
			<path id="XMLID_4000_" class="st7" d="M264.4,7.2c0,0-13.2,11.4,3.1,16.8S278.7,1.4,264.4,7.2z"/>
			<path id="XMLID_3999_" class="st1" d="M236.4,35c0,0,104.8,8.5,89.1,132.2c-15.7,123.7-12.1,146.5-71.4,158.6
				s-91.3-31.5-97.5-64.6S104.7,50.2,236.4,35z"/>
			<path class="st0" d="M285.4,53.7c13,19.6,21,47.9,15.8,88.8c-15.8,123.7-12,146.5-71.3,158.5c-25.3,5.2-45.7,0.2-61.2-9.8
				c15.2,23.7,43.4,43.1,85.4,34.5c59.3-12.1,55.5-34.8,71.3-158.5C333.5,104.2,310.2,71.1,285.4,53.7z"/>
			<path id="XMLID_3998_" class="st3" d="M320.5,65.3c-0.4-4.1-2.1-9.3-5.7-16c0-0.1-0.1-0.1-0.1-0.1l0,0c-0.8-1.4-1.6-2.8-2.6-4.3
				c-11.5-18.5-30.6-29.3-48.1-34.8c-74.9-34.5-83.1,36.8-83.6,63.8c0,2.6,33.9,0,64.9-7.4c39.1,16.1,75.9,34.1,75.9,34.1
				S324,77.6,320.5,65.3z"/>
			<path id="XMLID_3997_" class="st1" d="M224.3,177c0,0,18.6,14.2,42.9,5.8"/>
			<path id="XMLID_3996_" class="st1" d="M178.5,177.2c0,0-30.3,6.2-36.6,3.4"/>
			<path id="XMLID_3995_" class="st1" d="M197.4,314.5c0,0-12.5,11.4,13.3,16.7s42.7-1.3,37.7-11.1"/>
			<path id="XMLID_3994_" class="st3" d="M161.8,83.7c0,0,40.2-15.9,87.3-5.2s71.5,21.9,71.5,21.9C306,48.2,214.7,47.1,168.6,49.6
				c-46.2,2.6-34.1,20.3-34.1,20.3S141.3,78.5,161.8,83.7z"/>
			<path id="XMLID_3993_" class="st1" d="M161.8,83.7c0,0-79.4-22.8,30.8-26.7s128,43.4,128,43.4S219.1,55.5,161.8,83.7z"/>
			<g>
				<path id="XMLID_3992_" class="st1" d="M217.5,186.2c0,0-18.7-23.7-18-36.8"/>
				<g id="XMLID_3989_">
					<path id="XMLID_3991_" class="st1" d="M184.6,188.5c0.6,6.2,2.6,10.5,6.6,11.4c2.2,0.4,4.2,0.3,5.7-0.1
						c1.3-0.3,2.3-0.8,3.1-1.2"/>
					<path id="XMLID_3990_" class="st1" d="M205.6,113.8c0,0-14.7,38.4-19.1,65.5"/>
				</g>
				<g id="XMLID_3983_">
					<path id="XMLID_3988_" class="st1" d="M177.7,191.6c0,0-14,16.1,8.3,20.9"/>
					<path id="XMLID_3987_" class="st1" d="M216.1,191.9c0,0,14.7,12.4-6.3,20.7"/>
					<path id="XMLID_3986_" class="st1" d="M205.1,202c2.1,0.6,5.2-3.8,7.6,0.1c2.4,3.8-0.3,2.7-3.4,3.5
						C206.1,206.4,203,201.3,205.1,202z"/>
					<path id="XMLID_3985_" class="st1" d="M183.8,207.4c-4.2-0.2-5.2-3.6-3-5.4c0.8-0.6,3.2,0.5,5.5,1.8
						C188.1,204.9,183.8,207.4,183.8,207.4z"/>
					<path id="XMLID_3984_" class="st1" d="M199.1,183.4c0,0,4.4-0.1,5.4,1.4"/>
				</g>
				<path id="XMLID_3982_" class="st1" d="M169.5,201.5c0,0-12.3,6-15.8,7.3"/>
				<path id="XMLID_3981_" class="st1" d="M224.9,198.7c0,0,14.1,6.9,15.5,6.8"/>
			</g>
			<path id="XMLID_3980_" class="st1" d="M285.9,138.4c0,0,2,4.2-1.3,6"/>
			<path id="XMLID_3979_" class="st1" d="M274.4,180.5c0,0-0.9,3.7-2,5"/>
			<path id="XMLID_3978_" class="st1" d="M276.3,107.4c0,0,1.7-7,0.1-7"/>
			<path id="XMLID_3977_" class="st1" d="M174.3,82.8c0,0,6.6,1,5.9,2.1"/>
			<path id="XMLID_3976_" class="st1" d="M214.7,95.5c0,0,7.7-1,8.2-2.5"/>
			<path id="XMLID_3975_" class="st1" d="M175.4,283.8c0,0,5.6,1.2,6,2.5"/>
			<path id="XMLID_3974_" class="st1" d="M222.1,286.6c0,0-5.1,2.4-6.6,4.7"/>
			<path id="XMLID_3973_" class="st1" d="M171.2,162.8"/>
			<path id="XMLID_3972_" class="st1" d="M207.8,167.5"/>
			<line id="XMLID_3971_" class="st5" x1="259.8" y1="208.7" x2="265.2" y2="207.4"/>
			<path id="XMLID_3970_" class="st1" d="M310.6,183.5c0,0,39.3-42.9,36.8-6.8c-2.5,36.1-16,74.1-28.4,68
				c-12.3-6.1-11.6-16.8-11.6-16.8"/>
			<path id="XMLID_3969_" class="st1" d="M321.8,187.1c0,0,15.6-19.9,18.1-9.5"/>
			<path id="XMLID_3968_" class="st1" d="M315.3,201.2c0,0,20.5-3.3,16.5,7.9c-4,11.3-11.9,18.3-14.1,5.2"/>
			<g>
				<path id="XMLID_3967_" class="st8" d="M146.7,99.1c0,0,71.6-6.3,45.2,51.1S86.4,138.7,146.7,99.1z"/>
				<path id="XMLID_3966_" class="st7" d="M149.8,128.9c0,0,10.7-4.2,9.4,6.9C157.9,146.8,142.3,138.4,149.8,128.9z"/>
				<path id="XMLID_3965_" class="st8" d="M226.3,107.8c0,0-52.9,45.7,12.3,67.4S283.6,84.8,226.3,107.8z"/>
				<path id="XMLID_3964_" class="st7" d="M262.4,136.3c0,0,10.7-4.2,9.4,6.9C270.6,154.3,254.9,145.8,262.4,136.3z"/>
				<path id="XMLID_3963_" class="st7" d="M230.6,98.6c0,0-24.1,2.6-7.1,19.7s50.4,1,48.6-5C270.4,107.3,267.4,97.1,230.6,98.6z"/>
				<path id="XMLID_3962_" class="st7" d="M160.4,87.8c0,0-37.2-2.4-20.2,18.4s47.8-0.1,50.3-8.9S160.4,87.8,160.4,87.8z"/>
				<g id="XMLID_3957_">
					<path id="XMLID_3959_" class="st1" d="M269.4,173.5c0.5,0.1,0.9,0.3,1.4,0.4c1.8,0.5,3.6,0.7,5.5-1.3c4.5-4.9-5.7-6.4-5.7-6.4
						l-11.3-0.9c0,0-24.1-1.8-38.3,1.8c0,0,20.9,11.4,33.8,10.7c1.5-0.1,2.9-0.3,4.2-0.8C259.9,176.6,267.2,172.9,269.4,173.5z"/>
					<path id="XMLID_3958_" class="st1" d="M154,158.5c0,0,14.1-2.6,29.8,2.5c0,0-7.8,16.7-32.9,8.8c-8.2-2.6-9.9,2-14.4-2.8
						c-4.5-4.9,5.9-6.2,5.9-6.2L154,158.5z"/>
				</g>
			</g>
			<g id="XMLID_3952_">
				<path id="XMLID_3956_" class="st7" d="M170,240.7c0,0-38.4,4.7-17.2,18.8C174.1,273.6,170,240.7,170,240.7z"/>
				<path id="XMLID_3955_" class="st7" d="M164.4,229.4c0,0-31.7-2-17.2,14.6c14.6,16.5,40.7,0,42.9-7S164.4,229.4,164.4,229.4z"/>
				<path id="XMLID_3954_" class="st7" d="M227.7,238c0,0-15.4-5.3-12.9,14.3c2.4,19.6,29.3,16.5,30.9,10.9
					C247.4,257.6,250.1,248.2,227.7,238z"/>
				<path id="XMLID_3953_" class="st7" d="M214.6,232.7c0,0-44.9-6-0.7,16S265.8,240,214.6,232.7z"/>
			</g>
			<g id="XMLID_3716_">
				<path id="XMLID_3951_" class="st1" d="M174.1,259.6c0,0,23.4,23.5,36.6,0.3"/>
				<path id="XMLID_3718_" class="st1" d="M179.6,255.9c0,0,6.6-6.8,11.3,0.1"/>
				<path id="XMLID_3717_" class="st1" d="M202.2,256.1c0,0-6.4-7-11.3-0.1"/>
			</g>
		</g>
		<path id="XMLID_3714_" class="st1" d="M259,373.3c1.7-0.6,3.4-1.9,4.9-4.4"/>
		<path id="XMLID_3713_" class="st1" d="M195.8,358.9c0,0,0.5,2.3,2,4.3"/>
		<path id="XMLID_3712_" class="st1" d="M209.7,378c0.5,0.3,1.1,0.6,1.8,0.8"/>
		<path id="XMLID_3695_" class="st3" d="M153.4,663.3c0,0,7.1-187.7-1.5-214.8"/>
	</g>
</g>
</svg>
