<?xml version="1.0" encoding="utf-8"?>
<!-- Generator: Adobe Illustrator 22.1.0, SVG Export Plug-In . SVG Version: 6.00 Build 0)  -->
<svg version="1.1" id="Layer_1" xmlns="http://www.w3.org/2000/svg" xmlns:xlink="http://www.w3.org/1999/xlink" x="0px" y="0px"
	 viewBox="0 0 1282 722" style="enable-background:new 0 0 1282 722;" xml:space="preserve">
<style type="text/css">
	.st0{fill:#A36B78;stroke:#584C4F;stroke-width:4;stroke-linecap:round;stroke-miterlimit:10;}
	.st1{fill:#B66C7E;stroke:#584C4F;stroke-width:4;stroke-miterlimit:10;}
	.st2{fill:#FFFAF2;stroke:#584C4F;stroke-width:2;stroke-miterlimit:10;}
	.st3{fill:#FFD767;stroke:#584C4F;stroke-width:2;stroke-miterlimit:10;}
</style>
<g>
	<g>
		<path id="XMLID_24_" class="st0" d="M-827.6,107.7c132.7,8.3,295.7,16.3,380.4,21.9c153.4,10.2,379.1,1.5,379.1,1.5l-6.5,64.4
			c0,0-398.1-19.4-481.9-7.5c-60.1,8.5-281.8-11.5-411.2-18.8"/>
		<path class="st0" d="M-78.2,134.3c8.5-7.6,23-14,47.4-13.6c11.4,0.2,28.8-1.3,31-0.7c3.8,1.1,24.7,0.4,32.5,2.6
			c1-2.4,2.7-4,4.6-3.5c4.6,1.4,34.6,0,35.4,4.4c0.9,4.4,1.7,8.8-0.4,9.2c0,0-28.9,3.5-36.4,0.5c-0.2,0.2-0.4,0.4-0.7,0.4
			c0,0-16.7,2-28.1,1.6c2.3,4,3.4,8.6,3.8,13.8c5.4,0.3,32.4-7.4,40.8-5.8c0.7-1.6,1.9-2.6,3.4-2.5c5.9,0.4,40.7-9.9,43.3-4.5
			c2.6,5.4,5.2,10.7,2.9,11.8c0,0-33.5,13-43,11c-1.4-0.3-2.6-1-3.6-1.8c-7.6,2.9-32.7,11.8-40.7,10.1c-1.4-0.3-3.1,7.5-2.2,7.8
			c5.4,1.8,36.6,1.1,45.1,5.2c1.2-1.5,2.7-2.2,4.3-1.7c6.1,2.1,46,0.8,47.2,7.2c1.3,6.4,2.5,12.7-0.2,13.3c0,0-39.2,4.4-48.7-0.3
			c-1.4-0.7-2.5-1.7-3.3-2.9c-9,0.9-38,3.4-46.1-0.6c-1.1-0.5-2.8,1.4-2.8,3c0,2.2,0.2,6.1,0.6,6.3c4.8,2.6,35,7.9,42.4,13
			c1.5-1,3-1.4,4.4-0.7c5.5,3,44.1,9.4,44,15.2c-0.1,5.8-0.2,11.6-2.9,11.6c0,0-38.6-3.5-46.9-9.4c-1.2-0.9-2.1-2-2.6-3.1
			c-8.8-0.9-37.3-4.2-44.2-9.2c-1.9-1.4-16.9,0.1-24.8,0c9.4,7.3,22.4,17.2,20.9,20.8c-2.3,5.3-4.5,10.6-6.8,9.7
			c0,0-29.4-15.6-34.2-23.9c-0.3,0.1-0.6,0.1-0.9,0c0,0-30-16-34.4-24.2c-0.3-0.6-0.5-1.1-0.7-1.6c-7-5.7-11-11.7-13.1-17.4"/>
		<path class="st0" d="M-81.1,137.1c0.9-1,1.9-1.9,2.9-2.9"/>
		<path id="XMLID_23_" class="st0" d="M-109.5,144.2c0,0,35.8-51.4,37.6,0.6"/>
		<path class="st1" d="M101.8,197.4c0,0,6.6,1.9,6.4-2.4c-0.1-4.3,1.9-8.7-4.6-8.5c-6.5,0.2-6.3,4.5-6.3,4.5S95.3,195.5,101.8,197.4
			z"/>
		<path class="st1" d="M89.7,241.4c0,0,6.4,2.3,6.5-2.1s2.3-8.6-4.2-8.7c-6.5-0.1-6.5,4.2-6.5,4.2S83.3,239.1,89.7,241.4z"/>
		<path class="st1" d="M66.3,130.3c0,0,6.4,2.3,6.5-2.1s2.3-8.6-4.2-8.7c-6.5-0.1-6.5,4.2-6.5,4.2S59.9,128.1,66.3,130.3z"/>
		<path class="st1" d="M94.1,149.7c0,0,8.2,0.5,6.9-4.5c-1.3-5-0.2-10.7-7.7-8.7s-6.2,7-6.2,7S85.9,149.2,94.1,149.7z"/>
		<path class="st1" d="M-12.5,249.7c0,0,5.5,4,6.8-0.2s4.6-7.5-1.6-9.5c-6.1-1.9-7.4,2.2-7.4,2.2S-18,245.7-12.5,249.7z"/>
		<path id="XMLID_22_" class="st0" d="M-3.4,140.9c0,0-13.3-8.2-0.4-9.4"/>
		<path id="XMLID_21_" class="st0" d="M-4.6,162.6c0,0-13.3-8.2-0.4-9.4"/>
		<path id="XMLID_20_" class="st0" d="M-4.1,185.8c0,0-13.3-8.2-0.4-9.4"/>
		<path id="XMLID_19_" class="st0" d="M-5.3,207.6c0,0-13.3-8.2-0.4-9.4"/>
		<path id="XMLID_18_" class="st0" d="M-32.5,228.7c0,0-24.4,12.5-14.4-8"/>
		<path id="XMLID_17_" class="st0" d="M37.7,222.1c-0.4-1.6,0.9-3,5.6-3.4"/>
		<path id="XMLID_16_" class="st0" d="M47.7,189.9c0.7-1.6,1.6-3.5,2.8-5.7"/>
		<path id="XMLID_15_" class="st0" d="M47.9,146.1"/>
		<path id="XMLID_14_" class="st0" d="M42.2,149.5c-0.3-1.2,0.3-2.2,2.6-2.9"/>
		<path id="XMLID_13_" class="st0" d="M31.4,126"/>
		<path id="XMLID_12_" class="st0" d="M27.7,128.5c-0.3-1.2-0.5-2.6,0.2-3.2"/>
		<path id="XMLID_11_" class="st0" d="M79.4,236.9c-1.3-0.9-1.4-2.7,1.7-6.3"/>
		<path id="XMLID_10_" class="st0" d="M91.5,194.3c-0.1-1.7-0.1-3.8,0-6.4"/>
		<path id="XMLID_9_" class="st0" d="M83.6,148.5c-1-0.7-1.3-1.8-0.2-3.9"/>
		<path id="XMLID_8_" class="st0" d="M58.3,126.9c-0.3-1.2-0.5-2.6,0.2-3.2"/>
	</g>
	<path id="XMLID_7_" class="st2" d="M24.9,147.7c0.1,0.4,2.2,17.6,2.1,19.1c0,0.2-0.3,0.8-0.6,1.1c-0.4,0.5-1.1,1.1-1.8,1.3
		c-0.1,0-3.3,0.5-3.4,0.5c-1,0.2-2.1-0.3-3.1-2.3c-0.7-1.5-2.5-19.1-2.5-19.5c-0.1-1.2,0.7-1.9,1.7-2.1c0.6-0.2,3.1-0.5,3.8-0.5
		C22.7,145.1,24.6,145.9,24.9,147.7z"/>
	<path id="XMLID_6_" class="st2" d="M17.5,147.1c0,0-0.6-0.2-0.8,0.2"/>
	<path id="XMLID_5_" class="st2" d="M26.2,166.4c0,0-0.2,0.7-0.5,0.9"/>
</g>
<g id="Layer_5">
</g>
<g id="Layer_3">
</g>
<g>
	<path class="st3" d="M750.5,334.1c-10.7-7.6-27.9-8.2-37.1,2.2c-5.2,5.9-6.5,14.2-9.7,21.2c-1.7,3.7-4.1,7.4-8.2,8.6
		c-6.9,2-13.5-3.7-17.9-8.4c-7.2-7.9-11.9-17.9-19.7-25.3c-6.6-6.3-15.6-10.5-24.6-6.9c-7,2.8-12.2,9.9-9.4,17.5
		c2.8,7.6,11.4,11.4,17.8,15.4c4.2,2.6,7.4,6,9.1,10.7c1.3,3.6,1.6,7.8-0.8,10.4l-2.9,2.8c-3.8,4.4-10.2,6.5-16.2,6.5
		c-11,0-19.2-7.8-25.7-16c-6.4-8.1-11.7-17.3-19.9-24c-6.8-5.5-15.7-9.8-24.6-7.6c-17,4.1-19.2,24.7-17.8,39.1
		c0.8,7.7,2,17.6,7.8,23.4c3.2,3.2,7.5,4,11.9,3.8c5.9-0.3,11.6-1.7,17.5-1.7c11.9,0,24.5,4.6,27.7,17.2c1.2,4.7,0.7,10-2.7,13.8
		c-3.6,4.1-9.1,5.2-14.3,5.3c-9.1,0.3-18-1.8-26,3.6c-5.2,3.5-9.7,10.6-4.6,16.2c6.3,6.9,16.9,1.4,24-0.5c4.4-1.2,10.6-2,14.4,1.2
		c6.2,5.2-0.4,13.1-3.9,17.7c-9.7,12.7-9.6,29.9-2.2,43.7c7.5,14.1,22.4,23.2,38.5,20.1c15.5-3,28.9-15.6,33.2-30.7
		c2.6-9,0.7-17.1-2-25.8c-1.6-5.4-3.6-12.1-0.5-17.3c2.4-4.1,9-8.4,13.5-4.7c3.7,3.1,2.5,9,6.5,12.1c3.1,2.4,7.4,2.5,11.1,2
		c9-1.1,19.9-4,26.8-10.1c5.2-4.6,8.3-12.7,5.7-19.5c-3.8-9.9-15.6-7.3-23.3-11.4c-8.1-4.3-12.4-14.3-11.2-23.3
		c1.4-10.1,9.8-15.8,19-18.5c8.7-2.6,17.9-3.1,26.4-6.1c7.8-2.7,14.3-8,18.8-15C763.5,362.8,764,343.7,750.5,334.1z"/>
	<path class="st2" d="M584.3,429.9c-61.9,65.4,27.4,134,27.4,134s79.4,30.2,116-49C764.3,435.7,646.2,364.5,584.3,429.9z
		 M719.9,511.9C687,583.1,615.6,556,615.6,556s-80.4-61.7-24.7-120.6C646.6,376.5,752.8,440.6,719.9,511.9z"/>
	<g id="XMLID_136_">
		<path id="XMLID_137_" class="st2" d="M764.3,505.9c0,0-0.1-0.1-0.1-0.2c-0.5-1-1-1.9-1.2-2.2c-0.1-0.2-0.7-1.2-1.4-2.5
			c-0.9-1.6-1.6-3-1.7-3.1c-0.5-0.7-1.6-3.1-2-3.6c0,0-2.4-4.1-2.6-4.5c-0.6-1.3-2.1-4-2.4-4.7c-0.4-0.8-6.5-11.2-7.5-12.7
			c-0.1-0.1-0.1-0.2-0.2-0.2c-0.9-1.9-1.8-3.6-2.5-4.9c-1.8-3.8-5.6-10.5-7.3-13.2c0.1-0.4-6.2-11.9-6.4-12.3
			c-0.1-0.1-0.2-0.3-0.4-0.4c-1.3-2.3-2.6-4.5-3.4-5.7c0.1-0.4-6.2-11.9-6.4-12.3c-1-1.3-3.8-1.7-7.1-0.1c-0.4,0.2-6.2,3.4-13.1,7.3
			c-0.4,0.2-0.8,0.4-1.2,0.6c-1.5,0.8-119.9,66.2-121.4,67.1c-0.4,0.2-0.7,0.5-1.1,0.7c-6.9,3.8-12.8,7-13.1,7.2
			c-3.1,1.9-4.3,4.5-3.7,6c0.2,0.4,0.7,1.3,1.1,2.2c0.4,0.7,5,9.1,5.1,9.1c0.1,0.2,1.9,3.5,3.9,6.9c0,0.1,0,0.1,0,0.2
			c0.2,0.4,0.7,1.3,1.1,2.2c0.4,0.7,5,9.1,5.1,9.1c0.1,0.3,5.7,10.3,8,13.8c0.7,1.3,1.7,3,2.8,4.8c0,0.1,0.1,0.2,0.1,0.3
			c0.7,1.7,6.3,12.3,6.7,13.1c0.4,0.7,5,9.1,5.1,9.1c0.2,0.6,3.9,7.1,3.9,7.1c0.1,0.3,0.3,0.7,0.7,1.2c0.3,0.5,0.4,0.8,0.5,1
			c0.1,0.3,1,1.8,2,3.6c0.3,0.5,0.6,1,0.8,1.5c0.1,0.2,0.2,0.4,0.3,0.5c1.1,1.9,2,3.6,2,3.6c0.2,0.6,3.9,7.1,3.9,7.1
			c0.2,0.6,1.3,2.1,2,3.4c0.2,0.4,0.4,0.9,0.5,1.2c0.2,0.4,0.9,1.8,1.4,2.7c0.3,0.5,0.4,0.8,0.5,0.8c0.1,0.3,0.4,0.5,0.8,0.7
			c1.4,3,5.1,9.9,7.4,13.5c0.8,1.4,1.8,3.2,3,5.2c0.1,0.1,0.1,0.3,0.2,0.4c0.7,1.8,6.4,12.6,6.9,13.4c0.4,0.7,0.7,1.3,0.7,1.3
			c0.2,0.6,3.2,5.9,3.7,6.7c0.4,0.7,0.7,1.3,0.7,1.3c0.1,0.2,0.3,0.4,0.5,0.6c1.9,3.6,4.1,7.9,4.4,8.4c0.4,0.7,0.7,1.3,0.7,1.3
			c0.2,0.6,3.2,5.9,3.7,6.7c0.4,0.7,0.7,1.3,0.7,1.3c0.4,1,2,1.3,6.3-0.3c2.7-1,25.7-14,33.4-18.4c11.7-6.2,72.5-39.8,84-46.4
			c7.8-4.2,31.1-16.7,33.4-18.5c3.7-2.8,4.3-4.4,3.6-5.2c0-0.1-0.3-0.7-0.7-1.3c-0.5-0.9-1-1.8-1.3-2.2c-0.2-0.3-0.5-0.7-0.7-1.1
			c-0.6-1.3-2.1-4.1-2.5-4.8c-0.3-0.5-2.7-4.7-4.8-8.2c0-0.3,0-0.6-0.2-0.8c0-0.1-0.3-0.7-0.7-1.3c-0.5-0.9-1-1.8-1.3-2.2
			c-0.2-0.3-0.5-0.7-0.7-1.1c-0.6-1.3-2.1-4.1-2.5-4.8c-0.5-0.9-6.6-11.5-7.7-13c-0.1-0.1-0.2-0.3-0.3-0.4c-1-2.1-2-3.9-2.8-5.3
			c-1.8-3.9-7.4-14.2-7.6-14.5c0,0-0.2-0.4-0.4-0.8c-0.5-0.9-1.3-2.3-1.5-2.6c-0.2-0.3-4.2-7.7-4.4-8.1c-0.1-0.1-0.1-0.2-0.2-0.3
			c-0.2-0.4-0.4-0.8-0.7-1.2c-0.4-0.9-0.9-1.8-1.1-2.1c0,0-0.1-0.1-0.2-0.4c-0.9-1.6-1.5-2.8-1.6-2.9c0,0-0.2-0.4-0.4-0.8
			C765.3,507.6,764.5,506.3,764.3,505.9z"/>
	</g>
</g>
</svg>
