<?xml version="1.0" encoding="utf-8"?>
<!-- Generator: Adobe Illustrator 22.1.0, SVG Export Plug-In . SVG Version: 6.00 Build 0)  -->
<svg version="1.1" id="Layer_1" xmlns="http://www.w3.org/2000/svg" xmlns:xlink="http://www.w3.org/1999/xlink" x="0px" y="0px"
	 viewBox="0 0 347.2 675.2" style="enable-background:new 0 0 347.2 675.2;" xml:space="preserve">
<style type="text/css">
	.st0{fill:#A36B78;stroke:#584C4F;stroke-width:2;stroke-linecap:round;stroke-miterlimit:10;}
	.st1{fill:#A36B78;stroke:#584C4F;stroke-width:2;stroke-linecap:round;stroke-linejoin:round;stroke-miterlimit:10;}
	.st2{fill:#FFD767;stroke:#584C4F;stroke-width:2;stroke-miterlimit:10;}
	.st3{fill:#A36B78;}
	.st4{fill:none;stroke:#584C4F;stroke-width:2;stroke-linecap:round;stroke-miterlimit:10;}
	.st5{fill:#BEAB72;}
	.st6{fill:#584C4F;stroke:#584C4F;stroke-width:2;stroke-linecap:round;stroke-miterlimit:10;}
	.st7{opacity:0.1;fill:#231F20;stroke:#231F20;stroke-miterlimit:10;enable-background:new    ;}
	.st8{fill:#FFFFFF;stroke:#584C4F;stroke-width:2;stroke-linecap:round;stroke-miterlimit:10;}
</style>
<g id="Layer_5">
</g>
<g id="Layer_3">
</g>
<g>
	<g>
		<path class="st0" d="M198.5,627.6c-1.2-1.4-2.9-2.9-4.8-4.8c-1.8-1.8-3.8-3.9-5.9-6.7c0.1,0,0.1-0.1,0.1-0.1s0,0,0-0.1
			c-0.2-0.5-1.2-2.8-2.8-6.3l-14.6,4.6l-0.8,0.3l-0.8,0.4c0.3,1.1,0.5,1.8,0.6,2.4c0,0,0,0.2,0,0.2c-0.1,0.1-0.1,0.3-0.1,0.4
			c-0.2,0.5-0.2,0.9-0.2,0.9s-0.4,0.8-1,2.1c2.4,10.7-2.1,19.4-8.9,26.2c0.4,0.8,1.1,1.4,2.2,1.9c0.3,0.1,0.7,0.3,1.1,0.3
			c1.4,0.3,3.4,0.2,5.7-0.3c1.8-0.4,3.8-0.9,6-1.6c1.4-0.5,2.8-0.9,4.3-1.5c1.1-0.4,2.3-0.8,3.5-1.3c1.1-0.5,2.3-1,3.4-1.6
			c1.5-0.7,2.8-1.3,4.1-2c2-1.1,3.8-2.1,5.4-3.1c2-1.4,3.5-2.6,4.2-3.9c0.2-0.4,0.4-0.7,0.5-1c0.6-1.4,0.5-2.5-0.1-3.7
			C199.4,628.8,199,628.2,198.5,627.6z"/>
		<path class="st0" d="M147.1,522.6c-1.4-3.8-3-8.2-4.7-13.1c2-48.4,4.5-123.1,7.4-127.7l-28.1-6.5c0,0,2.9,45.4,3.3,86.9
			c0.1,5.3,0.1,10.5,0.1,15.6c-0.1,5.2-0.2,10.1-0.2,14.5v0c-0.3,10.9,0.1,15.8,1.1,16.9c0,0.4,0.1,0.8,0.1,1.2
			c4.1,8.4,9.4,20.8,14.9,34.3c13.9,33.9,29.2,74.5,29.2,74.5l16.2-5.1C186.2,614,160.6,560.6,147.1,522.6z"/>
		<g>
			<g id="XMLID_9162_">
				<path id="XMLID_9163_" class="st0" d="M147.4,653.8c0,0,5.4-2.9,5.2,2.5C152.4,661.6,144,658.9,147.4,653.8z"/>
			</g>
			<g id="XMLID_9160_">
				<path id="XMLID_9161_" class="st0" d="M150.3,651.9c0,0,5.9-3.2,5.8,2.7C155.9,660.5,146.5,657.5,150.3,651.9z"/>
			</g>
			<g id="XMLID_9158_">
				<path id="XMLID_9159_" class="st0" d="M153.8,649.2c0,0,6.9-3.7,6.7,3.2C160.3,659.3,149.4,655.7,153.8,649.2z"/>
			</g>
			<g id="XMLID_9156_">
				<path id="XMLID_9157_" class="st0" d="M158.4,646c0,0,7.9-4.2,7.7,3.7C165.9,657.6,153.4,653.6,158.4,646z"/>
			</g>
			<path id="XMLID_9155_" class="st0" d="M171.5,650.4c0,0-9.5,4.7-7.6-3.5s12.6-5.1,14.4-2.6C180.1,646.8,171.5,650.4,171.5,650.4z
				"/>
		</g>
		<path id="XMLID_9154_" class="st0" d="M128.5,492.4c0,0,2.2-0.7,2.9,1"/>
		<path id="XMLID_9153_" class="st0" d="M131.6,509.2c0,0-2.8,0.2-3.2-0.3"/>
		<g id="XMLID_9151_">
			<path id="XMLID_9152_" class="st0" d="M174.1,621.5c-3.7,7-13.1-2.3-5.2-6.7"/>
		</g>
		<g id="XMLID_9149_">
			<path id="XMLID_9150_" class="st0" d="M125.6,506.7c-6.2,4.8-11.1-7.3-2.1-8.3"/>
		</g>
	</g>
	<g>
		<g>
			<g id="XMLID_9147_">
				<path id="XMLID_9148_" class="st0" d="M117.3,309.4c-7.6,2.1-7.5-11,1.2-8.5"/>
			</g>
			<path id="XMLID_9146_" class="st0" d="M111.9,214.1c1.7,34.8,3.1,77.6,4.2,99.8c2.1,40.2-1.2,99.4-1.2,99.4l16.9-1.5
				c0,0-3.4-104.4,0-126.4c2.4-15.7-1.8-73.9-3.2-107.8"/>
			<g id="XMLID_9144_">
				<path id="XMLID_9145_" class="st0" d="M131.8,409.7c6.9,7.2,9,9.6,12.8,19s-9.9-13.5-9.1-10.1s13.6,68.6,3.1,28.5
					s-6.4-14.5-6.4-14.5c0,55-4.4,11-5.7,4.1s-10.4,36.7-8.8,15.1c1.7-21.5-0.1-23.4-3.6-5.4c-3.6,18-1.7-24.3-1.7-24.3
					s0.8-13.2,4.1-12.1"/>
			</g>
			<path id="XMLID_9143_" class="st0" d="M122.3,301.4c0,0,2.8,0.6,3,1.2"/>
			<path id="XMLID_9142_" class="st0" d="M121.9,308c0,0-2.2,0.4-2.8-1.4"/>
			<path id="XMLID_9141_" class="st1" d="M118.5,398.1c0,0-13.6,9.1,0,9.9"/>
		</g>
		<path id="XMLID_9140_" class="st2" d="M135.9,213.1c2.2,4.2-4.1,60.6-3.8,65.5c0.3,4.9-1.6,5.5-15.3,5s-7-90.3-1.5-98.4
			c2-2.9,9.6-5.6,18.7-8.1"/>
		<path class="st0" d="M225.5,336.8l-111.1-4.1c0,0,0.5,29.5,1.3,40.6c0.1,1,0.1,2.1,0.2,3.1c0.1,0.4,0.1,0.7,0.2,0.9l0.1,0
			c3.1,17,22.5,32,53.2,32.5c50.1,0.8,51.4-14.5,51.4-14.5c2.4-4.5,3.9-8.9,4.4-13c0.1,0,0.2,0,0.2,0S227.4,345.7,225.5,336.8z"/>
		<g>
			<path class="st2" d="M232,309.1c-0.1-0.8-0.2-1.5-0.3-2.2c-0.9-6-1.6-10.5-1.9-11.9c-1.4-7.3-4.4-87.8-5.9-101
				c-0.1-0.4-0.1-0.9-0.2-1.3c-0.8-3.7-3.3-6.7-6.4-9c-4.2-3.2-9.5-5.2-13-6.2c-6.7-5.6-20.4-9.4-39.2-8.6
				c-17.8,0.8-45.2,1.1-46.6,27.9c-0.2,3.1-0.2,6.5-0.1,10.4c1.4,36.2,1.4,95-2.3,110.6c-0.2,0.8-0.4,1.5-0.6,2
				c-3.2,8.5-7.1,29.9-3,37.9c0.1,0.1,0.1,0.2,0.2,0.3c1.6,2.8,4.3,3.7,8.7,1.4c0,0,5.4-1.3,9.4-1.2l77.2,4c3.2,0.5,6.1,1,8.4,1.5
				C238.7,380.2,235.3,334,232,309.1z"/>
			<path class="st2" d="M118.4,204.5c0,0.9,0.1,1.7,0.1,2.6c1.4,36.2,1.4,95-2.3,110.6c-0.2,0.8-0.4,1.5-0.6,2
				c-3.2,8.5-7.1,29.9-3,37.9c0.1,0.1,0.1,0.2,0.2,0.3c1.6,2.8,4.3,3.7,8.7,1.4"/>
			<path class="st2" d="M130.8,358.1l77.2,4c3.2,0.5,6.1,1,8.4,1.5c22.3,16.5,18.9-29.7,15.6-54.5c-0.1-0.8-0.2-1.5-0.3-2.2
				c-0.9-6-1.6-10.5-1.9-11.9c-1.4-7.3-4.4-87.8-5.9-101c-0.1-0.4-0.1-0.9-0.2-1.3c-0.8-3.7-3.3-6.7-6.4-9c-4.2-3.2-9.5-5.2-13-6.2
				c-6.7-5.6-20.4-9.4-39.2-8.6c-16.4,0.7-40.8,1-45.8,21.9"/>
		</g>
		<path id="XMLID_9139_" class="st0" d="M226.9,251.4c0,0-8.7,93.6-5.1,107.3"/>
		<g>
			<path id="XMLID_9138_" class="st3" d="M186.3,166.6c0.2-3.4-0.9-13.4-1.1-16.6c-0.2-2.9-0.6-5.4-1.2-7.6
				c11.4-19.5-20.1-41.8-31.3-16.8c-3.5,7.8-3.1,22.9-3,25.5c0.1,3.4,0.1,14.6,0.1,17.5c0.1,16.3,24.2,29.2,33.8,8"/>
			<path id="XMLID_9137_" class="st4" d="M178.2,184.2c-11.1,9.6-28.4-1.8-28.4-15.5c0-2.9-0.1-14.1-0.2-17.5
				c-0.1-2.6-0.5-17.7,3-25.5c11.2-25,42.7-2.7,31.3,16.8c0.6,2.1,1.1,4.6,1.2,7.6c0.2,3.2,1.4,13.1,1.1,16.6l-2.8,10.1
				c-0.5,1.1-1.1,2.2-1.6,3.1"/>
		</g>
		<g>
			<g id="XMLID_9135_">
				<path id="XMLID_9136_" class="st0" d="M218.8,301.4c6.1-5,11.2,7.1,2.2,8.2"/>
			</g>
			<path id="XMLID_9134_" class="st0" d="M225.8,232.5c-1.3,30.4-2.4,63-3.4,81.4c-2.1,40.2,1.1,99.4,1.1,99.4l-16.9-1.5
				c0,0,3.4-104.4,0-126.4c-2-12.6,0.4-52.4,2.1-85.2"/>
			<path id="XMLID_9133_" class="st0" d="M215.7,301.7c0,0,2.3,0.1,2.3,2"/>
			<path id="XMLID_9132_" class="st0" d="M215,308.1c0,0-2.7-0.9-2.9-1.5"/>
			<g id="XMLID_9018_">
				<path id="XMLID_9131_" class="st3" d="M202.8,440.6c2.9,0.8,4.9,0.9,6.4,0.8c-0.8,10.8,4.4,7.6,6.9,5.5l1.1,0.5
					c3.4,6.4,7.6,0.1,8.9-2l0.1,1.5c5.6,2.9,5.3-3.2,4.8-6.5c0.6,1,2,2,5.9,1.9c7.3-0.1-14.1-35.1-14.1-35.1l-16.2,3.8
					C206.6,411,188,436.9,202.8,440.6z"/>
				<path id="XMLID_9069_" class="st0" d="M206.6,411c0,0-18.6,25.9-3.8,29.6c2.9,0.8,4.9,0.9,6.4,0.8c-0.8,10.8,4.4,7.6,6.9,5.5
					l1.1,0.5c3.4,6.4,7.6,0.1,8.9-2l0.1,1.5c5.6,2.9,5.3-3.2,4.8-6.5c0.6,1,2,2,5.9,1.9c7.3-0.1-14.1-35.1-14.1-35.1"/>
				<g id="XMLID_9022_">
					<g id="XMLID_9025_">
						<path id="XMLID_9068_" class="st1" d="M222.9,407.2c0,0,21.4,35,14.1,35.1c-7.3,0.1-6.1-3.5-6.2-3.8c0,0,3.1,12.2-4.4,8.4"/>
						<path id="XMLID_9067_" class="st1" d="M226.4,444.8c0,0-5.2,10.5-9.4,2.1"/>
						<path id="XMLID_9028_" class="st1" d="M206.6,411c0,0-18.6,25.9-3.8,29.6s7.4-6.6,3.2-6.2"/>
						<path id="XMLID_9027_" class="st1" d="M217.4,445.6c0,0-9.8,10.4-8.1-5.5l0.5-8"/>
					</g>
					<path id="XMLID_9023_" class="st1" d="M220.2,406.2c0,0,10-10.1,0-10.9"/>
				</g>
				<path id="XMLID_9021_" class="st0" d="M216.6,431.6c0,0-0.4,4.9,0.4,7.5"/>
				<path id="XMLID_9020_" class="st0" d="M224.5,437.5c0,0,0.1,3.5,0.9,3.5"/>
				<path id="XMLID_9019_" class="st1" d="M225.3,423.4c0.7,2.2,3.6,7,3.6,7"/>
			</g>
		</g>
		<path id="XMLID_9017_" class="st2" d="M201.1,216c-2.2,4.2,4.1,60.6,3.8,65.5c-0.3,4.9,1.6,5.5,15.3,5c13.7-0.5,7-90.3,1.4-98.4
			c-1.9-2.9-9.6-5.6-18.7-8.1"/>
		<g>
			<path class="st5" d="M195.7,202.7c0,0-13.7-5.1-14.6-0.4c-0.9,4.8-5.4,20.1,2.8,21.1c8.1,1.1,11.8,0.8,12.1-6.1
				S195.7,202.7,195.7,202.7z"/>
			<g>
				<path id="XMLID_9016_" class="st0" d="M195.2,203c0,0,1.8,1.4,0.8,2.9"/>
				<path id="XMLID_9015_" class="st0" d="M182.7,202.4c0,0-2.5,1.2-3.2,2.4"/>
				<path id="XMLID_9014_" class="st0" d="M195.6,214.1c0,0,0.8-2.6,0.3-4"/>
				<path id="XMLID_9013_" class="st0" d="M182,222.6c0,0,2.6,1.1,3.9,0.8"/>
				<path id="XMLID_9012_" class="st0" d="M194,220.5c0,0-0.9,2.1-2.6,1.4"/>
				<path id="XMLID_9011_" class="st0" d="M180,209.7c0,0-0.4,1.9-0.9,2.4"/>
				<line id="XMLID_9010_" class="st4" x1="189.8" y1="201.8" x2="187.1" y2="201.7"/>
				<path id="XMLID_9009_" class="st0" d="M179.1,216.8c0,0-0.6,2.7-0.1,4"/>
			</g>
			<g>
				<path id="XMLID_9008_" class="st0" d="M148.9,391c0,0-1.7-2.9-0.4-4.6"/>
				<path id="XMLID_9007_" class="st0" d="M152.8,378.7c0,0-1.9,2-2.2,3.4"/>
				<path id="XMLID_9006_" class="st0" d="M151.6,395.8c0,0,0.8,2.6,1.8,3.5"/>
			</g>
		</g>
		<g id="XMLID_8927_">
			<g id="XMLID_8981_">
				<path id="XMLID_9005_" class="st0" d="M129.3,85.4c0,0-17.5-23.2-17.9-5.1c-0.4,18.1,4.5,37.6,11,35.2s6.5-7.8,6.5-7.8"/>
				<path id="XMLID_9004_" class="st0" d="M123.6,86.6c0,0-6.8-10.6-8.6-5.6"/>
				<path id="XMLID_8982_" class="st0" d="M126.2,94c0,0-10.1-2.7-8.6,3.2c1.4,5.8,5.1,9.7,6.8,3.2"/>
			</g>
			<path id="XMLID_8978_" class="st6" d="M181.8,4c0,0-6.6,5.8,1.6,8.4S189,1,181.8,4z"/>
			<path id="XMLID_8977_" class="st0" d="M168,18c0,0,52.4,3.8,45.2,65.7s-5.4,73.3-35,79.6s-45.8-15.4-49.1-31.9S102.2,26.2,168,18
				z"/>
			<path class="st7" d="M192.6,27.2c6.6,9.8,10.7,23.9,8.3,44.3c-7.4,61.9-5.4,73.3-34.9,79.6c-12.7,2.7-22.9,0.3-30.7-4.6
				c7.7,11.8,21.9,21.4,42.9,16.9c29.6-6.3,27.6-17.6,34.9-79.6C216.8,52.2,205,35.7,192.6,27.2z"/>
			<path id="XMLID_8976_" class="st2" d="M210.1,32.8c-0.2-2-1.1-4.6-2.9-8c0,0-0.1,0-0.1,0l0,0c-0.4-0.7-0.8-1.4-1.3-2.1
				c-5.9-9.2-15.4-14.5-24.2-17.2c-37.6-16.9-41.4,18.8-41.5,32.2c0,1.3,16.9-0.2,32.4-4c19.6,7.9,38.1,16.7,38.1,16.7
				S212,38.9,210.1,32.8z"/>
			<path id="XMLID_8975_" class="st0" d="M162.5,89.1c0,0,9.4,7,21.5,2.7"/>
			<path id="XMLID_8974_" class="st0" d="M139.6,89.4c0,0-15.1,3.2-18.3,1.8"/>
			<path id="XMLID_8973_" class="st0" d="M149.7,157.9c0,0-6.2,5.8,6.7,8.3s21.3-0.9,18.8-5.7"/>
			<path id="XMLID_8972_" class="st2" d="M130.9,42.7c0,0,20.1-8.2,43.6-3s35.9,10.7,35.9,10.7c-7.6-26-53.2-26.1-76.2-24.7
				c-23.1,1.5-16.9,10.3-16.9,10.3S120.6,40.2,130.9,42.7z"/>
			<path id="XMLID_8971_" class="st0" d="M130.9,42.7c0,0-39.8-11,15.3-13.5s64.2,21.2,64.2,21.2S159.4,28.3,130.9,42.7z"/>
			<g>
				<path id="XMLID_8970_" class="st0" d="M159.2,93.7c0,0-9.4-11.8-9.2-18.3"/>
				<g id="XMLID_8967_">
					<path id="XMLID_8969_" class="st0" d="M142.7,95c0.3,3.1,1.3,5.2,3.3,5.7c1.1,0.2,2.1,0.2,2.9-0.1c0.6-0.2,1.1-0.4,1.6-0.6"/>
					<path id="XMLID_8968_" class="st0" d="M152.9,57.6c0,0-7.2,19.3-9.2,32.8"/>
				</g>
				<g id="XMLID_8961_">
					<path id="XMLID_8966_" class="st0" d="M139.3,96.6c0,0-6.9,8.1,4.2,10.4"/>
					<path id="XMLID_8965_" class="st0" d="M158.5,96.6c0,0,7.4,6.2-3.1,10.4"/>
					<path id="XMLID_8964_" class="st0" d="M153,101.7c1.1,0.3,2.6-1.9,3.8,0c1.2,1.9-0.1,1.3-1.7,1.8
						C153.6,103.8,152,101.3,153,101.7z"/>
					<path id="XMLID_8963_" class="st0" d="M142.4,104.4c-2.1-0.1-2.6-1.8-1.5-2.7c0.4-0.3,1.6,0.2,2.8,0.9
						C144.6,103.2,142.4,104.4,142.4,104.4z"/>
					<path id="XMLID_8962_" class="st0" d="M150,92.4c0,0,2.2-0.1,2.7,0.7"/>
				</g>
				<path id="XMLID_8960_" class="st0" d="M135.2,101.6c0,0-6.1,3.1-7.8,3.7"/>
				<path id="XMLID_8959_" class="st0" d="M162.9,99.9c0,0,7.1,3.4,7.8,3.3"/>
			</g>
			<path id="XMLID_8958_" class="st0" d="M193.2,69.5c0,0,1,2.1-0.6,3"/>
			<path id="XMLID_8957_" class="st0" d="M187.6,90.6c0,0-0.4,1.8-1,2.5"/>
			<path id="XMLID_8956_" class="st0" d="M188.2,54c0,0,0.8-3.5,0-3.5"/>
			<path id="XMLID_8955_" class="st0" d="M137.1,42.2c0,0,3.3,0.5,2.9,1"/>
			<path id="XMLID_8954_" class="st0" d="M157.4,48.4c0,0,3.8-0.5,4.1-1.3"/>
			<path id="XMLID_8953_" class="st0" d="M138.6,142.7c0,0,2.8,0.6,3,1.2"/>
			<path id="XMLID_8952_" class="st0" d="M161.9,143.9c0,0-2.6,1.2-3.3,2.4"/>
			<path id="XMLID_8951_" class="st0" d="M135.9,82.2"/>
			<path id="XMLID_8950_" class="st0" d="M154.2,84.4"/>
			<line id="XMLID_8949_" class="st4" x1="180.4" y1="104.8" x2="183.1" y2="104.1"/>
			<path id="XMLID_8948_" class="st0" d="M205.7,91.9c0,0,19.4-21.6,18.4-3.6c-1.1,18-7.7,37.1-13.9,34.1s-5.9-8.3-5.9-8.3"/>
			<path id="XMLID_8947_" class="st0" d="M211.3,93.7c0,0,7.7-10,9-4.8"/>
			<path id="XMLID_8946_" class="st0" d="M208.1,100.8c0,0,10.2-1.8,8.3,3.9s-5.9,9.2-7.1,2.7"/>
			<g>
				<path id="XMLID_8945_" class="st8" d="M123.4,50.5c0,0,35.8-3.5,22.8,25.4S93.4,70.5,123.4,50.5z"/>
				<path id="XMLID_8944_" class="st6" d="M125.1,65.3c0,0,5.3-2.2,4.7,3.4C129.2,74.3,121.4,70.1,125.1,65.3z"/>
				<path id="XMLID_8943_" class="st8" d="M163.2,54.5c0,0-26.2,23.1,6.4,33.7S191.8,42.7,163.2,54.5z"/>
				<path id="XMLID_8942_" class="st6" d="M181.4,68.6c0,0,5.4-2.2,4.8,3.4S177.7,73.3,181.4,68.6z"/>
				<path id="XMLID_8941_" class="st6" d="M165.3,49.8c0,0-12.1,1.4-3.4,9.9s25.2,0.3,24.3-2.7S183.7,48.9,165.3,49.8z"/>
				<path id="XMLID_8940_" class="st6" d="M130.2,44.7c0,0-18.6-1-10,9.3s23.9-0.2,25.1-4.7S130.2,44.7,130.2,44.7z"/>
				<g id="XMLID_8937_">
					<path id="XMLID_8939_" class="st0" d="M185.1,87.1c0.2,0.1,0.4,0.2,0.7,0.2c0.9,0.2,1.8,0.3,2.8-0.7c2.2-2.4-2.9-3.2-2.9-3.2
						l-5.7-0.4c0,0-12.1-0.8-19.1,1.1c0,0,10.5,5.6,16.9,5.2c0.8-0.1,1.4-0.2,2.1-0.4C180.3,88.7,184,86.8,185.1,87.1z"/>
					<path id="XMLID_8938_" class="st0" d="M127.3,80.1c0,0,7-1.3,14.9,1.1c0,0-3.9,8.4-16.4,4.6c-4.1-1.2-4.9,1.1-7.2-1.3
						c-2.2-2.4,2.9-3.2,2.9-3.2L127.3,80.1z"/>
				</g>
			</g>
			<g id="XMLID_8932_">
				<path id="XMLID_8936_" class="st6" d="M135.7,121.2c0,0-19.2,2.5-8.5,9.5C137.9,137.6,135.7,121.2,135.7,121.2z"/>
				<path id="XMLID_8935_" class="st6" d="M132.8,115.5c0,0-15.8-0.8-8.5,7.3c7.3,8.2,20.3-0.2,21.4-3.7S132.8,115.5,132.8,115.5z"
					/>
				<path id="XMLID_8934_" class="st6" d="M164.5,119.6c0,0-7.7-2.6-6.4,7.2c1.3,9.8,14.7,8.1,15.5,5.3S175.7,124.6,164.5,119.6z"/>
				<path id="XMLID_8933_" class="st6" d="M157.9,117c0,0-22.5-2.8-0.3,8S183.6,120.4,157.9,117z"/>
			</g>
			<g id="XMLID_8928_">
				<path id="XMLID_8931_" class="st0" d="M137.8,130.6c0,0,11.8,11.6,18.3,0"/>
				<path id="XMLID_8930_" class="st0" d="M140.5,128.7c0,0,3.2-3.5,5.7,0"/>
				<path id="XMLID_8929_" class="st0" d="M151.8,128.7c0,0-3.2-3.5-5.6,0"/>
			</g>
		</g>
		<path id="XMLID_8926_" class="st0" d="M180.7,187.1c0.9-0.3,1.7-0.9,2.4-2.2"/>
		<path id="XMLID_8925_" class="st0" d="M149.1,180.1c0,0,0.2,1.1,1,2.1"/>
		<path id="XMLID_8924_" class="st0" d="M156.1,189.6c0.2,0.1,0.6,0.3,0.9,0.4"/>
		<path id="XMLID_8923_" class="st2" d="M129.2,332.5c0,0,2.8-93.9-1.7-107.4"/>
	</g>
	<g>
		<path class="st0" d="M207.2,663.4c-0.6-1.8-1.6-3.8-2.6-6.3c-1-2.3-2.1-5.1-2.9-8.5c0.1,0,0.2,0,0.2,0s0,0,0-0.1
			c0-0.5-0.1-3-0.2-6.9l-15.2-1.3l-0.8,0l-0.9,0c-0.1,1.1-0.2,1.9-0.3,2.4c0,0-0.1,0.2-0.1,0.2c-0.1,0.1-0.2,0.2-0.2,0.3
			c-0.4,0.4-0.6,0.7-0.6,0.7s-0.7,0.6-1.7,1.6c-1.9,10.8-9.4,17.1-18.2,20.8c0.1,0.9,0.5,1.8,1.3,2.5c0.2,0.2,0.6,0.5,0.9,0.8
			c1.1,0.8,3.1,1.5,5.4,2c1.8,0.3,3.9,0.7,6.2,0.8c1.4,0.1,2.9,0.2,4.6,0.3c1.2,0,2.4,0.1,3.7,0.2c1.2,0,2.5,0,3.7-0.2
			c1.6,0,3.1-0.2,4.6-0.3c2.3-0.2,4.3-0.5,6.1-0.8c2.4-0.5,4.2-1.1,5.4-2c0.3-0.2,0.6-0.5,0.9-0.8c1.1-1,1.4-2.2,1.4-3.4
			C207.6,664.8,207.5,664.1,207.2,663.4z"/>
		<path class="st0" d="M180.3,386.6c0,0,3.6,57.8,3.4,102.4c-0.1,5.2-0.2,10.1-0.2,14.5v0c-0.3,10.9,0.2,15.8,1.1,16.9
			c2.9,25.8-0.3,124.2-0.3,124.2l16.9,1.5c0,0-3.2-59.2-1.2-99.4c2.1-40.2,5.1-148,8.5-153.6"/>
		<g>
			<g id="XMLID_8921_">
				<path id="XMLID_8922_" class="st0" d="M150,668.1c0,0,6.1-0.6,3.8,4.3C151.7,677.2,144.9,671.4,150,668.1z"/>
			</g>
			<g id="XMLID_8919_">
				<path id="XMLID_8920_" class="st0" d="M153.5,667.4c0,0,6.7-0.7,4.3,4.8C155.3,677.5,147.8,671.1,153.5,667.4z"/>
			</g>
			<g id="XMLID_8917_">
				<path id="XMLID_8918_" class="st0" d="M157.7,666.2c0,0,7.8-0.8,5,5.5C159.9,678.1,151.2,670.6,157.7,666.2z"/>
			</g>
			<g id="XMLID_8915_">
				<path id="XMLID_8916_" class="st0" d="M163.1,665.1c0,0,8.9-0.8,5.7,6.3C165.6,678.6,155.6,670.1,163.1,665.1z"/>
			</g>
			<path id="XMLID_8914_" class="st0" d="M173.6,674.2c0,0-10.6,0.7-5.7-6.2c4.9-6.9,13.6,0.2,14.3,3.1
				C182.9,674.1,173.6,674.2,173.6,674.2z"/>
		</g>
		<path id="XMLID_8913_" class="st0" d="M194.4,511.7c0,0,2.3,0.1,2.3,2"/>
		<path id="XMLID_8912_" class="st0" d="M190.8,528.4c0,0-2.7-0.8-2.9-1.5"/>
		<g id="XMLID_8910_">
			<path id="XMLID_8911_" class="st0" d="M187,648.4c-6.1,5-11.2-7.1-2.2-8.2"/>
		</g>
		<g id="XMLID_8908_">
			<path id="XMLID_8909_" class="st0" d="M186.2,523.8c-7.6,2.1-7.4-11,1.2-8.5"/>
		</g>
	</g>
</g>
</svg>
