<?xml version="1.0" encoding="utf-8"?>
<!-- Generator: Adobe Illustrator 22.1.0, SVG Export Plug-In . SVG Version: 6.00 Build 0)  -->
<svg version="1.1" id="Layer_1" xmlns="http://www.w3.org/2000/svg" xmlns:xlink="http://www.w3.org/1999/xlink" x="0px" y="0px"
	 viewBox="0 0 282.3 48.2" style="enable-background:new 0 0 282.3 48.2;" xml:space="preserve">
<style type="text/css">
	.st0{fill:#FDF7E0;stroke:#584C4F;stroke-miterlimit:10;}
	.st1{fill:#FFD767;stroke:#584C4F;stroke-miterlimit:10;}
</style>
<g id="Layer_5">
</g>
<g id="Layer_3">
</g>
<g>
	<g>
		<path id="XMLID_204_" class="st0" d="M110.7,34.4c0,0-0.1,0.2,0.2,0.2c9.3,0.2,24.1,0,24.1,0c0.3,0,0.2-0.2,0.2-0.2
			c0.4-5.3,0-15.1,0-15.1s0.1-0.2-0.2-0.2c-14.5-0.4-24.3,0-24.3,0c-0.3,0-0.2,0.2-0.2,0.2S110.5,27.5,110.7,34.4z"/>
		<path id="XMLID_203_" class="st0" d="M113.5,22.1c0,0-0.1-0.4,0.3-0.4c0,0,6.1-0.5,13.6,0c0.4,0,0.3,0.4,0.3,0.4s0.1,5.5-0.1,9.4
			c0,0,0.1,0.4-0.3,0.4c0,0-5.8,0.3-13.4,0c-0.4,0-0.3-0.4-0.3-0.4L113.5,22.1z"/>
		<g>
			<path class="st0" d="M116.2,13.6c1.5,1.6,3.3,3.4,5,5c0.1-0.1,0.1-0.1,0.2-0.2C115.4,12.5,116.2,13.6,116.2,13.6z"/>
			<path class="st0" d="M126.4,13.4c-1.6,1.5-3.4,3.3-5,5c0.1,0.1,0.1,0.1,0.2,0.2C127.5,12.6,126.4,13.4,126.4,13.4z"/>
			<path class="st0" d="M121.4,18.4c-0.1,0.1-0.1,0.1-0.2,0.2c0.1,0.1,0.1,0.1,0.2,0.2c0.1-0.1,0.1-0.1,0.2-0.2
				C121.6,18.5,121.5,18.4,121.4,18.4z"/>
		</g>
	</g>
	<g>
		<g>
			<path class="st0" d="M206.3,18.9c0,0-0.3-0.6-0.9-0.5c0,0-23.9,0-24.6,0c-0.6,0-0.9,0.5-0.9,0.5s0,13.5,0.3,14
				c0,0,0.3,0.6,0.9,0.5c0,0,3.6,0,8,0.1c0,0,0-0.1,0-0.1c0.1-0.1,3.9-3.8,3.9-3.8c0.1-0.1,0.3,0,0.3,0c0.5,0.4,3.8,3.9,3.8,3.9
				s0,0.1,0,0.1c4,0,7.3,0,8-0.1c0.6-0.1,0.9-0.5,0.9-0.5S206.5,20.5,206.3,18.9z"/>
			<path class="st0" d="M193.3,29.6c0,0-0.2-0.1-0.3,0c0,0-3.7,3.7-3.9,3.8c0,0,0,0.1,0,0.1c2.6,0,5.4,0,8,0c0-0.1,0-0.1,0-0.1
				S193.8,30,193.3,29.6z"/>
		</g>
		<g>
			<path class="st0" d="M190.6,26c0-0.1,0-0.1,0-0.2c0-0.2,0-0.5-0.1-0.7c-0.1-0.3-0.1-0.5-0.2-0.8c0,0,0,0-0.1-0.1
				c-0.1-0.4-0.4-0.8-0.7-1c-0.3-0.3-0.6-0.5-1-0.7c-0.2-0.1-0.4-0.2-0.7-0.3c0,0-0.2,0-0.4,0c-0.3-0.1-0.5-0.1-0.8-0.1
				c-0.1,0-0.1,0-0.2,0c-0.2,0-0.5,0-0.7,0.1c-0.3,0.1-0.5,0.1-0.8,0.2c0,0,0,0-0.1,0.1c-0.4,0.1-0.8,0.4-1,0.7
				c-0.3,0.3-0.5,0.6-0.7,1c-0.1,0.2-0.2,0.4-0.3,0.7c0,0,0,0.2,0,0.4c-0.1,0.3-0.1,0.5-0.1,0.8c0,0.1,0,0.1,0,0.2
				c0,0.2,0,0.5,0.1,0.7c0.1,0.3,0.1,0.5,0.2,0.8c0,0,0,0,0.1,0.1c0.1,0.4,0.4,0.8,0.7,1c0.3,0.3,0.6,0.5,1,0.7
				c0.2,0.1,0.4,0.2,0.7,0.3c0,0,0.2,0,0.4,0c0.3,0.1,0.5,0.1,0.8,0.1c0.1,0,0.1,0,0.2,0c0.2,0,0.5,0,0.7-0.1
				c0.3-0.1,0.5-0.1,0.8-0.2c0,0,0,0,0.1-0.1c0.4-0.1,0.8-0.4,1-0.7c0.3-0.3,0.5-0.6,0.7-1c0.1-0.2,0.2-0.4,0.3-0.7c0,0,0-0.2,0-0.4
				C190.6,26.5,190.6,26.2,190.6,26z"/>
			<path class="st0" d="M203.8,26c0-0.1,0-0.1,0-0.2c0-0.2,0-0.5-0.1-0.7c-0.1-0.3-0.1-0.5-0.2-0.8c0,0,0,0-0.1-0.1
				c-0.1-0.4-0.4-0.8-0.7-1c-0.3-0.3-0.6-0.5-1-0.7c-0.2-0.1-0.4-0.2-0.7-0.3c0,0-0.2,0-0.4,0c-0.3-0.1-0.5-0.1-0.8-0.1
				c-0.1,0-0.1,0-0.2,0c-0.2,0-0.5,0-0.7,0.1c-0.3,0.1-0.5,0.1-0.8,0.2c0,0,0,0-0.1,0.1c-0.4,0.1-0.8,0.4-1,0.7
				c-0.3,0.3-0.5,0.6-0.7,1c-0.1,0.2-0.2,0.4-0.3,0.7c0,0,0,0.2,0,0.4c-0.1,0.3-0.1,0.5-0.1,0.8c0,0.1,0,0.1,0,0.2
				c0,0.2,0,0.5,0.1,0.7c0.1,0.3,0.1,0.5,0.2,0.8c0,0,0,0,0.1,0.1c0.1,0.4,0.4,0.8,0.7,1c0.3,0.3,0.6,0.5,1,0.7
				c0.2,0.1,0.4,0.2,0.7,0.3c0,0,0.2,0,0.4,0c0.3,0.1,0.5,0.1,0.8,0.1c0.1,0,0.1,0,0.2,0c0.2,0,0.5,0,0.7-0.1
				c0.3-0.1,0.5-0.1,0.8-0.2c0,0,0,0,0.1-0.1c0.4-0.1,0.8-0.4,1-0.7c0.3-0.3,0.5-0.6,0.7-1c0.1-0.2,0.2-0.4,0.3-0.7c0,0,0-0.2,0-0.4
				C203.8,26.5,203.8,26.2,203.8,26z"/>
		</g>
	</g>
	<path id="XMLID_202_" class="st0" d="M78.1,12.4c0,0-0.2-0.1-0.2,0.2c-0.2,9.9,0,25.6,0,25.6c0,0.3,0.2,0.2,0.2,0.2
		c5.6,0.4,16,0,16,0s0.2,0.1,0.2-0.2c0.4-15.3,0-25.8,0-25.8c0-0.3-0.2-0.2-0.2-0.2S85.3,12.2,78.1,12.4z"/>
	<g>
		<path class="st0" d="M236.2,37.1c-0.6-3.5-1.6-5-2.8-5.7c0,0-7.2-2.7-9.3,4.2c-0.2,0.6-0.3,1.1-0.3,1.6H236.2z"/>
		<path class="st0" d="M241.5,15.3c0,0,0.1-0.2-0.2-0.2c-13.5-0.6-22.7,0-22.7,0c-0.3,0-0.2,0.2-0.2,0.2s0,7.7,0.1,15.7h23.1
			L241.5,15.3z"/>
		<path class="st0" d="M218.7,34.8c8.7,0.2,22.5,0,22.5,0c0.3,0,0.2-0.2,0.2-0.2c0.1-0.7,0.1-1.5,0.1-2.4v-1.4h-23.1
			c0,1.3,0,2.5,0.1,3.7C218.5,34.6,218.5,34.8,218.7,34.8z"/>
		<path class="st0" d="M238.5,17.9c0,0,0.1-0.2-0.1-0.2c-9.9-0.4-16.6,0-16.6,0c-0.2,0-0.1,0.2-0.1,0.2s0,5,0.1,10.3h16.9
			L238.5,17.9z"/>
	</g>
	<path class="st1" d="M105.7,25.8c0,0,0.1-1.2,0-2.2c0.3-2.2,0.2-9.7,0-13.6c0,0,0.4-4.3-1.2-3.1c-0.6,0.5-0.8,2.2-0.8,4
		c0,1.9-0.1,7.8,0.1,11.7c0,0-0.1,1.2,0,2.2c-0.3,2.2-0.2,9.7,0,13.6c0,0-0.4,4.3,1.2,3.1c0.5-0.4,0.8-1.8,0.8-3.4
		C105.8,36.1,105.8,29.6,105.7,25.8z"/>
	<path class="st1" d="M70.6,25.8c0,0,0.1-1.2,0-2.2c0.3-2.2,0.2-9.7,0-13.6c0,0,0.4-4.3-1.2-3.1c-0.6,0.5-0.8,2.2-0.8,4
		c0,1.9-0.1,7.8,0.1,11.7c0,0-0.1,1.2,0,2.2c-0.3,2.2-0.2,9.7,0,13.6c0,0-0.4,4.3,1.2,3.1c0.5-0.4,0.8-1.8,0.8-3.4
		C70.7,36.1,70.7,29.6,70.6,25.8z"/>
	<g>
		<path id="XMLID_201_" class="st0" d="M55.3,11.3c0,0,0.3-0.1,0.3,0.5c0,0,0.4,11.3,0,25.3c0,0.7-0.3,0.5-0.3,0.5s-4.2,0.1-7.2-0.2
			c0,0-0.3,0.1-0.3-0.5c0,0-0.3-10.8,0-24.8c0-0.7,0.3-0.5,0.3-0.5L55.3,11.3z"/>
		<path id="XMLID_200_" class="st0" d="M56.1,16.8c0,0-9.5-3.5-12.2,5.5c-2.6,9,5.4,10.8,6.5,10.8c1.1-0.1,10.4-0.8,9.7-6.8
			C59.4,20.2,57.9,17.8,56.1,16.8z"/>
		<path id="XMLID_199_" class="st0" d="M47.6,19.6c0,0-5,5.6,0.5,9.8s8.9-0.8,9.1-1.6c0.2-0.8,2.2-7.4-2.1-8.4
			C50.8,18.3,48.8,18.7,47.6,19.6z"/>
	</g>
	<path id="XMLID_198_" class="st0" d="M79.6,14.8c0,0-0.1-0.9,0.3-1c0,0,5.5-1.1,12.3,0c0.3,0.1,0.3,1,0.3,1s0.1,12.2-0.1,20.7
		c0,0,0.1,0.9-0.3,1c0,0-5.3,0.8-12.1,0c-0.3,0-0.3-1-0.3-1L79.6,14.8z"/>
	<g>
		<path id="XMLID_197_" class="st0" d="M145,34.5c0,0-0.1,0.2,0.2,0.2c9.9,0.2,25.6,0,25.6,0c0.3,0,0.2-0.2,0.2-0.2
			c0.4-5.6,0-16,0-16s0.1-0.2-0.2-0.2c-15.3-0.4-25.8,0-25.8,0c-0.3,0-0.2,0.2-0.2,0.2S144.8,27.3,145,34.5z"/>
		<path id="XMLID_196_" class="st0" d="M146.8,20.5c0,0-0.1-0.5,0.4-0.6c0,0,8.3-0.6,18.5,0c0.5,0,0.4,0.6,0.4,0.6s0.1,7-0.2,12
			c0,0,0.1,0.5-0.4,0.6c0,0-7.9,0.4-18.2,0c-0.5,0-0.4-0.6-0.4-0.6L146.8,20.5z"/>
		<path id="XMLID_195_" class="st0" d="M167.9,26.1c0,0-0.4,1.1,0.6,1.4c1,0.3,1.2-0.6,1.2-0.7c0-0.1-0.1-1.2-0.8-1.1
			S168.1,25.9,167.9,26.1z"/>
	</g>
	<path class="st1" d="M176.7,25.8c0,0,0.1-1.2,0-2.2c0.3-2.2,0.2-9.7,0-13.6c0,0,0.4-4.3-1.2-3.1c-0.6,0.5-0.8,2.2-0.8,4
		c0,1.9-0.1,7.8,0.1,11.7c0,0-0.1,1.2,0,2.2c-0.3,2.2-0.2,9.7,0,13.6c0,0-0.4,4.3,1.2,3.1c0.5-0.4,0.8-1.8,0.8-3.4
		C176.8,36.1,176.8,29.6,176.7,25.8z"/>
	<path class="st1" d="M141.6,25.8c0,0,0.1-1.2,0-2.2c0.3-2.2,0.2-9.7,0-13.6c0,0,0.4-4.3-1.2-3.1c-0.6,0.5-0.8,2.2-0.8,4
		c0,1.9-0.1,7.8,0.1,11.7c0,0-0.1,1.2,0,2.2c-0.3,2.2-0.2,9.7,0,13.6c0,0-0.4,4.3,1.2,3.1c0.5-0.4,0.8-1.8,0.8-3.4
		C141.7,36.1,141.7,29.6,141.6,25.8z"/>
	<path class="st1" d="M247.7,25.8c0,0,0.1-1.2,0-2.2c0.3-2.2,0.2-9.7,0-13.6c0,0,0.4-4.3-1.2-3.1c-0.6,0.5-0.8,2.2-0.8,4
		c0,1.9-0.1,7.8,0.1,11.7c0,0-0.1,1.2,0,2.2c-0.3,2.2-0.2,9.7,0,13.6c0,0-0.4,4.3,1.2,3.1c0.5-0.4,0.8-1.8,0.8-3.4
		C247.8,36.1,247.8,29.6,247.7,25.8z"/>
	<path class="st1" d="M212.6,25.8c0,0,0.1-1.2,0-2.2c0.3-2.2,0.2-9.7,0-13.6c0,0,0.4-4.3-1.2-3.1c-0.6,0.5-0.8,2.2-0.8,4
		c0,1.9-0.1,7.8,0.1,11.7c0,0-0.1,1.2,0,2.2c-0.3,2.2-0.2,9.7,0,13.6c0,0-0.4,4.3,1.2,3.1c0.5-0.4,0.8-1.8,0.8-3.4
		C212.7,36.1,212.7,29.6,212.6,25.8z"/>
	<path class="st1" d="M36.6,25.8c0,0,0.1-1.2,0-2.2c0.3-2.2,0.2-9.7,0-13.6c0,0,0.4-4.3-1.2-3.1c-0.6,0.5-0.8,2.2-0.8,4
		c0,1.9-0.1,7.8,0.1,11.7c0,0-0.1,1.2,0,2.2c-0.3,2.2-0.2,9.7,0,13.6c0,0-0.4,4.3,1.2,3.1c0.5-0.4,0.8-1.8,0.8-3.4
		C36.7,36.1,36.7,29.6,36.6,25.8z"/>
</g>
</svg>
