<?xml version="1.0" encoding="utf-8"?>
<!-- Generator: Adobe Illustrator 22.1.0, SVG Export Plug-In . SVG Version: 6.00 Build 0)  -->
<svg version="1.1" id="Layer_1" xmlns="http://www.w3.org/2000/svg" xmlns:xlink="http://www.w3.org/1999/xlink" x="0px" y="0px"
	 viewBox="0 0 94.3 73.2" style="enable-background:new 0 0 94.3 73.2;" xml:space="preserve">
<style type="text/css">
	.st0{opacity:0.1;fill:#231F20;stroke:#231F20;stroke-miterlimit:10;enable-background:new    ;}
	.st1{fill:#E6C86B;stroke:#584C4F;stroke-miterlimit:10;}
	.st2{fill:#FCDE82;stroke:#584C4F;stroke-miterlimit:10;}
	.st3{fill:none;stroke:#584C4F;stroke-miterlimit:10;}
	.st4{fill:#FCDB77;stroke:#584C4F;stroke-miterlimit:10;}
	.st5{fill:#FFD767;stroke:#584C4F;stroke-miterlimit:10;}
	.st6{fill:#FFFAF2;stroke:#584C4F;stroke-miterlimit:10;}
	.st7{fill:#FFF5D0;stroke:#584C4F;stroke-miterlimit:10;}
	.st8{fill:#FFF0C2;stroke:#584C4F;stroke-miterlimit:10;}
	.st9{fill:#FDF7E0;stroke:#584C4F;stroke-miterlimit:10;}
	.st10{fill:#FBE391;stroke:#584C4F;stroke-miterlimit:10;}
	.st11{fill:#FBE7A0;stroke:#584C4F;stroke-miterlimit:10;}
	.st12{fill:#FDEBB0;stroke:#584C4F;stroke-miterlimit:10;}
</style>
<g id="Layer_5">
</g>
<g id="Layer_3">
</g>
<g>
	<path class="st0" d="M71.6,16.8c-0.3,1.6,1.5,6.3,4.5,5.8c1.2-0.2,2-1.4,2.5-2.7c-2.9,0.2-4.6-4.2-4.2-5.8c0,0-0.5-9.1-6.6-6.4
		c-0.9,0.4-1.6,1.3-2.1,2.5C71.1,8.5,71.6,16.8,71.6,16.8z"/>
	<g>
		<g id="XMLID_44504_">
			<path id="XMLID_44512_" class="st1" d="M77.1,11.3c0,0-0.5-9.1-6.6-6.4s-2.6,28.3,12.9,24.5s9.2-23.8,9.2-23.8s-6.4-5.8-7.6,4.2
				c0,0-0.3,6.7-3.3,7.2C78.6,17.6,76.8,13,77.1,11.3z"/>
			<g id="XMLID_44510_">
				<path id="XMLID_44511_" class="st1" d="M69.3,16.9c0,0-10.7,10.6-8.5-9.1c0,0-2.5-6.1-7.5-3.6s-5.7,33.9,18.2,25
					c0,0,6.4-2.5,8.2-3.8"/>
			</g>
			<path id="XMLID_44509_" class="st2" d="M59.6,8.2c0,0-1,0.5-1.3,0.9"/>
			<path id="XMLID_44508_" class="st2" d="M75.1,8.2c0,0-1,0.5-1.3,0.9"/>
			<path id="XMLID_44507_" class="st2" d="M60.8,19.2c0,0-1,0.5-1.3,1"/>
			<path id="XMLID_44506_" class="st2" d="M77.8,16.5c0,0-1,0.5-1.3,1"/>
			<path id="XMLID_44505_" class="st2" d="M91.1,5.9c0,0-1,0.5-1.3,0.9"/>
		</g>
		<g id="XMLID_44491_">
			<path id="XMLID_44503_" class="st2" d="M74.3,14.1c0,0-0.5-9.1-6.6-6.4S65.1,36,80.6,32.2s9.2-23.8,9.2-23.8s-6.4-5.8-7.6,4.2
				c0,0-0.3,6.7-3.3,7.2C75.8,20.4,74,15.7,74.3,14.1z"/>
			<g id="XMLID_44501_">
				<path id="XMLID_44502_" class="st2" d="M66.5,19.6c0,0-10.7,10.6-8.5-9.1c0,0-2.5-6.1-7.5-3.6s-5.7,33.9,18.2,25
					c0,0,6.4-2.5,8.2-3.8"/>
			</g>
			<line id="XMLID_44500_" class="st3" x1="55.6" y1="31" x2="56.6" y2="31.4"/>
			<path id="XMLID_44499_" class="st2" d="M78.9,24.3c0,0,0.4,0.8-0.2,1.2"/>
			<path id="XMLID_44498_" class="st2" d="M89.5,22.6c0,0-0.2,0.8-0.4,1"/>
			<path id="XMLID_44497_" class="st2" d="M83.5,12.3c0,0,0.3-1.4,0-1.4"/>
			<path id="XMLID_44496_" class="st2" d="M52.9,7.7c0,0,1.3,0.2,1.2,0.4"/>
			<path id="XMLID_44495_" class="st2" d="M61.4,24.4c0,0,1.5-0.2,1.6-0.5"/>
			<path id="XMLID_44494_" class="st2" d="M69.1,9c0,0-1,0.5-1.3,0.9"/>
			<line id="XMLID_44493_" class="st3" x1="78.8" y1="20.7" x2="79.9" y2="20.4"/>
			<line id="XMLID_44492_" class="st3" x1="81.1" y1="30.6" x2="82.2" y2="30.4"/>
			<path class="st0" d="M71.6,16.8c-0.3,1.6,1.5,6.3,4.5,5.8c1.2-0.2,2-1.4,2.5-2.7c-2.9,0.2-4.6-4.2-4.2-5.8c0,0-0.5-9.1-6.6-6.4
				c-0.9,0.4-1.6,1.3-2.1,2.5C71.1,8.5,71.6,16.8,71.6,16.8z"/>
		</g>
	</g>
	<path class="st0" d="M55.2,13.2c-1.7,16,5,12.1,7.5,10c-0.1-0.4-0.2-0.7-0.2-1c-2.8,0.9-5.8-0.4-4.6-11.8c0,0-2.5-6.1-7.5-3.6
		c-0.7,0.3-1.2,1.2-1.7,2.3C53,8,55.2,13.2,55.2,13.2z"/>
	<path class="st0" d="M89.8,8.5c0,0-4.9-4.4-6.9,1.1c2.1-0.3,4.2,1.6,4.2,1.6s3.7,11.6-1.4,18.8C94.6,23.7,89.8,8.5,89.8,8.5z"/>
</g>
<g>
	<g>
		<g id="XMLID_44487_">
			<path id="XMLID_44490_" class="st1" d="M50.8,5.9c-12.3-9-21.9,2.3-21.9,2.3S21,26.3,36.1,31.1C51.1,35.8,63.1,14.9,50.8,5.9z
				 M44.1,18.3c-2.8,7.4-11.6-4.2-5.4-5.1C38.7,13.3,46.9,10.9,44.1,18.3z"/>
			<path id="XMLID_44489_" class="st2" d="M48.8,6c0,0-1,0.5-1.3,0.9"/>
			<path id="XMLID_44488_" class="st2" d="M43.8,3.8c0,0-1,0.5-1.3,0.9"/>
		</g>
	</g>
	<g id="XMLID_44475_">
		<path id="XMLID_44486_" class="st4" d="M40.3,10.4"/>
		<path id="XMLID_44485_" class="st4" d="M48.1,8.6C35.7-0.4,26.2,11,26.2,11s-7.9,18.1,7.2,22.8C48.3,38.5,60.4,17.6,48.1,8.6z
			 M41.4,21.1c-2.8,7.4-11.6-4.2-5.4-5.1C36,16,44.2,13.6,41.4,21.1z"/>
		<path id="XMLID_44484_" class="st4" d="M43.2,7.5"/>
		<line id="XMLID_44483_" class="st3" x1="29.2" y1="30.1" x2="30.2" y2="30.6"/>
		<path id="XMLID_44482_" class="st4" d="M44.3,31c0,0-0.2,0.9-0.9,0.8"/>
		<path id="XMLID_44481_" class="st4" d="M42.5,21.2c0,0-0.2,0.8-0.4,1"/>
		<path id="XMLID_44480_" class="st4" d="M51.5,20.6c0,0,0.3-1.4,0-1.4"/>
		<path id="XMLID_44479_" class="st4" d="M42.5,7.3c0,0,1.3,0.2,1.2,0.4"/>
		<path id="XMLID_44478_" class="st4" d="M34.1,23.4c0,0,1.3,0.9,1.5,0.7"/>
		<path id="XMLID_44477_" class="st4" d="M28.4,11.2c0,0-1,0.5-1.3,0.9"/>
		<line id="XMLID_44476_" class="st3" x1="34.3" y1="15.1" x2="35.4" y2="14.8"/>
		<path class="st0" d="M48.1,8.6C35.7-0.4,26.2,11,26.2,11s-0.1,0.1-0.2,0.4c3.6-2.8,10.9-6.2,19.3,0c6.9,5.1,6.2,13.9,1.5,19.9
			C53.7,25.7,56.2,14.5,48.1,8.6z"/>
	</g>
</g>
<g>
	<g id="XMLID_44468_">
		<path id="XMLID_44474_" class="st1" d="M14.2,5c0,0-1.3-6.2-7.4-4s-3,25.8-0.2,27.6C9.4,30.4,17.3,41.6,14.2,5z"/>
		<path id="XMLID_44473_" class="st1" d="M12.8,16.3c0,0,10.7-10.6,8.6,9.1c0,0,2.5,6.1,7.5,3.5S34.5-4.9,10.6,3.9"/>
		<path id="XMLID_44472_" class="st2" d="M25.6,6.1c0,0-1,0.5-1.3,0.9"/>
		<path id="XMLID_44471_" class="st2" d="M10.1,1.6c0,0-1,0.5-1.3,0.9"/>
		<path id="XMLID_44470_" class="st2" d="M13.4,26.5c-0.2,0.2-0.5,0.4-0.6,0.6"/>
		<path id="XMLID_44469_" class="st2" d="M30.6,20.5c0,0-0.3,0.1-0.7,0.4"/>
	</g>
	<g id="XMLID_44457_">
		<path id="XMLID_44467_" class="st5" d="M11.4,7.8c0,0-1.3-6.2-7.4-4S1,29.5,3.8,31.3C6.6,33.2,14.5,44.4,11.4,7.8z"/>
		<path id="XMLID_44466_" class="st5" d="M10,19.1c0,0,10.7-10.6,8.6,9.1c0,0,2.5,6.1,7.5,3.5S31.8-2.1,7.8,6.7"/>
		<line id="XMLID_44465_" class="st3" x1="6.6" y1="31.1" x2="7.6" y2="31.5"/>
		<path id="XMLID_44464_" class="st5" d="M24.9,28.4c0,0,0.4,0.8-0.2,1.2"/>
		<path id="XMLID_44463_" class="st5" d="M27.3,18.3c0,0-0.2,0.8-0.4,1"/>
		<path id="XMLID_44462_" class="st5" d="M10.3,24.6c0,0,0.3-1.4,0-1.4"/>
		<path id="XMLID_44461_" class="st5" d="M17.8,15c0,0,1.3,0.2,1.2,0.4"/>
		<path id="XMLID_44460_" class="st5" d="M5.1,21.6c0,0,1.5-0.2,1.6-0.5"/>
		<path id="XMLID_44459_" class="st5" d="M12.8,7c0,0-1,0.5-1.3,0.9"/>
		<line id="XMLID_44458_" class="st3" x1="3.6" y1="8.7" x2="4.7" y2="8.4"/>
		<path class="st0" d="M10.7,5.9C9.7,4.2,7.8,2.4,4,3.7C3,4.1,2.3,5,1.7,6.3c3.5-1,5.3,0.7,6.2,2.3c18.2-4.7,20,16.2,17.1,23.6
			c0.4-0.1,0.7-0.2,1.1-0.4C30.9,29.3,31.7,0.4,10.7,5.9z"/>
	</g>
</g>
<path id="XMLID_44456_" class="st1" d="M74.3,31.5c0,0-2.2-1.6-3.2-0.3c-1,1.2-2.7,3.3-0.6,7.4c2,4.1,9.4,0.7,10.2-1.2"/>
<path id="XMLID_44455_" class="st6" d="M79.3,64c-0.3-2.3-0.8-3.2-1.5-3.6c0,0-3.7-1.3-4.7,2.1s2.1,4.1,2.5,4.1
	C76.1,66.6,79.6,66.3,79.3,64z M77,63.8c-0.1,0.2-0.3,0.3-0.9,0.5c-0.6,0.1-0.8-0.8-0.8-0.9c0-0.1,0.1-0.9,1.1-0.8
	C77.3,62.8,77,63.8,77,63.8z"/>
<g>
	<g id="XMLID_44451_">
		<path id="XMLID_44454_" class="st6" d="M84.9,65"/>
		<path id="XMLID_44453_" class="st6" d="M87,64.9c0-0.9-0.1-2.2,0.3-2.4c0.4-0.4,2-0.2,1.8,0.7c-0.1,0.6-0.1,1.2-0.1,1.6
			c0,0.3,0,0.6,0,0.6c0,0.2,0.1,0.8,0.9,0.8c1.1,0.1,1.2-0.2,1.2-1s0.9-4.5-2.3-5.2c-2.2-0.5-3.4,0.8-3.9,1.8"/>
		<path id="XMLID_44452_" class="st6" d="M87.1,62.3"/>
	</g>
	<g id="XMLID_44446_">
		<path id="XMLID_44450_" class="st6" d="M86.7,61.4c-0.3-0.6-0.9-1.1-1.9-1.3c-3.2-0.7-4.2,2.2-4.2,2.9c0,0.4,0.1,1.3,0.2,2"/>
		<path id="XMLID_44449_" class="st6" d="M80.8,65c0.1,0.7,2.1,0.2,2.1-0.1c0-0.9-0.1-2.2,0.3-2.4c0.4-0.3,1.4-0.2,1.7,0.3
			C85,62.9,85,63,85,63.2c-0.1,0.6-0.1,1.2-0.1,1.6c0,0.3,0,0.6,0,0.6c0,0.2,0.1,0.8,0.9,0.8c1.1,0.1,1.2-0.2,1.2-1
			c0-0.4,0.2-1.5,0.1-2.7"/>
		<path id="XMLID_44448_" class="st6" d="M83.1,62.3"/>
		<path id="XMLID_44447_" class="st6" d="M83.1,62.3c0.1,1.3,0,2.8-0.2,3.3c0,0-0.6,1.1-1.5,0.6s-1-5.7-0.4-5.9s1.7-0.8,1.9,0.5"/>
	</g>
</g>
<path id="XMLID_44445_" class="st6" d="M70.8,63.7c-0.2,0.1-0.3,0.2-0.4,0.4c-0.1,0.1-0.1,0.1-0.1,0.2c0,0.1-0.2,0.2-0.2,0.2
	c-0.5,0.2-1.4,0.5-1.8-0.5c0-0.1-0.1-0.3-0.1-0.4c0-0.1,0-0.3,0-0.4c0.1-1,0.4-1.4,0.8-1.5c0.4-0.1,1.1,0.2,1.3,0.7
	c0,0,0.2,0.9,0.7,0.8s1.4-0.7,0.7-1.6s-1.5-2-3.6-1.3c-2.1,0.7-1.7,3.4-1.6,3.6c0.1,0.2,1.2,3.9,4,2.2
	C73.3,64.4,71.1,63.6,70.8,63.7z"/>
<path id="XMLID_44444_" class="st7" d="M71.5,34.3c0,0-2.2-1.6-3.2-0.3c-1,1.2-2.7,3.3-0.6,7.5c2,4.1,9.4,0.7,10.2-1.2"/>
<g>
	<g id="XMLID_44441_">
		<path id="XMLID_44443_" class="st1" d="M59.5,30.6c-10.9-8-19.4,2-19.4,2s-6.9,16,6.3,20.2C59.7,57.1,70.3,38.6,59.5,30.6z
			 M53.8,41.8c-2.7,7.2-11.2-4.1-5.2-4.9C48.6,36.9,56.6,34.6,53.8,41.8z"/>
		<path id="XMLID_44442_" class="st1" d="M55.2,29.6c0,0,8.5-9.1,8.7,7.9c0.2,17,3.1,32.5-13.2,32.4c0,0-8.9-4.1,0-8.5
			c4.3-2.1,5.2-6.6,5.1-12.1"/>
	</g>
	<g id="XMLID_44428_">
		<path id="XMLID_44440_" class="st8" d="M49.9,35"/>
		<path id="XMLID_44439_" class="st8" d="M56.7,33.4c-10.9-7.9-19.4,2-19.4,2s-6.9,16,6.3,20.2C57,59.8,67.6,41.4,56.7,33.4z
			 M51.1,44.5c-2.7,7.2-11.2-4.1-5.2-4.9C45.9,39.6,53.8,37.3,51.1,44.5z"/>
		<path id="XMLID_44438_" class="st8" d="M52.5,32.4"/>
		<path id="XMLID_44437_" class="st8" d="M52.5,32.4c0,0,8.5-9.1,8.7,7.9s3.1,32.5-13.2,32.4c0,0-8.9-4.1,0-8.5
			c4.3-2.1,5.2-6.6,5.1-12.1"/>
		<line id="XMLID_44436_" class="st3" x1="47.1" y1="70.5" x2="48.2" y2="71"/>
		<path id="XMLID_44435_" class="st8" d="M55.9,68.8c0,0,0.4,0.8-0.2,1.2"/>
		<path id="XMLID_44434_" class="st8" d="M60.3,60.3c0,0-0.2,0.8-0.4,1"/>
		<path id="XMLID_44433_" class="st8" d="M59.4,49.4c0,0,0.3-1.4,0-1.4"/>
		<path id="XMLID_44432_" class="st8" d="M40.8,53.1c0,0,1.3,0.2,1.2,0.4"/>
		<path id="XMLID_44431_" class="st8" d="M56.7,39c0,0,1.5-0.2,1.6-0.5"/>
		<path id="XMLID_44430_" class="st8" d="M40.9,34.9c0,0-1,0.5-1.3,1"/>
		<line id="XMLID_44429_" class="st3" x1="51.8" y1="46.6" x2="50.9" y2="47.2"/>
	</g>
	<path class="st0" d="M61.2,43.1c0-0.8,0-1.6,0-2.3c0-0.1,0-0.3,0-0.4C61,27,55.7,29.7,53.5,31.5c-9.2-4.1-16.1,4-16.1,4
		s-0.1,0.2-0.2,0.5c2.8-2,7.7-4.3,13.5-1.7c2.2-1.8,7.5-4.5,7.7,8.8c0,0.1,0,0.3,0,0.4c0.1,0.8,0.1,1.6,0,2.3
		C58.7,56,59.5,65.4,56,70.7C62.6,66.4,61.5,55.4,61.2,43.1z"/>
	<path id="XMLID_44427_" class="st2" d="M61.4,29.5c0,0-1,0.5-1.3,1"/>
	<path id="XMLID_44426_" class="st2" d="M49.9,28.5c0,0-1,0.5-1.3,1"/>
	<path id="XMLID_44425_" class="st2" d="M48.4,44.5c0,0-1,0.5-1.3,1"/>
	<path id="XMLID_44424_" class="st2" d="M63.2,51.5c-0.3,0.2-0.7,0.5-0.9,0.7"/>
	<path id="XMLID_44423_" class="st2" d="M62.9,57.2c0,0-0.2,0.1-0.4,0.2"/>
</g>
<g>
	<g>
		<path id="XMLID_44422_" class="st1" d="M83,34.9L83,34.9c-1.4-3.8-4.6-6.8-9.3-7.2c-9.5-0.9-13.4,5.2-14.9,9c0,0-0.3,0.5-0.6,1.7
			C58,38.9,58,39.4,58,39.7c-0.1,2,0.2,5.1,2.2,9.1c1.6,3.3,5.5,4.5,8.2,4.9c0.8,0.2,1.6,0.2,2.4,0.2c0.1,0,0.1,0,0.1,0l0,0
			c0.9,0,1.9-0.1,2.9-0.4c4.2-1,7.1-3.6,8.7-6.9c-0.3-3.8-3.5-4.2-5.5-4.5c-1.1-0.2-2.2,0.5-3,1.2c-0.1,0.1-0.2,0.2-0.2,0.2
			c-2.8,2.1-10.2-2-6.3-5c0,0,1.3-1.4,2.9-2l0,0c0,0,1.3-0.7,2.3-0.3c0.4,0.2,0.8,0.5,1,1c0,0,0,0,0.1,0.1c0.1,0.2,0.3,0.5,0.4,0.8
			c1.3,2.1,4.1,4.8,6.8,2.9c3.1-2.2,2.7-3,2.8-3.9l0,0C83.8,36.2,83,34.9,83,34.9z"/>
	</g>
	<g>
		<path id="XMLID_44421_" class="st7" d="M80.3,37.6L80.3,37.6c-1.4-3.8-4.6-6.8-9.3-7.2c-9.5-0.9-13.4,5.2-14.9,9
			c0,0-0.3,0.5-0.6,1.7c-0.2,0.7-0.2,1.2-0.2,1.5c-0.1,2,0.2,5.1,2.2,9.1c1.6,3.3,5.5,4.5,8.2,4.9c0.8,0.2,1.6,0.2,2.4,0.2
			c0.1,0,0.1,0,0.1,0l0,0c0.9,0,1.9-0.1,2.9-0.4c4.2-1,7.1-3.6,8.7-6.9c-0.3-3.8-3.5-4.2-5.5-4.5c-1.1-0.2-2.2,0.5-3,1.2
			c-0.1,0.1-0.2,0.2-0.2,0.2c-2.8,2.1-10.2-2-6.3-5c0,0,1.3-1.4,2.9-2l0,0c0,0,1.3-0.7,2.3-0.3c0.4,0.2,0.8,0.5,1,1c0,0,0,0,0.1,0.1
			c0.1,0.2,0.3,0.5,0.4,0.8c1.3,2.1,4.1,4.8,6.8,2.9c3.1-2.2,2.7-3,2.8-3.9l0,0C81.1,39,80.3,37.6,80.3,37.6z"/>
		<line id="XMLID_44420_" class="st3" x1="59" y1="51.3" x2="59.6" y2="52.2"/>
		<path id="XMLID_44418_" class="st7" d="M77.1,50.3c0,0,0.4,0.8-0.2,1.2"/>
		<path id="XMLID_44417_" class="st7" d="M80.2,39.8c0,0-0.2,0.8-0.4,1"/>
		<path id="XMLID_44416_" class="st7" d="M62.9,41.1c0,0,0.3-1.4,0-1.4"/>
		<path id="XMLID_44415_" class="st7" d="M70,36.9c0,0,1.3,0.2,1.2,0.4"/>
		<path id="XMLID_44414_" class="st7" d="M68.6,55.3c0,0,1.5-0.2,1.6-0.5"/>
		<path id="XMLID_44413_" class="st7" d="M60.7,35c0,0-1,0.5-1.3,1"/>
		<line id="XMLID_44412_" class="st3" x1="75.8" y1="43.3" x2="76.8" y2="43"/>
	</g>
	<path class="st0" d="M80.3,37.6L80.3,37.6c-1.4-3.8-4.6-6.8-9.3-7.2c-6.6-0.7-10.5,2.1-12.8,5.2c2.3-1.7,5.6-2.8,10-2.4
		c4.8,0.5,7.9,3.5,9.3,7.2l0,0c0,0,0.8,1.4,0.6,2.2l0,0c-0.1,0.4,0,0.8-0.2,1.2c0.1,0,0.1,0,0.2-0.1c3.1-2.2,2.7-3,2.8-3.9l0,0
		C81.1,39,80.3,37.6,80.3,37.6z"/>
	<path id="XMLID_44411_" class="st2" d="M82.6,36.2c0,0-1,0.5-1.3,1"/>
	<path id="XMLID_44410_" class="st2" d="M74.4,28.7c0,0-1,0.5-1.3,0.9"/>
	<path id="XMLID_44409_" class="st2" d="M67.6,44c0,0-1,0.5-1.3,1"/>
	<path id="XMLID_44408_" class="st2" d="M81.4,46.7c0,0-1,0.5-1.3,1"/>
</g>
<g>
	<g>
		<path id="XMLID_44407_" class="st1" d="M88.8,24.1c0,0-1.3-7.2-7.4-4.7c-6.1,2.5-3.1,30.1-0.2,32.2C84,53.9,91.9,66.9,88.8,24.1z"
			/>
	</g>
	<g>
		<path id="XMLID_44406_" class="st9" d="M86,26.9c0,0-1.3-7.2-7.4-4.7c-6.1,2.5-3.1,30.1-0.2,32.2S89.1,69.7,86,26.9z"/>
		<path id="XMLID_44405_" class="st9" d="M83.6,53.7c0,0,0.4,0.8-0.2,1.2"/>
		<path id="XMLID_43774_" class="st9" d="M85.5,40.6c0,0,0.1,0.8,0,1.1"/>
		<path id="XMLID_43773_" class="st9" d="M77.7,45.8c0,0,0.3-1.4,0-1.4"/>
		<path id="XMLID_43772_" class="st9" d="M79.4,23.7c0,0-1,0.5-1.3,1"/>
	</g>
	<path class="st0" d="M86,26.9c0,0-1.3-7.2-7.4-4.7c-0.9,0.4-1.6,1.2-2.1,2.5c5.6-1.8,6.7,5,6.7,5C84.5,46,84,54.2,82.9,58
		C85.6,58.5,88,53.5,86,26.9z"/>
	<path id="XMLID_43771_" class="st2" d="M87.5,44.9c0.3,0,0.7,0,0.9-0.1"/>
	<path id="XMLID_43770_" class="st2" d="M87.2,50.6c0,0,0.3,0,0.7,0"/>
	<path id="XMLID_43769_" class="st2" d="M87.4,23.1c0,0-1.1,0.2-1.5,0.6"/>
</g>
<path id="XMLID_43768_" class="st5" d="M65,66.1c-0.1,0.2-0.3,0.3-0.9,0.5s-0.8-0.8-0.8-0.9c0-0.1,0.1-0.9,1-0.8
	C65.2,65.1,65,66.1,65,66.1z"/>
<g>
	<g id="XMLID_43762_">
		<path id="XMLID_43767_" class="st1" d="M18.3,26.1c0,0-1.3-6.2-7.4-4s-3.1,25.8-0.2,27.6S21.4,62.8,18.3,26.1z"/>
		<path id="XMLID_43766_" class="st1" d="M16.9,37.5c0,0,10.7-10.6,8.6,9.2c0,0,2.5,6.1,7.5,3.5c5-2.5,5.7-33.9-18.2-25"/>
		<path id="XMLID_43765_" class="st2" d="M28.3,25.8c0,0-1,0.5-1.3,1"/>
		<path id="XMLID_43764_" class="st2" d="M32.4,29.5c0,0-1,0.5-1.3,0.9"/>
		<path id="XMLID_43763_" class="st2" d="M13.8,22.8c0,0-0.6,0.3-1,0.6"/>
	</g>
	<g id="XMLID_43751_">
		<path id="XMLID_43761_" class="st10" d="M15.6,28.9c0,0-1.3-6.2-7.4-4S5.1,50.7,8,52.5C10.8,54.3,18.7,65.5,15.6,28.9z"/>
		<path id="XMLID_43760_" class="st10" d="M14.2,40.2c0,0,10.7-10.6,8.6,9.2c0,0,2.5,6.1,7.5,3.5c5-2.5,5.7-33.9-18.2-25"/>
		<line id="XMLID_43759_" class="st3" x1="11.1" y1="53.1" x2="12.1" y2="53.5"/>
		<path id="XMLID_43758_" class="st10" d="M29.4,50.4c0,0,0.4,0.8-0.2,1.2"/>
		<path id="XMLID_43757_" class="st10" d="M31.8,40.3c0,0-0.2,0.8-0.4,1"/>
		<path id="XMLID_43756_" class="st10" d="M14.8,46.6c0,0,0.3-1.4,0-1.4"/>
		<path id="XMLID_43755_" class="st10" d="M22.3,37c0,0,1.3,0.2,1.2,0.4"/>
		<path id="XMLID_43754_" class="st10" d="M9.6,43.6c0,0,1.5-0.2,1.6-0.5"/>
		<path id="XMLID_43753_" class="st10" d="M17.3,29c0,0-1,0.5-1.3,1"/>
		<line id="XMLID_43752_" class="st3" x1="8.1" y1="30.7" x2="9.2" y2="30.4"/>
		<path class="st0" d="M14.7,26.8c-0.9-1.6-2.9-3.5-6.6-2.1c-1,0.4-1.7,1.3-2.3,2.6c3.5-1,5.3,0.7,6.2,2.3
			c18.2-4.7,20,16.2,17.2,23.6c0.4-0.1,0.7-0.2,1.1-0.4C34.9,50.3,35.7,21.4,14.7,26.8z"/>
	</g>
	<path id="XMLID_43750_" class="st2" d="M34.5,45.9c-0.2,0.2-0.5,0.4-0.6,0.6"/>
	<path id="XMLID_43749_" class="st2" d="M17.6,47.6c0,0-0.3,0.2-0.7,0.4"/>
</g>
<g>
	<g>
		<g id="XMLID_43747_">
			<path id="XMLID_43748_" class="st1" d="M40,36.7c0,0,1.7-9-5.9-6.5s-3,22.4,1.1,21.6C39.2,50.9,41.1,47.7,40,36.7z"/>
		</g>
	</g>
	<g>
		<g id="XMLID_43745_">
			<path id="XMLID_43746_" class="st11" d="M37.3,39.4c0,0,1.7-9-5.9-6.5c-7.7,2.6-3,22.4,1.1,21.6C36.5,53.7,38.3,50.5,37.3,39.4z"
				/>
		</g>
		<line id="XMLID_43744_" class="st3" x1="30.8" y1="52" x2="31.8" y2="52.5"/>
		<path id="XMLID_43743_" class="st11" d="M35.9,48.9c0,0,0.4,0.8-0.2,1.2"/>
		<path id="XMLID_43742_" class="st11" d="M29.7,37.1c0,0-0.2,0.8-0.4,1"/>
		<path id="XMLID_43740_" class="st11" d="M36.1,37.6c0,0,0.3-1.4,0-1.4"/>
		<path id="XMLID_43739_" class="st11" d="M32.6,33.6c0,0,1.3,0.2,1.2,0.4"/>
	</g>
	<g>
		<path id="XMLID_43738_" class="st1" d="M34.3,19.4c0,0,8.6,4.9,0.2,8.6S28.6,14.8,34.3,19.4z"/>
		<path id="XMLID_43737_" class="st2" d="M36.6,22.8c0,0-1,0.5-1.3,1"/>
	</g>
	<g>
		<path id="XMLID_43736_" class="st12" d="M33.1,20.6c0,0,8.6,4.9,0.2,8.6S27.3,16.1,33.1,20.6z"/>
		<path id="XMLID_43735_" class="st12" d="M31.6,28.7c0,0,1.5-0.2,1.6-0.5"/>
		<path id="XMLID_43734_" class="st12" d="M30.8,21.2c0,0-1,0.5-1.3,1"/>
	</g>
	<path id="XMLID_43482_" class="st2" d="M36.8,31.2c-0.3,0.2-0.8,0.5-1,0.8"/>
	<path id="XMLID_42896_" class="st2" d="M38.9,47.5c0,0-0.2,0.1-0.5,0.3"/>
	<path class="st0" d="M37.3,39.4c0,0,1.7-9-5.9-6.5c-1.4,0.5-2.4,1.5-3,2.8c0.1,0,0.2-0.1,0.3-0.1c7.7-2.6,5.9,6.5,5.9,6.5
		c0.5,6,0.3,9.7-0.8,11.9C36.9,52.8,38.2,49.2,37.3,39.4z"/>
	<path class="st0" d="M31.8,21.9c0,0,5.4,3.1,3.4,6.2c4.8-3.5-2.2-7.5-2.2-7.5c-1.8-1.4-3.3-0.7-4.2,0.8
		C29.7,20.9,30.7,21,31.8,21.9z"/>
</g>
</svg>
