<?xml version="1.0" encoding="utf-8"?>
<!-- Generator: Adobe Illustrator 22.1.0, SVG Export Plug-In . SVG Version: 6.00 Build 0)  -->
<svg version="1.1" id="Layer_1" xmlns="http://www.w3.org/2000/svg" xmlns:xlink="http://www.w3.org/1999/xlink" x="0px" y="0px"
	 viewBox="0 0 179.8 281.9" style="enable-background:new 0 0 179.8 281.9;" xml:space="preserve">
<style type="text/css">
	.st0{opacity:0.1;}
	.st1{opacity:0.1;fill:#584C4F;stroke:#584C4F;stroke-width:4;stroke-linecap:round;stroke-miterlimit:10;}
	.st2{fill:#584C4F;stroke:#584C4F;stroke-width:4;stroke-linecap:round;stroke-miterlimit:10;}
	.st3{fill:#A36B78;stroke:#584C4F;stroke-width:4;stroke-linecap:round;stroke-miterlimit:10;}
	.st4{opacity:0.1;fill:#231F20;stroke:#231F20;stroke-width:4;stroke-miterlimit:10;enable-background:new    ;}
	.st5{fill:#FFD767;stroke:#584C4F;stroke-width:4;stroke-miterlimit:10;}
	.st6{fill:none;stroke:#584C4F;stroke-width:4;stroke-linecap:round;stroke-miterlimit:10;}
	.st7{fill:#B66C7E;stroke:#584C4F;stroke-width:4;stroke-miterlimit:10;}
	.st8{opacity:0.5;fill:#FFFFFF;stroke:#584C4F;stroke-width:4;stroke-miterlimit:10;enable-background:new    ;}
	.st9{fill:#FFFFFF;stroke:#584C4F;stroke-width:4;stroke-linecap:round;stroke-miterlimit:10;}
</style>
<g id="Layer_5" class="st0">
</g>
<g id="Layer_3" class="st0">
</g>
<path class="st1" d="M142.7,121.7c-1.8,0.7-3.3,1.6-4.4,2.5c-2-11.1-4.1-19.9-5-24.6c-1.1-5.6-3.3-11.7-6.6-17.4c0,0,0.1,0,0.1,0
	c-4.9-8.7-12.2-16.8-22.1-22c0.3-0.9,0.4-1.9-0.1-3c0-3.8,0-7.2,0-8.8C104.5,25.9,71.1,8,57.9,37.3l-3.8,13.9
	c-0.1,1.6,0,4.3,0.2,7.3C33.2,65.5,28,78,23.3,113c-0.6-0.4-1.3-0.8-2-1.1c-8.6-4.1-17.7,22.2-19.2,47.2
	c-0.9,14.6,7.9,10.5,15.3,4.5c-0.1,0.7-0.2,1.3-0.2,2c-0.2,1.3-0.3,2.7-0.4,4c-0.1,1.2-0.2,2.4-0.3,3.6c0,0.1,0,0.2,0,0.3
	c-0.1,1.2-0.1,2.4-0.2,3.5c0,0.1,0,0.2,0,0.2c0,1.2-0.1,2.3-0.1,3.4c0,0.1,0,0.1,0,0.2c0,1.1,0,2.2,0,3.3c0,0.1,0,0.1,0,0.2
	c0,1.1,0.1,2.2,0.1,3.2c0,0.1,0,0.1,0,0.2c0.1,1.1,0.1,2.1,0.2,3.2c0,0,0,0.1,0,0.1c0.1,1.1,0.2,2.1,0.3,3.1c0,0,0,0,0,0
	c0.8,6.5,2.2,12.4,4.1,17.6c-0.3-0.1-0.5-0.2-0.5-0.2s-1.9,16,0.7,24.4c0.3,2.9,1.5,6.4,4,11c0,0.1,0,0.1,0,0.1c0.5,1,1.1,1.9,1.8,3
	c6.1,9.5,15.1,16,24.3,20.3c0.8,3.8,4.1,7.5,9,5.5c0,0,0.6-0.6,1.4-1.5c38.7,16.7,51-7.4,54.7-28c3.6-0.1,7-0.3,10-0.5
	c31.9-2,23.4-14.2,23.4-14.2s-0.1-0.1-0.2-0.2c-1-1.6-3.6-3.2-6.5-4.6c-2.8-1.5-6.5-3-11.4-4.2c7.5-14.3,10.4-31.5,10.8-48.5
	c6.8,6.3,14.8,10.5,15.1-3.7C158.4,145.3,151.6,118.3,142.7,121.7z"/>
<path class="st2" d="M152.7,111.7c-1.8,0.7-3.3,1.6-4.4,2.5c-2-11.1-4.1-19.9-5-24.6c-1.1-5.6-3.3-11.7-6.6-17.4c0,0,0.1,0,0.1,0
	c-4.9-8.7-12.2-16.8-22.1-22c0.3-0.9,0.4-1.9-0.1-3c0-3.8,0-7.2,0-8.8C114.5,15.9,81.1-2,67.9,27.3l-3.8,13.9
	c-0.1,1.6,0,4.3,0.2,7.3C43.2,55.5,38,68,33.3,103c-0.6-0.4-1.3-0.8-2-1.1c-8.6-4.1-17.7,22.2-19.2,47.2
	c-0.9,14.6,7.9,10.5,15.3,4.5c-0.1,0.7-0.2,1.3-0.2,2c-0.2,1.3-0.3,2.7-0.4,4c-0.1,1.2-0.2,2.4-0.3,3.6c0,0.1,0,0.2,0,0.3
	c-0.1,1.2-0.1,2.4-0.2,3.5c0,0.1,0,0.2,0,0.2c0,1.2-0.1,2.3-0.1,3.4c0,0.1,0,0.1,0,0.2c0,1.1,0,2.2,0,3.3c0,0.1,0,0.1,0,0.2
	c0,1.1,0.1,2.2,0.1,3.2c0,0.1,0,0.1,0,0.2c0.1,1.1,0.1,2.1,0.2,3.2c0,0,0,0.1,0,0.1c0.1,1.1,0.2,2.1,0.3,3.1c0,0,0,0,0,0
	c0.8,6.5,2.2,12.4,4.1,17.6c-0.3-0.1-0.5-0.2-0.5-0.2s-1.9,16,0.7,24.4c0.3,2.9,1.5,6.4,4,11c0,0.1,0,0.1,0,0.1c0.5,1,1.1,1.9,1.8,3
	c6.1,9.5,15.1,16,24.3,20.3c0.8,3.8,4.1,7.5,9,5.5c0,0,0.6-0.6,1.4-1.5c38.7,16.7,51-7.4,54.7-28c3.6-0.1,7-0.3,10-0.5
	c31.9-2,23.4-14.2,23.4-14.2s-0.1-0.1-0.2-0.2c-1-1.6-3.6-3.2-6.5-4.6c-2.8-1.5-6.5-3-11.4-4.2c7.5-14.3,10.4-31.5,10.8-48.5
	c6.8,6.3,14.8,10.5,15.1-3.7C168.4,135.3,161.6,108.3,152.7,111.7z"/>
<g>
	<g>
		<g>
			<g id="XMLID_5029_">
				<path id="XMLID_5142_" class="st3" d="M74.1,31.2c-0.3,4.8,1.3,18.5,1.6,22.9c0.3,4.1,0.9,7.5,1.7,10.5
					c-15.8,26.9,27.8,57.8,43.3,23.2c4.8-10.8,4.2-31.7,4.1-35.2c-0.1-4.6-0.2-20.2-0.2-24.2C124.5,5.9,91.1-12,77.9,17.3"/>
				<g id="XMLID_5030_">
					<g id="XMLID_5114_">
						<path id="XMLID_5123_" class="st3" d="M153,143.3c0,0,24.2,32.1,24.8,7c0.6-25-6.2-52-15.1-48.6c-8.9,3.4-9.1,10.8-9.1,10.8"
							/>
						<path id="XMLID_5116_" class="st3" d="M161,141.6c0,0,9.5,14.7,11.8,7.8"/>
						<path id="XMLID_5115_" class="st3" d="M157.4,131.4c0,0,13.9,3.6,11.9-4.4s-7-13.4-9.4-4.5"/>
					</g>
					<path id="XMLID_5113_" class="st2" d="M80.4,255.8c0,0,9.1-8-2.2-11.6C66.9,240.6,70.6,259.9,80.4,255.8z"/>
					<path id="XMLID_5112_" class="st3" d="M99.6,236.4c0,0-72.5-5.2-62.4-90.8s7.4-101.3,48.3-110s63.3,21.2,67.8,44
						S190.6,225.1,99.6,236.4z"/>
					<path class="st4" d="M68.7,225.8c-8-13.3-12.6-32-9.5-58.2c10.1-85.6,7.4-101.3,48.3-110c15.9-3.4,28.9-0.9,39.3,4.6
						c-10-17.8-30.4-33.2-61.3-26.6c-40.9,8.7-38.2,24.4-48.3,110C31.7,191.8,50.4,214.6,68.7,225.8z"/>
					<path id="XMLID_5090_" class="st5" d="M41.3,215.9c0.3,2.9,1.5,6.4,4,11c0,0.1,0,0.1,0,0.1l0,0c0.5,1,1.1,1.9,1.8,3
						c8.1,12.7,21.4,20,33.4,23.8c52.1,23.3,57.4-26,57.5-44.7c0-1.8-23.4,0.2-44.8,5.5c-27.1-10.9-52.6-23.1-52.6-23.1
						S38.7,207.5,41.3,215.9z"/>
					<path id="XMLID_5089_" class="st3" d="M86.9,138.2c0,0-12.9-9.7-29.6-3.7"/>
					<path id="XMLID_5088_" class="st3" d="M91.5,131.8c0,0,13.1,16.3,12.6,25.3"/>
					<path id="XMLID_5087_" class="st3" d="M118.6,137.7c0,0,20.9-4.5,25.3-2.6"/>
					<g id="XMLID_5084_">
						<path id="XMLID_5086_" class="st3" d="M114.3,130c-0.5-4.3-1.9-7.3-4.7-7.8c-1.6-0.3-2.9-0.2-3.9,0c-0.9,0.2-1.6,0.5-2.2,0.8"
							/>
						<path id="XMLID_5085_" class="st3" d="M100.2,181.7c0,0,10-26.6,12.8-45.4"/>
					</g>
					<path id="XMLID_5083_" class="st3" d="M122.9,43c0,0,8.6-7.9-9.2-11.4s-29.5,1.2-26,7.9"/>
					<path id="XMLID_5082_" class="st5" d="M150.9,202.3c0,0-27.7,11.3-60.3,4.1s-49.5-14.8-49.5-14.8c10.3,36,73.5,36.3,105.4,34.2
						c31.9-2,23.4-14.2,23.4-14.2S165,205.7,150.9,202.3z"/>
					<path id="XMLID_5081_" class="st3" d="M150.9,202.3c0,0,55,15.3-21.1,18.6s-88.7-29.3-88.7-29.3S111.4,222.1,150.9,202.3z"/>
					<g id="XMLID_5075_">
						<path id="XMLID_5080_" class="st3" d="M119,127.8c0,0,9.6-11.2-5.9-14.4"/>
						<path id="XMLID_5079_" class="st3" d="M92.4,127.8c0,0-10.2-8.5,4.2-14.4"/>
						<path id="XMLID_5078_" class="st3" d="M97.1,118.4c2.2-0.5,4.4,2.8,2.9,2.4s-3.6,2.6-5.3,0"/>
						<path id="XMLID_5077_" class="st3" d="M113,119.4c-1.2-0.7,1.7-2.4,1.7-2.4c2.9,0.2,3.6,2.5,2.1,3.7"/>
						<path id="XMLID_5076_" class="st3" d="M104.2,133.6c0,0-3,0.1-3.7-1"/>
					</g>
					<path id="XMLID_5074_" class="st3" d="M124.7,120.9c0,0,8.4-4.2,10.8-5.1"/>
					<line id="XMLID_5073_" class="st6" x1="149.4" y1="117.3" x2="145.9" y2="115.8"/>
					<path id="XMLID_5072_" class="st3" d="M86.4,123.2c0,0-9.8-4.7-10.8-4.6"/>
					<path id="XMLID_5071_" class="st3" d="M44.5,165.2c0,0-1.4-2.9,0.8-4.1"/>
					<path id="XMLID_5070_" class="st3" d="M52.2,136.1c0,0,0.6-2.6,1.4-3.5"/>
					<path id="XMLID_5069_" class="st3" d="M51.3,186.6c0,0-1.1,4.9,0,4.9"/>
					<path id="XMLID_5068_" class="st3" d="M122,203c0,0-4.6-0.6-4.1-1.4"/>
					<path id="XMLID_5067_" class="st3" d="M94,194.4c0,0-5.3,0.8-5.6,1.8"/>
					<path id="XMLID_5066_" class="st3" d="M134.1,64c0,0-3.8-0.8-4.1-1.7"/>
					<path id="XMLID_5065_" class="st3" d="M71.6,62.4c0,0,3.5-1.7,4.5-3.3"/>
					<path id="XMLID_5064_" class="st3" d="M143.9,147.6"/>
					<path id="XMLID_5063_" class="st3" d="M118.6,144.6"/>
					<line id="XMLID_5062_" class="st6" x1="62.1" y1="116.4" x2="58.4" y2="117.4"/>
					<path id="XMLID_5061_" class="st3" d="M47.4,134.2c0,0-26.9,29.9-25.3,4.9c1.5-25,10.6-51.3,19.2-47.2s8.1,11.6,8.1,11.6"/>
					<path id="XMLID_5060_" class="st3" d="M39.6,131.8c0,0-10.7,13.8-12.4,6.7"/>
					<path id="XMLID_5059_" class="st3" d="M44.1,122c0,0-14.1,2.4-11.4-5.4s8.1-12.7,9.8-3.7"/>
					<g id="XMLID_5047_">
						<path id="XMLID_5058_" class="st7" d="M114.7,98.5c0,0-49.4,4.8-31.5-35.1S156.2,70.8,114.7,98.5z"/>
						<path id="XMLID_5057_" class="st7" d="M112.9,58.6c4.9,2.1,10.5-12.8,15.6,1.1c5.2,13.9-26.2,1.1-26.2,1.1s-9.9-3.3-13.6-5"/>
						<path id="XMLID_5056_" class="st8" d="M88,55.5c-1.8,2.1-3.5,4.7-4.9,7.9c-17.9,39.9,31.5,35.1,31.5,35.1
							c15.4-10.3,17.5-23.2,13.1-33.4c-5.3,3.9-25.5-4.3-25.5-4.3s-9.9-3.3-13.6-5"/>
						<g id="XMLID_5049_">
							<path id="XMLID_5055_" class="st9" d="M126.2,88.9c0,0-7.4,3-6.6-4.7C120.4,76.6,131.3,82.4,126.2,88.9z"/>
							<path id="XMLID_5054_" class="st9" d="M118.2,88.9c0,0-7.4,3-6.6-4.7C112.4,76.6,123.3,82.4,118.2,88.9z"/>
							<path id="XMLID_5053_" class="st9" d="M110.2,88.9c0,0-7.4,3-6.6-4.7C104.4,76.6,115.3,82.4,110.2,88.9z"/>
							<path id="XMLID_5052_" class="st9" d="M102.2,88.9c0,0-7.4,3-6.6-4.7C96.4,76.6,107.2,82.4,102.2,88.9z"/>
							<path id="XMLID_5051_" class="st9" d="M94.1,88.9c0,0-7.4,3-6.6-4.7C88.4,76.6,99.2,82.4,94.1,88.9z"/>
							<path id="XMLID_5050_" class="st9" d="M86.1,88.9c0,0-7.4,3-6.6-4.7C80.4,76.6,91.2,82.4,86.1,88.9z"/>
						</g>
						<path id="XMLID_5048_" class="st7" d="M118,88.7c0,0-6.9,2.7-6.6-3.9h-0.1c0.1,1.2-0.3,2.5-1.3,3.9c0,0-6.9,2.7-6.6-3.9h-0.1
							c0.1,1.2-0.3,2.5-1.3,3.9c0,0-6.8,2.7-6.6-3.9h-0.1c0.1,1.2-0.3,2.5-1.3,3.9c0,0-6.9,2.7-6.6-3.9h-0.1
							c0.1,1.2-0.3,2.5-1.3,3.9c0,0-1.7,0.7-3.4,0.5c9,11.2,31.9,9,31.9,9c4.3-2.9,7.5-6,9.9-9.1c-2,0.4-5.2,0.3-5.1-4.3l0,0
							C119.4,86,119.1,87.3,118,88.7z"/>
					</g>
					<g id="XMLID_5042_">
						<path id="XMLID_5046_" class="st2" d="M121.9,93.8c0,0,26.6-3.5,11.8-13.1C118.9,71.1,121.9,93.8,121.9,93.8z"/>
						<path id="XMLID_5045_" class="st2" d="M125.9,101.6c0,0,21.9,1.2,11.8-10.1c-10.1-11.3-28.2,0.3-29.6,5.1
							C106.7,101.4,125.9,101.6,125.9,101.6z"/>
						<path id="XMLID_5044_" class="st2" d="M82.1,96c0,0,10.7,3.6,8.8-10c-1.8-13.5-20.3-11.2-21.4-7.3
							C68.4,82.6,66.6,89.1,82.1,96z"/>
						<path id="XMLID_5043_" class="st2" d="M91.2,99.6c0,0,31.1,3.9,0.4-11.1S55.7,94.9,91.2,99.6z"/>
					</g>
					<path id="XMLID_5041_" class="st3" d="M65.3,246.8c0,0-2.5-2-1.1-4.1"/>
					<line id="XMLID_5040_" class="st6" x1="130.3" y1="226.5" x2="128.8" y2="230.1"/>
					<g>
						<path id="XMLID_5039_" class="st9" d="M140.3,191.9c0,0-49.2,4.8-31.4-34.9C126.7,117.4,181.6,164.3,140.3,191.9z"/>
						<path id="XMLID_5038_" class="st2" d="M144.9,164.6c0,0-7.4,3-6.5-4.6C139.2,152.3,150,158,144.9,164.6z"/>
						<path id="XMLID_5037_" class="st9" d="M85.7,186.4c0,0,36.1-31.7-8.8-46.2C31.9,125.7,46.4,202.6,85.7,186.4z"/>
						<path id="XMLID_5036_" class="st2" d="M60.6,160.2c0,0-7.4,3-6.5-4.6C54.9,147.9,65.7,153.6,60.6,160.2z"/>
						<path id="XMLID_5035_" class="st2" d="M82.7,192.8c0,0,16.6-1.9,4.7-13.6c-11.8-11.7-34.7-0.4-33.4,3.7
							C55.3,187.1,57.4,194,82.7,192.8z"/>
						<path id="XMLID_5034_" class="st2" d="M131,199.8c0,0,25.6,1.5,13.7-12.8s-32.8,0.3-34.5,6.4S131,199.8,131,199.8z"/>
						<g id="XMLID_5031_">
							<path id="XMLID_5033_" class="st3" d="M55.6,141.5c-0.3-0.1-0.6-0.2-1-0.3c-1.3-0.3-2.4-0.5-3.7,0.9c-3.1,3.4,4,4.4,4,4.4
								l7.8,0.6c0,0,16.5,1.1,26.3-1.4c0,0-14.4-7.7-23.3-7.1c-1,0.1-2,0.2-2.9,0.6C62.1,139.3,57.1,141.9,55.6,141.5z"/>
							<path id="XMLID_5032_" class="st3" d="M135,151.1c0,0-9.7,1.8-20.4-1.5c0,0,5.3-11.5,22.5-6.2c5.6,1.7,6.8-1.5,9.9,1.9
								s-4,4.4-4,4.4L135,151.1z"/>
						</g>
					</g>
				</g>
			</g>
		</g>
	</g>
</g>
</svg>
