<?xml version="1.0" encoding="utf-8"?>
<!-- Generator: Adobe Illustrator 22.1.0, SVG Export Plug-In . SVG Version: 6.00 Build 0)  -->
<svg version="1.1" id="Layer_1" xmlns="http://www.w3.org/2000/svg" xmlns:xlink="http://www.w3.org/1999/xlink" x="0px" y="0px"
	 viewBox="0 0 123.1 62" style="enable-background:new 0 0 123.1 62;" xml:space="preserve">
<style type="text/css">
	.st0{opacity:0.1;fill:#5D5C4C;stroke:#5D5C4C;stroke-linecap:round;stroke-miterlimit:10;enable-background:new    ;}
	.st1{fill:#FFD767;stroke:#584C4F;stroke-width:2;stroke-miterlimit:10;}
	.st2{fill:#FFFAF2;stroke:#584C4F;stroke-width:2;stroke-miterlimit:10;}
</style>
<g id="Layer_5">
</g>
<g id="Layer_3">
</g>
<path id="XMLID_2388_" class="st0" d="M110.4,20.7c-1.9-0.1-72.8,0.2-79,1.4c-0.8,0.2-3,1.4-4.2,2.8c-1.7,2-3.9,5-4.5,8.3
	c-0.1,0.4-0.2,13.7-0.1,14.1c-0.3,4.1,2.2,8.4,11.2,11.3c6.6,2.1,79.1,0.1,80.8,0c4.9-0.3,7.4-3.7,7.9-8c0.3-2.8,0.2-12.9,0.1-15.5
	C122,28.5,117.6,21.2,110.4,20.7z"/>
<path class="st1" d="M112.4,25.1c-0.3-4.6-2.6-9.7-6.4-12.4c-1.3-0.9-6.9-7.4-9.1-9.3c-1.8-1.6-4-2.6-6.5-2.8
	c-1.9-0.1-72.8,0.2-79,1.4c-0.8,0.2-3,1.4-4.2,2.8c-1.7,2-3.9,5-4.5,8.3c-0.1,0.4-0.2,13.7-0.1,14.1c-0.1,2,0.4,3.9,1.9,5.8
	c1.5,1.9,8.9,8.9,10.6,10.7s4.5,3.4,8.7,4.8c6.6,2.1,79.1,0.1,80.8,0c4.9-0.3,7.4-3.7,7.9-8C112.7,37.8,112.6,27.6,112.4,25.1z"/>
<g id="XMLID_2366_">
	<g>
		<path id="XMLID_2369_" class="st2" d="M90.4,0.7c-1.9-0.1-72.8,0.2-79,1.4c-0.8,0.2-3,1.4-4.2,2.8c-1.7,2-3.9,5-4.5,8.3
			c-0.1,0.4-0.2,13.7-0.1,14.1c-0.3,4.1,2.2,8.4,11.2,11.3c6.6,2.1,79.1,0.1,80.8,0c4.9-0.3,7.4-3.7,7.9-8
			c0.3-2.8,0.2-12.9,0.1-15.5C102,8.5,97.6,1.2,90.4,0.7z"/>
		<path id="XMLID_2368_" class="st2" d="M96.6,30.8c0,0,1.1,2.2-0.7,3.2"/>
		<path id="XMLID_2367_" class="st2" d="M13.4,5.3c0,0-2.7,1.3-3.6,2.6"/>
	</g>
</g>
<path id="XMLID_2365_" class="st1" d="M106.2,44.7c0,0-3.1-4.4-5.4-5.4"/>
<g id="XMLID_4599_">
	<g id="XMLID_4339_">
		<path id="XMLID_4340_" class="st1" d="M73.7,17.6c0,0,1-5.1-3.3-3.7S68.7,26.5,71,26.1C73.2,25.6,74.3,23.8,73.7,17.6z"/>
	</g>
	<path id="XMLID_4338_" class="st1" d="M71.3,7c0,0,4.9,2.8,0.1,4.8S68.1,4.4,71.3,7z"/>
</g>
<g id="XMLID_4355_">
	<path id="XMLID_4361_" class="st1" d="M78.8,13.8c0,0-0.6-2.9-3.4-1.9s-1.4,12-0.1,12.8C76.6,25.6,80.2,30.7,78.8,13.8z"/>
	<path id="XMLID_4360_" class="st1" d="M78.1,19.1c0,0,4.9-4.9,3.9,4.2c0,0,1.2,2.8,3.5,1.6c2.3-1.2,2.6-15.6-8.4-11.6"/>
</g>
<g id="XMLID_415_">
	<path id="XMLID_4375_" class="st1" d="M30.3,18c0,0,2.7-0.1,2.4-2.4c-0.2-1.8-7.6-5-10.7-1.1c-0.8,1-1.3,2.5-1.3,4.6l0,0
		c0.2,0.7,0.6,1.3,1.1,1.8c0.2,0.2,0.4,0.4,0.6,0.5c1.4,1,3.3,1.5,5,1.5c-0.2,1-1.4,1.5-5-0.3c0,0-2.7,0.1-2.4,2.4
		c0.2,1.8,7.7,5,10.7,1.1c0.8-1,1.3-2.5,1.3-4.6l0,0c-0.2-0.7-0.6-1.3-1.1-1.8c-0.2-0.2-0.4-0.4-0.6-0.5c-1.4-1-3.3-1.5-5-1.5
		C25.5,16.7,26.7,16.2,30.3,18z"/>
	<path id="XMLID_4414_" class="st1" d="M26.9,20.7c0,0,2.5,5.5-4.6,2c0,0-2.7,0.1-2.4,2.4c0.3,2.3,12,6.8,11.9-3.5"/>
	<path id="XMLID_4415_" class="st1" d="M25.7,20c0,0-2.5-5.5,4.6-2c0,0,2.7-0.1,2.4-2.4c-0.3-2.3-12-6.8-11.9,3.5"/>
</g>
<g id="XMLID_4_">
	<g id="XMLID_6_">
		<path id="XMLID_7_" class="st1" d="M36.9,18.3c0,0,1-5.4-3.6-3.9s-1.8,13.5,0.6,13C36.3,26.9,37.5,25,36.9,18.3z"/>
	</g>
	<path id="XMLID_5_" class="st1" d="M34.4,7c0,0,5.2,3,0.1,5.2S30.9,4.3,34.4,7z"/>
</g>
<g id="XMLID_8_">
	<path id="XMLID_14_" class="st1" d="M44.2,15.8"/>
	<path id="XMLID_11_" class="st1" d="M48.2,15c-6.4-4.7-11.4,1.2-11.4,1.2s-4.1,9.4,3.7,11.9C48.4,30.6,54.7,19.7,48.2,15z
		 M45.3,21.7c-2,5.1-8-2.9-3.7-3.5C41.6,18.3,47.3,16.7,45.3,21.7z"/>
	<path id="XMLID_10_" class="st1" d="M45.8,14.3"/>
	<path id="XMLID_9_" class="st1" d="M45.8,14c0,0,5.1-4.9,5.2,4.3s1.8,17.5-8,17.4c0,0-5.3-2.2,0-4.6c2.6-1.1,3.1-3.5,3.1-6.5"/>
</g>
<g id="XMLID_1_">
	<path id="XMLID_3_" class="st1" d="M54.7,14.9c0,0-0.6-3.1-3.6-2S49.6,25.6,51,26.5C52.3,27.4,56.2,32.9,54.7,14.9z"/>
	<path id="XMLID_2_" class="st1" d="M54,20.5c0,0,5.3-5.2,4.2,4.5c0,0,1.3,3,3.7,1.8c2.4-1.3,2.8-16.7-9-12.3"/>
</g>
</svg>
