<?xml version="1.0" encoding="utf-8"?>
<!-- Generator: Adobe Illustrator 22.1.0, SVG Export Plug-In . SVG Version: 6.00 Build 0)  -->
<svg version="1.1" id="Layer_1" xmlns="http://www.w3.org/2000/svg" xmlns:xlink="http://www.w3.org/1999/xlink" x="0px" y="0px"
	 viewBox="0 0 282.3 48.2" style="enable-background:new 0 0 282.3 48.2;" xml:space="preserve">
<style type="text/css">
	.st0{fill:#FDF7E0;stroke:#584C4F;stroke-miterlimit:10;}
	.st1{fill:#FFD767;stroke:#584C4F;stroke-miterlimit:10;}
</style>
<g id="Layer_5">
</g>
<g id="Layer_3">
</g>
<g>
	<g>
		<path id="XMLID_204_" class="st0" d="M110.7,28.1c0,0-0.1,0.2,0.2,0.2c9.3,0.2,24.1,0,24.1,0c0.3,0,0.2-0.2,0.2-0.2
			c0.4-5.3,0-15.1,0-15.1s0.1-0.2-0.2-0.2c-14.5-0.4-24.3,0-24.3,0c-0.3,0-0.2,0.2-0.2,0.2S110.5,21.2,110.7,28.1z"/>
		<path id="XMLID_203_" class="st0" d="M113.5,15.8c0,0-0.1-0.4,0.3-0.4c0,0,6.1-0.5,13.6,0c0.4,0,0.3,0.4,0.3,0.4s0.1,5.5-0.1,9.4
			c0,0,0.1,0.4-0.3,0.4c0,0-5.8,0.3-13.4,0c-0.4,0-0.3-0.4-0.3-0.4L113.5,15.8z"/>
		<g>
			<path class="st0" d="M116.2,7.3c1.5,1.6,3.3,3.4,5,5c0.1-0.1,0.1-0.1,0.2-0.2C115.4,6.2,116.2,7.3,116.2,7.3z"/>
			<path class="st0" d="M126.4,7.1c-1.6,1.5-3.4,3.3-5,5c0.1,0.1,0.1,0.1,0.2,0.2C127.5,6.3,126.4,7.1,126.4,7.1z"/>
			<path class="st0" d="M121.4,12.1c-0.1,0.1-0.1,0.1-0.2,0.2c0.1,0.1,0.1,0.1,0.2,0.2c0.1-0.1,0.1-0.1,0.2-0.2
				C121.6,12.2,121.5,12.1,121.4,12.1z"/>
		</g>
	</g>
	<g>
		<g>
			<path class="st0" d="M206.3,12.6c0,0-0.3-0.6-0.9-0.5c0,0-23.9,0-24.6,0c-0.6,0-0.9,0.5-0.9,0.5s0,13.5,0.3,14
				c0,0,0.3,0.6,0.9,0.5c0,0,3.6,0,8,0.1v-0.1c0.1-0.1,3.9-3.8,3.9-3.8c0.1-0.1,0.3,0,0.3,0c0.5,0.4,3.8,3.9,3.8,3.9v0.1
				c4,0,7.3,0,8-0.1c0.6-0.1,0.9-0.5,0.9-0.5S206.5,14.2,206.3,12.6z"/>
			<path class="st0" d="M193.3,23.3c0,0-0.2-0.1-0.3,0c0,0-3.7,3.7-3.9,3.8v0.1c2.6,0,5.4,0,8,0c0-0.1,0-0.1,0-0.1
				S193.8,23.7,193.3,23.3z"/>
		</g>
		<g>
			<path class="st0" d="M190.6,19.7c0-0.1,0-0.1,0-0.2c0-0.2,0-0.5-0.1-0.7c-0.1-0.3-0.1-0.5-0.2-0.8c0,0,0,0-0.1-0.1
				c-0.1-0.4-0.4-0.8-0.7-1c-0.3-0.3-0.6-0.5-1-0.7c-0.2-0.1-0.4-0.2-0.7-0.3c0,0-0.2,0-0.4,0c-0.3-0.1-0.5-0.1-0.8-0.1
				c-0.1,0-0.1,0-0.2,0c-0.2,0-0.5,0-0.7,0.1c-0.3,0.1-0.5,0.1-0.8,0.2c0,0,0,0-0.1,0.1c-0.4,0.1-0.8,0.4-1,0.7
				c-0.3,0.3-0.5,0.6-0.7,1c-0.1,0.2-0.2,0.4-0.3,0.7c0,0,0,0.2,0,0.4c-0.1,0.3-0.1,0.5-0.1,0.8c0,0.1,0,0.1,0,0.2
				c0,0.2,0,0.5,0.1,0.7c0.1,0.3,0.1,0.5,0.2,0.8c0,0,0,0,0.1,0.1c0.1,0.4,0.4,0.8,0.7,1c0.3,0.3,0.6,0.5,1,0.7
				c0.2,0.1,0.4,0.2,0.7,0.3c0,0,0.2,0,0.4,0c0.3,0.1,0.5,0.1,0.8,0.1c0.1,0,0.1,0,0.2,0c0.2,0,0.5,0,0.7-0.1
				c0.3-0.1,0.5-0.1,0.8-0.2c0,0,0,0,0.1-0.1c0.4-0.1,0.8-0.4,1-0.7c0.3-0.3,0.5-0.6,0.7-1c0.1-0.2,0.2-0.4,0.3-0.7c0,0,0-0.2,0-0.4
				C190.6,20.2,190.6,19.9,190.6,19.7z"/>
			<path class="st0" d="M203.8,19.7c0-0.1,0-0.1,0-0.2c0-0.2,0-0.5-0.1-0.7c-0.1-0.3-0.1-0.5-0.2-0.8c0,0,0,0-0.1-0.1
				c-0.1-0.4-0.4-0.8-0.7-1c-0.3-0.3-0.6-0.5-1-0.7c-0.2-0.1-0.4-0.2-0.7-0.3c0,0-0.2,0-0.4,0c-0.3-0.1-0.5-0.1-0.8-0.1
				c-0.1,0-0.1,0-0.2,0c-0.2,0-0.5,0-0.7,0.1c-0.3,0.1-0.5,0.1-0.8,0.2c0,0,0,0-0.1,0.1c-0.4,0.1-0.8,0.4-1,0.7
				c-0.3,0.3-0.5,0.6-0.7,1c-0.1,0.2-0.2,0.4-0.3,0.7c0,0,0,0.2,0,0.4c-0.1,0.3-0.1,0.5-0.1,0.8c0,0.1,0,0.1,0,0.2
				c0,0.2,0,0.5,0.1,0.7c0.1,0.3,0.1,0.5,0.2,0.8c0,0,0,0,0.1,0.1c0.1,0.4,0.4,0.8,0.7,1c0.3,0.3,0.6,0.5,1,0.7
				c0.2,0.1,0.4,0.2,0.7,0.3c0,0,0.2,0,0.4,0c0.3,0.1,0.5,0.1,0.8,0.1c0.1,0,0.1,0,0.2,0c0.2,0,0.5,0,0.7-0.1
				c0.3-0.1,0.5-0.1,0.8-0.2c0,0,0,0,0.1-0.1c0.4-0.1,0.8-0.4,1-0.7c0.3-0.3,0.5-0.6,0.7-1c0.1-0.2,0.2-0.4,0.3-0.7c0,0,0-0.2,0-0.4
				C203.8,20.2,203.8,19.9,203.8,19.7z"/>
		</g>
	</g>
	<path id="XMLID_202_" class="st0" d="M78.1,6.1c0,0-0.2-0.1-0.2,0.2c-0.2,9.9,0,25.6,0,25.6c0,0.3,0.2,0.2,0.2,0.2
		c5.6,0.4,16,0,16,0s0.2,0.1,0.2-0.2c0.4-15.3,0-25.8,0-25.8c0-0.3-0.2-0.2-0.2-0.2S85.3,5.9,78.1,6.1z"/>
	<g>
		<path class="st0" d="M236.2,30.8c-0.6-3.5-1.6-5-2.8-5.7c0,0-7.2-2.7-9.3,4.2c-0.2,0.6-0.3,1.1-0.3,1.6L236.2,30.8L236.2,30.8z"/>
		<path class="st0" d="M241.5,9c0,0,0.1-0.2-0.2-0.2c-13.5-0.6-22.7,0-22.7,0c-0.3,0-0.2,0.2-0.2,0.2s0,7.7,0.1,15.7h23.1L241.5,9z"
			/>
		<path class="st0" d="M218.7,28.5c8.7,0.2,22.5,0,22.5,0c0.3,0,0.2-0.2,0.2-0.2c0.1-0.7,0.1-1.5,0.1-2.4v-1.4h-23.1
			c0,1.3,0,2.5,0.1,3.7C218.5,28.3,218.5,28.5,218.7,28.5z"/>
		<path class="st0" d="M238.5,11.6c0,0,0.1-0.2-0.1-0.2c-9.9-0.4-16.6,0-16.6,0c-0.2,0-0.1,0.2-0.1,0.2s0,5,0.1,10.3h16.9
			L238.5,11.6z"/>
	</g>
	<path class="st1" d="M105.7,19.5c0,0,0.1-1.2,0-2.2c0.3-2.2,0.2-9.7,0-13.6c0,0,0.4-4.3-1.2-3.1c-0.6,0.5-0.8,2.2-0.8,4
		c0,1.9-0.1,7.8,0.1,11.7c0,0-0.1,1.2,0,2.2c-0.3,2.2-0.2,9.7,0,13.6c0,0-0.4,4.3,1.2,3.1c0.5-0.4,0.8-1.8,0.8-3.4
		C105.8,29.8,105.8,23.3,105.7,19.5z"/>
	<path class="st1" d="M70.6,19.5c0,0,0.1-1.2,0-2.2c0.3-2.2,0.2-9.7,0-13.6c0,0,0.4-4.3-1.2-3.1c-0.6,0.5-0.8,2.2-0.8,4
		c0,1.9-0.1,7.8,0.1,11.7c0,0-0.1,1.2,0,2.2c-0.3,2.2-0.2,9.7,0,13.6c0,0-0.4,4.3,1.2,3.1c0.5-0.4,0.8-1.8,0.8-3.4
		C70.7,29.8,70.7,23.3,70.6,19.5z"/>
	<g>
		<path id="XMLID_201_" class="st0" d="M55.3,5c0,0,0.3-0.1,0.3,0.5c0,0,0.4,11.3,0,25.3c0,0.7-0.3,0.5-0.3,0.5s-4.2,0.1-7.2-0.2
			c0,0-0.3,0.1-0.3-0.5c0,0-0.3-10.8,0-24.8c0-0.7,0.3-0.5,0.3-0.5L55.3,5z"/>
		<path id="XMLID_200_" class="st0" d="M56.1,10.5c0,0-9.5-3.5-12.2,5.5c-2.6,9,5.4,10.8,6.5,10.8c1.1-0.1,10.4-0.8,9.7-6.8
			C59.4,13.9,57.9,11.5,56.1,10.5z"/>
		<path id="XMLID_199_" class="st0" d="M47.6,13.3c0,0-5,5.6,0.5,9.8s8.9-0.8,9.1-1.6c0.2-0.8,2.2-7.4-2.1-8.4
			C50.8,12,48.8,12.4,47.6,13.3z"/>
	</g>
	<path id="XMLID_198_" class="st0" d="M79.6,8.5c0,0-0.1-0.9,0.3-1c0,0,5.5-1.1,12.3,0c0.3,0.1,0.3,1,0.3,1s0.1,12.2-0.1,20.7
		c0,0,0.1,0.9-0.3,1c0,0-5.3,0.8-12.1,0c-0.3,0-0.3-1-0.3-1L79.6,8.5z"/>
	<g>
		<path id="XMLID_197_" class="st0" d="M145,28.2c0,0-0.1,0.2,0.2,0.2c9.9,0.2,25.6,0,25.6,0c0.3,0,0.2-0.2,0.2-0.2
			c0.4-5.6,0-16,0-16s0.1-0.2-0.2-0.2c-15.3-0.4-25.8,0-25.8,0c-0.3,0-0.2,0.2-0.2,0.2S144.8,21,145,28.2z"/>
		<path id="XMLID_196_" class="st0" d="M146.8,14.2c0,0-0.1-0.5,0.4-0.6c0,0,8.3-0.6,18.5,0c0.5,0,0.4,0.6,0.4,0.6s0.1,7-0.2,12
			c0,0,0.1,0.5-0.4,0.6c0,0-7.9,0.4-18.2,0c-0.5,0-0.4-0.6-0.4-0.6L146.8,14.2z"/>
		<path id="XMLID_195_" class="st0" d="M167.9,19.8c0,0-0.4,1.1,0.6,1.4s1.2-0.6,1.2-0.7c0-0.1-0.1-1.2-0.8-1.1
			S168.1,19.6,167.9,19.8z"/>
	</g>
	<path class="st1" d="M176.7,19.5c0,0,0.1-1.2,0-2.2c0.3-2.2,0.2-9.7,0-13.6c0,0,0.4-4.3-1.2-3.1c-0.6,0.5-0.8,2.2-0.8,4
		c0,1.9-0.1,7.8,0.1,11.7c0,0-0.1,1.2,0,2.2c-0.3,2.2-0.2,9.7,0,13.6c0,0-0.4,4.3,1.2,3.1c0.5-0.4,0.8-1.8,0.8-3.4
		C176.8,29.8,176.8,23.3,176.7,19.5z"/>
	<path class="st1" d="M141.6,19.5c0,0,0.1-1.2,0-2.2c0.3-2.2,0.2-9.7,0-13.6c0,0,0.4-4.3-1.2-3.1c-0.6,0.5-0.8,2.2-0.8,4
		s-0.1,7.8,0.1,11.7c0,0-0.1,1.2,0,2.2c-0.3,2.2-0.2,9.7,0,13.6c0,0-0.4,4.3,1.2,3.1c0.5-0.4,0.8-1.8,0.8-3.4
		C141.7,29.8,141.7,23.3,141.6,19.5z"/>
	<path class="st1" d="M247.7,19.5c0,0,0.1-1.2,0-2.2c0.3-2.2,0.2-9.7,0-13.6c0,0,0.4-4.3-1.2-3.1c-0.6,0.5-0.8,2.2-0.8,4
		c0,1.9-0.1,7.8,0.1,11.7c0,0-0.1,1.2,0,2.2c-0.3,2.2-0.2,9.7,0,13.6c0,0-0.4,4.3,1.2,3.1c0.5-0.4,0.8-1.8,0.8-3.4
		C247.8,29.8,247.8,23.3,247.7,19.5z"/>
	<path class="st1" d="M212.6,19.5c0,0,0.1-1.2,0-2.2c0.3-2.2,0.2-9.7,0-13.6c0,0,0.4-4.3-1.2-3.1c-0.6,0.5-0.8,2.2-0.8,4
		s-0.1,7.8,0.1,11.7c0,0-0.1,1.2,0,2.2c-0.3,2.2-0.2,9.7,0,13.6c0,0-0.4,4.3,1.2,3.1c0.5-0.4,0.8-1.8,0.8-3.4
		C212.7,29.8,212.7,23.3,212.6,19.5z"/>
	<path class="st1" d="M276,45.5c-6.7-0.2-19.9-0.3-23.7,0c-1.5-0.1-3.4,0-3.8,0c-0.6,0-1.3,0-1.8,0c-2.1-0.1-4.4-0.1-6.6-0.1
		c-6.9-0.1-15.4-0.1-18.4,0.1c-1.7-0.1-3.8,0-3.8,0c-0.3,0-0.7,0-1,0c-0.3,0-0.5,0-0.8,0c-2.3-0.1-4.8-0.1-7.3-0.1
		c-6.9-0.1-15.4-0.1-18.3,0.1c-1.5-0.1-3.4,0-3.8,0c-0.6,0-1.3,0-1.8,0c-2.1-0.1-4.4-0.1-6.6-0.1c-6.9-0.1-15.4-0.1-18.4,0.1
		c-1.7-0.1-3.8,0-3.8,0c-0.3,0-0.7,0-1,0c-0.3,0-0.5,0-0.8,0c-2.3-0.1-4.8-0.1-7.3-0.1c-6.9-0.1-15.4-0.1-18.3,0.1
		c-1.1-0.1-2.4-0.1-3.2-0.1c-0.5,0-1,0-1.5,0c-0.3,0-0.6,0-0.9,0c-1.7,0-3.4,0-5.2,0c-2.9,0-6,0-9,0c-4.3,0-8.2,0-10.3,0.1
		c-0.8,0-1.7,0-2.3,0c-0.7,0-1.2,0-1.7,0c-0.4,0-1,0-1.3,0c-2.1-0.1-4.4-0.1-6.6-0.1C79.6,45.3,71,45.3,68,45.5
		c-1.7-0.1-3.8,0-3.8,0c-6.7-0.2-17.1-0.1-20.4-0.1c-3.2,0.1-6.2,0.3-6.7,0.8c-2.1,1.6,5.4,1.2,5.4,1.2c6.7,0.2,19.9,0.3,23.7,0
		c1.1,0.1,2.4,0.1,3.2,0.1c0.5,0,1,0,1.5,0c0.3,0,0.5,0,0.8,0c2.1,0.1,4.4,0.1,6.8,0.1c2.4,0,4.9,0,7.2,0c4.3,0,8.3,0,10.4-0.1
		c0.8,0,1.7,0,2.3,0c0.7,0,1.2,0,1.7,0c0.5,0,1,0,1.3,0c2.5,0.1,5.5,0.1,8.4,0.1c6.5,0.1,14,0.1,16.7-0.1c1.7,0.1,3.8,0,3.8,0
		c0.3,0,0.7,0,1,0c0.3,0,0.4,0,0.7,0c2.8,0.1,6,0.1,9.2,0.1c6.5,0.1,13.8,0.1,16.5-0.1c1.5,0.1,3.4,0,3.8,0c0.7,0,1.3,0,1.8,0
		c2.5,0.1,5.5,0.1,8.4,0.1c6.5,0.1,14,0.1,16.7-0.1c1.7,0.1,3.8,0,3.8,0c0.3,0,0.7,0,1,0c0.3,0,0.4,0,0.7,0c2.8,0.1,6,0.1,9.2,0.1
		c6.5,0.1,13.8,0.1,16.5-0.1c1.5,0.1,3.4,0,3.8,0c0.7,0,1.3,0,1.8,0c2.5,0.1,5.5,0.1,8.4,0.1c6.5,0.1,14,0.1,16.7-0.1
		c1.7,0.1,3.8,0,3.8,0c6.7,0.1,18,0.1,21.5,0c2.8,0,5.1-0.3,5.8-0.8C283.5,45.2,276,45.5,276,45.5z"/>
</g>
</svg>
