<?xml version="1.0" encoding="utf-8"?>
<!-- Generator: Adobe Illustrator 22.1.0, SVG Export Plug-In . SVG Version: 6.00 Build 0)  -->
<svg version="1.1" id="Layer_1" xmlns="http://www.w3.org/2000/svg" xmlns:xlink="http://www.w3.org/1999/xlink" x="0px" y="0px"
	 viewBox="0 0 2227.8 1015.6" style="enable-background:new 0 0 2227.8 1015.6;" xml:space="preserve">
<style type="text/css">
	.st0{opacity:0.1;}
	.st1{fill:#231F20;stroke:#231F20;stroke-miterlimit:10;}
	.st2{fill:#A36B78;stroke:#584C4F;stroke-width:4;stroke-linecap:round;stroke-miterlimit:10;}
	.st3{fill:#B66C7E;stroke:#584C4F;stroke-width:4;stroke-miterlimit:10;}
	.st4{fill:#FFFAF2;stroke:#584C4F;stroke-width:2;stroke-miterlimit:10;}
</style>
<g id="Layer_5">
</g>
<g id="Layer_3">
</g>
<g>
	<g class="st0">
		<path id="XMLID_6257_" class="st1" d="M1184.9,2673.6c-14.6-312.3-27.4-695.9-37.5-895.2c-18.3-361.1,10.3-891.5,10.3-891.5
			L1006,899.8c0,0,31,936.7,0,1133.4c-22.2,141,16.8,663.1,29.2,967.5"/>
		<path class="st1" d="M1149.8,910.5c18.2-19.8,33.7-53.5,33.7-111c0-26.7,4.2-67.6,2.7-72.9c-2.5-8.9-0.1-58.2-4.9-76.6
			c5.6-2.2,9.5-6.3,8.3-10.7c-3.1-10.9,1.2-81.3-9.1-83.5s-20.6-4.4-21.6,0.5c0,0-9.2,67.9-2.4,85.6c-0.5,0.4-0.9,0.9-1,1.6
			c0,0-5.3,39.3-4.9,65.9c-9.3-5.6-20.2-8.4-32.3-9.5c-0.4-12.8,18.7-75.9,15.2-95.7c3.8-1.6,6.2-4.3,5.9-7.8
			c-0.8-13.9,24.7-95.3,12.2-101.7c-12.5-6.3-25-12.7-27.7-7.3c0,0-31.8,78.2-27.4,100.7c0.7,3.4,2.2,6.2,4.1,8.5
			c-7,17.8-29,76.4-25.3,95.3c0.7,3.4-17.8,7.1-18.5,4.9c-4.1-12.7-1.3-86-10.5-106.3c3.5-2.8,5.3-6.3,4.1-10
			c-4.7-14.5-0.3-108.2-15.2-111.3c-14.9-3.2-29.8-6.3-31.2,0.1c0,0-11.8,92.1-1,114.6c1.6,3.4,4,5.9,6.7,7.9
			c-2.4,21.1-9.4,89.3-0.3,108.3c1.2,2.5-3.3,6.5-7.2,6.5c-5.1,0-14.3-0.7-14.8-1.7c-6-11.4-17.2-82.6-29-100.1
			c2.5-3.4,3.5-7.1,1.7-10.4c-6.8-13-20.4-104-34.1-104c-13.6,0-27.3,0-27.3,6.5c0,0,6.8,91,20.4,110.6c2,2.9,4.6,4.9,7.3,6.2
			c1.8,20.8,8.5,87.9,19.9,104.3c3.2,4.6-0.9,39.7-0.9,58.4c-16.9-22.4-39.6-53.4-48.2-49.8c-12.6,5.2-25.2,10.3-23,15.6
			c0,0,35.7,69.6,54.9,81.3c-0.2,0.7-0.3,1.5,0,2.2c0,0,36.5,71.1,55.6,81.7c1.3,0.7,2.5,1.2,3.8,1.6c13.1,16.6,27,26.2,40.4,31.4"
			/>
		<path class="st1" d="M1142.9,917.3c2.3-2,4.6-4.3,6.9-6.7"/>
		<path id="XMLID_6256_" class="st1" d="M1125.2,983.7c0,0,122.2-82.2,0-88.4"/>
		<path class="st1" d="M1005.7,498.4c0,0-5.1-15.2,5.1-15.2s20.3-5.1,20.3,10.2c0,15.3-10.2,15.2-10.2,15.2
			S1010.8,513.7,1005.7,498.4z"/>
		<path class="st1" d="M906.1,522.8c0,0-5.1-15.2,5.1-15.2s20.3-5.1,20.3,10.2c0,15.3-10.2,15.2-10.2,15.2S911.2,538.1,906.1,522.8z
			"/>
		<path class="st1" d="M1166.4,587.9c0,0-5.1-15.2,5.1-15.2s20.3-5.1,20.3,10.2c0,15.2-10.2,15.2-10.2,15.2
			S1171.4,603.1,1166.4,587.9z"/>
		<path class="st1" d="M1117.1,518c0,0-6.1-18.3,6.1-18.3c12.2,0,24.5-6.1,24.5,12.2c0,18.3-12.2,18.3-12.2,18.3
			S1123.2,536.3,1117.1,518z"/>
		<path class="st1" d="M873.7,750.7c0,0-5-15.1,5-15.1c10.1,0,20.1-5,20.1,10.1s-10.1,15.1-10.1,15.1S878.7,765.8,873.7,750.7z"/>
		<path id="XMLID_6255_" class="st1" d="M1137,734.5c0,0,18.9,31.6,22.1,1.2"/>
		<path id="XMLID_6254_" class="st1" d="M1085.9,736.4c0,0,18.9,31.6,22.1,1.2"/>
		<path id="XMLID_6253_" class="st1" d="M1031.3,734.5c0,0,18.9,31.6,22.1,1.2"/>
		<path id="XMLID_6252_" class="st1" d="M980.2,736.4c0,0,18.9,31.6,22.1,1.2"/>
		<path id="XMLID_6251_" class="st1" d="M929.4,799.6c0,0-30.2,57,18.3,34.1"/>
		<path id="XMLID_6250_" class="st1" d="M947.6,634.9c3.7,0.9,7-1.9,8.1-13.1"/>
		<path id="XMLID_6249_" class="st1" d="M1023.5,612.5c3.7-1.5,8.2-3.6,13.6-6.4"/>
		<path id="XMLID_6248_" class="st1" d="M1126.6,613.7"/>
		<path id="XMLID_6247_" class="st1" d="M1118.4,626.8c2.8,0.7,5.3-0.7,6.9-6.1"/>
		<path id="XMLID_6246_" class="st1" d="M1173.2,653.2"/>
		<path id="XMLID_6245_" class="st1" d="M1167.2,661.8c2.9,0.8,6.2,1.2,7.6-0.4"/>
	</g>
	<g>
		<path id="XMLID_6244_" class="st2" d="M1163.6,2651.6c-14.6-312.3-27.4-695.9-37.5-895.2c-18.3-361.1,10.3-891.5,10.3-891.5
			l-151.7,12.9c0,0,31,936.7,0,1133.4c-22.2,141,16.8,663.1,29.2,967.5"/>
		<path class="st2" d="M1128.5,888.5c18.2-19.8,33.7-53.5,33.7-111c0-26.7,4.2-67.6,2.7-72.9c-2.5-8.9-0.1-58.2-4.9-76.6
			c5.6-2.2,9.5-6.3,8.3-10.7c-3.1-10.9,1.2-81.3-9.1-83.5s-20.6-4.4-21.6,0.5c0,0-9.2,67.9-2.4,85.6c-0.5,0.4-0.9,0.9-1,1.6
			c0,0-5.3,39.3-4.9,65.9c-9.3-5.6-20.2-8.4-32.3-9.5c-0.4-12.8,18.7-75.9,15.2-95.7c3.8-1.6,6.2-4.3,5.9-7.8
			c-0.8-13.9,24.7-95.3,12.2-101.7c-12.5-6.3-25-12.7-27.7-7.3c0,0-31.8,78.2-27.4,100.7c0.7,3.4,2.2,6.2,4.1,8.5
			c-7,17.8-29,76.4-25.3,95.3c0.7,3.4-17.8,7.1-18.5,4.9c-4.1-12.7-1.3-86-10.5-106.3c3.5-2.8,5.3-6.3,4.1-10
			c-4.7-14.5-0.3-108.2-15.2-111.3c-14.9-3.2-29.8-6.3-31.2,0.1c0,0-11.8,92.1-1,114.6c1.6,3.4,4,5.9,6.7,7.9
			c-2.4,21.1-9.4,89.3-0.3,108.3c1.2,2.5-3.3,6.5-7.2,6.5c-5.1,0-14.3-0.7-14.8-1.7c-6-11.4-17.2-82.6-29-100.1
			c2.5-3.4,3.5-7.1,1.7-10.4c-6.8-13-20.4-104-34.1-104c-13.6,0-27.3,0-27.3,6.5c0,0,6.8,91,20.4,110.6c2,2.9,4.6,4.9,7.3,6.2
			c1.8,20.8,8.5,87.9,19.9,104.3c3.2,4.6-0.9,39.7-0.9,58.4c-16.9-22.4-39.6-53.4-48.2-49.8c-12.6,5.2-25.2,10.3-23,15.6
			c0,0,35.7,69.6,54.9,81.3c-0.2,0.7-0.3,1.5,0,2.2c0,0,36.5,71.1,55.6,81.7c1.3,0.7,2.5,1.2,3.8,1.6c13.1,16.6,27,26.2,40.4,31.4"
			/>
		<path class="st2" d="M1121.6,895.3c2.3-2,4.6-4.3,6.9-6.7"/>
		<path id="XMLID_6243_" class="st2" d="M1103.9,961.7c0,0,122.2-82.2,0-88.4"/>
		<path class="st3" d="M986.6,462.9c0,0-4.3-15.5,5.8-15s20.5-4.1,19.8,11.1s-10.9,14.7-10.9,14.7S990.9,478.3,986.6,462.9z"/>
		<path class="st3" d="M882.8,489.8c0,0-5.1-15.2,5.1-15.2s20.3-5.1,20.3,10.2c0,15.3-10.2,15.2-10.2,15.2S887.8,505.1,882.8,489.8z
			"/>
		<path class="st3" d="M1143,548.9c0,0-5.1-15.2,5.1-15.2c10.2,0,20.3-5.1,20.3,10.2c0,15.2-10.2,15.2-10.2,15.2
			S1148.1,564.1,1143,548.9z"/>
		<path class="st3" d="M1098.5,482.9c0,0-0.9-19.3,10.9-16c11.8,3.3,25.2,0.8,20.2,18.5c-5,17.6-16.8,14.3-16.8,14.3
			S1099.4,502.2,1098.5,482.9z"/>
		<path class="st3" d="M859.5,729.9c0,0-9.1-13.1,0.6-15.9s17.9-10.5,22.2,4c4.3,14.5-5.4,17.3-5.4,17.3S868.6,743,859.5,729.9z"/>
		<path id="XMLID_6242_" class="st2" d="M1115.7,712.5c0,0,18.9,31.6,22.1,1.2"/>
		<path id="XMLID_6241_" class="st2" d="M1064.6,714.4c0,0,18.9,31.6,22.1,1.2"/>
		<path id="XMLID_6240_" class="st2" d="M1010,712.5c0,0,18.9,31.6,22.1,1.2"/>
		<path id="XMLID_6239_" class="st2" d="M958.8,714.4c0,0,18.9,31.6,22.1,1.2"/>
		<path id="XMLID_6238_" class="st2" d="M908,777.6c0,0-30.2,57,18.3,34.1"/>
		<path id="XMLID_6237_" class="st2" d="M926.3,612.9c3.7,0.9,7-1.9,8.1-13.1"/>
		<path id="XMLID_6236_" class="st2" d="M1002.2,590.5c3.7-1.5,8.2-3.6,13.6-6.4"/>
		<path id="XMLID_6235_" class="st2" d="M1105.2,591.7"/>
		<path id="XMLID_6234_" class="st2" d="M1097.1,604.8c2.8,0.7,5.3-0.7,6.9-6.1"/>
		<path id="XMLID_5343_" class="st2" d="M1151.8,631.2"/>
		<path id="XMLID_5340_" class="st2" d="M1145.9,639.8c2.9,0.8,6.2,1.2,7.6-0.4"/>
		<path id="XMLID_6866_" class="st2" d="M893,514.3c2,3.2,6.3,3.5,14.9-3.8"/>
		<path id="XMLID_6865_" class="st2" d="M993.5,487.4c4,0.3,8.9,0.4,15,0.2"/>
		<path id="XMLID_6864_" class="st2" d="M1101,507.5c1.5,2.4,4.2,3.2,9.2,0.5"/>
		<path id="XMLID_6863_" class="st2" d="M1150.9,567.8c2.9,0.8,6.2,1.2,7.6-0.4"/>
	</g>
	<path id="XMLID_6277_" class="st4" d="M1100.8,645.6c-1-0.2-41.2-5.8-44.8-5.7c-0.5,0-1.8,0.6-2.6,1.3c-1.1,1-2.6,2.5-3.2,4.3
		c-0.1,0.2-1.2,7.8-1.2,8c-0.5,2.3,0.6,4.9,5.4,7.3c3.6,1.7,44.8,6.5,45.7,6.6c2.8,0.3,4.5-1.5,5.1-3.9c0.4-1.5,1.2-7.3,1.3-8.8
		C1106.7,651,1104.8,646.5,1100.8,645.6z"/>
	<path id="XMLID_6275_" class="st4" d="M1101.8,663.1c0,0,0.4,1.4-0.6,1.8"/>
	<path id="XMLID_6274_" class="st4" d="M1056.8,641.9c0,0-1.7,0.5-2.2,1.2"/>
</g>
<g>
	<g class="st0">
		<path id="XMLID_6293_" class="st1" d="M104.6,2658.6c14.6-312.3,27.4-695.9,37.5-895.2c18.3-361.1-10.3-891.5-10.3-891.5l151.7,13
			c0,0-31,936.7,0,1133.4c22.2,141-16.8,663.1-29.2,967.5"/>
		<path class="st1" d="M139.7,895.5c-18.2-19.7-33.7-53.5-33.7-111c0-26.7-4.2-67.6-2.7-72.9c2.5-8.9,0.1-58.2,4.9-76.6
			c-5.6-2.2-9.5-6.3-8.3-10.7c3.1-10.9-1.2-81.3,9.1-83.5s20.6-4.4,21.6,0.5c0,0,9.2,67.9,2.4,85.6c0.5,0.4,0.9,0.9,1,1.6
			c0,0,5.3,39.3,4.9,65.9c9.3-5.6,20.2-8.4,32.3-9.5c0.4-12.8-18.7-75.9-15.2-95.7c-3.8-1.6-6.2-4.3-5.9-7.8
			c0.8-13.9-24.7-95.3-12.2-101.7c12.5-6.3,25-12.7,27.7-7.3c0,0,31.8,78.2,27.4,100.7c-0.7,3.4-2.2,6.2-4.1,8.5
			c7,17.8,29,76.4,25.3,95.3c-0.7,3.4,17.8,7.1,18.5,4.9c4.1-12.7,1.3-86,10.5-106.3c-3.5-2.8-5.3-6.3-4.1-10
			c4.7-14.5,0.3-108.2,15.2-111.3c14.9-3.2,29.8-6.3,31.2,0.1c0,0,11.8,92.1,1,114.6c-1.6,3.4-4,5.9-6.7,7.9
			c2.4,21.1,9.4,89.3,0.3,108.3c-1.2,2.5,3.3,6.5,7.2,6.5c5.1,0,14.3-0.7,14.8-1.7c6-11.4,17.2-82.6,29-100.1
			c-2.5-3.4-3.5-7.1-1.7-10.4c6.8-13,20.4-104,34.1-104c13.6,0,27.3,0,27.3,6.5c0,0-6.8,91-20.4,110.6c-2,2.9-4.6,4.9-7.3,6.2
			c-1.8,20.8-8.5,87.9-19.9,104.3c-3.2,4.6,0.9,39.7,0.9,58.4c16.9-22.4,39.6-53.4,48.2-49.8c12.6,5.2,25.2,10.3,23,15.6
			c0,0-35.7,69.6-54.9,81.3c0.2,0.7,0.3,1.5,0,2.2c0,0-36.5,71.1-55.6,81.7c-1.3,0.7-2.5,1.2-3.8,1.6c-13.1,16.6-27,26.2-40.4,31.4"
			/>
		<path class="st1" d="M146.6,902.3c-2.3-2-4.6-4.3-6.9-6.7"/>
		<path id="XMLID_6292_" class="st1" d="M164.3,968.7c0,0-122.2-82.2,0-88.4"/>
		<path class="st1" d="M283.8,483.4c0,0,5.1-15.2-5.1-15.2s-20.3-5.1-20.3,10.2c0,15.3,10.2,15.2,10.2,15.2S278.7,498.7,283.8,483.4
			z"/>
		<path class="st1" d="M383.4,507.8c0,0,5.1-15.2-5.1-15.2s-20.3-5.1-20.3,10.2c0,15.3,10.2,15.2,10.2,15.2S378.3,523.1,383.4,507.8
			z"/>
		<path class="st1" d="M123.2,572.9c0,0,5.1-15.2-5.1-15.2s-20.3-5.1-20.3,10.2c0,15.2,10.2,15.2,10.2,15.2S118.1,588.1,123.2,572.9
			z"/>
		<path class="st1" d="M172.4,503c0,0,6.1-18.3-6.1-18.3s-24.5-6.2-24.5,12.2s12.2,18.3,12.2,18.3S166.3,521.3,172.4,503z"/>
		<path class="st1" d="M415.9,735.7c0,0,5-15.1-5-15.1s-20.1-5-20.1,10.1s10.1,15.1,10.1,15.1S410.8,750.8,415.9,735.7z"/>
		<path id="XMLID_6291_" class="st1" d="M152.5,719.5c0,0-18.9,31.6-22.1,1.2"/>
		<path id="XMLID_6290_" class="st1" d="M203.6,721.4c0,0-18.9,31.6-22.1,1.2"/>
		<path id="XMLID_6289_" class="st1" d="M258.2,719.5c0,0-18.9,31.6-22.1,1.2"/>
		<path id="XMLID_6288_" class="st1" d="M309.3,721.4c0,0-18.9,31.6-22.1,1.2"/>
		<path id="XMLID_6287_" class="st1" d="M360.2,784.6c0,0,30.2,57-18.3,34.1"/>
		<path id="XMLID_6286_" class="st1" d="M341.9,619.9c-3.7,0.9-7-1.9-8.1-13.1"/>
		<path id="XMLID_6285_" class="st1" d="M266,597.5c-3.7-1.5-8.2-3.6-13.6-6.4"/>
		<path id="XMLID_6284_" class="st1" d="M163,598.7"/>
		<path id="XMLID_6283_" class="st1" d="M171.1,611.8c-2.8,0.7-5.3-0.7-6.9-6.1"/>
		<path id="XMLID_6282_" class="st1" d="M116.4,638.2"/>
		<path id="XMLID_6281_" class="st1" d="M122.3,646.8c-2.9,0.8-6.2,1.2-7.6-0.4"/>
	</g>
	<g>
		<path id="XMLID_6280_" class="st2" d="M125.9,2636.6c14.6-312.3,27.4-695.9,37.5-895.2c18.3-361.1-10.3-891.5-10.3-891.5
			l151.7,12.9c0,0-31,936.7,0,1133.4c22.2,141-16.8,663.1-29.2,967.5"/>
		<path class="st2" d="M161,873.5c-18.2-19.8-33.7-53.5-33.7-111c0-26.7-4.2-67.6-2.7-72.9c2.5-8.9,0.1-58.2,4.9-76.6
			c-5.6-2.2-9.5-6.3-8.3-10.7c3.1-10.9-1.2-81.3,9.1-83.5c10.3-2.2,20.6-4.4,21.6,0.5c0,0,9.2,67.9,2.4,85.6c0.5,0.4,0.9,0.9,1,1.6
			c0,0,5.3,39.3,4.9,65.9c9.3-5.6,20.2-8.4,32.3-9.5c0.4-12.8-18.7-75.9-15.2-95.7c-3.8-1.6-6.2-4.3-5.9-7.8
			c0.8-13.9-24.7-95.3-12.2-101.7c12.5-6.3,25-12.7,27.7-7.3c0,0,31.8,78.2,27.4,100.7c-0.7,3.4-2.2,6.2-4.1,8.5
			c7,17.8,29,76.4,25.3,95.3c-0.7,3.4,17.8,7.1,18.5,4.9c4.1-12.7,1.3-86,10.5-106.3c-3.5-2.8-5.3-6.3-4.1-10
			c4.7-14.5,0.3-108.2,15.2-111.3c14.9-3.2,29.8-6.3,31.2,0.1c0,0,11.8,92.1,1,114.6c-1.6,3.4-4,5.9-6.7,7.9
			c2.4,21.1,9.4,89.3,0.3,108.3c-1.2,2.5,3.3,6.5,7.2,6.5c5.1,0,14.3-0.7,14.8-1.7c6-11.4,17.2-82.6,29-100.1
			c-2.5-3.4-3.5-7.1-1.7-10.4c6.8-13,20.4-104,34.1-104c13.6,0,27.3,0,27.3,6.5c0,0-6.8,91-20.4,110.6c-2,2.9-4.6,4.9-7.3,6.2
			c-1.8,20.8-8.5,87.9-19.9,104.3c-3.2,4.6,0.9,39.7,0.9,58.4c16.9-22.4,39.6-53.4,48.2-49.8c12.6,5.2,25.2,10.3,23,15.6
			c0,0-35.7,69.6-54.9,81.3c0.2,0.7,0.3,1.5,0,2.2c0,0-36.5,71.1-55.6,81.7c-1.3,0.7-2.5,1.2-3.8,1.6c-13.1,16.6-27,26.2-40.4,31.4"
			/>
		<path class="st2" d="M167.9,880.3c-2.3-2-4.6-4.3-6.9-6.7"/>
		<path id="XMLID_6279_" class="st2" d="M185.6,946.7c0,0-122.2-82.2,0-88.4"/>
		<path class="st3" d="M302.9,447.9c0,0,4.3-15.5-5.8-15c-10.1,0.5-20.5-4.1-19.8,11.1s10.9,14.7,10.9,14.7S298.6,463.3,302.9,447.9
			z"/>
		<path class="st3" d="M406.8,474.8c0,0,5.1-15.2-5.1-15.2s-20.3-5.1-20.3,10.2c0,15.3,10.1,15.2,10.1,15.2S401.7,490.1,406.8,474.8
			z"/>
		<path class="st3" d="M146.5,533.9c0,0,5.1-15.2-5.1-15.2c-10.2,0-20.3-5.1-20.3,10.2s10.2,15.2,10.2,15.2S141.4,549.1,146.5,533.9
			z"/>
		<path class="st3" d="M191,467.9c0,0,0.9-19.3-10.9-16c-11.8,3.3-25.2,0.8-20.2,18.5s16.8,14.3,16.8,14.3S190.1,487.2,191,467.9z"
			/>
		<path class="st3" d="M430,714.9c0,0,9.1-13.1-0.6-15.9s-17.9-10.5-22.2,4c-4.3,14.5,5.4,17.3,5.4,17.3S420.9,728,430,714.9z"/>
		<path id="XMLID_6278_" class="st2" d="M173.8,697.5c0,0-18.9,31.6-22.1,1.2"/>
		<path id="XMLID_6276_" class="st2" d="M225,699.4c0,0-18.9,31.6-22.1,1.2"/>
		<path id="XMLID_6273_" class="st2" d="M279.6,697.5c0,0-18.9,31.6-22.1,1.2"/>
		<path id="XMLID_6272_" class="st2" d="M330.7,699.4c0,0-18.9,31.6-22.1,1.2"/>
		<path id="XMLID_6271_" class="st2" d="M381.5,762.6c0,0,30.2,57-18.3,34.1"/>
		<path id="XMLID_6270_" class="st2" d="M363.2,597.9c-3.7,0.9-7-1.9-8.1-13.1"/>
		<path id="XMLID_6269_" class="st2" d="M287.3,575.5c-3.7-1.5-8.2-3.6-13.6-6.4"/>
		<path id="XMLID_6268_" class="st2" d="M184.3,576.7"/>
		<path id="XMLID_6267_" class="st2" d="M192.4,589.8c-2.8,0.7-5.3-0.7-6.9-6.1"/>
		<path id="XMLID_6266_" class="st2" d="M137.7,616.2"/>
		<path id="XMLID_6265_" class="st2" d="M143.6,624.8c-2.9,0.8-6.2,1.2-7.6-0.4"/>
		<path id="XMLID_6264_" class="st2" d="M396.6,499.3c-2,3.2-6.3,3.5-14.9-3.8"/>
		<path id="XMLID_6263_" class="st2" d="M296,472.4c-4,0.3-8.9,0.4-15,0.2"/>
		<path id="XMLID_6262_" class="st2" d="M188.5,492.5c-1.5,2.4-4.2,3.2-9.2,0.5"/>
		<path id="XMLID_6261_" class="st2" d="M138.6,552.8c-2.9,0.8-6.2,1.2-7.6-0.4"/>
	</g>
	<path id="XMLID_6260_" class="st4" d="M188.8,630.6c1-0.2,41.2-5.8,44.8-5.7c0.5,0,1.8,0.6,2.6,1.3c1.1,1,2.6,2.5,3.2,4.3
		c0.1,0.2,1.2,7.8,1.2,8c0.5,2.3-0.6,4.9-5.4,7.3c-3.6,1.7-44.8,6.5-45.7,6.6c-2.8,0.3-4.5-1.5-5.1-3.9c-0.4-1.5-1.2-7.3-1.3-8.8
		C182.8,636,184.7,631.5,188.8,630.6z"/>
	<path id="XMLID_6259_" class="st4" d="M187.7,648.1c0,0-0.4,1.4,0.6,1.8"/>
	<path id="XMLID_6258_" class="st4" d="M232.7,626.9c0,0,1.7,0.5,2.2,1.2"/>
</g>
</svg>
