<?xml version="1.0" encoding="utf-8"?>
<!-- Generator: Adobe Illustrator 22.1.0, SVG Export Plug-In . SVG Version: 6.00 Build 0)  -->
<svg version="1.1" id="Layer_1" xmlns="http://www.w3.org/2000/svg" xmlns:xlink="http://www.w3.org/1999/xlink" x="0px" y="0px"
	 viewBox="0 0 311.9 417.9" style="enable-background:new 0 0 311.9 417.9;" xml:space="preserve">
<style type="text/css">
	.st0{fill:#FFFFFF;}
</style>
<path class="st0" d="M65.3,88.2c-0.3-0.5-2.4,0-3.6,0l0,0c0-1.3,0-2.6,0-3.9c3-1.1,4,2.3,6.3,2.7c2.5-3.3-0.1-7.6,1.3-10.4
	c1.6-3.2-2.3-3.8-1.4-6.1c1.1-2.9,4.7-0.3,5.7-2.9c0.9-2.4,0.2-4.2-2.7-4.6c-1.8-0.3-3.3-1.3-3.1-3.3c0.2-2.3,2.7-2.6,3.8-2
	c2.9,1.4,4.6-5.6,7.5-0.8c0.2-0.2,0.6-0.4,0.6-0.7c0.5-4.6,5.9-7.1,5.6-11.6c-0.2-2.7,2.2-1.9,3.4-3.9c-2.6,0.7-4.5-4.2-6.1,0.9
	c-0.3,0.9-1.4,0.5-2.2,0.5c-5-0.1-0.4-3.8-2-5.3c-0.6-0.6-0.5-1.7,0.3-2.2c0.9-0.6,1.4,0.2,2,0.8c2.2,2.1,6.1,3.9,7.7,2.5
	c3.1-2.6-0.9-5.2-2.2-7.5C81.9,23,82,13.1,86.4,7.5c1.6-2.1,5-3,4.6-6.6c-0.1-0.8,1.5-1.2,2-0.6c2.9,3.1,5.8,0.5,8.7,0.1
	c6.8-0.8,13-0.4,17.5,5.9c1.3,1.8,3.9,5.2,4.8,4.5c4.2-3.2,7.1-0.1,10.4,1.1c1.2,0.4,2.5,0.2,3.8-0.5c2.9-1.6,9.8-0.1,11.8,2.3
	c1.1,1.3,0.3,2.1-0.3,3.1c-5.3,8.1-5.1,8.6,1.3,15.4c3.1,3.4,5.4,4.6,9,0.5c3.9-4.3,8.1-3.1,10.8,2.2c1.7,3.5,1.9,7.3,2.8,10.9
	c1.8,7.6,2.7,8.7,10.6,9.4c6.5,0.6,11.1,5.1,10.2,11.5c-1.6,11.2,8.5,16.6,11.7,25.4c0.2,0.7,2.9,2.2,4.5,2.3c5.1,0.5,2.6,4.9,4,7.2
	c0.5,0.8-2,1.2-0.8,2.8c2.7,3.6,5.9,7.2,1.2,11.6c-0.2,0.2,0.6,1.2,0.6,1.8c0.6,10.2,0.6,10.2-9.5,12.8c-0.4,0.1-0.7,0.1-1,0.3
	c-4.1,2.2-9.3,4.5-11,8.3c-2.4,5.2-6.4,10.4-4.9,17c0.4,2-0.2,4.3-0.8,6.4c-1.1,3.7-1.4,6.8,4.3,7.4c-3.2-0.1-4.9,0.8-4.7,3.9
	c0.1,0.9-0.2,2.2-0.9,2.7c-3.9,2.8-2.7,7.2-3.6,10.9c-0.7,2.8,1.7,5.1,4,3.7c8.2-5,14.1,0.2,20.5,3.8c1.2,0.6,1.5,1.8,1,3
	c-0.7,1.6-1.9,0.9-3,0.5c-4.5-1.7-9-3.4-14-2.9c-0.3-0.3-0.7-0.7-1-1c-0.4-0.3-0.9-0.9-1.3-0.1c-0.1,0.1,0.4,0.6,0.6,0.9
	c0.3,0.4,0.6,0.7,0.9,1.1c1.6,2.6,2.2,5.4,0.3,7.9c-1.8,2.4-4.8,1.9-7.4,1.5c-1.6-0.2-3.2-1-4.8-1.3c-4.1-0.8-5.9,1.1-6,5.3
	c-0.1,3-0.2,6.9-5.2,4.6c-1-0.5-1.4-0.2-1.9,0.7c-2.3,3.8-1.2,7.7,3,9.7c2,1,4.3,1.7,5.4,4.1c-3.2,0.7-5.3-1-7.5-2.4
	c-1.6-1-3.6-0.8-3.1,1.2c1.4,5.4-2.2,5-5.5,5.7c-3,0.7-7.2,1.2-3.3,6.2c1.8,2.2,0.7,4.4-2.4,5.1c-1.9,0.4-2.9,1.7-4.2,3.2
	c-2,2.3-1.8,6.4-4.6,7.3c-5.3,1.7-5.2,6.4-5.2,9.9c0,8.3-2.3,16-4.7,23.7c-0.3,1.2-1.1,2.5-2.1,3.2c-2.1,1.4-14.8-1.8-15.6-4.1
	c-0.7-2.1-1.4-2.4-3.1-1.8c-1,0.4-2.5,0.6-2.7,1.8c-0.3,1.8,1.6,2.2,2.8,2.9c2.6,1.4,6,0.7,8.1,3.3c-1.8,1.7-3.9,0.6-5.9,0.9
	c-5.7-1.6-10.8-6.9-17.5-3.2c-0.5,0.3-1.4,0-2-0.2c-3.2-1.3-4.7,0.4-6.1,3.1c-1.5,2.9-3.1,7.5-5.2,7.8c-7.9,1.1-8.8,3.6-3.5,9.2
	c1,1,0.3,2.2-0.7,3c-1.2,1-2.6,0.6-2.9-0.6c-1.2-4.4-6.2-3.7-8.6-6.5c-1.3-1.6-3.2-0.2-3.9,0.7c-2.4,3.1-6,3.2-9.3,3.6
	c-2.2,0.3-4.1,0.6-5.4,2.7c-1.2,2-2.3,1.5-3.7-0.3c-2.9-3.7-6.9-6.2-10.9-8.5c-1.9-1.2-3.7-1.8-3.4-4.5c0.2-1.5-0.2-3.4-1.6-3.9
	c-1.9-0.7-2.3,1.4-2.8,2.7c-0.7,2-2.3,1.7-3.7,1.7c-1.6-0.1-1.6-1.5-1.7-2.6c-0.2-2.2,1.1-2.5,2.8-2.6c3.8-0.2,5.3-4.9,4.6-5.8
	c-4-4.8,0.9-13.5-7.4-16.2c-1-0.4-1-1.6-0.4-2.6s0.6-1.8-0.5-2.5c-1-0.6-2.3-1.3-1.3-2.7c1.1-1.5,2.2-0.4,3.4,0.2
	c3.7,1.9,5.7,1,5.6-3.3c-0.1-4.4,0.2-8.9-1.9-13.1c-1.9-3.9,0.6-7.3,4.6-6.3c2.6,0.6,4-0.8,4.8-2.4c2.8-5.5,6.8-5.4,11.1-2.5
	c4.4,2.9,8.6-2,12.8,0.3c0.1,0.1,0.9-0.6,1-1c1.3-4.3,5.6-6.3,7.6-10.1c0.4-0.7,1.6-1.6,1.8-1.5c4.6,2.7,6.8-2.7,10.5-3.5
	c5.7-1.3,6.1-2.1,7.5,3.8c0.3,1.6,0.8,3.2,1.6,4.6c3.2,5,7,3.6,11,1c1-0.6,1.1-0.4,0.3-4.6c-0.2-0.7,0-1.1,0.7-1.5
	c2.6-1.4,2.1-4.3,1.7-6.1c-0.5-2.3-3.3-1.4-5.2-1.6c-2.1-0.2-3.5,0.5-4.3,2.5c-0.7,1.7-2.2,1.9-3.8,1.3c-2-0.8-0.9-2.1-0.5-3.3
	c2.8-7.3-4.8-5-7.3-7.2c-2.8-2.4-2.5,2.1-3.5,3.5c-1,1.5-1.2,4-3.2,4.1s-2.4-2.3-3.2-4.2c-2.1,1.7-2,4.6-4.3,5.7
	c-1.4-7.9-1.4-7.9-8.1-17.7c-0.5-0.8-0.8-2-0.7-2.9c0.4-4-2.1-6.3-5.2-6.8c-7.6-1.1-12.9-6.2-19-10c-2.6-1.6-5.2-3.7-3.2-7.2
	c1.8-3.1,2.8-6.3,2.6-9.9c-0.3-4.8,1.9-8.4,5.5-11.6c3.4-3,7.2-6.7,6.1-11.4c-1.9-8.1-0.7-13.4,8.2-16.1c4-1.2,6.3-5.1,2.9-10.6
	c3.7,1.5,3.3,6.1,7.1,4.9c2.5-0.7,4.6-2.4,5.3-4.9c0.5-1.7,0.2-3.6,0-5.4c-0.2-2-1-4-0.2-5.9c0.9-2,0.2-2.7-1.3-4
	c-3.1-2.6-5.7-5.6-5.3-10.1C65.3,91,66.6,89.7,65.3,88.2z"/>
<path class="st0" d="M37.4,366.6c1.6-0.1,6.6,5.2,6.7,7.1c0.1,4.7-4.5,10.4-8.4,10.1c-4.9-0.3-4.4-4.5-5.2-7.2
	C30.4,370.8,33.2,366.8,37.4,366.6z"/>
<path class="st0" d="M91.4,355.2c-0.2-3.3,2.1-4.9,4.9-5.1c3.9-0.4,4.4,2.9,4.7,5.7c0.3,3-1.9,3.9-5.1,4.2
	C93.5,359.8,91.5,358.5,91.4,355.2z"/>
<path class="st0" d="M306.6,144.8c-4.8-1.1-9.4-2.8-14.5-2.1c-2.1,0.3-4.9-0.2-4.6-2.3c0.3-2.2,3.4-1.9,5.1-1.3
	c6.3,2.3,13.2,2.2,19.3,5.9C310.1,145,308.3,145.3,306.6,144.8z"/>
<path class="st0" d="M264,46c0.7-0.2,1.4,0.2,1.4,1c0,0.6-0.3,1.3-0.7,1.7c-2,1.9-14.3,3.2-17.3,1.6C252.6,46.8,258.5,47.3,264,46z"
	/>
<path class="st0" d="M0.1,413c4.6,2,7.9,0.9,10.4-3.4l-0.1,0.1c1.4,0.8,2.8,1.6,4.1,2.6c0.7,0.6,1.2,1.4-0.1,2.3
	c-6.8,4.7-9.4,4.5-14.4-1.7L0.1,413z"/>
<path class="st0" d="M174.6,245.7c3,0.2,4.4,2.2,4.5,5c0.2,2.4-1.3,3.7-3.7,3.6c-3.3-0.1-4.1-2.3-4.4-5.9
	C170.7,246.6,172.3,245.6,174.6,245.7z"/>
<path class="st0" d="M57.2,84.7c-2.6-0.1-2.3-2.7-1.7-4.7c0.6-1.9,1.3-4.2,3.9-3.5c2.4,0.6,1.7,2.8,1.6,4.6c0,1.1-1.8,3,1.2,3.1
	c0,1.3,0,2.6,0,3.9C60.4,87.2,60.2,84.6,57.2,84.7z"/>
<path class="st0" d="M120.8,299.6c0.8,1-0.7,2.8-2.3,3.2c-1.3,0.4-2.4-0.3-3.1-1.2c-1-1.3-1.2-3,0.2-4c1.2-0.9,1.6-1.5,0.6-2.6
	c2-0.3,4.1,0.8,5.9-0.9C125.2,296.6,118.7,296.8,120.8,299.6z"/>
<path class="st0" d="M187.1,212.8c0.1,1.9-0.4,4-2.6,4.2c-1.5,0.1-3.4-0.8-3.6-2.8c-0.2-1.8,0.6-3.2,2.7-4
	C184.7,211.1,187,210.5,187.1,212.8z"/>
<path class="st0" d="M255.7,171.4c-4.1,2-8.3,3.6-14,1.6C246.9,169.4,251.4,171.7,255.7,171.4z"/>
<path class="st0" d="M215,171.5c3.5-2.7,6.8-2,10.1-0.4C221.9,172.7,218.7,173.5,215,171.5z"/>
<path class="st0" d="M22.6,388.2c2.1,0,2.3,2.1,2.2,3.7c-0.1,1.7-0.2,4.1-2.6,4c-2.1-0.1-1.9-2.3-2-3.8
	C20.4,390.3,20.4,388.3,22.6,388.2z"/>
<path class="st0" d="M69.1,35.1c2,0.2,3,1.6,2.9,3.4c-0.1,1.7-1.4,2.6-3.1,2.6c-2-0.1-2.9-1.2-3.1-3.2C66.1,36,67.2,35,69.1,35.1z"
	/>
<path class="st0" d="M55.6,60c-1.5,0.1-3.2-0.5-3.2-2.3c0-1.7,1.1-3.3,3-3.4c1.8-0.1,3,0.9,3.7,2.9C58.5,58.8,57.4,59.9,55.6,60z"/>
<path class="st0" d="M55.5,343.1c0,1.5-0.6,2.7-2.2,2.8c-1.9,0.1-3.4-0.9-3.6-2.7c-0.2-1.5,0.7-2.9,2.5-3.1
	C53.8,340.5,55.5,340.9,55.5,343.1z"/>
<path class="st0" d="M48.2,29.7c1.5,0,2.2,1.3,2.3,2.7c0.1,1.7-0.9,2.4-2.4,2.5c-1.6,0.1-2.1-1.2-2.8-2.4
	C45.8,31.1,46.4,29.6,48.2,29.7z"/>
<path class="st0" d="M165.8,16c0.1,2.1-0.3,4.2-2.6,4.7c-1.3,0.3-2-1.1-2-2.3c0-2,1.1-3.3,3-4.2C165.6,14,165.8,15.1,165.8,16z"/>
<path class="st0" d="M129.8,329.5c0.3,1.6-0.9,2-2.2,1.9c-1.4-0.1-3.2,0.2-3.4-1.9c-0.1-1.6,0.9-2.3,2.4-2.5
	C128.4,327,129.5,327.9,129.8,329.5z"/>
<path class="st0" d="M206.2,184.4c1.4-0.6,2.3,0.1,2.4,1.4c0.2,1.9-0.8,3.1-2.7,3.3c-1.4,0.1-2.2-0.5-2.3-1.8
	C203.1,185.1,204.9,184.9,206.2,184.4z"/>
<path class="st0" d="M13.8,288.6c-1.7-0.1-2.6-1.5-2.7-3c0-1.7,1.6-1.7,2.9-1.8c1.7,0,2.4,0.9,2.3,2.5
	C16.4,288,15.3,288.8,13.8,288.6z"/>
<path class="st0" d="M41.5,359.5c0,1.5-0.8,2.4-2.4,2.5c-1.6,0-1.8-1.1-1.8-2.3c0-1.3,0.3-2.5,1.8-2.8
	C40.9,357,41.4,358.2,41.5,359.5z"/>
<path class="st0" d="M60.1,319.3c0,1-0.9,1.8-1.9,1.8c-1.7,0-2.9-1.1-3-2.6c-0.1-1.1,1.2-1.3,2.4-1.3
	C58.7,317.4,60.2,317.4,60.1,319.3z"/>
<path class="st0" d="M24.7,411.3c-0.2,0.9-1,1.8-2.1,1.6c-1.3-0.2-1.8-1.2-1.7-2.5c0.1-1.2,1-1.5,2.3-1.5
	C24.4,409,24.9,410.1,24.7,411.3z"/>
<path class="st0" d="M107.9,310.5c0,1.1-0.5,2.4-2,2.2c-1.2-0.2-1.8-1.2-1.8-2.5c0-1.1,0.6-1.8,1.7-2
	C107.1,308.5,107.9,309.5,107.9,310.5z"/>
<path class="st0" d="M62.1,88.1c1.3,0,3.3-0.5,3.6,0c0.8,1.6-0.4,2.9-1.7,4C63.4,90.7,62.8,89.4,62.1,88.1z"/>
<path class="st0" d="M10.5,409.6c-2.5,2-1.4-1.2-2.3-1.6l-0.1-0.1c0.2,1.3,2,0.6,2.3,1.8C10.4,409.7,10.5,409.6,10.5,409.6z"/>
<path class="st0" d="M304.4,406.2c-0.1-0.2,0.1-0.5,0.2-0.7c0.2,0.2,0.4,0.3,0.6,0.5c0.3,0.3,0.3,0.5-0.2,0.6
	C304.8,406.5,304.5,406.4,304.4,406.2z"/>
<path class="st0" d="M308.8,411.5c-0.2-0.6-0.4-1.2-1.2-1.1h-0.1C308.4,410.2,309.4,409.9,308.8,411.5
	C308.8,411.5,308.9,411.4,308.8,411.5z"/>
<path class="st0" d="M307.5,410.4c0.2-0.4,0.3-0.8,0.3-1.2c0.1,0.1,0.3,0.2,0.4,0.2C307.9,409.8,307.7,410.1,307.5,410.4
	C307.5,410.4,307.6,410.4,307.5,410.4z"/>
<path class="st0" d="M8.3,408l-0.2-0.1h0.1C8.2,407.9,8.2,408,8.3,408z"/>
<path class="st0" d="M0.1,413c-0.1-0.1,0-0.1,0-0.2V413C0.1,413,0,412.9,0.1,413z"/>
<path class="st0" d="M310.1,412.2c-0.4-0.3-0.9-0.6-1.2-0.9l-0.1,0.1c0.4,0,0.7-0.1,1.1-0.2c0,0.4,0,0.7,0.1,1.1L310.1,412.2z"/>
<path class="st0" d="M306.8,407.6c0,0.2-0.2,0.3-0.3,0.4c-0.1-0.1-0.3-0.2-0.3-0.3c0-0.2,0.2-0.3,0.3-0.4
	C306.6,407.4,306.8,407.5,306.8,407.6z"/>
<path class="st0" d="M310,412.4c0.3-0.1,0.7-0.1,1-0.1c-0.1,0.1-0.1,0.3-0.1,0.4c-0.3-0.2-0.6-0.4-0.8-0.5
	C310.1,412.2,310,412.3,310,412.4z"/>
<path class="st0" d="M191.6,194.5c0.3,0.3,0.7,0.7,1,1c-0.2,0.3-0.5,0.6-0.8,0.9c-0.3-0.4-0.6-0.7-0.9-1.1
	C191.2,195,191.4,194.7,191.6,194.5z"/>
<path class="st0" d="M191,195.2c-0.2-0.3-0.7-0.7-0.6-0.9c0.4-0.7,0.9-0.2,1.3,0.1C191.4,194.7,191.2,195,191,195.2z"/>
</svg>
