<?xml version="1.0" encoding="utf-8"?>
<!-- Generator: Adobe Illustrator 23.0.3, SVG Export Plug-In . SVG Version: 6.00 Build 0)  -->
<svg version="1.1" id="Layer_1" xmlns="http://www.w3.org/2000/svg" xmlns:xlink="http://www.w3.org/1999/xlink" x="0px" y="0px"
	 viewBox="0 0 318 345.1" style="enable-background:new 0 0 318 345.1;" xml:space="preserve">
<style type="text/css">
	.st0{fill:#2C2C2C;}
	.st1{fill:#FFFFFF;}
</style>
<g>
	<path class="st0" d="M304.9,125.6c-0.4-2.5-1.3-4.9-2.4-7.2c-1.2-2.5-2.9-4.8-4.7-6.9c-0.9-1-1.8-2-2.8-3c-1.1-1.1-2.3-2-3.6-2.8
		c-2-1.3-4.4-2.2-6.7-2.7c-2-0.4-4.1-0.6-6.1-0.4c-1,0.1-78.3,1-85.5,1.3c-18,0.8-152.6,4.7-155.3,4.6c-0.2,0-0.4,0-0.6,0
		c-0.8,0-1.6,0.1-2.4,0.2c0,0,0,0,0,0c-0.6-0.2-1.3-0.2-2-0.3c0,0-0.1,0-0.1,0c-0.6,0-1.3,0.1-1.9,0.2c-0.4,0.1-0.8,0.1-1.2,0.2
		c-0.4,0.1-0.9,0.3-1.3,0.4c-0.8,0.3-1.7,0.7-2.4,1.1c-1,0.5-5.2,3.6-6.2,4.8c-1,1-1.8,2.1-2.7,3.3c-0.8,1.1-1.4,2.4-1.9,3.6
		c-0.4,0.9-0.6,1.8-0.8,2.7c-0.2,1.4-0.4,2.8-0.5,4.2c-0.2,2.5-0.2,26.7-0.2,28.4c-0.1,2.5-0.2,5.1-0.3,7.6
		c-0.1,0.4-0.1,0.8-0.2,1.2c-0.8,5.2,0.2,43.5,0.6,46c0.1,0.4,0.3,0.8,0.7,1.2c0,0,0,0.1,0,0.1c-0.5,2-0.4,4.1,0,6.1
		c0.4,2.5,1.3,4.9,2.4,7.2c1.2,2.5,2.9,4.8,4.7,6.9c0.9,1,1.8,2,2.8,3c1.1,1.1,2.3,2,3.6,2.8c2,1.3,4.4,2.2,6.7,2.7
		c2,0.4,67.8-0.3,70.1-0.6c7.2,0.2,14.4,0,21.5-0.3c18-0.8,155.7-4.6,155.9-4.6c0.8,0,1.6-0.1,2.4-0.2c0,0,0,0,0,0
		c0.6,0.2,1.3,0.2,2,0.3c0,0,0.1,0,0.1,0c0.6,0,1.3-0.1,1.9-0.2c0.4-0.1,0.8-0.1,1.2-0.2c0.4-0.1,0.9-0.3,1.3-0.4
		c0.8-0.3,1.7-0.7,2.4-1.1c1-0.5,1.9-1.1,2.7-1.7c1.2-0.9,2.4-1.9,3.5-3c1-1,1.8-2.1,2.7-3.3c0.8-1.1,1.4-2.4,1.9-3.6
		c0.4-0.9,0.6-1.8,0.8-2.7c0.2-1.4,0.4-2.8,0.5-4.2c0.2-2.5,0.2-26.7,0.2-28.4c0.1-2.5,0.2-5.1,0.3-7.6c0.1-0.4,0.1-0.8,0.2-1.2
		C306.9,173.9,305.2,127.7,304.9,125.6z"/>
	<g>
		<path class="st0" d="M306.1,125.3c-2-10.1-10.1-20.7-20.4-23.3c-4.2-1-8.7-0.6-13-0.5c-14.5,0.2-28.9,0.4-43.4,0.6
			c-21.2,0.3-42.3,0.9-63.5,1.6c-32.2,1-64.4,2-96.6,2.9c-9.8,0.3-19.6,0.6-29.3,0.8c-3.5,0.1-7.2-0.5-10.6,0.4
			c-8.1,2.2-15.2,10-16.4,18.2c-1,6.7-0.5,13.6-0.5,20.3c0,7.1-0.2,14.1-0.6,21.2c-0.9,14-0.2,28.6,0.6,42.6c0,0.7,0.1,1.5,0.1,2.2
			c0,0.3,0.2,0.5,0.2,0.8c0.1,0.5,0.2,1.4,0.2,2.2c0.3,6,1.4,10.9,4.9,16c4.2,6.2,10.3,12,18.1,12.5c12.9,0.9,26.3,0,39.2-0.2
			c56.5-0.6,113-2.9,169.5-4.5c11-0.3,22-0.6,33-0.9c2.1-0.1,4.4-0.4,6.5-0.3c3.7,0,6.4,0,9.9-1.8c4.4-2.4,8.5-6.3,10.7-10.9
			c3-6.1,2.1-14.1,2.1-20.7c0-7.4-0.1-14.9,0.3-22.3c0.8-14.1,0.2-28.2-0.3-42.4c-0.2-4.7-0.1-9.6-0.7-14.3c-0.2-1.6-2.7-1.6-2.5,0
			c1.5,12.1,1.1,24.9,1.3,37.1c0.2,12.6-0.6,25-0.6,37.6c0,6.7,1,14.8-0.9,21.4c-1.8,6.1-8,12.1-14.2,13.7c-2.4,0.6-5,0.2-7.4,0.3
			c-6.8,0.3-13.6,0.4-20.4,0.6c-53.9,1.5-107.9,3.4-161.8,4.6c-13.9,0.3-27.9,0.4-41.8,0.5c-6.1,0-12.3,0.1-18.4,0
			c-6.8,0-11.8-2.2-16.7-7.8c-2.5-2.9-4.7-6.1-6-9.6c-0.7-1.8-1.2-3.7-1.3-5.6c-0.1-1.1,0.3-3.6,0.2-4.3c-0.2-1.5-0.7-2.8-0.8-4.5
			c-0.4-7.1-0.5-14.2-0.6-21.3c-0.2-13.4,0.7-26.6,0.7-39.9c0-6.4-0.2-12.8,0.2-19.2c0.7-10.5,9.1-19.5,19.8-19.1
			c6.6,0.2,13.5-0.4,20.1-0.6c29.7-0.8,59.5-1.7,89.2-2.6c44.8-1.4,89.5-2,134.3-3c12.7-0.3,22.9,9.8,25.3,22
			C304,127.5,306.4,126.8,306.1,125.3z"/>
	</g>
</g>
<g>
	<path class="st1" d="M12.9,119.6c0.3-2.5,1.1-4.9,2.2-7.2c1.2-2.5,2.8-4.9,4.5-7c0.8-1.1,1.7-2.1,2.7-3c1.1-1.1,2.3-2,3.5-2.9
		c2-1.4,4.3-2.4,6.7-2.9c2-0.5,4-0.7,6.1-0.5c1,0.1,78.3-1.1,85.5-1c18,0.4,152.7,0.6,155.4,0.4c0.2,0,0.4,0,0.6,0
		c0.8,0,1.6,0,2.4,0.1c0,0,0,0,0,0c0.6-0.2,1.3-0.3,2-0.3c0,0,0.1,0,0.1,0c0.6,0,1.3,0.1,1.9,0.2c0.4,0,0.8,0.1,1.2,0.2
		c0.4,0.1,0.9,0.3,1.3,0.4c0.8,0.3,1.7,0.6,2.5,1c1,0.5,5.3,3.5,6.4,4.6c1,1,1.9,2.1,2.8,3.2c0.9,1.1,1.5,2.3,2,3.6
		c0.4,0.9,0.6,1.8,0.8,2.7c0.3,1.4,0.5,2.8,0.6,4.2c0.3,2.5,0.9,26.7,1,28.4c0.2,2.5,0.4,5.1,0.5,7.6c0.1,0.4,0.2,0.8,0.2,1.2
		c0.9,5.2,1,43.5,0.6,46c-0.1,0.5-0.3,0.9-0.6,1.2c0,0,0,0.1,0,0.1c0.5,2,0.5,4.1,0.2,6.1c-0.3,2.5-1.1,4.9-2.2,7.2
		c-1.2,2.5-2.8,4.9-4.5,7c-0.8,1.1-1.7,2.1-2.7,3c-1.1,1.1-2.3,2-3.5,2.9c-2,1.4-4.3,2.4-6.7,2.9c-2,0.5-67.8,1.6-70.1,1.3
		c-7.2,0.3-14.3,0.4-21.5,0.2c-18-0.4-155.8-0.4-156-0.4c-0.8,0-1.6,0-2.4-0.1c0,0,0,0,0,0c-0.6,0.2-1.3,0.3-2,0.3c0,0-0.1,0-0.1,0
		c-0.6,0-1.3-0.1-1.9-0.2c-0.4,0-0.8-0.1-1.2-0.2c-0.4-0.1-0.9-0.3-1.3-0.4c-0.8-0.3-1.7-0.6-2.5-1c-1-0.5-1.9-1.1-2.8-1.7
		c-1.3-0.9-2.5-1.8-3.6-2.9c-1-1-1.9-2.1-2.8-3.2c-0.9-1.1-1.5-2.3-2-3.6c-0.4-0.9-0.6-1.8-0.8-2.7c-0.3-1.4-0.5-2.8-0.6-4.2
		c-0.3-2.5-0.9-26.7-1-28.4c-0.2-2.5-0.4-5.1-0.5-7.6c-0.1-0.4-0.2-0.8-0.2-1.2C12.2,167.9,12.7,121.6,12.9,119.6z"/>
	<g>
		<path class="st0" d="M14.1,119.9c2.1-12.4,12-22.7,24.7-22.7c3.4,0,6.8-0.1,10.1-0.1c14.7-0.2,29.4-0.4,44.1-0.6
			c19.8-0.3,39.5-0.2,59.3-0.1c30.7,0.2,61.4,0.2,92.2,0.2c10.3,0,20.7,0,31,0c2.4,0,4.9,0.1,7.3,0c10.6-0.3,19.1,8.3,20,18.8
			c1.1,13,0.7,26.1,1.9,39.1c1.3,13.6,0.9,27.7,0.5,41.4c0,1.6-0.5,2.8-0.7,4.2c-0.1,0.7,0.4,3.3,0.3,4.3c-0.1,1.9-0.5,3.8-1.2,5.6
			c-1.3,3.8-3.6,7.3-6.2,10.3c-4.9,5.8-9.7,7.5-16.6,7.7c-14,0.5-28.1,0.7-42.1,0.9c-53.6,0.8-107.2,0.1-160.7,0
			c-11.1,0-22.2,0-33.2,0c-2,0-4,0-6,0c-2.4-0.1-5,0.4-7.4-0.1c-6.8-1.5-13.2-7.9-14.9-14.6c-1.6-6.6-1-14.3-1.2-21
			c-0.2-6.9-0.5-13.8-1.1-20.7c-1.2-13.2-0.5-26.8-0.4-40.1c0-4.2-0.2-8.6,0.3-12.9c0.2-1.6-2.3-1.6-2.5,0
			c-1.3,13.1-0.4,26.9-0.3,40c0.2,13.3,1.3,26.6,1.8,39.9c0.2,6.8-0.4,14.8,3.3,20.8c4.8,7.8,12.5,11.4,21.2,11.1
			c6.5-0.2,13.1,0,19.6,0c56,0,112,0.7,167.9,0.1c15.1-0.1,30.3-0.4,45.4-0.8c4.9-0.1,9.9,0.1,14.8-0.5c7.9-0.8,14-7.3,17.9-13.7
			c3-4.9,3.9-9.7,4-15.4c0-1.8,0.4-3.4,0.4-5.5c0.2-7.5,0.1-15.1,0-22.7c-0.2-14-1.4-27.9-1.9-41.9c-0.2-6.7,0.3-14-1.3-20.6
			c-1.8-7.9-9.8-15.3-17.8-16.6c-3.2-0.5-6.5,0.1-9.7,0.1c-3.8,0-7.6,0-11.4,0c-30.9,0-61.7-0.1-92.6-0.2
			c-21.1-0.1-42.3-0.5-63.4-0.2c-15.8,0.2-31.6,0.4-47.3,0.6c-6.2,0.1-12.3,0.2-18.5,0.2c-4.4,0.1-8.9-0.3-13.2,1
			c-9.9,3-17.4,13.8-19.1,23.6C11.5,120.8,13.9,121.5,14.1,119.9z"/>
	</g>
</g>
</svg>
