<?xml version="1.0" encoding="utf-8"?>
<!-- Generator: Adobe Illustrator 22.1.0, SVG Export Plug-In . SVG Version: 6.00 Build 0)  -->
<svg version="1.1" id="Layer_1" xmlns="http://www.w3.org/2000/svg" xmlns:xlink="http://www.w3.org/1999/xlink" x="0px" y="0px"
	 viewBox="0 0 607.5 642.9" style="enable-background:new 0 0 607.5 642.9;" xml:space="preserve">
<style type="text/css">
	.st0{fill:#A36B78;stroke:#584C4F;stroke-width:2;stroke-linecap:round;stroke-miterlimit:10;}
	.st1{fill:#A36B78;stroke:#584C4F;stroke-width:2;stroke-linecap:round;stroke-linejoin:round;stroke-miterlimit:10;}
	.st2{fill:#FFD767;stroke:#584C4F;stroke-width:2;stroke-miterlimit:10;}
	.st3{fill:#A36B78;}
	.st4{fill:none;stroke:#584C4F;stroke-width:2;stroke-linecap:round;stroke-miterlimit:10;}
	.st5{fill:#BEAB72;}
	.st6{fill:#584C4F;stroke:#584C4F;stroke-width:2;stroke-linecap:round;stroke-miterlimit:10;}
	.st7{opacity:0.1;fill:#231F20;stroke:#231F20;stroke-miterlimit:10;enable-background:new    ;}
	.st8{fill:#FFFFFF;stroke:#584C4F;stroke-width:2;stroke-linecap:round;stroke-miterlimit:10;}
</style>
<g id="Layer_5">
</g>
<g id="Layer_3">
</g>
<g>
	<g>
		<g id="XMLID_12217_">
			<path id="XMLID_12218_" class="st0" d="M366.3,631.6c2.5,8.6-10.6,8.8-8.5,1.2"/>
		</g>
		<path id="XMLID_12216_" class="st0" d="M489.6,621.5c-34-1.3-92.2-5.6-107.9-3.2c-22,3.5-126.4,0-126.4,0l-1.5,16.9
			c0,0,59.2-3.2,99.4-1.2c22.2,1.2,65,2.5,99.8,4.2"/>
		<g id="XMLID_12214_">
			<path id="XMLID_12215_" class="st0" d="M257.1,633.6c1.1,3.3-12.1,4.1-12.1,4.1s-42.3,1.9-24.3-1.7s16.1-5.3-5.4-3.6
				c-21.6,1.6,22-7.5,15.1-8.8s-50.9-5.8,4.1-5.8c0,0,25.6,4.1-14.5-6.4s25.1,2.3,28.5,3.1c3.4,0.8-19.5-12.9-10.1-9.1
				s11.8,5.9,19,12.8"/>
		</g>
		<path id="XMLID_12213_" class="st0" d="M364.6,624.7c0.6,0.2,1.2,3,1.2,3"/>
		<path id="XMLID_12212_" class="st0" d="M360.5,630.9c-1.8-0.6-1.4-2.8-1.4-2.8"/>
		<path id="XMLID_12211_" class="st1" d="M259.1,631.5c0.8,13.6,9.9,0,9.9,0"/>
	</g>
	<path id="XMLID_12210_" class="st2" d="M490,616c-2.5,9.1-5.2,16.8-8.1,18.7c-8.1,5.6-97.9,12.3-98.4-1.4s0.1-15.6,5-15.3
		s61.4-6,65.6-3.8"/>
	<g>
		<path class="st0" d="M12.7,582.2c-1.2-0.1-2.4,0.3-3.4,1.3c-0.3,0.2-0.6,0.5-0.8,0.9c-0.9,1.2-1.5,3.1-2,5.4
			c-0.3,1.8-0.6,3.9-0.8,6.2c-0.1,1.4-0.3,2.9-0.3,4.5c-0.2,1.2-0.2,2.5-0.2,3.7c0.1,1.2,0.2,2.5,0.2,3.7c0.1,1.5,0.2,3,0.3,4.5
			c0.1,2.3,0.5,4.3,0.8,6.1c0.5,2.4,1.2,4.2,2,5.4c0.3,0.3,0.6,0.7,0.8,0.9c0.7,0.8,1.6,1.2,2.5,1.3c3.7-8.9,10-16.3,20.8-18.2
			c1-1,1.6-1.7,1.6-1.7s0.3-0.2,0.7-0.5c0.1,0,0.2-0.1,0.3-0.2h0.2c0.5-0.2,1.3-0.3,2.4-0.4v-0.8v-0.8l-1.3-15.2
			c-3.9-0.2-6.4-0.2-6.9-0.2c-0.1,0-0.1,0-0.1,0s0,0.1,0,0.2c-3.4-0.9-6.2-1.9-8.5-2.9c-2.5-1.1-4.5-2.1-6.3-2.6
			C14,582.6,13.3,582.4,12.7,582.2z"/>
		<path class="st0" d="M285,581.7c-5.6,3.5-113.4,6.5-153.6,8.5S32,589,32,589l1.5,16.9c0,0,98.4-3.3,124.2-0.3
			c1.1,0.8,6,1.3,16.9,1l0,0c4.4,0,9.3,0,14.5-0.2c44.6-0.3,102.4,3.4,102.4,3.4"/>
		<g>
			<g id="XMLID_12208_">
				<path id="XMLID_12209_" class="st0" d="M5.7,636.2c4.9-2.1,4.3,3.9,4.3,3.9C6.7,645.1,0.9,638.4,5.7,636.2z"/>
			</g>
			<g id="XMLID_12206_">
				<path id="XMLID_12207_" class="st0" d="M5.9,632.3c5.5-2.4,4.8,4.3,4.8,4.3C7,642.2,0.6,634.7,5.9,632.3z"/>
			</g>
			<g id="XMLID_12204_">
				<path id="XMLID_12205_" class="st0" d="M6.4,627.3c6.3-2.8,5.5,5,5.5,5C7.5,638.9,0,630.2,6.4,627.3z"/>
			</g>
			<g id="XMLID_12202_">
				<path id="XMLID_12203_" class="st0" d="M6.7,621.2c7.1-3.3,6.3,5.7,6.3,5.7C8,634.4-0.5,624.4,6.7,621.2z"/>
			</g>
			<path id="XMLID_12201_" class="st0" d="M7,607.8c2.9,0.7,10,9.4,3.1,14.3s-6.2-5.7-6.2-5.7S4,607.1,7,607.8z"/>
		</g>
		<path id="XMLID_12200_" class="st0" d="M164.4,593.4c1.9,0,2,2.3,2,2.3"/>
		<path id="XMLID_12199_" class="st0" d="M151.2,602.1c-0.7-0.1-1.5-2.8-1.5-2.8"/>
		<g id="XMLID_12197_">
			<path id="XMLID_12198_" class="st0" d="M37.9,605.2c-1.1,9-13.2,3.9-8.2-2.2"/>
		</g>
		<g id="XMLID_12195_">
			<path id="XMLID_12196_" class="st0" d="M162.8,602.6c2.5,8.6-10.6,8.8-8.5,1.2"/>
		</g>
	</g>
	<path class="st0" d="M284.9,524.7c0,0,0,0,0,0.2c-4.1,0.6-8.5,1.9-13,4.4c0,0-15.3,1.4-14.5,51.5c0.5,30.7,15.5,50.1,32.5,53.2l0,0
		c0.2,0,0.5,0.1,0.9,0.1c1,0.1,2.1,0.2,3.1,0.2c11.1,0.7,40.6,1.3,40.6,1.3l-4.1-111.1C321.5,522.7,284.9,524.7,284.9,524.7z"/>
	<g>
		<path class="st2" d="M303.5,533.6c0.5,2.3,1,5.2,1.5,8.4l4,77.2c0.1,4-1.2,9.4-1.2,9.4c-2.3,4.3-1.4,7,1.4,8.6
			c0.1,0.1,0.2,0.2,0.3,0.2c8,4.1,29.4,0.2,37.9-3c0.5-0.2,1.2-0.4,2-0.6c15.6-3.8,74.4-3.7,110.6-2.3c3.9,0.1,7.3,0.1,10.4-0.1
			c26.8-1.3,27.1-28.7,27.9-46.5c0.8-18.7-3-32.5-8.6-39.2c-1-3.5-3-8.8-6.2-13c-2.3-3-5.3-5.5-9-6.3c-0.4-0.1-0.9-0.2-1.3-0.2
			c-13.2-1.5-93.7-4.4-101-5.9c-1.4-0.3-5.9-1.1-11.9-1.9c-0.7-0.1-1.4-0.2-2.2-0.3C333.2,514.8,287,511.3,303.5,533.6z"/>
		<path class="st2" d="M307.8,628.6c-2.3,4.3-1.4,7,1.4,8.6c0.1,0.1,0.2,0.2,0.3,0.2c8,4.1,29.4,0.2,37.9-3c0.5-0.2,1.2-0.4,2-0.6
			c15.6-3.8,74.4-3.7,110.6-2.3c0.9,0.1,1.7,0.1,2.6,0.1"/>
		<path class="st2" d="M476.4,630.7c20.9-5,21.2-29.4,21.9-45.8c0.8-18.7-3-32.5-8.6-39.2c-1-3.5-3-8.8-6.2-13c-2.3-3-5.3-5.5-9-6.3
			c-0.4-0.1-0.9-0.2-1.3-0.2c-13.2-1.5-93.7-4.4-101-5.9c-1.4-0.3-5.9-1.1-11.9-1.9c-0.7-0.1-1.4-0.2-2.2-0.3
			c-24.8-3.4-71-6.8-54.5,15.5c0.5,2.4,1,5.3,1.5,8.5l4,77.1"/>
	</g>
	<path id="XMLID_12194_" class="st0" d="M308.4,528.3c13.7,3.6,107.3-5.1,107.3-5.1"/>
	<g>
		<path id="XMLID_12193_" class="st3" d="M490.5,566.6c-21.2,9.6-8.3,33.7,8,33.8c2.9,0,14.1,0,17.5,0.1c2.6,0,17.7,0.5,25.5-3
			c25-11.2,2.7-42.7-16.7-31.3c-2.2-0.6-4.7-1-7.6-1.2c-3.2-0.2-13.2-1.4-16.6-1.2"/>
		<path id="XMLID_12192_" class="st4" d="M487.3,568.3c0.9-0.6,2-1.1,3.1-1.6l10.1-2.8c3.5-0.3,13.4,0.9,16.6,1.1
			c3,0.2,5.5,0.6,7.6,1.2c19.5-11.4,41.8,20.1,16.8,31.3c-7.8,3.5-22.9,3.1-25.5,3c-3.4,0-14.6-0.1-17.5-0.1
			c-13.7-0.1-25.1-17.4-15.5-28.5"/>
	</g>
	<g>
		<path class="st0" d="M285,574.3c-5.6-3.4-113.4-6.4-153.6-8.5C91.2,563.8,32,567,32,567l1.5-16.9c0,0,98.4,3.2,124.2,0.3
			c1.1-0.9,6-1.4,16.9-1.1l0,0c4.4,0,9.3,0.1,14.5,0.2c44.6,0.2,102.4-3.4,102.4-3.4"/>
		<path id="XMLID_12191_" class="st0" d="M165.4,558.1c1-1.7-1-2.9-1-2.9"/>
		<path id="XMLID_12190_" class="st0" d="M150.8,559.2c-0.7,0.1-1.5,2.8-1.5,2.8"/>
		<g id="XMLID_12188_">
			<path id="XMLID_12189_" class="st0" d="M28.5,550.6c1.1-9,13.2-3.9,8.2,2.2"/>
		</g>
		<g id="XMLID_12186_">
			<path id="XMLID_12187_" class="st0" d="M152.1,564.9c1.1,9,13.2,3.9,8.2-2.2"/>
		</g>
		<g>
			<path class="st0" d="M9.8,544c-1.2-0.1-2.4,0.3-3.4,1.3c-0.3,0.2-0.6,0.5-0.8,0.9c-0.9,1.2-1.5,3.1-2,5.4
				c-0.3,1.8-0.6,3.9-0.8,6.2c-0.1,1.4-0.3,2.9-0.3,4.5c-0.2,1.2-0.2,2.5-0.2,3.7c0.1,1.2,0.2,2.5,0.2,3.7c0.1,1.5,0.2,3,0.3,4.5
				c0.1,2.3,0.5,4.4,0.8,6.2c0.5,2.4,1.2,4.3,2,5.4c0.3,0.4,0.6,0.7,0.8,0.9c0.7,0.8,1.6,1.2,2.5,1.3c3.7-8.8,10-16.3,20.8-18.2
				c1-1.1,1.6-1.7,1.6-1.7s0.3-0.2,0.7-0.6c0.1,0,0.2-0.1,0.3-0.2h0.2c0.5-0.1,1.3-0.2,2.4-0.3v-0.9v-0.8l-1.3-15.2
				c-3.9-0.2-6.4-0.2-6.9-0.2c-0.1,0-0.1,0-0.1,0s0,0.1,0,0.2c-3.4-0.9-6.2-1.9-8.5-2.9c-2.5-1.1-4.5-2.1-6.3-2.6
				C11.1,544.3,10.4,544.2,9.8,544z"/>
			<g>
				<g id="XMLID_12184_">
					<path id="XMLID_12185_" class="st0" d="M2.9,597.9c4.9-2.2,4.3,3.9,4.3,3.9C3.8,606.9-2,600.1,2.9,597.9z"/>
				</g>
				<g id="XMLID_12182_">
					<path id="XMLID_12183_" class="st0" d="M3,594c5.5-2.4,4.8,4.3,4.8,4.3C4.1,604-2.3,596.5,3,594z"/>
				</g>
				<g id="XMLID_12180_">
					<path id="XMLID_12181_" class="st0" d="M3.5,589.1c6.3-2.8,5.5,5,5.5,5C4.6,600.6-2.9,591.9,3.5,589.1z"/>
				</g>
				<g id="XMLID_12178_">
					<path id="XMLID_12179_" class="st0" d="M3.8,583c7.1-3.3,6.3,5.7,6.3,5.7C5.1,596.2-3.4,586.2,3.8,583z"/>
				</g>
				<path id="XMLID_12177_" class="st0" d="M4.1,569.6c2.9,0.7,10,9.4,3.1,14.3S1,578.2,1,578.2S1.2,568.9,4.1,569.6z"/>
			</g>
		</g>
	</g>
	<g>
		<g id="XMLID_12175_">
			<path id="XMLID_12176_" class="st0" d="M357.5,529.1c1.1-9,13.2-3.9,8.2,2.2"/>
		</g>
		<path id="XMLID_12174_" class="st0" d="M467,541.2c-32.8,1.8-72.6,4.2-85.2,2.2c-22-3.5-126.4,0-126.4,0l-1.5-16.9
			c0,0,59.2,3.2,99.4,1.2c18.3-0.9,51-2.1,81.4-3.4"/>
		<path id="XMLID_12173_" class="st0" d="M363.5,532c1.9,0,2,2.3,2,2.3"/>
		<path id="XMLID_12172_" class="st0" d="M360.5,537.9c-0.6-0.2-1.5-2.9-1.5-2.9"/>
		<g id="XMLID_12159_">
			<path id="XMLID_12171_" class="st3" d="M256.1,543.3l3.8-16.2c0,0-35-21.3-35.1-14c-0.1,3.9,0.9,5.4,1.9,5.9
				c-3.3-0.5-9.4-0.8-6.5,4.8l1.5,0.1c-2.1,1.2-8.4,5.4-2,8.9l0.5,1.1c-2.1,2.5-5.3,7.8,5.5,7c-0.1,1.4,0,3.4,0.8,6.3
				C230.3,562,256.2,543.4,256.1,543.3z"/>
			<path id="XMLID_12170_" class="st0" d="M260,527.1c0,0-35-21.3-35.1-14c-0.1,3.9,0.9,5.4,1.9,5.9c-3.3-0.5-9.4-0.8-6.5,4.8
				l1.5,0.1c-2.1,1.2-8.4,5.4-2,8.9l0.5,1.1c-2.1,2.5-5.3,7.8,5.5,7c-0.1,1.4,0,3.4,0.8,6.3c3.7,14.8,29.6-3.8,29.6-3.8"/>
			<g id="XMLID_12163_">
				<g id="XMLID_12165_">
					<path id="XMLID_12169_" class="st1" d="M220.2,523.9c-3.8-7.5,8.4-4.5,8.4-4.5c-0.3-0.2-3.9,1.1-3.8-6.2
						c0.1-7.4,35.1,14,35.1,14"/>
					<path id="XMLID_12168_" class="st1" d="M220.3,533.1c-8.4-4.2,2.1-9.4,2.1-9.4"/>
					<path id="XMLID_12167_" class="st1" d="M232.8,544c0.4-4.2-10-11.6-6.2,3.2c3.7,14.8,29.6-3.8,29.6-3.8"/>
					<path id="XMLID_12166_" class="st1" d="M235,540.2l-8,0.5c-15.9,1.7-5.5-8.1-5.5-8.1"/>
				</g>
				<path id="XMLID_12164_" class="st1" d="M271.8,529.8c-0.8-10-10.9,0-10.9,0"/>
			</g>
			<path id="XMLID_12162_" class="st0" d="M228,533.1c2.6,0.9,7.5,0.4,7.5,0.4"/>
			<path id="XMLID_12161_" class="st0" d="M226.2,524.7c0,0.7,3.5,0.9,3.5,0.9"/>
			<path id="XMLID_12160_" class="st1" d="M236.7,521.1c0,0,4.8,2.9,7,3.6"/>
		</g>
	</g>
	<path id="XMLID_12158_" class="st2" d="M487.1,547.1c-2.5-9.1-5.2-16.7-8.1-18.7c-8.1-5.5-97.9-12.2-98.4,1.5s0.1,15.6,5,15.3
		s61.3,6,65.5,3.8"/>
	<g>
		<path class="st5" d="M449.9,554c-6.9,0.3-7.2,4-6.1,12.1c1,8.2,16.3,3.7,21.1,2.8c4.7-0.9-0.4-14.6-0.4-14.6
			S456.8,553.8,449.9,554z"/>
		<g>
			<path id="XMLID_12157_" class="st0" d="M461.2,554.1c1.5-1,2.9,0.8,2.9,0.8"/>
			<path id="XMLID_12156_" class="st0" d="M462.4,570.5c1.2-0.7,2.4-3.2,2.4-3.2"/>
			<path id="XMLID_12155_" class="st0" d="M457.1,554.2c-1.4-0.5-4,0.3-4,0.3"/>
			<path id="XMLID_12154_" class="st0" d="M443.8,564.1c-0.3,1.4,0.8,3.9,0.8,3.9"/>
			<path id="XMLID_12153_" class="st0" d="M445.2,558.7c-0.7-1.7,1.4-2.6,1.4-2.6"/>
			<path id="XMLID_12152_" class="st0" d="M455.1,571c0.5-0.5,2.4-0.9,2.4-0.9"/>
			<line id="XMLID_12151_" class="st4" x1="465.4" y1="563" x2="465.3" y2="560.3"/>
			<path id="XMLID_12150_" class="st0" d="M446.4,571.1c1.3,0.5,4-0.1,4-0.1"/>
		</g>
		<g>
			<path id="XMLID_12149_" class="st0" d="M280.7,601.5c-1.7,1.3-4.6-0.4-4.6-0.4"/>
			<path id="XMLID_12148_" class="st0" d="M285.1,599.5c1.4-0.3,3.4-2.2,3.4-2.2"/>
			<path id="XMLID_12147_" class="st0" d="M267.9,596.6c0.9,1,3.5,1.8,3.5,1.8"/>
		</g>
	</g>
	<g id="XMLID_11466_">
		<g id="XMLID_12143_">
			<path id="XMLID_12146_" class="st0" d="M588.9,561.9c0,0,0.1,5.4,6.6,7.9c6.5,2.4,11.5-17.1,11-35.2c-0.5-18.1-18,5.1-18,5.1"/>
			<path id="XMLID_12145_" class="st0" d="M602.8,535.3c-1.7-5-8.5,5.6-8.5,5.6"/>
			<path id="XMLID_12144_" class="st0" d="M593.5,554.7c1.7,6.5,5.4,2.6,6.8-3.2c1.4-5.9-8.6-3.2-8.6-3.2"/>
		</g>
		<path id="XMLID_12142_" class="st6" d="M534.4,466.7c8.2-2.6,1.6-8.4,1.6-8.4C528.9,455.3,526.2,469.3,534.4,466.7z"/>
		<path id="XMLID_12141_" class="st0" d="M588.8,585.8c-3.3,16.5-19.5,38.1-49.1,31.8c-29.6-6.3-27.8-17.7-35-79.6
			c-7.2-61.9,45.2-65.7,45.2-65.7C615.7,480.5,592.1,569.3,588.8,585.8z"/>
		<path class="st7" d="M504.9,538.2c7.3,61.9,5.3,73.2,34.9,79.5c20.9,4.4,35.1-5.1,42.8-16.9c-7.8,4.9-17.9,7.3-30.6,4.6
			c-29.6-6.2-27.6-17.6-35-79.5c-2.4-20.5,1.7-34.6,8.3-44.4C512.8,490,501,506.5,504.9,538.2z"/>
		<path id="XMLID_12140_" class="st2" d="M507.2,504.6c0,0,18.5-8.8,38.1-16.7c15.5,3.8,32.4,5.3,32.4,4
			c-0.1-13.4-3.9-49.1-41.5-32.2c-8.8,2.7-18.3,8-24.2,17.2c-0.5,0.8-0.9,1.5-1.3,2.2l0,0h-0.1c-1.8,3.3-2.7,5.9-2.9,8
			C505.9,493.2,507.2,504.6,507.2,504.6z"/>
		<path id="XMLID_12139_" class="st0" d="M533.8,546.1c12.2,4.3,21.5-2.7,21.5-2.7"/>
		<path id="XMLID_12138_" class="st0" d="M596.5,545.6c-3.2,1.3-18.3-1.9-18.3-1.9"/>
		<path id="XMLID_12137_" class="st0" d="M542.7,614.8c-2.6,4.8,5.9,8.2,18.8,5.7c12.9-2.5,6.7-8.3,6.7-8.3"/>
		<path id="XMLID_12136_" class="st2" d="M600.6,490.3c0,0,6.2-8.8-16.9-10.3c-23-1.5-68.6-1.3-76.2,24.7c0,0,12.2-5.5,35.8-10.7
			c23.6-5.1,43.7,3,43.7,3C597.2,494.5,600.6,490.3,600.6,490.3z"/>
		<path id="XMLID_12135_" class="st0" d="M507.5,504.7c0,0,9.1-23.6,64.2-21.2C626.8,486,587,497,587,497
			C558.4,482.6,507.5,504.7,507.5,504.7z"/>
		<g>
			<path id="XMLID_12134_" class="st0" d="M567.8,529.7c0.3,6.5-9.1,18.3-9.1,18.3"/>
			<g id="XMLID_12131_">
				<path id="XMLID_12133_" class="st0" d="M567.4,554.3c0.4,0.2,0.9,0.5,1.6,0.6c0.7,0.2,1.7,0.2,2.8,0c2-0.4,3-2.5,3.3-5.6"/>
				<path id="XMLID_12132_" class="st0" d="M574.2,544.8c-2.1-13.7-9.3-32.9-9.3-32.9"/>
			</g>
			<g id="XMLID_12125_">
				<path id="XMLID_12130_" class="st0" d="M574.3,561.3c11.1-2.3,4.2-10.4,4.2-10.4"/>
				<path id="XMLID_12129_" class="st0" d="M562.4,561.3c-10.5-4.2-3.1-10.4-3.1-10.4"/>
				<path id="XMLID_12128_" class="st0" d="M562.7,557.8c-1.5-0.5-2.9,0.1-1.7-1.8c1.2-1.9,2.7,0.3,3.8,0
					C565.9,555.6,564.3,558.1,562.7,557.8z"/>
				<path id="XMLID_12127_" class="st0" d="M574.2,556.9c1.1-0.7,2.3-1.2,2.7-0.9c1.1,0.9,0.6,2.6-1.5,2.7
					C575.4,558.7,573.3,557.5,574.2,556.9z"/>
				<path id="XMLID_12126_" class="st0" d="M565.2,547.4c0.5-0.7,2.7-0.7,2.7-0.7"/>
			</g>
			<path id="XMLID_12124_" class="st0" d="M590.4,559.6c-1.7-0.6-7.8-3.7-7.8-3.7"/>
			<path id="XMLID_12122_" class="st0" d="M547.1,557.5c0.7,0.1,7.8-3.3,7.8-3.3"/>
		</g>
		<path id="XMLID_12121_" class="st0" d="M525.3,526.8c-1.6-0.9-0.6-3-0.6-3"/>
		<path id="XMLID_12120_" class="st0" d="M531.2,547.4c-0.6-0.6-1-2.5-1-2.5"/>
		<path id="XMLID_12119_" class="st0" d="M529.6,504.8c-0.8,0,0,3.5,0,3.5"/>
		<path id="XMLID_12118_" class="st0" d="M577.8,497.5c-0.4-0.5,2.9-1,2.9-1"/>
		<path id="XMLID_12117_" class="st0" d="M556.4,501.4c0.3,0.8,4.1,1.3,4.1,1.3"/>
		<path id="XMLID_12116_" class="st0" d="M576.3,598.2c0.2-0.6,3-1.2,3-1.2"/>
		<path id="XMLID_12115_" class="st0" d="M559.2,600.6c-0.7-1.2-3.3-2.4-3.3-2.4"/>
		<path id="XMLID_12114_" class="st0" d="M581.9,536.5"/>
		<path id="XMLID_12113_" class="st0" d="M563.6,538.7"/>
		<line id="XMLID_12112_" class="st4" x1="534.7" y1="558.4" x2="537.4" y2="559.1"/>
		<path id="XMLID_12111_" class="st0" d="M513.5,568.3c0,0,0.3,5.4-5.9,8.4s-12.8-16-13.9-34.1c-1-18,18.4,3.6,18.4,3.6"/>
		<path id="XMLID_12110_" class="st0" d="M497.5,543.1c1.3-5.1,9,4.9,9,4.9"/>
		<path id="XMLID_12109_" class="st0" d="M508.5,561.6c-1.2,6.6-5.2,3-7.1-2.6c-1.9-5.7,8.3-3.9,8.3-3.9"/>
		<g>
			<path id="XMLID_12108_" class="st8" d="M571.6,530.1c-13-28.8,22.8-25.3,22.8-25.3C624.4,524.8,584.6,558.9,571.6,530.1z"/>
			<path id="XMLID_12107_" class="st6" d="M588,523c-0.5-5.5,4.8-3.4,4.8-3.4C596.5,524.4,588.5,528.5,588,523z"/>
			<path id="XMLID_12106_" class="st8" d="M548.2,542.5c32.7-10.6,6.4-33.7,6.4-33.7C526.1,497,515.5,553,548.2,542.5z"/>
			<path id="XMLID_12105_" class="st6" d="M531.6,526.3c-0.6-5.5,4.8-3.4,4.8-3.4C540.1,527.6,532.2,531.8,531.6,526.3z"/>
			<path id="XMLID_12104_" class="st6" d="M531.6,511.3c-0.9,3,15.6,11.2,24.3,2.7s-3.4-9.9-3.4-9.9
				C534.1,503.2,532.5,508.3,531.6,511.3z"/>
			<path id="XMLID_12103_" class="st6" d="M572.5,503.7c1.2,4.4,16.5,14.9,25.1,4.6c8.6-10.4-10-9.3-10-9.3S571.3,499.3,572.5,503.7
				z"/>
			<g id="XMLID_11476_">
				<path id="XMLID_12102_" class="st0" d="M538.1,543.3c0.7,0.3,1.3,0.4,2.1,0.4c6.4,0.4,16.9-5.2,16.9-5.2
					c-7.1-1.9-19.2-1.1-19.2-1.1l-5.7,0.4c0,0-5.1,0.7-2.9,3.2c1,1,1.9,0.8,2.8,0.6c0.3,0,0.5-0.1,0.7-0.2
					C533.9,541.1,537.5,543,538.1,543.3z"/>
				<path id="XMLID_12101_" class="st0" d="M596.3,535.5c0,0,5.1,0.7,2.9,3.2c-2.3,2.3-3.1,0.1-7.2,1.3c-12.6,3.9-16.4-4.5-16.4-4.5
					c7.8-2.4,14.9-1.1,14.9-1.1L596.3,535.5z"/>
			</g>
		</g>
		<g id="XMLID_11471_">
			<path id="XMLID_11475_" class="st6" d="M590.7,585c10.7-7-8.5-9.5-8.5-9.5S580,591.9,590.7,585z"/>
			<path id="XMLID_11474_" class="st6" d="M572.2,573.4c1.1,3.5,14.1,11.9,21.4,3.7c7.2-8.1-8.6-7.3-8.6-7.3
				S571.1,569.9,572.2,573.4z"/>
			<path id="XMLID_11473_" class="st6" d="M544.2,586.4c0.8,2.8,14.2,4.5,15.5-5.3s-6.4-7.2-6.4-7.2
				C542.1,578.9,543.4,583.6,544.2,586.4z"/>
			<path id="XMLID_11472_" class="st6" d="M560.2,579.3c22.2-10.8-0.3-8-0.3-8C534.3,574.7,538,590.1,560.2,579.3z"/>
		</g>
		<g id="XMLID_11467_">
			<path id="XMLID_11470_" class="st0" d="M561.7,584.9c6.5,11.7,18.3,0,18.3,0"/>
			<path id="XMLID_11469_" class="st0" d="M571.7,583c2.4-3.5,5.6,0,5.6,0"/>
			<path id="XMLID_11468_" class="st0" d="M571.7,583c-2.5-3.5-5.7,0-5.7,0"/>
		</g>
	</g>
	<path id="XMLID_11465_" class="st0" d="M482.3,566.8c-1.3,0.8-1.9,1.6-2.2,2.5"/>
	<path id="XMLID_11464_" class="st0" d="M484.9,600c1,0.8,2.1,1,2.1,1"/>
	<path id="XMLID_11463_" class="st0" d="M477.1,593c0.1,0.4,0.3,0.7,0.4,0.9"/>
	<path id="XMLID_11462_" class="st2" d="M442,622.5c-13.5-4.5-107.4-1.7-107.4-1.7"/>
</g>
</svg>
