<?xml version="1.0" encoding="utf-8"?>
<!-- Generator: Adobe Illustrator 23.0.3, SVG Export Plug-In . SVG Version: 6.00 Build 0)  -->
<svg version="1.1" id="Layer_1" xmlns="http://www.w3.org/2000/svg" xmlns:xlink="http://www.w3.org/1999/xlink" x="0px" y="0px"
	 viewBox="0 0 366.8 130.4" style="enable-background:new 0 0 366.8 130.4;" xml:space="preserve">
<style type="text/css">
	.st0{opacity:0.1;}
	.st1{fill:#2C2C2C;}
	.st2{fill:#FFFFFF;}
</style>
<g id="Layer_5" class="st0">
</g>
<g id="Layer_3" class="st0">
</g>
<g>
	<g>
		<path class="st1" d="M157.6,57.9c0-0.6-0.1-1.2-0.2-1.8c0-1.9,0-3.9-0.1-5.8c-0.2-4.8-0.8-9.6-1.3-14.4c-0.1-1-0.2-2-0.3-2.9
			c0-2.7-0.2-5.4-0.5-8.1c0-0.3,0-0.5,0.1-0.8c0.2-2.9,0.7-5.9,0.5-8.8c-0.1-1.4-0.3-2.9-0.7-4.2c-0.5-1.4-1.2-2.6-2.2-3.7
			c-0.5-0.5-1.1-0.9-1.7-1.3c-0.7-0.4-1.5-0.8-2.2-1.1c-1.4-0.6-3-0.9-4.6-0.9c-0.1,0-0.2,0-0.4,0c-0.5,0-0.9,0-1.4,0.1l0,0
			c-0.4-0.1-0.8-0.1-1.2-0.2h-0.1c-0.4,0-0.7,0.1-1.1,0.1c-0.2,0-0.5,0.1-0.7,0.1c-0.2,0.1-0.5,0.2-0.7,0.3
			c-0.5,0.2-0.9,0.4-1.4,0.6c-0.6,0.3-1.1,0.6-1.6,1c-0.7,0.5-1.4,1.1-2,1.7s-1.1,1.2-1.5,1.9c-0.5,0.7-0.8,1.3-1.1,2.1
			c-0.2,0.5-0.3,1-0.4,1.6c-0.1,0.8-0.2,1.6-0.3,2.4c-0.1,1.4-0.1,2.9,0,4.4c0.1,1.2,0.3,2.4,0.4,3.7c-0.2,1.8-0.3,3.5-0.4,5.3
			c-0.1,1-0.1,2-0.1,3c-0.1,1.5-0.1,2.9-0.2,4.4c0,0.2-0.1,0.5-0.1,0.7c-0.5,3-0.7,6-0.8,9c-0.2,5.8,0.2,11.6,1.2,17.4
			c0.1,0.3,0.2,0.5,0.4,0.7v0.1c-0.3,1.2-0.2,2.3,0,3.5c0.2,1.4,0.7,2.8,1.4,4.1c0.7,1.4,1.7,2.7,2.7,4c0.5,0.6,1,1.2,1.6,1.7
			c0.6,0.6,1.3,1.1,2.1,1.6c1.2,0.8,2.5,1.3,3.9,1.6c1.1,0.2,2.3,0.3,3.5,0.2c0.6-0.1,1.1-0.1,1.7-0.3c0.6-0.1,1.1-0.4,1.7-0.6
			c0.9-0.4,1.7-1,2.5-1.7s1.4-1.5,2-2.3c0.5-0.8,1-1.7,1.4-2.6c0.4-1,0.8-2.1,1.1-3.1c0.6-2.1,0.9-4.3,1.1-6.5
			C157.7,61.9,157.7,59.9,157.6,57.9z"/>
		<g>
			<path class="st1" d="M159.1,57.9c-0.5-4.3-0.3-8.7-0.7-13c-0.4-4.2-1-8.5-1.3-12.7c-0.2-3.6-0.5-7.1-0.2-10.7s0.7-7.4-0.5-10.8
				c-3-8.7-15.4-10.6-22.1-5.2c-4.6,3.8-5.7,8.9-5.3,14.7c0.5,7.8-0.5,15.5-1,23.3c-0.4,6.8,0.8,15.6,1.4,20.9
				c0.3,3.1,0.1,5.5,1.6,8.4c1.3,2.6,3.3,5,5.5,6.8c5,4,12.3,4.1,16.9-0.6C158.6,73.7,159.4,64.9,159.1,57.9c-0.1-1.9-3.1-1.9-3,0
				c0.4,7.6-0.9,21.2-11,21.3c-8.3,0.1-12.5-8-12.7-15.3c-0.1-3.9-1.4-8-1.5-12c-0.1-3.7,0-7.5,0.3-11.2c0.6-5.7,1.3-11.6,1.2-17.4
				c-0.1-7.2-0.9-16.8,9-17.9c6.7-0.8,12.4,2.8,12.8,9.8c0.2,3.2-0.6,6.4-0.6,9.6c0,3.1,0.4,6.5,0.6,9.6c0.7,7.8,0.9,15.8,1.8,23.5
				C156.3,59.8,159.3,59.9,159.1,57.9z"/>
		</g>
	</g>
</g>
<g>
	<g>
		<path class="st1" d="M295.6,63.8c-0.3-2.2-0.9-4.2-1.5-6.2c-0.8-2.3-1.8-4.6-3.3-6.1c-0.4-0.4-0.8-0.8-1.2-1.1
			c-0.4-0.3-0.9-0.5-1.3-0.8c-0.4-0.2-0.8-0.3-1.2-0.4c-0.6-0.1-1.2-0.2-1.8-0.2h-0.1c-1,0-2,0.3-2.9,0.6h-0.1c-0.1,0-0.1,0-0.2,0
			c-0.7,0-1.3,0.3-1.8,0.8l-0.1,0.1c-0.5,0.3-1,0.6-1.4,0.9s-0.7,0.7-0.9,1.1c-0.3,0.5-0.5,1.1-0.5,1.8c0,0.2,0,0.3,0,0.5
			c-0.2,0.2-0.4,0.4-0.5,0.7c-1,2.1-1.5,4.5-1.9,6.9c-0.1,1-0.2,2-0.2,3.1c0,0.3,0,0.6,0,0.9c0,0.7,0,1.5,0,2.2
			c-0.1,0.5-0.2,1-0.2,1.5c-0.2,1.3-0.2,2.7-0.3,4c0,1,0,2,0.1,3c0,1,0,2.1,0.1,3.1l0,0c-0.1,1.7-0.2,3.4-0.2,5.2
			c0,1.3,0,2.6,0.1,3.9c0,0.1,0,0.2,0,0.3c-0.1,0.2-0.2,0.3-0.2,0.5c-0.2,0.3-0.5,0.6-0.7,0.9c-0.3,0.3-0.6,0.5-1,0.7
			c-0.2,0.1-0.5,0.2-0.8,0.3c-0.3,0-0.5,0.1-0.8,0.1c-0.2,0-0.3,0-0.5-0.1c-0.2-0.2-0.3-0.4-0.5-0.6c-0.5-0.5-1.2-0.7-1.9-0.9
			c-0.1,0-0.2-0.1-0.4-0.1c-0.6-0.1-1.1-0.1-1.7,0l0,0c-0.1-0.1-0.3-0.2-0.4-0.2c-0.7-0.4-1.5-0.6-2.3-0.9c-0.9-0.2-1.8-0.3-2.7-0.3
			c-0.6,0-1.3,0.1-1.9,0.2c-0.9,0.2-1.8,0.4-2.7,0.8c-1.7,0.8-3.2,1.9-4.3,3.4c-1.3,1.6-2,3.6-2.3,5.6c-0.1,0.6-0.1,1.2-0.1,1.8
			c0,0.4,0,0.7,0.1,1.1c0.1,0.6,0.2,1.1,0.4,1.7c0.1,0.4,0.2,0.8,0.4,1.2c0.7,1.7,1.9,3.2,3.3,4.4c0.6,0.5,1.2,0.9,1.8,1.2
			c0.3,0.5,0.6,0.9,0.9,1.3c0.3,0.4,0.7,0.7,1,1c0.4,0.3,0.8,0.6,1.2,0.8c1.1,0.7,2.2,1.2,3.4,1.6c0.7,0.2,1.3,0.4,2,0.5
			c0.8,0.1,1.6,0.1,2.4,0.2c1.1,0,2.1-0.1,3.2-0.3c1-0.2,2-0.5,3-0.8c0.3,0,0.6,0.1,0.9,0.1c0.7,0,1.4,0,2.2-0.1
			c0.8-0.1,1.5-0.3,2.3-0.6c1.4-0.5,2.8-1.2,4-2c1.3-0.8,2.5-1.9,3.6-2.9c0.3,0,0.5-0.2,0.7-0.4c0.6-0.2,1.2-0.4,1.8-0.8
			c1.4-0.8,2.5-1.9,3.6-3.3c1-1.3,1.9-3,2.5-4.7c0.1-0.3,0.2-0.5,0.3-0.8c1-2.5,1.5-5.4,1.5-8.4v-0.1c0.1-0.3,0.1-0.7,0.2-1
			c0.5-2.4,0.8-4.8,0.7-7.2c0-0.5-0.1-0.9-0.1-1.4c0.1-1.2,0.2-2.4,0.3-3.6C296.5,73.2,296.3,68.5,295.6,63.8z"/>
		<g>
			<path class="st1" d="M297,63.4c-1-5.7-3.2-14.4-10-15.6c-4.6-0.8-9.6,1.4-11.3,5.8c-2.5,6.4-3,13.2-3.2,20.1c-0.1,4,0,8,0,12
				c0,2.2,0.8,4.9-2.1,4.7c-0.8-0.1-2.1-1-3-1.2c-1.8-0.3-4.3-1.4-7.1-1.4c-3.3,0-6.7,1.5-9.1,3.8c-4.5,4.6-5.1,11.9-1.1,17
				c3.5,4.5,8.7,8.7,14.5,9.1c6.4,0.5,13.9-1.3,19.1-5c3.4-2.5,7.1-4.2,9.4-7.9c1.9-2.9,3-6.7,3.5-10.1
				C297.8,84.5,298.5,73.8,297,63.4c-0.3-1.9-3.2-1.1-2.9,0.8c1.3,8.9,0.8,18.2-0.4,27.1c-0.6,4.2-0.9,8.4-3.3,12.1
				c-1.6,2.4-3.5,3.1-5.6,4.6c-1.5,1.1-2.8,2.4-4.3,3.4c-3.3,2.2-6.8,2.3-10.5,2.9c-4,0.6-7.8,1-11.3-1.5c-0.7-0.5-2.9-2.8-4-3.8
				c-2.5-2-4.2-4.4-4.3-7.7c-0.2-7.2,6.6-11.7,13.1-9.8c0.7,0.2,1.4,0.5,2.1,0.8c0.5-0.1,1.1,0,1.7,0.1c0.7,0.3,1.4,0.8,2.1,1.3
				c1.7,0.5,3.2,0.1,4.6-1c1.1-1,1.4-1.7,1.7-2.9c0.5-2-0.1-5.2-0.1-7.4c0-1.6,0-3.2,0-4.8c-0.2-6.9-0.4-15.9,2.9-22
				c1.6-3,3.3-4.7,6.8-4.7c6.5,0,8,8.8,8.9,13.5C294.5,66.1,297.4,65.3,297,63.4z"/>
		</g>
	</g>
	<g>
		<path class="st1" d="M294.7,64.5c0.4-1.3,0.8-2.6,1-3.9c0.4-2.5,0.3-5.1-0.2-7.5c-0.1-0.7-0.3-1.3-0.5-2c0-0.6-0.1-1.2-0.2-1.8
			c-0.3-1.9-0.9-3.6-1.7-5.3c-0.5-0.9-1-1.8-1.6-2.6c-0.7-0.9-1.4-1.7-2.2-2.5c-1.5-1.5-3.2-2.7-5-3.8c-1.8-1-3.7-1.8-5.8-2.2
			c-0.9-0.2-1.8-0.3-2.7-0.3c-1.2-0.1-2.4-0.1-3.6,0c-0.1,0-0.1,0-0.2,0c-2.1,0.2-4.2,0.6-6.2,1.2c-3.5,0.8-6.9,2.4-9.6,4.8
			c-0.5,0.4-1,0.9-1.4,1.3c-0.2,0.2-0.4,0.3-0.5,0.5c-0.6,0.6-1.2,1.3-1.7,2.1c-0.6,0.9-1.2,1.8-1.6,2.8c-0.9,1.6-1.5,3.4-2,5.2
			c-0.7,2.3-0.9,4.7-0.9,7.1c0,2.3,0.4,4.5,1,6.7c0.6,2.1,1.6,4.1,2.8,6c0.5,0.8,1.1,1.6,1.7,2.3c0.8,0.9,1.6,1.8,2.6,2.6
			c0.9,0.8,1.8,1.4,2.8,2c0.9,0.6,1.8,1.1,2.8,1.5c1.1,0.5,2.2,0.8,3.3,1.2c1,0.3,2.1,0.5,3.2,0.7c3.3,0.4,6.7,0.1,9.9-0.9"/>
		<g>
			<path class="st1" d="M296.2,64.9c3.3-10.4,0-23.5-9.2-29.8c-8.9-6.1-22.1-5-30.6,1.5c-8.9,6.8-12.3,19.7-8.2,30.1
				c4.9,12.2,17.9,17.7,30.2,14.5c1.9-0.5,1.1-3.4-0.8-2.9c-11.4,3-23.6-2.6-27.2-14.3c-2.9-9.4,0.7-20.6,9.1-25.9
				c7.3-4.7,17.9-5.6,25.3-0.8c8.4,5.5,11.4,17.6,8.5,26.9C292.7,66,295.6,66.8,296.2,64.9L296.2,64.9z"/>
		</g>
	</g>
	<g>
		<path class="st1" d="M270.6,62.9c0.3-0.1,0.5-0.2,0.8-0.3c0.3,0,0.6-0.1,0.9-0.2h0.1c0.1,0,0.3,0,0.4,0c0.3,0,0.6,0,1-0.1
			c0.1,0,0.2,0,0.3-0.1l0,0c0.2,0,0.4,0,0.6-0.1c0.2,0,0.3-0.2,0.5-0.3c0.1-0.1,0.2-0.2,0.3-0.2l0.1-0.1c0.1,0,0.2,0,0.3-0.1
			c0.2,0,0.3-0.1,0.5-0.2s0.3-0.3,0.5-0.5c0.1-0.1,0.2-0.3,0.3-0.4c0.1-0.2,0.3-0.5,0.4-0.8s0.2-0.6,0.3-0.9
			c0.1-0.3,0.1-0.6,0.2-0.9c0-0.3,0.1-0.7,0-1c0-0.3-0.1-0.7-0.1-1c-0.1-0.3-0.2-0.6-0.3-0.9c-0.1-0.3-0.3-0.6-0.5-0.9
			c-0.1-0.2-0.2-0.3-0.4-0.5c-0.1-0.2-0.2-0.3-0.3-0.4c-0.1-0.1-0.2-0.2-0.3-0.3c-0.2-0.4-0.4-0.7-0.6-1c-0.3-0.5-0.8-0.8-1.2-1.1
			c-0.1-0.1-0.3-0.1-0.5-0.2c-0.1,0-0.3-0.1-0.4-0.1s-0.3,0-0.4,0.1c-0.1,0-0.3,0.1-0.4,0.1c-0.2-0.3-0.4-0.6-0.7-0.8
			c-0.7-0.5-1.5-0.5-2.1,0.1c-0.1,0.1-0.2,0.2-0.3,0.4c-0.1,0.2-0.2,0.4-0.3,0.6l0,0c-0.1,0-0.2,0.1-0.3,0.2c-0.1,0-0.1,0-0.2,0
			c-0.2,0-0.3,0-0.5,0.1c-0.1,0.1-0.3,0.2-0.4,0.2c-0.2,0.1-0.4,0.3-0.6,0.6l0,0l0,0c-0.2,0.1-0.4,0.2-0.6,0.4
			c-0.1,0.1-0.3,0.3-0.4,0.5s-0.2,0.4-0.4,0.6c-0.2,0.3-0.3,0.7-0.3,1c0,0.1,0,0.3-0.1,0.4l0,0v0.1l0,0c-0.1,0.2-0.1,0.4-0.1,0.6
			c0,0.4-0.1,0.7,0,1.1l0,0l0,0c0,0.6,0.1,1.1,0.2,1.7c0.1,0.5,0.3,1.1,0.5,1.5c0.1,0.3,0.3,0.6,0.5,0.9c0.1,0.2,0.2,0.4,0.4,0.5
			c0.2,0.2,0.4,0.4,0.6,0.6s0.5,0.4,0.8,0.5c0.4,0.2,0.8,0.3,1.2,0.4c0.2,0,0.3,0,0.5,0C270,63.1,270.3,63,270.6,62.9L270.6,62.9
			L270.6,62.9z"/>
		<g>
			<path class="st1" d="M271,64.4c0.8-0.3,2.7-0.7,3.1-0.7c1-0.2,1.5-0.5,2.4-1c-0.8,0.4,0.4,0,0.6-0.2c0.4-0.2,0.7-0.5,0.9-0.9
				c0.8-1,1.3-2.4,1.5-3.7c0.4-3.4-2.9-10.1-7.2-8.7c0.6,0.2,1.1,0.5,1.7,0.7c-0.8-1.2-1.9-2.1-3.4-1.8c-0.5,0.1-3.3,1.6-2.8,2.5
				c1.1-0.8,1.3-1.1,0.5-0.9c-0.3,0-0.6,0.1-0.8,0.2c-0.5,0.2-0.9,0.6-1.3,1c-0.9,0.8-1.6,1.5-2,2.7s-0.4,1.3-0.4,2.7
				c0,1.1,0.1,2.4,0.4,3.4C265.1,63,267.7,64.9,271,64.4c1.9-0.3,1.1-3.2-0.8-2.9c-3.1,0.5-4-4.2-3.3-6.4c0.3-1,1.1-1.9,2-2.4
				c0.3-0.2,0.8-0.1,1.1-0.4c0.2-0.2,1-1.5,1.4-0.9c0.4,0.5,1,0.9,1.7,0.7c1.1-0.4,1.9,1.3,2.4,2.2c1.1,1.6,1.5,4-0.1,5.5
				c-1.4,1.3-3.6,1-5.3,1.7C268.4,62.2,269.2,65.1,271,64.4z"/>
		</g>
	</g>
</g>
<g>
	<g>
		<path class="st1" d="M119.3,67.3c-0.1-1.1-0.3-2.3-0.5-3.4c-0.3-1.2-0.7-2.4-1.1-3.6c-0.3-1-0.8-2.1-1.3-3c-0.5-1-1.1-2-1.7-2.9
			c-0.3-0.4-0.6-0.8-0.9-1.2c-0.1-0.3-0.2-0.7-0.3-1c-0.3-0.9-0.9-1.7-1.5-2.5c-0.7-0.9-1.6-1.6-2.4-2.3c-0.6-0.4-1.2-0.9-1.8-1.2
			c-1.2-0.7-2.5-1.3-3.8-1.9c-1.8-0.8-3.7-1.3-5.7-1.6c-0.9-0.2-1.8-0.2-2.7-0.2c-0.7,0-1.5,0.1-2.2,0.2c-0.8,0.1-1.6,0.4-2.3,0.6
			c-0.3,0.1-0.5,0.2-0.8,0.3c0.2-2,0.4-4.1,0.4-6.1c0.2-5.8-0.2-11.6-1.2-17.4c-0.1-0.3-0.2-0.5-0.4-0.7v-0.1c0.3-1.2,0.2-2.3,0-3.5
			c-0.2-1.4-0.7-2.8-1.4-4.1C87,10.3,86,9,85,7.7c-0.5-0.6-1-1.2-1.6-1.7c-0.6-0.6-1.3-1.1-2.1-1.6c-1.2-0.8-2.5-1.3-3.9-1.6
			c-1.1-0.2-2.3-0.3-3.5-0.2c-0.6,0.1-1.1,0.1-1.7,0.3c-0.6,0.1-1.1,0.4-1.7,0.6c-0.9,0.4-1.7,1-2.5,1.7s-1.4,1.5-2,2.3
			c-0.5,0.8-1,1.7-1.4,2.6c-0.4,1-0.8,2.1-1.1,3.1c-0.6,2.1-0.9,4.3-1.1,6.5c-0.2,2-0.2,4-0.1,5.9c0,0.6,0.1,1.2,0.2,1.8
			c0,1.9,0,3.9,0.1,5.8c0.2,4.8,0.8,9.6,1.3,14.4c0.1,1,0.2,2,0.3,2.9c0,2.7,0.2,5.4,0.5,8.1c0,0.3,0,0.5-0.1,0.8
			c-0.2,2.9-0.7,5.9-0.5,8.8c0.1,1.4,0.3,2.9,0.7,4.2c0.1,0.3,0.2,0.5,0.3,0.8c0.5,1.1,1.1,2,1.9,2.9c0.5,0.5,1.1,0.9,1.7,1.3
			c0.7,0.4,1.5,0.8,2.2,1.1c1.4,0.6,3,0.9,4.6,0.9c0.1,0,0.2,0,0.4,0c0.5,0,0.9,0,1.4-0.1l0,0c0.4,0.1,0.8,0.1,1.2,0.2h0.1
			c0.4,0,0.7-0.1,1.1-0.1c0.2,0,0.5-0.1,0.7-0.1c0.2-0.1,0.5-0.2,0.7-0.3c0.5-0.2,0.9-0.4,1.4-0.6c0.6-0.3,1.1-0.6,1.6-1
			c0.7-0.5,1.4-1.1,2-1.7c0.3-0.3,0.5-0.6,0.8-0.9s0.5-0.7,0.8-1c0.2-0.3,0.4-0.6,0.5-0.9c0.6-0.9,1.3-1.8,1.9-2.7
			c0.9-1.3,1.7-2.7,2.5-4.1c0.2-0.1,0.5-0.2,0.8-0.3c0.5-0.1,0.9-0.2,1.4-0.3c0.5,0,0.9,0,1.4,0.1c0.4,0.1,0.8,0.2,1.2,0.4
			c0.4,0.2,0.7,0.5,1.1,0.7c0.3,0.3,0.6,0.7,0.9,1c0.2,0.3,0.3,0.6,0.4,0.9c0.1,0.2,0.1,0.4,0.1,0.7c0,0.6-0.1,1.2-0.1,1.8
			c-0.1,0.8-0.3,1.6-0.3,2.5c-0.1,1.8,1,3.4,2.7,4c0.1,0,0.1,0,0.2,0.1c0.3,0.8,0.8,1.5,1.4,2c0.9,0.8,1.9,1.5,3,1.8
			c0.6,0.1,1.3,0.3,1.9,0.3c0.8,0,1.6-0.1,2.4-0.3c0.8-0.2,1.5-0.4,2.2-0.7c0.4-0.2,0.8-0.4,1.1-0.6c0.6-0.4,1.1-0.7,1.5-1.1
			c0.5-0.5,1-1,1.4-1.6c0.4-0.5,0.7-1.1,0.9-1.7c0.2-0.4,0.3-0.8,0.5-1.2c0.4-1.2,0.6-2.4,0.7-3.6C119.5,69.7,119.4,68.5,119.3,67.3
			z"/>
		<g>
			<path class="st1" d="M120.8,67.3c-0.9-7.6-4.6-17-11-21.6c-5.6-4-13.5-6.3-20-3.6c0.6,0.5,1.3,1,1.9,1.4c0.8-8.3-0.3-18.4-1-25.1
				C90,11.8,87.1,5.2,80.6,2.2c-7-3.2-14,0.4-17,7.1c-3.7,8.2-2.7,18-2.1,26.7c0.7,9.7,2,19.1,1.4,28.8c-0.4,6.4,1,12.6,7.5,15.2
				c4.7,1.9,10.5,1.8,14.6-1.3c2.7-2,4.5-4.8,6.4-7.6c0.5-0.8,1.1-2.1,1.7-2.7c0.1-0.2,0.2-0.3,0.3-0.5c1.2-2.3,2.8-0.9,4.7,4.1
				c0.2,1.2-0.3,2.4,0.2,3.7c0.5,1.5,1.5,1.9,2.5,2.9c0.8,0.8,1.2,1.6,2.3,2.5c2,1.8,4.6,2.3,7.2,1.9
				C118.4,82.2,121.2,74.7,120.8,67.3c-0.1-1.9-3.1-1.9-3,0c0.3,5.1-0.6,10.7-6.1,12.5c-3.9,1.3-6.7-0.4-9-3.5
				c-2.5-3.3-1-3.6-1.3-6.9c-0.1-0.9-0.3-1.6-0.8-2.3c-1-1.6-2.7-2.6-4.5-2.9c-2.8-0.4-4.3,0.5-5.6,2.6c-2.2,3.6-4.7,8.4-8.7,10.3
				c-2.5,1.2-6.1,1.2-8.8,0.5c-5.1-1.3-7.1-5.2-7.2-10.2c-0.1-4,0.6-7.9,0.3-12c-0.3-4.4-0.7-8.8-1.1-13.2c-0.9-8.9-2.2-19.1,0-27.9
				c1.6-6.2,6.1-12.4,13.5-9.8c5,1.8,9.1,7.7,9.3,12.9c0.3,8.7,1.8,17.1,0.9,26c-0.1,0.9,1,1.8,1.9,1.4c5.5-2.3,12-0.5,16.8,2.7
				c2.9,1.9,4.3,4.5,6,7.4c2.3,3.9,3.8,7.7,4.4,12.2C118,69.2,121,69.2,120.8,67.3z"/>
		</g>
	</g>
	<g>
		<g>
			<path class="st1" d="M87.6,74c0.2-0.3,0.4-0.6,0.5-0.9c-0.4,0.6-0.9,1.3-1.3,1.9C87.1,74.6,87.3,74.3,87.6,74z"/>
			<g>
				<path class="st1" d="M88.9,74.7c0.2-0.3,0.4-0.6,0.5-0.9c0.4-0.7,0.2-1.6-0.5-2.1c-0.8-0.4-1.6-0.1-2.1,0.5
					c-0.4,0.6-0.9,1.3-1.3,1.9s-0.2,1.5,0.4,1.9c0.5,0.4,1.5,0.5,2-0.1C88.2,75.6,88.5,75.2,88.9,74.7c0.5-0.7,0.1-1.7-0.5-2.1
					c-0.8-0.4-1.6-0.1-2.1,0.5c-0.2,0.3-0.3,0.5-0.5,0.7c0.8,0.6,1.6,1.2,2.4,1.8c0.4-0.6,0.9-1.3,1.3-1.9c-0.9-0.5-1.7-1-2.6-1.5
					c-0.2,0.3-0.3,0.6-0.5,0.9c-0.5,0.7-0.1,1.7,0.5,2.1C87.6,75.7,88.4,75.4,88.9,74.7z"/>
			</g>
		</g>
		<g>
			<path class="st1" d="M89.6,49.4c0-0.7,0-1.5,0.1-2.2c0-0.2,0.1-0.5,0.1-0.7c0.1-1,0.3-1.9,0.4-2.9c0.2-2,0.4-4.1,0.4-6.1
				c0.2-5.8-0.2-11.6-1.2-17.4c-0.1-0.3-0.2-0.5-0.4-0.7v-0.1c0.3-1.2,0.2-2.3,0-3.5c-0.2-1.4-0.7-2.8-1.4-4.1
				c-0.7-1.4-1.7-2.7-2.7-4c-0.5-0.6-1-1.2-1.6-1.7c-0.6-0.6-1.3-1.1-2.1-1.6c-1.2-0.8-2.5-1.3-3.9-1.6c-1.1-0.2-2.3-0.3-3.5-0.2
				c-0.6,0.1-1.1,0.1-1.7,0.3C71.5,3,71,3.3,70.4,3.5c-0.9,0.4-1.7,1-2.5,1.7s-1.4,1.5-2,2.3c-0.5,0.8-1,1.7-1.4,2.6
				c-0.4,1-0.8,2.1-1.1,3.1c-0.6,2.1-0.9,4.3-1.1,6.5c-0.2,2-0.2,4-0.1,5.9c0,0.6,0.1,1.2,0.2,1.8c0,1.9,0,3.9,0.1,5.8
				c0.2,4.8,0.7,9.6,1.3,14.4c0.1,1,0.2,2,0.3,2.9c0,2.7,0.2,5.4,0.5,8.1c0,0.3,0,0.5-0.1,0.8c-0.2,2.9-0.7,5.9-0.5,8.8
				c0.1,1.4,0.3,2.9,0.7,4.2c0.1,0.3,0.2,0.5,0.3,0.8c0.5,1.1,1.1,2,1.9,2.9c0.5,0.5,1.1,0.9,1.7,1.3c0.7,0.4,1.5,0.8,2.2,1.1
				c1.4,0.6,3,0.9,4.6,0.9c0.1,0,0.2,0,0.4,0c0.5,0,0.9,0,1.4-0.1l0,0c0.4,0.1,0.8,0.1,1.2,0.2h0.1c0.4,0,0.7-0.1,1.1-0.1
				c0.2,0,0.5-0.1,0.7-0.1c0.2-0.1,0.5-0.2,0.7-0.3c0.5-0.2,0.9-0.4,1.4-0.6c0.6-0.3,1.1-0.6,1.6-1c0.7-0.5,1.4-1.1,2-1.7
				c0.3-0.3,0.5-0.6,0.8-0.9c0.4-0.6,0.9-1.3,1.3-1.9"/>
			<g>
				<path class="st1" d="M91.1,49.4c0.2-6.6,1.3-13,0.9-19.6c-0.2-3.4-0.6-6.7-1.1-10c-0.1-0.7,0,0.5-0.2-1.2
					c-0.1-1.5,0-2.9-0.4-4.5C87.7,4.7,75.7-3.5,67.2,4.3c-4,3.7-5.4,9.6-6,14.8c-0.8,7.3,0,15.2,0.7,22.5c0.7,6.9,1.8,13.9,1.2,20.8
					c-0.4,5-0.9,10.7,2.7,14.7c3.1,3.6,8.3,4.4,12.8,4.3c4.8-0.2,8.3-3.7,10.9-7.4c1.1-1.6-1.5-3.1-2.6-1.5
					c-2.9,4.1-6.3,6.1-11.2,5.8c-9-0.5-10.2-7.6-9.6-15.1c1-12-1.3-24.5-1.9-36.5c-0.3-6-0.2-13.1,3.4-18.3c6.3-9,17.6-1.8,19.9,6.5
					c0.5,1.7,0.3,3.6,0.4,5.4c0.3,4.5,1.3,8.9,1.4,13.4c0.1,5.3-0.8,10.5-1,15.8C88.1,51.3,91.1,51.3,91.1,49.4L91.1,49.4z"/>
			</g>
		</g>
	</g>
</g>
<g>
	<g>
		<path class="st1" d="M1.6,65c0,0.6,0.1,1.2,0.2,1.8c0,1.9,0,3.9,0.1,5.8c0.2,4.8,0.8,9.6,1.3,14.4c0.1,1,0.2,2,0.3,2.9
			c0,2.7,0.2,5.4,0.5,8.1c0,0.3,0,0.5-0.1,0.8c-0.2,2.9-0.7,5.9-0.5,8.8c0.1,1.4,0.3,2.9,0.7,4.2c0.5,1.4,1.2,2.6,2.2,3.7
			c0.5,0.5,1.1,0.9,1.7,1.3c0.7,0.4,1.5,0.8,2.2,1.1c1.4,0.6,3,0.9,4.6,0.9c0.1,0,0.2,0,0.4,0c0.5,0,0.9,0,1.4-0.1l0,0
			c0.4,0.1,0.8,0.1,1.2,0.2h0.1c0.4,0,0.7-0.1,1.1-0.1c0.2,0,0.5-0.1,0.7-0.1c0.2-0.1,0.5-0.2,0.7-0.3c0.5-0.2,0.9-0.4,1.4-0.6
			c0.6-0.3,1.1-0.6,1.6-1c0.7-0.5,1.4-1.1,2-1.7s1.1-1.2,1.5-1.9c0.5-0.7,0.8-1.3,1.1-2.1c0.2-0.5,0.3-1,0.4-1.6
			c0.1-0.8,0.2-1.6,0.3-2.4c0.1-1.4,0.1-2.9,0-4.4c-0.1-1.2-0.3-2.4-0.4-3.7c0.2-1.8,0.3-3.5,0.4-5.3c0.1-1,0.1-2,0.1-3
			c0.1-1.5,0.1-2.9,0.2-4.4c0-0.2,0.1-0.5,0.1-0.7c0.5-3,0.7-6,0.8-9c0.2-5.8-0.2-11.6-1.2-17.4c-0.1-0.3-0.2-0.5-0.4-0.7v-0.1
			c0.3-1.2,0.2-2.3,0-3.5c-0.2-1.4-0.7-2.8-1.4-4.1c-0.7-1.4-1.7-2.7-2.7-4c-0.5-0.6-1-1.2-1.6-1.7c-0.6-0.6-1.3-1.1-2.1-1.6
			c-1.2-0.8-2.5-1.3-3.9-1.6c-1.1-0.2-2.3-0.3-3.5-0.2c-0.6,0.1-1.1,0.1-1.7,0.3c-0.6,0.1-1.1,0.4-1.7,0.6c-0.9,0.4-1.7,1-2.5,1.7
			s-1.4,1.5-2,2.3c-0.5,0.8-1,1.7-1.4,2.6c-0.4,1-0.8,2.1-1.1,3.1c-0.6,2.1-0.9,4.3-1.1,6.5C1.5,61,1.4,63,1.6,65z"/>
		<g>
			<path class="st1" d="M0.1,65c0.5,4.3,0.3,8.7,0.7,13c0.4,4.2,1,8.5,1.3,12.7c0.2,3.6,0.5,7.1,0.2,10.7s-0.7,7.4,0.5,10.8
				c3,8.7,15.4,10.6,22.1,5.2c4.6-3.8,5.7-8.9,5.3-14.7c-0.5-7.8,0.5-15.5,1-23.3c0.4-6.8-0.8-15.6-1.4-20.9
				c-0.3-3.1-0.1-5.5-1.6-8.4c-1.3-2.6-3.3-5-5.5-6.8c-5-4-12.3-4.1-16.9,0.6C0.5,49.2-0.3,58,0.1,65c0.1,1.9,3.1,1.9,3,0
				c-0.4-7.6,0.9-21.2,11-21.3c8.3-0.1,12.5,8,12.7,15.3c0.1,3.9,1.4,8,1.5,12c0.1,3.7,0,7.5-0.3,11.2c-0.6,5.7-1.3,11.6-1.2,17.4
				c0.1,7.2,0.9,16.8-9,17.9c-6.7,0.8-12.4-2.8-12.8-9.8c-0.2-3.2,0.6-6.4,0.6-9.6c0-3.1-0.4-6.5-0.6-9.6C4.3,80.7,4.1,72.7,3.2,65
				C2.8,63.1-0.2,63,0.1,65z"/>
		</g>
	</g>
	<g>
		<path class="st1" d="M25.6,81.2c0.7,0,1.3,0.1,2,0.1c0.5,0,1,0,1.6,0c0.8,0.1,1.6,0.1,2.4,0c1.3-0.1,2.5-0.3,3.7-0.5
			c2.2-0.4,4.2-1.2,6.2-2.2c1.1-0.5,2.1-1.1,3-1.9c0.7-0.4,1.3-0.8,1.9-1.3c1.3-0.9,2.5-2,3.5-3.2c0.5-0.6,1-1.3,1.4-2.1
			c0.4-0.7,0.7-1.5,0.9-2.2c0.3-0.8,0.3-1.5,0.4-2.3c0-0.6,0-1.2-0.1-1.9c-0.1-0.8-0.3-1.6-0.6-2.4c-0.1-0.3-0.3-0.6-0.4-0.9
			c0-0.2,0-0.4,0-0.6c0.1-1.2-0.1-2.4-0.3-3.6c-0.2-1.3-0.8-2.5-1.3-3.6c-0.4-0.9-1-1.8-1.6-2.6c-0.8-1-1.7-2-2.6-2.8
			c-0.9-0.8-1.9-1.6-3-2.2c-0.5-0.3-1-0.6-1.5-0.8c-0.6-0.3-1.1-0.5-1.7-0.8c-1.2-0.5-2.4-0.9-3.6-1.2c-1.3-0.3-2.6-0.5-4-0.6
			c-2.3-0.2-4.8,0.1-7,0.9c-1.2,0.4-2.3,0.9-3.3,1.6c-1.1,0.6-2.1,1.5-3,2.3c-0.4,0.3-0.8,0.7-1.1,1.1"/>
		<g>
			<path class="st1" d="M25.6,82.7c8.7,0.4,16.4-1.4,23.1-7.2c2.5-2.2,4.7-5,5.3-8.4c0.6-3.2-0.7-6.2-1-9.3c-0.8-7.7-7-13.7-14-16.3
				c-8.2-3-16.5-1.3-22.6,4.8c-1.4,1.4,0.8,3.5,2.1,2.1c5.6-5.6,13.1-6.8,20.4-3.8c3.3,1.4,6.1,3.5,8.2,6.3c2.4,3.2,2.2,5.7,2.9,9.5
				c0.4,2.4,1.5,4.5,0.8,7.1c-0.9,3.2-3.5,5.5-6.1,7.3c-6,4.1-12,5.2-19.1,4.9C23.7,79.7,23.7,82.7,25.6,82.7L25.6,82.7z"/>
		</g>
	</g>
	<g>
		<path class="st1" d="M33,65.5c-0.2,0.1-0.4,0.1-0.6,0.1c-0.2,0.1-0.4,0.2-0.7,0.2c0,0-0.1,0-0.1,0.1C31.5,66,31.4,66,31.3,66
			c-0.2,0.1-0.4,0.2-0.6,0.3c-0.1,0-0.1,0-0.2,0.1l0,0c-0.1,0.1-0.3,0.1-0.4,0.2c-0.1,0-0.3,0-0.4,0s-0.2,0-0.3,0h-0.1
			c-0.1,0-0.1,0.1-0.2,0.1s-0.3,0-0.4,0c-0.2,0-0.3,0-0.5-0.1c-0.1,0-0.2-0.1-0.3-0.1c-0.2-0.1-0.4-0.2-0.5-0.3
			c-0.2-0.1-0.4-0.3-0.5-0.5c-0.2-0.1-0.3-0.3-0.4-0.5s-0.3-0.4-0.4-0.6s-0.2-0.4-0.3-0.6c-0.1-0.2-0.1-0.4-0.2-0.7
			c-0.1-0.2-0.1-0.5-0.1-0.7c0-0.1,0-0.3,0-0.4s0-0.3,0-0.4s0-0.2,0.1-0.3c0-0.3,0-0.6,0-0.8c0-0.4,0.1-0.8,0.3-1.1
			c0.1-0.1,0.1-0.2,0.2-0.3c0.1-0.1,0.1-0.1,0.2-0.2s0.2-0.1,0.3-0.1c0.1,0,0.2-0.1,0.3-0.1c0-0.3,0-0.5,0.1-0.8
			c0.2-0.5,0.7-0.9,1.3-0.7c0.1,0,0.2,0.1,0.4,0.1c0.1,0.1,0.3,0.2,0.4,0.2l0,0c0.1,0,0.2,0,0.3,0l0.1-0.1c0.1-0.1,0.2-0.1,0.3-0.1
			c0.1,0,0.2,0,0.4,0s0.4,0.1,0.6,0.1l0,0l0,0c0.2,0,0.4,0,0.6,0c0.1,0,0.3,0.1,0.4,0.1c0.2,0.1,0.3,0.2,0.5,0.2
			c0.2,0.1,0.4,0.3,0.6,0.5c0.1,0.1,0.1,0.1,0.2,0.2l0,0c0,0,0,0,0.1,0.1l0,0c0.1,0.1,0.2,0.2,0.3,0.3c0.2,0.2,0.3,0.4,0.4,0.6l0,0
			l0,0c0.2,0.3,0.4,0.7,0.5,1.1c0.2,0.4,0.3,0.7,0.3,1.1c0,0.2,0,0.5,0.1,0.7c0,0.2,0,0.3,0,0.5s-0.1,0.4-0.1,0.6
			c-0.1,0.2-0.2,0.4-0.3,0.6c-0.2,0.3-0.4,0.5-0.6,0.7c-0.1,0.1-0.2,0.1-0.3,0.2C33.4,65.4,33.2,65.5,33,65.5L33,65.5L33,65.5z"/>
		<g>
			<path class="st1" d="M32.6,64.1c-0.8,0.1-1.4,0.4-2.1,0.7c-0.2,0.1-0.8,0.5-1,0.5c0.7-0.1-0.1-0.3-0.1-0.3
				c-0.4-0.2-0.6,0.1-1.2-0.2c-0.4-0.2-0.7-0.6-0.9-1c-0.1-0.3-0.7-3.4,0-3.5c0.6-0.2,1.1-0.8,1.1-1.4c0,0.7,1.2,0.3,1.6,0.2
				c0.7,0,1.2,0,1.8,0.5C33,60.5,34.3,63.4,32.6,64.1c-1.8,0.7-1,3.6,0.8,2.9c4.3-1.8,3.3-7.4,0.2-9.9c-0.4-0.3-0.8-0.6-1.3-0.7
				c-0.2-0.1-2-0.3-1-0.2c-0.6-0.1-1.1-0.2-1.7-0.1c-0.2,0.1-0.5,0.2-0.7,0.3c1.1,0.3,1.4,0.3,0.9,0c-1.9-1.7-4.2,0.6-4.3,2.5
				c0.4-0.5,0.7-1,1.1-1.4c-3.9,1-2.9,7.4-0.6,9.4c0.7,0.6,1.5,1.1,2.4,1.3c0.4,0.1,0.8,0,1.2,0c-0.7,0.1-0.4,0,0.2,0
				c0.4,0,0.8-0.1,1.2-0.2c0.5-0.2,1-0.4,0.2-0.1c0.8-0.3,1.4-0.7,2.2-0.8C35.3,66.7,34.5,63.8,32.6,64.1z"/>
		</g>
	</g>
</g>
<g>
	<g>
		<path class="st1" d="M230.6,68.9c-0.1-2.1-0.5-4-1-5.9c-0.5-2.2-1.3-4.4-2.6-6c-0.3-0.4-0.7-0.8-1-1.1c-0.4-0.3-0.8-0.6-1.2-0.8
			c-0.3-0.2-0.7-0.3-1.1-0.4c-0.6-0.2-1.1-0.3-1.7-0.3h-0.1c-0.9,0-1.9,0.1-2.8,0.4H219c-0.1,0-0.1,0-0.2,0c-0.6,0-1.2,0.2-1.8,0.6
			l-0.1,0.1c-0.5,0.2-0.9,0.5-1.4,0.8c-0.4,0.2-0.7,0.6-1,1c-0.3,0.5-0.6,1-0.6,1.6c0,0.2,0,0.3-0.1,0.4c-0.2,0.2-0.4,0.4-0.5,0.7
			c-1.1,1.9-1.8,4.1-2.3,6.4c-0.2,0.9-0.4,1.9-0.5,2.9c0,0.3-0.1,0.6-0.1,0.9c-0.1,0.7-0.1,1.4-0.1,2.1c-0.1,0.5-0.2,0.9-0.3,1.4
			c-0.3,1.2-0.4,2.5-0.6,3.8c-0.1,0.9-0.2,1.9-0.2,2.9c-0.1,1-0.1,2-0.1,2.9l0,0c-0.2,1.6-0.4,3.2-0.6,4.8c-0.1,1.2-0.2,2.5-0.2,3.7
			c0,0.1,0,0.2,0,0.2c-0.1,0.2-0.2,0.3-0.3,0.4c-0.2,0.3-0.5,0.5-0.8,0.8c-0.3,0.2-0.6,0.4-1,0.6c-0.2,0.1-0.5,0.2-0.7,0.2
			c-0.3,0-0.5,0-0.8,0c-0.2,0-0.3-0.1-0.5-0.1c-0.1-0.2-0.3-0.4-0.5-0.6c-0.5-0.5-1.1-0.8-1.7-1c-0.1,0-0.2-0.1-0.3-0.1
			c-0.5-0.1-1.1-0.2-1.6-0.2l0,0c-0.1-0.1-0.2-0.2-0.3-0.2c-0.7-0.5-1.4-0.7-2.1-1c-0.8-0.3-1.7-0.4-2.5-0.5c-0.6-0.1-1.2,0-1.8,0
			c-0.9,0.1-1.7,0.3-2.6,0.6c-1.7,0.6-3.2,1.6-4.4,2.9c-1.3,1.4-2.2,3.2-2.7,5.1c-0.1,0.6-0.2,1.1-0.2,1.7c0,0.4,0,0.7,0,1.1
			c0,0.5,0.1,1.1,0.2,1.6c0.1,0.4,0.2,0.8,0.3,1.1c0.5,1.7,1.5,3.2,2.8,4.4c0.5,0.5,1,0.9,1.6,1.3c0.2,0.5,0.5,0.9,0.8,1.3
			s0.6,0.7,0.9,1.1c0.3,0.3,0.7,0.6,1,0.9c1,0.7,1.9,1.3,3,1.8c0.6,0.2,1.2,0.5,1.9,0.6c0.7,0.2,1.5,0.3,2.2,0.3c1,0.1,2,0.1,3,0
			s1.9-0.3,2.9-0.5c0.3,0.1,0.6,0.1,0.9,0.1c0.7,0.1,1.4,0.1,2.1,0.1c0.7,0,1.5-0.2,2.2-0.3c1.4-0.3,2.7-0.9,3.9-1.6
			c1.3-0.7,2.5-1.6,3.6-2.5c0.2,0,0.5-0.2,0.7-0.3c0.6-0.1,1.2-0.3,1.8-0.6c1.3-0.6,2.5-1.6,3.7-2.8c1.1-1.2,2-2.6,2.7-4.2
			c0.1-0.2,0.2-0.5,0.3-0.7c1.1-2.3,1.9-5,2.1-7.8v-0.1c0.1-0.3,0.2-0.6,0.2-1c0.7-2.2,1.2-4.4,1.3-6.7c0-0.4,0-0.9,0-1.3
			c0.2-1.1,0.4-2.2,0.6-3.3C230.7,77.8,230.9,73.3,230.6,68.9z"/>
		<g>
			<path class="st1" d="M232.1,68.9c-0.6-6.1-2.1-15.3-9.7-16c-3.2-0.3-7.7,0.8-9.4,3.8c-3.1,5.6-3.9,12-4.9,18.4
				c-0.5,3.4-0.5,6.9-0.9,10.3c-0.2,1.7,0.2,5.9-1.4,6.4c-1.4,0.4-2-0.6-3.3-1.1c-4.1-1.3-9.7-3.4-14.8-0.1c-5,3.2-7.1,10-4.6,15.4
				c2.2,4.6,7.5,9.8,12.5,11c3.1,0.8,5.9,0,9-0.1c3-0.1,5.2,0,8.1-1.3c7.9-3.6,14.3-8.3,16.3-17.2C231.2,88.9,232.6,78.7,232.1,68.9
				c-0.1-1.9-3.1-1.9-3,0c0.5,8.7-0.9,17.2-2.6,25.7c-0.8,4.2-1.7,8.5-4.7,11.8c-1.8,1.9-6.9,4.6-9.5,6c-3.4,1.8-6.6,1.4-10.1,1.8
				c-5.6,0.7-8.8-0.9-12.5-5.1c-2.8-3.1-5.5-5.3-4.5-10.1c1.3-6.1,7.5-8.7,13-6.6c0.7,0.3,1.3,0.6,2,0.9c0.7,0,1.4,0.1,2.1,0.4
				c0.4,0.4,0.8,0.8,1.3,1.2c1.2,0.4,2.3,0.4,3.5-0.1c1.4-0.6,2.4-1.7,2.7-3.1c0.7-2.8,0.6-6.6,0.8-9.5c0.5-7.1,0.7-16.1,4.5-22.3
				c1.4-2.3,2.1-3.2,4.4-3.7c7.4-1.7,9,7.3,9.5,12.8C229.3,70.8,232.3,70.8,232.1,68.9z"/>
		</g>
	</g>
	<g>
		<path class="st1" d="M229.3,68.5c0.4-0.9,0.8-1.8,1-2.7c0.4-1.4,0.6-2.9,0.6-4.4c0-0.1,0-0.2,0-0.3c0.1-0.4,0.2-0.9,0.3-1.3
			c0-0.2,0-0.3-0.1-0.4s-0.1-0.2-0.3-0.2c0-0.1,0-0.2,0-0.3c0.1-0.6,0.2-1.2,0.3-1.8c0.2-0.5,0.3-1,0.4-1.5c0.2-0.9,0.3-1.9,0.3-2.8
			c0-1-0.1-1.9-0.2-2.9c0-0.1,0-0.1,0-0.1c0.3-2.3,0.2-4.6-0.2-6.9c-0.2-1.2-0.7-2.4-1.2-3.5c-0.6-1.3-1.5-2.6-2.8-3.5
			c-0.3-0.2-0.7-0.5-1.1-0.6c-0.4-0.2-0.8-0.3-1.2-0.5c-0.3-0.1-0.7-0.2-1.1-0.2c-0.6-0.1-1.1-0.1-1.7-0.1h-0.1
			c-0.9,0-1.8,0.1-2.7,0.3h-0.1c-0.1,0-0.1,0-0.2,0c-0.6,0-1.2,0.1-1.7,0.4c0,0-0.1,0-0.1,0.1c-0.5,0.1-0.9,0.3-1.3,0.5
			c-0.1,0.1-0.3,0.1-0.4,0.2c-0.2,0.1-0.4,0.2-0.5,0.4c-0.3,0.3-0.5,0.6-0.6,1c0,0.1,0,0.2,0,0.3c-0.2,0.1-0.3,0.2-0.5,0.4
			c-1,1.1-1.6,2.5-2,3.9c-0.2,0.7-0.3,1.5-0.4,2.3c-0.1,0.6-0.1,1.1-0.1,1.7s0,1.2,0,1.7l0,0c-0.2,1.5-0.4,3-0.4,4.5
			c0,0.2,0,0.4,0,0.6c0.1,0.8,0.2,1.6,0.4,2.4c0,0.3,0,0.5-0.1,0.8c-0.1,0.5-0.3,1.1-0.5,1.6l0,0c0,0.1-0.1,0.1-0.1,0.2v0.1
			c0,0.1,0,0.2,0,0.3c0,0.4-0.1,0.8-0.2,1.1c-0.1,0.3-0.2,0.5-0.3,0.8c-0.2,0.3-0.3,0.6-0.6,0.9c-0.2,0.3-0.5,0.6-0.8,0.8
			c-0.3,0.2-0.6,0.4-1,0.6c-0.6,0.3-1.3,0.6-2,0.7c-0.3,0.1-0.7,0.1-1,0.2c-0.5,0.1-1.1,0.2-1.6,0.2c-1,0-2,0-3-0.2
			c-0.6-0.1-1.1-0.3-1.6-0.5c-0.3-0.1-0.6-0.3-0.9-0.4c-0.2-0.1-0.5-0.2-0.7-0.3c-0.8-0.3-1.6-0.8-2.2-1.3c-0.3-0.3-0.7-0.6-0.9-0.9
			c-0.3-0.5-0.6-1-0.8-1.5c-0.2-0.7-0.4-1.4-0.5-2.1c0-0.1,0-0.1,0-0.2c0.2-0.7,0.3-1.4,0.4-2.1c0,0,0,0,0-0.1
			c0.3-0.8,0.5-1.6,0.6-2.4c0-0.2,0.1-0.4,0.1-0.7c0.4-2.7,0.4-5.3-0.1-8c-0.2-1.2-0.7-2.4-1.2-3.5c-0.6-1.3-1.5-2.6-2.8-3.5
			c-0.3-0.2-0.7-0.5-1.1-0.6c-0.4-0.2-0.8-0.3-1.2-0.5c-0.3-0.1-0.7-0.2-1.1-0.2c-0.5-0.1-1.1-0.1-1.6-0.1h-0.1h-0.1
			c-0.9,0-1.8,0.1-2.7,0.3c0,0,0,0-0.1,0s-0.1,0-0.2,0c-0.6,0-1.2,0.1-1.7,0.4c0,0-0.1,0-0.1,0.1c-0.5,0.1-0.9,0.3-1.3,0.5
			c-0.3,0.1-0.7,0.4-0.9,0.6c-0.3,0.3-0.5,0.6-0.6,1c0,0.1,0,0.2,0,0.3c-0.2,0.1-0.3,0.2-0.5,0.4c-1,1.1-1.6,2.5-2,3.9
			c-0.2,0.7-0.3,1.5-0.4,2.3c-0.1,0.6-0.1,1.1-0.1,1.7s0,1.2,0,1.7l0,0c-0.3,1.7-0.5,3.4-0.4,5.1c0.1,1.3,0.4,2.7,1,3.9
			c0.1,0.6,0.2,1.2,0.3,1.8c0.2,0.8,0.3,1.6,0.6,2.4c0.5,1.6,1.1,3.1,1.9,4.6c0.3,0.7,0.7,1.3,1.1,1.9c0.1,0.2,0.3,0.4,0.5,0.7
			c0.1,0.3,0.2,0.6,0.3,0.9c0.5,1.3,1.2,2.4,2.1,3.5c1.9,2.2,4.4,3.7,7,4.8c0.2,0.1,0.4,0.2,0.6,0.2l0,0c0.3,0.4,0.8,0.7,1.2,1
			c0.5,0.3,1,0.5,1.5,0.7c1.1,0.4,2.4,0.6,3.5,0.6c0.6,0,1.1,0,1.7,0c1.6,0.2,3.2,0.3,4.8,0.3c0.7,0.1,1.5,0.1,2.2,0.2
			c1.8,0.1,3.6,0.1,5.4-0.1c1-0.1,2-0.3,3-0.5c0.3-0.1,0.5-0.2,0.7-0.5"/>
		<g>
			<path class="st1" d="M230.6,69.3c1.3-3.1,2-6.4,2.1-9.7c0-1-0.2-1.1-0.1-2.2c0.3-2.4,0.8-4.3,0.7-6.8c-0.2-6.5-0.2-15.6-8.2-17.5
				c-4.2-1-9.6,0-11.9,3.6c-1.9,3-2.7,5.3-2.8,8.9c-0.2,3.5,0.4,7.9-0.5,11.2c-1.3,5.1-6.3,5.9-11,4.1c-5.4-2.1-3.9-6-3.3-10.2
				c1-6.7-0.6-16.3-8.5-17.8C171.5,30,171.7,48.7,174,59c0.9,4,2.9,7.9,4.9,11.5c2.3,4.1,5.6,5.4,9.5,7.7c3.6,2.2,7.4,2.6,12.1,2.9
				c4.1,0.3,10,1.2,13.7-1.1c1.6-1,0.1-3.6-1.5-2.6c-3.1,1.9-8.6,0.9-12.1,0.7c-4.4-0.3-8.3-1.3-12.2-3.2
				c-6.8-3.3-10-11.3-11.6-18.2c-1.3-5.5-2.6-17.6,4.1-20.4c1.6-0.7,3.9-0.7,5.5-0.4c6.1,1,7,8.2,6.6,13.2
				c-0.4,4.6-2.9,8.8,1.4,12.6c3.7,3.3,10.2,4.1,14.7,1.9c1.5-0.7,2.7-1.8,3.4-3.3c0.8-1.9,0.5-2.1,0.8-3.4
				c1.4-6.1-1.8-13.3,2.9-18.6c1.8-2,3.9-2.5,6.5-2.5c7.8,0.1,7.6,8.4,7.8,13.9c0.1,3.3-0.6,6.2-0.8,9.4c0,0.7,0.1,1.2,0.1,1.8
				c0,2.4-0.6,4.7-1.5,6.8C227.2,69.5,229.8,71.1,230.6,69.3L230.6,69.3z"/>
		</g>
	</g>
</g>
<g>
	<g>
		<path class="st1" d="M365.3,66.3c-0.1-1.1-0.3-2.3-0.5-3.4c-0.3-1.2-0.7-2.4-1.1-3.6c-0.3-1-0.8-2.1-1.3-3c-0.5-1-1.1-2-1.7-2.9
			c-0.3-0.4-0.6-0.8-0.9-1.2c-0.1-0.3-0.2-0.7-0.3-1c-0.3-0.9-0.9-1.7-1.5-2.5c-0.7-0.9-1.6-1.6-2.4-2.3c-0.6-0.4-1.2-0.9-1.8-1.2
			c-1.2-0.7-2.5-1.3-3.8-1.9c-1.8-0.8-3.7-1.3-5.7-1.6c-0.9-0.2-1.8-0.2-2.7-0.2c-0.7,0-1.5,0.1-2.2,0.2c-0.8,0.1-1.6,0.4-2.3,0.6
			c-0.3,0.1-0.5,0.2-0.8,0.3c0.2-2,0.4-4.1,0.4-6.1c0.2-5.8-0.2-11.6-1.2-17.4c-0.1-0.3-0.2-0.5-0.4-0.7v-0.1c0.3-1.2,0.2-2.3,0-3.5
			c-0.2-1.4-0.7-2.8-1.4-4.1C333,9.3,332,8,331,6.7c-0.5-0.6-1-1.2-1.6-1.7c-0.6-0.6-1.3-1.1-2.1-1.6c-1.2-0.8-2.5-1.3-3.9-1.6
			c-1.1-0.2-2.3-0.3-3.5-0.2c-0.6,0.1-1.1,0.1-1.7,0.3c-0.6,0.1-1.1,0.4-1.7,0.6c-0.9,0.4-1.7,1-2.5,1.7s-1.4,1.5-2,2.3
			c-0.5,0.8-1,1.7-1.4,2.6c-0.4,1-0.8,2.1-1.1,3.1c-0.6,2.1-0.9,4.3-1.1,6.5c-0.2,2-0.2,4-0.1,5.9c0,0.6,0.1,1.2,0.2,1.8
			c0,1.9,0,3.9,0.1,5.8c0.2,4.8,0.8,9.6,1.3,14.4c0.1,1,0.2,2,0.3,2.9c0,2.7,0.2,5.4,0.5,8.1c0,0.3,0,0.5-0.1,0.8
			c-0.2,2.9-0.7,5.9-0.5,8.8c0.1,1.4,0.3,2.9,0.7,4.2c0.1,0.3,0.2,0.5,0.3,0.8c0.5,1.1,1.1,2,1.9,2.9c0.5,0.5,1.1,0.9,1.7,1.3
			c0.7,0.4,1.5,0.8,2.2,1.1c1.4,0.6,3,0.9,4.6,0.9c0.1,0,0.2,0,0.4,0c0.5,0,0.9,0,1.4-0.1l0,0c0.4,0.1,0.8,0.1,1.2,0.2h0.1
			c0.4,0,0.7-0.1,1.1-0.1c0.2,0,0.5-0.1,0.7-0.1c0.2-0.1,0.5-0.2,0.7-0.3c0.5-0.2,0.9-0.4,1.4-0.6c0.6-0.3,1.1-0.6,1.6-1
			c0.7-0.5,1.4-1.1,2-1.7c0.3-0.3,0.5-0.6,0.8-0.9s0.5-0.7,0.8-1c0.2-0.3,0.4-0.6,0.5-0.9c0.6-0.9,1.3-1.8,1.9-2.7
			c0.9-1.3,1.7-2.7,2.5-4.1c0.2-0.1,0.5-0.2,0.8-0.3c0.5-0.1,0.9-0.2,1.4-0.3c0.5,0,0.9,0,1.4,0.1c0.4,0.1,0.8,0.2,1.2,0.4
			c0.4,0.2,0.7,0.5,1.1,0.7c0.3,0.3,0.6,0.7,0.9,1c0.2,0.3,0.3,0.6,0.4,0.9c0.1,0.2,0.1,0.4,0.1,0.7c0,0.6-0.1,1.2-0.1,1.8
			c-0.1,0.8-0.3,1.6-0.3,2.5c-0.1,1.8,1,3.4,2.7,4c0.1,0,0.1,0,0.2,0.1c0.3,0.8,0.8,1.5,1.4,2c0.9,0.8,1.9,1.5,3,1.8
			c0.6,0.1,1.3,0.3,1.9,0.3c0.8,0,1.6-0.1,2.4-0.3c0.8-0.2,1.5-0.4,2.2-0.7c0.4-0.2,0.8-0.4,1.1-0.6c0.6-0.4,1.1-0.7,1.5-1.1
			c0.5-0.5,1-1,1.4-1.6c0.4-0.5,0.7-1.1,0.9-1.7c0.2-0.4,0.3-0.8,0.5-1.2c0.4-1.2,0.6-2.4,0.7-3.6C365.5,68.7,365.4,67.5,365.3,66.3
			z"/>
		<g>
			<path class="st1" d="M366.8,66.3c-0.9-7.6-4.6-17-11-21.6c-5.6-4-13.5-6.3-20-3.6c0.6,0.5,1.3,1,1.9,1.4c0.8-8.3-0.3-18.4-1-25.1
				c-0.7-6.6-3.6-13.2-10.1-16.2c-7-3.2-14,0.4-17,7.1c-3.7,8.2-2.7,18-2.1,26.7c0.7,9.7,2,19.1,1.4,28.8c-0.4,6.4,1,12.6,7.5,15.2
				c4.7,1.9,10.5,1.8,14.6-1.3c2.7-2,4.5-4.8,6.4-7.6c0.5-0.8,1.1-2.1,1.7-2.7c0.1-0.2,0.2-0.3,0.3-0.5c1.2-2.3,2.8-0.9,4.7,4.1
				c0.2,1.2-0.3,2.4,0.2,3.7c0.5,1.5,1.5,1.9,2.5,2.9c0.8,0.8,1.2,1.6,2.3,2.5c2,1.8,4.6,2.3,7.2,1.9
				C364.4,81.2,367.2,73.7,366.8,66.3c-0.1-1.9-3.1-1.9-3,0c0.3,5.1-0.6,10.7-6.1,12.5c-3.9,1.3-6.7-0.4-9-3.5
				c-2.5-3.3-1-3.6-1.3-6.9c-0.1-0.9-0.3-1.6-0.8-2.3c-1-1.6-2.7-2.6-4.5-2.9c-2.8-0.4-4.3,0.5-5.6,2.6c-2.2,3.6-4.7,8.4-8.7,10.3
				c-2.5,1.2-6.1,1.2-8.8,0.5c-5.1-1.3-7.1-5.2-7.2-10.2c-0.1-4,0.6-7.9,0.3-12c-0.3-4.4-0.7-8.8-1.1-13.2c-0.9-8.9-2.2-19.1,0-27.9
				c1.6-6.2,6.1-12.4,13.5-9.8c5,1.8,9.1,7.7,9.3,12.9c0.3,8.7,1.8,17.1,0.9,26c-0.1,0.9,1,1.8,1.9,1.4c5.5-2.3,12-0.5,16.8,2.7
				c2.9,1.9,4.3,4.5,6,7.4c2.3,3.9,3.8,7.7,4.4,12.2C364,68.2,367,68.2,366.8,66.3z"/>
		</g>
	</g>
	<g>
		<path class="st1" d="M338.4,41.9c0,0-4,1-6,3"/>
		<g>
			<path class="st1" d="M338,40.5c-2.4,0.6-4.9,1.7-6.7,3.4c-1.4,1.3,0.7,3.5,2.1,2.1s3.5-2.1,5.3-2.6C340.6,42.9,339.8,40,338,40.5
				L338,40.5z"/>
		</g>
	</g>
</g>
<g>
	<g>
		<path class="st2" d="M157.6,67.9c0-0.6-0.1-1.2-0.2-1.8c0-1.9,0-3.9-0.1-5.8c-0.2-4.8-0.8-9.6-1.3-14.4c-0.1-1-0.2-2-0.3-2.9
			c0-2.7-0.2-5.4-0.5-8.1c0-0.3,0-0.5,0.1-0.8c0.2-2.9,0.7-5.9,0.5-8.8c-0.1-1.4-0.3-2.9-0.7-4.2c-0.5-1.4-1.2-2.6-2.2-3.7
			c-0.5-0.5-1.1-0.9-1.7-1.3c-0.7-0.4-1.5-0.8-2.2-1.1c-1.4-0.6-3-0.9-4.6-0.9c-0.1,0-0.2,0-0.4,0c-0.5,0-0.9,0-1.4,0.1l0,0
			c-0.4-0.1-0.8-0.1-1.2-0.2h-0.1c-0.4,0-0.7,0.1-1.1,0.1c-0.2,0-0.5,0.1-0.7,0.1c-0.2,0.1-0.5,0.2-0.7,0.3
			c-0.5,0.2-0.9,0.4-1.4,0.6c-0.6,0.3-1.1,0.6-1.6,1c-0.7,0.5-1.4,1.1-2,1.7s-1.1,1.2-1.5,1.9c-0.5,0.7-0.8,1.3-1.1,2.1
			c-0.2,0.5-0.3,1-0.4,1.6c-0.1,0.8-0.2,1.6-0.3,2.4c-0.1,1.4-0.1,2.9,0,4.4c0.1,1.2,0.3,2.4,0.4,3.7c-0.2,1.8-0.3,3.5-0.4,5.3
			c-0.1,1-0.1,2-0.1,3c-0.1,1.5-0.1,2.9-0.2,4.4c0,0.2-0.1,0.5-0.1,0.7c-0.5,3-0.7,6-0.8,9c-0.2,5.8,0.2,11.6,1.2,17.4
			c0.1,0.3,0.2,0.5,0.4,0.7v0.1c-0.3,1.2-0.2,2.3,0,3.5c0.2,1.4,0.7,2.8,1.4,4.1c0.7,1.4,1.7,2.7,2.7,4c0.5,0.6,1,1.2,1.6,1.7
			c0.6,0.6,1.3,1.1,2.1,1.6c1.2,0.8,2.5,1.3,3.9,1.6c1.1,0.2,2.3,0.3,3.5,0.2c0.6-0.1,1.1-0.1,1.7-0.3c0.6-0.1,1.1-0.4,1.7-0.6
			c0.9-0.4,1.7-1,2.5-1.7s1.4-1.5,2-2.3c0.5-0.8,1-1.7,1.4-2.6c0.4-1,0.8-2.1,1.1-3.1c0.6-2.1,0.9-4.3,1.1-6.5
			C157.7,71.9,157.7,69.9,157.6,67.9z"/>
		<g>
			<path class="st1" d="M159.1,67.9c-0.5-4.3-0.3-8.7-0.7-13c-0.4-4.2-1-8.5-1.3-12.7c-0.2-3.6-0.5-7.1-0.2-10.7s0.7-7.4-0.5-10.8
				c-3-8.7-15.4-10.6-22.1-5.2c-4.6,3.8-5.7,8.9-5.3,14.7c0.5,7.8-0.5,15.5-1,23.3c-0.4,6.8,0.8,15.6,1.4,20.9
				c0.3,3.1,0.1,5.5,1.6,8.4c1.3,2.6,3.3,5,5.5,6.8c5,4,12.3,4.1,16.9-0.6C158.6,83.7,159.4,74.9,159.1,67.9c-0.1-1.9-3.1-1.9-3,0
				c0.4,7.6-0.9,21.2-11,21.3c-8.3,0.1-12.5-8-12.7-15.3c-0.1-3.9-1.4-8-1.5-12c-0.1-3.7,0-7.5,0.3-11.2c0.6-5.7,1.3-11.6,1.2-17.4
				c-0.1-7.2-0.9-16.8,9-17.9c6.7-0.8,12.4,2.8,12.8,9.8c0.2,3.2-0.6,6.4-0.6,9.6c0,3.1,0.4,6.5,0.6,9.6c0.7,7.8,0.9,15.8,1.8,23.5
				C156.3,69.8,159.3,69.9,159.1,67.9z"/>
		</g>
	</g>
</g>
<g>
	<g>
		<path class="st2" d="M295.6,73.8c-0.3-2.2-0.9-4.2-1.5-6.2c-0.8-2.3-1.8-4.6-3.3-6.1c-0.4-0.4-0.8-0.8-1.2-1.1
			c-0.4-0.3-0.9-0.5-1.3-0.8c-0.4-0.2-0.8-0.3-1.2-0.4c-0.6-0.1-1.2-0.2-1.8-0.2h-0.1c-1,0-2,0.3-2.9,0.6h-0.1c-0.1,0-0.1,0-0.2,0
			c-0.7,0-1.3,0.3-1.8,0.8l-0.1,0.1c-0.5,0.3-1,0.6-1.4,0.9s-0.7,0.7-0.9,1.1c-0.3,0.5-0.5,1.1-0.5,1.8c0,0.2,0,0.3,0,0.5
			c-0.2,0.2-0.4,0.4-0.5,0.7c-1,2.1-1.5,4.5-1.9,6.9c-0.1,1-0.2,2-0.2,3.1c0,0.3,0,0.6,0,0.9c0,0.7,0,1.5,0,2.2
			c-0.1,0.5-0.2,1-0.2,1.5c-0.2,1.3-0.2,2.7-0.3,4c0,1,0,2,0.1,3c0,1,0,2.1,0.1,3.1l0,0c-0.1,1.7-0.2,3.4-0.2,5.2
			c0,1.3,0,2.6,0.1,3.9c0,0.1,0,0.2,0,0.3c-0.1,0.2-0.2,0.3-0.2,0.5c-0.2,0.3-0.5,0.6-0.7,0.9c-0.3,0.3-0.6,0.5-1,0.7
			c-0.2,0.1-0.5,0.2-0.8,0.3c-0.3,0-0.5,0.1-0.8,0.1c-0.2,0-0.3,0-0.5-0.1c-0.2-0.2-0.3-0.4-0.5-0.6c-0.5-0.5-1.2-0.7-1.9-0.9
			c-0.1,0-0.2-0.1-0.4-0.1c-0.6-0.1-1.1-0.1-1.7,0l0,0c-0.1-0.1-0.3-0.2-0.4-0.2c-0.7-0.4-1.5-0.6-2.3-0.9c-0.9-0.2-1.8-0.3-2.7-0.3
			c-0.6,0-1.3,0.1-1.9,0.2c-0.9,0.2-1.8,0.4-2.7,0.8c-1.7,0.8-3.2,1.9-4.3,3.4c-1.3,1.6-2,3.6-2.3,5.6c-0.1,0.6-0.1,1.2-0.1,1.8
			c0,0.4,0,0.7,0.1,1.1c0.1,0.6,0.2,1.1,0.4,1.7c0.1,0.4,0.2,0.8,0.4,1.2c0.7,1.7,1.9,3.2,3.3,4.4c0.6,0.5,1.2,0.9,1.8,1.2
			c0.3,0.5,0.6,0.9,0.9,1.3c0.3,0.4,0.7,0.7,1,1c0.4,0.3,0.8,0.6,1.2,0.8c1.1,0.7,2.2,1.2,3.4,1.6c0.7,0.2,1.3,0.4,2,0.5
			c0.8,0.1,1.6,0.1,2.4,0.2c1.1,0,2.1-0.1,3.2-0.3c1-0.2,2-0.5,3-0.8c0.3,0,0.6,0.1,0.9,0.1c0.7,0,1.4,0,2.2-0.1
			c0.8-0.1,1.5-0.3,2.3-0.6c1.4-0.5,2.8-1.2,4-2c1.3-0.8,2.5-1.9,3.6-2.9c0.3,0,0.5-0.2,0.7-0.4c0.6-0.2,1.2-0.4,1.8-0.8
			c1.4-0.8,2.5-1.9,3.6-3.3c1-1.3,1.9-3,2.5-4.7c0.1-0.3,0.2-0.5,0.3-0.8c1-2.5,1.5-5.4,1.5-8.4v-0.1c0.1-0.3,0.1-0.7,0.2-1
			c0.5-2.4,0.8-4.8,0.7-7.2c0-0.5-0.1-0.9-0.1-1.4c0.1-1.2,0.2-2.4,0.3-3.6C296.5,83.2,296.3,78.5,295.6,73.8z"/>
		<g>
			<path class="st1" d="M297,73.4c-1-5.7-3.2-14.4-10-15.6c-4.6-0.8-9.6,1.4-11.3,5.8c-2.5,6.4-3,13.2-3.2,20.1c-0.1,4,0,8,0,12
				c0,2.2,0.8,4.9-2.1,4.7c-0.8-0.1-2.1-1-3-1.2c-1.8-0.3-4.3-1.4-7.1-1.4c-3.3,0-6.7,1.5-9.1,3.8c-4.5,4.6-5.1,11.9-1.1,17
				c3.5,4.5,8.7,8.7,14.5,9.1c6.4,0.5,13.9-1.3,19.1-5c3.4-2.5,7.1-4.2,9.4-7.9c1.9-2.9,3-6.7,3.5-10.1
				C297.8,94.5,298.5,83.8,297,73.4c-0.3-1.9-3.2-1.1-2.9,0.8c1.3,8.9,0.8,18.2-0.4,27.1c-0.6,4.2-0.9,8.4-3.3,12.1
				c-1.6,2.4-3.5,3.1-5.6,4.6c-1.5,1.1-2.8,2.4-4.3,3.4c-3.3,2.2-6.8,2.3-10.5,2.9c-4,0.6-7.8,1-11.3-1.5c-0.7-0.5-2.9-2.8-4-3.8
				c-2.5-2-4.2-4.4-4.3-7.7c-0.2-7.2,6.6-11.7,13.1-9.8c0.7,0.2,1.4,0.5,2.1,0.8c0.5-0.1,1.1,0,1.7,0.1c0.7,0.3,1.4,0.8,2.1,1.3
				c1.7,0.5,3.2,0.1,4.6-1c1.1-1,1.4-1.7,1.7-2.9c0.5-2-0.1-5.2-0.1-7.4c0-1.6,0-3.2,0-4.8c-0.2-6.9-0.4-15.9,2.9-22
				c1.6-3,3.3-4.7,6.8-4.7c6.5,0,8,8.8,8.9,13.5C294.5,76.1,297.4,75.3,297,73.4z"/>
		</g>
	</g>
	<g>
		<path class="st2" d="M294.7,74.5c0.4-1.3,0.8-2.6,1-3.9c0.4-2.5,0.3-5.1-0.2-7.5c-0.1-0.7-0.3-1.3-0.5-2c0-0.6-0.1-1.2-0.2-1.8
			c-0.3-1.9-0.9-3.6-1.7-5.3c-0.5-0.9-1-1.8-1.6-2.6c-0.7-0.9-1.4-1.7-2.2-2.5c-1.5-1.5-3.2-2.7-5-3.8c-1.8-1-3.7-1.8-5.8-2.2
			c-0.9-0.2-1.8-0.3-2.7-0.3c-1.2-0.1-2.4-0.1-3.6,0c-0.1,0-0.1,0-0.2,0c-2.1,0.2-4.2,0.6-6.2,1.2c-3.5,0.8-6.9,2.4-9.6,4.8
			c-0.5,0.4-1,0.9-1.4,1.3c-0.2,0.2-0.4,0.3-0.5,0.5c-0.6,0.6-1.2,1.3-1.7,2.1c-0.6,0.9-1.2,1.8-1.6,2.8c-0.9,1.6-1.5,3.4-2,5.2
			c-0.7,2.3-0.9,4.7-0.9,7.1c0,2.3,0.4,4.5,1,6.7c0.6,2.1,1.6,4.1,2.8,6c0.5,0.8,1.1,1.6,1.7,2.3c0.8,0.9,1.6,1.8,2.6,2.6
			c0.9,0.8,1.8,1.4,2.8,2c0.9,0.6,1.8,1.1,2.8,1.5c1.1,0.5,2.2,0.8,3.3,1.2c1,0.3,2.1,0.5,3.2,0.7c3.3,0.4,6.7,0.1,9.9-0.9"/>
		<g>
			<path class="st1" d="M296.2,74.9c3.3-10.4,0-23.5-9.2-29.8c-8.9-6.1-22.1-5-30.6,1.5c-8.9,6.8-12.3,19.7-8.2,30.1
				c4.9,12.2,17.9,17.7,30.2,14.5c1.9-0.5,1.1-3.4-0.8-2.9c-11.4,3-23.6-2.6-27.2-14.3c-2.9-9.4,0.7-20.6,9.1-25.9
				c7.3-4.7,17.9-5.6,25.3-0.8c8.4,5.5,11.4,17.6,8.5,26.9C292.7,76,295.6,76.8,296.2,74.9L296.2,74.9z"/>
		</g>
	</g>
	<g>
		<path class="st1" d="M270.6,72.9c0.3-0.1,0.5-0.2,0.8-0.3c0.3,0,0.6-0.1,0.9-0.2h0.1c0.1,0,0.3,0,0.4,0c0.3,0,0.6,0,1-0.1
			c0.1,0,0.2,0,0.3-0.1l0,0c0.2,0,0.4,0,0.6-0.1c0.2,0,0.3-0.2,0.5-0.3c0.1-0.1,0.2-0.2,0.3-0.2l0.1-0.1c0.1,0,0.2,0,0.3-0.1
			c0.2,0,0.3-0.1,0.5-0.2s0.3-0.3,0.5-0.5c0.1-0.1,0.2-0.3,0.3-0.4c0.1-0.2,0.3-0.5,0.4-0.8s0.2-0.6,0.3-0.9
			c0.1-0.3,0.1-0.6,0.2-0.9c0-0.3,0.1-0.7,0-1c0-0.3-0.1-0.7-0.1-1c-0.1-0.3-0.2-0.6-0.3-0.9c-0.1-0.3-0.3-0.6-0.5-0.9
			c-0.1-0.2-0.2-0.3-0.4-0.5c-0.1-0.2-0.2-0.3-0.3-0.4c-0.1-0.1-0.2-0.2-0.3-0.3c-0.2-0.4-0.4-0.7-0.6-1c-0.3-0.5-0.8-0.8-1.2-1.1
			c-0.1-0.1-0.3-0.1-0.5-0.2c-0.1,0-0.3-0.1-0.4-0.1s-0.3,0-0.4,0.1c-0.1,0-0.3,0.1-0.4,0.1c-0.2-0.3-0.4-0.6-0.7-0.8
			c-0.7-0.5-1.5-0.5-2.1,0.1c-0.1,0.1-0.2,0.2-0.3,0.4c-0.1,0.2-0.2,0.4-0.3,0.6l0,0c-0.1,0-0.2,0.1-0.3,0.2c-0.1,0-0.1,0-0.2,0
			c-0.2,0-0.3,0-0.5,0.1c-0.1,0.1-0.3,0.2-0.4,0.2c-0.2,0.1-0.4,0.3-0.6,0.6l0,0l0,0c-0.2,0.1-0.4,0.2-0.6,0.4
			c-0.1,0.1-0.3,0.3-0.4,0.5s-0.2,0.4-0.4,0.6c-0.2,0.3-0.3,0.7-0.3,1c0,0.1,0,0.3-0.1,0.4l0,0v0.1l0,0c-0.1,0.2-0.1,0.4-0.1,0.6
			c0,0.4-0.1,0.7,0,1.1l0,0l0,0c0,0.6,0.1,1.1,0.2,1.7c0.1,0.5,0.3,1.1,0.5,1.5c0.1,0.3,0.3,0.6,0.5,0.9c0.1,0.2,0.2,0.4,0.4,0.5
			c0.2,0.2,0.4,0.4,0.6,0.6s0.5,0.4,0.8,0.5c0.4,0.2,0.8,0.3,1.2,0.4c0.2,0,0.3,0,0.5,0C270,73.1,270.3,73,270.6,72.9L270.6,72.9
			L270.6,72.9z"/>
		<g>
			<path class="st1" d="M271,74.4c0.8-0.3,2.7-0.7,3.1-0.7c1-0.2,1.5-0.5,2.4-1c-0.8,0.4,0.4,0,0.6-0.2c0.4-0.2,0.7-0.5,0.9-0.9
				c0.8-1,1.3-2.4,1.5-3.7c0.4-3.4-2.9-10.1-7.2-8.7c0.6,0.2,1.1,0.5,1.7,0.7c-0.8-1.2-1.9-2.1-3.4-1.8c-0.5,0.1-3.3,1.6-2.8,2.5
				c1.1-0.8,1.3-1.1,0.5-0.9c-0.3,0-0.6,0.1-0.8,0.2c-0.5,0.2-0.9,0.6-1.3,1c-0.9,0.8-1.6,1.5-2,2.7c-0.4,1.2-0.4,1.3-0.4,2.7
				c0,1.1,0.1,2.4,0.4,3.4C265.1,73,267.7,74.9,271,74.4c1.9-0.3,1.1-3.2-0.8-2.9c-3.1,0.5-4-4.2-3.3-6.4c0.3-1,1.1-1.9,2-2.4
				c0.3-0.2,0.8-0.1,1.1-0.4c0.2-0.2,1-1.5,1.4-0.9c0.4,0.5,1,0.9,1.7,0.7c1.1-0.4,1.9,1.3,2.4,2.2c1.1,1.6,1.5,4-0.1,5.5
				c-1.4,1.3-3.6,1-5.3,1.7C268.4,72.2,269.2,75.1,271,74.4z"/>
		</g>
	</g>
</g>
<g>
	<g>
		<path class="st2" d="M119.3,77.3c-0.1-1.1-0.3-2.3-0.5-3.4c-0.3-1.2-0.7-2.4-1.1-3.6c-0.3-1-0.8-2.1-1.3-3c-0.5-1-1.1-2-1.7-2.9
			c-0.3-0.4-0.6-0.8-0.9-1.2c-0.1-0.3-0.2-0.7-0.3-1c-0.3-0.9-0.9-1.7-1.5-2.5c-0.7-0.9-1.6-1.6-2.4-2.3c-0.6-0.4-1.2-0.9-1.8-1.2
			c-1.2-0.7-2.5-1.3-3.8-1.9c-1.8-0.8-3.7-1.3-5.7-1.6c-0.9-0.2-1.8-0.2-2.7-0.2c-0.7,0-1.5,0.1-2.2,0.2c-0.8,0.1-1.6,0.4-2.3,0.6
			c-0.3,0.1-0.5,0.2-0.8,0.3c0.2-2,0.4-4.1,0.4-6.1c0.2-5.8-0.2-11.6-1.2-17.4c-0.1-0.3-0.2-0.5-0.4-0.7v-0.1c0.3-1.2,0.2-2.3,0-3.5
			c-0.2-1.4-0.7-2.8-1.4-4.1C87,20.3,86,19,85,17.7c-0.5-0.6-1-1.2-1.6-1.7c-0.6-0.6-1.3-1.1-2.1-1.6c-1.2-0.8-2.5-1.3-3.9-1.6
			c-1.1-0.2-2.3-0.3-3.5-0.2c-0.6,0.1-1.1,0.1-1.7,0.3c-0.6,0.1-1.1,0.4-1.7,0.6c-0.9,0.4-1.7,1-2.5,1.7s-1.4,1.5-2,2.3
			c-0.5,0.8-1,1.7-1.4,2.6c-0.4,1-0.8,2.1-1.1,3.1c-0.6,2.1-0.9,4.3-1.1,6.5c-0.2,2-0.2,4-0.1,5.9c0,0.6,0.1,1.2,0.2,1.8
			c0,1.9,0,3.9,0.1,5.8c0.2,4.8,0.8,9.6,1.3,14.4c0.1,1,0.2,2,0.3,2.9c0,2.7,0.2,5.4,0.5,8.1c0,0.3,0,0.5-0.1,0.8
			c-0.2,2.9-0.7,5.9-0.5,8.8c0.1,1.4,0.3,2.9,0.7,4.2c0.1,0.3,0.2,0.5,0.3,0.8c0.5,1.1,1.1,2,1.9,2.9c0.5,0.5,1.1,0.9,1.7,1.3
			c0.7,0.4,1.5,0.8,2.2,1.1c1.4,0.6,3,0.9,4.6,0.9c0.1,0,0.2,0,0.4,0c0.5,0,0.9,0,1.4-0.1l0,0c0.4,0.1,0.8,0.1,1.2,0.2h0.1
			c0.4,0,0.7-0.1,1.1-0.1c0.2,0,0.5-0.1,0.7-0.1c0.2-0.1,0.5-0.2,0.7-0.3c0.5-0.2,0.9-0.4,1.4-0.6c0.6-0.3,1.1-0.6,1.6-1
			c0.7-0.5,1.4-1.1,2-1.7c0.3-0.3,0.5-0.6,0.8-0.9s0.5-0.7,0.8-1c0.2-0.3,0.4-0.6,0.5-0.9c0.6-0.9,1.3-1.8,1.9-2.7
			c0.9-1.3,1.7-2.7,2.5-4.1c0.2-0.1,0.5-0.2,0.8-0.3c0.5-0.1,0.9-0.2,1.4-0.3c0.5,0,0.9,0,1.4,0.1c0.4,0.1,0.8,0.2,1.2,0.4
			c0.4,0.2,0.7,0.5,1.1,0.7c0.3,0.3,0.6,0.7,0.9,1c0.2,0.3,0.3,0.6,0.4,0.9c0.1,0.2,0.1,0.4,0.1,0.7c0,0.6-0.1,1.2-0.1,1.8
			c-0.1,0.8-0.3,1.6-0.3,2.5c-0.1,1.8,1,3.4,2.7,4c0.1,0,0.1,0,0.2,0.1c0.3,0.8,0.8,1.5,1.4,2c0.9,0.8,1.9,1.5,3,1.8
			c0.6,0.1,1.3,0.3,1.9,0.3c0.8,0,1.6-0.1,2.4-0.3c0.8-0.2,1.5-0.4,2.2-0.7c0.4-0.2,0.8-0.4,1.1-0.6c0.6-0.4,1.1-0.7,1.5-1.1
			c0.5-0.5,1-1,1.4-1.6c0.4-0.5,0.7-1.1,0.9-1.7c0.2-0.4,0.3-0.8,0.5-1.2c0.4-1.2,0.6-2.4,0.7-3.6C119.5,79.7,119.4,78.5,119.3,77.3
			z"/>
		<g>
			<path class="st1" d="M120.8,77.3c-0.9-7.6-4.6-17-11-21.6c-5.6-4-13.5-6.3-20-3.6c0.6,0.5,1.3,1,1.9,1.4c0.8-8.3-0.3-18.4-1-25.1
				c-0.7-6.6-3.6-13.2-10.1-16.2c-7-3.2-14,0.4-17,7.1c-3.7,8.2-2.7,18-2.1,26.7c0.7,9.7,2,19.1,1.4,28.8c-0.4,6.4,1,12.6,7.5,15.2
				c4.7,1.9,10.5,1.8,14.6-1.3c2.7-2,4.5-4.8,6.4-7.6c0.5-0.8,1.1-2.1,1.7-2.7c0.1-0.2,0.2-0.3,0.3-0.5c1.2-2.3,2.8-0.9,4.7,4.1
				c0.2,1.2-0.3,2.4,0.2,3.7c0.5,1.5,1.5,1.9,2.5,2.9c0.8,0.8,1.2,1.6,2.3,2.5c2,1.8,4.6,2.3,7.2,1.9
				C118.4,92.2,121.2,84.7,120.8,77.3c-0.1-1.9-3.1-1.9-3,0c0.3,5.1-0.6,10.7-6.1,12.5c-3.9,1.3-6.7-0.4-9-3.5
				c-2.5-3.3-1-3.6-1.3-6.9c-0.1-0.9-0.3-1.6-0.8-2.3c-1-1.6-2.7-2.6-4.5-2.9c-2.8-0.4-4.3,0.5-5.6,2.6c-2.2,3.6-4.7,8.4-8.7,10.3
				c-2.5,1.2-6.1,1.2-8.8,0.5c-5.1-1.3-7.1-5.2-7.2-10.2c-0.1-4,0.6-7.9,0.3-12c-0.3-4.4-0.7-8.8-1.1-13.2c-0.9-8.9-2.2-19.1,0-27.9
				c1.6-6.2,6.1-12.4,13.5-9.8c5,1.8,9.1,7.7,9.3,12.9c0.3,8.7,1.8,17.1,0.9,26c-0.1,0.9,1,1.8,1.9,1.4c5.5-2.3,12-0.5,16.8,2.7
				c2.9,1.9,4.3,4.5,6,7.4c2.3,3.9,3.8,7.7,4.4,12.2C118,79.2,121,79.2,120.8,77.3z"/>
		</g>
	</g>
	<g>
		<g>
			<g>
				<path class="st1" d="M88.9,84.7c0.2-0.3,0.4-0.6,0.5-0.9c0.4-0.7,0.2-1.6-0.5-2.1c-0.8-0.4-1.6-0.1-2.1,0.5
					c-0.4,0.6-0.9,1.3-1.3,1.9s-0.2,1.5,0.4,1.9c0.5,0.4,1.5,0.5,2-0.1C88.2,85.6,88.5,85.2,88.9,84.7c0.5-0.7,0.1-1.7-0.5-2.1
					c-0.8-0.4-1.6-0.1-2.1,0.5c-0.2,0.3-0.3,0.5-0.5,0.7c0.8,0.6,1.6,1.2,2.4,1.8c0.4-0.6,0.9-1.3,1.3-1.9c-0.9-0.5-1.7-1-2.6-1.5
					c-0.2,0.3-0.3,0.6-0.5,0.9c-0.5,0.7-0.1,1.7,0.5,2.1C87.6,85.7,88.4,85.4,88.9,84.7z"/>
			</g>
		</g>
		<g>
			<g>
				<path class="st1" d="M91.1,59.4c0.2-6.6,1.3-13,0.9-19.6c-0.2-3.4-0.6-6.7-1.1-10c-0.1-0.7,0,0.5-0.2-1.2
					c-0.1-1.5,0-2.9-0.4-4.5c-2.6-9.4-14.6-17.6-23.1-9.8c-4,3.7-5.4,9.6-6,14.8c-0.8,7.3,0,15.2,0.7,22.5
					c0.7,6.9,1.8,13.9,1.2,20.8c-0.4,5-0.9,10.7,2.7,14.7c3.1,3.6,8.3,4.4,12.8,4.3c4.8-0.2,8.3-3.7,10.9-7.4
					c1.1-1.6-1.5-3.1-2.6-1.5c-2.9,4.1-6.3,6.1-11.2,5.8c-9-0.5-10.2-7.6-9.6-15.1c1-12-1.3-24.5-1.9-36.5c-0.3-6-0.2-13.1,3.4-18.3
					c6.3-9,17.6-1.8,19.9,6.5c0.5,1.7,0.3,3.6,0.4,5.4c0.3,4.5,1.3,8.9,1.4,13.4c0.1,5.3-0.8,10.5-1,15.8
					C88.1,61.3,91.1,61.3,91.1,59.4L91.1,59.4z"/>
			</g>
		</g>
	</g>
</g>
<g>
	<g>
		<path class="st2" d="M1.6,75c0,0.6,0.1,1.2,0.2,1.8c0,1.9,0,3.9,0.1,5.8c0.2,4.8,0.8,9.6,1.3,14.4c0.1,1,0.2,2,0.3,2.9
			c0,2.7,0.2,5.4,0.5,8.1c0,0.3,0,0.5-0.1,0.8c-0.2,2.9-0.7,5.9-0.5,8.8c0.1,1.4,0.3,2.9,0.7,4.2c0.5,1.4,1.2,2.6,2.2,3.7
			c0.5,0.5,1.1,0.9,1.7,1.3c0.7,0.4,1.5,0.8,2.2,1.1c1.4,0.6,3,0.9,4.6,0.9c0.1,0,0.2,0,0.4,0c0.5,0,0.9,0,1.4-0.1l0,0
			c0.4,0.1,0.8,0.1,1.2,0.2h0.1c0.4,0,0.7-0.1,1.1-0.1c0.2,0,0.5-0.1,0.7-0.1c0.2-0.1,0.5-0.2,0.7-0.3c0.5-0.2,0.9-0.4,1.4-0.6
			c0.6-0.3,1.1-0.6,1.6-1c0.7-0.5,1.4-1.1,2-1.7s1.1-1.2,1.5-1.9c0.5-0.7,0.8-1.3,1.1-2.1c0.2-0.5,0.3-1,0.4-1.6
			c0.1-0.8,0.2-1.6,0.3-2.4c0.1-1.4,0.1-2.9,0-4.4c-0.1-1.2-0.3-2.4-0.4-3.7c0.2-1.8,0.3-3.5,0.4-5.3c0.1-1,0.1-2,0.1-3
			c0.1-1.5,0.1-2.9,0.2-4.4c0-0.2,0.1-0.5,0.1-0.7c0.5-3,0.7-6,0.8-9c0.2-5.8-0.2-11.6-1.2-17.4c-0.1-0.3-0.2-0.5-0.4-0.7v-0.1
			c0.3-1.2,0.2-2.3,0-3.5c-0.2-1.4-0.7-2.8-1.4-4.1c-0.7-1.4-1.7-2.7-2.7-4c-0.5-0.6-1-1.2-1.6-1.7c-0.6-0.6-1.3-1.1-2.1-1.6
			c-1.2-0.8-2.5-1.3-3.9-1.6c-1.1-0.2-2.3-0.3-3.5-0.2c-0.6,0.1-1.1,0.1-1.7,0.3c-0.6,0.1-1.1,0.4-1.7,0.6c-0.9,0.4-1.7,1-2.5,1.7
			s-1.4,1.5-2,2.3c-0.5,0.8-1,1.7-1.4,2.6c-0.4,1-0.8,2.1-1.1,3.1c-0.6,2.1-0.9,4.3-1.1,6.5C1.5,71,1.4,73,1.6,75z"/>
		<g>
			<path class="st1" d="M0.1,75c0.5,4.3,0.3,8.7,0.7,13c0.4,4.2,1,8.5,1.3,12.7c0.2,3.6,0.5,7.1,0.2,10.7s-0.7,7.4,0.5,10.8
				c3,8.7,15.4,10.6,22.1,5.2c4.6-3.8,5.7-8.9,5.3-14.7c-0.5-7.8,0.5-15.5,1-23.3c0.4-6.8-0.8-15.6-1.4-20.9
				c-0.3-3.1-0.1-5.5-1.6-8.4c-1.3-2.6-3.3-5-5.5-6.8c-5-4-12.3-4.1-16.9,0.6C0.5,59.2-0.3,68,0.1,75c0.1,1.9,3.1,1.9,3,0
				c-0.4-7.6,0.9-21.2,11-21.3c8.3-0.1,12.5,8,12.7,15.3c0.1,3.9,1.4,8,1.5,12c0.1,3.7,0,7.5-0.3,11.2c-0.6,5.7-1.3,11.6-1.2,17.4
				c0.1,7.2,0.9,16.8-9,17.9c-6.7,0.8-12.4-2.8-12.8-9.8c-0.2-3.2,0.6-6.4,0.6-9.6c0-3.1-0.4-6.5-0.6-9.6C4.3,90.7,4.1,82.7,3.2,75
				C2.8,73.1-0.2,73,0.1,75z"/>
		</g>
	</g>
	<g>
		<path class="st2" d="M25.6,91.2c0.7,0,1.3,0.1,2,0.1c0.5,0,1,0,1.6,0c0.8,0.1,1.6,0.1,2.4,0c1.3-0.1,2.5-0.3,3.7-0.5
			c2.2-0.4,4.2-1.2,6.2-2.2c1.1-0.5,2.1-1.1,3-1.9c0.7-0.4,1.3-0.8,1.9-1.3c1.3-0.9,2.5-2,3.5-3.2c0.5-0.6,1-1.3,1.4-2.1
			c0.4-0.7,0.7-1.5,0.9-2.2c0.3-0.8,0.3-1.5,0.4-2.3c0-0.6,0-1.2-0.1-1.9c-0.1-0.8-0.3-1.6-0.6-2.4c-0.1-0.3-0.3-0.6-0.4-0.9
			c0-0.2,0-0.4,0-0.6c0.1-1.2-0.1-2.4-0.3-3.6c-0.2-1.3-0.8-2.5-1.3-3.6c-0.4-0.9-1-1.8-1.6-2.6c-0.8-1-1.7-2-2.6-2.8
			c-0.9-0.8-1.9-1.6-3-2.2c-0.5-0.3-1-0.6-1.5-0.8c-0.6-0.3-1.1-0.5-1.7-0.8c-1.2-0.5-2.4-0.9-3.6-1.2c-1.3-0.3-2.6-0.5-4-0.6
			c-2.3-0.2-4.8,0.1-7,0.9c-1.2,0.4-2.3,0.9-3.3,1.6c-1.1,0.6-2.1,1.5-3,2.3c-0.4,0.3-0.8,0.7-1.1,1.1"/>
		<g>
			<path class="st1" d="M25.6,92.7c8.7,0.4,16.4-1.4,23.1-7.2c2.5-2.2,4.7-5,5.3-8.4c0.6-3.2-0.7-6.2-1-9.3c-0.8-7.7-7-13.7-14-16.3
				c-8.2-3-16.5-1.3-22.6,4.8c-1.4,1.4,0.8,3.5,2.1,2.1c5.6-5.6,13.1-6.8,20.4-3.8c3.3,1.4,6.1,3.5,8.2,6.3c2.4,3.2,2.2,5.7,2.9,9.5
				c0.4,2.4,1.5,4.5,0.8,7.1c-0.9,3.2-3.5,5.5-6.1,7.3c-6,4.1-12,5.2-19.1,4.9C23.7,89.7,23.7,92.7,25.6,92.7L25.6,92.7z"/>
		</g>
	</g>
	<g>
		<path class="st1" d="M33,75.5c-0.2,0.1-0.4,0.1-0.6,0.1c-0.2,0.1-0.4,0.2-0.7,0.2c0,0-0.1,0-0.1,0.1C31.5,76,31.4,76,31.3,76
			c-0.2,0.1-0.4,0.2-0.6,0.3c-0.1,0-0.1,0-0.2,0.1l0,0c-0.1,0.1-0.3,0.1-0.4,0.2c-0.1,0-0.3,0-0.4,0s-0.2,0-0.3,0h-0.1
			c-0.1,0-0.1,0.1-0.2,0.1s-0.3,0-0.4,0c-0.2,0-0.3,0-0.5-0.1c-0.1,0-0.2-0.1-0.3-0.1c-0.2-0.1-0.4-0.2-0.5-0.3
			c-0.2-0.1-0.4-0.3-0.5-0.5c-0.2-0.1-0.3-0.3-0.4-0.5s-0.3-0.4-0.4-0.6s-0.2-0.4-0.3-0.6c-0.1-0.2-0.1-0.4-0.2-0.7
			c-0.1-0.2-0.1-0.5-0.1-0.7c0-0.1,0-0.3,0-0.4s0-0.3,0-0.4s0-0.2,0.1-0.3c0-0.3,0-0.6,0-0.8c0-0.4,0.1-0.8,0.3-1.1
			c0.1-0.1,0.1-0.2,0.2-0.3c0.1-0.1,0.1-0.1,0.2-0.2s0.2-0.1,0.3-0.1c0.1,0,0.2-0.1,0.3-0.1c0-0.3,0-0.5,0.1-0.8
			c0.2-0.5,0.7-0.9,1.3-0.7c0.1,0,0.2,0.1,0.4,0.1c0.1,0.1,0.3,0.2,0.4,0.2l0,0c0.1,0,0.2,0,0.3,0l0.1-0.1c0.1-0.1,0.2-0.1,0.3-0.1
			c0.1,0,0.2,0,0.4,0s0.4,0.1,0.6,0.1l0,0l0,0c0.2,0,0.4,0,0.6,0c0.1,0,0.3,0.1,0.4,0.1c0.2,0.1,0.3,0.2,0.5,0.2
			c0.2,0.1,0.4,0.3,0.6,0.5c0.1,0.1,0.1,0.1,0.2,0.2l0,0c0,0,0,0,0.1,0.1l0,0c0.1,0.1,0.2,0.2,0.3,0.3c0.2,0.2,0.3,0.4,0.4,0.6l0,0
			l0,0c0.2,0.3,0.4,0.7,0.5,1.1c0.2,0.4,0.3,0.7,0.3,1.1c0,0.2,0,0.5,0.1,0.7c0,0.2,0,0.3,0,0.5s-0.1,0.4-0.1,0.6
			c-0.1,0.2-0.2,0.4-0.3,0.6c-0.2,0.3-0.4,0.5-0.6,0.7c-0.1,0.1-0.2,0.1-0.3,0.2C33.4,75.4,33.2,75.5,33,75.5L33,75.5L33,75.5z"/>
		<g>
			<path class="st1" d="M32.6,74.1c-0.8,0.1-1.4,0.4-2.1,0.7c-0.2,0.1-0.8,0.5-1,0.5c0.7-0.1-0.1-0.3-0.1-0.3
				c-0.4-0.2-0.6,0.1-1.2-0.2c-0.4-0.2-0.7-0.6-0.9-1c-0.1-0.3-0.7-3.4,0-3.5c0.6-0.2,1.1-0.8,1.1-1.4c0,0.7,1.2,0.3,1.6,0.2
				c0.7,0,1.2,0,1.8,0.5C33,70.5,34.3,73.4,32.6,74.1c-1.8,0.7-1,3.6,0.8,2.9c4.3-1.8,3.3-7.4,0.2-9.9c-0.4-0.3-0.8-0.6-1.3-0.7
				c-0.2-0.1-2-0.3-1-0.2c-0.6-0.1-1.1-0.2-1.7-0.1c-0.2,0.1-0.5,0.2-0.7,0.3c1.1,0.3,1.4,0.3,0.9,0c-1.9-1.7-4.2,0.6-4.3,2.5
				c0.4-0.5,0.7-1,1.1-1.4c-3.9,1-2.9,7.4-0.6,9.4c0.7,0.6,1.5,1.1,2.4,1.3c0.4,0.1,0.8,0,1.2,0c-0.7,0.1-0.4,0,0.2,0
				c0.4,0,0.8-0.1,1.2-0.2c0.5-0.2,1-0.4,0.2-0.1c0.8-0.3,1.4-0.7,2.2-0.8C35.3,76.7,34.5,73.8,32.6,74.1z"/>
		</g>
	</g>
</g>
<g>
	<g>
		<path class="st2" d="M230.6,78.9c-0.1-2.1-0.5-4-1-5.9c-0.5-2.2-1.3-4.4-2.6-6c-0.3-0.4-0.7-0.8-1-1.1c-0.4-0.3-0.8-0.6-1.2-0.8
			c-0.3-0.2-0.7-0.3-1.1-0.4c-0.6-0.2-1.1-0.3-1.7-0.3h-0.1c-0.9,0-1.9,0.1-2.8,0.4H219c-0.1,0-0.1,0-0.2,0c-0.6,0-1.2,0.2-1.8,0.6
			l-0.1,0.1c-0.5,0.2-0.9,0.5-1.4,0.8c-0.4,0.2-0.7,0.6-1,1c-0.3,0.5-0.6,1-0.6,1.6c0,0.2,0,0.3-0.1,0.4c-0.2,0.2-0.4,0.4-0.5,0.7
			c-1.1,1.9-1.8,4.1-2.3,6.4c-0.2,0.9-0.4,1.9-0.5,2.9c0,0.3-0.1,0.6-0.1,0.9c-0.1,0.7-0.1,1.4-0.1,2.1c-0.1,0.5-0.2,0.9-0.3,1.4
			c-0.3,1.2-0.4,2.5-0.6,3.8c-0.1,0.9-0.2,1.9-0.2,2.9c-0.1,1-0.1,2-0.1,2.9l0,0c-0.2,1.6-0.4,3.2-0.6,4.8c-0.1,1.2-0.2,2.5-0.2,3.7
			c0,0.1,0,0.2,0,0.2c-0.1,0.2-0.2,0.3-0.3,0.4c-0.2,0.3-0.5,0.5-0.8,0.8c-0.3,0.2-0.6,0.4-1,0.6c-0.2,0.1-0.5,0.2-0.7,0.2
			c-0.3,0-0.5,0-0.8,0c-0.2,0-0.3-0.1-0.5-0.1c-0.1-0.2-0.3-0.4-0.5-0.6c-0.5-0.5-1.1-0.8-1.7-1c-0.1,0-0.2-0.1-0.3-0.1
			c-0.5-0.1-1.1-0.2-1.6-0.2l0,0c-0.1-0.1-0.2-0.2-0.3-0.2c-0.7-0.5-1.4-0.7-2.1-1c-0.8-0.3-1.7-0.4-2.5-0.5c-0.6-0.1-1.2,0-1.8,0
			c-0.9,0.1-1.7,0.3-2.6,0.6c-1.7,0.6-3.2,1.6-4.4,2.9c-1.3,1.4-2.2,3.2-2.7,5.1c-0.1,0.6-0.2,1.1-0.2,1.7c0,0.4,0,0.7,0,1.1
			c0,0.5,0.1,1.1,0.2,1.6c0.1,0.4,0.2,0.8,0.3,1.1c0.5,1.7,1.5,3.2,2.8,4.4c0.5,0.5,1,0.9,1.6,1.3c0.2,0.5,0.5,0.9,0.8,1.3
			s0.6,0.7,0.9,1.1c0.3,0.3,0.7,0.6,1,0.9c1,0.7,1.9,1.3,3,1.8c0.6,0.2,1.2,0.5,1.9,0.6c0.7,0.2,1.5,0.3,2.2,0.3c1,0.1,2,0.1,3,0
			s1.9-0.3,2.9-0.5c0.3,0.1,0.6,0.1,0.9,0.1c0.7,0.1,1.4,0.1,2.1,0.1c0.7,0,1.5-0.2,2.2-0.3c1.4-0.3,2.7-0.9,3.9-1.6
			c1.3-0.7,2.5-1.6,3.6-2.5c0.2,0,0.5-0.2,0.7-0.3c0.6-0.1,1.2-0.3,1.8-0.6c1.3-0.6,2.5-1.6,3.7-2.8c1.1-1.2,2-2.6,2.7-4.2
			c0.1-0.2,0.2-0.5,0.3-0.7c1.1-2.3,1.9-5,2.1-7.8v-0.1c0.1-0.3,0.2-0.6,0.2-1c0.7-2.2,1.2-4.4,1.3-6.7c0-0.4,0-0.9,0-1.3
			c0.2-1.1,0.4-2.2,0.6-3.3C230.7,87.8,230.9,83.3,230.6,78.9z"/>
		<g>
			<path class="st1" d="M232.1,78.9c-0.6-6.1-2.1-15.3-9.7-16c-3.2-0.3-7.7,0.8-9.4,3.8c-3.1,5.6-3.9,12-4.9,18.4
				c-0.5,3.4-0.5,6.9-0.9,10.3c-0.2,1.7,0.2,5.9-1.4,6.4c-1.4,0.4-2-0.6-3.3-1.1c-4.1-1.3-9.7-3.4-14.8-0.1c-5,3.2-7.1,10-4.6,15.4
				c2.2,4.6,7.5,9.8,12.5,11c3.1,0.8,5.9,0,9-0.1c3-0.1,5.2,0,8.1-1.3c7.9-3.6,14.3-8.3,16.3-17.2C231.2,98.9,232.6,88.7,232.1,78.9
				c-0.1-1.9-3.1-1.9-3,0c0.5,8.7-0.9,17.2-2.6,25.7c-0.8,4.2-1.7,8.5-4.7,11.8c-1.8,1.9-6.9,4.6-9.5,6c-3.4,1.8-6.6,1.4-10.1,1.8
				c-5.6,0.7-8.8-0.9-12.5-5.1c-2.8-3.1-5.5-5.3-4.5-10.1c1.3-6.1,7.5-8.7,13-6.6c0.7,0.3,1.3,0.6,2,0.9c0.7,0,1.4,0.1,2.1,0.4
				c0.4,0.4,0.8,0.8,1.3,1.2c1.2,0.4,2.3,0.4,3.5-0.1c1.4-0.6,2.4-1.7,2.7-3.1c0.7-2.8,0.6-6.6,0.8-9.5c0.5-7.1,0.7-16.1,4.5-22.3
				c1.4-2.3,2.1-3.2,4.4-3.7c7.4-1.7,9,7.3,9.5,12.8C229.3,80.8,232.3,80.8,232.1,78.9z"/>
		</g>
	</g>
	<g>
		<path class="st2" d="M229.3,78.5c0.4-0.9,0.8-1.8,1-2.7c0.4-1.4,0.6-2.9,0.6-4.4c0-0.1,0-0.2,0-0.3c0.1-0.4,0.2-0.9,0.3-1.3
			c0-0.2,0-0.3-0.1-0.4s-0.1-0.2-0.3-0.2c0-0.1,0-0.2,0-0.3c0.1-0.6,0.2-1.2,0.3-1.8c0.2-0.5,0.3-1,0.4-1.5c0.2-0.9,0.3-1.9,0.3-2.8
			c0-1-0.1-1.9-0.2-2.9c0-0.1,0-0.1,0-0.1c0.3-2.3,0.2-4.6-0.2-6.9c-0.2-1.2-0.7-2.4-1.2-3.5c-0.6-1.3-1.5-2.6-2.8-3.5
			c-0.3-0.2-0.7-0.5-1.1-0.6c-0.4-0.2-0.8-0.3-1.2-0.5c-0.3-0.1-0.7-0.2-1.1-0.2c-0.6-0.1-1.1-0.1-1.7-0.1h-0.1
			c-0.9,0-1.8,0.1-2.7,0.3h-0.1c-0.1,0-0.1,0-0.2,0c-0.6,0-1.2,0.1-1.7,0.4c0,0-0.1,0-0.1,0.1c-0.5,0.1-0.9,0.3-1.3,0.5
			c-0.1,0.1-0.3,0.1-0.4,0.2c-0.2,0.1-0.4,0.2-0.5,0.4c-0.3,0.3-0.5,0.6-0.6,1c0,0.1,0,0.2,0,0.3c-0.2,0.1-0.3,0.2-0.5,0.4
			c-1,1.1-1.6,2.5-2,3.9c-0.2,0.7-0.3,1.5-0.4,2.3c-0.1,0.6-0.1,1.1-0.1,1.7s0,1.2,0,1.7l0,0c-0.2,1.5-0.4,3-0.4,4.5
			c0,0.2,0,0.4,0,0.6c0.1,0.8,0.2,1.6,0.4,2.4c0,0.3,0,0.5-0.1,0.8c-0.1,0.5-0.3,1.1-0.5,1.6l0,0c0,0.1-0.1,0.1-0.1,0.2v0.1
			c0,0.1,0,0.2,0,0.3c0,0.4-0.1,0.8-0.2,1.1c-0.1,0.3-0.2,0.5-0.3,0.8c-0.2,0.3-0.3,0.6-0.6,0.9c-0.2,0.3-0.5,0.6-0.8,0.8
			c-0.3,0.2-0.6,0.4-1,0.6c-0.6,0.3-1.3,0.6-2,0.7c-0.3,0.1-0.7,0.1-1,0.2c-0.5,0.1-1.1,0.2-1.6,0.2c-1,0-2,0-3-0.2
			c-0.6-0.1-1.1-0.3-1.6-0.5c-0.3-0.1-0.6-0.3-0.9-0.4c-0.2-0.1-0.5-0.2-0.7-0.3c-0.8-0.3-1.6-0.8-2.2-1.3c-0.3-0.3-0.7-0.6-0.9-0.9
			c-0.3-0.5-0.6-1-0.8-1.5c-0.2-0.7-0.4-1.4-0.5-2.1c0-0.1,0-0.1,0-0.2c0.2-0.7,0.3-1.4,0.4-2.1c0,0,0,0,0-0.1
			c0.3-0.8,0.5-1.6,0.6-2.4c0-0.2,0.1-0.4,0.1-0.7c0.4-2.7,0.4-5.3-0.1-8c-0.2-1.2-0.7-2.4-1.2-3.5c-0.6-1.3-1.5-2.6-2.8-3.5
			c-0.3-0.2-0.7-0.5-1.1-0.6c-0.4-0.2-0.8-0.3-1.2-0.5c-0.3-0.1-0.7-0.2-1.1-0.2c-0.5-0.1-1.1-0.1-1.6-0.1h-0.1h-0.1
			c-0.9,0-1.8,0.1-2.7,0.3c0,0,0,0-0.1,0s-0.1,0-0.2,0c-0.6,0-1.2,0.1-1.7,0.4c0,0-0.1,0-0.1,0.1c-0.5,0.1-0.9,0.3-1.3,0.5
			c-0.3,0.1-0.7,0.4-0.9,0.6c-0.3,0.3-0.5,0.6-0.6,1c0,0.1,0,0.2,0,0.3c-0.2,0.1-0.3,0.2-0.5,0.4c-1,1.1-1.6,2.5-2,3.9
			c-0.2,0.7-0.3,1.5-0.4,2.3c-0.1,0.6-0.1,1.1-0.1,1.7s0,1.2,0,1.7l0,0c-0.3,1.7-0.5,3.4-0.4,5.1c0.1,1.3,0.4,2.7,1,3.9
			c0.1,0.6,0.2,1.2,0.3,1.8c0.2,0.8,0.3,1.6,0.6,2.4c0.5,1.6,1.1,3.1,1.9,4.6c0.3,0.7,0.7,1.3,1.1,1.9c0.1,0.2,0.3,0.4,0.5,0.7
			c0.1,0.3,0.2,0.6,0.3,0.9c0.5,1.3,1.2,2.4,2.1,3.5c1.9,2.2,4.4,3.7,7,4.8c0.2,0.1,0.4,0.2,0.6,0.2l0,0c0.3,0.4,0.8,0.7,1.2,1
			c0.5,0.3,1,0.5,1.5,0.7c1.1,0.4,2.4,0.6,3.5,0.6c0.6,0,1.1,0,1.7,0c1.6,0.2,3.2,0.3,4.8,0.3c0.7,0.1,1.5,0.1,2.2,0.2
			c1.8,0.1,3.6,0.1,5.4-0.1c1-0.1,2-0.3,3-0.5c0.3-0.1,0.5-0.2,0.7-0.5"/>
		<g>
			<path class="st1" d="M230.6,79.3c1.3-3.1,2-6.4,2.1-9.7c0-1-0.2-1.1-0.1-2.2c0.3-2.4,0.8-4.3,0.7-6.8c-0.2-6.5-0.2-15.6-8.2-17.5
				c-4.2-1-9.6,0-11.9,3.6c-1.9,3-2.7,5.3-2.8,8.9c-0.2,3.5,0.4,7.9-0.5,11.2c-1.3,5.1-6.3,5.9-11,4.1c-5.4-2.1-3.9-6-3.3-10.2
				c1-6.7-0.6-16.3-8.5-17.8C171.5,40,171.7,58.7,174,69c0.9,4,2.9,7.9,4.9,11.5c2.3,4.1,5.6,5.4,9.5,7.7c3.6,2.2,7.4,2.6,12.1,2.9
				c4.1,0.3,10,1.2,13.7-1.1c1.6-1,0.1-3.6-1.5-2.6c-3.1,1.9-8.6,0.9-12.1,0.7c-4.4-0.3-8.3-1.3-12.2-3.2
				c-6.8-3.3-10-11.3-11.6-18.2c-1.3-5.5-2.6-17.6,4.1-20.4c1.6-0.7,3.9-0.7,5.5-0.4c6.1,1,7,8.2,6.6,13.2
				c-0.4,4.6-2.9,8.8,1.4,12.6c3.7,3.3,10.2,4.1,14.7,1.9c1.5-0.7,2.7-1.8,3.4-3.3c0.8-1.9,0.5-2.1,0.8-3.4
				c1.4-6.1-1.8-13.3,2.9-18.6c1.8-2,3.9-2.5,6.5-2.5c7.8,0.1,7.6,8.4,7.8,13.9c0.1,3.3-0.6,6.2-0.8,9.4c0,0.7,0.1,1.2,0.1,1.8
				c0,2.4-0.6,4.7-1.5,6.8C227.2,79.5,229.8,81.1,230.6,79.3L230.6,79.3z"/>
		</g>
	</g>
</g>
<g>
	<g>
		<path class="st2" d="M365.3,76.3c-0.1-1.1-0.3-2.3-0.5-3.4c-0.3-1.2-0.7-2.4-1.1-3.6c-0.3-1-0.8-2.1-1.3-3c-0.5-1-1.1-2-1.7-2.9
			c-0.3-0.4-0.6-0.8-0.9-1.2c-0.1-0.3-0.2-0.7-0.3-1c-0.3-0.9-0.9-1.7-1.5-2.5c-0.7-0.9-1.6-1.6-2.4-2.3c-0.6-0.4-1.2-0.9-1.8-1.2
			c-1.2-0.7-2.5-1.3-3.8-1.9c-1.8-0.8-3.7-1.3-5.7-1.6c-0.9-0.2-1.8-0.2-2.7-0.2c-0.7,0-1.5,0.1-2.2,0.2c-0.8,0.1-1.6,0.4-2.3,0.6
			c-0.3,0.1-0.5,0.2-0.8,0.3c0.2-2,0.4-4.1,0.4-6.1c0.2-5.8-0.2-11.6-1.2-17.4c-0.1-0.3-0.2-0.5-0.4-0.7v-0.1c0.3-1.2,0.2-2.3,0-3.5
			c-0.2-1.4-0.7-2.8-1.4-4.1c-0.7-1.4-1.7-2.7-2.7-4c-0.5-0.6-1-1.2-1.6-1.7c-0.6-0.6-1.3-1.1-2.1-1.6c-1.2-0.8-2.5-1.3-3.9-1.6
			c-1.1-0.2-2.3-0.3-3.5-0.2c-0.6,0.1-1.1,0.1-1.7,0.3c-0.6,0.1-1.1,0.4-1.7,0.6c-0.9,0.4-1.7,1-2.5,1.7s-1.4,1.5-2,2.3
			c-0.5,0.8-1,1.7-1.4,2.6c-0.4,1-0.8,2.1-1.1,3.1c-0.6,2.1-0.9,4.3-1.1,6.5c-0.2,2-0.2,4-0.1,5.9c0,0.6,0.1,1.2,0.2,1.8
			c0,1.9,0,3.9,0.1,5.8c0.2,4.8,0.8,9.6,1.3,14.4c0.1,1,0.2,2,0.3,2.9c0,2.7,0.2,5.4,0.5,8.1c0,0.3,0,0.5-0.1,0.8
			c-0.2,2.9-0.7,5.9-0.5,8.8c0.1,1.4,0.3,2.9,0.7,4.2c0.1,0.3,0.2,0.5,0.3,0.8c0.5,1.1,1.1,2,1.9,2.9c0.5,0.5,1.1,0.9,1.7,1.3
			c0.7,0.4,1.5,0.8,2.2,1.1c1.4,0.6,3,0.9,4.6,0.9c0.1,0,0.2,0,0.4,0c0.5,0,0.9,0,1.4-0.1l0,0c0.4,0.1,0.8,0.1,1.2,0.2h0.1
			c0.4,0,0.7-0.1,1.1-0.1c0.2,0,0.5-0.1,0.7-0.1c0.2-0.1,0.5-0.2,0.7-0.3c0.5-0.2,0.9-0.4,1.4-0.6c0.6-0.3,1.1-0.6,1.6-1
			c0.7-0.5,1.4-1.1,2-1.7c0.3-0.3,0.5-0.6,0.8-0.9s0.5-0.7,0.8-1c0.2-0.3,0.4-0.6,0.5-0.9c0.6-0.9,1.3-1.8,1.9-2.7
			c0.9-1.3,1.7-2.7,2.5-4.1c0.2-0.1,0.5-0.2,0.8-0.3c0.5-0.1,0.9-0.2,1.4-0.3c0.5,0,0.9,0,1.4,0.1c0.4,0.1,0.8,0.2,1.2,0.4
			c0.4,0.2,0.7,0.5,1.1,0.7c0.3,0.3,0.6,0.7,0.9,1c0.2,0.3,0.3,0.6,0.4,0.9c0.1,0.2,0.1,0.4,0.1,0.7c0,0.6-0.1,1.2-0.1,1.8
			c-0.1,0.8-0.3,1.6-0.3,2.5c-0.1,1.8,1,3.4,2.7,4c0.1,0,0.1,0,0.2,0.1c0.3,0.8,0.8,1.5,1.4,2c0.9,0.8,1.9,1.5,3,1.8
			c0.6,0.1,1.3,0.3,1.9,0.3c0.8,0,1.6-0.1,2.4-0.3c0.8-0.2,1.5-0.4,2.2-0.7c0.4-0.2,0.8-0.4,1.1-0.6c0.6-0.4,1.1-0.7,1.5-1.1
			c0.5-0.5,1-1,1.4-1.6c0.4-0.5,0.7-1.1,0.9-1.7c0.2-0.4,0.3-0.8,0.5-1.2c0.4-1.2,0.6-2.4,0.7-3.6C365.5,78.7,365.4,77.5,365.3,76.3
			z"/>
		<g>
			<path class="st1" d="M366.8,76.3c-0.9-7.6-4.6-17-11-21.6c-5.6-4-13.5-6.3-20-3.6c0.6,0.5,1.3,1,1.9,1.4c0.8-8.3-0.3-18.4-1-25.1
				c-0.7-6.6-3.6-13.2-10.1-16.2c-7-3.2-14,0.4-17,7.1c-3.7,8.2-2.7,18-2.1,26.7c0.7,9.7,2,19.1,1.4,28.8c-0.4,6.4,1,12.6,7.5,15.2
				c4.7,1.9,10.5,1.8,14.6-1.3c2.7-2,4.5-4.8,6.4-7.6c0.5-0.8,1.1-2.1,1.7-2.7c0.1-0.2,0.2-0.3,0.3-0.5c1.2-2.3,2.8-0.9,4.7,4.1
				c0.2,1.2-0.3,2.4,0.2,3.7c0.5,1.5,1.5,1.9,2.5,2.9c0.8,0.8,1.2,1.6,2.3,2.5c2,1.8,4.6,2.3,7.2,1.9
				C364.4,91.2,367.2,83.7,366.8,76.3c-0.1-1.9-3.1-1.9-3,0c0.3,5.1-0.6,10.7-6.1,12.5c-3.9,1.3-6.7-0.4-9-3.5
				c-2.5-3.3-1-3.6-1.3-6.9c-0.1-0.9-0.3-1.6-0.8-2.3c-1-1.6-2.7-2.6-4.5-2.9c-2.8-0.4-4.3,0.5-5.6,2.6c-2.2,3.6-4.7,8.4-8.7,10.3
				c-2.5,1.2-6.1,1.2-8.8,0.5c-5.1-1.3-7.1-5.2-7.2-10.2c-0.1-4,0.6-7.9,0.3-12c-0.3-4.4-0.7-8.8-1.1-13.2c-0.9-8.9-2.2-19.1,0-27.9
				c1.6-6.2,6.1-12.4,13.5-9.8c5,1.8,9.1,7.7,9.3,12.9c0.3,8.7,1.8,17.1,0.9,26c-0.1,0.9,1,1.8,1.9,1.4c5.5-2.3,12-0.5,16.8,2.7
				c2.9,1.9,4.3,4.5,6,7.4c2.3,3.9,3.8,7.7,4.4,12.2C364,78.2,367,78.2,366.8,76.3z"/>
		</g>
	</g>
	<g>
		<path class="st2" d="M338.4,51.9c0,0-4,1-6,3"/>
		<g>
			<path class="st1" d="M338,50.5c-2.4,0.6-4.9,1.7-6.7,3.4c-1.4,1.3,0.7,3.5,2.1,2.1s3.5-2.1,5.3-2.6C340.6,52.9,339.8,50,338,50.5
				L338,50.5z"/>
		</g>
	</g>
</g>
</svg>
