<?xml version="1.0" encoding="utf-8"?>
<!-- Generator: Adobe Illustrator 22.1.0, SVG Export Plug-In . SVG Version: 6.00 Build 0)  -->
<svg version="1.1" id="Layer_1" xmlns="http://www.w3.org/2000/svg" xmlns:xlink="http://www.w3.org/1999/xlink" x="0px" y="0px"
	 viewBox="0 0 326.8 681.4" style="enable-background:new 0 0 326.8 681.4;" xml:space="preserve">
<style type="text/css">
	.st0{fill:#A36B78;stroke:#584C4F;stroke-width:2;stroke-linecap:round;stroke-miterlimit:10;}
	.st1{fill:#A36B78;stroke:#584C4F;stroke-width:2;stroke-linecap:round;stroke-linejoin:round;stroke-miterlimit:10;}
	.st2{fill:#FFD767;stroke:#584C4F;stroke-width:2;stroke-miterlimit:10;}
	.st3{fill:#A36B78;}
	.st4{fill:none;stroke:#584C4F;stroke-width:2;stroke-linecap:round;stroke-miterlimit:10;}
	.st5{fill:#BEAB72;}
	.st6{fill:#584C4F;stroke:#584C4F;stroke-width:2;stroke-linecap:round;stroke-miterlimit:10;}
	.st7{opacity:0.1;fill:#231F20;stroke:#231F20;stroke-miterlimit:10;enable-background:new    ;}
	.st8{fill:#FFFFFF;stroke:#584C4F;stroke-width:2;stroke-linecap:round;stroke-miterlimit:10;}
</style>
<g id="Layer_5">
</g>
<g id="Layer_3">
</g>
<g>
	<g>
		<g id="XMLID_131_">
			<path id="XMLID_132_" class="st0" d="M218.5,300.9c8.7-2.5,8.8,10.6,1.2,8.5"/>
		</g>
		<path id="XMLID_130_" class="st0" d="M208.4,177.6c-1.4,33.9-5.6,92.1-3.2,107.8c3.4,22,0,126.4,0,126.4l16.9,1.5
			c0,0-3.3-59.2-1.2-99.4c1.1-22.2,2.5-65,4.2-99.8"/>
		<g id="XMLID_128_">
			<path id="XMLID_129_" class="st0" d="M220.6,410c3.3-1.1,4.1,12.1,4.1,12.1s1.9,42.3-1.7,24.3c-3.5-18-5.3-16.1-3.6,5.4
				c1.6,21.6-7.4-22-8.8-15.1c-1.4,6.9-5.8,50.9-5.8-4.1c0,0,4.1-25.6-6.4,14.5s2.3-25.1,3.1-28.5s-12.8,19.5-9.1,10.1
				s5.8-11.8,12.7-19"/>
		</g>
		<path id="XMLID_127_" class="st0" d="M211.6,302.6c0.2-0.6,3-1.2,3-1.2"/>
		<path id="XMLID_126_" class="st0" d="M217.8,306.6c-0.6,1.8-2.8,1.4-2.8,1.4"/>
		<path id="XMLID_125_" class="st1" d="M218.4,408c13.6-0.8,0-9.9,0-9.9"/>
	</g>
	<path id="XMLID_124_" class="st2" d="M203,177.1c9.1,2.5,16.7,5.2,18.7,8.1c5.5,8.1,12.2,97.9-1.5,98.4c-13.7,0.5-15.6-0.1-15.3-5
		c0.3-4.9-6-61.3-3.8-65.5"/>
	<g>
		<path class="st0" d="M162.4,631c-0.9,0.9-1.4,1.9-1.4,3.4c0,0.4,0,0.8,0.1,1.2c0.2,1.4,1.1,3.2,2.4,5.2c1,1.5,2.3,3.1,3.8,4.9
			c0.9,1.1,1.9,2.2,3,3.4c0.8,0.9,1.7,1.8,2.5,2.7c0.9,0.8,1.8,1.7,2.7,2.5c1.2,1.1,2.3,2,3.4,3c1.7,1.5,3.4,2.8,4.9,3.8
			c2,1.3,3.8,2.2,5.2,2.4c0.5,0.1,0.8,0.1,1.2,0.1c1.1,0,2-0.3,2.7-0.9c-3.7-8.9-4.5-18.7,1.8-27.6c-0.1-1.4-0.1-2.3-0.1-2.3
			s0.1-0.4,0.1-0.9c0-0.1,0-0.3,0-0.4c0-0.1,0.1-0.2,0.1-0.2c0.2-0.4,0.7-1.1,1.4-1.9l-0.6-0.6l-0.6-0.6l-11.7-9.8
			c-2.8,2.7-4.6,4.4-5,4.8c-0.1,0.1-0.1,0.1-0.1,0.1s0,0,0.1,0.1c-2.9,1.7-5.6,2.9-8,3.9c-2.5,1-4.7,1.8-6.3,2.6
			C163.3,630.2,162.7,630.6,162.4,631z"/>
		<path class="st0" d="M168.4,382.1c3.4,5.6,6.4,113.4,8.5,153.6s-1.1,99.4-1.1,99.4l16.9-1.5c0,0-3.2-98.4-0.3-124.2
			c1-1.1,1.4-6,1.1-16.9l0,0c0-4.4,0-9.3-0.2-14.5c-0.3-44.6,3.4-102.4,3.4-102.4"/>
		<g>
			<g id="XMLID_122_">
				<path id="XMLID_123_" class="st0" d="M195.3,674c1.9-5,5.8-0.3,5.8-0.3C202.3,679.6,193.5,678.9,195.3,674z"/>
			</g>
			<g id="XMLID_120_">
				<path id="XMLID_121_" class="st0" d="M192.8,671c2.1-5.5,6.4-0.3,6.4-0.3C200.5,677.4,190.7,676.6,192.8,671z"/>
			</g>
			<g id="XMLID_118_">
				<path id="XMLID_119_" class="st0" d="M189.5,667.3c2.5-6.4,7.5-0.4,7.5-0.4C198.5,674.7,187.1,673.8,189.5,667.3z"/>
			</g>
			<g id="XMLID_116_">
				<path id="XMLID_117_" class="st0" d="M185.5,662.8c2.8-7.4,8.5-0.5,8.5-0.5C195.7,671.2,182.6,670.1,185.5,662.8z"/>
			</g>
			<path id="XMLID_115_" class="st0" d="M176.2,653c2.6-1.6,13.7-0.5,12.3,7.9s-8.4,0.4-8.4,0.4S173.6,654.6,176.2,653z"/>
		</g>
		<path id="XMLID_114_" class="st0" d="M180.3,502.8c0-1.9,2.3-2,2.3-2"/>
		<path id="XMLID_113_" class="st0" d="M189,515.9c-0.1,0.7-2.8,1.5-2.8,1.5"/>
		<g id="XMLID_111_">
			<path id="XMLID_112_" class="st0" d="M196.2,629.4c5.5,7.1-6.6,12-7.4,4.2"/>
		</g>
		<g id="XMLID_109_">
			<path id="XMLID_110_" class="st0" d="M189.5,504.3c8.6-2.5,8.8,10.6,1.2,8.5"/>
		</g>
	</g>
	<path class="st0" d="M111.5,382.3c0,0,0.1,0,0.2,0c0.5,4.1,2,8.5,4.4,13c0,0,1.3,15.3,51.4,14.5c30.7-0.5,50.1-15.5,53.2-32.5h0.1
		c0.1-0.2,0.1-0.5,0.2-0.9c0.1-1,0.1-2.1,0.2-3.1c0.8-11.1,1.3-40.6,1.3-40.6l-111.1,4.1C109.6,345.7,111.5,382.3,111.5,382.3z"/>
	<g>
		<path class="st2" d="M120.6,363.7c2.3-0.5,5.2-1,8.4-1.5l77.2-4c4-0.1,9.4,1.2,9.4,1.2c4.4,2.3,7.1,1.4,8.7-1.4
			c0.1-0.1,0.1-0.2,0.2-0.3c4.1-8,0.2-29.4-3-37.9c-0.2-0.5-0.4-1.2-0.6-2c-3.7-15.6-3.7-74.4-2.3-110.6c0.1-3.9,0.1-7.3-0.1-10.4
			c-1.4-26.8-28.8-27.1-46.6-27.9c-18.8-0.8-32.5,3-39.2,8.6c-3.5,1-8.8,3-13,6.2c-3.1,2.3-5.6,5.3-6.4,9c-0.1,0.4-0.1,0.9-0.2,1.3
			c-1.5,13.2-4.5,93.7-5.9,101c-0.3,1.4-1,5.9-1.9,11.9c-0.1,0.7-0.2,1.4-0.3,2.2C101.7,334,98.2,380.2,120.6,363.7z"/>
		<path class="st2" d="M215.4,359.3c4.4,2.3,7.1,1.4,8.7-1.4c0.1-0.1,0.1-0.2,0.2-0.3c4.1-8,0.2-29.4-3-37.9c-0.2-0.5-0.4-1.2-0.6-2
			c-3.7-15.6-3.7-74.4-2.3-110.6c0-0.9,0.1-1.7,0.1-2.6"/>
		<path class="st2" d="M217.6,190.8c-5-20.9-29.4-21.2-45.8-21.9c-18.8-0.8-32.5,3-39.2,8.6c-3.5,1-8.8,3-13,6.2
			c-3.1,2.3-5.6,5.3-6.4,9c-0.1,0.4-0.1,0.9-0.2,1.3c-1.5,13.2-4.5,93.7-5.9,101c-0.3,1.4-1,5.9-1.9,11.9c-0.1,0.7-0.2,1.4-0.3,2.2
			c-3.3,24.8-6.7,71,15.6,54.5c2.3-0.5,5.2-1,8.4-1.5l77.2-4"/>
	</g>
	<path id="XMLID_108_" class="st0" d="M115.2,358.7c3.6-13.7-5.1-107.3-5.1-107.3"/>
	<g>
		<path id="XMLID_107_" class="st3" d="M153.4,176.6c9.6,21.2,33.7,8.3,33.8-8c0-2.9,0-14.1,0.1-17.5c0.1-2.6,0.5-17.7-3-25.5
			c-11.2-25-42.7-2.7-31.3,16.8c-0.6,2.2-1,4.7-1.2,7.6c-0.2,3.2-1.3,13.2-1.1,16.6"/>
		<path id="XMLID_106_" class="st4" d="M155.2,179.9c-0.5-0.9-1.1-2-1.6-3.1l-2.8-10.1c-0.3-3.5,0.9-13.4,1.1-16.6
			c0.1-3,0.6-5.5,1.2-7.6c-11.4-19.5,20.1-41.8,31.3-16.8c3.5,7.8,3.1,22.9,3,25.5c-0.1,3.4-0.2,14.6-0.2,17.5
			c0,13.7-17.3,25.1-28.4,15.5"/>
	</g>
	<g>
		<path class="st0" d="M161.3,382.1c-3.4,5.6-6.4,113.4-8.5,153.6s1.1,99.4,1.1,99.4l-16.9-1.5c0,0,3.2-98.4,0.3-124.2
			c-1-1.1-1.4-6-1.1-16.9l0,0c0-4.4,0.1-9.3,0.2-14.5c0.2-44.6-3.4-102.4-3.4-102.4"/>
		<path id="XMLID_105_" class="st0" d="M145,501.7c-1.7-1-2.9,1-2.9,1"/>
		<path id="XMLID_104_" class="st0" d="M146,516.4c0.2,0.7,2.9,1.5,2.9,1.5"/>
		<g id="XMLID_102_">
			<path id="XMLID_103_" class="st0" d="M140.7,624.8c-5.5-7.1,6.6-12,7.4-4.2"/>
		</g>
		<g id="XMLID_100_">
			<path id="XMLID_101_" class="st0" d="M151.8,515c9-1.1,3.9-13.2-2.2-8.2"/>
		</g>
		<g>
			<path class="st0" d="M123.1,633.5c-0.9,0.9-1.4,1.9-1.4,3.4c0,0.4,0,0.8,0.1,1.2c0.2,1.4,1.1,3.2,2.4,5.2c1,1.5,2.3,3.1,3.8,4.9
				c0.9,1.1,1.9,2.2,3,3.4c0.8,0.9,1.7,1.8,2.5,2.7c0.9,0.8,1.8,1.7,2.7,2.5c1.2,1.1,2.3,2,3.4,3c1.7,1.5,3.4,2.8,4.9,3.8
				c2,1.3,3.8,2.2,5.2,2.4c0.5,0.1,0.8,0.1,1.2,0.1c1.1,0,2-0.3,2.7-0.9c-3.7-8.9-4.5-18.7,1.8-27.6c-0.1-1.4-0.1-2.3-0.1-2.3
				s0.1-0.4,0.1-0.9c0-0.1,0-0.3,0-0.4c0-0.1,0.1-0.2,0.1-0.2c0.2-0.4,0.7-1.1,1.4-1.9l-0.6-0.6l-0.6-0.6l-11.7-9.8
				c-2.8,2.7-4.6,4.4-5,4.8c-0.1,0.1-0.1,0.1-0.1,0.1s0,0,0.1,0.1c-2.9,1.7-5.6,2.9-8,3.9c-2.5,1-4.7,1.8-6.3,2.6
				C124,632.7,123.4,633.1,123.1,633.5z"/>
			<g>
				<g id="XMLID_98_">
					<path id="XMLID_99_" class="st0" d="M156.1,676.4c1.9-5,5.8-0.3,5.8-0.3C163.1,682.1,154.2,681.4,156.1,676.4z"/>
				</g>
				<g id="XMLID_96_">
					<path id="XMLID_97_" class="st0" d="M153.5,673.5c2.1-5.5,6.4-0.3,6.4-0.3C161.2,679.8,151.4,679.1,153.5,673.5z"/>
				</g>
				<g id="XMLID_94_">
					<path id="XMLID_95_" class="st0" d="M150.2,669.8c2.5-6.4,7.5-0.4,7.5-0.4C159.2,677.1,147.8,676.2,150.2,669.8z"/>
				</g>
				<g id="XMLID_92_">
					<path id="XMLID_93_" class="st0" d="M146.2,665.3c2.8-7.4,8.5-0.5,8.5-0.5C156.4,673.6,143.3,672.6,146.2,665.3z"/>
				</g>
				<path id="XMLID_91_" class="st0" d="M136.9,655.5c2.6-1.6,13.7-0.5,12.3,7.9s-8.4,0.4-8.4,0.4S134.3,657.1,136.9,655.5z"/>
			</g>
		</g>
	</g>
	<g>
		<g id="XMLID_89_">
			<path id="XMLID_90_" class="st0" d="M116,309.6c-9-1.1-3.9-13.2,2.2-8.2"/>
		</g>
		<path id="XMLID_88_" class="st0" d="M128.3,200.2c1.7,32.8,4.1,72.6,2.1,85.2c-3.4,22,0,126.4,0,126.4l-16.9,1.5
			c0,0,3.2-59.2,1.1-99.4c-1-18.4-2.1-51-3.4-81.4"/>
		<path id="XMLID_87_" class="st0" d="M118.9,303.7c0-1.9,2.3-2,2.3-2"/>
		<path id="XMLID_86_" class="st0" d="M124.8,306.6c-0.2,0.6-2.9,1.5-2.9,1.5"/>
		<g id="XMLID_73_">
			<path id="XMLID_85_" class="st3" d="M130.3,411l-16.2-3.8c0,0-21.4,35-14.1,35.1c3.9,0.1,5.3-0.9,5.9-1.9
				c-0.5,3.3-0.8,9.4,4.8,6.5l0.1-1.5c1.3,2.1,5.5,8.4,8.9,2l1.1-0.5c2.5,2.1,7.7,5.3,6.9-5.5c1.5,0.1,3.5,0,6.4-0.8
				C148.9,436.9,130.3,411,130.3,411z"/>
			<path id="XMLID_84_" class="st0" d="M114.1,407.2c0,0-21.4,35-14.1,35.1c3.9,0.1,5.3-0.9,5.9-1.9c-0.5,3.3-0.8,9.4,4.8,6.5
				l0.1-1.5c1.3,2.1,5.5,8.4,8.9,2l1.1-0.5c2.5,2.1,7.7,5.3,6.9-5.5c1.5,0.1,3.5,0,6.4-0.8c14.8-3.7-3.8-29.6-3.8-29.6"/>
			<g id="XMLID_77_">
				<g id="XMLID_79_">
					<path id="XMLID_83_" class="st1" d="M110.6,446.9c-7.5,3.8-4.4-8.4-4.4-8.4c-0.1,0.3,1.1,3.9-6.2,3.8
						c-7.3-0.1,14.1-35.1,14.1-35.1"/>
					<path id="XMLID_82_" class="st1" d="M120,446.9c-4.2,8.4-9.4-2.1-9.4-2.1"/>
					<path id="XMLID_81_" class="st1" d="M130.9,434.4c-4.2-0.4-11.6,9.9,3.2,6.2s-3.8-29.6-3.8-29.6"/>
					<path id="XMLID_80_" class="st1" d="M127.1,432.1l0.5,8c1.7,15.9-8.1,5.5-8.1,5.5"/>
				</g>
				<path id="XMLID_78_" class="st1" d="M116.7,395.3c-10,0.8,0,10.9,0,10.9"/>
			</g>
			<path id="XMLID_76_" class="st0" d="M120,439.1c0.8-2.6,0.4-7.5,0.4-7.5"/>
			<path id="XMLID_75_" class="st0" d="M111.6,441c0.8,0,0.9-3.5,0.9-3.5"/>
			<path id="XMLID_74_" class="st1" d="M108,430.4c0,0,2.9-4.8,3.6-7"/>
		</g>
	</g>
	<path id="XMLID_72_" class="st2" d="M134.1,180c-9.1,2.5-16.8,5.2-18.7,8.1c-5.6,8.1-12.3,97.9,1.4,98.4s15.6-0.1,15.3-5
		s6-61.3,3.8-65.5"/>
	<g>
		<path class="st5" d="M140.9,217.3c0.3,6.9,4,7.2,12.1,6.1c8.2-1,3.7-16.3,2.8-21.1c-0.9-4.7-14.6,0.4-14.6,0.4
			S140.6,210.4,140.9,217.3z"/>
		<g>
			<path id="XMLID_71_" class="st0" d="M141,205.9c-1-1.5,0.8-2.9,0.8-2.9"/>
			<path id="XMLID_70_" class="st0" d="M157.4,204.8c-0.7-1.2-3.2-2.4-3.2-2.4"/>
			<path id="XMLID_69_" class="st0" d="M141.1,210.1c-0.5,1.4,0.3,4,0.3,4"/>
			<path id="XMLID_68_" class="st0" d="M151,223.4c1.3,0.3,3.9-0.8,3.9-0.8"/>
			<path id="XMLID_67_" class="st0" d="M145.6,221.9c-1.7,0.7-2.6-1.4-2.6-1.4"/>
			<path id="XMLID_66_" class="st0" d="M157.9,212.1c-0.5-0.5-0.9-2.4-0.9-2.4"/>
			<line id="XMLID_65_" class="st4" x1="149.9" y1="201.7" x2="147.2" y2="201.8"/>
			<path id="XMLID_64_" class="st0" d="M158,220.8c0.5-1.3-0.1-4-0.1-4"/>
		</g>
		<g>
			<path id="XMLID_63_" class="st0" d="M188.4,386.4c1.3,1.7-0.4,4.6-0.4,4.6"/>
			<path id="XMLID_62_" class="st0" d="M186.4,382.1c-0.3-1.4-2.2-3.4-2.2-3.4"/>
			<path id="XMLID_61_" class="st0" d="M183.5,399.3c1-0.9,1.8-3.5,1.8-3.5"/>
		</g>
	</g>
	<g id="XMLID_5_">
		<g id="XMLID_57_">
			<path id="XMLID_60_" class="st0" d="M208,107.7c0,0,0.1,5.4,6.6,7.8s11.4-17.1,11-35.2c-0.5-18.1-18,5.1-18,5.1"/>
			<path id="XMLID_59_" class="st0" d="M222,81c-1.8-5-8.6,5.6-8.6,5.6"/>
			<path id="XMLID_58_" class="st0" d="M212.6,100.4c1.7,6.5,5.4,2.6,6.8-3.2c1.5-5.9-8.6-3.2-8.6-3.2"/>
		</g>
		<path id="XMLID_56_" class="st6" d="M153.5,12.4c8.2-2.6,1.6-8.4,1.6-8.4C148,1,145.3,15,153.5,12.4z"/>
		<path id="XMLID_55_" class="st0" d="M207.9,131.4c-3.3,16.5-19.5,38.2-49.1,31.9s-27.8-17.7-35-79.6S169,18,169,18
			C234.8,26.2,211.2,114.9,207.9,131.4z"/>
		<path class="st7" d="M124,83.8c7.3,62,5.3,73.3,34.9,79.6c20.9,4.5,35.1-5.1,42.8-16.9c-7.8,4.9-18,7.3-30.7,4.6
			c-29.5-6.3-27.5-17.7-34.9-79.6c-2.4-20.4,1.7-34.5,8.3-44.3C131.9,35.7,120.1,52.2,124,83.8z"/>
		<path id="XMLID_54_" class="st2" d="M126.3,50.4c0,0,18.5-8.8,38.1-16.7c15.5,3.8,32.4,5.3,32.4,4c-0.1-13.4-3.9-49.1-41.5-32.2
			c-8.8,2.7-18.3,8-24.2,17.2c-0.5,0.7-0.9,1.4-1.3,2.1l0,0h-0.1c-1.8,3.4-2.7,6-2.9,8C125,38.9,126.3,50.4,126.3,50.4z"/>
		<path id="XMLID_53_" class="st0" d="M152.9,91.8c12.1,4.3,21.5-2.7,21.5-2.7"/>
		<path id="XMLID_52_" class="st0" d="M215.6,91.2c-3.2,1.4-18.3-1.8-18.3-1.8"/>
		<path id="XMLID_51_" class="st0" d="M161.8,160.5c-2.5,4.8,5.9,8.2,18.8,5.7s6.7-8.3,6.7-8.3"/>
		<path id="XMLID_50_" class="st2" d="M219.8,35.9c0,0,6.1-8.8-17-10.2c-23-1.4-68.6-1.3-76.2,24.7c0,0,12.4-5.5,35.9-10.7
			s43.6,3,43.6,3C216.3,40.2,219.8,35.9,219.8,35.9z"/>
		<path id="XMLID_49_" class="st0" d="M126.6,50.4c0,0,9.1-23.7,64.2-21.2s15.3,13.5,15.3,13.5C177.5,28.3,126.6,50.4,126.6,50.4z"
			/>
		<g>
			<path id="XMLID_48_" class="st0" d="M187,75.4c0.2,6.5-9.2,18.3-9.2,18.3"/>
			<g id="XMLID_45_">
				<path id="XMLID_47_" class="st0" d="M186.4,100c0.5,0.2,1,0.4,1.6,0.6c0.8,0.3,1.8,0.3,2.9,0.1c2-0.5,3-2.6,3.3-5.7"/>
				<path id="XMLID_46_" class="st0" d="M193.2,90.4c-2-13.5-9.2-32.8-9.2-32.8"/>
			</g>
			<g id="XMLID_39_">
				<path id="XMLID_44_" class="st0" d="M193.4,107c11.1-2.3,4.2-10.4,4.2-10.4"/>
				<path id="XMLID_43_" class="st0" d="M181.5,107c-10.5-4.2-3.1-10.4-3.1-10.4"/>
				<path id="XMLID_42_" class="st0" d="M181.8,103.5c-1.6-0.5-2.9,0.1-1.7-1.8s2.7,0.3,3.8,0C185,101.3,183.4,103.8,181.8,103.5z"
					/>
				<path id="XMLID_41_" class="st0" d="M193.2,102.6c1.2-0.7,2.4-1.2,2.8-0.9c1.1,0.9,0.6,2.6-1.5,2.7
					C194.5,104.4,192.4,103.2,193.2,102.6z"/>
				<path id="XMLID_40_" class="st0" d="M184.3,93.1c0.5-0.8,2.7-0.7,2.7-0.7"/>
			</g>
			<path id="XMLID_38_" class="st0" d="M209.5,105.3c-1.7-0.6-7.8-3.7-7.8-3.7"/>
			<path id="XMLID_37_" class="st0" d="M166.2,103.2c0.7,0.1,7.8-3.3,7.8-3.3"/>
		</g>
		<path id="XMLID_36_" class="st0" d="M144.4,72.5c-1.6-0.9-0.6-3-0.6-3"/>
		<path id="XMLID_35_" class="st0" d="M150.3,93.1c-0.6-0.7-1-2.5-1-2.5"/>
		<path id="XMLID_34_" class="st0" d="M148.7,50.5c-0.8,0,0,3.5,0,3.5"/>
		<path id="XMLID_33_" class="st0" d="M196.9,43.2c-0.4-0.5,2.9-1,2.9-1"/>
		<path id="XMLID_32_" class="st0" d="M175.5,47.1c0.3,0.8,4.1,1.3,4.1,1.3"/>
		<path id="XMLID_31_" class="st0" d="M195.4,143.9c0.2-0.6,3-1.2,3-1.2"/>
		<path id="XMLID_30_" class="st0" d="M178.3,146.3c-0.7-1.2-3.3-2.4-3.3-2.4"/>
		<path id="XMLID_29_" class="st0" d="M201,82.2"/>
		<path id="XMLID_28_" class="st0" d="M182.7,84.4"/>
		<line id="XMLID_27_" class="st4" x1="153.8" y1="104.1" x2="156.5" y2="104.8"/>
		<path id="XMLID_26_" class="st0" d="M132.6,114.1c0,0,0.3,5.3-5.9,8.3s-12.8-16.1-13.9-34.1c-1-18,18.4,3.6,18.4,3.6"/>
		<path id="XMLID_25_" class="st0" d="M116.6,88.9c1.3-5.2,9,4.8,9,4.8"/>
		<path id="XMLID_24_" class="st0" d="M127.6,107.4c-1.2,6.5-5.2,3-7.1-2.7s8.3-3.9,8.3-3.9"/>
		<g>
			<path id="XMLID_23_" class="st8" d="M190.7,75.9c-13-28.9,22.8-25.4,22.8-25.4C243.5,70.5,203.7,104.8,190.7,75.9z"/>
			<path id="XMLID_22_" class="st6" d="M207.1,68.7c-0.5-5.6,4.8-3.4,4.8-3.4C215.6,70.1,207.6,74.3,207.1,68.7z"/>
			<path id="XMLID_21_" class="st8" d="M167.3,88.2c32.6-10.6,6.4-33.7,6.4-33.7C145.2,42.7,134.7,98.8,167.3,88.2z"/>
			<path id="XMLID_20_" class="st6" d="M150.7,72c-0.6-5.6,4.8-3.4,4.8-3.4C159.2,73.3,151.3,77.6,150.7,72z"/>
			<path id="XMLID_19_" class="st6" d="M150.8,57c-0.9,3,15.5,11.2,24.2,2.7s-3.4-9.9-3.4-9.9C153.2,48.9,151.7,54,150.8,57z"/>
			<path id="XMLID_18_" class="st6" d="M191.6,49.3c1.2,4.5,16.5,15,25.1,4.7c8.6-10.3-10-9.3-10-9.3S190.4,44.8,191.6,49.3z"/>
			<g id="XMLID_15_">
				<path id="XMLID_17_" class="st0" d="M157.1,88.9c0.7,0.2,1.3,0.3,2.1,0.4c6.4,0.4,16.9-5.2,16.9-5.2c-7-1.9-19.1-1.1-19.1-1.1
					l-5.7,0.4c0,0-5.1,0.8-2.9,3.2c1,1,1.9,0.9,2.8,0.7c0.3,0,0.5-0.1,0.7-0.2C153,86.8,156.6,88.7,157.1,88.9z"/>
				<path id="XMLID_16_" class="st0" d="M215.4,81.3c0,0,5.1,0.8,2.9,3.2c-2.3,2.4-3.1,0.1-7.2,1.3c-12.5,3.8-16.4-4.6-16.4-4.6
					c7.8-2.4,14.9-1.1,14.9-1.1L215.4,81.3z"/>
			</g>
		</g>
		<g id="XMLID_10_">
			<path id="XMLID_14_" class="st6" d="M209.8,130.7c10.7-7-8.5-9.5-8.5-9.5S199.1,137.6,209.8,130.7z"/>
			<path id="XMLID_13_" class="st6" d="M191.3,119.1c1.1,3.5,14.1,11.9,21.4,3.7c7.2-8.1-8.6-7.3-8.6-7.3S190.2,115.6,191.3,119.1z"
				/>
			<path id="XMLID_12_" class="st6" d="M163.3,132.1c0.8,2.8,14.2,4.5,15.5-5.3s-6.4-7.2-6.4-7.2
				C161.2,124.6,162.5,129.3,163.3,132.1z"/>
			<path id="XMLID_11_" class="st6" d="M179.3,125c22.2-10.8-0.3-8-0.3-8C153.4,120.4,157.1,135.8,179.3,125z"/>
		</g>
		<g id="XMLID_6_">
			<path id="XMLID_9_" class="st0" d="M180.8,130.6c6.5,11.6,18.3,0,18.3,0"/>
			<path id="XMLID_8_" class="st0" d="M190.7,128.7c2.5-3.5,5.7,0,5.7,0"/>
			<path id="XMLID_7_" class="st0" d="M190.7,128.7c-2.4-3.5-5.6,0-5.6,0"/>
		</g>
	</g>
	<path id="XMLID_4_" class="st0" d="M153.8,184.9c0.7,1.3,1.5,1.9,2.4,2.2"/>
	<path id="XMLID_3_" class="st0" d="M186.9,182.2c0.8-1,1-2.1,1-2.1"/>
	<path id="XMLID_2_" class="st0" d="M179.9,190c0.3-0.1,0.7-0.3,0.9-0.4"/>
	<path id="XMLID_1_" class="st2" d="M209.4,225.1c-4.5,13.5-1.7,107.4-1.7,107.4"/>
</g>
</svg>
