<?xml version="1.0" encoding="utf-8"?>
<!-- Generator: Adobe Illustrator 22.1.0, SVG Export Plug-In . SVG Version: 6.00 Build 0)  -->
<svg version="1.1" id="Layer_1" xmlns="http://www.w3.org/2000/svg" xmlns:xlink="http://www.w3.org/1999/xlink" x="0px" y="0px"
	 viewBox="0 0 513 385" style="enable-background:new 0 0 513 385;" xml:space="preserve">
<style type="text/css">
	.st0{fill:#FFFAF2;stroke:#584C4F;stroke-miterlimit:10;}
	.st1{fill:#FFD767;stroke:#584C4F;stroke-miterlimit:10;}
	.st2{fill:#A36B78;stroke:#584C4F;stroke-linecap:round;stroke-miterlimit:10;}
	.st3{fill:#A36B78;}
	.st4{fill:#A36B78;stroke:#584C4F;stroke-linecap:round;stroke-linejoin:round;stroke-miterlimit:10;}
	.st5{fill:#584C4F;stroke:#584C4F;stroke-linecap:round;stroke-miterlimit:10;}
</style>
<g id="Layer_5">
</g>
<g id="Layer_3">
</g>
<g>
	<polygon class="st0" points="10.1,361 9.6,372.1 1.3,367.2 	"/>
	<g>
		<path class="st1" d="M54,362.6c6.2,0.2,11.9,1.2,11.9,4.7c0,5.3-0.7,8.2-5.6,8.8c0.5,0,0.9,0.1,1.4,0.1c8.6,0.5,9.6-2.4,9.6-8.9
			C71.3,362.9,61.9,362.4,54,362.6z"/>
		<path class="st1" d="M53.8,362.5c-1.7,0-3.3,0.1-4.7,0.2c-3.5-1.2-8.9-1.3-13.8-1.2c-0.2,0-0.5,0-0.7,0c-3.4-1.4-9.3-1.5-14.5-1.4
			c-3.5,0.1-6.8,0.3-8.7,0.4c-6.1,0.3-1.9,11.6-1.9,11.6s8.4,1.1,16.6,1.6c2.8,0.3,9.3,1,15.6,1.4c0.5,0,0.9,0.1,1.4,0.1
			c2,0.1,3.6,0,4.8-0.2c3.3,0.4,7.9,0.8,12.4,1.1c5-0.6,5.6-3.5,5.6-8.8C65.9,363.9,60.2,362.8,53.8,362.5z"/>
	</g>
	<g>
		<path id="XMLID_810_" class="st2" d="M219.6,196.5c-24.7,27.4-54.4,61-66,69.4C133.4,280.6,53.2,366.3,53.2,366.3L38.7,354
			c0,0,49.6-44.4,79.9-78c13.9-15.4,38.8-42.2,62-67.4"/>
		<g id="XMLID_798_">
			<path id="XMLID_809_" class="st3" d="M63.7,355.7l-11.9-14.4c0,0-39.9,12.9-33.6,18.2c3.3,2.8,5.2,3,6.3,2.6
				c-2.4,2.3-6.3,6.9,0.3,8.6l1-1.1c-0.2,2.5-0.4,10.5,6.5,7.8l1.3,0.4c0.9,3.4,3.5,9.7,9.4,0.5c1.1,1.1,3,2.4,6,3.9
				C64.2,389.7,63.7,355.9,63.7,355.7z"/>
			<path id="XMLID_808_" class="st2" d="M51.8,341.3c0,0-39.9,12.9-33.6,18.2c3.3,2.8,5.2,3,6.3,2.6c-2.4,2.3-6.3,6.9,0.3,8.6l1-1.1
				c-0.2,2.5-0.4,10.5,6.5,7.8l1.3,0.4c0.9,3.4,3.5,9.7,9.4,0.5c1.1,1.1,3,2.4,6,3.9c15.2,7.5,14.7-26.3,14.7-26.3"/>
			<g id="XMLID_803_">
				<path id="XMLID_807_" class="st4" d="M24.8,371c-8.9-2.3,1.2-9.9,1.2-9.9c-0.4,0.1-1.5,3.9-7.8-1.4s33.6-18.2,33.6-18.2"/>
				<path id="XMLID_806_" class="st4" d="M32.7,377.3c-8.7,3.8-6.9-8.3-6.9-8.3"/>
				<path id="XMLID_805_" class="st4" d="M50,375c-3.5-3.3-16.2-0.2-1,7.2c15.2,7.5,14.7-26.3,14.7-26.3"/>
				<path id="XMLID_804_" class="st4" d="M48,370.6l-4.4,6.7c-8.1,13.9-10.4-1.3-10.4-1.3"/>
			</g>
			<path id="XMLID_802_" class="st4" d="M55.5,342.4c-8.5-7.4-8.6,8.6-8.6,8.6"/>
			<path id="XMLID_801_" class="st2" d="M37.5,371.1c2.3-1.5,4.9-5.7,4.9-5.7"/>
			<path id="XMLID_800_" class="st2" d="M29,366.8c0.6,0.4,2.9-2.3,2.9-2.3"/>
			<path id="XMLID_799_" class="st4" d="M32.3,355.7c0,0,5.4-1.7,7.4-3"/>
		</g>
		<g id="XMLID_796_">
			<path id="XMLID_797_" class="st2" d="M123,273.6c-6.3-8,7.4-13.5,8.3-4.7"/>
		</g>
		<path id="XMLID_795_" class="st2" d="M128,268.6c1.5,0.2,1.4,2.2,1.4,2.2"/>
		<path id="XMLID_794_" class="st2" d="M124.7,273.2c-0.5-0.2-0.9-2.6-0.9-2.6"/>
	</g>
	<polygon class="st5" points="1.3,367.2 3.1,365.9 2.8,366.9 3.2,367.2 3,367.8 3.8,368.7 	"/>
</g>
</svg>
