<?xml version="1.0" encoding="utf-8"?>
<!-- Generator: Adobe Illustrator 22.1.0, SVG Export Plug-In . SVG Version: 6.00 Build 0)  -->
<svg version="1.1" id="Layer_1" xmlns="http://www.w3.org/2000/svg" xmlns:xlink="http://www.w3.org/1999/xlink" x="0px" y="0px"
	 viewBox="0 0 457.8 306.4" style="enable-background:new 0 0 457.8 306.4;" xml:space="preserve">
<style type="text/css">
	.st0{fill:#FDF7E0;stroke:#584C4F;stroke-width:4;stroke-miterlimit:10;}
	.st1{fill:#FFD767;stroke:#584C4F;stroke-width:4;stroke-miterlimit:10;}
	.st2{fill:#584C4F;stroke:#584C4F;stroke-width:4;stroke-miterlimit:10;}
</style>
<g>
	<g>
		<path id="XMLID_781_" class="st0" d="M330.5,113.3c0,0-0.4,0.7,0.9,0.8c40.1,0.9,104,0,104,0c1.2-0.1,0.9-0.8,0.9-0.8
			c1.6-22.7,0-65,0-65s0.4-0.7-0.9-0.8c-62.4-1.7-104.7,0-104.7,0c-1.2,0.1-0.9,0.8-0.9,0.8S329.7,83.9,330.5,113.3z"/>
		<path id="XMLID_780_" class="st0" d="M342.4,60.5c0,0-0.3-1.8,1.2-1.9c0,0,26.4-2.1,58.8,0c1.5,0.1,1.2,1.9,1.2,1.9
			s0.3,23.8-0.5,40.5c0,0,0.3,1.8-1.2,1.9c0,0-25.1,1.5-57.7,0c-1.5-0.1-1.2-1.9-1.2-1.9L342.4,60.5z"/>
		<g>
			<path class="st0" d="M354.3,23.7c6.6,6.7,14.4,14.5,21.6,21.5c0.3-0.3,0.5-0.6,0.8-0.8C350.8,19,354.3,23.7,354.3,23.7z"/>
			<path class="st0" d="M398.2,22.8c-6.7,6.6-14.5,14.4-21.5,21.6c0.3,0.3,0.6,0.5,0.8,0.8C402.9,19.3,398.2,22.8,398.2,22.8z"/>
			<path class="st0" d="M376.7,44.4c-0.3,0.3-0.5,0.6-0.8,0.8c0.3,0.3,0.6,0.5,0.8,0.8c0.3-0.3,0.6-0.6,0.8-0.8
				C377.3,44.9,377,44.6,376.7,44.4z"/>
		</g>
	</g>
	<g>
		<g>
			<path class="st0" d="M281.3,193.3c0,0-1.3-2.4-3.9-2.3c0,0-103,0.2-106-0.1c-2.6-0.2-3.9,2.3-3.9,2.3s-0.1,58.2,1.2,60.6
				c0,0,1.3,2.4,3.9,2.3c0,0,15.6,0.2,34.7,0.3c0-0.2,0-0.4,0.2-0.5c0.5-0.4,16.6-16.6,16.6-16.6c0.4-0.4,1.2,0,1.2,0
				c1.9,1.7,16.3,16.6,16.3,16.6s0.1,0.2,0.1,0.5c17.1,0,31.5-0.1,34.6-0.5c2.6-0.3,3.9-2.3,3.9-2.3S282,200.1,281.3,193.3z"/>
			<path class="st0" d="M225.4,239.4c0,0-0.8-0.4-1.2,0c0,0-16.1,16.2-16.6,16.6c-0.2,0.1-0.2,0.3-0.2,0.5
				c11.1,0.1,23.3,0.1,34.4,0.1c0-0.3-0.1-0.5-0.1-0.5S227.3,241.1,225.4,239.4z"/>
		</g>
		<g>
			<path class="st0" d="M213.6,223.7c0-0.2,0-0.5,0-0.7c0-1-0.1-2-0.3-3c-0.2-1.1-0.6-2.3-1.1-3.4c0,0-0.1-0.1-0.2-0.3
				c-0.6-1.9-1.6-3.4-2.9-4.5c-1.2-1.4-2.7-2.4-4.5-3c-0.9-0.5-1.8-1-2.8-1.5c0,0-0.7,0-1.8,0c-1.2-0.4-2.3-0.6-3.5-0.5
				c-0.2,0-0.5,0-0.7,0c-1,0-2,0.1-3,0.3c-1.1,0.2-2.3,0.6-3.4,1.1c0,0-0.1,0.1-0.3,0.2c-1.9,0.6-3.4,1.6-4.5,2.9
				c-1.4,1.2-2.4,2.7-3,4.5c-0.5,0.9-1,1.8-1.5,2.8c0,0,0,0.7,0,1.8c-0.4,1.2-0.6,2.3-0.5,3.5c0,0.2,0,0.5,0,0.7c0,1,0.1,2,0.3,3
				c0.2,1.1,0.6,2.3,1.1,3.4c0,0,0.1,0.1,0.2,0.3c0.6,1.9,1.6,3.4,2.9,4.5c1.2,1.4,2.7,2.4,4.5,3c0.9,0.5,1.8,1,2.8,1.5
				c0,0,0.7,0,1.8,0c1.2,0.4,2.3,0.6,3.5,0.5c0.2,0,0.5,0,0.7,0c1,0,2-0.1,3-0.3c1.1-0.2,2.3-0.6,3.4-1.1c0,0,0.1-0.1,0.3-0.2
				c1.9-0.6,3.4-1.6,4.5-2.9c1.4-1.2,2.4-2.7,3-4.5c0.5-0.9,1-1.8,1.5-2.8c0,0,0-0.7,0-1.8C213.5,226,213.6,224.9,213.6,223.7z"/>
			<path class="st0" d="M270.5,223.7c0-0.2,0-0.5,0-0.7c0-1-0.1-2-0.3-3c-0.2-1.1-0.6-2.3-1.1-3.4c0,0-0.1-0.1-0.2-0.3
				c-0.6-1.9-1.6-3.4-2.9-4.5c-1.2-1.4-2.7-2.4-4.5-3c-0.9-0.5-1.8-1-2.8-1.5c0,0-0.7,0-1.8,0c-1.2-0.4-2.3-0.6-3.5-0.5
				c-0.2,0-0.5,0-0.7,0c-1,0-2,0.1-3,0.3c-1.1,0.2-2.3,0.6-3.4,1.1c0,0-0.1,0.1-0.3,0.2c-1.9,0.6-3.4,1.6-4.5,2.9
				c-1.4,1.2-2.4,2.7-3,4.5c-0.5,0.9-1,1.8-1.5,2.8c0,0,0,0.7,0,1.8c-0.4,1.2-0.6,2.3-0.5,3.5c0,0.2,0,0.5,0,0.7c0,1,0.1,2,0.3,3
				c0.2,1.1,0.6,2.3,1.1,3.4c0,0,0.1,0.1,0.2,0.3c0.6,1.9,1.6,3.4,2.9,4.5c1.2,1.4,2.7,2.4,4.5,3c0.9,0.5,1.8,1,2.8,1.5
				c0,0,0.7,0,1.8,0c1.2,0.4,2.3,0.6,3.5,0.5c0.2,0,0.5,0,0.7,0c1,0,2-0.1,3-0.3c1.1-0.2,2.3-0.6,3.4-1.1c0,0,0.1-0.1,0.3-0.2
				c1.9-0.6,3.4-1.6,4.5-2.9c1.4-1.2,2.4-2.7,3-4.5c0.5-0.9,1-1.8,1.5-2.8c0,0,0-0.7,0-1.8C270.4,226,270.6,224.9,270.5,223.7z"/>
		</g>
	</g>
	<path id="XMLID_779_" class="st0" d="M189.8,18.5c0,0-0.8-0.4-0.8,0.9c-0.9,42.6,0,110.3,0,110.3c0.1,1.3,0.8,0.9,0.8,0.9
		c24.1,1.7,68.9,0,68.9,0s0.8,0.4,0.8-0.9c1.8-66.1,0-111.1,0-111.1c-0.1-1.3-0.8-0.9-0.8-0.9S221.1,17.7,189.8,18.5z"/>
	<g>
		<path class="st0" d="M410.4,271.8c-2.7-15.2-6.9-21.7-12.2-24.7c0,0-31.2-11.6-39.9,17.9c-0.7,2.4-1.2,4.6-1.4,6.7H410.4z"/>
		<path class="st0" d="M432.9,177.9c0,0,0.3-1-0.8-1.1c-58.2-2.4-97.8-0.1-97.8-0.1c-1.2,0.1-0.8,1.1-0.8,1.1s-0.1,33,0.3,67.6h99.6
			L432.9,177.9z"/>
		<path class="st0" d="M334.9,261.7c37.5,0.8,97.1,0,97.1,0c1.2-0.1,0.8-0.7,0.8-0.7c0.2-3.1,0.4-6.5,0.5-10.2v-5.9h-99.6
			c0.1,5.4,0.2,10.9,0.3,16.1C334.1,261,333.8,261.7,334.9,261.7z"/>
		<path class="st0" d="M420.2,188.7c0,0,0.3-0.7-0.6-0.7c-42.7-1.6-71.7,0-71.7,0c-0.9,0.1-0.6,0.7-0.6,0.7s0,21.7,0.2,44.5h73
			L420.2,188.7z"/>
	</g>
	<path class="st1" d="M308.8,166.8c0,0,0.4-10.7-0.2-19c1.1-18.9,0.8-84.2,0.2-117.4c0,0,1.5-37-5.1-26.5
		c-2.6,4.1-3.5,18.6-3.6,34.8s-0.4,67.7,0.2,100.9c0,0-0.4,10.7,0.2,19c-1.1,18.9-0.8,84.2-0.2,117.4c0,0-1.5,37,5.1,26.5
		c2.3-3.6,3.3-15.3,3.5-29C309.3,256,309.5,200,308.8,166.8z"/>
	<path class="st1" d="M157.4,166.8c0,0,0.4-10.7-0.2-19c1.1-18.9,0.8-84.2,0.2-117.4c0,0,1.5-37-5.1-26.5
		c-2.6,4.1-3.5,18.6-3.6,34.8s-0.4,67.7,0.2,100.9c0,0-0.4,10.7,0.2,19c-1.1,18.9-0.8,84.2-0.2,117.4c0,0-1.5,37,5.1,26.5
		c2.3-3.6,3.3-15.3,3.5-29C157.9,256,158.1,200,157.4,166.8z"/>
	<path class="st1" d="M453.9,152.3c-3.6-2.3-15.3-3.3-29-3.5c-17.6-0.3-73.5-0.5-106.7,0.2c0,0-10.7-0.4-19,0.2
		c-13.4-0.8-50.3-0.9-82.4-0.6c-14.3,0-28.9,0.1-41.5,0.3c-2.6,0-5.8,0-8.8,0.1c-1.9-0.1-11.3-0.4-18.7,0.2
		c-18.9-1.1-84.2-0.8-117.4-0.2c0,0-37-1.5-26.5,5.1c4,2.6,18.6,3.5,34.8,3.6c16.2,0,67.7,0.4,100.9-0.2c0,0,10.7,0.4,19-0.2
		c14.6,0.8,57,0.9,90.9,0.6c11.3,0,22.6-0.1,32.9-0.2c2.7,0,5.9,0,9-0.1c1.9,0.1,11.3,0.4,18.7-0.2c18.9,1.1,84.2,0.9,117.4,0.2
		C427.4,157.4,464.4,159,453.9,152.3z"/>
	<g>
		<path id="XMLID_792_" class="st0" d="M91.8,14c0,0,1.4-0.5,1.5,2.3c0,0,1.6,48.8,0,108.9c-0.1,2.8-1.5,2.3-1.5,2.3s-18.3,0.5-31-1
			c0,0-1.4,0.5-1.5-2.3c0,0-1.1-46.5,0-106.9c0.1-2.8,1.5-2.3,1.5-2.3L91.8,14z"/>
		<path id="XMLID_787_" class="st0" d="M95.3,37.6c0,0-41.1-15.3-52.5,23.6s23.3,46.7,28.1,46.4c4.7-0.3,45-3.6,41.7-29.5
			C109.2,52.3,103.1,42,95.3,37.6z"/>
		<path id="XMLID_790_" class="st0" d="M58.5,49.8c0,0-21.5,24,2.1,42.3s38.2-3.5,39.3-6.8c1.1-3.3,9.6-31.8-9-36.4
			S63.6,45.7,58.5,49.8z"/>
	</g>
	<path id="XMLID_2_" class="st0" d="M196.5,28.9c0,0-0.3-4,1.1-4.2c0,0,23.8-4.7,53.2,0.1c1.4,0.2,1.1,4.2,1.1,4.2
		s0.3,52.5-0.5,89.1c0,0,0.3,4-1.1,4.2c0,0-22.7,3.3-52.2,0.1c-1.4-0.1-1.1-4.2-1.1-4.2L196.5,28.9z"/>
	<path class="st2" d="M200.8,20.1c2.9,10.7,11.4,9.3,11.4,9.3s17.1,0,22.8,0c5.7,0,8.6-8.6,8.6-8.6l0.7-1.4L200.8,20.1z"/>
	<g>
		<path id="XMLID_794_" class="st0" d="M17.3,260.7c0,0-0.4,0.8,0.9,0.8c42.6,0.9,110.3,0,110.3,0c1.3-0.1,0.9-0.8,0.9-0.8
			c1.7-24.1,0-68.9,0-68.9s0.4-0.8-0.9-0.8c-66.1-1.8-111.1,0-111.1,0c-1.3,0.1-0.9,0.8-0.9,0.8S16.4,229.5,17.3,260.7z"/>
		<path id="XMLID_793_" class="st0" d="M24.8,200.3c0,0-0.4-2.3,1.7-2.4c0,0,35.8-2.7,79.8,0c2.1,0.1,1.7,2.4,1.7,2.4
			s0.4,30.4-0.7,51.6c0,0,0.4,2.3-1.7,2.4c0,0-34.1,1.9-78.4,0c-2.1-0.1-1.7-2.4-1.7-2.4L24.8,200.3z"/>
		<path id="XMLID_791_" class="st0" d="M115.9,224.2c0,0-1.8,4.7,2.7,6c4.5,1.3,5.4-2.7,5.3-3.2c0-0.5-0.4-5.2-3.4-4.8
			C117.6,222.6,116.5,223.3,115.9,224.2z"/>
	</g>
</g>
</svg>
