<?xml version="1.0" encoding="utf-8"?>
<!-- Generator: Adobe Illustrator 22.1.0, SVG Export Plug-In . SVG Version: 6.00 Build 0)  -->
<svg version="1.1" id="Layer_1" xmlns="http://www.w3.org/2000/svg" xmlns:xlink="http://www.w3.org/1999/xlink" x="0px" y="0px"
	 viewBox="0 0 267.4 87.3" style="enable-background:new 0 0 267.4 87.3;" xml:space="preserve">
<style type="text/css">
	.st0{opacity:0.1;fill:#231F20;stroke:#231F20;stroke-miterlimit:10;enable-background:new    ;}
	.st1{fill:#FFD767;stroke:#584C4F;stroke-width:2;stroke-miterlimit:10;}
	.st2{fill:#FFFAF2;stroke:#584C4F;stroke-width:2;stroke-miterlimit:10;}
</style>
<path class="st0" d="M109.7,69c0,0,0.8-0.9,1.7-2.5c1.4,5.3,3.7,9.4,6,8.9c2.5-0.5,4.4-1.7,5.6-4.1c1.3,2.7,4,5.6,9.1,3.3
	c1.5-0.7,2.6-2.4,3.4-4.9c1.4,3.6,3.2,6,5,5.7c3.3-0.7,5.6-2.5,6.6-7.1c2.6,4.5,7.3,7.2,15.9,7.2c0,0,2-0.8,3.6-2.2
	c1,1.5,2.1,2.4,3.2,2.1c3.2-0.7,5.5-2.4,6.5-6.7c2.1,4.3,7.4,5.9,10.9,6.5c1,0.2,2.1,0.3,3.2,0.3c0.1,0,0.1,0,0.1,0l0,0
	c1.2,0,2.5-0.2,4-0.5c3.6-0.8,6.5-2.6,8.6-4.9c0,0.1,0.1,0.1,0.1,0.2l0.1,0.1c0.1,0.1,0.1,0.1,0.2,0.2c0,0,0,0,0.1,0.1
	c0.1,0.1,0.2,0.2,0.3,0.2c0,0,0,0,0.1,0.1s0.1,0.1,0.2,0.2l0.1,0.1c0.1,0.1,0.1,0.1,0.2,0.2l0.1,0.1c0.1,0.1,0.2,0.1,0.2,0.2
	l0.1,0.1c0.1,0.1,0.2,0.2,0.3,0.2l0.1,0.1c0.1,0,0.2,0.1,0.2,0.1c0.1,0,0.1,0.1,0.2,0.1c0.1,0,0.1,0.1,0.2,0.1
	c0.1,0,0.1,0.1,0.2,0.1c0.1,0,0.2,0.1,0.2,0.1c0.1,0,0.2,0.1,0.3,0.1c0.1,0.1,0.2,0.1,0.3,0.2c0.1,0,0.2,0.1,0.2,0.1
	c0.1,0,0.1,0.1,0.2,0.1c0.1,0,0.2,0.1,0.3,0.1s0.1,0.1,0.2,0.1c0.1,0,0.2,0.1,0.3,0.1s0.1,0,0.2,0.1c0.2,0.1,0.4,0.2,0.7,0.3h0.1
	c0.1,0,0.2,0.1,0.3,0.1s0.1,0,0.2,0.1c0.1,0,0.2,0.1,0.3,0.1c0,0,0.1,0,0.1,0.1c0.1,0,0.2,0.1,0.4,0.1l0,0c0.4,0.1,0.9,0.3,1.4,0.4
	h0.1c0.1,0,0.3,0.1,0.4,0.1c0,0,0,0,0.1,0c0.6,0.1,1.3,0.3,1.9,0.4l0,0c0.8,0.1,1.7,0.2,2.5,0.2l0,0c0.8,0,1.7,0,2.5-0.1l0,0
	c0.8-0.1,1.6-0.3,2.4-0.5l0,0c0.6-0.2,1.2-0.4,1.8-0.7l0,0c0.1-0.1,0.3-0.1,0.4-0.2l0,0c0.6-0.3,1.1-0.7,1.6-1.1l0,0
	c0.1-0.1,0.2-0.2,0.3-0.3l0,0c0.5-0.4,0.9-1,1.3-1.5c0,0,0-0.1,0.1-0.1c0.1-0.1,0.2-0.3,0.3-0.4c0,0,0-0.1,0.1-0.1
	c0.1-0.1,0.2-0.3,0.3-0.4l0,0c0.3-0.5,0.5-1,0.7-1.5c0-0.1,0.1-0.1,0.1-0.2c0.1-0.1,0.1-0.3,0.2-0.4c0-0.1,0.1-0.2,0.1-0.3
	s0.1-0.3,0.1-0.4s0.1-0.2,0.1-0.3c0-0.1,0.1-0.3,0.1-0.4c0-0.1,0.1-0.3,0.1-0.4c0-0.2,0.1-0.4,0.1-0.6s0.1-0.3,0.1-0.5
	c0-0.1,0-0.3,0.1-0.4c0-0.2,0-0.3,0.1-0.5c0-0.1,0-0.3,0-0.4c0-0.2,0-0.3,0-0.5c0-0.1,0-0.3,0-0.4c0-0.2,0-0.4,0-0.6
	c0-0.1,0-0.2,0-0.4c0-0.3,0-0.6,0-1l0,0l0,0l0,0c-0.5-1.7-1.4-3.1-2.5-4.3c-0.4-0.5-0.9-0.9-1.3-1.2c-3.2-2.4-7.6-3.5-11.5-3.6l0,0
	v-0.1c0,0,0,0,0-0.1v-0.1c0,0,0,0,0-0.1v-0.1v-0.1c0,0,0-0.1,0.1-0.1c0,0,0-0.1,0.1-0.1v-0.1c0,0,0-0.1,0.1-0.1c0,0,0,0,0-0.1
	l0.1-0.1l0,0l0.1-0.1l0,0l0.1-0.1l0,0c0.1,0,0.1-0.1,0.2-0.1l0,0c0.1,0,0.1-0.1,0.2-0.1l0,0c1.5-0.8,4.6-0.4,10.3,2.3
	c0,0,5.4-0.3,5.5-4.5c0-0.3,0-0.6,0-0.9c0-0.1,0-0.2,0-0.2l0,0c0-0.1,0-0.1-0.1-0.2l0,0c0-0.1-0.1-0.2-0.1-0.2l0,0
	c-1-1.9-4.9-4.2-9.4-5.3l0,0c-0.6-0.2-1.2-0.3-1.8-0.4c0,0,0,0-0.1,0c-0.2,0-0.4-0.1-0.5-0.1h-0.1c-0.2,0-0.4,0-0.6-0.1l0,0
	c-0.2,0-0.4,0-0.6-0.1c0,0,0,0-0.1,0c-0.2,0-0.3,0-0.5,0c-0.1,0-0.1,0-0.2,0c-0.1,0-0.3,0-0.4,0c-0.1,0-0.1,0-0.2,0
	c-0.2,0-0.3,0-0.5,0H216c-0.2,0-0.4,0-0.6,0c-0.1,0-0.1,0-0.2,0c-0.1,0-0.2,0-0.4,0c-0.1,0-0.2,0-0.2,0c-0.1,0-0.2,0-0.3,0
	s-0.2,0-0.2,0c-0.1,0-0.2,0-0.4,0.1c-0.1,0-0.2,0-0.3,0.1c-0.1,0-0.3,0.1-0.4,0.1c-0.1,0-0.2,0-0.3,0.1c-0.1,0-0.2,0-0.3,0.1
	c-0.1,0-0.2,0.1-0.3,0.1s-0.2,0.1-0.3,0.1s-0.2,0.1-0.3,0.1s-0.2,0.1-0.2,0.1c-0.2,0.1-0.3,0.1-0.5,0.2c-0.1,0-0.1,0.1-0.2,0.1
	c-0.1,0-0.2,0.1-0.3,0.1s-0.1,0.1-0.2,0.1c-0.1,0-0.2,0.1-0.3,0.2c-0.1,0-0.1,0.1-0.2,0.1c-0.1,0.1-0.2,0.1-0.3,0.2l-0.1,0.1
	c-0.2,0.1-0.4,0.2-0.6,0.4c-0.1,0-0.1,0.1-0.2,0.1c-0.1,0.1-0.2,0.1-0.3,0.2c-0.1,0-0.1,0.1-0.2,0.1c-0.1,0.1-0.2,0.2-0.3,0.2
	s-0.1,0.1-0.1,0.1c-0.3,0.3-0.6,0.6-0.8,0.9l-0.1,0.1l0,0c-0.1,0.1-0.2,0.2-0.2,0.3s-0.1,0.1-0.1,0.2c-0.1,0.1-0.1,0.2-0.2,0.3
	c0,0.1-0.1,0.1-0.1,0.2c-0.1,0.1-0.1,0.2-0.2,0.4c0,0.1-0.1,0.1-0.1,0.2c-0.1,0.2-0.3,0.5-0.4,0.8c0,0.1-0.1,0.1-0.1,0.2
	c0,0.1-0.1,0.2-0.1,0.3c-2.2-3.7-5.9-6.4-11.1-6.9c-9.8-1-15.2,3.7-18,8.2c-0.8-2.6-2.9-4.7-8-2.9c-6.1,2-6.6,11.8-4.9,19.7
	c-0.2-0.1-0.3-0.1-0.5-0.2c-6-2.6-7.2-8.1-7.1-15v-0.1c2.5,0.1,6.3-0.8,5.6-7.1c-0.5-4.1-2.8-5.5-5.2-5.8l0.3-11.5
	c0,0-10-9.5-11.8,5.5c-1.5-1.6-3.3-2.6-3.3-2.6c-3.4-2.7-6.1,0.1-7,3.7c-0.6-2.3-1.3-3.9-1.9-4.4c-2.7-2.2-8.9-12.1-10.9,3.1
	c-1.5-1.4-3.1-2.4-3.1-2.4c-8-6.3-11.6,17,0.2,11.9c0.9-0.4,1.7-0.8,2.3-1.2c-0.1,1.8-0.1,3.8-0.1,6c-1.2-0.3-2.8-0.2-4.9,0.5
	c-1.6,0.5-2.8,1.6-3.7,3.1c-1-1.8-2.4-3.7-4.3-5.5c-3.8-3.6-8.3-4.7-12.7-3.9c-0.8-26.7-8.8-14-12.1-11.5c-1.8,1.4-3.6,9.8-4.4,19.1
	c-0.8-1.1-1.9-2.1-3.1-3c-15.1-11.1-26.9,2.8-26.9,2.8s-9.7,22.2,8.8,28c4.8,1.5,9.3,0.9,13.1-1c1.3,1.7,3.7,2.9,7.8,0.5
	c1.2-0.7,2-1.4,2.5-2.2c0.7,1.4,1.6,2.3,2.7,2.8c3.5,1.4,5.9,0.7,7.5-0.7C97.1,75.4,108.2,71.2,109.7,69z M185.7,54.8
	c0,0,1.3-1.4,3-2.3c0.2,0.8,0.5,1.6,0.9,2.5c1.4,2.8,4.6,3.1,7.6,2.3c1.9,1.6,4.2,2.5,6.5,0.9c0.5-0.3,0.9-0.7,1.3-1
	c0.4,0.7,0.9,1.4,1.5,2c0.4,0.5,0.9,0.9,1.3,1.2c3.2,2.4,7.6,3.5,11.5,3.6c0,0.1,0,0.1-0.1,0.2l0,0c0,0.1,0,0.1-0.1,0.2l0,0
	c0,0.1-0.1,0.1-0.1,0.2l0,0c0,0.1-0.1,0.1-0.1,0.2l0,0c0,0.1-0.1,0.1-0.1,0.2l0,0l-0.1,0.1l0,0l-0.1,0.1l0,0l-0.1,0.1l0,0l-0.1,0.1
	l0,0c0,0-0.1,0.1-0.2,0.1l0,0c-0.1,0-0.1,0.1-0.2,0.1c0,0,0,0-0.1,0s-0.1,0-0.2,0.1c0,0,0,0-0.1,0s-0.1,0-0.2,0.1c0,0,0,0-0.1,0
	s-0.1,0-0.2,0H217c-0.1,0-0.1,0-0.2,0h-0.1c-0.1,0-0.1,0-0.2,0h-0.1c-0.1,0-0.1,0-0.2,0h-0.1c-0.1,0-0.2,0-0.2,0h-0.1
	c-0.1,0-0.2,0-0.2,0h-0.1c-0.1,0-0.2,0-0.3,0s-0.1,0-0.2,0c-0.1,0-0.2,0-0.3,0s-0.1,0-0.2,0c-0.1,0-0.2,0-0.3-0.1
	c-0.1,0-0.1,0-0.2,0c-0.1,0-0.2,0-0.3-0.1c-0.1,0-0.1,0-0.2,0c-0.1,0-0.2-0.1-0.3-0.1s-0.1,0-0.2-0.1c-0.1,0-0.2-0.1-0.3-0.1
	s-0.1,0-0.2-0.1c-0.1,0-0.2-0.1-0.4-0.1c-0.1,0-0.1,0-0.2-0.1c-0.1,0-0.3-0.1-0.4-0.1c-0.1,0-0.1-0.1-0.2-0.1
	c-0.1-0.1-0.3-0.1-0.4-0.2c-0.1,0-0.1-0.1-0.2-0.1c-0.2-0.1-0.3-0.1-0.5-0.2c-0.1,0-0.1-0.1-0.2-0.1c-0.2-0.1-0.4-0.2-0.6-0.2
	c0,0-0.1,0-0.1-0.1c-0.5-0.2-1-0.4-1.5-0.7c0,0-1.1,0.1-2.3,0.5c-1.2-3.2-4.7-3.7-6.9-4.1c-1.4-0.2-2.9,0.7-4,1.6
	c-0.1,0.1-0.2,0.2-0.3,0.3C190.4,64.3,180.5,58.9,185.7,54.8z M141.5,40.2c1.1-0.5,2.1-1,2.8-1.5c-0.1,2.2-0.1,4.3-0.2,6.4
	c-1.2-0.4-2.9-0.4-5.2,0.3c-0.9,0.3-1.6,0.8-2.3,1.4c-0.2-2.3-0.4-4.6-0.7-6.7C137.1,41.1,138.9,41.3,141.5,40.2z M56.8,55.2
	c0,0,6.7-12.1,11.9-0.3C74,66.6,50.7,63.3,56.8,55.2z M98.2,51.4L98.2,51.4c0.9-0.2,1.5-0.1,2,0.2c1.3,0.7,1.7,2.6,1.7,2.6l0,0
	c0.7,2.1,0.4,4.6,0.4,4.6c0.1,3.4-2.6,4-5.2,3.1c0,0-0.2-0.1-0.6-0.2c-0.4-0.1-1.1-0.3-1.8-0.4c0.2-3.4,0.3-6.6,0.4-9.4
	c0.6,0,1.3-0.1,1.8-0.1C97.5,51.6,97.9,51.5,98.2,51.4z"/>
<path class="st1" d="M169.6,27.3c-8-6.3-11.6,17,0.2,11.9C181.5,34.1,169.6,27.3,169.6,27.3z"/>
<g id="XMLID_3786_">
	<g id="XMLID_3790_">
		<path id="XMLID_3795_" class="st1" d="M61.2,41"/>
		<path id="XMLID_3792_" class="st1" d="M70.7,38.8c-15.1-11-26.9,2.9-26.9,2.9s-9.7,22.2,8.8,28C71,75.6,85.8,49.9,70.7,38.8z
			 M63.9,50c5.2,11.7-18.1,8.4-11.9,0.3C52,50.3,58.7,38.3,63.9,50z"/>
		<path id="XMLID_3791_" class="st1" d="M64.8,37.4"/>
	</g>
	<path id="XMLID_3789_" class="st1" d="M64.1,64.9c0,0,1.3,9,9.4,4.2c8.1-4.8-0.4-12.6-0.4-12.6"/>
</g>
<g id="XMLID_3783_">
	<path id="XMLID_3785_" class="st1" d="M103,38.1c13,12.5,1.7,26,1.7,26c-1.8,2.7-18.1,8.3-21.8,3.1l0,0c-3.7-5.3,0.2-8.4,2.4-10.2
		c1.7-1.4,4.9-0.6,6.2-0.2c0.4,0.1,0.6,0.2,0.6,0.2c2.7,0.8,5.4,0.2,5.2-3.1c0,0,0.3-2.5-0.4-4.6l0,0c0,0-0.4-1.9-1.7-2.6
		c-0.5-0.3-1.1-0.4-1.9-0.2h-0.1c-0.4,0.1-0.8,0.2-1.2,0.3c-3.2,0.5-8.4,0-8.8-4.3c-0.4-5,0.8-5.3,1.5-6.2l0,0
		c0.7-0.9,2.8-1.3,2.8-1.3l0,0C92.8,33.1,98.5,33.7,103,38.1z"/>
	<path id="XMLID_3784_" class="st1" d="M90.4,44c-0.1,5.3-0.4,11.5-1,18.9c0,0-1.9,10.6-10.8,6.9s-4.5-44-0.4-47.1
		c3.3-2.5,11.6-15.6,12.2,13"/>
</g>
<g id="XMLID_3779_">
	<g id="XMLID_3781_">
		<path id="XMLID_3782_" class="st1" d="M119.2,49.6c0,0,2.4-12.6-8.2-9s-4.2,31.2,1.4,30C118.1,69.3,120.7,64.9,119.2,49.6z"/>
	</g>
	<path id="XMLID_3780_" class="st1" d="M113.5,23.4c0,0,12,6.9,0.2,11.9S105.4,17.1,113.5,23.4z"/>
</g>
<path id="XMLID_3778_" class="st1" d="M116.8,62.9c0,0,1.8,10.6,10.3,6.9s4.3-44,0.4-47.1S112.6,0.4,116.8,62.9z"/>
<g id="XMLID_3774_">
	<g id="XMLID_3776_">
		<path id="XMLID_3777_" class="st1" d="M142.2,49.6c0,0,2.4-12.6-8.2-9c-10.6,3.6-4.2,31.2,1.4,30C141,69.3,143.6,64.9,142.2,49.6z
			"/>
	</g>
	<path id="XMLID_3775_" class="st1" d="M136.4,23.4c0,0,12,6.9,0.2,11.9S128.4,17.1,136.4,23.4z"/>
</g>
<g id="XMLID_3771_">
	<path id="XMLID_3773_" class="st1" d="M151.5,20.5c0,0-11.8-11.2-12,9.9c-0.3,21.1-4.2,40.3,18.4,40.2c0,0,12.3-5.1,0-10.5
		c-6-2.6-7.2-8.1-7.1-15"/>
	<path id="XMLID_3772_" class="st1" d="M148.7,44.6c0,0,8.8,2.4,7.7-6.8c-1.1-9.3-11.7-4.7-11.7-4.7"/>
</g>
<g id="XMLID_3767_">
	<g id="XMLID_3769_">
		<path id="XMLID_3770_" class="st1" d="M171.5,49.6c0,0,2.4-12.6-8.2-9s-4.2,31.2,1.4,30C170.3,69.3,172.9,64.9,171.5,49.6z"/>
	</g>
	<path id="XMLID_3768_" class="st1" d="M165.7,23.4c0,0,12,6.9,0.2,11.9S157.7,17.1,165.7,23.4z"/>
</g>
<g id="XMLID_3750_">
	<path id="XMLID_3752_" class="st1" d="M190.2,40.1c0,0-3.1-2.2-4.5-0.5c-1.4,1.7-3.7,4.6-0.9,10.4s13.1,1,14.1-1.7"/>
	<path id="XMLID_3751_" class="st1" d="M201.8,45L201.8,45c-1.9-5.1-6.1-9.1-12.5-9.7c-12.7-1.3-18,7-20,12c0,0-0.4,0.7-0.8,2.2
		c-0.3,0.9-0.3,1.6-0.3,2c-0.2,2.7,0.3,6.8,2.8,12.2c2.1,4.4,7.4,6,11,6.5c1,0.2,2.1,0.3,3.2,0.3c0.1,0,0.1,0,0.1,0l0,0
		c1.2,0,2.5-0.2,4-0.5c5.6-1.3,9.4-4.8,11.6-9.2c-0.4-5.1-4.7-5.7-7.3-6.1c-1.4-0.2-2.9,0.7-4,1.6c-0.1,0.1-0.2,0.2-0.3,0.3
		c-3.8,2.8-13.6-2.7-8.4-6.8c0,0,1.8-1.9,3.8-2.7l0,0c0,0,1.7-0.9,3.1-0.4c0.5,0.2,1,0.6,1.4,1.3c0,0,0,0.1,0.1,0.1
		c0.2,0.3,0.4,0.7,0.6,1.1c1.7,2.8,5.5,6.4,9,3.9c4.1-2.9,3.6-4.1,3.8-5.2l0,0C202.8,46.9,201.8,45,201.8,45z"/>
</g>
<g id="XMLID_3746_">
	<path id="XMLID_3749_" class="st1" d="M221.2,47.4c0,0,6.1-0.3,5.5-5.4c-0.5-4.1-17.7-11.5-24.7-2.6c-1.8,2.3-3,5.7-2.9,10.6l0,0
		c0.5,1.7,1.4,3.1,2.5,4.2c0.4,0.5,0.9,0.9,1.3,1.2c3.2,2.4,7.6,3.5,11.5,3.6c-0.6,2.2-3.2,3.4-11.6-0.6c0,0-6.1,0.3-5.5,5.4
		c0.5,4.1,17.7,11.5,24.7,2.6c1.8-2.3,3-5.7,2.9-10.6l0,0c-0.5-1.7-1.4-3.1-2.5-4.3c-0.4-0.5-0.9-0.9-1.3-1.2
		c-3.2-2.4-7.6-3.5-11.5-3.6C210.2,44.6,212.9,43.3,221.2,47.4z"/>
	<path id="XMLID_3748_" class="st1" d="M213.5,53.7c0,0,5.9,12.6-10.7,4.6c0,0-6.1,0.3-5.5,5.4s27.8,15.6,27.6-8.1"/>
	<path id="XMLID_3747_" class="st1" d="M210.5,52c0,0-5.9-12.6,10.7-4.6c0,0,6.1-0.3,5.5-5.4c-0.7-5.1-27.8-15.6-27.6,8.1"/>
</g>
<path class="st0" d="M164.6,22.3c-8-6.3-11.6,17,0.2,11.9C176.5,29.1,164.6,22.3,164.6,22.3z"/>
<g id="XMLID_71_">
	<g id="XMLID_73_">
		<path id="XMLID_78_" class="st2" d="M56.2,36"/>
		<path id="XMLID_75_" class="st2" d="M65.7,33.8c-15.1-11-26.9,2.9-26.9,2.9s-9.7,22.2,8.8,28C66,70.6,80.8,44.9,65.7,33.8z
			 M58.9,45c5.2,11.7-18.1,8.4-11.9,0.3C47,45.3,53.7,33.3,58.9,45z"/>
		<path id="XMLID_74_" class="st2" d="M59.8,32.4"/>
	</g>
	<path id="XMLID_72_" class="st2" d="M59.1,59.9c0,0,1.3,9,9.4,4.2c8.1-4.8-0.4-12.6-0.4-12.6"/>
</g>
<g id="XMLID_68_">
	<path id="XMLID_70_" class="st2" d="M98,33.1c13,12.5,1.7,26,1.7,26c-1.8,2.7-18.1,8.3-21.8,3.1l0,0c-3.7-5.3,0.2-8.4,2.4-10.2
		c1.7-1.4,4.9-0.6,6.2-0.2c0.4,0.1,0.6,0.2,0.6,0.2c2.7,0.8,5.4,0.2,5.2-3.1c0,0,0.3-2.5-0.4-4.6l0,0c0,0-0.4-1.9-1.7-2.6
		c-0.5-0.3-1.1-0.4-1.9-0.2h-0.1c-0.4,0.1-0.8,0.2-1.2,0.3c-3.2,0.5-8.4,0-8.8-4.3c-0.4-5,0.8-5.3,1.5-6.2l0,0
		c0.7-0.9,2.8-1.3,2.8-1.3l0,0C87.8,28.1,93.5,28.7,98,33.1z"/>
	<path id="XMLID_69_" class="st2" d="M85.4,39c-0.1,5.3-0.4,11.5-1,18.9c0,0-1.9,10.6-10.8,6.9s-4.5-44-0.3-47.1
		c3.3-2.5,11.6-15.6,12.2,13"/>
</g>
<g id="XMLID_64_">
	<g id="XMLID_66_">
		<path id="XMLID_67_" class="st2" d="M114.2,44.6c0,0,2.4-12.6-8.2-9s-4.2,31.2,1.4,30C113.1,64.3,115.7,59.9,114.2,44.6z"/>
	</g>
	<path id="XMLID_65_" class="st2" d="M108.5,18.4c0,0,12,6.9,0.2,11.9S100.4,12.1,108.5,18.4z"/>
</g>
<path id="XMLID_63_" class="st2" d="M111.8,57.9c0,0,1.8,10.6,10.3,6.9s4.3-44,0.4-47.1S107.6-4.6,111.8,57.9z"/>
<g id="XMLID_59_">
	<g id="XMLID_61_">
		<path id="XMLID_62_" class="st2" d="M137.2,44.6c0,0,2.4-12.6-8.2-9c-10.6,3.6-4.2,31.2,1.4,30C136,64.3,138.6,59.9,137.2,44.6z"
			/>
	</g>
	<path id="XMLID_60_" class="st2" d="M131.4,18.4c0,0,12,6.9,0.2,11.9S123.4,12.1,131.4,18.4z"/>
</g>
<g id="XMLID_56_">
	<path id="XMLID_58_" class="st2" d="M146.5,15.5c0,0-11.8-11.2-12,9.9c-0.3,21.1-4.2,40.3,18.4,40.2c0,0,12.3-5.1,0-10.5
		c-6-2.6-7.2-8.1-7.1-15"/>
	<path id="XMLID_57_" class="st2" d="M143.7,39.6c0,0,8.8,2.4,7.7-6.8c-1.1-9.3-11.7-4.7-11.7-4.7"/>
</g>
<g id="XMLID_52_">
	<g id="XMLID_54_">
		<path id="XMLID_55_" class="st2" d="M166.5,44.6c0,0,2.4-12.6-8.2-9s-4.2,31.2,1.4,30C165.3,64.3,167.9,59.9,166.5,44.6z"/>
	</g>
	<path id="XMLID_53_" class="st2" d="M160.7,18.4c0,0,12,6.9,0.2,11.9C149.1,35.3,152.7,12.1,160.7,18.4z"/>
</g>
<g id="XMLID_35_">
	<path id="XMLID_37_" class="st2" d="M185.2,35.1c0,0-3.1-2.2-4.5-0.5c-1.4,1.7-3.7,4.6-0.9,10.4s13.1,1,14.1-1.7"/>
	<path id="XMLID_36_" class="st2" d="M196.8,40L196.8,40c-1.9-5.1-6.1-9.1-12.5-9.7c-12.7-1.3-18,7-20,12c0,0-0.4,0.7-0.8,2.2
		c-0.3,0.9-0.3,1.6-0.3,2c-0.2,2.7,0.3,6.8,2.8,12.2c2.1,4.4,7.4,6,11,6.5c1,0.2,2.1,0.3,3.2,0.3c0.1,0,0.1,0,0.1,0l0,0
		c1.2,0,2.5-0.2,4-0.5c5.6-1.3,9.4-4.8,11.6-9.2c-0.4-5.1-4.7-5.7-7.3-6.1c-1.4-0.2-2.9,0.7-4,1.6c-0.1,0.1-0.2,0.2-0.3,0.3
		c-3.8,2.8-13.6-2.7-8.4-6.8c0,0,1.8-1.9,3.8-2.7l0,0c0,0,1.7-0.9,3.1-0.4c0.5,0.2,1,0.6,1.4,1.3c0,0,0,0.1,0.1,0.1
		c0.2,0.3,0.4,0.7,0.6,1.1c1.7,2.8,5.5,6.4,9,3.9c4.1-2.9,3.6-4.1,3.8-5.2l0,0C197.8,41.9,196.8,40,196.8,40z"/>
</g>
<g id="XMLID_31_">
	<path id="XMLID_34_" class="st2" d="M216.2,42.4c0,0,6.1-0.3,5.5-5.4c-0.5-4.1-17.7-11.5-24.7-2.6c-1.8,2.3-3,5.7-2.9,10.6l0,0
		c0.5,1.7,1.4,3.1,2.5,4.2c0.4,0.5,0.9,0.9,1.3,1.2c3.2,2.4,7.6,3.5,11.5,3.6c-0.6,2.2-3.2,3.4-11.6-0.6c0,0-6.1,0.3-5.5,5.4
		c0.5,4.1,17.7,11.5,24.7,2.6c1.8-2.3,3-5.7,2.9-10.6l0,0c-0.5-1.7-1.4-3.1-2.5-4.3c-0.4-0.5-0.9-0.9-1.3-1.2
		c-3.2-2.4-7.6-3.5-11.5-3.6C205.2,39.6,207.9,38.3,216.2,42.4z"/>
	<path id="XMLID_33_" class="st2" d="M208.5,48.7c0,0,5.9,12.6-10.7,4.6c0,0-6.1,0.3-5.5,5.4s27.8,15.6,27.6-8.1"/>
	<path id="XMLID_32_" class="st2" d="M205.5,47c0,0-5.9-12.6,10.7-4.6c0,0,6.1-0.3,5.5-5.4c-0.7-5.1-27.8-15.6-27.6,8.1"/>
</g>
</svg>
