<?xml version="1.0" encoding="utf-8"?>
<!-- Generator: Adobe Illustrator 22.1.0, SVG Export Plug-In . SVG Version: 6.00 Build 0)  -->
<svg version="1.1" id="Layer_1" xmlns="http://www.w3.org/2000/svg" xmlns:xlink="http://www.w3.org/1999/xlink" x="0px" y="0px"
	 viewBox="0 0 267.4 87.3" style="enable-background:new 0 0 267.4 87.3;" xml:space="preserve">
<style type="text/css">
	.st0{opacity:0.1;fill:#231F20;stroke:#231F20;stroke-miterlimit:10;enable-background:new    ;}
	.st1{fill:#FFD767;stroke:#584C4F;stroke-width:2;stroke-miterlimit:10;}
	.st2{fill:#FFFAF2;stroke:#584C4F;stroke-width:2;stroke-miterlimit:10;}
</style>
<path class="st0" d="M64.4,63.7c1.5-0.7,2.6-2.5,3.4-5.1c1.4,3.7,3.2,6.2,5,5.8c2.5-0.5,4.4-1.7,5.7-4.3c0.8,1.8,1.8,3,3,3.5
	c3.5,1.4,5.9,0.7,7.5-0.7c6,1.4,17.1-2.8,18.6-5c0,0,0.2-0.2,0.5-0.6c2.3,9.9,13.3,9.2,13-1.3c-0.5-14.2,4.4-15.3,10-13.2
	c0.1,0,0.1,0,0.2,0.1c-1.2,7-0.6,16.9,10.9,20.6c4.8,1.5,9.3,0.9,13.1-1c1.3,1.7,3.7,2.9,7.8,0.5c0.8-0.5,1.5-1,2-1.6
	c3.8,5.6,11.6,3.7,11.3-5.2c-0.5-14.2,4.4-15.3,10-13.2c0.3,0.1,0.7,0.2,1,0.3c0.5,11.1,7.3,25.5,21.5,22.2c0.8-0.2,1.6-0.4,2.3-0.7
	c0,4.6-0.9,11.8-6.4,13.3c-8.2,2.2-7.2,11.4,1.9,11c8-0.4,16.3-6.1,15.5-36c2.8-9.3-0.6-20.2-0.6-20.2s-8.9-7.9-10.4,5.7
	c0,0-0.5,9.1-4.6,9.9c-4.2,0.7-6.6-5.7-6.2-7.9c0,0-0.7-12.4-9.1-8.7c-0.2,0.1-0.4,0.2-0.6,0.4c-3.1-1.6-9.9-4.3-16.1-1.3
	c-1.3-1.6-3.6-2.7-7.5-0.4c-2.7,1.6-3.5,3.6-3.3,5.5c-0.9-1.2-2-2.4-3.4-3.4c-10.5-7.7-19.3-3.4-23.8,0c-2.3-1.4-10.1-5.4-17.2-1.9
	c-1.3-1.6-3.6-2.7-7.5-0.4c-2.2,1.3-3.1,2.8-3.3,4.4c-0.7-0.9-1.5-1.9-2.5-2.8c-3.8-3.6-8.3-4.7-12.7-3.9
	c-0.8-26.7-8.8-14-12.1-11.5c-0.8,0.6-1.6,2.6-2.3,5.5c-1.3-2.7-4.9-4.8-4.9-4.8c-3.8-2.8-6.4,0.2-7.3,3.9c-0.6-2.4-1.3-4.1-2-4.6
	c-3.9-3.1-14.9-22.3-10.6,40.2C54.2,56.8,55.9,67.4,64.4,63.7z M141.5,44.2c0,0,6.7-12.1,11.9-0.3C158.6,55.6,135.3,52.3,141.5,44.2
	z M96.2,40.4L96.2,40.4c0.9-0.2,1.5-0.1,2,0.2c1.3,0.7,1.7,2.6,1.7,2.6l0,0c0.7,2.1,0.4,4.6,0.4,4.6c0.1,3.4-2.6,4-5.2,3.1
	c0,0-0.2-0.1-0.6-0.2c-0.4-0.1-1.1-0.3-1.8-0.4c0.2-3.4,0.3-6.6,0.4-9.4c0.6,0,1.3-0.1,1.8-0.1C95.4,40.6,95.8,40.5,96.2,40.4z
	 M74,29.2c1.7-0.7,2.9-1.5,3.7-2.3c-0.4,2.2-0.7,4.7-0.9,7.2c-1.3-0.5-3-0.5-5.4,0.3c-0.9,0.3-1.7,0.8-2.4,1.5
	c-0.2-2.4-0.4-4.8-0.7-6.9C69.5,30,71.4,30.4,74,29.2z"/>
<g id="XMLID_3806_">
	<g id="XMLID_3808_">
		<path id="XMLID_3809_" class="st1" d="M74.8,38.6c0,0,2.4-12.6-8.2-9s-4.3,31.1,1.3,29.9C73.6,58.3,76.2,53.9,74.8,38.6z"/>
	</g>
	<path id="XMLID_3807_" class="st1" d="M69,12.4c0,0,12,6.9,0.2,11.9S61,6.1,69,12.4z"/>
</g>
<path id="XMLID_3805_" class="st1" d="M49.3,51.9c0,0,1.8,10.6,10.3,6.9s4.3-44,0.4-47.1S45-10.6,49.3,51.9z"/>
<g id="XMLID_3802_">
	<path id="XMLID_3804_" class="st1" d="M101,27.1c13,12.5,1.7,26,1.7,26c-1.8,2.7-18.1,8.3-21.8,3.1l0,0c-3.7-5.3,0.2-8.4,2.4-10.2
		c1.7-1.4,4.9-0.6,6.2-0.2c0.4,0.1,0.6,0.2,0.6,0.2c2.7,0.8,5.4,0.2,5.2-3.1c0,0,0.3-2.5-0.4-4.6l0,0c0,0-0.4-1.9-1.7-2.6
		c-0.5-0.3-1.1-0.4-1.9-0.2h-0.1c-0.4,0.1-0.8,0.2-1.2,0.3c-3.2,0.5-8.4,0-8.8-4.3c-0.4-5,0.8-5.3,1.5-6.2l0,0
		c0.7-0.9,2.8-1.3,2.8-1.3l0,0C90.7,22.1,96.4,22.7,101,27.1z"/>
	<path id="XMLID_3803_" class="st1" d="M88.3,33c-0.1,5.3-0.4,11.5-1,18.9c0,0-1.9,10.6-10.8,6.9s-4.5-44-0.4-47.1
		c3.3-2.5,11.6-15.6,12.2,13"/>
</g>
<g id="XMLID_3799_">
	<path id="XMLID_3801_" class="st1" d="M132.2,28.3c0,0-19.2-13.2-27.5,10.1s11.9,27,11.4,12.8s4.4-15.3,10-13.2
		C131.8,40.2,139.6,37.9,132.2,28.3z"/>
	<path id="XMLID_3800_" class="st1" d="M115.9,29.7c0,0-1.3-8.7-9.1-4.1s0.5,12.1,0.5,12.1"/>
</g>
<g id="XMLID_3759_">
	<g id="XMLID_3761_">
		<path id="XMLID_3766_" class="st1" d="M145.9,30"/>
		<path id="XMLID_3763_" class="st1" d="M155.4,27.8c-15.1-11-26.9,2.9-26.9,2.9s-9.7,22.2,8.8,28C155.6,64.6,170.4,38.9,155.4,27.8
			z M148.5,39c5.2,11.7-18.1,8.4-11.9,0.3C136.6,39.3,143.3,27.3,148.5,39z"/>
		<path id="XMLID_3762_" class="st1" d="M149.4,26.4"/>
	</g>
	<path id="XMLID_3760_" class="st1" d="M148.7,53.9c0,0,1.3,9,9.4,4.2c8.1-4.8-0.4-12.6-0.4-12.6"/>
</g>
<g id="XMLID_3756_">
	<path id="XMLID_3758_" class="st1" d="M195.4,35.8c0,0-0.7-12.4-9.1-8.7c-8.4,3.7-3.7,38.7,17.6,33.7s12.7-32.6,12.7-32.6
		s-8.9-7.9-10.4,5.7c0,0-0.5,9.1-4.6,9.9S195,38,195.4,35.8z"/>
	<path id="XMLID_3757_" class="st1" d="M206.1,56.3c0,0,2,14.9-6.2,17.1c-8.2,2.2-7.2,11.4,1.9,11c9.2-0.5,18.6-7.8,14.6-50.2"/>
</g>
<g id="XMLID_3753_">
	<path id="XMLID_3755_" class="st1" d="M187.5,28.5c0,0-19.2-13.2-27.5,10.1s11.9,27,11.4,12.8s4.4-15.3,10-13.2
		C187,40.4,194.9,38.1,187.5,28.5z"/>
	<path id="XMLID_3754_" class="st1" d="M171.2,29.8c0,0-1.3-8.7-9.1-4.1c-7.8,4.6,0.4,12.2,0.4,12.2"/>
</g>
<g id="XMLID_89_">
	<g id="XMLID_91_">
		<path id="XMLID_92_" class="st2" d="M69.8,33.6c0,0,2.4-12.6-8.2-9s-4.3,31.1,1.3,29.9C68.6,53.3,71.2,48.9,69.8,33.6z"/>
	</g>
	<path id="XMLID_90_" class="st2" d="M64,7.4c0,0,12,6.9,0.2,11.9S56,1.1,64,7.4z"/>
</g>
<path id="XMLID_88_" class="st2" d="M44.3,46.9c0,0,1.8,10.6,10.3,6.9s4.3-44,0.4-47.1S40-15.6,44.3,46.9z"/>
<g id="XMLID_85_">
	<path id="XMLID_87_" class="st2" d="M96,22.1c13,12.5,1.7,26,1.7,26c-1.8,2.7-18.1,8.3-21.8,3.1l0,0c-3.7-5.3,0.2-8.4,2.4-10.2
		c1.7-1.4,4.9-0.6,6.2-0.2c0.4,0.1,0.6,0.2,0.6,0.2c2.7,0.8,5.4,0.2,5.2-3.1c0,0,0.3-2.5-0.4-4.6l0,0c0,0-0.4-1.9-1.7-2.6
		c-0.5-0.3-1.1-0.4-1.9-0.2h-0.1c-0.4,0.1-0.8,0.2-1.2,0.3c-3.2,0.5-8.4,0-8.8-4.3c-0.4-5,0.8-5.3,1.5-6.2l0,0
		c0.7-0.9,2.8-1.3,2.8-1.3l0,0C85.7,17.1,91.4,17.7,96,22.1z"/>
	<path id="XMLID_86_" class="st2" d="M83.3,28c-0.1,5.3-0.4,11.5-1,18.9c0,0-1.9,10.6-10.8,6.9S67,9.8,71.1,6.7
		c3.3-2.5,11.6-15.6,12.2,13"/>
</g>
<g id="XMLID_82_">
	<path id="XMLID_84_" class="st2" d="M127.2,23.3c0,0-19.2-13.2-27.5,10.1s11.9,27,11.4,12.8s4.4-15.3,10-13.2
		C126.8,35.2,134.6,32.9,127.2,23.3z"/>
	<path id="XMLID_83_" class="st2" d="M110.9,24.7c0,0-1.3-8.7-9.1-4.1s0.5,12.1,0.5,12.1"/>
</g>
<g id="XMLID_44_">
	<g id="XMLID_46_">
		<path id="XMLID_51_" class="st2" d="M140.9,25"/>
		<path id="XMLID_48_" class="st2" d="M150.4,22.8c-15.1-11-26.9,2.9-26.9,2.9s-9.7,22.2,8.8,28C150.6,59.6,165.4,33.9,150.4,22.8z
			 M143.5,34c5.2,11.7-18.1,8.4-11.9,0.3C131.6,34.3,138.3,22.3,143.5,34z"/>
		<path id="XMLID_47_" class="st2" d="M144.4,21.4"/>
	</g>
	<path id="XMLID_45_" class="st2" d="M143.7,48.9c0,0,1.3,9,9.4,4.2c8.1-4.8-0.4-12.6-0.4-12.6"/>
</g>
<g id="XMLID_41_">
	<path id="XMLID_43_" class="st2" d="M190.4,30.8c0,0-0.7-12.4-9.1-8.7c-8.4,3.7-3.7,38.7,17.6,33.7s12.7-32.6,12.7-32.6
		s-8.9-7.9-10.4,5.7c0,0-0.5,9.1-4.6,9.9S190,33,190.4,30.8z"/>
	<path id="XMLID_42_" class="st2" d="M201.1,51.3c0,0,2,14.9-6.2,17.1c-8.2,2.2-7.2,11.4,1.9,11c9.2-0.5,18.6-7.8,14.6-50.2"/>
</g>
<g id="XMLID_38_">
	<path id="XMLID_40_" class="st2" d="M182.5,23.5c0,0-19.2-13.2-27.5,10.1s11.9,27,11.4,12.8s4.4-15.3,10-13.2
		S189.9,33.1,182.5,23.5z"/>
	<path id="XMLID_39_" class="st2" d="M166.2,24.8c0,0-1.3-8.7-9.1-4.1c-7.8,4.6,0.4,12.2,0.4,12.2"/>
</g>
</svg>
