<?xml version="1.0" encoding="utf-8"?>
<!-- Generator: Adobe Illustrator 22.1.0, SVG Export Plug-In . SVG Version: 6.00 Build 0)  -->
<svg version="1.1" id="Layer_1" xmlns="http://www.w3.org/2000/svg" xmlns:xlink="http://www.w3.org/1999/xlink" x="0px" y="0px"
	 viewBox="0 0 42.2 43.6" style="enable-background:new 0 0 42.2 43.6;" xml:space="preserve">
<style type="text/css">
	.st0{opacity:0.1;fill:#36423E;stroke:#36423E;stroke-linecap:round;stroke-miterlimit:10;}
	.st1{fill:#FCF4E9;stroke:#221F1F;stroke-miterlimit:10;}
</style>
<path class="st0" d="M20.9,31.7c-1.2,3.5,0.5,10.2,2,9.9c1.9-0.5,2.9-2.2,2.4-8.2c0,0,0.2-1.2,0-2.2c21.8-4.4,3.5-22.5,3.5-22.5
	C17.2-6.5-0.4,32.4,20.9,31.7z"/>
<g>
	<g id="XMLID_2922_">
		<path id="XMLID_2923_" class="st1" d="M23.2,30.6c0,0,0.9-5-2.8-3.6c-3.6,1.4-1.5,12.3,0.5,11.8S23.7,36.6,23.2,30.6z"/>
	</g>
	<g id="XMLID_2926_">
		<path id="XMLID_2927_" class="st1" d="M26.7,5.8c0,0,19.3,19.1-5.6,22.9S14.7-9.8,26.7,5.8z"/>
	</g>
	<path id="XMLID_2909_" class="st1" d="M25.8,11c0,0,9.6,15.1-6.9,13.9S20.4-0.8,25.8,11z"/>
</g>
</svg>
