<?xml version="1.0" encoding="utf-8"?>
<!-- Generator: Adobe Illustrator 22.1.0, SVG Export Plug-In . SVG Version: 6.00 Build 0)  -->
<svg version="1.1" id="Layer_1" xmlns="http://www.w3.org/2000/svg" xmlns:xlink="http://www.w3.org/1999/xlink" x="0px" y="0px"
	 viewBox="0 0 214.8 160.8" style="enable-background:new 0 0 214.8 160.8;" xml:space="preserve">
<style type="text/css">
	.st0{fill:#90A55E;stroke:#90A55E;stroke-linecap:round;stroke-miterlimit:10;}
	.st1{fill:#A9D277;stroke:#90A55E;stroke-linecap:round;stroke-miterlimit:10;}
</style>
<g>
	<g>
		<g>
			<path class="st0" d="M214.3,80.4c-0.2-2.9-0.5-5.3-3.3-5.4c-0.6,0-3.2,0-3.7,0c-1.9-0.1-5,1-10,4c-12,7.2,1.4,13.3,1.4,13.3
				c2.7,2.2,5.1,2.8,7,2.6c0.4-0.1,2.7,0,3.3,0c4.3,0,6.2-4.5,2.3-7.5C205.7,83.2,214.6,85.2,214.3,80.4z"/>
			<g id="XMLID_2428_">
				<path id="XMLID_2429_" class="st0" d="M198.6,92.4c0,0-13.4-6.1-1.4-13.3c12-7.2,12.8-3.5,13.1,1.3c0.3,4.8-8.6,2.8-3.2,7.1
					C212.6,91.9,206.7,99,198.6,92.4z"/>
			</g>
		</g>
		<line id="XMLID_2427_" class="st0" x1="202.2" y1="92.9" x2="203.4" y2="93.4"/>
		<path id="XMLID_2426_" class="st0" d="M209.9,93.2c0,0,1.9-0.3,2-0.6"/>
		<path id="XMLID_2425_" class="st0" d="M207,85.4c0,0,1,0.1,1.2-0.2"/>
	</g>
	<g>
		<path id="XMLID_2424_" class="st0" d="M89.3,63.3c0,0-0.2,0.4,0.5,0.4c21.2,0.5,55,0,55,0c0.7,0,0.5-0.4,0.5-0.4
			c0.9-12,0-34.3,0-34.3s0.2-0.4-0.5-0.4c-33-0.9-55.3,0-55.3,0c-0.7,0-0.5,0.4-0.5,0.4S88.9,47.8,89.3,63.3z"/>
		<path id="XMLID_2423_" class="st0" d="M95.6,35.4c0,0-0.2-1,0.6-1c0,0,13.9-1.1,31.1,0c0.8,0.1,0.6,1,0.6,1s0.1,12.6-0.3,21.4
			c0,0,0.2,1-0.6,1c0,0-13.3,0.8-30.5,0c-0.8,0-0.6-1-0.6-1L95.6,35.4z"/>
		<g>
			<path class="st0" d="M101.8,16c3.5,3.6,7.6,7.7,11.4,11.4c0.1-0.1,0.3-0.3,0.4-0.4C100,13.5,101.8,16,101.8,16z"/>
			<path class="st0" d="M125.1,15.5c-3.6,3.5-7.6,7.6-11.4,11.4c0.1,0.1,0.3,0.3,0.4,0.4C127.5,13.7,125.1,15.5,125.1,15.5z"/>
			<path class="st0" d="M113.7,26.9c-0.1,0.1-0.3,0.3-0.4,0.4c0.1,0.1,0.3,0.3,0.4,0.4c0.1-0.1,0.3-0.3,0.4-0.4
				C114,27.2,113.8,27,113.7,26.9z"/>
		</g>
	</g>
	<g>
		<g>
			<path class="st0" d="M63.3,105.6c0,0-0.7-1.3-2-1.2c0,0-54.4,0.1-56,0c-1.4-0.1-2,1.2-2,1.2s0,30.7,0.6,32c0,0,0.7,1.3,2,1.2
				c0,0,8.2,0.1,18.3,0.1c0-0.1,0-0.2,0.1-0.3c0.3-0.2,8.8-8.8,8.8-8.8c0.2-0.2,0.6,0,0.6,0c1,0.9,8.6,8.8,8.6,8.8s0.1,0.1,0.1,0.3
				c9,0,16.6-0.1,18.3-0.2c1.4-0.2,2-1.2,2-1.2S63.7,109.2,63.3,105.6z"/>
			<path class="st0" d="M33.7,129.9c0,0-0.4-0.2-0.6,0c0,0-8.5,8.5-8.8,8.8c-0.1,0.1-0.1,0.2-0.1,0.3c5.8,0,12.3,0.1,18.2,0.1
				c0-0.2-0.1-0.3-0.1-0.3S34.7,130.8,33.7,129.9z"/>
		</g>
		<g>
			<path class="st0" d="M27.5,121.7c0-0.1,0-0.2,0-0.4c0-0.5,0-1.1-0.2-1.6c-0.1-0.6-0.3-1.2-0.6-1.8c0,0-0.1-0.1-0.1-0.1
				c-0.3-1-0.8-1.8-1.5-2.4c-0.6-0.7-1.4-1.2-2.4-1.6c-0.5-0.3-0.9-0.5-1.5-0.8c0,0-0.4,0-0.9,0c-0.6-0.2-1.2-0.3-1.8-0.3
				c-0.1,0-0.2,0-0.4,0c-0.5,0-1.1,0-1.6,0.2c-0.6,0.1-1.2,0.3-1.8,0.6c0,0-0.1,0.1-0.1,0.1c-1,0.3-1.8,0.8-2.4,1.5
				c-0.7,0.6-1.2,1.4-1.6,2.4c-0.3,0.5-0.5,0.9-0.8,1.5c0,0,0,0.4,0,0.9c-0.2,0.6-0.3,1.2-0.3,1.8c0,0.1,0,0.2,0,0.4
				c0,0.5,0,1.1,0.2,1.6c0.1,0.6,0.3,1.2,0.6,1.8c0,0,0.1,0.1,0.1,0.1c0.3,1,0.8,1.8,1.5,2.4c0.6,0.7,1.4,1.2,2.4,1.6
				c0.5,0.3,0.9,0.5,1.5,0.8c0,0,0.4,0,0.9,0c0.6,0.2,1.2,0.3,1.8,0.3c0.1,0,0.2,0,0.4,0c0.5,0,1.1,0,1.6-0.2
				c0.6-0.1,1.2-0.3,1.8-0.6c0,0,0.1-0.1,0.1-0.1c1-0.3,1.8-0.8,2.4-1.5c0.7-0.6,1.2-1.4,1.6-2.4c0.3-0.5,0.5-0.9,0.8-1.5
				c0,0,0-0.4,0-0.9C27.4,122.9,27.5,122.3,27.5,121.7z"/>
			<path class="st0" d="M57.6,121.7c0-0.1,0-0.2,0-0.4c0-0.5,0-1.1-0.2-1.6c-0.1-0.6-0.3-1.2-0.6-1.8c0,0-0.1-0.1-0.1-0.1
				c-0.3-1-0.8-1.8-1.5-2.4c-0.6-0.7-1.4-1.2-2.4-1.6c-0.5-0.3-0.9-0.5-1.5-0.8c0,0-0.4,0-0.9,0c-0.6-0.2-1.2-0.3-1.8-0.3
				c-0.1,0-0.2,0-0.4,0c-0.5,0-1.1,0-1.6,0.2c-0.6,0.1-1.2,0.3-1.8,0.6c0,0-0.1,0.1-0.1,0.1c-1,0.3-1.8,0.8-2.4,1.5
				c-0.7,0.6-1.2,1.4-1.6,2.4c-0.3,0.5-0.5,0.9-0.8,1.5c0,0,0,0.4,0,0.9c-0.2,0.6-0.3,1.2-0.3,1.8c0,0.1,0,0.2,0,0.4
				c0,0.5,0,1.1,0.2,1.6c0.1,0.6,0.3,1.2,0.6,1.8c0,0,0.1,0.1,0.1,0.1c0.3,1,0.8,1.8,1.5,2.4c0.6,0.7,1.4,1.2,2.4,1.6
				c0.5,0.3,0.9,0.5,1.5,0.8c0,0,0.4,0,0.9,0c0.6,0.2,1.2,0.3,1.8,0.3c0.1,0,0.2,0,0.4,0c0.5,0,1.1,0,1.6-0.2
				c0.6-0.1,1.2-0.3,1.8-0.6c0,0,0.1-0.1,0.1-0.1c1-0.3,1.8-0.8,2.4-1.5c0.7-0.6,1.2-1.4,1.6-2.4c0.3-0.5,0.5-0.9,0.8-1.5
				c0,0,0-0.4,0-0.9C57.5,122.9,57.6,122.3,57.6,121.7z"/>
		</g>
	</g>
	<g>
		<path id="XMLID_2422_" class="st0" d="M15,13.2c0,0-0.4-0.2-0.4,0.5c-0.5,22.5,0,58.3,0,58.3c0,0.7,0.4,0.5,0.4,0.5
			c12.7,0.9,36.4,0,36.4,0s0.4,0.2,0.4-0.5c1-34.9,0-58.7,0-58.7c0-0.7-0.4-0.5-0.4-0.5S31.5,12.8,15,13.2z"/>
		<path id="XMLID_2421_" class="st0" d="M44.6,19.9c0,0,1-0.2,1.1,0.7c0,0,1.2,14.8,0,33c-0.1,0.8-1.1,0.7-1.1,0.7
			s-13.4,0.2-22.7-0.3c0,0-1,0.2-1.1-0.7c0,0-0.8-14.1,0-32.4c0-0.9,1.1-0.7,1.1-0.7L44.6,19.9z"/>
		<path id="XMLID_2420_" class="st0" d="M35.8,59.5c0,0-5.9-2.2-7.6,3.4c-1.6,5.6,3.4,6.7,4,6.7c0.7,0,6.5-0.5,6-4.2
			C37.8,61.7,36.9,60.2,35.8,59.5z"/>
	</g>
	<g>
		<path class="st0" d="M131.5,147.1c-1.4-8-3.6-11.5-6.4-13c0,0-16.5-6.1-21.1,9.5c-0.4,1.3-0.6,2.4-0.8,3.6H131.5z"/>
		<path class="st0" d="M143.4,97.4c0,0,0.2-0.5-0.4-0.6c-30.8-1.3-51.7,0-51.7,0c-0.6,0.1-0.4,0.6-0.4,0.6s0,17.4,0.2,35.7h52.6
			L143.4,97.4z"/>
		<path class="st0" d="M91.6,141.7c19.8,0.4,51.3,0,51.3,0c0.6,0,0.4-0.4,0.4-0.4c0.1-1.6,0.2-3.5,0.3-5.4v-3.1H91
			c0,2.9,0.1,5.7,0.2,8.5C91.2,141.4,91,141.7,91.6,141.7z"/>
		<path class="st0" d="M136.7,103.2c0,0,0.1-0.4-0.3-0.4c-22.6-0.8-37.9,0-37.9,0c-0.5,0-0.3,0.4-0.3,0.4s0,11.5,0.1,23.5h38.6
			L136.7,103.2z"/>
	</g>
	<g>
		<g>
			<path class="st1" d="M209.9,80.4c-0.2-2.9-0.5-5.3-3.3-5.4c-0.6,0-3.2,0-3.7,0c-1.9-0.1-5,1-10,4c-12,7.2,1.4,13.3,1.4,13.3
				c2.7,2.2,5.1,2.8,7,2.6c0.4-0.1,2.7,0,3.3,0c4.3,0,6.2-4.5,2.3-7.5C201.3,83.2,210.2,85.2,209.9,80.4z"/>
			<g id="XMLID_2418_">
				<path id="XMLID_2419_" class="st1" d="M194.2,92.4c0,0-13.4-6.1-1.4-13.3s12.8-3.5,13.1,1.3c0.3,4.8-8.6,2.8-3.2,7.1
					C208.2,91.9,202.2,99,194.2,92.4z"/>
			</g>
		</g>
		<line id="XMLID_2417_" class="st1" x1="197.8" y1="92.9" x2="199" y2="93.4"/>
		<path id="XMLID_2416_" class="st1" d="M205.5,93.2c0,0,1.9-0.3,2-0.6"/>
		<path id="XMLID_2415_" class="st1" d="M202.6,85.4c0,0,1,0.1,1.2-0.2"/>
	</g>
	<g>
		<path id="XMLID_2414_" class="st1" d="M94.1,59.3c0,0-0.2,0.4,0.5,0.4c21.2,0.5,55,0,55,0c0.7,0,0.5-0.4,0.5-0.4
			c0.9-12,0-34.3,0-34.3s0.2-0.4-0.5-0.4c-33-0.9-55.3,0-55.3,0c-0.7,0-0.5,0.4-0.5,0.4S93.7,43.8,94.1,59.3z"/>
		<path id="XMLID_2413_" class="st1" d="M100.4,31.4c0,0-0.2-1,0.6-1c0,0,13.9-1.1,31.1,0c0.8,0.1,0.6,1,0.6,1s0.1,12.6-0.3,21.4
			c0,0,0.2,1-0.6,1c0,0-13.3,0.8-30.5,0c-0.8,0-0.6-1-0.6-1L100.4,31.4z"/>
		<g>
			<path class="st1" d="M106.6,12c3.5,3.6,7.6,7.7,11.4,11.4c0.1-0.1,0.3-0.3,0.4-0.4C104.8,9.5,106.6,12,106.6,12z"/>
			<path class="st1" d="M129.9,11.5c-3.6,3.5-7.6,7.6-11.4,11.4c0.1,0.1,0.3,0.3,0.4,0.4C132.3,9.7,129.9,11.5,129.9,11.5z"/>
			<path class="st1" d="M118.5,22.9c-0.1,0.1-0.3,0.3-0.4,0.4c0.1,0.1,0.3,0.3,0.4,0.4c0.1-0.1,0.3-0.3,0.4-0.4
				C118.8,23.2,118.6,23,118.5,22.9z"/>
		</g>
	</g>
	<g>
		<g>
			<path class="st1" d="M68.1,101.6c0,0-0.7-1.3-2-1.2c0,0-54.4,0.1-56,0c-1.4-0.1-2,1.2-2,1.2s0,30.7,0.6,32c0,0,0.7,1.3,2,1.2
				c0,0,8.2,0.1,18.3,0.1c0-0.1,0-0.2,0.1-0.3c0.3-0.2,8.8-8.8,8.8-8.8c0.2-0.2,0.6,0,0.6,0c1,0.9,8.6,8.8,8.6,8.8s0.1,0.1,0.1,0.3
				c9,0,16.6-0.1,18.3-0.2c1.4-0.2,2-1.2,2-1.2S68.5,105.2,68.1,101.6z"/>
			<path class="st1" d="M38.5,125.9c0,0-0.4-0.2-0.6,0c0,0-8.5,8.5-8.8,8.8c-0.1,0.1-0.1,0.2-0.1,0.3c5.8,0,12.3,0.1,18.2,0.1
				c0-0.2-0.1-0.3-0.1-0.3S39.6,126.8,38.5,125.9z"/>
		</g>
		<g>
			<path class="st1" d="M32.3,117.7c0-0.1,0-0.2,0-0.4c0-0.5,0-1.1-0.2-1.6c-0.1-0.6-0.3-1.2-0.6-1.8c0,0-0.1-0.1-0.1-0.1
				c-0.3-1-0.8-1.8-1.5-2.4c-0.6-0.7-1.4-1.2-2.4-1.6c-0.5-0.3-0.9-0.5-1.5-0.8c0,0-0.4,0-0.9,0c-0.6-0.2-1.2-0.3-1.8-0.3
				c-0.1,0-0.2,0-0.4,0c-0.5,0-1.1,0-1.6,0.2c-0.6,0.1-1.2,0.3-1.8,0.6c0,0-0.1,0.1-0.1,0.1c-1,0.3-1.8,0.8-2.4,1.5
				c-0.7,0.6-1.2,1.4-1.6,2.4c-0.3,0.5-0.5,0.9-0.8,1.5c0,0,0,0.4,0,0.9c-0.2,0.6-0.3,1.2-0.3,1.8c0,0.1,0,0.2,0,0.4
				c0,0.5,0,1.1,0.2,1.6c0.1,0.6,0.3,1.2,0.6,1.8c0,0,0.1,0.1,0.1,0.1c0.3,1,0.8,1.8,1.5,2.4c0.6,0.7,1.4,1.2,2.4,1.6
				c0.5,0.3,0.9,0.5,1.5,0.8c0,0,0.4,0,0.9,0c0.6,0.2,1.2,0.3,1.8,0.3c0.1,0,0.2,0,0.4,0c0.5,0,1.1,0,1.6-0.2
				c0.6-0.1,1.2-0.3,1.8-0.6c0,0,0.1-0.1,0.1-0.1c1-0.3,1.8-0.8,2.4-1.5c0.7-0.6,1.2-1.4,1.6-2.4c0.3-0.5,0.5-0.9,0.8-1.5
				c0,0,0-0.4,0-0.9C32.2,118.9,32.3,118.3,32.3,117.7z"/>
			<path class="st1" d="M62.4,117.7c0-0.1,0-0.2,0-0.4c0-0.5,0-1.1-0.2-1.6c-0.1-0.6-0.3-1.2-0.6-1.8c0,0-0.1-0.1-0.1-0.1
				c-0.3-1-0.8-1.8-1.5-2.4c-0.6-0.7-1.4-1.2-2.4-1.6c-0.5-0.3-0.9-0.5-1.5-0.8c0,0-0.4,0-0.9,0c-0.6-0.2-1.2-0.3-1.8-0.3
				c-0.1,0-0.2,0-0.4,0c-0.5,0-1.1,0-1.6,0.2c-0.6,0.1-1.2,0.3-1.8,0.6c0,0-0.1,0.1-0.1,0.1c-1,0.3-1.8,0.8-2.4,1.5
				c-0.7,0.6-1.2,1.4-1.6,2.4c-0.3,0.5-0.5,0.9-0.8,1.5c0,0,0,0.4,0,0.9c-0.2,0.6-0.3,1.2-0.3,1.8c0,0.1,0,0.2,0,0.4
				c0,0.5,0,1.1,0.2,1.6c0.1,0.6,0.3,1.2,0.6,1.8c0,0,0.1,0.1,0.1,0.1c0.3,1,0.8,1.8,1.5,2.4c0.6,0.7,1.4,1.2,2.4,1.6
				c0.5,0.3,0.9,0.5,1.5,0.8c0,0,0.4,0,0.9,0c0.6,0.2,1.2,0.3,1.8,0.3c0.1,0,0.2,0,0.4,0c0.5,0,1.1,0,1.6-0.2
				c0.6-0.1,1.2-0.3,1.8-0.6c0,0,0.1-0.1,0.1-0.1c1-0.3,1.8-0.8,2.4-1.5c0.7-0.6,1.2-1.4,1.6-2.4c0.3-0.5,0.5-0.9,0.8-1.5
				c0,0,0-0.4,0-0.9C62.3,118.9,62.4,118.3,62.4,117.7z"/>
		</g>
	</g>
	<g>
		<path id="XMLID_2412_" class="st1" d="M19.8,9.2c0,0-0.4-0.2-0.4,0.5c-0.5,22.5,0,58.3,0,58.3c0,0.7,0.4,0.5,0.4,0.5
			c12.7,0.9,36.4,0,36.4,0s0.4,0.2,0.4-0.5c1-34.9,0-58.7,0-58.7c0-0.7-0.4-0.5-0.4-0.5S36.3,8.8,19.8,9.2z"/>
		<path id="XMLID_2411_" class="st1" d="M49.4,15.9c0,0,1-0.2,1.1,0.7c0,0,1.2,14.8,0,33c-0.1,0.8-1.1,0.7-1.1,0.7
			S36,50.4,26.7,49.9c0,0-1,0.2-1.1-0.7c0,0-0.8-14.1,0-32.4c0-0.9,1.1-0.7,1.1-0.7L49.4,15.9z"/>
		<path id="XMLID_2410_" class="st1" d="M40.6,55.5c0,0-5.9-2.2-7.6,3.4c-1.6,5.6,3.4,6.7,4,6.7s6.5-0.5,6-4.2
			C42.6,57.7,41.7,56.2,40.6,55.5z"/>
	</g>
	<g>
		<path class="st1" d="M136.3,143.1c-1.4-8-3.6-11.5-6.4-13c0,0-16.5-6.1-21.1,9.5c-0.4,1.3-0.6,2.4-0.8,3.6H136.3z"/>
		<path class="st1" d="M148.2,93.4c0,0,0.2-0.5-0.4-0.6c-30.8-1.3-51.7,0-51.7,0c-0.6,0.1-0.4,0.6-0.4,0.6s0,17.4,0.2,35.7h52.6
			L148.2,93.4z"/>
		<path class="st1" d="M96.4,137.7c19.8,0.4,51.3,0,51.3,0c0.6,0,0.4-0.4,0.4-0.4c0.1-1.6,0.2-3.5,0.3-5.4v-3.1H95.8
			c0,2.9,0.1,5.7,0.2,8.5C96,137.4,95.8,137.7,96.4,137.7z"/>
		<path class="st1" d="M141.5,99.2c0,0,0.1-0.4-0.3-0.4c-22.6-0.8-37.9,0-37.9,0c-0.5,0-0.3,0.4-0.3,0.4s0,11.5,0.1,23.5h38.6
			L141.5,99.2z"/>
	</g>
	<g>
		<path class="st1" d="M82.6,87.6c0,0,0.2-5.7-0.1-10.1c0.6-10,0.4-44.5,0.1-62c0,0,0.8-19.6-2.7-14C78.6,3.6,78,11.3,78,19.9
			c0,8.5-0.2,35.8,0.1,53.3c0,0-0.2,5.7,0.1,10.1c-0.6,10-0.4,44.5-0.1,62c0,0-0.8,19.6,2.7,14c1.2-1.9,1.7-8.1,1.9-15.3
			C82.9,134.7,83,105.1,82.6,87.6z"/>
		<path class="st1" d="M87.6,78.2c0,0-5.7-0.2-10.1,0.1c-10-0.6-44.5-0.4-62-0.1c0,0-19.6-0.8-14,2.7c2.1,1.4,9.8,1.9,18.4,1.9
			c8.5,0,35.8,0.2,53.3-0.1c0,0,5.7,0.2,10.1-0.1c10,0.6,44.5,0.4,62,0.1c0,0,19.6,0.8,14-2.7c-1.9-1.2-8.1-1.7-15.3-1.9
			C134.7,77.9,105.1,77.8,87.6,78.2z"/>
	</g>
</g>
</svg>
