<?xml version="1.0" encoding="utf-8"?>
<!-- Generator: Adobe Illustrator 22.1.0, SVG Export Plug-In . SVG Version: 6.00 Build 0)  -->
<svg version="1.1" id="Layer_1" xmlns="http://www.w3.org/2000/svg" xmlns:xlink="http://www.w3.org/1999/xlink" x="0px" y="0px"
	 viewBox="0 0 267.4 87.3" style="enable-background:new 0 0 267.4 87.3;" xml:space="preserve">
<style type="text/css">
	.st0{opacity:0.1;fill:#231F20;stroke:#231F20;stroke-miterlimit:10;enable-background:new    ;}
	.st1{fill:#FFD767;stroke:#584C4F;stroke-width:2;stroke-miterlimit:10;}
	.st2{fill:#FFFAF2;stroke:#584C4F;stroke-width:2;stroke-miterlimit:10;}
</style>
<path class="st0" d="M232.3,40.8c0-0.2-0.1-0.3-0.1-0.5c0,0,0-0.1-0.1-0.1c-0.1-0.1-0.1-0.3-0.2-0.4c0,0-0.1-0.1-0.1-0.1
	c-0.1-0.1-0.2-0.3-0.3-0.4c0,0-0.1-0.1-0.1-0.1c-0.3-0.4-0.8-0.8-1.2-1.1c0,0-0.1-0.1-0.1-0.1c-0.2-0.2-0.4-0.3-0.7-0.5
	c-0.1,0-0.1-0.1-0.2-0.1c-0.3-0.2-0.5-0.3-0.8-0.5c0,0,0,0-0.1,0c-0.6-0.4-1.3-0.7-2.1-1c-0.1,0-0.1-0.1-0.2-0.1
	c-0.3-0.1-0.6-0.3-0.9-0.4c-0.1,0-0.2-0.1-0.2-0.1c-0.4-0.1-0.7-0.3-1.1-0.4c0,0,0,0-0.1,0c-0.4-0.1-0.8-0.3-1.3-0.4
	c0,0-0.1,0-0.1,0c-0.4-0.1-0.7-0.2-1.1-0.3c-0.1,0-0.2,0-0.3-0.1c-0.3-0.1-0.6-0.1-1-0.2c-0.1,0-0.2,0-0.3-0.1
	c-0.4-0.1-0.8-0.1-1.2-0.2c0,0-0.1,0-0.1,0c-0.4,0-0.9-0.1-1.3-0.1c-0.1,0-0.2,0-0.3,0c-0.3,0-0.6,0-0.9,0c-0.1,0-0.3,0-0.4,0
	c-0.3,0-0.6,0-0.9,0.1c-0.1,0-0.3,0-0.4,0c-0.4,0-0.7,0.1-1.1,0.2c-0.1,0-0.1,0-0.2,0c-0.4,0.1-0.8,0.2-1.2,0.3
	c-0.1,0-0.3,0.1-0.4,0.1c-0.3,0.1-0.5,0.2-0.8,0.3c-0.2,0.1-0.3,0.1-0.4,0.2c-0.2,0.1-0.5,0.2-0.7,0.3c-0.1,0.1-0.3,0.1-0.4,0.2
	c-0.3,0.2-0.7,0.4-1,0.6c-0.1,0.1-0.2,0.1-0.2,0.2c-0.3,0.2-0.5,0.4-0.8,0.6c-0.1,0.1-0.2,0.2-0.4,0.3c-0.2,0.2-0.4,0.4-0.6,0.6
	c-0.1,0.1-0.2,0.3-0.3,0.4c-0.1,0.1-0.1,0.1-0.2,0.2c-0.1,0.1-0.2,0.3-0.3,0.4c-0.1,0.2-0.2,0.3-0.3,0.5c-0.2,0.3-0.4,0.6-0.6,1
	c-0.1,0.1-0.1,0.3-0.2,0.4c-0.2,0.4-0.4,0.8-0.5,1.2c-0.1,0.2-0.1,0.4-0.2,0.6c0,0.1-0.1,0.2-0.1,0.3c-2.3-4.6-6.6-8.1-12.7-8.7
	c-9.8-1-15.6,3.3-18.8,7.8c-0.5-3.3-1.2-5.5-1.2-5.5s-9.6-8.6-11.3,6.2c0,0-0.5,9.9-5,10.7c-4.5,0.8-7.2-6.2-6.7-8.6
	c0,0-0.8-13.5-9.9-9.5c-2.1,0.9-3.4,3.5-3.9,7c-3.4-4.7-9.2-7.4-18.1-5.1c-1.1-2-3.5-4.3-8.2-2.6c-1.7,0.6-2.8,2.5-3.5,5.2
	c-2.5-3-6-5.1-10.7-5.6c-9.2-0.9-14.8,2.8-18.2,6.9c0-0.6-0.1-1-0.3-1.3c-1.7-2.9-3.8-16-14.3,10.7C49.8,23.3,47.7,36.4,46,39.3
	c-1.6,2.8,3.9,23.3,10,30.2c0.4,0.6,0.9,1.2,1.7,1.6c0.7,0.5,1.4,0.8,2.1,0.8c0.6,0,1.2-0.1,1.7-0.2c0,0,0,0,0,0
	c1.8-0.4,2.8-1.4,3.4-2.6c2.2-2.7,4.3-7,6-11.6c0.5,2,1.2,4.3,2.5,6.9c2.3,4.8,8.1,6.5,11.9,7.1c1.1,0.2,2.3,0.4,3.5,0.3
	c0.1,0,0.1,0,0.1,0l0,0c1.3,0,2.8-0.2,4.3-0.5c5.3-1.2,9.1-4.3,11.5-8.2c0.7,2.6,1.5,4.5,2.2,5c3.1,2,11.3,13.4,10.2-17.1
	c3.7-2.4,10-4.2,8.1,13.3c0,0,3.1,7.6,9.3,4.4c1.4-0.7,2.5-3.1,3-6.4c3.8,6.6,10.1,11.2,19.2,9c6.7-1.6,10.7-5.3,12.9-9.6
	c0.3,0.9,0.7,1.8,1.2,2.7c2.3,4.8,8.1,6.5,11.9,7.1c1.1,0.2,2.3,0.4,3.5,0.3c0.1,0,0.1,0,0.1,0l0,0c1.3,0,2.8-0.2,4.3-0.5
	c4.3-1,7.6-3.2,10-6.1c0,0.1,0.1,0.2,0.2,0.3c0,0.1,0.1,0.1,0.1,0.2c0.1,0.1,0.2,0.3,0.3,0.4c0,0.1,0.1,0.1,0.1,0.2
	c0.2,0.2,0.3,0.4,0.5,0.5c0,0,0.1,0,0.1,0.1c0.2,0.2,0.4,0.3,0.6,0.5c0.1,0.1,0.2,0.1,0.2,0.2c0.2,0.1,0.3,0.2,0.5,0.4
	c0.1,0.1,0.2,0.1,0.3,0.2c0.2,0.1,0.4,0.2,0.6,0.4c0.1,0.1,0.2,0.1,0.3,0.2c0.3,0.2,0.6,0.3,0.9,0.5c0.1,0,0.2,0.1,0.3,0.1
	c0.2,0.1,0.5,0.2,0.7,0.3c0.1,0.1,0.3,0.1,0.4,0.2c0.2,0.1,0.4,0.2,0.7,0.3c0.2,0.1,0.3,0.1,0.5,0.2c0.2,0.1,0.5,0.2,0.7,0.3
	c0.1,0,0.3,0.1,0.4,0.1c0.4,0.1,0.7,0.2,1.1,0.3c0.2,0,0.3,0.1,0.5,0.1c0.2,0.1,0.5,0.1,0.7,0.2c0.2,0,0.4,0.1,0.6,0.1
	c0.2,0,0.5,0.1,0.7,0.1c0.2,0,0.4,0.1,0.6,0.1c0.2,0,0.5,0.1,0.7,0.1c0.2,0,0.3,0,0.5,0.1c0.4,0,0.8,0.1,1.2,0.1c0.2,0,0.4,0,0.6,0
	c0.2,0,0.5,0,0.7,0c0.2,0,0.4,0,0.6,0c0.2,0,0.4,0,0.7,0c0.2,0,0.4,0,0.6-0.1c0.2,0,0.5-0.1,0.7-0.1c0.3,0,0.5-0.1,0.8-0.1
	c0.3-0.1,0.6-0.1,0.8-0.2c0.2,0,0.4-0.1,0.5-0.2c0.2-0.1,0.4-0.1,0.6-0.2c0.2-0.1,0.4-0.1,0.5-0.2c0.2-0.1,0.4-0.2,0.6-0.3
	c0.2-0.1,0.3-0.2,0.5-0.3c0.2-0.1,0.5-0.3,0.7-0.4c0.2-0.1,0.4-0.3,0.6-0.4c0.2-0.2,0.4-0.3,0.7-0.5c0.1-0.1,0.3-0.3,0.4-0.4
	c0.2-0.2,0.3-0.3,0.5-0.5c0.1-0.1,0.3-0.3,0.4-0.4c0.1-0.1,0.1-0.1,0.2-0.2c0.1-0.1,0.2-0.3,0.3-0.4c0.1-0.2,0.2-0.3,0.4-0.5
	c0.2-0.3,0.3-0.5,0.5-0.8c0.1-0.2,0.2-0.3,0.3-0.5c0.2-0.4,0.4-0.8,0.5-1.2c0.1-0.2,0.1-0.4,0.2-0.6c0.1-0.3,0.2-0.6,0.3-1
	c0.1-0.2,0.1-0.4,0.2-0.7c0.1-0.3,0.2-0.7,0.2-1.1c0-0.2,0.1-0.5,0.1-0.7c0.1-0.4,0.1-0.8,0.1-1.3c0-0.2,0-0.4,0.1-0.7
	c0-0.7,0.1-1.4,0.1-2.1c0,0,0,0,0,0c0,0,0,0,0,0l0,0l0,0c-0.5-1.8-1.5-3.4-2.7-4.6c-0.5-0.5-1-0.9-1.4-1.3
	c-3.4-2.6-8.2-3.8-12.5-3.9c0,0,0,0,0,0c0-0.1,0.1-0.2,0.1-0.2c0-0.1,0-0.1,0.1-0.2c0-0.1,0.1-0.1,0.1-0.2c0-0.1,0.1-0.1,0.1-0.2
	c0-0.1,0.1-0.1,0.1-0.2c0-0.1,0.1-0.1,0.1-0.2c0,0,0.1-0.1,0.1-0.1c0.1-0.1,0.1-0.1,0.2-0.2c0,0,0.1-0.1,0.1-0.1
	c0.1-0.1,0.2-0.1,0.3-0.2c0,0,0.1,0,0.1-0.1c0.1-0.1,0.2-0.1,0.4-0.1c0,0,0.1,0,0.1,0c0.1,0,0.3-0.1,0.5-0.1c0,0,0.1,0,0.1,0
	c0.2,0,0.4,0,0.6-0.1c0,0,0,0,0,0c1.9,0,4.9,0.7,9.4,2.9c0,0,5.9-0.3,6-4.9C232.4,41.5,232.3,41.2,232.3,40.8z M97.7,54.7
	c-1.5-0.2-3.1,0.7-4.4,1.7c-0.1,0.1-0.3,0.2-0.4,0.3c-4.1,3-14.8-2.9-9.2-7.4c0,0,1.4-1.5,3.3-2.5c0.2,0.8,0.5,1.7,1,2.7
	c1.5,3.1,5,3.4,8.2,2.5c1.9,1.6,4.4,2.6,6.7,1.1c0.1,1.2,0.2,2.3,0.4,3.4C101.7,55.3,99.4,55,97.7,54.7z M195.2,54.7
	c-1.5-0.2-3.1,0.7-4.4,1.7c-0.1,0.1-0.3,0.2-0.4,0.3c-4.1,3-14.8-2.9-9.2-7.4c0,0,1.4-1.5,3.3-2.5c0.2,0.8,0.5,1.7,1,2.7
	c1.5,3.1,5,3.4,8.2,2.5c2,1.7,4.6,2.7,7,1c0.9-0.7,1.6-1.2,2.1-1.7c0.5,1.1,1.2,2,2,2.8c0.5,0.5,1,0.9,1.4,1.3
	c3.4,2.6,8.2,3.8,12.5,3.9c0,0,0,0,0,0c0,0.1-0.1,0.2-0.1,0.3c0,0,0,0.1,0,0.1c0,0.1-0.1,0.2-0.1,0.3c0,0,0,0.1-0.1,0.1
	c-0.1,0.1-0.1,0.2-0.2,0.2c0,0-0.1,0.1-0.1,0.1c-0.1,0.1-0.1,0.1-0.2,0.2c0,0-0.1,0.1-0.1,0.1c-0.1,0.1-0.2,0.1-0.3,0.2
	c-0.1,0-0.1,0.1-0.2,0.1c-0.1,0-0.2,0.1-0.3,0.1c-0.1,0-0.1,0.1-0.2,0.1c-0.1,0-0.2,0.1-0.3,0.1c-0.1,0-0.2,0-0.2,0.1
	c-0.1,0-0.3,0-0.4,0c-0.1,0-0.2,0-0.3,0c-0.1,0-0.3,0-0.5,0c-0.1,0-0.2,0-0.3,0c-0.2,0-0.3,0-0.5-0.1c-0.1,0-0.2,0-0.4,0
	c-0.2,0-0.4-0.1-0.6-0.1c-0.1,0-0.3-0.1-0.4-0.1c-0.2,0-0.4-0.1-0.6-0.2c-0.2,0-0.3-0.1-0.5-0.1c-0.2-0.1-0.5-0.2-0.7-0.2
	c-0.2-0.1-0.3-0.1-0.5-0.2c-0.3-0.1-0.6-0.2-0.9-0.3c-0.2-0.1-0.3-0.1-0.5-0.2c-0.3-0.1-0.7-0.3-1.1-0.5c-0.1-0.1-0.3-0.1-0.4-0.2
	c-0.5-0.2-1.1-0.5-1.6-0.8c0,0-1.8,0.1-3.4,1C201.7,55.7,197.7,55.1,195.2,54.7z"/>
<g id="XMLID_4379_">
	<path id="XMLID_4381_" class="st1" d="M88.2,33.1c0,0-3.4-2.4-4.9-0.5c-1.5,1.9-4,5-1,11.3s14.2,1.1,15.3-1.8"/>
	<path id="XMLID_4380_" class="st1" d="M100.8,38.4L100.8,38.4c-2.1-5.5-6.6-9.9-13.5-10.6c-13.8-1.4-19.5,7.6-21.7,13
		c0,0-0.5,0.8-0.8,2.4c-0.3,1-0.3,1.8-0.3,2.1c-0.2,3,0.3,7.4,3.1,13.3c2.3,4.8,8.1,6.5,11.9,7.1c1.1,0.2,2.3,0.4,3.5,0.3
		c0.1,0,0.1,0,0.1,0l0,0c1.3,0,2.8-0.2,4.3-0.5c6.1-1.4,10.2-5.3,12.6-10c-0.4-5.5-5.1-6.2-8-6.6c-1.5-0.2-3.1,0.7-4.4,1.7
		c-0.1,0.1-0.3,0.2-0.4,0.3c-4.1,3-14.8-2.9-9.2-7.4c0,0,1.9-2,4.2-3h0c0,0,1.9-1,3.4-0.4c0.6,0.2,1.1,0.6,1.5,1.5
		c0,0,0,0.1,0.1,0.1c0.2,0.4,0.4,0.8,0.7,1.2c1.9,3,6,7,9.8,4.2c4.4-3.2,3.9-4.4,4.1-5.7l0,0C101.9,40.4,100.8,38.4,100.8,38.4z"/>
</g>
<g id="XMLID_4245_">
	<path id="XMLID_4247_" class="st1" d="M110.6,33.2c0,0-1.6-7.7-9.1-5s-3.8,31.9-0.3,34.1C104.6,64.6,114.4,78.5,110.6,33.2z"/>
	<path id="XMLID_4246_" class="st1" d="M108.9,47.2c0,0,13.2-13.1,10.5,11.3c0,0,3.1,7.6,9.3,4.4c6.1-3.1,7.1-41.9-22.5-31"/>
</g>
<g id="XMLID_4229_">
	<path id="XMLID_4231_" class="st1" d="M49.5,58.2c0,0-1.8,7.9,5.5,7.9c7.3,0,15.8-29.2,13.8-32.6C66.8,30.1,64.3,13.5,49.5,58.2z"
		/>
	<path id="XMLID_4230_" class="st1" d="M59.5,58.3c0,0,1.8,7.9-5.5,7.9S38.2,36.9,40.2,33.6c1.8-3,4-17.1,15.6,14"/>
</g>
<path id="XMLID_4222_" class="st1" d="M141.6,38.5c0,0-0.8-13.5-9.9-9.5c-9.1,4-4,42.1,19.2,36.6c23.1-5.5,13.8-35.5,13.8-35.5
	s-9.6-8.6-11.3,6.2c0,0-0.5,9.9-5,10.7C143.8,47.9,141.2,40.9,141.6,38.5z"/>
<g id="XMLID_4210_">
	<path id="XMLID_4213_" class="st1" d="M220.6,41c0,0,6.7-0.3,5.9-5.9c-0.6-4.4-19.2-12.5-26.8-2.8c-2,2.5-3.2,6.2-3.2,11.6
		c0,0,0,0,0,0c0.6,1.8,1.5,3.3,2.7,4.6c0.5,0.5,1,0.9,1.4,1.3c3.4,2.6,8.2,3.8,12.5,3.9c-0.6,2.4-3.5,3.7-12.6-0.7
		c0,0-6.7,0.3-5.9,5.9c0.6,4.4,19.2,12.5,26.8,2.8c2-2.5,3.2-6.2,3.2-11.6c0,0,0,0,0,0c-0.5-1.8-1.5-3.4-2.7-4.6
		c-0.5-0.5-1-0.9-1.4-1.3c-3.4-2.6-8.2-3.8-12.5-3.9C208.6,37.9,211.5,36.5,220.6,41z"/>
	<path id="XMLID_4212_" class="st1" d="M212.2,47.9c0,0,6.4,13.8-11.6,5c0,0-6.7,0.3-5.9,5.9c0.7,5.6,30.2,17,30-8.8"/>
	<path id="XMLID_4211_" class="st1" d="M209,46c0,0-6.4-13.8,11.6-5c0,0,6.7-0.3,5.9-5.9s-30.2-17-30,8.8"/>
</g>
<g id="XMLID_1_">
	<path id="XMLID_3_" class="st1" d="M185.7,33.1c0,0-3.4-2.4-4.9-0.5s-4,5-1,11.3s14.2,1.1,15.3-1.8"/>
	<path id="XMLID_2_" class="st1" d="M198.3,38.4L198.3,38.4c-2.1-5.5-6.6-9.9-13.5-10.6c-13.8-1.4-19.5,7.6-21.7,13
		c0,0-0.5,0.8-0.8,2.4c-0.3,1-0.3,1.8-0.3,2.1c-0.2,3,0.3,7.4,3.1,13.3c2.3,4.8,8.1,6.5,11.9,7.1c1.1,0.2,2.3,0.4,3.5,0.3
		c0.1,0,0.1,0,0.1,0l0,0c1.3,0,2.8-0.2,4.3-0.5c6.1-1.4,10.2-5.3,12.6-10c-0.4-5.5-5.1-6.2-8-6.6c-1.5-0.2-3.1,0.7-4.4,1.7
		c-0.1,0.1-0.3,0.2-0.4,0.3c-4.1,3-14.8-2.9-9.2-7.4c0,0,1.9-2,4.2-3h0c0,0,1.9-1,3.4-0.4c0.6,0.2,1.1,0.6,1.5,1.5
		c0,0,0,0.1,0.1,0.1c0.2,0.4,0.4,0.8,0.7,1.2c1.9,3,6,7,9.8,4.2c4.4-3.2,3.9-4.4,4.1-5.7l0,0C199.4,40.4,198.3,38.4,198.3,38.4z"/>
</g>
<g id="XMLID_90_">
	<path id="XMLID_92_" class="st2" d="M82.5,27.3c0,0-3.4-2.4-4.9-0.5s-4,5-1,11.3s14.2,1.1,15.3-1.8"/>
	<path id="XMLID_91_" class="st2" d="M95,32.6L95,32.6c-2.1-5.5-6.6-9.9-13.5-10.6c-13.8-1.4-19.5,7.6-21.7,13c0,0-0.5,0.8-0.8,2.4
		c-0.3,1-0.3,1.8-0.3,2.1c-0.2,3,0.3,7.4,3.1,13.3c2.3,4.8,8.1,6.5,11.9,7.1c1.1,0.2,2.3,0.4,3.5,0.3c0.1,0,0.1,0,0.1,0l0,0
		c1.3,0,2.8-0.2,4.3-0.5c6.1-1.4,10.2-5.3,12.6-10c-0.4-5.5-5.1-6.2-8-6.6c-1.5-0.2-3.1,0.7-4.4,1.7c-0.1,0.1-0.3,0.2-0.4,0.3
		c-4.1,3-14.8-2.9-9.2-7.4c0,0,1.9-2,4.2-3h0c0,0,1.9-1,3.4-0.4c0.6,0.2,1.1,0.6,1.5,1.5c0,0,0,0.1,0.1,0.1c0.2,0.4,0.4,0.8,0.7,1.2
		c1.9,3,6,7,9.8,4.2c4.4-3.2,3.9-4.4,4.1-5.7l0,0C96.2,34.6,95,32.6,95,32.6z"/>
</g>
<g id="XMLID_87_">
	<path id="XMLID_89_" class="st2" d="M104.8,27.5c0,0-1.6-7.7-9.1-5c-7.6,2.7-3.8,31.9-0.3,34.1C98.9,58.9,108.6,72.8,104.8,27.5z"
		/>
	<path id="XMLID_88_" class="st2" d="M103.1,41.5c0,0,13.2-13.1,10.5,11.3c0,0,3.1,7.6,9.3,4.4s7.1-41.9-22.5-31"/>
</g>
<g id="XMLID_84_">
	<path id="XMLID_86_" class="st2" d="M43.7,52.4c0,0-1.8,7.9,5.5,7.9c7.3,0,15.8-29.2,13.8-32.6C61.1,24.4,58.6,7.7,43.7,52.4z"/>
	<path id="XMLID_85_" class="st2" d="M53.7,52.5c0,0,1.8,7.9-5.5,7.9c-7.3,0-15.8-29.2-13.8-32.6c1.8-3,4-17.1,15.6,14"/>
</g>
<path id="XMLID_83_" class="st2" d="M135.8,32.7c0,0-0.8-13.5-9.9-9.5s-4,42.1,19.2,36.6s13.8-35.5,13.8-35.5s-9.6-8.6-11.3,6.2
	c0,0-0.5,9.9-5,10.7C138.1,42.1,135.4,35.2,135.8,32.7z"/>
<g id="XMLID_79_">
	<path id="XMLID_82_" class="st2" d="M214.8,35.2c0,0,6.7-0.3,5.9-5.9c-0.6-4.4-19.2-12.5-26.8-2.8c-2,2.5-3.2,6.2-3.2,11.6
		c0,0,0,0,0,0c0.6,1.8,1.5,3.3,2.7,4.6c0.5,0.5,1,0.9,1.4,1.3c3.4,2.6,8.2,3.8,12.5,3.9c-0.6,2.4-3.5,3.7-12.6-0.7
		c0,0-6.7,0.3-5.9,5.9c0.6,4.4,19.2,12.5,26.8,2.8c2-2.5,3.2-6.2,3.2-11.6c0,0,0,0,0,0c-0.5-1.8-1.5-3.4-2.7-4.6
		c-0.5-0.5-1-0.9-1.4-1.3c-3.4-2.6-8.2-3.8-12.5-3.9C202.9,32.1,205.7,30.8,214.8,35.2z"/>
	<path id="XMLID_81_" class="st2" d="M206.4,42.1c0,0,6.4,13.8-11.6,5c0,0-6.7,0.3-5.9,5.9s30.2,17,30-8.8"/>
	<path id="XMLID_80_" class="st2" d="M203.2,40.2c0,0-6.4-13.8,11.6-5c0,0,6.7-0.3,5.9-5.9s-30.2-17-30,8.8"/>
</g>
<g id="XMLID_51_">
	<path id="XMLID_77_" class="st2" d="M180,27.3c0,0-3.4-2.4-4.9-0.5c-1.5,1.9-4,5-1,11.3c3,6.2,14.2,1.1,15.3-1.8"/>
	<path id="XMLID_76_" class="st2" d="M192.5,32.6L192.5,32.6c-2.1-5.5-6.6-9.9-13.5-10.6c-13.8-1.4-19.5,7.6-21.7,13
		c0,0-0.5,0.8-0.8,2.4c-0.3,1-0.3,1.8-0.3,2.1c-0.2,3,0.3,7.4,3.1,13.3c2.3,4.8,8.1,6.5,11.9,7.1c1.1,0.2,2.3,0.4,3.5,0.3
		c0.1,0,0.1,0,0.1,0l0,0c1.3,0,2.8-0.2,4.3-0.5c6.1-1.4,10.2-5.3,12.6-10c-0.4-5.5-5.1-6.2-8-6.6c-1.5-0.2-3.1,0.7-4.4,1.7
		c-0.1,0.1-0.3,0.2-0.4,0.3c-4.1,3-14.8-2.9-9.2-7.4c0,0,1.9-2,4.2-3h0c0,0,1.9-1,3.4-0.4c0.6,0.2,1.1,0.6,1.5,1.5
		c0,0,0,0.1,0.1,0.1c0.2,0.4,0.4,0.8,0.7,1.2c1.9,3,6,7,9.8,4.2c4.4-3.2,3.9-4.4,4.1-5.7l0,0C193.7,34.6,192.5,32.6,192.5,32.6z"/>
</g>
</svg>
