<?xml version="1.0" encoding="utf-8"?>
<!-- Generator: Adobe Illustrator 23.0.3, SVG Export Plug-In . SVG Version: 6.00 Build 0)  -->
<svg version="1.1" id="Layer_1" xmlns="http://www.w3.org/2000/svg" xmlns:xlink="http://www.w3.org/1999/xlink" x="0px" y="0px"
	 viewBox="0 0 339.9 81.2" style="enable-background:new 0 0 339.9 81.2;" xml:space="preserve">
<style type="text/css">
	.st0{fill:#FFFFFF;}
	.st1{fill:#2C2C2C;}
</style>
<g>
	<g>
		<path class="st0" d="M154.6,51.2c0-0.4-0.1-0.8-0.1-1.2c0-1.2,0-2.5-0.1-3.7c-0.1-3.1-0.5-6.1-0.8-9.2c-0.1-0.6-0.1-1.2-0.2-1.9
			c0-1.7-0.1-3.4-0.3-5.2c0-0.2,0-0.3,0-0.5c0.1-1.9,0.4-3.7,0.3-5.6c0-0.9-0.2-1.8-0.5-2.7s-0.8-1.7-1.4-2.3
			c-0.3-0.3-0.7-0.6-1.1-0.8c-0.4-0.3-0.9-0.5-1.4-0.7c-0.9-0.4-1.9-0.6-2.9-0.6c-0.1,0-0.2,0-0.2,0c-0.3,0-0.6,0-0.9,0.1l0,0
			c-0.2-0.1-0.5-0.1-0.7-0.1l0,0c-0.2,0-0.5,0-0.7,0.1c-0.1,0-0.3,0.1-0.4,0.1c-0.2,0-0.3,0.1-0.5,0.2c-0.3,0.1-0.6,0.2-0.9,0.4
			c-0.4,0.2-0.7,0.4-1,0.6c-0.5,0.3-0.9,0.7-1.3,1.1c-0.4,0.4-0.7,0.8-1,1.2s-0.5,0.9-0.7,1.3c-0.1,0.3-0.2,0.6-0.3,1
			c-0.1,0.5-0.1,1-0.2,1.5c-0.1,0.9-0.1,1.9,0,2.8c0.1,0.8,0.2,1.6,0.3,2.3c-0.1,1.1-0.2,2.2-0.3,3.4c0,0.6-0.1,1.3-0.1,1.9
			c-0.1,0.9-0.1,1.9-0.1,2.8c0,0.1,0,0.3-0.1,0.4c-0.3,1.9-0.5,3.8-0.5,5.7c-0.1,3.7,0.1,7.4,0.7,11.1c0,0.2,0.1,0.3,0.2,0.4
			c0,0,0,0,0,0.1c-0.2,0.7-0.1,1.5,0,2.2c0.1,0.9,0.5,1.8,0.9,2.6c0.5,0.9,1.1,1.7,1.7,2.5c0.3,0.4,0.7,0.7,1,1.1
			c0.4,0.4,0.9,0.7,1.3,1c0.7,0.5,1.6,0.8,2.5,1c0.7,0.2,1.5,0.2,2.2,0.1c0.4,0,0.7-0.1,1.1-0.2c0.4-0.1,0.7-0.2,1.1-0.4
			c0.6-0.3,1.1-0.6,1.6-1.1c0.5-0.4,0.9-1,1.3-1.5c0.3-0.5,0.6-1.1,0.9-1.6c0.3-0.7,0.5-1.3,0.7-2c0.4-1.3,0.6-2.7,0.7-4.1
			C154.6,53.7,154.7,52.5,154.6,51.2z"/>
		<g>
			<path class="st1" d="M156.1,51.2c-0.8-7.5-1.9-15.9-1.3-23.4c0.4-5.5-0.4-10.8-6.7-12.2c-2.8-0.6-5.6-0.3-8,1.3
				c-5.4,3.7-3.9,9.5-4.1,15.1c-0.3,7.4-1.6,14.9-0.2,22.3c0.4,2.2,0.2,0.2,0.3,1c0.1,1.1-0.1,2.2,0.2,3.3c0.7,2.6,2.4,5.1,4.5,6.7
				c3.2,2.5,7.6,2.9,10.8,0.3C155.7,62.3,156.2,56,156.1,51.2c-0.1-1.9-3.1-1.9-3,0c0.1,3.7,0,9.3-3.2,12s-7.3,0.5-9.3-2.5
				c-1.2-1.8-1.1-3.6-1.4-5.5c-1.4-8.5-0.2-16.4,0-24.9c0.1-4.2-1.2-10.4,4.5-11.9c3.8-1,7.9,1.6,8.3,5.6c0.2,2-0.4,4.1-0.4,6.1
				c0,2.3,0.3,4.7,0.5,7c0.4,4.7,0.5,9.4,1,14C153.3,53.1,156.3,53.1,156.1,51.2z"/>
		</g>
	</g>
	<g>
		<path class="st0" d="M65.4,57.8c0-0.1,0-0.2-0.1-0.3c-0.1-1.1-0.5-2-1.1-2.7l0,0c-0.1-0.3-0.3-0.6-0.5-0.9
			c0.3-1.4,0.3-2.8,0.2-4.2c0-0.4-0.1-0.8-0.2-1.3c0-0.4,0-0.8-0.1-1.1c-0.1-1.2-0.4-2.4-0.8-3.5c-0.2-0.6-0.5-1.2-0.9-1.8
			c-0.4-0.6-0.8-1.2-1.3-1.7c-0.8-1-1.9-1.9-3-2.7c-1.1-0.8-2.3-1.3-3.5-1.7c-0.5-0.2-1.1-0.3-1.7-0.3c-0.8-0.1-1.5-0.2-2.3-0.2H50
			c-1.3,0-2.7,0.2-4,0.4c-2.3,0.3-4.5,1.1-6.4,2.5c-0.3,0.2-0.7,0.5-1,0.8c-0.1,0.1-0.2,0.2-0.4,0.3c-0.4,0.4-0.8,0.8-1.2,1.2
			c-0.4,0.5-0.9,1.1-1.2,1.7c-0.6,1-1.1,2.1-1.6,3.2c-0.6,1.4-0.9,3-1,4.5c-0.1,1.4,0,2.9,0.3,4.3c0.3,1.4,0.8,2.7,1.5,3.9
			c0.3,0.5,0.6,1.1,1,1.6c0.5,0.6,0.9,1.2,1.5,1.8c0.5,0.5,1.1,1,1.6,1.4s1.1,0.8,1.7,1.1c0.6,0.4,1.3,0.7,2,0.9
			c0.6,0.3,1.3,0.4,2,0.6c3.2,0.7,6.6,0.2,9.6-1.1c0.7,0.4,1.4,0.7,2.3,0.8l0,0c0.1,0,0.1,0.1,0.2,0.1c0.4,0.2,0.9,0.3,1.4,0.4
			s1,0.1,1.5,0s1-0.2,1.5-0.5c0.3-0.2,0.6-0.3,0.9-0.6c0.1-0.1,0.2-0.1,0.3-0.2l0,0c0.2-0.1,0.3-0.3,0.5-0.4
			c0.2-0.1,0.3-0.3,0.3-0.5c0.2-0.3,0.5-0.7,0.7-1c0.5-0.8,0.7-1.7,0.9-2.5C65.5,59.3,65.5,58.5,65.4,57.8z M52.6,51.6
			c0,0.2-0.1,0.4-0.2,0.5c-0.1,0.2-0.2,0.4-0.2,0.6c-0.1,0.2-0.2,0.3-0.3,0.5c-0.1,0.1-0.1,0.2-0.2,0.2c-0.1,0.1-0.2,0.2-0.4,0.3
			c-0.1,0.1-0.2,0.1-0.3,0.1s-0.1,0-0.2,0c0,0,0,0-0.1,0.1c0,0.1-0.1,0.1-0.2,0.1c-0.1,0.1-0.2,0.1-0.3,0.1s-0.3,0-0.4,0l0,0
			c-0.1,0-0.1,0-0.2,0c-0.2,0-0.4,0-0.6,0c-0.1,0-0.2,0-0.2,0h-0.1c-0.2,0.1-0.4,0.1-0.6,0.1c-0.2,0.1-0.3,0.1-0.5,0.2
			c-0.2,0-0.4,0-0.5,0c-0.1,0-0.2,0-0.3,0c-0.3-0.1-0.5-0.1-0.8-0.3c-0.2-0.1-0.3-0.2-0.5-0.4c-0.1-0.1-0.2-0.3-0.4-0.4
			c-0.1-0.1-0.1-0.2-0.2-0.4c-0.1-0.2-0.2-0.4-0.3-0.6c-0.1-0.3-0.2-0.7-0.2-1s0-0.7,0-1.1l0,0l0,0c0-0.2,0-0.4,0.1-0.7
			c0-0.1,0.1-0.3,0.1-0.4l0,0V49l0,0c0-0.1,0-0.2,0.1-0.2c0.1-0.2,0.2-0.5,0.3-0.6c0.1-0.1,0.2-0.3,0.3-0.4c0.1-0.1,0.2-0.2,0.3-0.3
			c0.1-0.1,0.3-0.2,0.4-0.2l0,0l0,0c0.1-0.1,0.2-0.3,0.4-0.3c0.1,0,0.2-0.1,0.3-0.1c0.1,0,0.2,0,0.3,0h0.1c0.1,0,0.2-0.1,0.2-0.1
			l0,0c0.1-0.1,0.1-0.3,0.2-0.4c0.1-0.1,0.1-0.2,0.2-0.2c0.4-0.3,0.9-0.3,1.3,0c0.2,0.1,0.3,0.3,0.4,0.6c0.1,0,0.2-0.1,0.3-0.1
			s0.2,0,0.3,0s0.2,0,0.3,0.1c0.1,0,0.2,0.1,0.3,0.1c0.3,0.2,0.5,0.4,0.7,0.8c0.1,0.2,0.2,0.4,0.3,0.7c0.1,0.1,0.1,0.1,0.2,0.2
			c0.1,0.1,0.1,0.2,0.2,0.3c0.1,0.1,0.1,0.2,0.2,0.3c0.1,0.2,0.2,0.4,0.2,0.6c0,0.2,0.1,0.4,0.1,0.6c0,0.2,0,0.4,0,0.6
			C52.6,51.2,52.6,51.4,52.6,51.6z"/>
		<g>
			<path class="st1" d="M66.9,57.4c-0.3-1.9-1.2-3.2-1.4-4.9c-0.4-3.1,0-6.1-1.1-9.1c-1.6-4.1-5.4-7.7-9.7-8.9
				c-10.5-3-21.3,3.9-22.5,14.7C31,59.7,40,68.7,50.5,67.3c1.5-0.2,3.1-1,4.7-0.9c0.4,0,2.8,0.7,1.4,0.4c2.2,0.6,3.7,1.1,5.9,0
				c3.2-1.6,4.7-5.5,4.6-8.9c-0.1-1.9-3.1-1.9-3,0c0.2,4.5-2.3,7.2-6.9,6c-1-0.3-1.5-0.7-2.5-0.8c-1.8-0.1-4.2,1.3-6.2,1.4
				c-10.5,0-16.2-11-12-19.9c3.8-8,15.8-10.5,22.3-4.2c2.9,2.8,3.7,6.7,3.7,10.7c0,1.7-0.3,2.2,0,3.6c0.3,1.2,1.3,2.2,1.5,3.6
				C64.3,60.1,67.2,59.3,66.9,57.4z"/>
			<path class="st1" d="M51.1,51.2c-0.1,0.4-0.2,0.9-0.5,1.2c0.2-0.2-0.2,0-0.4,0.1c-0.5,0.2-0.6,0.4,0,0.3c-0.3,0.1-0.9,0-1.2,0
				c-0.3,0-1.8,0.4-2.2,0.2c-0.8-0.4-0.9-1.7-0.8-2.5c0-0.3,0-0.5,0.1-0.7c0.2-0.5,0.4-0.5,0.6-1c0,0.1,0.6-0.5,0.1-0.3
				c-0.4,0.2,0.4,0,0.6,0c0.3-0.1,0.7-0.3,0.9-0.5c0.5-0.6,0.1,0-0.2-0.3c0.3,0.6,1.1,0.8,1.7,0.7c0,0,0.7,1.2,0.7,1.3
				c0.4,0.7,0.5,1.3,0.4,2.1c-0.2,1.9,2.8,1.9,3,0c0.3-2.6-1.7-7-4.9-6.2c0.6,0.2,1.1,0.5,1.7,0.7c-1.1-2-3.7-2-4.8,0
				c0.3-0.2,0.6-0.5,0.9-0.7c0.6,0.1,0.6,0.1,0,0c-0.2,0-0.5,0.1-0.7,0.1c-0.6,0.2-0.9,0.5-1.3,0.8c0.8-0.5-0.6,0.4-0.7,0.5
				c-0.4,0.4-0.6,0.9-0.8,1.3c-0.5,1.3-0.6,2.8-0.3,4.2c0.5,2.1,2.2,3.9,4.4,3.6c0.6-0.1,0.8-0.2,1.2-0.3c0.3,0,2.2-0.2,0.6-0.1
				c1,0,1.6-0.1,2.4-0.7c-0.4,0.1-0.7,0.3-1.1,0.4c1.9-0.2,2.7-1.7,3.2-3.4C54.6,50.1,51.7,49.4,51.1,51.2z"/>
		</g>
	</g>
	<g>
		<path class="st0" d="M103.3,52.5c-0.2-1-0.6-1.9-1-2.8c-0.2-0.4-0.5-0.9-0.7-1.3c-0.3-0.7-0.7-1.4-1.2-2c-0.9-1.1-1.8-2.2-2.9-3
			c-0.6-0.5-1.3-1-2-1.4c-0.4-0.2-0.9-0.5-1.3-0.7c-0.3-0.2-0.6-0.3-0.9-0.5c-1.1-0.5-2.2-1-3.4-1.2c-0.5-0.1-1-0.1-1.5-0.2
			c0.1-1,0.2-2,0.2-3.1c0.1-1.2,0.1-2.5,0.1-3.7c0.1-0.4,0.1-0.8,0.1-1.2c0.1-1.3,0.1-2.5-0.1-3.8c-0.1-1.4-0.3-2.8-0.7-4.1
			c-0.2-0.7-0.4-1.4-0.7-2c-0.2-0.5-0.5-1-0.8-1.5c-0.4-0.5-0.8-1.1-1.3-1.5s-1-0.8-1.6-1.1c-0.3-0.2-0.7-0.3-1.1-0.4
			c-0.4-0.1-0.7-0.1-1.1-0.2c-0.7-0.1-1.5,0-2.2,0.1c-0.9,0.2-1.7,0.5-2.5,1c-0.5,0.3-0.9,0.6-1.3,1c-0.4,0.3-0.7,0.7-1,1.1
			c-0.7,0.8-1.3,1.6-1.7,2.5c-0.4,0.8-0.7,1.7-0.9,2.6c-0.1,0.7-0.2,1.5,0,2.2c0,0,0,0,0,0.1c-0.1,0.1-0.2,0.3-0.2,0.4
			c-0.6,3.7-0.9,7.4-0.7,11.1c0.1,1.9,0.2,3.8,0.5,5.7c0,0.1,0,0.3,0.1,0.4c0,0.9,0,1.9,0.1,2.8c0,0.6,0,1.3,0.1,1.9
			c0.1,1.1,0.1,2.3,0.3,3.4c-0.1,0.8-0.2,1.6-0.3,2.3c-0.1,0.9-0.1,1.9,0,2.8c0,0.5,0.1,1,0.2,1.5c0.1,0.3,0.1,0.7,0.3,1
			c0.2,0.5,0.4,0.9,0.7,1.3c0.3,0.4,0.6,0.8,1,1.2s0.8,0.8,1.3,1.1c0.3,0.2,0.6,0.5,1,0.6c0.3,0.1,0.6,0.3,0.9,0.4
			c0.2,0.1,0.3,0.1,0.5,0.2c0.1,0,0.3,0.1,0.4,0.1c0.2,0,0.5,0.1,0.7,0.1l0,0c0.2,0,0.5,0,0.7-0.1l0,0c0.3,0,0.6,0.1,0.9,0.1
			c0.1,0,0.2,0,0.2,0c1,0,2-0.2,2.9-0.6c0.4-0.2,0.8-0.3,1.2-0.6c0.7,0.3,1.3,0.5,2,0.7c0.8,0.2,1.6,0.3,2.4,0.4
			c0.4,0,0.8,0.1,1.2,0.1s0.7,0,1.1-0.1c0.8-0.1,1.6-0.2,2.3-0.4c0.8-0.2,1.6-0.5,2.3-0.8c0.6-0.3,1.2-0.6,1.7-1
			c0.7-0.5,1.3-1,1.8-1.7c0.5-0.6,0.9-1.2,1.3-2c0.1-0.1,0.1-0.2,0.2-0.4c0.2-0.1,0.3-0.2,0.5-0.4c0.4-0.4,0.8-0.8,1.1-1.2
			c0.2-0.3,0.4-0.7,0.6-1c0.2-0.5,0.4-0.9,0.5-1.4s0.2-1,0.1-1.5C103.5,53.5,103.4,53,103.3,52.5z M93.4,54c0,0.1-0.1,0.3-0.1,0.4
			c0,0.2-0.1,0.3-0.2,0.4c0,0.1-0.1,0.2-0.1,0.2c0,0.1-0.1,0.1-0.1,0.2c0,0.1-0.1,0.1-0.1,0.1c-0.1,0.2-0.2,0.3-0.2,0.5
			c-0.1,0.2-0.3,0.4-0.5,0.5c-0.1,0-0.1,0.1-0.2,0.1s-0.1,0-0.2,0c-0.1,0-0.1,0-0.2,0s-0.1,0-0.2,0c-0.1,0.2-0.2,0.3-0.3,0.4
			c-0.3,0.2-0.7,0.3-1,0c-0.1-0.1-0.1-0.1-0.2-0.2c-0.1-0.1-0.1-0.2-0.2-0.3l0,0c-0.1,0-0.1,0-0.2-0.1h-0.1c-0.1,0-0.1,0-0.2,0
			s-0.1-0.1-0.2-0.1c-0.1,0-0.2-0.1-0.3-0.2l0,0l0,0c-0.1,0-0.2-0.1-0.3-0.2c-0.1-0.1-0.1-0.1-0.2-0.2c-0.1-0.1-0.1-0.2-0.2-0.3
			c-0.1-0.1-0.1-0.3-0.2-0.5c0-0.1,0-0.1,0-0.2l0,0c0,0,0,0,0-0.1l0,0c0-0.1-0.1-0.2-0.1-0.3c0-0.2-0.1-0.3-0.1-0.5l0,0l0,0
			c0-0.3,0-0.5,0-0.8c0-0.2,0.1-0.5,0.1-0.7c0-0.1,0.1-0.3,0.2-0.4c0-0.1,0.1-0.2,0.1-0.3c0.1-0.1,0.2-0.2,0.3-0.3s0.2-0.2,0.3-0.3
			c0.2-0.1,0.4-0.2,0.5-0.2s0.2,0,0.2,0c0.1,0,0.3,0,0.4,0c0.1,0,0.2,0.1,0.4,0.1c0.1,0,0.3,0,0.4,0.1c0,0,0,0,0.1,0s0.1,0,0.2,0
			s0.3,0,0.4,0h0.1l0,0c0.1,0,0.2,0,0.3,0s0.2,0.1,0.2,0.1c0.1,0,0.1,0.1,0.1,0.1l0,0h0.1c0.1,0,0.2,0.1,0.2,0.1
			c0.1,0,0.2,0.1,0.3,0.2c0.1,0,0.1,0.1,0.1,0.2c0.1,0.1,0.1,0.2,0.2,0.3c0.1,0.1,0.1,0.3,0.2,0.4c0,0.1,0.1,0.3,0.1,0.4
			c0,0.1,0.1,0.3,0.1,0.5C93.4,53.7,93.4,53.9,93.4,54z"/>
		<g>
			<path class="st1" d="M104.7,52.1c-2.2-7.4-8.4-13.3-16.3-14.1c0.5,0.5,1,1,1.5,1.5c0.5-7.2,1.2-29.3-12.7-23.4
				c-2.9,1.2-5.3,4.2-6.3,7.1c-0.2,0.7-0.5,1.4-0.5,2.1c0,0.4-0.2,3.8,0,2c-0.4,4-1.1,7.8-0.9,11.8c0.1,3.9,0.7,7.8,0.8,11.7
				c0.2,5.9-1.3,12.4,5.1,15.7c3.1,1.6,5.5,0.3,8.8,0.1c2.8-0.2,5.3,1,8.2,0.6c2.1-0.3,4.2-1,5.9-2.3c3.8-2.7,7.1-7.8,6.5-12.4
				c-0.2-1.9-3.2-1.9-3,0c0.5,3.6-3.3,9.2-6.7,10.8c-1.9,0.9-4.1,1.3-6.2,1.1c-1.5-0.1-3.1-1.1-4.6-1.1c-2.1,0-4.2,1.7-6.5,1
				c-6.1-1.8-4.4-9.6-4.7-14.4c-0.3-4.5-0.9-9.1-0.8-13.7c0.1-3.7,0.1-9.4,1.6-12.9c3.1-6.9,10.7-6,12.6,0.6
				c1.4,4.9,0.7,10.5,0.3,15.4c-0.1,0.9,0.7,1.4,1.5,1.5c6.5,0.7,11.6,5.9,13.4,11.9C102.4,54.7,105.3,53.9,104.7,52.1z"/>
			<path class="st1" d="M91.9,53.6c-0.1,0.4-0.1,0.5-0.3,0.8c-0.2,0.2-0.3,0.3-0.4,0.6c-0.2,0.3-0.2,0.3,0.3,0.2
				c-0.6-0.1-1.4,0.1-1.7,0.7c0.3-0.5,1.5,0.4,0.8-0.3c-0.2-0.2-0.5-0.4-0.8-0.5c-0.1,0-0.3,0-0.4-0.1c-0.5,0-0.5,0.1-0.1,0.1
				c0.5-0.3,0.3,0.3,0-0.2c-0.2-0.4-0.3-0.6-0.4-1.1c0-0.3,0-1.1,0.3-1.3c0.2-0.1,1,0.2,1.2,0.2c0.1,0,0.3,0,0.4-0.1
				c-0.2,0-0.2,0.1-0.1,0c0,0,0.9,0.1,0.9,0c-0.8-0.3-1-0.3-0.6,0c0.1,0.1,0.3,0.2,0.5,0.3c0.5,0.1,0.5,0.1,0.2,0
				c-0.3-0.1-0.3-0.1-0.1,0.1c0,0.3,0.1,0.6,0.1,1c-0.1,1.9,2.9,1.9,3,0c0.1-1.8-0.8-3.8-2.8-4c0.4,0.1,0.7,0.3,1.1,0.4
				c-0.3-0.2-0.5-0.4-0.9-0.5c-0.1,0-1.3-0.3-1.3-0.1c0.8,0,0.9,0,0.3-0.1c-0.2,0-0.4,0-0.6,0c-0.5,0.1-0.5,0.1-0.1,0
				c-0.2-0.1-0.5-0.2-0.8-0.2c-1.8-0.2-3.2,1.2-3.6,2.9c-0.2,1-0.2,2.2,0.2,3.2c0.2,0.4,0.4,0.8,0.7,1.2c0.1,0.2,1.3,0.9,0.5,0.4
				c0.4,0.3,0.7,0.6,1.1,0.7c0.2,0,0.4,0.1,0.6,0.1c0.6-0.1,0.5-0.1-0.1,0c-0.3-0.2-0.6-0.5-0.9-0.7c0.9,1.8,3.2,1.7,4.2,0
				c-0.6,0.2-1.1,0.5-1.7,0.7c2.1,0.5,3.6-1.7,4-3.6C95.2,52.6,92.3,51.8,91.9,53.6z"/>
		</g>
	</g>
	<g>
		<path class="st0" d="M271.8,58.8c-0.1-0.4-0.2-0.8-0.3-1.2c0-0.1,0-0.2,0-0.3c-0.1-0.3-0.2-0.7-0.3-1c0-0.1-0.1-0.2-0.1-0.3
			s0-0.2,0-0.3c-0.1-0.5-0.3-0.9-0.6-1.4c-0.1-0.2-0.2-0.3-0.4-0.5c-0.3-0.6-0.8-1.1-1.5-1.3c-0.2-0.1-0.4-0.1-0.6-0.1s-0.5,0-0.7,0
			c-0.1,0-0.2,0-0.3,0c-0.2,0-0.4,0-0.6,0c-0.4,0-0.9,0-1.3,0.1c-0.5,0.1-0.9,0.2-1.4,0.3c-0.5,0.2-1.1,0.4-1.6,0.7
			c-0.2,0.1-0.4,0.3-0.6,0.4c-0.1,0.1-0.2,0.2-0.4,0.3c-0.2,0.1-0.4,0.2-0.6,0.2c-0.3,0.1-0.6,0.1-0.9,0.2c-0.2,0-0.4,0-0.6-0.1
			c-0.2,0-0.3-0.1-0.4-0.2c-0.2-0.1-0.3-0.2-0.4-0.3c-0.2-0.2-0.3-0.4-0.5-0.6c-0.2-0.4-0.4-0.9-0.6-1.3c-0.1-0.3-0.2-0.7-0.2-1.1
			v-0.1c0.2,0,0.3,0.1,0.5,0.1c0.3,0.1,0.7,0.2,1,0.3c0.6,0.1,1.2,0.1,1.8,0.1h0.1c0.1,0,0.2,0.1,0.2,0.1c0.9,0.3,2.1,0.4,3,0
			c0.2-0.1,0.3-0.2,0.5-0.2c0.2-0.1,0.4-0.3,0.5-0.4l0,0c0.2,0,0.3-0.1,0.5-0.1c0.1,0,0.2,0,0.3,0c0.2,0,0.5,0,0.7,0
			c0.2,0,0.4-0.1,0.6-0.1c0.3-0.1,0.6-0.2,0.8-0.3l0,0l0,0c0.3-0.1,0.6-0.1,0.9-0.3c0.2-0.1,0.4-0.2,0.6-0.3s0.4-0.3,0.6-0.4
			c0.2-0.2,0.4-0.4,0.6-0.7c0.1-0.1,0.1-0.2,0.1-0.3l0,0v-0.1l0,0c0.1-0.1,0.2-0.3,0.2-0.4c0.1-0.2,0.1-0.5,0.1-0.7l0,0l0,0
			c0-0.4,0-0.7-0.1-1.1c-0.1-0.4-0.3-0.7-0.5-1c-0.2-0.2-0.4-0.4-0.6-0.6c-0.1-0.1-0.3-0.2-0.5-0.4c-0.2-0.2-0.5-0.3-0.8-0.4
			c-0.3-0.1-0.7-0.3-1-0.4c-0.5-0.2-1.1-0.2-1.7-0.3c-0.2,0-0.5,0-0.7,0c-0.4,0-0.8,0-1.2,0.1c-0.4,0-0.8,0.1-1.1,0.2
			c-0.4,0-0.9,0-1.3,0.1c-0.1,0-0.1,0-0.2,0c-0.2,0-0.4,0-0.6,0c-0.5,0-0.9,0-1.4,0c-0.1,0-0.1,0-0.2,0c0.5-0.4,1-0.7,1.5-1.1
			c0.7-0.4,1.3-0.7,2.1-0.9c0.2-0.1,0.4-0.1,0.7-0.1c0.5-0.1,1-0.1,1.6-0.1s1.1,0,1.7-0.1c0.7,0,1.4-0.2,2-0.4s1.2-0.5,1.7-0.8
			c0.3-0.2,0.5-0.5,0.8-0.8c0.3-0.3,0.5-0.7,0.6-1.1c0.2-0.3,0.2-0.7,0.3-1.1c0-0.2,0.1-0.4,0.1-0.6c0-0.3,0-0.6-0.1-0.9
			c-0.1-0.4-0.2-0.7-0.3-1c-0.1-0.5-0.4-0.9-0.6-1.3c-0.3-0.6-0.7-1.1-1-1.6l0,0l0,0c-0.1-0.2-0.2-0.3-0.3-0.5s-0.3-0.3-0.5-0.5
			c-0.1-0.1-0.2-0.2-0.3-0.2s-0.1-0.1-0.2-0.1c-0.3-0.2-0.6-0.5-0.9-0.7c-0.4-0.2-0.8-0.4-1.3-0.6s-1-0.3-1.4-0.3
			c-0.9-0.1-1.9,0-2.8,0.1c-1,0.2-2,0.5-2.9,0.8c-0.9,0.4-1.8,0.8-2.7,1.3c-0.3,0.2-0.6,0.4-0.9,0.5c-0.1,0-0.1,0-0.2,0
			c-0.2,0-0.5,0-0.7,0c-0.1,0-0.3,0-0.4,0.1c-0.1,0-0.2,0-0.2,0.1c-0.4,0-0.7,0.1-1.1,0.2c-0.4,0.1-0.9,0.3-1.3,0.5
			c-0.4,0.2-0.9,0.5-1.2,0.8c-0.7,0.6-1.3,1.3-1.9,2c-0.6,0.8-1,1.7-1.4,2.6c-0.4,0.9-0.7,1.8-1,2.8c-0.4,1.4-0.7,2.9-0.9,4.3
			c-0.2,0.7-0.3,1.3-0.3,2c-0.1,0.8-0.1,1.6-0.1,2.4c0.1,1.4,0.4,2.8,0.8,4.1c0.3,0.9,0.6,1.8,1.1,2.6c0.3,0.6,0.7,1.3,1.1,1.8
			c0,0.1,0,0.1,0.1,0.2c0,0.1,0.1,0.1,0.1,0.2l0,0l0,0c0.3,0.4,0.5,0.8,0.8,1.2l0.1,0.1c0.3,0.3,0.6,0.7,0.9,1c0,0,0,0.1,0.1,0.1
			c0.1,0.2,0.3,0.5,0.5,0.7l0,0c0.2,0.2,0.4,0.5,0.7,0.7c0.4,0.3,0.8,0.6,1.3,0.8c0.2,0.1,0.4,0.2,0.6,0.3l0,0
			c0.3,0.2,0.7,0.4,1,0.5c0.2,0.1,0.3,0.2,0.5,0.3c0.8,0.4,1.7,0.8,2.6,1.1c0.7,0.2,1.4,0.4,2.1,0.5l0.1,0.1c0.1,0,0.1,0,0.2,0.1
			l0,0l0,0c0.5,0.1,1,0.2,1.5,0.3h0.1c0.4,0,0.9,0.1,1.3,0.1h0.1c0.3,0.1,0.5,0.1,0.8,0.2l0,0c0.3,0,0.6,0,0.9,0
			c0.5,0,1-0.2,1.5-0.3c0.2-0.1,0.4-0.2,0.6-0.3l0,0c1.2-0.3,2.3-0.8,3.3-1.5c0.2-0.2,0.5-0.4,0.7-0.6c0.2-0.2,0.3-0.4,0.5-0.6
			c0.2-0.3,0.3-0.6,0.4-0.9c0.1-0.3,0.2-0.6,0.3-1c0-0.3,0.1-0.5,0.1-0.8C271.9,59.5,271.8,59.2,271.8,58.8z"/>
		<g>
			<path class="st1" d="M273.2,58.4c-0.7-2.6-1.2-6.3-4.6-7.3c-1.4-0.4-3.3-0.2-4.7,0.2c-2.1,0.5-4.9,3.9-5.6-0.6
				c-0.6,0.6-1.2,1.2-1.8,1.8c2.6,0.4,3.1,0.8,5.5,0.8c0.8,0,1.5-0.3,2.2-0.5c0.2,0,2.1-0.9,1.1-0.5c2.7-0.9,4.7-0.4,6.3-3.4
				c0.7-1.2,0.7-3.9-1.1-5.6c-3-2.8-8.1-1.9-11.7-1.5c0.3,0.9,0.5,1.9,0.8,2.8c4.3-3.1,16.3-1.3,13.3-10.6
				c-1.6-5.1-6.6-8.2-12.6-6.5c-2.6,0.8-4,2-6.4,2.4c-3.9,0.6-6.4,3.5-7.9,7c-3.2,7.4-3.1,14.9,1,21.8c0.4-0.8,0.9-1.5,1.3-2.3l0,0
				c-1.1,0-1.9,1.3-1.3,2.3c2.9,4.7,7.1,6.8,12.4,8.1c-0.4-0.5-0.7-1-1.1-1.4l0,0c0,0.6,0.5,1.3,1.1,1.4c5.8,1.3,14.5-0.3,13.9-7.9
				c-0.2-1.9-3.2-1.9-3,0c0.4,5.4-6.2,5.9-10.1,5c0.4,0.5,0.7,1,1.1,1.4l0,0c0-0.6-0.5-1.3-1.1-1.4c-4.4-1.1-8.2-2.7-10.6-6.7
				c-0.4,0.8-0.9,1.5-1.3,2.3l0,0c1.1,0,1.9-1.3,1.3-2.3c-2.8-4.7-3.3-9-2.3-14.3c0.7-3.6,2.3-8.7,6.3-9.8c1-0.3,1.9-0.1,2.9-0.4
				c4.2-1.4,9.5-4.7,12.6,0.4c1.3,2.2,2.1,4.7-1.1,6.3c-1.4,0.7-3.4,0.2-4.9,0.4c-2,0.3-3.4,1.2-5,2.3c-1.1,0.8-0.9,3,0.8,2.8
				c2.2-0.2,5.9-0.9,7.9-0.2c2.7,1,3.1,2.7,0.9,4c-2.9,1.7-7.2,1.4-10.4,1c-1.2-0.2-2,0.6-1.8,1.8c0.4,2.9,2.3,5.5,5.5,4.6
				c2-0.6,3.9-2.9,6.3-2.1c2.4,0.8,2.5,3.1,3.1,5.2C270.8,61.1,273.7,60.3,273.2,58.4z"/>
		</g>
	</g>
	<g>
		<g>
			<path class="st0" d="M109.1,24.3c-0.2,0.9-0.3,1.8,0,2.7l0,0c-0.1,1.2,0.8,2.3,1.8,2.7c0.3,0.2,0.6,0.4,0.9,0.6
				c0.1,0.1,0.1,0.1,0.2,0.2c0.3,0.3,0.7,0.6,1,0.8c0.7,0.4,1.2,0.5,1.9,0.7c0.2,0,0.5,0.1,0.8,0.1c0.6,0,1.2-0.1,1.8-0.3
				c0.3-0.1,0.6-0.2,0.9-0.3c0.5,0,1-0.1,1.4-0.2c1.6-0.3,3.1-0.9,4.4-1.9c0.4-0.3,0.7-0.7,1-1.1c0.3-0.3,0.5-0.6,0.7-1
				c0.4-0.7,0.5-1.2,0.7-2c0.3-0.7,0.5-1.5,0.6-2.3c0.1-0.6,0-1.3-0.2-1.8c-0.1-0.6-0.4-1.2-0.8-1.8c-0.3-0.4-0.5-0.8-0.8-1.1
				c-0.3-0.3-0.7-0.7-1-0.9c-0.7-0.6-1.5-1-2.3-1.3c-0.8-0.4-1.8-0.7-2.7-0.8c-0.3,0-0.7,0-1,0c-0.8-0.1-1.7,0-2.4,0.2
				c-0.8,0.3-1.6,0.7-2.2,1.2c-0.1,0.1-0.3,0.1-0.4,0.2c-1,0.5-1.6,1.2-2.3,2c-0.1,0.2-0.3,0.3-0.4,0.5c-0.1,0-0.1,0-0.2,0.1
				c-0.8,0.4-1.4,1.2-1.7,2C108.5,22.4,108.6,23.4,109.1,24.3C109.1,24.1,109.1,24.2,109.1,24.3z"/>
			<g>
				<path class="st1" d="M107.6,23.9c-0.3,2.5-0.4,5.1,1.7,6.7c2.1,1.7,4.4,3.2,7.2,2.8c6.2-0.7,12.6-4.4,11.9-11.6
					c-0.5-5.6-7.3-9.1-12.4-8c-2.6,0.6-4.5,2.4-6.3,4.2c-0.9,0.9-1.7,1.3-2.2,2.5C107.2,21.7,107.8,23,107.6,23.9
					c-0.5,1.9,2.4,2.7,2.9,0.8c1-3.5,0.8-4.7,4-6.7c3.2-2.1,8.2-1.3,10.3,2.2c1.3,2.1,0.5,5.5-1,7.3s-3.6,2-5.7,2.5
					c-2.2,0.5-3.2,0.7-5.2-0.6c-1.9-1.2-2.8-2.3-2.4-4.7C110.8,22.8,107.9,21.9,107.6,23.9z"/>
			</g>
		</g>
		<g>
			<g>
				<path class="st0" d="M110.6,55.2L110.6,55.2c-0.2,0.8-0.1,1.5,0,2.3c0.1,0.9,0.5,1.8,0.9,2.6c0.5,0.9,1.1,1.7,1.7,2.5
					c0.3,0.4,0.7,0.7,1,1.1c0.4,0.4,0.9,0.7,1.3,1c0.7,0.5,1.6,0.8,2.5,1c0.7,0.2,1.5,0.2,2.2,0.1c0.4,0,0.7-0.1,1.1-0.2
					s0.7-0.2,1.1-0.4c0.6-0.3,1.1-0.6,1.6-1.1c0.5-0.4,0.9-1,1.3-1.5c0.3-0.5,0.6-1.1,0.9-1.6c0.3-0.6,0.5-1.2,0.7-1.9
					c-0.1-0.6-0.1-1.2-0.2-1.7c-0.1-0.6-0.1-1.2-0.2-1.9c0-1.7-0.1-3.4-0.3-5.2c0-0.2,0-0.3,0-0.5c0.1-1.9,0.4-3.7,0.3-5.6
					c0-0.9-0.2-1.8-0.5-2.7c-0.3-0.9-0.8-1.7-1.4-2.3c-0.3-0.3-0.7-0.6-1.1-0.8c-0.4-0.3-0.9-0.5-1.4-0.7c-0.9-0.4-1.9-0.6-2.9-0.6
					c-0.1,0-0.2,0-0.2,0c-0.3,0-0.6,0-0.9,0.1l0,0c-0.2-0.1-0.5-0.1-0.7-0.1l0,0c-0.2,0-0.5,0-0.7,0.1c-0.1,0-0.3,0.1-0.4,0.1
					c-0.2,0-0.3,0.1-0.5,0.2c-0.3,0.1-0.6,0.2-0.9,0.4c-0.4,0.2-0.7,0.4-1,0.6c-0.5,0.3-0.9,0.7-1.3,1.1c-0.4,0.4-0.7,0.8-1,1.2
					s-0.5,0.9-0.7,1.3c-0.1,0.3-0.2,0.6-0.3,1c-0.1,0.5-0.1,1-0.2,1.5c-0.1,0.9-0.1,1.9,0,2.8c0.1,0.8,0.2,1.6,0.3,2.3
					c-0.1,1.1-0.2,2.2-0.3,3.4c0,0.5,0,0.9-0.1,1.4c0,0.1,0,0.2,0,0.2C110.4,54.9,110.5,55.1,110.6,55.2z"/>
				<g>
					<path class="st1" d="M109.2,54.8c-1.6,7,6.8,14.9,13.6,12c2.5-1.1,4.4-3.6,5.2-6.2c0.7-2.6,0-5.7-0.2-8.4
						c-0.1-2.8,0.4-5.7,0.1-8.5c-0.6-6-6.9-9.5-12.5-7.6c-3.1,1-5.6,3.9-6.2,7.1c-0.6,2.7,0,5.6-0.1,8.3c-0.1,1.5-0.6,3,0.2,4.5
						c0.9,1.7,3.5,0.2,2.6-1.5c-0.7-1.2,0.2-4.4,0.1-6c-0.2-3.3,0-7.6,3.6-9.3c1.1-0.5,1.5-0.4,2.5-0.4c0.3,0,0.7-0.1,1.1-0.1
						c3.8,0.8,5.6,2.8,5.7,6.6c0.1,2.3-0.3,4.6-0.2,6.9c0.1,2.5,0.9,6,0,8.3c-2.9,7.6-14.2,1.9-12.6-4.9
						C112.5,53.7,109.6,52.9,109.2,54.8z"/>
				</g>
			</g>
		</g>
	</g>
	<g>
		<path class="st0" d="M211.7,32.5c0-0.1,0-0.1,0-0.2c0.3-0.5,0.3-1.1,0.1-1.6s-0.5-1-1-1.2h-0.1c-0.1-0.1-0.1-0.2-0.2-0.3
			c-0.4-0.5-0.8-0.9-1.3-1.2c-0.1,0-0.1-0.1-0.2-0.1c-0.4-0.3-0.8-0.6-1.3-0.7c-0.2-0.1-0.4-0.1-0.7-0.1c0-0.7,0-1.5-0.1-2.2
			c-0.1-1.5-0.3-3-0.7-4.4c-0.2-0.7-0.4-1.4-0.7-2.1c-0.2-0.6-0.5-1.2-0.8-1.8c-0.3-0.6-0.7-1.1-1.2-1.6s-0.9-0.9-1.5-1.1
			c-0.3-0.2-0.6-0.3-1-0.4c-0.3-0.1-0.7-0.2-1-0.2c-0.1,0-0.1,0-0.2,0c-0.6-0.1-1.3-0.1-1.9,0c-0.5,0.1-0.9,0.1-1.3,0.3
			c-0.4,0.1-0.7,0.3-1,0.5c-0.5,0.3-1.1,0.8-1.5,1.3c-0.3,0.4-0.5,0.7-0.7,1.2c-0.1,0.2-0.2,0.4-0.3,0.5c-0.1,0.2-0.2,0.4-0.3,0.6
			l0,0c-0.4,0.6-0.8,1.2-1,1.9c-0.4,0.9-0.7,1.8-0.8,2.8c-0.1,0.8-0.1,1.6,0,2.4c0,0,0,0,0,0.1c-0.1,0.1-0.2,0.3-0.2,0.5
			c-0.1,0.7-0.2,1.3-0.2,2c-0.2,0-0.5,0-0.7,0s-0.4,0-0.6,0c-0.6,0.1-1.1,0.2-1.6,0.4c-0.5,0.2-0.9,0.5-1.4,0.8
			c-0.2,0.2-0.4,0.4-0.6,0.6c-0.2,0.2-0.3,0.4-0.5,0.6c-0.2,0.3-0.4,0.7-0.4,1c-0.1,0.3-0.1,0.7-0.1,1.1c0,0.5,0.2,0.9,0.3,1.3
			c0.1,0.5,0.2,0.7,0.4,1.2c0.1,0.2,0.3,0.4,0.4,0.6c0.2,0.2,0.3,0.5,0.6,0.7c0.7,0.6,1.6,1,2.6,1.1c0.3,0,0.6,0.1,0.8,0.1
			c0.1,0,0.2,0.1,0.3,0.1c0,0.1,0,0.1,0,0.2c0.1,2.1,0.2,4.1,0.5,6.2c0,0.2,0,0.3,0.1,0.5c0,1,0,2,0.1,3c0,0.7,0,1.4,0.1,2.1
			c0.1,1.2,0.1,2.4,0.2,3.6c-0.1,0.8-0.2,1.7-0.3,2.5c-0.1,1,0,2,0,3c0,0.6,0.1,1.1,0.2,1.7c0.1,0.4,0.1,0.7,0.3,1.1
			c0.2,0.5,0.4,1,0.7,1.4s0.6,0.9,0.9,1.3c0.4,0.4,0.8,0.8,1.2,1.2c0.3,0.3,0.6,0.5,0.9,0.7c0.3,0.2,0.6,0.3,0.8,0.4
			c0.1,0.1,0.3,0.1,0.4,0.2c0.1,0,0.3,0.1,0.4,0.1c0.2,0,0.4,0.1,0.6,0.1l0,0c0.1,0,0.2,0,0.2,0c0.2,0,0.3,0,0.5-0.1l0,0
			c0.3,0,0.5,0.1,0.8,0.1c0.1,0,0.1,0,0.2,0c0.9,0,1.9-0.2,2.7-0.6c0.5-0.2,0.9-0.4,1.3-0.7c0.4-0.3,0.7-0.6,1-0.9
			c0.6-0.7,1-1.6,1.3-2.5s0.4-1.9,0.4-2.9c0.1-2-0.2-4-0.3-6c0-0.2,0-0.4,0-0.5c0.2-1.8,0.3-3.7,0.3-5.5c0-0.4,0.1-0.8,0.1-1.2
			c0-0.3,0.1-0.5,0.1-0.8c0.2-2.4,0.5-4.8,0.6-7.2h0.1c0.3,0.1,0.7,0.2,1.1,0.2c0.2,0,0.3,0,0.4,0c0.4-0.1,0.7-0.2,1.1-0.4
			c0.2-0.1,0.4-0.3,0.6-0.5l0.1-0.1c0.2-0.1,0.4-0.2,0.5-0.3c0.6-0.2,1.2-0.9,1.1-1.6l0,0C211.8,33.6,211.8,33.1,211.7,32.5z"/>
		<g>
			<path class="st1" d="M213.1,32.1c-0.4-1.4,0.2-1.5-0.4-2.8c-0.1-0.3-1.4-1.3-0.9-0.8c-1.3-1.3-2.5-2.4-4.4-2.8
				c0.4,0.5,0.7,1,1.1,1.4c-0.2-6.5-2.2-16.7-11-15.4c-3.4,0.5-5.1,3.1-6.6,6c-0.8,1.6-1.5,3.3-1.6,5.1c0,0.5,0,2.6,0.1,1.9
				c0.1-1.4-0.7,4.1-0.5,2.4c0.5-0.5,1-1,1.5-1.5c-3.3,0.1-7.1,1.8-7.3,5.6c-0.3,4.7,3,5.8,6.5,7.1c-0.4-0.5-0.7-1-1.1-1.4
				c0,3.3,0.5,6.6,0.6,9.8c0.1,4-0.3,8.1,0.2,12c0.5,4.2,3.5,8.4,8,8.8c4.2,0.4,8.3-1.8,9.6-5.9c1.1-3.5,0.1-7.3,0.2-10.8
				c0.1-4.6,0.7-9.2,1-13.8c-0.6,0.5-1.3,1-1.9,1.4c4,1.5,7-2.3,7-5.8c0-1.9-3-1.9-3,0c0,1.3-1,3.7-3.2,2.9c-1-0.4-1.8,0.6-1.9,1.4
				c-0.4,5.3-1.2,10.7-1,16c0.1,1.3,0.3,2.5,0.3,3.8c0,3.2-0.1,3.8-2.9,5.9c-1.8,1.3-2.3,2.1-4.2,1.9c-6.5-0.6-4.8-9.6-5-13.9
				c-0.2-4.6-0.8-9.1-0.8-13.7c0-0.7-0.5-1.2-1.1-1.4c-1.7-0.6-2.9,0.6-4-2.7c-0.9-2.6,1.7-4,4.1-4c0.9,0,1.4-0.7,1.5-1.5
				c0.5-3.8,0.7-8,3.5-10.9c7.1-7.2,9.9,6.7,10,10.9c0,0.6,0.5,1.3,1.1,1.4c2.7,0.6,3,2.2,3.7,4.3C210.8,34.8,213.7,34,213.1,32.1z"
				/>
		</g>
	</g>
	<g>
		<path class="st0" d="M301.3,50.1c-0.3-0.9-0.6-1.7-1.1-2.4c0-0.1-0.1-0.2-0.1-0.2c-0.4-0.7-0.8-1.4-1.4-2
			c-0.1-0.1-0.2-0.3-0.3-0.4c-0.4-0.4-0.9-0.8-1.5-1c0,0-0.1,0-0.1-0.1c-0.4-0.3-0.9-0.4-1.2-0.5c-0.4-0.1-0.8-0.2-1.2-0.3
			c-0.8-0.2-1.6-0.2-2.6-0.2l0,0c-0.9-0.1-1.7-0.2-2.4-0.2c-0.2,0-0.3,0-0.5,0c-0.7,0-1.4,0.1-2,0.1c0,0,0,0-0.1,0l-0.1,0.1
			l-0.1,0.1c0,0-0.1,0-0.1,0.1c0,0-0.1,0-0.2,0h-0.1c-0.1,0-0.1,0-0.2,0h-0.1h-0.1c0,0,0,0-0.1,0s-0.1,0-0.2,0
			c-0.1,0-0.2-0.1-0.2-0.1l0,0c0,0,0,0,0-0.1c0,0,0,0,0-0.1c0,0,0,0,0-0.1c-0.1,0-0.1,0-0.2,0c-0.1-0.1-0.2-0.2-0.1-0.3
			c0,0,0,0,0-0.1c0,0,0-0.1,0.1-0.1l0,0c0,0,0,0,0-0.1l0,0c0,0,0,0,0-0.1c0,0,0,0,0-0.1c0,0,0-0.1,0.1-0.1l0,0l0,0v-0.1v-0.1
			c0,0,0-0.1,0.1-0.1l0.1-0.1c0,0,0,0,0.1,0l0,0l0,0l0,0c0,0,0.1,0,0.1-0.1c0.1,0,0.1,0,0.2-0.1l0,0l0,0l0,0l0,0
			c0.4-0.2,0.8-0.4,1.2-0.5c0.5-0.1,1-0.2,1.5-0.2c0.4,0,0.7,0.1,1.2,0.1l0,0h0.1c0.1,0,0.1,0,0.2,0c0.4,0.1,0.7,0.1,1.1,0.2
			l0.6,0.1c0.6,0.1,1.3,0.2,2,0.3c0.3,0,0.7,0,1,0c0.5,0,0.9,0,1.4-0.1c0.2,0,0.4,0,0.6,0c0.1,0,0.2,0,0.4,0c0.2,0,0.4-0.1,0.7-0.1
			c0.3-0.1,0.6-0.2,0.8-0.3c0.3-0.1,0.5-0.3,0.7-0.4c0.2-0.1,0.4-0.3,0.6-0.5s0.4-0.4,0.5-0.6l0.1-0.1c0.3-0.3,0.5-0.6,0.7-1
			c0.1-0.2,0.1-0.4,0.2-0.5v-0.1c0-0.1,0.1-0.2,0.1-0.4s0.1-0.4,0.1-0.6s0-0.5,0-0.6v-0.1c0-0.3-0.1-0.5-0.2-0.7
			c-0.1-0.3-0.2-0.6-0.2-0.8c-0.1-0.2-0.2-0.4-0.3-0.6c0-0.2-0.1-0.3-0.2-0.5c-0.2-0.2-0.4-0.4-0.5-0.6c-0.1-0.1-0.2-0.1-0.3-0.2
			l0,0l0,0c-0.1-0.1-0.1-0.1-0.2-0.1c0,0-0.1,0-0.1-0.1c0,0-0.1,0-0.1-0.1l0,0l0,0l0,0c-0.1-0.2-0.2-0.3-0.3-0.4
			c-0.3-0.3-0.7-0.5-1.1-0.7c-0.5-0.2-1.1-0.5-1.7-0.7c-0.3-0.1-0.6-0.2-1-0.2c-0.8-0.2-1.7-0.3-2.7-0.3c-0.1,0-0.2,0-0.3,0
			c-0.5,0-1,0-1.5,0.1c-0.1,0-0.1,0-0.2,0c0,0,0,0-0.1,0c0,0-0.1,0-0.2,0c-0.2,0-0.3,0-0.5,0c-0.6,0-1.2,0.1-1.9,0.2
			c-0.8,0.2-1.7,0.4-2.5,0.8c-0.9,0.4-1.7,0.8-2.5,1.3c-0.8,0.5-1.5,1.2-2.1,1.9c-0.4,0.5-0.8,1.1-1.1,1.6c-0.4,0.5-0.7,1-1,1.6
			c-0.3,0.6-0.5,1.2-0.7,1.9c-0.1,0.3-0.2,0.6-0.3,1c-0.2,0.4-0.3,0.9-0.3,1.3c-0.1,0.9-0.1,1.8,0,2.7c0,0.3,0,0.6,0,0.9
			c0,0.3,0,0.5,0,0.8c0,0.1,0,0.1,0,0.2v0.1v0.2l0.1,0.4c0.1,0.3,0.2,0.7,0.3,1.1c0.1,0.3,0.2,0.6,0.4,0.8c0,0,0,0,0,0.1V49
			c0.1,0.1,0.1,0.2,0.2,0.3c0,0,0,0.1,0.1,0.1c0.1,0.1,0.2,0.3,0.4,0.4c0,0,0,0,0,0.1l0.1,0.1l0.4-0.3l0,0l-0.3,0.3
			c0.1,0.1,0.2,0.2,0.3,0.3l0,0l0,0l0,0c0.1,0.1,0.2,0.1,0.2,0.2l0,0h0.1l0.1,0.1l0.1,0.1c0,0,0,0,0.1,0L280,51l0,0
			c0.1,0.1,0.3,0.2,0.4,0.3c0,0,0,0,0.1,0c0,0,0,0,0.1,0h0.1c0.2,0.1,0.4,0.2,0.5,0.2s0.2,0.1,0.3,0.1h0.1h0.1h0.1l0.2,0.1h0.1
			l0.2,0.1h0.1l0.2-0.4l0,0l-0.1,0.5c0,0,0,0,0.1,0s0.2,0.1,0.3,0.1h0.1l0.2,0.1h0.1h0.1h0.2h0.1h0.1h0.1l0,0h0.1h0.2h0.1
			c0.2,0,0.4,0.1,0.5,0.1s0.3,0,0.4,0c0,0,0,0,0.1,0c0.4,0,0.7,0.1,1.1,0.1h0.1h0.1c0.2,0,0.4-0.1,0.7-0.1h0.1h0.1h0.1h0.1
			c0.1,0,0.2-0.1,0.3-0.1l0,0h0.1c0,0,0,0,0.1,0h0.1h0.1c0,0,0,0,0.1,0s0.2,0,0.2,0h0.1c0.3,0,0.5-0.1,0.7-0.1l0,0l0,0h0.1
			c0.3,0,0.6-0.1,1-0.2h0.2c0.8,0.1,1.4,0.3,1.9,0.5c0.4,0.2,0.7,0.3,1,0.5c0.1,0.1,0.2,0.2,0.3,0.3c0.1,0.1,0.1,0.2,0.1,0.3v0.1
			c0,0.1,0,0.2-0.1,0.3c0,0.1,0,0.1-0.1,0.2c0,0.1-0.1,0.1-0.1,0.2c-0.1,0.1-0.1,0.1-0.2,0.2h-0.1c-0.2,0.1-0.4,0.2-0.5,0.2
			l-0.1,0.1c0,0-0.1,0-0.1,0.1c-0.2,0-0.4,0.1-0.6,0.1h-0.1c-0.5,0-1-0.2-1.5-0.3c-0.2-0.1-0.5-0.1-0.7-0.2
			c-0.4-0.1-0.7-0.2-1.1-0.3c-0.3-0.1-0.6-0.1-1-0.2c-0.4-0.1-0.8-0.1-1.1-0.1c-0.4,0-0.8,0-1.2,0.1c-0.1,0-0.2,0.1-0.3,0.1
			c-0.2,0-0.3,0-0.5,0c-0.1,0-0.3,0-0.4,0c-1,0-1.8,0.1-2.6,0.4c-1.2,0.3-2.1,0.8-2.8,1.4c-0.9,0.8-1.6,2-1.7,3.2
			c0,0.4-0.1,0.7-0.1,1s0.1,0.7,0.1,1.1c0,0.1,0,0.2,0.1,0.3c0,0.1,0,0.1,0.1,0.2l0,0c0,0,0,0,0,0.1c0,0,0,0,0,0.1s0.1,0.2,0.2,0.3
			l0.1,0.1v0.1c0.1,0.1,0.1,0.1,0.2,0.2l0.2,0.3c0.1,0.1,0.2,0.2,0.3,0.4c0.2,0.3,0.6,0.7,1,1.1c0,0,0,0,0.1,0
			c0.1,0.1,0.2,0.1,0.3,0.2c0.1,0.1,0.2,0.1,0.3,0.2l0,0c0,0,0.1,0,0.1,0.1l0.3-0.4l0,0l-0.2,0.4h0.1c0.1,0,0.1,0.1,0.2,0.1h0.1
			c0.2,0.1,0.4,0.2,0.6,0.2l0.3,0.1h0.1h0.1l0.1,0.1l0,0h0.1h0.1c0.1,0.1,0.3,0.1,0.4,0.2c0.1,0,0.1,0,0.2,0c0.3,0.1,0.7,0.1,1,0.1
			h0.1c0.1,0,0.2,0,0.3,0c0.1,0.1,0.2,0.1,0.3,0.1c0.4,0,0.9,0,1.3,0s0.9,0,1.3,0c0.4,0,0.8-0.1,1.2-0.1l0,0c0.3,0,0.7,0,1,0
			s0.6,0,1,0h0.3h0.3c0.2,0,0.4,0,0.6,0s0.4,0,0.6,0h0.1c0.3,0,0.6,0,1-0.1c0.1,0,0.3,0,0.4,0c0.6-0.1,1.2-0.2,1.9-0.4
			c0.6-0.2,1.2-0.4,1.7-0.7c0.6-0.4,1.2-0.8,1.6-1.2c0.3-0.3,0.5-0.6,0.7-0.9c0.2-0.3,0.4-0.6,0.6-0.9c0.1-0.2,0.2-0.4,0.3-0.7
			c0-0.1,0.1-0.1,0.1-0.2c0.2-0.4,0.4-0.8,0.6-1.3c0.2-0.4,0.3-0.9,0.4-1.4c0-0.2,0.1-0.4,0.1-0.7c0-0.1,0-0.2,0.1-0.2
			c0.3-0.8,0.5-1.7,0.6-2.6C301.8,52.9,301.7,51.4,301.3,50.1z"/>
		<g>
			<path class="st1" d="M302.8,49.7c-1.9-5.1-4.9-7.8-10.3-8.3c-1.7-0.2-4.5-0.8-6.1-0.1c-1.1,0.5,0.3-0.2,0.3,1.3
				c0-0.7-0.5-1.3-1.1-1.4c-1.5-0.4,1.9,3,0.9,1.4l-0.1-1.2c-0.2,0.9,0.3,1.5-0.1,1.3c-0.3-0.1,0.6,0,0.1,0c-0.3,0,1.6-0.6,1.8-0.6
				c1.8-0.2,3.6,0.6,5.4,0.7c3.6,0.2,7.4-0.4,8.9-4.1c1-2.4,0.1-5.8-2.1-7.3c-0.4,0.9-0.8,1.8-1.2,2.7l0,0c1.4,0.5,2.5-1.5,1.5-2.5
				c-0.7-0.6-0.5-0.6-0.2,0c-0.2,0.7-0.4,1.4-0.5,2.1l0,0c1.6-1.2,0.3-3.4-1.5-2.6l0,0c0.7,0.2,1.4,0.4,2.1,0.5
				c-4.8-6.4-17.7-2.6-21.7,2.8c-3.1,4.3-5,12.4-0.8,16.7c0.6,0.6,1.5,0.5,2.1,0c0.1-0.1,0.2-0.2,0.4-0.3c-0.7,0-1.4,0-2.1,0l0,0
				c0-0.7,0-1.4,0-2.1c-0.1,0.1-0.2,0.2-0.3,0.3c-0.6,0.6-0.6,1.6,0,2.1c0.1,0.1,0.2,0.2,0.3,0.3c0.4,0.4,1.3,0.6,1.8,0.2l0,0
				c-0.6-0.1-1.2-0.2-1.8-0.2c0.8,0.8,2,1.5,3.5,1.9c0.8,0.2,1.6-0.3,1.8-1c0.1-0.1,0.1-0.3,0.2-0.4c-0.6,0.3-1.2,0.7-1.8,1l0,0
				c-0.3-0.6-0.7-1.2-1-1.8c0,0.2-0.1,0.3-0.1,0.5c-0.2,0.8,0.3,1.6,1,1.8c1.8,0.5,3.7,0.7,5.6,0.5c0.5,0,0.9-0.3,1.4-0.3
				s1.1,0,1.6-0.1c0.6-0.1,2.2,0,2.1-0.3l-0.8,0.3c-5-2-15.1-1.7-16.3,5.2c-0.5,3,1,6,3.7,7.4c0.7,0.4,1.6,0.2,2.1-0.5
				c0.1-0.1,0.2-0.3,0.3-0.4c-0.7,0.2-1.4,0.4-2.1,0.5l0,0c-0.2-0.7-0.4-1.4-0.5-2.1c-0.1,0.1-0.1,0.3-0.2,0.4
				c-0.4,0.7-0.2,1.7,0.5,2.1c3.8,2,7.6,1.3,11.8,1.1C300,66.9,304.6,58.3,302.8,49.7c-0.4-1.9-3.3-1.1-2.9,0.8
				c0.9,3.9-0.3,10.4-4.1,12.7c-2.3,1.3-5,1-7.5,1.1c-2.6,0.1-5.2,0.5-7.6-0.7c0.2,0.7,0.4,1.4,0.5,2.1c0.1-0.1,0.1-0.3,0.2-0.4
				c0.4-0.7,0.2-1.7-0.5-2.1l0,0c-0.7-0.4-1.6-0.2-2.1,0.5c-0.1,0.1-0.2,0.3-0.3,0.4c0.7-0.2,1.4-0.4,2.1-0.5
				c-0.8-0.4-2.1-2.1-2.1-2.2c-2.3-6.2,7.4-6,10.6-5.3c2,0.4,8.1,0.4,5.7-3.5c-2.1-3.4-8.6-1-12-1.9c0.3,0.6,0.7,1.2,1,1.8
				c0-0.2,0.1-0.3,0.1-0.5c0.2-0.8-0.3-1.6-1-1.8l0,0c-0.8-0.2-1.6,0.3-1.8,1c-0.1,0.1-0.1,0.3-0.2,0.4c0.6-0.3,1.2-0.7,1.8-1
				c-1.3-0.3-1.9-0.9-2.2-1.1c-0.4-0.4-1.3-0.6-1.8-0.2l0,0c0.6,0.1,1.2,0.2,1.8,0.2c-0.1-0.1-0.2-0.2-0.3-0.3c0,0.7,0,1.4,0,2.1
				c0.1-0.1,0.2-0.2,0.3-0.3c0.6-0.6,0.6-1.5,0-2.1l0,0c-0.6-0.6-1.5-0.5-2.1,0c-0.1,0.1-0.2,0.2-0.4,0.3c0.7,0,1.4,0,2.1,0
				c-2.6-2.7-1.3-8.3,0.1-11.1c2-4,5.7-5.9,10-6.3c1.3-0.1,6.3-0.4,7.7,1.5c0.5,0.7,1.2,0.9,2.1,0.5l0,0c-0.5-0.9-1-1.7-1.5-2.6l0,0
				c-0.7,0.5-0.9,1.2-0.5,2.1c0.1,0.3,0.8,0.7,0.7,0.6c0.5-0.8,1-1.7,1.5-2.5l0,0c-1.7-0.6-2.5,1.8-1.2,2.7c1.7,1.1,1,3.9-0.2,5
				c-2,1.7-5.4,0.8-7.8,0.4c-1.2-0.2-2.9-0.5-4.5,0.1c-0.4,0.1-2.7,1.3-1.5,0.8c0.5-0.2,0.4-0.6-0.1-0.1c-0.9,0.8-1,0.8-1.2,1.6
				c0,0,0,1.3,0.2,1.2c1.2-0.5-0.5-2.4-0.2-1.1c0.2,1-0.2,2,1.2,2.4c-0.4-0.5-0.7-1-1.1-1.4c0.1,1.9,1.8,1.8,3.1,1.8
				c1.2,0-0.2-0.2-0.2-0.2c1.2-0.2,2.6-0.1,3.9,0c4.8,0.3,7.6,1.6,9.4,6.3C300.5,52.3,303.4,51.5,302.8,49.7z"/>
		</g>
	</g>
	<g>
		<g>
			<path class="st0" d="M163.5,24.3c-0.2,0.9-0.3,1.8,0,2.7l0,0c-0.1,1.2,0.8,2.3,1.8,2.7c0.3,0.2,0.6,0.4,0.9,0.6
				c0.1,0.1,0.1,0.1,0.2,0.2c0.3,0.3,0.7,0.6,1,0.8c0.7,0.4,1.2,0.5,1.9,0.7c0.2,0,0.5,0.1,0.8,0.1c0.6,0,1.2-0.1,1.8-0.3
				c0.3-0.1,0.6-0.2,0.9-0.3c0.5,0,1-0.1,1.4-0.2c1.6-0.3,3.1-0.9,4.4-1.9c0.4-0.3,0.7-0.7,1-1.1c0.3-0.3,0.5-0.6,0.7-1
				c0.4-0.7,0.5-1.2,0.7-2c0.3-0.7,0.5-1.5,0.6-2.3c0.1-0.6,0-1.3-0.2-1.8c-0.1-0.6-0.4-1.2-0.8-1.8c-0.3-0.4-0.5-0.8-0.8-1.1
				c-0.3-0.3-0.7-0.7-1-0.9c-0.7-0.6-1.5-1-2.3-1.3c-0.8-0.4-1.8-0.7-2.7-0.8c-0.3,0-0.7,0-1,0c-0.8-0.1-1.7,0-2.4,0.2
				c-0.8,0.3-1.6,0.7-2.2,1.2c-0.1,0.1-0.3,0.1-0.4,0.2c-1,0.5-1.6,1.2-2.3,2c-0.1,0.2-0.3,0.3-0.4,0.5c-0.1,0-0.1,0-0.2,0.1
				c-0.8,0.4-1.4,1.2-1.7,2c-0.3,0.9-0.2,1.9,0.2,2.7C163.5,24.1,163.5,24.2,163.5,24.3z"/>
			<g>
				<path class="st1" d="M162,23.9c-0.3,2.5-0.4,5.1,1.7,6.7c2.1,1.7,4.4,3.2,7.2,2.8c6.2-0.7,12.6-4.4,11.9-11.6
					c-0.5-5.6-7.3-9.1-12.4-8c-2.6,0.6-4.5,2.4-6.3,4.2c-0.9,0.9-1.7,1.3-2.2,2.5C161.6,21.7,162.3,23,162,23.9
					c-0.5,1.9,2.4,2.7,2.9,0.8c1-3.5,0.8-4.7,4-6.7c3.2-2.1,8.2-1.3,10.3,2.2c1.3,2.1,0.5,5.5-1,7.3s-3.6,2-5.7,2.5
					c-2.2,0.5-3.2,0.7-5.2-0.6c-1.9-1.2-2.8-2.3-2.4-4.7C165.2,22.8,162.3,21.9,162,23.9z"/>
			</g>
		</g>
		<g>
			<g>
				<path class="st0" d="M165.1,55.2L165.1,55.2c-0.2,0.8-0.1,1.5,0,2.3c0.1,0.9,0.5,1.8,0.9,2.6c0.5,0.9,1.1,1.7,1.7,2.5
					c0.3,0.4,0.7,0.7,1,1.1c0.4,0.4,0.9,0.7,1.3,1c0.7,0.5,1.6,0.8,2.5,1c0.7,0.2,1.5,0.2,2.2,0.1c0.4,0,0.7-0.1,1.1-0.2
					c0.4-0.1,0.7-0.2,1.1-0.4c0.6-0.3,1.1-0.6,1.6-1.1c0.5-0.4,0.9-1,1.3-1.5c0.3-0.5,0.6-1.1,0.9-1.6c0.3-0.6,0.5-1.2,0.7-1.9
					c-0.1-0.6-0.1-1.2-0.2-1.7c-0.1-0.6-0.1-1.2-0.2-1.9c0-1.7-0.1-3.4-0.3-5.2c0-0.2,0-0.3,0-0.5c0.1-1.9,0.4-3.7,0.3-5.6
					c0-0.9-0.2-1.8-0.5-2.7c-0.3-0.9-0.8-1.7-1.4-2.3c-0.3-0.3-0.7-0.6-1.1-0.8c-0.4-0.3-0.9-0.5-1.4-0.7c-0.9-0.4-1.9-0.6-2.9-0.6
					c-0.1,0-0.2,0-0.2,0c-0.3,0-0.6,0-0.9,0.1l0,0c-0.2-0.1-0.5-0.1-0.7-0.1l0,0c-0.2,0-0.5,0-0.7,0.1c-0.1,0-0.3,0.1-0.4,0.1
					c-0.2,0-0.3,0.1-0.5,0.2c-0.3,0.1-0.6,0.2-0.9,0.4c-0.4,0.2-0.7,0.4-1,0.6c-0.5,0.3-0.9,0.7-1.3,1.1c-0.4,0.4-0.7,0.8-1,1.2
					s-0.5,0.9-0.7,1.3c-0.1,0.3-0.2,0.6-0.3,1c-0.1,0.5-0.1,1-0.2,1.5c-0.1,0.9-0.1,1.9,0,2.8c0.1,0.8,0.2,1.6,0.3,2.3
					c-0.1,1.1-0.2,2.2-0.3,3.4c0,0.5,0,0.9-0.1,1.4c0,0.1,0,0.2,0,0.2C164.9,54.9,164.9,55.1,165.1,55.2z"/>
				<g>
					<path class="st1" d="M163.6,54.8c-1.6,7,6.8,14.9,13.6,12c2.5-1.1,4.4-3.6,5.2-6.2c0.7-2.6,0-5.7-0.2-8.4
						c-0.1-2.8,0.4-5.7,0.1-8.5c-0.6-6-6.9-9.5-12.5-7.6c-3.1,1-5.6,3.9-6.2,7.1c-0.6,2.7,0,5.6-0.1,8.3c-0.1,1.6-0.5,3.1,0.3,4.5
						c0.9,1.7,3.5,0.2,2.6-1.5c-0.7-1.2,0.2-4.4,0.1-6c-0.2-3.3,0-7.6,3.6-9.3c1.1-0.5,1.5-0.4,2.5-0.4c0.3,0,0.7-0.1,1.1-0.1
						c3.8,0.8,5.6,2.8,5.7,6.6c0.1,2.3-0.3,4.6-0.2,6.9c0.1,2.5,0.9,6,0,8.3c-2.9,7.6-14.2,1.9-12.6-4.9
						C166.9,53.7,164,52.9,163.6,54.8z"/>
				</g>
			</g>
		</g>
	</g>
	<g>
		<g>
			<path class="st0" d="M221.7,18.7c-0.2,0.6-0.2,1.3,0,1.8l0,0c-0.1,0.8,0.5,1.6,1.3,1.8c0.2,0.1,0.4,0.3,0.6,0.4l0.1,0.1
				c0.2,0.2,0.5,0.4,0.7,0.6c0.4,0.3,0.8,0.4,1.3,0.4c0.2,0,0.3,0,0.5,0c0.4,0,0.8-0.1,1.2-0.2c0.2-0.1,0.4-0.1,0.6-0.2
				c0.3,0,0.6-0.1,1-0.1c1.1-0.2,2.1-0.6,3-1.3c0.3-0.2,0.5-0.5,0.7-0.8c0.2-0.2,0.4-0.4,0.5-0.7c0.2-0.5,0.4-0.8,0.4-1.3
				c0.2-0.5,0.3-1,0.4-1.5c0-0.4,0-0.9-0.1-1.3s-0.3-0.8-0.5-1.2c-0.2-0.3-0.3-0.5-0.5-0.7s-0.5-0.5-0.7-0.6c-0.5-0.4-1-0.7-1.6-0.9
				c-0.6-0.3-1.2-0.5-1.8-0.5c-0.2,0-0.4,0-0.7,0c-0.5-0.1-1.1,0-1.6,0.2c-0.6,0.2-1.1,0.5-1.5,0.8c-0.1,0-0.2,0.1-0.3,0.1
				c-0.7,0.4-1.1,0.9-1.5,1.4c-0.1,0.1-0.2,0.2-0.3,0.4h-0.1c-0.5,0.2-1,0.8-1.1,1.3c-0.2,0.6-0.1,1.3,0.1,1.8
				C221.8,18.6,221.8,18.7,221.7,18.7z"/>
			<g>
				<path class="st1" d="M220.3,18.3c-0.3,1.9-0.2,3.9,1.4,5.1c1.5,1.2,3.2,2.2,5.2,2c4.5-0.5,9.1-3.2,8.6-8.5
					c-0.4-4.1-5.3-6.7-9-5.8c-1.9,0.4-3.4,2-4.5,3c-0.4,0.3-1.2,1-1.6,1.8C220,16.7,220.4,18,220.3,18.3c-0.5,1.9,2.4,2.7,2.9,0.8
					c0.3-0.9-0.1-1.6,0.5-2.5c0.4-0.7,1.4-1.4,2-1.8c1.9-1.3,5.1-0.9,6.4,1.3c0.8,1.3,0.3,3.4-0.7,4.5c-0.9,1.1-2.3,1.2-3.5,1.5
					c-1.3,0.3-1.9,0.5-3.1-0.3c-1.2-0.7-1.7-1.2-1.5-2.7C223.5,17.2,220.6,16.4,220.3,18.3z"/>
			</g>
		</g>
		<g>
			<g>
				<path class="st0" d="M220.5,52L220.5,52c-0.2,1-0.1,2,0,3c0.1,1.2,0.5,2.3,0.9,3.4c0.5,1.2,1.1,2.3,1.7,3.3c0.3,0.5,0.7,1,1,1.4
					c0.4,0.5,0.9,0.9,1.3,1.3c0.7,0.6,1.6,1.1,2.5,1.3c0.7,0.2,1.5,0.3,2.2,0.2c0.4-0.1,0.7-0.1,1.1-0.2c0.4-0.1,0.7-0.3,1.1-0.5
					c0.6-0.3,1.1-0.8,1.6-1.4c0.5-0.6,0.9-1.2,1.3-1.9c0.3-0.7,0.6-1.4,0.9-2.1c0.3-0.8,0.5-1.6,0.7-2.5c-0.1-0.8-0.1-1.5-0.2-2.3
					c-0.1-0.8-0.1-1.6-0.2-2.4c0-2.2-0.1-4.5-0.3-6.7c0-0.2,0-0.4,0-0.6c0.1-2.4,0.4-4.9,0.3-7.3c0-1.2-0.2-2.4-0.5-3.5
					c-0.3-1.1-0.8-2.2-1.4-3c-0.3-0.4-0.7-0.8-1.1-1.1c-0.4-0.4-0.9-0.6-1.4-0.9c-0.9-0.5-1.9-0.7-2.9-0.8c-0.1,0-0.2,0-0.2,0
					c-0.3,0-0.6,0-0.9,0.1l0,0c-0.2-0.1-0.5-0.1-0.7-0.1l0,0c-0.2,0-0.5,0.1-0.7,0.1c-0.1,0-0.3,0.1-0.4,0.1
					c-0.2,0.1-0.3,0.1-0.5,0.2c-0.3,0.2-0.6,0.3-0.9,0.5c-0.4,0.2-0.7,0.5-1,0.8c-0.5,0.4-0.9,0.9-1.3,1.4c-0.4,0.5-0.7,1-1,1.6
					c-0.3,0.5-0.5,1.1-0.7,1.7c-0.1,0.4-0.2,0.8-0.3,1.3c-0.1,0.7-0.1,1.3-0.2,2c-0.1,1.2-0.1,2.4,0,3.6c0.1,1,0.2,2,0.3,3
					c-0.1,1.5-0.2,2.9-0.3,4.4c0,0.6,0,1.2-0.1,1.8c0,0.1,0,0.2,0,0.3C220.3,51.6,220.4,51.8,220.5,52z"/>
				<g>
					<path class="st1" d="M219,51.6c-1.2,6.7,5.1,19.1,13.4,15.1c3.2-1.6,5.5-6,5.7-9.5c0.2-2.8-0.4-6.1-0.5-8.9
						c-0.2-3.5,0.4-7,0.2-10.5c-0.2-4.9-2.2-9.8-7.6-10.6c-1.6-0.3-3.6-0.4-5.4,0.4c-3.6,1.7-5.6,5.8-6,9.7c-0.3,3,0.2,6.1,0.1,9.1
						c-0.1,2.1-0.6,4.4,0.3,6.4c0.8,1.8,3.3,0.2,2.6-1.5c-0.8-1.8,0.2-5.8,0.1-7.8c-0.1-3.1-0.5-6.5,0.9-9.4c1-2.1,2.7-3.6,4.8-3.9
						c5.5-0.8,7.2,5.3,7.2,9.6c0,3.2-0.3,6.3-0.2,9.5c0.1,2.8,0.7,6.1,0.2,8.9c-0.7,3.9-3.7,7.6-7.9,5.4c-3.4-1.7-5.7-7.6-5.1-11.1
						C222.3,50.5,219.4,49.7,219,51.6z"/>
				</g>
			</g>
		</g>
	</g>
</g>
</svg>
