<?xml version="1.0" encoding="utf-8"?>
<!-- Generator: Adobe Illustrator 22.1.0, SVG Export Plug-In . SVG Version: 6.00 Build 0)  -->
<svg version="1.1" id="Layer_1" xmlns="http://www.w3.org/2000/svg" xmlns:xlink="http://www.w3.org/1999/xlink" x="0px" y="0px"
	 viewBox="0 0 665.2 429.6" style="enable-background:new 0 0 665.2 429.6;" xml:space="preserve">
<style type="text/css">
	.st0{opacity:0.1;}
	.st1{opacity:0.1;fill:#584C4F;stroke:#584C4F;stroke-width:4;stroke-miterlimit:10;enable-background:new    ;}
	.st2{fill:#584C4F;stroke:#584C4F;stroke-width:4;stroke-miterlimit:10;}
	.st3{fill:#A36B78;stroke:#584C4F;stroke-width:4;stroke-linecap:round;stroke-miterlimit:10;}
	.st4{fill:#584C4F;stroke:#584C4F;stroke-width:4;stroke-linecap:round;stroke-miterlimit:10;}
	.st5{opacity:0.1;fill:#231F20;stroke:#231F20;stroke-width:4;stroke-miterlimit:10;enable-background:new    ;}
	.st6{fill:#FFD767;stroke:#584C4F;stroke-width:4;stroke-miterlimit:10;}
	.st7{fill:none;stroke:#584C4F;stroke-width:4;stroke-linecap:round;stroke-miterlimit:10;}
	.st8{fill:#FFFFFF;stroke:#584C4F;stroke-width:4;stroke-linecap:round;stroke-miterlimit:10;}
</style>
<g id="Layer_5" class="st0">
</g>
<g id="Layer_3" class="st0">
</g>
<path class="st1" d="M624.5,269.5c0.1-0.8,0.2-1.5,0.3-2.3c2.7-23.2,0.5-41.4-4.7-55.9c0.3,0.2,0.5,0.2,0.5,0.2s2.2-19.3-0.8-29.5
	c-0.4-3.4-1.8-7.8-4.8-13.3c0-0.1-0.1-0.1-0.1-0.1c-0.7-1.1-1.4-2.3-2.1-3.6c-7.3-11.5-18.1-19.3-29.3-24.4c-0.9-4.7-5-9.4-10.9-6.9
	c0,0-0.9,0.8-1.8,1.9c-46.6-20.2-61.5,8.8-66,33.8c-4.3,0.2-8.4,0.4-12.1,0.6c-38.7,2.6-28.5,17.3-28.5,17.3s0,0,0.1,0.1
	c1.1,2.1,4.5,4.1,8.3,5.9c3.3,1.7,7.7,3.5,13.5,5c-0.6,1.2-1.2,2.4-1.8,3.7c-6.3,0-26,0.9-15.7,14.5c-12.4,10.8-14.2,23.4-10.4,34
	c-2.1,1.3-3.5,4.6-3.6,10.8c-0.7,30.3,7.5,62.9,18.3,58.8c2.2-0.8,4-1.9,5.4-3c0.2,1.4,0.5,2.8,0.8,4.1c-5.2,1.3-9.1,4.4-2.9,11.3
	c0.8,0.9,1.6,1.7,2.5,2.3c-3.8,2.5-4.9,6,2.4,10.8c1.2,0.8,2.3,1.4,3.3,1.8c1.6,7.9,5,16.6,10.2,24.6l0,0c0.5,0.8,1,1.6,1.6,2.3
	c0.3,0.4,0.6,0.8,0.8,1.2c0.1,0.1,0.1,0.2,0.2,0.3c5.1,6.9,11.7,13.2,19.7,17.9c-1.6,3.1-1.8,8.5,12.9,11.4
	c15.9,3.1,27.7,0.9,31.2-3.8c1.8-0.3,3.6-0.6,5.4-1c37.1-7.9,44.5-20.5,51.1-69.8c0.7,0.5,1.6,1,2.5,1.4c10.4,5,21.4-26.9,23.2-57
	C644.1,257.3,633.5,262.3,624.5,269.5z"/>
<path class="st2" d="M634.5,259.5c0.1-0.8,0.2-1.5,0.3-2.3c2.7-23.2,0.5-41.4-4.7-55.9c0.3,0.2,0.5,0.2,0.5,0.2s2.2-19.3-0.8-29.5
	c-0.4-3.4-1.8-7.8-4.8-13.3c0-0.1-0.1-0.1-0.1-0.1c-0.7-1.1-1.4-2.3-2.1-3.6c-7.3-11.5-18.1-19.3-29.3-24.4c-0.9-4.7-5-9.4-10.9-6.9
	c0,0-0.9,0.8-1.8,1.9c-46.6-20.2-61.5,8.8-66,33.8c-4.3,0.2-8.4,0.4-12.1,0.6c-38.6,2.5-28.3,17.2-28.3,17.2s0,0,0.1,0.1
	c1.1,2.1,4.5,4.1,8.3,5.9c3.3,1.7,7.7,3.5,13.5,5c-0.6,1.2-1.2,2.4-1.8,3.7c-6.3,0-26,0.9-15.7,14.5c-12.3,11-14.2,23.6-10.3,34.1
	c-2.1,1.3-3.5,4.6-3.6,10.8c-0.7,30.3,7.5,62.9,18.3,58.8c2.2-0.8,4-1.9,5.4-3c0.2,1.4,0.5,2.8,0.8,4.1c-5.2,1.3-9.1,4.4-2.9,11.3
	c0.8,0.9,1.6,1.7,2.5,2.3c-3.8,2.5-4.9,6,2.4,10.8c1.2,0.8,2.3,1.4,3.3,1.8c1.6,7.9,5,16.6,10.2,24.6l0,0c0.5,0.8,1,1.6,1.6,2.3
	c0.3,0.4,0.6,0.8,0.8,1.2c0.1,0.1,0.1,0.2,0.2,0.3c5.1,6.9,11.7,13.2,19.7,17.9c-1.6,3.1-1.8,8.5,12.9,11.4
	c15.9,3.1,27.7,0.9,31.2-3.8c1.8-0.3,3.6-0.6,5.4-1c37.1-7.9,44.5-20.5,51.1-69.8c0.7,0.5,1.6,1,2.5,1.4c10.4,5,21.4-26.9,23.2-57
	C654.1,247.3,643.5,252.3,634.5,259.5z"/>
<g id="XMLID_4782_">
	<g id="XMLID_4923_">
		<path id="XMLID_4926_" class="st3" d="M504.6,249.9c0,0-29.3-38.7-30-8.5c-0.7,30.3,7.5,62.9,18.3,58.8s11-13.1,11-13.1"/>
		<path id="XMLID_4925_" class="st3" d="M495,252c0,0-11.4-17.7-14.3-9.4"/>
		<path id="XMLID_4924_" class="st3" d="M499.4,264.3c0,0-16.8-4.4-14.4,5.3c2.4,9.8,8.5,16.2,11.4,5.4"/>
	</g>
	<path id="XMLID_4922_" class="st4" d="M592.4,113.7c0,0-11,9.7,2.7,14C608.8,132.2,604.3,108.8,592.4,113.7z"/>
	<path id="XMLID_4921_" class="st3" d="M569.2,137.3c0,0,87.8,6.3,75.5,109.9c-12.3,103.6-8.9,122.5-58.4,133.1s-76.6-25.6-82-53.2
		C498.9,299.5,459.1,150.9,569.2,137.3z"/>
	<path class="st5" d="M610.4,152.6c11.1,16.3,17.9,39.9,13.8,74.1c-12.3,103.6-8.9,122.5-58.4,133.1c-21.2,4.5-38.3,0.5-51.3-7.8
		c12.8,19.7,36.7,35.7,71.7,28.2c49.5-10.5,46.2-29.5,58.4-133.1C650.9,194.4,631.2,166.9,610.4,152.6z"/>
	<path id="XMLID_4920_" class="st6" d="M639.7,162.1c-0.4-3.4-1.8-7.8-4.8-13.3c0-0.1-0.1-0.1-0.1-0.1l0,0c-0.7-1.1-1.4-2.3-2.1-3.6
		c-9.8-15.3-25.8-24.2-40.5-28.7c-62.9-28.2-69.2,31.4-69.5,54c0,2.1,28.3-0.2,54.2-6.7c32.8,13.2,63.7,28,63.7,28
		S642.8,172.3,639.7,162.1z"/>
	<path id="XMLID_4919_" class="st3" d="M560.1,256.1c0,0,15.6,11.7,35.9,4.6"/>
	<path id="XMLID_4918_" class="st3" d="M521.7,256.6c0,0-25.3,5.5-30.6,3.1"/>
	<path id="XMLID_4917_" class="st3" d="M538.6,371.3c0,0-10.4,9.6,11.1,13.8s35.7-1.4,31.5-9.6"/>
	<path id="XMLID_4827_" class="st6" d="M507.2,178.5c0,0,33.5-13.7,73-5s59.9,17.8,59.9,17.8c-12.6-43.5-89-43.7-127.6-41.2
		s-28.3,17.2-28.3,17.2S490,174.3,507.2,178.5z"/>
	<path id="XMLID_4826_" class="st3" d="M507.2,178.5c0,0-66.6-18.5,25.5-22.6c92.1-4.1,107.3,35.4,107.3,35.4
		S554.9,154.5,507.2,178.5z"/>
	<g>
		<path id="XMLID_4825_" class="st3" d="M554.5,263.9c0,0-15.8-19.7-15.3-30.6"/>
		<g id="XMLID_4822_">
			<path id="XMLID_4824_" class="st3" d="M526.9,266c0.7,5.2,2.3,8.8,5.7,9.5c1.9,0.4,3.4,0.3,4.7-0.1c1.1-0.3,2-0.7,2.6-1"/>
			<path id="XMLID_4823_" class="st3" d="M544,203.5c0,0-12.1,32.2-15.4,55"/>
		</g>
		<g id="XMLID_4816_">
			<path id="XMLID_4821_" class="st3" d="M521.3,268.7c0,0-11.6,13.6,7.1,17.4"/>
			<path id="XMLID_4820_" class="st3" d="M553.4,268.7c0,0,12.4,10.3-5,17.4"/>
			<path id="XMLID_4819_" class="st3" d="M544.2,277.2c1.8,0.6,4.4-3.2,6.4,0c2,3.2-0.2,2.2-2.9,2.9
				C545,280.8,542.5,276.7,544.2,277.2z"/>
			<path id="XMLID_4818_" class="st3" d="M526.5,281.8c-3.5-0.2-4.4-3-2.5-4.5c0.7-0.6,2.6,0.4,4.6,1.5
				C530.1,279.8,526.5,281.8,526.5,281.8z"/>
			<path id="XMLID_4817_" class="st3" d="M539.1,261.7c0,0,3.7-0.1,4.6,1.1"/>
		</g>
		<path id="XMLID_4815_" class="st3" d="M514.4,277.1c0,0-10.2,5-13.1,6.2"/>
		<path id="XMLID_4814_" class="st3" d="M560.8,274.3c0,0,11.9,5.7,13,5.6"/>
	</g>
	<path id="XMLID_4813_" class="st3" d="M611.4,223.4c0,0,1.7,3.4-1,5"/>
	<path id="XMLID_4812_" class="st3" d="M602.1,258.7c0,0-0.7,3.2-1.7,4.2"/>
	<path id="XMLID_4811_" class="st3" d="M603.1,197.5c0,0,1.3-5.9,0-5.9"/>
	<path id="XMLID_4810_" class="st3" d="M517.7,177.7c0,0,5.5,0.7,4.9,1.7"/>
	<path id="XMLID_4809_" class="st3" d="M551.5,188.1c0,0,6.4-0.9,6.9-2.1"/>
	<path id="XMLID_4808_" class="st3" d="M520.1,345.8c0,0,4.6,1,5,2"/>
	<path id="XMLID_4807_" class="st3" d="M559.1,347.9c0,0-4.3,2-5.5,4.1"/>
	<path id="XMLID_4806_" class="st3" d="M515.6,244.6"/>
	<path id="XMLID_4805_" class="st3" d="M546.3,248.3"/>
	<line id="XMLID_4804_" class="st7" x1="590.1" y1="282.4" x2="594.6" y2="281.2"/>
	<path id="XMLID_4803_" class="st3" d="M632.4,260.9c0,0,32.5-36.1,30.7-5.9c-1.8,30.2-12.8,62.1-23.2,57
		c-10.4-5.1-9.8-13.9-9.8-13.9"/>
	<path id="XMLID_4802_" class="st3" d="M641.8,263.8c0,0,12.9-16.7,15.1-8.2"/>
	<path id="XMLID_4801_" class="st3" d="M636.4,275.8c0,0,17.1-3,13.8,6.5c-3.3,9.5-9.8,15.4-11.8,4.5"/>
	<g>
		<path id="XMLID_4800_" class="st8" d="M494.7,191.6c0,0,59.8-5.8,38.2,42.5C511.3,282.4,444.4,225.1,494.7,191.6z"/>
		<path id="XMLID_4799_" class="st4" d="M489.1,224.8c0,0,9-3.6,8,5.7C496,239.7,482.9,232.8,489.1,224.8z"/>
		<path id="XMLID_4798_" class="st8" d="M561.2,198.2c0,0-43.9,38.6,10.8,56.3S609,178.6,561.2,198.2z"/>
		<path id="XMLID_4797_" class="st4" d="M591.7,230.2c0,0,9-3.6,8,5.7C598.7,245.1,585.6,238.1,591.7,230.2z"/>
		<path id="XMLID_4796_" class="st4" d="M564.9,190.5c0,0-20.2,2.3-5.8,16.5c14.4,14.2,42.2,0.5,40.7-4.6
			C598.2,197.5,595.6,189,564.9,190.5z"/>
		<path id="XMLID_4795_" class="st4" d="M506.1,181.9c0,0-31.1-1.8-16.7,15.5s40-0.4,42-7.8C533.5,182.2,506.1,181.9,506.1,181.9z"
			/>
		<g id="XMLID_4792_">
			<path id="XMLID_4794_" class="st3" d="M597.8,252.9c0.4,0.1,0.7,0.2,1.1,0.4c1.5,0.5,3,0.6,4.6-1.1c3.8-4.1-4.8-5.3-4.8-5.3
				l-9.5-0.7c0,0-20.2-1.4-32.1,1.8c0,0,17.6,9.3,28.3,8.7c1.3-0.1,2.4-0.3,3.5-0.7C589.9,255.5,596,252.4,597.8,252.9z"/>
			<path id="XMLID_4793_" class="st3" d="M501.2,241.2c0,0,11.8-2.2,24.9,1.9c0,0-6.4,14-27.4,7.6c-6.9-2.1-8.3,1.8-12.1-2.3
				c-3.8-4.1,4.8-5.3,4.8-5.3L501.2,241.2z"/>
		</g>
	</g>
	<g id="XMLID_4787_">
		<path id="XMLID_4791_" class="st4" d="M515.2,309.9c0,0-32.1,4.2-14.2,15.8C519,337.3,515.2,309.9,515.2,309.9z"/>
		<path id="XMLID_4790_" class="st4" d="M510.4,300.3c0,0-26.5-1.4-14.3,12.3c12.2,13.7,34.1-0.3,35.8-6.1
			C533.6,300.6,510.4,300.3,510.4,300.3z"/>
		<path id="XMLID_4789_" class="st4" d="M563.5,307.2c0,0-12.9-4.4-10.7,12.1c2.2,16.4,24.6,13.6,25.9,8.8
			C580,323.3,582.2,315.5,563.5,307.2z"/>
		<path id="XMLID_4788_" class="st4" d="M552.4,302.8c0,0-37.6-4.7-0.6,13.4C588.8,334.3,595.3,308.5,552.4,302.8z"/>
	</g>
	<g id="XMLID_4783_">
		<path id="XMLID_4786_" class="st3" d="M518.8,325.6c0,0,19.7,19.4,30.6,0"/>
		<path id="XMLID_4785_" class="st3" d="M523.3,322.5c0,0,5.5-5.8,9.5,0"/>
		<path id="XMLID_4784_" class="st3" d="M542.2,322.5c0,0-5.5-5.8-9.5,0"/>
	</g>
</g>
</svg>
