<?xml version="1.0" encoding="utf-8"?>
<!-- Generator: Adobe Illustrator 22.1.0, SVG Export Plug-In . SVG Version: 6.00 Build 0)  -->
<svg version="1.1" id="Layer_1" xmlns="http://www.w3.org/2000/svg" xmlns:xlink="http://www.w3.org/1999/xlink" x="0px" y="0px"
	 viewBox="0 0 121.6 60.5" style="enable-background:new 0 0 121.6 60.5;" xml:space="preserve">
<style type="text/css">
	.st0{opacity:0.1;fill:#5D5C4C;stroke:#5D5C4C;stroke-linecap:round;stroke-miterlimit:10;enable-background:new    ;}
	.st1{fill:#FFD767;stroke:#584C4F;stroke-width:2;stroke-miterlimit:10;}
	.st2{fill:#FFFAF2;stroke:#584C4F;stroke-width:2;stroke-miterlimit:10;}
</style>
<g id="Layer_5">
</g>
<g id="Layer_3">
</g>
<path id="XMLID_2388_" class="st0" d="M108.8,21.1c-1.9-0.1-72.8,0.2-79,1.4c-0.8,0.2-3,1.4-4.2,2.8c-1.7,2-3.9,5-4.5,8.3
	C21,34,20.9,47.3,21,47.7c-0.3,4.1,2.2,8.4,11.2,11.3c6.6,2.1,79.1,0.1,80.8,0c4.9-0.3,7.4-3.7,7.9-8c0.3-2.8,0.2-12.9,0.1-15.5
	C120.4,28.9,116,21.6,108.8,21.1z"/>
<path class="st1" d="M110.8,25.5c-0.3-4.6-2.6-9.7-6.4-12.4c-1.3-0.9-6.9-7.4-9.1-9.3c-1.8-1.6-4-2.6-6.5-2.8
	C86.9,0.9,16,1.2,9.8,2.4C9,2.6,6.8,3.8,5.6,5.2c-1.7,2-3.9,5-4.5,8.3C1,13.9,0.9,27.2,1,27.6c-0.1,2,0.4,3.9,1.9,5.8
	s8.9,8.9,10.6,10.7s4.5,3.4,8.7,4.8c6.6,2.1,79.1,0.1,80.8,0c4.9-0.3,7.4-3.7,7.9-8C111.1,38.2,111,28,110.8,25.5z"/>
<g id="XMLID_2366_">
	<g>
		<path id="XMLID_2369_" class="st2" d="M88.8,1.1C86.9,1,16,1.3,9.8,2.5C9,2.7,6.8,3.9,5.6,5.3c-1.7,2-3.9,5-4.5,8.3
			C1,14,0.9,27.3,1,27.7C0.7,31.8,3.2,36.1,12.2,39c6.6,2.1,79.1,0.1,80.8,0c4.9-0.3,7.4-3.7,7.9-8c0.3-2.8,0.2-12.9,0.1-15.5
			C100.4,8.9,96,1.6,88.8,1.1z"/>
		<path id="XMLID_2368_" class="st2" d="M95,31.2c0,0,1.1,2.2-0.7,3.2"/>
		<path id="XMLID_2367_" class="st2" d="M11.8,5.7c0,0-2.7,1.3-3.6,2.6"/>
	</g>
</g>
<path id="XMLID_2365_" class="st1" d="M104.6,45.1c0,0-3.1-4.4-5.4-5.4"/>
<g id="XMLID_4355_">
	<path id="XMLID_4361_" class="st1" d="M69.3,17.9c0,0-0.6-2.8-3.4-1.8s-1.4,11.8-0.1,12.6C67,29.5,70.7,34.7,69.3,17.9z"/>
	<path id="XMLID_4360_" class="st1" d="M68.6,23.1c0,0,4.9-4.8,3.9,4.2c0,0,1.2,2.8,3.4,1.6c2.3-1.2,2.6-15.5-8.3-11.5"/>
</g>
<g id="XMLID_4_">
	<path id="XMLID_6_" class="st1" d="M65.1,17.5c0,0-7.7-5.3-11,4.1s4.8,10.9,4.6,5.1c-0.2-5.7,1.8-6.2,4-5.3S68.1,21.4,65.1,17.5z"
		/>
	<path id="XMLID_5_" class="st1" d="M58.6,18.1c0,0-0.5-3.5-3.7-1.7c-3.1,1.9,0.2,4.9,0.2,4.9"/>
</g>
<g id="XMLID_7_">
	<g id="XMLID_9_">
		<path id="XMLID_14_" class="st1" d="M49.3,18.2"/>
		<path id="XMLID_11_" class="st1" d="M53.1,17.3c-6.1-4.5-10.8,1.1-10.8,1.1s-3.9,8.9,3.5,11.3C53.3,32.1,59.2,21.8,53.1,17.3z
			 M50.4,21.8c2.1,4.7-7.3,3.4-4.8,0.1C45.6,22,48.3,17.1,50.4,21.8z"/>
		<path id="XMLID_10_" class="st1" d="M50.8,16.8"/>
	</g>
	<path id="XMLID_8_" class="st1" d="M50.5,27.8c0,0,0.5,3.6,3.8,1.7s-0.2-5-0.2-5"/>
</g>
<g id="XMLID_2593_">
	<path id="XMLID_4316_" class="st1" d="M39.4,17.9c0,0-1.3-0.9-1.8-0.2c-0.5,0.7-1.5,1.9-0.4,4.2c1.1,2.3,5.3,0.4,5.7-0.7"/>
	<path id="XMLID_4315_" class="st1" d="M44.1,19.8L44.1,19.8c-0.8-2-2.4-3.6-5-3.9c-5.1-0.5-7.2,2.8-8,4.8c0,0-0.2,0.3-0.3,0.9
		c-0.1,0.4-0.1,0.6-0.1,0.8c-0.1,1.1,0.1,2.7,1.1,4.9c0.8,1.8,3,2.4,4.4,2.6c0.4,0.1,0.8,0.1,1.3,0.1c0,0,0,0,0,0l0,0
		c0.5,0,1-0.1,1.6-0.2c2.2-0.5,3.8-1.9,4.7-3.7c-0.1-2-1.9-2.3-2.9-2.4c-0.6-0.1-1.2,0.3-1.6,0.6c0,0-0.1,0.1-0.1,0.1
		c-1.5,1.1-5.5-1.1-3.4-2.7c0,0,0.7-0.8,1.5-1.1h0c0,0,0.7-0.4,1.2-0.2c0.2,0.1,0.4,0.2,0.5,0.5c0,0,0,0,0,0
		c0.1,0.1,0.1,0.3,0.2,0.4c0.7,1.1,2.2,2.6,3.6,1.6c1.6-1.2,1.4-1.6,1.5-2.1l0,0C44.5,20.6,44.1,19.8,44.1,19.8z"/>
</g>
<path id="XMLID_4446_" class="st1" d="M25.3,27c0,0,0.7,4.3,4.1,2.8s1.7-17.7,0.2-18.9S23.6,1.9,25.3,27z"/>
</svg>
