<?xml version="1.0" encoding="utf-8"?>
<!-- Generator: Adobe Illustrator 23.0.3, SVG Export Plug-In . SVG Version: 6.00 Build 0)  -->
<svg version="1.1" id="Layer_1" xmlns="http://www.w3.org/2000/svg" xmlns:xlink="http://www.w3.org/1999/xlink" x="0px" y="0px"
	 viewBox="0 0 1061.7 381.4" style="enable-background:new 0 0 1061.7 381.4;" xml:space="preserve">
<style type="text/css">
	.st0{fill:#FFFFFF;}
	.st1{fill:#2C2C2C;}
</style>
<g>
	<path class="st0" d="M232.5,74.5c0.2,0.2,0.3,0.4,0.5,0.6c0.9,0.9,2,1.8,3.1,2.4c1.9,1.1,3.5,1.5,5.7,1.9c0.7,0.1,1.5,0.2,2.2,0.2
		c1.8,0,3.6-0.4,5.3-0.9c0.9-0.3,1.7-0.6,2.6-1c1.4-0.1,2.8-0.3,4.2-0.6c4.7-0.8,9.2-2.7,12.9-5.6c1.2-0.9,2.1-2,2.9-3.3
		c0.8-0.9,1.6-1.9,2.1-3c1.1-2.2,1.6-3.5,1.9-5.8c0.9-2.1,1.5-4.4,1.7-6.7c0.2-1.8-0.1-3.7-0.5-5.4c-0.4-1.8-1.2-3.6-2.2-5.2
		c-0.8-1.1-1.5-2.2-2.4-3.2c-0.9-1-2.1-2-3.1-2.8c-2-1.7-4.4-2.8-6.8-4c-2.5-1.2-5.2-2-7.9-2.2c-1-0.1-1.9-0.1-2.9-0.1
		c-2.3-0.4-4.9,0-7.1,0.7c-2.5,0.8-4.6,2-6.4,3.6c-0.4,0.2-0.7,0.4-1.1,0.5c-2.8,1.5-4.7,3.4-6.7,5.8c-0.4,0.5-0.8,1-1.1,1.5
		c-0.2,0.1-0.3,0.1-0.5,0.2c-2.3,1.1-4.2,3.5-5,5.8c-0.9,2.6-0.6,5.5,0.6,7.9c-0.1,0.2-0.1,0.5-0.2,0.7c-0.7,2.7-0.7,5.4-0.1,8
		c0,0,0,0.1,0,0.1c-0.4,3.5,2.2,6.9,5.5,8C230.6,73.5,231.5,74,232.5,74.5z"/>
	<g>
		<path class="st1" d="M231.4,75.6c3.3,3.8,8.4,5.8,13.4,5.5c3.1-0.2,5.8-1.5,8.8-2c3.4-0.7,6.7-1.2,9.9-2.6
			c5.4-2.4,10-6.4,12.3-11.9c2.4-5.6,4.1-12.3,2.4-18.3c-3.4-11.8-16.6-17.9-28-18.1c-6-0.1-11,3-15.8,6.4c-2.1,1.4-3.5,3.4-5.3,5.1
			c-1.8,1.8-4,3-5.4,5.2c-1.5,2.4-2.1,5.3-1.7,8.1c0.2,1.9,0.5,3.2,0.5,5c-0.1,1.7-0.2,3.3-0.1,5c0.6,6.9,3.3,9.2,9.2,12.6
			c1.7,1,3.2-1.6,1.5-2.6c-3.4-2-6.3-3.2-7.3-7.3c-0.7-3-0.2-5.8-0.1-8.8c0.1-2.4-1.1-4.7-0.6-7.2c0.6-3.9,2.7-4.5,5.3-6.8
			c2.5-2.3,3.8-4.8,6.8-6.7c2.5-1.6,4.9-3.5,7.8-4.4c6.4-2.1,13.8-0.2,19.6,2.9c6,3.2,11.2,8.9,11.4,16.1c0.2,6.2-2.8,14.1-7.1,18.5
			c-4.8,4.9-11.1,5.2-17.3,6.8c-6.6,1.7-12.9,3.2-18.1-2.8C232.3,72,230.2,74.2,231.4,75.6z"/>
	</g>
</g>
<g>
	<path class="st0" d="M263.6,177.9c1.7-0.8,3.3-1.9,4.7-3.1c1.4-1.3,2.7-2.8,3.7-4.4c1-1.5,1.9-3.2,2.6-4.8c0.8-1.8,1.5-3.7,2-5.6
		c-0.2-1.7-0.4-3.4-0.6-5.2c-0.2-1.8-0.4-3.7-0.6-5.5c0-5.1-0.3-10.2-0.9-15.2c0-0.5,0.1-1,0.1-1.5c0.4-5.5,1.2-11.1,1-16.6
		c-0.1-2.7-0.5-5.4-1.3-8c-0.9-2.6-2.2-4.9-4.1-6.9c-0.9-1-2-1.8-3.2-2.5c-1.3-0.8-2.7-1.5-4.2-2c-2.7-1.1-5.7-1.6-8.6-1.8
		c-0.2,0-0.4,0-0.7,0c-0.9,0-1.7,0.1-2.5,0.2c0,0,0,0,0,0c-0.7-0.2-1.4-0.3-2.2-0.3c0,0-0.1,0-0.1,0c-0.7,0-1.4,0.1-2,0.2
		c-0.4,0.1-0.9,0.2-1.3,0.3c-0.5,0.1-0.9,0.3-1.4,0.5c-0.9,0.4-1.8,0.7-2.6,1.2c-1,0.5-2,1.2-2.9,1.9c-1.3,1-2.6,2-3.8,3.3
		c-1.1,1.1-2,2.3-2.9,3.5c-0.9,1.2-1.5,2.5-2.1,3.9c-0.4,1-0.6,1.9-0.8,2.9c-0.3,1.5-0.4,3-0.5,4.6c-0.2,2.7-0.2,5.5-0.1,8.2
		c0.2,2.3,0.5,4.6,0.8,6.9c-0.3,3.3-0.6,6.6-0.7,9.9c-0.1,1.4-0.1,2.8-0.2,4.1c0,0.2,0.1,0.5,0.1,0.7c0.1,0.5,0.4,0.9,0.7,1.3
		c0,0.1,0,0.1,0,0.2c-0.5,2.2-0.4,4.4,0,6.6c0.4,2.7,1.4,5.3,2.6,7.7c1.3,2.7,3.1,5.1,5.1,7.4c0.9,1.1,1.9,2.2,3,3.2
		c1.2,1.1,2.5,2.1,3.9,3c2.2,1.5,4.7,2.4,7.3,3c2.1,0.5,4.4,0.6,6.6,0.4c1.1-0.1,2.1-0.3,3.2-0.5
		C261.6,178.8,262.6,178.3,263.6,177.9z"/>
	<g>
		<path class="st1" d="M264.4,179.2c6.7-3.4,10.6-9.8,13-16.7c1.4-4,0-8.2-0.4-12.3c-0.4-5.3-0.9-10.8-1-16.1
			c-0.2-8.9,2.7-17.7-0.3-26.5c-2.4-7-8-11.4-15-13.3c-12.7-3.5-27.2,1.3-32.3,14.4c-3,7.5-1.1,15.7-1,23.5c0.1,7.3-0.7,14.2-0.2,21
			c1.3,17,19.8,33.3,36.8,26.2c1.8-0.7,1-3.6-0.8-2.9c-9.7,4.1-19.1,0.1-25.6-7.5c-3.8-4.4-6.9-9.8-7.4-15.7
			c-0.1-1.7,0.3-3.3,0.3-4.9c-0.1-1.2-0.6-2.2-0.7-3.5c-0.4-4.2,1-8.5,0.9-12.7c-0.1-3.9-1-7.8-0.9-11.8
			c0.2-10.2,4.5-19.4,14.7-23.1c5.9-2.2,15.2-0.8,20.5,2c9.8,5.2,9.7,16.4,8.9,26.1c-0.8,9.2-0.5,18.5,0.5,27.7
			c0.6,5,0.5,8.8-1.8,13.5c-2.2,4.4-5.3,7.9-9.7,10.2C261.2,177.5,262.7,180,264.4,179.2z"/>
	</g>
</g>
<g>
	<path class="st0" d="M145.6,179.6c1.6,0,3.2-0.1,4.8-0.3c0,0,0,0,0,0c0.8-0.1,1.6-0.1,2.4-0.2c0.8-0.1,1.6-0.2,2.4-0.4
		c1.2-0.2,2.3-0.4,3.5-0.7c0.3-0.1,0.6-0.1,0.8-0.2c0.7-0.2,1.2-0.6,1.7-1.1c5.8-1,11.5-2.3,16.9-4.4c3.5-1.4,6.9-3,9.9-5.4
		c2.6-2.1,4.8-4.6,6.5-7.5c0.8-1.4,1.5-3,2-4.6c0.3-0.9,0.5-1.8,0.8-2.7c1-2.1,1.7-4.3,2.3-6.5c0.1-0.5,0.2-1,0.3-1.5
		c0.6-2.9,1-5.9,1.1-8.9c0-0.3,0-0.5,0-0.8c0.3-1,0.5-2.1,0.6-3.1c0.1-0.4,0.1-0.7-0.1-1.1c-0.1-0.2-0.3-0.4-0.6-0.6
		c0-0.3,0-0.6-0.1-0.8c0.2-1.4,0.4-2.9,0.6-4.3c0.4-1.1,0.7-2.3,0.9-3.5c0.2-0.8,0.3-1.7,0.4-2.6c-0.3-2.1-0.6-4.3-0.9-6.4
		c-0.1-0.5-0.4-0.9-0.7-1.3c0-0.1,0-0.1,0-0.2c0.5-2.2,0.4-4.4,0-6.6c-0.4-2.7-1.4-5.3-2.6-7.7c-1.3-2.7-3.1-5.1-5.1-7.4
		c-0.9-1.1-1.9-2.2-3-3.2c-1.2-1.1-2.5-2.1-3.9-3c-2.2-1.5-4.7-2.4-7.3-2.9c-2.1-0.5-4.4-0.6-6.6-0.4c-1.1,0.1-2.1,0.3-3.2,0.5
		c-1.1,0.3-2.1,0.7-3.1,1.2c-1.7,0.8-3.3,1.9-4.7,3.1c-1.4,1.3-2.7,2.8-3.7,4.4c-1,1.5-1.9,3.2-2.6,4.8c-0.8,1.9-1.6,3.9-2.1,5.9
		c-0.4,1.6-0.8,3.2-1.1,4.8c-0.5,2.4-0.8,4.9-1,7.4c-0.4,3.7-0.4,7.5-0.2,11.2c0.1,1.2,0.2,2.3,0.4,3.5c-0.1,3.3,0,6.5,0.1,9.8
		c-0.6,0.4-1.2,0.8-1.8,1.1c-1.4,0.8-3,1.3-4.6,1.7c-0.8,0.2-1.6,0.3-2.4,0.4c-0.6,0.2-1.1,0.3-1.7,0.4c-0.6,0.1-1.3,0.2-2,0.2
		c-0.5,0-1,0-1.6,0c-0.8,0-1.6,0-2.4-0.1c-1-0.1-1.9-0.2-2.8-0.4c-1.3-0.3-2.5-0.6-3.7-1.1c-0.7-0.3-1.4-0.6-2.1-1
		c-0.5-0.2-1.1-0.4-1.6-0.7c-1-0.5-2.1-1-3.1-1.7c-0.3-2.6-0.7-5.1-1.1-7.7c-0.1-0.5-0.4-0.9-0.7-1.3c0-0.1,0-0.1,0-0.2
		c0.5-2.2,0.4-4.4,0-6.6c-0.4-2.7-1.4-5.3-2.6-7.7c-0.1-0.2-0.2-0.3-0.3-0.5c-1.3-2.5-3-4.8-4.8-6.9c-0.9-1.1-1.9-2.2-3-3.2
		c-1.2-1.1-2.5-2.1-3.9-3c-2.2-1.5-4.7-2.4-7.3-2.9c-2.1-0.5-4.4-0.6-6.6-0.4c-1.1,0.1-2.1,0.3-3.2,0.5c-1.1,0.3-2.1,0.7-3.1,1.2
		c-1.7,0.8-3.3,1.9-4.7,3.1c-1.4,1.3-2.7,2.8-3.7,4.4c-0.9,1.4-1.7,2.8-2.3,4.3c-0.1,0.2-0.2,0.4-0.3,0.5c-0.5,1.1-0.9,2.3-1.3,3.4
		c0,0,0,0,0,0v0c-0.3,0.8-0.6,1.7-0.8,2.5c-1.1,4-1.7,8.1-2.1,12.2c-0.1,0.7-0.1,1.4-0.2,2.1c-1.2,1-2.3,2.2-3.4,3.4
		c-0.4,0.4-0.7,0.9-1.1,1.4c-0.6,0.4-1.2,0.8-1.9,1.2c-1,0.5-2.1,0.9-3.2,1.3c-0.7,0.1-1.4,0.2-2.1,0.2c-0.6-0.1-1.2-0.2-1.8-0.3
		c-0.6-0.2-1.2-0.5-1.8-0.8c-0.3-0.2-0.6-0.4-0.9-0.7c-0.2-7.4-1-14.8-2.2-22.1c-0.1-0.5-0.4-0.9-0.7-1.3c0-0.1,0-0.1,0-0.2
		c0.5-2.2,0.4-4.4,0-6.6c-0.3-2.2-1.1-4.3-2-6.3c-0.2-0.5-0.4-0.9-0.6-1.4c-1.3-2.7-3.1-5.1-5.1-7.4c-0.9-1.1-1.9-2.2-3-3.2
		c-1.2-1.1-2.5-2.1-3.9-3c-2.2-1.5-4.7-2.4-7.3-2.9c-2.1-0.5-4.4-0.6-6.6-0.4c-1.1,0.1-2.1,0.3-3.2,0.5c-1.1,0.3-2.1,0.7-3.1,1.2
		c-1.7,0.8-3.3,1.9-4.7,3.1c-1.4,1.3-2.7,2.8-3.7,4.4c-1,1.5-1.9,3.2-2.6,4.8c-0.8,1.9-1.6,3.9-2.1,5.9c-1.1,4-1.7,8.1-2.1,12.2
		c0,0.2,0,0.3,0,0.5c0.1,1,0.3,2.1,0.4,3.1c0.3,2.1,0.8,4.1,1.3,6.1c0.3,1.3,0.7,2.5,1,3.8c1.5,4.7,3.7,9.2,6.3,13.4
		c0.3,0.5,0.6,1,0.9,1.4c0.3,0.9,0.7,1.8,1.1,2.7c2.3,5,5.7,9.4,9.5,13.4c1.8,1.8,3.7,3.6,5.7,5.2c2.3,1.8,4.8,3.5,7.3,4.9
		c4.5,2.7,9.4,4.4,14.4,5.9c0.1,0,0.1,0,0.2,0c0.9,0.2,1.8,0.5,2.6,0.7c2.6,0.6,5.2,1,7.8,1.2c2.7,0.2,5.4,0.3,8.1,0.1
		c0.2,0.1,0.4,0.1,0.6,0.1c0.3,0,0.6,0,0.9,0c0,0,0,0,0,0c0,0,0.1,0,0.1,0c1,0,2.1,0,3.1,0c0.8,0,1.7-0.1,2.5-0.1c0.2,0,0.3,0,0.5,0
		c1.6-0.2,3.2-0.4,4.8-0.7c0.1,0,0.3,0,0.4,0c1.1,0,2.1,0.1,3.1,0c0,0,0,0,0.1,0c1.2-0.1,2.3-0.4,3.4-0.7c1.8-0.5,3.5-1.5,5.2-2.4
		c0.7-0.4,1.4-0.9,2.1-1.5c0,0,0,0,0,0c0.7-0.4,1.4-0.8,2.1-1.2c2.7,1.9,5.6,3.4,8.6,4.7c0.4,0.2,0.9,0.4,1.4,0.6c0,0,0,0,0,0
		c0.8,0.9,1.7,1.7,2.7,2.3c1.1,0.7,2.2,1.2,3.4,1.7c2.6,1,5.3,1.3,8,1.5c0.1,0,0.3,0,0.4,0c1.1,0.1,2.2,0.1,3.3,0
		c3.6,0.5,7.2,0.7,10.8,0.7c1.6,0.2,3.3,0.3,4.9,0.4C142.2,179.6,143.9,179.7,145.6,179.6z"/>
	<g>
		<path class="st1" d="M145.6,181.1c9.1-0.2,17.5-2.6,26.3-5c9.4-2.6,19-6.9,24-15.8c2.4-4.2,4-9.5,5.2-14.2
			c1.2-4.8,2.4-10.9,2-15.8c-0.1-1.4-0.5-2.3-0.3-3.9c0.3-2.5,1.5-4.9,1.5-7.5c0.1-3.4-1.5-6.9-1.3-9.9c1.7-18.6-21.3-39.2-39-28.3
			c-8.4,5.2-11.9,15.6-13.4,24.8c-0.9,5.6-1.4,11.4-0.9,17.1c0.2,3.1,0.4,6.2,0.4,9.3c0,0.8,0.3,2.5,0,3.2c-0.7,1.4-4.2,1.9-5.7,2.2
			c-4.6,1.1-9.4,1.2-13.9-0.3c-2.2-0.7-6.2-2.1-7.1-4.3c-0.2-0.4-0.5-3.8-0.6-4.3c-0.1-0.7-0.9-2.2-1-2.6c-0.2-2.3,0.5-4.6,0.1-7
			c-0.3-2.3-1-4.5-1.9-6.6c-1.8-4.2-4.5-7.9-7.6-11.2c-6.4-6.9-16.3-10.6-25.5-7.3c-7.9,2.8-12.4,10.1-14.9,17.7
			c-1.4,4.3-2.3,8.7-2.8,13.1c-0.3,3-1.2,4-3.3,6.2c-1.7,1.9-7.6,6.1-10,2.7c-1-1.4-0.6-6.9-0.7-8.6c-0.2-2.6-0.5-5.2-0.9-7.8
			c-0.2-1.2-0.3-2.5-0.5-3.7c0.2,1.1-1-2.9-1-2.5c-0.2-2.3,0.5-4.7,0.1-7.2c-2.8-17.7-25.1-35-41.3-21.2
			c-7.8,6.6-12.1,20.1-11.5,30.1c0.7,11.7,6.8,22.7,12.2,32.7c5.6,10.3,15.2,18.9,25.7,23.9c10.2,4.8,20.4,6,31.5,6.3
			c-0.5-0.5-1-1-1.5-1.5c0,0,0,0,0,0c0,0.8,0.7,1.5,1.5,1.5c2.8,0,5.5-0.1,8.2-0.4c3.4-0.4,6.8-0.2,10.2-1.2c2.8-0.9,5-3,7.6-4
			c2.5-0.9,6.9,2.2,9.3,3.6c5,2.9,8.4,5.5,14.6,6.2C128,180.5,136.9,181.2,145.6,181.1c1.9,0,1.9-3,0-3c-8.6,0.1-17.6-0.6-26.2-1.5
			c-5-0.5-7.5-2.3-11.4-4.9c-3.2-2.1-7-3.4-10.3-5.5c-0.4-0.3-1.1-0.3-1.5,0c-4.5,2.5-8.3,5.5-13.7,5.6c-4.3,0.1-8.6,0.9-13,0.8
			c0.5,0.5,1,1,1.5,1.5c0,0,0,0,0,0c0-0.8-0.7-1.5-1.5-1.5c-8.9-0.3-17.1-0.9-25.6-4c-10.3-3.8-19.6-10.8-26-19.8
			c-2.6-3.5-4-7.5-6.2-11.2c-2.8-4.8-5.2-9.6-6.7-15c-1.2-4.1-2.4-8.7-1.9-13c0.7-5.9,1.9-11.9,4.6-17.2
			c5.7-11.4,18.9-15.4,29.5-7.7c4.3,3.1,7.9,7.6,10.2,12.3c1.3,2.7,2.3,5.6,2.6,8.6c0.2,1.8-0.5,3.7-0.2,5.5
			c0.4,2.7,1.4,5.4,1.7,8.2c0.3,2.5,0.5,4.9,0.7,7.4c0.2,3.1-0.8,7.4,2,9.4c6,4.1,12-1.3,15.8-5.5c2.5-2.8,1.9-6.1,2.5-10
			c0.7-4.3,1.8-8.1,3.1-11.2c4.8-11.2,16.3-17.6,27.9-11.4c4.4,2.4,8,6.4,10.8,10.6c3.6,5.4,4.2,10.3,4.4,16.6c0,0.5,0,0.8,0.1,1.3
			c0.3,2,0.7,6.8,1.6,8.6c1,2.1,5.7,3.6,7.8,4.4c6.4,2.4,14.3,2.2,20.6-0.5c3.1-1.3,4.2-1.9,4.1-5.2c-0.1-5.6-0.7-11.3-0.6-16.9
			c0.2-10.3,2-23,9.4-30.8c8.6-9.1,22.1-5.8,29.7,2.7c4.5,5,8.5,11.5,8.5,18.5c0,1.5-0.4,2.8-0.2,4.2c0.6,3.5,1.7,6.4,0.8,10
			c-2,8.5-0.6,16.8-3.1,25.4c-1.7,5.7-3.6,11.8-7.7,16.2c-4.2,4.5-9.9,7.1-15.6,9c-4.6,1.5-9.9,1.8-14.3,3.6
			c-4.6,1.9-9.6,2.2-14.5,2.3C143.6,178.2,143.6,181.2,145.6,181.1z"/>
	</g>
</g>
<g>
	<path class="st0" d="M437.7,177c1.9,0.8,3.9,1.3,5.9,1.8c9.6,2,19.5,0.6,28.4-3.2c2,1.3,4.2,2.1,6.8,2.3c0,0,0,0,0.1,0
		c0.2,0.1,0.4,0.2,0.6,0.3c1.3,0.6,2.6,0.9,4,1.2c1.4,0.3,2.9,0.3,4.5,0.1c1.4-0.2,3-0.7,4.5-1.4c0.9-0.5,1.8-1,2.7-1.6
		c0.3-0.2,0.7-0.4,0.9-0.7c0,0,0.1-0.1,0.1-0.1c0.5-0.4,1-0.8,1.5-1.3c0.4-0.4,0.8-1,1-1.6c0.7-1,1.4-2,2-3c1.3-2.4,2.2-4.9,2.8-7.4
		c0.5-2.3,0.6-4.7,0.3-6.8c0-0.3-0.1-0.6-0.2-0.9c-0.3-3.2-1.4-6-3.4-8c0,0-0.1-0.1-0.1-0.1c-0.4-0.9-0.9-1.7-1.3-2.6
		c0.8-4.1,0.9-8.4,0.5-12.5c-0.1-1.3-0.3-2.5-0.5-3.7c0-1.1,0-2.2-0.2-3.4c-0.4-3.5-1.1-6.9-2.4-10.2c-0.7-1.8-1.5-3.5-2.5-5.2
		c-1.1-1.8-2.4-3.5-3.7-5.1c-2.5-3-5.6-5.6-8.8-7.8c-3.2-2.2-6.7-4-10.4-5.1c-1.6-0.5-3.3-0.8-5-1c-2.3-0.3-4.5-0.5-6.8-0.5
		c-0.1,0-0.2,0-0.3,0c-3.9,0-7.9,0.5-11.7,1.3c-6.7,0.9-13.2,3.4-18.8,7.4c-1,0.7-1.9,1.5-2.9,2.3c-0.4,0.3-0.7,0.6-1.1,0.9
		c-1.3,1.1-2.5,2.3-3.6,3.6c-1.3,1.6-2.5,3.2-3.5,5c-1.9,2.9-3.3,6.1-4.6,9.3c-1.6,4.2-2.5,8.7-2.9,13.2c-0.4,4.3,0,8.6,0.8,12.7
		c0.8,4,2.4,8,4.3,11.6c0.8,1.6,1.8,3.1,2.9,4.6c1.3,1.8,2.8,3.6,4.4,5.3c1.5,1.6,3.2,2.9,4.9,4.2c1.6,1.2,3.2,2.3,5,3.3
		C433.6,175.3,435.7,176.2,437.7,177z"/>
	<g>
		<path class="st1" d="M437.3,178.4c5.2,1.9,10.7,2.8,16.2,2.7c2.6-0.1,5.1-0.3,7.6-0.8c3.3-0.6,7.2-2.8,10.5-2.7
			c3.3,0.1,7,2.1,10,2.9c4.2,1.1,8.4,0.6,12.2-1.4c7.4-4,11.8-13.6,11.5-21.8c-0.2-3.8-1.1-7.4-3.2-10.6c-1.5-2.2-1.7-3.5-1.4-6.2
			c0.4-3.7,0.1-7.2-0.3-10.8c-1.1-10.7-3.2-19.9-10.7-28.1c-7.2-7.9-16.9-12.6-27.5-13.5c-21.8-1.7-42.2,8.6-50.7,29.1
			C401.6,141.7,413.1,168.6,437.3,178.4c1.8,0.7,2.6-2.2,0.8-2.9c-20.3-8.2-31.2-29.6-25.8-51c5.4-21.3,23.2-32.8,44.5-33.5
			c20.5-0.7,38.8,14.3,40.3,35.2c0.3,4.5,1.1,8.9,0.7,13.5c-0.3,4.3-1,4.7,1.3,8.2c5.3,8.2,3.5,20.4-4,26.9
			c-4.8,4.2-9.9,3.6-15.5,1.9c-1.1-0.3-2.3-0.4-3.3-0.7c-1.3-0.4-3-1.9-4.4-1.8c-2.1,0-5,1.8-7.1,2.4c-3.1,0.8-6.2,1.4-9.4,1.6
			c-5.9,0.4-11.7-0.5-17.2-2.5C436.3,174.9,435.5,177.8,437.3,178.4z"/>
	</g>
</g>
<g>
	<path class="st0" d="M556.8,182.4c0.4-0.1,0.9-0.2,1.3-0.3c0.5-0.1,0.9-0.3,1.4-0.5c0.9-0.4,1.8-0.7,2.6-1.2c1-0.5,2-1.2,2.9-1.9
		c1.3-1,2.6-2,3.8-3.3c1.1-1.1,2-2.3,2.9-3.5c0.9-1.2,1.5-2.5,2.1-3.9c0.4-1,0.6-1.9,0.8-2.9c0.3-1.5,0.4-3,0.5-4.6
		c0.2-2.7,0.2-5.5,0.1-8.2c-0.2-2.3-0.5-4.6-0.8-6.9c0.3-3.3,0.6-6.6,0.7-9.9c0.1-1.9,0.2-3.8,0.2-5.6c0.2-2.7,0.3-5.5,0.3-8.2
		c0.1-0.4,0.1-0.9,0.2-1.3c0.9-5.6,1.3-11.3,1.5-16.9c0.4-10.9-0.4-21.9-2.2-32.7c-0.1-0.5-0.4-0.9-0.7-1.3c0-0.1,0-0.1,0-0.2
		c0.5-2.2,0.4-4.4,0-6.6c-0.4-2.7-1.4-5.3-2.6-7.7c-1.3-2.7-3.1-5.1-5.1-7.4c-0.9-1.1-1.9-2.2-3-3.2c-1.2-1.1-2.5-2.1-3.9-3
		c-2.2-1.5-4.7-2.4-7.3-2.9c-2.1-0.5-4.4-0.6-6.6-0.4c-1.1,0.1-2.1,0.3-3.2,0.5c-1.1,0.3-2.1,0.7-3.1,1.2c-1.7,0.8-3.3,1.9-4.7,3.1
		c-1.4,1.3-2.7,2.8-3.7,4.4c-1,1.5-1.9,3.2-2.6,4.8c-0.8,1.9-1.6,3.9-2.1,5.9c-1.1,4-1.7,8.1-2.1,12.2c-0.4,3.7-0.4,7.5-0.2,11.2
		c0.1,1.2,0.2,2.3,0.4,3.5c-0.1,3.6,0,7.2,0.2,10.9c0.4,9.1,1.4,18.1,2.4,27.1c0.2,1.8,0.4,3.7,0.6,5.5c0,5.1,0.3,10.2,0.9,15.2
		c0,0.5-0.1,1-0.1,1.5c-0.4,5.5-1.2,11.1-1,16.6c0.1,2.7,0.5,5.4,1.3,8c0.9,2.6,2.2,4.9,4.1,6.9c0.9,1,2,1.8,3.2,2.5
		c1.3,0.8,2.7,1.5,4.2,2c2.7,1.1,5.7,1.6,8.6,1.7c0.2,0,0.4,0,0.7,0c0.9,0,1.7-0.1,2.5-0.2c0,0,0,0,0,0c0.7,0.2,1.4,0.3,2.2,0.3
		c0,0,0.1,0,0.1,0C555.5,182.6,556.2,182.5,556.8,182.4z"/>
	<g>
		<path class="st1" d="M557.2,183.9c9.6-2,17.8-10.8,19.1-20.4c0.8-5.7,0.2-11.1-0.3-16.8c-0.5-6.8,0.7-14.2,1-21
			c0.2-6.2,1.3-12.4,1.7-18.6c0.4-7.7,0.3-15.4-0.4-23c-0.4-5.2-2-11.3-2.1-16.1c-0.1-5.6-0.9-10.4-3.8-15.4
			c-5.1-8.9-13.8-16.5-24.6-16.3c-11.1,0.2-18.1,8.4-21.6,18.2c-4.4,12.1-3.2,24.8-2.9,37.4c0.4,14.7,2.6,29.2,3.4,43.9
			c0.2,3.7,0.7,7.2,0.4,10.9c-0.4,4.3-0.9,8.6-0.9,12.9c0,5.7,1,11.6,4.6,16.2C536.8,183.3,548.3,185.2,557.2,183.9
			c1.9-0.3,1.1-3.2-0.8-2.9c-8.8,1.3-20.1-1.1-24.6-9.4c-5.4-9.7-0.9-22.5-1.8-33c-0.9-11.1-1.9-22.2-2.8-33.4
			c-0.5-5.6-0.8-11.3-0.8-16.9c0-5.5-0.7-10.9-0.3-16.4c0.8-10.6,3.3-24.6,13.4-30.4c11.7-6.6,23.9,1.9,30,11.8
			c1.5,2.5,2.8,5.2,3.5,8.1c0.6,2.6,0,5,0.2,7.6c0.1,1.4,0.7,2.6,1,4c0.8,3.6,1,7.4,1.3,11.1c1,12.1,0.4,23.8-0.9,35.8
			c-0.6,5.2-0.5,10.4-0.8,15.6c-0.1,2.8-0.4,5.5-0.6,8.3c-0.2,2.9,0.5,5.7,0.7,8.5c0.4,5.5,0.5,12-2.1,16.9
			c-3,5.7-8.9,10.5-15.1,11.8C554.5,181.4,555.3,184.2,557.2,183.9z"/>
	</g>
</g>
<g>
	<path class="st0" d="M665.3,132.8c0.1-3.6,0-7.2-0.2-10.9c-0.4-9.1-1.4-18.1-2.4-27.1c-0.2-1.8-0.4-3.7-0.6-5.5
		c0-5.1-0.3-10.2-0.9-15.2c0-0.5,0.1-1,0.1-1.5c0.4-5.5,1.2-11.1,1-16.6c-0.1-2.7-0.5-5.4-1.3-8c-0.9-2.6-2.2-4.9-4.1-6.9
		c-0.9-1-2-1.8-3.2-2.5c-1.3-0.8-2.7-1.5-4.2-2c-2.7-1.1-5.7-1.6-8.6-1.7c-0.2,0-0.4,0-0.7,0c-0.9,0-1.7,0.1-2.5,0.2c0,0,0,0,0,0
		c-0.7-0.2-1.4-0.3-2.2-0.3c0,0-0.1,0-0.1,0c-0.7,0-1.4,0.1-2,0.2c-0.4,0.1-0.9,0.2-1.3,0.3c-0.5,0.1-0.9,0.3-1.4,0.5
		c-0.9,0.4-1.8,0.7-2.6,1.2c-1,0.5-2,1.2-2.9,1.9c-1.3,1-2.6,2-3.8,3.3c-1.1,1.1-2,2.3-2.9,3.5c-0.9,1.2-1.5,2.5-2.1,3.9
		c-0.4,1-0.6,1.9-0.8,2.9c-0.3,1.5-0.4,3-0.5,4.6c-0.2,2.7-0.2,5.5-0.1,8.2c0.2,2.3,0.5,4.6,0.8,6.9c-0.3,3.3-0.6,6.6-0.7,9.9
		c-0.1,1.9-0.2,3.8-0.2,5.6c-0.2,2.7-0.3,5.5-0.3,8.2c-0.1,0.4-0.1,0.9-0.2,1.3c-0.9,5.6-1.3,11.3-1.5,16.9
		c-0.4,10.9,0.4,21.9,2.2,32.7c0.1,0.5,0.4,0.9,0.7,1.3c0,0.1,0,0.1,0,0.2c-0.5,2.2-0.4,4.4,0,6.6c0.4,2.7,1.4,5.3,2.6,7.7
		c1.3,2.7,3.1,5.1,5.1,7.4c0.9,1.1,1.9,2.2,3,3.2c1.2,1.1,2.5,2.1,3.9,3c2.2,1.5,4.7,2.4,7.3,2.9c2.1,0.5,4.4,0.6,6.6,0.4
		c1.1-0.1,2.1-0.3,3.2-0.5c1.1-0.3,2.1-0.7,3.1-1.2c1.7-0.8,3.3-1.9,4.7-3.1c1.4-1.3,2.7-2.8,3.7-4.4c1-1.5,1.9-3.2,2.6-4.8
		c0.8-1.9,1.6-3.9,2.1-5.9c1.1-4,1.7-8.1,2.1-12.2c0.4-3.7,0.4-7.5,0.2-11.2C665.6,135.1,665.5,133.9,665.3,132.8z"/>
	<g>
		<path class="st1" d="M666.8,132.8c0.2-14.6-2.3-28.9-3.2-43.5c-0.4-6.7-1.1-13.7-0.5-20.4c0.6-6.3,1.3-12.7-0.1-19
			c-2.3-10.2-11.8-16.6-22.1-16.6c-3,0-6.2-0.4-9.2,0.4c-5.3,1.4-10.1,5.2-13.4,9.5c-7.2,9.2-3.8,19.8-4.2,30.4
			c-0.4,13.5-2.4,26.9-2.8,40.4c-0.2,7.1,0,14.2,0.7,21.2c0.5,4.7,2.3,10.4,1.9,14.6c-1,10.7,6.8,22.1,15.5,27.7
			c9.7,6.2,22.6,4.2,29.5-4.9C667,161.9,668.5,145.6,666.8,132.8c-0.2-1.9-3.2-1.9-3,0c1.4,11,0.4,23.6-4.6,33.6
			c-5.7,11.4-18.9,15.4-29.5,7.7c-4.3-3.1-7.9-7.6-10.2-12.3c-1.5-2.9-2.5-6.2-2.6-9.4c-0.1-1.6,0.5-3.2,0.3-4.7
			c-0.4-3.1-1.5-6.2-1.8-9.5c-0.3-2.9-0.6-5.8-0.8-8.6c-0.4-5.8-0.4-11.5-0.2-17.3c0.2-5.4,1.1-10.7,1.6-16.2
			c0.5-5.2,0.3-10.5,0.7-15.7c0.3-4.7,0.4-8.8,0-13.4c-0.5-5.4-0.7-11.7,1.2-16.8c1.9-5.1,6.3-9.4,11-11.9c3.4-1.8,6.5-1.8,10.2-1.8
			c5.3,0.1,10.5,1,14.9,4.2c5.5,4,7,10.7,7,17.2c0,6.1-1.3,12.1-0.9,18.1c0.4,6.3,0.6,12.6,1.3,18.8c1.4,12.6,2.8,25.3,2.6,38
			C663.8,134.7,666.8,134.7,666.8,132.8z"/>
	</g>
</g>
<g>
	<path class="st0" d="M783.6,177.8c2.7,1.1,5.7,1.6,8.6,1.8c0.2,0,0.4,0,0.7,0c0.9,0,1.7-0.1,2.5-0.2c0,0,0,0,0,0
		c0.7,0.2,1.4,0.3,2.2,0.3c0,0,0.1,0,0.1,0c0.7,0,1.4-0.1,2-0.2c0.4-0.1,0.9-0.2,1.3-0.3c0.5-0.1,0.9-0.3,1.4-0.5
		c0.9-0.4,1.8-0.7,2.6-1.2c1-0.5,2-1.2,2.9-1.9c1.3-1,2.6-2,3.8-3.3c1.1-1.1,2-2.3,2.9-3.5c0.9-1.2,1.5-2.5,2.1-3.9
		c0.4-1,0.6-1.9,0.8-2.9c0.3-1.5,0.4-3,0.5-4.6c0.2-2.7,0.2-5.5,0.1-8.2c-0.2-2.3-0.5-4.6-0.8-6.9c0.3-3.3,0.6-6.6,0.7-9.9
		c0.1-1.9,0.2-3.8,0.2-5.6c0.2-2.7,0.3-5.5,0.3-8.2c0.1-0.4,0.1-0.9,0.2-1.3c0.9-5.6,1.3-11.3,1.5-16.9c0.4-10.9-0.4-21.9-2.2-32.7
		c-0.1-0.5-0.4-0.9-0.7-1.3c0-0.1,0-0.1,0-0.2c0.5-2.2,0.4-4.4,0-6.6c-0.4-2.7-1.4-5.3-2.6-7.7c-1.3-2.7-3.1-5.1-5.1-7.4
		c-0.9-1.1-1.9-2.2-3-3.2c-1.2-1.1-2.5-2.1-3.9-3c-2.2-1.5-4.7-2.4-7.3-3c-2.1-0.5-4.4-0.6-6.6-0.4c-1.1,0.1-2.1,0.3-3.2,0.5
		c-1.1,0.3-2.1,0.7-3.1,1.2c-1.7,0.8-3.3,1.9-4.7,3.1c-1.4,1.3-2.7,2.8-3.7,4.4c-1,1.5-1.9,3.2-2.6,4.8c-0.8,1.9-1.6,3.9-2.1,5.9
		c-1.1,4-1.7,8.1-2.1,12.2c-0.4,3.7-0.5,7.5-0.2,11.2c0.1,1.2,0.2,2.3,0.4,3.5c-0.1,3.6,0,7.2,0.2,10.9c0.1,3,0.4,6,0.6,9
		c-1.4,0-2.9,0.2-4.3,0.5c-3.5,0.6-6.8,2-10,3.6c-0.9,0.4-1.7,0.9-2.6,1.4c-1.4,0.6-2.7,1.2-4,2c-2,1.2-3.9,2.6-5.8,4.1
		c-3.3,2.6-6,5.7-8.5,9c-1.4,1.8-2.5,3.7-3.4,5.8c-0.8,1.2-1.5,2.5-2.2,3.8c-1.3,2.6-2.4,5.4-3.1,8.3c-0.3,1.5-0.5,3.1-0.6,4.7
		c-0.1,1.5,0.1,3.1,0.4,4.6c0.2,1.5,0.8,2.9,1.4,4.2c0.5,1.1,1,2.1,1.7,3c0.9,1.3,1.9,2.5,3.2,3.5c0.5,0.4,0.9,0.7,1.4,1.1
		c0.1,0.4,0.3,0.7,0.5,1.1c1,2.1,2.3,4,3.7,5.8c1.5,1.9,3.4,3.5,5.4,4.9c1.5,1.2,3.2,2.1,5,2.9c2.2,1,4.5,1.9,6.8,2.5
		c2.3,0.6,4.6,0.9,6.9,1.2c1,0.1,2.1,0.2,3.2,0.2c1.2,0,2.3-0.1,3.5-0.2c2.4-0.2,4.7-0.6,7.1-1.1c2-0.5,4-1.2,5.9-2
		C781.3,176.8,782.4,177.3,783.6,177.8z"/>
	<g>
		<path class="st1" d="M783.2,179.3c4.1,1.4,7.6,1.5,11.8,1.6c2.9,0.1,4.9,0.4,7.8-0.7c6.8-2.5,13.4-8.6,15.6-15.5
			c2.9-8.8,0.2-18.2,0.8-27.2c0.8-10.2,1.5-20.3,2.2-30.5c0.8-11.2,0.4-22.4-1-33.5c-0.3-2.1-0.6-4.2-1-6.3
			c-0.2-0.9-0.4,0.1-0.5-1.3c0-0.8,0.3-2.2,0.3-2.9c0-4.1-1.3-8.1-3.1-11.8c-7-14-25.4-24.9-39.1-12.5c-7.3,6.6-9.8,17.2-10.8,26.6
			c-0.7,5.9-0.2,11.5,0,17.3c0.2,6.3,0.3,12.6,0.8,19c0.5-0.5,1-1,1.5-1.5c-12,0.7-24.8,8-32.8,16.8c-7.7,8.5-15.3,21.6-12.5,33.5
			c1.4,5.9,5.8,9.2,8.9,14.1c3.1,4.9,6.8,8.8,11.9,11.6c5.5,3,11.8,4.6,18,4.9c3,0.1,6.1-0.1,9-0.6c4-0.7,7.8-2.9,11.7-1.3
			c1.8,0.8,3.3-1.8,1.5-2.6c-1.5-0.6-3-1.8-4.6-1.8c-2.1,0-5.5,2-7.7,2.4c-6.3,1.3-12.8,1.1-19-0.6c-5.5-1.6-10.8-4.3-14.7-8.6
			c-2.2-2.4-3-5.2-4.9-7.6c-1.8-2.3-4-3.4-5.5-6c-6.3-11,1.5-25.4,8.8-33.9c7.4-8.8,20.1-16.7,31.8-17.3c0.8,0,1.6-0.7,1.5-1.5
			c-0.7-8.4-0.9-16.8-1.3-25.2c-0.4-8.2,0.6-17.1,3.6-24.8c3.4-8.8,10-15.8,20-15.2c9.5,0.6,17.1,8.3,21.2,16.4
			c2.3,4.5,2.1,8.4,2.4,13.2c0.2,3.4,1.4,6.9,1.8,10.3c1,8.9,1.3,17.9,0.9,26.9c-0.4,7.9-1.6,15.7-1.9,23.6
			c-0.2,3.8-0.3,7.6-0.6,11.5c-0.3,4.3,0.4,8.3,0.5,12.7c0.4,10-2,18.8-10.9,24.5c-6.2,3.9-15.1,3.4-21.8,1
			C782.2,175.7,781.4,178.6,783.2,179.3z"/>
	</g>
</g>
<g>
	<path class="st0" d="M1056.4,158.8c-0.2-1.2-0.6-2.4-1-3.5c0-0.3-0.1-0.6-0.1-1c-0.2-1-0.5-2-0.8-2.9c-0.1-0.3-0.3-0.6-0.4-0.8
		c0-0.3-0.1-0.6-0.1-0.9c-0.3-1.5-0.9-2.8-1.7-4c-0.3-0.5-0.7-1-1.1-1.4c-0.9-1.8-2.5-3.2-4.4-3.7c-0.6-0.2-1.1-0.3-1.7-0.4
		c-0.7-0.1-1.4,0-2,0c-0.3,0-0.6,0-0.9,0.1c-0.6-0.1-1.2-0.1-1.8-0.1c-1.3,0-2.6,0.1-3.9,0.3c-1.4,0.2-2.7,0.6-4,1
		c-1.6,0.5-3.2,1.3-4.6,2.2c-0.6,0.4-1.2,0.8-1.8,1.2c-0.4,0.3-0.7,0.6-1,0.9c-0.5,0.2-1.1,0.4-1.6,0.6c-0.9,0.2-1.8,0.4-2.7,0.5
		c-0.6,0-1.1-0.1-1.7-0.2c-0.5-0.1-0.9-0.3-1.3-0.5c-0.4-0.3-0.9-0.6-1.3-1c-0.5-0.6-1-1.2-1.5-1.9c-0.7-1.3-1.2-2.6-1.7-4
		c-0.3-1-0.5-2.1-0.6-3.1c0-0.1,0-0.2,0-0.3c0.4,0.1,0.9,0.1,1.4,0.2c1,0.3,2,0.6,3,0.8c1.7,0.3,3.5,0.4,5.3,0.3c0.1,0,0.1,0,0.2,0
		c0.2,0.1,0.4,0.2,0.7,0.3c2.6,1,6.2,1.1,8.7,0c0.6-0.2,1-0.4,1.5-0.7c0.6-0.3,1-0.7,1.5-1.2c0,0,0,0,0,0c0.5-0.1,1-0.2,1.5-0.3
		c0.3,0,0.6,0,0.9,0c0.7,0,1.3,0,2-0.1c0.6-0.1,1.3-0.3,1.8-0.4c0.9-0.2,1.7-0.6,2.5-1c0,0,0.1,0,0.1-0.1c0,0,0.1,0,0.1,0
		c1-0.2,1.9-0.4,2.7-0.8c0.6-0.3,1.3-0.5,1.8-0.9c0.6-0.3,1.1-0.8,1.6-1.2c0.7-0.6,1.2-1.3,1.6-2c0.2-0.3,0.3-0.5,0.4-0.8
		c0,0,0,0,0,0c0-0.1,0.1-0.2,0.1-0.2c0,0,0,0,0-0.1c0.3-0.4,0.5-0.8,0.6-1.2c0.2-0.7,0.4-1.4,0.4-2.1c0,0,0,0,0-0.1c0,0,0,0,0,0
		c0.1-1.1,0-2.2-0.3-3.3c-0.2-1.1-0.8-2.1-1.5-3.1c-0.5-0.6-1.1-1.2-1.8-1.8c-0.4-0.4-0.9-0.7-1.4-1.1c-0.7-0.5-1.6-0.9-2.4-1.3
		c-0.9-0.4-2-0.8-3-1.1c-1.6-0.5-3.3-0.7-5-0.9c-0.7-0.1-1.4-0.1-2.1-0.1c-1.2,0-2.3,0.1-3.5,0.2c-1.1,0.1-2.2,0.3-3.3,0.6
		c-1.3,0-2.7,0.1-3.9,0.4c-0.2,0-0.4,0-0.6,0c-0.5,0-1.1,0-1.6,0c-1.3,0-2.7,0-4,0.1c-0.2,0-0.4,0-0.6,0.1c1.4-1.1,2.9-2.2,4.4-3.2
		c1.9-1.1,4-2,6.1-2.7c0.7-0.2,1.3-0.3,2-0.4c1.5-0.2,3.1-0.2,4.6-0.2c1.7,0,3.3,0,5-0.2c2.1-0.1,4-0.5,6-1.1
		c1.8-0.5,3.4-1.4,4.9-2.5c0.8-0.6,1.6-1.5,2.3-2.2c0.8-0.9,1.4-2.1,1.9-3.2c0.5-1,0.7-2.1,1-3.2c0.1-0.6,0.2-1.2,0.2-1.8
		c0-0.9,0-1.8-0.2-2.7c-0.2-1-0.5-2.1-0.8-3.1c-0.4-1.4-1.1-2.7-1.8-4c-0.9-1.6-1.9-3.2-3.1-4.7c0,0,0,0,0,0c0,0,0,0,0-0.1
		c-0.2-0.5-0.6-1-0.9-1.5c-0.4-0.5-0.9-1-1.4-1.4c-0.3-0.3-0.6-0.5-0.9-0.7c-0.2-0.1-0.4-0.2-0.6-0.4c-0.8-0.7-1.7-1.4-2.6-1.9
		c-1.2-0.7-2.4-1.3-3.7-1.7c-1.4-0.5-2.8-0.8-4.2-0.9c-2.7-0.3-5.5-0.1-8.1,0.3c-2.9,0.5-5.8,1.4-8.5,2.5c-2.7,1.1-5.3,2.3-7.9,3.7
		c-0.9,0.5-1.8,1.1-2.7,1.6c-0.2,0-0.3-0.1-0.5-0.1c-0.6-0.1-1.3,0-2,0c-0.4,0-0.7,0.1-1.1,0.2c-0.2,0.1-0.5,0.1-0.7,0.2
		c-1.1,0.1-2.1,0.2-3.2,0.5c-1.3,0.3-2.6,0.8-3.8,1.4c-1.3,0.6-2.5,1.5-3.7,2.3c-2.1,1.7-3.9,3.8-5.5,6c-1.7,2.4-3.1,5.1-4.2,7.8
		c-1.1,2.7-2.1,5.4-2.9,8.2c-1.2,4.2-2.1,8.5-2.5,12.8c-0.5,1.9-0.8,3.9-1,5.9c-0.3,2.3-0.3,4.6-0.2,7c0.2,4.2,1.1,8.2,2.3,12.2
		c0.8,2.7,1.9,5.3,3.2,7.8c1,1.9,2.1,3.7,3.4,5.4c0,0.2,0.1,0.3,0.2,0.5c0.1,0.2,0.2,0.4,0.4,0.6c0,0,0,0,0,0c0,0,0,0,0,0.1
		c0.8,1.3,1.6,2.5,2.5,3.7c0.1,0.1,0.2,0.2,0.2,0.3c0.8,1,1.6,2,2.5,2.9c0.1,0.1,0.1,0.2,0.2,0.3c0.4,0.7,0.8,1.4,1.3,2.1
		c0,0,0,0,0,0c0.6,0.7,1.3,1.3,1.9,2c1.1,1,2.5,1.7,3.8,2.4c0.6,0.3,1.2,0.5,1.9,0.8c0,0,0,0,0,0c1,0.6,2,1.1,3.1,1.6
		c0.5,0.3,0.9,0.5,1.3,0.8c2.5,1.3,5.1,2.4,7.8,3.2c2,0.6,4.1,1.1,6.2,1.4c0.1,0.1,0.3,0.2,0.4,0.2c0.2,0.1,0.4,0.1,0.7,0.2v0
		c0,0,0.1,0,0.1,0c1.4,0.3,2.9,0.6,4.4,0.8c0.1,0,0.3,0,0.4,0c1.3,0.1,2.5,0.2,3.8,0.2c0.1,0,0.2,0.1,0.3,0.1
		c0.8,0.2,1.6,0.4,2.4,0.5c0,0,0,0,0.1,0c0.9,0.1,1.9,0,2.8,0c1.5-0.1,3-0.5,4.4-1c0.6-0.2,1.3-0.5,1.9-0.8c0,0,0,0,0,0
		c3.5-0.9,6.8-2.3,9.7-4.6c0.7-0.6,1.3-1.2,1.9-1.9c0.5-0.6,1-1.2,1.4-1.8c0.5-0.8,1-1.7,1.3-2.6c0.4-0.9,0.6-1.9,0.8-2.9
		c0.1-0.8,0.2-1.5,0.2-2.3C1056.6,160.8,1056.6,159.8,1056.4,158.8z"/>
	<g>
		<path class="st1" d="M1057.8,158.4c-1.8-8.2-4-19.4-14.3-19.7c-5.2-0.2-10.3,0.3-15,2.8c-2.2,1.2-5.2,4.3-7.9,3.9
			c-4.6-0.8-6.1-5.9-6.7-9.8c-0.6,0.6-1.2,1.2-1.8,1.8c4.5,0.6,8.9,1.6,13.4,2.2c2,0.3,4.1,0.1,6-0.5c1.6-0.5,2.9-2,4.3-2.5
			c1.8-0.6,4.2,0,6.2-0.7c1.9-0.7,2.7-0.9,4.7-1.7c3-1.1,5.1-3,6.5-5.8c3.2-6.3-0.5-13-6.9-15.9c-4.2-1.9-8.9-2.5-13.5-2.1
			c-4.9,0.4-10,0.6-14.9,1.2c0.4,0.9,0.7,1.7,1.1,2.6c3.8-3,8-5.6,12.9-5.9c3.8-0.3,7.7,0,11.5-0.7c5.7-1,10.8-4.1,13.1-9.6
			c4.6-10.9-4.7-24.3-14.4-28.4c-6.6-2.8-14-1.8-20.6,0.4c-3.4,1.2-6.8,2.7-10,4.4c-1.1,0.6-2.1,1.5-3.2,1.7
			c-1.3,0.3-3.1,0.1-4.4,0.3c-15.1,2.4-21.8,17.5-25,30.9c-2,8.5-3.7,17.7-2.5,26.3c1.2,8.7,4.7,15.9,9.2,23.3
			c0.2-0.7,0.4-1.4,0.5-2.1c0,0,0,0,0,0c-0.7,0.4-0.9,1.4-0.5,2.1c3.2,5.3,7.4,11.5,13.1,14.3c7.3,3.5,13.9,6.3,21.8,8.3
			c-0.4-0.5-0.7-1-1.1-1.4c0,0,0,0,0,0c0,0.6,0.5,1.3,1.1,1.4c3.8,0.9,7.9,1.4,11.8,1.8c4.2,0.4,7.9-1.2,11.7-2.5
			c9.1-3.1,15-10,13.8-19.9c-0.2-1.9-3.2-1.9-3,0c1.2,10.2-5.3,14.7-14,17.7c-6.4,2.2-12.9,1.5-19.5,0c0.4,0.5,0.7,1,1.1,1.4
			c0,0,0,0,0,0c0-0.6-0.5-1.3-1.1-1.4c-7-1.7-13.1-4.1-19.5-7.4c-6-3-10-8-13.5-13.8c-0.2,0.7-0.4,1.4-0.5,2.1c0,0,0,0,0,0
			c0.7-0.4,0.9-1.4,0.5-2.1c-4.5-7.6-8.2-15-9-23.9c-0.7-8.3,1-17.2,3.1-25.2c2.3-8.9,6.3-19.6,14.8-24.6c3.1-1.8,6.8-2.5,10.3-2.7
			c2.9-0.2,4.5-1.5,7.2-2.9c8-4.1,18.8-7.8,27.4-3.3c6.2,3.2,11.4,10.4,12.5,17.2c2,12.3-10.2,14.9-19.5,15.2
			c-7.2,0.2-12.4,2.5-18.1,6.9c-1,0.8-0.2,2.7,1.1,2.6c3.1-0.4,6.2-0.2,9.4-0.5c3.4-0.3,6.7-1,10.2-0.7c7.1,0.6,17.8,6.3,12.6,14.6
			c-1.8,2.8-4.5,3.2-7.4,4.3c-2.9,1.1-5.9,0.8-8.8,1.9c-0.6,0.2-1,0.9-1.5,1.2c-3.5,1.9-5.9,0.8-9.4,0.5c-3.4-0.4-6.8-0.9-10.2-1.4
			c-1.2-0.2-2,0.6-1.8,1.8c1.2,8.4,7.3,15.5,15.8,9.8c5.3-3.6,11.9-5.6,18.4-4.3c6.8,1.3,8.4,11.7,9.7,17.4
			C1055.4,161,1058.3,160.2,1057.8,158.4z"/>
	</g>
</g>
<g>
	<path class="st0" d="M950.6,110.3c0-0.1,0-0.1,0-0.2c0.5-2.2,0.4-4.4,0-6.6c-0.4-2.7-1.4-5.3-2.6-7.7c-1.3-2.7-3.1-5.1-5.1-7.4
		c-0.9-1.1-1.9-2.2-3-3.2c-1.2-1.1-2.5-2.1-3.9-3c-2.2-1.5-4.7-2.4-7.3-2.9c-2.1-0.5-4.4-0.6-6.6-0.4c-1.1,0.1-2.1,0.3-3.2,0.5
		c-1.1,0.3-2.1,0.7-3.1,1.2c-1.7,0.8-3.3,1.9-4.7,3.1c-1.4,1.3-2.7,2.8-3.7,4.4c-1,1.5-1.9,3.2-2.6,4.8c-0.8,1.9-1.6,3.9-2.1,5.9
		c-1.1,4-1.7,8.1-2.1,12.2c-0.4,3.7-0.5,7.5-0.2,11.2c0.1,1.2,0.2,2.3,0.4,3.5c0,1.9,0,3.8,0,5.6c0.2,1.1,0.5,2.2,0.7,3.3
		c-0.9,0.7-1.8,1.4-2.6,2.2c-0.4,0.4-0.8,0.8-1.2,1.3c-0.6,0.4-1.3,0.7-2,1c-1.1,0.4-2.2,0.7-3.3,1c-0.7,0.1-1.4,0.1-2.1,0
		c-0.6-0.1-1.2-0.3-1.7-0.5c-0.4-0.2-0.8-0.4-1.1-0.7c-0.2-0.1-0.4-0.2-0.6-0.4c-0.8-0.7-1.5-1.4-2.1-2.2c-1.1-1.5-1.9-3.1-2.7-4.7
		c-1.3-3.3-2.2-6.8-2.7-10.4c-0.5-4.5-0.6-9.1,0-13.7c0.4-2.5,1-5,1.8-7.3c0.1-0.3,0.2-0.6,0.3-0.8c0.4-0.8,0-4.9-0.4-5.4
		c-1.2-2-2.6-3.9-4.1-5.7c-0.9-1.1-1.9-2.2-3-3.2c-1.2-1.1-2.5-2.1-3.9-3c-2.2-1.5-4.7-2.4-7.3-2.9c-2.1-0.5-4.4-0.6-6.6-0.4
		c-1.1,0.1-2.1,0.3-3.2,0.5c-1.1,0.3-2.1,0.7-3.1,1.2c-1.7,0.8-3.3,1.9-4.7,3.1c-1.4,1.3-2.7,2.8-3.7,4.4c-1,1.5-1.9,3.2-2.6,4.8
		c-0.8,1.9-1.6,3.9-2.1,5.9c-0.3,1.2-0.6,2.5-0.9,3.7c-0.2,3.7-0.2,7.4,0,11.1c0.2,3.4,0.6,6.7,1.3,10.1c1,4.9,2.8,9.5,4.9,14
		c0.2,0.5,0.5,1,0.7,1.5c0.2,1,0.5,1.9,0.8,2.8c1.8,5.2,4.7,10,8.1,14.3c1.6,2,3.3,3.9,5.1,5.7c2.1,2.1,4.4,3.9,6.8,5.6
		c4.3,3.1,9,5.4,13.9,7.3c2.4,1,4.9,1.7,7.5,2.3c0.9,0.2,1.8,0.4,2.8,0.6c2.6,0.5,5.3,0.8,8,0.9c0.2,0.1,0.4,0.2,0.6,0.2
		c0.3,0,0.6,0.1,0.9,0.1c0,0,0,0,0,0c0,0,0.1,0,0.1,0c1.9,0.2,3.7,0.4,5.6,0.4c0.2,0,0.3,0,0.5,0c1.6,0,3.2-0.1,4.8-0.2
		c0.1,0,0.3,0.1,0.4,0.1c1,0.1,2.1,0.3,3.1,0.3c0,0,0,0,0.1,0c1.2,0,2.3-0.2,3.5-0.4c1.9-0.3,3.7-1.1,5.4-1.9c0.3-0.2,0.6-0.4,1-0.5
		c0.9,0.6,1.8,1,2.8,1.4c1.2,0.5,2.4,0.6,3.7,0.6c0.9,0,1.8-0.1,2.7-0.3c5.4-1,10.7-3.9,14.1-8.6c0.8-1.1,1.5-2.2,2.2-3.4
		c0.7-1.3,1.2-2.7,1.7-4.2c1-2.8,1.4-5.6,1.7-8.6c0-0.1,0-0.3,0-0.4c0.3-1,0.5-2.1,0.8-3.2c0.6-2.7,1.3-5.4,1.7-8.1
		c0.1-0.8,0.3-1.6,0.4-2.4c0-9.4-0.8-18.9-2.3-28.2C951.2,111.1,950.9,110.7,950.6,110.3z"/>
	<g>
		<path class="st1" d="M952.1,110.7c4.6-20.3-22.9-43.2-40.7-29.1c-9,7.2-11.5,20.3-12.3,31.1c-0.4,6.3,0.4,12.5,0.4,18.8
			c0,2.5,0.4,2.2-1.5,4.1c-1.7,1.7-4,2.9-6.5,2.9c-5.3-0.1-7.7-6.5-9.1-10.7c-2.5-8-2.8-17.3-0.4-25.4c0.9-3.1,1.6-6,0.4-9.2
			c-1.7-4.3-6.6-8.9-10.2-11.5c-4.6-3.3-10.3-5-15.9-4.5c-10.8,1-17.3,9.9-20.4,19.6c-3.8,11.8-1.3,26.6,3.4,37.8
			c2.6,6.3,4.7,12.6,8.4,18.3c3.7,5.6,8.3,10.5,13.6,14.6c10.8,8.4,22.8,11.3,36.1,13c-0.5-0.5-1-1-1.5-1.5c0,0,0,0,0,0
			c0,0.9,0.7,1.4,1.5,1.5c4.6,0.5,9.2,0.3,13.8,0.5c2,0.1,4.1-0.2,6.1-0.7c1.8-0.5,3.4-1.6,5.1-1.5c2,0.2,3.7,1.5,5.9,1.5
			c2.3,0,4.6-0.6,6.7-1.3c4.4-1.6,8.3-4.2,11.1-7.9c2.6-3.4,4.3-7.5,5.2-11.6c1.2-5.3,2.2-10.7,3.2-16.1c1-5.5,0.5-11.3,0.1-16.9
			c-0.4-5.1-0.2-12.5-2.7-17c-0.9-1.7-3.5-0.2-2.6,1.5c2.5,4.5,2.1,12.3,2.4,17.4c0.3,5,0.7,10.1-0.3,15c-0.7,3.5-1.7,7-2.3,10.5
			c-1,5.5-1.9,10.7-5.4,15.3c-3,4-7.5,6.8-12.4,7.8c-4,0.8-7.2-2.1-10.7-1.2c-2.5,0.6-4.4,1.9-7,2.2c-1.7,0.2-3.2-0.1-4.9-0.2
			c-3.8-0.1-7.4,0.2-11.2-0.2c0.5,0.5,1,1,1.5,1.5c0,0,0,0,0,0c0-0.9-0.7-1.4-1.5-1.5c-15.9-2.1-30.3-6.7-41.4-18.9
			c-5.6-6.1-8.8-12.5-11.6-20.1c-1.4-4-3.5-7.6-4.7-11.7c-1.2-4.3-1.9-8.8-2.2-13.3c-0.6-9.2,0.5-18.2,6.1-25.8
			c5.7-7.7,16-9.6,24.4-5.1c5.4,2.9,13.3,10.1,11.9,16.9c-1.6,7.6-3,14.3-1.9,22.2c0.9,6.5,3.1,15.5,9.4,18.8
			c6.1,3.3,10.9-1.4,15.4-4.9c0.4-0.3,0.5-1,0.4-1.5c-1-4.4-1-9.4-1.2-13.9c-0.2-4.7,0.2-9.5,0.9-14.2c1.3-8,3.9-17,10.5-22.2
			c7.8-6.1,18.7-4.1,25.6,2.3c6.1,5.6,12.2,15,10.2,23.7C948.7,111.8,951.6,112.6,952.1,110.7z"/>
	</g>
</g>
<g>
	<path class="st0" d="M800.2,320.4c0-0.3-0.1-0.6-0.1-1c-0.2-1-0.5-2-0.8-2.9c-0.1-0.3-0.2-0.6-0.4-0.8c0-0.3-0.1-0.6-0.1-0.9
		c-0.3-1.5-0.9-2.8-1.7-4c-0.3-0.5-0.7-1-1.1-1.4c-0.9-1.8-2.5-3.2-4.4-3.7c-0.6-0.2-1.1-0.3-1.7-0.4c-0.7-0.1-1.4,0-2.1,0
		c-0.3,0-0.6,0-0.9,0.1c-0.6-0.1-1.2-0.1-1.8-0.1c-1.3,0-2.6,0.1-3.9,0.3c-1.4,0.2-2.7,0.6-4,1c-1.6,0.5-3.1,1.3-4.6,2.2
		c-0.6,0.4-1.2,0.8-1.8,1.2c-0.4,0.3-0.7,0.6-1,0.9c-0.5,0.2-1.1,0.4-1.6,0.6c-0.9,0.2-1.8,0.4-2.7,0.5c-0.6,0-1.1-0.1-1.7-0.2
		c-0.5-0.1-0.9-0.3-1.3-0.5c-0.4-0.3-0.9-0.6-1.3-1c-0.5-0.6-1-1.2-1.5-1.9c-0.7-1.3-1.2-2.6-1.7-4c-0.3-1-0.5-2.1-0.6-3.1
		c-0.3-1.7-0.5-3.5-0.6-5.3c0-3.6,0.4-7.2,1.2-10.7c0.4-1.4,0.9-2.7,1.4-4c2.4-2.4,5.1-4.5,8-6.3c1.9-1.1,4-2,6.1-2.7
		c0.7-0.2,1.3-0.3,2-0.4c1.5-0.2,3.1-0.2,4.6-0.2c1.7,0,3.3,0,5-0.2c2.1-0.1,4-0.5,6-1.1c1.8-0.5,3.4-1.4,4.9-2.5
		c0.8-0.6,1.6-1.5,2.3-2.2c0.8-0.9,1.4-2.1,1.9-3.2c0.5-1,0.7-2.1,1-3.2c0.1-0.6,0.2-1.2,0.2-1.8c0-0.9,0-1.8-0.2-2.7
		c-0.2-1-0.5-2.1-0.8-3.1c-0.4-1.4-1.1-2.7-1.8-4c-0.9-1.6-1.9-3.2-3.1-4.7c0,0,0,0,0,0c0,0,0,0,0-0.1c-0.2-0.5-0.6-1-0.9-1.5
		c-0.4-0.5-0.9-1-1.4-1.4c-0.3-0.3-0.6-0.5-0.9-0.7c-0.2-0.1-0.4-0.2-0.6-0.4c-0.8-0.7-1.7-1.4-2.6-1.9c-1.2-0.7-2.4-1.3-3.7-1.7
		c-1.4-0.5-2.8-0.8-4.2-0.9c-2.7-0.3-5.5-0.1-8.1,0.3c-2.9,0.5-5.8,1.4-8.5,2.5c-2.7,1.1-5.3,2.3-7.9,3.7c-0.9,0.5-1.8,1.1-2.7,1.6
		c-4,2.4-7.9,5.2-11.4,8.3c-2,1.8-3.9,3.7-5.6,5.8c-2.5,3-4.5,6.4-6.3,9.9c-0.2,0.4-0.4,0.8-0.6,1.2c-0.5,0.6-0.9,1.2-1.3,1.9
		c-2.3,3.7-3.9,7.8-4.9,12c0,0,0,0.1,0,0.1c-0.5,1.9-0.8,3.9-1,5.9c-0.3,2.3-0.3,4.6-0.2,7c0.2,4.2,1.1,8.2,2.3,12.2
		c0.8,2.7,1.9,5.3,3.2,7.8c1,1.9,2.1,3.7,3.4,5.4c0,0.2,0.1,0.3,0.2,0.5c0.1,0.2,0.2,0.4,0.3,0.6l0,0c0,0,0,0,0,0.1
		c0.8,1.3,1.6,2.5,2.5,3.7c0.1,0.1,0.2,0.2,0.2,0.3c0.8,1,1.6,2,2.5,2.9c0.1,0.1,0.1,0.2,0.2,0.3c0.4,0.7,0.8,1.4,1.3,2.1
		c0,0,0,0,0,0c0.6,0.7,1.3,1.3,1.9,2c1.1,1,2.5,1.7,3.8,2.4c0.6,0.3,1.2,0.5,1.9,0.8c0,0,0,0,0,0c1,0.6,2,1.1,3.1,1.6
		c0.5,0.3,0.9,0.5,1.3,0.8c2.5,1.3,5.1,2.4,7.8,3.2c2,0.6,4.1,1.1,6.2,1.4c0.1,0.1,0.3,0.2,0.4,0.2c0.2,0.1,0.4,0.1,0.7,0.2
		c0,0,0,0,0,0c0,0,0.1,0,0.1,0c1.4,0.3,2.9,0.6,4.4,0.8c0.1,0,0.3,0,0.4,0c1.3,0.1,2.5,0.2,3.8,0.2c0.1,0,0.2,0.1,0.3,0.1
		c0.8,0.2,1.6,0.4,2.4,0.5c0,0,0,0,0.1,0c0.9,0.1,1.9,0,2.8,0c1.5-0.1,3-0.5,4.4-1c0.6-0.2,1.3-0.5,1.9-0.8c0,0,0,0,0,0
		c3.5-0.9,6.8-2.3,9.7-4.6c0.7-0.6,1.3-1.2,1.9-1.9c0.5-0.6,1-1.2,1.4-1.8c0.5-0.8,1-1.7,1.3-2.6c0.4-0.9,0.6-1.9,0.8-2.9
		c0.1-0.8,0.2-1.5,0.2-2.3c0-1.1-0.1-2.1-0.3-3.1C800.9,322.7,800.6,321.6,800.2,320.4z"/>
	<g>
		<path class="st1" d="M801.7,320.4c-0.4-3.5-1.7-7.6-3.5-10.6c-2.9-4.6-6-5.9-11.3-5.9c-5.4,0-10.3,0.6-15,3.6
			c-3.7,2.3-6.9,5.3-10.8,0.2c-2.4-3.1-2.7-8.8-2.7-12.5c0-3.5,0.2-7.5,1.5-10.8c1.4-3.7,4.9-6.1,8.3-8.1c6.3-3.7,12-2.5,18.8-3.4
			c10-1.3,18-9.2,15.3-19.9c-2.1-8.1-7.1-15.1-15.2-18.5c-11.2-4.7-24.3,1.1-33.9,6.9c-5,3.1-9.8,6.6-14,10.8
			c-4.5,4.5-7.1,9.5-10.3,14.9c-5.9,9.7-8.8,20.1-7.3,31.6c1.7,12.2,7.9,22.1,15.3,31.6c6.5,8.4,19,11.8,28.8,14.2
			c-0.4-0.5-0.7-1-1.1-1.4c0,0,0,0,0,0c0,0.6,0.5,1.3,1.1,1.4c3.8,0.9,7.9,1.4,11.8,1.8c4.7,0.4,9.6-1.5,13.8-3.3
			c9.8-4.1,13.8-13,10.6-23c-0.6-1.8-3.5-1-2.9,0.8c1.6,5.1,1.7,10.4-2,14.7c-3,3.5-6.9,4.6-11,6.1c-6.4,2.4-13,1.6-19.6,0.1
			c0.4,0.5,0.7,1,1.1,1.4c0,0,0,0,0,0c0-0.6-0.5-1.3-1.1-1.4c-5.1-1.3-10-2.4-14.7-4.9c-3.9-2-9-3.7-11.7-7.2
			c-5.4-6.9-10.9-14.4-13.5-22.9c-3.5-11.3-3.1-24.2,2.8-34.7c6-10.5,12.2-19.2,22.5-26c9.4-6.2,23-13.4,34.4-8.5
			c8.9,3.8,17.9,17.5,11.7,26.6c-4,5.8-11.3,6-17.6,6.2c-4.4,0.1-8,0.7-11.9,2.7c-3.4,1.7-8.1,4.7-10.1,8c-2.4,4-2.7,10.7-2.6,15.2
			c0.2,7.6,3,19.9,13.2,16.9c2.5-0.7,4.1-2.6,6.3-3.8c3.2-1.7,6.6-2.3,10.2-2.4c4.3-0.1,6.7-0.1,9.9,3.7c1.8,2.3,3.4,6.9,3.8,9.9
			C798.9,322.3,801.9,322.3,801.7,320.4z"/>
	</g>
</g>
<g>
	<path class="st0" d="M329.2,320.4c0-0.3-0.1-0.6-0.1-1c-0.2-1-0.5-2-0.8-2.9c-0.1-0.3-0.3-0.6-0.4-0.8c0-0.3-0.1-0.6-0.1-0.9
		c-0.3-1.5-0.9-2.8-1.7-4c-0.3-0.5-0.7-1-1.1-1.4c-0.9-1.8-2.5-3.2-4.4-3.7c-0.6-0.2-1.1-0.3-1.7-0.4c-0.7-0.1-1.4,0-2,0
		c-0.3,0-0.6,0-0.9,0.1c-0.6-0.1-1.2-0.1-1.8-0.1c-1.3,0-2.6,0.1-3.9,0.3c-1.4,0.2-2.7,0.6-4,1c-1.6,0.5-3.2,1.3-4.6,2.2
		c-0.6,0.4-1.2,0.8-1.8,1.2c-0.4,0.3-0.7,0.6-1,0.9c-0.5,0.2-1.1,0.4-1.6,0.6c-0.9,0.2-1.8,0.4-2.7,0.5c-0.6,0-1.1-0.1-1.7-0.2
		c-0.5-0.1-0.9-0.3-1.3-0.5c-0.4-0.3-0.9-0.6-1.3-1c-0.5-0.6-1-1.2-1.5-1.9c-0.7-1.3-1.2-2.6-1.7-4c-0.3-1-0.5-2.1-0.6-3.1
		c0-0.1,0-0.2,0-0.3c0.4,0.1,0.9,0.1,1.4,0.2c1,0.3,2,0.6,3,0.8c1.7,0.3,3.5,0.4,5.3,0.3c0.1,0,0.1,0,0.2,0c0.2,0.1,0.4,0.2,0.7,0.3
		c2.6,1,6.2,1.1,8.7,0c0.6-0.2,1-0.4,1.5-0.7c0.6-0.3,1-0.7,1.5-1.2c0,0,0,0,0,0c0.5-0.1,1-0.2,1.5-0.3c0.3,0,0.6,0.1,0.9,0
		c0.7,0,1.3,0,2-0.1c0.6-0.1,1.3-0.3,1.8-0.4c0.9-0.2,1.7-0.6,2.5-1c0,0,0.1,0,0.1-0.1c0,0,0.1,0,0.1,0c1-0.2,1.9-0.4,2.7-0.8
		c0.6-0.3,1.3-0.5,1.8-0.9c0.6-0.3,1.1-0.8,1.6-1.2c0.7-0.6,1.2-1.3,1.6-2c0.2-0.2,0.3-0.5,0.4-0.8c0,0,0,0,0,0
		c0-0.1,0.1-0.2,0.1-0.2c0,0,0,0,0-0.1c0.3-0.4,0.5-0.8,0.6-1.2c0.2-0.7,0.4-1.4,0.4-2.1c0,0,0,0,0-0.1c0,0,0,0,0,0
		c0.1-1.1,0-2.2-0.3-3.3c-0.2-1.1-0.8-2.1-1.5-3.1c-0.5-0.6-1.1-1.2-1.8-1.8c-0.4-0.4-0.9-0.7-1.4-1.1c-0.7-0.5-1.6-0.9-2.4-1.3
		c-0.9-0.4-2-0.8-3-1.1c-1.6-0.5-3.3-0.7-5-0.9c-0.7-0.1-1.4-0.1-2.1-0.1c-1.2,0-2.3,0.1-3.5,0.2c-1.1,0.1-2.2,0.3-3.3,0.6
		c-1.3,0-2.7,0.1-3.9,0.4c-0.2,0-0.4,0-0.6,0c-0.5,0-1.1,0-1.6,0c-1.3,0-2.7,0-4,0.1c-0.2,0-0.4,0-0.6,0.1c1.4-1.1,2.9-2.2,4.4-3.2
		c1.9-1.1,4-2,6.1-2.7c0.7-0.2,1.3-0.3,2-0.4c1.5-0.2,3.1-0.2,4.6-0.2c1.7,0,3.3,0,5-0.2c2.1-0.1,4-0.5,6-1.1
		c1.8-0.5,3.4-1.4,4.9-2.5c0.8-0.6,1.6-1.5,2.3-2.2c0.8-0.9,1.4-2.1,1.9-3.2c0.5-1,0.7-2.1,1-3.2c0.1-0.6,0.2-1.2,0.2-1.8
		c0-0.9,0-1.8-0.2-2.7c-0.2-1-0.5-2.1-0.8-3.1c-0.4-1.4-1.1-2.7-1.8-4c-0.9-1.6-1.9-3.2-3.1-4.7c0,0,0,0,0,0c0,0,0,0,0-0.1
		c-0.2-0.5-0.6-1-0.9-1.5c-0.4-0.5-0.9-1-1.4-1.4c-0.3-0.3-0.6-0.5-0.9-0.7c-0.2-0.1-0.4-0.2-0.6-0.4c-0.8-0.7-1.7-1.4-2.6-1.9
		c-1.2-0.7-2.4-1.3-3.7-1.7c-1.4-0.5-2.8-0.8-4.2-0.9c-2.7-0.3-5.5-0.1-8.1,0.3c-2.9,0.5-5.8,1.4-8.5,2.5c-2.7,1.1-5.3,2.3-7.9,3.7
		c-0.9,0.5-1.8,1.1-2.7,1.6c-0.2,0-0.3-0.1-0.5-0.1c-0.6-0.1-1.3,0-2,0c-0.4,0-0.7,0.1-1.1,0.2c-0.2,0.1-0.5,0.1-0.7,0.2
		c-1.1,0.1-2.1,0.2-3.2,0.5c-1.3,0.3-2.6,0.8-3.8,1.4c-1.3,0.6-2.5,1.5-3.7,2.3c-2.1,1.7-3.9,3.8-5.5,6c-1.7,2.4-3.1,5.1-4.2,7.8
		c-1.1,2.7-2.1,5.4-2.9,8.2c-1.2,4.2-2.1,8.5-2.5,12.8c-0.5,1.9-0.8,3.9-1,5.9c-0.3,2.3-0.3,4.6-0.2,7c0.2,4.2,1.1,8.2,2.3,12.2
		c0.8,2.7,1.9,5.3,3.2,7.8c1,1.9,2.1,3.7,3.4,5.4c0,0.2,0.1,0.3,0.2,0.5c0.1,0.2,0.2,0.4,0.4,0.6l0,0c0,0,0,0,0,0.1
		c0.8,1.3,1.6,2.5,2.5,3.7c0.1,0.1,0.2,0.2,0.2,0.3c0.8,1,1.6,2,2.5,2.9c0.1,0.1,0.1,0.2,0.2,0.3c0.4,0.7,0.8,1.4,1.3,2.1
		c0,0,0,0,0,0c0.6,0.7,1.3,1.3,1.9,2c1.1,1,2.5,1.7,3.8,2.4c0.6,0.3,1.2,0.5,1.9,0.8c0,0,0,0,0,0c1,0.6,2,1.1,3.1,1.6
		c0.5,0.2,0.9,0.5,1.3,0.8c2.5,1.3,5.1,2.4,7.8,3.2c2,0.6,4.1,1.1,6.2,1.4c0.1,0.1,0.3,0.2,0.4,0.2c0.2,0.1,0.4,0.1,0.7,0.2
		c0,0,0,0,0,0c0,0,0.1,0,0.1,0c1.4,0.3,2.9,0.6,4.4,0.8c0.1,0,0.3,0,0.4,0c1.3,0.1,2.5,0.2,3.8,0.2c0.1,0,0.2,0.1,0.3,0.1
		c0.8,0.2,1.6,0.4,2.4,0.5c0,0,0,0,0.1,0c0.9,0.1,1.9,0,2.8,0c1.5-0.1,3-0.5,4.4-1c0.6-0.2,1.3-0.5,1.9-0.8c0,0,0,0,0,0
		c3.5-0.9,6.8-2.3,9.7-4.6c0.7-0.6,1.3-1.2,1.9-1.9c0.5-0.6,1-1.2,1.4-1.8c0.5-0.8,1-1.7,1.3-2.6c0.4-0.9,0.6-1.9,0.8-2.9
		c0.1-0.8,0.2-1.5,0.2-2.3c0-1-0.1-2.1-0.3-3.1C330,322.7,329.7,321.6,329.2,320.4z"/>
	<g>
		<path class="st1" d="M330.7,320.4c-0.9-7.9-5-16.6-13.9-16.6c-5.1,0-9.9,0.4-14.5,2.8c-2.2,1.2-5.2,4.3-7.9,3.9
			c-4.6-0.8-6.1-5.9-6.7-9.8c-0.6,0.6-1.2,1.2-1.8,1.8c4.5,0.6,8.9,1.6,13.4,2.2c2,0.3,4.1,0.1,6-0.5c1.6-0.5,2.9-2,4.3-2.5
			c1.8-0.6,4.2,0,6.2-0.7c1.9-0.7,2.7-0.9,4.7-1.7c3-1.1,5.1-3,6.5-5.8c3.2-6.3-0.5-13-6.9-15.9c-4.2-1.9-8.9-2.5-13.5-2.1
			c-4.9,0.4-10,0.6-14.9,1.2c0.4,0.9,0.7,1.7,1.1,2.6c3.8-3,8-5.6,12.9-5.9c3.8-0.3,7.7,0,11.5-0.7c5.7-1,10.8-4.1,13.1-9.6
			c4.5-10.9-4.7-24.3-14.4-28.4c-6.6-2.8-14-1.8-20.6,0.4c-3.4,1.2-6.8,2.7-10,4.4c-1.1,0.6-2.1,1.5-3.2,1.7
			c-1.3,0.3-3.1,0.1-4.4,0.3c-15.1,2.4-21.8,17.5-25,30.9c-2,8.5-3.7,17.7-2.5,26.3c1.2,8.7,4.7,15.9,9.2,23.3
			c0.2-0.7,0.4-1.4,0.5-2.1c0,0,0,0,0,0c-0.7,0.4-0.9,1.4-0.5,2.1c3.2,5.3,7.4,11.5,13.1,14.3c7.3,3.5,13.9,6.3,21.8,8.3
			c-0.4-0.5-0.7-1-1.1-1.4c0,0,0,0,0,0c0,0.6,0.5,1.3,1.1,1.4c3.8,0.9,7.9,1.4,11.8,1.8c4.7,0.4,9.6-1.5,13.8-3.3
			c9.8-4.1,13.8-13,10.6-23c-0.6-1.8-3.5-1-2.9,0.8c1.6,5.1,1.7,10.4-2,14.7c-3,3.5-6.9,4.6-11,6.1c-6.4,2.4-13,1.5-19.6,0.1
			c0.4,0.5,0.7,1,1.1,1.4c0,0,0,0,0,0c0-0.6-0.5-1.3-1.1-1.4c-7-1.7-13.1-4.1-19.5-7.3c-6-3-10-8-13.5-13.8
			c-0.2,0.7-0.4,1.4-0.5,2.1c0,0,0,0,0,0c0.7-0.4,0.9-1.4,0.5-2.1c-4.5-7.6-8.2-15-9-23.9c-0.7-8.3,1-17.2,3.1-25.2
			c2.3-8.9,6.3-19.6,14.8-24.6c3.1-1.8,6.8-2.5,10.3-2.7c2.9-0.2,4.5-1.5,7.2-2.9c8-4.1,18.8-7.8,27.4-3.3
			c6.2,3.2,11.4,10.4,12.5,17.2c2,12.3-10.2,14.9-19.5,15.2c-7.2,0.2-12.4,2.5-18.1,6.9c-1,0.8-0.2,2.7,1.1,2.6
			c3.1-0.4,6.2-0.2,9.4-0.5c3.4-0.3,6.7-1,10.2-0.7c7.1,0.6,17.8,6.3,12.6,14.6c-1.8,2.8-4.5,3.2-7.4,4.3c-2.9,1.1-5.9,0.8-8.8,1.9
			c-0.6,0.2-1,0.9-1.5,1.2c-3.5,1.9-5.9,0.8-9.4,0.5c-3.4-0.4-6.8-0.9-10.2-1.4c-1.2-0.2-2,0.6-1.8,1.8c1.1,7.2,6.3,15.4,14.6,10.7
			c2.5-1.4,4.2-3.2,7.1-4.2c3-1.1,6.1-1.2,9.3-1.1c1.5,0,2.8-0.5,4.3,0.3c1.7,0.8,3.5,2.9,4.5,4.5c1.3,2.1,2.7,6.2,3,8.7
			C328,322.3,331,322.3,330.7,320.4z"/>
	</g>
</g>
<g>
	<path class="st0" d="M573.2,271.7c-0.2-0.6-0.5-1.1-0.8-1.6c0-0.4,0.1-0.8,0.1-1.1c0.1-2.3-0.2-4.6-0.6-6.8
		c-0.5-2.4-1.4-4.6-2.5-6.8c-0.8-1.7-1.9-3.4-3.1-4.9c-1.5-1.9-3.1-3.7-4.9-5.3c-1.7-1.6-3.7-2.9-5.6-4.2c-0.9-0.6-1.8-1.1-2.7-1.6
		c-1-0.5-2.1-1-3.2-1.5c-2.2-0.9-4.5-1.7-6.8-2.2c-2.5-0.6-5-0.8-7.5-1.1c-4.4-0.3-8.9,0.3-13.1,1.6c-2.2,0.7-4.3,1.7-6.3,2.9
		c-0.2,0.1-0.4,0.3-0.7,0.5c-0.5-0.4-1-0.7-1.5-1.1c-2.2-1.5-4.7-2.4-7.3-2.9c-2.1-0.5-4.4-0.6-6.6-0.4c-1.1,0.1-2.1,0.3-3.2,0.5
		c-1.1,0.3-2.1,0.7-3.1,1.2c-1.7,0.8-3.3,1.9-4.7,3.1c-1.4,1.3-2.7,2.8-3.7,4.4c-1,1.5-1.9,3.2-2.6,4.8c-0.8,1.9-1.6,3.9-2.1,5.9
		c-1.1,4-1.7,8.1-2.1,12.2c-0.4,3.7-0.4,7.5-0.2,11.2c0.1,1.2,0.2,2.3,0.4,3.5c-0.1,3.6,0,7.2,0.2,10.9c0.4,9.1,1.4,18.1,2.4,27.1
		c0.2,1.8,0.4,3.7,0.6,5.5c0,5.1,0.3,10.2,0.9,15.2c0,0.5-0.1,1-0.1,1.5c-0.4,5.5-1.2,11.1-1,16.6c0.1,2.7,0.5,5.4,1.3,8
		c0.9,2.6,2.2,4.9,4.1,6.9c0.9,1,2,1.8,3.2,2.5c1.3,0.8,2.7,1.5,4.2,2c2.7,1.1,5.7,1.6,8.6,1.7c0.2,0,0.4,0,0.7,0
		c0.9,0,1.7-0.1,2.5-0.2c0,0,0,0,0,0c0.7,0.2,1.4,0.3,2.2,0.3c0,0,0.1,0,0.1,0c0.7,0,1.4-0.1,2-0.2c0.4-0.1,0.9-0.2,1.3-0.3
		c0.5-0.1,0.9-0.3,1.4-0.5c0.9-0.4,1.8-0.7,2.6-1.2c1-0.5,2-1.2,2.9-1.9c1.3-1,2.6-2,3.8-3.3c1.1-1.1,2-2.3,2.9-3.5
		c0.9-1.2,1.5-2.5,2.1-3.9c0.4-1,0.6-1.9,0.8-2.9c0.3-1.5,0.4-3,0.5-4.6c0.2-2.7,0.2-5.5,0.1-8.2c-0.2-2.3-0.5-4.6-0.8-6.9
		c0.3-3.3,0.6-6.6,0.7-9.9c0.1-1.9,0.2-3.8,0.2-5.6c0.2-2.7,0.3-5.5,0.3-8.2c0.1-0.4,0.1-0.9,0.2-1.3c0.4-2.8,0.8-5.6,1-8.4
		c1.3,0.1,2.6,0.1,3.9,0.1c2.4-0.1,4.7-0.5,7-1c4.1-0.8,7.9-2.3,11.7-4.1c2-1,4-2.2,5.7-3.6c1.3-0.7,2.5-1.5,3.7-2.4
		c2.4-1.7,4.7-3.7,6.6-6c1-1.2,1.9-2.5,2.7-3.9c0.8-1.3,1.3-2.8,1.8-4.2c0.5-1.4,0.6-2.9,0.7-4.4c0.1-1.2,0-2.3-0.1-3.5
		C574.2,274.7,573.8,273.2,573.2,271.7z"/>
	<g>
		<path class="st1" d="M574.5,271c-1.2-2.5-0.5-6.4-1.2-9.2c-0.6-2.7-1.7-5.4-3-7.8c-2.8-5.1-7-9.5-11.7-12.8
			c-9.7-6.9-22.7-9.9-34.3-7c-2.6,0.7-5,2.2-7.5,2.9c-2.5,0.7-1.1,0.9-3.5-0.5c-0.9-0.5-2.3-1.1-3.2-1.4c-5.4-1.9-11.5-1.9-16.7,0.4
			c-10,4.6-14.1,16.1-15.6,26.2c-1,6.2-1.1,12.3-0.7,18.6c0.5,7.4,0.4,14.9,1,22.3c1.2,14.2,4.2,29,2.9,43.3
			c-1,10.7-2.3,23.7,7.6,30.8c4.1,3,9.6,4.7,14.6,4.7c3.6,0,7.1,0.3,10.6-0.9c5.3-1.9,10.1-5.9,13.1-10.5c3.4-5.1,3.9-11.1,3.8-17.1
			c0-3-0.5-5.9-0.7-8.8c-0.3-4.3,0.4-8.8,0.6-13.1c0.3-7.3,1-14.4,1.7-21.7c-0.5,0.5-1,1-1.5,1.5c19.4,0.8,52.2-15.4,43.8-39.3
			c-0.6-1.8-3.5-1-2.9,0.8c7.7,21.9-23.5,36.2-41,35.5c-0.9,0-1.4,0.7-1.5,1.5c-0.7,7.9-1.3,15.6-1.7,23.6
			c-0.2,3.4-0.8,6.9-0.7,10.3c0.1,4.4,1,8.6,0.8,13c-0.5,9.5-5.3,18-14.7,21.4c-5.1,1.9-13.1,1-18-0.9
			c-10.2-3.9-12.1-13.6-11.6-23.5c0.2-4.1,1.1-8.4,1-12.5c0-4.4-0.7-8.9-0.9-13.3c-0.4-8.9-1.9-17.8-2.6-26.8
			c-0.7-8.5-1.1-17.2-1.2-25.8c-0.1-9.9,1.4-21.2,7-29.6c6.5-9.7,18.8-10.9,27.9-4.3c0.4,0.3,1.1,0.3,1.5,0
			c11-7.7,27.2-5.8,38.1,0.9c5.4,3.3,10.5,8,13.4,13.7c1.7,3.3,2.8,6.6,3.1,10.3c0.3,2.8-0.1,4.3,1,6.7
			C572.8,274.2,575.3,272.7,574.5,271z"/>
	</g>
</g>
<g>
	<path class="st0" d="M217,257.6c-0.3-1.7-0.8-3.4-1.4-5c-0.8-2.1-1.6-4.1-2.6-6c0,0,0,0,0-0.1c0,0,0-0.1,0-0.1
		c-0.2-0.6-0.5-1.3-0.7-1.9c-0.3-0.7-0.8-1.3-1.2-1.9c-0.2-0.3-0.5-0.6-0.8-0.9c-0.2-0.2-0.4-0.3-0.6-0.5c-0.7-1-1.5-1.8-2.4-2.6
		c-1.1-1-2.3-1.8-3.5-2.4c-1.3-0.7-2.7-1.2-4.1-1.5c-2.6-0.6-5.4-0.6-8.1-0.2c-2.9,0.4-5.9,1.3-8.7,2.4c-2.8,1.1-5.5,2.5-8.2,4
		c-5.1,2.9-10,6.4-14.5,10.6c-0.7-0.1-1.3-0.3-2-0.4c-0.9-0.1-1.9-0.2-2.8-0.3c-0.2,0-0.4,0-0.7,0c-0.9,0-1.7,0.1-2.5,0.2
		c0,0,0,0,0,0c-0.7-0.2-1.4-0.3-2.2-0.3c0,0-0.1,0-0.1,0c-0.7,0-1.4,0.1-2,0.2c-0.4,0.1-0.9,0.2-1.3,0.3c-0.5,0.1-0.9,0.3-1.4,0.5
		c-0.9,0.4-1.8,0.7-2.6,1.2c-1,0.5-2,1.2-2.9,1.9c-1.3,1-2.6,2-3.8,3.3c-1.1,1.1-2,2.3-2.9,3.5c-0.9,1.2-1.5,2.5-2.1,3.9
		c-0.4,1-0.6,1.9-0.8,2.9c-0.3,1.5-0.4,3-0.5,4.6c-0.2,2.7-0.2,5.5-0.1,8.2c0.2,2.3,0.5,4.6,0.8,6.9c-0.3,3.3-0.6,6.6-0.7,9.9
		c-0.1,1.4-0.1,2.8-0.2,4.1c0,0.2,0.1,0.5,0.1,0.7c0.1,0.5,0.4,0.9,0.7,1.3c0,0.1,0,0.1,0,0.2c-0.5,2.2-0.4,4.4,0,6.6
		c0.4,2.7,1.4,5.3,2.6,7.7c1.3,2.7,3.1,5.1,5.1,7.4c0.9,1.1,1.9,2.2,3,3.2c1.2,1.1,2.5,2.1,3.9,3c2.2,1.5,4.7,2.4,7.3,2.9
		c2.1,0.5,4.4,0.6,6.6,0.4c1.1-0.1,2.1-0.3,3.2-0.5c0.2-0.1,0.5-0.1,0.7-0.2c0.8-0.3,1.6-0.6,2.4-0.9c1.7-0.8,3.3-1.9,4.7-3.1
		c1.4-1.3,2.7-2.8,3.7-4.4c1-1.5,1.9-3.2,2.6-4.8c0.8-1.8,1.5-3.7,2-5.6c-0.2-1.7-0.4-3.4-0.6-5.2c-0.2-1.8-0.4-3.7-0.6-5.5
		c0-1.4,0-2.9-0.1-4.3c-0.1-3.7-0.4-7.3-0.8-10.9c0-0.5,0.1-1,0.1-1.5c0-0.1,0-0.1,0-0.2c2.1-1.9,4.2-3.7,6.5-5.2
		c2-1.2,4.1-2.2,6.3-2.8c0.7-0.1,1.3-0.2,2-0.3c1.5-0.1,3.1,0,4.6,0.1c1.7,0.1,3.3,0.2,5,0.2c2.1,0,4.1-0.3,6.1-0.9
		c1.8-0.5,3.5-1.4,5.1-2.6c0.9-0.7,1.7-1.7,2.5-2.6c0.9-1.1,1.6-2.4,2.2-3.7c0.6-1.2,0.9-2.5,1.3-3.8c0.2-0.7,0.3-1.4,0.3-2.2
		c0.1-1.1,0.2-2.2,0.1-3.4C217.4,260.2,217.2,258.9,217,257.6z"/>
	<g>
		<path class="st1" d="M218.4,257.2c-1.9-8.9-6.2-18.9-15.4-22.8c-10.8-4.5-23.3,1.4-32.4,7.1c-2.1,1.3-4.2,2.8-6.2,4.3
			c-1.2,1-2.8,2.8-4.2,3.5c-1.3,0.6-1,0.3-2.3,0.4c-3.6,0.2-7.2-0.8-10.8-0.1c-9.6,1.8-17.8,10.9-19.1,20.4
			c-0.8,5.7-0.2,11.1,0.3,16.8c0.4,5.6-1.2,11.3-0.4,16.9c0.1,0.4,0.3,1.3,0.2,2.3c-0.2,1.7,0,3.3,0.2,5c0.3,2.3,1,4.5,1.9,6.6
			c2.2,5.2,6,10.2,10.4,13.9c7.7,6.4,19.2,8.1,27.6,2c4-2.9,6.7-7,8.7-11.5c0.8-1.8,1.9-4,2.1-6c0.4-3.8-1.1-8.2-1.2-12.1
			c-0.1-3.4-0.2-6.8-0.5-10.2c-0.1-1.2-0.9-4-0.3-5.1c0.7-1.3,4.4-3.2,5.8-4.1c7-4.2,13.1-1.8,20.6-2.9
			C215.6,279.9,220.2,268.4,218.4,257.2c-0.3-1.9-3.2-1.1-2.9,0.8c1,5.9,0.2,12.3-4.2,16.7c-4.4,4.5-10.6,4.4-16.4,4.1
			c-3.8-0.2-6.9,0-10.4,1.6c-3,1.3-8.7,4.4-10.3,7.4c-1.4,2.5,0.2,7.9,0.4,10.6c0.3,5.1,0.8,10.1,1.1,15.1
			c0.6,11.7-10.8,22.2-22.3,20.6c-11.2-1.6-21.4-13.6-22.3-24.8c-0.1-1.8,0.4-3.6,0.3-5.3c-0.2-2.1-0.7-3.8-0.6-5.9
			c0.3-5.2,0.6-9.9,0.1-15.1c-1.1-11.6,1-22.8,12.2-28.7c3.3-1.8,6-1.7,9.5-1.7c2.4,0,6.2,1.1,8.3,0.2c2.4-1.1,5.5-4.7,7.6-6.2
			c2.4-1.7,5-3.3,7.6-4.8c5.9-3.3,12.6-6.1,19.4-5.9c11.9,0.3,17.9,11.8,20.1,22.1C215.9,259.9,218.8,259.1,218.4,257.2z"/>
	</g>
</g>
<g>
	<path class="st0" d="M441.1,286.4c-0.1-0.2-0.2-0.5-0.3-0.7c-1.1-2.2-2.5-4.2-4.1-5.9c-0.3-0.4-0.6-0.8-1-1.2
		c-1.2-1.3-2.7-2.3-4.4-3.1c-0.1-0.1-0.2-0.1-0.3-0.2c-1.3-0.8-2.6-1.3-3.6-1.6c-1.1-0.4-2.3-0.7-3.6-1c-2.4-0.5-4.8-0.7-7.6-0.7
		h-0.1c-2.6-0.4-4.9-0.6-7.2-0.6c-0.5,0-0.9,0-1.4,0c-2.1,0-4.1,0.1-6,0.4c-0.1,0-0.1,0-0.2-0.1c-0.1,0.1-0.2,0.2-0.3,0.3
		c-0.1,0.1-0.2,0.2-0.4,0.2c-0.1,0.1-0.3,0.1-0.4,0.2c-0.1,0.1-0.3,0.1-0.5,0.1c-0.1,0-0.3,0-0.4,0c-0.2,0-0.3,0-0.5,0
		c-0.1,0-0.2,0-0.3-0.1c-0.1,0-0.2,0-0.2,0c-0.1,0-0.1,0-0.2-0.1c-0.2,0-0.4,0-0.5-0.1c-0.3-0.1-0.5-0.1-0.7-0.3
		c-0.1,0-0.1-0.1-0.1-0.1c0,0-0.1-0.1-0.1-0.1c0-0.1,0-0.1,0-0.2c0-0.1,0-0.1,0-0.2c-0.2,0-0.3-0.1-0.5-0.1
		c-0.3-0.2-0.4-0.5-0.3-0.8c0-0.1,0.1-0.1,0.1-0.2c0.1-0.1,0.1-0.2,0.2-0.2c0,0,0,0,0,0c0-0.1,0-0.1,0-0.2c0,0,0-0.1,0-0.1
		c0-0.1,0-0.1,0-0.2c0-0.1,0-0.1,0-0.2c0-0.1,0.1-0.2,0.2-0.3c0,0,0,0,0,0c0,0,0,0,0,0c0-0.1,0-0.2,0.1-0.3c0-0.1,0.1-0.2,0.1-0.2
		c0.1-0.1,0.1-0.2,0.2-0.2c0.1-0.1,0.3-0.2,0.4-0.3c0.1,0,0.1-0.1,0.2-0.1c0,0,0,0,0,0c0,0,0,0,0.1,0c0,0,0,0,0,0
		c0.1-0.1,0.2-0.1,0.3-0.1c0.2-0.1,0.3-0.1,0.5-0.2c0,0,0,0,0,0c0,0,0,0,0,0c0,0,0,0,0,0c0,0,0,0,0,0c1.1-0.7,2.3-1.2,3.6-1.6
		c1.4-0.4,2.9-0.6,4.4-0.6c1.1,0.1,2.2,0.2,3.4,0.3l0.1,0l0.2,0c0.2,0,0.4,0.1,0.6,0.1c1.1,0.1,2.2,0.3,3.3,0.5l1.8,0.3
		c1.9,0.3,3.8,0.7,5.8,0.9c1,0.1,1.9,0.1,2.9,0.1c1.4,0,2.7-0.1,4.1-0.3c0.6,0.1,1.3,0.1,1.9,0.1c0.4,0,0.7,0,1.1,0
		c0.6,0,1.3-0.2,2-0.3c0.9-0.2,1.7-0.5,2.4-0.9c0.8-0.4,1.5-0.8,2.1-1.2c0.6-0.4,1.1-0.8,1.6-1.3c0.6-0.6,1.1-1.2,1.6-1.8
		c0.1-0.1,0.2-0.3,0.3-0.4c0.8-0.9,1.5-1.9,2-3c0.3-0.5,0.4-1.1,0.6-1.5l0.1-0.2c0.1-0.4,0.2-0.7,0.3-1.1c0.1-0.6,0.1-1.2,0.2-1.8
		c0-0.7,0-1.3-0.1-1.9l0-0.2c-0.1-0.8-0.3-1.5-0.5-2c-0.2-0.9-0.5-1.7-0.7-2.4c-0.2-0.6-0.5-1.2-0.9-1.8c-0.1-0.5-0.3-1-0.6-1.4
		c-0.6-0.7-1.1-1.2-1.6-1.7c-0.2-0.2-0.5-0.4-0.8-0.5l0,0l-0.1-0.1c-0.2-0.2-0.3-0.3-0.5-0.4c-0.1-0.1-0.2-0.1-0.3-0.2
		c-0.1-0.1-0.2-0.1-0.4-0.2c0,0,0,0,0,0l0,0l0,0c-0.2-0.5-0.6-1-0.9-1.2c-1-0.8-2.1-1.4-3.2-2c-1.5-0.7-3.1-1.4-5-1.9
		c-0.9-0.3-1.9-0.5-2.8-0.7c-2.4-0.5-5-0.8-7.9-0.8c-0.3,0-0.5,0-0.8,0c-1.4,0-2.9,0.1-4.5,0.2c-0.2,0-0.4,0-0.6,0.1
		c-0.1,0-0.1,0-0.2,0c-0.1,0-0.3-0.1-0.5-0.1c-0.4,0-0.9,0-1.3,0c-1.7,0-3.6,0.2-5.5,0.6c-2.5,0.5-5,1.3-7.5,2.3c-2.5,1-5,2.4-7.3,4
		c-2.4,1.6-4.5,3.5-6.3,5.6c-1.3,1.5-2.4,3.1-3.2,4.8c-1.1,1.3-2,2.9-2.9,4.8c-0.8,1.6-1.5,3.5-2.1,5.7c-0.3,0.9-0.5,1.9-0.8,2.9
		c-0.4,1.2-0.8,2.5-1,3.9c-0.4,2.6-0.4,5.3,0,7.8c-0.1,0.9-0.1,1.7-0.1,2.6c0,0.8-0.1,1.5,0,2.2c0,0.2,0,0.4,0.1,0.6
		c0,0,0,0.1,0,0.2l0.1,0.5l0.3,1.3c0.3,1,0.6,2.2,1,3.3c0.3,0.9,0.7,1.6,1,2.3c0,0.1,0,0.1,0.1,0.2c0,0,0.1,0.2,0.1,0.2
		c0.2,0.3,0.4,0.6,0.6,1c0,0.1,0.1,0.2,0.2,0.2c0.3,0.4,0.6,0.8,1.1,1.3c0,0.1,0.1,0.1,0.1,0.2c0.1,0.1,0.2,0.3,0.4,0.4l1.1-0.9
		l0.1,0.1l-1,1c0.3,0.3,0.5,0.5,0.8,0.8l0.1,0.1l0,0c0,0,0.1,0.1,0.1,0.1c0.3,0.2,0.4,0.4,0.6,0.6c0,0,0.1,0.1,0.1,0.1l0.2,0.1
		l0.2,0.2l0.3,0.2c0.1,0,0.1,0.1,0.2,0.1l0.3,0.2c0,0,0.1,0.1,0.1,0.1c0.4,0.3,0.7,0.5,1.1,0.8c0.1,0,0.1,0.1,0.2,0.1
		c0.1,0,0.1,0.1,0.2,0.1l0.2,0.1c0.6,0.3,1.1,0.5,1.6,0.7c0.4,0.1,0.6,0.2,0.9,0.3c0,0,0.2,0.1,0.2,0.1l0.2,0.1c0,0,0.2,0.1,0.2,0.1
		l0.6,0.2c0,0,0.2,0,0.2,0.1l0.6,0.2l0.2,0l0.5-1.3c0,0,0,0,0.1,0l-0.4,1.3c0,0,0.1,0,0.2,0c0.4,0.1,0.7,0.2,1,0.3l0.2,0.1l0.7,0.2
		l0.2,0l0.3,0.1l0.6,0.1c0,0,0.2,0,0.2,0c0,0,0.2,0,0.3,0l0.3,0l0.1,0l0.4,0.1l0.7,0.1l0.2,0c0.5,0.1,1,0.2,1.6,0.2
		c0.4,0,0.7,0.1,1.1,0.1c0.1,0,0.1,0,0.2,0c1.1,0.1,2.1,0.2,3.2,0.3c0.1,0,0.2,0,0.2,0c0.1,0,0.2,0,0.3,0c0.6-0.1,1.3-0.1,1.9-0.3
		c0.1,0,0.2,0,0.3-0.1l0.3-0.1c0.1,0,0.2-0.1,0.3-0.1c0.1,0,0.2,0,0.3-0.1c0.3-0.1,0.6-0.2,0.9-0.2c0,0,0.1,0,0.1,0
		c0,0,0.2-0.1,0.2-0.1c0.1,0,0.1,0,0.2-0.1c0,0,0.2-0.1,0.2-0.1c0.1,0,0.2,0,0.2,0c0.1,0,0.1,0,0.2,0c0.3-0.1,0.5-0.1,0.7-0.1l0.2,0
		c0.8-0.1,1.5-0.2,2.2-0.2c0,0,0,0,0,0h0c0.1,0,0.3,0,0.4,0c0.9-0.1,1.9-0.3,2.8-0.5l0.5,0.1c2.2,0.4,4,0.9,5.5,1.5
		c1.1,0.5,2.1,1,2.9,1.6c0.3,0.3,0.6,0.6,0.9,1c0.2,0.3,0.3,0.5,0.4,0.8c0,0.1,0.1,0.2,0.1,0.3c0,0.2-0.1,0.5-0.2,0.8
		c-0.1,0.2-0.1,0.3-0.2,0.5c-0.1,0.2-0.3,0.4-0.4,0.6c-0.2,0.2-0.4,0.4-0.7,0.6c-0.1,0-0.2,0.1-0.3,0.1c-0.5,0.2-1,0.5-1.6,0.7
		l-0.4,0.2c-0.1,0.1-0.2,0.1-0.3,0.2c-0.6,0.1-1.2,0.2-1.8,0.2l-0.2,0c-1.5-0.1-3.1-0.5-4.4-0.8c-0.7-0.2-1.4-0.4-2.1-0.6
		c-1.1-0.3-2.1-0.6-3.2-0.8c-0.9-0.2-1.9-0.4-2.9-0.6c-1.2-0.2-2.3-0.2-3.2-0.2c-1.2,0-2.4,0.1-3.4,0.3c-0.3,0.1-0.7,0.2-1,0.3
		c-0.4,0-0.9,0-1.3,0c-0.4,0-0.7,0-1.1,0c-2.8,0.1-5.4,0.4-7.7,1c-3.5,0.9-6.1,2.2-8.3,4.1c-2.7,2.4-4.6,5.8-5.1,9.3
		c-0.1,1.1-0.2,2.1-0.2,3c0,1,0.2,2.1,0.4,3.3c0.1,0.3,0.1,0.6,0.2,0.8c0,0.2,0.1,0.3,0.2,0.5c0,0,0,0.1,0.1,0.1c0,0,0,0.1,0,0.2
		c0,0,0,0.1,0,0.2c0.1,0.4,0.3,0.6,0.5,0.9l0.3,0.3l0.1,0.2c0.2,0.2,0.4,0.4,0.5,0.7l0.6,0.8c0.3,0.4,0.6,0.7,0.8,1.1
		c0.7,0.9,1.7,2.1,2.9,3.2c0.1,0,0.1,0.1,0.2,0.1c0.3,0.2,0.6,0.4,0.9,0.6c0.3,0.2,0.6,0.4,0.9,0.6c0,0,0.1,0.1,0.1,0.1
		c0.1,0.1,0.2,0.1,0.3,0.2l0.7-1.2c0,0,0.1,0,0.1,0l-0.7,1.2l0.3,0.1c0.2,0.1,0.4,0.2,0.6,0.3l0.2,0.1c0.6,0.3,1.2,0.5,1.8,0.7
		l0.8,0.3l0.2,0.1l0.2,0.1l0.4,0.2c0,0,0,0,0.1,0l0.2,0.1l0.3,0.1c0.4,0.2,0.8,0.3,1.2,0.5c0.2,0.1,0.3,0.1,0.5,0.1
		c1,0.2,2,0.3,3,0.4c0.1,0,0.2,0,0.3,0c0.3,0,0.6,0,0.9-0.1c0.4,0.2,0.6,0.3,1,0.3c1.3,0.1,2.6,0.1,3.8,0.1c1.3,0,2.6,0,3.9-0.1
		c1.2-0.1,2.4-0.2,3.5-0.3l0.1,0c1,0,1.9-0.1,2.9-0.1c0.9,0,1.9,0,2.8,0l0.9,0l0.9,0c0.6,0,1.2,0,1.8,0c0.6,0.1,1.1,0.1,1.7,0.1
		l0.4,0c0.9,0,1.9-0.1,2.9-0.4c0.4,0,0.8-0.1,1.2-0.1c1.8-0.2,3.6-0.6,5.5-1.2c1.8-0.5,3.4-1.2,5-2.1c1.9-1.1,3.5-2.3,4.9-3.7
		c0.8-0.9,1.6-1.7,2.2-2.5c0.7-0.9,1.2-1.9,1.7-2.7c0.3-0.6,0.6-1.2,0.9-1.9c0.1-0.2,0.3-0.4,0.4-0.6c0.7-1.2,1.3-2.4,1.8-3.7
		c0.5-1.2,0.9-2.6,1.2-4.1c0.1-0.7,0.3-1.3,0.4-2c0.1-0.2,0.1-0.5,0.2-0.7c0.8-2.5,1.4-5.1,1.7-7.6c0.5-4.7,0.2-9-1-12.8
		C443.6,291,442.5,288.6,441.1,286.4z"/>
	<g>
		<path class="st1" d="M442.4,285.7c-4.1-8.8-12-13.7-21.5-14.8c-5.9-0.7-12-1.1-17.9-0.6c-1.2,0.1-4.8,0.9-4.8,1.3
			c0-0.7-0.5-1.3-1.1-1.4c1.9,0.5-0.9,1.4,0.7-0.1c0,0,0.3-1-0.1-0.4c-1.7,2.4,0.9-0.8,0.1,0.2c0.6-0.8,1.1-0.8,1.4-1
			c8.4-4.2,17.5,0.7,26.4,0.3c8.1-0.3,15.2-1.7,19.1-9.8c2.8-5.8,0.7-14.9-4.6-18.6c-0.4,0.9-0.8,1.8-1.2,2.7c0,0,0,0,0,0
			c1.4,0.5,2.5-1.5,1.5-2.5c-0.3-0.3-1.5-1.3-1.1-0.6c-0.2,0.7-0.4,1.4-0.5,2.1c0,0,0,0,0,0c1.5-1.2,0.3-3.4-1.5-2.6c0,0,0,0,0,0
			c0.7,0.2,1.4,0.4,2.1,0.5c-5.9-7.9-18.5-7.4-27.2-7.2c-11.1,0.2-22.2,4.1-29.7,12.8c-6.7,7.9-11.1,19-10.7,29.4
			c0.3,6.9,0.6,13.7,5.7,19.1c0.6,0.6,1.5,0.5,2.1,0c0.4-0.3,0.7-0.6,1.1-0.9c-0.7,0-1.4,0-2.1,0c0,0,0,0,0.1,0.1c0-0.7,0-1.4,0-2.1
			c-0.3,0.3-0.7,0.7-1,1c-0.6,0.6-0.6,1.6,0,2.1c0.3,0.3,0.6,0.6,0.9,0.9c0.6,0.5,1.5,0.6,2.1,0c0,0,0,0,0,0c-0.7,0-1.4,0-2.1,0
			c2.5,2.5,5.7,3.9,9.1,4.9c0.8,0.2,1.6-0.3,1.8-1c0.2-0.4,0.3-0.9,0.5-1.3c-0.6,0.3-1.2,0.7-1.8,1c0,0,0,0,0.1,0
			c-0.3-0.6-0.7-1.2-1-1.8c-0.1,0.4-0.3,0.9-0.4,1.3c-0.2,0.8,0.3,1.6,1,1.8c3.8,1.1,8.3,2,12.2,1.9c4.8-0.1,9-2.6,13.9-1.4
			c2.2,0.5,8.6,2.8,4.7,4.8c-2.2,1.1-4.4,0.5-6.8-0.1c-2.8-0.7-5.5-1.6-8.3-2c-3.2-0.4-6,0.1-9.2,0.4c-10.4,0.7-22,3.8-23.7,16
			c-1,7.4,3,14.6,9.6,18.2c0.7,0.4,1.6,0.2,2.1-0.5c0.2-0.4,0.5-0.8,0.7-1.2c-0.7,0.2-1.4,0.4-2.1,0.5c0,0,0.1,0,0.1,0
			c-0.2-0.7-0.4-1.4-0.5-2.1c-0.2,0.4-0.4,0.8-0.7,1.2c-0.4,0.7-0.2,1.7,0.5,2.1c4.9,2.6,10,3.4,15.5,3.5c5.2,0.1,10.3-0.6,15.5-0.6
			c4.9,0,9.5-0.2,14.3-1.7c9.6-3,16.1-11.4,18.7-21C447.4,307.3,448.8,296,442.4,285.7c-1-1.6-3.6-0.1-2.6,1.5
			c6,9.6,4.5,20.1,1.6,30.5c-1.3,4.6-4.1,10.1-7.5,13.5c-4.2,4.2-9.8,5.9-15.6,6.7c-2.8,0.4-5.5,0.2-8.3,0.3
			c-4.7,0-9.5,0.8-14.2,0.6c-5-0.2-9.5-0.8-14-3.1c0.2,0.7,0.4,1.4,0.5,2.1c0.2-0.4,0.4-0.8,0.7-1.2c0.4-0.7,0.2-1.7-0.5-2.1
			c0,0-0.1,0-0.1,0c-0.7-0.4-1.6-0.2-2.1,0.5c-0.2,0.4-0.5,0.8-0.7,1.2c0.7-0.2,1.4-0.4,2.1-0.5c-3.1-1.6-6.2-5.1-7.7-8.3
			c-2-4.6-0.2-10.9,3-14.4c3.6-3.9,9.3-5.4,14.4-5.7c4.2-0.3,8.7-1,12.8-0.3c3.4,0.6,6.6,2.1,10,2.4c2.9,0.3,7.9-0.4,8.8-3.9
			c1.4-5-7.2-7.5-10.8-7.8c-2.5-0.2-5.6,0.3-8.2,0.9c-5.2,1.2-10.5,0.6-15.6-0.9c0.3,0.6,0.7,1.2,1,1.8c0.1-0.4,0.3-0.9,0.4-1.3
			c0.2-0.8-0.3-1.6-1-1.8c0,0,0,0-0.1,0c-0.8-0.2-1.6,0.3-1.8,1c-0.2,0.4-0.3,0.9-0.5,1.3c0.6-0.3,1.2-0.7,1.8-1
			c-2.9-0.8-5.6-2-7.8-4.1c-0.6-0.6-1.5-0.6-2.1,0c0,0,0,0,0,0c0.7,0,1.4,0,2.1,0c-0.3-0.3-0.6-0.6-0.9-0.9c0,0.7,0,1.4,0,2.1
			c0.3-0.3,0.7-0.7,1-1c0.6-0.6,0.6-1.5,0-2.1c0,0,0,0-0.1-0.1c-0.6-0.6-1.5-0.5-2.1,0c-0.4,0.3-0.7,0.6-1.1,0.9c0.7,0,1.4,0,2.1,0
			c-4.2-4.4-4.4-9.8-4.6-15.4c-0.4-10.2,2.6-19.6,8.8-27.8c6.4-8.4,17.4-13,27.8-13c7.5,0,19.9-1.2,25.2,5.7
			c0.5,0.7,1.2,0.9,2.1,0.5c0,0,0,0,0,0c-0.5-0.9-1-1.7-1.5-2.6c0,0,0,0,0,0c-0.7,0.5-0.9,1.2-0.5,2.1c0.3,0.6,1.1,0.8,1.6,1.2
			c0.5-0.8,1-1.7,1.5-2.5c0,0,0,0,0,0c-1.7-0.6-2.5,1.8-1.2,2.7c4.1,2.8,5.3,10.1,3.5,14.4c-2.5,5.9-7.7,8-13.7,8.1
			c-4.9,0.1-9.3-0.2-14.2-1c-4-0.7-8-1.4-12-0.4c-1.8,0.4-3.3,1.3-4.9,2.1c-0.4,0.2,1.2-0.9-0.1-0.1c-0.9,0.6-1.7,1-2.1,2.1
			c0,0.1-0.2,0.8-0.3,1.1c-0.8,2.4,0.9-1.3,0.2-0.2c-0.9,1.6-0.7,3.2,1.3,3.7c-0.4-0.5-0.7-1-1.1-1.4c0.1,1.7,1.5,2.3,3,2.6
			c1.1,0.2,1.8,0,2.8-0.2c0.3-0.1,1.5-0.9,0.2-0.5c1.2-0.3,2.9-0.2,4.1-0.3c13.1-0.7,28.4,0.9,34.5,14.1
			C440.6,288.9,443.2,287.4,442.4,285.7z"/>
	</g>
</g>
<g>
	<path class="st0" d="M682.5,258.9c0,0.3-0.1,0.6-0.1,1c-0.2,1-0.5,2-0.8,2.9c-0.1,0.3-0.3,0.6-0.4,0.8c0,0.3-0.1,0.6-0.1,0.9
		c-0.3,1.5-0.9,2.8-1.7,4c-0.3,0.5-0.7,1-1.1,1.4c-0.9,1.8-2.5,3.2-4.4,3.7c-0.6,0.2-1.1,0.3-1.7,0.4c-0.7,0.1-1.4,0-2,0
		c-0.3,0-0.6,0-0.9-0.1c-0.6,0.1-1.2,0.1-1.8,0.1c-1.3,0-2.6-0.1-3.9-0.3c-1.4-0.2-2.7-0.6-4-1c-1.6-0.5-3.2-1.3-4.6-2.2
		c-0.6-0.4-1.2-0.8-1.8-1.2c-0.4-0.3-0.7-0.6-1-0.9c-0.5-0.2-1.1-0.4-1.6-0.6c-0.9-0.2-1.8-0.4-2.7-0.5c-0.6,0-1.1,0.1-1.7,0.2
		c-0.5,0.1-0.9,0.3-1.3,0.5c-0.4,0.3-0.9,0.6-1.3,1c-0.5,0.6-1,1.2-1.5,1.9c-0.7,1.3-1.2,2.6-1.7,4c-0.3,1-0.5,2.1-0.6,3.1
		c0,0.1,0,0.2,0,0.3c0.4-0.1,0.9-0.1,1.4-0.2c1-0.3,2-0.6,3-0.8c1.7-0.3,3.5-0.4,5.3-0.3c0.1,0,0.1,0,0.2,0c0.2-0.1,0.4-0.2,0.7-0.3
		c2.6-1,6.2-1.1,8.7,0c0.6,0.2,1,0.4,1.5,0.7c0.6,0.3,1,0.7,1.5,1.2c0,0,0,0,0,0c0.5,0.1,1,0.2,1.5,0.3c0.3,0,0.6-0.1,0.9,0
		c0.7,0,1.3,0,2,0.1c0.6,0.1,1.3,0.3,1.8,0.4c0.9,0.2,1.7,0.6,2.5,1c0,0,0.1,0,0.1,0.1c0,0,0.1,0,0.1,0c1,0.2,1.9,0.4,2.7,0.8
		c0.6,0.3,1.3,0.5,1.8,0.9c0.6,0.3,1.1,0.8,1.6,1.2c0.7,0.6,1.2,1.3,1.6,2c0.2,0.2,0.3,0.5,0.4,0.8c0,0,0,0,0,0
		c0,0.1,0.1,0.2,0.1,0.2c0,0,0,0,0,0.1c0.3,0.4,0.5,0.8,0.6,1.2c0.2,0.7,0.4,1.4,0.4,2.1c0,0,0,0,0,0.1c0,0,0,0,0,0
		c0.1,1.1,0,2.2-0.3,3.3c-0.2,1.1-0.8,2.1-1.5,3.1c-0.5,0.6-1.1,1.2-1.8,1.8c-0.4,0.4-0.9,0.7-1.4,1.1c-0.7,0.5-1.6,0.9-2.4,1.3
		c-0.9,0.4-2,0.8-3,1.1c-1.6,0.5-3.3,0.7-5,0.9c-0.7,0.1-1.4,0.1-2.1,0.1c-1.2,0-2.3-0.1-3.5-0.2c-1.1-0.1-2.2-0.3-3.3-0.6
		c-1.3,0-2.7-0.1-3.9-0.4c-0.2,0-0.4,0-0.6,0c-0.5,0-1.1,0-1.6,0c-1.3,0-2.7,0-4-0.1c-0.2,0-0.4,0-0.6-0.1c1.4,1.1,2.9,2.2,4.4,3.2
		c1.9,1.1,4,2,6.1,2.7c0.7,0.2,1.3,0.3,2,0.4c1.5,0.2,3.1,0.2,4.6,0.2c1.7,0,3.3,0,5,0.2c2.1,0.1,4,0.5,6,1.1
		c1.8,0.5,3.4,1.4,4.9,2.5c0.8,0.6,1.6,1.5,2.3,2.2c0.8,0.9,1.4,2.1,1.9,3.2c0.5,1,0.7,2.1,1,3.2c0.1,0.6,0.2,1.2,0.2,1.8
		c0,0.9,0,1.8-0.2,2.7c-0.2,1-0.5,2.1-0.8,3.1c-0.4,1.4-1.1,2.7-1.8,4c-0.9,1.6-1.9,3.2-3.1,4.7c0,0,0,0,0,0c0,0,0,0,0,0.1
		c-0.2,0.5-0.6,1-0.9,1.5c-0.4,0.5-0.9,1-1.4,1.4c-0.3,0.3-0.6,0.5-0.9,0.7c-0.2,0.1-0.4,0.2-0.6,0.4c-0.8,0.7-1.7,1.4-2.6,1.9
		c-1.2,0.7-2.4,1.3-3.7,1.7c-1.4,0.5-2.8,0.8-4.2,0.9c-2.7,0.3-5.5,0.1-8.1-0.3c-2.9-0.5-5.8-1.4-8.5-2.5c-2.7-1.1-5.3-2.3-7.9-3.7
		c-0.9-0.5-1.8-1.1-2.7-1.6c-0.2,0-0.3,0.1-0.5,0.1c-0.6,0.1-1.3,0-2,0c-0.4,0-0.7-0.1-1.1-0.2c-0.2-0.1-0.5-0.1-0.7-0.2
		c-1.1-0.1-2.1-0.2-3.2-0.5c-1.3-0.3-2.6-0.8-3.8-1.4c-1.3-0.6-2.5-1.5-3.7-2.3c-2.1-1.7-3.9-3.8-5.5-6c-1.7-2.4-3.1-5.1-4.2-7.8
		c-1.1-2.7-2.1-5.4-2.9-8.2c-1.2-4.2-2.1-8.5-2.5-12.8c-0.5-1.9-0.8-3.9-1-5.9c-0.3-2.3-0.3-4.6-0.2-7c0.2-4.2,1.1-8.2,2.3-12.2
		c0.8-2.7,1.9-5.3,3.2-7.8c1-1.9,2.1-3.7,3.4-5.4c0-0.2,0.1-0.3,0.2-0.5c0.1-0.2,0.2-0.4,0.4-0.6l0,0c0,0,0,0,0-0.1
		c0.8-1.3,1.6-2.5,2.5-3.7c0.1-0.1,0.2-0.2,0.2-0.3c0.8-1,1.6-2,2.5-2.9c0.1-0.1,0.1-0.2,0.2-0.3c0.4-0.7,0.8-1.4,1.3-2.1
		c0,0,0,0,0,0c0.6-0.7,1.3-1.3,1.9-2c1.1-1,2.5-1.7,3.8-2.4c0.6-0.3,1.2-0.5,1.9-0.8c0,0,0,0,0,0c1-0.6,2-1.1,3.1-1.6
		c0.5-0.2,0.9-0.5,1.3-0.8c2.5-1.3,5.1-2.4,7.8-3.2c2-0.6,4.1-1.1,6.2-1.4c0.1-0.1,0.3-0.2,0.4-0.2c0.2-0.1,0.4-0.1,0.7-0.2
		c0,0,0,0,0,0c0,0,0.1,0,0.1,0c1.4-0.3,2.9-0.6,4.4-0.8c0.1,0,0.3,0,0.4,0c1.3-0.1,2.5-0.2,3.8-0.2c0.1,0,0.2-0.1,0.3-0.1
		c0.8-0.2,1.6-0.4,2.4-0.5c0,0,0,0,0.1,0c0.9-0.1,1.9,0,2.8,0c1.5,0.1,3,0.5,4.4,1c0.6,0.2,1.3,0.5,1.9,0.8c0,0,0,0,0,0
		c3.5,0.9,6.8,2.3,9.7,4.6c0.7,0.6,1.3,1.2,1.9,1.9c0.5,0.6,1,1.2,1.4,1.8c0.5,0.8,1,1.7,1.3,2.6c0.4,0.9,0.6,1.9,0.8,2.9
		c0.1,0.8,0.2,1.5,0.2,2.3c0,1-0.1,2.1-0.3,3.1C683.2,256.6,682.9,257.7,682.5,258.9z"/>
	<g>
		<path class="st1" d="M681,258.9c-0.2,1.9-1.3,5.7-2.2,7.5c-1.8,3.9-5.1,5.9-9.2,6c-3.1,0.1-6.1,0-9.1-1c-3.2-1-4.9-2.8-7.7-4.4
			c-8.3-4.7-13.6,3.5-14.6,10.7c-0.2,1.2,0.6,2,1.8,1.8c3.4-0.5,6.8-1,10.2-1.4c3-0.3,5.1-1.4,8.2-0.1c1,0.4,1.8,1.3,2.7,1.7
			c2.8,1.1,5.9,0.8,8.8,1.9c2.9,1.1,5.6,1.5,7.4,4.3c5.3,8.3-5.5,14-12.6,14.6c-3.4,0.3-6.8-0.3-10.2-0.7c-3.1-0.3-6.2-0.1-9.4-0.5
			c-1.2-0.1-2.1,1.8-1.1,2.6c5.7,4.4,10.9,6.7,18.1,6.9c8.8,0.2,20.5,2.3,19.7,13.9c-0.5,7.2-6.3,15.2-12.7,18.5
			c-8.7,4.5-19.4,0.8-27.4-3.3c-2.7-1.4-4.4-2.7-7.2-2.9c-3.6-0.2-7.2-0.9-10.3-2.7c-8.2-4.8-12.2-15-14.5-23.7
			c-2.2-8.2-4.1-17.5-3.3-26.1c0.8-8.9,4.5-16.4,9-23.9c0.4-0.7,0.2-1.7-0.5-2.1c0,0,0,0,0,0c0.2,0.7,0.4,1.4,0.5,2.1
			c3.5-5.7,7.5-10.8,13.5-13.8c6.5-3.2,12.5-5.6,19.5-7.3c0.6-0.2,1.1-0.8,1.1-1.4c0,0,0,0,0,0c-0.4,0.5-0.7,1-1.1,1.4
			c6.6-1.5,13.2-2.3,19.6,0.1c4.1,1.5,8,2.6,11,6.1c3.7,4.3,3.6,9.6,2,14.7c-0.6,1.8,2.3,2.6,2.9,0.8c3.2-10.1-0.8-18.9-10.6-23
			c-4.2-1.7-9.2-3.8-13.8-3.3c-3.9,0.4-8,0.9-11.8,1.8c-0.6,0.1-1.1,0.8-1.1,1.4c0,0,0,0,0,0c0.4-0.5,0.7-1,1.1-1.4
			c-7.8,1.9-14.5,4.8-21.8,8.3c-5.7,2.7-9.9,9-13.1,14.3c-0.4,0.7-0.2,1.7,0.5,2.1c0,0,0,0,0,0c-0.2-0.7-0.4-1.4-0.5-2.1
			c-3.8,6.4-7,12.4-8.6,19.8c-1.6,7.7-0.7,14.9,0.5,22.5c2.2,13.4,7,32,21.5,37.1c2.7,1,5.5,1.1,8.3,1.5c3.1,0.5,5.8,2.6,8.9,4
			c6.5,2.9,13.8,5,20.9,3.9c11-1.8,20.9-13.2,20.6-24.5c-0.2-6.8-5-12.2-11.3-14.2c-3.7-1.2-7.6-1.2-11.4-1.3c-6.3-0.1-11-2.1-16-6
			c-0.4,0.9-0.7,1.7-1.1,2.6c4.6,0.5,9.3,0.6,14,1.1c4.8,0.5,9.9,0,14.3-2c6.4-2.9,10-9.6,6.9-15.9c-1.4-2.9-3.5-4.7-6.5-5.8
			c-1.6-0.6-2.6-1-4.1-1.5c-2.2-0.7-4.9-0.2-6.9-0.9c-1.2-0.4-2.4-1.8-3.6-2.3c-2.1-0.8-4.3-1-6.5-0.7c-4.5,0.5-9,1.6-13.6,2.2
			c0.6,0.6,1.2,1.2,1.8,1.8c0.5-3.6,1.8-9.5,6.7-9.8c2.7-0.2,4.9,2.2,7.1,3.4c4.8,2.8,9.8,3.2,15.2,3.2c8.9,0,13-8.7,13.9-16.6
			C684.2,257,681.2,257,681,258.9z"/>
	</g>
</g>
<g>
	<g>
		<path class="st0" d="M224.4,56.7c-0.7,2.7-0.7,5.4-0.1,8c0,0,0,0.1,0,0.1c-0.4,3.5,2.2,6.9,5.5,8c0.9,0.6,1.8,1.2,2.7,1.7
			c0.2,0.2,0.3,0.4,0.5,0.6c0.9,0.9,2,1.8,3.1,2.4c1.9,1.1,3.5,1.5,5.7,1.9c0.7,0.1,1.5,0.2,2.2,0.2c1.8,0,3.6-0.4,5.3-0.9
			c0.9-0.3,1.7-0.6,2.6-1c1.4-0.1,2.8-0.3,4.2-0.6c4.7-0.8,9.2-2.7,12.9-5.6c1.2-0.9,2.1-2,2.9-3.3c0.8-0.9,1.6-1.9,2.1-3
			c1.1-2.2,1.6-3.5,1.9-5.8c0.9-2.1,1.5-4.4,1.7-6.7c0.2-1.8-0.1-3.7-0.5-5.4c-0.4-1.8-1.2-3.6-2.2-5.2c-0.8-1.1-1.5-2.2-2.4-3.2
			c-0.9-1-2.1-2-3.1-2.8c-2-1.7-4.4-2.8-6.8-4c-2.5-1.2-5.2-2-7.9-2.2c-1-0.1-1.9-0.1-2.9-0.1c-2.3-0.4-4.9,0-7.1,0.7
			c-2.5,0.8-4.6,2-6.4,3.6c-0.4,0.2-0.7,0.4-1.1,0.5c-2.8,1.5-4.7,3.4-6.7,5.8c-0.4,0.5-0.8,1-1.1,1.5c-0.2,0.1-0.3,0.1-0.5,0.2
			c-2.3,1.1-4.2,3.5-5,5.8c-0.9,2.6-0.6,5.5,0.6,7.9C224.5,56.2,224.5,56.5,224.4,56.7z"/>
		<g>
			<path class="st1" d="M223,56.4c-0.9,4.3-1.1,10.6,1.6,14.3c1.5,2.1,3.7,3,5.8,4.4c2.3,1.6,4.1,3.6,6.7,4.7
				c6.2,2.6,11.1,0.4,17.3-0.7c6.1-1.1,12.2-2.8,16.7-7.3c4.3-4.3,6.3-10.1,7.5-15.8c1.3-6-0.3-11.7-4-16.5
				c-6.8-8.8-21.2-13.8-31.7-9.6c-3.1,1.2-6.3,3.4-8.9,5.4c-2.4,1.8-4,4.4-6.3,6.2c-1.9,1.6-3.6,2.8-4.6,5.2c-0.6,1.3-0.9,2.6-1,4
				C221.9,51.8,223.3,55.3,223,56.4c-0.5,1.9,2.4,2.7,2.9,0.8c0.8-2.9-1.5-5.3-0.4-8.6c0.9-2.8,3-3.7,5-5.4c2.7-2.3,4.4-5.1,7.5-7.1
				c2.3-1.5,4.5-3.2,7.1-4c12.8-4,31.7,5.9,30.9,20.5c-0.4,6.4-3.2,13.6-8.1,17.8c-5.1,4.4-11.1,4.5-17.1,6.2
				c-7.3,2.2-11.4,1.6-17.4-3.2c-2.6-2.1-6.4-2.6-7.4-6.3c-0.8-3-0.8-7-0.1-9.9C226.3,55.3,223.4,54.5,223,56.4z"/>
		</g>
	</g>
	<g>
		<g>
			<path class="st0" d="M229.1,148.1c0,0.1,0,0.1,0,0.2c-0.5,2.2-0.4,4.4,0,6.6c0.4,2.7,1.4,5.3,2.6,7.7c1.3,2.7,3.1,5.1,5.1,7.4
				c0.9,1.1,1.9,2.2,3,3.2c1.2,1.1,2.5,2.1,3.9,3c2.2,1.5,4.7,2.4,7.3,3c2.1,0.5,4.4,0.6,6.6,0.4c1.1-0.1,2.1-0.3,3.2-0.5
				c1.1-0.3,2.1-0.7,3.1-1.2c1.7-0.8,3.3-1.9,4.7-3.1c1.4-1.3,2.7-2.8,3.7-4.4c1-1.5,1.9-3.2,2.6-4.8c0.8-1.8,1.5-3.7,2-5.6
				c-0.2-1.7-0.4-3.4-0.6-5.2c-0.2-1.8-0.4-3.7-0.6-5.5c0-5.1-0.3-10.2-0.9-15.2c0-0.5,0.1-1,0.1-1.5c0.4-5.5,1.2-11.1,1-16.6
				c-0.1-2.7-0.5-5.4-1.3-8c-0.9-2.6-2.2-4.9-4.1-6.9c-0.9-1-2-1.8-3.2-2.5c-1.3-0.8-2.7-1.5-4.2-2c-2.7-1.1-5.7-1.6-8.6-1.8
				c-0.2,0-0.4,0-0.7,0c-0.9,0-1.7,0.1-2.5,0.2c0,0,0,0,0,0c-0.7-0.2-1.4-0.3-2.2-0.3c0,0-0.1,0-0.1,0c-0.7,0-1.4,0.1-2,0.2
				c-0.4,0.1-0.9,0.2-1.3,0.3c-0.5,0.1-0.9,0.3-1.4,0.5c-0.9,0.4-1.8,0.7-2.6,1.2c-1,0.5-2,1.2-2.9,1.9c-1.3,1-2.6,2-3.8,3.3
				c-1.1,1.1-2,2.3-2.9,3.5c-0.9,1.2-1.5,2.5-2.1,3.9c-0.4,1-0.6,1.9-0.8,2.9c-0.3,1.5-0.4,3-0.5,4.6c-0.2,2.7-0.2,5.5-0.1,8.2
				c0.2,2.3,0.5,4.6,0.8,6.9c-0.3,3.3-0.6,6.6-0.7,9.9c-0.1,1.4-0.1,2.8-0.2,4.1c0,0.2,0.1,0.5,0.1,0.7
				C228.5,147.3,228.7,147.7,229.1,148.1z"/>
			<g>
				<path class="st1" d="M227.6,147.7c-3.2,14.2,10.6,31.2,24.4,33.3c7.3,1.1,14.6-1.5,19.4-7.2c2.3-2.7,4-5.9,5.3-9.2
					c1.7-4.2,1.2-7.1,0.7-11.6c-0.6-5-0.5-10.1-0.9-15.1c-0.5-5.5,0.4-10.8,0.7-16.3c0.4-7.7-0.3-16.3-6.3-21.9
					c-9.4-8.8-25.8-8.5-35.3-0.4c-7,6-8.8,13.7-8.8,22.6c0,5.1,0.9,10,0.5,15.1c-0.3,3.8-1.4,8.4,0.5,11.8c0.9,1.7,3.5,0.2,2.6-1.5
					c-1.9-3.4-0.1-10,0.2-13.6c0.2-3.9-0.7-7.8-0.8-11.8c-0.1-9.5,2.6-17.6,11-22.8c5.6-3.5,13.9-3.5,20.1-1.6
					c10.4,3.3,13.6,12.1,13.4,22.2c-0.1,4.3-0.9,8.6-1,12.9c-0.1,4.3,0.6,8.6,0.7,12.9c0.1,4.6,1.4,9.6,1,14.1
					c-0.4,4.6-3.3,9.8-6.6,13.1c-7.2,7.3-18.7,6.9-26.4,0.5c-6.7-5.5-13.5-15.7-11.4-24.8C230.9,146.6,228,145.8,227.6,147.7z"/>
			</g>
		</g>
	</g>
</g>
<g>
	<g>
		<path class="st0" d="M451.1,146c0.5-0.1,1-0.3,1.5-0.5c0.6,0,1.2-0.1,1.8-0.3c0.1,0,0.2,0,0.2,0c0.2,0,0.5,0,0.7,0
			c0.6,0,1.2,0,1.8-0.1c0.2,0,0.3-0.1,0.5-0.1c0,0,0,0,0,0c0.4,0.1,0.7,0,1.1-0.1c0.3-0.1,0.7-0.2,1-0.4c0.2-0.1,0.4-0.3,0.6-0.4
			c0.1-0.1,0.1-0.1,0.2-0.2c0.2,0,0.4,0,0.5,0c0.3-0.1,0.7-0.2,1-0.4c0.4-0.2,0.7-0.5,1-0.8c0.2-0.2,0.4-0.5,0.6-0.7
			c0.3-0.4,0.6-0.9,0.8-1.4c0.3-0.5,0.5-1.1,0.7-1.7c0.2-0.5,0.4-1,0.5-1.6c0.1-0.6,0.2-1.2,0.2-1.9c0-0.6,0-1.2-0.1-1.8
			c-0.1-0.6-0.2-1.2-0.4-1.7c-0.2-0.6-0.4-1.2-0.7-1.7c-0.2-0.3-0.4-0.7-0.6-1c-0.1-0.3-0.3-0.6-0.5-0.9c-0.2-0.2-0.3-0.4-0.5-0.6
			c-0.3-0.7-0.7-1.3-1-2c-0.6-0.9-1.3-1.7-2.1-2.2c-0.3-0.2-0.5-0.3-0.8-0.4c-0.3-0.1-0.5-0.1-0.8-0.2c-0.2,0-0.5,0-0.8,0
			c-0.3,0-0.6,0.1-0.8,0.2c-0.3-0.7-0.7-1.2-1.2-1.6c-1.2-1-2.8-1.1-3.9-0.1c-0.3,0.2-0.5,0.4-0.7,0.7c-0.3,0.3-0.5,0.7-0.7,1.1
			c0,0,0,0,0,0c-0.2,0.1-0.5,0.2-0.7,0.3c-0.1,0-0.3-0.1-0.4-0.1c-0.3,0-0.6,0-0.9,0.1c-0.3,0.1-0.6,0.2-0.8,0.4
			c-0.4,0.2-0.8,0.6-1.1,0.9c0,0,0,0-0.1,0.1c0,0,0,0,0,0c-0.4,0.2-0.9,0.4-1.2,0.7c-0.3,0.3-0.6,0.5-0.8,0.8
			c-0.3,0.3-0.5,0.7-0.8,1.1c-0.3,0.5-0.6,1.2-0.8,1.9c-0.1,0.2-0.1,0.5-0.2,0.7c0,0,0,0,0,0c0,0.1,0,0.1-0.1,0.2c0,0,0,0,0,0.1
			c-0.1,0.4-0.2,0.8-0.3,1.2c-0.1,0.7-0.2,1.3-0.2,2c0,0,0,0,0,0.1c0,0,0,0,0,0c-0.1,1,0,2.1,0,3.1c0.1,1,0.3,2,0.6,2.9
			c0.2,0.6,0.5,1.2,0.7,1.7c0.2,0.4,0.4,0.7,0.6,1c0.3,0.5,0.7,0.9,1,1.3c0.4,0.4,0.9,0.7,1.3,1.1c0.7,0.5,1.4,0.7,2.2,0.9
			c0.3,0.1,0.6,0.1,0.9,0.1C450,146.2,450.6,146.1,451.1,146L451.1,146L451.1,146z"/>
		<g>
			<path class="st1" d="M451.5,147.5c3.8-1.2,6.1-0.5,9.6-1.9c0,0,1.1-0.3,2-0.8c1.7-1.1,2.7-3,3.4-4.8c2.3-5.8-1.7-19.9-10-18
				c0.6,0.2,1.1,0.5,1.7,0.7c-1-1.9-2.8-3.4-5.1-3.1c-2.4,0.3-2.4,2.3-4,3.2c1.5-0.8-0.6-0.5-1.1-0.3c-1.2,0.3-1.7,1.1-2.6,1.7
				c-1,0.7-2.8,2.1-3.7,4.1c-3.2,7.4-0.8,20.3,9.3,19.4c1.9-0.2,1.9-3.2,0-3c-7.6,0.6-8.7-8.6-7-14.1c0.9-2.8,3-4.2,5.5-5.3
				c1.2-0.5,5.3-2.4,6.1-1.1c0.3,0.6,1.1,0.8,1.7,0.7c2.4-0.6,5.3,4.3,6.2,6.3c1.9,4.1,0.9,9.2-3,11.5c-2.9,1.7-6.6,1-9.8,2
				C448.9,145.2,449.6,148.1,451.5,147.5z"/>
		</g>
	</g>
</g>
<g>
	<path class="st0" d="M524.5,81.1c0.1,1.2,0.2,2.3,0.4,3.5c-0.1,3.6,0,7.2,0.2,10.9c0.4,9.1,1.4,18.1,2.4,27.1
		c0.2,1.8,0.4,3.7,0.6,5.5c0,5.1,0.3,10.2,0.9,15.2c0,0.5-0.1,1-0.1,1.5c-0.4,5.5-1.2,11.1-1,16.6c0.1,2.7,0.5,5.4,1.3,8
		c0.9,2.6,2.2,4.9,4.1,6.9c0.9,1,2,1.8,3.2,2.5c1.3,0.8,2.7,1.5,4.2,2c2.7,1.1,5.7,1.6,8.6,1.7c0.2,0,0.4,0,0.7,0
		c0.9,0,1.7-0.1,2.5-0.2c0,0,0,0,0,0c0.7,0.2,1.4,0.3,2.2,0.3c0,0,0.1,0,0.1,0c0.7,0,1.4-0.1,2-0.2c0.4-0.1,0.9-0.2,1.3-0.3
		c0.5-0.1,0.9-0.3,1.4-0.5c0.9-0.4,1.8-0.7,2.6-1.2c1-0.5,2-1.2,2.9-1.9c1.3-1,2.6-2.1,3.8-3.3c1.1-1.1,2-2.3,2.9-3.5
		c0.9-1.2,1.5-2.5,2.1-3.9c0.4-1,0.6-1.9,0.8-2.9c0.3-1.5,0.4-3,0.5-4.6c0.2-2.7,0.2-5.5,0.1-8.2c-0.2-2.3-0.5-4.6-0.8-6.9
		c0.3-3.3,0.6-6.6,0.7-9.9c0.1-1.9,0.2-3.8,0.2-5.6c0.2-2.7,0.3-5.5,0.3-8.2c0.1-0.4,0.1-0.9,0.2-1.3c0.9-5.6,1.3-11.3,1.5-16.9
		c0.4-10.9-0.4-21.9-2.2-32.7c-0.1-0.5-0.4-0.9-0.7-1.3c0-0.1,0-0.1,0-0.2c0.5-2.2,0.4-4.4,0-6.6c-0.4-2.7-1.4-5.3-2.6-7.7
		c-1.3-2.7-3.1-5.1-5.1-7.4c-0.9-1.1-1.9-2.2-3-3.2c-1.2-1.1-2.5-2.1-3.9-3c-2.2-1.5-4.7-2.4-7.3-2.9c-2.1-0.5-4.4-0.6-6.6-0.4
		c-1.1,0.1-2.1,0.3-3.2,0.5c-1.1,0.3-2.1,0.7-3.1,1.2c-1.7,0.8-3.3,1.9-4.7,3.1c-1.4,1.3-2.7,2.8-3.7,4.4c-1,1.5-1.9,3.2-2.6,4.8
		c-0.8,1.9-1.6,3.9-2.1,5.9c-1.1,4-1.7,8.1-2.1,12.2C524.3,73.7,524.2,77.4,524.5,81.1z"/>
	<g>
		<path class="st1" d="M523,81.1c0.6,6.7,0.4,13.4,0.9,20.1c0.5,7.7,1.4,15.4,2.3,23.1c0.7,6.6,1.4,13.8,1.2,20.4
			c-0.2,6.7-1.6,13.3-0.7,20.1c2.8,20.4,30.1,25.4,43.2,11.6c8-8.3,7-18.6,6.3-29.4c-0.5-6.2,0.6-12.7,0.8-19
			c0.3-7.1,1.4-14,1.8-21.1c0.4-7,0.3-14.1-0.2-21.1c-0.2-3.2-0.6-6.4-1-9.6c-0.2-1.4-0.3-2.8-0.6-4.2c0.1,0.4-1-2.6-1-2.5
			c-0.2-2.4,0.5-4.9,0-7.4c-0.4-2.3-1.1-4.5-2-6.6c-2.5-5.5-6.7-10.9-11.5-14.5c-8.8-6.6-21.5-6.5-29.3,1.5
			C523.9,52.2,522.3,68.5,523,81.1c0.1,1.9,3.1,1.9,3,0c-0.6-11,0.5-23.9,6.8-33.3c7.2-10.9,21.6-10.8,30.6-2c3.9,3.8,7.4,8.7,9,14
			c1,3.2,0.5,5.8,0.7,9.1c0.1,1.4,0.7,2.6,1,4.1c2.7,11.4,2.4,24.4,1.6,36c-0.3,5-1.4,10-1.5,15c-0.2,5.5-0.4,10.9-0.8,16.4
			c-0.7,9.7,3.1,21.2-2.5,30.1c-2.9,4.6-7.8,8.8-13.1,10.3c-2.5,0.7-5.9,0.4-8.4,0.3c-5.7-0.2-12-2.4-15.7-7
			c-4.2-5.1-4.4-11.9-4.1-18.2c0.3-6.2,1-12,0.5-18.2c-0.5-6.3-0.7-12.6-1.4-18.9c-1.4-12.5-1.4-25.1-2.6-37.6
			C525.8,79.2,522.8,79.2,523,81.1z"/>
	</g>
</g>
<g>
	<path class="st0" d="M665.7,136.3c-0.1-1.2-0.2-2.3-0.4-3.5c0.1-3.6,0-7.2-0.2-10.9c-0.4-9.1-1.4-18.1-2.4-27.1
		c-0.2-1.8-0.4-3.7-0.6-5.5c0-5.1-0.3-10.2-0.9-15.2c0-0.5,0.1-1,0.1-1.5c0.4-5.5,1.2-11.1,1-16.6c-0.1-2.7-0.5-5.4-1.3-8
		c-0.9-2.6-2.2-4.9-4.1-6.9c-0.9-1-2-1.8-3.2-2.5c-1.3-0.8-2.7-1.5-4.2-2c-2.7-1.1-5.7-1.6-8.6-1.7c-0.2,0-0.4,0-0.7,0
		c-0.9,0-1.7,0.1-2.5,0.2c0,0,0,0,0,0c-0.7-0.2-1.4-0.3-2.2-0.3c0,0-0.1,0-0.1,0c-0.7,0-1.4,0.1-2,0.2c-0.4,0.1-0.9,0.2-1.3,0.3
		c-0.5,0.1-0.9,0.3-1.4,0.5c-0.9,0.4-1.8,0.7-2.6,1.2c-1,0.5-2,1.2-2.9,1.9c-1.3,1-2.6,2.1-3.8,3.3c-1.1,1.1-2,2.3-2.9,3.5
		c-0.9,1.2-1.5,2.5-2.1,3.9c-0.4,1-0.6,1.9-0.8,2.9c-0.3,1.5-0.4,3-0.5,4.6c-0.2,2.7-0.2,5.5-0.1,8.2c0.2,2.3,0.5,4.6,0.8,6.9
		c-0.3,3.3-0.6,6.6-0.7,9.9c-0.1,1.9-0.2,3.8-0.2,5.6c-0.2,2.7-0.3,5.5-0.3,8.2c-0.1,0.4-0.1,0.9-0.2,1.3
		c-0.9,5.6-1.3,11.3-1.5,16.9c-0.4,10.9,0.4,21.9,2.2,32.7c0.1,0.5,0.4,0.9,0.7,1.3c0,0.1,0,0.1,0,0.2c-0.5,2.2-0.4,4.4,0,6.6
		c0.4,2.7,1.4,5.3,2.6,7.7c1.3,2.7,3.1,5.1,5.1,7.4c0.9,1.1,1.9,2.2,3,3.2c1.2,1.1,2.5,2.1,3.9,3c2.2,1.5,4.7,2.4,7.3,2.9
		c2.1,0.5,4.4,0.6,6.6,0.4c1.1-0.1,2.1-0.3,3.2-0.5c1.1-0.3,2.1-0.7,3.1-1.2c1.7-0.8,3.3-1.9,4.7-3.1c1.4-1.3,2.7-2.8,3.7-4.4
		c1-1.5,1.9-3.2,2.6-4.8c0.8-1.9,1.6-3.9,2.1-5.9c1.1-4,1.7-8.1,2.1-12.2C665.9,143.7,666,140,665.7,136.3z"/>
	<g>
		<path class="st1" d="M667.2,136.3c-0.6-6.7-0.4-13.4-0.9-20.1c-0.5-7.7-1.4-15.4-2.3-23.1c-0.7-6.6-1.4-13.8-1.2-20.4
			c0.2-6.7,1.6-13.3,0.7-20.1c-2.8-20.4-30.1-25.4-43.2-11.6c-8,8.3-7,18.6-6.3,29.4c0.5,6.2-0.6,12.7-0.8,19
			c-0.3,7.1-1.4,14-1.8,21.1c-0.4,7-0.3,14.1,0.2,21.1c0.2,3.2,0.6,6.4,1,9.6c0.2,1.4,0.3,2.8,0.6,4.2c-0.1-0.4,1,2.6,1,2.5
			c0.2,2.4-0.5,4.9,0,7.4c0.4,2.3,1.1,4.5,2,6.6c2.5,5.5,6.7,10.9,11.5,14.5c8.8,6.6,21.5,6.5,29.3-1.5
			C666.3,165.2,667.9,148.9,667.2,136.3c-0.1-1.9-3.1-1.9-3,0c0.6,11-0.5,23.9-6.8,33.3c-7.2,10.9-21.6,10.8-30.6,2
			c-3.9-3.8-7.4-8.7-9-14c-1-3.2-0.5-5.8-0.7-9.1c-0.1-1.4-0.7-2.6-1-4.1c-2.7-11.4-2.4-24.4-1.6-36c0.3-5,1.4-10,1.5-15
			c0.2-5.5,0.4-10.9,0.8-16.4c0.7-9.7-3.1-21.2,2.5-30.1c2.9-4.6,7.8-8.8,13.1-10.3c2.5-0.7,5.9-0.4,8.4-0.3c5.7,0.2,12,2.4,15.7,7
			c4.2,5.1,4.4,11.9,4.1,18.2c-0.3,6.2-1,12-0.5,18.2c0.5,6.3,0.7,12.6,1.4,18.9c1.4,12.5,1.4,25.1,2.6,37.6
			C664.4,138.2,667.4,138.2,667.2,136.3z"/>
	</g>
</g>
<g>
	<g>
		<path class="st0" d="M764.7,135.8c-0.4,0.1-0.7,0.2-1.1,0.4c-0.4,0-0.9,0.1-1.3,0.2c-0.1,0-0.1,0-0.2,0c-0.2,0-0.4,0-0.5,0
			c-0.4,0-0.9,0-1.3,0.1c-0.1,0-0.2,0-0.4,0.1c0,0,0,0,0,0c-0.3-0.1-0.5,0-0.8,0c-0.2,0-0.5,0.2-0.7,0.3c-0.1,0.1-0.3,0.2-0.4,0.3
			c0,0-0.1,0.1-0.1,0.1c-0.1,0-0.3,0-0.4,0c-0.3,0-0.5,0.2-0.7,0.3c-0.3,0.1-0.5,0.4-0.8,0.6c-0.2,0.1-0.3,0.3-0.4,0.5
			c-0.2,0.3-0.4,0.6-0.6,1c-0.2,0.4-0.4,0.8-0.5,1.2c-0.1,0.4-0.3,0.7-0.3,1.2c-0.1,0.4-0.2,0.9-0.2,1.3c0,0.4,0,0.9,0.1,1.3
			c0,0.4,0.2,0.8,0.3,1.2c0.1,0.4,0.3,0.8,0.5,1.2c0.1,0.2,0.3,0.5,0.4,0.7c0.1,0.2,0.2,0.4,0.4,0.6c0.1,0.2,0.2,0.3,0.4,0.4
			c0.2,0.5,0.5,1,0.7,1.4c0.4,0.7,0.9,1.2,1.5,1.6c0.2,0.1,0.4,0.2,0.6,0.3c0.2,0.1,0.4,0.1,0.5,0.1c0.2,0,0.4,0,0.5,0
			c0.2,0,0.4-0.1,0.6-0.1c0.2,0.5,0.5,0.9,0.8,1.2c0.8,0.7,2,0.8,2.8,0.1c0.2-0.2,0.3-0.3,0.5-0.5c0.2-0.2,0.3-0.5,0.5-0.8
			c0,0,0,0,0,0c0.2-0.1,0.3-0.1,0.5-0.2c0.1,0,0.2,0,0.3,0c0.2,0,0.4,0,0.6-0.1c0.2-0.1,0.4-0.2,0.6-0.3c0.3-0.1,0.6-0.4,0.8-0.7
			c0,0,0,0,0,0c0,0,0,0,0,0c0.3-0.1,0.6-0.3,0.9-0.5c0.2-0.2,0.4-0.4,0.6-0.6c0.2-0.2,0.4-0.5,0.6-0.8c0.2-0.4,0.4-0.9,0.6-1.3
			c0.1-0.2,0.1-0.4,0.1-0.5c0,0,0,0,0,0c0-0.1,0-0.1,0-0.2c0,0,0,0,0,0c0.1-0.3,0.2-0.5,0.2-0.8c0.1-0.5,0.2-0.9,0.2-1.4
			c0,0,0,0,0,0c0,0,0,0,0,0c0.1-0.7,0-1.5,0-2.2c-0.1-0.7-0.2-1.5-0.4-2.1c-0.1-0.4-0.3-0.8-0.5-1.2c-0.1-0.3-0.3-0.5-0.4-0.8
			c-0.2-0.3-0.5-0.6-0.7-0.9c-0.3-0.3-0.6-0.5-1-0.8c-0.5-0.3-1-0.5-1.6-0.6c-0.2-0.1-0.4-0.1-0.7-0.1
			C765.5,135.7,765.1,135.7,764.7,135.8L764.7,135.8L764.7,135.8z"/>
		<g>
			<path class="st1" d="M764.3,134.4c-1.2,0.4-3.6,0.6-4.2,0.6c-0.4,0-1.9,0.4-2.8,0.8c-1.2,0.5,1-0.6-0.2,0
				c-0.6,0.3-0.9,0.3-1.4,0.7c-1.3,0.9-2,2.2-2.6,3.7c-1.7,4.5,1.4,14.9,7.7,13.5c-0.6-0.2-1.1-0.5-1.7-0.7c1.8,3.3,5.4,3,7.3,0
				c-1.1,0.4-1.2,0.5-0.5,0.6c0.3,0,0.7-0.1,1-0.1c0.9-0.2,1.4-0.8,2.1-1.3c0.5-0.3,2.1-1.6,2.8-3.1c2.4-5.6,0.5-15.2-7.1-14.6
				c-1.9,0.2-1.9,3.2,0,3c4.9-0.4,6,6,4.6,9.6c-0.6,1.6-1.9,2.8-3.5,3.5c-0.6,0.2-3.7,1.7-4.1,1c-0.3-0.6-1.1-0.8-1.7-0.7
				c-1.4,0.3-3.4-3.1-4-4.3c-1.1-2.6-0.7-6.1,1.8-7.6c2-1.3,4.9-0.7,7.2-1.5C767,136.7,766.2,133.8,764.3,134.4z"/>
		</g>
	</g>
</g>
<g>
	<path class="st0" d="M801.1,323.9c-0.2-1.2-0.6-2.4-1-3.5c0-0.3-0.1-0.6-0.1-1c-0.2-1-0.5-2-0.8-2.9c-0.1-0.3-0.2-0.6-0.4-0.8
		c0-0.3-0.1-0.6-0.1-0.9c-0.3-1.5-0.9-2.8-1.7-4c-0.3-0.5-0.7-1-1.1-1.4c-0.9-1.8-2.5-3.2-4.4-3.7c-0.6-0.2-1.1-0.3-1.7-0.4
		c-0.7-0.1-1.4,0-2.1,0c-0.3,0-0.6,0-0.9,0.1c-0.6-0.1-1.2-0.1-1.8-0.1c-1.3,0-2.6,0.1-3.9,0.3c-1.4,0.2-2.7,0.6-4,1
		c-1.6,0.5-3.1,1.3-4.6,2.2c-0.6,0.4-1.2,0.8-1.8,1.2c-0.4,0.3-0.7,0.6-1,0.9c-0.5,0.2-1.1,0.4-1.6,0.6c-0.9,0.2-1.8,0.4-2.7,0.5
		c-0.6,0-1.1-0.1-1.7-0.2c-0.5-0.1-0.9-0.3-1.3-0.5c-0.4-0.3-0.9-0.6-1.3-1c-0.5-0.6-1-1.2-1.5-1.9c-0.7-1.3-1.2-2.6-1.7-4
		c-0.3-1-0.5-2.1-0.6-3.1c-0.3-1.7-0.5-3.5-0.6-5.3c0-3.6,0.4-7.2,1.2-10.7c0.4-1.4,0.9-2.7,1.4-4c2.4-2.4,5.1-4.5,8-6.3
		c1.9-1.1,4-2,6.1-2.7c0.7-0.2,1.3-0.3,2-0.4c1.5-0.2,3.1-0.2,4.6-0.2c1.7,0,3.3,0,5-0.2c2.1-0.1,4-0.5,6-1.1
		c1.8-0.5,3.4-1.4,4.9-2.5c0.8-0.6,1.6-1.5,2.3-2.2c0.8-0.9,1.4-2.1,1.9-3.2c0.5-1,0.7-2.1,1-3.2c0.1-0.6,0.2-1.2,0.2-1.8
		c0-0.9,0-1.8-0.2-2.7c-0.2-1-0.5-2.1-0.8-3.1c-0.4-1.4-1.1-2.7-1.8-4c-0.9-1.6-1.9-3.2-3.1-4.7c0,0,0,0,0,0c0,0,0,0,0-0.1
		c-0.2-0.5-0.6-1-0.9-1.5c-0.4-0.5-0.9-1-1.4-1.4c-0.3-0.3-0.6-0.5-0.9-0.7c-0.2-0.1-0.4-0.2-0.6-0.4c-0.8-0.7-1.7-1.4-2.6-1.9
		c-1.2-0.7-2.4-1.3-3.7-1.7c-1.4-0.5-2.8-0.8-4.2-0.9c-2.7-0.3-5.5-0.1-8.1,0.3c-2.9,0.5-5.8,1.4-8.5,2.5c-2.7,1.1-5.3,2.3-7.9,3.7
		c-0.9,0.5-1.8,1.1-2.7,1.6c-4,2.4-7.9,5.2-11.4,8.3c-2,1.8-3.9,3.7-5.6,5.8c-2.5,3-4.5,6.4-6.3,9.9c-0.2,0.4-0.4,0.8-0.6,1.2
		c-0.5,0.6-0.9,1.2-1.3,1.9c-2.3,3.7-3.9,7.8-4.9,12c0,0,0,0.1,0,0.1c-0.5,1.9-0.8,3.9-1,5.9c-0.3,2.3-0.3,4.6-0.2,7
		c0.2,4.2,1.1,8.2,2.3,12.2c0.8,2.7,1.9,5.3,3.2,7.8c1,1.9,2.1,3.7,3.4,5.4c0,0.2,0.1,0.3,0.2,0.5c0.1,0.2,0.2,0.4,0.3,0.6
		c0,0,0,0,0,0c0,0,0,0,0,0.1c0.8,1.3,1.6,2.5,2.5,3.7c0.1,0.1,0.2,0.2,0.2,0.3c0.8,1,1.6,2,2.5,2.9c0.1,0.1,0.1,0.2,0.2,0.3
		c0.4,0.7,0.8,1.4,1.3,2.1c0,0,0,0,0,0c0.6,0.7,1.3,1.3,1.9,2c1.1,1,2.5,1.7,3.8,2.4c0.6,0.3,1.2,0.5,1.9,0.8c0,0,0,0,0,0
		c1,0.6,2,1.1,3.1,1.6c0.5,0.3,0.9,0.5,1.3,0.8c2.5,1.3,5.1,2.4,7.8,3.2c2,0.6,4.1,1.1,6.2,1.4c0.1,0.1,0.3,0.2,0.4,0.2
		c0.2,0.1,0.4,0.1,0.7,0.2c0,0,0,0,0,0c0,0,0.1,0,0.1,0c1.4,0.3,2.9,0.6,4.4,0.8c0.1,0,0.3,0,0.4,0c1.3,0.1,2.5,0.2,3.8,0.2
		c0.1,0,0.2,0.1,0.3,0.1c0.8,0.2,1.6,0.4,2.4,0.5c0,0,0,0,0.1,0c0.9,0.1,1.9,0,2.8,0c1.5-0.1,3-0.5,4.4-1c0.6-0.2,1.3-0.5,1.9-0.8
		c0,0,0,0,0,0c3.5-0.9,6.8-2.3,9.7-4.6c0.7-0.6,1.3-1.2,1.9-1.9c0.5-0.6,1-1.2,1.4-1.8c0.5-0.8,1-1.7,1.3-2.6
		c0.4-0.9,0.6-1.9,0.8-2.9c0.1-0.8,0.2-1.5,0.2-2.3C801.4,326,801.3,325,801.1,323.9z"/>
	<g>
		<path class="st1" d="M802.6,323.5c-1.9-8.5-4.1-19.7-14.8-19.7c-5.7,0-11,0.6-16,3.7c-2,1.2-3.9,3.2-6.4,3c-6.2-0.4-7-10-7.2-14.4
			c-0.1-3.8,0.1-8.2,1.5-11.7c1.4-3.7,4.9-6.1,8.3-8.1c6.2-3.6,12-2.5,18.8-3.4c10.1-1.4,17.9-9.2,15.3-19.9
			c-2.1-8.4-7.8-16-16.5-19c-11-3.7-23.3,1.7-32.6,7.4c-5.5,3.3-10.7,7.2-15.1,11.9c-4.2,4.4-6.8,9.6-9.9,14.7
			c-5.9,9.7-8.3,21.1-6.3,32.4c2,11.7,8,20.8,15,29.8c2.9,3.7,6.2,5.5,10.4,7.6c6.1,3,11.8,5,18.4,6.7c-0.4-0.5-0.7-1-1.1-1.4
			c0,0,0,0,0,0c0,0.6,0.5,1.3,1.1,1.4c3.8,0.9,7.9,1.4,11.8,1.8c4.2,0.4,7.9-1.2,11.7-2.5c9.1-3.1,15-10,13.8-19.9
			c-0.2-1.9-3.2-1.9-3,0c1.2,10.2-5.3,14.7-14,17.7c-6.4,2.2-12.8,1.5-19.5,0c0.4,0.5,0.7,1,1.1,1.4c0,0,0,0,0,0
			c0-0.6-0.5-1.3-1.1-1.4c-5.1-1.3-10-2.5-14.7-4.9c-4.4-2.2-9.2-4.1-12.2-8c-1-1.3-1.9-2.5-2.9-3.8c-0.8-1-1.5-2.2-2.3-3.2
			c-1-1.2-1.2-1.5-0.6-0.6c-2.5-4-5-8.5-6.6-13c-3.9-11.2-3.8-24.1,1.5-34.8c5.6-11.1,12.7-20.5,23.2-27.5c9.6-6.3,24-13.9,35.4-8
			c8.9,4.6,17.9,19.5,9,28c-4.7,4.6-11.5,4.1-17.6,4.4c-4.9,0.2-9.2,1.7-13.3,4.4c-2.9,1.9-6.4,4.3-7.7,7.6
			c-2.1,5.3-2.5,11.8-1.8,17.4c1,7.6,5.8,18.2,15.2,12.3c5.9-3.7,10.9-5.7,18-5.2c7.8,0.6,9.5,11.4,10.9,17.5
			C800.1,326.2,803,325.4,802.6,323.5z"/>
	</g>
</g>
<g>
	<g>
		<path class="st0" d="M537.6,279.6c-0.4,0.1-0.7,0.2-1.1,0.2c-0.4,0.2-0.8,0.3-1.2,0.4c0,0-0.1,0.1-0.1,0.1
			c-0.1,0.1-0.3,0.2-0.5,0.2c-0.4,0.2-0.8,0.4-1.2,0.6c-0.1,0-0.2,0.1-0.4,0.1c0,0,0,0,0,0c-0.2,0.2-0.5,0.3-0.7,0.3
			c-0.2,0.1-0.5,0.1-0.7,0.1c-0.2,0-0.3,0-0.5-0.1c-0.1,0-0.1,0-0.2,0c-0.1,0.1-0.2,0.1-0.4,0.1c-0.2,0.1-0.5,0.1-0.8,0.1
			c-0.3,0-0.6-0.1-0.9-0.2c-0.2-0.1-0.4-0.2-0.6-0.3c-0.3-0.2-0.7-0.4-1-0.6c-0.4-0.3-0.7-0.6-1-0.9c-0.3-0.3-0.6-0.5-0.8-0.9
			c-0.3-0.4-0.5-0.7-0.8-1.1c-0.2-0.4-0.4-0.8-0.6-1.2c-0.2-0.4-0.2-0.8-0.3-1.2c-0.1-0.4-0.1-0.9-0.1-1.3c0-0.3,0-0.5,0.1-0.8
			c0-0.2,0-0.5,0-0.7c0-0.2,0.1-0.4,0.1-0.6c0-0.5,0-1.1,0-1.6c0.1-0.8,0.3-1.5,0.6-2.1c0.1-0.2,0.2-0.4,0.4-0.5
			c0.1-0.1,0.3-0.3,0.4-0.4c0.1-0.1,0.3-0.2,0.5-0.2c0.2-0.1,0.4-0.1,0.6-0.1c0-0.5,0-1,0.2-1.4c0.4-1,1.4-1.6,2.5-1.4
			c0.2,0.1,0.4,0.1,0.7,0.2c0.3,0.1,0.5,0.3,0.8,0.5c0,0,0,0,0,0c0.2,0,0.3,0,0.5,0c0.1-0.1,0.2-0.1,0.2-0.2
			c0.2-0.1,0.4-0.2,0.6-0.2c0.2,0,0.4,0,0.7,0c0.3,0,0.7,0.1,1,0.2c0,0,0,0,0.1,0c0,0,0,0,0,0c0.3,0,0.7,0,1,0.1
			c0.3,0.1,0.5,0.1,0.8,0.2c0.3,0.1,0.6,0.3,0.9,0.5c0.4,0.2,0.8,0.6,1.1,0.9c0.1,0.1,0.2,0.3,0.4,0.4c0,0,0,0,0,0
			c0,0,0.1,0.1,0.1,0.1c0,0,0,0,0,0c0.2,0.2,0.4,0.4,0.6,0.6c0.3,0.4,0.6,0.8,0.8,1.2c0,0,0,0,0,0c0,0,0,0,0,0c0.4,0.6,0.7,1.3,1,2
			c0.3,0.7,0.5,1.4,0.6,2.1c0.1,0.5,0.1,0.9,0.1,1.4c0,0.3,0,0.6,0,0.9c0,0.4-0.1,0.8-0.2,1.2c-0.1,0.4-0.3,0.8-0.5,1.1
			c-0.3,0.5-0.7,0.9-1.1,1.3c-0.2,0.1-0.4,0.3-0.6,0.4C538.3,279.3,538,279.5,537.6,279.6L537.6,279.6L537.6,279.6z"/>
		<g>
			<path class="st1" d="M537.2,278.1c-2.3,0.4-4.1,1.7-6.3,1.8c-2.2,0.2-3.9-0.9-5-2.9c-0.7-1.3-1.6-8,0.8-8.6
				c0.6-0.2,1.1-0.8,1.1-1.4c0-0.9,3.1-0.7,3.8-0.8c1.9-0.2,3.2-0.2,4.8,1.2C539.3,269.8,541.5,276.3,537.2,278.1
				c-1.8,0.7-1,3.6,0.8,2.9c7.2-3,4.9-12.3-0.1-16.3c-0.6-0.5-1.2-0.9-2-1.2c-0.2-0.1-2.9-0.5-1.9-0.3c-0.9-0.1-1.6-0.4-2.5-0.2
				c-1.8,0.5,0.3,0.7-0.6,0.4c-3.2-1.1-5.9-0.2-6,3.6c0.4-0.5,0.7-1,1.1-1.4c-6.2,1.6-4.1,12.4-0.5,15.5c4.9,4.3,7.8,0.7,12.6-0.1
				C539.9,280.7,539.1,277.8,537.2,278.1z"/>
		</g>
	</g>
</g>
<g>
	<path class="st0" d="M444.4,293.5c-0.8-2.5-1.9-4.9-3.3-7.1c-0.1-0.2-0.2-0.5-0.3-0.7c-1.1-2.2-2.5-4.2-4.1-5.9
		c-0.3-0.4-0.6-0.8-1-1.2c-1.2-1.3-2.7-2.3-4.4-3.1c-0.1-0.1-0.2-0.1-0.3-0.2c-1.3-0.8-2.6-1.3-3.6-1.6c-1.1-0.4-2.3-0.7-3.6-1
		c-2.4-0.5-4.8-0.7-7.6-0.7l-0.1,0c-2.6-0.4-4.9-0.6-7.2-0.6c-0.5,0-0.9,0-1.4,0c-2.1,0-4.1,0.1-6,0.4c-0.1,0-0.1,0-0.2-0.1
		c-0.1,0.1-0.2,0.2-0.3,0.3c-0.1,0.1-0.2,0.2-0.4,0.2c-0.1,0.1-0.3,0.1-0.4,0.2c-0.1,0-0.3,0.1-0.5,0.1c-0.1,0-0.3,0-0.4,0
		c-0.2,0-0.3,0-0.5,0c-0.1,0-0.2,0-0.3-0.1c-0.1,0-0.2,0-0.2,0c-0.1,0-0.1,0-0.2-0.1c-0.2,0-0.4,0-0.5-0.1c-0.3-0.1-0.5-0.1-0.7-0.3
		c-0.1,0-0.1-0.1-0.1-0.1c0,0-0.1-0.1-0.1-0.1c0-0.1-0.4-0.4-0.5-0.5c-0.3-0.2,0.1-1.3,0.1-1.3c0-0.1,0-0.1,0-0.2c0,0,0-0.1,0-0.1
		c0-0.1,0-0.1,0-0.2c0-0.1,0-0.1,0-0.2c0-0.1,0.1-0.2,0.2-0.3c0,0,0,0,0,0c0,0,0,0,0,0c0-0.1,0-0.2,0.1-0.3c0-0.1,0.1-0.2,0.1-0.2
		c0.1-0.1,0.1-0.2,0.2-0.2c0.1-0.1,0.3-0.2,0.4-0.3c0.1,0,0.1-0.1,0.2-0.1c0,0,0,0,0,0c0,0,0,0,0.1,0c0,0,0,0,0,0
		c0.1-0.1,0.2-0.1,0.3-0.1c0.2-0.1,0.3-0.1,0.5-0.2c0,0,0,0,0,0c0,0,0,0,0,0c0,0,0,0,0,0c0,0,0,0,0,0c1.1-0.7,2.3-1.2,3.6-1.6
		c1.4-0.4,2.9-0.6,4.4-0.6c1.1,0.1,2.2,0.2,3.4,0.3l0.1,0l0.2,0c0.2,0,0.4,0.1,0.6,0.1c1.1,0.1,2.2,0.3,3.3,0.5l1.8,0.3
		c1.9,0.3,3.8,0.7,5.8,0.9c1,0.1,1.9,0.1,2.9,0.1c1.4,0,2.7-0.1,4.1-0.3c0.6,0.1,1.3,0.1,1.9,0.1c0.4,0,0.7,0,1.1,0
		c0.6,0,1.3-0.2,2-0.3c0.9-0.2,1.7-0.5,2.4-0.9c0.8-0.4,1.5-0.8,2.1-1.2c0.6-0.4,1.1-0.8,1.6-1.3c0.6-0.6,1.1-1.2,1.6-1.8
		c0.1-0.1,0.2-0.3,0.3-0.4c0.8-0.9,1.5-1.9,2-3c0.3-0.5,0.4-1.1,0.6-1.5l0.1-0.2c0.1-0.4,0.2-0.7,0.3-1.1c0.1-0.6,0.1-1.2,0.2-1.8
		c0-0.7,0-1.3-0.1-1.9l0-0.2c-0.1-0.8-0.3-1.5-0.5-2c-0.2-0.9-0.5-1.7-0.7-2.4c-0.2-0.6-0.5-1.2-0.9-1.8c-0.1-0.5-0.3-1-0.6-1.4
		c-0.6-0.7-1.1-1.2-1.6-1.7c-0.2-0.2-0.5-0.4-0.8-0.5l0,0l-0.1-0.1c-0.2-0.2-0.3-0.3-0.5-0.4c-0.1-0.1-0.2-0.1-0.3-0.2
		c-0.1-0.1-0.2-0.1-0.4-0.2c0,0,0,0,0,0l0,0l0,0c-0.2-0.5-0.6-1-0.9-1.2c-1-0.8-2.1-1.4-3.2-2c-1.5-0.7-3.1-1.4-5-1.9
		c-0.9-0.3-1.9-0.5-2.8-0.7c-2.4-0.5-5-0.8-7.9-0.8c-0.3,0-0.5,0-0.8,0c-1.4,0-2.9,0.1-4.5,0.2c-0.2,0-0.4,0-0.6,0.1
		c-0.1,0-0.1,0-0.2,0c-0.1,0-0.3-0.1-0.5-0.1c-0.4,0-0.9,0-1.3,0c-1.7,0-3.6,0.2-5.5,0.6c-2.5,0.5-5,1.3-7.5,2.3c-2.5,1-5,2.4-7.3,4
		c-2.4,1.6-4.5,3.5-6.3,5.6c-1.3,1.5-2.4,3.1-3.2,4.8c-1.1,1.3-2,2.9-2.9,4.8c-0.8,1.6-1.5,3.5-2.1,5.7c-0.3,0.9-0.5,1.9-0.8,2.9
		c-0.4,1.2-0.8,2.5-1,3.9c-0.4,2.6-0.4,5.3,0,7.8c-0.1,0.9-0.1,1.7-0.1,2.6c0,0.8-0.1,1.5,0,2.2c0,0.2,0,0.4,0.1,0.6
		c0,0,0,0.1,0,0.2l0.1,0.5l0.3,1.3c0.3,1,0.6,2.2,1,3.3c0.3,0.9,0.7,1.6,1,2.3c0,0.1,0,0.1,0.1,0.2c0,0,0.1,0.2,0.1,0.2
		c0.2,0.3,0.4,0.6,0.6,1c0,0.1,0.1,0.2,0.2,0.2c0.3,0.4,0.6,0.8,1.1,1.3c0,0.1,0.1,0.1,0.1,0.2c0.1,0.1,0.2,0.3,0.4,0.4l0.1,0.1
		c0.3,0.3,0.5,0.5,0.8,0.8l0.1,0.1l0,0c0,0,0.1,0.1,0.1,0.1c0.3,0.2,0.4,0.4,0.6,0.6c0,0,0.1,0.1,0.1,0.1l0.2,0.1l0.2,0.2l0.3,0.2
		c0.1,0,0.1,0.1,0.2,0.1l0.3,0.2c0,0,0.1,0.1,0.1,0.1c0.4,0.3,0.7,0.5,1.1,0.8c0.1,0,0.1,0.1,0.2,0.1c0.1,0,0.1,0.1,0.2,0.1l0.2,0.1
		c0.6,0.3,1.1,0.5,1.6,0.7c0.4,0.1,0.6,0.2,0.9,0.3c0,0,0.2,0.1,0.2,0.1l0.2,0.1c0,0,0.2,0.1,0.2,0.1l0.6,0.2c0,0,0.2,0,0.2,0.1
		l0.6,0.2l0.2,0l0.1,0c0,0,0.1,0,0.2,0c0.4,0.1,0.7,0.2,1,0.3l0.2,0.1l0.7,0.2l0.2,0l0.3,0.1l0.6,0.1c0,0,0.2,0,0.2,0
		c0,0,0.2,0,0.3,0l0.3,0l0.1,0l0.4,0.1l0.7,0.1l0.2,0c0.5,0.1,1,0.2,1.6,0.2c0.4,0,0.7,0.1,1.1,0.1c0.1,0,0.1,0,0.2,0
		c1.1,0.1,2.1,0.2,3.2,0.3c0.1,0,0.2,0,0.2,0c0.1,0,0.2,0,0.3,0c0.6-0.1,1.3-0.1,1.9-0.3c0.1,0,0.2,0,0.3-0.1l0.3-0.1
		c0.1,0,0.2-0.1,0.3-0.1c0.1,0,0.2,0,0.3-0.1c0.3-0.1,0.6-0.2,0.9-0.2c0,0,0.1,0,0.1,0c0,0,0.2-0.1,0.2-0.1c0.1,0,0.1,0,0.2-0.1
		c0,0,0.2-0.1,0.2-0.1c0.1,0,0.2,0,0.2,0c0.1,0,0.1,0,0.2,0c0.3-0.1,0.5-0.1,0.7-0.1l0.2,0c0.8-0.1,1.5-0.2,2.2-0.2c0,0,0,0,0,0h0
		c0.1,0,0.3,0,0.4,0c0.9-0.1,1.9-0.3,2.8-0.5l0.5,0.1c2.2,0.4,4,0.9,5.5,1.5c1.1,0.5,2.1,1,2.9,1.6c0.3,0.3,0.6,0.6,0.9,1
		c0.2,0.3,0.3,0.5,0.4,0.8c0,0.1,0.1,0.2,0.1,0.3c0,0.2-0.1,0.5-0.2,0.8c-0.1,0.2-0.1,0.3-0.2,0.5c-0.1,0.2-0.3,0.4-0.4,0.6
		c-0.2,0.2-0.4,0.4-0.7,0.6c-0.1,0-0.2,0.1-0.3,0.1c-0.5,0.2-1,0.5-1.6,0.7l-0.4,0.2c-0.1,0.1-0.2,0.1-0.3,0.2
		c-0.6,0.1-1.2,0.2-1.8,0.2l-0.2,0c-1.5-0.1-3.1-0.5-4.4-0.8c-0.7-0.2-1.4-0.4-2.1-0.6c-1.1-0.3-2.1-0.6-3.2-0.8
		c-0.9-0.2-1.9-0.4-2.9-0.6c-1.2-0.2-2.3-0.2-3.2-0.2c-1.2,0-2.4,0.1-3.4,0.3c-0.3,0.1-0.7,0.2-1,0.3c-0.4,0-0.9,0-1.3,0
		c-0.4,0-0.7,0-1.1,0c-2.8,0.1-5.4,0.4-7.7,1c-3.5,0.9-6.1,2.2-8.3,4.1c-2.7,2.4-4.6,5.8-5.1,9.3c-0.1,1.1-0.2,2.1-0.2,3
		c0,1,0.2,2.1,0.4,3.3c0.1,0.3,0.1,0.6,0.2,0.8c0,0.2,0.1,0.3,0.2,0.5c0,0,0,0.1,0.1,0.1c0,0,0,0.1,0,0.2c0,0,0,0.1,0,0.2
		c0.1,0.4,0.3,0.6,0.5,0.9l0.3,0.3l0.1,0.2c0.2,0.2,0.4,0.4,0.5,0.7l0.6,0.8c0.3,0.4,0.6,0.7,0.8,1.1c0.7,0.9,1.7,2.1,2.9,3.2
		c0.1,0,0.1,0.1,0.2,0.1c0.3,0.2,0.6,0.4,0.9,0.6c0.3,0.2,0.6,0.4,0.9,0.6c0,0,0.1,0.1,0.1,0.1c0.1,0.1,0.2,0.1,0.3,0.2l0.2,0.1
		l0.3,0.1c0.2,0.1,0.4,0.2,0.6,0.3l0.2,0.1c0.6,0.3,1.2,0.5,1.8,0.7l0.8,0.3l0.2,0.1l0.2,0.1l0.4,0.2c0,0,0,0,0.1,0l0.2,0.1l0.3,0.1
		c0.4,0.2,0.8,0.3,1.2,0.4c0.2,0.1,0.3,0.1,0.5,0.1c1,0.2,2,0.3,3,0.4c0.1,0,0.2,0,0.3,0c0.3,0,0.6,0,0.9-0.1c0.4,0.2,0.6,0.3,1,0.3
		c1.3,0.1,2.6,0.1,3.8,0.1c1.3,0,2.6,0,3.9-0.1c1.2-0.1,2.4-0.2,3.5-0.3l0.1,0c1,0,1.9-0.1,2.9-0.1c0.9,0,1.9,0,2.8,0l0.9,0l0.9,0
		c0.6,0,1.2,0,1.8,0c0.6,0.1,1.1,0.1,1.7,0.1l0.4,0c0.9,0,1.9-0.1,2.9-0.4c0.4,0,0.8-0.1,1.2-0.1c1.8-0.2,3.6-0.6,5.5-1.2
		c1.8-0.5,3.4-1.2,5-2.1c1.9-1.1,3.5-2.3,4.9-3.7c0.8-0.9,1.6-1.7,2.2-2.5c0.7-0.9,1.2-1.9,1.7-2.7c0.3-0.6,0.6-1.2,0.9-1.9
		c0.1-0.2,0.3-0.4,0.4-0.6c0.7-1.2,1.3-2.4,1.8-3.7c0.5-1.2,0.9-2.6,1.2-4.1c0.1-0.7,0.3-1.3,0.4-2c0.1-0.2,0.1-0.5,0.2-0.7
		c0.8-2.5,1.4-5.1,1.7-7.6C445.9,301.6,445.6,297.3,444.4,293.5z"/>
	<g>
		<path class="st1" d="M445.9,293.1c-3.7-11.1-11.2-20.1-23.1-22c-6.4-1-13.3-1.4-19.7-0.9c-2,0.2-3.8,1.4-5.3,0.5
			c-0.5-0.3,0.9-2.2,0-0.8c0.2-0.3,0.2-0.5,0.6-0.7c0.9-0.6,0.1-0.2,1.2-0.8c3.1-1.5,6.5-1.8,10-1.4c5.2,0.6,10.2,2.1,15.5,1.9
			c5.3-0.1,10.3,0,14.7-3.5c7.3-5.9,9.1-19,0.4-24.8c-0.4,0.9-0.8,1.8-1.2,2.7c0,0,0,0,0,0c1.4,0.5,2.5-1.5,1.5-2.5
			c-0.3-0.3-1.5-1.3-1.1-0.6c-0.2,0.7-0.4,1.4-0.5,2.1c0,0,0,0,0,0c1.3-0.9,0.5-3.4-1.2-2.7c0,0,0,0,0,0c0.6,0.2,1.1,0.5,1.7,0.7
			c-5.9-7.9-18.7-7.4-27.4-7.2c-11.5,0.3-23.4,4.6-30.5,14.1c-3.3,4.4-6,9.4-7.6,14.7c-1.8,5.9-1.9,10.8-1.9,16.9
			c0.1,6.2,1.9,12.3,6.6,16.6c0.6,0.6,1.5,0.6,2.1,0c0,0,0,0,0,0c-0.7,0-1.4,0-2.1,0c4.5,4.4,11.1,5.6,17.1,6.4
			c4.6,0.5,8.5-0.5,13-1.1c2.4-0.3,3.5-0.5,5.9,0.2c2.6,0.8,8.3,3.4,3.2,4.9c-4.5,1.3-10-1.9-14.5-2.5c-4.9-0.6-10.5,0.1-15.3,0.9
			c-5.4,0.9-10.8,3.2-14.2,7.7c-4.3,5.7-4.7,13.9-0.2,19.5c3.4,4.4,6.6,6.7,11.8,8.6c8.2,3,17.7,0.9,26.1,0.9
			c11.3,0,23-2.5,28.8-13.4C445.6,317.4,449,304.7,445.9,293.1c-0.5-1.9-3.4-1.1-2.9,0.8c2.9,10.8-0.3,23.4-5.8,32.9
			c-5.9,10.3-17.2,11.1-27.9,11.2c-12.4,0.1-28.7,3.2-35.3-10.8c-2.4-5.1,0.1-12.1,4.1-15.6c5.3-4.6,12.4-4.4,18.8-5
			c6.1-0.6,11,1.5,16.9,2.4c2.6,0.4,5.5,0.1,7.6-1.6c6.4-5.2-5.2-9.9-9.3-10.1c-3.4-0.2-6.8,0.9-10.2,1.6
			c-6.1,1.2-16.7-1.2-21.3-5.6c-0.6-0.6-1.5-0.6-2.1,0c0,0,0,0,0,0c0.7,0,1.4,0,2.1,0c-3.8-3.5-5.8-8.7-5.7-13.8
			c0.1-5.1-0.3-9.6,1.2-14.6c1.4-5,3.4-9.2,6.2-13.5c6-9.6,17.4-14.8,28.5-15.3c7.6-0.3,20.7-1.2,26,5.8c0.4,0.5,1,1,1.7,0.7
			c0,0,0,0,0,0c-0.4-0.9-0.8-1.8-1.2-2.7c0,0,0,0,0,0c-0.7,0.5-0.9,1.3-0.5,2.1c0.3,0.6,1.1,0.8,1.6,1.2c0.5-0.8,1-1.7,1.5-2.5
			c0,0,0,0,0,0c-1.7-0.6-2.5,1.8-1.2,2.7c5.5,3.7,5.4,12.7,1.7,17.3c-4.4,5.6-10.8,5.8-17.5,5.5c-4.7-0.2-9.3-1.5-14-2
			c-2.9-0.3-5.7-0.1-8.5,0.9c-0.9,0.4-1.8,0.9-2.7,1.3c-1.5,0.7,0.8-0.4-0.1,0c0.7-0.4-0.6,0.2-0.8,0.4c-0.6,0.5-1,0.8-1.5,1.4
			c-0.4,0.5-0.3,0.4-0.5,1.4c-0.1,0.4,0.3,0.8,0.2,1.2c0.2-1.5-0.5-0.4-0.3,0.4c0.5,1.8,1.5,2.7,3.5,3c0.9,0.1,1.7,0.1,2.6-0.2
			c0.2-0.1,1.3-0.7,0.6-0.5c-0.2,0,2.8-0.3,3.8-0.3c3.7-0.2,7.3,0.3,11,0.6c4,0.3,7.9,0.4,11.7,2c7.7,3.2,12.5,10.6,15,18.3
			C443.6,295.7,446.5,295,445.9,293.1z"/>
	</g>
</g>
<g>
	<path class="st0" d="M371.3,81.2c0-0.1-0.1-0.3-0.1-0.4c0.7-1.4,0.9-3.1,0.4-4.7c-0.5-1.4-1.6-2.8-2.9-3.5c-0.1,0-0.2-0.1-0.3-0.1
		c-0.2-0.3-0.4-0.6-0.7-0.9c-1.2-1.4-2.3-2.6-3.9-3.4c-0.2-0.1-0.4-0.2-0.6-0.3c-1.1-0.9-2.3-1.7-3.8-2.1c-0.6-0.2-1.3-0.3-1.9-0.4
		c0-2.1-0.1-4.2-0.3-6.3c-0.4-4.4-1-8.9-2-13.2c-0.5-2.2-1.2-4.3-2-6.4c-0.7-1.8-1.5-3.6-2.5-5.2c-1-1.7-2.2-3.4-3.5-4.7
		c-1.3-1.3-2.8-2.6-4.4-3.4c-1-0.5-1.9-0.9-2.9-1.2c-1-0.3-2-0.5-3-0.6c-0.2,0-0.3,0-0.5,0c-1.9-0.3-3.8-0.4-5.6-0.1
		c-1.3,0.2-2.7,0.4-4,0.9c-1.1,0.4-2,0.9-3,1.5c-1.6,0.9-3.1,2.3-4.3,3.8c-0.8,1.1-1.5,2.2-2.1,3.4c-0.3,0.5-0.7,1-1,1.6
		c-0.3,0.5-0.6,1.1-0.8,1.6c0,0,0,0.1,0,0.1c-1.2,1.8-2.2,3.6-3.1,5.6c-1.1,2.6-2.1,5.4-2.4,8.3c-0.3,2.4-0.4,4.8,0,7.1
		c0,0.1,0,0.1,0,0.2c-0.3,0.4-0.5,0.9-0.7,1.4c-0.3,1.8-0.5,3.7-0.7,5.5c-0.3,0-0.5,0-0.8,0.1c-0.6,0-1.2,0-1.7,0.1
		c-1.6,0.2-3.2,0.6-4.7,1.3c-1.4,0.7-2.8,1.3-4,2.3c-0.6,0.5-1.3,1-1.8,1.6c-0.5,0.6-1,1.2-1.4,1.9c-0.6,0.9-1.1,2-1.3,3.1
		c-0.3,1-0.4,2.2-0.3,3.2c0.1,1.4,0.5,2.7,1,4c0.2,1.4,0.5,2.2,1.1,3.4c0.3,0.6,0.8,1.2,1.2,1.8c0.5,0.7,1,1.4,1.7,1.9
		c2.2,1.8,4.9,2.8,7.6,3.3c0.6,0.1,1.3,0.2,1.9,0.3c0,0.5,0,1,0,1.5c0.2,6.1,0.6,12.2,1.4,18.3c0.1,0.5,0.1,0.9,0.2,1.4
		c0,3,0.1,5.9,0.3,8.9c0.1,2,0.1,4.1,0.2,6.1c0.2,3.6,0.4,7.2,0.7,10.8c-0.3,2.5-0.6,4.9-0.8,7.4c-0.2,2.9-0.1,5.9,0.1,8.8
		c0.1,1.6,0.3,3.3,0.5,4.9c0.2,1.1,0.4,2.1,0.8,3.2c0.6,1.5,1.1,2.9,2,4.2c0.8,1.3,1.7,2.6,2.7,3.8c1.1,1.3,2.3,2.4,3.6,3.5
		c0.9,0.8,1.8,1.5,2.8,2c0.8,0.5,1.6,0.9,2.5,1.3c0.4,0.2,0.9,0.4,1.3,0.5c0.4,0.1,0.8,0.2,1.2,0.3c0.6,0.1,1.3,0.2,1.9,0.2
		c0,0,0.1,0,0.1,0c0.2,0,0.4,0,0.7-0.1c0.5,0,0.9-0.1,1.4-0.3c0,0,0,0,0,0c0.8,0.1,1.6,0.2,2.4,0.2c0.2,0,0.4,0,0.6,0
		c2.7-0.1,5.5-0.7,8.1-1.9c1.4-0.6,2.7-1.3,3.9-2.2c1.1-0.8,2.1-1.7,3-2.7c1.8-2.1,3.1-4.6,3.9-7.4c0.8-2.8,1.2-5.7,1.3-8.6
		c0.2-6-0.6-12-1-18c0-0.5-0.1-1-0.1-1.6c0.6-5.5,0.8-11,0.8-16.5c0.1-1.2,0.2-2.4,0.4-3.6c0.1-0.8,0.2-1.5,0.2-2.3
		c0.7-7.3,1.4-14.5,1.9-21.8c0.1,0,0.2,0.1,0.3,0.1c1,0.3,2.1,0.5,3.1,0.5c0.4,0,0.9,0,1.3-0.1c1.3-0.2,2.2-0.5,3.3-1.1
		c0.7-0.4,1.3-0.9,1.8-1.4c0.1-0.1,0.2-0.2,0.3-0.3c0.6-0.3,1.1-0.6,1.6-1c1.9-0.6,3.4-2.6,3.2-4.7c0,0,0,0,0,0
		C371.7,84.4,371.7,82.8,371.3,81.2z"/>
	<g>
		<path class="st1" d="M372.7,80.8c-0.1-0.4,0.6-2.5,0.6-3.1c0-0.8-0.2-1.6-0.5-2.3c-0.8-2.1-2.4-3.1-4-4.6
			c-3.2-3.1-6.5-6.1-11.1-6.9c0.4,0.5,0.7,1,1.1,1.4c-0.4-17.3-5.1-45.3-28.2-42.7c-9.4,1.1-13.1,7.6-17.3,15
			c-2.5,4.5-4.4,9.1-5,14.2c-0.2,2.3,0.3,4.8-0.1,6.8c-0.3,1.9-0.9,4.4-1.1,6.5c0.5-0.5,1-1,1.5-1.5c-8,0.7-17.4,4.9-17.5,14.3
			c-0.1,9.5,6.8,15.7,15.7,16.9c-0.4-0.5-0.7-1-1.1-1.4c0,7.7,1.3,15.3,1.7,23c0.3,7.4,0.7,14.8,1,22.2c0.3,7.7-1.2,15.2-0.1,23
			c0.9,5.7,4.1,10.8,8.2,14.7c3.2,3,7.6,5.9,12.1,5.9c4.5-0.1,9.2-0.2,13.6-2.1c13.1-5.6,13.8-19.9,12.8-32.3
			c-1.4-18,1.4-35.9,2.6-53.9c-0.6,0.5-1.3,1-1.9,1.4c5.2,2,8.5-0.6,12.6-3.3C372.8,89.4,373.7,86,372.7,80.8
			c-0.3-1.9-3.2-1.1-2.9,0.8c1.2,6.6-6.7,13.5-13.1,11c-1-0.4-1.8,0.6-1.9,1.4c-1.1,16.3-4.2,33.1-3,49.4c0.7,8.7,2.3,19-2.4,26.9
			c-4.1,7-11.7,8.8-19.2,8.7c-7.5-0.1-13.7-5.4-17-12.1c-3.9-7.8-2.1-17.2-1.7-25.6c0.4-7.6-0.8-15.5-1-23.1
			c-0.2-8.3-1.7-16.5-1.7-24.8c0-0.6-0.5-1.4-1.1-1.4c-7.1-1-11.8-4.5-13.2-11.6c-1.8-9,6.9-13.1,14.2-13.7c0.9-0.1,1.4-0.6,1.5-1.5
			c0.3-2.5,1.1-5,1.3-7.5c0.3-5.8,0.3-10.5,2.9-15.8c3.6-7.4,7.5-15.4,16.7-16.3c21-2.2,24.4,24.3,24.8,39.6c0,0.6,0.5,1.3,1.1,1.4
			c3.7,0.6,6.9,3.1,9.4,5.7c2.4,2.5,2.5,5.8,3.5,9.1C370.4,83.4,373.3,82.6,372.7,80.8z"/>
	</g>
</g>
<g>
	<path class="st0" d="M926.2,292.9c-0.4-1.4-1-2.6-1.6-3.9c-0.4-0.9-0.9-1.7-1.5-2.4c-1.1-1.3-2.2-2.7-3.4-3.9
		c-1.3-1.2-2.7-2.3-4.2-3.2c-1.2-0.7-2.5-1.2-3.9-1.7c-2.5-0.8-5.2-0.7-7.8-0.1c-1.7,0.4-3.4,1.2-4.9,2.3c-0.1,0-0.2-0.1-0.4-0.1
		c-3.9-0.9-7.8,1.1-9.7,4.5c-0.9,1.6-1.5,3.3-2.2,5c-0.5,1.2-1.1,2.4-1.8,3.5c-0.3,0.4-0.6,0.7-1,1.1c-0.6,0.4-1.2,0.8-1.9,1.2
		c-0.9,0.4-1.9,0.7-2.8,0.9c-0.2,0-0.4,0-0.6,0c0.1-2.6,0.2-5.2,0.2-7.8c0.1-1.1,0.2-2.2,0.4-3.4c0.1-0.7,0.2-1.4,0.2-2.1
		c0.5-5,1.1-10,1.5-15.1c0.2,0.1,0.5,0.2,0.7,0.3c1,0.3,2.1,0.5,3.1,0.5c0.4,0,0.9,0,1.3-0.1c1.3-0.2,2.2-0.5,3.3-1.1
		c0.7-0.4,1.3-0.9,1.8-1.4c0.1-0.1,0.2-0.2,0.3-0.3c0.6-0.3,1.1-0.6,1.6-1c1.9-0.6,3.4-2.6,3.2-4.7c0,0,0,0,0,0
		c0.4-1.5,0.4-3.2-0.1-4.7c0-0.1-0.1-0.3-0.1-0.4c0.7-1.4,0.9-3.1,0.4-4.7c-0.5-1.4-1.6-2.8-2.9-3.5c-0.1,0-0.2-0.1-0.3-0.1
		c-0.2-0.3-0.4-0.6-0.7-0.9c-1.2-1.4-2.3-2.6-3.9-3.4c-0.2-0.1-0.4-0.2-0.6-0.3c-1.1-0.9-2.3-1.7-3.8-2.1c-0.6-0.2-1.3-0.4-2-0.4
		c0.1-3,0-5.9-0.2-8.9c-0.4-4.1-1-8.2-2-12.2c-0.5-2-1.2-4-2-5.9c-0.7-1.7-1.5-3.3-2.5-4.8c-1-1.6-2.2-3.1-3.5-4.4
		c-1.3-1.2-2.8-2.4-4.4-3.1c-1-0.4-1.9-0.9-2.9-1.2c-1-0.3-2-0.4-3-0.5c-0.2,0-0.3,0-0.5,0c-1.9-0.2-3.8-0.3-5.6-0.1
		c-1.3,0.2-2.7,0.4-4,0.8c-1.1,0.4-2,0.8-3,1.3c-1.6,0.9-3.1,2.1-4.3,3.5c-0.8,1-1.5,2.1-2.1,3.2c-0.3,0.5-0.7,1-1,1.5
		c-0.3,0.5-0.6,1-0.8,1.5c0,0,0,0.1,0,0.1c-1.2,1.6-2.2,3.4-3.1,5.2c-1.1,2.4-2.1,5-2.4,7.7c-0.3,2.2-0.4,4.4,0,6.6
		c0,0.1,0,0.1,0,0.2c-0.3,0.4-0.5,0.8-0.7,1.3c-1.6,10.8-2.4,21.7-2.1,32.7c0.2,5.7,0.6,11.3,1.4,16.9c0.1,0.4,0.1,0.9,0.2,1.3
		c0,2.7,0.1,5.5,0.3,8.2c0.1,1.9,0.1,3.8,0.2,5.6c0.2,3.3,0.4,6.6,0.7,9.9c-0.3,2.3-0.6,4.6-0.8,6.9c-0.2,2.7-0.1,5.5,0.1,8.2
		c0.1,1.5,0.3,3,0.5,4.6c0.2,1,0.4,2,0.8,2.9c0.6,1.4,1.1,2.7,2,3.9c0.8,1.2,1.7,2.4,2.7,3.5c1.1,1.2,2.3,2.3,3.6,3.3
		c0.9,0.7,1.8,1.4,2.8,1.9c0.8,0.4,1.6,0.8,2.5,1.2c0.4,0.2,0.9,0.3,1.3,0.5c0.4,0.1,0.8,0.2,1.2,0.3c0.6,0.1,1.3,0.2,1.9,0.2
		c0,0,0.1,0,0.1,0c0.1,0,0.2,0,0.3,0c3.2,1.1,6.4,1.9,9.7,2.4c3,0.5,6.2,0.8,9.3,0.8c1.6,0,3.2-0.1,4.8-0.3c2.4-0.3,4.9-0.7,7.2-1.5
		c2-0.7,4-1.6,5.7-2.9c0.6-0.5,1.2-1,1.8-1.6c1.1-0.3,2.1-0.7,3.1-1.2c2.3-1.1,4.5-2.2,6.6-3.6c2-1.3,4-2.7,5.8-4.3
		c2.1-1.8,4.2-3.6,6.2-5.7c1.7-1.8,3.4-3.7,4.8-5.8c1.5-2.2,3.1-4.4,4.3-6.8c1.2-2.4,2.2-5,2.8-7.6c0.2-0.9,0.4-1.9,0.5-2.8
		c0.1-1.4,0.3-2.9,0.2-4.3C926.9,296,926.6,294.4,926.2,292.9z"/>
	<g>
		<path class="st1" d="M927.6,292.5c-3.4-10-13.6-19.4-24.8-16.1c-1,0.3-1.9,0.8-2.9,1.2c-0.5,0.1-0.8,0.4-1,0.8
			c-0.6-0.1-1.2-0.2-1.9-0.3c-2.2,0.3-4.2,0.5-6.1,1.7c-5.4,3.6-5,14.4-12.3,14.7c0.5,0.5,1,1,1.5,1.5c0.5-9.5,1.5-18.9,2.3-28.4
			c-0.6,0.5-1.3,1-1.9,1.4c5.2,2,8.5,0,12.6-2.8c3.8-2.6,5.3-4.9,5-9.7c-0.2-2.1,0.5-4.2,0.1-6.3c-0.5-2.6-2.1-3.4-3.8-5.1
			c-3.4-3.4-6.7-6.7-11.6-7.5c0.4,0.5,0.7,1,1.1,1.4c0.3-11.6-1.1-25.4-8.5-34.9c-5.6-7.1-15.4-9.7-24-6.9c-4.2,1.4-7.3,4-9.7,7.6
			c-2.6,3.9-5.3,8.2-6.9,12.7c-0.9,2.7-1.5,5.6-1.5,8.4c0,0.7,0.1,1.4,0.1,2.1c-0.1,3-0.2,0.7-0.4,2.3c-0.9,6.8-1.7,13.6-2,20.5
			c-0.6,13.7,1.3,27.2,1.9,40.9c0.3,6,0.9,12,0.3,18c-0.6,5.5-0.8,11.8,0.7,17.2c2.3,8.6,10.3,15.6,18.9,17.2
			c11.5,2.1,22.9,5.5,34.4,0.7c2.2-0.9,3.8-2.3,5.8-3.5c2.7-1.8,5.9-2.7,8.7-4.4c5.7-3.3,11-7.9,15.4-12.8
			C924.7,315.5,930.5,304.3,927.6,292.5c-0.5-1.9-3.3-1.1-2.9,0.8c2.6,10.5-2.7,20.5-9.4,28.3c-3.3,3.9-7.3,7.5-11.5,10.4
			c-4,2.9-8.8,4.3-12.8,6.9c-9.9,6.6-21.2,6.5-32.6,3.6c-3.1-0.8-6.9-1.2-9.8-2.5c-5-2.3-9.7-7.1-11.6-12.3
			c-1.5-4.2-1.5-9.2-1.3-13.6c0.2-5.2,0.7-10,0.3-15.1c-0.3-4.6-0.5-9.3-0.6-13.9c-0.2-5.3-1.1-10.6-1.4-15.9
			c-0.7-10.9-0.3-21.8,1-32.6c0.3-2.4,1.2-4.7,1.5-7c0.2-1.6-0.4-3.4-0.3-5.1c0.4-5.3,3-9.7,5.7-14.1c3.2-5.3,6.1-9.6,12.7-10.7
			c5.8-1,12,0.3,16.3,4.4c8.8,8.4,10,23.8,9.8,35.1c0,0.6,0.5,1.3,1.1,1.4c7.4,1.3,12,7.4,12.8,14.4c0.6,5.1,0,5.9-4,9.3
			c-2.9,2.5-5.6,3.5-9.4,2.1c-1-0.4-1.8,0.6-1.9,1.4c-0.8,9.5-1.8,18.9-2.3,28.4c0,0.8,0.7,1.5,1.5,1.5c2.8-0.1,5.9-1.6,7.5-4
			c1-1.4,1.6-3.2,2.3-4.7c0.9-2,1.6-4.3,3.2-5.8c2.2-2,3.9-1.3,6.7-1.8c4.5-0.9,7.7-3.6,12.9-2.1c6.4,1.9,11.4,7.9,13.5,14.1
			C925.4,295.1,928.3,294.3,927.6,292.5z"/>
	</g>
</g>
<g>
	<path class="st0" d="M1024.3,14.9c-0.4,0-0.8,0-1.2,0.1c0,0,0,0,0,0c-0.2,0-0.4,0-0.6,0c-0.2,0-0.4,0.1-0.6,0.1
		c-0.3,0-0.6,0.1-0.9,0.2c-0.1,0-0.1,0-0.2,0c-0.2,0-0.3,0.1-0.4,0.3c-1.4,0.2-2.9,0.6-4.2,1.1c-0.9,0.3-1.7,0.8-2.5,1.3
		c-0.6,0.5-1.2,1.1-1.6,1.9c-0.2,0.4-0.4,0.8-0.5,1.2c-0.1,0.2-0.1,0.5-0.2,0.7c-0.2,0.5-0.4,1.1-0.6,1.6c0,0.1-0.1,0.3-0.1,0.4
		c-0.2,0.7-0.3,1.5-0.3,2.2c0,0.1,0,0.1,0,0.2c-0.1,0.3-0.1,0.5-0.2,0.8c0,0.1,0,0.2,0,0.3c0,0.1,0.1,0.1,0.1,0.1c0,0.1,0,0.1,0,0.2
		c-0.1,0.4-0.1,0.7-0.2,1.1c-0.1,0.3-0.2,0.6-0.2,0.9c0,0.2-0.1,0.4-0.1,0.6c0.1,0.5,0.1,1.1,0.2,1.6c0,0.1,0.1,0.2,0.2,0.3
		c0,0,0,0,0,0c-0.1,0.5-0.1,1.1,0,1.7c0.1,0.7,0.3,1.3,0.6,1.9c0.3,0.7,0.8,1.3,1.3,1.9c0.2,0.3,0.5,0.5,0.8,0.8
		c0.3,0.3,0.6,0.5,1,0.8c0.5,0.4,1.2,0.6,1.8,0.7c0.5,0.1,1.1,0.2,1.6,0.1c0.3,0,0.5-0.1,0.8-0.1c0.3-0.1,0.5-0.2,0.8-0.3
		c0.4-0.2,0.8-0.5,1.2-0.8c0.4-0.3,0.7-0.7,0.9-1.1c0.3-0.4,0.5-0.8,0.7-1.2c0.2-0.5,0.4-1,0.5-1.5c0.1-0.4,0.2-0.8,0.3-1.2
		c0.1-0.6,0.2-1.2,0.3-1.8c0.1-0.9,0.1-1.9,0-2.8c0-0.3-0.1-0.6-0.1-0.9c0-0.8,0-1.6,0-2.4c0.1-0.1,0.3-0.2,0.4-0.3
		c0.4-0.2,0.8-0.3,1.1-0.4c0.2,0,0.4-0.1,0.6-0.1c0.1,0,0.3-0.1,0.4-0.1c0.2,0,0.3,0,0.5-0.1c0.1,0,0.3,0,0.4,0c0.2,0,0.4,0,0.6,0
		c0.2,0,0.5,0,0.7,0.1c0.3,0.1,0.6,0.2,0.9,0.3c0.2,0.1,0.4,0.2,0.5,0.3c0.1,0.1,0.3,0.1,0.4,0.2c0.3,0.1,0.5,0.3,0.8,0.4
		c0.1,0.6,0.2,1.3,0.3,1.9c0,0.1,0.1,0.2,0.2,0.3c0,0,0,0,0,0c-0.1,0.5-0.1,1.1,0,1.7c0.1,0.7,0.3,1.3,0.6,1.9c0,0,0,0.1,0.1,0.1
		c0.3,0.6,0.7,1.2,1.2,1.7c0.2,0.3,0.5,0.5,0.8,0.8c0.3,0.3,0.6,0.5,1,0.8c0.5,0.4,1.2,0.6,1.8,0.7c0.5,0.1,1.1,0.2,1.6,0.1
		c0.3,0,0.5-0.1,0.8-0.1c0.3-0.1,0.5-0.2,0.8-0.3c0.4-0.2,0.8-0.5,1.2-0.8c0.4-0.3,0.7-0.7,0.9-1.1c0.2-0.3,0.4-0.7,0.6-1.1
		c0,0,0-0.1,0.1-0.1c0.1-0.3,0.2-0.6,0.3-0.9c0,0,0,0,0,0v0c0.1-0.2,0.1-0.4,0.2-0.6c0.3-1,0.4-2,0.5-3c0-0.2,0-0.4,0-0.5
		c0.3-0.3,0.6-0.5,0.8-0.8c0.1-0.1,0.2-0.2,0.3-0.3c0.2-0.1,0.3-0.2,0.5-0.3c0.3-0.1,0.5-0.2,0.8-0.3c0.2,0,0.4-0.1,0.5-0.1
		c0.1,0,0.3,0,0.4,0.1c0.2,0.1,0.3,0.1,0.5,0.2c0.1,0.1,0.1,0.1,0.2,0.2c0.1,1.9,0.2,3.7,0.5,5.5c0,0.1,0.1,0.2,0.2,0.3c0,0,0,0,0,0
		c-0.1,0.5-0.1,1.1,0,1.7c0.1,0.5,0.3,1.1,0.5,1.6c0.1,0.1,0.1,0.2,0.2,0.3c0.3,0.7,0.8,1.3,1.3,1.9c0.2,0.3,0.5,0.5,0.8,0.8
		c0.3,0.3,0.6,0.5,1,0.8c0.5,0.4,1.2,0.6,1.8,0.7c0.5,0.1,1.1,0.2,1.6,0.1c0.3,0,0.5-0.1,0.8-0.1c0.3-0.1,0.5-0.2,0.8-0.3
		c0.4-0.2,0.8-0.5,1.2-0.8c0.4-0.3,0.7-0.7,0.9-1.1c0.3-0.4,0.5-0.8,0.7-1.2c0.2-0.5,0.4-1,0.5-1.5c0.3-1,0.4-2,0.5-3
		c0,0,0-0.1,0-0.1c0-0.3-0.1-0.5-0.1-0.8c-0.1-0.5-0.2-1-0.3-1.5c-0.1-0.3-0.2-0.6-0.3-0.9c-0.4-1.2-0.9-2.3-1.6-3.4
		c-0.1-0.1-0.1-0.2-0.2-0.4c-0.1-0.2-0.2-0.5-0.3-0.7c-0.6-1.3-1.4-2.4-2.4-3.3c-0.4-0.5-0.9-0.9-1.4-1.3c-0.6-0.5-1.2-0.9-1.8-1.2
		c-1.1-0.7-2.3-1.1-3.6-1.5c0,0,0,0,0,0c-0.2-0.1-0.4-0.1-0.7-0.2c-0.6-0.1-1.3-0.2-2-0.3c-0.7-0.1-1.3-0.1-2,0c0,0-0.1,0-0.1,0
		c-0.1,0-0.1,0-0.2,0c0,0,0,0,0,0c0,0,0,0,0,0c-0.3,0-0.5,0-0.8,0c-0.2,0-0.4,0-0.6,0c0,0-0.1,0-0.1,0c-0.4,0-0.8,0.1-1.2,0.2
		c0,0-0.1,0-0.1,0c-0.3,0-0.5,0-0.8,0c0,0,0,0,0,0c-0.3,0-0.6,0.1-0.9,0.2c-0.5,0.1-0.9,0.4-1.3,0.6c-0.2,0.1-0.4,0.2-0.5,0.4
		c0,0,0,0,0,0c-0.2,0.1-0.4,0.2-0.5,0.3c-0.7-0.5-1.4-0.9-2.2-1.2c-0.1,0-0.2-0.1-0.3-0.1c0,0,0,0,0,0c-0.2-0.2-0.4-0.4-0.7-0.6
		c-0.3-0.2-0.6-0.3-0.8-0.4c-0.6-0.2-1.3-0.3-2-0.4c0,0-0.1,0-0.1,0c-0.3,0-0.6,0-0.8,0c-0.9-0.1-1.8-0.2-2.7-0.2
		c-0.4-0.1-0.8-0.1-1.2-0.1C1025.1,14.9,1024.7,14.9,1024.3,14.9z"/>
	<g>
		<path class="st1" d="M1024.3,13.4c-5.3,0.3-11.7,1.7-14,6.9c-0.9,2-1.3,4.4-1.5,6.7c0,0.5,0.1,1.5,0.1,1.3
			c-0.1,1.6-0.4,2.2-0.1,3.9c0.2,1,0.2-0.3,0.2-0.4c0,0.7-0.1,1.5,0,2.3c0.2,1.2,0.7,2.4,1.4,3.5c1.6,2.4,4.2,4.3,7.2,4
			c2.6-0.2,4.5-2,5.6-4.3c0.8-1.6,1.1-3.4,1.2-5.1c0.1-1.2-0.5-4.7,0.4-5.6c0.4-0.4,1.9-0.3,2.4-0.1c2.1,0.6,0.5,0.3,1.7,1.3
			c0,0,0.6,2.4,0.4,0.3c0.3,2.8,0.2,4.5,2.2,6.7c3.7,4.3,9.6,3.8,12.1-1.4c0.8-1.7,0.6-4.4,1.7-5.6c1.3-1.3,0.7,1.6,0.8,2.6
			c0.1,0.7,0.3,1.5,0.4,2.2c-0.3-2-0.1,0.9,0,1.3c0.6,4.8,6.1,9.5,10.9,7.1c6.7-3.4,4.5-12.4,1.6-17.4c-3.4-6-8.9-8.4-15.6-8.7
			c0.5,0.5,1,1,1.5,1.5c0,0,0,0,0,0c0-0.8-0.7-1.5-1.5-1.5c-1.2,0-2.5,0-3.7,0.2c-0.7,0.1-2.3,1-2.9,1c-1.6,0,0.6,0.2-1.2-0.3
			c-1.1-0.3-1.7-1.4-3.8-1.8C1029.5,13.4,1026.7,13.4,1024.3,13.4c-1.9,0-1.9,3,0,3c4.4,0.1,7.7,0.5,11.4,2.8c0.5,0.3,1,0.3,1.5,0
			c2-1.1,3.8-1.5,6.1-1.5c-0.5-0.5-1-1-1.5-1.5c0,0,0,0,0,0c0,0.8,0.7,1.5,1.5,1.5c4.4,0.1,8.7,1.3,11.6,5c1.4,1.8,2.8,4.4,3.4,6.6
			c0.5,1.7,0.8,3.5,0,5.2c-0.5,0.6-1,1.3-1.5,1.9c-0.6,2-1.8,2.5-3.4,1.4c-1.7-0.4-2.6-0.9-3.4-2.4c-1.6-3,0.5-9.3-2.8-10.9
			c-2-0.9-4.6,0.7-5.5,2.5c-0.6,1.2-0.6,4.1-0.9,4.6c0.3-0.6-0.2,0.4-0.2,0.4c-1.3,2.1-2.2,2.5-4.5,2c-1.8-0.4-2.9-1.2-3.7-2.9
			c-1.6-3.6,0.2-6.6-4.6-7.7c-1.8-0.4-5.2-0.3-6.4,1.4c-0.9,1.3-0.2,3.5-0.2,4.9c0,2.9-0.3,4.4-2,6.6c-1.5,1.9-3,2.5-5.3,0.8
			c-0.7-0.5-1.4-1.6-1.8-2.4c-0.9-2.1-0.6-5-0.4-7.2c0-0.4-0.2-0.8-0.2-1.2c0-0.6,0.1,0.4,0.2-0.5c0.5-6.8,6.2-9.4,12.4-9.7
			C1026.2,16.3,1026.2,13.3,1024.3,13.4z"/>
	</g>
</g>
<g>
	<path class="st0" d="M1006.3,25.3c-0.1-0.3-0.2-0.7-0.4-1c-0.1-0.2-0.2-0.4-0.4-0.6c-0.3-0.3-0.5-0.7-0.8-1c-0.3-0.3-0.7-0.6-1-0.8
		c-0.3-0.2-0.6-0.3-1-0.4c-0.6-0.2-1.3-0.2-1.9,0c-0.4,0.1-0.9,0.3-1.2,0.6c0,0-0.1,0-0.1,0c-1-0.2-1.9,0.3-2.4,1.1
		c-0.2,0.4-0.4,0.8-0.5,1.3c-0.1,0.3-0.3,0.6-0.4,0.9c-0.1,0.1-0.2,0.2-0.2,0.3c-0.1,0.1-0.3,0.2-0.5,0.3c-0.2,0.1-0.5,0.2-0.7,0.2
		c-0.1,0-0.1,0-0.2,0c0-0.6,0.1-1.3,0.1-2c0-0.3,0.1-0.6,0.1-0.8c0-0.2,0-0.4,0.1-0.5c0.1-1.3,0.3-2.5,0.4-3.8c0.1,0,0.1,0,0.2,0.1
		c0.2,0.1,0.5,0.1,0.8,0.1c0.1,0,0.2,0,0.3,0c0.3-0.1,0.6-0.1,0.8-0.3c0.2-0.1,0.3-0.2,0.5-0.4c0,0,0-0.1,0.1-0.1
		c0.1-0.1,0.3-0.2,0.4-0.3c0.5-0.2,0.9-0.7,0.8-1.2c0,0,0,0,0,0c0.1-0.4,0.1-0.8,0-1.2c0,0,0-0.1,0-0.1c0.2-0.4,0.2-0.8,0.1-1.2
		c-0.1-0.4-0.4-0.7-0.7-0.9c0,0,0,0-0.1,0c0-0.1-0.1-0.2-0.2-0.2c-0.3-0.3-0.6-0.6-1-0.9c-0.1,0-0.1-0.1-0.2-0.1
		c-0.3-0.2-0.6-0.4-0.9-0.5c-0.2,0-0.3-0.1-0.5-0.1c0-0.7,0-1.5-0.1-2.2c-0.1-1-0.2-2-0.5-3c-0.1-0.5-0.3-1-0.5-1.5
		c-0.2-0.4-0.4-0.8-0.6-1.2c-0.3-0.4-0.5-0.8-0.9-1.1c-0.3-0.3-0.7-0.6-1.1-0.8c-0.2-0.1-0.5-0.2-0.7-0.3c-0.2-0.1-0.5-0.1-0.8-0.1
		c0,0-0.1,0-0.1,0c-0.5-0.1-0.9-0.1-1.4,0c-0.3,0-0.7,0.1-1,0.2c-0.3,0.1-0.5,0.2-0.8,0.3c-0.4,0.2-0.8,0.5-1.1,0.9
		c-0.2,0.2-0.4,0.5-0.5,0.8c-0.1,0.1-0.2,0.2-0.2,0.4c-0.1,0.1-0.1,0.2-0.2,0.4c0,0,0,0,0,0c-0.3,0.4-0.6,0.8-0.8,1.3
		c-0.3,0.6-0.5,1.3-0.6,1.9c-0.1,0.6-0.1,1.1,0,1.7c0,0,0,0,0,0c-0.1,0.1-0.1,0.2-0.2,0.3c-0.4,2.7-0.6,5.4-0.5,8.2
		c0,1.4,0.2,2.8,0.4,4.2c0,0.1,0,0.2,0,0.3c0,0.7,0,1.4,0.1,2.1c0,0.5,0,0.9,0.1,1.4c0,0.8,0.1,1.7,0.2,2.5
		c-0.1,0.6-0.2,1.1-0.2,1.7c0,0.7,0,1.4,0,2c0,0.4,0.1,0.8,0.1,1.1c0,0.3,0.1,0.5,0.2,0.7c0.1,0.3,0.3,0.7,0.5,1
		c0.2,0.3,0.4,0.6,0.7,0.9c0.3,0.3,0.6,0.6,0.9,0.8c0.2,0.2,0.4,0.3,0.7,0.5c0.2,0.1,0.4,0.2,0.6,0.3c0.1,0,0.2,0.1,0.3,0.1
		c0.1,0,0.2,0.1,0.3,0.1c0.2,0,0.3,0.1,0.5,0.1c0,0,0,0,0,0c0,0,0.1,0,0.1,0c0.8,0.3,1.6,0.5,2.4,0.6c0.8,0.1,1.5,0.2,2.3,0.2
		c0.4,0,0.8,0,1.2-0.1c0.6-0.1,1.2-0.2,1.8-0.4c0.5-0.2,1-0.4,1.4-0.7c0.2-0.1,0.3-0.3,0.5-0.4c0.3-0.1,0.5-0.2,0.8-0.3
		c0.6-0.3,1.1-0.5,1.7-0.9c0.5-0.3,1-0.7,1.5-1.1c0.5-0.5,1.1-0.9,1.5-1.4c0.4-0.5,0.8-0.9,1.2-1.4c0.4-0.5,0.8-1.1,1.1-1.7
		c0.3-0.6,0.6-1.2,0.7-1.9c0.1-0.2,0.1-0.5,0.1-0.7c0-0.4,0.1-0.7,0-1.1C1006.5,26.1,1006.5,25.7,1006.3,25.3z"/>
	<g>
		<path class="st1" d="M1007.8,24.9c-1.3-3-3.6-5.3-7-4.9c-0.6,0.1-2.5,0.5-3.1,0.8c-1.2,0.5-2.6,3.8-3.2,3.9c0.5,0.5,1,1,1.5,1.5
			c0.1-2.4,0.4-4.7,0.6-7.1c-0.6,0.5-1.3,1-1.9,1.4c2.5,0.9,5.3-1,5.8-3.4c0.6-3.4-1.5-5.9-4.6-6.6c0.4,0.5,0.7,1,1.1,1.4
			c0-3.9-0.6-9.5-4.8-11.3c-3.1-1.4-6.1-0.2-8,2.5c-0.8,1.1-1.5,2.5-1.9,3.9c-0.2,1,0,2-0.1,2.9c0.1-1.8-0.3,0.6-0.4,1.2
			c-0.8,5.4,0.1,10.8,0.3,16.2c0.1,4.1-0.8,8.1,3,10.9c2.1,1.5,5.6,2,8,2C1000.3,40,1009.1,32.5,1007.8,24.9
			c-0.3-1.9-3.2-1.1-2.9,0.8c1.2,7.2-9.3,12.1-15,11c-5.4-1.1-4.8-5.4-5-10.1c-0.2-5.7-0.6-11,0.1-16.7c0.2-1.8,0.1-3.5,1.4-5
			c5.1-5.8,7.5,3,7.5,6.9c0,0.6,0.5,1.3,1.1,1.4c2.9,0.6,3.1,5.3,0.4,4.3c-1-0.4-1.8,0.6-1.9,1.4c-0.2,2.4-0.5,4.7-0.6,7.1
			c0,0.8,0.7,1.5,1.5,1.5c1.2-0.1,1.9-0.7,2.7-1.4c0.9-0.8,1.2-2.1,2.3-2.7c2.3-1.1,4.3-0.4,5.4,2.2
			C1005.6,27.5,1008.5,26.7,1007.8,24.9z"/>
	</g>
</g>
</svg>
