<?xml version="1.0" encoding="utf-8"?>
<!-- Generator: Adobe Illustrator 22.1.0, SVG Export Plug-In . SVG Version: 6.00 Build 0)  -->
<svg version="1.1" id="Layer_1" xmlns="http://www.w3.org/2000/svg" xmlns:xlink="http://www.w3.org/1999/xlink" x="0px" y="0px"
	 viewBox="0 0 100 100" style="enable-background:new 0 0 100 100;" xml:space="preserve">
<style type="text/css">
	.st0{opacity:0.1;enable-background:new    ;}
	.st1{fill:#231F20;stroke:#231F20;stroke-miterlimit:10;}
	.st2{fill:none;stroke:#231F20;stroke-miterlimit:10;}
	.st3{fill:#FFD767;stroke:#584C4F;stroke-width:2;stroke-miterlimit:10;}
	.st4{fill:#FFFAF2;stroke:#584C4F;stroke-width:2;stroke-miterlimit:10;}
	.st5{fill:none;stroke:#584C4F;stroke-width:2;stroke-miterlimit:10;}
</style>
<g>
	<g class="st0">
		<g>
			<path class="st1" d="M80.7,38.3c-0.4-7.2-1.3-13.4-8.4-13.6c-1.6,0-8,0.1-9.4,0c-4.8-0.3-12.6,2.4-25.4,10.1
				C7.3,53,41,68.5,41,68.5c6.8,5.4,12.8,7.2,17.6,6.6c1.1-0.1,6.6,0.1,8.4,0.1c10.8,0,15.6-11.2,5.8-19
				C59,45.3,81.4,50.4,80.7,38.3z"/>
			<g id="XMLID_9_">
				<path id="XMLID_10_" class="st1" d="M40.9,68.6c0,0-33.8-15.4-3.4-33.6s32.3-8.7,33,3.3s-21.6,7.1-8,18
					C76.3,67.2,61.3,85,40.9,68.6z"/>
			</g>
		</g>
		<line id="XMLID_8_" class="st2" x1="50.1" y1="69.7" x2="53.2" y2="71.1"/>
		<path id="XMLID_7_" class="st1" d="M69.5,70.4c0,0,4.8-0.7,5.1-1.6"/>
		<path id="XMLID_6_" class="st1" d="M62.2,50.7c0,0,2.4,0.2,2.9-0.6"/>
	</g>
	<g>
		<g>
			<path class="st3" d="M75.2,38.3c-0.4-7.2-1.3-13.4-8.4-13.6c-1.6,0-8,0.1-9.4,0c-4.8-0.3-12.6,2.4-25.4,10.1
				c-30.3,18.2,3.4,33.6,3.4,33.6c6.8,5.4,12.8,7.2,17.6,6.6c1.1-0.1,6.7,0.1,8.4,0.1c10.8,0,15.5-11.2,5.8-19
				C53.5,45.4,75.9,50.4,75.2,38.3z"/>
			<g id="XMLID_4_">
				<path id="XMLID_5_" class="st4" d="M35.4,68.6c0,0-33.8-15.4-3.4-33.6s32.3-8.7,33.1,3.3s-21.6,7.1-8,18
					C70.7,67.2,55.8,85.1,35.4,68.6z"/>
			</g>
		</g>
		<line id="XMLID_3_" class="st5" x1="44.6" y1="69.7" x2="47.7" y2="71.1"/>
		<path id="XMLID_2_" class="st4" d="M64,70.4c0,0,4.7-0.7,5-1.6"/>
		<path id="XMLID_1_" class="st4" d="M56.7,50.7c0,0,2.4,0.2,2.9-0.6"/>
	</g>
</g>
</svg>
