<?xml version="1.0" encoding="utf-8"?>
<!-- Generator: Adobe Illustrator 22.1.0, SVG Export Plug-In . SVG Version: 6.00 Build 0)  -->
<svg version="1.1" id="Layer_1" xmlns="http://www.w3.org/2000/svg" xmlns:xlink="http://www.w3.org/1999/xlink" x="0px" y="0px"
	 viewBox="0 0 347.2 675.2" style="enable-background:new 0 0 347.2 675.2;" xml:space="preserve">
<style type="text/css">
	.st0{fill:#A36B78;stroke:#584C4F;stroke-width:2;stroke-linecap:round;stroke-miterlimit:10;}
	.st1{fill:#A36B78;stroke:#584C4F;stroke-width:2;stroke-linecap:round;stroke-linejoin:round;stroke-miterlimit:10;}
	.st2{fill:#FFD767;stroke:#584C4F;stroke-width:2;stroke-miterlimit:10;}
	.st3{fill:#A36B78;}
	.st4{fill:none;stroke:#584C4F;stroke-width:2;stroke-linecap:round;stroke-miterlimit:10;}
	.st5{fill:#BEAB72;}
	.st6{fill:#584C4F;stroke:#584C4F;stroke-width:2;stroke-linecap:round;stroke-miterlimit:10;}
	.st7{opacity:0.1;fill:#231F20;stroke:#231F20;stroke-miterlimit:10;enable-background:new    ;}
	.st8{fill:#FFFFFF;stroke:#584C4F;stroke-width:2;stroke-linecap:round;stroke-miterlimit:10;}
</style>
<g id="Layer_5">
</g>
<g id="Layer_3">
</g>
<g>
	<g>
		<path class="st0" d="M285.7,642.6c-1.2-1.4-2.9-2.9-4.8-4.8c-1.8-1.8-3.8-3.9-5.9-6.7c0.1,0,0.1-0.1,0.1-0.1s0,0,0-0.1
			c-0.2-0.5-1.2-2.8-2.8-6.3l-14.6,4.6l-0.8,0.3l-0.8,0.4c0.3,1.1,0.5,1.8,0.6,2.4c0,0,0,0.2,0,0.2c-0.1,0.1-0.1,0.3-0.1,0.4
			c-0.2,0.5-0.2,0.9-0.2,0.9s-0.4,0.8-1,2.1c2.4,10.7-2.1,19.4-8.9,26.2c0.4,0.8,1.1,1.4,2.2,1.9c0.3,0.1,0.7,0.3,1.1,0.3
			c1.4,0.3,3.4,0.2,5.7-0.3c1.8-0.4,3.8-0.9,6-1.6c1.4-0.5,2.8-0.9,4.3-1.5c1.1-0.4,2.3-0.8,3.5-1.3c1.1-0.5,2.3-1,3.4-1.6
			c1.5-0.7,2.8-1.3,4.1-2c2-1.1,3.8-2.1,5.4-3.1c2-1.4,3.5-2.6,4.2-3.9c0.2-0.4,0.4-0.7,0.5-1c0.6-1.4,0.5-2.5-0.1-3.7
			C286.6,643.8,286.2,643.2,285.7,642.6z"/>
		<path class="st0" d="M154.9,397.2c0,0,25.5,52,42.3,93.4c1.9,4.9,3.7,9.5,5.3,13.5l0,0c3.9,10.2,6.2,14.5,7.4,15.2
			c12.6,22.7,47.3,114.9,47.3,114.9l16.2-5.1c0,0-25.6-53.4-39.1-91.4c-13.5-38-52-138.7-50.9-145.2"/>
		<g>
			<g id="XMLID_8589_">
				<path id="XMLID_8590_" class="st0" d="M234.6,668.8c0,0,5.4-2.9,5.2,2.5C239.6,676.6,231.2,673.9,234.6,668.8z"/>
			</g>
			<g id="XMLID_8587_">
				<path id="XMLID_8588_" class="st0" d="M237.6,666.9c0,0,5.9-3.2,5.8,2.7C243.1,675.5,233.8,672.5,237.6,666.9z"/>
			</g>
			<g id="XMLID_8585_">
				<path id="XMLID_8586_" class="st0" d="M241,664.2c0,0,6.9-3.7,6.7,3.2C247.6,674.3,236.7,670.7,241,664.2z"/>
			</g>
			<g id="XMLID_8583_">
				<path id="XMLID_8584_" class="st0" d="M245.6,661c0,0,7.9-4.2,7.7,3.7C253.1,672.6,240.6,668.6,245.6,661z"/>
			</g>
			<path id="XMLID_8582_" class="st0" d="M258.8,665.4c0,0-9.5,4.7-7.6-3.5s12.6-5.1,14.4-2.6C267.3,661.8,258.8,665.4,258.8,665.4z
				"/>
		</g>
		<path id="XMLID_8581_" class="st0" d="M215.8,507.4c0,0,2.2-0.7,2.9,1"/>
		<path id="XMLID_8580_" class="st0" d="M218.8,524.2c0,0-2.8,0.2-3.2-0.3"/>
		<g id="XMLID_8578_">
			<path id="XMLID_8579_" class="st0" d="M261.3,636.5c-3.7,7-13.1-2.3-5.2-6.7"/>
		</g>
		<g id="XMLID_8576_">
			<path id="XMLID_8577_" class="st0" d="M212.9,521.7c-6.2,4.8-11.1-7.3-2.1-8.3"/>
		</g>
	</g>
	<g>
		<g>
			<g id="XMLID_8574_">
				<path id="XMLID_8575_" class="st0" d="M127.8,357.5c-7.6,2.1-7.4-11,1.2-8.5"/>
			</g>
			<path id="XMLID_8573_" class="st0" d="M122.4,262.3c1.7,34.8,3,77.6,4.2,99.8c2.1,40.2-1.2,99.4-1.2,99.4l16.9-1.5
				c0,0-3.4-104.4,0-126.4c2.4-15.7-1.8-73.9-3.2-107.9"/>
			<g id="XMLID_8571_">
				<path id="XMLID_8572_" class="st0" d="M142.4,457.9c6.9,7.2,9,9.6,12.8,19s-9.9-13.5-9.1-10.1s13.6,68.6,3.1,28.5
					s-6.4-14.5-6.4-14.5c0,55-4.4,11-5.8,4.1s-10.4,36.7-8.8,15.1c1.7-21.5-0.1-23.4-3.6-5.4c-3.5,18-1.7-24.3-1.7-24.3
					s0.8-13.2,4.1-12.1"/>
			</g>
			<path id="XMLID_8570_" class="st0" d="M132.9,349.5c0,0,2.8,0.6,3,1.2"/>
			<path id="XMLID_8569_" class="st0" d="M132.5,356.2c0,0-2.2,0.4-2.8-1.4"/>
			<path id="XMLID_8568_" class="st1" d="M129.1,446.3c0,0-13.6,9.1,0,9.9"/>
		</g>
		<path id="XMLID_8567_" class="st2" d="M146.4,261.2c2.2,4.2-4.1,60.7-3.8,65.6c0.3,4.9-1.6,5.5-15.3,5s-7-90.3-1.4-98.4
			c1.9-2.9,9.6-5.6,18.7-8.1"/>
		<path class="st0" d="M236.1,384.9L125,380.8c0,0,0.6,29.5,1.3,40.6c0,1,0.1,2.1,0.2,3.1c0,0.4,0.1,0.7,0.2,0.9l0,0
			c3.1,17,22.5,32,53.2,32.5c50.1,0.8,51.4-14.5,51.4-14.5c2.4-4.5,3.9-8.9,4.4-13c0.1,0,0.2,0,0.2,0S237.9,393.8,236.1,384.9z"/>
		<g>
			<path class="st2" d="M242.5,357.2c-0.1-0.8-0.2-1.5-0.3-2.2c-0.9-6-1.6-10.5-1.9-11.9c-1.4-7.3-4.4-87.8-5.9-101
				c-0.1-0.4-0.1-0.9-0.2-1.3c-0.8-3.7-3.3-6.7-6.4-9c-4.2-3.2-9.5-5.2-13-6.2c-6.7-5.6-20.4-9.4-39.2-8.6
				c-17.8,0.8-45.2,1.1-46.6,27.9c-0.2,3.1-0.2,6.5-0.1,10.4c1.4,36.2,1.4,95-2.4,110.6c-0.2,0.8-0.4,1.5-0.6,2
				c-3.2,8.5-7.1,29.9-2.9,37.9c0,0.1,0.1,0.2,0.2,0.3c1.6,2.8,4.3,3.7,8.7,1.4c0,0,5.4-1.3,9.4-1.2l77.2,4c3.2,0.5,6.1,1,8.4,1.5
				C249.3,428.3,245.8,382.1,242.5,357.2z"/>
			<path class="st2" d="M129,252.7c0,0.9,0.1,1.7,0.1,2.6c1.4,36.2,1.4,95-2.3,110.6c-0.2,0.8-0.4,1.5-0.6,2
				c-3.2,8.5-7.1,29.9-2.9,37.9c0,0.1,0.1,0.2,0.2,0.3c1.6,2.8,4.3,3.7,8.7,1.4"/>
			<path class="st2" d="M141.4,406.2l77.2,4c3.2,0.5,6.1,1,8.4,1.5c22.3,16.5,18.9-29.7,15.6-54.5c-0.1-0.8-0.2-1.5-0.3-2.2
				c-0.9-6-1.6-10.5-1.9-11.9c-1.4-7.3-4.4-87.8-5.9-101c-0.1-0.4-0.1-0.9-0.2-1.3c-0.8-3.7-3.3-6.7-6.4-9c-4.2-3.2-9.5-5.2-13-6.2
				c-6.7-5.6-20.4-9.4-39.2-8.6c-16.4,0.7-40.8,1-45.8,21.9"/>
		</g>
		<path id="XMLID_8566_" class="st0" d="M237.4,299.6c0,0-8.7,93.6-5.1,107.3"/>
		<g>
			<path id="XMLID_8565_" class="st3" d="M196.8,214.7c0.2-3.4-0.9-13.4-1.1-16.6c-0.2-2.9-0.6-5.4-1.2-7.6
				c11.4-19.4-20.1-41.8-31.3-16.8c-3.5,7.8-3.1,22.9-3,25.5c0.1,3.4,0.1,14.6,0.1,17.5c0.1,16.3,24.2,29.2,33.8,8"/>
			<path id="XMLID_8564_" class="st4" d="M188.7,232.3c-11.1,9.6-28.4-1.8-28.4-15.5c0-2.9-0.1-14.1-0.2-17.5
				c-0.1-2.6-0.5-17.7,3-25.5c11.2-25,42.7-2.7,31.3,16.8c0.6,2.1,1.1,4.6,1.2,7.6c0.2,3.2,1.4,13.1,1.1,16.6l-2.8,10.1
				c-0.5,1.1-1.1,2.2-1.6,3.1"/>
		</g>
		<g>
			<g id="XMLID_8562_">
				<path id="XMLID_8563_" class="st0" d="M229.3,349.6c6.1-5,11.2,7.1,2.2,8.2"/>
			</g>
			<path id="XMLID_8561_" class="st0" d="M236.3,280.6c-1.3,30.5-2.4,63.1-3.4,81.5c-2.1,40.2,1.1,99.4,1.1,99.4l-16.9-1.5
				c0,0,3.4-104.4,0-126.4c-2-12.6,0.4-52.5,2.1-85.2"/>
			<path id="XMLID_8560_" class="st0" d="M226.3,349.8c0,0,2.3,0.1,2.3,2"/>
			<path id="XMLID_8559_" class="st0" d="M225.6,356.3c0,0-2.7-0.9-2.9-1.5"/>
			<g id="XMLID_8546_">
				<path id="XMLID_8558_" class="st3" d="M213.4,488.8c2.9,0.8,4.9,0.9,6.4,0.8c-0.8,10.8,4.4,7.6,6.9,5.5l1.1,0.5
					c3.4,6.4,7.6,0.1,8.9-2l0.1,1.5c5.6,2.9,5.3-3.2,4.8-6.5c0.6,1,2,2,5.9,1.9c7.3-0.1-14.1-35.1-14.1-35.1l-16.2,3.8
					C217.2,459.1,198.6,485,213.4,488.8z"/>
				<path id="XMLID_8557_" class="st0" d="M217.2,459.1c0,0-18.6,25.9-3.8,29.6c2.9,0.8,4.9,0.9,6.4,0.8c-0.8,10.8,4.4,7.6,6.9,5.5
					l1.1,0.5c3.4,6.4,7.6,0.1,8.9-2l0.1,1.5c5.6,2.9,5.3-3.2,4.8-6.5c0.6,1,2,2,5.9,1.9c7.3-0.1-14.1-35.1-14.1-35.1"/>
				<g id="XMLID_8550_">
					<g id="XMLID_8552_">
						<path id="XMLID_8556_" class="st1" d="M233.4,455.4c0,0,21.4,35,14.1,35.1c-7.3,0.1-6.1-3.5-6.2-3.8c0,0,3.1,12.2-4.4,8.4"/>
						<path id="XMLID_8555_" class="st1" d="M236.9,492.9c0,0-5.2,10.5-9.4,2.1"/>
						<path id="XMLID_8554_" class="st1" d="M217.2,459.1c0,0-18.6,25.9-3.8,29.6s7.4-6.6,3.2-6.2"/>
						<path id="XMLID_8553_" class="st1" d="M228,493.8c0,0-9.8,10.4-8.1-5.5l0.5-8"/>
					</g>
					<path id="XMLID_8551_" class="st1" d="M230.8,454.4c0,0,10-10.1,0-10.9"/>
				</g>
				<path id="XMLID_8549_" class="st0" d="M227.1,479.8c0,0-0.4,4.9,0.4,7.5"/>
				<path id="XMLID_8548_" class="st0" d="M235,485.6c0,0,0.1,3.5,0.9,3.5"/>
				<path id="XMLID_8547_" class="st1" d="M235.9,471.6c0.7,2.2,3.6,7,3.6,7"/>
			</g>
		</g>
		<path id="XMLID_8545_" class="st2" d="M211.6,264.2c-2.2,4.2,4.1,60.6,3.8,65.5c-0.3,4.9,1.6,5.5,15.3,5c13.7-0.5,7-90.3,1.4-98.4
			c-1.9-2.9-9.6-5.6-18.7-8.1"/>
		<g>
			<path class="st5" d="M206.3,250.8c0,0-13.7-5.1-14.6-0.4c-0.9,4.8-5.4,20,2.8,21.1c8.1,1,11.8,0.8,12.1-6.1
				S206.3,250.8,206.3,250.8z"/>
			<g>
				<path id="XMLID_8527_" class="st0" d="M205.7,251.2c0,0,1.8,1.4,0.8,2.9"/>
				<path id="XMLID_8526_" class="st0" d="M193.3,250.5c0,0-2.5,1.2-3.2,2.4"/>
				<path id="XMLID_8525_" class="st0" d="M206.1,262.2c0,0,0.8-2.6,0.3-4"/>
				<path id="XMLID_8524_" class="st0" d="M192.6,270.7c0,0,2.6,1.1,3.9,0.8"/>
				<path id="XMLID_8523_" class="st0" d="M204.5,268.7c0,0-0.9,2-2.6,1.4"/>
				<path id="XMLID_8522_" class="st0" d="M190.5,257.8c0,0-0.4,1.9-0.9,2.4"/>
				<line id="XMLID_8521_" class="st4" x1="200.3" y1="250" x2="197.6" y2="249.9"/>
				<path id="XMLID_8520_" class="st0" d="M189.6,264.9c0,0-0.6,2.7-0.1,4"/>
			</g>
			<g>
				<path id="XMLID_8519_" class="st0" d="M159.5,439.2c0,0-1.7-2.9-0.4-4.6"/>
				<path id="XMLID_8518_" class="st0" d="M163.3,426.8c0,0-1.9,2-2.2,3.4"/>
				<path id="XMLID_8517_" class="st0" d="M162.2,443.9c0,0,0.8,2.6,1.8,3.5"/>
			</g>
		</g>
		<g id="XMLID_8439_">
			<g id="XMLID_8513_">
				<path id="XMLID_8516_" class="st0" d="M139.9,133.5c0,0-17.5-23.2-17.9-5.1c-0.5,18.1,4.5,37.6,10.9,35.1
					c6.5-2.4,6.6-7.8,6.6-7.8"/>
				<path id="XMLID_8515_" class="st0" d="M134.1,134.7c0,0-6.8-10.6-8.5-5.6"/>
				<path id="XMLID_8514_" class="st0" d="M136.7,142.1c0,0-10.1-2.7-8.6,3.2c1.4,5.8,5.1,9.7,6.8,3.2"/>
			</g>
			<path id="XMLID_8512_" class="st6" d="M192.4,52.1c0,0-6.6,5.8,1.6,8.4C202.1,63.2,199.5,49.2,192.4,52.1z"/>
			<path id="XMLID_8511_" class="st0" d="M178.5,66.2c0,0,52.4,3.8,45.2,65.7s-5.4,73.3-35,79.6s-45.8-15.4-49.1-31.9
				S112.7,74.3,178.5,66.2z"/>
			<path class="st7" d="M203.1,75.3c6.6,9.8,10.7,23.8,8.3,44.3c-7.4,61.9-5.4,73.3-34.9,79.6c-12.7,2.7-22.9,0.3-30.7-4.6
				c7.7,11.8,21.9,21.4,42.9,16.9c29.6-6.3,27.6-17.6,34.9-79.6C227.4,100.3,215.6,83.9,203.1,75.3z"/>
			<path id="XMLID_8510_" class="st2" d="M220.7,81c-0.2-2-1.1-4.6-2.9-7.9c0-0.1-0.1-0.1-0.1-0.1l0,0c-0.4-0.7-0.8-1.4-1.3-2.1
				c-5.9-9.2-15.4-14.5-24.2-17.2c-37.6-16.9-41.4,18.8-41.5,32.2c0,1.3,16.9-0.2,32.4-4c19.6,7.9,38.1,16.7,38.1,16.7
				S222.5,87.1,220.7,81z"/>
			<path id="XMLID_8509_" class="st0" d="M173.1,137.2c0,0,9.4,7,21.5,2.7"/>
			<path id="XMLID_8508_" class="st0" d="M150.2,137.5c0,0-15.1,3.2-18.3,1.9"/>
			<path id="XMLID_8507_" class="st0" d="M160.2,206.1c0,0-6.2,5.8,6.7,8.3s21.3-0.9,18.8-5.7"/>
			<path id="XMLID_8506_" class="st2" d="M141.4,90.8c0,0,20.1-8.2,43.6-3s35.9,10.7,35.9,10.7c-7.6-26-53.2-26.2-76.2-24.7
				c-23.1,1.5-17,10.3-17,10.3S131.2,88.3,141.4,90.8z"/>
			<path id="XMLID_8505_" class="st0" d="M141.4,90.8c0,0-39.8-11.1,15.3-13.5c55.1-2.5,64.2,21.2,64.2,21.2S170,76.5,141.4,90.8z"
				/>
			<g>
				<path id="XMLID_8504_" class="st0" d="M169.7,141.8c0,0-9.4-11.8-9.2-18.3"/>
				<g id="XMLID_8501_">
					<path id="XMLID_8503_" class="st0" d="M153.3,143.1c0.3,3.1,1.3,5.2,3.3,5.6c1.1,0.2,2.1,0.2,2.9-0.1c0.6-0.1,1.1-0.4,1.6-0.6"
						/>
					<path id="XMLID_8502_" class="st0" d="M163.5,105.7c0,0-7.2,19.3-9.2,32.8"/>
				</g>
				<g id="XMLID_8495_">
					<path id="XMLID_8500_" class="st0" d="M149.9,144.7c0,0-6.9,8.1,4.2,10.4"/>
					<path id="XMLID_8499_" class="st0" d="M169.1,144.7c0,0,7.4,6.1-3.1,10.4"/>
					<path id="XMLID_8498_" class="st0" d="M163.6,149.8c1.1,0.3,2.6-1.9,3.8,0c1.2,1.9-0.1,1.4-1.7,1.8
						C164.1,152,162.5,149.5,163.6,149.8z"/>
					<path id="XMLID_8497_" class="st0" d="M153,152.6c-2.1-0.1-2.6-1.8-1.5-2.7c0.4-0.3,1.6,0.2,2.8,0.9
						C155.1,151.3,153,152.6,153,152.6z"/>
					<path id="XMLID_8496_" class="st0" d="M160.5,140.5c0,0,2.2-0.1,2.7,0.7"/>
				</g>
				<path id="XMLID_8494_" class="st0" d="M145.8,149.7c0,0-6.1,3.1-7.9,3.7"/>
				<path id="XMLID_8493_" class="st0" d="M173.5,148.1c0,0,7.1,3.4,7.8,3.4"/>
			</g>
			<path id="XMLID_8492_" class="st0" d="M203.7,117.7c0,0,1,2.1-0.6,3"/>
			<path id="XMLID_8491_" class="st0" d="M198.2,138.7c0,0-0.4,1.8-1,2.5"/>
			<path id="XMLID_8490_" class="st0" d="M198.8,102.2c0,0,0.8-3.5,0-3.5"/>
			<path id="XMLID_8489_" class="st0" d="M147.7,90.3c0,0,3.3,0.4,2.9,1"/>
			<path id="XMLID_8488_" class="st0" d="M167.9,96.5c0,0,3.8-0.6,4.1-1.3"/>
			<path id="XMLID_8486_" class="st0" d="M149.1,190.8c0,0,2.8,0.6,3,1.2"/>
			<path id="XMLID_8485_" class="st0" d="M172.5,192c0,0-2.6,1.2-3.3,2.4"/>
			<path id="XMLID_8484_" class="st0" d="M146.5,130.4"/>
			<path id="XMLID_8483_" class="st0" d="M164.8,132.5"/>
			<line id="XMLID_8482_" class="st4" x1="191" y1="152.9" x2="193.7" y2="152.2"/>
			<path id="XMLID_8481_" class="st0" d="M216.3,140.1c0,0,19.4-21.6,18.4-3.6c-1.1,18.1-7.7,37.1-13.9,34.1s-5.9-8.4-5.9-8.4"/>
			<path id="XMLID_8480_" class="st0" d="M221.9,141.8c0,0,7.7-10,9-4.8"/>
			<path id="XMLID_8479_" class="st0" d="M218.7,148.9c0,0,10.2-1.8,8.3,3.9c-1.9,5.7-5.9,9.2-7.1,2.7"/>
			<g>
				<path id="XMLID_8478_" class="st8" d="M134,98.6c0,0,35.8-3.4,22.8,25.4S104,118.7,134,98.6z"/>
				<path id="XMLID_8477_" class="st6" d="M135.6,113.5c0,0,5.4-2.2,4.8,3.4C139.8,122.4,131.9,118.3,135.6,113.5z"/>
				<path id="XMLID_8476_" class="st8" d="M173.8,102.6c0,0-26.2,23.1,6.4,33.7S202.3,90.9,173.8,102.6z"/>
				<path id="XMLID_8475_" class="st6" d="M192,116.7c0,0,5.4-2.2,4.8,3.4S188.3,121.5,192,116.7z"/>
				<path id="XMLID_8474_" class="st6" d="M175.9,98c0,0-12.1,1.4-3.4,9.9s25.2,0.3,24.3-2.7S194.3,97.1,175.9,98z"/>
				<path id="XMLID_8452_" class="st6" d="M140.8,92.9c0,0-18.6-1-10,9.3c8.6,10.3,23.9-0.2,25.1-4.7S140.8,92.9,140.8,92.9z"/>
				<g id="XMLID_8449_">
					<path id="XMLID_8451_" class="st0" d="M195.6,135.3c0.2,0.1,0.4,0.2,0.7,0.2c0.9,0.2,1.8,0.4,2.8-0.6c2.2-2.4-2.9-3.2-2.9-3.2
						l-5.7-0.4c0,0-12.1-0.8-19.1,1.1c0,0,10.5,5.6,16.9,5.2c0.8-0.1,1.4-0.2,2.1-0.4C190.9,136.9,194.5,135,195.6,135.3z"/>
					<path id="XMLID_8450_" class="st0" d="M137.9,128.3c0,0,7.1-1.3,14.9,1.1c0,0-3.9,8.4-16.4,4.6c-4.1-1.2-4.9,1.1-7.2-1.4
						c-2.2-2.4,2.9-3.1,2.9-3.1L137.9,128.3z"/>
				</g>
			</g>
			<g id="XMLID_8444_">
				<path id="XMLID_8448_" class="st6" d="M146.2,169.3c0,0-19.2,2.5-8.5,9.5C148.4,185.7,146.2,169.3,146.2,169.3z"/>
				<path id="XMLID_8447_" class="st6" d="M143.4,163.7c0,0-15.8-0.9-8.6,7.3c7.4,8.2,20.4-0.2,21.4-3.7S143.4,163.7,143.4,163.7z"
					/>
				<path id="XMLID_8446_" class="st6" d="M175.1,167.7c0,0-7.7-2.6-6.4,7.2c1.3,9.8,14.7,8.1,15.5,5.3S186.3,172.7,175.1,167.7z"/>
				<path id="XMLID_8445_" class="st6" d="M168.5,165.1c0,0-22.5-2.8-0.3,8S194.1,168.5,168.5,165.1z"/>
			</g>
			<g id="XMLID_8440_">
				<path id="XMLID_8443_" class="st0" d="M148.4,178.7c0,0,11.8,11.6,18.3,0"/>
				<path id="XMLID_8442_" class="st0" d="M151.1,176.9c0,0,3.2-3.4,5.7,0"/>
				<path id="XMLID_8441_" class="st0" d="M162.4,176.9c0,0-3.2-3.4-5.6,0"/>
			</g>
		</g>
		<path id="XMLID_8438_" class="st0" d="M191.3,235.2c0.9-0.3,1.7-0.9,2.4-2.2"/>
		<path id="XMLID_8437_" class="st0" d="M159.6,228.3c0,0,0.2,1.1,1,2.1"/>
		<path id="XMLID_8436_" class="st0" d="M166.7,237.8c0.2,0.1,0.6,0.3,0.9,0.4"/>
		<path id="XMLID_8435_" class="st2" d="M139.8,380.7c0,0,2.8-93.9-1.7-107.4"/>
	</g>
	<g>
		<path class="st0" d="M119.3,667.6c-0.2-1.8-0.8-4-1.3-6.7c-0.5-2.5-1-5.4-1.2-8.9c0.1,0,0.1,0,0.1,0s0,0,0-0.1
			c0.1-0.5,0.5-3,1.2-6.8l-14.7-4.3l-0.8-0.2l-0.8-0.1c-0.3,1.1-0.6,1.8-0.8,2.3c0,0-0.1,0.1-0.1,0.2c-0.1,0.1-0.2,0.2-0.3,0.2
			c-0.4,0.3-0.7,0.6-0.7,0.6s-0.8,0.5-2,1.2C94,655.3,85.4,660,76,661.9c-0.1,0.9,0.1,1.8,0.8,2.8c0.2,0.3,0.4,0.6,0.7,0.9
			c1,1.1,2.7,2.1,4.9,3c1.7,0.7,3.6,1.4,5.9,2c1.4,0.4,2.9,0.8,4.4,1.2c1.2,0.3,2.4,0.6,3.6,0.9c1.2,0.2,2.5,0.4,3.7,0.6
			c1.6,0.3,3.1,0.5,4.5,0.6c2.3,0.3,4.4,0.4,6.2,0.4c2.4,0,4.4-0.2,5.7-0.9c0.4-0.2,0.7-0.4,1-0.6c1.2-0.8,1.8-1.8,2-3.1
			C119.4,669.1,119.4,668.4,119.3,667.6z"/>
		<path class="st0" d="M134.9,551.8c1-3.9,2.1-8.5,3.4-13.6c28.5-39.2,72.1-99.8,77.1-102.1L195.5,415c0,0-22.9,39.4-45.5,74.1
			c-2.9,4.4-5.8,8.8-8.6,13c-3,4.3-5.8,8.3-8.3,11.9l0,0c-6.3,8.9-8.7,13.2-8.5,14.6c-0.2,0.4-0.4,0.7-0.6,1.1
			c-1.3,9.3-3.8,22.6-6.6,36.8c-7.3,36-17.1,78.1-17.1,78.1l16.3,4.7C116.6,649.5,125,590.8,134.9,551.8z"/>
		<g>
			<g id="XMLID_8433_">
				<path id="XMLID_8434_" class="st0" d="M62.2,661c0,0,6.1,0.6,2.9,5C62.1,670.3,56.6,663.3,62.2,661z"/>
			</g>
			<g id="XMLID_8431_">
				<path id="XMLID_8432_" class="st0" d="M65.8,661c0,0,6.7,0.7,3.3,5.5C65.6,671.3,59.5,663.6,65.8,661z"/>
			</g>
			<g id="XMLID_8429_">
				<path id="XMLID_8430_" class="st0" d="M70.2,660.7c0,0,7.8,0.8,3.8,6.4C70,672.8,62.9,663.8,70.2,660.7z"/>
			</g>
			<g id="XMLID_8427_">
				<path id="XMLID_8428_" class="st0" d="M75.7,660.7c0,0,8.9,0.9,4.4,7.3C75.5,674.4,67.4,664.1,75.7,660.7z"/>
			</g>
			<path id="XMLID_8426_" class="st0" d="M84.2,671.6c0,0-10.5-1.4-4.4-7.2s13.3,2.8,13.4,5.8C93.4,673.3,84.2,671.6,84.2,671.6z"/>
		</g>
		<path id="XMLID_8425_" class="st0" d="M136.3,516.3c0,0,2.2,0.6,1.9,2.4"/>
		<path id="XMLID_8424_" class="st0" d="M129.5,532c0,0-2.5-1.4-2.5-2"/>
		<g id="XMLID_8422_">
			<path id="XMLID_8423_" class="st0" d="M102.4,649c-7,3.7-9.6-9.1-0.6-8.5"/>
		</g>
		<g id="XMLID_8420_">
			<path id="XMLID_8421_" class="st0" d="M125.9,526.6c-7.9,0.6-5.2-12.2,2.8-8.1"/>
		</g>
	</g>
</g>
</svg>
