<?xml version="1.0" encoding="utf-8"?>
<!-- Generator: Adobe Illustrator 22.1.0, SVG Export Plug-In . SVG Version: 6.00 Build 0)  -->
<svg version="1.1" id="Layer_1" xmlns="http://www.w3.org/2000/svg" xmlns:xlink="http://www.w3.org/1999/xlink" x="0px" y="0px"
	 viewBox="0 0 464.1 1401.5" style="enable-background:new 0 0 464.1 1401.5;" xml:space="preserve">
<style type="text/css">
	.st0{opacity:0.1;fill:#231F20;stroke:#231F20;stroke-miterlimit:10;enable-background:new    ;}
	.st1{fill:#A36B78;stroke:#584C4F;stroke-width:2;stroke-linecap:round;stroke-miterlimit:10;}
	.st2{fill:#A36B78;stroke:#584C4F;stroke-width:2;stroke-linecap:round;stroke-linejoin:round;stroke-miterlimit:10;}
	.st3{fill:#FFD767;stroke:#584C4F;stroke-width:2;stroke-miterlimit:10;}
	.st4{fill:#A36B78;}
	.st5{fill:none;stroke:#584C4F;stroke-width:2;stroke-linecap:round;stroke-miterlimit:10;}
	.st6{fill:#BEAB72;}
	.st7{fill:#584C4F;stroke:#584C4F;stroke-width:2;stroke-linecap:round;stroke-miterlimit:10;}
	.st8{fill:#FFFFFF;stroke:#584C4F;stroke-width:2;stroke-linecap:round;stroke-miterlimit:10;}
</style>
<g id="Layer_5">
</g>
<g id="Layer_3">
</g>
<g>
	<path class="st0" d="M467.8,1320c-22-69.1-61.4-96.4-111.4-107.8c0,0-11.8-1.7-31-3.4c-2-59.8-4.7-159.5-0.9-193.6
		c1.8-2.2,2.6-11.6,1.8-32.7l0-0.1c-0.1-8.4-0.4-17.8-0.7-28c-0.3-23.6-0.1-49.1,0.4-73.8c1.1,0.5,2.2,0.9,3.5,1.2l0,0
		c0.6,0.2,1.3,0.3,1.9,0.4c0.1,0,0.3,0.1,0.4,0.1c0.6,0.1,1.2,0.2,1.8,0.4l0.1,0c0.6,0.1,1.2,0.2,1.7,0.3l0,0
		c2.9,0.4,5.1,0.5,6.9,0.2c-1.4,20.9,9,14.6,14,10.5l2.2,0.9c6.3,11.1,13.6,2.4,16.8-2.4c0-0.1,0.1-0.1,0.1-0.2
		c0.1-0.1,0.1-0.2,0.2-0.3c0-0.1,0.1-0.1,0.1-0.2c0.1-0.1,0.1-0.2,0.2-0.3c0-0.1,0.1-0.1,0.1-0.2c0-0.1,0.1-0.2,0.1-0.2l0,0l0.3,3
		l0,0c0.4,0.2,0.8,0.4,1.2,0.5c0.1,0,0.2,0.1,0.3,0.1c0.3,0.1,0.6,0.2,0.8,0.3c0.1,0,0.2,0.1,0.3,0.1c0.3,0.1,0.7,0.2,1,0.2l0,0
		c0.3,0.1,0.6,0.1,0.9,0.1c0.1,0,0.2,0,0.2,0c0.2,0,0.4,0,0.6,0c0.1,0,0.1,0,0.2,0c0.3,0,0.5-0.1,0.7-0.1l0,0
		c0.2-0.1,0.4-0.1,0.6-0.2c0.1,0,0.1-0.1,0.2-0.1c0.2-0.1,0.3-0.2,0.5-0.3l0.1-0.1c0.2-0.1,0.3-0.3,0.5-0.5l0,0
		c0.1-0.2,0.3-0.3,0.4-0.5l0.1-0.1c0.1-0.2,0.2-0.3,0.3-0.5c0,0,0-0.1,0.1-0.1c0.1-0.2,0.2-0.4,0.3-0.7c0,0,0,0,0-0.1
		c0.1-0.2,0.1-0.4,0.2-0.7c0-0.1,0-0.1,0.1-0.2c0.1-0.2,0.1-0.4,0.1-0.6c0-0.1,0-0.1,0-0.2c0-0.3,0.1-0.5,0.1-0.8c0-0.1,0-0.1,0-0.2
		c0-0.2,0-0.5,0.1-0.7c0-0.1,0-0.2,0-0.3c0-0.2,0-0.4,0-0.6c0-0.1,0-0.2,0-0.3c0-0.3,0-0.5,0-0.8c0-0.1,0-0.2,0-0.3
		c0-0.2,0-0.4,0-0.5c0-0.1,0-0.3,0-0.4c0-0.1,0-0.3,0-0.4c0-0.1,0-0.3,0-0.4c0-0.2,0-0.3,0-0.5c0-0.2,0-0.5-0.1-0.7
		c0-0.1,0-0.2,0-0.2c0-0.2,0-0.4-0.1-0.5l0-0.1c-0.1-0.4-0.1-0.8-0.2-1.1c0.5,0.8,1.3,1.6,2.7,2.3l0,0c0.2,0.1,0.4,0.2,0.6,0.2
		l0.1,0c0.2,0.1,0.4,0.1,0.6,0.2c0.1,0,0.1,0,0.2,0.1c0.2,0.1,0.4,0.1,0.6,0.2c0.1,0,0.2,0,0.3,0.1c0.2,0,0.4,0.1,0.6,0.1
		c0.1,0,0.2,0,0.3,0.1c0.2,0,0.4,0.1,0.6,0.1c0.1,0,0.3,0,0.4,0.1c0.2,0,0.4,0,0.6,0.1c0.2,0,0.3,0,0.5,0c0.2,0,0.4,0,0.6,0
		c0.2,0,0.3,0,0.5,0c0.2,0,0.5,0,0.7,0c0.2,0,0.4,0,0.5,0c0.3,0,0.6,0,0.9,0c0.1,0,0.3,0,0.4,0c11.9-0.3-14.5-44.9-24.8-61.5
		c-1.3-2.1-2.3-3.8-3-4.9c-0.1-2.8-0.4-6.2-0.6-10c3.3-4.8,5.5-10.8-0.7-13.3c-0.1-2.5-0.2-5-0.4-7.7c2.7-6.3,4.5-12.5,5.2-18.4
		c0.3,0,0.5,0,0.5,0s0.6-13.4,0.9-30c22.7-5.6,16.5-72.7,10.7-112.1c-0.2-1.5-0.4-2.9-0.6-4.4c-1.8-11.6-3.5-20.3-4-23.1
		c-1.1-5.2-2.8-29.3-4.6-59c2.7-40.8-2.3-100.3-8.1-130.2c-0.2-2.5-0.4-4.6-0.7-6.2c-0.1-0.8-0.2-1.7-0.4-2.5
		c-1.7-7.2-6.7-12.8-12.9-17.3c-8.5-6.1-19.1-9.8-26.1-11.9c-8-6.3-21-11.4-38-14.1l1.8-6.4c0.1-2.3-0.1-6.2-0.5-10.4
		c10.4-3.4,18.1-7.7,24.1-13.8c1.5-1.5,2.9-3.1,4.2-4.9c0.4-0.5,0.7-1,1.1-1.5c0.7-1,1.4-2.1,2-3.3c0.3-0.6,0.6-1.1,0.9-1.7
		c1.8-3.5,3.3-7.5,4.8-11.9c0.2-0.7,0.5-1.5,0.7-2.3c0.9-3.1,1.6-6.4,2.4-9.9c1-4.4,1.8-9.3,2.6-14.5c0.3-2.1,0.7-4.3,0.9-6.5
		c0.3-2.1,0.6-4.2,0.8-6.4c0.9,0.6,1.9,1.1,3,1.7c12.5,5.7,25.3-31.3,27.2-66.2c1.1-20.5-11.6-14.5-22.4-6c0.1-0.9,0.2-1.9,0.3-2.8
		c0,0,0,0,0-0.1c0.2-1.9,0.4-3.7,0.6-5.5c0.1-0.6,0.1-1.2,0.1-1.9c0.1-1.2,0.2-2.4,0.3-3.6c0-0.7,0.1-1.4,0.1-2.2
		c0.1-1,0.1-2.1,0.2-3.1c0-0.7,0-1.5,0-2.2c0-1,0.1-1.9,0.1-2.9c0-0.7,0-1.5,0-2.2c0-0.9,0-1.8,0-2.7c0-0.7-0.1-1.5-0.1-2.2
		c0-0.9-0.1-1.8-0.1-2.6c0-0.7-0.1-1.4-0.2-2.1c-0.1-0.8-0.1-1.7-0.2-2.5c-0.1-0.7-0.1-1.4-0.2-2.1c-0.1-0.8-0.2-1.6-0.3-2.4
		c-0.1-0.7-0.2-1.3-0.3-2c-0.1-0.8-0.2-1.6-0.4-2.4c-0.1-0.6-0.2-1.3-0.3-1.9c-0.1-0.8-0.3-1.5-0.4-2.3c-0.1-0.6-0.3-1.2-0.4-1.8
		c-0.2-0.7-0.3-1.5-0.5-2.2c-0.1-0.6-0.3-1.2-0.4-1.7c-0.2-0.7-0.4-1.5-0.6-2.2c-0.2-0.6-0.3-1.1-0.5-1.6c-0.2-0.7-0.4-1.4-0.6-2.1
		c-0.2-0.5-0.3-1-0.5-1.6c-0.2-0.7-0.5-1.4-0.7-2.1c-0.1-0.2-0.1-0.4-0.2-0.6c0.1,0,0.1,0,0.1,0s0,0,0-0.1c0.4,0.2,0.6,0.3,0.6,0.3
		s2.5-22.3-1.3-34.2c-0.4-4-2.3-9-5.9-15.3c0-0.1-0.1-0.1-0.1-0.1l0,0c-0.8-1.3-1.6-2.7-2.6-4.2c-8.7-13.3-21.8-22.3-35.1-28.1
		c-1.1-5.4-6.1-10.7-13.2-7.8c0,0-1,0.9-2.1,2.2c-56-22.9-73.5,10.8-78.7,39.8c-5.2,0.2-10,0.5-14.4,0.8
		c-45.2,3.2-34.1,19.6-33.6,20.2c1.2,2.5,5.4,4.9,10.1,6.9c3.9,2,9.2,4,16,5.6c-0.8,1.4-1.5,2.8-2.2,4.3c-7.6,0-31,1.3-18.7,16.9
		c-14.6,12.8-16.7,27.4-12,39.5c-2.6,1.5-4.3,5.3-4.4,12.7c-0.6,35,9.6,72.7,22.5,67.9c2.6-1,4.7-2.2,6.4-3.6
		c0.3,1.6,0.6,3.2,0.9,4.7c-6.2,1.6-10.8,5.2-3.2,13.1c0.9,1,1.9,1.9,2.9,2.6c-4.6,2.9-5.8,7.1,3,12.5c1.4,0.9,2.7,1.6,3.9,2.1
		c2,9.2,6.2,19.1,12.4,28.4l0,0l0,0c0.9,1.4,1.9,2.8,3,4.2l0.1,0.1c1,1.3,2.1,2.7,3.2,4l0.1,0.1c0.6,0.6,1.1,1.3,1.7,1.9l0,0
		c0.6,0.6,1.2,1.3,1.9,1.9l0,0c0.6,0.6,1.2,1.2,1.8,1.8c0.1,0.1,0.1,0.1,0.2,0.2c1.3,1.2,2.6,2.3,3.9,3.4c0.1,0.1,0.2,0.2,0.3,0.2
		c0.7,0.5,1.3,1.1,2,1.6l0,0c0.7,0.5,1.4,1.1,2.2,1.6c0.1,0.1,0.2,0.1,0.3,0.2c0.6,0.4,1.3,0.9,1.9,1.3c0.1,0.1,0.2,0.1,0.3,0.2
		c0.7,0.5,1.5,1,2.3,1.4c0,0,0,0,0.1,0c0.5,0.3,0.9,0.5,1.4,0.8c-1.2,2.2-1.8,5.5,2.3,8.5c0,4.2,0.1,7.7,0.2,9.6
		c0,0.8,0,1.5,0.1,2.2l0,0c-1,0.1-1.9,0.2-2.9,0.3c-0.2,0-0.3,0-0.5,0.1c-1,0.1-2.1,0.3-3.1,0.4c-0.1,0-0.3,0-0.4,0.1
		c-1.1,0.2-2.1,0.3-3.2,0.5l-0.1,0c-1.1,0.2-2.1,0.4-3.2,0.6c-0.1,0-0.2,0-0.2,0c-1,0.2-2.1,0.4-3.1,0.7c-0.1,0-0.3,0.1-0.4,0.1
		c-1,0.2-2,0.5-3,0.7c-0.2,0-0.3,0.1-0.5,0.1c-1,0.3-1.9,0.5-2.9,0.8c-0.2,0-0.3,0.1-0.5,0.1c-1,0.3-1.9,0.6-2.9,0.9
		c-0.1,0-0.3,0.1-0.4,0.1c-1,0.3-1.9,0.7-2.9,1.1c-0.1,0-0.1,0.1-0.2,0.1c-1,0.4-1.9,0.8-2.8,1.2c-0.1,0-0.1,0-0.2,0.1
		c-0.9,0.4-1.8,0.9-2.7,1.3c-0.1,0.1-0.2,0.1-0.3,0.2c-0.9,0.4-1.7,0.9-2.5,1.4c-0.1,0.1-0.3,0.2-0.4,0.2c-0.8,0.5-1.6,1-2.4,1.5
		c-0.1,0.1-0.3,0.2-0.4,0.3c-0.8,0.5-1.6,1.1-2.3,1.7c-0.1,0.1-0.2,0.2-0.3,0.3c-0.8,0.6-1.5,1.2-2.3,1.9c-0.1,0.1-0.1,0.1-0.2,0.2
		c-0.7,0.7-1.4,1.3-2.1,2c-9.8,3.4-17,6.9-19.5,10.6c-10.4,15-21.5,171,0.3,188.9c0.6,12.5,1.2,24.3,1.8,34.9
		c-10.2,1.8-9.5,17.7,1,17.3c0.1,2.9,0.3,5.7,0.5,8.4c0.1,2.3,0.2,4.6,0.4,7c0,0.1-0.1,0.3-0.1,0.4c-0.4,1.5-0.8,2.9-1.2,4
		c-6.2,16.5-13.7,58-5.3,73.3c0.1,0.2,0.2,0.4,0.4,0.6c1.3,2.1,2.9,3.7,4.9,4.5c0.4,9.9,0.9,19,1.4,25.2c0.1,2,0.2,4.1,0.6,6.1
		c0.1,0.7,0.2,1.3,0.3,1.7l0.1,0.1c0,0.1,0,0.2,0.1,0.3c-0.3,17.3-0.8,32.7-1.2,44.6c-5.1,4.5-10.1,11.2-0.5,13.5
		c-0.1,2.3-0.2,4.2-0.2,5.9c-4.3,4.4-5.3,22.6-5.3,22.6s-3,81.8,3.8,47.1c6.8-34.9,10.3-31.3,7.3,10.4
		c-2.9,41.7,14.5-42.8,17.2-29.5s12.3,98.5,11.4-8.1c0,0-8.6-49.4,13,28.1c21.8,77.5-4.8-48.8-6.6-55.1c-1-3.9,8.7,10.7,14.9,18.8
		c1.4,31.1,2.5,65.2,2.6,96c-0.2,10.2-0.3,19.7-0.3,28l0,0.1c-0.2,10.1-0.1,17.6,0.3,22.8c-8.3,3.3-7,17.3,2.8,16.8
		c3.4,38.3,2.7,126.6,1.8,183c-75.4,3.4-160.1,19.8-196.4,72.5c-72.2,104.9,150.8,123.9,181.1,122.8
		C231.5,1400.2,489.7,1389.1,467.8,1320z M327.8,817.1c3.3-0.8,6.3-1.7,9.1-2.5c-0.1,4.4-0.1,7.7-0.2,9.6l-0.1,0
		c0,0-4.8,6.6-9.6,15.4C327.2,831.7,327.5,824.2,327.8,817.1z M187,823.1l-0.2,0c-0.1-4.2-0.5-11.3-0.8-20.5
		c6.1,4,13.2,7.7,20.9,10.6c0.7,11.6,1.3,24.3,1.9,37.8C203.3,839.6,198.5,834.4,187,823.1z M245.4,1066.7
		c2.4-54.8,5.2-174.3,9-244.1c2.5,0.1,5.1,0.3,7.7,0.2c6.6,0,12.8,0,18.5-0.3c3.6,50.5,7.2,126.7,10.1,185.8
		c-6.3,2.7-8.5,13.7,0.8,16.9c0.8,15.7,1.6,29.7,2.3,41c2.7,44.2,2.2,100.1,1.1,140.3c-14.6-0.8-31-1.3-48.4-1.3
		C245,1165.2,243.5,1110.2,245.4,1066.7z"/>
	<g>
		<g>
			<g id="XMLID_4075_">
				<path id="XMLID_4076_" class="st1" d="M128.5,618.6c-15.2,4.3-15.1-21.9,2.3-16.9"/>
			</g>
			<path id="XMLID_4074_" class="st1" d="M116,428.2c3.9,69.6,7.5,155.1,10.1,199.5c4.8,80.5-0.6,198.8-0.6,198.8l33.8-3.2
				c0,0-8.7-208.7-2.2-252.7c4.6-31.4-5-147.8-8.4-215.6"/>
			<g id="XMLID_4072_">
				<path id="XMLID_4073_" class="st1" d="M159.3,819c14,14.4,18.2,19,25.8,37.9c7.7,18.8-20-26.7-18.4-20
					c1.7,6.7,28.3,137.1,6.6,57s-13.1-29-13.1-29c1,110.1-8.7,22.1-11.4,8.4s-20.2,73.6-17.2,30.5c2.9-43.1-0.5-46.8-7.3-10.7
					c-6.8,36-3.8-48.6-3.8-48.6s1.4-26.5,8-24.3"/>
			</g>
			<path id="XMLID_4071_" class="st1" d="M138.4,602.5c0,0,5.6,1.2,6,2.3"/>
			<path id="XMLID_4070_" class="st1" d="M137.8,615.8c0,0-4.5,0.8-5.5-2.7"/>
			<path id="XMLID_4069_" class="st2" d="M132.5,796.1c0,0-27,18.5,0.2,19.7"/>
		</g>
		<path id="XMLID_4068_" class="st3" d="M164,425.7c4.5,8.5-7.1,121.4-6.5,131.2c0.7,9.7-3.1,10.9-30.5,10.2
			c-27.4-0.8-15.6-180.5-4.6-196.9c3.9-5.7,19.1-11.5,37.3-16.4"/>
		<g>
			<path class="st1" d="M234.4,1303.8c-1.1-3.5-3.2-7.6-5.3-12.6c-2-4.7-4.2-10.2-5.9-16.8c0.2,0,0.3,0,0.3,0s0-0.1,0-0.2
				c0-1.1-0.2-6-0.4-13.8l-30.5-2.4l-1.7-0.1l-1.7,0.1c-0.2,2.2-0.4,3.8-0.7,4.8c0,0.1-0.1,0.3-0.1,0.4c-0.2,0.2-0.4,0.4-0.5,0.6
				c-0.7,0.8-1.1,1.4-1.1,1.4s-1.3,1.2-3.4,3.2c-3.6,21.5-18.4,34.4-36,41.9c0.2,1.8,1,3.5,2.6,5.1c0.5,0.5,1.1,1,1.8,1.5
				c2.3,1.7,6.1,2.9,10.8,3.8c3.6,0.7,7.7,1.2,12.3,1.5c2.9,0.2,5.9,0.3,9.1,0.5c2.4,0.1,4.9,0.2,7.4,0.2c2.5-0.1,5-0.1,7.4-0.4
				c3.2-0.1,6.2-0.4,9.1-0.7c4.6-0.4,8.7-1,12.3-1.7c4.7-1,8.5-2.3,10.8-4c0.7-0.5,1.3-1,1.8-1.5c2.1-2.1,2.8-4.3,2.6-6.8
				C235.2,1306.7,234.9,1305.3,234.4,1303.8z"/>
			<path class="st1" d="M175.6,750.7c0,0,8.3,115.5,8.6,204.8c-0.2,10.5-0.3,20.3-0.2,29l0,0.1c-0.4,21.8,0.6,31.6,2.4,33.8
				c6.4,51.5,1.6,248.4,1.6,248.4l33.8,2.6c0,0-7.4-118.2-4-198.8c3.4-80.5,7.5-296.1,14.3-307.3"/>
			<g>
				<g id="XMLID_4066_">
					<path id="XMLID_4067_" class="st1" d="M119.9,1314.2c0,0,12.1-1.3,7.8,8.5C123.5,1332.4,109.9,1321,119.9,1314.2z"/>
				</g>
				<g id="XMLID_4064_">
					<path id="XMLID_4065_" class="st1" d="M126.9,1312.7c0,0,13.4-1.4,8.7,9.4C130.8,1333,115.7,1320.3,126.9,1312.7z"/>
				</g>
				<g id="XMLID_4062_">
					<path id="XMLID_4063_" class="st1" d="M135.4,1310.4c0,0,15.6-1.6,10.1,11C139.9,1334,122.4,1319.3,135.4,1310.4z"/>
				</g>
				<g id="XMLID_4060_">
					<path id="XMLID_4061_" class="st1" d="M146.2,1308c0,0,17.9-1.9,11.5,12.6C151.4,1335,131.3,1318.2,146.2,1308z"/>
				</g>
				<path id="XMLID_4059_" class="st1" d="M167.4,1326c0,0-21.2,1.6-11.5-12.3s27.2,0.1,28.7,6C185.9,1325.6,167.4,1326,167.4,1326z
					"/>
			</g>
			<path id="XMLID_4058_" class="st1" d="M206,1000.7c0,0,4.6,0.3,4.6,4"/>
			<path id="XMLID_4057_" class="st1" d="M199.1,1034.1c0,0-5.4-1.7-5.7-3"/>
			<g id="XMLID_4055_">
				<path id="XMLID_4056_" class="st1" d="M193.7,1274.3c-12.1,10.1-22.5-14-4.6-16.4"/>
			</g>
			<g id="XMLID_4053_">
				<path id="XMLID_4054_" class="st1" d="M189.9,1025c-15.2,4.3-15.1-21.9,2.3-16.9"/>
			</g>
		</g>
		<path class="st1" d="M345.4,671.5l-222.2-6.4c0,0,1.6,58.9,3.3,81.3c0.1,2.1,0.2,4.2,0.6,6.3c0.1,0.7,0.2,1.4,0.3,1.7l0.1,0.1
			c6.5,34,45.6,63.7,107,64.2c100.2,0.7,102.6-29.8,102.6-29.8c4.8-9.1,7.5-17.9,8.6-26.2c0.3,0,0.5,0,0.5,0
			S349.3,689.3,345.4,671.5z"/>
		<g>
			<path class="st3" d="M357.9,616c-0.2-1.5-0.4-3-0.6-4.5c-1.8-12-3.5-20.9-4-23.8c-3-14.6-10.3-175.5-13.5-201.9
				c-0.1-0.9-0.2-1.7-0.4-2.6c-1.7-7.4-6.7-13.3-12.9-17.9c-8.5-6.3-19.1-10.2-26.1-12.3c-13.5-11.1-41.1-18.3-78.6-16.4
				c-35.5,1.8-90.4,2.9-92.6,56.5c-0.2,6.1-0.3,13,0.1,20.8c3.4,72.5,4.6,190-2.8,221.3c-0.4,1.6-0.8,3-1.2,4.1
				c-6.2,17-13.7,59.9-5.2,75.7c0.1,0.2,0.2,0.4,0.4,0.6c3.2,5.6,8.8,7.3,17.3,2.5c0,0,10.8-2.7,18.8-2.7l154.4,6.8
				c6.5,0.8,12.2,1.9,16.9,3C372.6,758.1,364.9,665.7,357.9,616z"/>
			<path class="st3" d="M128.9,408.9c0,1.7,0.1,3.4,0.2,5.2c3.4,72.5,4.6,190-2.8,221.3c-0.4,1.6-0.8,3-1.2,4.1
				c-6.2,17-13.7,59.9-5.2,75.7c0.1,0.2,0.2,0.4,0.4,0.6c3.2,5.6,8.8,7.3,17.3,2.5"/>
			<path class="st3" d="M156.4,715.8l154.4,6.8c6.5,0.8,12.2,1.9,16.9,3c44.9,32.6,37.2-59.7,30.1-109.4c-0.2-1.5-0.4-3-0.6-4.5
				c-1.8-12-3.5-20.9-4-23.8c-3-14.6-10.3-175.5-13.5-201.9c-0.1-0.9-0.2-1.7-0.4-2.6c-1.7-7.4-6.7-13.3-12.9-17.9
				c-8.5-6.3-19.1-10.2-26.1-12.3c-13.5-11.1-41.1-18.3-78.6-16.4c-32.7,1.7-81.6,2.7-91.1,44.5"/>
		</g>
		<path id="XMLID_4052_" class="st1" d="M346.7,500.8c0,0-15.8,187.2-8.3,214.7"/>
		<g>
			<path id="XMLID_4051_" class="st4" d="M264,331.8c0.3-6.9-2.1-26.7-2.6-33.2c-0.5-5.9-1.3-10.9-2.6-15.1
				c22.5-39.1-40.9-83.2-62.9-33.1c-6.9,15.7-5.7,45.9-5.6,51.1c0.3,6.7,0.6,29.2,0.6,35c0.4,32.6,49,58.1,67.6,15.4"/>
			<path id="XMLID_4050_" class="st5" d="M248.1,367.1c-22,19.5-56.8-3-57.2-30.5c-0.1-5.8-0.4-28.3-0.6-35
				c-0.1-5.2-1.3-35.4,5.6-51.1c22.1-50.2,85.4-6,62.9,33.1c1.3,4.2,2.2,9.2,2.6,15.1c0.5,6.4,3,26.2,2.6,33.2l-5.4,20.1
				c-1,2.3-2.1,4.4-3.2,6.2"/>
		</g>
		<g>
			<path class="st1" d="M302.9,749.6c0,0-6.3,115.7-5,205c0.4,10.5,0.7,20.3,0.8,29l0,0.1c0.8,21.8,0,31.6-1.8,33.8
				c-5.4,51.6,2.8,248.4,2.8,248.4l-33.8,3.2c0,0,5.4-118.4,0.6-198.8s-12.7-295.9-19.7-307"/>
			<path id="XMLID_4049_" class="st1" d="M287,1003.9c0,0-2.5-3.9-5.7-2.1"/>
			<path id="XMLID_4048_" class="st1" d="M273.7,1034.3c0,0,5.4-1.7,5.7-3"/>
			<g id="XMLID_4046_">
				<path id="XMLID_4047_" class="st1" d="M294,1259.4c12.1-10.1,22.5,14,4.6,16.4"/>
			</g>
			<g id="XMLID_4044_">
				<path id="XMLID_4045_" class="st1" d="M272,1012.3c-12.3-9.9-22.3,14.4-4.4,16.4"/>
			</g>
			<g>
				<path class="st1" d="M310.9,1308.9c-1.1-3.5-3.2-7.6-5.3-12.6c-2-4.7-4.2-10.2-5.9-16.8c0.2,0,0.3,0,0.3,0s0-0.1,0-0.2
					c0-1.1-0.2-6-0.4-13.8l-30.5-2.4l-1.7-0.1l-1.7,0.1c-0.2,2.2-0.4,3.8-0.7,4.8c0,0.1-0.1,0.3-0.1,0.4c-0.2,0.2-0.4,0.4-0.5,0.6
					c-0.7,0.8-1.1,1.4-1.1,1.4s-1.3,1.2-3.4,3.2c-3.6,21.5-18.4,34.4-36,41.9c0.2,1.8,1,3.5,2.6,5.1c0.5,0.5,1.1,1,1.8,1.5
					c2.3,1.7,6.1,2.9,10.8,3.8c3.6,0.7,7.7,1.2,12.3,1.5c2.9,0.2,5.9,0.3,9.1,0.5c2.4,0.1,4.9,0.2,7.4,0.2c2.5-0.1,5-0.1,7.4-0.4
					c3.2-0.1,6.2-0.4,9.1-0.7c4.6-0.4,8.7-1,12.3-1.7c4.7-1,8.5-2.3,10.8-4c0.7-0.5,1.3-1,1.8-1.5c2.1-2.1,2.8-4.3,2.6-6.8
					C311.7,1311.7,311.4,1310.4,310.9,1308.9z"/>
				<g>
					<g id="XMLID_4042_">
						<path id="XMLID_4043_" class="st1" d="M196.5,1319.2c0,0,12.1-1.3,7.8,8.5C200.1,1337.5,186.5,1326.1,196.5,1319.2z"/>
					</g>
					<g id="XMLID_4040_">
						<path id="XMLID_4041_" class="st1" d="M203.5,1317.9c0,0,13.4-1.4,8.7,9.4C207.4,1338.1,192.2,1325.5,203.5,1317.9z"/>
					</g>
					<g id="XMLID_4038_">
						<path id="XMLID_4039_" class="st1" d="M212,1315.5c0,0,15.6-1.6,10.1,11C216.5,1339.2,198.9,1324.4,212,1315.5z"/>
					</g>
					<g id="XMLID_4036_">
						<path id="XMLID_4037_" class="st1" d="M222.7,1313.1c0,0,17.9-1.9,11.5,12.6C228,1340.2,207.8,1323.2,222.7,1313.1z"/>
					</g>
					<path id="XMLID_4035_" class="st1" d="M243.9,1331.1c0,0-21.2,1.6-11.5-12.3c9.7-13.9,27.2,0.1,28.7,6
						C262.5,1330.7,243.9,1331.1,243.9,1331.1z"/>
				</g>
			</g>
		</g>
		<g>
			<g id="XMLID_4033_">
				<path id="XMLID_4034_" class="st1" d="M331.3,600.9c12.1-10.1,22.5,14,4.6,16.4"/>
			</g>
			<path id="XMLID_4032_" class="st1" d="M344.1,462.9c-2.1,60.9-3.8,126.1-5.3,163c-3.4,80.5,4,198.8,4,198.8l-33.8-2.6
				c0,0,5.1-208.9-2.2-252.7c-4.2-25.2-0.1-104.9,2.8-170.5"/>
			<path id="XMLID_4031_" class="st1" d="M325.2,601.5c0,0,4.6,0.3,4.6,4"/>
			<path id="XMLID_4030_" class="st1" d="M323.9,614.4c0,0-5.4-1.7-5.7-3"/>
			<g id="XMLID_4017_">
				<path id="XMLID_4029_" class="st4" d="M301.9,879.6c5.8,1.4,9.9,1.7,12.7,1.4c-1.4,21.6,9,15.1,14,10.8l2.2,1
					c7,12.6,15.3,0.2,17.7-4.1l0.3,3.1c11.2,5.6,10.5-6.5,9.5-13.1c1.1,2,4,3.9,11.8,3.7c14.6-0.4-28.7-70-28.7-70l-32.4,7.8
					C308.9,820.2,272.2,872.4,301.9,879.6z"/>
				<path id="XMLID_4028_" class="st1" d="M308.9,820.2c0,0-36.7,52.1-7.1,59.4c5.8,1.4,9.9,1.7,12.7,1.4c-1.4,21.6,9,15.1,14,10.8
					l2.2,1c7,12.6,15.3,0.2,17.7-4.1l0.3,3.1c11.2,5.6,10.5-6.5,9.5-13.1c1.1,2,4,3.9,11.8,3.7c14.6-0.4-28.7-70-28.7-70"/>
				<g id="XMLID_4021_">
					<g id="XMLID_4023_">
						<path id="XMLID_4027_" class="st2" d="M341.4,812.5c0,0,43.4,69.5,28.7,70c-14.6,0.4-12.2-6.9-12.6-7.5c0,0,6.3,24.4-8.8,16.9
							"/>
						<path id="XMLID_4026_" class="st2" d="M349,887.5c0,0-10.3,21-18.8,4.5"/>
						<path id="XMLID_4025_" class="st2" d="M308.9,820.2c0,0-36.7,52.1-7.1,59.4c29.7,7.2,14.8-13.3,6.3-12.5"/>
						<path id="XMLID_4024_" class="st2" d="M331.1,889.3c0,0-19.4,21-16.4-10.8l0.9-15.9"/>
					</g>
					<path id="XMLID_4022_" class="st2" d="M336.1,810.5c0,0,19.8-20.5-0.2-21.8"/>
				</g>
				<path id="XMLID_4020_" class="st1" d="M329.2,861.4c0,0-0.8,9.7,0.9,15"/>
				<path id="XMLID_4019_" class="st1" d="M345.1,872.9c0,0,0.4,7,1.8,7.1"/>
				<path id="XMLID_4018_" class="st2" d="M346.6,844.8c1.4,4.5,7.3,13.8,7.3,13.8"/>
			</g>
		</g>
		<path id="XMLID_4016_" class="st3" d="M294.4,430.4c-4.3,8.5,9.3,121.2,8.7,131c-0.5,9.7,3.3,10.9,30.7,9.6
			c27.4-1.3,12.4-180.7,1.2-196.9c-3.9-5.7-19.3-11.1-37.5-15.8"/>
		<g>
			<path class="st6" d="M283.5,403.8c0,0-27.5-10-29.3-0.4c-1.7,9.5-10.3,40.2,6,42.1c16.2,2,23.6,1.3,24.1-12.5
				C284.7,419.2,283.5,403.8,283.5,403.8z"/>
			<g>
				<path id="XMLID_4015_" class="st1" d="M282.4,404.5c0,0,3.5,2.8,1.7,5.8"/>
				<path id="XMLID_4014_" class="st1" d="M257.5,403.5c0,0-5,2.4-6.5,4.8"/>
				<path id="XMLID_4013_" class="st1" d="M283.4,426.6c0,0,1.5-5.3,0.5-8"/>
				<path id="XMLID_4012_" class="st1" d="M256.5,443.9c0,0,5.1,2.1,7.9,1.4"/>
				<path id="XMLID_4011_" class="st1" d="M280.3,439.6c0,0-1.9,4.1-5.3,2.8"/>
				<path id="XMLID_4010_" class="st1" d="M252.1,418.1c0,0-0.9,3.7-1.9,4.9"/>
				<line id="XMLID_4009_" class="st5" x1="271.6" y1="402.2" x2="266.2" y2="402.1"/>
				<path id="XMLID_4008_" class="st1" d="M250.5,432.3c0,0-1.2,5.4-0.1,8"/>
			</g>
			<g>
				<path id="XMLID_4007_" class="st1" d="M193.2,781.3c0,0-3.4-5.8-0.9-9.2"/>
				<path id="XMLID_4006_" class="st1" d="M200.7,756.6c0,0-3.9,3.9-4.4,6.7"/>
				<path id="XMLID_4005_" class="st1" d="M198.7,790.8c0,0,1.6,5.3,3.8,7.1"/>
			</g>
		</g>
		<g id="XMLID_3715_">
			<g id="XMLID_4001_">
				<path id="XMLID_4004_" class="st1" d="M148.7,170.4c0,0-35.4-46.1-36-9.9s9.7,75.1,22.5,70.1c12.9-5,13-15.8,13-15.8"/>
				<path id="XMLID_4003_" class="st1" d="M137.2,172.9c0,0-13.9-21.1-17.2-11.1"/>
				<path id="XMLID_4002_" class="st1" d="M142.5,187.7c0,0-20.1-5.1-17.1,6.5c3,11.6,10.3,19.3,13.7,6.4"/>
			</g>
			<path id="XMLID_4000_" class="st7" d="M252.2,6.7c0,0-13,11.6,3.3,16.8S266.5,0.7,252.2,6.7z"/>
			<path id="XMLID_3999_" class="st1" d="M224.8,35c0,0,105,6.7,91.4,130.6s-9.5,146.7-68.6,159.8c-59.1,13.1-91.9-29.9-98.7-62.8
				C142.2,229.7,93.3,52.5,224.8,35z"/>
			<path class="st0" d="M274.1,52.9c13.4,19.4,21.8,47.5,17.4,88.6c-13.6,123.9-9.4,146.7-68.5,159.7c-25.3,5.6-45.7,1-61.4-8.8
				c15.6,23.5,44.2,42.3,86,33.1c59.1-13.1,54.9-35.8,68.5-159.7C323.1,102.5,299.2,69.8,274.1,52.9z"/>
			<path id="XMLID_3998_" class="st3" d="M309.3,63.9c-0.4-4.1-2.3-9.3-5.9-15.8c0-0.1-0.1-0.1-0.1-0.1l0,0
				c-0.8-1.4-1.6-2.8-2.6-4.3c-11.9-18.3-31.2-28.7-48.7-34c-75.5-33.1-82.5,38.2-82.4,65.2c0,2.6,33.9-0.6,64.7-8.6
				c39.3,15.5,76.5,32.7,76.5,32.7S313.1,76.1,309.3,63.9z"/>
			<path id="XMLID_3997_" class="st1" d="M215.1,177.2c0,0,18.8,13.8,42.9,5"/>
			<path id="XMLID_3996_" class="st1" d="M169.3,178.2c0,0-30.1,6.8-36.6,4"/>
			<path id="XMLID_3995_" class="st1" d="M190.6,315.1c0,0-12.3,11.6,13.5,16.5s42.7-2.1,37.5-11.7"/>
			<path id="XMLID_3994_" class="st3" d="M151,85c0,0,40-16.6,87.2-6.8s71.9,20.7,71.9,20.7C294.6,47,203.3,47.5,157.2,50.8
				c-46.2,3.4-33.7,20.9-33.7,20.9S130.5,80.2,151,85z"/>
			<path id="XMLID_3993_" class="st1" d="M151,85c0,0-79.8-21.4,30.4-27.3s128.8,41.2,128.8,41.2S207.9,55.8,151,85z"/>
			<g>
				<path id="XMLID_3992_" class="st1" d="M208.5,186.5c0,0-19.1-23.3-18.6-36.4"/>
				<g id="XMLID_3989_">
					<path id="XMLID_3991_" class="st1" d="M175.6,189.4c0.8,6.2,2.8,10.5,6.8,11.2c2.2,0.4,4.2,0.3,5.7-0.1
						c1.3-0.3,2.3-0.8,3.1-1.2"/>
					<path id="XMLID_3990_" class="st1" d="M195.4,114.4c0,0-14.1,38.6-17.9,65.9"/>
				</g>
				<g id="XMLID_3983_">
					<path id="XMLID_3988_" class="st1" d="M168.9,192.6c0,0-13.8,16.3,8.7,20.7"/>
					<path id="XMLID_3987_" class="st1" d="M207.3,192.3c0,0,14.9,12.2-5.9,20.9"/>
					<path id="XMLID_3986_" class="st1" d="M196.3,202.6c2.1,0.6,5.2-3.8,7.6-0.1s-0.3,2.7-3.4,3.5S194.2,201.9,196.3,202.6z"/>
					<path id="XMLID_3985_" class="st1" d="M175.2,208.3c-4.2-0.2-5.2-3.6-3-5.4c0.8-0.6,3.2,0.5,5.5,1.8
						C179.5,205.7,175.2,208.3,175.2,208.3z"/>
					<path id="XMLID_3984_" class="st1" d="M190.1,184c0,0,4.4-0.1,5.4,1.4"/>
				</g>
				<path id="XMLID_3982_" class="st1" d="M160.7,202.7c0,0-12.1,6.2-15.6,7.5"/>
				<path id="XMLID_3981_" class="st1" d="M216.1,198.9c0,0,14.3,6.7,15.7,6.6"/>
			</g>
			<path id="XMLID_3980_" class="st1" d="M276.1,137.6c0,0,2,4.2-1.1,6"/>
			<path id="XMLID_3979_" class="st1" d="M265.4,179.8c0,0-0.9,3.7-2,5"/>
			<path id="XMLID_3978_" class="st1" d="M265.9,106.7c0,0,1.5-7-0.1-7"/>
			<path id="XMLID_3977_" class="st1" d="M163.5,83.9c0,0,6.6,0.8,5.9,1.9"/>
			<path id="XMLID_3976_" class="st1" d="M204.1,95.9c0,0,7.7-1.2,8.2-2.7"/>
			<path id="XMLID_3975_" class="st1" d="M168.2,284.8c0,0,5.6,1.2,6,2.3"/>
			<path id="XMLID_3974_" class="st1" d="M214.9,286.8c0,0-5.1,2.4-6.6,4.9"/>
			<path id="XMLID_3973_" class="st1" d="M161.8,164"/>
			<path id="XMLID_3972_" class="st1" d="M198.4,168"/>
			<line id="XMLID_3971_" class="st5" x1="251.2" y1="208.3" x2="256.6" y2="206.9"/>
			<path id="XMLID_3970_" class="st1" d="M301.6,182.2c0,0,38.5-43.5,36.6-7.4c-1.9,36.1-14.8,74.3-27.2,68.4
				c-12.5-5.9-11.8-16.6-11.8-16.6"/>
			<path id="XMLID_3969_" class="st1" d="M312.8,185.6c0,0,15.2-20.1,17.9-9.9"/>
			<path id="XMLID_3968_" class="st1" d="M306.5,199.8c0,0,20.5-3.7,16.7,7.7s-11.5,18.5-14.1,5.4"/>
			<g>
				<path id="XMLID_3967_" class="st8" d="M136.3,100.7c0,0,71.4-7.5,46,50.3S76.6,141.3,136.3,100.7z"/>
				<path id="XMLID_3966_" class="st7" d="M139.8,130.4c0,0,10.7-4.4,9.6,6.7S132.5,140,139.8,130.4z"/>
				<path id="XMLID_3965_" class="st8" d="M215.9,108c0,0-52.1,46.7,13.5,67.2S272.8,84,215.9,108z"/>
				<path id="XMLID_3964_" class="st7" d="M252.6,135.9c0,0,10.7-4.4,9.6,6.7C261,153.7,245.3,145.5,252.6,135.9z"/>
				<path id="XMLID_3963_" class="st7" d="M220,98.7c0,0-24.1,3-6.7,19.9s50.4,0.2,48.6-5.8C260,106.7,256.8,96.6,220,98.7z"/>
				<path id="XMLID_3962_" class="st7" d="M149.8,89.1c0,0-37.2-1.8-19.8,18.8s47.8-0.9,50.1-9.7C182.4,89.3,149.8,89.1,149.8,89.1z
					"/>
				<g id="XMLID_3957_">
					<path id="XMLID_3959_" class="st1" d="M260.2,172.9c0.5,0.1,0.9,0.3,1.4,0.4c1.8,0.5,3.6,0.7,5.5-1.3c4.5-4.9-5.9-6.2-5.9-6.2
						l-11.3-0.7c0,0-24.1-1.4-38.3,2.4c0,0,21.1,11,34,10.1c1.5-0.1,2.9-0.3,4.2-0.8C250.7,176.2,258,172.4,260.2,172.9z"/>
					<path id="XMLID_3958_" class="st1" d="M144.6,159.9c0,0,14.1-2.8,29.8,1.9c0,0-7.6,16.9-32.7,9.4c-8.2-2.4-9.9,2.2-14.4-2.6
						c-4.5-4.9,5.7-6.4,5.7-6.4L144.6,159.9z"/>
				</g>
			</g>
			<g id="XMLID_3952_">
				<path id="XMLID_3956_" class="st7" d="M162,241.9c0,0-38.4,5.3-16.8,19C166.7,274.7,162,241.9,162,241.9z"/>
				<path id="XMLID_3955_" class="st7" d="M156.2,230.6c0,0-31.7-1.4-17,14.8c14.8,16.3,40.7-0.8,42.7-7.8
					C184,230.7,156.2,230.6,156.2,230.6z"/>
				<path id="XMLID_3954_" class="st7" d="M219.7,238.2c0,0-15.4-5.1-12.7,14.5s29.5,15.9,31.1,10.3
					C239.6,257.4,242.1,248,219.7,238.2z"/>
				<path id="XMLID_3953_" class="st7" d="M206.4,233.1c0,0-45-5.2-0.5,16S257.8,239.5,206.4,233.1z"/>
			</g>
			<g id="XMLID_3716_">
				<path id="XMLID_3951_" class="st1" d="M166.5,260.7c0,0,23.8,23.1,36.6-0.3"/>
				<path id="XMLID_3718_" class="st1" d="M171.8,256.9c0,0,6.4-7,11.3-0.1"/>
				<path id="XMLID_3717_" class="st1" d="M194.4,256.7c0,0-6.6-6.8-11.3,0.1"/>
			</g>
		</g>
		<path id="XMLID_3714_" class="st1" d="M253.2,372.9c1.7-0.6,3.4-1.9,4.9-4.4"/>
		<path id="XMLID_3713_" class="st1" d="M189.8,359.6c0,0,0.5,2.3,2,4.3"/>
		<path id="XMLID_3712_" class="st1" d="M204.1,378.4c0.5,0.3,1.1,0.6,1.8,0.8"/>
		<path id="XMLID_3695_" class="st3" d="M152.8,664.7c0,0,3.9-187.8-5.3-214.8"/>
	</g>
</g>
</svg>
