<?xml version="1.0" encoding="utf-8"?>
<!-- Generator: Adobe Illustrator 22.1.0, SVG Export Plug-In . SVG Version: 6.00 Build 0)  -->
<svg version="1.1" id="Layer_1" xmlns="http://www.w3.org/2000/svg" xmlns:xlink="http://www.w3.org/1999/xlink" x="0px" y="0px"
	 viewBox="0 0 752.8 721.7" style="enable-background:new 0 0 752.8 721.7;" xml:space="preserve">
<style type="text/css">
	.st0{opacity:0.1;enable-background:new    ;}
	.st1{fill:#231F20;stroke:#231F20;stroke-miterlimit:10;}
	.st2{fill:#FFF0C2;stroke:#584C4F;stroke-miterlimit:10;}
	.st3{fill:#FDF5EA;stroke:#5B5B4B;stroke-linecap:round;stroke-miterlimit:10;}
	.st4{fill:#FFF5D0;stroke:#584C4F;stroke-miterlimit:10;}
	.st5{fill:#5B5B4B;stroke:#5B5B4B;stroke-linecap:round;stroke-miterlimit:10;}
	.st6{opacity:0.1;fill:#FFFFFF;}
</style>
<g>
	<g class="st0">
		<path class="st1" d="M139.4,302.1v47.2c0,0,0,9.4,2.8,11.4c2.8,1.8,72.6,0,74.6,0s4.8,0,4.8-7.6c0-5.6-2-36.8-3-51.8"/>
		<path id="XMLID_33_" class="st1" d="M13,323.1c0,0-1.2,3.4,2.8,3.6c126,4,326.4-0.2,326.4-0.2c4-0.4,2.8-3.6,2.8-3.6
			c5.2-106.8,0-305.2,0-305.2s1.2-3.4-2.8-3.6c-195.8-8-328.6-0.2-328.6-0.2c-4,0.4-2.8,3.6-2.8,3.6S10.4,184.9,13,323.1z"/>
		<path id="XMLID_32_" class="st1" d="M23.4,42.3c0,0-1.4-9.6,6.2-10c0,0,133.8-11.2,298.4,0.2c7.6,0.6,6.2,10,6.2,10
			s1.4,125-2.8,212.4c0,0,1.4,9.6-6.2,10c0,0-127.4,7.8-292.8,0.2c-7.6-0.4-6.2-10-6.2-10L23.4,42.3z"/>
		<path id="XMLID_31_" class="st1" d="M47.2,46.3c-6.4-0.6-9.6,7.2-9.6,7.2s-0.2,182.6,2.8,190.2c0,0,3.2,7.4,9.6,7.2
			c0,0,235.4,3,256.4-0.2c6.4-1,9.6-7.2,9.6-7.2s4.6-168.6,2.8-189.8c0,0-3.2-7.4-9.6-7.2C309.4,46.5,54.6,47.1,47.2,46.3z"/>
		<path id="XMLID_30_" class="st1" d="M58.2,75.1c1.6,4.6,2.6,8.2,3.2,11c1.2,5.4,5.4,6.2,8,3.8c4-3.8,3.6-8.4,2.4-12.4
			c-0.6-2.6,1.4-4.8,4-6.2c2-1,7.2-2.8,1.6-4.2c-3-0.8-6.8-1.4-10.2-1.6C61,65.5,55.6,67.5,58.2,75.1z"/>
		<path id="XMLID_29_" class="st1" d="M13,327.7c0,0-1.2,0.4,2.8,0.6c126,0.6,326.4,0,326.4,0c4,0,2.8-0.6,2.8-0.6
			c5.2-15.2,0-43.4,0-43.4s1.2-0.4-2.8-0.6c-195.8-1.2-328.6,0-328.6,0c-4,0-2.8,0.6-2.8,0.6S10.4,308.1,13,327.7z"/>
	</g>
	<g>
		<path class="st2" d="M129.4,292.1v47.2c0,0,0,9.4,2.8,11.4c2.8,1.8,72.6,0,74.6,0s4.8,0,4.8-7.6c0-5.6-2-36.8-3-51.8"/>
		<path id="XMLID_10_" class="st3" d="M3,313.1c0,0-1.2,3.4,2.8,3.6c126,4,326.4-0.2,326.4-0.2c4-0.4,2.8-3.6,2.8-3.6
			c5.2-106.8,0-305.2,0-305.2s1.2-3.4-2.8-3.6C136.4-3.9,3.6,3.9,3.6,3.9c-4,0.4-2.8,3.6-2.8,3.6S0.4,174.9,3,313.1z"/>
		<path id="XMLID_9_" class="st4" d="M13.4,32.3c0,0-1.4-9.6,6.2-10c0,0,133.8-11.2,298.4,0.2c7.6,0.6,6.2,10,6.2,10
			s1.4,125-2.8,212.4c0,0,1.4,9.6-6.2,10c0,0-127.4,7.8-292.8,0.2c-7.6-0.4-6.2-10-6.2-10L13.4,32.3z"/>
		<path id="XMLID_8_" class="st5" d="M37.2,36.3c-6.4-0.6-9.6,7.2-9.6,7.2s-0.2,182.6,2.8,190.2c0,0,3.2,7.4,9.6,7.2
			c0,0,235.4,3,256.4-0.2c6.4-1,9.6-7.2,9.6-7.2s4.6-168.6,2.8-189.8c0,0-3.2-7.4-9.6-7.2C299.4,36.5,44.6,37.1,37.2,36.3z"/>
		<path id="XMLID_7_" class="st6" d="M48.2,65.1c1.6,4.6,2.6,8.2,3.2,11c1.2,5.4,5.4,6.2,8,3.8c4-3.8,3.6-8.4,2.4-12.4
			c-0.6-2.6,1.4-4.8,4-6.2c2-1,7.2-2.8,1.6-4.2c-3-0.8-6.8-1.4-10.2-1.6C51,55.5,45.6,57.5,48.2,65.1z"/>
		<path id="XMLID_6_" class="st4" d="M3,317.7c0,0-1.2,0.4,2.8,0.6c126,0.6,326.4,0,326.4,0c4,0,2.8-0.6,2.8-0.6
			c5.2-15.2,0-43.4,0-43.4s1.2-0.4-2.8-0.6c-195.8-1.2-328.6,0-328.6,0c-4,0-2.8,0.6-2.8,0.6S0.4,298.1,3,317.7z"/>
	</g>
</g>
</svg>
