<?xml version="1.0" encoding="utf-8"?>
<!-- Generator: Adobe Illustrator 22.1.0, SVG Export Plug-In . SVG Version: 6.00 Build 0)  -->
<svg version="1.1" id="Layer_1" xmlns="http://www.w3.org/2000/svg" xmlns:xlink="http://www.w3.org/1999/xlink" x="0px" y="0px"
	 viewBox="0 0 443 457" style="enable-background:new 0 0 443 457;" xml:space="preserve">
<style type="text/css">
	.st0{fill:#D4AF6B;}
	.st1{fill:#FDF5EA;stroke:#5B5B4B;stroke-width:2;stroke-linecap:round;stroke-miterlimit:10;}
	.st2{fill:#FDF5EA;stroke:#5B5B4B;stroke-width:2;stroke-linecap:round;stroke-linejoin:round;stroke-miterlimit:10;}
</style>
<g>
	<g>
		<path id="XMLID_350_" class="st0" d="M284.5,1683.2c-10.9-232-20.3-517.1-27.9-665.2c-13.6-268.3,7.7-662.4,7.7-662.4l-112.8,9.6
			c0,0,23,696,0,842.2c-16.5,104.8,12.5,492.8,21.7,718.9"/>
		<path class="st0" d="M258.4,373.1c13.5-14.7,25-39.8,25-82.5c0-19.8,3.1-50.3,2-54.2c-1.9-6.6-0.1-43.2-3.6-56.9
			c4.2-1.7,7.1-4.7,6.2-7.9c-2.3-8.1,0.9-60.4-6.7-62.1c-7.6-1.6-15.3-3.2-16,0.4c0,0-6.8,50.5-1.8,63.6c-0.4,0.3-0.6,0.7-0.7,1.2
			c0,0-4,29.2-3.6,49c-6.9-4.2-15-6.3-24-7.1c-0.3-9.5,13.9-56.4,11.3-71.1c2.8-1.2,4.6-3.2,4.4-5.8c-0.6-10.3,18.4-70.8,9.1-75.5
			c-9.3-4.7-18.6-9.4-20.6-5.4c0,0-23.6,58.1-20.4,74.8c0.5,2.5,1.6,4.6,3.1,6.3c-5.2,13.3-21.5,56.8-18.8,70.8
			c0.5,2.6-13.2,5.3-13.7,3.7c-3.1-9.4-0.9-63.9-7.8-79c2.6-2.1,3.9-4.7,3-7.4c-3.5-10.8-0.2-80.4-11.3-82.7
			c-11.1-2.4-22.1-4.7-23.1,0.1c0,0-8.8,68.4-0.8,85.2c1.2,2.5,2.9,4.4,5,5.8c-1.8,15.7-7,66.4-0.2,80.5c0.9,1.8-2.4,4.8-5.4,4.8
			c-3.8,0-10.6-0.5-11-1.2c-4.4-8.5-12.7-61.4-21.5-74.4c1.9-2.5,2.6-5.3,1.3-7.7c-5.1-9.7-15.2-77.3-25.3-77.3
			C82.1,61,72,61,72,65.8c0,0,5.1,67.7,15.2,82.1c1.5,2.2,3.4,3.6,5.4,4.6c1.3,15.5,6.3,65.3,14.8,77.5c2.4,3.4-0.7,29.5-0.7,43.4
			c-12.6-16.7-29.4-39.7-35.8-37c-9.4,3.8-18.7,7.7-17.1,11.6c0,0,26.6,51.7,40.8,60.4c-0.2,0.5-0.2,1.1,0,1.7
			c0,0,27.1,52.8,41.3,60.7c0.9,0.5,1.9,0.9,2.9,1.2c9.7,12.3,20.1,19.5,30,23.3"/>
		<path class="st0" d="M253.3,378.1c1.7-1.5,3.4-3.2,5.1-5"/>
		<path id="XMLID_349_" class="st0" d="M240.2,427.5c0,0,90.8-61.1,0-65.7"/>
		<path class="st0" d="M151.4,66.9c0,0-3.8-11.3,3.8-11.3s15.1-3.8,15.1,7.5s-7.5,11.3-7.5,11.3S155.1,78.2,151.4,66.9z"/>
		<path class="st0" d="M77.3,85c0,0-3.8-11.3,3.8-11.3s15.1-3.8,15.1,7.5s-7.5,11.3-7.5,11.3S81.1,96.3,77.3,85z"/>
		<path class="st0" d="M270.7,133.3c0,0-3.8-11.3,3.8-11.3s15.1-3.8,15.1,7.5s-7.5,11.3-7.5,11.3S274.5,144.7,270.7,133.3z"/>
		<path class="st0" d="M234.2,81.4c0,0-4.5-13.6,4.5-13.6c9.1,0,18.2-4.5,18.2,9.1s-9.1,13.6-9.1,13.6S238.7,95,234.2,81.4z"/>
		<path class="st0" d="M53.2,254.3c0,0-3.7-11.2,3.7-11.2s15-3.7,15,7.5s-7.5,11.2-7.5,11.2S57,265.5,53.2,254.3z"/>
		<path id="XMLID_348_" class="st0" d="M248.9,242.3c0,0,14.1,23.5,16.4,0.9"/>
		<path id="XMLID_347_" class="st0" d="M210.9,243.7c0,0,14.1,23.5,16.4,0.9"/>
		<path id="XMLID_346_" class="st0" d="M170.4,242.3c0,0,14.1,23.5,16.4,0.9"/>
		<path id="XMLID_345_" class="st0" d="M132.4,243.7c0,0,14.1,23.5,16.4,0.9"/>
		<path id="XMLID_344_" class="st0" d="M94.6,290.6c0,0-22.4,42.4,13.6,25.4"/>
		<path id="XMLID_343_" class="st0" d="M108.2,168.3c2.7,0.7,5.2-1.4,6-9.7"/>
		<path id="XMLID_342_" class="st0" d="M164.6,151.6c2.7-1.1,6.1-2.7,10.1-4.7"/>
		<path id="XMLID_341_" class="st0" d="M241.2,152.5"/>
		<path id="XMLID_340_" class="st0" d="M235.1,162.2c2,0.5,3.9-0.5,5.1-4.5"/>
		<path id="XMLID_339_" class="st0" d="M275.8,181.9"/>
		<path id="XMLID_338_" class="st0" d="M271.4,188.2c2.2,0.6,4.6,0.9,5.6-0.3"/>
	</g>
	<g>
		<path id="XMLID_337_" class="st1" d="M314.7,1683.2c-10.9-232-20.3-517.1-27.9-665.2c-13.6-268.3,7.7-662.4,7.7-662.4l-112.8,9.6
			c0,0,23,696,0,842.2c-16.5,104.8,12.5,492.8,21.7,718.9"/>
		<path class="st1" d="M288.7,373.1c13.5-14.7,25-39.8,25-82.5c0-19.8,3.1-50.3,2-54.2c-1.9-6.6-0.1-43.2-3.6-56.9
			c4.2-1.7,7.1-4.7,6.2-7.9c-2.3-8.1,0.9-60.4-6.7-62.1c-7.6-1.6-15.3-3.2-16,0.4c0,0-6.8,50.5-1.8,63.6c-0.4,0.3-0.6,0.7-0.7,1.2
			c0,0-4,29.2-3.6,49c-6.9-4.2-15-6.3-24-7.1c-0.3-9.5,13.9-56.4,11.3-71.1c2.8-1.2,4.6-3.2,4.4-5.8c-0.6-10.3,18.4-70.8,9.1-75.5
			c-9.3-4.7-18.6-9.4-20.6-5.4c0,0-23.6,58.1-20.4,74.8c0.5,2.5,1.6,4.6,3.1,6.3c-5.2,13.3-21.5,56.8-18.8,70.8
			c0.5,2.6-13.2,5.3-13.7,3.7c-3.1-9.4-0.9-63.9-7.8-79c2.6-2.1,3.9-4.7,3-7.4c-3.5-10.8-0.2-80.4-11.3-82.7
			c-11.1-2.4-22.1-4.7-23.1,0.1c0,0-8.8,68.4-0.8,85.2c1.2,2.5,2.9,4.4,5,5.8c-1.8,15.7-7,66.4-0.2,80.5c0.9,1.8-2.4,4.8-5.4,4.8
			c-3.8,0-10.6-0.5-11-1.2c-4.4-8.5-12.7-61.4-21.5-74.4c1.9-2.5,2.6-5.3,1.3-7.7c-5.1-9.7-15.2-77.3-25.3-77.3
			c-10.1,0-20.3,0-20.3,4.8c0,0,5.1,67.7,15.2,82.1c1.5,2.2,3.4,3.6,5.4,4.6c1.3,15.5,6.3,65.3,14.8,77.5c2.4,3.4-0.7,29.5-0.7,43.4
			c-12.6-16.7-29.4-39.7-35.8-37c-9.4,3.8-18.7,7.7-17.1,11.6c0,0,26.6,51.7,40.8,60.4c-0.2,0.5-0.2,1.1,0,1.7
			c0,0,27.1,52.8,41.3,60.7c0.9,0.5,1.9,0.9,2.9,1.2c9.7,12.3,20.1,19.5,30,23.3"/>
		<path class="st1" d="M283.6,378.1c1.7-1.5,3.4-3.2,5.1-5"/>
		<path id="XMLID_336_" class="st2" d="M270.4,427.5c0,0,90.8-61.1,0-65.7"/>
		<path class="st1" d="M181.6,66.9c0,0-3.8-11.3,3.8-11.3s15.1-3.8,15.1,7.5s-7.5,11.3-7.5,11.3S185.4,78.2,181.6,66.9z"/>
		<path class="st1" d="M107.6,85c0,0-3.8-11.3,3.8-11.3s15.1-3.8,15.1,7.5s-7.5,11.3-7.5,11.3S111.3,96.3,107.6,85z"/>
		<path class="st1" d="M301,133.3c0,0-3.8-11.3,3.8-11.3s15.1-3.8,15.1,7.5s-7.5,11.3-7.5,11.3S304.7,144.7,301,133.3z"/>
		<path class="st1" d="M264.4,81.4c0,0-4.5-13.6,4.5-13.6c9.1,0,18.2-4.5,18.2,9.1S278,90.5,278,90.5S268.9,95,264.4,81.4z"/>
		<path class="st1" d="M83.5,254.3c0,0-3.7-11.2,3.7-11.2s15-3.7,15,7.5s-7.5,11.2-7.5,11.2S87.2,265.5,83.5,254.3z"/>
		<path id="XMLID_103_" class="st2" d="M279.2,242.3c0,0,14.1,23.5,16.4,0.9"/>
		<path id="XMLID_102_" class="st2" d="M241.2,243.7c0,0,14.1,23.5,16.4,0.9"/>
		<path id="XMLID_101_" class="st2" d="M200.6,242.3c0,0,14.1,23.5,16.4,0.9"/>
		<path id="XMLID_100_" class="st2" d="M162.6,243.7c0,0,14.1,23.5,16.4,0.9"/>
		<path id="XMLID_99_" class="st2" d="M124.8,290.6c0,0-22.4,42.4,13.6,25.4"/>
		<path id="XMLID_98_" class="st2" d="M138.4,168.3c2.7,0.7,5.2-1.4,6-9.7"/>
		<path id="XMLID_97_" class="st2" d="M194.8,151.6c2.7-1.1,6.1-2.7,10.1-4.7"/>
		<path id="XMLID_96_" class="st2" d="M271.4,152.5"/>
		<path id="XMLID_95_" class="st2" d="M265.3,162.2c2,0.5,3.9-0.5,5.1-4.5"/>
		<path id="XMLID_94_" class="st2" d="M306,181.9"/>
		<path id="XMLID_83_" class="st2" d="M301.6,188.2c2.2,0.6,4.6,0.9,5.6-0.3"/>
	</g>
</g>
</svg>
