<?xml version="1.0" encoding="utf-8"?>
<!-- Generator: Adobe Illustrator 22.1.0, SVG Export Plug-In . SVG Version: 6.00 Build 0)  -->
<svg version="1.1" id="Layer_1" xmlns="http://www.w3.org/2000/svg" xmlns:xlink="http://www.w3.org/1999/xlink" x="0px" y="0px"
	 viewBox="0 0 347.2 675.2" style="enable-background:new 0 0 347.2 675.2;" xml:space="preserve">
<style type="text/css">
	.st0{fill:#A36B78;stroke:#584C4F;stroke-width:2;stroke-linecap:round;stroke-miterlimit:10;}
	.st1{fill:#A36B78;stroke:#584C4F;stroke-width:2;stroke-linecap:round;stroke-linejoin:round;stroke-miterlimit:10;}
	.st2{fill:#FFD767;stroke:#584C4F;stroke-width:2;stroke-miterlimit:10;}
	.st3{fill:#A36B78;}
	.st4{fill:none;stroke:#584C4F;stroke-width:2;stroke-linecap:round;stroke-miterlimit:10;}
	.st5{fill:#BEAB72;}
	.st6{fill:#584C4F;stroke:#584C4F;stroke-width:2;stroke-linecap:round;stroke-miterlimit:10;}
	.st7{opacity:0.1;fill:#231F20;stroke:#231F20;stroke-miterlimit:10;enable-background:new    ;}
	.st8{fill:#FFFFFF;stroke:#584C4F;stroke-width:2;stroke-linecap:round;stroke-miterlimit:10;}
</style>
<g id="Layer_5">
</g>
<g id="Layer_3">
</g>
<g>
	<g>
		<path class="st0" d="M295.4,614.6c-1.6-0.8-3.8-1.6-6.3-2.6c-2.4-1-5.1-2.2-8-3.9c0.1-0.1,0.1-0.1,0.1-0.1s0,0-0.1-0.1
			c-0.4-0.4-2.2-2.1-5-4.8l-11.7,9.8l-0.6,0.6l-0.6,0.6c0.7,0.8,1.2,1.5,1.4,1.9c0,0,0.1,0.1,0.1,0.2c0,0.1,0,0.3,0,0.4
			c0,0.5,0.1,0.9,0.1,0.9s0,0.9-0.1,2.3c6.3,8.9,5.5,18.7,1.8,27.6c0.7,0.6,1.6,0.9,2.7,0.9c0.4,0,0.7,0,1.2-0.1
			c1.4-0.2,3.2-1.1,5.2-2.4c1.5-1,3.2-2.3,4.9-3.8c1.1-1,2.2-1.9,3.4-3c0.9-0.8,1.8-1.7,2.7-2.5c0.8-0.9,1.7-1.8,2.5-2.7
			c1.1-1.2,2.1-2.3,3-3.4c1.5-1.8,2.8-3.4,3.8-4.9c1.3-2,2.2-3.8,2.4-5.2c0.1-0.4,0.1-0.8,0.1-1.2c0-1.5-0.5-2.5-1.4-3.4
			C296.7,615.3,296.1,615,295.4,614.6z"/>
		<path class="st0" d="M207.8,537.3c-2.7-3-5.9-6.5-9.4-10.3c-16.7-45.5-42.9-115.4-42.1-120.8l-28.5,4.7c0,0,20,40.9,36.3,79
			c2.1,4.9,4.1,9.7,6,14.4c1.9,4.9,3.7,9.5,5.3,13.5l0,0c3.9,10.2,6.2,14.5,7.4,15.2c0.2,0.3,0.4,0.7,0.6,1.1
			c7,6.2,16.7,15.7,26.9,26c25.9,26,55.5,57.6,55.5,57.6l13-10.9C278.9,606.8,234.8,567.2,207.8,537.3z"/>
		<g>
			<g id="XMLID_8418_">
				<path id="XMLID_8419_" class="st0" d="M258.3,658.4c0,0,3.9-4.7,5.8,0.3C265.9,663.6,257.1,664.3,258.3,658.4z"/>
			</g>
			<g id="XMLID_8416_">
				<path id="XMLID_8417_" class="st0" d="M260.2,655.4c0,0,4.3-5.2,6.4,0.3C268.7,661.3,258.9,662.1,260.2,655.4z"/>
			</g>
			<g id="XMLID_8414_">
				<path id="XMLID_8415_" class="st0" d="M262.4,651.6c0,0,5-6,7.5,0.4C272.3,658.5,260.9,659.4,262.4,651.6z"/>
			</g>
			<g id="XMLID_8412_">
				<path id="XMLID_8413_" class="st0" d="M265.4,647c0,0,5.7-6.9,8.5,0.5C276.8,654.8,263.7,655.9,265.4,647z"/>
			</g>
			<path id="XMLID_8411_" class="st0" d="M279.3,646c0,0-7,8-8.4-0.4c-1.4-8.3,9.7-9.5,12.3-7.9C285.8,639.4,279.3,646,279.3,646z"
				/>
		</g>
		<path id="XMLID_8410_" class="st0" d="M179.1,516.5c0,0,1.7-1.5,3-0.2"/>
		<path id="XMLID_8409_" class="st0" d="M188.3,530.8c0,0-2.5,1.3-3.1,1"/>
		<g id="XMLID_8407_">
			<path id="XMLID_8408_" class="st0" d="M270.6,618.3c-0.8,7.8-12.9,2.9-7.4-4.2"/>
		</g>
		<g id="XMLID_8405_">
			<path id="XMLID_8406_" class="st0" d="M181.9,530.7c-3.9,6.9-13-2.5-5.1-6.8"/>
		</g>
	</g>
	<g>
		<g>
			<g id="XMLID_8403_">
				<path id="XMLID_8404_" class="st0" d="M122.3,349.9c-7.6,2.1-7.5-11,1.2-8.5"/>
			</g>
			<path id="XMLID_8402_" class="st0" d="M116.9,254.7c1.7,34.8,3.1,77.6,4.2,99.8c2.1,40.2-1.2,99.4-1.2,99.4l16.9-1.5
				c0,0-3.4-104.4,0-126.4c2.4-15.7-1.8-73.9-3.2-107.9"/>
			<g id="XMLID_8400_">
				<path id="XMLID_8401_" class="st0" d="M136.8,450.3c6.9,7.2,9,9.6,12.8,19s-9.9-13.5-9.1-10.1s13.6,68.6,3.1,28.5
					s-6.4-14.5-6.4-14.5c0,55-4.4,11-5.8,4.1s-10.4,36.7-8.7,15.1s-0.1-23.4-3.6-5.4c-3.6,18-1.7-24.3-1.7-24.3s0.8-13.2,4.1-12.1"
					/>
			</g>
			<path id="XMLID_8390_" class="st0" d="M127.3,341.9c0,0,2.8,0.6,3,1.2"/>
			<path id="XMLID_8389_" class="st0" d="M126.9,348.6c0,0-2.2,0.4-2.8-1.4"/>
			<path id="XMLID_8388_" class="st1" d="M123.5,438.7c0,0-13.6,9.1,0,9.9"/>
		</g>
		<path id="XMLID_8387_" class="st2" d="M140.9,253.6c2.2,4.2-4.1,60.7-3.8,65.6c0.3,4.9-1.6,5.5-15.3,5s-7-90.3-1.5-98.5
			c2-2.9,9.6-5.6,18.7-8.1"/>
		<path class="st0" d="M230.5,377.3l-111.1-4.1c0,0,0.5,29.5,1.3,40.6c0.1,1,0.1,2.1,0.2,3.1c0.1,0.4,0.1,0.7,0.2,0.9l0.1,0
			c3.1,17,22.5,32,53.2,32.5c50.1,0.8,51.4-14.5,51.4-14.5c2.4-4.5,3.9-8.9,4.4-13c0.1,0,0.2,0,0.2,0S232.4,386.2,230.5,377.3z"/>
		<g>
			<path class="st2" d="M237,349.6c-0.1-0.8-0.2-1.5-0.3-2.2c-0.9-6-1.6-10.5-1.9-11.9c-1.4-7.3-4.4-87.8-5.9-101
				c-0.1-0.4-0.1-0.9-0.2-1.3c-0.8-3.7-3.3-6.7-6.4-9c-4.2-3.2-9.5-5.2-13-6.2c-6.7-5.6-20.4-9.4-39.2-8.6
				c-17.8,0.8-45.2,1.1-46.6,27.9c-0.2,3.1-0.2,6.5-0.1,10.4c1.4,36.3,1.4,95-2.3,110.7c-0.2,0.8-0.4,1.5-0.6,2
				c-3.2,8.5-7.1,29.9-3,37.9c0.1,0.1,0.1,0.2,0.2,0.3c1.6,2.8,4.3,3.7,8.7,1.4c0,0,5.4-1.3,9.4-1.2l77.2,4c3.2,0.5,6.1,1,8.4,1.5
				C243.7,420.7,240.3,374.5,237,349.6z"/>
			<path class="st2" d="M123.4,245.1c0,0.9,0.1,1.7,0.1,2.6c1.4,36.3,1.4,95-2.3,110.7c-0.2,0.8-0.4,1.5-0.6,2
				c-3.2,8.5-7.1,29.9-3,37.9c0.1,0.1,0.1,0.2,0.2,0.3c1.6,2.8,4.3,3.7,8.7,1.4"/>
			<path class="st2" d="M135.8,398.6l77.2,4c3.2,0.5,6.1,1,8.4,1.5c22.3,16.5,18.9-29.7,15.6-54.5c-0.1-0.8-0.2-1.5-0.3-2.2
				c-0.9-6-1.6-10.5-1.9-11.9c-1.4-7.3-4.4-87.8-5.9-101c-0.1-0.4-0.1-0.9-0.2-1.3c-0.8-3.7-3.3-6.7-6.4-9c-4.2-3.2-9.5-5.2-13-6.2
				c-6.7-5.6-20.4-9.4-39.2-8.6c-16.4,0.7-40.8,1-45.8,21.9"/>
		</g>
		<path id="XMLID_8386_" class="st0" d="M231.9,292c0,0-8.7,93.6-5.1,107.3"/>
		<g>
			<path id="XMLID_8385_" class="st3" d="M191.3,207.1c0.2-3.4-0.9-13.4-1.1-16.6c-0.2-2.9-0.6-5.4-1.2-7.6
				c11.4-19.4-20.1-41.8-31.3-16.8c-3.5,7.8-3.1,22.9-3,25.5c0.1,3.4,0.1,14.6,0.1,17.5c0.1,16.3,24.2,29.2,33.8,8"/>
			<path id="XMLID_8384_" class="st4" d="M183.2,224.7c-11.1,9.6-28.4-1.8-28.4-15.5c0-2.9-0.1-14.1-0.2-17.5
				c-0.1-2.6-0.5-17.7,3-25.5c11.2-25,42.7-2.6,31.3,16.8c0.6,2.1,1.1,4.6,1.2,7.6c0.2,3.2,1.4,13.1,1.1,16.6l-2.8,10.1
				c-0.5,1.1-1.1,2.2-1.6,3.1"/>
		</g>
		<g>
			<g id="XMLID_8382_">
				<path id="XMLID_8383_" class="st0" d="M223.8,342c6.1-5,11.2,7.1,2.2,8.2"/>
			</g>
			<path id="XMLID_8381_" class="st0" d="M230.8,273c-1.3,30.5-2.4,63.1-3.4,81.5c-2.1,40.2,1.1,99.4,1.1,99.4l-16.9-1.5
				c0,0,3.4-104.4,0-126.4c-2-12.6,0.4-52.5,2.1-85.3"/>
			<path id="XMLID_8380_" class="st0" d="M220.7,342.2c0,0,2.3,0.1,2.3,2"/>
			<path id="XMLID_8379_" class="st0" d="M220,348.7c0,0-2.7-0.9-2.9-1.5"/>
			<g id="XMLID_8366_">
				<path id="XMLID_8378_" class="st3" d="M207.8,481.2c2.9,0.8,4.9,0.9,6.4,0.8c-0.8,10.8,4.4,7.6,6.9,5.5l1.1,0.5
					c3.4,6.4,7.6,0.1,8.9-2l0.1,1.5c5.6,2.9,5.3-3.2,4.8-6.5c0.6,1,2,2,5.9,1.9c7.3-0.1-14.1-35.1-14.1-35.1l-16.2,3.8
					C211.6,451.5,193,477.4,207.8,481.2z"/>
				<path id="XMLID_8377_" class="st0" d="M211.6,451.5c0,0-18.6,25.9-3.8,29.6c2.9,0.8,4.9,0.9,6.4,0.8c-0.8,10.8,4.4,7.6,6.9,5.5
					l1.1,0.5c3.4,6.4,7.6,0.1,8.9-2l0.1,1.5c5.6,2.9,5.3-3.2,4.8-6.5c0.6,1,2,2,5.9,1.9c7.3-0.1-14.1-35.1-14.1-35.1"/>
				<g id="XMLID_8370_">
					<g id="XMLID_8372_">
						<path id="XMLID_8376_" class="st1" d="M227.9,447.8c0,0,21.4,35,14.1,35.1c-7.3,0.1-6.1-3.5-6.2-3.8c0,0,3.1,12.2-4.4,8.4"/>
						<path id="XMLID_8375_" class="st1" d="M231.4,485.3c0,0-5.2,10.5-9.4,2.1"/>
						<path id="XMLID_8374_" class="st1" d="M211.6,451.5c0,0-18.6,25.9-3.8,29.6s7.4-6.6,3.2-6.2"/>
						<path id="XMLID_8373_" class="st1" d="M222.4,486.2c0,0-9.8,10.4-8.1-5.5l0.5-8"/>
					</g>
					<path id="XMLID_8371_" class="st1" d="M225.2,446.8c0,0,10-10.1,0-10.9"/>
				</g>
				<path id="XMLID_8369_" class="st0" d="M221.6,472.2c0,0-0.4,4.9,0.4,7.5"/>
				<path id="XMLID_8368_" class="st0" d="M229.5,478c0,0,0.1,3.5,0.9,3.5"/>
				<path id="XMLID_8367_" class="st1" d="M230.3,464c0.7,2.2,3.6,7,3.6,7"/>
			</g>
		</g>
		<path id="XMLID_8365_" class="st2" d="M206.1,256.6c-2.2,4.2,4.1,60.6,3.8,65.5c-0.3,4.9,1.6,5.5,15.3,5c13.7-0.5,7-90.3,1.4-98.5
			c-1.9-2.9-9.6-5.6-18.7-8.1"/>
		<g>
			<path class="st5" d="M200.7,243.2c0,0-13.7-5.1-14.6-0.4c-0.9,4.8-5.4,20.1,2.8,21.1c8.1,1,11.8,0.8,12.1-6.1
				C201.3,250.9,200.7,243.2,200.7,243.2z"/>
			<g>
				<path id="XMLID_8364_" class="st0" d="M200.2,243.6c0,0,1.8,1.4,0.8,2.9"/>
				<path id="XMLID_8363_" class="st0" d="M187.7,242.9c0,0-2.5,1.2-3.2,2.4"/>
				<path id="XMLID_8362_" class="st0" d="M200.6,254.6c0,0,0.8-2.6,0.3-4"/>
				<path id="XMLID_8361_" class="st0" d="M187,263.1c0,0,2.6,1.1,3.9,0.8"/>
				<path id="XMLID_8360_" class="st0" d="M199,261.1c0,0-0.9,2-2.6,1.4"/>
				<path id="XMLID_8359_" class="st0" d="M185,250.2c0,0-0.4,1.9-0.9,2.4"/>
				<line id="XMLID_8358_" class="st4" x1="194.8" y1="242.4" x2="192.1" y2="242.3"/>
				<path id="XMLID_8357_" class="st0" d="M184.1,257.3c0,0-0.6,2.7-0.1,4"/>
			</g>
			<g>
				<path id="XMLID_8356_" class="st0" d="M153.9,431.6c0,0-1.7-2.9-0.4-4.6"/>
				<path id="XMLID_8355_" class="st0" d="M157.8,419.2c0,0-1.9,2-2.2,3.4"/>
				<path id="XMLID_8354_" class="st0" d="M156.6,436.3c0,0,0.8,2.6,1.8,3.5"/>
			</g>
		</g>
		<g id="XMLID_8289_">
			<g id="XMLID_8350_">
				<path id="XMLID_8353_" class="st0" d="M134.3,125.9c0,0-17.5-23.2-17.9-5.1c-0.4,18.1,4.5,37.6,11,35.2s6.5-7.9,6.5-7.9"/>
				<path id="XMLID_8352_" class="st0" d="M128.6,127.1c0,0-6.8-10.6-8.5-5.6"/>
				<path id="XMLID_8351_" class="st0" d="M131.2,134.5c0,0-10.1-2.6-8.6,3.2c1.4,5.8,5.1,9.7,6.8,3.2"/>
			</g>
			<path id="XMLID_8349_" class="st6" d="M186.8,44.5c0,0-6.6,5.8,1.6,8.4C196.6,55.6,194,41.6,186.8,44.5z"/>
			<path id="XMLID_8348_" class="st0" d="M173,58.6c0,0,52.4,3.8,45.2,65.7s-5.4,73.3-35,79.6s-45.8-15.4-49.1-31.9
				S107.2,66.7,173,58.6z"/>
			<path class="st7" d="M197.6,67.7c6.6,9.8,10.7,23.8,8.3,44.3c-7.4,61.9-5.4,73.3-34.9,79.5c-12.7,2.7-22.9,0.3-30.7-4.6
				c7.7,11.8,21.9,21.4,42.9,16.9c29.6-6.3,27.6-17.6,34.9-79.5C221.8,92.7,210,76.3,197.6,67.7z"/>
			<path id="XMLID_8347_" class="st2" d="M215.1,73.4c-0.2-2-1.1-4.6-2.9-7.9c0-0.1-0.1-0.1-0.1-0.1l0,0c-0.4-0.7-0.8-1.4-1.3-2.1
				C205,54,195.4,48.7,186.7,46c-37.6-16.9-41.4,18.8-41.5,32.2c0,1.3,16.9-0.2,32.4-4c19.6,7.9,38.1,16.7,38.1,16.7
				S217,79.5,215.1,73.4z"/>
			<path id="XMLID_8346_" class="st0" d="M167.5,129.6c0,0,9.4,7,21.5,2.7"/>
			<path id="XMLID_8345_" class="st0" d="M144.6,129.9c0,0-15.1,3.2-18.3,1.8"/>
			<path id="XMLID_8344_" class="st0" d="M154.7,198.5c0,0-6.2,5.8,6.7,8.3s21.3-0.9,18.8-5.7"/>
			<path id="XMLID_8343_" class="st2" d="M135.9,83.2c0,0,20.1-8.2,43.6-3s35.9,10.7,35.9,10.7c-7.6-26-53.2-26.2-76.2-24.7
				c-23.1,1.5-16.9,10.3-16.9,10.3S125.6,80.7,135.9,83.2z"/>
			<path id="XMLID_8342_" class="st0" d="M135.9,83.2c0,0-39.8-11.1,15.3-13.5c55.1-2.5,64.2,21.2,64.2,21.2S164.4,68.9,135.9,83.2z
				"/>
			<g>
				<path id="XMLID_8341_" class="st0" d="M164.2,134.2c0,0-9.4-11.8-9.2-18.3"/>
				<g id="XMLID_8329_">
					<path id="XMLID_8340_" class="st0" d="M147.7,135.5c0.3,3.1,1.3,5.2,3.3,5.7c1.1,0.2,2.1,0.1,2.9-0.1c0.6-0.2,1.1-0.4,1.6-0.6"
						/>
					<path id="XMLID_8339_" class="st0" d="M157.9,98.1c0,0-7.2,19.3-9.2,32.8"/>
				</g>
				<g id="XMLID_8323_">
					<path id="XMLID_8328_" class="st0" d="M144.3,137.1c0,0-6.9,8.1,4.2,10.4"/>
					<path id="XMLID_8327_" class="st0" d="M163.5,137.1c0,0,7.4,6.2-3.1,10.4"/>
					<path id="XMLID_8326_" class="st0" d="M158,142.2c1.1,0.3,2.6-1.9,3.8,0c1.2,1.9-0.1,1.3-1.7,1.8
						C158.6,144.4,157,141.9,158,142.2z"/>
					<path id="XMLID_8325_" class="st0" d="M147.4,145c-2.1-0.1-2.6-1.8-1.5-2.7c0.4-0.3,1.6,0.2,2.8,0.9
						C149.6,143.7,147.4,145,147.4,145z"/>
					<path id="XMLID_8324_" class="st0" d="M155,132.9c0,0,2.2-0.1,2.7,0.7"/>
				</g>
				<path id="XMLID_8322_" class="st0" d="M140.2,142.1c0,0-6.1,3.1-7.9,3.7"/>
				<path id="XMLID_8321_" class="st0" d="M167.9,140.5c0,0,7.1,3.4,7.8,3.3"/>
			</g>
			<path id="XMLID_8320_" class="st0" d="M198.2,110.1c0,0,1,2.1-0.6,3"/>
			<path id="XMLID_8319_" class="st0" d="M192.6,131.1c0,0-0.4,1.9-1,2.5"/>
			<path id="XMLID_8318_" class="st0" d="M193.2,94.6c0,0,0.8-3.5,0-3.5"/>
			<path id="XMLID_8317_" class="st0" d="M142.1,82.7c0,0,3.3,0.4,2.9,1"/>
			<path id="XMLID_8316_" class="st0" d="M162.4,88.9c0,0,3.8-0.6,4.1-1.3"/>
			<path id="XMLID_8315_" class="st0" d="M143.6,183.2c0,0,2.8,0.6,3,1.2"/>
			<path id="XMLID_8314_" class="st0" d="M166.9,184.4c0,0-2.6,1.2-3.3,2.4"/>
			<path id="XMLID_8313_" class="st0" d="M140.9,122.8"/>
			<path id="XMLID_8312_" class="st0" d="M159.2,124.9"/>
			<line id="XMLID_8311_" class="st4" x1="185.4" y1="145.3" x2="188.1" y2="144.6"/>
			<path id="XMLID_8310_" class="st0" d="M210.7,132.5c0,0,19.4-21.6,18.4-3.6c-1.1,18-7.7,37.1-13.9,34.1s-5.9-8.3-5.9-8.3"/>
			<path id="XMLID_8309_" class="st0" d="M216.3,134.2c0,0,7.7-10,9-4.9"/>
			<path id="XMLID_8308_" class="st0" d="M213.1,141.3c0,0,10.2-1.8,8.3,3.9c-1.9,5.6-5.9,9.2-7.1,2.6"/>
			<g>
				<path id="XMLID_8307_" class="st8" d="M128.4,91c0,0,35.8-3.4,22.8,25.4S98.4,111.1,128.4,91z"/>
				<path id="XMLID_8306_" class="st6" d="M130.1,105.9c0,0,5.4-2.2,4.8,3.4C134.2,114.8,126.4,110.7,130.1,105.9z"/>
				<path id="XMLID_8305_" class="st8" d="M168.2,95c0,0-26.2,23.1,6.4,33.7S196.8,83.3,168.2,95z"/>
				<path id="XMLID_8304_" class="st6" d="M186.4,109.1c0,0,5.4-2.2,4.8,3.4S182.7,113.9,186.4,109.1z"/>
				<path id="XMLID_8303_" class="st6" d="M170.3,90.4c0,0-12.1,1.4-3.4,9.9s25.2,0.3,24.3-2.7S188.7,89.5,170.3,90.4z"/>
				<path id="XMLID_8302_" class="st6" d="M135.2,85.3c0,0-18.6-1-10,9.3s23.9-0.2,25.1-4.7S135.2,85.3,135.2,85.3z"/>
				<g id="XMLID_8299_">
					<path id="XMLID_8301_" class="st0" d="M190.1,127.7c0.2,0.1,0.4,0.2,0.7,0.2c0.9,0.2,1.8,0.3,2.8-0.7c2.2-2.4-2.9-3.2-2.9-3.2
						l-5.7-0.4c0,0-12.1-0.8-19.1,1.1c0,0,10.5,5.6,16.9,5.2c0.8-0.1,1.4-0.1,2.1-0.4C185.3,129.3,189,127.4,190.1,127.7z"/>
					<path id="XMLID_8300_" class="st0" d="M132.3,120.7c0,0,7.1-1.3,14.9,1.1c0,0-3.9,8.4-16.4,4.6c-4.1-1.2-4.9,1.1-7.2-1.3
						c-2.2-2.4,2.9-3.2,2.9-3.2L132.3,120.7z"/>
				</g>
			</g>
			<g id="XMLID_8294_">
				<path id="XMLID_8298_" class="st6" d="M140.7,161.7c0,0-19.2,2.5-8.5,9.4S140.7,161.7,140.7,161.7z"/>
				<path id="XMLID_8297_" class="st6" d="M137.8,156.1c0,0-15.8-0.8-8.6,7.4c7.4,8.2,20.4-0.2,21.4-3.7S137.8,156.1,137.8,156.1z"
					/>
				<path id="XMLID_8296_" class="st6" d="M169.5,160.1c0,0-7.7-2.6-6.4,7.2c1.3,9.8,14.7,8.1,15.5,5.3S180.7,165.1,169.5,160.1z"/>
				<path id="XMLID_8295_" class="st6" d="M162.9,157.5c0,0-22.5-2.8-0.3,8S188.6,160.9,162.9,157.5z"/>
			</g>
			<g id="XMLID_8290_">
				<path id="XMLID_8293_" class="st0" d="M142.8,171.1c0,0,11.8,11.6,18.3,0"/>
				<path id="XMLID_8292_" class="st0" d="M145.5,169.3c0,0,3.2-3.4,5.7,0"/>
				<path id="XMLID_8291_" class="st0" d="M156.8,169.3c0,0-3.2-3.4-5.6,0"/>
			</g>
		</g>
		<path id="XMLID_8288_" class="st0" d="M185.7,227.6c0.9-0.3,1.7-0.9,2.4-2.2"/>
		<path id="XMLID_8287_" class="st0" d="M154.1,220.7c0,0,0.2,1.1,1,2.1"/>
		<path id="XMLID_8286_" class="st0" d="M161.1,230.2c0.2,0.1,0.6,0.3,0.9,0.4"/>
		<path id="XMLID_8285_" class="st2" d="M134.2,373.1c0,0,2.8-93.9-1.7-107.4"/>
	</g>
	<g>
		<path class="st0" d="M106.2,668.9c0.2-1.8,0-4.1,0-6.8c0-2.6,0.1-5.5,0.6-8.9c0.1,0,0.1,0.1,0.1,0.1s0,0,0-0.1
			c0.2-0.5,1.1-2.8,2.5-6.4l-13.6-7.1l-0.8-0.4l-0.8-0.3c-0.5,1-0.9,1.7-1.2,2.1c0,0-0.1,0.1-0.1,0.2c-0.1,0.1-0.3,0.1-0.3,0.2
			c-0.5,0.2-0.8,0.4-0.8,0.4s-0.8,0.3-2.2,0.8c-5.9,9.2-15.2,12.2-24.8,12.3c-0.3,0.9-0.2,1.8,0.2,2.9c0.1,0.3,0.3,0.7,0.5,1
			c0.7,1.2,2.2,2.6,4.2,3.9c1.5,1,3.3,2.1,5.4,3.1c1.3,0.6,2.6,1.3,4.1,2c1.1,0.5,2.2,1,3.4,1.6c1.2,0.4,2.3,0.9,3.5,1.3
			c1.5,0.6,2.9,1,4.3,1.5c2.2,0.7,4.2,1.2,6,1.6c2.4,0.4,4.3,0.6,5.7,0.3c0.4-0.1,0.8-0.2,1.1-0.3c1.4-0.6,2.1-1.5,2.5-2.6
			C106,670.4,106.2,669.7,106.2,668.9z"/>
		<path class="st0" d="M187.2,402.9c0,0-18.7,54.8-36.1,96c-2.1,4.8-4.1,9.3-5.8,13.3l0,0c-4.4,10-5.9,14.7-5.5,16
			c-7.1,25-47.8,114.6-47.8,114.6l15.1,7.8c0,0,19.7-55.9,37-92.3c17.3-36.4,61.3-134.8,66.6-138.7"/>
		<g>
			<g id="XMLID_8283_">
				<path id="XMLID_8284_" class="st0" d="M51.5,651.4c0,0,5.8,1.8,1.9,5.4C49.6,660.4,45.6,652.5,51.5,651.4z"/>
			</g>
			<g id="XMLID_8281_">
				<path id="XMLID_8282_" class="st0" d="M55,652.1c0,0,6.4,2,2.2,6C52.8,662.2,48.4,653.4,55,652.1z"/>
			</g>
			<g id="XMLID_8279_">
				<path id="XMLID_8280_" class="st0" d="M59.4,652.6c0,0,7.5,2.3,2.5,7C56.8,664.4,51.7,654.2,59.4,652.6z"/>
			</g>
			<g id="XMLID_8277_">
				<path id="XMLID_8278_" class="st0" d="M64.8,653.6c0,0,8.6,2.6,2.8,8C61.9,667.1,56,655.4,64.8,653.6z"/>
			</g>
			<path id="XMLID_8276_" class="st0" d="M71,666.1c0,0-10.1-3.4-2.9-7.9s12.5,5.3,12,8.3C79.7,669.5,71,666.1,71,666.1z"/>
		</g>
		<path id="XMLID_8275_" class="st0" d="M152.4,523.9c0,0,2.1,1,1.4,2.7"/>
		<path id="XMLID_8274_" class="st0" d="M142.7,537.9c0,0-2.2-1.8-2.1-2.5"/>
		<g id="XMLID_8272_">
			<path id="XMLID_8273_" class="st0" d="M93.3,647.4c-7.5,2.3-7.6-10.8,1.1-8.4"/>
		</g>
		<g id="XMLID_8270_">
			<path id="XMLID_8271_" class="st0" d="M140.2,531.9c-7.8-1-2.7-13,4.3-7.3"/>
		</g>
	</g>
</g>
</svg>
