<?xml version="1.0" encoding="utf-8"?>
<!-- Generator: Adobe Illustrator 23.0.3, SVG Export Plug-In . SVG Version: 6.00 Build 0)  -->
<svg version="1.1" id="Layer_1" xmlns="http://www.w3.org/2000/svg" xmlns:xlink="http://www.w3.org/1999/xlink" x="0px" y="0px"
	 viewBox="0 0 198.5 373.3" style="enable-background:new 0 0 198.5 373.3;" xml:space="preserve">
<style type="text/css">
	.st0{fill:#2C2C2C;}
</style>
<path class="st0" d="M197.7,315c-0.2-1.2-0.4-2.3-0.7-3.5c-0.2-0.8-0.4-1.6-0.5-2.4c0.3-6.6,0.4-13.2,0.5-19.8c0-3.7,0.1-7.5,0-11.2
	c-0.1-3.8-0.3-7.5-0.5-11.3c-0.1-1.3-0.2-2.5-0.3-3.8c0-1.6-0.1-3.2-0.1-4.8c0.1-1.3,0.1-2.6,0.2-3.9c0.2-3.9,0.3-7.8,0.3-11.7
	c0-3.4-0.1-6.7-0.4-10c0.1-1.3,0.3-2.5,0.4-3.8c0.5-5.4,0.9-10.7,1.4-16.1c0.4-5.4,0.7-10.7,0.6-16.1c-0.2-5.4-0.6-10.9-1-16.3
	c-0.1-1.3-0.2-2.6-0.3-3.9c-0.1-1.1-0.2-2.2-0.5-3.3c0-0.2-0.1-0.4-0.2-0.6c-0.1-5.9,0-11.8,0.2-17.6c0.3-8.8,0.8-17.5,1.2-26.2
	c0.2-4.4,0.2-8.8,0.2-13.1c0-2.2-0.1-4.4-0.2-6.6c-0.1-2.3-0.3-4.6-0.4-6.8c-0.3-3.7-0.5-7.4-0.8-11.1c-0.3-3.6-0.6-7.1-1-10.7
	c-0.4-3.6-0.9-7.2-1.4-10.7c-0.2-1.6-0.5-3.2-0.7-4.8c-0.1-3.4-0.2-6.8-0.3-10.3c-0.2-4-0.3-7.9-0.5-11.9c0.1-0.4,0.1-0.8,0.2-1.1
	c0.3-1.8,0.4-3.7,0.5-5.5c0.2-4,0.1-7.9-0.3-11.8c-0.3-3.1-0.8-6.1-1.8-9c-0.6-1.7-1.2-3.3-2.1-4.8c-0.9-1.5-1.9-3.1-3.3-4.2
	c-0.9-0.8-1.9-1.6-3-2.3c-0.7-0.4-1.6-0.8-2.3-1.1c-0.5-0.2-0.9-0.4-1.4-0.5c-1.3-0.4-2.6-0.6-3.9-0.9c-1-0.2-2-0.3-3-0.4
	c-0.6,0-1.1-0.1-1.7-0.1c-0.5-0.1-1-0.2-1.6-0.3c0,0,0,0,0,0.1c-0.1,0.1-0.2,0.2-0.3,0.3c-0.8,0-1.6,0.1-2.5,0.1
	c-1.9,0.1-3.9,0.3-5.8,0.4c0,0,0,0,0,0c-1.8,0-3.6,0-5.4,0.1c-1.6,0-3.1,0.1-4.7,0.2c-3.4-0.2-6.9-0.2-10.4-0.1
	c-2.9,0.1-5.9,0.2-8.8,0.4c-2.1,0.1-4.2,0.3-6.3,0.5c-0.1,0-0.2,0-0.3,0c-2.3-0.2-4.5-0.3-6.8-0.5c-3.2-0.3-6.4-0.6-9.6-0.9
	c-3.1-0.3-6.2-0.5-9.3-0.6C97.1,0,95.3,0,93.5,0c-1.3,0-2.7,0-4,0c-3.2,0.1-6.3,0.2-9.5,0.4c-1.5,0.1-3,0.3-4.6,0.4
	c-1.6,0.1-3.3,0.3-4.9,0.4c-3.2,0.3-6.3,0.6-9.5,0.8c-3.1,0.3-6.3,0.5-9.4,0.7C50.9,3,50.2,3,49.4,3.1c-2.7-0.1-5.3-0.2-8-0.3
	c-0.8,0-1.6-0.1-2.4-0.1c-0.9,0-1.8,0-2.7,0c-1.5,0-3.1,0-4.6,0c-1.2,0-2.5-0.1-3.7-0.1c-0.1,0-0.2,0-0.3,0c-1.6,0-3.2,0.1-4.9,0.2
	c-2.4,0.2-4.9,0.6-7.2,1.4c-1.5,0.5-3,1.1-4.4,1.8c-0.3,0.2-0.6,0.3-0.9,0.5c-0.1,0-0.2,0.1-0.3,0.1c-0.1,0-0.3,0.1-0.4,0.1
	C9.5,6.9,9.3,7,9,7.1c-0.1,0-0.2,0.1-0.3,0.1c-0.3,0.1-0.6,0.3-1,0.4c0,0,0,0,0,0C7.5,7.8,7.3,7.9,7.1,8c0,0,0,0,0,0c0,0,0,0-0.1,0
	C6.8,8.2,6.6,8.4,6.4,8.5c0,0,0,0,0,0C6.3,8.6,6.2,8.6,6.1,8.7c0,0.1-0.1,0.1-0.1,0.2c0,0,0,0,0,0c0,0,0,0,0,0.1
	c0,0.1-0.1,0.2-0.1,0.2c0,0,0,0.1-0.1,0.1c0,0.1-0.1,0.1-0.1,0.2c0,0.1-0.1,0.1-0.1,0.2c0,0,0,0.1,0,0.1c0,0.1-0.1,0.1-0.1,0.2
	c0,0.1-0.1,0.1-0.1,0.2c0,0,0,0.1,0,0.1c0,0.1,0,0.1-0.1,0.2c0,0.1,0,0.1-0.1,0.2c0,0,0,0,0,0c0,0.1-0.1,0.1-0.1,0.2
	c0,0.1,0,0.2-0.1,0.3c-0.4,0.5-0.8,0.9-1.1,1.4c-0.3,0.4-0.5,0.8-0.8,1.2c-0.4,0.7-0.8,1.5-1,2.3c-0.7,1.9-0.9,3.9-1,5.9
	C1,23,1.2,24.1,1.3,25.2c0.1,1,0.2,1.9,0.3,2.9c0.1,1.1,0.3,2.2,0.5,3.3c0,0.1-0.1,0.2-0.1,0.2c-0.2,0.6-0.3,1.1-0.4,1.7
	c-0.3,1-0.5,2-0.7,3c-0.2,1.2-0.3,2.4-0.4,3.5c-0.1,1.1-0.2,2.2-0.3,3.3C0.1,45,0,46.8,0,48.7c0,0.6,0,1.3,0,1.9
	c0,1.4,0.2,2.7,0.3,4.1c0.2,2.3,0.4,4.7,0.6,7c0.2,2.3,0.5,4.7,0.8,7c0.5,4.5,1,8.9,1.3,13.4c0.3,4.5,0.5,9,0.5,13.5
	c0,4.7-0.2,9.4-0.4,14.1c-0.2,4.7-0.5,9.4-0.5,14.2c0,2.7,0.2,5.4,0.6,8c0,0.1,0,0.2,0,0.3c0,0.4-0.1,0.8-0.1,1.2
	c-0.3,2.3-0.5,4.6-0.7,6.9c-0.2,2.1-0.3,4.3-0.4,6.4c-0.1,2.3-0.3,4.6-0.4,6.9c-0.1,2.1-0.3,4.3-0.3,6.4c-0.1,2.3-0.1,4.6-0.1,7
	c0,4.5,0.1,8.9,0.2,13.4c0.3,8.9,0.8,17.8,1.2,26.7c0.8,17.8,1.7,35.6,1.2,53.4c-0.5,17.4-2.3,34.7-2.7,52.1c-0.1,2.9,0,5.9,0,8.8
	c0.1,3.4,0.3,6.9,0.6,10.3c0.2,2.9,0.5,5.9,0.9,8.8c0.2,1.6,0.4,3.1,0.6,4.7c0.2,1.4,0.4,2.7,0.6,4.1c0,1.6-0.1,3.2,0.3,4.8
	c0.3,1.6,0.9,3.1,1.4,4.6c0.4,1,0.8,2,1.3,2.9c0.7,1.3,1.5,2.5,2.4,3.7c1.3,1.9,3.1,3.5,4.9,4.7c1.1,0.7,2.3,1.3,3.5,1.8
	c0.8,0.3,1.7,0.6,2.5,0.8c1.3,0.3,2.5,0.5,3.8,0.6c0.9,0.1,1.8,0,2.8,0c1.2-0.1,2.5-0.2,3.7-0.4c0.9-0.2,1.9-0.4,2.8-0.7
	c0.3-0.1,0.6-0.2,0.9-0.3c0.1,0,0.2,0,0.4,0c3.2,0.2,6.4,0.4,9.6,0.4c1.7,0,3.4,0,5.1,0c0.1,0,0.1,0,0.2,0c2.6,0.2,5.2,0.4,7.8,0.6
	c2.6,0.2,5.2,0.2,7.8,0.3c5.2,0.2,10.4,0.3,15.6,0.3c5.3,0,10.7-0.3,16-1c1.8-0.2,3.6-0.5,5.5-0.8c1.8,0.2,3.6,0.4,5.4,0.6
	c2.8,0.2,5.6,0.3,8.4,0.4c2.8,0.1,5.6,0.1,8.5,0.1c2.8,0,5.7,0,8.5-0.2c3.2-0.2,6.4-0.3,9.6-0.7c2.6-0.3,5.2-0.8,7.7-1.5
	c1.1-0.3,2.3-0.7,3.4-1c0.3-0.1,0.7-0.2,1-0.3c1,0.5,2,0.9,3,1.2c2,0.7,4,1.1,6.1,1.4c1.8,0.3,3.6,0.4,5.4,0.3
	c2.2-0.1,4.4-0.3,6.5-0.8c1.3-0.3,2.6-0.8,3.9-1.3c0.8-0.3,1.6-0.7,2.4-1.1c0.8-0.4,1.5-0.9,2.2-1.4c1.1-0.8,2.2-1.5,3.3-2.4
	c1.7-1.4,3.2-3.1,4.5-4.8c1.1-1.4,2-2.9,2.8-4.5c0.6-1.2,1.2-2.5,1.6-3.7c0.3-0.9,0.5-1.8,0.7-2.7c0.3-1.4,0.6-2.8,0.7-4.2
	c0.1-1.3,0.2-2.7,0.2-4c0.2-3,0.2-6,0.3-9s0.1-6,0.2-9C198.6,320.3,198.1,317.7,197.7,315z M194.7,248.9c0.1-1.5,0.2-3,0.3-4.5
	c0,1.5-0.1,3.1-0.1,4.6c0,0-0.1,0-0.1,0C194.7,249,194.7,249,194.7,248.9z"/>
</svg>
