<?xml version="1.0" encoding="utf-8"?>
<!-- Generator: Adobe Illustrator 23.0.3, SVG Export Plug-In . SVG Version: 6.00 Build 0)  -->
<svg version="1.1" id="Layer_1" xmlns="http://www.w3.org/2000/svg" xmlns:xlink="http://www.w3.org/1999/xlink" x="0px" y="0px"
	 viewBox="0 0 98.9 808.6" style="enable-background:new 0 0 98.9 808.6;" xml:space="preserve">
<style type="text/css">
	.st0{fill:#2C2C2C;stroke:#2C2C2C;stroke-linecap:round;stroke-linejoin:round;stroke-miterlimit:10;}
</style>
<path class="st0" d="M97.4,237.9c0-2.7-0.1-5.5-0.2-8.2c-0.2-4.4-0.5-8.6-1-12.2c-0.1-1.2-0.2-2.5-0.4-3.7c0-0.8,0-1.7,0-2.5
	c0-1.2,0-2.4-0.8-3.5c0,0,1.7-5.1,0.3-10c-0.1-0.9-0.3-1.8-0.3-2.4c0-0.7,0-1.5,0-2.2c3.9-11,3.8-37,2.4-58c0-0.6,0-1.2-0.1-1.7
	c-0.1-7.1-0.8-14.1-1.5-20.6c0-1.8,0-3.9-0.8-6c0-1.2,1.5-7.1-0.6-11.9c3.6-22.1,1.4-55.3,1.4-65.9c0-10.8-5.5-20.5-18.8-23.3
	c-34.4-6.9-21-6.9-55.3,0C8.5,8.5,3,18.2,3,29c0,10.6-2.3,43.8,1.4,65.9c-2,4.8-0.6,10.8-0.6,11.9C3,108.9,3,111,3,112.8
	c-0.7,6.5-1.4,13.5-1.5,20.6c0,0.6,0,1.2-0.1,1.7c-1.4,21.1-1.5,47,2.4,58c0,0.7,0,1.5,0,2.2c0,0.7-0.2,1.5-0.3,2.4
	c-1.4,5,0.3,10,0.3,10C3,208.9,3,210.1,3,211.3c0,0.8,0,1.7,0,2.5c-0.1,1.2-0.2,2.4-0.4,3.7c-0.5,3.6-0.8,7.8-1,12.2
	c-0.1,2.7-0.2,5.5-0.2,8.2c-1.4,19.6-1.5,43.4,1.6,55.6c0,0.9,0,1.8,0,2.8c-0.6,1.9-0.7,5,0.3,8c0,2,0.2,3.8,0.4,5
	c-2.9,8.8-3.5,26.3-3,43.4c-0.5,16-0.1,32.3,2.3,41.6c0,1,0.1,2,0.7,2.9c0,0-1.1,3.3-0.8,7.1c-0.3,3.8,0.8,7.1,0.8,7.1
	c-0.6,0.9-0.7,1.9-0.7,2.9c-2.4,9.3-2.9,25.6-2.3,41.6c-0.6,17.2,0,34.7,3,43.4c-0.2,1.2-0.4,3-0.4,5c-1,3-0.9,6.1-0.3,8
	c0,1,0,1.9,0,2.8c-3.1,12.2-2.9,35.9-1.6,55.6c0,2.7,0.1,5.5,0.2,8.2c0.2,4.4,0.5,8.6,1,12.2c0.1,1.2,0.2,2.5,0.4,3.7
	c0,0.8,0,1.7,0,2.5c0,1.2,0,2.4,0.8,3.5c0,0-1.7,5.1-0.3,10c0.1,0.9,0.3,1.8,0.3,2.4c0,0.7,0,1.5,0,2.2c-3.9,11-3.8,37-2.4,58
	c0,0.6,0,1.2,0.1,1.7c0.1,7.1,0.8,14.1,1.5,20.6c0,1.8,0,3.9,0.8,6c0,1.2-1.5,7.1,0.6,11.9C0.7,735.8,3,769,3,779.6
	c0,10.8,5.5,20.5,18.8,23.3c17.2,3.4,22.4,5.2,27.7,5.2h0h0c5.2,0,10.5-1.7,27.7-5.2c13.3-2.8,18.8-12.5,18.8-23.3
	c0-10.6,2.3-43.8-1.4-65.9c2-4.8,0.6-10.8,0.6-11.9c0.8-2.1,0.8-4.2,0.8-6c0.7-6.5,1.4-13.5,1.5-20.6c0-0.6,0-1.2,0.1-1.7
	c1.4-21.1,1.5-47-2.4-58c0-0.7,0-1.5,0-2.2c0-0.7,0.2-1.5,0.3-2.4c1.4-5-0.3-10-0.3-10c0.8-1.1,0.8-2.3,0.8-3.5c0-0.8,0-1.7,0-2.5
	c0.1-1.2,0.2-2.4,0.4-3.7c0.5-3.6,0.8-7.8,1-12.2c0.1-2.7,0.2-5.5,0.2-8.2c1.4-19.6,1.5-43.4-1.6-55.6c0-0.9,0-1.8,0-2.8
	c0.6-1.9,0.7-5-0.3-8c0-2-0.2-3.8-0.4-5c2.9-8.8,3.5-26.3,3-43.4c0.5-16,0.1-32.3-2.3-41.6c0-1-0.1-2-0.7-2.9c0,0,1.1-3.3,0.8-7.1
	c0.3-3.8-0.8-7.1-0.8-7.1c0.6-0.9,0.7-1.9,0.7-2.9c2.4-9.3,2.9-25.6,2.3-41.6c0.6-17.2,0-34.7-3-43.4c0.2-1.2,0.4-3,0.4-5
	c1-3,0.9-6.1,0.3-8c0-1,0-1.9,0-2.8C99,281.3,98.8,257.5,97.4,237.9z"/>
</svg>
