<?xml version="1.0" encoding="utf-8"?>
<!-- Generator: Adobe Illustrator 23.0.3, SVG Export Plug-In . SVG Version: 6.00 Build 0)  -->
<svg version="1.1" id="Layer_1" xmlns="http://www.w3.org/2000/svg" xmlns:xlink="http://www.w3.org/1999/xlink" x="0px" y="0px"
	 viewBox="0 0 807.5 7.4" style="enable-background:new 0 0 807.5 7.4;" xml:space="preserve">
<style type="text/css">
	.st0{fill:#2C2C2C;stroke:#2C2C2C;stroke-linecap:round;stroke-linejoin:round;stroke-miterlimit:10;}
</style>
<path class="st0" d="M1.7,3.1C4.1,1.6,11.9,0.9,21,0.7c11.7-0.2,48.9-0.3,71,0.1c0,0,7.2-0.3,12.7,0.1c8.9-0.5,33.4-0.6,54.8-0.4
	c9.5,0,19.2,0.1,27.6,0.2c1.8,0,3.8,0,5.9,0.1c1.2,0,7.5-0.2,12.4,0.1c8.8-0.5,33-0.6,54.3-0.4c10.3,0,21,0.1,30.1,0.2
	c0.7,0,1.5,0,2.3,0c1.2,0,2.4,0,3.5,0.1c0,0,7.2-0.3,12.7,0.1c8.9-0.5,33.4-0.6,54.8-0.4c9.5,0,19.2,0.1,27.6,0.2
	c1.8,0,3.8,0,5.9,0.1c1.2,0,7.5-0.2,12.4,0.1c8.8-0.5,33-0.6,54.3-0.4c10.3,0,21,0.1,30.1,0.2c0.7,0,1.5,0,2.3,0
	c1.2,0,2.4,0,3.5,0.1c0,0,7.2-0.3,12.7,0.1c8.9-0.5,33.4-0.6,54.8-0.4c9.5,0,19.2,0.1,27.6,0.2c1.3,0,2.7,0,4.2,0
	c1.3,0,3.2-0.1,5.3,0c2.1,0,4.8,0,7.3,0.1c7-0.3,20.1-0.4,34.3-0.4c7.8,0,16.1,0,23.9,0.1c7.8,0,15.6,0.1,22.5,0.2
	c0.8,0,1.7,0,2.7,0c1.4,0,3.2,0,4.9,0c2.5-0.1,7-0.1,10.7,0.2c12.6-0.7,56-0.6,78.1-0.1c0,0,24.6-1,17.7,3.4
	c-2.7,1.7-12.4,2.4-23.2,2.4c-10.8,0-45,0.3-67.1-0.2c0,0-7.1,0.3-12.7-0.1c-9.7,0.6-37.9,0.6-60.4,0.4c-7.5,0-15-0.1-21.9-0.2
	c-1.3,0-2.8,0-4.3,0c-1.3,0-3.3,0.1-5.4,0c-2.1,0-4.8,0-7.3-0.1c-6.9,0.3-19.9,0.4-33.8,0.4c-9.7,0-20.1,0-29.5-0.1
	c-5.9,0-11.8-0.1-17.2-0.1c-0.8,0-1.8,0-2.7,0c-1.5,0-3.2,0-5,0c-2.5,0.1-7,0.1-10.7-0.2C495,6.9,467,7,444.6,6.8
	c-8.2,0-16.6-0.1-24.1-0.2c-0.8,0-1.7,0-2.5,0c-1.2,0-2.4,0-3.5-0.1c0,0-7.1,0.3-12.7-0.1c-9.7,0.6-37.9,0.6-60.4,0.4
	c-7.5,0-15-0.1-21.9-0.2c-1.8,0-3.9,0-6-0.1c-1.2,0-7.5,0.2-12.4-0.1C291.4,6.9,263.4,7,241,6.8c-8.2,0-16.6-0.1-24.1-0.2
	c-0.8,0-1.7,0-2.5,0c-1.2,0-2.4,0-3.5-0.1c0,0-7.1,0.3-12.7-0.1c-9.7,0.6-37.9,0.6-60.4,0.4c-7.5,0-15-0.1-21.9-0.2
	c-1.8,0-3.9,0-6-0.1c-1.2,0-7.5,0.2-12.4-0.1c-12.5,0.7-56,0.6-78.1,0.1C19.4,6.5-5.2,7.5,1.7,3.1z"/>
</svg>
