<?xml version="1.0" encoding="utf-8"?>
<!-- Generator: Adobe Illustrator 23.0.3, SVG Export Plug-In . SVG Version: 6.00 Build 0)  -->
<svg version="1.1" id="Layer_1" xmlns="http://www.w3.org/2000/svg" xmlns:xlink="http://www.w3.org/1999/xlink" x="0px" y="0px"
	 viewBox="0 0 7.4 807.5" style="enable-background:new 0 0 7.4 807.5;" xml:space="preserve">
<style type="text/css">
	.st0{fill:#2C2C2C;stroke:#2C2C2C;stroke-linecap:round;stroke-linejoin:round;stroke-miterlimit:10;}
</style>
<path class="st0" d="M3.1,805.8c-1.5-2.4-2.2-10.1-2.3-19.3c-0.2-11.7-0.3-48.9,0.1-71c0,0-0.3-7.2,0.1-12.7
	c-0.5-8.9-0.6-33.4-0.4-54.8c0-9.5,0.1-19.2,0.2-27.6c0-1.8,0-3.8,0.1-5.9c0-1.2-0.2-7.5,0.1-12.4c-0.5-8.8-0.6-33-0.4-54.3
	c0-10.3,0.1-21,0.2-30.1c0-0.7,0-1.5,0-2.3c0-1.2,0-2.4,0.1-3.5c0,0-0.3-7.2,0.1-12.7c-0.5-8.9-0.6-33.4-0.4-54.8
	c0-9.5,0.1-19.2,0.2-27.6c0-1.8,0-3.8,0.1-5.9c0-1.2-0.2-7.5,0.1-12.4c-0.5-8.8-0.6-33-0.4-54.3c0-10.3,0.1-21,0.2-30.1
	c0-0.7,0-1.5,0-2.3c0-1.2,0-2.4,0.1-3.5c0,0-0.3-7.2,0.1-12.7c-0.5-8.9-0.6-33.4-0.4-54.8c0-9.5,0.1-19.2,0.2-27.6
	c0-1.3,0-2.7,0-4.2c0-1.3-0.1-3.2,0-5.3c0-2.1,0-4.8,0.1-7.3c-0.3-7-0.4-20.1-0.4-34.3c0-7.8,0-16.1,0.1-23.9
	c0-7.8,0.1-15.6,0.2-22.5c0-0.8,0-1.7,0-2.7c0-1.4,0-3.2,0-4.9c-0.1-2.5-0.1-7,0.2-10.7c-0.7-12.6-0.6-56-0.1-78.1
	c0,0-1-24.6,3.4-17.7C6,4.4,6.7,14.1,6.7,24.9c0,10.8,0.3,45-0.2,67.1c0,0,0.3,7.1-0.1,12.7c0.6,9.7,0.6,37.9,0.4,60.4
	c0,7.5-0.1,15-0.2,21.9c0,1.3,0,2.8,0,4.3c0,1.3,0.1,3.3,0,5.4c0,2.1,0,4.8-0.1,7.3c0.3,6.9,0.4,19.9,0.4,33.8
	c0,9.7,0,20.1-0.1,29.5c0,5.9-0.1,11.8-0.1,17.2c0,0.8,0,1.8,0,2.7c0,1.5,0,3.2,0,5c0.1,2.5,0.1,7-0.2,10.7
	c0.6,9.7,0.6,37.6,0.4,60.1c0,8.2-0.1,16.6-0.2,24.1c0,0.8,0,1.7,0,2.5c0,1.2,0,2.4-0.1,3.5c0,0,0.3,7.1-0.1,12.7
	c0.6,9.7,0.6,37.9,0.4,60.4c0,7.5-0.1,15-0.2,21.9c0,1.8,0,3.9-0.1,6c0,1.2,0.2,7.5-0.1,12.4c0.6,9.7,0.6,37.6,0.4,60.1
	c0,8.2-0.1,16.6-0.2,24.1c0,0.8,0,1.7,0,2.5c0,1.2,0,2.4-0.1,3.5c0,0,0.3,7.1-0.1,12.7c0.6,9.7,0.6,37.9,0.4,60.4
	c0,7.5-0.1,15-0.2,21.9c0,1.8,0,3.9-0.1,6c0,1.2,0.2,7.5-0.1,12.4c0.7,12.5,0.6,56,0.1,78.1C6.5,788.1,7.5,812.8,3.1,805.8z"/>
</svg>
